<?xml version="1.0" encoding="UTF-8" standalone="no"?>
<!-- Created with Inkscape (http://www.inkscape.org/) -->

<svg
   xmlns:dc="http://purl.org/dc/elements/1.1/"
   xmlns:cc="http://creativecommons.org/ns#"
   xmlns:rdf="http://www.w3.org/1999/02/22-rdf-syntax-ns#"
   xmlns:svg="http://www.w3.org/2000/svg"
   xmlns="http://www.w3.org/2000/svg"
   xmlns:sodipodi="http://sodipodi.sourceforge.net/DTD/sodipodi-0.dtd"
   xmlns:inkscape="http://www.inkscape.org/namespaces/inkscape"
   width="8.25in"
   height="10.25in"
   viewBox="0 0 742.50001 922.50002"
   id="svg2"
   version="1.1"
   inkscape:version="0.91 r13725"
   sodipodi:docname="the venetian swap.svg">
  <defs
     id="defs4" />
  <sodipodi:namedview
     id="base"
     pagecolor="#ffffff"
     bordercolor="#666666"
     borderopacity="1.0"
     inkscape:pageopacity="0.0"
     inkscape:pageshadow="2"
     inkscape:zoom="1.4142136"
     inkscape:cx="190.05365"
     inkscape:cy="637.24664"
     inkscape:document-units="px"
     inkscape:current-layer="layer1"
     showgrid="false"
     units="in"
     showguides="true"
     inkscape:guide-bbox="true"
     inkscape:window-width="1920"
     inkscape:window-height="1017"
     inkscape:window-x="-8"
     inkscape:window-y="-8"
     inkscape:window-maximized="1">
    <sodipodi:guide
       position="74.751289,889.43934"
       orientation="1,0"
       id="guide4138" />
    <sodipodi:guide
       position="36.365492,885.9038"
       orientation="1,0"
       id="guide4140" />
    <sodipodi:guide
       position="147.5,885.00002"
       orientation="0,1"
       id="guide4142" />
    <sodipodi:guide
       position="171.42857,849.64288"
       orientation="0,1"
       id="guide4144" />
    <sodipodi:guide
       position="665.35715,730.00002"
       orientation="1,0"
       id="guide4146" />
    <sodipodi:guide
       position="704.28572,740.35716"
       orientation="1,0"
       id="guide4148" />
    <sodipodi:guide
       position="319.28572,75.000002"
       orientation="0,1"
       id="guide4150" />
    <sodipodi:guide
       position="341.07143,36.785715"
       orientation="0,1"
       id="guide4152" />
  </sodipodi:namedview>
  <metadata
     id="metadata7">
    <rdf:RDF>
      <cc:Work
         rdf:about="">
        <dc:format>image/svg+xml</dc:format>
        <dc:type
           rdf:resource="http://purl.org/dc/dcmitype/StillImage" />
        <dc:title></dc:title>
      </cc:Work>
    </rdf:RDF>
  </metadata>
  <g
     inkscape:label="Layer 1"
     inkscape:groupmode="layer"
     id="layer1"
     transform="translate(0,-129.86215)">
    <text
       xml:space="preserve"
       style="font-style:normal;font-weight:normal;font-size:38.84967041px;line-height:125%;font-family:sans-serif;letter-spacing:0px;word-spacing:0px;fill:#000000;fill-opacity:1;stroke:none;stroke-width:1px;stroke-linecap:butt;stroke-linejoin:miter;stroke-opacity:1"
       x="79.828514"
       y="237.34521"
       id="text5141"
       sodipodi:linespacing="125%"><tspan
         sodipodi:role="line"
         x="79.828514"
         y="237.34521"
         style="font-style:normal;font-variant:normal;font-weight:normal;font-stretch:normal;font-family:'Archivo Black';-inkscape-font-specification:'Archivo Black, '"
         id="tspan5321">The Baltimore Crew</tspan></text>
    <text
       xml:space="preserve"
       style="font-style:normal;font-weight:normal;font-size:40px;line-height:125%;font-family:sans-serif;letter-spacing:0px;word-spacing:0px;fill:#000000;fill-opacity:1;stroke:none;stroke-width:1px;stroke-linecap:butt;stroke-linejoin:miter;stroke-opacity:1"
       x="78.557304"
       y="259.0842"
       id="text5145"
       sodipodi:linespacing="125%"><tspan
         sodipodi:role="line"
         id="tspan5147"
         x="78.557304"
         y="259.0842"
         style="font-style:normal;font-variant:normal;font-weight:normal;font-stretch:normal;font-size:17.5px;font-family:'Archivo Narrow';-inkscape-font-specification:'Archivo Narrow'">Chapter 1: The Job Application</tspan><tspan
         sodipodi:role="line"
         x="78.557304"
         y="280.9592"
         style="font-style:normal;font-variant:normal;font-weight:normal;font-stretch:normal;font-size:17.5px;font-family:'Archivo Narrow';-inkscape-font-specification:'Archivo Narrow'"
         id="tspan5167">Target: The Docks</tspan></text>
    <text
       xml:space="preserve"
       style="font-style:normal;font-weight:normal;font-size:40px;line-height:125%;font-family:sans-serif;letter-spacing:0px;word-spacing:0px;fill:#000000;fill-opacity:1;stroke:none;stroke-width:1px;stroke-linecap:butt;stroke-linejoin:miter;stroke-opacity:1"
       x="85.35714"
       y="318.07642"
       id="text5161"
       sodipodi:linespacing="125%"><tspan
         sodipodi:role="line"
         id="tspan5163"
         x="85.35714"
         y="318.07642" /></text>
    <text
       sodipodi:linespacing="125%"
       id="text5173"
       y="306.94135"
       x="78.557304"
       style="font-style:normal;font-weight:normal;font-size:40px;line-height:125%;font-family:sans-serif;letter-spacing:0px;word-spacing:0px;fill:#000000;fill-opacity:1;stroke:none;stroke-width:1px;stroke-linecap:butt;stroke-linejoin:miter;stroke-opacity:1"
       xml:space="preserve"><tspan
         id="tspan5177"
         style="font-style:normal;font-variant:normal;font-weight:normal;font-stretch:normal;font-size:17.5px;font-family:'Archivo Narrow';-inkscape-font-specification:'Archivo Narrow'"
         y="306.94135"
         x="78.557304"
         sodipodi:role="line" /></text>
    <flowRoot
       xml:space="preserve"
       id="flowRoot5181"
       style="fill:black;stroke:none;stroke-opacity:1;stroke-width:1px;stroke-linejoin:miter;stroke-linecap:butt;fill-opacity:1;font-family:sans-serif;font-style:normal;font-weight:normal;font-size:40px;line-height:125%;letter-spacing:0px;word-spacing:0px"><flowRegion
         id="flowRegion5183"><rect
           id="rect5185"
           width="104.28571"
           height="52.32143"
           x="78.571426"
           y="176.96428" /></flowRegion><flowPara
         id="flowPara5187"></flowPara></flowRoot>    <flowRoot
       xml:space="preserve"
       id="flowRoot5189"
       style="fill:black;stroke:none;stroke-opacity:1;stroke-width:1px;stroke-linejoin:miter;stroke-linecap:butt;fill-opacity:1;font-family:sans-serif;font-style:normal;font-weight:normal;font-size:40px;line-height:125%;letter-spacing:0px;word-spacing:0px"><flowRegion
         id="flowRegion5191"><rect
           id="rect5193"
           width="249.89157"
           height="151.78572"
           x="74.751289"
           y="162.14285" /></flowRegion><flowPara
         id="flowPara5195"></flowPara></flowRoot>    <text
       xml:space="preserve"
       style="font-style:normal;font-weight:normal;font-size:40px;line-height:125%;font-family:sans-serif;letter-spacing:0px;word-spacing:0px;fill:#000000;fill-opacity:1;stroke:none;stroke-width:1px;stroke-linecap:butt;stroke-linejoin:miter;stroke-opacity:1"
       x="211.42857"
       y="373.43356"
       id="text5197"
       sodipodi:linespacing="125%"><tspan
         sodipodi:role="line"
         id="tspan5199"
         x="211.42857"
         y="373.43356"></tspan></text>
    <flowRoot
       xml:space="preserve"
       id="flowRoot5201"
       style="font-style:normal;font-variant:normal;font-weight:normal;font-stretch:normal;font-size:17.5px;line-height:125%;font-family:'Archivo Narrow';-inkscape-font-specification:'Archivo Narrow';letter-spacing:0px;word-spacing:0px;fill:#000000;fill-opacity:1;stroke:none;stroke-width:1px;stroke-linecap:butt;stroke-linejoin:miter;stroke-opacity:1"
       transform="translate(-15.556349,356.13632)"><flowRegion
         id="flowRegion5203"><rect
           id="rect5205"
           width="544.78571"
           height="220.92854"
           x="93.571426"
           y="183.21428"
           style="font-style:normal;font-variant:normal;font-weight:normal;font-stretch:normal;font-size:17.5px;font-family:'Archivo Narrow';-inkscape-font-specification:'Archivo Narrow'" /></flowRegion><flowPara
         style="font-style:normal;font-variant:normal;font-weight:normal;font-stretch:normal;font-size:12.5px;line-height:110.00000238%;font-family:'Archivo Narrow';-inkscape-font-specification:'Archivo Narrow'"
         id="flowPara5239">Last week we caught wind of a big collection of various stolen artifacts coming in from overseas. My buddy in customs would love to bust these guys the legal way, but he just found out his boss is working for these smugglers. Way I see it, we hit them at the transfer to prove ourselves as a new crew, my buddy's nose stays clean, and maybe that leads us to a bigger job down the line. The shipment includes three paintings, a rare jewel, an exotic animal, and some prisoner we probably don't want to mess with. Our objective is to steal the jewel and two paintings. PAYOUT: $2k.</flowPara><flowPara
         style="font-style:normal;font-variant:normal;font-weight:normal;font-stretch:normal;font-size:12.5px;line-height:110.00000238%;font-family:'Archivo Narrow';-inkscape-font-specification:'Archivo Narrow'"
         id="flowPara5247">BONUSES: If you steal both J paintings, gain an extra $2k. The prisoner may be freed and guided out.</flowPara><flowPara
         style="font-style:normal;font-variant:normal;font-weight:normal;font-stretch:normal;font-size:12.5px;line-height:110.00000238%;font-family:'Archivo Narrow';-inkscape-font-specification:'Archivo Narrow'"
         id="flowPara5251" /><flowPara
         style="font-style:normal;font-variant:normal;font-weight:normal;font-stretch:normal;font-size:12.5px;line-height:110.00000238%;font-family:'Archivo Narrow';-inkscape-font-specification:'Archivo Narrow'"
         id="flowPara5253" /></flowRoot>    <g
       id="g5310"
       transform="matrix(0.43396783,0,0,0.43396783,50.389,228.19426)">
      <path
         sodipodi:nodetypes="ssccsssccssscsssccccsccccscc"
         id="path6-19"
         d="m 110.72478,411.89181 c -4.6037,0 -8.3286,3.71965 -8.3286,8.31619 l 0,4.10569 2.8171,0 0,-3.92471 c 0,-3.04787 2.4692,-5.52037 5.5115,-5.52037 3.0425,0 5.5117,2.54148 5.5117,5.52037 l 0,3.92471 2.817,0 0,-4.10561 c 0,-4.47921 -3.7329,-8.31627 -8.3287,-8.31627 z m -9.6065,13.48336 c -0.8299,1.29667 -1.2976,2.79175 -1.2976,4.36136 0,11.00091 4.5545,12.02859 10.6323,12.02859 6.0778,0 11.1762,-1.43554 11.1762,-12.02859 0,-1.56977 -0.4692,-3.06454 -1.2994,-4.36136 l -19.2117,0 z m 9.5906,1.35971 c 1.269,0 2.3218,1.019 2.3218,2.28803 0,0.95177 -0.6021,1.77388 -1.4272,2.12296 l 1.8586,5.57382 -5.4743,0 1.8247,-5.57374 c -0.8251,-0.34901 -1.3934,-1.17119 -1.3934,-2.12289 0,-1.26888 1.0208,-2.28795 2.2898,-2.28795 z"
         style="fill:#000000"
         inkscape:connector-curvature="0" />
      <text
         sodipodi:linespacing="125%"
         id="text9204"
         y="434.64539"
         x="127.46999"
         style="font-style:normal;font-weight:normal;font-size:24.97158623px;line-height:125%;font-family:sans-serif;letter-spacing:0px;word-spacing:0px;fill:#000000;fill-opacity:1;stroke:none;stroke-width:1px;stroke-linecap:butt;stroke-linejoin:miter;stroke-opacity:1"
         xml:space="preserve"><tspan
           style="font-style:normal;font-variant:normal;font-weight:normal;font-stretch:normal;font-family:'Archivo Narrow';-inkscape-font-specification:'Archivo Narrow'"
           y="434.64539"
           x="127.46999"
           id="tspan9206"
           sodipodi:role="line">x 6</tspan></text>
      <text
         xml:space="preserve"
         style="font-style:normal;font-weight:normal;font-size:24.97158623px;line-height:125%;font-family:sans-serif;letter-spacing:0px;word-spacing:0px;fill:#000000;fill-opacity:1;stroke:none;stroke-width:1px;stroke-linecap:butt;stroke-linejoin:miter;stroke-opacity:1"
         x="127.04274"
         y="472.6694"
         id="text9208"
         sodipodi:linespacing="125%"><tspan
           sodipodi:role="line"
           id="tspan9210"
           x="127.04274"
           y="472.6694"
           style="font-style:normal;font-variant:normal;font-weight:normal;font-stretch:normal;font-family:'Archivo Narrow';-inkscape-font-specification:'Archivo Narrow'">x 6</tspan></text>
      <path
         id="path6-1"
         d="m 100.24868,444.9986 c -1.0322,-4.6e-4 -2.1183,0.14934 -3.261,0.48284 a 0.66165501,0.66165501 0 0 0 -0.01,0.006 0.66165501,0.66165501 0 0 0 -0.034,0.0122 0.66165501,0.66165501 0 0 0 -0.027,0.01 0.66165501,0.66165501 0 0 0 -0.033,0.0157 0.66165501,0.66165501 0 0 0 -0.027,0.0136 0.66165501,0.66165501 0 0 0 -0.032,0.0186 0.66165501,0.66165501 0 0 0 -0.024,0.0157 0.66165501,0.66165501 0 0 0 -0.03,0.0222 0.66165501,0.66165501 0 0 0 -0.023,0.0179 0.66165501,0.66165501 0 0 0 -0.028,0.025 0.66165501,0.66165501 0 0 0 -0.021,0.02 0.66165501,0.66165501 0 0 0 -0.026,0.0279 0.66165501,0.66165501 0 0 0 -0.017,0.0207 0.66165501,0.66165501 0 0 0 -0.024,0.0322 0.66165501,0.66165501 0 0 0 -0.015,0.0222 0.66165501,0.66165501 0 0 0 -0.019,0.0329 0.66165501,0.66165501 0 0 0 -0.014,0.0243 0.66165501,0.66165501 0 0 0 -0.016,0.0344 0.66165501,0.66165501 0 0 0 -0.011,0.0258 0.66165501,0.66165501 0 0 0 -0.012,0.0351 0.66165501,0.66165501 0 0 0 -0.01,0.0272 0.66165501,0.66165501 0 0 0 -0.011,0.0487 l -1.5596,7.79797 a 0.66165501,0.66165501 0 0 0 0.3918,0.73925 l 5.7127,2.40823 2.2023,11.29225 -8.1163,1.76301 a 0.66165501,0.66165501 0 0 0 -0.5224,0.63764 l -0.074,5.32602 a 0.66165501,0.66165501 0 0 0 0.8619,0.63978 l 10.2011,-3.2604 1.6802,-0.32579 c 0.012,0 0.024,0 0.037,0 0.6934,0 1.3465,-0.33024 1.8025,-0.86863 0.4557,-0.53796 0.6941,-1.23907 0.6934,-1.96122 l 0,0 c 4e-4,-0.45781 -0.096,-0.90798 -0.2817,-1.3132 l -1.7602,-9.09397 8.7599,3.69275 a 0.66165501,0.66165501 0 0 0 0.011,0.007 0.66165501,0.66165501 0 0 0 0.038,0.0136 0.66165501,0.66165501 0 0 0 0.024,0.008 0.66165501,0.66165501 0 0 0 0.038,0.009 0.66165501,0.66165501 0 0 0 0.029,0.007 0.66165501,0.66165501 0 0 0 0.034,0.007 0.66165501,0.66165501 0 0 0 0.034,0.007 0.66165501,0.66165501 0 0 0 0.03,0 0.66165501,0.66165501 0 0 0 0.038,0 0.66165501,0.66165501 0 0 0 0.025,0 l 5.809,-0.36773 a 0.66165501,0.66165501 0 0 0 0.5552,-0.37875 l 3.5187,-7.4491 6e-4,0 a 0.66165501,0.66165501 0 0 0 0,-0.007 0.66165501,0.66165501 0 0 0 -0.3838,-0.91499 c -0.5423,-0.29739 -1.1006,-0.50562 -1.6685,-0.63714 l -21.4427,-8.32161 a 0.66165501,0.66165501 0 0 0 -0.056,-0.0187 c -0.9276,-0.2676 -1.9059,-0.41855 -2.9381,-0.41913 z m -1.835,0.95582 a 0.66165501,0.66165501 0 0 1 0.2568,0.0501 l 20.2502,8.11618 a 0.66221223,0.66221223 0 0 1 0.4018,0.75149 0.66165501,0.66165501 0 0 0 -0.049,0.10168 l -0.058,0.14418 a 0.66221223,0.66221223 0 0 1 -0.7864,0.23235 l -20.25,-8.1183 a 0.66165501,0.66165501 0 0 1 0.2351,-1.27774 z m 24.8858,8.94051 c 0.3064,0 0.6094,0.0351 0.9101,0.0978 l 1.0266,0.39835 -1.6486,3.49038 c 0.064,-0.28264 0.096,-0.56293 0.093,-0.82569 -0.01,-0.60815 -0.2048,-1.11091 -0.5464,-1.3625 -0.3417,-0.25167 -0.8141,-0.24244 -1.2798,0.0172 -0.115,0.0644 -0.2302,0.14369 -0.3417,0.23506 0.043,-0.0572 0.083,-0.11978 0.1175,-0.18719 0.099,-0.19198 0.1565,-0.41445 0.1546,-0.61145 0,-0.19749 -0.066,-0.36515 -0.1785,-0.45066 -0.056,-0.0422 -0.1212,-0.0644 -0.1916,-0.063 -0.07,0 -0.1464,0.0229 -0.2197,0.0651 -0.1468,0.0844 -0.2842,0.24515 -0.3831,0.43749 -0.099,0.19256 -0.1567,0.41424 -0.1545,0.61167 0,0.19728 0.066,0.36508 0.1785,0.45059 0.1126,0.0854 0.2645,0.0799 0.4113,-0.007 -0.2378,0.24809 -0.4559,0.55027 -0.6332,0.88594 -0.3209,0.60702 -0.5032,1.3092 -0.4962,1.91736 0.01,0.60823 0.2089,1.11299 0.5506,1.36472 0.3415,0.25174 0.8096,0.24022 1.2753,-0.0193 0.2909,-0.16243 0.5774,-0.4191 0.8295,-0.73703 l -0.5858,1.23979 -4.3704,0.27857 2.5946,-6.43479 c 1.0193,-0.53946 1.9691,-0.80186 2.8878,-0.79399 z m -20.7606,2.65675 1.1154,0.4702 2.0708,9.71979 c -0.2093,-0.0637 -0.4279,-0.0982 -0.6507,-0.0982 -0.1897,0 -0.3761,0.0258 -0.5563,0.0722 l -1.9792,-10.16402 z m 2.6016,1.09682 1.1852,0.4996 1.6019,8.27629 c -0.1903,-0.0522 -0.3875,-0.0805 -0.5883,-0.0805 -0.1145,0 -0.2275,0.01 -0.3389,0.0272 l -1.8598,-8.72266 z m 2.1987,10.02334 c 0.2691,0 0.5751,0.13781 0.799,0.40207 0.2239,0.26426 0.3784,0.6888 0.3778,1.10004 7e-4,0.41123 -0.1539,0.83578 -0.3777,1.10004 -0.1062,0.12536 -0.231,0.22125 -0.3613,0.28851 l -0.4279,0.0829 c 0.1467,-0.36729 0.2218,-0.76629 0.2213,-1.17195 l 0,0 c 3e-4,-0.26282 -0.031,-0.52307 -0.093,-0.77367 a 0.66165501,0.66165501 0 0 0 -0.014,-0.15649 l -0.185,-0.86769 c 0.02,0 0.041,-0.007 0.061,-0.007 z m -2.2648,0.29946 c 0.2691,0 0.5753,0.13782 0.7992,0.40215 0.2239,0.26433 0.3782,0.6888 0.3776,1.10003 6e-4,0.41131 -0.1539,0.83578 -0.3777,1.10011 -0.2239,0.26433 -0.53,0.40215 -0.7992,0.40215 -0.269,0 -0.5733,-0.13789 -0.7972,-0.40215 -0.2239,-0.26425 -0.3802,-0.6888 -0.3796,-1.10011 -6e-4,-0.41123 0.1557,-0.8357 0.3796,-1.10003 0.2239,-0.26433 0.5282,-0.40215 0.7972,-0.40215 z m -2.4026,0.7376 c -0.061,0.24795 -0.092,0.50498 -0.091,0.76458 l 0,0 c 0,0.7223 0.2374,1.42341 0.6932,1.9613 0.059,0.0687 0.12,0.13445 0.1844,0.1962 l -7.5627,2.41718 0.054,-3.88079 6.7221,-1.46025 z"
         style="fill:#000000;stroke-linecap:round;stroke-linejoin:round"
         inkscape:connector-curvature="0" />
      <path
         id="path3353"
         d="m 108.24758,481.1236 c 1.3956,0 2.3218,0.6966 3.5641,1.3867 1.1774,0.65417 2.6577,1.21515 4.745,0.78889 0.9906,0.99018 1.997,1.98058 3.0704,2.65136 0.8783,0.54897 1.8652,0.87592 2.8497,0.72144 -0.2824,2.22228 -1.632,4.39608 -3.0428,5.534 -3.7202,-1.23295 -7.4498,-1.84968 -11.1793,-1.84968 -3.7331,0 -7.4661,0.61791 -11.1898,1.85303 -1.4121,-1.13692 -2.7638,-3.31291 -3.0465,-5.53735 0.9842,0.15461 1.9714,-0.17247 2.8497,-0.72137 1.0733,-0.67078 2.0796,-1.66112 3.0703,-2.6513 2.0872,0.42619 3.5675,-0.13485 4.745,-0.78889 1.2425,-0.69042 2.1686,-1.38683 3.5642,-1.38683 z m 0.012,1.29849 c -1.3168,0 -3.5336,1.7796 -3.5336,1.7796 0,0 1.4103,5.33887 3.5336,5.33887 2.1235,0 3.5337,-5.33887 3.5337,-5.33887 0,0 -2.2169,-1.7796 -3.5337,-1.7796 z m 0,9.12591 c 3.5082,0 7.0168,0.57359 10.5336,1.71024 0.145,0.89522 -0.1003,1.56044 -0.6279,2.17559 -0.5886,0.68661 -1.577,1.26953 -2.7486,1.70854 -2.3432,0.87847 -5.3818,1.18933 -7.1572,1.18933 -1.7752,0 -4.8137,-0.31086 -7.1569,-1.18927 -1.1717,-0.43901 -2.1599,-1.02186 -2.7487,-1.7086 -0.5277,-0.61515 -0.773,-1.28024 -0.6281,-2.17552 3.517,-1.13672 7.0254,-1.71031 10.5337,-1.71031 z m 11.5121,3.79782 c 0.6527,0.15828 1.7899,0.51663 1.9942,1.12936 0.5583,1.67452 -1.1245,4.23965 -2.3971,5.85821 0.3506,-1.46237 0.5396,-3.01787 0.5396,-4.63077 0,-0.8013 -0.047,-1.58828 -0.1367,-2.3568 z m -23.0241,0 a 20.327906,20.327906 0 0 0 -0.1366,2.35672 c 0,1.61291 0.1889,3.16841 0.5397,4.63077 -1.2728,-1.61854 -2.9556,-4.18367 -2.3971,-5.85819 0.2041,-0.61273 1.3415,-0.97108 1.994,-1.12937 z m 21.9329,1.27406 c 0.02,0.35737 0.032,0.71814 0.032,1.08261 0,3.94585 -1.2049,7.50682 -3.1171,10.05534 -1.9121,2.54837 -4.4993,4.07465 -7.3355,4.07465 -2.836,0 -5.4233,-1.52628 -7.3353,-4.07465 -1.9122,-2.54852 -3.1168,-6.10942 -3.1168,-10.05529 0,-0.36458 0.012,-0.72536 0.032,-1.08272 0.5449,0.50882 1.2106,0.92162 1.9429,1.26466 -0.2837,1.20957 0.018,2.71402 0.804,3.50002 1.4471,1.4464 4.6922,1.4464 6.1394,0 0.4482,-0.44813 0.6404,-1.16214 0.615,-1.87858 0.3279,0.0144 0.638,0.0217 0.9196,0.0217 0.2816,0 0.5918,-0.008 0.9198,-0.0217 -0.026,0.71637 0.1667,1.43045 0.615,1.87858 1.4472,1.4464 4.6922,1.4464 6.1392,0 0.7864,-0.786 1.0878,-2.29026 0.804,-3.49975 0.7325,-0.34305 1.3981,-0.75604 1.9429,-1.26487 z m -10.4209,7.833 c -1.5348,2.45465 -4.6043,2.76144 -6.139,2.76144 1.5347,1.22743 6.1389,1.22743 6.1389,0 0,1.22743 4.6046,1.22743 6.1393,0 -1.5347,0 -4.6044,-0.30679 -6.1393,-2.76144 z"
         style="fill:#000000"
         inkscape:connector-curvature="0" />
      <text
         sodipodi:linespacing="125%"
         id="text9328"
         y="502.57596"
         x="127.04274"
         style="font-style:normal;font-weight:normal;font-size:24.97158623px;line-height:125%;font-family:sans-serif;letter-spacing:0px;word-spacing:0px;fill:#000000;fill-opacity:1;stroke:none;stroke-width:1px;stroke-linecap:butt;stroke-linejoin:miter;stroke-opacity:1"
         xml:space="preserve"><tspan
           style="font-style:normal;font-variant:normal;font-weight:normal;font-stretch:normal;font-family:'Archivo Narrow';-inkscape-font-specification:'Archivo Narrow'"
           y="502.57596"
           x="127.04274"
           id="tspan9330"
           sodipodi:role="line">x 8</tspan></text>
    </g>
    <text
       xml:space="preserve"
       style="font-style:normal;font-weight:normal;font-size:40px;line-height:125%;font-family:sans-serif;letter-spacing:0px;word-spacing:0px;fill:#000000;fill-opacity:1;stroke:none;stroke-width:1px;stroke-linecap:butt;stroke-linejoin:miter;stroke-opacity:1"
       x="165"
       y="498.86215"
       id="text5297"
       sodipodi:linespacing="125%"><tspan
         sodipodi:role="line"
         id="tspan5299"
         x="165"
         y="498.86215"></tspan></text>
  </g>
</svg>
