<?xml version="1.0" encoding="UTF-8" standalone="no"?>
<!-- Created with Inkscape (http://www.inkscape.org/) -->

<svg
   xmlns:dc="http://purl.org/dc/elements/1.1/"
   xmlns:cc="http://creativecommons.org/ns#"
   xmlns:rdf="http://www.w3.org/1999/02/22-rdf-syntax-ns#"
   xmlns:svg="http://www.w3.org/2000/svg"
   xmlns="http://www.w3.org/2000/svg"
   xmlns:sodipodi="http://sodipodi.sourceforge.net/DTD/sodipodi-0.dtd"
   xmlns:inkscape="http://www.inkscape.org/namespaces/inkscape"
   width="210mm"
   height="297mm"
   viewBox="0 0 210 297"
   version="1.1"
   id="svg3598"
   inkscape:version="0.92.3 (2405546, 2018-03-11)"
   sodipodi:docname="chits 2 wood transfer.svg">
  <defs
     id="defs3592" />
  <sodipodi:namedview
     id="base"
     pagecolor="#ffffff"
     bordercolor="#666666"
     borderopacity="1.0"
     inkscape:pageopacity="0.0"
     inkscape:pageshadow="2"
     inkscape:zoom="0.35"
     inkscape:cx="-205.71429"
     inkscape:cy="560"
     inkscape:document-units="mm"
     inkscape:current-layer="layer1"
     showgrid="false"
     inkscape:window-width="1920"
     inkscape:window-height="1137"
     inkscape:window-x="1912"
     inkscape:window-y="-8"
     inkscape:window-maximized="1" />
  <metadata
     id="metadata3595">
    <rdf:RDF>
      <cc:Work
         rdf:about="">
        <dc:format>image/svg+xml</dc:format>
        <dc:type
           rdf:resource="http://purl.org/dc/dcmitype/StillImage" />
        <dc:title></dc:title>
      </cc:Work>
    </rdf:RDF>
  </metadata>
  <g
     inkscape:label="Layer 1"
     inkscape:groupmode="layer"
     id="layer1">
    <path
       sodipodi:nodetypes="cccccccssccccccccssccccssscccccccsccccccsccccccccccccccccccccssscccccccccccccccccsscccccccccsssccccccccccssscccccccccccsssccccccccccccccc"
       id="path5969-14-1"
       d="m -50.537687,194.70532 v -5.28392 h 0.982808 v 5.28405 h -0.982729 z m -6.90208,-0.0347 c -0.861671,0 -1.56106,-0.6993 -1.56106,-1.56084 0,-0.86158 0.699389,-1.55918 1.56106,-1.55918 0.703199,0 1.296908,0.46515 1.491618,1.10425 h 3.384042 v -3.23349 h 0.982858 v 4.21618 h -4.38958 c -0.21603,0.60211 -0.79247,1.033 -1.468938,1.033 z m 11.625228,1.77382 c -0.861668,0 -1.559359,-0.69927 -1.559359,-1.56086 0,-0.6736 0.426591,-1.24731 1.024639,-1.46544 v -3.99673 h 0.98103 v 3.96724 c 0.64434,0.1918 1.114822,0.78857 1.114822,1.49488 0,0.86164 -0.69941,1.56091 -1.561081,1.56091 z m -2.651619,-5.08829 v -1.93479 h 0.981141 v 1.93479 h -0.981041 z m 10.476021,0.74699 c -0.86165,0 -1.56109,-0.69937 -1.56109,-1.56093 0,-0.72689 0.497229,-1.33758 1.170409,-1.51056 v -2.49701 h -4.102241 v -0.98104 h 5.08499 v 3.54564 c 0.568032,0.23293 0.96724,0.7908 0.96724,1.44292 0,0.86156 -0.697748,1.56087 -1.559409,1.56087 z m -24.92125,-2.47809 v -0.98271 h 5.033748 v -3.08882 h 2.428362 v 0.98116 h -1.445512 v 3.09046 h -6.016508 z m 7.940559,-0.68503 v -12.00085 h 12.009141 v 12.00097 h -12.009052 z m -6.847621,-4.52197 v -4.9987 c -0.638439,-0.19513 -1.102659,-0.78882 -1.102659,-1.49141 0,-0.86148 0.697749,-1.56088 1.559409,-1.56088 0.861661,0 1.561021,0.69933 1.561021,1.56079 0,0.67756 -0.432861,1.25367 -1.03664,1.4689 v 4.04031 h 5.387969 v 0.9809 l -6.3691,0.007 z m 19.33539,0 v -0.98099 h 1.936822 v 0.9809 h -1.93692 z m 4.492871,-1.22067 c -0.605581,0 -1.130329,-0.345 -1.389171,-0.84894 h -3.103798 v -0.98275 h 2.956158 c 0.129241,-0.73161 0.768141,-1.28827 1.536761,-1.28827 0.861661,0 1.55934,0.69941 1.55934,1.5609 0,0.86158 -0.69773,1.55913 -1.559409,1.55913 z m -19.396091,-0.84894 v -0.98275 h 1.93693 v 0.98275 z m 0.42231,-2.0263 v -6.11002 c -0.63889,-0.1952 -1.104379,-0.78894 -1.104379,-1.49147 0,-0.86149 0.6994,-1.56089 1.561071,-1.56089 0.861618,0 1.559208,0.6994 1.559208,1.56089 0,0.67751 -0.43153,1.25366 -1.034899,1.46885 v 5.15011 h 0.53345 v 0.98266 h -1.514401 z m 14.48091,0 v -0.98263 h 1.447171 v -5.29389 c -0.62918,-0.20135 -1.085229,-0.79228 -1.085229,-1.48791 0,-0.8615 0.699328,-1.55918 1.561,-1.55918 0.86165,0 1.559359,0.69768 1.559359,1.55913 0,0.68452 -0.44095,1.26557 -1.054111,1.47585 v 6.28863 h -2.428338 z m -10.081048,-3.86413 v -1.94006 h 0.982858 v 1.94006 z m 2.026499,0 v -3.7475 c -0.61196,-0.2108 -1.052441,-0.79077 -1.052441,-1.47401 0,-0.86149 0.699482,-1.56093 1.56115,-1.56093 0.861672,0 1.559362,0.69949 1.559362,1.56093 0,0.69616 -0.4558,1.28567 -1.085342,1.48622 v 3.73529 z m 2.0715,0 v -1.94006 h 0.982871 l -0.003,1.94001 h -0.981041 z m 2.116751,0 v -6.71992 h 0.98103 v 6.71992 h -0.980982 z"
       inkscape:connector-curvature="0"
       style="display:inline;fill:none;stroke:#0000ff;stroke-width:0.17638889;stroke-miterlimit:4;stroke-dasharray:none;stroke-opacity:1" />
    <path
       style="display:inline;opacity:1;fill:none;fill-opacity:1;stroke:#00ff00;stroke-width:0.17638889;stroke-linecap:round;stroke-linejoin:round;stroke-miterlimit:4;stroke-dasharray:none;stroke-opacity:1"
       d="m -27.214267,170.19529 -21.921142,-12.6559 -21.921128,12.6559 v 25.31181 l 21.921128,12.6559 21.921142,-12.6559 z"
       id="path23181-12"
       inkscape:connector-curvature="0" />
    <path
       style="display:inline;opacity:1;fill:none;fill-opacity:1;stroke:#00ff00;stroke-width:0.17638889;stroke-linecap:round;stroke-linejoin:round;stroke-miterlimit:4;stroke-dasharray:none;stroke-opacity:1"
       d="m -33.348597,173.73494 -15.786812,-9.11623 -15.786809,9.11623 v 18.2325 l 15.786809,9.11624 15.786812,-9.11624 z"
       id="path23185-3"
       inkscape:connector-curvature="0" />
    <path
       sodipodi:nodetypes="ccccccc"
       inkscape:connector-curvature="0"
       id="path23187-10"
       d="m -34.524598,169.7266 -14.611409,-8.43598 -18.672101,10.77975 5.3e-4,21.56058 18.672701,10.78081 18.672109,-10.77977 -5.29e-4,-16.34988"
       style="display:inline;opacity:1;vector-effect:none;fill:none;fill-opacity:1;stroke:#0000ff;stroke-width:0.1763889;stroke-linecap:round;stroke-linejoin:round;stroke-miterlimit:4;stroke-dasharray:none;stroke-dashoffset:0;stroke-opacity:1" />
    <path
       inkscape:connector-curvature="0"
       d="m -31.879667,170.46278 1.97771,2.76335 m -1.77994,-2.76335 1.9777,2.76335 m -1.779931,-2.76335 1.977699,2.76335 m -0.197768,-2.56597 -1.9777,2.36859 m -0.593312,-2.56597 h 1.38439 m 0.593312,0 h 1.18663 m -3.164332,2.76335 h 1.186622 m 0.59331,0 h 1.3844 m -2.966561,-2.76335 0.395541,0.19738 m 0.59331,-0.19738 -0.395541,0.19738 m 1.384389,-0.19738 0.395542,0.19738 m 0.395539,-0.19738 -0.395539,0.19738 m -1.9777,2.36859 -0.395541,0.19738 m 0.395541,-0.19738 0.395539,0.19738 m 1.384401,-0.19738 -0.39555,0.19738 m 0.59331,-0.19738 0.395539,0.19738"
       style="display:inline;vector-effect:none;fill:none;fill-opacity:1;stroke:#0000ff;stroke-width:0.17638889;stroke-linecap:round;stroke-linejoin:round;stroke-miterlimit:4;stroke-dasharray:none;stroke-dashoffset:0;stroke-opacity:1"
       id="path23634-9" />
    <path
       inkscape:connector-curvature="0"
       id="path5145-5"
       style="font-style:normal;font-variant:normal;font-weight:normal;font-stretch:normal;font-size:medium;line-height:11.75328255px;font-family:'Times New Roman';-inkscape-font-specification:'Times New Roman, ';text-align:center;letter-spacing:0px;word-spacing:0px;writing-mode:lr-tb;text-anchor:middle;display:inline;vector-effect:none;fill:none;fill-opacity:1;stroke:#0000ff;stroke-width:0.17638889;stroke-linecap:butt;stroke-linejoin:miter;stroke-miterlimit:4;stroke-dasharray:none;stroke-dashoffset:0;stroke-opacity:1"
       d="m -53.298458,178.48904 h 3.69193 v 0.31725 q -0.351211,0 -0.49683,0.12004 -0.137049,0.12004 -0.137049,0.31724 0,0.20579 0.29981,0.6345 0.0942,0.13718 0.282668,0.42872 l 0.556792,0.89173 0.64245,-0.89173 q 0.616739,-0.84885 0.616739,-1.07179 0,-0.18006 -0.145619,-0.3001 -0.145621,-0.12861 -0.47112,-0.12861 v -0.31725 h 2.655438 v 0.31725 q -0.41973,0.0257 -0.728099,0.2315 -0.41974,0.29152 -1.147839,1.269 l -1.07075,1.4319 1.95304,2.81236 q 0.71954,1.03748 1.027909,1.25184 0.30838,0.20579 0.796639,0.2315 v 0.30869 h -3.700489 v -0.30869 q 0.385461,0 0.59961,-0.17149 0.162761,-0.12002 0.162761,-0.31723 0,-0.19721 -0.54822,-0.99462 l -1.147841,-1.68055 -1.2592,1.68055 q -0.58248,0.78026 -0.58248,0.92603 0,0.20577 0.188449,0.37725 0.197022,0.16292 0.58248,0.18006 v 0.30869 h -2.561219 v -0.30869 q 0.30838,-0.0428 0.53966,-0.21435 0.325501,-0.24865 1.096441,-1.26899 l 1.644658,-2.18644 -1.490469,-2.16072 q -0.633881,-0.92602 -0.985089,-1.15752 -0.34263,-0.24008 -0.865161,-0.24008 z" />
    <path
       style="display:inline;opacity:1;fill:none;fill-opacity:1;stroke:#00ff00;stroke-width:0.17638889;stroke-linecap:round;stroke-linejoin:round;stroke-miterlimit:4;stroke-dasharray:none;stroke-opacity:1"
       d="m 16.627967,170.19529 -21.9211199,-12.6559 -21.9211351,12.6559 V 195.5071 L -5.2931529,208.163 16.627967,195.5071 Z"
       id="path5106-0-6"
       inkscape:connector-curvature="0" />
    <path
       sodipodi:nodetypes="ccccccc"
       inkscape:connector-curvature="0"
       id="path5200-8-9"
       d="m 9.6904371,169.39197 -14.98422,-8.65109 -19.1484731,11.05461 5.29e-4,22.11032 19.1491241,11.05568 19.1484899,-11.05462 -5.3e-4,-16.76675"
       style="display:inline;opacity:1;vector-effect:none;fill:none;fill-opacity:1;stroke:#0000ff;stroke-width:0.1763889;stroke-linecap:round;stroke-linejoin:round;stroke-miterlimit:4;stroke-dasharray:none;stroke-dashoffset:0;stroke-opacity:1" />
    <path
       style="display:inline;opacity:1;fill:none;fill-opacity:1;stroke:#00ff00;stroke-width:0.17638889;stroke-linecap:round;stroke-linejoin:round;stroke-miterlimit:4;stroke-dasharray:none;stroke-opacity:1"
       d="m 10.493637,173.73494 -15.7867999,-9.11623 -15.7868131,9.11623 v 18.2325 l 15.7868131,9.11624 15.7867999,-9.11624 z"
       id="path5567-3"
       inkscape:connector-curvature="0" />
    <path
       style="display:inline;opacity:1;vector-effect:none;fill:none;fill-opacity:1;stroke:#0000ff;stroke-width:0.1763889;stroke-linecap:round;stroke-linejoin:round;stroke-miterlimit:4;stroke-dasharray:none;stroke-dashoffset:0;stroke-opacity:1"
       d="m 8.8691271,170.12925 -14.16287,-8.17717 -18.0988951,10.44904 5.29e-4,20.89912 18.0994761,10.45007 18.0988999,-10.44906 -5.3e-4,-15.84828"
       id="path23179-44"
       inkscape:connector-curvature="0"
       sodipodi:nodetypes="ccccccc" />
    <path
       style="display:inline;fill:none;stroke:#0000ff;stroke-width:0.17638889;stroke-miterlimit:4;stroke-dasharray:none;stroke-opacity:1"
       inkscape:connector-curvature="0"
       d="m -6.0339629,194.70532 v -5.28392 h 0.98279 v 5.28405 h -0.98271 z m -6.9020901,-0.0347 c -0.86167,0 -1.56106,-0.6993 -1.56106,-1.56084 0,-0.86158 0.69939,-1.55918 1.56106,-1.55918 0.70321,0 1.2969,0.46515 1.49161,1.10425 h 3.3840501 v -3.23349 h 0.98285 v 4.21618 h -4.3895801 c -0.21603,0.60211 -0.79248,1.033 -1.46893,1.033 z m 11.6252201,1.77382 c -0.86165,0 -1.55934,-0.69927 -1.55934,-1.56086 0,-0.6736 0.42658,-1.24731 1.02462,-1.46544 v -3.99673 h 0.98102996 v 3.96724 c 0.64434,0.1918 1.11483,0.78857 1.11483,1.49488 0,0.86164 -0.69941,1.56091 -1.56107996,1.56091 z m -2.65161,-5.08829 v -1.93479 h 0.98115 v 1.93479 h -0.98104 z m 10.47602,0.74699 c -0.86165,0 -1.56109,-0.69937 -1.56109,-1.56093 0,-0.72689 0.49721,-1.33758 1.1704,-1.51056 v -2.49701 h -4.10224 v -0.98104 h 5.08499 v 3.54564 c 0.56804,0.23293 0.96724,0.7908 0.96724,1.44292 0,0.86156 -0.69773,1.56087 -1.55942,1.56087 z m -24.9212461,-2.47809 v -0.98271 h 5.033736 v -3.08882 h 2.42837 v 0.98116 h -1.44552 v 3.09046 h -6.016504 z m 7.940536,-0.68503 V 176.93917 H 1.5420371 v 12.00097 H -10.467043 Z m -6.847605,-4.52197 v -4.9987 c -0.638451,-0.19513 -1.102649,-0.78882 -1.102649,-1.49141 0,-0.86148 0.697741,-1.56088 1.559399,-1.56088 0.86166,0 1.56101,0.69933 1.56101,1.56079 0,0.67756 -0.432851,1.25367 -1.03664,1.4689 v 4.04031 h 5.387975 v 0.9809 l -6.369095,0.007 z m 19.3353851,0 v -0.98099 h 1.93683 v 0.9809 h -1.93692 z m 4.49287,-1.22067 c -0.60558,0 -1.13032,-0.345 -1.38917,-0.84894 h -3.10379 v -0.98275 h 2.95615 c 0.12926,-0.73161 0.76816,-1.28827 1.53675,-1.28827 0.86169,0 1.55936,0.69941 1.55936,1.5609 0,0.86158 -0.69772,1.55913 -1.55941,1.55913 z m -19.3960901,-0.84894 v -0.98275 h 1.93693 v 0.98275 z m 0.42231,-2.0263 v -6.11002 c -0.6389,-0.1952 -1.10437,-0.78894 -1.10437,-1.49147 0,-0.86149 0.6994,-1.56089 1.56108,-1.56089 0.8616,0 1.55919,0.6994 1.55919,1.56089 0,0.67751 -0.43153,1.25366 -1.03489,1.46885 v 5.15011 h 0.53345 v 0.98266 h -1.51441 z m 14.4809101,0 v -0.98263 h 1.44717 v -5.29389 c -0.62916,-0.20135 -1.08522,-0.79228 -1.08522,-1.48791 0,-0.8615 0.69932,-1.55918 1.561,-1.55918 0.86165,0 1.55934,0.69768 1.55934,1.55913 0,0.68452 -0.44094,1.26557 -1.0541,1.47585 v 6.28863 h -2.42833 z m -10.08104,-3.86413 v -1.94006 h 0.98285 v 1.94006 z m 2.02651,0 v -3.7475 c -0.61196,-0.2108 -1.05246,-0.79077 -1.05246,-1.47401 0,-0.86149 0.6995,-1.56093 1.56115,-1.56093 0.86167,0 1.55937,0.69949 1.55937,1.56093 0,0.69616 -0.45581,1.28567 -1.08535,1.48622 v 3.73529 z m 2.07149,0 v -1.94006 h 0.98287 l -0.003,1.94001 h -0.98103 z m 2.11675,0 v -6.71992 h 0.98102996 v 6.71992 H -1.8455929 Z"
       id="path25097-0"
       sodipodi:nodetypes="cccccccssccccccccssccccssscccccccsccccccsccccccccccccccccccccssscccccccccccccccccsscccccccccsssccccccccccssscccccccccccsssccccccccccccccc" />
    <path
       inkscape:connector-curvature="0"
       d="m 11.958747,170.75927 1.04218,2.39585 m -0.8685,-2.39585 0.8685,2.05359 m -0.69479,-2.05359 0.86849,2.05359 m 0.86847,-1.88246 -0.86847,1.88246 -0.52109,1.02679 -0.3474,0.34226 -0.34739,0.17114 h -0.3474 l -0.1737,-0.17114 v -0.34226 h 0.34739 v 0.34226 h -0.17369 v -0.17113 m 0,-3.25151 h 1.21587 m 0.5211,0 h 1.04218 m -2.60546,0 0.5211,0.34226 m 0.3474,-0.34226 -0.3474,0.17113 m 1.38957,-0.17113 0.34739,0.17113 m 0.17371,-0.17113 -0.17371,0.17113"
       style="display:inline;vector-effect:none;fill:none;fill-opacity:1;stroke:#0000ff;stroke-width:0.1763889;stroke-linecap:round;stroke-linejoin:round;stroke-miterlimit:4;stroke-dasharray:none;stroke-dashoffset:0;stroke-opacity:1"
       id="path22228-57" />
    <path
       inkscape:connector-curvature="0"
       id="path5252-6"
       style="font-style:normal;font-variant:normal;font-weight:normal;font-stretch:normal;font-size:medium;line-height:9.02759647px;font-family:'Times New Roman';-inkscape-font-specification:'Times New Roman, ';text-align:center;letter-spacing:0px;word-spacing:0px;writing-mode:lr-tb;text-anchor:middle;display:inline;vector-effect:none;fill:none;fill-opacity:1;stroke:#0000ff;stroke-width:0.17638889;stroke-linecap:butt;stroke-linejoin:miter;stroke-miterlimit:4;stroke-dasharray:none;stroke-dashoffset:0;stroke-opacity:1"
       d="m -7.7290729,178.1583 h 2.80715 v 0.24387 h -0.13806 q -0.29585,0 -0.44704,0.13182 -0.14464,0.12524 -0.14464,0.31638 0,0.25705 0.21695,0.71184 l 1.46604,3.04511 1.34769,-3.33512 q 0.11176,-0.27023 0.11176,-0.53388 0,-0.11865 -0.046,-0.17796 -0.0526,-0.0725 -0.16436,-0.11205 -0.11176,-0.0462 -0.39443,-0.0462 v -0.24387 h 1.95907 v 0.24387 q -0.24323,0.0263 -0.37471,0.10546 -0.13148,0.0791 -0.28927,0.2966 -0.0591,0.0923 -0.22352,0.50752 l -2.45215,6.0243 q -0.35501,0.87661 -0.93352,1.32482 -0.57195,0.44819 -1.10447,0.44819 -0.38786,0 -0.63767,-0.2241 -0.24983,-0.22409 -0.24983,-0.51409 0,-0.27683 0.17751,-0.44821 0.18407,-0.16478 0.49963,-0.16478 0.21694,0 0.59167,0.145 0.26297,0.0988 0.32872,0.0988 0.19721,0 0.42731,-0.20431 0.23667,-0.20433 0.47334,-0.79094 l 0.42731,-1.048 -2.1629,-4.55447 q -0.0986,-0.20434 -0.31555,-0.50753 -0.16435,-0.23069 -0.26953,-0.30978 -0.1512,-0.10545 -0.48648,-0.18455 z" />
    <path
       style="display:inline;fill:none;stroke:#0000ff;stroke-width:0.17638889;stroke-miterlimit:4;stroke-dasharray:none;stroke-opacity:1"
       inkscape:connector-curvature="0"
       d="m -94.379938,194.70532 v -5.28392 h 0.98281 v 5.28405 h -0.98273 z m -6.902082,-0.0347 c -0.86167,0 -1.56107,-0.6993 -1.56107,-1.56084 0,-0.86158 0.6994,-1.55918 1.56107,-1.55918 0.7032,0 1.296912,0.46515 1.491622,1.10425 h 3.38404 v -3.23349 h 0.98286 v 4.21618 h -4.38958 c -0.216032,0.60211 -0.792472,1.033 -1.468942,1.033 z m 11.625242,1.77382 c -0.86168,0 -1.55937,-0.69927 -1.55937,-1.56086 0,-0.6736 0.42658,-1.24731 1.02464,-1.46544 v -3.99673 h 0.98104 v 3.96724 c 0.64433,0.1918 1.114809,0.78857 1.114809,1.49488 0,0.86164 -0.699419,1.56091 -1.561069,1.56091 z m -2.65163,-5.08829 v -1.93479 h 0.98114 v 1.93479 h -0.98104 z m 10.476019,0.74699 c -0.86165,0 -1.56109,-0.69937 -1.56109,-1.56093 0,-0.72689 0.497221,-1.33758 1.170411,-1.51056 v -2.49701 h -4.10224 v -0.98104 h 5.084979 v 3.54564 c 0.56804,0.23293 0.96724,0.7908 0.96724,1.44292 0,0.86156 -0.69774,1.56087 -1.55939,1.56087 z m -24.921251,-2.47809 v -0.98271 h 5.03375 v -3.08882 h 2.428351 v 0.98116 h -1.445501 v 3.09046 h -6.01651 z m 7.940551,-0.68503 v -12.00085 h 12.00915 v 12.00097 h -12.009049 z m -6.847621,-4.52197 v -4.9987 c -0.63843,-0.19513 -1.10265,-0.78882 -1.10265,-1.49141 0,-0.86148 0.69774,-1.56088 1.55941,-1.56088 0.86166,0 1.56101,0.69933 1.56101,1.56079 0,0.67756 -0.43285,1.25367 -1.03663,1.4689 v 4.04031 h 5.387972 v 0.9809 l -6.369112,0.007 z m 19.335402,0 v -0.98099 h 1.936819 v 0.9809 h -1.93692 z m 4.492871,-1.22067 c -0.605581,0 -1.130332,-0.345 -1.389171,-0.84894 h -3.103801 v -0.98275 h 2.95615 c 0.129252,-0.73162 0.768152,-1.28828 1.53678,-1.28828 0.86165,0 1.559332,0.69941 1.559332,1.56091 0,0.86158 -0.69773,1.55913 -1.559412,1.55913 z m -19.396093,-0.84894 v -0.98275 h 1.936932 v 0.98275 z m 0.42231,-2.02631 v -6.11001 c -0.6389,-0.1952 -1.10438,-0.78894 -1.10438,-1.49147 0,-0.86149 0.6994,-1.56089 1.56107,-1.56089 0.861622,0 1.559212,0.6994 1.559212,1.56089 0,0.67751 -0.43153,1.25366 -1.0349,1.46885 v 5.15011 h 0.53345 v 0.98265 h -1.514402 z m 14.480912,0 v -0.98262 h 1.44717 v -5.29389 c -0.629179,-0.20135 -1.085231,-0.79228 -1.085231,-1.48791 0,-0.8615 0.699331,-1.55918 1.561,-1.55918 0.86165,0 1.559351,0.69768 1.559351,1.55913 0,0.68452 -0.44095,1.26557 -1.0541,1.47585 v 6.28862 h -2.428341 z m -10.08105,-3.86412 v -1.94006 h 0.98286 v 1.94006 z m 2.0265,0 v -3.7475 c -0.61196,-0.2108 -1.05244,-0.79077 -1.05244,-1.47401 0,-0.86149 0.69948,-1.56093 1.56115,-1.56093 0.86167,0 1.55935,0.69949 1.55935,1.56093 0,0.69616 -0.45579,1.28567 -1.08533,1.48622 v 3.73529 z m 2.0715,0 v -1.94006 h 0.98287 l -0.003,1.94001 h -0.98104 z m 2.11675,0 v -6.71992 h 0.98103 v 6.71992 h -0.98098 z"
       id="path25105-7"
       sodipodi:nodetypes="cccccccssccccccccssccccssscccccccsccccccsccccccccccccccccccccssscccccccccccccccccsscccccccccsssccccccccccssscccccccccccsssccccccccccccccc" />
    <path
       style="display:inline;opacity:1;fill:none;fill-opacity:1;stroke:#00ff00;stroke-width:0.17638889;stroke-linecap:round;stroke-linejoin:round;stroke-miterlimit:4;stroke-dasharray:none;stroke-opacity:1"
       d="m -71.056537,170.19529 -21.921121,-12.6559 -21.921132,12.6559 v 25.31181 l 21.921132,12.6559 21.921121,-12.6559 z"
       id="path25107-3"
       inkscape:connector-curvature="0" />
    <path
       style="display:inline;opacity:1;fill:none;fill-opacity:1;stroke:#00ff00;stroke-width:0.17638889;stroke-linecap:round;stroke-linejoin:round;stroke-miterlimit:4;stroke-dasharray:none;stroke-opacity:1"
       d="m -77.190838,173.73494 -15.78681,-9.11623 -15.786812,9.11623 v 18.2325 l 15.786812,9.11624 15.78681,-9.11624 z"
       id="path25109-5"
       inkscape:connector-curvature="0" />
    <path
       style="display:inline;opacity:1;vector-effect:none;fill:none;fill-opacity:1;stroke:#0000ff;stroke-width:0.1763889;stroke-linecap:round;stroke-linejoin:round;stroke-miterlimit:4;stroke-dasharray:none;stroke-dashoffset:0;stroke-opacity:1"
       d="m -78.366848,169.7266 -14.61142,-8.43598 -18.672082,10.77975 6.1e-4,21.56058 18.6727,10.78081 18.672099,-10.77977 -5.29e-4,-16.34988"
       id="path25111-6"
       inkscape:connector-curvature="0"
       sodipodi:nodetypes="ccccccc" />
    <path
       inkscape:connector-curvature="0"
       id="path5148-6"
       style="font-style:normal;font-variant:normal;font-weight:normal;font-stretch:normal;font-size:medium;line-height:11.75328255px;font-family:'Times New Roman';-inkscape-font-specification:'Times New Roman, ';text-align:center;letter-spacing:0px;word-spacing:0px;writing-mode:lr-tb;text-anchor:middle;display:inline;vector-effect:none;fill:none;fill-opacity:1;stroke:#0000ff;stroke-width:0.17638889;stroke-linecap:butt;stroke-linejoin:miter;stroke-miterlimit:4;stroke-dasharray:none;stroke-dashoffset:0;stroke-opacity:1"
       d="m -97.140708,178.48904 h 3.69192 v 0.31725 q -0.3512,0 -0.49682,0.12004 -0.13706,0.12004 -0.13706,0.31724 0,0.20579 0.29981,0.6345 0.0942,0.13718 0.28268,0.42872 l 0.55678,0.89173 0.64245,-0.89173 q 0.61675,-0.84885 0.61675,-1.07179 0,-0.18006 -0.14562,-0.3001 -0.14562,-0.12861 -0.47113,-0.12861 v -0.31725 h 2.65545 v 0.31725 q -0.41974,0.0257 -0.72811,0.2315 -0.41973,0.29152 -1.14784,1.269 l -1.07074,1.4319 1.95304,2.81236 q 0.71954,1.03748 1.02791,1.25184 0.30838,0.20579 0.79663,0.2315 v 0.30869 h -3.70049 v -0.30869 q 0.38547,0 0.59962,-0.17149 0.16275,-0.12002 0.16275,-0.31723 0,-0.19721 -0.54822,-0.99462 l -1.14784,-1.68055 -1.25919,1.68055 q -0.58249,0.78026 -0.58249,0.92603 0,0.20577 0.18845,0.37725 0.19702,0.16292 0.58249,0.18006 v 0.30869 h -2.56122 v -0.30869 q 0.30837,-0.0428 0.53965,-0.21435 0.32551,-0.24865 1.09645,-1.26899 l 1.64466,-2.18644 -1.49048,-2.16072 q -0.63388,-0.92602 -0.98508,-1.15752 -0.34264,-0.24008 -0.86516,-0.24008 z" />
    <path
       style="display:inline;opacity:1;fill:none;fill-opacity:1;stroke:#00ff00;stroke-width:0.17638889;stroke-linecap:round;stroke-linejoin:round;stroke-miterlimit:4;stroke-dasharray:none;stroke-opacity:1"
       d="m 60.470217,170.19529 -21.92112,-12.6559 -21.92113,12.6559 v 25.31181 l 21.92113,12.6559 21.92112,-12.6559 z"
       id="path25123-2"
       inkscape:connector-curvature="0" />
    <path
       style="display:inline;opacity:1;vector-effect:none;fill:none;fill-opacity:1;stroke:#0000ff;stroke-width:0.1763889;stroke-linecap:round;stroke-linejoin:round;stroke-miterlimit:4;stroke-dasharray:none;stroke-dashoffset:0;stroke-opacity:1"
       d="m 53.532687,169.39195 -14.98419,-8.65108 -19.14851,11.05461 5.2e-4,22.11033 19.14914,11.05568 19.14848,-11.05462 -5.3e-4,-16.76676"
       id="path25125-4"
       inkscape:connector-curvature="0"
       sodipodi:nodetypes="ccccccc" />
    <path
       style="display:inline;opacity:1;fill:none;fill-opacity:1;stroke:#00ff00;stroke-width:0.17638889;stroke-linecap:round;stroke-linejoin:round;stroke-miterlimit:4;stroke-dasharray:none;stroke-opacity:1"
       d="m 54.335907,173.73493 -15.78681,-9.11623 -15.78681,9.11623 v 18.2325 l 15.78681,9.11624 15.78681,-9.11624 z"
       id="path25127-8"
       inkscape:connector-curvature="0" />
    <path
       sodipodi:nodetypes="ccccccc"
       inkscape:connector-curvature="0"
       id="path25129-9"
       d="m 52.711397,170.12925 -14.16288,-8.17718 -18.0989,10.44904 5.3e-4,20.89913 18.09949,10.45007 18.0989,-10.44906 -5.3e-4,-15.84829"
       style="display:inline;opacity:1;vector-effect:none;fill:none;fill-opacity:1;stroke:#0000ff;stroke-width:0.1763889;stroke-linecap:round;stroke-linejoin:round;stroke-miterlimit:4;stroke-dasharray:none;stroke-dashoffset:0;stroke-opacity:1" />
    <path
       sodipodi:nodetypes="cccccccssccccccccssccccssscccccccsccccccsccccccccccccccccccccssscccccccccccccccccsscccccccccsssccccccccccssscccccccccccsssccccccccccccccc"
       id="path25131-85"
       d="m 37.808287,194.70532 v -5.28392 h 0.98281 v 5.28405 h -0.98273 z m -6.9021,-0.0347 c -0.86167,0 -1.56106,-0.6993 -1.56106,-1.56084 0,-0.86158 0.69939,-1.55918 1.56106,-1.55918 0.70321,0 1.29692,0.46515 1.49162,1.10425 h 3.38405 v -3.23349 h 0.98288 v 4.21618 h -4.38961 c -0.21601,0.60211 -0.79246,1.033 -1.46894,1.033 z m 11.62526,1.77382 c -0.86168,0 -1.55937,-0.69927 -1.55937,-1.56086 0,-0.6736 0.42658,-1.24731 1.02464,-1.46544 v -3.99673 h 0.98104 v 3.96724 c 0.64433,0.1918 1.11482,0.78857 1.11482,1.49488 0,0.86164 -0.69943,1.56091 -1.56109,1.56091 z m -2.65163,-5.08829 v -1.93479 h 0.98114 v 1.93479 h -0.98104 z m 10.47601,0.74699 c -0.86165,0 -1.56107,-0.69937 -1.56107,-1.56093 0,-0.72689 0.4972,-1.33758 1.17039,-1.51056 v -2.49701 h -4.10222 v -0.98104 h 5.08498 v 3.54564 c 0.56802,0.23293 0.96724,0.7908 0.96724,1.44292 0,0.86156 -0.69775,1.56087 -1.55943,1.56087 z m -24.92125,-2.47809 v -0.98271 h 5.03376 v -3.08882 h 2.42834 v 0.98116 h -1.4455 v 3.09046 h -6.01652 z m 7.94056,-0.68503 v -12.00086 h 12.00915 v 12.00098 h -12.00906 z m -6.84763,-4.52197 v -4.99871 c -0.63843,-0.19513 -1.10266,-0.78882 -1.10266,-1.49141 0,-0.86148 0.69775,-1.56088 1.55942,-1.56088 0.86165,0 1.56101,0.69933 1.56101,1.56079 0,0.67756 -0.43284,1.25367 -1.03663,1.4689 v 4.04032 h 5.38797 v 0.9809 l -6.36911,0.007 z m 19.33542,0 v -0.98099 h 1.9368 v 0.9809 h -1.9369 z m 4.49285,-1.22067 c -0.60556,0 -1.13031,-0.345 -1.38915,-0.84894 h -3.1038 v -0.98275 h 2.95615 c 0.12924,-0.73162 0.76814,-1.28829 1.53674,-1.28829 0.86168,0 1.55935,0.69943 1.55935,1.56092 0,0.86158 -0.69772,1.55913 -1.55939,1.55913 z m -19.39609,-0.84894 v -0.98275 h 1.93693 v 0.98275 z m 0.42232,-2.02631 v -6.11002 c -0.63892,-0.1952 -1.1044,-0.78894 -1.1044,-1.49147 0,-0.86149 0.69942,-1.56089 1.56108,-1.56089 0.86162,0 1.5592,0.6994 1.5592,1.56089 0,0.67751 -0.43153,1.25366 -1.03489,1.46885 v 5.15011 h 0.53344 v 0.98266 h -1.51438 z m 14.48092,0 v -0.98263 h 1.44716 v -5.29389 c -0.62918,-0.20135 -1.08524,-0.79228 -1.08524,-1.48791 0,-0.8615 0.69935,-1.55918 1.561,-1.55918 0.86165,0 1.55937,0.69768 1.55937,1.55913 0,0.68452 -0.44096,1.26557 -1.0541,1.47585 v 6.28863 h -2.42834 z M 35.781857,176.458 v -1.94006 h 0.98288 v 1.94006 z m 2.02651,0 v -3.7475 c -0.61196,-0.2108 -1.05243,-0.79077 -1.05243,-1.47401 0,-0.86149 0.69947,-1.56093 1.56115,-1.56093 0.86165,0 1.55934,0.69949 1.55934,1.56093 0,0.69616 -0.4558,1.28567 -1.08533,1.48622 v 3.73529 z m 2.0715,0 v -1.94006 h 0.98286 l -0.003,1.94001 h -0.98101 z m 2.11674,0 v -6.71993 h 0.98105 v 6.71993 h -0.981 z"
       inkscape:connector-curvature="0"
       style="display:inline;fill:none;stroke:#0000ff;stroke-width:0.17638889;stroke-miterlimit:4;stroke-dasharray:none;stroke-opacity:1" />
    <path
       id="path25133-5"
       style="display:inline;vector-effect:none;fill:none;fill-opacity:1;stroke:#0000ff;stroke-width:0.1763889;stroke-linecap:round;stroke-linejoin:round;stroke-miterlimit:4;stroke-dasharray:none;stroke-dashoffset:0;stroke-opacity:1"
       d="m 55.910947,170.47969 1.04219,2.39585 m -0.86849,-2.39585 0.86849,2.05359 m -0.6948,-2.05359 0.86849,2.05359 m 0.86849,-1.88246 -0.86849,1.88246 -0.52108,1.02679 -0.34741,0.34226 -0.34739,0.17114 h -0.3474 l -0.17368,-0.17114 v -0.34226 h 0.34739 v 0.34226 h -0.17371 v -0.17113 m 0,-3.25151 h 1.21589 m 0.52109,0 h 1.04219 m -2.60546,0 0.52108,0.34226 m 0.34741,-0.34226 -0.34741,0.17113 m 1.38959,-0.17113 0.34739,0.17113 m 0.17369,-0.17113 -0.17369,0.17113"
       inkscape:connector-curvature="0" />
    <path
       inkscape:connector-curvature="0"
       id="path5142-2"
       style="font-style:normal;font-variant:normal;font-weight:normal;font-stretch:normal;font-size:medium;line-height:9.02759647px;font-family:'Times New Roman';-inkscape-font-specification:'Times New Roman, ';text-align:center;letter-spacing:0px;word-spacing:0px;writing-mode:lr-tb;text-anchor:middle;display:inline;vector-effect:none;fill:none;fill-opacity:1;stroke:#0000ff;stroke-width:0.17638889;stroke-linecap:butt;stroke-linejoin:miter;stroke-miterlimit:4;stroke-dasharray:none;stroke-dashoffset:0;stroke-opacity:1"
       d="m 36.113167,178.15832 h 2.80715 v 0.24387 h -0.13804 q -0.29584,0 -0.44704,0.13182 -0.14464,0.12524 -0.14464,0.31637 0,0.25706 0.21695,0.71185 l 1.46603,3.04511 1.3477,-3.33512 q 0.11175,-0.27023 0.11175,-0.53388 0,-0.11865 -0.046,-0.17796 -0.0526,-0.0725 -0.16435,-0.11206 -0.11176,-0.0462 -0.39445,-0.0462 v -0.24387 h 1.95909 v 0.24387 q -0.24323,0.0263 -0.37472,0.10546 -0.13148,0.0791 -0.28926,0.2966 -0.0591,0.0923 -0.22352,0.50752 l -2.45215,6.02429 q -0.355,0.87662 -0.93353,1.32483 -0.57195,0.44819 -1.10445,0.44819 -0.38788,0 -0.63769,-0.22409 -0.24982,-0.2241 -0.24982,-0.51411 0,-0.27682 0.17751,-0.44819 0.18407,-0.16478 0.49962,-0.16478 0.21695,0 0.59168,0.14499 0.26297,0.0988 0.3287,0.0988 0.19723,0 0.42732,-0.20432 0.23668,-0.20433 0.47334,-0.79094 l 0.42732,-1.04799 -2.16289,-4.55447 q -0.0986,-0.20434 -0.31556,-0.50753 -0.16435,-0.23069 -0.26953,-0.30978 -0.15122,-0.10545 -0.48649,-0.18455 z" />
  </g>
</svg>
