<?xml version="1.0" encoding="UTF-8" standalone="no"?>
<!-- Created with Inkscape (http://www.inkscape.org/) -->

<svg
   xmlns:dc="http://purl.org/dc/elements/1.1/"
   xmlns:cc="http://creativecommons.org/ns#"
   xmlns:rdf="http://www.w3.org/1999/02/22-rdf-syntax-ns#"
   xmlns:svg="http://www.w3.org/2000/svg"
   xmlns="http://www.w3.org/2000/svg"
   xmlns:sodipodi="http://sodipodi.sourceforge.net/DTD/sodipodi-0.dtd"
   xmlns:inkscape="http://www.inkscape.org/namespaces/inkscape"
   width="8.5in"
   height="11in"
   viewBox="0 0 215.9 279.4"
   version="1.1"
   id="svg8"
   sodipodi:docname="security chits.svg"
   inkscape:version="0.92.3 (2405546, 2018-03-11)">
  <defs
     id="defs2" />
  <sodipodi:namedview
     id="base"
     pagecolor="#ffffff"
     bordercolor="#666666"
     borderopacity="1.0"
     inkscape:pageopacity="0.0"
     inkscape:pageshadow="2"
     inkscape:zoom="1.4"
     inkscape:cx="329.18596"
     inkscape:cy="892.18216"
     inkscape:document-units="in"
     inkscape:current-layer="layer2"
     showgrid="false"
     units="in"
     inkscape:window-width="1920"
     inkscape:window-height="1017"
     inkscape:window-x="-8"
     inkscape:window-y="-8"
     inkscape:window-maximized="1"
     inkscape:snap-object-midpoints="true"
     inkscape:snap-bbox="true" />
  <metadata
     id="metadata5">
    <rdf:RDF>
      <cc:Work
         rdf:about="">
        <dc:format>image/svg+xml</dc:format>
        <dc:type
           rdf:resource="http://purl.org/dc/dcmitype/StillImage" />
        <dc:title></dc:title>
      </cc:Work>
    </rdf:RDF>
  </metadata>
  <g
     inkscape:groupmode="layer"
     id="layer2"
     inkscape:label="guides"
     style="display:none">
    <circle
       transform="translate(0,-17.6)"
       style="fill:none;fill-opacity:1;stroke:#ff0000;stroke-width:0.17638889;stroke-miterlimit:4;stroke-dasharray:none;stroke-opacity:1"
       id="path8262"
       cx="24.038044"
       cy="40.170197"
       r="13.881805" />
    <circle
       transform="translate(0,-17.6)"
       r="13.881805"
       cy="40.170197"
       cx="52.101345"
       id="circle8268"
       style="fill:none;fill-opacity:1;stroke:#ff0000;stroke-width:0.17638889;stroke-miterlimit:4;stroke-dasharray:none;stroke-opacity:1" />
    <circle
       transform="translate(0,-17.6)"
       r="13.881805"
       cy="64.171684"
       cx="38.023163"
       id="circle8321"
       style="fill:none;fill-opacity:1;stroke:#ff0000;stroke-width:0.17638889;stroke-miterlimit:4;stroke-dasharray:none;stroke-opacity:1" />
    <circle
       transform="translate(0,-17.6)"
       style="fill:none;fill-opacity:1;stroke:#ff0000;stroke-width:0.17638889;stroke-miterlimit:4;stroke-dasharray:none;stroke-opacity:1"
       id="circle8323"
       cx="66.086464"
       cy="64.171684"
       r="13.881805" />
    <circle
       transform="translate(0,-17.6)"
       style="fill:none;fill-opacity:1;stroke:#ff0000;stroke-width:0.17638889;stroke-miterlimit:4;stroke-dasharray:none;stroke-opacity:1"
       id="circle8354"
       cx="80.167511"
       cy="39.981209"
       r="13.881805" />
    <circle
       transform="translate(0,-17.6)"
       r="13.881805"
       cy="39.981209"
       cx="108.23081"
       id="circle8356"
       style="fill:none;fill-opacity:1;stroke:#ff0000;stroke-width:0.17638889;stroke-miterlimit:4;stroke-dasharray:none;stroke-opacity:1" />
    <circle
       transform="translate(0,-17.6)"
       r="13.881805"
       cy="64.738647"
       cx="94.152634"
       id="circle8385"
       style="fill:none;fill-opacity:1;stroke:#ff0000;stroke-width:0.17638889;stroke-miterlimit:4;stroke-dasharray:none;stroke-opacity:1" />
    <circle
       transform="translate(0,-17.6)"
       style="fill:none;fill-opacity:1;stroke:#ff0000;stroke-width:0.17638889;stroke-miterlimit:4;stroke-dasharray:none;stroke-opacity:1"
       id="circle8387"
       cx="122.21593"
       cy="64.738647"
       r="13.881805" />
    <circle
       transform="translate(0,-17.6)"
       r="13.881805"
       cy="40.170197"
       cx="136.01205"
       id="circle9075"
       style="fill:none;fill-opacity:1;stroke:#ff0000;stroke-width:0.17638889;stroke-miterlimit:4;stroke-dasharray:none;stroke-opacity:1" />
    <circle
       transform="translate(0,-17.6)"
       style="fill:none;fill-opacity:1;stroke:#ff0000;stroke-width:0.17638889;stroke-miterlimit:4;stroke-dasharray:none;stroke-opacity:1"
       id="circle9077"
       cx="150.37515"
       cy="64.360672"
       r="13.881805" />
    <circle
       transform="translate(0,-17.6)"
       style="fill:none;fill-opacity:1;stroke:#ff0000;stroke-width:0.17638889;stroke-miterlimit:4;stroke-dasharray:none;stroke-opacity:1"
       id="circle9079"
       cx="163.7933"
       cy="39.03627"
       r="13.881805" />
    <circle
       transform="translate(0,-17.6)"
       r="13.881805"
       cy="63.226746"
       cx="178.1564"
       id="circle9081"
       style="fill:none;fill-opacity:1;stroke:#ff0000;stroke-width:0.17638889;stroke-miterlimit:4;stroke-dasharray:none;stroke-opacity:1" />
  </g>
  <g
     inkscape:label="Layer 1"
     inkscape:groupmode="layer"
     id="layer1"
     transform="translate(0,-17.6)">
    <g
       style="font-style:normal;font-weight:normal;font-size:48.97977448px;line-height:125%;font-family:sans-serif;letter-spacing:0px;word-spacing:0px;fill:#000000;fill-opacity:1;stroke:none;stroke-width:0.57535839px;stroke-linecap:butt;stroke-linejoin:miter;stroke-opacity:1"
       id="text3340"
       transform="matrix(0.4905155,0,0,0.4905155,7.559096,-459.69881)">
      <path
         d="m 44.955218,1014.453 q 0.669646,0 1.291459,0.2631 0.621814,0.263 1.076216,0.7174 0.478318,0.4305 0.741393,1.0284 0.286991,0.574 0.286991,1.2197 v 18.0087 q 0,0.6936 -0.263075,1.2915 -0.239159,0.5979 -0.693561,1.0523 -0.454402,0.4783 -1.0523,0.7414 -0.597898,0.263 -1.267543,0.263 H 22.187276 q -0.693561,0 -1.315374,-0.263 -0.597898,-0.2631 -1.0523,-0.7414 -0.454402,-0.4544 -0.717477,-1.0523 -0.263075,-0.5979 -0.263075,-1.2915 v -18.0087 q 0,-0.6457 0.263075,-1.2197 0.28699,-0.5979 0.741393,-1.0284 0.478318,-0.4544 1.076215,-0.7174 0.597898,-0.2631 1.267543,-0.2631 v -3.8744 q 0,-2.4394 0.406571,-4.544 0.40657,-2.1046 1.626281,-3.6352 1.243627,-1.5546 3.467807,-2.41555 2.248095,-0.88489 5.907228,-0.88489 3.68305,0 5.907229,0.88489 2.248095,0.86095 3.44389,2.41555 1.219712,1.5306 1.602366,3.6352 0.40657,2.1046 0.40657,4.544 z m -17.889097,-3.8744 v 3.7548 h 13.058085 v -3.7548 q 0,-1.8176 -0.143496,-3.0612 -0.143495,-1.2676 -0.789225,-2.0329 -0.621813,-0.7653 -1.937188,-1.1001 -1.315375,-0.3348 -3.659134,-0.3348 -2.319842,0 -3.635217,0.3348 -1.291459,0.3348 -1.937189,1.1001 -0.645729,0.7653 -0.81314,2.0329 -0.143496,1.2436 -0.143496,3.0612 z"
         id="path3583"
         inkscape:connector-curvature="0"
         style="stroke-width:0.57535839px" />
    </g>
    <g
       transform="matrix(0.4905155,0,0,0.4905155,35.622396,-459.69881)"
       id="g8266"
       style="font-style:normal;font-weight:normal;font-size:48.97977448px;line-height:125%;font-family:sans-serif;letter-spacing:0px;word-spacing:0px;fill:#000000;fill-opacity:1;stroke:none;stroke-width:0.57535839px;stroke-linecap:butt;stroke-linejoin:miter;stroke-opacity:1">
      <path
         style="stroke-width:0.57535839px"
         inkscape:connector-curvature="0"
         id="path8264"
         d="m 44.955218,1014.453 q 0.669646,0 1.291459,0.2631 0.621814,0.263 1.076216,0.7174 0.478318,0.4305 0.741393,1.0284 0.286991,0.574 0.286991,1.2197 v 18.0087 q 0,0.6936 -0.263075,1.2915 -0.239159,0.5979 -0.693561,1.0523 -0.454402,0.4783 -1.0523,0.7414 -0.597898,0.263 -1.267543,0.263 H 22.187276 q -0.693561,0 -1.315374,-0.263 -0.597898,-0.2631 -1.0523,-0.7414 -0.454402,-0.4544 -0.717477,-1.0523 -0.263075,-0.5979 -0.263075,-1.2915 v -18.0087 q 0,-0.6457 0.263075,-1.2197 0.28699,-0.5979 0.741393,-1.0284 0.478318,-0.4544 1.076215,-0.7174 0.597898,-0.2631 1.267543,-0.2631 v -3.8744 q 0,-2.4394 0.406571,-4.544 0.40657,-2.1046 1.626281,-3.6352 1.243627,-1.5546 3.467807,-2.41555 2.248095,-0.88489 5.907228,-0.88489 3.68305,0 5.907229,0.88489 2.248095,0.86095 3.44389,2.41555 1.219712,1.5306 1.602366,3.6352 0.40657,2.1046 0.40657,4.544 z m -17.889097,-3.8744 v 3.7548 h 13.058085 v -3.7548 q 0,-1.8176 -0.143496,-3.0612 -0.143495,-1.2676 -0.789225,-2.0329 -0.621813,-0.7653 -1.937188,-1.1001 -1.315375,-0.3348 -3.659134,-0.3348 -2.319842,0 -3.635217,0.3348 -1.291459,0.3348 -1.937189,1.1001 -0.645729,0.7653 -0.81314,2.0329 -0.143496,1.2436 -0.143496,3.0612 z" />
    </g>
    <g
       transform="matrix(0.49718508,0,0,0.49718508,-228.89781,-249.02537)"
       id="g7180"
       style="stroke-width:0.58466852">
      <path
         style="fill:#000000;stroke-width:0.58466852;stroke-linecap:round;stroke-linejoin:round"
         inkscape:connector-curvature="0"
         id="path7182"
         d="m 525.65901,625.00231 1.94807,9.9888 -7.17953,1.5595 c -0.26665,0.0574 -0.4583,0.29137 -0.46207,0.5641 l -0.0654,4.7112 c -0.006,0.3994 0.38172,0.68693 0.76242,0.566 l 9.02373,-2.8841 1.48619,-0.2882 c 0.0109,2e-4 0.0217,8e-4 0.0326,8e-4 0.61338,0 1.19103,-0.2922 1.59444,-0.7684 0.40311,-0.4759 0.61399,-1.096 0.61338,-1.7349 v 0 c 3.2e-4,-0.405 -0.0845,-0.8032 -0.24921,-1.1616 l -1.55704,-8.0443 z m 1.30079,0.5469 0.9866,0.416 1.83175,8.5978 c -0.18513,-0.057 -0.37846,-0.087 -0.57555,-0.087 -0.16782,0 -0.33269,0.023 -0.49212,0.064 l -1.75068,-8.9909 z m 2.30127,0.9702 1.0484,0.442 1.417,7.321 c -0.16831,-0.046 -0.34278,-0.071 -0.52041,-0.071 -0.10122,0 -0.20121,0.01 -0.29973,0.024 l -1.6452,-7.7159 z m 1.94493,8.8665 c 0.23799,0 0.50876,0.1218 0.70678,0.3556 0.19807,0.2338 0.33472,0.6093 0.33417,0.9731 6.2e-4,0.3638 -0.13616,0.7393 -0.33411,0.9731 -0.094,0.1109 -0.20429,0.1957 -0.31963,0.2552 l -0.37846,0.073 c 0.12974,-0.3249 0.19616,-0.6778 0.19579,-1.0367 v 0 c 2.5e-4,-0.2325 -0.0278,-0.4627 -0.0827,-0.6843 0.002,-0.0465 -0.002,-0.093 -0.0119,-0.1385 l -0.16363,-0.7675 h 0.0536 z m -2.0034,0.2649 c 0.23806,0 0.50889,0.1218 0.70696,0.3556 0.19802,0.2338 0.33455,0.6094 0.33405,0.9732 6.4e-4,0.3638 -0.13616,0.7393 -0.33411,0.9731 -0.19807,0.2338 -0.46884,0.3557 -0.70696,0.3557 -0.23799,0 -0.50723,-0.122 -0.70524,-0.3557 -0.198,-0.2338 -0.33626,-0.6093 -0.33576,-0.9731 -6.4e-4,-0.3638 0.13776,-0.7394 0.33576,-0.9732 0.19801,-0.2338 0.46725,-0.3556 0.70524,-0.3556 z m -2.12526,0.6524 c -0.0536,0.2193 -0.0811,0.4467 -0.0808,0.6764 v 0 c -6.3e-4,0.6388 0.21009,1.259 0.6132,1.7349 0.0516,0.061 0.10614,0.1189 0.16313,0.1735 l -6.68979,2.1381 0.0482,-3.4328 5.94611,-1.2917 z"
         sodipodi:nodetypes="ccccccccscccccccccsccccccsccccccccccccccccscccscccssccccccccc" />
      <path
         d="m 557.57911,623.18801 c 0.36275,-0.83791 0.62263,-1.77224 0.75319,-2.81716 l 0.004,-0.008 c 10e-4,-0.0107 0.002,-0.0215 0.002,-0.0324 4.3e-4,-0.009 8.9e-4,-0.0172 3.5e-4,-0.026 3e-4,-0.0108 -5.1e-4,-0.0215 -10e-4,-0.0322 -5e-4,-0.009 -0.001,-0.0178 -0.002,-0.0265 -6.2e-4,-0.0112 -0.003,-0.022 -0.004,-0.0329 -0.002,-0.008 -0.003,-0.0166 -0.004,-0.0249 -0.002,-0.0106 -0.005,-0.0218 -0.008,-0.0325 -0.002,-0.008 -0.004,-0.0165 -0.007,-0.0246 -0.003,-0.0101 -0.007,-0.0209 -0.0105,-0.0311 -0.003,-0.008 -0.006,-0.016 -0.009,-0.0239 -0.004,-0.0105 -0.009,-0.0206 -0.0139,-0.0309 -0.004,-0.007 -0.007,-0.0142 -0.0105,-0.0211 -0.005,-0.01 -0.0118,-0.0208 -0.0182,-0.0309 -0.004,-0.007 -0.008,-0.0133 -0.0122,-0.0197 -0.007,-0.009 -0.0129,-0.0186 -0.0197,-0.0275 -0.005,-0.006 -0.0102,-0.0131 -0.0155,-0.0197 -0.007,-0.009 -0.0148,-0.0173 -0.0228,-0.0254 -0.006,-0.006 -0.0113,-0.0125 -0.0171,-0.0183 -0.008,-0.008 -0.0163,-0.0158 -0.025,-0.0228 -0.006,-0.006 -0.0122,-0.0118 -0.0188,-0.0169 -0.0112,-0.009 -0.0224,-0.0184 -0.0344,-0.0263 l -5.78328,-4.00456 c -0.2286,-0.15826 -0.537,-0.13378 -0.73783,0.0584 l -3.96138,3.79236 -4.66387,4.4628 -6.07429,5.81523 -0.004,0.009 c -0.008,0.009 -0.0162,0.0173 -0.0244,0.0261 -0.006,0.005 -0.0121,0.0103 -0.0177,0.0159 -0.008,0.009 -0.0152,0.0176 -0.0225,0.0268 -0.007,0.006 -0.0132,0.0129 -0.0194,0.0196 -0.004,0.009 -0.008,0.0182 -0.0118,0.0274 -0.004,0.009 -0.008,0.0181 -0.0118,0.0273 -0.004,0.008 -0.007,0.0162 -0.0105,0.0243 -0.005,0.01 -0.009,0.0201 -0.0135,0.0303 -0.003,0.006 -0.006,0.0138 -0.008,0.0208 l -1.7414,4.84541 c -0.0714,0.20056 -0.0283,0.42406 0.11254,0.58366 l 4.81212,5.47273 4.8e-4,9e-4 9e-5,4e-5 -7.9e-4,0.002 c 0.23004,0.26662 0.64179,0.27106 0.87765,0.01 0.43184,-0.33592 0.79694,-0.71601 1.10321,-1.13088 l 14.28632,-14.48689 c 0.0119,-0.0125 0.0234,-0.0255 0.0343,-0.039 0.54305,-0.65902 1.00914,-1.40032 1.3721,-2.23819 z m -0.13161,-1.82549 c -0.0304,0.0717 -0.0748,0.13666 -0.13056,0.19102 l -13.70048,13.59064 c -0.202,0.20058 -0.51898,0.2269 -0.75129,0.0624 -0.0196,-0.027 -0.0414,-0.0523 -0.0653,-0.0757 l -0.0966,-0.0979 c -0.14082,-0.23136 -0.10467,-0.52909 0.0874,-0.72002 l 13.70231,-13.58979 c 0.45343,-0.45681 1.20468,0.0465 0.95474,0.63959 z m -15.99774,17.0647 c -0.10761,0.24881 -0.24246,0.48248 -0.39947,0.70441 l -0.68395,0.69358 -2.25485,-2.56415 c 0.20714,0.15083 0.42328,0.27558 0.6377,0.3655 0.49608,0.20803 0.97377,0.22383 1.29804,0.0349 0.32428,-0.18899 0.48265,-0.5758 0.43565,-1.04499 -0.012,-0.11593 -0.0358,-0.23734 -0.0708,-0.35995 0.0318,0.0549 0.0682,0.10936 0.11073,0.16113 0.12119,0.14754 0.28149,0.27267 0.44215,0.34027 0.16105,0.0675 0.31957,0.0748 0.42853,0.0133 0.0547,-0.0306 0.0949,-0.0758 0.11866,-0.13328 0.024,-0.0574 0.0321,-0.12719 0.024,-0.20148 -0.0173,-0.14891 -0.0993,-0.31681 -0.22068,-0.46464 -0.12165,-0.14773 -0.28135,-0.27272 -0.44241,-0.34017 -0.16095,-0.0674 -0.31947,-0.0748 -0.4285,-0.0134 -0.10838,0.0616 -0.15806,0.18657 -0.14445,0.33396 -0.11792,-0.28031 -0.28661,-0.56337 -0.49693,-0.82524 -0.38016,-0.47375 -0.88619,-0.86836 -1.38245,-1.07623 -0.49608,-0.20803 -0.97697,-0.22121 -1.30126,-0.0322 -0.32435,0.1889 -0.47944,0.5729 -0.43224,1.04212 0.0297,0.2933 0.13748,0.61593 0.30703,0.93226 l -0.80078,-0.9109 1.30851,-3.64611 4.31319,4.36623 c 0.08,1.01699 -0.0405,1.88025 -0.36953,2.62337 z"
         id="path7184"
         inkscape:connector-curvature="0"
         style="fill:#000000;stroke-width:0.58466852;stroke-linecap:round;stroke-linejoin:round"
         sodipodi:nodetypes="cccccccccccccccccccccccccccccccccccccccccccccccccccccccccccccccccccccccccccccccccccccccc" />
      <path
         style="fill:#000000;stroke-width:0.58466852"
         inkscape:connector-curvature="0"
         d="m 526.02681,607.50554 1.12689,7.14648 -2.91854,-0.74553 4.51983,9.87315 -1.12792,-7.14503 2.91969,0.7441 -4.52014,-9.8733 z"
         id="path7186"
         sodipodi:nodetypes="cccccccc" />
      <path
         sodipodi:nodetypes="cccccccc"
         id="path7188"
         d="m 542.72268,609.72784 -4.0292,6.00895 -1.6347,-2.5301 -3.39261,10.31495 4.02745,-6.00861 1.63652,2.52986 3.39248,-10.31527 z"
         inkscape:connector-curvature="0"
         style="fill:#000000;stroke-width:0.58466852" />
    </g>
    <g
       style="stroke-width:0.58466852"
       id="g8333"
       transform="matrix(0.49718508,0,0,0.49718508,-200.83451,-249.02537)">
      <path
         sodipodi:nodetypes="ccccccccscccccccccsccccccsccccccccccccccccscccscccssccccccccc"
         d="m 525.65901,625.00231 1.94807,9.9888 -7.17953,1.5595 c -0.26665,0.0574 -0.4583,0.29137 -0.46207,0.5641 l -0.0654,4.7112 c -0.006,0.3994 0.38172,0.68693 0.76242,0.566 l 9.02373,-2.8841 1.48619,-0.2882 c 0.0109,2e-4 0.0217,8e-4 0.0326,8e-4 0.61338,0 1.19103,-0.2922 1.59444,-0.7684 0.40311,-0.4759 0.61399,-1.096 0.61338,-1.7349 v 0 c 3.2e-4,-0.405 -0.0845,-0.8032 -0.24921,-1.1616 l -1.55704,-8.0443 z m 1.30079,0.5469 0.9866,0.416 1.83175,8.5978 c -0.18513,-0.057 -0.37846,-0.087 -0.57555,-0.087 -0.16782,0 -0.33269,0.023 -0.49212,0.064 l -1.75068,-8.9909 z m 2.30127,0.9702 1.0484,0.442 1.417,7.321 c -0.16831,-0.046 -0.34278,-0.071 -0.52041,-0.071 -0.10122,0 -0.20121,0.01 -0.29973,0.024 l -1.6452,-7.7159 z m 1.94493,8.8665 c 0.23799,0 0.50876,0.1218 0.70678,0.3556 0.19807,0.2338 0.33472,0.6093 0.33417,0.9731 6.2e-4,0.3638 -0.13616,0.7393 -0.33411,0.9731 -0.094,0.1109 -0.20429,0.1957 -0.31963,0.2552 l -0.37846,0.073 c 0.12974,-0.3249 0.19616,-0.6778 0.19579,-1.0367 v 0 c 2.5e-4,-0.2325 -0.0278,-0.4627 -0.0827,-0.6843 0.002,-0.0465 -0.002,-0.093 -0.0119,-0.1385 l -0.16363,-0.7675 h 0.0536 z m -2.0034,0.2649 c 0.23806,0 0.50889,0.1218 0.70696,0.3556 0.19802,0.2338 0.33455,0.6094 0.33405,0.9732 6.4e-4,0.3638 -0.13616,0.7393 -0.33411,0.9731 -0.19807,0.2338 -0.46884,0.3557 -0.70696,0.3557 -0.23799,0 -0.50723,-0.122 -0.70524,-0.3557 -0.198,-0.2338 -0.33626,-0.6093 -0.33576,-0.9731 -6.4e-4,-0.3638 0.13776,-0.7394 0.33576,-0.9732 0.19801,-0.2338 0.46725,-0.3556 0.70524,-0.3556 z m -2.12526,0.6524 c -0.0536,0.2193 -0.0811,0.4467 -0.0808,0.6764 v 0 c -6.3e-4,0.6388 0.21009,1.259 0.6132,1.7349 0.0516,0.061 0.10614,0.1189 0.16313,0.1735 l -6.68979,2.1381 0.0482,-3.4328 5.94611,-1.2917 z"
         id="path8325"
         inkscape:connector-curvature="0"
         style="fill:#000000;stroke-width:0.58466852;stroke-linecap:round;stroke-linejoin:round" />
      <path
         sodipodi:nodetypes="cccccccccccccccccccccccccccccccccccccccccccccccccccccccccccccccccccccccccccccccccccccccc"
         style="fill:#000000;stroke-width:0.58466852;stroke-linecap:round;stroke-linejoin:round"
         inkscape:connector-curvature="0"
         id="path8327"
         d="m 557.57911,623.18801 c 0.36275,-0.83791 0.62263,-1.77224 0.75319,-2.81716 l 0.004,-0.008 c 10e-4,-0.0107 0.002,-0.0215 0.002,-0.0324 4.3e-4,-0.009 8.9e-4,-0.0172 3.5e-4,-0.026 3e-4,-0.0108 -5.1e-4,-0.0215 -10e-4,-0.0322 -5e-4,-0.009 -0.001,-0.0178 -0.002,-0.0265 -6.2e-4,-0.0112 -0.003,-0.022 -0.004,-0.0329 -0.002,-0.008 -0.003,-0.0166 -0.004,-0.0249 -0.002,-0.0106 -0.005,-0.0218 -0.008,-0.0325 -0.002,-0.008 -0.004,-0.0165 -0.007,-0.0246 -0.003,-0.0101 -0.007,-0.0209 -0.0105,-0.0311 -0.003,-0.008 -0.006,-0.016 -0.009,-0.0239 -0.004,-0.0105 -0.009,-0.0206 -0.0139,-0.0309 -0.004,-0.007 -0.007,-0.0142 -0.0105,-0.0211 -0.005,-0.01 -0.0118,-0.0208 -0.0182,-0.0309 -0.004,-0.007 -0.008,-0.0133 -0.0122,-0.0197 -0.007,-0.009 -0.0129,-0.0186 -0.0197,-0.0275 -0.005,-0.006 -0.0102,-0.0131 -0.0155,-0.0197 -0.007,-0.009 -0.0148,-0.0173 -0.0228,-0.0254 -0.006,-0.006 -0.0113,-0.0125 -0.0171,-0.0183 -0.008,-0.008 -0.0163,-0.0158 -0.025,-0.0228 -0.006,-0.006 -0.0122,-0.0118 -0.0188,-0.0169 -0.0112,-0.009 -0.0224,-0.0184 -0.0344,-0.0263 l -5.78328,-4.00456 c -0.2286,-0.15826 -0.537,-0.13378 -0.73783,0.0584 l -3.96138,3.79236 -4.66387,4.4628 -6.07429,5.81523 -0.004,0.009 c -0.008,0.009 -0.0162,0.0173 -0.0244,0.0261 -0.006,0.005 -0.0121,0.0103 -0.0177,0.0159 -0.008,0.009 -0.0152,0.0176 -0.0225,0.0268 -0.007,0.006 -0.0132,0.0129 -0.0194,0.0196 -0.004,0.009 -0.008,0.0182 -0.0118,0.0274 -0.004,0.009 -0.008,0.0181 -0.0118,0.0273 -0.004,0.008 -0.007,0.0162 -0.0105,0.0243 -0.005,0.01 -0.009,0.0201 -0.0135,0.0303 -0.003,0.006 -0.006,0.0138 -0.008,0.0208 l -1.7414,4.84541 c -0.0714,0.20056 -0.0283,0.42406 0.11254,0.58366 l 4.81212,5.47273 4.8e-4,9e-4 9e-5,4e-5 -7.9e-4,0.002 c 0.23004,0.26662 0.64179,0.27106 0.87765,0.01 0.43184,-0.33592 0.79694,-0.71601 1.10321,-1.13088 l 14.28632,-14.48689 c 0.0119,-0.0125 0.0234,-0.0255 0.0343,-0.039 0.54305,-0.65902 1.00914,-1.40032 1.3721,-2.23819 z m -0.13161,-1.82549 c -0.0304,0.0717 -0.0748,0.13666 -0.13056,0.19102 l -13.70048,13.59064 c -0.202,0.20058 -0.51898,0.2269 -0.75129,0.0624 -0.0196,-0.027 -0.0414,-0.0523 -0.0653,-0.0757 l -0.0966,-0.0979 c -0.14082,-0.23136 -0.10467,-0.52909 0.0874,-0.72002 l 13.70231,-13.58979 c 0.45343,-0.45681 1.20468,0.0465 0.95474,0.63959 z m -15.99774,17.0647 c -0.10761,0.24881 -0.24246,0.48248 -0.39947,0.70441 l -0.68395,0.69358 -2.25485,-2.56415 c 0.20714,0.15083 0.42328,0.27558 0.6377,0.3655 0.49608,0.20803 0.97377,0.22383 1.29804,0.0349 0.32428,-0.18899 0.48265,-0.5758 0.43565,-1.04499 -0.012,-0.11593 -0.0358,-0.23734 -0.0708,-0.35995 0.0318,0.0549 0.0682,0.10936 0.11073,0.16113 0.12119,0.14754 0.28149,0.27267 0.44215,0.34027 0.16105,0.0675 0.31957,0.0748 0.42853,0.0133 0.0547,-0.0306 0.0949,-0.0758 0.11866,-0.13328 0.024,-0.0574 0.0321,-0.12719 0.024,-0.20148 -0.0173,-0.14891 -0.0993,-0.31681 -0.22068,-0.46464 -0.12165,-0.14773 -0.28135,-0.27272 -0.44241,-0.34017 -0.16095,-0.0674 -0.31947,-0.0748 -0.4285,-0.0134 -0.10838,0.0616 -0.15806,0.18657 -0.14445,0.33396 -0.11792,-0.28031 -0.28661,-0.56337 -0.49693,-0.82524 -0.38016,-0.47375 -0.88619,-0.86836 -1.38245,-1.07623 -0.49608,-0.20803 -0.97697,-0.22121 -1.30126,-0.0322 -0.32435,0.1889 -0.47944,0.5729 -0.43224,1.04212 0.0297,0.2933 0.13748,0.61593 0.30703,0.93226 l -0.80078,-0.9109 1.30851,-3.64611 4.31319,4.36623 c 0.08,1.01699 -0.0405,1.88025 -0.36953,2.62337 z" />
      <path
         sodipodi:nodetypes="cccccccc"
         id="path8329"
         d="m 526.02681,607.50554 1.12689,7.14648 -2.91854,-0.74553 4.51983,9.87315 -1.12792,-7.14503 2.91969,0.7441 -4.52014,-9.8733 z"
         inkscape:connector-curvature="0"
         style="fill:#000000;stroke-width:0.58466852" />
      <path
         style="fill:#000000;stroke-width:0.58466852"
         inkscape:connector-curvature="0"
         d="m 542.72268,609.72784 -4.0292,6.00895 -1.6347,-2.5301 -3.39261,10.31495 4.02745,-6.00861 1.63652,2.52986 3.39248,-10.31527 z"
         id="path8331"
         sodipodi:nodetypes="cccccccc" />
    </g>
    <path
       inkscape:connector-curvature="0"
       style="fill:#000000;stroke-width:0.28222221;stroke-linecap:round;stroke-linejoin:round"
       d="m 74.640099,31.600651 c -0.546991,-1.9e-4 -1.122564,0.07915 -1.728167,0.255864 a 0.35064118,0.35064118 0 0 0 -0.005,0.0052 0.35064118,0.35064118 0 0 0 -0.01835,0.0062 0.35064118,0.35064118 0 0 0 -0.01515,0.0052 0.35064118,0.35064118 0 0 0 -0.01734,0.0086 0.35064118,0.35064118 0 0 0 -0.01347,0.0071 0.35064118,0.35064118 0 0 0 -0.017,0.0099 0.35064118,0.35064118 0 0 0 -0.01347,0.0086 0.35064118,0.35064118 0 0 0 -0.01683,0.01145 0.35064118,0.35064118 0 0 0 -0.01178,0.0094 0.35064118,0.35064118 0 0 0 -0.01515,0.0133 0.35064118,0.35064118 0 0 0 -0.01178,0.01044 0.35064118,0.35064118 0 0 0 -0.01347,0.01464 0.35064118,0.35064118 0 0 0 -0.0084,0.01094 0.35064118,0.35064118 0 0 0 -0.01178,0.01666 0.35064118,0.35064118 0 0 0 -0.0084,0.01145 0.35064118,0.35064118 0 0 0 -0.0101,0.01757 0.35064118,0.35064118 0 0 0 -0.0067,0.01279 0.35064118,0.35064118 0 0 0 -0.0084,0.01853 0.35064118,0.35064118 0 0 0 -0.0051,0.0138 0.35064118,0.35064118 0 0 0 -0.0067,0.01853 0.35064118,0.35064118 0 0 0 -0.005,0.01431 0.35064118,0.35064118 0 0 0 -0.0067,0.02565 l -0.826479,4.132458 a 0.35064118,0.35064118 0 0 0 0.207629,0.391729 l 3.027424,1.276277 1.167087,5.984287 -4.301229,0.934287 a 0.35064118,0.35064118 0 0 0 -0.276812,0.337904 l -0.03922,2.822528 a 0.35064118,0.35064118 0 0 0 0.456752,0.338996 l 5.406087,-1.727814 0.890359,-0.172635 c 0.0067,0 0.01347,0 0.01953,0 0.367472,0 0.71355,-0.175008 0.955232,-0.460372 0.241497,-0.285031 0.367842,-0.656619 0.367472,-1.039321 v 0 c 2.19e-4,-0.24261 -0.05067,-0.481133 -0.149305,-0.695905 l -0.932811,-4.819316 4.642257,1.956933 a 0.35064118,0.35064118 0 0 0 0.005,0.0052 0.35064118,0.35064118 0 0 0 0.02003,0.0071 0.35064118,0.35064118 0 0 0 0.01347,0.0052 0.35064118,0.35064118 0 0 0 0.02003,0.0052 0.35064118,0.35064118 0 0 0 0.01515,0.0052 0.35064118,0.35064118 0 0 0 0.01784,0.0052 0.35064118,0.35064118 0 0 0 0.01784,0.0052 0.35064118,0.35064118 0 0 0 0.01515,0 0.35064118,0.35064118 0 0 0 0.01986,0 0.35064118,0.35064118 0 0 0 0.01347,0 l 3.078477,-0.194915 a 0.35064118,0.35064118 0 0 0 0.294166,-0.20071 l 1.864747,-3.947641 h 3.03e-4 a 0.35064118,0.35064118 0 0 0 7.58e-4,-0.0052 0.35064118,0.35064118 0 0 0 -0.203372,-0.484886 c -0.287561,-0.157354 -0.583393,-0.267712 -0.88436,-0.337402 L 76.22487,31.845352 a 0.35064118,0.35064118 0 0 0 -0.02962,-0.0099 c -0.491529,-0.141898 -1.009989,-0.221846 -1.557031,-0.22218 z m -0.972452,0.50655 a 0.35064118,0.35064118 0 0 1 0.136008,0.02659 l 10.73146,4.301129 a 0.35093647,0.35093647 0 0 1 0.212966,0.398237 0.35064118,0.35064118 0 0 0 -0.02609,0.05386 l -0.0308,0.07639 A 0.35093647,0.35093647 0 0 1 84.27448,37.086543 L 73.543053,32.78434 a 0.35064118,0.35064118 0 0 1 0.124561,-0.677139 z m 13.188092,4.737986 c 0.162434,0 0.322967,0.01853 0.482338,0.05164 l 0.544046,0.211113 -0.873645,1.849714 c 0.03366,-0.149777 0.05083,-0.298381 0.04932,-0.437619 -0.0034,-0.322229 -0.10857,-0.588733 -0.289554,-0.722033 -0.181034,-0.133399 -0.431402,-0.12845 -0.678218,0.0091 -0.06093,0.0342 -0.122036,0.0762 -0.181068,0.124612 0.02272,-0.0304 0.04393,-0.06351 0.06228,-0.09925 0.05235,-0.101703 0.08298,-0.219616 0.08197,-0.324034 -0.0012,-0.104598 -0.03484,-0.193489 -0.0946,-0.238809 -0.02979,-0.02281 -0.0643,-0.0342 -0.1015,-0.03326 -0.03737,0 -0.0776,0.01195 -0.116482,0.0342 -0.07777,0.04466 -0.150652,0.12993 -0.203001,0.231825 -0.05235,0.102039 -0.08298,0.219522 -0.08181,0.32413 0.0011,0.104614 0.03484,0.193536 0.0946,0.238856 0.05959,0.04513 0.140215,0.04228 0.217982,-0.0052 -0.126076,0.131445 -0.241615,0.291587 -0.335575,0.469447 -0.170076,0.321659 -0.266712,0.693815 -0.262992,1.01609 0.0034,0.322324 0.110759,0.589874 0.29181,0.723269 0.181017,0.133398 0.429046,0.127271 0.675811,-0.0099 0.154187,-0.08608 0.305983,-0.222135 0.4396,-0.390588 l -0.31041,0.656997 -2.316079,0.147656 1.375003,-3.41012 c 0.540158,-0.285839 1.043502,-0.424935 1.530385,-0.420802 z m -11.001943,1.407914 0.591076,0.249213 1.0974,5.15095 c -0.110927,-0.03373 -0.226735,-0.05216 -0.344815,-0.05216 -0.100491,0 -0.199315,0.0138 -0.294823,0.03848 L 75.853796,38.25315 Z m 1.378689,0.581275 0.628091,0.264747 0.848918,4.385972 c -0.100828,-0.02803 -0.205358,-0.04275 -0.311773,-0.04275 -0.0606,0 -0.120522,0.0052 -0.17957,0.01431 l -0.985632,-4.622604 z m 1.165202,5.311803 c 0.142572,0 0.304804,0.07305 0.423423,0.213109 0.11867,0.139997 0.200527,0.36503 0.200207,0.582936 3.71e-4,0.217955 -0.08164,0.442892 -0.200173,0.582985 -0.05622,0.06646 -0.122373,0.117239 -0.191487,0.152873 l -0.226735,0.0437 c 0.07777,-0.194629 0.117491,-0.406075 0.117323,-0.621037 v 0 c 1.51e-4,-0.139289 -0.01683,-0.277241 -0.04949,-0.410018 a 0.35064118,0.35064118 0 0 0 -0.0067,-0.08295 l -0.09797,-0.459804 c 0.0101,0 0.02155,-0.0052 0.03215,-0.0052 z m -1.20023,0.158715 c 0.142572,0 0.304871,0.07302 0.423541,0.213109 0.11867,0.140097 0.200426,0.365031 0.200123,0.582937 3.03e-4,0.218002 -0.08164,0.442939 -0.200157,0.582985 -0.118669,0.140097 -0.280885,0.213203 -0.423541,0.213203 -0.142572,0 -0.303879,-0.07315 -0.422498,-0.213203 -0.11867,-0.139997 -0.201452,-0.364983 -0.201166,-0.582985 -2.86e-4,-0.217906 0.08248,-0.442845 0.201166,-0.582937 0.11867,-0.140098 0.279909,-0.213109 0.422498,-0.213109 z m -1.273234,0.390874 c -0.03215,0.131395 -0.04848,0.267645 -0.04848,0.405172 v 0 c -3.7e-4,0.382797 0.125908,0.754335 0.367372,1.039415 0.03097,0.03611 0.06363,0.0712 0.0978,0.103992 l -4.007821,1.280929 0.02878,-2.056598 3.562296,-0.773861 z"
       id="path6" />
    <path
       id="path8374"
       d="m 102.70323,31.600688 c -0.54699,-1.9e-4 -1.12256,0.07915 -1.72816,0.255864 a 0.35064118,0.35064118 0 0 0 -0.005,0.0052 0.35064118,0.35064118 0 0 0 -0.0184,0.0062 0.35064118,0.35064118 0 0 0 -0.0151,0.0052 0.35064118,0.35064118 0 0 0 -0.0173,0.0086 0.35064118,0.35064118 0 0 0 -0.0135,0.0071 0.35064118,0.35064118 0 0 0 -0.017,0.0099 0.35064118,0.35064118 0 0 0 -0.0135,0.0086 0.35064118,0.35064118 0 0 0 -0.0168,0.01145 0.35064118,0.35064118 0 0 0 -0.0118,0.0094 0.35064118,0.35064118 0 0 0 -0.0152,0.0133 0.35064118,0.35064118 0 0 0 -0.0118,0.01044 0.35064118,0.35064118 0 0 0 -0.0135,0.01464 0.35064118,0.35064118 0 0 0 -0.008,0.01094 0.35064118,0.35064118 0 0 0 -0.0118,0.01666 0.35064118,0.35064118 0 0 0 -0.008,0.01145 0.35064118,0.35064118 0 0 0 -0.0101,0.01757 0.35064118,0.35064118 0 0 0 -0.007,0.01279 0.35064118,0.35064118 0 0 0 -0.008,0.01853 0.35064118,0.35064118 0 0 0 -0.005,0.0138 0.35064118,0.35064118 0 0 0 -0.007,0.01853 0.35064118,0.35064118 0 0 0 -0.005,0.01431 0.35064118,0.35064118 0 0 0 -0.007,0.02565 l -0.826482,4.132458 a 0.35064118,0.35064118 0 0 0 0.207632,0.391729 l 3.02742,1.276277 1.16709,5.984287 -4.30123,0.934287 a 0.35064118,0.35064118 0 0 0 -0.276813,0.337904 l -0.03922,2.822528 a 0.35064118,0.35064118 0 0 0 0.456753,0.338996 l 5.40609,-1.727814 0.89036,-0.172635 c 0.007,0 0.0135,0 0.0195,0 0.36747,0 0.71355,-0.175008 0.95523,-0.460372 0.24149,-0.285031 0.36784,-0.656619 0.36747,-1.039321 v 0 c 2.2e-4,-0.24261 -0.0507,-0.481133 -0.14931,-0.695905 l -0.93281,-4.819316 4.64226,1.956933 a 0.35064118,0.35064118 0 0 0 0.005,0.0052 0.35064118,0.35064118 0 0 0 0.02,0.0071 0.35064118,0.35064118 0 0 0 0.0135,0.0052 0.35064118,0.35064118 0 0 0 0.02,0.0052 0.35064118,0.35064118 0 0 0 0.0152,0.0052 0.35064118,0.35064118 0 0 0 0.0178,0.0052 0.35064118,0.35064118 0 0 0 0.0178,0.0052 0.35064118,0.35064118 0 0 0 0.0151,0 0.35064118,0.35064118 0 0 0 0.0199,0 0.35064118,0.35064118 0 0 0 0.0135,0 l 3.07848,-0.194915 a 0.35064118,0.35064118 0 0 0 0.29416,-0.20071 l 1.86475,-3.947641 h 3e-4 a 0.35064118,0.35064118 0 0 0 7.6e-4,-0.0052 0.35064118,0.35064118 0 0 0 -0.20337,-0.484886 c -0.28756,-0.157354 -0.58339,-0.267712 -0.88436,-0.337402 l -11.36352,-4.409005 a 0.35064118,0.35064118 0 0 0 -0.0296,-0.0099 c -0.49153,-0.141898 -1.00999,-0.221846 -1.55704,-0.22218 z m -0.97245,0.50655 a 0.35064118,0.35064118 0 0 1 0.13601,0.02659 l 10.73146,4.301129 a 0.35093647,0.35093647 0 0 1 0.21297,0.398237 0.35064118,0.35064118 0 0 0 -0.0261,0.05386 l -0.0308,0.07639 a 0.35093647,0.35093647 0 0 1 -0.41671,0.123136 l -10.73143,-4.302203 a 0.35064118,0.35064118 0 0 1 0.12456,-0.677139 z m 13.18809,4.737986 c 0.16244,0 0.32297,0.01853 0.48234,0.05164 l 0.54405,0.211113 -0.87365,1.849714 c 0.0337,-0.149777 0.0508,-0.298381 0.0493,-0.437619 -0.003,-0.322229 -0.10857,-0.588733 -0.28955,-0.722033 -0.18103,-0.133399 -0.4314,-0.12845 -0.67822,0.0091 -0.0609,0.0342 -0.12203,0.0762 -0.18107,0.124612 0.0227,-0.0304 0.0439,-0.06351 0.0623,-0.09925 0.0524,-0.101703 0.083,-0.219616 0.082,-0.324034 -0.001,-0.104598 -0.0348,-0.193489 -0.0946,-0.238809 -0.0298,-0.02281 -0.0643,-0.0342 -0.1015,-0.03326 -0.0374,0 -0.0776,0.01195 -0.11648,0.0342 -0.0778,0.04466 -0.15065,0.12993 -0.203,0.231825 -0.0523,0.102039 -0.083,0.219522 -0.0818,0.32413 0.001,0.104614 0.0348,0.193536 0.0946,0.238856 0.0596,0.04513 0.14022,0.04228 0.21798,-0.0052 -0.12607,0.131445 -0.24161,0.291587 -0.33557,0.469447 -0.17008,0.321659 -0.26671,0.693815 -0.26299,1.01609 0.003,0.322324 0.11075,0.589874 0.29181,0.723269 0.18101,0.133398 0.42904,0.127271 0.67581,-0.0099 0.15418,-0.08608 0.30598,-0.222135 0.4396,-0.390588 l -0.31041,0.656997 -2.31608,0.147656 1.375,-3.41012 c 0.54016,-0.285839 1.0435,-0.424935 1.53039,-0.420802 z m -11.00194,1.407914 0.59108,0.249213 1.0974,5.15095 c -0.11093,-0.03373 -0.22674,-0.05216 -0.34482,-0.05216 -0.10049,0 -0.19931,0.0138 -0.29482,0.03848 l -1.04884,-5.386434 z m 1.37869,0.581275 0.62809,0.264747 0.84892,4.385972 c -0.10083,-0.02803 -0.20536,-0.04275 -0.31177,-0.04275 -0.0606,0 -0.12053,0.0052 -0.17957,0.01431 l -0.98564,-4.622604 z m 1.1652,5.311803 c 0.14257,0 0.30481,0.07305 0.42343,0.213109 0.11867,0.139997 0.20052,0.36503 0.2002,0.582936 3.7e-4,0.217955 -0.0816,0.442892 -0.20017,0.582985 -0.0562,0.06646 -0.12237,0.117239 -0.19149,0.152873 l -0.22673,0.0437 c 0.0778,-0.194629 0.11749,-0.406075 0.11732,-0.621037 v 0 c 1.5e-4,-0.139289 -0.0168,-0.277241 -0.0495,-0.410018 a 0.35064118,0.35064118 0 0 0 -0.007,-0.08295 l -0.098,-0.459804 c 0.0101,0 0.0216,-0.0052 0.0322,-0.0052 z m -1.20023,0.158715 c 0.14257,0 0.30487,0.07302 0.42354,0.213109 0.11867,0.140097 0.20043,0.365031 0.20013,0.582937 3e-4,0.218002 -0.0816,0.442939 -0.20016,0.582985 -0.11867,0.140097 -0.28089,0.213203 -0.42354,0.213203 -0.14257,0 -0.30388,-0.07315 -0.4225,-0.213203 -0.11867,-0.139997 -0.20145,-0.364983 -0.20117,-0.582985 -2.8e-4,-0.217906 0.0825,-0.442845 0.20117,-0.582937 0.11867,-0.140098 0.27991,-0.213109 0.4225,-0.213109 z m -1.27323,0.390874 c -0.0322,0.131395 -0.0485,0.267645 -0.0485,0.405172 v 0 c -3.7e-4,0.382797 0.12591,0.754335 0.36737,1.039415 0.031,0.03611 0.0636,0.0712 0.0978,0.103992 l -4.00782,1.280929 0.0288,-2.056598 3.5623,-0.773861 z"
       style="fill:#000000;stroke-width:0.28222221;stroke-linecap:round;stroke-linejoin:round"
       inkscape:connector-curvature="0" />
    <path
       inkscape:connector-curvature="0"
       style="font-style:normal;font-weight:normal;font-size:medium;line-height:125%;font-family:sans-serif;letter-spacing:0px;word-spacing:0px;fill:#000000;fill-opacity:1;stroke:none;stroke-width:0.28222221px;stroke-linecap:butt;stroke-linejoin:miter;stroke-opacity:1"
       d="m 89.863426,56.166156 c -0.660658,0 -1.231537,0.05449 -1.712601,0.163544 -0.481065,0.102603 -0.891571,0.253323 -1.231519,0.452198 -0.339948,0.192384 -0.615732,0.426483 -0.827407,0.702353 -0.211657,0.275768 -0.375255,0.583641 -0.49072,0.923622 -0.121915,0.339928 -0.202002,0.708744 -0.240496,1.106443 -0.04493,0.397655 -0.06739,0.814629 -0.06739,1.250775 v 0.663804 h 1.914657 v -0.663804 c 0,-0.487476 0.02246,-0.898007 0.06739,-1.231546 0.03858,-0.333539 0.144377,-0.602916 0.317521,-0.808182 0.173181,-0.205215 0.439346,-0.35276 0.79855,-0.442588 0.352774,-0.09621 0.843476,-0.144268 1.472051,-0.144268 0.622182,0 1.109623,0.04806 1.462396,0.144268 0.346361,0.08983 0.606149,0.237373 0.77933,0.442588 0.17318,0.205266 0.282251,0.474643 0.327158,0.808182 0.0384,0.333539 0.05761,0.74407 0.05761,1.231546 h -0.0036 v 2.597703 c -0.17952,0 -0.349585,0.03835 -0.50994,0.115448 -0.160318,0.07059 -0.304641,0.169992 -0.432914,0.298312 -0.121915,0.121824 -0.221331,0.266209 -0.298302,0.432976 -0.07047,0.160337 -0.105792,0.330318 -0.105792,0.50987 v 7.235188 c 0,0.185988 0.03533,0.362429 0.105792,0.529197 0.07047,0.160318 0.16684,0.301471 0.288664,0.42335 0.121915,0.128254 0.262977,0.22767 0.423332,0.29821 0.16684,0.07047 0.343155,0.105793 0.52916,0.105793 h 9.207524 c 0.17952,0 0.34958,-0.03533 0.50992,-0.105793 0.16032,-0.07047 0.30147,-0.169919 0.42335,-0.29821 0.12192,-0.121915 0.21488,-0.263032 0.27903,-0.42335 0.0705,-0.16684 0.10579,-0.343209 0.10579,-0.529197 V 64.7194 c 0,-0.179557 -0.0353,-0.349542 -0.10579,-0.50987 -0.0641,-0.166767 -0.15724,-0.311145 -0.27903,-0.432976 -0.12191,-0.128327 -0.26299,-0.227716 -0.42335,-0.298319 -0.16032,-0.07695 -0.33033,-0.115448 -0.50994,-0.115448 h -7.240747 v -2.597696 c 0,-0.436146 -0.02246,-0.85312 -0.06739,-1.25077 -0.04493,-0.397699 -0.128255,-0.766515 -0.25017,-1.106443 -0.121915,-0.33998 -0.288646,-0.647854 -0.500303,-0.923622 -0.218087,-0.275869 -0.497096,-0.509969 -0.837044,-0.702353 -0.339948,-0.198875 -0.750454,-0.349591 -1.231519,-0.452198 -0.481065,-0.109053 -1.048683,-0.163543 -1.702928,-0.163543 z"
       id="path3353" />
    <path
       id="path8399"
       d="m 117.92672,56.166156 c -0.66066,0 -1.23154,0.05449 -1.7126,0.163544 -0.48106,0.102603 -0.89157,0.253323 -1.23152,0.452198 -0.33995,0.192384 -0.61573,0.426483 -0.82741,0.702353 -0.21165,0.275768 -0.37525,0.583641 -0.49072,0.923622 -0.12191,0.339928 -0.202,0.708744 -0.24049,1.106443 -0.0449,0.397655 -0.0674,0.814629 -0.0674,1.250775 v 0.663804 h 1.91466 v -0.663804 c 0,-0.487476 0.0225,-0.898007 0.0674,-1.231546 0.0386,-0.333539 0.14437,-0.602916 0.31752,-0.808182 0.17318,-0.205215 0.43934,-0.35276 0.79855,-0.442588 0.35277,-0.09621 0.84347,-0.144268 1.47205,-0.144268 0.62218,0 1.10962,0.04806 1.46239,0.144268 0.34636,0.08983 0.60615,0.237373 0.77933,0.442588 0.17318,0.205266 0.28225,0.474643 0.32716,0.808182 0.0384,0.333539 0.0576,0.74407 0.0576,1.231546 h -0.004 v 2.597703 c -0.17952,0 -0.34958,0.03835 -0.50994,0.115448 -0.16032,0.07059 -0.30464,0.169992 -0.43291,0.298312 -0.12192,0.121824 -0.22133,0.266209 -0.2983,0.432976 -0.0705,0.160337 -0.1058,0.330318 -0.1058,0.50987 v 7.235188 c 0,0.185988 0.0353,0.362429 0.1058,0.529197 0.0705,0.160318 0.16684,0.301471 0.28866,0.42335 0.12191,0.128254 0.26298,0.22767 0.42333,0.29821 0.16684,0.07047 0.34316,0.105793 0.52916,0.105793 h 9.20753 c 0.17952,0 0.34958,-0.03533 0.50992,-0.105793 0.16032,-0.07047 0.30147,-0.169919 0.42335,-0.29821 0.12192,-0.121915 0.21488,-0.263032 0.27903,-0.42335 0.0705,-0.16684 0.10579,-0.343209 0.10579,-0.529197 V 64.7194 c 0,-0.179557 -0.0353,-0.349542 -0.10579,-0.50987 -0.0641,-0.166767 -0.15724,-0.311145 -0.27903,-0.432976 -0.12191,-0.128327 -0.26299,-0.227716 -0.42335,-0.298319 -0.16032,-0.07695 -0.33033,-0.115448 -0.50994,-0.115448 h -7.24075 v -2.597696 c 0,-0.436146 -0.0225,-0.85312 -0.0674,-1.25077 -0.0449,-0.397699 -0.12826,-0.766515 -0.25017,-1.106443 -0.12192,-0.33998 -0.28865,-0.647854 -0.5003,-0.923622 -0.21809,-0.275869 -0.4971,-0.509969 -0.83705,-0.702353 -0.33995,-0.198875 -0.75045,-0.349591 -1.23152,-0.452198 -0.48106,-0.109053 -1.04868,-0.163543 -1.70293,-0.163543 z"
       style="font-style:normal;font-weight:normal;font-size:medium;line-height:125%;font-family:sans-serif;letter-spacing:0px;word-spacing:0px;fill:#000000;fill-opacity:1;stroke:none;stroke-width:0.28222221px;stroke-linecap:butt;stroke-linejoin:miter;stroke-opacity:1"
       inkscape:connector-curvature="0" />
    <path
       inkscape:connector-curvature="0"
       style="fill:#000000;stroke-width:0.28222221"
       d="m 154.56347,65.473376 c -0.93532,0.126712 -2.1248,0.213712 -3.62522,0.2648 -0.95208,0.03249 -2.0198,0.04861 -3.17413,0.04861 -1.45345,0 -2.74875,-0.02564 -3.55045,-0.04446 a 8.5273816,8.5273816 0 0 0 0.36367,2.390801 c 0.91612,3.059717 3.32162,5.130154 5.7157,5.130154 a 4.0452862,4.0452862 0 0 0 1.16374,-0.170036 c 2.65599,-0.795116 4.0081,-4.166201 3.10669,-7.619827 z m -6.63509,3.566415 -0.5549,-0.3371 -0.24517,0.430244 -0.64315,-0.367784 0.2562,-0.446575 -0.57206,-0.34731 0.38492,-0.633353 0.5549,0.33709 0.24515,-0.430287 0.64317,0.367785 -0.2562,0.446619 0.57207,0.347308 z m 4.01669,-1.0551 -0.5549,-0.337048 -0.24517,0.430245 -0.64316,-0.367743 0.25498,-0.448243 -0.57206,-0.346923 0.38614,-0.633783 0.5549,0.337135 0.24517,-0.430246 0.64316,0.367701 -0.25621,0.446618 0.57206,0.347394 z m 4.97651,-9.286559 0.89896,0.749039 0.99375,-0.616211 -0.43476,1.0857 0.89323,0.754682 -1.16659,-0.07803 -0.44294,1.082795 -0.28604,-1.133881 -1.16618,-0.08584 0.98761,-0.622283 z m -0.009,-3.22151 0.085,0.730648 0.71999,0.149934 -0.6685,0.306413 0.0818,0.73104 -0.49891,-0.541013 -0.67054,0.301992 0.3604,-0.640279 -0.49443,-0.544757 0.72121,0.145102 z m -14.42701,-0.01856 0.75308,0.893609 1.0865,-0.43228 -0.61823,0.993757 0.74695,0.898922 -1.13513,-0.280702 -0.626,0.988443 -0.0817,-1.166157 -1.13349,-0.288911 1.08365,-0.439693 z m 14.42697,8.389235 c -0.18634,0.517371 -1.04442,1.068515 -5.9952,1.23691 -1.05749,0.03592 -2.14401,0.04819 -3.15206,0.04819 -1.7125,0 -4.95241,-0.04941 -4.95241,-0.04941 v -0.653789 c 0,0 3.24727,0.04946 4.95282,0.04946 0.98641,0 2.04799,-0.01151 3.08219,-0.0466 1.5842,-0.05271 2.85744,-0.150782 3.78459,-0.290534 1.39214,-0.21042 1.62669,-0.458845 1.6602,-0.508308 -0.009,-0.02351 -0.0498,-0.09602 -0.19859,-0.213712 -0.41433,-0.326883 -1.16577,-0.6538 -2.17791,-0.957801 a 8.270771,8.270771 0 0 0 -0.67668,-0.867031 c 0.0816,0.02053 0.16345,0.04104 0.24028,0.0625 1.43709,0.382449 2.45168,0.80252 3.01884,1.248668 0.26601,0.211701 0.5549,0.545971 0.41393,0.941461 z m -12.45499,-0.0617 c 0.0614,-0.299513 0.36122,-1.082838 0.50709,-1.304287 2.30255,0.157708 6.16396,-0.642375 7.20715,-1.028073 0.62151,0.54144 1.33658,1.464475 1.65938,2.132542 -2.34176,0.266466 -6.51454,0.271767 -9.37485,0.200245 z m 0.79272,-2.945664 c -0.41189,-0.0248 -1.37827,-0.0846 -1.74276,0.08174 0.48504,0.458033 3.06461,0.509077 5.23968,0.200972 2.33156,-0.330122 4.49476,-0.876863 5.76432,-1.741927 0.52876,-0.36039 0.80825,-0.887081 0.75758,-1.1208 -0.25742,-1.191509 -7.11481,-1.612391 -7.11481,-1.612391 0,0 7.2852,0.150737 7.33914,1.611964 0.058,1.567461 -3.35636,2.770428 -6.63754,3.282412 -3.1165,0.486291 -6.10429,0.52015 -5.94944,-0.765326 0.0898,-0.746944 2.09743,-0.607618 2.96614,-0.508735 -0.17243,0.118896 -0.4883,0.431483 -0.62354,0.572434 z m 3.10056,-0.781742 a 4.3427582,4.3427582 0 0 1 1.73988,0.187976 c -0.52017,0.12753 -2.38181,0.380483 -3.47976,0.408655 0.86667,-0.528358 1.58502,-0.577778 1.73865,-0.596204 z"
       id="path6-6" />
    <path
       inkscape:connector-curvature="0"
       style="fill:#000000;stroke-width:0.28222221"
       d="m 178.15643,53.909927 c 0.84682,0 1.4088,0.422687 2.16263,0.841429 0.71444,0.396939 1.6126,0.737329 2.87922,0.478682 0.60108,0.600815 1.21176,1.201762 1.86301,1.608822 0.53294,0.333092 1.13181,0.531453 1.72912,0.437723 -0.17138,1.348438 -0.99021,2.667472 -1.84622,3.357936 -2.25739,-0.748101 -4.52045,-1.122323 -6.78349,-1.122323 -2.26514,0 -4.53023,0.374918 -6.78969,1.124363 -0.8569,-0.689854 -1.67711,-2.010192 -1.84861,-3.359976 0.5972,0.09382 1.19619,-0.104635 1.72914,-0.43768 0.65124,-0.407059 1.26184,-1.007962 1.863,-1.608778 1.26649,0.258603 2.16478,-0.08183 2.87921,-0.47869 0.75392,-0.418938 1.31585,-0.841508 2.16268,-0.841508 z m 0.004,0.787906 c -0.79904,0 -2.14408,1.079815 -2.14408,1.079815 0,0 0.85571,3.239536 2.14408,3.239536 1.28847,0 2.14418,-3.239536 2.14418,-3.239536 0,0 -1.34514,-1.079815 -2.14418,-1.079815 z m 0,5.537444 c 2.12877,0 4.25769,0.348033 6.3917,1.037758 0.0879,0.543181 -0.061,0.946808 -0.381,1.320076 -0.35728,0.416657 -0.95699,0.770338 -1.66786,1.036716 -1.42185,0.53306 -3.26563,0.721691 -4.34286,0.721691 -1.07722,0 -2.92093,-0.188631 -4.34272,-0.721648 -0.71094,-0.266379 -1.31058,-0.620014 -1.66785,-1.036759 -0.32019,-0.373268 -0.46907,-0.77681 -0.38107,-1.320032 2.134,-0.689769 4.26288,-1.037802 6.39164,-1.037802 z m 6.98539,2.304453 c 0.39599,0.09603 1.08604,0.313504 1.20999,0.685296 0.33881,1.016041 -0.68229,2.572527 -1.45452,3.554645 0.21277,-0.887348 0.32745,-1.831202 0.32745,-2.80989 0,-0.486195 -0.0284,-0.963747 -0.083,-1.430051 z m -13.9706,0 a 12.334624,12.334624 0 0 0 -0.083,1.430007 c 0,0.978688 0.11466,1.922543 0.32744,2.809891 -0.77222,-0.98212 -1.79337,-2.538604 -1.45452,-3.554646 0.12388,-0.371791 0.814,-0.589262 1.20995,-0.685295 z m 13.30847,0.773076 c 0.0123,0.216862 0.0192,0.435767 0.0192,0.656889 0,2.394273 -0.73109,4.55505 -1.89136,6.101413 -1.16025,1.546323 -2.73013,2.472456 -4.45109,2.472456 -1.72083,0 -3.29076,-0.926133 -4.45095,-2.472456 -1.16024,-1.546363 -1.89125,-3.707095 -1.89125,-6.101371 0,-0.221207 0.006,-0.440112 0.0191,-0.656975 0.33067,0.308768 0.73456,0.559207 1.17889,0.767384 -0.17218,0.73394 0.0108,1.646825 0.48786,2.123771 0.87804,0.877618 2.84715,0.877618 3.72523,0 0.27195,-0.271939 0.38861,-0.705187 0.37321,-1.139916 0.19896,0.0086 0.38712,0.01309 0.55798,0.01309 0.1709,0 0.35909,-0.0048 0.55809,-0.01309 -0.0154,0.434684 0.10127,0.867977 0.37325,1.139916 0.87808,0.877618 2.84711,0.877618 3.72514,0 0.47714,-0.476946 0.66004,-1.389702 0.48786,-2.123597 0.44438,-0.208179 0.84836,-0.45879 1.17894,-0.767514 z m -6.32326,4.752933 c -0.93125,1.489424 -2.79379,1.675579 -3.72507,1.675579 0.93125,0.744799 3.72505,0.744799 3.72505,0 0,0.744799 2.79391,0.744799 3.72521,0 -0.9313,0 -2.79392,-0.186155 -3.72521,-1.675579 z"
       id="path3353-6" />
    <path
       id="path9083"
       d="m 136.01208,30.853378 c 0.84682,0 1.4088,0.422687 2.16263,0.841429 0.71444,0.396939 1.6126,0.737329 2.87922,0.478682 0.60108,0.600815 1.21176,1.201762 1.86301,1.608822 0.53294,0.333092 1.13181,0.531453 1.72912,0.437723 -0.17138,1.348438 -0.99021,2.667472 -1.84622,3.357936 -2.25739,-0.748101 -4.52045,-1.122323 -6.78349,-1.122323 -2.26514,0 -4.53023,0.374918 -6.78969,1.124363 -0.8569,-0.689854 -1.67711,-2.010192 -1.84861,-3.359976 0.5972,0.09382 1.19619,-0.104635 1.72914,-0.43768 0.65124,-0.407059 1.26184,-1.007962 1.863,-1.608778 1.26649,0.258603 2.16478,-0.08183 2.87921,-0.47869 0.75392,-0.418938 1.31585,-0.841508 2.16268,-0.841508 z m 0.004,0.787906 c -0.79904,0 -2.14408,1.079815 -2.14408,1.079815 0,0 0.85571,3.239536 2.14408,3.239536 1.28847,0 2.14418,-3.239536 2.14418,-3.239536 0,0 -1.34514,-1.079815 -2.14418,-1.079815 z m 0,5.537444 c 2.12877,0 4.25769,0.348033 6.3917,1.037758 0.0879,0.543181 -0.061,0.946808 -0.381,1.320076 -0.35728,0.416657 -0.95699,0.770338 -1.66786,1.036716 -1.42185,0.53306 -3.26563,0.721691 -4.34286,0.721691 -1.07722,0 -2.92093,-0.188631 -4.34272,-0.721648 -0.71094,-0.266379 -1.31058,-0.620014 -1.66785,-1.036759 -0.32019,-0.373268 -0.46907,-0.77681 -0.38107,-1.320032 2.134,-0.689769 4.26288,-1.037802 6.39164,-1.037802 z m 6.98539,2.304453 c 0.39599,0.09603 1.08604,0.313504 1.20999,0.685296 0.33881,1.016041 -0.68229,2.572527 -1.45452,3.554645 0.21277,-0.887348 0.32745,-1.831202 0.32745,-2.80989 0,-0.486195 -0.0284,-0.963747 -0.083,-1.430051 z m -13.9706,0 a 12.334624,12.334624 0 0 0 -0.083,1.430007 c 0,0.978688 0.11466,1.922543 0.32744,2.809891 -0.77222,-0.98212 -1.79337,-2.538604 -1.45452,-3.554646 0.12388,-0.371791 0.814,-0.589262 1.20995,-0.685295 z m 13.30847,0.773076 c 0.0123,0.216862 0.0192,0.435767 0.0192,0.656889 0,2.394273 -0.73109,4.55505 -1.89136,6.101413 -1.16025,1.546323 -2.73013,2.472456 -4.45109,2.472456 -1.72083,0 -3.29076,-0.926133 -4.45095,-2.472456 -1.16024,-1.546363 -1.89125,-3.707095 -1.89125,-6.101371 0,-0.221207 0.006,-0.440112 0.0191,-0.656975 0.33067,0.308768 0.73456,0.559207 1.17889,0.767384 -0.17218,0.73394 0.0108,1.646825 0.48786,2.123771 0.87804,0.877618 2.84715,0.877618 3.72523,0 0.27195,-0.271939 0.38861,-0.705187 0.37321,-1.139916 0.19896,0.0086 0.38712,0.01309 0.55798,0.01309 0.1709,0 0.35909,-0.0048 0.55809,-0.01309 -0.0154,0.434684 0.10127,0.867977 0.37325,1.139916 0.87808,0.877618 2.84711,0.877618 3.72514,0 0.47714,-0.476946 0.66004,-1.389702 0.48786,-2.123597 0.44438,-0.208179 0.84836,-0.45879 1.17894,-0.767514 z m -6.32326,4.752933 c -0.93125,1.489424 -2.79379,1.675579 -3.72507,1.675579 0.93125,0.744799 3.72505,0.744799 3.72505,0 0,0.744799 2.79391,0.744799 3.72521,0 -0.9313,0 -2.79392,-0.186155 -3.72521,-1.675579 z"
       style="fill:#000000;stroke-width:0.28222221"
       inkscape:connector-curvature="0" />
    <path
       inkscape:connector-curvature="0"
       style="fill:#000000;stroke-width:0.28222221"
       d="m 163.79333,29.719452 c 0.84682,0 1.4088,0.422687 2.16263,0.841429 0.71444,0.396939 1.6126,0.737329 2.87922,0.478682 0.60108,0.600815 1.21176,1.201762 1.86301,1.608822 0.53294,0.333092 1.13181,0.531453 1.72912,0.437723 -0.17138,1.348438 -0.99021,2.667472 -1.84622,3.357936 -2.25739,-0.748101 -4.52045,-1.122323 -6.78349,-1.122323 -2.26514,0 -4.53023,0.374918 -6.78969,1.124363 -0.8569,-0.689854 -1.67711,-2.010192 -1.84861,-3.359976 0.5972,0.09382 1.19619,-0.104635 1.72914,-0.43768 0.65124,-0.407059 1.26184,-1.007962 1.863,-1.608778 1.26649,0.258603 2.16478,-0.08183 2.87921,-0.47869 0.75392,-0.418938 1.31585,-0.841508 2.16268,-0.841508 z m 0.004,0.787906 c -0.79904,0 -2.14408,1.079815 -2.14408,1.079815 0,0 0.85571,3.239536 2.14408,3.239536 1.28847,0 2.14418,-3.239536 2.14418,-3.239536 0,0 -1.34514,-1.079815 -2.14418,-1.079815 z m 0,5.537444 c 2.12877,0 4.25769,0.348033 6.3917,1.037758 0.0879,0.543181 -0.061,0.946808 -0.381,1.320076 -0.35728,0.416657 -0.95699,0.770338 -1.66786,1.036716 -1.42185,0.53306 -3.26563,0.721691 -4.34286,0.721691 -1.07722,0 -2.92093,-0.188631 -4.34272,-0.721648 -0.71094,-0.266379 -1.31058,-0.620014 -1.66785,-1.036759 -0.32019,-0.373268 -0.46907,-0.77681 -0.38107,-1.320032 2.134,-0.689769 4.26288,-1.037802 6.39164,-1.037802 z m 6.98539,2.304453 c 0.39599,0.09603 1.08604,0.313504 1.20999,0.685296 0.33881,1.016041 -0.68229,2.572527 -1.45452,3.554645 0.21277,-0.887348 0.32745,-1.831202 0.32745,-2.80989 0,-0.486195 -0.0284,-0.963747 -0.083,-1.430051 z m -13.9706,0 a 12.334624,12.334624 0 0 0 -0.083,1.430007 c 0,0.978688 0.11466,1.922543 0.32744,2.809891 -0.77222,-0.98212 -1.79337,-2.538604 -1.45452,-3.554646 0.12388,-0.371791 0.814,-0.589262 1.20995,-0.685295 z m 13.30847,0.773076 c 0.0123,0.216862 0.0192,0.435767 0.0192,0.656889 0,2.394273 -0.73109,4.55505 -1.89136,6.101413 -1.16025,1.546323 -2.73013,2.472456 -4.45109,2.472456 -1.72083,0 -3.29076,-0.926133 -4.45095,-2.472456 -1.16024,-1.546363 -1.89125,-3.707095 -1.89125,-6.101371 0,-0.221207 0.006,-0.440112 0.0191,-0.656975 0.33067,0.308768 0.73456,0.559207 1.17889,0.767384 -0.17218,0.73394 0.0108,1.646825 0.48786,2.123771 0.87804,0.877618 2.84715,0.877618 3.72523,0 0.27195,-0.271939 0.38861,-0.705187 0.37321,-1.139916 0.19896,0.0086 0.38712,0.01309 0.55798,0.01309 0.1709,0 0.35909,-0.0048 0.55809,-0.01309 -0.0154,0.434684 0.10127,0.867977 0.37325,1.139916 0.87808,0.877618 2.84711,0.877618 3.72514,0 0.47714,-0.476946 0.66004,-1.389702 0.48786,-2.123597 0.44438,-0.208179 0.84836,-0.45879 1.17894,-0.767514 z m -6.32326,4.752933 c -0.93125,1.489424 -2.79379,1.675579 -3.72507,1.675579 0.93125,0.744799 3.72505,0.744799 3.72505,0 0,0.744799 2.79391,0.744799 3.72521,0 -0.9313,0 -2.79392,-0.186155 -3.72521,-1.675579 z"
       id="path9085" />
  </g>
</svg>
