<?xml version="1.0" encoding="UTF-8" standalone="no"?>
<!-- Created with Inkscape (http://www.inkscape.org/) -->

<svg
   xmlns:dc="http://purl.org/dc/elements/1.1/"
   xmlns:cc="http://creativecommons.org/ns#"
   xmlns:rdf="http://www.w3.org/1999/02/22-rdf-syntax-ns#"
   xmlns:svg="http://www.w3.org/2000/svg"
   xmlns="http://www.w3.org/2000/svg"
   xmlns:sodipodi="http://sodipodi.sourceforge.net/DTD/sodipodi-0.dtd"
   xmlns:inkscape="http://www.inkscape.org/namespaces/inkscape"
   width="23in"
   height="11.5in"
   viewBox="0 0 584.2 292.10001"
   version="1.1"
   id="svg4766"
   inkscape:version="0.92.0 r15299"
   sodipodi:docname="binder.svg">
  <defs
     id="defs4760">
    <inkscape:path-effect
       effect="transform_2pts"
       start="98.84,18.657164"
       end="98.837114,94.471312"
       id="path-effect6209"
       is_visible="true"
       first_knot="1"
       last_knot="2"
       helper_size="3"
       strech="1"
       offset="0"
       elastic="false"
       from_original_width="false"
       flip_vertical="false"
       flip_horizontal="false"
       lock_lenght="false"
       lock_angle="false" />
    <inkscape:path-effect
       effect="copy_rotate"
       starting_point="98.837114,56.564238"
       origin="98.837114,56.564238"
       id="path-effect6207"
       is_visible="true"
       copies_to_360="true"
       fuse_paths="false"
       starting_angle="0"
       rotation_angle="60"
       num_copies="6" />
    <inkscape:path-effect
       effect="clone_original"
       id="path-effect6205"
       is_visible="true"
       linkedpath="" />
  </defs>
  <sodipodi:namedview
     id="base"
     pagecolor="#ffffff"
     bordercolor="#666666"
     borderopacity="1.0"
     inkscape:pageopacity="0.0"
     inkscape:pageshadow="2"
     inkscape:zoom="0.48876682"
     inkscape:cx="393.74708"
     inkscape:cy="730.76045"
     inkscape:document-units="in"
     inkscape:current-layer="layer1"
     showgrid="false"
     units="in"
     inkscape:window-width="1920"
     inkscape:window-height="1017"
     inkscape:window-x="-8"
     inkscape:window-y="-8"
     inkscape:window-maximized="1"
     inkscape:snap-bbox="false"
     inkscape:bbox-paths="true"
     inkscape:snap-bbox-edge-midpoints="true"
     inkscape:snap-global="true"
     inkscape:measure-start="10.7413,1036.28"
     inkscape:measure-end="106.902,1035.77"
     showguides="true"
     inkscape:guide-bbox="true" />
  <metadata
     id="metadata4763">
    <rdf:RDF>
      <cc:Work
         rdf:about="">
        <dc:format>image/svg+xml</dc:format>
        <dc:type
           rdf:resource="http://purl.org/dc/dcmitype/StillImage" />
        <dc:title></dc:title>
      </cc:Work>
    </rdf:RDF>
  </metadata>
  <g
     inkscape:label="Layer 1"
     inkscape:groupmode="layer"
     id="layer1"
     transform="translate(0,-4.8999914)">
    <path
       style="opacity:1;fill:none;fill-opacity:1;fill-rule:nonzero;stroke:#ff0000;stroke-width:0.35277781;stroke-linecap:round;stroke-linejoin:round;stroke-miterlimit:4;stroke-dasharray:none;stroke-dashoffset:0;stroke-opacity:1"
       d="m 6.1980714,14.980573 c -1.8599384,0 -3.3574179,1.49748 -3.3574179,3.357418 V 239.87073 c 0,1.85994 1.4974795,3.3569 3.3574179,3.3569 H 25.546245 v -1.89601 h -4.012158 c -0.239702,0 -0.432532,-0.19283 -0.432532,-0.43253 v -1.06247 c 0,-0.2397 0.19283,-0.43253 0.432532,-0.43253 h 14.021884 c 0.2397,0 0.432531,0.19283 0.432531,0.43253 v 1.06247 c 0,0.2397 -0.192831,0.43253 -0.432531,0.43253 h -4.01216 v 1.89601 H 373.7803 c 1.85994,0 3.3574,-1.49696 3.3574,-3.3569 V 18.337991 c 0,-1.859938 -1.49746,-3.357418 -3.3574,-3.357418 H 31.543811 v 1.873271 h 4.01216 c 0.2397,0 0.432531,0.19283 0.432531,0.432532 v 1.062467 c 0,0.239702 -0.192831,0.432532 -0.432531,0.432532 H 21.534087 c -0.239702,0 -0.432532,-0.19283 -0.432532,-0.432532 v -1.062467 c 0,-0.239702 0.19283,-0.432532 0.432532,-0.432532 h 4.012158 v -1.873271 z"
       id="rect5311"
       inkscape:connector-curvature="0" />
    <g
       id="g4590"
       transform="translate(50.799996)">
      <path
         inkscape:connector-curvature="0"
         id="path6189"
         d="M 116.96421,13.850169 V 84.987927"
         style="opacity:1;vector-effect:none;fill:none;fill-opacity:1;fill-rule:evenodd;stroke:#ff0000;stroke-width:0.35277778;stroke-linecap:round;stroke-linejoin:round;stroke-miterlimit:4;stroke-dasharray:none;stroke-dashoffset:0;stroke-opacity:1" />
      <path
         style="opacity:1;vector-effect:none;fill:none;fill-opacity:1;fill-rule:evenodd;stroke:#ff0000;stroke-width:0.35277778;stroke-linecap:round;stroke-linejoin:round;stroke-miterlimit:4;stroke-dasharray:none;stroke-dashoffset:0;stroke-opacity:1"
         d="M 123.31421,13.846763 V 84.984521"
         id="path6211"
         inkscape:connector-curvature="0" />
      <path
         style="opacity:1;vector-effect:none;fill:none;fill-opacity:1;fill-rule:evenodd;stroke:#ff0000;stroke-width:0.35277778;stroke-linecap:round;stroke-linejoin:round;stroke-miterlimit:4;stroke-dasharray:none;stroke-dashoffset:0;stroke-opacity:1"
         d="M 129.66421,13.846763 V 84.984521"
         id="path6219"
         inkscape:connector-curvature="0" />
      <path
         inkscape:connector-curvature="0"
         id="path6221"
         d="M 136.01421,13.843357 V 84.981115"
         style="opacity:1;vector-effect:none;fill:none;fill-opacity:1;fill-rule:evenodd;stroke:#ff0000;stroke-width:0.35277778;stroke-linecap:round;stroke-linejoin:round;stroke-miterlimit:4;stroke-dasharray:none;stroke-dashoffset:0;stroke-opacity:1" />
      <path
         inkscape:connector-curvature="0"
         id="path6227"
         d="M 142.36421,13.843357 V 84.981115"
         style="opacity:1;vector-effect:none;fill:none;fill-opacity:1;fill-rule:evenodd;stroke:#ff0000;stroke-width:0.35277778;stroke-linecap:round;stroke-linejoin:round;stroke-miterlimit:4;stroke-dasharray:none;stroke-dashoffset:0;stroke-opacity:1" />
      <path
         style="opacity:1;vector-effect:none;fill:none;fill-opacity:1;fill-rule:evenodd;stroke:#ff0000;stroke-width:0.35277778;stroke-linecap:round;stroke-linejoin:round;stroke-miterlimit:4;stroke-dasharray:none;stroke-dashoffset:0;stroke-opacity:1"
         d="M 148.71421,13.839951 V 84.977709"
         id="path6229"
         inkscape:connector-curvature="0" />
      <path
         style="opacity:1;vector-effect:none;fill:none;fill-opacity:1;fill-rule:evenodd;stroke:#ff0000;stroke-width:0.35277778;stroke-linecap:round;stroke-linejoin:round;stroke-miterlimit:4;stroke-dasharray:none;stroke-dashoffset:0;stroke-opacity:1"
         d="M 155.06421,13.843357 V 84.981115"
         id="path6235"
         inkscape:connector-curvature="0" />
      <path
         inkscape:connector-curvature="0"
         id="path6237"
         d="M 161.41421,13.839951 V 84.977709"
         style="opacity:1;vector-effect:none;fill:none;fill-opacity:1;fill-rule:evenodd;stroke:#ff0000;stroke-width:0.35277778;stroke-linecap:round;stroke-linejoin:round;stroke-miterlimit:4;stroke-dasharray:none;stroke-dashoffset:0;stroke-opacity:1" />
      <path
         style="opacity:1;vector-effect:none;fill:none;fill-opacity:1;fill-rule:evenodd;stroke:#ff0000;stroke-width:0.35277778;stroke-linecap:round;stroke-linejoin:round;stroke-miterlimit:4;stroke-dasharray:none;stroke-dashoffset:0;stroke-opacity:1"
         d="M 116.96421,91.337928 V 167.15208"
         id="path6261"
         inkscape:connector-curvature="0" />
      <path
         inkscape:connector-curvature="0"
         id="path6263"
         d="M 123.3142,91.334298 V 167.14845"
         style="opacity:1;vector-effect:none;fill:none;fill-opacity:1;fill-rule:evenodd;stroke:#ff0000;stroke-width:0.35277778;stroke-linecap:round;stroke-linejoin:round;stroke-miterlimit:4;stroke-dasharray:none;stroke-dashoffset:0;stroke-opacity:1" />
      <path
         inkscape:connector-curvature="0"
         id="path6265"
         d="M 129.6642,91.334298 V 167.14845"
         style="opacity:1;vector-effect:none;fill:none;fill-opacity:1;fill-rule:evenodd;stroke:#ff0000;stroke-width:0.35277778;stroke-linecap:round;stroke-linejoin:round;stroke-miterlimit:4;stroke-dasharray:none;stroke-dashoffset:0;stroke-opacity:1" />
      <path
         style="opacity:1;vector-effect:none;fill:none;fill-opacity:1;fill-rule:evenodd;stroke:#ff0000;stroke-width:0.35277778;stroke-linecap:round;stroke-linejoin:round;stroke-miterlimit:4;stroke-dasharray:none;stroke-dashoffset:0;stroke-opacity:1"
         d="M 136.0142,91.330668 V 167.14482"
         id="path6267"
         inkscape:connector-curvature="0" />
      <path
         style="opacity:1;vector-effect:none;fill:none;fill-opacity:1;fill-rule:evenodd;stroke:#ff0000;stroke-width:0.35277778;stroke-linecap:round;stroke-linejoin:round;stroke-miterlimit:4;stroke-dasharray:none;stroke-dashoffset:0;stroke-opacity:1"
         d="M 142.3642,91.330668 V 167.14482"
         id="path6269"
         inkscape:connector-curvature="0" />
      <path
         inkscape:connector-curvature="0"
         id="path6271"
         d="M 148.7142,91.327038 V 167.14119"
         style="opacity:1;vector-effect:none;fill:none;fill-opacity:1;fill-rule:evenodd;stroke:#ff0000;stroke-width:0.35277778;stroke-linecap:round;stroke-linejoin:round;stroke-miterlimit:4;stroke-dasharray:none;stroke-dashoffset:0;stroke-opacity:1" />
      <path
         inkscape:connector-curvature="0"
         id="path6273"
         d="M 155.0642,91.330668 V 167.14482"
         style="opacity:1;vector-effect:none;fill:none;fill-opacity:1;fill-rule:evenodd;stroke:#ff0000;stroke-width:0.35277778;stroke-linecap:round;stroke-linejoin:round;stroke-miterlimit:4;stroke-dasharray:none;stroke-dashoffset:0;stroke-opacity:1" />
      <path
         style="opacity:1;vector-effect:none;fill:none;fill-opacity:1;fill-rule:evenodd;stroke:#ff0000;stroke-width:0.35277778;stroke-linecap:round;stroke-linejoin:round;stroke-miterlimit:4;stroke-dasharray:none;stroke-dashoffset:0;stroke-opacity:1"
         d="M 161.4142,91.327038 V 167.14119"
         id="path6275"
         inkscape:connector-curvature="0" />
      <path
         inkscape:connector-curvature="0"
         id="path6351"
         d="m 116.9642,173.50204 v 75.81415"
         style="opacity:1;vector-effect:none;fill:none;fill-opacity:1;fill-rule:evenodd;stroke:#ff0000;stroke-width:0.35277778;stroke-linecap:round;stroke-linejoin:round;stroke-miterlimit:4;stroke-dasharray:none;stroke-dashoffset:0;stroke-opacity:1" />
      <path
         style="opacity:1;vector-effect:none;fill:none;fill-opacity:1;fill-rule:evenodd;stroke:#ff0000;stroke-width:0.35277778;stroke-linecap:round;stroke-linejoin:round;stroke-miterlimit:4;stroke-dasharray:none;stroke-dashoffset:0;stroke-opacity:1"
         d="m 123.3142,173.49841 v 75.81415"
         id="path6353"
         inkscape:connector-curvature="0" />
      <path
         style="opacity:1;vector-effect:none;fill:none;fill-opacity:1;fill-rule:evenodd;stroke:#ff0000;stroke-width:0.35277778;stroke-linecap:round;stroke-linejoin:round;stroke-miterlimit:4;stroke-dasharray:none;stroke-dashoffset:0;stroke-opacity:1"
         d="m 129.6642,173.49841 v 75.81415"
         id="path6355"
         inkscape:connector-curvature="0" />
      <path
         inkscape:connector-curvature="0"
         id="path6357"
         d="m 136.0142,173.49478 v 75.81415"
         style="opacity:1;vector-effect:none;fill:none;fill-opacity:1;fill-rule:evenodd;stroke:#ff0000;stroke-width:0.35277778;stroke-linecap:round;stroke-linejoin:round;stroke-miterlimit:4;stroke-dasharray:none;stroke-dashoffset:0;stroke-opacity:1" />
      <path
         inkscape:connector-curvature="0"
         id="path6359"
         d="m 142.3642,173.49478 v 75.81415"
         style="opacity:1;vector-effect:none;fill:none;fill-opacity:1;fill-rule:evenodd;stroke:#ff0000;stroke-width:0.35277778;stroke-linecap:round;stroke-linejoin:round;stroke-miterlimit:4;stroke-dasharray:none;stroke-dashoffset:0;stroke-opacity:1" />
      <path
         style="opacity:1;vector-effect:none;fill:none;fill-opacity:1;fill-rule:evenodd;stroke:#ff0000;stroke-width:0.35277778;stroke-linecap:round;stroke-linejoin:round;stroke-miterlimit:4;stroke-dasharray:none;stroke-dashoffset:0;stroke-opacity:1"
         d="M 148.7142,173.49115 V 249.3053"
         id="path6361"
         inkscape:connector-curvature="0" />
      <path
         style="opacity:1;vector-effect:none;fill:none;fill-opacity:1;fill-rule:evenodd;stroke:#ff0000;stroke-width:0.35277778;stroke-linecap:round;stroke-linejoin:round;stroke-miterlimit:4;stroke-dasharray:none;stroke-dashoffset:0;stroke-opacity:1"
         d="m 155.0642,173.49478 v 75.81415"
         id="path6363"
         inkscape:connector-curvature="0" />
      <path
         inkscape:connector-curvature="0"
         id="path6365"
         d="M 161.4142,173.49115 V 249.3053"
         style="opacity:1;vector-effect:none;fill:none;fill-opacity:1;fill-rule:evenodd;stroke:#ff0000;stroke-width:0.35277778;stroke-linecap:round;stroke-linejoin:round;stroke-miterlimit:4;stroke-dasharray:none;stroke-dashoffset:0;stroke-opacity:1" />
      <path
         style="opacity:1;vector-effect:none;fill:none;fill-opacity:1;fill-rule:evenodd;stroke:#ff0000;stroke-width:0.35277778;stroke-linecap:round;stroke-linejoin:round;stroke-miterlimit:4;stroke-dasharray:none;stroke-dashoffset:0;stroke-opacity:1"
         d="M 120.14113,13.88665 V 46.891599"
         id="path6447"
         inkscape:connector-curvature="0" />
      <path
         inkscape:connector-curvature="0"
         id="path6449"
         d="M 126.49113,13.88507 V 46.890019"
         style="opacity:1;vector-effect:none;fill:none;fill-opacity:1;fill-rule:evenodd;stroke:#ff0000;stroke-width:0.35277778;stroke-linecap:round;stroke-linejoin:round;stroke-miterlimit:4;stroke-dasharray:none;stroke-dashoffset:0;stroke-opacity:1" />
      <path
         inkscape:connector-curvature="0"
         id="path6451"
         d="M 132.84113,13.88507 V 46.890019"
         style="opacity:1;vector-effect:none;fill:none;fill-opacity:1;fill-rule:evenodd;stroke:#ff0000;stroke-width:0.35277778;stroke-linecap:round;stroke-linejoin:round;stroke-miterlimit:4;stroke-dasharray:none;stroke-dashoffset:0;stroke-opacity:1" />
      <path
         style="opacity:1;vector-effect:none;fill:none;fill-opacity:1;fill-rule:evenodd;stroke:#ff0000;stroke-width:0.35277778;stroke-linecap:round;stroke-linejoin:round;stroke-miterlimit:4;stroke-dasharray:none;stroke-dashoffset:0;stroke-opacity:1"
         d="M 139.19113,13.88349 V 46.888438"
         id="path6453"
         inkscape:connector-curvature="0" />
      <path
         style="opacity:1;vector-effect:none;fill:none;fill-opacity:1;fill-rule:evenodd;stroke:#ff0000;stroke-width:0.35277778;stroke-linecap:round;stroke-linejoin:round;stroke-miterlimit:4;stroke-dasharray:none;stroke-dashoffset:0;stroke-opacity:1"
         d="M 145.54113,13.88349 V 46.888438"
         id="path6455"
         inkscape:connector-curvature="0" />
      <path
         inkscape:connector-curvature="0"
         id="path6457"
         d="M 151.89113,13.881909 V 46.886858"
         style="opacity:1;vector-effect:none;fill:none;fill-opacity:1;fill-rule:evenodd;stroke:#ff0000;stroke-width:0.35277778;stroke-linecap:round;stroke-linejoin:round;stroke-miterlimit:4;stroke-dasharray:none;stroke-dashoffset:0;stroke-opacity:1" />
      <path
         inkscape:connector-curvature="0"
         id="path6459"
         d="M 158.24113,13.88349 V 46.888438"
         style="opacity:1;vector-effect:none;fill:none;fill-opacity:1;fill-rule:evenodd;stroke:#ff0000;stroke-width:0.35277778;stroke-linecap:round;stroke-linejoin:round;stroke-miterlimit:4;stroke-dasharray:none;stroke-dashoffset:0;stroke-opacity:1" />
      <path
         inkscape:connector-curvature="0"
         id="path6469"
         d="m 120.14113,53.2416 v 75.81415"
         style="opacity:1;vector-effect:none;fill:none;fill-opacity:1;fill-rule:evenodd;stroke:#ff0000;stroke-width:0.35277778;stroke-linecap:round;stroke-linejoin:round;stroke-miterlimit:4;stroke-dasharray:none;stroke-dashoffset:0;stroke-opacity:1" />
      <path
         style="opacity:1;vector-effect:none;fill:none;fill-opacity:1;fill-rule:evenodd;stroke:#ff0000;stroke-width:0.35277778;stroke-linecap:round;stroke-linejoin:round;stroke-miterlimit:4;stroke-dasharray:none;stroke-dashoffset:0;stroke-opacity:1"
         d="m 126.49112,53.23797 v 75.81415"
         id="path6471"
         inkscape:connector-curvature="0" />
      <path
         style="opacity:1;vector-effect:none;fill:none;fill-opacity:1;fill-rule:evenodd;stroke:#ff0000;stroke-width:0.35277778;stroke-linecap:round;stroke-linejoin:round;stroke-miterlimit:4;stroke-dasharray:none;stroke-dashoffset:0;stroke-opacity:1"
         d="m 132.84112,53.23797 v 75.81415"
         id="path6473"
         inkscape:connector-curvature="0" />
      <path
         inkscape:connector-curvature="0"
         id="path6475"
         d="m 139.19112,53.23434 v 75.81415"
         style="opacity:1;vector-effect:none;fill:none;fill-opacity:1;fill-rule:evenodd;stroke:#ff0000;stroke-width:0.35277778;stroke-linecap:round;stroke-linejoin:round;stroke-miterlimit:4;stroke-dasharray:none;stroke-dashoffset:0;stroke-opacity:1" />
      <path
         inkscape:connector-curvature="0"
         id="path6477"
         d="m 145.54112,53.23434 v 75.81415"
         style="opacity:1;vector-effect:none;fill:none;fill-opacity:1;fill-rule:evenodd;stroke:#ff0000;stroke-width:0.35277778;stroke-linecap:round;stroke-linejoin:round;stroke-miterlimit:4;stroke-dasharray:none;stroke-dashoffset:0;stroke-opacity:1" />
      <path
         style="opacity:1;vector-effect:none;fill:none;fill-opacity:1;fill-rule:evenodd;stroke:#ff0000;stroke-width:0.35277778;stroke-linecap:round;stroke-linejoin:round;stroke-miterlimit:4;stroke-dasharray:none;stroke-dashoffset:0;stroke-opacity:1"
         d="m 151.89112,53.23071 v 75.81415"
         id="path6479"
         inkscape:connector-curvature="0" />
      <path
         style="opacity:1;vector-effect:none;fill:none;fill-opacity:1;fill-rule:evenodd;stroke:#ff0000;stroke-width:0.35277778;stroke-linecap:round;stroke-linejoin:round;stroke-miterlimit:4;stroke-dasharray:none;stroke-dashoffset:0;stroke-opacity:1"
         d="m 158.24112,53.23434 v 75.81415"
         id="path6481"
         inkscape:connector-curvature="0" />
      <path
         style="opacity:1;vector-effect:none;fill:none;fill-opacity:1;fill-rule:evenodd;stroke:#ff0000;stroke-width:0.35277778;stroke-linecap:round;stroke-linejoin:round;stroke-miterlimit:4;stroke-dasharray:none;stroke-dashoffset:0;stroke-opacity:1"
         d="m 120.14112,135.40571 v 75.81415"
         id="path6491"
         inkscape:connector-curvature="0" />
      <path
         inkscape:connector-curvature="0"
         id="path6493"
         d="m 126.49112,135.40208 v 75.81415"
         style="opacity:1;vector-effect:none;fill:none;fill-opacity:1;fill-rule:evenodd;stroke:#ff0000;stroke-width:0.35277778;stroke-linecap:round;stroke-linejoin:round;stroke-miterlimit:4;stroke-dasharray:none;stroke-dashoffset:0;stroke-opacity:1" />
      <path
         inkscape:connector-curvature="0"
         id="path6495"
         d="m 132.84112,135.40208 v 75.81415"
         style="opacity:1;vector-effect:none;fill:none;fill-opacity:1;fill-rule:evenodd;stroke:#ff0000;stroke-width:0.35277778;stroke-linecap:round;stroke-linejoin:round;stroke-miterlimit:4;stroke-dasharray:none;stroke-dashoffset:0;stroke-opacity:1" />
      <path
         style="opacity:1;vector-effect:none;fill:none;fill-opacity:1;fill-rule:evenodd;stroke:#ff0000;stroke-width:0.35277778;stroke-linecap:round;stroke-linejoin:round;stroke-miterlimit:4;stroke-dasharray:none;stroke-dashoffset:0;stroke-opacity:1"
         d="M 139.19112,135.39845 V 211.2126"
         id="path6497"
         inkscape:connector-curvature="0" />
      <path
         style="opacity:1;vector-effect:none;fill:none;fill-opacity:1;fill-rule:evenodd;stroke:#ff0000;stroke-width:0.35277778;stroke-linecap:round;stroke-linejoin:round;stroke-miterlimit:4;stroke-dasharray:none;stroke-dashoffset:0;stroke-opacity:1"
         d="M 145.54112,135.39845 V 211.2126"
         id="path6499"
         inkscape:connector-curvature="0" />
      <path
         inkscape:connector-curvature="0"
         id="path6501"
         d="m 151.89112,135.39482 v 75.81415"
         style="opacity:1;vector-effect:none;fill:none;fill-opacity:1;fill-rule:evenodd;stroke:#ff0000;stroke-width:0.35277778;stroke-linecap:round;stroke-linejoin:round;stroke-miterlimit:4;stroke-dasharray:none;stroke-dashoffset:0;stroke-opacity:1" />
      <path
         inkscape:connector-curvature="0"
         id="path6503"
         d="M 158.24112,135.39845 V 211.2126"
         style="opacity:1;vector-effect:none;fill:none;fill-opacity:1;fill-rule:evenodd;stroke:#ff0000;stroke-width:0.35277778;stroke-linecap:round;stroke-linejoin:round;stroke-miterlimit:4;stroke-dasharray:none;stroke-dashoffset:0;stroke-opacity:1" />
      <path
         inkscape:connector-curvature="0"
         id="path6523"
         d="m 120.14112,217.56905 v 32.09673"
         style="opacity:1;vector-effect:none;fill:none;fill-opacity:1;fill-rule:evenodd;stroke:#ff0000;stroke-width:0.35277778;stroke-linecap:round;stroke-linejoin:round;stroke-miterlimit:4;stroke-dasharray:none;stroke-dashoffset:0;stroke-opacity:1" />
      <path
         style="opacity:1;vector-effect:none;fill:none;fill-opacity:1;fill-rule:evenodd;stroke:#ff0000;stroke-width:0.35277778;stroke-linecap:round;stroke-linejoin:round;stroke-miterlimit:4;stroke-dasharray:none;stroke-dashoffset:0;stroke-opacity:1"
         d="m 126.49112,217.56751 v 32.09673"
         id="path6525"
         inkscape:connector-curvature="0" />
      <path
         style="opacity:1;vector-effect:none;fill:none;fill-opacity:1;fill-rule:evenodd;stroke:#ff0000;stroke-width:0.35277778;stroke-linecap:round;stroke-linejoin:round;stroke-miterlimit:4;stroke-dasharray:none;stroke-dashoffset:0;stroke-opacity:1"
         d="m 132.84112,217.56751 v 32.09673"
         id="path6527"
         inkscape:connector-curvature="0" />
      <path
         inkscape:connector-curvature="0"
         id="path6529"
         d="m 139.19112,217.56598 v 32.09673"
         style="opacity:1;vector-effect:none;fill:none;fill-opacity:1;fill-rule:evenodd;stroke:#ff0000;stroke-width:0.35277778;stroke-linecap:round;stroke-linejoin:round;stroke-miterlimit:4;stroke-dasharray:none;stroke-dashoffset:0;stroke-opacity:1" />
      <path
         inkscape:connector-curvature="0"
         id="path6531"
         d="m 145.54112,217.56598 v 32.09673"
         style="opacity:1;vector-effect:none;fill:none;fill-opacity:1;fill-rule:evenodd;stroke:#ff0000;stroke-width:0.35277778;stroke-linecap:round;stroke-linejoin:round;stroke-miterlimit:4;stroke-dasharray:none;stroke-dashoffset:0;stroke-opacity:1" />
      <path
         style="opacity:1;vector-effect:none;fill:none;fill-opacity:1;fill-rule:evenodd;stroke:#ff0000;stroke-width:0.35277778;stroke-linecap:round;stroke-linejoin:round;stroke-miterlimit:4;stroke-dasharray:none;stroke-dashoffset:0;stroke-opacity:1"
         d="m 151.89112,217.56444 v 32.09673"
         id="path6533"
         inkscape:connector-curvature="0" />
      <path
         style="opacity:1;vector-effect:none;fill:none;fill-opacity:1;fill-rule:evenodd;stroke:#ff0000;stroke-width:0.35277778;stroke-linecap:round;stroke-linejoin:round;stroke-miterlimit:4;stroke-dasharray:none;stroke-dashoffset:0;stroke-opacity:1"
         d="m 158.24112,217.56598 v 32.09673"
         id="path6535"
         inkscape:connector-curvature="0" />
    </g>
    <g
       aria-label="Scenarios
&amp;
Rules"
       style="font-style:normal;font-variant:normal;font-weight:normal;font-stretch:normal;font-size:17.78973961px;line-height:22.87252045px;font-family:Acknowledgement;-inkscape-font-specification:Acknowledgement;text-align:center;letter-spacing:0px;word-spacing:0px;writing-mode:lr-tb;text-anchor:middle;fill:none;fill-opacity:1;stroke:#0000ff;stroke-width:0.35277778;stroke-linecap:butt;stroke-linejoin:miter;stroke-opacity:1;stroke-miterlimit:4;stroke-dasharray:none"
       id="text4598">
      <path
         d="m 231.97081,103.20704 c 1.63665,0 4.03827,0.49811 4.03827,1.65445 v 0.64043 h 2.45498 v -4.28733 h -2.45498 v 0.8717 c -0.8717,-0.60485 -2.82857,-1.19191 -4.46523,-1.19191 -2.4194,0 -5.83503,0.76495 -5.83503,3.77142 0,2.75741 3.66469,3.43342 4.98113,3.61132 2.72183,0.35579 4.21616,0.12453 4.21616,1.19191 0,0.76496 -1.51212,1.0318 -2.56172,1.0318 -1.88571,0 -4.5008,-0.35579 -4.5008,-1.83234 v -0.64043 h -2.45499 v 4.46523 h 2.45499 v -0.48033 c 0.92506,0.48033 2.45498,0.80054 4.19838,0.80054 4.48301,0 6.54662,-1.40539 6.54662,-3.59353 0,-4.23395 -4.94555,-3.75363 -7.88085,-4.28732 -0.72938,-0.12453 -1.35202,-0.23127 -1.35202,-0.64043 0,-0.90728 0.67601,-1.08518 2.61509,-1.08518 z"
         style="font-style:normal;font-variant:normal;font-weight:normal;font-stretch:normal;line-height:22.87252045px;font-family:Acknowledgement;-inkscape-font-specification:Acknowledgement;stroke-width:0.35277778;fill:none;stroke:#0000ff;stroke-opacity:1;stroke-miterlimit:4;stroke-dasharray:none"
         id="path4606" />
      <path
         d="m 239.6607,106.85394 c 0,4.19838 3.45121,5.76387 8.89487,5.76387 5.49703,0 7.18706,-2.79299 7.18706,-4.58975 h -2.57952 c -0.71159,1.72561 -2.4194,2.45499 -4.62533,2.45499 -2.45498,0 -4.53638,-1.10297 -4.53638,-3.62911 0,-2.41941 1.85013,-3.48679 4.55417,-3.48679 2.45498,0 4.60754,1.17412 4.60754,2.66846 v 0.64043 h 2.47278 v -5.28355 h -2.47278 v 0.96064 c -1.01401,-0.62264 -2.81078,-1.28086 -4.62533,-1.28086 -4.96334,0 -8.87708,1.92129 -8.87708,5.78167 z"
         style="font-style:normal;font-variant:normal;font-weight:normal;font-stretch:normal;line-height:22.87252045px;font-family:Acknowledgement;-inkscape-font-specification:Acknowledgement;stroke-width:0.35277778;fill:none;stroke:#0000ff;stroke-opacity:1;stroke-miterlimit:4;stroke-dasharray:none"
         id="path4608" />
      <path
         d="m 256.79861,112.42213 h 13.89379 v -4.28733 h -2.45498 v 2.0814 h -5.9062 v -2.41941 h 4.05606 v -2.04582 h -4.05606 v -2.29487 h 5.9062 v 2.22372 h 2.45498 v -4.26954 h -13.89379 v 2.04582 h 1.85014 v 6.7601 h -1.85014 z"
         style="font-style:normal;font-variant:normal;font-weight:normal;font-stretch:normal;line-height:22.87252045px;font-family:Acknowledgement;-inkscape-font-specification:Acknowledgement;stroke-width:0.35277778;fill:none;stroke:#0000ff;stroke-opacity:1;stroke-miterlimit:4;stroke-dasharray:none"
         id="path4610" />
      <path
         d="m 272.12141,112.42213 h 6.6 v -2.20593 h -1.92129 v -4.51859 l 7.48948,6.72452 h 2.33045 v -8.96603 h 1.92129 v -2.04582 h -6.59999 v 2.04582 h 1.85013 v 3.73584 l -6.27977,-5.78166 h -5.3903 v 2.04582 h 1.85014 v 6.7601 h -1.85014 z"
         style="font-style:normal;font-variant:normal;font-weight:normal;font-stretch:normal;line-height:22.87252045px;font-family:Acknowledgement;-inkscape-font-specification:Acknowledgement;stroke-width:0.35277778;fill:none;stroke:#0000ff;stroke-opacity:1;stroke-miterlimit:4;stroke-dasharray:none"
         id="path4612" />
      <path
         d="m 297.52349,107.42321 1.33423,-2.22372 1.13855,2.22372 z m -7.18705,4.99892 h 6.59999 v -2.20593 h -1.06738 l 0.44474,-0.76496 h 4.73207 l 0.39138,0.76496 h -0.85391 v 2.20593 h 6.59999 v -2.20593 h -1.40539 l -5.03449,-8.91266 h -2.65067 l -5.51482,8.91266 h -2.24151 z"
         style="font-style:normal;font-variant:normal;font-weight:normal;font-stretch:normal;line-height:22.87252045px;font-family:Acknowledgement;-inkscape-font-specification:Acknowledgement;stroke-width:0.35277778;fill:none;stroke:#0000ff;stroke-opacity:1;stroke-miterlimit:4;stroke-dasharray:none"
         id="path4614" />
      <path
         d="m 316.83148,101.39249 c -2.84636,0 -5.7105,0.0178 -8.57465,0.0178 v 2.04582 h 1.85013 v 6.7601 h -1.77897 v 2.20593 h 7.4539 v -2.20593 h -1.99245 v -2.49056 h 0.8717 c 1.35202,0 2.17034,0.35579 2.17034,2.25929 0,2.49057 1.67224,2.79299 3.77143,2.79299 1.04959,0 2.98867,-0.37358 2.98867,-1.74339 v -1.17413 h -1.19191 c 0,0.0534 0,0.14232 0,0.19569 0,0.65822 -0.14232,1.01402 -0.71159,1.01402 -0.90727,0 -0.94285,-0.8717 -0.94285,-1.63666 0,-1.45876 -1.52992,-1.67224 -2.02803,-1.9035 1.83234,-0.32022 3.41563,-1.10297 3.41563,-3.16658 0,-2.36603 -2.01024,-2.97088 -5.30135,-2.97088 z m -3.04204,4.46522 v -2.40161 c 0,0 0.85391,0 1.7256,0 0.42696,0 0.85391,0 1.19192,0 0.92506,0.0356 1.65444,0.0712 1.65444,1.19191 0,0.96065 -0.32021,1.2097 -2.91752,1.2097 z"
         style="font-style:normal;font-variant:normal;font-weight:normal;font-stretch:normal;line-height:22.87252045px;font-family:Acknowledgement;-inkscape-font-specification:Acknowledgement;stroke-width:0.35277778;fill:none;stroke:#0000ff;stroke-opacity:1;stroke-miterlimit:4;stroke-dasharray:none"
         id="path4616" />
      <path
         d="m 324.69149,112.42213 h 7.4539 v -2.20593 h -1.92129 v -6.7601 h 1.92129 v -2.04582 h -7.4539 v 2.04582 h 1.85013 v 6.7601 h -1.85013 z"
         style="font-style:normal;font-variant:normal;font-weight:normal;font-stretch:normal;line-height:22.87252045px;font-family:Acknowledgement;-inkscape-font-specification:Acknowledgement;stroke-width:0.35277778;fill:none;stroke:#0000ff;stroke-opacity:1;stroke-miterlimit:4;stroke-dasharray:none"
         id="path4618" />
      <path
         d="m 337.53652,106.85394 c 0,-2.41941 1.85013,-3.48679 4.55417,-3.48679 2.66846,0 4.55417,1.19191 4.55417,3.48679 0,2.50835 -1.81455,3.62911 -4.57196,3.62911 -2.45499,0 -4.53638,-1.10297 -4.53638,-3.62911 z m -4.3407,0 c 0,4.19838 3.45121,5.76387 8.89487,5.76387 5.44366,0 8.87708,-1.56549 8.87708,-5.76387 0,-3.86038 -3.93153,-5.78167 -8.89487,-5.78167 -4.96334,0 -8.87708,1.92129 -8.87708,5.78167 z"
         style="font-style:normal;font-variant:normal;font-weight:normal;font-stretch:normal;line-height:22.87252045px;font-family:Acknowledgement;-inkscape-font-specification:Acknowledgement;stroke-width:0.35277778;fill:none;stroke:#0000ff;stroke-opacity:1;stroke-miterlimit:4;stroke-dasharray:none"
         id="path4620" />
      <path
         d="m 358.61847,103.20704 c 1.63665,0 4.03827,0.49811 4.03827,1.65445 v 0.64043 h 2.45498 v -4.28733 h -2.45498 v 0.8717 c -0.8717,-0.60485 -2.82857,-1.19191 -4.46523,-1.19191 -2.4194,0 -5.83503,0.76495 -5.83503,3.77142 0,2.75741 3.66468,3.43342 4.98113,3.61132 2.72183,0.35579 4.21616,0.12453 4.21616,1.19191 0,0.76496 -1.51212,1.0318 -2.56172,1.0318 -1.88571,0 -4.5008,-0.35579 -4.5008,-1.83234 v -0.64043 h -2.45499 v 4.46523 h 2.45499 v -0.48033 c 0.92506,0.48033 2.45498,0.80054 4.19838,0.80054 4.48301,0 6.54662,-1.40539 6.54662,-3.59353 0,-4.23395 -4.94555,-3.75363 -7.88085,-4.28732 -0.72938,-0.12453 -1.35203,-0.23127 -1.35203,-0.64043 0,-0.90728 0.67602,-1.08518 2.6151,-1.08518 z"
         style="font-style:normal;font-variant:normal;font-weight:normal;font-stretch:normal;line-height:22.87252045px;font-family:Acknowledgement;-inkscape-font-specification:Acknowledgement;stroke-width:0.35277778;fill:none;stroke:#0000ff;stroke-opacity:1;stroke-miterlimit:4;stroke-dasharray:none"
         id="path4622" />
      <path
         d="m 293.85256,123.87363 c -2.68626,0 -4.19838,1.12076 -4.19838,3.11321 0,0.67601 0.24905,1.45876 0.78275,2.04582 -1.2275,0.58706 -2.36604,1.7256 -2.36604,3.2911 0,2.29488 1.95687,3.38005 5.71051,3.38005 1.70781,0 2.65067,-0.49811 3.66468,-1.12075 l 1.03181,0.72938 h 4.07385 v -2.04582 h -2.81078 c 0.49811,-0.48033 1.08517,-1.40539 1.17412,-2.4372 h 1.28086 v -2.04582 h -4.6787 v 2.04582 h 1.13855 c -0.10674,0.39138 -0.19569,0.56927 -0.48033,0.83612 l -2.63288,-2.11698 c 1.29865,-0.56927 2.15256,-1.40539 2.15256,-2.50835 0,-0.8717 -0.6938,-3.16658 -3.84258,-3.16658 z m -1.19192,2.9531 c 0,-0.58706 0.33801,-0.85391 0.97844,-0.85391 1.08517,0 1.31644,0.51591 1.35202,1.13855 0,0.12452 -0.48032,0.76496 -1.31644,1.01401 -0.5159,-0.37358 -1.01402,-0.58706 -1.01402,-1.29865 z m -1.19191,5.49703 c 0,-0.8717 0.26685,-1.31644 0.96065,-1.67224 l 2.97088,2.50836 c -0.53369,0.30242 -0.92506,0.40916 -1.5477,0.40916 -1.90351,0 -2.38383,-0.80054 -2.38383,-1.24528 z"
         style="font-style:normal;font-variant:normal;font-weight:normal;font-stretch:normal;line-height:22.87252045px;font-family:Acknowledgement;-inkscape-font-specification:Acknowledgement;stroke-width:0.35277778;fill:none;stroke:#0000ff;stroke-opacity:1;stroke-miterlimit:4;stroke-dasharray:none"
         id="path4624" />
      <path
         d="m 264.81734,147.15532 h -8.57466 v 2.04582 h 1.85014 v 6.7601 h -1.77898 v 2.20593 h 7.4539 v -2.20593 h -1.99245 v -2.49056 h 0.8717 l 3.96711,4.69649 h 4.62533 v -2.20593 h -1.95687 l -2.57951,-2.68625 c 1.83234,-0.32022 3.41563,-1.10297 3.41563,-3.16658 0,-2.63288 -2.52614,-2.95309 -5.30134,-2.95309 z m -3.04205,4.44743 v -2.40161 c 0.76496,0 1.51213,-0.0178 2.27709,-0.0178 0.23127,0 0.42695,0.0178 0.64043,0.0178 0.92507,0.0356 1.65445,0.0712 1.65445,1.19191 0,0.96065 -0.32022,1.2097 -2.91752,1.2097 z"
         style="font-style:normal;font-variant:normal;font-weight:normal;font-stretch:normal;line-height:22.87252045px;font-family:Acknowledgement;-inkscape-font-specification:Acknowledgement;stroke-width:0.35277778;fill:none;stroke:#0000ff;stroke-opacity:1;stroke-miterlimit:4;stroke-dasharray:none"
         id="path4626" />
      <path
         d="m 272.67735,149.20114 h 1.85013 v 5.47924 c 0,1.65444 1.95687,3.86037 6.5822,3.86037 4.66091,0 6.0663,-2.18814 6.0663,-3.86037 v -5.47924 h 1.92129 v -2.04582 h -6.59999 v 2.04582 h 1.85013 v 5.03449 c 0,1.95688 -1.5477,1.95688 -3.13099,1.95688 -2.11698,0 -3.00647,-0.60486 -3.00647,-1.93909 v -5.05228 h 1.9213 v -2.04582 h -7.4539 z"
         style="font-style:normal;font-variant:normal;font-weight:normal;font-stretch:normal;line-height:22.87252045px;font-family:Acknowledgement;-inkscape-font-specification:Acknowledgement;stroke-width:0.35277778;fill:none;stroke:#0000ff;stroke-opacity:1;stroke-miterlimit:4;stroke-dasharray:none"
         id="path4628" />
      <path
         d="m 290.53658,158.16717 h 13.89378 v -4.28733 h -2.45498 v 2.0814 h -5.9062 v -6.7601 h 1.9213 v -2.04582 h -7.4539 v 2.04582 h 1.85013 v 6.7601 h -1.85013 z"
         style="font-style:normal;font-variant:normal;font-weight:normal;font-stretch:normal;line-height:22.87252045px;font-family:Acknowledgement;-inkscape-font-specification:Acknowledgement;stroke-width:0.35277778;fill:none;stroke:#0000ff;stroke-opacity:1;stroke-miterlimit:4;stroke-dasharray:none"
         id="path4630" />
      <path
         d="m 305.85938,158.16717 h 13.89379 v -4.28733 h -2.45499 v 2.0814 h -5.90619 v -2.41941 h 4.05606 v -2.04582 h -4.05606 v -2.29487 h 5.90619 v 2.22372 h 2.45499 v -4.26954 h -13.89379 v 2.04582 h 1.85013 v 6.7601 h -1.85013 z"
         style="font-style:normal;font-variant:normal;font-weight:normal;font-stretch:normal;line-height:22.87252045px;font-family:Acknowledgement;-inkscape-font-specification:Acknowledgement;stroke-width:0.35277778;fill:none;stroke:#0000ff;stroke-opacity:1;stroke-miterlimit:4;stroke-dasharray:none"
         id="path4632" />
      <path
         d="m 327.76439,148.95208 c 1.63665,0 4.03827,0.49811 4.03827,1.65445 v 0.64043 h 2.45498 v -4.28733 h -2.45498 v 0.8717 c -0.8717,-0.60485 -2.82857,-1.19191 -4.46523,-1.19191 -2.4194,0 -5.83503,0.76495 -5.83503,3.77142 0,2.75741 3.66468,3.43342 4.98112,3.61132 2.72183,0.35579 4.21617,0.12453 4.21617,1.19191 0,0.76496 -1.51212,1.0318 -2.56172,1.0318 -1.88571,0 -4.5008,-0.35579 -4.5008,-1.83234 v -0.64043 h -2.45499 v 4.46523 h 2.45499 V 157.758 c 0.92506,0.48033 2.45498,0.80054 4.19837,0.80054 4.48302,0 6.54663,-1.40539 6.54663,-3.59353 0,-4.23395 -4.94555,-3.75363 -7.88086,-4.28732 -0.72937,-0.12453 -1.35202,-0.23127 -1.35202,-0.64043 0,-0.90728 0.67601,-1.08518 2.6151,-1.08518 z"
         style="font-style:normal;font-variant:normal;font-weight:normal;font-stretch:normal;line-height:22.87252045px;font-family:Acknowledgement;-inkscape-font-specification:Acknowledgement;stroke-width:0.35277778;fill:none;stroke:#0000ff;stroke-opacity:1;stroke-miterlimit:4;stroke-dasharray:none"
         id="path4634" />
    </g>
  </g>
</svg>
