<?xml version="1.0" encoding="UTF-8" standalone="no"?>
<!-- Created with Inkscape (http://www.inkscape.org/) -->

<svg
   xmlns:dc="http://purl.org/dc/elements/1.1/"
   xmlns:cc="http://creativecommons.org/ns#"
   xmlns:rdf="http://www.w3.org/1999/02/22-rdf-syntax-ns#"
   xmlns:svg="http://www.w3.org/2000/svg"
   xmlns="http://www.w3.org/2000/svg"
   xmlns:sodipodi="http://sodipodi.sourceforge.net/DTD/sodipodi-0.dtd"
   xmlns:inkscape="http://www.inkscape.org/namespaces/inkscape"
   width="11.5in"
   height="11.5in"
   viewBox="0 0 1035 1035"
   id="svg2"
   version="1.1"
   inkscape:version="0.91 r13725"
   sodipodi:docname="binder rings.svg">
  <defs
     id="defs4" />
  <sodipodi:namedview
     id="base"
     pagecolor="#ffffff"
     bordercolor="#666666"
     borderopacity="1.0"
     inkscape:pageopacity="0.0"
     inkscape:pageshadow="2"
     inkscape:zoom="2.5413043"
     inkscape:cx="213.85974"
     inkscape:cy="950.33244"
     inkscape:document-units="in"
     inkscape:current-layer="layer1"
     showgrid="false"
     inkscape:window-width="1600"
     inkscape:window-height="837"
     inkscape:window-x="-8"
     inkscape:window-y="-8"
     inkscape:window-maximized="1"
     units="in" />
  <metadata
     id="metadata7">
    <rdf:RDF>
      <cc:Work
         rdf:about="">
        <dc:format>image/svg+xml</dc:format>
        <dc:type
           rdf:resource="http://purl.org/dc/dcmitype/StillImage" />
        <dc:title></dc:title>
      </cc:Work>
    </rdf:RDF>
  </metadata>
  <g
     inkscape:label="Layer 1"
     inkscape:groupmode="layer"
     id="layer1"
     transform="translate(0,-17.362145)">
    <path
       id="circle4138"
       style="fill:none;fill-opacity:1;stroke:#ff0000;stroke-width:1;stroke-linejoin:round;stroke-miterlimit:4;stroke-dasharray:none;stroke-opacity:1"
       d="m 383.32366,55.219114 a 22,22 0 0 1 -22,22 22,22 0 0 1 -22,-22 22,22 0 0 1 22,-22 22,22 0 0 1 22,22 z m 11.25,0 a 33.25,33.25 0 0 1 -33.25,33.25 33.25,33.25 0 0 1 -33.25,-33.25 33.25,33.25 0 0 1 33.25,-33.25 33.25,33.25 0 0 1 33.25,33.25 z"
       inkscape:connector-curvature="0" />
    <path
       style="fill:none;fill-opacity:1;stroke:#ff0000;stroke-width:1;stroke-linejoin:round;stroke-miterlimit:4;stroke-dasharray:none;stroke-opacity:1"
       d="m 346.40392,20.730954 0.0661,-0.0659 15.15726,15.15726 -0.0659,0.066 z"
       id="rect4149"
       inkscape:connector-curvature="0" />
    <path
       d="m 313.6744,53.674207 a 22,22 0 0 1 -22,22 22,22 0 0 1 -22,-22 22,22 0 0 1 22,-22 22,22 0 0 1 22,22 z m 11.25,0 a 33.25,33.25 0 0 1 -33.25,33.25 33.25,33.25 0 0 1 -33.25,-33.25 33.25,33.25 0 0 1 33.25,-33.25 33.25,33.25 0 0 1 33.25,33.25 z"
       style="fill:none;fill-opacity:1;stroke:#ff0000;stroke-width:1;stroke-linejoin:round;stroke-miterlimit:4;stroke-dasharray:none;stroke-opacity:1"
       id="path4155"
       inkscape:connector-curvature="0" />
    <path
       inkscape:connector-curvature="0"
       id="path4157"
       d="m 276.75466,19.186047 0.0661,-0.0659 15.15726,15.15726 -0.0659,0.066 z"
       style="fill:none;fill-opacity:1;stroke:#ff0000;stroke-width:1;stroke-linejoin:round;stroke-miterlimit:4;stroke-dasharray:none;stroke-opacity:1" />
    <path
       inkscape:connector-curvature="0"
       id="path4159"
       style="fill:none;fill-opacity:1;stroke:#ff0000;stroke-width:1;stroke-linejoin:round;stroke-miterlimit:4;stroke-dasharray:none;stroke-opacity:1"
       d="m 313.6744,53.674207 a 22,22 0 0 1 -22,22 22,22 0 0 1 -22,-22 22,22 0 0 1 22,-22 22,22 0 0 1 22,22 z m 11.25,0 a 33.25,33.25 0 0 1 -33.25,33.25 33.25,33.25 0 0 1 -33.25,-33.25 33.25,33.25 0 0 1 33.25,-33.25 33.25,33.25 0 0 1 33.25,33.25 z" />
    <path
       style="fill:none;fill-opacity:1;stroke:#ff0000;stroke-width:1;stroke-linejoin:round;stroke-miterlimit:4;stroke-dasharray:none;stroke-opacity:1"
       d="m 276.75466,19.186047 0.0661,-0.0659 15.15726,15.15726 -0.0659,0.066 z"
       id="path4161"
       inkscape:connector-curvature="0" />
    <path
       inkscape:connector-curvature="0"
       id="path4163"
       style="fill:none;fill-opacity:1;stroke:#ff0000;stroke-width:1;stroke-linejoin:round;stroke-miterlimit:4;stroke-dasharray:none;stroke-opacity:1"
       d="m 244.81212,53.674208 a 22,22 0 0 1 -22,22 22,22 0 0 1 -22,-22 22,22 0 0 1 22,-22 22,22 0 0 1 22,22 z m 11.25,0 a 33.25,33.25 0 0 1 -33.25,33.25 33.25,33.25 0 0 1 -33.25,-33.25 33.25,33.25 0 0 1 33.25,-33.25 33.25,33.25 0 0 1 33.25,33.25 z" />
    <path
       style="fill:none;fill-opacity:1;stroke:#ff0000;stroke-width:1;stroke-linejoin:round;stroke-miterlimit:4;stroke-dasharray:none;stroke-opacity:1"
       d="m 207.89238,19.186048 0.0661,-0.0659 15.15726,15.15726 -0.0659,0.066 z"
       id="path4165"
       inkscape:connector-curvature="0" />
    <path
       d="m 244.81212,53.674208 a 22,22 0 0 1 -22,22 22,22 0 0 1 -22,-22 22,22 0 0 1 22,-22 22,22 0 0 1 22,22 z m 11.25,0 a 33.25,33.25 0 0 1 -33.25,33.25 33.25,33.25 0 0 1 -33.25,-33.25 33.25,33.25 0 0 1 33.25,-33.25 33.25,33.25 0 0 1 33.25,33.25 z"
       style="fill:none;fill-opacity:1;stroke:#ff0000;stroke-width:1;stroke-linejoin:round;stroke-miterlimit:4;stroke-dasharray:none;stroke-opacity:1"
       id="path4167"
       inkscape:connector-curvature="0" />
    <path
       inkscape:connector-curvature="0"
       id="path4169"
       d="m 207.89238,19.186048 0.0661,-0.0659 15.15726,15.15726 -0.0659,0.066 z"
       style="fill:none;fill-opacity:1;stroke:#ff0000;stroke-width:1;stroke-linejoin:round;stroke-miterlimit:4;stroke-dasharray:none;stroke-opacity:1" />
    <path
       style="fill:none;fill-opacity:1;stroke:#ff0000;stroke-width:0.99999994;stroke-linejoin:round;stroke-miterlimit:4;stroke-dasharray:none;stroke-opacity:1"
       d="m 474.68594,64.528974 a 33.25,33.249999 0 0 1 -33.25,33.25 33.25,33.249999 0 0 1 -33.25,-33.25 33.25,33.249999 0 0 1 33.25,-33.25 33.25,33.249999 0 0 1 33.25,33.25 z"
       id="path4177"
       inkscape:connector-curvature="0" />
    <path
       style="fill:none;fill-opacity:1;stroke:#ff0000;stroke-width:1;stroke-linejoin:round;stroke-miterlimit:4;stroke-dasharray:none;stroke-opacity:1"
       d="m 485.93594,64.528974 a 44.500001,43.644146 0 0 1 -44.5,43.644146 44.500001,43.644146 0 0 1 -44.5,-43.644146 44.500001,43.644146 0 0 1 44.5,-43.64415 44.500001,43.644146 0 0 1 44.5,43.64415 z"
       id="path4171"
       inkscape:connector-curvature="0" />
    <path
       inkscape:connector-curvature="0"
       id="path4173"
       d="m 421.46817,19.259614 0.0885,-0.0865 20.28566,19.89551 -0.0882,0.0866 z"
       style="fill:none;fill-opacity:1;stroke:#ff0000;stroke-width:1;stroke-linejoin:round;stroke-miterlimit:4;stroke-dasharray:none;stroke-opacity:1" />
    <path
       inkscape:connector-curvature="0"
       id="path4179"
       d="m 83.54822,66.10297 a 33.25,33.249999 0 0 1 -33.250001,33.25 33.25,33.249999 0 0 1 -33.25,-33.25 33.25,33.249999 0 0 1 33.25,-33.25 33.25,33.249999 0 0 1 33.250001,33.25 z"
       style="fill:none;fill-opacity:1;stroke:#ff0000;stroke-width:0.99999994;stroke-linejoin:round;stroke-miterlimit:4;stroke-dasharray:none;stroke-opacity:1" />
    <path
       id="path4181"
       d="M 94.79822,66.10297 A 44.500001,43.644146 0 0 1 50.298218,109.74712 44.500001,43.644146 0 0 1 5.798217,66.10297 44.500001,43.644146 0 0 1 50.298218,22.45882 44.500001,43.644146 0 0 1 94.79822,66.10297 Z"
       style="fill:none;fill-opacity:1;stroke:#ff0000;stroke-width:1;stroke-linejoin:round;stroke-miterlimit:4;stroke-dasharray:none;stroke-opacity:1"
       inkscape:connector-curvature="0" />
    <path
       style="fill:none;fill-opacity:1;stroke:#ff0000;stroke-width:1;stroke-linejoin:round;stroke-miterlimit:4;stroke-dasharray:none;stroke-opacity:1"
       d="m 30.330445,20.83361 0.08846,-0.0865 20.285657,19.89551 -0.0882,0.0866 z"
       id="path4183"
       inkscape:connector-curvature="0" />
    <path
       style="fill:none;fill-opacity:1;stroke:#ff0000;stroke-width:0.99999994;stroke-linejoin:round;stroke-miterlimit:4;stroke-dasharray:none;stroke-opacity:1"
       d="m 174.87243,66.07389 a 33.25,33.249999 0 0 1 -33.25,33.25 33.25,33.249999 0 0 1 -33.25,-33.25 33.25,33.249999 0 0 1 33.25,-33.25 33.25,33.249999 0 0 1 33.25,33.25 z"
       id="path4185"
       inkscape:connector-curvature="0" />
    <path
       inkscape:connector-curvature="0"
       style="fill:none;fill-opacity:1;stroke:#ff0000;stroke-width:1;stroke-linejoin:round;stroke-miterlimit:4;stroke-dasharray:none;stroke-opacity:1"
       d="m 186.12243,66.07389 a 44.500001,43.644146 0 0 1 -44.5,43.64415 44.500001,43.644146 0 0 1 -44.5,-43.64415 44.500001,43.644146 0 0 1 44.5,-43.64415 44.500001,43.644146 0 0 1 44.5,43.64415 z"
       id="path4187" />
    <path
       inkscape:connector-curvature="0"
       id="path4189"
       d="m 121.65465,20.80453 0.0885,-0.0865 20.28566,19.89551 -0.0882,0.0866 z"
       style="fill:none;fill-opacity:1;stroke:#ff0000;stroke-width:1;stroke-linejoin:round;stroke-miterlimit:4;stroke-dasharray:none;stroke-opacity:1" />
  </g>
</svg>
