<?xml version="1.0" encoding="UTF-8" standalone="no"?>
<!-- Generator: Adobe Illustrator 16.0.4, SVG Export Plug-In . SVG Version: 6.00 Build 0)  -->

<svg
   xmlns:dc="http://purl.org/dc/elements/1.1/"
   xmlns:cc="http://creativecommons.org/ns#"
   xmlns:rdf="http://www.w3.org/1999/02/22-rdf-syntax-ns#"
   xmlns:svg="http://www.w3.org/2000/svg"
   xmlns="http://www.w3.org/2000/svg"
   xmlns:sodipodi="http://sodipodi.sourceforge.net/DTD/sodipodi-0.dtd"
   xmlns:inkscape="http://www.inkscape.org/namespaces/inkscape"
   version="1.1"
   id="Layer_1"
   sodipodi:docname="chits 11x11-tgc2.svg"
   inkscape:version="0.92.3 (2405546, 2018-03-11)"
   x="0px"
   y="0px"
   width="8.25in"
   height="10.5in"
   viewBox="0 0 742.50001 945.00004"
   enable-background="new 0 0 594 756"
   xml:space="preserve"><metadata
     id="metadata221"><rdf:RDF><cc:Work
         rdf:about=""><dc:format>image/svg+xml</dc:format><dc:type
           rdf:resource="http://purl.org/dc/dcmitype/StillImage" /><dc:title></dc:title></cc:Work></rdf:RDF></metadata><defs
     id="defs219" /><sodipodi:namedview
     inkscape:current-layer="layer1"
     inkscape:window-maximized="1"
     inkscape:window-y="-8"
     inkscape:window-x="-8"
     inkscape:document-units="in"
     inkscape:window-height="1017"
     inkscape:window-width="1920"
     inkscape:pageshadow="2"
     inkscape:pageopacity="0"
     units="in"
     inkscape:cy="304.25305"
     inkscape:cx="879.12009"
     inkscape:zoom="0.44147408"
     showgrid="false"
     guidetolerance="10"
     gridtolerance="10"
     objecttolerance="10"
     borderopacity="1"
     pagecolor="#ffffff"
     bordercolor="#666666"
     id="namedview387"
     showguides="true"
     inkscape:guide-bbox="true" /><g
     id="layer1"
     inkscape:groupmode="layer"
     inkscape:label="Delete"
     transform="translate(0,189.00003)">


























<path
   style="display:inline;opacity:1;fill:none;fill-opacity:1;fill-rule:nonzero;stroke:#ff0000;stroke-width:0.62500012;stroke-linecap:round;stroke-linejoin:round;stroke-miterlimit:4;stroke-dasharray:none;stroke-dashoffset:0;stroke-opacity:1"
   d="m 81.858089,-129.82057 a 33.4375,33.4375 0 0 1 -12.23898,45.676478 33.4375,33.4375 0 0 1 -45.67647,-12.23897 33.4375,33.4375 0 0 1 12.23897,-45.676478 33.4375,33.4375 0 0 1 45.67648,12.23897 z"
   id="circle5436"
   inkscape:connector-curvature="0" /><path
   style="display:inline;opacity:1;fill:none;fill-opacity:1;stroke:#ff0000;stroke-width:0.62500006;stroke-linecap:round;stroke-linejoin:round;stroke-miterlimit:4;stroke-dasharray:none;stroke-opacity:1"
   d="m 267.66279,571.49093 -55.93756,32.30162 -55.93756,-32.30162 v -64.60324 l 55.93756,-32.30159 55.93756,32.30159 z"
   id="path5532"
   inkscape:connector-curvature="0" /><path
   style="display:inline;opacity:1;fill:none;fill-opacity:1;stroke:#ff0000;stroke-width:0.62500006;stroke-linecap:round;stroke-linejoin:round;stroke-miterlimit:4;stroke-dasharray:none;stroke-opacity:1"
   d="m 579.3246,304.7067 32.3016,55.93756 -32.3016,55.93756 H 514.7214 L 482.41976,360.64426 514.7214,304.7067 Z"
   id="path5542"
   inkscape:connector-curvature="0" /><path
   style="display:inline;opacity:1;fill:none;fill-opacity:1;stroke:#ff0000;stroke-width:0.62500006;stroke-linecap:round;stroke-linejoin:round;stroke-miterlimit:4;stroke-dasharray:none;stroke-opacity:1"
   d="M 211.72523,668.39578 155.78767,700.6974 99.850109,668.39578 v -64.60324 l 55.937561,-32.30159 55.93756,32.30159 z"
   id="path6637"
   inkscape:connector-curvature="0" /><path
   style="display:inline;opacity:1;fill:none;fill-opacity:1;stroke:#ff0000;stroke-width:0.62500006;stroke-linecap:round;stroke-linejoin:round;stroke-miterlimit:4;stroke-dasharray:none;stroke-opacity:1"
   d="m 579.3246,192.83158 32.3016,55.93756 -32.3016,55.93756 h -64.6032 l -32.30164,-55.93756 32.30164,-55.93756 z"
   id="path6693"
   inkscape:connector-curvature="0" /><path
   style="display:inline;opacity:1;fill:none;fill-opacity:1;stroke:#ff0000;stroke-width:0.62500006;stroke-linecap:round;stroke-linejoin:round;stroke-miterlimit:4;stroke-dasharray:none;stroke-opacity:1"
   d="m 44.503739,107.35487 c 12.29187,0 22.1875,9.89563 22.1875,22.1875 v 24.87311 c 0,12.29188 -9.89563,22.18752 -22.1875,22.18752 -12.29188,0 -22.1875,-9.89564 -22.1875,-22.18752 v -24.87311 c 0,-12.29187 9.89562,-22.1875 22.1875,-22.1875 z"
   id="rect7283"
   inkscape:connector-curvature="0" /><path
   style="display:inline;opacity:1;fill:none;fill-opacity:1;stroke:#ff0000;stroke-width:0.62500006;stroke-linecap:round;stroke-linejoin:round;stroke-miterlimit:4;stroke-dasharray:none;stroke-opacity:1"
   d="m 89.503739,107.35487 c 12.291871,0 22.187501,9.89563 22.187501,22.1875 v 24.87311 c 0,12.29188 -9.89563,22.18752 -22.187501,22.18752 -12.29187,0 -22.1875,-9.89564 -22.1875,-22.18752 v -24.87311 c 0,-12.29187 9.89563,-22.1875 22.1875,-22.1875 z"
   id="rect7291"
   inkscape:connector-curvature="0" /><path
   style="display:inline;opacity:1;fill:none;fill-opacity:1;stroke:#ff0000;stroke-width:0.62500006;stroke-linecap:round;stroke-linejoin:round;stroke-miterlimit:4;stroke-dasharray:none;stroke-opacity:1"
   d="m 134.50375,107.35487 c 12.29187,0 22.18749,9.89563 22.18749,22.1875 v 24.87311 c 0,12.29188 -9.89562,22.18752 -22.18749,22.18752 -12.29189,0 -22.18751,-9.89564 -22.18751,-22.18752 v -24.87311 c 0,-12.29187 9.89562,-22.1875 22.18751,-22.1875 z"
   id="rect7299"
   inkscape:connector-curvature="0" /><path
   style="display:inline;opacity:1;fill:none;fill-opacity:1;stroke:#ff0000;stroke-width:0.62500006;stroke-linecap:round;stroke-linejoin:round;stroke-miterlimit:4;stroke-dasharray:none;stroke-opacity:1"
   d="m 179.50373,107.35487 c 12.29188,0 22.1875,9.89563 22.1875,22.1875 v 24.87311 c 0,12.29188 -9.89562,22.18752 -22.1875,22.18752 -12.29187,0 -22.1875,-9.89564 -22.1875,-22.18752 v -24.87311 c 0,-12.29187 9.89563,-22.1875 22.1875,-22.1875 z"
   id="rect7307"
   inkscape:connector-curvature="0" /><path
   style="display:inline;opacity:1;fill:none;fill-opacity:1;stroke:#ff0000;stroke-width:0.62500006;stroke-linecap:round;stroke-linejoin:round;stroke-miterlimit:4;stroke-dasharray:none;stroke-opacity:1"
   d="m 224.50373,107.35487 c 12.29188,0 22.1875,9.89563 22.1875,22.1875 v 24.87311 c 0,12.29188 -9.89562,22.18752 -22.1875,22.18752 -12.29187,0 -22.18749,-9.89564 -22.18749,-22.18752 v -24.87311 c 0,-12.29187 9.89562,-22.1875 22.18749,-22.1875 z"
   id="rect7315"
   inkscape:connector-curvature="0" /><path
   style="display:inline;opacity:1;fill:#ffffff;fill-opacity:1;fill-rule:nonzero;stroke:#ff0000;stroke-width:0.62500006;stroke-linecap:round;stroke-linejoin:round;stroke-miterlimit:4;stroke-dasharray:none;stroke-dashoffset:0;stroke-opacity:1"
   inkscape:transform-center-x="0.0078585736"
   inkscape:transform-center-y="-1.0759755"
   d="m 548.79571,183.47822 -47.26054,0.10584 -14.70498,-44.91467 38.1723,-27.86466 38.29682,27.69336 z"
   id="path5095"
   inkscape:connector-curvature="0" /><path
   style="display:inline;opacity:1;fill:none;fill-opacity:1;stroke:#ff0000;stroke-width:0.62500006;stroke-linecap:round;stroke-linejoin:round;stroke-miterlimit:4;stroke-dasharray:none;stroke-opacity:1"
   d="m 44.503739,176.60296 c 12.29187,0 22.1875,9.89564 22.1875,22.18752 v 24.8731 c 0,12.29187 -9.89563,22.18751 -22.1875,22.18751 -12.29188,0 -22.1875,-9.89564 -22.1875,-22.18751 v -24.8731 c 0,-12.29188 9.89562,-22.18752 22.1875,-22.18752 z"
   id="rect5301"
   inkscape:connector-curvature="0" /><path
   style="display:inline;opacity:1;fill:none;fill-opacity:1;stroke:#ff0000;stroke-width:0.62500006;stroke-linecap:round;stroke-linejoin:round;stroke-miterlimit:4;stroke-dasharray:none;stroke-opacity:1"
   d="m 89.503739,176.60296 c 12.291871,0 22.187501,9.89564 22.187501,22.18752 v 24.8731 c 0,12.29187 -9.89563,22.18751 -22.187501,22.18751 -12.29187,0 -22.1875,-9.89564 -22.1875,-22.18751 v -24.8731 c 0,-12.29188 9.89563,-22.18752 22.1875,-22.18752 z"
   id="rect5309"
   inkscape:connector-curvature="0" /><path
   style="display:inline;opacity:1;fill:none;fill-opacity:1;stroke:#ff0000;stroke-width:0.62500006;stroke-linecap:round;stroke-linejoin:round;stroke-miterlimit:4;stroke-dasharray:none;stroke-opacity:1"
   d="m 134.50375,176.60296 c 12.29187,0 22.18749,9.89564 22.18749,22.18752 v 24.8731 c 0,12.29187 -9.89562,22.18751 -22.18749,22.18751 -12.29189,0 -22.18751,-9.89564 -22.18751,-22.18751 v -24.8731 c 0,-12.29188 9.89562,-22.18752 22.18751,-22.18752 z"
   id="rect5317"
   inkscape:connector-curvature="0" /><path
   style="display:inline;opacity:1;fill:none;fill-opacity:1;stroke:#ff0000;stroke-width:0.62500006;stroke-linecap:round;stroke-linejoin:round;stroke-miterlimit:4;stroke-dasharray:none;stroke-opacity:1"
   d="m 179.50373,176.60296 c 12.29188,0 22.1875,9.89564 22.1875,22.18752 v 24.8731 c 0,12.29187 -9.89562,22.18751 -22.1875,22.18751 -12.29187,0 -22.1875,-9.89564 -22.1875,-22.18751 v -24.8731 c 0,-12.29188 9.89563,-22.18752 22.1875,-22.18752 z"
   id="rect5325"
   inkscape:connector-curvature="0" /><path
   style="display:inline;opacity:1;fill:none;fill-opacity:1;stroke:#ff0000;stroke-width:0.62500006;stroke-linecap:round;stroke-linejoin:round;stroke-miterlimit:4;stroke-dasharray:none;stroke-opacity:1"
   d="m 224.50373,176.60296 c 12.29188,0 22.1875,9.89564 22.1875,22.18752 v 24.8731 c 0,12.29187 -9.89562,22.18751 -22.1875,22.18751 -12.29187,0 -22.18749,-9.89564 -22.18749,-22.18751 v -24.8731 c 0,-12.29188 9.89562,-22.18752 22.18749,-22.18752 z"
   id="rect5333"
   inkscape:connector-curvature="0" /><path
   style="display:inline;opacity:1;fill:none;fill-opacity:1;stroke:#ff0000;stroke-width:0.62500006;stroke-linecap:round;stroke-linejoin:round;stroke-miterlimit:4;stroke-dasharray:none;stroke-opacity:1"
   d="m 44.503739,245.85119 c 12.29187,0 22.1875,9.89561 22.1875,22.18749 v 24.87313 c 0,12.29187 -9.89563,22.18747 -22.1875,22.18747 -12.29188,0 -22.1875,-9.8956 -22.1875,-22.18747 v -24.87313 c 0,-12.29188 9.89562,-22.18749 22.1875,-22.18749 z"
   id="rect5341"
   inkscape:connector-curvature="0" /><path
   style="display:inline;opacity:1;fill:none;fill-opacity:1;stroke:#ff0000;stroke-width:0.62500006;stroke-linecap:round;stroke-linejoin:round;stroke-miterlimit:4;stroke-dasharray:none;stroke-opacity:1"
   d="m 89.503739,245.85119 c 12.291871,0 22.187501,9.89561 22.187501,22.18749 v 24.87313 c 0,12.29187 -9.89563,22.18747 -22.187501,22.18747 -12.29187,0 -22.1875,-9.8956 -22.1875,-22.18747 v -24.87313 c 0,-12.29188 9.89563,-22.18749 22.1875,-22.18749 z"
   id="rect5349"
   inkscape:connector-curvature="0" /><path
   style="display:inline;opacity:1;fill:none;fill-opacity:1;stroke:#ff0000;stroke-width:0.62500006;stroke-linecap:round;stroke-linejoin:round;stroke-miterlimit:4;stroke-dasharray:none;stroke-opacity:1"
   d="m 134.50375,245.85119 c 12.29187,0 22.18749,9.89561 22.18749,22.18749 v 24.87313 c 0,12.29187 -9.89562,22.18747 -22.18749,22.18747 -12.29189,0 -22.18751,-9.8956 -22.18751,-22.18747 v -24.87313 c 0,-12.29188 9.89562,-22.18749 22.18751,-22.18749 z"
   id="rect5357"
   inkscape:connector-curvature="0" /><path
   style="display:inline;opacity:1;fill:none;fill-opacity:1;stroke:#ff0000;stroke-width:0.62500006;stroke-linecap:round;stroke-linejoin:round;stroke-miterlimit:4;stroke-dasharray:none;stroke-opacity:1"
   d="m 179.50373,245.85119 c 12.29188,0 22.1875,9.89561 22.1875,22.18749 v 24.87313 c 0,12.29187 -9.89562,22.18747 -22.1875,22.18747 -12.29187,0 -22.1875,-9.8956 -22.1875,-22.18747 v -24.87313 c 0,-12.29188 9.89563,-22.18749 22.1875,-22.18749 z"
   id="rect5365"
   inkscape:connector-curvature="0" /><path
   style="display:inline;opacity:1;fill:none;fill-opacity:1;stroke:#ff0000;stroke-width:0.62500006;stroke-linecap:round;stroke-linejoin:round;stroke-miterlimit:4;stroke-dasharray:none;stroke-opacity:1"
   d="m 224.50373,245.85119 c 12.29188,0 22.1875,9.89561 22.1875,22.18749 v 24.87313 c 0,12.29187 -9.89562,22.18747 -22.1875,22.18747 -12.29187,0 -22.18749,-9.8956 -22.18749,-22.18747 v -24.87313 c 0,-12.29188 9.89562,-22.18749 22.18749,-22.18749 z"
   id="rect5373"
   inkscape:connector-curvature="0" /><path
   style="display:inline;opacity:1;fill:none;fill-opacity:1;stroke:#ff0000;stroke-width:0.62500006;stroke-linecap:round;stroke-linejoin:round;stroke-miterlimit:4;stroke-dasharray:none;stroke-opacity:1"
   d="m 44.503739,315.09928 c 12.29187,0 22.1875,9.89561 22.1875,22.18749 v 24.87312 c 0,12.29188 -9.89563,22.18749 -22.1875,22.18749 -12.29188,0 -22.1875,-9.89561 -22.1875,-22.18749 v -24.87312 c 0,-12.29188 9.89562,-22.18749 22.1875,-22.18749 z"
   id="rect5381"
   inkscape:connector-curvature="0" /><path
   style="display:inline;opacity:1;fill:none;fill-opacity:1;stroke:#ff0000;stroke-width:0.62500006;stroke-linecap:round;stroke-linejoin:round;stroke-miterlimit:4;stroke-dasharray:none;stroke-opacity:1"
   d="m 89.503739,315.09928 c 12.291871,0 22.187501,9.89561 22.187501,22.18749 v 24.87312 c 0,12.29188 -9.89563,22.18749 -22.187501,22.18749 -12.29187,0 -22.1875,-9.89561 -22.1875,-22.18749 v -24.87312 c 0,-12.29188 9.89563,-22.18749 22.1875,-22.18749 z"
   id="rect5389"
   inkscape:connector-curvature="0" /><path
   style="display:inline;opacity:1;fill:none;fill-opacity:1;stroke:#ff0000;stroke-width:0.62500006;stroke-linecap:round;stroke-linejoin:round;stroke-miterlimit:4;stroke-dasharray:none;stroke-opacity:1"
   d="m 134.50375,315.09928 c 12.29187,0 22.18749,9.89561 22.18749,22.18749 v 24.87312 c 0,12.29188 -9.89562,22.18749 -22.18749,22.18749 -12.29189,0 -22.18751,-9.89561 -22.18751,-22.18749 v -24.87312 c 0,-12.29188 9.89562,-22.18749 22.18751,-22.18749 z"
   id="rect5397"
   inkscape:connector-curvature="0" /><path
   style="display:inline;opacity:1;fill:none;fill-opacity:1;stroke:#ff0000;stroke-width:0.62500006;stroke-linecap:round;stroke-linejoin:round;stroke-miterlimit:4;stroke-dasharray:none;stroke-opacity:1"
   d="m 179.50373,315.09928 c 12.29188,0 22.1875,9.89561 22.1875,22.18749 v 24.87312 c 0,12.29188 -9.89562,22.18749 -22.1875,22.18749 -12.29187,0 -22.1875,-9.89561 -22.1875,-22.18749 v -24.87312 c 0,-12.29188 9.89563,-22.18749 22.1875,-22.18749 z"
   id="rect5405"
   inkscape:connector-curvature="0" /><path
   style="display:inline;opacity:1;fill:none;fill-opacity:1;stroke:#ff0000;stroke-width:0.62500006;stroke-linecap:round;stroke-linejoin:round;stroke-miterlimit:4;stroke-dasharray:none;stroke-opacity:1"
   d="m 224.50373,315.09928 c 12.29188,0 22.1875,9.89561 22.1875,22.18749 v 24.87312 c 0,12.29188 -9.89562,22.18749 -22.1875,22.18749 -12.29187,0 -22.18749,-9.89561 -22.18749,-22.18749 v -24.87312 c 0,-12.29188 9.89562,-22.18749 22.18749,-22.18749 z"
   id="rect5413"
   inkscape:connector-curvature="0" /><path
   style="display:inline;opacity:1;fill:none;fill-opacity:1;stroke:#ff0000;stroke-width:0.62500006;stroke-linecap:round;stroke-linejoin:round;stroke-miterlimit:4;stroke-dasharray:none;stroke-opacity:1"
   d="m 44.503739,384.34738 c 12.29187,0 22.1875,9.8956 22.1875,22.18748 v 24.87312 c 0,12.29189 -9.89563,22.18749 -22.1875,22.18749 -12.29188,0 -22.1875,-9.8956 -22.1875,-22.18749 v -24.87312 c 0,-12.29188 9.89562,-22.18748 22.1875,-22.18748 z"
   id="rect5421"
   inkscape:connector-curvature="0" /><path
   style="display:inline;opacity:1;fill:none;fill-opacity:1;stroke:#ff0000;stroke-width:0.62500006;stroke-linecap:round;stroke-linejoin:round;stroke-miterlimit:4;stroke-dasharray:none;stroke-opacity:1"
   d="m 89.503739,384.34738 c 12.291871,0 22.187501,9.8956 22.187501,22.18748 v 24.87312 c 0,12.29189 -9.89563,22.18749 -22.187501,22.18749 -12.29187,0 -22.1875,-9.8956 -22.1875,-22.18749 v -24.87312 c 0,-12.29188 9.89563,-22.18748 22.1875,-22.18748 z"
   id="rect5429"
   inkscape:connector-curvature="0" /><path
   style="display:inline;opacity:1;fill:none;fill-opacity:1;stroke:#ff0000;stroke-width:0.62500006;stroke-linecap:round;stroke-linejoin:round;stroke-miterlimit:4;stroke-dasharray:none;stroke-opacity:1"
   d="m 134.50375,384.34738 c 12.29187,0 22.18749,9.8956 22.18749,22.18748 v 24.87312 c 0,12.29189 -9.89562,22.18749 -22.18749,22.18749 -12.29189,0 -22.18751,-9.8956 -22.18751,-22.18749 v -24.87312 c 0,-12.29188 9.89562,-22.18748 22.18751,-22.18748 z"
   id="rect5437"
   inkscape:connector-curvature="0" /><path
   style="display:inline;opacity:1;fill:none;fill-opacity:1;stroke:#ff0000;stroke-width:0.62500006;stroke-linecap:round;stroke-linejoin:round;stroke-miterlimit:4;stroke-dasharray:none;stroke-opacity:1"
   d="m 179.50373,384.34738 c 12.29188,0 22.1875,9.8956 22.1875,22.18748 v 24.87312 c 0,12.29189 -9.89562,22.18749 -22.1875,22.18749 -12.29187,0 -22.1875,-9.8956 -22.1875,-22.18749 v -24.87312 c 0,-12.29188 9.89563,-22.18748 22.1875,-22.18748 z"
   id="rect5445"
   inkscape:connector-curvature="0" /><path
   style="display:inline;opacity:1;fill:none;fill-opacity:1;stroke:#ff0000;stroke-width:0.62500006;stroke-linecap:round;stroke-linejoin:round;stroke-miterlimit:4;stroke-dasharray:none;stroke-opacity:1"
   d="m 224.50373,384.34738 c 12.29188,0 22.1875,9.8956 22.1875,22.18748 v 24.87312 c 0,12.29189 -9.89562,22.18749 -22.1875,22.18749 -12.29187,0 -22.18749,-9.8956 -22.18749,-22.18749 v -24.87312 c 0,-12.29188 9.89562,-22.18748 22.18749,-22.18748 z"
   id="rect5453"
   inkscape:connector-curvature="0" /><path
   style="display:inline;opacity:1;fill:none;fill-opacity:1;stroke:#ff0000;stroke-width:0.62500006;stroke-linecap:round;stroke-linejoin:round;stroke-miterlimit:4;stroke-dasharray:none;stroke-opacity:1"
   d="M 155.78771,571.49093 99.850149,603.79255 43.912588,571.49093 v -64.60324 l 55.937561,-32.30159 55.937561,32.30159 z"
   id="path5457"
   inkscape:connector-curvature="0" /><path
   style="display:inline;opacity:1;fill:none;fill-opacity:1;stroke:#ff0000;stroke-width:0.62500006;stroke-linecap:round;stroke-linejoin:round;stroke-miterlimit:4;stroke-dasharray:none;stroke-opacity:1"
   d="m 411.92148,115.01912 v 31.72506 c 0,3.50405 -2.82094,6.32499 -6.32499,6.32499 h -56.59817 c -3.50403,0 -6.32496,-2.82094 -6.32496,-6.32499 v -31.72506 c 0,-3.50403 2.82093,-6.32497 6.32496,-6.32497 h 56.59817 c 3.50405,0 6.32499,2.82094 6.32499,6.32497 z"
   id="rect5701"
   inkscape:connector-curvature="0" /><path
   style="display:inline;opacity:1;fill:none;fill-opacity:1;stroke:#ff0000;stroke-width:0.62500006;stroke-linecap:round;stroke-linejoin:round;stroke-miterlimit:4;stroke-dasharray:none;stroke-opacity:1"
   d="m 481.79464,115.01912 v 31.72506 c 0,3.50405 -2.82093,6.32499 -6.32494,6.32499 h -56.59821 c -3.50401,0 -6.32493,-2.82094 -6.32493,-6.32499 v -31.72506 c 0,-3.50403 2.82092,-6.32497 6.32493,-6.32497 h 56.59821 c 3.50401,0 6.32494,2.82094 6.32494,6.32497 z"
   id="rect5713"
   inkscape:connector-curvature="0" /><path
   style="display:inline;opacity:1;fill:none;fill-opacity:1;stroke:#ff0000;stroke-width:0.62500012;stroke-linecap:round;stroke-linejoin:round;stroke-miterlimit:4;stroke-dasharray:none;stroke-opacity:1"
   d="m 611.23279,594.65849 -77.67328,44.84375 -77.67328,-44.84375 V 504.971 l 77.67328,-44.84372 77.67328,44.84372 z"
   id="path5106-0"
   inkscape:connector-curvature="0" /><path
   style="display:inline;opacity:1;fill:none;fill-opacity:1;stroke:#ff0000;stroke-width:0.62500006;stroke-linecap:round;stroke-linejoin:round;stroke-miterlimit:4;stroke-dasharray:none;stroke-opacity:1"
   d="m 589.497,582.11639 -55.93751,32.30163 -55.93752,-32.30163 V 517.5131 l 55.93752,-32.30163 55.93751,32.30163 z"
   id="path5567"
   inkscape:connector-curvature="0" /><path
   style="display:inline;opacity:1;fill:none;fill-opacity:1;stroke:#ff0000;stroke-width:0.62500012;stroke-linecap:round;stroke-linejoin:round;stroke-miterlimit:4;stroke-dasharray:none;stroke-opacity:1"
   d="m 451.84287,603.78434 -77.67328,44.84375 -77.67327,-44.84375 v -89.68749 l 77.67327,-44.84372 77.67328,44.84372 z"
   id="path25123"
   inkscape:connector-curvature="0" /><path
   style="display:inline;opacity:1;fill:none;fill-opacity:1;stroke:#ff0000;stroke-width:0.62500006;stroke-linecap:round;stroke-linejoin:round;stroke-miterlimit:4;stroke-dasharray:none;stroke-opacity:1"
   d="m 430.1071,591.24228 -55.9375,32.30165 -55.93751,-32.30165 v -64.6033 l 55.93751,-32.30162 55.9375,32.30162 z"
   id="path25127"
   inkscape:connector-curvature="0" /><path
   style="display:inline;opacity:1;fill:none;fill-opacity:1;fill-rule:nonzero;stroke:#ff0000;stroke-width:0.62500012;stroke-linecap:round;stroke-linejoin:round;stroke-miterlimit:4;stroke-dasharray:none;stroke-dashoffset:0;stroke-opacity:1"
   d="m 635.94471,-129.82052 a 33.4375,33.4375 0 0 1 -12.239,45.676478 33.4375,33.4375 0 0 1 -45.6765,-12.23898 33.4375,33.4375 0 0 1 12.239,-45.676498 33.4375,33.4375 0 0 1 45.6765,12.239 z"
   id="circle6114"
   inkscape:connector-curvature="0" /><path
   style="display:inline;opacity:1;fill:none;fill-opacity:1;fill-rule:nonzero;stroke:#ff0000;stroke-width:0.62500012;stroke-linecap:round;stroke-linejoin:round;stroke-miterlimit:4;stroke-dasharray:none;stroke-dashoffset:0;stroke-opacity:1"
   d="m 566.68381,-129.82059 a 33.4375,33.4375 0 0 1 -12.239,45.676458 33.4375,33.4375 0 0 1 -45.67642,-12.23896 33.4375,33.4375 0 0 1 12.23895,-45.676468 33.4375,33.4375 0 0 1 45.67647,12.23897 z"
   id="circle6116"
   inkscape:connector-curvature="0" /><path
   style="display:inline;opacity:1;fill:none;fill-opacity:1;fill-rule:nonzero;stroke:#ff0000;stroke-width:0.62500012;stroke-linecap:round;stroke-linejoin:round;stroke-miterlimit:4;stroke-dasharray:none;stroke-dashoffset:0;stroke-opacity:1"
   d="m 497.42307,-129.82055 a 33.4375,33.4375 0 0 1 -12.23898,45.676468 33.4375,33.4375 0 0 1 -45.67647,-12.23897 33.4375,33.4375 0 0 1 12.23897,-45.676478 33.4375,33.4375 0 0 1 45.67648,12.23898 z"
   id="circle6118"
   inkscape:connector-curvature="0" /><path
   style="display:inline;opacity:1;fill:none;fill-opacity:1;fill-rule:nonzero;stroke:#ff0000;stroke-width:0.62500012;stroke-linecap:round;stroke-linejoin:round;stroke-miterlimit:4;stroke-dasharray:none;stroke-dashoffset:0;stroke-opacity:1"
   d="m 428.16221,-129.82058 a 33.4375,33.4375 0 0 1 -12.23898,45.676468 33.4375,33.4375 0 0 1 -45.67647,-12.23897 33.4375,33.4375 0 0 1 12.23897,-45.676468 33.4375,33.4375 0 0 1 45.67648,12.23897 z"
   id="circle6120"
   inkscape:connector-curvature="0" /><path
   style="display:inline;opacity:1;fill:none;fill-opacity:1;fill-rule:nonzero;stroke:#ff0000;stroke-width:0.62500012;stroke-linecap:round;stroke-linejoin:round;stroke-miterlimit:4;stroke-dasharray:none;stroke-dashoffset:0;stroke-opacity:1"
   d="m 358.90141,-129.82057 a 33.4375,33.4375 0 0 1 -12.23898,45.676468 33.4375,33.4375 0 0 1 -45.67647,-12.23897 33.4375,33.4375 0 0 1 12.23897,-45.676478 33.4375,33.4375 0 0 1 45.67648,12.23898 z"
   id="circle6122"
   inkscape:connector-curvature="0" /><path
   style="display:inline;opacity:1;fill:none;fill-opacity:1;fill-rule:nonzero;stroke:#ff0000;stroke-width:0.62500012;stroke-linecap:round;stroke-linejoin:round;stroke-miterlimit:4;stroke-dasharray:none;stroke-dashoffset:0;stroke-opacity:1"
   d="m 289.64058,-129.82056 a 33.4375,33.4375 0 0 1 -12.23898,45.676478 33.4375,33.4375 0 0 1 -45.67648,-12.23897 33.4375,33.4375 0 0 1 12.23898,-45.676478 33.4375,33.4375 0 0 1 45.67648,12.23897 z"
   id="circle6124"
   inkscape:connector-curvature="0" /><path
   style="display:inline;opacity:1;fill:none;fill-opacity:1;fill-rule:nonzero;stroke:#ff0000;stroke-width:0.62500012;stroke-linecap:round;stroke-linejoin:round;stroke-miterlimit:4;stroke-dasharray:none;stroke-dashoffset:0;stroke-opacity:1"
   d="m 220.37973,-129.82056 a 33.4375,33.4375 0 0 1 -12.23898,45.676468 33.4375,33.4375 0 0 1 -45.67647,-12.23897 33.4375,33.4375 0 0 1 12.23898,-45.676478 33.4375,33.4375 0 0 1 45.67647,12.23898 z"
   id="circle6126"
   inkscape:connector-curvature="0" /><path
   style="display:inline;opacity:1;fill:none;fill-opacity:1;fill-rule:nonzero;stroke:#ff0000;stroke-width:0.62500012;stroke-linecap:round;stroke-linejoin:round;stroke-miterlimit:4;stroke-dasharray:none;stroke-dashoffset:0;stroke-opacity:1"
   d="m 151.11892,-129.82055 a 33.4375,33.4375 0 0 1 -12.23898,45.676468 33.4375,33.4375 0 0 1 -45.676471,-12.23897 33.4375,33.4375 0 0 1 12.238971,-45.676478 33.4375,33.4375 0 0 1 45.67648,12.23898 z"
   id="circle6128"
   inkscape:connector-curvature="0" /><path
   style="display:inline;opacity:1;fill:none;fill-opacity:1;fill-rule:nonzero;stroke:#ff0000;stroke-width:0.62500012;stroke-linecap:round;stroke-linejoin:round;stroke-miterlimit:4;stroke-dasharray:none;stroke-dashoffset:0;stroke-opacity:1"
   d="m 705.20551,-129.82059 a 33.4375,33.4375 0 0 1 -12.239,45.676498 33.4375,33.4375 0 0 1 -45.6765,-12.23898 33.4375,33.4375 0 0 1 12.239,-45.676498 33.4375,33.4375 0 0 1 45.6765,12.23898 z"
   id="circle6134"
   inkscape:connector-curvature="0" /><path
   style="display:inline;opacity:1;fill:none;fill-opacity:1;fill-rule:nonzero;stroke:#ff0000;stroke-width:0.62500012;stroke-linecap:round;stroke-linejoin:round;stroke-miterlimit:4;stroke-dasharray:none;stroke-dashoffset:0;stroke-opacity:1"
   d="m 115.68118,-68.284232 a 33.4375,33.4375 0 0 1 -12.23898,45.67647 33.4375,33.4375 0 0 1 -45.676471,-12.23897 33.4375,33.4375 0 0 1 12.23898,-45.67648 33.4375,33.4375 0 0 1 45.676471,12.23898 z"
   id="circle6136"
   inkscape:connector-curvature="0" /><path
   style="display:inline;opacity:1;fill:none;fill-opacity:1;fill-rule:nonzero;stroke:#ff0000;stroke-width:0.62500012;stroke-linecap:round;stroke-linejoin:round;stroke-miterlimit:4;stroke-dasharray:none;stroke-dashoffset:0;stroke-opacity:1"
   d="m 669.76771,-68.284372 a 33.4375,33.4375 0 0 1 -12.239,45.67646 33.4375,33.4375 0 0 1 -45.6764,-12.23897 33.4375,33.4375 0 0 1 12.2389,-45.67648 33.4375,33.4375 0 0 1 45.6765,12.23899 z"
   id="circle6170"
   inkscape:connector-curvature="0" /><path
   style="display:inline;opacity:1;fill:none;fill-opacity:1;fill-rule:nonzero;stroke:#ff0000;stroke-width:0.62500012;stroke-linecap:round;stroke-linejoin:round;stroke-miterlimit:4;stroke-dasharray:none;stroke-dashoffset:0;stroke-opacity:1"
   d="m 600.50701,-68.284122 a 33.4375,33.4375 0 0 1 -12.239,45.67647 33.4375,33.4375 0 0 1 -45.6765,-12.23897 33.4375,33.4375 0 0 1 12.239,-45.67648 33.4375,33.4375 0 0 1 45.6765,12.23898 z"
   id="circle6172"
   inkscape:connector-curvature="0" /><path
   style="display:inline;opacity:1;fill:none;fill-opacity:1;fill-rule:nonzero;stroke:#ff0000;stroke-width:0.62500012;stroke-linecap:round;stroke-linejoin:round;stroke-miterlimit:4;stroke-dasharray:none;stroke-dashoffset:0;stroke-opacity:1"
   d="m 531.24621,-68.284102 a 33.4375,33.4375 0 0 1 -12.23899,45.67646 33.4375,33.4375 0 0 1 -45.67646,-12.23896 33.4375,33.4375 0 0 1 12.23897,-45.67649 33.4375,33.4375 0 0 1 45.67648,12.23899 z"
   id="circle6174"
   inkscape:connector-curvature="0" /><path
   style="display:inline;opacity:1;fill:none;fill-opacity:1;fill-rule:nonzero;stroke:#ff0000;stroke-width:0.62500012;stroke-linecap:round;stroke-linejoin:round;stroke-miterlimit:4;stroke-dasharray:none;stroke-dashoffset:0;stroke-opacity:1"
   d="m 461.98537,-68.284092 a 33.4375,33.4375 0 0 1 -12.23896,45.67649 33.4375,33.4375 0 0 1 -45.67648,-12.23899 33.4375,33.4375 0 0 1 12.23896,-45.67647 33.4375,33.4375 0 0 1 45.67648,12.23897 z"
   id="circle6176"
   inkscape:connector-curvature="0" /><path
   style="display:inline;opacity:1;fill:none;fill-opacity:1;fill-rule:nonzero;stroke:#ff0000;stroke-width:0.62500012;stroke-linecap:round;stroke-linejoin:round;stroke-miterlimit:4;stroke-dasharray:none;stroke-dashoffset:0;stroke-opacity:1"
   d="m 392.72457,-68.284122 a 33.4375,33.4375 0 0 1 -12.23897,45.67648 33.4375,33.4375 0 0 1 -45.67648,-12.23898 33.4375,33.4375 0 0 1 12.23898,-45.67648 33.4375,33.4375 0 0 1 45.67647,12.23898 z"
   id="circle6178"
   inkscape:connector-curvature="0" /><path
   style="display:inline;opacity:1;fill:none;fill-opacity:1;fill-rule:nonzero;stroke:#ff0000;stroke-width:0.62500012;stroke-linecap:round;stroke-linejoin:round;stroke-miterlimit:4;stroke-dasharray:none;stroke-dashoffset:0;stroke-opacity:1"
   d="m 323.46376,-68.284112 a 33.4375,33.4375 0 0 1 -12.23898,45.67648 33.4375,33.4375 0 0 1 -45.67647,-12.23898 33.4375,33.4375 0 0 1 12.23897,-45.67647 33.4375,33.4375 0 0 1 45.67648,12.23897 z"
   id="circle6180"
   inkscape:connector-curvature="0" /><path
   style="display:inline;opacity:1;fill:none;fill-opacity:1;fill-rule:nonzero;stroke:#ff0000;stroke-width:0.62500012;stroke-linecap:round;stroke-linejoin:round;stroke-miterlimit:4;stroke-dasharray:none;stroke-dashoffset:0;stroke-opacity:1"
   d="m 254.20291,-68.284112 a 33.4375,33.4375 0 0 1 -12.23897,45.67647 33.4375,33.4375 0 0 1 -45.67648,-12.23897 33.4375,33.4375 0 0 1 12.23897,-45.67648 33.4375,33.4375 0 0 1 45.67648,12.23898 z"
   id="circle6182"
   inkscape:connector-curvature="0" /><path
   style="display:inline;opacity:1;fill:none;fill-opacity:1;fill-rule:nonzero;stroke:#ff0000;stroke-width:0.62500012;stroke-linecap:round;stroke-linejoin:round;stroke-miterlimit:4;stroke-dasharray:none;stroke-dashoffset:0;stroke-opacity:1"
   d="m 184.94201,-68.284212 a 33.4375,33.4375 0 0 1 -12.23897,45.67648 33.4375,33.4375 0 0 1 -45.67649,-12.23898 33.4375,33.4375 0 0 1 12.23898,-45.67647 33.4375,33.4375 0 0 1 45.67648,12.23897 z"
   id="circle6184"
   inkscape:connector-curvature="0" /><path
   style="display:inline;opacity:1;fill:none;fill-opacity:1;fill-rule:nonzero;stroke:#ff0000;stroke-width:0.62500012;stroke-linecap:round;stroke-linejoin:round;stroke-miterlimit:4;stroke-dasharray:none;stroke-dashoffset:0;stroke-opacity:1"
   d="m 81.858079,-6.6891916 a 33.4375,33.4375 0 0 1 -12.23897,45.6764796 33.4375,33.4375 0 0 1 -45.67647,-12.23897 33.4375,33.4375 0 0 1 12.23897,-45.67648 33.4375,33.4375 0 0 1 45.67647,12.2389704 z"
   id="circle6195"
   inkscape:connector-curvature="0" /><path
   style="display:inline;opacity:1;fill:none;fill-opacity:1;fill-rule:nonzero;stroke:#ff0000;stroke-width:0.62500012;stroke-linecap:round;stroke-linejoin:round;stroke-miterlimit:4;stroke-dasharray:none;stroke-dashoffset:0;stroke-opacity:1"
   d="m 635.94471,-6.6891416 a 33.4375,33.4375 0 0 1 -12.239,45.6764896 33.4375,33.4375 0 0 1 -45.6765,-12.239 33.4375,33.4375 0 0 1 12.239,-45.67644 33.4375,33.4375 0 0 1 45.6765,12.2389504 z"
   id="circle6255"
   inkscape:connector-curvature="0" /><path
   style="display:inline;opacity:1;fill:none;fill-opacity:1;fill-rule:nonzero;stroke:#ff0000;stroke-width:0.62500012;stroke-linecap:round;stroke-linejoin:round;stroke-miterlimit:4;stroke-dasharray:none;stroke-dashoffset:0;stroke-opacity:1"
   d="m 566.68381,-6.6891716 a 33.4375,33.4375 0 0 1 -12.2389,45.6764596 33.4375,33.4375 0 0 1 -45.67652,-12.23896 33.4375,33.4375 0 0 1 12.23897,-45.67649 33.4375,33.4375 0 0 1 45.67645,12.2389904 z"
   id="circle6257"
   inkscape:connector-curvature="0" /><path
   style="display:inline;opacity:1;fill:none;fill-opacity:1;fill-rule:nonzero;stroke:#ff0000;stroke-width:0.62500012;stroke-linecap:round;stroke-linejoin:round;stroke-miterlimit:4;stroke-dasharray:none;stroke-dashoffset:0;stroke-opacity:1"
   d="m 497.42304,-6.6892216 a 33.4375,33.4375 0 0 1 -12.23897,45.6764996 33.4375,33.4375 0 0 1 -45.67648,-12.239 33.4375,33.4375 0 0 1 12.23898,-45.67646 33.4375,33.4375 0 0 1 45.67647,12.2389604 z"
   id="circle6259"
   inkscape:connector-curvature="0" /><path
   style="display:inline;opacity:1;fill:none;fill-opacity:1;fill-rule:nonzero;stroke:#ff0000;stroke-width:0.62500012;stroke-linecap:round;stroke-linejoin:round;stroke-miterlimit:4;stroke-dasharray:none;stroke-dashoffset:0;stroke-opacity:1"
   d="m 428.1622,-6.6892116 a 33.4375,33.4375 0 0 1 -12.23898,45.6764696 33.4375,33.4375 0 0 1 -45.67646,-12.23896 33.4375,33.4375 0 0 1 12.23896,-45.67649 33.4375,33.4375 0 0 1 45.67648,12.2389804 z"
   id="circle6261"
   inkscape:connector-curvature="0" /><path
   style="display:inline;opacity:1;fill:none;fill-opacity:1;fill-rule:nonzero;stroke:#ff0000;stroke-width:0.62500012;stroke-linecap:round;stroke-linejoin:round;stroke-miterlimit:4;stroke-dasharray:none;stroke-dashoffset:0;stroke-opacity:1"
   d="m 358.9014,-6.6892116 a 33.4375,33.4375 0 0 1 -12.23899,45.6764596 33.4375,33.4375 0 0 1 -45.67646,-12.23895 33.4375,33.4375 0 0 1 12.23897,-45.67648 33.4375,33.4375 0 0 1 45.67648,12.2389704 z"
   id="circle6263"
   inkscape:connector-curvature="0" /><path
   style="display:inline;opacity:1;fill:none;fill-opacity:1;fill-rule:nonzero;stroke:#ff0000;stroke-width:0.62500012;stroke-linecap:round;stroke-linejoin:round;stroke-miterlimit:4;stroke-dasharray:none;stroke-dashoffset:0;stroke-opacity:1"
   d="m 289.64057,-6.6891916 a 33.4375,33.4375 0 0 1 -12.23897,45.6764796 33.4375,33.4375 0 0 1 -45.67649,-12.23898 33.4375,33.4375 0 0 1 12.23898,-45.67648 33.4375,33.4375 0 0 1 45.67648,12.2389804 z"
   id="circle6265"
   inkscape:connector-curvature="0" /><path
   style="display:inline;opacity:1;fill:none;fill-opacity:1;fill-rule:nonzero;stroke:#ff0000;stroke-width:0.62500012;stroke-linecap:round;stroke-linejoin:round;stroke-miterlimit:4;stroke-dasharray:none;stroke-dashoffset:0;stroke-opacity:1"
   d="m 220.37972,-6.6892016 a 33.4375,33.4375 0 0 1 -12.23898,45.6764796 33.4375,33.4375 0 0 1 -45.67647,-12.23897 33.4375,33.4375 0 0 1 12.23897,-45.67649 33.4375,33.4375 0 0 1 45.67648,12.2389804 z"
   id="circle6267"
   inkscape:connector-curvature="0" /><path
   style="display:inline;opacity:1;fill:none;fill-opacity:1;fill-rule:nonzero;stroke:#ff0000;stroke-width:0.62500012;stroke-linecap:round;stroke-linejoin:round;stroke-miterlimit:4;stroke-dasharray:none;stroke-dashoffset:0;stroke-opacity:1"
   d="M 151.11891,-6.6891916 A 33.4375,33.4375 0 0 1 138.87993,38.987288 33.4375,33.4375 0 0 1 93.203459,26.748318 33.4375,33.4375 0 0 1 105.44243,-18.928162 33.4375,33.4375 0 0 1 151.11891,-6.6891916 Z"
   id="circle6269"
   inkscape:connector-curvature="0" /><path
   style="display:inline;opacity:1;fill:none;fill-opacity:1;fill-rule:nonzero;stroke:#ff0000;stroke-width:0.62500012;stroke-linecap:round;stroke-linejoin:round;stroke-miterlimit:4;stroke-dasharray:none;stroke-dashoffset:0;stroke-opacity:1"
   d="m 705.20561,-6.6891916 a 33.4375,33.4375 0 0 1 -12.239,45.6764996 33.4375,33.4375 0 0 1 -45.6765,-12.23899 33.4375,33.4375 0 0 1 12.239,-45.67649 33.4375,33.4375 0 0 1 45.6765,12.2389804 z"
   id="circle6275"
   inkscape:connector-curvature="0" /><path
   style="display:inline;opacity:1;fill:none;fill-opacity:1;fill-rule:nonzero;stroke:#ff0000;stroke-width:0.62500012;stroke-linecap:round;stroke-linejoin:round;stroke-miterlimit:4;stroke-dasharray:none;stroke-dashoffset:0;stroke-opacity:1"
   d="M 115.68118,54.847138 A 33.4375,33.4375 0 0 1 103.4422,100.52362 33.4375,33.4375 0 0 1 57.765729,88.284638 a 33.4375,33.4375 0 0 1 12.23897,-45.67648 33.4375,33.4375 0 0 1 45.676481,12.23898 z"
   id="circle6277"
   inkscape:connector-curvature="0" /><path
   style="display:inline;opacity:1;fill:none;fill-opacity:1;fill-rule:nonzero;stroke:#ff0000;stroke-width:0.62500012;stroke-linecap:round;stroke-linejoin:round;stroke-miterlimit:4;stroke-dasharray:none;stroke-dashoffset:0;stroke-opacity:1"
   d="m 669.76771,54.846998 a 33.4375,33.4375 0 0 1 -12.2389,45.676472 33.4375,33.4375 0 0 1 -45.6765,-12.238972 33.4375,33.4375 0 0 1 12.239,-45.67649 33.4375,33.4375 0 0 1 45.6764,12.23899 z"
   id="circle6283"
   inkscape:connector-curvature="0" /><path
   style="display:inline;opacity:1;fill:none;fill-opacity:1;fill-rule:nonzero;stroke:#ff0000;stroke-width:0.62500012;stroke-linecap:round;stroke-linejoin:round;stroke-miterlimit:4;stroke-dasharray:none;stroke-dashoffset:0;stroke-opacity:1"
   d="m 600.50701,54.847298 a 33.4375,33.4375 0 0 1 -12.239,45.676462 33.4375,33.4375 0 0 1 -45.6765,-12.238962 33.4375,33.4375 0 0 1 12.239,-45.67649 33.4375,33.4375 0 0 1 45.6765,12.23899 z"
   id="circle6285"
   inkscape:connector-curvature="0" /><path
   style="display:inline;opacity:1;fill:none;fill-opacity:1;fill-rule:nonzero;stroke:#ff0000;stroke-width:0.62500012;stroke-linecap:round;stroke-linejoin:round;stroke-miterlimit:4;stroke-dasharray:none;stroke-dashoffset:0;stroke-opacity:1"
   d="m 531.2462,54.847278 a 33.4375,33.4375 0 0 1 -12.23896,45.676502 33.4375,33.4375 0 0 1 -45.67648,-12.238992 33.4375,33.4375 0 0 1 12.23897,-45.6765 33.4375,33.4375 0 0 1 45.67647,12.23899 z"
   id="circle6287"
   inkscape:connector-curvature="0" /><path
   style="display:inline;opacity:1;fill:none;fill-opacity:1;fill-rule:nonzero;stroke:#ff0000;stroke-width:0.62500012;stroke-linecap:round;stroke-linejoin:round;stroke-miterlimit:4;stroke-dasharray:none;stroke-dashoffset:0;stroke-opacity:1"
   d="m 461.98537,54.847298 a 33.4375,33.4375 0 0 1 -12.23896,45.676482 33.4375,33.4375 0 0 1 -45.67648,-12.238982 33.4375,33.4375 0 0 1 12.23897,-45.67646 33.4375,33.4375 0 0 1 45.67647,12.23896 z"
   id="circle6289"
   inkscape:connector-curvature="0" /><path
   style="display:inline;opacity:1;fill:none;fill-opacity:1;fill-rule:nonzero;stroke:#ff0000;stroke-width:0.62500012;stroke-linecap:round;stroke-linejoin:round;stroke-miterlimit:4;stroke-dasharray:none;stroke-dashoffset:0;stroke-opacity:1"
   d="m 392.72457,54.847258 a 33.4375,33.4375 0 0 1 -12.23899,45.676452 33.4375,33.4375 0 0 1 -45.67646,-12.238962 33.4375,33.4375 0 0 1 12.23896,-45.67648 33.4375,33.4375 0 0 1 45.67649,12.23899 z"
   id="circle6291"
   inkscape:connector-curvature="0" /><path
   style="display:inline;opacity:1;fill:none;fill-opacity:1;fill-rule:nonzero;stroke:#ff0000;stroke-width:0.62500012;stroke-linecap:round;stroke-linejoin:round;stroke-miterlimit:4;stroke-dasharray:none;stroke-dashoffset:0;stroke-opacity:1"
   d="m 323.46373,54.847228 a 33.4375,33.4375 0 0 1 -12.23897,45.676492 33.4375,33.4375 0 0 1 -45.67648,-12.238992 33.4375,33.4375 0 0 1 12.23899,-45.67646 33.4375,33.4375 0 0 1 45.67646,12.23896 z"
   id="circle6293"
   inkscape:connector-curvature="0" /><path
   style="display:inline;opacity:1;fill:none;fill-opacity:1;fill-rule:nonzero;stroke:#ff0000;stroke-width:0.62500012;stroke-linecap:round;stroke-linejoin:round;stroke-miterlimit:4;stroke-dasharray:none;stroke-dashoffset:0;stroke-opacity:1"
   d="M 254.2029,54.847238 A 33.4375,33.4375 0 0 1 241.96391,100.5237 33.4375,33.4375 0 0 1 196.28744,88.284738 33.4375,33.4375 0 0 1 208.52641,42.608248 33.4375,33.4375 0 0 1 254.2029,54.847238 Z"
   id="circle6295"
   inkscape:connector-curvature="0" /><path
   style="display:inline;opacity:1;fill:none;fill-opacity:1;fill-rule:nonzero;stroke:#ff0000;stroke-width:0.62500012;stroke-linecap:round;stroke-linejoin:round;stroke-miterlimit:4;stroke-dasharray:none;stroke-dashoffset:0;stroke-opacity:1"
   d="M 184.942,54.847158 A 33.4375,33.4375 0 0 1 172.70302,100.52363 33.4375,33.4375 0 0 1 127.02655,88.284658 33.4375,33.4375 0 0 1 139.26552,42.608178 33.4375,33.4375 0 0 1 184.942,54.847158 Z"
   id="circle6297"
   inkscape:connector-curvature="0" /><path
   style="display:inline;opacity:1;fill:none;fill-opacity:1;fill-rule:nonzero;stroke:#ff0000;stroke-width:0.62500012;stroke-linecap:round;stroke-linejoin:round;stroke-miterlimit:4;stroke-dasharray:none;stroke-dashoffset:0;stroke-opacity:1"
   d="m 636.95531,117.12378 a 33.4375,33.4375 0 0 1 -12.239,45.67645 33.4375,33.4375 0 0 1 -45.6765,-12.23895 33.4375,33.4375 0 0 1 12.239,-45.67649 33.4375,33.4375 0 0 1 45.6765,12.23899 z"
   id="circle6330"
   inkscape:connector-curvature="0" /><path
   style="display:inline;opacity:1;fill:none;fill-opacity:1;fill-rule:nonzero;stroke:#ff0000;stroke-width:0.62500012;stroke-linecap:round;stroke-linejoin:round;stroke-miterlimit:4;stroke-dasharray:none;stroke-dashoffset:0;stroke-opacity:1"
   d="m 706.21611,117.12372 a 33.4375,33.4375 0 0 1 -12.239,45.67649 33.4375,33.4375 0 0 1 -45.6765,-12.239 33.4375,33.4375 0 0 1 12.239,-45.67644 33.4375,33.4375 0 0 1 45.6765,12.23895 z"
   id="circle6334"
   inkscape:connector-curvature="0" /><path
   style="display:inline;opacity:1;fill:none;fill-opacity:1;stroke:#ff0000;stroke-width:0.62500006;stroke-linecap:round;stroke-linejoin:round;stroke-miterlimit:4;stroke-dasharray:none;stroke-opacity:1"
   d="m 269.50374,107.35487 c 12.29187,0 22.18749,9.89563 22.18749,22.1875 v 24.87311 c 0,12.29188 -9.89562,22.18752 -22.18749,22.18752 -12.29188,0 -22.1875,-9.89564 -22.1875,-22.18752 v -24.87311 c 0,-12.29187 9.89562,-22.1875 22.1875,-22.1875 z"
   id="rect6352"
   inkscape:connector-curvature="0" /><path
   style="display:inline;opacity:1;fill:none;fill-opacity:1;stroke:#ff0000;stroke-width:0.62500006;stroke-linecap:round;stroke-linejoin:round;stroke-miterlimit:4;stroke-dasharray:none;stroke-opacity:1"
   d="m 314.50372,107.35487 c 12.29188,0 22.18751,9.89563 22.18751,22.1875 v 24.87311 c 0,12.29188 -9.89563,22.18752 -22.18751,22.18752 -12.29187,0 -22.18749,-9.89564 -22.18749,-22.18752 v -24.87311 c 0,-12.29187 9.89562,-22.1875 22.18749,-22.1875 z"
   id="rect6356"
   inkscape:connector-curvature="0" /><path
   style="display:inline;opacity:1;fill:none;fill-opacity:1;stroke:#ff0000;stroke-width:0.62500006;stroke-linecap:round;stroke-linejoin:round;stroke-miterlimit:4;stroke-dasharray:none;stroke-opacity:1"
   d="m 269.50374,176.60296 c 12.29187,0 22.18749,9.89564 22.18749,22.18752 v 24.8731 c 0,12.29187 -9.89562,22.18751 -22.18749,22.18751 -12.29188,0 -22.1875,-9.89564 -22.1875,-22.18751 v -24.8731 c 0,-12.29188 9.89562,-22.18752 22.1875,-22.18752 z"
   id="rect6372"
   inkscape:connector-curvature="0" /><path
   style="display:inline;opacity:1;fill:none;fill-opacity:1;stroke:#ff0000;stroke-width:0.62500006;stroke-linecap:round;stroke-linejoin:round;stroke-miterlimit:4;stroke-dasharray:none;stroke-opacity:1"
   d="m 314.50372,176.60296 c 12.29188,0 22.18751,9.89564 22.18751,22.18752 v 24.8731 c 0,12.29187 -9.89563,22.18751 -22.18751,22.18751 -12.29187,0 -22.18749,-9.89564 -22.18749,-22.18751 v -24.8731 c 0,-12.29188 9.89562,-22.18752 22.18749,-22.18752 z"
   id="rect6376"
   inkscape:connector-curvature="0" /><path
   style="display:inline;opacity:1;fill:none;fill-opacity:1;stroke:#ff0000;stroke-width:0.62500006;stroke-linecap:round;stroke-linejoin:round;stroke-miterlimit:4;stroke-dasharray:none;stroke-opacity:1"
   d="m 269.50374,245.85119 c 12.29187,0 22.18749,9.89561 22.18749,22.18749 v 24.87313 c 0,12.29187 -9.89562,22.18747 -22.18749,22.18747 -12.29188,0 -22.1875,-9.8956 -22.1875,-22.18747 v -24.87313 c 0,-12.29188 9.89562,-22.18749 22.1875,-22.18749 z"
   id="rect6392"
   inkscape:connector-curvature="0" /><path
   style="display:inline;opacity:1;fill:none;fill-opacity:1;stroke:#ff0000;stroke-width:0.62500006;stroke-linecap:round;stroke-linejoin:round;stroke-miterlimit:4;stroke-dasharray:none;stroke-opacity:1"
   d="m 314.50372,245.85119 c 12.29188,0 22.18751,9.89561 22.18751,22.18749 v 24.87313 c 0,12.29187 -9.89563,22.18747 -22.18751,22.18747 -12.29187,0 -22.18749,-9.8956 -22.18749,-22.18747 v -24.87313 c 0,-12.29188 9.89562,-22.18749 22.18749,-22.18749 z"
   id="rect6396"
   inkscape:connector-curvature="0" /><path
   style="display:inline;opacity:1;fill:none;fill-opacity:1;stroke:#ff0000;stroke-width:0.62500006;stroke-linecap:round;stroke-linejoin:round;stroke-miterlimit:4;stroke-dasharray:none;stroke-opacity:1"
   d="m 269.50374,315.09928 c 12.29187,0 22.18749,9.89561 22.18749,22.18749 v 24.87312 c 0,12.29188 -9.89562,22.18749 -22.18749,22.18749 -12.29188,0 -22.1875,-9.89561 -22.1875,-22.18749 v -24.87312 c 0,-12.29188 9.89562,-22.18749 22.1875,-22.18749 z"
   id="rect6412"
   inkscape:connector-curvature="0" /><path
   style="display:inline;opacity:1;fill:none;fill-opacity:1;stroke:#ff0000;stroke-width:0.62500006;stroke-linecap:round;stroke-linejoin:round;stroke-miterlimit:4;stroke-dasharray:none;stroke-opacity:1"
   d="m 314.50372,315.09928 c 12.29188,0 22.18751,9.89561 22.18751,22.18749 v 24.87312 c 0,12.29188 -9.89563,22.18749 -22.18751,22.18749 -12.29187,0 -22.18749,-9.89561 -22.18749,-22.18749 v -24.87312 c 0,-12.29188 9.89562,-22.18749 22.18749,-22.18749 z"
   id="rect6416"
   inkscape:connector-curvature="0" /><path
   style="display:inline;opacity:1;fill:none;fill-opacity:1;stroke:#ff0000;stroke-width:0.62500006;stroke-linecap:round;stroke-linejoin:round;stroke-miterlimit:4;stroke-dasharray:none;stroke-opacity:1"
   d="m 269.50374,384.34738 c 12.29187,0 22.18749,9.8956 22.18749,22.18748 v 24.87312 c 0,12.29189 -9.89562,22.18749 -22.18749,22.18749 -12.29188,0 -22.1875,-9.8956 -22.1875,-22.18749 v -24.87312 c 0,-12.29188 9.89562,-22.18748 22.1875,-22.18748 z"
   id="rect6432"
   inkscape:connector-curvature="0" /><path
   style="display:inline;opacity:1;fill:none;fill-opacity:1;stroke:#ff0000;stroke-width:0.62500006;stroke-linecap:round;stroke-linejoin:round;stroke-miterlimit:4;stroke-dasharray:none;stroke-opacity:1"
   d="m 314.50372,384.34738 c 12.29188,0 22.18751,9.8956 22.18751,22.18748 v 24.87312 c 0,12.29189 -9.89563,22.18749 -22.18751,22.18749 -12.29187,0 -22.18749,-9.8956 -22.18749,-22.18749 v -24.87312 c 0,-12.29188 9.89562,-22.18748 22.18749,-22.18748 z"
   id="rect6436"
   inkscape:connector-curvature="0" /><path
   inkscape:connector-curvature="0"
   style="display:inline;opacity:1;fill:none;fill-opacity:1;fill-rule:nonzero;stroke:#ff0000;stroke-width:0.62500012;stroke-linecap:round;stroke-linejoin:round;stroke-miterlimit:4;stroke-dasharray:none;stroke-dashoffset:0;stroke-opacity:1"
   d="m 674.46679,202.40814 -15.8478,9.14978 5.1746,8.963 h -45.0605 v 123.26659 h 44.7199 l -4.834,-8.37521 15.8478,-9.14984 0.036,0.0659 0.037,-0.0659 15.8478,9.14984 -4.834,8.37521 h 44.7199 V 220.52092 h -45.0601 l 5.1745,-8.963 -15.8478,-9.14978 -0.036,0.0659 z"
   id="path6452" /><path
   id="path6464"
   d="m 674.46679,325.67473 -15.8478,9.14978 5.1746,8.963 h -45.0605 v 123.2666 h 44.7199 l -4.834,-8.37522 15.8478,-9.14984 0.036,0.0659 0.037,-0.0659 15.8478,9.14984 -4.834,8.37522 h 44.7199 v -123.2666 h -45.0601 l 5.1745,-8.963 -15.8478,-9.14978 -0.036,0.0659 z"
   style="display:inline;opacity:1;fill:none;fill-opacity:1;fill-rule:nonzero;stroke:#ff0000;stroke-width:0.62500012;stroke-linecap:round;stroke-linejoin:round;stroke-miterlimit:4;stroke-dasharray:none;stroke-dashoffset:0;stroke-opacity:1"
   inkscape:connector-curvature="0" /><path
   inkscape:connector-curvature="0"
   style="display:inline;opacity:1;fill:none;fill-opacity:1;fill-rule:nonzero;stroke:#ff0000;stroke-width:0.62500012;stroke-linecap:round;stroke-linejoin:round;stroke-miterlimit:4;stroke-dasharray:none;stroke-dashoffset:0;stroke-opacity:1"
   d="m 674.46649,449.52912 -15.8478,9.14977 5.1746,8.96301 h -45.0605 v 123.26659 h 44.7199 l -4.834,-8.37521 15.8478,-9.14984 0.036,0.0659 0.036,-0.0659 15.8478,9.14984 -4.8341,8.37521 h 44.72 V 467.6419 h -45.0602 l 5.1746,-8.96301 -15.8478,-9.14977 -0.037,0.0659 z"
   id="path6470" /><path
   id="path6476"
   d="m 674.80669,572.79571 -15.8478,9.14977 5.1746,8.96301 h -45.0605 v 123.26659 h 44.7199 l -4.834,-8.37521 15.8478,-9.14984 0.037,0.0659 0.036,-0.0659 15.8478,9.14984 -4.8341,8.37521 h 44.72 V 590.90849 h -45.0602 l 5.1746,-8.96301 -15.8478,-9.14977 -0.036,0.0659 z"
   style="display:inline;opacity:1;fill:none;fill-opacity:1;fill-rule:nonzero;stroke:#ff0000;stroke-width:0.62500012;stroke-linecap:round;stroke-linejoin:round;stroke-miterlimit:4;stroke-dasharray:none;stroke-dashoffset:0;stroke-opacity:1"
   inkscape:connector-curvature="0" /><path
   style="display:inline;opacity:1;fill:none;fill-opacity:1;stroke:#ff0000;stroke-width:0.62500006;stroke-linecap:round;stroke-linejoin:round;stroke-miterlimit:4;stroke-dasharray:none;stroke-opacity:1"
   d="m 411.92134,160.01912 v 31.72506 c 0,3.50401 -2.82094,6.32495 -6.32499,6.32495 h -56.59817 c -3.50403,0 -6.32496,-2.82094 -6.32496,-6.32495 v -31.72506 c 0,-3.50405 2.82093,-6.32499 6.32496,-6.32499 h 56.59817 c 3.50405,0 6.32499,2.82094 6.32499,6.32499 z"
   id="rect6538"
   inkscape:connector-curvature="0" /><path
   style="display:inline;opacity:1;fill:none;fill-opacity:1;stroke:#ff0000;stroke-width:0.62500006;stroke-linecap:round;stroke-linejoin:round;stroke-miterlimit:4;stroke-dasharray:none;stroke-opacity:1"
   d="m 481.79461,160.01912 v 31.72506 c 0,3.50401 -2.82094,6.32495 -6.32498,6.32495 h -56.59816 c -3.50406,0 -6.32499,-2.82094 -6.32499,-6.32495 v -31.72506 c 0,-3.50405 2.82093,-6.32499 6.32499,-6.32499 h 56.59816 c 3.50404,0 6.32498,2.82094 6.32498,6.32499 z"
   id="rect6542"
   inkscape:connector-curvature="0" /><path
   style="display:inline;opacity:1;fill:none;fill-opacity:1;stroke:#ff0000;stroke-width:0.62500006;stroke-linecap:round;stroke-linejoin:round;stroke-miterlimit:4;stroke-dasharray:none;stroke-opacity:1"
   d="m 411.92134,204.39414 v 31.72508 c 0,3.50401 -2.82094,6.32495 -6.32499,6.32495 h -56.59817 c -3.50403,0 -6.32496,-2.82094 -6.32496,-6.32495 v -31.72508 c 0,-3.50404 2.82093,-6.32497 6.32496,-6.32497 h 56.59817 c 3.50405,0 6.32499,2.82093 6.32499,6.32497 z"
   id="rect6546"
   inkscape:connector-curvature="0" /><path
   style="display:inline;opacity:1;fill:none;fill-opacity:1;stroke:#ff0000;stroke-width:0.62500006;stroke-linecap:round;stroke-linejoin:round;stroke-miterlimit:4;stroke-dasharray:none;stroke-opacity:1"
   d="m 481.79461,204.39414 v 31.72508 c 0,3.50401 -2.82094,6.32495 -6.32498,6.32495 h -56.59816 c -3.50406,0 -6.32499,-2.82094 -6.32499,-6.32495 v -31.72508 c 0,-3.50404 2.82093,-6.32497 6.32499,-6.32497 h 56.59816 c 3.50404,0 6.32498,2.82093 6.32498,6.32497 z"
   id="rect6550"
   inkscape:connector-curvature="0" /><path
   style="display:inline;opacity:1;fill:none;fill-opacity:1;stroke:#ff0000;stroke-width:0.62500006;stroke-linecap:round;stroke-linejoin:round;stroke-miterlimit:4;stroke-dasharray:none;stroke-opacity:1"
   d="m 412.54648,248.76914 v 31.72508 c 0,3.50405 -2.82094,6.32497 -6.32498,6.32497 h -56.59817 c -3.50403,0 -6.32497,-2.82092 -6.32497,-6.32497 v -31.72508 c 0,-3.50401 2.82094,-6.32494 6.32497,-6.32494 h 56.59817 c 3.50404,0 6.32498,2.82093 6.32498,6.32494 z"
   id="rect6554"
   inkscape:connector-curvature="0" /><path
   style="display:inline;opacity:1;fill:none;fill-opacity:1;stroke:#ff0000;stroke-width:0.62500006;stroke-linecap:round;stroke-linejoin:round;stroke-miterlimit:4;stroke-dasharray:none;stroke-opacity:1"
   d="m 482.41976,248.76914 v 31.72508 c 0,3.50405 -2.82094,6.32497 -6.32495,6.32497 h -56.5982 c -3.50402,0 -6.32495,-2.82092 -6.32495,-6.32497 v -31.72508 c 0,-3.50401 2.82093,-6.32494 6.32495,-6.32494 h 56.5982 c 3.50401,0 6.32495,2.82093 6.32495,6.32494 z"
   id="rect6558"
   inkscape:connector-curvature="0" /><path
   style="display:inline;opacity:1;fill:none;fill-opacity:1;stroke:#ff0000;stroke-width:0.62500006;stroke-linecap:round;stroke-linejoin:round;stroke-miterlimit:4;stroke-dasharray:none;stroke-opacity:1"
   d="m 413.17166,293.14414 v 31.72507 c 0,3.50402 -2.82093,6.32494 -6.32494,6.32494 h -56.59819 c -3.50403,0 -6.32497,-2.82092 -6.32497,-6.32494 v -31.72507 c 0,-3.50405 2.82094,-6.32498 6.32497,-6.32498 h 56.59819 c 3.50401,0 6.32494,2.82093 6.32494,6.32498 z"
   id="rect6562"
   inkscape:connector-curvature="0" /><path
   style="display:inline;opacity:1;fill:none;fill-opacity:1;stroke:#ff0000;stroke-width:0.62500006;stroke-linecap:round;stroke-linejoin:round;stroke-miterlimit:4;stroke-dasharray:none;stroke-opacity:1"
   d="m 483.04494,293.14414 v 31.72507 c 0,3.50402 -2.82094,6.32494 -6.32495,6.32494 h -56.5982 c -3.50402,0 -6.32495,-2.82092 -6.32495,-6.32494 v -31.72507 c 0,-3.50405 2.82093,-6.32498 6.32495,-6.32498 h 56.5982 c 3.50401,0 6.32495,2.82093 6.32495,6.32498 z"
   id="rect6566"
   inkscape:connector-curvature="0" /><path
   style="display:inline;opacity:1;fill:none;fill-opacity:1;stroke:#ff0000;stroke-width:0.62500006;stroke-linecap:round;stroke-linejoin:round;stroke-miterlimit:4;stroke-dasharray:none;stroke-opacity:1"
   d="m 413.79681,337.5191 v 31.72508 c 0,3.50404 -2.82093,6.32497 -6.32495,6.32497 h -56.59819 c -3.50403,0 -6.32496,-2.82093 -6.32496,-6.32497 V 337.5191 c 0,-3.50401 2.82093,-6.32495 6.32496,-6.32495 h 56.59819 c 3.50402,0 6.32495,2.82094 6.32495,6.32495 z"
   id="rect6570"
   inkscape:connector-curvature="0" /><path
   style="display:inline;opacity:1;fill:none;fill-opacity:1;stroke:#ff0000;stroke-width:0.62500006;stroke-linecap:round;stroke-linejoin:round;stroke-miterlimit:4;stroke-dasharray:none;stroke-opacity:1"
   d="m 483.67012,337.5191 v 31.72508 c 0,3.50404 -2.82094,6.32497 -6.32499,6.32497 h -56.59816 c -3.50404,0 -6.32498,-2.82093 -6.32498,-6.32497 V 337.5191 c 0,-3.50401 2.82094,-6.32495 6.32498,-6.32495 h 56.59816 c 3.50405,0 6.32499,2.82094 6.32499,6.32495 z"
   id="rect6574"
   inkscape:connector-curvature="0" /><path
   style="display:inline;opacity:1;fill:none;fill-opacity:1;stroke:#ff0000;stroke-width:0.62500006;stroke-linecap:round;stroke-linejoin:round;stroke-miterlimit:4;stroke-dasharray:none;stroke-opacity:1"
   d="m 413.79681,381.8941 v 31.72507 c 0,3.50401 -2.82093,6.32494 -6.32495,6.32494 h -56.59819 c -3.50403,0 -6.32496,-2.82093 -6.32496,-6.32494 V 381.8941 c 0,-3.50405 2.82093,-6.32499 6.32496,-6.32499 h 56.59819 c 3.50402,0 6.32495,2.82094 6.32495,6.32499 z"
   id="rect6578"
   inkscape:connector-curvature="0" /><path
   style="display:inline;opacity:1;fill:none;fill-opacity:1;stroke:#ff0000;stroke-width:0.62500006;stroke-linecap:round;stroke-linejoin:round;stroke-miterlimit:4;stroke-dasharray:none;stroke-opacity:1"
   d="m 483.67012,381.8941 v 31.72507 c 0,3.50401 -2.82094,6.32494 -6.32499,6.32494 h -56.59816 c -3.50404,0 -6.32498,-2.82093 -6.32498,-6.32494 V 381.8941 c 0,-3.50405 2.82094,-6.32499 6.32498,-6.32499 h 56.59816 c 3.50405,0 6.32499,2.82094 6.32499,6.32499 z"
   id="rect6582"
   inkscape:connector-curvature="0" /><path
   style="display:inline;opacity:1;fill:none;fill-opacity:1;stroke:#ff0000;stroke-width:0.62500006;stroke-linecap:round;stroke-linejoin:round;stroke-miterlimit:4;stroke-dasharray:none;stroke-opacity:1"
   d="m 413.17166,426.26906 v 31.72507 c 0,3.50404 -2.82093,6.32498 -6.32494,6.32498 h -56.59819 c -3.50403,0 -6.32497,-2.82094 -6.32497,-6.32498 v -31.72507 c 0,-3.50401 2.82094,-6.32495 6.32497,-6.32495 h 56.59819 c 3.50401,0 6.32494,2.82094 6.32494,6.32495 z"
   id="rect6586"
   inkscape:connector-curvature="0" /><path
   style="display:inline;opacity:1;fill:none;fill-opacity:1;stroke:#ff0000;stroke-width:0.62500006;stroke-linecap:round;stroke-linejoin:round;stroke-miterlimit:4;stroke-dasharray:none;stroke-opacity:1"
   d="m 483.04494,426.26906 v 31.72507 c 0,3.50404 -2.82094,6.32498 -6.32495,6.32498 h -56.5982 c -3.50402,0 -6.32495,-2.82094 -6.32495,-6.32498 v -31.72507 c 0,-3.50401 2.82093,-6.32495 6.32495,-6.32495 h 56.5982 c 3.50401,0 6.32495,2.82094 6.32495,6.32495 z"
   id="rect6590"
   inkscape:connector-curvature="0" /><path
   style="display:inline;fill:none;fill-rule:evenodd;stroke:#ff0000;stroke-width:0.54564863;stroke-linecap:butt;stroke-linejoin:miter;stroke-miterlimit:4;stroke-dasharray:none;stroke-opacity:1"
   d="m 24.113369,-146.58308 c -1.74341,0 -3.48726,0 -5.23158,0 m 0.26447,-0.27284 c 0,1.47841 0,2.9572 0,4.43638"
   id="path6628"
   inkscape:connector-curvature="0" /></g></svg>