<?xml version="1.0" encoding="UTF-8" standalone="no"?>
<!-- Created with Inkscape (http://www.inkscape.org/) -->

<svg
   xmlns:dc="http://purl.org/dc/elements/1.1/"
   xmlns:cc="http://creativecommons.org/ns#"
   xmlns:rdf="http://www.w3.org/1999/02/22-rdf-syntax-ns#"
   xmlns:svg="http://www.w3.org/2000/svg"
   xmlns="http://www.w3.org/2000/svg"
   xmlns:sodipodi="http://sodipodi.sourceforge.net/DTD/sodipodi-0.dtd"
   xmlns:inkscape="http://www.inkscape.org/namespaces/inkscape"
   width="11in"
   height="9in"
   viewBox="0 0 279.4 228.60001"
   version="1.1"
   id="svg8"
   inkscape:version="0.92.1 r15371"
   sodipodi:docname="chits better paintings.svg">
  <defs
     id="defs2">
    <inkscape:path-effect
       effect="transform_2pts"
       start="-180.18158,207.86089"
       end="-148.60793,207.86089"
       id="path-effect5188"
       is_visible="true"
       first_knot="1"
       last_knot="2"
       helper_size="3"
       strech="1"
       offset="0"
       elastic="false"
       from_original_width="true"
       flip_vertical="false"
       flip_horizontal="false"
       lock_lenght="false"
       lock_angle="false" />
    <inkscape:path-effect
       effect="mirror_symmetry"
       start_point="-148.60793,170.58547"
       end_point="-148.60793,245.13631"
       center_point="-148.60793,207.86089"
       id="path-effect5186"
       is_visible="true"
       mode="free"
       discard_orig_path="false"
       fuse_paths="false"
       oposite_fuse="false" />
    <inkscape:perspective
       sodipodi:type="inkscape:persp3d"
       inkscape:vp_x="0 : 114.3 : 1"
       inkscape:vp_y="0 : 1000 : 0"
       inkscape:vp_z="279.4 : 114.3 : 1"
       inkscape:persp3d-origin="139.7 : 76.200003 : 1"
       id="perspective5070" />
    <marker
       inkscape:stockid="Arrow1Lend"
       orient="auto"
       refY="0.0"
       refX="0.0"
       id="marker4976"
       style="overflow:visible;"
       inkscape:isstock="true">
      <path
         id="path4978"
         d="M 0.0,0.0 L 5.0,-5.0 L -12.5,0.0 L 5.0,5.0 L 0.0,0.0 z "
         style="fill-rule:evenodd;stroke:#000000;stroke-width:1pt;stroke-opacity:1;fill:#000000;fill-opacity:1"
         transform="scale(0.8) rotate(180) translate(12.5,0)" />
    </marker>
    <pattern
       id="EMFhbasepattern"
       patternUnits="userSpaceOnUse"
       width="6"
       height="6"
       x="0"
       y="0" />
  </defs>
  <sodipodi:namedview
     id="base"
     pagecolor="#ffffff"
     bordercolor="#666666"
     borderopacity="1.0"
     inkscape:pageopacity="0.0"
     inkscape:pageshadow="2"
     inkscape:zoom="0.74519625"
     inkscape:cx="625.80924"
     inkscape:cy="606.78623"
     inkscape:document-units="in"
     inkscape:current-layer="layer1"
     showgrid="false"
     units="in"
     inkscape:window-width="1600"
     inkscape:window-height="837"
     inkscape:window-x="-8"
     inkscape:window-y="-8"
     inkscape:window-maximized="1"
     showguides="false"
     inkscape:guide-bbox="true"
     inkscape:snap-intersection-paths="false"
     inkscape:snap-object-midpoints="true"
     inkscape:snap-others="true"
     inkscape:object-nodes="true"
     inkscape:snap-global="false"
     inkscape:object-paths="true"
     inkscape:snap-nodes="true"
     inkscape:snap-bbox="true"
     inkscape:bbox-paths="true"
     inkscape:bbox-nodes="true"
     inkscape:snap-smooth-nodes="false"
     inkscape:measure-start="0,0"
     inkscape:measure-end="0,0">
    <sodipodi:guide
       position="3.9687501,225.41555"
       orientation="0,1"
       id="guide4873"
       inkscape:locked="false" />
    <sodipodi:guide
       position="3.1002651,225.40662"
       orientation="1,0"
       id="guide4875"
       inkscape:locked="false"
       inkscape:label=""
       inkscape:color="rgb(0,0,255)" />
    <sodipodi:guide
       position="276.26286,225.40661"
       orientation="1,0"
       id="guide4877"
       inkscape:locked="false" />
    <sodipodi:guide
       position="283.19867,2.952939"
       orientation="0,1"
       id="guide4879"
       inkscape:locked="false" />
  </sodipodi:namedview>
  <metadata
     id="metadata5">
    <rdf:RDF>
      <cc:Work
         rdf:about="">
        <dc:format>image/svg+xml</dc:format>
        <dc:type
           rdf:resource="http://purl.org/dc/dcmitype/StillImage" />
        <dc:title />
      </cc:Work>
    </rdf:RDF>
  </metadata>
  <g
     inkscape:label="front"
     inkscape:groupmode="layer"
     id="layer1"
     transform="translate(0,-68.399983)"
     style="display:inline">
    <text
       xml:space="preserve"
       style="font-style:normal;font-weight:normal;line-height:0%;font-family:sans-serif;letter-spacing:0px;word-spacing:0px;fill:#ffffff;fill-opacity:1;stroke:none;stroke-width:1.1436342;stroke-linecap:butt;stroke-linejoin:miter;stroke-miterlimit:4;stroke-dasharray:none;stroke-opacity:1"
       x="-186.87071"
       y="140.38626"
       id="text4669"
       transform="scale(0.99998412,1.0000159)"><tspan
         sodipodi:role="line"
         id="tspan4671"
         x="-186.87071"
         y="140.38626"
         style="font-style:normal;font-variant:normal;font-weight:bold;font-stretch:normal;font-size:5.36316299px;line-height:1.25;font-family:sans-serif;-inkscape-font-specification:'sans-serif Bold';fill:#ffffff;stroke-width:1.1436342;stroke-miterlimit:4;stroke-dasharray:none"> </tspan></text>
    <text
       id="text5953"
       y="167.38005"
       x="-202.90714"
       style="font-style:normal;font-weight:normal;line-height:0%;font-family:sans-serif;letter-spacing:0px;word-spacing:0px;fill:#ffffff;fill-opacity:1;stroke:none;stroke-width:1.1436342;stroke-linecap:butt;stroke-linejoin:miter;stroke-miterlimit:4;stroke-dasharray:none;stroke-opacity:1"
       xml:space="preserve"
       transform="scale(0.99998412,1.0000159)"><tspan
         style="font-style:normal;font-variant:normal;font-weight:bold;font-stretch:normal;font-size:5.36316299px;line-height:1.25;font-family:sans-serif;-inkscape-font-specification:'sans-serif Bold';fill:#ffffff;stroke-width:1.1436342;stroke-miterlimit:4;stroke-dasharray:none"
         y="167.38005"
         x="-202.90714"
         id="tspan5951"
         sodipodi:role="line"> </tspan></text>
    <text
       xml:space="preserve"
       style="font-style:normal;font-weight:normal;line-height:0%;font-family:sans-serif;letter-spacing:0px;word-spacing:0px;fill:#ffffff;fill-opacity:1;stroke:none;stroke-width:1.1436342;stroke-linecap:butt;stroke-linejoin:miter;stroke-miterlimit:4;stroke-dasharray:none;stroke-opacity:1"
       x="-171.23518"
       y="167.38005"
       id="text5963"
       transform="scale(0.99998412,1.0000159)"><tspan
         sodipodi:role="line"
         id="tspan5961"
         x="-171.23518"
         y="167.38005"
         style="font-style:normal;font-variant:normal;font-weight:bold;font-stretch:normal;font-size:5.36316299px;line-height:1.25;font-family:sans-serif;-inkscape-font-specification:'sans-serif Bold';fill:#ffffff;stroke-width:1.1436342;stroke-miterlimit:4;stroke-dasharray:none"> </tspan></text>
    <text
       id="text5973"
       y="140.25262"
       x="-155.59967"
       style="font-style:normal;font-weight:normal;line-height:0%;font-family:sans-serif;letter-spacing:0px;word-spacing:0px;fill:#ffffff;fill-opacity:1;stroke:none;stroke-width:1.1436342;stroke-linecap:butt;stroke-linejoin:miter;stroke-miterlimit:4;stroke-dasharray:none;stroke-opacity:1"
       xml:space="preserve"
       transform="scale(0.99998412,1.0000159)"><tspan
         style="font-style:normal;font-variant:normal;font-weight:bold;font-stretch:normal;font-size:5.36316299px;line-height:1.25;font-family:sans-serif;-inkscape-font-specification:'sans-serif Bold';fill:#ffffff;stroke-width:1.1436342;stroke-miterlimit:4;stroke-dasharray:none"
         y="140.25262"
         x="-155.59967"
         id="tspan5971"
         sodipodi:role="line"> </tspan></text>
    <path
       style="font-style:normal;font-variant:normal;font-weight:normal;font-stretch:normal;font-size:medium;line-height:125%;font-family:'Archivo Black';-inkscape-font-specification:'Archivo Black, ';text-align:start;letter-spacing:0px;word-spacing:0px;writing-mode:lr-tb;text-anchor:start;fill:none;fill-opacity:1;stroke:#0000ff;stroke-width:0.17638889;stroke-linecap:butt;stroke-linejoin:miter;stroke-miterlimit:4;stroke-dasharray:none;stroke-opacity:1"
       d="m 47.578427,83.470535 v 5.3e-4 c -0.450501,1.957929 -0.912101,3.933637 -0.820105,5.838404 l 0.636654,5.29e-4 c 0.112032,-1.68007 0.97772,-3.524761 1.902208,-5.027599 C 49.13269,83.973111 48.841278,83.775751 48.491033,83.646261 48.189527,83.53476 47.854176,83.48472 47.578427,83.470562 Z m 4.979541,0.380339 -2.857191,2.857188 0.499711,0.499713 c -0.189431,0.01828 -0.381143,0.04481 -0.576707,0.08785 -0.120661,0.02655 -0.240216,0.05796 -0.359151,0.09302 l -0.01551,-0.229444 -0.352949,0.352951 c -0.212386,0.07935 -0.421269,0.171048 -0.625284,0.276469 -0.03973,0.148727 -0.07354,0.300405 -0.104389,0.453718 l -0.233061,0.23306 0.131776,1.444358 c -0.02357,0.007 -0.04545,0.01664 -0.06925,0.02326 -0.08546,0.02371 -0.172312,0.04546 -0.260448,0.06356 -0.185107,0.03811 -0.368591,0.06264 -0.548804,0.07441 l -0.429432,-0.429432 -0.39429,0.394293 c -0.918953,-0.140176 -1.670449,-0.612347 -2.006597,-1.236102 -0.147775,-0.274169 -0.175371,-0.556498 -0.104902,-0.824238 0.332848,0.60883 1.036968,1.067692 1.87017,1.29191 -0.02532,-0.5501 -0.03299,-1.067249 -0.02119,-1.571479 -0.372449,-0.16518 -0.757518,-0.289147 -1.1498,-0.367938 -0.378407,-0.0761 -0.74608,-0.115707 -1.086239,-0.10387 -2.428737,0.08461 -4.500134,2.197066 -4.460192,5.237925 0.01648,1.257255 0.364384,2.494751 0.937411,3.594613 l -1.135849,1.136365 3.303673,3.303676 1.061434,-1.06092 -0.07958,-0.07958 c 0.486363,0.260291 0.995985,0.451538 1.518772,0.556556 0.378339,0.0761 0.844032,0.115504 1.259872,0.077 0.415737,-0.0385 0.770623,-0.160999 0.961181,-0.343648 l 0.202055,-0.193786 0.21704,0.177768 c 0.182028,0.149878 0.559578,0.272505 0.98547,0.312123 0.425894,0.0396 0.897445,0.0072 1.264007,-0.0739 2.962701,-0.652071 5.180118,-4.03234 5.134052,-7.54166 -0.01752,-1.336815 -0.391999,-2.481842 -1.004073,-3.350183 l 1.865519,-1.865519 -0.7922,-0.7922 -1.829345,1.82883 c -0.0021,-0.0019 -0.0045,-0.0038 -0.0067,-0.0057 l -0.497644,-0.497644 1.53634,-1.536859 -0.758611,-0.758611 -1.536856,1.536343 -0.455787,-0.455787 1.795756,-1.796272 z m -2.639116,4.400248 c -0.0049,0.325964 -0.206245,0.66099 -0.530717,0.95498 l -0.02532,-0.373621 c 0.236252,-0.169738 0.42595,-0.365707 0.556037,-0.581359 z m 3.450952,1.395262 c 0.941637,1.386369 1.12947,3.527957 0.146244,5.723165 -1.031645,2.303151 -3.153916,4.105805 -4.767149,4.020945 3.401668,-2.040205 5.023734,-6.041867 3.934642,-9.699668 l 0.320911,0.320911 z"
       id="path6001"
       inkscape:connector-curvature="0" />
    <rect
       ry="2.2343702"
       y="79.128723"
       x="9.207304"
       height="25.223612"
       width="25.223612"
       id="rect6859"
       style="opacity:1;fill:none;fill-opacity:1;stroke:#ff0000;stroke-width:0.1763889;stroke-linecap:round;stroke-linejoin:round;stroke-miterlimit:4;stroke-dasharray:none;stroke-opacity:1" />
    <path
       sodipodi:nodetypes="cccccccccccccccccccccccccccsccccccccccc"
       id="path5999"
       d="m 22.17849,83.470847 c -0.450499,1.95793 -0.912076,3.93366 -0.82008,5.83842 l 0.636757,8.9e-4 c 0.112033,-1.68007 0.977568,-3.52502 1.902057,-5.02786 -0.164495,-0.30928 -0.455745,-0.50642 -0.805991,-0.63591 -0.301506,-0.1115 -0.636995,-0.16151 -0.912743,-0.17567 z m 2.992985,3.71254 c -0.306888,0.004 -0.623319,0.0408 -0.947707,0.11218 -0.46573,0.10247 -0.919817,0.26927 -1.352852,0.49303 -0.132171,0.49487 -0.21479,1.01056 -0.250669,1.57776 0.0423,-0.007 0.08495,-0.0146 0.126925,-0.0233 0.844983,-0.17388 1.465156,-0.58391 1.771671,-1.09203 -0.01009,0.6753 -0.850229,1.39424 -1.922829,1.69205 -0.08546,0.0237 -0.172145,0.0454 -0.260281,0.0635 -1.49907,0.30861 -2.886107,-0.28156 -3.379321,-1.19677 -0.147775,-0.27417 -0.17519,-0.55655 -0.104721,-0.82429 0.332848,0.60883 1.036825,1.06779 1.870028,1.29201 -0.02531,-0.5501 -0.03296,-1.06713 -0.02116,-1.57136 -0.372449,-0.16518 -0.757489,-0.28945 -1.149772,-0.36824 -0.378406,-0.0761 -0.746116,-0.1156 -1.086275,-0.10376 -2.428738,0.0846 -4.500256,2.19709 -4.460316,5.23795 0.04583,3.49351 2.622237,6.8512 5.605823,7.45055 0.378338,0.0761 0.843933,0.115813 1.259773,0.0773 0.415739,-0.0385 0.770858,-0.16124 0.961415,-0.34389 l 0.202065,-0.19368 0.216788,0.17776 c 0.182027,0.14988 0.559892,0.27259 0.985784,0.31221 0.425893,0.0396 0.897411,0.007 1.263971,-0.0741 2.962701,-0.65207 5.180133,-4.03221 5.134068,-7.54153 -0.02291,-1.74776 -0.655069,-3.16963 -1.632087,-4.07082 -0.73268,-0.67587 -1.656931,-1.0669 -2.699206,-1.08247 -0.04346,-8.9e-4 -0.08732,-8.9e-4 -0.131155,0 z m 1.689153,1.39255 c 1.817228,1.09975 2.550585,3.90185 1.255441,6.79347 -1.031647,2.30315 -3.153834,4.10589 -4.767069,4.02103 3.751431,-2.24998 5.338435,-6.8855 3.511662,-10.81454 z"
       inkscape:connector-curvature="0"
       style="fill:none;stroke:#0000ff;stroke-width:0.17638889;stroke-miterlimit:4;stroke-dasharray:none;stroke-opacity:1" />
    <rect
       style="opacity:1;fill:none;fill-opacity:1;stroke:#0000ff;stroke-width:0.1763889;stroke-linecap:round;stroke-linejoin:round;stroke-miterlimit:4;stroke-dasharray:none;stroke-opacity:1"
       id="rect6019"
       width="22.245659"
       height="22.245659"
       x="10.696281"
       y="80.617706"
       ry="0" />
    <rect
       ry="0"
       y="82.083191"
       x="12.161764"
       height="19.314692"
       width="19.314692"
       id="rect6021"
       style="opacity:1;fill:none;fill-opacity:1;stroke:#0000ff;stroke-width:0.1763889;stroke-linecap:round;stroke-linejoin:round;stroke-miterlimit:4;stroke-dasharray:none;stroke-opacity:1" />
    <rect
       style="opacity:1;fill:none;fill-opacity:1;stroke:#ff0000;stroke-width:0.1763889;stroke-linecap:round;stroke-linejoin:round;stroke-miterlimit:4;stroke-dasharray:none;stroke-opacity:1"
       id="rect6029"
       width="25.223612"
       height="25.223612"
       x="34.607304"
       y="79.128723"
       ry="2.2343702" />
    <rect
       ry="0"
       y="80.617706"
       x="36.096283"
       height="22.245659"
       width="22.245659"
       id="rect6033"
       style="opacity:1;fill:none;fill-opacity:1;stroke:#0000ff;stroke-width:0.1763889;stroke-linecap:round;stroke-linejoin:round;stroke-miterlimit:4;stroke-dasharray:none;stroke-opacity:1" />
    <rect
       style="opacity:1;fill:none;fill-opacity:1;stroke:#0000ff;stroke-width:0.1763889;stroke-linecap:round;stroke-linejoin:round;stroke-miterlimit:4;stroke-dasharray:none;stroke-opacity:1"
       id="rect6035"
       width="19.314692"
       height="19.314692"
       x="37.561764"
       y="82.083191"
       ry="0" />
    <rect
       ry="2.2343702"
       y="79.128723"
       x="59.830921"
       height="25.223612"
       width="25.223612"
       id="rect6039"
       style="opacity:1;fill:none;fill-opacity:1;stroke:#ff0000;stroke-width:0.1763889;stroke-linecap:round;stroke-linejoin:round;stroke-miterlimit:4;stroke-dasharray:none;stroke-opacity:1" />
    <rect
       style="opacity:1;fill:none;fill-opacity:1;stroke:#0000ff;stroke-width:0.1763889;stroke-linecap:round;stroke-linejoin:round;stroke-miterlimit:4;stroke-dasharray:none;stroke-opacity:1"
       id="rect6043"
       width="22.245659"
       height="22.245659"
       x="61.319897"
       y="80.617706"
       ry="0" />
    <rect
       ry="0"
       y="82.083191"
       x="62.785381"
       height="19.314692"
       width="19.314692"
       id="rect6045"
       style="opacity:1;fill:none;fill-opacity:1;stroke:#0000ff;stroke-width:0.1763889;stroke-linecap:round;stroke-linejoin:round;stroke-miterlimit:4;stroke-dasharray:none;stroke-opacity:1" />
    <rect
       style="opacity:1;fill:none;fill-opacity:1;stroke:#ff0000;stroke-width:0.1763889;stroke-linecap:round;stroke-linejoin:round;stroke-miterlimit:4;stroke-dasharray:none;stroke-opacity:1"
       id="rect6049"
       width="25.223612"
       height="25.223612"
       x="85.230927"
       y="79.128723"
       ry="2.2343702" />
    <rect
       ry="0"
       y="80.617706"
       x="86.719894"
       height="22.245659"
       width="22.245659"
       id="rect6053"
       style="opacity:1;fill:none;fill-opacity:1;stroke:#0000ff;stroke-width:0.1763889;stroke-linecap:round;stroke-linejoin:round;stroke-miterlimit:4;stroke-dasharray:none;stroke-opacity:1" />
    <rect
       style="opacity:1;fill:none;fill-opacity:1;stroke:#0000ff;stroke-width:0.1763889;stroke-linecap:round;stroke-linejoin:round;stroke-miterlimit:4;stroke-dasharray:none;stroke-opacity:1"
       id="rect6055"
       width="19.314692"
       height="19.314692"
       x="88.185387"
       y="82.083191"
       ry="0" />
    <rect
       ry="2.2343702"
       y="79.128723"
       x="110.45454"
       height="25.223612"
       width="25.223612"
       id="rect6059"
       style="opacity:1;fill:none;fill-opacity:1;stroke:#ff0000;stroke-width:0.1763889;stroke-linecap:round;stroke-linejoin:round;stroke-miterlimit:4;stroke-dasharray:none;stroke-opacity:1" />
    <rect
       style="opacity:1;fill:none;fill-opacity:1;stroke:#0000ff;stroke-width:0.1763889;stroke-linecap:round;stroke-linejoin:round;stroke-miterlimit:4;stroke-dasharray:none;stroke-opacity:1"
       id="rect6063"
       width="22.245659"
       height="22.245659"
       x="111.94353"
       y="80.617706"
       ry="0" />
    <rect
       ry="0"
       y="82.083191"
       x="113.409"
       height="19.314692"
       width="19.314692"
       id="rect6065"
       style="opacity:1;fill:none;fill-opacity:1;stroke:#0000ff;stroke-width:0.1763889;stroke-linecap:round;stroke-linejoin:round;stroke-miterlimit:4;stroke-dasharray:none;stroke-opacity:1" />
    <rect
       style="opacity:1;fill:none;fill-opacity:1;stroke:#ff0000;stroke-width:0.1763889;stroke-linecap:round;stroke-linejoin:round;stroke-miterlimit:4;stroke-dasharray:none;stroke-opacity:1"
       id="rect6069"
       width="25.223612"
       height="25.223612"
       x="135.67815"
       y="79.128723"
       ry="2.2343702" />
    <rect
       ry="0"
       y="80.617706"
       x="137.16711"
       height="22.245659"
       width="22.245659"
       id="rect6073"
       style="opacity:1;fill:none;fill-opacity:1;stroke:#0000ff;stroke-width:0.1763889;stroke-linecap:round;stroke-linejoin:round;stroke-miterlimit:4;stroke-dasharray:none;stroke-opacity:1" />
    <rect
       style="opacity:1;fill:none;fill-opacity:1;stroke:#0000ff;stroke-width:0.1763889;stroke-linecap:round;stroke-linejoin:round;stroke-miterlimit:4;stroke-dasharray:none;stroke-opacity:1"
       id="rect6075"
       width="19.314692"
       height="19.314692"
       x="138.6326"
       y="82.083191"
       ry="0" />
    <rect
       ry="2.2343702"
       y="79.128723"
       x="160.90175"
       height="25.223612"
       width="25.223612"
       id="rect6079"
       style="opacity:1;fill:none;fill-opacity:1;stroke:#ff0000;stroke-width:0.1763889;stroke-linecap:round;stroke-linejoin:round;stroke-miterlimit:4;stroke-dasharray:none;stroke-opacity:1" />
    <rect
       style="opacity:1;fill:none;fill-opacity:1;stroke:#0000ff;stroke-width:0.1763889;stroke-linecap:round;stroke-linejoin:round;stroke-miterlimit:4;stroke-dasharray:none;stroke-opacity:1"
       id="rect6083"
       width="22.245659"
       height="22.245659"
       x="162.39073"
       y="80.617706"
       ry="0" />
    <rect
       ry="0"
       y="82.083191"
       x="163.85622"
       height="19.314692"
       width="19.314692"
       id="rect6085"
       style="opacity:1;fill:none;fill-opacity:1;stroke:#0000ff;stroke-width:0.1763889;stroke-linecap:round;stroke-linejoin:round;stroke-miterlimit:4;stroke-dasharray:none;stroke-opacity:1" />
    <rect
       style="opacity:1;fill:none;fill-opacity:1;stroke:#ff0000;stroke-width:0.1763889;stroke-linecap:round;stroke-linejoin:round;stroke-miterlimit:4;stroke-dasharray:none;stroke-opacity:1"
       id="rect6089"
       width="25.223612"
       height="25.223612"
       x="186.12537"
       y="79.128723"
       ry="2.2343702" />
    <rect
       ry="0"
       y="80.617706"
       x="187.61433"
       height="22.245659"
       width="22.245659"
       id="rect6093"
       style="opacity:1;fill:none;fill-opacity:1;stroke:#0000ff;stroke-width:0.1763889;stroke-linecap:round;stroke-linejoin:round;stroke-miterlimit:4;stroke-dasharray:none;stroke-opacity:1" />
    <rect
       style="opacity:1;fill:none;fill-opacity:1;stroke:#0000ff;stroke-width:0.1763889;stroke-linecap:round;stroke-linejoin:round;stroke-miterlimit:4;stroke-dasharray:none;stroke-opacity:1"
       id="rect6095"
       width="19.314692"
       height="19.314692"
       x="189.0042"
       y="82.083191"
       ry="0" />
    <rect
       ry="2.2343702"
       y="79.128723"
       x="211.52536"
       height="25.223612"
       width="25.223612"
       id="rect6099"
       style="opacity:1;fill:none;fill-opacity:1;stroke:#ff0000;stroke-width:0.1763889;stroke-linecap:round;stroke-linejoin:round;stroke-miterlimit:4;stroke-dasharray:none;stroke-opacity:1" />
    <rect
       style="opacity:1;fill:none;fill-opacity:1;stroke:#0000ff;stroke-width:0.1763889;stroke-linecap:round;stroke-linejoin:round;stroke-miterlimit:4;stroke-dasharray:none;stroke-opacity:1"
       id="rect6103"
       width="22.245659"
       height="22.245659"
       x="213.01434"
       y="80.617706"
       ry="0" />
    <rect
       ry="0"
       y="82.083191"
       x="214.47983"
       height="19.314692"
       width="19.314692"
       id="rect6105"
       style="opacity:1;fill:none;fill-opacity:1;stroke:#0000ff;stroke-width:0.1763889;stroke-linecap:round;stroke-linejoin:round;stroke-miterlimit:4;stroke-dasharray:none;stroke-opacity:1" />
    <path
       style="font-style:normal;font-variant:normal;font-weight:normal;font-stretch:normal;font-size:medium;line-height:125%;font-family:'Archivo Black';-inkscape-font-specification:'Archivo Black, ';text-align:start;letter-spacing:0px;word-spacing:0px;writing-mode:lr-tb;text-anchor:start;fill:none;fill-opacity:1;stroke:#0000ff;stroke-width:0.17638889;stroke-linecap:butt;stroke-linejoin:miter;stroke-miterlimit:4;stroke-dasharray:none;stroke-opacity:1"
       d="m 102.29395,82.51607 c -0.12353,0.003 -0.2527,0.04742 -0.36329,0.146761 l -1.5844,1.941484 c 0.33002,0.146285 0.69219,0.151093 1.07797,0.146245 l -0.71003,0.710034 c -0.22417,-0.02927 -0.45882,-0.08508 -0.69557,-0.194305 -0.582016,-0.268359 -0.890036,-0.543502 -1.132226,-0.807702 -0.23498,-0.256331 -0.41471,-0.487058 -0.84491,-0.80822 -0.006,-0.0021 -0.008,-0.0042 -0.0227,-0.0062 -0.0244,-0.0021 -0.0583,-0.0031 -0.0992,-0.0021 v -0.0016 c -0.041,5.29e-4 -0.0894,0.0021 -0.14315,0.0072 -0.21495,0.01601 -0.51804,0.06088 -0.86971,0.12764 -0.70335,0.133411 -1.6057,0.351613 -2.49132,0.582393 -1.33056,0.34681 -2.38134,0.652647 -2.94297,0.818039 0.0849,0.0574 0.18083,0.111029 0.30334,0.158128 0.33271,0.128042 0.80078,0.201083 1.35754,0.205674 1.11368,0.009 2.57677,-0.247457 4.0907,-0.703318 l 0.35295,0.626837 c -0.84614,0.761619 -1.05134,1.374886 -1.05368,1.801956 -0.002,0.427079 0.24258,0.722005 0.29869,0.762743 0.30377,0.220927 0.6882,0.272042 1.1436,0.181385 l -0.18293,0.182936 0.0527,0.577741 c -0.51857,0.05362 -1.01981,-0.03564 -1.44694,-0.346231 -0.28769,-0.20924 -0.55493,-0.615452 -0.59634,-1.194242 -0.11604,0.17476 -0.26743,0.272201 -0.40153,0.236159 -0.20332,-0.0546 -0.28874,-0.394348 -0.19068,-0.758608 0.0864,-0.321029 0.28935,-0.560874 0.48059,-0.567925 0.0224,-0.0011 0.0441,0.0013 0.0651,0.0083 0.0773,0.0208 0.13768,0.0832 0.17725,0.172082 0.0751,-0.211158 0.18311,-0.431424 0.33073,-0.657323 l -5.3e-4,-5.29e-4 c -0.79124,0.18937 -1.55237,0.319659 -2.25154,0.378791 -0.007,0.0403 -0.0152,0.08108 -0.0263,0.122473 -0.0981,0.36422 -0.34247,0.615307 -0.54571,0.560689 -0.18239,-0.0491 -0.26926,-0.327676 -0.21445,-0.647507 -0.0293,0 -0.0589,2.65e-4 -0.0879,0 -0.38985,-0.003 -0.75126,-0.03433 -1.08004,-0.101285 -0.16466,0.19581 -0.31894,0.404588 -0.45992,0.62787 -0.29532,0.467778 -0.36717,1.083339 -0.49299,1.692917 0.021,-0.007 0.0422,-0.0098 0.0625,-0.01085 0.0224,-0.0011 0.0441,7.93e-4 0.0651,0.0078 0.20324,0.0548 0.28822,0.39438 0.19017,0.758611 -0.0957,0.354729 -0.33044,0.603337 -0.53176,0.562755 -0.22511,1.801892 -0.2384,3.813715 -0.24856,5.683375 -9e-5,0.01622 -5.3e-4,0.03033 -5.3e-4,0.04651 l -1.57613,1.576131 1.68103,1.681033 c 0.13632,0.772636 0.41955,1.442503 0.99943,1.983343 3.50987,0.98601 8.03802,-2.261667 10.731126,-5.004348 -0.0976,0.031 -0.18471,0.02461 -0.2496,-0.0186 -0.17506,-0.116901 -0.14701,-0.466127 0.0625,-0.779796 0.15647,-0.234212 0.37694,-0.390782 0.55552,-0.394293 0.0536,-0.0011 0.10128,0.01204 0.14056,0.03824 0.13095,0.0878 0.15174,0.311034 0.0522,0.561724 0.96091,-1.054402 1.59737,-1.973226 1.72651,-2.455664 0.0838,-0.51226 0.0985,-1.003065 0.0594,-1.471745 -0.0512,-0.003 -0.10225,-0.0073 -0.15245,-0.01188 -0.008,0.12469 -0.0469,0.265615 -0.1173,0.404625 -0.17064,0.33642 -0.46079,0.532294 -0.64854,0.437184 -0.18772,-0.0952 -0.20162,-0.444918 -0.031,-0.781349 0.0381,-0.0751 0.0824,-0.14397 0.13074,-0.204121 -0.36057,-0.120671 -0.68716,-0.304948 -0.9803,-0.538469 0.0496,0.16256 -0.006,0.411128 -0.15916,0.640789 -0.2095,0.313669 -0.52158,0.472959 -0.6966,0.35605 -0.1751,-0.116869 -0.1471,-0.46563 0.0625,-0.77928 0.15646,-0.23431 0.37746,-0.39129 0.55604,-0.394809 0.0112,-2.64e-4 0.0217,7.94e-4 0.0326,0.0011 -0.096,-0.0887 -0.18801,-0.182759 -0.27595,-0.281639 -0.37561,-0.422164 -0.69212,-0.929444 -0.98392,-1.482079 l 1.30328,1.303279 0.26975,-0.269751 c 0.5244,0.574779 1.09432,0.896456 1.91462,0.87075 -0.27448,-0.856139 -0.46293,-1.536237 -0.67232,-2.11305 l 1.37873,-1.378728 -0.7922,-0.792716 -1.08882,1.088822 c -0.1187,-0.196144 -0.25779,-0.390065 -0.42065,-0.588077 l 0.71211,-0.712102 -0.75862,-0.758611 -0.69918,0.699183 c -0.12854,-0.116721 -0.26497,-0.236469 -0.41599,-0.361736 -0.0235,-0.0195 -0.0557,-0.03279 -0.0873,-0.04702 l 1.00563,-1.005623 -0.7922,-0.792718 -0.89245,0.892453 c 0.47113,-0.646081 0.97202,-1.323139 1.07745,-1.422136 0.39182,-0.36758 0.0726,-0.73093 -0.29817,-0.721921 z m -2.22674,4.626075 0.52762,0.527616 c -0.45244,0.34408 -0.922676,0.646518 -1.396296,0.877467 l -0.0548,-0.79892 c 0.30535,-0.168754 0.61623,-0.378997 0.923456,-0.606163 z m -5.930906,0.108003 c 0.0224,-0.0011 0.0442,7.94e-4 0.0651,0.0078 0.20328,0.0548 0.28826,0.39437 0.19017,0.758611 -0.098,0.364188 -0.34191,0.615357 -0.54519,0.560689 -0.20324,-0.0546 -0.28874,-0.39439 -0.19069,-0.75861 0.0864,-0.321041 0.2894,-0.560846 0.48059,-0.567926 z m -1.45003,0.176218 c 0.0224,-0.0011 0.0441,0.0013 0.0651,0.0083 0.20328,0.0546 0.28874,0.394348 0.19068,0.758608 -0.098,0.36422 -0.34242,0.614794 -0.5457,0.560173 -0.20328,-0.0547 -0.28874,-0.394348 -0.19069,-0.758611 0.0864,-0.321029 0.28932,-0.560316 0.4806,-0.567406 z m 7.917856,0.253214 0.42943,0.428913 c -0.0667,0.03813 -0.13498,0.0525 -0.19947,0.03514 -0.14624,-0.0393 -0.23017,-0.226743 -0.22996,-0.464053 z m -0.21239,0.317294 c 0.0223,-0.0011 0.0441,7.93e-4 0.0651,0.0078 0.20315,0.0548 0.28818,0.394391 0.19017,0.758611 -0.0981,0.36427 -0.34246,0.615349 -0.5457,0.560689 -0.203286,-0.0548 -0.288266,-0.39433 -0.190166,-0.758608 0.0864,-0.321032 0.289306,-0.560835 0.480586,-0.567926 z m -5.532996,0.772562 c 0.0224,-0.0011 0.0441,0.0013 0.0651,0.0083 0.20332,0.0548 0.28879,0.394269 0.19069,0.758611 -0.0981,0.36431 -0.34242,0.614912 -0.5457,0.56017 -0.20324,-0.0548 -0.28875,-0.394337 -0.19069,-0.758608 0.0864,-0.321029 0.2894,-0.560329 0.48059,-0.567407 z m 1.81178,0.382405 c 0.0224,-0.0011 0.0442,7.94e-4 0.0651,0.0078 0.19868,0.05335 0.28345,0.379153 0.19585,0.733806 l -0.32504,-0.325046 -0.45527,0.455269 c -7.9e-4,-0.09515 0.0103,-0.197678 0.0388,-0.30334 0.0864,-0.321029 0.28943,-0.560834 0.48059,-0.567925 z m 2.759,0.398941 c 0.0224,-0.0011 0.0442,0.0013 0.0651,0.0083 0.0715,0.01921 0.12693,0.07511 0.16639,0.15348 l -0.38964,-0.09095 -10e-4,-0.01188 c 0.0522,-0.03462 0.10604,-0.05643 0.15917,-0.05839 z m 1.612816,0.07287 c 0.0224,-0.0011 0.0441,0.0013 0.0651,0.0083 0.14756,0.03972 0.23178,0.230285 0.22996,0.470773 l -0.67541,-0.157613 c 0.10181,-0.188148 0.24333,-0.315322 0.38033,-0.320394 z m -8.095626,0.121954 c 0.0224,-0.0011 0.0442,0.0013 0.0651,0.0083 0.20333,0.0546 0.28875,0.394351 0.19069,0.758611 -0.0981,0.36423 -0.34246,0.614833 -0.5457,0.560173 -0.20332,-0.0546 -0.28874,-0.39434 -0.19069,-0.758611 0.0864,-0.321019 0.2894,-0.560327 0.48059,-0.567407 z m 4.96301,0.772562 c 0.0224,-0.0011 0.0442,0.0013 0.0651,0.0083 8e-4,2.04e-4 0.001,7.94e-4 0.002,0.0011 l 0.0413,0.452687 -0.3421,-0.342099 c 0.0739,-0.07166 0.15455,-0.11593 0.23358,-0.118856 z m -6.46834,0.610301 c 0.0224,-0.0011 0.0441,0.0013 0.0651,0.0083 0.20328,0.0546 0.28874,0.394351 0.19069,0.758611 -0.0981,0.364231 -0.34247,0.614804 -0.5457,0.560173 -0.20333,-0.0546 -0.28875,-0.39434 -0.19069,-0.758611 0.0864,-0.321029 0.28939,-0.560326 0.48059,-0.567406 z m 8.591206,0.242877 c 0.0224,-0.0011 0.0437,7.94e-4 0.0646,0.0078 0.20328,0.0546 0.28875,0.394391 0.19069,0.758611 -0.0981,0.36431 -0.342456,0.615429 -0.545706,0.560689 -0.004,-0.0011 -0.008,-0.0043 -0.0119,-0.0057 l -0.16381,-0.163814 c -0.0654,-0.144865 -0.0756,-0.362212 -0.0145,-0.589111 0.0864,-0.32103 0.28879,-0.560316 0.480066,-0.567407 z m -4.436936,0.110588 c 0.21024,0.01101 0.36434,0.325483 0.34468,0.702284 -0.0196,0.376719 -0.20579,0.672954 -0.416,0.661974 -0.21028,-0.01101 -0.36485,-0.325006 -0.34519,-0.701765 0.0196,-0.376711 0.2063,-0.673481 0.41651,-0.662493 z m -1.87121,0.457338 c 0.0225,-0.0011 0.0441,7.93e-4 0.0651,0.0078 0.11306,0.03049 0.18773,0.150685 0.21652,0.312645 l -0.062,-0.02894 -0.72554,0.725538 c -0.0236,-0.129744 -0.0185,-0.285719 0.0253,-0.448551 0.0864,-0.321032 0.2894,-0.560885 0.48059,-0.567926 z m 8.074956,0.289388 c 0.0537,-0.0011 0.10124,0.01154 0.14056,0.03772 0.17506,0.116859 0.14713,0.466127 -0.0625,0.779796 -0.20954,0.31365 -0.52103,0.473427 -0.69609,0.356568 -0.17506,-0.116911 -0.14702,-0.466137 0.0625,-0.779798 0.15646,-0.234231 0.37694,-0.390761 0.55552,-0.39429 z m 1.95802,0.272851 c 0.0417,0.0011 0.0796,0.01265 0.11214,0.03256 0.1796,0.109718 0.16581,0.459984 -0.031,0.781863 -0.19673,0.321939 -0.50202,0.493765 -0.68162,0.383955 -0.17965,-0.109728 -0.16566,-0.459486 0.031,-0.781346 0.14696,-0.240361 0.36125,-0.405781 0.5395,-0.416513 0.0102,-5.29e-4 0.0202,-7.94e-4 0.03,-5.29e-4 z m -6.553076,0.209288 c 0.0224,-0.0011 0.0442,7.94e-4 0.0651,0.0078 0.20328,0.0546 0.28874,0.39434 0.19068,0.75861 -0.0333,0.123611 -0.0845,0.232453 -0.14417,0.322461 l -0.62891,-0.293005 c 0.005,-0.07318 0.0157,-0.149378 0.0367,-0.227377 0.0864,-0.32103 0.28932,-0.560843 0.4806,-0.567923 z m 2.23707,0.629936 c 0.0299,0.161592 -0.0265,0.386948 -0.16743,0.597898 -0.20959,0.313729 -0.52154,0.473437 -0.6966,0.356565 -0.15053,-0.100554 -0.14958,-0.372737 -0.0134,-0.646469 l 0.28473,0.284736 z m -7.78351,0.203605 c 0.0224,-0.0011 0.0442,7.94e-4 0.0651,0.0078 0.20332,0.0546 0.28874,0.39438 0.19068,0.758611 -0.0232,0.08615 -0.0554,0.165232 -0.0925,0.236162 l -0.0966,-0.09664 -0.4005,0.400492 c -0.17028,-0.08973 -0.23722,-0.401886 -0.14676,-0.737939 0.0864,-0.321029 0.2894,-0.560882 0.48059,-0.567922 z m 9.039756,0.390157 c 0.0537,-0.0011 0.10128,0.01143 0.14056,0.03773 0.17502,0.116861 0.14712,0.466137 -0.0625,0.779798 -0.20959,0.31365 -0.52102,0.473467 -0.69608,0.356566 -0.175056,-0.11683 -0.147006,-0.466095 0.0625,-0.779796 0.15655,-0.234331 0.37694,-0.390771 0.55552,-0.394293 z m -5.685956,0.262001 0.60617,0.331245 c -0.005,0.06932 -0.0159,0.140994 -0.0357,0.214458 -0.007,0.02463 -0.0153,0.04726 -0.0233,0.0708 l -0.49197,0.491958 c -0.01,-0.0013 -0.0199,-5e-5 -0.0294,-0.0026 l -0.22944,-0.424265 c -0.004,-0.103436 0.007,-0.217122 0.0382,-0.334346 0.0366,-0.136186 0.0966,-0.251901 0.16536,-0.347265 z m -1.93838,0.04857 0.35192,0.756026 c -0.10115,0.354671 -0.3401,0.597485 -0.54002,0.543637 -0.20328,-0.0548 -0.28878,-0.39438 -0.19069,-0.758611 0.0712,-0.264366 0.22121,-0.471503 0.37879,-0.541052 z m 4.98626,0.657842 c 0.0537,-0.0011 0.10179,0.01204 0.14108,0.03824 0.17506,0.116869 0.14701,0.466069 -0.0625,0.779798 -0.20963,0.313659 -0.52154,0.472991 -0.6966,0.35605 -0.17502,-0.116909 -0.14712,-0.466137 0.0625,-0.779798 0.0229,-0.03423 0.0491,-0.06285 0.0744,-0.09353 l 0.1571,-0.157097 c 0.10896,-0.08668 0.2228,-0.141642 0.32401,-0.14366 z m 1.23765,0.92294 c 0.0537,-0.0011 0.1018,0.01204 0.14108,0.03824 0.17502,0.11694 0.14659,0.465621 -0.063,0.77928 -0.20955,0.313671 -0.52106,0.473389 -0.69608,0.356568 -0.17518,-0.116859 -0.14707,-0.466058 0.0625,-0.779796 0.15655,-0.234222 0.37694,-0.390813 0.55552,-0.394293 z m 1.647956,0.06098 c 0.0537,-0.0011 0.10128,0.01204 0.14056,0.03824 0.17502,0.116951 0.14712,0.46563 -0.0625,0.77928 -0.20954,0.313661 -0.52158,0.473477 -0.69659,0.356569 -0.17511,-0.11687 -0.14701,-0.466149 0.0625,-0.779799 0.15655,-0.234349 0.37746,-0.390771 0.55604,-0.39429 z m -5.123706,0.14211 c 0.0904,0.141052 0.11366,0.383768 0.0444,0.640787 -0.01,0.03617 -0.0217,0.07012 -0.0341,0.10387 l -0.26455,-0.490407 z m -4.09536,0.387057 c 0.0224,-0.0011 0.0441,7.93e-4 0.0651,0.0078 0.14283,0.03849 0.22575,0.218612 0.22944,0.448035 l -0.5457,0.545703 -0.26148,-0.261485 c 0.007,-0.05607 0.0163,-0.113152 0.032,-0.171564 0.0864,-0.32095 0.28932,-0.560885 0.4806,-0.567925 z m 1.95078,0.426331 c 0.0224,-0.0011 0.0442,7.93e-4 0.0651,0.0078 0.20333,0.0548 0.28875,0.394338 0.19069,0.758608 -0.0981,0.36422 -0.34246,0.61532 -0.5457,0.560689 -0.20337,-0.0546 -0.28879,-0.394269 -0.19069,-0.758608 0.0421,-0.156305 0.11232,-0.291954 0.19482,-0.392226 l 0.0925,-0.0925 c 0.0625,-0.04992 0.12847,-0.08081 0.19327,-0.0832 z m 3.06803,0.793231 c 0.0537,-0.0011 0.10128,0.01204 0.14056,0.03824 0.17506,0.116909 0.1471,0.466138 -0.0625,0.779796 -0.20957,0.31365 -0.52102,0.473001 -0.69608,0.35605 -0.17502,-0.116899 -0.14712,-0.466146 0.0625,-0.779796 0.15654,-0.234231 0.37694,-0.390782 0.55552,-0.394293 z m 1.68465,0.267684 c 0.0537,-0.0011 0.10128,0.01154 0.14056,0.03773 0.17514,0.116829 0.14765,0.466137 -0.062,0.779798 -0.20955,0.31374 -0.52159,0.473517 -0.6966,0.356566 -0.17506,-0.116869 -0.14702,-0.466056 0.0625,-0.779796 0.15654,-0.234212 0.37694,-0.390782 0.55552,-0.394293 z m -3.62045,1.515155 c 0.0537,-0.0011 0.10128,0.01151 0.14056,0.03772 0.17506,0.116861 0.14703,0.466048 -0.0625,0.779802 -0.20955,0.31365 -0.52154,0.47346 -0.69661,0.35656 -0.17505,-0.11691 -0.14657,-0.46613 0.0631,-0.779794 0.15646,-0.234219 0.37702,-0.39076 0.55552,-0.39429 z m -3.07009,0.385506 0.47439,0.474386 c -0.0815,0.0619 -0.16827,0.0893 -0.24857,0.0677 -0.16188,-0.0435 -0.24659,-0.26858 -0.22582,-0.542083 z"
       id="path6182"
       inkscape:connector-curvature="0" />
    <path
       d="m 42.509444,100.50677 1.061235,-1.061233 -1.186086,-1.18609 1.382966,-1.38297 -0.75871,-0.75871 -1.382966,1.38297 -0.566632,-0.56663 1.608658,-1.60866 -0.792324,-0.79232 -2.669892,2.66989 z"
       style="font-style:normal;font-variant:normal;font-weight:normal;font-stretch:normal;font-size:medium;line-height:125%;font-family:'Archivo Black';-inkscape-font-specification:'Archivo Black, ';text-align:start;letter-spacing:0px;word-spacing:0px;writing-mode:lr-tb;text-anchor:start;fill:none;fill-opacity:1;stroke:#0000ff;stroke-width:0.17638889;stroke-linecap:butt;stroke-linejoin:miter;stroke-miterlimit:4;stroke-dasharray:none;stroke-opacity:1"
       id="path6200"
       inkscape:connector-curvature="0" />
    <path
       d="m 48.604188,94.412027 -4.509045,-2.09846 -1.234105,1.2341 2.098459,4.50905 1.085244,-1.08525 -0.326534,-0.60504 1.157274,-1.15728 0.605047,0.32654 z m -4.230531,-0.53302 0.01921,-0.0192 1.522223,0.83074 -0.715493,0.71549 z"
       style="font-style:normal;font-variant:normal;font-weight:normal;font-stretch:normal;font-size:medium;line-height:125%;font-family:'Archivo Black';-inkscape-font-specification:'Archivo Black, ';text-align:start;letter-spacing:0px;word-spacing:0px;writing-mode:lr-tb;text-anchor:start;fill:none;fill-opacity:1;stroke:#0000ff;stroke-width:0.17638889;stroke-linecap:butt;stroke-linejoin:miter;stroke-miterlimit:4;stroke-dasharray:none;stroke-opacity:1"
       id="path6202"
       inkscape:connector-curvature="0" />
    <path
       d="m 48.16886,91.063407 -1.411778,-1.41178 -1.061234,1.06123 3.303751,3.30375 1.061235,-1.06123 -0.739503,-0.7395 0.105643,-1.04683 1.896776,0.52341 1.253313,-1.25331 -3.154891,-0.7347 -0.17287,-2.54504 -1.315739,1.31574 z"
       style="font-style:normal;font-variant:normal;font-weight:normal;font-stretch:normal;font-size:medium;line-height:125%;font-family:'Archivo Black';-inkscape-font-specification:'Archivo Black, ';text-align:start;letter-spacing:0px;word-spacing:0px;writing-mode:lr-tb;text-anchor:start;fill:none;fill-opacity:1;stroke:#0000ff;stroke-width:0.17638889;stroke-linecap:butt;stroke-linejoin:miter;stroke-miterlimit:4;stroke-dasharray:none;stroke-opacity:1"
       id="path6204"
       inkscape:connector-curvature="0" />
    <path
       d="m 53.004363,90.011847 2.890783,-2.89078 -0.792324,-0.79233 -1.829549,1.82955 -0.504206,-0.5042 1.536629,-1.53663 -0.758711,-0.75871 -1.536628,1.53663 -0.456187,-0.45619 1.795935,-1.79594 -0.792324,-0.79232 -2.857169,2.85717 z"
       style="font-style:normal;font-variant:normal;font-weight:normal;font-stretch:normal;font-size:medium;line-height:125%;font-family:'Archivo Black';-inkscape-font-specification:'Archivo Black, ';text-align:start;letter-spacing:0px;word-spacing:0px;writing-mode:lr-tb;text-anchor:start;fill:none;fill-opacity:1;stroke:#0000ff;stroke-width:0.17638889;stroke-linecap:butt;stroke-linejoin:miter;stroke-miterlimit:4;stroke-dasharray:none;stroke-opacity:1"
       id="path6206"
       inkscape:connector-curvature="0" />
    <path
       style="fill:none;stroke:#0000ff;stroke-width:0.17638889;stroke-miterlimit:4;stroke-dasharray:none;stroke-opacity:1"
       inkscape:connector-curvature="0"
       d="m 76.893862,82.516207 c -0.123532,0.003 -0.252716,0.0475 -0.363305,0.14684 l -1.584221,1.94131 c 0.33689,0.14933 0.706628,0.15171 1.101476,0.14639 0.490281,-0.67343 1.033808,-1.40876 1.144397,-1.5126 0.391818,-0.36758 0.07238,-0.73099 -0.298347,-0.72198 z m -4.374191,1.1245 c -0.04104,6.5e-4 -0.08937,0.002 -0.143154,0.007 -0.214953,0.016 -0.518217,0.0612 -0.869892,0.12796 -0.703351,0.13341 -1.605682,0.35133 -2.491301,0.58211 -1.33056,0.34681 -2.381532,0.65257 -2.943164,0.81796 0.08491,0.0574 0.181245,0.11137 0.303754,0.15847 0.332711,0.12804 0.800629,0.20096 1.357387,0.20555 1.113681,0.009 2.576743,-0.24733 4.090675,-0.70319 l 0.35307,0.62666 c -0.846135,0.76162 -1.051669,1.37502 -1.054003,1.80209 -0.0023,0.42708 0.242765,0.72191 0.298879,0.76265 0.430972,0.31344 1.021275,0.29142 1.751823,-0.004 0.730592,-0.29605 1.544861,-0.86325 2.271599,-1.50523 l 0.377642,-0.3335 0.203691,0.46077 c 0.526898,1.19239 1.03598,2.27352 1.658436,2.97318 0.534926,0.60124 1.112738,0.93741 1.952854,0.91108 -0.360688,-1.12506 -0.572447,-1.94897 -0.878985,-2.62934 -0.346804,-0.76965 -0.820823,-1.41105 -1.877732,-2.28773 -0.131974,-0.1094 -0.389114,-0.13051 -0.797477,-0.12472 -0.408281,0.006 -0.932886,0.0236 -1.46511,-0.22195 -0.582029,-0.26836 -0.890044,-0.54352 -1.132235,-0.80772 -0.234982,-0.25633 -0.414794,-0.48747 -0.844988,-0.80863 -0.0063,-0.002 -0.0082,-0.004 -0.02269,-0.006 -0.02444,-0.002 -0.05816,-0.003 -0.09912,-0.002 z m -1.666468,2.22082 c -0.791249,0.18937 -1.552762,0.3198 -2.251935,0.37893 -0.0065,0.0403 -0.01495,0.0812 -0.0261,0.12259 -0.09805,0.36422 -0.342337,0.61519 -0.545577,0.56057 -0.18239,-0.0491 -0.269306,-0.32775 -0.214502,-0.64758 -0.02929,0 -0.05886,3.2e-4 -0.08782,0 -0.38985,-0.003 -0.751602,-0.0344 -1.080381,-0.10135 -0.164655,0.19581 -0.318989,0.40444 -0.459971,0.62772 -0.295316,0.46778 -0.36679,1.08367 -0.492617,1.69325 0.02102,-0.007 0.04178,-0.01 0.06214,-0.011 0.0224,-9.7e-4 0.04423,0.001 0.0652,0.008 0.20324,0.0548 0.288516,0.39432 0.19046,0.75855 -0.09572,0.35473 -0.330828,0.60344 -0.532142,0.56286 -0.225111,1.80189 -0.238382,3.81342 -0.24854,5.68308 -0.012,2.22222 -0.194352,4.07577 1.104259,5.286953 3.509875,0.98601 8.037666,-2.261363 10.730774,-5.004043 -0.09765,0.031 -0.184806,0.0245 -0.249689,-0.0187 -0.175059,-0.1169 -0.147043,-0.46597 0.06246,-0.77964 0.156466,-0.23421 0.377235,-0.39088 0.555818,-0.39439 0.05365,-9.7e-4 0.101327,0.0119 0.140612,0.0381 0.130947,0.0878 0.151549,0.3112 0.05201,0.56189 0.960903,-1.0544 1.597205,-1.97358 1.726348,-2.45602 0.08376,-0.51226 0.09872,-1.00305 0.05964,-1.47173 -0.0512,-0.003 -0.102066,-0.007 -0.152247,-0.0116 -0.0083,0.12469 -0.04678,0.26567 -0.117222,0.40468 -0.170639,0.33642 -0.461121,0.53203 -0.648877,0.43692 -0.187715,-0.0952 -0.201601,-0.44502 -0.03105,-0.78145 0.0381,-0.0751 0.08274,-0.14356 0.13107,-0.20371 -0.360564,-0.12067 -0.687173,-0.30506 -0.980317,-0.53858 0.04964,0.16256 -0.006,0.41087 -0.159455,0.64053 -0.209504,0.31367 -0.521286,0.47316 -0.696308,0.35625 -0.175098,-0.11687 -0.147124,-0.4659 0.06246,-0.77955 0.156466,-0.23431 0.377235,-0.39093 0.555818,-0.39445 0.01122,-3.2e-4 0.02204,6.5e-4 0.03277,0.001 -0.09602,-0.0887 -0.188127,-0.18263 -0.276068,-0.28151 -0.525711,-0.59087 -0.938291,-1.34471 -1.324617,-2.16305 -0.11223,0.1511 -0.251614,0.23226 -0.375883,0.1988 -0.149584,-0.0402 -0.234943,-0.23491 -0.230722,-0.47998 -0.565524,0.43085 -1.159312,0.80207 -1.752443,1.0424 -3.24e-4,0 -9.72e-4,3.2e-4 -0.0013,3.2e-4 -0.102396,0.35039 -0.339468,0.5887 -0.537957,0.53535 -0.112473,-0.0303 -0.188535,-0.14807 -0.217698,-0.30875 -0.609555,0.11589 -1.207639,0.0525 -1.705541,-0.30956 -0.287698,-0.20924 -0.554792,-0.61552 -0.596201,-1.19431 -0.116038,0.17476 -0.26771,0.2723 -0.401811,0.23626 -0.203321,-0.0546 -0.288638,-0.39432 -0.190582,-0.75858 0.08643,-0.32103 0.289294,-0.56069 0.480533,-0.56774 0.0224,-9.7e-4 0.04423,10e-4 0.06521,0.008 0.07733,0.0208 0.137458,0.0831 0.177025,0.17198 0.07508,-0.21116 0.183252,-0.43097 0.330869,-0.65687 z m -2.117016,1.38851 c 0.0224,-9.7e-4 0.04423,10e-4 0.06513,0.008 0.20328,0.0548 0.288557,0.39431 0.190461,0.75855 -0.09801,0.36419 -0.342297,0.61515 -0.545577,0.56048 -0.20324,-0.0546 -0.288517,-0.39432 -0.19046,-0.75854 0.08642,-0.32104 0.289253,-0.56074 0.480451,-0.56782 z m -1.449873,0.17641 c 0.02236,-9.8e-4 0.04416,0.001 0.06513,0.008 0.20328,0.0546 0.288598,0.39433 0.190542,0.75859 -0.09805,0.36422 -0.342296,0.61519 -0.545577,0.56057 -0.20328,-0.0547 -0.288598,-0.39433 -0.190542,-0.75859 0.08643,-0.32103 0.289172,-0.56077 0.480452,-0.56786 z m 7.70524,0.57039 c 0.02234,-9.7e-4 0.04411,0.001 0.06513,0.008 0.203157,0.0548 0.288474,0.39433 0.190461,0.75855 -0.09806,0.36427 -0.342337,0.61524 -0.545579,0.56058 -0.203279,-0.0548 -0.288557,-0.39432 -0.19046,-0.7586 0.08643,-0.32103 0.289174,-0.56068 0.48045,-0.56777 z m -5.532888,0.77268 c 0.02236,-9.7e-4 0.04416,0.001 0.06513,0.008 0.203321,0.0548 0.28864,0.39433 0.190542,0.75867 -0.0981,0.36431 -0.342418,0.61524 -0.545698,0.5605 -0.203241,-0.0548 -0.288518,-0.39433 -0.190461,-0.7586 0.08643,-0.32103 0.289254,-0.56065 0.480451,-0.56773 z m 1.811788,0.38233 c 0.02242,-9.7e-4 0.04423,10e-4 0.06513,0.008 0.203361,0.0546 0.28868,0.39423 0.190623,0.7585 -0.0981,0.36431 -0.342418,0.61523 -0.545698,0.56049 -0.203157,-0.0548 -0.288476,-0.39433 -0.19046,-0.75859 0.08643,-0.32103 0.289293,-0.56065 0.48045,-0.56774 z m 2.758887,0.39895 c 0.02237,-9.7e-4 0.04416,10e-4 0.06513,0.008 0.203283,0.0546 0.288599,0.39424 0.190544,0.75855 -0.0981,0.36431 -0.342421,0.61527 -0.545701,0.56057 -0.203239,-0.0547 -0.288515,-0.39433 -0.19046,-0.75859 0.08643,-0.32103 0.289173,-0.56073 0.480453,-0.56781 z m 1.613097,0.0729 c 0.0224,-9.7e-4 0.04423,10e-4 0.06521,0.008 0.20324,0.0547 0.288517,0.39432 0.190459,0.75858 -0.09806,0.36424 -0.342294,0.6152 -0.545574,0.56057 -0.203323,-0.0548 -0.288642,-0.39431 -0.190584,-0.75858 0.08643,-0.32103 0.289173,-0.56074 0.48045,-0.56782 z m -8.095829,0.12202 c 0.02236,-9.7e-4 0.04423,0.001 0.06513,0.008 0.203322,0.0546 0.288599,0.39433 0.190541,0.75859 -0.0981,0.36423 -0.342336,0.61515 -0.545575,0.56049 -0.203321,-0.0546 -0.28864,-0.39432 -0.190584,-0.75859 0.08643,-0.32102 0.289254,-0.56066 0.480451,-0.56774 z m 4.963231,0.77267 c 0.02237,-9.7e-4 0.04423,10e-4 0.06513,0.008 0.203281,0.0546 0.288557,0.39433 0.190461,0.75851 -0.09798,0.36427 -0.342256,0.61524 -0.545576,0.56057 -0.203241,-0.0546 -0.28856,-0.39433 -0.190459,-0.75859 0.08634,-0.32103 0.28917,-0.5607 0.48045,-0.56778 z m -6.468521,0.61013 c 0.02236,-9.8e-4 0.04416,0.001 0.06513,0.008 0.20328,0.0546 0.288598,0.39433 0.190542,0.75859 -0.09805,0.36423 -0.342337,0.6152 -0.545576,0.56057 -0.203322,-0.0546 -0.288641,-0.39432 -0.190584,-0.75859 0.08643,-0.32103 0.289254,-0.56074 0.480451,-0.56782 z m 8.591023,0.24282 c 0.02237,-9.9e-4 0.04416,0.001 0.06513,0.008 0.20328,0.0546 0.288596,0.39433 0.190541,0.75855 -0.09805,0.36431 -0.342417,0.61531 -0.545658,0.56057 -0.20328,-0.0548 -0.288557,-0.39433 -0.190461,-0.75855 0.08643,-0.32103 0.289173,-0.56069 0.48045,-0.56778 z m -4.436902,0.11079 c 0.210243,0.011 0.364782,0.32512 0.345122,0.70192 -0.01958,0.37672 -0.205944,0.67326 -0.416145,0.66228 -0.210284,-0.011 -0.364824,-0.3252 -0.345164,-0.70196 0.01966,-0.37671 0.206025,-0.67326 0.416228,-0.66227 z m -1.871015,0.45689 c 0.02245,-9.7e-4 0.04423,10e-4 0.06525,0.008 0.20324,0.0548 0.288516,0.39431 0.190461,0.75858 -0.09806,0.36427 -0.342337,0.61524 -0.545577,0.56057 -0.203321,-0.0546 -0.28868,-0.39432 -0.190583,-0.75863 0.08643,-0.32103 0.289254,-0.56069 0.480452,-0.56773 z m 8.075101,0.2895 c 0.05366,-9.7e-4 0.101372,0.0119 0.140697,0.0381 0.175059,0.11686 0.147044,0.46597 -0.06259,0.77964 -0.209545,0.31365 -0.521328,0.47318 -0.696387,0.35632 -0.175059,-0.11691 -0.147043,-0.46598 0.06251,-0.77964 0.156466,-0.23423 0.377233,-0.39088 0.555817,-0.39441 z m 1.958095,0.27304 c 0.0417,10e-4 0.07946,0.0128 0.112026,0.0327 0.179605,0.10972 0.165717,0.45959 -0.03105,0.78147 -0.196729,0.32194 -0.501876,0.49391 -0.68148,0.3841 -0.179646,-0.10973 -0.165764,-0.45959 0.03095,-0.78145 0.146963,-0.24036 0.361177,-0.40578 0.539432,-0.41651 0.01025,-6.4e-4 0.02029,-6.4e-4 0.03012,-3.2e-4 z m -6.553262,0.20899 c 0.02237,-9.7e-4 0.04416,10e-4 0.06513,0.008 0.20328,0.0546 0.288599,0.39431 0.190541,0.75858 -0.09806,0.36427 -0.342418,0.61528 -0.545659,0.56057 -0.203281,-0.0548 -0.288558,-0.39432 -0.19046,-0.75859 0.08643,-0.32103 0.289173,-0.56069 0.480453,-0.56777 z m 1.991433,0.4105 c 0.05366,-9.7e-4 0.101295,0.0119 0.140574,0.0381 0.17506,0.11694 0.147125,0.46599 -0.06246,0.77964 -0.209587,0.31373 -0.521408,0.47327 -0.696468,0.3564 -0.175061,-0.11694 -0.147044,-0.46606 0.06255,-0.77971 0.156463,-0.23422 0.377235,-0.39089 0.555815,-0.39446 z m -7.537964,0.42307 c 0.0224,-9.8e-4 0.04423,0.001 0.06513,0.008 0.203322,0.0546 0.28864,0.39432 0.190583,0.75855 -0.09805,0.36431 -0.342418,0.61527 -0.545658,0.56056 -0.203239,-0.0547 -0.288516,-0.39432 -0.190459,-0.75858 0.08642,-0.32103 0.289253,-0.5607 0.48045,-0.56774 z m 9.03994,0.39023 c 0.05366,-9.8e-4 0.101328,0.0118 0.140612,0.0381 0.175019,0.11686 0.147044,0.46598 -0.06258,0.77964 -0.209589,0.31365 -0.521329,0.47314 -0.696389,0.35624 -0.17506,-0.11683 -0.147043,-0.46586 0.06246,-0.77956 0.156543,-0.23433 0.377233,-0.39096 0.555813,-0.39448 z m -5.371226,0.0411 c 0.02233,-9.7e-4 0.04411,10e-4 0.06513,0.008 0.203239,0.0547 0.288558,0.39432 0.19046,0.75856 -0.09801,0.36431 -0.342337,0.61527 -0.545576,0.56057 -0.20328,-0.0548 -0.288557,-0.39433 -0.190461,-0.7586 0.08634,-0.32102 0.289172,-0.56072 0.480451,-0.56781 z m -2.151503,0.24201 c 0.02236,-9.7e-4 0.04416,0.001 0.06513,0.008 0.203281,0.0546 0.288598,0.39432 0.190542,0.75855 -0.0981,0.3643 -0.342419,0.61522 -0.545659,0.56048 -0.20328,-0.0548 -0.288557,-0.39432 -0.19046,-0.75855 0.08643,-0.32102 0.289173,-0.56065 0.480452,-0.56773 z m 4.884794,0.68562 c 0.05366,-9.7e-4 0.101328,0.0119 0.140612,0.0381 0.175059,0.11687 0.147044,0.46591 -0.06246,0.77964 -0.209631,0.31366 -0.52141,0.47319 -0.696469,0.35625 -0.175021,-0.11691 -0.147043,-0.46598 0.06255,-0.77964 0.156463,-0.23422 0.377234,-0.39085 0.555733,-0.39441 z m 1.237622,0.92266 c 0.05366,-9.7e-4 0.101371,0.0119 0.140655,0.0381 0.175017,0.11694 0.14704,0.46597 -0.06258,0.77963 -0.209549,0.31367 -0.521289,0.47315 -0.696307,0.35633 -0.175182,-0.11686 -0.147208,-0.46598 0.06243,-0.77972 0.156547,-0.23422 0.377234,-0.39084 0.555817,-0.39432 z m 1.647665,0.061 c 0.05366,-9.7e-4 0.101327,0.0119 0.140612,0.0381 0.175017,0.11695 0.147043,0.46599 -0.06255,0.77964 -0.209546,0.31366 -0.521286,0.47315 -0.696303,0.35624 -0.175102,-0.11687 -0.147129,-0.4659 0.06242,-0.77955 0.156548,-0.23435 0.377235,-0.39097 0.555818,-0.39449 z m -5.334689,0.0165 c 0.02245,-9.7e-4 0.04423,10e-4 0.06521,0.008 0.20328,0.0548 0.288558,0.39432 0.19046,0.75856 -0.09801,0.36422 -0.342296,0.61514 -0.545576,0.56048 -0.203281,-0.0546 -0.288599,-0.39424 -0.190543,-0.75855 0.08643,-0.32103 0.289254,-0.56065 0.480452,-0.56774 z m -3.884283,0.51251 c 0.02236,-9.7e-4 0.04416,0.001 0.06513,0.008 0.203322,0.0548 0.288641,0.39441 0.190543,0.75875 -0.09814,0.36423 -0.342419,0.6152 -0.545699,0.56041 -0.203281,-0.0548 -0.288557,-0.39432 -0.190461,-0.75854 0.08643,-0.32095 0.289172,-0.56066 0.480452,-0.5677 z m 1.950682,0.42642 c 0.0224,-9.7e-4 0.04423,10e-4 0.06513,0.008 0.203322,0.0548 0.288599,0.39433 0.190543,0.7586 -0.09805,0.36422 -0.342337,0.61519 -0.545576,0.56056 -0.203362,-0.0546 -0.28868,-0.39432 -0.190583,-0.75866 0.08642,-0.32104 0.289295,-0.5607 0.480533,-0.56775 z m 3.068171,0.79356 c 0.05366,-9.7e-4 0.101327,0.0119 0.140612,0.0381 0.17506,0.11691 0.147125,0.46598 -0.06246,0.77964 -0.209588,0.31365 -0.521409,0.47319 -0.696469,0.35624 -0.175019,-0.1169 -0.147044,-0.46598 0.06255,-0.77963 0.156547,-0.23423 0.377234,-0.39081 0.555815,-0.39432 z m 1.684773,0.26731 c 0.05366,-9.7e-4 0.101338,0.0119 0.140612,0.0381 0.175144,0.11683 0.147167,0.46598 -0.06246,0.77964 -0.209551,0.31374 -0.521413,0.47327 -0.696432,0.35632 -0.175059,-0.11687 -0.147043,-0.4659 0.06246,-0.77964 0.156544,-0.23421 0.377235,-0.39088 0.555814,-0.39439 z m -6.174761,1.11565 c 0.02233,-9.7e-4 0.04411,0.001 0.06513,0.008 0.203239,0.0546 0.288557,0.39432 0.19046,0.75855 -0.09802,0.364273 -0.342255,0.615243 -0.545577,0.560573 -0.20328,-0.0546 -0.288598,-0.394333 -0.190541,-0.758593 0.08643,-0.32103 0.289252,-0.5607 0.480451,-0.56778 z m 2.554133,0.39956 c 0.05366,-9.7e-4 0.101372,0.0119 0.140654,0.0381 0.17506,0.11686 0.147043,0.46589 -0.06251,0.779643 -0.209548,0.31365 -0.52141,0.47322 -0.696471,0.35632 -0.175058,-0.11691 -0.147042,-0.46598 0.06258,-0.779643 0.156464,-0.23422 0.377235,-0.39088 0.555734,-0.39441 z"
       id="path8093" />
    <path
       style="font-style:normal;font-variant:normal;font-weight:normal;font-stretch:normal;font-size:medium;line-height:125%;font-family:'Archivo Black';-inkscape-font-specification:'Archivo Black, ';text-align:start;letter-spacing:0px;word-spacing:0px;writing-mode:lr-tb;text-anchor:start;fill:none;fill-opacity:1;stroke:#0000ff;stroke-width:0.17638889;stroke-linecap:butt;stroke-linejoin:miter;stroke-miterlimit:4;stroke-dasharray:none;stroke-opacity:1"
       d="m 153.29755,83.412658 -2.55126,2.551263 -2.88303,0.961184 v 1.131713 l 0.83199,0.221691 0.21291,2.346627 -1.4118,-1.411801 -1.06092,1.061435 3.30367,3.303674 1.06144,-1.061434 -0.73949,-0.739489 0.10542,-1.046964 1.89704,0.523481 1.25315,-1.253152 -3.15484,-0.73484 -0.0413,-0.607198 6.22856,1.660364 v -3.3507 l 0.28577,-0.285771 -0.28577,-0.285771 v -2.300634 l -3.22616,1.075386 0.96686,-0.966865 z m -9.11158,0.434081 -3.11144,1.555977 v 3.502628 h 6.22287 v -3.502628 z m -2.54559,1.947169 h 1.11053 l 0.0109,2.26291 h -1.12138 z m 1.67639,0 h 1.69705 l 0.0109,2.26291 h -1.69706 z m 2.26291,0 h 1.15238 v 2.26291 h -1.14153 z m -3.39824,3.711916 5.3e-4,5.29e-4 -1.33946,6.360851 -0.8971,0.89762 0.58498,0.584978 -0.47749,2.268596 h 2.74607 l 0.4501,0.450102 0.4501,-0.450102 h 4.62039 l -0.003,-0.0155 0.004,0.0031 c 0.25907,-0.37415 0.92731,-0.80995 1.62781,-0.997871 0.36029,0.66217 1.05227,1.080553 1.87482,1.080553 h 0.14573 l 0.0951,-0.110588 c 0.40119,-0.463989 0.67176,-0.858012 1.2671,-0.986501 0.36365,0.697349 1.11763,1.097089 1.88619,1.097089 h 0.18552 l 0.092,-0.161229 c 0.31044,-0.54814 0.39425,-0.636138 1.01958,-1.016476 l -0.33125,-0.543637 c -0.58128,0.353581 -0.85003,0.614074 -1.13378,1.072804 -0.54832,-0.0577 -1.04672,-0.391311 -1.22835,-0.906923 l -0.0832,-0.234609 -0.24753,0.02326 c -0.92302,0.0866 -1.40526,0.652775 -1.80505,1.121894 -0.6207,-0.0436 -1.05482,-0.375409 -1.26194,-0.918289 l -0.0941,-0.246497 -0.26097,0.04754 c -0.73437,0.133662 -1.43127,0.470886 -1.91255,0.912606 l -0.80149,-3.807519 0.26096,-0.260966 0.60461,0.326596 1.12397,-1.123447 -2.45308,-1.141532 -0.70022,-3.326413 z m 0.27233,1.945101 h 0.63614 v 1.697056 h -0.63614 z m 2.82825,5.271513 0.41703,0.89607 0.21963,-0.219626 v 0.274921 h -0.63666 z"
       id="path6222"
       inkscape:connector-curvature="0" />
    <path
       d="m 102.85994,89.929457 2.89078,-2.89078 -0.79232,-0.79233 -1.82955,1.82955 -0.50421,-0.5042 1.53663,-1.53663 -0.75871,-0.75871 -1.53663,1.53663 -0.45618,-0.45619 1.79593,-1.79594 -0.79232,-0.79232 -2.857166,2.85717 z m -4.835506,1.05156 -1.41177,-1.41178 -1.06124,1.06123 3.30375,3.30375 1.06124,-1.06123 -0.7395,-0.7395 0.10564,-1.04683 1.896776,0.52341 1.25331,-1.25331 -3.154886,-0.7347 -0.17287,-2.54504 -1.31574,1.31574 z m 0.43533,3.34862 -4.50904,-2.09846 -1.23411,1.2341 2.09846,4.50905 1.08525,-1.08525 -0.32654,-0.60504 1.15728,-1.15728 0.60504,0.32654 z m -4.23053,-0.53302 0.0192,-0.0192 1.52222,0.83074 -0.71549,0.71549 z m -1.86421,6.627763 1.06123,-1.061233 -1.18608,-1.18609 1.38296,-1.38297 -0.75871,-0.75871 -1.38296,1.38297 -0.56663,-0.56663 1.60865,-1.60866 -0.79232,-0.79232 -2.66989,2.66989 z"
       style="font-style:normal;font-variant:normal;font-weight:normal;font-stretch:normal;font-size:medium;line-height:125%;font-family:'Archivo Black';-inkscape-font-specification:'Archivo Black, ';text-align:start;letter-spacing:0px;word-spacing:0px;writing-mode:lr-tb;text-anchor:start;fill:none;fill-opacity:1;stroke:#0000ff;stroke-width:0.17638889;stroke-linecap:butt;stroke-linejoin:miter;stroke-miterlimit:4;stroke-dasharray:none;stroke-opacity:1"
       id="path6269"
       inkscape:connector-curvature="0" />
    <path
       style="fill:none;stroke:#0000ff;stroke-width:0.17638889;stroke-miterlimit:4;stroke-dasharray:none;stroke-opacity:1"
       inkscape:connector-curvature="0"
       d="m 118.96254,83.846847 -3.11144,1.55572 v 3.50256 h 6.22287 v -3.50259 l -3.11143,-1.55572 z m 12.16289,0.2497 -8.48574,2.82858 v 1.13143 l 8.48574,2.26286 z m -14.70862,1.69714 h 1.11043 l 0.0111,2.26287 h -1.12149 z m 1.67615,0 h 1.69715 l 0.0111,2.26287 h -1.69715 z m 2.26286,0 h 1.15244 v 2.26287 h -1.14133 z m -3.39762,3.71251 -2.12914,10.11218 h 8.26695 l -0.003,-0.0155 0.004,0.003 c 0.25906,-0.37415 0.92707,-0.80986 1.62757,-0.99778 0.36029,0.66217 1.05244,1.08066 1.87499,1.08066 h 0.14585 l 0.095,-0.1105 c 0.4012,-0.46399 0.67197,-0.85818 1.26731,-0.98667 0.36365,0.69735 1.11757,1.09717 1.88613,1.09717 h 0.18563 l 0.0917,-0.16134 c 0.31044,-0.54814 0.39452,-0.63618 1.01985,-1.01652 l -0.33147,-0.54362 c -0.58128,0.35358 -0.84992,0.61416 -1.13367,1.07289 -0.54832,-0.0577 -1.04703,-0.39152 -1.22866,-0.90713 l -0.0829,-0.23424 -0.2475,0.0232 c -0.92303,0.0866 -1.40562,0.65241 -1.80541,1.12153 -0.6207,-0.0436 -1.05471,-0.37535 -1.26183,-0.91823 l -0.0939,-0.24633 -0.26076,0.0475 c -0.73437,0.13366 -1.43133,0.47096 -1.91261,0.91268 l -1.96562,-9.33328 h -4.00863 z m 0.27183,1.94465 h 0.63643 v 1.69715 h -0.63643 z m 2.82858,4.52573 h 0.63643 v 1.69715 h -0.63643 z"
       id="path4838" />
    <path
       inkscape:connector-curvature="0"
       d="m 153.74388,89.573537 2.89078,-2.89078 -0.79232,-0.79233 -1.82955,1.82955 -0.50421,-0.5042 1.53663,-1.53663 -0.75871,-0.75871 -1.53663,1.53663 -0.45618,-0.45619 1.79593,-1.79594 -0.79232,-0.79232 -2.85717,2.85717 z m -4.83551,1.05156 -1.41177,-1.41178 -1.06124,1.06123 3.30375,3.30375 1.06124,-1.06123 -0.7395,-0.7395 0.10564,-1.04683 1.89678,0.52341 1.25331,-1.25331 -3.15489,-0.7347 -0.17287,-2.54504 -1.31574,1.31574 z m 0.43533,3.34862 -4.50904,-2.09846 -1.23411,1.2341 2.09846,4.50905 1.08525,-1.08525 -0.32654,-0.60504 1.15728,-1.15728 0.60504,0.32654 z m -4.23053,-0.53302 0.0192,-0.0192 1.52222,0.83074 -0.71549,0.71549 z m -1.86421,6.627763 1.06123,-1.061233 -1.18608,-1.18609 1.38296,-1.38297 -0.75871,-0.75871 -1.38296,1.38297 -0.56663,-0.56663 1.60865,-1.60866 -0.79232,-0.79232 -2.66989,2.66989 z"
       style="font-style:normal;font-variant:normal;font-weight:normal;font-stretch:normal;font-size:medium;line-height:125%;font-family:'Archivo Black';-inkscape-font-specification:'Archivo Black, ';text-align:start;letter-spacing:0px;word-spacing:0px;writing-mode:lr-tb;text-anchor:start;fill:none;fill-opacity:1;stroke:#0000ff;stroke-width:0.17638889;stroke-linecap:butt;stroke-linejoin:miter;stroke-miterlimit:4;stroke-dasharray:none;stroke-opacity:1"
       id="path6279" />
    <g
       id="g5392"
       transform="translate(22.115906,-164.47113)">
      <rect
         ry="2.2343702"
         y="243.59985"
         x="214.63307"
         height="25.223612"
         width="25.223612"
         id="rect6109"
         style="opacity:1;fill:none;fill-opacity:1;stroke:#ff0000;stroke-width:0.1763889;stroke-linecap:round;stroke-linejoin:round;stroke-miterlimit:4;stroke-dasharray:none;stroke-opacity:1" />
      <rect
         style="opacity:1;fill:none;fill-opacity:1;stroke:#0000ff;stroke-width:0.1763889;stroke-linecap:round;stroke-linejoin:round;stroke-miterlimit:4;stroke-dasharray:none;stroke-opacity:1"
         id="rect6113"
         width="22.245659"
         height="22.245659"
         x="216.12206"
         y="245.08884"
         ry="0" />
      <rect
         ry="0"
         y="246.55432"
         x="217.58752"
         height="19.314692"
         width="19.314692"
         id="rect6115"
         style="opacity:1;fill:none;fill-opacity:1;stroke:#0000ff;stroke-width:0.1763889;stroke-linecap:round;stroke-linejoin:round;stroke-miterlimit:4;stroke-dasharray:none;stroke-opacity:1" />
      <path
         inkscape:connector-curvature="0"
         d="m 232.69882,254.04466 2.89078,-2.89078 -0.79232,-0.79233 -1.82955,1.82955 -0.50421,-0.5042 1.53663,-1.53663 -0.75871,-0.75871 -1.53663,1.53663 -0.45618,-0.45619 1.79593,-1.79594 -0.79232,-0.79232 -2.85717,2.85717 z m -4.83551,1.05156 -1.41177,-1.41178 -1.06124,1.06123 3.30375,3.30375 1.06124,-1.06123 -0.7395,-0.7395 0.10564,-1.04683 1.89678,0.52341 1.25331,-1.25331 -3.15489,-0.7347 -0.17287,-2.54504 -1.31574,1.31574 z m 0.43533,3.34862 -4.50904,-2.09846 -1.23411,1.2341 2.09846,4.50905 1.08525,-1.08525 -0.32654,-0.60504 1.15728,-1.15728 0.60504,0.32654 z m -4.23053,-0.53302 0.0192,-0.0192 1.52222,0.83074 -0.71549,0.71549 z m -1.86421,6.62776 1.06123,-1.06123 -1.18608,-1.18609 1.38296,-1.38297 -0.75871,-0.75871 -1.38296,1.38297 -0.56663,-0.56663 1.60865,-1.60866 -0.79232,-0.79232 -2.66989,2.66989 z"
         style="font-style:normal;font-variant:normal;font-weight:normal;font-stretch:normal;font-size:medium;line-height:125%;font-family:'Archivo Black';-inkscape-font-specification:'Archivo Black, ';text-align:start;letter-spacing:0px;word-spacing:0px;writing-mode:lr-tb;text-anchor:start;fill:none;fill-opacity:1;stroke:#0000ff;stroke-width:0.17638889;stroke-linecap:butt;stroke-linejoin:miter;stroke-miterlimit:4;stroke-dasharray:none;stroke-opacity:1"
         id="path6285" />
      <path
         inkscape:connector-curvature="0"
         id="path6287"
         transform="matrix(0.26458334,0,0,0.26458334,0,68.399983)"
         d="m 877.80469,678.36328 -10.79883,10.79883 12.48633,12.48633 10.92578,-10.92578 -2.99609,-2.99414 -6.91407,6.91601 -1.90625,-1.90625 5.8086,-5.80859 -2.86719,-2.86719 -5.80859,5.80859 -1.72461,-1.72461 6.78906,-6.78906 z m -30.87696,1.61524 -8.80859,21.99023 h 16.07813 l -2.06446,2.06641 h -14.67969 v 14.72656 l -0.0234,-0.0234 -2.04297,2.04297 v -8.30469 c -0.76872,0.73119 -1.69007,1.68422 -2.58789,2.64649 -1.69898,1.82086 -3.10808,3.43521 -3.44336,3.82031 v 7.86914 l -2.01563,2.01562 2.01563,2.01563 v 9.41992 h 6.03125 V 736.875 l 2.0664,2.06641 v 1.32226 h 1.32227 l 1.05078,1.05078 1.05078,-1.05078 h 1.91602 v -1.91601 l 1.04297,-1.04297 -1.04297,-1.04297 v -5.30274 c 1.52239,-1.67924 3.09413,-2.5188 4.73047,-2.25976 l 1.5625,3.35547 1.54687,-1.54688 c 0.14312,0.14388 0.28553,0.28949 0.42969,0.45117 v 9.30469 h 5.16797 v -18.87305 l 0.0977,-0.0977 1.96876,1.0625 v 17.9082 h 6.20117 v -21.32031 c -0.33525,-0.38536 -1.74244,-1.99945 -3.44141,-3.82031 -0.95607,-1.02482 -1.9466,-2.049 -2.74219,-2.79493 -0.008,-0.008 -0.01,-0.008 -0.0176,-0.0156 v 3.8418 l -2.06641,-0.96094 v -6.5332 l 8.125,8.125 4.01172,-4.01172 -2.79492,-2.79492 0.39843,-3.95508 7.16992,1.97851 4.73633,-4.73828 -11.92383,-2.77539 -0.65429,-9.61914 -4.97266,4.97266 0.88867,9.78125 -5.33593,-5.33594 -0.58203,0.58203 z m -5.16796,26.16796 h 2.0664 v 4.13477 h -2.0664 z m 4.13476,0 h 2.06641 v 4.13477 h -2.06641 z m 4.13281,0 h 2.06836 v 4.13477 h -2.06836 z m -8.52148,9.62305 0.98828,2.12109 c -0.29148,0.47851 -0.51398,1.00123 -0.62305,1.56641 h 1.35157 l 1.86523,4.00977 L 844,724.4082 c 0.52505,0.34621 1.11998,0.60159 1.76367,0.74219 v -0.23437 l 1.10742,2.38086 c -1.25538,-0.009 -2.43598,-0.3278 -3.46484,-0.87696 l -1.69336,-1.69336 -0.2168,0.2168 c -0.71823,-0.77615 -1.25569,-1.70453 -1.55468,-2.72852 l 0.48242,-0.48242 -0.72266,-0.72265 c -0.021,-0.2138 -0.0332,-0.42958 -0.0332,-0.64844 0,-1.76048 0.69886,-3.36623 1.83789,-4.5918 z m 5.4375,0.42383 1.14648,0.625 v 1.32031 l 0.93555,-0.80859 1.9375,1.05664 -1.23828,1.07031 h 2.25977 c -0.0402,-0.209 -0.10327,-0.40876 -0.16993,-0.60742 l 0.88282,0.48242 -2.44922,2.45117 h -0.39063 l -2.98633,-5.51758 z m 19.62305,3.52148 v 3.87696 h 20.18945 l -3.87695,-3.87696 z M 842,721.7832 c 0.12813,0.4102 0.31021,0.79736 0.53906,1.1543 l 1.33594,-1.1543 z m -4.54688,2.91992 v 4.28321 l -0.96679,0.96679 -1.09961,-1.09765 v -2.08594 z m 29.11329,1.21485 v 14.2168 h 21.83398 v -14.2168 z m 3.22851,2.97265 h 2.32617 v 4.13672 h -2.32617 z m 4.13477,0 h 2.32617 v 4.13672 h -2.32617 z m 4.13476,0 h 2.32617 v 4.13672 h -2.32617 z m 4.13477,0 h 2.32422 v 4.13672 h -2.32422 z"
         style="font-style:normal;font-variant:normal;font-weight:normal;font-stretch:normal;font-size:medium;line-height:125%;font-family:'Archivo Black';-inkscape-font-specification:'Archivo Black, ';text-align:start;letter-spacing:0px;word-spacing:0px;writing-mode:lr-tb;text-anchor:start;fill:none;fill-opacity:1;stroke:#0000ff;stroke-width:0.66666663;stroke-linecap:butt;stroke-linejoin:miter;stroke-miterlimit:4;stroke-dasharray:none;stroke-opacity:1" />
    </g>
    <path
       style="fill:none;stroke:#0000ff;stroke-width:0.17638889;stroke-miterlimit:4;stroke-dasharray:none;stroke-opacity:1"
       inkscape:connector-curvature="0"
       d="m 173.51356,83.905867 -7.75309,7.75208 -0.21429,0.21409 0.42845,0.42837 0.21414,-0.21426 7.32479,-7.32363 7.3248,7.32363 0.21414,0.21426 0.42844,-0.42837 -0.21428,-0.21412 z m -5.38495,0.96679 v 3.60983 l 2.15397,-2.15372 v -1.45611 z m 5.38495,0.69747 -6.46194,6.46097 v 7.58064 h 2.15398 v -5.58605 h 3.23097 v 5.58605 h 7.53895 v -7.58064 z m 1.077,8.45556 h 3.23097 v 2.69207 h -3.23097 z"
       id="path9955" />
    <path
       style="fill:none;stroke:#0000ff;stroke-width:0.17638889;stroke-miterlimit:4;stroke-dasharray:none;stroke-opacity:1"
       d="m 203.7446,83.412658 -2.75022,2.750219 -2.25722,-2.257226 -7.75302,7.752498 -0.21445,0.213939 0.42839,0.428398 0.21446,-0.214456 7.32462,-7.323584 7.32462,7.323584 0.21445,0.214456 0.4284,-0.428398 -0.21446,-0.213939 -2.19211,-2.1916 2.78381,-2.783808 -0.7922,-0.792199 -1.82986,1.829345 -0.50385,-0.504362 1.53634,-1.53634 -0.75861,-0.758611 -1.53634,1.53634 -0.4563,-0.455784 1.79575,-1.796273 z m -10.39264,1.459857 v 3.610118 l 2.15439,-2.153875 v -1.456243 z m 5.3852,0.697632 -6.46214,6.461104 v 2.850991 l -1.88257,1.882572 1.88257,1.882571 v 0.964285 h 0.96428 l 0.45682,0.45682 0.45682,-0.45682 h 0.27647 v -0.276471 l 0.32815,-0.328145 -0.32815,-0.328147 v -1.715656 l 0.52503,-0.525034 -0.52503,-0.525031 v -1.887741 h 0.0444 l 1.67225,3.593063 1.08521,-1.085205 -0.3266,-0.605131 0.75551,-0.75551 v 4.439008 h 7.53908 v -7.580419 l -1.73323,-1.732709 0.29766,-0.297656 -0.77567,-0.180869 -2.51199,-2.510957 -0.0398,-0.588079 -0.27389,0.273886 z m -2.86029,8.455298 h 0.80925 l 0.41548,0.226861 -0.7152,0.715201 z m 3.93722,0 h 3.23082 v 2.692344 h -3.23082 z m -7.53907,2.441197 v 0.05788 l -0.0289,-0.02894 z"
       id="path6296"
       inkscape:connector-curvature="0" />
    <path
       id="path6283"
       style="font-style:normal;font-variant:normal;font-weight:normal;font-stretch:normal;font-size:medium;line-height:125%;font-family:'Archivo Black';-inkscape-font-specification:'Archivo Black, ';text-align:start;letter-spacing:0px;word-spacing:0px;writing-mode:lr-tb;text-anchor:start;fill:none;fill-opacity:1;stroke:#0000ff;stroke-width:0.17638889;stroke-linecap:butt;stroke-linejoin:miter;stroke-miterlimit:4;stroke-dasharray:none;stroke-opacity:1"
       d="m 204.11548,89.573537 2.89078,-2.89078 -0.79232,-0.79233 -1.82955,1.82955 -0.50421,-0.5042 1.53663,-1.53663 -0.75871,-0.75871 -1.53663,1.53663 -0.45618,-0.45619 1.79593,-1.79594 -0.79232,-0.79232 -2.85717,2.85717 z m -4.83551,1.05156 -1.41177,-1.41178 -1.06124,1.06123 3.30375,3.30375 1.06124,-1.06123 -0.7395,-0.7395 0.10564,-1.04683 1.89678,0.52341 1.25331,-1.25331 -3.15489,-0.7347 -0.17287,-2.54504 -1.31574,1.31574 z m 0.43533,3.34862 -4.50904,-2.09846 -1.23411,1.2341 2.09846,4.50905 1.08525,-1.08525 -0.32654,-0.60504 1.15728,-1.15728 0.60504,0.32654 z m -4.23053,-0.53302 0.0192,-0.0192 1.52222,0.83074 -0.71549,0.71549 z m -1.86421,6.627763 1.06123,-1.061233 -1.18608,-1.18609 1.38296,-1.38297 -0.75871,-0.75871 -1.38296,1.38297 -0.56663,-0.56663 1.60865,-1.60866 -0.79232,-0.79232 -2.66989,2.66989 z"
       inkscape:connector-curvature="0" />
    <path
       id="path6305"
       d="m 220.62309,84.554367 -2.3306,5.81821 h 4.6612 z m -2.50664,6.3653 v 9.585283 h 1.41275 v -2.461883 c 0.68485,-0.75541 1.40702,-0.87567 2.18778,0 v 2.461883 h 1.36736 v -9.585283 z m 1.13928,0.55843 h 0.54695 v 1.09416 h -0.54695 z m 1.09389,0 h 0.54695 v 1.09416 h -0.54695 z m 1.09389,0 h 0.54694 v 1.09416 h -0.54694 z m 2.18778,1.6315 v 7.395383 h 1.64083 v -5.641203 c -0.0887,-0.10196 -0.46114,-0.52896 -0.91066,-1.01073 -0.25296,-0.27115 -0.51488,-0.54196 -0.72538,-0.73932 -0.002,-0.002 -0.003,-0.002 -0.005,-0.004 z m -6.06179,0.0433 c -0.20339,0.19346 -0.44726,0.44553 -0.68481,0.70013 -0.44952,0.48177 -0.82195,0.90884 -0.91066,1.01073 v 5.641203 h 1.59544 v -7.352103 z m 3.05359,0.25131 c 1.05742,0 1.92067,0.82473 1.92067,1.83512 0,1.01029 -0.86325,1.83512 -1.92067,1.83512 -1.05741,0 -1.92066,-0.82483 -1.92066,-1.83512 0,-1.01039 0.86325,-1.83512 1.92066,-1.83512 z m -0.30765,0.56808 c -0.16347,0.0358 -0.31552,0.0991 -0.45028,0.18515 l 0.45028,0.44304 v -0.62812 z m 0.61531,0 v 0.67862 l 0.51755,-0.44751 c -0.15065,-0.10952 -0.32626,-0.18929 -0.51755,-0.23114 z m -1.45658,0.56777 c -0.0916,0.13766 -0.15684,0.29303 -0.18904,0.45989 h 0.65633 z m 2.34109,0.0692 -0.45181,0.39068 h 0.59754 c -0.0268,-0.13943 -0.0766,-0.27091 -0.14573,-0.39068 z m 4.00381,0.459 v 1.02578 h 5.34193 l -1.02552,-1.02578 z m -6.49958,0.54708 c 0.0339,0.10853 0.0822,0.21097 0.14275,0.30541 l 0.35312,-0.30541 h -0.49584 z m 2.02745,0 0.38553,0.3794 c 0.085,-0.11403 0.15116,-0.24174 0.19423,-0.3794 z m -1.0315,0.29078 -0.46702,0.40391 c 0.13892,0.0916 0.29671,0.159 0.46702,0.1962 v -0.60008 z m 0.61531,0.0672 v 0.53289 c 0.13961,-0.0305 0.27087,-0.0811 0.39018,-0.14897 z m 4.88832,0.73617 v 3.761193 h 5.7771 v -3.761193 z m 0.8546,0.78643 h 0.61531 v 1.09417 h -0.61531 z m 1.09389,0 h 0.61531 v 1.09417 h -0.61531 z m 1.09388,0 h 0.61532 v 1.09417 h -0.61532 z m 1.09389,0 h 0.61531 v 1.09417 h -0.61531 z"
       inkscape:connector-curvature="0"
       style="fill:none;stroke:#0000ff;stroke-width:0.17638887;stroke-miterlimit:4;stroke-dasharray:none;stroke-opacity:1" />
  </g>
</svg>
