<?xml version="1.0" encoding="UTF-8" standalone="no"?>
<!-- Created with Inkscape (http://www.inkscape.org/) -->

<svg
   xmlns:dc="http://purl.org/dc/elements/1.1/"
   xmlns:cc="http://creativecommons.org/ns#"
   xmlns:rdf="http://www.w3.org/1999/02/22-rdf-syntax-ns#"
   xmlns:svg="http://www.w3.org/2000/svg"
   xmlns="http://www.w3.org/2000/svg"
   xmlns:sodipodi="http://sodipodi.sourceforge.net/DTD/sodipodi-0.dtd"
   xmlns:inkscape="http://www.inkscape.org/namespaces/inkscape"
   width="11.5in"
   height="11.5in"
   viewBox="0 0 292.10001 292.10001"
   version="1.1"
   id="svg5978"
   inkscape:version="0.92.0 r15299"
   sodipodi:docname="dial tracker.svg">
  <sodipodi:namedview
     id="base"
     pagecolor="#ffffff"
     bordercolor="#666666"
     borderopacity="1.0"
     inkscape:pageopacity="0.0"
     inkscape:pageshadow="2"
     inkscape:zoom="0.35"
     inkscape:cx="476.93279"
     inkscape:cy="365.75628"
     inkscape:document-units="in"
     inkscape:current-layer="layer1"
     showgrid="false"
     units="in"
     inkscape:window-width="1920"
     inkscape:window-height="1017"
     inkscape:window-x="-8"
     inkscape:window-y="-8"
     inkscape:window-maximized="1"
     inkscape:snap-global="false"
     showguides="true"
     inkscape:guide-bbox="true" />
  <defs
     id="defs5972">
    <inkscape:path-effect
       num_copies="45"
       rotation_angle="8"
       starting_angle="0"
       fuse_paths="false"
       copies_to_360="true"
       is_visible="true"
       id="path-effect6530"
       origin="201.09092,68.833586"
       starting_point="204.12481,68.833586"
       effect="copy_rotate" />
  </defs>
  <metadata
     id="metadata5975">
    <rdf:RDF>
      <cc:Work
         rdf:about="">
        <dc:format>image/svg+xml</dc:format>
        <dc:type
           rdf:resource="http://purl.org/dc/dcmitype/StillImage" />
        <dc:title></dc:title>
      </cc:Work>
    </rdf:RDF>
  </metadata>
  <g
     transform="translate(0,-4.8999932)"
     id="layer1"
     inkscape:groupmode="layer"
     inkscape:label="Layer 1">
    <path
       style="opacity:1;vector-effect:none;fill:none;fill-opacity:1;fill-rule:nonzero;stroke:#ff0000;stroke-width:0.28222224;stroke-linecap:round;stroke-linejoin:round;stroke-miterlimit:4;stroke-dasharray:none;stroke-dashoffset:0;stroke-opacity:1"
       d="M 116.41803,64.016095 A 57.008892,57.008892 0 0 1 59.409144,121.02498 57.008892,57.008892 0 0 1 2.4002536,64.016095 57.008892,57.008892 0 0 1 59.409144,7.0072031 57.008892,57.008892 0 0 1 116.41803,64.016095 Z"
       id="path6523"
       inkscape:connector-curvature="0" />
    <path
       style="opacity:1;vector-effect:none;fill:none;fill-opacity:1;fill-rule:nonzero;stroke:#0000ff;stroke-width:0.28222224;stroke-linecap:round;stroke-linejoin:round;stroke-miterlimit:4;stroke-dasharray:none;stroke-dashoffset:0;stroke-opacity:1"
       inkscape:transform-center-x="4.4876278"
       inkscape:transform-center-y="-3.6978238"
       d="m 7.9785936,61.164744 h 6.0677804 v 6.067778 H 7.9785936 Z m 0.1691,7.172631 6.0087304,-0.844472 0.84447,6.008727 -6.0087304,0.844471 z m 1.1657,7.079292 5.8327204,-1.672507 1.67251,5.832723 -5.83273,1.672507 z m 2.1395904,6.848164 5.5432,-2.467988 2.46798,5.543191 -5.54319,2.467988 z m 3.07186,6.483744 5.14577,-3.215433 3.21543,5.145767 -5.14577,3.215434 z m 3.94432,5.993128 4.64819,-3.900297 3.90029,4.648187 -4.64819,3.90029 z m 4.74002,5.385847 4.06014,-4.509237 4.50923,4.06014 -4.06013,4.509237 z m 5.44345,4.67376 3.39306,-5.030407 5.03042,3.393047 -3.39306,5.03042 z m 6.04095,3.87069 2.65994,-5.45368 5.45368,2.65994 -2.65994,5.45368 z m 6.52084,2.99229 1.87505,-5.7708 5.7708,1.87505 -1.87505,5.7708 z m 6.87384,2.05564 1.05365,-5.9756 5.9756,1.05366 -1.05366,5.9756 z m 7.09302,1.07898 0.21176,-6.06408 6.06409,0.21176 -0.21177,6.06408 z m 7.17417,0.0813 -0.63426,-6.03454 6.03454,-0.63425 0.63425,6.03454 z m 7.11566,-0.91792 -1.46793,-5.88754 5.88754,-1.46793 1.46793,5.88754 z m 6.91866,-1.89929 -2.27303,-5.62595 5.62595,-2.27303 2.27303,5.62595 z m 6.587,-2.84371 -3.03389,-5.25485 5.25485,-3.03389 3.03389,5.25485 z m 6.12713,-3.73276 -3.7357,-4.78148 4.78148,-3.735687 3.73569,4.781467 z m 5.548,-4.54917 -4.3648,-4.215027 4.21504,-4.364797 4.36479,4.215037 z m 4.86089,-5.277027 -4.90894,-3.566547 3.56655,-4.908936 4.908936,3.566552 z m 4.079156,-5.902172 -5.357536,-2.84865 2.848646,-5.35753 5.35753,2.84865 z m 3.21803,-6.412446 -5.70185,-2.075303 2.07531,-5.701846 5.70185,2.075303 z m 2.29428,-6.797905 -5.93518,-1.261562 1.26156,-5.935182 5.93518,1.261562 z m 1.32587,-7.051049 -6.053,-0.423267 0.42327,-6.052998 6.053,0.423267 z m 0.33165,-7.166955 -6.053,0.423267 -0.42327,-6.052997 6.053,-0.423267 z m -0.66903,-7.143362 -5.93519,1.261562 -1.26156,-5.935183 5.93519,-1.261562 z m -1.65668,-6.980733 -5.70185,2.075303 -2.0753,-5.701847 5.70184,-2.075303 z m -2.61209,-6.682232 -5.35753,2.84865 -2.848646,-5.35753 5.357526,-2.84865 z m -3.51666,-6.253668 -4.908926,3.566551 -3.56655,-4.908935 4.90893,-3.566552 z m -4.352766,-5.703384 -4.3648,4.215034 -4.21503,-4.364794 4.3648,-4.215034 z m -5.10417,-5.04209 -3.7357,4.781476 -4.78147,-3.735698 3.73569,-4.781476 z m -5.75622,-4.282658 -3.03389,5.254852 -5.25485,-3.033889 3.03389,-5.254852 z m -6.29623,-3.439868 -2.27303,5.625947 -5.62595,-2.273029 2.27303,-5.625948 z m -6.7137,-2.530126 -1.46793,5.887541 -5.88753,-1.467928 1.46792,-5.887541 z m -7.00048,-1.571136 -0.63426,6.03454 -6.03453,-0.634256 0.63425,-6.03454 z m -7.15101,-0.581568 0.21176,6.064083 -6.06408,0.211763 -0.21177,-6.064084 z m -7.16236,0.419321 1.05366,5.975596 -5.9756,1.053659 -1.05366,-5.975597 z m -7.0343,1.412047 1.87505,5.770802 -5.7708,1.875047 -1.87505,-5.770802 z m -6.76932,2.377291 2.65994,5.453685 -5.45369,2.659939 -2.65994,-5.453685 z m -6.37259,3.296263 3.39306,5.030418 -5.03042,3.393058 -3.39306,-5.030417 z m -5.85182,4.151077 4.06014,4.509239 -4.50924,4.060136 -4.06014,-4.509239 z m -5.21715,4.925094 4.64819,3.900294 -3.9003,4.648188 -4.64818,-3.900294 z m -4.48094,5.603251 5.14577,3.215434 -3.21543,5.145767 -5.14577,-3.215433 z m -3.65751,6.172347 5.54319,2.467988 -2.46798,5.543191 -5.5432,-2.467988 z m -2.76289,6.621304 5.83273,1.672507 -1.67251,5.832723 -5.8327204,-1.672507 z m -1.8144904,6.941386 6.0087304,0.844472 -0.84447,6.008727 -6.0087304,-0.844472 z"
       id="rect6525"
       inkscape:connector-curvature="0" />
    <path
       d="m 147.32143,79.821725 q 0.85224,0.86234 1.27359,1.92066 0.42108,1.05829 0.42108,2.17538 0,1.11709 -0.42108,2.17541 -0.42135,1.05829 -1.27359,1.901 -0.17728,0.16667 -0.41153,0.16667 -0.10908,0 -0.21544,-0.0391 -0.0982,-0.0391 -0.16634,-0.12758 -0.18545,-0.15663 -0.18545,-0.40174 0,-0.24512 0.18545,-0.40177 0.67607,-0.68595 1.00905,-1.53849 0.34281,-0.85251 0.34281,-1.74424 0,-0.89168 -0.34281,-1.73441 -0.33298,-0.85251 -1.01887,-1.53846 -0.17727,-0.17644 -0.17727,-0.41157 0,-0.24511 0.18545,-0.40177 0.16634,-0.16667 0.39189,-0.16667 0.23454,0 0.40171,0.16667 z m -1.94938,1.46986 q 0.5288,0.52917 0.80315,1.20532 0.27435,0.67612 0.27435,1.42086 0,0.72512 -0.27435,1.40127 -0.27435,0.66635 -0.80315,1.19551 -0.0982,0.0785 -0.20454,0.12758 -0.0982,0.0489 -0.20453,0.0489 -0.10635,0 -0.21543,-0.0489 -0.10636,-0.0489 -0.19636,-0.12758 -0.16634,-0.16667 -0.16634,-0.4018 0,-0.2253 0.16634,-0.41157 0.36244,-0.36254 0.56807,-0.81331 0.20453,-0.46054 0.20453,-0.9701 0,-0.50956 -0.20453,-0.97993 -0.20453,-0.47033 -0.56807,-0.83291 -0.16634,-0.16666 -0.16634,-0.40176 0,-0.22531 0.16634,-0.41158 0.18545,-0.16666 0.41126,-0.16666 0.22636,0 0.41153,0.16666 z m 3.87913,-2.9005 q 1.10696,1.10727 1.68512,2.52816 0.57789,1.42087 0.57789,2.99852 0,1.55806 -0.57789,2.97893 -0.57816,1.41106 -1.68512,2.51835 -0.17728,0.16667 -0.41126,0.16667 -0.24544,0 -0.41153,-0.16667 -0.16635,-0.16667 -0.16635,-0.40174 0,-0.22531 0.17728,-0.40177 0.94033,-0.94073 1.43995,-2.15579 0.49961,-1.2151 0.49961,-2.53798 0,-1.3425 -0.49961,-2.54775 -0.49962,-1.20531 -1.44977,-2.15581 -0.16635,-0.18622 -0.16635,-0.42137 0,-0.21553 0.16635,-0.40175 0.15817,-0.15663 0.40171,-0.15663 0.23455,0 0.42108,0.15663 z m -6.63194,-0.76437 q 0.23454,-0.17643 0.44071,-0.17643 0.18545,0 0.29399,0.15663 0.10908,0.14685 0.10908,0.43116 v 11.73933 q 0,0.28418 -0.11726,0.44097 -0.11726,0.14685 -0.30353,0.14685 -0.21544,0 -0.44099,-0.18621 -1.00906,-0.78394 -1.80239,-1.40127 -0.34281,-0.26455 -0.66625,-0.50956 -0.32317,-0.25462 -0.58771,-0.45073 -0.25362,-0.19599 -0.42135,-0.32338 -0.15817,-0.12758 -0.16634,-0.12758 h -3.83032 q -0.0873,0 -0.15817,-0.0784 -0.06,-0.0882 -0.06,-0.19599 v -6.4084 q 0,-0.10776 0.06,-0.16667 0.0682,-0.0687 0.15817,-0.0687 h 3.8794 q 0,-0.0106 0.15817,-0.13735 0.16635,-0.12757 0.42135,-0.32337 0.25362,-0.20576 0.57789,-0.45074 0.32317,-0.25463 0.66598,-0.51934 0.7936,-0.60755 1.79284,-1.39149 z"
       id="path941"
       inkscape:connector-curvature="0"
       style="font-style:normal;font-variant:normal;font-weight:normal;font-stretch:normal;font-size:medium;line-height:25px;font-family:'Archivo Narrow';-inkscape-font-specification:'Archivo Narrow, Normal';text-align:center;letter-spacing:0px;word-spacing:0px;writing-mode:lr-tb;text-anchor:middle;fill:none;fill-opacity:1;stroke:#0000ff;stroke-width:0.28222218;stroke-linecap:butt;stroke-linejoin:miter;stroke-miterlimit:4;stroke-dasharray:none;stroke-opacity:1" />
    <path
       inkscape:connector-curvature="0"
       id="path1010"
       style="font-style:normal;font-variant:normal;font-weight:normal;font-stretch:normal;font-size:medium;line-height:25px;font-family:'Archivo Narrow';-inkscape-font-specification:'Archivo Narrow, Normal';text-align:center;letter-spacing:0px;word-spacing:0px;writing-mode:lr-tb;text-anchor:middle;fill:#000000;fill-opacity:1;stroke:none;stroke-width:0.79400009;stroke-linecap:butt;stroke-linejoin:miter;stroke-miterlimit:4;stroke-dasharray:none;stroke-opacity:1"
       d="m 89.113804,27.978945 -3.35772,-2.537237 q -0.035,-0.02642 -0.0484,-0.069 -0.0115,-0.04103 -0.006,-0.0822 0.006,-0.04117 0.0303,-0.07413 0.0233,-0.0309 0.0646,-0.05148 l 3.92065,-1.702454 q 0.0381,-0.01646 0.0784,-0.0087 0.0396,0.0073 0.0729,0.03239 0.0333,0.02514 0.051,0.06126 0.0178,0.03616 0.013,0.07776 l -0.56299,4.239648 q -0.009,0.04529 -0.0319,0.07619 -0.0249,0.03293 -0.063,0.04942 -0.0381,0.01646 -0.083,0.01488 -0.0427,1.86e-4 -0.0775,-0.02614 z m -2.94377,-2.638535 2.92406,2.209548 0.48933,-3.687105 z m 2.22052,0.500334 -0.3841,-0.290238 0.86363,-1.142909 0.3841,0.290237 z m -0.22542,0.418462 q -0.0405,0.05356 -0.0956,0.08308 -0.0528,0.03122 -0.11425,0.03984 -0.0582,0.0078 -0.11891,-0.0057 -0.0597,-0.01596 -0.11111,-0.05482 -0.0519,-0.0392 -0.083,-0.09188 -0.0301,-0.05509 -0.038,-0.112875 -0.007,-0.06015 0.009,-0.119512 0.0157,-0.05939 0.0561,-0.112903 0.0389,-0.05148 0.0933,-0.08479 0.0544,-0.0333 0.11256,-0.04112 0.0597,-0.0099 0.1205,0.0037 0.0613,0.01387 0.11264,0.05269 0.0519,0.03919 0.0815,0.09401 0.0301,0.05509 0.0364,0.114861 0.0101,0.05934 -0.007,0.120792 -0.0149,0.06312 -0.0539,0.114612 z" />
    <path
       id="path8852"
       d="m 55.925564,15.303942 c -0.14642,0 -0.25166,0.07728 -0.31248,0.174303 -0.0543,0.08676 -0.077,0.18743 -0.0814,0.275594 -0.16596,0.08184 -0.34978,0.164354 -0.49773,0.248723 -0.0777,0.04428 -0.14535,0.08876 -0.19626,0.136602 -0.051,0.04786 -0.0886,0.101697 -0.0886,0.165231 0,0.02704 0.0133,0.04908 0.0281,0.06524 0.0148,0.01623 0.0327,0.02872 0.0532,0.04047 0.0408,0.02342 0.0921,0.04301 0.14861,0.05989 0.0839,0.0251 0.1779,0.04382 0.25964,0.05178 -0.0813,0.139755 -0.18948,0.268095 -0.28428,0.391069 -0.10963,0.142142 -0.2053,0.278441 -0.2053,0.429878 0,0.02163 0,0.03852 0,0.05548 0,0.01699 0.006,0.0381 0.024,0.05492 0.0173,0.01679 0.0382,0.02128 0.0551,0.02316 0.0168,0.0021 0.0343,0.0021 0.0564,0.0021 h 0.60467 c 0.0439,0 0.0761,0.0026 0.10912,-0.01853 0.0332,-0.02122 0.0449,-0.05015 0.0687,-0.09343 v 0 -0.0021 c 0,0 0.0527,-0.106908 0.11561,-0.213005 0.0316,-0.05302 0.0656,-0.105862 0.0952,-0.143289 0.0148,-0.01872 0.0285,-0.03357 0.0388,-0.04194 0.005,-0.0026 0.005,-0.0031 0.006,-0.0041 0,0.0021 0.005,0.0021 0.006,0.0041 0.0104,0.0084 0.0239,0.02321 0.0388,0.04194 0.0295,0.03745 0.0638,0.09026 0.0952,0.143289 0.063,0.106097 0.11561,0.213005 0.11561,0.213005 v 0.0021 0 c 0.0234,0.04327 0.0357,0.07206 0.0684,0.09332 0.0327,0.02122 0.065,0.01872 0.1082,0.01872 h 0.60733 c 0.022,0 0.0388,0 0.0556,-0.0021 0.0168,-0.0021 0.0377,-0.0064 0.0548,-0.02342 0.0168,-0.01699 0.0214,-0.03786 0.0234,-0.05472 0,-0.01679 0,-0.03377 0,-0.05541 0,-0.15141 -0.0956,-0.287709 -0.20525,-0.429851 -0.0948,-0.122979 -0.20305,-0.251319 -0.28438,-0.391074 0.0818,-0.008 0.17577,-0.02669 0.25969,-0.05178 0.0565,-0.01699 0.1079,-0.03643 0.14862,-0.05989 0.0205,-0.01162 0.0382,-0.02428 0.0532,-0.04046 0.0148,-0.01622 0.0281,-0.03822 0.0281,-0.06526 0,-0.06354 -0.0377,-0.117403 -0.0885,-0.165237 -0.051,-0.04786 -0.11861,-0.09234 -0.19626,-0.136602 -0.148,-0.08436 -0.33182,-0.16688 -0.49773,-0.248722 -0.005,-0.08816 -0.0271,-0.188823 -0.0814,-0.275594 -0.0607,-0.09704 -0.16606,-0.174298 -0.31243,-0.174298 z"
       inkscape:connector-curvature="0"
       style="fill:#000000;fill-opacity:1;stroke:none;stroke-width:0.79400009;stroke-miterlimit:4;stroke-dasharray:none;stroke-opacity:1" />
    <path
       inkscape:connector-curvature="0"
       style="fill:#000000;fill-opacity:1;stroke-width:0.79400009;stroke-miterlimit:4;stroke-dasharray:none"
       d="m 48.551104,14.358493 c -0.62118,0.575759 -0.92599,1.458367 -0.7234,2.342461 0.20523,0.895499 0.87841,1.561664 1.70256,1.800263 -0.66688,-0.317891 -1.21406,-0.997698 -1.41325,-1.866966 -0.19933,-0.869767 -0.003,-1.721432 0.45968,-2.299122 -0.009,0.008 -0.0171,0.01587 -0.025,0.0233 z m 0.37376,0.401729 c -0.48192,0.4462 -0.71792,1.130836 -0.56081,1.816395 0.15914,0.694369 0.68075,1.210968 1.31992,1.395904 -0.51701,-0.246572 -0.94112,-0.773817 -1.09555,-1.447719 -0.15456,-0.674273 -0.002,-1.334382 0.35602,-1.782382 -0.007,0.006 -0.0125,0.01165 -0.0193,0.01798 z m 0.29436,0.335753 c -0.36145,0.341621 -0.53846,0.860164 -0.41961,1.37869 0.17844,0.778629 0.9569,1.265841 1.73578,1.086569 0.77888,-0.179266 1.26725,-0.958004 1.08882,-1.736621 -0.17843,-0.778636 -0.95711,-1.266086 -1.73598,-1.086803 -0.24341,0.05606 -0.45829,0.17071 -0.63345,0.325555 -0.0119,0.0111 -0.0233,0.02173 -0.0353,0.03283 z m 0.12418,0.145218 0.20006,0.226766 c -0.11399,0.108238 -0.19986,0.243266 -0.24925,0.39229 l -0.28594,-0.08149 c 0.0639,-0.204139 0.179,-0.38909 0.33401,-0.536504 z m 1.54719,-1.437316 c 0.66727,0.317732 1.21483,0.997843 1.41415,1.867483 0.19909,0.868715 0.003,1.719446 -0.45804,2.297127 0.63669,-0.575179 0.9518,-1.468612 0.74667,-2.363652 -0.20525,-0.895751 -0.87855,-1.562269 -1.703,-1.800736 z m -1.25493,1.230729 c 0.0909,-0.04659 0.18892,-0.08301 0.2931,-0.107003 0.10841,-0.025 0.21672,-0.035 0.32282,-0.03172 l -0.0179,0.309909 c -0.0811,-0.0028 -0.16379,0.0049 -0.24664,0.02394 -0.0716,0.01654 -0.13935,0.04049 -0.20278,0.0712 l -0.14882,-0.266089 z m 1.10186,-0.703002 c 0.51748,0.246388 0.9423,0.773823 1.09688,1.448236 0.15431,0.673326 0.003,1.332677 -0.3546,1.780597 0.49346,-0.446004 0.73746,-1.138582 0.57843,-1.832371 -0.1592,-0.694771 -0.68143,-1.211461 -1.32058,-1.396616 z m -1.78511,1.798906 0.2954,0.0166 c -6.1e-4,0.07348 0.007,0.148613 0.024,0.223495 0.0188,0.08074 0.0473,0.156935 0.0839,0.227429 l -0.25741,0.143553 c -0.05,-0.09486 -0.0886,-0.197865 -0.1139,-0.307326 -0.0235,-0.101754 -0.0337,-0.203773 -0.032,-0.303721 z m 1.65017,-1.172867 c 0.2015,0.06611 0.38376,0.18228 0.52833,0.337664 l -0.23668,0.210649 c -0.10439,-0.111291 -0.23426,-0.195848 -0.37781,-0.24673 l 0.086,-0.301765 z m -1.29599,2.070932 0.22084,-0.196998 c 0.11089,0.107441 0.24435,0.189664 0.3921,0.235158 l -0.0818,0.286975 c -0.20146,-0.0622 -0.38455,-0.174351 -0.53122,-0.325383 z m 1.74934,-1.287916 0.27665,-0.15445 c 0.0441,0.08854 0.0792,0.183194 0.10203,0.284176 0.0246,0.108522 0.035,0.216558 0.0316,0.322546 l -0.31538,-0.01776 c 10e-4,-0.07612 -0.006,-0.154108 -0.024,-0.231883 -0.0166,-0.0714 -0.0403,-0.139203 -0.0709,-0.20265 z m -0.85245,1.368133 c 0.0687,-3.26e-4 0.13847,-0.0086 0.20829,-0.02467 0.0812,-0.01881 0.15729,-0.04711 0.22777,-0.08392 l 0.14873,0.267026 c -0.0923,0.0478 -0.19213,0.08516 -0.29821,0.109616 -0.10195,0.02343 -0.20381,0.03394 -0.30376,0.03235 z m 0.89967,-0.654323 0.30195,0.08591 c -0.0648,0.198771 -0.17843,0.378659 -0.33013,0.522786 l -0.20485,-0.231915 c 0.10664,-0.105637 0.187,-0.23543 0.23424,-0.377882 z"
       id="path702" />
    <path
       style="opacity:1;vector-effect:none;fill:none;fill-opacity:1;fill-rule:nonzero;stroke:#ff0000;stroke-width:0.28222224;stroke-linecap:round;stroke-linejoin:round;stroke-miterlimit:4;stroke-dasharray:none;stroke-dashoffset:0;stroke-opacity:1"
       d="m 63.078034,64.016095 a 3.6688888,3.6688888 0 0 1 -3.66889,3.668889 3.6688888,3.6688888 0 0 1 -3.66889,-3.668889 3.6688888,3.6688888 0 0 1 3.66889,-3.668889 3.6688888,3.6688888 0 0 1 3.66889,3.668889 z"
       id="circle6565"
       inkscape:connector-curvature="0" />
    <path
       id="path6594"
       style="opacity:1;vector-effect:none;fill:none;fill-opacity:1;fill-rule:nonzero;stroke:#ff0000;stroke-width:0.28222224;stroke-linecap:round;stroke-linejoin:round;stroke-miterlimit:4;stroke-dasharray:none;stroke-dashoffset:0;stroke-opacity:1"
       d="m 210.4271,17.779027 -2.24999,4.32738 a 41.133891,41.133891 0 0 0 -38.88393,41.05434 41.133891,41.133891 0 0 0 41.13392,41.133923 41.133891,41.133891 0 0 0 41.13393,-41.133923 41.133891,41.133891 0 0 0 -38.86636,-41.02075 z m 8.11389,43.25783 a 8.1138887,8.1138887 0 0 1 -8.11389,8.11389 8.1138887,8.1138887 0 0 1 -8.11388,-8.11389 8.1138887,8.1138887 0 0 1 8.11388,-8.11389 8.1138887,8.1138887 0 0 1 8.11389,8.11389 z"
       inkscape:connector-curvature="0" />
    <path
       style="fill:#000000;fill-opacity:1;stroke:none;stroke-width:0.79400009;stroke-miterlimit:4;stroke-dasharray:none;stroke-opacity:1"
       inkscape:connector-curvature="0"
       d="m 58.351174,15.199988 c -0.14642,0 -0.25167,0.07728 -0.31249,0.174303 -0.0543,0.08676 -0.077,0.18743 -0.0814,0.275593 -0.16597,0.08184 -0.34979,0.164355 -0.49774,0.248724 -0.0777,0.04428 -0.14535,0.08876 -0.19627,0.136601 -0.051,0.04786 -0.0886,0.101697 -0.0886,0.165232 0,0.02704 0.0133,0.04908 0.0281,0.06524 0.0148,0.01622 0.0327,0.02872 0.0532,0.04046 0.0408,0.02342 0.0921,0.04301 0.14861,0.05989 0.0839,0.0251 0.1779,0.04382 0.25962,0.05178 -0.0813,0.139754 -0.18947,0.268095 -0.28427,0.391069 -0.10963,0.142141 -0.20529,0.278441 -0.20529,0.429877 0,0.02163 0,0.03852 0,0.05548 0,0.01699 0.006,0.0381 0.0239,0.05492 0.0173,0.01678 0.0382,0.02128 0.0551,0.02316 0.0168,0.0021 0.0343,0.0021 0.0563,0.0021 h 0.60467 c 0.0439,0 0.076,0.0026 0.10912,-0.01853 0.0332,-0.02122 0.0449,-0.05015 0.0687,-0.09343 v 0 -0.0021 c 0,0 0.0527,-0.106908 0.1156,-0.213005 0.0316,-0.05302 0.0656,-0.105863 0.0952,-0.143289 0.0148,-0.01872 0.0285,-0.03357 0.0388,-0.04194 0.005,-0.0026 0.005,-0.0031 0.006,-0.0041 0,0.0021 0.005,0.0021 0.006,0.0041 0.0104,0.0084 0.0239,0.02321 0.0388,0.04194 0.0295,0.03744 0.0638,0.09026 0.0952,0.143289 0.0629,0.106097 0.11561,0.213005 0.11561,0.213005 v 0.0021 0 c 0.0234,0.04326 0.0357,0.07205 0.0684,0.09332 0.0327,0.02122 0.0649,0.01872 0.1082,0.01872 h 0.60732 c 0.022,0 0.0388,0 0.0556,-0.0021 0.0168,-0.0021 0.0377,-0.0064 0.0549,-0.02342 0.0168,-0.01699 0.0213,-0.03786 0.0234,-0.05472 0,-0.01679 0,-0.03377 0,-0.05541 0,-0.151411 -0.0956,-0.28771 -0.20525,-0.429852 -0.0948,-0.122979 -0.20305,-0.251319 -0.28438,-0.391073 0.0818,-0.008 0.17576,-0.02669 0.25969,-0.05178 0.0565,-0.01699 0.1079,-0.03643 0.14862,-0.05989 0.0204,-0.01162 0.0382,-0.02428 0.0532,-0.04046 0.0148,-0.01623 0.0281,-0.03821 0.0281,-0.06526 0,-0.06354 -0.0377,-0.117403 -0.0885,-0.165238 -0.051,-0.04786 -0.11861,-0.09234 -0.19626,-0.136601 -0.14801,-0.08437 -0.33183,-0.16688 -0.49773,-0.248723 -0.005,-0.08816 -0.0271,-0.188821 -0.0814,-0.275594 -0.0607,-0.09704 -0.16607,-0.174298 -0.31244,-0.174298 z"
       id="path6596" />
    <path
       id="path6598"
       d="m 57.103724,12.878342 c -0.14642,0 -0.25167,0.07728 -0.31249,0.174303 -0.0543,0.08676 -0.077,0.18743 -0.0814,0.275594 -0.16597,0.08184 -0.34979,0.164355 -0.49773,0.248723 -0.0777,0.04428 -0.14536,0.08876 -0.19628,0.136601 -0.051,0.04786 -0.0886,0.101698 -0.0886,0.165233 0,0.02704 0.0133,0.04908 0.0281,0.06524 0.0148,0.01622 0.0327,0.02872 0.0532,0.04046 0.0408,0.02342 0.0921,0.04301 0.14862,0.05989 0.0839,0.0251 0.1779,0.04382 0.25963,0.05178 -0.0813,0.139753 -0.18947,0.268094 -0.28428,0.391067 -0.10963,0.142142 -0.20529,0.278441 -0.20529,0.429879 0,0.02163 0,0.03852 0,0.05548 0,0.01699 0.006,0.0381 0.0239,0.05492 0.0173,0.01678 0.0382,0.02127 0.0551,0.02316 0.0168,0.0021 0.0343,0.0021 0.0564,0.0021 h 0.60467 c 0.0439,0 0.0761,0.0026 0.10912,-0.01853 0.0332,-0.02122 0.0449,-0.05015 0.0687,-0.09343 v 0 -0.0021 c 0,0 0.0527,-0.106909 0.11561,-0.213006 0.0316,-0.05302 0.0656,-0.105862 0.0952,-0.143289 0.0148,-0.01872 0.0285,-0.03357 0.0388,-0.04194 0.005,-0.0026 0.005,-0.0031 0.006,-0.0041 0,0.0021 0.005,0.0021 0.006,0.0041 0.0104,0.0084 0.0239,0.02322 0.0388,0.04194 0.0295,0.03745 0.0638,0.09026 0.0952,0.143289 0.0629,0.106097 0.1156,0.213006 0.1156,0.213006 v 0.0021 0 c 0.0234,0.04326 0.0357,0.07205 0.0684,0.09332 0.0327,0.02122 0.065,0.01872 0.10821,0.01872 h 0.60732 c 0.022,0 0.0388,0 0.0556,-0.0021 0.0168,-0.0021 0.0377,-0.0064 0.0549,-0.02342 0.0168,-0.01699 0.0214,-0.03786 0.0234,-0.05472 0,-0.01678 0,-0.03377 0,-0.05541 0,-0.151412 -0.0956,-0.287711 -0.20524,-0.429853 -0.0948,-0.122978 -0.20305,-0.251319 -0.28438,-0.391073 0.0818,-0.008 0.17577,-0.02668 0.25969,-0.05178 0.0565,-0.01699 0.1079,-0.03643 0.14862,-0.05989 0.0204,-0.01162 0.0382,-0.02428 0.0532,-0.04047 0.0148,-0.01622 0.0281,-0.03822 0.0281,-0.06526 0,-0.06354 -0.0377,-0.117402 -0.0885,-0.165237 -0.051,-0.04786 -0.11861,-0.09234 -0.19627,-0.136601 -0.14799,-0.08436 -0.33181,-0.16688 -0.49772,-0.248724 -0.005,-0.08816 -0.0271,-0.188821 -0.0814,-0.275593 -0.0607,-0.09704 -0.16607,-0.174298 -0.31244,-0.174298 z"
       inkscape:connector-curvature="0"
       style="fill:#000000;fill-opacity:1;stroke:none;stroke-width:0.79400009;stroke-miterlimit:4;stroke-dasharray:none;stroke-opacity:1" />
    <path
       style="fill:#000000;fill-opacity:1;stroke:none;stroke-width:0.79400009;stroke-miterlimit:4;stroke-dasharray:none;stroke-opacity:1"
       inkscape:connector-curvature="0"
       d="m 92.949324,28.774894 c -0.10353,-0.103534 -0.23259,-0.123305 -0.3442,-0.0977 -0.0998,0.02295 -0.18698,0.07808 -0.25244,0.137315 -0.17522,-0.05948 -0.36354,-0.131116 -0.52782,-0.176074 -0.0863,-0.02363 -0.16554,-0.04002 -0.23537,-0.04219 -0.0699,-0.0022 -0.13456,0.0093 -0.17948,0.05419 -0.0191,0.01912 -0.0253,0.04411 -0.0263,0.066 -10e-4,0.02194 0.003,0.04343 0.009,0.06623 0.0123,0.04541 0.0347,0.09554 0.0627,0.147431 0.0416,0.07708 0.0948,0.15678 0.14698,0.220208 -0.15631,0.04133 -0.32355,0.05559 -0.47754,0.07551 -0.17803,0.02299 -0.34206,0.05172 -0.44914,0.1588 -0.0153,0.0153 -0.0272,0.02724 -0.0392,0.03923 -0.012,0.01201 -0.0227,0.03118 -0.0219,0.0558 3.7e-4,0.0241 0.012,0.04206 0.0226,0.05534 0.0104,0.01336 0.0228,0.02574 0.0384,0.04137 l 0.42756,0.427566 c 0.031,0.03104 0.052,0.05565 0.0903,0.06406 0.0385,0.0085 0.0672,-0.0037 0.11465,-0.01749 v 0 l 10e-4,-0.0015 c 0,0 0.11286,-0.03833 0.23237,-0.06887 0.0598,-0.01515 0.12124,-0.02847 0.16864,-0.034 0.0237,-0.0028 0.0439,-0.0036 0.0571,-0.0022 0.005,0.0017 0.006,0.0013 0.007,0.0013 -0.001,0.0015 0.002,0.005 10e-4,0.0071 0.001,0.01329 4.9e-4,0.03331 -0.002,0.05709 -0.006,0.04734 -0.0187,0.108937 -0.034,0.168637 -0.0305,0.11957 -0.0689,0.232366 -0.0689,0.232366 l -10e-4,0.0015 v 0 c -0.014,0.04714 -0.0257,0.0762 -0.0176,0.114353 0.008,0.03813 0.0327,0.0592 0.0633,0.08975 l 0.42944,0.429447 c 0.0156,0.01556 0.0274,0.02744 0.0408,0.03783 0.0134,0.01039 0.0312,0.02213 0.0553,0.02219 0.0239,-1.35e-4 0.0419,-0.01164 0.0552,-0.02215 0.0119,-0.01187 0.0239,-0.02388 0.0392,-0.03918 0.10707,-0.107063 0.13584,-0.27104 0.15882,-0.449084 0.0199,-0.153993 0.0341,-0.321287 0.0754,-0.477618 0.0635,0.05218 0.14316,0.105415 0.22025,0.147015 0.052,0.02794 0.10205,0.05054 0.14743,0.06274 0.0227,0.0063 0.0442,0.0098 0.0662,0.009 0.0219,-0.001 0.0469,-0.0072 0.066,-0.02628 0.0449,-0.04493 0.0564,-0.109675 0.0543,-0.17942 -0.002,-0.0699 -0.0186,-0.149164 -0.0422,-0.235369 -0.045,-0.164303 -0.11663,-0.352634 -0.17607,-0.527821 0.0588,-0.06587 0.11435,-0.15268 0.13731,-0.252433 0.0257,-0.111539 0.006,-0.240669 -0.0977,-0.344168 z"
       id="path6600" />
    <path
       id="path6602"
       d="m 94.738004,30.416553 c -0.10354,-0.103534 -0.23261,-0.123312 -0.34422,-0.09771 -0.0997,0.02295 -0.18698,0.07809 -0.25243,0.137315 -0.17523,-0.05949 -0.36356,-0.131122 -0.52783,-0.176081 -0.0863,-0.02363 -0.16554,-0.04002 -0.23538,-0.04219 -0.0699,-0.0022 -0.13456,0.0093 -0.17948,0.05419 -0.0191,0.01912 -0.0253,0.04411 -0.0263,0.066 -0.001,0.02193 0.003,0.04343 0.009,0.06623 0.0123,0.04541 0.0347,0.09554 0.0627,0.147432 0.0416,0.07707 0.0948,0.15678 0.14696,0.220193 -0.1563,0.04133 -0.32354,0.0556 -0.47753,0.07552 -0.17803,0.02299 -0.34205,0.05173 -0.44913,0.158807 -0.0153,0.0153 -0.0272,0.02724 -0.0392,0.03923 -0.012,0.01201 -0.0227,0.03118 -0.0219,0.05573 3.7e-4,0.0241 0.012,0.04206 0.0226,0.05534 0.0104,0.01336 0.0228,0.02574 0.0383,0.04129 l 0.42757,0.427566 c 0.031,0.03104 0.0519,0.05558 0.0903,0.06406 0.0385,0.0085 0.0672,-0.0037 0.11464,-0.01749 v 0 l 0.001,-0.0015 c 0,0 0.11286,-0.03833 0.23236,-0.06888 0.0598,-0.01515 0.12124,-0.02847 0.16864,-0.034 0.0237,-0.0028 0.0439,-0.0036 0.0571,-0.0022 0.005,0.0017 0.006,0.0013 0.007,0.0013 -0.001,0.0015 0.002,0.005 10e-4,0.0071 0.001,0.01329 4.9e-4,0.03331 -0.002,0.05709 -0.006,0.04733 -0.0187,0.108937 -0.034,0.168637 -0.0306,0.119499 -0.0689,0.232366 -0.0689,0.232366 l -10e-4,0.0015 v 0 c -0.014,0.04714 -0.0257,0.07619 -0.0176,0.114354 0.008,0.03813 0.0327,0.05913 0.0633,0.08975 l 0.42945,0.429441 c 0.0156,0.01556 0.0274,0.02743 0.0408,0.03783 0.0134,0.01039 0.0312,0.02213 0.0554,0.02226 0.0239,-1.35e-4 0.0418,-0.01171 0.0552,-0.02215 0.0119,-0.01187 0.0239,-0.02388 0.0392,-0.03918 0.10706,-0.107064 0.13584,-0.271041 0.15881,-0.449085 0.0199,-0.153993 0.0341,-0.321287 0.0755,-0.477617 0.0635,0.05218 0.14315,0.105408 0.22024,0.147014 0.052,0.02794 0.10206,0.05054 0.14744,0.06274 0.0226,0.0062 0.0442,0.0098 0.0662,0.009 0.0219,-10e-4 0.0469,-0.0071 0.066,-0.02628 0.0449,-0.04493 0.0564,-0.109674 0.0543,-0.179419 -0.002,-0.0699 -0.0186,-0.149165 -0.0422,-0.235369 -0.045,-0.164317 -0.11664,-0.352641 -0.17608,-0.527822 0.0588,-0.06587 0.11436,-0.152679 0.13732,-0.252433 0.0257,-0.111539 0.006,-0.240676 -0.0977,-0.344175 z"
       inkscape:connector-curvature="0"
       style="fill:#000000;fill-opacity:1;stroke:none;stroke-width:0.79400009;stroke-miterlimit:4;stroke-dasharray:none;stroke-opacity:1" />
    <path
       style="fill:#000000;fill-opacity:1;stroke:none;stroke-width:0.79400009;stroke-miterlimit:4;stroke-dasharray:none;stroke-opacity:1"
       inkscape:connector-curvature="0"
       d="m 94.552634,26.995128 c -0.10354,-0.103534 -0.2326,-0.123312 -0.34422,-0.09771 -0.0997,0.02295 -0.18698,0.07809 -0.25243,0.137316 -0.17523,-0.05949 -0.36355,-0.131122 -0.52782,-0.176074 -0.0863,-0.02363 -0.16555,-0.04002 -0.23538,-0.0422 -0.0699,-0.0022 -0.13456,0.0093 -0.17949,0.05419 -0.0191,0.01912 -0.0253,0.04411 -0.0263,0.066 -10e-4,0.02194 0.003,0.04343 0.009,0.06623 0.0123,0.04541 0.0347,0.09554 0.0627,0.147439 0.0416,0.07707 0.0948,0.156779 0.14697,0.2202 -0.15631,0.04133 -0.32355,0.05559 -0.47754,0.07551 -0.17803,0.02299 -0.34205,0.05173 -0.44914,0.158808 -0.0153,0.0153 -0.0272,0.02724 -0.0392,0.03923 -0.012,0.01201 -0.0227,0.03118 -0.0219,0.05573 3.7e-4,0.0241 0.012,0.04205 0.0226,0.05534 0.0104,0.01336 0.0228,0.02574 0.0384,0.04136 l 0.42757,0.427567 c 0.031,0.03104 0.052,0.05565 0.0903,0.06406 0.0385,0.0085 0.0672,-0.0037 0.11464,-0.01749 v 0 l 0.001,-0.0015 c 0,0 0.11286,-0.03833 0.23236,-0.06887 0.0598,-0.01515 0.12125,-0.02847 0.16864,-0.034 0.0237,-0.0028 0.0439,-0.0036 0.0571,-0.0022 0.005,0.0017 0.006,0.0013 0.007,0.0013 -0.001,0.0015 0.002,0.005 0.001,0.0071 10e-4,0.01329 4.8e-4,0.03332 -0.002,0.05709 -0.006,0.04734 -0.0187,0.108937 -0.034,0.168637 -0.0305,0.119499 -0.0689,0.23236 -0.0689,0.23236 l -0.001,0.0015 v 0 c -0.014,0.04714 -0.0257,0.07619 -0.0176,0.114353 0.008,0.03813 0.0327,0.0592 0.0633,0.08975 l 0.42944,0.42944 c 0.0156,0.01556 0.0274,0.02744 0.0408,0.03783 0.0134,0.0104 0.0312,0.02213 0.0554,0.02226 0.0239,-1.34e-4 0.0419,-0.01164 0.0552,-0.02215 0.0119,-0.01187 0.0239,-0.02388 0.0392,-0.03918 0.10707,-0.107065 0.13584,-0.271042 0.15883,-0.449079 0.0199,-0.153992 0.0341,-0.321287 0.0754,-0.477617 0.0635,0.05218 0.14315,0.105422 0.22024,0.147014 0.052,0.02794 0.10206,0.05054 0.14744,0.06274 0.0226,0.0062 0.0442,0.0098 0.0662,0.009 0.0219,-0.001 0.0469,-0.0072 0.066,-0.02628 0.0449,-0.04493 0.0564,-0.109673 0.0543,-0.179419 -0.002,-0.0699 -0.0186,-0.149164 -0.0422,-0.235375 -0.045,-0.164296 -0.11662,-0.352627 -0.17607,-0.527816 0.0588,-0.06587 0.11436,-0.152679 0.13732,-0.252432 0.0257,-0.111539 0.006,-0.240677 -0.0977,-0.344176 z"
       id="path6604" />
    <path
       id="path6606"
       d="m 96.442514,28.766891 c -0.10354,-0.103534 -0.2326,-0.123312 -0.34422,-0.09771 -0.0997,0.02295 -0.18698,0.07809 -0.25243,0.137316 -0.17523,-0.05949 -0.36355,-0.131122 -0.52782,-0.176074 -0.0863,-0.02363 -0.16555,-0.04002 -0.23538,-0.0422 -0.0699,-0.0022 -0.13456,0.0093 -0.17949,0.05419 -0.0191,0.01912 -0.0253,0.04411 -0.0263,0.066 -0.001,0.02194 0.003,0.04343 0.009,0.06623 0.0123,0.04541 0.0347,0.09554 0.0627,0.147439 0.0416,0.07707 0.0948,0.156779 0.14697,0.2202 -0.15631,0.04133 -0.32355,0.05559 -0.47754,0.07551 -0.17803,0.02299 -0.34205,0.05173 -0.44914,0.158808 -0.0153,0.0153 -0.0272,0.02724 -0.0392,0.03923 -0.012,0.01201 -0.0227,0.03118 -0.0219,0.05573 3.7e-4,0.0241 0.012,0.04205 0.0226,0.05534 0.0104,0.01336 0.0228,0.02574 0.0384,0.04136 l 0.42757,0.427567 c 0.031,0.03104 0.052,0.05565 0.0903,0.06406 0.0385,0.0085 0.0672,-0.0037 0.11464,-0.01749 v 0 l 10e-4,-0.0015 c 0,0 0.11286,-0.03833 0.23236,-0.06887 0.0598,-0.01515 0.12125,-0.02847 0.16864,-0.034 0.0237,-0.0028 0.0439,-0.0036 0.0571,-0.0022 0.005,0.0017 0.006,0.0013 0.007,0.0013 -0.001,0.0015 0.002,0.005 10e-4,0.0071 0.001,0.01329 4.8e-4,0.03332 -0.002,0.05709 -0.006,0.04734 -0.0187,0.108937 -0.034,0.168637 -0.0305,0.119499 -0.0689,0.23236 -0.0689,0.23236 l -10e-4,0.0015 v 0 c -0.014,0.04714 -0.0257,0.07619 -0.0176,0.114353 0.008,0.03813 0.0327,0.0592 0.0633,0.08975 l 0.42944,0.42944 c 0.0156,0.01556 0.0274,0.02744 0.0408,0.03783 0.0134,0.0104 0.0312,0.02213 0.0554,0.02226 0.0239,-1.34e-4 0.0419,-0.01164 0.0552,-0.02215 0.0119,-0.01187 0.0239,-0.02388 0.0392,-0.03918 0.10707,-0.107065 0.13584,-0.271042 0.15883,-0.449079 0.0199,-0.153992 0.0341,-0.321287 0.0754,-0.477617 0.0635,0.05218 0.14315,0.105422 0.22024,0.147014 0.052,0.02794 0.10206,0.05054 0.14744,0.06274 0.0226,0.0062 0.0442,0.0098 0.0662,0.009 0.0219,-0.001 0.0469,-0.0072 0.066,-0.02628 0.0449,-0.04493 0.0564,-0.109673 0.0543,-0.179419 -0.002,-0.0699 -0.0186,-0.149164 -0.0422,-0.235375 -0.045,-0.164296 -0.11662,-0.352627 -0.17607,-0.527816 0.0588,-0.06587 0.11436,-0.152679 0.13732,-0.252432 0.0257,-0.111539 0.006,-0.240677 -0.0977,-0.344176 z"
       inkscape:connector-curvature="0"
       style="fill:#000000;fill-opacity:1;stroke:none;stroke-width:0.79400009;stroke-miterlimit:4;stroke-dasharray:none;stroke-opacity:1" />
    <path
       d="m 104.84162,55.083893 -0.73845,-4.143254 q -0.008,-0.04316 0.0115,-0.0835 0.0195,-0.0379 0.0514,-0.06438 0.0324,-0.02612 0.0726,-0.03378 0.0381,-0.0068 0.0824,0.0061 l 4.03297,1.415986 q 0.0391,0.01382 0.0634,0.04691 0.0241,0.03226 0.0314,0.0733 0.007,0.04108 -0.004,0.07967 -0.0113,0.03866 -0.0434,0.06586 l -3.29454,2.727196 q -0.0374,0.0271 -0.0752,0.0342 -0.0407,0.0072 -0.0798,-0.0066 -0.0391,-0.01382 -0.071,-0.04549 -0.0315,-0.02889 -0.039,-0.07184 z m -0.36596,-3.936207 0.64307,3.608141 2.86496,-2.37196 z m 1.28872,1.876231 -0.0845,-0.473958 1.4103,-0.251353 0.0845,0.473956 z m -0.44976,0.153736 q -0.0661,0.01176 -0.1266,-0.004 -0.06,-0.01304 -0.11088,-0.04843 -0.048,-0.03383 -0.0833,-0.08499 -0.033,-0.05229 -0.0442,-0.115724 -0.0114,-0.06403 0.002,-0.123807 0.0149,-0.06094 0.0489,-0.108621 0.0358,-0.04888 0.0878,-0.08155 0.0519,-0.03289 0.11789,-0.04468 0.0635,-0.01132 0.12607,0.0012 0.0625,0.01253 0.11051,0.04634 0.0505,0.03332 0.0859,0.08462 0.0356,0.05184 0.0468,0.115208 0.0114,0.06402 -0.004,0.124355 -0.0149,0.06094 -0.0513,0.108995 -0.033,0.05039 -0.0872,0.08385 -0.0539,0.03617 -0.11743,0.04743 z"
       style="font-style:normal;font-variant:normal;font-weight:normal;font-stretch:normal;font-size:medium;line-height:25px;font-family:'Archivo Narrow';-inkscape-font-specification:'Archivo Narrow, Normal';text-align:center;letter-spacing:0px;word-spacing:0px;writing-mode:lr-tb;text-anchor:middle;fill:#000000;fill-opacity:1;stroke:none;stroke-width:0.79400009;stroke-linecap:butt;stroke-linejoin:miter;stroke-miterlimit:4;stroke-dasharray:none;stroke-opacity:1"
       id="path6608"
       inkscape:connector-curvature="0" />
    <path
       id="circle6612"
       style="opacity:1;vector-effect:none;fill:none;fill-opacity:1;fill-rule:nonzero;stroke:#ff0000;stroke-width:0.28222224;stroke-linecap:round;stroke-linejoin:round;stroke-miterlimit:4;stroke-dasharray:none;stroke-dashoffset:0;stroke-opacity:1"
       d="m 146.88034,99.459885 a 3.668889,3.668889 0 0 1 -3.66889,3.668895 3.668889,3.668889 0 0 1 -3.66888,-3.668895 3.668889,3.668889 0 0 1 3.66888,-3.66889 3.668889,3.668889 0 0 1 3.66889,3.66889 z m 27.94001,0 a 31.608891,31.608891 0 0 1 -31.6089,31.608895 31.608891,31.608891 0 0 1 -31.60889,-31.608895 31.608891,31.608891 0 0 1 31.60889,-31.60889 31.608891,31.608891 0 0 1 31.6089,31.60889 z"
       inkscape:connector-curvature="0" />
    <path
       inkscape:connector-curvature="0"
       id="path6614"
       style="font-style:normal;font-variant:normal;font-weight:normal;font-stretch:normal;font-size:medium;line-height:25px;font-family:'Archivo Narrow';-inkscape-font-specification:'Archivo Narrow, Normal';text-align:center;letter-spacing:0px;word-spacing:0px;writing-mode:lr-tb;text-anchor:middle;fill:#000000;fill-opacity:1;stroke:none;stroke-width:0.79400009;stroke-linecap:butt;stroke-linejoin:miter;stroke-miterlimit:4;stroke-dasharray:none;stroke-opacity:1"
       d="m 102.19315,80.553585 1.41477,-3.963621 q 0.0145,-0.04144 0.0514,-0.06679 0.0357,-0.02323 0.0766,-0.03039 0.0411,-0.0066 0.0798,0.0067 0.0365,0.013 0.0685,0.04618 l 2.79883,3.230539 q 0.0271,0.0314 0.0318,0.07219 0.005,0.03997 -0.009,0.07922 -0.0143,0.03914 -0.043,0.06719 -0.029,0.02796 -0.0704,0.03565 l -4.21358,0.733009 q -0.0459,0.005 -0.0823,-0.0076 -0.0389,-0.01394 -0.066,-0.04533 -0.0271,-0.0314 -0.0391,-0.07473 -0.013,-0.04071 0.002,-0.08172 z m 1.63543,-3.599031 -1.23205,3.451705 3.66435,-0.63775 z m 0.18788,2.268422 0.16182,-0.453422 1.34915,0.481568 -0.16181,0.453421 z m -0.46676,-0.0897 q -0.0632,-0.02259 -0.10793,-0.06629 -0.0456,-0.04109 -0.0722,-0.09707 -0.0249,-0.05319 -0.0301,-0.115123 -0.003,-0.06177 0.019,-0.122405 0.0219,-0.06125 0.0632,-0.106497 0.0432,-0.04552 0.0964,-0.07004 0.0553,-0.02467 0.1167,-0.02724 0.0614,-0.0028 0.12452,0.01971 0.0608,0.02168 0.10886,0.0636 0.048,0.04189 0.0729,0.09507 0.0273,0.05399 0.0326,0.116092 0.005,0.06267 -0.0165,0.123246 -0.0219,0.06124 -0.0652,0.105981 -0.0432,0.04552 -0.0986,0.06918 -0.0537,0.02737 -0.11731,0.02953 -0.0647,0.0047 -0.12549,-0.01709 z" />
    <path
       d="m 91.448524,96.674393 2.90556,-3.044605 q 0.0301,-0.03195 0.0741,-0.04009 0.0421,-0.0067 0.0823,0.0034 0.0402,0.0107 0.0702,0.0386 0.0281,0.02673 0.0438,0.07006 l 1.2416,4.090015 q 0.012,0.0397 -3.4e-4,0.0789 -0.0117,0.0386 -0.0405,0.0687 -0.029,0.0299 -0.0666,0.0439 -0.0379,0.0138 -0.0788,0.004 l -4.14711,-1.04548 q -0.044,-0.0141 -0.0719,-0.0408 -0.0299,-0.0285 -0.0418,-0.0682 -0.012,-0.0397 -0.005,-0.0842 0.005,-0.0425 0.0351,-0.0738 z m 2.95872,-2.621764 -2.5303,2.651374 3.60666,0.90895 z m -0.75169,2.148494 0.33236,-0.3483 1.03634,0.989 -0.33236,0.3483 z m -0.38983,-0.27192 q -0.0485,-0.0464 -0.0716,-0.10449 -0.0249,-0.0561 -0.0264,-0.11808 -0.001,-0.0587 0.0194,-0.11741 0.0224,-0.0577 0.0672,-0.10407 0.0449,-0.047 0.10108,-0.0716 0.058,-0.024 0.11654,-0.0247 0.0606,-5e-5 0.11767,0.0227 0.0573,0.0222 0.10572,0.0687 0.0467,0.0446 0.0736,0.10241 0.0268,0.0578 0.0279,0.11653 0.003,0.0604 -0.0175,0.11931 -0.0209,0.0593 -0.0652,0.10586 -0.0449,0.047 -0.10269,0.0703 -0.058,0.024 -0.11823,0.0231 -0.0602,0.003 -0.11916,-0.0208 -0.0611,-0.0218 -0.10767,-0.0667 z"
       style="font-style:normal;font-variant:normal;font-weight:normal;font-stretch:normal;font-size:medium;line-height:25px;font-family:'Archivo Narrow';-inkscape-font-specification:'Archivo Narrow, Normal';text-align:center;letter-spacing:0px;word-spacing:0px;writing-mode:lr-tb;text-anchor:middle;fill:#000000;fill-opacity:1;stroke:none;stroke-width:0.79400009;stroke-linecap:butt;stroke-linejoin:miter;stroke-miterlimit:4;stroke-dasharray:none;stroke-opacity:1"
       id="path6616"
       inkscape:connector-curvature="0" />
    <path
       inkscape:connector-curvature="0"
       id="path6618"
       style="font-style:normal;font-variant:normal;font-weight:normal;font-stretch:normal;font-size:medium;line-height:25px;font-family:'Archivo Narrow';-inkscape-font-specification:'Archivo Narrow, Normal';text-align:center;letter-spacing:0px;word-spacing:0px;writing-mode:lr-tb;text-anchor:middle;fill:#000000;fill-opacity:1;stroke:none;stroke-width:0.79400009;stroke-linecap:butt;stroke-linejoin:miter;stroke-miterlimit:4;stroke-dasharray:none;stroke-opacity:1"
       d="m 75.377984,107.01031 3.92853,-1.5095 q 0.0409,-0.0161 0.0841,-0.005 0.0411,0.0117 0.0731,0.0379 0.0318,0.0269 0.0469,0.0649 0.014,0.0362 0.01,0.0821 l -0.62687,4.2281 q -0.006,0.041 -0.0341,0.0712 -0.0271,0.0299 -0.066,0.0448 -0.039,0.0146 -0.079,0.0112 -0.0402,-0.004 -0.0729,-0.0301 l -3.30159,-2.71865 q -0.0337,-0.0316 -0.0475,-0.0676 -0.0148,-0.0386 -0.009,-0.0795 0.006,-0.041 0.0315,-0.0782 0.0227,-0.0363 0.0633,-0.0517 z m 3.79574,-1.10454 -3.42114,1.31453 2.87144,2.3641 z m -1.59833,1.62062 0.44939,-0.1727 0.51381,1.33721 -0.44939,0.1727 z m -0.23609,-0.41252 q -0.024,-0.0627 -0.02,-0.12507 10e-4,-0.0614 0.0266,-0.11803 0.0242,-0.0535 0.0677,-0.0978 0.0449,-0.0426 0.10526,-0.0653 0.0607,-0.0233 0.12199,-0.0215 0.0627,0.003 0.1159,0.0275 0.0548,0.0259 0.0967,0.0708 0.0423,0.0446 0.0662,0.10732 0.0231,0.0603 0.0227,0.12404 -5e-4,0.0637 -0.0246,0.11727 -0.0231,0.0559 -0.0668,0.10037 -0.0443,0.0447 -0.10421,0.0678 -0.0607,0.0233 -0.12289,0.0196 -0.0627,-0.003 -0.11675,-0.0297 -0.0557,-0.023 -0.0988,-0.0698 -0.0459,-0.0458 -0.0688,-0.10634 z" />
    <path
       d="m 56.221584,109.99149 4.2083,0.0472 q 0.0439,1.4e-4 0.08,0.0264 0.0339,0.026 0.0539,0.0622 0.0196,0.0367 0.0196,0.0776 -3.5e-4,0.0388 -0.021,0.08 l -2.14325,3.69814 q -0.0207,0.0359 -0.058,0.0536 -0.0362,0.0178 -0.0779,0.0173 -0.0416,-8.3e-4 -0.0776,-0.0187 -0.0359,-0.0186 -0.0566,-0.0549 l -2.06496,-3.74533 q -0.0197,-0.0418 -0.0192,-0.0804 4.9e-4,-0.0413 0.021,-0.0772 0.0207,-0.0359 0.0581,-0.061 0.0345,-0.0254 0.0779,-0.0247 z m 3.93541,0.37451 -3.66477,-0.0411 1.79605,3.25704 z m -2.08366,0.91622 0.4814,0.005 -0.0161,1.43243 -0.4814,-0.005 z m -0.0671,-0.47054 q 8.4e-4,-0.0671 0.0276,-0.12362 0.0236,-0.0567 0.0683,-0.0999 0.0422,-0.0408 0.099,-0.0659 0.0575,-0.023 0.12193,-0.0218 0.065,7.6e-4 0.12132,0.025 0.0572,0.0259 0.0976,0.0683 0.0414,0.0443 0.0637,0.10149 0.0229,0.0571 0.0219,0.12418 -7.9e-4,0.0646 -0.0247,0.12366 -0.024,0.059 -0.0661,0.0999 -0.0421,0.0434 -0.0991,0.0686 -0.0577,0.0252 -0.12187,0.0246 -0.065,-7.5e-4 -0.12145,-0.0271 -0.0572,-0.0259 -0.0975,-0.0707 -0.0433,-0.0419 -0.0661,-0.10134 -0.0258,-0.0595 -0.0247,-0.12423 z"
       style="font-style:normal;font-variant:normal;font-weight:normal;font-stretch:normal;font-size:medium;line-height:25px;font-family:'Archivo Narrow';-inkscape-font-specification:'Archivo Narrow, Normal';text-align:center;letter-spacing:0px;word-spacing:0px;writing-mode:lr-tb;text-anchor:middle;fill:#000000;fill-opacity:1;stroke:none;stroke-width:0.79400009;stroke-linecap:butt;stroke-linejoin:miter;stroke-miterlimit:4;stroke-dasharray:none;stroke-opacity:1"
       id="path6620"
       inkscape:connector-curvature="0" />
    <path
       inkscape:connector-curvature="0"
       id="path6624"
       style="font-style:normal;font-variant:normal;font-weight:normal;font-stretch:normal;font-size:medium;line-height:25px;font-family:'Archivo Narrow';-inkscape-font-specification:'Archivo Narrow, Normal';text-align:center;letter-spacing:0px;word-spacing:0px;writing-mode:lr-tb;text-anchor:middle;fill:#000000;fill-opacity:1;stroke:none;stroke-width:0.79400009;stroke-linecap:butt;stroke-linejoin:miter;stroke-miterlimit:4;stroke-dasharray:none;stroke-opacity:1"
       d="m 43.731514,107.29592 4.05269,1.13478 q 0.0424,0.0115 0.0704,0.0462 0.026,0.0339 0.036,0.074 0.009,0.0405 -0.001,0.08 -0.0104,0.0374 -0.041,0.0718 l -3.02737,3.01741 q -0.0293,0.0293 -0.0699,0.0368 -0.0396,0.008 -0.0797,-0.003 -0.04,-0.0116 -0.0701,-0.0381 -0.0299,-0.0273 -0.0405,-0.0677 l -1.02524,-4.15216 q -0.008,-0.0455 0.002,-0.0826 0.0112,-0.0398 0.0403,-0.0691 0.0293,-0.0293 0.0719,-0.0439 0.0399,-0.0156 0.0816,-0.004 z m 3.70439,1.3803 -3.52926,-0.98821 0.89186,3.61091 z m -2.2498,0.34571 0.4637,0.12943 -0.38629,1.37945 -0.4637,-0.12942 z m 0.057,-0.47187 q 0.0182,-0.0646 0.0587,-0.11226 0.0375,-0.0487 0.0918,-0.0788 0.0513,-0.0285 0.11269,-0.038 0.0615,-0.007 0.12342,0.0105 0.0626,0.0175 0.11071,0.0555 0.0486,0.0398 0.0766,0.0912 0.0285,0.0535 0.0353,0.11452 0.007,0.0611 -0.011,0.12561 -0.0175,0.0622 -0.0559,0.11306 -0.0384,0.0508 -0.0897,0.0794 -0.0519,0.031 -0.11348,0.0406 -0.0623,0.009 -0.12409,-0.008 -0.0626,-0.0175 -0.11029,-0.0576 -0.0486,-0.0398 -0.0759,-0.0935 -0.031,-0.0517 -0.0376,-0.11499 -0.01,-0.0641 0.008,-0.12639 z" />
    <path
       d="m 37.782414,104.37174 3.71549,1.97665 q 0.0389,0.0203 0.0589,0.0602 0.0181,0.0387 0.0193,0.08 1.1e-4,0.0415 -0.0181,0.0779 -0.0182,0.0343 -0.0554,0.0614 l -3.60351,2.29879 q -0.0349,0.0223 -0.0762,0.021 -0.0404,-6.7e-4 -0.0772,-0.02 -0.0366,-0.0199 -0.0603,-0.0522 -0.0234,-0.0331 -0.0251,-0.0748 l -0.11191,-4.2754 q 0.002,-0.0462 0.0197,-0.0803 0.0195,-0.0365 0.0542,-0.0589 0.0349,-0.0224 0.0796,-0.0275 0.0423,-0.007 0.0806,0.0136 z m 3.32268,2.14185 -3.23562,-1.72135 0.0976,3.71814 z m -2.27163,-0.1443 0.42521,0.22577 -0.67285,1.26466 -0.42521,-0.22575 z m 0.15677,-0.4487 q 0.0316,-0.0592 0.0814,-0.0971 0.0471,-0.0395 0.10655,-0.0573 0.0562,-0.0168 0.11822,-0.013 0.0616,0.006 0.1183,0.0367 0.0574,0.0305 0.0963,0.0779 0.0389,0.0493 0.0553,0.10549 0.0164,0.0584 0.01,0.11942 -0.006,0.0612 -0.0376,0.12034 -0.0304,0.057 -0.0788,0.0985 -0.0484,0.0414 -0.10462,0.0583 -0.0573,0.0192 -0.11955,0.0153 -0.0628,-0.005 -0.11949,-0.0344 -0.0574,-0.0305 -0.0954,-0.0799 -0.0389,-0.0493 -0.0541,-0.10759 -0.0192,-0.0571 -0.0121,-0.12038 0.004,-0.0648 0.0349,-0.12174 z"
       style="font-style:normal;font-variant:normal;font-weight:normal;font-stretch:normal;font-size:medium;line-height:25px;font-family:'Archivo Narrow';-inkscape-font-specification:'Archivo Narrow, Normal';text-align:center;letter-spacing:0px;word-spacing:0px;writing-mode:lr-tb;text-anchor:middle;fill:#000000;fill-opacity:1;stroke:none;stroke-width:0.79400009;stroke-linecap:butt;stroke-linejoin:miter;stroke-miterlimit:4;stroke-dasharray:none;stroke-opacity:1"
       id="path6626"
       inkscape:connector-curvature="0" />
    <path
       d="m 22.786234,92.063465 2.62796,3.287218 q 0.0276,0.034 0.0302,0.0786 0.001,0.0428 -0.0135,0.0812 -0.016,0.0382 -0.0475,0.0644 -0.0303,0.0243 -0.0752,0.0344 l -4.21946,0.68255 q -0.0409,0.007 -0.0783,-0.0109 -0.0368,-0.0167 -0.063,-0.049 -0.0258,-0.0328 -0.0347,-0.0718 -0.008,-0.0397 0.007,-0.0786 l 1.59156,-3.969702 q 0.0201,-0.04161 0.0499,-0.06594 0.0323,-0.02575 0.0731,-0.03262 0.0409,-0.0067 0.0839,0.0063 0.0415,0.01053 0.0686,0.04444 z m 2.20184,3.283238 -2.28855,-2.862674 -1.38385,3.452404 z m -2.02846,-1.032717 0.30093,0.375788 -1.11893,0.894479 -0.30094,-0.37578 z m 0.32175,-0.349845 q 0.0524,-0.04185 0.11319,-0.05688 0.0589,-0.01756 0.12053,-0.01037 0.0583,0.0068 0.11371,0.03488 0.0542,0.02996 0.0941,0.08057 0.0406,0.05075 0.0575,0.109638 0.0162,0.06067 0.009,0.118768 -0.008,0.06007 -0.0381,0.113616 -0.0298,0.05383 -0.0822,0.09559 -0.0505,0.0403 -0.11141,0.0592 -0.0608,0.0188 -0.11915,0.0121 -0.0602,-0.005 -0.11592,-0.0329 -0.0557,-0.0295 -0.0961,-0.0789 -0.0407,-0.05077 -0.056,-0.111163 -0.0162,-0.06067 -0.007,-0.120231 0.005,-0.05999 0.0366,-0.115309 0.0294,-0.05789 0.0802,-0.09795 z"
       style="font-style:normal;font-variant:normal;font-weight:normal;font-stretch:normal;font-size:medium;line-height:25px;font-family:'Archivo Narrow';-inkscape-font-specification:'Archivo Narrow, Normal';text-align:center;letter-spacing:0px;word-spacing:0px;writing-mode:lr-tb;text-anchor:middle;fill:#000000;fill-opacity:1;stroke:none;stroke-width:0.79400009;stroke-linecap:butt;stroke-linejoin:miter;stroke-miterlimit:4;stroke-dasharray:none;stroke-opacity:1"
       id="path6630"
       inkscape:connector-curvature="0" />
    <path
       inkscape:connector-curvature="0"
       id="path6632"
       style="font-style:normal;font-variant:normal;font-weight:normal;font-stretch:normal;font-size:medium;line-height:25px;font-family:'Archivo Narrow';-inkscape-font-specification:'Archivo Narrow, Normal';text-align:center;letter-spacing:0px;word-spacing:0px;writing-mode:lr-tb;text-anchor:middle;fill:#000000;fill-opacity:1;stroke:none;stroke-width:0.79400009;stroke-linecap:butt;stroke-linejoin:miter;stroke-miterlimit:4;stroke-dasharray:none;stroke-opacity:1"
       d="m 16.138284,81.066427 1.89373,3.758425 q 0.02,0.03896 0.0134,0.08314 -0.008,0.04209 -0.03,0.07667 -0.0235,0.03408 -0.0597,0.05322 -0.0347,0.01753 -0.0807,0.01816 l -4.26953,-0.202089 q -0.0415,-0.0016 -0.0744,-0.02681 -0.0326,-0.02393 -0.0515,-0.06094 -0.0185,-0.03742 -0.0191,-0.07741 3.5e-4,-0.0405 0.023,-0.07547 l 2.37584,-3.556258 q 0.0282,-0.03657 0.0624,-0.05423 0.0369,-0.01854 0.0782,-0.01685 0.0414,0.0019 0.0808,0.02346 0.0384,0.01886 0.058,0.05763 z m 1.47759,3.666672 -1.64915,-3.273022 -2.06594,3.092901 z m -1.77195,-1.428758 0.21698,0.42976 -1.27931,0.644557 -0.217,-0.429754 z m 0.38697,-0.275989 q 0.0599,-0.03015 0.12248,-0.03232 0.0613,-0.005 0.12008,0.0147 0.0556,0.01867 0.10408,0.05758 0.0469,0.04049 0.0755,0.09824 0.0293,0.05803 0.0337,0.119138 0.003,0.06271 -0.0157,0.118072 -0.0202,0.05713 -0.0607,0.103319 -0.0403,0.04653 -0.10014,0.07659 -0.0577,0.02902 -0.12122,0.03496 -0.0634,0.0059 -0.11909,-0.01273 -0.0579,-0.0173 -0.10664,-0.05609 -0.0484,-0.04035 -0.0778,-0.09702 -0.0294,-0.05807 -0.0319,-0.12032 -0.003,-0.06271 0.0179,-0.119091 0.0173,-0.05767 0.0596,-0.105285 0.0407,-0.05058 0.0987,-0.07931 z" />
    <path
       d="m 14.155214,74.888905 0.98889,4.09073 q 0.0106,0.04249 -0.006,0.08401 -0.0174,0.03917 -0.0467,0.06783 -0.0306,0.02784 -0.0702,0.03824 -0.0378,0.0092 -0.0827,-6.78e-4 l -4.11156,-1.168251 q -0.0401,-0.011 -0.0663,-0.04303 -0.0263,-0.03072 -0.0363,-0.07106 -0.01,-0.04065 -9.9e-4,-0.07973 0.01,-0.03936 0.0396,-0.06826 l 3.12269,-2.922394 q 0.0358,-0.02919 0.0731,-0.03861 0.0401,-0.0097 0.08,0.0014 0.0399,0.01127 0.0733,0.04123 0.0331,0.0271 0.0434,0.06932 z m 0.60454,3.906698 -0.86117,-3.562409 -2.71549,2.541703 z m -1.40038,-1.794461 0.11351,0.467858 -1.39242,0.336564 -0.11352,-0.467857 z m 0.43962,-0.180701 q 0.0652,-0.01573 0.12662,-0.0036 0.0608,0.0091 0.11359,0.04164 0.0499,0.03083 0.0882,0.07975 0.0365,0.0501 0.0512,0.112842 0.0153,0.06318 0.006,0.123681 -0.0113,0.06175 -0.0421,0.111403 -0.0327,0.05103 -0.0826,0.0868 -0.0498,0.03614 -0.11494,0.05179 -0.0628,0.01513 -0.126,0.0065 -0.0631,-0.0087 -0.11307,-0.03949 -0.0524,-0.03002 -0.0911,-0.07888 -0.0379,-0.0503 -0.0537,-0.112178 -0.0154,-0.06324 -0.004,-0.124422 0.0113,-0.06175 0.0445,-0.111894 0.03,-0.05222 0.082,-0.08896 0.0512,-0.03999 0.11416,-0.05477 z"
       style="font-style:normal;font-variant:normal;font-weight:normal;font-stretch:normal;font-size:medium;line-height:25px;font-family:'Archivo Narrow';-inkscape-font-specification:'Archivo Narrow, Normal';text-align:center;letter-spacing:0px;word-spacing:0px;writing-mode:lr-tb;text-anchor:middle;fill:#000000;fill-opacity:1;stroke:none;stroke-width:0.79400009;stroke-linecap:butt;stroke-linejoin:miter;stroke-miterlimit:4;stroke-dasharray:none;stroke-opacity:1"
       id="path6634"
       inkscape:connector-curvature="0" />
    <path
       inkscape:connector-curvature="0"
       id="path6636"
       style="font-style:normal;font-variant:normal;font-weight:normal;font-stretch:normal;font-size:medium;line-height:25px;font-family:'Archivo Narrow';-inkscape-font-specification:'Archivo Narrow, Normal';text-align:center;letter-spacing:0px;word-spacing:0px;writing-mode:lr-tb;text-anchor:middle;fill:#000000;fill-opacity:1;stroke:none;stroke-width:0.79400009;stroke-linecap:butt;stroke-linejoin:miter;stroke-miterlimit:4;stroke-dasharray:none;stroke-opacity:1"
       d="m 13.264744,68.692151 0.33417,4.195271 q 0.004,0.04363 -0.0191,0.08203 -0.0233,0.03595 -0.0568,0.05965 -0.0346,0.02269 -0.0753,0.02674 -0.0388,0.0032 -0.0816,-0.01366 L 9.4890436,71.24271 q -0.0379,-0.01716 -0.0587,-0.05291 -0.0211,-0.03447 -0.0247,-0.07588 -0.004,-0.04172 0.0115,-0.0789 0.0161,-0.0373 0.0498,-0.06119 l 3.5429004,-2.395713 q 0.0399,-0.02321 0.0782,-0.02665 0.0411,-0.0033 0.0788,0.01395 0.0376,0.0174 0.0659,0.05223 0.0284,0.03196 0.032,0.07528 z m -0.0165,3.953161 -0.29101,-3.653448 -3.0809704,2.083696 z m -1.10119,-1.992122 0.0386,0.479879 -1.428,0.113709 -0.0386,-0.479879 z m 0.46255,-0.109416 q 0.0669,-0.0053 0.12561,0.01633 0.0586,0.01854 0.10564,0.05896 0.0444,0.03829 0.0746,0.09261 0.0282,0.05521 0.0328,0.119482 0.005,0.0648 -0.0135,0.123089 -0.0209,0.05921 -0.0591,0.103408 -0.0403,0.04526 -0.0952,0.07275 -0.0549,0.02787 -0.12165,0.0331 -0.0644,0.0051 -0.12546,-0.01337 -0.0609,-0.0185 -0.10546,-0.05676 -0.047,-0.03788 -0.0776,-0.09221 -0.0295,-0.05563 -0.0354,-0.119219 -0.005,-0.06487 0.0156,-0.123506 0.0209,-0.05921 0.0615,-0.103517 0.0378,-0.04686 0.0949,-0.07498 0.0568,-0.03145 0.12135,-0.03616 z" />
    <path
       d="m 13.585594,55.558043 -0.51403,4.177048 q -0.005,0.04355 -0.0352,0.07653 -0.03,0.03055 -0.0676,0.04705 -0.0384,0.01529 -0.0791,0.01109 -0.0386,-0.0046 -0.0772,-0.02975 L 9.3750736,57.299505 q -0.0337,-0.02441 -0.0469,-0.06361 -0.0138,-0.038 -0.009,-0.07929 0.004,-0.04168 0.0271,-0.07499 0.0232,-0.03331 0.0611,-0.04996 l 3.9514004,-1.636459 q 0.0437,-0.01474 0.082,-0.01042 0.0409,0.005 0.0744,0.02947 0.0334,0.02459 0.0541,0.06439 0.0214,0.03701 0.0163,0.08017 z m -0.80902,3.869526 0.44765,-3.637578 -3.4362804,1.423427 z m -0.67927,-2.172502 -0.0584,0.47787 -1.42179,-0.175005 0.0584,-0.47787 z m 0.4751,-0.01442 q 0.0666,0.0082 0.11978,0.04119 0.0537,0.02992 0.0917,0.07895 0.0358,0.04642 0.0545,0.10569 0.0165,0.05974 0.008,0.123633 -0.008,0.06449 -0.0379,0.11788 -0.0323,0.05382 -0.0786,0.08945 -0.0486,0.03626 -0.10786,0.05218 -0.0594,0.01629 -0.12582,0.008 -0.0641,-0.0079 -0.12023,-0.03826 -0.0559,-0.03034 -0.0919,-0.07676 -0.0385,-0.04654 -0.0575,-0.1059 -0.0177,-0.06042 -0.0108,-0.123896 0.008,-0.06455 0.0401,-0.117868 0.0324,-0.05382 0.081,-0.08908 0.0464,-0.03833 0.10801,-0.05442 0.0619,-0.01942 0.12613,-0.01109 z"
       style="font-style:normal;font-variant:normal;font-weight:normal;font-stretch:normal;font-size:medium;line-height:25px;font-family:'Archivo Narrow';-inkscape-font-specification:'Archivo Narrow, Normal';text-align:center;letter-spacing:0px;word-spacing:0px;writing-mode:lr-tb;text-anchor:middle;fill:#000000;fill-opacity:1;stroke:none;stroke-width:0.79400009;stroke-linecap:butt;stroke-linejoin:miter;stroke-miterlimit:4;stroke-dasharray:none;stroke-opacity:1"
       id="path6638"
       inkscape:connector-curvature="0" />
    <path
       inkscape:connector-curvature="0"
       id="path6640"
       style="font-style:normal;font-variant:normal;font-weight:normal;font-stretch:normal;font-size:medium;line-height:25px;font-family:'Archivo Narrow';-inkscape-font-specification:'Archivo Narrow, Normal';text-align:center;letter-spacing:0px;word-spacing:0px;writing-mode:lr-tb;text-anchor:middle;fill:#000000;fill-opacity:1;stroke:none;stroke-width:0.79400009;stroke-linecap:butt;stroke-linejoin:miter;stroke-miterlimit:4;stroke-dasharray:none;stroke-opacity:1"
       d="m 14.928014,49.349061 -1.18326,4.038795 q -0.012,0.04217 -0.0471,0.06983 -0.0345,0.02529 -0.0743,0.03549 -0.0404,0.0089 -0.0798,-0.0019 -0.0374,-0.01079 -0.0714,-0.04185 l -2.98093,-3.063311 q -0.0293,-0.02954 -0.036,-0.07036 -0.007,-0.03973 0.004,-0.0797 0.0107,-0.04048 0.0389,-0.06961 0.0283,-0.02912 0.0684,-0.03941 l 4.16415,-0.975405 q 0.0455,-0.0075 0.0826,0.003 0.0396,0.01155 0.0687,0.04112 0.029,0.02967 0.043,0.0723 0.0151,0.03999 0.003,0.08175 z m -1.42459,3.687587 1.03044,-3.51718 -3.62134,0.848547 z m -0.31872,-2.253794 -0.13497,0.462119 -1.37473,-0.402795 0.13497,-0.462119 z m 0.47117,0.06266 q 0.0644,0.01887 0.11153,0.06003 0.0482,0.03822 0.0777,0.09275 0.0278,0.0516 0.0367,0.113117 0.007,0.06162 -0.0121,0.123298 -0.0183,0.06235 -0.0565,0.110192 -0.0406,0.04788 -0.092,0.07555 -0.0538,0.02792 -0.11488,0.03404 -0.0613,0.0065 -0.12546,-0.01247 -0.062,-0.01817 -0.11245,-0.05721 -0.0503,-0.03899 -0.0783,-0.09062 -0.0305,-0.05216 -0.0396,-0.113809 -0.008,-0.06249 0.009,-0.124011 0.0183,-0.0624 0.0587,-0.109824 0.0407,-0.04787 0.0943,-0.0748 0.052,-0.03032 0.11539,-0.03622 0.0642,-0.0091 0.12626,0.0095 z" />
    <path
       d="m 17.644634,43.289829 -1.87246,3.769064 q -0.0192,0.03942 -0.0586,0.0605 -0.0384,0.01886 -0.0794,0.02193 -0.0413,0.0017 -0.0782,-0.01585 -0.0349,-0.01718 -0.063,-0.05371 l -2.39821,-3.538132 q -0.0237,-0.03422 -0.0231,-0.07558 7e-5,-0.04034 0.0179,-0.07777 0.0176,-0.03798 0.0505,-0.06172 0.033,-0.02371 0.0743,-0.02682 l 4.27063,-0.230862 q 0.0461,5.87e-4 0.0808,0.01742 0.037,0.01831 0.0604,0.05252 0.0233,0.03429 0.0297,0.07871 0.008,0.04202 -0.0114,0.08101 z m -2.04854,3.381011 1.63063,-3.282285 -3.71398,0.201052 z m 0.081,-2.274776 -0.21383,0.43133 -1.28292,-0.637387 0.21384,-0.43133 z m 0.45291,0.144229 q 0.0601,0.02986 0.0993,0.07864 0.0408,0.04607 0.0602,0.104927 0.0183,0.05567 0.0163,0.117797 -0.004,0.06189 -0.0335,0.119272 -0.0289,0.05818 -0.0749,0.09859 -0.0484,0.04003 -0.10381,0.05826 -0.0579,0.01806 -0.11906,0.01339 -0.0615,-0.0043 -0.12134,-0.03425 -0.0579,-0.02875 -0.10069,-0.07602 -0.0427,-0.0472 -0.0612,-0.102935 -0.0209,-0.0567 -0.019,-0.118986 0.003,-0.06292 0.0306,-0.120517 0.0289,-0.05823 0.077,-0.09784 0.0485,-0.04 0.10595,-0.05712 0.0565,-0.02074 0.11995,-0.01545 0.0648,0.0023 0.12264,0.03147 z"
       style="font-style:normal;font-variant:normal;font-weight:normal;font-stretch:normal;font-size:medium;line-height:25px;font-family:'Archivo Narrow';-inkscape-font-specification:'Archivo Narrow, Normal';text-align:center;letter-spacing:0px;word-spacing:0px;writing-mode:lr-tb;text-anchor:middle;fill:#000000;fill-opacity:1;stroke:none;stroke-width:0.79400009;stroke-linecap:butt;stroke-linejoin:miter;stroke-miterlimit:4;stroke-dasharray:none;stroke-opacity:1"
       id="path6642"
       inkscape:connector-curvature="0" />
    <path
       inkscape:connector-curvature="0"
       id="path6644"
       style="font-style:normal;font-variant:normal;font-weight:normal;font-stretch:normal;font-size:medium;line-height:25px;font-family:'Archivo Narrow';-inkscape-font-specification:'Archivo Narrow, Normal';text-align:center;letter-spacing:0px;word-spacing:0px;writing-mode:lr-tb;text-anchor:middle;fill:#000000;fill-opacity:1;stroke:none;stroke-width:0.79400009;stroke-linecap:butt;stroke-linejoin:miter;stroke-miterlimit:4;stroke-dasharray:none;stroke-opacity:1"
       d="m 24.778594,32.360562 -2.72521,3.20705 q -0.0281,0.03363 -0.0714,0.0446 -0.0418,0.0091 -0.0823,0.0022 -0.0405,-0.0083 -0.0721,-0.03422 -0.0297,-0.02508 -0.0482,-0.0673 l -1.47534,-4.011629 q -0.0148,-0.03892 -0.004,-0.07892 0.01,-0.03914 0.0361,-0.07117 0.0262,-0.03262 0.0639,-0.04774 0.0377,-0.01506 0.0786,-0.0081 l 4.20049,0.804638 q 0.0446,0.01167 0.0742,0.03637 0.0315,0.02668 0.046,0.06552 0.0144,0.03889 0.01,0.08355 -0.002,0.04271 -0.0306,0.07588 z m -2.80263,2.788009 2.37324,-2.792856 -3.65305,-0.699485 z m 0.62655,-2.188285 -0.31143,0.367123 -1.09161,-0.927647 0.31144,-0.367121 z m 0.40484,0.249079 q 0.0511,0.04346 0.0774,0.100243 0.0285,0.05454 0.0331,0.116339 0.004,0.05844 -0.0125,0.118254 -0.0188,0.05911 -0.0612,0.107691 -0.0421,0.04951 -0.0965,0.07764 -0.0566,0.02719 -0.11478,0.03154 -0.0606,0.0036 -0.11878,-0.01568 -0.0587,-0.01899 -0.10952,-0.06247 -0.0493,-0.04185 -0.0794,-0.09804 -0.0301,-0.0561 -0.0346,-0.114646 -0.007,-0.06007 0.0102,-0.120059 0.0181,-0.06034 0.0587,-0.109598 0.0421,-0.04955 0.0983,-0.07641 0.0567,-0.02714 0.11659,-0.02992 0.0598,-0.0065 0.12014,0.0139 0.0623,0.01784 0.11145,0.06008 z" />
    <path
       d="m 29.155794,28.153702 -3.05251,2.897267 q -0.0315,0.03043 -0.0757,0.03671 -0.0426,0.0046 -0.0821,-0.0066 -0.0394,-0.01258 -0.068,-0.04174 -0.0268,-0.02811 -0.0407,-0.07207 l -1.03793,-4.146383 q -0.0102,-0.04031 0.004,-0.0789 0.0142,-0.03785 0.0436,-0.06691 0.0296,-0.02963 0.0686,-0.04063 0.0391,-0.01091 0.079,3.76e-4 l 4.09038,1.249168 q 0.0431,0.01637 0.0699,0.0441 0.0285,0.0299 0.0388,0.07006 0.0102,0.0402 6.3e-4,0.08417 -0.007,0.04226 -0.0385,0.07217 z m -3.08468,2.47235 2.65827,-2.523083 -3.55731,-1.086082 z m 0.85695,-2.108745 -0.3489,0.331718 -0.98617,-1.03905 0.34892,-0.331715 z m 0.37589,0.290939 q 0.0462,0.04867 0.0662,0.107946 0.0225,0.05728 0.0205,0.119213 -0.002,0.05854 -0.025,0.116235 -0.025,0.05676 -0.0724,0.100529 -0.0471,0.04472 -0.10425,0.06688 -0.0592,0.02098 -0.11749,0.01912 -0.0606,-0.0029 -0.11642,-0.02829 -0.0564,-0.02516 -0.10224,-0.07382 -0.0445,-0.04689 -0.0685,-0.105968 -0.0239,-0.059 -0.0222,-0.117689 -7.7e-4,-0.06046 0.023,-0.118277 0.0244,-0.05805 0.07,-0.102689 0.0471,-0.04476 0.10591,-0.06546 0.0592,-0.02092 0.11912,-0.01724 0.0602,-4.4e-5 0.11797,0.02667 0.06,0.02441 0.10437,0.07166 z"
       style="font-style:normal;font-variant:normal;font-weight:normal;font-stretch:normal;font-size:medium;line-height:25px;font-family:'Archivo Narrow';-inkscape-font-specification:'Archivo Narrow, Normal';text-align:center;letter-spacing:0px;word-spacing:0px;writing-mode:lr-tb;text-anchor:middle;fill:#000000;fill-opacity:1;stroke:none;stroke-width:0.79400009;stroke-linecap:butt;stroke-linejoin:miter;stroke-miterlimit:4;stroke-dasharray:none;stroke-opacity:1"
       id="path6646"
       inkscape:connector-curvature="0" />
    <path
       inkscape:connector-curvature="0"
       id="path6648"
       style="font-style:normal;font-variant:normal;font-weight:normal;font-stretch:normal;font-size:medium;line-height:25px;font-family:'Archivo Narrow';-inkscape-font-specification:'Archivo Narrow, Normal';text-align:center;letter-spacing:0px;word-spacing:0px;writing-mode:lr-tb;text-anchor:middle;fill:#000000;fill-opacity:1;stroke:none;stroke-width:0.79400009;stroke-linecap:butt;stroke-linejoin:miter;stroke-miterlimit:4;stroke-dasharray:none;stroke-opacity:1"
       d="m 34.603044,24.463367 -3.58712,2.201044 q -0.0371,0.02323 -0.0816,0.0202 -0.0426,-0.0043 -0.0789,-0.02351 -0.0359,-0.0205 -0.0579,-0.05495 -0.0204,-0.03304 -0.0244,-0.07905 l -0.15524,-4.271499 q -0.002,-0.04146 0.0208,-0.07627 0.0217,-0.0341 0.0565,-0.05643 0.0351,-0.02286 0.0755,-0.02553 0.0404,-0.0026 0.0772,0.01676 l 3.74229,2.070492 q 0.0387,0.02498 0.0592,0.05763 0.0215,0.03516 0.0238,0.07647 0.002,0.04135 -0.0168,0.08248 -0.0153,0.03995 -0.0527,0.06262 z m -3.53045,1.778697 3.12384,-1.91678 -3.25465,-1.800376 z m 1.27574,-1.885115 -0.41012,0.252127 -0.74918,-1.221016 0.41015,-0.252123 z m 0.30736,0.362583 q 0.0351,0.05718 0.0424,0.119337 0.01,0.0607 -0.005,0.120864 -0.0144,0.05677 -0.0487,0.108529 -0.0362,0.05033 -0.0917,0.08332 -0.0553,0.03397 -0.11585,0.04379 -0.0623,0.0083 -0.1189,-0.0057 -0.0586,-0.01546 -0.10806,-0.05182 -0.0499,-0.0363 -0.0848,-0.09342 -0.0338,-0.0551 -0.045,-0.117858 -0.0112,-0.06269 0.003,-0.119723 0.0118,-0.05931 0.047,-0.110954 0.036,-0.05173 0.0898,-0.08593 0.0554,-0.03402 0.11718,-0.04207 0.0623,-0.0082 0.12012,0.0079 0.0588,0.01245 0.10991,0.05054 0.0536,0.03632 0.0872,0.09174 z" />
    <path
       d="m 40.458524,21.233319 -3.83442,1.734724 q -0.0397,0.0184 -0.0835,0.0098 -0.0417,-0.0096 -0.0753,-0.0332 -0.0331,-0.02483 -0.0506,-0.06177 -0.0161,-0.03533 -0.0143,-0.08148 l 0.38065,-4.257335 q 0.003,-0.04139 0.0302,-0.07307 0.0258,-0.03112 0.0631,-0.04891 0.0377,-0.01829 0.0781,-0.01588 0.0404,0.0025 0.0745,0.02629 l 3.45369,2.522639 q 0.0353,0.02963 0.0515,0.06459 0.0169,0.03758 0.014,0.07885 -0.003,0.04127 -0.027,0.07973 -0.0202,0.03772 -0.0601,0.05553 z m -3.72533,1.322792 3.3392,-1.510685 -3.00369,-2.193609 z m 1.50167,-1.710601 -0.43845,0.198809 -0.59045,-1.30519 0.43848,-0.1988 z m 0.25956,0.398205 q 0.0277,0.06112 0.0271,0.123705 0.002,0.06147 -0.0201,0.119288 -0.0214,0.05452 -0.0619,0.101579 -0.0422,0.0454 -0.10141,0.07119 -0.0591,0.02678 -0.12042,0.02894 -0.0628,4.37e-4 -0.11725,-0.02054 -0.0562,-0.02267 -0.10073,-0.06494 -0.045,-0.04226 -0.0724,-0.1033 -0.0266,-0.0589 -0.0299,-0.122563 -0.003,-0.0636 0.018,-0.118406 0.0191,-0.05737 0.0605,-0.104198 0.0422,-0.04682 0.0999,-0.07401 0.0592,-0.02682 0.12153,-0.02707 0.0628,-3.38e-4 0.11818,0.02287 0.0568,0.01971 0.10272,0.0639 0.0486,0.04274 0.075,0.101934 z"
       style="font-style:normal;font-variant:normal;font-weight:normal;font-stretch:normal;font-size:medium;line-height:25px;font-family:'Archivo Narrow';-inkscape-font-specification:'Archivo Narrow, Normal';text-align:center;letter-spacing:0px;word-spacing:0px;writing-mode:lr-tb;text-anchor:middle;fill:#000000;fill-opacity:1;stroke:none;stroke-width:0.79400009;stroke-linecap:butt;stroke-linejoin:miter;stroke-miterlimit:4;stroke-dasharray:none;stroke-opacity:1"
       id="path6650"
       inkscape:connector-curvature="0" />
    <path
       id="path6767"
       style="opacity:1;vector-effect:none;fill:none;fill-opacity:1;fill-rule:nonzero;stroke:#ff0000;stroke-width:0.28222224;stroke-linecap:round;stroke-linejoin:round;stroke-miterlimit:4;stroke-dasharray:none;stroke-dashoffset:0;stroke-opacity:1"
       d="m 168.65815,34.66365 1.2539,0.29918 1.25359,0.49726 v 0.95363 l -1.25359,0.49727 -1.2539,0.29918 -0.0821,1.17345 1.20005,0.47078 1.17219,0.6669 -0.13272,0.94434 -1.3106,0.31796 -1.28333,0.12177 -0.24457,1.15061 1.12286,0.63321 1.06796,0.82355 -0.26285,0.91669 -1.3421,0.13246 -1.28779,-0.058 -0.40233,1.10538 1.02381,0.78332 0.94296,0.96416 -0.38788,0.87118 -1.34747,-0.0556 -1.26718,-0.23669 -0.55225,1.03862 0.90483,0.9182 0.79959,1.086 -0.50535,0.80872 -1.32661,-0.2426 -1.2219,-0.41074 -0.69143,0.95166 0.76823,1.03518 0.64067,1.18672 -0.61298,0.73053 -1.27994,-0.42487 -1.15286,-0.5768 -0.81713,0.84617 0.61668,1.13202 0.46928,1.26433 -0.70869,0.63811 -1.20835,-0.59887 -1.06136,-0.73163 -0.92695,0.72422 0.45314,1.20682 0.28874,1.31734 -0.79059,0.53327 -1.11325,-0.76121 -0.9492,-0.87223 -1.01872,0.58816 0.28077,1.25815 0.10259,1.34471 -0.85711,0.41804 -0.99648,-0.90873 -0.81858,-0.99585 -1.09066,0.44066 0.10293,1.28499 -0.0855,1.34589 -0.90696,0.29469 -0.86031,-1.03857 -0.67202,-1.10008 -1.14137,0.28458 -0.0769,1.2868 -0.27203,1.3209 -0.93914,0.1656 -0.7074,-1.14821 -0.51238,-1.18289 -1.16987,0.12296 -0.25524,1.26357 -0.45321,1.27019 -0.95305,0.0333 -0.54071,-1.23547 -0.34276,-1.24269 -1.1756,-0.041 -0.42861,1.21575 -0.62558,1.19475 -0.94841,-0.0997 -0.3635,-1.29871 -0.16648,-1.2783 -1.15844,-0.20427 -0.59364,1.14427 -0.78577,1.09606 -0.9253,-0.2307 -0.17922,-1.33665 0.013,-1.28903 -1.11874,-0.36351 -0.74711,1.05052 -0.93066,0.97603 -0.88419,-0.35724 0.009,-1.34859 0.19232,-1.27466 -1.05727,-0.51567 -0.88605,0.93632 -1.05743,0.83701 -0.82587,-0.47682 0.19615,-1.33427 0.36785,-1.2355 -0.97521,-0.65779 -1.00774,0.80389 -1.16364,0.6817 -0.75147,-0.58712 0.37994,-1.29399 0.53622,-1.17228 -0.87417,-0.78711 -1.10981,0.65581 -1.24719,0.51312 -0.66244,-0.68598 0.55632,-1.22852 0.69415,-1.08625 -0.75612,-0.90111 -1.19028,0.49498 -1.30646,0.33454 -0.56053,-0.77149 0.72189,-1.13915 0.83857,-0.97907 -0.62336,-0.99757 -1.24758,0.32451 -1.34031,0.14947 -0.44769,-0.84201 0.8734,-1.02758 0.96666,-0.85283 -0.47845,-1.07463 -1.2806,0.14772 -1.34807,-0.0385 -0.32616,-0.89612 1.00792,-0.89603 1.07595,-0.70999 -0.32424,-1.13075 -1.2887,-0.032 -1.32958,-0.22577 -0.19827,-0.93279 1.12281,-0.74703 1.16429,-0.55334 -0.16371,-1.16487 -1.27172,-0.21099 -1.28522,-0.40861 -0.0665,-0.95131 1.21585,-0.5835 1.22998,-0.38592 v -1.17632 l -1.22998,-0.38592 -1.21585,-0.5835 0.0665,-0.9513 1.28522,-0.40862 1.27172,-0.21098 0.16371,-1.16487 -1.16429,-0.55335 -1.12281,-0.74703 0.19827,-0.93279 1.32958,-0.22576 1.2887,-0.032 0.32424,-1.13075 -1.07595,-0.70999 -1.00792,-0.89603 0.32616,-0.89612 1.34807,-0.0385 1.2806,0.14772 0.47845,-1.07462 -0.96666,-0.85283 -0.8734,-1.02759 0.44769,-0.84201 1.34031,0.14947 1.24758,0.32451 0.62336,-0.99757 -0.83857,-0.97907 -0.72189,-1.13914 0.56053,-0.7715 1.30646,0.33455 1.19028,0.49497 0.75612,-0.90111 -0.69415,-1.08625 -0.55632,-1.22852 0.66244,-0.68598 1.24719,0.51312 1.10981,0.65581 0.87417,-0.78711 -0.53622,-1.17228 -0.37994,-1.29399 0.75147,-0.58712 1.16364,0.6817 1.00774,0.8039 0.97521,-0.6578 -0.36785,-1.23549 -0.19615,-1.33428 0.82587,-0.47682 1.05743,0.83701 0.88605,0.93632 1.05727,-0.51566 -0.19232,-1.27467 -0.009,-1.3485899 0.88419,-0.35724 0.93066,0.97603 0.74711,1.0505199 1.11874,-0.3635 -0.013,-1.2890299 0.17922,-1.33665 0.9253,-0.23071 0.78577,1.09606 0.59364,1.14427 1.15844,-0.20427 0.16648,-1.2783 0.3635,-1.2987 0.94841,-0.0997 0.62558,1.19474 0.42861,1.21576 1.1756,-0.041 0.34276,-1.24269 0.54071,-1.23547 0.95305,0.0333 0.45321,1.27018 0.25524,1.26357 1.16987,0.12296 0.51238,-1.18289 0.7074,-1.1482 0.93914,0.1656 0.27203,1.32089 0.0769,1.2868 1.14137,0.2845799 0.67202,-1.1000799 0.86031,-1.03857 0.90696,0.29469 0.0855,1.3459 -0.10293,1.2849799 1.09066,0.44066 0.81858,-0.99585 0.99648,-0.9087299 0.85711,0.41804 -0.10259,1.3447099 -0.28077,1.25815 1.01872,0.58816 0.9492,-0.87223 1.11325,-0.76121 0.79059,0.53327 -0.28874,1.31734 -0.45314,1.20683 0.92695,0.72421 1.06136,-0.73163 1.20835,-0.59887 0.70869,0.63811 -0.46928,1.26434 -0.61668,1.13201 0.81713,0.84617 1.15286,-0.5768 1.27994,-0.42487 0.61298,0.73053 -0.64067,1.18672 -0.76823,1.03518 0.69143,0.95166 1.2219,-0.41074 1.32661,-0.2426 0.50535,0.80872 -0.79959,1.08601 -0.90483,0.91819 0.55225,1.03862 1.26718,-0.23669 1.34747,-0.0556 0.38788,0.87118 -0.94296,0.96416 -1.02381,0.78332 0.40233,1.10538 1.28779,-0.058 1.3421,0.13246 0.26285,0.91669 -1.06796,0.82354 -1.12286,0.63321 0.24457,1.15061 1.28333,0.12177 1.3106,0.31796 0.13272,0.94434 -1.17219,0.6669 -1.20005,0.47078 z m -18.50953,1.57301 a 8.1138887,8.1138887 0 0 1 -8.11389,8.11389 8.1138887,8.1138887 0 0 1 -8.11388,-8.11389 8.1138887,8.1138887 0 0 1 8.11388,-8.11389 8.1138887,8.1138887 0 0 1 8.11389,8.11389 z"
       inkscape:connector-curvature="0" />
  </g>
</svg>
