<?xml version="1.0" encoding="UTF-8" standalone="no"?>
<!-- Created with Inkscape (http://www.inkscape.org/) -->

<svg
   xmlns:dc="http://purl.org/dc/elements/1.1/"
   xmlns:cc="http://creativecommons.org/ns#"
   xmlns:rdf="http://www.w3.org/1999/02/22-rdf-syntax-ns#"
   xmlns:svg="http://www.w3.org/2000/svg"
   xmlns="http://www.w3.org/2000/svg"
   xmlns:sodipodi="http://sodipodi.sourceforge.net/DTD/sodipodi-0.dtd"
   xmlns:inkscape="http://www.inkscape.org/namespaces/inkscape"
   width="11in"
   height="9in"
   viewBox="0 0 279.4 228.60001"
   version="1.1"
   id="svg8"
   inkscape:version="0.92.0 r15299"
   sodipodi:docname="interlocking tiles 9x11b.svg">
  <defs
     id="defs2" />
  <sodipodi:namedview
     id="base"
     pagecolor="#ffffff"
     bordercolor="#666666"
     borderopacity="1.0"
     inkscape:pageopacity="0.0"
     inkscape:pageshadow="2"
     inkscape:zoom="0.7"
     inkscape:cx="566.37364"
     inkscape:cy="356.22698"
     inkscape:document-units="in"
     inkscape:current-layer="layer1"
     showgrid="false"
     units="in"
     inkscape:window-width="1920"
     inkscape:window-height="1017"
     inkscape:window-x="-8"
     inkscape:window-y="-8"
     inkscape:window-maximized="1"
     showguides="false"
     inkscape:guide-bbox="true"
     inkscape:snap-intersection-paths="false"
     inkscape:snap-object-midpoints="true"
     inkscape:snap-others="true"
     inkscape:object-nodes="true"
     inkscape:snap-global="false"
     inkscape:object-paths="true">
    <sodipodi:guide
       position="14.198694,227.01206"
       orientation="0,1"
       id="guide4579"
       inkscape:locked="false" />
    <sodipodi:guide
       position="2.1381562,227.01206"
       orientation="1,0"
       id="guide4581"
       inkscape:locked="false" />
    <sodipodi:guide
       position="277.02487,227.01206"
       orientation="1,0"
       id="guide4583"
       inkscape:locked="false" />
    <sodipodi:guide
       position="265.66591,3.2072345"
       orientation="0,1"
       id="guide4585"
       inkscape:locked="false" />
    <sodipodi:guide
       position="226.17151,163.99442"
       orientation="1,0"
       id="guide5129"
       inkscape:locked="false" />
    <sodipodi:guide
       position="178.53604,164.90531"
       orientation="1,0"
       id="guide5131"
       inkscape:locked="false" />
    <sodipodi:guide
       position="131.20499,186.05878"
       orientation="1,0"
       id="guide5133"
       inkscape:locked="false" />
    <sodipodi:guide
       position="83.627232,202.02828"
       orientation="1,0"
       id="guide5135"
       inkscape:locked="false" />
    <sodipodi:guide
       position="36.181613,221.16554"
       orientation="1,0"
       id="guide5137"
       inkscape:locked="false" />
    <sodipodi:guide
       position="36.181612,193.90405"
       orientation="0,1"
       id="guide5139"
       inkscape:locked="false" />
    <sodipodi:guide
       position="39.54576,139.00075"
       orientation="0,1"
       id="guide5141"
       inkscape:locked="false" />
    <sodipodi:guide
       position="38.459077,84.1942"
       orientation="0,1"
       id="guide5143"
       inkscape:locked="false" />
    <sodipodi:guide
       position="39.262277,29.38765"
       orientation="0,1"
       id="guide5145"
       inkscape:locked="false" />
    <sodipodi:guide
       position="189.31883,56.554689"
       orientation="0.00026565657,-0.99999996"
       id="guide5213"
       inkscape:locked="false" />
    <sodipodi:guide
       position="195.10676,111.61844"
       orientation="0,1"
       id="guide5215"
       inkscape:locked="false" />
    <sodipodi:guide
       position="188.49184,166.30847"
       orientation="0,1"
       id="guide5217"
       inkscape:locked="false" />
    <sodipodi:guide
       position="75.973216,70.114585"
       orientation="-0.8660254,-0.5"
       id="guide4692"
       inkscape:locked="false"
       inkscape:label=""
       inkscape:color="rgb(0,0,255)" />
    <sodipodi:guide
       position="34.584822,13.607143"
       orientation="-0.5,0.8660254"
       id="guide4700"
       inkscape:locked="false"
       inkscape:label=""
       inkscape:color="rgb(0,0,255)" />
    <sodipodi:guide
       position="5.6460687,1.2695303"
       orientation="0,1"
       id="guide4582"
       inkscape:locked="false" />
  </sodipodi:namedview>
  <metadata
     id="metadata5">
    <rdf:RDF>
      <cc:Work
         rdf:about="">
        <dc:format>image/svg+xml</dc:format>
        <dc:type
           rdf:resource="http://purl.org/dc/dcmitype/StillImage" />
        <dc:title />
      </cc:Work>
    </rdf:RDF>
  </metadata>
  <g
     inkscape:label="front"
     inkscape:groupmode="layer"
     id="layer1"
     transform="translate(0,-68.399983)"
     style="display:inline">
    <path
       inkscape:connector-curvature="0"
       id="path4550"
       d="m 36.204727,70.701039 -0.0207,0.03462 -0.0191,-0.03411 -4.44727,2.567282 1.48724,2.57607 h -12.82557 l -6.42028,11.11973 h 2.95176 l -5.2e-4,5.135611 h -0.0393 l 0.0202,0.0346 -4.44831,2.56677 -1.47484,-2.55437 -6.41925,11.117668 6.41976,11.1187 -3.00188,5.2e-4 -0.001,5.13509 h 0.0403 l -0.0202,0.0341 4.44727,2.5678 1.50121,-2.59984 6.44611,11.1647 12.88862,5.1e-4 0.003,-0.005 -1.50223,-2.6019 4.44727,-2.56729 0.0196,0.0341 0.0202,-0.0346 4.44676,2.56832 -1.50172,2.60139 0.003,0.005 12.83694,5.2e-4 6.42287,-11.1249 1.48156,2.56573 4.44728,-2.56728 -0.0196,-0.0346 h 0.0393 v -5.13508 h -2.96364 l 6.42338,-11.12439 -6.42906,-11.135748 -1.46761,2.54144 -4.44676,-2.5678 0.0196,-0.0341 h -0.0403 l 10e-4,-5.135611 h 2.93367 l -6.40219,-11.08976 h -12.87673 l 1.48673,-2.57555 z"
       style="opacity:1;fill:none;fill-opacity:1;fill-rule:nonzero;stroke:#ff0000;stroke-width:0.1763889;stroke-linecap:round;stroke-linejoin:round;stroke-miterlimit:4;stroke-dasharray:none;stroke-dashoffset:0;stroke-opacity:1" />
    <path
       style="opacity:1;fill:none;fill-opacity:1;fill-rule:nonzero;stroke:#ff0000;stroke-width:0.1763889;stroke-linecap:round;stroke-linejoin:round;stroke-miterlimit:4;stroke-dasharray:none;stroke-dashoffset:0;stroke-opacity:1"
       d="m 36.205227,125.54314 -0.0207,0.0346 -0.0191,-0.0341 -4.44727,2.56728 1.48724,2.57607 h -12.82557 l -6.42028,11.11973 h 2.95176 l -5.2e-4,5.13561 h -0.0393 l 0.0202,0.0346 -4.44831,2.56677 -1.47484,-2.55437 -6.41925,11.11767 6.41976,11.1187 -3.00188,5.2e-4 -10e-4,5.13509 h 0.0403 l -0.0202,0.0341 4.44727,2.5678 1.50121,-2.59984 6.44611,11.1647 12.88862,5.1e-4 0.003,-0.005 -1.50223,-2.6019 4.44727,-2.56729 0.0196,0.0341 0.0202,-0.0346 4.44676,2.56832 -1.50172,2.60139 0.003,0.005 12.83694,5.2e-4 6.42287,-11.1249 1.48156,2.56573 4.44728,-2.56728 -0.0196,-0.0346 h 0.0393 V 169.233 h -2.96364 l 6.42338,-11.12439 -6.42906,-11.13575 -1.46761,2.54144 -4.44676,-2.5678 0.0196,-0.0341 h -0.0403 l 10e-4,-5.13561 h 2.93367 l -6.40219,-11.08976 h -12.87673 l 1.48673,-2.57555 z"
       id="path4589"
       inkscape:connector-curvature="0" />
    <path
       inkscape:connector-curvature="0"
       id="path4599"
       d="m 83.698347,98.12265 -0.0207,0.03462 -0.0191,-0.03411 -4.44727,2.56728 1.48724,2.57607 h -12.82557 l -6.42028,11.11973 h 2.95176 l -5.2e-4,5.13561 h -0.0393 l 0.0202,0.0346 -4.44831,2.56677 -1.47484,-2.55437 -6.41925,11.11767 6.41976,11.1187 -3.00188,5.2e-4 -10e-4,5.13509 h 0.0403 l -0.0202,0.0341 4.44727,2.5678 1.50121,-2.59984 6.44611,11.1647 12.88862,5.1e-4 0.003,-0.005 -1.50223,-2.6019 4.44727,-2.56729 0.0196,0.0341 0.0202,-0.0346 4.44676,2.56832 -1.50172,2.60139 0.003,0.005 12.83694,5.2e-4 6.422873,-11.1249 1.48156,2.56573 4.44728,-2.56728 -0.0196,-0.0346 h 0.0393 v -5.13508 h -2.96364 l 6.42338,-11.12439 -6.42906,-11.13575 -1.46761,2.54144 -4.44676,-2.5678 0.0196,-0.0341 h -0.0403 l 10e-4,-5.13561 h 2.93367 l -6.402193,-11.08976 h -12.87673 l 1.48673,-2.57555 z"
       style="opacity:1;fill:none;fill-opacity:1;fill-rule:nonzero;stroke:#ff0000;stroke-width:0.1763889;stroke-linecap:round;stroke-linejoin:round;stroke-miterlimit:4;stroke-dasharray:none;stroke-dashoffset:0;stroke-opacity:1" />
    <path
       style="opacity:1;fill:none;fill-opacity:1;fill-rule:nonzero;stroke:#ff0000;stroke-width:0.1763889;stroke-linecap:round;stroke-linejoin:round;stroke-miterlimit:4;stroke-dasharray:none;stroke-dashoffset:0;stroke-opacity:1"
       d="m 131.19086,70.702669 -0.0207,0.03462 -0.0191,-0.03411 -4.44727,2.567282 1.48724,2.57607 h -12.82557 l -6.42028,11.11973 h 2.95176 l -5.2e-4,5.135611 h -0.0393 l 0.0202,0.0346 -4.44831,2.56677 -1.47484,-2.55437 -6.419253,11.117668 6.419763,11.1187 -3.00188,5.2e-4 -10e-4,5.13509 h 0.0403 l -0.0202,0.0341 4.44727,2.5678 1.50121,-2.59984 6.44611,11.1647 12.88862,5.1e-4 0.003,-0.005 -1.50223,-2.6019 4.44727,-2.56729 0.0196,0.0341 0.0202,-0.0346 4.44676,2.56832 -1.50172,2.60139 0.003,0.005 12.83694,5.2e-4 6.42287,-11.1249 1.48156,2.56573 4.44728,-2.56728 -0.0196,-0.0346 h 0.0393 v -5.13508 h -2.96364 l 6.42338,-11.12439 -6.42906,-11.135748 -1.46761,2.54144 -4.44676,-2.5678 0.0196,-0.0341 h -0.0403 l 0.001,-5.135611 h 2.93367 l -6.40219,-11.08976 H 134.1507 l 1.48673,-2.57555 z"
       id="path4609"
       inkscape:connector-curvature="0" />
    <path
       inkscape:connector-curvature="0"
       id="path4617"
       d="m 83.695747,152.96941 -0.0207,0.0346 -0.0191,-0.0341 -4.44727,2.56728 1.48724,2.57607 h -12.82557 l -6.42028,11.11973 h 2.95176 l -5.2e-4,5.13561 h -0.0393 l 0.0202,0.0346 -4.44831,2.56677 -1.47484,-2.55437 -6.41925,11.11767 6.41976,11.1187 -3.00188,5.2e-4 -10e-4,5.13509 h 0.0403 l -0.0202,0.0341 4.44727,2.5678 1.50121,-2.59984 6.44611,11.1647 12.88862,5.1e-4 0.003,-0.005 -1.50223,-2.6019 4.44727,-2.56729 0.0196,0.0341 0.0202,-0.0346 4.44676,2.56832 -1.50172,2.60139 0.003,0.005 12.83694,5.2e-4 6.422873,-11.1249 1.48156,2.56573 4.44728,-2.56728 -0.0196,-0.0346 h 0.0393 v -5.13508 h -2.96364 l 6.42338,-11.12439 -6.42906,-11.13575 -1.46761,2.54144 -4.44676,-2.5678 0.0196,-0.0341 h -0.0403 l 10e-4,-5.13561 h 2.93367 L 99.532317,158.1133 h -12.87673 l 1.48673,-2.57555 z"
       style="opacity:1;fill:none;fill-opacity:1;fill-rule:nonzero;stroke:#ff0000;stroke-width:0.1763889;stroke-linecap:round;stroke-linejoin:round;stroke-miterlimit:4;stroke-dasharray:none;stroke-dashoffset:0;stroke-opacity:1" />
    <path
       inkscape:connector-curvature="0"
       id="path4625"
       d="m 36.205727,180.38524 -0.0207,0.0346 -0.0191,-0.0341 -4.44727,2.56728 1.48724,2.57607 h -12.82557 l -6.42028,11.11973 h 2.95176 l -5.2e-4,5.13561 h -0.0393 l 0.0202,0.0346 -4.44831,2.56677 -1.47484,-2.55437 -6.41925,11.11767 6.41976,11.1187 -3.00188,5.2e-4 -10e-4,5.13509 h 0.0403 l -0.0202,0.0341 4.44727,2.5678 1.50121,-2.59984 6.44611,11.1647 12.88862,5.1e-4 0.003,-0.005 -1.50223,-2.6019 4.44727,-2.56729 0.0196,0.0341 0.0202,-0.0346 4.44676,2.56832 -1.50172,2.60139 0.003,0.005 12.83694,5.2e-4 6.42287,-11.1249 1.48156,2.56573 4.44728,-2.56728 -0.0196,-0.0346 h 0.0393 v -5.13508 h -2.96364 l 6.42338,-11.12439 -6.42906,-11.13575 -1.46761,2.54144 -4.44676,-2.5678 0.0196,-0.0341 h -0.0403 l 0.001,-5.13561 h 2.93367 l -6.40219,-11.08976 h -12.87673 l 1.48673,-2.57555 z"
       style="opacity:1;fill:none;fill-opacity:1;fill-rule:nonzero;stroke:#ff0000;stroke-width:0.1763889;stroke-linecap:round;stroke-linejoin:round;stroke-miterlimit:4;stroke-dasharray:none;stroke-dashoffset:0;stroke-opacity:1" />
    <path
       style="opacity:1;fill:none;fill-opacity:1;fill-rule:nonzero;stroke:#ff0000;stroke-width:0.1763889;stroke-linecap:round;stroke-linejoin:round;stroke-miterlimit:4;stroke-dasharray:none;stroke-dashoffset:0;stroke-opacity:1"
       d="m 276.97706,358.06963 -0.0207,0.0346 -0.0191,-0.0341 -4.44727,2.56728 1.48724,2.57607 h -12.82557 l -6.42028,11.11973 h 2.95176 l -5.2e-4,5.13561 h -0.0393 l 0.0202,0.0346 -4.44831,2.56677 -1.47484,-2.55437 -6.41925,11.11767 6.41976,11.1187 -3.00188,5.2e-4 -0.001,5.13509 h 0.0403 l -0.0202,0.0341 4.44727,2.5678 1.50121,-2.59984 6.44611,11.1647 12.88862,5.1e-4 0.003,-0.005 -1.50223,-2.6019 4.44727,-2.56729 0.0196,0.0341 0.0202,-0.0346 4.44676,2.56832 -1.50172,2.60139 0.003,0.005 12.83694,5.2e-4 6.42287,-11.1249 1.48156,2.56573 4.44728,-2.56728 -0.0196,-0.0346 h 0.0393 v -5.13508 h -2.96364 l 6.42338,-11.12439 -6.42906,-11.13575 -1.46761,2.54144 -4.44676,-2.5678 0.0196,-0.0341 h -0.0403 l 10e-4,-5.13561 h 2.93367 l -6.40219,-11.08976 H 279.9369 l 1.48673,-2.57555 z"
       id="path4633"
       inkscape:connector-curvature="0" />
    <path
       style="opacity:1;fill:none;fill-opacity:1;fill-rule:nonzero;stroke:#ff0000;stroke-width:0.1763889;stroke-linecap:round;stroke-linejoin:round;stroke-miterlimit:4;stroke-dasharray:none;stroke-dashoffset:0;stroke-opacity:1"
       d="m 370.74372,348.39529 -0.0207,0.0346 -0.0191,-0.0341 -4.44727,2.56728 1.48724,2.57607 h -12.82557 l -6.42028,11.11973 h 2.95176 l -5.2e-4,5.13561 h -0.0393 l 0.0202,0.0346 -4.44831,2.56677 -1.47484,-2.55437 -6.41925,11.11767 6.41976,11.1187 -3.00188,5.2e-4 -10e-4,5.13509 h 0.0403 l -0.0202,0.0341 4.44727,2.5678 1.50121,-2.59984 6.44611,11.1647 12.88862,5.1e-4 0.003,-0.005 -1.50223,-2.6019 4.44727,-2.56729 0.0196,0.0341 0.0202,-0.0346 4.44676,2.56832 -1.50172,2.60139 0.003,0.005 12.83694,5.2e-4 6.42288,-11.1249 1.48156,2.56573 4.44728,-2.56728 -0.0196,-0.0346 h 0.0393 v -5.13508 h -2.96364 l 6.42338,-11.12439 -6.42906,-11.13575 -1.46761,2.54144 -4.44676,-2.5678 0.0196,-0.0341 h -0.0403 l 10e-4,-5.13561 h 2.93367 l -6.4022,-11.08976 h -12.87673 l 1.48673,-2.57555 z"
       id="path4641"
       inkscape:connector-curvature="0" />
    <path
       inkscape:connector-curvature="0"
       id="path4649"
       d="m 131.19136,125.54477 -0.0207,0.0346 -0.0191,-0.0341 -4.44727,2.56728 1.48724,2.57607 h -12.82557 l -6.42028,11.11973 h 2.95176 l -5.2e-4,5.13561 h -0.0393 l 0.0202,0.0346 -4.44831,2.56677 -1.47484,-2.55437 -6.419253,11.11767 6.419763,11.1187 -3.00188,5.2e-4 -0.001,5.13509 h 0.0403 l -0.0202,0.0341 4.44727,2.5678 1.50121,-2.59984 6.44611,11.1647 12.88862,5.1e-4 0.003,-0.005 -1.50223,-2.6019 4.44727,-2.56729 0.0196,0.0341 0.0202,-0.0346 4.44676,2.56832 -1.50172,2.60139 0.003,0.005 12.83694,5.2e-4 6.42287,-11.1249 1.48156,2.56573 4.44728,-2.56728 -0.0196,-0.0346 h 0.0393 v -5.13508 h -2.96364 l 6.42338,-11.12439 -6.42906,-11.13575 -1.46761,2.54144 -4.44676,-2.5678 0.0196,-0.0341 h -0.0403 l 0.001,-5.13561 h 2.93367 l -6.40219,-11.08976 H 134.1512 l 1.48673,-2.57555 z"
       style="opacity:1;fill:none;fill-opacity:1;fill-rule:nonzero;stroke:#ff0000;stroke-width:0.1763889;stroke-linecap:round;stroke-linejoin:round;stroke-miterlimit:4;stroke-dasharray:none;stroke-dashoffset:0;stroke-opacity:1" />
    <path
       style="opacity:1;fill:none;fill-opacity:1;fill-rule:nonzero;stroke:#ff0000;stroke-width:0.1763889;stroke-linecap:round;stroke-linejoin:round;stroke-miterlimit:4;stroke-dasharray:none;stroke-dashoffset:0;stroke-opacity:1"
       d="m 418.77388,252.0151 -0.0207,0.0346 -0.0191,-0.0341 -4.44727,2.56728 1.48724,2.57607 h -12.82557 l -6.42028,11.11973 h 2.95176 l -5.2e-4,5.13561 h -0.0393 l 0.0202,0.0346 -4.44831,2.56677 -1.47484,-2.55437 -6.41926,11.11767 6.41977,11.1187 -3.00188,5.2e-4 -10e-4,5.13509 h 0.0403 l -0.0202,0.0341 4.44727,2.5678 1.50121,-2.59984 6.44611,11.1647 12.88862,5.1e-4 0.003,-0.005 -1.50223,-2.6019 4.44727,-2.56729 0.0196,0.0341 0.0202,-0.0346 4.44676,2.56832 -1.50172,2.60139 0.003,0.005 12.83694,5.2e-4 6.42287,-11.1249 1.48156,2.56573 4.44728,-2.56728 -0.0196,-0.0346 h 0.0393 v -5.13508 h -2.96364 l 6.42338,-11.12439 -6.42906,-11.13575 -1.46761,2.54144 -4.44676,-2.5678 0.0196,-0.0341 h -0.0403 l 0.001,-5.13561 h 2.93367 l -6.40219,-11.08976 h -12.87673 l 1.48673,-2.57555 z"
       id="path4657"
       inkscape:connector-curvature="0" />
    <path
       inkscape:connector-curvature="0"
       id="path4673"
       d="m 178.67408,98.163009 -0.0207,0.03462 -0.0191,-0.03411 -4.44727,2.567281 1.48724,2.57607 h -12.82557 l -6.42028,11.11973 h 2.95176 l -5.2e-4,5.13561 h -0.0393 l 0.0202,0.0346 -4.44831,2.56677 -1.47484,-2.55437 -6.41925,11.11767 6.41976,11.1187 -3.00188,5.2e-4 -0.001,5.13509 h 0.0403 l -0.0202,0.0341 4.44727,2.5678 1.50121,-2.59984 6.44611,11.1647 12.88862,5.1e-4 0.003,-0.005 -1.50223,-2.6019 4.44727,-2.56729 0.0196,0.0341 0.0202,-0.0346 4.44676,2.56832 -1.50172,2.60139 0.003,0.005 12.83694,5.2e-4 6.42287,-11.1249 1.48156,2.56573 4.44728,-2.56728 -0.0196,-0.0346 h 0.0393 v -5.13508 h -2.96364 l 6.42338,-11.12439 -6.42906,-11.13575 -1.46761,2.54144 -4.44676,-2.5678 0.0196,-0.0341 h -0.0403 l 0.001,-5.13561 h 2.93367 l -6.40219,-11.08976 h -12.87673 l 1.48673,-2.57555 z"
       style="opacity:1;fill:none;fill-opacity:1;fill-rule:nonzero;stroke:#ff0000;stroke-width:0.1763889;stroke-linecap:round;stroke-linejoin:round;stroke-miterlimit:4;stroke-dasharray:none;stroke-dashoffset:0;stroke-opacity:1" />
    <path
       style="opacity:1;fill:none;fill-opacity:1;fill-rule:nonzero;stroke:#ff0000;stroke-width:0.1763889;stroke-linecap:round;stroke-linejoin:round;stroke-miterlimit:4;stroke-dasharray:none;stroke-dashoffset:0;stroke-opacity:1"
       d="m 336.3636,246.01491 -0.0207,0.0346 -0.0191,-0.0341 -4.44727,2.56728 1.48724,2.57607 H 320.5382 l -6.42028,11.11973 h 2.95176 l -5.2e-4,5.13561 h -0.0393 l 0.0202,0.0346 -4.44831,2.56677 -1.47484,-2.55437 -6.41925,11.11767 6.41976,11.1187 -3.00188,5.2e-4 -10e-4,5.13509 h 0.0403 l -0.0202,0.0341 4.44727,2.5678 1.50121,-2.59984 6.44611,11.1647 12.88862,5.1e-4 0.003,-0.005 -1.50223,-2.6019 4.44727,-2.56729 0.0196,0.0341 0.0202,-0.0346 4.44676,2.56832 -1.50172,2.60139 0.003,0.005 12.83694,5.2e-4 6.42287,-11.1249 1.48156,2.56573 4.44728,-2.56728 -0.0196,-0.0346 h 0.0393 v -5.13508 h -2.96364 l 6.42338,-11.12439 -6.42906,-11.13575 -1.46761,2.54144 -4.44676,-2.5678 0.0196,-0.0341 h -0.0403 l 0.001,-5.13561 h 2.93367 l -6.40219,-11.08975 h -12.87673 l 1.48673,-2.57555 z"
       id="path4681"
       inkscape:connector-curvature="0" />
    <path
       style="opacity:1;fill:none;fill-opacity:1;fill-rule:nonzero;stroke:#ff0000;stroke-width:0.1763889;stroke-linecap:round;stroke-linejoin:round;stroke-miterlimit:4;stroke-dasharray:none;stroke-dashoffset:0;stroke-opacity:1"
       d="m 226.18372,70.772489 -0.0207,0.03462 -0.0191,-0.03411 -4.44727,2.567282 1.48724,2.57607 h -12.82557 l -6.42028,11.11973 h 2.95176 l -5.2e-4,5.135611 h -0.0393 l 0.0202,0.0346 -4.44831,2.56677 -1.47484,-2.55437 -6.41925,11.117668 6.41976,11.1187 -3.00188,5.2e-4 -0.001,5.13509 h 0.0403 l -0.0202,0.0341 4.44727,2.5678 1.50121,-2.59984 6.44611,11.1647 12.88862,5.1e-4 0.003,-0.005 -1.50223,-2.6019 4.44727,-2.56729 0.0196,0.0341 0.0202,-0.0346 4.44676,2.56832 -1.50172,2.60139 0.003,0.005 12.83694,5.2e-4 6.42287,-11.1249 1.48156,2.56573 4.44728,-2.56728 -0.0196,-0.0346 h 0.0393 v -5.13508 h -2.96364 l 6.42338,-11.12439 -6.42906,-11.135748 -1.46761,2.54144 -4.44676,-2.5678 0.0196,-0.0341 h -0.0403 l 0.001,-5.135611 h 2.93367 l -6.40219,-11.08976 h -12.87673 l 1.48673,-2.57555 z"
       id="path4697"
       inkscape:connector-curvature="0" />
    <path
       style="opacity:1;fill:none;fill-opacity:1;fill-rule:nonzero;stroke:#ff0000;stroke-width:0.1763889;stroke-linecap:round;stroke-linejoin:round;stroke-miterlimit:4;stroke-dasharray:none;stroke-dashoffset:0;stroke-opacity:1"
       d="m 226.18422,125.61459 -0.0207,0.0346 -0.0191,-0.0341 -4.44727,2.56728 1.48724,2.57607 h -12.82557 l -6.42028,11.11973 h 2.95176 l -5.2e-4,5.13561 h -0.0393 l 0.0202,0.0346 -4.44831,2.56677 -1.47484,-2.55437 -6.41925,11.11767 6.41976,11.1187 -3.00188,5.2e-4 -0.001,5.13509 h 0.0403 l -0.0202,0.0341 4.44727,2.5678 1.50121,-2.59984 6.44611,11.1647 12.88862,5.1e-4 0.003,-0.005 -1.50223,-2.6019 4.44727,-2.56729 0.0196,0.0341 0.0202,-0.0346 4.44676,2.56832 -1.50172,2.60139 0.003,0.005 12.83694,5.2e-4 6.42287,-11.1249 1.48156,2.56573 4.44728,-2.56728 -0.0196,-0.0346 h 0.0393 v -5.13508 h -2.96364 l 6.42338,-11.12439 -6.42906,-11.13575 -1.46761,2.54144 -4.44676,-2.5678 0.0196,-0.0341 h -0.0403 l 10e-4,-5.13561 h 2.93367 l -6.40219,-11.08976 h -12.87673 l 1.48673,-2.57555 z"
       id="path4705"
       inkscape:connector-curvature="0" />
    <path
       inkscape:connector-curvature="0"
       style="fill:none;fill-opacity:1;stroke:#0000ff;stroke-width:0.17638889;stroke-linecap:round;stroke-linejoin:round;stroke-miterlimit:4;stroke-dasharray:none;stroke-opacity:1"
       d="m 223.6856,153.72961 0.004,0.007 c -0.88059,1.64652 -3.20291,3.13651 -3.3637,3.34614 3.62903,5.68163 5.37937,5.7752 8.58316,5.69424 l 0.004,0.006 c 0.001,-0.002 0.002,-0.005 0.004,-0.007 0.002,-1.4e-4 0.005,6e-4 0.008,-4e-5 l -0.004,-0.006 c 1.67201,-2.73409 2.46614,-4.29671 -0.63978,-10.28036 -0.26193,0.0344 -2.71346,1.30063 -4.57967,1.23998 l -0.004,-0.007 c -0.001,0.002 -0.002,0.004 -0.004,0.007 -0.002,1.3e-4 -0.004,2.7e-4 -0.008,4e-5 z"
       id="path5544" />
    <circle
       style="opacity:1;fill:none;fill-opacity:1;fill-rule:nonzero;stroke:#0000ff;stroke-width:0.17638892;stroke-linecap:round;stroke-linejoin:round;stroke-miterlimit:4;stroke-dasharray:none;stroke-dashoffset:0;stroke-opacity:1"
       id="path5123"
       cx="116.8596"
       cy="249.93625"
       r="9.4368057"
       transform="rotate(-30)" />
    <path
       id="path5147"
       d="m 223.6856,98.804209 0.004,0.0069 c -0.88059,1.646511 -3.20291,3.136501 -3.3637,3.346141 3.62903,5.68162 5.37937,5.7752 8.58316,5.69424 l 0.004,0.006 c 0.001,-0.002 0.002,-0.005 0.004,-0.007 0.002,-1.3e-4 0.005,6e-4 0.008,-3e-5 l -0.004,-0.006 c 1.67201,-2.73409 2.46614,-4.29672 -0.63978,-10.280363 -0.26193,0.03443 -2.71346,1.300631 -4.57968,1.239986 l -0.004,-0.0069 c -0.001,0.0019 -0.002,0.0037 -0.004,0.007 -0.002,1.34e-4 -0.004,2.68e-4 -0.008,3.6e-5 z"
       style="fill:none;fill-opacity:1;stroke:#0000ff;stroke-width:0.17638889;stroke-linecap:round;stroke-linejoin:round;stroke-miterlimit:4;stroke-dasharray:none;stroke-opacity:1"
       inkscape:connector-curvature="0" />
    <circle
       r="9.4368057"
       cy="202.36946"
       cx="144.32231"
       id="circle5149"
       style="opacity:1;fill:none;fill-opacity:1;fill-rule:nonzero;stroke:#0000ff;stroke-width:0.17638892;stroke-linecap:round;stroke-linejoin:round;stroke-miterlimit:4;stroke-dasharray:none;stroke-dashoffset:0;stroke-opacity:1"
       transform="rotate(-30)" />
    <path
       inkscape:connector-curvature="0"
       style="fill:none;fill-opacity:1;stroke:#0000ff;stroke-width:0.17638889;stroke-linecap:round;stroke-linejoin:round;stroke-miterlimit:4;stroke-dasharray:none;stroke-opacity:1"
       d="m 128.71908,98.804207 0.004,0.0069 c -0.88059,1.646513 -3.20291,3.136503 -3.36371,3.346133 3.62904,5.68163 5.37938,5.77521 8.58317,5.69424 l 0.004,0.006 c 0.001,-0.002 0.002,-0.005 0.004,-0.007 0.002,-1.3e-4 0.005,6e-4 0.008,-3e-5 l -0.004,-0.006 c 1.67202,-2.73408 2.46615,-4.29671 -0.63977,-10.280355 -0.26194,0.03443 -2.71346,1.300632 -4.57968,1.239986 l -0.004,-0.0069 c -0.001,0.0019 -0.002,0.0037 -0.004,0.007 -0.002,1.34e-4 -0.004,2.68e-4 -0.008,3.6e-5 z"
       id="path5153" />
    <circle
       style="opacity:1;fill:none;fill-opacity:1;fill-rule:nonzero;stroke:#0000ff;stroke-width:0.17638892;stroke-linecap:round;stroke-linejoin:round;stroke-miterlimit:4;stroke-dasharray:none;stroke-dashoffset:0;stroke-opacity:1"
       id="circle5155"
       cx="62.078888"
       cy="154.8862"
       r="9.4368057"
       transform="rotate(-30)" />
    <path
       id="path5159"
       d="m 33.695696,98.804207 0.004,0.0069 c -0.880589,1.646513 -3.202906,3.136503 -3.363701,3.346133 3.629032,5.68163 5.379371,5.77521 8.583166,5.69424 l 0.0035,0.006 c 0.0012,-0.002 0.002,-0.005 0.0041,-0.007 0.0022,-1.3e-4 0.005,6e-4 0.0081,-3e-5 l -0.0035,-0.006 c 1.672015,-2.73408 2.466145,-4.29671 -0.639773,-10.280355 -0.261937,0.03443 -2.713459,1.300631 -4.579678,1.239986 l -0.004,-0.0069 c -0.0012,0.0019 -0.0025,0.0037 -0.0041,0.007 -0.0022,1.34e-4 -0.0045,2.68e-4 -0.0081,3.6e-5 z"
       style="fill:none;fill-opacity:1;stroke:#0000ff;stroke-width:0.17638889;stroke-linecap:round;stroke-linejoin:round;stroke-miterlimit:4;stroke-dasharray:none;stroke-opacity:1"
       inkscape:connector-curvature="0" />
    <circle
       r="9.4368057"
       cy="107.3745"
       cx="-20.213774"
       id="circle5161"
       style="opacity:1;fill:none;fill-opacity:1;fill-rule:nonzero;stroke:#0000ff;stroke-width:0.17638892;stroke-linecap:round;stroke-linejoin:round;stroke-miterlimit:4;stroke-dasharray:none;stroke-dashoffset:0;stroke-opacity:1"
       transform="rotate(-30)" />
    <path
       inkscape:connector-curvature="0"
       style="fill:none;fill-opacity:1;stroke:#0000ff;stroke-width:0.17638889;stroke-linecap:round;stroke-linejoin:round;stroke-miterlimit:4;stroke-dasharray:none;stroke-opacity:1"
       d="m 33.695696,153.70751 0.004,0.007 c -0.880589,1.64651 -3.202905,3.1365 -3.363701,3.34613 3.629032,5.68163 5.379371,5.77521 8.583166,5.69424 l 0.0035,0.006 c 0.0012,-0.002 0.002,-0.005 0.0041,-0.007 0.0022,-1.3e-4 0.005,6e-4 0.0081,-3e-5 l -0.0035,-0.006 c 1.672014,-2.73408 2.466144,-4.29671 -0.639774,-10.28036 -0.261937,0.0344 -2.713459,1.30064 -4.579678,1.23999 l -0.004,-0.007 c -0.0012,0.002 -0.0025,0.004 -0.0041,0.007 -0.0022,1.3e-4 -0.0045,2.6e-4 -0.0081,3e-5 z"
       id="path5165" />
    <circle
       style="opacity:1;fill:none;fill-opacity:1;fill-rule:nonzero;stroke:#0000ff;stroke-width:0.17638892;stroke-linecap:round;stroke-linejoin:round;stroke-miterlimit:4;stroke-dasharray:none;stroke-dashoffset:0;stroke-opacity:1"
       id="circle5167"
       cx="-47.665424"
       cy="154.92216"
       r="9.4368057"
       transform="rotate(-30)" />
    <path
       id="path5171"
       d="m 128.71908,153.70751 0.004,0.007 c -0.88059,1.64651 -3.20291,3.1365 -3.36371,3.34613 3.62904,5.68163 5.37938,5.77521 8.58317,5.69424 l 0.004,0.006 c 0.001,-0.002 0.002,-0.005 0.004,-0.007 0.002,-1.3e-4 0.005,6e-4 0.008,-3e-5 l -0.004,-0.006 c 1.67201,-2.73408 2.46614,-4.29671 -0.63978,-10.28036 -0.26194,0.0344 -2.71346,1.30064 -4.57968,1.23999 l -0.004,-0.007 c -0.001,0.002 -0.002,0.004 -0.004,0.007 -0.002,1.3e-4 -0.004,2.6e-4 -0.008,3e-5 z"
       style="fill:none;fill-opacity:1;stroke:#0000ff;stroke-width:0.17638889;stroke-linecap:round;stroke-linejoin:round;stroke-miterlimit:4;stroke-dasharray:none;stroke-opacity:1"
       inkscape:connector-curvature="0" />
    <circle
       r="9.4368057"
       cy="202.43385"
       cx="34.627235"
       id="circle5173"
       style="opacity:1;fill:none;fill-opacity:1;fill-rule:nonzero;stroke:#0000ff;stroke-width:0.17638892;stroke-linecap:round;stroke-linejoin:round;stroke-miterlimit:4;stroke-dasharray:none;stroke-dashoffset:0;stroke-opacity:1"
       transform="rotate(-30)" />
    <path
       id="path5189"
       d="m 33.695693,208.51406 0.004,0.007 c -0.880589,1.64652 -3.202906,3.13651 -3.363701,3.34614 3.629032,5.68163 5.379371,5.77521 8.583166,5.69424 l 0.0035,0.006 c 0.0012,-0.002 0.002,-0.005 0.0041,-0.007 0.0022,-1.3e-4 0.005,6e-4 0.0081,-4e-5 l -0.0035,-0.006 c 1.672015,-2.73408 2.466145,-4.29671 -0.639773,-10.28036 -0.261937,0.0344 -2.713459,1.30063 -4.579678,1.23999 l -0.004,-0.007 c -0.0012,0.002 -0.0025,0.004 -0.0041,0.007 -0.0022,1.4e-4 -0.0045,2.7e-4 -0.0081,4e-5 z"
       style="fill:none;fill-opacity:1;stroke:#0000ff;stroke-width:0.17638889;stroke-linecap:round;stroke-linejoin:round;stroke-miterlimit:4;stroke-dasharray:none;stroke-opacity:1"
       inkscape:connector-curvature="0" />
    <circle
       r="9.4368057"
       cy="202.38602"
       cx="-75.068703"
       id="circle5191"
       style="opacity:1;fill:none;fill-opacity:1;fill-rule:nonzero;stroke:#0000ff;stroke-width:0.17638892;stroke-linecap:round;stroke-linejoin:round;stroke-miterlimit:4;stroke-dasharray:none;stroke-dashoffset:0;stroke-opacity:1"
       transform="rotate(-30)" />
    <path
       inkscape:connector-curvature="0"
       style="fill:none;fill-opacity:1;stroke:#0000ff;stroke-width:0.17638889;stroke-linecap:round;stroke-linejoin:round;stroke-miterlimit:4;stroke-dasharray:none;stroke-opacity:1"
       d="m 176.05012,127.53568 0.004,0.007 c -0.88059,1.64651 -3.2029,3.1365 -3.3637,3.34614 3.62903,5.68163 5.37937,5.7752 8.58317,5.69424 l 0.003,0.006 c 0.001,-0.002 0.002,-0.005 0.004,-0.007 0.002,-1.4e-4 0.005,5.9e-4 0.008,-4e-5 l -0.004,-0.006 c 1.67202,-2.73409 2.46615,-4.29671 -0.63977,-10.28036 -0.26194,0.0344 -2.71346,1.30063 -4.57968,1.23998 l -0.004,-0.007 c -0.001,0.002 -0.002,0.004 -0.004,0.007 -0.002,1.3e-4 -0.004,2.7e-4 -0.008,3e-5 z"
       id="path5219" />
    <circle
       style="opacity:1;fill:none;fill-opacity:1;fill-rule:nonzero;stroke:#0000ff;stroke-width:0.17638892;stroke-linecap:round;stroke-linejoin:round;stroke-miterlimit:4;stroke-dasharray:none;stroke-dashoffset:0;stroke-opacity:1"
       id="circle5221"
       cx="88.703041"
       cy="203.43391"
       r="9.4368057"
       transform="rotate(-30)" />
    <path
       inkscape:connector-curvature="0"
       style="fill:none;fill-opacity:1;stroke:#0000ff;stroke-width:0.17638889;stroke-linecap:round;stroke-linejoin:round;stroke-miterlimit:4;stroke-dasharray:none;stroke-opacity:1"
       d="m 81.141317,181.08981 0.004,0.007 c -0.880589,1.64652 -3.202906,3.13651 -3.363702,3.34614 3.629032,5.68163 5.379372,5.77521 8.583167,5.69424 l 0.0035,0.006 c 0.0012,-0.002 0.002,-0.005 0.0041,-0.007 0.0022,-1.3e-4 0.005,6e-4 0.0081,-4e-5 l -0.0035,-0.006 c 1.672015,-2.73408 2.466145,-4.29671 -0.639773,-10.28036 -0.261938,0.0344 -2.713459,1.30063 -4.579678,1.23999 l -0.004,-0.007 c -0.0012,0.002 -0.0025,0.004 -0.0041,0.007 -0.0022,1.4e-4 -0.0045,2.7e-4 -0.0081,4e-5 z"
       id="path5243" />
    <circle
       style="opacity:1;fill:none;fill-opacity:1;fill-rule:nonzero;stroke:#0000ff;stroke-width:0.17638892;stroke-linecap:round;stroke-linejoin:round;stroke-miterlimit:4;stroke-dasharray:none;stroke-dashoffset:0;stroke-opacity:1"
       id="circle5245"
       cx="-20.267464"
       cy="202.35875"
       r="9.4368057"
       transform="rotate(-30)" />
    <path
       id="path5249"
       d="m 81.141315,126.39979 0.004,0.007 c -0.880589,1.64651 -3.202906,3.1365 -3.363701,3.34613 3.629032,5.68163 5.379371,5.77521 8.583166,5.69424 l 0.0035,0.006 c 0.0012,-0.002 0.002,-0.005 0.0041,-0.007 0.0022,-1.3e-4 0.005,6e-4 0.0081,-3e-5 l -0.0035,-0.006 c 1.672015,-2.73408 2.466145,-4.29671 -0.639773,-10.28036 -0.261937,0.0344 -2.713459,1.30064 -4.579678,1.23999 l -0.004,-0.007 c -0.0012,0.002 -0.0025,0.004 -0.0041,0.007 -0.0022,1.3e-4 -0.0045,2.6e-4 -0.0081,3e-5 z"
       style="fill:none;fill-opacity:1;stroke:#0000ff;stroke-width:0.17638889;stroke-linecap:round;stroke-linejoin:round;stroke-miterlimit:4;stroke-dasharray:none;stroke-opacity:1"
       inkscape:connector-curvature="0" />
    <circle
       r="9.4368057"
       cy="154.99579"
       cx="7.0775476"
       id="circle5251"
       style="opacity:1;fill:none;fill-opacity:1;fill-rule:nonzero;stroke:#0000ff;stroke-width:0.17638892;stroke-linecap:round;stroke-linejoin:round;stroke-miterlimit:4;stroke-dasharray:none;stroke-dashoffset:0;stroke-opacity:1"
       transform="rotate(-30)" />
    <rect
       style="opacity:1;fill:none;fill-opacity:1;fill-rule:nonzero;stroke:#0000ff;stroke-width:0.17638892;stroke-linecap:round;stroke-linejoin:round;stroke-miterlimit:4;stroke-dasharray:none;stroke-dashoffset:0;stroke-opacity:1"
       id="rect4636"
       width="25.223612"
       height="25.223612"
       x="291.72128"
       y="322.38327" />
    <path
       id="path4638"
       d="m 304.32273,314.30722 -4.4726,2.58227 1.46038,2.52956 h -12.71706 v 34.78858 h 12.62094 l -1.36426,-2.36368 4.4726,-2.58228 0.0103,0.0186 0.0103,-0.0186 4.47259,2.58228 -1.36426,2.36368 h 12.62094 v -34.78858 h -12.71696 l 1.46037,-2.52956 -4.47259,-2.58227 -0.0103,0.0186 z"
       style="opacity:1;fill:none;fill-opacity:1;fill-rule:nonzero;stroke:#ff0000;stroke-width:0.17638892;stroke-linecap:round;stroke-linejoin:round;stroke-miterlimit:4;stroke-dasharray:none;stroke-dashoffset:0;stroke-opacity:1"
       inkscape:connector-curvature="0" />
    <path
       inkscape:connector-curvature="0"
       id="path4676"
       d="m 266.88278,374.70193 c -0.38533,0.23658 -0.89061,0.75192 -0.68639,0.95961 0.33006,0.10041 0.63383,0.34016 0.94059,0.53608 0.68406,0.43687 1.33866,0.99551 2.01873,1.71261 0.25908,0.0237 0.31421,-0.0339 0.54911,-0.25081 0.15684,-0.14476 0.29865,-0.25835 0.27429,-0.4321 -0.0517,-0.2765 -0.12741,-0.53303 -0.19749,-0.80147 -0.0778,-0.29776 -0.14786,-0.60923 -0.15738,-0.95681 -0.0197,-0.71685 0.0207,-1.34437 -0.0635,-1.86495 -0.0418,-0.2105 -0.54964,-0.015 -0.73792,0.0926 -0.40322,0.23005 -0.90662,0.53947 -1.70253,0.89313 -0.0658,0.0178 -0.14855,0.0575 -0.23748,0.11211 z m -1.25319,1.04713 c -0.0486,0.0211 -0.0885,0.0567 -0.11678,0.10178 -0.37264,0.60963 -1.03517,0.69308 -1.21879,1.30828 -0.0612,0.20529 0.0245,0.4377 0.23028,0.49738 1.25204,0.36309 1.45295,0.59979 2.91588,1.50761 0.7267,0.0675 1.13951,-0.5439 1.25944,-0.70368 0.12606,-0.17281 0.1602,-0.40023 0.004,-0.54744 -0.76782,-1.09046 -1.56424,-1.38324 -2.64456,-2.05593 -0.0826,-0.13825 -0.28598,-0.17499 -0.4294,-0.10787 z m 4.30269,-2.31224 c -0.12984,0.0906 -0.19922,0.28515 -0.12113,0.42601 0.0424,1.27192 -0.10231,2.10804 0.45819,3.31821 0.0494,0.20889 0.26336,0.29308 0.4761,0.27027 1.07693,-0.11532 0.6321,-0.21136 1.04723,-0.36908 0.19989,-0.0759 0.29506,-0.21101 0.28829,-0.42533 -0.0547,-1.72085 -0.15927,-2.01322 0.15231,-3.27907 0.0512,-0.20805 -0.10727,-0.39873 -0.31572,-0.44831 -0.62462,-0.14864 -1.12439,0.43929 -1.83863,0.45719 -0.0534,0.001 -0.1034,0.0199 -0.1466,0.0501 z m -6.12831,4.35342 c -0.0426,0.0316 -0.0779,0.071 -0.0976,0.12073 -0.26228,0.66515 -0.98575,0.93274 -1.06096,1.57088 -0.0251,0.21291 0.0985,0.43393 0.31206,0.45067 1.3172,0.10368 1.64817,0.14308 3.12918,0.98373 0.72696,-0.0587 1.11393,-0.80368 1.20453,-0.98188 0.0944,-0.19214 0.0891,-0.42226 -0.09,-0.54048 -0.94284,-0.94273 -1.77711,-1.09421 -2.95596,-1.57122 -0.10536,-0.12177 -0.31155,-0.12338 -0.44122,-0.0325 z m 8.83866,-4.79549 c -0.14282,0.0685 -0.24165,0.24989 -0.18664,0.40124 -0.15788,1.26195 -0.43234,2.06426 -0.0686,3.34704 0.016,0.21394 0.21423,0.33082 0.42801,0.34192 0.19979,0.008 1.039,0.0328 1.44447,-0.57346 0.21623,-1.70696 0.1589,-2.01198 0.66563,-3.21207 0.0833,-0.19727 -0.0432,-0.41016 -0.24148,-0.49196 -0.59387,-0.24528 -1.18008,0.25598 -1.8887,0.16094 -0.053,-0.007 -0.10528,0.003 -0.15283,0.0263 z m -10.28914,7.10135 c -0.0687,0.0424 -0.12123,0.10745 -0.13677,0.18626 -0.13809,0.70215 -0.80063,1.09622 -0.75973,1.73797 0.0136,0.21414 0.17447,0.40601 0.38755,0.38737 1.31191,-0.11488 1.79217,-0.23368 3.328,0.33625 0.70397,-0.18918 0.87475,-0.92631 0.93174,-1.11811 0.0583,-0.20617 0.0115,-0.4316 -0.18572,-0.51557 -1.09635,-0.75751 -1.94346,-0.75572 -3.18798,-1.01213 -0.10455,-0.084 -0.26287,-0.0733 -0.37706,-0.002 z m 13.0305,-7.10996 c -0.11951,0.062 -0.20761,0.19489 -0.18709,0.32749 -0.40019,1.20599 -0.8253,1.93871 -0.71745,3.26693 -0.0259,0.21282 0.14607,0.3662 0.35376,0.41881 0.19461,0.0465 1.01347,0.2349 1.52927,-0.28015 0.54394,-1.63071 0.43531,-2.1343 1.16592,-3.21158 0.1201,-0.17705 0.037,-0.41073 -0.1416,-0.52961 -0.53531,-0.35631 -1.09618,0.21437 -1.7733,-0.0171 -0.0761,-0.0259 -0.15821,-0.0127 -0.22951,0.0252 z m -13.93939,9.64725 c -0.12137,0.0589 -0.21395,0.18737 -0.19656,0.32046 0.0927,0.71052 -0.30342,1.17618 -0.21378,1.81312 0.0299,0.2125 0.20532,0.39273 0.41607,0.35662 0.38497,-0.066 2.2077,-0.33016 2.59418,-0.33788 0.40491,-0.008 0.3093,0.0782 0.95375,-0.006 0.2089,-0.0271 0.35444,-0.12095 0.39862,-0.25978 0.1504,-0.47186 0.22202,-0.87988 0.24586,-1.25196 -0.0105,-0.21424 -0.24078,-0.26988 -0.4542,-0.28654 -1.27866,-0.36844 -2.25345,-0.52129 -3.51295,-0.36686 -0.0754,-0.0279 -0.1583,-0.017 -0.23102,0.0186 z m 16.8462,-9.70156 c -0.0668,0.0456 -0.11795,0.11155 -0.13164,0.1907 -0.7635,1.01359 -1.20489,2.25952 -1.52514,3.55118 -0.18403,0.42063 1.16222,1.13719 1.74278,0.7331 0.52071,-1.13278 1.26165,-2.08209 2.18034,-3.18745 0.13668,-0.16455 0.0681,-0.40635 -0.10099,-0.53852 -0.50678,-0.39609 -1.22069,-0.32375 -1.78969,-0.75926 -0.10646,-0.0815 -0.26375,-0.0651 -0.3757,0.0102 z m -8.81921,5.65716 c -0.45808,0.30221 -0.87864,0.63275 -1.2572,0.98738 l 0.90935,1.57503 -1.46294,0.84463 -0.61875,-1.07171 c -0.36674,0.52334 -0.66253,1.07306 -0.88241,1.63611 l 0.1309,0.22672 -0.26603,0.15359 c -0.21982,0.67101 -0.33497,1.35547 -0.33855,2.03089 l 1.39934,-0.80791 0.85603,1.48269 -1.98064,1.14353 c 0.0202,0.0635 0.0401,0.12711 0.0627,0.19002 l 0.47935,1.33269 2.23348,-1.2895 1.03957,1.80059 1.93199,1.76428 -0.56172,-2.5554 -1.03957,-1.80059 1.46293,-0.84463 1.03957,1.80059 1.93219,1.76417 -0.56174,-2.55539 -1.03957,-1.8006 1.46314,-0.84474 1.03957,1.80059 1.9322,1.76416 -0.56213,-2.55517 -1.03957,-1.80059 1.46312,-0.84474 1.03958,1.80059 1.93218,1.76417 -0.56172,-2.5554 -1.03957,-1.8006 2.20845,-1.27505 -0.80317,-0.8359 c -0.0752,-0.13023 -0.17099,-0.25401 -0.28459,-0.37175 l -1.91549,1.10592 -0.85604,-1.4827 1.04568,-0.60372 c -1.0139,-0.3433 -2.26929,-0.52901 -3.53116,-0.53636 l 0.32028,0.55474 -1.46315,0.84475 -0.73492,-1.27293 c -0.57028,0.0832 -1.11365,0.20931 -1.60848,0.37808 l 0.97334,1.68587 -1.46313,0.84474 -1.0226,-1.77119 z m 11.63942,-4.66543 c -0.0447,0.0286 -0.0818,0.0669 -0.10421,0.11549 -0.74913,0.88415 -1.43726,1.99705 -2.39163,3.03104 -0.1391,0.16245 -0.0801,0.38499 0.0643,0.54388 0.73117,0.80438 0.93665,0.5467 1.20306,0.88552 0.13276,0.16875 0.45276,0.13227 0.5425,-0.0621 0.52161,-1.12951 1.09407,-2.1344 2.39174,-3.03085 0.17593,-0.12142 0.0956,-0.40085 -0.0642,-0.54419 -0.47892,-0.42959 -0.76555,-0.31754 -1.20326,-0.88538 -0.0984,-0.12753 -0.30381,-0.13811 -0.43829,-0.0534 z m -20.20913,11.69192 c -0.14055,0.0741 -0.23421,0.25775 -0.17295,0.40658 0.27291,0.66299 0.0104,0.77688 0.14294,1.40644 0.0442,0.21004 0.23082,0.37816 0.43886,0.32759 1.39652,-0.33884 2.56796,-0.69676 3.81395,-0.66604 0.21396,0.005 0.40425,-0.24039 0.32499,-0.43876 -0.16022,-0.40013 0.19511,-0.26082 -0.13591,-1.29622 -0.0655,-0.20445 -0.22883,-0.367 -0.43918,-0.32768 -1.32902,-0.0246 -2.64499,0.0797 -3.82046,0.55578 -0.0532,-0.005 -0.10535,0.008 -0.15225,0.0323 z m 7.55369,-2.24288 1.46293,-0.84463 0.85605,1.48271 -1.46294,0.84463 z m 2.83338,-1.63586 1.46313,-0.84474 0.85605,1.48271 -1.46314,0.84475 z m 2.8332,-1.63575 1.46314,-0.84474 0.85604,1.48271 -1.46313,0.84474 z m 8.99922,-4.75027 c -0.0457,0.0271 -0.0836,0.065 -0.1072,0.11302 -1.01943,0.7543 -1.79508,1.82262 -2.46745,2.96912 -0.14326,0.15871 -0.0742,0.37053 0.0506,0.54525 0.35154,0.49205 0.45691,0.77451 0.60678,1.17864 0.0747,0.20125 0.24291,0.0951 0.39813,-0.052 0.90386,-0.85637 2.08233,-1.30073 3.3461,-1.9837 0.18808,-0.1016 0.21374,-0.35122 0.10558,-0.53676 -0.32494,-0.55558 -1.07235,-1.59049 -1.49565,-2.16915 -0.0951,-0.12996 -0.30039,-0.14581 -0.43697,-0.0646 z m -22.08151,12.89132 c -0.13319,0.0867 -0.20988,0.27769 -0.13544,0.42051 0.33127,0.63591 0.84874,1.62783 1.20335,2.16495 0.11824,0.17926 0.35372,0.26634 0.52803,0.14263 1.17149,-0.83149 2.1737,-1.49737 3.3414,-1.92916 0.20053,-0.0741 0.28789,-0.37251 0.14051,-0.52861 -0.2959,-0.31331 -0.42345,-0.3959 -0.70904,-0.92894 -0.10106,-0.18948 -0.26082,-0.34481 -0.46664,-0.28663 -1.32533,0.0957 -2.62636,0.31866 -3.75372,0.89929 -0.0535,2e-5 -0.104,0.0172 -0.14852,0.0459 z m 3.37615,1.81585 c -0.56564,0.31679 -1.09099,0.66999 -1.55122,1.07142 -0.20501,0.0607 -0.2052,0.32391 -0.14051,0.52863 0.20245,0.64056 0.48513,1.13237 0.93959,1.62742 0.14526,0.15814 0.35784,0.27196 0.52806,0.14264 1.1499,-0.87382 2.18493,-1.42188 3.34139,-1.92915 0.19577,-0.0859 0.28791,-0.37252 0.1405,-0.52863 -0.2958,-0.31336 -0.25151,-0.78576 -0.93959,-1.62742 -0.13601,-0.16619 -0.34736,-0.25686 -0.52805,-0.14264 -0.61972,0.25888 -1.22478,0.54051 -1.79017,0.85773 z m 18.89627,-10.90977 c -0.55717,0.33147 -1.10407,0.71428 -1.63811,1.12159 -0.18919,0.0994 -0.21632,0.32768 -0.14029,0.52851 0.38488,1.01671 0.86053,1.29152 0.98402,1.70437 0.0615,0.20569 0.35205,0.26435 0.52783,0.14273 1.04705,-0.72439 1.98194,-1.44363 3.34161,-1.92928 0.20131,-0.0719 0.2047,-0.32366 0.14031,-0.52849 -0.2015,-0.64109 -0.5305,-1.20877 -0.98402,-1.70437 -0.14498,-0.15836 -0.37284,-0.29002 -0.52785,-0.14275 -0.57775,0.19792 -1.14607,0.47666 -1.7035,0.80769 z m 1.43641,2.53011 c -0.55716,0.33146 -1.10387,0.71458 -1.63798,1.12176 -0.18921,0.0995 -0.17507,0.31671 -0.1403,0.52849 0.1718,1.04707 0.72524,1.18702 0.918,1.59004 0.0926,0.19371 0.33486,0.23466 0.52785,0.14273 1.16745,-0.55611 2.27352,-1.0087 3.34158,-1.92926 0.16187,-0.1397 0.20469,-0.32366 0.14033,-0.52851 -0.20151,-0.64109 -0.46449,-1.09442 -0.91801,-1.59003 -0.14497,-0.15836 -0.37284,-0.29001 -0.52786,-0.14273 -0.57774,0.1979 -1.14619,0.47647 -1.70361,0.80751 z m -18.80114,10.91198 c -0.56559,0.31675 -1.1102,0.66235 -1.6098,1.04831 -0.20506,0.0606 -0.20521,0.32389 -0.14052,0.5286 0.20245,0.64056 0.52956,1.20932 0.98402,1.70438 0.14515,0.15817 0.33461,0.23362 0.52804,0.1426 1.25801,-0.59176 2.26467,-1.21599 3.34139,-1.92915 0.17825,-0.118 0.26193,-0.35151 0.14052,-0.5286 -0.25264,-0.36846 -0.16315,-1.03205 -0.98402,-1.70438 -0.166,-0.13601 -0.34737,-0.25685 -0.52805,-0.14261 -0.58073,0.27423 -1.1663,0.56355 -1.73158,0.88083 z m 21.97054,-9.33517 c -0.0232,0.0106 -0.0444,0.0257 -0.0633,0.0449 -1.02037,0.96954 -2.18174,1.32041 -3.3416,1.92927 -0.18921,0.0995 -0.25842,0.34942 -0.1402,0.52868 0.54736,0.83026 0.85445,1.26461 0.9839,1.70417 0.0607,0.20589 0.33989,0.24455 0.52786,0.14276 1.00671,-0.54519 2.16485,-1.04679 3.34159,-1.92927 0.17098,-0.12831 0.21346,-0.32664 0.14031,-0.52853 -0.22701,-0.62635 -0.72226,-1.09778 -0.98391,-1.70416 -0.0745,-0.17246 -0.30411,-0.26518 -0.4642,-0.18699 z m -22.18925,12.94789 c -0.14781,0.0994 -0.18231,0.34478 -0.0702,0.49552 0.39432,0.52977 0.49569,1.09172 0.92463,1.60151 0.13825,0.16429 0.33833,0.2411 0.52805,0.14262 1.29748,-0.67338 2.25405,-1.52363 3.34139,-1.92916 0.20037,-0.0746 0.28855,-0.3731 0.14052,-0.52861 -0.31594,-0.33188 -0.47929,-0.71236 -0.92463,-1.6015 -0.0962,-0.19196 -0.34749,-0.25706 -0.52817,-0.14283 -1.10723,0.70003 -1.99153,1.53028 -3.34139,1.92915 -0.0261,0.007 -0.0493,0.0187 -0.0707,0.0324 z m 3.92851,0.8905 c -0.82919,0.48148 -1.54623,1.06735 -2.46277,1.49328 -0.19385,0.0901 -0.21963,0.32925 -0.14041,0.5288 0.24466,0.61622 0.4137,1.27596 0.98391,1.70417 0.17151,0.12894 0.31153,0.19497 0.49353,0.0828 1.24387,-0.76621 2.5517,-1.67224 3.43638,-1.9612 0.20326,-0.0663 0.24406,-0.34074 0.1404,-0.5288 -0.21436,-0.39055 -0.37145,-0.85437 -1.04428,-1.61218 -0.1426,-0.16052 -0.33005,-0.22314 -0.52816,-0.14281 -0.31311,0.12699 -0.60212,0.27554 -0.87868,0.43577 z m 16.31018,-9.34529 c -0.19116,0.0957 -0.20797,0.32497 -0.1402,0.52868 0.31986,0.9616 0.75287,1.32328 0.98391,1.70418 0.11154,0.18352 0.35073,0.26245 0.52785,0.14275 0.95058,-0.64243 2.05609,-1.23515 3.34158,-1.92927 0.18808,-0.10159 0.16613,-0.31546 0.14032,-0.52852 -0.0858,-0.70791 -0.57257,-1.18419 -0.9839,-1.70417 -0.13323,-0.16837 -0.35696,-0.27118 -0.52798,-0.14292 -1.08161,0.81111 -2.14212,1.32953 -3.34158,1.92927 z m -14.89388,11.79841 c -0.82918,0.48148 -1.54622,1.06736 -2.46276,1.49327 -0.19385,0.0901 -0.21975,0.32906 -0.14051,0.52863 0.24464,0.61619 0.35454,1.1735 0.92476,1.60173 0.1715,0.12891 0.3285,0.21931 0.52804,0.1426 1.38002,-0.53039 2.36462,-1.33212 3.34139,-1.92915 0.18204,-0.11209 0.24417,-0.34055 0.14052,-0.5286 -0.21436,-0.39055 -0.25193,-0.84392 -0.92476,-1.60173 -0.1426,-0.16052 -0.32994,-0.22295 -0.52805,-0.14263 -0.31311,0.12698 -0.60213,0.27554 -0.87863,0.43588 z m 16.31019,-9.3453 c -0.19316,0.0916 -0.20807,0.32479 -0.1403,0.52851 0.31985,0.96159 0.75297,1.32346 0.98402,1.70437 0.11153,0.18351 0.34011,0.24497 0.52784,0.14274 1.00544,-0.5474 2.19224,-0.99932 3.34159,-1.92926 0.16619,-0.13451 0.16613,-0.31545 0.14032,-0.52851 -0.0858,-0.70793 -0.5727,-1.18441 -0.98402,-1.70438 -0.13324,-0.16838 -0.35619,-0.27013 -0.52787,-0.14273 -0.53938,0.4004 -1.07262,0.65965 -1.61842,0.96847 -0.55434,0.31306 -1.12116,0.6758 -1.72316,0.96079 z m -17.42382,13.32713 c -0.13722,0.10033 -0.14266,0.31856 -0.0733,0.49319 0.24465,0.61621 0.41379,1.27614 0.98402,1.70438 0.1715,0.12892 0.32357,0.2051 0.52805,0.14261 1.09808,-0.3355 2.13595,-1.20623 3.34139,-1.92915 0.18328,-0.11003 0.24417,-0.34055 0.14051,-0.52861 -0.21436,-0.39055 -0.31119,-0.94656 -0.98402,-1.70438 -0.1426,-0.16051 -0.35631,-0.26992 -0.52804,-0.14261 -0.99451,0.73728 -2.01658,1.45261 -3.3414,1.92915 -0.0258,0.008 -0.0479,0.0207 -0.0675,0.0348 z m 22.2853,-12.7752 c -0.0222,0.01 -0.044,0.0226 -0.0637,0.041 -1.07508,0.90905 -2.20583,1.43663 -3.34158,1.92926 -0.19609,0.0851 -0.20797,0.32498 -0.14022,0.52869 0.31987,0.9616 0.75287,1.32327 0.98392,1.70419 0.1115,0.18353 0.35971,0.27474 0.52786,0.14272 1.02186,-0.80237 2.2114,-1.31448 3.34157,-1.92926 0.18811,-0.10161 0.16614,-0.31547 0.14033,-0.5285 -0.0858,-0.70794 -0.57259,-1.18422 -0.98391,-1.70419 -0.11652,-0.14737 -0.30839,-0.25195 -0.46389,-0.18328 z m -22.87272,16.34888 c -0.27037,0.15335 -0.33,0.54117 -0.16841,0.82105 l 0.27216,0.4714 c 0.17237,0.29856 0.53641,0.37422 0.84751,0.22932 1.8032,-0.84011 3.5598,-1.68745 5.23886,-2.62029 4.9814,-2.74775 10.97093,-6.23445 16.54472,-9.58114 1.739,-1.05361 2.67423,-1.86932 4.44137,-2.9395 0.29347,-0.17781 0.39749,-0.55005 0.22512,-0.84861 l -0.27216,-0.47138 c -0.17236,-0.29855 -0.56232,-0.42024 -0.84747,-0.22934 -1.07804,0.72174 -2.12066,1.51168 -3.2664,2.13388 -4.52687,2.45844 -8.94902,5.64444 -13.94625,8.0108 -3.05852,1.44836 -5.71198,3.6532 -9.01229,4.99626 -0.0203,0.007 -0.039,0.0169 -0.057,0.0273 z"
       style="fill:none;fill-opacity:1;stroke:#0000ff;stroke-width:0.17638889;stroke-linecap:round;stroke-linejoin:round;stroke-miterlimit:4;stroke-dasharray:none;stroke-dashoffset:0;stroke-opacity:1" />
    <text
       xml:space="preserve"
       style="font-style:normal;font-weight:normal;font-size:14.76567173px;line-height:18.45709038px;font-family:sans-serif;letter-spacing:0px;word-spacing:0px;fill:none;fill-opacity:1;stroke:#0000ff;stroke-width:0.17638889;stroke-linecap:butt;stroke-linejoin:miter;stroke-miterlimit:4;stroke-dasharray:none;stroke-opacity:1"
       x="39.312435"
       y="484.45593"
       id="text4680"
       transform="matrix(0.8640445,-0.49885632,0.5011463,0.86801085,0,0)"><tspan
         sodipodi:role="line"
         id="tspan4678"
         x="39.312435"
         y="484.45593"
         style="font-style:normal;font-variant:normal;font-weight:normal;font-stretch:normal;line-height:18.45709038px;font-family:'Archivo Black';-inkscape-font-specification:'Archivo Black, ';fill:none;fill-opacity:1;stroke:#0000ff;stroke-width:0.17638889;stroke-miterlimit:4;stroke-dasharray:none;stroke-opacity:1">D</tspan></text>
    <path
       style="fill:none;fill-opacity:1;stroke:#0000ff;stroke-width:0.17638889;stroke-linecap:round;stroke-linejoin:round;stroke-miterlimit:4;stroke-dasharray:none;stroke-dashoffset:0;stroke-opacity:1"
       d="m 360.40645,365.22915 c -0.38533,0.23658 -0.89062,0.75192 -0.6864,0.95961 0.33006,0.10041 0.63384,0.34016 0.9406,0.53608 0.68406,0.43687 1.33865,0.99551 2.01872,1.71261 0.25908,0.0237 0.31422,-0.0339 0.54911,-0.25081 0.15685,-0.14476 0.29865,-0.25835 0.2743,-0.4321 -0.0517,-0.2765 -0.12741,-0.53303 -0.19749,-0.80147 -0.0778,-0.29776 -0.14786,-0.60923 -0.15739,-0.95681 -0.0197,-0.71685 0.0207,-1.34437 -0.0636,-1.86495 -0.0418,-0.2105 -0.54963,-0.015 -0.73792,0.0926 -0.40322,0.23005 -0.90661,0.53947 -1.70253,0.89313 -0.0658,0.0178 -0.14854,0.0575 -0.23748,0.11211 z m -1.25319,1.04713 c -0.0486,0.0211 -0.0885,0.0567 -0.11679,0.10178 -0.37264,0.60963 -1.03517,0.69308 -1.21879,1.30828 -0.0612,0.20529 0.0245,0.4377 0.23029,0.49738 1.25203,0.36309 1.45295,0.59979 2.91588,1.50761 0.7267,0.0675 1.1395,-0.5439 1.25943,-0.70368 0.12607,-0.17281 0.16021,-0.40023 0.004,-0.54744 -0.76782,-1.09046 -1.56424,-1.38324 -2.64455,-2.05593 -0.0826,-0.13825 -0.28599,-0.17499 -0.4294,-0.10787 z m 4.30269,-2.31224 c -0.12985,0.0906 -0.19923,0.28515 -0.12114,0.42601 0.0424,1.27192 -0.10231,2.10804 0.45819,3.31821 0.0494,0.20889 0.26336,0.29308 0.4761,0.27027 1.07694,-0.11532 0.6321,-0.21136 1.04723,-0.36908 0.19989,-0.0759 0.29506,-0.21101 0.28829,-0.42533 -0.0547,-1.72085 -0.15927,-2.01322 0.15231,-3.27907 0.0512,-0.20805 -0.10727,-0.39873 -0.31571,-0.44831 -0.62462,-0.14864 -1.12439,0.43929 -1.83864,0.45719 -0.0534,0.001 -0.1034,0.0199 -0.1466,0.0501 z m -6.12832,4.35342 c -0.0426,0.0316 -0.0779,0.071 -0.0976,0.12073 -0.26228,0.66515 -0.98574,0.93274 -1.06096,1.57088 -0.0251,0.21291 0.0985,0.43393 0.31207,0.45067 1.31719,0.10368 1.64816,0.14308 3.12918,0.98373 0.72695,-0.0587 1.11393,-0.80368 1.20453,-0.98188 0.0944,-0.19214 0.0891,-0.42226 -0.09,-0.54048 -0.94284,-0.94273 -1.77711,-1.09421 -2.95596,-1.57122 -0.10537,-0.12177 -0.31155,-0.12338 -0.44122,-0.0325 z m 8.83866,-4.79549 c -0.14282,0.0685 -0.24165,0.24989 -0.18664,0.40124 -0.15788,1.26195 -0.43234,2.06426 -0.0686,3.34704 0.016,0.21394 0.21423,0.33082 0.42802,0.34192 0.19978,0.008 1.039,0.0328 1.44447,-0.57346 0.21623,-1.70696 0.15889,-2.01198 0.66562,-3.21207 0.0833,-0.19727 -0.0432,-0.41016 -0.24148,-0.49196 -0.59387,-0.24528 -1.18007,0.25598 -1.88869,0.16094 -0.053,-0.007 -0.10528,0.003 -0.15283,0.0263 z m -10.28913,7.10135 c -0.0687,0.0424 -0.12124,0.10745 -0.13677,0.18626 -0.1381,0.70215 -0.80063,1.09622 -0.75974,1.73797 0.0136,0.21414 0.17447,0.40601 0.38755,0.38737 1.31192,-0.11488 1.79217,-0.23368 3.328,0.33625 0.70397,-0.18918 0.87475,-0.92631 0.93174,-1.11811 0.0583,-0.20617 0.0115,-0.4316 -0.18572,-0.51557 -1.09635,-0.75751 -1.94345,-0.75572 -3.18798,-1.01213 -0.10455,-0.084 -0.26287,-0.0733 -0.37706,-0.002 z m 13.0305,-7.10996 c -0.11952,0.062 -0.20762,0.19489 -0.18709,0.32749 -0.40019,1.20599 -0.8253,1.93871 -0.71745,3.26693 -0.0259,0.21282 0.14606,0.3662 0.35375,0.41881 0.19461,0.0465 1.01347,0.2349 1.52928,-0.28015 0.54393,-1.63071 0.4353,-2.1343 1.16592,-3.21158 0.12009,-0.17705 0.037,-0.41073 -0.1416,-0.52961 -0.53532,-0.35631 -1.09619,0.21437 -1.77331,-0.0171 -0.0761,-0.0259 -0.15821,-0.0127 -0.2295,0.0252 z m -13.9394,9.64725 c -0.12137,0.0589 -0.21395,0.18737 -0.19656,0.32046 0.0927,0.71052 -0.30341,1.17618 -0.21377,1.81312 0.0299,0.2125 0.20532,0.39273 0.41606,0.35662 0.38498,-0.066 2.2077,-0.33016 2.59419,-0.33788 0.40491,-0.008 0.30929,0.0782 0.95375,-0.006 0.2089,-0.0271 0.35443,-0.12095 0.39861,-0.25978 0.1504,-0.47186 0.22202,-0.87988 0.24587,-1.25196 -0.0105,-0.21424 -0.24079,-0.26988 -0.45421,-0.28654 -1.27866,-0.36844 -2.25344,-0.52129 -3.51294,-0.36686 -0.0754,-0.0279 -0.1583,-0.017 -0.23102,0.0186 z m 16.8462,-9.70156 c -0.0668,0.0456 -0.11795,0.11155 -0.13163,0.1907 -0.7635,1.01359 -1.20489,2.25952 -1.52514,3.55118 -0.18404,0.42063 1.16221,1.13719 1.74277,0.7331 0.52072,-1.13278 1.26166,-2.08209 2.18034,-3.18745 0.13668,-0.16455 0.0681,-0.40635 -0.10098,-0.53852 -0.50679,-0.39609 -1.22069,-0.32375 -1.7897,-0.75926 -0.10646,-0.0815 -0.26375,-0.0651 -0.37569,0.0102 z m -8.81921,5.65716 c -0.45807,0.30221 -0.87863,0.63275 -1.25719,0.98738 l 0.90934,1.57503 -1.46293,0.84463 -0.61875,-1.07171 c -0.36674,0.52334 -0.66254,1.07306 -0.88242,1.63611 l 0.1309,0.22672 -0.26602,0.15359 c -0.21982,0.67101 -0.33497,1.35547 -0.33855,2.03089 l 1.39933,-0.80791 0.85604,1.48269 -1.98064,1.14353 c 0.0202,0.0635 0.0401,0.12711 0.0627,0.19002 l 0.47935,1.33269 2.23347,-1.2895 1.03958,1.80059 1.93198,1.76428 -0.56172,-2.5554 -1.03957,-1.80059 1.46293,-0.84463 1.03958,1.80059 1.93218,1.76417 -0.56174,-2.55539 -1.03957,-1.8006 1.46314,-0.84474 1.03957,1.80059 1.9322,1.76416 -0.56213,-2.55517 -1.03957,-1.80059 1.46313,-0.84474 1.03957,1.80059 1.93219,1.76417 -0.56172,-2.5554 -1.03958,-1.8006 2.20846,-1.27505 -0.80318,-0.8359 c -0.0752,-0.13023 -0.17098,-0.25401 -0.28458,-0.37175 l -1.9155,1.10592 -0.85603,-1.4827 1.04567,-0.60372 c -1.0139,-0.3433 -2.26928,-0.52901 -3.53116,-0.53636 l 0.32028,0.55474 -1.46314,0.84475 -0.73493,-1.27293 c -0.57028,0.0832 -1.11364,0.20931 -1.60847,0.37808 l 0.97333,1.68587 -1.46313,0.84474 -1.02259,-1.77119 z m 11.63942,-4.66543 c -0.0447,0.0286 -0.0818,0.0669 -0.1042,0.11549 -0.74913,0.88415 -1.43726,1.99705 -2.39164,3.03104 -0.13909,0.16245 -0.0801,0.38499 0.0643,0.54388 0.73118,0.80438 0.93665,0.5467 1.20307,0.88552 0.13275,0.16875 0.45275,0.13227 0.54249,-0.0621 0.52162,-1.12951 1.09407,-2.1344 2.39175,-3.03085 0.17593,-0.12142 0.0956,-0.40085 -0.0642,-0.54419 -0.47893,-0.42959 -0.76556,-0.31754 -1.20327,-0.88538 -0.0984,-0.12753 -0.30381,-0.13811 -0.43829,-0.0534 z m -20.20913,11.69192 c -0.14055,0.0741 -0.2342,0.25775 -0.17295,0.40658 0.27291,0.66299 0.0104,0.77688 0.14294,1.40644 0.0442,0.21004 0.23083,0.37816 0.43887,0.32759 1.39651,-0.33884 2.56795,-0.69676 3.81394,-0.66604 0.21396,0.005 0.40426,-0.24039 0.32499,-0.43876 -0.16022,-0.40013 0.19512,-0.26082 -0.13591,-1.29622 -0.0655,-0.20445 -0.22883,-0.367 -0.43918,-0.32768 -1.32901,-0.0246 -2.64499,0.0797 -3.82046,0.55578 -0.0532,-0.005 -0.10534,0.008 -0.15224,0.0323 z m 7.55369,-2.24288 1.46294,-0.84463 0.85604,1.48271 -1.46294,0.84463 z m 2.83338,-1.63586 1.46314,-0.84474 0.85604,1.48271 -1.46314,0.84475 z m 2.83321,-1.63575 1.46313,-0.84474 0.85605,1.48271 -1.46314,0.84474 z m 8.99921,-4.75027 c -0.0457,0.0271 -0.0836,0.065 -0.10719,0.11302 -1.01943,0.7543 -1.79508,1.82262 -2.46746,2.96912 -0.14326,0.15871 -0.0742,0.37053 0.0506,0.54525 0.35154,0.49205 0.45691,0.77451 0.60678,1.17864 0.0747,0.20125 0.24292,0.0951 0.39814,-0.052 0.90386,-0.85637 2.08233,-1.30073 3.34609,-1.9837 0.18809,-0.1016 0.21375,-0.35122 0.10558,-0.53676 -0.32493,-0.55558 -1.07235,-1.59049 -1.49565,-2.16915 -0.0951,-0.12996 -0.30038,-0.14581 -0.43696,-0.0646 z m -22.08151,12.89132 c -0.13319,0.0867 -0.20988,0.27769 -0.13543,0.42051 0.33126,0.63591 0.84873,1.62783 1.20335,2.16495 0.11823,0.17926 0.35371,0.26634 0.52802,0.14263 1.1715,-0.83149 2.17371,-1.49737 3.3414,-1.92916 0.20053,-0.0741 0.2879,-0.37251 0.14051,-0.52861 -0.29589,-0.31331 -0.42345,-0.3959 -0.70903,-0.92894 -0.10107,-0.18948 -0.26082,-0.34481 -0.46664,-0.28663 -1.32534,0.0957 -2.62637,0.31866 -3.75373,0.89929 -0.0535,2e-5 -0.104,0.0172 -0.14852,0.0459 z m 3.37615,1.81585 c -0.56564,0.31679 -1.09098,0.66999 -1.55122,1.07142 -0.20501,0.0607 -0.2052,0.32391 -0.14051,0.52863 0.20246,0.64056 0.48513,1.13237 0.9396,1.62742 0.14526,0.15814 0.35783,0.27196 0.52806,0.14264 1.14989,-0.87382 2.18493,-1.42188 3.34139,-1.92915 0.19576,-0.0859 0.2879,-0.37252 0.14049,-0.52863 -0.2958,-0.31336 -0.25151,-0.78576 -0.93959,-1.62742 -0.13601,-0.16619 -0.34736,-0.25686 -0.52805,-0.14264 -0.61971,0.25888 -1.22478,0.54051 -1.79017,0.85773 z m 18.89627,-10.90977 c -0.55716,0.33147 -1.10407,0.71428 -1.6381,1.12159 -0.1892,0.0994 -0.21632,0.32768 -0.1403,0.52851 0.38489,1.01671 0.86053,1.29152 0.98402,1.70437 0.0615,0.20569 0.35205,0.26435 0.52783,0.14273 1.04706,-0.72439 1.98195,-1.44363 3.34161,-1.92928 0.20131,-0.0719 0.20471,-0.32366 0.14031,-0.52849 -0.2015,-0.64109 -0.53049,-1.20877 -0.98402,-1.70437 -0.14497,-0.15836 -0.37284,-0.29002 -0.52784,-0.14275 -0.57776,0.19792 -1.14608,0.47666 -1.70351,0.80769 z m 1.43641,2.53011 c -0.55715,0.33146 -1.10387,0.71458 -1.63797,1.12176 -0.18921,0.0995 -0.17507,0.31671 -0.14031,0.52849 0.17181,1.04707 0.72524,1.18702 0.91801,1.59004 0.0926,0.19371 0.33485,0.23466 0.52784,0.14273 1.16745,-0.55611 2.27353,-1.0087 3.34159,-1.92926 0.16187,-0.1397 0.20469,-0.32366 0.14032,-0.52851 -0.2015,-0.64109 -0.46449,-1.09442 -0.918,-1.59003 -0.14498,-0.15836 -0.37285,-0.29001 -0.52787,-0.14273 -0.57773,0.1979 -1.14619,0.47647 -1.70361,0.80751 z m -18.80113,10.91198 c -0.5656,0.31675 -1.11021,0.66235 -1.60981,1.04831 -0.20506,0.0606 -0.2052,0.32389 -0.14052,0.5286 0.20246,0.64056 0.52956,1.20932 0.98402,1.70438 0.14515,0.15817 0.33462,0.23362 0.52805,0.1426 1.258,-0.59176 2.26466,-1.21599 3.34139,-1.92915 0.17824,-0.118 0.26192,-0.35151 0.14051,-0.5286 -0.25264,-0.36846 -0.16315,-1.03205 -0.98402,-1.70438 -0.166,-0.13601 -0.34737,-0.25685 -0.52804,-0.14261 -0.58073,0.27423 -1.1663,0.56355 -1.73159,0.88083 z m 21.97053,-9.33517 c -0.0232,0.0106 -0.0444,0.0257 -0.0633,0.0449 -1.02037,0.96954 -2.18174,1.32041 -3.3416,1.92927 -0.18921,0.0995 -0.25842,0.34942 -0.1402,0.52868 0.54736,0.83026 0.85445,1.26461 0.9839,1.70417 0.0607,0.20589 0.3399,0.24455 0.52786,0.14276 1.00672,-0.54519 2.16485,-1.04679 3.3416,-1.92927 0.17097,-0.12831 0.21345,-0.32664 0.1403,-0.52853 -0.22701,-0.62635 -0.72225,-1.09778 -0.9839,-1.70416 -0.0745,-0.17246 -0.30412,-0.26518 -0.46421,-0.18699 z m -22.18924,12.94789 c -0.14781,0.0994 -0.18231,0.34478 -0.0702,0.49552 0.39431,0.52977 0.49568,1.09172 0.92462,1.60151 0.13826,0.16429 0.33833,0.2411 0.52806,0.14262 1.29747,-0.67338 2.25405,-1.52363 3.34139,-1.92916 0.20037,-0.0746 0.28854,-0.3731 0.14051,-0.52861 -0.31594,-0.33188 -0.47929,-0.71236 -0.92463,-1.6015 -0.0962,-0.19196 -0.34749,-0.25706 -0.52816,-0.14283 -1.10723,0.70003 -1.99154,1.53028 -3.3414,1.92915 -0.0261,0.007 -0.0493,0.0187 -0.0707,0.0324 z m 3.9285,0.8905 c -0.82919,0.48148 -1.54623,1.06735 -2.46277,1.49328 -0.19385,0.0901 -0.21963,0.32925 -0.1404,0.5288 0.24466,0.61622 0.41369,1.27596 0.9839,1.70417 0.17152,0.12894 0.31154,0.19497 0.49354,0.0828 1.24387,-0.76621 2.55169,-1.67224 3.43638,-1.9612 0.20325,-0.0663 0.24406,-0.34074 0.14039,-0.5288 -0.21436,-0.39055 -0.37145,-0.85437 -1.04428,-1.61218 -0.1426,-0.16052 -0.33005,-0.22314 -0.52816,-0.14281 -0.31311,0.12699 -0.60212,0.27554 -0.87868,0.43577 z m 16.31018,-9.34529 c -0.19115,0.0957 -0.20796,0.32497 -0.14019,0.52868 0.31986,0.9616 0.75286,1.32328 0.9839,1.70418 0.11155,0.18352 0.35074,0.26245 0.52785,0.14275 0.95058,-0.64243 2.05609,-1.23515 3.34159,-1.92927 0.18807,-0.10159 0.16613,-0.31546 0.14032,-0.52852 -0.0857,-0.70791 -0.57258,-1.18419 -0.98391,-1.70417 -0.13323,-0.16837 -0.35695,-0.27118 -0.52797,-0.14292 -1.08162,0.81111 -2.14212,1.32953 -3.34159,1.92927 z m -14.89387,11.79841 c -0.82919,0.48148 -1.54622,1.06736 -2.46277,1.49327 -0.19385,0.0901 -0.21974,0.32906 -0.14051,0.52863 0.24465,0.61619 0.35454,1.1735 0.92476,1.60173 0.1715,0.12891 0.3285,0.21931 0.52805,0.1426 1.38002,-0.53039 2.36461,-1.33212 3.34139,-1.92915 0.18203,-0.11209 0.24417,-0.34055 0.14052,-0.5286 -0.21436,-0.39055 -0.25193,-0.84392 -0.92476,-1.60173 -0.1426,-0.16052 -0.32995,-0.22295 -0.52806,-0.14263 -0.31311,0.12698 -0.60212,0.27554 -0.87862,0.43588 z m 16.31018,-9.3453 c -0.19316,0.0916 -0.20807,0.32479 -0.1403,0.52851 0.31986,0.96159 0.75297,1.32346 0.98402,1.70437 0.11153,0.18351 0.34011,0.24497 0.52785,0.14274 1.00544,-0.5474 2.19224,-0.99932 3.34158,-1.92926 0.16619,-0.13451 0.16614,-0.31545 0.14033,-0.52851 -0.0858,-0.70793 -0.5727,-1.18441 -0.98402,-1.70438 -0.13324,-0.16838 -0.3562,-0.27013 -0.52787,-0.14273 -0.53939,0.4004 -1.07263,0.65965 -1.61842,0.96847 -0.55435,0.31306 -1.12116,0.6758 -1.72317,0.96079 z m -17.42382,13.32713 c -0.13722,0.10033 -0.14266,0.31856 -0.0733,0.49319 0.24466,0.61621 0.4138,1.27614 0.98402,1.70438 0.17151,0.12892 0.32358,0.2051 0.52805,0.14261 1.09808,-0.3355 2.13596,-1.20623 3.34139,-1.92915 0.18328,-0.11003 0.24417,-0.34055 0.14052,-0.52861 -0.21436,-0.39055 -0.31119,-0.94656 -0.98403,-1.70438 -0.1426,-0.16051 -0.35631,-0.26992 -0.52804,-0.14261 -0.9945,0.73728 -2.01658,1.45261 -3.34139,1.92915 -0.0258,0.008 -0.0479,0.0207 -0.0675,0.0348 z m 22.2853,-12.7752 c -0.0222,0.01 -0.044,0.0226 -0.0637,0.041 -1.07508,0.90905 -2.20583,1.43663 -3.34157,1.92926 -0.19609,0.0851 -0.20798,0.32498 -0.14022,0.52869 0.31987,0.9616 0.75286,1.32327 0.98391,1.70419 0.1115,0.18353 0.35972,0.27474 0.52786,0.14272 1.02187,-0.80237 2.2114,-1.31448 3.34158,-1.92926 0.1881,-0.10161 0.16614,-0.31547 0.14033,-0.5285 -0.0858,-0.70794 -0.57259,-1.18422 -0.98392,-1.70419 -0.11651,-0.14737 -0.30838,-0.25195 -0.46389,-0.18328 z m -22.87272,16.34888 c -0.27037,0.15335 -0.33,0.54117 -0.1684,0.82105 l 0.27216,0.4714 c 0.17237,0.29856 0.53641,0.37422 0.8475,0.22932 1.80321,-0.84011 3.5598,-1.68745 5.23886,-2.62029 4.98141,-2.74775 10.97094,-6.23445 16.54472,-9.58114 1.73901,-1.05361 2.67424,-1.86932 4.44137,-2.9395 0.29348,-0.17781 0.39749,-0.55005 0.22512,-0.84861 l -0.27215,-0.47138 c -0.17236,-0.29855 -0.56232,-0.42024 -0.84747,-0.22934 -1.07805,0.72174 -2.12067,1.51168 -3.2664,2.13388 -4.52687,2.45844 -8.94903,5.64444 -13.94625,8.0108 -3.05852,1.44836 -5.71199,3.6532 -9.0123,4.99626 -0.0203,0.007 -0.039,0.0169 -0.057,0.0273 z"
       id="path4694"
       inkscape:connector-curvature="0" />
    <text
       transform="matrix(0.8640445,-0.49885632,0.5011463,0.86801085,0,0)"
       id="text4698"
       y="522.9259"
       x="125.23923"
       style="font-style:normal;font-weight:normal;font-size:14.76567173px;line-height:18.45709038px;font-family:sans-serif;letter-spacing:0px;word-spacing:0px;fill:none;fill-opacity:1;stroke:#0000ff;stroke-width:0.17638889;stroke-linecap:butt;stroke-linejoin:miter;stroke-miterlimit:4;stroke-dasharray:none;stroke-opacity:1"
       xml:space="preserve"><tspan
         style="font-style:normal;font-variant:normal;font-weight:normal;font-stretch:normal;line-height:18.45709038px;font-family:'Archivo Black';-inkscape-font-specification:'Archivo Black, ';fill:none;fill-opacity:1;stroke:#0000ff;stroke-width:0.17638889;stroke-miterlimit:4;stroke-dasharray:none;stroke-opacity:1"
         y="522.9259"
         x="125.23923"
         id="tspan4696"
         sodipodi:role="line">C</tspan></text>
    <path
       inkscape:connector-curvature="0"
       id="path4716"
       d="m 408.6486,268.74485 c -0.38533,0.23658 -0.89061,0.75192 -0.6864,0.95961 0.33007,0.10041 0.63384,0.34016 0.9406,0.53608 0.68406,0.43687 1.33866,0.99551 2.01872,1.71261 0.25909,0.0237 0.31422,-0.0339 0.54912,-0.25081 0.15684,-0.14476 0.29865,-0.25835 0.27429,-0.4321 -0.0517,-0.2765 -0.12741,-0.53303 -0.19749,-0.80147 -0.0778,-0.29776 -0.14786,-0.60923 -0.15739,-0.95681 -0.0196,-0.71685 0.0207,-1.34437 -0.0636,-1.86495 -0.0418,-0.2105 -0.54963,-0.015 -0.73791,0.0926 -0.40322,0.23005 -0.90662,0.53947 -1.70254,0.89313 -0.0658,0.0178 -0.14854,0.0575 -0.23747,0.11211 z m -1.25319,1.04713 c -0.0486,0.0211 -0.0885,0.0567 -0.11679,0.10178 -0.37263,0.60963 -1.03516,0.69308 -1.21878,1.30828 -0.0612,0.20529 0.0245,0.4377 0.23028,0.49738 1.25204,0.36309 1.45295,0.59979 2.91588,1.50761 0.7267,0.0675 1.13951,-0.5439 1.25944,-0.70368 0.12606,-0.17281 0.1602,-0.40023 0.004,-0.54744 -0.76782,-1.09046 -1.56424,-1.38324 -2.64456,-2.05593 -0.0826,-0.13825 -0.28599,-0.17499 -0.4294,-0.10787 z m 4.30269,-2.31224 c -0.12984,0.0906 -0.19923,0.28515 -0.12113,0.42601 0.0424,1.27192 -0.10231,2.10804 0.45819,3.31821 0.0494,0.20889 0.26336,0.29308 0.4761,0.27027 1.07693,-0.11532 0.6321,-0.21136 1.04723,-0.36908 0.19989,-0.0759 0.29505,-0.21101 0.28829,-0.42533 -0.0547,-1.72085 -0.15928,-2.01322 0.15231,-3.27907 0.0512,-0.20805 -0.10727,-0.39873 -0.31572,-0.44831 -0.62462,-0.14864 -1.12439,0.43929 -1.83864,0.45719 -0.0534,0.001 -0.10339,0.0199 -0.14659,0.0501 z m -6.12831,4.35342 c -0.0425,0.0316 -0.0779,0.071 -0.0976,0.12073 -0.26228,0.66515 -0.98575,0.93274 -1.06097,1.57088 -0.0251,0.21291 0.0985,0.43393 0.31207,0.45067 1.31719,0.10368 1.64816,0.14308 3.12918,0.98373 0.72696,-0.0587 1.11393,-0.80368 1.20453,-0.98188 0.0944,-0.19214 0.0891,-0.42226 -0.09,-0.54048 -0.94284,-0.94273 -1.77711,-1.09421 -2.95596,-1.57122 -0.10536,-0.12177 -0.31155,-0.12338 -0.44122,-0.0325 z m 8.83866,-4.79549 c -0.14282,0.0685 -0.24165,0.24989 -0.18664,0.40124 -0.15788,1.26195 -0.43234,2.06426 -0.0686,3.34704 0.016,0.21394 0.21423,0.33082 0.42801,0.34192 0.19978,0.008 1.039,0.0328 1.44447,-0.57346 0.21623,-1.70696 0.1589,-2.01198 0.66563,-3.21207 0.0833,-0.19727 -0.0432,-0.41016 -0.24148,-0.49196 -0.59387,-0.24528 -1.18008,0.25598 -1.8887,0.16094 -0.053,-0.007 -0.10528,0.003 -0.15283,0.0263 z m -10.28914,7.10135 c -0.0687,0.0424 -0.12123,0.10745 -0.13677,0.18626 -0.13809,0.70215 -0.80063,1.09622 -0.75973,1.73797 0.0136,0.21414 0.17447,0.40601 0.38755,0.38737 1.31191,-0.11488 1.79217,-0.23368 3.328,0.33625 0.70397,-0.18918 0.87475,-0.92631 0.93174,-1.11811 0.0583,-0.20617 0.0115,-0.4316 -0.18572,-0.51557 -1.09636,-0.75751 -1.94346,-0.75572 -3.18798,-1.01213 -0.10456,-0.084 -0.26288,-0.0733 -0.37706,-0.002 z m 13.0305,-7.10996 c -0.11952,0.062 -0.20761,0.19489 -0.18709,0.32749 -0.40019,1.20599 -0.8253,1.93871 -0.71745,3.26693 -0.0259,0.21282 0.14607,0.3662 0.35375,0.41881 0.19462,0.0465 1.01347,0.2349 1.52928,-0.28015 0.54394,-1.63071 0.43531,-2.1343 1.16592,-3.21158 0.1201,-0.17705 0.037,-0.41073 -0.1416,-0.52961 -0.53531,-0.35631 -1.09618,0.21437 -1.7733,-0.0171 -0.0762,-0.0259 -0.15821,-0.0127 -0.22951,0.0252 z m -13.93939,9.64725 c -0.12137,0.0589 -0.21396,0.18737 -0.19656,0.32046 0.0927,0.71052 -0.30342,1.17618 -0.21378,1.81312 0.0299,0.2125 0.20532,0.39273 0.41607,0.35662 0.38497,-0.066 2.20769,-0.33016 2.59418,-0.33788 0.40491,-0.008 0.3093,0.0782 0.95375,-0.006 0.2089,-0.0271 0.35444,-0.12095 0.39862,-0.25978 0.1504,-0.47186 0.22202,-0.87988 0.24586,-1.25196 -0.0105,-0.21424 -0.24079,-0.26988 -0.4542,-0.28654 -1.27866,-0.36844 -2.25345,-0.52129 -3.51295,-0.36686 -0.0755,-0.0279 -0.1583,-0.017 -0.23102,0.0186 z m 16.8462,-9.70156 c -0.0669,0.0456 -0.11795,0.11155 -0.13164,0.1907 -0.7635,1.01359 -1.20489,2.25952 -1.52514,3.55118 -0.18403,0.42063 1.16222,1.13719 1.74278,0.7331 0.52071,-1.13278 1.26165,-2.08209 2.18034,-3.18745 0.13668,-0.16455 0.0681,-0.40635 -0.10099,-0.53852 -0.50678,-0.39609 -1.22069,-0.32375 -1.78969,-0.75926 -0.10646,-0.0815 -0.26376,-0.0651 -0.3757,0.0102 z m -8.81921,5.65716 c -0.45808,0.30221 -0.87864,0.63275 -1.2572,0.98738 l 0.90935,1.57503 -1.46294,0.84463 -0.61875,-1.07171 c -0.36674,0.52334 -0.66253,1.07306 -0.88241,1.63611 l 0.1309,0.22672 -0.26603,0.15359 c -0.21982,0.67101 -0.33497,1.35547 -0.33855,2.03089 l 1.39934,-0.80791 0.85603,1.48269 -1.98064,1.14353 c 0.0202,0.0635 0.0401,0.12711 0.0627,0.19002 l 0.47935,1.33269 2.23348,-1.2895 1.03957,1.80059 1.93199,1.76428 -0.56172,-2.5554 -1.03957,-1.80059 1.46293,-0.84463 1.03957,1.80059 1.93219,1.76417 -0.56174,-2.55539 -1.03957,-1.8006 1.46313,-0.84474 1.03958,1.80059 1.93219,1.76416 -0.56212,-2.55517 -1.03958,-1.80059 1.46313,-0.84474 1.03957,1.80059 1.93219,1.76417 -0.56172,-2.5554 -1.03957,-1.8006 2.20845,-1.27505 -0.80318,-0.8359 c -0.0752,-0.13023 -0.17098,-0.25401 -0.28458,-0.37175 l -1.9155,1.10592 -0.85603,-1.4827 1.04568,-0.60372 c -1.0139,-0.3433 -2.26929,-0.52901 -3.53116,-0.53636 l 0.32028,0.55474 -1.46315,0.84475 -0.73492,-1.27293 c -0.57029,0.0832 -1.11365,0.20931 -1.60848,0.37808 l 0.97334,1.68587 -1.46313,0.84474 -1.0226,-1.77119 z m 11.63942,-4.66543 c -0.0447,0.0286 -0.0818,0.0669 -0.10421,0.11549 -0.74913,0.88415 -1.43726,1.99705 -2.39163,3.03104 -0.1391,0.16245 -0.0801,0.38499 0.0643,0.54388 0.73117,0.80438 0.93664,0.5467 1.20306,0.88552 0.13276,0.16875 0.45276,0.13227 0.5425,-0.0621 0.52161,-1.12951 1.09406,-2.1344 2.39174,-3.03085 0.17593,-0.12142 0.0956,-0.40085 -0.0642,-0.54419 -0.47892,-0.42959 -0.76555,-0.31754 -1.20326,-0.88538 -0.0984,-0.12753 -0.30381,-0.13811 -0.43829,-0.0534 z M 402.6677,279.6584 c -0.14056,0.0741 -0.23421,0.25775 -0.17295,0.40658 0.27291,0.66299 0.0104,0.77688 0.14293,1.40644 0.0442,0.21004 0.23083,0.37816 0.43887,0.32759 1.39652,-0.33884 2.56796,-0.69676 3.81395,-0.66604 0.21396,0.005 0.40425,-0.24039 0.32499,-0.43876 -0.16022,-0.40013 0.19511,-0.26082 -0.13591,-1.29622 -0.0655,-0.20445 -0.22883,-0.367 -0.43918,-0.32768 -1.32902,-0.0246 -2.645,0.0797 -3.82046,0.55578 -0.0532,-0.005 -0.10535,0.008 -0.15225,0.0323 z m 7.55368,-2.24288 1.46294,-0.84463 0.85604,1.48271 -1.46293,0.84463 z m 2.83338,-1.63586 1.46314,-0.84474 0.85605,1.48271 -1.46314,0.84475 z m 2.83321,-1.63575 1.46314,-0.84474 0.85604,1.48271 -1.46313,0.84474 z m 8.99921,-4.75027 c -0.0457,0.0271 -0.0836,0.065 -0.10719,0.11302 -1.01943,0.7543 -1.79508,1.82262 -2.46745,2.96912 -0.14326,0.15871 -0.0742,0.37053 0.0506,0.54525 0.35154,0.49205 0.45691,0.77451 0.60678,1.17864 0.0747,0.20125 0.24291,0.0951 0.39813,-0.052 0.90386,-0.85637 2.08233,-1.30073 3.3461,-1.9837 0.18808,-0.1016 0.21374,-0.35122 0.10558,-0.53676 -0.32494,-0.55558 -1.07235,-1.59049 -1.49566,-2.16915 -0.0951,-0.12996 -0.30038,-0.14581 -0.43696,-0.0646 z m -22.0815,12.89132 c -0.13319,0.0867 -0.20988,0.27769 -0.13544,0.42051 0.33126,0.63591 0.84874,1.62783 1.20335,2.16495 0.11824,0.17926 0.35372,0.26634 0.52803,0.14263 1.17149,-0.83149 2.1737,-1.49737 3.3414,-1.92916 0.20052,-0.0741 0.28789,-0.37251 0.14051,-0.52861 -0.2959,-0.31331 -0.42345,-0.3959 -0.70904,-0.92894 -0.10106,-0.18948 -0.26082,-0.34481 -0.46664,-0.28663 -1.32533,0.0957 -2.62637,0.31866 -3.75372,0.89929 -0.0535,2e-5 -0.104,0.0172 -0.14852,0.0459 z m 3.37615,1.81585 c -0.56564,0.31679 -1.09099,0.66999 -1.55122,1.07142 -0.20502,0.0607 -0.20521,0.32391 -0.14051,0.52863 0.20245,0.64056 0.48513,1.13237 0.93959,1.62742 0.14526,0.15814 0.35784,0.27196 0.52806,0.14264 1.1499,-0.87382 2.18493,-1.42188 3.34139,-1.92915 0.19577,-0.0859 0.28791,-0.37252 0.1405,-0.52863 -0.2958,-0.31336 -0.25151,-0.78576 -0.9396,-1.62742 -0.136,-0.16619 -0.34735,-0.25686 -0.52805,-0.14264 -0.61971,0.25888 -1.22477,0.54051 -1.79016,0.85773 z m 18.89627,-10.90977 c -0.55717,0.33147 -1.10408,0.71428 -1.63811,1.12159 -0.1892,0.0994 -0.21632,0.32768 -0.14029,0.52851 0.38488,1.01671 0.86053,1.29152 0.98401,1.70437 0.0615,0.20569 0.35206,0.26435 0.52784,0.14273 1.04705,-0.72439 1.98194,-1.44363 3.34161,-1.92928 0.20131,-0.0719 0.2047,-0.32366 0.14031,-0.52849 -0.2015,-0.64109 -0.5305,-1.20877 -0.98402,-1.70437 -0.14498,-0.15836 -0.37284,-0.29002 -0.52785,-0.14275 -0.57775,0.19792 -1.14607,0.47666 -1.7035,0.80769 z m 1.43641,2.53011 c -0.55716,0.33146 -1.10387,0.71458 -1.63798,1.12176 -0.18921,0.0995 -0.17507,0.31671 -0.1403,0.52849 0.1718,1.04707 0.72524,1.18702 0.918,1.59004 0.0926,0.19371 0.33486,0.23466 0.52785,0.14273 1.16745,-0.55611 2.27352,-1.0087 3.34158,-1.92926 0.16187,-0.1397 0.20469,-0.32366 0.14033,-0.52851 -0.20151,-0.64109 -0.46449,-1.09442 -0.91801,-1.59003 -0.14497,-0.15836 -0.37285,-0.29001 -0.52786,-0.14273 -0.57774,0.1979 -1.1462,0.47647 -1.70361,0.80751 z m -18.80114,10.91198 c -0.56559,0.31675 -1.1102,0.66235 -1.60981,1.04831 -0.20505,0.0606 -0.2052,0.32389 -0.14051,0.5286 0.20245,0.64056 0.52956,1.20932 0.98402,1.70438 0.14515,0.15817 0.33461,0.23362 0.52804,0.1426 1.25801,-0.59176 2.26467,-1.21599 3.34139,-1.92915 0.17825,-0.118 0.26193,-0.35151 0.14052,-0.5286 -0.25265,-0.36846 -0.16316,-1.03205 -0.98402,-1.70438 -0.166,-0.13601 -0.34737,-0.25685 -0.52805,-0.14261 -0.58073,0.27423 -1.1663,0.56355 -1.73158,0.88083 z m 21.97054,-9.33517 c -0.0232,0.0106 -0.0444,0.0257 -0.0633,0.0449 -1.02037,0.96954 -2.18175,1.32041 -3.3416,1.92927 -0.18921,0.0995 -0.25842,0.34942 -0.1402,0.52868 0.54735,0.83026 0.85445,1.26461 0.9839,1.70417 0.0607,0.20589 0.33989,0.24455 0.52786,0.14276 1.00671,-0.54519 2.16485,-1.04679 3.34159,-1.92927 0.17098,-0.12831 0.21346,-0.32664 0.14031,-0.52853 -0.22701,-0.62635 -0.72226,-1.09778 -0.98391,-1.70416 -0.0745,-0.17246 -0.30411,-0.26518 -0.4642,-0.18699 z m -22.18925,12.94789 c -0.14781,0.0994 -0.18231,0.34478 -0.0702,0.49552 0.39431,0.52977 0.49569,1.09172 0.92463,1.60151 0.13825,0.16429 0.33833,0.2411 0.52805,0.14262 1.29748,-0.67338 2.25405,-1.52363 3.34139,-1.92916 0.20037,-0.0746 0.28854,-0.3731 0.14051,-0.52861 -0.31593,-0.33188 -0.47928,-0.71236 -0.92462,-1.6015 -0.0962,-0.19196 -0.34749,-0.25706 -0.52817,-0.14283 -1.10723,0.70003 -1.99153,1.53028 -3.34139,1.92915 -0.0261,0.007 -0.0493,0.0187 -0.0707,0.0324 z m 3.9285,0.8905 c -0.82918,0.48148 -1.54623,1.06735 -2.46276,1.49328 -0.19385,0.0901 -0.21963,0.32925 -0.14041,0.5288 0.24466,0.61622 0.4137,1.27596 0.98391,1.70417 0.17151,0.12894 0.31153,0.19497 0.49353,0.0828 1.24387,-0.76621 2.55169,-1.67224 3.43638,-1.9612 0.20326,-0.0663 0.24406,-0.34074 0.1404,-0.5288 -0.21436,-0.39055 -0.37145,-0.85437 -1.04428,-1.61218 -0.1426,-0.16052 -0.33005,-0.22314 -0.52816,-0.14281 -0.31311,0.12699 -0.60213,0.27554 -0.87868,0.43577 z m 16.31019,-9.34529 c -0.19116,0.0957 -0.20797,0.32497 -0.1402,0.52868 0.31986,0.9616 0.75287,1.32328 0.98391,1.70418 0.11154,0.18352 0.35073,0.26245 0.52785,0.14275 0.95058,-0.64243 2.05609,-1.23515 3.34158,-1.92927 0.18808,-0.10159 0.16613,-0.31546 0.14032,-0.52852 -0.0858,-0.70791 -0.57257,-1.18419 -0.9839,-1.70417 -0.13323,-0.16837 -0.35696,-0.27118 -0.52798,-0.14292 -1.08161,0.81111 -2.14212,1.32953 -3.34158,1.92927 z m -14.89388,11.79841 c -0.82919,0.48148 -1.54622,1.06736 -2.46276,1.49327 -0.19386,0.0901 -0.21975,0.32906 -0.14051,0.52863 0.24464,0.61619 0.35454,1.1735 0.92476,1.60173 0.1715,0.12891 0.32849,0.21931 0.52804,0.1426 1.38002,-0.53039 2.36462,-1.33212 3.34139,-1.92915 0.18204,-0.11209 0.24417,-0.34055 0.14052,-0.5286 -0.21436,-0.39055 -0.25193,-0.84392 -0.92476,-1.60173 -0.1426,-0.16052 -0.32994,-0.22295 -0.52805,-0.14263 -0.31312,0.12698 -0.60213,0.27554 -0.87863,0.43588 z m 16.31019,-9.3453 c -0.19316,0.0916 -0.20808,0.32479 -0.14031,0.52851 0.31986,0.96159 0.75298,1.32346 0.98403,1.70437 0.11153,0.18351 0.34011,0.24497 0.52784,0.14274 1.00544,-0.5474 2.19224,-0.99932 3.34158,-1.92926 0.1662,-0.13451 0.16614,-0.31545 0.14033,-0.52851 -0.0858,-0.70793 -0.5727,-1.18441 -0.98402,-1.70438 -0.13324,-0.16838 -0.35619,-0.27013 -0.52787,-0.14273 -0.53938,0.4004 -1.07262,0.65965 -1.61842,0.96847 -0.55435,0.31306 -1.12116,0.6758 -1.72316,0.96079 z m -17.42383,13.32713 c -0.13722,0.10033 -0.14265,0.31856 -0.0733,0.49319 0.24466,0.61621 0.4138,1.27614 0.98403,1.70438 0.1715,0.12892 0.32357,0.2051 0.52804,0.14261 1.09808,-0.3355 2.13596,-1.20623 3.3414,-1.92915 0.18328,-0.11003 0.24417,-0.34055 0.14051,-0.52861 -0.21436,-0.39055 -0.31119,-0.94656 -0.98402,-1.70438 -0.1426,-0.16051 -0.35631,-0.26992 -0.52805,-0.14261 -0.9945,0.73728 -2.01657,1.45261 -3.34139,1.92915 -0.0258,0.008 -0.0479,0.0207 -0.0675,0.0348 z m 22.28531,-12.7752 c -0.0222,0.01 -0.044,0.0226 -0.0637,0.041 -1.07508,0.90905 -2.20583,1.43663 -3.34158,1.92926 -0.19609,0.0851 -0.20797,0.32498 -0.14022,0.52869 0.31987,0.9616 0.75287,1.32327 0.98392,1.70419 0.1115,0.18353 0.35971,0.27474 0.52786,0.14272 1.02186,-0.80237 2.21139,-1.31448 3.34157,-1.92926 0.1881,-0.10161 0.16614,-0.31547 0.14033,-0.5285 -0.0858,-0.70794 -0.57259,-1.18422 -0.98391,-1.70419 -0.11652,-0.14737 -0.30839,-0.25195 -0.46389,-0.18328 z m -22.87272,16.34888 c -0.27037,0.15335 -0.33,0.54117 -0.16841,0.82105 l 0.27216,0.4714 c 0.17237,0.29856 0.53641,0.37422 0.84751,0.22932 1.8032,-0.84011 3.55979,-1.68745 5.23886,-2.62029 4.9814,-2.74775 10.97093,-6.23445 16.54472,-9.58114 1.739,-1.05361 2.67423,-1.86932 4.44136,-2.9395 0.29348,-0.17781 0.39749,-0.55005 0.22512,-0.84861 l -0.27215,-0.47138 c -0.17236,-0.29855 -0.56232,-0.42024 -0.84747,-0.22934 -1.07805,0.72174 -2.12067,1.51168 -3.2664,2.13388 -4.52687,2.45844 -8.94902,5.64444 -13.94625,8.0108 -3.05852,1.44836 -5.71199,3.6532 -9.0123,4.99626 -0.0203,0.007 -0.0391,0.0169 -0.057,0.0273 z"
       style="fill:none;fill-opacity:1;stroke:#0000ff;stroke-width:0.17638889;stroke-linecap:round;stroke-linejoin:round;stroke-miterlimit:4;stroke-dasharray:none;stroke-dashoffset:0;stroke-opacity:1" />
    <text
       xml:space="preserve"
       style="font-style:normal;font-weight:normal;font-size:14.76567173px;line-height:18.45709038px;font-family:sans-serif;letter-spacing:0px;word-spacing:0px;fill:none;fill-opacity:1;stroke:#0000ff;stroke-width:0.17638889;stroke-linecap:butt;stroke-linejoin:miter;stroke-miterlimit:4;stroke-dasharray:none;stroke-opacity:1"
       x="215.46669"
       y="463.62503"
       id="text4720"
       transform="matrix(0.8640445,-0.49885632,0.5011463,0.86801085,0,0)"><tspan
         sodipodi:role="line"
         id="tspan4718"
         x="215.46669"
         y="463.62503"
         style="font-style:normal;font-variant:normal;font-weight:normal;font-stretch:normal;line-height:18.45709038px;font-family:'Archivo Black';-inkscape-font-specification:'Archivo Black, ';fill:none;fill-opacity:1;stroke:#0000ff;stroke-width:0.17638889;stroke-miterlimit:4;stroke-dasharray:none;stroke-opacity:1">B</tspan></text>
    <path
       style="fill:none;fill-opacity:1;stroke:#0000ff;stroke-width:0.17638889;stroke-linecap:round;stroke-linejoin:round;stroke-miterlimit:4;stroke-dasharray:none;stroke-dashoffset:0;stroke-opacity:1"
       d="m 326.19594,262.59766 c -0.38533,0.23658 -0.89061,0.75192 -0.6864,0.95961 0.33007,0.10041 0.63384,0.34016 0.9406,0.53608 0.68406,0.43687 1.33866,0.99551 2.01872,1.71261 0.25909,0.0237 0.31422,-0.0339 0.54912,-0.25081 0.15684,-0.14476 0.29865,-0.25835 0.27429,-0.4321 -0.0517,-0.2765 -0.12741,-0.53303 -0.19749,-0.80147 -0.0778,-0.29776 -0.14786,-0.60923 -0.15739,-0.95681 -0.0196,-0.71685 0.0207,-1.34437 -0.0636,-1.86495 -0.0418,-0.2105 -0.54963,-0.015 -0.73791,0.0926 -0.40322,0.23005 -0.90662,0.53947 -1.70254,0.89313 -0.0658,0.0178 -0.14854,0.0575 -0.23747,0.11211 z m -1.25319,1.04713 c -0.0486,0.0211 -0.0885,0.0567 -0.11679,0.10178 -0.37263,0.60963 -1.03516,0.69308 -1.21878,1.30828 -0.0612,0.20529 0.0245,0.4377 0.23028,0.49738 1.25204,0.36309 1.45295,0.59979 2.91588,1.50761 0.7267,0.0675 1.13951,-0.5439 1.25944,-0.70368 0.12606,-0.17281 0.1602,-0.40023 0.004,-0.54744 -0.76782,-1.09046 -1.56424,-1.38324 -2.64456,-2.05593 -0.0826,-0.13825 -0.28599,-0.17499 -0.4294,-0.10787 z m 4.30269,-2.31224 c -0.12984,0.0906 -0.19923,0.28515 -0.12113,0.42601 0.0424,1.27192 -0.10231,2.10804 0.45819,3.31821 0.0494,0.20889 0.26336,0.29308 0.4761,0.27027 1.07693,-0.11532 0.6321,-0.21136 1.04723,-0.36908 0.19989,-0.0759 0.29505,-0.21101 0.28829,-0.42533 -0.0547,-1.72085 -0.15928,-2.01322 0.15231,-3.27907 0.0512,-0.20805 -0.10727,-0.39873 -0.31572,-0.44831 -0.62462,-0.14864 -1.12439,0.43929 -1.83864,0.45719 -0.0534,10e-4 -0.10339,0.0199 -0.14659,0.0501 z m -6.12831,4.35342 c -0.0425,0.0316 -0.0779,0.071 -0.0976,0.12073 -0.26228,0.66515 -0.98575,0.93274 -1.06097,1.57088 -0.0251,0.21291 0.0985,0.43393 0.31207,0.45067 1.31719,0.10368 1.64816,0.14308 3.12918,0.98373 0.72696,-0.0587 1.11393,-0.80368 1.20453,-0.98188 0.0944,-0.19214 0.0891,-0.42226 -0.09,-0.54048 -0.94284,-0.94273 -1.77711,-1.09421 -2.95596,-1.57122 -0.10536,-0.12177 -0.31155,-0.12338 -0.44122,-0.0325 z m 8.83866,-4.79549 c -0.14282,0.0685 -0.24165,0.24989 -0.18664,0.40124 -0.15788,1.26195 -0.43234,2.06426 -0.0686,3.34704 0.016,0.21394 0.21423,0.33082 0.42801,0.34192 0.19978,0.008 1.039,0.0328 1.44447,-0.57346 0.21623,-1.70696 0.1589,-2.01198 0.66563,-3.21207 0.0833,-0.19727 -0.0432,-0.41016 -0.24148,-0.49196 -0.59387,-0.24528 -1.18008,0.25598 -1.8887,0.16094 -0.053,-0.007 -0.10528,0.003 -0.15283,0.0263 z m -10.28914,7.10135 c -0.0687,0.0424 -0.12123,0.10745 -0.13677,0.18626 -0.13809,0.70215 -0.80063,1.09622 -0.75973,1.73797 0.0136,0.21414 0.17447,0.40601 0.38755,0.38737 1.31191,-0.11488 1.79217,-0.23368 3.328,0.33625 0.70397,-0.18918 0.87475,-0.92631 0.93174,-1.11811 0.0583,-0.20617 0.0115,-0.4316 -0.18572,-0.51557 -1.09636,-0.75751 -1.94346,-0.75572 -3.18798,-1.01213 -0.10456,-0.084 -0.26288,-0.0733 -0.37706,-0.002 z m 13.0305,-7.10996 c -0.11952,0.062 -0.20761,0.19489 -0.18709,0.32749 -0.40019,1.20599 -0.8253,1.93871 -0.71745,3.26693 -0.0259,0.21282 0.14607,0.3662 0.35375,0.41881 0.19462,0.0465 1.01347,0.2349 1.52928,-0.28015 0.54394,-1.63071 0.43531,-2.1343 1.16592,-3.21158 0.1201,-0.17705 0.037,-0.41073 -0.1416,-0.52961 -0.53531,-0.35631 -1.09618,0.21437 -1.7733,-0.0171 -0.0762,-0.0259 -0.15821,-0.0127 -0.22951,0.0252 z m -13.93939,9.64725 c -0.12137,0.0589 -0.21396,0.18737 -0.19656,0.32046 0.0927,0.71052 -0.30342,1.17618 -0.21378,1.81312 0.0299,0.2125 0.20532,0.39273 0.41607,0.35662 0.38497,-0.066 2.20769,-0.33016 2.59418,-0.33788 0.40491,-0.008 0.3093,0.0782 0.95375,-0.006 0.2089,-0.0271 0.35444,-0.12095 0.39862,-0.25978 0.1504,-0.47186 0.22202,-0.87988 0.24586,-1.25196 -0.0105,-0.21424 -0.24079,-0.26988 -0.4542,-0.28654 -1.27866,-0.36844 -2.25345,-0.52129 -3.51295,-0.36686 -0.0755,-0.0279 -0.1583,-0.017 -0.23102,0.0186 z m 16.8462,-9.70156 c -0.0669,0.0456 -0.11795,0.11155 -0.13164,0.1907 -0.7635,1.01359 -1.20489,2.25952 -1.52514,3.55118 -0.18403,0.42063 1.16222,1.13719 1.74278,0.7331 0.52071,-1.13278 1.26165,-2.08209 2.18034,-3.18745 0.13668,-0.16455 0.0681,-0.40635 -0.10099,-0.53852 -0.50678,-0.39609 -1.22069,-0.32375 -1.78969,-0.75926 -0.10646,-0.0815 -0.26376,-0.0651 -0.3757,0.0102 z m -8.81921,5.65716 c -0.45808,0.30221 -0.87864,0.63275 -1.2572,0.98738 l 0.90935,1.57503 -1.46294,0.84463 -0.61875,-1.07171 c -0.36674,0.52334 -0.66253,1.07306 -0.88241,1.63611 l 0.1309,0.22672 -0.26603,0.15359 c -0.21982,0.67101 -0.33497,1.35547 -0.33855,2.03089 l 1.39934,-0.80791 0.85603,1.48269 -1.98064,1.14353 c 0.0202,0.0635 0.0401,0.12711 0.0627,0.19002 l 0.47935,1.33269 2.23348,-1.2895 1.03957,1.80059 1.93199,1.76428 -0.56172,-2.5554 -1.03957,-1.80059 1.46293,-0.84463 1.03957,1.80059 1.93219,1.76417 -0.56174,-2.55539 -1.03957,-1.8006 1.46313,-0.84474 1.03958,1.80059 1.93219,1.76416 -0.56212,-2.55517 -1.03958,-1.80059 1.46313,-0.84474 1.03957,1.80059 1.93219,1.76417 -0.56172,-2.5554 -1.03957,-1.8006 2.20845,-1.27505 -0.80318,-0.8359 c -0.0752,-0.13023 -0.17098,-0.25401 -0.28458,-0.37175 l -1.9155,1.10592 -0.85603,-1.4827 1.04568,-0.60372 c -1.0139,-0.3433 -2.26929,-0.52901 -3.53116,-0.53636 l 0.32028,0.55474 -1.46315,0.84475 -0.73492,-1.27293 c -0.57029,0.0832 -1.11365,0.20931 -1.60848,0.37808 l 0.97334,1.68587 -1.46313,0.84474 -1.0226,-1.77119 z m 11.63942,-4.66543 c -0.0447,0.0286 -0.0818,0.0669 -0.10421,0.11549 -0.74913,0.88415 -1.43726,1.99705 -2.39163,3.03104 -0.1391,0.16245 -0.0801,0.38499 0.0643,0.54388 0.73117,0.80438 0.93664,0.5467 1.20306,0.88552 0.13276,0.16875 0.45276,0.13227 0.5425,-0.0621 0.52161,-1.12951 1.09406,-2.1344 2.39174,-3.03085 0.17593,-0.12142 0.0956,-0.40085 -0.0642,-0.54419 -0.47892,-0.42959 -0.76555,-0.31754 -1.20326,-0.88538 -0.0984,-0.12753 -0.30381,-0.13811 -0.43829,-0.0534 z m -20.20913,11.69192 c -0.14056,0.0741 -0.23421,0.25775 -0.17295,0.40658 0.27291,0.66299 0.0104,0.77688 0.14293,1.40644 0.0442,0.21004 0.23083,0.37816 0.43887,0.32759 1.39652,-0.33884 2.56796,-0.69676 3.81395,-0.66604 0.21396,0.005 0.40425,-0.24039 0.32499,-0.43876 -0.16022,-0.40013 0.19511,-0.26082 -0.13591,-1.29622 -0.0655,-0.20445 -0.22883,-0.367 -0.43918,-0.32768 -1.32902,-0.0246 -2.645,0.0797 -3.82046,0.55578 -0.0532,-0.005 -0.10535,0.008 -0.15225,0.0323 z m 7.55368,-2.24288 1.46294,-0.84463 0.85604,1.48271 -1.46293,0.84463 z m 2.83338,-1.63586 1.46314,-0.84474 0.85605,1.48271 -1.46314,0.84475 z m 2.83321,-1.63575 1.46314,-0.84474 0.85604,1.48271 -1.46313,0.84474 z m 8.99921,-4.75027 c -0.0457,0.0271 -0.0836,0.065 -0.10719,0.11302 -1.01943,0.7543 -1.79508,1.82262 -2.46745,2.96912 -0.14326,0.15871 -0.0742,0.37053 0.0506,0.54525 0.35154,0.49205 0.45691,0.77451 0.60678,1.17864 0.0747,0.20125 0.24291,0.0951 0.39813,-0.052 0.90386,-0.85637 2.08233,-1.30073 3.3461,-1.9837 0.18808,-0.1016 0.21374,-0.35122 0.10558,-0.53676 -0.32494,-0.55558 -1.07235,-1.59049 -1.49566,-2.16915 -0.0951,-0.12996 -0.30038,-0.14581 -0.43696,-0.0646 z m -22.0815,12.89132 c -0.13319,0.0867 -0.20988,0.27769 -0.13544,0.42051 0.33126,0.63591 0.84874,1.62783 1.20335,2.16495 0.11824,0.17926 0.35372,0.26634 0.52803,0.14263 1.17149,-0.83149 2.1737,-1.49737 3.3414,-1.92916 0.20052,-0.0741 0.28789,-0.37251 0.14051,-0.52861 -0.2959,-0.31331 -0.42345,-0.3959 -0.70904,-0.92894 -0.10106,-0.18948 -0.26082,-0.34481 -0.46664,-0.28663 -1.32533,0.0957 -2.62637,0.31866 -3.75372,0.89929 -0.0535,2e-5 -0.104,0.0172 -0.14852,0.0459 z m 3.37615,1.81585 c -0.56564,0.31679 -1.09099,0.66999 -1.55122,1.07142 -0.20502,0.0607 -0.20521,0.32391 -0.14051,0.52863 0.20245,0.64056 0.48513,1.13237 0.93959,1.62742 0.14526,0.15814 0.35784,0.27196 0.52806,0.14264 1.1499,-0.87382 2.18493,-1.42188 3.34139,-1.92915 0.19577,-0.0859 0.28791,-0.37252 0.1405,-0.52863 -0.2958,-0.31336 -0.25151,-0.78576 -0.9396,-1.62742 -0.136,-0.16619 -0.34735,-0.25686 -0.52805,-0.14264 -0.61971,0.25888 -1.22477,0.54051 -1.79016,0.85773 z m 18.89627,-10.90977 c -0.55717,0.33147 -1.10408,0.71428 -1.63811,1.12159 -0.1892,0.0994 -0.21632,0.32768 -0.14029,0.52851 0.38488,1.01671 0.86053,1.29152 0.98401,1.70437 0.0615,0.20569 0.35206,0.26435 0.52784,0.14273 1.04705,-0.72439 1.98194,-1.44363 3.34161,-1.92928 0.20131,-0.0719 0.2047,-0.32366 0.14031,-0.52849 -0.2015,-0.64109 -0.5305,-1.20877 -0.98402,-1.70437 -0.14498,-0.15836 -0.37284,-0.29002 -0.52785,-0.14275 -0.57775,0.19792 -1.14607,0.47666 -1.7035,0.80769 z m 1.43641,2.53011 c -0.55716,0.33146 -1.10387,0.71458 -1.63798,1.12176 -0.18921,0.0995 -0.17507,0.31671 -0.1403,0.52849 0.1718,1.04707 0.72524,1.18702 0.918,1.59004 0.0926,0.19371 0.33486,0.23466 0.52785,0.14273 1.16745,-0.55611 2.27352,-1.0087 3.34158,-1.92926 0.16187,-0.1397 0.20469,-0.32366 0.14033,-0.52851 -0.20151,-0.64109 -0.46449,-1.09442 -0.91801,-1.59003 -0.14497,-0.15836 -0.37285,-0.29001 -0.52786,-0.14273 -0.57774,0.1979 -1.1462,0.47647 -1.70361,0.80751 z m -18.80114,10.91198 c -0.56559,0.31675 -1.1102,0.66235 -1.60981,1.04831 -0.20505,0.0606 -0.2052,0.32389 -0.14051,0.5286 0.20245,0.64056 0.52956,1.20932 0.98402,1.70438 0.14515,0.15817 0.33461,0.23362 0.52804,0.1426 1.25801,-0.59176 2.26467,-1.21599 3.34139,-1.92915 0.17825,-0.118 0.26193,-0.35151 0.14052,-0.5286 -0.25265,-0.36846 -0.16316,-1.03205 -0.98402,-1.70438 -0.166,-0.13601 -0.34737,-0.25685 -0.52805,-0.14261 -0.58073,0.27423 -1.1663,0.56355 -1.73158,0.88083 z m 21.97054,-9.33517 c -0.0232,0.0106 -0.0444,0.0257 -0.0633,0.0449 -1.02037,0.96954 -2.18175,1.32041 -3.3416,1.92927 -0.18921,0.0995 -0.25842,0.34942 -0.1402,0.52868 0.54735,0.83026 0.85445,1.26461 0.9839,1.70417 0.0607,0.20589 0.33989,0.24455 0.52786,0.14276 1.00671,-0.54519 2.16485,-1.04679 3.34159,-1.92927 0.17098,-0.12831 0.21346,-0.32664 0.14031,-0.52853 -0.22701,-0.62635 -0.72226,-1.09778 -0.98391,-1.70416 -0.0745,-0.17246 -0.30411,-0.26518 -0.4642,-0.18699 z M 325.042,284.09866 c -0.14781,0.0994 -0.18231,0.34478 -0.0702,0.49552 0.39431,0.52977 0.49569,1.09172 0.92463,1.60151 0.13825,0.16429 0.33833,0.2411 0.52805,0.14262 1.29748,-0.67338 2.25405,-1.52363 3.34139,-1.92916 0.20037,-0.0746 0.28854,-0.3731 0.14051,-0.52861 -0.31593,-0.33188 -0.47928,-0.71236 -0.92462,-1.6015 -0.0962,-0.19196 -0.34749,-0.25706 -0.52817,-0.14283 -1.10723,0.70003 -1.99153,1.53028 -3.34139,1.92915 -0.0261,0.007 -0.0493,0.0187 -0.0707,0.0324 z m 3.9285,0.8905 c -0.82918,0.48148 -1.54623,1.06735 -2.46276,1.49328 -0.19385,0.0901 -0.21963,0.32925 -0.14041,0.5288 0.24466,0.61622 0.4137,1.27596 0.98391,1.70417 0.17151,0.12894 0.31153,0.19497 0.49353,0.0828 1.24387,-0.76621 2.55169,-1.67224 3.43638,-1.9612 0.20326,-0.0663 0.24406,-0.34074 0.1404,-0.5288 -0.21436,-0.39055 -0.37145,-0.85437 -1.04428,-1.61218 -0.1426,-0.16052 -0.33005,-0.22314 -0.52816,-0.14281 -0.31311,0.12699 -0.60213,0.27554 -0.87868,0.43577 z m 16.31019,-9.34529 c -0.19116,0.0957 -0.20797,0.32497 -0.1402,0.52868 0.31986,0.9616 0.75287,1.32328 0.98391,1.70418 0.11154,0.18352 0.35073,0.26245 0.52785,0.14275 0.95058,-0.64243 2.05609,-1.23515 3.34158,-1.92927 0.18808,-0.10159 0.16613,-0.31546 0.14032,-0.52852 -0.0858,-0.70791 -0.57257,-1.18419 -0.9839,-1.70417 -0.13323,-0.16837 -0.35696,-0.27118 -0.52798,-0.14292 -1.08161,0.81111 -2.14212,1.32953 -3.34158,1.92927 z m -14.89388,11.79841 c -0.82919,0.48148 -1.54622,1.06736 -2.46276,1.49327 -0.19386,0.0901 -0.21975,0.32906 -0.14051,0.52863 0.24464,0.61619 0.35454,1.1735 0.92476,1.60173 0.1715,0.12891 0.32849,0.21931 0.52804,0.1426 1.38002,-0.53039 2.36462,-1.33212 3.34139,-1.92915 0.18204,-0.11209 0.24417,-0.34055 0.14052,-0.5286 -0.21436,-0.39055 -0.25193,-0.84392 -0.92476,-1.60173 -0.1426,-0.16052 -0.32994,-0.22295 -0.52805,-0.14263 -0.31312,0.12698 -0.60213,0.27554 -0.87863,0.43588 z m 16.31019,-9.3453 c -0.19316,0.0916 -0.20808,0.32479 -0.14031,0.52851 0.31986,0.96159 0.75298,1.32346 0.98403,1.70437 0.11153,0.18351 0.34011,0.24497 0.52784,0.14274 1.00544,-0.5474 2.19224,-0.99932 3.34158,-1.92926 0.1662,-0.13451 0.16614,-0.31545 0.14033,-0.52851 -0.0858,-0.70793 -0.5727,-1.18441 -0.98402,-1.70438 -0.13324,-0.16838 -0.35619,-0.27013 -0.52787,-0.14273 -0.53938,0.4004 -1.07262,0.65965 -1.61842,0.96847 -0.55435,0.31306 -1.12116,0.6758 -1.72316,0.96079 z m -17.42383,13.32713 c -0.13722,0.10033 -0.14265,0.31856 -0.0733,0.49319 0.24466,0.61621 0.4138,1.27614 0.98403,1.70438 0.1715,0.12892 0.32357,0.2051 0.52804,0.14261 1.09808,-0.3355 2.13596,-1.20623 3.3414,-1.92915 0.18328,-0.11003 0.24417,-0.34055 0.14051,-0.52861 -0.21436,-0.39055 -0.31119,-0.94656 -0.98402,-1.70438 -0.1426,-0.16051 -0.35631,-0.26992 -0.52805,-0.14261 -0.9945,0.73728 -2.01657,1.45261 -3.34139,1.92915 -0.0258,0.008 -0.0479,0.0207 -0.0675,0.0348 z m 22.28531,-12.7752 c -0.0222,0.01 -0.044,0.0226 -0.0637,0.041 -1.07508,0.90905 -2.20583,1.43663 -3.34158,1.92926 -0.19609,0.0851 -0.20797,0.32498 -0.14022,0.52869 0.31987,0.9616 0.75287,1.32327 0.98392,1.70419 0.1115,0.18353 0.35971,0.27474 0.52786,0.14272 1.02186,-0.80237 2.21139,-1.31448 3.34157,-1.92926 0.1881,-0.10161 0.16614,-0.31547 0.14033,-0.5285 -0.0858,-0.70794 -0.57259,-1.18422 -0.98391,-1.70419 -0.11652,-0.14737 -0.30839,-0.25195 -0.46389,-0.18328 z m -22.87272,16.34888 c -0.27037,0.15335 -0.33,0.54117 -0.16841,0.82105 l 0.27216,0.4714 c 0.17237,0.29856 0.53641,0.37422 0.84751,0.22932 1.8032,-0.84011 3.55979,-1.68745 5.23886,-2.62029 4.9814,-2.74775 10.97093,-6.23445 16.54472,-9.58114 1.739,-1.05361 2.67423,-1.86932 4.44136,-2.9395 0.29348,-0.17781 0.39749,-0.55005 0.22512,-0.84861 l -0.27215,-0.47138 c -0.17236,-0.29855 -0.56232,-0.42024 -0.84747,-0.22934 -1.07805,0.72174 -2.12067,1.51168 -3.2664,2.13388 -4.52687,2.45844 -8.94902,5.64444 -13.94625,8.0108 -3.05852,1.44836 -5.71199,3.6532 -9.0123,4.99626 -0.0203,0.007 -0.0391,0.0169 -0.057,0.0273 z"
       id="path4722"
       inkscape:connector-curvature="0" />
    <text
       transform="matrix(0.8640445,-0.49885632,0.5011463,0.86801085,0,0)"
       id="text4726"
       y="417.18158"
       x="146.97755"
       style="font-style:normal;font-weight:normal;font-size:14.76567173px;line-height:18.45709038px;font-family:sans-serif;letter-spacing:0px;word-spacing:0px;fill:none;fill-opacity:1;stroke:#0000ff;stroke-width:0.17638889;stroke-linecap:butt;stroke-linejoin:miter;stroke-miterlimit:4;stroke-dasharray:none;stroke-opacity:1"
       xml:space="preserve"><tspan
         style="font-style:normal;font-variant:normal;font-weight:normal;font-stretch:normal;line-height:18.45709038px;font-family:'Archivo Black';-inkscape-font-specification:'Archivo Black, ';fill:none;fill-opacity:1;stroke:#0000ff;stroke-width:0.17638889;stroke-miterlimit:4;stroke-dasharray:none;stroke-opacity:1"
         y="417.18158"
         x="146.97755"
         id="tspan4724"
         sodipodi:role="line">A</tspan></text>
    <path
       style="fill:none;stroke:#0000ff;stroke-width:0.17638889;stroke-miterlimit:4;stroke-dasharray:none;stroke-opacity:1"
       d="m 302.32637,323.48349 v 22.79786 l 7.3068,-2.13065 v -18.53656 z m 8.22985,1.34462 0.003,0.11631 v 1.48534 h 0.82333 v -1.6005 l -0.82658,-9.1e-4 z m -13.27284,7.7e-4 v 5.86554 h 0.92629 v -4.96506 h 3.19041 v -0.90033 z m 13.27609,2.50083 v 0.80039 h 0.82304 v -0.80039 z m 0,1.70074 v 11.8037 h 0.82304 v -11.80371 z m -14.53397,1.45776 -2.99835,2.91438 2.99835,2.91468 v -1.76421 h 4.94004 v -2.30066 h -4.94004 z m 7.69001,3.19352 c 0.34101,0 0.61743,0.53748 0.61743,1.20045 0,0.66297 -0.27642,1.20045 -0.61743,1.20045 -0.341,0 -0.61743,-0.53748 -0.61743,-1.20045 0,-0.66297 0.27643,-1.20045 0.61743,-1.20045 z m -5.50584,1.52067 v 1.76449 h -4.93974 v 2.30066 h 4.93974 v 1.76419 l 2.99865,-2.91467 z m -0.92629,6.2202 v 3.06286 h 0.92629 v -3.06286 z m 13.27609,0.31189 v 0.70017 h 0.82304 v -0.70017 z m 0,1.6005 v 1.15047 h 0.82304 v -1.15047 z m -17.75268,2.30067 v 0.90033 h 8.59329 v -0.90033 z m 14.95609,0 -3.08744,0.90033 h 11.18396 v -0.90033 z"
       id="path4829"
       inkscape:connector-curvature="0" />
    <path
       sodipodi:nodetypes="cc"
       inkscape:connector-curvature="0"
       id="path4577"
       d="m 242.95399,417.46636 v 2.29148"
       style="fill:none;fill-rule:evenodd;stroke:#ff0000;stroke-width:0.17638889;stroke-linecap:butt;stroke-linejoin:miter;stroke-miterlimit:4;stroke-dasharray:none;stroke-opacity:1" />
    <path
       style="fill:none;fill-rule:evenodd;stroke:#ff0000;stroke-width:0.17638889;stroke-linecap:butt;stroke-linejoin:miter;stroke-miterlimit:4;stroke-dasharray:none;stroke-opacity:1"
       d="m 244.09973,418.6121 h -2.29149"
       id="path4579"
       inkscape:connector-curvature="0"
       sodipodi:nodetypes="cc" />
  </g>
</svg>
