<?xml version="1.0" encoding="UTF-8" standalone="no"?>
<!-- Created with Inkscape (http://www.inkscape.org/) -->

<svg
   xmlns:dc="http://purl.org/dc/elements/1.1/"
   xmlns:cc="http://creativecommons.org/ns#"
   xmlns:rdf="http://www.w3.org/1999/02/22-rdf-syntax-ns#"
   xmlns:svg="http://www.w3.org/2000/svg"
   xmlns="http://www.w3.org/2000/svg"
   xmlns:sodipodi="http://sodipodi.sourceforge.net/DTD/sodipodi-0.dtd"
   xmlns:inkscape="http://www.inkscape.org/namespaces/inkscape"
   width="11in"
   height="11in"
   viewBox="0 0 279.4 279.40001"
   version="1.1"
   id="svg8"
   inkscape:version="0.92.0 r15299"
   sodipodi:docname="interlocking tiles 9x11a.svg">
  <defs
     id="defs2">
    <pattern
       y="0"
       x="0"
       height="6"
       width="6"
       patternUnits="userSpaceOnUse"
       id="EMFhbasepattern" />
    <pattern
       y="0"
       x="0"
       height="6"
       width="6"
       patternUnits="userSpaceOnUse"
       id="EMFhbasepattern-6" />
  </defs>
  <sodipodi:namedview
     id="base"
     pagecolor="#ffffff"
     bordercolor="#666666"
     borderopacity="1.0"
     inkscape:pageopacity="0.0"
     inkscape:pageshadow="2"
     inkscape:zoom="0.49497475"
     inkscape:cx="790.70336"
     inkscape:cy="691.52568"
     inkscape:document-units="in"
     inkscape:current-layer="layer1"
     showgrid="false"
     units="in"
     inkscape:window-width="1920"
     inkscape:window-height="1017"
     inkscape:window-x="-8"
     inkscape:window-y="-8"
     inkscape:window-maximized="1"
     showguides="false"
     inkscape:guide-bbox="true"
     inkscape:snap-intersection-paths="false"
     inkscape:snap-object-midpoints="true"
     inkscape:snap-others="true"
     inkscape:object-nodes="false">
    <sodipodi:guide
       position="14.198694,227.01206"
       orientation="0,1"
       id="guide4579"
       inkscape:locked="false" />
    <sodipodi:guide
       position="2.1381562,227.01206"
       orientation="1,0"
       id="guide4581"
       inkscape:locked="false" />
    <sodipodi:guide
       position="277.02487,227.01206"
       orientation="1,0"
       id="guide4583"
       inkscape:locked="false" />
    <sodipodi:guide
       position="265.66591,3.2072345"
       orientation="0,1"
       id="guide4585"
       inkscape:locked="false" />
    <sodipodi:guide
       position="226.17151,163.99442"
       orientation="1,0"
       id="guide5129"
       inkscape:locked="false" />
    <sodipodi:guide
       position="178.53604,164.90531"
       orientation="1,0"
       id="guide5131"
       inkscape:locked="false" />
    <sodipodi:guide
       position="131.20499,186.05878"
       orientation="1,0"
       id="guide5133"
       inkscape:locked="false" />
    <sodipodi:guide
       position="83.627232,202.02828"
       orientation="1,0"
       id="guide5135"
       inkscape:locked="false" />
    <sodipodi:guide
       position="36.181613,221.16554"
       orientation="1,0"
       id="guide5137"
       inkscape:locked="false" />
    <sodipodi:guide
       position="36.181612,193.90405"
       orientation="0,1"
       id="guide5139"
       inkscape:locked="false" />
    <sodipodi:guide
       position="39.54576,139.00075"
       orientation="0,1"
       id="guide5141"
       inkscape:locked="false" />
    <sodipodi:guide
       position="38.459077,84.1942"
       orientation="0,1"
       id="guide5143"
       inkscape:locked="false" />
    <sodipodi:guide
       position="39.262277,29.38765"
       orientation="0,1"
       id="guide5145"
       inkscape:locked="false" />
    <sodipodi:guide
       position="189.31883,56.554689"
       orientation="0,1"
       id="guide5213"
       inkscape:locked="false" />
    <sodipodi:guide
       position="195.10676,111.61844"
       orientation="0,1"
       id="guide5215"
       inkscape:locked="false" />
    <sodipodi:guide
       position="188.49184,166.30847"
       orientation="0,1"
       id="guide5217"
       inkscape:locked="false" />
    <sodipodi:guide
       position="17.773424,1.737252"
       orientation="0,1"
       id="guide4645"
       inkscape:locked="false" />
  </sodipodi:namedview>
  <metadata
     id="metadata5">
    <rdf:RDF>
      <cc:Work
         rdf:about="">
        <dc:format>image/svg+xml</dc:format>
        <dc:type
           rdf:resource="http://purl.org/dc/dcmitype/StillImage" />
        <dc:title />
      </cc:Work>
    </rdf:RDF>
  </metadata>
  <g
     inkscape:label="front"
     inkscape:groupmode="layer"
     id="layer1"
     transform="translate(0,-17.599982)"
     style="display:inline">
    <path
       inkscape:connector-curvature="0"
       id="path4550"
       d="m 36.204727,70.701039 -0.0207,0.03462 -0.0191,-0.03411 -4.44727,2.567282 1.48724,2.57607 h -12.82557 l -6.42028,11.11973 h 2.95176 l -5.2e-4,5.135611 h -0.0393 l 0.0202,0.0346 -4.44831,2.56677 -1.47484,-2.55437 -6.41925,11.117668 6.41976,11.1187 -3.00188,5.2e-4 -0.001,5.13509 h 0.0403 l -0.0202,0.0341 4.44727,2.5678 1.50121,-2.59984 6.44611,11.1647 12.88862,5.1e-4 0.003,-0.005 -1.50223,-2.6019 4.44727,-2.56729 0.0196,0.0341 0.0202,-0.0346 4.44676,2.56832 -1.50172,2.60139 0.003,0.005 12.83694,5.2e-4 6.42287,-11.1249 1.48156,2.56573 4.44728,-2.56728 -0.0196,-0.0346 h 0.0393 v -5.13508 h -2.96364 l 6.42338,-11.12439 -6.42906,-11.135748 -1.46761,2.54144 -4.44676,-2.5678 0.0196,-0.0341 h -0.0403 l 10e-4,-5.135611 h 2.93367 l -6.40219,-11.08976 h -12.87673 l 1.48673,-2.57555 z"
       style="opacity:1;fill:none;fill-opacity:1;fill-rule:nonzero;stroke:#ff0000;stroke-width:0.1763889;stroke-linecap:round;stroke-linejoin:round;stroke-miterlimit:4;stroke-dasharray:none;stroke-dashoffset:0;stroke-opacity:1" />
    <path
       style="opacity:1;fill:none;fill-opacity:1;fill-rule:nonzero;stroke:#ff0000;stroke-width:0.1763889;stroke-linecap:round;stroke-linejoin:round;stroke-miterlimit:4;stroke-dasharray:none;stroke-dashoffset:0;stroke-opacity:1"
       d="m 36.205227,125.54314 -0.0207,0.0346 -0.0191,-0.0341 -4.44727,2.56728 1.48724,2.57607 h -12.82557 l -6.42028,11.11973 h 2.95176 l -5.2e-4,5.13561 h -0.0393 l 0.0202,0.0346 -4.44831,2.56677 -1.47484,-2.55437 -6.41925,11.11767 6.41976,11.1187 -3.00188,5.2e-4 -10e-4,5.13509 h 0.0403 l -0.0202,0.0341 4.44727,2.5678 1.50121,-2.59984 6.44611,11.1647 12.88862,5.1e-4 0.003,-0.005 -1.50223,-2.6019 4.44727,-2.56729 0.0196,0.0341 0.0202,-0.0346 4.44676,2.56832 -1.50172,2.60139 0.003,0.005 12.83694,5.2e-4 6.42287,-11.1249 1.48156,2.56573 4.44728,-2.56728 -0.0196,-0.0346 h 0.0393 V 169.233 h -2.96364 l 6.42338,-11.12439 -6.42906,-11.13575 -1.46761,2.54144 -4.44676,-2.5678 0.0196,-0.0341 h -0.0403 l 10e-4,-5.13561 h 2.93367 l -6.40219,-11.08976 h -12.87673 l 1.48673,-2.57555 z"
       id="path4589"
       inkscape:connector-curvature="0" />
    <circle
       r="0.21967478"
       cy="99.507584"
       cx="54.287277"
       id="circle4595"
       style="opacity:1;fill:none;fill-opacity:1;fill-rule:nonzero;stroke:#ff0000;stroke-width:0.17638884;stroke-linecap:round;stroke-linejoin:round;stroke-miterlimit:4;stroke-dasharray:none;stroke-dashoffset:0;stroke-opacity:1" />
    <path
       inkscape:connector-curvature="0"
       id="path4599"
       d="m 83.698347,98.12265 -0.0207,0.03462 -0.0191,-0.03411 -4.44727,2.56728 1.48724,2.57607 h -12.82557 l -6.42028,11.11973 h 2.95176 l -5.2e-4,5.13561 h -0.0393 l 0.0202,0.0346 -4.44831,2.56677 -1.47484,-2.55437 -6.41925,11.11767 6.41976,11.1187 -3.00188,5.2e-4 -10e-4,5.13509 h 0.0403 l -0.0202,0.0341 4.44727,2.5678 1.50121,-2.59984 6.44611,11.1647 12.88862,5.1e-4 0.003,-0.005 -1.50223,-2.6019 4.44727,-2.56729 0.0196,0.0341 0.0202,-0.0346 4.44676,2.56832 -1.50172,2.60139 0.003,0.005 12.83694,5.2e-4 6.422873,-11.1249 1.48156,2.56573 4.44728,-2.56728 -0.0196,-0.0346 h 0.0393 v -5.13508 h -2.96364 l 6.42338,-11.12439 -6.42906,-11.13575 -1.46761,2.54144 -4.44676,-2.5678 0.0196,-0.0341 h -0.0403 l 10e-4,-5.13561 h 2.93367 l -6.402193,-11.08976 h -12.87673 l 1.48673,-2.57555 z"
       style="opacity:1;fill:none;fill-opacity:1;fill-rule:nonzero;stroke:#ff0000;stroke-width:0.1763889;stroke-linecap:round;stroke-linejoin:round;stroke-miterlimit:4;stroke-dasharray:none;stroke-dashoffset:0;stroke-opacity:1" />
    <path
       style="opacity:1;fill:none;fill-opacity:1;fill-rule:nonzero;stroke:#ff0000;stroke-width:0.1763889;stroke-linecap:round;stroke-linejoin:round;stroke-miterlimit:4;stroke-dasharray:none;stroke-dashoffset:0;stroke-opacity:1"
       d="m 131.19086,70.702669 -0.0207,0.03462 -0.0191,-0.03411 -4.44727,2.567282 1.48724,2.57607 h -12.82557 l -6.42028,11.11973 h 2.95176 l -5.2e-4,5.135611 h -0.0393 l 0.0202,0.0346 -4.44831,2.56677 -1.47484,-2.55437 -6.419253,11.117668 6.419763,11.1187 -3.00188,5.2e-4 -10e-4,5.13509 h 0.0403 l -0.0202,0.0341 4.44727,2.5678 1.50121,-2.59984 6.44611,11.1647 12.88862,5.1e-4 0.003,-0.005 -1.50223,-2.6019 4.44727,-2.56729 0.0196,0.0341 0.0202,-0.0346 4.44676,2.56832 -1.50172,2.60139 0.003,0.005 12.83694,5.2e-4 6.42287,-11.1249 1.48156,2.56573 4.44728,-2.56728 -0.0196,-0.0346 h 0.0393 v -5.13508 h -2.96364 l 6.42338,-11.12439 -6.42906,-11.135748 -1.46761,2.54144 -4.44676,-2.5678 0.0196,-0.0341 h -0.0403 l 0.001,-5.135611 h 2.93367 l -6.40219,-11.08976 H 134.1507 l 1.48673,-2.57555 z"
       id="path4609"
       inkscape:connector-curvature="0" />
    <path
       inkscape:connector-curvature="0"
       id="path4617"
       d="m 83.695747,152.96941 -0.0207,0.0346 -0.0191,-0.0341 -4.44727,2.56728 1.48724,2.57607 h -12.82557 l -6.42028,11.11973 h 2.95176 l -5.2e-4,5.13561 h -0.0393 l 0.0202,0.0346 -4.44831,2.56677 -1.47484,-2.55437 -6.41925,11.11767 6.41976,11.1187 -3.00188,5.2e-4 -10e-4,5.13509 h 0.0403 l -0.0202,0.0341 4.44727,2.5678 1.50121,-2.59984 6.44611,11.1647 12.88862,5.1e-4 0.003,-0.005 -1.50223,-2.6019 4.44727,-2.56729 0.0196,0.0341 0.0202,-0.0346 4.44676,2.56832 -1.50172,2.60139 0.003,0.005 12.83694,5.2e-4 6.422873,-11.1249 1.48156,2.56573 4.44728,-2.56728 -0.0196,-0.0346 h 0.0393 v -5.13508 h -2.96364 l 6.42338,-11.12439 -6.42906,-11.13575 -1.46761,2.54144 -4.44676,-2.5678 0.0196,-0.0341 h -0.0403 l 10e-4,-5.13561 h 2.93367 L 99.532317,158.1133 h -12.87673 l 1.48673,-2.57555 z"
       style="opacity:1;fill:none;fill-opacity:1;fill-rule:nonzero;stroke:#ff0000;stroke-width:0.1763889;stroke-linecap:round;stroke-linejoin:round;stroke-miterlimit:4;stroke-dasharray:none;stroke-dashoffset:0;stroke-opacity:1" />
    <path
       inkscape:connector-curvature="0"
       id="path4625"
       d="m 36.205727,180.38524 -0.0207,0.0346 -0.0191,-0.0341 -4.44727,2.56728 1.48724,2.57607 h -12.82557 l -6.42028,11.11973 h 2.95176 l -5.2e-4,5.13561 h -0.0393 l 0.0202,0.0346 -4.44831,2.56677 -1.47484,-2.55437 -6.41925,11.11767 6.41976,11.1187 -3.00188,5.2e-4 -10e-4,5.13509 h 0.0403 l -0.0202,0.0341 4.44727,2.5678 1.50121,-2.59984 6.44611,11.1647 12.88862,5.1e-4 0.003,-0.005 -1.50223,-2.6019 4.44727,-2.56729 0.0196,0.0341 0.0202,-0.0346 4.44676,2.56832 -1.50172,2.60139 0.003,0.005 12.83694,5.2e-4 6.42287,-11.1249 1.48156,2.56573 4.44728,-2.56728 -0.0196,-0.0346 h 0.0393 v -5.13508 h -2.96364 l 6.42338,-11.12439 -6.42906,-11.13575 -1.46761,2.54144 -4.44676,-2.5678 0.0196,-0.0341 h -0.0403 l 0.001,-5.13561 h 2.93367 l -6.40219,-11.08976 h -12.87673 l 1.48673,-2.57555 z"
       style="opacity:1;fill:none;fill-opacity:1;fill-rule:nonzero;stroke:#ff0000;stroke-width:0.1763889;stroke-linecap:round;stroke-linejoin:round;stroke-miterlimit:4;stroke-dasharray:none;stroke-dashoffset:0;stroke-opacity:1" />
    <path
       style="opacity:1;fill:none;fill-opacity:1;fill-rule:nonzero;stroke:#ff0000;stroke-width:0.1763889;stroke-linecap:round;stroke-linejoin:round;stroke-miterlimit:4;stroke-dasharray:none;stroke-dashoffset:0;stroke-opacity:1"
       d="m 36.206227,235.22737 -0.0207,0.0346 -0.0191,-0.0341 -4.44727,2.56728 1.48724,2.57607 h -12.82557 l -6.42028,11.11973 h 2.95176 l -5.2e-4,5.13561 h -0.0393 l 0.0202,0.0346 -4.44831,2.56677 -1.47484,-2.55437 -6.41925,11.11767 6.41976,11.1187 -3.00188,5.2e-4 -0.001,5.13509 h 0.0403 l -0.0202,0.0341 4.44727,2.5678 1.50121,-2.59984 6.44611,11.1647 12.88862,5.1e-4 0.003,-0.005 -1.50223,-2.6019 4.44727,-2.56729 0.0196,0.0341 0.0202,-0.0346 4.44676,2.56832 -1.50172,2.60139 0.003,0.005 12.83694,5.2e-4 6.42287,-11.1249 1.48156,2.56573 4.44728,-2.56728 -0.0196,-0.0346 h 0.0393 v -5.13508 h -2.96364 l 6.42338,-11.12439 -6.42906,-11.13575 -1.46761,2.54144 -4.44676,-2.5678 0.0196,-0.0341 h -0.0403 l 10e-4,-5.13561 h 2.93367 l -6.40219,-11.08976 h -12.87673 l 1.48673,-2.57555 z"
       id="path4633"
       inkscape:connector-curvature="0" />
    <path
       style="opacity:1;fill:none;fill-opacity:1;fill-rule:nonzero;stroke:#ff0000;stroke-width:0.1763889;stroke-linecap:round;stroke-linejoin:round;stroke-miterlimit:4;stroke-dasharray:none;stroke-dashoffset:0;stroke-opacity:1"
       d="m 83.696247,207.81152 -0.0207,0.0346 -0.0191,-0.0341 -4.44727,2.56728 1.48724,2.57607 h -12.82557 l -6.42028,11.11973 h 2.95176 l -5.2e-4,5.13561 h -0.0393 l 0.0202,0.0346 -4.44831,2.56677 -1.47484,-2.55437 -6.41925,11.11767 6.41976,11.1187 -3.00188,5.2e-4 -0.001,5.13509 h 0.0403 l -0.0202,0.0341 4.44727,2.5678 1.50121,-2.59984 6.44611,11.1647 12.88862,5.1e-4 0.003,-0.005 -1.50223,-2.6019 4.44727,-2.56729 0.0196,0.0341 0.0202,-0.0346 4.44676,2.56832 -1.50172,2.60139 0.003,0.005 12.83694,5.2e-4 6.422873,-11.1249 1.48156,2.56573 4.44728,-2.56728 -0.0196,-0.0346 h 0.0393 v -5.13508 h -2.96364 l 6.42338,-11.12439 -6.42906,-11.13575 -1.46761,2.54144 -4.44676,-2.5678 0.0196,-0.0341 h -0.0403 l 0.001,-5.13561 h 2.93367 L 99.532817,212.9554 h -12.87673 l 1.48673,-2.57555 z"
       id="path4641"
       inkscape:connector-curvature="0" />
    <path
       inkscape:connector-curvature="0"
       id="path4649"
       d="m 131.19136,125.54477 -0.0207,0.0346 -0.0191,-0.0341 -4.44727,2.56728 1.48724,2.57607 h -12.82557 l -6.42028,11.11973 h 2.95176 l -5.2e-4,5.13561 h -0.0393 l 0.0202,0.0346 -4.44831,2.56677 -1.47484,-2.55437 -6.419253,11.11767 6.419763,11.1187 -3.00188,5.2e-4 -0.001,5.13509 h 0.0403 l -0.0202,0.0341 4.44727,2.5678 1.50121,-2.59984 6.44611,11.1647 12.88862,5.1e-4 0.003,-0.005 -1.50223,-2.6019 4.44727,-2.56729 0.0196,0.0341 0.0202,-0.0346 4.44676,2.56832 -1.50172,2.60139 0.003,0.005 12.83694,5.2e-4 6.42287,-11.1249 1.48156,2.56573 4.44728,-2.56728 -0.0196,-0.0346 h 0.0393 v -5.13508 h -2.96364 l 6.42338,-11.12439 -6.42906,-11.13575 -1.46761,2.54144 -4.44676,-2.5678 0.0196,-0.0341 h -0.0403 l 0.001,-5.13561 h 2.93367 l -6.40219,-11.08976 H 134.1512 l 1.48673,-2.57555 z"
       style="opacity:1;fill:none;fill-opacity:1;fill-rule:nonzero;stroke:#ff0000;stroke-width:0.1763889;stroke-linecap:round;stroke-linejoin:round;stroke-miterlimit:4;stroke-dasharray:none;stroke-dashoffset:0;stroke-opacity:1" />
    <path
       style="opacity:1;fill:none;fill-opacity:1;fill-rule:nonzero;stroke:#ff0000;stroke-width:0.1763889;stroke-linecap:round;stroke-linejoin:round;stroke-miterlimit:4;stroke-dasharray:none;stroke-dashoffset:0;stroke-opacity:1"
       d="m 131.19186,180.38687 -0.0207,0.0346 -0.0191,-0.0341 -4.44727,2.56728 1.48724,2.57607 h -12.82557 l -6.42028,11.11973 h 2.95176 l -5.2e-4,5.13561 h -0.0393 l 0.0202,0.0346 -4.44831,2.56677 -1.47484,-2.55437 -6.419253,11.11767 6.419763,11.1187 -3.00188,5.2e-4 -0.001,5.13509 h 0.0403 l -0.0202,0.0341 4.44727,2.5678 1.50121,-2.59984 6.44611,11.1647 12.88862,5.1e-4 0.003,-0.005 -1.50223,-2.6019 4.44727,-2.56729 0.0196,0.0341 0.0202,-0.0346 4.44676,2.56832 -1.50172,2.60139 0.003,0.005 12.83694,5.2e-4 6.42287,-11.1249 1.48156,2.56573 4.44728,-2.56728 -0.0196,-0.0346 h 0.0393 v -5.13508 h -2.96364 l 6.42338,-11.12439 -6.42906,-11.13575 -1.46761,2.54144 -4.44676,-2.5678 0.0196,-0.0341 h -0.0403 l 0.001,-5.13561 h 2.93367 l -6.40219,-11.08976 H 134.1517 l 1.48673,-2.57555 z"
       id="path4657"
       inkscape:connector-curvature="0" />
    <path
       inkscape:connector-curvature="0"
       id="path4665"
       d="m 131.19236,235.22898 -0.0207,0.0346 -0.0191,-0.0341 -4.44727,2.56728 1.48724,2.57607 h -12.82557 l -6.42028,11.11973 h 2.95176 l -5.2e-4,5.13561 h -0.0393 l 0.0202,0.0346 -4.44831,2.56677 -1.47484,-2.55437 -6.419253,11.11767 6.419763,11.1187 -3.00188,5.2e-4 -0.001,5.13509 h 0.0403 l -0.0202,0.0341 4.44727,2.5678 1.50121,-2.59984 6.44611,11.1647 12.88862,5.1e-4 0.003,-0.005 -1.50223,-2.6019 4.44727,-2.56729 0.0196,0.0341 0.0202,-0.0346 4.44676,2.56832 -1.50172,2.60139 0.003,0.005 12.83694,5.2e-4 6.42287,-11.1249 1.48156,2.56573 4.44728,-2.56728 -0.0196,-0.0346 h 0.0393 v -5.13508 h -2.96364 l 6.42338,-11.12439 -6.42906,-11.13575 -1.46761,2.54144 -4.44676,-2.5678 0.0196,-0.0341 h -0.0403 l 10e-4,-5.13561 h 2.93367 l -6.40219,-11.08976 H 134.1522 l 1.48673,-2.57555 z"
       style="opacity:1;fill:none;fill-opacity:1;fill-rule:nonzero;stroke:#ff0000;stroke-width:0.1763889;stroke-linecap:round;stroke-linejoin:round;stroke-miterlimit:4;stroke-dasharray:none;stroke-dashoffset:0;stroke-opacity:1" />
    <path
       inkscape:connector-curvature="0"
       id="path4673"
       d="m 178.67408,98.163009 -0.0207,0.03462 -0.0191,-0.03411 -4.44727,2.567281 1.48724,2.57607 h -12.82557 l -6.42028,11.11973 h 2.95176 l -5.2e-4,5.13561 h -0.0393 l 0.0202,0.0346 -4.44831,2.56677 -1.47484,-2.55437 -6.41925,11.11767 6.41976,11.1187 -3.00188,5.2e-4 -0.001,5.13509 h 0.0403 l -0.0202,0.0341 4.44727,2.5678 1.50121,-2.59984 6.44611,11.1647 12.88862,5.1e-4 0.003,-0.005 -1.50223,-2.6019 4.44727,-2.56729 0.0196,0.0341 0.0202,-0.0346 4.44676,2.56832 -1.50172,2.60139 0.003,0.005 12.83694,5.2e-4 6.42287,-11.1249 1.48156,2.56573 4.44728,-2.56728 -0.0196,-0.0346 h 0.0393 v -5.13508 h -2.96364 l 6.42338,-11.12439 -6.42906,-11.13575 -1.46761,2.54144 -4.44676,-2.5678 0.0196,-0.0341 h -0.0403 l 0.001,-5.13561 h 2.93367 l -6.40219,-11.08976 h -12.87673 l 1.48673,-2.57555 z"
       style="opacity:1;fill:none;fill-opacity:1;fill-rule:nonzero;stroke:#ff0000;stroke-width:0.1763889;stroke-linecap:round;stroke-linejoin:round;stroke-miterlimit:4;stroke-dasharray:none;stroke-dashoffset:0;stroke-opacity:1" />
    <path
       style="opacity:1;fill:none;fill-opacity:1;fill-rule:nonzero;stroke:#ff0000;stroke-width:0.1763889;stroke-linecap:round;stroke-linejoin:round;stroke-miterlimit:4;stroke-dasharray:none;stroke-dashoffset:0;stroke-opacity:1"
       d="m 178.67458,153.00511 -0.0207,0.0346 -0.0191,-0.0341 -4.44727,2.56728 1.48724,2.57607 h -12.82557 l -6.42028,11.11973 h 2.95176 l -5.2e-4,5.13561 h -0.0393 l 0.0202,0.0346 -4.44831,2.56677 -1.47484,-2.55437 -6.41925,11.11767 6.41976,11.1187 -3.00188,5.2e-4 -0.001,5.13509 h 0.0403 l -0.0202,0.0341 4.44727,2.5678 1.50121,-2.59984 6.44611,11.1647 12.88862,5.1e-4 0.003,-0.005 -1.50223,-2.6019 4.44727,-2.56729 0.0196,0.0341 0.0202,-0.0346 4.44676,2.56832 -1.50172,2.60139 0.003,0.005 12.83694,5.2e-4 6.42287,-11.1249 1.48156,2.56573 4.44728,-2.56728 -0.0196,-0.0346 h 0.0393 v -5.13508 h -2.96364 l 6.42338,-11.12439 -6.42906,-11.13575 -1.46761,2.54144 -4.44676,-2.5678 0.0196,-0.0341 h -0.0403 l 0.001,-5.13561 h 2.93367 L 194.51115,158.149 h -12.87673 l 1.48673,-2.57555 z"
       id="path4681"
       inkscape:connector-curvature="0" />
    <path
       inkscape:connector-curvature="0"
       id="path4689"
       d="m 178.67508,207.84721 -0.0207,0.0346 -0.0191,-0.0341 -4.44727,2.56728 1.48724,2.57607 h -12.82557 l -6.42028,11.11973 h 2.95176 l -5.2e-4,5.13561 h -0.0393 l 0.0202,0.0346 -4.44831,2.56677 -1.47484,-2.55437 -6.41925,11.11767 6.41976,11.1187 -3.00188,5.2e-4 -10e-4,5.13509 h 0.0403 l -0.0202,0.0341 4.44727,2.5678 1.50121,-2.59984 6.44611,11.1647 12.88862,5.1e-4 0.003,-0.005 -1.50223,-2.6019 4.44727,-2.56729 0.0196,0.0341 0.0202,-0.0346 4.44676,2.56832 -1.50172,2.60139 0.003,0.005 12.83694,5.2e-4 6.42287,-11.1249 1.48156,2.56573 4.44728,-2.56728 -0.0196,-0.0346 h 0.0393 v -5.13508 h -2.96364 l 6.42338,-11.12439 -6.42906,-11.13575 -1.46761,2.54144 -4.44676,-2.5678 0.0196,-0.0341 h -0.0403 l 10e-4,-5.13561 h 2.93367 l -6.40219,-11.08976 h -12.87673 l 1.48673,-2.57555 z"
       style="opacity:1;fill:none;fill-opacity:1;fill-rule:nonzero;stroke:#ff0000;stroke-width:0.1763889;stroke-linecap:round;stroke-linejoin:round;stroke-miterlimit:4;stroke-dasharray:none;stroke-dashoffset:0;stroke-opacity:1" />
    <path
       style="opacity:1;fill:none;fill-opacity:1;fill-rule:nonzero;stroke:#ff0000;stroke-width:0.1763889;stroke-linecap:round;stroke-linejoin:round;stroke-miterlimit:4;stroke-dasharray:none;stroke-dashoffset:0;stroke-opacity:1"
       d="m 226.18372,70.772489 -0.0207,0.03462 -0.0191,-0.03411 -4.44727,2.567282 1.48724,2.57607 h -12.82557 l -6.42028,11.11973 h 2.95176 l -5.2e-4,5.135611 h -0.0393 l 0.0202,0.0346 -4.44831,2.56677 -1.47484,-2.55437 -6.41925,11.117668 6.41976,11.1187 -3.00188,5.2e-4 -0.001,5.13509 h 0.0403 l -0.0202,0.0341 4.44727,2.5678 1.50121,-2.59984 6.44611,11.1647 12.88862,5.1e-4 0.003,-0.005 -1.50223,-2.6019 4.44727,-2.56729 0.0196,0.0341 0.0202,-0.0346 4.44676,2.56832 -1.50172,2.60139 0.003,0.005 12.83694,5.2e-4 6.42287,-11.1249 1.48156,2.56573 4.44728,-2.56728 -0.0196,-0.0346 h 0.0393 v -5.13508 h -2.96364 l 6.42338,-11.12439 -6.42906,-11.135748 -1.46761,2.54144 -4.44676,-2.5678 0.0196,-0.0341 h -0.0403 l 0.001,-5.135611 h 2.93367 l -6.40219,-11.08976 h -12.87673 l 1.48673,-2.57555 z"
       id="path4697"
       inkscape:connector-curvature="0" />
    <path
       style="opacity:1;fill:none;fill-opacity:1;fill-rule:nonzero;stroke:#ff0000;stroke-width:0.1763889;stroke-linecap:round;stroke-linejoin:round;stroke-miterlimit:4;stroke-dasharray:none;stroke-dashoffset:0;stroke-opacity:1"
       d="m 226.18422,125.61459 -0.0207,0.0346 -0.0191,-0.0341 -4.44727,2.56728 1.48724,2.57607 h -12.82557 l -6.42028,11.11973 h 2.95176 l -5.2e-4,5.13561 h -0.0393 l 0.0202,0.0346 -4.44831,2.56677 -1.47484,-2.55437 -6.41925,11.11767 6.41976,11.1187 -3.00188,5.2e-4 -0.001,5.13509 h 0.0403 l -0.0202,0.0341 4.44727,2.5678 1.50121,-2.59984 6.44611,11.1647 12.88862,5.1e-4 0.003,-0.005 -1.50223,-2.6019 4.44727,-2.56729 0.0196,0.0341 0.0202,-0.0346 4.44676,2.56832 -1.50172,2.60139 0.003,0.005 12.83694,5.2e-4 6.42287,-11.1249 1.48156,2.56573 4.44728,-2.56728 -0.0196,-0.0346 h 0.0393 v -5.13508 h -2.96364 l 6.42338,-11.12439 -6.42906,-11.13575 -1.46761,2.54144 -4.44676,-2.5678 0.0196,-0.0341 h -0.0403 l 10e-4,-5.13561 h 2.93367 l -6.40219,-11.08976 h -12.87673 l 1.48673,-2.57555 z"
       id="path4705"
       inkscape:connector-curvature="0" />
    <path
       inkscape:connector-curvature="0"
       id="path4727"
       d="m 226.18472,180.45669 -0.0207,0.0346 -0.0191,-0.0341 -4.44727,2.56728 1.48724,2.57607 h -12.82557 l -6.42028,11.11973 h 2.95176 l -5.2e-4,5.13561 h -0.0393 l 0.0202,0.0346 -4.44831,2.56677 -1.47484,-2.55437 -6.41925,11.11767 6.41976,11.1187 -3.00188,5.2e-4 -0.001,5.13509 h 0.0403 l -0.0202,0.0341 4.44727,2.5678 1.50121,-2.59984 6.44611,11.1647 12.88862,5.1e-4 0.003,-0.005 -1.50223,-2.6019 4.44727,-2.56729 0.0196,0.0341 0.0202,-0.0346 4.44676,2.56832 -1.50172,2.60139 0.003,0.005 12.83694,5.2e-4 6.42287,-11.1249 1.48156,2.56573 4.44728,-2.56728 -0.0196,-0.0346 h 0.0393 v -5.13508 h -2.96364 l 6.42338,-11.12439 -6.42906,-11.13575 -1.46761,2.54144 -4.44676,-2.5678 0.0196,-0.0341 h -0.0403 l 0.001,-5.13561 h 2.93367 l -6.40219,-11.08976 h -12.87673 l 1.48673,-2.57555 z"
       style="opacity:1;fill:none;fill-opacity:1;fill-rule:nonzero;stroke:#ff0000;stroke-width:0.1763889;stroke-linecap:round;stroke-linejoin:round;stroke-miterlimit:4;stroke-dasharray:none;stroke-dashoffset:0;stroke-opacity:1" />
    <path
       style="opacity:1;fill:none;fill-opacity:1;fill-rule:nonzero;stroke:#ff0000;stroke-width:0.1763889;stroke-linecap:round;stroke-linejoin:round;stroke-miterlimit:4;stroke-dasharray:none;stroke-dashoffset:0;stroke-opacity:1"
       d="m 226.18522,235.2988 -0.0207,0.0346 -0.0191,-0.0341 -4.44727,2.56728 1.48724,2.57607 h -12.82557 l -6.42028,11.11973 h 2.95176 l -5.2e-4,5.13561 h -0.0393 l 0.0202,0.0346 -4.44831,2.56677 -1.47484,-2.55437 -6.41925,11.11767 6.41976,11.1187 -3.00188,5.2e-4 -0.001,5.13509 h 0.0403 l -0.0202,0.0341 4.44727,2.5678 1.50121,-2.59984 6.44611,11.1647 12.88862,5.1e-4 0.003,-0.005 -1.50223,-2.6019 4.44727,-2.56729 0.0196,0.0341 0.0202,-0.0346 4.44676,2.56832 -1.50172,2.60139 0.003,0.005 12.83694,5.2e-4 6.42287,-11.1249 1.48156,2.56573 4.44728,-2.56728 -0.0196,-0.0346 h 0.0393 v -5.13508 h -2.96364 l 6.42338,-11.12439 -6.42906,-11.13575 -1.46761,2.54144 -4.44676,-2.5678 0.0196,-0.0341 h -0.0403 l 0.001,-5.13561 h 2.93367 l -6.40219,-11.08976 h -12.87673 l 1.48673,-2.57555 z"
       id="path4735"
       inkscape:connector-curvature="0" />
    <path
       inkscape:connector-curvature="0"
       style="fill:none;fill-opacity:1;stroke:#0000ff;stroke-width:0.17638889;stroke-linecap:round;stroke-linejoin:round;stroke-miterlimit:4;stroke-dasharray:none;stroke-opacity:1"
       d="m 223.6856,153.72961 0.004,0.007 c -0.88059,1.64652 -3.20291,3.13651 -3.3637,3.34614 3.62903,5.68163 5.37937,5.7752 8.58316,5.69424 l 0.004,0.006 c 0.001,-0.002 0.002,-0.005 0.004,-0.007 0.002,-1.4e-4 0.005,6e-4 0.008,-4e-5 l -0.004,-0.006 c 1.67201,-2.73409 2.46614,-4.29671 -0.63978,-10.28036 -0.26193,0.0344 -2.71346,1.30063 -4.57967,1.23998 l -0.004,-0.007 c -0.001,0.002 -0.002,0.004 -0.004,0.007 -0.002,1.3e-4 -0.004,2.7e-4 -0.008,4e-5 z"
       id="path5544" />
    <circle
       style="opacity:1;fill:none;fill-opacity:1;fill-rule:nonzero;stroke:#0000ff;stroke-width:0.17638892;stroke-linecap:round;stroke-linejoin:round;stroke-miterlimit:4;stroke-dasharray:none;stroke-dashoffset:0;stroke-opacity:1"
       id="path5123"
       cx="116.8596"
       cy="249.93625"
       r="9.4368057"
       transform="rotate(-30)" />
    <path
       id="path5147"
       d="m 223.6856,98.804209 0.004,0.0069 c -0.88059,1.646511 -3.20291,3.136501 -3.3637,3.346141 3.62903,5.68162 5.37937,5.7752 8.58316,5.69424 l 0.004,0.006 c 0.001,-0.002 0.002,-0.005 0.004,-0.007 0.002,-1.3e-4 0.005,6e-4 0.008,-3e-5 l -0.004,-0.006 c 1.67201,-2.73409 2.46614,-4.29672 -0.63978,-10.280363 -0.26193,0.03443 -2.71346,1.300631 -4.57968,1.239986 l -0.004,-0.0069 c -0.001,0.0019 -0.002,0.0037 -0.004,0.007 -0.002,1.34e-4 -0.004,2.68e-4 -0.008,3.6e-5 z"
       style="fill:none;fill-opacity:1;stroke:#0000ff;stroke-width:0.17638889;stroke-linecap:round;stroke-linejoin:round;stroke-miterlimit:4;stroke-dasharray:none;stroke-opacity:1"
       inkscape:connector-curvature="0" />
    <circle
       r="9.4368057"
       cy="202.36946"
       cx="144.32231"
       id="circle5149"
       style="opacity:1;fill:none;fill-opacity:1;fill-rule:nonzero;stroke:#0000ff;stroke-width:0.17638892;stroke-linecap:round;stroke-linejoin:round;stroke-miterlimit:4;stroke-dasharray:none;stroke-dashoffset:0;stroke-opacity:1"
       transform="rotate(-30)" />
    <path
       inkscape:connector-curvature="0"
       style="fill:none;fill-opacity:1;stroke:#0000ff;stroke-width:0.17638889;stroke-linecap:round;stroke-linejoin:round;stroke-miterlimit:4;stroke-dasharray:none;stroke-opacity:1"
       d="m 128.71908,98.804207 0.004,0.0069 c -0.88059,1.646513 -3.20291,3.136503 -3.36371,3.346133 3.62904,5.68163 5.37938,5.77521 8.58317,5.69424 l 0.004,0.006 c 0.001,-0.002 0.002,-0.005 0.004,-0.007 0.002,-1.3e-4 0.005,6e-4 0.008,-3e-5 l -0.004,-0.006 c 1.67202,-2.73408 2.46615,-4.29671 -0.63977,-10.280355 -0.26194,0.03443 -2.71346,1.300632 -4.57968,1.239986 l -0.004,-0.0069 c -0.001,0.0019 -0.002,0.0037 -0.004,0.007 -0.002,1.34e-4 -0.004,2.68e-4 -0.008,3.6e-5 z"
       id="path5153" />
    <circle
       style="opacity:1;fill:none;fill-opacity:1;fill-rule:nonzero;stroke:#0000ff;stroke-width:0.17638892;stroke-linecap:round;stroke-linejoin:round;stroke-miterlimit:4;stroke-dasharray:none;stroke-dashoffset:0;stroke-opacity:1"
       id="circle5155"
       cx="62.078888"
       cy="154.8862"
       r="9.4368057"
       transform="rotate(-30)" />
    <path
       id="path5159"
       d="m 33.695696,98.804207 0.004,0.0069 c -0.880589,1.646513 -3.202906,3.136503 -3.363701,3.346133 3.629032,5.68163 5.379371,5.77521 8.583166,5.69424 l 0.0035,0.006 c 0.0012,-0.002 0.002,-0.005 0.0041,-0.007 0.0022,-1.3e-4 0.005,6e-4 0.0081,-3e-5 l -0.0035,-0.006 c 1.672015,-2.73408 2.466145,-4.29671 -0.639773,-10.280355 -0.261937,0.03443 -2.713459,1.300631 -4.579678,1.239986 l -0.004,-0.0069 c -0.0012,0.0019 -0.0025,0.0037 -0.0041,0.007 -0.0022,1.34e-4 -0.0045,2.68e-4 -0.0081,3.6e-5 z"
       style="fill:none;fill-opacity:1;stroke:#0000ff;stroke-width:0.17638889;stroke-linecap:round;stroke-linejoin:round;stroke-miterlimit:4;stroke-dasharray:none;stroke-opacity:1"
       inkscape:connector-curvature="0" />
    <circle
       r="9.4368057"
       cy="107.3745"
       cx="-20.213774"
       id="circle5161"
       style="opacity:1;fill:none;fill-opacity:1;fill-rule:nonzero;stroke:#0000ff;stroke-width:0.17638892;stroke-linecap:round;stroke-linejoin:round;stroke-miterlimit:4;stroke-dasharray:none;stroke-dashoffset:0;stroke-opacity:1"
       transform="rotate(-30)" />
    <path
       inkscape:connector-curvature="0"
       style="fill:none;fill-opacity:1;stroke:#0000ff;stroke-width:0.17638889;stroke-linecap:round;stroke-linejoin:round;stroke-miterlimit:4;stroke-dasharray:none;stroke-opacity:1"
       d="m 33.695696,153.70751 0.004,0.007 c -0.880589,1.64651 -3.202905,3.1365 -3.363701,3.34613 3.629032,5.68163 5.379371,5.77521 8.583166,5.69424 l 0.0035,0.006 c 0.0012,-0.002 0.002,-0.005 0.0041,-0.007 0.0022,-1.3e-4 0.005,6e-4 0.0081,-3e-5 l -0.0035,-0.006 c 1.672014,-2.73408 2.466144,-4.29671 -0.639774,-10.28036 -0.261937,0.0344 -2.713459,1.30064 -4.579678,1.23999 l -0.004,-0.007 c -0.0012,0.002 -0.0025,0.004 -0.0041,0.007 -0.0022,1.3e-4 -0.0045,2.6e-4 -0.0081,3e-5 z"
       id="path5165" />
    <circle
       style="opacity:1;fill:none;fill-opacity:1;fill-rule:nonzero;stroke:#0000ff;stroke-width:0.17638892;stroke-linecap:round;stroke-linejoin:round;stroke-miterlimit:4;stroke-dasharray:none;stroke-dashoffset:0;stroke-opacity:1"
       id="circle5167"
       cx="-47.665424"
       cy="154.92216"
       r="9.4368057"
       transform="rotate(-30)" />
    <path
       id="path5171"
       d="m 128.71908,153.70751 0.004,0.007 c -0.88059,1.64651 -3.20291,3.1365 -3.36371,3.34613 3.62904,5.68163 5.37938,5.77521 8.58317,5.69424 l 0.004,0.006 c 0.001,-0.002 0.002,-0.005 0.004,-0.007 0.002,-1.3e-4 0.005,6e-4 0.008,-3e-5 l -0.004,-0.006 c 1.67201,-2.73408 2.46614,-4.29671 -0.63978,-10.28036 -0.26194,0.0344 -2.71346,1.30064 -4.57968,1.23999 l -0.004,-0.007 c -0.001,0.002 -0.002,0.004 -0.004,0.007 -0.002,1.3e-4 -0.004,2.6e-4 -0.008,3e-5 z"
       style="fill:none;fill-opacity:1;stroke:#0000ff;stroke-width:0.17638889;stroke-linecap:round;stroke-linejoin:round;stroke-miterlimit:4;stroke-dasharray:none;stroke-opacity:1"
       inkscape:connector-curvature="0" />
    <circle
       r="9.4368057"
       cy="202.43385"
       cx="34.627235"
       id="circle5173"
       style="opacity:1;fill:none;fill-opacity:1;fill-rule:nonzero;stroke:#0000ff;stroke-width:0.17638892;stroke-linecap:round;stroke-linejoin:round;stroke-miterlimit:4;stroke-dasharray:none;stroke-dashoffset:0;stroke-opacity:1"
       transform="rotate(-30)" />
    <path
       id="path5177"
       d="m 128.71907,208.51406 0.004,0.007 c -0.88059,1.64652 -3.2029,3.13651 -3.3637,3.34614 3.62903,5.68163 5.37937,5.77521 8.58317,5.69424 l 0.004,0.006 c 0.001,-0.002 0.002,-0.005 0.004,-0.007 0.002,-1.3e-4 0.005,6e-4 0.008,-3e-5 l -0.004,-0.006 c 1.67202,-2.73408 2.46615,-4.29671 -0.63977,-10.28036 -0.26194,0.0344 -2.71346,1.30063 -4.57968,1.23999 l -0.004,-0.007 c -0.001,0.002 -0.002,0.004 -0.004,0.007 -0.002,1.4e-4 -0.004,2.7e-4 -0.008,4e-5 z"
       style="fill:none;fill-opacity:1;stroke:#0000ff;stroke-width:0.17638889;stroke-linecap:round;stroke-linejoin:round;stroke-miterlimit:4;stroke-dasharray:none;stroke-opacity:1"
       inkscape:connector-curvature="0" />
    <circle
       r="9.4368057"
       cy="249.89771"
       cx="7.2239599"
       id="circle5179"
       style="opacity:1;fill:none;fill-opacity:1;fill-rule:nonzero;stroke:#0000ff;stroke-width:0.17638892;stroke-linecap:round;stroke-linejoin:round;stroke-miterlimit:4;stroke-dasharray:none;stroke-dashoffset:0;stroke-opacity:1"
       transform="rotate(-30)" />
    <path
       inkscape:connector-curvature="0"
       style="fill:none;fill-opacity:1;stroke:#0000ff;stroke-width:0.17638889;stroke-linecap:round;stroke-linejoin:round;stroke-miterlimit:4;stroke-dasharray:none;stroke-opacity:1"
       d="m 128.71908,263.32061 0.004,0.007 c -0.88059,1.64651 -3.20291,3.1365 -3.36371,3.34613 3.62904,5.68163 5.37938,5.77521 8.58317,5.69424 l 0.004,0.006 c 0.001,-0.002 0.002,-0.005 0.004,-0.007 0.002,-1.3e-4 0.005,6e-4 0.008,-3e-5 l -0.004,-0.006 c 1.67201,-2.73408 2.46614,-4.29671 -0.63978,-10.28036 -0.26194,0.0344 -2.71346,1.30064 -4.57968,1.23999 l -0.004,-0.007 c -0.001,0.002 -0.002,0.004 -0.004,0.007 -0.002,1.3e-4 -0.004,2.6e-4 -0.008,3e-5 z"
       id="path5183" />
    <circle
       style="opacity:1;fill:none;fill-opacity:1;fill-rule:nonzero;stroke:#0000ff;stroke-width:0.17638892;stroke-linecap:round;stroke-linejoin:round;stroke-miterlimit:4;stroke-dasharray:none;stroke-dashoffset:0;stroke-opacity:1"
       id="circle5185"
       cx="-20.179314"
       cy="297.36157"
       r="9.4368057"
       transform="rotate(-30)" />
    <path
       id="path5189"
       d="m 33.695693,208.51406 0.004,0.007 c -0.880589,1.64652 -3.202906,3.13651 -3.363701,3.34614 3.629032,5.68163 5.379371,5.77521 8.583166,5.69424 l 0.0035,0.006 c 0.0012,-0.002 0.002,-0.005 0.0041,-0.007 0.0022,-1.3e-4 0.005,6e-4 0.0081,-4e-5 l -0.0035,-0.006 c 1.672015,-2.73408 2.466145,-4.29671 -0.639773,-10.28036 -0.261937,0.0344 -2.713459,1.30063 -4.579678,1.23999 l -0.004,-0.007 c -0.0012,0.002 -0.0025,0.004 -0.0041,0.007 -0.0022,1.4e-4 -0.0045,2.7e-4 -0.0081,4e-5 z"
       style="fill:none;fill-opacity:1;stroke:#0000ff;stroke-width:0.17638889;stroke-linecap:round;stroke-linejoin:round;stroke-miterlimit:4;stroke-dasharray:none;stroke-opacity:1"
       inkscape:connector-curvature="0" />
    <circle
       r="9.4368057"
       cy="202.38602"
       cx="-75.068703"
       id="circle5191"
       style="opacity:1;fill:none;fill-opacity:1;fill-rule:nonzero;stroke:#0000ff;stroke-width:0.17638892;stroke-linecap:round;stroke-linejoin:round;stroke-miterlimit:4;stroke-dasharray:none;stroke-dashoffset:0;stroke-opacity:1"
       transform="rotate(-30)" />
    <path
       inkscape:connector-curvature="0"
       style="fill:none;fill-opacity:1;stroke:#0000ff;stroke-width:0.17638889;stroke-linecap:round;stroke-linejoin:round;stroke-miterlimit:4;stroke-dasharray:none;stroke-opacity:1"
       d="m 33.695695,263.05335 0.004,0.007 c -0.880588,1.64652 -3.202905,3.13651 -3.363701,3.34614 3.629032,5.68163 5.379372,5.77521 8.583166,5.69424 l 0.0035,0.006 c 0.0012,-0.002 0.002,-0.005 0.0041,-0.007 0.0022,-1.3e-4 0.005,6e-4 0.0081,-4e-5 l -0.0035,-0.006 c 1.672015,-2.73408 2.466144,-4.29671 -0.639774,-10.28036 -0.261937,0.0344 -2.713459,1.30063 -4.579677,1.23999 l -0.004,-0.007 c -0.0012,0.002 -0.0025,0.004 -0.0041,0.007 -0.0022,1.4e-4 -0.0045,2.7e-4 -0.0081,4e-5 z"
       id="path5195" />
    <circle
       style="opacity:1;fill:none;fill-opacity:1;fill-rule:nonzero;stroke:#0000ff;stroke-width:0.17638892;stroke-linecap:round;stroke-linejoin:round;stroke-miterlimit:4;stroke-dasharray:none;stroke-dashoffset:0;stroke-opacity:1"
       id="circle5197"
       cx="-102.33834"
       cy="249.61844"
       r="9.4368057"
       transform="rotate(-30)" />
    <path
       id="path5201"
       d="m 223.68559,208.51406 0.004,0.007 c -0.88059,1.64652 -3.2029,3.13651 -3.3637,3.34614 3.62903,5.68163 5.37937,5.77521 8.58317,5.69424 l 0.004,0.006 c 0.001,-0.002 0.002,-0.005 0.004,-0.007 0.002,-1.3e-4 0.005,6e-4 0.008,-4e-5 l -0.004,-0.006 c 1.67202,-2.73408 2.46615,-4.29671 -0.63977,-10.28036 -0.26194,0.0344 -2.71346,1.30063 -4.57968,1.23999 l -0.004,-0.007 c -0.001,0.002 -0.002,0.004 -0.004,0.007 -0.002,1.4e-4 -0.004,2.7e-4 -0.008,4e-5 z"
       style="fill:none;fill-opacity:1;stroke:#0000ff;stroke-width:0.17638889;stroke-linecap:round;stroke-linejoin:round;stroke-miterlimit:4;stroke-dasharray:none;stroke-opacity:1"
       inkscape:connector-curvature="0" />
    <circle
       r="9.4368057"
       cy="297.38098"
       cx="89.467377"
       id="circle5203"
       style="opacity:1;fill:none;fill-opacity:1;fill-rule:nonzero;stroke:#0000ff;stroke-width:0.17638892;stroke-linecap:round;stroke-linejoin:round;stroke-miterlimit:4;stroke-dasharray:none;stroke-dashoffset:0;stroke-opacity:1"
       transform="rotate(-30)" />
    <path
       inkscape:connector-curvature="0"
       style="fill:none;fill-opacity:1;stroke:#0000ff;stroke-width:0.17638889;stroke-linecap:round;stroke-linejoin:round;stroke-miterlimit:4;stroke-dasharray:none;stroke-opacity:1"
       d="m 223.6856,263.32061 0.004,0.007 c -0.88059,1.64651 -3.20291,3.1365 -3.36371,3.34613 3.62904,5.68163 5.37938,5.77521 8.58317,5.69424 l 0.004,0.006 c 0.001,-0.002 0.002,-0.005 0.004,-0.007 0.002,-1.3e-4 0.005,6e-4 0.008,-3e-5 l -0.004,-0.006 c 1.67201,-2.73408 2.46614,-4.29671 -0.63978,-10.28036 -0.26194,0.0344 -2.71346,1.30064 -4.57968,1.23999 l -0.004,-0.007 c -0.001,0.002 -0.002,0.004 -0.004,0.007 -0.002,1.3e-4 -0.004,2.6e-4 -0.008,3e-5 z"
       id="path5207" />
    <circle
       style="opacity:1;fill:none;fill-opacity:1;fill-rule:nonzero;stroke:#0000ff;stroke-width:0.17638892;stroke-linecap:round;stroke-linejoin:round;stroke-miterlimit:4;stroke-dasharray:none;stroke-dashoffset:0;stroke-opacity:1"
       id="circle5209"
       cx="62.064106"
       cy="344.84485"
       r="9.4368057"
       transform="rotate(-30)" />
    <path
       inkscape:connector-curvature="0"
       style="fill:none;fill-opacity:1;stroke:#0000ff;stroke-width:0.17638889;stroke-linecap:round;stroke-linejoin:round;stroke-miterlimit:4;stroke-dasharray:none;stroke-opacity:1"
       d="m 176.05012,127.53568 0.004,0.007 c -0.88059,1.64651 -3.2029,3.1365 -3.3637,3.34614 3.62903,5.68163 5.37937,5.7752 8.58317,5.69424 l 0.003,0.006 c 0.001,-0.002 0.002,-0.005 0.004,-0.007 0.002,-1.4e-4 0.005,5.9e-4 0.008,-4e-5 l -0.004,-0.006 c 1.67202,-2.73409 2.46615,-4.29671 -0.63977,-10.28036 -0.26194,0.0344 -2.71346,1.30063 -4.57968,1.23998 l -0.004,-0.007 c -0.001,0.002 -0.002,0.004 -0.004,0.007 -0.002,1.3e-4 -0.004,2.7e-4 -0.008,3e-5 z"
       id="path5219" />
    <circle
       style="opacity:1;fill:none;fill-opacity:1;fill-rule:nonzero;stroke:#0000ff;stroke-width:0.17638892;stroke-linecap:round;stroke-linejoin:round;stroke-miterlimit:4;stroke-dasharray:none;stroke-dashoffset:0;stroke-opacity:1"
       id="circle5221"
       cx="88.703041"
       cy="203.43391"
       r="9.4368057"
       transform="rotate(-30)" />
    <path
       id="path5225"
       d="m 176.05013,181.08982 0.004,0.007 c -0.88059,1.64651 -3.20291,3.1365 -3.3637,3.34613 3.62903,5.68163 5.37937,5.77521 8.58316,5.69424 l 0.003,0.006 c 0.001,-0.002 0.002,-0.005 0.004,-0.007 0.002,-1.3e-4 0.005,6e-4 0.008,-3e-5 l -0.004,-0.006 c 1.67201,-2.73408 2.46614,-4.29671 -0.63978,-10.28036 -0.26193,0.0344 -2.71346,1.30063 -4.57967,1.23999 l -0.004,-0.007 c -0.001,0.002 -0.002,0.004 -0.004,0.007 -0.002,1.4e-4 -0.004,2.7e-4 -0.008,4e-5 z"
       style="fill:none;fill-opacity:1;stroke:#0000ff;stroke-width:0.17638889;stroke-linecap:round;stroke-linejoin:round;stroke-miterlimit:4;stroke-dasharray:none;stroke-opacity:1"
       inkscape:connector-curvature="0" />
    <circle
       r="9.4368057"
       cy="249.81316"
       cx="61.925976"
       id="circle5227"
       style="opacity:1;fill:none;fill-opacity:1;fill-rule:nonzero;stroke:#0000ff;stroke-width:0.17638892;stroke-linecap:round;stroke-linejoin:round;stroke-miterlimit:4;stroke-dasharray:none;stroke-dashoffset:0;stroke-opacity:1"
       transform="rotate(-30)" />
    <path
       inkscape:connector-curvature="0"
       style="fill:none;fill-opacity:1;stroke:#0000ff;stroke-width:0.17638889;stroke-linecap:round;stroke-linejoin:round;stroke-miterlimit:4;stroke-dasharray:none;stroke-opacity:1"
       d="m 176.05013,236.15357 0.004,0.007 c -0.88059,1.64651 -3.20291,3.1365 -3.36371,3.34614 3.62904,5.68162 5.37938,5.7752 8.58317,5.69424 l 0.003,0.006 c 0.001,-0.002 0.002,-0.005 0.004,-0.007 0.002,-1.3e-4 0.005,6e-4 0.008,-3e-5 l -0.004,-0.006 c 1.67202,-2.73409 2.46615,-4.29672 -0.63977,-10.28036 -0.26194,0.0344 -2.71346,1.30063 -4.57968,1.23998 l -0.004,-0.007 c -0.001,0.002 -0.002,0.004 -0.004,0.007 -0.002,1.3e-4 -0.004,2.7e-4 -0.008,3e-5 z"
       id="path5231" />
    <circle
       style="opacity:1;fill:none;fill-opacity:1;fill-rule:nonzero;stroke:#0000ff;stroke-width:0.17638892;stroke-linecap:round;stroke-linejoin:round;stroke-miterlimit:4;stroke-dasharray:none;stroke-dashoffset:0;stroke-opacity:1"
       id="circle5233"
       cx="34.394096"
       cy="297.49976"
       r="9.4368057"
       transform="rotate(-30)" />
    <path
       id="path5237"
       d="m 81.141315,236.15357 0.004,0.007 c -0.880589,1.64652 -3.202906,3.13651 -3.363702,3.34614 3.629032,5.68163 5.379372,5.77521 8.583167,5.69424 l 0.0035,0.006 c 0.0012,-0.002 0.002,-0.005 0.0041,-0.007 0.0022,-1.3e-4 0.005,6e-4 0.0081,-3e-5 l -0.0035,-0.006 c 1.672015,-2.73408 2.466145,-4.29671 -0.639773,-10.28036 -0.261938,0.0344 -2.71346,1.30063 -4.579678,1.23999 l -0.004,-0.007 c -0.0012,0.002 -0.0025,0.004 -0.0041,0.007 -0.0022,1.4e-4 -0.0045,2.7e-4 -0.0081,4e-5 z"
       style="fill:none;fill-opacity:1;stroke:#0000ff;stroke-width:0.17638889;stroke-linecap:round;stroke-linejoin:round;stroke-miterlimit:4;stroke-dasharray:none;stroke-opacity:1"
       inkscape:connector-curvature="0" />
    <circle
       r="9.4368057"
       cy="250.04535"
       cx="-47.799343"
       id="circle5239"
       style="opacity:1;fill:none;fill-opacity:1;fill-rule:nonzero;stroke:#0000ff;stroke-width:0.17638892;stroke-linecap:round;stroke-linejoin:round;stroke-miterlimit:4;stroke-dasharray:none;stroke-dashoffset:0;stroke-opacity:1"
       transform="rotate(-30)" />
    <path
       inkscape:connector-curvature="0"
       style="fill:none;fill-opacity:1;stroke:#0000ff;stroke-width:0.17638889;stroke-linecap:round;stroke-linejoin:round;stroke-miterlimit:4;stroke-dasharray:none;stroke-opacity:1"
       d="m 81.141317,181.08981 0.004,0.007 c -0.880589,1.64652 -3.202906,3.13651 -3.363702,3.34614 3.629032,5.68163 5.379372,5.77521 8.583167,5.69424 l 0.0035,0.006 c 0.0012,-0.002 0.002,-0.005 0.0041,-0.007 0.0022,-1.3e-4 0.005,6e-4 0.0081,-4e-5 l -0.0035,-0.006 c 1.672015,-2.73408 2.466145,-4.29671 -0.639773,-10.28036 -0.261938,0.0344 -2.713459,1.30063 -4.579678,1.23999 l -0.004,-0.007 c -0.0012,0.002 -0.0025,0.004 -0.0041,0.007 -0.0022,1.4e-4 -0.0045,2.7e-4 -0.0081,4e-5 z"
       id="path5243" />
    <circle
       style="opacity:1;fill:none;fill-opacity:1;fill-rule:nonzero;stroke:#0000ff;stroke-width:0.17638892;stroke-linecap:round;stroke-linejoin:round;stroke-miterlimit:4;stroke-dasharray:none;stroke-dashoffset:0;stroke-opacity:1"
       id="circle5245"
       cx="-20.267464"
       cy="202.35875"
       r="9.4368057"
       transform="rotate(-30)" />
    <path
       id="path5249"
       d="m 81.141315,126.39979 0.004,0.007 c -0.880589,1.64651 -3.202906,3.1365 -3.363701,3.34613 3.629032,5.68163 5.379371,5.77521 8.583166,5.69424 l 0.0035,0.006 c 0.0012,-0.002 0.002,-0.005 0.0041,-0.007 0.0022,-1.3e-4 0.005,6e-4 0.0081,-3e-5 l -0.0035,-0.006 c 1.672015,-2.73408 2.466145,-4.29671 -0.639773,-10.28036 -0.261937,0.0344 -2.713459,1.30064 -4.579678,1.23999 l -0.004,-0.007 c -0.0012,0.002 -0.0025,0.004 -0.0041,0.007 -0.0022,1.3e-4 -0.0045,2.6e-4 -0.0081,3e-5 z"
       style="fill:none;fill-opacity:1;stroke:#0000ff;stroke-width:0.17638889;stroke-linecap:round;stroke-linejoin:round;stroke-miterlimit:4;stroke-dasharray:none;stroke-opacity:1"
       inkscape:connector-curvature="0" />
    <circle
       r="9.4368057"
       cy="154.99579"
       cx="7.0775476"
       id="circle5251"
       style="opacity:1;fill:none;fill-opacity:1;fill-rule:nonzero;stroke:#0000ff;stroke-width:0.17638892;stroke-linecap:round;stroke-linejoin:round;stroke-miterlimit:4;stroke-dasharray:none;stroke-dashoffset:0;stroke-opacity:1"
       transform="rotate(-30)" />
    <path
       sodipodi:type="star"
       style="opacity:1;fill:none;fill-opacity:1;fill-rule:nonzero;stroke:#ff0000;stroke-width:0.53917009;stroke-linecap:round;stroke-linejoin:round;stroke-miterlimit:4;stroke-dasharray:none;stroke-dashoffset:0;stroke-opacity:1"
       id="path4887"
       sodipodi:sides="6"
       sodipodi:cx="58.799297"
       sodipodi:cy="42.024853"
       sodipodi:r1="21.818102"
       sodipodi:r2="10.909051"
       sodipodi:arg1="0.52359878"
       sodipodi:arg2="1.0471976"
       inkscape:flatsided="true"
       inkscape:rounded="0"
       inkscape:randomized="0"
       d="m 77.694328,52.933904 -18.895031,10.909051 -18.89503,-10.909051 0,-21.818102 18.89503,-10.909051 18.895031,10.909051 z"
       inkscape:transform-center-y="-1.7867195"
       transform="matrix(0.326732,0,0,0.32756634,-6.555501,13.653096)" />
    <path
       transform="matrix(0.326732,0,0,0.32756634,6.6845928,13.76716)"
       inkscape:transform-center-y="-1.7867195"
       d="m 77.694328,52.933904 -18.895031,10.909051 -18.89503,-10.909051 0,-21.818102 18.89503,-10.909051 18.895031,10.909051 z"
       inkscape:randomized="0"
       inkscape:rounded="0"
       inkscape:flatsided="true"
       sodipodi:arg2="1.0471976"
       sodipodi:arg1="0.52359878"
       sodipodi:r2="10.909051"
       sodipodi:r1="21.818102"
       sodipodi:cy="42.024853"
       sodipodi:cx="58.799297"
       sodipodi:sides="6"
       id="path4889"
       style="opacity:1;fill:none;fill-opacity:1;fill-rule:nonzero;stroke:#ff0000;stroke-width:0.53917009;stroke-linecap:round;stroke-linejoin:round;stroke-miterlimit:4;stroke-dasharray:none;stroke-dashoffset:0;stroke-opacity:1"
       sodipodi:type="star" />
    <path
       transform="matrix(0.326732,0,0,0.32756634,19.924686,13.653096)"
       inkscape:transform-center-y="-1.7867195"
       d="m 77.694328,52.933904 -18.895031,10.909051 -18.89503,-10.909051 0,-21.818102 18.89503,-10.909051 18.895031,10.909051 z"
       inkscape:randomized="0"
       inkscape:rounded="0"
       inkscape:flatsided="true"
       sodipodi:arg2="1.0471976"
       sodipodi:arg1="0.52359878"
       sodipodi:r2="10.909051"
       sodipodi:r1="21.818102"
       sodipodi:cy="42.024853"
       sodipodi:cx="58.799297"
       sodipodi:sides="6"
       id="path4891"
       style="opacity:1;fill:none;fill-opacity:1;fill-rule:nonzero;stroke:#ff0000;stroke-width:0.53917009;stroke-linecap:round;stroke-linejoin:round;stroke-miterlimit:4;stroke-dasharray:none;stroke-dashoffset:0;stroke-opacity:1"
       sodipodi:type="star" />
    <path
       sodipodi:type="star"
       style="opacity:1;fill:none;fill-opacity:1;fill-rule:nonzero;stroke:#ff0000;stroke-width:0.53917009;stroke-linecap:round;stroke-linejoin:round;stroke-miterlimit:4;stroke-dasharray:none;stroke-dashoffset:0;stroke-opacity:1"
       id="path4893"
       sodipodi:sides="6"
       sodipodi:cx="58.799297"
       sodipodi:cy="42.024853"
       sodipodi:r1="21.818102"
       sodipodi:r2="10.909051"
       sodipodi:arg1="0.52359878"
       sodipodi:arg2="1.0471976"
       inkscape:flatsided="true"
       inkscape:rounded="0"
       inkscape:randomized="0"
       d="m 77.694328,52.933904 -18.895031,10.909051 -18.89503,-10.909051 0,-21.818102 18.89503,-10.909051 18.895031,10.909051 z"
       inkscape:transform-center-y="-1.7867195"
       transform="matrix(0.326732,0,0,0.32756634,33.164782,13.76716)" />
    <path
       sodipodi:type="star"
       style="opacity:1;fill:none;fill-opacity:1;fill-rule:nonzero;stroke:#ff0000;stroke-width:0.53917009;stroke-linecap:round;stroke-linejoin:round;stroke-miterlimit:4;stroke-dasharray:none;stroke-dashoffset:0;stroke-opacity:1"
       id="path4895"
       sodipodi:sides="6"
       sodipodi:cx="58.799297"
       sodipodi:cy="42.024853"
       sodipodi:r1="21.818102"
       sodipodi:r2="10.909051"
       sodipodi:arg1="0.52359878"
       sodipodi:arg2="1.0471976"
       inkscape:flatsided="true"
       inkscape:rounded="0"
       inkscape:randomized="0"
       d="m 77.694328,52.933904 -18.895031,10.909051 -18.89503,-10.909051 0,-21.818102 18.89503,-10.909051 18.895031,10.909051 z"
       inkscape:transform-center-y="-1.7867195"
       transform="matrix(0.326732,0,0,0.32756634,46.404875,13.653096)" />
    <path
       transform="matrix(0.326732,0,0,0.32756634,59.644962,13.76716)"
       inkscape:transform-center-y="-1.7867195"
       d="m 77.694328,52.933904 -18.895031,10.909051 -18.89503,-10.909051 0,-21.818102 18.89503,-10.909051 18.895031,10.909051 z"
       inkscape:randomized="0"
       inkscape:rounded="0"
       inkscape:flatsided="true"
       sodipodi:arg2="1.0471976"
       sodipodi:arg1="0.52359878"
       sodipodi:r2="10.909051"
       sodipodi:r1="21.818102"
       sodipodi:cy="42.024853"
       sodipodi:cx="58.799297"
       sodipodi:sides="6"
       id="path4897"
       style="opacity:1;fill:none;fill-opacity:1;fill-rule:nonzero;stroke:#ff0000;stroke-width:0.53917009;stroke-linecap:round;stroke-linejoin:round;stroke-miterlimit:4;stroke-dasharray:none;stroke-dashoffset:0;stroke-opacity:1"
       sodipodi:type="star" />
    <path
       transform="matrix(0.326732,0,0,0.32756634,72.885064,13.653096)"
       inkscape:transform-center-y="-1.7867195"
       d="m 77.694328,52.933904 -18.895031,10.909051 -18.89503,-10.909051 0,-21.818102 18.89503,-10.909051 18.895031,10.909051 z"
       inkscape:randomized="0"
       inkscape:rounded="0"
       inkscape:flatsided="true"
       sodipodi:arg2="1.0471976"
       sodipodi:arg1="0.52359878"
       sodipodi:r2="10.909051"
       sodipodi:r1="21.818102"
       sodipodi:cy="42.024853"
       sodipodi:cx="58.799297"
       sodipodi:sides="6"
       id="path4899"
       style="opacity:1;fill:none;fill-opacity:1;fill-rule:nonzero;stroke:#ff0000;stroke-width:0.53917009;stroke-linecap:round;stroke-linejoin:round;stroke-miterlimit:4;stroke-dasharray:none;stroke-dashoffset:0;stroke-opacity:1"
       sodipodi:type="star" />
    <path
       sodipodi:type="star"
       style="opacity:1;fill:none;fill-opacity:1;fill-rule:nonzero;stroke:#ff0000;stroke-width:0.53917009;stroke-linecap:round;stroke-linejoin:round;stroke-miterlimit:4;stroke-dasharray:none;stroke-dashoffset:0;stroke-opacity:1"
       id="path4901"
       sodipodi:sides="6"
       sodipodi:cx="58.799297"
       sodipodi:cy="42.024853"
       sodipodi:r1="21.818102"
       sodipodi:r2="10.909051"
       sodipodi:arg1="0.52359878"
       sodipodi:arg2="1.0471976"
       inkscape:flatsided="true"
       inkscape:rounded="0"
       inkscape:randomized="0"
       d="m 77.694328,52.933904 -18.895031,10.909051 -18.89503,-10.909051 0,-21.818102 18.89503,-10.909051 18.895031,10.909051 z"
       inkscape:transform-center-y="-1.7867195"
       transform="matrix(0.326732,0,0,0.32756634,86.125151,13.76716)" />
    <path
       sodipodi:type="star"
       style="opacity:1;fill:none;fill-opacity:1;fill-rule:nonzero;stroke:#ff0000;stroke-width:0.53917009;stroke-linecap:round;stroke-linejoin:round;stroke-miterlimit:4;stroke-dasharray:none;stroke-dashoffset:0;stroke-opacity:1"
       id="path4903"
       sodipodi:sides="6"
       sodipodi:cx="58.799297"
       sodipodi:cy="42.024853"
       sodipodi:r1="21.818102"
       sodipodi:r2="10.909051"
       sodipodi:arg1="0.52359878"
       sodipodi:arg2="1.0471976"
       inkscape:flatsided="true"
       inkscape:rounded="0"
       inkscape:randomized="0"
       d="m 77.694328,52.933904 -18.895031,10.909051 -18.89503,-10.909051 0,-21.818102 18.89503,-10.909051 18.895031,10.909051 z"
       inkscape:transform-center-y="-1.7867195"
       transform="matrix(0.326732,0,0,0.32756634,99.365243,13.653096)" />
    <path
       transform="matrix(0.326732,0,0,0.32756634,112.60533,13.76716)"
       inkscape:transform-center-y="-1.7867195"
       d="m 77.694328,52.933904 -18.895031,10.909051 -18.89503,-10.909051 0,-21.818102 18.89503,-10.909051 18.895031,10.909051 z"
       inkscape:randomized="0"
       inkscape:rounded="0"
       inkscape:flatsided="true"
       sodipodi:arg2="1.0471976"
       sodipodi:arg1="0.52359878"
       sodipodi:r2="10.909051"
       sodipodi:r1="21.818102"
       sodipodi:cy="42.024853"
       sodipodi:cx="58.799297"
       sodipodi:sides="6"
       id="path4905"
       style="opacity:1;fill:none;fill-opacity:1;fill-rule:nonzero;stroke:#ff0000;stroke-width:0.53917009;stroke-linecap:round;stroke-linejoin:round;stroke-miterlimit:4;stroke-dasharray:none;stroke-dashoffset:0;stroke-opacity:1"
       sodipodi:type="star" />
    <path
       transform="matrix(0.326732,0,0,0.32756634,125.84544,13.653096)"
       inkscape:transform-center-y="-1.7867195"
       d="m 77.694328,52.933904 -18.895031,10.909051 -18.89503,-10.909051 0,-21.818102 18.89503,-10.909051 18.895031,10.909051 z"
       inkscape:randomized="0"
       inkscape:rounded="0"
       inkscape:flatsided="true"
       sodipodi:arg2="1.0471976"
       sodipodi:arg1="0.52359878"
       sodipodi:r2="10.909051"
       sodipodi:r1="21.818102"
       sodipodi:cy="42.024853"
       sodipodi:cx="58.799297"
       sodipodi:sides="6"
       id="path4907"
       style="opacity:1;fill:none;fill-opacity:1;fill-rule:nonzero;stroke:#ff0000;stroke-width:0.53917009;stroke-linecap:round;stroke-linejoin:round;stroke-miterlimit:4;stroke-dasharray:none;stroke-dashoffset:0;stroke-opacity:1"
       sodipodi:type="star" />
    <path
       sodipodi:type="star"
       style="opacity:1;fill:none;fill-opacity:1;fill-rule:nonzero;stroke:#ff0000;stroke-width:0.53917009;stroke-linecap:round;stroke-linejoin:round;stroke-miterlimit:4;stroke-dasharray:none;stroke-dashoffset:0;stroke-opacity:1"
       id="path4909"
       sodipodi:sides="6"
       sodipodi:cx="58.799297"
       sodipodi:cy="42.024853"
       sodipodi:r1="21.818102"
       sodipodi:r2="10.909051"
       sodipodi:arg1="0.52359878"
       sodipodi:arg2="1.0471976"
       inkscape:flatsided="true"
       inkscape:rounded="0"
       inkscape:randomized="0"
       d="m 77.694328,52.933904 -18.895031,10.909051 -18.89503,-10.909051 0,-21.818102 18.89503,-10.909051 18.895031,10.909051 z"
       inkscape:transform-center-y="-1.7867195"
       transform="matrix(0.326732,0,0,0.32756634,139.08554,13.76716)" />
    <path
       transform="matrix(0.326732,0,0,0.32756634,-0.40830183,25.947494)"
       inkscape:transform-center-y="-1.7867195"
       d="m 77.694328,52.933904 -18.895031,10.909051 -18.89503,-10.909051 0,-21.818102 18.89503,-10.909051 18.895031,10.909051 z"
       inkscape:randomized="0"
       inkscape:rounded="0"
       inkscape:flatsided="true"
       sodipodi:arg2="1.0471976"
       sodipodi:arg1="0.52359878"
       sodipodi:r2="10.909051"
       sodipodi:r1="21.818102"
       sodipodi:cy="42.024853"
       sodipodi:cx="58.799297"
       sodipodi:sides="6"
       id="path4911"
       style="opacity:1;fill:none;fill-opacity:1;fill-rule:nonzero;stroke:#ff0000;stroke-width:0.53917009;stroke-linecap:round;stroke-linejoin:round;stroke-miterlimit:4;stroke-dasharray:none;stroke-dashoffset:0;stroke-opacity:1"
       sodipodi:type="star" />
    <path
       sodipodi:type="star"
       style="opacity:1;fill:none;fill-opacity:1;fill-rule:nonzero;stroke:#ff0000;stroke-width:0.53917009;stroke-linecap:round;stroke-linejoin:round;stroke-miterlimit:4;stroke-dasharray:none;stroke-dashoffset:0;stroke-opacity:1"
       id="path4913"
       sodipodi:sides="6"
       sodipodi:cx="58.799297"
       sodipodi:cy="42.024853"
       sodipodi:r1="21.818102"
       sodipodi:r2="10.909051"
       sodipodi:arg1="0.52359878"
       sodipodi:arg2="1.0471976"
       inkscape:flatsided="true"
       inkscape:rounded="0"
       inkscape:randomized="0"
       d="m 77.694328,52.933904 -18.895031,10.909051 -18.89503,-10.909051 0,-21.818102 18.89503,-10.909051 18.895031,10.909051 z"
       inkscape:transform-center-y="-1.7867195"
       transform="matrix(0.326732,0,0,0.32756634,12.831792,26.061558)" />
    <path
       sodipodi:type="star"
       style="opacity:1;fill:none;fill-opacity:1;fill-rule:nonzero;stroke:#ff0000;stroke-width:0.53917009;stroke-linecap:round;stroke-linejoin:round;stroke-miterlimit:4;stroke-dasharray:none;stroke-dashoffset:0;stroke-opacity:1"
       id="path4915"
       sodipodi:sides="6"
       sodipodi:cx="58.799297"
       sodipodi:cy="42.024853"
       sodipodi:r1="21.818102"
       sodipodi:r2="10.909051"
       sodipodi:arg1="0.52359878"
       sodipodi:arg2="1.0471976"
       inkscape:flatsided="true"
       inkscape:rounded="0"
       inkscape:randomized="0"
       d="m 77.694328,52.933904 -18.895031,10.909051 -18.89503,-10.909051 0,-21.818102 18.89503,-10.909051 18.895031,10.909051 z"
       inkscape:transform-center-y="-1.7867195"
       transform="matrix(0.326732,0,0,0.32756634,26.071885,25.947494)" />
    <path
       transform="matrix(0.326732,0,0,0.32756634,39.311981,26.061558)"
       inkscape:transform-center-y="-1.7867195"
       d="m 77.694328,52.933904 -18.895031,10.909051 -18.89503,-10.909051 0,-21.818102 18.89503,-10.909051 18.895031,10.909051 z"
       inkscape:randomized="0"
       inkscape:rounded="0"
       inkscape:flatsided="true"
       sodipodi:arg2="1.0471976"
       sodipodi:arg1="0.52359878"
       sodipodi:r2="10.909051"
       sodipodi:r1="21.818102"
       sodipodi:cy="42.024853"
       sodipodi:cx="58.799297"
       sodipodi:sides="6"
       id="path4917"
       style="opacity:1;fill:none;fill-opacity:1;fill-rule:nonzero;stroke:#ff0000;stroke-width:0.53917009;stroke-linecap:round;stroke-linejoin:round;stroke-miterlimit:4;stroke-dasharray:none;stroke-dashoffset:0;stroke-opacity:1"
       sodipodi:type="star" />
    <path
       transform="matrix(0.326732,0,0,0.32756634,52.552074,25.947494)"
       inkscape:transform-center-y="-1.7867195"
       d="m 77.694328,52.933904 -18.895031,10.909051 -18.89503,-10.909051 0,-21.818102 18.89503,-10.909051 18.895031,10.909051 z"
       inkscape:randomized="0"
       inkscape:rounded="0"
       inkscape:flatsided="true"
       sodipodi:arg2="1.0471976"
       sodipodi:arg1="0.52359878"
       sodipodi:r2="10.909051"
       sodipodi:r1="21.818102"
       sodipodi:cy="42.024853"
       sodipodi:cx="58.799297"
       sodipodi:sides="6"
       id="path4919"
       style="opacity:1;fill:none;fill-opacity:1;fill-rule:nonzero;stroke:#ff0000;stroke-width:0.53917009;stroke-linecap:round;stroke-linejoin:round;stroke-miterlimit:4;stroke-dasharray:none;stroke-dashoffset:0;stroke-opacity:1"
       sodipodi:type="star" />
    <path
       sodipodi:type="star"
       style="opacity:1;fill:none;fill-opacity:1;fill-rule:nonzero;stroke:#ff0000;stroke-width:0.53917009;stroke-linecap:round;stroke-linejoin:round;stroke-miterlimit:4;stroke-dasharray:none;stroke-dashoffset:0;stroke-opacity:1"
       id="path4921"
       sodipodi:sides="6"
       sodipodi:cx="58.799297"
       sodipodi:cy="42.024853"
       sodipodi:r1="21.818102"
       sodipodi:r2="10.909051"
       sodipodi:arg1="0.52359878"
       sodipodi:arg2="1.0471976"
       inkscape:flatsided="true"
       inkscape:rounded="0"
       inkscape:randomized="0"
       d="m 77.694328,52.933904 -18.895031,10.909051 -18.89503,-10.909051 0,-21.818102 18.89503,-10.909051 18.895031,10.909051 z"
       inkscape:transform-center-y="-1.7867195"
       transform="matrix(0.326732,0,0,0.32756634,65.792161,26.061558)" />
    <path
       sodipodi:type="star"
       style="opacity:1;fill:none;fill-opacity:1;fill-rule:nonzero;stroke:#ff0000;stroke-width:0.53917009;stroke-linecap:round;stroke-linejoin:round;stroke-miterlimit:4;stroke-dasharray:none;stroke-dashoffset:0;stroke-opacity:1"
       id="path4923"
       sodipodi:sides="6"
       sodipodi:cx="58.799297"
       sodipodi:cy="42.024853"
       sodipodi:r1="21.818102"
       sodipodi:r2="10.909051"
       sodipodi:arg1="0.52359878"
       sodipodi:arg2="1.0471976"
       inkscape:flatsided="true"
       inkscape:rounded="0"
       inkscape:randomized="0"
       d="m 77.694328,52.933904 -18.895031,10.909051 -18.89503,-10.909051 0,-21.818102 18.89503,-10.909051 18.895031,10.909051 z"
       inkscape:transform-center-y="-1.7867195"
       transform="matrix(0.326732,0,0,0.32756634,79.032263,25.947494)" />
    <path
       transform="matrix(0.326732,0,0,0.32756634,92.27235,26.061558)"
       inkscape:transform-center-y="-1.7867195"
       d="m 77.694328,52.933904 -18.895031,10.909051 -18.89503,-10.909051 0,-21.818102 18.89503,-10.909051 18.895031,10.909051 z"
       inkscape:randomized="0"
       inkscape:rounded="0"
       inkscape:flatsided="true"
       sodipodi:arg2="1.0471976"
       sodipodi:arg1="0.52359878"
       sodipodi:r2="10.909051"
       sodipodi:r1="21.818102"
       sodipodi:cy="42.024853"
       sodipodi:cx="58.799297"
       sodipodi:sides="6"
       id="path4925"
       style="opacity:1;fill:none;fill-opacity:1;fill-rule:nonzero;stroke:#ff0000;stroke-width:0.53917009;stroke-linecap:round;stroke-linejoin:round;stroke-miterlimit:4;stroke-dasharray:none;stroke-dashoffset:0;stroke-opacity:1"
       sodipodi:type="star" />
    <path
       transform="matrix(0.326732,0,0,0.32756634,105.51244,25.947494)"
       inkscape:transform-center-y="-1.7867195"
       d="m 77.694328,52.933904 -18.895031,10.909051 -18.89503,-10.909051 0,-21.818102 18.89503,-10.909051 18.895031,10.909051 z"
       inkscape:randomized="0"
       inkscape:rounded="0"
       inkscape:flatsided="true"
       sodipodi:arg2="1.0471976"
       sodipodi:arg1="0.52359878"
       sodipodi:r2="10.909051"
       sodipodi:r1="21.818102"
       sodipodi:cy="42.024853"
       sodipodi:cx="58.799297"
       sodipodi:sides="6"
       id="path4927"
       style="opacity:1;fill:none;fill-opacity:1;fill-rule:nonzero;stroke:#ff0000;stroke-width:0.53917009;stroke-linecap:round;stroke-linejoin:round;stroke-miterlimit:4;stroke-dasharray:none;stroke-dashoffset:0;stroke-opacity:1"
       sodipodi:type="star" />
    <path
       sodipodi:type="star"
       style="opacity:1;fill:none;fill-opacity:1;fill-rule:nonzero;stroke:#ff0000;stroke-width:0.53917009;stroke-linecap:round;stroke-linejoin:round;stroke-miterlimit:4;stroke-dasharray:none;stroke-dashoffset:0;stroke-opacity:1"
       id="path4929"
       sodipodi:sides="6"
       sodipodi:cx="58.799297"
       sodipodi:cy="42.024853"
       sodipodi:r1="21.818102"
       sodipodi:r2="10.909051"
       sodipodi:arg1="0.52359878"
       sodipodi:arg2="1.0471976"
       inkscape:flatsided="true"
       inkscape:rounded="0"
       inkscape:randomized="0"
       d="m 77.694328,52.933904 -18.895031,10.909051 -18.89503,-10.909051 0,-21.818102 18.89503,-10.909051 18.895031,10.909051 z"
       inkscape:transform-center-y="-1.7867195"
       transform="matrix(0.326732,0,0,0.32756634,118.75253,26.061558)" />
    <path
       sodipodi:type="star"
       style="opacity:1;fill:none;fill-opacity:1;fill-rule:nonzero;stroke:#ff0000;stroke-width:0.53917009;stroke-linecap:round;stroke-linejoin:round;stroke-miterlimit:4;stroke-dasharray:none;stroke-dashoffset:0;stroke-opacity:1"
       id="path4931"
       sodipodi:sides="6"
       sodipodi:cx="58.799297"
       sodipodi:cy="42.024853"
       sodipodi:r1="21.818102"
       sodipodi:r2="10.909051"
       sodipodi:arg1="0.52359878"
       sodipodi:arg2="1.0471976"
       inkscape:flatsided="true"
       inkscape:rounded="0"
       inkscape:randomized="0"
       d="m 77.694328,52.933904 -18.895031,10.909051 -18.89503,-10.909051 0,-21.818102 18.89503,-10.909051 18.895031,10.909051 z"
       inkscape:transform-center-y="-1.7867195"
       transform="matrix(0.326732,0,0,0.32756634,131.99264,25.947494)" />
    <path
       transform="matrix(0.326732,0,0,0.32756634,145.23274,26.061558)"
       inkscape:transform-center-y="-1.7867195"
       d="m 77.694328,52.933904 -18.895031,10.909051 -18.89503,-10.909051 0,-21.818102 18.89503,-10.909051 18.895031,10.909051 z"
       inkscape:randomized="0"
       inkscape:rounded="0"
       inkscape:flatsided="true"
       sodipodi:arg2="1.0471976"
       sodipodi:arg1="0.52359878"
       sodipodi:r2="10.909051"
       sodipodi:r1="21.818102"
       sodipodi:cy="42.024853"
       sodipodi:cx="58.799297"
       sodipodi:sides="6"
       id="path4933"
       style="opacity:1;fill:none;fill-opacity:1;fill-rule:nonzero;stroke:#ff0000;stroke-width:0.53917009;stroke-linecap:round;stroke-linejoin:round;stroke-miterlimit:4;stroke-dasharray:none;stroke-dashoffset:0;stroke-opacity:1"
       sodipodi:type="star" />
    <path
       sodipodi:type="star"
       style="opacity:1;fill:none;fill-opacity:1;fill-rule:nonzero;stroke:#ff0000;stroke-width:0.53917009;stroke-linecap:round;stroke-linejoin:round;stroke-miterlimit:4;stroke-dasharray:none;stroke-dashoffset:0;stroke-opacity:1"
       id="path4935"
       sodipodi:sides="6"
       sodipodi:cx="58.799297"
       sodipodi:cy="42.024853"
       sodipodi:r1="21.818102"
       sodipodi:r2="10.909051"
       sodipodi:arg1="0.52359878"
       sodipodi:arg2="1.0471976"
       inkscape:flatsided="true"
       inkscape:rounded="0"
       inkscape:randomized="0"
       d="m 77.694328,52.933904 -18.895031,10.909051 -18.89503,-10.909051 0,-21.818102 18.89503,-10.909051 18.895031,10.909051 z"
       inkscape:transform-center-y="-1.7867195"
       transform="matrix(0.326732,0,0,0.32756634,-7.0900401,37.974623)" />
    <path
       transform="matrix(0.326732,0,0,0.32756634,6.150054,38.088687)"
       inkscape:transform-center-y="-1.7867195"
       d="m 77.694328,52.933904 -18.895031,10.909051 -18.89503,-10.909051 0,-21.818102 18.89503,-10.909051 18.895031,10.909051 z"
       inkscape:randomized="0"
       inkscape:rounded="0"
       inkscape:flatsided="true"
       sodipodi:arg2="1.0471976"
       sodipodi:arg1="0.52359878"
       sodipodi:r2="10.909051"
       sodipodi:r1="21.818102"
       sodipodi:cy="42.024853"
       sodipodi:cx="58.799297"
       sodipodi:sides="6"
       id="path4937"
       style="opacity:1;fill:none;fill-opacity:1;fill-rule:nonzero;stroke:#ff0000;stroke-width:0.53917009;stroke-linecap:round;stroke-linejoin:round;stroke-miterlimit:4;stroke-dasharray:none;stroke-dashoffset:0;stroke-opacity:1"
       sodipodi:type="star" />
    <path
       transform="matrix(0.326732,0,0,0.32756634,19.390147,37.974623)"
       inkscape:transform-center-y="-1.7867195"
       d="m 77.694328,52.933904 -18.895031,10.909051 -18.89503,-10.909051 0,-21.818102 18.89503,-10.909051 18.895031,10.909051 z"
       inkscape:randomized="0"
       inkscape:rounded="0"
       inkscape:flatsided="true"
       sodipodi:arg2="1.0471976"
       sodipodi:arg1="0.52359878"
       sodipodi:r2="10.909051"
       sodipodi:r1="21.818102"
       sodipodi:cy="42.024853"
       sodipodi:cx="58.799297"
       sodipodi:sides="6"
       id="path4939"
       style="opacity:1;fill:none;fill-opacity:1;fill-rule:nonzero;stroke:#ff0000;stroke-width:0.53917009;stroke-linecap:round;stroke-linejoin:round;stroke-miterlimit:4;stroke-dasharray:none;stroke-dashoffset:0;stroke-opacity:1"
       sodipodi:type="star" />
    <path
       sodipodi:type="star"
       style="opacity:1;fill:none;fill-opacity:1;fill-rule:nonzero;stroke:#ff0000;stroke-width:0.53917009;stroke-linecap:round;stroke-linejoin:round;stroke-miterlimit:4;stroke-dasharray:none;stroke-dashoffset:0;stroke-opacity:1"
       id="path4941"
       sodipodi:sides="6"
       sodipodi:cx="58.799297"
       sodipodi:cy="42.024853"
       sodipodi:r1="21.818102"
       sodipodi:r2="10.909051"
       sodipodi:arg1="0.52359878"
       sodipodi:arg2="1.0471976"
       inkscape:flatsided="true"
       inkscape:rounded="0"
       inkscape:randomized="0"
       d="m 77.694328,52.933904 -18.895031,10.909051 -18.89503,-10.909051 0,-21.818102 18.89503,-10.909051 18.895031,10.909051 z"
       inkscape:transform-center-y="-1.7867195"
       transform="matrix(0.326732,0,0,0.32756634,32.630243,38.088687)" />
    <path
       sodipodi:type="star"
       style="opacity:1;fill:none;fill-opacity:1;fill-rule:nonzero;stroke:#ff0000;stroke-width:0.53917009;stroke-linecap:round;stroke-linejoin:round;stroke-miterlimit:4;stroke-dasharray:none;stroke-dashoffset:0;stroke-opacity:1"
       id="path4943"
       sodipodi:sides="6"
       sodipodi:cx="58.799297"
       sodipodi:cy="42.024853"
       sodipodi:r1="21.818102"
       sodipodi:r2="10.909051"
       sodipodi:arg1="0.52359878"
       sodipodi:arg2="1.0471976"
       inkscape:flatsided="true"
       inkscape:rounded="0"
       inkscape:randomized="0"
       d="m 77.694328,52.933904 -18.895031,10.909051 -18.89503,-10.909051 0,-21.818102 18.89503,-10.909051 18.895031,10.909051 z"
       inkscape:transform-center-y="-1.7867195"
       transform="matrix(0.326732,0,0,0.32756634,45.870336,37.974623)" />
    <path
       transform="matrix(0.326732,0,0,0.32756634,59.110423,38.088687)"
       inkscape:transform-center-y="-1.7867195"
       d="m 77.694328,52.933904 -18.895031,10.909051 -18.89503,-10.909051 0,-21.818102 18.89503,-10.909051 18.895031,10.909051 z"
       inkscape:randomized="0"
       inkscape:rounded="0"
       inkscape:flatsided="true"
       sodipodi:arg2="1.0471976"
       sodipodi:arg1="0.52359878"
       sodipodi:r2="10.909051"
       sodipodi:r1="21.818102"
       sodipodi:cy="42.024853"
       sodipodi:cx="58.799297"
       sodipodi:sides="6"
       id="path4945"
       style="opacity:1;fill:none;fill-opacity:1;fill-rule:nonzero;stroke:#ff0000;stroke-width:0.53917009;stroke-linecap:round;stroke-linejoin:round;stroke-miterlimit:4;stroke-dasharray:none;stroke-dashoffset:0;stroke-opacity:1"
       sodipodi:type="star" />
    <path
       transform="matrix(0.326732,0,0,0.32756634,72.350525,37.974623)"
       inkscape:transform-center-y="-1.7867195"
       d="m 77.694328,52.933904 -18.895031,10.909051 -18.89503,-10.909051 0,-21.818102 18.89503,-10.909051 18.895031,10.909051 z"
       inkscape:randomized="0"
       inkscape:rounded="0"
       inkscape:flatsided="true"
       sodipodi:arg2="1.0471976"
       sodipodi:arg1="0.52359878"
       sodipodi:r2="10.909051"
       sodipodi:r1="21.818102"
       sodipodi:cy="42.024853"
       sodipodi:cx="58.799297"
       sodipodi:sides="6"
       id="path4947"
       style="opacity:1;fill:none;fill-opacity:1;fill-rule:nonzero;stroke:#ff0000;stroke-width:0.53917009;stroke-linecap:round;stroke-linejoin:round;stroke-miterlimit:4;stroke-dasharray:none;stroke-dashoffset:0;stroke-opacity:1"
       sodipodi:type="star" />
    <path
       sodipodi:type="star"
       style="opacity:1;fill:none;fill-opacity:1;fill-rule:nonzero;stroke:#ff0000;stroke-width:0.53917009;stroke-linecap:round;stroke-linejoin:round;stroke-miterlimit:4;stroke-dasharray:none;stroke-dashoffset:0;stroke-opacity:1"
       id="path4949"
       sodipodi:sides="6"
       sodipodi:cx="58.799297"
       sodipodi:cy="42.024853"
       sodipodi:r1="21.818102"
       sodipodi:r2="10.909051"
       sodipodi:arg1="0.52359878"
       sodipodi:arg2="1.0471976"
       inkscape:flatsided="true"
       inkscape:rounded="0"
       inkscape:randomized="0"
       d="m 77.694328,52.933904 -18.895031,10.909051 -18.89503,-10.909051 0,-21.818102 18.89503,-10.909051 18.895031,10.909051 z"
       inkscape:transform-center-y="-1.7867195"
       transform="matrix(0.326732,0,0,0.32756634,85.590612,38.088687)" />
    <path
       sodipodi:type="star"
       style="opacity:1;fill:none;fill-opacity:1;fill-rule:nonzero;stroke:#ff0000;stroke-width:0.53917009;stroke-linecap:round;stroke-linejoin:round;stroke-miterlimit:4;stroke-dasharray:none;stroke-dashoffset:0;stroke-opacity:1"
       id="path4951"
       sodipodi:sides="6"
       sodipodi:cx="58.799297"
       sodipodi:cy="42.024853"
       sodipodi:r1="21.818102"
       sodipodi:r2="10.909051"
       sodipodi:arg1="0.52359878"
       sodipodi:arg2="1.0471976"
       inkscape:flatsided="true"
       inkscape:rounded="0"
       inkscape:randomized="0"
       d="m 77.694328,52.933904 -18.895031,10.909051 -18.89503,-10.909051 0,-21.818102 18.89503,-10.909051 18.895031,10.909051 z"
       inkscape:transform-center-y="-1.7867195"
       transform="matrix(0.326732,0,0,0.32756634,98.830703,37.974623)" />
    <path
       transform="matrix(0.326732,0,0,0.32756634,112.07079,38.088687)"
       inkscape:transform-center-y="-1.7867195"
       d="m 77.694328,52.933904 -18.895031,10.909051 -18.89503,-10.909051 0,-21.818102 18.89503,-10.909051 18.895031,10.909051 z"
       inkscape:randomized="0"
       inkscape:rounded="0"
       inkscape:flatsided="true"
       sodipodi:arg2="1.0471976"
       sodipodi:arg1="0.52359878"
       sodipodi:r2="10.909051"
       sodipodi:r1="21.818102"
       sodipodi:cy="42.024853"
       sodipodi:cx="58.799297"
       sodipodi:sides="6"
       id="path4953"
       style="opacity:1;fill:none;fill-opacity:1;fill-rule:nonzero;stroke:#ff0000;stroke-width:0.53917009;stroke-linecap:round;stroke-linejoin:round;stroke-miterlimit:4;stroke-dasharray:none;stroke-dashoffset:0;stroke-opacity:1"
       sodipodi:type="star" />
    <path
       transform="matrix(0.326732,0,0,0.32756634,125.3109,37.974623)"
       inkscape:transform-center-y="-1.7867195"
       d="m 77.694328,52.933904 -18.895031,10.909051 -18.89503,-10.909051 0,-21.818102 18.89503,-10.909051 18.895031,10.909051 z"
       inkscape:randomized="0"
       inkscape:rounded="0"
       inkscape:flatsided="true"
       sodipodi:arg2="1.0471976"
       sodipodi:arg1="0.52359878"
       sodipodi:r2="10.909051"
       sodipodi:r1="21.818102"
       sodipodi:cy="42.024853"
       sodipodi:cx="58.799297"
       sodipodi:sides="6"
       id="path4955"
       style="opacity:1;fill:none;fill-opacity:1;fill-rule:nonzero;stroke:#ff0000;stroke-width:0.53917009;stroke-linecap:round;stroke-linejoin:round;stroke-miterlimit:4;stroke-dasharray:none;stroke-dashoffset:0;stroke-opacity:1"
       sodipodi:type="star" />
    <path
       sodipodi:type="star"
       style="opacity:1;fill:none;fill-opacity:1;fill-rule:nonzero;stroke:#ff0000;stroke-width:0.53917009;stroke-linecap:round;stroke-linejoin:round;stroke-miterlimit:4;stroke-dasharray:none;stroke-dashoffset:0;stroke-opacity:1"
       id="path4957"
       sodipodi:sides="6"
       sodipodi:cx="58.799297"
       sodipodi:cy="42.024853"
       sodipodi:r1="21.818102"
       sodipodi:r2="10.909051"
       sodipodi:arg1="0.52359878"
       sodipodi:arg2="1.0471976"
       inkscape:flatsided="true"
       inkscape:rounded="0"
       inkscape:randomized="0"
       d="m 77.694328,52.933904 -18.895031,10.909051 -18.89503,-10.909051 0,-21.818102 18.89503,-10.909051 18.895031,10.909051 z"
       inkscape:transform-center-y="-1.7867195"
       transform="matrix(0.326732,0,0,0.32756634,138.551,38.088687)" />
    <path
       transform="matrix(0.326732,0,0,0.32756634,-0.14103233,50.001752)"
       inkscape:transform-center-y="-1.7867195"
       d="m 77.694328,52.933904 -18.895031,10.909051 -18.89503,-10.909051 0,-21.818102 18.89503,-10.909051 18.895031,10.909051 z"
       inkscape:randomized="0"
       inkscape:rounded="0"
       inkscape:flatsided="true"
       sodipodi:arg2="1.0471976"
       sodipodi:arg1="0.52359878"
       sodipodi:r2="10.909051"
       sodipodi:r1="21.818102"
       sodipodi:cy="42.024853"
       sodipodi:cx="58.799297"
       sodipodi:sides="6"
       id="path4959"
       style="opacity:1;fill:none;fill-opacity:1;fill-rule:nonzero;stroke:#ff0000;stroke-width:0.53917009;stroke-linecap:round;stroke-linejoin:round;stroke-miterlimit:4;stroke-dasharray:none;stroke-dashoffset:0;stroke-opacity:1"
       sodipodi:type="star" />
    <path
       sodipodi:type="star"
       style="opacity:1;fill:none;fill-opacity:1;fill-rule:nonzero;stroke:#ff0000;stroke-width:0.53917009;stroke-linecap:round;stroke-linejoin:round;stroke-miterlimit:4;stroke-dasharray:none;stroke-dashoffset:0;stroke-opacity:1"
       id="path4961"
       sodipodi:sides="6"
       sodipodi:cx="58.799297"
       sodipodi:cy="42.024853"
       sodipodi:r1="21.818102"
       sodipodi:r2="10.909051"
       sodipodi:arg1="0.52359878"
       sodipodi:arg2="1.0471976"
       inkscape:flatsided="true"
       inkscape:rounded="0"
       inkscape:randomized="0"
       d="m 77.694328,52.933904 -18.895031,10.909051 -18.89503,-10.909051 0,-21.818102 18.89503,-10.909051 18.895031,10.909051 z"
       inkscape:transform-center-y="-1.7867195"
       transform="matrix(0.326732,0,0,0.32756634,13.099062,50.115816)" />
    <path
       sodipodi:type="star"
       style="opacity:1;fill:none;fill-opacity:1;fill-rule:nonzero;stroke:#ff0000;stroke-width:0.53917009;stroke-linecap:round;stroke-linejoin:round;stroke-miterlimit:4;stroke-dasharray:none;stroke-dashoffset:0;stroke-opacity:1"
       id="path4963"
       sodipodi:sides="6"
       sodipodi:cx="58.799297"
       sodipodi:cy="42.024853"
       sodipodi:r1="21.818102"
       sodipodi:r2="10.909051"
       sodipodi:arg1="0.52359878"
       sodipodi:arg2="1.0471976"
       inkscape:flatsided="true"
       inkscape:rounded="0"
       inkscape:randomized="0"
       d="m 77.694328,52.933904 -18.895031,10.909051 -18.89503,-10.909051 0,-21.818102 18.89503,-10.909051 18.895031,10.909051 z"
       inkscape:transform-center-y="-1.7867195"
       transform="matrix(0.326732,0,0,0.32756634,26.339155,50.001752)" />
    <path
       transform="matrix(0.326732,0,0,0.32756634,39.579251,50.115816)"
       inkscape:transform-center-y="-1.7867195"
       d="m 77.694328,52.933904 -18.895031,10.909051 -18.89503,-10.909051 0,-21.818102 18.89503,-10.909051 18.895031,10.909051 z"
       inkscape:randomized="0"
       inkscape:rounded="0"
       inkscape:flatsided="true"
       sodipodi:arg2="1.0471976"
       sodipodi:arg1="0.52359878"
       sodipodi:r2="10.909051"
       sodipodi:r1="21.818102"
       sodipodi:cy="42.024853"
       sodipodi:cx="58.799297"
       sodipodi:sides="6"
       id="path4965"
       style="opacity:1;fill:none;fill-opacity:1;fill-rule:nonzero;stroke:#ff0000;stroke-width:0.53917009;stroke-linecap:round;stroke-linejoin:round;stroke-miterlimit:4;stroke-dasharray:none;stroke-dashoffset:0;stroke-opacity:1"
       sodipodi:type="star" />
    <path
       transform="matrix(0.326732,0,0,0.32756634,52.819344,50.001752)"
       inkscape:transform-center-y="-1.7867195"
       d="m 77.694328,52.933904 -18.895031,10.909051 -18.89503,-10.909051 0,-21.818102 18.89503,-10.909051 18.895031,10.909051 z"
       inkscape:randomized="0"
       inkscape:rounded="0"
       inkscape:flatsided="true"
       sodipodi:arg2="1.0471976"
       sodipodi:arg1="0.52359878"
       sodipodi:r2="10.909051"
       sodipodi:r1="21.818102"
       sodipodi:cy="42.024853"
       sodipodi:cx="58.799297"
       sodipodi:sides="6"
       id="path4967"
       style="opacity:1;fill:none;fill-opacity:1;fill-rule:nonzero;stroke:#ff0000;stroke-width:0.53917009;stroke-linecap:round;stroke-linejoin:round;stroke-miterlimit:4;stroke-dasharray:none;stroke-dashoffset:0;stroke-opacity:1"
       sodipodi:type="star" />
    <path
       sodipodi:type="star"
       style="opacity:1;fill:none;fill-opacity:1;fill-rule:nonzero;stroke:#ff0000;stroke-width:0.53917009;stroke-linecap:round;stroke-linejoin:round;stroke-miterlimit:4;stroke-dasharray:none;stroke-dashoffset:0;stroke-opacity:1"
       id="path4969"
       sodipodi:sides="6"
       sodipodi:cx="58.799297"
       sodipodi:cy="42.024853"
       sodipodi:r1="21.818102"
       sodipodi:r2="10.909051"
       sodipodi:arg1="0.52359878"
       sodipodi:arg2="1.0471976"
       inkscape:flatsided="true"
       inkscape:rounded="0"
       inkscape:randomized="0"
       d="m 77.694328,52.933904 -18.895031,10.909051 -18.89503,-10.909051 0,-21.818102 18.89503,-10.909051 18.895031,10.909051 z"
       inkscape:transform-center-y="-1.7867195"
       transform="matrix(0.326732,0,0,0.32756634,66.059431,50.115816)" />
    <path
       sodipodi:type="star"
       style="opacity:1;fill:none;fill-opacity:1;fill-rule:nonzero;stroke:#ff0000;stroke-width:0.53917009;stroke-linecap:round;stroke-linejoin:round;stroke-miterlimit:4;stroke-dasharray:none;stroke-dashoffset:0;stroke-opacity:1"
       id="path4971"
       sodipodi:sides="6"
       sodipodi:cx="58.799297"
       sodipodi:cy="42.024853"
       sodipodi:r1="21.818102"
       sodipodi:r2="10.909051"
       sodipodi:arg1="0.52359878"
       sodipodi:arg2="1.0471976"
       inkscape:flatsided="true"
       inkscape:rounded="0"
       inkscape:randomized="0"
       d="m 77.694328,52.933904 -18.895031,10.909051 -18.89503,-10.909051 0,-21.818102 18.89503,-10.909051 18.895031,10.909051 z"
       inkscape:transform-center-y="-1.7867195"
       transform="matrix(0.326732,0,0,0.32756634,79.299533,50.001752)" />
    <path
       transform="matrix(0.326732,0,0,0.32756634,92.53962,50.115816)"
       inkscape:transform-center-y="-1.7867195"
       d="m 77.694328,52.933904 -18.895031,10.909051 -18.89503,-10.909051 0,-21.818102 18.89503,-10.909051 18.895031,10.909051 z"
       inkscape:randomized="0"
       inkscape:rounded="0"
       inkscape:flatsided="true"
       sodipodi:arg2="1.0471976"
       sodipodi:arg1="0.52359878"
       sodipodi:r2="10.909051"
       sodipodi:r1="21.818102"
       sodipodi:cy="42.024853"
       sodipodi:cx="58.799297"
       sodipodi:sides="6"
       id="path4973"
       style="opacity:1;fill:none;fill-opacity:1;fill-rule:nonzero;stroke:#ff0000;stroke-width:0.53917009;stroke-linecap:round;stroke-linejoin:round;stroke-miterlimit:4;stroke-dasharray:none;stroke-dashoffset:0;stroke-opacity:1"
       sodipodi:type="star" />
    <path
       transform="matrix(0.326732,0,0,0.32756634,105.77971,50.001752)"
       inkscape:transform-center-y="-1.7867195"
       d="m 77.694328,52.933904 -18.895031,10.909051 -18.89503,-10.909051 0,-21.818102 18.89503,-10.909051 18.895031,10.909051 z"
       inkscape:randomized="0"
       inkscape:rounded="0"
       inkscape:flatsided="true"
       sodipodi:arg2="1.0471976"
       sodipodi:arg1="0.52359878"
       sodipodi:r2="10.909051"
       sodipodi:r1="21.818102"
       sodipodi:cy="42.024853"
       sodipodi:cx="58.799297"
       sodipodi:sides="6"
       id="path4975"
       style="opacity:1;fill:none;fill-opacity:1;fill-rule:nonzero;stroke:#ff0000;stroke-width:0.53917009;stroke-linecap:round;stroke-linejoin:round;stroke-miterlimit:4;stroke-dasharray:none;stroke-dashoffset:0;stroke-opacity:1"
       sodipodi:type="star" />
    <path
       sodipodi:type="star"
       style="opacity:1;fill:none;fill-opacity:1;fill-rule:nonzero;stroke:#ff0000;stroke-width:0.53917009;stroke-linecap:round;stroke-linejoin:round;stroke-miterlimit:4;stroke-dasharray:none;stroke-dashoffset:0;stroke-opacity:1"
       id="path4977"
       sodipodi:sides="6"
       sodipodi:cx="58.799297"
       sodipodi:cy="42.024853"
       sodipodi:r1="21.818102"
       sodipodi:r2="10.909051"
       sodipodi:arg1="0.52359878"
       sodipodi:arg2="1.0471976"
       inkscape:flatsided="true"
       inkscape:rounded="0"
       inkscape:randomized="0"
       d="m 77.694328,52.933904 -18.895031,10.909051 -18.89503,-10.909051 0,-21.818102 18.89503,-10.909051 18.895031,10.909051 z"
       inkscape:transform-center-y="-1.7867195"
       transform="matrix(0.326732,0,0,0.32756634,119.0198,50.115816)" />
    <path
       sodipodi:type="star"
       style="opacity:1;fill:none;fill-opacity:1;fill-rule:nonzero;stroke:#ff0000;stroke-width:0.53917009;stroke-linecap:round;stroke-linejoin:round;stroke-miterlimit:4;stroke-dasharray:none;stroke-dashoffset:0;stroke-opacity:1"
       id="path4979"
       sodipodi:sides="6"
       sodipodi:cx="58.799297"
       sodipodi:cy="42.024853"
       sodipodi:r1="21.818102"
       sodipodi:r2="10.909051"
       sodipodi:arg1="0.52359878"
       sodipodi:arg2="1.0471976"
       inkscape:flatsided="true"
       inkscape:rounded="0"
       inkscape:randomized="0"
       d="m 77.694328,52.933904 -18.895031,10.909051 -18.89503,-10.909051 0,-21.818102 18.89503,-10.909051 18.895031,10.909051 z"
       inkscape:transform-center-y="-1.7867195"
       transform="matrix(0.326732,0,0,0.32756634,132.25991,50.001752)" />
    <path
       transform="matrix(0.326732,0,0,0.32756634,145.50001,50.115816)"
       inkscape:transform-center-y="-1.7867195"
       d="m 77.694328,52.933904 -18.895031,10.909051 -18.89503,-10.909051 0,-21.818102 18.89503,-10.909051 18.895031,10.909051 z"
       inkscape:randomized="0"
       inkscape:rounded="0"
       inkscape:flatsided="true"
       sodipodi:arg2="1.0471976"
       sodipodi:arg1="0.52359878"
       sodipodi:r2="10.909051"
       sodipodi:r1="21.818102"
       sodipodi:cy="42.024853"
       sodipodi:cx="58.799297"
       sodipodi:sides="6"
       id="path4981"
       style="opacity:1;fill:none;fill-opacity:1;fill-rule:nonzero;stroke:#ff0000;stroke-width:0.53917009;stroke-linecap:round;stroke-linejoin:round;stroke-miterlimit:4;stroke-dasharray:none;stroke-dashoffset:0;stroke-opacity:1"
       sodipodi:type="star" />
    <path
       id="path4615"
       d="m 182.6867,32.692078 c -0.16933,0 -0.31749,0.04233 -0.46566,0.126999 l -3.28081,1.841486 c -0.4445,0.253999 -0.84666,0.592663 -1.18532,0.97366 -0.86783,0.973659 -1.35466,2.30715 -1.35466,3.682973 v 5.736124 c 0.76199,1.312324 2.81515,1.164158 4.8683,1.037159 -0.0212,10.604422 -0.0212,6.667451 -0.0212,17.271873 -0.0423,2.053151 2.47648,2.201317 2.81515,0.465664 0.0635,0 0.127,0.02117 0.16933,0.02117 0.21166,0.04233 0.4445,0.04233 0.71966,0.04233 h 7.78928 c 0.55032,0 0.97365,0.02117 1.39699,-0.253997 0.42333,-0.253998 0.57149,-0.634995 0.88899,-1.185326 v 0 -0.04233 c 0,0 0.67733,-1.375826 1.48165,-2.730482 0.40217,-0.698494 0.84666,-1.375822 1.22766,-1.862652 0.1905,-0.232832 0.381,-0.423331 0.508,-0.529163 0.0212,-0.04233 0.0423,-0.04233 0.0635,-0.0635 0.0423,0.04233 0.0423,0.04233 0.0847,0.0635 0.127,0.105832 0.3175,0.296331 0.508,0.529163 0.38099,0.48683 0.82549,1.164158 1.22765,1.862652 0.80433,1.354656 1.48166,2.730482 1.48166,2.730482 v 0.04233 0 c 0.3175,0.550331 0.46566,0.910162 0.88899,1.185326 0.42333,0.275164 0.82549,0.253997 1.39699,0.253997 h 7.81044 c 0.27517,0 0.48683,0 0.71967,-0.04233 0.21166,-0.02117 0.48683,-0.0635 0.69849,-0.296333 0.21166,-0.211664 0.27516,-0.486828 0.29633,-0.698495 0.0212,-0.211664 0.0212,-0.444494 0.0212,-0.719661 0,-1.947318 -1.22766,-3.704138 -2.64581,-5.524458 -1.20649,-1.587489 -2.60348,-3.238476 -3.64064,-5.03763 1.03716,-0.105832 2.24365,-0.359831 3.32314,-0.677328 0.74083,-0.211665 1.39699,-0.465663 1.92615,-0.761995 0.254,-0.148165 0.48683,-0.317497 0.67733,-0.529162 0.1905,-0.211665 0.35983,-0.48683 0.35983,-0.846661 0,-0.804327 -0.48683,-1.502822 -1.14299,-2.116651 -0.65616,-0.613829 -1.52399,-1.185324 -2.51882,-1.75682 -1.90498,-1.100659 -4.27563,-2.158984 -6.39228,-3.21731 -0.0635,-1.121825 -0.35983,-2.434148 -1.05833,-3.534807 -0.78316,-1.248824 -2.13781,-2.24365 -4.00047,-2.264816 -1.88382,0.02117 -3.23847,1.015992 -4.02163,2.264816 -0.6985,1.100659 -0.99483,2.412982 -1.03716,3.534807 -1.41816,0.698495 -2.89982,1.39699 -4.31797,2.095485 V 39.3172 c 0,-1.968486 -0.97366,-3.767639 -2.53998,-4.656633 l -3.28082,-1.84149 c -0.127,-0.08467 -0.29633,-0.126999 -0.4445,-0.126999 z m 2.24365,13.440734 c -0.21166,0.169332 -0.42333,0.338664 -0.59266,0.507996 -0.0847,0.0635 -0.16933,0.169332 -0.23283,0.232832 0,-0.380997 0,-0.275165 0,-0.719661 0.29633,0 0.55033,0 0.82549,-0.02117 z m -0.82549,3.894638 c 0.0423,0.04233 0.0847,0.0635 0.127,0.105832 0.52916,0.296332 1.18532,0.55033 1.92615,0.761995 1.07949,0.317497 2.28598,0.571496 3.34431,0.677328 -1.05833,1.799154 -2.45532,3.450141 -3.66181,5.03763 -0.65616,0.825494 -1.24882,1.650987 -1.73565,2.497648 0,-2.73048 0,-6.201788 0,-9.080433 z"
       style="fill:#ffffff;fill-opacity:1;fill-rule:nonzero;stroke:#ff0000;stroke-width:0.16933209px;stroke-linecap:butt;stroke-linejoin:miter;stroke-miterlimit:4;stroke-dasharray:none;stroke-opacity:1"
       inkscape:connector-curvature="0" />
    <path
       id="path4617-7"
       d="m 204.23421,51.741937 -6.15945,3.555974 -6.18062,-3.555974 v -7.15428 l 6.18062,-3.57714 6.15945,3.57714 z"
       style="fill:none;stroke:#ff0000;stroke-width:0.16933209px;stroke-linecap:round;stroke-linejoin:round;stroke-miterlimit:4;stroke-dasharray:none;stroke-opacity:1"
       inkscape:connector-curvature="0" />
    <path
       id="path4619"
       d="m 219.55876,32.692078 c -0.14816,0 -0.31749,0.04233 -0.46566,0.126999 l -3.25964,1.841486 c -0.4445,0.253999 -0.84666,0.592663 -1.20649,0.97366 -0.86783,0.973659 -1.33349,2.30715 -1.33349,3.682973 v 5.736124 c 0.76199,1.312324 2.79398,1.164158 4.84713,1.037159 0,10.604422 0,6.667451 -0.0212,17.271873 -0.0212,2.053151 2.47648,2.201317 2.83631,0.465664 0.0423,0 0.10583,0.02117 0.14817,0.02117 0.23283,0.04233 0.44449,0.04233 0.74083,0.04233 h 7.7681 c 0.5715,0 0.97366,0.02117 1.39699,-0.253997 0.4445,-0.253998 0.59266,-0.634995 0.889,-1.185326 v 0 -0.04233 c 0,0 0.67732,-1.375826 1.50282,-2.730482 0.40216,-0.698494 0.84666,-1.375822 1.22766,-1.862652 0.19049,-0.232832 0.35983,-0.423331 0.48682,-0.529163 0.0423,-0.04233 0.0635,-0.04233 0.0847,-0.0635 0.0212,0.04233 0.0423,0.04233 0.0847,0.0635 0.127,0.105832 0.29634,0.296331 0.48684,0.529163 0.40216,0.48683 0.82549,1.164158 1.22765,1.862652 0.8255,1.354656 1.50282,2.730482 1.50282,2.730482 v 0.04233 0 c 0.29633,0.550331 0.4445,0.910162 0.86783,1.185326 0.42333,0.275164 0.84666,0.253997 1.39699,0.253997 h 7.81044 c 0.27517,0 0.508,0 0.71966,-0.04233 0.21167,-0.02117 0.48683,-0.0635 0.6985,-0.296333 0.23283,-0.211664 0.29633,-0.486828 0.3175,-0.698495 0.0212,-0.211664 0.0212,-0.444494 0.0212,-0.719661 0,-1.947318 -1.24883,-3.704138 -2.64582,-5.524458 -1.22765,-1.587489 -2.62464,-3.238476 -3.66181,-5.03763 1.05833,-0.105832 2.26482,-0.359831 3.34431,-0.677328 0.71967,-0.211665 1.37583,-0.465663 1.90499,-0.761995 0.27517,-0.148165 0.48683,-0.317497 0.6985,-0.529162 0.19049,-0.211665 0.35983,-0.48683 0.35983,-0.846661 0,-0.804327 -0.48683,-1.502822 -1.143,-2.116651 -0.65616,-0.613829 -1.52399,-1.185324 -2.51881,-1.75682 -1.90499,-1.100659 -4.27564,-2.158984 -6.41345,-3.21731 -0.0635,-1.121825 -0.33867,-2.434148 -1.03716,-3.534807 -0.78316,-1.248824 -2.13782,-2.24365 -4.02164,-2.264816 -1.88382,0.02117 -3.21731,1.015992 -4.00047,2.264816 -0.6985,1.100659 -0.99483,2.412982 -1.05833,3.534807 -1.39699,0.698495 -2.89981,1.39699 -4.2968,2.095485 V 39.3172 c 0,-1.968486 -0.99482,-3.767639 -2.53998,-4.656633 l -3.28081,-1.841486 c -0.14816,-0.08467 -0.29633,-0.126999 -0.46566,-0.126999 z m 2.24365,13.440734 c -0.21166,0.169332 -0.40216,0.338664 -0.59266,0.507996 -0.0847,0.0635 -0.14816,0.169332 -0.23283,0.232832 0,-0.380997 0,-0.275165 0,-0.719661 0.3175,0 0.55033,0 0.82549,-0.02117 z m -0.82549,3.894638 c 0.0635,0.04233 0.10583,0.0635 0.14817,0.105832 0.52916,0.296332 1.18532,0.55033 1.90498,0.761995 1.07949,0.317497 2.28599,0.571496 3.34431,0.677328 -1.03716,1.799154 -2.43415,3.450141 -3.66181,5.03763 -0.63499,0.825494 -1.24882,1.650987 -1.71448,2.497648 0,-2.73048 0,-6.201788 -0.0212,-9.080433 z"
       style="fill:#ffffff;fill-opacity:1;fill-rule:nonzero;stroke:#ff0000;stroke-width:0.16933209px;stroke-linecap:butt;stroke-linejoin:miter;stroke-miterlimit:4;stroke-dasharray:none;stroke-opacity:1"
       inkscape:connector-curvature="0" />
    <path
       id="path4621"
       d="m 241.3391,49.159623 c 0,3.450141 -2.79398,6.265287 -6.26529,6.265287 -3.45014,0 -6.24411,-2.815146 -6.24411,-6.265287 0,-3.450141 2.79397,-6.265287 6.24411,-6.265287 3.47131,0 6.26529,2.815146 6.26529,6.265287 z"
       style="fill:none;stroke:#ff0000;stroke-width:0.16933209px;stroke-linecap:round;stroke-linejoin:round;stroke-miterlimit:4;stroke-dasharray:none;stroke-opacity:1"
       inkscape:connector-curvature="0" />
  </g>
</svg>
