<?xml version="1.0" encoding="UTF-8" standalone="no"?>
<!-- Created with Inkscape (http://www.inkscape.org/) -->

<svg
   xmlns:dc="http://purl.org/dc/elements/1.1/"
   xmlns:cc="http://creativecommons.org/ns#"
   xmlns:rdf="http://www.w3.org/1999/02/22-rdf-syntax-ns#"
   xmlns:svg="http://www.w3.org/2000/svg"
   xmlns="http://www.w3.org/2000/svg"
   xmlns:sodipodi="http://sodipodi.sourceforge.net/DTD/sodipodi-0.dtd"
   xmlns:inkscape="http://www.inkscape.org/namespaces/inkscape"
   width="11in"
   height="11in"
   viewBox="0 0 279.4 279.40001"
   version="1.1"
   id="svg8"
   inkscape:version="0.92.0 r15299"
   sodipodi:docname="vault box.svg">
  <sodipodi:namedview
     id="base"
     pagecolor="#ffffff"
     bordercolor="#666666"
     borderopacity="1.0"
     inkscape:pageopacity="0.0"
     inkscape:pageshadow="2"
     inkscape:zoom="0.7"
     inkscape:cx="623.72488"
     inkscape:cy="601.8986"
     inkscape:document-units="in"
     inkscape:current-layer="g5092"
     showgrid="false"
     inkscape:window-width="1920"
     inkscape:window-height="1017"
     inkscape:window-x="-8"
     inkscape:window-y="-8"
     inkscape:window-maximized="1"
     units="in"
     inkscape:pagecheckerboard="false"
     inkscape:snap-global="false"
     inkscape:measure-start="675.287,935.906"
     inkscape:measure-end="625.284,935.906"
     showguides="true"
     inkscape:guide-bbox="true" />
  <defs
     id="defs2">
    <inkscape:path-effect
       min_radius="5"
       phi="20"
       teeth="24"
       is_visible="true"
       id="path-effect4875"
       effect="gears" />
    <inkscape:path-effect
       effect="gears"
       id="path-effect4871"
       is_visible="true"
       teeth="24"
       phi="20"
       min_radius="5" />
    <inkscape:path-effect
       effect="gears"
       id="path-effect4867"
       is_visible="true"
       teeth="10"
       phi="5"
       min_radius="5" />
  </defs>
  <metadata
     id="metadata5">
    <rdf:RDF>
      <cc:Work
         rdf:about="">
        <dc:format>image/svg+xml</dc:format>
        <dc:type
           rdf:resource="http://purl.org/dc/dcmitype/StillImage" />
        <dc:title></dc:title>
      </cc:Work>
    </rdf:RDF>
  </metadata>
  <g
     inkscape:groupmode="layer"
     id="layer3"
     inkscape:label="filler"
     style="display:none"
     sodipodi:insensitive="true">
    <path
       style="opacity:1;fill:#e9afaf;fill-opacity:1;fill-rule:nonzero;stroke:#ff0000;stroke-width:1.34399998;stroke-linecap:round;stroke-linejoin:round;stroke-miterlimit:4;stroke-dasharray:none;stroke-dashoffset:0;stroke-opacity:1"
       d="M 155.95898,13.908203 V 368.36328 H 255 v -84.86523 a 110.45919,110.45919 0 0 0 69.42578,24.65625 110.45919,110.45919 0 0 0 61.47656,-18.79492 140.45919,140.45919 0 0 0 40.42774,59.01367 205.86657,205.86657 0 0 0 -104.33985,178.79492 205.86657,205.86657 0 0 0 118.27735,186.03125 140.45919,140.45919 0 0 0 -16.21875,19.49023 110.45919,110.45919 0 0 0 -83.97071,-38.88867 110.45919,110.45919 0 0 0 -110.45898,110.45899 110.45919,110.45919 0 0 0 23.92774,68.65429 H 97.193359 v 99.04102 H 438.01172 v -63.5625 a 140.45919,140.45919 0 0 0 101.99609,44.00781 140.45919,140.45919 0 0 0 95.67969,-37.78516 110.45919,110.45919 0 0 0 96.33008,56.67188 110.45919,110.45919 0 0 0 64.52344,-20.97266 v 94.43165 h 99.04101 V 703.92773 h -99.04101 v 67.37305 A 110.45919,110.45919 0 0 0 732.01758,750.36914 110.45919,110.45919 0 0 0 673.05469,767.46875 140.45919,140.45919 0 0 0 631.03516,705.01758 205.86657,205.86657 0 0 0 733.72461,527.16797 205.86657,205.86657 0 0 0 616.8125,341.79688 140.45919,140.45919 0 0 0 633.6582,321.72461 110.45919,110.45919 0 0 0 717.85352,360.86914 110.45919,110.45919 0 0 0 828.3125,250.41016 110.45919,110.45919 0 0 0 803.77148,181.05664 H 958.49414 V 82.015625 H 617.67578 V 143.17578 A 140.45919,140.45919 0 0 0 518.00781,101.59375 140.45919,140.45919 0 0 0 419.5957,141.88672 110.45919,110.45919 0 0 0 324.42578,87.236328 110.45919,110.45919 0 0 0 255,111.83984 V 13.908203 Z"
       transform="scale(0.26458334)"
       id="path5061"
       inkscape:connector-curvature="0" />
  </g>
  <g
     transform="translate(0,-17.599983)"
     id="g5092"
     inkscape:groupmode="layer"
     inkscape:label="backing+box teeth"
     style="display:inline">
    <rect
       style="opacity:1;fill:none;fill-opacity:1;fill-rule:nonzero;stroke:#fb0000;stroke-width:0.35277778;stroke-linecap:round;stroke-linejoin:round;stroke-miterlimit:4;stroke-dasharray:none;stroke-dashoffset:0;stroke-opacity:1"
       id="rect5086"
       width="228.24722"
       height="272.69724"
       x="25.576391"
       y="20.951368" />
    <rect
       y="33.651371"
       x="38.276386"
       height="247.29723"
       width="202.84723"
       id="rect5088"
       style="opacity:1;fill:none;fill-opacity:1;fill-rule:nonzero;stroke:#fb0000;stroke-width:0.35277778;stroke-linecap:round;stroke-linejoin:round;stroke-miterlimit:4;stroke-dasharray:none;stroke-dashoffset:0;stroke-opacity:1" />
  </g>
  <g
     style="display:none"
     inkscape:label="gears"
     id="layer2"
     inkscape:groupmode="layer"
     sodipodi:insensitive="true">
    <path
       style="display:inline;opacity:1;fill:none;fill-opacity:1;fill-rule:nonzero;stroke:#fb0000;stroke-width:0.35277778;stroke-linecap:round;stroke-linejoin:round;stroke-miterlimit:4;stroke-dasharray:none;stroke-dashoffset:0;stroke-opacity:1"
       d="M 25.587135,3.6025373 H 253.83435 V 276.29978 H 25.587135 Z"
       id="rect4648"
       inkscape:connector-curvature="0" />
    <path
       style="display:inline;opacity:1;fill:none;fill-opacity:1;fill-rule:nonzero;stroke:#fb0000;stroke-width:0.35277778;stroke-linecap:round;stroke-linejoin:round;stroke-miterlimit:4;stroke-dasharray:none;stroke-dashoffset:0;stroke-opacity:1"
       d="m 58.51544,15.673413 h 182.98615 v 11.758209 m 0,12.355097 V 262.97064 h -8.34233 m -12.37792,0 H 38.654362 v -10.83217 m 0,-12.3551 V 15.673413 h 7.529605"
       id="rect4650"
       inkscape:connector-curvature="0"
       sodipodi:nodetypes="cccccccccccc" />
    <g
       id="g4829"
       inkscape:label="Gear24"
       transform="translate(341.80919,92.133212)">
      <path
         id="path4827"
         style="fill:none;stroke:#000000;stroke-width:0.26458332"
         d="m 73.676689,0.66494074 2.709607,-0.19433959 1.897544,0.20392171 4.679933,1.59594594 v 4.0218731 l -4.679933,1.5959456 -1.897544,0.2039217 -2.709607,-0.1943396 -0.782126,5.9407974 2.667589,0.513574 1.780102,0.688094 4.107404,2.752835 -1.040932,3.884821 -4.933534,0.330311 -1.885659,-0.294144 -2.566987,-0.889014 -2.293054,5.535933 2.443749,1.186499 1.541367,1.125382 3.254961,3.722098 -2.010926,3.483033 -4.850918,-0.957824 -1.745287,-0.772173 -2.249421,-1.523108 -3.647733,4.753819 2.053402,1.778553 1.197576,1.485968 2.180699,4.437716 -2.843889,2.843889 -4.437716,-2.180699 -1.485968,-1.197576 -1.778553,-2.053402 -4.753819,3.647733 1.523108,2.249421 0.772173,1.745287 0.957824,4.850918 -3.483033,2.010926 -3.722098,-3.254961 -1.125382,-1.541367 -1.186498,-2.443749 -5.535934,2.293054 0.889014,2.566987 0.294144,1.885659 -0.330312,4.933534 -3.88482,1.040932 -2.752835,-4.107404 -0.688094,-1.780103 -0.513575,-2.667588 -5.940797,0.782126 0.194339,2.709607 -0.203922,1.897543 -1.595944,4.679934 H 21.242499 L 19.646554,59.311807 19.442633,57.414264 19.636972,54.704657 13.696174,53.922531 13.1826,56.590119 12.494506,58.370222 9.7416718,62.477626 5.8568508,61.436694 5.526536,56.50316 5.8206842,54.617501 6.7097019,52.050514 1.1737639,49.75746 l -1.18649812,2.443749 -1.12538058,1.541367 -3.7221018,3.254961 -3.4830365,-2.010926 0.9578256,-4.850918 0.7721772,-1.745287 1.5231116,-2.249421 -4.7538256,-3.647733 -1.7785537,2.053402 -1.485969,1.197576 -4.437713,2.180699 -2.843884,-2.843889 2.180694,-4.437716 1.197582,-1.485968 2.053399,-1.778553 -3.647737,-4.753819 -2.24942,1.523108 -1.745282,0.772173 -4.850927,0.957824 -2.010923,-3.483033 3.254963,-3.722098 1.541368,-1.125382 2.443744,-1.186499 -2.293054,-5.535933 -2.566985,0.889014 -1.885661,0.294144 -4.933531,-0.330311 -1.040927,-3.884821 4.107398,-2.752835 1.780107,-0.688094 2.667582,-0.513574 -0.782123,-5.9407974 -2.70961,0.1943396 -1.897538,-0.2039217 -4.679937,-1.5959456 V 2.2704688 l 4.679937,-1.59594594 1.897538,-0.20392171 2.70961,0.19433959 0.782123,-5.94079764 -2.667582,-0.5135738 -1.780107,-0.688095 -4.107398,-2.752835 1.040927,-3.8848203 4.933531,-0.330313 1.885661,0.294146 2.566985,0.889013 2.293054,-5.535934 -2.443744,-1.186498 -1.541368,-1.12538 -3.254963,-3.722102 2.010923,-3.483037 4.850927,0.957826 1.745282,0.772177 2.24942,1.523112 3.647737,-4.753825 -2.053399,-1.778554 -1.197582,-1.48597 -2.180694,-4.437712 2.843884,-2.843884 4.437713,2.180694 1.485969,1.197582 1.7785537,2.053399 4.7538256,-3.647737 -1.5231116,-2.24942 -0.7721772,-1.745282 -0.9578256,-4.850927 3.4830365,-2.010923 3.7221018,3.254963 1.12538058,1.541368 1.18649812,2.443744 5.535938,-2.293054 -0.8890177,-2.566985 -0.2941482,-1.885661 0.3303148,-4.933531 3.884821,-1.040927 2.7528342,4.107398 0.688094,1.780107 0.513574,2.667582 5.940798,-0.782123 -0.194339,-2.70961 0.203921,-1.897538 1.595945,-4.679937 h 4.021875 l 1.595944,4.679937 0.203922,1.897538 -0.194339,2.70961 5.940797,0.782123 0.513575,-2.667582 0.688094,-1.780107 2.752835,-4.107398 3.88482,1.040927 0.330312,4.933531 -0.294144,1.885661 -0.889014,2.566985 5.535934,2.293054 1.186498,-2.443744 1.125382,-1.541368 3.722098,-3.254963 3.483033,2.010923 -0.957824,4.850927 -0.772173,1.745282 -1.523108,2.24942 4.753819,3.647737 1.778553,-2.053399 1.485968,-1.197582 4.437716,-2.180694 2.843889,2.843884 -2.180699,4.437712 -1.197576,1.48597 -2.053402,1.778554 3.647733,4.753825 2.249421,-1.523112 1.745287,-0.772177 4.850918,-0.957826 2.010926,3.483037 -3.254961,3.722102 -1.541367,1.12538 -2.443749,1.186498 2.293054,5.535934 2.566987,-0.889013 1.885659,-0.294146 4.933534,0.330313 1.040932,3.8848203 -4.107404,2.752835 -1.780102,0.688095 -2.667589,0.5135738 z"
         inkscape:connector-curvature="0" />
    </g>
    <g
       transform="translate(99.20714,63.028575)"
       inkscape:label="Gear24"
       id="g4863" />
    <path
       style="opacity:1;fill:none;fill-opacity:1;fill-rule:nonzero;stroke:#ff0000;stroke-width:0.35277781;stroke-linecap:round;stroke-linejoin:round;stroke-miterlimit:4;stroke-dasharray:none;stroke-dashoffset:0;stroke-opacity:1"
       id="path4869"
       inkscape:path-effect="#path-effect4871"
       sodipodi:type="arc"
       sodipodi:cx="126.59682"
       sodipodi:cy="145.24367"
       sodipodi:rx="39.284325"
       sodipodi:ry="32.480751"
       d="m 164.41114,141.7601 c 0,0 1.42099,-1.9494 5.81613,-3.65363 0.69288,0.56038 1.3702,1.13972 2.0312,1.73737 -1.00242,4.60617 -2.70802,6.31214 -2.70802,6.31214 l -0.73178,0.72806 c 0.97689,0.98187 1.90352,2.0125 2.77633,3.08795 l 0.80151,-0.65049 c 0,0 1.87712,-1.51521 6.56359,-2.02382 0.52423,0.72062 1.02853,1.45552 1.51232,2.20389 -2.16042,4.18977 -4.24945,5.39617 -4.24945,5.39617 l -0.89528,0.51385 c 0.68948,1.20126 1.31778,2.4366 1.88251,3.7013 l 0.94256,-0.42088 c 0,0 2.20532,-0.97774 6.86374,-0.25607 0.31986,0.83174 0.61677,1.67212 0.89038,2.5202 -3.1712,3.48786 -5.50128,4.11246 -5.50128,4.11246 l -0.99777,0.26464 c 0.35508,1.33877 0.64224,2.69463 0.8604,4.0624 l 1.01938,-0.16259 c 0,0 2.38323,-0.37364 6.69613,1.52912 0.0937,0.88619 0.16297,1.77479 0.20777,2.66478 -3.96587,2.54824 -6.37822,2.5485 -6.37822,2.5485 l -1.03226,-0.003 c -0.004,1.38506 -0.0771,2.76905 -0.22035,4.14667 l 1.02673,0.10679 c 0,0 2.39873,0.25591 6.0722,3.2101 -0.13886,0.88024 -0.30193,1.75649 -0.489,2.62776 -4.49028,1.43497 -6.82049,0.81085 -6.82049,0.81085 l -0.9964,-0.2697 c -0.36189,1.33694 -0.79113,2.65474 -1.28609,3.94834 l 0.96411,0.36889 c 0,0 2.25076,0.86803 5.03446,4.67232 -0.36195,0.81431 -0.74625,1.61849 -1.15246,2.41165 -4.70866,0.22391 -6.79794,-0.98204 -6.79794,-0.98204 l -0.89265,-0.51841 c -0.69558,1.19773 -1.45127,2.35953 -2.26417,3.48095 l 0.83578,0.60584 c 0,0 1.94941,1.42099 3.65363,5.81613 -0.56038,0.69288 -1.13972,1.3702 -1.73737,2.0312 -4.60617,-1.00241 -6.31214,-2.70802 -6.31214,-2.70802 l -0.72806,-0.73178 c -0.98187,0.97689 -2.0125,1.90352 -3.08795,2.77633 l 0.6505,0.80152 c 0,0 1.5152,1.87711 2.02381,6.56358 -0.72062,0.52423 -1.45552,1.02853 -2.20389,1.51232 -4.18977,-2.16042 -5.39616,-4.24945 -5.39616,-4.24945 l -0.51386,-0.89527 c -1.20125,0.68947 -2.4366,1.31777 -3.7013,1.8825 l 0.42088,0.94256 c 0,0 0.97774,2.20532 0.25608,6.86374 -0.83175,0.31986 -1.67213,0.61677 -2.52021,0.89038 -3.48785,-3.1712 -4.11246,-5.50128 -4.11246,-5.50128 l -0.26463,-0.99777 c -1.33877,0.35508 -2.69464,0.64224 -4.06241,0.8604 l 0.16259,1.01938 c 0,0 0.37364,2.38323 -1.52912,6.69613 -0.88619,0.0937 -1.77478,0.16298 -2.66478,0.20777 -2.54824,-3.96587 -2.5485,-6.37822 -2.5485,-6.37822 l 0.003,-1.03226 c -1.38505,-0.004 -2.76904,-0.0771 -4.14667,-0.22035 l -0.10679,1.02673 c 0,0 -0.25591,2.39873 -3.2101,6.0722 -0.88024,-0.13886 -1.75649,-0.30192 -2.62776,-0.489 -1.43496,-4.49027 -0.81085,-6.82049 -0.81085,-6.82049 l 0.26971,-0.9964 c -1.33695,-0.36189 -2.65475,-0.79113 -3.94835,-1.28608 l -0.36888,0.9641 c 0,0 -0.86803,2.25076 -4.67233,5.03446 -0.8143,-0.36195 -1.61849,-0.74625 -2.41165,-1.15246 -0.2239,-4.70866 0.98205,-6.79794 0.98205,-6.79794 l 0.5184,-0.89265 c -1.19773,-0.69558 -2.35953,-1.45127 -3.48094,-2.26417 l -0.60585,0.83578 c 0,0 -1.42099,1.94941 -5.81613,3.65363 -0.69288,-0.56038 -1.3702,-1.13972 -2.0312,-1.73737 1.00242,-4.60617 2.70802,-6.31214 2.70802,-6.31214 l 0.73178,-0.72806 c -0.97689,-0.98187 -1.90352,-2.0125 -2.77633,-3.08795 l -0.80151,0.6505 c 0,0 -1.87712,1.5152 -6.56359,2.02381 -0.524229,-0.72062 -1.028527,-1.45552 -1.512319,-2.20388 2.160429,-4.18978 4.249449,-5.39617 4.249449,-5.39617 l 0.89528,-0.51386 c -0.68948,-1.20125 -1.31778,-2.4366 -1.88251,-3.7013 l -0.94256,0.42088 c 0,0 -2.205321,0.97774 -6.863739,0.25608 -0.319859,-0.83174 -0.616766,-1.67213 -0.890383,-2.52021 3.171204,-3.48785 5.501284,-4.11246 5.501284,-4.11246 l 0.997767,-0.26463 c -0.355075,-1.33877 -0.642239,-2.69464 -0.860394,-4.06241 l -1.019379,0.16259 c 0,0 -2.383233,0.37364 -6.696137,-1.52912 -0.09369,-0.88619 -0.162972,-1.77478 -0.207767,-2.66478 3.965871,-2.54824 6.378216,-2.5485 6.378216,-2.5485 l 1.03226,0.003 c 0.0035,-1.38505 0.07707,-2.76904 0.220352,-4.14667 l -1.026725,-0.10679 c 0,0 -2.398733,-0.25591 -6.072207,-3.2101 0.138864,-0.88024 0.301929,-1.75649 0.489009,-2.62776 4.49027,-1.43496 6.820482,-0.81085 6.820482,-0.81085 l 0.996411,0.26971 c 0.36188,-1.33695 0.79112,-2.65475 1.28608,-3.94835 l -0.96411,-0.36888 c 0,0 -2.250757,-0.86803 -5.03446,-4.67233 0.361955,-0.8143 0.746253,-1.61849 1.152459,-2.41165 4.708661,-0.2239 6.797941,0.98205 6.797941,0.98205 l 0.89265,0.5184 c 0.69558,-1.19773 1.45127,-2.35953 2.26417,-3.48094 l -0.83578,-0.60585 c 0,0 -1.9494,-1.42099 -3.65363,-5.81613 0.56038,-0.69288 1.13972,-1.3702 1.73737,-2.0312 4.60617,1.00242 6.31214,2.70802 6.31214,2.70802 l 0.72806,0.73178 c 0.98187,-0.97689 2.0125,-1.90352 3.08795,-2.77633 l -0.65049,-0.80151 c 0,0 -1.51521,-1.87712 -2.02382,-6.56359 0.72062,-0.52423 1.45552,-1.02853 2.20389,-1.51232 4.18977,2.16043 5.39617,4.24945 5.39617,4.24945 l 0.51385,0.89528 c 1.20126,-0.68948 2.4366,-1.31778 3.7013,-1.88251 l -0.42088,-0.94256 c 0,0 -0.97774,-2.20532 -0.25607,-6.86374 0.83174,-0.31986 1.67212,-0.61676 2.5202,-0.89038 3.48786,3.1712 4.11246,5.50128 4.11246,5.50128 l 0.26463,0.99777 c 1.33878,-0.35508 2.69464,-0.64224 4.06241,-0.86039 l -0.16259,-1.01938 c 0,0 -0.37364,-2.38324 1.52912,-6.69614 0.88619,-0.0937 1.77479,-0.16297 2.66478,-0.20777 2.54824,3.96587 2.5485,6.37822 2.5485,6.37822 l -0.003,1.03226 c 1.38506,0.004 2.76905,0.0771 4.14667,0.22035 l 0.10679,-1.02672 c 0,0 0.25591,-2.39874 3.2101,-6.07221 0.88024,0.13886 1.75649,0.30193 2.62776,0.48901 1.43497,4.49027 0.81085,6.82048 0.81085,6.82048 l -0.2697,0.99641 c 1.33694,0.36188 2.65474,0.79112 3.94834,1.28608 l 0.36889,-0.9641 c 0,0 0.86803,-2.25077 4.67232,-5.03447 0.8143,0.36196 1.61849,0.74625 2.41165,1.15246 0.22391,4.70866 -0.98205,6.79794 -0.98205,6.79794 l -0.5184,0.89265 c 1.19773,0.69558 2.35953,1.45127 3.48095,2.26417 l 0.60584,-0.83578 m -54.8008,-3.46298 c 0,0 1.71812,1.06996 2.71039,4.81542 -0.46258,0.59573 -0.95265,1.16958 -1.46864,1.7197 -3.85461,-0.39382 -5.18029,-1.92331 -5.18029,-1.92331 l -1.62038,-1.89946 c -1.092,0.93155 -2.29881,1.71942 -3.59097,2.34437 l 1.08708,2.24764 c 0,0 0.86691,1.829 -0.32329,5.51634 -0.71122,0.25107 -1.43375,0.46888 -2.165241,0.6527 -3.029783,-2.41526 -3.318122,-4.41867 -3.318122,-4.41867 l -0.336221,-2.47397 c -1.422284,0.19329 -2.863466,0.20364 -4.288378,0.0308 l -0.30066,2.47855 c 0,0 -0.259538,2.00734 -3.254324,4.46586 -0.734056,-0.1733 -1.459639,-0.3807 -2.17439,-0.62154 -1.243027,-3.66987 -0.402471,-5.51112 -0.402471,-5.51112 l 1.054684,-2.26302 c -1.301003,-0.60634 -2.518997,-1.37679 -3.624261,-2.29257 l -1.592935,1.92254 c 0,0 -1.303587,1.54837 -5.152138,1.9975 -0.523835,-0.54265 -1.022104,-1.10941 -1.493186,-1.69843 0.93838,-3.75932 2.640961,-4.85385 2.640961,-4.85385 l 2.110736,-1.33356 c -0.766664,-1.21346 -1.374766,-2.52011 -1.809468,-3.88806 l -2.379465,0.75614 c 0,0 -1.933756,0.59779 -5.414184,-1.10505 -0.147301,-0.73972 -0.260058,-1.48589 -0.337906,-2.23609 2.821859,-2.65522 4.845906,-2.65551 4.845906,-2.65551 l 2.496643,0.0193 c 0.01109,-1.43531 0.205945,-2.8633 0.57982,-4.24911 l -2.410532,-0.65033 c 0,0 -1.949971,-0.54257 -3.957264,-3.85676 0.276,-0.70192 0.584553,-1.3906 0.924656,-2.0638 3.809417,-0.7081 5.512311,0.38594 5.512311,0.38594 l 2.089884,1.36601 c 0.785316,-1.20147 1.721269,-2.29742 2.785018,-3.26111 l -1.676272,-1.85032 c 0,0 -1.347084,-1.51068 -1.243942,-5.38397 0.611674,-0.44128 1.243575,-0.85382 1.893647,-1.23628 3.587513,1.46384 4.428596,3.30485 4.428596,3.30485 l 1.019602,2.27904 c 1.310214,-0.58616 2.690102,-1.00212 4.105993,-1.23772 l -0.409808,-2.46286 c 0,0 -0.316507,-1.99914 1.864324,-5.2018 0.753145,-0.0405 1.507769,-0.046 2.261418,-0.0162 2.226598,3.17101 1.938833,5.1745 1.938833,5.1745 l -0.374397,2.46848 c 1.419128,0.21524 2.804848,0.61134 4.123344,1.17863 l 0.986769,-2.29344 c 0,0 0.81456,-1.85291 4.38068,-3.36811 0.6555,0.37308 1.29326,0.7765 1.9112,1.20895 0.15876,3.87142 -1.16649,5.40128 -1.16649,5.40128 l -1.64953,1.87421 c 1.07748,0.94831 2.02907,2.03071 2.83156,3.22077 l 2.07005,-1.39588 c 0,0 1.68701,-1.11838 5.50621,-0.46506 0.34973,0.66825 0.66814,1.35243 0.95419,2.05031 -1.95949,3.34268 -3.90147,3.91319 -3.90147,3.91319 l -2.40094,0.68489 c 0.39374,1.38029 0.60908,2.80533 0.64078,4.24034 l 2.49611,-0.0551 c 0,0 2.02384,-0.0288 4.88354,2.58564 -0.0671,0.75125 -0.1691,1.49896 -0.30576,2.24071 -3.45562,1.75265 -5.39776,1.18269 -5.39776,1.18269 l -2.39008,-0.72189 c -0.41501,1.37405 -1.00428,2.6893 -1.75344,3.91364 l 2.12967,1.30312 m 12.35762,-41.462431 c 0,0 -1.2399,-1.624378 -0.93793,-5.53801 0.65629,-0.409044 1.3304,-0.788775 2.02035,-1.138075 3.50357,1.769934 4.25024,3.672156 4.25024,3.672156 l 0.85588,2.225137 c 1.3497,-0.519154 2.75512,-0.879819 4.18802,-1.074749 l -0.32136,-2.362308 c 0,0 -0.2616,-2.026703 1.95674,-5.265019 0.77288,-0.0261 1.54654,-0.0179 2.3187,0.02457 2.14922,3.284595 1.84474,5.305299 1.84474,5.305299 l -0.37135,2.354969 c 1.42845,0.225249 2.82591,0.615613 4.1643,1.16325 l 0.90285,-2.206502 c 0,0 0.7868,-1.885973 4.3271,-3.58127 0.68238,0.363841 1.34829,0.757772 1.99577,1.180631 0.21898,3.919151 -1.05506,5.516892 -1.05506,5.516892 l -1.49908,1.853788 c 1.12444,0.909296 2.1395,1.946093 3.02476,3.089553 l 1.88514,-1.45946 c 0,0 1.62438,-1.2399 5.53801,-0.937923 0.40905,0.656293 0.78878,1.330403 1.13808,2.020343 -1.76994,3.50357 -3.67216,4.25024 -3.67216,4.25024 l -2.22514,0.85588 c 0.51916,1.3497 0.87982,2.75512 1.07475,4.18802 l 2.36231,-0.32136 c 0,0 2.0267,-0.2616 5.26502,1.95674 0.0261,0.77288 0.0179,1.54655 -0.0246,2.3187 -3.28459,2.14922 -5.3053,1.84474 -5.3053,1.84474 l -2.35497,-0.37135 c -0.22525,1.42845 -0.61561,2.82591 -1.16325,4.16431 l 2.2065,0.90284 c 0,0 1.88598,0.7868 3.58127,4.3271 -0.36384,0.68238 -0.75777,1.3483 -1.18063,1.99577 -3.91915,0.21898 -5.51689,-1.05506 -5.51689,-1.05506 l -1.85379,-1.49908 c -0.90929,1.12445 -1.94609,2.1395 -3.08955,3.02477 l 1.45946,1.88513 c 0,0 1.2399,1.62438 0.93792,5.53801 -0.65628,0.40905 -1.33039,0.78878 -2.02034,1.13808 -3.50357,-1.76993 -4.25024,-3.67216 -4.25024,-3.67216 l -0.85588,-2.22513 c -1.3497,0.51915 -2.75512,0.87981 -4.18802,1.07474 l 0.32136,2.36231 c 0,0 0.2616,2.02671 -1.95674,5.26502 -0.77288,0.0261 -1.54654,0.0179 -2.3187,-0.0246 -2.14922,-3.28459 -1.84474,-5.3053 -1.84474,-5.3053 l 0.37135,-2.35497 c -1.42845,-0.22524 -2.82591,-0.61561 -4.16431,-1.16325 l -0.90284,2.20651 c 0,0 -0.7868,1.88597 -4.3271,3.58127 -0.68238,-0.36384 -1.3483,-0.75778 -1.99577,-1.18063 -0.21898,-3.91916 1.05506,-5.5169 1.05506,-5.5169 l 1.49908,-1.85378 c -1.12445,-0.9093 -2.1395,-1.9461 -3.02477,-3.08956 l -1.88513,1.45946 c 0,0 -1.62438,1.2399 -5.53801,0.93793 -0.40905,-0.65629 -0.78878,-1.3304 -1.13808,-2.02035 1.76994,-3.50357 3.67216,-4.25023 3.67216,-4.25023 l 2.22513,-0.85589 c -0.51915,-1.3497 -0.87981,-2.75512 -1.07474,-4.18802 l -2.36231,0.32136 c 0,0 -2.0267,0.2616 -5.26502,-1.95674 -0.0261,-0.77288 -0.0179,-1.54654 0.0246,-2.3187 3.28459,-2.14922 5.3053,-1.84474 5.3053,-1.84474 l 2.35497,0.37135 c 0.22524,-1.42845 0.61561,-2.82591 1.16325,-4.1643 l -2.20651,-0.90285 c 0,0 -1.88597,-0.7868 -3.58127,-4.32709 0.36385,-0.68239 0.75778,-1.348304 1.18063,-1.995778 3.91916,-0.21898 5.5169,1.055058 5.5169,1.055058 l 1.85378,1.49909 c 0.9093,-1.12445 1.9461,-2.139509 3.08956,-3.024774 l -1.45946,-1.885137 m 0.33423,56.062861 c 0,0 -1.09434,1.80621 -4.90809,1.63482 -0.36945,-0.36603 -0.71674,-0.75378 -1.04,-1.16118 0.24826,-3.80952 2.16368,-4.69899 2.16368,-4.69899 l 2.92052,-1.23939 c -0.44003,-1.03689 -0.55737,-2.18232 -0.33672,-3.2869 l -3.11115,-0.62149 c 0,0 -2.05598,-0.48264 -3.07149,-4.16269 0.23395,-0.46448 0.49541,-0.91459 0.78297,-1.34793 3.69978,-0.94109 5.13762,0.60572 5.13762,0.60572 l 2.08122,2.39459 c 0.85016,-0.73891 1.90327,-1.20447 3.02197,-1.33594 l -0.37032,-3.15094 c 0,0 -0.17632,-2.10449 3.00981,-4.2075 0.51404,0.079 1.02291,0.18853 1.5239,0.32811 2.03833,3.22789 1.01154,5.07335 1.01154,5.07335 l -1.63425,2.71932 c 0.96546,0.58022 1.73366,1.43793 2.2044,2.46124 l 2.88228,-1.32588 c 0,0 1.94701,-0.81802 4.93165,1.5623 0.0837,0.51329 0.13679,1.03111 0.15886,1.55071 -2.44003,2.93604 -4.51245,2.52978 -4.51245,2.52978 l -3.09125,-0.71395 c -0.25348,1.09751 -0.83181,2.09315 -1.65958,2.85708 l 2.15167,2.33149 c 0,0 1.37963,1.59893 0.0381,5.17306 -0.46228,0.23826 -0.93837,0.44872 -1.42572,0.63028 -3.54635,-1.41332 -3.80039,-3.50986 -3.80039,-3.50986 l -0.27624,-3.16057 c -1.12212,0.0981 -2.24775,-0.14428 -3.23008,-0.69547 l -1.55248,2.76683 m 61.02405,14.35546 c 0,0 1.3267,1.68924 1.37657,5.85174 -0.68701,0.46411 -1.39095,0.90266 -2.11038,1.31473 -3.71428,-1.87964 -4.64571,-3.81513 -4.64571,-3.81513 l -0.83064,-1.74594 c -1.3117,0.62405 -2.67311,1.13773 -4.07011,1.53571 l 0.52972,1.85948 c 0,0 0.57928,2.06836 -0.96757,5.93309 -0.81232,0.16588 -1.6305,0.30165 -2.45286,0.40705 -2.71224,-3.15796 -2.83209,-5.30256 -2.83209,-5.30256 l -0.0993,-1.93091 c -1.45067,0.0746 -2.90503,0.0282 -4.34798,-0.13876 l -0.22219,1.92066 c 0,0 -0.25635,2.13259 -3.16442,5.11119 -0.81397,-0.15761 -1.62182,-0.34528 -2.42192,-0.56261 -1.29728,-3.9555 -0.58731,-5.98271 -0.58731,-5.98271 l 0.64721,-1.82193 c -1.36878,-0.48624 -2.69467,-1.08568 -3.9639,-1.79209 l -0.94028,1.68943 c 0,0 -1.05294,1.87215 -4.87951,3.51115 -0.69169,-0.45711 -1.36624,-0.93964 -2.02226,-1.44661 0.31517,-4.15086 1.74688,-5.75206 1.74688,-5.75206 l 1.29517,-1.43557 c -1.07852,-0.97303 -2.07408,-2.03424 -2.97637,-3.1726 l -1.51523,1.201 c 0,0 -1.68923,1.32671 -5.85173,1.37658 -0.46412,-0.68701 -0.90266,-1.39095 -1.31473,-2.11038 1.87964,-3.71428 3.81513,-4.64571 3.81513,-4.64571 l 1.74594,-0.83065 c -0.62405,-1.3117 -1.13773,-2.67311 -1.53571,-4.07011 l -1.85948,0.52973 c 0,0 -2.06836,0.57928 -5.9331,-0.96757 -0.16587,-0.81233 -0.30165,-1.6305 -0.40704,-2.45286 3.15796,-2.71224 5.30255,-2.83209 5.30255,-2.83209 l 1.93092,-0.0993 c -0.0746,-1.45066 -0.0282,-2.90502 0.13876,-4.34798 l -1.92066,-0.22219 c 0,0 -2.13259,-0.25634 -5.11119,-3.16441 0.15761,-0.81397 0.34528,-1.62183 0.56261,-2.42192 3.9555,-1.29729 5.98271,-0.58731 5.98271,-0.58731 l 1.82193,0.64721 c 0.48624,-1.36878 1.08567,-2.69467 1.79209,-3.96391 l -1.68943,-0.94028 c 0,0 -1.87215,-1.05294 -3.51115,-4.87951 0.45711,-0.69169 0.93964,-1.36624 1.44661,-2.02226 4.15086,0.31517 5.75206,1.74689 5.75206,1.74689 l 1.43556,1.29516 c 0.97304,-1.07851 2.03424,-2.07408 3.17261,-2.97637 l -1.201,-1.51522 c 0,0 -1.32671,-1.68923 -1.37658,-5.85174 0.68701,-0.46411 1.39095,-0.90265 2.11038,-1.31473 3.71428,1.87965 4.64571,3.81513 4.64571,3.81513 l 0.83065,1.74594 c 1.31169,-0.62405 2.67311,-1.13773 4.07011,-1.5357 l -0.52973,-1.85949 c 0,0 -0.57928,-2.06835 0.96757,-5.93309 0.81232,-0.16588 1.6305,-0.30165 2.45286,-0.40704 2.71224,3.15795 2.83209,5.30255 2.83209,5.30255 l 0.0993,1.93092 c 1.45066,-0.0746 2.90502,-0.0282 4.34798,0.13875 l 0.22219,-1.92066 c 0,0 0.25634,-2.13259 3.16441,-5.11118 0.81397,0.15761 1.62183,0.34527 2.42192,0.56261 1.29728,3.9555 0.58731,5.98271 0.58731,5.98271 l -0.64721,1.82192 c 1.36878,0.48624 2.69467,1.08568 3.96391,1.7921 l 0.94028,-1.68943 c 0,0 1.05294,-1.87216 4.87951,-3.51115 0.69169,0.4571 1.36623,0.93964 2.02225,1.44661 -0.31517,4.15085 -1.74688,5.75206 -1.74688,5.75206 l -1.29516,1.43556 c 1.07851,0.97304 2.07408,2.03424 2.97637,3.1726 l 1.51522,-1.201 c 0,0 1.68923,-1.3267 5.85174,-1.37657 0.46411,0.68701 0.90265,1.39095 1.31472,2.11038 -1.87964,3.71428 -3.81512,4.64571 -3.81512,4.64571 l -1.74594,0.83064 c 0.62405,1.3117 1.13773,2.67311 1.5357,4.07011 l 1.85949,-0.52973 c 0,0 2.06835,-0.57927 5.93309,0.96758 0.16588,0.81232 0.30165,1.6305 0.40704,2.45286 -3.15795,2.71224 -5.30255,2.83209 -5.30255,2.83209 l -1.93092,0.0993 c 0.0746,1.45067 0.0282,2.90502 -0.13875,4.34798 l 1.92065,0.22219 c 0,0 2.1326,0.25635 5.11119,3.16442 -0.15761,0.81397 -0.34527,1.62182 -0.56261,2.42192 -3.9555,1.29728 -5.98271,0.58731 -5.98271,0.58731 l -1.82192,-0.64722 c -0.48624,1.36879 -1.08568,2.69468 -1.7921,3.96391 l 1.68943,0.94028 c 0,0 1.87216,1.05294 3.51115,4.87951 -0.4571,0.69169 -0.93964,1.36624 -1.44661,2.02226 -4.15085,-0.31517 -5.75206,-1.74688 -5.75206,-1.74688 l -1.43556,-1.29517 c -0.97304,1.07852 -2.03424,2.07408 -3.1726,2.97637 l 1.201,1.51522"
       transform="translate(-313.72024,85.42262)"
       sodipodi:start="0"
       sodipodi:end="4.9243783" />
    <path
       style="opacity:1;fill:none;fill-opacity:1;fill-rule:nonzero;stroke:#ff0000;stroke-width:1.33333337;stroke-linecap:round;stroke-linejoin:round;stroke-miterlimit:4;stroke-dasharray:none;stroke-dashoffset:0;stroke-opacity:1"
       d="m 518.77344,344.67578 c -3.36374,0.16932 -6.72289,0.43102 -10.07227,0.78516 -7.19153,16.30072 -5.7793,25.30664 -5.77929,25.30664 l 0.61523,3.85351 c -5.16952,0.82451 -10.29356,1.90992 -15.35352,3.25196 l -1,-3.77149 c 0,0 -2.36049,-8.80538 -15.54297,-20.79101 -3.20534,1.03415 -6.3818,2.15631 -9.52539,3.36523 -2.72757,17.60663 0.9668,25.94141 0.9668,25.94141 l 1.5918,3.5625 c -4.77997,2.13441 -9.45004,4.50932 -13.99024,7.11523 l -1.9414,-3.38476 c 0,0 -4.55918,-7.89516 -20.39453,-16.06055 -2.82849,1.8285 -5.60648,3.73352 -8.33008,5.71484 1.9223,17.71265 7.64844,24.8086 7.64844,24.8086 l 2.45898,3.02929 c -4.06469,3.29881 -7.96086,6.80001 -11.67188,10.49219 l -2.75,-2.76562 c 0,0 -6.44827,-6.4457 -23.85742,-10.23438 -2.25883,2.49827 -4.44843,5.05898 -6.5664,7.67774 6.44118,16.61155 13.80859,21.98046 13.80859,21.98046 l 3.1582,2.29102 c -3.07237,4.2384 -5.92767,8.6294 -8.55664,13.15625 l -3.37304,-1.95898 c 0,0 -7.89683,-4.55913 -25.69336,-3.7129 -1.53525,2.99779 -2.98747,6.03757 -4.35547,9.11524 10.52107,14.37846 19.02734,17.66016 19.02734,17.66016 l 3.64258,1.39257 c -1.87071,4.8892 -3.49163,9.87079 -4.85938,14.92383 l -3.76562,-1.01953 c 0,0 -8.80821,-2.35902 -25.7793,3.06445 -0.70707,3.29299 -1.32281,6.60475 -1.84765,9.93164 13.884,11.16545 22.94922,12.13282 22.94922,12.13282 l 3.88085,0.40429 c -0.54145,5.20679 -0.81691,10.43704 -0.83203,15.67188 l -3.90234,-0.0117 c 0,0 -9.11635,0.002 -24.10547,9.63281 0.16931,3.36378 0.43105,6.72289 0.78516,10.07227 16.30074,7.19153 25.30664,5.7793 25.30664,5.77929 l 3.85351,-0.61523 c 0.82455,5.16952 1.90996,10.2936 3.25196,15.35352 l -3.77149,1 c 0,0 -8.80535,2.36053 -20.79101,15.54297 1.03414,3.20534 2.15632,6.3818 3.36523,9.52539 17.6066,2.72753 25.94141,-0.9668 25.94141,-0.9668 l 3.5625,-1.5918 c 2.13441,4.77997 4.50932,9.45008 7.11523,13.99024 l -3.38476,1.9414 c 0,0 -7.89516,4.55915 -16.06055,20.39453 1.8285,2.82845 3.73352,5.60648 5.71484,8.33008 17.71265,-1.9223 24.8086,-7.64844 24.8086,-7.64844 l 3.02929,-2.45898 c 3.29881,4.06469 6.80001,7.96086 10.49219,11.67188 l -2.76562,2.75 c 0,0 -6.4457,6.44827 -10.23438,23.85742 2.49827,2.25883 5.05898,4.44843 7.67774,6.5664 16.61155,-6.44114 21.98046,-13.80859 21.98046,-13.80859 l 2.29102,-3.1582 c 4.2384,3.07237 8.6294,5.92767 13.15625,8.55664 l -1.95898,3.37304 c 0,0 -4.55913,7.89685 -3.7129,25.69336 2.99779,1.53528 6.03757,2.98747 9.11524,4.35547 14.37846,-10.52107 17.66016,-19.02734 17.66016,-19.02734 l 1.39257,-3.64258 c 4.8892,1.87068 9.87079,3.49159 14.92383,4.85938 l -1.01953,3.76562 c 0,0 -2.35902,8.8082 3.06445,25.7793 3.29299,0.70707 6.60475,1.32283 9.93164,1.84765 11.16545,-13.88398 12.13282,-22.94922 12.13282,-22.94922 l 0.40429,-3.88085 c 5.20679,0.54141 10.43704,0.81691 15.67188,0.83203 l -0.0117,3.90234 c 0,0 0.002,9.11635 9.63281,24.10547 3.36378,-0.16929 6.72289,-0.43102 10.07227,-0.78516 7.19153,-16.30072 5.7793,-25.30664 5.77929,-25.30664 l -0.61523,-3.85351 c 5.16952,-0.82455 10.2936,-1.90992 15.35352,-3.25196 l 1,3.77149 c 0,0 2.36053,8.80538 15.54297,20.79101 3.20534,-1.03411 6.38176,-2.15631 9.52539,-3.36523 2.72753,-17.60663 -0.9668,-25.94141 -0.9668,-25.94141 l -1.5918,-3.5625 c 4.77997,-2.13441 9.45008,-4.50936 13.99024,-7.11523 l 1.9414,3.38476 c 0,0 4.55918,7.89518 20.39453,16.06055 2.82849,-1.8285 5.60648,-3.7335 8.33008,-5.71484 -1.9223,-17.71265 -7.64844,-24.8086 -7.64844,-24.8086 l -2.45898,-3.02929 c 4.06469,-3.29881 7.96086,-6.80001 11.67188,-10.49219 l 2.75,2.76562 c 0,0 6.44827,6.44574 23.85742,10.23438 2.25883,-2.49827 4.44843,-5.05898 6.5664,-7.67774 -6.44114,-16.61155 -13.80859,-21.98046 -13.80859,-21.98046 l -3.1582,-2.29102 c 3.07237,-4.23844 5.92767,-8.6294 8.55664,-13.15625 l 3.37304,1.95898 c 0,0 7.89685,4.55917 25.69336,3.7129 1.53528,-2.99779 2.98747,-6.03753 4.35547,-9.11524 C 685.21137,588.17824 676.7051,584.8965 676.7051,584.8965 l -3.64453,-1.39257 c 1.87071,-4.8892 3.49354,-9.87083 4.86133,-14.92383 l 3.76562,1.01953 c 0,0 8.80816,2.35905 25.7793,-3.06445 0.70703,-3.29299 1.32283,-6.60475 1.84765,-9.93164 -13.88398,-11.16545 -22.94922,-12.13282 -22.94922,-12.13282 l -3.88085,-0.40429 c 0.54141,-5.20676 0.81691,-10.43701 0.83203,-15.67188 l 3.90234,0.0117 c 0,0 9.11635,-0.002 24.10547,-9.63281 -0.16932,-3.36374 -0.43102,-6.72289 -0.78516,-10.07227 -16.30072,-7.19153 -25.30664,-5.7793 -25.30664,-5.77929 l -3.85351,0.61523 c -0.82455,-5.16952 -1.90992,-10.2936 -3.25196,-15.35352 l 3.77149,-1 c 0,0 8.80538,-2.36049 20.79101,-15.54297 -1.03411,-3.20534 -2.15631,-6.3818 -3.36523,-9.52539 -17.60663,-2.72757 -25.94141,0.9668 -25.94141,0.9668 l -3.5625,1.5918 c -2.13441,-4.77997 -4.50932,-9.45004 -7.11523,-13.99024 l 3.38476,-1.9414 c 0,0 7.89518,-4.55918 16.06055,-20.39453 -1.8285,-2.82849 -3.7335,-5.60648 -5.71484,-8.33008 -17.71265,1.9223 -24.8086,7.64844 -24.8086,7.64844 l -3.02929,2.45898 c -3.29881,-4.06469 -6.80001,-7.96086 -10.49219,-11.67188 l 2.76562,-2.75 c 0,2e-5 6.4457,-6.44827 10.23438,-23.85742 -2.49827,-2.25883 -5.05898,-4.44843 -7.67774,-6.5664 -16.61155,6.44118 -21.98046,13.80859 -21.98046,13.80859 l -2.29102,3.1582 c -4.23844,-3.07237 -8.6294,-5.92767 -13.15625,-8.55664 l 1.95898,-3.37304 c 0,0 4.55917,-7.89687 3.7129,-25.69336 -2.99779,-1.53528 -6.03757,-2.98743 -9.11524,-4.35547 -14.37842,10.52107 -17.66016,19.02734 -17.66016,19.02734 l -1.39257,3.64258 c -4.8892,-1.87071 -9.87083,-3.49163 -14.92383,-4.85938 l 1.01953,-3.76562 c 0,0 2.35905,-8.8082 -3.06445,-25.7793 -3.29299,-0.70707 -6.60475,-1.32283 -9.93164,-1.84765 -11.16545,13.88398 -12.13282,22.94922 -12.13282,22.94922 l -0.40429,3.88085 c -5.20676,-0.54141 -10.43701,-0.81691 -15.67188,-0.83203 l 0.0117,-3.90234 c 0,0 -0.002,-9.11635 -9.63281,-24.10547 z m 20.55468,52.5625 a 131.328,131.328 0 0 1 119.42383,119.4336 H 539.32812 Z m -22.65624,0.01 v 119.4236 H 397.23828 A 131.328,131.328 0 0 1 516.67188,397.24805 Z M 397.24805,539.32812 h 119.42383 v 119.4336 A 131.328,131.328 0 0 1 397.24805,539.32812 Z m 142.08007,0 h 119.4336 a 131.328,131.328 0 0 1 -119.4336,119.42383 z"
       transform="scale(0.26458334)"
       id="path4886"
       inkscape:connector-curvature="0" />
    <path
       style="opacity:1;fill:none;fill-opacity:1;fill-rule:nonzero;stroke:#ff0000;stroke-width:0.35277781;stroke-linecap:round;stroke-linejoin:round;stroke-miterlimit:4;stroke-dasharray:none;stroke-dashoffset:0;stroke-opacity:1"
       d="m 109.61034,138.29712 c 0,0 1.71812,1.06996 2.71039,4.81542 -0.46258,0.59573 -0.95265,1.16958 -1.46864,1.7197 -3.85461,-0.39382 -5.18029,-1.92331 -5.18029,-1.92331 l -1.62038,-1.89946 c -1.092,0.93155 -2.29881,1.71942 -3.59097,2.34437 l 1.08708,2.24764 c 0,0 0.86691,1.829 -0.32329,5.51634 -0.71122,0.25107 -1.43375,0.46888 -2.165241,0.6527 -3.029783,-2.41526 -3.318122,-4.41867 -3.318122,-4.41867 l -0.336221,-2.47397 c -1.422284,0.19329 -2.863466,0.20364 -4.288378,0.0308 l -0.30066,2.47855 c 0,0 -0.259538,2.00734 -3.254324,4.46586 -0.734056,-0.1733 -1.459639,-0.3807 -2.17439,-0.62154 -1.243027,-3.66987 -0.402471,-5.51112 -0.402471,-5.51112 l 1.054684,-2.26302 c -1.301003,-0.60634 -2.518997,-1.37679 -3.624261,-2.29257 l -1.592935,1.92254 c 0,0 -1.303587,1.54837 -5.152138,1.9975 -0.523835,-0.54265 -1.022104,-1.10941 -1.493186,-1.69843 0.93838,-3.75932 2.640961,-4.85385 2.640961,-4.85385 l 2.110736,-1.33356 c -0.766664,-1.21346 -1.374766,-2.52011 -1.809468,-3.88806 l -2.379465,0.75614 c 0,0 -1.933756,0.59779 -5.414184,-1.10505 -0.147301,-0.73972 -0.260058,-1.48589 -0.337906,-2.23609 2.821859,-2.65522 4.845906,-2.65551 4.845906,-2.65551 l 2.496643,0.0193 c 0.01109,-1.43531 0.205945,-2.8633 0.57982,-4.24911 l -2.410532,-0.65033 c 0,0 -1.949971,-0.54257 -3.957264,-3.85676 0.276,-0.70192 0.584553,-1.3906 0.924656,-2.0638 3.809417,-0.7081 5.512311,0.38594 5.512311,0.38594 l 2.089884,1.36601 c 0.785316,-1.20147 1.721269,-2.29742 2.785018,-3.26111 l -1.676272,-1.85032 c 0,0 -1.347084,-1.51068 -1.243942,-5.38397 0.611674,-0.44128 1.243575,-0.85382 1.893647,-1.23628 3.587513,1.46384 4.428596,3.30485 4.428596,3.30485 l 1.019602,2.27904 c 1.310214,-0.58616 2.690102,-1.00212 4.105993,-1.23772 l -0.409808,-2.46286 c 0,0 -0.316507,-1.99914 1.864324,-5.2018 0.753145,-0.0405 1.507769,-0.046 2.261418,-0.0162 2.226598,3.17101 1.938833,5.1745 1.938833,5.1745 l -0.374397,2.46848 c 1.419128,0.21524 2.804848,0.61134 4.123344,1.17863 l 0.986769,-2.29344 c 0,0 0.81456,-1.85291 4.38068,-3.36811 0.6555,0.37308 1.29326,0.7765 1.9112,1.20895 0.15876,3.87142 -1.16649,5.40128 -1.16649,5.40128 l -1.64953,1.87421 c 1.07748,0.94831 2.02907,2.03071 2.83156,3.22077 l 2.07005,-1.39588 c 0,0 1.68701,-1.11838 5.50621,-0.46506 0.34973,0.66825 0.66814,1.35243 0.95419,2.05031 -1.95949,3.34268 -3.90147,3.91319 -3.90147,3.91319 l -2.40094,0.68489 c 0.39374,1.38029 0.60908,2.80533 0.64078,4.24034 l 2.49611,-0.0551 c 0,0 2.02384,-0.0288 4.88354,2.58564 -0.0671,0.75125 -0.1691,1.49896 -0.30576,2.24071 -3.45562,1.75265 -5.39776,1.18269 -5.39776,1.18269 l -2.39008,-0.72189 c -0.41501,1.37405 -1.00428,2.6893 -1.75344,3.91364 l 2.12967,1.30312"
       transform="translate(-210.53274,-24.190477)"
       id="path4884"
       inkscape:connector-curvature="0" />
    <path
       style="opacity:1;fill:none;fill-opacity:1;fill-rule:nonzero;stroke:#ff0000;stroke-width:0.35277781;stroke-linecap:round;stroke-linejoin:round;stroke-miterlimit:4;stroke-dasharray:none;stroke-dashoffset:0;stroke-opacity:1"
       d="M 46.170827,3.6184863 V 75.024879 h 12.347049 v -2.958476 l 1.777154,0.280604 c 0,0 2.020511,0.304371 5.305102,-1.84485 0.0425,-0.772149 0.05091,-1.545841 0.02479,-2.318721 -3.23832,-2.218341 -5.265311,-1.956985 -5.265311,-1.956985 l -1.841749,0.250629 v -6.207371 l 1.777153,0.280085 c 0,0 2.020512,0.304887 5.305103,-1.844331 0.0425,-0.772152 0.05091,-1.545841 0.02479,-2.318724 -3.23832,-2.218338 -5.265312,-1.956985 -5.265312,-1.956985 l -1.841748,0.250632 v -6.202207 l 1.744596,0.274918 c 0,0 2.020512,0.304372 5.305102,-1.844847 0.0425,-0.772152 0.05091,-1.545844 0.02479,-2.318724 -3.23832,-2.218338 -5.264793,-1.956469 -5.264793,-1.956469 l -1.809711,0.245981 v -6.198072 l 1.744597,0.275434 c 0,0 2.020512,0.304372 5.305102,-1.844847 0.0425,-0.772149 0.05091,-1.545841 0.02479,-2.318721 C 62.354,30.574491 60.327528,30.836363 60.327528,30.836363 l -1.809711,0.245978 V 24.88427 l 1.744597,0.275435 c 0,0 2.020511,0.304372 5.305102,-1.844848 0.0425,-0.772151 0.05091,-1.545842 0.02479,-2.318722 -3.23832,-2.21834 -5.264793,-1.956987 -5.264793,-1.956987 l -1.80971,0.24598 V 3.6184863 Z"
       id="rect4646"
       inkscape:connector-curvature="0"
       sodipodi:nodetypes="ccccccccccccccccccccccccccccccccccc" />
    <path
       style="opacity:1;fill:none;fill-opacity:1;fill-rule:nonzero;stroke:#ff0000;stroke-width:1.33333337;stroke-linecap:round;stroke-linejoin:round;stroke-miterlimit:4;stroke-dasharray:none;stroke-dashoffset:0;stroke-opacity:1"
       d="m 324.66602,96.814453 c -1.46096,-0.01548 -2.92226,0.0015 -4.38282,0.05078 -8.38427,12.239307 -7.39453,19.900387 -7.39453,19.900387 l 1.21485,8.92774 c -5.41569,0.73674 -10.72885,2.10034 -15.83008,4.0625 l -3.23438,-8.41016 c 0,0 -2.82066,-7.18939 -16.0625,-13.8789 -2.60768,1.32019 -5.15625,2.75479 -7.63672,4.30078 -1.1413,14.79168 3.54493,20.93164 3.54493,20.93164 l 5.51562,7.125 c -4.32174,3.34588 -8.24101,7.18175 -11.67773,11.43164 l -7.00586,-5.66602 c 0,0 -6.03899,-4.81397 -20.85157,-3.98632 -1.59817,2.44714 -3.08575,4.96385 -4.46093,7.54296 6.40743,13.38063 13.53515,16.35352 13.53515,16.35352 l 8.33985,3.41211 c -2.06982,5.05848 -3.54519,10.34137 -4.39649,15.74023 l -8.90039,-1.40429 c 0,0 -7.63853,-1.15038 -20.05273,6.97265 -0.16063,2.9184 -0.19045,5.84254 -0.0918,8.76368 12.23932,8.38427 19.89844,7.39453 19.89844,7.39453 l 8.92773,-1.21485 c 0.73675,5.41569 2.10036,10.72885 4.0625,15.83008 l -8.41015,3.23438 c 0,0 -7.18937,2.82261 -13.87891,16.06445 1.32019,2.60768 2.75477,5.1543 4.30078,7.63476 14.79168,1.14131 20.93164,-3.54492 20.93164,-3.54492 l 7.125,-5.51562 c 3.3459,4.32174 7.18175,8.24101 11.43164,11.67773 l -5.66406,7.00586 c 0,0 -4.81592,6.03899 -3.98828,20.85156 2.44713,1.59818 4.96389,3.08775 7.54297,4.46289 13.38066,-6.40743 16.35351,-13.53711 16.35351,-13.53711 l 3.41211,-8.33789 c 5.05852,2.06982 10.34137,3.54519 15.74024,4.39649 l -1.4043,8.90039 c 0,0 -1.15038,7.63658 6.97266,20.05078 2.9184,0.16063 5.84255,0.1924 8.76367,0.0937 8.38428,-12.23928 7.39648,-19.90039 7.39648,-19.90039 l -1.21484,-8.92773 c 5.41568,-0.73675 10.7269,-2.10036 15.82812,-4.0625 l 3.23438,8.41015 c 0,0 2.82261,7.18941 16.06445,13.87891 2.60769,-1.32019 5.15434,-2.75477 7.63477,-4.30078 1.14134,-14.79168 -3.54297,-20.93164 -3.54297,-20.93164 l -5.51758,-7.125 c 4.32174,-3.34591 8.24105,-7.18175 11.67773,-11.43164 l 7.00586,5.66601 c 0,0 6.03903,4.81397 20.85157,3.98633 1.59821,-2.44713 3.08774,-4.9639 4.46289,-7.54297 -6.4074,-13.38066 -13.53516,-16.35352 -13.53516,-16.35351 l -8.33984,-3.41211 c 2.06982,-5.05852 3.54514,-10.34137 4.39648,-15.74024 l 8.90039,1.4043 c 0,0 7.63659,1.15038 20.05078,-6.97266 0.16063,-2.91836 0.1924,-5.84255 0.0937,-8.76367 -12.23932,-8.38428 -19.90039,-7.39453 -19.90039,-7.39453 l -8.92773,1.21484 c -0.73674,-5.41568 -2.10032,-10.72885 -4.0625,-15.83008 l 8.41016,-3.23437 c 0,0 7.18936,-2.82261 13.8789,-16.06445 -1.32019,-2.60765 -2.75476,-5.1543 -4.30078,-7.63477 -14.79167,-1.14133 -20.93164,3.54492 -20.93164,3.54492 l -7.125,5.51563 c -3.34586,-4.32174 -7.18179,-8.24103 -11.43164,-11.67774 l 5.66601,-7.00586 c 0,0 4.81592,-6.03902 3.98829,-20.85156 -2.44717,-1.59821 -4.9639,-3.08579 -7.54297,-4.46094 -13.38066,6.40743 -16.35547,13.53516 -16.35547,13.53516 l -3.41211,8.33984 c -5.05848,-2.06981 -10.33942,-3.54515 -15.73828,-4.39648 l 1.40234,-8.90234 c 0,0 1.15038,-7.63657 -6.97265,-20.050787 -1.45921,-0.08026 -2.91991,-0.129049 -4.38086,-0.144531 z m -12.375,53.556637 v 33.94922 h -33.9375 a 46.719558,46.719558 0 0 1 33.9375,-33.94922 z m 22.65625,0.0117 a 46.719558,46.719558 0 0 1 33.95312,33.9375 h -33.95312 z m -56.60547,56.59375 h 33.94922 v 33.9375 a 46.719558,46.719558 0 0 1 -33.94922,-33.9375 z m 56.60547,0 h 33.93945 a 46.719558,46.719558 0 0 1 -33.93945,33.95117 z"
       transform="scale(0.26458334)"
       id="path4882"
       inkscape:connector-curvature="0" />
    <path
       style="opacity:1;fill:none;fill-opacity:1;fill-rule:nonzero;stroke:#ff0000;stroke-width:1.33333337;stroke-linecap:round;stroke-linejoin:round;stroke-miterlimit:4;stroke-dasharray:none;stroke-dashoffset:0;stroke-opacity:1"
       d="m 501.90625,118.66406 c -3.10813,0.39833 -6.2013,0.91212 -9.27148,1.53906 -5.84637,14.60692 -3.65625,22.42383 -3.65625,22.42383 l 2.00195,7.02735 c -5.28,1.50414 -10.42525,3.44607 -15.38281,5.80468 l -3.13868,-6.5996 c 0,0 -3.52037,-7.31378 -17.55859,-14.41797 -2.7191,1.55746 -5.37999,3.21463 -7.97656,4.96875 0.18848,15.73232 5.20312,22.11718 5.20312,22.11718 l 4.53907,5.72657 c -4.30251,3.41023 -8.31456,7.17178 -11.99219,11.24804 l -5.42578,-4.89453 c 0,0 -6.05195,-5.41037 -21.74024,-6.60156 -1.9161,2.47944 -3.73913,5.02832 -5.46679,7.64258 6.19464,14.46262 13.27148,18.4414 13.27148,18.4414 l 6.38477,3.55469 c -2.66994,4.79713 -4.93568,9.80908 -6.77344,14.98242 l -6.88672,-2.44726 c 0,0 -7.66141,-2.68244 -22.61133,2.2207 -0.8214,3.02396 -1.53126,6.07592 -2.12695,9.15234 11.2577,10.99113 19.31836,11.96094 19.31836,11.96094 l 7.25976,0.83985 c -0.63103,5.4537 -0.80734,10.95078 -0.52539,16.43359 l -7.29687,0.375 c 0,0 -8.10542,0.45214 -20.04102,10.70312 0.39833,3.10814 0.9102,6.20127 1.53711,9.27149 14.60689,5.84636 22.42578,3.65625 22.42578,3.65625 l 7.02735,-2.00195 c 1.50417,5.28 3.44607,10.4252 5.80468,15.38281 l -6.59961,3.14062 c 0,0 -7.31577,3.52037 -14.41992,17.5586 1.55743,2.7191 3.2146,5.37999 4.96875,7.97656 15.73229,-0.18849 22.11719,-5.20313 22.11719,-5.20313 l 5.72656,-4.53906 c 3.41023,4.30246 7.17371,8.31264 11.25,11.99024 l -4.89453,5.42578 c 0,0 -5.41232,6.05194 -6.60351,21.74023 2.47944,1.91611 5.03027,3.73914 7.64453,5.4668 14.46262,-6.19465 18.4414,-13.26953 18.4414,-13.26953 l 3.55469,-6.38477 c 4.79709,2.6699 9.80713,4.93373 14.98047,6.77149 l -2.44531,6.88672 c 0,-3e-5 -2.68436,7.6614 2.21875,22.61132 3.024,0.82141 6.07787,1.53126 9.15429,2.12696 10.99113,-11.2577 11.95899,-19.31836 11.95899,-19.31836 l 0.83984,-7.25782 c 5.45367,0.63103 10.95075,0.80539 16.4336,0.52344 l 0.375,7.29883 c 0,0 0.45409,8.10542 10.70507,20.04102 3.10814,-0.39837 6.19933,-0.91212 9.26954,-1.53907 5.84636,-14.60685 3.6582,-22.42382 3.6582,-22.42382 l -2.00196,-7.02735 c 5.28002,-1.50418 10.42521,-3.44607 15.38282,-5.80469 l 3.13867,6.59766 c 0,0 3.52037,7.31577 17.55859,14.41992 2.71911,-1.55743 5.37999,-3.21463 7.97657,-4.96875 -0.18849,-15.73228 -5.20313,-22.11719 -5.20313,-22.11719 l -4.53906,-5.72656 c 4.30246,-3.41023 8.31455,-7.1737 11.99219,-11.25 l 5.42578,4.89649 c 0,0 6.05003,5.41037 21.73828,6.60156 1.91611,-2.47945 3.74113,-5.02832 5.46875,-7.64258 -6.19461,-14.46263 -13.27149,-18.44336 -13.27149,-18.44336 l -6.38476,-3.55273 c 2.66993,-4.79709 4.93568,-9.80905 6.77344,-14.98242 l 6.88671,2.44726 c 0,0 7.66141,2.6824 22.61133,-2.2207 0.82145,-3.024 1.53126,-6.07788 2.12696,-9.1543 -11.25767,-10.99113 -19.31836,-11.95898 -19.31836,-11.95898 l -7.25977,-0.83985 c 0.63099,-5.4537 0.80734,-10.95074 0.52539,-16.43359 l 7.29688,-0.375 c 0,0 8.10545,-0.45409 20.04101,-10.70508 -0.39832,-3.10813 -0.91016,-6.19934 -1.53711,-9.26953 -14.60689,-5.84636 -22.42578,-3.6582 -22.42578,-3.6582 l -7.02734,2.0039 c -1.50414,-5.28 -3.44608,-10.42716 -5.80469,-15.38476 l 6.59961,-3.13867 c 0,-3e-5 7.31577,-3.52038 14.41992,-17.5586 -1.55743,-2.7191 -3.21659,-5.37999 -4.9707,-7.97656 -15.73232,0.18848 -22.11524,5.20312 -22.11524,5.20312 l -5.72656,4.53907 c -3.41023,-4.30247 -7.17374,-8.31261 -11.25,-11.99024 l 4.89453,-5.42578 c 0,0 5.41232,-6.05198 6.60352,-21.74023 -2.47945,-1.91611 -5.03027,-3.73918 -7.64453,-5.4668 -14.46263,6.19461 -18.44141,13.26953 -18.44141,13.26953 l -3.55469,6.38477 c -4.79712,-2.66994 -9.80712,-4.93568 -14.98047,-6.77344 l 2.44532,-6.88477 c 0,0 2.68435,-7.66336 -2.21875,-22.61328 -3.02397,-0.82144 -6.07788,-1.52931 -9.1543,-2.125 -10.99113,11.25766 -11.96094,19.31641 -11.96094,19.31641 l -0.83984,7.25976 c -5.45371,-0.63099 -10.94883,-0.80539 -16.43164,-0.52343 l -0.37695,-7.29883 c 0,0 -0.45214,-8.10546 -10.70313,-20.04102 z m 4.82617,51.25586 v 64.43164 h -63.58398 a 75.714285,75.714285 0 0 1 63.58398,-64.43164 z m 22.65625,0.0391 a 75.714285,75.714285 0 0 1 63.58985,64.39258 h -63.58985 z m -86.24609,85.11329 h 63.58984 v 64.39257 a 75.714285,75.714285 0 0 1 -63.58984,-64.39257 z m 86.24609,0 h 63.58399 a 75.714285,75.714285 0 0 1 -63.58399,64.43164 z"
       transform="scale(0.26458334)"
       id="path4873"
       inkscape:connector-curvature="0" />
    <path
       inkscape:connector-curvature="0"
       id="path4903"
       d="m -35.846587,28.982412 2.36231,-0.32136 c 0,0 2.0267,-0.2616 5.26502,1.95674 0.0261,0.77288 0.0179,1.54655 -0.0246,2.3187 -3.28459,2.14922 -5.3053,1.84474 -5.3053,1.84474 l -2.35497,-0.37135 z"
       style="opacity:1;fill:none;fill-opacity:1;fill-rule:nonzero;stroke:#ff0000;stroke-width:0.35277781;stroke-linecap:round;stroke-linejoin:round;stroke-miterlimit:4;stroke-dasharray:none;stroke-dashoffset:0;stroke-opacity:1"
       sodipodi:nodetypes="ccccccc" />
    <path
       style="opacity:1;fill:none;fill-opacity:1;fill-rule:nonzero;stroke:#ff0000;stroke-width:1.33333337;stroke-linecap:round;stroke-linejoin:round;stroke-miterlimit:4;stroke-dasharray:none;stroke-dashoffset:0;stroke-opacity:1"
       d="m 718.62695,151.36328 c -1.46095,-0.0155 -2.92225,0.001 -4.38281,0.0508 -8.38428,12.23931 -7.39648,19.90039 -7.39648,19.90039 l 1.21484,8.92774 c -5.41568,0.73674 -10.7269,2.10034 -15.82812,4.0625 L 689,175.89453 c 0,0 -2.82261,-7.18938 -16.06445,-13.87891 -2.60769,1.3202 -5.15626,2.75479 -7.63672,4.30079 -1.14131,14.79168 3.54492,20.93164 3.54492,20.93164 l 5.51563,7.125 c -4.32175,3.34588 -8.23906,7.18175 -11.67579,11.43164 l -7.00781,-5.66602 c 0,0 -6.037,-4.81592 -20.84961,-3.98828 -1.59817,2.44715 -3.08771,4.96386 -4.46289,7.54297 6.40743,13.38062 13.53516,16.35547 13.53516,16.35547 l 8.33984,3.41211 c -2.06982,5.05848 -3.54518,10.33941 -4.39648,15.73828 l -8.90039,-1.40234 c 0,0 -7.63854,-1.15038 -20.05274,6.97265 -0.16063,2.9184 -0.19045,5.84255 -0.0918,8.76367 12.23931,8.38428 19.89843,7.39453 19.89843,7.39453 l 8.92969,-1.21484 c 0.73674,5.41569 2.09841,10.72885 4.06055,15.83008 l -8.41016,3.23437 c 0,0 -7.18937,2.82066 -13.87891,16.0625 1.32019,2.60769 2.75672,5.15626 4.30274,7.63672 14.79171,1.14131 20.92969,-3.54492 20.92969,-3.54492 l 7.125,-5.51562 c 3.3459,4.32173 7.1837,8.23905 11.43359,11.67578 l -5.66602,7.00781 c 0,0 -4.81592,6.03899 -3.98828,20.85156 2.44713,1.59818 4.9639,3.0858 7.54297,4.46094 13.38066,-6.40743 16.35547,-13.53516 16.35547,-13.53516 l 3.41211,-8.33984 c 5.05852,2.06982 10.33942,3.54518 15.73828,4.39648 l -1.40234,8.90039 c 0,0 -1.15234,7.63854 6.9707,20.05274 2.9184,0.16063 5.84255,0.19044 8.76367,0.0918 8.38428,-12.23929 7.39649,-19.89844 7.39649,-19.89844 l -1.21485,-8.92774 c 5.41569,-0.73674 10.7269,-2.10035 15.82813,-4.0625 L 746.1582,324.5 c 0,0 2.82262,7.18941 16.06446,13.87891 2.60768,-1.32019 5.15628,-2.75476 7.63672,-4.30079 1.14134,-14.79167 -3.54493,-20.93164 -3.54493,-20.93164 l -5.51562,-7.125 c 4.32174,-3.3459 8.23909,-7.18175 11.67578,-11.43164 l 7.00586,5.66407 c 0,0 6.03903,4.81592 20.85156,3.98828 1.59821,-2.44713 3.08775,-4.9639 4.46289,-7.54297 -6.40739,-13.38066 -13.53515,-16.35352 -13.53515,-16.35352 l -8.33985,-3.41211 c 2.06982,-5.05852 3.54515,-10.34136 4.39649,-15.74023 l 8.90039,1.4043 c 0,0 7.63853,1.15038 20.05273,-6.97266 0.16063,-2.91836 0.19044,-5.84255 0.0918,-8.76367 -12.23932,-8.38428 -19.89844,-7.39649 -19.89844,-7.39649 l -8.92969,1.21485 c -0.73674,-5.41569 -2.09836,-10.7269 -4.06054,-15.82813 l 8.4082,-3.23437 c 0,0 7.19132,-2.82262 13.88086,-16.06446 -1.32019,-2.60764 -2.75672,-5.15624 -4.30274,-7.63671 -14.79167,-1.14133 -20.92968,3.54492 -20.92968,3.54492 l -7.125,5.51758 c -3.34587,-4.32174 -7.18374,-8.24103 -11.4336,-11.67774 l 5.66602,-7.00586 c 0,0 4.81592,-6.03902 3.98828,-20.85156 -2.44717,-1.59821 -4.96389,-3.08774 -7.54297,-4.46289 -13.38066,6.40742 -16.35547,13.53516 -16.35547,13.53515 l -3.41211,8.33985 c -5.05848,-2.06981 -10.33941,-3.54515 -15.73828,-4.39649 l 1.40235,-8.90039 c 0,0 1.15233,-7.63656 -6.97071,-20.05078 -1.4592,-0.0803 -2.9199,-0.12905 -4.38086,-0.14453 z m -12.375,53.55274 v 33.95312 H 672.3125 a 46.719558,46.719558 0 0 1 33.93945,-33.95312 z m 22.6543,0.0137 a 46.719558,46.719558 0 0 1 33.95313,33.93945 h -33.95313 z m -56.60547,56.5957 h 33.95117 v 33.9375 a 46.719558,46.719558 0 0 1 -33.95117,-33.9375 z m 56.60547,0 h 33.93945 a 46.719558,46.719558 0 0 1 -33.93945,33.95117 z"
       transform="scale(0.26458334)"
       id="path4928"
       inkscape:connector-curvature="0" />
    <path
       sodipodi:nodetypes="ccccccccccccccccccccccccccccccccccc"
       inkscape:connector-curvature="0"
       id="path4930"
       d="M 253.70746,27.449056 H 178.5969 v 12.34705 h 2.95847 l -0.2806,1.77715 c 0,0 -0.30437,2.02052 1.84485,5.30511 0.77215,0.0425 1.54584,0.0509 2.31872,0.0248 2.21834,-3.23832 1.95699,-5.26531 1.95699,-5.26531 l -0.25063,-1.84175 h 6.20737 l -0.28009,1.77715 c 0,0 -0.30488,2.02051 1.84433,5.3051 0.77216,0.0425 1.54585,0.0509 2.31873,0.0248 2.21834,-3.23832 1.95698,-5.26531 1.95698,-5.26531 l -0.25063,-1.84175 h 6.20221 l -0.27492,1.7446 c 0,0 -0.30437,2.02051 1.84485,5.3051 0.77215,0.0425 1.54584,0.0509 2.31872,0.0248 2.21834,-3.23832 1.95647,-5.26479 1.95647,-5.26479 l -0.24598,-1.80971 h 6.19807 l -0.27543,1.74459 c 0,0 -0.30437,2.02052 1.84484,5.30511 0.77215,0.0425 1.54585,0.0509 2.31873,0.0248 2.21834,-3.23833 1.95646,-5.2648 1.95646,-5.2648 l -0.24597,-1.80975 h 6.19807 l -0.27544,1.7446 c 0,0 -0.30437,2.02051 1.84485,5.3051 0.77215,0.0425 1.54584,0.0509 2.31872,0.0248 2.21834,-3.23832 1.95699,-5.26479 1.95699,-5.26479 l -0.24598,-1.80971 h 19.37081 z"
       style="opacity:1;fill:none;fill-opacity:1;fill-rule:nonzero;stroke:#ff0000;stroke-width:0.35277781;stroke-linecap:round;stroke-linejoin:round;stroke-miterlimit:4;stroke-dasharray:none;stroke-dashoffset:0;stroke-opacity:1" />
    <path
       sodipodi:nodetypes="ccccccccccccccccccccccccccccccccccc"
       inkscape:connector-curvature="0"
       id="path4932"
       d="M 233.16705,276.23958 V 204.56592 H 220.82 v 2.95848 l -1.77715,-0.28061 c 0,0 -2.02051,-0.30437 -5.30511,1.84485 -0.0425,0.77215 -0.0509,1.54584 -0.0248,2.31872 3.23832,2.21834 5.26532,1.95699 5.26532,1.95699 l 1.84174,-0.25063 v 6.20737 l -1.77715,-0.28009 c 0,0 -2.02051,-0.30488 -5.3051,1.84434 -0.0425,0.77215 -0.0509,1.54584 -0.0248,2.31872 3.23832,2.21834 5.26531,1.95698 5.26531,1.95698 l 1.84175,-0.25063 v 6.20221 l -1.7446,-0.27492 c 0,0 -2.02051,-0.30437 -5.3051,1.84485 -0.0425,0.77215 -0.0509,1.54584 -0.0248,2.31872 3.23832,2.21834 5.26479,1.95647 5.26479,1.95647 l 1.80971,-0.24598 v 6.19807 l -1.74459,-0.27543 c 0,0 -2.02051,-0.30437 -5.3051,1.84485 -0.0425,0.77214 -0.0509,1.54584 -0.0248,2.31872 3.23832,2.21834 5.26479,1.95647 5.26479,1.95647 l 1.80971,-0.24598 v 6.19807 l -1.7446,-0.27544 c 0,0 -2.02051,-0.30437 -5.3051,1.84485 -0.0425,0.77215 -0.0509,1.54584 -0.0248,2.31872 3.23832,2.21834 5.26479,1.95699 5.26479,1.95699 l 1.80971,-0.24598 v 15.93391 z"
       style="opacity:1;fill:none;fill-opacity:1;fill-rule:nonzero;stroke:#ff0000;stroke-width:0.35277781;stroke-linecap:round;stroke-linejoin:round;stroke-miterlimit:4;stroke-dasharray:none;stroke-dashoffset:0;stroke-opacity:1" />
    <path
       style="opacity:1;fill:none;fill-opacity:1;fill-rule:nonzero;stroke:#ff0000;stroke-width:1.33333337;stroke-linecap:round;stroke-linejoin:round;stroke-miterlimit:4;stroke-dasharray:none;stroke-dashoffset:0;stroke-opacity:1"
       d="m 733.19336,762.23828 c -1.46096,-0.0155 -2.92225,10e-4 -4.38281,0.0508 -8.38428,12.23928 -7.39649,19.90039 -7.39649,19.90039 l 1.21485,8.92774 c -5.41569,0.73674 -10.7269,2.10036 -15.82813,4.0625 l -3.23437,-8.41016 c 0,0 -2.82262,-7.1894 -16.06446,-13.87891 -2.60768,1.3202 -5.15629,2.75477 -7.63672,4.30079 -1.14134,14.79167 3.54493,20.93164 3.54493,20.93164 l 5.51562,7.125 c -4.32174,3.3459 -8.23909,7.18175 -11.67578,11.43164 l -7.00586,-5.66602 c 0,0 -6.03903,-4.81397 -20.85156,-3.98633 -1.59821,2.44713 -3.08775,4.9639 -4.46289,7.54297 6.40739,13.38066 13.53515,16.35352 13.53515,16.35352 l 8.33985,3.41211 c -2.06982,5.05852 -3.54515,10.34137 -4.39649,15.74023 l -8.90039,-1.40429 c 0,-1e-5 -7.63658,-1.15038 -20.05078,6.97265 -0.16063,2.91836 -0.19239,5.84255 -0.0937,8.76367 12.23932,8.38428 19.89844,7.39453 19.89844,7.39453 l 8.92969,-1.21289 c 0.73674,5.41569 2.09836,10.7269 4.06054,15.82813 l -8.4082,3.23437 c 0,0 -7.19132,2.82262 -13.88086,16.06446 1.32019,2.60764 2.75672,5.1543 4.30273,7.63476 14.79169,1.14134 20.93165,-3.54492 20.93165,-3.54492 l 7.12304,-5.51562 c 3.34587,4.32173 7.18374,8.24104 11.4336,11.67773 l -5.66602,7.00586 c 0,0 -4.81592,6.03903 -3.98828,20.85156 2.44717,1.59821 4.96389,3.08775 7.54297,4.46289 13.38066,-6.40739 16.35547,-13.53711 16.35547,-13.53711 l 3.41211,-8.33789 c 5.05848,2.06982 10.33941,3.54515 15.73828,4.39649 l -1.40235,8.90039 c 0,0 -1.15233,7.63654 6.97071,20.05078 2.9184,0.16063 5.84255,0.19239 8.76367,0.0937 8.38428,-12.23932 7.39648,-19.90039 7.39648,-19.90039 l -1.21484,-8.92774 c 5.41568,-0.73674 10.7269,-2.10032 15.82812,-4.0625 l 3.23633,8.41016 c 0,0 2.82066,7.18937 16.0625,13.87891 2.60769,-1.32019 5.15626,-2.75476 7.63672,-4.30079 1.14131,-14.79167 -3.54492,-20.93164 -3.54492,-20.93164 l -5.51563,-7.125 c 4.32174,-3.34586 8.23906,-7.18175 11.67579,-11.43164 l 7.00781,5.66602 c 0,0 6.03703,4.81397 20.84961,3.98633 1.59817,-2.44717 3.08771,-4.96386 4.46289,-7.54297 C 812.9539,894.1936 805.82617,891.2207 805.82617,891.2207 l -8.33984,-3.41211 c 2.06982,-5.05848 3.54518,-10.34136 4.39648,-15.74023 l 8.90039,1.4043 c 0,0 7.63854,1.15038 20.05274,-6.97266 0.16063,-2.9184 0.19044,-5.84255 0.0918,-8.76367 -12.23932,-8.38428 -19.89843,-7.39453 -19.89843,-7.39453 l -8.92969,1.21484 c -0.73674,-5.41568 -2.09841,-10.72885 -4.06055,-15.83008 l 8.41016,-3.23437 c 0,0 7.18937,-2.82262 13.8789,-16.06446 -1.32018,-2.60768 -2.75671,-5.1543 -4.30273,-7.63476 -14.79167,-1.14131 -20.92969,3.54492 -20.92969,3.54492 l -7.125,5.51563 c -3.3459,-4.32174 -7.1837,-8.24101 -11.43359,-11.67774 l 5.66601,-7.00586 c 0,0 4.81593,-6.03899 3.98829,-20.85156 -2.44713,-1.59817 -4.9639,-3.08579 -7.54297,-4.46094 -13.38066,6.40743 -16.35547,13.53516 -16.35547,13.53516 l -3.41211,8.33984 c -5.05852,-2.06982 -10.33942,-3.54518 -15.73828,-4.39648 l 1.4043,-8.90235 c -10e-6,0 1.15037,-7.63658 -6.97266,-20.05078 -1.4592,-0.0803 -2.9199,-0.12903 -4.38086,-0.14453 z m -12.375,53.55469 v 33.95117 h -33.93945 a 46.719558,46.719558 0 0 1 33.93945,-33.95117 z m 22.6543,0.0137 a 46.719558,46.719558 0 0 1 33.95117,33.9375 h -33.95117 z m -56.60743,56.59375 h 33.95313 v 33.93945 a 46.719558,46.719558 0 0 1 -33.95313,-33.93945 z m 56.60743,0 h 33.93945 a 46.719558,46.719558 0 0 1 -33.93945,33.95313 z"
       transform="scale(0.26458334)"
       id="path4934"
       inkscape:connector-curvature="0" />
    <path
       style="opacity:1;fill:none;fill-opacity:1;fill-rule:nonzero;stroke:#ff0000;stroke-width:1.33333337;stroke-linecap:round;stroke-linejoin:round;stroke-miterlimit:4;stroke-dasharray:none;stroke-dashoffset:0;stroke-opacity:1"
       d="m 521.55078,685.96094 c -3.10813,0.39836 -6.2013,0.91211 -9.27148,1.53906 -5.84637,14.60685 -3.65625,22.42383 -3.65625,22.42383 l 2.00195,7.02929 c -5.28,1.50419 -10.42521,3.44413 -15.38281,5.80274 l -3.14063,-6.59766 c 0,0 -3.52037,-7.31577 -17.55859,-14.41992 -2.71911,1.55743 -5.37804,3.21463 -7.97461,4.96875 0.18848,15.73228 5.20117,22.11719 5.20117,22.11719 l 4.54102,5.72656 c -4.30247,3.41023 -8.31456,7.17371 -11.99219,11.25 l -5.42578,-4.89453 c 0,0 -6.05198,-5.41232 -21.74024,-6.60352 -1.9161,2.47945 -3.73917,5.02832 -5.46679,7.64258 6.1946,14.46263 13.26953,18.44336 13.26953,18.44336 l 6.38672,3.55274 c -2.66994,4.79709 -4.93568,9.80904 -6.77344,14.98242 l -6.88672,-2.44531 c 0,0 -7.66141,-2.68436 -22.61133,2.21875 -0.82144,3.024 -1.53126,6.07787 -2.12695,9.15429 11.25766,10.99113 19.31836,11.95899 19.31836,11.95899 l 7.25976,0.83984 c -0.63099,5.45371 -0.80734,10.95075 -0.52539,16.43359 l -7.29687,0.375 c 0,0 -8.10741,0.4541 -20.04297,10.70508 0.39832,3.10813 0.91211,6.19935 1.53906,9.26953 14.60689,5.84637 22.42383,3.65821 22.42383,3.65821 l 7.0293,-2.00196 c 1.50414,5.28 3.44412,10.42521 5.80273,15.38282 l -6.59765,3.13867 c 0,0 -7.31578,3.52037 -14.41993,17.55859 1.55743,2.71911 3.21464,5.37999 4.96875,7.97656 15.73232,-0.18848 22.11719,-5.20312 22.11719,-5.20312 l 5.72656,-4.53906 c 3.41023,4.30246 7.17375,8.3126 11.25,11.99023 l -4.89453,5.42578 c 0,0 -5.41232,6.05199 -6.60351,21.74024 2.47944,1.9161 5.02831,3.74112 7.64257,5.46875 14.46264,-6.19461 18.44336,-13.27149 18.44336,-13.27149 l 3.55274,-6.38476 c 4.79713,2.66993 9.80908,4.93568 14.98242,6.77343 l -2.44531,6.88672 c 0,0 -2.68436,7.66141 2.21875,22.61133 3.02396,0.82144 6.07786,1.52931 9.1543,2.125 10.99113,-11.25766 11.95898,-19.31641 11.95898,-19.31641 l 0.83984,-7.25976 c 5.45371,0.63099 10.95079,0.80734 16.4336,0.52539 l 0.375,7.29687 c 0,0 0.45408,8.10546 10.70508,20.04102 3.10813,-0.39832 6.19934,-0.91211 9.26953,-1.53906 5.84636,-14.60689 3.6582,-22.42383 3.6582,-22.42383 l -2.00195,-7.02734 c 5.28,-1.50414 10.42524,-3.44608 15.38281,-5.80469 l 3.13867,6.59961 c 0,0 3.52037,7.31378 17.55859,14.41797 2.71911,-1.55747 5.37999,-3.21464 7.97657,-4.96875 -0.18849,-15.73232 -5.20313,-22.11524 -5.20313,-22.11524 l -4.53906,-5.72851 c 4.3025,-3.41023 8.3126,-7.17179 11.99023,-11.24805 l 5.42578,4.89453 c 0,0 6.05195,5.41037 21.74024,6.60156 1.91611,-2.47944 3.74109,-5.02831 5.46875,-7.64257 -6.19465,-14.46263 -13.27149,-18.44141 -13.27149,-18.44141 l -6.38476,-3.55469 c 2.66993,-4.79713 4.93568,-9.80713 6.77344,-14.98047 l 6.88672,2.44532 c 0,0 7.6614,2.68244 22.61132,-2.22071 0.82141,-3.02396 1.53127,-6.07592 2.12696,-9.15234 -11.2577,-10.99113 -19.31836,-11.96094 -19.31836,-11.96094 l -7.25977,-0.83984 c 0.63103,-5.45371 0.80735,-10.95079 0.52539,-16.4336 l 7.29688,-0.375 c 0,0 8.10542,-0.45214 20.04101,-10.70312 -0.39832,-3.10813 -0.9102,-6.20126 -1.53711,-9.27149 -14.60689,-5.84636 -22.42578,-3.65625 -22.42578,-3.65625 l -7.02734,2.00196 c -1.50418,-5.28 -3.44607,-10.42521 -5.80469,-15.38281 l 6.59961,-3.14063 c 0,0 7.31382,-3.52037 14.41797,-17.55859 -1.55743,-2.71911 -3.2146,-5.37804 -4.96875,-7.97461 -15.73228,0.18848 -22.11524,5.20117 -22.11524,5.20117 l -5.72851,4.54101 c -3.41023,-4.30246 -7.17175,-8.31459 -11.24805,-11.99218 l 4.89453,-5.42578 c 0,0 5.41037,-6.05195 6.60157,-21.74024 -2.47945,-1.91611 -5.02832,-3.73914 -7.64258,-5.4668 -14.46263,6.19465 -18.44141,13.26954 -18.44141,13.26954 l -3.55469,6.38671 c -4.79709,-2.66989 -9.80712,-4.93568 -14.98046,-6.77343 l 2.44531,-6.88672 c 0,0 2.68435,-7.66141 -2.21875,-22.61133 -3.024,-0.8214 -6.07788,-1.53126 -9.1543,-2.12695 -10.99113,11.2577 -11.96094,19.31836 -11.96094,19.31836 l -0.83984,7.25976 c -5.45367,-0.63103 -10.95075,-0.80734 -16.43359,-0.52539 l -0.375,-7.29687 c 0,0 -0.45214,-8.10738 -10.70313,-20.04297 z m 4.82617,51.24804 v 63.47266 h -63.4375 a 75.714284,75.714284 0 0 1 63.4375,-63.47266 z m 22.6543,0.0332 a 75.714284,75.714284 0 0 1 63.47461,63.43945 h -63.47461 z m -86.12695,86.09375 h 63.47265 v 63.43945 A 75.714284,75.714284 0 0 1 462.9043,823.33594 Z m 86.12695,0 h 63.44141 a 75.714284,75.714284 0 0 1 -63.44141,63.47461 z"
       transform="scale(0.26458334)"
       id="path4936"
       inkscape:connector-curvature="0" />
    <path
       style="opacity:1;fill:none;fill-opacity:1;fill-rule:nonzero;stroke:#ff0000;stroke-width:1.33333337;stroke-linecap:round;stroke-linejoin:round;stroke-miterlimit:4;stroke-dasharray:none;stroke-dashoffset:0;stroke-opacity:1"
       d="m 339.23242,707.69141 c -1.46096,-0.0155 -2.92225,10e-4 -4.38281,0.0508 -8.38428,12.23928 -7.39453,19.89843 -7.39453,19.89843 l 1.21484,8.92969 c -5.41568,0.73675 -10.72689,2.09841 -15.82812,4.06055 l -3.23633,-8.41016 c 0,0 -2.82066,-7.1894 -16.0625,-13.8789 -2.60769,1.32019 -5.15629,2.75672 -7.63672,4.30273 -1.14134,14.79167 3.54492,20.92969 3.54492,20.92969 l 5.51563,7.125 c -4.32174,3.3459 -8.2391,7.1837 -11.67578,11.43359 l -7.00782,-5.66601 c 0,0 -6.03902,-4.81593 -20.85156,-3.98828 -1.59821,2.44713 -3.08579,4.96389 -4.46094,7.54296 6.4074,13.38067 13.53516,16.35547 13.53516,16.35547 l 8.33984,3.41211 c -2.06982,5.05852 -3.54514,10.33942 -4.39648,15.73828 l -8.90039,-1.40429 c 0,0 -7.63854,-1.15038 -20.05274,6.97265 -0.16063,2.91837 -0.19044,5.84254 -0.0918,8.76368 12.23932,8.38427 19.89843,7.39648 19.89843,7.39648 l 8.92774,-1.21484 c 0.73674,5.41568 2.10032,10.72689 4.0625,15.82812 l -8.41016,3.23438 c 0,0 -7.18937,2.82261 -13.8789,16.06445 1.32019,2.60765 2.75671,5.15625 4.30273,7.63672 14.79167,1.1413 20.92969,-3.54492 20.92969,-3.54492 l 7.125,-5.51758 c 3.34586,4.32174 7.18179,8.24101 11.43164,11.67773 l -5.66406,7.00586 c 0,0 -4.81593,6.03903 -3.98829,20.85156 2.44718,1.59821 4.9639,3.08775 7.54297,4.46289 13.38066,-6.40743 16.35352,-13.53515 16.35352,-13.53515 l 3.41406,-8.33985 c 5.05848,2.06979 10.33942,3.54515 15.73828,4.39649 l -1.40429,8.90039 c 0,0 -1.15038,7.63658 6.97265,20.05078 2.9184,0.16063 5.84255,0.1924 8.76367,0.0937 8.38428,-12.23928 7.39649,-19.89844 7.39649,-19.89844 l -1.21485,-8.92968 c 5.4157,-0.73675 10.7269,-2.09841 15.82813,-4.06055 l 3.23437,8.4082 c 2e-5,0 2.82262,7.18941 16.06446,13.87891 2.60768,-1.32019 5.15625,-2.75481 7.63672,-4.30078 1.1413,-14.79171 -3.54492,-20.93164 -3.54492,-20.93164 l -5.51758,-7.12305 c 4.32174,-3.3459 8.24101,-7.1837 11.67773,-11.43359 l 7.00586,5.66601 c 0,0 6.03895,4.81592 20.85156,3.98828 1.59818,-2.44713 3.08771,-4.96385 4.46289,-7.54297 -6.40743,-13.38062 -13.53515,-16.35546 -13.53515,-16.35546 l -8.33985,-3.41211 c 2.06982,-5.05849 3.54519,-10.33942 4.39649,-15.73829 l 8.90039,1.40235 c 0,0 7.63658,1.15234 20.05078,-6.97071 0.16063,-2.91839 0.1924,-5.84255 0.0937,-8.76367 -12.23932,-8.38427 -19.89844,-7.39648 -19.89844,-7.39648 l -8.92969,1.21484 c -0.73674,-5.41568 -2.10034,-10.72689 -4.0625,-15.82812 l 8.41016,-3.23633 c 0,0 7.18937,-2.82066 13.87891,-16.0625 -1.32019,-2.60769 -2.75477,-5.15625 -4.30078,-7.63672 -14.79171,-1.1413 -20.93164,3.54492 -20.93164,3.54492 l -7.125,5.51563 c -3.34591,-4.32174 -7.18175,-8.23906 -11.43165,-11.67578 l 5.66602,-7.00782 c 0,0 4.81592,-6.03703 3.98828,-20.84961 -2.44713,-1.59817 -4.96389,-3.08774 -7.54297,-4.46289 -13.38066,6.40744 -16.35547,13.53516 -16.35547,13.53516 l -3.4121,8.33984 c -5.05853,-2.06982 -10.33942,-3.54518 -15.73829,-4.39648 l 1.40235,-8.90039 c 0,0 1.15038,-7.63854 -6.97266,-20.05274 -1.4592,-0.0803 -2.9199,-0.12708 -4.38086,-0.14257 z m -12.375,53.55468 v 33.95118 h -33.9375 a 46.719558,46.719558 0 0 1 33.9375,-33.95118 z m 22.65625,0.0117 a 46.719558,46.719558 0 0 1 33.95313,33.93946 h -33.95313 z m -56.60742,56.59375 h 33.95117 V 851.791 a 46.719558,46.719558 0 0 1 -33.95117,-33.93946 z m 56.60742,0 h 33.93945 a 46.719558,46.719558 0 0 1 -33.93945,33.95313 z"
       transform="scale(0.26458334)"
       id="path4938"
       inkscape:connector-curvature="0" />
    <path
       style="opacity:1;fill:none;fill-opacity:1;fill-rule:nonzero;stroke:#ff0000;stroke-width:0.35277781;stroke-linecap:round;stroke-linejoin:round;stroke-miterlimit:4;stroke-dasharray:none;stroke-dashoffset:0;stroke-opacity:1"
       d="m 25.630411,252.14174 h 75.110559 v -12.34705 h -2.958471 l 0.2806,-1.77715 c 0,0 0.30437,-2.02052 -1.84485,-5.30511 -0.77215,-0.0425 -1.54584,-0.0509 -2.31872,-0.0248 -2.21834,3.23832 -1.95699,5.26531 -1.95699,5.26531 l 0.25063,1.84175 h -6.20737 l 0.28009,-1.77715 c 0,0 0.30488,-2.02051 -1.84433,-5.3051 -0.77216,-0.0425 -1.54585,-0.0509 -2.31873,-0.0248 -2.21834,3.23832 -1.95698,5.26531 -1.95698,5.26531 l 0.25063,1.84175 h -6.20221 l 0.27492,-1.7446 c 0,0 0.30437,-2.02051 -1.844848,-5.3051 -0.77215,-0.0425 -1.54584,-0.0509 -2.31872,-0.0248 -2.21834,3.23832 -1.95647,5.26479 -1.95647,5.26479 l 0.24598,1.80971 h -6.19807 l 0.27543,-1.74459 c 0,0 0.30437,-2.02052 -1.84484,-5.30511 -0.77215,-0.0425 -1.54585,-0.0509 -2.31873,-0.0248 -2.21834,3.23833 -1.95646,5.2648 -1.95646,5.2648 l 0.24597,1.80975 h -6.19807 l 0.27544,-1.7446 c 0,0 0.30437,-2.02051 -1.84485,-5.3051 -0.77215,-0.0425 -1.54584,-0.0509 -2.31872,-0.0248 -2.21834,3.23832 -1.95699,5.26479 -1.95699,5.26479 l 0.24598,1.80971 h -19.37081 z"
       id="path4940"
       inkscape:connector-curvature="0"
       sodipodi:nodetypes="ccccccccccccccccccccccccccccccccccc" />
    <circle
       style="opacity:1;fill:none;fill-opacity:1;fill-rule:nonzero;stroke:#ff0000;stroke-width:0.3556;stroke-linecap:round;stroke-linejoin:round;stroke-miterlimit:4;stroke-dasharray:none;stroke-dashoffset:0;stroke-opacity:1"
       id="path4962"
       cx="139.7"
       cy="139.7"
       r="1.7272" />
    <circle
       r="1.7272"
       cy="125.57122"
       cx="290.70908"
       id="circle4964"
       style="opacity:1;fill:none;fill-opacity:1;fill-rule:nonzero;stroke:#ff0000;stroke-width:0.3556;stroke-linecap:round;stroke-linejoin:round;stroke-miterlimit:4;stroke-dasharray:none;stroke-dashoffset:0;stroke-opacity:1" />
    <circle
       r="1.7272"
       cy="66.197914"
       cx="189.85947"
       id="circle4966"
       style="opacity:1;fill:none;fill-opacity:1;fill-rule:nonzero;stroke:#ff0000;stroke-width:0.3556;stroke-linecap:round;stroke-linejoin:round;stroke-miterlimit:4;stroke-dasharray:none;stroke-dashoffset:0;stroke-opacity:1" />
    <circle
       style="opacity:1;fill:none;fill-opacity:1;fill-rule:nonzero;stroke:#ff0000;stroke-width:0.3556;stroke-linecap:round;stroke-linejoin:round;stroke-miterlimit:4;stroke-dasharray:none;stroke-dashoffset:0;stroke-opacity:1"
       id="circle4968"
       cx="137.07019"
       cy="64.746696"
       r="1.7272" />
    <circle
       r="1.7272"
       cy="51.765358"
       cx="85.624344"
       id="circle4970"
       style="opacity:1;fill:none;fill-opacity:1;fill-rule:nonzero;stroke:#ff0000;stroke-width:0.3556;stroke-linecap:round;stroke-linejoin:round;stroke-miterlimit:4;stroke-dasharray:none;stroke-dashoffset:0;stroke-opacity:1" />
    <circle
       r="1.7272"
       cy="214.84399"
       cx="142.26755"
       id="circle5017"
       style="opacity:1;fill:none;fill-opacity:1;fill-rule:nonzero;stroke:#ff0000;stroke-width:0.3556;stroke-linecap:round;stroke-linejoin:round;stroke-miterlimit:4;stroke-dasharray:none;stroke-dashoffset:0;stroke-opacity:1" />
    <circle
       style="opacity:1;fill:none;fill-opacity:1;fill-rule:nonzero;stroke:#ff0000;stroke-width:0.3556;stroke-linecap:round;stroke-linejoin:round;stroke-miterlimit:4;stroke-dasharray:none;stroke-dashoffset:0;stroke-opacity:1"
       id="circle5023"
       cx="193.71359"
       cy="227.82533"
       r="1.7272" />
    <circle
       style="opacity:1;fill:none;fill-opacity:1;fill-rule:nonzero;stroke:#ff0000;stroke-width:0.3556;stroke-linecap:round;stroke-linejoin:round;stroke-miterlimit:4;stroke-dasharray:none;stroke-dashoffset:0;stroke-opacity:1"
       id="circle5029"
       cx="89.478439"
       cy="213.39288"
       r="1.7272" />
    <path
       id="circle5039"
       style="opacity:1;fill:none;fill-opacity:1;fill-rule:nonzero;stroke:#ff0000;stroke-width:0.3556;stroke-linecap:round;stroke-linejoin:round;stroke-miterlimit:4;stroke-dasharray:none;stroke-dashoffset:0;stroke-opacity:1"
       d="m 195.82841,35.348183 c -0.95391,0 -1.7272,-0.773294 -1.7272,-1.7272 0,-0.953906 0.77329,-1.7272 1.7272,-1.7272 h 35.68049 c 0.95391,0 1.7272,0.773294 1.7272,1.7272 0,0.953906 -0.77329,1.7272 -1.7272,1.7272 -2.47833,-0.305525 -35.68049,0 -35.68049,0 z"
       inkscape:connector-curvature="0"
       sodipodi:nodetypes="csccscc" />
    <path
       sodipodi:nodetypes="csccscc"
       inkscape:connector-curvature="0"
       d="m 50.59888,24.066093 c 0,-0.95391 0.773294,-1.7272 1.7272,-1.7272 0.953906,0 1.7272,0.77329 1.7272,1.7272 v 35.68049 c 0,0.95391 -0.773294,1.7272 -1.7272,1.7272 -0.953906,0 -1.7272,-0.77329 -1.7272,-1.7272 0.305525,-2.47833 0,-35.68049 0,-35.68049 z"
       style="opacity:1;fill:none;fill-opacity:1;fill-rule:nonzero;stroke:#ff0000;stroke-width:0.3556;stroke-linecap:round;stroke-linejoin:round;stroke-miterlimit:4;stroke-dasharray:none;stroke-dashoffset:0;stroke-opacity:1"
       id="path5046" />
    <path
       sodipodi:nodetypes="csccscc"
       inkscape:connector-curvature="0"
       d="m 48.512187,247.62907 c -0.95391,0 -1.7272,-0.7733 -1.7272,-1.7272 0,-0.95391 0.77329,-1.7272 1.7272,-1.7272 h 35.68049 c 0.95391,0 1.7272,0.77329 1.7272,1.7272 0,0.9539 -0.77329,1.7272 -1.7272,1.7272 -2.47833,-0.30553 -35.68049,0 -35.68049,0 z"
       style="opacity:1;fill:none;fill-opacity:1;fill-rule:nonzero;stroke:#ff0000;stroke-width:0.3556;stroke-linecap:round;stroke-linejoin:round;stroke-miterlimit:4;stroke-dasharray:none;stroke-dashoffset:0;stroke-opacity:1"
       id="path5052" />
    <path
       id="path5056"
       style="opacity:1;fill:none;fill-opacity:1;fill-rule:nonzero;stroke:#ff0000;stroke-width:0.3556;stroke-linecap:round;stroke-linejoin:round;stroke-miterlimit:4;stroke-dasharray:none;stroke-dashoffset:0;stroke-opacity:1"
       d="m 225.17663,222.5826 c 0,-0.95391 0.7733,-1.7272 1.7272,-1.7272 0.95391,0 1.72721,0.77329 1.72721,1.7272 v 35.68049 c 0,0.95391 -0.77329,1.7272 -1.7272,1.7272 -0.9539,0 -1.7272,-0.77329 -1.7272,-1.7272 0.30553,-2.47833 -1e-5,-35.68049 -1e-5,-35.68049 z"
       inkscape:connector-curvature="0"
       sodipodi:nodetypes="csccscc" />
  </g>
  <g
     style="display:none"
     inkscape:label="acrylic"
     inkscape:groupmode="layer"
     id="layer1"
     transform="translate(0,-17.599983)"
     sodipodi:insensitive="true">
    <rect
       y="20.951368"
       x="25.576391"
       height="272.69724"
       width="228.24722"
       id="rect4641"
       style="opacity:1;fill:none;fill-opacity:1;fill-rule:nonzero;stroke:#fb0000;stroke-width:0.35277778;stroke-linecap:round;stroke-linejoin:round;stroke-miterlimit:4;stroke-dasharray:none;stroke-dashoffset:0;stroke-opacity:1" />
    <rect
       style="opacity:1;fill:none;fill-opacity:1;fill-rule:nonzero;stroke:#fb0000;stroke-width:0.35277778;stroke-linecap:round;stroke-linejoin:round;stroke-miterlimit:4;stroke-dasharray:none;stroke-dashoffset:0;stroke-opacity:1"
       id="rect4643"
       width="202.84723"
       height="247.29723"
       x="38.276386"
       y="33.651371" />
    <circle
       style="display:inline;opacity:1;fill:none;fill-opacity:1;fill-rule:nonzero;stroke:#ff0000;stroke-width:0.35277781;stroke-linecap:round;stroke-linejoin:round;stroke-miterlimit:4;stroke-dasharray:none;stroke-dashoffset:0;stroke-opacity:1"
       id="circle4685"
       cx="139.7"
       cy="157.29999"
       r="50.623611" />
  </g>
</svg>
