<?xml version="1.0" encoding="UTF-8" standalone="no"?>
<!-- Created with Inkscape (http://www.inkscape.org/) -->

<svg
   xmlns:dc="http://purl.org/dc/elements/1.1/"
   xmlns:cc="http://creativecommons.org/ns#"
   xmlns:rdf="http://www.w3.org/1999/02/22-rdf-syntax-ns#"
   xmlns:svg="http://www.w3.org/2000/svg"
   xmlns="http://www.w3.org/2000/svg"
   xmlns:sodipodi="http://sodipodi.sourceforge.net/DTD/sodipodi-0.dtd"
   xmlns:inkscape="http://www.inkscape.org/namespaces/inkscape"
   width="11in"
   height="11in"
   viewBox="0 0 279.4 279.40001"
   version="1.1"
   id="svg8"
   inkscape:version="0.92.0 r15299"
   sodipodi:docname="vault box.svg">
  <sodipodi:namedview
     id="base"
     pagecolor="#ffffff"
     bordercolor="#666666"
     borderopacity="1.0"
     inkscape:pageopacity="0.0"
     inkscape:pageshadow="2"
     inkscape:zoom="0.49497475"
     inkscape:cx="-92.845293"
     inkscape:cy="487.13483"
     inkscape:document-units="in"
     inkscape:current-layer="layer2"
     showgrid="false"
     inkscape:window-width="1920"
     inkscape:window-height="1017"
     inkscape:window-x="-8"
     inkscape:window-y="-8"
     inkscape:window-maximized="1"
     units="in"
     inkscape:pagecheckerboard="false"
     inkscape:snap-global="false"
     inkscape:measure-start="675.287,935.906"
     inkscape:measure-end="625.284,935.906"
     showguides="true"
     inkscape:guide-bbox="true" />
  <defs
     id="defs2">
    <inkscape:path-effect
       min_radius="5"
       phi="20"
       teeth="24"
       is_visible="true"
       id="path-effect4875"
       effect="gears" />
    <inkscape:path-effect
       effect="gears"
       id="path-effect4871"
       is_visible="true"
       teeth="24"
       phi="20"
       min_radius="5" />
    <inkscape:path-effect
       effect="gears"
       id="path-effect4867"
       is_visible="true"
       teeth="10"
       phi="5"
       min_radius="5" />
  </defs>
  <metadata
     id="metadata5">
    <rdf:RDF>
      <cc:Work
         rdf:about="">
        <dc:format>image/svg+xml</dc:format>
        <dc:type
           rdf:resource="http://purl.org/dc/dcmitype/StillImage" />
        <dc:title></dc:title>
      </cc:Work>
    </rdf:RDF>
  </metadata>
  <g
     inkscape:groupmode="layer"
     id="layer5"
     inkscape:label="sides"
     style="display:none"
     sodipodi:insensitive="true">
    <g
       transform="matrix(0,0.28222224,-0.28222224,0,276.22501,141.23023)"
       id="g12"
       style="stroke:#fb0000;stroke-width:1.24999988;stroke-miterlimit:4;stroke-dasharray:none;stroke-opacity:1">
      <polygon
         style="fill:none;stroke:#fb0000;stroke-width:1.24999988;stroke-miterlimit:4;stroke-dasharray:none;stroke-opacity:1"
         points="214.38,173.25 225,173.25 225,200.25 214.38,200.25 214.38,227.25 225,227.25 225,254.25 214.38,254.25 214.38,281.25 225,281.25 225,308.25 214.38,308.25 214.38,335.25 225,335.25 225,362.25 214.38,362.25 214.38,389.25 225,389.25 225,416.25 214.38,416.25 214.38,443.25 225,443.25 225,470.25 214.38,470.25 214.38,497.25 225,497.25 225,524.25 214.38,524.25 214.38,551.25 225,551.25 225,578.25 214.38,578.25 214.38,605.25 225,605.25 225,632.25 214.38,632.25 214.38,659.25 225,659.25 225,686.25 214.38,686.25 214.38,713.25 225,713.25 225,740.25 214.38,740.25 214.38,767.25 225,767.25 225,794.25 214.38,794.25 214.38,821.25 225,821.25 225,848.25 214.38,848.25 214.38,875.25 225,875.25 225,921.375 214.38,921.375 214.38,967.5 189,967.5 189,956.88 153,956.88 153,967.5 126,967.5 126,956.88 99,956.88 99,967.5 72,967.5 72,956.88 36,956.88 36,967.5 10.62,967.5 10.62,921.375 0,921.375 0,875.25 10.62,875.25 10.62,848.25 0,848.25 0,821.25 10.62,821.25 10.62,794.25 0,794.25 0,767.25 10.62,767.25 10.62,740.25 0,740.25 0,713.25 10.62,713.25 10.62,686.25 0,686.25 0,659.25 10.62,659.25 10.62,632.25 0,632.25 0,605.25 10.62,605.25 10.62,578.25 0,578.25 0,551.25 10.62,551.25 10.62,524.25 0,524.25 0,497.25 10.62,497.25 10.62,470.25 0,470.25 0,443.25 10.62,443.25 10.62,416.25 0,416.25 0,389.25 10.62,389.25 10.62,362.25 0,362.25 0,335.25 10.62,335.25 10.62,308.25 0,308.25 0,281.25 10.62,281.25 10.62,254.25 0,254.25 0,227.25 10.62,227.25 10.62,200.25 0,200.25 0,173.25 10.62,173.25 10.62,146.25 0,146.25 0,119.25 10.62,119.25 10.62,92.25 0,92.25 0,46.125 10.62,46.125 10.62,0 36,0 36,10.62 72,10.62 72,0 99,0 99,10.62 126,10.62 126,0 153,0 153,10.62 189,10.62 189,0 214.38,0 214.38,46.125 225,46.125 225,92.25 214.38,92.25 214.38,119.25 225,119.25 225,146.25 214.38,146.25 "
         id="polygon10" />
    </g>
    <g
       transform="matrix(0,0.28222224,-0.28222224,0,276.22501,210.1731)"
       id="g16"
       style="stroke:#fb0000;stroke-width:1.24999988;stroke-miterlimit:4;stroke-dasharray:none;stroke-opacity:1">
      <polygon
         style="fill:none;stroke:#fb0000;stroke-width:1.24999988;stroke-miterlimit:4;stroke-dasharray:none;stroke-opacity:1"
         points="214.38,146.25 214.38,173.25 225,173.25 225,200.25 214.38,200.25 214.38,227.25 225,227.25 225,254.25 214.38,254.25 214.38,281.25 225,281.25 225,308.25 214.38,308.25 214.38,335.25 225,335.25 225,362.25 214.38,362.25 214.38,389.25 225,389.25 225,416.25 214.38,416.25 214.38,443.25 225,443.25 225,470.25 214.38,470.25 214.38,497.25 225,497.25 225,524.25 214.38,524.25 214.38,551.25 225,551.25 225,578.25 214.38,578.25 214.38,605.25 225,605.25 225,632.25 214.38,632.25 214.38,659.25 225,659.25 225,686.25 214.38,686.25 214.38,713.25 225,713.25 225,740.25 214.38,740.25 214.38,767.25 225,767.25 225,794.25 214.38,794.25 214.38,821.25 225,821.25 225,848.25 214.38,848.25 214.38,875.25 225,875.25 225,921.375 214.38,921.375 214.38,967.5 189,967.5 189,956.88 153,956.88 153,967.5 126,967.5 126,956.88 99,956.88 99,967.5 72,967.5 72,956.88 36,956.88 36,967.5 10.62,967.5 10.62,921.375 0,921.375 0,875.25 10.62,875.25 10.62,848.25 0,848.25 0,821.25 10.62,821.25 10.62,794.25 0,794.25 0,767.25 10.62,767.25 10.62,740.25 0,740.25 0,713.25 10.62,713.25 10.62,686.25 0,686.25 0,659.25 10.62,659.25 10.62,632.25 0,632.25 0,605.25 10.62,605.25 10.62,578.25 0,578.25 0,551.25 10.62,551.25 10.62,524.25 0,524.25 0,497.25 10.62,497.25 10.62,470.25 0,470.25 0,443.25 10.62,443.25 10.62,416.25 0,416.25 0,389.25 10.62,389.25 10.62,362.25 0,362.25 0,335.25 10.62,335.25 10.62,308.25 0,308.25 0,281.25 10.62,281.25 10.62,254.25 0,254.25 0,227.25 10.62,227.25 10.62,200.25 0,200.25 0,173.25 10.62,173.25 10.62,146.25 0,146.25 0,119.25 10.62,119.25 10.62,92.25 0,92.25 0,46.125 10.62,46.125 10.62,0 36,0 36,10.62 72,10.62 72,0 99,0 99,10.62 126,10.62 126,0 153,0 153,10.62 189,10.62 189,0 214.38,0 214.38,46.125 225,46.125 225,92.25 214.38,92.25 214.38,119.25 225,119.25 225,146.25 "
         id="polygon14" />
    </g>
    <g
       transform="matrix(0.28222224,0,0,0.28222224,25.399995,3.344492)"
       id="g20"
       style="stroke:#fb0000;stroke-width:1.24999988;stroke-miterlimit:4;stroke-dasharray:none;stroke-opacity:1">
      <polygon
         style="fill:none;stroke:#fb0000;stroke-width:1.24999988;stroke-miterlimit:4;stroke-dasharray:none;stroke-opacity:1"
         points="283.5,10.62 310.5,10.62 310.5,0 337.5,0 337.5,10.62 364.5,10.62 364.5,0 391.5,0 391.5,10.62 418.5,10.62 418.5,0 445.5,0 445.5,10.62 472.5,10.62 472.5,0 499.5,0 499.5,10.62 526.5,10.62 526.5,0 553.5,0 553.5,10.62 580.5,10.62 580.5,0 607.5,0 607.5,10.62 634.5,10.62 634.5,0 661.5,0 661.5,10.62 688.5,10.62 688.5,0 715.5,0 715.5,10.62 742.5,10.62 742.5,0 776.25,0 776.25,10.62 799.38,10.62 799.38,36 810,36 810,72 799.38,72 799.38,99 810,99 810,126 799.38,126 799.38,153 810,153 810,189 799.38,189 799.38,214.38 776.25,214.38 776.25,225 742.5,225 742.5,214.38 715.5,214.38 715.5,225 688.5,225 688.5,214.38 661.5,214.38 661.5,225 634.5,225 634.5,214.38 607.5,214.38 607.5,225 580.5,225 580.5,214.38 553.5,214.38 553.5,225 526.5,225 526.5,214.38 499.5,214.38 499.5,225 472.5,225 472.5,214.38 445.5,214.38 445.5,225 418.5,225 418.5,214.38 391.5,214.38 391.5,225 364.5,225 364.5,214.38 337.5,214.38 337.5,225 310.5,225 310.5,214.38 283.5,214.38 283.5,225 256.5,225 256.5,214.38 229.5,214.38 229.5,225 202.5,225 202.5,214.38 175.5,214.38 175.5,225 148.5,225 148.5,214.38 121.5,214.38 121.5,225 94.5,225 94.5,214.38 67.5,214.38 67.5,225 33.75,225 33.75,214.38 10.62,214.38 10.62,189 0,189 0,153 10.62,153 10.62,126 0,126 0,99 10.62,99 10.62,72 0,72 0,36 10.62,36 10.62,10.62 33.75,10.62 33.75,0 67.5,0 67.5,10.62 94.5,10.62 94.5,0 121.5,0 121.5,10.62 148.5,10.62 148.5,0 175.5,0 175.5,10.62 202.5,10.62 202.5,0 229.5,0 229.5,10.62 256.5,10.62 256.5,0 283.5,0 "
         id="polygon18" />
    </g>
    <g
       transform="matrix(0.28222224,0,0,0.28222224,25.399995,72.287381)"
       id="g24"
       style="stroke:#fb0000;stroke-width:1.24999988;stroke-miterlimit:4;stroke-dasharray:none;stroke-opacity:1">
      <polygon
         style="fill:none;stroke:#fb0000;stroke-width:1.24999988;stroke-miterlimit:4;stroke-dasharray:none;stroke-opacity:1"
         points="310.5,10.62 310.5,0 337.5,0 337.5,10.62 364.5,10.62 364.5,0 391.5,0 391.5,10.62 418.5,10.62 418.5,0 445.5,0 445.5,10.62 472.5,10.62 472.5,0 499.5,0 499.5,10.62 526.5,10.62 526.5,0 553.5,0 553.5,10.62 580.5,10.62 580.5,0 607.5,0 607.5,10.62 634.5,10.62 634.5,0 661.5,0 661.5,10.62 688.5,10.62 688.5,0 715.5,0 715.5,10.62 742.5,10.62 742.5,0 776.25,0 776.25,10.62 799.38,10.62 799.38,36 810,36 810,72 799.38,72 799.38,99 810,99 810,126 799.38,126 799.38,153 810,153 810,189 799.38,189 799.38,214.38 776.25,214.38 776.25,225 742.5,225 742.5,214.38 715.5,214.38 715.5,225 688.5,225 688.5,214.38 661.5,214.38 661.5,225 634.5,225 634.5,214.38 607.5,214.38 607.5,225 580.5,225 580.5,214.38 553.5,214.38 553.5,225 526.5,225 526.5,214.38 499.5,214.38 499.5,225 472.5,225 472.5,214.38 445.5,214.38 445.5,225 418.5,225 418.5,214.38 391.5,214.38 391.5,225 364.5,225 364.5,214.38 337.5,214.38 337.5,225 310.5,225 310.5,214.38 283.5,214.38 283.5,225 256.5,225 256.5,214.38 229.5,214.38 229.5,225 202.5,225 202.5,214.38 175.5,214.38 175.5,225 148.5,225 148.5,214.38 121.5,214.38 121.5,225 94.5,225 94.5,214.38 67.5,214.38 67.5,225 33.75,225 33.75,214.38 10.62,214.38 10.62,189 0,189 0,153 10.62,153 10.62,126 0,126 0,99 10.62,99 10.62,72 0,72 0,36 10.62,36 10.62,10.62 33.75,10.62 33.75,0 67.5,0 67.5,10.62 94.5,10.62 94.5,0 121.5,0 121.5,10.62 148.5,10.62 148.5,0 175.5,0 175.5,10.62 202.5,10.62 202.5,0 229.5,0 229.5,10.62 256.5,10.62 256.5,0 283.5,0 283.5,10.62 "
         id="polygon22" />
    </g>
  </g>
  <g
     inkscape:groupmode="layer"
     id="layer4"
     inkscape:label="bottom"
     style="display:none">
    <g
       transform="matrix(0.28222224,0,0,0.28222224,25.399995,3.1749939)"
       id="g4"
       style="stroke:#fb0000;stroke-width:1.24999988;stroke-miterlimit:4;stroke-dasharray:none;stroke-opacity:1">
      <polygon
         style="fill:none;stroke:#fb0000;stroke-width:1.24999988;stroke-miterlimit:4;stroke-dasharray:none;stroke-opacity:1"
         points="256.5,10.62 283.5,10.62 283.5,0 310.5,0 310.5,10.62 337.5,10.62 337.5,0 364.5,0 364.5,10.62 391.5,10.62 391.5,0 418.5,0 418.5,10.62 445.5,10.62 445.5,0 472.5,0 472.5,10.62 499.5,10.62 499.5,0 526.5,0 526.5,10.62 553.5,10.62 553.5,0 580.5,0 580.5,10.62 607.5,10.62 607.5,0 634.5,0 634.5,10.62 661.5,10.62 661.5,0 688.5,0 688.5,10.62 715.5,10.62 715.5,0 742.5,0 742.5,10.62 776.25,10.62 776.25,0 810,0 810,46.125 799.38,46.125 799.38,92.25 810,92.25 810,119.25 799.38,119.25 799.38,146.25 810,146.25 810,173.25 799.38,173.25 799.38,200.25 810,200.25 810,227.25 799.38,227.25 799.38,254.25 810,254.25 810,281.25 799.38,281.25 799.38,308.25 810,308.25 810,335.25 799.38,335.25 799.38,362.25 810,362.25 810,389.25 799.38,389.25 799.38,416.25 810,416.25 810,443.25 799.38,443.25 799.38,470.25 810,470.25 810,497.25 799.38,497.25 799.38,524.25 810,524.25 810,551.25 799.38,551.25 799.38,578.25 810,578.25 810,605.25 799.38,605.25 799.38,632.25 810,632.25 810,659.25 799.38,659.25 799.38,686.25 810,686.25 810,713.25 799.38,713.25 799.38,740.25 810,740.25 810,767.25 799.38,767.25 799.38,794.25 810,794.25 810,821.25 799.38,821.25 799.38,848.25 810,848.25 810,875.25 799.38,875.25 799.38,921.375 810,921.375 810,967.5 776.25,967.5 776.25,956.88 742.5,956.88 742.5,967.5 715.5,967.5 715.5,956.88 688.5,956.88 688.5,967.5 661.5,967.5 661.5,956.88 634.5,956.88 634.5,967.5 607.5,967.5 607.5,956.88 580.5,956.88 580.5,967.5 553.5,967.5 553.5,956.88 526.5,956.88 526.5,967.5 499.5,967.5 499.5,956.88 472.5,956.88 472.5,967.5 445.5,967.5 445.5,956.88 418.5,956.88 418.5,967.5 391.5,967.5 391.5,956.88 364.5,956.88 364.5,967.5 337.5,967.5 337.5,956.88 310.5,956.88 310.5,967.5 283.5,967.5 283.5,956.88 256.5,956.88 256.5,967.5 229.5,967.5 229.5,956.88 202.5,956.88 202.5,967.5 175.5,967.5 175.5,956.88 148.5,956.88 148.5,967.5 121.5,967.5 121.5,956.88 94.5,956.88 94.5,967.5 67.5,967.5 67.5,956.88 33.75,956.88 33.75,967.5 0,967.5 0,921.375 10.62,921.375 10.62,875.25 0,875.25 0,848.25 10.62,848.25 10.62,821.25 0,821.25 0,794.25 10.62,794.25 10.62,767.25 0,767.25 0,740.25 10.62,740.25 10.62,713.25 0,713.25 0,686.25 10.62,686.25 10.62,659.25 0,659.25 0,632.25 10.62,632.25 10.62,605.25 0,605.25 0,578.25 10.62,578.25 10.62,551.25 0,551.25 0,524.25 10.62,524.25 10.62,497.25 0,497.25 0,470.25 10.62,470.25 10.62,443.25 0,443.25 0,416.25 10.62,416.25 10.62,389.25 0,389.25 0,362.25 10.62,362.25 10.62,335.25 0,335.25 0,308.25 10.62,308.25 10.62,281.25 0,281.25 0,254.25 10.62,254.25 10.62,227.25 0,227.25 0,200.25 10.62,200.25 10.62,173.25 0,173.25 0,146.25 10.62,146.25 10.62,119.25 0,119.25 0,92.25 10.62,92.25 10.62,46.125 0,46.125 0,0 33.75,0 33.75,10.62 67.5,10.62 67.5,0 94.5,0 94.5,10.62 121.5,10.62 121.5,0 148.5,0 148.5,10.62 175.5,10.62 175.5,0 202.5,0 202.5,10.62 229.5,10.62 229.5,0 256.5,0 "
         id="polygon2" />
    </g>
  </g>
  <g
     transform="translate(0,-17.599983)"
     id="g5092"
     inkscape:groupmode="layer"
     inkscape:label="backing+box teeth"
     style="display:none">
    <rect
       y="33.651371"
       x="38.276386"
       height="247.29723"
       width="202.84723"
       id="rect5088"
       style="opacity:1;fill:none;fill-opacity:1;fill-rule:nonzero;stroke:#fb0000;stroke-width:0.35277778;stroke-linecap:round;stroke-linejoin:round;stroke-miterlimit:4;stroke-dasharray:none;stroke-dashoffset:0;stroke-opacity:1" />
    <g
       transform="matrix(0.28222224,0,0,0.28222224,25.177086,20.933961)"
       id="g8"
       style="fill:none;stroke:#fb0000;stroke-width:0.98999995;stroke-miterlimit:4;stroke-dasharray:none;stroke-opacity:1">
      <polygon
         style="fill:none;stroke:#fb0000;stroke-width:0.98999995;stroke-miterlimit:4;stroke-dasharray:none;stroke-opacity:1"
         points="337.5,0 364.5,0 364.5,10.62 391.5,10.62 391.5,0 418.5,0 418.5,10.62 445.5,10.62 445.5,0 472.5,0 472.5,10.62 499.5,10.62 499.5,0 526.5,0 526.5,10.62 553.5,10.62 553.5,0 580.5,0 580.5,10.62 607.5,10.62 607.5,0 634.5,0 634.5,10.62 661.5,10.62 661.5,0 688.5,0 688.5,10.62 715.5,10.62 715.5,0 742.5,0 742.5,10.62 776.25,10.62 776.25,0 810,0 810,46.125 799.38,46.125 799.38,92.25 810,92.25 810,119.25 799.38,119.25 799.38,146.25 810,146.25 810,173.25 799.38,173.25 799.38,200.25 810,200.25 810,227.25 799.38,227.25 799.38,254.25 810,254.25 810,281.25 799.38,281.25 799.38,308.25 810,308.25 810,335.25 799.38,335.25 799.38,362.25 810,362.25 810,389.25 799.38,389.25 799.38,416.25 810,416.25 810,443.25 799.38,443.25 799.38,470.25 810,470.25 810,497.25 799.38,497.25 799.38,524.25 810,524.25 810,551.25 799.38,551.25 799.38,578.25 810,578.25 810,605.25 799.38,605.25 799.38,632.25 810,632.25 810,659.25 799.38,659.25 799.38,686.25 810,686.25 810,713.25 799.38,713.25 799.38,740.25 810,740.25 810,767.25 799.38,767.25 799.38,794.25 810,794.25 810,821.25 799.38,821.25 799.38,848.25 810,848.25 810,875.25 799.38,875.25 799.38,921.375 810,921.375 810,967.5 776.25,967.5 776.25,956.88 742.5,956.88 742.5,967.5 715.5,967.5 715.5,956.88 688.5,956.88 688.5,967.5 661.5,967.5 661.5,956.88 634.5,956.88 634.5,967.5 607.5,967.5 607.5,956.88 580.5,956.88 580.5,967.5 553.5,967.5 553.5,956.88 526.5,956.88 526.5,967.5 499.5,967.5 499.5,956.88 472.5,956.88 472.5,967.5 445.5,967.5 445.5,956.88 418.5,956.88 418.5,967.5 391.5,967.5 391.5,956.88 364.5,956.88 364.5,967.5 337.5,967.5 337.5,956.88 310.5,956.88 310.5,967.5 283.5,967.5 283.5,956.88 256.5,956.88 256.5,967.5 229.5,967.5 229.5,956.88 202.5,956.88 202.5,967.5 175.5,967.5 175.5,956.88 148.5,956.88 148.5,967.5 121.5,967.5 121.5,956.88 94.5,956.88 94.5,967.5 67.5,967.5 67.5,956.88 33.75,956.88 33.75,967.5 0,967.5 0,921.375 10.62,921.375 10.62,875.25 0,875.25 0,848.25 10.62,848.25 10.62,821.25 0,821.25 0,794.25 10.62,794.25 10.62,767.25 0,767.25 0,740.25 10.62,740.25 10.62,713.25 0,713.25 0,686.25 10.62,686.25 10.62,659.25 0,659.25 0,632.25 10.62,632.25 10.62,605.25 0,605.25 0,578.25 10.62,578.25 10.62,551.25 0,551.25 0,524.25 10.62,524.25 10.62,497.25 0,497.25 0,470.25 10.62,470.25 10.62,443.25 0,443.25 0,416.25 10.62,416.25 10.62,389.25 0,389.25 0,362.25 10.62,362.25 10.62,335.25 0,335.25 0,308.25 10.62,308.25 10.62,281.25 0,281.25 0,254.25 10.62,254.25 10.62,227.25 0,227.25 0,200.25 10.62,200.25 10.62,173.25 0,173.25 0,146.25 10.62,146.25 10.62,119.25 0,119.25 0,92.25 10.62,92.25 10.62,46.125 0,46.125 0,0 33.75,0 33.75,10.62 67.5,10.62 67.5,0 94.5,0 94.5,10.62 121.5,10.62 121.5,0 148.5,0 148.5,10.62 175.5,10.62 175.5,0 202.5,0 202.5,10.62 229.5,10.62 229.5,0 256.5,0 256.5,10.62 283.5,10.62 283.5,0 310.5,0 310.5,10.62 337.5,10.62 "
         id="polygon6" />
    </g>
  </g>
  <g
     inkscape:groupmode="layer"
     id="layer3"
     inkscape:label="filler"
     style="display:none"
     sodipodi:insensitive="true">
    <path
       style="opacity:1;fill:#e9afaf;fill-opacity:1;fill-rule:nonzero;stroke:#ff0000;stroke-width:1.34399998;stroke-linecap:round;stroke-linejoin:round;stroke-miterlimit:4;stroke-dasharray:none;stroke-dashoffset:0;stroke-opacity:1"
       d="M 155.95898,13.908203 V 368.36328 H 255 v -84.86523 a 110.45919,110.45919 0 0 0 69.42578,24.65625 110.45919,110.45919 0 0 0 61.47656,-18.79492 140.45919,140.45919 0 0 0 40.42774,59.01367 205.86657,205.86657 0 0 0 -104.33985,178.79492 205.86657,205.86657 0 0 0 118.27735,186.03125 140.45919,140.45919 0 0 0 -16.21875,19.49023 110.45919,110.45919 0 0 0 -83.97071,-38.88867 110.45919,110.45919 0 0 0 -110.45898,110.45899 110.45919,110.45919 0 0 0 23.92774,68.65429 H 97.193359 v 99.04102 H 438.01172 v -63.5625 a 140.45919,140.45919 0 0 0 101.99609,44.00781 140.45919,140.45919 0 0 0 95.67969,-37.78516 110.45919,110.45919 0 0 0 96.33008,56.67188 110.45919,110.45919 0 0 0 64.52344,-20.97266 v 94.43165 h 99.04101 V 703.92773 h -99.04101 v 67.37305 A 110.45919,110.45919 0 0 0 732.01758,750.36914 110.45919,110.45919 0 0 0 673.05469,767.46875 140.45919,140.45919 0 0 0 631.03516,705.01758 205.86657,205.86657 0 0 0 733.72461,527.16797 205.86657,205.86657 0 0 0 616.8125,341.79688 140.45919,140.45919 0 0 0 633.6582,321.72461 110.45919,110.45919 0 0 0 717.85352,360.86914 110.45919,110.45919 0 0 0 828.3125,250.41016 110.45919,110.45919 0 0 0 803.77148,181.05664 H 958.49414 V 82.015625 H 617.67578 V 143.17578 A 140.45919,140.45919 0 0 0 518.00781,101.59375 140.45919,140.45919 0 0 0 419.5957,141.88672 110.45919,110.45919 0 0 0 324.42578,87.236328 110.45919,110.45919 0 0 0 255,111.83984 V 13.908203 Z"
       transform="scale(0.26458334)"
       id="path5061"
       inkscape:connector-curvature="0" />
  </g>
  <g
     style="display:inline"
     inkscape:label="gears"
     id="layer2"
     inkscape:groupmode="layer">
    <path
       style="display:inline;opacity:1;fill:none;fill-opacity:1;fill-rule:nonzero;stroke:#fb0000;stroke-width:0.35277778;stroke-linecap:round;stroke-linejoin:round;stroke-miterlimit:4;stroke-dasharray:none;stroke-dashoffset:0;stroke-opacity:1"
       d="M 25.587135,3.6025373 H 253.83435 V 276.29978 H 25.587135 Z"
       id="rect4648"
       inkscape:connector-curvature="0" />
    <path
       style="display:inline;opacity:1;fill:none;fill-opacity:1;fill-rule:nonzero;stroke:#fb0000;stroke-width:0.35277778;stroke-linecap:round;stroke-linejoin:round;stroke-miterlimit:4;stroke-dasharray:none;stroke-dashoffset:0;stroke-opacity:1"
       d="m 58.51544,15.673413 h 182.98615 v 11.758209 m 0,12.355097 V 262.97064 h -8.34233 m -12.37792,0 H 38.654362 v -10.83217 m 0,-12.3551 V 15.673413 h 7.529605"
       id="rect4650"
       inkscape:connector-curvature="0"
       sodipodi:nodetypes="cccccccccccc" />
    <g
       transform="translate(99.20714,63.028575)"
       inkscape:label="Gear24"
       id="g4863" />
    <path
       style="opacity:1;fill:none;fill-opacity:1;fill-rule:nonzero;stroke:#ff0000;stroke-width:1.33333337;stroke-linecap:round;stroke-linejoin:round;stroke-miterlimit:4;stroke-dasharray:none;stroke-dashoffset:0;stroke-opacity:1"
       d="m 518.77344,344.67578 c -3.36374,0.16932 -6.72289,0.43102 -10.07227,0.78516 -7.19153,16.30072 -5.7793,25.30664 -5.77929,25.30664 l 0.61523,3.85351 c -5.16952,0.82451 -10.29356,1.90992 -15.35352,3.25196 l -1,-3.77149 c 0,0 -2.36049,-8.80538 -15.54297,-20.79101 -3.20534,1.03415 -6.3818,2.15631 -9.52539,3.36523 -2.72757,17.60663 0.9668,25.94141 0.9668,25.94141 l 1.5918,3.5625 c -4.77997,2.13441 -9.45004,4.50932 -13.99024,7.11523 l -1.9414,-3.38476 c 0,0 -4.55918,-7.89516 -20.39453,-16.06055 -2.82849,1.8285 -5.60648,3.73352 -8.33008,5.71484 1.9223,17.71265 7.64844,24.8086 7.64844,24.8086 l 2.45898,3.02929 c -4.06469,3.29881 -7.96086,6.80001 -11.67188,10.49219 l -2.75,-2.76562 c 0,0 -6.44827,-6.4457 -23.85742,-10.23438 -2.25883,2.49827 -4.44843,5.05898 -6.5664,7.67774 6.44118,16.61155 13.80859,21.98046 13.80859,21.98046 l 3.1582,2.29102 c -3.07237,4.2384 -5.92767,8.6294 -8.55664,13.15625 l -3.37304,-1.95898 c 0,0 -7.89683,-4.55913 -25.69336,-3.7129 -1.53525,2.99779 -2.98747,6.03757 -4.35547,9.11524 10.52107,14.37846 19.02734,17.66016 19.02734,17.66016 l 3.64258,1.39257 c -1.87071,4.8892 -3.49163,9.87079 -4.85938,14.92383 l -3.76562,-1.01953 c 0,0 -8.80821,-2.35902 -25.7793,3.06445 -0.70707,3.29299 -1.32281,6.60475 -1.84765,9.93164 13.884,11.16545 22.94922,12.13282 22.94922,12.13282 l 3.88085,0.40429 c -0.54145,5.20679 -0.81691,10.43704 -0.83203,15.67188 l -3.90234,-0.0117 c 0,0 -9.11635,0.002 -24.10547,9.63281 0.16931,3.36378 0.43105,6.72289 0.78516,10.07227 16.30074,7.19153 25.30664,5.7793 25.30664,5.77929 l 3.85351,-0.61523 c 0.82455,5.16952 1.90996,10.2936 3.25196,15.35352 l -3.77149,1 c 0,0 -8.80535,2.36053 -20.79101,15.54297 1.03414,3.20534 2.15632,6.3818 3.36523,9.52539 17.6066,2.72753 25.94141,-0.9668 25.94141,-0.9668 l 3.5625,-1.5918 c 2.13441,4.77997 4.50932,9.45008 7.11523,13.99024 l -3.38476,1.9414 c 0,0 -7.89516,4.55915 -16.06055,20.39453 1.8285,2.82845 3.73352,5.60648 5.71484,8.33008 17.71265,-1.9223 24.8086,-7.64844 24.8086,-7.64844 l 3.02929,-2.45898 c 3.29881,4.06469 6.80001,7.96086 10.49219,11.67188 l -2.76562,2.75 c 0,0 -6.4457,6.44827 -10.23438,23.85742 2.49827,2.25883 5.05898,4.44843 7.67774,6.5664 16.61155,-6.44114 21.98046,-13.80859 21.98046,-13.80859 l 2.29102,-3.1582 c 4.2384,3.07237 8.6294,5.92767 13.15625,8.55664 l -1.95898,3.37304 c 0,0 -4.55913,7.89685 -3.7129,25.69336 2.99779,1.53528 6.03757,2.98747 9.11524,4.35547 14.37846,-10.52107 17.66016,-19.02734 17.66016,-19.02734 l 1.39257,-3.64258 c 4.8892,1.87068 9.87079,3.49159 14.92383,4.85938 l -1.01953,3.76562 c 0,0 -2.35902,8.8082 3.06445,25.7793 3.29299,0.70707 6.60475,1.32283 9.93164,1.84765 11.16545,-13.88398 12.13282,-22.94922 12.13282,-22.94922 l 0.40429,-3.88085 c 5.20679,0.54141 10.43704,0.81691 15.67188,0.83203 l -0.0117,3.90234 c 0,0 0.002,9.11635 9.63281,24.10547 3.36378,-0.16929 6.72289,-0.43102 10.07227,-0.78516 7.19153,-16.30072 5.7793,-25.30664 5.77929,-25.30664 l -0.61523,-3.85351 c 5.16952,-0.82455 10.2936,-1.90992 15.35352,-3.25196 l 1,3.77149 c 0,0 2.36053,8.80538 15.54297,20.79101 3.20534,-1.03411 6.38176,-2.15631 9.52539,-3.36523 2.72753,-17.60663 -0.9668,-25.94141 -0.9668,-25.94141 l -1.5918,-3.5625 c 4.77997,-2.13441 9.45008,-4.50936 13.99024,-7.11523 l 1.9414,3.38476 c 0,0 4.55918,7.89518 20.39453,16.06055 2.82849,-1.8285 5.60648,-3.7335 8.33008,-5.71484 -1.9223,-17.71265 -7.64844,-24.8086 -7.64844,-24.8086 l -2.45898,-3.02929 c 4.06469,-3.29881 7.96086,-6.80001 11.67188,-10.49219 l 2.75,2.76562 c 0,0 6.44827,6.44574 23.85742,10.23438 2.25883,-2.49827 4.44843,-5.05898 6.5664,-7.67774 -6.44114,-16.61155 -13.80859,-21.98046 -13.80859,-21.98046 l -3.1582,-2.29102 c 3.07237,-4.23844 5.92767,-8.6294 8.55664,-13.15625 l 3.37304,1.95898 c 0,0 7.89685,4.55917 25.69336,3.7129 1.53528,-2.99779 2.98747,-6.03753 4.35547,-9.11524 C 685.21137,588.17824 676.7051,584.8965 676.7051,584.8965 l -3.64453,-1.39257 c 1.87071,-4.8892 3.49354,-9.87083 4.86133,-14.92383 l 3.76562,1.01953 c 0,0 8.80816,2.35905 25.7793,-3.06445 0.70703,-3.29299 1.32283,-6.60475 1.84765,-9.93164 -13.88398,-11.16545 -22.94922,-12.13282 -22.94922,-12.13282 l -3.88085,-0.40429 c 0.54141,-5.20676 0.81691,-10.43701 0.83203,-15.67188 l 3.90234,0.0117 c 0,0 9.11635,-0.002 24.10547,-9.63281 -0.16932,-3.36374 -0.43102,-6.72289 -0.78516,-10.07227 -16.30072,-7.19153 -25.30664,-5.7793 -25.30664,-5.77929 l -3.85351,0.61523 c -0.82455,-5.16952 -1.90992,-10.2936 -3.25196,-15.35352 l 3.77149,-1 c 0,0 8.80538,-2.36049 20.79101,-15.54297 -1.03411,-3.20534 -2.15631,-6.3818 -3.36523,-9.52539 -17.60663,-2.72757 -25.94141,0.9668 -25.94141,0.9668 l -3.5625,1.5918 c -2.13441,-4.77997 -4.50932,-9.45004 -7.11523,-13.99024 l 3.38476,-1.9414 c 0,0 7.89518,-4.55918 16.06055,-20.39453 -1.8285,-2.82849 -3.7335,-5.60648 -5.71484,-8.33008 -17.71265,1.9223 -24.8086,7.64844 -24.8086,7.64844 l -3.02929,2.45898 c -3.29881,-4.06469 -6.80001,-7.96086 -10.49219,-11.67188 l 2.76562,-2.75 c 0,2e-5 6.4457,-6.44827 10.23438,-23.85742 -2.49827,-2.25883 -5.05898,-4.44843 -7.67774,-6.5664 -16.61155,6.44118 -21.98046,13.80859 -21.98046,13.80859 l -2.29102,3.1582 c -4.23844,-3.07237 -8.6294,-5.92767 -13.15625,-8.55664 l 1.95898,-3.37304 c 0,0 4.55917,-7.89687 3.7129,-25.69336 -2.99779,-1.53528 -6.03757,-2.98743 -9.11524,-4.35547 -14.37842,10.52107 -17.66016,19.02734 -17.66016,19.02734 l -1.39257,3.64258 c -4.8892,-1.87071 -9.87083,-3.49163 -14.92383,-4.85938 l 1.01953,-3.76562 c 0,0 2.35905,-8.8082 -3.06445,-25.7793 -3.29299,-0.70707 -6.60475,-1.32283 -9.93164,-1.84765 -11.16545,13.88398 -12.13282,22.94922 -12.13282,22.94922 l -0.40429,3.88085 c -5.20676,-0.54141 -10.43701,-0.81691 -15.67188,-0.83203 l 0.0117,-3.90234 c 0,0 -0.002,-9.11635 -9.63281,-24.10547 z m 20.55468,52.5625 a 131.328,131.328 0 0 1 119.42383,119.4336 H 539.32812 Z m -22.65624,0.01 v 119.4236 H 397.23828 A 131.328,131.328 0 0 1 516.67188,397.24805 Z M 397.24805,539.32812 h 119.42383 v 119.4336 A 131.328,131.328 0 0 1 397.24805,539.32812 Z m 142.08007,0 h 119.4336 a 131.328,131.328 0 0 1 -119.4336,119.42383 z"
       transform="scale(0.26458334)"
       id="path4886"
       inkscape:connector-curvature="0" />
    <path
       style="opacity:1;fill:none;fill-opacity:1;fill-rule:nonzero;stroke:#ff0000;stroke-width:0.35277781;stroke-linecap:round;stroke-linejoin:round;stroke-miterlimit:4;stroke-dasharray:none;stroke-dashoffset:0;stroke-opacity:1"
       d="M 46.170827,3.6184863 V 75.024879 h 12.347049 v -2.958476 l 1.777154,0.280604 c 0,0 2.020511,0.304371 5.305102,-1.84485 0.0425,-0.772149 0.05091,-1.545841 0.02479,-2.318721 -3.23832,-2.218341 -5.265311,-1.956985 -5.265311,-1.956985 l -1.841749,0.250629 v -6.207371 l 1.777153,0.280085 c 0,0 2.020512,0.304887 5.305103,-1.844331 0.0425,-0.772152 0.05091,-1.545841 0.02479,-2.318724 -3.23832,-2.218338 -5.265312,-1.956985 -5.265312,-1.956985 l -1.841748,0.250632 v -6.202207 l 1.744596,0.274918 c 0,0 2.020512,0.304372 5.305102,-1.844847 0.0425,-0.772152 0.05091,-1.545844 0.02479,-2.318724 -3.23832,-2.218338 -5.264793,-1.956469 -5.264793,-1.956469 l -1.809711,0.245981 v -6.198072 l 1.744597,0.275434 c 0,0 2.020512,0.304372 5.305102,-1.844847 0.0425,-0.772149 0.05091,-1.545841 0.02479,-2.318721 C 62.354,30.574491 60.327528,30.836363 60.327528,30.836363 l -1.809711,0.245978 V 24.88427 l 1.744597,0.275435 c 0,0 2.020511,0.304372 5.305102,-1.844848 0.0425,-0.772151 0.05091,-1.545842 0.02479,-2.318722 -3.23832,-2.21834 -5.264793,-1.956987 -5.264793,-1.956987 l -1.80971,0.24598 V 3.6184863 Z"
       id="rect4646"
       inkscape:connector-curvature="0"
       sodipodi:nodetypes="ccccccccccccccccccccccccccccccccccc" />
    <path
       style="opacity:1;fill:none;fill-opacity:1;fill-rule:nonzero;stroke:#ff0000;stroke-width:1.33333337;stroke-linecap:round;stroke-linejoin:round;stroke-miterlimit:4;stroke-dasharray:none;stroke-dashoffset:0;stroke-opacity:1"
       d="m 324.66602,96.814453 c -1.46096,-0.01548 -2.92226,0.0015 -4.38282,0.05078 -8.38427,12.239307 -7.39453,19.900387 -7.39453,19.900387 l 1.21485,8.92774 c -5.41569,0.73674 -10.72885,2.10034 -15.83008,4.0625 l -3.23438,-8.41016 c 0,0 -2.82066,-7.18939 -16.0625,-13.8789 -2.60768,1.32019 -5.15625,2.75479 -7.63672,4.30078 -1.1413,14.79168 3.54493,20.93164 3.54493,20.93164 l 5.51562,7.125 c -4.32174,3.34588 -8.24101,7.18175 -11.67773,11.43164 l -7.00586,-5.66602 c 0,0 -6.03899,-4.81397 -20.85157,-3.98632 -1.59817,2.44714 -3.08575,4.96385 -4.46093,7.54296 6.40743,13.38063 13.53515,16.35352 13.53515,16.35352 l 8.33985,3.41211 c -2.06982,5.05848 -3.54519,10.34137 -4.39649,15.74023 l -8.90039,-1.40429 c 0,0 -7.63853,-1.15038 -20.05273,6.97265 -0.16063,2.9184 -0.19045,5.84254 -0.0918,8.76368 12.23932,8.38427 19.89844,7.39453 19.89844,7.39453 l 8.92773,-1.21485 c 0.73675,5.41569 2.10036,10.72885 4.0625,15.83008 l -8.41015,3.23438 c 0,0 -7.18937,2.82261 -13.87891,16.06445 1.32019,2.60768 2.75477,5.1543 4.30078,7.63476 14.79168,1.14131 20.93164,-3.54492 20.93164,-3.54492 l 7.125,-5.51562 c 3.3459,4.32174 7.18175,8.24101 11.43164,11.67773 l -5.66406,7.00586 c 0,0 -4.81592,6.03899 -3.98828,20.85156 2.44713,1.59818 4.96389,3.08775 7.54297,4.46289 13.38066,-6.40743 16.35351,-13.53711 16.35351,-13.53711 l 3.41211,-8.33789 c 5.05852,2.06982 10.34137,3.54519 15.74024,4.39649 l -1.4043,8.90039 c 0,0 -1.15038,7.63658 6.97266,20.05078 2.9184,0.16063 5.84255,0.1924 8.76367,0.0937 8.38428,-12.23928 7.39648,-19.90039 7.39648,-19.90039 l -1.21484,-8.92773 c 5.41568,-0.73675 10.7269,-2.10036 15.82812,-4.0625 l 3.23438,8.41015 c 0,0 2.82261,7.18941 16.06445,13.87891 2.60769,-1.32019 5.15434,-2.75477 7.63477,-4.30078 1.14134,-14.79168 -3.54297,-20.93164 -3.54297,-20.93164 l -5.51758,-7.125 c 4.32174,-3.34591 8.24105,-7.18175 11.67773,-11.43164 l 7.00586,5.66601 c 0,0 6.03903,4.81397 20.85157,3.98633 1.59821,-2.44713 3.08774,-4.9639 4.46289,-7.54297 -6.4074,-13.38066 -13.53516,-16.35352 -13.53516,-16.35351 l -8.33984,-3.41211 c 2.06982,-5.05852 3.54514,-10.34137 4.39648,-15.74024 l 8.90039,1.4043 c 0,0 7.63659,1.15038 20.05078,-6.97266 0.16063,-2.91836 0.1924,-5.84255 0.0937,-8.76367 -12.23932,-8.38428 -19.90039,-7.39453 -19.90039,-7.39453 l -8.92773,1.21484 c -0.73674,-5.41568 -2.10032,-10.72885 -4.0625,-15.83008 l 8.41016,-3.23437 c 0,0 7.18936,-2.82261 13.8789,-16.06445 -1.32019,-2.60765 -2.75476,-5.1543 -4.30078,-7.63477 -14.79167,-1.14133 -20.93164,3.54492 -20.93164,3.54492 l -7.125,5.51563 c -3.34586,-4.32174 -7.18179,-8.24103 -11.43164,-11.67774 l 5.66601,-7.00586 c 0,0 4.81592,-6.03902 3.98829,-20.85156 -2.44717,-1.59821 -4.9639,-3.08579 -7.54297,-4.46094 -13.38066,6.40743 -16.35547,13.53516 -16.35547,13.53516 l -3.41211,8.33984 c -5.05848,-2.06981 -10.33942,-3.54515 -15.73828,-4.39648 l 1.40234,-8.90234 c 0,0 1.15038,-7.63657 -6.97265,-20.050787 -1.45921,-0.08026 -2.91991,-0.129049 -4.38086,-0.144531 z m -12.375,53.556637 v 33.94922 h -33.9375 a 46.719558,46.719558 0 0 1 33.9375,-33.94922 z m 22.65625,0.0117 a 46.719558,46.719558 0 0 1 33.95312,33.9375 h -33.95312 z m -56.60547,56.59375 h 33.94922 v 33.9375 a 46.719558,46.719558 0 0 1 -33.94922,-33.9375 z m 56.60547,0 h 33.93945 a 46.719558,46.719558 0 0 1 -33.93945,33.95117 z"
       transform="scale(0.26458334)"
       id="path4882"
       inkscape:connector-curvature="0" />
    <path
       style="opacity:1;fill:none;fill-opacity:1;fill-rule:nonzero;stroke:#ff0000;stroke-width:1.33333337;stroke-linecap:round;stroke-linejoin:round;stroke-miterlimit:4;stroke-dasharray:none;stroke-dashoffset:0;stroke-opacity:1"
       d="m 501.90625,118.66406 c -3.10813,0.39833 -6.2013,0.91212 -9.27148,1.53906 -5.84637,14.60692 -3.65625,22.42383 -3.65625,22.42383 l 2.00195,7.02735 c -5.28,1.50414 -10.42525,3.44607 -15.38281,5.80468 l -3.13868,-6.5996 c 0,0 -3.52037,-7.31378 -17.55859,-14.41797 -2.7191,1.55746 -5.37999,3.21463 -7.97656,4.96875 0.18848,15.73232 5.20312,22.11718 5.20312,22.11718 l 4.53907,5.72657 c -4.30251,3.41023 -8.31456,7.17178 -11.99219,11.24804 l -5.42578,-4.89453 c 0,0 -6.05195,-5.41037 -21.74024,-6.60156 -1.9161,2.47944 -3.73913,5.02832 -5.46679,7.64258 6.19464,14.46262 13.27148,18.4414 13.27148,18.4414 l 6.38477,3.55469 c -2.66994,4.79713 -4.93568,9.80908 -6.77344,14.98242 l -6.88672,-2.44726 c 0,0 -7.66141,-2.68244 -22.61133,2.2207 -0.8214,3.02396 -1.53126,6.07592 -2.12695,9.15234 11.2577,10.99113 19.31836,11.96094 19.31836,11.96094 l 7.25976,0.83985 c -0.63103,5.4537 -0.80734,10.95078 -0.52539,16.43359 l -7.29687,0.375 c 0,0 -8.10542,0.45214 -20.04102,10.70312 0.39833,3.10814 0.9102,6.20127 1.53711,9.27149 14.60689,5.84636 22.42578,3.65625 22.42578,3.65625 l 7.02735,-2.00195 c 1.50417,5.28 3.44607,10.4252 5.80468,15.38281 l -6.59961,3.14062 c 0,0 -7.31577,3.52037 -14.41992,17.5586 1.55743,2.7191 3.2146,5.37999 4.96875,7.97656 15.73229,-0.18849 22.11719,-5.20313 22.11719,-5.20313 l 5.72656,-4.53906 c 3.41023,4.30246 7.17371,8.31264 11.25,11.99024 l -4.89453,5.42578 c 0,0 -5.41232,6.05194 -6.60351,21.74023 2.47944,1.91611 5.03027,3.73914 7.64453,5.4668 14.46262,-6.19465 18.4414,-13.26953 18.4414,-13.26953 l 3.55469,-6.38477 c 4.79709,2.6699 9.80713,4.93373 14.98047,6.77149 l -2.44531,6.88672 c 0,-3e-5 -2.68436,7.6614 2.21875,22.61132 3.024,0.82141 6.07787,1.53126 9.15429,2.12696 10.99113,-11.2577 11.95899,-19.31836 11.95899,-19.31836 l 0.83984,-7.25782 c 5.45367,0.63103 10.95075,0.80539 16.4336,0.52344 l 0.375,7.29883 c 0,0 0.45409,8.10542 10.70507,20.04102 3.10814,-0.39837 6.19933,-0.91212 9.26954,-1.53907 5.84636,-14.60685 3.6582,-22.42382 3.6582,-22.42382 l -2.00196,-7.02735 c 5.28002,-1.50418 10.42521,-3.44607 15.38282,-5.80469 l 3.13867,6.59766 c 0,0 3.52037,7.31577 17.55859,14.41992 2.71911,-1.55743 5.37999,-3.21463 7.97657,-4.96875 -0.18849,-15.73228 -5.20313,-22.11719 -5.20313,-22.11719 l -4.53906,-5.72656 c 4.30246,-3.41023 8.31455,-7.1737 11.99219,-11.25 l 5.42578,4.89649 c 0,0 6.05003,5.41037 21.73828,6.60156 1.91611,-2.47945 3.74113,-5.02832 5.46875,-7.64258 -6.19461,-14.46263 -13.27149,-18.44336 -13.27149,-18.44336 l -6.38476,-3.55273 c 2.66993,-4.79709 4.93568,-9.80905 6.77344,-14.98242 l 6.88671,2.44726 c 0,0 7.66141,2.6824 22.61133,-2.2207 0.82145,-3.024 1.53126,-6.07788 2.12696,-9.1543 -11.25767,-10.99113 -19.31836,-11.95898 -19.31836,-11.95898 l -7.25977,-0.83985 c 0.63099,-5.4537 0.80734,-10.95074 0.52539,-16.43359 l 7.29688,-0.375 c 0,0 8.10545,-0.45409 20.04101,-10.70508 -0.39832,-3.10813 -0.91016,-6.19934 -1.53711,-9.26953 -14.60689,-5.84636 -22.42578,-3.6582 -22.42578,-3.6582 l -7.02734,2.0039 c -1.50414,-5.28 -3.44608,-10.42716 -5.80469,-15.38476 l 6.59961,-3.13867 c 0,-3e-5 7.31577,-3.52038 14.41992,-17.5586 -1.55743,-2.7191 -3.21659,-5.37999 -4.9707,-7.97656 -15.73232,0.18848 -22.11524,5.20312 -22.11524,5.20312 l -5.72656,4.53907 c -3.41023,-4.30247 -7.17374,-8.31261 -11.25,-11.99024 l 4.89453,-5.42578 c 0,0 5.41232,-6.05198 6.60352,-21.74023 -2.47945,-1.91611 -5.03027,-3.73918 -7.64453,-5.4668 -14.46263,6.19461 -18.44141,13.26953 -18.44141,13.26953 l -3.55469,6.38477 c -4.79712,-2.66994 -9.80712,-4.93568 -14.98047,-6.77344 l 2.44532,-6.88477 c 0,0 2.68435,-7.66336 -2.21875,-22.61328 -3.02397,-0.82144 -6.07788,-1.52931 -9.1543,-2.125 -10.99113,11.25766 -11.96094,19.31641 -11.96094,19.31641 l -0.83984,7.25976 c -5.45371,-0.63099 -10.94883,-0.80539 -16.43164,-0.52343 l -0.37695,-7.29883 c 0,0 -0.45214,-8.10546 -10.70313,-20.04102 z m 4.82617,51.25586 v 64.43164 h -63.58398 a 75.714285,75.714285 0 0 1 63.58398,-64.43164 z m 22.65625,0.0391 a 75.714285,75.714285 0 0 1 63.58985,64.39258 h -63.58985 z m -86.24609,85.11329 h 63.58984 v 64.39257 a 75.714285,75.714285 0 0 1 -63.58984,-64.39257 z m 86.24609,0 h 63.58399 a 75.714285,75.714285 0 0 1 -63.58399,64.43164 z"
       transform="scale(0.26458334)"
       id="path4873"
       inkscape:connector-curvature="0" />
    <path
       style="opacity:1;fill:none;fill-opacity:1;fill-rule:nonzero;stroke:#ff0000;stroke-width:1.33333337;stroke-linecap:round;stroke-linejoin:round;stroke-miterlimit:4;stroke-dasharray:none;stroke-dashoffset:0;stroke-opacity:1"
       d="m 718.62695,151.36328 c -1.46095,-0.0155 -2.92225,0.001 -4.38281,0.0508 -8.38428,12.23931 -7.39648,19.90039 -7.39648,19.90039 l 1.21484,8.92774 c -5.41568,0.73674 -10.7269,2.10034 -15.82812,4.0625 L 689,175.89453 c 0,0 -2.82261,-7.18938 -16.06445,-13.87891 -2.60769,1.3202 -5.15626,2.75479 -7.63672,4.30079 -1.14131,14.79168 3.54492,20.93164 3.54492,20.93164 l 5.51563,7.125 c -4.32175,3.34588 -8.23906,7.18175 -11.67579,11.43164 l -7.00781,-5.66602 c 0,0 -6.037,-4.81592 -20.84961,-3.98828 -1.59817,2.44715 -3.08771,4.96386 -4.46289,7.54297 6.40743,13.38062 13.53516,16.35547 13.53516,16.35547 l 8.33984,3.41211 c -2.06982,5.05848 -3.54518,10.33941 -4.39648,15.73828 l -8.90039,-1.40234 c 0,0 -7.63854,-1.15038 -20.05274,6.97265 -0.16063,2.9184 -0.19045,5.84255 -0.0918,8.76367 12.23931,8.38428 19.89843,7.39453 19.89843,7.39453 l 8.92969,-1.21484 c 0.73674,5.41569 2.09841,10.72885 4.06055,15.83008 l -8.41016,3.23437 c 0,0 -7.18937,2.82066 -13.87891,16.0625 1.32019,2.60769 2.75672,5.15626 4.30274,7.63672 14.79171,1.14131 20.92969,-3.54492 20.92969,-3.54492 l 7.125,-5.51562 c 3.3459,4.32173 7.1837,8.23905 11.43359,11.67578 l -5.66602,7.00781 c 0,0 -4.81592,6.03899 -3.98828,20.85156 2.44713,1.59818 4.9639,3.0858 7.54297,4.46094 13.38066,-6.40743 16.35547,-13.53516 16.35547,-13.53516 l 3.41211,-8.33984 c 5.05852,2.06982 10.33942,3.54518 15.73828,4.39648 l -1.40234,8.90039 c 0,0 -1.15234,7.63854 6.9707,20.05274 2.9184,0.16063 5.84255,0.19044 8.76367,0.0918 8.38428,-12.23929 7.39649,-19.89844 7.39649,-19.89844 l -1.21485,-8.92774 c 5.41569,-0.73674 10.7269,-2.10035 15.82813,-4.0625 L 746.1582,324.5 c 0,0 2.82262,7.18941 16.06446,13.87891 2.60768,-1.32019 5.15628,-2.75476 7.63672,-4.30079 1.14134,-14.79167 -3.54493,-20.93164 -3.54493,-20.93164 l -5.51562,-7.125 c 4.32174,-3.3459 8.23909,-7.18175 11.67578,-11.43164 l 7.00586,5.66407 c 0,0 6.03903,4.81592 20.85156,3.98828 1.59821,-2.44713 3.08775,-4.9639 4.46289,-7.54297 -6.40739,-13.38066 -13.53515,-16.35352 -13.53515,-16.35352 l -8.33985,-3.41211 c 2.06982,-5.05852 3.54515,-10.34136 4.39649,-15.74023 l 8.90039,1.4043 c 0,0 7.63853,1.15038 20.05273,-6.97266 0.16063,-2.91836 0.19044,-5.84255 0.0918,-8.76367 -12.23932,-8.38428 -19.89844,-7.39649 -19.89844,-7.39649 l -8.92969,1.21485 c -0.73674,-5.41569 -2.09836,-10.7269 -4.06054,-15.82813 l 8.4082,-3.23437 c 0,0 7.19132,-2.82262 13.88086,-16.06446 -1.32019,-2.60764 -2.75672,-5.15624 -4.30274,-7.63671 -14.79167,-1.14133 -20.92968,3.54492 -20.92968,3.54492 l -7.125,5.51758 c -3.34587,-4.32174 -7.18374,-8.24103 -11.4336,-11.67774 l 5.66602,-7.00586 c 0,0 4.81592,-6.03902 3.98828,-20.85156 -2.44717,-1.59821 -4.96389,-3.08774 -7.54297,-4.46289 -13.38066,6.40742 -16.35547,13.53516 -16.35547,13.53515 l -3.41211,8.33985 c -5.05848,-2.06981 -10.33941,-3.54515 -15.73828,-4.39649 l 1.40235,-8.90039 c 0,0 1.15233,-7.63656 -6.97071,-20.05078 -1.4592,-0.0803 -2.9199,-0.12905 -4.38086,-0.14453 z m -12.375,53.55274 v 33.95312 H 672.3125 a 46.719558,46.719558 0 0 1 33.93945,-33.95312 z m 22.6543,0.0137 a 46.719558,46.719558 0 0 1 33.95313,33.93945 h -33.95313 z m -56.60547,56.5957 h 33.95117 v 33.9375 a 46.719558,46.719558 0 0 1 -33.95117,-33.9375 z m 56.60547,0 h 33.93945 a 46.719558,46.719558 0 0 1 -33.93945,33.95117 z"
       transform="scale(0.26458334)"
       id="path4928"
       inkscape:connector-curvature="0" />
    <path
       sodipodi:nodetypes="ccccccccccccccccccccccccccccccccccc"
       inkscape:connector-curvature="0"
       id="path4930"
       d="M 253.70746,27.449056 H 178.5969 v 12.34705 h 2.95847 l -0.2806,1.77715 c 0,0 -0.30437,2.02052 1.84485,5.30511 0.77215,0.0425 1.54584,0.0509 2.31872,0.0248 2.21834,-3.23832 1.95699,-5.26531 1.95699,-5.26531 l -0.25063,-1.84175 h 6.20737 l -0.28009,1.77715 c 0,0 -0.30488,2.02051 1.84433,5.3051 0.77216,0.0425 1.54585,0.0509 2.31873,0.0248 2.21834,-3.23832 1.95698,-5.26531 1.95698,-5.26531 l -0.25063,-1.84175 h 6.20221 l -0.27492,1.7446 c 0,0 -0.30437,2.02051 1.84485,5.3051 0.77215,0.0425 1.54584,0.0509 2.31872,0.0248 2.21834,-3.23832 1.95647,-5.26479 1.95647,-5.26479 l -0.24598,-1.80971 h 6.19807 l -0.27543,1.74459 c 0,0 -0.30437,2.02052 1.84484,5.30511 0.77215,0.0425 1.54585,0.0509 2.31873,0.0248 2.21834,-3.23833 1.95646,-5.2648 1.95646,-5.2648 l -0.24597,-1.80975 h 6.19807 l -0.27544,1.7446 c 0,0 -0.30437,2.02051 1.84485,5.3051 0.77215,0.0425 1.54584,0.0509 2.31872,0.0248 2.21834,-3.23832 1.95699,-5.26479 1.95699,-5.26479 l -0.24598,-1.80971 h 19.37081 z"
       style="opacity:1;fill:none;fill-opacity:1;fill-rule:nonzero;stroke:#ff0000;stroke-width:0.35277781;stroke-linecap:round;stroke-linejoin:round;stroke-miterlimit:4;stroke-dasharray:none;stroke-dashoffset:0;stroke-opacity:1" />
    <path
       sodipodi:nodetypes="ccccccccccccccccccccccccccccccccccc"
       inkscape:connector-curvature="0"
       id="path4932"
       d="M 233.16705,276.23958 V 204.56592 H 220.82 v 2.95848 l -1.77715,-0.28061 c 0,0 -2.02051,-0.30437 -5.30511,1.84485 -0.0425,0.77215 -0.0509,1.54584 -0.0248,2.31872 3.23832,2.21834 5.26532,1.95699 5.26532,1.95699 l 1.84174,-0.25063 v 6.20737 l -1.77715,-0.28009 c 0,0 -2.02051,-0.30488 -5.3051,1.84434 -0.0425,0.77215 -0.0509,1.54584 -0.0248,2.31872 3.23832,2.21834 5.26531,1.95698 5.26531,1.95698 l 1.84175,-0.25063 v 6.20221 l -1.7446,-0.27492 c 0,0 -2.02051,-0.30437 -5.3051,1.84485 -0.0425,0.77215 -0.0509,1.54584 -0.0248,2.31872 3.23832,2.21834 5.26479,1.95647 5.26479,1.95647 l 1.80971,-0.24598 v 6.19807 l -1.74459,-0.27543 c 0,0 -2.02051,-0.30437 -5.3051,1.84485 -0.0425,0.77214 -0.0509,1.54584 -0.0248,2.31872 3.23832,2.21834 5.26479,1.95647 5.26479,1.95647 l 1.80971,-0.24598 v 6.19807 l -1.7446,-0.27544 c 0,0 -2.02051,-0.30437 -5.3051,1.84485 -0.0425,0.77215 -0.0509,1.54584 -0.0248,2.31872 3.23832,2.21834 5.26479,1.95699 5.26479,1.95699 l 1.80971,-0.24598 v 15.93391 z"
       style="opacity:1;fill:none;fill-opacity:1;fill-rule:nonzero;stroke:#ff0000;stroke-width:0.35277781;stroke-linecap:round;stroke-linejoin:round;stroke-miterlimit:4;stroke-dasharray:none;stroke-dashoffset:0;stroke-opacity:1" />
    <path
       style="opacity:1;fill:none;fill-opacity:1;fill-rule:nonzero;stroke:#ff0000;stroke-width:1.33333337;stroke-linecap:round;stroke-linejoin:round;stroke-miterlimit:4;stroke-dasharray:none;stroke-dashoffset:0;stroke-opacity:1"
       d="m 733.19336,762.23828 c -1.46096,-0.0155 -2.92225,10e-4 -4.38281,0.0508 -8.38428,12.23928 -7.39649,19.90039 -7.39649,19.90039 l 1.21485,8.92774 c -5.41569,0.73674 -10.7269,2.10036 -15.82813,4.0625 l -3.23437,-8.41016 c 0,0 -2.82262,-7.1894 -16.06446,-13.87891 -2.60768,1.3202 -5.15629,2.75477 -7.63672,4.30079 -1.14134,14.79167 3.54493,20.93164 3.54493,20.93164 l 5.51562,7.125 c -4.32174,3.3459 -8.23909,7.18175 -11.67578,11.43164 l -7.00586,-5.66602 c 0,0 -6.03903,-4.81397 -20.85156,-3.98633 -1.59821,2.44713 -3.08775,4.9639 -4.46289,7.54297 6.40739,13.38066 13.53515,16.35352 13.53515,16.35352 l 8.33985,3.41211 c -2.06982,5.05852 -3.54515,10.34137 -4.39649,15.74023 l -8.90039,-1.40429 c 0,-1e-5 -7.63658,-1.15038 -20.05078,6.97265 -0.16063,2.91836 -0.19239,5.84255 -0.0937,8.76367 12.23932,8.38428 19.89844,7.39453 19.89844,7.39453 l 8.92969,-1.21289 c 0.73674,5.41569 2.09836,10.7269 4.06054,15.82813 l -8.4082,3.23437 c 0,0 -7.19132,2.82262 -13.88086,16.06446 1.32019,2.60764 2.75672,5.1543 4.30273,7.63476 14.79169,1.14134 20.93165,-3.54492 20.93165,-3.54492 l 7.12304,-5.51562 c 3.34587,4.32173 7.18374,8.24104 11.4336,11.67773 l -5.66602,7.00586 c 0,0 -4.81592,6.03903 -3.98828,20.85156 2.44717,1.59821 4.96389,3.08775 7.54297,4.46289 13.38066,-6.40739 16.35547,-13.53711 16.35547,-13.53711 l 3.41211,-8.33789 c 5.05848,2.06982 10.33941,3.54515 15.73828,4.39649 l -1.40235,8.90039 c 0,0 -1.15233,7.63654 6.97071,20.05078 2.9184,0.16063 5.84255,0.19239 8.76367,0.0937 8.38428,-12.23932 7.39648,-19.90039 7.39648,-19.90039 l -1.21484,-8.92774 c 5.41568,-0.73674 10.7269,-2.10032 15.82812,-4.0625 l 3.23633,8.41016 c 0,0 2.82066,7.18937 16.0625,13.87891 2.60769,-1.32019 5.15626,-2.75476 7.63672,-4.30079 1.14131,-14.79167 -3.54492,-20.93164 -3.54492,-20.93164 l -5.51563,-7.125 c 4.32174,-3.34586 8.23906,-7.18175 11.67579,-11.43164 l 7.00781,5.66602 c 0,0 6.03703,4.81397 20.84961,3.98633 1.59817,-2.44717 3.08771,-4.96386 4.46289,-7.54297 C 812.9539,894.1936 805.82617,891.2207 805.82617,891.2207 l -8.33984,-3.41211 c 2.06982,-5.05848 3.54518,-10.34136 4.39648,-15.74023 l 8.90039,1.4043 c 0,0 7.63854,1.15038 20.05274,-6.97266 0.16063,-2.9184 0.19044,-5.84255 0.0918,-8.76367 -12.23932,-8.38428 -19.89843,-7.39453 -19.89843,-7.39453 l -8.92969,1.21484 c -0.73674,-5.41568 -2.09841,-10.72885 -4.06055,-15.83008 l 8.41016,-3.23437 c 0,0 7.18937,-2.82262 13.8789,-16.06446 -1.32018,-2.60768 -2.75671,-5.1543 -4.30273,-7.63476 -14.79167,-1.14131 -20.92969,3.54492 -20.92969,3.54492 l -7.125,5.51563 c -3.3459,-4.32174 -7.1837,-8.24101 -11.43359,-11.67774 l 5.66601,-7.00586 c 0,0 4.81593,-6.03899 3.98829,-20.85156 -2.44713,-1.59817 -4.9639,-3.08579 -7.54297,-4.46094 -13.38066,6.40743 -16.35547,13.53516 -16.35547,13.53516 l -3.41211,8.33984 c -5.05852,-2.06982 -10.33942,-3.54518 -15.73828,-4.39648 l 1.4043,-8.90235 c -10e-6,0 1.15037,-7.63658 -6.97266,-20.05078 -1.4592,-0.0803 -2.9199,-0.12903 -4.38086,-0.14453 z m -12.375,53.55469 v 33.95117 h -33.93945 a 46.719558,46.719558 0 0 1 33.93945,-33.95117 z m 22.6543,0.0137 a 46.719558,46.719558 0 0 1 33.95117,33.9375 h -33.95117 z m -56.60743,56.59375 h 33.95313 v 33.93945 a 46.719558,46.719558 0 0 1 -33.95313,-33.93945 z m 56.60743,0 h 33.93945 a 46.719558,46.719558 0 0 1 -33.93945,33.95313 z"
       transform="scale(0.26458334)"
       id="path4934"
       inkscape:connector-curvature="0" />
    <path
       style="opacity:1;fill:none;fill-opacity:1;fill-rule:nonzero;stroke:#ff0000;stroke-width:1.33333337;stroke-linecap:round;stroke-linejoin:round;stroke-miterlimit:4;stroke-dasharray:none;stroke-dashoffset:0;stroke-opacity:1"
       d="m 521.55078,685.96094 c -3.10813,0.39836 -6.2013,0.91211 -9.27148,1.53906 -5.84637,14.60685 -3.65625,22.42383 -3.65625,22.42383 l 2.00195,7.02929 c -5.28,1.50419 -10.42521,3.44413 -15.38281,5.80274 l -3.14063,-6.59766 c 0,0 -3.52037,-7.31577 -17.55859,-14.41992 -2.71911,1.55743 -5.37804,3.21463 -7.97461,4.96875 0.18848,15.73228 5.20117,22.11719 5.20117,22.11719 l 4.54102,5.72656 c -4.30247,3.41023 -8.31456,7.17371 -11.99219,11.25 l -5.42578,-4.89453 c 0,0 -6.05198,-5.41232 -21.74024,-6.60352 -1.9161,2.47945 -3.73917,5.02832 -5.46679,7.64258 6.1946,14.46263 13.26953,18.44336 13.26953,18.44336 l 6.38672,3.55274 c -2.66994,4.79709 -4.93568,9.80904 -6.77344,14.98242 l -6.88672,-2.44531 c 0,0 -7.66141,-2.68436 -22.61133,2.21875 -0.82144,3.024 -1.53126,6.07787 -2.12695,9.15429 11.25766,10.99113 19.31836,11.95899 19.31836,11.95899 l 7.25976,0.83984 c -0.63099,5.45371 -0.80734,10.95075 -0.52539,16.43359 l -7.29687,0.375 c 0,0 -8.10741,0.4541 -20.04297,10.70508 0.39832,3.10813 0.91211,6.19935 1.53906,9.26953 14.60689,5.84637 22.42383,3.65821 22.42383,3.65821 l 7.0293,-2.00196 c 1.50414,5.28 3.44412,10.42521 5.80273,15.38282 l -6.59765,3.13867 c 0,0 -7.31578,3.52037 -14.41993,17.55859 1.55743,2.71911 3.21464,5.37999 4.96875,7.97656 15.73232,-0.18848 22.11719,-5.20312 22.11719,-5.20312 l 5.72656,-4.53906 c 3.41023,4.30246 7.17375,8.3126 11.25,11.99023 l -4.89453,5.42578 c 0,0 -5.41232,6.05199 -6.60351,21.74024 2.47944,1.9161 5.02831,3.74112 7.64257,5.46875 14.46264,-6.19461 18.44336,-13.27149 18.44336,-13.27149 l 3.55274,-6.38476 c 4.79713,2.66993 9.80908,4.93568 14.98242,6.77343 l -2.44531,6.88672 c 0,0 -2.68436,7.66141 2.21875,22.61133 3.02396,0.82144 6.07786,1.52931 9.1543,2.125 10.99113,-11.25766 11.95898,-19.31641 11.95898,-19.31641 l 0.83984,-7.25976 c 5.45371,0.63099 10.95079,0.80734 16.4336,0.52539 l 0.375,7.29687 c 0,0 0.45408,8.10546 10.70508,20.04102 3.10813,-0.39832 6.19934,-0.91211 9.26953,-1.53906 5.84636,-14.60689 3.6582,-22.42383 3.6582,-22.42383 l -2.00195,-7.02734 c 5.28,-1.50414 10.42524,-3.44608 15.38281,-5.80469 l 3.13867,6.59961 c 0,0 3.52037,7.31378 17.55859,14.41797 2.71911,-1.55747 5.37999,-3.21464 7.97657,-4.96875 -0.18849,-15.73232 -5.20313,-22.11524 -5.20313,-22.11524 l -4.53906,-5.72851 c 4.3025,-3.41023 8.3126,-7.17179 11.99023,-11.24805 l 5.42578,4.89453 c 0,0 6.05195,5.41037 21.74024,6.60156 1.91611,-2.47944 3.74109,-5.02831 5.46875,-7.64257 -6.19465,-14.46263 -13.27149,-18.44141 -13.27149,-18.44141 l -6.38476,-3.55469 c 2.66993,-4.79713 4.93568,-9.80713 6.77344,-14.98047 l 6.88672,2.44532 c 0,0 7.6614,2.68244 22.61132,-2.22071 0.82141,-3.02396 1.53127,-6.07592 2.12696,-9.15234 -11.2577,-10.99113 -19.31836,-11.96094 -19.31836,-11.96094 l -7.25977,-0.83984 c 0.63103,-5.45371 0.80735,-10.95079 0.52539,-16.4336 l 7.29688,-0.375 c 0,0 8.10542,-0.45214 20.04101,-10.70312 -0.39832,-3.10813 -0.9102,-6.20126 -1.53711,-9.27149 -14.60689,-5.84636 -22.42578,-3.65625 -22.42578,-3.65625 l -7.02734,2.00196 c -1.50418,-5.28 -3.44607,-10.42521 -5.80469,-15.38281 l 6.59961,-3.14063 c 0,0 7.31382,-3.52037 14.41797,-17.55859 -1.55743,-2.71911 -3.2146,-5.37804 -4.96875,-7.97461 -15.73228,0.18848 -22.11524,5.20117 -22.11524,5.20117 l -5.72851,4.54101 c -3.41023,-4.30246 -7.17175,-8.31459 -11.24805,-11.99218 l 4.89453,-5.42578 c 0,0 5.41037,-6.05195 6.60157,-21.74024 -2.47945,-1.91611 -5.02832,-3.73914 -7.64258,-5.4668 -14.46263,6.19465 -18.44141,13.26954 -18.44141,13.26954 l -3.55469,6.38671 c -4.79709,-2.66989 -9.80712,-4.93568 -14.98046,-6.77343 l 2.44531,-6.88672 c 0,0 2.68435,-7.66141 -2.21875,-22.61133 -3.024,-0.8214 -6.07788,-1.53126 -9.1543,-2.12695 -10.99113,11.2577 -11.96094,19.31836 -11.96094,19.31836 l -0.83984,7.25976 c -5.45367,-0.63103 -10.95075,-0.80734 -16.43359,-0.52539 l -0.375,-7.29687 c 0,0 -0.45214,-8.10738 -10.70313,-20.04297 z m 4.82617,51.24804 v 63.47266 h -63.4375 a 75.714284,75.714284 0 0 1 63.4375,-63.47266 z m 22.6543,0.0332 a 75.714284,75.714284 0 0 1 63.47461,63.43945 h -63.47461 z m -86.12695,86.09375 h 63.47265 v 63.43945 A 75.714284,75.714284 0 0 1 462.9043,823.33594 Z m 86.12695,0 h 63.44141 a 75.714284,75.714284 0 0 1 -63.44141,63.47461 z"
       transform="scale(0.26458334)"
       id="path4936"
       inkscape:connector-curvature="0" />
    <path
       style="opacity:1;fill:none;fill-opacity:1;fill-rule:nonzero;stroke:#ff0000;stroke-width:1.33333337;stroke-linecap:round;stroke-linejoin:round;stroke-miterlimit:4;stroke-dasharray:none;stroke-dashoffset:0;stroke-opacity:1"
       d="m 339.23242,707.69141 c -1.46096,-0.0155 -2.92225,10e-4 -4.38281,0.0508 -8.38428,12.23928 -7.39453,19.89843 -7.39453,19.89843 l 1.21484,8.92969 c -5.41568,0.73675 -10.72689,2.09841 -15.82812,4.06055 l -3.23633,-8.41016 c 0,0 -2.82066,-7.1894 -16.0625,-13.8789 -2.60769,1.32019 -5.15629,2.75672 -7.63672,4.30273 -1.14134,14.79167 3.54492,20.92969 3.54492,20.92969 l 5.51563,7.125 c -4.32174,3.3459 -8.2391,7.1837 -11.67578,11.43359 l -7.00782,-5.66601 c 0,0 -6.03902,-4.81593 -20.85156,-3.98828 -1.59821,2.44713 -3.08579,4.96389 -4.46094,7.54296 6.4074,13.38067 13.53516,16.35547 13.53516,16.35547 l 8.33984,3.41211 c -2.06982,5.05852 -3.54514,10.33942 -4.39648,15.73828 l -8.90039,-1.40429 c 0,0 -7.63854,-1.15038 -20.05274,6.97265 -0.16063,2.91837 -0.19044,5.84254 -0.0918,8.76368 12.23932,8.38427 19.89843,7.39648 19.89843,7.39648 l 8.92774,-1.21484 c 0.73674,5.41568 2.10032,10.72689 4.0625,15.82812 l -8.41016,3.23438 c 0,0 -7.18937,2.82261 -13.8789,16.06445 1.32019,2.60765 2.75671,5.15625 4.30273,7.63672 14.79167,1.1413 20.92969,-3.54492 20.92969,-3.54492 l 7.125,-5.51758 c 3.34586,4.32174 7.18179,8.24101 11.43164,11.67773 l -5.66406,7.00586 c 0,0 -4.81593,6.03903 -3.98829,20.85156 2.44718,1.59821 4.9639,3.08775 7.54297,4.46289 13.38066,-6.40743 16.35352,-13.53515 16.35352,-13.53515 l 3.41406,-8.33985 c 5.05848,2.06979 10.33942,3.54515 15.73828,4.39649 l -1.40429,8.90039 c 0,0 -1.15038,7.63658 6.97265,20.05078 2.9184,0.16063 5.84255,0.1924 8.76367,0.0937 8.38428,-12.23928 7.39649,-19.89844 7.39649,-19.89844 l -1.21485,-8.92968 c 5.4157,-0.73675 10.7269,-2.09841 15.82813,-4.06055 l 3.23437,8.4082 c 2e-5,0 2.82262,7.18941 16.06446,13.87891 2.60768,-1.32019 5.15625,-2.75481 7.63672,-4.30078 1.1413,-14.79171 -3.54492,-20.93164 -3.54492,-20.93164 l -5.51758,-7.12305 c 4.32174,-3.3459 8.24101,-7.1837 11.67773,-11.43359 l 7.00586,5.66601 c 0,0 6.03895,4.81592 20.85156,3.98828 1.59818,-2.44713 3.08771,-4.96385 4.46289,-7.54297 -6.40743,-13.38062 -13.53515,-16.35546 -13.53515,-16.35546 l -8.33985,-3.41211 c 2.06982,-5.05849 3.54519,-10.33942 4.39649,-15.73829 l 8.90039,1.40235 c 0,0 7.63658,1.15234 20.05078,-6.97071 0.16063,-2.91839 0.1924,-5.84255 0.0937,-8.76367 -12.23932,-8.38427 -19.89844,-7.39648 -19.89844,-7.39648 l -8.92969,1.21484 c -0.73674,-5.41568 -2.10034,-10.72689 -4.0625,-15.82812 l 8.41016,-3.23633 c 0,0 7.18937,-2.82066 13.87891,-16.0625 -1.32019,-2.60769 -2.75477,-5.15625 -4.30078,-7.63672 -14.79171,-1.1413 -20.93164,3.54492 -20.93164,3.54492 l -7.125,5.51563 c -3.34591,-4.32174 -7.18175,-8.23906 -11.43165,-11.67578 l 5.66602,-7.00782 c 0,0 4.81592,-6.03703 3.98828,-20.84961 -2.44713,-1.59817 -4.96389,-3.08774 -7.54297,-4.46289 -13.38066,6.40744 -16.35547,13.53516 -16.35547,13.53516 l -3.4121,8.33984 c -5.05853,-2.06982 -10.33942,-3.54518 -15.73829,-4.39648 l 1.40235,-8.90039 c 0,0 1.15038,-7.63854 -6.97266,-20.05274 -1.4592,-0.0803 -2.9199,-0.12708 -4.38086,-0.14257 z m -12.375,53.55468 v 33.95118 h -33.9375 a 46.719558,46.719558 0 0 1 33.9375,-33.95118 z m 22.65625,0.0117 a 46.719558,46.719558 0 0 1 33.95313,33.93946 h -33.95313 z m -56.60742,56.59375 h 33.95117 V 851.791 a 46.719558,46.719558 0 0 1 -33.95117,-33.93946 z m 56.60742,0 h 33.93945 a 46.719558,46.719558 0 0 1 -33.93945,33.95313 z"
       transform="scale(0.26458334)"
       id="path4938"
       inkscape:connector-curvature="0" />
    <path
       style="opacity:1;fill:none;fill-opacity:1;fill-rule:nonzero;stroke:#ff0000;stroke-width:0.35277781;stroke-linecap:round;stroke-linejoin:round;stroke-miterlimit:4;stroke-dasharray:none;stroke-dashoffset:0;stroke-opacity:1"
       d="m 25.630411,252.14174 h 75.110559 v -12.34705 h -2.958471 l 0.2806,-1.77715 c 0,0 0.30437,-2.02052 -1.84485,-5.30511 -0.77215,-0.0425 -1.54584,-0.0509 -2.31872,-0.0248 -2.21834,3.23832 -1.95699,5.26531 -1.95699,5.26531 l 0.25063,1.84175 h -6.20737 l 0.28009,-1.77715 c 0,0 0.30488,-2.02051 -1.84433,-5.3051 -0.77216,-0.0425 -1.54585,-0.0509 -2.31873,-0.0248 -2.21834,3.23832 -1.95698,5.26531 -1.95698,5.26531 l 0.25063,1.84175 h -6.20221 l 0.27492,-1.7446 c 0,0 0.30437,-2.02051 -1.844848,-5.3051 -0.77215,-0.0425 -1.54584,-0.0509 -2.31872,-0.0248 -2.21834,3.23832 -1.95647,5.26479 -1.95647,5.26479 l 0.24598,1.80971 h -6.19807 l 0.27543,-1.74459 c 0,0 0.30437,-2.02052 -1.84484,-5.30511 -0.77215,-0.0425 -1.54585,-0.0509 -2.31873,-0.0248 -2.21834,3.23833 -1.95646,5.2648 -1.95646,5.2648 l 0.24597,1.80975 h -6.19807 l 0.27544,-1.7446 c 0,0 0.30437,-2.02051 -1.84485,-5.3051 -0.77215,-0.0425 -1.54584,-0.0509 -2.31872,-0.0248 -2.21834,3.23832 -1.95699,5.26479 -1.95699,5.26479 l 0.24598,1.80971 h -19.37081 z"
       id="path4940"
       inkscape:connector-curvature="0"
       sodipodi:nodetypes="ccccccccccccccccccccccccccccccccccc" />
    <circle
       style="opacity:1;fill:none;fill-opacity:1;fill-rule:nonzero;stroke:#ff0000;stroke-width:0.3556;stroke-linecap:round;stroke-linejoin:round;stroke-miterlimit:4;stroke-dasharray:none;stroke-dashoffset:0;stroke-opacity:1"
       id="path4962"
       cx="139.7"
       cy="139.7"
       r="1.7272" />
    <circle
       r="1.7272"
       cy="66.197914"
       cx="189.85947"
       id="circle4966"
       style="opacity:1;fill:none;fill-opacity:1;fill-rule:nonzero;stroke:#ff0000;stroke-width:0.3556;stroke-linecap:round;stroke-linejoin:round;stroke-miterlimit:4;stroke-dasharray:none;stroke-dashoffset:0;stroke-opacity:1" />
    <circle
       style="opacity:1;fill:none;fill-opacity:1;fill-rule:nonzero;stroke:#ff0000;stroke-width:0.3556;stroke-linecap:round;stroke-linejoin:round;stroke-miterlimit:4;stroke-dasharray:none;stroke-dashoffset:0;stroke-opacity:1"
       id="circle4968"
       cx="137.07019"
       cy="64.746696"
       r="1.7272" />
    <circle
       r="1.7272"
       cy="51.765358"
       cx="85.624344"
       id="circle4970"
       style="opacity:1;fill:none;fill-opacity:1;fill-rule:nonzero;stroke:#ff0000;stroke-width:0.3556;stroke-linecap:round;stroke-linejoin:round;stroke-miterlimit:4;stroke-dasharray:none;stroke-dashoffset:0;stroke-opacity:1" />
    <circle
       r="1.7272"
       cy="214.84399"
       cx="142.26755"
       id="circle5017"
       style="opacity:1;fill:none;fill-opacity:1;fill-rule:nonzero;stroke:#ff0000;stroke-width:0.3556;stroke-linecap:round;stroke-linejoin:round;stroke-miterlimit:4;stroke-dasharray:none;stroke-dashoffset:0;stroke-opacity:1" />
    <circle
       style="opacity:1;fill:none;fill-opacity:1;fill-rule:nonzero;stroke:#ff0000;stroke-width:0.3556;stroke-linecap:round;stroke-linejoin:round;stroke-miterlimit:4;stroke-dasharray:none;stroke-dashoffset:0;stroke-opacity:1"
       id="circle5023"
       cx="193.71359"
       cy="227.82533"
       r="1.7272" />
    <circle
       style="opacity:1;fill:none;fill-opacity:1;fill-rule:nonzero;stroke:#ff0000;stroke-width:0.3556;stroke-linecap:round;stroke-linejoin:round;stroke-miterlimit:4;stroke-dasharray:none;stroke-dashoffset:0;stroke-opacity:1"
       id="circle5029"
       cx="89.478439"
       cy="213.39288"
       r="1.7272" />
    <path
       id="circle5039"
       style="opacity:1;fill:none;fill-opacity:1;fill-rule:nonzero;stroke:#ff0000;stroke-width:0.3556;stroke-linecap:round;stroke-linejoin:round;stroke-miterlimit:4;stroke-dasharray:none;stroke-dashoffset:0;stroke-opacity:1"
       d="m 195.82841,35.348183 c -0.95391,0 -1.7272,-0.773294 -1.7272,-1.7272 0,-0.953906 0.77329,-1.7272 1.7272,-1.7272 h 35.68049 c 0.95391,0 1.7272,0.773294 1.7272,1.7272 0,0.953906 -0.77329,1.7272 -1.7272,1.7272 -2.47833,-0.305525 -35.68049,0 -35.68049,0 z"
       inkscape:connector-curvature="0"
       sodipodi:nodetypes="csccscc" />
    <path
       sodipodi:nodetypes="csccscc"
       inkscape:connector-curvature="0"
       d="m 50.59888,24.066093 c 0,-0.95391 0.773294,-1.7272 1.7272,-1.7272 0.953906,0 1.7272,0.77329 1.7272,1.7272 v 35.68049 c 0,0.95391 -0.773294,1.7272 -1.7272,1.7272 -0.953906,0 -1.7272,-0.77329 -1.7272,-1.7272 0.305525,-2.47833 0,-35.68049 0,-35.68049 z"
       style="opacity:1;fill:none;fill-opacity:1;fill-rule:nonzero;stroke:#ff0000;stroke-width:0.3556;stroke-linecap:round;stroke-linejoin:round;stroke-miterlimit:4;stroke-dasharray:none;stroke-dashoffset:0;stroke-opacity:1"
       id="path5046" />
    <path
       sodipodi:nodetypes="csccscc"
       inkscape:connector-curvature="0"
       d="m 48.512187,247.62907 c -0.95391,0 -1.7272,-0.7733 -1.7272,-1.7272 0,-0.95391 0.77329,-1.7272 1.7272,-1.7272 h 35.68049 c 0.95391,0 1.7272,0.77329 1.7272,1.7272 0,0.9539 -0.77329,1.7272 -1.7272,1.7272 -2.47833,-0.30553 -35.68049,0 -35.68049,0 z"
       style="opacity:1;fill:none;fill-opacity:1;fill-rule:nonzero;stroke:#ff0000;stroke-width:0.3556;stroke-linecap:round;stroke-linejoin:round;stroke-miterlimit:4;stroke-dasharray:none;stroke-dashoffset:0;stroke-opacity:1"
       id="path5052" />
    <path
       id="path5056"
       style="opacity:1;fill:none;fill-opacity:1;fill-rule:nonzero;stroke:#ff0000;stroke-width:0.3556;stroke-linecap:round;stroke-linejoin:round;stroke-miterlimit:4;stroke-dasharray:none;stroke-dashoffset:0;stroke-opacity:1"
       d="m 225.17663,222.5826 c 0,-0.95391 0.7733,-1.7272 1.7272,-1.7272 0.95391,0 1.72721,0.77329 1.72721,1.7272 v 35.68049 c 0,0.95391 -0.77329,1.7272 -1.7272,1.7272 -0.9539,0 -1.7272,-0.77329 -1.7272,-1.7272 0.30553,-2.47833 -1e-5,-35.68049 -1e-5,-35.68049 z"
       inkscape:connector-curvature="0"
       sodipodi:nodetypes="csccscc" />
  </g>
  <g
     style="display:none"
     inkscape:label="acrylic"
     inkscape:groupmode="layer"
     id="layer1"
     transform="translate(0,-17.599983)"
     sodipodi:insensitive="true">
    <rect
       y="20.951368"
       x="25.576391"
       height="272.69724"
       width="228.24722"
       id="rect4641"
       style="opacity:1;fill:none;fill-opacity:1;fill-rule:nonzero;stroke:#fb0000;stroke-width:0.35277778;stroke-linecap:round;stroke-linejoin:round;stroke-miterlimit:4;stroke-dasharray:none;stroke-dashoffset:0;stroke-opacity:1" />
    <rect
       style="opacity:1;fill:none;fill-opacity:1;fill-rule:nonzero;stroke:#fb0000;stroke-width:0.35277778;stroke-linecap:round;stroke-linejoin:round;stroke-miterlimit:4;stroke-dasharray:none;stroke-dashoffset:0;stroke-opacity:1"
       id="rect4643"
       width="202.84723"
       height="247.29723"
       x="38.276386"
       y="33.651371" />
    <circle
       style="display:inline;opacity:1;fill:none;fill-opacity:1;fill-rule:nonzero;stroke:#ff0000;stroke-width:0.35277781;stroke-linecap:round;stroke-linejoin:round;stroke-miterlimit:4;stroke-dasharray:none;stroke-dashoffset:0;stroke-opacity:1"
       id="circle4685"
       cx="139.7"
       cy="157.29999"
       r="50.623611" />
  </g>
</svg>
