<?xml version="1.0" encoding="UTF-8" standalone="no"?>
<svg
   xmlns:dc="http://purl.org/dc/elements/1.1/"
   xmlns:cc="http://creativecommons.org/ns#"
   xmlns:rdf="http://www.w3.org/1999/02/22-rdf-syntax-ns#"
   xmlns:svg="http://www.w3.org/2000/svg"
   xmlns="http://www.w3.org/2000/svg"
   xmlns:sodipodi="http://sodipodi.sourceforge.net/DTD/sodipodi-0.dtd"
   xmlns:inkscape="http://www.inkscape.org/namespaces/inkscape"
   width="380"
   height="500"
   viewBox="0 0 380 500"
   version="1.1"
   id="svg24"
   inkscape:version="1.0 (4035a4fb49, 2020-05-01)"
   sodipodi:docname="full-lockdown.svg">
  <defs
     id="defs18">
    <inkscape:path-effect
       lpeversion="0"
       effect="roughen"
       id="path-effect4747"
       is_visible="true"
       method="segments"
       max_segment_size="8"
       segments="2"
       displace_x="1;694004062"
       displace_y="1;1"
       global_randomize="1;1"
       handles="along"
       shift_nodes="true"
       fixed_displacement="false"
       spray_tool_friendly="false" />
    <inkscape:path-effect
       lpeversion="0"
       effect="roughen"
       id="path-effect4745"
       is_visible="false"
       method="size"
       max_segment_size="4"
       segments="2"
       displace_x="1;1"
       displace_y="1;1826965067"
       global_randomize="1;1"
       handles="along"
       shift_nodes="true"
       fixed_displacement="false"
       spray_tool_friendly="false" />
  </defs>
  <sodipodi:namedview
     id="base"
     pagecolor="#ffffff"
     bordercolor="#666666"
     borderopacity="1.0"
     inkscape:pageopacity="0.0"
     inkscape:pageshadow="2"
     inkscape:zoom="1.979899"
     inkscape:cx="214.44027"
     inkscape:cy="354.70787"
     inkscape:document-units="px"
     inkscape:current-layer="layer1"
     showgrid="false"
     units="px"
     showguides="true"
     inkscape:guide-bbox="true"
     inkscape:window-width="1920"
     inkscape:window-height="1017"
     inkscape:window-x="1672"
     inkscape:window-y="134"
     inkscape:window-maximized="1"
     inkscape:snap-global="false"
     inkscape:document-rotation="0" />
  <metadata
     id="metadata21">
    <rdf:RDF>
      <cc:Work
         rdf:about="">
        <dc:format>image/svg+xml</dc:format>
        <dc:type
           rdf:resource="http://purl.org/dc/dcmitype/StillImage" />
        <dc:title></dc:title>
      </cc:Work>
    </rdf:RDF>
  </metadata>
  <g
     inkscape:label="Layer 1"
     inkscape:groupmode="layer"
     id="layer1"
     transform="translate(0,221.28127)">
    <g
       transform="translate(0,67.175145)"
       id="g37">
      <path
         transform="matrix(0,-5.0009879,4.9836522,0,-5351.6108,2076.6034)"
         sodipodi:type="star"
         style="font-style:normal;font-weight:normal;font-size:medium;line-height:125%;font-family:sans-serif;letter-spacing:0px;word-spacing:0px;fill:none;fill-opacity:1;stroke:#000000;stroke-width:0.304418;stroke-linecap:butt;stroke-linejoin:round;stroke-miterlimit:4;stroke-dasharray:1.21767, 1.21767;stroke-dashoffset:0;stroke-opacity:1"
         id="path5139"
         sodipodi:sides="6"
         sodipodi:cx="407.40814"
         sodipodi:cy="1113.0243"
         sodipodi:r1="11.162703"
         sodipodi:r2="9.6671848"
         sodipodi:arg1="-1.0471976"
         sodipodi:arg2="-0.52359878"
         inkscape:flatsided="true"
         inkscape:rounded="0"
         inkscape:randomized="0"
         d="m 412.98949,1103.3571 5.58135,9.6672 -5.58135,9.6672 -11.1627,0 -5.58135,-9.6672 5.58135,-9.6672 z" />
      <path
         style="fill:#000000;fill-opacity:1;stroke:none;stroke-width:0.593638;stroke-opacity:1"
         id="path5141"
         d="m 175.1875,-51.345142 c 2.59618,-13.84988 18.33195,-26.37435 30.7702,-24.96384 l -1.99612,-11.73103 33.91822,19.59838 -27.55201,17.85559 -2.16509,-12.74189 c -11.7906,-3.75957 -19.53351,19.92104 -19.9506,22.39145 -0.44401,2.62963 -3.94775,16.81809 6.56302,35.8986803 C 172.86016,-23.048462 171.94458,-34.045752 175.1875,-51.345142 Z"
         inkscape:connector-curvature="0"
         sodipodi:nodetypes="scccccscs" />
      <path
         d="m 412.98949,1103.3571 5.58135,9.6672 -5.58135,9.6672 -11.1627,0 -5.58135,-9.6672 5.58135,-9.6672 z"
         inkscape:randomized="0"
         inkscape:rounded="0"
         inkscape:flatsided="true"
         sodipodi:arg2="-0.52359878"
         sodipodi:arg1="-1.0471976"
         sodipodi:r2="9.6671848"
         sodipodi:r1="11.162703"
         sodipodi:cy="1113.0243"
         sodipodi:cx="407.40814"
         sodipodi:sides="6"
         id="path5143"
         style="font-style:normal;font-weight:normal;font-size:medium;line-height:125%;font-family:sans-serif;letter-spacing:0px;word-spacing:0px;fill:#b3b3b3;fill-opacity:1;stroke:#000000;stroke-width:0.304486;stroke-linecap:butt;stroke-linejoin:round;stroke-miterlimit:4;stroke-dasharray:none;stroke-dashoffset:0;stroke-opacity:1"
         sodipodi:type="star"
         transform="matrix(0,-5.0009879,4.9836522,0,-5257.0213,1946.3293)" />
      <path
         inkscape:connector-curvature="0"
         id="path5145"
         d="m 287.30595,-130.95742 c -1.01254,0.0274 -2.56987,0.4597 -2.40635,1.08953 0.52786,0.56284 0.84883,1.36511 1.22445,2.08666 0.83774,1.60912 1.48164,3.4217 1.99779,5.5684 0.47603,0.33524 0.64781,0.28526 1.34644,0.12789 0.46643,-0.10478 0.86866,-0.1662 1.01599,-0.52935 0.20949,-0.59261 0.34931,-1.17412 0.51398,-1.77164 0.1827,-0.66283 0.39545,-1.3433 0.76621,-2.02629 0.7648,-1.40859 1.54613,-2.5772 1.96578,-3.67832 0.15473,-0.45389 -1.04906,-0.64312 -1.53476,-0.64539 -1.03989,-0.006 -2.36322,0.0309 -4.30343,-0.17416 -0.14757,-0.0394 -0.35249,-0.0538 -0.5861,-0.0473 z m -3.60476,0.62529 c -0.11786,-0.0121 -0.2346,0.009 -0.33986,0.0663 -1.40573,0.76307 -2.7845,0.18504 -3.8297,1.17005 -0.34876,0.32869 -0.4427,0.87451 -0.11004,1.2198 2.02227,2.10066 2.14705,2.78247 3.9683,6.17236 1.33424,0.9421 2.81887,0.22015 3.23049,0.0451 0.43812,-0.19338 0.75996,-0.59474 0.62171,-1.05398 -0.26803,-2.96695 -1.48556,-4.42253 -2.82789,-6.93029 -0.006,-0.35966 -0.35832,-0.65774 -0.71167,-0.68804 v -8.5e-4 z m 10.9373,0.33278 c -0.35335,0.0303 -0.70538,0.32955 -0.71169,0.68924 -1.34232,2.50774 -2.5598,3.96336 -2.82792,6.93027 -0.13824,0.45925 0.18232,0.86049 0.62058,1.054 2.21838,0.97967 1.46346,0.2974 2.44537,0.45594 0.47282,0.0762 0.80804,-0.0787 1.03499,-0.50093 1.82126,-3.38992 1.94595,-4.07171 3.96827,-6.17236 0.33235,-0.34527 0.23852,-0.89112 -0.11004,-1.2198 -1.04523,-0.98509 -2.67276,-0.40696 -4.07841,-1.17003 -0.10512,-0.0574 -0.22331,-0.0766 -0.34106,-0.0663 z m -16.76477,1.57743 c -0.1177,0.012 -0.23065,0.0502 -0.32443,0.12432 -1.25387,0.99375 -2.95724,0.70295 -3.8179,1.85335 -0.28716,0.38381 -0.29463,0.95007 0.10064,1.22097 2.43925,1.67163 3.03732,2.11767 4.96892,5.39783 1.47598,0.69836 3.06119,-0.31068 3.43657,-0.55421 0.3984,-0.26606 0.64596,-0.71774 0.43102,-1.14638 -0.77316,-2.87661 -2.22266,-4.1012 -3.97534,-6.34052 -0.0678,-0.35323 -0.46612,-0.58633 -0.81949,-0.5554 z m 22.51767,0.59452 c -0.35381,-0.0258 -0.74845,0.21303 -0.81119,0.56726 -1.71977,2.26476 -3.15076,3.51092 -3.88186,6.39854 -0.2087,0.43171 0.0448,0.87903 0.44764,1.13926 0.37895,0.23802 1.97803,1.2232 3.44364,0.5033 2.33136,-3.06041 2.56241,-3.71339 4.88964,-5.46891 0.38252,-0.28855 0.37558,-0.84256 0.0829,-1.22216 -0.87736,-1.1377 -2.57572,-0.82242 -3.84393,-1.7977 -0.0947,-0.0734 -0.20894,-0.11105 -0.32682,-0.11965 z m -27.91408,2.24534 c -0.18075,0.006 -0.35526,0.0722 -0.47366,0.20724 -1.05434,1.204 -2.78176,1.22712 -3.42119,2.5142 -0.21329,0.42944 -0.1157,0.97996 0.31856,1.18186 2.67372,1.24297 3.73858,1.54981 6.07968,4.36755 1.57756,0.42025 2.73457,-0.8153 3.06001,-1.12266 0.34397,-0.3337 0.5053,-0.82166 0.21667,-1.2044 -1.27839,-2.68971 -2.92349,-3.63274 -5.05061,-5.51864 -0.10848,-0.27932 -0.42813,-0.43552 -0.72946,-0.42515 z m 33.2418,0.79937 c -0.30128,-0.012 -0.62081,0.14577 -0.72947,0.42515 -2.12714,1.88592 -3.77215,2.82771 -5.05066,5.51746 -0.28855,0.38276 -0.12731,0.8719 0.21674,1.20559 0.32531,0.30735 1.70269,1.58671 3.28024,1.16649 2.88172,-2.54699 3.23543,-3.64319 5.8594,-4.91112 0.43129,-0.20842 0.53193,-0.75248 0.31858,-1.1819 -0.63938,-1.28707 -2.36687,-0.81046 -3.42117,-2.01442 -0.11859,-0.13511 -0.29281,-0.20103 -0.47366,-0.20725 z m -37.84718,3.09447 c -0.30145,-0.0208 -0.62481,0.12371 -0.74013,0.40028 -0.61601,1.47793 -1.90587,1.93634 -2.44537,3.26856 -0.17997,0.44448 -0.0416,0.9891 0.40736,1.15464 0.82077,0.30224 4.65341,1.82628 5.41183,2.243 0.79459,0.43657 0.51259,0.49666 1.85683,1.05397 0.43566,0.18075 0.82217,0.16231 1.06341,-0.057 0.82028,-0.74481 1.41635,-1.45394 1.87934,-2.14706 0.21978,-0.42615 -0.16484,-0.79172 -0.56011,-1.0623 -2.06791,-2.14073 -3.78782,-3.52489 -6.40418,-4.63279 -0.11534,-0.13812 -0.28807,-0.20911 -0.46898,-0.22146 z m 43.54787,0.0474 c -0.18095,0.0135 -0.35378,0.0834 -0.46892,0.22144 -2.61642,1.10801 -4.869,3.02486 -6.93706,5.16577 -0.82807,0.6081 0.98143,3.49774 2.56032,3.36449 2.27888,-1.6097 4.77886,-2.61824 7.79909,-3.73044 0.44948,-0.16563 0.58738,-0.71014 0.40739,-1.15465 -0.5395,-1.33219 -2.00465,-1.9896 -2.62067,-3.4675 -0.11535,-0.27664 -0.43863,-0.41972 -0.74009,-0.39911 z m -23.44601,1.09308 c -1.22712,0.0729 -2.41275,0.24258 -3.54433,0.50567 v 4.06319 h -3.78471 v -2.76406 c -1.29763,0.60278 -2.4871,1.33549 -3.54433,2.17904 v 0.58502 h -0.68799 c -1.17807,1.05249 -2.16744,2.24797 -2.93089,3.5504 h 3.61888 v 4.58073 h -6.83877 c -0.14653,1.23294 0.31516,2.56106 0.54949,3.8536 h 6.28928 v 3.91277 h -6.13061 c -0.25493,1.360808 -0.0545,2.608088 0.15164,3.853568 h 5.97903 v 3.63922 h -5.54564 c -0.25104,1.33459 -0.16191,2.60145 0,3.85354 h 5.54564 v 3.0944 h -5.60839 c -0.28174,1.2845 0.34961,2.56922 0.53174,3.85373 h 5.07665 v 3.4994 h -5.12286 c 0,0 -0.81517,0.29007 -0.842,0.43705 l 0.18833,3.11344 h 5.77652 v 4.6445 l 1.58332,4.97517 c -7.42992,-0.54128 -14.92347,0.69411 -22.69646,-0.37547 -0.0473,0 -0.0947,-0.0195 -0.14097,-0.0195 -0.6962,0 -1.24576,0.67912 -1.24576,1.40099 v 1.21521 c 0,0.77 0.6209,1.32314 1.38673,1.39013 4.43905,0.38889 8.79638,0.71215 13.09848,0.78282 12.74137,0.24814 28.26532,0.19223 42.8267,-0.0564 4.55364,-0.0952 7.28156,-0.62945 11.90841,-0.72593 0.76851,-0.0195 1.38786,-0.62033 1.38786,-1.39034 v -1.21519 c 0,-0.77001 -0.6209,-1.44098 -1.38786,-1.39033 -2.89976,0.1922 -5.80685,0.55566 -8.72643,0.47975 -4.61199,-0.12041 -9.34175,0 -14.12285,0.1339 l 1.66029,-5.21417 v -4.6447 h 5.24361 l -0.15279,-2.51428 c 0,-0.3359 -0.0479,-0.68149 -0.13601,-1.03619 h -4.9547 v -3.49943 h 5.57995 c 0.28711,-1.65339 0.54223,-3.26118 0.0935,-3.85353 h -5.67351 v -3.0946 h 5.36087 c 0.24206,-1.26432 0.70841,-2.51 0,-3.85354 h -5.36087 v -3.63918 h 5.42366 c 0.23772,-1.28702 0.46436,-2.53347 0.34337,-3.853608 h -5.76703 v -3.91277 h 5.799 c 0.1524,-1.27071 0.41895,-2.52704 0.12445,-3.85359 h -5.92336 v -4.5807 h 2.70472 c -1.58243,-1.79642 -3.80932,-3.55866 -6.24905,-4.98219 v 1.43178 h -3.78471 v -3.28396 c -1.19959,-0.47594 -2.39537,-0.83846 -3.54432,-1.06463 v 4.34859 h -3.78473 v -4.56887 z m 27.80627,3.97437 c -0.11859,0.003 -0.2336,0.0379 -0.33152,0.10646 -2.44361,0.87367 -5.0254,2.25849 -8.03485,3.19277 -0.45181,0.15882 -0.58648,0.65525 -0.48433,1.12387 0.51746,2.37259 1.20439,2.10364 1.3417,3.05658 0.0687,0.4747 0.73082,0.76126 1.12261,0.48553 2.27693,-1.60233 4.51207,-2.90676 8.03362,-3.19159 0.47721,-0.0387 0.63491,-0.66814 0.48551,-1.12384 -0.44789,-1.36584 -1.1297,-1.4693 -1.34284,-3.05658 -0.0479,-0.35653 -0.43416,-0.60692 -0.7899,-0.59331 z m -52.30032,0.0474 c -0.35572,-0.0135 -0.74315,0.23678 -0.79106,0.59332 -0.21311,1.58725 -0.84993,1.51427 -1.29788,2.88011 -0.14953,0.45573 0.0247,0.98932 0.48432,1.12386 3.08873,0.90423 5.76221,1.52034 8.14498,2.97131 0.40921,0.24916 1.05303,-0.0135 1.12143,-0.48673 0.1375,-0.95292 0.67144,-0.28609 1.18891,-2.65867 0.1021,-0.46858 -0.0333,-0.96497 -0.48547,-1.12385 -2.55068,-1.53182 -5.22011,-2.80087 -8.03365,-3.19277 -0.0976,-0.0689 -0.21297,-0.1021 -0.33158,-0.10658 z m 17.16501,4.09753 h 3.78471 v 4.58073 h -3.78471 z m 7.32904,0 h 3.7847 v 4.58073 h -3.7847 z m 7.32903,0 h 3.78475 v 4.58073 h -3.78475 z m 22.77821,0.86095 c -0.11875,8.5e-4 -0.23435,0.033 -0.33399,0.0993 -2.82255,0.32063 -5.52444,1.52103 -8.113,2.9879 -0.45561,0.14713 -0.55912,0.63343 -0.51275,1.11083 0.13092,1.3444 0.0197,2.008 -0.14216,2.9571 -0.0802,0.47279 0.3643,0.45573 0.83016,0.3446 2.71265,-0.64712 5.49668,-0.19103 8.71335,-0.10064 0.47864,0.0135 0.80729,-0.44051 0.80528,-0.92016 -0.007,-1.43761 -0.29825,-4.27351 -0.4713,-5.86562 -0.0387,-0.35764 -0.41972,-0.61807 -0.77566,-0.61349 z m -57.2764,0.27603 c -0.3551,0.0195 -0.71744,0.30294 -0.73303,0.66198 -0.0694,1.60007 -0.17647,4.09664 -0.09,5.53167 0.0286,0.47881 0.3877,0.91035 0.86448,0.86569 3.20388,-0.30009 5.89341,-0.46886 8.6423,0 0.47209,0.0803 0.97559,-0.39913 0.86449,-0.86569 -0.22299,-0.93649 -0.37814,-1.23874 -0.33511,-2.58879 0.0154,-0.47943 -0.11935,-0.95796 -0.58381,-1.07531 -2.67833,-1.29493 -5.45207,-2.31669 -8.28946,-2.4526 -0.10333,-0.0598 -0.2205,-0.0828 -0.33868,-0.0769 v 0 z m 4.51655,7.28317 c -1.45215,-0.0195 -2.86744,0.0773 -4.20989,0.33986 -0.46562,-0.11186 -0.76072,0.39746 -0.86446,0.86571 -0.32474,1.4652 -0.32718,2.73301 0,4.198208 0.10467,0.46812 0.38936,0.9246 0.86446,0.86451 3.20947,-0.40607 5.83188,-0.31027 8.64353,0 0.47597,0.0523 0.97557,-0.39791 0.86449,-0.86451 -0.223,-0.93652 0.39217,-1.801668 0,-4.198208 -0.0776,-0.47336 -0.38599,-0.88484 -0.86449,-0.86571 -1.49218,-0.19143 -2.98152,-0.32206 -4.43364,-0.33986 z m 48.87685,0 c -1.45212,0.0195 -2.94147,0.14849 -4.43368,0.33986 -0.47844,-0.0195 -0.78696,0.39235 -0.86445,0.86571 -0.39212,2.39654 0.223,3.459448 0,4.395958 -0.11104,0.46656 0.38715,0.90463 0.86445,0.8657 2.84253,-0.23192 5.46184,-0.57908 8.6435,0 0.47107,0.0856 0.75994,-0.39759 0.86446,-0.8657 0.32719,-1.46518 0.32473,-2.930758 0,-4.395958 -0.10389,-0.46825 -0.39884,-0.97744 -0.86446,-0.86571 -1.34254,-0.26251 -2.75766,-0.35767 -4.20982,-0.33986 z m -33.55328,0.0135 h 3.78472 v 3.91279 h -3.78472 z m 7.32904,0 h 3.7847 v 3.91279 h -3.7847 z m 7.32903,0 h 3.78475 v 3.91279 h -3.78475 z m 18.84779,6.483798 c -1.4521,0.0195 -2.94149,0.14982 -4.43366,0.34107 -0.47845,-0.0195 -0.69461,0.4172 -0.86443,0.8657 -0.83942,2.21735 0.0775,3.10616 0,4.10101 -0.0369,0.47821 0.38706,0.82807 0.86443,0.86573 2.8876,0.22812 5.54044,0.5879 8.64352,0 0.47051,-0.0894 0.75994,-0.39763 0.8645,-0.86573 0.32714,-1.46508 0.32474,-2.63581 0,-4.10101 -0.10389,-0.46824 -0.39888,-0.97751 -0.8645,-0.8657 -1.34248,-0.26256 -2.75775,-0.35889 -4.20986,-0.34107 z m -48.69447,0.11127 c -1.452,-0.0195 -2.89594,0.0412 -4.2974,0.22973 -0.46567,-0.11187 -0.76077,0.39746 -0.8645,0.8657 -0.32474,1.46529 -0.32716,2.93076 0,4.39602 0.10445,0.46811 0.38724,0.82574 0.8645,0.86572 3.10319,0.26019 5.75473,0.1767 8.6423,0 0.47795,-0.0293 0.9028,-0.38752 0.86561,-0.86572 -0.0775,-0.99483 0.83945,-2.17858 0,-4.39602 -0.16948,-0.44849 -0.38711,-0.88491 -0.86561,-0.8657 -1.4337,-0.11829 -2.8929,-0.21211 -4.3449,-0.22973 z m 15.18861,1.17124 h 3.78472 v 3.6393 h -3.78472 z m 7.32904,0 h 3.7847 v 3.6393 h -3.7847 z m 7.32903,0 h 3.78475 v 3.6393 h -3.78475 z m 23.23057,5.30788 c -0.0571,0 -0.11466,1.9e-4 -0.17297,0.0195 -3.06541,0.73603 -5.71154,0.11845 -8.64353,0 -0.47845,-0.0195 -0.89295,0.38694 -0.8644,0.86574 0.13179,2.2174 0.24118,3.39999 0,4.39483 -0.11292,0.46615 0.38577,0.85271 0.8644,0.86573 2.56367,0.0699 5.37227,0.39276 8.64353,0 0.4754,-0.0564 0.78024,-0.39354 0.86446,-0.86573 0.2612,-1.46527 -0.17141,-2.92957 0,-4.39483 0.0487,-0.41686 -0.29339,-0.85234 -0.69155,-0.87992 v 0 z m -57.54882,0.2617 v 0 c -0.39818,0.0272 -0.73907,0.46423 -0.69033,0.88107 0.17143,1.46508 -0.26126,2.66435 0,4.12943 0.0842,0.47219 0.38609,0.84437 0.86446,0.86573 3.27124,0.14758 6.07872,-0.42986 8.64234,0 0.47232,0.0795 0.97864,-0.39957 0.86561,-0.86573 -0.24117,-0.99484 -0.13196,-1.9122 0,-4.12943 0.0284,-0.47878 -0.38711,-0.88612 -0.86561,-0.86688 -2.93202,0.1165 -5.57693,0.73582 -8.64234,0 -0.0582,-0.0195 -0.1171,-0.0195 -0.17414,-0.0195 z m 19.66018,1.92328 h 3.78472 v 3.09441 h -3.78472 z m 7.32904,0 h 3.7847 v 3.09441 h -3.7847 z m 7.32903,0 h 3.78475 v 3.09441 h -3.78475 z m -27.69379,4.18864 v 8.5e-4 c -2.14793,0 -4.19525,0.33706 -6.45033,0.13782 -0.47696,-0.0427 -0.79468,0.39238 -0.86446,0.8669 -0.21556,1.46526 -0.62657,2.92956 0,4.39484 0.18852,0.44091 0.38578,0.72535 0.86446,0.71175 3.27124,-0.0933 6.82261,-0.38538 8.86255,0.0446 0.46854,0.0991 0.85617,-0.38616 0.86569,-0.86553 0.0206,-0.99503 0.23621,-2.06733 -0.22029,-4.28475 -0.0969,-0.46968 -0.39131,-0.80107 -0.86561,-0.86689 -0.74966,-0.10478 -1.47609,-0.13978 -2.19201,-0.13783 z m 42.10792,0.13783 c -0.47802,-0.0293 -0.76771,0.39703 -0.86443,0.86689 -0.45649,2.21721 -0.0206,3.3998 0,4.39484 0.009,0.47956 0.38675,0.89932 0.86443,0.86553 2.56361,-0.18056 5.3723,-0.0933 8.64352,0 0.47864,0.0195 0.67599,-0.42462 0.8645,-0.86553 0.62654,-1.46527 0.21556,-2.92955 0,-4.39484 -0.0699,-0.4745 -0.38912,-0.92396 -0.8645,-0.86689 -3.00678,0.36093 -5.64487,0.17862 -8.64352,0 z m -29.0722,2.62067 h 3.78472 v 3.49961 h -3.78472 z m 7.32904,0 h 3.7847 v 3.49961 h -3.7847 z m 7.32903,0 h 3.78475 v 3.49961 h -3.78475 z m -27.69379,3.56833 c -2.14793,0 -4.19525,0.33821 -6.45033,0.13783 -0.47696,-0.0427 -0.79468,0.39122 -0.86446,0.86573 -0.21556,1.46527 -0.62657,2.6655 0,4.13077 0.18852,0.44093 0.39145,0.79119 0.86446,0.86554 3.27124,0.51528 6.07872,0.0641 8.64234,0 0.47867,-0.0195 0.85611,-0.38598 0.86561,-0.86554 0.0206,-0.99502 0.4565,-1.91337 0,-4.13077 -0.0969,-0.46967 -0.39131,-0.79972 -0.86561,-0.86573 -0.74966,-0.10479 -1.47609,-0.13978 -2.19201,-0.13783 z m 42.10792,0.13783 c -0.47731,-0.0388 -0.76771,0.39606 -0.86443,0.86573 -0.45649,2.2174 -0.0206,3.40117 0,4.39598 0.009,0.47956 0.38574,0.8537 0.86443,0.86573 2.56361,0.0642 5.3723,0.51528 8.64352,0 0.47297,-0.0737 0.67599,-0.4248 0.8645,-0.86573 0.62654,-1.46527 0.21556,-2.93071 0,-4.39598 -0.0699,-0.47451 -0.38878,-0.92051 -0.8645,-0.86573 -1.49484,0.17277 -2.81935,0.0776 -4.22405,0.0661 -1.42606,-0.0195 -2.93244,0.0543 -4.41947,-0.0661 z m -29.0722,3.34329 h 3.78472 v 4.64452 l 1.70526,5.35648 c -2.34706,-0.0543 -4.70287,-0.16502 -7.06729,-0.35646 -0.006,-2.5e-4 -0.007,-5.6e-4 -0.0135,-8.5e-4 l 1.59034,-4.99885 v -4.64472 z m 7.32904,0 h 3.7847 v 4.64452 l 1.71121,5.37532 c -2.3876,0.033 -4.78761,0.0387 -7.19996,-0.0194 l 1.70405,-5.35881 v -4.64452 z m 7.32903,0 h 3.78475 v 4.64452 l 1.66024,5.2202 c -2.37382,0.0642 -4.74835,0.11844 -7.15381,0.15336 l 1.70882,-5.37296 v -4.64455 z m -34.31466,2.97597 v 8.5e-4 c -0.37861,0.0409 -0.63289,0.45646 -0.69392,0.87154 -0.21556,1.46528 -0.62657,2.93075 0,4.39601 0.18852,0.44092 0.39781,0.75837 0.86446,0.86574 2.50604,0.57741 5.4941,0.0523 8.64234,0 0.47879,0 0.85611,-0.38618 0.86561,-0.86574 0.0206,-0.99483 0.4565,-2.17858 0,-4.39601 -0.0969,-0.46964 -0.38985,-0.91891 -0.86561,-0.86436 -2.75511,0.31549 -5.53849,0.5578 -8.64234,0 -0.0589,-0.0195 -0.1165,-0.0195 -0.17064,0 z m 57.54167,0.17669 c -0.054,0 -0.11071,0 -0.16931,0 -3.10383,0.5578 -5.88843,0.3155 -8.64353,0 -0.47577,-0.0543 -0.76769,0.39589 -0.86443,0.86553 -0.45649,2.21741 -0.0206,3.40116 0,4.39601 0.009,0.47954 0.39037,0.93329 0.86443,0.86572 2.8811,-0.41083 5.76247,-0.0738 8.64353,0 0.47865,0.0195 0.676,-0.42482 0.8645,-0.86572 0.62656,-1.46508 0.21551,-2.93074 0,-4.39601 -0.0609,-0.41509 -0.31666,-0.83193 -0.69519,-0.87271 v -8.6e-4 z"
         style="fill:#000000;fill-opacity:1;stroke:none;stroke-width:11.1829;stroke-linecap:round;stroke-linejoin:round;stroke-miterlimit:4;stroke-dasharray:none;stroke-dashoffset:0;stroke-opacity:1" />
      <path
         transform="matrix(0,-5.0009879,4.9836522,0,-5250.3832,2076.6034)"
         sodipodi:type="star"
         style="font-style:normal;font-weight:normal;font-size:medium;line-height:125%;font-family:sans-serif;letter-spacing:0px;word-spacing:0px;fill:#b3b3b3;fill-opacity:1;stroke:#000000;stroke-width:0.304486;stroke-linecap:butt;stroke-linejoin:round;stroke-miterlimit:4;stroke-dasharray:none;stroke-dashoffset:0;stroke-opacity:1"
         id="path5147"
         sodipodi:sides="6"
         sodipodi:cx="407.40814"
         sodipodi:cy="1113.0243"
         sodipodi:r1="11.162703"
         sodipodi:r2="9.6671848"
         sodipodi:arg1="-1.0471976"
         sodipodi:arg2="-0.52359878"
         inkscape:flatsided="true"
         inkscape:rounded="0"
         inkscape:randomized="0"
         d="m 412.98949,1103.3571 5.58135,9.6672 -5.58135,9.6672 -11.1627,0 -5.58135,-9.6672 5.58135,-9.6672 z" />
      <path
         d="m 412.98949,1103.3571 5.58135,9.6672 -5.58135,9.6672 -11.1627,0 -5.58135,-9.6672 5.58135,-9.6672 z"
         inkscape:randomized="0"
         inkscape:rounded="0"
         inkscape:flatsided="true"
         sodipodi:arg2="-0.52359878"
         sodipodi:arg1="-1.0471976"
         sodipodi:r2="9.6671848"
         sodipodi:r1="11.162703"
         sodipodi:cy="1113.0243"
         sodipodi:cx="407.40814"
         sodipodi:sides="6"
         id="path5149"
         style="font-style:normal;font-weight:normal;font-size:medium;line-height:125%;font-family:sans-serif;letter-spacing:0px;word-spacing:0px;fill:#b3b3b3;fill-opacity:1;stroke:#000000;stroke-width:0.304486;stroke-linecap:butt;stroke-linejoin:round;stroke-miterlimit:4;stroke-dasharray:none;stroke-dashoffset:0;stroke-opacity:1"
         sodipodi:type="star"
         transform="matrix(0,-5.0009879,4.9836522,0,-5452.8382,2076.6034)" />
      <text
         xml:space="preserve"
         style="font-style:normal;font-variant:normal;font-weight:normal;font-stretch:normal;font-size:24px;line-height:1.25;font-family:'Archivo Black';-inkscape-font-specification:'Archivo Black, ';letter-spacing:0px;word-spacing:0px"
         x="191.92899"
         y="-97.537582"
         id="text20"><tspan
           sodipodi:role="line"
           id="tspan18"
           x="191.92899"
           y="-97.537582">A-D</tspan></text>
      <path
         id="path3559"
         d="m 107.50463,-237.98326 c -22.915988,-0.0408 -45.221678,11.8555 -57.501946,33.16097 -12.439033,21.58102 -11.380256,47.25501 0.538938,67.22574 -7.350174,-18.63946 -5.660051,-42.25563 6.414096,-63.20376 12.081656,-20.961 31.676034,-34.24122 51.478922,-37.17405 -0.30996,0 -0.62016,0 -0.93001,0 z m -0.0438,14.88766 c -17.770661,-0.037 -35.063516,9.19468 -44.586758,25.7161 -9.644719,16.73393 -8.831516,36.63549 0.408855,52.12193 -5.695121,-14.45298 -4.380437,-32.76438 4.98005,-49.00463 9.366093,-16.25013 24.550513,-26.54641 39.902333,-28.82521 -0.2345,-0.006 -0.47004,0 -0.70421,0 z m -0.36512,12.10934 c -13.457251,0.10364 -26.519067,7.13481 -33.722471,19.63131 -10.815066,18.76426 -4.374824,42.82928 14.358441,53.6628 18.73296,10.83395 42.75809,4.39082 53.57346,-14.37302 10.81616,-18.76425 4.37489,-42.83814 -14.35781,-53.67129 -5.85394,-3.38488 -12.22356,-5.07898 -18.54721,-5.24017 -0.43504,0 -0.87002,0 -1.30441,0 z m -0.12141,5.17983 -0.17386,8.20166 c -4.25306,0.0444 -8.442125,1.13753 -12.167844,3.18584 l -4.163525,-6.90319 c 5.02847,-2.87356 10.717739,-4.42055 16.504939,-4.48397 z m 57.13678,0.037 c 7.36187,18.64347 5.67452,42.27276 -6.40523,63.23063 -12.06717,20.93566 -31.63042,34.21072 -51.4094,37.16467 23.21361,0.341 45.92149,-11.5818 58.35391,-33.15183 12.4421,-21.58627 11.38914,-47.26936 -0.53957,-67.24313 z m -47.54127,1.25354 c 2.65885,0.75515 5.27323,1.84197 7.77916,3.29125 2.60763,1.50769 4.93741,3.30999 6.97865,5.33608 l -6.06648,5.82426 c -1.55524,-1.55337 -3.33554,-2.93053 -5.32767,-4.08265 -1.71967,-0.99454 -3.5072,-1.77185 -5.32806,-2.33321 l 1.96469,-8.03573 z m 34.78262,6.39924 c 5.71071,14.45804 4.40548,32.78615 -4.96286,49.03929 -9.35327,16.22697 -24.51099,26.51863 -39.84109,28.81626 17.99512,0.25956 35.59225,-8.98745 45.22977,-25.70783 9.6503,-16.74303 8.82817,-36.65812 -0.42552,-52.14835 z m -68.51396,2.74207 5.54465,5.78914 c -1.371966,1.4476 -2.601224,3.07901 -3.641767,4.88365 -1.125528,1.9527 -1.95792,3.99084 -2.529239,6.06812 l -7.743783,-1.90658 c 0.756546,-2.8087 1.88402,-5.56811 3.407027,-8.20971 1.414835,-2.45567 3.08722,-4.67065 4.962582,-6.62504 z m 54.30352,7.19973 c 2.77211,5.0372 4.24139,10.71318 4.24139,16.47143 l -8.5695,-0.1819 c -0.019,-4.13996 -1.02768,-8.21964 -2.93784,-11.88327 l 7.26595,-4.40499 z m -63.838123,17.18508 8.004384,0.17344 c 0.163922,4.18375 1.342774,8.28353 3.433102,11.91776 l -6.909651,4.18798 c -2.845203,-4.95768 -4.405478,-10.56914 -4.527835,-16.27981 z m 58.388363,6.74709 8.32587,2.04534 c -0.75094,2.57433 -1.81619,5.10277 -3.21567,7.53053 -1.50467,2.6105 -3.29852,4.94795 -5.31915,6.99118 l -5.91897,-6.1815 c 1.43648,-1.48843 2.7181,-3.17504 3.79828,-5.04926 0.99405,-1.72426 1.76894,-3.51029 2.32934,-5.3365 z m -42.101195,11.42197 c 1.37029,1.2621 2.900809,2.38905 4.580671,3.35969 1.948809,1.12758 3.984159,1.97107 6.057524,2.54239 l -1.972985,8.05299 c -2.710033,-0.757 -5.374435,-1.85817 -7.926496,-3.33412 -2.451979,-1.41797 -4.662468,-3.09251 -6.613838,-4.9712 z m 29.880675,3.6298 4.39827,7.28684 c -4.94696,2.75116 -10.5147,4.22416 -16.17456,4.28338 l 0.17386,-8.39245 c 4.05783,-0.13327 8.04163,-1.21939 11.60277,-3.17734 z"
         style="fill:#000000;fill-opacity:1;stroke-width:0.999999"
         inkscape:connector-curvature="0" />
    </g>
  </g>
</svg>
