<?xml version="1.0" encoding="UTF-8" standalone="no"?>
<svg
   xmlns:dc="http://purl.org/dc/elements/1.1/"
   xmlns:cc="http://creativecommons.org/ns#"
   xmlns:rdf="http://www.w3.org/1999/02/22-rdf-syntax-ns#"
   xmlns:svg="http://www.w3.org/2000/svg"
   xmlns="http://www.w3.org/2000/svg"
   xmlns:sodipodi="http://sodipodi.sourceforge.net/DTD/sodipodi-0.dtd"
   xmlns:inkscape="http://www.inkscape.org/namespaces/inkscape"
   width="380"
   height="500"
   viewBox="0 0 380 500"
   version="1.1"
   id="svg24"
   inkscape:version="1.0 (4035a4fb49, 2020-05-01)"
   sodipodi:docname="panic.svg">
  <defs
     id="defs18">
    <inkscape:path-effect
       lpeversion="0"
       effect="roughen"
       id="path-effect4547"
       is_visible="true"
       method="size"
       max_segment_size="5"
       segments="2"
       displace_x="1;1"
       displace_y="1;1"
       global_randomize="1;1"
       handles="along"
       shift_nodes="true"
       fixed_displacement="false"
       spray_tool_friendly="false" />
  </defs>
  <sodipodi:namedview
     id="base"
     pagecolor="#ffffff"
     bordercolor="#666666"
     borderopacity="1.0"
     inkscape:pageopacity="0.0"
     inkscape:pageshadow="2"
     inkscape:zoom="1.4"
     inkscape:cx="328.79374"
     inkscape:cy="637.97116"
     inkscape:document-units="px"
     inkscape:current-layer="layer1"
     showgrid="false"
     units="px"
     showguides="true"
     inkscape:guide-bbox="true"
     inkscape:window-width="1920"
     inkscape:window-height="1017"
     inkscape:window-x="1672"
     inkscape:window-y="134"
     inkscape:window-maximized="1"
     inkscape:snap-global="false"
     inkscape:document-rotation="0" />
  <metadata
     id="metadata21">
    <rdf:RDF>
      <cc:Work
         rdf:about="">
        <dc:format>image/svg+xml</dc:format>
        <dc:type
           rdf:resource="http://purl.org/dc/dcmitype/StillImage" />
        <dc:title></dc:title>
      </cc:Work>
    </rdf:RDF>
  </metadata>
  <g
     inkscape:label="Layer 1"
     inkscape:groupmode="layer"
     id="layer1"
     transform="translate(0,221.28127)">
    <g
       transform="translate(0,-29.285714)"
       id="g19">
      <path
         id="path4549"
         d="m 203.00922,-24.968883 c -10.88743,0 -18.71796,6.0206 -23.24035,13.58184 -4.04448,6.7610401 -5.72713,14.6052101 -6.05539,21.47517 -12.34223,6.37731 -26.01543,12.80684 -37.02342,19.38083 -5.77488,3.4491 -10.80933,6.91736 -14.59897,10.64455 -3.78965,3.72712 -6.58585,7.92428 -6.58585,12.87553 0,2.10701 0.98485,3.82376 2.09241,5.08345 1.11277,1.26422 2.44142,2.24086 3.95688,3.15313 3.0304,1.82717 6.85084,3.34943 11.0538,4.66696 6.24334,1.95817 13.23557,3.41335 19.31522,4.03519 -6.04698,10.88988 -14.09463,20.89025 -21.14887,30.473033 -8.15257,11.0758 -15.26973,21.69665 -15.26973,33.49682 0,1.68561 -0.0179,3.00127 0.12276,4.32364 0.14767,1.32337 0.50528,2.97149 1.77819,4.2789 1.27213,1.30797 2.82948,1.65991 4.09804,1.8039 1.26728,0.15452 2.54665,0.15452 4.186,0.15452 h 44.97837 c 3.26526,0 5.65579,0.20604 8.11519,-1.44412 2.45993,-1.65217 3.35688,-3.9086 5.10905,-7.28048 h 0.0179 l 0.0178,-0.15454 c 0,0 3.92072,-8.33028 8.59872,-16.59825 2.33794,-4.13139 4.87799,-8.24831 7.08664,-11.16487 1.10547,-1.45691 2.13914,-2.61483 2.88331,-3.2677 0.22062,-0.20417 0.33213,-0.23086 0.47684,-0.32705 0.14767,0.15453 0.2473,0.15453 0.47682,0.32705 0.74347,0.65523 1.77819,1.80892 2.88308,3.2677 2.208,2.91656 4.74776,7.03348 7.08687,11.16487 4.67747,8.26797 8.59843,16.59825 8.59843,16.59825 l 0.0179,0.15454 h 0.0178 c 1.75359,3.37188 2.64135,5.61466 5.08521,7.27159 2.44356,1.65484 4.82835,1.45698 8.04734,1.45698 h 45.17663 c 1.61374,0 2.87099,0 4.13078,-0.15452 1.25991,-0.15454 2.82218,-0.50579 4.08108,-1.82704 1.25737,-1.32337 1.60621,-2.94784 1.74617,-4.26401 0.14768,-1.30797 0.12277,-2.63115 0.12277,-4.3175 0,-11.79862 -7.11729,-22.41953 -15.26973,-33.49552 -7.05384,-9.582653 -15.10142,-19.583213 -21.14882,-30.473023 6.07966,-0.62507 13.07194,-2.07888 19.31528,-4.03507 4.20285,-1.32342 8.02327,-2.84072 11.05379,-4.66702 1.51523,-0.9067 2.84614,-1.89133 3.95583,-3.15157 1.11034,-1.26429 2.0949,-2.97782 2.0949,-5.08519 0,-4.95113 -2.79609,-9.14836 -6.58568,-12.87535 -3.78977,-3.72725 -8.82431,-7.19539 -14.59879,-10.64468 -11.00859,-6.57374 -24.68119,-13.00332 -37.02395,-19.3807 -0.32974,-6.8696499 -2.01145,-14.7136999 -6.05529,-21.47505 -4.52238,-7.56137 -12.35278,-13.58203 -23.24039,-13.58203 z"
         inkscape:connector-curvature="0"
         style="fill:#ffffff;fill-opacity:1;stroke:none;stroke-width:4.32276;stroke-miterlimit:4;stroke-dasharray:none;stroke-opacity:0.98995" />
      <path
         inkscape:original-d="m 252.16783,-112.74657 a 2.1447447,2.1447447 0 0 0 -2.11533,1.41299 l -22.52309,59.616017 a 2.1449619,2.1449619 0 1 0 4.01315,1.51594 l 22.52143,-59.616037 a 2.1447447,2.1447447 0 0 0 -1.89616,-2.92891 z m -72.43253,5.83126 a 2.1447447,2.1447447 0 0 0 -1.98084,2.66492 l 12.86465,54.639857 a 2.1447447,2.1447447 0 1 0 4.1742,-0.98295 l -12.86464,-54.639857 a 2.1447447,2.1447447 0 0 0 -2.19337,-1.68197 z m -60.20547,33.855197 a 2.1447447,2.1447447 0 0 0 -1.43623,3.70598 l 40.58141,39.33279 a 2.1447447,2.1447447 0 1 0 2.98536,-3.08001 l -40.58306,-39.33279 a 2.1447447,2.1447447 0 0 0 -1.54748,-0.62597 z m 177.79708,9.24335 a 2.1447447,2.1447447 0 0 0 -1.31004,0.5197 l -44.94987,37.76374 a 2.1447447,2.1447447 0 1 0 2.75789,3.28423 l 44.94988,-37.76373 a 2.1447447,2.1447447 0 0 0 -1.44786,-3.80394 z m -94.25327,37.35528 c -0.0201,0 -0.0381,0.003 -0.0582,0.003 -0.003,-10e-6 -0.007,0 -0.01,0 v 0.002 c -0.0109,3e-5 -0.0207,0.002 -0.0315,0.002 v -0.005 l -0.0681,0.003 v 0.007 c -11.53008,0.0642 -20.01296,6.51883 -24.79283,14.46692 -4.0156,6.6760901 -5.72837,14.2060601 -6.20485,20.9673101 -11.96428,6.1159099 -25.12228,12.3121099 -35.91241,18.7208099 -5.81777,3.45573 -10.95478,6.95541 -14.9285,10.8423 -3.96877,3.88197 -7.19775,8.56325 -7.19775,14.27431 0,2.75679 1.29392,4.95238 2.61841,6.45058 h 0.002 c 1.30501,1.47452 2.82775,2.57303 4.43986,3.53828 3.24625,1.94662 7.18444,3.49159 11.46163,4.82507 5.28957,1.64997 10.98297,2.81358 16.35642,3.56484 -5.69043,9.54283 -12.81104,18.53849 -19.26542,27.2585 -8.14613,11.006623 -15.61257,21.876533 -15.61257,34.419723 0,1.65267 -0.0251,3.02921 0.13283,4.50628 l 0.002,0.007 v 0.005 c 0.16766,1.49434 0.6124,3.70042 2.36771,5.49421 1.74121,1.78048 3.90993,2.24953 5.36469,2.41419 1.42737,0.17208 2.78384,0.16936 4.40998,0.16936 h 44.75063 c 3.15896,0 6.2141,0.24482 9.26327,-1.78989 h 0.002 c 2.61112,-1.74413 3.79026,-4.12788 5.17209,-6.8441 h 0.64921 l 0.1926,-1.68197 c 0.21978,-0.46277 3.86506,-8.12637 8.3318,-15.97786 2.29829,-4.03914 4.80423,-8.06493 6.89226,-10.80743 l 0.002,-0.002 c 0.66191,-0.8674 1.11674,-1.30165 1.63548,-1.85631 0.51987,0.55541 0.97703,0.98954 1.63713,1.85631 2.08773,2.74265 4.59382,6.76881 6.89391,10.80909 4.46689,7.85262 8.11295,15.5187 8.3318,15.97953 l 0.19426,1.6803 h 0.64755 c 1.37952,2.7113 2.54885,5.08158 5.14055,6.82915 h 0.002 c 3.03306,2.04285 6.08824,1.80816 9.2035,1.80816 h 44.94822 c 1.60554,0 2.94481,0.004 4.36846,-0.16936 1.42972,-0.17441 3.61545,-0.64214 5.34975,-2.45239 l 0.002,-0.002 c 1.71745,-1.79773 2.15792,-3.9747 2.3179,-5.46598 0.16742,-1.47967 0.13615,-2.86131 0.13615,-4.50627 0,-12.5418 -7.46659,-23.41295 -15.61258,-34.419733 -6.45428,-8.72028 -13.57454,-17.71685 -19.26541,-27.26016 5.37249,-0.7527 11.06552,-1.91499 16.35477,-3.56318 h 0.002 0.002 c 4.27179,-1.33779 8.20667,-2.87672 11.45332,-4.82175 l 0.005,-0.003 c 1.6177,-0.96315 3.14054,-2.06907 4.43986,-3.5366 v -0.002 h 0.002 c 1.32473,-1.50015 2.62174,-3.6954 2.62174,-6.45224 0,-5.71092 -3.22899,-10.39076 -7.19775,-14.27264 -3.97386,-3.88696 -9.11122,-7.38809 -14.9285,-10.84396 -10.79062,-6.4084 -23.94929,-12.60316 -35.91407,-18.7191499 -0.47763,-6.76051 -2.1899,-14.29091 -6.20485,-20.9673201 -4.79406,-7.97182 -13.30974,-14.44739 -24.89245,-14.47355 z m -113.337706,1.51593 a 2.1447447,2.1447447 0 0 0 -0.64589,4.20077 l 59.129536,18.4335601 a 2.1447447,2.1447447 0 1 0 1.27684,-4.09449 L 90.366874,-24.839293 a 2.1447447,2.1447447 0 0 0 -0.63094,-0.10626 z m 113.279596,2.77616 c 10.04058,0.003 17.08248,5.42628 21.27613,12.3997301 3.78113,6.28757 5.40509,13.72143 5.72002,20.2467099 l 0.0598,1.23864 1.10249,0.5662 c 12.33113,6.33658 25.90927,12.69282 36.71936,19.11266 5.67306,3.3702 10.55435,6.73378 14.12155,10.22297 3.57196,3.49377 5.90764,7.11865 5.90764,11.20592 0,1.41361 -0.6628,2.61117 -1.54747,3.613 -0.90718,1.02417 -2.03067,1.86478 -3.42537,2.6948 l -0.003,0.002 -0.003,0.002 c -2.78271,1.66779 -6.44602,3.13105 -10.53513,4.41163 -6.06475,1.88959 -12.91704,3.30414 -18.79553,3.90522 l -3.24273,0.33208 1.58898,2.84756 c 6.13906,10.99449 14.21133,20.95483 21.1898,30.383333 8.07576,10.91197 14.77243,21.06064 14.77243,31.86772 0,1.68986 0.016,2.92345 -0.10959,4.02975 v 0.007 0.007 c -0.11894,1.11245 -0.37295,2.14517 -1.15396,2.96379 -3.5e-4,3.6e-4 -0.002,-3.8e-4 -0.002,0 -3.5e-4,3.5e-4 3.5e-4,0.002 0,0.002 -0.77039,0.80301 -1.69303,1.02929 -2.76952,1.1606 -1.08316,0.13213 -2.24488,0.13781 -3.85043,0.13781 h -44.948 c -3.29004,0 -4.97832,0.15612 -6.80757,-1.07592 -1.8873,-1.27261 -2.56893,-2.99164 -4.35684,-6.41074 l -0.60272,-1.15064 h 0.0763 c -0.69873,-1.46099 -3.88343,-8.07869 -8.10101,-15.49303 -2.3544,-4.13566 -4.90188,-8.25645 -7.20772,-11.28562 h -0.002 c -1.16009,-1.52329 -2.22336,-2.72587 -3.15972,-3.54658 l -0.0631,-0.0548 -0.0664,-0.0498 c -0.14995,-0.1121 -0.22396,-0.14779 -0.32045,-0.20423 l -1.13072,-1.17721 -1.49103,0.98627 c 0.12232,-0.0808 -0.3152,0.15626 -0.71894,0.51637 -0.94156,0.82469 -1.99449,2.01847 -3.14642,3.52832 v 0.002 c -2.30661,3.02928 -4.85598,7.1496 -7.20939,11.28562 -4.21809,7.41441 -7.4023,14.03203 -8.101,15.49303 h 0.0764 l -0.60272,1.1523 c -1.78601,3.41825 -2.47574,5.14479 -4.37345,6.41239 -1.8441,1.22991 -3.54474,1.06929 -6.88228,1.06929 h -44.75063 c -1.63104,0 -2.81727,-0.006 -3.90688,-0.13781 l -0.008,-0.002 h -0.009 c -1.06948,-0.12071 -1.99604,-0.34776 -2.78446,-1.15396 h -0.002 v -0.002 c -0.77389,-0.79054 -1.0422,-1.84069 -1.1689,-2.96046 v -0.005 c -0.12141,-1.13868 -0.10958,-2.3653 -0.10958,-4.04636 0,-10.80912 6.69452,-20.95553 14.77076,-31.86772 6.97888,-9.428643 15.05113,-19.388703 21.1898,-30.383343 l 1.59064,-2.84921 -3.24605,-0.33042 c -5.87838,-0.59797 -12.73007,-2.01489 -18.79552,-3.90688 -4.08607,-1.27389 -7.74968,-2.74066 -10.53347,-4.40998 -1.40298,-0.83995 -2.52475,-1.67445 -3.43367,-2.70144 -0.87862,-0.99438 -1.54249,-2.1959 -1.54249,-3.60801 0,-4.08737 2.33559,-7.71365 5.90764,-11.20758 3.56709,-3.48915 8.44652,-6.85301 14.11989,-10.22298 v 0.002 c 10.80958,-6.42025 24.38992,-12.77755 36.72101,-19.11433 l 1.1025,-0.56618 0.0598,-1.23865 c 0.3135,-6.5250299 1.93828,-13.9594099 5.72003,-20.2466999 4.18668,-6.9617401 11.21254,-12.3747601 21.22632,-12.3964201 z m 54.28786,14.5698601 a 2.1447447,2.1447447 0 0 0 0.0465,4.28711 l 56.70206,2.21993 a 2.1451942,2.1451942 0 1 0 0.16769,-4.28711 l -56.70205,-2.21827 a 2.1447447,2.1447447 0 0 0 -0.2142,-0.002 z"
         inkscape:path-effect="#path-effect4547"
         inkscape:connector-curvature="0"
         id="path4551"
         d="m 252.17744,-112.75757 c -0.93847,-0.0431 -1.37985,-0.0736 -1.69939,0.80987 l -2.56327,4.47864 -2.08863,5.19714 -1.28768,4.103177 -1.53447,4.706265 -2.15257,4.296131 -2.15415,5.503186 -0.66088,4.150112 -1.76502,4.624401 -1.92006,4.517171 -1.82273,4.725454 -1.59165,4.590695 -1.52007,5.204038 -2.25645,3.395751 c -0.32082,1.706704 0.89352,2.919922 1.94293,3.391154 1.04941,0.471232 1.76814,0.0423 2.27345,-1.295411 l 1.7199,-4.555783 1.73027,-4.580351 2.32048,-4.565638 1.68424,-4.727736 1.5342,-4.350299 1.65526,-4.629181 1.8741,-4.487748 1.69591,-4.604755 1.69584,-4.516293 1.49828,-5.138854 1.88304,-3.901406 1.79802,-5.32543 1.27392,-4.44793 c 0.863,-0.99465 -0.0938,-2.49836 -1.56282,-2.56637 z m -72.97772,6.00156 c -1.35406,0.0628 -1.87353,0.71936 -1.54331,2.03403 l 0.57006,4.753023 0.86327,4.764592 0.93362,4.296798 0.92437,4.776438 1.08337,4.3807 0.70896,5.089585 1.30249,4.481673 1.17224,4.351527 0.82287,4.687584 1.26294,4.264667 1.91132,4.972378 0.72791,5.06743 c 0.64236,1.043702 2.70182,2.007964 3.84652,1.661532 1.14471,-0.346432 1.04558,-2.907641 0.67787,-4.323513 l -1.20448,-4.766601 -0.97991,-4.212161 -1.06289,-4.636553 -0.99111,-4.28953 -1.04069,-4.596156 -1.108,-4.44556 -0.50354,-4.483267 -1.4576,-4.538742 -1.09313,-3.630121 -1.11162,-5.129751 -1.57018,-4.969332 -0.10533,-4.37839 c -0.53127,-0.67945 -1.99294,-1.23031 -3.03602,-1.18228 z m -60.05067,33.755498 c -0.96264,0.01527 -1.25019,0.572773 -1.54382,1.330455 -0.29364,0.757682 -0.51433,1.725096 0.18661,2.385077 l 3.45051,3.326443 2.98158,3.839929 3.94717,3.400332 3.20236,3.000473 4.01405,2.402346 3.99317,3.798708 1.85474,2.434328 3.72171,4.441997 3.76643,2.620567 3.25566,3.243651 3.80514,3.466387 3.73626,3.627419 c 0.60406,0.839731 1.65937,0.146584 2.30348,-0.669368 0.64411,-0.815952 1.01801,-1.932124 -0.0227,-2.926999 l -3.26234,-3.275124 -3.65754,-3.684045 -3.14951,-3.784889 -2.70337,-3.065285 -3.1536,-3.434507 -3.64578,-3.213388 -3.23812,-3.643046 -4.47924,-3.346237 -2.54689,-2.924948 -3.97994,-2.400582 -3.30129,-3.364336 -3.76216,-3.011573 c -0.2544,-0.416486 -1.19334,-0.582665 -1.77253,-0.573785 z m 178.24158,9.367831 c -0.48275,0.02071 -1.35599,0.819929 -1.72166,1.135789 l -3.7085,2.892843 -2.89415,3.487507 -4.17206,3.690303 -3.58016,3.112146 -3.78933,2.802352 -2.91244,2.639092 -4.44225,3.426538 -3.25172,2.69604 -4.35446,3.34467 -3.94395,2.160176 -3.96077,3.485682 -4.09084,3.170556 c -0.88695,0.943296 -0.96118,2.127312 -0.19985,2.966679 0.76134,0.839367 2.59803,1.150554 3.69618,0.189682 l 4.27058,-3.345687 3.46884,-2.939933 3.11132,-2.588042 4.06408,-3.550056 3.68326,-3.199257 3.02739,-3.150888 4.41726,-3.410309 3.36418,-2.793144 4.68312,-3.818694 2.5525,-3.183256 3.9939,-3.086988 3.54562,-2.123364 c 1.06271,-0.847585 1.76446,-1.593811 1.52639,-2.441505 -0.23806,-0.847694 -1.35221,-1.612775 -2.38248,-1.568932 z m -94.25312,37.105921 c -0.0201,0 -0.0882,0.101236 -0.10834,0.101236 -0.003,-10e-6 -0.0145,-0.04326 -0.0175,-0.04326 l -0.23763,0.524995 c 0.22055,-0.512665 0.28662,-0.586562 0.27582,-0.586562 l 0.0569,-0.02771 0.0779,0.415445 0.11394,-0.01274 c -1.70327,-0.03285 -2.5917,-0.527418 -4.15379,-0.302561 -1.10293,-0.332195 -4.2536,1.129239 -5.94779,1.746798 -1.80152,0.831897 -2.4681,0.736177 -3.52688,1.28498 -1.45403,0.476926 -1.74328,1.502531 -2.84165,2.331318 -0.49942,1.002699 -2.8777,1.557048 -4.01661,2.614418 -1.46295,0.576644 -1.33723,2.594687 -2.0869,3.695157 -0.76937,1.129391 -2.2574,2.03589 -2.92435,3.144906 -0.80312,1.335218 -1.60298,2.8372952 -2.21041,4.2059405 -0.6886,1.4695429 -1.68277,2.1085416 -2.10301,3.4361684 -1.07396,0.958127 -0.57816,3.37022391 -0.78134,4.95797798 0.0236,1.65186782 -0.2953,2.53125602 -0.4227,3.80251862 -0.13865,1.3834879 -0.20027,2.63138 -0.29669,3.9994734 -1.32936,0.6795455 -2.4957,1.4336511 -3.85138,2.1202551 -1.21287,0.775618 -2.23445,1.994204 -3.64802,2.703491 -0.88154,1.307039 -3.03425,1.747813 -4.50998,2.454525 -1.44929,0.943623 -2.99426,0.890656 -4.3229,1.503179 -1.69665,0.261055 -2.10618,1.169726 -3.43302,1.805496 -0.93275,0.645079 -3.00172,1.790971 -4.54746,2.546343 -1.2592,0.966542 -2.55572,1.196491 -3.87635,1.816661 -1.24532,0.558499 -3.12125,2.111167 -4.449,2.781629 -1.30794,0.660467 -1.81433,0.388367 -2.97966,1.080509 -1.45445,0.863932 -2.88965,1.738845 -4.28643,2.625984 -1.39677,0.887139 -2.75728,1.806006 -4.058,2.718846 -1.30087,0.930927 -2.43505,1.811282 -3.59921,2.745945 -1.16777,0.937564 -2.39744,1.8386 -3.39241,2.811828 -0.99219,0.970492 -1.40836,2.460829 -2.26594,3.541533 -0.31367,1.525609 -1.63192,2.102077 -2.34753,3.20395 -0.70951,1.10744 -1.37305,2.501298 -1.82606,3.752342 -0.45639,1.260354 -0.64291,2.470036 -0.64291,3.916698 0,1.378395 0.31953,2.575794 0.78838,3.639369 0.46886,1.063575 1.74972,1.425773 2.41197,2.174873 l -0.94756,0.415512 c 0.79594,0.81328 1.81186,1.237787 2.59304,1.836391 0.78118,0.598603 1.41853,1.05685 2.22459,1.539475 1.08208,0.648873 2.19603,1.081271 3.40534,1.694517 1.19044,0.414591 2.61993,1.398702 3.97164,2.002286 1.31633,0.587788 2.22724,1.086457 3.63407,1.525056 1.32239,0.412493 2.59947,0.824156 3.99475,1.169291 1.32219,0.384779 3.41326,1.09602 4.87081,1.379265 1.86159,0.688185 3.38656,0.611587 4.5636,0.723869 1.37654,0.131314 1.64411,0.303623 3.08208,0.504665 -0.81292,1.363262 -1.68396,2.773431 -2.54197,4.104845 -0.87911,1.376856 -1.48777,2.660663 -2.36662,3.944422 -0.68617,1.37898 -2.21624,2.772983 -3.1655,4.072912 -1.24788,1.330385 -2.40499,2.328863 -3.26757,3.497747 -1.55297,1.156865 -1.54538,2.335441 -2.33743,3.531236 -0.71677,1.258481 -1.60679,2.768057 -2.5252,4.111412 -0.86744,1.268824 -1.77289,2.365481 -2.70759,3.628281 -1.01826,1.375828 -2.02228,2.758043 -3.01012,4.135133 -0.98136,1.38375 -2.26674,2.71621 -3.19622,4.10006 -1.22162,1.31255 -1.79894,2.64748 -2.61133,4.01367 -0.87211,1.36131 -1.42124,2.54999 -2.13963,3.99858 -0.54492,1.2198 -1.13996,3.08362 -1.75251,4.67613 -0.25468,1.46714 -1.08174,2.97197 -1.53738,4.48847 -0.42592,1.4725 -0.92105,3.16644 -1.18716,4.66608 -0.27188,1.5321 -1.0745,3.54644 -1.0745,5.08933 0,1.65267 0.80482,2.04172 0.96275,3.51879 l -0.0645,0.30362 0.76554,0.6941 c -0.30684,0.41072 -0.32234,1.14526 -0.0684,2.02368 0.25389,0.87843 0.57073,2.1705 1.44838,3.06739 0.87061,0.89024 1.70321,1.54792 2.6965,1.84088 0.99328,0.29297 1.9977,0.37819 2.72508,0.46052 1.42737,0.17208 3.67509,-0.47577 5.30123,-0.47577 l 4.65255,0.0589 4.92203,0.4967 4.78819,0.19876 4.33324,0.60882 6.00493,-0.16869 3.99931,-0.52523 5.43245,0.26601 4.99422,-0.27816 4.90017,-0.78628 c 1.5704,0.30868 3.6716,1.0976 5.20913,0.98163 1.53753,-0.11596 3.04927,-1.35912 4.57385,-2.37647 l -0.12907,0.45525 c 1.10216,-0.98853 1.95095,-2.15417 2.69401,-3.33677 0.74305,-1.1826 1.81927,-2.13935 2.51018,-3.49746 l 0.22116,-0.20061 0.43389,-1.15315 c -0.008,-0.25844 0.25719,-1.2075 0.66418,-2.19401 0.43405,-1.22289 0.58829,-2.5021 1.27444,-3.89908 0.37082,-1.83386 1.84505,-3.25574 2.91347,-4.99828 1.06783,-1.74159 1.39107,-4.26535 2.53001,-6.26734 0.7661,-1.34638 1.48553,-2.68081 2.37794,-3.85721 0.74943,-1.26154 2.02017,-2.32015 2.92989,-3.33681 0.90107,-1.00699 1.7303,-1.86356 2.42298,-2.77336 l -0.40687,-0.12788 c 0.92979,-0.77173 1.57139,-1.32038 2.09013,-1.87504 0.51987,0.55541 0.76475,0.67022 1.42485,1.53699 0.69591,0.91422 1.30839,2.15996 2.07792,3.37664 0.63274,1.35101 1.92419,2.24405 2.74617,3.56243 0.83066,1.3323 1.3166,2.96021 2.08732,4.31404 1.11672,1.96315 2.6697,4.41205 3.64385,6.24126 1.36103,2.13915 1.69597,3.08637 2.33154,4.39024 0.80706,1.468 1.53338,3.34897 1.92368,4.27015 0.39372,0.92924 0.14529,0.81358 0.20307,0.93524 l 0.51012,1.74842 0.85134,0.45088 c 0.54877,1.16232 1.33851,2.57766 2.092,3.67925 0.75348,1.1016 2.24855,1.16765 3.5444,2.04144 l -0.81671,0.76698 c 1.53697,0.99884 2.86384,1.4202 4.40128,1.61124 1.53745,0.19103 4.03138,0.21451 5.58901,0.21451 l 4.40607,0.0722 5.92959,0.26788 4.58008,0.0807 4.74793,0.0767 5.65814,-0.36585 4.16193,-0.14113 5.15409,-0.18802 4.56932,0.0693 5.10571,-0.0204 c 1.49499,0.0858 2.69443,0.11153 4.11808,-0.0618 0.71486,-0.0872 1.45341,-0.0662 2.4303,-0.43669 0.97689,-0.37044 2.20075,-1.43057 3.0679,-2.33569 l -0.44113,0.30836 c 1.07598,-0.9049 1.95651,-1.5305 2.35562,-2.48738 0.39911,-0.95687 0.63136,-2.05803 0.71135,-2.80367 0.16742,-1.47967 0.17918,-2.58574 0.17918,-4.2307 0,-1.56772 -0.58752,-3.604 -0.81738,-5.13569 -0.66736,-1.83415 -0.91789,-2.94294 -1.26355,-4.25086 -0.80449,-1.65769 -0.97768,-2.80599 -1.46977,-4.14613 -0.71285,-1.51338 -0.32802,-2.89925 -0.98331,-4.30947 0.0761,-1.58185 -1.31058,-3.64519 -2.25819,-5.17563 -0.56348,-1.88977 -1.63001,-2.85898 -2.62185,-4.12508 -0.88272,-1.53155 -2.17809,-2.27429 -3.30794,-3.53869 -1.11418,-1.24687 -2.11267,-2.49054 -3.15107,-3.893625 -0.92204,-1.245754 -1.92145,-2.720853 -2.86797,-3.989418 -0.96965,-1.434191 -2.10551,-2.491083 -3.02119,-3.717679 -1.20817,-1.292124 -1.76415,-2.561655 -2.66915,-3.809381 -0.8743,-1.39104 -2.27036,-2.664362 -3.2029,-3.981196 -1.28004,-1.318722 -2.21151,-2.434372 -3.03774,-3.719209 -1.32008,-1.22872 -1.65033,-2.507096 -2.3669,-3.910178 -0.71259,-1.395319 -1.14307,-2.655585 -1.9809,-4.060574 1.34313,-0.188175 3.07534,-0.504642 4.42698,-0.780801 1.63676,-0.335218 2.10632,-0.440184 3.30973,-0.744043 1.04706,-0.259053 2.82466,-0.815668 4.32216,-1.25268 1.34788,-0.393345 2.9167,-0.7442 4.21462,-1.148647 l -0.60267,0.576034 -0.23363,-0.08727 c 1.6592,-0.614407 3.01381,-1.009747 4.45442,-1.582845 1.29376,-0.404503 3.15973,-1.247175 4.48747,-1.897344 1.25272,-0.613433 2.14097,-1.214814 3.19173,-1.844307 l -0.32502,0.127065 c 0.98662,-0.54795 1.9856,-1.304704 2.77538,-1.901613 0.78978,-0.596909 1.96033,-1.680412 2.60999,-2.414177 l -0.77518,0.722076 0.23046,-0.05168 c 0.64073,-0.763052 1.25349,-2.327058 1.73793,-3.411239 0.48444,-1.08418 0.60618,-2.245177 0.60618,-3.623597 0,-1.42773 -0.18259,-2.873415 -0.52535,-4.123717 -0.33148,-1.343047 -0.66075,-2.225347 -1.26684,-3.303847 -0.48114,-1.004695 -0.84312,-2.408044 -1.76106,-3.486318 -0.86556,-1.016738 -2.80583,-1.305778 -3.77829,-2.256951 -0.99347,-0.97174 -1.85119,-2.682687 -2.94802,-3.662629 -0.86342,-1.666342 -2.14002,-1.904228 -3.31616,-2.72691 -1.24016,-0.991144 -2.56217,-1.702811 -3.96125,-2.51803 -1.37918,-0.803628 -2.78162,-1.495159 -4.25709,-2.371694 -1.19896,-0.712044 -3.39704,-0.850603 -4.65129,-1.559968 -2.06982,-0.05042 -2.24639,-1.781653 -3.36172,-2.414309 -1.24653,-1.216703 -2.12335,-1.572418 -3.34659,-2.250007 -1.06616,-0.963184 -3.49066,-1.323721 -4.88947,-2.062758 -1.93659,-0.452671 -3.31523,-1.784519 -4.49357,-2.418419 -2.01037,-1.098229 -1.93244,-1.368722 -2.94596,-1.917215 -1.208,-0.980704 -2.93105,-1.407056 -4.31345,-2.099598 -1.49304,-0.613534 -2.59325,-1.265911 -3.93458,-1.960884 -1.27936,-0.66287 -2.63471,-1.4201297 -4.0541,-2.1456718 -0.0955,-1.352102 -0.25683,-2.7159182 -0.45974,-4.1166321 -0.21984,-1.3856567 -0.25553,-2.6468245 -0.58267,-4.07608485 -0.12961,-1.29644597 -0.76683,-2.98064225 -1.28998,-4.48373385 -0.48578,-1.4092904 -1.05404,-2.8429807 -1.69802,-4.2266231 -0.65074,-1.3981806 -1.31412,-2.7959193 -2.10512,-4.1112583 -0.68487,-1.138832 -1.80004,-2.323045 -2.63737,-3.384726 -1.13245,-1.065278 -2.25366,-1.738118 -3.1471,-2.632815 -1.52917,-0.695135 -2.04896,-1.692853 -3.01997,-2.481266 -1.26976,-0.796833 -2.21154,-1.8049 -3.3418,-2.502104 -1.26824,-0.905103 -2.40047,-1.321702 -3.69331,-1.822837 -1.36917,-0.510867 -2.44577,-1.639661 -3.9951,-1.910779 -1.48115,-0.259187 -3.4891,0.334745 -5.20161,0.330877 z m -113.262691,1.496521 c -1.247859,-0.02121 -2.232329,0.600046 -2.380985,1.566882 -0.148656,0.966836 0.768879,1.769761 1.965473,2.124397 l 5.185792,1.762653 3.520163,1.702041 4.450798,1.500592 4.57968,1.123916 5.47131,1.696856 3.52845,2.083097 4.51586,1.385891 4.40044,1.5737439 4.74657,1.1849025 4.72029,1.4607275 4.4732,0.8362967 4.78446,1.3326672 4.80626,0.8802945 c 1.16817,0.706196 1.96403,0.1576636 2.23377,-0.8138548 0.26973,-0.9715185 0.14931,-2.2995711 -1.24396,-2.7101244 l -4.59665,-1.4532155 -3.89923,-0.7810542 -5.88258,-1.9484354 -4.46188,-2.158774 -3.74837,-1.180469 -4.71689,-0.901201 -3.96994,-2.028354 -4.97043,-1.440743 -4.47034,-1.138818 -5.00622,-1.178156 -4.458847,-1.315516 -4.828666,-1.199058 -4.138408,-1.868523 c -0.320882,0.02552 -0.394676,-0.09499 -0.60912,-0.09866 z m 113.153771,3.038809 c 1.67343,5e-4 3.21657,-0.01712 4.7241,0.266587 1.48236,0.294636 3.25573,1.339759 4.60781,1.874672 1.48445,1.101716 2.07606,0.873184 3.10753,1.455914 1.06417,0.59988 1.76002,1.552176 2.86003,2.468568 0.4055,0.932724 2.46049,2.115655 3.56687,3.215463 0.97895,0.973134 2.00781,2.058901 2.67639,3.1706656 0.75623,1.257514 1.34366,2.8995759 1.9162,4.2176276 0.46533,1.5833174 0.44803,2.8922602 0.84846,4.1298961 -0.13579,1.71041888 0.30099,2.2291909 0.66376,3.4608276 -0.10986,1.0845024 1.12037,2.5438199 1.52313,4.0143708 0.35582,1.2991537 0.46682,2.9003963 0.52842,4.1767653 l 0.34392,1.16201 1.17509,0.432991 c 1.32609,0.729282 2.35008,1.447521 3.71069,2.172056 1.11858,0.758838 3.21945,1.992391 4.69496,2.755504 1.56211,1.104568 2.19219,1.356084 3.44247,1.984817 1.16721,0.815985 2.95518,1.46478 4.43578,2.185715 1.40845,0.680956 3.4853,1.774387 4.88209,2.449567 1.85873,0.984489 2.34519,1.174502 3.46445,1.715994 1.40008,0.721148 2.65875,1.394212 3.9712,2.045038 1.26862,0.737519 2.52785,1.022208 3.8402,1.694271 1.26129,0.645914 3.0653,1.230956 4.30035,1.964419 1.41826,0.84255 3.43269,1.453892 4.70453,2.332578 1.86888,0.572954 2.45472,1.503346 3.43978,2.380241 1.28183,0.784991 1.53253,2.940113 2.4345,3.96003 0.87719,0.991882 2.1078,1.25978 3.01303,2.145214 1.19065,1.16459 2.01135,2.13173 2.90294,3.30471 0.67511,1.023096 0.96101,2.591272 1.51987,3.92107 0.52435,1.247677 1.28952,1.839424 1.28952,3.158439 0,1.41361 -0.61091,3.273508 -1.49558,4.275338 -0.90718,1.02417 -1.80183,2.474246 -3.19653,3.304266 l -0.21664,-0.912215 -0.31675,0.305009 c -0.7434,0.535346 -1.78531,1.136905 -2.80987,1.639045 -1.14252,0.573766 -1.57295,1.412622 -2.74089,1.849585 -1.21758,0.455537 -2.73211,0.263029 -4.12352,0.698772 -1.51618,0.472398 -3.50781,0.562879 -5.12383,0.985841 -1.94887,0.04119 -2.38333,0.308149 -3.89389,0.698266 -1.05923,-0.05721 -3.66142,1.039423 -5.53336,1.515668 -1.59837,0.406645 -2.8202,0.695776 -4.205,0.837373 l -3.59349,0.371005 1.28932,3.103099 c 0.80521,1.341322 1.31226,2.03566 2.16311,3.353377 0.64591,0.866601 2.37203,2.886982 3.40041,4.387348 1.25813,1.136692 1.70183,2.498657 2.57158,3.751514 0.87045,1.277346 2.38736,1.982322 3.28806,3.261957 1.51979,0.723511 1.85384,2.968251 2.72125,4.323814 0.82805,1.537471 1.98391,2.487547 2.74523,3.6737 1.22885,1.29415 1.4403,2.417926 2.1422,3.605346 0.7476,1.264751 1.28826,2.40843 2.18823,3.624361 1.00947,1.364 2.25163,2.32096 3.21507,3.66765 1.2502,1.00085 2.00888,2.68746 2.92496,4.08672 0.93935,1.25682 1.56743,2.60544 2.35844,3.97781 0.63079,1.26689 1.56693,2.79378 2.25635,4.20427 0.66119,1.32861 1.1372,2.49847 1.66209,3.84288 0.42796,1.20055 1.02369,2.78159 1.4197,4.19241 0.37957,1.32711 0.68446,2.94042 0.89149,4.26992 0.21194,1.36112 0.008,3.20944 0.008,4.52784 0,1.68986 1.21421,1.27728 1.08862,2.38358 l -0.62662,0.84132 -0.15252,0.19225 c -0.22963,0.97527 -0.22442,1.60308 -1.00543,2.4217 -3.5e-4,3.6e-4 -0.40856,0.42728 -0.40856,0.42766 -3.5e-4,3.5e-4 0.12071,-0.0433 0.12036,-0.0433 -0.77039,0.80301 -0.94623,0.27233 -2.02272,0.40364 -1.08316,0.13213 -2.50213,0.37302 -4.10768,0.37302 l -5.1444,-0.15613 -4.98257,0.0873 -5.06719,0.0988 -5.25039,-0.094 -4.13754,-0.11593 -5.69272,0.23447 -5.04226,-0.29548 -5.61445,0.11273 -5.08592,0.10544 c -1.34159,0.28354 -2.79297,0.96953 -3.77909,0.92544 -0.98612,-0.0441 -1.47274,-0.51009 -2.38737,-1.12611 -0.94365,-0.63631 -1.87597,-1.23604 -2.51434,-2.3293 -0.63836,-1.09327 -1.29147,-1.95737 -2.18543,-3.66692 l -0.31539,-1.83442 0.16564,-0.0694 c -0.19168,-0.35762 -0.34527,-1.08013 -0.81756,-2.01755 -0.28708,-0.98606 -1.17999,-2.14708 -1.92586,-3.53591 -0.80711,-1.36541 -1.75527,-2.73332 -2.65975,-4.39682 -0.91356,-1.68017 -1.74894,-3.67876 -2.80409,-5.53368 -0.7848,-1.37856 -1.73933,-2.95687 -2.54526,-4.28907 -0.9339,-1.49538 -1.44087,-2.46436 -2.18061,-3.59213 -0.78626,-1.19869 -2.3217,-1.50021 -3.11375,-2.54071 l 0.28685,-1.16529 c -0.77877,-1.20029 -1.84192,-2.43192 -2.77828,-3.25263 l 0.45558,0.36854 -1.0155,-0.47156 c 0.28035,-0.0846 0.81045,0.24603 0.71396,0.18959 l -1.88351,-1.78428 -1.50696,1.06371 c 0.28693,0.0825 -0.17729,0.2154 -0.58103,0.57551 -0.94156,0.82469 -1.36698,1.36387 -2.51891,2.87372 l -0.20304,0.80336 c -0.90146,0.99555 -2.30035,2.4491 -3.16584,3.65517 -1.32552,1.46199 -1.40508,2.43979 -2.06175,3.60668 -0.74514,1.32409 -1.15579,2.1289 -1.98977,3.59458 -1.05452,1.85361 -1.8367,3.64388 -2.77585,5.366 -0.72761,1.72212 -1.45344,3.34159 -2.25457,4.80053 -0.39361,1.39968 -1.74458,2.56847 -2.38558,3.57165 -0.58919,0.92209 -0.77697,1.6264 -0.94246,1.97244 l -0.12174,0.10788 -0.59834,1.18146 c -0.86229,1.7251 -1.53234,2.74938 -2.15756,3.77074 -0.62522,1.02136 -0.66706,2.01493 -1.61591,2.64873 -0.92205,0.61496 -1.85608,0.8072 -3.06359,0.92699 -1.2075,0.1198 -2.66587,0.31355 -4.33464,0.31355 l -4.22938,0.59592 -5.3923,-0.82337 -5.45793,-0.0887 -4.78916,-0.0465 -5.30169,0.16639 -4.65814,0.049 -5.01969,0.28076 -4.96298,-0.17785 -4.56112,-0.16983 c -2.03189,0.0677 -3.19599,0.17282 -4.2856,0.041 l -0.20957,-0.14969 -0.0565,0.0489 c -0.84252,-0.13298 -1.66296,-0.57065 -2.45138,-1.37685 l 0.16776,0.0251 -0.31113,0.19161 c -0.73864,-0.7986 -0.7961,-1.48085 -0.9228,-2.60062 l -0.93717,-0.45643 c 0.60491,-1.05515 0.38969,-2.30985 0.38969,-3.99091 0,-1.35114 0.0854,-2.67493 0.29048,-4.00738 0.18338,-1.3227 1.16664,-3.30075 1.55784,-4.62758 0.97357,-1.70656 0.95241,-1.80865 1.35696,-2.8604 0.80448,-1.05306 1.26223,-2.83352 1.91475,-4.2146 0.7512,-1.37057 1.91049,-3.3632 2.61585,-4.66295 1.2477,-1.89027 1.17969,-2.17248 1.78852,-3.21703 0.78303,-1.36901 1.78159,-2.63228 2.71693,-4.03869 0.86503,-1.30069 1.5702,-2.81162 2.64967,-4.27014 0.87236,-1.178578 1.32805,-2.095495 2.23158,-3.290048 0.55639,-1.042212 1.98155,-2.694411 3.01299,-4.039136 0.89151,-1.253412 2.12501,-2.668338 3.05939,-3.890181 1.14292,-1.395152 1.94255,-2.260297 2.79434,-3.401681 1.12949,-1.216918 1.79851,-2.461352 2.66907,-3.706234 0.8923,-1.289864 1.96647,-2.154234 2.82588,-3.472592 1.06689,-0.91639 1.4481,-2.252685 2.24182,-3.760816 0.7402,-1.406459 1.70691,-3.41616 2.45513,-4.756262 l 1.64063,-2.976316 -2.60833,-0.935369 c -1.63992,0.0317 -2.62261,0.168907 -4.28219,0.02434 -1.14588,0.04332 -3.74859,-0.420762 -5.66572,-0.783832 -1.64968,-0.290128 -2.94682,-0.384199 -4.52975,-0.791218 -1.63283,-0.419848 -3.64406,-1.615514 -5.10889,-2.072436 -1.36202,-0.42463 -2.6303,-0.842834 -3.86525,-1.245343 -1.20456,-0.42503 -2.19707,-1.075814 -3.29919,-1.51874 -1.09463,-0.439916 -1.95477,-0.743683 -2.87954,-1.298226 -1.40298,-0.83995 -3.12625,-1.315746 -4.03517,-2.342736 -0.87862,-0.99438 -1.24848,-2.260231 -1.24848,-3.672341 0,-1.362457 0.27308,-2.687591 0.74069,-3.989534 0.48893,-1.292745 1.34288,-2.74425 2.20125,-3.981664 0.85939,-1.238891 1.71705,-2.260436 2.90844,-3.425774 0.89178,-0.872288 1.82673,-1.702374 2.87304,-2.562141 1.01743,-0.832087 2.18694,-1.060918 3.38958,-1.924084 1.23203,-0.214314 2.60207,-1.932611 3.96994,-2.987028 1.26252,-0.973211 2.53466,-2.092002 3.89033,-2.897265 l 0.009,0.158235 c 1.19808,-0.715616 2.80025,-1.683714 4.06185,-2.39736 1.51002,-0.898631 2.19951,-1.183224 3.37488,-1.821127 1.25381,-0.631944 3.04713,-1.239596 4.44268,-1.971029 1.62456,-0.45787 2.52375,-1.481983 3.8465,-2.175958 1.28877,-0.834808 2.70857,-1.655872 4.11738,-2.384128 1.30894,-0.917235 2.61026,-1.429516 4.02152,-2.129662 1.26171,-0.721659 2.94081,-1.396372 4.42567,-2.107581 1.42918,-0.643843 3.23939,-1.019179 4.64539,-1.711377 1.40582,-0.692109 2.85862,-2.02287 4.22227,-2.723633 l 0.88241,-0.509662 -0.12917,-1.011355 c 0.0517,-1.3043224 -0.71579,-2.7714982 -0.54846,-4.1323632 -0.70282,-1.517422 0.60623,-2.9204949 0.99643,-4.3235507 0.51427,-1.45939541 0.79406,-2.68147776 1.30295,-3.9844208 0.50427,-1.3739972 1.4367,-2.7915543 2.09483,-4.0916654 0.65715,-1.2981666 1.02389,-2.4810708 1.78198,-3.7414179 0.69778,-1.16029 1.83179,-2.630925 2.68972,-3.68599 1.11806,-1.290973 1.12976,-2.186553 1.99978,-2.995939 0.60826,-1.353095 2.05144,-1.885459 3.32312,-2.61449 1.083,-0.767532 1.89875,-1.120956 3.3732,-1.584492 0.7465,-0.277218 3.23763,-0.904944 5.08409,-1.169368 1.59749,-0.22877 3.16415,-0.851665 4.69466,-0.854976 z m 54.46282,14.2690333 c -1.38425,0.058645 -1.86356,1.5390016 -1.85218,2.5889661 0.0114,1.0499646 0.3951,1.8483705 1.7803,1.8769769 l 4.44636,0.611513 4.89037,-0.458192 3.96487,0.9759262 4.98532,-0.2513915 5.78818,-0.2856411 3.95908,-0.184607 5.72562,0.7609536 4.04497,0.2003005 4.65803,-0.065947 4.75122,0.2771567 4.82684,0.7148243 4.77608,0.17439307 c 1.33701,-0.0965144 1.83787,-0.82049197 1.85673,-1.93043557 0.0189,-1.1099435 -1.21236,-1.9393491 -2.64163,-1.9954989 l -4.58462,-0.6230882 -5.46306,-0.6587528 -3.13223,-0.9892378 -5.48292,-0.1909484 -5.11631,0.363613 -4.48201,0.1477021 -4.32087,-0.1222108 -5.21264,0.1644837 -4.25322,-0.070455 -4.27981,-0.7528539 -4.94133,-0.062711 -4.44816,-0.1469558 c -0.28812,0.052407 -0.12452,-0.039264 -0.19591,-0.036363 z"
         style="color:#000000;font-style:normal;font-variant:normal;font-weight:normal;font-stretch:normal;font-size:medium;line-height:normal;font-family:sans-serif;font-variant-ligatures:normal;font-variant-position:normal;font-variant-caps:normal;font-variant-numeric:normal;font-variant-alternates:normal;font-feature-settings:normal;text-indent:0;text-align:start;text-decoration:none;text-decoration-line:none;text-decoration-style:solid;text-decoration-color:#000000;letter-spacing:normal;word-spacing:normal;text-transform:none;writing-mode:lr-tb;direction:ltr;text-orientation:mixed;dominant-baseline:auto;baseline-shift:baseline;text-anchor:start;white-space:normal;shape-padding:0;clip-rule:nonzero;display:inline;overflow:visible;visibility:visible;opacity:1;isolation:auto;mix-blend-mode:normal;color-interpolation:sRGB;color-interpolation-filters:linearRGB;solid-color:#000000;solid-opacity:1;vector-effect:none;fill:#000000;fill-opacity:1;fill-rule:evenodd;stroke:none;stroke-width:4.28906;stroke-linecap:round;stroke-linejoin:miter;stroke-miterlimit:4;stroke-dasharray:none;stroke-dashoffset:0;stroke-opacity:1;color-rendering:auto;image-rendering:auto;shape-rendering:auto;text-rendering:auto;enable-background:accumulate" />
    </g>
    <path
       id="path4528"
       d="m -228.61533,134.50247 c -12.74199,0 -21.90636,7.00767 -27.19909,15.80856 -4.73342,7.8695 -6.70269,16.99971 -7.08687,24.99598 -14.4446,7.42287 -30.44688,14.9065 -43.32997,22.55829 -6.75857,4.01457 -12.65058,8.05145 -17.08575,12.3897 -4.43517,4.33818 -7.70768,9.22346 -7.70768,14.98646 0,2.45244 1.15261,4.45065 2.44883,5.91687 1.30232,1.47148 2.8573,2.60824 4.6309,3.67008 3.5466,2.12673 8.0178,3.89856 12.93669,5.4321 7.30683,2.27921 15.49011,3.97296 22.60537,4.69675 -7.07702,12.67526 -16.4955,24.31517 -24.75136,35.46903 -9.54127,12.89166 -17.87077,25.25378 -17.87077,38.98857 0,1.96196 -0.0209,3.49332 0.14368,5.03249 0.17282,1.54033 0.59135,3.45866 2.08108,4.98042 1.48883,1.52241 3.31145,1.93205 4.7961,2.09964 1.48315,0.17986 2.98044,0.17986 4.89904,0.17986 h 52.63996 c 3.82146,0 6.6192,0.23982 9.49753,-1.68089 2.87895,-1.92303 3.92869,-4.5494 5.97932,-8.4741 h 0.0209 l 0.0208,-0.17987 c 0,0 4.58857,-9.69602 10.06342,-19.31951 2.73618,-4.80872 5.7089,-9.6006 8.29377,-12.99533 1.29378,-1.69577 2.50352,-3.04353 3.37446,-3.80343 0.2582,-0.23765 0.3887,-0.26871 0.55806,-0.38067 0.17282,0.17986 0.28943,0.17986 0.55804,0.38067 0.87011,0.76265 2.08109,2.10549 3.37419,3.80343 2.5841,3.39473 5.55648,8.18661 8.29404,12.99533 5.47423,9.62349 10.06308,19.31951 10.06308,19.31951 l 0.0209,0.17987 h 0.0208 c 2.05229,3.9247 3.09128,6.53518 5.95142,8.46376 2.85979,1.92614 5.65081,1.69585 9.41812,1.69585 h 52.87199 c 1.88862,0 3.36003,0 4.83442,-0.17986 1.47452,-0.17987 3.3029,-0.58871 4.77625,-2.12658 1.47154,-1.54033 1.87981,-3.43113 2.04361,-4.96308 0.17283,-1.52241 0.14368,-3.06253 0.14368,-5.02535 0,-13.73298 -8.32965,-26.09517 -17.87077,-38.98705 -8.25539,-11.15371 -17.67379,-22.79384 -24.7513,-35.46902 7.11527,-0.72755 15.29861,-2.41971 22.60544,-4.69661 4.91876,-1.5404 9.38995,-3.30646 12.93669,-5.43217 1.77333,-1.05535 3.33094,-2.20141 4.62966,-3.66827 1.29947,-1.47156 2.45174,-3.46602 2.45174,-5.91889 0,-5.76286 -3.27237,-10.64822 -7.70748,-14.98625 -4.43531,-4.33832 -10.32744,-8.37506 -17.08554,-12.38985 -12.88379,-7.6515 -28.88537,-15.1352 -43.33059,-22.55814 -0.38591,-7.99591 -2.35408,-17.12598 -7.08674,-24.99584 -5.29272,-8.80104 -14.45695,-15.80878 -27.19915,-15.80878 z"
       inkscape:connector-curvature="0"
       style="fill:#ffffff;fill-opacity:1;stroke:#000000;stroke-width:5.04527;stroke-miterlimit:4;stroke-dasharray:none;stroke-opacity:0.98995" />
    <path
       sodipodi:nodetypes="cc"
       inkscape:connector-curvature="0"
       id="path4530"
       d="m -292.39011,157.98011 -69.55354,-21.68252"
       style="fill:none;fill-rule:evenodd;stroke:#000000;stroke-width:5.04527;stroke-linecap:round;stroke-linejoin:miter;stroke-miterlimit:4;stroke-dasharray:none;stroke-opacity:1" />
    <path
       sodipodi:nodetypes="cc"
       inkscape:connector-curvature="0"
       id="path4532"
       d="m -164.67155,156.69022 66.699572,2.61047"
       style="fill:none;fill-rule:evenodd;stroke:#000000;stroke-width:5.04527;stroke-linecap:round;stroke-linejoin:miter;stroke-miterlimit:4;stroke-dasharray:none;stroke-opacity:1" />
    <path
       sodipodi:nodetypes="cc"
       inkscape:connector-curvature="0"
       id="path4534"
       d="m -197.48699,103.16315 26.49272,-70.126203"
       style="fill:none;fill-rule:evenodd;stroke:#000000;stroke-width:5.04527;stroke-linecap:round;stroke-linejoin:miter;stroke-miterlimit:4;stroke-dasharray:none;stroke-opacity:1" />
    <path
       inkscape:connector-curvature="0"
       id="path4536"
       d="M -240.81026,104.17105 -255.94281,39.89757"
       style="fill:none;fill-rule:evenodd;stroke:#000000;stroke-width:5.04527;stroke-linecap:round;stroke-linejoin:miter;stroke-miterlimit:4;stroke-dasharray:none;stroke-opacity:1" />
    <path
       sodipodi:nodetypes="cc"
       inkscape:connector-curvature="0"
       id="path4538"
       d="M -279.08603,125.98167 -326.82307,79.714337"
       style="fill:none;fill-rule:evenodd;stroke:#000000;stroke-width:5.04527;stroke-linecap:round;stroke-linejoin:miter;stroke-miterlimit:4;stroke-dasharray:none;stroke-opacity:1" />
    <path
       sodipodi:nodetypes="cc"
       inkscape:connector-curvature="0"
       id="path4540"
       d="m -170.53794,135.00371 52.87488,-44.42186"
       style="fill:none;fill-rule:evenodd;stroke:#000000;stroke-width:5.04527;stroke-linecap:round;stroke-linejoin:miter;stroke-miterlimit:4;stroke-dasharray:none;stroke-opacity:1" />
  </g>
</svg>
