<?xml version="1.0" encoding="UTF-8" standalone="no"?>
<svg
   xmlns:dc="http://purl.org/dc/elements/1.1/"
   xmlns:cc="http://creativecommons.org/ns#"
   xmlns:rdf="http://www.w3.org/1999/02/22-rdf-syntax-ns#"
   xmlns:svg="http://www.w3.org/2000/svg"
   xmlns="http://www.w3.org/2000/svg"
   xmlns:sodipodi="http://sodipodi.sourceforge.net/DTD/sodipodi-0.dtd"
   xmlns:inkscape="http://www.inkscape.org/namespaces/inkscape"
   sodipodi:docname="release-the-hounds.svg"
   inkscape:version="1.0 (4035a4fb49, 2020-05-01)"
   id="svg24"
   version="1.1"
   viewBox="0 0 825 1125"
   height="1125"
   width="825">
  <defs
     id="defs18" />
  <sodipodi:namedview
     inkscape:document-rotation="0"
     inkscape:snap-global="false"
     inkscape:window-maximized="1"
     inkscape:window-y="134"
     inkscape:window-x="1672"
     inkscape:window-height="1017"
     inkscape:window-width="1920"
     inkscape:guide-bbox="true"
     showguides="false"
     units="px"
     showgrid="false"
     inkscape:current-layer="layer1"
     inkscape:document-units="px"
     inkscape:cy="624.56507"
     inkscape:cx="442.27172"
     inkscape:zoom="0.9899495"
     inkscape:pageshadow="2"
     inkscape:pageopacity="0.0"
     borderopacity="1.0"
     bordercolor="#666666"
     pagecolor="#ffffff"
     id="base" />
  <metadata
     id="metadata21">
    <rdf:RDF>
      <cc:Work
         rdf:about="">
        <dc:format>image/svg+xml</dc:format>
        <dc:type
           rdf:resource="http://purl.org/dc/dcmitype/StillImage" />
        <dc:title />
      </cc:Work>
    </rdf:RDF>
  </metadata>
  <g
     transform="translate(0,221.28127)"
     id="layer1"
     inkscape:groupmode="layer"
     inkscape:label="Layer 1">
    <path
       d="m 412.98949,1103.3571 5.58135,9.6672 -5.58135,9.6672 -11.1627,0 -5.58135,-9.6672 5.58135,-9.6672 z"
       inkscape:randomized="0"
       inkscape:rounded="0"
       inkscape:flatsided="true"
       sodipodi:arg2="-0.52359878"
       sodipodi:arg1="-1.0471976"
       sodipodi:r2="9.6671848"
       sodipodi:r1="11.162703"
       sodipodi:cy="1113.0243"
       sodipodi:cx="407.40814"
       sodipodi:sides="6"
       id="path5201"
       style="font-style:normal;font-variant:normal;font-weight:normal;font-stretch:normal;font-size:medium;line-height:125%;font-family:sans-serif;-inkscape-font-specification:'Archivo Narrow Italic';text-align:center;letter-spacing:0px;word-spacing:0px;writing-mode:lr-tb;text-anchor:middle;fill:#b3b3b3;fill-opacity:1;stroke:#000000;stroke-width:0.31629431;stroke-linecap:butt;stroke-linejoin:round;stroke-miterlimit:4;stroke-dasharray:none;stroke-dashoffset:0;stroke-opacity:1"
       sodipodi:type="star"
       transform="matrix(0,-6.0505132,6.0298175,0,-6484.8574,2690.0836)" />
    <g
       transform="translate(-162.12948,-8.0812203)"
       id="g5205">
      <circle
         transform="scale(-1,1)"
         style="font-style:italic;font-variant:normal;font-weight:normal;font-stretch:normal;font-size:medium;line-height:30.54940224px;font-family:'Archivo Narrow';-inkscape-font-specification:'Archivo Narrow Italic';text-align:center;letter-spacing:0px;word-spacing:0px;writing-mode:lr-tb;text-anchor:middle;fill:#000000;fill-opacity:1;stroke:none;stroke-width:3.10677958;stroke-linecap:butt;stroke-linejoin:miter;stroke-miterlimit:4;stroke-dasharray:none;stroke-opacity:1"
         id="circle5119"
         cx="-659.98737"
         cy="180.0994"
         r="46.601688" />
      <path
         inkscape:connector-curvature="0"
         d="m 626.45167,178.07501 c -0.41404,4.27833 -0.71617,8.54816 -0.54751,12.90075 l 9.46716,9.46715 c -2.74128,-9.87289 -3.62812,-21.02367 1.50716,-32.70635 l -0.0795,-0.0106 z m 11.98826,-7.45365 c -4.67947,12.13242 -2.67997,23.56547 0.79653,33.6867 l 6.55976,6.55976 c 1.21957,-1.03787 2.4725,-1.9273 3.77447,-2.67128 -1.22402,-0.24852 -2.40279,-0.59761 -3.38913,-1.11266 -1.37969,-0.72062 -2.5621,-2.03175 -3.54741,-3.18746 -0.9852,-1.15567 -1.70427,-2.17242 -1.70427,-2.17242 l 2.10246,-1.4872 c 0,0 0.66052,0.92994 1.56336,1.98904 0.90329,1.05891 2.11836,2.23088 2.77808,2.57516 1.21847,0.63647 3.80933,1.11766 5.9892,1.33174 0.29704,0.03 0.59476,0.054 0.89234,0.077 1.17347,-0.33904 2.39004,-0.58371 3.66287,-0.73578 6.14016,-0.73288 13.45289,0.5599 23.29564,3.18552 2.34277,-1.02686 5.14411,-3.15112 7.572,-5.4668 -0.24302,-0.045 -0.48355,-0.10902 -0.71718,-0.18952 -1.41934,-0.49405 -2.66656,-1.79958 -2.80092,-3.55081 -0.12754,-1.65801 -0.0666,-3.70358 0.63456,-5.56221 0.30654,-0.81303 0.78043,-1.5993 1.41999,-2.25167 l 0.02,-0.02 -8.17772,-4.48665 c -1.31654,-0.50825 -2.29038,-1.43495 -2.955,-2.48335 -0.68287,-1.07747 -1.091,-2.27678 -1.442,-3.47256 -0.70031,-2.38829 -1.22087,-4.76927 -2.37463,-6.21006 -2.4344,-2.95065 -6.10142,-3.51361 -9.93789,-5.03482 l -0.36354,-0.14401 -0.21902,-0.32104 c -3.37294,-4.87948 -4.18642,-10.9539 -4.9321,-17.15202 -5.51365,4.51236 -9.69142,12.79884 -13.00865,18.98066 l -0.54051,1.00225 -1.05931,-0.41104 c -1.34592,-0.51921 -2.64361,-0.93769 -3.89499,-1.26173 z m 40.72793,16.50727 c 0.04,0.0106 0.073,0.03 0.11246,0.04 l -0.18052,-0.0815 z m -18.08695,-34.20766 c -0.44705,0.44555 -0.87874,0.90705 -1.28558,1.3903 0.69127,5.09302 1.62316,9.72933 4.00101,13.35515 0.25802,0.097 0.52115,0.19102 0.78742,0.28302 -0.85978,-5.89215 -1.24913,-12.10072 0.8923,-18.61847 -1.73648,1.18552 -3.18668,2.38604 -4.3953,3.58986 z m 28.20957,40.06599 c 4.34779,3.09386 2.60187,5.27123 0.85184,7.68722 1.14911,-0.65696 4.44099,-3.18386 3.92065,-5.32527 -0.41905,-1.72493 -3.3368,-2.18998 -4.77249,-2.36195 z m -24.05355,-14.59552 c 1.96649,0.78268 3.57479,2.17172 5.17995,3.59747 -1.27267,1.56346 -2.5394,1.65726 -4.10991,1.37174 -1.80332,-1.34609 -2.77657,-3.33889 -2.81377,-5.46981 0.61432,0.11206 1.19362,0.28153 1.74398,0.50066 z"
         style="font-style:italic;font-variant:normal;font-weight:normal;font-stretch:normal;font-size:medium;line-height:30.54940224px;font-family:'Archivo Narrow';-inkscape-font-specification:'Archivo Narrow Italic';text-align:center;letter-spacing:0px;word-spacing:0px;writing-mode:lr-tb;text-anchor:middle;display:inline;fill:#ffffff;fill-opacity:1;stroke:none;stroke-width:0.88203329;stroke-linecap:butt;stroke-linejoin:miter;stroke-miterlimit:4;stroke-dasharray:none;stroke-opacity:1"
         id="path5121" />
    </g>
    <path
       inkscape:connector-curvature="0"
       d="m 209.2224,193.54405 c -0.29492,3.04748 -0.51013,6.08889 -0.38999,9.18926 l 6.7435,6.74349 c -1.95263,-7.0325 -2.58433,-14.97525 1.07355,-23.29687 l -0.0566,-0.008 z m 8.53929,-5.30926 c -3.33321,8.64197 -1.90895,16.78578 0.56737,23.99518 l 4.67255,4.67254 c 0.8687,-0.73928 1.76117,-1.37282 2.68857,-1.90276 -0.87188,-0.17702 -1.71152,-0.42568 -2.41409,-0.79255 -0.98276,-0.5133 -1.825,-1.44723 -2.52684,-2.27045 -0.70176,-0.82318 -1.21396,-1.54742 -1.21396,-1.54742 l 1.49759,-1.05934 c 0,0 0.47049,0.6624 1.11359,1.4168 0.64342,0.75427 1.50892,1.58907 1.97884,1.8343 0.86792,0.45336 2.7134,0.79612 4.26613,0.94861 0.21159,0.0214 0.42365,0.0385 0.63562,0.0548 0.83587,-0.2415 1.70244,-0.41578 2.60908,-0.5241 4.37366,-0.52203 9.58255,0.39882 16.59358,2.26906 1.66877,-0.73143 3.66417,-2.24455 5.39357,-3.89402 -0.1731,-0.0321 -0.34443,-0.0777 -0.51085,-0.135 -1.011,-0.35191 -1.8994,-1.28185 -1.99511,-2.52926 -0.0908,-1.181 -0.0474,-2.63807 0.452,-3.96198 0.21835,-0.57913 0.55591,-1.13919 1.01147,-1.60388 l 0.0142,-0.0142 -5.82502,-3.19586 c -0.93778,-0.36203 -1.63145,-1.02212 -2.10486,-1.7689 -0.48641,-0.76749 -0.77712,-1.62176 -1.02714,-2.47352 -0.49884,-1.70119 -0.86963,-3.39717 -1.69146,-4.42345 -1.73404,-2.10177 -4.34607,-2.50276 -7.0788,-3.58633 l -0.25896,-0.10258 -0.156,-0.22868 c -2.40256,-3.47567 -2.98201,-7.80251 -3.51316,-12.21745 -3.9274,3.21417 -6.90324,9.11667 -9.26612,13.52 l -0.38501,0.71391 -0.75455,-0.29279 c -0.9587,-0.36983 -1.88305,-0.66792 -2.77441,-0.89873 z m 29.01068,11.7582 c 0.0285,0.008 0.052,0.0214 0.0801,0.0285 l -0.12859,-0.058 z m -12.88341,-24.36627 c -0.31844,0.31737 -0.62593,0.6461 -0.91573,0.99032 0.4924,3.62778 1.15619,6.93024 2.84994,9.51293 0.18379,0.0691 0.37122,0.13606 0.56088,0.2016 -0.61242,-4.19701 -0.88976,-8.6194 0.63559,-13.26202 -1.2369,0.84445 -2.26988,1.69959 -3.13079,2.55707 z m 20.0938,28.53918 c 3.09694,2.20377 1.85332,3.75472 0.60676,5.47564 0.81852,-0.46796 3.16334,-2.26788 2.7927,-3.79321 -0.29849,-1.22868 -2.37682,-1.55994 -3.39946,-1.68243 z m -17.13345,-10.39645 c 1.40074,0.5575 2.54634,1.54692 3.6897,2.56249 -0.90653,1.11366 -1.80883,1.18047 -2.92751,0.9771 -1.28451,-0.95883 -1.97776,-2.37831 -2.00426,-3.89617 0.43758,0.0798 0.85022,0.20053 1.24225,0.35662 z"
       style="font-style:italic;font-variant:normal;font-weight:normal;font-stretch:normal;font-size:medium;line-height:30.54940224px;font-family:'Archivo Narrow';-inkscape-font-specification:'Archivo Narrow Italic';text-align:center;letter-spacing:0px;word-spacing:0px;writing-mode:lr-tb;text-anchor:middle;display:inline;fill:#000000;fill-opacity:1;stroke:none;stroke-width:0.62827611;stroke-linecap:butt;stroke-linejoin:miter;stroke-miterlimit:4;stroke-dasharray:none;stroke-opacity:1"
       id="path5123" />
    <path
       id="path5125"
       style="font-style:italic;font-variant:normal;font-weight:normal;font-stretch:normal;font-size:medium;line-height:30.54940224px;font-family:'Archivo Narrow';-inkscape-font-specification:'Archivo Narrow Italic';text-align:center;letter-spacing:0px;word-spacing:0px;writing-mode:lr-tb;text-anchor:middle;display:inline;fill:#000000;fill-opacity:1;stroke:none;stroke-width:0.62827611;stroke-linecap:butt;stroke-linejoin:miter;stroke-miterlimit:4;stroke-dasharray:none;stroke-opacity:1"
       d="m 227.2108,235.99668 c -0.29492,3.04747 -0.51013,6.08889 -0.39,9.18926 l 6.7435,6.74349 c -1.95262,-7.0325 -2.58432,-14.97525 1.07356,-23.29687 l -0.0566,-0.008 z m 8.53929,-5.30927 c -3.33321,8.64198 -1.90896,16.78579 0.56737,23.99518 l 4.67254,4.67255 c 0.86871,-0.73928 1.76118,-1.37283 2.68858,-1.90277 -0.87188,-0.17702 -1.71152,-0.42568 -2.4141,-0.79255 -0.98276,-0.5133 -1.82499,-1.44722 -2.52683,-2.27044 -0.70176,-0.82319 -1.21396,-1.54742 -1.21396,-1.54742 l 1.49759,-1.05934 c 0,0 0.47049,0.6624 1.11359,1.4168 0.64342,0.75426 1.50892,1.58906 1.97884,1.8343 0.86792,0.45336 2.7134,0.79611 4.26613,0.9486 0.21158,0.0214 0.42365,0.0385 0.63562,0.0549 0.83587,-0.2415 1.70243,-0.41578 2.60908,-0.5241 4.37366,-0.52204 9.58255,0.39882 16.59358,2.26906 1.66877,-0.73144 3.66417,-2.24456 5.39357,-3.89403 -0.17311,-0.032 -0.34444,-0.0777 -0.51085,-0.13499 -1.011,-0.35192 -1.8994,-1.28185 -1.99511,-2.52926 -0.0908,-1.18101 -0.0474,-2.63808 0.452,-3.96199 0.21835,-0.57912 0.5559,-1.13919 1.01147,-1.60387 l 0.0142,-0.0143 -5.82502,-3.19586 c -0.93778,-0.36203 -1.63145,-1.02212 -2.10486,-1.7689 -0.48641,-0.76748 -0.77713,-1.62176 -1.02715,-2.47352 -0.49883,-1.70119 -0.86963,-3.39717 -1.69145,-4.42345 -1.73404,-2.10176 -4.34607,-2.50276 -7.07881,-3.58632 l -0.25895,-0.10258 -0.15601,-0.22868 c -2.40256,-3.47568 -2.982,-7.80251 -3.51315,-12.21746 -3.9274,3.21417 -6.90324,9.11667 -9.26612,13.52001 l -0.38501,0.7139 -0.75455,-0.29278 c -0.9587,-0.36984 -1.88305,-0.66792 -2.77442,-0.89874 z m 29.01068,11.7582 c 0.0285,0.008 0.052,0.0214 0.0801,0.0285 l -0.12858,-0.0581 z m -12.88342,-24.36626 c -0.31843,0.31736 -0.62593,0.64609 -0.91572,0.99031 0.4924,3.62778 1.15618,6.93025 2.84994,9.51293 0.18379,0.0691 0.37121,0.13607 0.56088,0.2016 -0.61243,-4.197 -0.88976,-8.61939 0.63559,-13.26202 -1.2369,0.84446 -2.26989,1.69959 -3.13079,2.55708 z m 20.0938,28.53917 c 3.09695,2.20377 1.85333,3.75472 0.60677,5.47564 0.81852,-0.46795 3.16334,-2.26787 2.7927,-3.79321 -0.29849,-1.22867 -2.37682,-1.55993 -3.39947,-1.68243 z m -17.13344,-10.39645 c 1.40074,0.55751 2.54633,1.54693 3.6897,2.5625 -0.90653,1.11365 -1.80883,1.18047 -2.92751,0.97709 -1.28451,-0.95882 -1.97776,-2.3783 -2.00426,-3.89617 0.43758,0.0798 0.85022,0.20054 1.24224,0.35662 z"
       inkscape:connector-curvature="0" />
    <path
       inkscape:connector-curvature="0"
       d="m 176.84328,232.03923 c -0.29493,3.04747 -0.51013,6.08889 -0.39,9.18926 l 6.7435,6.74349 c -1.95262,-7.0325 -2.58432,-14.97525 1.07356,-23.29687 l -0.0566,-0.008 z m 8.53929,-5.30927 c -3.33321,8.64198 -1.90896,16.78579 0.56737,23.99518 l 4.67254,4.67255 c 0.86871,-0.73928 1.76117,-1.37283 2.68857,-1.90277 -0.87187,-0.17702 -1.71151,-0.42568 -2.41409,-0.79255 -0.98276,-0.5133 -1.82499,-1.44722 -2.52683,-2.27044 -0.70177,-0.82319 -1.21396,-1.54742 -1.21396,-1.54742 l 1.49759,-1.05934 c 0,0 0.47049,0.6624 1.11359,1.4168 0.64341,0.75427 1.50891,1.58906 1.97884,1.8343 0.86792,0.45336 2.7134,0.79611 4.26613,0.9486 0.21158,0.0214 0.42365,0.0385 0.63562,0.0548 0.83586,-0.2415 1.70243,-0.41578 2.60907,-0.5241 4.37367,-0.52203 9.58256,0.39882 16.59359,2.26906 1.66876,-0.73144 3.66417,-2.24456 5.39357,-3.89403 -0.17311,-0.032 -0.34444,-0.0777 -0.51085,-0.13499 -1.01101,-0.35192 -1.89941,-1.28185 -1.99511,-2.52926 -0.0908,-1.18101 -0.0474,-2.63808 0.452,-3.96199 0.21835,-0.57912 0.5559,-1.13918 1.01146,-1.60387 l 0.0143,-0.0143 -5.82503,-3.19586 c -0.93777,-0.36202 -1.63144,-1.02212 -2.10485,-1.7689 -0.48642,-0.76748 -0.77713,-1.62176 -1.02715,-2.47352 -0.49883,-1.70119 -0.86963,-3.39717 -1.69146,-4.42345 -1.73403,-2.10176 -4.34606,-2.50276 -7.0788,-3.58632 l -0.25895,-0.10258 -0.15601,-0.22868 c -2.40256,-3.47567 -2.982,-7.80251 -3.51315,-12.21746 -3.9274,3.21418 -6.90324,9.11667 -9.26612,13.52001 l -0.38501,0.7139 -0.75455,-0.29278 c -0.95871,-0.36984 -1.88306,-0.66792 -2.77442,-0.89874 z m 29.01068,11.7582 c 0.0285,0.008 0.052,0.0214 0.0801,0.0285 l -0.12858,-0.058 z M 201.50983,214.1219 c -0.31843,0.31737 -0.62593,0.64609 -0.91572,0.99031 0.49239,3.62778 1.15618,6.93025 2.84994,9.51294 0.18378,0.0691 0.37121,0.13606 0.56088,0.20159 -0.61243,-4.197 -0.88976,-8.61939 0.63559,-13.26201 -1.2369,0.84445 -2.26989,1.69958 -3.13079,2.55707 z m 20.0938,28.53918 c 3.09695,2.20376 1.85332,3.75471 0.60677,5.47564 0.81852,-0.46796 3.16334,-2.26788 2.7927,-3.79322 -0.29849,-1.22867 -2.37682,-1.55993 -3.39947,-1.68242 z m -17.13345,-10.39646 c 1.40074,0.55751 2.54634,1.54693 3.6897,2.5625 -0.90652,1.11366 -1.80882,1.18047 -2.9275,0.97709 -1.28451,-0.95882 -1.97776,-2.3783 -2.00426,-3.89617 0.43758,0.0798 0.85022,0.20054 1.24224,0.35663 z"
       style="font-style:italic;font-variant:normal;font-weight:normal;font-stretch:normal;font-size:medium;line-height:30.54940224px;font-family:'Archivo Narrow';-inkscape-font-specification:'Archivo Narrow Italic';text-align:center;letter-spacing:0px;word-spacing:0px;writing-mode:lr-tb;text-anchor:middle;display:inline;fill:#000000;fill-opacity:1;stroke:none;stroke-width:0.62827611;stroke-linecap:butt;stroke-linejoin:miter;stroke-miterlimit:4;stroke-dasharray:none;stroke-opacity:1"
       id="path5127" />
    <g
       transform="translate(-150.00765,-33.84011)"
       id="g5201">
      <rect
         ry="1.2286005"
         y="230.73392"
         x="461.63974"
         height="35.801823"
         width="90.600525"
         id="rect5129"
         style="font-style:italic;font-variant:normal;font-weight:normal;font-stretch:normal;font-size:medium;line-height:30.54940224px;font-family:'Archivo Narrow';-inkscape-font-specification:'Archivo Narrow Italic';text-align:center;letter-spacing:0px;word-spacing:0px;writing-mode:lr-tb;text-anchor:middle;opacity:1;vector-effect:none;fill:#000000;fill-opacity:1;stroke:none;stroke-width:0.77152652;stroke-linecap:butt;stroke-linejoin:miter;stroke-miterlimit:4;stroke-dasharray:none;stroke-dashoffset:0;stroke-opacity:1" />
      <path
         sodipodi:nodetypes="cccc"
         inkscape:connector-curvature="0"
         id="rect5136"
         d="m 537.99258,212.98617 35.64865,35.64866 -35.64865,35.64865 z"
         style="font-style:italic;font-variant:normal;font-weight:normal;font-stretch:normal;font-size:medium;line-height:30.54940224px;font-family:'Archivo Narrow';-inkscape-font-specification:'Archivo Narrow Italic';text-align:center;letter-spacing:0px;word-spacing:0px;writing-mode:lr-tb;text-anchor:middle;opacity:1;vector-effect:none;fill:#000000;fill-opacity:1;stroke:none;stroke-width:0.77152652;stroke-linecap:butt;stroke-linejoin:miter;stroke-miterlimit:4;stroke-dasharray:none;stroke-dashoffset:0;stroke-opacity:1" />
    </g>
    <g
       id="g5211"
       transform="translate(-59.093924,8.0812203)">
      <circle
         r="46.601688"
         cy="180.0994"
         cx="-659.98737"
         id="circle5207"
         style="font-style:italic;font-variant:normal;font-weight:normal;font-stretch:normal;font-size:medium;line-height:30.54940224px;font-family:'Archivo Narrow';-inkscape-font-specification:'Archivo Narrow Italic';text-align:center;letter-spacing:0px;word-spacing:0px;writing-mode:lr-tb;text-anchor:middle;fill:#000000;fill-opacity:1;stroke:none;stroke-width:3.10677958;stroke-linecap:butt;stroke-linejoin:miter;stroke-miterlimit:4;stroke-dasharray:none;stroke-opacity:1"
         transform="scale(-1,1)" />
      <path
         id="path5209"
         style="font-style:italic;font-variant:normal;font-weight:normal;font-stretch:normal;font-size:medium;line-height:30.54940224px;font-family:'Archivo Narrow';-inkscape-font-specification:'Archivo Narrow Italic';text-align:center;letter-spacing:0px;word-spacing:0px;writing-mode:lr-tb;text-anchor:middle;display:inline;fill:#ffffff;fill-opacity:1;stroke:none;stroke-width:0.88203329;stroke-linecap:butt;stroke-linejoin:miter;stroke-miterlimit:4;stroke-dasharray:none;stroke-opacity:1"
         d="m 626.45167,178.07501 c -0.41404,4.27833 -0.71617,8.54816 -0.54751,12.90075 l 9.46716,9.46715 c -2.74128,-9.87289 -3.62812,-21.02367 1.50716,-32.70635 l -0.0795,-0.0106 z m 11.98826,-7.45365 c -4.67947,12.13242 -2.67997,23.56547 0.79653,33.6867 l 6.55976,6.55976 c 1.21957,-1.03787 2.4725,-1.9273 3.77447,-2.67128 -1.22402,-0.24852 -2.40279,-0.59761 -3.38913,-1.11266 -1.37969,-0.72062 -2.5621,-2.03175 -3.54741,-3.18746 -0.9852,-1.15567 -1.70427,-2.17242 -1.70427,-2.17242 l 2.10246,-1.4872 c 0,0 0.66052,0.92994 1.56336,1.98904 0.90329,1.05891 2.11836,2.23088 2.77808,2.57516 1.21847,0.63647 3.80933,1.11766 5.9892,1.33174 0.29704,0.03 0.59476,0.054 0.89234,0.077 1.17347,-0.33904 2.39004,-0.58371 3.66287,-0.73578 6.14016,-0.73288 13.45289,0.5599 23.29564,3.18552 2.34277,-1.02686 5.14411,-3.15112 7.572,-5.4668 -0.24302,-0.045 -0.48355,-0.10902 -0.71718,-0.18952 -1.41934,-0.49405 -2.66656,-1.79958 -2.80092,-3.55081 -0.12754,-1.65801 -0.0666,-3.70358 0.63456,-5.56221 0.30654,-0.81303 0.78043,-1.5993 1.41999,-2.25167 l 0.02,-0.02 -8.17772,-4.48665 c -1.31654,-0.50825 -2.29038,-1.43495 -2.955,-2.48335 -0.68287,-1.07747 -1.091,-2.27678 -1.442,-3.47256 -0.70031,-2.38829 -1.22087,-4.76927 -2.37463,-6.21006 -2.4344,-2.95065 -6.10142,-3.51361 -9.93789,-5.03482 l -0.36354,-0.14401 -0.21902,-0.32104 c -3.37294,-4.87948 -4.18642,-10.9539 -4.9321,-17.15202 -5.51365,4.51236 -9.69142,12.79884 -13.00865,18.98066 l -0.54051,1.00225 -1.05931,-0.41104 c -1.34592,-0.51921 -2.64361,-0.93769 -3.89499,-1.26173 z m 40.72793,16.50727 c 0.04,0.0106 0.073,0.03 0.11246,0.04 l -0.18052,-0.0815 z m -18.08695,-34.20766 c -0.44705,0.44555 -0.87874,0.90705 -1.28558,1.3903 0.69127,5.09302 1.62316,9.72933 4.00101,13.35515 0.25802,0.097 0.52115,0.19102 0.78742,0.28302 -0.85978,-5.89215 -1.24913,-12.10072 0.8923,-18.61847 -1.73648,1.18552 -3.18668,2.38604 -4.3953,3.58986 z m 28.20957,40.06599 c 4.34779,3.09386 2.60187,5.27123 0.85184,7.68722 1.14911,-0.65696 4.44099,-3.18386 3.92065,-5.32527 -0.41905,-1.72493 -3.3368,-2.18998 -4.77249,-2.36195 z m -24.05355,-14.59552 c 1.96649,0.78268 3.57479,2.17172 5.17995,3.59747 -1.27267,1.56346 -2.5394,1.65726 -4.10991,1.37174 -1.80332,-1.34609 -2.77657,-3.33889 -2.81377,-5.46981 0.61432,0.11206 1.19362,0.28153 1.74398,0.50066 z"
         inkscape:connector-curvature="0" />
    </g>
    <g
       transform="translate(-123.23861,85.862966)"
       id="g5217">
      <circle
         transform="scale(-1,1)"
         style="font-style:italic;font-variant:normal;font-weight:normal;font-stretch:normal;font-size:medium;line-height:30.54940224px;font-family:'Archivo Narrow';-inkscape-font-specification:'Archivo Narrow Italic';text-align:center;letter-spacing:0px;word-spacing:0px;writing-mode:lr-tb;text-anchor:middle;fill:#000000;fill-opacity:1;stroke:none;stroke-width:3.10677958;stroke-linecap:butt;stroke-linejoin:miter;stroke-miterlimit:4;stroke-dasharray:none;stroke-opacity:1"
         id="circle5213"
         cx="-659.98737"
         cy="180.0994"
         r="46.601688" />
      <path
         inkscape:connector-curvature="0"
         d="m 626.45167,178.07501 c -0.41404,4.27833 -0.71617,8.54816 -0.54751,12.90075 l 9.46716,9.46715 c -2.74128,-9.87289 -3.62812,-21.02367 1.50716,-32.70635 l -0.0795,-0.0106 z m 11.98826,-7.45365 c -4.67947,12.13242 -2.67997,23.56547 0.79653,33.6867 l 6.55976,6.55976 c 1.21957,-1.03787 2.4725,-1.9273 3.77447,-2.67128 -1.22402,-0.24852 -2.40279,-0.59761 -3.38913,-1.11266 -1.37969,-0.72062 -2.5621,-2.03175 -3.54741,-3.18746 -0.9852,-1.15567 -1.70427,-2.17242 -1.70427,-2.17242 l 2.10246,-1.4872 c 0,0 0.66052,0.92994 1.56336,1.98904 0.90329,1.05891 2.11836,2.23088 2.77808,2.57516 1.21847,0.63647 3.80933,1.11766 5.9892,1.33174 0.29704,0.03 0.59476,0.054 0.89234,0.077 1.17347,-0.33904 2.39004,-0.58371 3.66287,-0.73578 6.14016,-0.73288 13.45289,0.5599 23.29564,3.18552 2.34277,-1.02686 5.14411,-3.15112 7.572,-5.4668 -0.24302,-0.045 -0.48355,-0.10902 -0.71718,-0.18952 -1.41934,-0.49405 -2.66656,-1.79958 -2.80092,-3.55081 -0.12754,-1.65801 -0.0666,-3.70358 0.63456,-5.56221 0.30654,-0.81303 0.78043,-1.5993 1.41999,-2.25167 l 0.02,-0.02 -8.17772,-4.48665 c -1.31654,-0.50825 -2.29038,-1.43495 -2.955,-2.48335 -0.68287,-1.07747 -1.091,-2.27678 -1.442,-3.47256 -0.70031,-2.38829 -1.22087,-4.76927 -2.37463,-6.21006 -2.4344,-2.95065 -6.10142,-3.51361 -9.93789,-5.03482 l -0.36354,-0.14401 -0.21902,-0.32104 c -3.37294,-4.87948 -4.18642,-10.9539 -4.9321,-17.15202 -5.51365,4.51236 -9.69142,12.79884 -13.00865,18.98066 l -0.54051,1.00225 -1.05931,-0.41104 c -1.34592,-0.51921 -2.64361,-0.93769 -3.89499,-1.26173 z m 40.72793,16.50727 c 0.04,0.0106 0.073,0.03 0.11246,0.04 l -0.18052,-0.0815 z m -18.08695,-34.20766 c -0.44705,0.44555 -0.87874,0.90705 -1.28558,1.3903 0.69127,5.09302 1.62316,9.72933 4.00101,13.35515 0.25802,0.097 0.52115,0.19102 0.78742,0.28302 -0.85978,-5.89215 -1.24913,-12.10072 0.8923,-18.61847 -1.73648,1.18552 -3.18668,2.38604 -4.3953,3.58986 z m 28.20957,40.06599 c 4.34779,3.09386 2.60187,5.27123 0.85184,7.68722 1.14911,-0.65696 4.44099,-3.18386 3.92065,-5.32527 -0.41905,-1.72493 -3.3368,-2.18998 -4.77249,-2.36195 z m -24.05355,-14.59552 c 1.96649,0.78268 3.57479,2.17172 5.17995,3.59747 -1.27267,1.56346 -2.5394,1.65726 -4.10991,1.37174 -1.80332,-1.34609 -2.77657,-3.33889 -2.81377,-5.46981 0.61432,0.11206 1.19362,0.28153 1.74398,0.50066 z"
         style="font-style:italic;font-variant:normal;font-weight:normal;font-stretch:normal;font-size:medium;line-height:30.54940224px;font-family:'Archivo Narrow';-inkscape-font-specification:'Archivo Narrow Italic';text-align:center;letter-spacing:0px;word-spacing:0px;writing-mode:lr-tb;text-anchor:middle;display:inline;fill:#ffffff;fill-opacity:1;stroke:none;stroke-width:0.88203329;stroke-linecap:butt;stroke-linejoin:miter;stroke-miterlimit:4;stroke-dasharray:none;stroke-opacity:1"
         id="path5215" />
    </g>
  </g>
</svg>
