<?xml version="1.0" encoding="UTF-8" standalone="no"?>
<svg
   xmlns:dc="http://purl.org/dc/elements/1.1/"
   xmlns:cc="http://creativecommons.org/ns#"
   xmlns:rdf="http://www.w3.org/1999/02/22-rdf-syntax-ns#"
   xmlns:svg="http://www.w3.org/2000/svg"
   xmlns="http://www.w3.org/2000/svg"
   xmlns:sodipodi="http://sodipodi.sourceforge.net/DTD/sodipodi-0.dtd"
   xmlns:inkscape="http://www.inkscape.org/namespaces/inkscape"
   sodipodi:docname="release-the-hounds.svg"
   inkscape:version="1.0.1 (3bc2e813f5, 2020-09-07)"
   id="svg24"
   version="1.1"
   viewBox="0 0 380 500"
   height="500"
   width="380">
  <defs
     id="defs18" />
  <sodipodi:namedview
     inkscape:document-rotation="0"
     inkscape:snap-global="false"
     inkscape:window-maximized="1"
     inkscape:window-y="134"
     inkscape:window-x="1672"
     inkscape:window-height="1017"
     inkscape:window-width="1920"
     inkscape:guide-bbox="true"
     showguides="false"
     units="px"
     showgrid="false"
     inkscape:current-layer="layer1"
     inkscape:document-units="px"
     inkscape:cy="236.97761"
     inkscape:cx="213.48701"
     inkscape:zoom="1.979899"
     inkscape:pageshadow="2"
     inkscape:pageopacity="0.0"
     borderopacity="1.0"
     bordercolor="#666666"
     pagecolor="#ffffff"
     id="base" />
  <metadata
     id="metadata21">
    <rdf:RDF>
      <cc:Work
         rdf:about="">
        <dc:format>image/svg+xml</dc:format>
        <dc:type
           rdf:resource="http://purl.org/dc/dcmitype/StillImage" />
        <dc:title />
      </cc:Work>
    </rdf:RDF>
  </metadata>
  <g
     transform="translate(0,221.28127)"
     id="layer1"
     inkscape:groupmode="layer"
     inkscape:label="Layer 1">
    <g
       id="g168"
       transform="matrix(0.8333322,0,0,0.8333322,-3.1280827,0.41595745)"
       style="stroke-width:1.07329">
      <path
         sodipodi:type="star"
         style="font-style:normal;font-weight:normal;font-size:medium;line-height:125%;font-family:sans-serif;letter-spacing:0px;word-spacing:0px;fill:#b3b3b3;fill-opacity:1;stroke:#000000;stroke-width:0.901633;stroke-linecap:butt;stroke-linejoin:round;stroke-miterlimit:4;stroke-dasharray:none;stroke-dashoffset:0;stroke-opacity:1"
         id="path5084-7"
         sodipodi:sides="6"
         sodipodi:cx="389.90088"
         sodipodi:cy="1102.7913"
         sodipodi:r1="11.162703"
         sodipodi:r2="9.6671848"
         sodipodi:arg1="-1.0471976"
         sodipodi:arg2="-0.52359878"
         inkscape:flatsided="true"
         inkscape:rounded="0"
         inkscape:randomized="0"
         transform="matrix(3.5468694,2.0487376,-2.0478888,3.548696,1162.1682,-4714.0555)"
         d="m 395.48223,1093.1241 5.58135,9.6672 -5.58135,9.6671 -11.1627,0 -5.58135,-9.6671 5.58135,-9.6672 z" />
      <path
         transform="matrix(3.5468694,2.0487376,-2.0478888,3.548696,1205.5798,-4639.4813)"
         inkscape:randomized="0"
         inkscape:rounded="0"
         inkscape:flatsided="true"
         sodipodi:arg2="-0.52359878"
         sodipodi:arg1="-1.0471976"
         sodipodi:r2="9.6671848"
         sodipodi:r1="11.162703"
         sodipodi:cy="1102.7913"
         sodipodi:cx="389.90088"
         sodipodi:sides="6"
         id="path74"
         style="font-style:normal;font-weight:normal;font-size:medium;line-height:125%;font-family:sans-serif;letter-spacing:0px;word-spacing:0px;fill:#b3b3b3;fill-opacity:1;stroke:#000000;stroke-width:0.901633;stroke-linecap:butt;stroke-linejoin:round;stroke-miterlimit:4;stroke-dasharray:none;stroke-dashoffset:0;stroke-opacity:1"
         sodipodi:type="star"
         d="m 395.48223,1093.1241 5.58135,9.6672 -5.58135,9.6671 -11.1627,0 -5.58135,-9.6671 5.58135,-9.6672 z" />
      <path
         sodipodi:type="star"
         style="font-style:normal;font-weight:normal;font-size:medium;line-height:125%;font-family:sans-serif;letter-spacing:0px;word-spacing:0px;fill:#b3b3b3;fill-opacity:1;stroke:#000000;stroke-width:0.901633;stroke-linecap:butt;stroke-linejoin:round;stroke-miterlimit:4;stroke-dasharray:none;stroke-dashoffset:0;stroke-opacity:1"
         id="path86"
         sodipodi:sides="6"
         sodipodi:cx="389.90088"
         sodipodi:cy="1102.7913"
         sodipodi:r1="11.162703"
         sodipodi:r2="9.6671848"
         sodipodi:arg1="-1.0471976"
         sodipodi:arg2="-0.52359878"
         inkscape:flatsided="true"
         inkscape:rounded="0"
         inkscape:randomized="0"
         transform="matrix(3.5468694,2.0487376,-2.0478888,3.548696,1118.0477,-4789.7298)"
         d="m 395.48223,1093.1241 5.58135,9.6672 -5.58135,9.6671 -11.1627,0 -5.58135,-9.6671 5.58135,-9.6672 z" />
      <path
         style="fill:#4d4d4d;fill-opacity:1;stroke:none;stroke-width:1.38513;stroke-opacity:1"
         inkscape:connector-curvature="0"
         d="m 329.66683,48.89257 c -2.86839,0 -4.93134,1.517643 -6.1228,3.424151 -1.06557,1.704706 -1.50888,3.682245 -1.59536,5.414478 -3.25167,1.60753 -6.85391,3.228661 -9.75413,4.886083 -1.52136,0.86964 -2.84775,1.743977 -3.84616,2.683667 -0.99838,0.93969 -1.73505,1.998097 -1.73505,3.246161 0,0.531313 0.25967,0.964068 0.55139,1.281914 0.29287,0.318491 0.64316,0.564583 1.04237,0.794892 0.79839,0.460295 1.80493,0.844139 2.91219,1.176723 1.6449,0.49341 3.48705,0.86049 5.08878,1.017109 -1.59315,2.745704 -3.71334,5.266919 -5.57184,7.682711 -2.1478,2.792589 -4.02289,5.470513 -4.02289,8.44539 0,0.424741 -0.0103,0.75668 0.0338,1.090232 0.0377,0.335255 0.13352,0.748897 0.46847,1.0789 0.33513,0.328454 0.74547,0.41834 1.07965,0.454539 0.33415,0.03639 0.67091,0.03639 1.1028,0.03639 h 11.8499 c 0.8602,0 1.49008,0.0542 2.13803,-0.36375 0.64804,-0.416404 0.88434,-0.985285 1.34603,-1.835489 h 0.0103 l 0.0103,-0.0373 c 0,0 1.03293,-2.100294 2.26538,-4.184792 0.61615,-1.041565 1.28515,-2.079478 1.86703,-2.814696 0.29152,-0.367738 0.5635,-0.659425 0.75958,-0.824058 0.06,-0.04698 0.0875,-0.05988 0.12583,-0.08376 0.0386,0.0373 0.0657,0.0373 0.12583,0.08376 0.19593,0.164311 0.46852,0.45592 0.75958,0.824058 0.58186,0.735218 1.25084,1.773131 1.86703,2.814696 1.23233,2.084498 2.26538,4.184792 2.26538,4.184792 l 0.0103,0.0373 h 0.0103 c 0.4617,0.850204 0.69583,1.415768 1.33959,1.833218 0.6436,0.417281 1.27215,0.367725 2.12022,0.367725 h 11.90207 c 0.42494,0 0.75638,0 1.08826,-0.03639 0.3318,-0.03639 0.74348,-0.127376 1.07521,-0.460605 0.33143,-0.335255 0.42322,-0.743323 0.45994,-1.075248 0.0377,-0.328454 0.0336,-0.663064 0.0336,-1.08845 0,-2.974555 -1.87508,-5.652157 -4.02291,-8.444746 -1.85837,-2.416036 -3.97856,-4.937419 -5.57181,-7.683046 1.60176,-0.157587 3.44394,-0.523609 5.08876,-1.017187 1.10723,-0.335177 2.11381,-0.716014 2.91217,-1.176632 0.39923,-0.228038 0.74983,-0.477059 1.04221,-0.79457 0.29253,-0.318413 0.55158,-0.750936 0.55158,-1.282327 0,-1.248051 -0.73666,-2.306135 -1.73502,-3.246147 -0.99846,-0.939291 -2.32482,-1.813951 -3.84612,-2.683591 -2.9003,-1.657344 -6.50248,-3.278307 -9.75421,-4.886172 -0.0866,-1.732156 -0.52987,-3.709759 -1.59532,-5.414466 -1.19148,-1.906507 -3.2544,-3.424151 -6.12282,-3.424151 z"
         id="path5096-9" />
      <g
         id="g116"
         transform="translate(-8.5862966,180.81731)"
         style="stroke-width:1.07329">
        <circle
           r="28.187229"
           cy="-89.263428"
           cx="-65.331383"
           id="circle4551"
           style="font-style:italic;font-variant:normal;font-weight:normal;font-stretch:normal;font-size:medium;line-height:30.5494px;font-family:'Archivo Narrow';-inkscape-font-specification:'Archivo Narrow Italic';text-align:center;letter-spacing:0px;word-spacing:0px;writing-mode:lr-tb;text-anchor:middle;fill:#000000;fill-opacity:1;stroke:none;stroke-width:2.01688;stroke-linecap:butt;stroke-linejoin:miter;stroke-miterlimit:4;stroke-dasharray:none;stroke-opacity:1"
           transform="scale(-1,1)" />
        <path
           id="path4553"
           style="font-style:italic;font-variant:normal;font-weight:normal;font-stretch:normal;font-size:medium;line-height:30.5494px;font-family:'Archivo Narrow';-inkscape-font-specification:'Archivo Narrow Italic';text-align:center;letter-spacing:0px;word-spacing:0px;writing-mode:lr-tb;text-anchor:middle;display:inline;fill:#ffffff;fill-opacity:1;stroke:none;stroke-width:0.572602;stroke-linecap:butt;stroke-linejoin:miter;stroke-miterlimit:4;stroke-dasharray:none;stroke-opacity:1"
           d="m 45.047175,-90.487883 c -0.250434,2.587766 -0.433178,5.170391 -0.331164,7.803073 l 5.726252,5.726246 c -1.658075,-5.971659 -2.194484,-12.716256 0.911612,-19.782575 l -0.04809,-0.0064 z m 7.25115,-4.508372 c -2.830397,7.338346 -1.620991,14.253674 0.481785,20.375543 l 3.967698,3.967699 c 0.737662,-0.62776 1.495502,-1.165735 2.283005,-1.615735 -0.740354,-0.150318 -1.453338,-0.361467 -2.04993,-0.672997 -0.834512,-0.43587 -1.549697,-1.228913 -2.145666,-1.927949 -0.595903,-0.699012 -1.030835,-1.313997 -1.030835,-1.313997 l 1.271682,-0.89954 c 0,0 0.399518,0.562479 0.945605,1.20308 0.546358,0.640486 1.281299,1.349357 1.680333,1.557596 0.736997,0.384972 2.30409,0.676022 3.622593,0.805509 0.179666,0.01814 0.359743,0.03266 0.539736,0.04657 0.709778,-0.20507 1.445626,-0.35306 2.215502,-0.44504 3.713902,-0.443286 8.137038,0.338658 14.090467,1.926775 1.417035,-0.6211 3.111437,-1.905968 4.579957,-3.306617 -0.146992,-0.02722 -0.292478,-0.06594 -0.43379,-0.114632 -0.858494,-0.298828 -1.61288,-1.088484 -1.694148,-2.147722 -0.07714,-1.002855 -0.04028,-2.240127 0.383816,-3.364327 0.185412,-0.491764 0.472047,-0.967343 0.858887,-1.361932 l 0.0121,-0.0121 -4.946328,-2.713769 c -0.796315,-0.307418 -1.385347,-0.867936 -1.787345,-1.502065 -0.413037,-0.651712 -0.659896,-1.37712 -0.8722,-2.100393 -0.423585,-1.444567 -0.738448,-2.884713 -1.436305,-3.756181 -1.472457,-1.784713 -3.690469,-2.125222 -6.010975,-3.045332 l -0.219888,-0.0871 -0.132476,-0.194183 c -2.040137,-2.951374 -2.532173,-6.625506 -2.983201,-10.374466 -3.334955,2.72932 -5.861897,7.741427 -7.868337,11.480527 l -0.32693,0.606215 -0.640728,-0.248619 c -0.814086,-0.314047 -1.598999,-0.567166 -2.355902,-0.763163 z m 24.634462,9.984492 c 0.02419,0.0064 0.04415,0.01815 0.06802,0.02419 l -0.109188,-0.0493 z M 65.992818,-105.70241 c -0.2704,0.26949 -0.53151,0.54863 -0.777589,0.84093 0.418118,3.08053 0.981776,5.884824 2.420028,8.077917 0.156065,0.05867 0.31522,0.115539 0.476275,0.171186 -0.520042,-3.563893 -0.755542,-7.319173 0.539711,-11.261463 -1.050317,0.71707 -1.927477,1.44321 -2.658516,2.17134 z m 17.062678,24.234083 c 2.62978,1.871334 1.573752,3.188326 0.515239,4.649648 0.695044,-0.397365 2.686152,-1.925772 2.371422,-3.221013 -0.253464,-1.043331 -2.018277,-1.324618 -2.886661,-1.428635 z m -14.548892,-8.828162 c 1.18944,0.473407 2.162227,1.313574 3.133115,2.175945 -0.76978,0.945665 -1.535967,1.0024 -2.485896,0.829702 -1.090746,-0.814188 -1.679421,-2.019541 -1.701921,-3.308437 0.371574,0.06778 0.721966,0.170284 1.054854,0.302826 z"
           inkscape:connector-curvature="0" />
      </g>
      <path
         transform="matrix(3.5468694,2.0487376,-2.0478888,3.548696,1031.6838,-4789.8739)"
         inkscape:randomized="0"
         inkscape:rounded="0"
         inkscape:flatsided="true"
         sodipodi:arg2="-0.52359878"
         sodipodi:arg1="-1.0471976"
         sodipodi:r2="9.6671848"
         sodipodi:r1="11.162703"
         sodipodi:cy="1102.7913"
         sodipodi:cx="389.90088"
         sodipodi:sides="6"
         id="path78"
         style="font-style:normal;font-weight:normal;font-size:medium;line-height:125%;font-family:sans-serif;letter-spacing:0px;word-spacing:0px;fill:#b3b3b3;fill-opacity:1;stroke:#000000;stroke-width:0.901633;stroke-linecap:butt;stroke-linejoin:round;stroke-miterlimit:4;stroke-dasharray:none;stroke-dashoffset:0;stroke-opacity:1"
         sodipodi:type="star"
         d="m 395.48223,1093.1241 5.58135,9.6672 -5.58135,9.6671 -11.1627,0 -5.58135,-9.6671 5.58135,-9.6672 z" />
      <g
         id="g21"
         transform="matrix(0.61430994,0,0,0.61430994,74.484879,-87.636636)"
         style="stroke-width:1.07329">
        <path
           inkscape:connector-curvature="0"
           d="m 150.17453,27.451513 c 0.16879,1.743758 0.29199,3.484046 0.22317,5.258065 l -3.85982,3.858603 c 1.11763,-4.023976 1.4792,-8.568785 -0.61449,-13.330396 l 0.032,-0.0041 z m -4.88769,-3.037946 c 1.90785,4.944914 1.09264,9.604769 -0.32478,13.729957 l -2.67446,2.673617 c -0.49721,-0.422971 -1.00805,-0.785527 -1.53887,-1.088747 0.49903,-0.101272 0.97963,-0.243578 1.38178,-0.453491 0.56251,-0.293679 1.04458,-0.8281 1.44629,-1.299149 0.40165,-0.471037 0.69483,-0.885423 0.69483,-0.885423 l -0.8572,-0.606181 c 0,0 -0.26929,0.379039 -0.63743,0.810696 -0.36823,0.431594 -0.86366,0.909254 -1.13263,1.049571 -0.49677,0.259405 -1.55309,0.455509 -2.44183,0.542766 -0.12114,0.01275 -0.24248,0.02241 -0.36386,0.03172 -0.4784,-0.138136 -0.97444,-0.237855 -1.49337,-0.299852 -2.50339,-0.298609 -5.48483,0.228232 -9.49779,1.29835 -0.95517,-0.418568 -2.09729,-1.28433 -3.08715,-2.228151 0.0991,-0.01794 0.19713,-0.04479 0.29243,-0.07724 0.57869,-0.20134 1.08717,-0.73347 1.14196,-1.447237 0.0522,-0.675738 0.0272,-1.509493 -0.25878,-2.267034 -0.12496,-0.331404 -0.31816,-0.651878 -0.57901,-0.917729 l -0.008,-0.0079 3.33411,-1.82866 c 0.53672,-0.207063 0.93381,-0.584729 1.20477,-1.012079 0.27843,-0.439193 0.44481,-0.927963 0.58794,-1.415336 0.28551,-0.973415 0.49778,-1.943854 0.96815,-2.531091 0.99252,-1.202621 2.48759,-1.432071 4.05174,-2.052077 l 0.1482,-0.05851 0.0893,-0.1309 c 1.37517,-1.988772 1.70684,-4.464569 2.01085,-6.990784 2.24796,1.839135 3.95126,5.216525 5.30372,7.736105 l 0.2204,0.408437 0.43187,-0.16751 c 0.54874,-0.211649 1.07783,-0.382207 1.58801,-0.51426 z m -16.60506,6.728005 c -0.0159,0.0041 -0.029,0.01275 -0.046,0.01656 l 0.0736,-0.03379 z m 7.37418,-13.94229 c 0.18231,0.181581 0.35826,0.369678 0.52408,0.566674 -0.28185,2.075794 -0.66179,3.965458 -1.63124,5.44326 -0.10513,0.03979 -0.21247,0.07786 -0.32099,0.115374 0.35051,-2.401509 0.50924,-4.931995 -0.36385,-7.588483 0.70797,0.483187 1.29922,0.972502 1.79199,1.463146 z m -11.50124,16.330022 c -1.77262,1.260986 -1.0608,2.148428 -0.34729,3.133135 -0.46836,-0.267964 -1.81061,-1.297672 -1.59847,-2.170467 0.17086,-0.703066 1.36044,-0.892582 1.94578,-0.962665 z m 9.80681,-5.948825 c -0.80176,0.319024 -1.45748,0.885142 -2.11191,1.466249 0.51892,0.63722 1.03533,0.675468 1.67564,0.55912 0.73522,-0.548616 1.13202,-1.360852 1.1472,-2.229371 -0.25047,0.04593 -0.48664,0.114755 -0.71105,0.204026 z"
           style="font-variation-settings:normal;display:inline;vector-effect:none;fill:#000000;fill-opacity:1;stroke:none;stroke-width:0.507892;stroke-linecap:round;stroke-linejoin:round;stroke-miterlimit:4;stroke-dasharray:none;stroke-dashoffset:0;stroke-opacity:1;paint-order:markers fill stroke;stop-color:#000000"
           id="path25834-6-8" />
        <path
           id="rect8-6-4"
           style="font-variation-settings:normal;display:inline;vector-effect:none;fill:#000000;fill-opacity:1;stroke-width:0.507892;stroke-linecap:round;stroke-linejoin:round;stroke-miterlimit:4;stroke-dasharray:none;stroke-dashoffset:0;stroke-opacity:1;paint-order:markers fill stroke;stop-color:#000000"
           d="M 133.04917,-30.62242 86.551233,15.873968 h 6.993371 l 39.505076,-39.503533 39.50199,39.503533 h 6.99234 z m 5.3e-4,14.628048 -32.87965,32.878096 V 46.49742 h 15.52722 V 27.180254 a 17.350431,17.350431 0 0 1 0,-0.162264 17.350431,17.350431 0 0 1 17.19688,-17.3503644 17.350431,17.350431 0 0 1 0.15348,0 17.350431,17.350431 0 0 1 17.35191,17.3503644 17.350431,17.350431 0 0 1 -0.002,0.162264 h 0.002 V 46.49742 h 15.52567 V 16.882692 Z" />
      </g>
      <path
         sodipodi:nodetypes="scccccscs"
         inkscape:connector-curvature="0"
         d="m 330.17764,12.439302 c -8.9795,4.726805 -14.25742,18.214509 -10.64615,26.47476 l -8.49638,1.116636 20.68722,19.181081 6.43788,-22.75105 -9.22783,1.215 c -5.09025,-7.315837 9.56151,-17.671478 11.17296,-18.482876 1.71532,-0.863832 10.73514,-6.287061 26.09667,-3.104434 C 349.15562,4.8306171 341.39358,6.535143 330.17764,12.439302 Z"
         id="path109"
         style="font-style:italic;font-variant:normal;font-weight:normal;font-stretch:normal;font-size:medium;line-height:30.5494px;font-family:'Archivo Narrow';-inkscape-font-specification:'Archivo Narrow Italic';text-align:center;letter-spacing:0px;word-spacing:0px;writing-mode:lr-tb;text-anchor:middle;fill:#000000;fill-opacity:1;stroke:none;stroke-width:0.599548;stroke-linecap:butt;stroke-linejoin:miter;stroke-opacity:1" />
      <path
         transform="matrix(3.5468694,2.0487376,-2.0478888,3.548696,988.39697,-4716.758)"
         inkscape:randomized="0"
         inkscape:rounded="0"
         inkscape:flatsided="true"
         sodipodi:arg2="-0.52359878"
         sodipodi:arg1="-1.0471976"
         sodipodi:r2="9.6671848"
         sodipodi:r1="11.162703"
         sodipodi:cy="1102.7913"
         sodipodi:cx="389.90088"
         sodipodi:sides="6"
         id="path101"
         style="font-style:normal;font-weight:normal;font-size:medium;line-height:125%;font-family:sans-serif;letter-spacing:0px;word-spacing:0px;fill:#b3b3b3;fill-opacity:1;stroke:#000000;stroke-width:0.901633;stroke-linecap:butt;stroke-linejoin:round;stroke-miterlimit:4;stroke-dasharray:none;stroke-dashoffset:0;stroke-opacity:1"
         sodipodi:type="star"
         d="m 395.48223,1093.1241 5.58135,9.6672 -5.58135,9.6671 -11.1627,0 -5.58135,-9.6671 5.58135,-9.6672 z" />
      <path
         transform="matrix(3.5468694,2.0487376,-2.0478888,3.548696,1033.3488,-4645.0372)"
         inkscape:randomized="0"
         inkscape:rounded="0"
         inkscape:flatsided="true"
         sodipodi:arg2="-0.52359878"
         sodipodi:arg1="-1.0471976"
         sodipodi:r2="9.6671848"
         sodipodi:r1="11.162703"
         sodipodi:cy="1102.7913"
         sodipodi:cx="389.90088"
         sodipodi:sides="6"
         id="path106"
         style="font-style:normal;font-weight:normal;font-size:medium;line-height:125%;font-family:sans-serif;letter-spacing:0px;word-spacing:0px;fill:#b3b3b3;fill-opacity:1;stroke:#000000;stroke-width:0.901633;stroke-linecap:butt;stroke-linejoin:round;stroke-miterlimit:4;stroke-dasharray:none;stroke-dashoffset:0;stroke-opacity:1"
         sodipodi:type="star"
         d="m 395.48223,1093.1241 5.58135,9.6672 -5.58135,9.6671 -11.1627,0 -5.58135,-9.6671 5.58135,-9.6672 z" />
      <path
         style="fill:#4d4d4d;fill-opacity:1;stroke:none;stroke-width:1.38513;stroke-opacity:1"
         inkscape:connector-curvature="0"
         d="m 158.95105,44.094345 c -2.86839,0 -4.93134,1.517643 -6.1228,3.424151 -1.06557,1.704706 -1.50888,3.682245 -1.59536,5.414478 -3.25167,1.60753 -6.85391,3.228661 -9.75413,4.886083 -1.52136,0.86964 -2.84775,1.743977 -3.84616,2.683667 -0.99838,0.93969 -1.73505,1.998097 -1.73505,3.246161 0,0.531313 0.25967,0.964068 0.55139,1.281914 0.29287,0.318491 0.64316,0.564583 1.04237,0.794892 0.79839,0.460295 1.80493,0.844139 2.91219,1.176723 1.6449,0.49341 3.48705,0.86049 5.08878,1.017109 -1.59315,2.745704 -3.71334,5.266919 -5.57184,7.682711 -2.1478,2.792589 -4.02289,5.470513 -4.02289,8.44539 0,0.424741 -0.0103,0.75668 0.0338,1.090232 0.0377,0.335255 0.13352,0.748897 0.46847,1.0789 0.33513,0.328454 0.74547,0.41834 1.07965,0.454539 0.33415,0.03639 0.67091,0.03639 1.1028,0.03639 h 11.8499 c 0.8602,0 1.49008,0.0542 2.13803,-0.36375 0.64804,-0.416404 0.88434,-0.985285 1.34603,-1.835489 h 0.0103 l 0.0103,-0.0373 c 0,0 1.03293,-2.100294 2.26538,-4.184792 0.61615,-1.041565 1.28515,-2.079478 1.86703,-2.814696 0.29152,-0.367738 0.5635,-0.659425 0.75958,-0.824058 0.06,-0.04698 0.0875,-0.05988 0.12583,-0.08376 0.0386,0.0373 0.0657,0.0373 0.12583,0.08376 0.19593,0.164311 0.46852,0.45592 0.75958,0.824058 0.58186,0.735218 1.25084,1.773131 1.86703,2.814696 1.23233,2.084498 2.26538,4.184792 2.26538,4.184792 l 0.0103,0.0373 h 0.0103 c 0.4617,0.850204 0.69583,1.415768 1.33959,1.833218 0.6436,0.417281 1.27215,0.367725 2.12022,0.367725 h 11.90207 c 0.42494,0 0.75638,0 1.08826,-0.03639 0.3318,-0.03639 0.74348,-0.127376 1.07521,-0.460605 0.33143,-0.335255 0.42322,-0.743323 0.45994,-1.075248 0.0377,-0.328454 0.0336,-0.663064 0.0336,-1.08845 0,-2.974555 -1.87508,-5.652157 -4.02291,-8.444746 -1.85837,-2.416036 -3.97856,-4.937419 -5.57181,-7.683046 1.60176,-0.157587 3.44394,-0.523609 5.08876,-1.017187 1.10723,-0.335177 2.11381,-0.716014 2.91217,-1.176632 0.39923,-0.228038 0.74983,-0.477059 1.04221,-0.79457 0.29253,-0.318413 0.55158,-0.750936 0.55158,-1.282327 0,-1.248051 -0.73666,-2.306135 -1.73502,-3.246147 -0.99846,-0.939291 -2.32482,-1.813951 -3.84612,-2.683591 -2.9003,-1.657344 -6.50248,-3.278307 -9.75421,-4.886172 -0.0866,-1.732156 -0.52987,-3.709759 -1.59532,-5.414466 -1.19148,-1.906507 -3.2544,-3.424151 -6.12282,-3.424151 z"
         id="path108" />
      <path
         transform="matrix(3.5468694,2.0487376,-2.0478888,3.548696,1162.1432,-4566.7504)"
         inkscape:randomized="0"
         inkscape:rounded="0"
         inkscape:flatsided="true"
         sodipodi:arg2="-0.52359878"
         sodipodi:arg1="-1.0471976"
         sodipodi:r2="9.6671848"
         sodipodi:r1="11.162703"
         sodipodi:cy="1102.7913"
         sodipodi:cx="389.90088"
         sodipodi:sides="6"
         id="path110"
         style="font-style:normal;font-weight:normal;font-size:medium;line-height:125%;font-family:sans-serif;letter-spacing:0px;word-spacing:0px;fill:#b3b3b3;fill-opacity:1;stroke:#000000;stroke-width:0.901633;stroke-linecap:butt;stroke-linejoin:round;stroke-miterlimit:4;stroke-dasharray:none;stroke-dashoffset:0;stroke-opacity:1"
         sodipodi:type="star"
         d="m 395.48223,1093.1241 5.58135,9.6672 -5.58135,9.6671 -11.1627,0 -5.58135,-9.6671 5.58135,-9.6672 z" />
      <path
         style="fill:#4d4d4d;fill-opacity:1;stroke:none;stroke-width:1.38513;stroke-opacity:1"
         inkscape:connector-curvature="0"
         d="m 286.23027,121.62355 c -2.86839,0 -4.93134,1.51765 -6.1228,3.42415 -1.06557,1.70471 -1.50888,3.68225 -1.59536,5.41448 -3.25167,1.60753 -6.85391,3.22866 -9.75413,4.88609 -1.52136,0.86964 -2.84775,1.74397 -3.84616,2.68366 -0.99838,0.93969 -1.73505,1.9981 -1.73505,3.24616 0,0.53132 0.25967,0.96407 0.55139,1.28192 0.29287,0.31849 0.64316,0.56458 1.04237,0.79489 0.79839,0.46029 1.80493,0.84414 2.91219,1.17672 1.6449,0.49341 3.48705,0.86049 5.08878,1.01711 -1.59315,2.74571 -3.71334,5.26692 -5.57184,7.68271 -2.1478,2.79259 -4.02289,5.47052 -4.02289,8.44539 0,0.42474 -0.0103,0.75668 0.0338,1.09023 0.0377,0.33526 0.13352,0.7489 0.46847,1.0789 0.33513,0.32846 0.74547,0.41834 1.07965,0.45454 0.33415,0.0364 0.67091,0.0364 1.1028,0.0364 h 11.8499 c 0.8602,0 1.49008,0.0542 2.13803,-0.36375 0.64804,-0.4164 0.88434,-0.98528 1.34603,-1.83549 h 0.0103 l 0.0103,-0.0373 c 0,0 1.03293,-2.10029 2.26538,-4.18479 0.61615,-1.04156 1.28515,-2.07948 1.86703,-2.81469 0.29152,-0.36774 0.5635,-0.65943 0.75958,-0.82406 0.06,-0.047 0.0875,-0.0599 0.12583,-0.0838 0.0386,0.0373 0.0657,0.0373 0.12583,0.0838 0.19593,0.16431 0.46852,0.45592 0.75958,0.82406 0.58186,0.73521 1.25084,1.77313 1.86703,2.81469 1.23233,2.0845 2.26538,4.18479 2.26538,4.18479 l 0.0103,0.0373 h 0.0103 c 0.4617,0.85021 0.69583,1.41577 1.33959,1.83322 0.6436,0.41728 1.27215,0.36773 2.12022,0.36773 h 11.90207 c 0.42494,0 0.75638,0 1.08826,-0.0364 0.3318,-0.0364 0.74348,-0.12738 1.07521,-0.46061 0.33143,-0.33525 0.42322,-0.74332 0.45994,-1.07525 0.0377,-0.32845 0.0336,-0.66306 0.0336,-1.08845 0,-2.97455 -1.87508,-5.65215 -4.02291,-8.44474 -1.85837,-2.41604 -3.97856,-4.93742 -5.57181,-7.68305 1.60176,-0.15758 3.44394,-0.52361 5.08876,-1.01718 1.10723,-0.33518 2.11381,-0.71602 2.91217,-1.17664 0.39923,-0.22803 0.74983,-0.47706 1.04221,-0.79457 0.29253,-0.31841 0.55158,-0.75093 0.55158,-1.28232 0,-1.24805 -0.73666,-2.30614 -1.73502,-3.24615 -0.99846,-0.93929 -2.32482,-1.81395 -3.84612,-2.68359 -2.9003,-1.65735 -6.50248,-3.27831 -9.75421,-4.88617 -0.0866,-1.73216 -0.52987,-3.70976 -1.59532,-5.41447 -1.19148,-1.90651 -3.2544,-3.42415 -6.12282,-3.42415 z"
         id="path112" />
      <g
         id="g122"
         transform="translate(314.15745,61.619305)"
         style="stroke-width:1.07329">
        <circle
           r="28.187229"
           cy="-89.263428"
           cx="-65.331383"
           id="circle118"
           style="font-style:italic;font-variant:normal;font-weight:normal;font-stretch:normal;font-size:medium;line-height:30.5494px;font-family:'Archivo Narrow';-inkscape-font-specification:'Archivo Narrow Italic';text-align:center;letter-spacing:0px;word-spacing:0px;writing-mode:lr-tb;text-anchor:middle;fill:#000000;fill-opacity:1;stroke:none;stroke-width:2.01688;stroke-linecap:butt;stroke-linejoin:miter;stroke-miterlimit:4;stroke-dasharray:none;stroke-opacity:1"
           transform="scale(-1,1)" />
        <path
           id="path120"
           style="font-style:italic;font-variant:normal;font-weight:normal;font-stretch:normal;font-size:medium;line-height:30.5494px;font-family:'Archivo Narrow';-inkscape-font-specification:'Archivo Narrow Italic';text-align:center;letter-spacing:0px;word-spacing:0px;writing-mode:lr-tb;text-anchor:middle;display:inline;fill:#ffffff;fill-opacity:1;stroke:none;stroke-width:0.572602;stroke-linecap:butt;stroke-linejoin:miter;stroke-miterlimit:4;stroke-dasharray:none;stroke-opacity:1"
           d="m 45.047175,-90.487883 c -0.250434,2.587766 -0.433178,5.170391 -0.331164,7.803073 l 5.726252,5.726246 c -1.658075,-5.971659 -2.194484,-12.716256 0.911612,-19.782575 l -0.04809,-0.0064 z m 7.25115,-4.508372 c -2.830397,7.338346 -1.620991,14.253674 0.481785,20.375543 l 3.967698,3.967699 c 0.737662,-0.62776 1.495502,-1.165735 2.283005,-1.615735 -0.740354,-0.150318 -1.453338,-0.361467 -2.04993,-0.672997 -0.834512,-0.43587 -1.549697,-1.228913 -2.145666,-1.927949 -0.595903,-0.699012 -1.030835,-1.313997 -1.030835,-1.313997 l 1.271682,-0.89954 c 0,0 0.399518,0.562479 0.945605,1.20308 0.546358,0.640486 1.281299,1.349357 1.680333,1.557596 0.736997,0.384972 2.30409,0.676022 3.622593,0.805509 0.179666,0.01814 0.359743,0.03266 0.539736,0.04657 0.709778,-0.20507 1.445626,-0.35306 2.215502,-0.44504 3.713902,-0.443286 8.137038,0.338658 14.090467,1.926775 1.417035,-0.6211 3.111437,-1.905968 4.579957,-3.306617 -0.146992,-0.02722 -0.292478,-0.06594 -0.43379,-0.114632 -0.858494,-0.298828 -1.61288,-1.088484 -1.694148,-2.147722 -0.07714,-1.002855 -0.04028,-2.240127 0.383816,-3.364327 0.185412,-0.491764 0.472047,-0.967343 0.858887,-1.361932 l 0.0121,-0.0121 -4.946328,-2.713769 c -0.796315,-0.307418 -1.385347,-0.867936 -1.787345,-1.502065 -0.413037,-0.651712 -0.659896,-1.37712 -0.8722,-2.100393 -0.423585,-1.444567 -0.738448,-2.884713 -1.436305,-3.756181 -1.472457,-1.784713 -3.690469,-2.125222 -6.010975,-3.045332 l -0.219888,-0.0871 -0.132476,-0.194183 c -2.040137,-2.951374 -2.532173,-6.625506 -2.983201,-10.374466 -3.334955,2.72932 -5.861897,7.741427 -7.868337,11.480527 l -0.32693,0.606215 -0.640728,-0.248619 c -0.814086,-0.314047 -1.598999,-0.567166 -2.355902,-0.763163 z m 24.634462,9.984492 c 0.02419,0.0064 0.04415,0.01815 0.06802,0.02419 l -0.109188,-0.0493 z M 65.992818,-105.70241 c -0.2704,0.26949 -0.53151,0.54863 -0.777589,0.84093 0.418118,3.08053 0.981776,5.884824 2.420028,8.077917 0.156065,0.05867 0.31522,0.115539 0.476275,0.171186 -0.520042,-3.563893 -0.755542,-7.319173 0.539711,-11.261463 -1.050317,0.71707 -1.927477,1.44321 -2.658516,2.17134 z m 17.062678,24.234083 c 2.62978,1.871334 1.573752,3.188326 0.515239,4.649648 0.695044,-0.397365 2.686152,-1.925772 2.371422,-3.221013 -0.253464,-1.043331 -2.018277,-1.324618 -2.886661,-1.428635 z m -14.548892,-8.828162 c 1.18944,0.473407 2.162227,1.313574 3.133115,2.175945 -0.76978,0.945665 -1.535967,1.0024 -2.485896,0.829702 -1.090746,-0.814188 -1.679421,-2.019541 -1.701921,-3.308437 0.371574,0.06778 0.721966,0.170284 1.054854,0.302826 z"
           inkscape:connector-curvature="0" />
      </g>
      <g
         id="g132"
         transform="translate(341.43156,116.16755)"
         style="stroke-width:1.07329">
        <circle
           r="28.187229"
           cy="-89.263428"
           cx="-65.331383"
           id="circle128"
           style="font-style:italic;font-variant:normal;font-weight:normal;font-stretch:normal;font-size:medium;line-height:30.5494px;font-family:'Archivo Narrow';-inkscape-font-specification:'Archivo Narrow Italic';text-align:center;letter-spacing:0px;word-spacing:0px;writing-mode:lr-tb;text-anchor:middle;fill:#000000;fill-opacity:1;stroke:none;stroke-width:2.01688;stroke-linecap:butt;stroke-linejoin:miter;stroke-miterlimit:4;stroke-dasharray:none;stroke-opacity:1"
           transform="scale(-1,1)" />
        <path
           id="path130"
           style="font-style:italic;font-variant:normal;font-weight:normal;font-stretch:normal;font-size:medium;line-height:30.5494px;font-family:'Archivo Narrow';-inkscape-font-specification:'Archivo Narrow Italic';text-align:center;letter-spacing:0px;word-spacing:0px;writing-mode:lr-tb;text-anchor:middle;display:inline;fill:#ffffff;fill-opacity:1;stroke:none;stroke-width:0.572602;stroke-linecap:butt;stroke-linejoin:miter;stroke-miterlimit:4;stroke-dasharray:none;stroke-opacity:1"
           d="m 45.047175,-90.487883 c -0.250434,2.587766 -0.433178,5.170391 -0.331164,7.803073 l 5.726252,5.726246 c -1.658075,-5.971659 -2.194484,-12.716256 0.911612,-19.782575 l -0.04809,-0.0064 z m 7.25115,-4.508372 c -2.830397,7.338346 -1.620991,14.253674 0.481785,20.375543 l 3.967698,3.967699 c 0.737662,-0.62776 1.495502,-1.165735 2.283005,-1.615735 -0.740354,-0.150318 -1.453338,-0.361467 -2.04993,-0.672997 -0.834512,-0.43587 -1.549697,-1.228913 -2.145666,-1.927949 -0.595903,-0.699012 -1.030835,-1.313997 -1.030835,-1.313997 l 1.271682,-0.89954 c 0,0 0.399518,0.562479 0.945605,1.20308 0.546358,0.640486 1.281299,1.349357 1.680333,1.557596 0.736997,0.384972 2.30409,0.676022 3.622593,0.805509 0.179666,0.01814 0.359743,0.03266 0.539736,0.04657 0.709778,-0.20507 1.445626,-0.35306 2.215502,-0.44504 3.713902,-0.443286 8.137038,0.338658 14.090467,1.926775 1.417035,-0.6211 3.111437,-1.905968 4.579957,-3.306617 -0.146992,-0.02722 -0.292478,-0.06594 -0.43379,-0.114632 -0.858494,-0.298828 -1.61288,-1.088484 -1.694148,-2.147722 -0.07714,-1.002855 -0.04028,-2.240127 0.383816,-3.364327 0.185412,-0.491764 0.472047,-0.967343 0.858887,-1.361932 l 0.0121,-0.0121 -4.946328,-2.713769 c -0.796315,-0.307418 -1.385347,-0.867936 -1.787345,-1.502065 -0.413037,-0.651712 -0.659896,-1.37712 -0.8722,-2.100393 -0.423585,-1.444567 -0.738448,-2.884713 -1.436305,-3.756181 -1.472457,-1.784713 -3.690469,-2.125222 -6.010975,-3.045332 l -0.219888,-0.0871 -0.132476,-0.194183 c -2.040137,-2.951374 -2.532173,-6.625506 -2.983201,-10.374466 -3.334955,2.72932 -5.861897,7.741427 -7.868337,11.480527 l -0.32693,0.606215 -0.640728,-0.248619 c -0.814086,-0.314047 -1.598999,-0.567166 -2.355902,-0.763163 z m 24.634462,9.984492 c 0.02419,0.0064 0.04415,0.01815 0.06802,0.02419 l -0.109188,-0.0493 z M 65.992818,-105.70241 c -0.2704,0.26949 -0.53151,0.54863 -0.777589,0.84093 0.418118,3.08053 0.981776,5.884824 2.420028,8.077917 0.156065,0.05867 0.31522,0.115539 0.476275,0.171186 -0.520042,-3.563893 -0.755542,-7.319173 0.539711,-11.261463 -1.050317,0.71707 -1.927477,1.44321 -2.658516,2.17134 z m 17.062678,24.234083 c 2.62978,1.871334 1.573752,3.188326 0.515239,4.649648 0.695044,-0.397365 2.686152,-1.925772 2.371422,-3.221013 -0.253464,-1.043331 -2.018277,-1.324618 -2.886661,-1.428635 z m -14.548892,-8.828162 c 1.18944,0.473407 2.162227,1.313574 3.133115,2.175945 -0.76978,0.945665 -1.535967,1.0024 -2.485896,0.829702 -1.090746,-0.814188 -1.679421,-2.019541 -1.701921,-3.308437 0.371574,0.06778 0.721966,0.170284 1.054854,0.302826 z"
           inkscape:connector-curvature="0" />
      </g>
      <path
         sodipodi:nodetypes="scccccscs"
         inkscape:connector-curvature="0"
         d="m 108.92278,43.161659 c 8.43994,-5.633996 22.81117,-3.833289 28.34566,3.283038 l 5.037,-6.932819 6.97941,27.334305 -23.06474,-5.203362 5.47259,-7.528589 c -3.99862,-7.965127 -20.09234,-0.03382 -21.57458,0.994834 -1.57786,1.094916 -10.648993,6.431879 -15.185325,21.44948 C 93.177693,56.205729 98.38074,50.198815 108.92278,43.161659 Z"
         id="path142"
         style="font-style:italic;font-variant:normal;font-weight:normal;font-stretch:normal;font-size:medium;line-height:30.5494px;font-family:'Archivo Narrow';-inkscape-font-specification:'Archivo Narrow Italic';text-align:center;letter-spacing:0px;word-spacing:0px;writing-mode:lr-tb;text-anchor:middle;fill:#000000;fill-opacity:1;stroke:none;stroke-width:0.599548;stroke-linecap:butt;stroke-linejoin:miter;stroke-opacity:1" />
    </g>
  </g>
</svg>
