<?xml version="1.0" encoding="UTF-8" standalone="no"?>
<svg
   xmlns:dc="http://purl.org/dc/elements/1.1/"
   xmlns:cc="http://creativecommons.org/ns#"
   xmlns:rdf="http://www.w3.org/1999/02/22-rdf-syntax-ns#"
   xmlns:svg="http://www.w3.org/2000/svg"
   xmlns="http://www.w3.org/2000/svg"
   xmlns:sodipodi="http://sodipodi.sourceforge.net/DTD/sodipodi-0.dtd"
   xmlns:inkscape="http://www.inkscape.org/namespaces/inkscape"
   sodipodi:docname="rescue-dogs.svg"
   inkscape:version="1.0.1 (3bc2e813f5, 2020-09-07)"
   id="svg24"
   version="1.1"
   viewBox="0 0 380 500"
   height="500"
   width="380">
  <defs
     id="defs18" />
  <sodipodi:namedview
     inkscape:document-rotation="0"
     inkscape:snap-global="false"
     inkscape:window-maximized="1"
     inkscape:window-y="134"
     inkscape:window-x="1672"
     inkscape:window-height="1017"
     inkscape:window-width="1920"
     inkscape:guide-bbox="true"
     showguides="false"
     units="px"
     showgrid="false"
     inkscape:current-layer="layer1"
     inkscape:document-units="px"
     inkscape:cy="115.93788"
     inkscape:cx="16.727716"
     inkscape:zoom="0.9899495"
     inkscape:pageshadow="2"
     inkscape:pageopacity="0.0"
     borderopacity="1.0"
     bordercolor="#666666"
     pagecolor="#ffffff"
     id="base" />
  <metadata
     id="metadata21">
    <rdf:RDF>
      <cc:Work
         rdf:about="">
        <dc:format>image/svg+xml</dc:format>
        <dc:type
           rdf:resource="http://purl.org/dc/dcmitype/StillImage" />
        <dc:title />
      </cc:Work>
    </rdf:RDF>
  </metadata>
  <g
     transform="translate(0,221.28127)"
     id="layer1"
     inkscape:groupmode="layer"
     inkscape:label="Layer 1">
    <g
       style="stroke-width:0.814415"
       transform="matrix(1.2287501,0,0,1.2270001,-54.602138,37.1492)"
       id="g145">
      <path
         d="m 395.48223,1093.1241 5.58135,9.6672 -5.58135,9.6671 -11.1627,0 -5.58135,-9.6671 5.58135,-9.6672 z"
         transform="matrix(4.1036749,0,0,4.0901799,-1407.1376,-4413.4315)"
         inkscape:randomized="0"
         inkscape:rounded="0"
         inkscape:flatsided="true"
         sodipodi:arg2="-0.52359878"
         sodipodi:arg1="-1.0471976"
         sodipodi:r2="9.6671848"
         sodipodi:r1="11.162703"
         sodipodi:cy="1102.7913"
         sodipodi:cx="389.90088"
         sodipodi:sides="6"
         id="path5356"
         style="font-style:normal;font-weight:normal;font-size:medium;line-height:125%;font-family:sans-serif;letter-spacing:0px;word-spacing:0px;fill:#b3b3b3;fill-opacity:1;stroke:#000000;stroke-width:0.196696;stroke-linecap:butt;stroke-linejoin:round;stroke-miterlimit:4;stroke-dasharray:none;stroke-dashoffset:0;stroke-opacity:1"
         sodipodi:type="star" />
      <path
         d="m 395.48223,1093.1241 5.58135,9.6672 -5.58135,9.6671 -11.1627,0 -5.58135,-9.6671 5.58135,-9.6672 z"
         sodipodi:type="star"
         style="font-style:normal;font-weight:normal;font-size:medium;line-height:125%;font-family:sans-serif;letter-spacing:0px;word-spacing:0px;fill:#b3b3b3;fill-opacity:1;stroke:#000000;stroke-width:0.196696;stroke-linecap:butt;stroke-linejoin:round;stroke-miterlimit:4;stroke-dasharray:none;stroke-dashoffset:0;stroke-opacity:1"
         id="path66"
         sodipodi:sides="6"
         sodipodi:cx="389.90088"
         sodipodi:cy="1102.7913"
         sodipodi:r1="11.162703"
         sodipodi:r2="9.6671848"
         sodipodi:arg1="-1.0471976"
         sodipodi:arg2="-0.52359878"
         inkscape:flatsided="true"
         inkscape:rounded="0"
         inkscape:randomized="0"
         transform="matrix(4.1036749,0,0,4.0901799,-1407.1376,-4494.6136)" />
      <path
         d="m 395.48223,1093.1241 5.58135,9.6672 -5.58135,9.6671 -11.1627,0 -5.58135,-9.6671 5.58135,-9.6672 z"
         transform="matrix(4.1036749,0,0,4.0901799,-1407.1376,-4575.7957)"
         inkscape:randomized="0"
         inkscape:rounded="0"
         inkscape:flatsided="true"
         sodipodi:arg2="-0.52359878"
         sodipodi:arg1="-1.0471976"
         sodipodi:r2="9.6671848"
         sodipodi:r1="11.162703"
         sodipodi:cy="1102.7913"
         sodipodi:cx="389.90088"
         sodipodi:sides="6"
         id="path68"
         style="font-style:normal;font-weight:normal;font-size:medium;line-height:125%;font-family:sans-serif;letter-spacing:0px;word-spacing:0px;fill:#b3b3b3;fill-opacity:1;stroke:#000000;stroke-width:0.196696;stroke-linecap:butt;stroke-linejoin:round;stroke-miterlimit:4;stroke-dasharray:none;stroke-dashoffset:0;stroke-opacity:1"
         sodipodi:type="star" />
      <path
         sodipodi:type="star"
         style="font-style:normal;font-weight:normal;font-size:medium;line-height:125%;font-family:sans-serif;letter-spacing:0px;word-spacing:0px;fill:#b3b3b3;fill-opacity:1;stroke:#000000;stroke-width:0.196696;stroke-linecap:butt;stroke-linejoin:round;stroke-miterlimit:4;stroke-dasharray:none;stroke-dashoffset:0;stroke-opacity:1"
         id="path78"
         sodipodi:sides="6"
         sodipodi:cx="389.90088"
         sodipodi:cy="1102.7913"
         sodipodi:r1="11.162703"
         sodipodi:r2="9.6671848"
         sodipodi:arg1="-1.0471976"
         sodipodi:arg2="-0.52359878"
         inkscape:flatsided="true"
         inkscape:rounded="0"
         inkscape:randomized="0"
         transform="matrix(4.1036749,0,0,4.0901799,-1407.1376,-4656.9778)"
         d="m 395.48223,1093.1241 5.58135,9.6672 -5.58135,9.6671 -11.1627,0 -5.58135,-9.6671 5.58135,-9.6672 z" />
    </g>
    <g
       transform="matrix(0.36486434,0,0,0.36433319,-39.655738,-193.90392)"
       id="g5217"
       style="stroke-width:2.74274">
      <circle
         transform="scale(-1,1)"
         style="font-style:italic;font-variant:normal;font-weight:normal;font-stretch:normal;font-size:medium;line-height:30.5494px;font-family:'Archivo Narrow';-inkscape-font-specification:'Archivo Narrow Italic';text-align:center;letter-spacing:0px;word-spacing:0px;writing-mode:lr-tb;text-anchor:middle;fill:#000000;fill-opacity:1;stroke:none;stroke-width:8.52106;stroke-linecap:butt;stroke-linejoin:miter;stroke-miterlimit:4;stroke-dasharray:none;stroke-opacity:1"
         id="circle5213"
         cx="-659.98737"
         cy="180.0994"
         r="46.601688" />
      <path
         inkscape:connector-curvature="0"
         d="m 626.45167,178.07501 c -0.41404,4.27833 -0.71617,8.54816 -0.54751,12.90075 l 9.46716,9.46715 c -2.74128,-9.87289 -3.62812,-21.02367 1.50716,-32.70635 l -0.0795,-0.0106 z m 11.98826,-7.45365 c -4.67947,12.13242 -2.67997,23.56547 0.79653,33.6867 l 6.55976,6.55976 c 1.21957,-1.03787 2.4725,-1.9273 3.77447,-2.67128 -1.22402,-0.24852 -2.40279,-0.59761 -3.38913,-1.11266 -1.37969,-0.72062 -2.5621,-2.03175 -3.54741,-3.18746 -0.9852,-1.15567 -1.70427,-2.17242 -1.70427,-2.17242 l 2.10246,-1.4872 c 0,0 0.66052,0.92994 1.56336,1.98904 0.90329,1.05891 2.11836,2.23088 2.77808,2.57516 1.21847,0.63647 3.80933,1.11766 5.9892,1.33174 0.29704,0.03 0.59476,0.054 0.89234,0.077 1.17347,-0.33904 2.39004,-0.58371 3.66287,-0.73578 6.14016,-0.73288 13.45289,0.5599 23.29564,3.18552 2.34277,-1.02686 5.14411,-3.15112 7.572,-5.4668 -0.24302,-0.045 -0.48355,-0.10902 -0.71718,-0.18952 -1.41934,-0.49405 -2.66656,-1.79958 -2.80092,-3.55081 -0.12754,-1.65801 -0.0666,-3.70358 0.63456,-5.56221 0.30654,-0.81303 0.78043,-1.5993 1.41999,-2.25167 l 0.02,-0.02 -8.17772,-4.48665 c -1.31654,-0.50825 -2.29038,-1.43495 -2.955,-2.48335 -0.68287,-1.07747 -1.091,-2.27678 -1.442,-3.47256 -0.70031,-2.38829 -1.22087,-4.76927 -2.37463,-6.21006 -2.4344,-2.95065 -6.10142,-3.51361 -9.93789,-5.03482 l -0.36354,-0.14401 -0.21902,-0.32104 c -3.37294,-4.87948 -4.18642,-10.9539 -4.9321,-17.15202 -5.51365,4.51236 -9.69142,12.79884 -13.00865,18.98066 l -0.54051,1.00225 -1.05931,-0.41104 c -1.34592,-0.51921 -2.64361,-0.93769 -3.89499,-1.26173 z m 40.72793,16.50727 c 0.04,0.0106 0.073,0.03 0.11246,0.04 l -0.18052,-0.0815 z m -18.08695,-34.20766 c -0.44705,0.44555 -0.87874,0.90705 -1.28558,1.3903 0.69127,5.09302 1.62316,9.72933 4.00101,13.35515 0.25802,0.097 0.52115,0.19102 0.78742,0.28302 -0.85978,-5.89215 -1.24913,-12.10072 0.8923,-18.61847 -1.73648,1.18552 -3.18668,2.38604 -4.3953,3.58986 z m 28.20957,40.06599 c 4.34779,3.09386 2.60187,5.27123 0.85184,7.68722 1.14911,-0.65696 4.44099,-3.18386 3.92065,-5.32527 -0.41905,-1.72493 -3.3368,-2.18998 -4.77249,-2.36195 z m -24.05355,-14.59552 c 1.96649,0.78268 3.57479,2.17172 5.17995,3.59747 -1.27267,1.56346 -2.5394,1.65726 -4.10991,1.37174 -1.80332,-1.34609 -2.77657,-3.33889 -2.81377,-5.46981 0.61432,0.11206 1.19362,0.28153 1.74398,0.50066 z"
         style="font-style:italic;font-variant:normal;font-weight:normal;font-stretch:normal;font-size:medium;line-height:30.5494px;font-family:'Archivo Narrow';-inkscape-font-specification:'Archivo Narrow Italic';text-align:center;letter-spacing:0px;word-spacing:0px;writing-mode:lr-tb;text-anchor:middle;display:inline;fill:#ffffff;fill-opacity:1;stroke:none;stroke-width:2.41918;stroke-linecap:butt;stroke-linejoin:miter;stroke-miterlimit:4;stroke-dasharray:none;stroke-opacity:1"
         id="path5215" />
    </g>
    <path
       sodipodi:nodetypes="scccccscs"
       inkscape:connector-curvature="0"
       d="m 161.92694,-92.632239 c -2.83521,9.125163 2.63849,21.618785 10.55334,24.71404 l -4.92,6.399971 26.58043,-1.002386 -10.87638,-19.433178 -5.34211,6.952391 c -8.27123,-1.481824 -5.40717,-18.130878 -4.87383,-19.743941 0.56765,-1.717101 2.96544,-11.332768 15.32882,-19.440908 -18.87053,3.8536 -22.90905,10.15606 -26.45027,21.554011 z"
       id="path5203"
       style="font-style:italic;font-variant:normal;font-weight:normal;font-stretch:normal;font-size:medium;line-height:30.5494px;font-family:'Archivo Narrow';-inkscape-font-specification:'Archivo Narrow Italic';text-align:center;letter-spacing:0px;word-spacing:0px;writing-mode:lr-tb;text-anchor:middle;fill:#000000;fill-opacity:1;stroke:none;stroke-width:0.746087;stroke-linecap:butt;stroke-linejoin:miter;stroke-opacity:1" />
    <path
       style="font-style:italic;font-variant:normal;font-weight:normal;font-stretch:normal;font-size:medium;line-height:30.5494px;font-family:'Archivo Narrow';-inkscape-font-specification:'Archivo Narrow Italic';text-align:center;letter-spacing:0px;word-spacing:0px;writing-mode:lr-tb;text-anchor:middle;fill:#000000;fill-opacity:1;stroke:none;stroke-width:0.746087;stroke-linecap:butt;stroke-linejoin:miter;stroke-opacity:1"
       id="path137"
       d="m 163.79509,2.6194838 c -2.83519,9.1251752 2.6385,21.6187732 10.55335,24.7140402 l -4.92001,6.399983 26.58044,-1.002397 -10.87638,-19.433179 -5.34213,6.952403 c -8.27122,-1.481835 -5.40715,-18.1308772 -4.87381,-19.74395318 0.56766,-1.71710002 2.96544,-11.33275682 15.3288,-19.44090782 -18.87053,3.853602 -22.90904,10.1560638 -26.45026,21.5540108 z"
       inkscape:connector-curvature="0"
       sodipodi:nodetypes="scccccscs" />
    <path
       sodipodi:nodetypes="scccccscs"
       inkscape:connector-curvature="0"
       d="m 171.61885,103.87189 c -2.83519,9.12519 2.63851,21.6188 10.55333,24.71404 l -4.91999,6.39998 26.58044,-1.00238 -10.87638,-19.43319 -5.34213,6.95241 c -8.27122,-1.48183 -5.40715,-18.13087 -4.87381,-19.74395 0.56765,-1.7171 2.96544,-11.332767 15.32881,-19.440907 -18.87053,3.8536 -22.90903,10.15608 -26.45027,21.553997 z"
       id="path139"
       style="font-style:italic;font-variant:normal;font-weight:normal;font-stretch:normal;font-size:medium;line-height:30.5494px;font-family:'Archivo Narrow';-inkscape-font-specification:'Archivo Narrow Italic';text-align:center;letter-spacing:0px;word-spacing:0px;writing-mode:lr-tb;text-anchor:middle;fill:#000000;fill-opacity:1;stroke:none;stroke-width:0.746087;stroke-linecap:butt;stroke-linejoin:miter;stroke-opacity:1" />
    <g
       style="stroke-width:0.814415"
       transform="matrix(1.2287501,0,0,1.2270001,-54.602138,-41.781892)"
       id="g201">
      <g
         id="g5201"
         transform="matrix(0.16109148,0,0,0.1610864,109.54892,121.85019)"
         style="stroke-width:5.05569">
        <rect
           rx="6.2068968"
           style="font-style:italic;font-variant:normal;font-weight:normal;font-stretch:normal;font-size:medium;line-height:30.5494px;font-family:'Archivo Narrow';-inkscape-font-specification:'Archivo Narrow Italic';text-align:center;letter-spacing:0px;word-spacing:0px;writing-mode:lr-tb;text-anchor:middle;opacity:1;vector-effect:none;fill:#000000;fill-opacity:1;stroke:none;stroke-width:3.90059;stroke-linecap:butt;stroke-linejoin:miter;stroke-miterlimit:4;stroke-dasharray:none;stroke-dashoffset:0;stroke-opacity:1"
           id="rect5129"
           width="90.600525"
           height="35.801823"
           x="461.63974"
           y="230.73392"
           ry="6.2159457" />
        <path
           style="font-style:italic;font-variant:normal;font-weight:normal;font-stretch:normal;font-size:medium;line-height:30.5494px;font-family:'Archivo Narrow';-inkscape-font-specification:'Archivo Narrow Italic';text-align:center;letter-spacing:0px;word-spacing:0px;writing-mode:lr-tb;text-anchor:middle;opacity:1;vector-effect:none;fill:#000000;fill-opacity:1;stroke:none;stroke-width:3.90059;stroke-linecap:butt;stroke-linejoin:miter;stroke-miterlimit:4;stroke-dasharray:none;stroke-dashoffset:0;stroke-opacity:1"
           d="m 537.99258,212.98617 35.64865,35.64866 -35.64865,35.64865 z"
           id="rect5136"
           inkscape:connector-curvature="0"
           sodipodi:nodetypes="cccc" />
      </g>
      <g
         style="stroke-width:0.814415"
         id="g185"
         transform="translate(-47.982246,10.101523)">
        <ellipse
           ry="13.837441"
           rx="13.837878"
           transform="scale(-1,1)"
           style="font-style:italic;font-variant:normal;font-weight:normal;font-stretch:normal;font-size:medium;line-height:30.5494px;font-family:'Archivo Narrow';-inkscape-font-specification:'Archivo Narrow Italic';text-align:center;letter-spacing:0px;word-spacing:0px;writing-mode:lr-tb;text-anchor:middle;fill:#000000;fill-opacity:1;stroke:none;stroke-width:2.5302;stroke-linecap:butt;stroke-linejoin:miter;stroke-miterlimit:4;stroke-dasharray:none;stroke-opacity:1"
           id="circle147"
           cx="-266.4765"
           cy="151.80035" />
        <g
           inkscape:label="Layer 1"
           id="g4852"
           transform="matrix(0.42506182,0,0,0.42352307,252.62805,-279.56282)"
           style="font-variation-settings:normal;opacity:1;vector-effect:none;fill:#ffffff;fill-opacity:1;stroke:none;stroke-width:1.69303;stroke-linecap:butt;stroke-linejoin:miter;stroke-miterlimit:4;stroke-dasharray:none;stroke-dashoffset:0;stroke-opacity:1;stop-color:#000000;stop-opacity:1">
          <path
             inkscape:connector-curvature="0"
             style="font-variation-settings:normal;vector-effect:none;fill:#ffffff;fill-opacity:1;stroke:none;stroke-width:1.69303;stroke-linecap:butt;stroke-linejoin:miter;stroke-miterlimit:4;stroke-dasharray:none;stroke-dashoffset:0;stroke-opacity:1;stop-color:#000000;stop-opacity:1"
             d="m 32.579912,995.13399 c 2.124847,0 3.534937,1.0606 5.426456,2.1113 1.792663,0.996 4.046316,1.8501 7.224481,1.2011 1.508237,1.5076 3.040556,3.01551 4.674665,4.03681 1.337237,0.8358 2.839909,1.3336 4.338736,1.0984 -0.430029,3.3835 -2.484655,6.6932 -4.632572,8.4257 -5.664236,-1.8772 -11.342639,-2.8162 -17.021041,-2.8162 -5.683664,0 -11.367226,0.9408 -17.036623,2.8213 -2.150144,-1.731 -4.20821,-5.044 -4.638543,-8.4308 1.498524,0.2354 3.001499,-0.2626 4.338736,-1.0983 1.634109,-1.0213 3.166226,-2.52911 4.674665,-4.03671 3.177862,0.6489 5.431819,-0.2053 7.224482,-1.2011 1.891721,-1.0512 3.30171,-2.1115 5.426558,-2.1115 z m 0.01063,1.977 c -2.004945,0 -5.379912,2.7095 -5.379912,2.7095 0,0 2.147108,8.12861 5.379912,8.12861 3.233006,0 5.380114,-8.12861 5.380114,-8.12861 0,0 -3.375168,-2.7095 -5.380114,-2.7095 z m 0,13.89451 c 5.341462,0 10.683329,0.8733 16.037945,2.6039 0.220579,1.363 -0.152787,2.3758 -0.955979,3.3124 -0.896483,1.0454 -2.401281,1.9329 -4.184938,2.6013 -3.56772,1.3375 -8.194121,1.8108 -10.897129,1.8108 -2.702907,0 -7.329105,-0.4733 -10.896724,-1.8107 -1.783861,-0.6684 -3.288455,-1.5558 -4.184939,-2.6014 -0.803394,-0.9366 -1.176963,-1.9492 -0.956181,-3.3123 5.354616,-1.7307 10.696381,-2.604 16.037844,-2.604 z m 17.527665,5.7823 c 0.993619,0.241 2.725066,0.7866 3.036104,1.7195 0.850142,2.5495 -1.71202,6.455 -3.649679,8.9193 0.533843,-2.2265 0.821608,-4.5948 0.821608,-7.0505 0,-1.22 -0.07144,-2.4182 -0.208033,-3.5883 z m -35.054926,0 a 30.949923,30.949923 0 0 0 -0.208033,3.5882 c 0,2.4557 0.287665,4.824 0.821608,7.0505 -1.937658,-2.4643 -4.499921,-6.3698 -3.649678,-8.9193 0.310936,-0.9329 2.042484,-1.4785 3.036002,-1.7195 z m 33.393498,1.9398 c 0.03086,0.5441 0.04806,1.0934 0.04806,1.6483 0,6.0077 -1.834452,11.4294 -4.745796,15.3096 -2.911244,3.88 -6.850408,6.2038 -11.168604,6.2038 -4.317892,0 -8.257158,-2.3238 -11.1683,-6.2038 -2.911244,-3.8802 -4.745494,-9.3018 -4.745494,-15.3095 0,-0.5551 0.0172,-1.1044 0.04796,-1.6485 0.829701,0.7747 1.843152,1.4032 2.958091,1.9255 -0.432053,1.8416 0.02691,4.1322 1.224114,5.3289 2.203164,2.2022 7.144041,2.2022 9.347306,0 0.68238,-0.6823 0.975103,-1.7694 0.936451,-2.8602 0.499238,0.022 0.971359,0.033 1.400072,0.033 0.428815,0 0.901036,-0.012 1.400376,-0.033 -0.03875,1.0907 0.25397,2.1779 0.936552,2.8602 2.203265,2.2022 7.14394,2.2022 9.347103,0 1.1972,-1.1967 1.656166,-3.487 1.224114,-5.3285 1.11504,-0.5223 2.128693,-1.1511 2.958193,-1.9258 z m -15.866237,11.926 c -2.336725,3.7373 -7.010176,4.2044 -9.346901,4.2044 2.336624,1.8688 9.3468,1.8688 9.3468,0 0,1.8688 7.010479,1.8688 9.347305,0 -2.336826,0 -7.010479,-0.4671 -9.347305,-4.2044 z"
             id="path4854" />
        </g>
      </g>
      <g
         style="stroke-width:0.814415"
         id="g189"
         transform="translate(0,-1.2626886)">
        <ellipse
           transform="scale(-1,1)"
           cy="163.16457"
           cx="-167.37856"
           id="ellipse180"
           style="font-style:italic;font-variant:normal;font-weight:normal;font-stretch:normal;font-size:medium;line-height:30.5494px;font-family:'Archivo Narrow';-inkscape-font-specification:'Archivo Narrow Italic';text-align:center;letter-spacing:0px;word-spacing:0px;writing-mode:lr-tb;text-anchor:middle;fill:#000000;fill-opacity:1;stroke:none;stroke-width:2.5302;stroke-linecap:butt;stroke-linejoin:miter;stroke-miterlimit:4;stroke-dasharray:none;stroke-opacity:1"
           rx="13.837878"
           ry="13.837441" />
        <path
           inkscape:connector-curvature="0"
           style="font-variation-settings:normal;opacity:1;vector-effect:none;fill:#ffffff;fill-opacity:1;stroke:none;stroke-width:0.718339;stroke-linecap:butt;stroke-linejoin:miter;stroke-miterlimit:4;stroke-dasharray:none;stroke-dashoffset:0;stroke-opacity:1;stop-color:#000000;stop-opacity:1"
           d="m 170.16387,166.36974 c -0.9614,-0.1229 -2.16459,-0.35278 -3.66655,-0.70091 -0.95308,-0.22084 -2.01655,-0.48866 -3.16168,-0.79549 -1.44182,-0.38633 -2.71993,-0.75606 -3.51031,-0.9878 a 8.7576254,8.756803 10.165147 0 0 -0.27466,2.46814 c 0.0956,3.27848 1.93152,5.97152 4.30653,6.60788 a 4.1545112,4.1541214 10.160537 0 0 1.1996,0.14067 c 2.8461,-0.0827 5.08341,-3.06714 5.10707,-6.73246 z m -7.52992,1.77396 -0.46081,-0.48183 -0.35762,0.36158 -0.54027,-0.53577 0.37285,-0.37485 -0.47519,-0.49656 0.55022,-0.52592 0.4608,0.48185 0.35768,-0.36162 0.54027,0.53576 -0.3729,0.3749 0.47514,0.49654 z m 4.26511,0.0211 -0.46092,-0.48181 -0.35762,0.3616 -0.54027,-0.53573 0.37206,-0.37685 -0.47531,-0.49618 0.55158,-0.52601 0.46085,0.4819 0.35757,-0.36159 0.54022,0.53566 -0.37285,0.37491 0.47519,0.49665 z m 7.40487,-7.88871 0.69276,0.98194 1.14956,-0.34709 -0.71989,0.96135 0.68556,0.986 -1.13654,-0.38747 -0.7272,0.9563 0.018,-1.20072 -1.13412,-0.39514 1.14513,-0.35472 z m 0.84709,-3.19791 -0.10982,0.74733 0.67432,0.34009 -0.74457,0.12625 -0.11325,0.74685 -0.35116,-0.66925 -0.74536,0.12134 0.52769,-0.53931 -0.3457,-0.67177 0.67691,0.33561 z m -14.30668,-3.85305 0.50954,1.08655 1.19273,-0.13999 -0.87738,0.82139 0.502,1.09018 -1.05149,-0.58014 -0.88368,0.81406 0.22892,-1.17844 -1.04768,-0.58786 1.19183,-0.14811 z m 12.08184,12.15605 c -0.32232,0.46368 -1.32003,0.78228 -6.27604,-0.3666 -1.05858,-0.24547 -2.13964,-0.52209 -3.13965,-0.79002 -1.69884,-0.45519 -4.89964,-1.36536 -4.89964,-1.36536 l 0.17378,-0.6485 c 0,0 3.20816,0.91219 4.90003,1.36551 0.97854,0.26219 2.03465,0.53293 3.06996,0.77304 1.58553,0.36878 2.87465,0.60993 3.8315,0.71775 1.43694,0.16131 1.73566,-0.0228 1.78208,-0.0629 -0.006,-0.026 -0.0241,-0.10851 -0.14022,-0.26479 -0.32412,-0.43436 -0.98271,-0.95836 -1.90595,-1.52892 a 8.4940863,8.4932895 10.160226 0 0 -0.4408,-1.03989 c 0.0756,0.0421 0.15124,0.0842 0.22172,0.12586 1.32397,0.76134 2.21883,1.44771 2.66288,2.04099 0.20762,0.28069 0.40533,0.68903 0.16035,1.04385 z m -12.33908,-3.37172 c 0.14046,-0.28079 0.64628,-0.97804 0.84978,-1.15894 2.24222,0.76844 6.28544,1.0012 7.42281,0.89591 0.47255,0.70222 0.93656,1.80786 1.07932,2.55634 -2.39384,-0.35811 -6.53474,-1.46199 -9.35314,-2.29319 z m 1.56935,-2.71113 c -0.40202,-0.13408 -1.34471,-0.45026 -1.75049,-0.38213 0.35936,0.58323 2.90473,1.31952 5.14435,1.59204 2.40064,0.29227 4.69191,0.32494 6.18122,-0.1957 0.62037,-0.21692 1.03756,-0.66507 1.04948,-0.91036 0.0613,-1.2503 -6.62939,-3.49044 -6.62939,-3.49044 0,0 7.18686,2.0859 6.85201,3.54963 -0.35908,1.57022 -4.06593,1.85589 -7.45692,1.49163 -3.22081,-0.34601 -6.19376,-1.10658 -5.69844,-2.34049 0.28769,-0.71701 2.24209,-0.0453 3.0776,0.28377 -0.20268,0.0721 -0.59907,0.2982 -0.77071,0.40207 z m 3.28359,0.0487 a 4.4600152,4.4595966 10.161959 0 1 1.67602,0.64892 c -0.54989,-0.0118 -2.46387,-0.25569 -3.56061,-0.51959 1.00019,-0.29371 1.72593,-0.1518 1.8833,-0.12923 z"
           id="path4555" />
      </g>
    </g>
    <g
       id="g127"
       transform="matrix(1.2905351,0,0,1.2905351,256.51396,-1348.1496)">
      <path
         sodipodi:type="star"
         style="font-style:normal;font-weight:normal;font-size:medium;line-height:125%;font-family:sans-serif;letter-spacing:0px;word-spacing:0px;fill:#b3b3b3;fill-opacity:1;stroke:#000000;stroke-width:0.840064;stroke-linecap:butt;stroke-linejoin:round;stroke-miterlimit:4;stroke-dasharray:none;stroke-dashoffset:0;stroke-opacity:1"
         id="path5084-7"
         sodipodi:sides="6"
         sodipodi:cx="389.90088"
         sodipodi:cy="1102.7913"
         sodipodi:r1="11.162703"
         sodipodi:r2="9.6671848"
         sodipodi:arg1="-1.0471976"
         sodipodi:arg2="-0.52359878"
         inkscape:flatsided="true"
         inkscape:rounded="0"
         inkscape:randomized="0"
         transform="matrix(2.7483711,1.5875102,-1.5868525,2.7497865,895.70379,-2791.5461)"
         d="m 395.48223,1093.1241 5.58135,9.6672 -5.58135,9.6671 -11.1627,0 -5.58135,-9.6671 5.58135,-9.6672 z" />
      <path
         transform="matrix(2.7483711,1.5875102,-1.5868525,2.7497865,929.34221,-2733.7606)"
         inkscape:randomized="0"
         inkscape:rounded="0"
         inkscape:flatsided="true"
         sodipodi:arg2="-0.52359878"
         sodipodi:arg1="-1.0471976"
         sodipodi:r2="9.6671848"
         sodipodi:r1="11.162703"
         sodipodi:cy="1102.7913"
         sodipodi:cx="389.90088"
         sodipodi:sides="6"
         id="path74"
         style="font-style:normal;font-weight:normal;font-size:medium;line-height:125%;font-family:sans-serif;letter-spacing:0px;word-spacing:0px;fill:#b3b3b3;fill-opacity:1;stroke:#000000;stroke-width:0.840064;stroke-linecap:butt;stroke-linejoin:round;stroke-miterlimit:4;stroke-dasharray:none;stroke-dashoffset:0;stroke-opacity:1"
         sodipodi:type="star"
         d="m 395.48223,1093.1241 5.58135,9.6672 -5.58135,9.6671 -11.1627,0 -5.58135,-9.6671 5.58135,-9.6672 z" />
      <path
         sodipodi:type="star"
         style="font-style:normal;font-weight:normal;font-size:medium;line-height:125%;font-family:sans-serif;letter-spacing:0px;word-spacing:0px;fill:#b3b3b3;fill-opacity:1;stroke:#000000;stroke-width:0.840064;stroke-linecap:butt;stroke-linejoin:round;stroke-miterlimit:4;stroke-dasharray:none;stroke-dashoffset:0;stroke-opacity:1"
         id="path86"
         sodipodi:sides="6"
         sodipodi:cx="389.90088"
         sodipodi:cy="1102.7913"
         sodipodi:r1="11.162703"
         sodipodi:r2="9.6671848"
         sodipodi:arg1="-1.0471976"
         sodipodi:arg2="-0.52359878"
         inkscape:flatsided="true"
         inkscape:rounded="0"
         inkscape:randomized="0"
         transform="matrix(2.7483711,1.5875102,-1.5868525,2.7497865,861.516,-2850.184)"
         d="m 395.48223,1093.1241 5.58135,9.6672 -5.58135,9.6671 -11.1627,0 -5.58135,-9.6671 5.58135,-9.6672 z" />
      <path
         style="fill:#4d4d4d;fill-opacity:1;stroke:none;stroke-width:1;stroke-opacity:1"
         inkscape:connector-curvature="0"
         d="m 250.62147,899.13081 c -2.22264,0 -3.82116,1.17598 -4.74439,2.65328 -0.82568,1.32093 -1.16919,2.85327 -1.2362,4.19553 -2.51963,1.24563 -5.31091,2.5018 -7.55821,3.78609 -1.17886,0.67386 -2.20664,1.35136 -2.98028,2.0795 -0.77362,0.72814 -1.34444,1.54827 -1.34444,2.51536 0,0.4117 0.20121,0.74703 0.42725,0.99332 0.22694,0.24679 0.49837,0.43748 0.80771,0.61594 0.61865,0.35667 1.39859,0.6541 2.25657,0.91181 1.27459,0.38233 2.70202,0.66677 3.94316,0.78813 -1.23449,2.12757 -2.87737,4.08119 -4.31747,5.95312 -1.66427,2.1639 -3.11722,4.23895 -3.11722,6.5441 0,0.32912 -0.008,0.58633 0.0262,0.84479 0.0292,0.25978 0.10346,0.5803 0.36301,0.83601 0.25968,0.25451 0.57764,0.32416 0.83659,0.35221 0.25892,0.0282 0.51987,0.0282 0.85453,0.0282 h 9.18216 c 0.66654,0 1.15462,0.042 1.6567,-0.28186 0.50215,-0.32266 0.68525,-0.76347 1.043,-1.42227 h 0.008 l 0.008,-0.0289 c 0,0 0.80039,-1.62746 1.75538,-3.24268 0.47744,-0.80708 0.99583,-1.61133 1.44671,-2.18103 0.22589,-0.28495 0.43664,-0.51097 0.58858,-0.63854 0.0465,-0.0364 0.0678,-0.0464 0.0975,-0.0649 0.0299,0.0289 0.0509,0.0289 0.0975,0.0649 0.15182,0.12732 0.36305,0.35328 0.58858,0.63854 0.45087,0.5697 0.96924,1.37395 1.44671,2.18103 0.9549,1.61522 1.75538,3.24268 1.75538,3.24268 l 0.008,0.0289 h 0.008 c 0.35776,0.6588 0.53918,1.09704 1.03801,1.42051 0.49871,0.32334 0.98576,0.28494 1.6429,0.28494 h 9.22259 c 0.32927,0 0.5861,0 0.84326,-0.0282 0.2571,-0.0282 0.5761,-0.0987 0.83315,-0.35691 0.25682,-0.25978 0.32794,-0.57598 0.3564,-0.83318 0.0292,-0.25451 0.026,-0.51379 0.026,-0.84341 0,-2.3049 -1.45295,-4.3797 -3.11724,-6.5436 -1.44,-1.87212 -3.08288,-3.82587 -4.31744,-5.95338 1.24116,-0.12211 2.66861,-0.40573 3.94314,-0.78819 0.85796,-0.25972 1.63793,-0.55482 2.25656,-0.91174 0.30935,-0.1767 0.58102,-0.36966 0.80758,-0.61569 0.22667,-0.24673 0.4274,-0.58188 0.4274,-0.99364 0,-0.96708 -0.57082,-1.78696 -1.34442,-2.51535 -0.77368,-0.72783 -1.80144,-1.40558 -2.98025,-2.07944 -2.24736,-1.28423 -5.03859,-2.54027 -7.55827,-3.78616 -0.0671,-1.3422 -0.41058,-2.87459 -1.23617,-4.19552 -0.92324,-1.4773 -2.52174,-2.65328 -4.7444,-2.65328 z"
         id="path5096-9" />
      <g
         id="g4555"
         transform="matrix(0.46868485,0,0,0.46868485,-263.53085,707.66769)">
        <circle
           r="46.601688"
           cy="180.0994"
           cx="-659.98737"
           id="circle4551"
           style="font-style:italic;font-variant:normal;font-weight:normal;font-stretch:normal;font-size:medium;line-height:30.5494px;font-family:'Archivo Narrow';-inkscape-font-specification:'Archivo Narrow Italic';text-align:center;letter-spacing:0px;word-spacing:0px;writing-mode:lr-tb;text-anchor:middle;fill:#000000;fill-opacity:1;stroke:none;stroke-width:3.10678;stroke-linecap:butt;stroke-linejoin:miter;stroke-miterlimit:4;stroke-dasharray:none;stroke-opacity:1"
           transform="scale(-1,1)" />
        <path
           id="path4553"
           style="font-style:italic;font-variant:normal;font-weight:normal;font-stretch:normal;font-size:medium;line-height:30.5494px;font-family:'Archivo Narrow';-inkscape-font-specification:'Archivo Narrow Italic';text-align:center;letter-spacing:0px;word-spacing:0px;writing-mode:lr-tb;text-anchor:middle;display:inline;fill:#ffffff;fill-opacity:1;stroke:none;stroke-width:0.882033;stroke-linecap:butt;stroke-linejoin:miter;stroke-miterlimit:4;stroke-dasharray:none;stroke-opacity:1"
           d="m 626.45167,178.07501 c -0.41404,4.27833 -0.71617,8.54816 -0.54751,12.90075 l 9.46716,9.46715 c -2.74128,-9.87289 -3.62812,-21.02367 1.50716,-32.70635 l -0.0795,-0.0106 z m 11.98826,-7.45365 c -4.67947,12.13242 -2.67997,23.56547 0.79653,33.6867 l 6.55976,6.55976 c 1.21957,-1.03787 2.4725,-1.9273 3.77447,-2.67128 -1.22402,-0.24852 -2.40279,-0.59761 -3.38913,-1.11266 -1.37969,-0.72062 -2.5621,-2.03175 -3.54741,-3.18746 -0.9852,-1.15567 -1.70427,-2.17242 -1.70427,-2.17242 l 2.10246,-1.4872 c 0,0 0.66052,0.92994 1.56336,1.98904 0.90329,1.05891 2.11836,2.23088 2.77808,2.57516 1.21847,0.63647 3.80933,1.11766 5.9892,1.33174 0.29704,0.03 0.59476,0.054 0.89234,0.077 1.17347,-0.33904 2.39004,-0.58371 3.66287,-0.73578 6.14016,-0.73288 13.45289,0.5599 23.29564,3.18552 2.34277,-1.02686 5.14411,-3.15112 7.572,-5.4668 -0.24302,-0.045 -0.48355,-0.10902 -0.71718,-0.18952 -1.41934,-0.49405 -2.66656,-1.79958 -2.80092,-3.55081 -0.12754,-1.65801 -0.0666,-3.70358 0.63456,-5.56221 0.30654,-0.81303 0.78043,-1.5993 1.41999,-2.25167 l 0.02,-0.02 -8.17772,-4.48665 c -1.31654,-0.50825 -2.29038,-1.43495 -2.955,-2.48335 -0.68287,-1.07747 -1.091,-2.27678 -1.442,-3.47256 -0.70031,-2.38829 -1.22087,-4.76927 -2.37463,-6.21006 -2.4344,-2.95065 -6.10142,-3.51361 -9.93789,-5.03482 l -0.36354,-0.14401 -0.21902,-0.32104 c -3.37294,-4.87948 -4.18642,-10.9539 -4.9321,-17.15202 -5.51365,4.51236 -9.69142,12.79884 -13.00865,18.98066 l -0.54051,1.00225 -1.05931,-0.41104 c -1.34592,-0.51921 -2.64361,-0.93769 -3.89499,-1.26173 z m 40.72793,16.50727 c 0.04,0.0106 0.073,0.03 0.11246,0.04 l -0.18052,-0.0815 z m -18.08695,-34.20766 c -0.44705,0.44555 -0.87874,0.90705 -1.28558,1.3903 0.69127,5.09302 1.62316,9.72933 4.00101,13.35515 0.25802,0.097 0.52115,0.19102 0.78742,0.28302 -0.85978,-5.89215 -1.24913,-12.10072 0.8923,-18.61847 -1.73648,1.18552 -3.18668,2.38604 -4.3953,3.58986 z m 28.20957,40.06599 c 4.34779,3.09386 2.60187,5.27123 0.85184,7.68722 1.14911,-0.65696 4.44099,-3.18386 3.92065,-5.32527 -0.41905,-1.72493 -3.3368,-2.18998 -4.77249,-2.36195 z m -24.05355,-14.59552 c 1.96649,0.78268 3.57479,2.17172 5.17995,3.59747 -1.27267,1.56346 -2.5394,1.65726 -4.10991,1.37174 -1.80332,-1.34609 -2.77657,-3.33889 -2.81377,-5.46981 0.61432,0.11206 1.19362,0.28153 1.74398,0.50066 z"
           inkscape:connector-curvature="0" />
      </g>
      <g
         id="g103">
        <path
           transform="matrix(2.7483711,1.5875102,-1.5868525,2.7497865,794.59502,-2850.2957)"
           inkscape:randomized="0"
           inkscape:rounded="0"
           inkscape:flatsided="true"
           sodipodi:arg2="-0.52359878"
           sodipodi:arg1="-1.0471976"
           sodipodi:r2="9.6671848"
           sodipodi:r1="11.162703"
           sodipodi:cy="1102.7913"
           sodipodi:cx="389.90088"
           sodipodi:sides="6"
           id="path78-9"
           style="font-style:normal;font-weight:normal;font-size:medium;line-height:125%;font-family:sans-serif;letter-spacing:0px;word-spacing:0px;fill:#b3b3b3;fill-opacity:1;stroke:#000000;stroke-width:0.840064;stroke-linecap:butt;stroke-linejoin:round;stroke-miterlimit:4;stroke-dasharray:none;stroke-dashoffset:0;stroke-opacity:1"
           sodipodi:type="star"
           d="m 395.48223,1093.1241 5.58135,9.6672 -5.58135,9.6671 -11.1627,0 -5.58135,-9.6671 5.58135,-9.6672 z" />
        <g
           id="g21"
           transform="matrix(0.4760118,0,0,0.4760118,52.888022,793.3381)">
          <path
             inkscape:connector-curvature="0"
             d="m 150.17453,27.451513 c 0.16879,1.743758 0.29199,3.484046 0.22317,5.258065 l -3.85982,3.858603 c 1.11763,-4.023976 1.4792,-8.568785 -0.61449,-13.330396 l 0.032,-0.0041 z m -4.88769,-3.037946 c 1.90785,4.944914 1.09264,9.604769 -0.32478,13.729957 l -2.67446,2.673617 c -0.49721,-0.422971 -1.00805,-0.785527 -1.53887,-1.088747 0.49903,-0.101272 0.97963,-0.243578 1.38178,-0.453491 0.56251,-0.293679 1.04458,-0.8281 1.44629,-1.299149 0.40165,-0.471037 0.69483,-0.885423 0.69483,-0.885423 l -0.8572,-0.606181 c 0,0 -0.26929,0.379039 -0.63743,0.810696 -0.36823,0.431594 -0.86366,0.909254 -1.13263,1.049571 -0.49677,0.259405 -1.55309,0.455509 -2.44183,0.542766 -0.12114,0.01275 -0.24248,0.02241 -0.36386,0.03172 -0.4784,-0.138136 -0.97444,-0.237855 -1.49337,-0.299852 -2.50339,-0.298609 -5.48483,0.228232 -9.49779,1.29835 -0.95517,-0.418568 -2.09729,-1.28433 -3.08715,-2.228151 0.0991,-0.01794 0.19713,-0.04479 0.29243,-0.07724 0.57869,-0.20134 1.08717,-0.73347 1.14196,-1.447237 0.0522,-0.675738 0.0272,-1.509493 -0.25878,-2.267034 -0.12496,-0.331404 -0.31816,-0.651878 -0.57901,-0.917729 l -0.008,-0.0079 3.33411,-1.82866 c 0.53672,-0.207063 0.93381,-0.584729 1.20477,-1.012079 0.27843,-0.439193 0.44481,-0.927963 0.58794,-1.415336 0.28551,-0.973415 0.49778,-1.943854 0.96815,-2.531091 0.99252,-1.202621 2.48759,-1.432071 4.05174,-2.052077 l 0.1482,-0.05851 0.0893,-0.1309 c 1.37517,-1.988772 1.70684,-4.464569 2.01085,-6.990784 2.24796,1.839135 3.95126,5.216525 5.30372,7.736105 l 0.2204,0.408437 0.43187,-0.16751 c 0.54874,-0.211649 1.07783,-0.382207 1.58801,-0.51426 z m -16.60506,6.728005 c -0.0159,0.0041 -0.029,0.01275 -0.046,0.01656 l 0.0736,-0.03379 z m 7.37418,-13.94229 c 0.18231,0.181581 0.35826,0.369678 0.52408,0.566674 -0.28185,2.075794 -0.66179,3.965458 -1.63124,5.44326 -0.10513,0.03979 -0.21247,0.07786 -0.32099,0.115374 0.35051,-2.401509 0.50924,-4.931995 -0.36385,-7.588483 0.70797,0.483187 1.29922,0.972502 1.79199,1.463146 z m -11.50124,16.330022 c -1.77262,1.260986 -1.0608,2.148428 -0.34729,3.133135 -0.46836,-0.267964 -1.81061,-1.297672 -1.59847,-2.170467 0.17086,-0.703066 1.36044,-0.892582 1.94578,-0.962665 z m 9.80681,-5.948825 c -0.80176,0.319024 -1.45748,0.885142 -2.11191,1.466249 0.51892,0.63722 1.03533,0.675468 1.67564,0.55912 0.73522,-0.548616 1.13202,-1.360852 1.1472,-2.229371 -0.25047,0.04593 -0.48664,0.114755 -0.71105,0.204026 z"
             style="font-variation-settings:normal;display:inline;vector-effect:none;fill:#000000;fill-opacity:1;stroke:none;stroke-width:0.47321;stroke-linecap:round;stroke-linejoin:round;stroke-miterlimit:4;stroke-dasharray:none;stroke-dashoffset:0;stroke-opacity:1;paint-order:markers fill stroke;stop-color:#000000"
             id="path25834-6-8" />
          <path
             id="rect8-6-4"
             style="font-variation-settings:normal;display:inline;vector-effect:none;fill:#000000;fill-opacity:1;stroke-width:0.47321;stroke-linecap:round;stroke-linejoin:round;stroke-miterlimit:4;stroke-dasharray:none;stroke-dashoffset:0;stroke-opacity:1;paint-order:markers fill stroke;stop-color:#000000"
             d="M 133.04917,-30.62242 86.551233,15.873968 h 6.993371 l 39.505076,-39.503533 39.50199,39.503533 h 6.99234 z m 5.3e-4,14.628048 -32.87965,32.878096 V 46.49742 h 15.52722 V 27.180254 a 17.350431,17.350431 0 0 1 0,-0.162264 17.350431,17.350431 0 0 1 17.19688,-17.3503644 17.350431,17.350431 0 0 1 0.15348,0 17.350431,17.350431 0 0 1 17.35191,17.3503644 17.350431,17.350431 0 0 1 -0.002,0.162264 h 0.002 V 46.49742 h 15.52567 V 16.882692 Z" />
        </g>
      </g>
      <path
         sodipodi:nodetypes="scccccscs"
         inkscape:connector-curvature="0"
         d="m 78.56268,752.80282 c 7.857122,-0.30702 16.624542,6.69917 17.401496,13.64142 l 6.134194,-2.54248 -6.450904,20.88663 -13.134787,-12.77304 6.663153,-2.75986 c 0.58144,-6.88151 -13.262904,-8.15413 -14.658651,-8.0743 -1.485751,0.0849 -9.639742,-0.0598 -18.715177,8.02754 7.077459,-14.15903 12.946643,-16.02249 22.760676,-16.40591 z"
         id="path5203-4"
         style="font-style:italic;font-variant:normal;font-weight:normal;font-stretch:normal;font-size:medium;line-height:30.5494px;font-family:'Archivo Narrow';-inkscape-font-specification:'Archivo Narrow Italic';text-align:center;letter-spacing:0px;word-spacing:0px;writing-mode:lr-tb;text-anchor:middle;fill:#000000;fill-opacity:1;stroke:none;stroke-width:0.432849;stroke-linecap:butt;stroke-linejoin:miter;stroke-opacity:1" />
      <path
         sodipodi:nodetypes="scccccscs"
         inkscape:connector-curvature="0"
         d="m 150.94953,770.23706 c 7.50993,-2.33013 17.79194,2.16815 20.3392,8.67276 l 5.26714,-4.04349 -0.82524,21.84455 -15.99313,-8.93828 5.72181,-4.39037 c -1.21944,-6.79751 -14.92143,-4.44359 -16.24895,-4.00523 -1.41316,0.46654 -9.32676,2.43718 -15.9998,12.59785 3.17167,-15.50836 8.35857,-18.82738 17.73897,-21.73779 z"
         id="path105"
         style="font-style:italic;font-variant:normal;font-weight:normal;font-stretch:normal;font-size:medium;line-height:30.5494px;font-family:'Archivo Narrow';-inkscape-font-specification:'Archivo Narrow Italic';text-align:center;letter-spacing:0px;word-spacing:0px;writing-mode:lr-tb;text-anchor:middle;fill:#000000;fill-opacity:1;stroke:none;stroke-width:0.432849;stroke-linecap:butt;stroke-linejoin:miter;stroke-opacity:1" />
      <path
         sodipodi:nodetypes="scccccscs"
         inkscape:connector-curvature="0"
         d="m 212.66998,814.45561 c 6.95797,3.66267 11.04768,14.11392 8.24941,20.51456 l 6.58361,0.86525 -16.02996,14.86289 -4.98853,-17.62916 7.15039,0.94147 c 3.94429,-5.66884 -7.40895,-13.69314 -8.65762,-14.32187 -1.32915,-0.66936 -8.31836,-4.87167 -20.22159,-2.40554 13.20878,-8.72336 19.22337,-7.40257 27.91429,-2.8276 z"
         id="path107"
         style="font-style:italic;font-variant:normal;font-weight:normal;font-stretch:normal;font-size:medium;line-height:30.5494px;font-family:'Archivo Narrow';-inkscape-font-specification:'Archivo Narrow Italic';text-align:center;letter-spacing:0px;word-spacing:0px;writing-mode:lr-tb;text-anchor:middle;fill:#000000;fill-opacity:1;stroke:none;stroke-width:0.432849;stroke-linecap:butt;stroke-linejoin:miter;stroke-opacity:1" />
      <path
         sodipodi:nodetypes="scccccscs"
         inkscape:connector-curvature="0"
         d="m 264.09855,870.88418 c 6.95797,3.66267 11.04768,14.11392 8.24941,20.51456 l 6.58361,0.86525 -16.02996,14.86289 -4.98853,-17.62916 7.15039,0.94147 c 3.94429,-5.66884 -7.40895,-13.69314 -8.65762,-14.32187 -1.32915,-0.66936 -8.31836,-4.87167 -20.22159,-2.40554 13.20878,-8.72336 19.22337,-7.40257 27.91429,-2.8276 z"
         id="path109"
         style="font-style:italic;font-variant:normal;font-weight:normal;font-stretch:normal;font-size:medium;line-height:30.5494px;font-family:'Archivo Narrow';-inkscape-font-specification:'Archivo Narrow Italic';text-align:center;letter-spacing:0px;word-spacing:0px;writing-mode:lr-tb;text-anchor:middle;fill:#000000;fill-opacity:1;stroke:none;stroke-width:0.432849;stroke-linecap:butt;stroke-linejoin:miter;stroke-opacity:1" />
    </g>
  </g>
</svg>
