<?xml version="1.0" encoding="UTF-8" standalone="no"?>
<svg
   xmlns:dc="http://purl.org/dc/elements/1.1/"
   xmlns:cc="http://creativecommons.org/ns#"
   xmlns:rdf="http://www.w3.org/1999/02/22-rdf-syntax-ns#"
   xmlns:svg="http://www.w3.org/2000/svg"
   xmlns="http://www.w3.org/2000/svg"
   xmlns:sodipodi="http://sodipodi.sourceforge.net/DTD/sodipodi-0.dtd"
   xmlns:inkscape="http://www.inkscape.org/namespaces/inkscape"
   width="450"
   height="325"
   viewBox="0 0 450.00001 325"
   id="svg5199"
   version="1.1"
   inkscape:version="1.0.1 (3bc2e813f5, 2020-09-07)"
   sodipodi:docname="shut-the-gate.svg">
  <defs
     id="defs5201" />
  <sodipodi:namedview
     id="base"
     pagecolor="#ffffff"
     bordercolor="#666666"
     borderopacity="1.0"
     inkscape:pageopacity="0.0"
     inkscape:pageshadow="2"
     inkscape:zoom="1.4"
     inkscape:cx="249.98535"
     inkscape:cy="59.641378"
     inkscape:document-units="px"
     inkscape:current-layer="layer1"
     showgrid="false"
     units="px"
     borderlayer="true"
     inkscape:window-width="1920"
     inkscape:window-height="1017"
     inkscape:window-x="-8"
     inkscape:window-y="-8"
     inkscape:window-maximized="1"
     inkscape:document-rotation="0"
     inkscape:snap-global="false" />
  <metadata
     id="metadata5204">
    <rdf:RDF>
      <cc:Work
         rdf:about="">
        <dc:format>image/svg+xml</dc:format>
        <dc:type
           rdf:resource="http://purl.org/dc/dcmitype/StillImage" />
        <dc:title />
      </cc:Work>
    </rdf:RDF>
  </metadata>
  <g
     inkscape:label="Layer 1"
     inkscape:groupmode="layer"
     id="layer1"
     transform="translate(0,-727.36216)">
    <g
       id="g51"
       transform="translate(-21.548256,6.7183712)">
      <g
         id="g879"
         transform="matrix(1.3851385,0.29866893,-0.29891274,1.3862692,1023.9086,-242.0288)"
         style="stroke-width:0.634883">
        <path
           transform="matrix(2.7483711,1.5875102,-1.5868525,2.7497865,381.28225,-2769.2831)"
           inkscape:randomized="0"
           inkscape:rounded="0"
           inkscape:flatsided="true"
           sodipodi:arg2="-0.52359878"
           sodipodi:arg1="-1.0471976"
           sodipodi:r2="9.6671848"
           sodipodi:r1="11.162703"
           sodipodi:cy="1102.7913"
           sodipodi:cx="389.90088"
           sodipodi:sides="6"
           id="path44"
           style="font-style:normal;font-weight:normal;font-size:medium;line-height:125%;font-family:sans-serif;font-variation-settings:normal;letter-spacing:0px;word-spacing:0px;vector-effect:none;fill:#b3b3b3;fill-opacity:1;stroke:#000000;stroke-width:0.533342;stroke-linecap:butt;stroke-linejoin:round;stroke-miterlimit:4;stroke-dasharray:none;stroke-dashoffset:0;stroke-opacity:1;stop-color:#000000"
           sodipodi:type="star"
           d="m 395.48223,1093.1241 5.58135,9.6672 -5.58135,9.6671 -11.1627,0 -5.58135,-9.6671 5.58135,-9.6672 z" />
        <path
           style="fill:#000000;fill-opacity:1;stroke:none;stroke-width:6.34883;stroke-linecap:round;stroke-linejoin:round;stroke-miterlimit:4;stroke-dasharray:none;stroke-dashoffset:0;stroke-opacity:1"
           d="m -298.56683,862.16157 c -0.57445,0.0155 -1.45798,0.26079 -1.3652,0.6181 0.29947,0.31931 0.48157,0.77445 0.69467,1.18379 0.47529,0.91287 0.8406,1.94117 1.13343,3.15902 0.27006,0.19018 0.36752,0.16183 0.76389,0.0726 0.26462,-0.0595 0.49282,-0.0943 0.57641,-0.30031 0.11885,-0.3362 0.19817,-0.66608 0.2916,-1.00507 0.10364,-0.37603 0.22434,-0.76206 0.4347,-1.14953 0.43389,-0.79912 0.87718,-1.46208 1.11526,-2.08676 0.0878,-0.25751 -0.59517,-0.36485 -0.87073,-0.36614 -0.58997,-0.003 -1.34075,0.0175 -2.4415,-0.0988 -0.0837,-0.0224 -0.19999,-0.0305 -0.33253,-0.0269 z m -2.04512,0.35473 c -0.0669,-0.007 -0.13309,0.006 -0.19281,0.0377 -0.79752,0.43289 -1.57974,0.10496 -2.17273,0.66377 -0.19787,0.18647 -0.25115,0.49612 -0.0625,0.69201 1.14731,1.19173 1.2181,1.57853 2.25136,3.50165 0.75697,0.53447 1.59926,0.12489 1.83278,0.0255 0.24857,-0.1097 0.43116,-0.3374 0.35273,-0.59793 -0.15207,-1.68318 -0.84283,-2.50895 -1.60437,-3.93164 -0.003,-0.20403 -0.20329,-0.37314 -0.40377,-0.39034 v -6e-4 z m 6.20516,0.18879 c -0.20047,0.0172 -0.40019,0.18696 -0.40377,0.39102 -0.76154,1.42268 -1.45226,2.24846 -1.60437,3.93163 -0.0784,0.26053 0.10342,0.48816 0.35206,0.59795 1.25858,0.55578 0.83028,0.16871 1.38736,0.25865 0.26825,0.0433 0.45844,-0.0446 0.58719,-0.28418 1.03326,-1.92314 1.10401,-2.30994 2.25134,-3.50166 0.18857,-0.19587 0.13532,-0.50554 -0.0625,-0.692 -0.593,-0.55886 -1.51636,-0.23088 -2.31384,-0.66378 -0.0596,-0.0325 -0.12669,-0.0434 -0.1935,-0.0377 z m -9.5113,0.8949 c -0.0668,0.007 -0.13085,0.0284 -0.18406,0.0705 -0.71136,0.56376 -1.67775,0.39879 -2.16604,1.05143 -0.16291,0.21774 -0.16715,0.539 0.0571,0.69267 1.38388,0.94834 1.72319,1.20139 2.81905,3.06226 0.83739,0.39617 1.73674,-0.17625 1.94971,-0.31442 0.22602,-0.15094 0.36648,-0.40718 0.24453,-0.65035 -0.43864,-1.63193 -1.26101,-2.32666 -2.25537,-3.59705 -0.0384,-0.20039 -0.26445,-0.33264 -0.46492,-0.31509 z m 12.77513,0.33728 c -0.20072,-0.0147 -0.42462,0.12086 -0.46021,0.32181 -0.97568,1.28483 -1.78755,1.99179 -2.20232,3.62997 -0.11841,0.24491 0.0254,0.49869 0.25395,0.64631 0.215,0.13504 1.12222,0.69394 1.95373,0.28553 1.32266,-1.7362 1.45375,-2.10664 2.77406,-3.10258 0.21702,-0.16369 0.2131,-0.47799 0.047,-0.69334 -0.49778,-0.64543 -1.4613,-0.46657 -2.18082,-1.01986 -0.0537,-0.0415 -0.11854,-0.063 -0.18541,-0.0678 z m -15.83672,1.2738 c -0.10255,0.003 -0.20155,0.041 -0.26872,0.11758 -0.59816,0.68305 -1.57821,0.69615 -1.94097,1.42633 -0.12102,0.24363 -0.0656,0.55595 0.18073,0.67049 1.5169,0.70515 2.12104,0.87923 3.44924,2.47776 0.895,0.23841 1.55143,-0.46253 1.73605,-0.6369 0.19514,-0.18932 0.28667,-0.46613 0.12293,-0.68327 -0.72528,-1.52591 -1.65862,-2.06089 -2.86541,-3.13079 -0.0616,-0.15846 -0.2429,-0.24707 -0.41385,-0.2412 z m 18.85935,0.4535 c -0.17093,-0.007 -0.35221,0.0827 -0.41385,0.24119 -1.2068,1.0699 -2.1401,1.60419 -2.86543,3.13013 -0.16373,0.21715 -0.0722,0.49463 0.12295,0.68393 0.18458,0.17438 0.966,0.90017 1.86102,0.66177 1.63489,-1.44494 1.83557,-2.06682 3.32426,-2.78614 0.24468,-0.11824 0.30177,-0.42689 0.18074,-0.6705 -0.36274,-0.73017 -1.34282,-0.45978 -1.94097,-1.14281 -0.0673,-0.0767 -0.16611,-0.11404 -0.26872,-0.11757 z m -21.47216,1.75553 c -0.17102,-0.0118 -0.35447,0.0702 -0.41989,0.22709 -0.3495,0.83844 -1.08129,1.09851 -1.38736,1.85429 -0.10211,0.25216 -0.0237,0.56112 0.23112,0.65504 0.46565,0.17146 2.64004,1.03607 3.07034,1.27248 0.45079,0.24767 0.2908,0.28176 1.05345,0.59793 0.24716,0.10255 0.46644,0.0921 0.60331,-0.0323 0.46537,-0.42255 0.80355,-0.82483 1.06621,-1.21805 0.1247,-0.24177 -0.0935,-0.44915 -0.31777,-0.60265 -1.1732,-1.21447 -2.14897,-1.99972 -3.63333,-2.62825 -0.0654,-0.0783 -0.16343,-0.11863 -0.26608,-0.12563 z m 24.70639,0.0269 c -0.10265,0.008 -0.2007,0.0474 -0.26603,0.12564 -1.48443,0.62857 -2.7624,1.71603 -3.93566,2.93058 -0.46981,0.345 0.55677,1.98433 1.45254,1.90872 1.2929,-0.9132 2.71125,-1.48535 4.42474,-2.11632 0.255,-0.094 0.33325,-0.40287 0.23113,-0.65504 -0.30609,-0.75577 -1.13732,-1.12872 -1.48681,-1.96716 -0.0654,-0.15695 -0.24887,-0.2381 -0.4199,-0.22642 z m -13.30183,0.62012 c -0.69619,0.0414 -1.36885,0.13762 -2.01083,0.28688 v 2.30509 h -2.14721 v -1.56808 c -0.7362,0.34195 -1.41103,0.75763 -2.01084,1.23619 v 0.33189 h -0.39032 c -0.66836,0.59709 -1.22967,1.27529 -1.66281,2.01419 h 2.05313 v 2.5987 h -3.8799 c -0.0832,0.69946 0.17881,1.45292 0.31175,2.18618 h 3.56815 v 2.21977 h -3.47813 c -0.14464,0.77201 -0.0309,1.4796 0.086,2.18619 h 3.39214 v 2.06457 h -3.14626 c -0.14241,0.75714 -0.0919,1.47583 0,2.18616 h 3.14626 v 1.7555 h -3.18187 c -0.15984,0.72871 0.19835,1.45755 0.30168,2.18626 h 2.88019 v 1.98527 h -2.9064 c 0,0 -0.46248,0.16456 -0.47769,0.24793 l 0.10684,1.76629 h 3.27723 v 2.63489 l 0.89829,2.82247 c -4.21529,-0.30708 -8.46666,0.39377 -12.87657,-0.21302 -0.0269,0 -0.0538,-0.0111 -0.08,-0.0111 -0.39498,0 -0.70678,0.3853 -0.70678,0.79482 v 0.68941 c 0,0.43682 0.35227,0.75062 0.78676,0.78864 2.51845,0.2206 4.99053,0.40398 7.43126,0.44408 7.22867,0.14078 16.03601,0.10905 24.29723,-0.0319 2.58346,-0.054 4.13112,-0.35707 6.75609,-0.41181 0.436,-0.0111 0.78739,-0.35194 0.78739,-0.78876 v -0.68941 c 0,-0.43683 -0.35225,-0.8175 -0.78739,-0.78875 -1.64513,0.10905 -3.29444,0.31525 -4.95082,0.27217 -2.61655,-0.0683 -5.29994,0 -8.01243,0.076 l 0.94194,-2.95806 v -2.635 h 2.97491 l -0.0867,-1.42637 c 0,-0.19055 -0.0272,-0.38662 -0.0772,-0.58784 h -2.811 v -1.98527 h 3.16571 c 0.16288,-0.938 0.30764,-1.85011 0.0531,-2.18616 h -3.21879 v -1.75561 h 3.04144 c 0.13732,-0.71726 0.4019,-1.42394 0,-2.18615 h -3.04144 v -2.06457 h 3.07705 c 0.13487,-0.73013 0.26345,-1.43726 0.19482,-2.18618 h -3.27187 v -2.21977 h 3.29 c 0.0865,-0.72089 0.23766,-1.43363 0.0706,-2.18618 h -3.36055 v -2.5987 h 1.53448 c -0.89776,-1.01913 -2.16115,-2.01887 -3.54531,-2.82645 v 0.81226 h -2.14721 v -1.86307 c -0.68058,-0.27002 -1.35899,-0.47568 -2.01083,-0.60399 v 2.46701 h -2.14723 v -2.59197 z m 15.77556,2.2547 c -0.0673,0.002 -0.13253,0.0215 -0.18808,0.0605 -1.38637,0.49563 -2.85109,1.28126 -4.55848,1.81129 -0.25634,0.0901 -0.33274,0.37173 -0.27478,0.63758 0.2936,1.34599 0.6833,1.19343 0.76121,1.73403 0.0389,0.26931 0.4146,0.43187 0.63689,0.27545 1.29179,-0.90902 2.55986,-1.64904 4.55778,-1.81062 0.27075,-0.0219 0.36022,-0.37905 0.27546,-0.63757 -0.25412,-0.77486 -0.64094,-0.83356 -0.76185,-1.73404 -0.0272,-0.20226 -0.24633,-0.34431 -0.44815,-0.3366 z m -29.67198,0.0269 c -0.2018,-0.008 -0.42161,0.13433 -0.44878,0.33659 -0.12092,0.90047 -0.48221,0.85906 -0.73634,1.63392 -0.0848,0.25853 0.0141,0.56126 0.27477,0.63759 1.75236,0.51297 3.26912,0.8625 4.62096,1.68565 0.23215,0.14135 0.59742,-0.008 0.63622,-0.27613 0.078,-0.5406 0.38093,-0.16231 0.67453,-1.50829 0.0579,-0.26584 -0.0189,-0.54744 -0.27544,-0.63758 -1.4471,-0.86902 -2.96157,-1.58896 -4.55779,-1.81129 -0.0554,-0.0391 -0.12084,-0.0579 -0.18813,-0.0605 z m 9.73838,2.32457 h 2.14721 v 2.5987 h -2.14721 z m 4.15804,0 h 2.14722 v 2.5987 h -2.14722 z m 4.15805,0 h 2.14722 v 2.5987 h -2.14722 z m 12.92294,0.48843 c -0.0674,0.001 -0.13296,0.0187 -0.18947,0.0564 -1.60134,0.1819 -3.13425,0.8629 -4.60282,1.69507 -0.2585,0.0835 -0.31722,0.35936 -0.2909,0.63019 0.0742,0.7627 0.011,1.13916 -0.0806,1.6776 -0.0456,0.26822 0.2067,0.25854 0.47098,0.1955 1.53899,-0.36712 3.11849,-0.10838 4.94343,-0.0571 0.27155,0.008 0.45799,-0.2499 0.45685,-0.52202 -0.004,-0.81558 -0.1692,-2.42441 -0.26737,-3.32764 -0.022,-0.20289 -0.23812,-0.35064 -0.44007,-0.34803 z m -32.4951,0.15655 c -0.20146,0.011 -0.40703,0.17187 -0.41587,0.37556 -0.0394,0.90773 -0.10013,2.32406 -0.0511,3.13818 0.0162,0.27163 0.21995,0.51645 0.49046,0.49111 1.81767,-0.17024 3.34355,-0.26598 4.90311,0 0.26782,0.0456 0.55347,-0.22643 0.49045,-0.49111 -0.12651,-0.53129 -0.21454,-0.70275 -0.19012,-1.46865 0.009,-0.27199 -0.0677,-0.54346 -0.33122,-0.61003 -1.51952,-0.73465 -3.09317,-1.3143 -4.70292,-1.3914 -0.0587,-0.0339 -0.12511,-0.0469 -0.19215,-0.0436 v 0 z m 2.56241,4.13184 c -0.82384,-0.011 -1.6268,0.0438 -2.38842,0.19281 -0.26417,-0.0634 -0.43159,0.22548 -0.49045,0.49113 -0.18424,0.83122 -0.18561,1.55046 0,2.38169 0.0594,0.26557 0.2209,0.52453 0.49045,0.49044 1.82085,-0.23037 3.30865,-0.17602 4.9038,0 0.27003,0.0297 0.55348,-0.22574 0.49046,-0.49044 -0.12652,-0.53131 0.22249,-1.02211 0,-2.38169 -0.0441,-0.26855 -0.21898,-0.50199 -0.49046,-0.49113 -0.84657,-0.1086 -1.69154,-0.18272 -2.51538,-0.19281 z m 27.72971,0 c -0.82384,0.011 -1.6688,0.0843 -2.51538,0.19281 -0.27144,-0.011 -0.4465,0.22258 -0.49046,0.49113 -0.22246,1.35958 0.12652,1.96258 0,2.49388 -0.063,0.26468 0.21967,0.5132 0.49046,0.49112 1.61266,-0.13158 3.09871,-0.32852 4.90377,0 0.26727,0.0486 0.43114,-0.22556 0.49044,-0.49112 0.18562,-0.83122 0.18425,-1.66266 0,-2.49388 -0.0589,-0.26565 -0.22627,-0.55453 -0.49044,-0.49113 -0.76166,-0.14893 -1.56451,-0.20292 -2.38838,-0.19281 z m -19.03605,0.008 h 2.14721 v 2.21977 h -2.14721 z m 4.15804,0 h 2.14722 v 2.21977 h -2.14722 z m 4.15805,0 h 2.14722 v 2.21977 h -2.14722 z m 10.69307,3.67834 c -0.82385,0.011 -1.66881,0.085 -2.51539,0.1935 -0.27144,-0.011 -0.39408,0.23668 -0.49042,0.49111 -0.47625,1.25794 0.0439,1.76218 0,2.32658 -0.0209,0.27127 0.21959,0.46976 0.49042,0.49113 1.63825,0.12941 3.14329,0.33352 4.90381,0 0.26692,-0.0507 0.43114,-0.22558 0.49044,-0.49113 0.18562,-0.83116 0.18424,-1.49535 0,-2.32658 -0.0589,-0.26564 -0.22627,-0.55454 -0.49044,-0.49111 -0.76166,-0.14895 -1.56458,-0.20361 -2.38842,-0.1935 z m -27.62625,0.0631 c -0.82377,-0.011 -1.64297,0.0233 -2.43808,0.13033 -0.26419,-0.0634 -0.43161,0.22548 -0.49046,0.49112 -0.18424,0.83127 -0.18561,1.66265 0,2.49392 0.0593,0.26556 0.2197,0.46844 0.49046,0.49114 1.76057,0.14759 3.26488,0.10023 4.90311,0 0.27116,-0.0165 0.51219,-0.21986 0.4911,-0.49114 -0.0439,-0.56438 0.47625,-1.23594 0,-2.49392 -0.0962,-0.25444 -0.21963,-0.50202 -0.4911,-0.49112 -0.81339,-0.0671 -1.64125,-0.12034 -2.46503,-0.13033 z m 8.61709,0.66445 h 2.14721 v 2.06465 h -2.14721 z m 4.15804,0 h 2.14722 v 2.06465 h -2.14722 z m 4.15805,0 h 2.14722 v 2.06465 h -2.14722 z m 13.17958,3.01122 c -0.0324,0 -0.0651,1.2e-4 -0.0981,0.0111 -1.73911,0.41757 -3.24036,0.0672 -4.9038,0 -0.27144,-0.0111 -0.50662,0.21953 -0.49042,0.49115 0.0748,1.25796 0.13684,1.92886 0,2.49324 -0.064,0.26446 0.21888,0.48376 0.49042,0.49115 1.45446,0.0397 3.04791,0.22282 4.9038,0 0.26972,-0.032 0.44267,-0.22327 0.49046,-0.49115 0.14819,-0.83126 -0.0973,-1.66198 0,-2.49324 0.0275,-0.23648 -0.16645,-0.48354 -0.39235,-0.49919 v 0 z m -32.64965,0.14848 v 0 c -0.22589,0.0154 -0.41931,0.26337 -0.39165,0.49984 0.0973,0.83116 -0.14822,1.51153 0,2.34267 0.0478,0.26788 0.21905,0.47904 0.49044,0.49115 1.85591,0.0837 3.44869,-0.24386 4.90313,0 0.26796,0.0452 0.55522,-0.22668 0.4911,-0.49115 -0.13683,-0.56437 -0.0749,-1.08481 0,-2.34267 0.0162,-0.27162 -0.21963,-0.5027 -0.4911,-0.4918 -1.66344,0.0661 -3.164,0.41746 -4.90313,0 -0.033,-0.0111 -0.0664,-0.0111 -0.0988,-0.0111 z m 11.15398,1.0911 h 2.14721 v 1.7555 h -2.14721 z m 4.15804,0 h 2.14722 v 1.7555 h -2.14722 z m 4.15805,0 h 2.14722 v 1.7555 h -2.14722 z m -15.71176,2.37627 v 0 c -1.2186,0 -2.38013,0.19121 -3.65952,0.0782 -0.2706,-0.0242 -0.45085,0.22259 -0.49044,0.49179 -0.12229,0.83126 -0.35547,1.66199 0,2.49326 0.10695,0.25013 0.21887,0.4115 0.49044,0.40379 1.85591,-0.0529 3.87073,-0.21865 5.02806,0.0253 0.26583,0.0562 0.48574,-0.21908 0.49114,-0.49103 0.0117,-0.56448 0.13402,-1.17282 -0.12497,-2.43079 -0.055,-0.26644 -0.22201,-0.45446 -0.4911,-0.4918 -0.42531,-0.0595 -0.83744,-0.0793 -1.24361,-0.0782 z m 23.88943,0.0782 c -0.27119,-0.0165 -0.43555,0.22524 -0.49041,0.4918 -0.25899,1.25785 -0.0117,1.92875 0,2.49325 0.005,0.27205 0.21942,0.51019 0.49041,0.49102 1.45443,-0.10243 3.04791,-0.0529 4.9038,0 0.27155,0.0111 0.38352,-0.24089 0.49046,-0.49102 0.35547,-0.83127 0.12229,-1.66198 0,-2.49325 -0.0396,-0.26921 -0.22073,-0.52419 -0.49046,-0.4918 -1.70585,0.20476 -3.20255,0.10132 -4.9038,0 z m -16.49376,1.48674 h 2.14721 v 1.98536 h -2.14721 z m 4.15804,0 h 2.14722 v 1.98536 h -2.14722 z m 4.15805,0 h 2.14722 v 1.98536 h -2.14722 z m -15.71176,2.02435 c -1.2186,0 -2.38013,0.19187 -3.65952,0.0782 -0.2706,-0.0242 -0.45085,0.22194 -0.49044,0.49113 -0.12229,0.83127 -0.35547,1.51218 0,2.34345 0.10695,0.25015 0.22208,0.44884 0.49044,0.49102 1.85591,0.29233 3.44869,0.0364 4.90313,0 0.27157,-0.0111 0.4857,-0.21897 0.4911,-0.49102 0.0117,-0.5645 0.25899,-1.08549 0,-2.34345 -0.055,-0.26644 -0.22201,-0.45368 -0.4911,-0.49113 -0.42531,-0.0595 -0.83744,-0.0793 -1.24361,-0.0782 z m 23.88943,0.0782 c -0.27078,-0.0221 -0.43555,0.22469 -0.49041,0.49113 -0.25899,1.25796 -0.0117,1.92952 0,2.49392 0.005,0.27205 0.21884,0.4843 0.49041,0.49113 1.45443,0.0363 3.04791,0.29232 4.9038,0 0.26835,-0.0418 0.38352,-0.241 0.49046,-0.49113 0.35547,-0.83127 0.12229,-1.66265 0,-2.49392 -0.0396,-0.26919 -0.22056,-0.52218 -0.49046,-0.49113 -0.84808,0.098 -1.59951,0.0441 -2.39646,0.0375 -0.80906,-0.0111 -1.66368,0.0308 -2.50734,-0.0375 z m -16.49376,1.8967 h 2.14721 v 2.63488 l 0.96746,3.03882 c -1.33157,-0.0309 -2.66811,-0.0936 -4.00955,-0.20225 -0.003,0 -0.004,0 -0.008,0 l 0.90227,-2.83591 v -2.635 z m 4.15804,0 h 2.14722 v 2.63488 l 0.97082,3.04948 c -1.35457,0.0188 -2.7162,0.022 -4.08481,-0.0111 l 0.96677,-3.04011 v -2.63489 z m 4.15805,0 h 2.14722 v 2.63488 l 0.94193,2.96148 c -1.34677,0.0364 -2.69392,0.0672 -4.05864,0.087 l 0.96949,-3.04814 v -2.6349 z m -19.46804,1.6883 v 0 c -0.21478,0.0231 -0.35905,0.25896 -0.39368,0.49444 -0.12229,0.83127 -0.35547,1.66264 0,2.49392 0.10695,0.25013 0.22569,0.43022 0.49044,0.49115 1.42177,0.32757 3.11703,0.0297 4.90313,0 0.27164,0 0.4857,-0.2191 0.4911,-0.49115 0.0117,-0.56439 0.25899,-1.23595 0,-2.49392 -0.055,-0.26643 -0.22118,-0.52131 -0.4911,-0.49036 -1.56307,0.17899 -3.14219,0.31645 -4.90313,0 -0.0334,-0.0111 -0.0661,-0.0111 -0.0968,0 z m 32.64559,0.10024 c -0.0306,0 -0.0628,0 -0.096,0 -1.76093,0.31645 -3.34074,0.17897 -4.90381,0 -0.26992,-0.0308 -0.43556,0.22458 -0.49042,0.49102 -0.25898,1.25797 -0.0117,1.92953 0,2.49391 0.005,0.27206 0.22146,0.52946 0.49042,0.49112 1.63454,-0.23306 3.26926,-0.0418 4.90381,0 0.27157,0.0111 0.3835,-0.24099 0.49045,-0.49112 0.35547,-0.83117 0.12229,-1.66264 0,-2.49391 -0.0346,-0.23549 -0.17964,-0.47198 -0.39439,-0.4951 v 0 z"
           id="path875"
           inkscape:connector-curvature="0" />
      </g>
      <path
         transform="matrix(3.894367,2.2512949,-2.2485268,3.8995532,1128.8864,-4295.3792)"
         inkscape:randomized="0"
         inkscape:rounded="0"
         inkscape:flatsided="true"
         sodipodi:arg2="-0.52359878"
         sodipodi:arg1="-1.0471976"
         sodipodi:r2="9.6671848"
         sodipodi:r1="11.162703"
         sodipodi:cy="1102.7913"
         sodipodi:cx="389.90088"
         sodipodi:sides="6"
         id="path42"
         style="font-style:normal;font-weight:normal;font-size:medium;line-height:125%;font-family:sans-serif;font-variation-settings:normal;letter-spacing:0px;word-spacing:0px;vector-effect:none;fill:none;fill-opacity:1;stroke:#000000;stroke-width:0.533409;stroke-linecap:butt;stroke-linejoin:round;stroke-miterlimit:4;stroke-dasharray:0.533409, 1.06682;stroke-dashoffset:0;stroke-opacity:1;stop-color:#000000"
         sodipodi:type="star"
         d="m 395.48223,1093.1241 5.58135,9.6672 -5.58135,9.6671 -11.1627,0 -5.58135,-9.6671 5.58135,-9.6672 z" />
      <path
         transform="matrix(3.894367,2.2512949,-2.2485268,3.8995532,1176.2033,-4212.8288)"
         inkscape:randomized="0"
         inkscape:rounded="0"
         inkscape:flatsided="true"
         sodipodi:arg2="-0.52359878"
         sodipodi:arg1="-1.0471976"
         sodipodi:r2="9.6671848"
         sodipodi:r1="11.162703"
         sodipodi:cy="1102.7913"
         sodipodi:cx="389.90088"
         sodipodi:sides="6"
         id="path72"
         style="font-style:normal;font-weight:normal;font-size:medium;line-height:125%;font-family:sans-serif;letter-spacing:0px;word-spacing:0px;fill:#b3b3b3;fill-opacity:1;stroke:#000000;stroke-width:0.533342;stroke-linecap:butt;stroke-linejoin:round;stroke-miterlimit:4;stroke-dasharray:none;stroke-dashoffset:0;stroke-opacity:1"
         sodipodi:type="star"
         d="m 395.48223,1093.1241 5.58135,9.6672 -5.58135,9.6671 -11.1627,0 -5.58135,-9.6671 5.58135,-9.6672 z" />
      <path
         transform="matrix(3.894367,2.2512949,-2.2485268,3.8995532,1080.4431,-4378.5354)"
         inkscape:randomized="0"
         inkscape:rounded="0"
         inkscape:flatsided="true"
         sodipodi:arg2="-0.52359878"
         sodipodi:arg1="-1.0471976"
         sodipodi:r2="9.6671848"
         sodipodi:r1="11.162703"
         sodipodi:cy="1102.7913"
         sodipodi:cx="389.90088"
         sodipodi:sides="6"
         id="path90"
         style="font-style:normal;font-weight:normal;font-size:medium;line-height:125%;font-family:sans-serif;font-variation-settings:normal;letter-spacing:0px;word-spacing:0px;vector-effect:none;fill:#b3b3b3;fill-opacity:1;stroke:#000000;stroke-width:0.533342;stroke-linecap:butt;stroke-linejoin:round;stroke-miterlimit:4;stroke-dasharray:none;stroke-dashoffset:0;stroke-opacity:1;stop-color:#000000"
         sodipodi:type="star"
         d="m 395.48223,1093.1241 5.58135,9.6672 -5.58135,9.6671 -11.1627,0 -5.58135,-9.6671 5.58135,-9.6672 z" />
      <path
         sodipodi:nodetypes="scccccscs"
         inkscape:connector-curvature="0"
         d="m 236.32663,793.85472 c 22.88013,-8.4535 55.46387,3.81296 64.41805,23.56565 l 15.65302,-13.39939 1.01798,67.87021 -50.99996,-25.09979 17.00458,-14.54951 c -4.88937,-20.8781 -46.94496,-11.33793 -50.98521,-9.76163 -4.30068,1.6779 -28.49004,9.08266 -47.4968,41.68018 7.28654,-48.60682 22.80956,-59.74681 51.38834,-70.30572 z"
         id="path5102"
         style="fill:#000000;fill-opacity:1;stroke:none;stroke-width:0.899979;stroke-opacity:1" />
      <text
         xml:space="preserve"
         style="font-style:normal;font-variant:normal;font-weight:normal;font-stretch:normal;font-size:30.0955px;line-height:1.25;font-family:'Archivo Black';-inkscape-font-specification:'Archivo Black, ';letter-spacing:0px;word-spacing:0px;stroke-width:0.899979"
         x="267.97116"
         y="1017.7505"
         id="text899"><tspan
           sodipodi:role="line"
           id="tspan897"
           x="267.97116"
           y="1017.7505"
           style="stroke-width:0.899979">A </tspan></text>
      <g
         id="g910"
         transform="matrix(0.23316773,0,0,0.23316773,223.00091,769.60922)"
         style="fill:#000000;stroke-width:3.85978">
        <path
           id="path914"
           style="color:#000000;font-style:normal;font-variant:normal;font-weight:normal;font-stretch:normal;font-size:medium;line-height:normal;font-family:sans-serif;font-variant-ligatures:normal;font-variant-position:normal;font-variant-caps:normal;font-variant-numeric:normal;font-variant-alternates:normal;font-variant-east-asian:normal;font-feature-settings:normal;font-variation-settings:normal;text-indent:0;text-align:start;text-decoration:none;text-decoration-line:none;text-decoration-style:solid;text-decoration-color:#000000;letter-spacing:normal;word-spacing:normal;text-transform:none;writing-mode:lr-tb;direction:ltr;text-orientation:mixed;dominant-baseline:auto;baseline-shift:baseline;text-anchor:start;white-space:normal;shape-padding:0;shape-margin:0;inline-size:0;clip-rule:nonzero;display:inline;overflow:visible;visibility:visible;opacity:1;isolation:auto;mix-blend-mode:normal;color-interpolation:sRGB;color-interpolation-filters:linearRGB;solid-color:#000000;solid-opacity:1;vector-effect:none;fill:#000000;fill-opacity:1;fill-rule:nonzero;stroke:none;stroke-width:38.5978;stroke-linecap:round;stroke-linejoin:miter;stroke-miterlimit:4;stroke-dasharray:none;stroke-dashoffset:0;stroke-opacity:1;color-rendering:auto;image-rendering:auto;shape-rendering:auto;text-rendering:auto;enable-background:accumulate;stop-color:#000000;stop-opacity:1"
           d="m 341.6131,998.41716 a 5,5 0 0 0 -4.31641,2.50004 5,5 0 0 0 1.83008,6.83 l 12.29688,7.0997 h -49.91211 a 5,5 0 0 0 -5,5 5,5 0 0 0 5,5 h 49.91015 l -12.29492,7.0976 a 5,5 0 0 0 -1.83008,6.8301 5,5 0 0 0 6.83008,1.8301 l 28.45508,-16.4278 a 5,5 0 0 0 0.0117,-0.01 5,5 0 0 0 0.0137,-0.01 5,5 0 0 0 0.0156,-0.01 5,5 0 0 0 0.043,-0.025 5,5 0 0 0 0.0762,-0.047 5,5 0 0 0 0.0137,-0.01 5,5 0 0 0 0.0117,-0.01 5,5 0 0 0 0.13282,-0.088 5,5 0 0 0 0.0117,-0.01 5,5 0 0 0 0.0117,-0.01 5,5 0 0 0 0.1289,-0.094 5,5 0 0 0 0.0117,-0.01 5,5 0 0 0 0.0117,-0.01 5,5 0 0 0 0.0508,-0.039 5,5 0 0 0 0.0762,-0.059 5,5 0 0 0 0.0117,-0.01 5,5 0 0 0 0.01,-0.01 5,5 0 0 0 0.12304,-0.1015 5,5 0 0 0 0.0215,-0.018 5,5 0 0 0 0.11914,-0.1074 5,5 0 0 0 0.01,-0.01 5,5 0 0 0 0.01,-0.01 5,5 0 0 0 0.11523,-0.1114 5,5 0 0 0 0.01,-0.01 5,5 0 0 0 0.01,-0.01 5,5 0 0 0 0.10938,-0.1152 5,5 0 0 0 0.01,-0.012 5,5 0 0 0 0.006,-0.01 5,5 0 0 0 0.004,0 5,5 0 0 0 0.10547,-0.1192 5,5 0 0 0 0.0195,-0.022 5,5 0 0 0 0.10156,-0.123 5,5 0 0 0 0.008,-0.012 5,5 0 0 0 0.01,-0.012 5,5 0 0 0 0.0723,-0.096 5,5 0 0 0 0.0332,-0.043 5,5 0 0 0 0.008,-0.012 5,5 0 0 0 0.0918,-0.1309 5,5 0 0 0 0.008,-0.012 5,5 0 0 0 0.008,-0.012 5,5 0 0 0 0.0859,-0.1328 5,5 0 0 0 0.008,-0.014 5,5 0 0 0 0.004,-0.01 5,5 0 0 0 0.004,-0.01 5,5 0 0 0 0.0742,-0.123 5,5 0 0 0 0.008,-0.014 5,5 0 0 0 0.006,-0.012 5,5 0 0 0 0.0391,-0.07 5,5 0 0 0 0.0391,-0.07 5,5 0 0 0 0.006,-0.012 5,5 0 0 0 0.006,-0.014 5,5 0 0 0 0.0723,-0.1426 5,5 0 0 0 0.006,-0.012 5,5 0 0 0 0.006,-0.012 5,5 0 0 0 0.0664,-0.1445 5,5 0 0 0 0.006,-0.014 5,5 0 0 0 0.002,0 5,5 0 0 0 0.004,-0.01 5,5 0 0 0 0.0254,-0.062 5,5 0 0 0 0.0352,-0.084 5,5 0 0 0 0.004,-0.014 5,5 0 0 0 0.006,-0.014 5,5 0 0 0 0.0547,-0.1485 5,5 0 0 0 0.006,-0.014 5,5 0 0 0 0.004,-0.014 5,5 0 0 0 0.0137,-0.041 5,5 0 0 0 0.0117,-0.037 5,5 0 0 0 0.0234,-0.074 5,5 0 0 0 0.004,-0.014 5,5 0 0 0 0.004,-0.014 5,5 0 0 0 0.004,-0.014 5,5 0 0 0 0.041,-0.1386 5,5 0 0 0 0.004,-0.016 5,5 0 0 0 0.002,-0.01 5,5 0 0 0 0.041,-0.1719 5,5 0 0 0 0.002,-0.01 5,5 0 0 0 0.002,-0.01 5,5 0 0 0 0.0312,-0.1563 5,5 0 0 0 0.004,-0.014 5,5 0 0 0 0.002,-0.016 5,5 0 0 0 0.0234,-0.1406 5,5 0 0 0 0.002,-0.016 5,5 0 0 0 0.002,-0.014 5,5 0 0 0 0.002,-0.016 5,5 0 0 0 0.0215,-0.1719 5,5 0 0 0 0.002,-0.014 5,5 0 0 0 0.0137,-0.1582 5,5 0 0 0 0.002,-0.029 5,5 0 0 0 0.01,-0.1738 5,5 0 0 0 0,-0.014 5,5 0 0 0 0,-0.047 5,5 0 0 0 0.002,-0.098 5,5 0 0 0 0,-0.016 5,5 0 0 0 0,-0.014 5,5 0 0 0 -0.004,-0.1601 5,5 0 0 0 0,-0.014 5,5 0 0 0 0,-0.014 5,5 0 0 0 -0.004,-0.055 5,5 0 0 0 -0.004,-0.084 5,5 0 0 0 -0.002,-0.021 5,5 0 0 0 -0.002,-0.014 5,5 0 0 0 -0.01,-0.1075 5,5 0 0 0 -0.006,-0.066 5,5 0 0 0 -0.002,-0.014 5,5 0 0 0 -0.002,-0.014 5,5 0 0 0 -0.0137,-0.094 5,5 0 0 0 -0.008,-0.064 5,5 0 0 0 -0.002,-0.012 5,5 0 0 0 -0.002,-0.016 5,5 0 0 0 -0.004,-0.018 5,5 0 0 0 -0.01,-0.061 5,5 0 0 0 -0.0137,-0.078 5,5 0 0 0 -0.004,-0.014 5,5 0 0 0 -0.002,-0.014 5,5 0 0 0 -0.0332,-0.1562 5,5 0 0 0 -0.0332,-0.1387 5,5 0 0 0 -0.0117,-0.045 5,5 0 0 0 -0.004,-0.012 5,5 0 0 0 -0.004,-0.014 5,5 0 0 0 -0.0449,-0.1523 5,5 0 0 0 -0.004,-0.014 5,5 0 0 0 -0.004,-0.014 5,5 0 0 0 -0.043,-0.127 5,5 0 0 0 -0.008,-0.023 5,5 0 0 0 -0.01,-0.027 5,5 0 0 0 -0.0566,-0.1504 5,5 0 0 0 -0.006,-0.012 5,5 0 0 0 -0.0645,-0.1562 5,5 0 0 0 -0.002,0 5,5 0 0 0 -0.006,-0.014 5,5 0 0 0 -0.006,-0.014 5,5 0 0 0 -0.008,-0.018 5,5 0 0 0 -0.0664,-0.1407 5,5 0 0 0 -0.006,-0.012 5,5 0 0 0 -0.0664,-0.1308 5,5 0 0 0 -0.0117,-0.023 5,5 0 0 0 -0.008,-0.014 5,5 0 0 0 -0.0352,-0.062 5,5 0 0 0 -0.0352,-0.062 5,5 0 0 0 -0.008,-0.014 5,5 0 0 0 -0.006,-0.012 5,5 0 0 0 -0.0371,-0.061 5,5 0 0 0 -0.0469,-0.076 5,5 0 0 0 -0.008,-0.012 5,5 0 0 0 -0.008,-0.012 5,5 0 0 0 -0.004,-0.01 5,5 0 0 0 -0.0918,-0.1387 5,5 0 0 0 -0.006,-0.01 5,5 0 0 0 -0.002,0 5,5 0 0 0 -0.0918,-0.1289 5,5 0 0 0 -0.01,-0.012 5,5 0 0 0 -0.004,-0.01 5,5 0 0 0 -0.004,-0.01 5,5 0 0 0 -0.0977,-0.125 5,5 0 0 0 -0.008,-0.012 5,5 0 0 0 -0.01,-0.012 5,5 0 0 0 -0.10156,-0.1211 5,5 0 0 0 -0.01,-0.012 5,5 0 0 0 -0.01,-0.01 5,5 0 0 0 -0.0586,-0.064 5,5 0 0 0 -0.0488,-0.055 5,5 0 0 0 -0.01,-0.01 5,5 0 0 0 -0.002,0 5,5 0 0 0 -0.008,-0.01 5,5 0 0 0 -0.0371,-0.037 5,5 0 0 0 -0.084,-0.086 5,5 0 0 0 -0.006,-0.01 5,5 0 0 0 -0.004,0 5,5 0 0 0 -0.11523,-0.1094 5,5 0 0 0 -0.01,-0.01 5,5 0 0 0 -0.0117,-0.01 5,5 0 0 0 -0.11914,-0.1054 5,5 0 0 0 -0.01,-0.01 5,5 0 0 0 -0.0117,-0.01 5,5 0 0 0 -0.0176,-0.014 5,5 0 0 0 -0.10547,-0.086 5,5 0 0 0 -0.0117,-0.01 5,5 0 0 0 -0.0117,-0.01 5,5 0 0 0 -0.0723,-0.057 5,5 0 0 0 -0.0645,-0.049 5,5 0 0 0 -0.0117,-0.01 5,5 0 0 0 -0.13086,-0.092 5,5 0 0 0 -0.0117,-0.01 5,5 0 0 0 -0.0117,-0.01 5,5 0 0 0 -0.0117,-0.01 5,5 0 0 0 -0.12304,-0.08 5,5 0 0 0 -0.0117,-0.01 5,5 0 0 0 -0.0117,-0.01 5,5 0 0 0 -0.125,-0.074 l -0.0117,-0.01 a 5,5 0 0 0 -0.0137,-0.01 5,5 0 0 0 -0.0332,-0.018 l -28.39648,-16.38691 a 5,5 0 0 0 -2.51367,-0.66993 z" />
      </g>
      <g
         id="g927"
         transform="matrix(0.23316773,0,0,0.23316773,265.94045,769.60922)"
         style="fill:#000000;stroke-width:3.85978">
        <path
           id="path925"
           style="color:#000000;font-style:normal;font-variant:normal;font-weight:normal;font-stretch:normal;font-size:medium;line-height:normal;font-family:sans-serif;font-variant-ligatures:normal;font-variant-position:normal;font-variant-caps:normal;font-variant-numeric:normal;font-variant-alternates:normal;font-variant-east-asian:normal;font-feature-settings:normal;font-variation-settings:normal;text-indent:0;text-align:start;text-decoration:none;text-decoration-line:none;text-decoration-style:solid;text-decoration-color:#000000;letter-spacing:normal;word-spacing:normal;text-transform:none;writing-mode:lr-tb;direction:ltr;text-orientation:mixed;dominant-baseline:auto;baseline-shift:baseline;text-anchor:start;white-space:normal;shape-padding:0;shape-margin:0;inline-size:0;clip-rule:nonzero;display:inline;overflow:visible;visibility:visible;opacity:1;isolation:auto;mix-blend-mode:normal;color-interpolation:sRGB;color-interpolation-filters:linearRGB;solid-color:#000000;solid-opacity:1;vector-effect:none;fill:#000000;fill-opacity:1;fill-rule:nonzero;stroke:none;stroke-width:38.5978;stroke-linecap:round;stroke-linejoin:miter;stroke-miterlimit:4;stroke-dasharray:none;stroke-dashoffset:0;stroke-opacity:1;color-rendering:auto;image-rendering:auto;shape-rendering:auto;text-rendering:auto;enable-background:accumulate;stop-color:#000000;stop-opacity:1"
           d="m 341.6131,998.41716 a 5,5 0 0 0 -4.31641,2.50004 5,5 0 0 0 1.83008,6.83 l 12.29688,7.0997 h -49.91211 a 5,5 0 0 0 -5,5 5,5 0 0 0 5,5 h 49.91015 l -12.29492,7.0976 a 5,5 0 0 0 -1.83008,6.8301 5,5 0 0 0 6.83008,1.8301 l 28.45508,-16.4278 a 5,5 0 0 0 0.0117,-0.01 5,5 0 0 0 0.0137,-0.01 5,5 0 0 0 0.0156,-0.01 5,5 0 0 0 0.043,-0.025 5,5 0 0 0 0.0762,-0.047 5,5 0 0 0 0.0137,-0.01 5,5 0 0 0 0.0117,-0.01 5,5 0 0 0 0.13282,-0.088 5,5 0 0 0 0.0117,-0.01 5,5 0 0 0 0.0117,-0.01 5,5 0 0 0 0.1289,-0.094 5,5 0 0 0 0.0117,-0.01 5,5 0 0 0 0.0117,-0.01 5,5 0 0 0 0.0508,-0.039 5,5 0 0 0 0.0762,-0.059 5,5 0 0 0 0.0117,-0.01 5,5 0 0 0 0.01,-0.01 5,5 0 0 0 0.12304,-0.1015 5,5 0 0 0 0.0215,-0.018 5,5 0 0 0 0.11914,-0.1074 5,5 0 0 0 0.01,-0.01 5,5 0 0 0 0.01,-0.01 5,5 0 0 0 0.11523,-0.1114 5,5 0 0 0 0.01,-0.01 5,5 0 0 0 0.01,-0.01 5,5 0 0 0 0.10938,-0.1152 5,5 0 0 0 0.01,-0.012 5,5 0 0 0 0.006,-0.01 5,5 0 0 0 0.004,0 5,5 0 0 0 0.10547,-0.1192 5,5 0 0 0 0.0195,-0.022 5,5 0 0 0 0.10156,-0.123 5,5 0 0 0 0.008,-0.012 5,5 0 0 0 0.01,-0.012 5,5 0 0 0 0.0723,-0.096 5,5 0 0 0 0.0332,-0.043 5,5 0 0 0 0.008,-0.012 5,5 0 0 0 0.0918,-0.1309 5,5 0 0 0 0.008,-0.012 5,5 0 0 0 0.008,-0.012 5,5 0 0 0 0.0859,-0.1328 5,5 0 0 0 0.008,-0.014 5,5 0 0 0 0.004,-0.01 5,5 0 0 0 0.004,-0.01 5,5 0 0 0 0.0742,-0.123 5,5 0 0 0 0.008,-0.014 5,5 0 0 0 0.006,-0.012 5,5 0 0 0 0.0391,-0.07 5,5 0 0 0 0.0391,-0.07 5,5 0 0 0 0.006,-0.012 5,5 0 0 0 0.006,-0.014 5,5 0 0 0 0.0723,-0.1426 5,5 0 0 0 0.006,-0.012 5,5 0 0 0 0.006,-0.012 5,5 0 0 0 0.0664,-0.1445 5,5 0 0 0 0.006,-0.014 5,5 0 0 0 0.002,0 5,5 0 0 0 0.004,-0.01 5,5 0 0 0 0.0254,-0.062 5,5 0 0 0 0.0352,-0.084 5,5 0 0 0 0.004,-0.014 5,5 0 0 0 0.006,-0.014 5,5 0 0 0 0.0547,-0.1485 5,5 0 0 0 0.006,-0.014 5,5 0 0 0 0.004,-0.014 5,5 0 0 0 0.0137,-0.041 5,5 0 0 0 0.0117,-0.037 5,5 0 0 0 0.0234,-0.074 5,5 0 0 0 0.004,-0.014 5,5 0 0 0 0.004,-0.014 5,5 0 0 0 0.004,-0.014 5,5 0 0 0 0.041,-0.1386 5,5 0 0 0 0.004,-0.016 5,5 0 0 0 0.002,-0.01 5,5 0 0 0 0.041,-0.1719 5,5 0 0 0 0.002,-0.01 5,5 0 0 0 0.002,-0.01 5,5 0 0 0 0.0312,-0.1563 5,5 0 0 0 0.004,-0.014 5,5 0 0 0 0.002,-0.016 5,5 0 0 0 0.0234,-0.1406 5,5 0 0 0 0.002,-0.016 5,5 0 0 0 0.002,-0.014 5,5 0 0 0 0.002,-0.016 5,5 0 0 0 0.0215,-0.1719 5,5 0 0 0 0.002,-0.014 5,5 0 0 0 0.0137,-0.1582 5,5 0 0 0 0.002,-0.029 5,5 0 0 0 0.01,-0.1738 5,5 0 0 0 0,-0.014 5,5 0 0 0 0,-0.047 5,5 0 0 0 0.002,-0.098 5,5 0 0 0 0,-0.016 5,5 0 0 0 0,-0.014 5,5 0 0 0 -0.004,-0.1601 5,5 0 0 0 0,-0.014 5,5 0 0 0 0,-0.014 5,5 0 0 0 -0.004,-0.055 5,5 0 0 0 -0.004,-0.084 5,5 0 0 0 -0.002,-0.021 5,5 0 0 0 -0.002,-0.014 5,5 0 0 0 -0.01,-0.1075 5,5 0 0 0 -0.006,-0.066 5,5 0 0 0 -0.002,-0.014 5,5 0 0 0 -0.002,-0.014 5,5 0 0 0 -0.0137,-0.094 5,5 0 0 0 -0.008,-0.064 5,5 0 0 0 -0.002,-0.012 5,5 0 0 0 -0.002,-0.016 5,5 0 0 0 -0.004,-0.018 5,5 0 0 0 -0.01,-0.061 5,5 0 0 0 -0.0137,-0.078 5,5 0 0 0 -0.004,-0.014 5,5 0 0 0 -0.002,-0.014 5,5 0 0 0 -0.0332,-0.1562 5,5 0 0 0 -0.0332,-0.1387 5,5 0 0 0 -0.0117,-0.045 5,5 0 0 0 -0.004,-0.012 5,5 0 0 0 -0.004,-0.014 5,5 0 0 0 -0.0449,-0.1523 5,5 0 0 0 -0.004,-0.014 5,5 0 0 0 -0.004,-0.014 5,5 0 0 0 -0.043,-0.127 5,5 0 0 0 -0.008,-0.023 5,5 0 0 0 -0.01,-0.027 5,5 0 0 0 -0.0566,-0.1504 5,5 0 0 0 -0.006,-0.012 5,5 0 0 0 -0.0645,-0.1562 5,5 0 0 0 -0.002,0 5,5 0 0 0 -0.006,-0.014 5,5 0 0 0 -0.006,-0.014 5,5 0 0 0 -0.008,-0.018 5,5 0 0 0 -0.0664,-0.1407 5,5 0 0 0 -0.006,-0.012 5,5 0 0 0 -0.0664,-0.1308 5,5 0 0 0 -0.0117,-0.023 5,5 0 0 0 -0.008,-0.014 5,5 0 0 0 -0.0352,-0.062 5,5 0 0 0 -0.0352,-0.062 5,5 0 0 0 -0.008,-0.014 5,5 0 0 0 -0.006,-0.012 5,5 0 0 0 -0.0371,-0.061 5,5 0 0 0 -0.0469,-0.076 5,5 0 0 0 -0.008,-0.012 5,5 0 0 0 -0.008,-0.012 5,5 0 0 0 -0.004,-0.01 5,5 0 0 0 -0.0918,-0.1387 5,5 0 0 0 -0.006,-0.01 5,5 0 0 0 -0.002,0 5,5 0 0 0 -0.0918,-0.1289 5,5 0 0 0 -0.01,-0.012 5,5 0 0 0 -0.004,-0.01 5,5 0 0 0 -0.004,-0.01 5,5 0 0 0 -0.0977,-0.125 5,5 0 0 0 -0.008,-0.012 5,5 0 0 0 -0.01,-0.012 5,5 0 0 0 -0.10156,-0.1211 5,5 0 0 0 -0.01,-0.012 5,5 0 0 0 -0.01,-0.01 5,5 0 0 0 -0.0586,-0.064 5,5 0 0 0 -0.0488,-0.055 5,5 0 0 0 -0.01,-0.01 5,5 0 0 0 -0.002,0 5,5 0 0 0 -0.008,-0.01 5,5 0 0 0 -0.0371,-0.037 5,5 0 0 0 -0.084,-0.086 5,5 0 0 0 -0.006,-0.01 5,5 0 0 0 -0.004,0 5,5 0 0 0 -0.11523,-0.1094 5,5 0 0 0 -0.01,-0.01 5,5 0 0 0 -0.0117,-0.01 5,5 0 0 0 -0.11914,-0.1054 5,5 0 0 0 -0.01,-0.01 5,5 0 0 0 -0.0117,-0.01 5,5 0 0 0 -0.0176,-0.014 5,5 0 0 0 -0.10547,-0.086 5,5 0 0 0 -0.0117,-0.01 5,5 0 0 0 -0.0117,-0.01 5,5 0 0 0 -0.0723,-0.057 5,5 0 0 0 -0.0645,-0.049 5,5 0 0 0 -0.0117,-0.01 5,5 0 0 0 -0.13086,-0.092 5,5 0 0 0 -0.0117,-0.01 5,5 0 0 0 -0.0117,-0.01 5,5 0 0 0 -0.0117,-0.01 5,5 0 0 0 -0.12304,-0.08 5,5 0 0 0 -0.0117,-0.01 5,5 0 0 0 -0.0117,-0.01 5,5 0 0 0 -0.125,-0.074 l -0.0117,-0.01 a 5,5 0 0 0 -0.0137,-0.01 5,5 0 0 0 -0.0332,-0.018 l -28.39648,-16.38691 a 5,5 0 0 0 -2.51367,-0.66993 z" />
      </g>
      <g
         id="g931"
         transform="matrix(0.23316773,0,0,0.23316773,308.88001,769.60922)"
         style="fill:#000000;stroke-width:3.85978">
        <path
           id="path929"
           style="color:#000000;font-style:normal;font-variant:normal;font-weight:normal;font-stretch:normal;font-size:medium;line-height:normal;font-family:sans-serif;font-variant-ligatures:normal;font-variant-position:normal;font-variant-caps:normal;font-variant-numeric:normal;font-variant-alternates:normal;font-variant-east-asian:normal;font-feature-settings:normal;font-variation-settings:normal;text-indent:0;text-align:start;text-decoration:none;text-decoration-line:none;text-decoration-style:solid;text-decoration-color:#000000;letter-spacing:normal;word-spacing:normal;text-transform:none;writing-mode:lr-tb;direction:ltr;text-orientation:mixed;dominant-baseline:auto;baseline-shift:baseline;text-anchor:start;white-space:normal;shape-padding:0;shape-margin:0;inline-size:0;clip-rule:nonzero;display:inline;overflow:visible;visibility:visible;opacity:1;isolation:auto;mix-blend-mode:normal;color-interpolation:sRGB;color-interpolation-filters:linearRGB;solid-color:#000000;solid-opacity:1;vector-effect:none;fill:#000000;fill-opacity:1;fill-rule:nonzero;stroke:none;stroke-width:38.5978;stroke-linecap:round;stroke-linejoin:miter;stroke-miterlimit:4;stroke-dasharray:none;stroke-dashoffset:0;stroke-opacity:1;color-rendering:auto;image-rendering:auto;shape-rendering:auto;text-rendering:auto;enable-background:accumulate;stop-color:#000000;stop-opacity:1"
           d="m 341.6131,998.41716 a 5,5 0 0 0 -4.31641,2.50004 5,5 0 0 0 1.83008,6.83 l 12.29688,7.0997 h -49.91211 a 5,5 0 0 0 -5,5 5,5 0 0 0 5,5 h 49.91015 l -12.29492,7.0976 a 5,5 0 0 0 -1.83008,6.8301 5,5 0 0 0 6.83008,1.8301 l 28.45508,-16.4278 a 5,5 0 0 0 0.0117,-0.01 5,5 0 0 0 0.0137,-0.01 5,5 0 0 0 0.0156,-0.01 5,5 0 0 0 0.043,-0.025 5,5 0 0 0 0.0762,-0.047 5,5 0 0 0 0.0137,-0.01 5,5 0 0 0 0.0117,-0.01 5,5 0 0 0 0.13282,-0.088 5,5 0 0 0 0.0117,-0.01 5,5 0 0 0 0.0117,-0.01 5,5 0 0 0 0.1289,-0.094 5,5 0 0 0 0.0117,-0.01 5,5 0 0 0 0.0117,-0.01 5,5 0 0 0 0.0508,-0.039 5,5 0 0 0 0.0762,-0.059 5,5 0 0 0 0.0117,-0.01 5,5 0 0 0 0.01,-0.01 5,5 0 0 0 0.12304,-0.1015 5,5 0 0 0 0.0215,-0.018 5,5 0 0 0 0.11914,-0.1074 5,5 0 0 0 0.01,-0.01 5,5 0 0 0 0.01,-0.01 5,5 0 0 0 0.11523,-0.1114 5,5 0 0 0 0.01,-0.01 5,5 0 0 0 0.01,-0.01 5,5 0 0 0 0.10938,-0.1152 5,5 0 0 0 0.01,-0.012 5,5 0 0 0 0.006,-0.01 5,5 0 0 0 0.004,0 5,5 0 0 0 0.10547,-0.1192 5,5 0 0 0 0.0195,-0.022 5,5 0 0 0 0.10156,-0.123 5,5 0 0 0 0.008,-0.012 5,5 0 0 0 0.01,-0.012 5,5 0 0 0 0.0723,-0.096 5,5 0 0 0 0.0332,-0.043 5,5 0 0 0 0.008,-0.012 5,5 0 0 0 0.0918,-0.1309 5,5 0 0 0 0.008,-0.012 5,5 0 0 0 0.008,-0.012 5,5 0 0 0 0.0859,-0.1328 5,5 0 0 0 0.008,-0.014 5,5 0 0 0 0.004,-0.01 5,5 0 0 0 0.004,-0.01 5,5 0 0 0 0.0742,-0.123 5,5 0 0 0 0.008,-0.014 5,5 0 0 0 0.006,-0.012 5,5 0 0 0 0.0391,-0.07 5,5 0 0 0 0.0391,-0.07 5,5 0 0 0 0.006,-0.012 5,5 0 0 0 0.006,-0.014 5,5 0 0 0 0.0723,-0.1426 5,5 0 0 0 0.006,-0.012 5,5 0 0 0 0.006,-0.012 5,5 0 0 0 0.0664,-0.1445 5,5 0 0 0 0.006,-0.014 5,5 0 0 0 0.002,0 5,5 0 0 0 0.004,-0.01 5,5 0 0 0 0.0254,-0.062 5,5 0 0 0 0.0352,-0.084 5,5 0 0 0 0.004,-0.014 5,5 0 0 0 0.006,-0.014 5,5 0 0 0 0.0547,-0.1485 5,5 0 0 0 0.006,-0.014 5,5 0 0 0 0.004,-0.014 5,5 0 0 0 0.0137,-0.041 5,5 0 0 0 0.0117,-0.037 5,5 0 0 0 0.0234,-0.074 5,5 0 0 0 0.004,-0.014 5,5 0 0 0 0.004,-0.014 5,5 0 0 0 0.004,-0.014 5,5 0 0 0 0.041,-0.1386 5,5 0 0 0 0.004,-0.016 5,5 0 0 0 0.002,-0.01 5,5 0 0 0 0.041,-0.1719 5,5 0 0 0 0.002,-0.01 5,5 0 0 0 0.002,-0.01 5,5 0 0 0 0.0312,-0.1563 5,5 0 0 0 0.004,-0.014 5,5 0 0 0 0.002,-0.016 5,5 0 0 0 0.0234,-0.1406 5,5 0 0 0 0.002,-0.016 5,5 0 0 0 0.002,-0.014 5,5 0 0 0 0.002,-0.016 5,5 0 0 0 0.0215,-0.1719 5,5 0 0 0 0.002,-0.014 5,5 0 0 0 0.0137,-0.1582 5,5 0 0 0 0.002,-0.029 5,5 0 0 0 0.01,-0.1738 5,5 0 0 0 0,-0.014 5,5 0 0 0 0,-0.047 5,5 0 0 0 0.002,-0.098 5,5 0 0 0 0,-0.016 5,5 0 0 0 0,-0.014 5,5 0 0 0 -0.004,-0.1601 5,5 0 0 0 0,-0.014 5,5 0 0 0 0,-0.014 5,5 0 0 0 -0.004,-0.055 5,5 0 0 0 -0.004,-0.084 5,5 0 0 0 -0.002,-0.021 5,5 0 0 0 -0.002,-0.014 5,5 0 0 0 -0.01,-0.1075 5,5 0 0 0 -0.006,-0.066 5,5 0 0 0 -0.002,-0.014 5,5 0 0 0 -0.002,-0.014 5,5 0 0 0 -0.0137,-0.094 5,5 0 0 0 -0.008,-0.064 5,5 0 0 0 -0.002,-0.012 5,5 0 0 0 -0.002,-0.016 5,5 0 0 0 -0.004,-0.018 5,5 0 0 0 -0.01,-0.061 5,5 0 0 0 -0.0137,-0.078 5,5 0 0 0 -0.004,-0.014 5,5 0 0 0 -0.002,-0.014 5,5 0 0 0 -0.0332,-0.1562 5,5 0 0 0 -0.0332,-0.1387 5,5 0 0 0 -0.0117,-0.045 5,5 0 0 0 -0.004,-0.012 5,5 0 0 0 -0.004,-0.014 5,5 0 0 0 -0.0449,-0.1523 5,5 0 0 0 -0.004,-0.014 5,5 0 0 0 -0.004,-0.014 5,5 0 0 0 -0.043,-0.127 5,5 0 0 0 -0.008,-0.023 5,5 0 0 0 -0.01,-0.027 5,5 0 0 0 -0.0566,-0.1504 5,5 0 0 0 -0.006,-0.012 5,5 0 0 0 -0.0645,-0.1562 5,5 0 0 0 -0.002,0 5,5 0 0 0 -0.006,-0.014 5,5 0 0 0 -0.006,-0.014 5,5 0 0 0 -0.008,-0.018 5,5 0 0 0 -0.0664,-0.1407 5,5 0 0 0 -0.006,-0.012 5,5 0 0 0 -0.0664,-0.1308 5,5 0 0 0 -0.0117,-0.023 5,5 0 0 0 -0.008,-0.014 5,5 0 0 0 -0.0352,-0.062 5,5 0 0 0 -0.0352,-0.062 5,5 0 0 0 -0.008,-0.014 5,5 0 0 0 -0.006,-0.012 5,5 0 0 0 -0.0371,-0.061 5,5 0 0 0 -0.0469,-0.076 5,5 0 0 0 -0.008,-0.012 5,5 0 0 0 -0.008,-0.012 5,5 0 0 0 -0.004,-0.01 5,5 0 0 0 -0.0918,-0.1387 5,5 0 0 0 -0.006,-0.01 5,5 0 0 0 -0.002,0 5,5 0 0 0 -0.0918,-0.1289 5,5 0 0 0 -0.01,-0.012 5,5 0 0 0 -0.004,-0.01 5,5 0 0 0 -0.004,-0.01 5,5 0 0 0 -0.0977,-0.125 5,5 0 0 0 -0.008,-0.012 5,5 0 0 0 -0.01,-0.012 5,5 0 0 0 -0.10156,-0.1211 5,5 0 0 0 -0.01,-0.012 5,5 0 0 0 -0.01,-0.01 5,5 0 0 0 -0.0586,-0.064 5,5 0 0 0 -0.0488,-0.055 5,5 0 0 0 -0.01,-0.01 5,5 0 0 0 -0.002,0 5,5 0 0 0 -0.008,-0.01 5,5 0 0 0 -0.0371,-0.037 5,5 0 0 0 -0.084,-0.086 5,5 0 0 0 -0.006,-0.01 5,5 0 0 0 -0.004,0 5,5 0 0 0 -0.11523,-0.1094 5,5 0 0 0 -0.01,-0.01 5,5 0 0 0 -0.0117,-0.01 5,5 0 0 0 -0.11914,-0.1054 5,5 0 0 0 -0.01,-0.01 5,5 0 0 0 -0.0117,-0.01 5,5 0 0 0 -0.0176,-0.014 5,5 0 0 0 -0.10547,-0.086 5,5 0 0 0 -0.0117,-0.01 5,5 0 0 0 -0.0117,-0.01 5,5 0 0 0 -0.0723,-0.057 5,5 0 0 0 -0.0645,-0.049 5,5 0 0 0 -0.0117,-0.01 5,5 0 0 0 -0.13086,-0.092 5,5 0 0 0 -0.0117,-0.01 5,5 0 0 0 -0.0117,-0.01 5,5 0 0 0 -0.0117,-0.01 5,5 0 0 0 -0.12304,-0.08 5,5 0 0 0 -0.0117,-0.01 5,5 0 0 0 -0.0117,-0.01 5,5 0 0 0 -0.125,-0.074 l -0.0117,-0.01 a 5,5 0 0 0 -0.0137,-0.01 5,5 0 0 0 -0.0332,-0.018 l -28.39648,-16.38691 a 5,5 0 0 0 -2.51367,-0.66993 z" />
      </g>
      <text
         xml:space="preserve"
         style="font-style:normal;font-variant:normal;font-weight:normal;font-stretch:normal;font-size:30.0955px;line-height:1.25;font-family:'Archivo Black';-inkscape-font-specification:'Archivo Black, ';letter-spacing:0px;word-spacing:0px;stroke-width:0.899979"
         x="309.94766"
         y="1017.7505"
         id="text935"><tspan
           sodipodi:role="line"
           id="tspan933"
           x="309.94766"
           y="1017.7505"
           style="stroke-width:0.899979">B </tspan></text>
      <text
         xml:space="preserve"
         style="font-style:normal;font-variant:normal;font-weight:normal;font-stretch:normal;font-size:30.0955px;line-height:1.25;font-family:'Archivo Black';-inkscape-font-specification:'Archivo Black, ';letter-spacing:0px;word-spacing:0px;stroke-width:0.899979"
         x="354.00073"
         y="1017.7505"
         id="text939"><tspan
           sodipodi:role="line"
           id="tspan937"
           x="354.00073"
           y="1017.7505"
           style="stroke-width:0.899979">C</tspan><tspan
           sodipodi:role="line"
           x="354.00073"
           y="1055.3699"
           id="tspan945"
           style="stroke-width:0.899979" /></text>
      <text
         xml:space="preserve"
         style="font-style:normal;font-variant:normal;font-weight:normal;font-stretch:normal;font-size:30.0955px;line-height:1.25;font-family:'Archivo Black';-inkscape-font-specification:'Archivo Black, ';letter-spacing:0px;word-spacing:0px;stroke-width:0.899979"
         x="396.50394"
         y="1017.7505"
         id="text943"><tspan
           sodipodi:role="line"
           id="tspan941"
           x="396.50394"
           y="1017.7505"
           style="stroke-width:0.899979">D</tspan></text>
    </g>
  </g>
</svg>
