<?xml version="1.0" encoding="UTF-8" standalone="no"?>
<svg
   xmlns:dc="http://purl.org/dc/elements/1.1/"
   xmlns:cc="http://creativecommons.org/ns#"
   xmlns:rdf="http://www.w3.org/1999/02/22-rdf-syntax-ns#"
   xmlns:svg="http://www.w3.org/2000/svg"
   xmlns="http://www.w3.org/2000/svg"
   xmlns:sodipodi="http://sodipodi.sourceforge.net/DTD/sodipodi-0.dtd"
   xmlns:inkscape="http://www.inkscape.org/namespaces/inkscape"
   sodipodi:docname="sound-the-alarm.svg"
   inkscape:version="1.0 (4035a4fb49, 2020-05-01)"
   version="1.1"
   id="svg5199"
   viewBox="0 0 380.00001 500"
   height="500"
   width="380">
  <defs
     id="defs5201" />
  <sodipodi:namedview
     inkscape:document-rotation="0"
     inkscape:window-maximized="1"
     inkscape:window-y="-8"
     inkscape:window-x="-8"
     inkscape:window-height="1017"
     inkscape:window-width="1920"
     borderlayer="true"
     units="px"
     showgrid="false"
     inkscape:current-layer="layer1"
     inkscape:document-units="px"
     inkscape:cy="155.71195"
     inkscape:cx="206.67695"
     inkscape:zoom="1.979899"
     inkscape:pageshadow="2"
     inkscape:pageopacity="0.0"
     borderopacity="1.0"
     bordercolor="#666666"
     pagecolor="#ffffff"
     id="base" />
  <metadata
     id="metadata5204">
    <rdf:RDF>
      <cc:Work
         rdf:about="">
        <dc:format>image/svg+xml</dc:format>
        <dc:type
           rdf:resource="http://purl.org/dc/dcmitype/StillImage" />
        <dc:title></dc:title>
      </cc:Work>
    </rdf:RDF>
  </metadata>
  <g
     transform="translate(0,-727.36216)"
     id="layer1"
     inkscape:groupmode="layer"
     inkscape:label="Layer 1">
    <path
       id="path3559"
       d="M 201.64069,816.63112 C 152.2369,816.54309 104.14885,842.18998 77.674259,888.12168 50.857383,934.64744 53.139965,989.99709 78.836131,1033.0513 62.990152,992.86712 66.633828,941.95385 92.664056,896.79252 118.71048,851.60347 160.9533,822.9731 203.64565,816.65031 c -0.66822,0 -1.33698,0 -2.00496,0 z m -0.0944,32.09578 c -38.31114,-0.0798 -75.59219,19.82249 -96.12301,55.44044 -20.792712,36.07609 -19.03956,78.98115 0.88143,112.36786 -12.277911,-31.15871 -9.443629,-70.6356 10.73632,-105.6474 20.19202,-35.03308 52.92758,-57.23044 86.02404,-62.14325 -0.50555,-0.0136 -1.01335,0 -1.51819,0 z m -0.78713,26.10611 c -29.01203,0.22344 -57.17154,15.38168 -72.7011,42.32244 -23.31582,40.45319 -9.43153,92.33415 30.95485,115.68975 40.38574,23.3565 92.18067,9.466 115.49713,-30.9863 23.31819,-40.45319 9.43168,-92.35323 -30.95348,-115.70804 -12.62031,-7.29734 -26.35234,-10.94959 -39.98528,-11.29709 -0.93789,0 -1.87564,0 -2.81212,0 z m -0.26175,11.16701 -0.37483,17.68168 c -9.16901,0.0958 -18.20009,2.45234 -26.23223,6.86821 l -8.97599,-14.88232 c 10.8407,-6.19502 23.10601,-9.53013 35.58241,-9.66684 z m 123.17917,0.0798 c 15.8712,40.19281 12.23349,91.13435 -13.80883,136.31668 -26.01517,45.1345 -68.19089,73.7537 -110.8317,80.122 50.04541,0.7352 99.00053,-24.9688 125.80313,-71.4709 26.82348,-46.53704 24.55345,-101.90629 -1.16324,-144.96705 z m -102.49256,2.70246 c 5.73213,1.628 11.36837,3.97104 16.77083,7.09551 5.62169,3.25035 10.64438,7.13588 15.04502,11.50386 l -13.07851,12.5563 c -3.35288,-3.34884 -7.19098,-6.31783 -11.48574,-8.80163 -3.70738,-2.1441 -7.56105,-3.81987 -11.48657,-5.03008 l 4.23561,-17.32396 z m 74.98663,13.79591 c 12.31152,31.16957 9.49761,70.68249 -10.69925,105.72211 -20.16439,34.9831 -52.84239,57.1705 -85.89199,62.1239 38.79504,0.5596 76.73205,-19.3757 97.50925,-55.4226 20.80475,-36.09569 19.03234,-79.02994 -0.91737,-112.42477 z m -147.70684,5.91154 11.95352,12.48059 c -2.95777,3.12083 -5.60789,6.63793 -7.85116,10.52849 -2.42648,4.20974 -4.22101,8.60371 -5.4527,13.08204 l -16.69454,-4.11033 c 1.63101,-6.05518 4.06169,-12.00409 7.34509,-17.69902 3.05019,-5.2941 6.65562,-10.06929 10.69865,-14.28269 z m 117.07105,15.52162 c 5.97629,10.85953 9.14386,23.09618 9.14386,35.51019 l -18.47467,-0.39215 c -0.041,-8.9252 -2.21554,-17.72045 -6.33359,-25.61874 l 15.6644,-9.49655 z m -137.62636,37.04872 17.25637,0.37392 c 0.35339,9.01959 2.89484,17.85815 7.4013,25.69307 l -14.89627,9.02871 c -6.13387,-10.68808 -9.49762,-22.78563 -9.7614,-35.09707 z m 125.87742,14.54581 17.94944,4.40947 c -1.61893,5.54992 -3.91545,11.00089 -6.93255,16.2348 -3.24386,5.62795 -7.11116,10.66715 -11.46736,15.07205 l -12.7605,-13.32649 c 3.09685,-3.20884 5.85987,-6.84494 8.18858,-10.88552 2.14304,-3.71727 3.81359,-7.5677 5.02175,-11.50477 z m -90.76449,24.62422 c 2.95416,2.7209 6.25375,5.1505 9.87531,7.243 4.20137,2.431 8.58931,4.2494 13.0592,5.4811 l -4.25348,17.3611 c -5.84248,-1.6319 -11.58656,-4.0059 -17.08846,-7.1879 -5.28614,-3.0569 -10.05165,-6.667 -14.25854,-10.7172 z m 64.41871,7.8254 9.48206,15.7094 c -10.66496,5.9311 -22.66827,9.1067 -34.87015,9.2344 l 0.37482,-18.093 c 8.74813,-0.2873 17.33667,-2.6288 25.01399,-6.8499 z"
       style="fill:#000000;fill-opacity:1;stroke-width:0.999996"
       inkscape:connector-curvature="0" />
  </g>
</svg>
