<?xml version="1.0" encoding="UTF-8" standalone="no"?>
<!-- Created with Inkscape (http://www.inkscape.org/) -->

<svg
   xmlns:dc="http://purl.org/dc/elements/1.1/"
   xmlns:cc="http://creativecommons.org/ns#"
   xmlns:rdf="http://www.w3.org/1999/02/22-rdf-syntax-ns#"
   xmlns:svg="http://www.w3.org/2000/svg"
   xmlns="http://www.w3.org/2000/svg"
   xmlns:sodipodi="http://sodipodi.sourceforge.net/DTD/sodipodi-0.dtd"
   xmlns:inkscape="http://www.inkscape.org/namespaces/inkscape"
   width="64"
   height="64"
   viewBox="0 0 64 64"
   id="svg2"
   version="1.1"
   inkscape:version="0.91 r13725"
   sodipodi:docname="fist logo.svg">
  <defs
     id="defs4" />
  <sodipodi:namedview
     id="base"
     pagecolor="#ffffff"
     bordercolor="#666666"
     borderopacity="1.0"
     inkscape:pageopacity="0.0"
     inkscape:pageshadow="2"
     inkscape:zoom="5.6"
     inkscape:cx="91.035249"
     inkscape:cy="-0.65303477"
     inkscape:document-units="px"
     inkscape:current-layer="g4190"
     showgrid="false"
     units="px"
     inkscape:window-width="1920"
     inkscape:window-height="1017"
     inkscape:window-x="1672"
     inkscape:window-y="185"
     inkscape:window-maximized="1" />
  <metadata
     id="metadata7">
    <rdf:RDF>
      <cc:Work
         rdf:about="">
        <dc:format>image/svg+xml</dc:format>
        <dc:type
           rdf:resource="http://purl.org/dc/dcmitype/StillImage" />
        <dc:title></dc:title>
      </cc:Work>
    </rdf:RDF>
  </metadata>
  <g
     inkscape:label="Layer 1"
     inkscape:groupmode="layer"
     id="layer1"
     transform="translate(0,-988.36222)">
    <rect
       style="display:inline;fill:#ffffff;fill-opacity:1;fill-rule:nonzero;stroke:none"
       id="rect2986"
       width="568.06647"
       height="568.06647"
       x="-707.28711"
       y="713.7807"
       inkscape:export-filename="G:\apmeneel\Documents\Board Games\Grifters Cards\decks\skill.png"
       inkscape:export-xdpi="52.639999"
       inkscape:export-ydpi="52.639999" />
    <g
       id="g4190"
       transform="matrix(0.37832582,0,0,0.37832582,22.610388,653.89482)">
      <g
         id="g4198"
         transform="translate(1.8344446,0)">
        <path
           inkscape:connector-curvature="0"
           style="fill:#2c9087;fill-opacity:1;fill-rule:nonzero;stroke:none"
           d="m -10.224553,885.47672 c -12.234395,20.74615 -23.631389,36.28533 -40.546314,55.37754 10.082477,2.33822 14.630093,0.44158 37.705276,11.61503 7.779214,-10.40787 12.74475998,-20.05861 19.7319489,-32.05664 1.441155,0.49279 3.146019,0.7105 3.8732731,1.945 2.007385,-4.56875 1.93562,-3.22944 3.51008,-8.21487 -8.5121361,-8.44582 -18.7506629,-17.17128 -24.274264,-28.66606 z m 6.1121725,17.45722 1.3165789,0.91037 -1.4002089,2.02863 c 1.0148767,0.53136 1.905363,1.10349 2.6713873,1.71801 l 1.34047248,-1.94262 1.34047362,0.92472 -1.40259872,2.02863 c 1.99166272,1.88691 3.14278972,3.78899 3.45512272,5.70597 0.322278,1.90258 0.07043,3.45074 -0.755062,4.64507 -0.576848,0.83457 -1.294593,1.38182 -2.15288002,1.63913 -0.8483417,0.24293 -1.69577198,0.0707 -2.54474768,-0.51611 -0.7482493,-0.51718 -1.1863777,-1.1595 -1.3141893,-1.92828 -0.113421,-0.75882 0.067398,-1.4837 0.5447917,-2.17438 0.8553259,-1.23748 2.01755568,-1.59484 3.48379528,-1.07047 0.505745,0.22199 0.83726302,0.21827 0.99639402,-0.0122 0.218805,-0.31657 0.107802,-0.95786 -0.332131,-1.9211 -0.41560002,-0.96765 -1.17004652,-1.99877 -2.262795,-3.09428 l -6.936528,10.03801 c 3.6574473,4.39915 4.0299419,8.70597 1.115866,12.92207 -2.9439132,4.25926 -7.0756249,5.3915 -12.3939969,3.39538 l -3.058476,4.42523 -1.338083,-0.9271 2.879268,-4.16478 c -0.654082,-0.34578 -1.197911,-0.66696 -1.629594,-0.96533 -0.330956,-0.22875 -0.668833,-0.49393 -1.013121,-0.79568 l -2.848205,4.12177 -1.316577,-0.91037 2.879267,-4.16479 c -2.138943,-2.07377 -3.377633,-4.1749 -3.71557,-6.30095 -0.327992,-2.14042 0.01539,-3.94434 1.029847,-5.41206 0.656411,-0.94969 1.441195,-1.50141 2.355981,-1.65588 0.924733,-0.16885 1.841316,0.0592 2.74785,0.68576 0.805808,0.55697 1.27924,1.28868 1.419324,2.19351 0.164419,0.9004 -0.01327,1.72482 -0.530455,2.47307 -0.477391,0.6907 -1.105484,1.1376 -1.885262,1.34285 -0.769836,0.19087 -1.477954,0.16952 -2.124209,-0.0645 -0.631864,-0.22409 -1.026028,-0.22067 -1.18516,0.01 -0.238694,0.34535 -0.150036,1.01511 0.270007,2.00713 0.420043,0.99202 1.27244,2.11281 2.556695,3.36194 l 7.115736,-10.29608 c -3.451763,-4.51215 -3.847817,-8.69061 -1.192328,-12.53257 2.794728,-4.04344 6.881359,-5.20442 12.2625773,-3.48381 l 1.5507432,-2.24368 z m -4.7334701,3.21618 c -2.0611254,-0.13285 -3.6195914,0.56191 -4.6713444,2.08359 -1.30288,1.88501 -0.907651,4.08276 1.185161,6.59244 l 5.7155262,-8.26744 c -0.7991956,-0.22812 -1.5423,-0.36431 -2.2293428,-0.40859 z m 3.7084024,1.08241 -6.1456258,8.89348 c 0.749731,1.00726 1.4562469,1.84504 2.1194292,2.51607 l 6.7573203,-9.77757 c -1.0648164,-0.73598 -1.9752556,-1.27966 -2.7311237,-1.63198 z m -10.5469628,15.25891 -6.936529,10.03802 c 0.545739,0.44101 1.445009,0.9989 2.700061,1.675 l 6.327223,-9.15154 -2.090755,-2.56148 z m 3.158832,3.87567 -5.937745,8.59003 c 1.73181,0.6016 3.236156,0.71566 4.513642,0.34408 1.291875,-0.36165 2.272646,-1.02392 2.939005,-1.98801 1.4122821,-2.0433 0.906539,-4.35811 -1.514902,-6.9461 z"
           id="path4229" />
        <path
           inkscape:export-ydpi="52.639999"
           inkscape:export-xdpi="52.639999"
           inkscape:export-filename="G:\apmeneel\Documents\Board Games\Grifters Cards\decks\skill.png"
           sodipodi:nodetypes="ccccccccccccccccccc"
           inkscape:connector-curvature="0"
           id="path4235"
           d="m 6.0814189,923.53822 c -7.8750827,14.46429 -15.6277991,29.03319 -26.0918549,41.28326 13.3132074,16.3485 19.05882098,23.30296 31.258014,51.36342 0.159194,21.2227 -11.16519932,48.9731 -15.6628484,69.5704 25.0635034,-3.2406 50.7072934,-3.3671 76.5846224,-2.2415 -0.227132,-18.6663 1.57953,-48.1652 -0.900246,-63.2764 3.147645,-5.7744 9.852493,-8.9601 12.071165,-15.0613 0.400591,-10.9312 4.301908,-21.60141 4.14408,-33.17711 -6.431334,4.07768 -10.924892,10.4252 -16.846794,15.19029 -4.587465,-4.00274 -10.420127,-7.07944 -13.214172,-12.41551 -8.630805,-0.3674 -16.972875,-1.49854 -24.500445,-4.78432 -7.767442,-3.37717 -13.927494,-8.61034 -23.3653001,-10.05872 2.4579441,-2.71372 4.4665981,-6.69408 6.2736171,-11.24292 1.009389,1.72657 1.771176,2.42206 3.368024,2.7022 -1.340103,2.51888 -3.269613,4.76926 -4.561795,6.62954 6.717176,3.37766 15.354012,8.31344 22.636988,10.50341 2.680565,-2.5488 5.066704,-7.15412 7.270652,-10.3889 0.919363,-5.78515 0.469899,-12.88771 1.38926,-18.67279 C 32.167358,934.54232 20.840819,930.5776 6.0814189,923.53822"
           style="display:inline;fill:#000000;stroke:none" />
        <path
           inkscape:export-ydpi="52.639999"
           inkscape:export-xdpi="52.639999"
           inkscape:export-filename="G:\apmeneel\Documents\Board Games\Grifters Cards\decks\skill.png"
           sodipodi:nodetypes="ccccc"
           inkscape:connector-curvature="0"
           id="path4237"
           d="m 31.329878,931.08907 c 5.287458,-7.88972 9.074832,-12.95849 11.976728,-20.00323 -4.930228,-7.44903 -9.49837,-7.87798 -16.26739,-10.50325 -5.989618,4.50939 -12.069761,16.23426 -15.542402,23.39285 6.318456,2.6154 11.279096,5.05558 19.833064,7.11363 z"
           style="display:inline;fill:#000000;stroke:none" />
        <path
           inkscape:export-ydpi="52.639999"
           inkscape:export-xdpi="52.639999"
           inkscape:export-filename="G:\apmeneel\Documents\Board Games\Grifters Cards\decks\skill.png"
           sodipodi:nodetypes="cccccc"
           inkscape:connector-curvature="0"
           id="path4239"
           d="m 34.453912,932.88323 c 4.989541,3.62472 9.36421,4.3549 13.404976,6.2323 -0.884996,3.31263 -0.696313,5.17606 -0.737676,9.90125 6.764655,-5.51156 13.827863,-18.44461 17.447733,-24.74241 -4.87057,-4.72412 -10.483877,-9.6341 -18.76781,-12.00032 -4.738628,6.68154 -8.503509,13.54208 -11.347223,20.60916"
           style="display:inline;fill:#000000;stroke:none" />
        <path
           inkscape:export-ydpi="52.639999"
           inkscape:export-xdpi="52.639999"
           inkscape:export-filename="G:\apmeneel\Documents\Board Games\Grifters Cards\decks\skill.png"
           sodipodi:nodetypes="ccccc"
           inkscape:connector-curvature="0"
           id="path4241"
           d="m 64.658796,929.9622 c -6.717593,12.16183 -15.941875,26.72509 -23.838355,38.51881 3.728645,4.53597 11.177696,1.47185 17.114321,4.35417 7.453323,-11.44617 15.463144,-21.11236 24.547587,-31.78156 -5.736268,-5.13332 -11.536461,-8.68809 -17.823553,-11.09142"
           style="display:inline;fill:#000000;stroke:none" />
        <path
           inkscape:export-ydpi="52.639999"
           inkscape:export-xdpi="52.639999"
           inkscape:export-filename="G:\apmeneel\Documents\Board Games\Grifters Cards\decks\skill.png"
           sodipodi:nodetypes="ccccc"
           inkscape:connector-curvature="0"
           id="path4243"
           d="m 84.091682,943.44394 c -12.123142,10.02363 -16.795927,23.45474 -23.657859,30.81661 3.046438,2.83692 5.709827,7.11781 9.93075,10.77104 9.436437,-9.37784 17.583484,-17.63854 26.375106,-26.45784 -2.41825,-5.34184 -7.604427,-11.87305 -12.647997,-15.12981"
           style="display:inline;fill:#000000;stroke:none" />
      </g>
    </g>
  </g>
</svg>
