<?xml version="1.0" encoding="UTF-8" standalone="no"?>
<!-- Created with Inkscape (http://www.inkscape.org/) -->

<svg
   xmlns:dc="http://purl.org/dc/elements/1.1/"
   xmlns:cc="http://creativecommons.org/ns#"
   xmlns:rdf="http://www.w3.org/1999/02/22-rdf-syntax-ns#"
   xmlns:svg="http://www.w3.org/2000/svg"
   xmlns="http://www.w3.org/2000/svg"
   xmlns:sodipodi="http://sodipodi.sourceforge.net/DTD/sodipodi-0.dtd"
   xmlns:inkscape="http://www.inkscape.org/namespaces/inkscape"
   width="4in"
   height="6in"
   viewBox="0 0 360.00001 540.00001"
   id="svg4491"
   version="1.1"
   inkscape:version="0.91 r13725"
   sodipodi:docname="gate stickers.svg">
  <defs
     id="defs4493" />
  <sodipodi:namedview
     id="base"
     pagecolor="#ffffff"
     bordercolor="#666666"
     borderopacity="1.0"
     inkscape:pageopacity="0.0"
     inkscape:pageshadow="2"
     inkscape:zoom="5.6"
     inkscape:cx="-106.39638"
     inkscape:cy="417.92651"
     inkscape:document-units="px"
     inkscape:current-layer="g5074"
     showgrid="false"
     units="in"
     inkscape:window-width="1920"
     inkscape:window-height="1017"
     inkscape:window-x="-8"
     inkscape:window-y="-8"
     inkscape:window-maximized="1" />
  <metadata
     id="metadata4496">
    <rdf:RDF>
      <cc:Work
         rdf:about="">
        <dc:format>image/svg+xml</dc:format>
        <dc:type
           rdf:resource="http://purl.org/dc/dcmitype/StillImage" />
        <dc:title></dc:title>
      </cc:Work>
    </rdf:RDF>
  </metadata>
  <g
     inkscape:label="Layer 1"
     inkscape:groupmode="layer"
     id="layer1"
     transform="translate(0,-512.36215)">
    <g
       transform="matrix(0.38107258,0,0,0.38107258,-266.06684,300.86004)"
       id="g5074"
       style="fill:#000000">
      <path
         inkscape:connector-curvature="0"
         style="fill:#000000;fill-opacity:1;stroke:none;stroke-width:10;stroke-linecap:round;stroke-linejoin:round;stroke-miterlimit:4;stroke-dasharray:none;stroke-dashoffset:0;stroke-opacity:1"
         d="m 489.49218,804.70003 c -4.61425,0.27353 -9.07316,0.91079 -13.32813,1.89844 l 0,15.25 -14.23047,0 0,-10.37696 c -4.87917,2.2626 -9.35095,5.01509 -13.32617,8.18165 l 0,2.19531 -2.58789,0 c -4.42955,3.95061 -8.1527,8.4371 -11.02344,13.32617 l 13.61133,0 0,14.35547 -19.26367,0 c -0.11971,0.5462 -0.24332,1.0913 -0.34375,1.64258 l -2.11523,11.68554 21.72265,0 0,17.4336 6.66211,20.91015 6.66406,-20.91015 0,-17.4336 14.23047,0 0,17.4336 6.66406,20.91015 6.66407,-20.91015 0,-17.4336 14.23047,0 0,17.4336 6.66406,20.91015 6.66211,-20.91015 0,-17.4336 14.23047,0 0,17.4336 6.66406,20.91015 6.66406,-20.91015 0,-17.4336 21.48047,0 -2.33789,-9.43554 c 0,-1.26082 -0.1783,-2.56138 -0.51172,-3.89258 l -18.63086,0 0,-14.35547 10.17188,0 c -5.95019,-6.74326 -14.32604,-13.35376 -23.5,-18.69727 l 0,5.3711 -14.23047,0 0,-12.32422 c -4.5104,-1.78666 -9.0059,-3.1491 -13.32617,-3.99805 l 0,16.32227 -14.23047,0 0,-17.14844 z m -27.5586,30.47461 14.23047,0 0,14.35547 -14.23047,0 0,-14.35547 z m 27.5586,0 14.23047,0 0,14.35547 -14.23047,0 0,-14.35547 z m 27.55664,0 14.23047,0 0,14.35547 -14.23047,0 0,-14.35547 z"
         id="path4435" />
      <path
         style="fill:#000000;fill-opacity:1;stroke:none;stroke-width:10;stroke-linecap:round;stroke-linejoin:round;stroke-miterlimit:4;stroke-dasharray:none;stroke-dashoffset:0;stroke-opacity:1"
         d="m 571.24997,988.52482 c 10.35963,1.18427 20.82916,2.09376 32.5,0 1.77221,-0.31794 2.98755,1.46873 3.25,3.25 0.81037,5.49999 2.35592,10.99998 0,16.49998 -0.70894,1.6551 -1.45007,3.2955 -3.25,3.25 -10.83333,-0.2736 -21.66667,-1.5424 -32.5,0 -1.78252,0.2538 -3.21413,-1.4499 -3.25,-3.25 -0.0744,-3.7345 -1.71649,-8.1766 0,-16.49998 0.36366,-1.76339 1.46115,-3.45449 3.25,-3.25 z"
         id="path4439"
         inkscape:connector-curvature="0"
         sodipodi:nodetypes="sssssssss" />
      <path
         sodipodi:nodetypes="ssssssssss"
         inkscape:connector-curvature="0"
         id="path4441"
         d="m 571.24997,964.11212 c 5.59168,0.45332 11.25415,0.20012 16.61638,0.24639 5.28188,0.0456 10.2626,0.399 15.88362,-0.24639 1.78875,-0.20538 2.98755,1.46873 3.25,3.25 0.81037,5.49999 2.35592,10.99998 0,16.49998 -0.70894,1.6551 -1.47135,2.97033 -3.25,3.25 -12.30043,1.93409 -22.86031,0.24038 -32.5,0 -1.79994,-0.0449 -3.21413,-1.4499 -3.25,-3.25 -0.0744,-3.7345 -1.71649,-8.17664 0,-16.49998 0.36366,-1.76339 1.45539,-3.39549 3.25,-3.25 z"
         style="fill:#000000;fill-opacity:1;stroke:none;stroke-width:10;stroke-linecap:round;stroke-linejoin:round;stroke-miterlimit:4;stroke-dasharray:none;stroke-dashoffset:0;stroke-opacity:1" />
      <path
         style="fill:#000000;fill-opacity:1;stroke:none;stroke-width:10;stroke-linecap:round;stroke-linejoin:round;stroke-miterlimit:4;stroke-dasharray:none;stroke-dashoffset:0;stroke-opacity:1"
         d="m 571.24997,940.36212 c 11.27551,0.67407 21.19397,1.3552 32.5,0 1.78771,-0.21428 2.98755,1.46873 3.25,3.25 0.81037,5.49999 2.35592,10.99998 0,16.49998 -0.70894,1.6551 -1.45023,3.30123 -3.25,3.25 -12.30043,-0.3501 -22.86031,-0.67988 -32.5,0 -1.79604,0.12667 -3.21413,-1.4499 -3.25,-3.25 -0.0744,-3.7345 -1.71649,-8.17664 0,-16.49998 0.36366,-1.76339 1.45271,-3.35744 3.25,-3.25 z"
         id="path4443"
         inkscape:connector-curvature="0"
         sodipodi:nodetypes="sssssssss" />
      <path
         sodipodi:nodetypes="sssssssss"
         inkscape:connector-curvature="0"
         id="path4445"
         d="m 571.24997,915.96694 c 11.02491,0.44144 20.97357,2.76253 32.5,0 1.75092,-0.41964 3.45941,1.46172 3.25,3.25 -0.64404,5.49999 0.98238,10.99998 0,16.49998 -0.31659,1.77249 -1.4623,3.03568 -3.25,3.25 -12.30043,1.47467 -22.86031,0.26159 -32.5,0 -1.79984,-0.0488 -3.67489,-1.50039 -3.25,-3.25 0.90691,-3.7345 0.49668,-8.17664 0,-16.49998 -0.10725,-1.7973 1.45094,-3.32203 3.25,-3.25 z"
         style="fill:#000000;fill-opacity:1;stroke:none;stroke-width:10;stroke-linecap:round;stroke-linejoin:round;stroke-miterlimit:4;stroke-dasharray:none;stroke-dashoffset:0;stroke-opacity:1" />
      <path
         style="fill:#000000;fill-opacity:1;stroke:none;stroke-width:10;stroke-linecap:round;stroke-linejoin:round;stroke-miterlimit:4;stroke-dasharray:none;stroke-dashoffset:0;stroke-opacity:1"
         d="m 571.24997,892.45564 c 11.2218,-1.43633 22.40418,-1.97114 32.5,0 1.75092,-0.41964 2.8598,1.49229 3.25,3.25 1.22095,5.49999 1.23015,9.89353 0,15.39353 -0.39301,1.75713 -1.48086,2.91541 -3.25,3.25 -11.66808,2.20673 -21.64191,0.85629 -32.5,0 -1.79493,-0.14155 -3.38982,-1.45497 -3.25,-3.25 0.2909,-3.7345 -3.15641,-7.07019 0,-15.39353 0.63843,-1.68351 1.45094,-3.32203 3.25,-3.25 z"
         id="path4447"
         inkscape:connector-curvature="0"
         sodipodi:nodetypes="ccssssssc" />
      <path
         sodipodi:nodetypes="ccssssssc"
         inkscape:connector-curvature="0"
         id="path4449"
         d="m 571.42675,868.06046 c 11.2218,-1.43633 22.40418,-1.97114 32.5,0 1.75092,-0.41964 2.8598,1.49229 3.25,3.25 1.22095,5.49999 1.23015,10.99998 0,16.49998 -0.39301,1.75713 -1.4785,3.57187 -3.25,3.25 -11.96351,-2.17371 -21.81158,-0.87062 -32.5,0 -1.79456,0.14617 -3.6677,-1.49866 -3.25,-3.25 0.83845,-3.51548 -1.47447,-7.50386 0,-16.49998 0.29122,-1.77679 1.45094,-3.32203 3.25,-3.25 z"
         style="fill:#000000;fill-opacity:1;stroke:none;stroke-width:10;stroke-linecap:round;stroke-linejoin:round;stroke-miterlimit:4;stroke-dasharray:none;stroke-dashoffset:0;stroke-opacity:1" />
      <path
         sodipodi:nodetypes="sssssssss"
         inkscape:connector-curvature="0"
         id="path4451"
         d="m 421.16092,987.86212 c -10.35964,1.18427 -20.82916,2.09376 -32.5,0 -1.77221,-0.31794 -2.98755,1.46873 -3.25,3.25 -0.81038,5.49999 -2.35592,10.99998 0,16.49998 0.70894,1.6551 1.49531,2.8464 3.25,3.25 9.42298,2.1672 20.66218,0.196 32.5,0 1.80025,-0.03 3.21412,-1.4499 3.25,-3.25 0.0744,-3.7345 1.71648,-8.17664 0,-16.49998 -0.36366,-1.76339 -1.46115,-3.45449 -3.25,-3.25 z"
         style="fill:#000000;fill-opacity:1;stroke:none;stroke-width:10;stroke-linecap:round;stroke-linejoin:round;stroke-miterlimit:4;stroke-dasharray:none;stroke-dashoffset:0;stroke-opacity:1" />
      <path
         style="fill:#000000;fill-opacity:1;stroke:none;stroke-width:10;stroke-linecap:round;stroke-linejoin:round;stroke-miterlimit:4;stroke-dasharray:none;stroke-dashoffset:0;stroke-opacity:1"
         d="m 421.16092,964.11212 c -11.27551,-1.56337 -21.19398,0.99933 -32.5,0 -1.79351,-0.15853 -2.98755,1.46873 -3.25,3.25 -0.81038,5.49999 -2.35592,10.00592 0,15.50592 0.70894,1.6551 1.47135,2.97033 3.25,3.25 12.30043,1.93409 22.86031,0.24038 32.5,0 1.79994,-0.0449 3.21412,-1.4499 3.25,-3.25 0.0744,-3.7345 1.71648,-7.18258 0,-15.50592 -0.36366,-1.76339 -1.46656,-3.00272 -3.25,-3.25 z"
         id="path4453"
         inkscape:connector-curvature="0"
         sodipodi:nodetypes="sssssssss" />
      <path
         sodipodi:nodetypes="sssssssss"
         inkscape:connector-curvature="0"
         id="path4455"
         d="m 421.16092,940.36212 c -11.27551,-1.56337 -21.19398,0.99933 -32.5,0 -1.79351,-0.15853 -2.98755,1.46873 -3.25,3.25 -0.81038,5.49999 -2.35592,10.99998 0,16.49998 0.70894,1.6551 1.45023,2.72136 3.25,2.67013 12.30043,-0.3501 25.65795,-1.44543 33.32838,0.16568 1.76205,0.3701 3.21412,-1.4499 3.25,-3.25 0.0744,-3.7345 0.8881,-7.76245 -0.82838,-16.08579 -0.36366,-1.76339 -1.46656,-3.00272 -3.25,-3.25 z"
         style="fill:#000000;fill-opacity:1;stroke:none;stroke-width:10;stroke-linecap:round;stroke-linejoin:round;stroke-miterlimit:4;stroke-dasharray:none;stroke-dashoffset:0;stroke-opacity:1" />
      <path
         style="fill:#000000;fill-opacity:1;stroke:none;stroke-width:10;stroke-linecap:round;stroke-linejoin:round;stroke-miterlimit:4;stroke-dasharray:none;stroke-dashoffset:0;stroke-opacity:1"
         d="m 421.16092,916.961 c -11.02492,0.44144 -20.97357,2.76253 -32.5,0 -1.75092,-0.41964 -3.45941,1.46172 -3.25,3.25 0.64403,5.49999 -0.98239,10.00592 0,15.50592 0.31658,1.77249 1.45129,3.16962 3.25,3.25 12.30043,0.54969 22.86031,-1.61386 32.5,0 1.77579,0.2973 3.67489,-1.50039 3.25,-3.25 -0.90692,-3.7345 -0.49668,-7.18258 0,-15.50592 0.10724,-1.7973 -1.45094,-3.32203 -3.25,-3.25 z"
         id="path4457"
         inkscape:connector-curvature="0"
         sodipodi:nodetypes="sssssssss" />
      <path
         sodipodi:nodetypes="ccssssssc"
         inkscape:connector-curvature="0"
         id="path4459"
         d="m 421.16092,892.45564 c -10.78222,-0.88685 -21.96016,-1.41612 -32.5,0 -1.75092,-0.41964 -2.8598,1.49229 -3.25,3.25 -1.22095,5.49999 -1.23016,10.99998 0,16.49998 0.39301,1.75713 1.45577,3.09985 3.25,3.25 11.66887,0.97651 21.64221,0.6642 32.5,0 1.79715,-0.10994 3.38982,-1.45497 3.25,-3.25 -0.2909,-3.7345 3.15641,-8.17664 0,-16.49998 -0.63843,-1.68351 -1.45094,-3.32203 -3.25,-3.25 z"
         style="fill:#000000;fill-opacity:1;stroke:none;stroke-width:10;stroke-linecap:round;stroke-linejoin:round;stroke-miterlimit:4;stroke-dasharray:none;stroke-dashoffset:0;stroke-opacity:1" />
      <path
         style="fill:#000000;fill-opacity:1;stroke:none;stroke-width:10;stroke-linecap:round;stroke-linejoin:round;stroke-miterlimit:4;stroke-dasharray:none;stroke-dashoffset:0;stroke-opacity:1"
         d="m 420.98414,868.06046 c -11.22181,-1.43633 -22.40418,-1.97114 -32.5,0 -1.75092,-0.41964 -2.8598,1.49229 -3.25,3.25 -1.22095,5.49999 -1.23016,10.25444 0,15.75444 0.39301,1.75713 1.46369,3.47561 3.25,3.25 12.06821,-1.5242 21.92766,-1.16456 32.5,0 1.78968,0.19714 3.66769,-1.49866 3.25,-3.25 -0.83845,-3.51548 1.47447,-6.75832 0,-15.75444 -0.29122,-1.77679 -1.45094,-3.32203 -3.25,-3.25 z"
         id="path4461"
         inkscape:connector-curvature="0"
         sodipodi:nodetypes="ccssssssc" />
      <path
         style="fill:#000000;fill-opacity:1;stroke:none;stroke-width:10;stroke-linecap:round;stroke-linejoin:round;stroke-miterlimit:4;stroke-dasharray:none;stroke-dashoffset:0;stroke-opacity:1"
         d="m 419.77892,848.93945 c -10.07089,-4.86097 -20.49995,-8.69545 -31.16901,-9.2056 -1.56035,-0.8984 -3.95947,0.39754 -4.03746,2.19634 -0.26041,6.00627 -0.66276,15.37769 -0.33831,20.76448 0.10825,1.79729 1.45731,3.41762 3.25,3.25 12.04729,-1.12644 22.16359,-1.76001 32.5,0 1.77495,0.30223 3.66769,-1.49866 3.25,-3.25 -0.83845,-3.51548 -1.42067,-4.6499 -1.25888,-9.71776 0.0575,-1.79958 -0.45056,-3.59696 -2.19634,-4.03746 z"
         id="path4463"
         inkscape:connector-curvature="0"
         sodipodi:nodetypes="ccssssssc" />
      <path
         sodipodi:nodetypes="ccssssssc"
         inkscape:connector-curvature="0"
         id="path4465"
         d="m 570.93878,849.99527 c 9.73312,-5.5062 19.89047,-10.01139 30.5037,-11.21493 1.49856,-0.99806 3.97695,0.13897 4.17186,1.92888 0.65082,5.97658 1.7486,16.62453 1.77548,22.02102 0.009,1.80052 -1.23177,3.50523 -3.03156,3.45466 -12.09507,-0.33987 -22.5625,-2.05321 -32.76243,0.37588 -1.75152,0.41712 -3.42612,0.48286 -3.12331,-1.29196 0.60785,-3.5626 1.02871,-6.05511 0.53738,-11.10169 -0.17451,-1.79202 0.21548,-3.61866 1.92888,-4.17186 z"
         style="fill:#000000;fill-opacity:1;stroke:none;stroke-width:10;stroke-linecap:round;stroke-linejoin:round;stroke-miterlimit:4;stroke-dasharray:none;stroke-dashoffset:0;stroke-opacity:1" />
      <path
         sodipodi:nodetypes="ccssssssc"
         inkscape:connector-curvature="0"
         id="path4467"
         d="m 562.5882,832.00236 c 11.31639,-3.50714 21.02252,-8.70181 30.21089,-11.98128 1.4729,-1.03557 3.9792,0.0385 4.21923,1.82296 0.80146,5.95824 3.36324,6.34713 5.04752,11.47412 0.56196,1.7106 -0.0282,4.07432 -1.82296,4.21922 -13.24157,1.06912 -21.64907,5.96653 -30.2109,11.98129 -1.4733,1.035 -3.96187,-0.041 -4.21922,-1.82296 -0.51662,-3.57697 -3.10168,-2.56806 -5.04754,-11.47413 -0.38425,-1.75901 0.12407,-3.62294 1.82298,-4.21922 z"
         style="fill:#000000;fill-opacity:1;stroke:none;stroke-width:10;stroke-linecap:round;stroke-linejoin:round;stroke-miterlimit:4;stroke-dasharray:none;stroke-dashoffset:0;stroke-opacity:1" />
      <path
         style="fill:#000000;fill-opacity:1;stroke:none;stroke-width:10;stroke-linecap:round;stroke-linejoin:round;stroke-miterlimit:4;stroke-dasharray:none;stroke-dashoffset:0;stroke-opacity:1"
         d="m 549.80588,820.81948 c 7.77599,-8.03652 16.24226,-15.23309 26.0805,-19.39218 1.15469,-1.3815 3.85358,-0.99271 4.54728,0.66883 2.31626,5.54778 7.82948,8.0146 9.85798,13.0154 0.67681,1.6685 0.1577,3.712 -1.53228,4.33326 -11.35676,4.17492 -20.75864,7.96251 -29.32768,14.00488 -5.93688,0.50023 -12.73975,-10.34752 -9.6258,-12.63019 z"
         id="path4469"
         inkscape:connector-curvature="0"
         sodipodi:nodetypes="ccssscc" />
      <path
         sodipodi:nodetypes="ccsssssscc"
         inkscape:connector-curvature="0"
         id="path4471"
         d="m 439.75025,818.6427 c -7.77599,-8.03652 -14.24226,-13.23309 -24.0805,-17.39218 -1.15469,-1.3815 -3.85358,-0.99271 -4.54728,0.66883 -2.31626,5.54778 -7.16678,7.26906 -9.19528,12.26986 -0.67681,1.6685 -0.1577,3.712 1.53228,4.33326 3.08621,1.13454 17.49541,6.85907 20.34728,8.42336 2.98767,1.63879 1.92573,1.86439 6.9804,3.95652 1.63812,0.67802 3.09593,0.60725 4.0029,-0.21487 3.08451,-2.79594 5.32557,-5.45813 7.06654,-8.06 0.82643,-1.59963 -0.61965,-2.96911 -2.10634,-3.98478 z"
         style="fill:#000000;fill-opacity:1;stroke:none;stroke-width:10;stroke-linecap:round;stroke-linejoin:round;stroke-miterlimit:4;stroke-dasharray:none;stroke-dashoffset:0;stroke-opacity:1" />
      <path
         style="fill:#000000;fill-opacity:1;stroke:none;stroke-width:10;stroke-linecap:round;stroke-linejoin:round;stroke-miterlimit:4;stroke-dasharray:none;stroke-dashoffset:0;stroke-opacity:1"
         d="m 428.84443,832.17914 c -9.59103,-5.75011 -19.63143,-10.51023 -30.21089,-11.98128 -1.4729,-1.03557 -3.9792,0.0385 -4.21923,1.82296 -0.80146,5.95824 -3.19756,5.68443 -4.88184,10.81142 -0.56196,1.7106 0.0947,3.71414 1.82296,4.21922 11.61402,3.39419 21.66556,5.7063 30.62509,11.15291 1.53853,0.93529 3.96187,-0.041 4.21922,-1.82296 0.51662,-3.57697 2.52181,-1.07698 4.46767,-9.98305 0.38425,-1.75901 -0.12407,-3.62294 -1.82298,-4.21922 z"
         id="path4473"
         inkscape:connector-curvature="0"
         sodipodi:nodetypes="ccssssssc" />
      <path
         style="fill:#000000;fill-opacity:1;stroke:none;stroke-width:10;stroke-linecap:round;stroke-linejoin:round;stroke-miterlimit:4;stroke-dasharray:none;stroke-dashoffset:0;stroke-opacity:1"
         d="m 452.95638,808.11218 c -4.80725,-10.09662 -10.99463,-13.63478 -18.99294,-20.71405 -0.65386,-1.67759 -3.33583,-2.16975 -4.52316,-0.81617 -3.96446,4.51951 -10.45891,4.60306 -12.86323,9.43442 -0.8022,1.61196 -0.43621,3.6796 1.19703,4.43758 10.05366,4.66588 14.05683,5.81663 22.85979,16.39377 5.93181,1.57736 10.28289,-3.05858 11.50635,-4.21243 1.29339,-1.25257 1.90135,-3.08642 0.81616,-4.52317 z"
         id="path4475"
         inkscape:connector-curvature="0"
         sodipodi:nodetypes="ccssscccc" />
      <path
         sodipodi:nodetypes="ccssscccc"
         inkscape:connector-curvature="0"
         id="path4477"
         d="m 534.48116,811.11218 c 4.80725,-10.09662 10.99463,-13.63478 18.99294,-20.71405 0.65386,-1.67759 3.33583,-2.16975 4.52316,-0.81617 3.96446,4.51951 10.45891,2.72865 12.86323,7.56001 0.8022,1.61196 0.4247,3.65527 -1.19702,4.43758 -9.86647,4.75948 -11.19586,8.87302 -22.03142,18.43386 -5.93181,1.57735 -11.11127,-3.22426 -12.33473,-4.37811 -1.29339,-1.25257 -1.90135,-3.08642 -0.81616,-4.52317 z"
         style="fill:#000000;fill-opacity:1;stroke:none;stroke-width:10;stroke-linecap:round;stroke-linejoin:round;stroke-miterlimit:4;stroke-dasharray:none;stroke-dashoffset:0;stroke-opacity:1" />
      <path
         style="fill:#000000;fill-opacity:1;stroke:none;stroke-width:10;stroke-linecap:round;stroke-linejoin:round;stroke-miterlimit:4;stroke-dasharray:none;stroke-dashoffset:0;stroke-opacity:1"
         d="m 518.53697,803.52071 c 2.74891,-10.8395 8.12877,-15.5149 14.59526,-24.01628 0.31463,-1.77281 2.84941,-2.77785 4.27761,-1.68142 4.76872,3.6609 11.15509,2.47807 14.45428,6.74869 1.10076,1.42487 1.12842,3.50257 -0.30989,4.58573 -8.75066,6.58983 -9.61853,9.04499 -18.38467,20.53297 -5.51105,2.70237 -11.52644,-0.99862 -12.95119,-1.89211 -1.51256,-0.97671 -2.46602,-2.65704 -1.68141,-4.27762 z"
         id="path4479"
         inkscape:connector-curvature="0"
         sodipodi:nodetypes="ccssscccc" />
      <path
         sodipodi:nodetypes="ccssscccc"
         inkscape:connector-curvature="0"
         id="path4481"
         d="m 469.53959,801.02728 c -2.90731,-10.7981 -8.35505,-15.39423 -14.94532,-23.80003 -0.34055,-1.76801 -2.88977,-2.73583 -4.30177,-1.61861 -4.7146,3.73033 -11.11761,2.64113 -14.35392,6.9596 -1.07978,1.44083 -1.10904,3.56401 0.37701,4.5807 9.17178,6.27495 11.4204,7.94863 18.68331,20.2616 5.55003,2.62138 11.51058,-1.16727 12.9221,-2.08153 1.4981,-0.99875 2.42685,-2.69287 1.6186,-4.30178 z"
         style="fill:#000000;fill-opacity:1;stroke:none;stroke-width:10;stroke-linecap:round;stroke-linejoin:round;stroke-miterlimit:4;stroke-dasharray:none;stroke-dashoffset:0;stroke-opacity:1" />
      <path
         style="fill:#000000;fill-opacity:1;stroke:none;stroke-width:10;stroke-linecap:round;stroke-linejoin:round;stroke-miterlimit:4;stroke-dasharray:none;stroke-dashoffset:0;stroke-opacity:1"
         d="m 486.73703,796.57115 c -1.00801,-11.13712 -5.58467,-16.60123 -10.63202,-26.0147 -0.0316,-1.80023 -2.37652,-3.19182 -3.95954,-2.33392 -5.28562,2.86444 -10.46891,0.69087 -14.39934,4.38879 -1.31136,1.23379 -1.6658,3.28123 -0.41595,4.57733 7.60398,7.88537 8.07449,10.44655 14.92258,23.17143 5.01686,3.53633 10.60271,0.82859 12.15037,0.17056 1.64747,-0.72638 2.85359,-2.23565 2.33392,-3.95954 z"
         id="path4483"
         inkscape:connector-curvature="0"
         sodipodi:nodetypes="ccssscccc" />
      <path
         sodipodi:nodetypes="ccsssssscc"
         inkscape:connector-curvature="0"
         id="path4485"
         d="m 501.24123,797.82115 c 1.00801,-11.13712 5.58467,-16.60123 10.63202,-26.0147 0.0316,-1.80023 2.37652,-3.19182 3.95954,-2.33392 5.28562,2.86444 11.40611,0.69087 15.33654,4.38879 1.31136,1.23379 1.6658,3.28123 0.41595,4.57733 -7.60398,7.88537 -8.07449,10.44655 -14.92258,23.17143 -0.85327,1.5855 -2.11549,2.16751 -3.89305,1.88096 -3.69239,-0.59522 -0.85303,1.96707 -9.19452,-1.7104 -1.64747,-0.72638 -2.85359,-2.23565 -2.33392,-3.95954 z"
         style="fill:#000000;fill-opacity:1;stroke:none;stroke-width:10;stroke-linecap:round;stroke-linejoin:round;stroke-miterlimit:4;stroke-dasharray:none;stroke-dashoffset:0;stroke-opacity:1" />
      <path
         sodipodi:nodetypes="csscsccscsc"
         inkscape:connector-curvature="0"
         id="path4487"
         d="m 498.92881,796.94116 c 0.78757,-2.22455 1.31491,-4.40395 1.93432,-6.64702 0.68705,-2.48802 1.48737,-5.0442 2.88173,-7.60803 2.87568,-5.28753 5.81277,-9.67485 7.39064,-13.80811 0.58188,-1.70389 -3.94504,-2.41382 -5.77149,-2.42231 -3.91013,-0.0182 -8.88614,0.11903 -16.18133,-0.65078 -2.96267,-0.78769 -12.00955,0.99906 -11.25261,3.90887 1.98464,2.11279 3.19028,5.12733 4.6027,7.83576 3.14996,6.04028 5.57222,12.84107 7.51312,20.89919 1.7899,1.25841 2.43482,1.07091 5.06181,0.48047 1.75393,-0.39421 3.26701,-0.62512 3.82111,-1.98804 z"
         style="fill:#000000;fill-opacity:1;stroke:none;stroke-width:10;stroke-linecap:round;stroke-linejoin:round;stroke-miterlimit:4;stroke-dasharray:none;stroke-dashoffset:0;stroke-opacity:1" />
      <path
         style="fill:#000000;fill-opacity:1;stroke:none;stroke-width:10;stroke-linecap:round;stroke-linejoin:round;stroke-miterlimit:4;stroke-dasharray:none;stroke-dashoffset:0;stroke-opacity:1"
         d="m 369.21738,1011.3621 c 29.73077,4.0834 58.37246,-0.8032 86.78295,1.5021 46.4187,3.7666 92.0933,-0.8279 135.46883,0.2988 10.97806,0.2852 21.91005,-1.0801 32.81344,-1.8009 2.88413,-0.1907 5.21739,2.327 5.21739,5.2174 l 0,4.5652 c 0,2.8905 -2.32759,5.1572 -5.21739,5.2174 -17.39744,0.3626 -27.65534,2.3644 -44.7779,2.7243 -54.75314,0.9347 -113.12681,1.1428 -161.03628,0.2115 -16.17661,-0.2656 -32.55927,-1.4764 -49.25104,-2.9358 -2.87945,-0.2518 -5.21739,-2.3269 -5.21739,-5.2174 l 0,-4.5652 c 0,-2.8904 2.35384,-5.6107 5.21739,-5.2174 z"
         id="path4489"
         inkscape:connector-curvature="0"
         sodipodi:nodetypes="sssssssccssss" />
    </g>
    <path
       sodipodi:type="star"
       style="fill:none;fill-opacity:1;stroke:#000000;stroke-width:3.29626012;stroke-linecap:round;stroke-linejoin:round;stroke-miterlimit:4;stroke-dasharray:none;stroke-dashoffset:0;stroke-opacity:1"
       id="path5203"
       sodipodi:sides="6"
       sodipodi:cx="-85.714279"
       sodipodi:cy="670.93359"
       sodipodi:r1="126.60601"
       sodipodi:r2="109.64402"
       sodipodi:arg1="0.52359878"
       sodipodi:arg2="1.0471976"
       inkscape:flatsided="true"
       inkscape:rounded="0"
       inkscape:randomized="0"
       d="m 23.929742,734.2366 -109.644022,63.303 -109.64402,-63.303 0,-126.60601 109.644021,-63.30301 109.644021,63.30301 z"
       transform="matrix(0.60651048,0,0,0.60698613,160.27142,245.58699)" />
    <text
       xml:space="preserve"
       style="font-style:normal;font-weight:normal;font-size:27.49554634px;line-height:125%;font-family:sans-serif;letter-spacing:0px;word-spacing:0px;fill:#000000;fill-opacity:1;stroke:none;stroke-width:1px;stroke-linecap:butt;stroke-linejoin:miter;stroke-opacity:1"
       x="96.536552"
       y="675.24774"
       id="text5205"
       sodipodi:linespacing="125%"><tspan
         sodipodi:role="line"
         id="tspan5207"
         x="96.536552"
         y="675.24774"
         style="font-style:normal;font-variant:normal;font-weight:normal;font-stretch:normal;font-family:'Archivo Black';-inkscape-font-specification:'Archivo Black, '">A</tspan></text>
    <g
       style="fill:#000000"
       id="g5209"
       transform="matrix(0.38107258,0,0,0.38107258,63.495431,300.86004)">
      <path
         id="path5211"
         d="m 489.49218,804.70003 c -4.61425,0.27353 -9.07316,0.91079 -13.32813,1.89844 l 0,15.25 -14.23047,0 0,-10.37696 c -4.87917,2.2626 -9.35095,5.01509 -13.32617,8.18165 l 0,2.19531 -2.58789,0 c -4.42955,3.95061 -8.1527,8.4371 -11.02344,13.32617 l 13.61133,0 0,14.35547 -19.26367,0 c -0.11971,0.5462 -0.24332,1.0913 -0.34375,1.64258 l -2.11523,11.68554 21.72265,0 0,17.4336 6.66211,20.91015 6.66406,-20.91015 0,-17.4336 14.23047,0 0,17.4336 6.66406,20.91015 6.66407,-20.91015 0,-17.4336 14.23047,0 0,17.4336 6.66406,20.91015 6.66211,-20.91015 0,-17.4336 14.23047,0 0,17.4336 6.66406,20.91015 6.66406,-20.91015 0,-17.4336 21.48047,0 -2.33789,-9.43554 c 0,-1.26082 -0.1783,-2.56138 -0.51172,-3.89258 l -18.63086,0 0,-14.35547 10.17188,0 c -5.95019,-6.74326 -14.32604,-13.35376 -23.5,-18.69727 l 0,5.3711 -14.23047,0 0,-12.32422 c -4.5104,-1.78666 -9.0059,-3.1491 -13.32617,-3.99805 l 0,16.32227 -14.23047,0 0,-17.14844 z m -27.5586,30.47461 14.23047,0 0,14.35547 -14.23047,0 0,-14.35547 z m 27.5586,0 14.23047,0 0,14.35547 -14.23047,0 0,-14.35547 z m 27.55664,0 14.23047,0 0,14.35547 -14.23047,0 0,-14.35547 z"
         style="fill:#000000;fill-opacity:1;stroke:none;stroke-width:10;stroke-linecap:round;stroke-linejoin:round;stroke-miterlimit:4;stroke-dasharray:none;stroke-dashoffset:0;stroke-opacity:1"
         inkscape:connector-curvature="0" />
      <g
         id="g5213"
         transform="translate(345.99999,0)"
         style="fill:#000000">
        <path
           style="fill:#000000;fill-opacity:1;stroke:none;stroke-width:10;stroke-linecap:round;stroke-linejoin:round;stroke-miterlimit:4;stroke-dasharray:none;stroke-dashoffset:0;stroke-opacity:1"
           d="m 225.24998,987.86212 c 10.35963,1.18427 20.82916,2.09376 32.5,0 1.77221,-0.31794 2.98755,1.46873 3.25,3.25 0.81037,5.49999 2.35592,10.99998 0,16.49998 -0.70894,1.6551 -1.45007,3.2955 -3.25,3.25 -10.83333,-0.2736 -21.66667,-1.5424 -32.5,0 -1.78252,0.2538 -3.21413,-1.4499 -3.25,-3.25 -0.0744,-3.7345 -1.71649,-8.17664 0,-16.49998 0.36366,-1.76339 1.46115,-3.45449 3.25,-3.25 z"
           id="path5215"
           inkscape:connector-curvature="0"
           sodipodi:nodetypes="sssssssss" />
        <path
           sodipodi:nodetypes="sssssssss"
           inkscape:connector-curvature="0"
           id="path5217"
           d="m 225.24998,964.11212 c 11.27551,-1.56337 21.19397,0.99933 32.5,0 1.79351,-0.15853 2.98755,1.46873 3.25,3.25 0.81037,5.49999 2.35592,10.99998 0,16.49998 -0.70894,1.6551 -1.47135,2.97033 -3.25,3.25 -12.30043,1.93409 -22.86031,0.24038 -32.5,0 -1.79994,-0.0449 -3.21413,-1.4499 -3.25,-3.25 -0.0744,-3.7345 -1.71649,-8.17664 0,-16.49998 0.36366,-1.76339 1.46656,-3.00272 3.25,-3.25 z"
           style="fill:#000000;fill-opacity:1;stroke:none;stroke-width:10;stroke-linecap:round;stroke-linejoin:round;stroke-miterlimit:4;stroke-dasharray:none;stroke-dashoffset:0;stroke-opacity:1" />
        <path
           style="fill:#000000;fill-opacity:1;stroke:none;stroke-width:10;stroke-linecap:round;stroke-linejoin:round;stroke-miterlimit:4;stroke-dasharray:none;stroke-dashoffset:0;stroke-opacity:1"
           d="m 225.24998,940.36212 c 11.27551,-1.56337 21.19397,0.99933 32.5,0 1.79351,-0.15853 2.98755,1.46873 3.25,3.25 0.81037,5.49999 2.35592,10.99998 0,16.49998 -0.70894,1.6551 -1.45023,3.30123 -3.25,3.25 -12.30043,-0.3501 -22.86031,-0.67988 -32.5,0 -1.79604,0.12667 -3.21413,-1.4499 -3.25,-3.25 -0.0744,-3.7345 -1.71649,-8.17664 0,-16.49998 0.36366,-1.76339 1.46656,-3.00272 3.25,-3.25 z"
           id="path5219"
           inkscape:connector-curvature="0"
           sodipodi:nodetypes="sssssssss" />
        <path
           sodipodi:nodetypes="sssssssss"
           inkscape:connector-curvature="0"
           id="path5221"
           d="m 225.24998,915.96694 c 11.02491,0.44144 20.97357,2.76253 32.5,0 1.75092,-0.41964 3.45941,1.46172 3.25,3.25 -0.64404,5.49999 0.98238,10.99998 0,16.49998 -0.31659,1.77249 -1.4623,3.03568 -3.25,3.25 -12.30043,1.47467 -22.86031,0.26159 -32.5,0 -1.79984,-0.0488 -3.67489,-1.50039 -3.25,-3.25 0.90691,-3.7345 0.49668,-8.17664 0,-16.49998 -0.10725,-1.7973 1.45094,-3.32203 3.25,-3.25 z"
           style="fill:#000000;fill-opacity:1;stroke:none;stroke-width:10;stroke-linecap:round;stroke-linejoin:round;stroke-miterlimit:4;stroke-dasharray:none;stroke-dashoffset:0;stroke-opacity:1" />
        <path
           style="fill:#000000;fill-opacity:1;stroke:none;stroke-width:10;stroke-linecap:round;stroke-linejoin:round;stroke-miterlimit:4;stroke-dasharray:none;stroke-dashoffset:0;stroke-opacity:1"
           d="m 225.24998,892.45564 c 11.2218,-1.43633 22.40418,-1.97114 32.5,0 1.75092,-0.41964 2.8598,1.49229 3.25,3.25 1.22095,5.49999 1.23015,10.99998 0,16.49998 -0.39301,1.75713 -1.45577,3.09985 -3.25,3.25 -11.66887,0.97651 -21.64222,0.6642 -32.5,0 -1.79715,-0.10994 -3.38982,-1.45497 -3.25,-3.25 0.2909,-3.7345 -3.15641,-8.17664 0,-16.49998 0.63843,-1.68351 1.45094,-3.32203 3.25,-3.25 z"
           id="path5223"
           inkscape:connector-curvature="0"
           sodipodi:nodetypes="ccssssssc" />
        <path
           sodipodi:nodetypes="ccssssssc"
           inkscape:connector-curvature="0"
           id="path5225"
           d="m 225.42676,868.06046 c 11.2218,-1.43633 22.40418,-1.97114 32.5,0 1.75092,-0.41964 2.8598,1.49229 3.25,3.25 1.22095,5.49999 1.23015,10.99998 0,16.49998 -0.39301,1.75713 -1.45342,3.36883 -3.25,3.25 -11.96351,-0.79132 -21.81158,-0.35198 -32.5,0 -1.79953,0.0593 -3.6677,-1.49866 -3.25,-3.25 0.83845,-3.51548 -1.47447,-7.50386 0,-16.49998 0.29122,-1.77679 1.45094,-3.32203 3.25,-3.25 z"
           style="fill:#000000;fill-opacity:1;stroke:none;stroke-width:10;stroke-linecap:round;stroke-linejoin:round;stroke-miterlimit:4;stroke-dasharray:none;stroke-dashoffset:0;stroke-opacity:1" />
        <path
           sodipodi:nodetypes="sssssssss"
           inkscape:connector-curvature="0"
           id="path5227"
           d="m 75.160925,987.86212 c -10.35963,1.18427 -20.82916,2.09376 -32.5,0 -1.77221,-0.31794 -2.98755,1.46873 -3.25,3.25 -0.81037,5.49999 -2.35592,10.99998 0,16.49998 0.70894,1.6551 1.45007,3.2955 3.25,3.25 10.83333,-0.2736 21.66667,-1.5424 32.5,0 1.78252,0.2538 3.21413,-1.4499 3.25,-3.25 0.0744,-3.7345 1.71649,-8.17664 0,-16.49998 -0.36366,-1.76339 -1.46115,-3.45449 -3.25,-3.25 z"
           style="fill:#000000;fill-opacity:1;stroke:none;stroke-width:10;stroke-linecap:round;stroke-linejoin:round;stroke-miterlimit:4;stroke-dasharray:none;stroke-dashoffset:0;stroke-opacity:1" />
        <path
           style="fill:#000000;fill-opacity:1;stroke:none;stroke-width:10;stroke-linecap:round;stroke-linejoin:round;stroke-miterlimit:4;stroke-dasharray:none;stroke-dashoffset:0;stroke-opacity:1"
           d="m 75.160925,964.11212 c -11.27551,-1.56337 -21.19397,0.99933 -32.5,0 -1.79351,-0.15853 -2.98755,1.46873 -3.25,3.25 -0.81037,5.49999 -2.35592,10.99998 0,16.49998 0.70894,1.6551 1.47135,2.97033 3.25,3.25 12.30043,1.93409 22.86031,0.24038 32.5,0 1.79994,-0.0449 3.21413,-1.4499 3.25,-3.25 0.0744,-3.7345 1.71649,-8.17664 0,-16.49998 -0.36366,-1.76339 -1.46656,-3.00272 -3.25,-3.25 z"
           id="path5229"
           inkscape:connector-curvature="0"
           sodipodi:nodetypes="sssssssss" />
        <path
           sodipodi:nodetypes="sssssssss"
           inkscape:connector-curvature="0"
           id="path5231"
           d="m 75.160925,940.36212 c -11.27551,-1.56337 -21.19397,0.99933 -32.5,0 -1.79351,-0.15853 -2.98755,1.46873 -3.25,3.25 -0.81037,5.49999 -2.35592,10.99998 0,16.49998 0.70894,1.6551 1.45023,3.30123 3.25,3.25 12.30043,-0.3501 22.86031,-0.67988 32.5,0 1.79604,0.12667 3.21413,-1.4499 3.25,-3.25 0.0744,-3.7345 1.71649,-8.17664 0,-16.49998 -0.36366,-1.76339 -1.46656,-3.00272 -3.25,-3.25 z"
           style="fill:#000000;fill-opacity:1;stroke:none;stroke-width:10;stroke-linecap:round;stroke-linejoin:round;stroke-miterlimit:4;stroke-dasharray:none;stroke-dashoffset:0;stroke-opacity:1" />
        <path
           style="fill:#000000;fill-opacity:1;stroke:none;stroke-width:10;stroke-linecap:round;stroke-linejoin:round;stroke-miterlimit:4;stroke-dasharray:none;stroke-dashoffset:0;stroke-opacity:1"
           d="m 75.160925,915.96694 c -11.02491,0.44144 -20.97357,2.76253 -32.5,0 -1.75092,-0.41964 -3.45941,1.46172 -3.25,3.25 0.64404,5.49999 -0.98238,10.99998 0,16.49998 0.31659,1.77249 1.4623,3.03568 3.25,3.25 12.30043,1.47467 22.86031,0.26159 32.5,0 1.79984,-0.0488 3.67489,-1.50039 3.25,-3.25 -0.90691,-3.7345 -0.49668,-8.17664 0,-16.49998 0.10725,-1.7973 -1.45094,-3.32203 -3.25,-3.25 z"
           id="path5233"
           inkscape:connector-curvature="0"
           sodipodi:nodetypes="sssssssss" />
        <path
           sodipodi:nodetypes="ccssssssc"
           inkscape:connector-curvature="0"
           id="path5235"
           d="m 75.160925,892.45564 c -11.2218,-1.43633 -22.40418,-1.97114 -32.5,0 -1.75092,-0.41964 -2.8598,1.49229 -3.25,3.25 -1.22095,5.49999 -1.23015,10.99998 0,16.49998 0.39301,1.75713 1.45577,3.09985 3.25,3.25 11.66887,0.97651 21.64222,0.6642 32.5,0 1.79715,-0.10994 3.38982,-1.45497 3.25,-3.25 -0.2909,-3.7345 3.15641,-8.17664 0,-16.49998 -0.63843,-1.68351 -1.45094,-3.32203 -3.25,-3.25 z"
           style="fill:#000000;fill-opacity:1;stroke:none;stroke-width:10;stroke-linecap:round;stroke-linejoin:round;stroke-miterlimit:4;stroke-dasharray:none;stroke-dashoffset:0;stroke-opacity:1" />
        <path
           style="fill:#000000;fill-opacity:1;stroke:none;stroke-width:10;stroke-linecap:round;stroke-linejoin:round;stroke-miterlimit:4;stroke-dasharray:none;stroke-dashoffset:0;stroke-opacity:1"
           d="m 74.984145,868.06046 c -11.2218,-1.43633 -22.40418,-1.97114 -32.5,0 -1.75092,-0.41964 -2.8598,1.49229 -3.25,3.25 -1.22095,5.49999 -1.23015,10.99998 0,16.49998 0.39301,1.75713 1.45342,3.36883 3.25,3.25 11.96351,-0.79132 21.81158,-0.35198 32.5,0 1.79953,0.0593 3.6677,-1.49866 3.25,-3.25 -0.83845,-3.51548 1.47447,-7.50386 0,-16.49998 -0.29122,-1.77679 -1.45094,-3.32203 -3.25,-3.25 z"
           id="path5237"
           inkscape:connector-curvature="0"
           sodipodi:nodetypes="ccssssssc" />
        <path
           style="fill:#000000;fill-opacity:1;stroke:none;stroke-width:10;stroke-linecap:round;stroke-linejoin:round;stroke-miterlimit:4;stroke-dasharray:none;stroke-dashoffset:0;stroke-opacity:1"
           d="m 73.778928,848.93945 c -10.070885,-4.86097 -20.49995,-8.69545 -31.169007,-9.2056 -1.56035,-0.8984 -3.959466,0.39754 -4.03746,2.19634 -0.260415,6.00627 -0.662766,16.7031 -0.338316,22.08989 0.10825,1.79729 1.45731,3.41762 3.25,3.25 12.04729,-1.12644 22.16359,-1.76001 32.5,0 1.77496,0.30223 3.6677,-1.49866 3.25,-3.25 -0.83845,-3.51548 -1.420662,-5.97531 -1.258876,-11.04317 0.05745,-1.79958 -0.450556,-3.59696 -2.196341,-4.03746 z"
           id="path5239"
           inkscape:connector-curvature="0"
           sodipodi:nodetypes="ccssssssc" />
        <path
           sodipodi:nodetypes="ccssssssc"
           inkscape:connector-curvature="0"
           id="path5241"
           d="m 224.93879,849.99527 c 9.73312,-5.5062 19.89047,-10.01139 30.5037,-11.21493 1.49856,-0.99806 3.97695,0.13897 4.17186,1.92888 0.65082,5.97658 1.7486,16.62453 1.77548,22.02102 0.009,1.80052 -1.23177,3.50523 -3.03156,3.45466 -12.09507,-0.33987 -22.23115,-0.31361 -32.43108,2.11548 -1.75152,0.41712 -3.75747,-1.25674 -3.45466,-3.03156 0.60785,-3.5626 1.02871,-6.05511 0.53738,-11.10169 -0.17451,-1.79202 0.21548,-3.61866 1.92888,-4.17186 z"
           style="fill:#000000;fill-opacity:1;stroke:none;stroke-width:10;stroke-linecap:round;stroke-linejoin:round;stroke-miterlimit:4;stroke-dasharray:none;stroke-dashoffset:0;stroke-opacity:1" />
        <path
           sodipodi:nodetypes="ccssssssc"
           inkscape:connector-curvature="0"
           id="path5243"
           d="m 216.58821,832.00236 c 9.59103,-5.75011 19.63143,-10.51023 30.21089,-11.98128 1.4729,-1.03557 3.9792,0.0385 4.21923,1.82296 0.80146,5.95824 3.36324,6.34713 5.04752,11.47412 0.56196,1.7106 -0.0947,3.71414 -1.82296,4.21922 -11.61402,3.39419 -21.25137,6.53468 -30.2109,11.98129 -1.53853,0.93529 -3.96187,-0.041 -4.21922,-1.82296 -0.51662,-3.57697 -3.10168,-2.56806 -5.04754,-11.47413 -0.38425,-1.75901 0.12407,-3.62294 1.82298,-4.21922 z"
           style="fill:#000000;fill-opacity:1;stroke:none;stroke-width:10;stroke-linecap:round;stroke-linejoin:round;stroke-miterlimit:4;stroke-dasharray:none;stroke-dashoffset:0;stroke-opacity:1" />
        <path
           style="fill:#000000;fill-opacity:1;stroke:none;stroke-width:10;stroke-linecap:round;stroke-linejoin:round;stroke-miterlimit:4;stroke-dasharray:none;stroke-dashoffset:0;stroke-opacity:1"
           d="m 203.80589,820.81948 c 7.77599,-8.03652 16.24226,-15.23309 26.0805,-19.39218 1.15469,-1.3815 3.85358,-0.99271 4.54728,0.66883 2.31626,5.54778 7.82948,8.0146 9.85798,13.0154 0.67681,1.6685 0.1577,3.712 -1.53228,4.33326 -11.35676,4.17492 -20.75864,7.96251 -29.32768,14.00488 -5.93688,0.50023 -12.73975,-10.34752 -9.6258,-12.63019 z"
           id="path5245"
           inkscape:connector-curvature="0"
           sodipodi:nodetypes="ccssscc" />
        <path
           sodipodi:nodetypes="ccsssssscc"
           inkscape:connector-curvature="0"
           id="path5247"
           d="m 93.750256,818.6427 c -7.77599,-8.03652 -14.24226,-13.23309 -24.0805,-17.39218 -1.15469,-1.3815 -3.85358,-0.99271 -4.54728,0.66883 -2.31626,5.54778 -7.82948,8.0146 -9.85798,13.0154 -0.67681,1.6685 -0.157699,3.712 1.53228,4.33326 3.086211,1.13454 17.49541,6.85907 20.347282,8.42336 2.987669,1.63879 1.925727,1.86439 6.980398,3.95652 1.638128,0.67802 3.095938,0.60725 4.002907,-0.21487 3.084511,-2.79594 5.988269,-6.20367 7.729233,-8.80554 0.82643,-1.59963 -0.61965,-2.96911 -2.10634,-3.98478 z"
           style="fill:#000000;fill-opacity:1;stroke:none;stroke-width:10;stroke-linecap:round;stroke-linejoin:round;stroke-miterlimit:4;stroke-dasharray:none;stroke-dashoffset:0;stroke-opacity:1" />
        <path
           style="fill:#000000;fill-opacity:1;stroke:none;stroke-width:10;stroke-linecap:round;stroke-linejoin:round;stroke-miterlimit:4;stroke-dasharray:none;stroke-dashoffset:0;stroke-opacity:1"
           d="m 82.844438,832.17914 c -9.59103,-5.75011 -19.63143,-10.51023 -30.21089,-11.98128 -1.4729,-1.03557 -3.9792,0.0385 -4.21923,1.82296 -0.80146,5.95824 -3.36324,6.34713 -5.04752,11.47412 -0.56196,1.7106 0.0947,3.71414 1.82296,4.21922 11.61402,3.39419 21.25137,6.53468 30.2109,11.98129 1.53853,0.93529 3.96187,-0.041 4.21922,-1.82296 0.51662,-3.57697 3.10168,-2.56806 5.04754,-11.47413 0.38425,-1.75901 -0.12407,-3.62294 -1.82298,-4.21922 z"
           id="path5249"
           inkscape:connector-curvature="0"
           sodipodi:nodetypes="ccssssssc" />
        <path
           style="fill:#000000;fill-opacity:1;stroke:none;stroke-width:10;stroke-linecap:round;stroke-linejoin:round;stroke-miterlimit:4;stroke-dasharray:none;stroke-dashoffset:0;stroke-opacity:1"
           d="m 106.95639,808.11218 c -4.80725,-10.09662 -10.994628,-13.63478 -18.99294,-20.71405 -0.653859,-1.67759 -3.335826,-2.16975 -4.523158,-0.81617 -3.96446,4.51951 -10.458911,4.60306 -12.863232,9.43442 -0.802201,1.61196 -0.424699,3.65527 1.197026,4.43758 9.866463,4.75948 11.195856,6.99861 22.031419,16.55945 5.931807,1.57736 11.111265,-3.22426 12.334725,-4.37811 1.29339,-1.25257 1.90135,-3.08642 0.81616,-4.52317 z"
           id="path5251"
           inkscape:connector-curvature="0"
           sodipodi:nodetypes="ccssscccc" />
        <path
           sodipodi:nodetypes="ccssscccc"
           inkscape:connector-curvature="0"
           id="path5253"
           d="m 188.48117,811.11218 c 4.80725,-10.09662 10.99463,-13.63478 18.99294,-20.71405 0.65386,-1.67759 3.33583,-2.16975 4.52316,-0.81617 3.96446,4.51951 10.45891,4.60306 12.86323,9.43442 0.8022,1.61196 0.4247,3.65527 -1.19702,4.43758 -9.86647,4.75948 -11.19586,6.99861 -22.03142,16.55945 -5.93181,1.57735 -11.11127,-3.22426 -12.33473,-4.37811 -1.29339,-1.25257 -1.90135,-3.08642 -0.81616,-4.52317 z"
           style="fill:#000000;fill-opacity:1;stroke:none;stroke-width:10;stroke-linecap:round;stroke-linejoin:round;stroke-miterlimit:4;stroke-dasharray:none;stroke-dashoffset:0;stroke-opacity:1" />
        <path
           style="fill:#000000;fill-opacity:1;stroke:none;stroke-width:10;stroke-linecap:round;stroke-linejoin:round;stroke-miterlimit:4;stroke-dasharray:none;stroke-dashoffset:0;stroke-opacity:1"
           d="m 172.53698,803.52071 c 2.74891,-10.8395 8.12877,-15.5149 14.59526,-24.01628 0.31463,-1.77281 2.84941,-2.77785 4.27761,-1.68142 4.76872,3.6609 11.15509,2.47807 14.45428,6.74869 1.10076,1.42487 1.12842,3.50257 -0.30989,4.58573 -8.75066,6.58983 -9.61853,9.04499 -18.38467,20.53297 -5.51105,2.70237 -11.52644,-0.99862 -12.95119,-1.89211 -1.51256,-0.97671 -2.46602,-2.65704 -1.68141,-4.27762 z"
           id="path5255"
           inkscape:connector-curvature="0"
           sodipodi:nodetypes="ccssscccc" />
        <path
           sodipodi:nodetypes="ccssscccc"
           inkscape:connector-curvature="0"
           id="path5257"
           d="m 123.5396,801.02728 c -2.90731,-10.7981 -8.35505,-15.39423 -14.94532,-23.80003 -0.34055,-1.76801 -2.88977,-2.73583 -4.30177,-1.61861 -4.7146,3.73033 -11.117611,2.64113 -14.353916,6.9596 -1.079788,1.44083 -1.077022,3.51872 0.377003,4.5807 8.846197,6.461 9.749923,8.90319 18.683313,20.2616 5.55003,2.62138 11.51058,-1.16727 12.9221,-2.08153 1.4981,-0.99875 2.42685,-2.69287 1.6186,-4.30178 z"
           style="fill:#000000;fill-opacity:1;stroke:none;stroke-width:10;stroke-linecap:round;stroke-linejoin:round;stroke-miterlimit:4;stroke-dasharray:none;stroke-dashoffset:0;stroke-opacity:1" />
        <path
           style="fill:#000000;fill-opacity:1;stroke:none;stroke-width:10;stroke-linecap:round;stroke-linejoin:round;stroke-miterlimit:4;stroke-dasharray:none;stroke-dashoffset:0;stroke-opacity:1"
           d="m 140.73704,796.57115 c -1.00801,-11.13712 -5.58467,-16.60123 -10.63202,-26.0147 -0.0316,-1.80023 -2.37652,-3.19182 -3.95954,-2.33392 -5.28562,2.86444 -11.40611,0.69087 -15.33654,4.38879 -1.31136,1.23379 -1.6658,3.28123 -0.41595,4.57733 7.60398,7.88537 8.07449,10.44655 14.92258,23.17143 5.01686,3.53633 11.53991,0.82859 13.08757,0.17056 1.64747,-0.72638 2.85359,-2.23565 2.33392,-3.95954 z"
           id="path5259"
           inkscape:connector-curvature="0"
           sodipodi:nodetypes="ccssscccc" />
        <path
           sodipodi:nodetypes="ccsssssscc"
           inkscape:connector-curvature="0"
           id="path5261"
           d="m 155.24124,797.82115 c 1.00801,-11.13712 5.58467,-16.60123 10.63202,-26.0147 0.0316,-1.80023 2.37652,-3.19182 3.95954,-2.33392 5.28562,2.86444 11.40611,0.69087 15.33654,4.38879 1.31136,1.23379 1.6658,3.28123 0.41595,4.57733 -7.60398,7.88537 -8.07449,10.44655 -14.92258,23.17143 -0.85327,1.5855 -2.11549,2.16751 -3.89305,1.88096 -3.69239,-0.59522 -0.85303,1.96707 -9.19452,-1.7104 -1.64747,-0.72638 -2.85359,-2.23565 -2.33392,-3.95954 z"
           style="fill:#000000;fill-opacity:1;stroke:none;stroke-width:10;stroke-linecap:round;stroke-linejoin:round;stroke-miterlimit:4;stroke-dasharray:none;stroke-dashoffset:0;stroke-opacity:1" />
        <path
           sodipodi:nodetypes="csscsccscsc"
           inkscape:connector-curvature="0"
           id="path5263"
           d="m 154.10033,796.94116 c 0.78757,-2.22455 1.31491,-4.40395 1.93432,-6.64702 0.68705,-2.48802 1.48737,-5.0442 2.88173,-7.60803 2.87568,-5.28753 5.81277,-9.67485 7.39064,-13.80811 0.58188,-1.70389 -3.94504,-2.41382 -5.77149,-2.42231 -3.91013,-0.0182 -11.46346,0.11903 -18.75865,-0.65078 -2.96267,-0.78769 -12.00955,0.99906 -11.25261,3.90887 1.98464,2.11279 3.19028,5.12733 4.6027,7.83576 3.14996,6.04028 5.57222,12.84107 7.51312,20.89919 1.7899,1.25841 5.01214,1.07091 7.63913,0.48047 1.75393,-0.39421 3.26701,-0.62512 3.82111,-1.98804 z"
           style="fill:#000000;fill-opacity:1;stroke:none;stroke-width:10;stroke-linecap:round;stroke-linejoin:round;stroke-miterlimit:4;stroke-dasharray:none;stroke-dashoffset:0;stroke-opacity:1" />
        <path
           style="fill:#000000;fill-opacity:1;stroke:none;stroke-width:10;stroke-linecap:round;stroke-linejoin:round;stroke-miterlimit:4;stroke-dasharray:none;stroke-dashoffset:0;stroke-opacity:1"
           d="m 23.217391,1011.3621 c 29.730771,4.0834 58.372456,-0.8032 86.782949,1.5021 46.4187,3.7666 92.0933,-0.8279 135.46883,0.2988 10.97806,0.2852 21.91005,-1.0801 32.81344,-1.8009 2.88413,-0.1907 5.21739,2.327 5.21739,5.2174 l 0,4.5652 c 0,2.8905 -2.32759,5.1572 -5.21739,5.2174 -17.39744,0.3626 -27.65534,2.3644 -44.7779,2.7243 -54.75314,0.9347 -113.12681,1.1428 -161.036285,0.2115 -16.176604,-0.2656 -32.55926,-1.4764 -49.251034,-2.9358 C 20.337939,1026.1103 18,1024.0352 18,1021.1447 l 0,-4.5652 c 0,-2.8904 2.353841,-5.6107 5.217391,-5.2174 z"
           id="path5265"
           inkscape:connector-curvature="0"
           sodipodi:nodetypes="sssssssccssss" />
      </g>
    </g>
    <path
       transform="matrix(0.60651048,0,0,0.60698613,304.72323,245.58699)"
       d="m 23.929742,734.2366 -109.644022,63.303 -109.64402,-63.303 0,-126.60601 109.644021,-63.30301 109.644021,63.30301 z"
       inkscape:randomized="0"
       inkscape:rounded="0"
       inkscape:flatsided="true"
       sodipodi:arg2="1.0471976"
       sodipodi:arg1="0.52359878"
       sodipodi:r2="109.64402"
       sodipodi:r1="126.60601"
       sodipodi:cy="670.93359"
       sodipodi:cx="-85.714279"
       sodipodi:sides="6"
       id="path5267"
       style="fill:none;fill-opacity:1;stroke:#000000;stroke-width:3.29626012;stroke-linecap:round;stroke-linejoin:round;stroke-miterlimit:4;stroke-dasharray:none;stroke-dashoffset:0;stroke-opacity:1"
       sodipodi:type="star" />
    <text
       sodipodi:linespacing="125%"
       id="text5269"
       y="675.24774"
       x="240.98836"
       style="font-style:normal;font-weight:normal;font-size:27.49554634px;line-height:125%;font-family:sans-serif;letter-spacing:0px;word-spacing:0px;fill:#000000;fill-opacity:1;stroke:none;stroke-width:1px;stroke-linecap:butt;stroke-linejoin:miter;stroke-opacity:1"
       xml:space="preserve"><tspan
         style="font-style:normal;font-variant:normal;font-weight:normal;font-stretch:normal;font-family:'Archivo Black';-inkscape-font-specification:'Archivo Black, '"
         y="675.24774"
         x="240.98836"
         id="tspan5271"
         sodipodi:role="line">B</tspan></text>
    <g
       style="fill:#000000"
       id="g5337"
       transform="matrix(0.38107258,0,0,0.38107258,-80.956383,541.57432)">
      <path
         id="path5339"
         d="m 489.49218,804.70003 c -4.61425,0.27353 -9.07316,0.91079 -13.32813,1.89844 l 0,15.25 -14.23047,0 0,-10.37696 c -4.87917,2.2626 -9.35095,5.01509 -13.32617,8.18165 l 0,2.19531 -2.58789,0 c -4.42955,3.95061 -8.1527,8.4371 -11.02344,13.32617 l 13.61133,0 0,14.35547 -19.26367,0 c -0.11971,0.5462 -0.24332,1.0913 -0.34375,1.64258 l -2.11523,11.68554 21.72265,0 0,17.4336 6.66211,20.91015 6.66406,-20.91015 0,-17.4336 14.23047,0 0,17.4336 6.66406,20.91015 6.66407,-20.91015 0,-17.4336 14.23047,0 0,17.4336 6.66406,20.91015 6.66211,-20.91015 0,-17.4336 14.23047,0 0,17.4336 6.66406,20.91015 6.66406,-20.91015 0,-17.4336 21.48047,0 -2.33789,-9.43554 c 0,-1.26082 -0.1783,-2.56138 -0.51172,-3.89258 l -18.63086,0 0,-14.35547 10.17188,0 c -5.95019,-6.74326 -14.32604,-13.35376 -23.5,-18.69727 l 0,5.3711 -14.23047,0 0,-12.32422 c -4.5104,-1.78666 -9.0059,-3.1491 -13.32617,-3.99805 l 0,16.32227 -14.23047,0 0,-17.14844 z m -27.5586,30.47461 14.23047,0 0,14.35547 -14.23047,0 0,-14.35547 z m 27.5586,0 14.23047,0 0,14.35547 -14.23047,0 0,-14.35547 z m 27.55664,0 14.23047,0 0,14.35547 -14.23047,0 0,-14.35547 z"
         style="fill:#000000;fill-opacity:1;stroke:none;stroke-width:10;stroke-linecap:round;stroke-linejoin:round;stroke-miterlimit:4;stroke-dasharray:none;stroke-dashoffset:0;stroke-opacity:1"
         inkscape:connector-curvature="0" />
      <g
         id="g5341"
         transform="translate(345.99999,0)"
         style="fill:#000000">
        <path
           style="fill:#000000;fill-opacity:1;stroke:none;stroke-width:10;stroke-linecap:round;stroke-linejoin:round;stroke-miterlimit:4;stroke-dasharray:none;stroke-dashoffset:0;stroke-opacity:1"
           d="m 225.24998,987.86212 c 10.35963,1.18427 20.82916,2.09376 32.5,0 1.77221,-0.31794 2.98755,1.46873 3.25,3.25 0.81037,5.49999 2.35592,10.99998 0,16.49998 -0.70894,1.6551 -1.45007,3.2955 -3.25,3.25 -10.83333,-0.2736 -21.66667,-1.5424 -32.5,0 -1.78252,0.2538 -3.21413,-1.4499 -3.25,-3.25 -0.0744,-3.7345 -1.71649,-8.17664 0,-16.49998 0.36366,-1.76339 1.46115,-3.45449 3.25,-3.25 z"
           id="path5343"
           inkscape:connector-curvature="0"
           sodipodi:nodetypes="sssssssss" />
        <path
           sodipodi:nodetypes="sssssssss"
           inkscape:connector-curvature="0"
           id="path5345"
           d="m 225.24998,964.11212 c 11.27551,-1.56337 21.19397,0.99933 32.5,0 1.79351,-0.15853 2.98755,1.46873 3.25,3.25 0.81037,5.49999 2.35592,10.99998 0,16.49998 -0.70894,1.6551 -1.47135,2.97033 -3.25,3.25 -12.30043,1.93409 -22.86031,0.24038 -32.5,0 -1.79994,-0.0449 -3.21413,-1.4499 -3.25,-3.25 -0.0744,-3.7345 -1.71649,-8.17664 0,-16.49998 0.36366,-1.76339 1.46656,-3.00272 3.25,-3.25 z"
           style="fill:#000000;fill-opacity:1;stroke:none;stroke-width:10;stroke-linecap:round;stroke-linejoin:round;stroke-miterlimit:4;stroke-dasharray:none;stroke-dashoffset:0;stroke-opacity:1" />
        <path
           style="fill:#000000;fill-opacity:1;stroke:none;stroke-width:10;stroke-linecap:round;stroke-linejoin:round;stroke-miterlimit:4;stroke-dasharray:none;stroke-dashoffset:0;stroke-opacity:1"
           d="m 225.24998,940.36212 c 11.27551,-1.56337 21.19397,0.99933 32.5,0 1.79351,-0.15853 2.98755,1.46873 3.25,3.25 0.81037,5.49999 2.35592,10.99998 0,16.49998 -0.70894,1.6551 -1.45023,3.30123 -3.25,3.25 -12.30043,-0.3501 -22.86031,-0.67988 -32.5,0 -1.79604,0.12667 -3.21413,-1.4499 -3.25,-3.25 -0.0744,-3.7345 -1.71649,-8.17664 0,-16.49998 0.36366,-1.76339 1.46656,-3.00272 3.25,-3.25 z"
           id="path5347"
           inkscape:connector-curvature="0"
           sodipodi:nodetypes="sssssssss" />
        <path
           sodipodi:nodetypes="sssssssss"
           inkscape:connector-curvature="0"
           id="path5349"
           d="m 225.24998,915.96694 c 11.02491,0.44144 20.97357,2.76253 32.5,0 1.75092,-0.41964 3.45941,1.46172 3.25,3.25 -0.64404,5.49999 0.98238,10.99998 0,16.49998 -0.31659,1.77249 -1.4623,3.03568 -3.25,3.25 -12.30043,1.47467 -22.86031,0.26159 -32.5,0 -1.79984,-0.0488 -3.67489,-1.50039 -3.25,-3.25 0.90691,-3.7345 0.49668,-8.17664 0,-16.49998 -0.10725,-1.7973 1.45094,-3.32203 3.25,-3.25 z"
           style="fill:#000000;fill-opacity:1;stroke:none;stroke-width:10;stroke-linecap:round;stroke-linejoin:round;stroke-miterlimit:4;stroke-dasharray:none;stroke-dashoffset:0;stroke-opacity:1" />
        <path
           style="fill:#000000;fill-opacity:1;stroke:none;stroke-width:10;stroke-linecap:round;stroke-linejoin:round;stroke-miterlimit:4;stroke-dasharray:none;stroke-dashoffset:0;stroke-opacity:1"
           d="m 225.24998,892.45564 c 11.2218,-1.43633 22.40418,-1.97114 32.5,0 1.75092,-0.41964 2.8598,1.49229 3.25,3.25 1.22095,5.49999 1.23015,10.99998 0,16.49998 -0.39301,1.75713 -1.45577,3.09985 -3.25,3.25 -11.66887,0.97651 -21.64222,0.6642 -32.5,0 -1.79715,-0.10994 -3.38982,-1.45497 -3.25,-3.25 0.2909,-3.7345 -3.15641,-8.17664 0,-16.49998 0.63843,-1.68351 1.45094,-3.32203 3.25,-3.25 z"
           id="path5351"
           inkscape:connector-curvature="0"
           sodipodi:nodetypes="ccssssssc" />
        <path
           sodipodi:nodetypes="ccssssssc"
           inkscape:connector-curvature="0"
           id="path5353"
           d="m 225.42676,868.06046 c 11.2218,-1.43633 22.40418,-1.97114 32.5,0 1.75092,-0.41964 2.8598,1.49229 3.25,3.25 1.22095,5.49999 1.23015,10.99998 0,16.49998 -0.39301,1.75713 -1.45342,3.36883 -3.25,3.25 -11.96351,-0.79132 -21.81158,-0.35198 -32.5,0 -1.79953,0.0593 -3.6677,-1.49866 -3.25,-3.25 0.83845,-3.51548 -1.47447,-7.50386 0,-16.49998 0.29122,-1.77679 1.45094,-3.32203 3.25,-3.25 z"
           style="fill:#000000;fill-opacity:1;stroke:none;stroke-width:10;stroke-linecap:round;stroke-linejoin:round;stroke-miterlimit:4;stroke-dasharray:none;stroke-dashoffset:0;stroke-opacity:1" />
        <path
           sodipodi:nodetypes="sssssssss"
           inkscape:connector-curvature="0"
           id="path5355"
           d="m 75.160925,987.86212 c -10.35963,1.18427 -20.82916,2.09376 -32.5,0 -1.77221,-0.31794 -2.98755,1.46873 -3.25,3.25 -0.81037,5.49999 -2.35592,10.99998 0,16.49998 0.70894,1.6551 1.45007,3.2955 3.25,3.25 10.83333,-0.2736 21.66667,-1.5424 32.5,0 1.78252,0.2538 3.21413,-1.4499 3.25,-3.25 0.0744,-3.7345 1.71649,-8.17664 0,-16.49998 -0.36366,-1.76339 -1.46115,-3.45449 -3.25,-3.25 z"
           style="fill:#000000;fill-opacity:1;stroke:none;stroke-width:10;stroke-linecap:round;stroke-linejoin:round;stroke-miterlimit:4;stroke-dasharray:none;stroke-dashoffset:0;stroke-opacity:1" />
        <path
           style="fill:#000000;fill-opacity:1;stroke:none;stroke-width:10;stroke-linecap:round;stroke-linejoin:round;stroke-miterlimit:4;stroke-dasharray:none;stroke-dashoffset:0;stroke-opacity:1"
           d="m 75.160925,964.11212 c -11.27551,-1.56337 -21.19397,0.99933 -32.5,0 -1.79351,-0.15853 -2.98755,1.46873 -3.25,3.25 -0.81037,5.49999 -2.35592,10.99998 0,16.49998 0.70894,1.6551 1.47135,2.97033 3.25,3.25 12.30043,1.93409 22.86031,0.24038 32.5,0 1.79994,-0.0449 3.21413,-1.4499 3.25,-3.25 0.0744,-3.7345 1.71649,-8.17664 0,-16.49998 -0.36366,-1.76339 -1.46656,-3.00272 -3.25,-3.25 z"
           id="path5357"
           inkscape:connector-curvature="0"
           sodipodi:nodetypes="sssssssss" />
        <path
           sodipodi:nodetypes="sssssssss"
           inkscape:connector-curvature="0"
           id="path5359"
           d="m 75.160925,940.36212 c -11.27551,-1.56337 -21.19397,0.99933 -32.5,0 -1.79351,-0.15853 -2.98755,1.46873 -3.25,3.25 -0.81037,5.49999 -2.35592,10.99998 0,16.49998 0.70894,1.6551 1.45023,3.30123 3.25,3.25 12.30043,-0.3501 22.86031,-0.67988 32.5,0 1.79604,0.12667 3.21413,-1.4499 3.25,-3.25 0.0744,-3.7345 1.71649,-8.17664 0,-16.49998 -0.36366,-1.76339 -1.46656,-3.00272 -3.25,-3.25 z"
           style="fill:#000000;fill-opacity:1;stroke:none;stroke-width:10;stroke-linecap:round;stroke-linejoin:round;stroke-miterlimit:4;stroke-dasharray:none;stroke-dashoffset:0;stroke-opacity:1" />
        <path
           style="fill:#000000;fill-opacity:1;stroke:none;stroke-width:10;stroke-linecap:round;stroke-linejoin:round;stroke-miterlimit:4;stroke-dasharray:none;stroke-dashoffset:0;stroke-opacity:1"
           d="m 75.160925,915.96694 c -11.02491,0.44144 -20.97357,2.76253 -32.5,0 -1.75092,-0.41964 -3.45941,1.46172 -3.25,3.25 0.64404,5.49999 -0.98238,10.99998 0,16.49998 0.31659,1.77249 1.4623,3.03568 3.25,3.25 12.30043,1.47467 22.86031,0.26159 32.5,0 1.79984,-0.0488 3.67489,-1.50039 3.25,-3.25 -0.90691,-3.7345 -0.49668,-8.17664 0,-16.49998 0.10725,-1.7973 -1.45094,-3.32203 -3.25,-3.25 z"
           id="path5361"
           inkscape:connector-curvature="0"
           sodipodi:nodetypes="sssssssss" />
        <path
           sodipodi:nodetypes="ccssssssc"
           inkscape:connector-curvature="0"
           id="path5363"
           d="m 75.160925,892.45564 c -11.2218,-1.43633 -22.40418,-1.97114 -32.5,0 -1.75092,-0.41964 -2.8598,1.49229 -3.25,3.25 -1.22095,5.49999 -1.23015,10.99998 0,16.49998 0.39301,1.75713 1.45577,3.09985 3.25,3.25 11.66887,0.97651 21.64222,0.6642 32.5,0 1.79715,-0.10994 3.38982,-1.45497 3.25,-3.25 -0.2909,-3.7345 3.15641,-8.17664 0,-16.49998 -0.63843,-1.68351 -1.45094,-3.32203 -3.25,-3.25 z"
           style="fill:#000000;fill-opacity:1;stroke:none;stroke-width:10;stroke-linecap:round;stroke-linejoin:round;stroke-miterlimit:4;stroke-dasharray:none;stroke-dashoffset:0;stroke-opacity:1" />
        <path
           style="fill:#000000;fill-opacity:1;stroke:none;stroke-width:10;stroke-linecap:round;stroke-linejoin:round;stroke-miterlimit:4;stroke-dasharray:none;stroke-dashoffset:0;stroke-opacity:1"
           d="m 74.984145,868.06046 c -11.2218,-1.43633 -22.40418,-1.97114 -32.5,0 -1.75092,-0.41964 -2.8598,1.49229 -3.25,3.25 -1.22095,5.49999 -1.23015,10.99998 0,16.49998 0.39301,1.75713 1.45342,3.36883 3.25,3.25 11.96351,-0.79132 21.81158,-0.35198 32.5,0 1.79953,0.0593 3.6677,-1.49866 3.25,-3.25 -0.83845,-3.51548 1.47447,-7.50386 0,-16.49998 -0.29122,-1.77679 -1.45094,-3.32203 -3.25,-3.25 z"
           id="path5365"
           inkscape:connector-curvature="0"
           sodipodi:nodetypes="ccssssssc" />
        <path
           style="fill:#000000;fill-opacity:1;stroke:none;stroke-width:10;stroke-linecap:round;stroke-linejoin:round;stroke-miterlimit:4;stroke-dasharray:none;stroke-dashoffset:0;stroke-opacity:1"
           d="m 73.778928,848.93945 c -10.070885,-4.86097 -20.49995,-8.69545 -31.169007,-9.2056 -1.56035,-0.8984 -3.959466,0.39754 -4.03746,2.19634 -0.260415,6.00627 -0.662766,16.7031 -0.338316,22.08989 0.10825,1.79729 1.45731,3.41762 3.25,3.25 12.04729,-1.12644 22.16359,-1.76001 32.5,0 1.77496,0.30223 3.6677,-1.49866 3.25,-3.25 -0.83845,-3.51548 -1.420662,-5.97531 -1.258876,-11.04317 0.05745,-1.79958 -0.450556,-3.59696 -2.196341,-4.03746 z"
           id="path5367"
           inkscape:connector-curvature="0"
           sodipodi:nodetypes="ccssssssc" />
        <path
           sodipodi:nodetypes="ccssssssc"
           inkscape:connector-curvature="0"
           id="path5369"
           d="m 224.93879,849.99527 c 9.73312,-5.5062 19.89047,-10.01139 30.5037,-11.21493 1.49856,-0.99806 3.97695,0.13897 4.17186,1.92888 0.65082,5.97658 1.7486,16.62453 1.77548,22.02102 0.009,1.80052 -1.23177,3.50523 -3.03156,3.45466 -12.09507,-0.33987 -22.23115,-0.31361 -32.43108,2.11548 -1.75152,0.41712 -3.75747,-1.25674 -3.45466,-3.03156 0.60785,-3.5626 1.02871,-6.05511 0.53738,-11.10169 -0.17451,-1.79202 0.21548,-3.61866 1.92888,-4.17186 z"
           style="fill:#000000;fill-opacity:1;stroke:none;stroke-width:10;stroke-linecap:round;stroke-linejoin:round;stroke-miterlimit:4;stroke-dasharray:none;stroke-dashoffset:0;stroke-opacity:1" />
        <path
           sodipodi:nodetypes="ccssssssc"
           inkscape:connector-curvature="0"
           id="path5371"
           d="m 216.58821,832.00236 c 9.59103,-5.75011 19.63143,-10.51023 30.21089,-11.98128 1.4729,-1.03557 3.9792,0.0385 4.21923,1.82296 0.80146,5.95824 3.36324,6.34713 5.04752,11.47412 0.56196,1.7106 -0.0947,3.71414 -1.82296,4.21922 -11.61402,3.39419 -21.25137,6.53468 -30.2109,11.98129 -1.53853,0.93529 -3.96187,-0.041 -4.21922,-1.82296 -0.51662,-3.57697 -3.10168,-2.56806 -5.04754,-11.47413 -0.38425,-1.75901 0.12407,-3.62294 1.82298,-4.21922 z"
           style="fill:#000000;fill-opacity:1;stroke:none;stroke-width:10;stroke-linecap:round;stroke-linejoin:round;stroke-miterlimit:4;stroke-dasharray:none;stroke-dashoffset:0;stroke-opacity:1" />
        <path
           style="fill:#000000;fill-opacity:1;stroke:none;stroke-width:10;stroke-linecap:round;stroke-linejoin:round;stroke-miterlimit:4;stroke-dasharray:none;stroke-dashoffset:0;stroke-opacity:1"
           d="m 203.80589,820.81948 c 7.77599,-8.03652 16.24226,-15.23309 26.0805,-19.39218 1.15469,-1.3815 3.85358,-0.99271 4.54728,0.66883 2.31626,5.54778 7.82948,8.0146 9.85798,13.0154 0.67681,1.6685 0.1577,3.712 -1.53228,4.33326 -11.35676,4.17492 -20.75864,7.96251 -29.32768,14.00488 -5.93688,0.50023 -12.73975,-10.34752 -9.6258,-12.63019 z"
           id="path5373"
           inkscape:connector-curvature="0"
           sodipodi:nodetypes="ccssscc" />
        <path
           sodipodi:nodetypes="ccsssssscc"
           inkscape:connector-curvature="0"
           id="path5375"
           d="m 93.750256,818.6427 c -7.77599,-8.03652 -14.24226,-13.23309 -24.0805,-17.39218 -1.15469,-1.3815 -3.85358,-0.99271 -4.54728,0.66883 -2.31626,5.54778 -7.82948,8.0146 -9.85798,13.0154 -0.67681,1.6685 -0.157699,3.712 1.53228,4.33326 3.086211,1.13454 17.49541,6.85907 20.347282,8.42336 2.987669,1.63879 1.925727,1.86439 6.980398,3.95652 1.638128,0.67802 3.095938,0.60725 4.002907,-0.21487 3.084511,-2.79594 5.988269,-6.20367 7.729233,-8.80554 0.82643,-1.59963 -0.61965,-2.96911 -2.10634,-3.98478 z"
           style="fill:#000000;fill-opacity:1;stroke:none;stroke-width:10;stroke-linecap:round;stroke-linejoin:round;stroke-miterlimit:4;stroke-dasharray:none;stroke-dashoffset:0;stroke-opacity:1" />
        <path
           style="fill:#000000;fill-opacity:1;stroke:none;stroke-width:10;stroke-linecap:round;stroke-linejoin:round;stroke-miterlimit:4;stroke-dasharray:none;stroke-dashoffset:0;stroke-opacity:1"
           d="m 82.844438,832.17914 c -9.59103,-5.75011 -19.63143,-10.51023 -30.21089,-11.98128 -1.4729,-1.03557 -3.9792,0.0385 -4.21923,1.82296 -0.80146,5.95824 -3.36324,6.34713 -5.04752,11.47412 -0.56196,1.7106 0.0947,3.71414 1.82296,4.21922 11.61402,3.39419 21.25137,6.53468 30.2109,11.98129 1.53853,0.93529 3.96187,-0.041 4.21922,-1.82296 0.51662,-3.57697 3.10168,-2.56806 5.04754,-11.47413 0.38425,-1.75901 -0.12407,-3.62294 -1.82298,-4.21922 z"
           id="path5377"
           inkscape:connector-curvature="0"
           sodipodi:nodetypes="ccssssssc" />
        <path
           style="fill:#000000;fill-opacity:1;stroke:none;stroke-width:10;stroke-linecap:round;stroke-linejoin:round;stroke-miterlimit:4;stroke-dasharray:none;stroke-dashoffset:0;stroke-opacity:1"
           d="m 106.95639,808.11218 c -4.80725,-10.09662 -10.994628,-13.63478 -18.99294,-20.71405 -0.653859,-1.67759 -3.335826,-2.16975 -4.523158,-0.81617 -3.96446,4.51951 -10.458911,4.60306 -12.863232,9.43442 -0.802201,1.61196 -0.424699,3.65527 1.197026,4.43758 9.866463,4.75948 11.195856,6.99861 22.031419,16.55945 5.931807,1.57736 11.111265,-3.22426 12.334725,-4.37811 1.29339,-1.25257 1.90135,-3.08642 0.81616,-4.52317 z"
           id="path5379"
           inkscape:connector-curvature="0"
           sodipodi:nodetypes="ccssscccc" />
        <path
           sodipodi:nodetypes="ccssscccc"
           inkscape:connector-curvature="0"
           id="path5381"
           d="m 188.48117,811.11218 c 4.80725,-10.09662 10.99463,-13.63478 18.99294,-20.71405 0.65386,-1.67759 3.33583,-2.16975 4.52316,-0.81617 3.96446,4.51951 10.45891,4.60306 12.86323,9.43442 0.8022,1.61196 0.4247,3.65527 -1.19702,4.43758 -9.86647,4.75948 -11.19586,6.99861 -22.03142,16.55945 -5.93181,1.57735 -11.11127,-3.22426 -12.33473,-4.37811 -1.29339,-1.25257 -1.90135,-3.08642 -0.81616,-4.52317 z"
           style="fill:#000000;fill-opacity:1;stroke:none;stroke-width:10;stroke-linecap:round;stroke-linejoin:round;stroke-miterlimit:4;stroke-dasharray:none;stroke-dashoffset:0;stroke-opacity:1" />
        <path
           style="fill:#000000;fill-opacity:1;stroke:none;stroke-width:10;stroke-linecap:round;stroke-linejoin:round;stroke-miterlimit:4;stroke-dasharray:none;stroke-dashoffset:0;stroke-opacity:1"
           d="m 172.53698,803.52071 c 2.74891,-10.8395 8.12877,-15.5149 14.59526,-24.01628 0.31463,-1.77281 2.84941,-2.77785 4.27761,-1.68142 4.76872,3.6609 11.15509,2.47807 14.45428,6.74869 1.10076,1.42487 1.12842,3.50257 -0.30989,4.58573 -8.75066,6.58983 -9.61853,9.04499 -18.38467,20.53297 -5.51105,2.70237 -11.52644,-0.99862 -12.95119,-1.89211 -1.51256,-0.97671 -2.46602,-2.65704 -1.68141,-4.27762 z"
           id="path5383"
           inkscape:connector-curvature="0"
           sodipodi:nodetypes="ccssscccc" />
        <path
           sodipodi:nodetypes="ccssscccc"
           inkscape:connector-curvature="0"
           id="path5385"
           d="m 123.5396,801.02728 c -2.90731,-10.7981 -8.35505,-15.39423 -14.94532,-23.80003 -0.34055,-1.76801 -2.88977,-2.73583 -4.30177,-1.61861 -4.7146,3.73033 -11.117611,2.64113 -14.353916,6.9596 -1.079788,1.44083 -1.077022,3.51872 0.377003,4.5807 8.846197,6.461 9.749923,8.90319 18.683313,20.2616 5.55003,2.62138 11.51058,-1.16727 12.9221,-2.08153 1.4981,-0.99875 2.42685,-2.69287 1.6186,-4.30178 z"
           style="fill:#000000;fill-opacity:1;stroke:none;stroke-width:10;stroke-linecap:round;stroke-linejoin:round;stroke-miterlimit:4;stroke-dasharray:none;stroke-dashoffset:0;stroke-opacity:1" />
        <path
           style="fill:#000000;fill-opacity:1;stroke:none;stroke-width:10;stroke-linecap:round;stroke-linejoin:round;stroke-miterlimit:4;stroke-dasharray:none;stroke-dashoffset:0;stroke-opacity:1"
           d="m 140.73704,796.57115 c -1.00801,-11.13712 -5.58467,-16.60123 -10.63202,-26.0147 -0.0316,-1.80023 -2.37652,-3.19182 -3.95954,-2.33392 -5.28562,2.86444 -11.40611,0.69087 -15.33654,4.38879 -1.31136,1.23379 -1.6658,3.28123 -0.41595,4.57733 7.60398,7.88537 8.07449,10.44655 14.92258,23.17143 5.01686,3.53633 11.53991,0.82859 13.08757,0.17056 1.64747,-0.72638 2.85359,-2.23565 2.33392,-3.95954 z"
           id="path5387"
           inkscape:connector-curvature="0"
           sodipodi:nodetypes="ccssscccc" />
        <path
           sodipodi:nodetypes="ccsssssscc"
           inkscape:connector-curvature="0"
           id="path5389"
           d="m 155.24124,797.82115 c 1.00801,-11.13712 5.58467,-16.60123 10.63202,-26.0147 0.0316,-1.80023 2.37652,-3.19182 3.95954,-2.33392 5.28562,2.86444 11.40611,0.69087 15.33654,4.38879 1.31136,1.23379 1.6658,3.28123 0.41595,4.57733 -7.60398,7.88537 -8.07449,10.44655 -14.92258,23.17143 -0.85327,1.5855 -2.11549,2.16751 -3.89305,1.88096 -3.69239,-0.59522 -0.85303,1.96707 -9.19452,-1.7104 -1.64747,-0.72638 -2.85359,-2.23565 -2.33392,-3.95954 z"
           style="fill:#000000;fill-opacity:1;stroke:none;stroke-width:10;stroke-linecap:round;stroke-linejoin:round;stroke-miterlimit:4;stroke-dasharray:none;stroke-dashoffset:0;stroke-opacity:1" />
        <path
           sodipodi:nodetypes="csscsccscsc"
           inkscape:connector-curvature="0"
           id="path5391"
           d="m 154.10033,796.94116 c 0.78757,-2.22455 1.31491,-4.40395 1.93432,-6.64702 0.68705,-2.48802 1.48737,-5.0442 2.88173,-7.60803 2.87568,-5.28753 5.81277,-9.67485 7.39064,-13.80811 0.58188,-1.70389 -3.94504,-2.41382 -5.77149,-2.42231 -3.91013,-0.0182 -11.46346,0.11903 -18.75865,-0.65078 -2.96267,-0.78769 -12.00955,0.99906 -11.25261,3.90887 1.98464,2.11279 3.19028,5.12733 4.6027,7.83576 3.14996,6.04028 5.57222,12.84107 7.51312,20.89919 1.7899,1.25841 5.01214,1.07091 7.63913,0.48047 1.75393,-0.39421 3.26701,-0.62512 3.82111,-1.98804 z"
           style="fill:#000000;fill-opacity:1;stroke:none;stroke-width:10;stroke-linecap:round;stroke-linejoin:round;stroke-miterlimit:4;stroke-dasharray:none;stroke-dashoffset:0;stroke-opacity:1" />
        <path
           style="fill:#000000;fill-opacity:1;stroke:none;stroke-width:10;stroke-linecap:round;stroke-linejoin:round;stroke-miterlimit:4;stroke-dasharray:none;stroke-dashoffset:0;stroke-opacity:1"
           d="m 23.217391,1011.3621 c 29.730771,4.0834 58.372456,-0.8032 86.782949,1.5021 46.4187,3.7666 92.0933,-0.8279 135.46883,0.2988 10.97806,0.2852 21.91005,-1.0801 32.81344,-1.8009 2.88413,-0.1907 5.21739,2.327 5.21739,5.2174 l 0,4.5652 c 0,2.8905 -2.32759,5.1572 -5.21739,5.2174 -17.39744,0.3626 -27.65534,2.3644 -44.7779,2.7243 -54.75314,0.9347 -113.12681,1.1428 -161.036285,0.2115 -16.176604,-0.2656 -32.55926,-1.4764 -49.251034,-2.9358 C 20.337939,1026.1103 18,1024.0352 18,1021.1447 l 0,-4.5652 c 0,-2.8904 2.353841,-5.6107 5.217391,-5.2174 z"
           id="path5393"
           inkscape:connector-curvature="0"
           sodipodi:nodetypes="sssssssccssss" />
      </g>
    </g>
    <path
       transform="matrix(0.60651048,0,0,0.60698613,160.27142,486.30127)"
       d="m 23.929742,734.2366 -109.644022,63.303 -109.64402,-63.303 0,-126.60601 109.644021,-63.30301 109.644021,63.30301 z"
       inkscape:randomized="0"
       inkscape:rounded="0"
       inkscape:flatsided="true"
       sodipodi:arg2="1.0471976"
       sodipodi:arg1="0.52359878"
       sodipodi:r2="109.64402"
       sodipodi:r1="126.60601"
       sodipodi:cy="670.93359"
       sodipodi:cx="-85.714279"
       sodipodi:sides="6"
       id="path5395"
       style="fill:none;fill-opacity:1;stroke:#000000;stroke-width:3.29626012;stroke-linecap:round;stroke-linejoin:round;stroke-miterlimit:4;stroke-dasharray:none;stroke-dashoffset:0;stroke-opacity:1"
       sodipodi:type="star" />
    <text
       sodipodi:linespacing="125%"
       id="text5397"
       y="915.96204"
       x="96.536552"
       style="font-style:normal;font-weight:normal;font-size:27.49554634px;line-height:125%;font-family:sans-serif;letter-spacing:0px;word-spacing:0px;fill:#000000;fill-opacity:1;stroke:none;stroke-width:1px;stroke-linecap:butt;stroke-linejoin:miter;stroke-opacity:1"
       xml:space="preserve"><tspan
         style="font-style:normal;font-variant:normal;font-weight:normal;font-stretch:normal;font-family:'Archivo Black';-inkscape-font-specification:'Archivo Black, '"
         y="915.96204"
         x="96.536552"
         id="tspan5399"
         sodipodi:role="line">C</tspan></text>
    <g
       transform="matrix(0.38107258,0,0,0.38107258,63.495431,541.57432)"
       id="g5401"
       style="fill:#000000">
      <path
         inkscape:connector-curvature="0"
         style="fill:#000000;fill-opacity:1;stroke:none;stroke-width:10;stroke-linecap:round;stroke-linejoin:round;stroke-miterlimit:4;stroke-dasharray:none;stroke-dashoffset:0;stroke-opacity:1"
         d="m 489.49218,804.70003 c -4.61425,0.27353 -9.07316,0.91079 -13.32813,1.89844 l 0,15.25 -14.23047,0 0,-10.37696 c -4.87917,2.2626 -9.35095,5.01509 -13.32617,8.18165 l 0,2.19531 -2.58789,0 c -4.42955,3.95061 -8.1527,8.4371 -11.02344,13.32617 l 13.61133,0 0,14.35547 -19.26367,0 c -0.11971,0.5462 -0.24332,1.0913 -0.34375,1.64258 l -2.11523,11.68554 21.72265,0 0,17.4336 6.66211,20.91015 6.66406,-20.91015 0,-17.4336 14.23047,0 0,17.4336 6.66406,20.91015 6.66407,-20.91015 0,-17.4336 14.23047,0 0,17.4336 6.66406,20.91015 6.66211,-20.91015 0,-17.4336 14.23047,0 0,17.4336 6.66406,20.91015 6.66406,-20.91015 0,-17.4336 21.48047,0 -2.33789,-9.43554 c 0,-1.26082 -0.1783,-2.56138 -0.51172,-3.89258 l -18.63086,0 0,-14.35547 10.17188,0 c -5.95019,-6.74326 -14.32604,-13.35376 -23.5,-18.69727 l 0,5.3711 -14.23047,0 0,-12.32422 c -4.5104,-1.78666 -9.0059,-3.1491 -13.32617,-3.99805 l 0,16.32227 -14.23047,0 0,-17.14844 z m -27.5586,30.47461 14.23047,0 0,14.35547 -14.23047,0 0,-14.35547 z m 27.5586,0 14.23047,0 0,14.35547 -14.23047,0 0,-14.35547 z m 27.55664,0 14.23047,0 0,14.35547 -14.23047,0 0,-14.35547 z"
         id="path5403" />
      <g
         style="fill:#000000"
         transform="translate(345.99999,0)"
         id="g5405">
        <path
           sodipodi:nodetypes="sssssssss"
           inkscape:connector-curvature="0"
           id="path5407"
           d="m 225.24998,987.86212 c 10.35963,1.18427 20.82916,2.09376 32.5,0 1.77221,-0.31794 2.98755,1.46873 3.25,3.25 0.81037,5.49999 2.35592,10.99998 0,16.49998 -0.70894,1.6551 -1.45007,3.2955 -3.25,3.25 -10.83333,-0.2736 -21.66667,-1.5424 -32.5,0 -1.78252,0.2538 -3.21413,-1.4499 -3.25,-3.25 -0.0744,-3.7345 -1.71649,-8.17664 0,-16.49998 0.36366,-1.76339 1.46115,-3.45449 3.25,-3.25 z"
           style="fill:#000000;fill-opacity:1;stroke:none;stroke-width:10;stroke-linecap:round;stroke-linejoin:round;stroke-miterlimit:4;stroke-dasharray:none;stroke-dashoffset:0;stroke-opacity:1" />
        <path
           style="fill:#000000;fill-opacity:1;stroke:none;stroke-width:10;stroke-linecap:round;stroke-linejoin:round;stroke-miterlimit:4;stroke-dasharray:none;stroke-dashoffset:0;stroke-opacity:1"
           d="m 225.24998,964.11212 c 11.27551,-1.56337 21.19397,0.99933 32.5,0 1.79351,-0.15853 2.98755,1.46873 3.25,3.25 0.81037,5.49999 2.35592,10.99998 0,16.49998 -0.70894,1.6551 -1.47135,2.97033 -3.25,3.25 -12.30043,1.93409 -22.86031,0.24038 -32.5,0 -1.79994,-0.0449 -3.21413,-1.4499 -3.25,-3.25 -0.0744,-3.7345 -1.71649,-8.17664 0,-16.49998 0.36366,-1.76339 1.46656,-3.00272 3.25,-3.25 z"
           id="path5409"
           inkscape:connector-curvature="0"
           sodipodi:nodetypes="sssssssss" />
        <path
           sodipodi:nodetypes="sssssssss"
           inkscape:connector-curvature="0"
           id="path5411"
           d="m 225.24998,940.36212 c 11.27551,-1.56337 21.19397,0.99933 32.5,0 1.79351,-0.15853 2.98755,1.46873 3.25,3.25 0.81037,5.49999 2.35592,10.99998 0,16.49998 -0.70894,1.6551 -1.45023,3.30123 -3.25,3.25 -12.30043,-0.3501 -22.86031,-0.67988 -32.5,0 -1.79604,0.12667 -3.21413,-1.4499 -3.25,-3.25 -0.0744,-3.7345 -1.71649,-8.17664 0,-16.49998 0.36366,-1.76339 1.46656,-3.00272 3.25,-3.25 z"
           style="fill:#000000;fill-opacity:1;stroke:none;stroke-width:10;stroke-linecap:round;stroke-linejoin:round;stroke-miterlimit:4;stroke-dasharray:none;stroke-dashoffset:0;stroke-opacity:1" />
        <path
           style="fill:#000000;fill-opacity:1;stroke:none;stroke-width:10;stroke-linecap:round;stroke-linejoin:round;stroke-miterlimit:4;stroke-dasharray:none;stroke-dashoffset:0;stroke-opacity:1"
           d="m 225.24998,915.96694 c 11.02491,0.44144 20.97357,2.76253 32.5,0 1.75092,-0.41964 3.45941,1.46172 3.25,3.25 -0.64404,5.49999 0.98238,10.99998 0,16.49998 -0.31659,1.77249 -1.4623,3.03568 -3.25,3.25 -12.30043,1.47467 -22.86031,0.26159 -32.5,0 -1.79984,-0.0488 -3.67489,-1.50039 -3.25,-3.25 0.90691,-3.7345 0.49668,-8.17664 0,-16.49998 -0.10725,-1.7973 1.45094,-3.32203 3.25,-3.25 z"
           id="path5413"
           inkscape:connector-curvature="0"
           sodipodi:nodetypes="sssssssss" />
        <path
           sodipodi:nodetypes="ccssssssc"
           inkscape:connector-curvature="0"
           id="path5415"
           d="m 225.24998,892.45564 c 11.2218,-1.43633 22.40418,-1.97114 32.5,0 1.75092,-0.41964 2.8598,1.49229 3.25,3.25 1.22095,5.49999 1.23015,10.99998 0,16.49998 -0.39301,1.75713 -1.45577,3.09985 -3.25,3.25 -11.66887,0.97651 -21.64222,0.6642 -32.5,0 -1.79715,-0.10994 -3.38982,-1.45497 -3.25,-3.25 0.2909,-3.7345 -3.15641,-8.17664 0,-16.49998 0.63843,-1.68351 1.45094,-3.32203 3.25,-3.25 z"
           style="fill:#000000;fill-opacity:1;stroke:none;stroke-width:10;stroke-linecap:round;stroke-linejoin:round;stroke-miterlimit:4;stroke-dasharray:none;stroke-dashoffset:0;stroke-opacity:1" />
        <path
           style="fill:#000000;fill-opacity:1;stroke:none;stroke-width:10;stroke-linecap:round;stroke-linejoin:round;stroke-miterlimit:4;stroke-dasharray:none;stroke-dashoffset:0;stroke-opacity:1"
           d="m 225.42676,868.06046 c 11.2218,-1.43633 22.40418,-1.97114 32.5,0 1.75092,-0.41964 2.8598,1.49229 3.25,3.25 1.22095,5.49999 1.23015,10.99998 0,16.49998 -0.39301,1.75713 -1.45342,3.36883 -3.25,3.25 -11.96351,-0.79132 -21.81158,-0.35198 -32.5,0 -1.79953,0.0593 -3.6677,-1.49866 -3.25,-3.25 0.83845,-3.51548 -1.47447,-7.50386 0,-16.49998 0.29122,-1.77679 1.45094,-3.32203 3.25,-3.25 z"
           id="path5417"
           inkscape:connector-curvature="0"
           sodipodi:nodetypes="ccssssssc" />
        <path
           style="fill:#000000;fill-opacity:1;stroke:none;stroke-width:10;stroke-linecap:round;stroke-linejoin:round;stroke-miterlimit:4;stroke-dasharray:none;stroke-dashoffset:0;stroke-opacity:1"
           d="m 75.160925,987.86212 c -10.35963,1.18427 -20.82916,2.09376 -32.5,0 -1.77221,-0.31794 -2.98755,1.46873 -3.25,3.25 -0.81037,5.49999 -2.35592,10.99998 0,16.49998 0.70894,1.6551 1.45007,3.2955 3.25,3.25 10.83333,-0.2736 21.66667,-1.5424 32.5,0 1.78252,0.2538 3.21413,-1.4499 3.25,-3.25 0.0744,-3.7345 1.71649,-8.17664 0,-16.49998 -0.36366,-1.76339 -1.46115,-3.45449 -3.25,-3.25 z"
           id="path5419"
           inkscape:connector-curvature="0"
           sodipodi:nodetypes="sssssssss" />
        <path
           sodipodi:nodetypes="sssssssss"
           inkscape:connector-curvature="0"
           id="path5421"
           d="m 75.160925,964.11212 c -11.27551,-1.56337 -21.19397,0.99933 -32.5,0 -1.79351,-0.15853 -2.98755,1.46873 -3.25,3.25 -0.81037,5.49999 -2.35592,10.99998 0,16.49998 0.70894,1.6551 1.47135,2.97033 3.25,3.25 12.30043,1.93409 22.86031,0.24038 32.5,0 1.79994,-0.0449 3.21413,-1.4499 3.25,-3.25 0.0744,-3.7345 1.71649,-8.17664 0,-16.49998 -0.36366,-1.76339 -1.46656,-3.00272 -3.25,-3.25 z"
           style="fill:#000000;fill-opacity:1;stroke:none;stroke-width:10;stroke-linecap:round;stroke-linejoin:round;stroke-miterlimit:4;stroke-dasharray:none;stroke-dashoffset:0;stroke-opacity:1" />
        <path
           style="fill:#000000;fill-opacity:1;stroke:none;stroke-width:10;stroke-linecap:round;stroke-linejoin:round;stroke-miterlimit:4;stroke-dasharray:none;stroke-dashoffset:0;stroke-opacity:1"
           d="m 75.160925,940.36212 c -11.27551,-1.56337 -21.19397,0.99933 -32.5,0 -1.79351,-0.15853 -2.98755,1.46873 -3.25,3.25 -0.81037,5.49999 -2.35592,10.99998 0,16.49998 0.70894,1.6551 1.45023,3.30123 3.25,3.25 12.30043,-0.3501 22.86031,-0.67988 32.5,0 1.79604,0.12667 3.21413,-1.4499 3.25,-3.25 0.0744,-3.7345 1.71649,-8.17664 0,-16.49998 -0.36366,-1.76339 -1.46656,-3.00272 -3.25,-3.25 z"
           id="path5423"
           inkscape:connector-curvature="0"
           sodipodi:nodetypes="sssssssss" />
        <path
           sodipodi:nodetypes="sssssssss"
           inkscape:connector-curvature="0"
           id="path5425"
           d="m 75.160925,915.96694 c -11.02491,0.44144 -20.97357,2.76253 -32.5,0 -1.75092,-0.41964 -3.45941,1.46172 -3.25,3.25 0.64404,5.49999 -0.98238,10.99998 0,16.49998 0.31659,1.77249 1.4623,3.03568 3.25,3.25 12.30043,1.47467 22.86031,0.26159 32.5,0 1.79984,-0.0488 3.67489,-1.50039 3.25,-3.25 -0.90691,-3.7345 -0.49668,-8.17664 0,-16.49998 0.10725,-1.7973 -1.45094,-3.32203 -3.25,-3.25 z"
           style="fill:#000000;fill-opacity:1;stroke:none;stroke-width:10;stroke-linecap:round;stroke-linejoin:round;stroke-miterlimit:4;stroke-dasharray:none;stroke-dashoffset:0;stroke-opacity:1" />
        <path
           style="fill:#000000;fill-opacity:1;stroke:none;stroke-width:10;stroke-linecap:round;stroke-linejoin:round;stroke-miterlimit:4;stroke-dasharray:none;stroke-dashoffset:0;stroke-opacity:1"
           d="m 75.160925,892.45564 c -11.2218,-1.43633 -22.40418,-1.97114 -32.5,0 -1.75092,-0.41964 -2.8598,1.49229 -3.25,3.25 -1.22095,5.49999 -1.23015,10.99998 0,16.49998 0.39301,1.75713 1.45577,3.09985 3.25,3.25 11.66887,0.97651 21.64222,0.6642 32.5,0 1.79715,-0.10994 3.38982,-1.45497 3.25,-3.25 -0.2909,-3.7345 3.15641,-8.17664 0,-16.49998 -0.63843,-1.68351 -1.45094,-3.32203 -3.25,-3.25 z"
           id="path5427"
           inkscape:connector-curvature="0"
           sodipodi:nodetypes="ccssssssc" />
        <path
           sodipodi:nodetypes="ccssssssc"
           inkscape:connector-curvature="0"
           id="path5429"
           d="m 74.984145,868.06046 c -11.2218,-1.43633 -22.40418,-1.97114 -32.5,0 -1.75092,-0.41964 -2.8598,1.49229 -3.25,3.25 -1.22095,5.49999 -1.23015,10.99998 0,16.49998 0.39301,1.75713 1.45342,3.36883 3.25,3.25 11.96351,-0.79132 21.81158,-0.35198 32.5,0 1.79953,0.0593 3.6677,-1.49866 3.25,-3.25 -0.83845,-3.51548 1.47447,-7.50386 0,-16.49998 -0.29122,-1.77679 -1.45094,-3.32203 -3.25,-3.25 z"
           style="fill:#000000;fill-opacity:1;stroke:none;stroke-width:10;stroke-linecap:round;stroke-linejoin:round;stroke-miterlimit:4;stroke-dasharray:none;stroke-dashoffset:0;stroke-opacity:1" />
        <path
           sodipodi:nodetypes="ccssssssc"
           inkscape:connector-curvature="0"
           id="path5431"
           d="m 73.778928,848.93945 c -10.070885,-4.86097 -20.49995,-8.69545 -31.169007,-9.2056 -1.56035,-0.8984 -3.959466,0.39754 -4.03746,2.19634 -0.260415,6.00627 -0.662766,16.7031 -0.338316,22.08989 0.10825,1.79729 1.45731,3.41762 3.25,3.25 12.04729,-1.12644 22.16359,-1.76001 32.5,0 1.77496,0.30223 3.6677,-1.49866 3.25,-3.25 -0.83845,-3.51548 -1.420662,-5.97531 -1.258876,-11.04317 0.05745,-1.79958 -0.450556,-3.59696 -2.196341,-4.03746 z"
           style="fill:#000000;fill-opacity:1;stroke:none;stroke-width:10;stroke-linecap:round;stroke-linejoin:round;stroke-miterlimit:4;stroke-dasharray:none;stroke-dashoffset:0;stroke-opacity:1" />
        <path
           style="fill:#000000;fill-opacity:1;stroke:none;stroke-width:10;stroke-linecap:round;stroke-linejoin:round;stroke-miterlimit:4;stroke-dasharray:none;stroke-dashoffset:0;stroke-opacity:1"
           d="m 224.93879,849.99527 c 9.73312,-5.5062 19.89047,-10.01139 30.5037,-11.21493 1.49856,-0.99806 3.97695,0.13897 4.17186,1.92888 0.65082,5.97658 1.7486,16.62453 1.77548,22.02102 0.009,1.80052 -1.23177,3.50523 -3.03156,3.45466 -12.09507,-0.33987 -22.23115,-0.31361 -32.43108,2.11548 -1.75152,0.41712 -3.75747,-1.25674 -3.45466,-3.03156 0.60785,-3.5626 1.02871,-6.05511 0.53738,-11.10169 -0.17451,-1.79202 0.21548,-3.61866 1.92888,-4.17186 z"
           id="path5433"
           inkscape:connector-curvature="0"
           sodipodi:nodetypes="ccssssssc" />
        <path
           style="fill:#000000;fill-opacity:1;stroke:none;stroke-width:10;stroke-linecap:round;stroke-linejoin:round;stroke-miterlimit:4;stroke-dasharray:none;stroke-dashoffset:0;stroke-opacity:1"
           d="m 216.58821,832.00236 c 9.59103,-5.75011 19.63143,-10.51023 30.21089,-11.98128 1.4729,-1.03557 3.9792,0.0385 4.21923,1.82296 0.80146,5.95824 3.36324,6.34713 5.04752,11.47412 0.56196,1.7106 -0.0947,3.71414 -1.82296,4.21922 -11.61402,3.39419 -21.25137,6.53468 -30.2109,11.98129 -1.53853,0.93529 -3.96187,-0.041 -4.21922,-1.82296 -0.51662,-3.57697 -3.10168,-2.56806 -5.04754,-11.47413 -0.38425,-1.75901 0.12407,-3.62294 1.82298,-4.21922 z"
           id="path5435"
           inkscape:connector-curvature="0"
           sodipodi:nodetypes="ccssssssc" />
        <path
           sodipodi:nodetypes="ccssscc"
           inkscape:connector-curvature="0"
           id="path5437"
           d="m 203.80589,820.81948 c 7.77599,-8.03652 16.24226,-15.23309 26.0805,-19.39218 1.15469,-1.3815 3.85358,-0.99271 4.54728,0.66883 2.31626,5.54778 7.82948,8.0146 9.85798,13.0154 0.67681,1.6685 0.1577,3.712 -1.53228,4.33326 -11.35676,4.17492 -20.75864,7.96251 -29.32768,14.00488 -5.93688,0.50023 -12.73975,-10.34752 -9.6258,-12.63019 z"
           style="fill:#000000;fill-opacity:1;stroke:none;stroke-width:10;stroke-linecap:round;stroke-linejoin:round;stroke-miterlimit:4;stroke-dasharray:none;stroke-dashoffset:0;stroke-opacity:1" />
        <path
           style="fill:#000000;fill-opacity:1;stroke:none;stroke-width:10;stroke-linecap:round;stroke-linejoin:round;stroke-miterlimit:4;stroke-dasharray:none;stroke-dashoffset:0;stroke-opacity:1"
           d="m 93.750256,818.6427 c -7.77599,-8.03652 -14.24226,-13.23309 -24.0805,-17.39218 -1.15469,-1.3815 -3.85358,-0.99271 -4.54728,0.66883 -2.31626,5.54778 -7.82948,8.0146 -9.85798,13.0154 -0.67681,1.6685 -0.157699,3.712 1.53228,4.33326 3.086211,1.13454 17.49541,6.85907 20.347282,8.42336 2.987669,1.63879 1.925727,1.86439 6.980398,3.95652 1.638128,0.67802 3.095938,0.60725 4.002907,-0.21487 3.084511,-2.79594 5.988269,-6.20367 7.729233,-8.80554 0.82643,-1.59963 -0.61965,-2.96911 -2.10634,-3.98478 z"
           id="path5439"
           inkscape:connector-curvature="0"
           sodipodi:nodetypes="ccsssssscc" />
        <path
           sodipodi:nodetypes="ccssssssc"
           inkscape:connector-curvature="0"
           id="path5441"
           d="m 82.844438,832.17914 c -9.59103,-5.75011 -19.63143,-10.51023 -30.21089,-11.98128 -1.4729,-1.03557 -3.9792,0.0385 -4.21923,1.82296 -0.80146,5.95824 -3.36324,6.34713 -5.04752,11.47412 -0.56196,1.7106 0.0947,3.71414 1.82296,4.21922 11.61402,3.39419 21.25137,6.53468 30.2109,11.98129 1.53853,0.93529 3.96187,-0.041 4.21922,-1.82296 0.51662,-3.57697 3.10168,-2.56806 5.04754,-11.47413 0.38425,-1.75901 -0.12407,-3.62294 -1.82298,-4.21922 z"
           style="fill:#000000;fill-opacity:1;stroke:none;stroke-width:10;stroke-linecap:round;stroke-linejoin:round;stroke-miterlimit:4;stroke-dasharray:none;stroke-dashoffset:0;stroke-opacity:1" />
        <path
           sodipodi:nodetypes="ccssscccc"
           inkscape:connector-curvature="0"
           id="path5443"
           d="m 106.95639,808.11218 c -4.80725,-10.09662 -10.994628,-13.63478 -18.99294,-20.71405 -0.653859,-1.67759 -3.335826,-2.16975 -4.523158,-0.81617 -3.96446,4.51951 -10.458911,4.60306 -12.863232,9.43442 -0.802201,1.61196 -0.424699,3.65527 1.197026,4.43758 9.866463,4.75948 11.195856,6.99861 22.031419,16.55945 5.931807,1.57736 11.111265,-3.22426 12.334725,-4.37811 1.29339,-1.25257 1.90135,-3.08642 0.81616,-4.52317 z"
           style="fill:#000000;fill-opacity:1;stroke:none;stroke-width:10;stroke-linecap:round;stroke-linejoin:round;stroke-miterlimit:4;stroke-dasharray:none;stroke-dashoffset:0;stroke-opacity:1" />
        <path
           style="fill:#000000;fill-opacity:1;stroke:none;stroke-width:10;stroke-linecap:round;stroke-linejoin:round;stroke-miterlimit:4;stroke-dasharray:none;stroke-dashoffset:0;stroke-opacity:1"
           d="m 188.48117,811.11218 c 4.80725,-10.09662 10.99463,-13.63478 18.99294,-20.71405 0.65386,-1.67759 3.33583,-2.16975 4.52316,-0.81617 3.96446,4.51951 10.45891,4.60306 12.86323,9.43442 0.8022,1.61196 0.4247,3.65527 -1.19702,4.43758 -9.86647,4.75948 -11.19586,6.99861 -22.03142,16.55945 -5.93181,1.57735 -11.11127,-3.22426 -12.33473,-4.37811 -1.29339,-1.25257 -1.90135,-3.08642 -0.81616,-4.52317 z"
           id="path5445"
           inkscape:connector-curvature="0"
           sodipodi:nodetypes="ccssscccc" />
        <path
           sodipodi:nodetypes="ccssscccc"
           inkscape:connector-curvature="0"
           id="path5447"
           d="m 172.53698,803.52071 c 2.74891,-10.8395 8.12877,-15.5149 14.59526,-24.01628 0.31463,-1.77281 2.84941,-2.77785 4.27761,-1.68142 4.76872,3.6609 11.15509,2.47807 14.45428,6.74869 1.10076,1.42487 1.12842,3.50257 -0.30989,4.58573 -8.75066,6.58983 -9.61853,9.04499 -18.38467,20.53297 -5.51105,2.70237 -11.52644,-0.99862 -12.95119,-1.89211 -1.51256,-0.97671 -2.46602,-2.65704 -1.68141,-4.27762 z"
           style="fill:#000000;fill-opacity:1;stroke:none;stroke-width:10;stroke-linecap:round;stroke-linejoin:round;stroke-miterlimit:4;stroke-dasharray:none;stroke-dashoffset:0;stroke-opacity:1" />
        <path
           style="fill:#000000;fill-opacity:1;stroke:none;stroke-width:10;stroke-linecap:round;stroke-linejoin:round;stroke-miterlimit:4;stroke-dasharray:none;stroke-dashoffset:0;stroke-opacity:1"
           d="m 123.5396,801.02728 c -2.90731,-10.7981 -8.35505,-15.39423 -14.94532,-23.80003 -0.34055,-1.76801 -2.88977,-2.73583 -4.30177,-1.61861 -4.7146,3.73033 -11.117611,2.64113 -14.353916,6.9596 -1.079788,1.44083 -1.077022,3.51872 0.377003,4.5807 8.846197,6.461 9.749923,8.90319 18.683313,20.2616 5.55003,2.62138 11.51058,-1.16727 12.9221,-2.08153 1.4981,-0.99875 2.42685,-2.69287 1.6186,-4.30178 z"
           id="path5449"
           inkscape:connector-curvature="0"
           sodipodi:nodetypes="ccssscccc" />
        <path
           sodipodi:nodetypes="ccssscccc"
           inkscape:connector-curvature="0"
           id="path5451"
           d="m 140.73704,796.57115 c -1.00801,-11.13712 -5.58467,-16.60123 -10.63202,-26.0147 -0.0316,-1.80023 -2.37652,-3.19182 -3.95954,-2.33392 -5.28562,2.86444 -11.40611,0.69087 -15.33654,4.38879 -1.31136,1.23379 -1.6658,3.28123 -0.41595,4.57733 7.60398,7.88537 8.07449,10.44655 14.92258,23.17143 5.01686,3.53633 11.53991,0.82859 13.08757,0.17056 1.64747,-0.72638 2.85359,-2.23565 2.33392,-3.95954 z"
           style="fill:#000000;fill-opacity:1;stroke:none;stroke-width:10;stroke-linecap:round;stroke-linejoin:round;stroke-miterlimit:4;stroke-dasharray:none;stroke-dashoffset:0;stroke-opacity:1" />
        <path
           style="fill:#000000;fill-opacity:1;stroke:none;stroke-width:10;stroke-linecap:round;stroke-linejoin:round;stroke-miterlimit:4;stroke-dasharray:none;stroke-dashoffset:0;stroke-opacity:1"
           d="m 155.24124,797.82115 c 1.00801,-11.13712 5.58467,-16.60123 10.63202,-26.0147 0.0316,-1.80023 2.37652,-3.19182 3.95954,-2.33392 5.28562,2.86444 11.40611,0.69087 15.33654,4.38879 1.31136,1.23379 1.6658,3.28123 0.41595,4.57733 -7.60398,7.88537 -8.07449,10.44655 -14.92258,23.17143 -0.85327,1.5855 -2.11549,2.16751 -3.89305,1.88096 -3.69239,-0.59522 -0.85303,1.96707 -9.19452,-1.7104 -1.64747,-0.72638 -2.85359,-2.23565 -2.33392,-3.95954 z"
           id="path5453"
           inkscape:connector-curvature="0"
           sodipodi:nodetypes="ccsssssscc" />
        <path
           style="fill:#000000;fill-opacity:1;stroke:none;stroke-width:10;stroke-linecap:round;stroke-linejoin:round;stroke-miterlimit:4;stroke-dasharray:none;stroke-dashoffset:0;stroke-opacity:1"
           d="m 154.10033,796.94116 c 0.78757,-2.22455 1.31491,-4.40395 1.93432,-6.64702 0.68705,-2.48802 1.48737,-5.0442 2.88173,-7.60803 2.87568,-5.28753 5.81277,-9.67485 7.39064,-13.80811 0.58188,-1.70389 -3.94504,-2.41382 -5.77149,-2.42231 -3.91013,-0.0182 -11.46346,0.11903 -18.75865,-0.65078 -2.96267,-0.78769 -12.00955,0.99906 -11.25261,3.90887 1.98464,2.11279 3.19028,5.12733 4.6027,7.83576 3.14996,6.04028 5.57222,12.84107 7.51312,20.89919 1.7899,1.25841 5.01214,1.07091 7.63913,0.48047 1.75393,-0.39421 3.26701,-0.62512 3.82111,-1.98804 z"
           id="path5455"
           inkscape:connector-curvature="0"
           sodipodi:nodetypes="csscsccscsc" />
        <path
           sodipodi:nodetypes="sssssssccssss"
           inkscape:connector-curvature="0"
           id="path5457"
           d="m 23.217391,1011.3621 c 29.730771,4.0834 58.372456,-0.8032 86.782949,1.5021 46.4187,3.7666 92.0933,-0.8279 135.46883,0.2988 10.97806,0.2852 21.91005,-1.0801 32.81344,-1.8009 2.88413,-0.1907 5.21739,2.327 5.21739,5.2174 l 0,4.5652 c 0,2.8905 -2.32759,5.1572 -5.21739,5.2174 -17.39744,0.3626 -27.65534,2.3644 -44.7779,2.7243 -54.75314,0.9347 -113.12681,1.1428 -161.036285,0.2115 -16.176604,-0.2656 -32.55926,-1.4764 -49.251034,-2.9358 C 20.337939,1026.1103 18,1024.0352 18,1021.1447 l 0,-4.5652 c 0,-2.8904 2.353841,-5.6107 5.217391,-5.2174 z"
           style="fill:#000000;fill-opacity:1;stroke:none;stroke-width:10;stroke-linecap:round;stroke-linejoin:round;stroke-miterlimit:4;stroke-dasharray:none;stroke-dashoffset:0;stroke-opacity:1" />
      </g>
    </g>
    <path
       sodipodi:type="star"
       style="fill:none;fill-opacity:1;stroke:#000000;stroke-width:3.29626012;stroke-linecap:round;stroke-linejoin:round;stroke-miterlimit:4;stroke-dasharray:none;stroke-dashoffset:0;stroke-opacity:1"
       id="path5459"
       sodipodi:sides="6"
       sodipodi:cx="-85.714279"
       sodipodi:cy="670.93359"
       sodipodi:r1="126.60601"
       sodipodi:r2="109.64402"
       sodipodi:arg1="0.52359878"
       sodipodi:arg2="1.0471976"
       inkscape:flatsided="true"
       inkscape:rounded="0"
       inkscape:randomized="0"
       d="m 23.929742,734.2366 -109.644022,63.303 -109.64402,-63.303 0,-126.60601 109.644021,-63.30301 109.644021,63.30301 z"
       transform="matrix(0.60651048,0,0,0.60698613,304.72323,486.30127)" />
    <text
       xml:space="preserve"
       style="font-style:normal;font-weight:normal;font-size:27.49554634px;line-height:125%;font-family:sans-serif;letter-spacing:0px;word-spacing:0px;fill:#000000;fill-opacity:1;stroke:none;stroke-width:1px;stroke-linecap:butt;stroke-linejoin:miter;stroke-opacity:1"
       x="240.98836"
       y="915.96204"
       id="text5461"
       sodipodi:linespacing="125%"><tspan
         sodipodi:role="line"
         id="tspan5463"
         x="240.98836"
         y="915.96204"
         style="font-style:normal;font-variant:normal;font-weight:normal;font-stretch:normal;font-family:'Archivo Black';-inkscape-font-specification:'Archivo Black, '">D</tspan></text>
  </g>
</svg>
