<?xml version="1.0" encoding="UTF-8" standalone="no"?>
<!-- Created with Inkscape (http://www.inkscape.org/) -->

<svg
   xmlns:dc="http://purl.org/dc/elements/1.1/"
   xmlns:cc="http://creativecommons.org/ns#"
   xmlns:rdf="http://www.w3.org/1999/02/22-rdf-syntax-ns#"
   xmlns:svg="http://www.w3.org/2000/svg"
   xmlns="http://www.w3.org/2000/svg"
   xmlns:sodipodi="http://sodipodi.sourceforge.net/DTD/sodipodi-0.dtd"
   xmlns:inkscape="http://www.inkscape.org/namespaces/inkscape"
   width="180"
   height="125"
   viewBox="0 0 180 125"
   id="svg2"
   version="1.1"
   inkscape:version="0.91 r13725"
   sodipodi:docname="shop ad - your last heist - acknowledgement -inside.svg">
  <defs
     id="defs4" />
  <sodipodi:namedview
     id="base"
     pagecolor="#ffffff"
     bordercolor="#666666"
     borderopacity="1.0"
     inkscape:pageopacity="0.0"
     inkscape:pageshadow="2"
     inkscape:zoom="2.8"
     inkscape:cx="34.881185"
     inkscape:cy="84.54175"
     inkscape:document-units="px"
     inkscape:current-layer="layer1"
     showgrid="false"
     units="px"
     inkscape:window-width="1920"
     inkscape:window-height="1018"
     inkscape:window-x="1672"
     inkscape:window-y="205"
     inkscape:window-maximized="1" />
  <metadata
     id="metadata7">
    <rdf:RDF>
      <cc:Work
         rdf:about="">
        <dc:format>image/svg+xml</dc:format>
        <dc:type
           rdf:resource="http://purl.org/dc/dcmitype/StillImage" />
        <dc:title></dc:title>
      </cc:Work>
    </rdf:RDF>
  </metadata>
  <g
     inkscape:label="Layer 1"
     inkscape:groupmode="layer"
     id="layer1"
     transform="translate(0,-927.36222)">
    <rect
       style="display:inline;fill:#ffffff;fill-opacity:1;fill-rule:nonzero;stroke:none"
       id="rect2986"
       width="568.06647"
       height="568.06647"
       x="-707.28711"
       y="713.7807"
       inkscape:export-filename="G:\apmeneel\Documents\Board Games\Grifters Cards\decks\skill.png"
       inkscape:export-xdpi="52.639999"
       inkscape:export-ydpi="52.639999" />
    <text
       xml:space="preserve"
       style="font-style:normal;font-weight:normal;font-size:20.68397713px;line-height:125%;font-family:sans-serif;letter-spacing:0px;word-spacing:0px;fill:#000000;fill-opacity:1;stroke:none;stroke-width:1px;stroke-linecap:butt;stroke-linejoin:miter;stroke-opacity:1"
       x="247.12692"
       y="915.92975"
       id="text4723"
       sodipodi:linespacing="125%"><tspan
         sodipodi:role="line"
         id="tspan4725"
         x="247.12692"
         y="915.92975" /><tspan
         sodipodi:role="line"
         x="247.12692"
         y="941.3728"
         id="tspan4727">📷💡🔊⚠</tspan></text>
    <text
       xml:space="preserve"
       style="font-style:normal;font-weight:normal;font-size:20.09749413px;line-height:125%;font-family:sans-serif;letter-spacing:0px;word-spacing:0px;fill:#000000;fill-opacity:1;stroke:none;stroke-width:1px;stroke-linecap:butt;stroke-linejoin:miter;stroke-opacity:1"
       x="247.75475"
       y="976.37585"
       id="text4729"
       sodipodi:linespacing="125%"><tspan
         sodipodi:role="line"
         id="tspan4731"
         x="247.75475"
         y="976.37585">🔓🔍➜👊</tspan></text>
    <g
       id="g4181"
       transform="translate(-293.44931,0)">
      <rect
         style="fill:#d9c787;fill-opacity:1;stroke:none;stroke-width:3;stroke-linecap:round;stroke-linejoin:round;stroke-miterlimit:4;stroke-dasharray:none;stroke-dashoffset:0;stroke-opacity:1"
         id="rect4183"
         width="180"
         height="124.82143"
         x="0"
         y="927.54077"
         ry="16.732395" />
      <text
         xml:space="preserve"
         style="font-style:normal;font-weight:normal;font-size:25.44293213px;line-height:125%;font-family:sans-serif;text-align:center;letter-spacing:0px;word-spacing:0px;text-anchor:middle;fill:#000000;fill-opacity:1;stroke:none;stroke-width:1px;stroke-linecap:butt;stroke-linejoin:miter;stroke-opacity:1"
         x="54.701862"
         y="984.10614"
         id="text4185"
         sodipodi:linespacing="125%"><tspan
           sodipodi:role="line"
           id="tspan4187"
           x="54.701859"
           y="984.10614"
           style="font-style:normal;font-variant:normal;font-weight:500;font-stretch:normal;font-family:Acknowledgement;-inkscape-font-specification:'Acknowledgement Medium';text-align:center;text-anchor:middle">YOUR</tspan></text>
      <text
         xml:space="preserve"
         style="font-style:normal;font-weight:normal;font-size:42.04912567px;line-height:125%;font-family:sans-serif;letter-spacing:0px;word-spacing:0px;fill:#000000;fill-opacity:1;stroke:none;stroke-width:1px;stroke-linecap:butt;stroke-linejoin:miter;stroke-opacity:1"
         x="4.0153241"
         y="1037.6221"
         id="text4189"
         sodipodi:linespacing="125%"><tspan
           sodipodi:role="line"
           id="tspan4191"
           x="4.0153241"
           y="1037.6221"
           style="font-style:normal;font-variant:normal;font-weight:500;font-stretch:normal;font-family:Acknowledgement;-inkscape-font-specification:'Acknowledgement Medium'">HEIST</tspan></text>
      <g
         transform="matrix(0.13972374,0,0,0.13972374,196.39332,829.92546)"
         id="g4193">
        <path
           style="fill:#2c9087;fill-opacity:1;fill-rule:nonzero;stroke:none"
           d="m -510.81951,724.88284 c 15.78984,34.53421 45.77273,61.09535 70.6329,86.72287 -4.97081,14.7521 -4.67812,10.7677 -10.91402,24.2547 -2.0948,-3.7165 -7.15991,-4.4628 -11.4222,-6.0118 -21.48344,35.3206 -36.81124,63.7738 -60.56209,94.3155 -68.05924,-34.5762 -81.70696,-29.1942 -111.58953,-36.7287 51.44197,-55.8753 86.25285,-101.48728 123.85494,-162.55257 z"
           id="path4195"
           inkscape:connector-curvature="0"
           sodipodi:nodetypes="ccccccc"
           inkscape:export-filename="G:\apmeneel\Documents\Board Games\Grifters Cards\decks\skill.png"
           inkscape:export-xdpi="52.639999"
           inkscape:export-ydpi="52.639999" />
        <text
           xml:space="preserve"
           style="font-style:normal;font-variant:normal;font-weight:normal;font-stretch:normal;font-size:160px;line-height:125%;font-family:Rockwell;-inkscape-font-specification:Rockwell;letter-spacing:0px;word-spacing:0px;fill:#f2f2f2;fill-opacity:1;stroke:none"
           x="23.494492"
           y="1026.4977"
           id="text4197"
           sodipodi:linespacing="125%"
           transform="matrix(0.81161289,0.58419562,-0.58419562,0.81161289,0,0)"
           inkscape:export-filename="G:\apmeneel\Documents\Board Games\Grifters Cards\decks\skill.png"
           inkscape:export-xdpi="52.639999"
           inkscape:export-ydpi="52.639999"><tspan
             sodipodi:role="line"
             id="tspan4199"
             x="23.494492"
             y="1026.4977"
             style="font-style:normal;font-variant:normal;font-weight:bold;font-stretch:normal;font-family:'Bodoni MT';-inkscape-font-specification:'Bodoni MT Bold';fill:#f2f2f2">$</tspan></text>
        <path
           style="display:inline;fill:#000000;stroke:none"
           d="m -464.44087,839.123 c -24.26701,42.6122 -48.17571,85.54281 -80.02413,121.41599 38.70337,49.42711 90.79823,90.38191 118.37812,157.28881 -0.58263,50.1937 -20.34868,98.6669 -31.91526,147.1708 59.41514,-6.5305 120.06193,-5.6711 181.20407,-1.8397 0.3066,-44.1512 7.44251,-87.3268 0.91981,-132.4537 9.69919,-17.0113 29.84056,-26.1141 36.79271,-44.1512 1.81465,-32.5189 14.03585,-64.0621 14.22448,-98.5321 -19.37819,11.7734 -33.11643,30.4144 -51.01719,44.2628 -13.42908,-12.1768 -30.61802,-21.668 -38.63234,-37.71251 -25.67294,-1.58459 -50.44289,-5.4267 -72.66559,-15.6369 -22.9316,-10.4955 -40.97234,-26.4253 -68.98632,-31.2738 7.47167,-7.9389 13.67788,-19.67429 19.31617,-33.11339 2.90675,5.1974 5.13503,7.3112 9.87289,8.236 -4.1328,7.4225 -10.00497,14.0121 -13.95763,19.47649 19.80491,10.4375 45.23598,25.62281 66.7927,32.55671 8.12506,-7.4352 15.49066,-21.00961 22.23599,-30.51431 3.06606,-17.16999 2.13212,-38.33988 5.19818,-55.50979 -40.70478,-15.4269 -74.19835,-27.8743 -117.73666,-49.6702"
           id="path4201"
           inkscape:connector-curvature="0"
           sodipodi:nodetypes="ccccccccccccccccccc"
           inkscape:export-filename="G:\apmeneel\Documents\Board Games\Grifters Cards\decks\skill.png"
           inkscape:export-xdpi="52.639999"
           inkscape:export-ydpi="52.639999" />
        <path
           style="display:inline;fill:#000000;stroke:none"
           d="m -389.70569,863.03831 c 16.18963,-23.18691 27.75312,-38.06121 36.7927,-58.86831 -14.25348,-22.45627 -27.82844,-23.99317 -47.83051,-32.19365 -18.08764,13.08367 -36.85529,47.64275 -47.60057,68.75635 18.66127,8.1455 33.29027,15.6921 58.63838,22.30561 z"
           id="path4203"
           inkscape:connector-curvature="0"
           sodipodi:nodetypes="ccccc"
           inkscape:export-filename="G:\apmeneel\Documents\Board Games\Grifters Cards\decks\skill.png"
           inkscape:export-xdpi="52.639999"
           inkscape:export-ydpi="52.639999" />
        <path
           style="display:inline;fill:#000000;stroke:none"
           d="m -380.50751,868.55721 c 14.64759,11.07469 27.6294,13.4973 39.55215,19.3162 -2.8233,9.8114 -2.36751,15.3695 -2.75945,29.43409 20.45184,-16.0231 42.21481,-54.123 53.34942,-72.6656 -14.23068,-14.3408 -30.66212,-29.2772 -55.18906,-36.7927 -14.48675,19.6214 -26.08516,39.831 -34.95306,60.708"
           id="path4205"
           inkscape:connector-curvature="0"
           sodipodi:nodetypes="cccccc"
           inkscape:export-filename="G:\apmeneel\Documents\Board Games\Grifters Cards\decks\skill.png"
           inkscape:export-xdpi="52.639999"
           inkscape:export-ydpi="52.639999" />
        <path
           style="display:inline;fill:#000000;stroke:none"
           d="m -290.42118,861.57971 c -20.69023,35.8236 -48.97968,78.65358 -73.15819,113.31449 10.842,13.7155 33.19229,5.01749 50.70156,13.9359 22.83976,-33.65121 47.23478,-61.9718 74.88623,-93.2172 -16.78498,-15.60829 -33.84966,-26.5208 -52.4296,-34.03319"
           id="path4207"
           inkscape:connector-curvature="0"
           sodipodi:nodetypes="ccccc"
           inkscape:export-filename="G:\apmeneel\Documents\Board Games\Grifters Cards\decks\skill.png"
           inkscape:export-xdpi="52.639999"
           inkscape:export-ydpi="52.639999" />
        <path
           style="display:inline;fill:#000000;stroke:none"
           d="m -233.3367,902.8204 c -36.66056,29.15071 -51.33559,68.8691 -72.18257,90.3952 8.90792,8.6188 16.59327,21.5146 28.95115,32.6304 28.62594,-27.3809 53.34942,-51.5098 80.02413,-77.2647 -6.89539,-16.04009 -21.96298,-35.77859 -36.79271,-45.76089"
           id="path4209"
           inkscape:connector-curvature="0"
           sodipodi:nodetypes="ccccc"
           inkscape:export-filename="G:\apmeneel\Documents\Board Games\Grifters Cards\decks\skill.png"
           inkscape:export-xdpi="52.639999"
           inkscape:export-ydpi="52.639999" />
      </g>
      <text
         sodipodi:linespacing="125%"
         id="text4211"
         y="1005.5845"
         x="56.009007"
         style="font-style:normal;font-weight:normal;font-size:27.10152435px;line-height:125%;font-family:sans-serif;text-align:center;letter-spacing:0px;word-spacing:0px;text-anchor:middle;fill:#000000;fill-opacity:1;stroke:none;stroke-width:1px;stroke-linecap:butt;stroke-linejoin:miter;stroke-opacity:1"
         xml:space="preserve"><tspan
           style="font-style:normal;font-variant:normal;font-weight:500;font-stretch:normal;font-family:Acknowledgement;-inkscape-font-specification:'Acknowledgement Medium';text-align:center;text-anchor:middle"
           y="1005.5845"
           x="56.009007"
           id="tspan4213"
           sodipodi:role="line">LAST</tspan></text>
    </g>
    <rect
       style="fill:#d9c787;fill-opacity:1;stroke:none;stroke-width:3;stroke-linecap:round;stroke-linejoin:round;stroke-miterlimit:4;stroke-dasharray:none;stroke-dashoffset:0;stroke-opacity:1"
       id="rect4217"
       width="180"
       height="124.82143"
       x="0.50508052"
       y="927.54077"
       ry="16.732395" />
    <text
       xml:space="preserve"
       style="font-style:normal;font-weight:normal;font-size:17.24389267px;line-height:125%;font-family:sans-serif;text-align:center;letter-spacing:0px;word-spacing:0px;text-anchor:middle;fill:#000000;fill-opacity:1;stroke:none;stroke-width:1px;stroke-linecap:butt;stroke-linejoin:miter;stroke-opacity:1"
       x="58.994133"
       y="966.06268"
       id="text4219"
       sodipodi:linespacing="125%"><tspan
         sodipodi:role="line"
         id="tspan4221"
         x="58.994133"
         y="966.06268"
         style="font-style:normal;font-variant:normal;font-weight:500;font-stretch:normal;font-family:Acknowledgement;-inkscape-font-specification:'Acknowledgement Medium';text-align:center;text-anchor:middle">YOUR</tspan></text>
    <path
       inkscape:export-ydpi="52.639999"
       inkscape:export-xdpi="52.639999"
       inkscape:export-filename="G:\apmeneel\Documents\Board Games\Grifters Cards\decks\skill.png"
       sodipodi:nodetypes="ccccccc"
       inkscape:connector-curvature="0"
       id="path4229"
       d="m 178.24574,963.59665 c -9.48038,4.33465 -16.77199,12.5656 -23.80729,19.39025 -4.04977,-1.36459 -2.95597,-1.28424 -6.65844,-2.99613 1.02026,-0.57507 1.22513,-1.96555 1.65037,-3.13564 -9.69627,-5.89767 -17.50728,-10.10548 -25.89164,-16.6256 9.49191,-18.68372 8.01444,-22.43032 10.08282,-30.63372 15.33897,14.12192 27.86044,23.67826 44.62418,34.00084 z"
       style="fill:#2c9087;fill-opacity:1;fill-rule:nonzero;stroke:none" />
    <text
       inkscape:export-ydpi="52.639999"
       inkscape:export-xdpi="52.639999"
       inkscape:export-filename="G:\apmeneel\Documents\Board Games\Grifters Cards\decks\skill.png"
       transform="matrix(-0.58419563,0.81161288,-0.81161288,-0.58419563,0,0)"
       sodipodi:linespacing="125%"
       id="text4231"
       y="-669.22974"
       x="681.94751"
       style="font-style:normal;font-variant:normal;font-weight:normal;font-stretch:normal;font-size:43.92344284px;line-height:125%;font-family:Rockwell;-inkscape-font-specification:Rockwell;letter-spacing:0px;word-spacing:0px;fill:#d9c787;fill-opacity:1;stroke:none;"
       xml:space="preserve"><tspan
         style="font-style:normal;font-variant:normal;font-weight:bold;font-stretch:normal;font-family:'Bodoni MT';-inkscape-font-specification:'Bodoni MT Bold';fill:#d9c787;fill-opacity:1;"
         y="-669.22974"
         x="681.94751"
         id="tspan4233"
         sodipodi:role="line">$</tspan></text>
    <path
       inkscape:export-ydpi="52.639999"
       inkscape:export-xdpi="52.639999"
       inkscape:export-filename="G:\apmeneel\Documents\Board Games\Grifters Cards\decks\skill.png"
       sodipodi:nodetypes="ccccccccccccccccccc"
       inkscape:connector-curvature="0"
       id="path4235"
       d="m 146.88436,976.32859 c -11.69797,-6.66182 -23.48334,-13.22527 -33.3313,-21.96835 -13.568809,10.62491 -19.341969,15.21191 -42.464889,24.74348 -17.346878,-0.20135 -39.84905,-9.88962 -56.611938,-13.88701 2.256924,20.53379 1.959919,41.49319 0.635792,62.62389 15.258592,0.1059 39.33844,2.0431 51.726745,0.2525 4.669968,2.6626 7.168882,8.1919 12.120454,10.1004 8.927138,0.4981 17.586425,3.8531 27.049186,3.9049 -3.23206,-5.3197 -8.349411,-9.0912 -12.151095,-14.0053 3.342794,-3.6866 5.948332,-8.4053 10.352895,-10.6054 0.435,-7.0478 1.48975,-13.8477 4.29267,-19.9483 2.88124,-6.29521 7.25431,-11.24779 8.58533,-18.93823 2.1794,2.05114 5.40101,3.75488 9.09034,5.30271 -1.4268,0.79796 -2.00709,1.40967 -2.26096,2.71032 -2.03764,-1.13454 -3.84663,-2.74658 -5.34672,-3.83167 -2.86532,5.43687 -7.03401,12.41825 -8.93752,18.33607 2.04113,2.2305 5.76759,4.2525 8.37684,6.1042 4.71353,0.8417 10.52512,0.5853 15.23863,1.427 4.23502,-11.1743 7.65209,-20.36901 13.63554,-32.32121"
       style="display:inline;fill:#000000;stroke:none" />
    <path
       inkscape:export-ydpi="52.639999"
       inkscape:export-xdpi="52.639999"
       inkscape:export-filename="G:\apmeneel\Documents\Board Games\Grifters Cards\decks\skill.png"
       sodipodi:nodetypes="ccccc"
       inkscape:connector-curvature="0"
       id="path4237"
       d="m 140.31909,996.845 c 6.36531,4.4444 10.44862,7.6188 16.16062,10.1004 6.16473,-3.9129 6.58664,-7.63952 8.83785,-13.13051 -3.59175,-4.96545 -13.07896,-10.11757 -18.8751,-13.06739 -2.23611,5.12292 -4.30782,9.1389 -6.12337,16.0975 z"
       style="display:inline;fill:#000000;stroke:none" />
    <path
       inkscape:export-ydpi="52.639999"
       inkscape:export-xdpi="52.639999"
       inkscape:export-filename="G:\apmeneel\Documents\Board Games\Grifters Cards\decks\skill.png"
       sodipodi:nodetypes="cccccc"
       inkscape:connector-curvature="0"
       id="path4239"
       d="m 138.80403,999.3701 c -3.04024,4.0211 -3.70529,7.5849 -5.30271,10.8579 -2.69344,-0.775 -4.21926,-0.6499 -8.08029,-0.7575 4.39869,5.6145 14.85793,11.5889 19.94827,14.6456 3.93686,-3.9067 8.03722,-8.4175 10.10039,-15.1506 -5.3865,-3.977 -10.93447,-7.161 -16.66565,-9.5954"
       style="display:inline;fill:#000000;stroke:none" />
    <path
       inkscape:export-ydpi="52.639999"
       inkscape:export-xdpi="52.639999"
       inkscape:export-filename="G:\apmeneel\Documents\Board Games\Grifters Cards\decks\skill.png"
       sodipodi:nodetypes="ccccc"
       inkscape:connector-curvature="0"
       id="path4241"
       d="m 140.71951,1024.1007 c -9.83435,-5.6799 -21.5921,-13.4459 -31.10727,-20.0835 -3.7652,2.9764 -1.37741,9.112 -3.8257,13.9187 9.23798,6.27 17.01259,12.967 25.59013,20.5579 4.28481,-4.6078 7.28053,-9.2925 9.34284,-14.3931"
       style="display:inline;fill:#000000;stroke:none" />
    <path
       inkscape:export-ydpi="52.639999"
       inkscape:export-xdpi="52.639999"
       inkscape:export-filename="G:\apmeneel\Documents\Board Games\Grifters Cards\decks\skill.png"
       sodipodi:nodetypes="ccccc"
       inkscape:connector-curvature="0"
       id="path4243"
       d="m 129.39805,1039.7717 c -8.0025,-10.0642 -18.90605,-14.0928 -24.81543,-19.8157 -2.36604,2.4454 -5.906217,4.5552 -8.957743,7.9477 7.516643,7.8584 14.140553,14.6456 21.210823,21.9683 4.40335,-1.8929 9.82199,-6.0293 12.56235,-10.1003"
       style="display:inline;fill:#000000;stroke:none" />
    <text
       sodipodi:linespacing="125%"
       id="text4245"
       y="996.93188"
       x="63.334263"
       style="font-style:normal;font-weight:normal;font-size:23.66861725px;line-height:125%;font-family:sans-serif;text-align:center;letter-spacing:0px;word-spacing:0px;text-anchor:middle;fill:#d9c787;fill-opacity:1;stroke:none;stroke-width:1px;stroke-linecap:butt;stroke-linejoin:miter;stroke-opacity:1"
       xml:space="preserve"><tspan
         style="font-style:normal;font-variant:normal;font-weight:500;font-stretch:normal;font-family:Acknowledgement;-inkscape-font-specification:'Acknowledgement Medium';text-align:center;text-anchor:middle;fill:#d9c787;fill-opacity:1"
         y="996.93188"
         x="63.334263"
         id="tspan4247"
         sodipodi:role="line">LAST</tspan></text>
    <text
       xml:space="preserve"
       style="font-style:normal;font-weight:normal;font-size:20.43057823px;line-height:125%;font-family:sans-serif;letter-spacing:0px;word-spacing:0px;fill:#d9c787;fill-opacity:1;stroke:none;stroke-width:1px;stroke-linecap:butt;stroke-linejoin:miter;stroke-opacity:1"
       x="18.660713"
       y="1011.8319"
       id="text4223"
       sodipodi:linespacing="125%"><tspan
         sodipodi:role="line"
         id="tspan4225"
         x="18.660713"
         y="1011.8319"
         style="font-style:normal;font-variant:normal;font-weight:500;font-stretch:normal;font-family:Acknowledgement;-inkscape-font-specification:'Acknowledgement Medium';fill:#d9c787;fill-opacity:1">HEIST</tspan></text>
  </g>
</svg>
