<?xml version="1.0" encoding="UTF-8" standalone="no"?>
<!-- Created with Inkscape (http://www.inkscape.org/) -->

<svg
   xmlns:dc="http://purl.org/dc/elements/1.1/"
   xmlns:cc="http://creativecommons.org/ns#"
   xmlns:rdf="http://www.w3.org/1999/02/22-rdf-syntax-ns#"
   xmlns:svg="http://www.w3.org/2000/svg"
   xmlns="http://www.w3.org/2000/svg"
   xmlns:sodipodi="http://sodipodi.sourceforge.net/DTD/sodipodi-0.dtd"
   xmlns:inkscape="http://www.inkscape.org/namespaces/inkscape"
   width="180"
   height="125"
   viewBox="0 0 180 125"
   id="svg2"
   version="1.1"
   inkscape:version="0.91 r13725"
   sodipodi:docname="shop ad - planning the heist.svg">
  <defs
     id="defs4" />
  <sodipodi:namedview
     id="base"
     pagecolor="#ffffff"
     bordercolor="#666666"
     borderopacity="1.0"
     inkscape:pageopacity="0.0"
     inkscape:pageshadow="2"
     inkscape:zoom="3.959798"
     inkscape:cx="103.53173"
     inkscape:cy="74.409248"
     inkscape:document-units="px"
     inkscape:current-layer="layer1"
     showgrid="false"
     units="px"
     inkscape:window-width="1920"
     inkscape:window-height="1017"
     inkscape:window-x="-8"
     inkscape:window-y="-8"
     inkscape:window-maximized="1" />
  <metadata
     id="metadata7">
    <rdf:RDF>
      <cc:Work
         rdf:about="">
        <dc:format>image/svg+xml</dc:format>
        <dc:type
           rdf:resource="http://purl.org/dc/dcmitype/StillImage" />
        <dc:title></dc:title>
      </cc:Work>
    </rdf:RDF>
  </metadata>
  <g
     inkscape:label="Layer 1"
     inkscape:groupmode="layer"
     id="layer1"
     transform="translate(0,-927.36222)">
    <rect
       style="fill:#d9c787;fill-opacity:1;stroke:none;stroke-width:3;stroke-linecap:round;stroke-linejoin:round;stroke-miterlimit:4;stroke-dasharray:none;stroke-dashoffset:0;stroke-opacity:1"
       id="rect4136"
       width="180"
       height="124.82143"
       x="0.17857143"
       y="931.46936"
       ry="6.125802" />
    <text
       xml:space="preserve"
       style="font-style:normal;font-weight:normal;font-size:35.63853073px;line-height:125%;font-family:sans-serif;letter-spacing:0px;word-spacing:0px;fill:#000000;fill-opacity:1;stroke:none;stroke-width:1px;stroke-linecap:butt;stroke-linejoin:miter;stroke-opacity:1"
       x="2.5085151"
       y="962.11182"
       id="text4138"
       sodipodi:linespacing="125%"><tspan
         sodipodi:role="line"
         id="tspan4140"
         x="2.5085151"
         y="962.11182"
         style="font-style:normal;font-variant:normal;font-weight:normal;font-stretch:normal;font-family:'Archivo Black';-inkscape-font-specification:'Archivo Black, '">Learning </tspan></text>
    <text
       sodipodi:linespacing="125%"
       id="text4142"
       y="994.43542"
       x="64.432312"
       style="font-style:normal;font-weight:normal;font-size:28.90101624px;line-height:125%;font-family:sans-serif;letter-spacing:0px;word-spacing:0px;fill:#000000;fill-opacity:1;stroke:none;stroke-width:1px;stroke-linecap:butt;stroke-linejoin:miter;stroke-opacity:1"
       xml:space="preserve"><tspan
         y="994.43542"
         x="64.432312"
         id="tspan4144"
         sodipodi:role="line"
         style="font-style:normal;font-variant:normal;font-weight:normal;font-stretch:normal;font-family:'Archivo Black';-inkscape-font-specification:'Archivo Black, '">the</tspan></text>
    <text
       xml:space="preserve"
       style="font-style:normal;font-weight:normal;font-size:51.07660675px;line-height:125%;font-family:sans-serif;letter-spacing:0px;word-spacing:0px;fill:#000000;fill-opacity:1;stroke:none;stroke-width:1px;stroke-linecap:butt;stroke-linejoin:miter;stroke-opacity:1"
       x="2.2256534"
       y="1045.1506"
       id="text4146"
       sodipodi:linespacing="125%"><tspan
         sodipodi:role="line"
         id="tspan4148"
         x="2.2256534"
         y="1045.1506"
         style="font-style:normal;font-variant:normal;font-weight:normal;font-stretch:normal;font-family:'Archivo Black';-inkscape-font-specification:'Archivo Black, '">HEIST</tspan></text>
    <rect
       style="display:inline;fill:#ffffff;fill-opacity:1;fill-rule:nonzero;stroke:none"
       id="rect2986"
       width="568.06647"
       height="568.06647"
       x="-707.28711"
       y="713.7807"
       inkscape:export-filename="G:\apmeneel\Documents\Board Games\Grifters Cards\decks\skill.png"
       inkscape:export-xdpi="52.639999"
       inkscape:export-ydpi="52.639999" />
    <g
       id="g4773"
       transform="matrix(0.06897199,0,0,0.06897199,158.94295,914.49504)">
      <path
         inkscape:export-ydpi="52.639999"
         inkscape:export-xdpi="52.639999"
         inkscape:export-filename="G:\apmeneel\Documents\Board Games\Grifters Cards\decks\skill.png"
         sodipodi:nodetypes="ccccccc"
         inkscape:connector-curvature="0"
         id="rect3817"
         d="m -510.81951,724.88284 c 15.78984,34.53421 45.77273,61.09535 70.6329,86.72287 -4.97081,14.7521 -4.67812,10.7677 -10.91402,24.2547 -2.0948,-3.7165 -7.15991,-4.4628 -11.4222,-6.0118 -21.48344,35.3206 -36.81124,63.7738 -60.56209,94.3155 -68.05924,-34.5762 -81.70696,-29.1942 -111.58953,-36.7287 51.44197,-55.8753 86.25285,-101.48728 123.85494,-162.55257 z"
         style="fill:#2c9087;fill-opacity:1;fill-rule:nonzero;stroke:none" />
      <text
         inkscape:export-ydpi="52.639999"
         inkscape:export-xdpi="52.639999"
         inkscape:export-filename="G:\apmeneel\Documents\Board Games\Grifters Cards\decks\skill.png"
         transform="matrix(0.81161289,0.58419562,-0.58419562,0.81161289,0,0)"
         sodipodi:linespacing="125%"
         id="text3828"
         y="1026.4977"
         x="23.494492"
         style="font-style:normal;font-variant:normal;font-weight:normal;font-stretch:normal;font-size:160px;line-height:125%;font-family:Rockwell;-inkscape-font-specification:Rockwell;letter-spacing:0px;word-spacing:0px;fill:#f2f2f2;fill-opacity:1;stroke:none"
         xml:space="preserve"><tspan
           style="font-style:normal;font-variant:normal;font-weight:bold;font-stretch:normal;font-family:'Bodoni MT';-inkscape-font-specification:'Bodoni MT Bold';fill:#f2f2f2"
           y="1026.4977"
           x="23.494492"
           id="tspan3830"
           sodipodi:role="line">$</tspan></text>
      <path
         inkscape:export-ydpi="52.639999"
         inkscape:export-xdpi="52.639999"
         inkscape:export-filename="G:\apmeneel\Documents\Board Games\Grifters Cards\decks\skill.png"
         sodipodi:nodetypes="ccccccccccccccccccc"
         inkscape:connector-curvature="0"
         id="path3024"
         d="m -464.44087,839.123 c -24.26701,42.6122 -48.17571,85.54281 -80.02413,121.41599 38.70337,49.42711 90.79823,90.38191 118.37812,157.28881 -0.58263,50.1937 -20.34868,98.6669 -31.91526,147.1708 59.41514,-6.5305 120.06193,-5.6711 181.20407,-1.8397 0.3066,-44.1512 7.44251,-87.3268 0.91981,-132.4537 9.69919,-17.0113 29.84056,-26.1141 36.79271,-44.1512 1.81465,-32.5189 14.03585,-64.0621 14.22448,-98.5321 -19.37819,11.7734 -33.11643,30.4144 -51.01719,44.2628 -13.42908,-12.1768 -30.61802,-21.668 -38.63234,-37.71251 -25.67294,-1.58459 -50.44289,-5.4267 -72.66559,-15.6369 -22.9316,-10.4955 -40.97234,-26.4253 -68.98632,-31.2738 7.47167,-7.9389 13.67788,-19.67429 19.31617,-33.11339 2.90675,5.1974 5.13503,7.3112 9.87289,8.236 -4.1328,7.4225 -10.00497,14.0121 -13.95763,19.47649 19.80491,10.4375 45.23598,25.62281 66.7927,32.55671 8.12506,-7.4352 15.49066,-21.00961 22.23599,-30.51431 3.06606,-17.16999 2.13212,-38.33988 5.19818,-55.50979 -40.70478,-15.4269 -74.19835,-27.8743 -117.73666,-49.6702"
         style="display:inline;fill:#000000;stroke:none" />
      <path
         inkscape:export-ydpi="52.639999"
         inkscape:export-xdpi="52.639999"
         inkscape:export-filename="G:\apmeneel\Documents\Board Games\Grifters Cards\decks\skill.png"
         sodipodi:nodetypes="ccccc"
         inkscape:connector-curvature="0"
         id="path3028"
         d="m -389.70569,863.03831 c 16.18963,-23.18691 27.75312,-38.06121 36.7927,-58.86831 -14.25348,-22.45627 -27.82844,-23.99317 -47.83051,-32.19365 -18.08764,13.08367 -36.85529,47.64275 -47.60057,68.75635 18.66127,8.1455 33.29027,15.6921 58.63838,22.30561 z"
         style="display:inline;fill:#000000;stroke:none" />
      <path
         inkscape:export-ydpi="52.639999"
         inkscape:export-xdpi="52.639999"
         inkscape:export-filename="G:\apmeneel\Documents\Board Games\Grifters Cards\decks\skill.png"
         sodipodi:nodetypes="cccccc"
         inkscape:connector-curvature="0"
         id="path3032"
         d="m -380.50751,868.55721 c 14.64759,11.07469 27.6294,13.4973 39.55215,19.3162 -2.8233,9.8114 -2.36751,15.3695 -2.75945,29.43409 20.45184,-16.0231 42.21481,-54.123 53.34942,-72.6656 -14.23068,-14.3408 -30.66212,-29.2772 -55.18906,-36.7927 -14.48675,19.6214 -26.08516,39.831 -34.95306,60.708"
         style="display:inline;fill:#000000;stroke:none" />
      <path
         inkscape:export-ydpi="52.639999"
         inkscape:export-xdpi="52.639999"
         inkscape:export-filename="G:\apmeneel\Documents\Board Games\Grifters Cards\decks\skill.png"
         sodipodi:nodetypes="ccccc"
         inkscape:connector-curvature="0"
         id="path3036"
         d="m -290.42118,861.57971 c -20.69023,35.8236 -48.97968,78.65358 -73.15819,113.31449 10.842,13.7155 33.19229,5.01749 50.70156,13.9359 22.83976,-33.65121 47.23478,-61.9718 74.88623,-93.2172 -16.78498,-15.60829 -33.84966,-26.5208 -52.4296,-34.03319"
         style="display:inline;fill:#000000;stroke:none" />
      <path
         inkscape:export-ydpi="52.639999"
         inkscape:export-xdpi="52.639999"
         inkscape:export-filename="G:\apmeneel\Documents\Board Games\Grifters Cards\decks\skill.png"
         sodipodi:nodetypes="ccccc"
         inkscape:connector-curvature="0"
         id="path3040"
         d="m -233.3367,902.8204 c -36.66056,29.15071 -51.33559,68.8691 -72.18257,90.3952 8.90792,8.6188 16.59327,21.5146 28.95115,32.6304 28.62594,-27.3809 53.34942,-51.5098 80.02413,-77.2647 -6.89539,-16.04009 -21.96298,-35.77859 -36.79271,-45.76089"
         style="display:inline;fill:#000000;stroke:none" />
    </g>
    <g
       transform="matrix(-0.06897199,0,0,0.06897199,17.683588,914.49504)"
       id="g4783">
      <path
         style="fill:#2c9087;fill-opacity:1;fill-rule:nonzero;stroke:none"
         d="m -510.81951,724.88284 c 15.78984,34.53421 45.77273,61.09535 70.6329,86.72287 -4.97081,14.7521 -4.67812,10.7677 -10.91402,24.2547 -2.0948,-3.7165 -7.15991,-4.4628 -11.4222,-6.0118 -21.48344,35.3206 -36.81124,63.7738 -60.56209,94.3155 -68.05924,-34.5762 -81.70696,-29.1942 -111.58953,-36.7287 51.44197,-55.8753 86.25285,-101.48728 123.85494,-162.55257 z"
         id="path4785"
         inkscape:connector-curvature="0"
         sodipodi:nodetypes="ccccccc"
         inkscape:export-filename="G:\apmeneel\Documents\Board Games\Grifters Cards\decks\skill.png"
         inkscape:export-xdpi="52.639999"
         inkscape:export-ydpi="52.639999" />
      <text
         xml:space="preserve"
         style="font-style:normal;font-variant:normal;font-weight:normal;font-stretch:normal;font-size:160px;line-height:125%;font-family:Rockwell;-inkscape-font-specification:Rockwell;letter-spacing:0px;word-spacing:0px;fill:#f2f2f2;fill-opacity:1;stroke:none"
         x="23.494492"
         y="1026.4977"
         id="text4787"
         sodipodi:linespacing="125%"
         transform="matrix(0.81161289,0.58419562,-0.58419562,0.81161289,0,0)"
         inkscape:export-filename="G:\apmeneel\Documents\Board Games\Grifters Cards\decks\skill.png"
         inkscape:export-xdpi="52.639999"
         inkscape:export-ydpi="52.639999"><tspan
           sodipodi:role="line"
           id="tspan4789"
           x="23.494492"
           y="1026.4977"
           style="font-style:normal;font-variant:normal;font-weight:bold;font-stretch:normal;font-family:'Bodoni MT';-inkscape-font-specification:'Bodoni MT Bold';fill:#f2f2f2">$</tspan></text>
      <path
         style="display:inline;fill:#000000;stroke:none"
         d="m -464.44087,839.123 c -24.26701,42.6122 -48.17571,85.54281 -80.02413,121.41599 38.70337,49.42711 90.79823,90.38191 118.37812,157.28881 -0.58263,50.1937 -20.34868,98.6669 -31.91526,147.1708 59.41514,-6.5305 120.06193,-5.6711 181.20407,-1.8397 0.3066,-44.1512 7.44251,-87.3268 0.91981,-132.4537 9.69919,-17.0113 29.84056,-26.1141 36.79271,-44.1512 1.81465,-32.5189 14.03585,-64.0621 14.22448,-98.5321 -19.37819,11.7734 -33.11643,30.4144 -51.01719,44.2628 -13.42908,-12.1768 -30.61802,-21.668 -38.63234,-37.71251 -25.67294,-1.58459 -50.44289,-5.4267 -72.66559,-15.6369 -22.9316,-10.4955 -40.97234,-26.4253 -68.98632,-31.2738 7.47167,-7.9389 13.67788,-19.67429 19.31617,-33.11339 2.90675,5.1974 5.13503,7.3112 9.87289,8.236 -4.1328,7.4225 -10.00497,14.0121 -13.95763,19.47649 19.80491,10.4375 45.23598,25.62281 66.7927,32.55671 8.12506,-7.4352 15.49066,-21.00961 22.23599,-30.51431 3.06606,-17.16999 2.13212,-38.33988 5.19818,-55.50979 -40.70478,-15.4269 -74.19835,-27.8743 -117.73666,-49.6702"
         id="path4791"
         inkscape:connector-curvature="0"
         sodipodi:nodetypes="ccccccccccccccccccc"
         inkscape:export-filename="G:\apmeneel\Documents\Board Games\Grifters Cards\decks\skill.png"
         inkscape:export-xdpi="52.639999"
         inkscape:export-ydpi="52.639999" />
      <path
         style="display:inline;fill:#000000;stroke:none"
         d="m -389.70569,863.03831 c 16.18963,-23.18691 27.75312,-38.06121 36.7927,-58.86831 -14.25348,-22.45627 -27.82844,-23.99317 -47.83051,-32.19365 -18.08764,13.08367 -36.85529,47.64275 -47.60057,68.75635 18.66127,8.1455 33.29027,15.6921 58.63838,22.30561 z"
         id="path4793"
         inkscape:connector-curvature="0"
         sodipodi:nodetypes="ccccc"
         inkscape:export-filename="G:\apmeneel\Documents\Board Games\Grifters Cards\decks\skill.png"
         inkscape:export-xdpi="52.639999"
         inkscape:export-ydpi="52.639999" />
      <path
         style="display:inline;fill:#000000;stroke:none"
         d="m -380.50751,868.55721 c 14.64759,11.07469 27.6294,13.4973 39.55215,19.3162 -2.8233,9.8114 -2.36751,15.3695 -2.75945,29.43409 20.45184,-16.0231 42.21481,-54.123 53.34942,-72.6656 -14.23068,-14.3408 -30.66212,-29.2772 -55.18906,-36.7927 -14.48675,19.6214 -26.08516,39.831 -34.95306,60.708"
         id="path4795"
         inkscape:connector-curvature="0"
         sodipodi:nodetypes="cccccc"
         inkscape:export-filename="G:\apmeneel\Documents\Board Games\Grifters Cards\decks\skill.png"
         inkscape:export-xdpi="52.639999"
         inkscape:export-ydpi="52.639999" />
      <path
         style="display:inline;fill:#000000;stroke:none"
         d="m -290.42118,861.57971 c -20.69023,35.8236 -48.97968,78.65358 -73.15819,113.31449 10.842,13.7155 33.19229,5.01749 50.70156,13.9359 22.83976,-33.65121 47.23478,-61.9718 74.88623,-93.2172 -16.78498,-15.60829 -33.84966,-26.5208 -52.4296,-34.03319"
         id="path4797"
         inkscape:connector-curvature="0"
         sodipodi:nodetypes="ccccc"
         inkscape:export-filename="G:\apmeneel\Documents\Board Games\Grifters Cards\decks\skill.png"
         inkscape:export-xdpi="52.639999"
         inkscape:export-ydpi="52.639999" />
      <path
         style="display:inline;fill:#000000;stroke:none"
         d="m -233.3367,902.8204 c -36.66056,29.15071 -51.33559,68.8691 -72.18257,90.3952 8.90792,8.6188 16.59327,21.5146 28.95115,32.6304 28.62594,-27.3809 53.34942,-51.5098 80.02413,-77.2647 -6.89539,-16.04009 -21.96298,-35.77859 -36.79271,-45.76089"
         id="path4799"
         inkscape:connector-curvature="0"
         sodipodi:nodetypes="ccccc"
         inkscape:export-filename="G:\apmeneel\Documents\Board Games\Grifters Cards\decks\skill.png"
         inkscape:export-xdpi="52.639999"
         inkscape:export-ydpi="52.639999" />
    </g>
  </g>
</svg>
