<?xml version="1.0" encoding="UTF-8" standalone="no"?>
<!-- Created with Inkscape (http://www.inkscape.org/) -->

<svg
   xmlns:dc="http://purl.org/dc/elements/1.1/"
   xmlns:cc="http://creativecommons.org/ns#"
   xmlns:rdf="http://www.w3.org/1999/02/22-rdf-syntax-ns#"
   xmlns:svg="http://www.w3.org/2000/svg"
   xmlns="http://www.w3.org/2000/svg"
   xmlns:sodipodi="http://sodipodi.sourceforge.net/DTD/sodipodi-0.dtd"
   xmlns:inkscape="http://www.inkscape.org/namespaces/inkscape"
   width="180"
   height="125"
   viewBox="0 0 180 125"
   id="svg2"
   version="1.1"
   inkscape:version="0.91 r13725"
   sodipodi:docname="shop ad - your last heist - acknowledgement.svg">
  <defs
     id="defs4" />
  <sodipodi:namedview
     id="base"
     pagecolor="#ffffff"
     bordercolor="#666666"
     borderopacity="1.0"
     inkscape:pageopacity="0.0"
     inkscape:pageshadow="2"
     inkscape:zoom="1.4"
     inkscape:cx="42.490776"
     inkscape:cy="90.719869"
     inkscape:document-units="px"
     inkscape:current-layer="layer1"
     showgrid="false"
     units="px"
     inkscape:window-width="1920"
     inkscape:window-height="1017"
     inkscape:window-x="-8"
     inkscape:window-y="-8"
     inkscape:window-maximized="1" />
  <metadata
     id="metadata7">
    <rdf:RDF>
      <cc:Work
         rdf:about="">
        <dc:format>image/svg+xml</dc:format>
        <dc:type
           rdf:resource="http://purl.org/dc/dcmitype/StillImage" />
        <dc:title></dc:title>
      </cc:Work>
    </rdf:RDF>
  </metadata>
  <g
     inkscape:label="Layer 1"
     inkscape:groupmode="layer"
     id="layer1"
     transform="translate(0,-927.36222)">
    <rect
       style="fill:#d9c787;fill-opacity:1;stroke:none;stroke-width:3;stroke-linecap:round;stroke-linejoin:round;stroke-miterlimit:4;stroke-dasharray:none;stroke-dashoffset:0;stroke-opacity:1"
       id="rect4136"
       width="180"
       height="124.82143"
       x="0"
       y="927.89795"
       ry="6.125802" />
    <text
       xml:space="preserve"
       style="font-style:normal;font-weight:normal;font-size:41.27305603px;line-height:125%;font-family:sans-serif;letter-spacing:0px;word-spacing:0px;fill:#000000;fill-opacity:1;stroke:none;stroke-width:1px;stroke-linecap:butt;stroke-linejoin:miter;stroke-opacity:1"
       x="9.4604664"
       y="961.05963"
       id="text4138"
       sodipodi:linespacing="125%"><tspan
         sodipodi:role="line"
         id="tspan4140"
         x="9.4604664"
         y="961.05963"
         style="font-style:normal;font-variant:normal;font-weight:500;font-stretch:normal;font-family:Acknowledgement;-inkscape-font-specification:'Acknowledgement Medium'">YOUR</tspan></text>
    <text
       xml:space="preserve"
       style="font-style:normal;font-weight:normal;font-size:41.48172379px;line-height:125%;font-family:sans-serif;letter-spacing:0px;word-spacing:0px;fill:#000000;fill-opacity:1;stroke:none;stroke-width:1px;stroke-linecap:butt;stroke-linejoin:miter;stroke-opacity:1"
       x="3.0040779"
       y="1044.5428"
       id="text4146"
       sodipodi:linespacing="125%"><tspan
         sodipodi:role="line"
         id="tspan4148"
         x="3.0040779"
         y="1044.5428"
         style="font-style:normal;font-variant:normal;font-weight:500;font-stretch:normal;font-family:Acknowledgement;-inkscape-font-specification:'Acknowledgement Medium'">HEIST</tspan></text>
    <rect
       style="display:inline;fill:#ffffff;fill-opacity:1;fill-rule:nonzero;stroke:none"
       id="rect2986"
       width="568.06647"
       height="568.06647"
       x="-707.28711"
       y="713.7807"
       inkscape:export-filename="G:\apmeneel\Documents\Board Games\Grifters Cards\decks\skill.png"
       inkscape:export-xdpi="52.639999"
       inkscape:export-ydpi="52.639999" />
    <text
       sodipodi:linespacing="125%"
       id="text4142"
       y="1001.2391"
       x="59.287666"
       style="font-style:normal;font-weight:normal;font-size:44.57838058px;line-height:125%;font-family:sans-serif;letter-spacing:0px;word-spacing:0px;fill:#000000;fill-opacity:1;stroke:none;stroke-width:1px;stroke-linecap:butt;stroke-linejoin:miter;stroke-opacity:1"
       xml:space="preserve"><tspan
         y="1001.2391"
         x="59.287666"
         id="tspan4144"
         sodipodi:role="line"
         style="font-style:italic;font-variant:normal;font-weight:normal;font-stretch:normal;font-family:'Bodoni MT';-inkscape-font-specification:'Bodoni MT Italic'">last</tspan></text>
    <g
       id="g4880"
       transform="matrix(0.8222645,0,0,0.8222645,9.7181106,184.32525)">
      <path
         style="fill:#2c9087;fill-opacity:1;fill-rule:nonzero;stroke:none"
         d="m 16.383362,947.14543 c 1.657448,3.62503 4.804729,6.41314 7.414281,9.10324 -0.521782,1.54851 -0.491058,1.13027 -1.145636,2.54599 -0.219889,-0.39011 -0.75157,-0.46845 -1.198979,-0.63105 -2.2551,3.70758 -3.864048,6.69429 -6.357156,9.90023 -7.1441264,-3.62944 -8.5767174,-3.0645 -11.7134674,-3.85539 5.399824,-5.86519 9.0538954,-10.65304 13.0009574,-17.06302 z"
         id="path4785"
         inkscape:connector-curvature="0"
         sodipodi:nodetypes="ccccccc"
         inkscape:export-filename="G:\apmeneel\Documents\Board Games\Grifters Cards\decks\skill.png"
         inkscape:export-xdpi="52.639999"
         inkscape:export-ydpi="52.639999" />
      <g
         id="text4787"
         style="font-style:normal;font-variant:normal;font-weight:normal;font-stretch:normal;font-size:16.79507637px;line-height:125%;font-family:Rockwell;-inkscape-font-specification:Rockwell;letter-spacing:0px;word-spacing:0px;fill:#f2f2f2;fill-opacity:1;stroke:none"
         transform="matrix(0.81161291,0.58419559,-0.58419559,0.81161291,84.347738,-0.75761441)">
        <path
           inkscape:connector-curvature="0"
           id="path4878"
           style="font-style:normal;font-variant:normal;font-weight:bold;font-stretch:normal;font-family:'Bodoni MT';-inkscape-font-specification:'Bodoni MT Bold';fill:#f2f2f2"
           d="m 505.27534,813.69169 0,3.81334 q 2.58322,0.72166 2.58322,3.12447 0,2.42742 -2.58322,3.07527 l 0,1.68115 -0.50845,0 0,-1.58274 q -0.34443,0.041 -0.59045,0.041 -0.18862,0 -0.40184,-0.0246 l 0,1.56634 -0.50024,0 0,-1.58274 q -1.37772,-0.22962 -2.07478,-0.95948 -0.69706,-0.73807 -0.69706,-1.57454 0,-0.54125 0.31162,-0.84468 0.31163,-0.31162 0.82828,-0.31162 0.45924,0 0.75446,0.31162 0.30343,0.30343 0.30343,0.72987 0,0.39363 -0.24602,0.68066 -0.24602,0.27882 -0.55765,0.36083 -0.30343,0.082 -0.30343,0.21322 0,0.19682 0.42644,0.46744 0.42644,0.27062 1.25471,0.41004 l 0,-3.91175 q -2.53402,-0.82007 -2.53402,-3.00966 0,-2.3044 2.53402,-3.07527 l 0,-0.85288 0.50024,0 0,0.77087 q 0.53305,-0.0656 0.99229,-0.0328 l 0,-0.73807 0.50845,0 0,0.77087 q 1.27111,0.19682 1.90256,0.85288 0.63146,0.64785 0.63146,1.32851 0,0.47564 -0.26242,0.80367 -0.26243,0.31983 -0.74627,0.31983 -0.42644,0 -0.68066,-0.26242 -0.24602,-0.26243 -0.24602,-0.65606 0,-0.70526 0.70526,-0.89388 0.25422,-0.0492 0.25422,-0.18041 0,-0.18042 -0.42643,-0.43464 -0.41824,-0.26243 -1.1317,-0.39364 z m -0.50845,3.68213 0,-3.71493 q -0.60685,0 -0.99229,0.0656 l 0,3.37869 q 0.55765,0.18862 0.99229,0.27063 z m -1.49253,-0.41824 0,-3.14088 q -1.47613,0.50025 -1.47613,1.65655 0,1.07429 1.47613,1.48433 z m 1.49253,6.33096 0,-3.47711 -0.99229,-0.28702 0,3.81333 q 0.32803,0.0246 0.99229,-0.0492 z m 0.50845,-3.3295 0,3.26389 q 0.82827,-0.22962 1.2219,-0.71346 0.40184,-0.48384 0.40184,-1.03329 0,-1.16451 -1.62374,-1.51714 z" />
      </g>
      <path
         style="display:inline;fill:#8d5a1e;fill-opacity:1;stroke:none"
         d="m 21.251692,959.13714 c -2.547289,4.47297 -5.056967,8.97936 -8.400071,12.74494 4.062663,5.18832 9.53102,9.48732 12.42606,16.51048 -0.06116,5.2688 -2.135985,10.35699 -3.35012,15.44844 6.236762,-0.6855 12.602808,-0.5953 19.020852,-0.1931 0.03218,-4.63456 0.781234,-9.16667 0.09655,-13.90361 1.018117,-1.78566 3.132341,-2.74117 3.862103,-4.63451 0.190482,-3.41349 1.473332,-6.72455 1.493133,-10.34284 -2.034114,1.23584 -3.476207,3.19257 -5.355236,4.64623 -1.40964,-1.27819 -3.21395,-2.27447 -4.055207,-3.95865 -2.694868,-0.16634 -5.294951,-0.56964 -7.627651,-1.6414 -2.407112,-1.1017 -4.300835,-2.77384 -7.24144,-3.28278 0.784295,-0.83334 1.435756,-2.0652 2.027603,-3.47589 0.305119,0.54557 0.53902,0.76745 1.03635,0.86453 -0.433817,0.77913 -1.050214,1.47084 -1.465122,2.04443 2.078906,1.09561 4.748386,2.68961 7.011178,3.41745 0.852882,-0.78047 1.626043,-2.20536 2.334095,-3.20306 0.321842,-1.80232 0.223807,-4.02451 0.545649,-5.82682 -4.272749,-1.61935 -7.788544,-2.92595 -12.358727,-5.21384"
         id="path4791"
         inkscape:connector-curvature="0"
         sodipodi:nodetypes="ccccccccccccccccccc"
         inkscape:export-filename="G:\apmeneel\Documents\Board Games\Grifters Cards\decks\skill.png"
         inkscape:export-xdpi="52.639999"
         inkscape:export-ydpi="52.639999" />
      <path
         style="display:inline;fill:#8d5a1e;fill-opacity:1;stroke:none"
         d="m 29.096587,961.64751 c 1.699413,-2.43392 2.913223,-3.99526 3.862101,-6.17936 -1.496177,-2.35722 -2.92113,-2.51855 -5.020732,-3.37935 -1.898645,1.37339 -3.868671,5.00103 -4.996595,7.2173 1.958859,0.85503 3.494454,1.64719 6.155226,2.34141 z"
         id="path4793"
         inkscape:connector-curvature="0"
         sodipodi:nodetypes="ccccc"
         inkscape:export-filename="G:\apmeneel\Documents\Board Games\Grifters Cards\decks\skill.png"
         inkscape:export-xdpi="52.639999"
         inkscape:export-ydpi="52.639999" />
      <path
         style="display:inline;fill:#8d5a1e;fill-opacity:1;stroke:none"
         d="m 30.062113,962.22682 c 1.537546,1.1625 2.900237,1.4168 4.151758,2.02761 -0.296359,1.02989 -0.248515,1.61332 -0.289657,3.08967 2.146814,-1.68193 4.431256,-5.68125 5.600048,-7.62765 -1.493784,-1.50534 -3.21858,-3.07321 -5.793154,-3.8621 -1.520663,2.05964 -2.738139,4.18103 -3.668995,6.37247"
         id="path4795"
         inkscape:connector-curvature="0"
         sodipodi:nodetypes="cccccc"
         inkscape:export-filename="G:\apmeneel\Documents\Board Games\Grifters Cards\decks\skill.png"
         inkscape:export-xdpi="52.639999"
         inkscape:export-ydpi="52.639999" />
      <path
         style="display:inline;fill:#8d5a1e;fill-opacity:1;stroke:none"
         d="m 39.518405,961.4944 c -2.171837,3.76037 -5.141359,8.2562 -7.679359,11.89453 1.138077,1.43971 3.48417,0.52669 5.322104,1.46284 2.397472,-3.53234 4.958199,-6.50513 7.86075,-9.78493 -1.761906,-1.63839 -3.553173,-2.78387 -5.503495,-3.57244"
         id="path4797"
         inkscape:connector-curvature="0"
         sodipodi:nodetypes="ccccc"
         inkscape:export-filename="G:\apmeneel\Documents\Board Games\Grifters Cards\decks\skill.png"
         inkscape:export-xdpi="52.639999"
         inkscape:export-ydpi="52.639999" />
      <path
         style="display:inline;fill:#8d5a1e;fill-opacity:1;stroke:none"
         d="m 45.510519,965.8234 c -3.84823,3.05993 -5.388657,7.22914 -7.576949,9.48872 0.935058,0.90471 1.741783,2.25837 3.03898,3.42518 3.004843,-2.87415 5.600048,-5.40694 8.400072,-8.11041 -0.723804,-1.68372 -2.305437,-3.75565 -3.862103,-4.80349"
         id="path4799"
         inkscape:connector-curvature="0"
         sodipodi:nodetypes="ccccc"
         inkscape:export-filename="G:\apmeneel\Documents\Board Games\Grifters Cards\decks\skill.png"
         inkscape:export-xdpi="52.639999"
         inkscape:export-ydpi="52.639999" />
    </g>
    <g
       transform="matrix(-0.8222645,0,0,0.8222645,176.25773,184.5529)"
       id="g4890">
      <path
         inkscape:export-ydpi="52.639999"
         inkscape:export-xdpi="52.639999"
         inkscape:export-filename="G:\apmeneel\Documents\Board Games\Grifters Cards\decks\skill.png"
         sodipodi:nodetypes="ccccccc"
         inkscape:connector-curvature="0"
         id="path4892"
         d="m 16.383362,947.14543 c 1.657448,3.62503 4.804729,6.41314 7.414281,9.10324 -0.521782,1.54851 -0.491058,1.13027 -1.145636,2.54599 -0.219889,-0.39011 -0.75157,-0.46845 -1.198979,-0.63105 -2.2551,3.70758 -3.864048,6.69429 -6.357156,9.90023 -7.1441264,-3.62944 -8.5767174,-3.0645 -11.7134674,-3.85539 5.399824,-5.86519 9.0538954,-10.65304 13.0009574,-17.06302 z"
         style="fill:#2c9087;fill-opacity:1;fill-rule:nonzero;stroke:none" />
      <g
         transform="matrix(0.81161291,0.58419559,-0.58419559,0.81161291,84.347738,-0.75761441)"
         style="font-style:normal;font-variant:normal;font-weight:normal;font-stretch:normal;font-size:16.79507637px;line-height:125%;font-family:Rockwell;-inkscape-font-specification:Rockwell;letter-spacing:0px;word-spacing:0px;fill:#f2f2f2;fill-opacity:1;stroke:none"
         id="g4894">
        <path
           d="m 505.27534,813.69169 0,3.81334 q 2.58322,0.72166 2.58322,3.12447 0,2.42742 -2.58322,3.07527 l 0,1.68115 -0.50845,0 0,-1.58274 q -0.34443,0.041 -0.59045,0.041 -0.18862,0 -0.40184,-0.0246 l 0,1.56634 -0.50024,0 0,-1.58274 q -1.37772,-0.22962 -2.07478,-0.95948 -0.69706,-0.73807 -0.69706,-1.57454 0,-0.54125 0.31162,-0.84468 0.31163,-0.31162 0.82828,-0.31162 0.45924,0 0.75446,0.31162 0.30343,0.30343 0.30343,0.72987 0,0.39363 -0.24602,0.68066 -0.24602,0.27882 -0.55765,0.36083 -0.30343,0.082 -0.30343,0.21322 0,0.19682 0.42644,0.46744 0.42644,0.27062 1.25471,0.41004 l 0,-3.91175 q -2.53402,-0.82007 -2.53402,-3.00966 0,-2.3044 2.53402,-3.07527 l 0,-0.85288 0.50024,0 0,0.77087 q 0.53305,-0.0656 0.99229,-0.0328 l 0,-0.73807 0.50845,0 0,0.77087 q 1.27111,0.19682 1.90256,0.85288 0.63146,0.64785 0.63146,1.32851 0,0.47564 -0.26242,0.80367 -0.26243,0.31983 -0.74627,0.31983 -0.42644,0 -0.68066,-0.26242 -0.24602,-0.26243 -0.24602,-0.65606 0,-0.70526 0.70526,-0.89388 0.25422,-0.0492 0.25422,-0.18041 0,-0.18042 -0.42643,-0.43464 -0.41824,-0.26243 -1.1317,-0.39364 z m -0.50845,3.68213 0,-3.71493 q -0.60685,0 -0.99229,0.0656 l 0,3.37869 q 0.55765,0.18862 0.99229,0.27063 z m -1.49253,-0.41824 0,-3.14088 q -1.47613,0.50025 -1.47613,1.65655 0,1.07429 1.47613,1.48433 z m 1.49253,6.33096 0,-3.47711 -0.99229,-0.28702 0,3.81333 q 0.32803,0.0246 0.99229,-0.0492 z m 0.50845,-3.3295 0,3.26389 q 0.82827,-0.22962 1.2219,-0.71346 0.40184,-0.48384 0.40184,-1.03329 0,-1.16451 -1.62374,-1.51714 z"
           style="font-style:normal;font-variant:normal;font-weight:bold;font-stretch:normal;font-family:'Bodoni MT';-inkscape-font-specification:'Bodoni MT Bold';fill:#f2f2f2"
           id="path4896"
           inkscape:connector-curvature="0" />
      </g>
      <path
         inkscape:export-ydpi="52.639999"
         inkscape:export-xdpi="52.639999"
         inkscape:export-filename="G:\apmeneel\Documents\Board Games\Grifters Cards\decks\skill.png"
         sodipodi:nodetypes="ccccccccccccccccccc"
         inkscape:connector-curvature="0"
         id="path4898"
         d="m 21.251692,959.13714 c -2.547289,4.47297 -5.056967,8.97936 -8.400071,12.74494 4.062663,5.18832 9.53102,9.48732 12.42606,16.51048 -0.06116,5.2688 -2.135985,10.35699 -3.35012,15.44844 6.236762,-0.6855 12.602808,-0.5953 19.020852,-0.1931 0.03218,-4.63456 0.781234,-9.16667 0.09655,-13.90361 1.018117,-1.78566 3.132341,-2.74117 3.862103,-4.63451 0.190482,-3.41349 1.473332,-6.72455 1.493133,-10.34284 -2.034114,1.23584 -3.476207,3.19257 -5.355236,4.64623 -1.40964,-1.27819 -3.21395,-2.27447 -4.055207,-3.95865 -2.694868,-0.16634 -5.294951,-0.56964 -7.627651,-1.6414 -2.407112,-1.1017 -4.300835,-2.77384 -7.24144,-3.28278 0.784295,-0.83334 1.435756,-2.0652 2.027603,-3.47589 0.305119,0.54557 0.53902,0.76745 1.03635,0.86453 -0.433817,0.77913 -1.050214,1.47084 -1.465122,2.04443 2.078906,1.09561 4.748386,2.68961 7.011178,3.41745 0.852882,-0.78047 1.626043,-2.20536 2.334095,-3.20306 0.321842,-1.80232 0.223807,-4.02451 0.545649,-5.82682 -4.272749,-1.61935 -7.788544,-2.92595 -12.358727,-5.21384"
         style="display:inline;fill:#8d5a1e;fill-opacity:1;stroke:none" />
      <path
         inkscape:export-ydpi="52.639999"
         inkscape:export-xdpi="52.639999"
         inkscape:export-filename="G:\apmeneel\Documents\Board Games\Grifters Cards\decks\skill.png"
         sodipodi:nodetypes="ccccc"
         inkscape:connector-curvature="0"
         id="path4900"
         d="m 29.096587,961.64751 c 1.699413,-2.43392 2.913223,-3.99526 3.862101,-6.17936 -1.496177,-2.35722 -2.92113,-2.51855 -5.020732,-3.37935 -1.898645,1.37339 -3.868671,5.00103 -4.996595,7.2173 1.958859,0.85503 3.494454,1.64719 6.155226,2.34141 z"
         style="display:inline;fill:#8d5a1e;fill-opacity:1;stroke:none" />
      <path
         inkscape:export-ydpi="52.639999"
         inkscape:export-xdpi="52.639999"
         inkscape:export-filename="G:\apmeneel\Documents\Board Games\Grifters Cards\decks\skill.png"
         sodipodi:nodetypes="cccccc"
         inkscape:connector-curvature="0"
         id="path4902"
         d="m 30.062113,962.22682 c 1.537546,1.1625 2.900237,1.4168 4.151758,2.02761 -0.296359,1.02989 -0.248515,1.61332 -0.289657,3.08967 2.146814,-1.68193 4.431256,-5.68125 5.600048,-7.62765 -1.493784,-1.50534 -3.21858,-3.07321 -5.793154,-3.8621 -1.520663,2.05964 -2.738139,4.18103 -3.668995,6.37247"
         style="display:inline;fill:#8d5a1e;fill-opacity:1;stroke:none" />
      <path
         inkscape:export-ydpi="52.639999"
         inkscape:export-xdpi="52.639999"
         inkscape:export-filename="G:\apmeneel\Documents\Board Games\Grifters Cards\decks\skill.png"
         sodipodi:nodetypes="ccccc"
         inkscape:connector-curvature="0"
         id="path4904"
         d="m 39.518405,961.4944 c -2.171837,3.76037 -5.141359,8.2562 -7.679359,11.89453 1.138077,1.43971 3.48417,0.52669 5.322104,1.46284 2.397472,-3.53234 4.958199,-6.50513 7.86075,-9.78493 -1.761906,-1.63839 -3.553173,-2.78387 -5.503495,-3.57244"
         style="display:inline;fill:#8d5a1e;fill-opacity:1;stroke:none" />
      <path
         inkscape:export-ydpi="52.639999"
         inkscape:export-xdpi="52.639999"
         inkscape:export-filename="G:\apmeneel\Documents\Board Games\Grifters Cards\decks\skill.png"
         sodipodi:nodetypes="ccccc"
         inkscape:connector-curvature="0"
         id="path4906"
         d="m 45.510519,965.8234 c -3.84823,3.05993 -5.388657,7.22914 -7.576949,9.48872 0.935058,0.90471 1.741783,2.25837 3.03898,3.42518 3.004843,-2.87415 5.600048,-5.40694 8.400072,-8.11041 -0.723804,-1.68372 -2.305437,-3.75565 -3.862103,-4.80349"
         style="display:inline;fill:#8d5a1e;fill-opacity:1;stroke:none" />
    </g>
  </g>
</svg>
