<?xml version="1.0" encoding="UTF-8" standalone="no"?>
<!-- Created with Inkscape (http://www.inkscape.org/) -->

<svg
   xmlns:dc="http://purl.org/dc/elements/1.1/"
   xmlns:cc="http://creativecommons.org/ns#"
   xmlns:rdf="http://www.w3.org/1999/02/22-rdf-syntax-ns#"
   xmlns:svg="http://www.w3.org/2000/svg"
   xmlns="http://www.w3.org/2000/svg"
   xmlns:sodipodi="http://sodipodi.sourceforge.net/DTD/sodipodi-0.dtd"
   xmlns:inkscape="http://www.inkscape.org/namespaces/inkscape"
   width="100"
   height="400"
   viewBox="0 0 26.458333 105.83334"
   version="1.1"
   id="svg825"
   inkscape:version="0.92.0 r15299"
   sodipodi:docname="shutter bug.svg">
  <defs
     id="defs819" />
  <sodipodi:namedview
     id="base"
     pagecolor="#ffffff"
     bordercolor="#666666"
     borderopacity="1.0"
     inkscape:pageopacity="0.0"
     inkscape:pageshadow="2"
     inkscape:zoom="0.98994949"
     inkscape:cx="2.5781517"
     inkscape:cy="27.907906"
     inkscape:document-units="mm"
     inkscape:current-layer="layer1"
     showgrid="false"
     inkscape:window-width="1920"
     inkscape:window-height="1017"
     inkscape:window-x="-8"
     inkscape:window-y="-8"
     inkscape:window-maximized="1"
     units="px" />
  <metadata
     id="metadata822">
    <rdf:RDF>
      <cc:Work
         rdf:about="">
        <dc:format>image/svg+xml</dc:format>
        <dc:type
           rdf:resource="http://purl.org/dc/dcmitype/StillImage" />
        <dc:title></dc:title>
      </cc:Work>
    </rdf:RDF>
  </metadata>
  <g
     inkscape:label="Layer 1"
     inkscape:groupmode="layer"
     id="layer1"
     transform="translate(0,-191.16665)">
    <path
       inkscape:export-ydpi="112.5"
       inkscape:export-xdpi="112.5"
       sodipodi:nodetypes="csssscssssssssscssssssssssssssssssccccccscsssssscssscsssssscsssccccccssccssssssccccssssssssssssscccsssssszcsssssssscssssssccssssccsssssssscccccssscscc"
       style="fill:#4d4d4d;fill-opacity:1;stroke-width:0.26458332"
       d="m 14.709548,269.42295 c -0.237816,-0.1871 -0.926056,-0.15452 -0.301808,-1.80442 0.408355,-1.07928 0.09534,-1.15203 0.125886,-2.09705 0.0078,-0.24122 0.03623,-0.9684 0.03234,-1.29373 -0.01113,-0.93274 -0.112382,-2.16326 -0.01062,-2.77437 0.08687,-0.52167 0.162164,-1.41422 0.167312,-1.98346 0.0051,-0.56922 0.05097,-1.22068 0.101819,-1.44769 0.05086,-0.22699 0.07849,-1.19897 0.0614,-2.15993 -0.02402,-1.35137 -0.06825,-1.83171 -0.195234,-2.12021 -0.26953,-0.61235 -0.389232,-1.36499 -0.33193,-2.08702 0.04051,-0.51037 0.0095,-0.80179 -0.124233,-1.16767 -0.09801,-0.26816 -0.207034,-0.6399 -0.242264,-0.82611 -0.03523,-0.1862 -0.08716,-0.45088 -0.1154,-0.58816 -0.02824,-0.13727 -0.07608,-0.39761 -0.106319,-0.5785 -0.03023,-0.1809 -0.140756,-0.51786 -0.2456,-0.74881 -0.104846,-0.23095 -0.191614,-0.50751 -0.192821,-0.61458 -0.0016,-0.14384 -0.03144,-0.16545 -0.114143,-0.0827 -0.08271,0.0827 -0.05287,0.30308 0.114232,0.84365 0.21027,0.68021 0.225801,0.90733 0.220714,3.22772 -0.003,1.37281 -0.04797,2.67956 -0.09993,2.9039 -0.05195,0.22434 -0.07919,0.74102 -0.06051,1.14817 0.01867,0.40715 0.02819,1.07725 0.02116,1.48909 -0.007,0.41184 -0.01645,0.97345 -0.02094,1.248 -0.0086,0.52466 0.135799,2.01955 0.404945,4.19331 0.227161,1.83466 0.177939,3.43979 -0.124765,4.06851 -0.211844,0.44001 -0.352811,0.4611 -1.167609,0.17472 -0.737032,-0.25904 -0.841557,-0.25332 -1.482589,0.0811 -0.96534,0.50367 -1.9847198,0.71759 -3.4195585,0.71759 -1.0100879,0 -1.1509094,-0.0217 -1.314706,-0.20271 -0.1434479,-0.1585 -0.1631486,-0.26008 -0.090353,-0.46588 0.10644,-0.30092 0.4552603,-0.51932 1.2412581,-0.77717 0.6821688,-0.22378 1.1106549,-0.65938 1.0810491,-1.09899 -0.011419,-0.16955 0.010148,-0.35829 0.047931,-0.41943 0.066281,-0.10725 0.3333002,-1.42246 0.3508899,-1.72834 0.021181,-0.36833 0.1069356,-0.90041 0.1585858,-0.98397 0.1388397,-0.59974 -0.025845,0.24732 0.1124965,-0.87858 0.1250256,-0.81825 0.1899232,-0.62482 0.1571575,-1.45042 0.041448,-0.58853 0.065281,-1.36716 0.047558,-1.45451 -0.031331,-0.15096 -0.080048,-0.65636 -0.1082562,-1.12311 -0.3590839,-1.30939 -0.1614235,-1.21573 -0.3400605,-2.05378 -0.1044677,-0.49035 -0.222398,-1.16109 -0.2620684,-1.49057 -0.03967,-0.32947 -0.097104,-0.64159 -0.1276314,-0.69359 -0.030528,-0.052 -0.044659,-0.29911 -0.031407,-0.54913 0.013253,-0.25001 -0.021143,-0.65675 -0.076439,-0.90386 -0.055295,-0.24709 -0.130798,-0.74131 -0.1677852,-1.09824 -0.036988,-0.35693 -0.085229,-0.67983 -0.1072038,-0.71757 -0.021973,-0.0377 -0.062357,-0.39715 -0.089738,-0.79872 -0.1249834,-1.83304 -0.2467899,-2.85957 -0.3857662,-3.2511 -0.082838,-0.23338 -0.1189126,-0.42576 -0.080163,-0.4275 0.038748,-0.002 -0.016762,-0.0691 -0.1233525,-0.14976 -0.1065918,-0.0806 -0.1402881,-0.14659 -0.07488,-0.14659 0.078791,0 0.1189231,-0.20216 0.1189231,-0.59904 v -0.59905 H 7.1098311 c -0.4789907,0 -0.6689328,-0.13121 -0.6689328,-0.46211 0,-0.12238 -0.070603,-0.29311 -0.1568925,-0.3794 -0.086291,-0.0863 -0.1087555,-0.15689 -0.04992,-0.15689 0.060221,0 0.106972,-0.19636 0.106972,-0.44928 0,-0.27575 -0.04499,-0.44929 -0.1164809,-0.44929 -0.064065,0 -0.08811,-0.0284 -0.053433,-0.063 0.034674,-0.0347 0.0098,-0.15823 -0.055273,-0.27457 -0.2480412,-0.44341 -0.3845116,-0.94506 -0.5328507,-1.95872 -0.1710998,-1.16919 -0.1677633,-1.13291 -0.1423008,-1.54753 0.010117,-0.16474 -0.006,-0.65573 -0.035807,-1.09109 l -0.054202,-0.79157 0.3779687,-0.16923 0.3779687,-0.16922 -0.035528,-1.03602 c -0.021339,-0.57669 0.6096012,-2.56696 -0.379023,-2.34195 -1.4102299,-0.0565 -2.6038174,-0.33486 -3.051591,-0.71164 -0.4810261,-0.40475 -0.8921153,-1.31673 -0.8921153,-1.9791 0,-0.34649 -0.03783,-0.53448 -0.09984,-0.49617 0.1055057,-0.44886 0.5300839,-1.39748 0.6230318,-1.64797 0.043063,-0.13695 0.2396716,-0.72074 0.4369086,-1.29732 0.1972374,-0.57658 0.3927702,-1.29651 0.4345166,-1.59984 0.041747,-0.30333 0.1663527,-0.73015 0.2769014,-0.94849 0.1105493,-0.21833 0.323918,-1.02597 0.474153,-1.79474 0.5465381,-2.79671 0.6239386,-2.91368 2.5468405,-3.84921 0.6056296,-0.29464 2.0278376,-1.11051 2.5958581,-1.48914 0.1372808,-0.0915 0.3319621,-0.19706 0.4326256,-0.23456 0.2276115,-0.17104 -0.097914,-0.976 -0.1673961,-1.15499 -0.059108,-0.15654 -0.2081059,-0.11803 -0.2914856,-0.44929 -0.48696,-1.15417 -0.2930844,-1.62488 -0.7050841,-2.46286 -0.030052,-0.16779 -0.057256,-0.0181 -0.3169869,0.0378 -1.2267079,0.26467 -2.0879215,0.15688 -2.0286972,-0.25391 0.035566,-0.24668 0.1767571,-0.29545 1.4068219,-0.48602 0.6345108,-0.0983 0.7670855,-0.1494 0.7275497,-0.28044 -0.026592,-0.0882 -0.118599,-0.63198 -0.2044617,-1.20856 -0.085865,-0.57659 -0.2071867,-1.24462 -0.2696065,-1.48452 -0.1020785,-0.39235 -0.094285,-0.44755 0.077533,-0.54913 0.4758078,-0.28129 2.8904344,-1.0376 3.5625894,-1.11586 0.287219,-0.0334 0.759539,-0.13133 1.049599,-0.21754 0.632925,-0.1881 0.568879,-0.24832 1.303537,1.22562 0.648286,1.30066 0.662505,1.31192 1.396332,1.10602 0.777286,-0.21809 1.572605,-0.21754 1.656524,0.001 0.138505,0.36093 -0.549305,0.99349 -1.407268,1.29422 -0.284414,0.0997 -0.497705,0.21268 -0.473979,0.25106 0.02372,0.0384 0.0488,0.31529 0.05571,0.61533 -10e-4,0.93488 -0.300973,1.67448 -0.439208,2.63302 0.08013,0.0327 -0.06073,0.0478 -0.07772,0.0918 -0.07429,0.19265 0.0046,0.59807 0.0046,0.64157 0,0.14169 0.685169,0.7658 1.148167,1.04585 0.21965,0.13286 0.916038,0.58331 1.547531,0.75695 0.631492,0.17364 1.238025,0.35062 1.34785,0.39329 0.109824,0.0427 0.727273,0.0675 1.37211,0.29926 0.644837,0.23175 0.757493,-0.0222 1.126168,0.49621 0.368673,0.51846 2.306383,5.11606 2.796162,7.94099 0.427447,1.20808 0.86,2.28926 0.961229,2.40262 0.223731,0.25054 0.247366,0.99662 0.04678,1.47669 -0.317106,0.75893 -1.503298,1.73757 -2.666101,2.19961 -0.361239,0.14353 -0.704628,0.26097 -0.763084,0.26097 -0.05846,0 -0.129984,0.0617 -0.158947,0.13724 -0.02897,0.0755 -0.26103,0.16847 -0.515701,0.20667 -0.530277,0.0796 -0.635613,0.23324 -0.403041,0.5882 0.131404,0.20054 0.145916,0.34544 0.07414,0.74033 -0.04908,0.27003 -0.0566,0.57919 -0.01671,0.68701 0.03989,0.10782 0.07782,0.73303 0.08431,1.38935 0.0065,0.65632 0.02776,2.36146 0.04728,3.78917 0.03657,2.67433 -0.04427,3.45947 -0.385383,3.74256 -0.07628,0.0633 -0.166608,0.24222 -0.200731,0.39757 -0.03733,0.16999 -0.14445,0.30402 -0.268986,0.3366 -0.144936,0.0379 -0.18757,0.10463 -0.142282,0.22262 0.149379,0.38928 0.759142,2.97259 0.712626,3.01911 -0.02791,0.0279 -0.008,0.10232 0.04437,0.16533 0.101746,0.1226 0.215112,0.55054 1.918526,7.24207 2.553692,10.0317 2.455561,9.61734 2.338997,9.87631 -0.08244,0.18315 -0.0787,0.25169 0.01546,0.28308 0.165844,0.0553 0.05351,0.22404 -0.149128,0.22404 -0.08828,0 -0.130948,-0.0296 -0.09482,-0.0657 0.03613,-0.0362 0.02619,-0.11476 -0.0221,-0.17472 -0.04829,-0.06 -0.74746,-2.55762 -1.553717,-5.55034 -0.806258,-2.99273 -1.684505,-6.25004 -1.951662,-7.23846 -0.267157,-0.98842 -0.536066,-1.99098 -0.597578,-2.22791 -0.141817,-0.54625 -0.342644,-0.49833 -0.373329,0.0891 -0.107853,2.06462 -0.372214,5.0463 -0.451959,5.09757 -0.05689,0.0366 -0.107188,0.75463 -0.118898,1.69729 -0.03338,2.68702 -0.04781,2.94794 -0.153864,2.78207 -0.06472,-0.10117 -0.07749,0.0121 -0.03939,0.34944 0.0784,0.69422 -0.273369,4.13644 -0.377362,4.65271 -0.127717,0.54635 -0.12308,1.17477 -0.15319,1.28323 -0.267488,0.99016 -0.212303,0.24182 -0.332088,1.15275 -0.0062,0 -0.09617,0.12799 -0.04693,0.26867 0.117092,0.29474 -0.09482,0.31453 -0.103989,0.60494 0.16609,0.53588 0.171061,0.68879 0.0277,0.85215 -0.08264,0.0941 -0.177965,0.26253 -0.211827,0.37415 -0.03386,0.11161 -0.310282,0.44857 -0.614265,0.74881 l -0.552699,0.54587 -0.820273,0.0322 c -0.571486,0.0224 -0.871193,-0.007 -0.98816,-0.0998 z"
       id="path814"
       inkscape:connector-curvature="0" />
  </g>
</svg>
