<?xml version="1.0" encoding="UTF-8" standalone="no"?>
<!-- Created with Inkscape (http://www.inkscape.org/) -->

<svg
   xmlns:dc="http://purl.org/dc/elements/1.1/"
   xmlns:cc="http://creativecommons.org/ns#"
   xmlns:rdf="http://www.w3.org/1999/02/22-rdf-syntax-ns#"
   xmlns:svg="http://www.w3.org/2000/svg"
   xmlns="http://www.w3.org/2000/svg"
   xmlns:sodipodi="http://sodipodi.sourceforge.net/DTD/sodipodi-0.dtd"
   xmlns:inkscape="http://www.inkscape.org/namespaces/inkscape"
   width="100"
   height="400"
   viewBox="0 0 100 400"
   id="svg2"
   version="1.1"
   inkscape:version="0.92.0 r15299"
   sodipodi:docname="thief.svg">
  <defs
     id="defs4" />
  <sodipodi:namedview
     id="base"
     pagecolor="#ffffff"
     bordercolor="#666666"
     borderopacity="1.0"
     inkscape:pageopacity="0.0"
     inkscape:pageshadow="2"
     inkscape:zoom="0.9899495"
     inkscape:cx="-93.730423"
     inkscape:cy="177.91354"
     inkscape:document-units="px"
     inkscape:current-layer="layer1"
     showgrid="false"
     units="px"
     inkscape:window-width="1920"
     inkscape:window-height="1017"
     inkscape:window-x="-8"
     inkscape:window-y="-8"
     inkscape:window-maximized="1"
     showguides="false"
     inkscape:guide-bbox="true"
     inkscape:snap-global="false">
    <sodipodi:guide
       position="-1008.5714,760"
       orientation="0,1"
       id="guide4139"
       inkscape:label=""
       inkscape:color="rgb(0,0,255)"
       inkscape:locked="false" />
    <sodipodi:guide
       position="-760.00001,260"
       orientation="0,1"
       id="guide4141"
       inkscape:label=""
       inkscape:color="rgb(0,0,255)"
       inkscape:locked="false" />
    <sodipodi:guide
       position="75.000001,517.14286"
       orientation="1,0"
       id="guide4143"
       inkscape:label=""
       inkscape:color="rgb(0,0,255)"
       inkscape:locked="false" />
  </sodipodi:namedview>
  <metadata
     id="metadata7">
    <rdf:RDF>
      <cc:Work
         rdf:about="">
        <dc:format>image/svg+xml</dc:format>
        <dc:type
           rdf:resource="http://purl.org/dc/dcmitype/StillImage" />
        <dc:title></dc:title>
      </cc:Work>
    </rdf:RDF>
  </metadata>
  <g
     inkscape:label="Layer 1"
     inkscape:groupmode="layer"
     id="layer1"
     transform="translate(0,-652.36216)">
    <path
       inkscape:connector-curvature="0"
       style="fill:#4d4d4d;fill-opacity:1;stroke-width:3.77952719"
       d="m 44.666485,716.67562 c 1.705557,0.039 3.781713,0.80235 5.776382,2.21096 0.699829,0.49418 1.893294,1.2297 2.650966,1.63474 1.569948,0.8393 3.618492,3.00515 4.462637,4.71787 0.527204,1.06817 0.568997,1.48422 0.521424,5.11247 -0.02846,2.17214 -0.121844,4.26472 -0.206689,4.65054 -0.140628,0.64041 -0.07496,0.71637 0.746905,0.87061 1.129705,0.21192 1.871928,1.1314 2.090394,2.58833 0.134326,0.89566 -0.02277,1.7114 -0.784481,4.08841 -1.080617,3.37224 -1.706247,4.46782 -2.868622,5.01851 -0.773914,0.3667 -0.820021,0.47314 -0.992741,2.28456 -0.09969,1.0455 -0.122878,3.22089 -0.05171,4.83375 0.149021,3.37705 0.411173,3.93977 2.265768,4.86349 2.573271,1.28167 3.536622,1.61439 4.675595,1.61439 1.549135,0 3.961295,1.20743 5.69496,2.84982 0.705497,0.66832 2.611361,2.10764 4.23403,3.19901 3.465703,2.33092 4.389024,3.04484 6.609407,5.1109 3.592918,3.34318 6.399575,9.01116 8.259797,16.67619 1.200616,4.947 1.995984,7.59123 2.893675,9.62521 0.341191,0.77307 0.988628,2.52087 1.437449,3.88328 0.448821,1.36242 0.986977,2.80551 1.196295,3.20684 0.209343,0.40134 0.381197,0.87695 0.382071,1.05694 8.02e-4,0.1799 0.232969,0.98371 0.515155,1.78662 0.282202,0.80291 0.512036,1.81189 0.512036,2.24229 0,0.96029 0.778939,2.47966 1.448399,2.82634 0.31954,2.959 0.49727,0.5467 0.31943,2.95944 -0.0201,0.63019 0.0878,1.8388 0.23957,2.6854 0.5761,3.21402 0.83663,6.16449 0.61225,6.92728 -0.13366,0.45451 -0.12814,1.12696 0.0125,1.64413 0.29568,1.08729 0.10196,2.12318 -0.5684,3.0393 -0.2871,0.39236 -0.6209,1.4402 -0.75474,2.37068 -0.27287,1.8972 -1.327427,5.21514 -2.732383,8.59489 -0.527901,1.2699 -1.153427,2.82868 -1.390469,3.46363 -0.499152,1.33703 -1.252447,2.72109 -1.803855,3.31801 -0.211651,0.22912 -0.552634,0.76009 -0.757864,1.17909 -0.205214,0.41903 -0.600577,1.02133 -0.878433,1.33879 -1.21043,1.38256 -0.566793,1.07579 -1.296517,1.83046 0.121747,0.27116 -0.895348,0.83034 -1.750612,2.59773 -0.176344,0.21359 -0.637592,0.59113 -1.025619,0.83929 -0.421275,0.26947 -0.706338,0.68139 -0.707765,1.02249 -0.004,0.94142 -1.390694,3.07098 -3.313314,5.08742 -2.019186,2.1176 -2.269039,2.6669 -1.849256,4.06805 0.358765,1.19545 0.369708,5.12373 0.01876,6.68143 -0.143049,0.63496 -0.666317,1.74793 -1.161854,2.47403 -0.851207,1.24718 -0.90897,1.46941 -1.053807,4.02577 -0.120962,2.13405 -0.06093,3.03791 0.286547,4.27631 0.50939,1.81593 0.382584,5.29728 -0.281849,7.69453 l -0.147194,1.57837 c 0.239952,2.58827 0.649778,9.63556 1.345061,26.06339 0.564411,1.76545 1.02719,3.38048 1.02719,3.59047 0,0.21001 0.167533,0.91821 0.372667,1.5721 0.205165,0.65389 0.509486,2.17032 0.676442,3.36969 0.166932,1.19937 0.560724,2.69872 0.875307,3.33367 0.314583,0.63496 0.756341,1.89211 0.981782,2.79189 0.225561,0.89978 0.64629,2.08603 0.933238,2.63687 0.287188,0.55084 0.521424,1.29167 0.521424,1.6457 0,0.83309 0.780224,2.32176 1.780357,3.39944 0.494149,0.53241 0.785651,1.11028 0.773529,1.53922 -0.02582,1.02259 0.251192,4.30636 0.522988,6.20229 0.131504,0.91715 0.168134,2.39541 0.08299,3.28513 -0.0897,0.9349 -0.04209,1.85286 0.112736,2.17965 0.703467,1.48583 0.889447,2.24018 0.629469,2.55389 -0.148172,0.17895 -0.248362,1.41072 -0.230179,2.79031 0.02429,1.72073 -0.06967,2.59511 -0.306901,2.88115 -0.264532,0.31877 -0.276662,0.5914 -0.05636,1.22292 0.362764,1.04078 0.357072,1.1399 -0.08298,1.57994 -0.244834,0.24497 -0.416889,1.23928 -0.521424,3.00797 -0.08575,1.45299 -0.207867,2.72453 -0.27089,2.82634 -0.06293,0.10184 -0.237378,1.80896 -0.386761,3.79403 -0.149358,1.98504 -0.43908,4.2572 -0.645127,5.04827 -0.620588,2.45555 0.981541,4.82161 1.517299,7.36567 -0.108287,0.7601 -0.153303,0.44014 -0.522995,1.23079 -0.197862,0.69797 -0.178653,0.91691 0.08769,0.98177 l 0.08299,1.83359 c 0,0.43397 -0.226643,1.00334 -0.513591,1.29027 -0.592416,0.59255 -0.630096,1.0585 -0.186334,2.30805 0.424241,1.21531 0.488065,2.53388 0.443129,3.88324 0.01796,0.83288 0.140652,1.56088 0.256796,2.29558 0.06021,1.3479 0.187263,2.5544 0.449398,3.7408 0.244586,1.107 0.293194,2.1865 0.440003,3.282 -0.263314,0.7497 -0.120569,2.0466 -0.120569,3.7204 0,2.7571 -0.01002,2.8068 -0.833033,3.8817 -0.45857,0.599 -1.200376,1.2143 -1.648828,1.367 -1.012375,0.3449 -1.314459,0.6349 -0.917581,0.88 0.16787,0.1036 -0.297114,0.2108 -1.033452,0.238 -2.174028,0.081 -3.118899,0.1763 -3.391609,0.343 -0.250013,0.1526 -1.498475,0.064 -8.552615,-0.6029 -3.247734,-0.3072 -3.452755,-0.3597 -4.039863,-1.0429 -0.696068,-0.8099 -0.742784,-1.336 -0.330393,-3.7486 0.333736,-1.9524 0.609196,-2.5867 1.122707,-2.5867 0.445333,0 0.985982,-0.9326 0.7563,-1.3044 -0.09091,-0.147 -0.0056,-0.4618 0.191032,-0.6999 0.196595,-0.238 0.571835,-1.0685 0.833024,-1.8446 0.26135,-0.776 0.597827,-1.6423 0.746905,-1.9244 0.149086,-0.2822 0.237956,-1.2046 0.198864,-2.0512 -0.03936,-0.8467 0.04906,-1.8535 0.19573,-2.2376 0.16908,-0.4434 0.189997,-1.33415 0.05636,-2.43805 -0.172199,-1.42327 -0.124257,-1.99441 0.270898,-3.14582 0.578257,-1.6848 0.435961,-3.15481 -0.458795,-4.71943 -0.332308,-0.58084 -0.605724,-1.31047 -0.607543,-1.62066 0.770427,-2.8532 0.244697,-1.2788 0.770394,-2.85288 0.0056,-1.34559 0.540986,-2.90908 1.229182,-3.59207 0.51384,-0.51002 0.566752,-0.7434 0.414949,-1.79132 -0.461937,-3.13619 -0.920788,-3.42115 -1.04442,-5.60257 -0.171501,-1.39081 -0.495095,-3.27931 -0.718716,-4.19645 -0.223685,-0.91715 -0.464615,-1.92795 -0.535518,-2.24541 -0.895847,-1.27324 -0.624829,-1.54199 -0.916018,-3.54507 -0.125443,-0.0775 -0.228615,-0.40878 -0.228615,-0.73594 0,-0.32715 -0.166876,-0.73411 -0.371104,-0.90349 -0.204227,-0.16947 -0.564043,-0.80954 -0.798575,-1.42335 -0.385454,-1.0095 -0.38737,-1.19187 -0.03287,-1.90249 0.22302,-0.44703 0.289554,-0.84835 0.155019,-0.93168 -0.130294,-0.0804 -0.165201,-0.43413 -0.07672,-0.78605 -0.243864,-1.81971 -0.556603,-3.82586 -1.194732,-6.31189 -0.255745,-0.5536 -0.257156,-0.77647 -0.0064,-1.07887 0.17393,-0.20965 0.229152,-0.5212 0.123703,-0.6921 -0.105448,-0.17084 -0.209069,-0.89716 -0.233313,-1.61438 -0.107774,-3.37096 -1.354465,-7.96683 -3.659364,-13.4897 -0.500539,-1.19934 -1.1797,-3.05607 -1.509467,-4.12599 -0.329767,-1.06993 -0.843992,-2.16743 -1.143062,-2.43801 -1.071501,-0.96905 -2.541147,-4.53236 -2.541355,-6.16158 0,-0.57863 0.122814,-1.40598 0.274016,-1.83986 0.214682,-0.6158 0.192194,-0.92023 -0.100214,-1.38577 -0.206071,-0.32797 -0.516605,-1.05783 -0.690536,-1.62221 -0.173859,-0.56442 -0.417843,-1.13596 -0.54178,-1.2699 -0.123928,-0.13404 -0.225481,-0.51643 -0.225481,-0.84868 0,-0.65559 -0.882722,-2.76511 -1.252671,-2.99389 -0.125628,-0.0775 -0.303736,-0.57479 -0.396157,-1.10547 -0.09226,-0.5307 -0.290315,-1.27819 -0.440002,-1.6598 -0.239888,-0.61092 -0.36776,-0.67333 -1.078861,-0.52455 -0.444115,0.093 -1.327038,0.17557 -1.961992,0.18164 -1.055202,0.0107 -1.192206,-0.0614 -1.579937,-0.83773 -0.459997,-0.92111 -0.57683,-0.86694 -0.847119,0.39302 -0.126021,0.58781 -0.04361,1.05186 0.284984,1.60812 0.350884,0.59356 0.395411,0.88935 0.186333,1.22606 -0.358396,0.5772 0.017,11.60495 0.440003,12.92913 0.165144,0.51736 0.218995,1.2678 0.119005,1.66762 -0.923112,3.6944 -1.107874,7.23471 -0.501068,9.6033 0.226315,0.88347 0.440259,2.01892 0.476015,2.52256 0.06374,0.90175 0.176224,1.31379 0.703059,2.58207 0.600561,1.44565 0.723952,8.56214 0.227053,13.08415 -0.193685,1.76375 -0.363784,3.78377 -0.378937,4.48927 -0.0093,2.92923 0.226115,3.47757 -0.848689,5.82491 -1.044372,0.22175 -1.080809,0.26566 -1.241704,1.43588 -0.09121,0.66343 -0.385102,2.46029 -0.652961,3.99446 -0.568741,3.25721 -0.681998,5.97434 -0.267755,6.38862 0.401609,0.40146 0.361916,1.09014 -0.08299,1.45936 -0.611769,0.50776 -0.794494,2.52486 -0.303768,3.3556 0.56656,0.95883 0.578081,5.39634 0.01876,7.32028 -0.74195,2.55224 -0.46443,8.26474 0.504195,10.3706 0.47612,1.03496 0.683506,2.89836 0.613813,5.51646 -0.0064,0.2822 6.1e-4,0.917 0.01876,1.4108 0.0182,0.4939 0.02646,1.5046 0.02036,2.2454 -0.0032,0.7474 0.684949,1.7458 0.12214,2.2376 -0.475181,0.7252 -2.076628,1.1316 -5.001289,1.2668 -1.824024,0.089 -2.760397,0.4013 -5.063925,0.9661 -2.495001,0.5776 -3.050249,0.014 -3.98036,-0.238 -0.589024,0.062 -2.265271,0.3233 -3.725136,0.5809 -1.968919,0.3554 -3.84415,0.1429 -6.69709,0.4353 -2.065702,0.2117 -4.661501,0.9774 -8.093826,1.0256 -2.499787,-0.3637 -5.2719217,-0.4583 -6.3823537,-1.6332 -0.731007,-0.7733 -0.660617,-2.0969 -0.06422,-3.5278 0.190077,-0.456 0.433693,-0.922 0.721851,-1.3858 0.531718,-0.8558 2.2231567,-1.8503 3.3321057,-2.9234 1.056076,-1.0218 1.500881,-2.1125 3.16143,-3.3524 0.329487,0.044 0.601259,-0.145 0.768824,-0.5324 0.219107,-0.5073 0.400486,-0.5806 1.17125,-0.4791 0.548318,0.072 1.105835,-0.021 1.396727,-0.2333 0.26604,-0.1947 0.66315,-0.354 0.883131,-0.354 0.219957,0 0.73075,-0.41528 1.135237,-0.92222 0.404454,-0.50701 1.068166,-1.03734 1.475017,-1.17908 0.78934,-0.91242 1.460339,-1.28682 2.091958,-1.4907 0.247439,0 2.240722,-2.00323 2.240722,-2.25168 0.160382,-1.53656 -0.0072,-3.07327 0.948896,-4.60983 0.293465,-0.53017 0.612666,-1.33749 0.709328,-1.79447 0.09672,-0.45697 0.278538,-0.89326 0.403982,-0.97079 0.125443,-0.0778 0.162987,-1.03196 0.08299,-2.1202 -0.167477,-2.27692 0.121331,-3.28822 1.039713,-3.6374 l 0.631034,-0.23958 -0.150321,-3.15517 c -0.08272,-1.73535 -0.182605,-4.02132 -0.220783,-5.07957 -0.03808,-1.05826 -0.203137,-3.13611 -0.367968,-4.61767 -0.52112,-4.6879 -0.552234,-5.36588 -0.53709,-12.60657 0.01299,-6.67152 -0.01379,-7.09777 -0.457223,-7.21382 -0.559353,-0.14629 -0.878537,-1.45156 -0.474444,-1.94008 0.365484,-0.44172 0.675088,-6.6016 0.46662,-9.28229 -0.09993,-1.28588 -0.685879,-3.74175 -1.052244,-4.4094 -0.15999,-0.2918 -0.115222,-0.67075 0.137789,-1.15559 0.495417,-0.94981 -0.115061,-2.08811 -0.09082,-3.41353 -0.388701,-3.01279 0.787575,-5.27657 -0.324131,-8.72329 -0.791544,-1.50596 -1.540574,-3.88614 -1.777223,-5.65425 -0.123511,-0.92344 -0.640429,-2.65577 -1.149331,-3.84883 -0.508901,-1.19304 -1.200472,-2.97699 -1.536083,-3.96471 -1.29788,-3.81994 -1.729745,-4.89282 -2.170253,-5.38805 -0.586867,-0.65974 -1.18823,-3.02952 -0.801709,-3.1583 0.397511,-0.13244 0.337832,-0.70335 -0.112745,-1.0773 -0.294219,-0.2441 -0.318327,-0.40534 -0.09865,-0.67017 0.3771,-0.45436 0.06678,-3.6048 -0.432169,-4.38435 -0.226074,-0.35307 -0.363271,-1.25452 -0.363271,-2.38165 0,-1.228 -0.1333,-2.01694 -0.41025,-2.43957 -0.312707,-0.4776 -0.370374,-0.97129 -0.245837,-2.10606 0.08938,-0.81575 0.225497,-2.43822 0.300641,-3.60456 l 0.136227,-2.12014 -1.529819,-1.67076 c -0.852306,-0.93014 -1.618748,-2.03657 -1.730258,-2.49751 -0.295615,-1.22052 -0.241075,-5.67015 0.08299,-6.78635 0.154473,-0.53196 0.455948,-2.22961 0.670181,-3.7721 0.257253,-1.8519 0.553789,-3.02861 0.873735,-3.46364 0.503266,-0.68429 0.796787,-1.8889 0.939505,-3.86449 0.09535,-1.32018 0.806031,-3.87726 1.136792,-4.08997 0.395458,-0.25447 1.571623,-2.80263 1.572104,-3.40571 3.04e-4,-0.32215 0.337407,-1.22445 0.748476,-2.00427 0.411085,-0.77985 0.881087,-2.16508 1.044411,-3.07844 0.163196,-0.91338 0.460847,-1.99543 0.662349,-2.40513 0.466394,-0.9459 0.463508,-1.46673 -0.0094,-2.09196 -0.494687,-0.65207 -0.490566,-1.25424 0.0094,-1.66918 0.221953,-0.18423 0.627041,-0.77188 0.90036,-1.30748 0.475991,-0.93323 0.481635,-1.1171 0.125267,-4.37965 -0.280887,-2.57257 -0.305556,-3.7173 -0.09709,-4.68656 0.386705,-1.79832 0.368971,-2.02603 -0.371104,-4.61766 -0.362669,-1.26991 -1.034606,-4.32959 -1.492238,-6.79888 -0.706162,-3.81011 -0.860844,-5.38332 -1.02719,-10.3909 -0.208774,-6.28176 -0.26915,-6.68193 -1.536092,-10.26095 -0.823852,-2.32737 -0.998617,-3.50595 -1.501642,-10.09027 -0.193653,-2.53639 -0.164543,-3.57229 0.147194,-5.2252 0.537899,-2.85188 1.052525,-3.91405 2.94221,-6.06763 1.471891,-1.67745 1.916864,-1.99959 4.456375,-3.22562 5.773312,-2.78726 7.828439,-3.73923 8.067204,-3.73923 0.134904,0 0.338241,-0.16455 0.450962,-0.36484 0.112841,-0.20041 1.096707,-1.12574 2.187481,-2.05595 l 1.983919,-1.6911 -0.518298,-1.31531 c -0.284943,-0.72294 -1.015213,-1.90439 -1.623774,-2.62591 -2.503275,-2.96809 -3.504041,-5.13163 -5.189187,-11.22707 -0.06438,-0.23274 -0.673091,-1.34918 -1.352885,-2.48028 -0.805582,-1.34037 -1.342976,-2.59691 -1.542353,-3.61083 -0.35458,-1.80224 -0.126133,-2.49307 0.908185,-2.75275 0.601651,-0.15102 0.646057,-0.25164 0.49637,-1.09452 -0.0906,-0.50999 -0.335884,-1.96511 -0.546477,-3.23502 -0.210561,-1.26992 -0.497966,-2.66488 -0.638859,-3.10036 -0.279468,-0.86422 0.08308,-2.8524 1.016224,-5.56187 0.895638,-2.60053 1.204416,-2.93299 4.0383,-4.36086 2.088429,-1.05226 2.684565,-1.47825 3.004848,-2.1499 0.541474,-1.13546 1.571367,-1.60696 3.664061,-1.67544 0.966662,-0.0316 1.930269,-0.19254 2.14207,-0.35859 0.658003,-0.51594 1.547773,-0.75311 2.571107,-0.72967 z m 26.661545,89.86195 c -0.44373,0 -1.042038,0.44758 -0.742206,1.02875 1.313994,2.54706 2.516013,6.56256 3.385339,10.36116 0.858727,3.75221 1.392626,7.29315 1.393596,8.99574 0.0024,4.05559 -0.172504,6.45951 1.432743,11.68274 0,0 2.719865,1.89896 2.719865,-9.24942 0,-5.52812 0.534043,-8.64108 -1.266766,-12.25112 -1.830824,-3.67019 -5.607181,-10.56785 -6.922571,-10.56785 z"
       id="path2850" />
  </g>
</svg>
