<?xml version="1.0" encoding="UTF-8" standalone="no"?>
<svg
   xmlns:dc="http://purl.org/dc/elements/1.1/"
   xmlns:cc="http://creativecommons.org/ns#"
   xmlns:rdf="http://www.w3.org/1999/02/22-rdf-syntax-ns#"
   xmlns:svg="http://www.w3.org/2000/svg"
   xmlns="http://www.w3.org/2000/svg"
   xmlns:xlink="http://www.w3.org/1999/xlink"
   xmlns:sodipodi="http://sodipodi.sourceforge.net/DTD/sodipodi-0.dtd"
   xmlns:inkscape="http://www.inkscape.org/namespaces/inkscape"
   sodipodi:docname="picks.svg"
   inkscape:version="1.0 (4035a4fb49, 2020-05-01)"
   id="svg1157"
   version="1.1"
   viewBox="0 0 79.374998 79.375002"
   height="300"
   width="300">
  <defs
     id="defs1151">
    <pattern
       patternTransform="matrix(1.0210262,-1.6967516,2.9173361,1.7555178,0,0)"
       id="pattern3135"
       xlink:href="#Strips1_1.5"
       inkscape:collect="always" />
    <pattern
       inkscape:isstock="true"
       inkscape:stockid="Stripes 1:1.5"
       id="Strips1_1.5"
       patternTransform="translate(0,0) scale(10,10)"
       height="1"
       width="2.5"
       patternUnits="userSpaceOnUse"
       inkscape:collect="always">
      <rect
         id="rect5576"
         height="2"
         width="1"
         y="-0.5"
         x="0"
         style="fill:black;stroke:none" />
    </pattern>
    <pattern
       patternTransform="matrix(1.0210262,-1.6967516,2.9173361,1.7555178,0,0)"
       id="pattern1172"
       xlink:href="#Strips1_1.5"
       inkscape:collect="always" />
    <pattern
       patternTransform="matrix(5.9005279,4.9829685,-1.9499113,2.3089653,0,0)"
       id="pattern1179"
       xlink:href="#pattern3135"
       inkscape:collect="always" />
    <pattern
       patternTransform="matrix(1.0210262,-1.6967516,2.9173361,1.7555178,0,0)"
       id="pattern1181"
       xlink:href="#Strips1_1.5"
       inkscape:collect="always" />
    <pattern
       patternTransform="matrix(5.9005279,4.9829685,-1.9499113,2.3089653,0,0)"
       id="pattern1187"
       xlink:href="#pattern3135"
       inkscape:collect="always" />
    <pattern
       patternTransform="matrix(1.0210262,-1.6967516,2.9173361,1.7555178,0,0)"
       id="pattern1189"
       xlink:href="#Strips1_1.5"
       inkscape:collect="always" />
    <pattern
       patternTransform="matrix(5.9005279,4.9829685,-1.9499113,2.3089653,0,0)"
       id="pattern1195"
       xlink:href="#pattern3135"
       inkscape:collect="always" />
    <pattern
       patternTransform="matrix(1.0210262,-1.6967516,2.9173361,1.7555178,0,0)"
       id="pattern1197"
       xlink:href="#Strips1_1.5"
       inkscape:collect="always" />
    <pattern
       patternTransform="matrix(0.11526898,0.20129864,-0.76743472,0.43945355,16.765936,18.84329)"
       id="pattern3466"
       xlink:href="#pattern3356"
       inkscape:collect="always" />
    <pattern
       patternTransform="matrix(0.17029949,0.29740055,-1.1338154,0.64925287,-5.2916667,0)"
       id="pattern3356"
       xlink:href="#pattern3020"
       inkscape:collect="always" />
    <pattern
       patternTransform="matrix(0.23112497,-0.253042,0.9647021,0.88114515,-5.2916667,0)"
       id="pattern3020"
       xlink:href="#Strips1_1.5-3"
       inkscape:collect="always" />
    <pattern
       inkscape:collect="always"
       patternUnits="userSpaceOnUse"
       width="2.5"
       height="1"
       patternTransform="translate(0,0) scale(10,10)"
       id="Strips1_1.5-3"
       inkscape:stockid="Stripes 1:1.5"
       inkscape:isstock="true">
      <rect
         style="fill:black;stroke:none"
         x="0"
         y="-0.5"
         width="1"
         height="2"
         id="rect5576-3" />
    </pattern>
    <pattern
       patternTransform="matrix(0.11526898,0.20129864,-0.76743472,0.43945355,16.765936,18.84329)"
       id="pattern3468"
       xlink:href="#pattern3356"
       inkscape:collect="always" />
    <pattern
       patternTransform="matrix(0.17029949,0.29740055,-1.1338154,0.64925287,-5.2916667,0)"
       id="pattern4547"
       xlink:href="#pattern3020"
       inkscape:collect="always" />
    <pattern
       patternTransform="matrix(0.23112497,-0.253042,0.9647021,0.88114515,-5.2916667,0)"
       id="pattern4549"
       xlink:href="#Strips1_1.5-3"
       inkscape:collect="always" />
    <pattern
       patternTransform="matrix(0.15643934,-0.1712741,0.65296862,0.59641225,16.765936,18.84329)"
       id="pattern3470"
       xlink:href="#pattern3020"
       inkscape:collect="always" />
    <pattern
       patternTransform="matrix(0.23112497,-0.253042,0.9647021,0.88114515,-5.2916667,0)"
       id="pattern4556"
       xlink:href="#Strips1_1.5-3"
       inkscape:collect="always" />
    <pattern
       patternTransform="matrix(0.15643934,-0.1712741,0.65296862,0.59641225,16.765936,18.84329)"
       id="pattern3459"
       xlink:href="#pattern3020"
       inkscape:collect="always" />
    <pattern
       patternTransform="matrix(0.23112497,-0.253042,0.9647021,0.88114515,-5.2916667,0)"
       id="pattern4563"
       xlink:href="#Strips1_1.5-3"
       inkscape:collect="always" />
    <pattern
       patternTransform="matrix(0.15643934,-0.1712741,0.65296862,0.59641225,16.765936,18.84329)"
       id="pattern3472"
       xlink:href="#pattern3020"
       inkscape:collect="always" />
    <pattern
       patternTransform="matrix(0.23112497,-0.253042,0.9647021,0.88114515,-5.2916667,0)"
       id="pattern4570"
       xlink:href="#Strips1_1.5-3"
       inkscape:collect="always" />
    <pattern
       patternTransform="matrix(0.08772609,-0.09604494,0.37703681,0.34438004,16.765936,18.84329)"
       id="pattern3474"
       xlink:href="#pattern3384"
       inkscape:collect="always" />
    <pattern
       patternTransform="matrix(0.12960736,-0.14189771,0.55703779,0.50879038,-5.2916667,0)"
       id="pattern3384"
       xlink:href="#pattern3020"
       inkscape:collect="always" />
    <pattern
       patternTransform="matrix(0.23112497,-0.253042,0.9647021,0.88114515,-5.2916667,0)"
       id="pattern4578"
       xlink:href="#Strips1_1.5-3"
       inkscape:collect="always" />
    <pattern
       patternTransform="matrix(0.08772609,-0.09604494,0.37703681,0.34438004,16.765936,18.84329)"
       id="pattern3476"
       xlink:href="#pattern3384"
       inkscape:collect="always" />
    <pattern
       patternTransform="matrix(0.12960736,-0.14189771,0.55703779,0.50879038,-5.2916667,0)"
       id="pattern4585"
       xlink:href="#pattern3020"
       inkscape:collect="always" />
    <pattern
       patternTransform="matrix(0.23112497,-0.253042,0.9647021,0.88114515,-5.2916667,0)"
       id="pattern4587"
       xlink:href="#Strips1_1.5-3"
       inkscape:collect="always" />
    <pattern
       patternTransform="matrix(0.08772609,-0.09604494,0.37703681,0.34438004,16.765936,18.84329)"
       id="pattern3478"
       xlink:href="#pattern3384"
       inkscape:collect="always" />
    <pattern
       patternTransform="matrix(0.12960736,-0.14189771,0.55703779,0.50879038,-5.2916667,0)"
       id="pattern4594"
       xlink:href="#pattern3020"
       inkscape:collect="always" />
    <pattern
       patternTransform="matrix(0.23112497,-0.253042,0.9647021,0.88114515,-5.2916667,0)"
       id="pattern4596"
       xlink:href="#Strips1_1.5-3"
       inkscape:collect="always" />
    <pattern
       patternTransform="matrix(0.08772609,-0.09604494,0.37703681,0.34438004,16.765936,18.84329)"
       id="pattern3480"
       xlink:href="#pattern3384"
       inkscape:collect="always" />
    <pattern
       patternTransform="matrix(0.12960736,-0.14189771,0.55703779,0.50879038,-5.2916667,0)"
       id="pattern4603"
       xlink:href="#pattern3020"
       inkscape:collect="always" />
    <pattern
       patternTransform="matrix(0.23112497,-0.253042,0.9647021,0.88114515,-5.2916667,0)"
       id="pattern4605"
       xlink:href="#Strips1_1.5-3"
       inkscape:collect="always" />
    <pattern
       patternTransform="matrix(0.08772609,-0.09604494,0.37703681,0.34438004,16.765936,18.84329)"
       id="pattern3482"
       xlink:href="#pattern3384"
       inkscape:collect="always" />
    <pattern
       patternTransform="matrix(0.12960736,-0.14189771,0.55703779,0.50879038,-5.2916667,0)"
       id="pattern4612"
       xlink:href="#pattern3020"
       inkscape:collect="always" />
    <pattern
       patternTransform="matrix(0.23112497,-0.253042,0.9647021,0.88114515,-5.2916667,0)"
       id="pattern4614"
       xlink:href="#Strips1_1.5-3"
       inkscape:collect="always" />
    <pattern
       patternTransform="matrix(0.08772609,-0.09604494,0.37703681,0.34438004,16.765936,18.84329)"
       id="pattern3484"
       xlink:href="#pattern3384"
       inkscape:collect="always" />
    <pattern
       patternTransform="matrix(0.12960736,-0.14189771,0.55703779,0.50879038,-5.2916667,0)"
       id="pattern4621"
       xlink:href="#pattern3020"
       inkscape:collect="always" />
    <pattern
       patternTransform="matrix(0.23112497,-0.253042,0.9647021,0.88114515,-5.2916667,0)"
       id="pattern4623"
       xlink:href="#Strips1_1.5-3"
       inkscape:collect="always" />
    <pattern
       patternTransform="matrix(0.08772609,-0.09604494,0.37703681,0.34438004,16.765936,18.84329)"
       id="pattern3486"
       xlink:href="#pattern3384"
       inkscape:collect="always" />
    <pattern
       patternTransform="matrix(0.12960736,-0.14189771,0.55703779,0.50879038,-5.2916667,0)"
       id="pattern4630"
       xlink:href="#pattern3020"
       inkscape:collect="always" />
    <pattern
       patternTransform="matrix(0.23112497,-0.253042,0.9647021,0.88114515,-5.2916667,0)"
       id="pattern4632"
       xlink:href="#Strips1_1.5-3"
       inkscape:collect="always" />
    <pattern
       patternTransform="matrix(0.08772609,-0.09604494,0.37703681,0.34438004,16.765936,18.84329)"
       id="pattern3488"
       xlink:href="#pattern3384"
       inkscape:collect="always" />
    <pattern
       patternTransform="matrix(0.12960736,-0.14189771,0.55703779,0.50879038,-5.2916667,0)"
       id="pattern4639"
       xlink:href="#pattern3020"
       inkscape:collect="always" />
    <pattern
       patternTransform="matrix(0.23112497,-0.253042,0.9647021,0.88114515,-5.2916667,0)"
       id="pattern4641"
       xlink:href="#Strips1_1.5-3"
       inkscape:collect="always" />
    <pattern
       patternTransform="matrix(0.08772609,-0.09604494,0.37703681,0.34438004,16.765936,18.84329)"
       id="pattern3490"
       xlink:href="#pattern3384"
       inkscape:collect="always" />
    <pattern
       patternTransform="matrix(0.12960736,-0.14189771,0.55703779,0.50879038,-5.2916667,0)"
       id="pattern4648"
       xlink:href="#pattern3020"
       inkscape:collect="always" />
    <pattern
       patternTransform="matrix(0.23112497,-0.253042,0.9647021,0.88114515,-5.2916667,0)"
       id="pattern4650"
       xlink:href="#Strips1_1.5-3"
       inkscape:collect="always" />
    <pattern
       patternTransform="matrix(0.08772609,-0.09604494,0.37703681,0.34438004,16.765936,18.84329)"
       id="pattern3492"
       xlink:href="#pattern3384"
       inkscape:collect="always" />
    <pattern
       patternTransform="matrix(0.12960736,-0.14189771,0.55703779,0.50879038,-5.2916667,0)"
       id="pattern4657"
       xlink:href="#pattern3020"
       inkscape:collect="always" />
    <pattern
       patternTransform="matrix(0.23112497,-0.253042,0.9647021,0.88114515,-5.2916667,0)"
       id="pattern4659"
       xlink:href="#Strips1_1.5-3"
       inkscape:collect="always" />
    <pattern
       patternTransform="matrix(0.33312854,0.24271738,-0.3461613,0.47510452,1.159656,7.1100445)"
       id="pattern3494"
       xlink:href="#pattern3022"
       inkscape:collect="always" />
    <pattern
       patternTransform="matrix(0.2367775,0.17251603,-0.24604079,0.33768966,-0.3758256,1.1444378)"
       id="pattern3022"
       xlink:href="#Strips1_1.5-3"
       inkscape:collect="always" />
    <pattern
       patternTransform="matrix(0.37676368,-0.16713909,0.23837194,0.53733673,2.8184575,6.7628934)"
       id="pattern3496"
       xlink:href="#pattern3022"
       inkscape:collect="always" />
    <pattern
       patternTransform="matrix(0.2367775,0.17251603,-0.24604079,0.33768966,-0.3758256,1.1444378)"
       id="pattern4672"
       xlink:href="#Strips1_1.5-3"
       inkscape:collect="always" />
  </defs>
  <sodipodi:namedview
     units="px"
     showgrid="false"
     inkscape:document-rotation="0"
     inkscape:current-layer="layer1"
     inkscape:document-units="mm"
     inkscape:cy="165.41955"
     inkscape:cx="125.72082"
     inkscape:zoom="3.959798"
     inkscape:pageshadow="2"
     inkscape:pageopacity="0.0"
     borderopacity="1.0"
     bordercolor="#666666"
     pagecolor="#ffffff"
     id="base" />
  <metadata
     id="metadata1154">
    <rdf:RDF>
      <cc:Work
         rdf:about="">
        <dc:format>image/svg+xml</dc:format>
        <dc:type
           rdf:resource="http://purl.org/dc/dcmitype/StillImage" />
        <dc:title />
      </cc:Work>
    </rdf:RDF>
  </metadata>
  <g
     id="layer1"
     inkscape:groupmode="layer"
     inkscape:label="Layer 1">
    <path
       d="m 41.450419,28.180595 c -0.835343,0 -1.507888,0.672546 -1.507888,1.507891 v 0.0063 h -0.03498 V 40.94747 h -0.01434 v 4.110235 h 2.968211 V 40.97545 h 0.0053 v -2.251167 c 0.05826,-0.16088 0.09164,-0.333741 0.09164,-0.515217 v -8.520578 c 0,-0.181481 -0.03338,-0.354339 -0.09164,-0.515222 v -0.98878 h -1.342444 c -0.02462,-0.0012 -0.04888,-0.0038 -0.0738,-0.0038 z"
       style="font-variation-settings:normal;opacity:0.8;vector-effect:none;fill:url(#pattern3466);fill-opacity:1;stroke:#000000;stroke-width:0.191025;stroke-linecap:round;stroke-linejoin:miter;stroke-miterlimit:4;stroke-dasharray:none;stroke-dashoffset:0;stroke-opacity:1;paint-order:markers fill stroke;stop-color:#000000"
       id="rect78" />
    <path
       d="m 62.499714,31.921996 h 4.60954 V 45.1584 h -4.60954 z"
       style="font-variation-settings:normal;opacity:0.8;vector-effect:none;fill:url(#pattern3468);fill-opacity:1;stroke:#000000;stroke-width:0.191025;stroke-linecap:round;stroke-linejoin:miter;stroke-miterlimit:4;stroke-dasharray:none;stroke-dashoffset:0;stroke-opacity:1;paint-order:markers fill stroke;stop-color:#000000"
       id="rect930" />
    <path
       d="m 62.330305,45.516764 v 4.541373 h 0.0032 v 6.364384 H 40.143802 v 1.649102 h 27.007452 v -1.649102 h -0.343197 v -6.364384 h 0.301221 v -4.541373 z"
       style="font-variation-settings:normal;opacity:0.8;vector-effect:none;fill:url(#pattern3470);fill-opacity:1;stroke:#000000;stroke-width:0.191025;stroke-linecap:round;stroke-linejoin:miter;stroke-miterlimit:4;stroke-dasharray:none;stroke-dashoffset:0;stroke-opacity:1;paint-order:markers fill stroke;stop-color:#000000"
       id="rect932" />
    <path
       sodipodi:nodetypes="cccccccccccccsssccccccccc"
       d="m 42.866668,29.173264 v 2.197651 h 25.872676 v -2.197651 z m 25.903458,0.0084 V 58.4991 h -4.779358 v 0.05316 H 42.359841 v -0.102485 h -2.46698 v 3.716385 c -0.0017,0.03712 -0.0056,0.07366 -0.0056,0.111228 v 0.571887 c 0,1.315465 1.058822,2.374637 2.374287,2.374637 0.276799,0 0.542485,-0.04697 0.789099,-0.133266 l -0.06261,-4.44112 h 21.002727 v 0.194824 h 4.779356 2.136441 v -2.345283 -29.31741 z"
       style="font-variation-settings:normal;opacity:0.8;vector-effect:none;fill:url(#pattern3459);fill-opacity:1;stroke:#000000;stroke-width:0.191025;stroke-linecap:round;stroke-linejoin:miter;stroke-miterlimit:4;stroke-dasharray:none;stroke-dashoffset:0;stroke-opacity:1;paint-order:markers fill stroke;stop-color:#000000"
       id="rect934" />
    <path
       d="m 39.037342,45.390621 h 3.752704 v 5.006594 h -3.752704 z"
       style="font-variation-settings:normal;opacity:0.8;vector-effect:none;fill:url(#pattern3472);fill-opacity:1;stroke:#000000;stroke-width:0.191025;stroke-linecap:round;stroke-linejoin:miter;stroke-miterlimit:4;stroke-dasharray:none;stroke-dashoffset:0;stroke-opacity:1;paint-order:markers fill stroke;stop-color:#000000"
       id="rect944" />
    <path
       d="m 43.230218,32.162809 h 3.038067 v 2.030708 h -3.038067 z"
       style="font-variation-settings:normal;opacity:0.8;vector-effect:none;fill:none;fill-opacity:1;stroke:#000000;stroke-width:0.191025;stroke-linecap:round;stroke-linejoin:miter;stroke-miterlimit:4;stroke-dasharray:none;stroke-dashoffset:0;stroke-opacity:1;paint-order:markers fill stroke;stop-color:#000000"
       id="rect957" />
    <path
       d="m 46.890754,32.162809 h 3.038066 v 2.030708 h -3.038066 z"
       style="font-variation-settings:normal;opacity:0.8;vector-effect:none;fill:none;fill-opacity:1;stroke:#000000;stroke-width:0.191025;stroke-linecap:round;stroke-linejoin:miter;stroke-miterlimit:4;stroke-dasharray:none;stroke-dashoffset:0;stroke-opacity:1;paint-order:markers fill stroke;stop-color:#000000"
       id="rect959" />
    <path
       d="m 50.952168,32.162809 h 3.038067 v 2.030708 h -3.038067 z"
       style="font-variation-settings:normal;opacity:0.8;vector-effect:none;fill:none;fill-opacity:1;stroke:#000000;stroke-width:0.191025;stroke-linecap:round;stroke-linejoin:miter;stroke-miterlimit:4;stroke-dasharray:none;stroke-dashoffset:0;stroke-opacity:1;paint-order:markers fill stroke;stop-color:#000000"
       id="rect961" />
    <path
       d="m 54.949626,32.162809 h 3.038064 v 2.030708 h -3.038064 z"
       style="font-variation-settings:normal;opacity:0.8;vector-effect:none;fill:none;fill-opacity:1;stroke:#000000;stroke-width:0.191025;stroke-linecap:round;stroke-linejoin:miter;stroke-miterlimit:4;stroke-dasharray:none;stroke-dashoffset:0;stroke-opacity:1;paint-order:markers fill stroke;stop-color:#000000"
       id="rect963" />
    <path
       d="m 59.027027,32.162809 h 3.038063 v 2.030708 h -3.038063 z"
       style="font-variation-settings:normal;opacity:0.8;vector-effect:none;fill:none;fill-opacity:1;stroke:#000000;stroke-width:0.191025;stroke-linecap:round;stroke-linejoin:miter;stroke-miterlimit:4;stroke-dasharray:none;stroke-dashoffset:0;stroke-opacity:1;paint-order:markers fill stroke;stop-color:#000000"
       id="rect965" />
    <path
       d="m 43.827202,39.887223 h 1.387281 c 0.398627,0 0.719543,0.320916 0.719543,0.719544 v 3.929661 c 0,0.398626 -0.320916,0.719541 -0.719543,0.719541 h -1.387281 c -0.398627,0 -0.719541,-0.320915 -0.719541,-0.719541 v -3.929661 c 0,-0.398628 0.320914,-0.719544 0.719541,-0.719544 z"
       style="font-variation-settings:normal;opacity:0.8;vector-effect:none;fill:url(#pattern3474);fill-opacity:1;stroke:#000000;stroke-width:0.191025;stroke-linecap:round;stroke-linejoin:miter;stroke-miterlimit:4;stroke-dasharray:none;stroke-dashoffset:0;stroke-opacity:1;paint-order:markers fill stroke;stop-color:#000000"
       id="rect967" />
    <path
       d="m 43.725021,45.63728 c -0.398623,0 -0.719841,0.320866 -0.719841,0.719491 v 3.92975 c 0,0.120498 0.03236,0.232009 0.08429,0.331588 0.0017,0.0029 0.0029,0.006 0.0045,0.0087 0.06228,0.115507 0.154043,0.210956 0.26688,0.277374 l 0.561393,0.557546 c 0.282891,0.280848 0.735632,0.28187 1.0175,0 l 0.594274,-0.594274 c 0.179784,-0.13056 0.297659,-0.340816 0.297659,-0.580976 V 46.35673 c 0,-0.398626 -0.320863,-0.719493 -0.719491,-0.719493 z"
       style="font-variation-settings:normal;opacity:0.8;vector-effect:none;fill:url(#pattern3476);fill-opacity:1;stroke:#000000;stroke-width:0.191025;stroke-linecap:round;stroke-linejoin:miter;stroke-miterlimit:4;stroke-dasharray:none;stroke-dashoffset:0;stroke-opacity:1;paint-order:markers fill stroke;stop-color:#000000"
       id="rect969" />
    <path
       sodipodi:nodetypes="sssccccscssss"
       id="path978"
       style="font-variation-settings:normal;opacity:0.8;vector-effect:none;fill:url(#pattern3478);fill-opacity:1;stroke:#000000;stroke-width:0.191025;stroke-linecap:round;stroke-linejoin:miter;stroke-miterlimit:4;stroke-dasharray:none;stroke-dashoffset:0;stroke-opacity:1;paint-order:markers fill stroke;stop-color:#000000"
       d="m 47.795365,45.650071 c -0.398626,0 -0.719841,0.320868 -0.719841,0.719494 v 5.004264 c 0,0.120497 0.03236,0.232009 0.08429,0.331588 0.0017,0.0029 0.0029,0.006 0.0045,0.0087 0.06228,0.115508 0.15404,0.210958 0.26688,0.277376 l 0.561377,0.557542 c 0.282891,0.280847 0.735631,0.281869 1.017502,0 l 0.594272,-0.594272 c 0.179784,-0.130562 0.297661,-0.340819 0.297661,-0.580982 v -5.004263 c 0,-0.398626 -0.320866,-0.719494 -0.719491,-0.719494 z" />
    <path
       sodipodi:nodetypes="sssccccscssss"
       d="m 51.684805,45.637282 c -0.398626,0 -0.719841,0.320867 -0.719841,0.719491 v 6.078782 c 0,0.120495 0.03236,0.23201 0.08429,0.331589 0.0017,0.0029 0.0029,0.006 0.0045,0.0087 0.06228,0.115505 0.154043,0.210955 0.266883,0.277373 l 0.56139,0.557544 c 0.28289,0.280848 0.735632,0.281869 1.017502,0 l 0.594272,-0.594271 c 0.179784,-0.130563 0.297661,-0.340817 0.297661,-0.58098 v -6.078771 c 0,-0.398626 -0.320863,-0.719492 -0.719491,-0.719492 z"
       style="font-variation-settings:normal;opacity:0.8;vector-effect:none;fill:url(#pattern3480);fill-opacity:1;stroke:#000000;stroke-width:0.191025;stroke-linecap:round;stroke-linejoin:miter;stroke-miterlimit:4;stroke-dasharray:none;stroke-dashoffset:0;stroke-opacity:1;paint-order:markers fill stroke;stop-color:#000000"
       id="path980" />
    <path
       sodipodi:nodetypes="sssccccscssss"
       id="path982"
       style="font-variation-settings:normal;opacity:0.8;vector-effect:none;fill:url(#pattern3482);fill-opacity:1;stroke:#000000;stroke-width:0.191025;stroke-linecap:round;stroke-linejoin:miter;stroke-miterlimit:4;stroke-dasharray:none;stroke-dashoffset:0;stroke-opacity:1;paint-order:markers fill stroke;stop-color:#000000"
       d="m 55.687307,45.63728 c -0.398623,0 -0.719841,0.320866 -0.719841,0.719491 v 3.213404 c 0,0.120499 0.03236,0.232013 0.08429,0.331588 0.0017,0.0029 0.0029,0.006 0.0045,0.0087 0.06228,0.115509 0.154043,0.210958 0.266881,0.277376 l 0.561393,0.557544 c 0.282891,0.280847 0.735632,0.28187 1.017502,0 l 0.594271,-0.594272 c 0.179784,-0.130563 0.297659,-0.340816 0.297659,-0.58098 v -3.213407 c 0,-0.398626 -0.320864,-0.719493 -0.719492,-0.719493 z" />
    <path
       d="m 59.938556,45.63728 c -0.398627,0 -0.719841,0.320866 -0.719841,0.719491 v 3.92975 c 0,0.120498 0.03236,0.232009 0.08429,0.331588 0.0017,0.0029 0.0029,0.006 0.0045,0.0087 0.06228,0.115507 0.154043,0.210956 0.26688,0.277374 l 0.561394,0.557546 c 0.28289,0.280848 0.735632,0.28187 1.017502,0 l 0.594272,-0.594274 c 0.179784,-0.13056 0.297658,-0.340816 0.297658,-0.580976 V 46.35673 c 0,-0.398626 -0.320863,-0.719493 -0.719491,-0.719493 z"
       style="font-variation-settings:normal;opacity:0.8;vector-effect:none;fill:url(#pattern3484);fill-opacity:1;stroke:#000000;stroke-width:0.191025;stroke-linecap:round;stroke-linejoin:miter;stroke-miterlimit:4;stroke-dasharray:none;stroke-dashoffset:0;stroke-opacity:1;paint-order:markers fill stroke;stop-color:#000000"
       id="path984" />
    <path
       d="m 47.897543,39.887223 h 1.387284 c 0.398625,0 0.71954,0.320916 0.71954,0.719544 v 3.929661 c 0,0.398626 -0.320915,0.719541 -0.71954,0.719541 h -1.387284 c -0.398626,0 -0.719541,-0.320915 -0.719541,-0.719541 v -3.929661 c 0,-0.398628 0.320915,-0.719544 0.719541,-0.719544 z"
       style="font-variation-settings:normal;opacity:0.8;vector-effect:none;fill:url(#pattern3486);fill-opacity:1;stroke:#000000;stroke-width:0.191025;stroke-linecap:round;stroke-linejoin:miter;stroke-miterlimit:4;stroke-dasharray:none;stroke-dashoffset:0;stroke-opacity:1;paint-order:markers fill stroke;stop-color:#000000"
       id="rect986" />
    <path
       d="m 51.786986,39.887223 h 1.387281 c 0.398628,0 0.719543,0.320916 0.719543,0.719544 v 3.929661 c 0,0.398626 -0.320915,0.719541 -0.719543,0.719541 h -1.387281 c -0.398626,0 -0.719541,-0.320915 -0.719541,-0.719541 v -3.929661 c 0,-0.398628 0.320915,-0.719544 0.719541,-0.719544 z"
       style="font-variation-settings:normal;opacity:0.8;vector-effect:none;fill:url(#pattern3488);fill-opacity:1;stroke:#000000;stroke-width:0.191025;stroke-linecap:round;stroke-linejoin:miter;stroke-miterlimit:4;stroke-dasharray:none;stroke-dashoffset:0;stroke-opacity:1;paint-order:markers fill stroke;stop-color:#000000"
       id="rect988" />
    <path
       d="m 55.857328,39.887223 h 1.387281 c 0.398628,0 0.719543,0.320916 0.719543,0.719544 v 3.929661 c 0,0.398626 -0.320915,0.719541 -0.719543,0.719541 h -1.387281 c -0.398626,0 -0.71954,-0.320915 -0.71954,-0.719541 v -3.929661 c 0,-0.398628 0.320914,-0.719544 0.71954,-0.719544 z"
       style="font-variation-settings:normal;opacity:0.8;vector-effect:none;fill:url(#pattern3490);fill-opacity:1;stroke:#000000;stroke-width:0.191025;stroke-linecap:round;stroke-linejoin:miter;stroke-miterlimit:4;stroke-dasharray:none;stroke-dashoffset:0;stroke-opacity:1;paint-order:markers fill stroke;stop-color:#000000"
       id="rect990" />
    <path
       d="m 59.995512,39.887223 h 1.387281 c 0.398626,0 0.719541,0.320916 0.719541,0.719544 v 3.929661 c 0,0.398626 -0.320915,0.719541 -0.719541,0.719541 h -1.387281 c -0.398626,0 -0.719541,-0.320915 -0.719541,-0.719541 v -3.929661 c 0,-0.398628 0.320915,-0.719544 0.719541,-0.719544 z"
       style="font-variation-settings:normal;opacity:0.8;vector-effect:none;fill:url(#pattern3492);fill-opacity:1;stroke:#000000;stroke-width:0.191025;stroke-linecap:round;stroke-linejoin:miter;stroke-miterlimit:4;stroke-dasharray:none;stroke-dashoffset:0;stroke-opacity:1;paint-order:markers fill stroke;stop-color:#000000"
       id="rect992" />
    <path
       sodipodi:nodetypes="ccsccsccsc"
       id="path994"
       d="m 46.759148,34.742322 1.729897,0.554018 c 0,0 1.707284,-0.124372 0.734923,0.271355 -0.97236,0.395728 -2.453512,0.723618 -2.453512,0.723618 l 1.956024,0.576631 c 0,0 1.503866,0.05346 0.260149,0.381347 -1.243717,0.327889 -2.351853,0.704078 -2.351853,0.704078 l 1.910802,0.644472 c 0,0 1.346045,0.112789 0.296573,0.342409 l -2.207375,0.482965"
       style="fill:none;stroke:#000000;stroke-width:0.179086px;stroke-linecap:butt;stroke-linejoin:round;stroke-opacity:1" />
    <path
       style="fill:none;stroke:#000000;stroke-width:0.179086px;stroke-linecap:butt;stroke-linejoin:round;stroke-opacity:1"
       d="m 50.756603,34.742322 1.729896,0.554018 c 0,0 1.707283,-0.124372 0.734923,0.271355 -0.972358,0.395728 -2.453512,0.723618 -2.453512,0.723618 l 1.956027,0.576631 c 0,0 1.503863,0.05346 0.260147,0.381347 -1.243715,0.327889 -2.351854,0.704078 -2.351854,0.704078 l 1.910802,0.644472 c 0,0 1.346047,0.112789 0.296573,0.342409 l -2.207375,0.482965"
       id="path996"
       sodipodi:nodetypes="ccsccsccsc" />
    <path
       sodipodi:nodetypes="ccsccsccsc"
       id="path998"
       d="m 54.722078,34.742322 1.729897,0.554018 c 0,0 1.707281,-0.124372 0.734923,0.271355 -0.972361,0.395728 -2.453511,0.723618 -2.453511,0.723618 l 1.956024,0.576631 c 0,0 1.503866,0.05346 0.260149,0.381347 -1.243717,0.327889 -2.351853,0.704078 -2.351853,0.704078 l 1.910802,0.644472 c 0,0 1.346044,0.112789 0.296573,0.342409 l -2.207375,0.482965"
       style="fill:none;stroke:#000000;stroke-width:0.179086px;stroke-linecap:butt;stroke-linejoin:round;stroke-opacity:1" />
    <path
       style="fill:none;stroke:#000000;stroke-width:0.179086px;stroke-linecap:butt;stroke-linejoin:round;stroke-opacity:1"
       d="m 58.831464,34.742322 1.729895,0.554018 c 0,0 1.707282,-0.124372 0.734924,0.271355 -0.972362,0.395728 -2.453514,0.723618 -2.453514,0.723618 l 1.956027,0.576631 c 0,0 1.503865,0.05346 0.260148,0.381347 -1.243717,0.327889 -2.351853,0.704078 -2.351853,0.704078 l 1.910801,0.644472 c 0,0 1.346046,0.112789 0.296574,0.342409 l -2.207375,0.482965"
       id="path1000"
       sodipodi:nodetypes="ccsccsccsc" />
    <path
       sodipodi:nodetypes="ccsscsscssssssssscssssscccc"
       id="path1032"
       d="m 7.4293788,37.972506 5.7031562,0.175649 0.659207,-0.471638 c 0.36256,-0.259395 0.930953,-0.655276 1.263095,-0.879734 l 0.603888,-0.408105 0.807097,0.408984 c 1.040529,0.527274 1.716876,0.533968 2.731475,0.02702 l 0.818967,-0.409199 0.516345,0.386896 c 0.283989,0.212793 0.857481,0.561947 1.27444,0.775903 0.752378,0.386066 0.764229,0.386973 1.570951,0.120565 0.447068,-0.147636 0.973358,-0.372693 1.169532,-0.500135 0.327481,-0.212734 0.430364,-0.192498 1.256765,0.247171 0.857791,0.456372 0.92559,0.468109 1.442963,0.249811 0.298583,-0.125987 0.774371,-0.405623 1.057297,-0.621425 0.500313,-0.381606 0.528348,-0.385164 1.022431,-0.129669 0.655921,0.339196 1.492031,0.334183 2.163325,-0.01295 l 0.533059,-0.275652 0.403861,0.468542 c 0.565364,0.65592 1.475502,1.296682 1.841796,1.296682 0.169733,0 0.722976,-0.24952 1.229422,-0.554486 0.506452,-0.304974 0.974722,-0.499378 1.040609,-0.43201 0.06588,0.06736 0.587786,0.758712 1.15979,1.536329 l 1.039999,1.413861 -15.600052,0.09508 c -8.580023,0.05231 -16.0948957,0.140705 -16.6997157,0.196477 z"
       style="font-variation-settings:normal;opacity:0.8;vector-effect:none;fill:#000000;fill-opacity:1;stroke:#000000;stroke-width:0.191025;stroke-linecap:round;stroke-linejoin:miter;stroke-miterlimit:4;stroke-dasharray:none;stroke-dashoffset:0;stroke-opacity:1;paint-order:markers fill stroke;stop-color:#000000" />
    <path
       sodipodi:nodetypes="ccsscccssssccscsccc"
       id="path1028"
       d="m 8.5677035,45.664353 c 4.8699845,0.09806 11.4187065,0.124894 11.7690695,0.05963 0.666722,-0.124183 2.301285,-0.942198 3.033337,-1.518028 0.23531,-0.185094 0.489918,-0.336536 0.565794,-0.336536 0.07589,0 0.708727,0.351895 1.406313,0.781991 2.381756,1.468449 3.168201,1.469809 5.61874,0.0097 l 1.391022,-0.828816 1.205726,0.718955 c 2.627665,1.566844 3.499617,2.469531 3.403468,3.523465 -0.03622,0.396918 -0.172795,0.577382 -0.532016,0.702912 -0.56683,0.198076 -1.415688,-0.133245 -3.057318,-1.193345 l -1.041798,-0.672744 -1.200967,0.725005 c -0.660533,0.398745 -1.613464,0.845155 -2.117631,0.992013 -0.825783,0.240538 -1.003344,0.238027 -1.790864,-0.02532 -0.768907,-0.257106 -2.134412,-0.97011 -2.934055,-1.532039 -0.205887,-0.144682 -0.542063,-0.02369 -1.43269,0.5157 -2.029524,1.229101 -6.908632,1.25351 -14.2886906,1.366728 z"
       style="font-variation-settings:normal;opacity:0.8;vector-effect:none;fill:#000000;fill-opacity:1;stroke:#000000;stroke-width:0.191025;stroke-linecap:round;stroke-linejoin:miter;stroke-miterlimit:4;stroke-dasharray:none;stroke-dashoffset:0;stroke-opacity:1;paint-order:markers fill stroke;stop-color:#000000" />
    <path
       sodipodi:nodetypes="ccscsscscssscsssscssscscc"
       id="path1026"
       d="m 5.7260959,54.900856 c 4.5308771,-0.104467 9.4971711,-0.142785 9.8052311,-0.08515 0.308059,0.0576 1.21468,0.498203 2.014715,0.979037 l 1.454614,0.874248 1.44645,-0.86934 c 2.324596,-1.397123 3.192561,-1.369477 5.710299,0.181858 1.124989,0.693188 1.170081,0.704782 1.611773,0.414578 3.115164,-2.046717 4.118045,-2.103242 6.763942,-0.381241 l 1.116041,0.726346 0.853905,-0.492154 c 2.524801,-1.455181 3.808824,-2.700752 3.808824,-3.694756 0,-1.313129 -1.47706,-1.110655 -3.909831,0.535951 l -0.775832,0.525115 -1.283656,-0.777888 c -0.706016,-0.427836 -1.669999,-0.878938 -2.142176,-1.002444 -0.750286,-0.196255 -0.975668,-0.182956 -1.787812,0.105495 -0.511111,0.181527 -1.413589,0.637976 -2.005503,1.014315 l -1.076216,0.684259 -0.538611,-0.362235 c -0.914688,-0.615165 -3.08869,-1.587908 -3.54882,-1.587908 -0.67223,0 -1.749027,0.432703 -3.06238,1.230594 l -1.194659,0.725777 -1.022613,-0.654199 C 15.903572,51.673141 21.508685,51.757456 6.3529009,51.428737 Z"
       style="font-variation-settings:normal;opacity:0.8;vector-effect:none;fill:#000000;fill-opacity:1;stroke:#000000;stroke-width:0.191025;stroke-linecap:round;stroke-linejoin:miter;stroke-miterlimit:4;stroke-dasharray:none;stroke-dashoffset:0;stroke-opacity:1;paint-order:markers fill stroke;stop-color:#000000" />
    <path
       id="path3072"
       d="m 16.650935,27.300966 c 0,-1.601829 0.215255,-2.067763 1.097344,-2.375262 0.881421,-0.307266 0.954984,-1.276078 0.112941,-1.487419 -0.717643,-0.180128 -0.800695,-0.582654 -0.723384,-3.506222 l 0.06404,-2.424396 1.157102,-0.06661 1.157098,-0.06661 v 2.363459 c 0,1.673656 0.08739,2.465017 0.299392,2.711416 0.45368,0.527272 0.80261,1.737311 0.80261,2.783345 0,0.901318 -0.03148,0.944415 -0.826501,1.131213 -0.718202,0.168754 -0.835473,0.286147 -0.894999,0.895932 -0.05999,0.614077 0.0089,0.718108 0.551,0.832809 0.340723,0.07208 0.791715,0.224263 1.002208,0.338161 0.968761,0.524209 2.706289,-0.169756 4.291868,-1.714158 2.301247,-2.24148 3.201219,-5.463687 2.346862,-8.402559 -0.738146,-2.539135 -2.33133,-4.252408 -5.067998,-5.450024 -3.189527,-1.395787 -7.616842,-0.38862 -9.988444,2.272264 -3.65351,4.099143 -2.031653,11.321228 2.964255,13.199768 0.364515,0.137064 0.885901,0.261036 1.158645,0.2755 0.46266,0.02453 0.495906,-0.06334 0.495906,-1.310591 z"
       style="font-variation-settings:normal;opacity:0.8;vector-effect:none;fill:url(#pattern3494);fill-opacity:1;stroke:#000000;stroke-width:0.397067;stroke-linecap:round;stroke-linejoin:miter;stroke-miterlimit:4;stroke-dasharray:none;stroke-dashoffset:0;stroke-opacity:1;paint-order:markers fill stroke;stop-color:#000000" />
    <path
       d="m 17.132315,20.14591 1.54236,-2.671445 18.701172,10.797128 -1.542358,2.671444 z"
       style="font-variation-settings:normal;opacity:0.8;vector-effect:none;fill:url(#pattern3496);fill-opacity:1;stroke:#000000;stroke-width:0.397067;stroke-linecap:round;stroke-linejoin:miter;stroke-miterlimit:4;stroke-dasharray:none;stroke-dashoffset:0;stroke-opacity:1;paint-order:markers fill stroke;stop-color:#000000"
       id="rect1085" />
    <path
       style="fill:none;stroke:#000000;stroke-width:0.179086px;stroke-linecap:butt;stroke-linejoin:round;stroke-opacity:1"
       d="m 43.276744,34.742322 1.729896,0.554018 c 0,0 1.707282,-0.124372 0.734923,0.271355 -0.972359,0.395728 -2.453512,0.723618 -2.453512,0.723618 l 1.956026,0.576631 c 0,0 1.503864,0.05346 0.260147,0.381347 -1.243716,0.327889 -2.351853,0.704078 -2.351853,0.704078 l 1.910802,0.644472 c 0,0 1.346045,0.112789 0.296573,0.342409 l -2.207375,0.482965"
       id="path3412"
       sodipodi:nodetypes="ccsccsccsc" />
    <path
       sodipodi:nodetypes="scssccsssssssssscscssssssssccccssssssccsssssss"
       id="path3504"
       d="m 19.347635,11.876393 c -2.763956,-0.189752 -5.749498,0.89947 -7.577026,2.949915 -3.7499954,4.207397 -2.0972488,11.586141 3.042317,13.518699 0.385977,0.145133 0.899381,0.270736 1.21867,0.287668 0.122049,0.0064 0.230625,0.0124 0.34869,-0.02963 1.901562,0.216334 4.636742,0.2611 5.943416,-0.245826 0.785711,-0.313811 1.634462,-0.888332 2.44257,-1.675453 2.350839,-2.289783 3.274633,-5.588319 2.398985,-8.600432 -0.75284,-2.589678 -2.403591,-4.361399 -5.178042,-5.575547 -0.820869,-0.359226 -1.718262,-0.566135 -2.63958,-0.629386 z m -0.0279,0.40448 c 0.879971,0.05732 1.733185,0.248874 2.507079,0.587542 2.698886,1.18108 4.233171,2.835901 4.956624,5.324492 0.833065,2.865633 -0.04273,6.011492 -2.294378,8.204667 -0.777471,0.757282 -1.590175,1.301807 -2.311813,1.590025 -0.721636,0.28822 -1.338498,0.31167 -1.746934,0.09066 -0.249784,-0.135159 -0.693411,-0.280957 -1.054787,-0.357408 -0.260811,-0.05518 -0.349656,-0.104012 -0.376585,-0.144706 -0.02693,-0.0407 -0.04835,-0.175581 -0.01918,-0.474218 0.02866,-0.293571 0.06897,-0.415828 0.144706,-0.491652 0.07574,-0.07582 0.246539,-0.147553 0.598003,-0.230135 0.200125,-0.04702 0.357524,-0.08585 0.491653,-0.137732 0.134128,-0.05189 0.25257,-0.124643 0.334742,-0.23711 0.164343,-0.224934 0.153423,-0.497208 0.153423,-0.950179 0,-1.090183 -0.332002,-2.310347 -0.850803,-2.913302 -0.04626,-0.05376 -0.134485,-0.287194 -0.181319,-0.711328 -0.04683,-0.424132 -0.06974,-1.035604 -0.06974,-1.868976 V 16.98644 l -1.366864,0.07845 -1.338968,0.07845 -0.06974,2.606456 c -0.03872,1.463902 -0.04174,2.295988 0.068,2.827871 0.05487,0.265944 0.143161,0.465781 0.285925,0.610208 0.142766,0.144427 0.32408,0.215942 0.519548,0.265004 0.350224,0.0879 0.457444,0.285025 0.441093,0.50037 -0.01635,0.215346 -0.189019,0.475615 -0.570108,0.608464 -0.465736,0.162357 -0.80586,0.398742 -0.993766,0.805472 -0.172254,0.372855 -0.209976,0.908959 -0.21793,1.610947 l -0.01918,0.0069 v 0.139476 c 0,0.62186 -0.02253,0.96004 -0.06102,1.06176 -0.01924,0.05086 -0.01134,0.03533 -0.02963,0.04185 -0.01829,0.0065 -0.08599,0.01451 -0.195266,0.0087 -0.226195,-0.012 -0.757062,-0.134267 -1.100115,-0.263261 -4.852255,-1.824449 -6.442435,-8.891378 -2.88541,-12.882266 1.729876,-1.940882 4.612835,-2.982393 7.252745,-2.810438 z"
       style="color:#000000;font-style:normal;font-variant:normal;font-weight:normal;font-stretch:normal;font-size:medium;line-height:normal;font-family:sans-serif;font-variant-ligatures:normal;font-variant-position:normal;font-variant-caps:normal;font-variant-numeric:normal;font-variant-alternates:normal;font-variant-east-asian:normal;font-feature-settings:normal;font-variation-settings:normal;text-indent:0;text-align:start;text-decoration:none;text-decoration-line:none;text-decoration-style:solid;text-decoration-color:#000000;letter-spacing:normal;word-spacing:normal;text-transform:none;writing-mode:lr-tb;direction:ltr;text-orientation:mixed;dominant-baseline:auto;baseline-shift:baseline;text-anchor:start;white-space:normal;shape-padding:0;shape-margin:0;inline-size:0;clip-rule:nonzero;display:inline;overflow:visible;visibility:visible;opacity:0.8;isolation:auto;mix-blend-mode:normal;color-interpolation:sRGB;color-interpolation-filters:linearRGB;solid-color:#000000;solid-opacity:1;vector-effect:none;fill:#000000;fill-opacity:1;fill-rule:nonzero;stroke:none;stroke-width:0.397067;stroke-linecap:round;stroke-linejoin:miter;stroke-miterlimit:4;stroke-dasharray:none;stroke-dashoffset:0;stroke-opacity:1;paint-order:markers fill stroke;color-rendering:auto;image-rendering:auto;shape-rendering:auto;text-rendering:auto;enable-background:accumulate;stop-color:#000000" />
    <path
       id="path3536"
       d="m 12.310487,32.749703 h 6.441578 l 5.367982,4.592605"
       style="fill:none;stroke:#000000;stroke-width:0.236179px;stroke-linecap:butt;stroke-linejoin:miter;stroke-opacity:1" />
    <path
       id="path3538"
       d="m 9.1633008,42.806113 h 5.7854902 l 4.532963,4.175098"
       style="fill:none;stroke:#000000;stroke-width:0.236179px;stroke-linecap:butt;stroke-linejoin:miter;stroke-opacity:1" />
    <path
       sodipodi:nodetypes="ccc"
       id="path3540"
       d="m 13.919853,60.171297 h 8.426793 l 4.950472,-2.982213"
       style="fill:none;stroke:#000000;stroke-width:0.236179px;stroke-linecap:butt;stroke-linejoin:miter;stroke-opacity:1" />
    <path
       id="path3542"
       d="m 45.920018,22.848758 h 6.202999 l 8.171261,7.276597"
       style="fill:none;stroke:#000000;stroke-width:0.236179px;stroke-linecap:butt;stroke-linejoin:miter;stroke-opacity:1" />
    <path
       id="path3544"
       d="m 40.283635,25.055594 h 5.069761 l 7.216952,7.634464"
       style="fill:none;stroke:#000000;stroke-width:0.236179px;stroke-linecap:butt;stroke-linejoin:miter;stroke-opacity:1" />
    <path
       id="path3546"
       d="M 70.64255,22.133028 H 65.930655 L 56.451972,35.29634"
       style="fill:none;stroke:#000000;stroke-width:0.236179px;stroke-linecap:butt;stroke-linejoin:miter;stroke-opacity:1" />
    <path
       sodipodi:nodetypes="ccc"
       id="path3548"
       d="m 54.53861,66.925851 h 5.189045 l 7.080367,-10.50333"
       style="fill:none;stroke:#000000;stroke-width:0.236179px;stroke-linecap:butt;stroke-linejoin:miter;stroke-opacity:1" />
    <path
       id="path3550"
       d="m 56.149005,70.086995 h 7.395883 l 6.262644,-9.960588"
       style="fill:none;stroke:#000000;stroke-width:0.236179px;stroke-linecap:butt;stroke-linejoin:miter;stroke-opacity:1" />
    <path
       id="path3552"
       d="M 42.251895,18.912238 H 33.543836 L 28.533721,23.86271"
       style="fill:none;stroke:#000000;stroke-width:0.236179px;stroke-linecap:butt;stroke-linejoin:miter;stroke-opacity:1" />
    <path
       style="fill:none;stroke:#000000;stroke-width:0.236179px;stroke-linecap:butt;stroke-linejoin:miter;stroke-opacity:1"
       d="m 9.1856321,9.309515 h 8.7080589 l 5.010114,4.950472"
       id="path3554" />
    <path
       style="fill:none;stroke:#000000;stroke-width:0.236179px;stroke-linecap:butt;stroke-linejoin:miter;stroke-opacity:1"
       d="m 40.283635,25.055594 h 5.069761 l 7.216952,7.634464"
       id="path3556" />
    <path
       sodipodi:nodetypes="ccc"
       style="fill:none;stroke:#000000;stroke-width:0.236179px;stroke-linecap:butt;stroke-linejoin:miter;stroke-opacity:1"
       d="m 33.00704,66.925851 h 8.708056 L 52.43376,51.829913"
       id="path3558" />
    <path
       id="path3560"
       d="m 36.585694,69.60984 h 8.708057 L 60.72431,42.763988"
       style="fill:none;stroke:#000000;stroke-width:0.236179px;stroke-linecap:butt;stroke-linejoin:miter;stroke-opacity:1"
       sodipodi:nodetypes="ccc" />
    <g
       style="font-size:5.45449px;line-height:1.25;font-family:'Archivo Narrow';-inkscape-font-specification:'Archivo Narrow';letter-spacing:0px;word-spacing:0px;stroke-width:0.22727"
       id="text3564"
       aria-label="4"
       transform="matrix(0.89264555,0,0,0.89264555,4.1988713,4.4783321)">
      <path
         id="path3623"
         style="stroke-width:0.22727"
         d="m 30.125752,67.603967 c -0.21818,0.850901 -0.578176,1.767255 -0.970899,2.481793 v 0.403633 h 1.44544 v 0.921808 h 0.447268 v -0.921808 h 0.381814 v -0.398178 h -0.381814 v -1.93089 h -0.21818 c -0.07091,0.289088 -0.119998,0.48545 -0.229088,0.75272 v 1.17817 h -1.025444 c 0.20727,-0.299997 0.796355,-1.483621 1.003626,-2.487248 z" />
    </g>
    <g
       style="font-size:5.45449px;line-height:1.25;font-family:'Archivo Narrow';-inkscape-font-specification:'Archivo Narrow';letter-spacing:0px;word-spacing:0px;stroke-width:0.22727"
       id="text3568"
       aria-label="34"
       transform="matrix(0.89264555,0,0,0.89264555,4.1988713,4.4783321)">
      <path
         id="path3626"
         style="stroke-width:0.22727"
         d="m 43.951843,13.732917 c -0.567267,0 -0.970899,0.403633 -0.970899,1.025445 v 0.09818 h 0.458177 v -0.04909 c 0,-0.463632 0.218179,-0.676357 0.518176,-0.676357 0.272725,0 0.512723,0.190907 0.512723,0.654539 0,0.441814 -0.250907,0.654539 -0.539995,0.654539 H 43.60821 v 0.398178 h 0.310906 c 0.31636,0 0.616357,0.136362 0.616357,0.665447 0,0.490905 -0.245452,0.70363 -0.599994,0.70363 -0.36545,0 -0.561812,-0.245452 -0.561812,-0.709084 v -0.06 H 42.91549 v 0.04364 c 0,0.681811 0.370905,1.123624 1.052716,1.123624 0.599994,0 1.025445,-0.403632 1.025445,-1.06908 0,-0.496358 -0.234543,-0.796355 -0.550904,-0.916354 v -0.02182 c 0.278179,-0.15818 0.48545,-0.398178 0.48545,-0.839991 0,-0.665448 -0.392724,-1.025445 -0.976354,-1.025445 z" />
      <path
         id="path3628"
         style="stroke-width:0.22727"
         d="m 46.286791,13.732917 c -0.21818,0.850901 -0.578176,1.767255 -0.970899,2.481793 v 0.403633 h 1.44544 v 0.921809 H 47.2086 v -0.921809 h 0.381814 V 16.220165 H 47.2086 v -1.93089 h -0.21818 c -0.07091,0.289088 -0.119999,0.48545 -0.229088,0.75272 v 1.17817 h -1.025445 c 0.207271,-0.299997 0.796356,-1.483621 1.003627,-2.487248 z" />
    </g>
    <g
       style="font-size:5.45449px;line-height:1.25;font-family:'Archivo Narrow';-inkscape-font-specification:'Archivo Narrow';letter-spacing:0px;word-spacing:0px;stroke-width:0.22727"
       id="text3572"
       aria-label="1"
       transform="matrix(0.89264555,0,0,0.89264555,4.1988713,4.4783321)">
      <path
         id="path3631"
         style="stroke-width:0.22727"
         d="m 35.129888,70.930621 h -0.174544 c -0.349087,0.207271 -0.86181,0.365451 -1.167261,0.398178 v 0.283633 h 0.894536 v 2.661792 h -0.889082 v 0.398177 h 2.154524 v -0.398177 h -0.818173 z" />
    </g>
    <g
       style="font-size:5.45449px;line-height:1.25;font-family:'Archivo Narrow';-inkscape-font-specification:'Archivo Narrow';letter-spacing:0px;word-spacing:0px;stroke-width:0.22727"
       id="text3576"
       aria-label="7"
       transform="matrix(0.89264555,0,0,0.89264555,4.1988713,4.4783321)">
      <path
         id="path3634"
         style="stroke-width:0.22727"
         d="m 57.777575,71.665614 h -2.127251 v 0.458177 h 1.565438 c -0.485449,0.779992 -1.096352,1.996344 -1.096352,3.283603 h 0.507267 c -0.0055,-0.130907 -0.0055,-0.174543 -0.0055,-0.278179 0,-1.210896 0.64363,-2.399975 1.156352,-3.174513 z" />
    </g>
    <g
       style="font-size:5.45449px;line-height:1.25;font-family:'Archivo Narrow';-inkscape-font-specification:'Archivo Narrow';letter-spacing:0px;word-spacing:0px;stroke-width:0.22727"
       id="text3580"
       aria-label="82"
       transform="matrix(0.89264555,0,0,0.89264555,4.1988713,4.4783321)">
      <path
         id="path3637"
         style="stroke-width:0.22727"
         d="m 52.304003,67.424074 c -0.627267,0 -0.949082,0.469086 -0.949082,1.041807 0,0.354542 0.136363,0.665448 0.403633,0.845446 -0.338179,0.16909 -0.479995,0.490905 -0.479995,0.894537 0,0.599994 0.299997,1.090898 1.025444,1.090898 0.725447,0 1.025444,-0.490904 1.025444,-1.090898 0,-0.403632 -0.141817,-0.725447 -0.48545,-0.894537 0.272725,-0.179998 0.409087,-0.490904 0.409087,-0.845446 0,-0.572721 -0.321815,-1.041807 -0.949081,-1.041807 z m 0,2.094524 c 0.370905,0 0.567267,0.261816 0.567267,0.687266 0,0.42545 -0.196362,0.69272 -0.567267,0.69272 -0.370906,0 -0.567267,-0.26727 -0.567267,-0.69272 0,-0.42545 0.196361,-0.687266 0.567267,-0.687266 z m 0,-1.696346 c 0.305451,0 0.507267,0.245452 0.507267,0.649084 0,0.403632 -0.201816,0.649084 -0.507267,0.649084 -0.305452,0 -0.501813,-0.245452 -0.501813,-0.649084 0,-0.403632 0.196361,-0.649084 0.501813,-0.649084 z" />
      <path
         id="path3639"
         style="stroke-width:0.22727"
         d="m 54.797131,67.424074 c -0.539995,0 -1.009081,0.332724 -1.009081,1.134534 0,0.130908 0.01636,0.218179 0.01636,0.218179 h 0.463631 v -0.223634 c 0,-0.387269 0.136363,-0.714538 0.523631,-0.714538 0.398178,0 0.507268,0.299997 0.507268,0.550904 0,0.763628 -0.834537,1.303623 -1.281805,1.958162 -0.169089,0.245452 -0.261816,0.518176 -0.261816,0.812719 v 0.07091 h 2.034525 v -0.458177 h -1.483621 c 0.02182,-0.06 0.05454,-0.125453 0.09818,-0.190907 0.419995,-0.64363 1.369077,-1.249079 1.369077,-2.187251 0,-0.687266 -0.436359,-0.970899 -0.976354,-0.970899 z" />
    </g>
    <g
       style="font-size:5.45449px;line-height:1.25;font-family:'Archivo Narrow';-inkscape-font-specification:'Archivo Narrow';letter-spacing:0px;word-spacing:0px;stroke-width:0.22727"
       id="text3584"
       aria-label="45"
       transform="matrix(0.89264555,0,0,0.89264555,4.1988713,4.4783321)">
      <path
         id="path3642"
         style="stroke-width:0.22727"
         d="m 4.7668444,29.137712 c -0.2181796,0.850901 -0.578176,1.767255 -0.9708993,2.481793 v 0.403632 H 5.241385 v 0.921809 H 5.6886532 V 32.023137 H 6.0704675 V 31.62496 H 5.6886532 V 29.69407 H 5.4704736 c -0.070908,0.289088 -0.1199988,0.48545 -0.2290886,0.75272 v 1.17817 H 4.2159409 c 0.2072706,-0.299997 0.7963555,-1.483622 1.0036262,-2.487248 z" />
      <path
         id="path3644"
         style="stroke-width:0.22727"
         d="m 8.3181437,29.203166 h -1.701801 l -0.1254532,2.072706 0.4254502,0.07091 c 0.1090898,-0.256361 0.3163604,-0.430905 0.556358,-0.430905 0.3163604,0 0.5399945,0.289088 0.5399945,0.807264 0,0.605449 -0.245452,0.894537 -0.5781759,0.894537 -0.3272695,0 -0.5836305,-0.321815 -0.5836305,-0.834537 H 6.3872541 c 0,0.763629 0.4145413,1.22726 1.0472622,1.22726 0.6436298,0 1.0418076,-0.463631 1.0418076,-1.28726 0,-0.823628 -0.3927233,-1.210896 -0.8836274,-1.210896 -0.3218149,0 -0.5399946,0.169089 -0.6599933,0.289088 l 0.070908,-1.139989 h 1.3145322 z" />
    </g>
    <g
       style="font-size:5.45449px;line-height:1.25;font-family:'Archivo Narrow';-inkscape-font-specification:'Archivo Narrow';letter-spacing:0px;word-spacing:0px;stroke-width:0.22727"
       id="text3588"
       aria-label="44"
       transform="matrix(0.89264555,0,0,0.89264555,4.1988713,4.4783321)">
      <path
         id="path3647"
         style="stroke-width:0.22727"
         d="m 1.642064,41.288896 c -0.2181797,0.850901 -0.578176,1.767255 -0.9708993,2.481793 v 0.403633 H 2.1166046 V 45.09613 H 2.5638728 V 44.174322 H 2.9456871 V 43.776144 H 2.5638728 v -1.93089 H 2.3456932 c -0.070908,0.289088 -0.1199988,0.48545 -0.2290886,0.75272 v 1.17817 H 1.0911604 C 1.2984311,43.476147 1.887516,42.292522 2.0947866,41.288896 Z" />
      <path
         id="path3649"
         style="stroke-width:0.22727"
         d="m 4.1242832,41.288896 c -0.2181796,0.850901 -0.578176,1.767255 -0.9708993,2.481793 v 0.403633 H 4.5988238 V 45.09613 H 5.046092 V 44.174322 H 5.4279063 V 43.776144 H 5.046092 v -1.93089 H 4.8279124 c -0.070908,0.289088 -0.1199988,0.48545 -0.2290886,0.75272 v 1.17817 H 3.5733797 c 0.2072706,-0.299997 0.7963555,-1.483622 1.0036262,-2.487248 z" />
    </g>
    <g
       style="font-size:5.45449px;line-height:1.25;font-family:'Archivo Narrow';-inkscape-font-specification:'Archivo Narrow';letter-spacing:0px;word-spacing:0px;stroke-width:0.22727"
       id="text3592"
       aria-label="43"
       transform="matrix(0.89264555,0,0,0.89264555,4.1988713,4.4783321)">
      <path
         id="path3652"
         style="stroke-width:0.22727"
         d="m 5.4600674,60.709726 c -0.2181796,0.8509 -0.578176,1.767255 -0.9708993,2.481793 v 0.403632 H 5.934608 V 64.51696 H 6.3818762 V 63.595151 H 6.7636905 V 63.196974 H 6.3818762 v -1.93089 H 6.1636966 c -0.070908,0.289088 -0.1199988,0.48545 -0.2290886,0.75272 v 1.17817 H 4.9091639 c 0.2072706,-0.299997 0.7963555,-1.483622 1.0036262,-2.487248 z" />
      <path
         id="path3654"
         style="stroke-width:0.22727"
         d="m 8.0895578,60.709726 c -0.567267,0 -0.9708992,0.403632 -0.9708992,1.025444 v 0.09818 h 0.4581771 v -0.04909 c 0,-0.463632 0.2181797,-0.676357 0.5181766,-0.676357 0.2727245,0 0.5127221,0.190907 0.5127221,0.654539 0,0.441813 -0.2509066,0.654538 -0.5399945,0.654538 h -0.321815 v 0.398178 h 0.310906 c 0.3163604,0 0.6163574,0.136362 0.6163574,0.665448 0,0.490904 -0.2454521,0.703629 -0.5999939,0.703629 -0.3654509,0 -0.5618125,-0.245452 -0.5618125,-0.709083 v -0.06 H 7.0532047 v 0.04364 c 0,0.681811 0.3709053,1.123625 1.0527166,1.123625 0.5999939,0 1.0254442,-0.403632 1.0254442,-1.06908 0,-0.496359 -0.2345431,-0.796356 -0.5509036,-0.916354 v -0.02182 c 0.278179,-0.158181 0.4854497,-0.398178 0.4854497,-0.839992 0,-0.665448 -0.3927233,-1.025444 -0.9763538,-1.025444 z" />
    </g>
    <g
       style="font-size:5.45449px;line-height:1.25;font-family:'Archivo Narrow';-inkscape-font-specification:'Archivo Narrow';letter-spacing:0px;word-spacing:0px;stroke-width:0.22727"
       id="text3596"
       aria-label="13"
       transform="matrix(0.89264555,0,0,0.89264555,4.1988713,4.4783321)">
      <path
         id="path3657"
         style="stroke-width:0.22727"
         d="M 1.7546087,3.5452914 H 1.580065 C 1.2309776,3.7525621 0.71825555,3.9107423 0.4128041,3.9434692 V 4.2271027 H 1.3073405 V 6.8888939 H 0.41825859 V 7.2870717 H 2.5727822 V 6.8888939 H 1.7546087 Z" />
      <path
         id="path3659"
         style="stroke-width:0.22727"
         d="m 3.8550136,3.4798376 c -0.567267,0 -0.9708993,0.4036322 -0.9708993,1.0254441 v 0.098181 h 0.4581772 v -0.04909 c 0,-0.4636316 0.2181796,-0.6763568 0.5181766,-0.6763568 0.2727245,0 0.5127221,0.1909072 0.5127221,0.6545389 0,0.4418137 -0.2509066,0.6545388 -0.5399946,0.6545388 H 3.5113807 v 0.3981778 h 0.310906 c 0.3163604,0 0.6163573,0.1363622 0.6163573,0.6654478 0,0.4909041 -0.245452,0.7036292 -0.5999939,0.7036292 -0.3654508,0 -0.5618125,-0.2454521 -0.5618125,-0.7090837 v -0.06 H 2.8186605 v 0.043636 c 0,0.6818113 0.3709053,1.123625 1.0527166,1.123625 0.5999939,0 1.0254441,-0.4036323 1.0254441,-1.0690801 0,-0.4963586 -0.2345431,-0.7963556 -0.5509035,-0.9163543 V 5.3452732 C 4.6240967,5.187093 4.8313673,4.9470954 4.8313673,4.5052817 c 0,-0.6654478 -0.3927233,-1.0254441 -0.9763537,-1.0254441 z" />
    </g>
    <g
       style="font-size:5.45449px;line-height:1.25;font-family:'Archivo Narrow';-inkscape-font-specification:'Archivo Narrow';letter-spacing:0px;word-spacing:0px;stroke-width:0.22727"
       id="text3600"
       aria-label="56"
       transform="matrix(0.89264555,0,0,0.89264555,4.1988713,4.4783321)">
      <path
         id="path3662"
         style="stroke-width:0.22727"
         d="m 43.7992,18.241727 h -1.701801 l -0.125453,2.072706 0.42545,0.07091 c 0.10909,-0.256362 0.316361,-0.430905 0.556358,-0.430905 0.316361,0 0.539995,0.289088 0.539995,0.807264 0,0.605449 -0.245452,0.894537 -0.578176,0.894537 -0.327269,0 -0.583631,-0.321815 -0.583631,-0.834537 h -0.463631 c 0,0.763628 0.414541,1.22726 1.047262,1.22726 0.64363,0 1.041808,-0.463632 1.041808,-1.28726 0,-0.823628 -0.392724,-1.210896 -0.883628,-1.210896 -0.321815,0 -0.539994,0.169089 -0.659993,0.289088 l 0.07091,-1.139989 h 1.31453 z" />
      <path
         id="path3664"
         style="stroke-width:0.22727"
         d="m 45.397792,18.176273 c -0.659993,0 -1.047262,0.48545 -1.047262,2.045434 0,1.38544 0.403632,1.827254 1.074535,1.827254 0.561812,0 0.976353,-0.463632 0.976353,-1.210897 0,-0.670902 -0.299997,-1.205442 -0.932717,-1.205442 -0.272725,0 -0.501814,0.136362 -0.659994,0.354542 0.0055,-0.867264 0.114545,-1.412713 0.567267,-1.412713 0.316361,0 0.474541,0.299997 0.474541,0.818173 h 0.452723 c 0,-0.69272 -0.26727,-1.216351 -0.905446,-1.216351 z m 0,1.849072 c 0.37636,0 0.545449,0.365451 0.545449,0.812719 0,0.447268 -0.169089,0.812719 -0.545449,0.812719 -0.37636,0 -0.550903,-0.365451 -0.550903,-0.812719 0,-0.447268 0.174543,-0.812719 0.550903,-0.812719 z" />
    </g>
    <g
       style="font-size:5.45449px;line-height:1.25;font-family:'Archivo Narrow';-inkscape-font-specification:'Archivo Narrow';letter-spacing:0px;word-spacing:0px;stroke-width:0.22727"
       id="text3604"
       aria-label="31"
       transform="matrix(0.89264555,0,0,0.89264555,4.1988713,4.4783321)">
      <path
         id="path3667"
         style="stroke-width:0.22727"
         d="m 36.019283,20.993898 c -0.567267,0 -0.970899,0.403632 -0.970899,1.025444 v 0.09818 h 0.458177 v -0.04909 c 0,-0.463632 0.21818,-0.676357 0.518176,-0.676357 0.272725,0 0.512723,0.190907 0.512723,0.654539 0,0.441813 -0.250907,0.654538 -0.539995,0.654538 H 35.67565 v 0.398178 h 0.310906 c 0.31636,0 0.616357,0.136363 0.616357,0.665448 0,0.490904 -0.245452,0.703629 -0.599993,0.703629 -0.365451,0 -0.561813,-0.245452 -0.561813,-0.709083 v -0.06 H 34.98293 v 0.04364 c 0,0.681811 0.370905,1.123625 1.052716,1.123625 0.599994,0 1.025445,-0.403632 1.025445,-1.06908 0,-0.496359 -0.234543,-0.796356 -0.550904,-0.916354 v -0.02182 c 0.278179,-0.158181 0.48545,-0.398178 0.48545,-0.839992 0,-0.665448 -0.392724,-1.025444 -0.976354,-1.025444 z" />
      <path
         id="path3669"
         style="stroke-width:0.22727"
         d="m 38.883317,21.059352 h -0.174544 c -0.349088,0.207271 -0.86181,0.365451 -1.167261,0.398178 v 0.283633 h 0.894536 v 2.661791 h -0.889082 v 0.398178 h 2.154524 v -0.398178 h -0.818173 z" />
    </g>
    <g
       style="font-size:5.45449px;line-height:1.25;font-family:'Archivo Narrow';-inkscape-font-specification:'Archivo Narrow';letter-spacing:0px;word-spacing:0px;stroke-width:0.22727"
       id="text3608"
       aria-label="71"
       transform="matrix(0.89264555,0,0,0.89264555,4.1988713,4.4783321)">
      <path
         id="path3672"
         style="stroke-width:0.22727"
         d="m 76.49835,18.003356 h -2.127251 v 0.458177 h 1.565439 c -0.48545,0.779992 -1.096353,1.996344 -1.096353,3.283603 h 0.507268 c -0.0055,-0.130908 -0.0055,-0.174543 -0.0055,-0.278179 0,-1.210897 0.643629,-2.399975 1.156351,-3.174513 z" />
      <path
         id="path3674"
         style="stroke-width:0.22727"
         d="m 78.282395,18.003356 h -0.174544 c -0.349087,0.207271 -0.861809,0.365451 -1.167261,0.398178 v 0.283633 h 0.894537 v 2.661791 h -0.889082 v 0.398178 h 2.154523 v -0.398178 h -0.818173 z" />
    </g>
  </g>
</svg>
