<?xml version="1.0" encoding="UTF-8" standalone="no"?>
<!-- Created with Inkscape (http://www.inkscape.org/) -->

<svg
   xmlns:dc="http://purl.org/dc/elements/1.1/"
   xmlns:cc="http://creativecommons.org/ns#"
   xmlns:rdf="http://www.w3.org/1999/02/22-rdf-syntax-ns#"
   xmlns:svg="http://www.w3.org/2000/svg"
   xmlns="http://www.w3.org/2000/svg"
   xmlns:xlink="http://www.w3.org/1999/xlink"
   xmlns:sodipodi="http://sodipodi.sourceforge.net/DTD/sodipodi-0.dtd"
   xmlns:inkscape="http://www.inkscape.org/namespaces/inkscape"
   width="300"
   height="300"
   viewBox="0 0 300 300"
   version="1.1"
   id="svg8"
   inkscape:version="0.92.4 (5da689c313, 2019-01-14)"
   sodipodi:docname="guard chit.svg"
   inkscape:export-filename="D:\code\timber-wolf\img\tabletop simulator\guard back.png"
   inkscape:export-xdpi="300.16"
   inkscape:export-ydpi="300.16">
  <defs
     id="defs2">
    <linearGradient
       inkscape:collect="always"
       id="linearGradient832">
      <stop
         style="stop-color:#5cd0f8;stop-opacity:1;"
         offset="0"
         id="stop828" />
      <stop
         style="stop-color:#5cd0f8;stop-opacity:0;"
         offset="1"
         id="stop830" />
    </linearGradient>
    <linearGradient
       inkscape:collect="always"
       xlink:href="#linearGradient832"
       id="linearGradient836"
       x1="14.869048"
       y1="11.816963"
       x2="79.436012"
       y2="39.787201"
       gradientUnits="userSpaceOnUse" />
  </defs>
  <sodipodi:namedview
     id="base"
     pagecolor="#ffffff"
     bordercolor="#666666"
     borderopacity="1.0"
     inkscape:pageopacity="0.0"
     inkscape:pageshadow="2"
     inkscape:zoom="1.4"
     inkscape:cx="269.7506"
     inkscape:cy="191.26585"
     inkscape:document-units="px"
     inkscape:current-layer="layer1"
     showgrid="false"
     units="px"
     inkscape:snap-page="true"
     inkscape:snap-object-midpoints="true" />
  <metadata
     id="metadata5">
    <rdf:RDF>
      <cc:Work
         rdf:about="">
        <dc:format>image/svg+xml</dc:format>
        <dc:type
           rdf:resource="http://purl.org/dc/dcmitype/StillImage" />
        <dc:title></dc:title>
      </cc:Work>
    </rdf:RDF>
  </metadata>
  <g
     inkscape:label="Layer 1"
     inkscape:groupmode="layer"
     id="layer1"
     transform="translate(0,-217.62499)">
    <rect
       y="217.62503"
       x="5.555421e-09"
       height="300"
       width="300"
       id="rect993"
       style="opacity:1;vector-effect:none;fill:#6b471c;fill-opacity:1;fill-rule:nonzero;stroke:none;stroke-width:1.88976359;stroke-linecap:round;stroke-linejoin:round;stroke-miterlimit:4;stroke-dasharray:none;stroke-dashoffset:0;stroke-opacity:1" />
    <g
       transform="matrix(3.6306807,0,0,3.6306807,385.32167,-3245.9799)"
       id="layer1-3"
       inkscape:label="Layer 1"
       style="opacity:1;vector-effect:none;fill:#bcbda7;fill-opacity:1;stroke:none;stroke-width:0.52049845;stroke-linecap:round;stroke-linejoin:round;stroke-miterlimit:4;stroke-dasharray:none;stroke-dashoffset:0;stroke-opacity:1">
      <path
         id="path3353"
         d="m 33.750047,997.06092 c 1.949704,0 3.243565,0.97318 4.979173,1.93728 1.644901,0.9139 3.712794,1.6976 6.628995,1.1021 1.383919,1.3833 2.789935,2.7669 4.28935,3.7041 1.227013,0.7669 2.605826,1.2236 3.98111,1.0078 -0.394584,3.1046 -2.279854,6.1415 -4.250726,7.7312 -5.197354,-1.7224 -10.407708,-2.584 -15.61806,-2.584 -5.215182,0 -10.430269,0.8632 -15.632358,2.5887 -1.972917,-1.5883 -3.861343,-4.6282 -4.256206,-7.7359 1.375007,0.216 2.754097,-0.2409 3.981111,-1.0077 1.499414,-0.9372 2.905245,-2.3207 4.289348,-3.704 2.915923,0.5954 4.984095,-0.1884 6.628996,-1.10212 1.735794,-0.96455 3.029562,-1.93746 4.979267,-1.93746 z m 0.0098,1.81405 c -1.839685,0 -4.936466,2.48613 -4.936466,2.48613 0,0 1.970129,7.4586 4.936466,7.4586 2.966521,0 4.936651,-7.4586 4.936651,-7.4586 0,0 -3.096966,-2.48613 -4.936651,-2.48613 z m 0,12.74923 c 4.901185,0 9.802742,0.8013 14.715997,2.3893 0.202397,1.2506 -0.140193,2.1799 -0.877181,3.0393 -0.82259,0.9593 -2.203353,1.7736 -3.83999,2.3869 -3.273646,1.2273 -7.51871,1.6616 -9.998919,1.6616 -2.480117,0 -6.724995,-0.4343 -9.998548,-1.6615 -1.636824,-0.6133 -3.0174,-1.4275 -3.83999,-2.387 -0.737174,-0.8594 -1.079951,-1.7885 -0.877367,-3.0392 4.913255,-1.5881 9.814719,-2.3894 14.715905,-2.3894 z m 16.082925,5.3057 c 0.911719,0.2211 2.500449,0.7218 2.785849,1.5778 0.780068,2.3393 -1.570904,5.9229 -3.348849,8.1841 0.48984,-2.043 0.753886,-4.2161 0.753886,-6.4694 0,-1.1194 -0.06555,-2.2189 -0.190886,-3.2925 z m -32.16548,0 a 28.398837,28.398837 0 0 0 -0.190886,3.2924 c 0,2.2533 0.263954,4.4264 0.753886,6.4694 -1.777944,-2.2612 -4.129009,-5.8448 -3.348849,-8.1841 0.285307,-0.856 1.87413,-1.3567 2.785756,-1.5778 z m 30.640997,1.7799 c 0.02832,0.4993 0.0441,1.0033 0.0441,1.5124 0,5.5125 -1.683245,10.4874 -4.354618,14.0477 -2.671281,3.5602 -6.285755,5.6925 -10.248018,5.6925 -3.961984,0 -7.576551,-2.1323 -10.247739,-5.6925 -2.671281,-3.5603 -4.354341,-8.5351 -4.354341,-14.0476 0,-0.5093 0.01578,-1.0133 0.04401,-1.5126 0.761312,0.7109 1.691228,1.2875 2.714267,1.7668 -0.396441,1.6898 0.02469,3.7916 1.123215,4.8897 2.021565,2.0206 6.555184,2.0206 8.576842,0 0.626134,-0.6261 0.894729,-1.6236 0.859263,-2.6245 0.458088,0.02 0.891294,0.03 1.28467,0.03 0.393469,0 0.826767,-0.011 1.284948,-0.03 -0.03556,1.0008 0.233036,1.9984 0.859355,2.6245 2.021659,2.0206 6.555092,2.0206 8.576657,0 1.098519,-1.0981 1.519654,-3.1996 1.123215,-4.8893 1.023131,-0.4793 1.953232,-1.0563 2.71436,-1.7671 z m -14.558442,10.943 c -2.144118,3.4292 -6.432354,3.8578 -8.576471,3.8578 2.144024,1.7148 8.576378,1.7148 8.576378,0 0,1.7148 6.432631,1.7148 8.576842,0 -2.144211,0 -6.432632,-0.4286 -8.576842,-3.8578 z"
         style="vector-effect:none;fill:#bcbda7;fill-opacity:1;stroke:none;stroke-width:0.52049845;stroke-linecap:round;stroke-linejoin:round;stroke-miterlimit:4;stroke-dasharray:none;stroke-dashoffset:0;stroke-opacity:1"
         inkscape:connector-curvature="0" />
    </g>
    <g
       transform="matrix(4.5676916,0,0,4.5676916,-4.4067333,-4284.939)"
       id="layer1-9"
       inkscape:label="Layer 1"
       style="opacity:1;vector-effect:none;fill:#bcbda7;fill-opacity:1;stroke:none;stroke-width:0.41372398;stroke-linecap:round;stroke-linejoin:round;stroke-miterlimit:4;stroke-dasharray:none;stroke-dashoffset:0;stroke-opacity:1">
      <path
         id="path6"
         d="m 43.601104,1021.1838 c -2.187836,0.2964 -4.970183,0.4999 -8.479897,0.6194 -2.227025,0.076 -4.724542,0.1137 -7.424689,0.1137 -3.399798,0 -6.429698,-0.06 -8.304987,-0.104 a 19.946684,19.946684 0 0 0 0.850666,5.5924 c 2.142914,7.1571 7.769736,12.0001 13.369795,12.0001 a 9.4624646,9.4624646 0 0 0 2.722131,-0.3977 c 6.212729,-1.8599 9.375486,-9.7453 7.266981,-17.8238 z m -15.520353,8.3423 -1.297982,-0.7885 -0.573484,1.0064 -1.504435,-0.8603 0.599289,-1.0446 -1.338126,-0.8124 0.900368,-1.4815 1.297982,0.7885 0.573482,-1.0065 1.504436,0.8603 -0.599289,1.0447 1.338127,0.8124 z m 9.395558,-2.468 -1.297982,-0.7884 -0.573483,1.0064 -1.504437,-0.8602 0.596423,-1.0485 -1.338127,-0.8115 0.903235,-1.4825 1.297983,0.7886 0.573483,-1.0064 1.504436,0.8601 -0.59929,1.0447 1.338127,0.8126 z m 11.640743,-21.7225 2.10277,1.7521 2.324516,-1.4414 -1.016975,2.5396 2.089388,1.7653 -2.728822,-0.1825 -1.036091,2.5328 -0.669064,-2.6523 -2.727866,-0.2008 2.31018,-1.4556 z m -0.02103,-7.53554 0.198808,1.70908 1.684127,0.35072 -1.563695,0.71674 0.191161,1.71 -1.167038,-1.2655 -1.568476,0.7064 0.843019,-1.4977 -1.156522,-1.27426 1.686995,0.3394 z m -33.746589,-0.0434 1.761547,2.09027 2.541484,-1.01116 -1.446132,2.32453 1.747211,2.1027 -2.655225,-0.6566 -1.464293,2.3121 -0.191161,-2.7278 -2.651402,-0.6758 2.534794,-1.0285 z m 33.746589,19.62354 c -0.435846,1.2102 -2.443036,2.4994 -14.023563,2.8933 -2.473621,0.084 -5.015106,0.1127 -7.373076,0.1127 -4.005776,0 -11.584351,-0.1156 -11.584351,-0.1156 v -1.5293 c 0,0 7.595779,0.1157 11.585307,0.1157 2.307312,0 4.790492,-0.027 7.209634,-0.109 3.705653,-0.1233 6.68394,-0.3527 8.85266,-0.6796 3.256427,-0.4922 3.805059,-1.0733 3.883434,-1.189 -0.02293,-0.055 -0.116608,-0.2246 -0.464521,-0.4999 -0.969186,-0.7646 -2.72691,-1.5293 -5.094438,-2.2404 a 19.346438,19.346438 0 0 0 -1.582812,-2.0281 c 0.19116,0.048 0.382321,0.096 0.562013,0.1462 3.361564,0.8946 5.734827,1.8772 7.061484,2.9208 0.622229,0.4952 1.297982,1.2771 0.968229,2.2022 z m -29.133878,-0.1443 c 0.143372,-0.7006 0.844931,-2.5329 1.186155,-3.0509 5.385959,0.3689 14.418311,-1.5026 16.85848,-2.4048 1.453779,1.2665 3.126436,3.4256 3.881523,4.9883 -5.477716,0.6233 -15.238392,0.6357 -21.929025,0.4684 z m 1.854263,-6.8903 c -0.963453,-0.058 -3.22393,-0.1979 -4.076508,0.1912 1.134541,1.0714 7.168535,1.1908 12.256282,0.4701 5.45382,-0.7722 10.513849,-2.0511 13.483534,-4.0746 1.236811,-0.843 1.890582,-2.075 1.772063,-2.6217 -0.602157,-2.7871 -16.642469,-3.7716 -16.642469,-3.7716 0,0 17.041038,0.3526 17.167205,3.7706 0.135723,3.6665 -7.850978,6.4804 -15.526089,7.678 -7.289921,1.1375 -14.278764,1.2167 -13.916515,-1.7902 0.210278,-1.7472 4.906146,-1.4213 6.938186,-1.19 -0.403348,0.2781 -1.142185,1.0093 -1.458556,1.339 z m 7.252645,-1.8286 a 10.158291,10.158291 0 0 1 4.069814,0.4397 c -1.216739,0.2983 -5.571384,0.89 -8.139631,0.9559 2.027261,-1.2359 3.707566,-1.3515 4.066948,-1.3946 z"
         style="vector-effect:none;fill:#bcbda7;fill-opacity:1;stroke:none;stroke-width:0.41372398;stroke-linecap:round;stroke-linejoin:round;stroke-miterlimit:4;stroke-dasharray:none;stroke-dashoffset:0;stroke-opacity:1"
         inkscape:connector-curvature="0" />
    </g>
  </g>
</svg>
