<?xml version="1.0" encoding="UTF-8" standalone="no"?>
<svg
   xmlns:dc="http://purl.org/dc/elements/1.1/"
   xmlns:cc="http://creativecommons.org/ns#"
   xmlns:rdf="http://www.w3.org/1999/02/22-rdf-syntax-ns#"
   xmlns:svg="http://www.w3.org/2000/svg"
   xmlns="http://www.w3.org/2000/svg"
   xmlns:sodipodi="http://sodipodi.sourceforge.net/DTD/sodipodi-0.dtd"
   xmlns:inkscape="http://www.inkscape.org/namespaces/inkscape"
   sodipodi:docname="thug.svg"
   inkscape:version="1.0 (4035a4fb49, 2020-05-01)"
   version="1.1"
   id="svg2"
   viewBox="0 0 312.5 500"
   height="500"
   width="312.5">
  <defs
     id="defs4" />
  <sodipodi:namedview
     inkscape:document-rotation="0"
     inkscape:guide-bbox="true"
     showguides="true"
     inkscape:window-maximized="1"
     inkscape:window-y="-8"
     inkscape:window-x="-8"
     inkscape:window-height="1017"
     inkscape:window-width="1920"
     units="px"
     showgrid="false"
     inkscape:current-layer="layer1"
     inkscape:document-units="px"
     inkscape:cy="387.0873"
     inkscape:cx="377.20443"
     inkscape:zoom="1.979899"
     inkscape:pageshadow="2"
     inkscape:pageopacity="0.0"
     borderopacity="1.0"
     bordercolor="#666666"
     pagecolor="#ffffff"
     id="base" />
  <metadata
     id="metadata7">
    <rdf:RDF>
      <cc:Work
         rdf:about="">
        <dc:format>image/svg+xml</dc:format>
        <dc:type
           rdf:resource="http://purl.org/dc/dcmitype/StillImage" />
        <dc:title></dc:title>
      </cc:Work>
    </rdf:RDF>
  </metadata>
  <g
     transform="translate(0,72.637839)"
     id="layer1"
     inkscape:groupmode="layer"
     inkscape:label="Layer 1">
    <path
       inkscape:export-ydpi="49.740002"
       inkscape:export-xdpi="49.740002"
       inkscape:export-filename="G:\apmeneel\Documents\Board Games\Masters of the Heist\decks\svg\crew\png\persuasion specialist.png"
       inkscape:connector-curvature="0"
       style="opacity:1;fill:#000000;fill-opacity:1;fill-rule:evenodd;stroke:none;stroke-width:0.963987"
       d="m 178.17762,420.0258 c -2.1524,-0.53887 -4.8429,-1.61653 -5.38101,-2.15536 -1.88335,-1.0777 -1.88335,-1.61653 -1.88335,-5.65783 -0.5381,-3.23304 0,-4.58013 1.0762,-6.73549 0.80715,-1.07768 1.34526,-2.69418 1.34526,-4.58012 -0.53811,-2.15536 0,-2.69419 1.6143,-4.31071 1.6143,-1.61653 1.6143,-2.42478 1.6143,-5.65782 -0.5381,-4.04131 -0.5381,-5.6578 -2.69051,-7.27433 -1.0762,-1.0777 -1.0762,-2.15536 -1.0762,-6.73548 0,-6.19665 -2.42145,-14.00983 -4.03576,-14.00983 -0.5381,-0.53883 -0.5381,0.53885 -0.5381,6.19665 0,7.27435 -0.5381,10.50737 -2.1524,12.3933 -1.88335,1.61653 -10.22392,4.84955 -13.45253,4.84955 -2.42145,0.53883 -2.95956,0 -4.57385,-1.07766 -2.15241,-1.61653 -3.49767,-1.61653 -5.65007,0.53883 -2.15241,2.96361 -7.80247,6.19666 -14.52873,7.81316 -4.57387,1.3471 -6.18817,1.3471 -13.99062,1.3471 -8.34058,0 -9.14773,0 -11.83824,-1.3471 -4.573856,-2.15536 -6.726266,-8.35199 -5.650061,-11.58505 1.076205,-2.42476 1.076205,-2.42476 9.147721,-4.58012 12.10728,-2.69419 21.7931,-9.42967 22.8693,-16.97344 1.07619,-4.84954 -0.5381,-29.63613 -2.69051,-39.60466 -0.80714,-2.42478 -1.88335,-8.08261 -3.49765,-12.39332 -1.0762,-5.11895 -2.69051,-11.3156 -3.22861,-14.00983 -0.80715,-4.0413 -1.88336,-6.73549 -2.95955,-9.69913 -3.76672,-6.73547 -4.57387,-8.89083 -3.76672,-20.20644 0,-14.54864 0,-13.47098 -2.42144,-15.62634 -1.07621,-1.07766 -2.15242,-1.61652 -4.30482,-2.15536 -5.11196,-0.80823 -9.147721,-3.50242 -12.376326,-8.0826 -0.538098,-1.07766 -1.076195,-1.61649 -1.883361,-2.15535 0.807166,-2.69418 0.807166,-5.11896 0.807166,-7.81314 0.538097,-4.04129 0.538097,-8.35201 0.538097,-8.89084 0,-0.80828 0,-2.96364 0.538098,-4.58013 0.538098,-1.61653 1.076205,-5.119 1.076205,-8.35202 0,-6.73548 -1.076205,-9.16025 -5.650063,-10.23795 -2.690508,-1.07766 -7.802468,-5.65782 -8.340567,-7.27432 -0.538102,-1.61651 1.076202,-3.23304 3.228607,-4.0413 1.883354,-0.53883 2.959561,-1.07768 2.959561,-2.15535 0,-0.53883 -0.538109,-0.53883 -1.076207,-0.53883 -0.807151,0 -3.49766,-2.15535 -8.609619,-6.73548 -0.5381,0 -1.076202,-0.53887 -1.614303,-1.0777 0.538101,-2.15536 0.538101,-4.58012 1.076203,-6.73548 1.614302,-11.31563 1.614302,-14.54866 1.076201,-17.51227 -0.538101,-2.15536 0,-3.23303 0.538101,-6.7355 1.345253,-2.15535 1.345253,-5.6578 1.345253,-7.81316 0,-2.6942 0.538101,-6.19665 0.538101,-7.81316 0,-1.61652 0,-4.58014 0,-6.19665 -0.538101,-1.61652 0,-4.0413 0.538102,-5.11898 0.538099,-2.15536 1.076202,-4.31071 1.076202,-9.42968 -0.538103,-5.11897 0,-6.73549 0.538099,-7.813171 0.538104,-1.07768 1.076203,-3.502453 1.076203,-5.657802 0,-2.155358 0,-5.118982 0.538103,-6.196662 0,-0.53884 0.538099,-5.118964 0.538099,-8.890843 0.538104,-16.434592 1.345255,-23.170076 2.959555,-28.289049 1.076208,-2.6942 2.152403,-5.388389 2.152403,-5.927229 0,-1.885945 2.1524,-10.237948 4.035761,-14.279233 1.076205,-2.155359 1.614312,-3.233039 3.766712,-4.310718 1.076205,-0.53884 2.959556,-1.61652 3.497654,-2.424775 0.53811,-0.53884 3.22862,-1.61652 6.18816,-2.694199 4.30481,-2.15535 6.72627,-3.23303 7.80247,-6.196655 0.53811,-0.53884 1.61431,-2.15535 2.6905,-3.771869 1.88336,-1.8859354 2.95957,-2.9636152 2.95957,-3.502455 0,0 -1.07621,-2.1553494 -1.88336,-4.0412841 -1.07621,-2.1553594 -2.69051,-6.7354935 -4.3048,-9.9685227 -1.07622,-4.0413042 -2.42147,-7.2743332 -2.95957,-7.2743332 0,-0.538839 -1.6143,-1.077679 -3.22861,-1.616519 -1.0762,-0.53884 -4.03574,-1.885925 -5.65006,-3.502454 -5.650061,-3.23303 -6.726266,-7.274324 -5.111954,-16.165177 3.497654,-12.393288 13.452524,-24.247755 25.290754,-29.36672 4.03576,-1.616519 5.11196,-1.616519 11.30012,-1.616519 1.61431,0 3.76671,-0.53884 6.18817,-0.53884 1.6143,1.07768 2.6905,1.61652 4.3048,2.155359 2.42145,1.347095 5.11197,3.502445 7.26436,4.580125 2.95957,1.616519 2.95957,2.155359 5.11197,6.735493 1.61431,4.580134 1.61431,5.657814 1.61431,11.315618 0,2.694199 0.53809,6.735484 0.53809,8.352004 1.88336,4.041303 0.80716,9.968532 -1.0762,14.009826 -2.1524,4.580125 -2.1524,6.735484 -0.5381,8.890833 0.5381,1.3471145 2.42146,3.5024644 3.49766,5.1189743 5.65006,7.8131729 11.03107,11.3156171 22.8693,13.4709765 5.11196,1.0776798 8.34056,2.1553602 11.30012,3.5024552 2.15241,1.077679 4.30481,1.616509 5.11196,1.616509 0.5381,0 1.6143,1.07768 2.69051,2.15536 1.6143,1.61652 2.6905,2.424785 4.57385,2.424785 2.15242,0 3.76671,0.808255 3.76671,3.23303 0.26905,6.196653 4.57387,14.009817 3.49766,17.512271 -0.5381,1.61651 2.69051,8.890853 6.18816,15.626337 0.5381,1.616519 1.07621,2.694199 1.61431,3.233029 0,1.347095 3.76671,12.393298 5.11195,13.470978 0.53811,0 1.61431,2.963624 2.15241,6.196663 0.5381,2.963605 2.69051,7.274324 4.03576,10.776768 1.61431,3.233039 2.6905,6.735492 3.22861,9.968531 1.07619,5.118974 1.07619,5.657804 0,9.160264 -0.53811,1.61652 -1.6143,4.31071 -1.6143,5.65781 0,0.53884 -0.5381,3.23303 -1.61431,5.38839 -0.80715,2.42478 -1.34525,5.11897 -1.34525,6.19665 0,1.3471 -1.0762,3.50246 -3.22861,5.65781 -1.61431,2.42477 -2.95955,4.58013 -3.49766,6.73549 -0.53811,1.61652 -2.1524,5.65781 -3.7667,9.16027 -2.42146,3.23303 -4.03576,7.27432 -4.03576,7.81316 -0.5381,1.07768 -1.61431,3.23303 -3.22861,5.65781 -4.57386,5.92723 -4.57386,6.73549 -1.0762,18.85938 1.6143,6.19663 3.2286,12.39328 3.76671,13.47097 0,0.53883 1.07621,4.0413 1.07621,6.73549 0,4.58013 0,5.11896 -0.53811,6.73549 -1.61431,1.88593 -7.26437,4.58012 -10.49298,5.11895 -4.03575,0.53887 -4.57385,1.0777 -4.03575,11.31562 0.53809,4.31072 1.0762,8.35201 1.0762,8.35201 0.5381,1.07769 -1.0762,21.28415 -2.15241,27.48081 -1.6143,8.35201 -1.6143,16.97344 0,23.17006 1.07621,3.77187 1.6143,7.27434 3.7667,17.78176 0.80716,2.42476 1.88337,11.3156 2.95957,19.66761 1.0762,8.35198 2.1524,17.51227 2.6905,19.66763 0,2.15536 0.53811,6.19666 0.53811,8.89084 0,9.69909 1.34525,19.66762 2.95955,22.63123 0.53811,1.0777 1.0762,2.69419 1.0762,2.69419 0,0.53887 -1.0762,1.61653 -2.6905,2.96363 -1.88336,1.61653 -2.42146,2.15536 -2.42146,4.31072 0,2.42476 0,2.42476 -2.1524,3.50242 -1.61431,1.0777 -2.15241,1.61653 -2.15241,3.77189 4.57386,10.77679 -0.80716,3.50248 0.5381,10.23796 1.0762,4.31071 1.61431,5.65779 1.0762,8.89083 -0.53809,2.96362 -0.53809,3.50245 -5.11195,7.81315 -5.65007,5.65783 -6.72626,6.19666 -11.30013,7.27436 -7.26437,1.34707 -8.87867,0.53883 -13.45253,-0.53883 z"
       id="path2991" />
  </g>
</svg>
