<?xml version="1.0" encoding="UTF-8" standalone="no"?>
<svg
   xmlns:dc="http://purl.org/dc/elements/1.1/"
   xmlns:cc="http://creativecommons.org/ns#"
   xmlns:rdf="http://www.w3.org/1999/02/22-rdf-syntax-ns#"
   xmlns:svg="http://www.w3.org/2000/svg"
   xmlns="http://www.w3.org/2000/svg"
   xmlns:sodipodi="http://sodipodi.sourceforge.net/DTD/sodipodi-0.dtd"
   xmlns:inkscape="http://www.inkscape.org/namespaces/inkscape"
   sodipodi:docname="pickpocket.svg"
   inkscape:version="1.0 (4035a4fb49, 2020-05-01)"
   version="1.1"
   id="svg2"
   viewBox="0 0 312.5 500"
   height="500"
   width="312.5">
  <defs
     id="defs4">
    <pattern
       id="EMFhbasepattern"
       patternUnits="userSpaceOnUse"
       width="6"
       height="6"
       x="0"
       y="0" />
  </defs>
  <sodipodi:namedview
     inkscape:document-rotation="0"
     inkscape:snap-global="false"
     inkscape:guide-bbox="true"
     showguides="true"
     inkscape:window-maximized="1"
     inkscape:window-y="-8"
     inkscape:window-x="-8"
     inkscape:window-height="1017"
     inkscape:window-width="1920"
     units="px"
     showgrid="false"
     inkscape:current-layer="layer1"
     inkscape:document-units="px"
     inkscape:cy="580.98017"
     inkscape:cx="292.44736"
     inkscape:zoom="1.4"
     inkscape:pageshadow="2"
     inkscape:pageopacity="0.0"
     borderopacity="1.0"
     bordercolor="#666666"
     pagecolor="#ffffff"
     id="base" />
  <metadata
     id="metadata7">
    <rdf:RDF>
      <cc:Work
         rdf:about="">
        <dc:format>image/svg+xml</dc:format>
        <dc:type
           rdf:resource="http://purl.org/dc/dcmitype/StillImage" />
        <dc:title></dc:title>
      </cc:Work>
    </rdf:RDF>
  </metadata>
  <g
     transform="translate(0,72.637839)"
     id="layer1"
     inkscape:groupmode="layer"
     inkscape:label="Layer 1">
    <path
       inkscape:connector-curvature="0"
       style="fill:#000000;fill-opacity:1;fill-rule:nonzero;stroke:none;stroke-width:3.00537"
       d="m 136.2222,-67.856045 c 2.86854,0.104671 6.26778,1.247413 9.54719,3.564331 1.04973,0.77268 3.01526,1.928227 4.32446,2.568253 2.48921,1.411558 5.90944,4.900336 7.23732,7.625753 0.92754,1.686216 1.06486,2.467082 0.98699,8.333396 0.0315,3.519109 -0.1989,6.910196 -0.32339,7.56305 -0.11927,1.044 -0.11947,1.17421 1.31618,1.422042 1.82822,0.374684 3.0141,1.797901 3.42605,4.140458 0.27473,1.561709 0.0256,2.867419 -1.24386,6.658849 -1.64429,5.619651 -2.67181,7.323358 -4.61867,8.253201 -1.29754,0.663345 -1.29639,0.793682 -1.53022,3.793771 -0.11546,1.695535 -0.21429,5.2157773 -0.0606,7.8213713 0.30967,5.47182649 0.70882,6.38068329 3.72056,7.9179021 4.31975,2.0469285 5.88848,2.5542725 7.71321,2.5379549 2.47638,-0.022135 6.40396,1.8979156 9.2959,4.6093466 1.18235,1.0322107 4.33143,3.3503011 6.95446,5.1516951 5.63834,3.729632 7.21283,4.888678 10.89259,8.244786 5.913,5.291358 10.55755,14.504457 13.66721,26.989995 2.02736,8.063393 3.3692,12.352848 4.83203,15.598454 0.53304,1.298703 1.60139,4.156793 2.40322,6.365521 0.80185,2.208735 1.60483,4.547801 2.00169,5.195978 0.39687,0.648195 0.6645,1.42789 0.66682,1.688561 0.003,0.260701 0.40617,1.690879 0.80887,2.990748 0.533,1.298714 0.938,2.859256 0.94499,3.641279 0.0141,1.564049 1.20915,4.029945 2.38686,4.540795 0.56451,4.817803 0.79023,0.905369 0.56451,4.817803 -0.11927,1.044017 0.15702,2.996592 0.42947,4.29762 0.96016,5.335661 1.39434,10.154611 1.01377,11.331151 -0.12316,0.78319 -0.11375,1.82589 0.0245,2.73708 0.53653,1.68972 0.29104,3.38643 -0.86804,4.96095 -0.38518,0.6552 -0.8914,2.35424 -1.13922,3.79029 -0.36299,3.13157 -2.13995,8.49172 -4.30556,14.116 -0.8937,2.09356 -1.91423,4.57929 -2.29591,5.62549 -0.7622,2.22273 -1.91544,4.44894 -2.8196,5.36946 -0.38753,0.39451 -0.90073,1.31153 -1.2859,1.96671 -0.25499,0.65401 -0.89721,1.70255 -1.41386,2.22856 -1.93524,2.23322 -0.89723,1.70254 -2.05858,3.0164 0.2641,0.38867 -1.42206,1.3162 -2.83009,4.19643 -0.25736,0.39334 -1.03338,1.05203 -1.68158,1.44886 -0.6482,0.39685 -1.03338,1.05203 -1.02756,1.70372 0.0128,1.43369 -2.30176,4.97377 -5.40069,8.2602 -3.22693,3.54822 -3.61092,4.33377 -2.93826,6.67399 0.66918,1.94925 0.7263,8.33575 0.0979,10.94832 -0.12177,0.91355 -1.01822,2.7464 -1.78975,3.9264 -1.41507,2.09824 -1.54193,2.49041 -1.63493,6.66237 -0.23051,3.39107 -0.0859,4.95398 0.45281,6.90435 0.93918,2.98958 0.72865,8.59642 -0.27906,12.51582 l -0.23633,2.6092 c 0.42833,4.16729 1.18378,15.76145 2.59584,42.47003 0.93803,2.85924 1.74336,5.45898 1.74686,5.85 0.003,0.26076 0.27351,1.43138 0.5435,2.47175 0.40149,1.16951 0.94498,3.64122 1.22314,5.59396 0.27821,1.95273 0.95081,4.29297 1.48151,5.33099 0.40032,1.03923 1.20102,3.11763 1.60483,4.54782 0.40384,1.43017 1.07304,3.37941 1.60251,4.28709 0.39916,0.90891 0.80073,2.07841 0.80654,2.73011 0.0118,1.30336 1.33717,3.76807 2.9164,5.44848 0.79016,0.90539 1.31967,1.81304 1.32549,2.46474 0.0151,1.6944 0.45399,7.03472 0.87297,10.1593 0.27355,1.43136 0.42602,3.9066 0.30852,5.3415 -0.24694,1.56632 -0.10331,2.99889 0.162,3.51793 1.19516,2.46589 1.46632,3.63659 1.07997,4.16143 -0.25835,0.26278 -0.36978,2.34961 -0.35027,4.56527 0.0256,2.86742 -0.0929,4.17197 -0.47916,4.69681 -0.38635,0.52484 -0.38287,0.91587 -0.11275,1.95625 0.66684,1.68854 0.66916,1.9492 -0.10729,2.60788 -0.38751,0.39452 -0.63303,2.0912 -0.7378,4.95979 -0.10965,2.34724 -0.35127,4.43493 -0.48045,4.56646 -1.8e-4,0.13009 -0.3644,3.00124 -0.46634,6.13054 -0.23151,3.26075 -0.71927,7.04516 -0.96795,8.3509 -1.00771,3.91944 1.63402,7.80622 2.58369,11.96886 -0.25,1.17534 -0.255,0.654 -0.89488,1.96319 -0.3805,1.17656 -0.24793,1.43602 0.14462,1.56289 l 0.15703,2.99656 c 0.007,0.78204 -0.37581,1.6979 -0.76336,2.09239 -1.03338,1.05204 -1.02639,1.83407 -0.35779,3.78324 0.79952,1.94805 0.81936,4.16378 0.83918,6.3795 0.0118,1.3034 0.28285,2.47407 0.42366,3.64596 0.15002,2.21453 0.29802,4.16842 0.83682,6.11881 0.40734,1.82119 0.42365,3.64595 0.69946,5.33799 -0.37949,1.30688 -0.0996,3.38993 -0.0754,6.127 0.0397,4.43146 0.0408,4.56179 -1.37774,6.26899 -0.64236,1.04855 -1.93758,1.97255 -2.58695,2.23903 -1.6885,0.66685 -2.2064,1.06251 -1.55118,1.44773 0.26278,0.25835 -0.38753,0.39449 -1.69086,0.40616 -3.51793,0.162 -5.08086,0.30616 -5.46837,0.70066 -0.38982,0.1342 -2.47636,0.0222 -13.95535,-0.91794 -5.34828,-0.47573 -5.60917,-0.47104 -6.66232,-1.63489 -1.05439,-1.29409 -1.1929,-2.20525 -0.57618,-6.12121 0.62372,-3.13391 1.0054,-4.1801 1.78743,-4.1871 0.78197,-0.007 1.68036,-1.5792 1.28472,-2.09702 -0.13255,-0.25969 -0.007,-0.78201 0.25,-1.17543 0.3875,-0.39447 0.89605,-1.83288 1.40689,-3.01057 0.37947,-1.30684 0.88788,-2.74523 1.14504,-3.13855 0.25602,-0.52365 0.37345,-1.95856 0.23051,-3.39107 -0.0128,-1.43371 0.10361,-2.99895 0.35859,-3.65293 0.25367,-0.78435 0.24093,-2.21806 0.0955,-3.91127 -0.41199,-2.34259 -0.28987,-3.25608 0.3445,-5.217 0.88784,-2.7452 0.60625,-5.08893 -0.85081,-7.68287 -0.52954,-0.9077 -0.93103,-2.07723 -0.93567,-2.59858 1.13106,-4.70262 0.37243,-2.08889 1.13106,-4.70262 -0.0185,-2.08538 0.87037,-4.70025 2.03292,-5.8838 0.77503,-0.78903 0.90187,-1.18123 0.62603,-2.87325 -0.8275,-5.07617 -1.61418,-5.59049 -1.77599,-9.10842 -0.2805,-2.2134 -0.82982,-5.33682 -1.23367,-6.76702 -0.40502,-1.56056 -0.81118,-3.25142 -0.94619,-3.77161 -1.45119,-1.94222 -1.06484,-2.46707 -1.48503,-5.72197 -0.26175,-0.12786 -0.39682,-0.64823 -0.40148,-1.16955 -0.005,-0.52138 -0.27119,-1.17072 -0.66449,-1.42791 -0.26307,-0.25839 -0.92403,-1.29519 -1.32437,-2.33439 -0.66684,-1.68854 -0.66918,-1.94924 -0.028,-3.12809 0.38518,-0.65516 0.37816,-1.4372 0.24693,-1.56632 -0.26205,-0.12789 -0.26654,-0.64939 -0.14094,-1.17186 -0.41787,-2.9943 -0.96833,-6.24804 -2.04717,-10.27918 -0.39919,-0.9088 -0.40268,-1.29987 -0.0165,-1.82471 0.25838,-0.26307 0.38395,-0.78557 0.11927,-1.04399 -0.13389,-0.38987 -0.27472,-1.56176 -0.41548,-2.7336 -0.17919,-5.47298 -2.33115,-12.88354 -6.06106,-21.84414 -0.92982,-1.94686 -1.99935,-4.9353 -2.53703,-6.75535 -0.5365,-1.68976 -1.46517,-3.5063 -1.98997,-3.89263 -1.70842,-1.54889 -4.10694,-7.39304 -4.13025,-9.9998 -0.009,-1.04271 0.10904,-2.34724 0.36439,-3.00124 0.38183,-1.04617 0.37713,-1.56748 -0.15117,-2.34486 -0.39567,-0.51787 -0.92749,-1.68626 -1.19636,-2.59626 -0.26888,-0.91005 -0.66801,-1.81888 -0.93103,-2.07722 -0.13154,-0.1292 -0.26769,-0.77972 -0.27237,-1.30105 -0.0104,-1.17302 -1.47446,-4.54899 -2.12966,-4.93414 -0.26177,-0.12786 -0.5295,-0.90769 -0.66803,-1.81891 -0.13698,-0.78082 -0.53997,-2.08075 -0.67501,-2.60088 -0.40032,-1.03922 -0.66216,-1.16721 -1.83284,-0.89608 -0.65056,0.13594 -2.21341,0.28054 -3.12579,0.28871 -1.82357,0.14652 -1.95501,0.0172 -2.61838,-1.28005 -0.79601,-1.55707 -0.92517,-1.42552 -1.4279,0.66448 -0.12177,0.9136 0.0151,1.69442 0.54471,2.60212 0.5295,0.90768 0.6645,1.42787 0.27818,1.9527 -0.5132,0.91704 0.16907,18.8989 0.97091,21.10762 0.26772,0.77965 0.27936,2.08304 0.15467,2.73586 -1.38009,6.00836 -1.71979,11.7467 -0.64212,15.64744 0.40385,1.43023 0.68089,3.25263 0.81819,4.03343 0.14432,1.56291 0.28053,2.21344 1.2115,4.29065 0.93336,2.33789 1.29778,13.93555 0.45076,21.24261 -0.23512,2.86972 -0.46633,6.1305 -0.45591,7.30351 0.0431,4.82249 0.31205,5.7325 -1.34857,9.52745 -1.69089,0.40616 -1.69089,0.40616 -1.93407,2.36354 -0.25131,1.04502 -0.61536,4.04626 -1.11477,6.52734 -0.86454,5.35198 -0.9552,9.78461 -0.29771,10.43043 0.65752,0.64588 0.66684,1.68857 -0.10933,2.34723 -1.03568,0.79135 -1.26607,4.18246 -0.47234,5.47882 0.92638,1.55586 0.99052,8.72441 0.10611,11.86066 -1.13569,4.18131 -0.53041,13.56087 1.06394,16.93562 0.7972,1.68742 1.08468,4.68284 0.99281,8.98513 0.005,0.52134 0.0141,1.56404 0.15118,2.34487 0.007,0.78201 0.0209,2.34604 0.0326,3.64946 0.0104,1.17299 1.06833,2.8581 0.16284,3.64826 -0.77151,1.18002 -3.37245,1.85503 -8.06224,2.15767 -2.99657,0.15705 -4.55593,0.69252 -8.19725,1.63754 -4.16259,0.94964 -5.0831,0.0454 -6.52029,-0.33274 -1.04274,0.009 -3.64478,0.55398 -6.11771,0.96715 -3.12341,0.54931 -6.25382,0.31666 -10.81211,0.74849 -3.38528,0.42131 -7.674757,1.76311 -13.279231,1.81326 -4.045109,-0.48515 -8.478904,-0.70626 -10.319936,-2.51465 -1.31504,-1.29169 -1.203343,-3.37822 -0.181513,-5.73365 0.25368,-0.78434 0.63771,-1.56984 1.152017,-2.35655 0.770421,-1.31039 3.622608,-3.03039 5.301891,-4.7399 1.80957,-1.71074 2.44492,-3.54129 5.164517,-5.52083 0.521331,-0.005 1.04035,-0.27001 1.295161,-0.924 0.253671,-0.78436 0.643554,-0.91819 1.817731,-0.79834 0.913542,0.12177 1.824737,-0.0165 2.342596,-0.41202 0.388675,-0.26411 1.038042,-0.53064 1.429051,-0.53418 0.390985,-0.004 1.167176,-0.66216 1.810726,-1.58034 0.64468,-0.78785 1.6792,-1.70956 2.32969,-1.84571 1.28943,-1.57567 2.45776,-2.10753 3.49698,-2.50787 0.39102,-0.004 3.62026,-3.29106 3.6168,-3.68208 0.23912,-2.47871 -0.17568,-5.08199 1.36606,-7.57239 0.51437,-0.78666 1.02402,-2.09468 1.1474,-2.87791 0.12316,-0.78316 0.50851,-1.43834 0.63767,-1.56985 0.25969,-0.13255 0.24554,-1.69675 0.0986,-3.52025 -0.29336,-3.64714 0.21296,-5.34617 1.64196,-5.88035 l 1.03917,-0.40032 -0.30732,-5.21112 c -0.15473,-2.73594 -0.31902,-6.51456 -0.33418,-8.20895 -0.1455,-1.69318 -0.43654,-5.07959 -0.71931,-7.55365 -0.98116,-7.68177 -0.99051,-8.72444 -1.09659,-20.58509 -0.0968,-10.81799 -0.10258,-11.46969 -0.75664,-11.72449 -0.9147,-0.25235 -1.45464,-2.33328 -0.80995,-3.12109 0.51549,-0.65637 0.94699,-10.69699 0.5164,-15.12493 -0.14884,-2.08424 -1.09748,-6.11656 -1.75853,-7.15337 -0.26537,-0.51905 -0.13962,-1.04155 0.24323,-1.95739 0.76923,-1.44071 -0.16049,-3.38761 -0.17913,-5.473 -0.69602,-4.94698 1.22641,-8.61391 -0.64845,-14.20205 -1.32553,-2.46475 -2.53357,-6.36437 -2.95017,-9.22829 -0.27353,-1.43135 -1.08117,-4.29178 -2.01102,-6.23866 -0.79953,-1.94803 -1.99825,-4.80497 -2.53471,-6.49469 -2.14019,-6.10719 -2.93855,-7.92493 -3.597249,-8.70108 -0.921677,-1.03454 -1.999354,-4.93532 -1.348809,-5.07147 0.649348,-0.26654 0.51084,-1.17771 -0.146548,-1.82357 -0.524829,-0.38638 -0.527156,-0.64703 -0.270049,-1.04037 0.644706,-0.78786 0.07775,-5.86637 -0.715773,-7.1627 -0.395673,-0.51785 -0.670351,-2.07957 -0.686699,-3.90429 -0.01719,-1.95503 -0.159342,-3.25727 -0.686653,-3.90426 -0.528346,-0.7774 -0.535323,-1.55936 -0.422471,-3.5156 0.11966,-1.30448 0.355984,-3.91362 0.468736,-5.86986 l 0.230507,-3.39106 -2.631216,-2.71378 c -1.317374,-1.55236 -2.637088,-3.36542 -2.773232,-4.01597 -0.540007,-2.08072 -0.473809,-9.25043 0.03112,-11.07981 0.252343,-0.91469 0.749366,-3.65641 0.987875,-6.13516 0.364377,-3.00124 0.868041,-4.96097 1.382432,-5.74765 0.772656,-1.04967 1.27653,-3.00941 1.50804,-6.27016 0.111378,-2.08657 1.247427,-6.26782 1.765297,-6.6635 0.648162,-0.39683 2.565891,-4.58511 2.556573,-5.62779 -0.0047,-0.52137 0.503838,-1.95974 1.143899,-3.26894 0.64118,-1.17885 1.40225,-3.53191 1.65007,-4.96794 0.24694,-1.56637 0.75287,-3.26543 1.00771,-3.91945 0.76802,-1.57104 0.75987,-2.48339 -0.0303,-3.38875 -0.79249,-1.16603 -0.80066,-2.0784 -0.0245,-2.73709 0.38751,-0.39451 1.03102,-1.31269 1.54422,-2.22972 0.76919,-1.44069 0.76569,-1.83171 0.0673,-7.03936 -0.42832,-4.16729 -0.57615,-6.12117 -0.19899,-7.68871 0.62601,-2.87324 0.62251,-3.26426 -0.7193,-7.55371 -0.53855,-1.9504 -1.62668,-7.024193 -2.44489,-11.057646 -1.228137,-6.11538 -1.512143,-8.719775 -1.845054,-16.79834 C 98.587105,67.259779 98.581288,66.60809 96.443422,60.761588 94.975899,56.994652 94.697741,55.041934 93.820121,44.361284 c -0.298052,-4.16845 -0.313192,-5.862825 0.184898,-8.474233 0.870383,-4.700288 1.637242,-6.401658 4.733854,-9.948733 2.321607,-2.758067 3.098897,-3.286413 7.121927,-5.277608 9.34342,-4.645739 12.7182,-6.240092 13.10921,-6.24359 0.26074,-0.0023 0.51902,-0.265347 0.77616,-0.658685 0.12816,-0.261829 1.67808,-1.839874 3.48996,-3.289904 l 3.23279,-2.8965638 -0.93103,-2.0772295 c -0.40146,-1.1695398 -1.59201,-3.1141013 -2.6452,-4.2778042 -4.08359,-4.7863192 -5.80947,-8.2902522 -8.63512,-18.1713845 -0.13389,-0.389865 -1.06253,-2.206397 -2.25188,-4.020624 -1.3232,-2.204065 -2.12389,-4.282465 -2.52889,-5.842997 -0.54813,-2.993096 -0.16631,-4.039272 1.39293,-4.574625 1.04037,-0.270007 1.1695,-0.401501 0.89719,-1.702536 -0.13859,-0.911194 -0.68082,-3.252602 -0.96015,-5.335658 -0.40967,-2.081885 -0.82051,-4.294118 -1.08817,-5.073813 -0.533,-1.298703 0.0894,-4.562957 1.61395,-9.008412 1.39522,-4.313944 1.91187,-4.839934 6.4527,-7.22681 3.37358,-1.724705 4.41047,-2.385705 4.92248,-3.433076 0.76454,-1.962049 2.4519,-2.75923 5.84069,-2.789544 1.56285,-0.14433 3.25493,-0.420152 3.51326,-0.683152 1.03571,-0.79136 2.59623,-1.196363 4.16029,-1.21035 z m 44.84187,145.97895 c -0.782,0.007 -1.68739,0.79717 -1.28823,1.706036 2.25306,4.150962 4.26637,10.650318 5.75607,16.893663 1.35818,6.114176 2.32183,11.840836 2.34631,14.577896 0.0595,6.64719 -0.16628,10.55964 2.51628,19.00821 0,0 4.45943,3.08845 4.29735,-15.02837 -0.0816,-9.12358 0.78648,-14.08456 -2.26495,-20.053235 -3.0502,-5.838339 -9.27745,-17.122854 -11.36283,-17.1042 z"
       id="path823" />
  </g>
</svg>
