<?xml version="1.0" encoding="UTF-8" standalone="no"?>
<!-- Created with Inkscape (http://www.inkscape.org/) -->

<svg
   xmlns:dc="http://purl.org/dc/elements/1.1/"
   xmlns:cc="http://creativecommons.org/ns#"
   xmlns:rdf="http://www.w3.org/1999/02/22-rdf-syntax-ns#"
   xmlns:svg="http://www.w3.org/2000/svg"
   xmlns="http://www.w3.org/2000/svg"
   xmlns:sodipodi="http://sodipodi.sourceforge.net/DTD/sodipodi-0.dtd"
   xmlns:inkscape="http://www.inkscape.org/namespaces/inkscape"
   width="825"
   height="1125"
   viewBox="0 0 825.00001 1125"
   id="svg2"
   version="1.1"
   inkscape:version="0.91 r13725"
   sodipodi:docname="street urchin.svg">
  <defs
     id="defs4" />
  <sodipodi:namedview
     id="base"
     pagecolor="#ffffff"
     bordercolor="#666666"
     borderopacity="1.0"
     inkscape:pageopacity="0.0"
     inkscape:pageshadow="2"
     inkscape:zoom="0.98994949"
     inkscape:cx="1.3879749"
     inkscape:cy="516.49078"
     inkscape:document-units="px"
     inkscape:current-layer="layer1"
     showgrid="false"
     units="px"
     inkscape:window-width="1920"
     inkscape:window-height="1017"
     inkscape:window-x="-8"
     inkscape:window-y="-8"
     inkscape:window-maximized="1"
     showguides="true"
     inkscape:guide-bbox="true">
    <sodipodi:guide
       position="-382.85715,760"
       orientation="0,1"
       id="guide4139"
       inkscape:label=""
       inkscape:color="rgb(0,0,255)" />
    <sodipodi:guide
       position="-65.714287,260"
       orientation="0,1"
       id="guide4141"
       inkscape:label=""
       inkscape:color="rgb(0,0,255)" />
    <sodipodi:guide
       position="75.000001,582.85714"
       orientation="1,0"
       id="guide4143"
       inkscape:label=""
       inkscape:color="rgb(0,0,255)" />
  </sodipodi:namedview>
  <metadata
     id="metadata7">
    <rdf:RDF>
      <cc:Work
         rdf:about="">
        <dc:format>image/svg+xml</dc:format>
        <dc:type
           rdf:resource="http://purl.org/dc/dcmitype/StillImage" />
        <dc:title />
      </cc:Work>
    </rdf:RDF>
  </metadata>
  <g
     inkscape:label="Layer 1"
     inkscape:groupmode="layer"
     id="layer1"
     transform="translate(0,72.637839)">
    <path
       id="path2991"
       d="m 171.88987,693.65263 c -1.75404,-0.58561 -4.09275,-1.17126 -5.55444,-1.7569 -1.16935,-0.58565 -3.50806,-1.17129 -5.26209,-1.75694 -2.04637,-0.58564 -5.55444,-2.04974 -9.35484,-3.22103 -2.92338,-1.17129 -7.89314,-2.92823 -10.23185,-3.51387 -1.75403,-0.58565 -4.96975,-1.75694 -6.1391,-2.63539 -3.50807,-1.75694 -11.40121,-7.32055 -11.98589,-7.90619 0,-0.58565 0,-1.75694 0,-2.92823 0.58468,-1.7569 0,-2.92819 -2.04638,-6.7349 -1.75401,-4.39233 -2.3387,-4.97797 -1.75401,-6.14926 0.58466,-0.58565 0.58466,-1.17129 0.58466,-1.75694 -0.58466,-0.58564 -0.58466,-2.34258 -0.58466,-3.80667 0,-0.58565 0,-3.51388 0,-5.27078 0,-3.22106 -0.58469,-4.97796 -2.92339,-9.95593 -1.46171,-2.92823 -3.21572,-7.32055 -3.21572,-8.49184 0,-1.75694 -1.16935,-3.51384 -1.75404,-4.09948 -0.58469,-1.46413 -1.16935,-2.63542 -1.16935,-7.32055 0,-5.56361 -1.16935,-9.95593 -3.80041,-16.69084 -0.58469,-2.92819 -1.16935,-5.27077 -1.16935,-12.00567 0,-11.12723 -1.16934,-13.46981 -3.50808,-14.05546 -2.631024,0 -3.215724,-3.22103 -3.800374,-11.12718 -0.5847,-2.92823 -1.16935,-7.32055 -1.75404,-9.07749 -1.16935,-4.97796 -1.16935,-6.73489 0.58469,-9.66311 1.16935,-3.22103 1.754,-4.39232 1.754,-7.90618 0,-2.04975 -0.58465,-2.04975 -1.754,-2.04975 -1.75404,0 -1.75404,-0.58564 -0.58469,-2.92821 0.58469,-1.75694 0.58469,-2.34258 0,-4.39233 -1.16935,-1.75693 -1.16935,-2.34257 0.58469,-4.0995 0.58465,-1.17129 1.16935,-1.75693 0.58465,-3.22104 -0.58465,-0.58564 -0.58465,-1.17129 0,-2.34257 0.5847,-1.17129 1.75405,-2.92822 2.923404,-4.39232 0,-1.17129 0.87702,-1.75693 1.46167,-2.92822 -0.58465,0 -1.46167,-0.58564 -2.046374,-1.17129 -1.16935,-1.17128 -1.754,-1.75693 -1.16935,-3.22103 0,-0.58565 0.87703,-2.04975 1.16935,-2.6354 0.584704,-1.75693 0,-4.39232 -0.87698,-7.61336 -0.87702,-2.34257 2.338704,-3.51386 4.092744,-4.97797 0.58465,-1.17128 1.16935,-4.68514 2.33869,-8.49182 1.16935,-10.8344 1.75404,-13.46979 3.80041,-15.81236 1.16935,-1.75693 1.75401,-2.92822 1.75401,-7.32055 0.58469,-2.92821 1.16938,-6.14925 1.16938,-6.14925 0,-0.58564 0.58466,-2.92821 0.58466,-5.56361 -0.58466,-5.27079 1.75404,-14.64108 4.38507,-17.56929 0.58469,-1.17129 1.75404,-3.51386 2.92339,-5.56361 1.75404,-3.51386 7.89315,-7.90618 14.03226,-10.24875 2.33871,-1.17129 4.38508,-2.34258 5.55443,-3.80669 2.33871,-2.92821 3.50806,-5.85643 2.92339,-7.32054 -0.58468,-4.68514 2.92338,-9.37029 1.75403,-11.42004 -1.16936,-0.58564 -6.43145,-0.58564 -7.30846,-1.75693 -0.58468,-2.63539 -1.16936,-3.22103 -3.50807,-4.39232 -2.92338,-1.75693 -2.04637,-3.22104 -3.8004,-10.54158 -0.58468,-2.34257 -2.63105,-6.14925 -2.92339,-8.78464 -0.29233,-2.92822 -2.92338,-4.97797 -2.92338,-4.97797 0,-0.58564 0,-1.46411 -0.87702,-2.63539 -0.29233,-0.87847 -1.75404,-2.34258 -1.75404,-3.51386 0,-2.6354 0,-2.6354 -1.16935,-2.6354 -9.64716,1.46411 -10.23185,1.46411 -13.44757,-0.58564 -2.92339,-1.75693 -3.50804,-2.92821 -3.50804,-5.27079 -0.58469,-3.22103 4.67739,-6.73489 11.40119,-9.37029 4.38507,-1.17128 4.38507,-1.17128 4.38507,-3.51385 0.58469,-1.1713 0,-3.22105 -0.58466,-4.97798 -1.75404,-2.92821 -3.21575,-9.66311 -3.21575,-16.98365 0,-4.97796 0,-4.97796 2.04637,-6.73489 2.33873,-2.34258 6.7238,-4.97797 11.40122,-6.14925 2.04637,0 5.55443,-1.75694 9.35483,-2.92822 9.0625,-4.39232 17.54031,-4.97797 24.84878,-2.04975 4.96975,2.63539 6.13911,4.39232 10.23185,12.88415 1.46169,2.63539 2.63105,4.97796 3.8004,7.32054 2.33871,0 4.96976,0 7.30847,0 6.13911,0 7.30846,0 9.06249,1.17128 3.21573,2.04975 4.38508,4.39233 4.96976,7.32054 0,3.22104 -1.75403,7.32054 -3.21573,9.37029 -1.16935,1.17129 -1.75403,5.85643 -1.16935,7.32054 0.58467,0 1.16935,2.34257 1.16935,4.09951 0.58468,3.80668 0,4.39232 -3.50806,7.32053 -1.16935,0.58565 -1.75403,1.17129 -1.75403,4.39233 0,2.92821 -0.58468,4.68514 -2.63105,8.49182 -2.33871,4.39233 -2.33871,5.56361 -2.33871,9.66311 0.58468,8.49183 2.04637,7.61336 8.47782,11.12723 3.8004,3.51385 9.0625,6.73489 15.78628,9.07746 7.89315,2.92822 14.03226,4.39233 19.00201,4.97797 7.30847,0 10.81653,2.34257 16.37096,13.46979 3.21573,5.85643 4.38508,9.07747 5.55444,15.81236 1.16935,4.68515 2.92338,11.42005 4.09274,15.22673 0.87701,3.51386 2.04637,9.07747 3.21572,12.88415 0.58468,2.92821 2.33871,9.66311 3.50806,13.17697 3.21573,7.90618 4.38508,12.88415 4.96976,17.86211 0,1.17129 1.16935,3.51386 2.33871,4.68515 3.8004,4.97797 4.38507,6.73489 4.38507,20.20469 0,10.54157 0,12.88414 -1.16935,14.05543 -1.16935,2.34258 -7.89314,7.90618 -11.10887,9.66311 -4.09273,2.04975 -11.4012,12.29851 -11.4012,16.69082 -0.58468,1.75694 -4.96976,6.7349 -9.93951,9.07748 -2.33871,1.17129 -4.67742,2.92823 -5.84677,3.51384 -1.4617,1.46413 -4.38508,2.63542 -6.72379,3.22107 -3.8004,1.7569 -4.38508,1.7569 -5.55443,4.09948 -0.58468,1.46413 -1.16936,2.04978 -2.33871,2.63538 -1.46169,0.58565 -2.04637,0.58565 -2.04637,4.68517 0,2.63538 0,10.54158 -0.58468,17.86213 -0.58467,20.20467 -0.58467,36.60267 1.16936,43.33757 1.46169,6.7349 1.46169,9.66309 -1.16936,23.71855 -1.16935,7.32055 -1.16935,9.07748 -0.58467,14.05545 0.58467,9.07748 0.58467,14.05545 -0.58468,15.22674 -1.16936,1.7569 -1.16936,1.7569 -8.47782,1.17126 -9.64717,-0.58561 -25.7258,-0.58561 -28.64918,0 -1.75403,0 -4.38508,0 -5.55443,0 z"
       style="opacity:0.6;fill:#000000;fill-opacity:1;fill-rule:evenodd;stroke:none"
       inkscape:connector-curvature="0"
       inkscape:export-filename="G:\apmeneel\Documents\Board Games\Masters of the Heist\decks\svg\crew\png\veteran.png"
       inkscape:export-xdpi="65.459999"
       inkscape:export-ydpi="65.459999" />
  </g>
</svg>
