<?xml version="1.0" encoding="UTF-8" standalone="no"?>
<svg
   xmlns:dc="http://purl.org/dc/elements/1.1/"
   xmlns:cc="http://creativecommons.org/ns#"
   xmlns:rdf="http://www.w3.org/1999/02/22-rdf-syntax-ns#"
   xmlns:svg="http://www.w3.org/2000/svg"
   xmlns="http://www.w3.org/2000/svg"
   xmlns:sodipodi="http://sodipodi.sourceforge.net/DTD/sodipodi-0.dtd"
   xmlns:inkscape="http://www.inkscape.org/namespaces/inkscape"
   sodipodi:docname="street urchin.svg"
   inkscape:version="1.0 (4035a4fb49, 2020-05-01)"
   version="1.1"
   id="svg2"
   viewBox="0 0 312.5 500"
   height="500"
   width="312.5">
  <defs
     id="defs4" />
  <sodipodi:namedview
     inkscape:document-rotation="0"
     inkscape:guide-bbox="true"
     showguides="true"
     inkscape:window-maximized="1"
     inkscape:window-y="-8"
     inkscape:window-x="-8"
     inkscape:window-height="1017"
     inkscape:window-width="1920"
     units="px"
     showgrid="false"
     inkscape:current-layer="layer1"
     inkscape:document-units="px"
     inkscape:cy="639.72939"
     inkscape:cx="337.76877"
     inkscape:zoom="0.98994949"
     inkscape:pageshadow="2"
     inkscape:pageopacity="0.0"
     borderopacity="1.0"
     bordercolor="#666666"
     pagecolor="#ffffff"
     id="base" />
  <metadata
     id="metadata7">
    <rdf:RDF>
      <cc:Work
         rdf:about="">
        <dc:format>image/svg+xml</dc:format>
        <dc:type
           rdf:resource="http://purl.org/dc/dcmitype/StillImage" />
        <dc:title></dc:title>
      </cc:Work>
    </rdf:RDF>
  </metadata>
  <g
     transform="translate(0,72.637839)"
     id="layer1"
     inkscape:groupmode="layer"
     inkscape:label="Layer 1">
    <path
       inkscape:export-ydpi="65.459999"
       inkscape:export-xdpi="65.459999"
       inkscape:export-filename="G:\apmeneel\Documents\Board Games\Masters of the Heist\decks\svg\crew\png\veteran.png"
       inkscape:connector-curvature="0"
       style="opacity:1;fill:#000000;fill-opacity:1;fill-rule:evenodd;stroke:none;stroke-width:1.16542"
       d="m 142.0749,411.80523 c -2.04419,-0.68248 -4.76978,-1.36501 -6.47326,-2.04752 -1.36278,-0.68253 -4.08837,-1.36505 -6.13255,-2.04758 -2.38488,-0.68252 -6.47326,-2.38881 -10.90233,-3.75386 -3.40697,-1.36504 -9.19883,-3.41262 -11.92441,-4.09513 -2.04419,-0.68253 -5.79185,-2.04758 -7.154638,-3.07134 -4.088379,-2.04758 -13.287212,-8.53153 -13.96861,-9.21404 0,-0.68253 0,-2.04758 0,-3.41262 0.681398,-2.04753 0,-3.41258 -2.384895,-7.849 -2.04416,-5.11891 -2.72557,-5.80143 -2.04416,-7.16648 0.681375,-0.68252 0.681375,-1.36504 0.681375,-2.04757 -0.681375,-0.68252 -0.681375,-2.73009 -0.681375,-4.43637 0,-0.68253 0,-4.09515 0,-6.14268 0,-3.75389 -0.68141,-5.80142 -3.40698,-11.60285 -1.703508,-3.41262 -3.747668,-8.53153 -3.747668,-9.89657 0,-2.04758 -1.362785,-4.09511 -2.044196,-4.77762 -0.68141,-1.70633 -1.362785,-3.07138 -1.362785,-8.53153 0,-6.48394 -1.362785,-11.60285 -4.429078,-19.45185 -0.68141,-3.41258 -1.362785,-6.14267 -1.362785,-13.99166 0,-12.96791 -1.362773,-15.698 -4.08839,-16.38053 -3.066251,0 -3.747673,-3.75386 -4.429036,-12.96785 -0.681422,-3.41262 -1.362785,-8.53153 -2.044195,-10.5791 -1.362785,-5.80142 -1.362785,-7.84898 0.68141,-11.26159 1.362785,-3.75386 2.044148,-5.11891 2.044148,-9.21403 0,-2.38882 -0.681363,-2.38882 -2.044148,-2.38882 -2.044195,0 -2.044195,-0.68252 -0.68141,-3.4126 0.68141,-2.04758 0.68141,-2.73009 0,-5.11892 -1.362785,-2.04756 -1.362785,-2.73008 0.68141,-4.77764 0.681363,-1.36505 1.362785,-2.04756 0.681363,-3.75387 -0.681363,-0.68252 -0.681363,-1.36504 0,-2.73008 0.681422,-1.36504 2.044207,-3.41261 3.406997,-5.1189 0,-1.36505 1.022097,-2.04756 1.703461,-3.41261 -0.681364,0 -1.703461,-0.68252 -2.384888,-1.36505 -1.362785,-1.36503 -2.044148,-2.04756 -1.362785,-3.75385 0,-0.68253 1.02211,-2.38882 1.362785,-3.07135 0.681427,-2.04757 0,-5.11891 -1.022051,-8.87277 -1.022097,-2.73008 2.725575,-4.09513 4.769771,-5.80143 0.681363,-1.36504 1.362785,-5.46017 2.725558,-9.89655 1.362785,-12.62664 2.044195,-15.69798 4.429078,-18.42806 1.362785,-2.04756 2.04416,-3.41261 2.04416,-8.53152 0.68141,-3.4126 1.362821,-7.16647 1.362821,-7.16647 0,-0.68251 0.681375,-3.41259 0.681375,-6.48395 -0.681375,-6.14269 2.044195,-17.06302 5.110453,-20.47562 0.68141,-1.36504 2.044195,-4.095123 3.40698,-6.483945 2.044195,-4.095126 9.198845,-9.214029 16.353493,-11.944109 2.725585,-1.365046 5.110465,-2.730092 6.473245,-4.436397 2.72559,-3.412598 4.08837,-6.825207 3.40698,-8.531512 -0.68139,-5.460161 3.40697,-10.920333 2.04419,-13.309155 -1.3628,-0.682517 -7.49535,-0.682517 -8.51743,-2.047563 -0.6814,-3.071339 -1.3628,-3.753856 -4.088384,-5.118903 C 94.036548,49.386653 95.058634,47.680349 93.01445,39.148837 92.333052,36.418756 89.948168,31.982371 89.607469,28.911032 89.266781,25.498423 86.2005,23.109601 86.2005,23.109601 c 0,-0.682517 0,-1.706305 -1.022098,-3.071339 -0.340687,-1.023787 -2.044195,-2.730092 -2.044195,-4.095127 0,-3.07135 0,-3.07135 -1.362785,-3.07135 C 70.528418,14.578089 69.847008,14.578089 66.09934,12.189268 62.69236,10.141704 62.010997,8.7766699 62.010997,6.0465778 61.329587,2.2927215 67.462126,-1.802405 75.298184,-4.8737558 c 5.110453,-1.3650344 5.110453,-1.3650344 5.110453,-4.0951148 0.68141,-1.3650574 0,-3.7538794 -0.681375,-5.8014424 -2.044195,-3.412598 -3.747703,-11.261592 -3.747703,-19.793104 0,-5.801419 0,-5.801419 2.384883,-7.848983 2.725605,-2.730092 7.836058,-5.801431 13.287223,-7.166466 2.384883,0 6.47325,-2.047575 10.902315,-3.412609 10.56163,-5.118902 20.44185,-5.801431 28.95929,-2.388822 5.79185,3.071339 7.15465,5.118903 11.92442,15.015461 1.70348,3.071339 3.06628,5.801419 4.42906,8.531511 2.72559,0 5.79187,0 8.51745,0 7.15465,0 8.51743,0 10.56162,1.365035 3.74767,2.388822 5.11046,5.118914 5.79186,8.531511 0,3.753868 -2.04419,8.531512 -3.74768,10.920333 -1.36279,1.3650465 -2.04418,6.8252074 -1.36279,8.5315121 0.68139,0 1.36279,2.73008047 1.36279,4.7776554 0.6814,4.4363851 0,5.1189023 -4.08837,8.5314995 -1.36278,0.682529 -2.04418,1.365047 -2.04418,5.118914 0,3.412598 -0.6814,5.460161 -3.06628,9.896547 -2.72559,5.118913 -2.72559,6.483948 -2.72559,11.261592 0.6814,9.896557 2.38489,8.87277 9.88024,12.967908 4.42906,4.095115 10.56162,7.848983 18.39766,10.579063 9.19884,3.41261 16.35349,5.118914 22.14534,5.801431 8.51745,0 12.60581,2.730081 19.07906,15.697978 3.74768,6.825207 5.11047,10.579075 6.47326,18.428056 1.36279,5.46017 3.40697,13.30917 4.76977,17.74555 1.02209,4.09513 2.38488,10.57908 3.74767,15.01546 0.6814,3.4126 2.72558,11.2616 4.08837,15.35672 3.74767,9.21403 5.11046,15.01546 5.79186,20.81688 0,1.36505 1.36278,4.09513 2.72558,5.46017 4.42907,5.80144 5.11045,7.84899 5.11045,23.54698 0,12.28536 0,15.01544 -1.36278,16.38049 -1.36279,2.73009 -9.19883,9.21403 -12.94651,11.26159 -4.76976,2.38882 -13.2872,14.33295 -13.2872,19.45184 -0.6814,2.04757 -5.79186,7.84899 -11.58372,10.57908 -2.72558,1.36505 -5.45116,3.41262 -6.81395,4.09511 -1.70349,1.70632 -5.11046,3.07137 -7.83604,3.7539 -4.42907,2.04753 -5.11047,2.04753 -6.47325,4.77762 -0.6814,1.70633 -1.3628,2.38886 -2.72558,3.07133 -1.70349,0.68253 -2.38489,0.68253 -2.38489,5.46019 0,3.07133 0,12.28538 -0.68139,20.81691 -0.68139,23.54694 -0.68139,42.65752 1.36279,50.50651 1.70349,7.849 1.70349,11.26157 -1.36279,27.6421 -1.36279,8.53152 -1.36279,10.57909 -0.68139,16.38052 0.68139,10.57909 0.68139,16.38052 -0.6814,17.74556 -1.3628,2.04753 -1.3628,2.04753 -9.88023,1.36501 -11.24302,-0.68248 -29.98139,-0.68248 -33.38836,0 -2.04418,0 -5.11046,0 -6.47325,0 z"
       id="path2991" />
  </g>
</svg>
