<?xml version="1.0" encoding="UTF-8" standalone="no"?>
<!-- Created with Inkscape (http://www.inkscape.org/) -->

<svg
   xmlns:dc="http://purl.org/dc/elements/1.1/"
   xmlns:cc="http://creativecommons.org/ns#"
   xmlns:rdf="http://www.w3.org/1999/02/22-rdf-syntax-ns#"
   xmlns:svg="http://www.w3.org/2000/svg"
   xmlns="http://www.w3.org/2000/svg"
   xmlns:sodipodi="http://sodipodi.sourceforge.net/DTD/sodipodi-0.dtd"
   xmlns:inkscape="http://www.inkscape.org/namespaces/inkscape"
   width="825"
   height="1125"
   viewBox="0 0 825.00001 1125"
   id="svg2"
   version="1.1"
   inkscape:version="0.91 r13725"
   sodipodi:docname="thug.svg">
  <defs
     id="defs4" />
  <sodipodi:namedview
     id="base"
     pagecolor="#ffffff"
     bordercolor="#666666"
     borderopacity="1.0"
     inkscape:pageopacity="0.0"
     inkscape:pageshadow="2"
     inkscape:zoom="0.7"
     inkscape:cx="-96.436096"
     inkscape:cy="426.64121"
     inkscape:document-units="px"
     inkscape:current-layer="layer1"
     showgrid="false"
     units="px"
     inkscape:window-width="1920"
     inkscape:window-height="1017"
     inkscape:window-x="-8"
     inkscape:window-y="-8"
     inkscape:window-maximized="1"
     showguides="true"
     inkscape:guide-bbox="true">
    <sodipodi:guide
       position="57.142858,260"
       orientation="0,1"
       id="guide4689"
       inkscape:label=""
       inkscape:color="rgb(0,0,255)" />
    <sodipodi:guide
       position="197.14286,760"
       orientation="0,1"
       id="guide4691"
       inkscape:label=""
       inkscape:color="rgb(0,0,255)" />
    <sodipodi:guide
       position="75.000001,545.71429"
       orientation="1,0"
       id="guide4699"
       inkscape:label=""
       inkscape:color="rgb(0,0,255)" />
  </sodipodi:namedview>
  <metadata
     id="metadata7">
    <rdf:RDF>
      <cc:Work
         rdf:about="">
        <dc:format>image/svg+xml</dc:format>
        <dc:type
           rdf:resource="http://purl.org/dc/dcmitype/StillImage" />
        <dc:title />
      </cc:Work>
    </rdf:RDF>
  </metadata>
  <g
     inkscape:label="Layer 1"
     inkscape:groupmode="layer"
     id="layer1"
     transform="translate(0,72.637839)">
    <path
       inkscape:connector-curvature="0"
       id="path3087"
       d="m 202.08281,806.92724 c -1.94193,-1.52773 -7.56188,-1.26175 -2.46447,-14.73423 3.3345,-8.8131 0.77849,-9.40719 1.02795,-17.12388 0.0637,-1.96974 0.29583,-7.90769 0.26411,-10.56417 -0.0909,-7.6165 -0.91767,-17.66458 -0.0867,-22.65471 0.70938,-4.25977 1.32417,-11.54806 1.36621,-16.19621 0.042,-4.64815 0.41619,-9.96777 0.83146,-11.82138 0.41529,-1.8536 0.64093,-9.79043 0.50143,-17.63737 -0.19616,-11.03491 -0.55733,-14.95721 -1.59422,-17.31296 -2.20089,-5.00027 -3.17835,-11.14605 -2.71044,-17.04186 0.33076,-4.16762 0.0776,-6.54724 -1.01444,-9.5349 -0.80037,-2.1897 -1.69058,-5.2253 -1.97826,-6.74578 -0.28767,-1.52048 -0.71172,-3.68169 -0.94231,-4.80268 -0.23059,-1.12099 -0.62127,-3.24675 -0.86817,-4.7239 -0.24689,-1.47715 -1.14937,-4.22867 -2.0055,-6.1145 -0.85612,-1.88583 -1.56466,-4.14418 -1.57451,-5.01855 -0.0132,-1.17451 -0.25669,-1.35098 -0.93206,-0.67561 -0.67537,0.67537 -0.43171,2.47486 0.93279,6.88901 1.71699,5.55442 1.84382,7.40902 1.80228,26.35653 -0.0245,11.20992 -0.39176,21.88048 -0.81598,23.71233 -0.42421,1.83187 -0.64656,6.05088 -0.49412,9.37558 0.15245,3.32471 0.23019,8.79645 0.17276,12.15942 -0.0574,3.36298 -0.13436,7.94886 -0.17095,10.19085 -0.07,4.2841 1.10888,16.49098 3.30666,34.24122 1.85492,14.98126 1.45298,28.0882 -1.0188,33.22215 -1.72985,3.59294 -2.88095,3.76518 -9.53433,1.42671 -6.01836,-2.11528 -6.87188,-2.06857 -12.10635,0.66255 -7.88266,4.11282 -16.20659,5.85959 -27.92303,5.85959 -8.24806,0 -9.39796,-0.17729 -10.73547,-1.65522 -1.17135,-1.29433 -1.33222,-2.12378 -0.7378,-3.80424 0.86916,-2.45722 3.71751,-4.24061 10.13572,-6.34611 5.57037,-1.82738 9.06926,-5.38431 8.8275,-8.97396 -0.0932,-1.38456 0.0829,-2.92579 0.39139,-3.42496 0.54123,-0.87574 2.72162,-11.61544 2.86526,-14.11307 0.17296,-3.00771 0.8732,-7.35246 1.29496,-8.03488 1.13372,-4.89729 -0.21105,2.01956 0.91861,-7.17416 1.02092,-6.68155 1.55085,-5.1021 1.2833,-11.84366 0.33845,-4.80583 0.53306,-11.16383 0.38834,-11.87711 -0.25585,-1.23266 -0.65365,-5.35959 -0.88399,-9.17096 -2.93216,-10.69198 -1.31813,-9.92726 -2.77682,-16.7705 -0.85305,-4.00394 -1.81603,-9.48111 -2.13997,-12.17149 -0.32393,-2.69038 -0.79292,-5.23904 -1.0422,-5.66368 -0.24927,-0.42464 -0.36467,-2.44243 -0.25644,-4.48397 0.10822,-2.04154 -0.17266,-5.36281 -0.62418,-7.3806 -0.45152,-2.01779 -1.06806,-6.05336 -1.37008,-8.96794 -0.30202,-2.91458 -0.69595,-5.55131 -0.87539,-5.85941 -0.17944,-0.30809 -0.50919,-3.24305 -0.73277,-6.52214 -1.02058,-14.96795 -2.01521,-23.35034 -3.15005,-26.54746 -0.67643,-1.90569 -0.971,-3.47656 -0.65459,-3.49082 0.31641,-0.0143 -0.13685,-0.56457 -1.00725,-1.2229 -0.8704,-0.65833 -1.14555,-1.19697 -0.61145,-1.19697 0.64338,0 0.97109,-1.65077 0.97109,-4.89161 l 0,-4.8916 -3.50565,0 c -3.91129,0 -5.46229,-1.07148 -5.46229,-3.77352 0,-0.99929 -0.57652,-2.3934 -1.28114,-3.09802 -0.70462,-0.70462 -0.88806,-1.28113 -0.40763,-1.28113 0.49174,0 0.8735,-1.60336 0.8735,-3.66871 0,-2.25168 -0.36737,-3.6687 -0.95115,-3.6687 -0.52313,0 -0.71947,-0.23167 -0.43631,-0.51482 0.28315,-0.28316 0.0801,-1.29205 -0.45134,-2.24199 -2.02543,-3.62071 -3.1398,-7.71709 -4.35109,-15.99434 -1.39715,-9.54722 -1.3699,-9.25095 -1.16199,-12.63664 0.0826,-1.34519 -0.049,-5.35447 -0.29238,-8.90951 l -0.4426,-6.4637 3.08638,-1.38181 3.08637,-1.38182 -0.29011,-8.45982 c -0.17426,-4.70905 4.97781,-20.961 -3.09498,-19.12364 -11.5155,-0.46145 -21.26195,-2.73432 -24.91833,-5.81096 -3.927906,-3.30512 -7.284729,-10.75206 -7.284729,-16.16079 0,-2.82929 -0.308913,-4.36442 -0.815267,-4.05147 0.861526,-3.66539 4.328499,-11.41147 5.087476,-13.45682 0.35164,-1.11829 1.95709,-5.8854 3.56766,-10.59357 1.61058,-4.70817 3.20724,-10.58686 3.54813,-13.06377 0.34089,-2.4769 1.35838,-5.96217 2.26108,-7.74503 0.90272,-1.78287 2.64502,-8.37776 3.87179,-14.65532 4.46285,-22.83701 5.09488,-23.79224 20.79669,-31.43142 4.94538,-2.40601 16.55868,-9.06807 21.19695,-12.15982 1.12099,-0.74722 2.7107,-1.60915 3.53268,-1.9154 1.85861,-1.39657 -0.79953,-7.9697 -1.3669,-9.43126 -0.48266,-1.27823 -1.69932,-0.96377 -2.38018,-3.6687 -3.97636,-9.42462 -2.39323,-13.26829 -5.75749,-20.11102 -0.2454,-1.37004 -0.46753,-0.14842 -2.58842,0.30918 -10.0169,2.16123 -17.0493,1.28107 -16.56569,-2.07332 0.2904,-2.0143 1.44334,-2.41263 11.48766,-3.96873 5.18121,-0.80269 6.26378,-1.21997 5.94094,-2.28997 -0.21713,-0.71963 -0.96844,-5.16055 -1.66957,-9.86872 -0.70115,-4.70817 -1.69182,-10.16312 -2.20152,-12.12212 -0.83354,-3.20376 -0.76989,-3.65452 0.63311,-4.48397 3.88529,-2.29698 23.60237,-8.4727 29.09098,-9.11177 2.34533,-0.27309 6.20215,-1.07246 8.57069,-1.77638 5.16826,-1.53599 4.64529,-2.0277 10.64427,10.00804 5.2937,10.62077 5.4098,10.71273 11.402,9.0314 6.34708,-1.7809 12.8414,-1.7764 13.52666,0.009 1.13098,2.94729 -4.48545,8.11257 -11.4913,10.56824 -2.32245,0.81407 -4.06412,1.7366 -3.87038,2.05008 0.19375,0.31347 0.39847,2.57454 0.45495,5.02457 -0.009,7.63393 -2.45765,13.67321 -3.58643,21.5004 0.65434,0.26756 -0.49595,0.39075 -0.63459,0.75028 -0.60662,1.57309 0.0377,4.88369 0.0377,5.23885 0,1.15702 5.59487,6.25334 9.37557,8.54012 1.79359,1.08487 7.48008,3.13256 12.63664,4.55043 5.15657,1.41788 10.10932,2.86306 11.00611,3.21153 0.8968,0.34847 5.93869,2.18187 11.20422,4.07423 5.26553,1.89235 9.4037,3.7157 9.19593,4.05187 -0.20777,0.33619 1.05126,4.42429 2.79785,9.08468 3.55677,9.49047 10.56612,28.99831 20.03472,55.75895 3.4904,9.86473 7.02249,18.69326 7.8491,19.61896 1.82691,2.04589 2.01991,8.13807 0.38201,12.05812 -2.58938,6.19726 -12.27545,14.18856 -21.77054,17.96136 -2.94976,1.17206 -5.75375,2.13103 -6.23109,2.13103 -0.47734,0 -1.06141,0.50428 -1.29792,1.12061 -0.23651,0.61633 -2.13148,1.37575 -4.21105,1.68761 -4.33006,0.64933 -5.19021,1.90464 -3.29109,4.80305 1.07299,1.6376 1.19149,2.82082 0.60542,6.04528 -0.40078,2.20503 -0.46221,4.72951 -0.13651,5.60994 0.32569,0.88044 0.63549,5.9857 0.68842,11.34502 0.0529,5.35932 0.22669,19.28285 0.38612,30.94117 0.29864,21.83766 -0.36154,28.24892 -3.14691,30.56057 -0.62287,0.51694 -1.36046,1.97784 -1.6391,3.24645 -0.30487,1.38805 -1.17954,2.48253 -2.19646,2.74847 -1.1835,0.30949 -1.53163,0.85422 -1.16183,1.81791 1.21978,3.1787 6.19891,24.27329 5.81908,24.65311 -0.22787,0.22788 -0.0648,0.8354 0.36229,1.35006 0.83081,1.00107 1.75652,4.49546 15.66607,59.13643 20.85263,81.9156 20.05132,78.53214 19.0995,80.64672 -0.67321,1.49562 -0.64263,2.05531 0.12629,2.31162 1.35423,0.4514 0.43695,1.82946 -1.21774,1.82946 -0.72086,0 -1.06927,-0.2414 -0.77422,-0.53644 0.29503,-0.29505 0.21382,-0.93707 -0.18048,-1.42672 -0.3943,-0.48966 -6.10352,-20.88471 -12.68716,-45.32235 -6.58365,-24.43763 -13.75514,-51.03573 -15.93665,-59.10688 -2.18152,-8.07114 -4.37735,-16.25774 -4.87964,-18.19242 -1.15803,-4.46054 -2.79792,-4.06917 -3.04849,0.72754 -0.88069,16.85909 -3.03938,41.20662 -3.69055,41.62521 -0.46452,0.29861 -0.87526,6.16204 -0.97088,13.85954 -0.27255,21.94135 -0.39038,24.07191 -1.25641,22.71755 -0.52847,-0.82648 -0.63273,0.0985 -0.3216,2.85343 0.64019,5.66873 -2.23225,33.77676 -3.08142,37.99252 -1.0429,4.46131 -1.00504,9.59278 -1.2509,10.47845 -2.18422,8.08528 -1.7336,1.9746 -2.71172,9.41301 -0.0509,0 -0.78526,1.04505 -0.38315,2.1939 0.95613,2.40663 -0.77423,2.56828 -0.84911,4.93969 1.35623,4.37582 1.39683,5.6244 0.2262,6.95834 -0.67484,0.76899 -1.4532,2.14384 -1.72971,3.05522 -0.27651,0.9114 -2.53366,3.66293 -5.0159,6.11451 l -4.51317,4.45743 -6.69808,0.26323 c -4.66657,0.1834 -7.11389,-0.0639 -8.06901,-0.81526 z"
       style="fill:#000000;fill-opacity:1;opacity:0.6"
       sodipodi:nodetypes="csssscssssssssscssssssssssssssssssccccccscsssssscssscsssssscsssccccccssccssssssccccssssssssssssscccssssssssssssssssscssssssccssssccsssssssscccccssscscc"
       inkscape:export-xdpi="112.5"
       inkscape:export-ydpi="112.5" />
  </g>
</svg>
