<?xml version="1.0" encoding="UTF-8" standalone="no"?>
<!-- Created with Inkscape (http://www.inkscape.org/) -->

<svg
   xmlns:dc="http://purl.org/dc/elements/1.1/"
   xmlns:cc="http://creativecommons.org/ns#"
   xmlns:rdf="http://www.w3.org/1999/02/22-rdf-syntax-ns#"
   xmlns:svg="http://www.w3.org/2000/svg"
   xmlns="http://www.w3.org/2000/svg"
   xmlns:sodipodi="http://sodipodi.sourceforge.net/DTD/sodipodi-0.dtd"
   xmlns:inkscape="http://www.inkscape.org/namespaces/inkscape"
   width="825"
   height="1125"
   viewBox="0 0 825.00001 1125"
   id="svg2"
   version="1.1"
   inkscape:version="0.91 r13725"
   sodipodi:docname="angry locksmith.svg">
  <defs
     id="defs4" />
  <sodipodi:namedview
     id="base"
     pagecolor="#ffffff"
     bordercolor="#666666"
     borderopacity="1.0"
     inkscape:pageopacity="0.0"
     inkscape:pageshadow="2"
     inkscape:zoom="0.7"
     inkscape:cx="403.30386"
     inkscape:cy="489.28117"
     inkscape:document-units="px"
     inkscape:current-layer="layer1"
     showgrid="false"
     units="px"
     inkscape:window-width="1920"
     inkscape:window-height="1017"
     inkscape:window-x="-8"
     inkscape:window-y="-8"
     inkscape:window-maximized="1"
     showguides="true"
     inkscape:guide-bbox="true">
    <sodipodi:guide
       position="235.71429,720"
       orientation="0,1"
       id="guide4708" />
    <sodipodi:guide
       position="265.71429,300"
       orientation="0,1"
       id="guide4710" />
    <sodipodi:guide
       position="75.000001,630"
       orientation="1,0"
       id="guide5580"
       inkscape:label=""
       inkscape:color="rgb(0,0,255)" />
  </sodipodi:namedview>
  <metadata
     id="metadata7">
    <rdf:RDF>
      <cc:Work
         rdf:about="">
        <dc:format>image/svg+xml</dc:format>
        <dc:type
           rdf:resource="http://purl.org/dc/dcmitype/StillImage" />
        <dc:title />
      </cc:Work>
    </rdf:RDF>
  </metadata>
  <g
     inkscape:label="Layer 1"
     inkscape:groupmode="layer"
     id="layer1"
     transform="translate(0,72.637839)">
    <path
       sodipodi:nodetypes="cccsssscsssssccsssssssssscssscccsssssssssssscssssssssssssssssscssssssssssssssssssscscsssscsssssssccczzszzsssssscccsscccsscsccscscssssscs"
       inkscape:connector-curvature="0"
       id="path4163"
       d="m 172.29606,288.0937 c -0.8224,0.0107 -1.684,0.0393 -2.59011,0.0811 -9.15005,0.15504 -21.01886,2.93218 -24.2965,13.5112 -0.79936,3.1849 -0.0352,15.96425 1.1108,18.5856 0.5438,1.24378 0.0499,1.78621 -1.75082,1.92185 -3.77976,0.28473 -8.22312,4.0986 -8.6184,7.39652 -0.37621,3.13875 3.01584,5.7196 10.01079,5.00186 3.62622,-0.37207 3.72089,1.33973 3.76178,3.26046 0.009,0.446 0.20695,1.40502 -0.724,1.04777 -3.22955,-1.2393 -2.07934,6.21546 2.254,11.60996 1.0588,1.31807 1.75847,1.99228 2.63431,2.01694 0.78078,0.022 1.12482,-0.93835 1.28283,-0.71289 0.87798,1.25275 0.88144,4.32448 0.95628,4.52852 1.62196,4.42262 5.31889,7.57994 5.01746,11.91474 -0.36698,2.7892 -3.26839,7.63533 -3.26839,7.63533 -7.1374,7.60263 -12.9282,11.23981 -24.28947,15.26025 -13.11597,4.64137 -19.74274,11.07071 -20.84599,20.22359 -0.29517,2.44893 -1.33542,6.36338 -2.31151,8.69949 -0.97609,2.33613 -1.77374,5.27885 -1.77374,6.53961 0,1.26075 -1.32252,5.08812 -2.93923,8.50554 -1.97605,4.17707 -2.75652,7.35679 -2.37851,9.701 0.71838,4.45467 -1.65283,17.07563 -4.090547,21.76812 -1.03185,1.98624 -1.87602,4.92477 -1.87602,6.52903 0,1.60425 -0.80268,4.13959 -1.78257,5.6351 -2.4482,3.73643 -1.14575,14.54399 2.11934,17.58588 2.527097,2.35437 5.260847,9.17166 5.287747,13.18677 0.008,1.40978 0.71581,2.53896 1.58862,2.53896 1.43639,0 1.97418,0.70431 3.01677,3.94952 0.19941,0.62063 1.3436,2.14401 2.54075,3.38529 1.19714,1.24128 3.87586,4.87612 5.95423,8.07709 l 3.77848,5.82024 0.16573,15.7945 c 0.0907,8.68722 -0.1827,16.35773 -0.60829,17.04636 -1.21847,1.97154 1.561,13.86478 4.06058,17.37254 2.18604,3.06774 2.19787,3.35545 0.34912,8.49671 -1.81167,5.03809 -1.80348,5.80176 0.13576,14.31521 1.12667,4.94625 2.00354,11.53292 1.9483,14.6361 -0.28057,15.7507 -2.67658,66.99165 -3.64094,77.86169 -0.60568,6.827 -1.12858,18.09182 -1.16017,25.03355 -0.0317,6.94174 -0.5619,13.95129 -1.17957,15.57587 -0.61765,1.62457 -1.62335,7.36919 -2.2357,12.76715 -0.99031,8.7299 -1.60845,10.51688 -5.59278,16.17004 -7.24677,10.28217 -7.53777,16.73256 -0.88335,19.62585 5.10037,2.21769 8.08577,2.0364 13.54644,-0.81987 2.61298,-1.36675 5.13259,-2.38234 5.59807,-2.25686 0.46548,0.12549 0.84632,-0.43259 0.84632,-1.24127 0,-2.64514 6.89845,-10.94226 9.09798,-10.94226 3.17755,0 5.98691,-4.9762 5.15551,-9.13325 -0.38108,-1.90542 -0.18058,-4.42182 0.44608,-5.59277 0.62668,-1.17095 1.38841,-5.57327 1.69265,-9.78205 0.30426,-4.20878 1.05734,-10.95281 1.67325,-14.98699 1.25158,-8.19774 1.84173,-14.5221 2.89513,-31.03185 0.39599,-6.20637 1.03153,-11.7921 1.41231,-12.41273 0.75553,-1.23143 1.88061,-8.55045 3.46815,-22.56862 0.89897,-7.93802 1.92619,-11.96109 6.92045,-27.08233 0.61495,-1.86192 1.90562,-10.49441 2.86867,-19.1833 0.96304,-8.68891 2.20795,-17.3214 2.76642,-19.18331 0.55849,-1.86192 1.72637,-7.51106 2.59541,-12.5538 0.86902,-5.04274 1.93901,-9.7491 2.37674,-10.45738 1.44685,-2.34106 2.39467,-0.37534 2.65006,5.49404 0.13858,3.18502 1.12094,7.41444 2.18279,9.39771 4.31526,8.05999 7.59189,20.11887 8.79648,32.36833 0.39604,4.02756 1.44458,10.10103 2.32915,13.49707 0.8846,3.39613 1.31214,7.10821 0.95035,8.24819 -0.3618,1.1399 -0.19221,2.68332 0.37554,3.42936 1.04428,1.37216 2.64907,8.18463 4.83991,20.53915 0.66036,3.7238 1.96155,9.9514 2.89161,13.83916 0.93009,3.88785 1.39397,7.54875 1.03146,8.13527 -0.36253,0.58658 -0.18271,1.976 0.39847,3.08738 1.94908,3.72715 3.4135,10.97899 4.04648,20.0384 0.59613,8.53228 1.15586,12.45416 4.03061,28.24777 0.67782,3.72381 1.84069,10.79745 2.58481,15.71867 1.25852,8.32332 1.58522,9.04162 4.68651,10.30936 1.83367,0.74944 3.90588,1.14296 4.60541,0.87448 1.78246,-0.68402 4.04448,2.35887 4.91396,6.61016 1.00899,4.93341 9.39347,9.25232 18.09544,9.32012 5.62374,0.0433 6.20383,-0.19039 6.86755,-2.7735 1.03825,-4.04069 -1.47814,-11.6297 -5.56987,-16.79592 -7.40794,-9.35334 -9.90471,-20.76683 -11.38479,-52.03834 -0.51406,-10.86112 -1.22437,-22.03257 -1.57805,-24.82547 -1.59941,-12.62968 -3.34324,-39.60937 -2.99034,-46.26566 0.2139,-4.0341 0.36398,-12.66659 0.33502,-19.1833 -0.0289,-6.51668 -0.0742,-16.92646 -0.10056,-23.13283 -0.0265,-6.20637 0.24673,-12.80768 0.60653,-14.6696 1.28808,-6.66576 1.34461,-24.6382 0.0847,-26.99241 -0.69034,-1.28988 -1.38028,-7.14983 -1.53397,-13.02278 -0.26873,-10.27027 -0.15499,-10.83546 2.98506,-14.80009 5.10582,-6.44661 12.8523,-13.83259 16.71841,-15.94084 3.34122,-1.82205 3.52456,-2.2759 3.52456,-8.68009 0,-3.75299 0.55982,-7.10196 1.25891,-7.53405 0.7521,-0.46485 1.04238,-2.68612 0.72291,-5.52048 -0.33715,-2.99119 0.0313,-5.51732 0.99794,-6.83935 1.98323,-2.71221 1.9352,-7.02705 -0.19922,-17.46246 -0.95209,-4.65479 -2.48285,-13.54118 -3.40117,-19.74754 -0.91834,-6.20638 -2.36638,-15.34666 -3.21779,-20.31175 -0.85142,-4.9651 -1.56854,-10.10117 -1.59391,-11.41302 -0.0656,-3.39063 -8.81564,-20.72292 -12.31046,-24.38468 -1.6131,-1.69017 -5.51846,-3.9101 -8.67657,-4.93335 -6.34161,-0.22831 -14.69556,-8.72531 -18.74781,-10.05891 -1.25783,-0.39922 -4.86245,-3.82054 -8.01008,-7.6028 0,0 -4.12946,-4.14551 -4.92535,-6.76238 -0.79587,-2.61687 -0.26817,-5.20579 -0.0256,-7.53871 0.24253,-2.33292 2.95234,-10.59426 3.46481,-11.47161 0,0 -0.31402,-0.80541 1.90466,-0.80902 2.21868,-0.004 1.19797,-16.52025 -1.35746,-15.41291 -2.55543,1.10735 -1.89107,0.033 -1.84467,-0.57945 0.07,-0.92295 1.42489,-2.63178 2.02372,-2.96161 0.99616,-0.54871 3.03133,-1.6238 5.07794,-3.60747 2.70366,-2.6205 3.72204,-2.80192 3.72204,-5.46231 0,-4.34381 -1.1639,-5.23495 -7.87432,-6.02299 -4.41783,-0.51882 -5.18544,-1.01838 -6.08999,-3.97772 -5.14707,-16.83931 -8.43232,-20.45646 -20.76842,-20.29058 z m 47.23009,182.26445 c 1.04797,0.35188 1.20359,1.00854 1.80373,1.63269 0.45389,0.47209 0.18803,1.16339 0.49897,1.93951 0.41839,1.04424 1.13355,2.83676 1.02616,3.95655 -0.10744,1.11981 0.55577,1.86903 -0.006,2.844 -0.34587,0.60086 -0.87408,1.10177 -1.13196,1.74553 -0.77385,2.04572 -0.36204,3.73982 -0.0494,5.43763 0.52982,1.10461 1.1689,2.18251 1.4017,3.38528 0.26038,1.34527 -0.0283,2.78745 -0.78461,3.93013 -0.75617,1.14267 -1.7614,1.97242 -3.10141,2.25861 -0.0949,-1.88124 -0.10127,-3.76741 -0.0176,-5.6492 0.0776,-1.74521 0.23176,-3.48809 0.2063,-5.23486 -0.0238,-1.63921 -0.20542,-3.27461 -0.19395,-4.91396 0.0123,-1.77858 0.25219,-3.5469 0.37555,-5.32126 0.13907,-2.00037 0.12987,-4.01168 -0.0282,-6.01065 z m -90.50539,7.2678 c -0.11372,4.61347 0,16.98464 0,16.98464 0,0 -1.93905,-0.34176 -2.50899,-3.70443 -0.56994,-3.36267 -1.65191,-3.64916 -0.96798,-5.81493 0.2806,-0.88858 0.82139,-3.18304 1.4882,-5.34018 0.56885,-1.84019 1.26045,-3.61148 1.62206,-3.98636 0.24765,-0.25678 0.39396,0.75532 0.36671,1.86126 z"
       style="opacity:0.6;fill-opacity:1" />
  </g>
</svg>
