<?xml version="1.0" encoding="UTF-8" standalone="no"?>
<svg
   xmlns:dc="http://purl.org/dc/elements/1.1/"
   xmlns:cc="http://creativecommons.org/ns#"
   xmlns:rdf="http://www.w3.org/1999/02/22-rdf-syntax-ns#"
   xmlns:svg="http://www.w3.org/2000/svg"
   xmlns="http://www.w3.org/2000/svg"
   xmlns:sodipodi="http://sodipodi.sourceforge.net/DTD/sodipodi-0.dtd"
   xmlns:inkscape="http://www.inkscape.org/namespaces/inkscape"
   width="312.5"
   height="500"
   viewBox="0 0 312.50001 500"
   id="svg2"
   version="1.1"
   inkscape:version="1.0 (4035a4fb49, 2020-05-01)"
   sodipodi:docname="angry-locksmith.svg">
  <defs
     id="defs4" />
  <sodipodi:namedview
     id="base"
     pagecolor="#ffffff"
     bordercolor="#666666"
     borderopacity="1.0"
     inkscape:pageopacity="0.0"
     inkscape:pageshadow="2"
     inkscape:zoom="2.8"
     inkscape:cx="317.42293"
     inkscape:cy="140.30956"
     inkscape:document-units="px"
     inkscape:current-layer="layer1"
     showgrid="false"
     units="px"
     inkscape:window-width="1920"
     inkscape:window-height="1017"
     inkscape:window-x="-8"
     inkscape:window-y="-8"
     inkscape:window-maximized="1"
     showguides="true"
     inkscape:guide-bbox="true"
     inkscape:document-rotation="0"
     fit-margin-top="0"
     fit-margin-left="0"
     fit-margin-right="0"
     fit-margin-bottom="0">
    <sodipodi:guide
       position="15.480825,442.28731"
       orientation="0,1"
       id="guide4708" />
    <sodipodi:guide
       position="44.052256,-61.998416"
       orientation="0,1"
       id="guide4710" />
    <sodipodi:guide
       position="-149.51918,306.57302"
       orientation="1,0"
       id="guide5580"
       inkscape:label=""
       inkscape:color="rgb(0,0,255)" />
  </sodipodi:namedview>
  <metadata
     id="metadata7">
    <rdf:RDF>
      <cc:Work
         rdf:about="">
        <dc:format>image/svg+xml</dc:format>
        <dc:type
           rdf:resource="http://purl.org/dc/dcmitype/StillImage" />
        <dc:title></dc:title>
      </cc:Work>
    </rdf:RDF>
  </metadata>
  <g
     inkscape:label="Layer 1"
     inkscape:groupmode="layer"
     id="layer1"
     transform="translate(-224.51917,-227.51846)">
    <path
       sodipodi:nodetypes="cccsssscsssssccsssssssssscssscccsssssssssssscssssssssssssssssscssssssssssssssssssscscsssscsssssssccczzszzsssssscccsscccsscsccscscssssscs"
       inkscape:connector-curvature="0"
       id="path4163"
       d="m 377.56729,231.23502 c -0.8079,0.0105 -1.65432,0.0386 -2.54445,0.0797 -8.98875,0.15231 -20.64833,2.88049 -23.86818,13.27301 -0.78527,3.12876 -0.0346,15.68282 1.09121,18.25796 0.53422,1.22185 0.049,1.75472 -1.71995,1.88797 -3.71313,0.27971 -8.07816,4.02635 -8.46647,7.26613 -0.36958,3.08342 2.96267,5.61877 9.83431,4.91368 3.5623,-0.36551 3.6553,1.31611 3.69547,3.20298 0.009,0.43814 0.2033,1.38026 -0.71124,1.0293 -3.17262,-1.21745 -2.04268,6.10589 2.21426,11.40529 1.04014,1.29484 1.72747,1.95716 2.58787,1.98139 0.76702,0.0216 1.105,-0.92181 1.26022,-0.70032 0.8625,1.23066 0.8659,4.24824 0.93942,4.44868 1.59337,4.34466 5.22513,7.44632 4.92901,11.7047 -0.36051,2.74003 -3.21077,7.50073 -3.21077,7.50073 -7.01158,7.4686 -12.70029,11.04166 -23.86128,14.99123 -12.88475,4.55955 -19.3947,10.87555 -20.4785,19.86707 -0.28996,2.40576 -1.31188,6.2512 -2.27076,8.54613 -0.95888,2.29495 -1.74247,5.18579 -1.74247,6.42432 0,1.23853 -1.29921,4.99843 -2.88741,8.3556 -1.94122,4.10344 -2.70793,7.2271 -2.33658,9.52999 0.70571,4.37613 -1.6237,16.7746 -4.01844,21.38437 -1.01366,1.95122 -1.84295,4.83795 -1.84295,6.41393 0,1.57597 -0.78853,4.06661 -1.75115,5.53576 -2.40504,3.67056 -1.12555,14.2876 2.08198,17.27586 2.48255,2.31287 5.16811,9.00998 5.19454,12.95431 0.008,1.38492 0.70319,2.4942 1.56061,2.4942 1.41107,0 1.93938,0.69189 2.96359,3.87989 0.19589,0.60969 1.31991,2.10622 2.49596,3.32561 1.17603,1.2194 3.80753,4.79016 5.84926,7.9347 l 3.71187,5.71764 0.16281,15.51606 c 0.0891,8.53408 -0.17948,16.06936 -0.59757,16.74585 -1.19699,1.93679 1.53348,13.62037 3.989,17.06629 2.1475,3.01366 2.15912,3.2963 0.34297,8.34692 -1.77974,4.94928 -1.77169,5.69948 0.13336,14.06285 1.10681,4.85905 1.96822,11.32961 1.91396,14.37808 -0.27563,15.47304 -2.6294,65.81067 -3.57676,76.48909 -0.595,6.70664 -1.10868,17.77288 -1.13972,24.59224 -0.0311,6.81936 -0.55199,13.70534 -1.15877,15.30128 -0.60676,1.59593 -1.59473,7.23928 -2.19629,12.54208 -0.97285,8.576 -1.58009,10.33148 -5.49419,15.88498 -7.11901,10.10091 -7.40488,16.43759 -0.86777,19.27987 5.01045,2.1786 7.94322,2.0005 13.30763,-0.80541 2.56692,-1.34266 5.04211,-2.34035 5.49938,-2.21708 0.45728,0.12328 0.8314,-0.42496 0.8314,-1.21939 0,-2.5985 6.77684,-10.74936 8.9376,-10.74936 3.12153,0 5.88136,-4.88847 5.06462,-8.97224 -0.37436,-1.87183 -0.1774,-4.34387 0.43822,-5.49417 0.61563,-1.15031 1.36393,-5.47502 1.66281,-9.60961 0.29889,-4.13458 1.0387,-10.75972 1.64375,-14.72279 1.22952,-8.05322 1.80926,-14.26609 2.84409,-30.48479 0.38901,-6.09696 1.01335,-11.58422 1.38742,-12.19391 0.74221,-1.20972 1.84745,-8.39972 3.40701,-22.17076 0.88312,-7.79809 1.89223,-11.75023 6.79845,-26.6049 0.60411,-1.8291 1.87202,-10.30941 2.8181,-18.84513 0.94606,-8.53573 2.16902,-17.01604 2.71765,-18.84513 0.54864,-1.82909 1.69593,-7.37865 2.54965,-12.33249 0.8537,-4.95384 1.90483,-9.57723 2.33484,-10.27303 1.42135,-2.29979 2.35246,-0.36872 2.60335,5.39719 0.13613,3.12887 1.10118,7.28373 2.14431,9.23204 4.23918,7.9179 7.45805,19.7642 8.64141,31.79771 0.38905,3.95656 1.41911,9.92297 2.28809,13.25914 0.869,3.33626 1.289,6.9829 0.93359,8.10278 -0.35542,1.11981 -0.18882,2.63602 0.36892,3.36891 1.02587,1.34797 2.60237,8.04034 4.75459,20.17707 0.64872,3.65815 1.92697,9.77596 2.84063,13.59519 0.9137,3.81931 1.3694,7.41567 1.01328,7.99185 -0.35614,0.57624 -0.17949,1.94117 0.39145,3.03296 1.91472,3.66144 3.35332,10.78544 3.97514,19.68514 0.58562,8.38187 1.13549,12.23461 3.95956,27.7498 0.66587,3.65816 1.80824,10.6071 2.53924,15.44157 1.23633,8.17659 1.55727,8.88222 4.60389,10.12762 1.80135,0.73622 3.83703,1.12281 4.52422,0.85906 1.75104,-0.67196 3.97319,2.31729 4.82734,6.49363 0.9912,4.84644 9.22787,9.08921 17.77644,9.15582 5.5246,0.0425 6.09446,-0.18704 6.74648,-2.72461 1.01995,-3.96946 -1.45208,-11.42468 -5.47168,-16.49983 -7.27735,-9.18845 -9.7301,-20.40073 -11.18409,-51.12096 -0.505,-10.66965 -1.20279,-21.64417 -1.55023,-24.38783 -1.57122,-12.40703 -3.2843,-38.9111 -2.93762,-45.45005 0.21012,-3.96299 0.35756,-12.4433 0.32911,-18.84512 -0.0284,-6.4018 -0.0729,-16.62807 -0.0988,-22.72503 -0.026,-6.09696 0.24238,-12.5819 0.59584,-14.41099 1.26537,-6.54825 1.32091,-24.20386 0.0832,-26.51657 -0.67817,-1.26714 -1.35595,-7.02379 -1.50693,-12.7932 -0.26399,-10.08922 -0.15226,-10.64445 2.93244,-14.53918 5.01581,-6.33297 12.62572,-13.58874 16.42368,-15.65983 3.28232,-1.78993 3.46243,-2.23578 3.46243,-8.52707 0,-3.68683 0.54995,-6.97676 1.23671,-7.40123 0.73884,-0.45666 1.02401,-2.63877 0.71017,-5.42316 -0.33121,-2.93846 0.0308,-5.42006 0.98035,-6.71878 1.94826,-2.6644 1.90108,-6.90317 -0.19571,-17.15462 -0.93531,-4.57273 -2.43908,-13.30247 -3.34121,-19.39941 -0.90215,-6.09697 -2.32467,-15.07612 -3.16107,-19.95368 -0.83641,-4.87757 -1.54089,-9.9231 -1.56581,-11.21183 -0.0644,-3.33085 -8.66023,-20.3576 -12.09344,-23.9548 -1.58466,-1.66038 -5.42118,-3.84117 -8.52361,-4.84638 -6.22982,-0.22429 -14.4365,-8.5715 -18.41731,-9.88159 -1.23566,-0.39218 -4.77673,-3.75319 -7.86887,-7.46877 0,0 -4.05667,-4.07243 -4.83852,-6.64317 -0.78184,-2.57073 -0.26345,-5.11401 -0.0251,-7.40581 0.23825,-2.29179 2.90029,-10.40749 3.40373,-11.26938 0,0 -0.30849,-0.79121 1.87108,-0.79476 2.17957,-0.004 1.17685,-16.22901 -1.33353,-15.14119 -2.51038,1.08782 -1.85773,0.0324 -1.81215,-0.56924 0.0688,-0.90668 1.39977,-2.58538 1.98804,-2.9094 0.9786,-0.53904 2.97789,-1.59517 4.98843,-3.54387 2.65599,-2.57431 3.65642,-2.75253 3.65642,-5.36602 0,-4.26723 -1.14338,-5.14266 -7.73551,-5.91681 -4.33994,-0.50968 -5.09402,-1.00043 -5.98263,-3.9076 -5.05633,-16.54245 -8.28366,-20.09584 -20.40229,-19.93288 z m 46.39748,179.05135 c 1.02949,0.34567 1.18237,0.99076 1.77193,1.6039 0.44589,0.46377 0.18472,1.14288 0.49017,1.90532 0.41102,1.02583 1.11357,2.78675 1.00807,3.8868 -0.10554,1.10007 0.54598,1.83608 -0.006,2.79387 -0.33977,0.59026 -0.85867,1.08234 -1.11201,1.71476 -0.7602,2.00965 -0.35565,3.67389 -0.0485,5.34177 0.52048,1.08513 1.14829,2.14403 1.37699,3.3256 0.25578,1.32155 -0.0278,2.73831 -0.77078,3.86084 -0.74284,1.12253 -1.73035,1.93765 -3.04674,2.2188 -0.0932,-1.84808 -0.0995,-3.701 -0.0173,-5.54961 0.0762,-1.71445 0.22768,-3.4266 0.20266,-5.14258 -0.0234,-1.61031 -0.20179,-3.21688 -0.19053,-4.82733 0.0121,-1.74723 0.24775,-3.48437 0.36893,-5.22745 0.13662,-1.96511 0.12758,-3.94096 -0.0277,-5.90469 z m -88.90989,7.13967 c -0.11172,4.53214 0,16.68522 0,16.68522 0,0 -1.90487,-0.33573 -2.46476,-3.63912 -0.55989,-3.30339 -1.62279,-3.58483 -0.95092,-5.71242 0.27566,-0.87292 0.80691,-3.12693 1.46197,-5.24604 0.55882,-1.80775 1.23823,-3.54781 1.59346,-3.91608 0.24329,-0.25226 0.38702,0.742 0.36025,1.82844 z"
       style="opacity:1;fill:#070707;fill-opacity:1;stroke-width:0.982371" />
  </g>
</svg>
