<?xml version="1.0" encoding="UTF-8" standalone="no"?>
<svg
   xmlns:dc="http://purl.org/dc/elements/1.1/"
   xmlns:cc="http://creativecommons.org/ns#"
   xmlns:rdf="http://www.w3.org/1999/02/22-rdf-syntax-ns#"
   xmlns:svg="http://www.w3.org/2000/svg"
   xmlns="http://www.w3.org/2000/svg"
   xmlns:sodipodi="http://sodipodi.sourceforge.net/DTD/sodipodi-0.dtd"
   xmlns:inkscape="http://www.inkscape.org/namespaces/inkscape"
   sodipodi:docname="script kiddie.svg"
   inkscape:version="1.0.1 (3bc2e813f5, 2020-09-07)"
   version="1.1"
   id="svg2"
   viewBox="0 0 312.50001 500"
   height="500"
   width="312.5">
  <defs
     id="defs4" />
  <sodipodi:namedview
     inkscape:document-rotation="0"
     inkscape:guide-bbox="true"
     showguides="true"
     inkscape:window-maximized="1"
     inkscape:window-y="-8"
     inkscape:window-x="-8"
     inkscape:window-height="1017"
     inkscape:window-width="1920"
     units="px"
     showgrid="false"
     inkscape:current-layer="layer1"
     inkscape:document-units="px"
     inkscape:cy="380.88808"
     inkscape:cx="94.399582"
     inkscape:zoom="0.9899495"
     inkscape:pageshadow="2"
     inkscape:pageopacity="0.0"
     borderopacity="1.0"
     bordercolor="#666666"
     pagecolor="#ffffff"
     id="base">
    <sodipodi:guide
       inkscape:color="rgb(0,0,255)"
       inkscape:label=""
       id="guide4139"
       orientation="0,1"
       position="-1008.5714,760" />
    <sodipodi:guide
       inkscape:color="rgb(0,0,255)"
       inkscape:label=""
       id="guide4141"
       orientation="0,1"
       position="-760.00001,260" />
    <sodipodi:guide
       inkscape:color="rgb(0,0,255)"
       inkscape:label=""
       id="guide4143"
       orientation="1,0"
       position="75.000001,517.14286" />
  </sodipodi:namedview>
  <metadata
     id="metadata7">
    <rdf:RDF>
      <cc:Work
         rdf:about="">
        <dc:format>image/svg+xml</dc:format>
        <dc:type
           rdf:resource="http://purl.org/dc/dcmitype/StillImage" />
        <dc:title />
      </cc:Work>
    </rdf:RDF>
  </metadata>
  <g
     transform="translate(0,72.637839)"
     id="layer1"
     inkscape:groupmode="layer"
     inkscape:label="Layer 1">
    <path
       style="fill:#000000;stroke-width:0.28573"
       d="m 196.6071,411.65524 c -4.72121,-0.78632 -5.49221,-1.06889 -12.29334,-4.50606 -5.9198,-2.99174 -7.8705,-3.49851 -8.7902,-4.06302 -0.40069,-0.05 -1.30566,-0.0908 -1.37088,-0.27837 -0.34422,0 -0.25115,2.388 0.19069,4.89264 l 0.18263,1.03528 -2.86786,0.36546 c -1.93463,0.24656 -4.52507,0.30917 -7.96053,0.19239 -4.51575,-0.15339 -5.42282,-0.27002 -8.0071,-1.02885 -5.75552,-1.69007 -5.65328,-1.51441 -5.6698,-9.74293 -0.006,-3.37877 0.0477,-6.26359 0.12121,-6.41073 0.0734,-0.14719 0.17638,-1.02218 0.22875,-1.94449 0.15321,-2.69778 0.97247,-5.50934 4.1283,-14.16782 0.63064,-1.73027 1.70057,-3.55169 2.74302,-4.66954 0.35742,-0.30403 0.50331,-0.82424 0.56488,-1.28941 0.27733,-0.98937 0.74655,-7.80708 0.3842,-10.81891 -0.63555,-5.2828 -0.64228,-4.9573 0.11835,-5.71794 0.65413,-0.65412 2.15272,-0.97868 2.15272,-0.46625 0,0.12758 0.27957,0.53194 0.62125,0.89867 0.58964,0.63294 0.63127,0.6393 0.81852,0.12539 0.10851,-0.29784 0.21792,-1.96259 0.24315,-3.69944 l 0.0459,-3.15796 -0.94023,0.10979 c -0.7118,0.083 -1.13395,-0.0698 -1.73765,-0.62928 -0.43858,-0.40644 -0.73665,-0.83735 -0.66237,-0.95752 0.31757,-0.51383 0.46528,-21.43873 0.16686,-23.63745 -0.17062,-1.2572 -0.3025,-5.95035 -0.29304,-10.42915 0.0152,-7.20511 0.0868,-9.79906 0.46149,-16.71523 0.10859,-2.00466 0.35832,-4.82608 0.43626,-4.92885 0.0298,-0.0394 0.0702,-0.18939 0.0898,-0.33337 0.0196,-0.14399 0.12762,-0.35381 0.23997,-0.46613 0.11233,-0.11239 0.0635,-0.4673 -0.10861,-0.78881 -0.29443,-0.55015 -0.24738,-2.03498 0.22302,-7.03791 0.2038,-2.16753 0.17636,-2.0856 0.9515,-2.84108 0.71212,-0.69404 1.00856,-1.74773 0.4917,-1.74773 -0.15708,0 -0.21265,-0.073 -0.12352,-0.16199 0.0891,-0.0892 -0.20469,-0.53729 -0.65297,-0.99584 -1.20481,-1.23254 -1.38762,-3.07412 -0.55866,-5.62819 0.13037,-0.67495 0.41542,-0.73731 0.50761,-1.31659 0.12611,-0.078 0.20296,-0.50471 0.17074,-0.94835 -0.0322,-0.44366 -0.069,-0.97498 -0.0817,-1.18067 -0.21845,-0.35368 -0.4521,-0.18077 -0.76136,-0.55454 -0.15081,0.15079 -2.51573,-2.01752 -2.57102,-2.35729 -0.0128,-0.0786 -0.36511,-0.85004 -0.78296,-1.71437 -0.41785,-0.86434 -0.76177,-1.76439 -0.76426,-2.00011 -0.002,-0.23574 -0.19597,-0.79556 -0.42988,-1.2441 -0.23742,-1.11829 -0.52304,-1.40522 -0.91092,-2.32753 -0.17504,-0.31431 -0.33656,-0.70005 -0.35892,-0.8572 -0.0903,-0.63463 -0.39036,-1.73141 -0.54719,-2.00012 -0.42681,-0.80438 -0.71932,-1.77007 -1.02128,-2.39247 -0.2335,-0.45153 -0.17037,-0.8048 -0.24545,-1.00006 -0.0751,-0.19518 -0.34091,-0.59824 -0.47075,-0.75065 -0.12985,-0.15238 -0.3026,-0.29285 -0.3026,-0.65075 0,-0.35791 -0.18832,-0.91963 -0.4185,-1.24824 -0.52719,-0.97124 -0.6736,-1.87502 -1.14935,-2.78119 -0.44515,-0.67333 -0.51737,-1.39024 -0.76565,-1.96303 -0.27427,-0.53187 -0.41879,-1.13647 -0.71912,-1.61436 -0.1283,-0.0942 -0.27544,-0.36432 -0.32695,-0.60004 -0.0515,-0.23574 -0.2644,-0.81434 -0.47308,-1.2858 -0.20867,-0.47145 -0.60995,-1.50009 -0.89173,-2.28583 -0.28176,-0.78576 -0.5832,-1.49296 -0.66984,-1.57153 -0.0866,-0.0786 -0.19494,-0.33572 -0.24067,-0.57145 -0.15933,-0.82134 -3.86803,-9.57326 -4.13029,-9.74678 -0.31725,-0.31743 -0.28593,-0.76829 -0.34584,-1.03956 -0.0933,-0.98323 -0.74364,-1.66946 -0.93736,-2.40298 -0.0256,-0.33945 -0.14936,-0.69304 -0.2751,-0.78577 -0.12572,-0.0928 -0.26676,-0.36142 -0.31338,-0.59716 -0.15638,-0.79072 -1.30409,-3.42877 -1.4917,-3.42877 -0.10205,0 -0.1873,-0.16078 -0.18944,-0.35716 -0.57771,-1.42234 -1.51574,-3.85177 -2.2853,-4.78161 -0.28234,-0.64034 -0.67317,-1.64524 -1.03033,-2.36494 -0.43814,-0.14598 -1.02456,0.41031 -0.86653,0.82214 -0.50379,1.22505 -1.02599,2.56025 -1.40911,3.86895 -0.23724,0.51828 -0.189,0.78804 -0.45805,1.38396 -0.29341,0.44298 -0.38304,0.98772 -0.40536,1.63622 -0.16573,0.63426 -0.46324,0.97571 -0.73163,1.67952 -0.37105,0.30045 -0.31222,1.50535 -0.54676,2.11315 -0.19551,0.43756 -0.10007,1.10301 -0.27596,1.33689 -0.27116,0.52619 -0.22206,1.57797 -0.59594,2.37761 -0.22958,0.89477 -0.36141,2.05318 -0.40578,2.47116 -0.60531,1.33847 -0.62601,2.27386 -0.76447,3.52918 -0.14743,1.1734 -0.49965,0.7309 -0.47429,2.08239 0.0254,1.35149 -0.42545,1.92375 -0.27089,3.06074 -0.12585,1.41918 -0.0379,1.87702 -0.32545,3.20733 -0.12373,0.20018 -0.19958,0.47837 -0.13911,1.18215 -0.0757,1.35814 -1.17162,2.93241 -1.10693,3.8967 0.0475,0.59949 0.43811,0.86055 0.40307,1.57152 0.2741,1.11003 0.24403,2.20055 0.38484,2.71443 0.1903,0.71021 0.30473,3.9772 -0.0377,4.52084 -0.13085,0.20774 -0.26028,0.95925 -0.0572,2.07154 0.20305,1.1123 -0.42218,2.0414 -0.30025,2.81947 0.12193,0.77806 0.0578,1.20124 -0.0979,1.29747 -0.16498,0.10199 -0.22207,1.29927 -0.14045,2.94601 0.0756,1.52579 0.13627,2.96705 0.13475,3.20277 -0.0166,2.55893 -0.22347,2.53681 -0.32286,3.14303 -0.0994,0.60623 -0.43114,2.02478 -0.45426,2.92874 -0.0296,1.65752 -0.36907,6.60233 -0.56396,8.21474 -0.10443,0.86435 -0.16088,1.68833 -0.12535,1.83107 0.0356,0.14279 -0.092,0.35635 -0.28349,0.4747 -0.20509,0.12679 -0.32774,0.75381 -0.29853,1.52625 0.028,0.73845 -0.0785,1.31113 -0.24372,1.31113 -0.16915,0 -0.28401,0.69549 -0.27134,1.64296 0.0425,3.17537 3e-5,3.78591 -0.2635,3.78591 -0.70843,2.08848 -1.0859,4.27248 -0.96324,4.68985 0.3699,0.3699 -0.0889,13.04292 -0.0316,13.60135 0.0572,0.55842 -0.17354,1.29365 -0.1781,2.21004 -0.004,4.57717 0.0284,5.09212 -0.29004,5.64275 -0.31836,0.55063 0.0282,2.04326 -0.17786,3.00059 -0.1422,0 -0.25662,1.09283 -0.25428,2.42854 0.002,1.33569 0.11677,2.42862 0.25428,2.4287 0.2155,0.54591 0.0385,1.21974 0.12517,1.71456 0.11991,0 0.23466,1.12507 0.25497,2.50015 0.0203,1.37507 0.11471,3.78591 0.20971,5.35744 0.37406,6.18644 0.37639,6.15048 -0.45563,7.04467 -0.78856,0.84748 -0.8255,1.95583 -0.0652,1.95583 0.4988,0.46859 1.2118,0.38534 1.5572,0.70273 0.16763,-0.10359 0.45692,0.012 0.64291,0.25664 0.18598,0.24471 0.6596,0.50153 1.05248,0.5707 1.582,0.2785 2.22195,0.79299 2.58086,2.0749 0.19291,0.68895 0.7566,0.58666 0.65646,1.25262 -0.10013,0.66595 0.0738,2.12045 0.10773,3.09882 0.0325,1.04579 0.11759,2.48005 0.18898,3.18724 0.0714,0.70718 0.27118,4.13448 0.44398,7.61622 0.30839,6.21373 0.56489,7.7525 1.54912,9.29316 0.23295,0.36468 0.8281,2.14168 1.32255,3.94893 1.14597,4.18857 1.85155,5.76383 3.38501,7.55714 1.15662,1.35263 3.19461,5.08308 3.19461,5.84759 0.72457,0.47695 0.6212,1.05319 0.87222,1.41248 0.26894,0.34293 0.80423,0.92339 0.8432,1.07948 0.039,0.15598 0.37192,0.87643 0.76541,1.76616 0.39349,0.88974 0.87785,2.55176 1.07637,3.69331 0.43843,2.07211 0.0865,1.15942 0.69553,2.52219 0.0969,-0.0602 0.17613,0.81068 0.17613,1.93541 0,2.02886 -0.009,2.05132 -1.07258,2.85622 -0.58993,0.4462 -1.00925,0.91377 -0.93184,1.039 0.17314,0.28017 -0.80293,0.60564 -2.13868,0.71321 -0.55002,0.0442 -2.41442,0.22485 -4.14309,0.40124 -3.82411,0.39022 -7.04156,0.40156 -8.57191,0.0302 -0.62861,-0.15258 -2.42872,-0.47109 -4.00023,-0.70793 -5.05384,-0.76164 -10.29331,-2.69769 -13.16868,-4.86598 -0.90867,-0.68522 -1.62937,-2.54213 -2.38141,-6.1358 -0.27971,-1.33666 -0.46573,-1.63927 -1.24465,-2.02495 -1.29765,-0.64246 -3.78715,-4.39387 -3.99062,-6.01343 -0.0862,-0.68633 -0.0782,-2.91937 0.018,-4.96236 0.0961,-2.04298 0.13515,-5.35387 0.0868,-7.35756 -0.0602,-2.49808 0.0108,-3.64306 0.22437,-3.64306 0.17175,0 0.31226,-0.32977 0.31226,-0.73277 0,-0.40306 0.25354,-1.33527 0.56343,-2.07156 1.16217,-2.76141 1.94219,-6.19836 2.15198,-9.48208 0.11547,-1.80724 0.32923,-3.36148 0.47504,-3.45389 0.39477,-0.2502 0.62468,-5.93133 0.2968,-7.33411 -0.16968,-0.72599 -0.17928,-1.28088 -0.0239,-1.37696 0.1432,-0.0884 0.16526,-0.31275 0.049,-0.49833 -0.11627,-0.18559 -0.21481,-0.53014 -0.21896,-0.76565 -0.005,-0.29967 -0.44522,-0.48177 -1.46532,-0.60656 -0.80177,-0.098 -2.18881,-0.4518 -3.08232,-0.78611 -0.8935,-0.33428 -2.062464,-0.60782 -2.59769,-0.60782 -0.660219,0 -1.106358,-0.19018 -1.38744,-0.5915 -0.227869,-0.32533 -0.460171,-0.45329 -0.516226,-0.28441 -0.05605,0.16898 -0.109632,-0.75427 -0.119072,-2.05152 0.21462,-4.01567 -0.715316,-6.62048 -0.252499,-8.96924 0.06673,-0.33567 -0.05949,-2.00719 -0.280605,-3.7145 -0.221054,-1.7073 -0.540343,-5.67573 -0.709533,-8.81878 -1.092951,-20.30388 -1.100242,-20.57569 -0.781185,-29.1445 0.09945,-2.67156 0.195296,-5.30744 0.212968,-5.85747 0.03825,-1.19174 -0.181502,-2.69591 -0.459658,-3.14593 -0.317077,-0.51307 -0.364867,-4.65449 -0.06069,-5.25834 0.184503,-0.36627 0.152444,-1.07348 -0.09719,-2.14298 -0.410757,-1.76015 -0.378402,-2.59756 0.147269,-3.81132 0.119247,-0.2754 0.118866,-0.854 -0.0011,-1.2858 -0.11975,-0.43182 -0.187804,-1.08121 -0.151264,-1.44312 0.03661,-0.36194 -0.08791,-0.84411 -0.27669,-1.0715 -0.188719,-0.22741 -0.259806,-0.41347 -0.157946,-0.41347 0.101834,0 -0.03302,-0.41788 -0.299738,-0.92863 -0.58491,-1.1201 -0.634028,-1.51871 -0.660066,-5.35744 -0.03,-4.42019 0.174825,-8.57976 0.604964,-12.2864 0.20973,-1.80724 0.381592,-5.53602 0.381904,-8.28619 5.29e-4,-4.02531 -0.379386,-24.53635 -0.507992,-27.4301 -0.01741,-0.39289 0.06803,-1.55009 0.189999,-2.57159 0.154407,-1.29297 0.113527,-2.11766 -0.134485,-2.71444 -0.195942,-0.47145 -0.383105,-0.95363 -0.415916,-1.07149 -0.03286,-0.11779 -0.08639,-0.24644 -0.119183,-0.28571 -0.0327,-0.0394 -0.09817,-0.32859 -0.145491,-0.6429 -0.0473,-0.31431 -0.293198,-1.79297 -0.546496,-3.2859 -0.279473,-1.64724 -0.460997,-4.37141 -0.46169,-6.92897 -0.0011,-3.0199 -0.09569,-4.21452 -0.334507,-4.21452 -0.183338,0 -0.254007,-0.0794 -0.157041,-0.17619 0.09697,-0.097 -0.442049,-1.41492 -1.197832,-2.92875 -1.24388,-2.49152 -1.382672,-2.96911 -1.464209,-5.03827 -0.04958,-1.25722 -0.06069,-2.80015 -0.0246,-3.42877 0.03598,-0.62859 0.08315,-2.52513 0.104971,-4.21452 0.02169,-1.68938 0.157026,-3.0716 0.300638,-3.0716 0.183942,-0.62014 0.338702,-1.45276 0.598149,-2.15343 0.136247,-0.82116 0.539597,-1.23 0.744671,-1.8468 0,-0.31429 -0.120591,-0.57145 -0.267976,-0.57145 -0.147385,0 -0.272473,-0.22501 -0.27797,-0.50003 -0.0098,-0.50569 -0.223493,-2.74049 -0.271278,-3.01704 -0.912151,0.0332 -4.668196,-2.26726 -6.326379,-3.01209 -0.753772,-0.32343 -0.941312,-0.73297 -1.125412,-0.76755 -0.1841,-0.0346 -0.376846,0.0258 -1.071479,-0.87317 -0.694638,-0.89899 -1.876416,-2.26852 -2.2971,-2.44432 -0.420689,-0.17579 -1.386932,-1.61684 -1.505999,-2.58775 -0.119072,-0.9709 -0.403995,-1.12135 0.02185,-1.42486 0.377894,-0.50235 0.112786,-1.16147 -0.185762,-1.56455 -0.386905,-0.36216 -0.337226,-0.90437 -0.563174,-1.3604 -0.255801,-0.39041 -0.378656,-0.8497 -0.273002,-1.02065 0.105606,-0.17098 0.05238,-0.47921 -0.118511,-0.68505 -0.170825,-0.20582 -0.313956,-0.68237 -0.318057,-1.05897 -0.0042,-0.3766 -0.01979,-1.00618 -0.03476,-1.39907 -0.01497,-0.39286 0.0527,-1.00362 0.150608,-1.3572 0.09785,-0.35359 0.237366,-0.91318 0.310003,-1.2435 0.07267,-0.33035 0.281256,-0.78037 0.463589,-1.00007 0.04709,-0.4107 -0.08519,-0.81455 -0.310252,-1.3995 -0.184222,-0.22196 -0.251975,-0.53777 -0.150602,-0.70181 -0.06482,-0.50013 -0.355094,-0.96159 -0.383957,-1.51259 -0.03069,-0.6679 -0.101511,-1.8251 -0.157486,-2.57159 -0.05593,-0.74647 0.08243,-1.23624 0.152285,-1.35721 0.240493,-0.41654 0.330559,-1.0619 -1.27e-4,-1.26627 -0.139808,-0.0864 -0.321136,-0.57617 -0.402985,-1.08836 -0.08185,-0.51219 -0.206873,-1.18843 -0.277812,-1.50271 -0.07095,-0.31433 -0.02947,-0.83932 0.09201,-1.16669 0.567386,-1.52789 0.561846,-2.68602 -0.01561,-3.2635 -0.64443,-0.64444 -0.7571,-2.05934 -0.200746,-2.52107 0.341083,-0.28308 0.37874,-1.99327 0.155247,-7.04956 -0.02085,-0.47145 0.0054,-1.3715 0.05885,-2.0001 0.05323,-0.6286 -0.0098,-2.83508 -0.139406,-4.90328 0,0 -0.42317,-2.78967 -0.23617,-3.76035 0.186999,-0.97069 0.92803,-1.95425 0.92803,-1.95425 1.15263,-2.427206 3.845867,-8.793444 4.708145,-11.129079 0.354496,-0.960207 0.728332,-1.881417 0.830753,-2.047141 0.102489,-0.165783 0.251028,-1.180202 0.330231,-2.254379 0.07915,-1.074215 0.202313,-2.338832 0.273579,-2.810284 0.07127,-0.471457 0.320845,-2.078697 0.554618,-3.571632 0.233758,-1.492945 0.622726,-4.257381 0.864368,-6.1432 0.241636,-1.885819 0.74646,-4.714547 1.121819,-6.286066 0.847775,-3.549335 1.184763,-4.596904 0.760979,-5.00028 -0.180624,-0.397286 -0.537973,-0.731448 -0.937063,-1.050711 -0.444938,-0.360423 -0.482177,-0.425398 -0.552476,-1.306528 -0.07029,-0.881125 -0.204227,-1.640024 0.611525,-2.500142 0.127305,0 0.296209,-0.247531 0.375328,-0.550084 -0.404911,-1.309137 -0.03683,-1.392515 1.241775,-2.716292 1.862749,-1.918555 1.888311,-1.966037 1.744672,-3.240427 -0.162465,-1.441441 0.79163,-4.092736 2.085432,-5.795111 1.107311,-1.456982 3.694303,-4.138203 4.280017,-4.316938 0.585715,-0.17874 1.906195,-1.030198 2.797828,-1.538984 0.21581,-0.314331 4.521981,-2.481745 5.145201,-2.589711 0.76313,-0.13221 2.36797,-1.610605 2.91736,-2.687508 0.31285,-0.613233 0.57047,-1.666558 0.57248,-2.340714 0.003,-1.18779 1.03446,-4.9085 1.84386,-6.654622 0.21853,-0.471452 0.42953,-0.985768 0.46886,-1.142915 0.0393,-0.157147 0.24142,-0.455631 0.44909,-0.663304 0.55632,-1.137745 0.36661,-0.988228 0.56725,-1.912343 0.30489,-1.155375 0.88749,-2.362062 0.92153,-3.353253 0.0402,-1.504248 0.11439,-1.928683 0.33716,-1.928683 0.31639,0 0.75832,-1.474098 0.68529,-2.285845 -0.0354,-0.392879 0.11992,-0.924946 0.34505,-1.182376 0.37435,-0.700411 0.51643,-1.392721 0.95009,-1.65422 0,-0.164306 0.71047,-1.1362431 1.57882,-2.1598425 1.00754,-1.0006782 1.57024,-2.2729617 2.26546,-3.1879709 0.55722,-0.7297819 1.0278,-1.5333965 1.04572,-1.7858214 0.59907,-0.8264247 0.12691,-0.9125911 0.66627,-1.5850645 0.2444,-0.3050507 0.4542,-0.6907861 0.46621,-0.8571928 0.0332,-0.45907606 0.17849,-1.02856254 0.64226,-2.5169631 0.23258,-0.7464649 -0.0436,-0.5426974 0.16512,-1.357217 0.20872,-0.8145197 -0.25696,-2.43549 -1.15563,-3.093762 -0.34814,-0.6377 -0.44687,-1.6044354 -0.79682,-2.0493841 -0.19113,0 -0.23883,-1.3982341 -0.13893,-4.0716567 0.14626,-3.913726 0.18812,-4.138155 1.07935,-5.786036 0.61338,-1.134148 1.22711,-1.859448 1.81335,-2.14298 1.05991,-0.512633 1.5773,-1.26169 1.67554,-2.425828 0.04,-0.473039 0.23322,-1.245801 0.42951,-1.717264 0.2745,-1.489014 1.35639,-1.492522 1.51811,-2.674232 0.11123,-0.838409 0.40878,-1.591705 0.75114,-1.901534 0.57867,-1.326449 1.65621,-2.083057 2.3855,-3.210685 0.37533,-0.589149 1.53969,-1.950159 2.58747,-3.024448 0.93847,-1.842114 2.35101,-2.953795 3.01569,-3.61847 0.66467,-0.664679 0.49158,-0.592894 1.21932,-1.14293 0.72775,-0.550031 1.34865,-1.128629 1.37977,-1.285782 0.16508,-0.833462 5.19944,-2.975864 6.69444,-3.120175 1.495,-0.144305 1.20001,0.01661 3.00017,-0.342078 1.80016,-0.358766 4.08624,-0.137866 6.07176,0.174984 1.98553,0.31286 2.63192,0.59391 3.49102,0.758544 0.85911,0.164645 2.88382,0.852711 3.4696,1.488882 0.58577,0.636171 1.21718,0.810906 1.91488,0.979471 0.6977,0.168566 1.37128,0.590562 1.78836,0.766879 0.41708,0.176322 0.17502,0.261906 0.85283,0.365348 0.67781,0.103447 2.40049,1.370964 4.03743,3.595797 0.88631,1.204626 1.6948,2.254517 1.79663,2.333096 0.10183,0.07861 0.68375,0.978624 1.29315,2.000107 0.60942,1.021489 1.24073,1.946694 1.40293,2.056014 0.7987,1.661078 -0.11755,4.061942 0.5996,5.372978 0.34964,0.550888 0.98766,2.165419 0.1485,3.290847 -0.83915,1.125422 0.0655,2.425151 -0.3073,3.280952 -0.37278,0.855801 0.022,3.688905 0.018,3.714499 0,0 -0.0425,0.4448 -0.012,0.813842 0.0684,0.823086 -0.85543,4.3293036 -1.14071,4.3293036 -0.52004,0.8615051 -0.68679,1.8641569 -1.32471,2.571573 -0.57211,0 -1.03021,1.3117555 -1.13325,3.2450995 -0.049,0.9204643 -0.19959,1.8205207 -0.33447,2.0001129 -0.1349,0.1795817 -0.41085,0.9051359 -0.61321,1.61231928 -0.46999,1.64244712 -1.65904,4.00022592 -2.01733,4.00022592 -0.1515,0 -0.35699,0.324829 -0.45665,0.7218557 -0.23973,0.7365546 -0.91827,1.09721 -1.25836,1.6724585 0,0.205757 -0.31412,0.7396711 -0.69806,1.1864822 -0.68012,0.5298981 -0.49578,0.8660343 -0.63408,1.6337749 -0.12259,0.1964393 -0.25931,0.5910635 -0.30382,0.8769445 -0.10637,0.683225 -0.11437,0.884786 -0.92422,1.694629 -0.80984,0.809842 -0.8902,1.305924 -2.14443,1.438441 -1.44995,0.149644 -1.73684,0.29958 -2.95101,1.54236 -0.7397,0.757126 -1.60966,1.569455 -1.93324,1.805181 -2.00274,1.459003 -2.45148,1.714381 -3.01239,1.714381 -0.61593,0 -0.62119,0.03984 -0.42189,3.189497 0.18034,2.85002 0.53931,5.587867 0.89365,6.816001 0.10497,0.363793 0.91824,0.440383 5.05578,0.47614 5.94684,0.05143 11.81001,0.735851 12.47677,1.456517 0.31619,0.341755 0.93232,0.499056 2.0259,0.51722 2.43336,0.04042 9.14546,2.338535 9.76689,3.344023 0.11705,0.189402 0.31395,0.349755 0.43755,0.356343 1.05713,0.05638 3.51061,2.347106 3.51061,3.277788 0,0.208191 0.38574,1.062008 0.85719,1.897375 0.47146,0.835377 0.8572,1.826092 0.8572,2.201594 0,0.375508 0.19648,1.239632 0.43663,1.920291 0.24016,0.680654 0.37435,1.399885 0.29821,1.598287 -0.0761,0.198402 -0.006,0.442145 0.15431,0.541661 0.161,0.09945 0.22529,0.356655 0.14287,0.571454 -0.0824,0.214795 -0.037,0.460309 0.10097,0.545566 0.13796,0.08531 0.33375,1.021578 0.4351,2.080691 0.10141,1.059119 0.48847,3.211464 0.86026,4.782983 0.37179,1.571519 0.69215,3.114461 0.7119,3.428766 0.10043,1.597864 0.19505,2.337747 0.36545,2.857295 0.24698,0.752989 0.59452,4.469186 0.5933,6.344147 -5.3e-4,0.817695 0.0734,1.440759 0.16443,1.384583 0.0909,-0.05616 0.1795,1.460643 0.19672,3.370696 0.0172,1.910052 0.19182,4.051428 0.38798,4.758617 0.19616,0.707178 0.40595,1.864384 0.46621,2.571573 0.25508,2.993389 0.45101,4.72968 0.84361,7.476247 0.11983,0.83834 0.23591,1.719375 0.25795,1.957873 0.0221,0.238494 0.10961,0.559926 0.19458,0.714327 0.085,0.154385 0.18188,0.85006 0.21535,1.545931 0.0335,0.695871 0.12433,1.367905 0.20188,1.493395 0.15569,0.251912 0.33818,1.356344 0.58285,3.527457 0.0885,0.785762 0.2769,1.570545 0.41858,1.743968 0.14166,0.173381 0.25434,0.623456 0.25039,1.000059 -0.01,0.92847 0.13618,1.772352 0.37268,2.154992 0.10789,0.17459 0.18584,0.87946 0.1733,1.56651 -0.0126,0.68705 0.0724,1.69921 0.18867,2.24924 0.43544,2.05932 0.14312,7.92438 -0.41206,8.26751 -0.18642,0.11519 -0.28641,1.87432 -0.26961,4.74402 0.0256,4.38095 0.0527,4.58507 0.68687,5.17379 0.30381,0.31249 0.53875,0.79586 0.61453,0.95863 0.29737,1.68507 0.65176,5.31232 -0.0309,6.00033 -0.99043,1.16293 -0.12303,2.36589 -0.35158,3.07632 -0.23722,0.75127 0.61752,2.46902 0.64924,3.43447 0.0317,0.96545 -0.21212,0.63826 0.0868,1.33869 0.29895,0.70043 0.32264,3.35503 0.28878,4.16997 -0.0339,0.81494 0.12809,0.74403 0.0623,0.91837 -0.0658,0.17438 -0.33323,1.10117 -0.36962,2.00011 -0.0363,0.89893 -0.15916,1.63442 -0.27286,1.63442 -0.11371,0 -0.11249,0.41788 0.002,0.92863 0.11518,0.51075 0.23022,1.02506 0.25563,1.14292 0.0254,0.11779 0.0621,0.24644 0.0816,0.28573 0.0408,0.0824 0.20679,1.79871 0.2556,2.64301 0.0182,0.31431 -0.0516,0.95718 -0.15512,1.42864 -0.10345,0.47147 -0.16607,1.82154 -0.13905,3.00019 0.0756,2.35218 -0.0148,5.70682 -0.11927,6.70488 -0.133,0.78485 -0.30068,1.34287 -0.0204,1.97345 -0.20382,0.82902 -0.48809,0.79802 -0.95406,1.39708 -0.38215,0.80602 -0.9804,1.30576 -0.98722,1.92072 -0.296,0.64303 -0.14725,0.82947 -0.85774,1.45849 -1.38294,0.6702 -2.07674,2.0513 -3.48054,2.58281 -0.73913,0.36948 -1.10241,0.72487 -1.81084,0.77456 -0.57917,0.0376 -1.56734,0.20672 -2.19595,0.37597 -1.69988,0.4577 -1.79963,0.25299 -2.50014,0.19438 -0.70262,-0.0916 -1.20406,0.32844 -1.94554,0.33297 -1.12257,0.012 -1.15116,0.30767 -1.7863,0.0714 -0.1197,-0.45802 -0.34732,5.5113 -0.26694,7.00039 -0.0735,0.55039 -0.53947,0.43155 -0.3912,1.0896 0.14829,0.65806 -1.83368,4.03018 -2.51127,3.63713 -0.1724,-0.1 -0.10389,0.0654 0.15213,0.36732 0.90781,1.27147 1.41199,2.74117 1.69873,3.83505 0.28501,0.92875 1.03001,1.20974 1.4095,1.57012 1.92708,0.70429 2.10653,3.40535 2.15931,4.59731 0.058,1.37481 0.23717,2.4948 0.37836,2.77257 0.14119,0.27778 0.0978,0.81224 0.27809,1.06052 0.18025,0.24827 0.12829,0.68003 0.31043,0.99088 0.18214,0.31085 0.14583,0.54087 0.28342,0.85576 0.13758,0.31489 0.0824,0.71793 0.24555,1.01066 0.16314,0.29273 -0.0188,0.82964 0.29197,1.14293 0.31085,0.31329 0.34732,1.16994 0.48016,1.71437 0.13285,0.54443 0.17444,1.72421 0.38257,2.00011 0.20813,0.27589 0.24127,0.29543 0.26637,1.42978 0.0251,1.13434 0.59422,3.2656 0.67047,4.28484 0.0763,1.01924 0.34667,1.48153 0.41717,2.0001 0.0705,0.51857 0.13305,1.10006 0.20757,1.57153 0.0745,0.47147 0.22399,1.49897 0.33211,2.28343 0.10813,0.78447 0.33693,1.29466 0.49197,1.78219 0.15505,0.48754 0.39052,1.45812 0.37431,2.07758 -0.0162,0.61946 0.31323,0.91471 0.28573,1.42864 -0.0275,0.51393 0.26789,0.67331 0.24794,1.28123 -0.02,0.60792 0.3354,1.64427 0.37141,2.2476 0.036,0.60334 0.35874,1.2879 0.56007,1.60995 0.20133,0.32204 0.46868,1.17146 0.59957,1.50443 0.13089,0.33297 0.36019,1.70723 0.77978,3.35733 0.41959,1.6501 0.78013,3.16391 0.86608,3.42877 0.0859,0.26485 -0.0176,-0.0822 0.18826,0.90591 0.20581,0.98802 1.29539,3.71528 1.57814,4.95156 0.28275,1.23628 0.94332,3.29368 1.37644,4.28596 0.32161,0.73681 1.02629,2.54179 2.19636,5.62591 0.42544,1.42542 0.39692,1.89871 0.92462,3.41699 0.41815,0.3544 0.61718,0.85827 0.95486,1.30435 0.13707,0.14979 0.0289,0.205 -0.11266,0.546 0.39366,1.29516 0.54594,2.95286 0.74857,4.05285 0.20262,1.09999 0.15423,0.93897 0.18498,1.68598 0.0307,0.747 -0.31764,1.56458 -0.24603,2.15315 0.0716,0.58856 0.0363,1.29575 -0.0785,1.57152 -0.11481,0.27578 -0.0251,0.0994 -0.24811,1.55177 -0.223,1.45234 -1.39076,5.03457 -1.59939,6.66067 -0.20864,1.6261 -0.45419,2.27292 -0.37159,2.99107 0.0826,0.71815 -0.17994,0.60152 -0.36667,1.12689 -0.18672,0.52537 -0.2244,3.33353 -0.38704,3.61521 -0.16264,0.28167 0.10721,-0.31597 -0.0764,0.75534 -0.18366,1.07132 -0.78622,4.24579 -1.00916,5.58512 -0.22294,1.33932 -0.62208,0.93067 -0.37378,1.21668 0.2483,0.28601 0.11073,-0.0726 0,0.73293 -0.11073,0.80548 -0.71884,2.0207 -0.67216,3.08128 0.0467,1.06057 -0.21044,1.95391 -0.43665,2.3457 -0.22621,0.39181 0.0207,-0.23427 -0.0789,0.86052 -0.0996,1.0948 -0.62114,3.56193 -1.06489,5.09389 -0.88474,2.84088 -1.96604,12.58919 -2.41195,21.74473 0.29728,1.94702 -0.60632,2.79667 -0.52738,4.0989 0.0478,0.73151 0.0667,0.63652 -0.14287,0.99959 -0.20808,0.36022 -0.29337,0.60265 -0.35736,6.04498 -0.0203,1.72867 -0.17956,4.42883 -0.35388,6.00036 -0.1743,1.57151 -0.33373,3.46032 -0.35429,4.19737 -0.0286,1.02602 -0.19643,1.47799 -0.71606,1.92867 -0.37326,0.32375 -0.81972,0.59932 -0.99212,0.6124 -1.06124,0.0806 -1.62005,0.18758 -1.77133,0.33881 -0.0948,0.0948 -0.48061,0.0552 -0.85734,-0.088 l -0.68493,-0.26032 v 3.15284 c 0,2.0346 0.17781,2.78756 0.28648,2.97577 0.19024,0.3295 0.23098,0.48938 0.12773,1.72973 -0.12565,1.50899 -0.0633,2.01226 0.29896,2.41252 0.37739,0.41702 0.57974,0.44898 1.15295,0.18218 0.99345,-0.49569 0.88664,-1.25682 1.27692,-1.46651 0.88605,-0.87994 1.93517,-1.56043 2.94949,-1.91164 0.81381,-0.21396 0.67079,-0.48629 2.25242,0.75757 0.19426,0.33647 0.14904,0.34122 0.14904,0.94047 0,0.5992 0.0903,1.4067 0.20055,1.79446 -0.0954,0.91663 -0.22733,0.64758 -0.23044,1.77647 0.13175,1.3607 0.0465,1.60846 -0.13844,1.92869 -0.71459,1.51261 0.28016,2.85034 0.2037,3.8301 -0.0765,0.97977 0.33894,1.46114 0.27871,1.98837 -0.0602,0.52723 0.0892,0.85132 0.13949,1.03906 0.0503,0.18778 0.20515,0.37894 0.13718,0.8421 -0.0679,0.46315 -0.0251,0.47811 0.11043,0.69747 0.13557,0.21936 -0.0306,1.01294 0.27974,1.6915 0.31038,0.67855 0.43388,0.93022 0.58947,1.15838 0.15561,0.22816 0.31534,0.76051 0.57174,1.10339 0.2564,0.34289 0.23974,0.43568 0.33087,0.84774 0.0911,0.41206 1.77054,1.54681 1.88727,2.58839 0.002,0.11779 0.22873,0.44525 0.50374,0.72753 0.27501,0.28229 1.26491,1.34307 2.19974,2.35727 0.93484,1.01422 1.20164,1.27765 1.44028,1.41544 0.4768,0.27527 2.83568,2.15659 3.41776,2.94015 0.71028,0.50493 1.79473,1.2475 2.68841,2.19467 0.71518,0.59454 0.62648,0.23814 1.3468,1.00838 0.97376,0.92203 1.35859,1.11127 2.721,1.38031 1.37937,0.54706 2.55869,0.70829 3.70494,0.59834 1.26527,-0.12479 2.25116,-0.0848 2.643,0.10699 4.65602,1.27419 7.33511,0.76002 9.56069,4.33589 0.77387,1.2345 1.25036,3.47422 1.08386,5.09473 -0.083,0.80718 -0.006,1.27617 0.2227,1.3641 0.19198,0.0736 0.3787,0.48445 0.41488,0.91285 0.0906,1.07228 -0.48253,3.79043 -0.95655,4.53648 -0.21474,0.33803 -1.57337,1.2915 -3.01916,2.11885 -2.59385,1.48436 -2.67646,1.50918 -6.2266,1.87036 -5.45235,0.55475 -15.73962,0.45756 -19.59879,-0.18518 z M 176.09659,148.22206 c 0.0419,-0.24482 0.21012,-0.8308 0.39146,-1.31586 0.18134,-0.48505 0.26084,-1.09115 0.27481,-1.72866 0.014,-0.63752 0.0215,-0.42197 -0.44267,-0.95561 -0.46417,-0.53365 -0.0722,-1.3021 -0.11509,-1.64296 -0.0429,-0.34089 0.0526,-0.35295 -0.1432,-1.07148 -0.19582,-0.71853 -0.6026,-1.33952 -0.67286,-2.28586 -0.0702,-0.94632 -0.18856,-2.16922 -0.37606,-2.71443 -0.1875,-0.54521 -0.45917,-1.22916 -0.69475,-2.0458 -0.23558,-0.81664 -0.0352,-0.3792 -0.28841,-0.63244 -0.0758,-0.54654 -0.49905,-0.87553 -0.57011,-0.99228 -0.31177,0.0618 -0.53572,0.44946 -0.58804,0.95608 -0.0523,0.50664 -0.15101,1.2734 -0.22736,1.78211 -0.0763,0.50871 -0.12528,0.6321 0.16975,1.11563 0.29503,0.48354 0.65396,0.6123 0.66187,1.37689 0.008,0.76458 0.31787,1.70877 0.44241,2.15427 0.12453,0.44549 0.25898,0.71477 0.25898,1.58838 0,0.87362 0.20908,0.86088 -0.21429,1.45824 -0.42337,0.59736 0.0832,2.33423 0.34675,3.15681 0.26352,0.82258 -0.72958,1.2131 -0.46572,1.51129 0.26388,0.2982 0.86186,1.18717 1.17019,1.29832 0.72706,0.34406 0.85446,-0.33041 1.08234,-1.01264 z M 95.315682,137.59628 c 0,-0.46256 0.147343,-1.11634 0.327443,-1.45284 0.1801,-0.33653 0.354745,-1.06132 0.388095,-1.61067 0.03339,-0.54937 0.153825,-0.68059 0.370825,-1.10221 0.216996,-0.42162 0.340248,-1.37211 0.666119,-1.78525 0.17492,-0.29789 0.142644,-0.52088 0.213821,-0.78136 0.347867,-1.44266 0.816483,-2.20236 0.874087,-3.61569 0.02244,-0.61355 0.292564,-1.46917 0.600313,-1.90137 0.24924,-0.85814 0.857076,-1.32495 1.232722,-1.91193 0.596553,-0.64748 1.220893,-1.79735 1.429793,-2.15917 0.15888,-0.92261 0.35414,-1.41834 0.74404,-2.19823 0.14161,-0.15478 0.11835,-0.29123 -0.15062,-0.70175 -0.2529,-0.38598 -0.14467,-0.51421 -0.27546,-1.00006 -0.13079,-0.48586 -0.43888,-1.01644 -0.11825,-1.44122 0.26199,-0.41624 0.62452,-0.81574 0.90902,-1.29198 0.18087,-0.31327 0.25781,-0.4088 0.71706,-0.94646 0.4791,-0.49374 0.77258,-1.11497 1.14293,-1.45316 0.376,-0.30631 0.60226,-0.97695 1.04922,-1.50298 1.11023,-1.29705 1.23592,-1.83309 0.62551,-2.66785 -0.24816,-0.39794 -0.28307,-1.01171 -0.3584,-1.28128 -0.13467,-2e-4 -0.23986,-0.48237 -0.23371,-1.0715 0.0128,-1.23761 0.70879,-4.35703 0.97197,-4.35703 0.19087,0 0.96773,-2.427204 0.87872,-2.745372 -0.0294,-0.104987 0.0653,-0.269573 0.2104,-0.365724 0.44143,-0.29249 0.92792,-2.749493 0.92792,-4.686441 0,-1.419742 -0.12809,-1.97753 -0.57147,-2.488756 -0.3143,-0.362385 -0.57146,-0.94493 -0.57146,-1.294516 0,-0.349608 -0.17581,-0.781546 -0.39068,-0.959868 -0.73154,-0.607117 -1.00109,0.31421 -1.01405,3.466084 -0.0128,3.09008 -0.48137,5.905183 -1.46318,8.788863 -0.29428,0.86433 -0.59864,1.93625 -0.67639,2.38205 -0.0777,0.44577 -0.27529,0.97192 -0.43901,1.1692 -0.45865,0.67196 -0.27743,1.06324 -0.57124,1.43844 -0.15285,0.0946 -0.0701,0.22046 -0.11695,0.59121 -0.0468,0.37074 -0.51647,0.80949 -0.71324,1.2052 -0.19676,0.39568 -0.84746,1.86739 -1.20775,2.35727 -0.3603,0.48987 -0.737956,1.58544 -1.290717,2.23834 -1.191901,1.39246 -1.58898,3.02996 -0.863389,3.56053 0.261351,0.19118 0.519379,0.83988 0.573386,1.4417 0.07851,0.87525 -0.05164,1.24572 -0.650288,1.85134 -0.411657,0.41642 -0.84243,0.75908 -0.957269,0.76146 -1.635728,1.38643 -0.444981,2.2995 -0.09375,3.27628 0.687955,0.57095 0.02989,2.29978 -0.875368,2.29978 -0.216482,0 -0.393598,0.24798 -0.393598,0.55106 0,0.30308 -0.174026,0.72508 -0.386709,0.93776 -0.2348,0.23479 -0.343904,0.80405 -0.277727,1.44907 -0.01238,1.08048 -0.414292,1.56525 -1.079464,2.2566 -0.35075,0.97023 -0.710289,1.33411 -0.597307,2.17109 0.08239,0.5849 0.12749,1.4492 0.100209,1.92065 -0.121728,2.10694 0.0086,3.71366 0.316078,3.90382 0.520416,0.32165 1.067743,-0.31561 1.067743,-1.24313 z"
       id="path479"
       sodipodi:nodetypes="csccscssscsssccssscssccsssssssscsssccccccccscccccczzsccccssscscccsssccccccccccccczccccccszzscszccsscsccczczccccscsccccszcssssscczsccscssssssscssssssssscscssssscccssccscssccsscsccssscsscsssscccccsccczzzzcccsccsccccccssssscssscczssccsssscczcccsszcsscsscccssccccccsszccssssccccczsszzzzzzzzssscczzscccssssccccszcssssssssscssssscsccssscscssssssssscccssccccczzzzzzcccccccccccccscccczscccczzzzzzzzzzzzzzzzzzzzzzzzscccczzzzzzzzzzzzzzzzccccsssscsscssssccccsccczzzzzzzzzcssscccccccsscsssccczzzzzzzzcczzzzzzzzzcccsszcccccccszccccccccsscsssscsscczzzcscsccsssccccccc" />
  </g>
</svg>
