<?xml version="1.0" encoding="UTF-8" standalone="no"?>
<svg
   xmlns:dc="http://purl.org/dc/elements/1.1/"
   xmlns:cc="http://creativecommons.org/ns#"
   xmlns:rdf="http://www.w3.org/1999/02/22-rdf-syntax-ns#"
   xmlns:svg="http://www.w3.org/2000/svg"
   xmlns="http://www.w3.org/2000/svg"
   xmlns:sodipodi="http://sodipodi.sourceforge.net/DTD/sodipodi-0.dtd"
   xmlns:inkscape="http://www.inkscape.org/namespaces/inkscape"
   sodipodi:docname="lookout.svg"
   inkscape:version="1.0 (4035a4fb49, 2020-05-01)"
   version="1.1"
   id="svg2"
   viewBox="0 0 312.5 500"
   height="500"
   width="312.5">
  <defs
     id="defs4" />
  <sodipodi:namedview
     inkscape:document-rotation="0"
     inkscape:guide-bbox="true"
     showguides="true"
     inkscape:window-maximized="1"
     inkscape:window-y="-8"
     inkscape:window-x="-8"
     inkscape:window-height="1017"
     inkscape:window-width="1920"
     units="px"
     showgrid="false"
     inkscape:current-layer="layer1"
     inkscape:document-units="px"
     inkscape:cy="413.99531"
     inkscape:cx="299.21873"
     inkscape:zoom="0.98994949"
     inkscape:pageshadow="2"
     inkscape:pageopacity="0.0"
     borderopacity="1.0"
     bordercolor="#666666"
     pagecolor="#ffffff"
     id="base" />
  <metadata
     id="metadata7">
    <rdf:RDF>
      <cc:Work
         rdf:about="">
        <dc:format>image/svg+xml</dc:format>
        <dc:type
           rdf:resource="http://purl.org/dc/dcmitype/StillImage" />
        <dc:title></dc:title>
      </cc:Work>
    </rdf:RDF>
  </metadata>
  <g
     transform="translate(0,72.637839)"
     id="layer1"
     inkscape:groupmode="layer"
     inkscape:label="Layer 1">
    <path
       sodipodi:nodetypes="cscssccssssssscssssscsssssssssssscsssssscacsssssscccsscccsscssscssssssscccsssscscsssssssssscsscsssssssccsssscsssccsscsssssscsscccscssssscsssscsssssssccsssssscccsscscccsssssssssscsssccscsc"
       style="opacity:1;fill:#000000;stroke-width:0.950731"
       d="m 108.78049,415.26279 c -1.25042,-0.453 -3.04228,-1.64239 -3.98193,-2.64305 l -1.70842,-1.81939 0.59795,-2.57008 c 0.32888,-1.41357 0.9424,-3.11878 1.36337,-3.78939 0.42098,-0.67062 0.91397,-1.85685 1.09554,-2.63608 0.18157,-0.77918 1.29649,-2.52147 2.4776,-3.87162 1.18112,-1.3502 2.84999,-3.78529 3.70861,-5.41134 0.85863,-1.62607 1.96567,-3.48131 2.46011,-4.12276 0.65443,-0.84902 0.75793,-1.33625 0.3805,-1.79104 -0.76416,-0.92077 -0.37286,-5.16339 0.51349,-5.56752 0.40237,-0.18344 1.49973,-0.73417 2.4386,-1.22384 0.93886,-0.48966 2.16477,-1.11843 2.72425,-1.39726 0.97896,-0.48787 0.94583,-0.57488 -0.88054,-2.31228 l -1.89777,-1.8053 0.26284,-6.75595 c 0.14456,-3.71579 0.31503,-7.74357 0.3788,-8.95068 0.0638,-1.2071 -0.16803,-7.46211 -0.51515,-13.90001 -0.34712,-6.4379 -0.61977,-17.10453 -0.60589,-23.70362 0.0184,-8.74867 -0.16784,-12.90965 -0.68762,-15.36317 -0.39208,-1.85066 -0.71667,-4.36344 -0.72133,-5.58396 -0.005,-1.22051 -0.27184,-2.48249 -0.59373,-2.80438 -0.32548,-0.3255 -1.88746,-0.58527 -3.51883,-0.58527 -2.44513,0 -3.62668,-0.33668 -7.09633,-2.02194 -2.28952,-1.1121 -4.99826,-2.67675 -6.019431,-3.477 -1.021162,-0.80025 -3.545116,-2.1032 -5.608774,-2.89535 -2.063657,-0.7922 -4.520268,-2.04682 -5.459129,-2.78807 -0.93886,-0.74125 -2.404756,-1.70842 -3.257544,-2.14927 -0.85279,-0.44087 -1.68598,-1.22834 -1.851532,-1.74995 -0.58639,-1.84755 0.810005,-17.05606 2.645545,-28.81323 1.585933,-10.15835 2.357682,-15.85742 2.93914,-21.70438 1.386606,-13.94326 3.586544,-26.1829 7.100495,-39.50445 1.415915,-5.36779 1.610929,-6.72853 1.271366,-8.87095 -0.220599,-1.39182 -0.221825,-3.80604 -0.0029,-5.36492 0.572284,-4.07168 -0.187027,-7.65306 -2.079563,-9.80855 -1.676976,-1.90997 -2.102742,-2.81526 -5.436332,-11.55913 -4.094095,-10.73862 -4.75694,-12.72696 -5.295232,-15.88413 -0.422704,-2.4792 -0.927967,-3.61047 -2.409771,-5.39536 -1.313503,-1.58216 -2.115261,-3.2152 -2.677543,-5.45365 -0.797042,-3.17304 -0.794286,-3.2134 0.397126,-5.81579 0.787662,-1.72048 1.12096,-3.15732 0.970381,-4.18329 -0.282682,-1.50833 0.424473,-2.69301 0.443962,-4.05143 0.05459,-3.80541 -3.136492,-8.88079 -0.917592,-11.38046 0.386143,-0.28234 0.853271,-0.98974 1.038069,-1.57198 0.184796,-0.58225 0.885952,-1.86904 1.558123,-2.859545 1.111757,-1.63827 1.153891,-1.8763 0.466557,-2.6358 -0.972147,-1.07421 -0.951375,-1.45226 0.147107,-2.67754 0.496474,-0.55378 1.172397,-2.01001 1.502052,-3.23607 0.329659,-1.226063 1.569506,-3.526215 2.755221,-5.111455 1.185715,-1.585259 2.178182,-3.106059 2.205478,-3.379594 0.02729,-0.273516 0.121037,-1.848973 0.208295,-3.501002 0.995904,-4.580728 -0.270701,-6.822686 0.0029,-8.756169 0.187427,-1.311211 0.780201,-3.591122 1.31726,-5.066476 0.537058,-1.475345 1.241845,-4.218776 1.566197,-6.096489 0.521761,-3.020503 0.93706,-4.124273 2.660878,-7.07194 0.993733,-1.858566 1.638776,-3.614823 2.600678,-5.548811 1.835777,-4.797961 2.820763,-10.490294 6.132633,-14.691566 1.72493,-2.08523 4.00198,-3.657892 5.29624,-3.657892 0.61152,0 2.77862,-0.662108 4.81577,-1.471352 2.03715,-0.809243 3.89221,-1.354973 4.12236,-1.212734 0.70137,0.433467 9.09262,-1.946746 9.97545,-2.829576 0.45469,-0.454687 1.22783,-0.826699 1.71809,-0.826699 1.34834,0 5.82644,-3.234284 10.00742,-7.227803 l 3.73749,-3.569901 -0.98404,-3.2581758 c -0.54121,-1.791995 -0.96233,-3.587385 -0.9358,-3.989754 0.1341,-2.033899 -0.0978,-2.306236 -1.91581,-2.250361 -1.70802,0.05248 -1.87707,-0.08224 -2.98947,-2.3829707 -1.76059,-3.6413298 -3.49136,-8.8152482 -3.49136,-10.4370435 0,-1.107022 -0.38219,-1.668743 -1.68192,-2.472016 -3.68428,-2.277011 -7.82715,-8.749924 -8.22099,-12.844657 -0.3893,-4.04753 1.88074,-8.839948 5.17114,-10.917078 3.5337,-3.924847 3.75817,-2.608579 8.42771,-4.191195 l 3.9398,-1.35001 1.42512,-3.008342 c 1.52968,-3.229083 5.81324,-9.179141 7.93166,-11.017456 0.71333,-0.619002 2.55268,-1.771241 4.08745,-2.560529 2.37836,-1.223125 3.34616,-1.435072 6.55305,-1.435072 9.93665,0 19.63175,5.121581 21.12456,11.159343 0.30634,1.239127 1.03226,3.240587 1.61309,4.447693 1.13687,2.362653 1.14214,2.382647 1.25334,4.755264 0.049,1.045196 0.3216,1.585088 0.80034,1.585088 1.06978,0 8.55032,5.449164 10.60952,7.728438 2.67485,2.960749 3.40487,4.744083 3.64961,8.915665 0.18646,3.17761 0.0826,3.893625 -0.67632,4.663508 -0.49314,0.500237 -1.44526,1.564201 -2.11587,2.364365 -0.67062,0.800154 -2.48128,2.437494 -4.0237,3.638534 -1.54241,1.201031 -2.80438,2.362606 -2.80438,2.5812742 0,0.2186777 -0.67671,0.6335009 -1.50384,0.9218292 -1.06538,0.3713842 -1.43984,0.7690942 -1.28431,1.3639098 0.12076,0.4618083 -0.29873,1.6959242 -0.93223,2.7424893 -0.63349,1.0465556 -1.15711,2.2320416 -1.1636,2.6344197 -0.0268,1.66819126 -2.97772,5.438649 -4.94621,6.319977 -1.49339,0.668602 -2.21274,1.400836 -2.91319,2.965322 -0.51156,1.142627 -0.79826,2.209414 -0.6371,2.370658 0.16115,0.161244 1.10943,0.6223868 2.10728,1.0247548 1.1785,0.475205 3.38784,2.467291 6.30465,5.684652 2.46967,2.724187 5.11306,5.170153 5.87414,5.435474 0.76109,0.265311 2.48957,1.58814 3.84104,2.939624 2.10998,2.110005 3.04181,2.635532 6.59446,3.719147 8.85245,2.700181 18.20834,7.450834 21.89642,11.118404 2.46484,2.451147 3.85441,6.86564 4.18347,13.290455 0.18124,3.538651 0.46806,5.125754 1.04514,5.782862 0.68134,0.775882 0.79839,2.418176 0.81669,11.461409 0.019,9.492331 0.12977,10.899546 1.09736,13.96825 0.6594,2.091239 1.07601,4.667835 1.07601,6.65477 0,2.04656 0.4047,4.47533 1.09737,6.58577 1.01958,3.106515 1.09737,4.207695 1.09737,15.536655 v 12.19318 l -1.33982,2.68228 c -1.29436,2.59135 -1.30918,2.70777 -0.43738,3.43405 2.20148,1.83397 2.60154,5.44781 1.29221,11.67216 -0.77455,3.68211 -1.62489,5.65358 -3.50587,8.12836 -0.65136,0.85704 -1.35436,2.70217 -1.59665,4.19067 -1.18132,7.25831 -6.89544,22.14653 -9.38476,24.4521 -1.49949,1.38883 -1.54027,1.39614 -5.88121,1.05656 l -4.3713,-0.34196 0.32644,3.57678 c 0.44056,4.82723 2.07456,20.64817 2.93841,28.45048 0.38613,3.4872 1.04494,10.51037 1.46405,15.60704 0.41913,5.09667 1.19359,14.53405 1.72101,20.97194 0.52746,6.43791 1.21125,18.62726 1.51953,27.08745 0.72773,19.9713 0.99759,19.38067 -9.4739,20.7377 -8.49427,1.10078 -16.91256,2.48216 -17.26313,2.83273 -0.17495,0.17495 -0.48568,3.55328 -0.69047,7.50737 -0.38057,7.34706 -1.5488,19.20631 -2.36578,24.01557 -0.25065,1.47535 -0.69451,6.41352 -0.98642,10.97369 -0.29185,4.56018 -0.76162,10.24227 -1.04391,12.62692 -0.3812,3.22057 -0.36497,4.86515 0.0631,6.3942 0.48075,1.71721 0.435,2.57531 -0.276,5.17485 -0.46879,1.714 -1.13595,3.68732 -1.48257,4.38515 -0.8042,1.61907 -3.46442,3.96076 -5.4194,4.77058 -2.34823,0.97265 -2.48995,3.29606 -0.44258,7.25522 0.43583,0.84283 0.79242,1.9542 0.79242,2.46981 0,1.60567 2.35642,8.24685 3.89083,10.9657 1.28017,2.26834 1.48009,3.14204 1.59104,6.95318 0.11452,3.93297 0.008,4.54613 -1.09239,6.27559 -1.81773,2.8575 -4.72568,5.49499 -6.48748,5.88414 -6.28211,1.38761 -13.30334,0.45948 -15.74231,-2.08096 -2.28122,-2.37616 -2.65079,-3.89697 -2.29719,-9.45342 0.46304,-7.27649 0.29658,-17.38405 -0.35736,-21.69802 -0.43503,-2.86999 -0.42979,-4.20956 0.0228,-5.82611 0.52474,-1.87416 0.47391,-2.33432 -0.47415,-4.29276 -1.0543,-2.17792 -1.05836,-2.2974 -0.56812,-16.7304 0.33698,-9.92036 0.82257,-16.78268 1.52909,-21.60877 0.56942,-3.88956 1.21259,-9.81536 1.42927,-13.16842 0.24346,-3.76774 0.71979,-6.9349 1.24694,-8.29125 1.04035,-2.67685 1.20774,-8.34307 0.27952,-9.46151 -0.71234,-0.85834 -4.84508,-1.03392 -10.89245,-0.46275 l -3.29212,0.31091 -0.004,7.85493 c -0.003,4.32017 -0.21279,9.72045 -0.46798,12.00054 -0.42146,3.76564 -0.79107,37.87657 -0.4545,41.9439 0.19686,2.3789 -0.87715,9.03033 -1.72191,10.66395 -0.52881,1.0226 -0.58804,1.82885 -0.24036,3.27197 0.63173,2.62208 0.61264,8.25967 -0.032,9.46429 -0.45211,0.84478 -0.86919,5.88487 -0.95852,11.58315 -0.0175,1.11372 -0.37263,1.80262 -1.21343,2.3535 -0.76504,0.50127 -1.08278,1.05508 -0.89145,1.55367 0.2128,0.55455 0.11406,0.66155 -0.34727,0.37643 -0.39266,-0.24269 -0.85394,-0.12335 -1.18025,0.30541 -0.93462,1.22803 -5.17736,3.8347 -6.24155,3.8347 -0.563,0 -1.74064,0.73826 -2.61694,1.64059 -0.87632,0.90228 -3.74199,2.70689 -6.36815,4.01022 -4.4749,2.22084 -5.03657,2.37632 -8.94194,2.47523 -2.91485,0.0738 -4.85032,-0.14203 -6.44059,-0.71817 z m 6.00334,-255.72924 c 0.99756,-0.99755 1.03366,-1.3516 0.75852,-7.43849 -0.57769,-12.78045 -1.94807,-18.83888 -3.84013,-16.97706 -0.52775,0.51932 -0.35527,1.43662 0.98132,5.21894 1.84096,5.20959 1.76926,6.0655 -0.70308,8.39194 -1.36015,1.27989 -1.65807,1.91805 -1.65807,3.55164 0,1.09527 0.32921,2.77932 0.73158,3.74233 0.40237,0.963 0.73158,2.11916 0.73158,2.56924 0,0.85502 0.88975,1.98887 1.5607,1.98887 0.2146,0 0.86151,-0.47134 1.43758,-1.04741 z m 91.79743,-38.00558 c 0.7068,-0.55596 1.28509,-1.19291 1.28509,-1.41545 0,-0.323 -2.53302,-1.47547 -3.24294,-1.47547 -0.0941,0 -0.1711,0.8779 -0.1711,1.95089 0,2.22026 0.32117,2.36206 2.12895,0.94003 z m -94.80317,-7.21535 c 0.007,-0.96021 -0.17703,-1.10481 -1.0899,-0.86017 -0.60357,0.16175 -1.41278,0.29708 -1.79827,0.30074 -0.45637,0.005 -0.21146,0.51754 0.70204,1.47103 1.50729,1.57326 2.17184,1.29615 2.18613,-0.9116 z"
       id="path6240"
       inkscape:connector-curvature="0" />
  </g>
</svg>
