<?xml version="1.0" encoding="UTF-8" standalone="no"?>
<svg
   xmlns:dc="http://purl.org/dc/elements/1.1/"
   xmlns:cc="http://creativecommons.org/ns#"
   xmlns:rdf="http://www.w3.org/1999/02/22-rdf-syntax-ns#"
   xmlns:svg="http://www.w3.org/2000/svg"
   xmlns="http://www.w3.org/2000/svg"
   xmlns:sodipodi="http://sodipodi.sourceforge.net/DTD/sodipodi-0.dtd"
   xmlns:inkscape="http://www.inkscape.org/namespaces/inkscape"
   sodipodi:docname="burglar.svg"
   inkscape:version="1.0 (4035a4fb49, 2020-05-01)"
   version="1.1"
   id="svg2"
   viewBox="0 0 312.5 500"
   height="500"
   width="312.5">
  <defs
     id="defs4" />
  <sodipodi:namedview
     inkscape:document-rotation="0"
     inkscape:guide-bbox="true"
     showguides="true"
     inkscape:window-maximized="1"
     inkscape:window-y="-8"
     inkscape:window-x="-8"
     inkscape:window-height="1017"
     inkscape:window-width="1920"
     units="px"
     showgrid="false"
     inkscape:current-layer="layer1"
     inkscape:document-units="px"
     inkscape:cy="104.22104"
     inkscape:cx="269.5316"
     inkscape:zoom="1.979899"
     inkscape:pageshadow="2"
     inkscape:pageopacity="0.0"
     borderopacity="1.0"
     bordercolor="#666666"
     pagecolor="#ffffff"
     id="base" />
  <metadata
     id="metadata7">
    <rdf:RDF>
      <cc:Work
         rdf:about="">
        <dc:format>image/svg+xml</dc:format>
        <dc:type
           rdf:resource="http://purl.org/dc/dcmitype/StillImage" />
        <dc:title></dc:title>
      </cc:Work>
    </rdf:RDF>
  </metadata>
  <g
     transform="translate(0,72.637839)"
     id="layer1"
     inkscape:groupmode="layer"
     inkscape:label="Layer 1">
    <path
       inkscape:export-ydpi="316.4415"
       inkscape:export-xdpi="316.4415"
       inkscape:export-filename="G:\apmeneel\Documents\Board Games\Masters of the Heist\decks\svg\crew\png\con artist.png"
       sodipodi:nodetypes="csssssssssssscsscscssssssscssssssscssscccssssssssssss"
       inkscape:connector-curvature="0"
       id="path2996"
       d="M 96.244034,418.85738 C 73.689292,416.99464 79.090204,413.81398 76.592257,360.77616 70.414167,229.59948 62.859537,157.4797 70.290355,141.73536 75.112842,131.51755 72.194494,129.85666 65.84399,121.41365 41.343096,88.839723 40.775543,85.987125 54.521644,64.506948 c 4.893894,-7.647389 15.3429,-22.350944 14.560196,-29.489396 -0.510784,-4.658384 2.937157,-9.182096 9.615552,-15.698125 2.104266,-2.053106 5.200111,-8.073267 6.773,-17.2176007 0.997022,-5.7964048 0.566592,-13.6636183 1.489321,-19.9659393 4.582239,-31.297192 7.027222,-37.292818 17.915157,-43.931609 13.02888,-7.944207 25.61713,-4.38508 36.66535,8.694884 5.01064,5.932078 9.70451,13.822443 13.97909,23.486159 4.03609,9.124589 3.00799,21.8174956 11.05171,33.6148703 l 15.73102,23.0720177 c 6.48254,7.02184 0.71105,35.666322 0,53.478199 l -2.56758,64.318032 c -0.24439,6.12201 -1.52481,20.18984 -2.23112,31.28745 -1.81623,8.13806 -1.10146,28.29876 -8.00759,36.11422 -3.2363,3.6624 -6.9313,5.83595 -10.45651,2.43998 l 2.85269,27.54533 c 1.16707,11.26914 3.30143,23.47958 5.17038,27.09373 1.86893,3.61414 9.13969,11.56506 16.1572,17.6687 12.67459,11.02401 28.33168,30.16709 40.44843,53.71647 4.34872,8.45191 9.88714,16.30926 14.89171,14.88126 6.2525,-1.78408 18.88144,16.99924 26.01727,28.87416 0.81467,1.35572 -4.88703,0.2577 -4.14942,1.5487 2.98907,5.23172 6.56279,11.1719 6.5833,13.88278 0.0498,6.57668 -10.01399,17.81193 -15.95468,17.81193 -3.48591,0 -4.02651,-2.38439 -6.47564,-7.54555 -1.89884,-4.0015 -3.45242,-8.10912 -3.45242,-9.12803 0,-1.01893 -4.16405,-6.64909 -9.25344,-12.5115 -5.08937,-5.86238 -11.91135,-15.5853 -15.15992,-21.60646 -6.15621,-11.41045 -52.56006,-59.64365 -57.38153,-59.64365 -2.87618,0 -3.11808,42.8456 -0.47551,84.22536 l 1.28051,20.0515 -6.03108,-1.2045 c -3.3171,-0.66249 -9.30423,-3.49341 -12.64445,-4.31015 -5.49015,-1.34243 -8.1707,0.0849 -7.57467,4.69428 0.36262,2.80434 2.61142,6.84229 1.69579,8.31295 -2.09695,3.36842 -26.67886,0.69266 -39.339726,-0.21007 z M 161.34861,152.74597 160.3656,81.288727 c -0.0262,-1.905599 -3.5517,0.416268 -6.25811,5.008099 -7.15692,12.142787 -9.16684,20.213854 -6.94416,27.884964 1.11746,3.85661 3.0003,13.26898 4.18407,20.91637 3.29253,21.27001 4.39417,25.66953 6.4277,25.66953 1.02973,0 3.63555,-3.51206 3.57351,-8.02172 z M 79.514269,98.910393 c 0.666822,-1.07896 1.803106,-6.27135 2.525068,-11.538636 1.138027,-8.302959 -4.112797,-8.675339 -7.785849,-9.841092 -10.510806,-3.33602 -11.311145,5.348605 -5.444389,16.693688 3.351956,6.481917 8.265856,8.632917 10.70517,4.68604 z"
       style="opacity:1;fill:#000000;stroke-width:0.954307" />
  </g>
</svg>
