<?xml version="1.0" encoding="UTF-8" standalone="no"?>
<svg
   xmlns:dc="http://purl.org/dc/elements/1.1/"
   xmlns:cc="http://creativecommons.org/ns#"
   xmlns:rdf="http://www.w3.org/1999/02/22-rdf-syntax-ns#"
   xmlns:svg="http://www.w3.org/2000/svg"
   xmlns="http://www.w3.org/2000/svg"
   xmlns:sodipodi="http://sodipodi.sourceforge.net/DTD/sodipodi-0.dtd"
   xmlns:inkscape="http://www.inkscape.org/namespaces/inkscape"
   sodipodi:docname="shutter bug.svg"
   inkscape:version="1.0 (4035a4fb49, 2020-05-01)"
   version="1.1"
   id="svg2"
   viewBox="0 0 312.5 500"
   height="500"
   width="312.5">
  <defs
     id="defs4" />
  <sodipodi:namedview
     inkscape:document-rotation="0"
     inkscape:snap-global="true"
     inkscape:guide-bbox="true"
     showguides="true"
     inkscape:window-maximized="1"
     inkscape:window-y="-8"
     inkscape:window-x="-8"
     inkscape:window-height="1017"
     inkscape:window-width="1920"
     units="px"
     showgrid="false"
     inkscape:current-layer="layer1"
     inkscape:document-units="px"
     inkscape:cy="396.17837"
     inkscape:cx="364.48"
     inkscape:zoom="1.979899"
     inkscape:pageshadow="2"
     inkscape:pageopacity="0.0"
     borderopacity="1.0"
     bordercolor="#666666"
     pagecolor="#ffffff"
     id="base" />
  <metadata
     id="metadata7">
    <rdf:RDF>
      <cc:Work
         rdf:about="">
        <dc:format>image/svg+xml</dc:format>
        <dc:type
           rdf:resource="http://purl.org/dc/dcmitype/StillImage" />
        <dc:title></dc:title>
      </cc:Work>
    </rdf:RDF>
  </metadata>
  <g
     transform="translate(0,72.637839)"
     id="layer1"
     inkscape:groupmode="layer"
     inkscape:label="Layer 1">
    <path
       inkscape:connector-curvature="0"
       id="path814"
       d="m 172.43669,423.03318 c -1.8728,-1.41709 -7.2087,-1.06358 -2.60598,-13.95802 3.01092,-8.43483 0.57131,-8.95358 0.67007,-16.29131 0.0264,-1.873 0.13959,-7.52001 0.0619,-10.04396 -0.22287,-7.23636 -1.18856,-16.77027 -0.48826,-21.5273 0.59779,-4.06084 1.05151,-10.99796 1.00816,-15.41596 -0.0437,-4.41787 0.217,-9.47985 0.57834,-11.24887 0.36145,-1.76883 0.43366,-9.31538 0.16041,-16.76979 -0.38416,-10.48302 -0.79758,-14.20394 -1.82521,-16.42412 -2.18108,-4.71234 -3.22006,-10.53521 -2.88104,-16.1465 0.23959,-3.96632 -0.0437,-6.22319 -1.13486,-9.0428 -0.79981,-2.06657 -1.7002,-4.93529 -2.00081,-6.37513 -0.30048,-1.43977 -0.74229,-3.48602 -0.98151,-4.54719 -0.23901,-1.06105 -0.64855,-3.07429 -0.90966,-4.47352 -0.261,-1.39938 -1.168,-3.99799 -2.01538,-5.7748 -0.84743,-1.7768 -1.56115,-3.91019 -1.5862,-4.74087 -0.0328,-1.11596 -0.26803,-1.27928 -0.8978,-0.62506 -0.62976,0.65385 -0.36597,2.35964 1.00982,6.52997 1.73119,5.24758 1.88493,7.00776 2.18493,25.01449 0.17741,10.65336 0.0205,20.80015 -0.35063,22.54861 -0.37032,1.74847 -0.50609,5.76183 -0.30158,8.91854 0.20439,3.15675 0.37632,8.35527 0.38204,11.55211 0.005,3.19689 0.0146,7.55631 0.0206,9.68743 0.009,4.0726 1.34919,15.6517 3.75575,32.48048 2.03115,14.20356 1.88401,26.66646 -0.37297,31.58954 -1.57949,3.44541 -2.67028,3.62969 -9.03495,1.52661 -5.75725,-1.9023 -6.56749,-1.84263 -11.49291,0.84622 -7.41725,4.04966 -15.29625,5.85879 -26.43052,6.06873 -7.83815,0.14779 -8.9341,6e-5 -10.23161,-1.38072 -1.13634,-1.20894 -1.3041,-1.99435 -0.7693,-3.60196 0.78192,-2.35067 3.45677,-4.0965 9.51834,-6.21234 5.26083,-1.83631 8.52213,-5.27924 8.22809,-8.68622 -0.11314,-1.31401 0.0264,-2.78181 0.31057,-3.26177 0.49864,-0.84194 2.37827,-11.08693 2.47001,-13.46311 0.11022,-2.86128 0.69812,-7.00271 1.08668,-7.65871 0.98965,-4.67425 -0.16422,1.92297 0.74443,-6.83417 0.85049,-6.36783 1.38241,-4.87632 1.00734,-11.27809 0.23548,-4.57302 0.30659,-10.61861 0.1563,-11.29381 -0.26509,-1.1669 -0.71723,-5.08161 -1.00437,-8.69942 -2.97802,-10.10822 -1.43049,-9.41035 -2.93928,-15.8874 -0.88241,-3.78981 -1.89567,-8.97741 -2.2517,-11.52837 -0.35602,-2.55084 -0.84736,-4.96447 -1.09187,-5.36353 -0.24457,-0.39903 -0.39029,-2.31452 -0.32399,-4.25658 0.0663,-1.942 -0.26011,-5.09323 -0.72537,-7.00268 -0.46524,-1.90928 -1.12344,-5.73336 -1.46263,-8.49767 -0.33927,-2.76436 -0.76083,-5.26295 -0.9369,-5.55259 -0.17594,-0.28944 -0.54198,-3.07276 -0.81318,-6.18486 -1.23803,-14.20598 -2.3334,-22.15394 -3.46917,-25.17183 -0.67694,-1.79891 -0.98502,-3.28649 -0.68456,-3.30564 0.30031,-0.0235 -0.14017,-0.53377 -0.97913,-1.14411 -0.83894,-0.60983 -1.11006,-1.11697 -0.60251,-1.12653 0.61141,-0.012 0.89328,-1.58615 0.8352,-4.66589 l -0.0876,-4.64859 -3.3312,0.0628 c -3.71697,0.0701 -5.21008,-0.92032 -5.25848,-3.48805 -0.0175,-0.94965 -0.59076,-2.26419 -1.27297,-2.92116 -0.68224,-0.65705 -0.86692,-1.20154 -0.41039,-1.21014 0.46735,-0.009 0.80141,-1.5394 0.7644,-3.50205 -0.0401,-2.13977 -0.41486,-3.47985 -0.96962,-3.46939 -0.49714,0.009 -0.68787,-0.20762 -0.42383,-0.48107 0.26392,-0.27418 0.0527,-1.22926 -0.46908,-2.12256 -1.98965,-3.40454 -3.12202,-7.27735 -4.42144,-15.12147 -1.49875,-9.04783 -1.46756,-8.76676 -1.33061,-11.98791 0.0542,-1.27982 -0.14251,-5.08751 -0.43756,-8.46155 l -0.536434,-6.13458 2.908294,-1.36853 2.90822,-1.36842 -0.42718,-8.03425 c -0.24984,-4.47192 4.35493,-20.00856 -3.28381,-18.11785 -10.951544,-0.23226 -20.254414,-2.21756 -23.78417,-5.07583 -3.791919,-3.07044 -7.115357,-10.08721 -7.212275,-15.22713 -0.05073,-2.68873 -0.37175,-4.14198 -0.847337,-3.83562 0.753061,-3.49856 3.908984,-10.921885 4.593573,-12.879255 0.314127,-1.06903 1.754381,-5.62795 3.200597,-10.131 1.446176,-4.50307 2.858198,-10.11827 3.137768,-12.478205 0.27947,-2.35991 1.18408,-5.690233 2.00996,-7.400687 0.8259,-1.710396 2.36348,-8.008824 3.41682,-13.996383 3.83196,-21.782162 4.41546,-22.70117 19.200154,-30.242118 4.65654,-2.374982 15.57338,-8.914108 19.9258,-11.93532 1.0519,-0.730157 2.54713,-1.577759 3.32281,-1.8835 1.74121,-1.360551 -0.90262,-7.55933501 -1.46794,-8.938126 -0.48161,-1.206098 -1.63215,-0.885431 -2.32766,-3.443781 -3.9476,-8.88502 -2.51198,-12.566038 -5.83172,-19.008422 -0.25747,-1.29765 -0.44691,-0.131965 -2.45422,0.339698 -9.4804,2.233256 -16.17914,1.522805 -15.77964,-1.673534 0.23987,-1.919423 1.32838,-2.318532 10.84569,-3.977287 4.90938,-0.855608 5.93067,-1.271551 5.6047,-2.282609 -0.21935,-0.68054 -1.01276,-4.886765 -1.76339,-9.348409 -0.75068,-4.461732 -1.78986,-9.627874 -2.30933,-11.480317 -0.8495,-3.029658 -0.7971,-3.459149 0.52134,-4.272559 3.65108,-2.252375 22.2777,-8.474501 27.48213,-9.180142 2.22391,-0.301195 5.87474,-1.130235 8.11298,-1.841654 4.88391,-1.552247 4.37808,-2.010152 10.29462,9.320023 5.22091,9.998157 5.3329,10.083463 10.99721,8.378346 5.99973,-1.806083 12.17145,-1.918162 12.85463,-0.234013 1.12756,2.780515 -4.11723,7.78974 -10.73093,10.248943 -2.19244,0.815257 -3.83105,1.723181 -3.64131,2.017514 0.18973,0.294508 0.4248,2.439496 0.5223,4.766767 0.12789,7.254739 -2.09054,13.037843 -3.023,20.496243 0.62658,0.241929 -0.46427,0.379813 -0.58966,0.723735 -0.54835,1.505796 0.1231,4.640289 0.12961,4.977847 0.0206,1.099502 5.42887,5.842311 9.06265,7.94771197 1.7239,0.99885803 7.19371,4.39243703 12.11944,5.64747803 4.92574,1.25507 9.65826,2.53967 10.51674,2.854706 0.85848,0.3152992 5.65346,0.4174082 10.69122,2.121527 5.03778,1.704032 5.87483,-0.282983 8.81159,3.6858 2.93669,3.969252 18.64576,39.362732 22.85967,61.212307 3.49366,9.31202 7.00839,17.63861 7.8105,18.50348 1.77283,1.91142 2.06536,7.697485 0.57907,11.452135 -2.3497,5.93562 -11.41126,13.70334 -20.36692,17.45882 -2.78218,1.16659 -5.42967,2.12815 -5.88327,2.13671 -0.45366,0.009 -0.99963,0.49782 -1.21335,1.08821 -0.21377,0.59013 -2.00094,1.34554 -3.97156,1.67923 -4.10327,0.69526 -4.8982,1.90291 -3.04154,4.62334 1.04904,1.53694 1.18285,2.65923 0.68365,5.73404 -0.34137,2.10258 -0.35448,4.50273 -0.0293,5.33359 0.32533,0.83083 0.71112,5.67686 0.85745,10.7689 0.14634,5.09204 0.56098,18.32068 0.92122,29.39672 0.67505,20.74723 0.16245,26.85168 -2.443,29.09831 -0.58265,0.50235 -1.25741,1.90399 -1.49949,3.11446 -0.26479,1.32461 -1.07645,2.38032 -2.03807,2.65134 -1.11914,0.31533 -1.44023,0.83936 -1.07152,1.74834 1.2161,2.99893 6.32572,22.95598 5.97157,23.32377 -0.2126,0.22052 -0.0473,0.79516 0.3685,1.27645 0.80745,0.93651 1.74978,4.24068 15.94706,55.91714 21.284,77.4715 20.46184,74.27047 19.59524,76.29708 -0.61295,1.43328 -0.57385,1.9646 0.16128,2.1944 1.29505,0.40486 0.44803,1.73072 -1.12442,1.76036 -0.68506,0.012 -1.0205,-0.21054 -0.74544,-0.49597 0.27507,-0.2862 0.1865,-0.89434 -0.19705,-1.35257 -0.38352,-0.45852 -6.1744,-19.73756 -12.86867,-42.84282 -6.69433,-23.10541 -13.98598,-48.25332 -16.20373,-55.8843 -2.21768,-7.63095 -4.45105,-15.37136 -4.963,-17.20093 -1.18044,-4.21807 -2.73181,-3.81687 -2.88397,0.74602 -0.53492,16.03706 -2.15015,39.21327 -2.76146,39.62281 -0.43611,0.29238 -0.72135,5.87153 -0.67431,13.1882 0.13401,20.85591 0.0602,22.88274 -0.787,21.61111 -0.51699,-0.77562 -0.59954,0.10531 -0.25453,2.71741 0.70995,5.37557 -1.51621,32.13837 -2.24766,36.15976 -0.91112,4.25834 -0.78324,9.13413 -1.001,9.98018 -1.93084,7.72268 -1.61207,1.90758 -2.40832,8.99385 -0.0481,8.8e-4 -0.72758,1.00722 -0.3249,2.09167 0.95177,2.27006 -0.68974,2.4546 -0.71843,4.70949 1.36724,4.13413 1.42821,5.31996 0.33956,6.60858 -0.6275,0.74229 -1.34258,2.06325 -1.58899,2.93434 -0.24633,0.87107 -2.34214,3.52628 -4.65713,5.90059 l -4.20903,4.31678 -6.36051,0.36978 c -4.43138,0.25748 -6.76141,0.073 -7.68265,-0.6299 z"
       style="fill:#000000;fill-opacity:1;stroke-width:2.93247"
       sodipodi:nodetypes="csssscssssssssscssssssssssssssssssccccccscsssssscssscsssssscsssccccccssccssssssccccssssssssssssscccsssssszcsssssssscssssssccssssccsssssssscccccssscscc"
       inkscape:export-xdpi="112.5"
       inkscape:export-ydpi="112.5" />
  </g>
</svg>
