<?xml version="1.0" encoding="UTF-8" standalone="no"?>
<!-- Created with Inkscape (http://www.inkscape.org/) -->

<svg
   xmlns:dc="http://purl.org/dc/elements/1.1/"
   xmlns:cc="http://creativecommons.org/ns#"
   xmlns:rdf="http://www.w3.org/1999/02/22-rdf-syntax-ns#"
   xmlns:svg="http://www.w3.org/2000/svg"
   xmlns="http://www.w3.org/2000/svg"
   xmlns:sodipodi="http://sodipodi.sourceforge.net/DTD/sodipodi-0.dtd"
   xmlns:inkscape="http://www.inkscape.org/namespaces/inkscape"
   width="825"
   height="1125"
   viewBox="0 0 825.00001 1125"
   id="svg2"
   version="1.1"
   inkscape:version="0.91 r13725"
   sodipodi:docname="burglar.svg">
  <defs
     id="defs4" />
  <sodipodi:namedview
     id="base"
     pagecolor="#ffffff"
     bordercolor="#666666"
     borderopacity="1.0"
     inkscape:pageopacity="0.0"
     inkscape:pageshadow="2"
     inkscape:zoom="0.49497475"
     inkscape:cx="253.8412"
     inkscape:cy="539.89932"
     inkscape:document-units="px"
     inkscape:current-layer="layer1"
     showgrid="false"
     units="px"
     inkscape:window-width="1920"
     inkscape:window-height="1017"
     inkscape:window-x="-8"
     inkscape:window-y="-8"
     inkscape:window-maximized="1"
     showguides="true"
     inkscape:guide-bbox="true">
    <sodipodi:guide
       position="-1008.5714,760"
       orientation="0,1"
       id="guide4139"
       inkscape:label=""
       inkscape:color="rgb(0,0,255)" />
    <sodipodi:guide
       position="-760.00001,260"
       orientation="0,1"
       id="guide4141"
       inkscape:label=""
       inkscape:color="rgb(0,0,255)" />
    <sodipodi:guide
       position="75.000001,517.14286"
       orientation="1,0"
       id="guide4143"
       inkscape:label=""
       inkscape:color="rgb(0,0,255)" />
  </sodipodi:namedview>
  <metadata
     id="metadata7">
    <rdf:RDF>
      <cc:Work
         rdf:about="">
        <dc:format>image/svg+xml</dc:format>
        <dc:type
           rdf:resource="http://purl.org/dc/dcmitype/StillImage" />
        <dc:title />
      </cc:Work>
    </rdf:RDF>
  </metadata>
  <g
     inkscape:label="Layer 1"
     inkscape:groupmode="layer"
     id="layer1"
     transform="translate(0,72.637839)">
    <path
       style="fill:#000000;opacity:0.6"
       d="m 140.77496,802.55515 c -23.63468,-1.95192 -17.97517,-5.28488 -20.59272,-60.86218 -6.4739,-137.45749 -14.39025,-213.03041 -6.60364,-229.5286 5.05339,-10.70704 1.99531,-12.44746 -4.65926,-21.29473 -25.674011,-34.13359 -26.268739,-37.12277 -11.864467,-59.63143 5.128217,-8.01355 16.077527,-23.42112 15.257347,-30.90137 -0.53524,-4.88143 3.07779,-9.62174 10.07595,-16.44976 2.20502,-2.15141 5.4491,-8.45982 7.0973,-18.04199 1.04476,-6.07394 0.59372,-14.31784 1.56063,-20.92192 4.80164,-32.79572 7.36369,-39.07842 18.77294,-46.03508 13.65271,-8.32458 26.84369,-4.59504 38.42091,9.1112 5.25055,6.21611 10.16917,14.48427 14.64841,24.61069 4.22935,9.56148 3.15202,22.86213 11.58088,35.22437 l 16.48423,24.17672 c 6.79293,7.35805 0.74509,37.37405 0,56.03877 l -2.69052,67.39762 c -0.25609,6.41514 -1.59782,21.15654 -2.33795,32.78552 -1.90319,8.52771 -1.1542,29.65372 -8.391,37.84338 -3.39125,3.83776 -7.26317,6.11538 -10.95717,2.55681 l 2.98928,28.86422 c 1.22295,11.80871 3.4595,24.6038 5.41794,28.39099 1.95842,3.78719 9.5773,12.11881 16.93082,18.51469 13.28145,11.55185 29.68821,31.61151 42.38512,56.28845 4.55694,8.85659 10.36054,17.09015 15.60473,15.59378 6.55188,-1.8695 19.7855,17.81317 27.263,30.25667 0.85367,1.42063 -5.12103,0.27004 -4.3481,1.62286 3.13219,5.48221 6.87702,11.70681 6.89851,14.54749 0.0522,6.89158 -10.49346,18.66478 -16.7186,18.66478 -3.65281,0 -4.2193,-2.49856 -6.78569,-7.90684 -1.98976,-4.19309 -3.61773,-8.49739 -3.61773,-9.56508 0,-1.06772 -4.36343,-6.96746 -9.6965,-13.11056 -5.33305,-6.14308 -12.48167,-16.33154 -15.88578,-22.64099 -6.45098,-11.95679 -55.07667,-62.49943 -60.12899,-62.49943 -3.0139,0 -3.26738,44.89708 -0.49828,88.25812 l 1.34182,21.01158 -6.31985,-1.26217 c -3.47593,-0.69421 -9.74972,-3.66068 -13.24988,-4.51652 -5.75302,-1.40671 -8.56191,0.089 -7.93735,4.91904 0.37999,2.93862 2.73646,7.16991 1.77699,8.71098 -2.19735,3.5297 -27.95626,0.72583 -41.22333,-0.22013 z m 68.22182,-278.85298 -1.03008,-74.87866 c -0.0274,-1.99684 -3.72176,0.4362 -6.55775,5.24789 -7.4996,12.72419 -9.60576,21.18171 -7.27665,29.22012 1.17096,4.04127 3.14395,13.90431 4.3844,21.91786 3.45018,22.28843 4.60457,26.8986 6.73546,26.8986 1.07904,0 3.80963,-3.68022 3.74462,-8.40581 z m -85.75262,-56.41326 c 0.69875,-1.13062 1.88944,-6.57162 2.64597,-12.09111 1.19252,-8.70051 -4.30972,-9.09072 -8.15864,-10.31229 -11.01407,-3.49575 -11.85273,5.6047 -5.70507,17.49299 3.51245,6.79228 8.66163,9.04627 11.21774,4.91041 z"
       id="path2996"
       inkscape:connector-curvature="0"
       sodipodi:nodetypes="csssssssssssscsscscssssssscssssssscssscccssssssssssss"
       inkscape:export-filename="G:\apmeneel\Documents\Board Games\Masters of the Heist\decks\svg\crew\png\con artist.png"
       inkscape:export-xdpi="316.4415"
       inkscape:export-ydpi="316.4415" />
  </g>
</svg>
