<?xml version="1.0" encoding="UTF-8" standalone="no"?>
<!-- Created with Inkscape (http://www.inkscape.org/) -->

<svg
   xmlns:dc="http://purl.org/dc/elements/1.1/"
   xmlns:cc="http://creativecommons.org/ns#"
   xmlns:rdf="http://www.w3.org/1999/02/22-rdf-syntax-ns#"
   xmlns:svg="http://www.w3.org/2000/svg"
   xmlns="http://www.w3.org/2000/svg"
   xmlns:sodipodi="http://sodipodi.sourceforge.net/DTD/sodipodi-0.dtd"
   xmlns:inkscape="http://www.inkscape.org/namespaces/inkscape"
   width="825"
   height="1125"
   viewBox="0 0 825.00001 1125"
   id="svg2"
   version="1.1"
   inkscape:version="0.91 r13725"
   sodipodi:docname="lookout.svg">
  <defs
     id="defs4" />
  <sodipodi:namedview
     id="base"
     pagecolor="#ffffff"
     bordercolor="#666666"
     borderopacity="1.0"
     inkscape:pageopacity="0.0"
     inkscape:pageshadow="2"
     inkscape:zoom="0.98994949"
     inkscape:cx="299.21873"
     inkscape:cy="413.99531"
     inkscape:document-units="px"
     inkscape:current-layer="layer1"
     showgrid="false"
     units="px"
     inkscape:window-width="1920"
     inkscape:window-height="1017"
     inkscape:window-x="-8"
     inkscape:window-y="-8"
     inkscape:window-maximized="1"
     showguides="true"
     inkscape:guide-bbox="true">
    <sodipodi:guide
       position="-825.7143,765"
       orientation="0,1"
       id="guide4688"
       inkscape:label=""
       inkscape:color="rgb(0,0,255)" />
    <sodipodi:guide
       position="94.285715,260"
       orientation="0,1"
       id="guide4690"
       inkscape:label=""
       inkscape:color="rgb(0,0,255)" />
    <sodipodi:guide
       position="75.000001,1322.8571"
       orientation="1,0"
       id="guide4692"
       inkscape:label=""
       inkscape:color="rgb(0,0,255)" />
  </sodipodi:namedview>
  <metadata
     id="metadata7">
    <rdf:RDF>
      <cc:Work
         rdf:about="">
        <dc:format>image/svg+xml</dc:format>
        <dc:type
           rdf:resource="http://purl.org/dc/dcmitype/StillImage" />
        <dc:title />
      </cc:Work>
    </rdf:RDF>
  </metadata>
  <g
     inkscape:label="Layer 1"
     inkscape:groupmode="layer"
     id="layer1"
     transform="translate(0,72.637839)">
    <path
       inkscape:connector-curvature="0"
       id="path6240"
       d="m 120.78483,789.96126 c -1.31521,-0.47647 -3.19993,-1.7275 -4.18827,-2.78002 l -1.79696,-1.91367 0.62894,-2.70327 c 0.34592,-1.48682 0.99124,-3.2804 1.43402,-3.98576 0.44279,-0.70537 0.96133,-1.95308 1.15231,-2.77269 0.19098,-0.81956 1.36368,-2.65213 2.606,-4.07225 1.24232,-1.42017 2.99768,-3.98145 3.90079,-5.69177 0.90313,-1.71033 2.06754,-3.66171 2.5876,-4.3364 0.68834,-0.89302 0.79721,-1.4055 0.40022,-1.88386 -0.80376,-0.96849 -0.39218,-5.43097 0.5401,-5.85604 0.42322,-0.19294 1.57745,-0.77221 2.56497,-1.28726 0.98751,-0.51504 2.27695,-1.17639 2.86543,-1.46967 1.02969,-0.51315 0.99484,-0.60467 -0.92617,-2.43211 l -1.99612,-1.89885 0.27646,-7.10605 c 0.15205,-3.90835 0.33135,-8.14486 0.39843,-9.41452 0.0671,-1.26966 -0.17674,-7.84881 -0.54185,-14.62034 -0.3651,-6.77152 -0.65188,-17.99091 -0.63728,-24.93198 0.0193,-9.20204 -0.17654,-13.57865 -0.72326,-16.15932 -0.4124,-1.94656 -0.75381,-4.58956 -0.75871,-5.87333 -0.005,-1.28376 -0.28593,-2.61114 -0.6245,-2.94971 -0.34234,-0.34237 -1.98527,-0.6156 -3.70118,-0.6156 -2.57184,0 -3.81462,-0.35412 -7.46407,-2.12672 -2.40817,-1.16973 -5.25728,-2.81546 -6.33137,-3.65718 -1.07408,-0.84172 -3.72883,-2.21219 -5.89943,-3.04539 -2.1706,-0.83326 -4.754514,-2.15289 -5.742028,-2.93256 -0.987514,-0.77966 -2.529375,-1.79695 -3.426356,-2.26065 -0.896983,-0.46371 -1.773351,-1.29199 -1.947482,-1.84063 -0.616778,-1.9433 0.851981,-17.93994 2.782642,-30.30638 1.668119,-10.68478 2.479861,-16.67918 3.091452,-22.82914 1.458462,-14.66583 3.772402,-27.53975 7.468452,-41.55164 1.48929,-5.64596 1.69441,-7.07722 1.33725,-9.33066 -0.23203,-1.46395 -0.23332,-4.00328 -0.003,-5.64294 0.60194,-4.28268 -0.19672,-8.04966 -2.18733,-10.31685 -1.76388,-2.00895 -2.21171,-2.96115 -5.71805,-12.15814 -4.306258,-11.29512 -5.003453,-13.3865 -5.56964,-16.70728 -0.444609,-2.60768 -0.976056,-3.79757 -2.53465,-5.67496 -1.381571,-1.66415 -2.224877,-3.38181 -2.816298,-5.73626 -0.838346,-3.33748 -0.835447,-3.37993 0.417706,-6.11718 0.82848,-1.80964 1.17905,-3.32094 1.020668,-4.40007 -0.297331,-1.5865 0.44647,-2.83257 0.466969,-4.26139 0.05742,-4.00261 -3.299031,-9.341 -0.965143,-11.97021 0.406153,-0.29698 0.897489,-1.04104 1.091863,-1.65345 0.194373,-0.61242 0.931864,-1.96589 1.638868,-3.00772 1.16937,-1.72317 1.213688,-1.97354 0.490735,-2.7724 -1.022526,-1.12987 -1.000677,-1.52752 0.15473,-2.81629 0.522202,-0.58248 1.233153,-2.11417 1.579891,-3.40377 0.346743,-1.2896 1.650841,-3.70895 2.898002,-5.37634 1.247161,-1.66741 2.291059,-3.26702 2.319769,-3.55473 0.0287,-0.28769 0.12731,-1.94479 0.21909,-3.68243 1.04751,-4.81811 -0.28473,-7.17625 0.003,-9.20993 0.19714,-1.37916 0.82063,-3.77722 1.38552,-5.32903 0.56489,-1.5518 1.3062,-4.4374 1.64736,-6.41242 0.5488,-3.17703 0.98562,-4.338 2.79877,-7.43842 1.04523,-1.95488 1.7237,-3.80215 2.73545,-5.83636 1.93091,-5.0466 2.96694,-11.03392 6.45044,-15.45291 1.81431,-2.19329 4.20936,-3.84745 5.5707,-3.84745 0.64321,0 2.92261,-0.69642 5.06533,-1.5476 2.14272,-0.85118 4.09391,-1.42519 4.33599,-1.27558 0.73771,0.45593 9.56381,-2.04763 10.49239,-2.97621 0.47825,-0.47825 1.29146,-0.86954 1.80713,-0.86954 1.41821,0 6.12837,-3.40189 10.52602,-7.60236 l 3.93117,-3.7549 -1.03503,-3.42702 c -0.56926,-1.88486 -1.0122,-3.77329 -0.9843,-4.19651 0.14105,-2.1393 -0.10281,-2.42575 -2.01509,-2.36698 -1.79653,0.0552 -1.97434,-0.0865 -3.14439,-2.50646 -1.85183,-3.83003 -3.67229,-9.27207 -3.67229,-10.97791 0,-1.16439 -0.40199,-1.75522 -1.76908,-2.60012 -3.8752,-2.39501 -8.23276,-9.20336 -8.64701,-13.51029 -0.40948,-4.25728 1.9782,-9.29805 5.43911,-11.48282 3.71683,-4.12824 3.95293,-2.74376 8.86445,-4.40839 l 4.14397,-1.41997 1.49897,-3.16424 c 1.60895,-3.39642 6.11449,-9.65482 8.3427,-11.5884 0.75029,-0.65108 2.68496,-1.86303 4.29926,-2.69322 2.50161,-1.28651 3.51957,-1.50944 6.89264,-1.50944 10.45159,0 20.64911,5.38699 22.21928,11.73764 0.32221,1.30334 1.08575,3.40852 1.69668,4.67818 1.19579,2.48509 1.20133,2.50612 1.31829,5.00169 0.0515,1.09936 0.33827,1.66723 0.84182,1.66723 1.12521,0 8.99341,5.73155 11.15932,8.12894 2.81347,3.11418 3.58132,4.98993 3.83874,9.37769 0.19612,3.34228 0.0869,4.0954 -0.71137,4.90518 -0.51869,0.52616 -1.52016,1.64526 -2.22552,2.48689 -0.70537,0.84162 -2.60986,2.56381 -4.23221,3.82709 -1.62234,1.26327 -2.94971,2.48504 -2.94971,2.71504 0,0.23001 -0.71178,0.66633 -1.58177,0.9696 -1.12059,0.39063 -1.51446,0.80895 -1.35087,1.43459 0.12702,0.48574 -0.31421,1.78381 -0.98054,2.88461 -0.66632,1.10079 -1.21707,2.34771 -1.2239,2.77094 -0.0282,1.75464 -3.13203,5.72049 -5.20253,6.64749 -1.57078,0.70325 -2.32741,1.47343 -3.06415,3.11899 -0.53807,1.20184 -0.83963,2.32391 -0.67012,2.49351 0.1695,0.1696 1.16692,0.65464 2.21648,1.07786 1.23957,0.49983 3.56341,2.59515 6.63137,5.97924 2.59765,2.86536 5.37803,5.43808 6.17855,5.71715 0.80053,0.27906 2.61858,1.67044 4.04009,3.09196 2.21932,2.21935 3.19944,2.77211 6.9362,3.91188 9.3112,2.84011 19.15192,7.83695 23.03113,11.69458 2.59257,2.57817 4.05415,7.22143 4.40026,13.97919 0.19063,3.72203 0.49232,5.39138 1.0993,6.08254 0.71665,0.81609 0.83977,2.54349 0.85901,12.05536 0.02,9.98424 0.1365,11.46438 1.15423,14.69211 0.69357,2.19961 1.13177,4.90973 1.13177,6.99963 0,2.15262 0.42568,4.70725 1.15424,6.92706 1.07242,3.26749 1.15424,4.42574 1.15424,16.34179 l 0,12.82505 -1.40925,2.82128 c -1.36144,2.72564 -1.37703,2.84809 -0.46005,3.61201 2.31556,1.92901 2.73636,5.73012 1.35918,12.27703 -0.81469,3.87292 -1.7091,5.94656 -3.68756,8.54959 -0.68511,0.90145 -1.42454,2.8422 -1.67939,4.40784 -1.24253,7.63444 -7.25277,23.2942 -9.87109,25.71925 -1.5772,1.4608 -1.62009,1.46849 -6.18599,1.11131 l -4.59782,-0.35968 0.34335,3.76213 c 0.46339,5.07739 2.18207,21.7182 3.09069,29.92484 0.40614,3.66791 1.09909,11.05503 1.53991,16.41582 0.44086,5.36079 1.25545,15.28723 1.8102,22.05875 0.5548,6.77153 1.27402,19.59255 1.59828,28.49117 0.76544,21.00624 1.04928,20.38501 -9.96486,21.81236 -8.93446,1.15783 -17.789,2.61079 -18.15774,2.97953 -0.18401,0.18401 -0.51084,3.73742 -0.72625,7.89641 -0.40029,7.7278 -1.62906,20.20162 -2.48838,25.2601 -0.26363,1.55181 -0.7305,6.74588 -1.03753,11.54237 -0.30698,4.7965 -0.80109,10.77304 -1.09801,13.28127 -0.40096,3.38746 -0.38388,5.11727 0.0664,6.72556 0.50566,1.8062 0.45754,2.70876 -0.2903,5.44302 -0.49309,1.80282 -1.19482,3.8784 -1.5594,4.61239 -0.84588,1.70298 -3.64395,4.16602 -5.70024,5.0178 -2.46992,1.02306 -2.61899,3.46687 -0.46552,7.6312 0.45842,0.88651 0.83349,2.05547 0.83349,2.5978 0,1.68888 2.47853,8.67422 4.09246,11.53396 1.34651,2.38589 1.55679,3.30487 1.67349,7.31351 0.12045,4.13678 0.008,4.78172 -1.149,6.6008 -1.91193,3.00558 -4.97058,5.77975 -6.82368,6.18907 -6.60766,1.45952 -13.99274,0.48329 -16.5581,-2.1888 -2.39944,-2.4993 -2.78816,-4.09892 -2.41624,-9.94331 0.48704,-7.65357 0.31195,-18.28492 -0.37587,-22.82245 -0.45758,-3.01872 -0.45207,-4.42771 0.024,-6.12803 0.55193,-1.97128 0.49847,-2.45529 -0.49872,-4.51522 -1.10894,-2.29078 -1.11321,-2.41646 -0.59756,-17.5974 0.35444,-10.43445 0.86519,-17.65239 1.60833,-22.72857 0.59892,-4.09113 1.27542,-10.32401 1.50333,-13.85084 0.25608,-3.96299 0.75709,-7.29427 1.31156,-8.72091 1.09426,-2.81557 1.27033,-8.77543 0.29401,-9.95183 -0.74926,-0.90282 -5.09616,-1.0875 -11.45692,-0.48673 l -3.46272,0.32703 -0.004,8.26198 c -0.003,4.54405 -0.22382,10.22418 -0.49223,12.62243 -0.4433,3.96078 -0.83207,39.8394 -0.47805,44.11751 0.20706,2.50218 -0.92261,9.4983 -1.81115,11.21657 -0.55621,1.0756 -0.61851,1.92363 -0.25281,3.44153 0.66446,2.75796 0.64439,8.68771 -0.0337,9.95475 -0.47554,0.88856 -0.91424,6.18984 -1.0082,12.18341 -0.0184,1.17143 -0.39194,1.89603 -1.27631,2.47546 -0.80468,0.52725 -1.13889,1.10976 -0.93764,1.63419 0.22382,0.58328 0.11997,0.69583 -0.36527,0.39593 -0.41301,-0.25526 -0.89819,-0.12974 -1.24141,0.32124 -0.98306,1.29167 -5.44566,4.03342 -6.565,4.03342 -0.59218,0 -1.83084,0.77652 -2.75256,1.72561 -0.92173,0.94904 -3.9359,2.84717 -6.69815,4.21804 -4.7068,2.33592 -5.29758,2.49946 -9.40533,2.6035 -3.0659,0.0776 -5.10167,-0.14939 -6.77436,-0.75539 z m 6.31445,-268.98158 c 1.04925,-1.04925 1.08722,-1.42165 0.79783,-7.82397 -0.60763,-13.44276 -2.04903,-19.81514 -4.03914,-17.85684 -0.5551,0.54623 -0.37368,1.51107 1.03218,5.48939 1.93636,5.47956 1.86094,6.37983 -0.73952,8.82683 -1.43063,1.34621 -1.74399,2.01744 -1.74399,3.73569 0,1.15203 0.34627,2.92335 0.76949,3.93626 0.42322,1.01291 0.76949,2.22898 0.76949,2.70239 0,0.89933 0.93586,2.09193 1.64158,2.09193 0.22572,0 0.90616,-0.49576 1.51208,-1.10168 z m 96.55453,-39.9751 c 0.74343,-0.58477 1.35169,-1.25473 1.35169,-1.4888 0,-0.33974 -2.66429,-1.55193 -3.411,-1.55193 -0.099,0 -0.17996,0.92339 -0.17996,2.05198 0,2.33532 0.33781,2.48447 2.23927,0.98875 z m -99.71604,-7.58926 c 0.007,-1.00997 -0.1862,-1.16207 -1.14638,-0.90475 -0.63484,0.17013 -1.48599,0.31248 -1.89146,0.31633 -0.48002,0.005 -0.22241,0.54436 0.73843,1.54726 1.5854,1.65479 2.28438,1.36332 2.29941,-0.95884 z"
       style="fill:#000000;opacity:0.6"
       sodipodi:nodetypes="cscssccssssssscssssscsssssssssssscsssssscacsssssscccsscccsscssscssssssscccsssscscsssssssssscsscsssssssccsssscsssccsscsssssscsscccscssssscsssscsssssssccsssssscccsscscccsssssssssscsssccscsc" />
  </g>
</svg>
