<?xml version="1.0" encoding="UTF-8" standalone="no"?>
<!-- Created with Inkscape (http://www.inkscape.org/) -->

<svg
   xmlns:dc="http://purl.org/dc/elements/1.1/"
   xmlns:cc="http://creativecommons.org/ns#"
   xmlns:rdf="http://www.w3.org/1999/02/22-rdf-syntax-ns#"
   xmlns:svg="http://www.w3.org/2000/svg"
   xmlns="http://www.w3.org/2000/svg"
   xmlns:sodipodi="http://sodipodi.sourceforge.net/DTD/sodipodi-0.dtd"
   xmlns:inkscape="http://www.inkscape.org/namespaces/inkscape"
   width="100"
   height="100"
   viewBox="0 0 26.458333 26.458334"
   version="1.1"
   id="svg848"
   inkscape:version="0.92.3 (2405546, 2018-03-11)"
   sodipodi:docname="alert.svg">
  <defs
     id="defs842" />
  <sodipodi:namedview
     id="base"
     pagecolor="#ffffff"
     bordercolor="#666666"
     borderopacity="1.0"
     inkscape:pageopacity="0.0"
     inkscape:pageshadow="2"
     inkscape:zoom="5.6"
     inkscape:cx="29.075202"
     inkscape:cy="48.92316"
     inkscape:document-units="mm"
     inkscape:current-layer="layer1"
     showgrid="false"
     inkscape:window-width="1920"
     inkscape:window-height="1137"
     inkscape:window-x="1912"
     inkscape:window-y="-8"
     inkscape:window-maximized="1"
     units="px" />
  <metadata
     id="metadata845">
    <rdf:RDF>
      <cc:Work
         rdf:about="">
        <dc:format>image/svg+xml</dc:format>
        <dc:type
           rdf:resource="http://purl.org/dc/dcmitype/StillImage" />
        <dc:title />
      </cc:Work>
    </rdf:RDF>
  </metadata>
  <g
     inkscape:label="Layer 1"
     inkscape:groupmode="layer"
     id="layer1"
     transform="translate(0,-270.54165)">
    <text
       xml:space="preserve"
       style="font-style:normal;font-weight:normal;font-size:10.58333302px;line-height:1.25;font-family:'Segoe UI Symbol';letter-spacing:0px;word-spacing:0px;fill:#000000;fill-opacity:1;stroke:none;stroke-width:0.26458332;-inkscape-font-specification:'Segoe UI Symbol';font-stretch:normal;font-variant:normal;"
       x="-3.7797618"
       y="275.83331"
       id="text1475"><tspan
         sodipodi:role="line"
         id="tspan1473"
         x="-3.7797618"
         y="285.4888"
         style="font-style:normal;font-variant:normal;font-weight:normal;font-stretch:normal;font-family:'Segoe UI Symbol';-inkscape-font-specification:'Segoe UI Symbol';stroke-width:0.26458332;" /></text>
    <path
       d="M 25.044399,295.14288 H 1.4139322 c -0.1647033,0 -0.3148758,-0.0485 -0.45051726,-0.14544 -0.12593107,-0.0968 -0.22766222,-0.21309 -0.30519344,-0.34879 -0.0775166,-0.13564 -0.1162749,-0.28096 -0.1162749,-0.43597 0,-0.14534 0.0387583,-0.29552 0.1162749,-0.45054 L 12.458931,272.80573 c 0.07752,-0.13564 0.184089,-0.23737 0.319717,-0.3052 0.135641,-0.0679 0.280972,-0.10178 0.435993,-0.10178 0.155009,0 0.300333,0.0339 0.435974,0.10178 0.135641,0.0679 0.24222,0.16959 0.319737,0.3052 l 11.829757,20.95641 c 0.07752,0.15502 0.116278,0.3052 0.116278,0.45054 0,0.15501 -0.03876,0.30033 -0.116278,0.43597 -0.07752,0.13564 -0.184089,0.2519 -0.319718,0.34879 -0.125931,0.097 -0.271261,0.14544 -0.435992,0.14544 z m -21.8018794,-1.76572 19.7552364,0.0473 -9.783116,-17.3738 z m 11.3880984,-5.29658 h -2.833362 v -8.4544 h 2.833362 z m 0.426532,2.77244 c 0,0.26404 -0.05075,0.50778 -0.152244,0.7312 -0.09138,0.2234 -0.223395,0.42143 -0.396062,0.59407 -0.16249,0.16249 -0.355442,0.29452 -0.57886,0.39608 -0.22343,0.0914 -0.462083,0.13705 -0.715961,0.13705 -0.253894,0 -0.492549,-0.0456 -0.715966,-0.13705 -0.223415,-0.10158 -0.416368,-0.23353 -0.578858,-0.39608 -0.16249,-0.17264 -0.289437,-0.37067 -0.380838,-0.59407 -0.09137,-0.22342 -0.137061,-0.46716 -0.137061,-0.7312 0,-0.2539 0.04569,-0.49763 0.137061,-0.73121 0.09137,-0.23356 0.218319,-0.43159 0.380838,-0.59408 0.16249,-0.17263 0.355443,-0.30974 0.578858,-0.41128 0.223417,-0.10157 0.462072,-0.15247 0.715966,-0.15247 0.253878,0 0.492531,0.0509 0.715961,0.15247 0.223418,0.10144 0.41637,0.23858 0.57886,0.41128 0.172639,0.16249 0.304661,0.36052 0.396062,0.59408 0.101493,0.23358 0.152244,0.47731 0.152244,0.73121 z"
       style="font-style:normal;font-variant:normal;font-weight:normal;font-stretch:normal;font-size:medium;line-height:25px;font-family:'Archivo Narrow';-inkscape-font-specification:'Archivo Narrow, Normal';text-align:center;letter-spacing:0px;word-spacing:0px;writing-mode:lr-tb;text-anchor:middle;fill:#000000;fill-opacity:1;stroke:none;stroke-width:1.90062344px;stroke-linecap:butt;stroke-linejoin:miter;stroke-opacity:1"
       id="path1080"
       inkscape:connector-curvature="0"
       sodipodi:nodetypes="ssccscccscccsccscccccccccscccscccscccscccs" />
  </g>
</svg>
