<?xml version="1.0" encoding="UTF-8" standalone="no"?>
<!-- Created with Inkscape (http://www.inkscape.org/) -->

<svg
   xmlns:dc="http://purl.org/dc/elements/1.1/"
   xmlns:cc="http://creativecommons.org/ns#"
   xmlns:rdf="http://www.w3.org/1999/02/22-rdf-syntax-ns#"
   xmlns:svg="http://www.w3.org/2000/svg"
   xmlns="http://www.w3.org/2000/svg"
   xmlns:sodipodi="http://sodipodi.sourceforge.net/DTD/sodipodi-0.dtd"
   xmlns:inkscape="http://www.inkscape.org/namespaces/inkscape"
   width="100"
   height="100"
   viewBox="0 0 26.458333 26.458334"
   version="1.1"
   id="svg848"
   inkscape:version="0.92.3 (2405546, 2018-03-11)"
   sodipodi:docname="alert.svg">
  <defs
     id="defs842" />
  <sodipodi:namedview
     id="base"
     pagecolor="#ffffff"
     bordercolor="#666666"
     borderopacity="1.0"
     inkscape:pageopacity="0.0"
     inkscape:pageshadow="2"
     inkscape:zoom="5.6"
     inkscape:cx="-0.65694086"
     inkscape:cy="48.92316"
     inkscape:document-units="mm"
     inkscape:current-layer="layer1"
     showgrid="false"
     inkscape:window-width="1920"
     inkscape:window-height="1147"
     inkscape:window-x="1912"
     inkscape:window-y="-8"
     inkscape:window-maximized="1"
     units="px" />
  <metadata
     id="metadata845">
    <rdf:RDF>
      <cc:Work
         rdf:about="">
        <dc:format>image/svg+xml</dc:format>
        <dc:type
           rdf:resource="http://purl.org/dc/dcmitype/StillImage" />
        <dc:title />
      </cc:Work>
    </rdf:RDF>
  </metadata>
  <g
     inkscape:label="Layer 1"
     inkscape:groupmode="layer"
     id="layer1"
     transform="translate(0,-270.54165)">
    <text
       xml:space="preserve"
       style="font-style:normal;font-weight:normal;font-size:10.58333302px;line-height:1.25;font-family:'Segoe UI Symbol';letter-spacing:0px;word-spacing:0px;fill:#000000;fill-opacity:1;stroke:none;stroke-width:0.26458332;-inkscape-font-specification:'Segoe UI Symbol';font-stretch:normal;font-variant:normal;"
       x="-3.7797618"
       y="275.83331"
       id="text1475"><tspan
         sodipodi:role="line"
         id="tspan1473"
         x="-3.7797618"
         y="285.4888"
         style="font-style:normal;font-variant:normal;font-weight:normal;font-stretch:normal;font-family:'Segoe UI Symbol';-inkscape-font-specification:'Segoe UI Symbol';stroke-width:0.26458332;" /></text>
    <path
       d="M 24.725326,294.83576 H 1.7330059 c -0.1602555,0 -0.3063725,-0.0472 -0.438351,-0.14151 -0.1225302,-0.0942 -0.2215141,-0.20734 -0.29695157,-0.33938 -0.0754232,-0.13197 -0.11313486,-0.27337 -0.11313486,-0.42419 0,-0.14142 0.0377116,-0.28754 0.11313486,-0.43837 L 12.479732,273.10183 c 0.07543,-0.13198 0.179117,-0.23096 0.311083,-0.29696 0.131978,-0.0661 0.273384,-0.099 0.424218,-0.099 0.150823,0 0.292223,0.033 0.424201,0.099 0.131978,0.0661 0.235679,0.16501 0.311102,0.29696 l 11.510292,20.39048 c 0.07543,0.15083 0.113137,0.29695 0.113137,0.43837 0,0.15082 -0.03771,0.29222 -0.113137,0.42419 -0.07543,0.13198 -0.179118,0.2451 -0.311084,0.33938 -0.122531,0.0944 -0.263936,0.14151 -0.424218,0.14151 z m -21.2131142,-1.71804 19.2217412,0.046 -9.518921,-16.90461 z m 11.0805602,-5.15354 h -2.756847 v -8.22609 h 2.756847 z m 0.415013,2.69757 c 0,0.25691 -0.04938,0.49406 -0.148133,0.71145 -0.08891,0.21737 -0.217362,0.41005 -0.385366,0.57803 -0.158102,0.1581 -0.345843,0.28656 -0.563228,0.38538 -0.217396,0.0889 -0.449604,0.13335 -0.696626,0.13335 -0.247037,0 -0.479247,-0.0444 -0.696631,-0.13335 -0.217382,-0.0988 -0.405124,-0.22722 -0.563226,-0.38538 -0.158102,-0.16798 -0.28162,-0.36066 -0.370553,-0.57803 -0.0889,-0.21739 -0.13336,-0.45454 -0.13336,-0.71145 0,-0.24705 0.04446,-0.48419 0.13336,-0.71147 0.0889,-0.22725 0.212423,-0.41993 0.370553,-0.57803 0.158102,-0.16797 0.345844,-0.30138 0.563226,-0.40018 0.217384,-0.0988 0.449594,-0.14835 0.696631,-0.14835 0.247022,0 0.47923,0.0495 0.696626,0.14835 0.217385,0.0987 0.405126,0.23214 0.563228,0.40018 0.167977,0.1581 0.296434,0.35078 0.385366,0.57803 0.09875,0.22728 0.148133,0.46442 0.148133,0.71147 z"
       style="font-style:normal;font-variant:normal;font-weight:normal;font-stretch:normal;font-size:medium;line-height:25px;font-family:'Archivo Narrow';-inkscape-font-specification:'Archivo Narrow, Normal';text-align:center;letter-spacing:0px;word-spacing:0px;writing-mode:lr-tb;text-anchor:middle;fill:#000000;fill-opacity:1;stroke:none;stroke-width:1.90062344px;stroke-linecap:butt;stroke-linejoin:miter;stroke-opacity:1"
       id="path1080"
       inkscape:connector-curvature="0"
       sodipodi:nodetypes="ssccscccscccsccscccccccccscccscccscccscccs" />
  </g>
</svg>
