<?xml version="1.0" encoding="UTF-8" standalone="no"?>
<!-- Created with Inkscape (http://www.inkscape.org/) -->

<svg
   xmlns:dc="http://purl.org/dc/elements/1.1/"
   xmlns:cc="http://creativecommons.org/ns#"
   xmlns:rdf="http://www.w3.org/1999/02/22-rdf-syntax-ns#"
   xmlns:svg="http://www.w3.org/2000/svg"
   xmlns="http://www.w3.org/2000/svg"
   xmlns:sodipodi="http://sodipodi.sourceforge.net/DTD/sodipodi-0.dtd"
   xmlns:inkscape="http://www.inkscape.org/namespaces/inkscape"
   width="100"
   height="100"
   viewBox="0 0 26.458333 26.458334"
   version="1.1"
   id="svg848"
   inkscape:version="0.92.4 (5da689c313, 2019-01-14)"
   sodipodi:docname="loot.svg">
  <defs
     id="defs842" />
  <sodipodi:namedview
     id="base"
     pagecolor="#ffffff"
     bordercolor="#666666"
     borderopacity="1.0"
     inkscape:pageopacity="0.0"
     inkscape:pageshadow="2"
     inkscape:zoom="5.6"
     inkscape:cx="64.634873"
     inkscape:cy="38.504383"
     inkscape:document-units="mm"
     inkscape:current-layer="layer1"
     showgrid="false"
     inkscape:window-width="3840"
     inkscape:window-height="2066"
     inkscape:window-x="2869"
     inkscape:window-y="-11"
     inkscape:window-maximized="1"
     units="px" />
  <metadata
     id="metadata845">
    <rdf:RDF>
      <cc:Work
         rdf:about="">
        <dc:format>image/svg+xml</dc:format>
        <dc:type
           rdf:resource="http://purl.org/dc/dcmitype/StillImage" />
        <dc:title />
      </cc:Work>
    </rdf:RDF>
  </metadata>
  <g
     inkscape:label="Layer 1"
     inkscape:groupmode="layer"
     id="layer1"
     transform="translate(0,-270.54165)">
    <text
       xml:space="preserve"
       style="font-style:normal;font-variant:normal;font-weight:normal;font-stretch:normal;font-size:10.58333302px;line-height:1.25;font-family:'Segoe UI Symbol';-inkscape-font-specification:'Segoe UI Symbol';letter-spacing:0px;word-spacing:0px;fill:#000000;fill-opacity:1;stroke:none;stroke-width:0.26458332"
       x="23.748999"
       y="279.50827"
       id="text1475"><tspan
         sodipodi:role="line"
         id="tspan1473"
         x="23.748999"
         y="289.04126"
         style="font-style:normal;font-variant:normal;font-weight:normal;font-stretch:normal;font-family:'Segoe UI Symbol';-inkscape-font-specification:'Segoe UI Symbol';stroke:none;stroke-width:0.26458332" /></text>
    <path
       style="opacity:1;vector-effect:none;fill:#000000;fill-opacity:1;stroke:none;stroke-width:0.99999994;stroke-linecap:butt;stroke-linejoin:miter;stroke-miterlimit:4;stroke-dasharray:none;stroke-dashoffset:0;stroke-opacity:1"
       d="M 50 4.0371094 A 45.961943 45.961943 0 0 0 4.0371094 50 A 45.961943 45.961943 0 0 0 50 95.962891 A 45.961943 45.961943 0 0 0 95.962891 50 A 45.961943 45.961943 0 0 0 50 4.0371094 z M 43.066406 12.931641 L 56.933594 12.931641 L 56.933594 22.263672 C 61.984384 23.290947 66.351424 25.345802 69.347656 27.400391 L 69.347656 23.119141 L 81.160156 23.119141 L 81.160156 44.09375 L 69.347656 44.09375 L 69.347656 40.925781 C 69.347656 36.902247 63.182876 34.591398 56.933594 33.478516 L 56.933594 42.894531 C 70.117013 44.521051 81.759766 47.603104 81.759766 62.15625 C 81.759766 71.658587 73.798099 78.165086 56.933594 79.449219 L 56.933594 87.068359 L 43.066406 87.068359 L 43.066406 79.277344 C 37.844403 78.763706 33.220179 77.479704 30.052734 75.767578 L 30.052734 78.164062 L 18.240234 78.164062 L 18.240234 56.419922 L 30.052734 56.419922 L 30.052734 59.501953 C 30.052734 63.696662 35.447416 66.522546 43.066406 67.806641 L 43.066406 57.533203 C 32.451185 55.906683 19.78125 51.798082 19.78125 39.984375 C 19.78125 27.999455 32.451185 23.289954 43.066406 22.005859 L 43.066406 12.931641 z M 43.066406 33.134766 C 39.299714 33.648403 37.330078 34.934092 37.330078 38.101562 C 37.330078 40.070507 39.813352 40.668003 43.066406 41.181641 L 43.066406 33.134766 z M 56.933594 58.818359 L 56.933594 67.892578 C 60.529073 67.207728 64.039062 65.922036 64.039062 63.439453 C 64.039063 60.015201 61.128318 59.331997 56.933594 58.818359 z "
       id="path821"
       transform="matrix(0.26458333,0,0,0.26458333,0,270.54165)" />
  </g>
</svg>
