<?xml version="1.0" encoding="UTF-8" standalone="no"?>
<svg
   xmlns:dc="http://purl.org/dc/elements/1.1/"
   xmlns:cc="http://creativecommons.org/ns#"
   xmlns:rdf="http://www.w3.org/1999/02/22-rdf-syntax-ns#"
   xmlns:svg="http://www.w3.org/2000/svg"
   xmlns="http://www.w3.org/2000/svg"
   xmlns:sodipodi="http://sodipodi.sourceforge.net/DTD/sodipodi-0.dtd"
   xmlns:inkscape="http://www.inkscape.org/namespaces/inkscape"
   sodipodi:docname="meeple.svg"
   inkscape:version="1.0 (4035a4fb49, 2020-05-01)"
   id="svg8"
   version="1.1"
   viewBox="0 0 79.375 79.375"
   height="79.375mm"
   width="79.375mm">
  <defs
     id="defs2" />
  <sodipodi:namedview
     fit-margin-bottom="0"
     fit-margin-right="0"
     fit-margin-left="0"
     fit-margin-top="0"
     showgrid="false"
     inkscape:document-rotation="0"
     inkscape:current-layer="layer1"
     inkscape:document-units="mm"
     inkscape:cy="468.09326"
     inkscape:cx="330.857"
     inkscape:zoom="0.35"
     inkscape:pageshadow="2"
     inkscape:pageopacity="0.0"
     borderopacity="1.0"
     bordercolor="#666666"
     pagecolor="#ffffff"
     id="base" />
  <metadata
     id="metadata5">
    <rdf:RDF>
      <cc:Work
         rdf:about="">
        <dc:format>image/svg+xml</dc:format>
        <dc:type
           rdf:resource="http://purl.org/dc/dcmitype/StillImage" />
        <dc:title></dc:title>
      </cc:Work>
    </rdf:RDF>
  </metadata>
  <g
     transform="translate(-18.294086,-24.316992)"
     id="layer1"
     inkscape:groupmode="layer"
     inkscape:label="Layer 1">
    <path
       id="path24"
       d="m 24.617264,103.61737 c -1.557639,-0.12237 -2.337486,-0.51261 -2.721445,-1.36183 -0.173691,-0.38417 -0.18952,-0.51976 -0.183531,-1.57205 0.01078,-1.895221 0.492651,-3.952019 1.646722,-7.028899 0.970899,-2.588515 3.06947,-6.936749 4.944754,-10.245506 0.272334,-0.480506 1.112281,-1.981591 1.866549,-3.335746 0.754267,-1.354152 1.658935,-2.962458 2.010371,-3.574014 0.886417,-1.542497 2.512681,-4.74801 2.941444,-5.797843 0.56047,-1.372328 0.722323,-1.976914 0.726225,-2.712729 0.0032,-0.606924 -0.01193,-0.666726 -0.240354,-0.948886 -0.354148,-0.437461 -1.089439,-0.809542 -1.958849,-0.99125 -0.742586,-0.155199 -1.896412,-0.2336 -5.744584,-0.390336 -2.038789,-0.08304 -3.343008,-0.219479 -4.251763,-0.444797 -3.275378,-0.812097 -4.992635,-2.788251 -5.319516,-6.121491 -0.387961,-3.956106 2.092792,-7.279734 7.928747,-10.622663 3.347871,-1.917715 7.024687,-3.424265 13.970292,-5.724231 4.058659,-1.343982 4.833463,-1.636316 4.91761,-1.855416 0.02757,-0.07177 0.101795,-0.881036 0.164956,-1.798367 0.180782,-2.625653 0.421983,-4.176432 0.920308,-5.916979 0.358515,-1.252235 0.618333,-1.948328 1.026815,-2.750998 1.92005,-3.772948 5.063518,-5.761341 9.590166,-6.066228 3.102531,-0.20897 5.95227,0.403202 8.027995,1.724544 2.005247,1.276481 3.591709,3.342419 4.440235,5.782212 0.778021,2.237062 1.117625,4.080978 1.336229,7.255164 0.07277,1.056625 0.153413,1.739708 0.214003,1.812668 0.19793,0.238342 0.825815,0.472672 4.753615,1.774069 6.882979,2.280538 10.559199,3.776669 13.911008,5.661438 5.150553,2.896229 7.840623,5.961192 8.102741,9.231961 0.236032,2.945239 -0.883038,5.44947 -2.994224,6.700432 -1.473356,0.873025 -3.119895,1.215716 -6.539017,1.360955 -5.557556,0.236079 -6.072906,0.295905 -7.01918,0.814834 -1.169937,0.641586 -1.277111,1.452954 -0.479549,3.630424 0.380277,1.038216 2.06745,4.437798 3.094196,6.23467 5.932319,10.381962 8.184582,14.900635 9.580035,19.220249 0.6836,2.116084 0.968427,3.609465 0.977038,5.122759 0.0059,1.04019 -0.01105,1.18977 -0.175291,1.54583 -0.21637,0.46905 -0.358191,0.63779 -0.73976,0.88016 -0.908413,0.57703 -1.594425,0.60694 -13.144976,0.57317 -8.572726,-0.0251 -9.743008,-0.0429 -10.104876,-0.15429 -1.62609,-0.50036 -2.552237,-1.6171 -5.586878,-6.73658 -3.632238,-6.12763 -4.849823,-7.842865 -5.981123,-8.425721 -0.538886,-0.277636 -1.018934,-0.154193 -1.707102,0.43898 -0.887367,0.764873 -2.563375,3.224055 -4.712468,6.914538 -0.99746,1.712867 -2.09326,3.49298 -3.006785,4.884483 -0.865626,1.31855 -1.720225,2.23869 -2.398302,2.58224 -0.980582,0.49682 -0.283228,0.46693 -11.245321,0.482 -5.507423,0.008 -10.384146,-0.0153 -10.83716,-0.0509 z"
       style="fill:#000000;stroke-width:0.999997" />
  </g>
</svg>
