<?xml version="1.0" encoding="UTF-8" standalone="no"?>
<!-- Created with Inkscape (http://www.inkscape.org/) -->

<svg
   xmlns:dc="http://purl.org/dc/elements/1.1/"
   xmlns:cc="http://creativecommons.org/ns#"
   xmlns:rdf="http://www.w3.org/1999/02/22-rdf-syntax-ns#"
   xmlns:svg="http://www.w3.org/2000/svg"
   xmlns="http://www.w3.org/2000/svg"
   xmlns:sodipodi="http://sodipodi.sourceforge.net/DTD/sodipodi-0.dtd"
   xmlns:inkscape="http://www.inkscape.org/namespaces/inkscape"
   width="100"
   height="100"
   viewBox="0 0 26.458333 26.458334"
   version="1.1"
   id="svg848"
   inkscape:version="0.92.3 (2405546, 2018-03-11)"
   sodipodi:docname="noise.svg">
  <defs
     id="defs842" />
  <sodipodi:namedview
     id="base"
     pagecolor="#ffffff"
     bordercolor="#666666"
     borderopacity="1.0"
     inkscape:pageopacity="0.0"
     inkscape:pageshadow="2"
     inkscape:zoom="3.959798"
     inkscape:cx="77.116865"
     inkscape:cy="-14.004033"
     inkscape:document-units="mm"
     inkscape:current-layer="layer1"
     showgrid="false"
     inkscape:window-width="1920"
     inkscape:window-height="1137"
     inkscape:window-x="1912"
     inkscape:window-y="-8"
     inkscape:window-maximized="1"
     units="px" />
  <metadata
     id="metadata845">
    <rdf:RDF>
      <cc:Work
         rdf:about="">
        <dc:format>image/svg+xml</dc:format>
        <dc:type
           rdf:resource="http://purl.org/dc/dcmitype/StillImage" />
        <dc:title></dc:title>
      </cc:Work>
    </rdf:RDF>
  </metadata>
  <g
     inkscape:label="Layer 1"
     inkscape:groupmode="layer"
     id="layer1"
     transform="translate(0,-270.54165)">
    <text
       xml:space="preserve"
       style="font-style:normal;font-weight:normal;font-size:10.58333302px;line-height:1.25;font-family:'Segoe UI Symbol';letter-spacing:0px;word-spacing:0px;fill:#000000;fill-opacity:1;stroke:none;stroke-width:0.26458332;-inkscape-font-specification:'Segoe UI Symbol';font-stretch:normal;font-variant:normal;"
       x="-3.7797618"
       y="275.83331"
       id="text1475"><tspan
         sodipodi:role="line"
         id="tspan1473"
         x="-3.7797618"
         y="285.4888"
         style="font-style:normal;font-variant:normal;font-weight:normal;font-stretch:normal;font-family:'Segoe UI Symbol';-inkscape-font-specification:'Segoe UI Symbol';stroke-width:0.26458332;" /></text>
    <text
       xml:space="preserve"
       style="font-style:normal;font-variant:normal;font-weight:normal;font-stretch:normal;font-size:10.58333302px;line-height:1.25;font-family:'Segoe UI Emoji';-inkscape-font-specification:'Segoe UI Emoji';letter-spacing:0px;word-spacing:0px;fill:#000000;fill-opacity:1;stroke:none;stroke-width:0.26458332"
       x="-205.24107"
       y="201.74998"
       id="text1483"><tspan
         sodipodi:role="line"
         id="tspan1481"
         x="-205.24107"
         y="201.74998"
         style="stroke-width:0.26458332;-inkscape-font-specification:'Segoe UI Symbol';font-family:'Segoe UI Symbol';font-weight:normal;font-style:normal;font-stretch:normal;font-variant:normal">🔊</tspan></text>
    <path
       style="font-style:normal;font-variant:normal;font-weight:normal;font-stretch:normal;font-size:medium;line-height:25px;font-family:'Archivo Narrow';-inkscape-font-specification:'Archivo Narrow, Normal';text-align:center;letter-spacing:0px;word-spacing:0px;writing-mode:lr-tb;text-anchor:middle;fill:#000000;fill-opacity:1;stroke:none;stroke-width:0.74897993px;stroke-linecap:butt;stroke-linejoin:miter;stroke-opacity:1"
       inkscape:connector-curvature="0"
       id="path941"
       d="m 19.585114,277.45274 q 1.318162,1.33331 1.969663,2.96965 0.651508,1.63633 0.651508,3.36357 0,1.72725 -0.651508,3.36358 -0.651501,1.63634 -1.969663,2.93935 -0.272718,0.25756 -0.636348,0.25756 -0.166663,0 -0.333334,-0.0606 -0.15151,-0.0606 -0.257566,-0.19696 -0.287879,-0.24242 -0.287879,-0.6212 0,-0.37879 0.287879,-0.6212 1.045434,-1.06059 1.560575,-2.37876 0.530293,-1.31815 0.530293,-2.69691 0,-1.37876 -0.530293,-2.68177 -0.515141,-1.31816 -1.575727,-2.37875 -0.272727,-0.27272 -0.272727,-0.63635 0,-0.37878 0.287879,-0.6212 0.257566,-0.25757 0.606052,-0.25757 0.36363,0 0.621196,0.25757 z m -3.015094,2.2727 q 0.818163,0.81816 1.242401,1.86359 0.424238,1.04545 0.424238,2.19693 0,1.12119 -0.424238,2.16663 -0.424238,1.0303 -1.242401,1.84845 -0.151512,0.12121 -0.318183,0.19697 -0.151511,0.0757 -0.318175,0.0757 -0.166662,0 -0.333325,-0.0757 -0.166663,-0.0757 -0.303023,-0.19697 -0.257574,-0.25756 -0.257574,-0.62119 0,-0.34849 0.257574,-0.63636 0.560597,-0.56059 0.878771,-1.25755 0.318174,-0.71211 0.318174,-1.49998 0,-0.78786 -0.318174,-1.51511 -0.318174,-0.72727 -0.878771,-1.28786 -0.257574,-0.25758 -0.257574,-0.62121 0,-0.34847 0.257574,-0.63634 0.287871,-0.25758 0.636348,-0.25758 0.348479,0 0.636358,0.25758 z m 5.999895,-4.48478 q 1.712086,1.71209 2.60601,3.90902 0.893923,2.19694 0.893923,4.63628 0,2.40905 -0.893923,4.60599 -0.893924,2.18177 -2.60601,3.89386 -0.272727,0.25758 -0.636357,0.25758 -0.378781,0 -0.636349,-0.25758 -0.257574,-0.25756 -0.257574,-0.62119 0,-0.34849 0.272727,-0.62121 1.45452,-1.45451 2.227228,-3.33327 0.772715,-1.87876 0.772715,-3.92418 0,-2.07572 -0.772715,-3.93932 -0.772708,-1.86361 -2.242381,-3.33327 -0.257574,-0.28787 -0.257574,-0.65151 0,-0.33332 0.257574,-0.6212 0.242416,-0.24242 0.621197,-0.24242 0.36363,0 0.651509,0.24242 z m -10.257401,-1.18179 q 0.363631,-0.27273 0.681805,-0.27273 0.287879,0 0.454541,0.24242 0.166664,0.22727 0.166664,0.66665 v 18.1512 q 0,0.43939 -0.181816,0.68181 -0.181814,0.22727 -0.469684,0.22727 -0.333335,0 -0.681813,-0.28787 -1.560575,-1.2121 -2.7878242,-2.16663 -0.530293,-0.40909 -1.0302906,-0.78787 -0.4999891,-0.39394 -0.909075,-0.69695 -0.3939338,-0.30303 -0.6515003,-0.5 -0.2424228,-0.19696 -0.2575747,-0.19696 H 0.7218108 q -0.13636756,0 -0.24242281,-0.12122 -0.0909034,-0.13636 -0.0909034,-0.30303 v -9.90891 q 0,-0.16665 0.0909034,-0.25757 0.10605547,-0.10609 0.24242281,-0.10609 h 5.9998951 q 0,-0.0151 0.2424228,-0.21211 0.2575664,-0.19698 0.6515003,-0.5 0.3939339,-0.31819 0.893923,-0.69696 0.4999893,-0.39393 1.0302824,-0.80302 1.2272576,-0.93937 2.7726796,-2.15147 z" />
  </g>
</svg>
