<?xml version="1.0" encoding="UTF-8" standalone="no"?>
<!-- Created with Inkscape (http://www.inkscape.org/) -->

<svg
   xmlns:dc="http://purl.org/dc/elements/1.1/"
   xmlns:cc="http://creativecommons.org/ns#"
   xmlns:rdf="http://www.w3.org/1999/02/22-rdf-syntax-ns#"
   xmlns:svg="http://www.w3.org/2000/svg"
   xmlns="http://www.w3.org/2000/svg"
   xmlns:sodipodi="http://sodipodi.sourceforge.net/DTD/sodipodi-0.dtd"
   xmlns:inkscape="http://www.inkscape.org/namespaces/inkscape"
   width="100"
   height="100"
   viewBox="0 0 26.458333 26.458334"
   version="1.1"
   id="svg848"
   inkscape:version="0.92.3 (2405546, 2018-03-11)"
   sodipodi:docname="noise.svg">
  <defs
     id="defs842" />
  <sodipodi:namedview
     id="base"
     pagecolor="#ffffff"
     bordercolor="#666666"
     borderopacity="1.0"
     inkscape:pageopacity="0.0"
     inkscape:pageshadow="2"
     inkscape:zoom="3.959798"
     inkscape:cx="35.069266"
     inkscape:cy="-14.004033"
     inkscape:document-units="mm"
     inkscape:current-layer="layer1"
     showgrid="false"
     inkscape:window-width="1920"
     inkscape:window-height="1147"
     inkscape:window-x="1912"
     inkscape:window-y="-8"
     inkscape:window-maximized="1"
     units="px" />
  <metadata
     id="metadata845">
    <rdf:RDF>
      <cc:Work
         rdf:about="">
        <dc:format>image/svg+xml</dc:format>
        <dc:type
           rdf:resource="http://purl.org/dc/dcmitype/StillImage" />
        <dc:title />
      </cc:Work>
    </rdf:RDF>
  </metadata>
  <g
     inkscape:label="Layer 1"
     inkscape:groupmode="layer"
     id="layer1"
     transform="translate(0,-270.54165)">
    <text
       xml:space="preserve"
       style="font-style:normal;font-weight:normal;font-size:10.58333302px;line-height:1.25;font-family:'Segoe UI Symbol';letter-spacing:0px;word-spacing:0px;fill:#000000;fill-opacity:1;stroke:none;stroke-width:0.26458332;-inkscape-font-specification:'Segoe UI Symbol';font-stretch:normal;font-variant:normal;"
       x="-3.7797618"
       y="275.83331"
       id="text1475"><tspan
         sodipodi:role="line"
         id="tspan1473"
         x="-3.7797618"
         y="285.4888"
         style="font-style:normal;font-variant:normal;font-weight:normal;font-stretch:normal;font-family:'Segoe UI Symbol';-inkscape-font-specification:'Segoe UI Symbol';stroke-width:0.26458332;" /></text>
    <text
       xml:space="preserve"
       style="font-style:normal;font-variant:normal;font-weight:normal;font-stretch:normal;font-size:10.58333302px;line-height:1.25;font-family:'Segoe UI Emoji';-inkscape-font-specification:'Segoe UI Emoji';letter-spacing:0px;word-spacing:0px;fill:#000000;fill-opacity:1;stroke:none;stroke-width:0.26458332"
       x="-205.24107"
       y="201.74998"
       id="text1483"><tspan
         sodipodi:role="line"
         id="tspan1481"
         x="-205.24107"
         y="201.74998"
         style="stroke-width:0.26458332;-inkscape-font-specification:'Segoe UI Symbol';font-family:'Segoe UI Symbol';font-weight:normal;font-style:normal;font-stretch:normal;font-variant:normal">🔊</tspan></text>
    <path
       style="font-style:normal;font-variant:normal;font-weight:normal;font-stretch:normal;font-size:medium;line-height:25px;font-family:'Archivo Narrow';-inkscape-font-specification:'Archivo Narrow, Normal';text-align:center;letter-spacing:0px;word-spacing:0px;writing-mode:lr-tb;text-anchor:middle;fill:#000000;fill-opacity:1;stroke:none;stroke-width:0.74897993px;stroke-linecap:butt;stroke-linejoin:miter;stroke-opacity:1"
       inkscape:connector-curvature="0"
       id="path941"
       d="m 19.022863,278.01164 q 1.201556,1.21537 1.795425,2.70695 0.593875,1.49158 0.593875,3.06603 0,1.57446 -0.593875,3.06604 -0.593869,1.49158 -1.795425,2.67933 -0.248594,0.23478 -0.580057,0.23478 -0.15192,0 -0.303847,-0.0552 -0.138107,-0.0552 -0.234781,-0.17954 -0.262413,-0.22098 -0.262413,-0.56625 0,-0.34528 0.262413,-0.56625 0.952954,-0.96677 1.422525,-2.16833 0.483383,-1.20155 0.483383,-2.45834 0,-1.25679 -0.483383,-2.44454 -0.469571,-1.20155 -1.436337,-2.16832 -0.248601,-0.2486 -0.248601,-0.58006 0,-0.34527 0.262413,-0.56625 0.234781,-0.23478 0.55244,-0.23478 0.331463,0 0.566245,0.23478 z m -2.748377,2.07166 q 0.745788,0.74578 1.132497,1.69873 0.38671,0.95297 0.38671,2.00259 0,1.02201 -0.38671,1.97497 -0.386709,0.93916 -1.132497,1.68493 -0.138109,0.11049 -0.290036,0.17955 -0.138109,0.069 -0.290029,0.069 -0.151919,0 -0.303839,-0.069 -0.15192,-0.069 -0.276218,-0.17955 -0.234789,-0.23477 -0.234789,-0.56623 0,-0.31767 0.234789,-0.58007 0.511007,-0.511 0.801035,-1.14631 0.290028,-0.64911 0.290028,-1.36729 0,-0.71816 -0.290028,-1.38108 -0.290028,-0.66294 -0.801035,-1.17394 -0.234789,-0.23479 -0.234789,-0.56625 0,-0.31765 0.234789,-0.58005 0.262406,-0.2348 0.580057,-0.2348 0.317652,0 0.580065,0.2348 z m 5.46914,-4.08806 q 1.560634,1.56064 2.375481,3.56323 0.814846,2.0026 0.814846,4.22615 0,2.19594 -0.814846,4.19854 -0.814847,1.98877 -2.375481,3.54941 -0.248601,0.23479 -0.580064,0.23479 -0.345274,0 -0.580057,-0.23479 -0.234789,-0.23478 -0.234789,-0.56624 0,-0.31766 0.248601,-0.56626 1.325852,-1.32584 2.030206,-3.0384 0.70436,-1.71257 0.70436,-3.57705 0,-1.8921 -0.70436,-3.59084 -0.704354,-1.69876 -2.044018,-3.03841 -0.234789,-0.26241 -0.234789,-0.59388 0,-0.30383 0.234789,-0.56625 0.220971,-0.22097 0.566245,-0.22097 0.331463,0 0.593876,0.22097 z M 12.393602,274.918 q 0.331464,-0.24861 0.621492,-0.24861 0.262413,0 0.414332,0.22098 0.151921,0.20716 0.151921,0.60767 v 16.54554 q 0,0.40052 -0.165733,0.62149 -0.16573,0.20717 -0.428135,0.20717 -0.303848,0 -0.6215,-0.26241 -1.422525,-1.10487 -2.541211,-1.97496 Q 9.3413851,290.26196 8.8856176,289.91669 8.4298579,289.5576 8.05696,289.28139 7.6978738,289.00517 7.4630918,288.82562 7.2421139,288.64609 7.2283024,288.64609 H 1.82822 q -0.1243044,0 -0.2209779,-0.1105 -0.082862,-0.1243 -0.082862,-0.27622 v -9.03236 q 0,-0.15191 0.082862,-0.23479 0.096674,-0.0967 0.2209779,-0.0967 h 5.4691403 q 0,-0.0138 0.2209779,-0.19335 0.2347819,-0.17956 0.5938682,-0.45577 0.3590862,-0.29004 0.8148459,-0.63531 0.45576,-0.35908 0.939143,-0.73198 1.1186937,-0.85627 2.5274067,-1.96115 z" />
  </g>
</svg>
