<?xml version="1.0" encoding="UTF-8" standalone="no"?>
<!-- Created with Inkscape (http://www.inkscape.org/) -->

<svg
   xmlns:dc="http://purl.org/dc/elements/1.1/"
   xmlns:cc="http://creativecommons.org/ns#"
   xmlns:rdf="http://www.w3.org/1999/02/22-rdf-syntax-ns#"
   xmlns:svg="http://www.w3.org/2000/svg"
   xmlns="http://www.w3.org/2000/svg"
   xmlns:sodipodi="http://sodipodi.sourceforge.net/DTD/sodipodi-0.dtd"
   xmlns:inkscape="http://www.inkscape.org/namespaces/inkscape"
   width="100"
   height="100"
   viewBox="0 0 26.458333 26.458334"
   version="1.1"
   id="svg848"
   inkscape:version="0.92.3 (2405546, 2018-03-11)"
   sodipodi:docname="reveal.svg">
  <defs
     id="defs842" />
  <sodipodi:namedview
     id="base"
     pagecolor="#ffffff"
     bordercolor="#666666"
     borderopacity="1.0"
     inkscape:pageopacity="0.0"
     inkscape:pageshadow="2"
     inkscape:zoom="3.959798"
     inkscape:cx="20.640617"
     inkscape:cy="46.648806"
     inkscape:document-units="mm"
     inkscape:current-layer="layer1"
     showgrid="false"
     inkscape:window-width="1920"
     inkscape:window-height="1137"
     inkscape:window-x="1912"
     inkscape:window-y="-8"
     inkscape:window-maximized="1"
     units="px" />
  <metadata
     id="metadata845">
    <rdf:RDF>
      <cc:Work
         rdf:about="">
        <dc:format>image/svg+xml</dc:format>
        <dc:type
           rdf:resource="http://purl.org/dc/dcmitype/StillImage" />
        <dc:title />
      </cc:Work>
    </rdf:RDF>
  </metadata>
  <g
     inkscape:label="Layer 1"
     inkscape:groupmode="layer"
     id="layer1"
     transform="translate(0,-270.54165)">
    <text
       xml:space="preserve"
       style="font-style:normal;font-weight:normal;font-size:10.58333302px;line-height:1.25;font-family:'Segoe UI Symbol';letter-spacing:0px;word-spacing:0px;fill:#000000;fill-opacity:1;stroke:none;stroke-width:0.26458332;-inkscape-font-specification:'Segoe UI Symbol';font-stretch:normal;font-variant:normal;"
       x="-3.7797618"
       y="275.83331"
       id="text1475"><tspan
         sodipodi:role="line"
         id="tspan1473"
         x="-3.7797618"
         y="285.4888"
         style="font-style:normal;font-variant:normal;font-weight:normal;font-stretch:normal;font-family:'Segoe UI Symbol';-inkscape-font-specification:'Segoe UI Symbol';stroke-width:0.26458332;stroke:none;" /></text>
    <path
       style="fill:#000000;fill-opacity:1;stroke:none;stroke-width:0.26458332"
       d="m 4.07556,274.61592 c -1.707735,1.70773 -2.7631475,4.06898 -2.763195,6.68024 -6e-7,5.0067 3.8778495,9.09043 8.799917,9.41935 l -2e-6,-0.0213 c 0.210901,0.0141 0.423228,0.0244 0.637628,0.0244 0.217413,-5e-5 0.433093,-0.01 0.646863,-0.0244 l -1.22e-4,0.0211 c 1.414463,-0.0945 2.742308,-0.49957 3.917057,-1.14707 l 5.347943,5.34795 c 1.028461,1.02846 2.684512,1.02846 3.712974,0 1.02846,-1.02846 1.02846,-2.68451 0,-3.71297 l -5.347174,-5.34717 c 0.745057,-1.35096 1.168989,-2.90498 1.168988,-4.55994 4.8e-5,-5.22217 -4.219718,-9.44203 -9.442034,-9.44203 -2.611208,0 -4.9711026,1.05405 -6.6788376,2.76178 z m 2.2540202,2.25451 c 1.1313856,-1.13139 2.6948859,-1.82969 4.4248278,-1.82969 3.459817,0 6.255451,2.7957 6.255419,6.25542 -2e-6,3.31697 -2.569115,6.02218 -5.829948,6.24016 l 1.29e-4,-0.014 c -0.141621,0.01 -0.284641,0.0161 -0.428677,0.0162 -0.142045,4e-5 -0.282673,-0.007 -0.422397,-0.016 l -5e-6,0.0141 c -3.2609005,-0.21792 -5.8299486,-2.92346 -5.8299474,-6.24042 3.17e-5,-1.72998 0.6992063,-3.29435 1.8305912,-4.42573 z"
       id="path860"
       inkscape:connector-curvature="0" />
  </g>
</svg>
