<?xml version="1.0" encoding="UTF-8" standalone="no"?>
<!-- Created with Inkscape (http://www.inkscape.org/) -->

<svg
   xmlns:dc="http://purl.org/dc/elements/1.1/"
   xmlns:cc="http://creativecommons.org/ns#"
   xmlns:rdf="http://www.w3.org/1999/02/22-rdf-syntax-ns#"
   xmlns:svg="http://www.w3.org/2000/svg"
   xmlns="http://www.w3.org/2000/svg"
   xmlns:sodipodi="http://sodipodi.sourceforge.net/DTD/sodipodi-0.dtd"
   xmlns:inkscape="http://www.inkscape.org/namespaces/inkscape"
   width="100"
   height="100"
   viewBox="0 0 26.458333 26.458334"
   version="1.1"
   id="svg848"
   inkscape:version="0.92.3 (2405546, 2018-03-11)"
   sodipodi:docname="subdue.svg">
  <defs
     id="defs842" />
  <sodipodi:namedview
     id="base"
     pagecolor="#ffffff"
     bordercolor="#666666"
     borderopacity="1.0"
     inkscape:pageopacity="0.0"
     inkscape:pageshadow="2"
     inkscape:zoom="5.12"
     inkscape:cx="52.964034"
     inkscape:cy="72.233331"
     inkscape:document-units="mm"
     inkscape:current-layer="g887"
     showgrid="false"
     inkscape:window-width="1920"
     inkscape:window-height="1137"
     inkscape:window-x="1912"
     inkscape:window-y="-8"
     inkscape:window-maximized="1"
     units="px" />
  <metadata
     id="metadata845">
    <rdf:RDF>
      <cc:Work
         rdf:about="">
        <dc:format>image/svg+xml</dc:format>
        <dc:type
           rdf:resource="http://purl.org/dc/dcmitype/StillImage" />
        <dc:title />
      </cc:Work>
    </rdf:RDF>
  </metadata>
  <g
     inkscape:label="Layer 1"
     inkscape:groupmode="layer"
     id="layer1"
     transform="translate(0,-270.54165)">
    <text
       xml:space="preserve"
       style="font-style:normal;font-weight:normal;font-size:10.58333302px;line-height:1.25;font-family:'Segoe UI Symbol';letter-spacing:0px;word-spacing:0px;fill:#000000;fill-opacity:1;stroke:none;stroke-width:0.26458332;-inkscape-font-specification:'Segoe UI Symbol';font-stretch:normal;font-variant:normal;"
       x="-3.7797618"
       y="275.83331"
       id="text1475"><tspan
         sodipodi:role="line"
         id="tspan1473"
         x="-3.7797618"
         y="285.4888"
         style="font-style:normal;font-variant:normal;font-weight:normal;font-stretch:normal;font-family:'Segoe UI Symbol';-inkscape-font-specification:'Segoe UI Symbol';stroke-width:0.26458332;" /></text>
    <g
       class=""
       id="g887"
       transform="matrix(0.04986401,-0.01913023,0.01913023,0.04986401,-5.4578571,274.1571)"
       style="fill:#000000;stroke-width:4.9540267">
      <path
         style="fill:#000000;stroke-width:4.9540267"
         d="m 169.46854,440.46497 c 10.41417,-4.63904 20.30555,-12.00744 21.98087,-16.37424 2.10135,-5.47728 10.20816,-8.60925 26.1398,-10.09878 22.13744,-2.06973 23.29148,-1.74466 27.86723,7.84961 10.2228,21.43481 38.34595,33.89922 68.05777,30.16379 7.6125,-0.95705 10.46993,0.53315 12.49531,6.51654 4.2036,12.41836 26.45539,26.70792 44.50317,28.57887 27.18955,2.81866 42.33639,-7.99117 75.72289,-54.041 52.38725,-72.25753 60.34276,-111.95855 29.86257,-149.02582 -7.81093,-9.49897 -18.8101,-26.92237 -24.4426,-38.71868 -12.56456,-26.31438 -28.4334,-41.87116 -56.49517,-55.38423 -14.8596,-7.1556 -24.44861,-13.08826 -33.31382,-25.49813 -11.4124,-15.97549 -17.25469,-22.00123 -46.24781,-33.02629 -22.97908,-8.73813 -37.0726,-11.77559 -48.0602,-10.35788 -10.23562,1.32064 -24.60706,-1.47011 -42.06879,-8.16927 -31.29233,-12.00524 -56.54728,-10.98664 -78.85502,3.18046 -22.49896,14.28842 -33.06415,29.66506 -49.097068,71.45567 -14.152808,36.89012 -15.434448,38.77321 -36.681044,53.8925 -47.975436,34.13987 -62.3952182,85.78464 -34.154073,122.32348 13.504559,17.47243 85.256175,70.36114 106.526145,78.52132 14.33635,5.50011 20.59131,5.1917 36.25984,-1.78792 z M 86.811567,389.29839 C 34.32762,349.21042 26.540882,336.23803 35.522486,303.85287 39.98982,287.74484 44.945069,279.81116 58.006574,267.85418 73.462427,253.70531 74.684256,253.3349 73.7775,263.07314 c -0.540573,5.80585 -4.009284,18.98432 -7.708208,29.28553 -15.462894,43.06322 24.025254,85.88566 69.404738,75.26511 l 17.57455,-4.11309 8.44055,16.40241 c 4.64231,9.02133 11.1288,17.43375 14.41443,18.69427 7.18484,2.75646 5.4735,8.44727 -5.37264,17.86601 -10.50913,9.12607 -22.71595,12.58405 -32.21015,9.12457 -4.19125,-1.5272 -27.3704,-17.86201 -51.509203,-36.29956 z M 347.83683,445.8931 c -2.30533,-9.23295 1.15655,-16.23276 29.90512,-60.4673 17.88174,-27.51407 32.1219,-52.08589 31.64481,-54.60402 -1.67365,-8.83365 -16.67768,-10.66483 -23.48357,-2.86607 -3.73572,4.28075 -19.12505,27.53878 -34.19846,51.68454 -22.96438,36.78613 -29.52744,44.55799 -40.49441,47.9527 -17.07849,5.28647 -38.73275,-3.09888 -45.13861,-17.47941 -5.9659,-13.39283 -6.4204,-12.19025 28.95746,-76.61982 24.19829,-44.06952 27.79323,-52.65776 24.9516,-59.60908 -2.5088,-6.13714 -5.41441,-7.70466 -11.89224,-6.41569 -6.75164,1.34346 -14.91906,13.88412 -38.45507,59.04583 -27.66262,53.08001 -30.92276,57.71297 -43.88077,62.3588 -23.3638,8.3766 -51.13671,-8.34658 -53.91565,-32.46477 -0.53298,-4.62568 11.14381,-35.8028 26.76165,-71.45378 15.23892,-34.78615 27.71793,-65.84062 27.73101,-69.01003 0.0342,-8.26797 -17.47074,-13.83102 -23.26384,-7.39315 -2.68712,2.98609 -15.21912,32.36414 -27.84898,65.2845 -13.77792,35.91296 -26.31364,63.14936 -31.33902,68.09044 -18.30226,17.99519 -54.13922,5.88681 -61.169561,-20.66763 -2.837988,-10.71934 0.723588,-24.77034 21.857591,-86.23162 24.58231,-71.4899 25.67596,-73.80209 41.48148,-87.70536 25.20014,-22.16717 39.70235,-24.19857 76.3776,-10.69868 23.03384,8.4786 37.06192,11.03886 54.28743,9.90804 29.85174,-1.95975 52.42328,9.6675 69.03391,35.56137 9.63578,15.02096 15.74135,19.9082 33.2746,26.63479 26.25167,10.0714 40.88185,23.71273 50.23289,46.83761 3.90947,9.66804 14.00108,25.23955 22.42579,34.60332 28.97317,32.20274 25.70953,57.69133 -14.70336,114.8312 -32.51203,45.9688 -40.60687,55.08105 -51.83623,58.35124 -14.01941,4.0827 -34.29392,-5.40583 -37.30317,-17.45797 z"
         id="path1432"
         inkscape:connector-curvature="0"
         sodipodi:nodetypes="sssscsssssscscscssssssccccccssssscsscssssssssscccssccsscsscsscc" />
    </g>
  </g>
</svg>
