<?xml version="1.0" encoding="UTF-8" standalone="no"?>
<!-- Created with Inkscape (http://www.inkscape.org/) -->

<svg
   xmlns:dc="http://purl.org/dc/elements/1.1/"
   xmlns:cc="http://creativecommons.org/ns#"
   xmlns:rdf="http://www.w3.org/1999/02/22-rdf-syntax-ns#"
   xmlns:svg="http://www.w3.org/2000/svg"
   xmlns="http://www.w3.org/2000/svg"
   xmlns:sodipodi="http://sodipodi.sourceforge.net/DTD/sodipodi-0.dtd"
   xmlns:inkscape="http://www.inkscape.org/namespaces/inkscape"
   width="100"
   height="100"
   viewBox="0 0 26.458333 26.458334"
   version="1.1"
   id="svg848"
   inkscape:version="0.92.3 (2405546, 2018-03-11)"
   sodipodi:docname="unlock.svg">
  <defs
     id="defs842" />
  <sodipodi:namedview
     id="base"
     pagecolor="#ffffff"
     bordercolor="#666666"
     borderopacity="1.0"
     inkscape:pageopacity="0.0"
     inkscape:pageshadow="2"
     inkscape:zoom="2.8"
     inkscape:cx="52.650894"
     inkscape:cy="11.701608"
     inkscape:document-units="mm"
     inkscape:current-layer="layer1"
     showgrid="false"
     inkscape:window-width="1920"
     inkscape:window-height="1137"
     inkscape:window-x="1912"
     inkscape:window-y="-8"
     inkscape:window-maximized="1"
     units="px" />
  <metadata
     id="metadata845">
    <rdf:RDF>
      <cc:Work
         rdf:about="">
        <dc:format>image/svg+xml</dc:format>
        <dc:type
           rdf:resource="http://purl.org/dc/dcmitype/StillImage" />
        <dc:title></dc:title>
      </cc:Work>
    </rdf:RDF>
  </metadata>
  <g
     inkscape:label="Layer 1"
     inkscape:groupmode="layer"
     id="layer1"
     transform="translate(0,-270.54165)">
    <text
       xml:space="preserve"
       style="font-style:normal;font-weight:normal;font-size:10.58333302px;line-height:1.25;font-family:'Segoe UI Symbol';letter-spacing:0px;word-spacing:0px;fill:#000000;fill-opacity:1;stroke:none;stroke-width:0.26458332;-inkscape-font-specification:'Segoe UI Symbol';font-stretch:normal;font-variant:normal;"
       x="-3.7797618"
       y="275.83331"
       id="text1475"><tspan
         sodipodi:role="line"
         id="tspan1473"
         x="-3.7797618"
         y="285.4888"
         style="font-style:normal;font-variant:normal;font-weight:normal;font-stretch:normal;font-family:'Segoe UI Symbol';-inkscape-font-specification:'Segoe UI Symbol';stroke-width:0.26458332;" /></text>
    <path
       id="path3353-7"
       d="m 7.4743343,272.26858 c -0.886444,0 -1.6524301,0.0731 -2.2978982,0.21944 -0.6454702,0.13768 -1.1962737,0.33991 -1.6524039,0.60674 -0.4561335,0.25814 -0.826176,0.57225 -1.1101838,0.94239 -0.2840058,0.37002 -0.5035088,0.7831 -0.658421,1.23928 -0.1635171,0.4561 -0.2710529,0.95095 -0.3226932,1.48458 -0.060245,0.53354 -0.090401,1.09302 -0.090401,1.67822 v 0.89067 h 2.5690111 v -0.89067 c 0,-0.65407 0.030112,-1.2049 0.090358,-1.65243 0.051644,-0.44752 0.1936551,-0.80897 0.426025,-1.08439 0.2323698,-0.27534 0.589516,-0.47332 1.0714669,-0.59384 0.4733436,-0.1291 1.1317406,-0.19358 1.9751506,-0.19358 0.8348092,0 1.4888324,0.0645 1.9621749,0.19358 0.4647373,0.12052 0.8133063,0.3185 1.0456763,0.59384 0.23237,0.27542 0.378707,0.63687 0.438947,1.08439 0.05164,0.44753 0.07743,0.99836 0.07743,1.65243 h -0.0054 v 3.4855 c -0.240972,0 -0.469054,0.0514 -0.68421,0.15489 -0.215155,0.0947 -0.4087566,0.22809 -0.5808798,0.40026 -0.1635173,0.16347 -0.2969585,0.3572 -0.4002336,0.58095 -0.094674,0.21512 -0.141991,0.44321 -0.141991,0.68412 v 9.70788 c 0,0.24955 0.047327,0.48628 0.141991,0.71004 0.094664,0.21512 0.2237887,0.40452 0.387308,0.56806 0.1635213,0.17204 0.3528594,0.30546 0.5680134,0.40012 0.223764,0.0946 0.460421,0.142 0.710002,0.142 H 23.34744 c 0.240978,0 0.469057,-0.0473 0.684212,-0.142 0.215156,-0.0946 0.404497,-0.22808 0.568014,-0.40012 0.163518,-0.16354 0.288322,-0.35294 0.374385,-0.56806 0.09466,-0.22376 0.141991,-0.46049 0.141991,-0.71004 v -9.70788 c 0,-0.24091 -0.04733,-0.469 -0.141991,-0.68412 -0.08606,-0.22375 -0.210867,-0.41748 -0.374385,-0.58095 -0.163517,-0.17217 -0.352858,-0.30553 -0.568014,-0.40026 -0.215155,-0.1032 -0.443234,-0.15489 -0.684212,-0.15489 h -9.715319 v -3.4855 c 0,-0.5852 -0.03011,-1.14468 -0.09036,-1.67822 -0.06025,-0.53363 -0.172156,-1.02848 -0.335675,-1.48458 -0.163516,-0.45618 -0.387277,-0.86926 -0.671285,-1.23928 -0.292616,-0.37014 -0.666971,-0.68425 -1.123104,-0.94239 -0.456129,-0.26683 -1.006939,-0.46906 -1.652406,-0.60674 -0.6454692,-0.14632 -1.4070857,-0.21944 -2.2849227,-0.21944 z"
       style="font-style:normal;font-weight:normal;font-size:medium;line-height:125%;font-family:sans-serif;letter-spacing:0px;word-spacing:0px;display:inline;fill:#000000;fill-opacity:1;stroke:none;stroke-width:0.16816643px;stroke-linecap:butt;stroke-linejoin:miter;stroke-opacity:1"
       inkscape:connector-curvature="0" />
  </g>
</svg>
