<?xml version="1.0" encoding="UTF-8" standalone="no"?>
<!-- Created with Inkscape (http://www.inkscape.org/) -->

<svg
   xmlns:dc="http://purl.org/dc/elements/1.1/"
   xmlns:cc="http://creativecommons.org/ns#"
   xmlns:rdf="http://www.w3.org/1999/02/22-rdf-syntax-ns#"
   xmlns:svg="http://www.w3.org/2000/svg"
   xmlns="http://www.w3.org/2000/svg"
   xmlns:sodipodi="http://sodipodi.sourceforge.net/DTD/sodipodi-0.dtd"
   xmlns:inkscape="http://www.inkscape.org/namespaces/inkscape"
   width="100"
   height="100"
   viewBox="0 0 26.458333 26.458334"
   version="1.1"
   id="svg848"
   inkscape:version="0.92.3 (2405546, 2018-03-11)"
   sodipodi:docname="unlock.svg">
  <defs
     id="defs842" />
  <sodipodi:namedview
     id="base"
     pagecolor="#ffffff"
     bordercolor="#666666"
     borderopacity="1.0"
     inkscape:pageopacity="0.0"
     inkscape:pageshadow="2"
     inkscape:zoom="1.4"
     inkscape:cx="124.22737"
     inkscape:cy="-12.988405"
     inkscape:document-units="mm"
     inkscape:current-layer="layer1"
     showgrid="false"
     inkscape:window-width="1920"
     inkscape:window-height="1137"
     inkscape:window-x="1912"
     inkscape:window-y="-8"
     inkscape:window-maximized="1"
     units="px" />
  <metadata
     id="metadata845">
    <rdf:RDF>
      <cc:Work
         rdf:about="">
        <dc:format>image/svg+xml</dc:format>
        <dc:type
           rdf:resource="http://purl.org/dc/dcmitype/StillImage" />
        <dc:title />
      </cc:Work>
    </rdf:RDF>
  </metadata>
  <g
     inkscape:label="Layer 1"
     inkscape:groupmode="layer"
     id="layer1"
     transform="translate(0,-270.54165)">
    <text
       xml:space="preserve"
       style="font-style:normal;font-weight:normal;font-size:10.58333302px;line-height:1.25;font-family:'Segoe UI Symbol';letter-spacing:0px;word-spacing:0px;fill:#000000;fill-opacity:1;stroke:none;stroke-width:0.26458332;-inkscape-font-specification:'Segoe UI Symbol';font-stretch:normal;font-variant:normal;"
       x="-3.7797618"
       y="275.83331"
       id="text1475"><tspan
         sodipodi:role="line"
         id="tspan1473"
         x="-3.7797618"
         y="285.4888"
         style="font-style:normal;font-variant:normal;font-weight:normal;font-stretch:normal;font-family:'Segoe UI Symbol';-inkscape-font-specification:'Segoe UI Symbol';stroke-width:0.26458332;" /></text>
    <path
       id="path3353-7"
       d="m 7.0961139,271.51263 c -0.9447031,0 -1.7610315,0.0779 -2.4489212,0.23386 -0.687892,0.14673 -1.2748955,0.36225 -1.7610036,0.64662 -0.4861116,0.2751 -0.8804741,0.60985 -1.1831476,1.00432 -0.3026712,0.39434 -0.5366005,0.83457 -0.7016938,1.32073 -0.17426389,0.48608 -0.28886716,1.01345 -0.34390135,1.58215 -0.0642048,0.56861 -0.096342,1.16486 -0.096342,1.78852 v 0.9492 H 3.2989565 v -0.9492 c 0,-0.69706 0.032091,-1.28409 0.096296,-1.76104 0.055038,-0.47693 0.2063826,-0.86213 0.4540243,-1.15565 0.2476417,-0.29344 0.6282603,-0.50443 1.1418861,-0.63287 0.5044528,-0.13759 1.2061211,-0.2063 2.1049619,-0.2063 0.8896747,0 1.5866818,0.0687 2.0911334,0.2063 0.4952809,0.12844 0.8667588,0.33943 1.1144008,0.63287 0.247642,0.29352 0.403596,0.67872 0.467795,1.15565 0.05504,0.47695 0.08252,1.06398 0.08252,1.76104 h -0.0058 v 3.71457 c -0.256809,0 -0.499882,0.0548 -0.729178,0.16507 -0.2292956,0.10095 -0.4356213,0.24308 -0.6190568,0.42657 -0.174264,0.17421 -0.3164753,0.38067 -0.4265379,0.61913 -0.1008966,0.22926 -0.1513229,0.47234 -0.1513229,0.72908 v 10.3459 c 0,0.26595 0.050437,0.51824 0.1513229,0.75671 0.100885,0.22926 0.2384966,0.4311 0.4127628,0.60539 0.1742683,0.18335 0.3760499,0.32554 0.6053449,0.42642 0.23847,0.10083 0.490681,0.15133 0.756665,0.15133 h 13.166217 c 0.256815,0 0.499884,-0.0504 0.72918,-0.15133 0.229296,-0.10083 0.431081,-0.24307 0.605345,-0.42642 0.174264,-0.17429 0.307271,-0.37613 0.39899,-0.60539 0.100885,-0.23847 0.151323,-0.49076 0.151323,-0.75671 v -10.3459 c 0,-0.25674 -0.05044,-0.49982 -0.151323,-0.72908 -0.09172,-0.23846 -0.224726,-0.44492 -0.39899,-0.61913 -0.174264,-0.18349 -0.376049,-0.32561 -0.605345,-0.42657 -0.229296,-0.10998 -0.472365,-0.16507 -0.72918,-0.16507 H 13.658559 v -3.71457 c 0,-0.62366 -0.03209,-1.21991 -0.0963,-1.78852 -0.06421,-0.5687 -0.18347,-1.09607 -0.357736,-1.58215 -0.174262,-0.48616 -0.412729,-0.92639 -0.715403,-1.32073 -0.311848,-0.39447 -0.710806,-0.72922 -1.196917,-1.00432 -0.486107,-0.28437 -1.073117,-0.49989 -1.761006,-0.64662 -0.6878909,-0.15594 -1.4995626,-0.23386 -2.4350929,-0.23386 z"
       style="font-style:normal;font-weight:normal;font-size:medium;line-height:125%;font-family:sans-serif;letter-spacing:0px;word-spacing:0px;display:inline;fill:#000000;fill-opacity:1;stroke:none;stroke-width:0.16816643px;stroke-linecap:butt;stroke-linejoin:miter;stroke-opacity:1"
       inkscape:connector-curvature="0" />
  </g>
</svg>
