<?xml version="1.0" encoding="UTF-8" standalone="no"?>
<!-- Created with Inkscape (http://www.inkscape.org/) -->

<svg
   xmlns:dc="http://purl.org/dc/elements/1.1/"
   xmlns:cc="http://creativecommons.org/ns#"
   xmlns:rdf="http://www.w3.org/1999/02/22-rdf-syntax-ns#"
   xmlns:svg="http://www.w3.org/2000/svg"
   xmlns="http://www.w3.org/2000/svg"
   xmlns:sodipodi="http://sodipodi.sourceforge.net/DTD/sodipodi-0.dtd"
   xmlns:inkscape="http://www.inkscape.org/namespaces/inkscape"
   width="825"
   height="1125"
   viewBox="0 0 825.00001 1125"
   id="svg2"
   version="1.1"
   inkscape:version="0.92.0 r15299"
   sodipodi:docname="angry locksmith.svg">
  <defs
     id="defs4" />
  <sodipodi:namedview
     id="base"
     pagecolor="#ffffff"
     bordercolor="#666666"
     borderopacity="1.0"
     inkscape:pageopacity="0.0"
     inkscape:pageshadow="2"
     inkscape:zoom="1.979899"
     inkscape:cx="16.183577"
     inkscape:cy="834.6549"
     inkscape:document-units="px"
     inkscape:current-layer="layer1"
     showgrid="false"
     units="px"
     inkscape:window-width="1920"
     inkscape:window-height="1017"
     inkscape:window-x="-8"
     inkscape:window-y="-8"
     inkscape:window-maximized="1"
     showguides="true"
     inkscape:guide-bbox="true"
     inkscape:snap-global="false">
    <sodipodi:guide
       position="240,765.71429"
       orientation="0,1"
       id="guide4708"
       inkscape:locked="false" />
    <sodipodi:guide
       position="268.57143,261.42857"
       orientation="0,1"
       id="guide4710"
       inkscape:locked="false" />
    <sodipodi:guide
       position="75.000001,630"
       orientation="1,0"
       id="guide5580"
       inkscape:label=""
       inkscape:color="rgb(0,0,255)"
       inkscape:locked="false" />
    <sodipodi:guide
       position="95.964491,1050.5586"
       orientation="1,0"
       id="guide1471"
       inkscape:locked="false"
       inkscape:label=""
       inkscape:color="rgb(0,0,255)" />
    <sodipodi:guide
       position="191.92898,1033.8911"
       orientation="0,1"
       id="guide1473"
       inkscape:locked="false"
       inkscape:label=""
       inkscape:color="rgb(0,0,255)" />
    <sodipodi:guide
       position="280.82241,997.02056"
       orientation="1,0"
       id="guide1475"
       inkscape:locked="false" />
    <sodipodi:guide
       position="186.87822,865.19565"
       orientation="0,1"
       id="guide1477"
       inkscape:locked="false"
       inkscape:label=""
       inkscape:color="rgb(0,0,255)" />
  </sodipodi:namedview>
  <metadata
     id="metadata7">
    <rdf:RDF>
      <cc:Work
         rdf:about="">
        <dc:format>image/svg+xml</dc:format>
        <dc:type
           rdf:resource="http://purl.org/dc/dcmitype/StillImage" />
        <dc:title />
      </cc:Work>
    </rdf:RDF>
  </metadata>
  <g
     inkscape:label="Layer 1"
     inkscape:groupmode="layer"
     id="layer1"
     transform="translate(0,72.637839)">
    <path
       sodipodi:nodetypes="cccsssscsssssccsssssssssscssscccsssssssssssscssssssssssssssssscssssssssssssssssssscscsssscsssssssccczzszzsssssscccsscccsscsccscscssssscs"
       inkscape:connector-curvature="0"
       id="path4163"
       d="m 174.56211,19.352385 c -0.27385,0.02757 -0.56024,0.06221 -0.86109,0.102579 -3.04583,0.318554 -6.92153,1.590537 -7.70565,5.212853 -0.17358,1.085061 0.45386,5.323019 0.91238,6.16347 0.21756,0.398778 0.0687,0.594012 -0.52761,0.69175 -1.25176,0.205158 -2.6218,1.606184 -2.65738,2.717137 -0.0339,1.057336 1.1722,1.81878 3.48316,1.375492 1.19802,-0.229799 1.27951,0.338102 1.34916,0.977221 0.016,0.148421 0.10991,0.462359 -0.2108,0.37041 -1.11277,-0.318952 -0.5119,2.132689 1.09004,3.804665 0.39141,0.408523 0.64432,0.612878 0.93702,0.595554 0.26093,-0.0154 0.34761,-0.345624 0.40686,-0.27507 0.32923,0.392021 0.41998,1.41594 0.45087,1.481778 0.66971,1.42706 1.99424,2.371789 2.02018,3.825669 -0.041,0.940538 -0.8669,2.640712 -0.8669,2.640712 -2.15764,2.742652 -3.98203,4.12407 -7.65226,5.795724 -4.23711,1.929833 -6.25875,4.266454 -6.35959,7.349919 -0.027,0.82501 -0.25959,2.160305 -0.51684,2.96756 -0.25728,0.807263 -0.43735,1.81154 -0.40058,2.231837 0.0368,0.420297 -0.2925,1.734797 -0.73178,2.921213 -0.53693,1.450141 -0.70438,2.532924 -0.50999,3.303388 0.36942,1.464096 -0.053,5.740695 -0.72877,7.376126 -0.28606,0.692247 -0.48177,1.696484 -0.43498,2.231295 0.0468,0.534808 -0.14686,1.403422 -0.4299,1.930559 -0.70718,1.317015 0.0422,4.881937 1.21943,5.800781 0.91113,0.711167 2.0213,2.904111 2.14738,4.241842 0.0431,0.469801 0.31268,0.825535 0.60364,0.800079 0.47885,-0.04189 0.67868,0.177216 1.1209,1.228658 0.0846,0.201087 0.51044,0.675557 0.94574,1.05445 0.43529,0.378886 1.43431,1.512501 2.22054,2.518984 l 1.42938,1.8301 0.51595,5.26056 c 0.28356,2.89342 0.41622,5.45849 0.2944,5.70048 -0.34871,0.69278 0.92476,4.57656 1.86036,5.67304 0.81823,0.95894 0.83056,1.0545 0.3642,2.82236 -0.45701,1.73238 -0.43202,1.98672 0.46274,4.76829 0.51986,1.61607 1.00429,3.78628 1.07638,4.82239 0.36584,5.259 1.06159,22.41102 1.05714,26.06289 -0.003,2.29358 0.15144,6.06417 0.34337,8.37925 0.1919,2.31509 0.21958,4.66733 0.061,5.22692 -0.15852,0.5596 -0.32625,2.50401 -0.37295,4.32138 -0.0755,2.93917 -0.22946,3.55293 -1.39285,5.55372 -2.11595,3.63912 -2.02484,5.79797 0.27793,6.56841 1.76499,0.59057 2.75495,0.44306 4.49206,-0.66841 0.83122,-0.53183 1.64156,-0.94388 1.8004,-0.91564 0.15883,0.0283 0.26952,-0.16888 0.24594,-0.43848 -0.0772,-0.8818 1.98058,-3.84901 2.71384,-3.91316 1.05929,-0.0927 1.85072,-1.83353 1.4523,-3.19511 -0.18262,-0.62411 -0.18913,-1.46883 -0.0144,-1.87747 0.17477,-0.40863 0.3003,-1.89844 0.27897,-3.31041 -0.0213,-1.41195 0.033,-3.68216 0.1207,-5.04499 0.17814,-2.76939 0.19042,-4.89496 0.0601,-10.42951 -0.049,-2.08056 -5e-5,-3.96122 0.10879,-4.17921 0.21596,-0.43257 0.37756,-2.90531 0.49794,-7.62484 0.0682,-2.67253 0.29327,-4.04364 1.51718,-9.23026 0.1507,-0.63864 0.3292,-3.5541 0.39682,-6.47879 0.0676,-2.9247 0.23087,-5.83882 0.36275,-6.47582 0.13187,-0.63698 0.35644,-2.5543 0.49909,-4.26074 0.14261,-1.70644 0.36205,-3.30661 0.48732,-3.55549 0.41406,-0.82264 0.78736,-0.19498 1.04369,1.75426 0.13901,1.05775 0.58994,2.43905 1.00177,3.06924 1.67365,2.56109 3.11769,6.48559 3.87653,10.53404 0.2495,1.33111 0.77619,3.32524 1.17012,4.43157 0.39396,1.10638 0.64475,2.3314 0.55739,2.72198 -0.0874,0.39056 0.0142,0.90015 0.22521,1.1323 0.38815,0.42698 1.12183,2.65124 2.21252,6.70595 0.32875,1.22214 0.94417,3.26027 1.36762,4.52922 0.42345,1.26895 0.68487,2.47586 0.58113,2.68196 -0.10375,0.20612 -0.003,0.66406 0.22287,1.01761 0.75848,1.18568 1.45818,3.5605 1.93342,6.56218 0.44759,2.827 0.74857,4.11812 2.16756,9.29939 0.33457,1.22162 0.92855,3.54585 1.32015,5.16473 0.6623,2.73803 0.79217,2.96796 1.86301,3.30014 0.63315,0.19635 1.33544,0.2671 1.56081,0.1572 0.57427,-0.28002 1.41711,0.6684 1.83097,2.0603 0.48024,1.61521 3.40134,2.81047 6.30428,2.57927 1.87606,-0.14958 2.06262,-0.2444 2.20855,-1.1249 0.22826,-1.37732 -0.83197,-3.83387 -2.3467,-5.43679 -2.74239,-2.90206 -3.90761,-6.63415 -5.3131,-17.01595 -0.48814,-3.60577 -1.05076,-7.30927 -1.25013,-8.23001 -0.90155,-4.1637 -2.26978,-13.10704 -2.34628,-15.33635 -0.0463,-1.35107 -0.24808,-4.23326 -0.4478,-6.40488 -0.20003,-2.17159 -0.51838,-5.6406 -0.70826,-7.70883 -0.18999,-2.06823 -0.29127,-4.27689 -0.22566,-4.9081 0.23499,-2.25972 -0.27035,-8.25282 -0.75897,-9.0009 -0.26776,-0.40987 -0.66868,-2.34328 -0.8912,-4.29667 -0.3891,-3.41595 -0.36773,-3.60768 0.56347,-5.020954 1.51409,-2.298021 3.88111,-4.986213 5.10847,-5.801796 1.06072,-0.704865 1.1086,-0.86151 0.92182,-2.996469 -0.10946,-1.251134 -0.0205,-2.383909 0.19994,-2.548342 0.23717,-0.176905 0.26915,-0.925869 0.08,-1.861443 -0.19963,-0.987339 -0.15046,-1.840223 0.1332,-2.309133 0.58205,-0.962016 0.44019,-2.399047 -0.57575,-5.815637 -0.45315,-1.523996 -1.22264,-4.441799 -1.7098,-6.484025 -0.48716,-2.042231 -1.23648,-5.047088 -1.66512,-6.677464 -0.42865,-1.630379 -0.81753,-3.32167 -0.86424,-3.758262 -0.1208,-1.128414 -3.54328,-6.651265 -4.81513,-7.770055 -0.58706,-0.516403 -1.95373,-1.142555 -3.03639,-1.391565 -2.12076,0.10885 -5.15354,-2.480139 -6.54333,-2.806533 -0.43096,-0.0964 -1.73242,-1.131833 -2.89205,-2.300917 0,0 -1.49755,-1.261547 -1.83919,-2.110718 -0.34165,-0.849172 -0.24129,-1.727626 -0.22884,-2.51239 0.0129,-0.784801 0.67523,-3.61791 0.82048,-3.925338 0,0 -0.12817,-0.259342 0.61136,-0.325256 0.73953,-0.066 -0.0825,-5.542283 -0.90207,-5.098598 -0.81961,0.443688 -0.62947,0.06615 -0.63186,-0.139369 -0.004,-0.309732 0.39826,-0.918913 0.58827,-1.046334 0.31609,-0.211978 0.96319,-0.629737 1.58761,-1.350723 0.8249,-0.95245 1.1591,-1.042632 1.08151,-1.929524 -0.12669,-1.448093 -0.5407,-1.711225 -2.80073,-1.778216 -1.4879,-0.04411 -1.75837,-0.188259 -2.14623,-1.148429 -2.20701,-5.463589 -3.40771,-6.573619 -7.51535,-6.158524 z m 21.061,59.383856 c 0.35961,0.08674 0.43065,0.301113 0.64893,0.491681 0.16508,0.144141 0.0966,0.382356 0.2229,0.63202 0.16993,0.335915 0.46063,0.912626 0.45749,1.289063 -0.003,0.376448 0.23979,0.606868 0.081,0.948276 -0.0978,0.210396 -0.25926,0.392789 -0.32644,0.614919 -0.19832,0.704552 -0.0116,1.257301 0.14216,1.814182 0.20884,0.352785 0.45332,0.693485 0.56602,1.087664 0.126,0.44088 0.0723,0.930034 -0.14695,1.333066 -0.21875,0.402985 -0.52967,0.708918 -0.96805,0.843411 -0.0864,-0.624388 -0.14365,-1.252983 -0.17074,-1.882745 -0.025,-0.584073 -0.0244,-1.169588 -0.0838,-1.751167 -0.0558,-0.545766 -0.16395,-1.085667 -0.20797,-1.632508 -0.0479,-0.593272 -0.0194,-1.189783 -0.03,-1.784898 -0.012,-0.670915 -0.0737,-1.341162 -0.18427,-2.002982 z m -29.95975,5.062544 c 0.0966,1.54131 0.49537,5.662157 0.49537,5.662157 0,0 -0.65638,-0.05738 -0.94446,-1.161762 -0.28807,-1.104392 -0.65713,-1.168343 -0.49229,-1.91029 0.0676,-0.304409 0.18099,-1.085085 0.34036,-1.823656 0.13598,-0.630056 0.31487,-1.24072 0.42448,-1.37624 0.0751,-0.09283 0.15337,0.240311 0.17654,0.609791 z"
       style="opacity:1;fill-opacity:1;stroke-width:1" />
  </g>
</svg>
