<?xml version="1.0" encoding="UTF-8" standalone="no"?>
<!-- Created with Inkscape (http://www.inkscape.org/) -->

<svg
   xmlns:dc="http://purl.org/dc/elements/1.1/"
   xmlns:cc="http://creativecommons.org/ns#"
   xmlns:rdf="http://www.w3.org/1999/02/22-rdf-syntax-ns#"
   xmlns:svg="http://www.w3.org/2000/svg"
   xmlns="http://www.w3.org/2000/svg"
   xmlns:sodipodi="http://sodipodi.sourceforge.net/DTD/sodipodi-0.dtd"
   xmlns:inkscape="http://www.inkscape.org/namespaces/inkscape"
   width="825"
   height="1125"
   viewBox="0 0 825.00001 1125"
   id="svg2"
   version="1.1"
   inkscape:version="0.92.0 r15299"
   sodipodi:docname="burglar.svg">
  <defs
     id="defs4" />
  <sodipodi:namedview
     id="base"
     pagecolor="#ffffff"
     bordercolor="#666666"
     borderopacity="1.0"
     inkscape:pageopacity="0.0"
     inkscape:pageshadow="2"
     inkscape:zoom="1.979899"
     inkscape:cx="107.0177"
     inkscape:cy="880.61985"
     inkscape:document-units="px"
     inkscape:current-layer="layer1"
     showgrid="false"
     units="px"
     inkscape:window-width="1920"
     inkscape:window-height="1017"
     inkscape:window-x="-8"
     inkscape:window-y="-8"
     inkscape:window-maximized="1"
     showguides="true"
     inkscape:guide-bbox="true">
    <sodipodi:guide
       position="-1008.5714,760"
       orientation="0,1"
       id="guide4139"
       inkscape:label=""
       inkscape:color="rgb(0,0,255)"
       inkscape:locked="false" />
    <sodipodi:guide
       position="-760.00001,260"
       orientation="0,1"
       id="guide4141"
       inkscape:label=""
       inkscape:color="rgb(0,0,255)"
       inkscape:locked="false" />
    <sodipodi:guide
       position="75.000001,517.14286"
       orientation="1,0"
       id="guide4143"
       inkscape:label=""
       inkscape:color="rgb(0,0,255)"
       inkscape:locked="false" />
    <sodipodi:guide
       position="95.964491,1050.5586"
       orientation="1,0"
       id="guide1471"
       inkscape:locked="false"
       inkscape:label=""
       inkscape:color="rgb(0,0,255)" />
    <sodipodi:guide
       position="191.92898,1033.8911"
       orientation="0,1"
       id="guide1473"
       inkscape:locked="false"
       inkscape:label=""
       inkscape:color="rgb(0,0,255)" />
    <sodipodi:guide
       position="280.82241,997.02056"
       orientation="1,0"
       id="guide1475"
       inkscape:locked="false" />
    <sodipodi:guide
       position="186.87822,865.19565"
       orientation="0,1"
       id="guide1477"
       inkscape:locked="false"
       inkscape:label=""
       inkscape:color="rgb(0,0,255)" />
  </sodipodi:namedview>
  <metadata
     id="metadata7">
    <rdf:RDF>
      <cc:Work
         rdf:about="">
        <dc:format>image/svg+xml</dc:format>
        <dc:type
           rdf:resource="http://purl.org/dc/dcmitype/StillImage" />
        <dc:title />
      </cc:Work>
    </rdf:RDF>
  </metadata>
  <g
     inkscape:label="Layer 1"
     inkscape:groupmode="layer"
     id="layer1"
     transform="translate(0,72.637839)">
    <path
       style="opacity:1;fill:#000000;stroke-width:0.99999982"
       d="m 173.14969,187.1665 c -7.62073,0.0944 -5.91149,-1.144 -8.43945,-18.84501 -6.25231,-43.77931 -11.08374,-67.71626 -9.09443,-73.231316 1.29104,-3.579185 0.25973,-4.042964 -2.13837,-6.67102 -9.25206,-10.139276 -9.53324,-11.077504 -5.6096,-18.716755 1.39689,-2.719728 4.43119,-7.982071 3.94127,-10.350252 -0.31972,-1.545406 0.692,-3.171868 2.72319,-5.569184 0.64001,-0.755369 1.48598,-2.872274 1.72182,-5.987995 0.14949,-1.974996 -0.24557,-4.598712 -0.13712,-6.740945 0.53859,-10.638257 1.16717,-12.726186 4.60567,-15.298853 4.11465,-3.078536 8.44823,-2.286597 12.56899,1.746235 1.86888,1.82898 3.69397,4.324568 5.43502,7.428029 1.64392,2.930318 1.70383,7.218318 4.77647,10.916925 l 6.00914,7.233354 c 2.39704,2.147399 1.3752,11.934265 1.70457,17.928259 l 1.18932,21.6441 c 0.11321,2.060164 0.13236,6.817131 0.2493,10.560068 -0.34949,2.78612 0.53275,9.5221 -1.53339,12.36231 -0.96822,1.33095 -2.13767,2.1774 -3.42771,1.15129 l 1.83432,9.14348 c 0.75046,3.74073 1.85519,7.76617 2.59694,8.91822 0.74175,1.15204 3.43267,3.58581 5.97979,5.40833 4.60047,3.29174 10.45958,9.2103 15.27229,16.71888 1.72727,2.69484 3.83444,5.15245 5.46667,4.5142 2.03925,-0.79739 6.87174,5.09706 9.64249,8.85062 0.31632,0.42853 -1.63015,0.24208 -1.34171,0.65145 1.16882,1.65863 2.55623,3.53613 2.64952,4.4443 0.22635,2.2032 -2.78939,6.29052 -4.78097,6.47987 -1.16863,0.11111 -1.42587,-0.671 -2.41143,-2.32319 -0.76413,-1.28095 -1.41589,-2.60849 -1.44837,-2.95007 -0.0325,-0.34159 -1.6079,-2.09635 -3.50095,-3.89947 -1.89304,-1.80311 -4.48998,-4.84523 -5.77096,-6.76023 -2.42754,-3.62907 -19.52157,-18.31988 -21.13793,-18.1662 -0.96422,0.0917 0.32036,14.46313 2.52521,28.25122 l 1.0684,6.68134 -2.06026,-0.21156 c -1.13316,-0.11637 -3.23055,-0.87458 -4.37638,-1.04192 -1.88332,-0.27505 -2.73646,0.2889 -2.38973,1.81517 0.21095,0.92857 1.09355,2.2106 0.83347,2.7328 -0.59562,1.19608 -8.92186,1.08258 -13.19509,1.18354 z m 13.34383,-91.287489 -2.6072,-23.924307 c -0.0687,-0.638092 -1.17741,0.252757 -1.93835,1.878399 -2.01227,4.298933 -2.42884,7.068766 -1.43918,9.569622 0.49755,1.257291 1.42878,4.352727 2.06938,6.878733 1.78176,7.025701 2.29131,8.465505 2.97304,8.400689 0.34521,-0.03282 1.10685,-1.293281 0.94231,-2.803136 z M 157.34306,80.439334 c 0.18915,-0.382972 0.40458,-2.1599 0.47873,-3.948749 0.11686,-2.81979 -1.65531,-2.777262 -2.92383,-3.050994 -3.63004,-0.783362 -3.62153,2.153628 -1.29311,5.769997 1.33033,2.066189 3.04625,2.630671 3.73821,1.229746 z"
       id="path2996"
       inkscape:connector-curvature="0"
       sodipodi:nodetypes="csssssssssssscsscscssssssscssssssscssscccssssssssssss"
       inkscape:export-filename="G:\apmeneel\Documents\Board Games\Masters of the Heist\decks\svg\crew\png\con artist.png"
       inkscape:export-xdpi="316.4415"
       inkscape:export-ydpi="316.4415" />
  </g>
</svg>
