<?xml version="1.0" encoding="UTF-8" standalone="no"?>
<!-- Created with Inkscape (http://www.inkscape.org/) -->

<svg
   xmlns:dc="http://purl.org/dc/elements/1.1/"
   xmlns:cc="http://creativecommons.org/ns#"
   xmlns:rdf="http://www.w3.org/1999/02/22-rdf-syntax-ns#"
   xmlns:svg="http://www.w3.org/2000/svg"
   xmlns="http://www.w3.org/2000/svg"
   xmlns:sodipodi="http://sodipodi.sourceforge.net/DTD/sodipodi-0.dtd"
   xmlns:inkscape="http://www.inkscape.org/namespaces/inkscape"
   width="825"
   height="1125"
   viewBox="0 0 825.00001 1125"
   id="svg2"
   version="1.1"
   inkscape:version="0.92.0 r15299"
   sodipodi:docname="freed prisoner.svg">
  <defs
     id="defs4" />
  <sodipodi:namedview
     id="base"
     pagecolor="#ffffff"
     bordercolor="#666666"
     borderopacity="1.0"
     inkscape:pageopacity="0.0"
     inkscape:pageshadow="2"
     inkscape:zoom="1.4"
     inkscape:cx="299.31238"
     inkscape:cy="819.08848"
     inkscape:document-units="px"
     inkscape:current-layer="layer1"
     showgrid="false"
     units="px"
     inkscape:window-width="1920"
     inkscape:window-height="1017"
     inkscape:window-x="-8"
     inkscape:window-y="-8"
     inkscape:window-maximized="1"
     showguides="true"
     inkscape:guide-bbox="true"
     inkscape:snap-global="false">
    <sodipodi:guide
       position="240,765.71429"
       orientation="0,1"
       id="guide4708"
       inkscape:locked="false" />
    <sodipodi:guide
       position="268.57143,261.42857"
       orientation="0,1"
       id="guide4710"
       inkscape:locked="false" />
    <sodipodi:guide
       position="75.000001,630"
       orientation="1,0"
       id="guide5580"
       inkscape:label=""
       inkscape:color="rgb(0,0,255)"
       inkscape:locked="false" />
    <sodipodi:guide
       position="95.964491,1050.5586"
       orientation="1,0"
       id="guide1471"
       inkscape:locked="false"
       inkscape:label=""
       inkscape:color="rgb(0,0,255)" />
    <sodipodi:guide
       position="191.92898,1033.8911"
       orientation="0,1"
       id="guide1473"
       inkscape:locked="false"
       inkscape:label=""
       inkscape:color="rgb(0,0,255)" />
    <sodipodi:guide
       position="280.82241,997.02056"
       orientation="1,0"
       id="guide1475"
       inkscape:locked="false" />
    <sodipodi:guide
       position="186.87822,865.19565"
       orientation="0,1"
       id="guide1477"
       inkscape:locked="false"
       inkscape:label=""
       inkscape:color="rgb(0,0,255)" />
  </sodipodi:namedview>
  <metadata
     id="metadata7">
    <rdf:RDF>
      <cc:Work
         rdf:about="">
        <dc:format>image/svg+xml</dc:format>
        <dc:type
           rdf:resource="http://purl.org/dc/dcmitype/StillImage" />
        <dc:title />
      </cc:Work>
    </rdf:RDF>
  </metadata>
  <g
     inkscape:label="Layer 1"
     inkscape:groupmode="layer"
     id="layer1"
     transform="translate(0,72.637839)">
    <flowRoot
       xml:space="preserve"
       id="flowRoot4490"
       style="fill:black;stroke:none;stroke-opacity:1;stroke-width:1px;stroke-linejoin:miter;stroke-linecap:butt;fill-opacity:1;font-family:'Archivo Narrow';font-style:normal;font-weight:normal;font-size:37.33333333px;line-height:25px;letter-spacing:0px;word-spacing:0px;-inkscape-font-specification:'Archivo Narrow, Normal';font-stretch:normal;font-variant:normal;text-anchor:middle;text-align:center;writing-mode:lr"><flowPara
         id="flowPara4496"></flowPara></flowRoot>    <g
       aria-label="TODO"
       style="font-style:normal;font-variant:normal;font-weight:normal;font-stretch:normal;font-size:37.33333206px;line-height:25px;font-family:'Archivo Narrow';-inkscape-font-specification:'Archivo Narrow, Normal';text-align:center;letter-spacing:0px;word-spacing:0px;writing-mode:lr-tb;text-anchor:middle;fill:#000000;fill-opacity:1;stroke:none;stroke-width:1px;stroke-linecap:butt;stroke-linejoin:miter;stroke-opacity:1"
       id="text4500"
       transform="translate(-422.85714,-15.714286)">
      <path
         d="m 560.77535,92.316614 h 6.98134 v 22.623996 h 3.28533 V 92.316614 h 6.98133 v -2.986667 h -17.248 z"
         id="path4502"
         inkscape:connector-curvature="0" />
      <path
         d="m 590.20452,88.881947 c -6.272,0 -10.08,4.368 -10.08,13.253333 0,8.88533 3.808,13.25333 10.08,13.25333 6.272,0 10.08,-4.368 10.08,-13.25333 0,-8.885333 -3.808,-13.253333 -10.08,-13.253333 z m 0,3.024 c 4.10667,0 6.64533,3.061333 6.64533,9.296003 v 1.86666 c 0,6.23467 -2.53866,9.296 -6.64533,9.296 -4.10667,0 -6.64533,-3.06133 -6.64533,-9.296 v -1.86666 c 0,-6.23467 2.53866,-9.296003 6.64533,-9.296003 z"
         id="path4504"
         inkscape:connector-curvature="0" />
      <path
         d="m 612.70427,114.94061 c 6.048,0 9.70666,-4.40533 9.70666,-13.17866 0,-8.25067 -3.65866,-12.432003 -9.70666,-12.432003 h -7.952 V 114.94061 Z M 612.4056,92.316614 c 4.032,0 6.57067,2.799999 6.57067,8.511996 v 1.86667 c 0,6.23467 -2.53867,9.25867 -6.57067,9.25867 h -4.368 V 92.316614 Z"
         id="path4506"
         inkscape:connector-curvature="0" />
      <path
         d="m 636.14202,88.881947 c -6.272,0 -10.08,4.368 -10.08,13.253333 0,8.88533 3.808,13.25333 10.08,13.25333 6.272,0 10.08,-4.368 10.08,-13.25333 0,-8.885333 -3.808,-13.253333 -10.08,-13.253333 z m 0,3.024 c 4.10666,0 6.64533,3.061333 6.64533,9.296003 v 1.86666 c 0,6.23467 -2.53867,9.296 -6.64533,9.296 -4.10667,0 -6.64533,-3.06133 -6.64533,-9.296 v -1.86666 c 0,-6.23467 2.53866,-9.296003 6.64533,-9.296003 z"
         id="path4508"
         inkscape:connector-curvature="0" />
    </g>
  </g>
</svg>
