<?xml version="1.0" encoding="UTF-8" standalone="no"?>
<svg
   xmlns:dc="http://purl.org/dc/elements/1.1/"
   xmlns:cc="http://creativecommons.org/ns#"
   xmlns:rdf="http://www.w3.org/1999/02/22-rdf-syntax-ns#"
   xmlns:svg="http://www.w3.org/2000/svg"
   xmlns="http://www.w3.org/2000/svg"
   xmlns:sodipodi="http://sodipodi.sourceforge.net/DTD/sodipodi-0.dtd"
   xmlns:inkscape="http://www.inkscape.org/namespaces/inkscape"
   width="825"
   height="1125"
   viewBox="0 0 825 1125"
   id="svg2"
   version="1.1"
   inkscape:version="1.0.1 (3bc2e813f5, 2020-09-07)"
   sodipodi:docname="hacktivist.svg">
  <defs
     id="defs4" />
  <sodipodi:namedview
     id="base"
     pagecolor="#ffffff"
     bordercolor="#666666"
     borderopacity="1.0"
     inkscape:pageopacity="0.0"
     inkscape:pageshadow="2"
     inkscape:zoom="2.8"
     inkscape:cx="306.84564"
     inkscape:cy="216.46793"
     inkscape:document-units="px"
     inkscape:current-layer="layer1"
     showgrid="false"
     units="px"
     inkscape:window-width="1920"
     inkscape:window-height="1017"
     inkscape:window-x="-8"
     inkscape:window-y="-8"
     inkscape:window-maximized="1"
     showguides="true"
     inkscape:guide-bbox="true"
     inkscape:snap-global="false"
     inkscape:document-rotation="0">
    <sodipodi:guide
       position="95.964491,1050.5586"
       orientation="1,0"
       id="guide1471"
       inkscape:locked="false"
       inkscape:label=""
       inkscape:color="rgb(0,0,255)" />
    <sodipodi:guide
       position="191.92898,1033.8911"
       orientation="0,1"
       id="guide1473"
       inkscape:locked="false"
       inkscape:label=""
       inkscape:color="rgb(0,0,255)" />
    <sodipodi:guide
       position="280.82241,997.02056"
       orientation="1,0"
       id="guide1475"
       inkscape:locked="false" />
    <sodipodi:guide
       position="186.87822,865.19565"
       orientation="0,1"
       id="guide1477"
       inkscape:locked="false"
       inkscape:label=""
       inkscape:color="rgb(0,0,255)" />
    <sodipodi:guide
       position="95.964491,1050.5586"
       orientation="1,0"
       id="guide7"
       inkscape:locked="false"
       inkscape:label=""
       inkscape:color="rgb(0,0,255)" />
    <sodipodi:guide
       position="191.92898,1033.8911"
       orientation="0,1"
       id="guide9"
       inkscape:locked="false"
       inkscape:label=""
       inkscape:color="rgb(0,0,255)" />
    <sodipodi:guide
       position="280.82241,997.02056"
       orientation="1,0"
       id="guide11"
       inkscape:locked="false" />
    <sodipodi:guide
       position="186.87822,865.19565"
       orientation="0,1"
       id="guide13"
       inkscape:locked="false"
       inkscape:label=""
       inkscape:color="rgb(0,0,255)" />
  </sodipodi:namedview>
  <metadata
     id="metadata7">
    <rdf:RDF>
      <cc:Work
         rdf:about="">
        <dc:format>image/svg+xml</dc:format>
        <dc:type
           rdf:resource="http://purl.org/dc/dcmitype/StillImage" />
        <dc:title />
      </cc:Work>
    </rdf:RDF>
  </metadata>
  <g
     inkscape:label="Layer 1"
     inkscape:groupmode="layer"
     id="layer1"
     transform="translate(0,2.3253385)"
     style="display:inline">
    <path
       style="fill:#000000;stroke-width:0.102541"
       d="m 222.97735,253.35509 c -1.71476,-0.0996 -2.00069,-0.17086 -4.55923,-1.13659 -2.22699,-0.84058 -2.94247,-0.94663 -3.29228,-1.1128 -0.14488,-0.002 -0.46936,0.0176 -0.49982,-0.0468 -0.12283,0.0132 0.002,0.86171 0.25556,1.73849 l 0.10481,0.36241 -1.0093,0.24034 c -0.68086,0.16216 -1.60278,0.28379 -2.8331,0.37377 -1.61718,0.11843 -1.94532,0.11154 -2.89653,-0.0602 -2.11847,-0.38241 -2.07526,-0.32365 -2.39659,-3.25912 -0.13151,-1.20539 -0.22311,-2.2368 -0.2025,-2.29211 0.0206,-0.0553 0.0238,-0.37151 0.007,-0.70261 -0.0487,-0.9685 0.1358,-2.00312 0.92995,-5.21361 0.15869,-0.64157 0.47064,-1.33251 0.79975,-1.77134 0.11588,-0.12218 0.148,-0.31339 0.15213,-0.48174 0.061,-0.36366 -0.0329,-2.81434 -0.27765,-3.87512 -0.42929,-1.86065 -0.4192,-1.74424 -0.17694,-2.04482 0.20834,-0.25847 0.73062,-0.43174 0.75026,-0.24889 0.005,0.0455 0.12015,0.17909 0.25613,0.29685 0.23466,0.20324 0.24976,0.20391 0.29686,0.0134 0.0273,-0.11044 0.003,-0.70865 -0.055,-1.32936 l -0.10466,-1.12859 -0.33128,0.0752 c -0.2508,0.0569 -0.40728,0.0186 -0.64414,-0.15793 -0.17208,-0.12821 -0.29496,-0.27054 -0.27306,-0.31627 0.0936,-0.19552 -0.65582,-7.66759 -0.84657,-8.4407 -0.10905,-0.44206 -0.33604,-2.1116 -0.50436,-3.71009 -0.27123,-2.57146 -0.34462,-3.49983 -0.4761,-5.98201 -0.0381,-0.71947 -0.0572,-1.73578 -0.0333,-1.77544 0.009,-0.0152 0.0178,-0.0703 0.0193,-0.12239 0.001,-0.0522 0.032,-0.13115 0.0677,-0.17553 0.0358,-0.0444 0.005,-0.16918 -0.069,-0.2773 -0.12614,-0.18501 -0.1663,-0.71664 -0.19025,-2.5198 -0.0104,-0.78123 -0.017,-0.75095 0.2306,-1.05024 0.22749,-0.27494 0.29288,-0.66228 0.10845,-0.64247 -0.0561,0.006 -0.0787,-0.0179 -0.0503,-0.053 0.0284,-0.0352 -0.0937,-0.18387 -0.27116,-0.33031 -0.47715,-0.39361 -0.61298,-1.04371 -0.4151,-1.98683 0.0207,-0.24584 0.11996,-0.27901 0.13066,-0.48925 0.0421,-0.0327 0.053,-0.18787 0.0246,-0.34494 -0.0284,-0.15707 -0.062,-0.34524 -0.0744,-0.41814 -0.0915,-0.11783 -0.16825,-0.0472 -0.29292,-0.1687 -0.048,0.0596 -0.97501,-0.62345 -1.00776,-0.74256 -0.008,-0.0275 -0.16287,-0.28932 -0.3451,-0.58171 -0.18223,-0.29239 -0.33945,-0.60037 -0.34938,-0.68438 -0.01,-0.084 -0.10039,-0.27636 -0.20108,-0.42744 -0.12758,-0.38993 -0.24049,-0.48136 -0.41425,-0.79559 -0.0745,-0.10545 -0.14694,-0.23689 -0.16093,-0.2921 -0.0566,-0.223 -0.20566,-0.60284 -0.27192,-0.69271 -0.18313,-0.27065 -0.32452,-0.60402 -0.45613,-0.81453 -0.10063,-0.15217 -0.0916,-0.28065 -0.12593,-0.34743 -0.0342,-0.0668 -0.14458,-0.20039 -0.19675,-0.2498 -0.0522,-0.0494 -0.1192,-0.0929 -0.13292,-0.22061 -0.0137,-0.1277 -0.10247,-0.32092 -0.19718,-0.42934 -0.22534,-0.32636 -0.31222,-0.64323 -0.51673,-0.94833 -0.18464,-0.22319 -0.2379,-0.47623 -0.34845,-0.6711 -0.11822,-0.17927 -0.19299,-0.38945 -0.31847,-0.54847 -0.0495,-0.0287 -0.1122,-0.11944 -0.13967,-0.20156 -0.0274,-0.0821 -0.12558,-0.28044 -0.21809,-0.44067 -0.0925,-0.16022 -0.27516,-0.51187 -0.40582,-0.78145 -0.13065,-0.26956 -0.26532,-0.51036 -0.29926,-0.53507 -0.0339,-0.0247 -0.0825,-0.11232 -0.10781,-0.19467 -0.0884,-0.28696 -1.74717,-3.26765 -1.8474,-3.31952 -0.12537,-0.1011 -0.13148,-0.26317 -0.16326,-0.35767 -0.071,-0.34726 -0.32934,-0.56719 -0.42658,-0.8215 -0.022,-0.12016 -0.0799,-0.24156 -0.12826,-0.26983 -0.0484,-0.0283 -0.10901,-0.11874 -0.13471,-0.20107 -0.0861,-0.27615 -0.59676,-1.17346 -0.6637,-1.16627 -0.0364,0.004 -0.073,-0.0502 -0.0813,-0.12018 -0.26065,-0.48536 -0.6885,-1.31628 -0.99874,-1.61857 -0.12528,-0.21766 -0.30326,-0.56124 -0.4583,-0.80435 -0.16193,-0.0353 -0.34985,0.18568 -0.27767,0.32658 -0.13281,0.45642 -0.26795,0.95287 -0.35448,1.43453 -0.0648,0.19403 -0.0372,0.28842 -0.11039,0.51138 -0.0877,0.16932 -0.0988,0.36712 -0.0819,0.59938 -0.0349,0.23267 -0.12789,0.3659 -0.19668,0.62733 -0.12088,0.12142 -0.0537,0.5491 -0.11409,0.77498 -0.053,0.16362 0.007,0.39741 -0.0472,0.4876 -0.0766,0.19814 -0.0188,0.57156 -0.12151,0.87122 -0.0476,0.32808 -0.0503,0.74647 -0.05,0.89731 -0.16468,0.5008 -0.13621,0.83535 -0.13749,1.28858 -0.008,0.42435 -0.15027,0.27996 -0.0894,0.76123 0.0608,0.48127 -0.0781,0.70274 0.0207,1.10252 0.009,0.51121 0.0584,0.6712 0.007,1.15691 -0.0365,0.0761 -0.0529,0.17833 -0.004,0.42714 0.025,0.48752 -0.30564,1.09125 -0.2456,1.43285 0.0399,0.2121 0.18932,0.29027 0.20407,0.5453 0.14039,0.38557 0.17145,0.77584 0.24137,0.95381 0.0951,0.24612 0.2612,1.40746 0.15988,1.61457 -0.0388,0.0792 -0.0561,0.35225 0.059,0.74135 0.11513,0.3891 -0.0724,0.7446 9.5e-4,1.01755 0.0734,0.27295 0.0666,0.42642 0.0147,0.46673 -0.0549,0.0427 -0.0294,0.47212 0.0628,1.05657 0.0854,0.54154 0.16236,1.05348 0.1708,1.13766 0.0921,0.91372 0.0175,0.91375 0.005,1.13387 -0.0122,0.22012 -0.0762,0.739 -0.0498,1.06244 0.053,0.59257 0.1214,2.36999 0.11368,2.9528 -0.004,0.31242 0.007,0.60859 0.0254,0.65817 0.0182,0.0495 -0.0192,0.13067 -0.083,0.18024 -0.0683,0.0531 -0.088,0.28155 -0.048,0.55605 0.0384,0.26241 0.0222,0.47084 -0.0367,0.47718 -0.0603,0.006 -0.0747,0.25906 -0.0339,0.59665 0.13694,1.13139 0.14514,1.35088 0.0511,1.36099 -0.17272,0.77237 -0.22369,1.56613 -0.16393,1.71036 0.14617,0.1178 0.46828,4.65737 0.51017,4.85443 0.0418,0.19707 -0.0123,0.46825 0.0212,0.79541 0.17348,1.63344 0.20535,1.81588 0.11283,2.02456 -0.0925,0.20868 0.0884,0.728 0.0516,1.07748 -0.0507,0.005 -0.0497,0.39978 0.002,0.8763 0.052,0.47653 0.13476,0.86211 0.18388,0.85687 0.0978,0.18653 0.0605,0.43375 0.11037,0.60699 0.0428,-0.005 0.12685,0.39244 0.18682,0.88232 0.0597,0.48991 0.1861,1.34649 0.28025,1.9036 0.37062,2.1931 0.37007,2.18018 0.10746,2.53114 -0.24888,0.33263 -0.21956,0.72953 0.0517,0.70038 0.19594,0.14808 0.44717,0.091 0.58258,0.19105 0.0559,-0.0434 0.16347,-0.0135 0.23923,0.0669 0.0757,0.0802 0.25459,0.15367 0.39743,0.16329 0.57515,0.0387 0.82324,0.19778 1.00044,0.64143 0.0952,0.23844 0.29246,0.18033 0.28225,0.42179 -0.0102,0.24147 0.10764,0.7538 0.15727,1.10158 0.0517,0.37192 0.13703,0.88043 0.1896,1.13004 0.0526,0.2496 0.25523,1.46486 0.45039,2.7006 0.34824,2.20535 0.49875,2.74459 0.909,3.25659 0.0971,0.12119 0.37758,0.73245 0.62329,1.35836 0.56948,1.45062 0.88162,1.98566 1.49754,2.56676 0.46456,0.43831 1.33476,1.69128 1.36407,1.96407 0.27682,0.14242 0.26202,0.352 0.36536,0.47057 0.1091,0.11206 0.32237,0.29865 0.34226,0.35286 0.0199,0.0542 0.16631,0.29847 0.34082,0.60086 0.1745,0.30239 0.41105,0.87686 0.52565,1.27657 0.23587,0.72257 0.0754,0.41039 0.34486,0.87331 0.0323,-0.0252 0.0939,0.28252 0.13704,0.68385 0.0778,0.72393 0.0756,0.73227 -0.27323,1.06027 -0.19338,0.18183 -0.32509,0.36474 -0.29267,0.40646 0.0725,0.0933 -0.26328,0.24687 -0.73577,0.33647 -0.19457,0.0369 -0.8529,0.17279 -1.46296,0.30199 -1.34956,0.28583 -2.49717,0.41322 -3.05746,0.33944 -0.23015,-0.0304 -0.88467,-0.075 -1.4545,-0.0993 -1.83251,-0.078 -3.77627,-0.56801 -4.88537,-1.23147 -0.3505,-0.20967 -0.67885,-0.84462 -1.08496,-2.09808 -0.15104,-0.46622 -0.22901,-0.56707 -0.52173,-0.67483 -0.48766,-0.17949 -1.51977,-1.42264 -1.65445,-1.99273 -0.057,-0.2416 -0.13986,-1.03869 -0.18427,-1.7713 -0.044,-0.73266 -0.15701,-1.91555 -0.25102,-2.62866 -0.11724,-0.88906 -0.13568,-1.30035 -0.0596,-1.30852 0.0613,-0.007 0.0988,-0.12963 0.0833,-0.27343 -0.0155,-0.14383 0.0393,-0.48617 0.12162,-0.76078 0.30884,-1.02987 0.4554,-2.28614 0.40439,-3.46588 -0.0281,-0.64929 -0.0114,-1.21206 0.0371,-1.25063 0.13127,-0.10442 -0.004,-2.14036 -0.17525,-2.62833 -0.0884,-0.25254 -0.11303,-0.45017 -0.0617,-0.49036 0.0477,-0.037 0.047,-0.11793 -0.002,-0.1797 -0.0486,-0.0618 -0.097,-0.18092 -0.1075,-0.2648 -0.0135,-0.10671 -0.17733,-0.15484 -0.54611,-0.16026 -0.28984,-0.004 -0.79833,-0.0773 -1.12997,-0.16234 -0.33163,-0.085 -0.75922,-0.13782 -0.9502,-0.1173 -0.23558,0.0253 -0.40207,-0.0255 -0.51774,-0.15787 -0.0938,-0.10735 -0.18158,-0.14411 -0.1951,-0.0817 -0.0135,0.0624 -0.0681,-0.26493 -0.1211,-0.72746 -0.0774,-1.44109 -0.50904,-2.33489 -0.43391,-3.19072 0.011,-0.12234 -0.0982,-0.71392 -0.24252,-1.31465 -0.1443,-0.60073 -0.41038,-2.0045 -0.59124,-3.11952 -1.16833,-7.20292 -1.18135,-7.29962 -1.39599,-10.36938 -0.0669,-0.95707 -0.13376,-1.90128 -0.14858,-2.09821 -0.0321,-0.42671 -0.16807,-0.955 -0.28461,-1.10491 -0.13281,-0.17092 -0.30862,-1.64683 -0.22325,-1.87395 0.0518,-0.13776 0.0132,-0.38888 -0.11685,-0.76093 -0.21404,-0.61231 -0.2346,-0.91236 -0.0935,-1.36561 0.032,-0.10281 0.01,-0.30928 -0.0497,-0.45875 -0.0593,-0.14949 -0.10846,-0.3786 -0.10931,-0.50914 -8.5e-4,-0.13054 -0.0637,-0.29783 -0.13981,-0.37172 -0.076,-0.0739 -0.10851,-0.13759 -0.0722,-0.14148 0.0363,-0.004 -0.0279,-0.14784 -0.14256,-0.31986 -0.25164,-0.37725 -0.28445,-0.5176 -0.44089,-1.88633 -0.18019,-1.57606 -0.26657,-3.06813 -0.25514,-4.40723 0.006,-0.6529 -0.0761,-1.98999 -0.18137,-2.97131 -0.15412,-1.43633 -1.07596,-8.74051 -1.23279,-9.76813 -0.021,-0.13954 -0.0352,-0.5557 -0.0308,-0.92487 0.006,-0.46727 -0.0407,-0.75997 -0.15208,-0.96341 -0.088,-0.16071 -0.17326,-0.32558 -0.18948,-0.36638 -0.0162,-0.0408 -0.0403,-0.0846 -0.0535,-0.0974 -0.0131,-0.0129 -0.0476,-0.11348 -0.0765,-0.22382 -0.029,-0.11034 -0.17335,-0.62853 -0.32096,-1.15152 -0.16287,-0.57706 -0.33207,-1.54213 -0.43036,-2.4547 -0.11614,-1.07752 -0.19566,-1.50016 -0.28091,-1.491 -0.0654,0.007 -0.0937,-0.0186 -0.0628,-0.0568 0.0309,-0.0383 -0.21197,-0.48792 -0.53968,-0.99912 -0.53936,-0.84133 -0.60719,-1.00643 -0.71561,-1.74162 -0.0659,-0.44669 -0.12901,-0.99682 -0.14039,-1.22249 -0.0113,-0.22567 -0.0671,-0.90421 -0.12407,-1.50785 -0.0568,-0.60365 -0.0617,-1.10204 -0.0105,-1.10754 0.0418,-0.22832 0.0652,-0.53135 0.13088,-0.79131 0.0171,-0.29823 0.14538,-0.45957 0.19492,-0.68752 -0.012,-0.11214 -0.065,-0.19928 -0.11756,-0.19363 -0.0526,0.006 -0.10587,-0.0699 -0.1184,-0.16775 -0.0234,-0.18002 -0.18479,-0.9693 -0.2125,-1.06614 -0.3242,0.0468 -1.75262,-0.63006 -2.37284,-0.83226 -0.28135,-0.0865 -0.36398,-0.22545 -0.431,-0.23073 -0.067,-0.005 -0.1335,0.0234 -0.41579,-0.27049 -0.28232,-0.29415 -0.75651,-0.73752 -0.91335,-0.78413 -0.15685,-0.0466 -0.55687,-0.52375 -0.63657,-0.86562 -0.0797,-0.34188 -0.18714,-0.38463 -0.0467,-0.50927 0.11559,-0.19374 -0.004,-0.41876 -0.12629,-0.55114 -0.15194,-0.1144 -0.15501,-0.30977 -0.25311,-0.46383 -0.10624,-0.12949 -0.16768,-0.28867 -0.13656,-0.35372 0.0311,-0.0651 3.2e-4,-0.173 -0.0685,-0.2399 -0.0688,-0.0669 -0.13818,-0.23144 -0.15409,-0.36566 -0.0164,-0.13418 -0.0455,-0.35828 -0.0661,-0.49789 -0.02,-0.13964 -0.0197,-0.36012 0.002,-0.49004 0.0213,-0.12992 0.0497,-0.33494 0.0629,-0.45559 0.0133,-0.12067 0.0704,-0.28923 0.12708,-0.37461 0.001,-0.14836 -0.0617,-0.28738 -0.16435,-0.48748 -0.0742,-0.0722 -0.11049,-0.18223 -0.0806,-0.24465 -0.0423,-0.17597 -0.16356,-0.3295 -0.19499,-0.525 -0.0365,-0.23715 -0.10615,-0.64735 -0.15475,-0.91156 -0.0486,-0.26421 -0.018,-0.44428 0.002,-0.49013 0.0698,-0.15784 0.0772,-0.39158 -0.0486,-0.45182 -0.0532,-0.0255 -0.13668,-0.19328 -0.18552,-0.3729 -0.0489,-0.17961 -0.11934,-0.41613 -0.15674,-0.52555 -0.0374,-0.10943 -0.0427,-0.29835 -0.0119,-0.41982 0.14387,-0.56693 0.0975,-0.97996 -0.13107,-1.16384 -0.25466,-0.20524 -0.3491,-0.70579 -0.16833,-0.89186 0.11086,-0.11409 0.0587,-0.72576 -0.21486,-2.52138 -0.025,-0.16747 -0.0506,-0.48958 -0.0557,-0.71592 -0.005,-0.22634 -0.11265,-1.01118 -0.23768,-1.74424 0,0 -0.25794,-0.97919 -0.22846,-1.33271 0.0295,-0.35354 0.25623,-0.7329 0.25623,-0.7329 0.31822,-0.91026 1.03518,-3.2851 1.25332,-4.15155 0.0897,-0.35622 0.18776,-0.69925 0.21796,-0.76231 0.0302,-0.0631 0.0443,-0.43075 0.0314,-0.81706 -0.0129,-0.38634 -0.0175,-0.8423 -0.0101,-1.01326 0.007,-0.17096 0.0348,-0.75401 0.061,-1.29569 0.0262,-0.54168 0.059,-1.54299 0.0729,-2.22515 0.0139,-0.68215 0.0856,-1.71086 0.15931,-2.28599 0.16644,-1.29897 0.24652,-1.68569 0.0799,-1.81337 -0.0797,-0.13484 -0.22001,-0.24038 -0.37465,-0.33899 -0.17257,-0.11156 -0.18835,-0.13331 -0.24722,-0.44502 -0.0588,-0.31171 -0.13575,-0.57737 0.12237,-0.91554 0.0454,-0.005 0.0962,-0.0996 0.11284,-0.21067 -0.19466,-0.4516 -0.0665,-0.49547 0.33896,-1.01683 0.59112,-0.75598 0.59842,-0.77391 0.49831,-1.22313 -0.11323,-0.50811 0.12558,-1.49072 0.52197,-2.14775 0.33926,-0.56232 1.15956,-1.61821 1.36171,-1.70445 0.20215,-0.0862 0.64067,-0.44066 0.93933,-0.65639 0.0649,-0.12042 1.51838,-1.05888 1.73663,-1.12129 0.26723,-0.0764 0.78318,-0.66547 0.93794,-1.0708 0.0881,-0.2308 0.13966,-0.61653 0.11454,-0.85715 -0.0445,-0.42394 0.18096,-1.79111 0.40283,-2.44519 0.0599,-0.1766 0.11547,-0.3682 0.12348,-0.42579 0.008,-0.0576 0.0686,-0.17182 0.13481,-0.25389 0.1549,-0.4273 0.0929,-0.36667 0.12911,-0.70411 0.0645,-0.42394 0.22612,-0.87685 0.20027,-1.23183 -0.0434,-0.53828 -0.0331,-0.69258 0.0464,-0.70111 0.1129,-0.0121 0.21408,-0.55507 0.1569,-0.84191 -0.0277,-0.13883 0.007,-0.33463 0.0778,-0.43512 0.10672,-0.26427 0.13088,-0.51675 0.27559,-0.62668 -0.006,-0.0587 0.20996,-0.43267 0.48055,-0.8312 0.32115,-0.39568 0.47317,-0.87123 0.68615,-1.22437 0.17086,-0.28176 0.30796,-0.58655 0.30469,-0.67731 0.18207,-0.31785 0.0102,-0.33049 0.17697,-0.59112 0.0755,-0.11822 0.13558,-0.2639 0.13349,-0.32374 -0.006,-0.16508 0.0243,-0.37386 0.13268,-0.92271 0.0544,-0.27528 -0.0363,-0.19198 0.007,-0.49062 0.0432,-0.29864 -0.18504,-0.85918 -0.53096,-1.05962 -0.14866,-0.21419 -0.22095,-0.55536 -0.36289,-0.70071 -0.0682,0.007 -0.13881,-0.48977 -0.2056,-1.44753 -0.0978,-1.40211 -0.0915,-1.48379 0.16333,-2.10595 0.17539,-0.42819 0.36657,-0.71052 0.56489,-0.83416 0.35854,-0.22355 0.51444,-0.51067 0.50488,-0.92982 -0.004,-0.17032 0.0355,-0.45347 0.0874,-0.62922 0.0409,-0.54183 0.42677,-0.58455 0.43917,-1.012417 0.008,-0.303421 0.0848,-0.583614 0.19513,-0.707301 0.15564,-0.49548 0.51112,-0.806763 0.72812,-1.237075 0.11133,-0.224607 0.47463,-0.754878 0.80731,-1.178379 0.26425,-0.693273 0.72566,-1.144092 0.93735,-1.406741 0.21168,-0.262648 0.15268,-0.2304 0.39126,-0.454562 0.23859,-0.224158 0.43796,-0.454416 0.44304,-0.511685 0.027,-0.303729 1.74118,-1.261165 2.26909,-1.369967 0.52792,-0.108804 0.42884,-0.04004 1.05741,-0.237068 0.62859,-0.197027 1.45276,-0.205841 2.17324,-0.170318 0.72046,0.03552 0.96188,0.111024 1.27474,0.136836 0.31286,0.02582 1.06169,0.193716 1.29509,0.398259 0.2334,0.20454 0.4654,0.242685 0.72082,0.276087 0.25541,0.0334 0.51194,0.158155 0.66751,0.20508 0.15558,0.04693 0.0725,0.08674 0.31832,0.09767 0.24582,0.01093 0.90909,0.397166 1.57847,1.128275 0.36244,0.39586 0.69116,0.739481 0.73052,0.763616 0.0393,0.02414 0.28149,0.322989 0.5381,0.66411 0.2566,0.341121 0.51733,0.647051 0.5794,0.679848 0.34867,0.562082 0.11376,1.453888 0.41992,1.894193 0.14588,0.183165 0.43542,0.734802 0.17915,1.168549 -0.25629,0.43374 0.11633,0.86283 0.0161,1.18249 -0.1002,0.31966 0.14937,1.31542 0.14836,1.32476 0,0 0.002,0.16035 0.0272,0.29082 0.0559,0.29108 -0.13927,1.57758 -0.24105,1.58851 -0.15254,0.32734 -0.1736,0.69149 -0.37411,0.96837 -0.20414,0.0219 -0.31731,0.50755 -0.27996,1.20136 0.0178,0.33031 -0.001,0.65724 -0.0427,0.7265 -0.0412,0.0692 -0.11189,0.33872 -0.157,0.59882 -0.10473,0.60407 -0.43863,1.49095 -0.56647,1.50468 -0.0541,0.006 -0.11493,0.12959 -0.13527,0.27509 -0.0573,0.272 -0.28559,0.4267 -0.38489,0.645 0.008,0.0734 -0.0837,0.27597 -0.20361,0.45012 -0.22236,0.21515 -0.1437,0.32802 -0.16361,0.60727 -0.0362,0.0748 -0.0699,0.22085 -0.0748,0.32455 -0.0118,0.24787 -0.007,0.3201 -0.26482,0.64011 -0.25793,0.32002 -0.26758,0.50011 -0.71004,0.59547 -0.51163,0.10897 -0.60825,0.17348 -0.99385,0.66348 -0.23491,0.29851 -0.51419,0.62171 -0.62061,0.71823 -0.65869,0.59737 -0.80902,0.70569 -1.00917,0.7272 -0.21977,0.0236 -0.22012,0.038 -0.0283,1.15425 0.17358,1.01003 0.40664,1.97318 0.58015,2.39782 0.0514,0.12578 0.34453,0.12193 1.82226,-0.0239 2.12392,-0.20958 4.24225,-0.19017 4.50779,0.0414 0.12592,0.10983 0.35179,0.14233 0.74271,0.10689 0.86982,-0.0789 3.35292,0.48384 3.6132,0.81881 0.049,0.0631 0.12544,0.11275 0.16979,0.11037 0.37936,-0.0204 1.34263,0.70292 1.37831,1.03501 0.008,0.0743 0.17835,0.36415 0.37859,0.64415 0.20025,0.28001 0.37588,0.61873 0.39027,0.75272 0.0144,0.13399 0.11762,0.43479 0.22941,0.66846 0.1118,0.23365 0.18723,0.48515 0.16768,0.55886 -0.0195,0.0737 0.015,0.15798 0.0758,0.18736 0.0613,0.0293 0.094,0.11863 0.0729,0.19843 -0.0212,0.0798 0.004,0.16567 0.0569,0.19079 0.0525,0.0251 0.15826,0.35173 0.23502,0.72576 0.0768,0.37403 0.29741,1.12718 0.49032,1.67368 0.1929,0.5465 0.36636,1.08477 0.38546,1.19616 0.097,0.56631 0.15921,0.82667 0.23993,1.00554 0.11696,0.25921 0.38345,1.5719 0.4549,2.24097 0.0312,0.29179 0.0815,0.51127 0.11174,0.48774 0.0303,-0.0236 0.12002,0.5143 0.19941,1.19519 0.0792,0.6809 0.22372,1.43828 0.32086,1.68309 0.0971,0.24481 0.21632,0.64968 0.26494,0.89972 0.20572,1.05832 0.34223,1.67035 0.58761,2.63533 0.0749,0.29454 0.15013,0.60445 0.16713,0.68872 0.0171,0.0842 0.0605,0.19559 0.0968,0.24743 0.0362,0.0518 0.0975,0.29634 0.13612,0.54335 0.0386,0.24702 0.0968,0.48333 0.12933,0.52513 0.0652,0.0839 0.17267,0.471 0.3432,1.23633 0.0617,0.27698 0.15904,0.54977 0.21622,0.60623 0.0572,0.0564 0.11467,0.21271 0.12772,0.34723 0.0316,0.33173 0.11656,0.62719 0.21558,0.75466 0.0452,0.0582 0.10004,0.30669 0.1219,0.55232 0.0214,0.24569 0.091,0.60354 0.15354,0.79534 0.23432,0.71812 0.35488,2.82209 0.16989,2.96581 -0.0621,0.0482 -0.0303,0.67977 0.0857,1.70309 0.17689,1.56224 0.19455,1.63402 0.44342,1.81978 0.12039,0.0999 0.22274,0.26332 0.25602,0.3185 0.1707,0.58986 0.4362,1.87055 0.21898,2.14222 -0.30882,0.45292 0.0468,0.84892 -0.008,1.11117 -0.0558,0.27716 0.31499,0.85732 0.36333,1.20059 0.0483,0.34328 -0.0512,0.23588 0.0823,0.47435 0.13351,0.23846 0.24373,1.18477 0.26289,1.47684 0.0192,0.29209 0.0743,0.26058 0.0575,0.32531 -0.0168,0.0648 -0.0767,0.40569 -0.0552,0.72785 0.0215,0.32214 0.006,0.58929 -0.0347,0.59365 -0.0406,0.004 -0.0242,0.15342 0.0364,0.33127 0.0606,0.17783 0.12142,0.35693 0.13499,0.39802 0.0135,0.0411 0.0316,0.0855 0.0401,0.0988 0.0177,0.0279 0.14273,0.63389 0.19249,0.93328 0.019,0.11141 0.0183,0.34352 -6.1e-4,0.51573 -0.0188,0.17218 0.0106,0.65632 0.0654,1.07585 0.11711,0.83641 0.21379,2.03683 0.21447,2.397 -0.0173,0.28514 -0.0558,0.49069 0.0687,0.70492 -0.0409,0.30361 -0.14357,0.30346 -0.28687,0.53507 -0.10546,0.30226 -0.29978,0.5035 -0.27864,0.7232 -0.081,0.24079 -0.0207,0.30161 -0.25015,0.5533 -0.46776,0.29216 -0.66237,0.81156 -1.14291,1.05502 -0.24957,0.16018 -0.36557,0.30091 -0.61645,0.3458 -0.20522,0.0356 -0.55133,0.13386 -0.76914,0.21833 -0.58901,0.22848 -0.63245,0.15927 -0.88465,0.16524 -0.25422,-0.006 -0.41703,0.16335 -0.68144,0.19339 -0.40013,0.047 -0.39896,0.15391 -0.63465,0.0939 -0.0603,-0.15884 0.0873,1.97985 0.17311,2.50811 -0.005,0.19921 -0.17596,0.17466 -0.0978,0.40377 0.0781,0.22913 -0.4998,1.50835 -0.75664,1.39408 -0.0654,-0.0291 -0.0346,0.0274 0.0684,0.12523 0.37267,0.41889 0.60892,0.92397 0.75316,1.3033 0.13731,0.32047 0.41391,0.39217 0.56313,0.50622 0.71462,0.17743 0.88219,1.13434 0.94672,1.55763 0.0734,0.48834 0.18025,0.8811 0.2413,0.9748 0.0611,0.0937 0.066,0.28608 0.13988,0.36776 0.0738,0.0817 0.0718,0.23774 0.14875,0.34166 0.0769,0.10394 0.0727,0.1874 0.13393,0.29449 0.0612,0.10709 0.057,0.253 0.12634,0.35121 0.0694,0.0982 0.0248,0.29678 0.148,0.39663 0.12293,0.0999 0.16878,0.40415 0.23705,0.59332 0.0683,0.18916 0.12834,0.60854 0.21318,0.69901 0.0848,0.0905 0.0974,0.0962 0.14986,0.49996 0.0524,0.4038 0.33722,1.14245 0.4035,1.50321 0.0663,0.36076 0.18049,0.51535 0.22553,0.69769 0.045,0.18233 0.0896,0.38742 0.13431,0.55278 0.0446,0.16538 0.13741,0.52629 0.20605,0.80205 0.0686,0.27577 0.16984,0.44904 0.24386,0.61706 0.074,0.16802 0.19524,0.50531 0.2132,0.72697 0.0178,0.22168 0.14683,0.31438 0.15672,0.49881 0.01,0.18446 0.12136,0.22999 0.13761,0.44766 0.0163,0.21767 0.18271,0.57385 0.21868,0.78776 0.036,0.21391 0.17738,0.44579 0.26156,0.55299 0.0842,0.10718 0.21215,0.40003 0.27161,0.51382 0.0595,0.11379 0.19397,0.59537 0.40695,1.16807 0.21298,0.5727 0.39965,1.09904 0.44047,1.19026 0.0408,0.0912 -0.009,-0.0287 0.10194,0.31601 0.11136,0.34466 0.60465,1.27604 0.75293,1.70632 0.14828,0.43029 0.46285,1.1391 0.65544,1.47655 0.14301,0.25058 0.46363,0.86762 0.99937,1.92324 0.20645,0.49231 0.21441,0.66228 0.46091,1.18381 0.16279,0.11043 0.25312,0.28258 0.39072,0.42881 0.0547,0.0482 0.0182,0.0721 -0.0192,0.19914 0.19012,0.44705 0.30801,1.0327 0.42248,1.41744 0.11445,0.38473 0.091,0.32913 0.13065,0.59449 0.0396,0.26537 -0.0534,0.57046 -0.005,0.77772 0.0481,0.20726 0.0626,0.46097 0.0322,0.56376 -0.0304,0.10283 -0.005,0.0365 -0.029,0.56321 -0.0239,0.52677 -0.30325,1.84975 -0.31536,2.43798 -0.0121,0.58822 -0.0749,0.82842 -0.0179,1.08151 0.0571,0.25307 -0.0412,0.22153 -0.0876,0.41615 -0.0465,0.19462 0.0477,1.19807 4.8e-4,1.30482 -0.0473,0.10674 0.0262,-0.11687 0.002,0.27244 -0.0245,0.38931 -0.11778,1.54512 -0.14599,2.03157 -0.0282,0.48644 -0.1863,0.35593 -0.0867,0.44846 0.0995,0.0925 0.0367,-0.0302 0.0281,0.26152 -0.009,0.29165 -0.17904,0.74859 -0.12172,1.12524 0.0574,0.37663 -1.7e-4,0.70525 -0.0659,0.85373 -0.0657,0.14848 -0.002,-0.0844 0.005,0.31006 0.006,0.39447 -0.0851,1.29478 -0.1847,1.85843 -0.20679,1.0476 -0.21892,4.56743 -0.0271,7.85141 0.18071,0.68333 -0.10915,1.02114 -0.0311,1.48278 0.0451,0.25918 0.0483,0.22456 -0.0127,0.36215 -0.0605,0.13652 -0.0816,0.22629 0.10422,2.17067 0.0593,0.61757 0.10574,1.58717 0.10375,2.15461 -0.002,0.56743 0.0136,1.24751 0.0345,1.51128 0.0291,0.36721 -0.0134,0.53491 -0.18157,0.71564 -0.12078,0.12983 -0.26952,0.24527 -0.33054,0.25655 -0.37558,0.0694 -0.57087,0.12902 -0.61905,0.18879 -0.0302,0.0374 -0.16938,0.0381 -0.3093,0.001 l -0.25437,-0.0666 0.12087,1.12499 c 0.078,0.72598 0.17029,0.98784 0.21629,1.05083 0.0805,0.11028 0.10119,0.16577 0.11185,0.61231 0.013,0.54325 0.0546,0.72043 0.19916,0.84938 0.15064,0.13432 0.22407,0.13797 0.41838,0.0208 0.33547,-0.21496 0.26819,-0.48245 0.39941,-0.57224 0.28243,-0.34794 0.63068,-0.63097 0.97915,-0.79518 0.28218,-0.10755 0.22071,-0.19923 0.83275,0.18397 0.0822,0.11262 0.0663,0.11605 0.0892,0.32987 0.023,0.21381 0.0861,0.49848 0.14038,0.6326 0.001,0.33073 -0.0563,0.23979 -0.0141,0.64272 0.0992,0.48047 0.0783,0.57214 0.0245,0.6935 -0.19699,0.56712 0.20924,1.00631 0.21951,1.35884 0.0103,0.35254 0.17696,0.50838 0.17568,0.69882 -0.001,0.19042 0.0644,0.30034 0.0896,0.3654 0.0251,0.0651 0.0877,0.12735 0.0812,0.29522 -0.007,0.16787 0.009,0.17156 0.0661,0.24464 0.0568,0.0731 0.0279,0.36261 0.16465,0.59284 0.13677,0.23022 0.19047,0.31529 0.25474,0.39073 0.0642,0.0755 0.14168,0.25928 0.2463,0.3718 0.10462,0.11252 0.10221,0.14627 0.15057,0.2898 0.0483,0.14353 0.69105,0.48407 0.77263,0.85124 0.005,0.042 0.0987,0.15011 0.20764,0.24029 0.10895,0.0902 0.50283,0.43074 0.87527,0.75679 0.37246,0.32606 0.47776,0.40983 0.56819,0.44984 0.18068,0.08 1.0945,0.66082 1.33223,0.9181 0.2728,0.15293 0.68822,0.37633 1.04341,0.68003 0.27797,0.18474 0.23267,0.061 0.51922,0.30818 0.3828,0.29167 0.52737,0.34445 1.02382,0.38822 0.51316,0.14232 0.94014,0.15464 1.34493,0.0715 0.44668,-0.093 0.80001,-0.11652 0.94717,-0.0631 1.71021,0.27616 2.64645,-0.01 3.57767,1.18063 0.32344,0.41082 0.57933,1.19173 0.58203,1.77634 10e-4,0.2912 0.0469,0.45558 0.13174,0.4782 0.0713,0.0189 0.1537,0.15835 0.18303,0.30982 0.0734,0.37914 -0.0269,1.371 -0.16741,1.65538 -0.0637,0.12885 -0.5119,0.52114 -0.99607,0.87179 -0.86864,0.62908 -0.89716,0.6411 -2.15007,0.90607 -1.92424,0.40695 -5.59866,0.76664 -7.00033,0.68519 z m -17.41713,-93.21184 c 0.006,-0.089 0.0431,-0.3045 0.0892,-0.48453 0.0461,-0.18004 0.0512,-0.39935 0.0318,-0.62736 -0.0195,-0.22801 -0.008,-0.15142 -0.19459,-0.32401 -0.18609,-0.17262 -0.0757,-0.46184 -0.10405,-0.58182 -0.0284,-0.12 0.005,-0.12796 -0.0922,-0.37683 -0.0974,-0.24889 -0.26637,-0.45487 -0.32771,-0.78986 -0.0613,-0.33497 -0.15047,-0.76678 -0.23825,-0.95414 -0.0878,-0.18735 -0.21096,-0.42099 -0.32633,-0.70334 -0.11532,-0.28238 -0.0271,-0.13397 -0.12715,-0.21462 -0.048,-0.19211 -0.21163,-0.29328 -0.24147,-0.33221 -0.10887,0.034 -0.17392,0.18091 -0.17317,0.36369 7.3e-4,0.18279 -0.005,0.46017 -0.0128,0.64461 -0.008,0.18444 -0.0205,0.23035 0.10332,0.39157 0.12381,0.16123 0.25681,0.19342 0.28895,0.46594 0.0323,0.27249 0.17893,0.59753 0.24044,0.75172 0.0615,0.15418 0.11987,0.24511 0.15336,0.55683 0.0335,0.31172 0.10757,0.29917 -0.0206,0.52854 -0.12816,0.22938 0.11921,0.82971 0.24474,1.11312 0.12559,0.28341 -0.21383,0.46083 -0.10824,0.55711 0.10559,0.0963 0.35304,0.39057 0.46732,0.41841 0.27262,0.0949 0.29222,-0.15065 0.34738,-0.40282 z m -29.23155,-0.69479 c -0.0177,-0.16505 0.01,-0.40398 0.0612,-0.53096 0.0513,-0.12698 0.0859,-0.3923 0.0767,-0.58959 -0.009,-0.19731 0.0288,-0.24875 0.0901,-0.40751 0.0613,-0.15876 0.0688,-0.50264 0.16925,-0.66254 0.051,-0.11301 0.0309,-0.19133 0.0463,-0.287 0.0688,-0.5281 0.2069,-0.81714 0.17328,-1.32365 -0.0156,-0.21979 0.0481,-0.53545 0.14131,-0.70147 0.056,-0.31575 0.25503,-0.50561 0.36657,-0.72947 0.18804,-0.2539 0.36674,-0.68812 0.4274,-0.82524 0.0213,-0.33529 0.072,-0.51967 0.18123,-0.8129 0.0446,-0.0607 0.0311,-0.10845 -0.0806,-0.24463 -0.10507,-0.12801 -0.0713,-0.17793 -0.13667,-0.34627 -0.0652,-0.16835 -0.19556,-0.34586 -0.0974,-0.50973 0.0775,-0.15856 0.19158,-0.31501 0.27483,-0.49585 0.0525,-0.1187 0.0763,-0.15575 0.21958,-0.3652 0.15203,-0.19454 0.23293,-0.42747 0.35212,-0.56233 0.12242,-0.12372 0.17744,-0.37168 0.31677,-0.57652 0.34643,-0.50536 0.37072,-0.70146 0.12091,-0.97592 -0.10384,-0.13247 -0.13978,-0.35014 -0.177,-0.44345 -0.048,0.005 -0.1041,-0.16292 -0.1245,-0.37336 -0.0425,-0.44214 0.0859,-1.58185 0.1798,-1.59194 0.0681,-0.007 0.25226,-0.90316 0.2083,-1.01328 -0.0145,-0.0364 0.0129,-0.0986 0.061,-0.13857 0.14631,-0.12128 0.2257,-1.01663 0.15145,-1.70778 -0.0544,-0.50659 -0.12155,-0.7007 -0.29931,-0.86613 -0.12604,-0.11726 -0.24013,-0.31526 -0.25354,-0.44001 -0.0134,-0.12474 -0.0927,-0.27212 -0.1762,-0.32752 -0.28429,-0.18858 -0.34516,0.1505 -0.22896,1.27565 0.11349,1.10313 0.0546,2.12554 -0.18517,3.19212 -0.0719,0.3197 -0.13938,0.71384 -0.15003,0.87589 -0.0106,0.16204 -0.061,0.35736 -0.11183,0.43403 -0.1379,0.25735 -0.0583,0.39002 -0.14869,0.53516 -0.0509,0.0396 -0.0165,0.0813 -0.0191,0.21544 -0.002,0.13408 -0.15326,0.30864 -0.2083,0.45738 -0.055,0.14873 -0.2308,0.69882 -0.34058,0.88742 -0.10978,0.18861 -0.20254,0.59401 -0.37474,0.84816 -0.37192,0.54256 -0.45083,1.14207 -0.17159,1.30357 0.10059,0.0582 0.21752,0.27978 0.25987,0.49244 0.0616,0.3093 0.0294,0.44648 -0.16108,0.68553 -0.13092,0.16436 -0.27149,0.30314 -0.31237,0.3084 -0.53051,0.55741 -0.0706,0.83756 0.0922,1.17263 0.26736,0.17735 0.0988,0.81946 -0.22418,0.85416 -0.0773,0.008 -0.13094,0.10358 -0.11932,0.21171 0.0116,0.10815 -0.0343,0.2654 -0.10205,0.34944 -0.0748,0.0928 -0.0919,0.30008 -0.0436,0.52771 0.0374,0.38596 -0.0878,0.5744 -0.29867,0.84658 -0.088,0.35964 -0.20231,0.50326 -0.1299,0.79758 0.0518,0.20555 0.10099,0.51223 0.10942,0.68149 0.0373,0.75646 0.14534,1.32478 0.26243,1.38083 0.19803,0.0948 0.3689,-0.15354 0.33334,-0.4845 z"
       id="path479"
       sodipodi:nodetypes="csccscssscsssccssscssccsssssssscsssccccccccscccccczzsccccssscscccsssccccccccccccczccccccszzscszccsscsccczczccccscsccccszcssssscczsccscssssssscssssssssscscssssscccssccscssccsscsccssscsscsssscccccsccczzzzcccsccsccccccssssscssscczssccsssscczcccsszcsscsscccssccccccsszccssssccccczsszzzzzzzzssscczzscccssssccccszcssssssssscssssscsccssscscssssssssscccssccccczzzzzzcccccccccccccscccczscccczzzzzzzzzzzzzzzzzzzzzzzzscccczzzzzzzzzzzzzzzzccccsssscsscssssccccsccczzzzzzzzzcssscccccccsscsssccczzzzzzzzcczzzzzzzzzcccsszcccccccszccccccccsscsssscsscczzzcscsccssscccccccs" />
  </g>
</svg>
