<?xml version="1.0" encoding="UTF-8" standalone="no"?>
<!-- Created with Inkscape (http://www.inkscape.org/) -->

<svg
   xmlns:dc="http://purl.org/dc/elements/1.1/"
   xmlns:cc="http://creativecommons.org/ns#"
   xmlns:rdf="http://www.w3.org/1999/02/22-rdf-syntax-ns#"
   xmlns:svg="http://www.w3.org/2000/svg"
   xmlns="http://www.w3.org/2000/svg"
   xmlns:sodipodi="http://sodipodi.sourceforge.net/DTD/sodipodi-0.dtd"
   xmlns:inkscape="http://www.inkscape.org/namespaces/inkscape"
   width="825"
   height="1125"
   viewBox="0 0 825.00001 1125"
   id="svg2"
   version="1.1"
   inkscape:version="0.91 r13725"
   sodipodi:docname="script kiddie.svg">
  <defs
     id="defs4" />
  <sodipodi:namedview
     id="base"
     pagecolor="#ffffff"
     bordercolor="#666666"
     borderopacity="1.0"
     inkscape:pageopacity="0.0"
     inkscape:pageshadow="2"
     inkscape:zoom="0.9899495"
     inkscape:cx="94.399582"
     inkscape:cy="380.88808"
     inkscape:document-units="px"
     inkscape:current-layer="layer1"
     showgrid="false"
     units="px"
     inkscape:window-width="1920"
     inkscape:window-height="1017"
     inkscape:window-x="-8"
     inkscape:window-y="-8"
     inkscape:window-maximized="1"
     showguides="true"
     inkscape:guide-bbox="true">
    <sodipodi:guide
       position="-1008.5714,760"
       orientation="0,1"
       id="guide4139"
       inkscape:label=""
       inkscape:color="rgb(0,0,255)" />
    <sodipodi:guide
       position="-760.00001,260"
       orientation="0,1"
       id="guide4141"
       inkscape:label=""
       inkscape:color="rgb(0,0,255)" />
    <sodipodi:guide
       position="75.000001,517.14286"
       orientation="1,0"
       id="guide4143"
       inkscape:label=""
       inkscape:color="rgb(0,0,255)" />
  <sodipodi:guide
   position="95.964491,1050.5586"
   orientation="1,0"
   id="guide1471"
   inkscape:locked="false"
   inkscape:label=""
   inkscape:color="rgb(0,0,255)" />
<sodipodi:guide
   position="191.92898,1033.8911"
   orientation="0,1"
   id="guide1473"
   inkscape:locked="false"
   inkscape:label=""
   inkscape:color="rgb(0,0,255)" />
<sodipodi:guide
   position="280.82241,997.02056"
   orientation="1,0"
   id="guide1475"
   inkscape:locked="false" />
<sodipodi:guide
   position="186.87822,865.19565"
   orientation="0,1"
   id="guide1477"
   inkscape:locked="false"
   inkscape:label=""
   inkscape:color="rgb(0,0,255)" />
   </sodipodi:namedview>
  <metadata
     id="metadata7">
    <rdf:RDF>
      <cc:Work
         rdf:about="">
        <dc:format>image/svg+xml</dc:format>
        <dc:type
           rdf:resource="http://purl.org/dc/dcmitype/StillImage" />
        <dc:title />
      </cc:Work>
    </rdf:RDF>
  </metadata>
  <g
     inkscape:label="Layer 1"
     inkscape:groupmode="layer"
     id="layer1"
     transform="translate(0,72.637839)">
    <path
       style="opacity:0.6;fill:#000000;fill-opacity:1"
       d="m 182.03271,307.15402 c -0.52477,0.0366 -0.6625,0.12271 -0.8387,0.28825 -0.46335,0.43528 -1.31667,0.68646 -2.33171,0.68646 -0.42999,0 -1.0543,0.0799 -1.38713,0.17762 -0.33282,0.0977 -1.03364,0.24595 -1.55764,0.32919 -0.52399,0.0832 -1.61529,0.3139 -2.4251,0.51289 -0.80981,0.199 -1.92459,0.44731 -2.4772,0.55147 -0.87226,0.16441 -1.1494,0.3245 -2.10234,1.21593 -0.60681,0.56765 -1.08734,1.16191 -1.07418,1.3286 0.013,0.16584 -0.0749,0.28146 -0.19555,0.25712 -0.13996,-0.0282 -0.40606,0.44418 -0.95038,0.8163 -0.48187,0.32943 -1.23527,0.54011 -1.5275,0.84386 -0.24499,0.25463 -0.82961,0.82234 -1.29916,1.26194 -0.88317,0.82682 -1.7987,2.49293 -2.15614,3.92353 -0.11044,0.44208 -0.48069,1.07201 -0.92192,1.56881 -0.40549,0.45657 -0.8441,1.09864 -0.97471,1.42671 -0.13063,0.32806 -0.74875,1.53185 -1.3736,2.67512 -1.02879,1.88237 -1.14646,2.20132 -1.2457,3.37781 -0.0644,0.76412 -0.0369,1.45941 0.067,1.68823 0.13714,0.3022 0.10989,0.46285 -0.12246,0.71962 -0.2559,0.28275 -0.26606,0.38448 -0.0707,0.70405 0.1942,0.31771 0.18706,0.40438 -0.0467,0.57954 -0.53539,0.40125 -0.69813,0.95777 -0.58157,1.98799 0.08,0.70717 0.009,1.49487 -0.24563,2.72452 -0.59631,2.8786 -0.61991,3.35286 -0.2118,4.29907 0.21812,0.50568 0.36134,1.2075 0.36134,1.77281 0,1.31559 0.2171,2.22712 1.09617,4.60052 l 0.36099,0.97437 -0.91991,1.06199 c -1.02772,1.18632 -0.99673,0.93934 -0.46959,3.74456 0.14322,0.76218 0.26462,1.76949 0.26964,2.23835 0.005,0.47084 0.11717,0.97489 0.2507,1.12594 0.28298,0.32008 0.79778,1.78195 0.79778,2.26575 0,0.18398 0.10738,0.59045 0.23885,0.90332 0.37087,0.88252 0.58907,1.70035 0.71419,2.67681 0.0689,0.53769 0.24438,1.01258 0.43881,1.18853 0.17812,0.16119 0.40909,0.70379 0.51323,1.20544 0.15441,0.74373 0.34096,1.05563 1.01125,1.69027 l 0.82213,0.77814 0.21923,2.05802 c 0.24433,2.29235 0.72368,4.24244 1.34551,5.47305 0.22708,0.44937 0.4131,0.97101 0.4131,1.15909 0,0.18809 0.0757,0.38895 0.16848,0.44625 0.0927,0.0573 0.3032,0.39312 0.46756,0.74634 0.16433,0.35323 0.44859,0.84962 0.63199,1.10327 0.27728,0.3835 0.34724,0.85044 0.41445,2.77155 0.12552,3.58777 -0.37286,8.15497 -0.96761,8.86778 -0.13693,0.1641 -0.49289,0.28487 -0.83938,0.28487 -0.69218,0 -1.37562,0.43205 -2.43085,1.53666 -0.4051,0.42405 -1.02869,0.91492 -1.38577,1.09076 -0.3571,0.17583 -0.92206,0.49391 -1.25551,0.70675 -0.43978,0.28071 -0.99057,0.41685 -2.0049,0.49598 -1.11979,0.0874 -1.65253,0.23445 -2.67445,0.73789 -0.70189,0.34578 -1.34453,0.6286 -1.42806,0.6286 -0.0835,0 -0.41219,0.19878 -0.73044,0.44151 -0.31824,0.24273 -0.87823,0.48709 -1.24435,0.54301 -0.36614,0.0559 -1.28908,0.39474 -2.05125,0.75311 -0.76218,0.35837 -1.73655,0.7527 -2.16527,0.87626 -0.42872,0.12355 -0.9571,0.33687 -1.17399,0.47399 -0.2863,0.18099 -0.72627,0.22534 -1.60602,0.16239 -0.66652,-0.0477 -1.24727,-0.0295 -1.29036,0.0403 -0.0788,0.12749 -1.342,0.28004 -4.07306,0.49226 -1.44167,0.11204 -1.48848,0.13004 -2.11216,0.80758 -0.39408,0.42813 -0.68047,0.94206 -0.74972,1.34483 -0.12054,0.70118 -0.47464,0.99366 -1.2024,0.99366 -0.29323,0 -0.67653,0.22937 -1.09413,0.65465 -0.41087,0.41842 -1.04462,0.80088 -1.75727,1.06031 -0.85831,0.31245 -1.36126,0.64995 -2.18589,1.4673 -1.98318,1.96569 -3.5143,3.22755 -4.35186,3.58657 -0.78163,0.33504 -1.77926,1.22841 -2.1541,1.92878 -0.0913,0.17054 -0.31509,0.3099 -0.49733,0.3099 -0.18225,0 -0.82048,0.40726 -1.4186,0.90501 -0.5981,0.49775 -1.19299,0.92062 -1.32182,0.93953 -0.53492,0.0785 -0.68895,0.23756 -0.79947,0.82652 -0.0786,0.41933 -0.21171,0.62208 -0.4114,0.62624 -0.46827,0.01 -1.08071,0.41577 -1.30456,0.86475 -0.11315,0.22694 -0.55609,0.67698 -0.98418,1.00042 -0.42808,0.32345 -0.84878,0.73644 -0.93479,0.91753 -0.086,0.1811 -0.24192,0.3305 -0.34644,0.33224 -0.10454,0.002 -0.51195,0.33301 -0.90569,0.73619 -0.39373,0.40318 -1.41132,1.43883 -2.26135,2.30127 -0.85001,0.86244 -1.65814,1.72439 -1.79582,1.91559 -0.35552,0.49372 -2.05392,1.79954 -2.34052,1.79954 -0.13208,0 -0.80991,0.56513 -1.50621,1.25585 -0.6963,0.69072 -1.75873,1.60662 -2.36116,2.03535 -0.60243,0.42872 -1.46547,1.11078 -1.91761,1.51568 -0.45216,0.40491 -0.89168,0.7367 -0.97708,0.73722 -0.261749,0.002 -1.334549,1.11523 -1.974109,2.0499 -0.33346,0.48731 -0.69932,0.88797 -0.813,0.89011 -0.11369,0.002 -0.30856,0.14334 -0.43306,0.31397 -0.3041,0.41679 -1.26063,1.07553 -1.56169,1.07553 -0.13336,0 -0.60014,0.22687 -1.0373,0.50411 -0.58494,0.37095 -0.85126,0.6797 -1.00855,1.16924 -0.11753,0.36585 -0.32545,0.79318 -0.46181,0.94967 -0.13636,0.15649 -0.3057,0.50136 -0.37655,0.7663 -0.13693,0.51201 -0.19632,0.55613 -1.41012,1.04948 -0.82571,0.33561 -2.84599,2.26269 -4.28623,4.08863 -0.43047,0.54577 -1.20103,1.30844 -1.71258,1.69468 -0.51156,0.38621 -0.93005,0.81388 -0.93005,0.95034 0,0.25763 -0.34227,0.69256 -1.40337,1.78397 -0.34305,0.35285 -0.67423,0.84915 -0.73584,1.10294 -0.0616,0.25378 -0.56858,0.87738 -1.12662,1.38577 -0.55801,0.50839 -1.21937,1.25223 -1.47002,1.65305 -0.25064,0.4008 -0.60384,0.8081 -0.7849,0.90501 -0.41386,0.22148 -1.10692,1.37602 -0.99738,1.66151 0.0451,0.11763 -0.18483,0.47262 -0.51088,0.78862 -0.32604,0.31601 -0.59273,0.71238 -0.59273,0.88099 0,0.33115 -0.35122,1.22646 -0.89283,2.27558 -0.18681,0.36185 -0.61293,1.45315 -0.94664,2.42509 -0.33371,0.97193 -0.66834,1.92295 -0.74362,2.1135 -0.0753,0.19054 -0.24593,0.61926 -0.37927,0.95271 -0.15547,0.38882 -0.23428,1.19651 -0.21991,2.25188 0.0189,1.39026 0.1197,1.93923 0.64958,3.53751 0.34496,1.04049 0.62726,2.0255 0.62726,2.18895 0,0.28088 0.96387,2.25917 1.93621,3.97394 0.2431,0.42872 0.69498,1.24719 1.00415,1.81882 0.30916,0.57164 0.69387,1.19523 0.85493,1.38578 0.48275,0.57118 1.22813,1.73876 1.22813,1.92371 0,0.095 0.30057,0.63633 0.66818,1.20309 0.36761,0.56674 0.72774,1.2254 0.80013,1.46358 0.18155,0.59734 1.00236,2.07067 2.6352,4.72976 0.30395,0.49498 0.72169,1.26777 0.92836,1.71732 0.20667,0.44954 0.48429,0.9074 0.61675,1.01734 0.13247,0.10993 0.2409,0.42159 0.2409,0.69289 0,0.34684 0.15379,0.607 0.51797,0.87626 0.28486,0.2106 0.56257,0.52435 0.61745,0.69728 0.0549,0.17293 0.4437,0.7171 0.86373,1.20916 0.42001,0.49207 1.11815,1.42318 1.55155,2.06918 0.71497,1.06564 2.52491,3.14431 4.73585,5.43889 0.459,0.47636 0.95992,1.07014 1.11307,1.31946 0.15316,0.24932 1.52042,1.73036 3.03849,3.29121 1.5181,1.56084 3.296489,3.42247 3.951949,4.13701 0.65545,0.71454 1.32043,1.30162 1.47745,1.30456 0.15703,0.003 1.07642,0.82151 2.04313,1.81883 7.36208,7.59519 11.23547,11.26836 12.7849,12.12382 0.52857,0.29182 0.73619,0.51675 0.73619,0.79742 0,0.43695 0.26285,0.68646 0.43306,0.41106 0.0696,-0.11265 0.26634,-0.0566 0.53014,0.15089 0.2307,0.18145 0.70867,0.38429 1.06233,0.45065 0.35367,0.0664 0.93587,0.27009 1.29376,0.45268 0.8489,0.43307 1.22078,0.41913 2.70996,-0.10116 1.58271,-0.55296 1.80013,-0.54502 2.68223,0.0991 0.4009,0.29274 1.32608,0.87509 2.05565,1.29408 l 1.32622,0.76192 -0.0812,1.08771 c -0.11585,1.55273 -0.15349,1.67598 -0.8387,2.73331 -0.59604,0.91975 -0.61352,0.99278 -0.50479,2.10639 0.0895,0.91611 0.0547,1.23602 -0.16814,1.55426 -0.15438,0.22037 -0.28047,0.56072 -0.28047,0.75649 0,0.19578 -0.10807,0.50979 -0.23987,0.69796 -0.28913,0.41277 -0.97267,2.57359 -0.97267,3.07434 0,0.19683 -0.10432,0.48089 -0.23176,0.6313 -0.12742,0.15041 -0.33227,0.74108 -0.45505,1.31271 -0.12278,0.57163 -0.36922,1.22519 -0.54774,1.45241 -0.17851,0.2272 -0.32445,0.57499 -0.32445,0.77274 0,0.19775 -0.23007,0.83032 -0.51121,1.40573 -1.00307,2.05286 -1.29067,3.39564 -1.29951,6.06817 -0.008,2.54107 0.0448,2.77731 0.94157,4.16746 0.43038,0.66716 0.71294,2.54263 0.76867,5.10123 0.0315,1.44838 0.12167,2.14251 0.33019,2.54352 0.23662,0.455 0.29086,1.16248 0.30958,4.04193 l 0.0227,3.49015 0.76935,2.19402 c 0.42309,1.20683 0.91566,2.74002 1.09481,3.40692 0.47397,1.76441 1.14284,3.88799 1.4575,4.62825 0.15056,0.3542 0.27371,0.94463 0.27371,1.31236 0,0.36771 0.18631,1.13042 0.4141,1.69466 0.2278,0.56423 0.50937,1.4935 0.6259,2.06513 0.29628,1.4536 0.94525,3.0163 2.0499,4.93681 0.60901,1.05883 1.0866,2.17062 1.33975,3.11798 0.51284,1.91921 1.18804,3.93329 1.84725,5.51196 0.29125,0.69751 0.66735,1.74983 0.836,2.33849 0.16865,0.58867 0.42602,1.42123 0.57177,1.84995 0.14575,0.42872 0.46293,1.59797 0.70506,2.59832 0.52039,2.14997 0.93673,3.64811 1.82863,6.58241 1.47023,4.8369 1.54727,5.20375 1.90916,9.07112 0.12281,1.31255 0.27175,2.02034 0.49191,2.33849 0.45343,0.65521 0.48128,0.757 1.23048,4.50916 0.37394,1.87261 0.77028,3.63658 0.88101,3.91981 0.19868,0.50829 0.25974,4.71053 0.0768,5.28698 -0.0492,0.15491 0.1142,0.58164 0.36302,0.94832 0.25091,0.36972 0.47488,0.97037 0.50308,1.34856 0.028,0.37506 0.12467,0.73089 0.21485,0.79065 0.0902,0.0598 0.25309,0.36895 0.362,0.68714 0.1089,0.31819 0.39002,0.72933 0.62455,0.91381 0.2345,0.18446 0.48088,0.50875 0.54739,0.72063 0.0665,0.21187 0.30487,0.55715 0.52982,0.76698 0.22493,0.2098 0.40904,0.58006 0.40904,0.8228 0,0.50406 0.12812,0.64355 1.96532,2.13854 0.73739,0.60004 1.40675,1.26476 1.48761,1.47745 0.0942,0.24773 0.0479,0.76835 -0.12924,1.44836 -0.24684,0.94744 -0.25072,1.28186 -0.0345,3.11258 0.13325,1.12814 0.25145,3.3764 0.26254,4.99602 0.0125,1.82641 0.13359,3.67177 0.31836,4.85933 0.25174,1.61799 0.27317,2.37796 0.13972,4.904 -0.0923,1.74771 -0.0939,3.25481 -0.004,3.6285 0.0845,0.35152 0.26988,1.4186 0.41207,2.37132 0.14218,0.95271 0.41458,2.29734 0.60526,2.98806 0.19068,0.69072 0.49293,1.78202 0.67158,2.4251 0.17862,0.64309 0.5294,1.5702 0.77949,2.06039 0.25008,0.49019 0.45471,1.05803 0.45471,1.2616 0,0.20359 0.11076,0.63488 0.24596,0.95847 0.1352,0.32358 0.29832,1.00983 0.36267,1.52482 0.0945,0.75649 0.0608,0.99242 -0.17625,1.22947 -0.23176,0.23175 -0.2502,0.34597 -0.087,0.54267 0.1338,0.1612 0.16472,0.49744 0.0876,0.95374 -0.0731,0.43286 -0.0458,0.79332 0.071,0.93411 0.58717,0.70749 1.44636,2.66428 1.49708,3.40995 0.0308,0.45332 0.21665,1.13943 0.4131,1.52449 0.19644,0.38507 0.35727,0.94608 0.35727,1.24671 0.0178,1.29536 0.75511,2.59496 1.04136,3.8843 0.0796,0.28581 0.38174,1.18223 0.67156,1.99204 0.28982,0.80981 0.52957,1.64559 0.53286,1.85739 0.003,0.21181 0.15232,0.71848 0.33089,1.12593 0.49313,1.12513 0.73966,1.87488 0.89959,2.73299 0.0799,0.42872 0.23451,1.16924 0.34341,1.6456 0.10889,0.47636 0.21642,1.21697 0.23886,1.64593 0.0224,0.42897 0.13166,0.95023 0.24291,1.15809 0.34219,0.6394 0.25931,0.97153 -0.21958,0.87998 -1.29954,-0.23112 -0.80948,0.67422 0.21485,0.95643 0.9573,0.18931 1.50903,0.86734 1.66555,2.0472 0.0668,0.50393 0.23264,1.1153 0.36843,1.35837 0.26224,0.46944 0.53924,1.52225 1.21019,4.59916 0.22855,1.04799 0.50068,2.17826 0.60458,2.51171 0.1039,0.33345 0.25301,1.26757 0.33156,2.07561 l 0.14277,1.46901 -0.65905,0.74904 c -0.73424,0.83411 -1.2051,2.01091 -1.2051,3.01209 0,0.50514 -0.13714,0.81529 -0.57955,1.31167 -0.31866,0.35755 -0.85093,1.07865 -1.18312,1.60265 -0.33217,0.52399 -0.94038,1.34116 -1.35159,1.81577 -0.77573,0.89526 -1.21628,1.73719 -1.21628,2.32529 0,0.18781 -0.31178,0.70188 -0.69288,1.14219 -0.38109,0.44031 -0.69289,0.87373 -0.69289,0.9632 0,0.0895 -0.18663,0.16274 -0.4148,0.16274 -0.25406,0 -0.73539,0.30262 -1.2413,0.7805 -0.45441,0.42922 -1.22235,0.9804 -1.70684,1.22507 -1.55934,0.78747 -1.9169,0.99315 -2.09353,1.20375 -0.0953,0.1136 -0.54543,0.30595 -1.00043,0.42765 -0.455,0.12172 -0.86936,0.28926 -0.92058,0.37215 -0.0512,0.0829 -0.32259,0.26932 -0.60323,0.41445 -0.39827,0.20594 -0.59096,0.22093 -0.87795,0.0673 -0.32372,-0.17324 -0.44764,-0.1092 -1.03763,0.53624 -0.36857,0.40319 -0.67022,0.79874 -0.67022,0.87896 0,0.25155 -3.21356,2.60477 -4.01251,2.93834 -0.25438,0.1062 -0.50879,0.38233 -0.56737,0.61575 -0.064,0.25515 -0.34535,0.53747 -0.70811,0.71047 -0.33096,0.15782 -0.60153,0.35035 -0.60153,0.42798 0,0.0776 -0.15183,0.29291 -0.33732,0.47838 -0.49139,0.4914 -0.81752,1.2019 -0.95812,2.0878 -0.12936,0.81496 -0.73758,2.02782 -1.21627,2.4251 -0.49803,0.41334 -0.79173,1.40796 -0.76462,2.58952 0.0144,0.6241 -0.0307,1.52794 -0.0998,2.00863 -0.11294,0.78521 -0.0798,0.9284 0.32379,1.4081 0.28893,0.34337 0.7269,0.60373 1.22743,0.72976 0.57357,0.14443 0.84525,0.32562 1.0329,0.68849 0.14003,0.27079 0.53426,0.73766 0.87591,1.03763 0.49451,0.43418 0.77581,0.54539 1.38002,0.54539 0.64506,0 0.86941,0.10311 1.49573,0.68713 0.40529,0.37792 1.01596,0.81094 1.35702,0.96219 0.34105,0.15126 0.83912,0.3946 1.10666,0.54097 0.37189,0.20349 0.80018,0.24295 1.81882,0.1668 2.51244,-0.18786 3.4721,-0.50576 5.83607,-1.93217 1.07193,-0.64679 1.11863,-0.65829 1.44903,-0.35929 0.38868,0.35174 0.71624,0.3613 0.71624,0.021 0,-0.14291 -0.0729,-0.25984 -0.16172,-0.25984 -0.0888,0 -0.21344,-0.16418 -0.27708,-0.36471 -0.0879,-0.27679 0.0428,-0.52706 0.54299,-1.03933 0.36236,-0.37109 0.742,-0.67461 0.84345,-0.67461 0.10146,0 0.45587,-0.17894 0.78762,-0.39753 0.33172,-0.2186 0.954,-0.54908 1.38273,-0.73451 1.14296,-0.49437 3.67387,-2.20578 4.62757,-3.12914 0.4558,-0.44128 1.33557,-1.21269 1.95484,-1.71396 0.61928,-0.50128 1.55468,-1.40153 2.07865,-2.00082 0.524,-0.59928 1.08408,-1.22747 1.24469,-1.39593 0.16063,-0.16844 0.31651,-0.60355 0.34644,-0.96694 0.0499,-0.60544 0.10156,-0.66511 0.61745,-0.71486 0.46628,-0.0449 0.56297,-0.12678 0.56297,-0.47636 0,-0.36552 0.0799,-0.42223 0.59612,-0.42223 0.32781,0 0.65001,-0.0878 0.71622,-0.19487 0.0662,-0.10712 0.61189,-0.41747 1.21255,-0.68984 0.6007,-0.27236 1.15546,-0.60492 1.23252,-0.73924 0.0771,-0.13432 0.83694,-0.60809 1.68856,-1.05253 0.85163,-0.44441 1.72467,-0.99848 1.94029,-1.23115 0.21563,-0.23267 0.5126,-0.4229 0.66006,-0.4229 0.14745,0 0.2683,-0.071 0.2683,-0.15767 0,-0.24637 1.75583,-2.00994 2.37537,-2.38585 0.79852,-0.48448 1.54576,-1.49784 1.66793,-2.26203 0.058,-0.36218 0.29938,-0.92129 0.53624,-1.24232 0.36401,-0.49341 0.41426,-0.70728 0.32648,-1.38205 -0.0571,-0.43901 -0.17986,-0.89491 -0.27302,-1.01328 -0.35472,-2.56766 -0.15576,-4.56743 -1.13271,-7.24756 -0.58809,-0.83831 -0.0277,-2.65647 -0.27606,-3.73982 -1.37578,-4.9428 -1.24444,-7.9493 -1.23353,-12.37315 -0.0819,-0.37556 -0.005,-0.79929 0.25746,-1.4081 0.33929,-0.79614 0.20771,-3.7126 0.0903,-4.96184 -0.0834,-0.19293 -0.0477,-0.58 0.088,-0.95272 0.28681,-0.78772 0.25364,-2.81592 -0.0501,-3.05302 -2.09647,-1.81891 0.1112,-9.64099 -0.30517,-12.76865 0.11892,-0.46415 0.16655,-1.11009 0.10556,-1.43518 -0.061,-0.32507 -0.0351,-0.73092 0.0575,-0.90196 0.33959,-0.62715 0.46578,-1.36856 0.35862,-2.10641 -0.12686,-0.87355 -0.0888,-1.36485 0.19015,-2.44843 0.11038,-0.42872 0.21637,-1.05232 0.23548,-1.38577 0.0502,-0.87586 0.25718,-1.38577 0.56227,-1.38577 0.22079,0 0.24812,-0.16986 0.16072,-0.99603 -0.16179,-1.52895 -0.22632,-2.30301 -0.1969,-2.37232 0.01,-0.0231 0.03,0.0321 0.0606,0.16375 0.0933,0.4016 0.22944,0.53226 0.59883,0.5748 0.81852,0.0943 1.26429,1.32679 1.7806,4.92261 0.13312,0.92765 0.19707,1.80458 0.14176,1.94874 -0.006,0.0163 1.95307,3.92109 1.37325,5.31776 0.3273,0.4427 0.34474,0.57208 0.16612,1.23995 -0.20475,0.76553 -0.0853,2.15714 0.29231,3.40387 0.23932,0.79006 0.23258,0.86713 -0.0765,0.86713 -0.35557,0 -0.3262,0.38884 0.0673,0.88911 0.57648,0.73288 0.8773,1.6525 0.71996,2.20112 -0.16428,0.57285 -0.0366,2.06814 0.18845,2.20722 0.20681,0.12781 0.18961,0.89374 -0.023,1.02513 -0.27511,0.17003 -0.20825,1.57411 0.0866,1.81882 0.31289,0.25968 0.33572,1.06483 0.0524,1.84826 -0.18775,0.51923 -0.15495,0.67875 0.34644,1.6862 0.30461,0.61206 0.55384,1.35846 0.55384,1.65879 0,0.32879 0.18953,0.79455 0.47636,1.17061 0.49275,0.64601 0.52795,0.8725 0.61845,3.95804 0.0175,0.59545 0.13488,1.17997 0.26931,1.3428 0.1461,0.17682 0.19886,0.48354 0.13702,0.79269 -0.0682,0.34099 -0.0144,0.57546 0.16577,0.72502 0.15346,0.12735 0.23397,0.39112 0.1898,0.62218 -0.0487,0.25474 0.0709,0.57315 0.32819,0.87253 0.22276,0.25924 0.49224,0.90212 0.59882,1.4284 0.26585,1.31271 0.78568,3.18918 0.99128,3.57912 0.0935,0.17726 0.39058,1.20623 0.66041,2.2864 0.45663,1.82795 0.46998,1.97533 0.19284,2.13042 0.47172,2.47938 2.27645,6.3931 2.45183,7.42484 0.49464,2.96773 0.90928,5.15953 1.06843,5.6466 0.0964,0.29508 0.13087,0.65261 0.0765,0.79439 -0.0544,0.1418 0.0139,0.60184 0.15157,1.02241 0.13773,0.42054 0.30295,1.23231 0.36707,1.80394 0.0641,0.57163 0.22247,1.42908 0.35187,1.90544 0.12939,0.47636 0.28451,1.25899 0.34474,1.73931 0.0602,0.48035 0.13423,1.06497 0.16443,1.29916 0.0302,0.23422 0.22355,1.20545 0.42967,2.15817 0.37639,1.73975 0.91591,8.13482 0.74229,8.79876 -0.054,0.20648 0.0229,0.43042 0.1898,0.55249 0.22491,0.16444 0.27334,0.48592 0.24358,1.61888 -0.0319,1.21636 -0.0795,1.41452 -0.34034,1.41452 -0.1747,0 -0.30314,0.1311 -0.30314,0.30854 0,0.4606 0.49477,1.07791 0.86408,1.07791 0.33903,0 0.62275,0.5624 0.43608,0.86441 -0.0593,0.096 -0.13882,0.71603 -0.17694,1.37799 -0.0381,0.66197 -0.14367,1.34418 -0.23446,1.51602 -0.21995,0.41623 -0.71862,3.25925 -0.71689,4.09 0.002,1.35667 -0.68717,5.19505 -1.11884,6.22817 -0.27099,0.6486 -0.83006,1.09336 -1.13643,0.90401 -0.33453,-0.20676 -0.3809,0.46453 -0.0717,1.03865 -0.87328,3.19873 -0.0355,4.32744 -2.33816,8.25272 -0.17625,0.82128 -0.42089,1.67873 -0.54369,1.90544 -0.27436,0.50658 -0.47637,1.51702 -0.68848,3.44345 -0.40726,3.69892 -0.85107,5.48798 -1.4125,5.69566 -0.28372,0.10495 -0.36928,0.33946 -0.45471,1.24435 -0.0579,0.61319 -0.099,1.49861 -0.0913,1.96769 0.0125,0.76822 0.0824,0.91442 0.70541,1.47238 1.96082,1.75622 2.73503,2.35914 3.31251,2.57904 0.90587,0.34492 2.92677,0.33016 3.6143,-0.0264 0.73876,-0.38311 1.5634,-0.36284 2.3906,0.0589 0.88829,0.45287 2.6374,0.46327 3.91608,0.0233 0.7262,-0.24982 1.24889,-0.30302 2.3067,-0.23514 1.20964,0.0776 1.45451,0.0401 2.1206,-0.32376 0.62496,-0.34141 0.79122,-0.54439 0.97607,-1.1936 l 0.22262,-0.78255 1.39455,0.0606 c 1.14692,0.0499 1.51857,-0.003 2.09456,-0.29638 0.90616,-0.46229 1.77925,-1.63838 1.77925,-2.39668 0,-0.64183 0.50461,-1.26498 1.02444,-1.26498 0.18246,0 0.51374,-0.15323 0.7362,-0.34036 0.22246,-0.18715 0.66064,-0.54719 0.97369,-0.80013 0.80789,-0.65273 1.06486,-1.25719 1.18785,-2.79522 0.0593,-0.74121 0.22094,-1.62037 0.35964,-1.95382 0.54683,-1.31463 0.76095,-2.49937 0.64586,-3.57439 0,0 1.34511,-3.14731 -1.46393,-9.5901 0,-0.51376 -0.06,-0.65939 -0.24258,-0.58935 -0.28201,0.10821 -0.62202,-0.76516 -0.61371,-1.57625 0.005,-0.51901 0.004,-0.78142 -0.008,-1.51569 -0.003,-0.21436 0.0116,-1.63694 0.0335,-3.16129 0.0774,-5.38699 0.0534,-5.7826 -0.43643,-7.23469 -0.24958,-0.73988 -0.64846,-1.67739 -0.88641,-2.08341 -0.2756,-0.47027 -0.39585,-0.87837 -0.33156,-1.12424 0.0555,-0.21225 0.002,-0.50497 -0.11909,-0.6506 -0.30079,-0.36247 -0.29893,-5.66027 0.002,-6.73635 0.12914,-0.46126 0.1629,-0.97458 0.0832,-1.26126 -0.0739,-0.26586 -0.14999,-0.91219 -0.16916,-1.43618 -0.0192,-0.524 -0.12318,-1.42042 -0.23141,-1.99205 -0.10823,-0.57163 -0.19792,-1.35516 -0.19792,-1.74101 0,-0.38585 -0.0896,-0.78991 -0.19793,-0.89826 -0.1472,-0.1472 -0.11978,-0.49559 0.10861,-1.3773 0.16813,-0.64906 0.3279,-1.77495 0.35523,-2.50223 0.0304,-0.81013 0.16257,-1.54034 0.34069,-1.88481 0.18701,-0.36144 0.25876,-0.78604 0.2013,-1.1892 -0.0492,-0.34492 -0.14431,-0.99616 -0.21145,-1.447 0,0 -1.73828,-3.46059 1.48085,-6.74111 0.11364,-0.70045 0.20343,-1.5984 0.19928,-1.99575 -0.004,-0.42735 0.0949,-0.80759 0.24325,-0.93073 0.13796,-0.1145 0.25069,-0.46883 0.25069,-0.78728 0.0508,-1.69123 0.67052,-1.32935 0.57007,-4.06427 -0.0199,-0.46509 0.0385,-0.89183 0.12992,-0.94832 0.22165,-0.13695 1.14078,-1.37703 0.91549,-1.60235 -0.81662,-1.70372 0.86394,-3.21977 0.59144,-5.08935 0.0227,-0.5091 0.0883,-1.33325 0.14615,-1.83133 0.0989,-0.85253 0.0788,-0.91757 -0.34441,-1.11039 -0.35935,-0.37476 0.17569,-2.93987 0.4375,-3.14538 0.43489,-0.34035 0.57366,-0.61205 0.69188,-1.35635 0.13142,-0.82732 0.10899,-0.95988 -0.19962,-1.19394 -0.27329,-0.20728 -0.3232,-0.38242 -0.23513,-0.8228 0.0616,-0.30773 0.21918,-0.55958 0.35017,-0.55958 0.30611,0 0.30901,-0.70305 0.005,-1.11918 -0.11678,-1.40585 -0.17956,-2.49796 -0.11299,-4.55314 0,-0.22349 -0.19487,-0.77224 -0.43305,-1.21965 -0.4906,-0.92159 -0.55538,-1.55986 -0.17322,-1.70651 0.29482,-0.11313 0.36335,-1.19071 0.0866,-1.36175 -0.0953,-0.0589 -0.17322,-0.48552 -0.17322,-0.94831 -1.02005,-1.55089 -0.39167,-2.17334 -0.6117,-3.56932 -0.0969,-0.57733 -0.0441,-1.23185 -0.34237,-1.69601 -0.30137,-0.45995 -0.21145,-1.2086 0.2023,-1.68653 0.3548,-0.47432 -0.27434,-0.52951 -0.28756,-0.99603 0,-0.43806 -0.70101,-4.12236 -1.07588,-5.65439 -0.18649,-0.76218 -0.45788,-1.89245 -0.60288,-2.51171 -0.14499,-0.61927 -0.33338,-1.2613 -0.4185,-1.42673 -0.0852,-0.16544 -0.15462,-0.44228 -0.15462,-0.61505 0,-0.17279 -0.0843,-0.39826 -0.1871,-0.50106 -0.10282,-0.10283 -0.26069,-0.52751 -0.35084,-0.94392 -0.21322,-0.98509 -0.82256,-2.54036 -1.22372,-3.12239 -0.17428,-0.25288 -0.317,-0.58652 -0.317,-0.74126 0,-0.15474 -0.22311,-0.72734 -0.49565,-1.27243 -0.27253,-0.5451 -0.70721,-1.65352 -0.9659,-2.46333 -0.25869,-0.80981 -0.62022,-1.86369 -0.80352,-2.34189 -0.18332,-0.47821 -0.33325,-1.05152 -0.33325,-1.27411 0,-0.22259 -0.11515,-0.8488 -0.25578,-1.39152 -0.18122,-0.69923 -0.23663,-1.61514 -0.19012,-3.14304 0.0411,-1.35233 -0.002,-2.23888 -0.11674,-2.37839 -0.12927,-0.15757 -0.11803,-0.34307 0.0386,-0.63573 0.27869,-0.5207 0.0857,-1.98898 -0.29841,-2.2698 -0.1688,-0.12344 -0.30106,-0.56543 -0.35152,-1.17398 -0.0655,-0.79001 -0.0276,-0.99668 0.19995,-1.08398 0.31783,-0.12197 0.37832,-0.68284 0.0927,-0.85935 -0.11881,-0.0734 0.002,-0.31712 0.32716,-0.66006 0.28344,-0.2989 0.63292,-0.77756 0.77678,-1.06369 0.34234,-0.68084 0.66779,-3.35434 0.4564,-3.7493 -0.26913,-0.50288 -0.18283,-0.96708 0.19826,-1.06674 0.33469,-0.0875 0.34157,-0.1253 0.10318,-0.5863 -0.14081,-0.27229 -0.21365,-0.70832 -0.16272,-0.97472 0.0668,-0.34961 -0.0161,-0.59723 -0.30146,-0.90095 -0.37499,-0.39916 -0.38769,-0.50188 -0.27166,-2.18658 0.067,-0.97222 0.18536,-1.89059 0.26288,-2.04077 0.0775,-0.15018 0.2308,-1.55918 0.34102,-3.13117 0.11022,-1.57198 0.28665,-3.41896 0.39178,-4.1042 0.10518,-0.68525 0.14626,-1.41739 0.0914,-1.62733 -0.0982,-0.37537 0.22997,-2.82564 0.57245,-4.27438 0.096,-0.40625 0.17457,-0.97496 0.17457,-1.26363 0,-0.48166 0.12766,-1.13311 0.69424,-3.54089 0.11209,-0.47636 0.26289,-1.37278 0.33494,-1.99204 0.0721,-0.61927 0.25669,-1.86646 0.41038,-2.77155 0.15368,-0.90508 0.30171,-2.0314 0.32919,-2.50291 l 0.0501,-0.85732 1.03933,-0.18945 c 1.10498,-0.20143 3.6276,-1.1769 4.08423,-1.5793 0.15041,-0.13255 0.38426,-0.2402 0.51967,-0.2402 0.22387,0 2.23985,-0.98501 5.18311,-2.53371 1.10833,-0.58319 2.25188,-1.63942 2.25188,-2.08001 0,-0.50964 0.59209,-1.91858 1.017,-2.42003 0.25045,-0.29555 0.59315,-0.79169 0.76157,-1.10226 0.0926,-1.04852 -0.23806,-1.93117 1.15435,-3.31928 -0.15124,-0.28259 -0.10749,-0.4035 0.24663,-0.68206 0.70295,-0.55294 1.2979,-1.80478 1.41893,-2.98502 0.0606,-0.59101 0.18453,-1.34733 0.2754,-1.68079 0.53409,-1.95998 0.69138,-5.55198 0.34882,-7.96818 -0.11481,-0.80981 -0.24833,-1.86213 -0.29671,-2.33849 -0.0484,-0.47636 -0.16233,-1.21688 -0.25308,-1.6456 -0.0908,-0.42872 -0.24608,-1.40309 -0.34542,-2.16527 -0.0993,-0.76217 -0.25807,-1.77552 -0.35254,-2.25188 -0.61097,-3.08003 -0.52611,-5.10128 0.33089,-7.88157 0.43691,-1.41747 0.52545,-2.05383 0.63773,-4.59037 0.19562,-4.41907 0.21606,-4.73686 0.31769,-4.9013 0.0516,-0.0834 0.21827,-0.98864 0.37012,-2.01132 0.15186,-1.0227 0.35955,-2.06828 0.46182,-2.32359 0.10226,-0.2553 0.20326,-0.77598 0.22431,-1.15707 0.0827,-1.49632 0.77095,-5.06765 1.12999,-5.86348 0.20844,-0.46199 0.33596,-1.00413 0.28351,-1.20477 -0.0525,-0.20062 0.0572,-0.94788 0.24393,-1.66083 0.18674,-0.71292 0.33969,-1.52951 0.33969,-1.81442 0,-0.28493 0.0729,-0.75759 0.16205,-1.05016 0.21072,-0.69127 0.86851,-4.30192 0.95746,-5.25619 0.038,-0.40714 0.15136,-0.99176 0.25204,-1.29916 0.10068,-0.30738 0.25614,-1.26045 0.34577,-2.11789 0.0896,-0.85745 0.24289,-2.22157 0.34069,-3.03138 0.42418,-3.51218 0.58783,-5.04786 0.71894,-6.75563 0.15543,-2.02449 0.0694,-33.09487 -0.10149,-36.63633 -0.0597,-1.23853 -0.12441,-4.78524 -0.14345,-7.88157 -0.0341,-5.55294 -0.118,-6.40921 -0.62827,-6.40921 -0.23189,0 -0.72679,-1.01499 -0.59715,-1.22473 0.0596,-0.0964 0.25278,-0.12913 0.42935,-0.0731 0.17656,0.056 0.46234,0.0293 0.63503,-0.0592 0.17268,-0.0885 0.70205,-0.25271 1.17634,-0.3647 1.19908,-0.28309 2.60027,-1.12606 3.03136,-1.82357 0.54795,-0.90184 0.20267,-2.4895 -0.10996,-3.63527 -0.15723,-0.41731 -0.21509,-0.91331 -0.14817,-1.27006 0.071,-0.37867 0.0233,-0.71802 -0.13467,-0.96085 -0.13436,-0.20648 -0.29989,-0.88221 -0.36809,-1.50148 -0.0682,-0.61927 -0.28422,-1.71056 -0.48008,-2.4251 -0.81058,-2.95713 -1.00588,-3.76294 -1.09547,-4.52101 -0.0518,-0.43828 -0.17709,-1.06188 -0.27811,-1.38577 -0.40827,-1.30907 -0.71249,-2.88379 -0.69864,-3.61497 0.0107,-0.56391 -0.0846,-0.88009 -0.35152,-1.16417 -0.30379,-0.32337 -0.32891,-0.43539 -0.14581,-0.65601 0.17892,-0.21568 0.17866,-0.41687 -0.002,-1.06098 -0.12236,-0.43705 -0.22951,-1.13793 -0.23852,-1.55764 -0.009,-0.41973 -0.0662,-0.76323 -0.12721,-0.76327 -0.061,-1e-5 -0.15428,-0.25333 -0.20706,-0.56297 -0.28243,-1.65722 -0.42531,-2.21586 -0.62928,-2.46163 -0.14917,-0.17975 -0.1905,-0.52476 -0.12246,-1.02105 0.0565,-0.41225 0.027,-0.82519 -0.0656,-0.91788 -0.0927,-0.0927 -0.17819,-0.58863 -0.18979,-1.10192 -0.0116,-0.51329 -0.12743,-1.1879 -0.25746,-1.49911 -0.13002,-0.31119 -0.23616,-0.84288 -0.23616,-1.18177 0,-0.33889 -0.14949,-1.04173 -0.33224,-1.56169 -0.20722,-0.58954 -0.28756,-1.11326 -0.21314,-1.39152 l 0.11943,-0.44626 0.41445,0.44118 c 1.20685,1.18608 0.0753,-1.67732 -0.50816,-0.8326 0,0.23017 -0.047,0.2419 -0.25983,0.0653 -0.1643,-0.13636 -0.25983,-0.5184 -0.25983,-1.03933 0,-0.65735 0.0787,-0.87922 0.38974,-1.09853 l 0.38975,-0.27506 -0.56162,-0.48244 c -0.61601,-0.52931 -0.90738,-1.45499 -0.58157,-1.84758 0.15297,-0.18431 0.14218,-0.26179 -0.0467,-0.33426 -0.36262,-0.13915 -1.0654,-2.35063 -0.82381,-2.59224 0.13799,-0.13799 0.11864,-0.26884 -0.0704,-0.47771 -0.14322,-0.15826 -0.3792,-0.709 -0.52439,-1.22371 -1.11759,-3.96176 -1.70008,-5.79754 -1.92269,-6.05937 -0.12787,-0.15041 -0.23243,-0.42535 -0.23243,-0.61101 0,-0.18566 -0.11964,-0.50821 -0.26558,-0.71657 -0.14594,-0.20835 -0.37319,-0.68473 -0.50511,-1.05861 -0.13191,-0.37389 -0.54472,-1.1366 -0.91721,-1.695 -0.3725,-0.5584 -0.78265,-1.36608 -0.91144,-1.7948 -0.15718,-0.52316 -0.50887,-1.04388 -1.06943,-1.58369 -0.45939,-0.44238 -0.83498,-0.87602 -0.83498,-0.96355 0,-0.25248 -0.91707,-0.86288 -1.48321,-0.98722 -0.28412,-0.0624 -0.90437,-0.41948 -1.37867,-0.79371 -0.4743,-0.37422 -1.31236,-0.95503 -1.86213,-1.2907 -0.54976,-0.33568 -1.62266,-1.11746 -2.38417,-1.73729 -0.7615,-0.61983 -1.71453,-1.29536 -2.11789,-1.50114 -1.32723,-0.69182 -2.34348,-1.84396 -3.80377,-2.32394 -2.08744,-0.78766 -2.93538,-1.28632 -4.11773,-2.42104 -0.69727,-0.66918 -1.62153,-1.32929 -2.42273,-1.73018 -0.77376,-0.38717 -1.82014,-1.12686 -2.59832,-1.8371 -0.71657,-0.65401 -1.76126,-1.43361 -2.32124,-1.73221 -0.55995,-0.2986 -1.68127,-1.04312 -2.49175,-1.6544 -0.81049,-0.61129 -1.73627,-1.22117 -2.05735,-1.35532 -0.32526,-0.13591 -0.74207,-0.51203 -0.9412,-0.84953 -0.19657,-0.33316 -0.76115,-0.87402 -1.25485,-1.20173 -0.49368,-0.3277 -1.14645,-0.9419 -1.45038,-1.36513 -0.30392,-0.42323 -0.81059,-0.94802 -1.12594,-1.16586 -0.70124,-0.48444 -1.52584,-1.72326 -1.52584,-2.29214 0,-0.23058 -0.0684,-0.49344 -0.15192,-0.58395 -0.0835,-0.0905 -0.31736,-0.61548 -0.51966,-1.16687 -0.30326,-0.8265 -0.36775,-1.39016 -0.36775,-3.20933 0,-4.23058 0.36501,-5.71339 1.96937,-8.00033 0.77783,-1.10876 1.91505,-4.99524 2.12874,-7.2753 0.13274,-1.41656 0.19151,-1.53128 0.88336,-1.72341 0.35652,-0.099 0.96106,-0.18049 1.34347,-0.18101 0.6642,-8.6e-4 0.71362,-0.0398 1.10835,-0.87118 0.33242,-0.70017 0.37706,-0.94981 0.22836,-1.27615 -0.15093,-0.33124 -0.10882,-0.52894 0.22872,-1.07824 0.22737,-0.37 0.41589,-0.79429 0.41884,-0.94257 0.006,-0.30943 1.69157,-2.76173 1.898,-2.76173 0.12543,0 1.74507,-3.60984 1.74507,-3.88936 0,-0.16165 0.8392,-2.35009 1.04845,-2.73399 0.24355,-0.4468 0.19865,-1.64176 -0.0822,-2.18489 -0.13549,-0.26199 -0.41552,-0.99952 -0.62217,-1.63917 -0.23073,-0.7142 -0.50889,-1.23439 -0.72097,-1.34788 -0.61913,-0.33136 -0.83562,-1.21194 -0.83565,-3.39913 -2e-5,-1.15766 -0.11835,-2.64084 -0.27338,-3.42688 -0.21902,-1.11064 -0.2505,-2.00748 -0.15833,-4.51661 0.12027,-3.2736 0.0517,-3.87368 -0.6286,-5.50486 -0.19285,-0.46236 -0.4268,-1.31981 -0.52001,-1.90543 -0.16856,-1.0591 -0.4723,-1.83617 -2.07426,-5.30863 -0.46149,-1.00035 -0.91864,-2.13062 -1.01597,-2.51171 -0.42386,-1.65967 -2.2712,-5.57023 -3.08551,-6.53166 -0.26576,-0.31376 -0.70477,-0.87027 -0.97572,-1.23691 -0.27097,-0.36664 -1.03374,-1.10716 -1.69501,-1.6456 -0.72574,-0.59093 -1.44033,-1.36914 -1.80257,-1.96329 -0.50351,-0.82585 -0.8395,-1.12851 -2.08713,-1.87939 -2.58727,-1.55714 -3.36685,-1.74486 -7.58722,-1.82593 -1.72432,-0.0331 -2.63617,-0.046 -3.16096,-0.009 z m 37.00522,150.66506 c 0.23761,0.0834 0.45559,0.66843 0.71956,1.78167 0.37231,1.56999 0.57629,7.73267 0.25857,11.55472 -0.23033,4.78444 -0.52994,7.89584 -0.66572,6.91401 -0.078,-0.56382 0.72564,48.8891 -1.44969,21.00616 -0.29509,-3.78243 -0.51021,-9.95961 -0.51681,-16.58517 -0.006,-5.62374 1.75132,-10.04682 2.07396,-14.49553 0.29564,-4.07654 -1.46351,-8.40001 -1.25802,-8.9381 0.34373,-0.90005 0.60054,-1.32113 0.83815,-1.23776 z m -91.53578,-4.54773 c 0.19044,0.002 0.89199,0.27195 1.55899,0.6022 0.66699,0.33026 1.52435,0.69403 1.90544,0.80827 1.30115,0.38999 1.2962,0.38413 1.97885,2.4173 0.20793,0.61927 0.69028,1.98339 1.0718,3.03138 0.55204,1.51636 0.70602,2.1987 0.75447,3.34128 0.0335,0.78967 0.1506,1.5437 0.26016,1.67571 0.11691,0.14086 0.15493,0.47797 0.092,0.81605 -0.068,0.36539 -0.003,0.82394 0.17695,1.25381 0.20291,0.48391 0.27859,1.15266 0.26456,2.33849 -0.0109,0.91341 -0.0213,2.67417 -0.0213,3.9127 -0.002,2.54215 -0.0806,3.92548 -0.2622,4.57786 -0.0682,0.24511 -0.14838,1.14711 -0.17797,2.00456 -0.0713,2.06637 -0.33466,3.95005 -0.6154,4.39956 -0.18223,0.29172 -0.18474,0.43234 -0.0125,0.70811 0.25711,0.41168 0.2758,1.0323 0.049,1.62868 -0.11656,0.3066 -0.0873,0.73451 0.0985,1.44025 0.16898,0.64153 0.22555,1.32057 0.15732,1.88041 -0.0588,0.48193 -0.0277,1.08379 0.0687,1.33739 0.14173,0.3728 0.11966,0.49214 -0.11571,0.62385 -0.25399,0.14215 -0.26172,0.21844 -0.0589,0.59748 0.15122,0.28259 0.19479,0.69683 0.12449,1.18482 -0.0594,0.41261 -0.0341,0.86508 0.0562,1.00582 0.11374,0.17728 0.0762,0.35331 -0.12247,0.57279 -0.24983,2.15062 -1.5255,1.41988 -1.27208,6.18319 0.44672,0.63777 -0.80335,4.304 -2.09896,5.68586 -1.27685,1.36186 -2.65242,2.28158 -3.42687,2.29146 -0.23818,0.003 -0.58442,0.11995 -0.76935,0.25983 -0.32621,0.24674 -1.33124,0.32217 -1.80022,0.13499 -0.127,-0.0507 -0.37729,-0.43444 -0.55654,-0.85258 -0.20915,-0.48796 -0.43687,-0.76183 -0.63538,-0.7646 -0.39936,-0.006 -2.63468,-2.10668 -2.34457,-2.20384 0.38492,-0.12891 0.23054,-0.70233 -0.32378,-1.20205 -0.29727,-0.26799 -0.79883,-0.74053 -1.11444,-1.05016 -0.31561,-0.30963 -0.65718,-0.56297 -0.75885,-0.56297 -0.10166,0 -0.18472,-0.0606 -0.18472,-0.13466 0,-0.074 -0.3118,-0.54941 -0.69289,-1.05658 -0.38108,-0.50718 -0.69312,-1.01167 -0.69323,-1.12119 0,-0.27602 -0.83726,-1.10779 -1.52109,-1.51129 -0.31284,-0.1846 -0.61837,-0.47158 -0.67903,-0.63775 -0.0607,-0.16619 -0.29195,-0.48819 -0.51391,-0.71554 -0.22779,-0.23335 -0.40361,-0.62414 -0.40361,-0.89758 0,-0.33224 -0.1088,-0.51901 -0.34644,-0.59443 -0.19054,-0.0605 -0.34644,-0.16971 -0.34644,-0.24293 0,-0.25822 -1.28148,-1.7742 -1.67336,-1.97952 -0.47339,-0.24805 -2.69743,-3.16443 -3.26718,-4.28418 -0.22118,-0.43472 -0.52025,-0.88819 -0.66446,-1.00787 -0.14424,-0.1197 -0.31062,-0.43808 -0.36979,-0.70744 -0.0592,-0.26936 -0.25909,-0.62682 -0.44423,-0.79437 -0.18515,-0.16756 -0.33662,-0.39235 -0.33662,-0.49937 0,-0.10701 -0.27282,-0.76373 -0.60627,-1.45953 -0.33345,-0.69579 -0.60628,-1.34996 -0.60628,-1.45377 0,-0.10383 -0.10921,-0.31208 -0.24258,-0.46249 -0.13338,-0.1504 -0.68469,-1.16978 -1.2254,-2.2654 -1.73064,-3.50678 -2.43151,-4.69382 -3.36159,-5.69332 -0.65055,-0.69916 -1.670019,-2.71024 -1.616499,-3.18903 0.0202,-0.18075 -0.12827,-0.36977 -0.35964,-0.45775 -0.23037,-0.0876 -0.59903,-0.55497 -0.88741,-1.12492 -0.27134,-0.53629 -0.56129,-1.01684 -0.64418,-1.06808 -0.33892,-0.20946 -0.0902,-0.52744 0.70338,-0.89928 0.99384,-0.46565 2.456559,-1.51816 3.804099,-2.7377 0.53446,-0.48368 1.28347,-1.06243 1.66456,-1.28597 0.38108,-0.22355 1.13785,-0.80228 1.6818,-1.28596 2.75964,-2.45389 3.84365,-3.2314 4.60288,-3.30169 1.17776,-0.10904 1.66656,-0.28001 3.93538,-1.37767 2.35428,-1.13898 3.00963,-1.40629 4.15731,-1.69601 0.38109,-0.0962 1.03561,-0.26308 1.45445,-0.37079 0.5526,-0.1421 1.03668,-0.46886 1.764,-1.1909 0.71267,-0.70747 1.08685,-0.96261 1.29511,-0.88268 0.18242,0.07 0.35348,0.004 0.45336,-0.17425 0.0882,-0.15761 0.28585,-0.28656 0.43948,-0.28656 0.15361,0 0.63541,-0.20854 1.07045,-0.46349 0.76824,-0.45022 1.82467,-0.76993 2.53066,-0.76596 z"
       id="path4222"
       inkscape:connector-curvature="0"
       sodipodi:nodetypes="ccssssssccscscccscccccsscscccscsssccccccsssccscsscssscsssscscsccssssscccsccssccssssssccscssccscsssssccccccscssccsssscsccsscsccccscsscsssscccscccccccssscsssccssccccscsccsssssssscccccccsscssscsscscccsccsccccccscccsccsccccccccscccscccscssccccscccscscscccccsscssssccscsscsscsssccscssscccsssccccccccccsccscsscscccscccsssssccssssscccccsscscccccsscssscscsscscccccccscccscsscsscccsssscsscccccscccccccscssccscccccccccccccccsccssccccccsccssccscscscscccsssccsccccccscccsscsccsccssscccscscsccssscccccsscscsssssccccccccccssccscccscsccccsccccccsccccccsscsscscsssscsccssscssscccsscsscscccccssccscscscsscccssssscscccssscssscscscsccssccccccccscccscscccssssssscccssscscccssscsccccccssssssssccsssss" />
  </g>
</svg>
