<?xml version="1.0" encoding="UTF-8" standalone="no"?>
<!-- Created with Inkscape (http://www.inkscape.org/) -->

<svg
   xmlns:dc="http://purl.org/dc/elements/1.1/"
   xmlns:cc="http://creativecommons.org/ns#"
   xmlns:rdf="http://www.w3.org/1999/02/22-rdf-syntax-ns#"
   xmlns:svg="http://www.w3.org/2000/svg"
   xmlns="http://www.w3.org/2000/svg"
   xmlns:sodipodi="http://sodipodi.sourceforge.net/DTD/sodipodi-0.dtd"
   xmlns:inkscape="http://www.inkscape.org/namespaces/inkscape"
   width="825"
   height="1125"
   viewBox="0 0 825.00001 1125"
   id="svg2"
   version="1.1"
   inkscape:version="0.92.0 r15299"
   sodipodi:docname="mastermind.svg">
  <defs
     id="defs4" />
  <sodipodi:namedview
     id="base"
     pagecolor="#ffffff"
     bordercolor="#666666"
     borderopacity="1.0"
     inkscape:pageopacity="0.0"
     inkscape:pageshadow="2"
     inkscape:zoom="1.979899"
     inkscape:cx="55.473608"
     inkscape:cy="832.88338"
     inkscape:document-units="px"
     inkscape:current-layer="layer1"
     showgrid="false"
     units="px"
     inkscape:window-width="1920"
     inkscape:window-height="1017"
     inkscape:window-x="-8"
     inkscape:window-y="-8"
     inkscape:window-maximized="1"
     showguides="true"
     inkscape:guide-bbox="true">
    <sodipodi:guide
       position="-382.85715,760"
       orientation="0,1"
       id="guide4139"
       inkscape:label=""
       inkscape:color="rgb(0,0,255)"
       inkscape:locked="false" />
    <sodipodi:guide
       position="-65.714287,260"
       orientation="0,1"
       id="guide4141"
       inkscape:label=""
       inkscape:color="rgb(0,0,255)"
       inkscape:locked="false" />
    <sodipodi:guide
       position="75.000001,582.85714"
       orientation="1,0"
       id="guide4143"
       inkscape:label=""
       inkscape:color="rgb(0,0,255)"
       inkscape:locked="false" />
    <sodipodi:guide
       position="95.964491,1050.5586"
       orientation="1,0"
       id="guide1471"
       inkscape:locked="false"
       inkscape:label=""
       inkscape:color="rgb(0,0,255)" />
    <sodipodi:guide
       position="191.92898,1033.8911"
       orientation="0,1"
       id="guide1473"
       inkscape:locked="false"
       inkscape:label=""
       inkscape:color="rgb(0,0,255)" />
    <sodipodi:guide
       position="280.82241,997.02056"
       orientation="1,0"
       id="guide1475"
       inkscape:locked="false" />
    <sodipodi:guide
       position="186.87822,865.19565"
       orientation="0,1"
       id="guide1477"
       inkscape:locked="false"
       inkscape:label=""
       inkscape:color="rgb(0,0,255)" />
  </sodipodi:namedview>
  <metadata
     id="metadata7">
    <rdf:RDF>
      <cc:Work
         rdf:about="">
        <dc:format>image/svg+xml</dc:format>
        <dc:type
           rdf:resource="http://purl.org/dc/dcmitype/StillImage" />
        <dc:title />
      </cc:Work>
    </rdf:RDF>
  </metadata>
  <g
     inkscape:label="Layer 1"
     inkscape:groupmode="layer"
     id="layer1"
     transform="translate(0,72.637839)">
    <path
       id="path2991"
       d="m 191.43658,187.50182 c -0.75711,-0.13508 -1.75479,-0.23487 -2.39159,-0.38762 -0.51652,-0.1704 -1.51421,-0.2702 -2.2713,-0.40529 -0.8774,-0.11745 -2.40927,-0.50812 -4.04377,-0.76066 -1.27361,-0.3055 -3.42463,-0.72842 -4.42231,-0.82822 -0.7571,-0.13511 -2.151,-0.42294 -2.6852,-0.71381 -1.54955,-0.51118 -5.13328,-2.32399 -5.40921,-2.52968 -0.0354,-0.24099 -0.10606,-0.72295 -0.17677,-1.20491 0.13452,-0.75822 -0.17676,-1.20489 -1.24861,-2.64773 -0.98689,-1.70146 -1.26282,-1.90715 -1.09295,-2.42442 0.20522,-0.27627 0.16987,-0.51725 0.13452,-0.75823 -0.27593,-0.20569 -0.38199,-0.92863 -0.47037,-1.53107 -0.0354,-0.24098 -0.21213,-1.44589 -0.31819,-2.16882 -0.19444,-1.32539 -0.54108,-2.01302 -1.80393,-3.92018 -0.77823,-1.11666 -1.76511,-2.81813 -1.83582,-3.30008 -0.10606,-0.72295 -0.69328,-1.3753 -0.96922,-1.58098 -0.32898,-0.56715 -0.64026,-1.01383 -0.92309,-2.94166 -0.33585,-2.2893 -1.08216,-4.02606 -2.57135,-6.63851 -0.41736,-1.1696 -0.79935,-2.09822 -1.20592,-4.86949 -0.67171,-4.57862 -1.29429,-5.47195 -2.29198,-5.57176 -1.08261,0.15883 -1.51765,-1.13125 -2.23549,-4.34918 -0.41737,-1.16961 -0.92308,-2.94167 -1.26974,-3.62931 -0.78166,-1.97774 -0.88772,-2.70067 -0.34273,-4.01146 0.28671,-1.39598 0.45658,-1.91324 0.24446,-3.35911 -0.12374,-0.84343 -0.36431,-0.80814 -0.84547,-0.73755 -0.72176,0.10589 -0.75711,-0.13509 -0.41736,-1.16959 0.13453,-0.75825 0.0992,-0.99923 -0.26516,-1.80736 -0.58722,-0.65235 -0.62257,-0.89333 -0.007,-1.72216 0.16986,-0.51725 0.3751,-0.79353 0.0461,-1.36067 -0.27592,-0.20569 -0.31128,-0.44668 -0.14142,-0.96394 0.16989,-0.51724 0.545,-1.31078 0.93777,-1.98381 -0.0707,-0.48196 0.25482,-0.77588 0.42469,-1.29315 -0.24058,0.0353 -0.63681,-0.15274 -0.91276,-0.35842 -0.55186,-0.41137 -0.82779,-0.61705 -0.6756,-1.2548 -0.0353,-0.24098 0.23714,-0.89637 0.32207,-1.155 0.13453,-0.75824 -0.26515,-1.80734 -0.82045,-3.0798 -0.50229,-0.91097 0.75021,-1.58706 1.38358,-2.2954 0.16985,-0.51724 0.19833,-1.99843 0.44969,-3.63538 -0.17287,-4.528721 -0.0914,-5.648425 0.60925,-6.735875 0.3751,-0.79353 0.54496,-1.310786 0.27981,-3.118136 0.0638,-1.240195 0.10997,-2.60088 0.10997,-2.60088 -0.0354,-0.240979 0.0638,-1.240192 -0.0953,-2.324604 -0.55876,-2.133525 -0.16208,-6.130384 0.74376,-7.494107 0.16988,-0.517258 0.50963,-1.551768 0.86706,-2.465786 0.50962,-1.551764 2.77059,-3.729712 5.15529,-5.06423 0.89163,-0.623142 1.66295,-1.228634 2.05573,-1.901677 0.78556,-1.346077 1.08997,-2.621569 0.761,-3.188724 -0.52341,-1.892541 0.63726,-4.032154 0.0323,-4.804992 -0.51651,-0.17039 -2.68176,0.147267 -3.11334,-0.28175 -0.39967,-1.049115 -0.6756,-1.254797 -1.70864,-1.595578 -1.30897,-0.546464 -1.03649,-1.201856 -2.20015,-4.108222 -0.382,-0.928622 -1.45384,-2.371458 -1.73322,-3.438219 -0.29706,-1.187253 -1.50342,-1.871855 -1.50342,-1.871855 -0.0353,-0.240979 -0.0884,-0.60245 -0.51995,-1.031466 -0.17333,-0.343824 -0.86317,-0.858035 -0.93388,-1.339992 -0.15909,-1.084413 -0.15909,-1.084413 -0.64025,-1.013823 -3.88123,1.18482 -4.12181,1.220116 -5.56874,0.570809 -1.30899,-0.546462 -1.62026,-0.993126 -1.76167,-1.95705 -0.43503,-1.290091 1.51807,-3.053624 4.12569,-4.543932 1.73366,-0.746672 1.73366,-0.746672 1.59225,-1.71059 0.16988,-0.517261 -0.19445,-1.325394 -0.54109,-2.013038 -0.89852,-1.099011 -1.90655,-3.782042 -2.34847,-6.794292 -0.3005,-2.048325 -0.3005,-2.048325 0.43549,-2.8948 0.82092,-1.105104 2.46619,-2.454224 4.32015,-3.218542 0.84203,-0.123533 2.17947,-1.05825 3.67255,-1.769625 3.46387,-2.354421 6.91696,-3.107184 10.101,-2.343471 2.20404,0.784398 2.79127,1.436748 4.98798,4.683891 0.76054,0.996171 1.38313,1.889497 2.0057,2.782831 0.96233,-0.141181 2.04495,-0.300009 3.00728,-0.44119 2.52612,-0.370599 3.00728,-0.441189 3.79974,-0.06512 1.44693,0.649307 2.06952,1.542639 2.48687,2.712239 0.19444,1.325391 -0.27984,3.118136 -0.75755,4.049802 -0.41047,0.552553 -0.36821,2.515684 -0.0392,3.08284 0.24058,-0.03529 0.62258,0.893328 0.72864,1.616272 0.47038,1.531073 0.26515,1.807347 -1.00158,3.224016 -0.44581,0.311572 -0.65104,0.587847 -0.45659,1.913237 0.17676,1.204898 0.0422,1.963132 -0.57,3.653034 -0.69719,1.948534 -0.62648,2.430491 -0.37901,4.11735 0.75322,3.458912 1.30164,3.009203 4.16018,4.066841 1.7759,1.216458 4.13559,2.224191 7.0437,2.782217 3.42463,0.728416 6.03913,0.960267 8.11942,0.901238 3.00729,-0.441191 4.59221,0.310957 7.54945,4.554271 1.67674,2.215675 2.35234,3.470476 3.24008,6.171151 0.76398,1.857251 1.89229,4.522636 2.60326,6.018414 0.573,1.392937 1.39002,3.611657 2.10098,5.107435 0.41734,1.169603 1.54566,3.834986 2.23895,5.210274 1.80047,3.05911 2.58214,5.03685 3.12322,7.049873 0.0707,0.48197 0.6933,1.375301 1.24517,1.786662 1.86429,1.818916 2.21092,2.506567 3.02405,8.049107 0.63636,4.33763 0.77778,5.30154 0.36733,5.8541 -0.33975,1.03451 -2.7706,3.72971 -3.98774,4.64678 -1.56034,1.09048 -3.94893,5.74883 -3.68378,7.55617 -0.13453,0.75824 -1.63839,3.07128 -3.54191,4.33521 -0.89163,0.62314 -1.74791,1.48727 -2.19371,1.79882 -0.51308,0.6907 -1.64529,1.34913 -2.57226,1.7313 -1.45772,0.95235 -1.69831,0.98765 -2.03805,2.02215 -0.1522,0.63777 -0.35744,0.91403 -0.80324,1.22558 -0.56611,0.32923 -0.80669,0.36453 -0.55922,2.05139 0.15909,1.08441 0.63636,4.33764 0.8377,7.38519 0.97912,8.34909 1.96901,15.09653 3.09732,17.76191 1.00803,2.68303 1.18479,3.88792 0.95065,9.83028 -0.0392,3.08283 0.0668,3.80578 0.60791,5.81882 0.78855,3.69989 1.08906,5.74822 0.6786,6.30078 -0.37511,0.79351 -0.37511,0.79351 -3.41774,0.99372 -4.00496,0.3414 -10.62097,1.31202 -11.78853,1.72947 -0.72175,0.10588 -1.80437,0.26471 -2.28554,0.3353 z"
       style="opacity:1;fill:#000000;fill-opacity:1;fill-rule:evenodd;stroke:none;stroke-width:0.99999994"
       inkscape:connector-curvature="0"
       inkscape:export-filename="G:\apmeneel\Documents\Board Games\Masters of the Heist\decks\svg\crew\png\veteran.png"
       inkscape:export-xdpi="65.459999"
       inkscape:export-ydpi="65.459999" />
  </g>
</svg>
