<?xml version="1.0" encoding="UTF-8" standalone="no"?>
<!-- Created with Inkscape (http://www.inkscape.org/) -->

<svg
   xmlns:dc="http://purl.org/dc/elements/1.1/"
   xmlns:cc="http://creativecommons.org/ns#"
   xmlns:rdf="http://www.w3.org/1999/02/22-rdf-syntax-ns#"
   xmlns:svg="http://www.w3.org/2000/svg"
   xmlns="http://www.w3.org/2000/svg"
   xmlns:sodipodi="http://sodipodi.sourceforge.net/DTD/sodipodi-0.dtd"
   xmlns:inkscape="http://www.inkscape.org/namespaces/inkscape"
   width="825"
   height="1125"
   viewBox="0 0 825.00001 1125"
   id="svg2"
   version="1.1"
   inkscape:version="0.91 r13725"
   sodipodi:docname="thug.svg">
  <defs
     id="defs4" />
  <sodipodi:namedview
     id="base"
     pagecolor="#ffffff"
     bordercolor="#666666"
     borderopacity="1.0"
     inkscape:pageopacity="0.0"
     inkscape:pageshadow="2"
     inkscape:zoom="0.98994949"
     inkscape:cx="-11.961746"
     inkscape:cy="385.08921"
     inkscape:document-units="px"
     inkscape:current-layer="layer1"
     showgrid="false"
     units="px"
     inkscape:window-width="1920"
     inkscape:window-height="1017"
     inkscape:window-x="-8"
     inkscape:window-y="-8"
     inkscape:window-maximized="1"
     showguides="true"
     inkscape:guide-bbox="true">
    <sodipodi:guide
       position="57.142858,260"
       orientation="0,1"
       id="guide4689"
       inkscape:label=""
       inkscape:color="rgb(0,0,255)" />
    <sodipodi:guide
       position="197.14286,760"
       orientation="0,1"
       id="guide4691"
       inkscape:label=""
       inkscape:color="rgb(0,0,255)" />
    <sodipodi:guide
       position="75.000001,545.71429"
       orientation="1,0"
       id="guide4699"
       inkscape:label=""
       inkscape:color="rgb(0,0,255)" />
  <sodipodi:guide
   position="95.964491,1050.5586"
   orientation="1,0"
   id="guide1471"
   inkscape:locked="false"
   inkscape:label=""
   inkscape:color="rgb(0,0,255)" />
<sodipodi:guide
   position="191.92898,1033.8911"
   orientation="0,1"
   id="guide1473"
   inkscape:locked="false"
   inkscape:label=""
   inkscape:color="rgb(0,0,255)" />
<sodipodi:guide
   position="280.82241,997.02056"
   orientation="1,0"
   id="guide1475"
   inkscape:locked="false" />
<sodipodi:guide
   position="186.87822,865.19565"
   orientation="0,1"
   id="guide1477"
   inkscape:locked="false"
   inkscape:label=""
   inkscape:color="rgb(0,0,255)" />
   </sodipodi:namedview>
  <metadata
     id="metadata7">
    <rdf:RDF>
      <cc:Work
         rdf:about="">
        <dc:format>image/svg+xml</dc:format>
        <dc:type
           rdf:resource="http://purl.org/dc/dcmitype/StillImage" />
        <dc:title />
      </cc:Work>
    </rdf:RDF>
  </metadata>
  <g
     inkscape:label="Layer 1"
     inkscape:groupmode="layer"
     id="layer1"
     transform="translate(0,72.637839)">
    <path
       id="path2991"
       d="m 194.49948,798.00931 c -2.23281,-0.559 -5.02383,-1.67692 -5.58204,-2.23588 -1.95371,-1.11796 -1.95371,-1.67692 -1.95371,-5.8692 -0.5582,-3.35382 0,-4.75123 1.11641,-6.98711 0.8373,-1.11795 1.39551,-2.79483 1.39551,-4.75123 -0.55821,-2.23588 0,-2.79484 1.67461,-4.47175 1.67461,-1.67692 1.67461,-2.51537 1.67461,-5.86919 -0.5582,-4.19228 -0.5582,-5.86916 -2.79102,-7.54608 -1.11641,-1.11796 -1.11641,-2.23588 -1.11641,-6.98711 0,-6.42815 -2.51191,-14.53321 -4.18653,-14.53321 -0.5582,-0.55896 -0.5582,0.55898 -0.5582,6.42814 0,7.54611 -0.5582,10.89991 -2.23281,12.8563 -1.95371,1.67692 -10.60587,5.03072 -13.95509,5.03072 -2.51192,0.55896 -3.07013,0 -4.74473,-1.11792 -2.23282,-1.67692 -3.62833,-1.67692 -5.86114,0.55896 -2.23282,3.07432 -8.09396,6.42815 -15.0715,8.10504 -4.74474,1.39743 -6.41935,1.39743 -14.51329,1.39743 -8.65217,0 -9.48947,0 -12.28049,-1.39743 -4.74473,-2.23588 -6.97755,-8.664 -5.86114,-12.01784 1.11641,-2.51535 1.11641,-2.51535 9.48946,-4.75123 12.55959,-2.79484 22.60726,-9.78195 23.72366,-17.60754 1.1164,-5.03071 -0.5582,-30.74328 -2.79102,-41.08422 -0.8373,-2.51537 -1.95371,-8.38456 -3.62832,-12.85631 -1.1164,-5.31019 -2.79102,-11.73834 -3.34922,-14.53322 -0.83731,-4.19227 -1.95372,-6.98711 -3.07012,-10.06147 -3.90743,-6.9871 -4.74474,-9.22298 -3.90743,-20.96132 0,-15.09215 0,-13.97423 -2.51191,-16.21011 -1.11641,-1.11792 -2.23283,-1.67691 -4.46564,-2.23588 -5.30293,-0.83843 -9.48946,-3.63327 -12.83868,-8.38455 -0.5582,-1.11792 -1.1164,-1.67688 -1.95372,-2.23587 0.83732,-2.79483 0.83732,-5.3102 0.83732,-8.10503 0.5582,-4.19227 0.5582,-8.66403 0.5582,-9.22299 0,-0.83847 0,-3.07435 0.5582,-4.75123 0.5582,-1.67692 1.11641,-5.31024 1.11641,-8.66404 0,-6.98711 -1.11641,-9.50246 -5.86114,-10.62042 -2.79102,-1.11792 -8.093954,-5.86919 -8.652156,-7.54608 -0.558204,-1.6769 1.116407,-3.35382 3.349222,-4.19227 1.953713,-0.55896 3.070125,-1.11795 3.070125,-2.23587 0,-0.55896 -0.558211,-0.55896 -1.116412,-0.55896 -0.837305,0 -3.628326,-2.23588 -8.931259,-6.98711 -0.558203,0 -1.116407,-0.559 -1.674611,-1.11796 0.558204,-2.23588 0.558204,-4.75123 1.116408,-6.98711 1.67461,-11.73836 1.67461,-15.09217 1.116406,-18.1665 -0.558203,-2.23588 0,-3.35381 0.558204,-6.98712 1.395509,-2.23587 1.395509,-5.86917 1.395509,-8.10505 0,-2.79485 0.558204,-6.42815 0.558204,-8.10505 0,-1.67691 0,-4.75124 0,-6.42814 -0.558204,-1.67691 0,-4.19228 0.558204,-5.31022 0.558202,-2.23588 1.116407,-4.47175 1.116407,-9.78196 -0.558205,-5.3102 0,-6.98711 0.558202,-8.10505 0.558206,-1.11794 1.116408,-3.6333 1.116408,-5.86917 0,-2.23588 0,-5.31022 0.558205,-6.42816 0,-0.55897 0.558202,-5.3102 0.558202,-9.22299 0.558206,-17.04856 1.395511,-24.03567 3.070119,-29.34588 1.116413,-2.79485 2.232813,-5.58969 2.232813,-6.14866 0,-1.9564 2.23281,-10.62042 4.18653,-14.81268 1.11641,-2.23588 1.67462,-3.35382 3.90743,-4.47176 1.11641,-0.55897 3.07012,-1.67691 3.62832,-2.51536 0.55821,-0.55897 3.34923,-1.67691 6.41934,-2.79485 4.46563,-2.23587 6.97755,-3.35381 8.09396,-6.42815 0.55821,-0.55897 1.67461,-2.23587 2.79101,-3.91278 1.95372,-1.95639 3.07013,-3.07433 3.07013,-3.6333 0,0 -1.11641,-2.23587 -1.95372,-4.19226 -1.11641,-2.23588 -2.79102,-6.98712 -4.46562,-10.34093 -1.11642,-4.19228 -2.51193,-7.54609 -3.07013,-7.54609 0,-0.55897 -1.67461,-1.11794 -3.34923,-1.67691 -1.1164,-0.55897 -4.18651,-1.95638 -5.86113,-3.6333 -5.86114,-3.35381 -6.97755,-7.54608 -5.30293,-16.76908 3.62832,-12.85628 13.95509,-25.15361 26.23557,-30.46381 4.18653,-1.67691 5.30294,-1.67691 11.72228,-1.67691 1.67461,0 3.90742,-0.55897 6.41934,-0.55897 1.67461,1.11794 2.79102,1.67691 4.46563,2.23588 2.51191,1.39742 5.30294,3.63329 7.53574,4.75123 3.07013,1.67691 3.07013,2.23588 5.30294,6.98712 1.67462,4.75124 1.67462,5.86918 1.67462,11.73835 0,2.79485 0.55819,6.98711 0.55819,8.66402 1.95372,4.19228 0.83732,10.34094 -1.1164,14.53321 -2.23281,4.75123 -2.23281,6.98711 -0.5582,9.22298 0.5582,1.39744 2.51192,3.63331 3.62832,5.31021 5.86114,8.10506 11.44317,11.73835 23.72366,13.97423 5.30293,1.11794 8.65215,2.23588 11.72227,3.6333 2.23282,1.11794 4.46563,1.6769 5.30294,1.6769 0.5582,0 1.67461,1.11794 2.79102,2.23588 1.67461,1.67691 2.79101,2.51537 4.74472,2.51537 2.23283,0 3.90743,0.83845 3.90743,3.35381 0.2791,6.42815 4.74474,14.5332 3.62833,18.1665 -0.55821,1.6769 2.79102,9.223 6.41934,16.21011 0.5582,1.67691 1.11641,2.79485 1.67461,3.35381 0,1.39742 3.90743,12.85629 5.30293,13.97423 0.55821,0 1.67461,3.07434 2.23282,6.42816 0.5582,3.07432 2.79102,7.54608 4.18653,11.17937 1.67461,3.35382 2.79101,6.98712 3.34922,10.34094 1.1164,5.31021 1.1164,5.86917 0,9.50247 -0.55821,1.67691 -1.67461,4.47176 -1.67461,5.86918 0,0.55897 -0.5582,3.35381 -1.67461,5.58969 -0.83731,2.51537 -1.39551,5.31021 -1.39551,6.42815 0,1.39742 -1.11641,3.6333 -3.34923,5.86917 -1.67461,2.51536 -3.07011,4.75124 -3.62832,6.98712 -0.55821,1.67691 -2.23281,5.86918 -3.90742,9.50248 -2.51192,3.35381 -4.18653,7.54608 -4.18653,8.10505 -0.5582,1.11794 -1.67462,3.35381 -3.34922,5.86917 -4.74474,6.14867 -4.74474,6.98712 -1.11641,19.56394 1.67461,6.42812 3.34922,12.85627 3.90743,13.97422 0,0.55896 1.11641,4.19228 1.11641,6.98712 0,4.75123 0,5.31019 -0.55821,6.98711 -1.67462,1.95639 -7.53575,4.75123 -10.88498,5.31019 -4.18652,0.559 -4.74472,1.11796 -4.18652,11.73835 0.5582,4.47176 1.11641,8.66403 1.11641,8.66403 0.5582,1.11795 -1.11641,22.07929 -2.23282,28.50744 -1.67461,8.66403 -1.67461,17.60754 0,24.03566 1.11641,3.91278 1.67461,7.5461 3.90742,18.44605 0.83731,2.51535 1.95372,11.73834 3.07013,20.40236 1.1164,8.664 2.23281,18.1665 2.79101,20.40238 0,2.23588 0.55821,6.42816 0.55821,9.22299 0,10.06143 1.39551,20.40237 3.07012,23.47669 0.55821,1.11796 1.1164,2.79484 1.1164,2.79484 0,0.559 -1.1164,1.67692 -2.79101,3.07435 -1.95372,1.67692 -2.51192,2.23588 -2.51192,4.47176 0,2.51535 0,2.51535 -2.23281,3.63327 -1.67462,1.11796 -2.23282,1.67692 -2.23282,3.9128 4.74473,11.17939 -0.83731,3.63332 0.5582,10.62043 1.11641,4.47175 1.67462,5.86915 1.11641,9.22298 -0.5582,3.07433 -0.5582,3.63329 -5.30293,8.10503 -5.86114,5.8692 -6.97754,6.42816 -11.72228,7.54612 -7.53575,1.39739 -9.21036,0.55896 -13.95509,-0.55896 z"
       style="fill:#000000;fill-opacity:1;fill-rule:evenodd;stroke:none;opacity:0.6"
       inkscape:connector-curvature="0"
       inkscape:export-filename="G:\apmeneel\Documents\Board Games\Masters of the Heist\decks\svg\crew\png\persuasion specialist.png"
       inkscape:export-xdpi="49.740002"
       inkscape:export-ydpi="49.740002" />
  </g>
</svg>
