<?xml version="1.0" encoding="UTF-8" standalone="no"?>
<!-- Created with Inkscape (http://www.inkscape.org/) -->

<svg
   xmlns:dc="http://purl.org/dc/elements/1.1/"
   xmlns:cc="http://creativecommons.org/ns#"
   xmlns:rdf="http://www.w3.org/1999/02/22-rdf-syntax-ns#"
   xmlns:svg="http://www.w3.org/2000/svg"
   xmlns="http://www.w3.org/2000/svg"
   xmlns:sodipodi="http://sodipodi.sourceforge.net/DTD/sodipodi-0.dtd"
   xmlns:inkscape="http://www.inkscape.org/namespaces/inkscape"
   width="825"
   height="1125"
   viewBox="0 0 825.00001 1125"
   id="svg2"
   version="1.1"
   inkscape:version="0.92.0 r15299"
   sodipodi:docname="lookout.svg">
  <defs
     id="defs4" />
  <sodipodi:namedview
     id="base"
     pagecolor="#ffffff"
     bordercolor="#666666"
     borderopacity="1.0"
     inkscape:pageopacity="0.0"
     inkscape:pageshadow="2"
     inkscape:zoom="1.979899"
     inkscape:cx="229.24894"
     inkscape:cy="856.4274"
     inkscape:document-units="px"
     inkscape:current-layer="layer1"
     showgrid="false"
     units="px"
     inkscape:window-width="1920"
     inkscape:window-height="1017"
     inkscape:window-x="-8"
     inkscape:window-y="-8"
     inkscape:window-maximized="1"
     showguides="true"
     inkscape:guide-bbox="true"
     inkscape:snap-global="false">
    <sodipodi:guide
       position="-825.7143,765"
       orientation="0,1"
       id="guide4688"
       inkscape:label=""
       inkscape:color="rgb(0,0,255)"
       inkscape:locked="false" />
    <sodipodi:guide
       position="94.285715,260"
       orientation="0,1"
       id="guide4690"
       inkscape:label=""
       inkscape:color="rgb(0,0,255)"
       inkscape:locked="false" />
    <sodipodi:guide
       position="75.000001,1322.8571"
       orientation="1,0"
       id="guide4692"
       inkscape:label=""
       inkscape:color="rgb(0,0,255)"
       inkscape:locked="false" />
    <sodipodi:guide
       position="95.964491,1050.5586"
       orientation="1,0"
       id="guide1471"
       inkscape:locked="false"
       inkscape:label=""
       inkscape:color="rgb(0,0,255)" />
    <sodipodi:guide
       position="191.92898,1033.8911"
       orientation="0,1"
       id="guide1473"
       inkscape:locked="false"
       inkscape:label=""
       inkscape:color="rgb(0,0,255)" />
    <sodipodi:guide
       position="280.82241,997.02056"
       orientation="1,0"
       id="guide1475"
       inkscape:locked="false" />
    <sodipodi:guide
       position="186.87822,865.19565"
       orientation="0,1"
       id="guide1477"
       inkscape:locked="false"
       inkscape:label=""
       inkscape:color="rgb(0,0,255)" />
  </sodipodi:namedview>
  <metadata
     id="metadata7">
    <rdf:RDF>
      <cc:Work
         rdf:about="">
        <dc:format>image/svg+xml</dc:format>
        <dc:type
           rdf:resource="http://purl.org/dc/dcmitype/StillImage" />
        <dc:title />
      </cc:Work>
    </rdf:RDF>
  </metadata>
  <g
     inkscape:label="Layer 1"
     inkscape:groupmode="layer"
     id="layer1"
     transform="translate(0,72.637839)">
    <path
       inkscape:connector-curvature="0"
       id="path6240"
       d="m 206.56455,188.49878 c -0.45307,-0.10905 -1.12336,-0.45341 -1.48953,-0.76526 l -0.66576,-0.567 0.10811,-0.91824 c 0.0595,-0.50504 0.20669,-1.12272 0.32716,-1.37263 0.12047,-0.24991 0.24594,-0.68218 0.27882,-0.9606 0.0329,-0.27839 0.35326,-0.92851 0.71195,-1.44465 0.35869,-0.51617 0.84499,-1.42912 1.08063,-2.02877 0.23566,-0.59967 0.54889,-1.28882 0.69609,-1.53142 0.1948,-0.32114 0.21187,-0.49484 0.0627,-0.6385 -0.30195,-0.29087 -0.33094,-1.78346 -0.038,-1.9587 0.13299,-0.0795 0.49365,-0.31406 0.8015,-0.52115 0.30786,-0.20708 0.71026,-0.47377 0.89422,-0.59265 0.32188,-0.20801 0.30696,-0.23701 -0.39669,-0.77089 l -0.73114,-0.55471 -0.1717,-2.36276 c -0.0944,-1.29953 -0.19192,-2.70871 -0.21671,-3.13153 -0.0249,-0.42281 -0.34917,-2.59189 -0.72078,-4.82014 -0.37157,-2.22827 -0.88199,-5.93195 -1.13418,-8.2304 -0.33478,-3.0471 -0.56135,-4.48881 -0.83782,-5.32294 -0.20861,-0.62915 -0.4195,-1.4915 -0.46866,-1.91633 -0.0485,-0.4249 -0.1914,-0.85386 -0.31597,-0.9534 -0.12608,-0.10072 -0.68005,-0.1303 -1.24812,-0.0668 -0.85143,0.0952 -1.27599,0.024 -2.5498,-0.42768 -0.84056,-0.29808 -1.84474,-0.73741 -2.2315,-0.9763 -0.38676,-0.23889 -1.31638,-0.59429 -2.06583,-0.78975 -0.74946,-0.19549 -1.65376,-0.53668 -2.00956,-0.75825 -0.35579,-0.22154 -0.90391,-0.50122 -1.21804,-0.62152 -0.31413,-0.1203 -0.63492,-0.36206 -0.71287,-0.53725 -0.27617,-0.62051 -0.38227,-5.97075 -0.20102,-10.13628 0.15659,-3.59908 0.20336,-5.61365 0.17811,-7.67231 -0.0602,-4.90929 0.22912,-9.257 0.93387,-14.03265 0.28399,-1.9243 0.29889,-2.40574 0.0972,-3.13853 -0.13103,-0.47607 -0.22545,-1.31669 -0.20993,-1.86804 0.0407,-1.44013 -0.36317,-2.65766 -1.10618,-3.33452 -0.65835,-0.59977 -0.84185,-0.89842 -2.34322,-3.813339 -1.84389,-3.57991 -2.15214,-4.246467 -2.46255,-5.324881 -0.24377,-0.846835 -0.46376,-1.221082 -1.04927,-1.784898 -0.51899,-0.499776 -0.86179,-1.037198 -1.14477,-1.794765 -0.40113,-1.073863 -0.40174,-1.088024 -0.0882,-2.040623 0.20726,-0.629778 0.26736,-1.143092 0.17497,-1.494484 -0.15714,-0.514223 0.0429,-0.954286 -0.003,-1.428069 -0.12924,-1.327229 -1.43807,-2.970275 -0.76277,-3.927125 0.12346,-0.113356 0.25858,-0.377881 0.30025,-0.587823 0.0416,-0.20994 0.2357,-0.685335 0.43118,-1.056423 0.32333,-0.613775 0.32873,-0.698303 0.0598,-0.936003 -0.38036,-0.336192 -0.38785,-0.468649 -0.0531,-0.938088 0.15133,-0.212174 0.32998,-0.745583 0.39701,-1.185356 0.067,-0.439774 0.40919,-1.289019 0.76033,-1.887206 0.35114,-0.598195 0.6375,-1.166418 0.63636,-1.262732 -7.2e-4,-0.09636 -0.0299,-0.648556 -0.0639,-1.22721 0.16837,-1.633874 -0.36005,-2.365223 -0.34005,-3.049154 0.0142,-0.463889 0.1318,-1.280875 0.26135,-1.815536 0.12956,-0.534658 0.26813,-1.517416 0.30793,-2.1839 0.0641,-1.072111 0.16568,-1.472637 0.65113,-2.566203 0.27365,-0.68589 0.42985,-1.322569 0.68948,-2.033481 0.45238,-1.742231 0.57366,-3.762759 1.56328,-5.354705 0.51942,-0.793293 1.25108,-1.429607 1.70177,-1.480018 0.21295,-0.02382 0.94176,-0.338778 1.61962,-0.699915 0.67785,-0.361135 1.30256,-0.623418 1.38825,-0.582853 0.2611,0.123625 3.09036,-1.032029 3.3634,-1.373832 0.14062,-0.176038 0.39535,-0.335692 0.56607,-0.354787 0.46952,-0.05252 1.90289,-1.353165 3.20324,-2.906616 l 1.16242,-1.388669 -0.46956,-1.096224 c -0.25826,-0.602923 -0.47483,-1.211706 -0.48127,-1.35285 -0.0325,-0.713462 -0.12391,-0.799258 -0.75476,-0.708996 -0.59271,0.0848 -0.65682,0.04447 -1.1338,-0.713355 -0.75489,-1.1994 -1.55907,-2.933635 -1.62224,-3.498371 -0.0431,-0.385483 -0.19808,-0.566197 -0.68197,-0.795288 -1.3716,-0.649397 -3.06633,-2.742016 -3.36295,-4.152529 -0.2932,-1.394257 0.3106,-3.151469 1.37547,-4.002916 1.07763,-1.504328 1.20705,-1.054725 2.77142,-1.787688 l 1.31933,-0.623546 0.37908,-1.103061 c 0.4069,-1.183998 1.66676,-3.422745 2.33283,-4.145385 0.22428,-0.24333 0.81989,-0.716199 1.32359,-1.050818 0.78054,-0.518547 1.10929,-0.630043 2.22598,-0.754946 3.46012,-0.387017 7.03559,1.018794 7.79057,3.063102 0.15497,0.419549 0.48565,1.088222 0.73493,1.485934 0.4879,0.778435 0.49051,0.785193 0.62164,1.607047 0.0578,0.362043 0.17377,0.539422 0.34043,0.52078 0.37252,-0.04167 3.1896,1.56447 3.99542,2.277951 1.04675,0.926798 1.37041,1.519353 1.61811,2.962435 0.18866,1.099238 0.18037,1.352612 -0.0539,1.650252 -0.15225,0.193399 -0.44235,0.600971 -0.64471,0.905722 -0.20235,0.304746 -0.76909,0.945417 -1.25939,1.423713 -0.49032,0.478293 -0.88452,0.931925 -0.876,1.008069 0.009,0.07615 -0.21098,0.246954 -0.48776,0.379568 -0.35653,0.170818 -0.47142,0.32389 -0.39409,0.524957 0.06,0.156108 -0.0379,0.602181 -0.2178,0.991289 -0.17985,0.389103 -0.316,0.822302 -0.30258,0.96267 0.055,0.582003 -0.82507,2.009805 -1.47621,2.393368 -0.49399,0.290983 -0.71595,0.573977 -0.89893,1.146038 -0.13362,0.417805 -0.19191,0.800446 -0.12951,0.850317 0.0624,0.04986 0.41056,0.173514 0.77369,0.274762 0.42888,0.119573 1.2758,0.7272 2.41679,1.733935 0.96609,0.852417 1.98184,1.60119 2.25719,1.663938 0.27535,0.06275 0.92876,0.456052 1.45201,0.874023 0.8169,0.652559 1.16186,0.799262 2.44115,1.038225 3.18774,0.595461 6.63064,1.885322 8.05774,3.018785 0.95377,0.757529 1.60958,2.240607 1.9744,4.465018 0.20093,1.225159 0.36262,1.766643 0.58916,1.972984 0.26747,0.243637 0.3722,0.810952 0.73079,3.959243 0.37568,3.304722 0.46974,3.790346 0.92616,4.821237 0.31106,0.702522 0.55649,1.583509 0.63388,2.275393 0.0797,0.712647 0.31523,1.542621 0.63863,2.250534 0.47602,1.042028 0.546,1.422448 0.98724,5.367382 l 0.47491,4.245867 -0.36207,0.986197 c -0.3498,0.952766 -0.35043,0.993882 -0.0186,1.21283 0.83802,0.552876 1.11808,1.79569 0.90458,4.014109 -0.12631,1.31234 -0.34562,2.031961 -0.90421,2.966975 -0.19345,0.323812 -0.36637,0.993696 -0.39277,1.521457 -0.12866,2.57346 -1.53854,7.980351 -2.31556,8.880161 -0.46806,0.542 -0.48197,0.54614 -2.00679,0.59697 l -1.53547,0.0511 0.25296,1.23278 c 0.34142,1.66377 1.52661,7.10925 2.1313,9.79249 0.27029,1.19926 0.77324,3.61919 1.11767,5.37762 0.34446,1.75841 0.98171,5.0145 1.41611,7.23574 0.43443,2.22124 1.14728,6.43914 1.58414,9.37311 1.03126,6.926 1.10222,6.70982 -2.49127,7.59021 -2.91497,0.71415 -5.79256,1.52304 -5.90099,1.65877 -0.054,0.0678 -0.0307,1.25624 0.052,2.64109 0.15364,2.57319 0.20874,6.74828 0.11157,8.45476 -0.0298,0.5235 0.008,2.26035 0.0839,3.85964 0.076,1.5993 0.13371,3.59619 0.12829,4.43757 -0.007,1.1363 0.0624,1.70833 0.27101,2.2241 0.23428,0.57924 0.25177,0.87983 0.10545,1.81272 -0.0965,0.6151 -0.25194,1.32823 -0.34546,1.58473 -0.21697,0.59511 -1.0521,1.51414 -1.70132,1.87226 -0.7798,0.43016 -0.73866,1.24474 0.12846,2.54364 0.18459,0.2765 0.35205,0.64962 0.37213,0.82916 0.0625,0.55912 1.14175,2.77991 1.78195,3.6669 0.53412,0.74 0.63778,1.03646 0.82485,2.35925 0.19313,1.36504 0.17905,1.58282 -0.13597,2.22781 -0.52168,1.06582 -1.43154,2.0975 -2.02987,2.30163 -2.13349,0.72786 -4.61454,0.67813 -5.56279,-0.11148 -0.88691,-0.73858 -1.07483,-1.25376 -1.16812,-3.20236 -0.12215,-2.55185 -0.57384,-6.06498 -0.96952,-7.54171 -0.26328,-0.98243 -0.31363,-1.4491 -0.21996,-2.02952 0.10973,-0.67306 0.0741,-0.83132 -0.3323,-1.47635 -0.45197,-0.71733 -0.45803,-0.75877 -0.84946,-5.80367 -0.26901,-3.46757 -0.36722,-5.87606 -0.30917,-7.58409 0.0468,-1.3766 0.0399,-3.4651 -0.0152,-4.64113 -0.062,-1.32147 -0.0195,-2.44289 0.11126,-2.93573 0.25801,-0.97264 0.0956,-2.95223 -0.27122,-3.30553 -0.28148,-0.27114 -1.72741,-0.17133 -3.81096,0.26311 l -1.13426,0.23654 0.30494,2.73531 c 0.16727,1.50447 0.30446,3.39313 0.30445,4.19703 -1e-4,1.32767 1.19976,13.22005 1.47538,14.62326 0.16123,0.82071 0.0463,3.17868 -0.18426,3.78043 -0.14432,0.37668 -0.13354,0.65974 0.0437,1.14871 0.32211,0.88846 0.53505,2.8523 0.35749,3.29687 -0.12453,0.31178 -0.0735,2.08307 0.11737,4.07078 0.0374,0.38849 -0.0596,0.64222 -0.33087,0.86679 -0.24689,0.20434 -0.33595,0.40957 -0.2499,0.57574 0.0957,0.1848 0.0654,0.22593 -0.1063,0.14461 -0.14619,-0.0693 -0.30217,-0.01 -0.39909,0.1523 -0.27762,0.46402 -1.65348,1.53695 -2.02405,1.5784 -0.19605,0.0219 -0.57736,0.32488 -0.84736,0.67321 -0.27001,0.34831 -1.19761,1.08833 -2.06131,1.64445 -1.47174,0.94762 -1.66127,1.02365 -3.01733,1.21019 -1.01212,0.13917 -1.69448,0.13942 -2.2707,7.7e-4 z m -7.86977,-89.283006 c 0.30852,-0.386225 0.30729,-0.510911 -0.0256,-2.61974 -0.69894,-4.427871 -1.41209,-6.484141 -1.99843,-5.762132 -0.16354,0.201391 -0.0677,0.51409 0.54499,1.779098 0.84396,1.742365 0.85232,2.043202 0.082,2.9496 -0.42377,0.498652 -0.50265,0.732474 -0.43903,1.301312 0.0427,0.381402 0.22289,0.954991 0.4005,1.274657 0.17762,0.319652 0.33729,0.709425 0.35482,0.866144 0.0333,0.297736 0.38728,0.657906 0.62092,0.631773 0.0747,-0.0084 0.28163,-0.197678 0.4598,-0.420712 z m 30.48513,-16.809526 c 0.22447,-0.221123 0.40103,-0.465442 0.39236,-0.542933 -0.0126,-0.112482 -0.9395,-0.415127 -1.18671,-0.387477 -0.0327,0.0037 -0.0254,0.312368 0.0163,0.685999 0.0865,0.773133 0.20379,0.810006 0.77794,0.244418 z m -33.29307,1.17992 c -0.0354,-0.334583 -0.10464,-0.377823 -0.41301,-0.257077 -0.20388,0.07984 -0.48039,0.158473 -0.61448,0.174763 -0.15874,0.01937 -0.0535,0.188452 0.30176,0.484893 0.58614,0.489129 0.80674,0.366753 0.72573,-0.402579 z"
       style="opacity:1;fill:#000000;stroke-width:1"
       sodipodi:nodetypes="cscssccssssssscssssscsssssssssssscsssssscacsssssscccsscccsscssscssssssscccsssscscsssssssssscsscsssssssccsssscsssccsscsssssscsscccscssssscsssscsssssssccsssssscccsscscccsssssssssscsssccscsc" />
  </g>
</svg>
