<?xml version="1.0" encoding="UTF-8" standalone="no"?>
<!-- Created with Inkscape (http://www.inkscape.org/) -->

<svg
   xmlns:dc="http://purl.org/dc/elements/1.1/"
   xmlns:cc="http://creativecommons.org/ns#"
   xmlns:rdf="http://www.w3.org/1999/02/22-rdf-syntax-ns#"
   xmlns:svg="http://www.w3.org/2000/svg"
   xmlns="http://www.w3.org/2000/svg"
   xmlns:sodipodi="http://sodipodi.sourceforge.net/DTD/sodipodi-0.dtd"
   xmlns:inkscape="http://www.inkscape.org/namespaces/inkscape"
   width="825"
   height="1125"
   viewBox="0 0 825.00001 1125"
   id="svg2"
   version="1.1"
   inkscape:version="0.92.0 r15299"
   sodipodi:docname="shutter bug.svg">
  <defs
     id="defs4" />
  <sodipodi:namedview
     id="base"
     pagecolor="#ffffff"
     bordercolor="#666666"
     borderopacity="1.0"
     inkscape:pageopacity="0.0"
     inkscape:pageshadow="2"
     inkscape:zoom="1.979899"
     inkscape:cx="138.71091"
     inkscape:cy="882.06174"
     inkscape:document-units="px"
     inkscape:current-layer="layer1"
     showgrid="false"
     units="px"
     inkscape:window-width="1920"
     inkscape:window-height="1017"
     inkscape:window-x="-8"
     inkscape:window-y="-8"
     inkscape:window-maximized="1"
     showguides="true"
     inkscape:guide-bbox="true"
     inkscape:snap-global="true">
    <sodipodi:guide
       position="-1008.5714,760"
       orientation="0,1"
       id="guide4139"
       inkscape:label=""
       inkscape:color="rgb(0,0,255)"
       inkscape:locked="false" />
    <sodipodi:guide
       position="-760.00001,260"
       orientation="0,1"
       id="guide4141"
       inkscape:label=""
       inkscape:color="rgb(0,0,255)"
       inkscape:locked="false" />
    <sodipodi:guide
       position="75.000001,517.14286"
       orientation="1,0"
       id="guide4143"
       inkscape:label=""
       inkscape:color="rgb(0,0,255)"
       inkscape:locked="false" />
    <sodipodi:guide
       position="95.964491,1050.5586"
       orientation="1,0"
       id="guide1471"
       inkscape:locked="false"
       inkscape:label=""
       inkscape:color="rgb(0,0,255)" />
    <sodipodi:guide
       position="191.92898,1033.8911"
       orientation="0,1"
       id="guide1473"
       inkscape:locked="false"
       inkscape:label=""
       inkscape:color="rgb(0,0,255)" />
    <sodipodi:guide
       position="280.82241,997.02056"
       orientation="1,0"
       id="guide1475"
       inkscape:locked="false" />
    <sodipodi:guide
       position="186.87822,865.19565"
       orientation="0,1"
       id="guide1477"
       inkscape:locked="false"
       inkscape:label=""
       inkscape:color="rgb(0,0,255)" />
  </sodipodi:namedview>
  <metadata
     id="metadata7">
    <rdf:RDF>
      <cc:Work
         rdf:about="">
        <dc:format>image/svg+xml</dc:format>
        <dc:type
           rdf:resource="http://purl.org/dc/dcmitype/StillImage" />
        <dc:title />
      </cc:Work>
    </rdf:RDF>
  </metadata>
  <g
     inkscape:label="Layer 1"
     inkscape:groupmode="layer"
     id="layer1"
     transform="translate(0,72.637839)">
    <path
       inkscape:export-ydpi="112.5"
       inkscape:export-xdpi="112.5"
       sodipodi:nodetypes="csssscssssssssscssssssssssssssssssccccccscsssssscssscsssssscsssccccccssccssssssccccssssssssssssscccsssssszcsssssssscssssssccssssccsssssssscccccssscscc"
       style="fill:#000000;fill-opacity:1;stroke-width:0.99999994"
       d="m 186.87823,187.16708 c -0.63864,-0.48324 -2.45823,-0.36269 -0.88866,-4.75981 1.02675,-2.87635 0.19482,-3.05325 0.2285,-5.55548 0.009,-0.63871 0.0476,-2.56439 0.0211,-3.42508 -0.076,-2.46766 -0.40531,-5.71881 -0.1665,-7.341 0.20385,-1.38478 0.35857,-3.7504 0.34379,-5.25698 -0.0149,-1.50653 0.074,-3.23271 0.19722,-3.83596 0.12326,-0.60319 0.14788,-3.17663 0.0547,-5.71865 -0.131,-3.5748 -0.27198,-4.84367 -0.62241,-5.60077 -0.74377,-1.60695 -1.09807,-3.5926 -0.98246,-5.5061 0.0817,-1.35255 -0.0149,-2.12216 -0.387,-3.08367 -0.27274,-0.70472 -0.57978,-1.68298 -0.68229,-2.17398 -0.10247,-0.49097 -0.25313,-1.18876 -0.33471,-1.55063 -0.0815,-0.36183 -0.22116,-1.04836 -0.3102,-1.52551 -0.089,-0.4772 -0.3983,-1.36335 -0.68726,-1.96926 -0.28898,-0.6059 -0.53237,-1.33341 -0.54091,-1.61668 -0.0112,-0.38055 -0.0914,-0.43624 -0.30616,-0.21315 -0.21475,0.22297 -0.1248,0.80466 0.34436,2.22678 0.59035,1.78947 0.64278,2.38971 0.74508,8.53016 0.0605,3.63289 0.007,7.09304 -0.11957,7.68928 -0.12628,0.59624 -0.17258,1.96483 -0.10284,3.0413 0.0697,1.07648 0.12833,2.84922 0.13028,3.93937 0.002,1.09017 0.005,2.57677 0.007,3.3035 0.003,1.38879 0.46009,5.33737 1.28075,11.07613 0.69264,4.84354 0.64246,9.0935 -0.12719,10.77231 -0.53862,1.17492 -0.91059,1.23776 -3.081,0.52059 -1.96327,-0.6487 -2.23957,-0.62835 -3.91918,0.28857 -2.52935,1.38097 -5.21616,1.9979 -9.01304,2.06949 -2.67288,0.0504 -3.04661,2e-5 -3.48907,-0.47084 -0.3875,-0.41226 -0.44471,-0.68009 -0.26234,-1.2283 0.26664,-0.8016 1.17879,-1.39694 3.24584,-2.11846 1.79399,-0.6262 2.90612,-1.80027 2.80585,-2.96208 -0.0386,-0.44809 0.009,-0.94862 0.10591,-1.11229 0.17004,-0.28711 0.81101,-3.78074 0.84229,-4.59104 0.0376,-0.97572 0.23807,-2.38799 0.37057,-2.61169 0.33748,-1.59396 -0.056,0.65575 0.25386,-2.33051 0.29002,-2.17149 0.47141,-1.66287 0.34351,-3.84593 0.0803,-1.55944 0.10455,-3.62104 0.0533,-3.85129 -0.0904,-0.39792 -0.24458,-1.73287 -0.3425,-2.96658 -1.01553,-3.44699 -0.48781,-3.20901 -1.00232,-5.41774 -0.30091,-1.29236 -0.64644,-3.06138 -0.76785,-3.93128 -0.12141,-0.86986 -0.28896,-1.69293 -0.37234,-1.82901 -0.0834,-0.13607 -0.13309,-0.78927 -0.11048,-1.45153 0.0226,-0.66224 -0.0887,-1.73684 -0.24736,-2.38798 -0.15865,-0.65108 -0.3831,-1.95512 -0.49877,-2.89778 -0.11569,-0.94267 -0.25945,-1.79471 -0.31949,-1.89348 -0.06,-0.0987 -0.18482,-1.04784 -0.2773,-2.10909 -0.42218,-4.84437 -0.79571,-7.55469 -1.18302,-8.58382 -0.23084,-0.61344 -0.3359,-1.12072 -0.23344,-1.12725 0.10241,-0.008 -0.0478,-0.18202 -0.33389,-0.39015 -0.28609,-0.20796 -0.37854,-0.3809 -0.20546,-0.38416 0.20849,-0.004 0.30461,-0.54089 0.28481,-1.59111 l -0.0299,-1.58521 -1.13597,0.0214 c -1.26752,0.0239 -1.77668,-0.31384 -1.79319,-1.18946 -0.006,-0.32384 -0.20145,-0.77211 -0.43409,-0.99614 -0.23265,-0.22406 -0.29563,-0.40974 -0.13995,-0.41267 0.15937,-0.003 0.27329,-0.52495 0.26067,-1.19423 -0.0137,-0.72968 -0.14147,-1.18666 -0.33065,-1.18309 -0.16953,0.003 -0.23457,-0.0708 -0.14453,-0.16405 0.09,-0.0935 0.018,-0.41919 -0.15996,-0.72381 -0.67849,-1.16098 -1.06464,-2.48164 -1.50775,-5.15656 -0.51109,-3.08539 -0.50045,-2.98954 -0.45375,-4.08798 0.0185,-0.43643 -0.0486,-1.73489 -0.14921,-2.885464 l -0.18293,-2.09195 0.99175,-0.46668 0.99173,-0.46664 -0.14567,-2.73975 c -0.0852,-1.52497 1.48507,-6.8231 -1.11981,-6.17835 -3.73457,-0.0792 -6.90693,-0.75621 -8.11061,-1.7309 -1.29308,-1.04705 -2.4264,-3.43983 -2.45945,-5.19259 -0.0173,-0.91688 -0.12677,-1.41245 -0.28895,-1.30798 0.2568,-1.19304 1.333,-3.72446 1.56645,-4.39194 0.10712,-0.36455 0.59826,-1.91918 1.09143,-3.45476 0.49316,-1.53559 0.97467,-3.45042 1.07001,-4.25518 0.0953,-0.80475 0.40378,-1.94042 0.68541,-2.5237 0.28164,-0.58326 0.80597,-2.73108 1.16517,-4.77289 1.30673,-7.42791 1.50571,-7.7413 6.54742,-10.31283 1.58792,-0.80989 5.31066,-3.03979 6.79487,-4.07005 0.35871,-0.24899 0.8686,-0.53803 1.13311,-0.64229 0.59377,-0.46396 -0.3078,-2.5778 -0.50058,-3.04798 -0.16423,-0.41129 -0.55658,-0.30194 -0.79375,-1.17436 -1.34617,-3.02987 -0.85661,-4.28513 -1.98867,-6.48204 -0.0878,-0.44251 -0.1524,-0.045 -0.83691,0.11584 -3.2329,0.76156 -5.51723,0.51929 -5.381,-0.57069 0.0818,-0.65454 0.45299,-0.79064 3.69848,-1.35629 1.67414,-0.29177 2.02241,-0.43361 1.91125,-0.77839 -0.0748,-0.23207 -0.34536,-1.66643 -0.60133,-3.18789 -0.25599,-1.52149 -0.61036,-3.28319 -0.7875,-3.91489 -0.28969,-1.03314 -0.27182,-1.1796 0.17778,-1.45698 1.24505,-0.76808 7.59689,-2.88988 9.37165,-3.13051 0.75837,-0.10271 2.00334,-0.38542 2.7666,-0.62802 1.66545,-0.52933 1.49296,-0.68548 3.51055,3.17821 1.78038,3.40946 1.81857,3.43855 3.75015,2.85709 2.04596,-0.61589 4.15057,-0.65411 4.38354,-0.0798 0.38451,0.94818 -1.40401,2.65637 -3.65934,3.49498 -0.74764,0.27801 -1.30642,0.58762 -1.24172,0.68799 0.0647,0.10043 0.14486,0.83189 0.17811,1.62551 0.0436,2.47393 -0.71289,4.44602 -1.03087,6.9894 0.21367,0.0825 -0.15832,0.12952 -0.20108,0.2468 -0.18699,0.51349 0.042,1.58238 0.0442,1.69749 0.007,0.37494 1.85129,1.99228 3.09044,2.71024 0.58787,0.34062 2.45312,1.49786 4.13284,1.92584 1.67972,0.42799 3.29355,0.86605 3.5863,0.97348 0.29275,0.10752 1.92788,0.14234 3.6458,0.72346 1.71793,0.58109 2.00337,-0.0965 3.00483,1.25689 1.00144,1.35355 6.35837,13.42304 7.79535,20.87394 1.19137,3.17548 2.38992,6.01492 2.66345,6.30985 0.60455,0.65181 0.70431,2.62491 0.19747,3.90528 -0.80127,2.0241 -3.89134,4.67296 -6.9453,5.95361 -0.94875,0.39782 -1.85157,0.72572 -2.00625,0.72864 -0.1547,0.003 -0.34088,0.16976 -0.41376,0.37109 -0.0729,0.20124 -0.68234,0.45884 -1.35434,0.57263 -1.39925,0.23709 -1.67033,0.64891 -1.03719,1.5766 0.35773,0.52411 0.40336,0.90682 0.23313,1.95536 -0.11641,0.717 -0.12088,1.53547 -0.01,1.8188 0.11094,0.28332 0.2425,1.93586 0.2924,3.67229 0.0499,1.73643 0.1913,6.247514 0.31414,10.024544 0.2302,7.07499 0.0554,9.15666 -0.83308,9.92278 -0.19869,0.17131 -0.42879,0.64928 -0.51134,1.06206 -0.0903,0.4517 -0.36708,0.81171 -0.695,0.90413 -0.38164,0.10753 -0.49113,0.28623 -0.3654,0.5962 0.4147,1.02266 2.15713,7.82819 2.03636,7.95361 -0.0725,0.0752 -0.0161,0.27116 0.12566,0.43528 0.27535,0.31936 0.59669,1.44611 5.43809,19.06824 7.25803,26.41847 6.97767,25.32689 6.68215,26.01798 -0.20902,0.48876 -0.19569,0.66995 0.055,0.74831 0.44162,0.13806 0.15278,0.59019 -0.38344,0.6003 -0.23361,0.004 -0.348,-0.0718 -0.2542,-0.16913 0.0938,-0.0976 0.0636,-0.30498 -0.0672,-0.46124 -0.13078,-0.15636 -2.10552,-6.73068 -4.38833,-14.60978 -2.28282,-7.87915 -4.76934,-16.45481 -5.52561,-19.05704 -0.75625,-2.60222 -1.51785,-5.24177 -1.69243,-5.86567 -0.40254,-1.4384 -0.93157,-1.30159 -0.98346,0.2544 -0.18241,5.46878 -0.73322,13.37207 -0.94168,13.51173 -0.14872,0.0997 -0.24599,2.00224 -0.22995,4.49729 0.0457,7.11205 0.0205,7.80322 -0.26837,7.36958 -0.1763,-0.26449 -0.20445,0.0359 -0.0868,0.92666 0.2421,1.83312 -0.51704,10.95947 -0.76647,12.3308 -0.3107,1.45213 -0.26709,3.11482 -0.34135,3.40333 -0.65843,2.6335 -0.54973,0.6505 -0.82126,3.06698 -0.0164,3e-4 -0.24811,0.34347 -0.11079,0.71328 0.32456,0.77411 -0.23521,0.83704 -0.24499,1.60598 0.46624,1.40977 0.48703,1.81415 0.11579,2.25358 -0.21398,0.25313 -0.45783,0.70359 -0.54186,1.00064 -0.084,0.29704 -0.79869,1.20249 -1.58812,2.01215 l -1.43532,1.47206 -2.16899,0.1261 c -1.51114,0.0878 -2.3057,0.0249 -2.61985,-0.2148 z"
       id="path814"
       inkscape:connector-curvature="0" />
  </g>
</svg>
