<?xml version="1.0" encoding="UTF-8" standalone="no"?>
<!-- Created with Inkscape (http://www.inkscape.org/) -->

<svg
   xmlns:dc="http://purl.org/dc/elements/1.1/"
   xmlns:cc="http://creativecommons.org/ns#"
   xmlns:rdf="http://www.w3.org/1999/02/22-rdf-syntax-ns#"
   xmlns:svg="http://www.w3.org/2000/svg"
   xmlns="http://www.w3.org/2000/svg"
   xmlns:sodipodi="http://sodipodi.sourceforge.net/DTD/sodipodi-0.dtd"
   xmlns:inkscape="http://www.inkscape.org/namespaces/inkscape"
   width="825"
   height="1125"
   viewBox="0 0 825.00001 1125"
   id="svg2"
   version="1.1"
   inkscape:version="0.92.0 r15299"
   sodipodi:docname="thief.svg">
  <defs
     id="defs4">
    <pattern
       y="0"
       x="0"
       height="6"
       width="6"
       patternUnits="userSpaceOnUse"
       id="EMFhbasepattern" />
  </defs>
  <sodipodi:namedview
     id="base"
     pagecolor="#ffffff"
     bordercolor="#666666"
     borderopacity="1.0"
     inkscape:pageopacity="0.0"
     inkscape:pageshadow="2"
     inkscape:zoom="1.4"
     inkscape:cx="50.304498"
     inkscape:cy="747.40874"
     inkscape:document-units="px"
     inkscape:current-layer="layer1"
     showgrid="false"
     units="px"
     inkscape:window-width="1920"
     inkscape:window-height="1017"
     inkscape:window-x="-8"
     inkscape:window-y="-8"
     inkscape:window-maximized="1"
     showguides="true"
     inkscape:guide-bbox="true"
     inkscape:snap-global="false">
    <sodipodi:guide
       position="-1008.5714,760"
       orientation="0,1"
       id="guide4139"
       inkscape:label=""
       inkscape:color="rgb(0,0,255)"
       inkscape:locked="false" />
    <sodipodi:guide
       position="-760.00001,260"
       orientation="0,1"
       id="guide4141"
       inkscape:label=""
       inkscape:color="rgb(0,0,255)"
       inkscape:locked="false" />
    <sodipodi:guide
       position="75.000001,517.14286"
       orientation="1,0"
       id="guide4143"
       inkscape:label=""
       inkscape:color="rgb(0,0,255)"
       inkscape:locked="false" />
    <sodipodi:guide
       position="95.964491,1050.5586"
       orientation="1,0"
       id="guide1471"
       inkscape:locked="false"
       inkscape:label=""
       inkscape:color="rgb(0,0,255)" />
    <sodipodi:guide
       position="191.92898,1033.8911"
       orientation="0,1"
       id="guide1473"
       inkscape:locked="false"
       inkscape:label=""
       inkscape:color="rgb(0,0,255)" />
    <sodipodi:guide
       position="280.82241,997.02056"
       orientation="1,0"
       id="guide1475"
       inkscape:locked="false" />
    <sodipodi:guide
       position="186.87822,865.19565"
       orientation="0,1"
       id="guide1477"
       inkscape:locked="false"
       inkscape:label=""
       inkscape:color="rgb(0,0,255)" />
  </sodipodi:namedview>
  <metadata
     id="metadata7">
    <rdf:RDF>
      <cc:Work
         rdf:about="">
        <dc:format>image/svg+xml</dc:format>
        <dc:type
           rdf:resource="http://purl.org/dc/dcmitype/StillImage" />
        <dc:title />
      </cc:Work>
    </rdf:RDF>
  </metadata>
  <g
     inkscape:label="Layer 1"
     inkscape:groupmode="layer"
     id="layer1"
     transform="translate(0,72.637839)">
    <path
       id="path823"
       d="m 193.59673,20.024018 c 0.95354,-0.05469 2.11523,0.217976 3.2738,0.883352 0.37182,0.22327 1.05895,0.544844 1.5126,0.716081 0.86859,0.390071 2.11032,1.439268 2.63512,2.300768 0.3598,0.529708 0.42962,0.784111 0.58658,2.72991 0.12007,1.164817 0.14938,2.295382 0.12848,2.515535 -0.007,0.349569 -0.003,0.39271 0.48032,0.430084 0.61732,0.06717 1.05451,0.501703 1.26396,1.264906 0.13966,0.508799 0.0978,0.949109 -0.20462,2.24467 -0.36964,1.912883 -0.65696,2.509291 -1.27294,2.877976 -0.40918,0.260173 -0.40474,0.303314 -0.38874,1.304459 0.0146,0.565288 0.0915,1.73454 0.2236,2.592923 0.27305,1.80304 0.43359,2.091688 1.4792,2.507107 1.4948,0.543525 2.03029,0.662725 2.63427,0.600473 0.81968,-0.08448 2.18061,0.429231 3.22311,1.237371 0.42384,0.305113 1.53927,0.974938 2.46434,1.489981 1.98404,1.059887 2.54174,1.394801 3.86531,2.391964 2.12368,1.568693 3.94933,4.476083 5.36845,8.515372 0.92282,2.608053 1.50097,3.987246 2.08668,5.016867 0.21704,0.413624 0.66,1.327159 0.99444,2.033879 0.33444,0.706722 0.67332,1.456584 0.82498,1.658946 0.15167,0.202368 0.26462,0.452325 0.27351,0.538607 0.009,0.08628 0.18723,0.547495 0.36113,0.965565 0.21703,0.413629 0.39981,0.917983 0.42649,1.176831 0.0534,0.517693 0.52611,1.297357 0.93217,1.4299 0.3371,1.578438 0.28999,0.275309 0.3371,1.578438 -0.007,0.349574 0.14537,0.987809 0.27616,1.410321 0.4843,1.737666 0.77826,3.320546 0.68884,3.722161 -0.0164,0.263291 0.0192,0.608418 0.0934,0.905967 0.23038,0.543048 0.20191,1.112775 -0.13301,1.670489 -0.10719,0.229048 -0.22196,0.807669 -0.25932,1.29112 -0.0227,1.048726 -0.44437,2.879773 -0.98657,4.810436 -0.23084,0.721386 -0.49148,1.576644 -0.58533,1.935115 -0.18325,0.760081 -0.49594,1.533503 -0.76679,1.866614 -0.11609,0.142765 -0.25753,0.462542 -0.36472,0.691586 -0.0641,0.224602 -0.24418,0.591966 -0.39895,0.782312 -0.57153,0.800102 -0.24419,0.591968 -0.58799,1.063397 0.0996,0.120531 -0.43009,0.480325 -0.80681,1.478346 -0.073,0.13832 -0.30956,0.380705 -0.51193,0.532359 -0.20237,0.151658 -0.30956,0.380705 -0.28733,0.596414 0.0489,0.474551 -0.60757,1.719399 -1.53179,2.904659 -0.95847,1.275969 -1.0612,1.548168 -0.76546,2.302472 0.28241,0.62489 0.50029,2.738809 0.37352,3.623869 -0.0119,0.30643 -0.25175,0.94154 -0.47058,1.35648 -0.40341,0.73918 -0.43322,0.87305 -0.33406,2.25802 0.0293,1.13056 0.12588,1.64381 0.3651,2.27314 0.40426,0.96112 0.50919,2.82509 0.29746,4.15489 l 0.003,0.87173 c 0.27172,1.36718 0.88318,5.18452 2.18302,13.98845 0.39982,0.91798 0.7476,1.75412 0.76094,1.88355 0.009,0.0863 0.1352,0.46566 0.25705,0.8019 0.16944,0.37492 0.42649,1.17681 0.57947,1.81504 0.153,0.63823 0.44872,1.39254 0.65687,1.71988 0.16499,0.3318 0.49499,0.99538 0.67332,1.45659 0.17834,0.4612 0.46075,1.08609 0.66443,1.37029 0.16055,0.28866 0.33001,0.66358 0.35224,0.87929 0.0445,0.43141 0.56036,1.20662 1.13587,1.7141 0.28997,0.27532 0.49366,0.55951 0.51589,0.77522 0.0578,0.56084 0.36955,2.31629 0.60569,3.33834 0.13521,0.46565 0.26283,1.28089 0.26861,1.7599 -0.033,0.52658 0.0592,0.99668 0.16326,1.16036 0.47275,0.77966 0.59905,1.15904 0.48741,1.34494 -0.0774,0.0951 -0.0493,0.78989 0.0262,1.52328 0.0978,0.94911 0.0992,1.38497 -0.0124,1.57087 -0.11164,0.1859 -0.0983,0.31533 0.0236,0.65157 0.27351,0.5386 0.2824,0.62488 0.0457,0.86727 -0.11608,0.14277 -0.14456,0.71249 -0.0899,1.66605 0.0368,0.781 0.0218,1.48013 -0.0169,1.52773 0.004,0.0431 -0.0272,1.00559 0.0365,2.04543 0.0249,1.08742 -0.0188,2.3563 -0.0605,2.79661 -0.21173,1.32981 0.7845,2.53511 1.22878,3.88451 -0.0462,0.39715 -0.0641,0.2246 -0.23529,0.67824 -0.0894,0.40162 -0.0374,0.48344 0.0966,0.51324 l 0.14537,0.9878 c 0.0266,0.25886 -0.0716,0.57418 -0.1877,0.71694 -0.30956,0.38071 -0.28288,0.63956 -4.8e-4,1.26444 0.32555,0.62044 0.40115,1.35384 0.47674,2.08724 0.0445,0.43142 0.17078,0.81079 0.25393,1.19462 0.11869,0.72895 0.22859,1.37162 0.46784,2.00095 0.19168,0.59063 0.25393,1.19462 0.39801,1.74656 -0.085,0.44476 0.0726,1.12611 0.1659,2.03208 0.15119,1.4668 0.15564,1.50994 -0.26111,2.11969 -0.18013,0.36737 -0.58042,0.71382 -0.78724,0.82233 -0.53859,0.27351 -0.69783,0.42072 -0.46877,0.52792 0.0951,0.0774 -0.11609,0.14276 -0.54749,0.18723 -1.16036,0.16326 -1.67363,0.25971 -1.78971,0.40247 -0.12496,0.0566 -0.81967,0.0845 -4.65168,0.13066 -1.78658,0.009 -1.87286,0.0187 -2.258,-0.33405 -0.38961,-0.39585 -0.46388,-0.69338 -0.38157,-2.00986 0.10899,-1.05762 0.20284,-1.41609 0.46169,-1.44277 0.25884,-0.0266 0.50747,-0.5755 0.36027,-0.73472 -0.052,-0.0819 -0.0266,-0.25885 0.0462,-0.39718 0.11608,-0.14275 0.23974,-0.6351 0.37228,-1.04116 0.085,-0.44475 0.20861,-0.93709 0.28155,-1.0754 0.0685,-0.18145 0.0627,-0.66046 -0.0293,-1.13056 -0.0489,-0.47456 -0.0591,-0.99671 0.005,-1.2213 0.0596,-0.26774 0.0107,-0.7423 -0.0902,-1.29869 -0.20946,-0.76321 -0.19746,-1.06963 -0.0484,-1.739 0.2086,-0.93708 0.0423,-1.70473 -0.5212,-2.51865 -0.2037,-0.2842 -0.37314,-0.65913 -0.39092,-0.8317 0.22819,-1.5931 0.0583,-0.7036 0.22819,-1.5931 -0.0711,-0.69026 0.14191,-1.5842 0.49016,-2.0125 0.23217,-0.28553 0.26197,-0.41941 0.11788,-0.97134 -0.43227,-1.65584 -0.7089,-1.80171 -0.8721,-2.96208 -0.16188,-0.72451 -0.44116,-1.74211 -0.6195,-2.20332 -0.18279,-0.50436 -0.37002,-1.05185 -0.43095,-1.21997 -0.54125,-0.5982 -0.42961,-0.78411 -0.67021,-1.84929 -0.0907,-0.0342 -0.15165,-0.20238 -0.16944,-0.37494 -0.0178,-0.17257 -0.12631,-0.37938 -0.26461,-0.45233 -0.0952,-0.0774 -0.34646,-0.40028 -0.51146,-0.73207 -0.27351,-0.5386 -0.28241,-0.62489 -0.10671,-1.03539 0.10719,-0.22904 0.0805,-0.48789 0.033,-0.52658 -0.0908,-0.0342 -0.10853,-0.20682 -0.0832,-0.38382 -0.23171,-0.97892 -0.51543,-2.03966 -0.99841,-3.34147 -0.16055,-0.28863 -0.17389,-0.41807 -0.0623,-0.60397 0.0774,-0.0952 0.10272,-0.2722 0.007,-0.34957 -0.0565,-0.12498 -0.13966,-0.50881 -0.2228,-0.89263 -0.22986,-1.80749 -1.17362,-4.19539 -2.6884,-7.04763 -0.36868,-0.61598 -0.81609,-1.57266 -1.05091,-2.15885 -0.23037,-0.54306 -0.59461,-1.11591 -0.7805,-1.22754 -0.61421,-0.45989 -1.59085,-2.3212 -1.67978,-3.18403 -0.0356,-0.34513 -0.037,-0.78098 0.0272,-1.00559 0.0939,-0.35847 0.0761,-0.53102 -0.12313,-0.77209 -0.14721,-0.15923 -0.35979,-0.52972 -0.47721,-0.82281 -0.11742,-0.2931 -0.27796,-0.58174 -0.37314,-0.65913 -0.0476,-0.0387 -0.11297,-0.24996 -0.13076,-0.42252 -0.04,-0.38827 -0.63017,-1.46104 -0.85922,-1.56822 -0.0907,-0.0342 -0.20369,-0.2842 -0.27797,-0.58175 -0.0697,-0.2544 -0.2437,-0.67248 -0.30464,-0.84058 -0.16499,-0.3318 -0.25572,-0.36604 -0.63509,-0.23975 -0.21128,0.0653 -0.72451,0.16189 -1.02651,0.19302 -0.59954,0.10535 -0.64711,0.0666 -0.90728,-0.34248 -0.31221,-0.49102 -0.3509,-0.44342 -0.45233,0.26461 -0.0119,0.30645 0.0578,0.56085 0.26151,0.84505 0.20369,0.2842 0.26462,0.45232 0.15299,0.63822 -0.14144,0.31978 0.64477,6.25549 0.97921,6.96221 0.11298,0.24994 0.15744,0.68136 0.13647,0.90151 -0.27001,2.03342 -0.20378,3.94498 0.27475,5.20363 0.17834,0.46122 0.32689,1.05631 0.3967,1.31069 0.0965,0.51326 0.16189,0.72452 0.53501,1.38365 0.38203,0.74541 0.86406,4.57609 0.8111,7.02313 0.0115,0.958 0.0365,2.04542 0.0765,2.43369 0.16453,1.59623 0.28196,1.88932 -0.14994,3.19823 -0.5475,0.18723 -0.5475,0.18723 -0.56708,0.84324 -0.0507,0.35402 -0.0778,1.3596 -0.16595,2.19708 -0.11967,1.79992 -0.0116,3.27117 0.22632,3.46463 0.23794,0.19348 0.27351,0.53861 0.0369,0.78099 -0.31844,0.29442 -0.28912,1.42499 0.0142,1.82972 0.35536,0.48656 0.59993,2.85933 0.40465,3.92585 -0.24597,1.42055 0.24675,4.50892 0.88006,5.57723 0.31666,0.53416 0.50521,1.51752 0.60881,2.94563 0.0178,0.17256 0.0534,0.51769 0.12313,0.77209 0.0266,0.25885 0.08,0.77654 0.12451,1.20796 0.04,0.38826 0.44295,0.91354 0.1676,1.20351 -0.21882,0.41495 -1.05942,0.71959 -2.60361,0.96595 -0.9878,0.14538 -1.4877,0.37135 -2.66454,0.79785 -1.34939,0.44427 -1.6825,0.17341 -2.17039,0.0929 -0.34514,0.0356 -1.19017,0.29707 -1.99652,0.51098 -1.0176,0.27928 -2.06188,0.29973 -3.55848,0.58479 -1.10834,0.24503 -2.48754,0.82317 -4.34261,1.01438 -1.35516,-0.0347 -2.83086,0.0302 -3.49709,-0.51154 -0.47588,-0.38694 -0.50388,-1.08164 -0.23875,-1.89377 0.0596,-0.26774 0.16235,-0.53992 0.30822,-0.81656 0.2144,-0.4581 1.10568,-1.11675 1.60873,-1.73539 0.54617,-0.6231 0.69962,-1.24931 1.53889,-1.98981 0.17256,-0.0178 0.33623,-0.12186 0.40027,-0.34645 0.0596,-0.26774 0.18459,-0.32422 0.5773,-0.3211 0.30643,0.0119 0.60398,-0.0623 0.76321,-0.20947 0.12053,-0.0996 0.32735,-0.20813 0.45677,-0.22148 0.12941,-0.0134 0.36603,-0.25572 0.55062,-0.57994 0.18902,-0.28108 0.50302,-0.61865 0.71427,-0.68402 0.37807,-0.56215 0.74854,-0.77474 1.08034,-0.93974 0.12942,-0.0134 1.09678,-1.20303 1.08345,-1.33246 0.002,-0.82859 -0.21652,-1.67807 0.21664,-2.55111 0.14589,-0.27663 0.27398,-0.72582 0.29045,-0.98913 0.0164,-0.26328 0.12365,-0.49233 0.16234,-0.53992 0.0819,-0.052 0.0285,-0.56974 -0.077,-1.16925 -0.2108,-1.19907 -0.096,-1.77769 0.36075,-1.99917 l 0.33178,-0.16499 -0.26415,-1.71675 c -0.13649,-0.90153 -0.30863,-2.14818 -0.36644,-2.70902 -0.10095,-0.55638 -0.30286,-1.66915 -0.47361,-2.47994 -0.56435,-2.51422 -0.59993,-2.85934 -1.00457,-6.78519 -0.36907,-3.58073 -0.3913,-3.79644 -0.61591,-3.86048 -0.31088,-0.0551 -0.55458,-0.72764 -0.36555,-1.00871 0.15032,-0.2335 -0.0195,-3.57316 -0.30012,-5.02662 -0.11424,-0.68582 -0.55412,-1.99208 -0.80541,-2.31496 -0.10408,-0.16368 -0.0787,-0.34069 0.0196,-0.65601 0.20995,-0.50124 -0.1587,-1.11724 -0.22984,-1.8075 -0.38469,-1.61713 0.13793,-2.89179 -0.65726,-4.6846 -0.5159,-0.77522 -1.03758,-2.02944 -1.26481,-2.96521 -0.13521,-0.46565 -0.49187,-1.38808 -0.86056,-2.00407 -0.32555,-0.62043 -0.81166,-1.52952 -1.04202,-2.07257 -0.89925,-1.9565 -1.22036,-2.5338 -1.46275,-2.7704 -0.33756,-0.31401 -0.81609,-1.57267 -0.60482,-1.63804 0.20681,-0.10853 0.13254,-0.40606 -0.10536,-0.59954 -0.1859,-0.11165 -0.19479,-0.19792 -0.12187,-0.33624 0.18903,-0.28108 -0.157,-1.94581 -0.46026,-2.35053 -0.14721,-0.15923 -0.28686,-0.66803 -0.34912,-1.27201 -0.0666,-0.64712 -0.15426,-1.07409 -0.3491,-1.272 -0.19925,-0.24107 -0.22592,-0.4999 -0.24948,-1.15147 -0.001,-0.43587 -0.004,-1.30758 -0.0276,-1.95915 l -0.0293,-1.13056 -0.9562,-0.81704 c -0.48478,-0.47322 -0.97845,-1.03273 -1.04382,-1.244 -0.24371,-0.67247 -0.44514,-3.04969 -0.33486,-3.67145 0.0551,-0.31088 0.13434,-1.23463 0.13613,-2.06321 0.0272,-1.00559 0.13301,-1.670494 0.27891,-1.947129 0.22326,-0.371804 0.32913,-1.036712 0.30424,-2.124134 -0.0281,-0.694703 0.21798,-2.115246 0.37721,-2.262457 0.20236,-0.151652 0.70718,-1.598876 0.67161,-1.944003 -0.0178,-0.172567 0.10586,-0.664905 0.27711,-1.118554 0.17568,-0.410501 0.3545,-1.213725 0.39186,-1.697169 0.033,-0.526593 0.14768,-1.105213 0.21173,-1.329815 0.20548,-0.544371 0.17436,-0.846358 -0.11562,-1.121668 -0.29886,-0.36159 -0.32999,-0.66358 -0.0934,-0.905967 0.11608,-0.142765 0.30066,-0.466984 0.4421,-0.786762 0.20993,-0.501232 0.19659,-0.630656 -0.19702,-2.334069 -0.27172,-1.36718 -0.38156,-2.009852 -0.30545,-2.540889 0.11787,-0.971341 0.10453,-1.100766 -0.47361,-2.479959 -0.23927,-0.629331 -0.75781,-2.276264 -1.15452,-3.58696 -0.59726,-1.987622 -0.77248,-2.841549 -1.13444,-5.507416 -0.48072,-3.394815 -0.50295,-3.610523 -1.39331,-5.48073 -0.60351,-1.202179 -0.75649,-1.840403 -1.37996,-5.35131 -0.2286,-1.371624 -0.2864,-1.932459 -0.20275,-2.813074 0.14191,-1.58421 0.34295,-2.171724 1.25828,-3.443256 0.68317,-0.986008 0.92421,-1.185252 2.19491,-1.970218 2.95053,-1.830102 4.01884,-2.463409 4.14827,-2.476749 0.0863,-0.0089 0.16367,-0.104072 0.2366,-0.242387 0.0343,-0.09073 0.49859,-0.661784 1.05365,-1.198591 l 0.98071,-1.060275 -0.37314,-0.659133 c -0.16943,-0.374934 -0.62441,-0.982032 -1.00956,-1.334729 -1.50191,-1.458378 -2.18281,-2.565382 -3.42671,-5.75074 -0.0565,-0.124982 -0.42073,-0.697826 -0.87125,-1.261784 -0.50701,-0.688933 -0.83701,-1.352513 -1.01979,-1.856866 -0.27483,-0.974464 -0.18093,-1.332934 0.31893,-1.558857 0.33624,-0.121859 0.37492,-0.169444 0.24418,-0.591962 -0.0743,-0.297538 -0.32687,-1.0563 -0.4843,-1.737665 -0.20057,-0.676919 -0.40559,-1.396981 -0.51855,-1.646935 -0.21703,-0.413625 -0.11254,-1.514387 0.25402,-3.034554 0.32781,-1.472574 0.48258,-1.66292 1.91249,-2.595097 1.06386,-0.676452 1.38676,-0.927728 1.52375,-1.290646 0.19215,-0.6738 0.7263,-0.990454 1.84798,-1.106068 0.51324,-0.0965 1.06519,-0.240587 1.14258,-0.335762 0.31845,-0.294424 0.8228,-0.477208 1.3405,-0.530567 z m 19.40277,46.962419 c -0.25884,0.02668 -0.53416,0.316651 -0.37361,0.605302 0.8757,1.304926 1.74514,3.395288 2.43314,5.417152 0.64041,1.983171 1.13805,3.85026 1.23143,4.756222 0.22678,2.200203 0.27388,3.503338 1.42575,6.218583 0,0 1.57352,0.884201 0.95543,-5.112426 -0.31126,-3.019886 -0.17824,-4.690383 -1.37505,-6.572603 -1.19234,-1.839081 -3.60683,-5.383376 -4.29709,-5.31223 z"
       style="fill:#000000;fill-opacity:1;fill-rule:nonzero;stroke:none;stroke-width:1"
       inkscape:connector-curvature="0" />
  </g>
</svg>
