<?xml version="1.0" encoding="UTF-8" standalone="no"?>
<!-- Created with Inkscape (http://www.inkscape.org/) -->

<svg
   xmlns:dc="http://purl.org/dc/elements/1.1/"
   xmlns:cc="http://creativecommons.org/ns#"
   xmlns:rdf="http://www.w3.org/1999/02/22-rdf-syntax-ns#"
   xmlns:svg="http://www.w3.org/2000/svg"
   xmlns="http://www.w3.org/2000/svg"
   xmlns:sodipodi="http://sodipodi.sourceforge.net/DTD/sodipodi-0.dtd"
   xmlns:inkscape="http://www.inkscape.org/namespaces/inkscape"
   width="825"
   height="1125"
   viewBox="0 0 825.00001 1125"
   id="svg2"
   version="1.1"
   inkscape:version="0.92.0 r15299"
   sodipodi:docname="thug.svg">
  <defs
     id="defs4" />
  <sodipodi:namedview
     id="base"
     pagecolor="#ffffff"
     bordercolor="#666666"
     borderopacity="1.0"
     inkscape:pageopacity="0.0"
     inkscape:pageshadow="2"
     inkscape:zoom="3.959798"
     inkscape:cx="166.04932"
     inkscape:cy="965.65586"
     inkscape:document-units="px"
     inkscape:current-layer="layer1"
     showgrid="false"
     units="px"
     inkscape:window-width="1920"
     inkscape:window-height="1017"
     inkscape:window-x="-8"
     inkscape:window-y="-8"
     inkscape:window-maximized="1"
     showguides="true"
     inkscape:guide-bbox="true">
    <sodipodi:guide
       position="57.142858,260"
       orientation="0,1"
       id="guide4689"
       inkscape:label=""
       inkscape:color="rgb(0,0,255)"
       inkscape:locked="false" />
    <sodipodi:guide
       position="197.14286,760"
       orientation="0,1"
       id="guide4691"
       inkscape:label=""
       inkscape:color="rgb(0,0,255)"
       inkscape:locked="false" />
    <sodipodi:guide
       position="75.000001,545.71429"
       orientation="1,0"
       id="guide4699"
       inkscape:label=""
       inkscape:color="rgb(0,0,255)"
       inkscape:locked="false" />
    <sodipodi:guide
       position="95.964491,1050.5586"
       orientation="1,0"
       id="guide1471"
       inkscape:locked="false"
       inkscape:label=""
       inkscape:color="rgb(0,0,255)" />
    <sodipodi:guide
       position="191.92898,1033.8911"
       orientation="0,1"
       id="guide1473"
       inkscape:locked="false"
       inkscape:label=""
       inkscape:color="rgb(0,0,255)" />
    <sodipodi:guide
       position="280.82241,997.02056"
       orientation="1,0"
       id="guide1475"
       inkscape:locked="false" />
    <sodipodi:guide
       position="186.87822,865.19565"
       orientation="0,1"
       id="guide1477"
       inkscape:locked="false"
       inkscape:label=""
       inkscape:color="rgb(0,0,255)" />
  </sodipodi:namedview>
  <metadata
     id="metadata7">
    <rdf:RDF>
      <cc:Work
         rdf:about="">
        <dc:format>image/svg+xml</dc:format>
        <dc:type
           rdf:resource="http://purl.org/dc/dcmitype/StillImage" />
        <dc:title></dc:title>
      </cc:Work>
    </rdf:RDF>
  </metadata>
  <g
     inkscape:label="Layer 1"
     inkscape:groupmode="layer"
     id="layer1"
     transform="translate(0,72.637839)">
    <path
       id="path2991"
       d="m 188.79257,187.1563 c -0.78365,-0.0831 -1.78322,-0.32917 -1.99909,-0.49208 -0.71568,-0.28595 -0.74231,-0.47546 -0.94207,-1.89683 -0.34906,-1.11049 -0.22639,-1.61087 0.0455,-2.42213 0.23062,-0.41894 0.33998,-1.01406 0.24675,-1.67737 -0.29579,-0.73147 -0.13317,-0.94757 0.3547,-1.59592 0.48786,-0.64834 0.4479,-0.93261 0.2881,-2.06971 -0.38901,-1.39477 -0.46892,-1.9633 -1.30585,-2.42546 -0.43178,-0.32584 -0.48505,-0.70487 -0.71145,-2.31575 -0.30629,-2.17942 -1.54414,-4.8077 -2.11192,-4.72791 -0.21588,-0.1629 -0.16261,0.21612 0.11706,2.20602 0.35956,2.55846 0.33012,3.72216 -0.14443,4.46524 -0.5825,0.66165 -3.35615,2.21101 -4.49169,2.3706 -0.82501,0.3092 -1.0409,0.14628 -1.66193,-0.15294 -0.83693,-0.46217 -1.31007,-0.39567 -1.96055,0.46878 -0.61054,1.14873 -2.43792,2.56511 -4.72371,3.46613 -1.54208,0.69987 -2.10986,0.77967 -4.85406,1.16534 -2.93346,0.41227 -3.21735,0.45217 -4.23021,0.11137 -1.71521,-0.53198 -2.77854,-2.60501 -2.55984,-3.7953 0.25866,-0.90601 0.25866,-0.90601 2.99096,-2.06305 4.12508,-1.54603 7.19875,-4.39373 7.20438,-7.10016 0.13879,-1.75882 -1.65416,-10.39671 -2.90392,-13.79636 -0.40374,-0.81293 -1.06193,-2.74964 -1.84276,-4.18597 -0.63154,-1.7472 -1.50561,-3.84684 -1.82804,-4.76781 -0.48364,-1.38147 -0.99532,-2.27584 -1.52033,-3.265 -1.65772,-2.18274 -2.04814,-2.90091 -2.32359,-6.92063 -0.71913,-5.1169 -0.66586,-4.73787 -1.62405,-5.37624 -0.43178,-0.32583 -0.83693,-0.46216 -1.62059,-0.54529 -1.83788,-0.0316 -3.39047,-0.77966 -4.7524,-2.23097 -0.24252,-0.35242 -0.45841,-0.51534 -0.76893,-0.66497 0.15071,-0.98746 0.0309,-1.84027 -0.1023,-2.78785 -0.0108,-1.44796 -0.22357,-2.96408 -0.2502,-3.15361 -0.0399,-0.28427 -0.14649,-1.04232 -0.0371,-1.63747 0.10935,-0.59514 0.12548,-1.8536 -0.0343,-2.99069 -0.33294,-2.36893 -0.83131,-3.16854 -2.49325,-3.32151 -0.99955,-0.24604 -3.02387,-1.60424 -3.29303,-2.14617 -0.26915,-0.54195 0.21871,-1.19029 0.93578,-1.58096 0.63576,-0.2826 0.98763,-0.52533 0.93436,-0.90435 -0.0267,-0.18951 -0.21588,-0.16291 -0.40514,-0.13631 -0.28388,0.0399 -1.3367,-0.58518 -3.36103,-1.94337 -0.18924,0.0266 -0.40514,-0.13633 -0.62103,-0.29924 0.0828,-0.78466 -0.0371,-1.63747 0.0455,-2.42214 0.009,-4.059621 -0.15138,-5.196714 -0.48712,-6.21245 -0.2958,-0.731455 -0.15981,-1.137082 -0.14367,-2.395532 0.36659,-0.824561 0.19347,-2.056407 0.087,-2.814469 -0.13317,-0.947578 -0.11704,-2.206026 -0.19694,-2.774568 -0.0798,-0.568547 -0.22639,-1.61088 -0.3063,-2.179424 -0.26917,-0.541947 -0.19976,-1.421369 -0.0638,-1.826996 0.0828,-0.784659 0.16544,-1.569316 -0.0876,-3.369713 -0.4423,-1.773793 -0.33294,-2.368938 -0.19695,-2.774567 0.13599,-0.405631 0.20539,-1.285046 0.0988,-2.043104 -0.10651,-0.758062 -0.25303,-1.800398 -0.11704,-2.206029 -0.0267,-0.189516 -0.0638,-1.82699 -0.25022,-3.153598 -0.6231,-5.806813 -0.67216,-8.215648 -0.35741,-10.09584 0.24535,-1.000773 0.49067,-2.001542 0.46404,-2.191058 -0.0932,-0.663305 0.25096,-3.707183 0.71361,-5.221638 0.27196,-0.81126 0.40794,-1.216887 1.11171,-1.702312 0.35187,-0.242712 0.961,-0.714836 1.1103,-1.025706 0.16263,-0.216114 1.05564,-0.728136 2.04326,-1.253456 1.40752,-0.970845 2.2059,-1.469567 2.43792,-2.5651 0.16261,-0.216113 0.46123,-0.837853 0.75984,-1.459596 0.56916,-0.756396 0.89441,-1.188623 0.86777,-1.378137 0,0 -0.48505,-0.704864 -0.86215,-1.328271 -0.48505,-0.704865 -1.27921,-2.23595 -2.00679,-3.293246 -0.57827,-1.368171 -1.21122,-2.438766 -1.40046,-2.412169 -0.0267,-0.189514 -0.62105,-0.299234 -1.21545,-0.408955 -0.40514,-0.13632 -1.51264,-0.463815 -2.16031,-0.952569 -2.147,-0.857809 -2.72526,-2.225977 -2.59697,-5.432776 0.61757,-4.531734 3.53283,-9.193137 7.44344,-11.578689 1.3395,-0.768032 1.71802,-0.821229 3.89446,-1.127107 0.56776,-0.07979 1.29815,-0.375703 2.14981,-0.495396 0.62104,0.299237 1.02618,0.435557 1.62058,0.545278 0.91823,0.354095 1.97106,0.979161 2.78134,1.251801 1.12082,0.422256 1.14746,0.611772 2.13086,2.11626 0.79417,1.531085 0.84744,1.910116 1.1271,3.900023 0.13317,0.947578 0.52218,2.342342 0.60209,2.910888 0.86216,1.328274 0.77663,3.466137 0.31399,4.980596 -0.53062,1.717268 -0.42408,2.475331 0.25022,3.153595 0.25584,0.447195 1.02477,1.112161 1.48319,1.627507 2.37338,2.468694 4.43907,3.434558 8.70924,3.60746 1.85119,0.126349 3.03999,0.345793 4.14749,0.673289 0.81029,0.272639 1.59393,0.355759 1.87783,0.315861 0.18925,-0.0266 0.62104,0.299236 1.05282,0.625071 0.64766,0.488752 1.06613,0.71983 1.72852,0.626738 0.75702,-0.106389 1.36474,0.09808 1.48459,0.950902 0.40087,2.166136 2.30118,4.701312 2.09579,5.986357 -0.10935,0.595142 1.38576,2.994013 2.94885,5.190064 0.26916,0.541948 0.51168,0.894382 0.72758,1.057295 0.0666,0.473787 1.93738,4.172662 2.4638,4.485198 0.18924,-0.0266 0.71425,0.962543 1.06332,2.073037 0.33573,1.015733 1.30584,2.425464 1.9521,3.590814 0.72757,1.057299 1.27922,2.235952 1.62828,3.346446 0.63154,1.747201 0.65817,1.936713 0.45279,3.221756 -0.10936,0.595146 -0.3547,1.595919 -0.28811,2.069708 0.0266,0.189515 -0.0295,1.163686 -0.30142,1.974944 -0.16403,0.892719 -0.2201,1.866891 -0.16684,2.245922 0.0666,0.473787 -0.20539,1.285046 -0.85588,2.149498 -0.4479,0.932612 -0.8145,1.757168 -0.89722,2.54183 -0.10935,0.595143 -0.47735,2.096302 -0.872,3.407947 -0.69184,1.256781 -1.05985,2.757943 -1.03321,2.947451 -0.13599,0.405633 -0.40797,1.216893 -0.85588,2.149497 -1.31569,2.310768 -1.27574,2.595039 0.55371,6.686248 0.87407,2.09962 1.74813,4.19925 1.99066,4.55169 0.0267,0.18951 0.57827,1.36817 0.71145,2.31575 0.22638,1.61087 0.25302,1.80038 0.14367,2.39553 -0.47456,0.7431 -2.32856,1.96995 -3.43747,2.31904 -1.39278,0.38902 -1.55539,0.60514 -0.86009,4.17932 0.40233,1.48953 0.79135,2.88428 0.79135,2.88428 0.24253,0.35244 0.67356,7.53906 0.60135,9.77168 -0.15493,3.01729 0.27122,6.04953 1.14528,8.14915 0.56496,1.27341 0.92733,2.47867 2.20374,6.06784 0.40374,0.81293 1.22173,3.88672 2.01307,6.77101 0.79134,2.88429 1.62264,6.05286 1.91845,6.78432 0.10651,0.75806 0.49555,2.15283 0.62871,3.1004 0.47943,3.41127 1.44531,6.85081 2.15958,7.81334 0.24252,0.35244 0.51167,0.89438 0.51167,0.89438 0.0266,0.18952 -0.2986,0.62174 -0.79979,1.17533 -0.58248,0.66165 -0.74511,0.87775 -0.63857,1.63581 0.11986,0.85282 0.11986,0.85282 -0.58389,1.33823 -0.51451,0.45883 -0.67712,0.67496 -0.57058,1.43301 2.14136,3.56423 -0.11077,1.27176 0.69531,3.57419 0.59159,1.46293 0.84743,1.91011 0.81799,3.07381 -0.0427,1.06893 -0.0161,1.25845 -1.41173,3.00065 -1.70752,2.26919 -2.0594,2.5119 -3.61481,3.11702 -2.48837,0.83286 -3.09608,0.62838 -4.75802,0.47545 z"
       style="opacity:1;fill:#000000;fill-opacity:1;fill-rule:evenodd;stroke:none;stroke-width:0.99999994"
       inkscape:connector-curvature="0"
       inkscape:export-filename="G:\apmeneel\Documents\Board Games\Masters of the Heist\decks\svg\crew\png\persuasion specialist.png"
       inkscape:export-xdpi="49.740002"
       inkscape:export-ydpi="49.740002" />
  </g>
</svg>
