<?xml version="1.0" encoding="utf-8"?>
<!-- Generator: Adobe Illustrator 15.0.0, SVG Export Plug-In . SVG Version: 6.00 Build 0)  -->
<!DOCTYPE svg PUBLIC "-//W3C//DTD SVG 1.1//EN" "http://www.w3.org/Graphics/SVG/1.1/DTD/svg11.dtd">
<svg version="1.1" xmlns="http://www.w3.org/2000/svg" xmlns:xlink="http://www.w3.org/1999/xlink" x="0px" y="0px" width="558px"
	 height="468px" viewBox="0 0 558 468" enable-background="new 0 0 558 468" xml:space="preserve">
<g id="Guides_For_Artboard" display="none">
</g>
<g id="Background">
	<polygon fill="#929497" points="0,0 0,468 558,468 558,0 0,0 	"/>
</g>
<g id="cuts">
	<g id="XMLID_1_">
		<g>
			<path fill="#FFFFFF" d="M249.07,393.07v22.319c0,19.88-16.12,36-36,36h-110c-19.88,0-36-16.12-36-36V393.07H44.75
				c-19.88,0-36-16.12-36-36v-254c0-19.88,16.12-36,36-36h22.32V44.75c0-19.88,16.12-36,36-36h110c19.88,0,36,16.12,36,36v22.32
				h22.32c19.88,0,36,16.12,36,36h73c0,22,36,22,36,0h73h51.12v254h-51.12h-182c0,19.88-16.12,36-36,36H249.07z"/>
		</g>
		<g>
			<line fill="none" stroke="#EC1C24" stroke-miterlimit="10" x1="8.75" y1="357.07" x2="8.75" y2="103.07"/>
			<path fill="none" stroke="#EC1C24" stroke-miterlimit="10" d="M489.39,103.07h-73c0,22-36,22-36,0h-73"/>
			<polyline fill="none" stroke="#EC1C24" stroke-miterlimit="10" points="489.39,357.07 540.51,357.07 540.51,103.07 
				489.39,103.07 			"/>
			<path fill="none" stroke="#EC1C24" stroke-miterlimit="10" d="M8.75,103.07c0-19.88,16.12-36,36-36h22.32"/>
			<path fill="none" stroke="#EC1C24" stroke-miterlimit="10" d="M307.39,103.07c0-19.88-16.12-36-36-36h-22.32"/>
			<polyline fill="none" stroke="#EC1C24" stroke-miterlimit="10" points="67.07,131.87 67.07,67.07 67.07,44.75 95.87,44.75 			"/>
			<polyline fill="none" stroke="#EC1C24" stroke-miterlimit="10" points="249.07,131.87 249.07,67.07 249.07,44.75 220.27,44.75 
							"/>
			<path fill="none" stroke="#EC1C24" stroke-miterlimit="10" d="M67.07,44.75c0-19.88,16.12-36,36-36h110"/>
			<path fill="none" stroke="#EC1C24" stroke-miterlimit="10" d="M249.07,44.75c0-19.88-16.12-36-36-36"/>
			<line fill="none" stroke="#EC1C24" stroke-miterlimit="10" x1="307.39" y1="357.07" x2="489.39" y2="357.07"/>
			<path fill="none" stroke="#EC1C24" stroke-miterlimit="10" d="M8.75,357.07c0,19.88,16.12,36,36,36h22.32"/>
			<path fill="none" stroke="#EC1C24" stroke-miterlimit="10" d="M307.39,357.07c0,19.88-16.12,36-36,36h-22.32"/>
			<polyline fill="none" stroke="#EC1C24" stroke-miterlimit="10" points="67.07,357.07 67.07,393.07 67.07,415.39 95.87,415.39 			
				"/>
			<polyline fill="none" stroke="#EC1C24" stroke-miterlimit="10" points="249.07,357.07 249.07,393.07 249.07,415.39 
				220.27,415.39 			"/>
			<path fill="none" stroke="#EC1C24" stroke-miterlimit="10" d="M67.07,415.39c0,19.88,16.12,36,36,36h110"/>
			<path fill="none" stroke="#EC1C24" stroke-miterlimit="10" d="M213.07,451.39c19.88,0,36-16.12,36-36"/>
		</g>
	</g>
</g>
<g id="folds">
	<rect x="67.089" y="131.85" fill="none" stroke="#8BC53F" stroke-miterlimit="10" width="182" height="225.199"/>
	
		<line fill="none" stroke="#8BC53F" stroke-width="1.0332" stroke-miterlimit="10" x1="67.089" y1="357.049" x2="8.748" y2="357.049"/>
	<line fill="none" stroke="#8BC53F" stroke-miterlimit="10" x1="67.089" y1="103.05" x2="12.439" y2="103.05"/>
	<polyline fill="none" stroke="#8BC53F" stroke-width="1.0315" stroke-miterlimit="10" points="249.089,357.049 307.388,357.049 
		307.388,103.05 249.089,103.05 	"/>
	<line fill="none" stroke="#8BC53F" stroke-miterlimit="10" x1="489.388" y1="357.049" x2="489.388" y2="103.05"/>
	<line fill="none" stroke="#8BC53F" stroke-miterlimit="10" x1="95.889" y1="44.75" x2="220.289" y2="44.75"/>
	<line fill="none" stroke="#8BC53F" stroke-miterlimit="10" x1="67.089" y1="103.05" x2="249.089" y2="103.05"/>
	<line fill="none" stroke="#8BC53F" stroke-miterlimit="10" x1="95.889" y1="415.391" x2="220.289" y2="415.391"/>
</g>
<g id="instructions">
	<rect x="508.89" y="110.05" fill="#E6E6E6" width="25.6" height="239.999"/>
	<text transform="matrix(0 -1 1 0 524.9473 245.5879)" fill="#A6A8AB" font-family="'MyriadPro-Regular'" font-size="12">Glue</text>
	<g>
		<path fill="#EC1E28" d="M401.528,147.322c0,0.888-0.404,1.754-1.207,2.597l-0.127,0.125l-7.041,7.417
			c-1.496,1.571-2.77,2.787-3.82,3.646c-1.053,0.859-1.797,1.287-2.229,1.287c-0.455,0-1.021-0.214-1.697-0.644
			c-0.676-0.428-1.113-0.872-1.311-1.327c-0.166-0.38-0.326-1.185-0.473-2.416c-0.148-1.229-0.223-2.563-0.223-3.998
			c0-0.782,0.328-1.506,0.98-2.171s1.375-0.997,2.164-0.997c0.754,0,1.199,0.688,1.344,2.062c0.018,0.159,0.027,0.278,0.037,0.354
			c0.119,1.056,0.26,1.792,0.418,2.21c0.162,0.418,0.379,0.627,0.65,0.627c0.113,0,0.328-0.124,0.639-0.37
			c0.311-0.248,0.684-0.583,1.117-1.009l7.234-7.166c0.607-0.607,1.148-1.066,1.629-1.379c0.479-0.311,0.883-0.467,1.219-0.467
			c0.252,0,0.428,0.096,0.537,0.285c0.105,0.19,0.158,0.51,0.158,0.958V147.322z"/>
	</g>
	<line fill="none" stroke="#EC1C24" x1="434.284" y1="148.546" x2="434.284" y2="103.582"/>
	<text transform="matrix(1 0 0 1 401.6152 160.2495)" font-family="'ArialMT'" font-size="14">Trim Line</text>
	<line fill="none" stroke="#8BC53F" x1="220.289" y1="185.919" x2="249.089" y2="185.586"/>
	<rect x="335.741" y="380.714" fill="#E6E7E8" width="216.402" height="74.891"/>
	<text transform="matrix(1 0 0 1 468.6475 396.2314)"><tspan x="0" y="0" fill="#231F20" font-family="'Arial-Black'" font-size="8.2702">PLEASE NOTE:</tspan><tspan x="-48.716" y="9.924" fill="#231F20" font-family="'Arial-Black'" font-size="8.2702">Remove this layer before </tspan><tspan x="-44.117" y="19.849" fill="#231F20" font-family="'Arial-Black'" font-size="8.2702">sending the file to print. </tspan><tspan x="-54.225" y="29.772" fill="#231F20" font-family="'Arial-Black'" font-size="8.2702">This layer is provided as a </tspan><tspan x="-9.207" y="39.697" fill="#231F20" font-family="'Arial-Black'" font-size="8.2702">guide for set up. </tspan><tspan x="-59.741" y="49.621" fill="#231F20" font-family="'Arial-Black'" font-size="8.2702">DELETE LAYER AFTER USE.</tspan></text>
	<g>
		<path fill="#EC1E28" d="M468.601,388.387c0,0.565-0.258,1.118-0.77,1.655l-0.082,0.081l-4.49,4.732
			c-0.955,1.001-1.768,1.776-2.439,2.326c-0.67,0.546-1.145,0.82-1.42,0.82c-0.291,0-0.652-0.137-1.084-0.411
			c-0.432-0.272-0.709-0.555-0.836-0.846c-0.107-0.242-0.207-0.756-0.301-1.542c-0.096-0.784-0.143-1.635-0.143-2.55
			c0-0.501,0.209-0.961,0.625-1.387c0.418-0.423,0.877-0.635,1.381-0.635c0.48,0,0.766,0.438,0.857,1.316
			c0.012,0.101,0.018,0.176,0.023,0.225c0.076,0.674,0.166,1.143,0.268,1.409s0.24,0.401,0.414,0.401
			c0.072,0,0.209-0.08,0.408-0.237c0.197-0.157,0.436-0.371,0.713-0.644l4.615-4.57c0.387-0.388,0.732-0.682,1.039-0.881
			c0.305-0.199,0.564-0.299,0.777-0.299c0.16,0,0.273,0.062,0.342,0.183c0.068,0.122,0.102,0.325,0.102,0.611V388.387z"/>
	</g>
	<g>
		<circle fill-rule="evenodd" clip-rule="evenodd" cx="372.407" cy="417.436" r="33.053"/>
		<circle fill-rule="evenodd" clip-rule="evenodd" fill="#B7D333" cx="372.431" cy="417.617" r="30.049"/>
		<g>
			<path d="M365.997,411.065c-0.418,3.682-0.727,6.643-0.934,8.874L363.694,420c0.02-0.074,0.027-0.159,0.031-0.252
				c0.002-0.167-0.059-0.388-0.186-0.661c-0.125-0.271-0.197-0.445-0.215-0.52c-0.354,0.052-0.693,0.298-1.018,0.736
				c-0.324,0.441-0.619,0.662-0.879,0.658c-0.148-0.005-0.316-0.044-0.5-0.121c-0.246,0.163-0.562,0.233-0.955,0.209
				c-0.352-0.063-0.697-0.115-1.031-0.158c-0.012-0.467-0.469-0.874-1.377-1.226c0.004-0.187-0.09-0.463-0.279-0.831
				c-0.189-0.366-0.283-0.623-0.279-0.772c0.002-0.167,0.068-0.306,0.203-0.416c-0.02-0.055-0.174-0.403-0.459-1.043
				c-0.197-0.469-0.293-0.871-0.287-1.205c0.004-0.261,0.064-0.502,0.182-0.724c-0.16-1.587-0.23-2.948-0.211-4.084
				c0.029-1.751,0.279-3.359,0.754-4.824c-0.035-0.225-0.051-0.448-0.047-0.672c0.021-1.174,0.428-1.985,1.215-2.439l0.008-0.363
				c0.781-0.993,1.809-1.712,3.082-2.156c0.764,0.182,1.523,0.353,2.283,0.516c0.854,0.294,1.441,0.797,1.764,1.511
				c0.258,0.154,0.385,0.464,0.377,0.927c-0.01,0.524,0.051,0.861,0.178,1.012l-0.143,0.164c0.148,1.103,0.223,1.775,0.217,2.016
				c-0.012,0.71-0.197,1.209-0.557,1.501c-0.129-0.001-0.473-0.118-1.027-0.353c-0.133,0.128-0.275,0.191-0.422,0.188
				c-0.076-0.001-0.211-0.042-0.404-0.12c-0.193-0.077-0.357-0.115-0.488-0.117c-0.092-0.002-0.186,0.014-0.279,0.049
				c-0.012-1.471,0.035-2.569,0.139-3.295c-0.146-0.096-0.297-0.315-0.449-0.65c-0.152-0.339-0.35-0.529-0.59-0.569
				c-0.152,0.185-0.221,0.305-0.203,0.361l-0.5-0.177c-0.455,0.495-0.76,1.356-0.91,2.583c-0.154,1.415-0.348,2.352-0.578,2.813
				c0.201,0.209,0.299,0.499,0.291,0.872c-0.002,0.129-0.023,0.345-0.066,0.641c-0.043,0.298-0.064,0.522-0.066,0.672
				c-0.002,0.167,0.012,0.316,0.049,0.446l-0.342,0.33c0.137,0.636,0.217,1.439,0.238,2.409c-0.014,0.818-0.02,1.639-0.014,2.458
				c-0.02,0-0.178,0.007-0.475,0.021c-0.186-0.005-0.32,0.059-0.395,0.188c0.111-0.017,0.215-0.024,0.307-0.021
				c0.41,0.005,0.73,0.296,0.963,0.868c0.234,0.572,0.434,0.86,0.602,0.864c0.186,0.001,0.441-0.171,0.764-0.521
				c0.549-0.585,0.834-1.392,0.852-2.416c0.01-0.503-0.047-1.044-0.168-1.623c-0.131,0.071-0.201,0.257-0.205,0.555
				c-0.299-0.004-0.486,0.058-0.562,0.186c-0.129-0.039-0.184-0.143-0.162-0.309c0.021-0.242,0.033-0.374,0.033-0.393
				c0.227-0.068,0.338-0.171,0.342-0.3c0-0.057-0.039-0.161-0.121-0.312c-0.08-0.149-0.119-0.271-0.119-0.365
				c0-0.073,0.021-0.147,0.059-0.223l0.131-1.088c0.408,0.12,1.293,0.171,2.654,0.159c-0.041,0.09,0.014,0.214,0.162,0.363
				c0.131-0.128,0.271-0.191,0.422-0.187c0.109,0.002,0.277,0.051,0.498,0.147C365.745,411.015,365.901,411.064,365.997,411.065z"/>
			<path d="M376.427,420.69c-0.26-0.115-0.537-0.175-0.834-0.182c-0.262-0.004-0.617,0.046-1.066,0.15
				c-0.506,0.103-0.852,0.162-1.037,0.178c-0.199-0.395-0.338-0.937-0.418-1.629c-0.15-1.008-0.246-1.577-0.279-1.711
				c0.059-0.11,0.088-0.203,0.088-0.275c0.004-0.206-0.156-0.391-0.479-0.556c-0.326-0.162-0.486-0.292-0.482-0.386
				c0-0.108,0.189-0.274,0.566-0.492c-0.092-0.112-0.158-0.342-0.199-0.687c-0.039-0.346-0.125-0.576-0.254-0.69
				c-0.227,0.202-0.596,0.331-1.109,0.386c-0.514,0.059-0.855,0.141-1.023,0.248c0.01,1.454-0.229,2.43-0.721,2.923
				c-0.26-0.06-0.459,0.04-0.592,0.3c-0.193,0.312-0.355,0.495-0.486,0.549l0.164,0.198c-0.15,0.128-0.395,0.181-0.729,0.156
				c-0.521-0.028-0.801-0.042-0.838-0.042l-0.158-0.508l1.82-15.089c0.018-0.95,0.064-1.595,0.145-1.928
				c-0.023-0.84,0.172-1.358,0.584-1.556c0.258,0.172,0.584,0.261,0.975,0.269c0.318,0.006,0.812-0.061,1.484-0.199
				c0.676-0.137,1.141-0.205,1.402-0.201c0.912,0.018,1.311,0.676,1.197,1.979c-0.094,1.042,0.07,2.415,0.486,4.117
				c0.436,1.835,0.646,3.208,0.631,4.122c-0.006,0.277,0.086,0.857,0.062,1.136c-0.395,0.217-0.898,0.349-1.514,0.393
				c-0.541,0.029-1.094,0.059-1.652,0.084c-0.143-1.419-0.393-3.127-0.537-4.528c-0.176-1.68-0.395-3.061-0.656-4.147l-0.863,7.979
				c-0.066,0.689,0.244,1.04,0.934,1.052c0.225,0.004,0.438-0.049,0.646-0.157c0.168-0.053,0.4,0.071,0.691,0.375
				c-0.01,0.577,0.105,0.924,0.346,1.041c0.303-0.2,0.695-0.39,1.184-0.569c0.43-0.158,0.855-0.31,1.268-0.452
				c0.234,0.321,0.387,0.798,0.451,1.434c0.076,0.896,0.133,1.42,0.168,1.567c0.031,0.355,0.176,1.121,0.434,2.301
				c0.191,0.933,0.279,1.69,0.271,2.268C376.491,420.189,376.468,420.449,376.427,420.69z"/>
			<path d="M389.298,407.379c-0.021,0.057-0.025,0.383-0.016,0.979c-0.01,0.485-0.07,0.847-0.188,1.087
				c-0.139,0.371-0.209,0.902-0.223,1.591c-0.004,0.149,0.002,0.382,0.016,0.698c-0.006,0.318-0.01,0.551-0.012,0.699
				c-0.02,1.174-0.221,2.026-0.604,2.561c0.033,0.301,0.047,0.598,0.043,0.896c-0.016,0.932-0.336,2.185-0.959,3.759
				c-0.168,0.054-0.311,0.077-0.422,0.076c-0.223-0.005-0.383-0.135-0.482-0.387c-0.1-0.253-0.191-0.492-0.279-0.717
				c0.061-1.433,0.031-3.521-0.092-6.264l0.172-0.165c-0.123-0.484-0.178-1.026-0.168-1.622c0.006-0.43,0.061-1.053,0.156-1.871
				c0.1-0.818,0.15-1.434,0.158-1.843c0.006-0.261-0.002-0.511-0.014-0.754c-0.643,1.536-1.098,4.136-1.363,7.802l-0.234,0.556
				c-0.078,0.187-0.238,0.286-0.479,0.301c-0.074-0.131-0.146-0.198-0.221-0.199c-0.057-0.003-0.154,0.065-0.297,0.204
				c-0.143,0.137-0.26,0.195-0.352,0.176l-0.371,0.328c0.164,0.208,0.518,0.232,1.062,0.076c0.428-0.125,0.65,0.038,0.662,0.485
				c0.012,0.372-0.09,0.874-0.305,1.505c-0.217,0.628-0.326,1.102-0.332,1.42c-0.004,0.224,0.02,0.447,0.072,0.67l-1.934,0.303
				c-0.18-0.375-0.314-1.007-0.402-1.894c-0.086-0.884-0.221-1.518-0.4-1.893c0.113-0.128,0.172-0.266,0.174-0.416
				c0.002-0.131-0.049-0.327-0.158-0.589c-0.105-0.265-0.168-0.46-0.186-0.592c-0.014-0.204-0.08-0.701-0.197-1.484
				c-0.082-0.634-0.121-1.131-0.115-1.482c0.004-0.188,0.016-0.355,0.037-0.505c0.002-0.129-0.07-0.321-0.213-0.577
				c-0.146-0.253-0.217-0.436-0.213-0.548c0-0.093,0.037-0.175,0.113-0.249c-0.129-0.152-0.18-0.413-0.154-0.784
				c0.025-0.374-0.027-0.636-0.154-0.785c-0.273,0.72-0.42,1.696-0.441,2.925c-0.01,1.715-0.027,2.704-0.051,2.963l0.193,0.174
				l-0.197,0.161c0.137,0.673,0.197,1.533,0.18,2.575c-0.051,1.882-0.074,2.757-0.074,2.629c-0.264,0.235-0.629,0.352-1.096,0.343
				c-0.576-0.009-0.971,0.041-1.176,0.147c-0.234-0.414-0.348-0.946-0.336-1.598c0.008-0.504,0.094-1.116,0.256-1.842
				c-0.254-0.472-0.373-1.124-0.359-1.963c0.004-0.206,0.029-0.595,0.076-1.174c0.027-0.463,0.031-0.809,0.018-1.032
				c0.188-0.09,0.283-0.189,0.283-0.303c0.004-0.074-0.055-0.202-0.174-0.381c-0.119-0.177-0.176-0.313-0.176-0.408
				c0.002-0.111,0.078-0.222,0.229-0.332l-0.602-9.039c0.359-0.235,0.939-0.347,1.74-0.333c0.875,0.034,1.473-0.013,1.791-0.135
				c0.057-0.039,0.121-0.056,0.197-0.056c0.076,0.003,0.162,0.046,0.264,0.131s0.17,0.129,0.207,0.129
				c0.074,0.001,0.141-0.054,0.199-0.166l0.521,0.515c0.176,0.655,0.34,1.925,0.496,3.808c0.158,1.625,0.406,2.852,0.748,3.677
				c0.457-1.65,0.832-3.033,1.131-4.145l0.607-4.425l4.332-0.095c0.018,0.241,0.07,1.538,0.188,2.286
				c0.098,0.652,0.146,1.185,0.139,1.594c-0.006,0.467-0.078,0.886-0.217,1.255c0.145,0.208,0.217,0.47,0.211,0.784
				C389.53,406.919,389.448,407.176,389.298,407.379z"/>
			<path d="M398.187,417.176l0.002-0.028c-0.115,0.239-0.188,0.519-0.209,0.835c-0.021,0.204-0.029,0.492-0.016,0.865
				c0.01,0.428,0.016,0.727,0.014,0.896c-0.15-0.003-0.746-0.014-1.789-0.03c-0.635-0.011-1.203,0.044-1.709,0.167l-0.521-0.568
				c-0.152,0.146-0.209,0.266-0.174,0.359c-0.092-0.02-0.521-0.026-1.285-0.021c-0.596-0.009-1.043-0.075-1.338-0.19
				c-0.305,0.313-0.658,0.306-1.062-0.018c-0.146-0.113-0.162-0.306-0.047-0.573c0.117-0.269,0.082-0.469-0.1-0.604
				c0.027-0.595,0.109-1.517,0.242-2.764c0.131-1.114,0.199-1.99,0.211-2.623c0.014-0.857-0.045-1.679-0.182-2.463
				c0.211-0.201,0.443-0.3,0.705-0.295c0.299,0.003,0.65,0.15,1.055,0.438c0.568,0.397,0.867,0.602,0.883,0.602l0.164,0.197
				c0.021-0.057,0.119-0.353,0.295-0.89c0.1-0.352,0.244-0.581,0.432-0.691l0.166,0.171c0.074-0.035,0.318-0.209,0.736-0.519
				c0.316-0.22,0.58-0.736,0.766-0.73c0.205,0.001,0.396,0.118,0.58,0.345c0.314,0.171,0.512,0.842,0.609,1.187
				c0.096,0.348,0.189,0.688,0.277,1.027c-0.838,0.022-1.529,0-2.068-0.064c-0.133,0.203-0.32,0.232-0.561,0.089
				c-0.24-0.143-0.416-0.123-0.531,0.059c-0.006,0.337-0.018,0.944-0.031,1.818c-0.033,0.781-0.043,1.396-0.031,1.845
				c0.006,0.689,0.051,1.323,0.135,1.901c0.148,0.004,0.855,0.017,2.123,0.038C396.804,416.956,397.556,417.033,398.187,417.176z
				 M398.247,403.786c-0.168,0.017-0.354,0.022-0.559,0.02c-0.428-0.007-0.996-0.075-1.701-0.198
				c-0.875-0.125-1.404-0.199-1.592-0.222c-0.266,0.386-0.404,0.934-0.418,1.642c-0.025,1.528-0.025,2.189-0.006,1.984
				c0.26,0.153,0.385,0.437,0.377,0.846c-0.029,0.559-0.033,0.849-0.014,0.866c-0.131,0.053-0.201,0.238-0.205,0.555
				c-0.205-0.077-0.416-0.23-0.635-0.458c-0.295-0.285-0.451,0.68-0.428,0.439l-0.178,0.573l-0.164-0.17
				c-0.15,0.017-0.406-0.062-0.766-0.236c-0.361-0.175-0.613-0.334-0.76-0.488c0.006-0.298,0.055-0.465,0.148-0.501l-0.357-0.396
				l-0.17,0.247c-0.211-1.942-0.158-5.571,0.098-7.617c0.707,0.122,1.488,0.202,2.346,0.235c0.578,0.028,1.387,0.042,2.43,0.042
				c1.193,0.001,2.053,0.005,2.574,0.014c0.217,0.208,0.326,0.481,0.32,0.816c-0.002,0.206-0.061,0.536-0.17,0.989
				C398.308,403.226,398.251,403.562,398.247,403.786z"/>
		</g>
		<g>
			<path d="M366.837,434.075v-0.015c0,0.01-0.049,0.422-0.145,1.233c-0.049,0.498-0.168,0.891-0.361,1.176l-0.121-0.098
				c-0.227,0.474-0.533,0.763-0.926,0.865c-0.186,0.196-0.455,0.305-0.807,0.326c-0.209,0.013-0.691-0.049-1.447-0.182
				c-0.367-0.228-0.566-0.354-0.602-0.379c-0.23-0.172-0.34-0.347-0.328-0.526c-0.223-0.226-0.535-0.631-0.652-1.137
				c-0.143-0.562-0.229-0.591-0.361-0.789c-0.211,0.156-0.287-0.174-0.408-0.373l0.109-0.083c-0.068-0.05-0.105-0.106-0.109-0.169
				c-0.002-0.044,0.018-0.108,0.055-0.196c0.041-0.086,0.061-0.15,0.057-0.195c-0.006-0.069-0.047-0.131-0.127-0.178
				c0.086-0.441,0.162-1.103,0.232-1.982c0.15-0.081,0.221-0.234,0.213-0.466c-0.008-0.229,0.025-0.382,0.098-0.456
				c0.354-0.714,0.934-1.194,1.734-1.444c0.043,0.005,0.258,0.001,0.643-0.011c0.264-0.007,0.465,0.016,0.6,0.071
				c0.24-0.042,0.48,0.018,0.719,0.171c0.209,0.157,0.418,0.312,0.623,0.47c0.389,0.42,0.598,0.897,0.629,1.427
				c0.01,0.175-0.002,0.363-0.033,0.559c-0.287-0.008-0.49,0.179-0.611,0.569l-1.117,0.104c-0.119-0.17-0.189-0.397-0.205-0.681
				c-0.006-0.097-0.004-0.239,0-0.424c0.004-0.188,0.006-0.329,0-0.426c-0.018-0.292-0.086-0.521-0.207-0.694l-0.334,0.192
				c-0.137-0.054-0.205-0.133-0.213-0.239c-0.002-0.035,0.004-0.088,0.016-0.153c0.014-0.069,0.02-0.114,0.018-0.142
				c-0.006-0.114-0.109-0.183-0.309-0.21c-0.137,1.259-0.178,2.552-0.123,3.878c0.035,0.043,0.141,0.071,0.318,0.09
				c0.145,0.017,0.219,0.062,0.221,0.131c0.004,0.028-0.004,0.063-0.025,0.109l-0.109,0.086c0.059,0.093,0.096,0.227,0.105,0.394
				c0.004,0.087,0.002,0.223-0.01,0.406c-0.012,0.183-0.016,0.318-0.01,0.405c0.016,0.265,0.082,0.466,0.201,0.602
				c-0.012,0.193,0.068,0.328,0.236,0.396c0.107-0.041,0.205-0.062,0.295-0.068c0.34-0.021,0.576,0.166,0.709,0.556
				c0,0.01-0.002,0.075-0.004,0.201c0.004,0.071,0.039,0.116,0.105,0.14c0.148-0.09,0.223-0.249,0.221-0.479
				c-0.004-0.265,0.031-0.436,0.102-0.51c-0.018-0.124-0.09-0.302-0.221-0.532c-0.129-0.233-0.195-0.414-0.205-0.548
				c-0.008-0.141,0.035-0.275,0.125-0.404c-0.078-0.024-0.113-0.074-0.107-0.155c0.004-0.125,0.006-0.191,0.006-0.199
				C365.593,433.938,366.212,433.935,366.837,434.075z"/>
			<path d="M371.894,435.112h-0.014c-0.064,0.126-0.084,0.311-0.062,0.548c0.031,0.336,0.047,0.509,0.047,0.517
				c-0.049,0.021-0.119-0.006-0.203-0.074c-0.131,0.049-0.193,0.131-0.186,0.245c0,0.018,0.008,0.046,0.02,0.086
				c0.002,0.049,0.006,0.082,0.006,0.099c0.006,0.09-0.021,0.157-0.08,0.203c-0.148-0.082-0.344-0.135-0.584-0.159
				c-0.244-0.021-0.475-0.044-0.689-0.063c-0.004-1.121-0.154-2.22-0.453-3.289c0,0.008-0.006-0.101-0.02-0.334
				c0.002-0.164-0.035-0.281-0.111-0.352l-0.102,0.092c-0.002-0.017,0.031-0.047,0.1-0.097c0.07-0.05,0.104-0.1,0.1-0.149
				c-0.002-0.024-0.008-0.049-0.02-0.071l-0.113-0.081c-0.189,0.062-0.277,0.216-0.264,0.459c0.01,0.165-0.057,0.281-0.195,0.346
				c0.055,0.039,0.082,0.089,0.084,0.145c0.004,0.033-0.002,0.08-0.014,0.139c-0.014,0.057-0.018,0.102-0.016,0.137
				c0.004,0.071,0.045,0.132,0.117,0.177c0.004,0.05,0.029,0.494,0.078,1.333c0.031,0.534,0.016,0.987-0.043,1.361l0.012,0.209
				c-0.072-0.003-0.156-0.001-0.246,0.002c-0.102,0.008-0.25,0.022-0.443,0.047c-0.191,0.023-0.336,0.037-0.428,0.043
				c-0.377,0.021-0.643-0.043-0.795-0.19l-0.16-4.604c-0.074-0.225-0.123-0.541-0.146-0.943l-0.051-0.889
				c-0.037-0.435-0.092-0.769-0.168-1.003c0.033-0.16,0.172-0.246,0.416-0.26c0.154-0.009,0.359,0.011,0.619,0.063
				c0.119-0.055,0.287-0.09,0.502-0.104c0.061-0.006,0.158-0.006,0.291-0.006c0.143-0.008,0.244-0.014,0.305-0.018
				c0.4-0.021,0.664-0.145,0.795-0.367c0.186-0.003,0.385,0.057,0.604,0.175c0.215,0.12,0.406,0.185,0.57,0.189
				c0.436,0.255,0.668,0.679,0.705,1.271c0.008,0.132-0.045,0.654-0.156,1.567l-0.746,0.648c0.127,0.232,0.279,0.738,0.457,1.521
				C371.362,434.33,371.589,434.808,371.894,435.112z M370.515,429.873l0.016,0.011c0.014,0.057,0.008-0.146-0.02-0.603
				c-0.012-0.223-0.094-0.383-0.244-0.482c-0.084,0.12,0.012,0.177-0.029,0.454c-0.037,0.279-0.203,0.201-0.299,0.322
				c-0.256,0-0.314,0.154-0.371-0.09c-0.113-0.398-0.213-0.363-0.215-0.37l-0.107,0.064c-0.041,0.035-0.084,0.074-0.133,0.12
				c-0.047,0.045-0.098,0.058-0.15,0.046c0.004,0.05-0.02,0.126-0.07,0.232s-0.074,0.178-0.072,0.22
				c0.006,0.075,0.062,0.129,0.18,0.164c-0.021,0.165-0.027,0.339-0.018,0.52c0.006,0.098,0.029,0.324,0.07,0.676
				c0.047,0.277,0.066,0.516,0.057,0.713c0.094,0.003,0.18,0.003,0.262-0.001c0.357-0.021,0.59-0.163,0.697-0.424
				c0.037-0.075,0.078-0.352,0.123-0.823C370.229,430.267,370.337,430.015,370.515,429.873z"/>
			<path d="M377.698,436.9c-0.146-0.043-0.301-0.058-0.465-0.048c-0.143,0.008-0.336,0.044-0.576,0.106
				c-0.275,0.065-0.463,0.106-0.562,0.119c-0.125-0.165-0.221-0.399-0.287-0.699c-0.119-0.439-0.191-0.687-0.213-0.743
				c0.029-0.05,0.041-0.093,0.039-0.127c-0.006-0.09-0.102-0.164-0.283-0.225c-0.184-0.058-0.275-0.11-0.277-0.15
				c-0.002-0.049,0.094-0.128,0.293-0.238c-0.055-0.048-0.098-0.146-0.131-0.298c-0.035-0.149-0.088-0.246-0.164-0.292
				c-0.117,0.099-0.314,0.17-0.594,0.216c-0.279,0.043-0.463,0.093-0.555,0.149c0.059,0.638,0,1.762-0.252,1.998
				c-0.143-0.016-0.246,0.035-0.314,0.156c-0.094,0.145-0.176,0.232-0.244,0.262l0.096,0.079c-0.08,0.064-0.211,0.096-0.393,0.099
				c-0.287,0.008-0.439,0.012-0.461,0.013l-0.105-0.218l0.432-7.402c-0.023-0.418-0.02-0.703,0.01-0.853
				c-0.041-0.369,0.049-0.606,0.268-0.71c0.148,0.066,0.328,0.092,0.543,0.08c0.172-0.01,0.443-0.057,0.807-0.146
				c0.363-0.087,0.617-0.134,0.76-0.143c0.5-0.028,0.742,0.245,0.725,0.823c-0.016,0.462,0.123,1.06,0.412,1.794
				c0.301,0.789,0.463,1.387,0.486,1.791c0.008,0.122,0.172,0.385,0.17,0.509c-0.211,0.11-0.482,0.187-0.818,0.231
				c-0.295,0.035-0.594,0.069-0.9,0.103c-0.129-0.619-0.418-1.371-0.545-1.984c-0.156-0.732-0.324-1.331-0.504-1.802l-0.195,3.55
				c-0.012,0.306,0.172,0.447,0.549,0.426c0.121-0.007,0.238-0.039,0.348-0.095c0.092-0.029,0.221,0.017,0.391,0.138
				c0.016,0.256,0.092,0.405,0.229,0.445c0.156-0.1,0.367-0.199,0.627-0.296c0.23-0.087,0.457-0.171,0.678-0.249
				c0.141,0.132,0.238,0.337,0.299,0.612c0.072,0.394,0.121,0.619,0.145,0.686c0.029,0.154,0.137,0.487,0.318,0.996
				c0.139,0.403,0.213,0.733,0.229,0.987C377.714,436.675,377.712,436.791,377.698,436.9z"/>
			<path d="M381.929,428.501h0.014c-0.121,0.181-0.277,0.215-0.469,0.103c-0.041-0.008-0.227,0.004-0.553,0.031
				c-0.275,0.017-0.475,0.001-0.602-0.04c-0.029,0.004-0.092,0.033-0.178,0.091c-0.09,0.062-0.154,0.089-0.195,0.092
				c-0.061,0.006-0.096-0.048-0.102-0.155c-0.002-0.015-0.006-0.086-0.012-0.208c-0.006-0.082-0.045-0.139-0.117-0.167l-0.191,0.148
				c-0.059,0.044-0.088,0.09-0.084,0.14c0.002,0.04,0.037,0.099,0.104,0.174c0.064,0.074,0.104,0.128,0.115,0.158
				c0.002,0.026,0.023,0.396,0.064,1.11c0.014,0.455,0.1,0.816,0.248,1.087c0.037-0.043,0.131-0.067,0.279-0.07
				c0.148-0.005,0.246-0.037,0.295-0.098c0.098,0.083,0.258,0.09,0.484,0.015c0.227-0.076,0.391-0.052,0.49,0.076l-0.031,1.091
				c-0.092-0.013-0.229-0.057-0.406-0.136c-0.053,0.158-0.154,0.26-0.305,0.3c-0.062,0.021-0.234,0.038-0.52,0.055
				c0.008-0.05-0.037-0.101-0.135-0.151c-0.277,0.132-0.383,0.446-0.312,0.945c0.008-0.051,0.018,0.036,0.031,0.258
				c0.008,0.139-0.021,0.241-0.09,0.302c-0.174,0.025-0.393-0.013-0.66-0.116c-0.266-0.104-0.459-0.153-0.57-0.146
				c-0.051,0.003-0.098,0.01-0.137,0.021l-0.287,0.09l-0.459-4.981l-0.055-0.949c0.381-0.128,0.854-0.21,1.416-0.242
				c0.439-0.025,1.014-0.021,1.723,0.011c0.045-0.093,0.129,0.028,0.232,0.024c0.051-0.004,0.127,0.002,0.23,0.016
				c0.104,0.015,0.182,0.021,0.232,0.018c0.061-0.003,0.115-0.015,0.166-0.033l0.072-0.08c0.209,0.062,0.318,0.173,0.326,0.327
				c0.006,0.066-0.016,0.18-0.059,0.338c-0.039,0.159-0.059,0.281-0.055,0.362C381.876,428.38,381.896,428.446,381.929,428.501z
				 M380.136,436.814c-0.109,0.057-0.277,0.089-0.502,0.104c-0.295,0.017-0.473,0.032-0.535,0.043
				c-0.031-0.031-0.07-0.006-0.137-0.266c-0.043-0.171-0.15-0.252-0.322-0.24c-0.043,0.002-0.092,0.009-0.152,0.02l-0.277,0.018
				l-0.146-2.522c0.15-0.073,0.338-0.117,0.562-0.131c0.215-0.012,0.404,0.01,0.57,0.064c-0.002,0.093,0.127,0.132,0.393,0.113
				L379.88,434C380.054,434.71,380.161,435.989,380.136,436.814z"/>
			<path d="M388.056,428.718l0.016,0.012c-0.145-0.01-0.607,0.022-0.963,0.066c-0.305,0.035-0.535,0.041-0.689,0.017
				c-0.148,0.1-0.203,0.234-0.162,0.403l0.094,0.057c-0.078,0.073-0.105,0.127-0.08,0.167l0.08,0.081
				c-0.018,1.462-0.021,2.27-0.012,2.426c0.021,0.387,0.066,0.726,0.135,1.02c-0.061,0.185-0.084,0.396-0.07,0.635
				c0.01,0.154,0.045,0.402,0.111,0.741c0.066,0.338,0.154,1.45,0.164,1.624c0.008,0.129,0.006,0.255-0.008,0.369
				c-0.143,0.059-0.293,0.092-0.457,0.103c-0.275,0.016-0.57-0.041-0.887-0.172c-0.037,0.035-0.082,0.072-0.131,0.113
				c-0.049,0.04-0.061,0.085-0.037,0.133c-0.102,0.028-0.244-0.012-0.424-0.125c-0.098-1.479-0.359-4.493-0.752-7.538
				c-0.139,0.124-0.393,0.021-0.656,0.054c-0.316,0.034-0.625-0.015-0.746,0.042c-0.152-0.164-0.119-0.213-0.133-0.483
				c-0.018-0.263-0.102-0.911-0.033-1.182c0.014-0.06,0.586-0.025,0.922-0.054c0.459-0.025,0.561,0.083,0.592,0.08
				c0.037-0.059,0.262-0.029,0.424-0.04c0.105,0.051,0.221-0.047,0.223,0.028c0.006,0.049,0,0.359-0.033,0.448
				c-0.037,0.09-0.053,0.155-0.051,0.195c0.006,0.099,0.076-0.046,0.242,0.011c0.186-0.004,0.375-0.011,0.568-0.021
				c0.217,0.02,0.465-0.058,0.445,0.125c0.037-0.053,0.062,0.039,0.371-0.086c0.23-0.105,0.371-0.374,0.326-0.559
				c-0.025-0.102,0.113-0.168,0.025-0.12c0.111-0.062,0.012-0.019,0.131-0.067c0.383,0.038,0.594-0.002,0.666-0.006
				c0.154-0.01,0.535,0.088,0.643,0.033c0.08,0.144,0.121,0.594,0.125,0.841C388.046,428.482,388.054,428.692,388.056,428.718z"/>
			<path d="M393.021,433.862l-0.002-0.012c-0.055,0.109-0.084,0.235-0.084,0.376c-0.008,0.09,0,0.218,0.02,0.384
				c0.023,0.187,0.035,0.317,0.039,0.393c-0.082,0.004-0.41,0.021-0.982,0.058c-0.346,0.02-0.654,0.065-0.928,0.141l-0.307-0.231
				c-0.076,0.071-0.104,0.127-0.08,0.166c-0.051-0.005-0.287,0.009-0.705,0.041c-0.328,0.02-0.574,0.008-0.742-0.031
				c-0.154,0.148-0.348,0.16-0.58,0.033c-0.084-0.043-0.1-0.127-0.045-0.251c0.053-0.123,0.027-0.21-0.078-0.261
				c-0.004-0.263,0.008-0.672,0.037-1.227c0.033-0.497,0.041-0.886,0.023-1.166c-0.021-0.377-0.084-0.736-0.184-1.077
				c0.107-0.097,0.23-0.147,0.373-0.155c0.164-0.012,0.361,0.04,0.596,0.148c0.326,0.155,0.494,0.232,0.504,0.232l0.096,0.079
				c0.01-0.022,0.053-0.159,0.131-0.404c0.043-0.157,0.113-0.265,0.213-0.318l0.096,0.067c0.039-0.018,0.17-0.104,0.385-0.256
				c0.168-0.11,0.283-0.511,0.387-0.516c0.109-0.007,0.221,0.036,0.33,0.128c0.176,0.064,0.318,0.514,0.383,0.662
				c0.064,0.149,0.127,0.296,0.188,0.44c-0.459,0.043-0.838,0.062-1.135,0.054c-0.066,0.096-0.168,0.116-0.303,0.062
				c-0.137-0.055-0.234-0.037-0.291,0.049c0.01,0.146,0.025,0.413,0.047,0.8c0.01,0.346,0.025,0.616,0.047,0.812
				c0.027,0.304,0.076,0.581,0.141,0.835c0.082-0.007,0.473-0.028,1.166-0.067C392.253,433.821,392.667,433.825,393.021,433.862z
				 M392.544,428.063c-0.09,0.013-0.193,0.024-0.307,0.028c-0.232,0.015-0.543,0.009-0.938-0.019
				c-0.482-0.021-0.775-0.033-0.879-0.036c-0.131,0.183-0.15,0.328-0.131,0.641c0.039,0.673,0.061,0.965,0.066,0.874
				c0.146,0.058,0.227,0.178,0.234,0.359c0.006,0.246,0.012,0.371,0.023,0.381c-0.07,0.026-0.1,0.113-0.094,0.253
				c-0.113-0.027-0.234-0.086-0.363-0.178c-0.172-0.113-0.225,0.289-0.221,0.183l-0.078,0.252l-0.096-0.071
				c-0.08,0.014-0.223-0.011-0.426-0.074c-0.203-0.062-0.35-0.124-0.434-0.185c-0.006-0.13,0.012-0.205,0.062-0.226l-0.209-0.162
				l-0.084,0.118c-0.182-0.849-0.305-2.342-0.234-3.253c0.391,0.027,0.848-0.039,1.316-0.059c0.316-0.011,0.762-0.035,1.334-0.077
				c0.652-0.046,1.121-0.078,1.406-0.095c0.129,0.084,0.199,0.2,0.205,0.347c0.008,0.092-0.012,0.238-0.057,0.442
				C392.597,427.713,392.54,427.963,392.544,428.063z"/>
			<path d="M398.116,432.986l-0.016,0.002c-0.062,0.128-0.084,0.311-0.061,0.546c0.031,0.338,0.045,0.511,0.047,0.519
				c-0.051,0.021-0.119-0.004-0.205-0.074c-0.131,0.049-0.193,0.131-0.186,0.246c0.002,0.017,0.008,0.043,0.02,0.084
				c0.002,0.05,0.004,0.082,0.006,0.1c0.006,0.09-0.021,0.157-0.08,0.203c-0.148-0.083-0.344-0.136-0.586-0.159
				c-0.242-0.022-0.471-0.046-0.688-0.067c-0.004-1.118-0.154-2.215-0.451-3.287c0,0.01-0.008-0.102-0.02-0.332
				c0-0.164-0.037-0.281-0.113-0.352l-0.102,0.093c0-0.016,0.031-0.049,0.102-0.098c0.066-0.05,0.102-0.1,0.1-0.149
				c-0.004-0.024-0.01-0.049-0.021-0.074l-0.113-0.081c-0.189,0.062-0.279,0.214-0.262,0.462c0.008,0.164-0.059,0.281-0.197,0.346
				c0.053,0.038,0.082,0.086,0.086,0.143c0.002,0.034-0.004,0.079-0.016,0.136c-0.012,0.06-0.018,0.105-0.016,0.14
				c0.004,0.072,0.043,0.133,0.117,0.179c0.004,0.05,0.029,0.492,0.078,1.331c0.031,0.534,0.018,0.989-0.045,1.362l0.014,0.21
				c-0.07-0.004-0.154-0.004-0.246,0.003c-0.102,0.006-0.25,0.02-0.443,0.043c-0.193,0.024-0.334,0.039-0.428,0.044
				c-0.377,0.021-0.643-0.04-0.795-0.189l-0.16-4.604c-0.074-0.227-0.123-0.541-0.146-0.943l-0.053-0.888
				c-0.035-0.436-0.088-0.771-0.164-1.005c0.031-0.158,0.17-0.245,0.414-0.259c0.154-0.01,0.359,0.011,0.619,0.063
				c0.121-0.058,0.287-0.093,0.5-0.104c0.062-0.004,0.16-0.005,0.291-0.005c0.145-0.008,0.248-0.015,0.309-0.019
				c0.398-0.021,0.664-0.146,0.795-0.366c0.184-0.001,0.385,0.056,0.6,0.174c0.217,0.121,0.408,0.184,0.574,0.189
				c0.434,0.256,0.67,0.679,0.703,1.272c0.006,0.132-0.045,0.654-0.156,1.568l-0.746,0.646c0.127,0.233,0.279,0.739,0.459,1.52
				C397.583,432.206,397.813,432.683,398.116,432.986z M396.735,427.749l0.016,0.011c0.014,0.057,0.008-0.146-0.018-0.603
				c-0.014-0.226-0.096-0.384-0.244-0.481c-0.084,0.118-0.102-0.161-0.141,0.118c-0.041,0.279-0.107,0.478-0.203,0.6
				c-0.256-0.001-0.316-0.154-0.469-0.369c-0.096-0.136-0.141-0.018-0.141-0.025l-0.07,0.056c-0.039,0.036-0.082,0.075-0.131,0.12
				c-0.049,0.044-0.1,0.059-0.152,0.045c0.004,0.049-0.021,0.128-0.07,0.233c-0.049,0.104-0.074,0.179-0.072,0.221
				c0.006,0.074,0.064,0.126,0.18,0.163c-0.021,0.165-0.027,0.339-0.018,0.521c0.008,0.098,0.029,0.322,0.07,0.675
				c0.047,0.277,0.066,0.516,0.059,0.714c0.092,0.004,0.178,0.002,0.26-0.003c0.357-0.021,0.59-0.162,0.697-0.423
				c0.035-0.077,0.078-0.353,0.123-0.824C396.45,428.14,396.562,427.891,396.735,427.749z"/>
		</g>
		<g>
			<path d="M347.313,411.751v0.012c-0.045,0.428-0.061,0.724-0.045,0.885c-0.064,0.027-0.152,0.031-0.256,0.014
				c-0.137-0.022-0.215-0.033-0.236-0.032c-0.061,0.003-0.107,0.024-0.143,0.062c-0.086-0.054-0.143-0.076-0.172-0.068
				c-0.08,0.049-0.117,0.117-0.113,0.207c0.002,0.038,0.016,0.102,0.045,0.193c0.025,0.094,0.041,0.159,0.043,0.204
				c0.002,0.061-0.01,0.153-0.037,0.282c-0.025,0.128-0.037,0.232-0.035,0.315c0.006,0.096,0.025,0.249,0.064,0.456
				c0.035,0.206,0.057,0.362,0.061,0.466c-0.041,0.203-0.057,0.409-0.047,0.618c0.014,0.253,0.084,0.592,0.209,1.019
				c0.023,0.007,0.045,0.01,0.068,0.007c0.051-0.002,0.113-0.039,0.184-0.11c0.072-0.068,0.133-0.104,0.186-0.107
				c0.037-0.003,0.078,0.005,0.123,0.025c0.135,0.434,0.205,0.714,0.211,0.84c0.002,0.061,0.002,0.124-0.002,0.189
				c-0.199,0.049-0.34-0.02-0.424-0.201c0.012-0.053-0.018-0.108-0.086-0.165l-0.225,0.236c0.219,0.033,0.305,0.2,0.262,0.5
				c-0.021,0.062-0.066,0.095-0.143,0.098c-0.127-0.002-0.186-0.002-0.178-0.002l-0.184-0.327l-0.074,0.093
				c-0.061-0.153-0.131-0.227-0.213-0.222c-0.045,0.003-0.123,0.039-0.234,0.11c-0.113,0.074-0.207,0.111-0.279,0.114
				c-0.061,0.006-0.119-0.011-0.182-0.044c-0.006-0.09-0.016-0.182-0.031-0.279c-0.016-0.096-0.066-0.157-0.148-0.183
				c-0.006-0.233,0.002-0.839,0.02-1.825c0.008-0.746,0-1.351-0.025-1.812c-0.01-0.193-0.021-0.383-0.039-0.567
				c-0.039-0.058-0.078-0.086-0.115-0.083c-0.031,0.001-0.076,0.032-0.135,0.096c-0.061,0.062-0.113,0.091-0.158,0.086
				c-0.004-0.074-0.039-0.194-0.102-0.358c-0.064-0.164-0.098-0.282-0.104-0.357c-0.006-0.127,0.041-0.237,0.141-0.331l0.262,0.062
				c0.104-0.146,0.146-0.393,0.129-0.743c-0.002-0.066-0.012-0.175-0.025-0.318c-0.018-0.145-0.025-0.249-0.029-0.316
				c-0.027-0.573,0.148-0.869,0.527-0.889c0.141-0.008,0.312,0.018,0.518,0.075l0.25,0.065c0.02,0.096,0.031,0.194,0.037,0.3
				c0.006,0.143,0.002,0.349-0.02,0.622c-0.02,0.274-0.025,0.474-0.02,0.599c0.01,0.202,0.043,0.384,0.105,0.545
				c0.059-0.004,0.152-0.037,0.281-0.098c0.127-0.063,0.219-0.096,0.279-0.099C347.163,411.602,347.247,411.648,347.313,411.751z
				 M346.536,412.551l-0.014-0.256l-0.08-0.075L346.536,412.551z"/>
			<path d="M350.382,410.947l0.012-0.001c-0.027,0.203-0.059,0.406-0.092,0.609c-0.041,0.232-0.107,0.415-0.197,0.547
				c-0.016-0.007-0.107-0.049-0.273-0.132c-0.117-0.061-0.219-0.085-0.307-0.074c-0.068,0.438-0.105,1.031-0.111,1.785
				c-0.004,0.962-0.014,1.544-0.023,1.745c-0.113-0.008-0.197,0.027-0.252,0.109c-0.057,0.081-0.107,0.162-0.156,0.248
				c-0.02,0.046-0.029,0.087-0.027,0.124c0.002,0.06,0.055,0.118,0.154,0.171c0.1,0.055,0.15,0.115,0.154,0.183
				c-0.043,0.159-0.139,0.242-0.279,0.249c-0.066,0.003-0.184-0.018-0.35-0.06c-0.164-0.045-0.281-0.065-0.35-0.062l-0.162-3.191
				c0.064-0.084,0.092-0.143,0.082-0.171l-0.092-0.062c0.008-0.135,0.016-0.806,0.021-2.006c0.004-0.813,0.035-1.471,0.092-1.974
				c-0.006,0.001,0.223-0.015,0.689-0.046c0.291-0.015,0.479,0.066,0.562,0.241c0,0.163-0.016,0.438-0.049,0.829
				c-0.033,0.359-0.047,0.637-0.037,0.83c0.014,0.238,0.049,0.451,0.111,0.643C349.755,411.145,350.048,410.965,350.382,410.947z
				 M351.491,411.63c0.021,0.297,0.039,0.587,0.055,0.871c0.062,1.234,0.043,2.556-0.059,3.963
				c-0.105,0.096-0.271,0.115-0.496,0.062c-0.221-0.053-0.383-0.03-0.482,0.062c-0.127-0.164-0.201-0.46-0.223-0.894
				c-0.033-0.625-0.049-0.948-0.049-0.971c-0.027-1.563,0.127-2.829,0.457-3.793C351.081,411.031,351.345,411.264,351.491,411.63z"
				/>
			<path d="M355.407,413.251c-0.049,0.1-0.068,0.204-0.062,0.314c0.004,0.113,0.01,0.221,0.016,0.326
				c-0.012,0.089-0.035,0.179-0.076,0.273c-0.066-0.021-0.123-0.029-0.17-0.027c-0.051,0.003-0.104,0.021-0.156,0.058
				c-0.055,0.038-0.098,0.057-0.127,0.057c-0.047,0.004-0.105-0.014-0.182-0.046l-0.52-0.756c0.02,0.222,0.07,0.417,0.152,0.585
				c0.041,0.086,0.084,0.174,0.125,0.26c-0.303,0.056-0.475,0.064-0.514,0.027l-0.072,0.094l-0.18-0.236
				c-0.141,0.171-0.174,0.421-0.098,0.754c0.094,0.36,0.098,0.62,0.018,0.782c0.113,0.166,0.246,0.244,0.402,0.236
				c0.068-0.004,0.125-0.027,0.176-0.075c0.074-0.185,0.146-0.366,0.219-0.55c0.109-0.221,0.23-0.335,0.363-0.342
				c0.104-0.006,0.227,0.049,0.367,0.162c0.166,0.059,0.252,0.136,0.258,0.231c0.002,0.061-0.035,0.159-0.115,0.29
				c-0.078,0.137-0.117,0.24-0.113,0.315c0.002,0.028,0.006,0.054,0.016,0.078c-0.107,0.078-0.203,0.199-0.289,0.359
				c-0.086,0.162-0.197,0.272-0.336,0.332c-0.121,0.116-0.234,0.179-0.338,0.184c-0.082,0.004-0.205-0.06-0.367-0.188
				c-0.162-0.131-0.314-0.189-0.457-0.185c-0.059-0.13-0.203-0.277-0.436-0.436c-0.23-0.159-0.375-0.333-0.43-0.516
				c0.002,0.015-0.002-0.045-0.008-0.178c-0.004-0.075-0.035-0.123-0.096-0.142l0.084-0.082c-0.113-0.003-0.17-0.065-0.176-0.193
				c-0.002-0.014-0.004-0.045-0.006-0.09c0.006-0.037,0.008-0.066,0.006-0.09c-0.004-0.089-0.033-0.149-0.086-0.186l-0.02-0.389
				c-0.012-0.202-0.051-0.346-0.125-0.432c0.074-0.472,0.148-0.947,0.221-1.42c0.121-0.55,0.303-0.833,0.539-0.844
				c0.039-0.001,0.074,0.004,0.111,0.015c0.217-0.21,0.473-0.324,0.779-0.341c0.334-0.016,0.705,0.087,1.111,0.304
				C355.134,412.067,355.331,412.636,355.407,413.251z M353.868,412.018l-0.074,0.095c-0.051,0.009-0.113-0.017-0.182-0.08
				l0.012,0.256c-0.113,0.125-0.158,0.318-0.139,0.579c0.021,0.446,0.033,0.661,0.033,0.646l0.334-0.004
				c0.16-0.091,0.234-0.239,0.223-0.448c-0.004-0.104-0.039-0.275-0.109-0.515C353.899,412.308,353.866,412.134,353.868,412.018z"/>
		</g>
		<g>
			<polygon fill-rule="evenodd" clip-rule="evenodd" points="358.028,424.509 358.36,424.7 359.489,421.74 359.112,421.615 
				357.985,424.576 358.313,424.785 358.028,424.509 358.028,424.509 			"/>
			<polygon fill-rule="evenodd" clip-rule="evenodd" points="358.522,424.1 358.386,424.153 358.028,424.509 358.313,424.785 
				358.677,424.409 358.534,424.481 358.522,424.1 358.522,424.1 			"/>
			<polygon fill-rule="evenodd" clip-rule="evenodd" points="361.251,424.077 361.411,423.95 358.522,424.1 358.534,424.481 
				361.425,424.334 361.608,424.196 361.251,424.077 361.251,424.077 361.251,424.077 			"/>
			<polygon fill-rule="evenodd" clip-rule="evenodd" points="362.556,421.355 362.358,421.11 361.251,424.077 361.608,424.196 
				362.735,421.235 362.54,420.99 362.556,421.355 362.556,421.355 362.556,421.355 			"/>
			<polygon fill-rule="evenodd" clip-rule="evenodd" points="359.804,421.449 359.659,421.521 362.556,421.355 362.54,420.99 
				359.655,421.12 359.513,421.192 359.804,421.449 359.804,421.449 359.804,421.449 			"/>
			<polygon fill-rule="evenodd" clip-rule="evenodd" points="359.489,421.74 359.446,421.805 359.804,421.449 359.513,421.192 
				359.153,421.55 359.112,421.615 359.489,421.74 359.489,421.74 359.489,421.74 			"/>
			<polygon fill-rule="evenodd" clip-rule="evenodd" points="361.888,424.429 362.146,424.313 361.526,423.97 361.329,424.321 
				361.966,424.672 362.247,424.548 361.87,424.423 361.87,424.423 361.888,424.429 			"/>
			<polygon fill-rule="evenodd" clip-rule="evenodd" points="363.099,421.695 362.997,421.462 361.87,424.423 362.247,424.548 
				363.372,421.587 363.271,421.355 363.099,421.695 363.099,421.695 			"/>
			<polygon fill-rule="evenodd" clip-rule="evenodd" points="362.735,421.235 362.456,421.36 363.099,421.695 363.271,421.355 
				362.651,421.01 362.358,421.11 362.735,421.235 362.735,421.235 			"/>
			<polygon points="359.31,421.683 359.29,421.676 359.649,421.317 362.331,421.188 362.358,421.11 362.556,421.175 
				362.735,421.235 362.724,421.268 363.194,421.527 363.372,421.587 363.3,421.779 364.612,424.899 363.501,427.866 
				362.067,424.489 362.067,424.489 361.882,424.565 361.87,424.423 361.884,424.387 361.431,424.138 361.329,424.321 
				361.272,424.145 358.522,424.277 358.163,424.636 			"/>
			<polygon fill-rule="evenodd" clip-rule="evenodd" points="363.323,427.806 363.687,427.788 362.251,424.411 361.882,424.565 
				363.317,427.944 363.681,427.926 363.306,427.8 363.306,427.8 363.323,427.806 			"/>
			<polygon fill-rule="evenodd" clip-rule="evenodd" points="364.444,424.984 364.433,424.84 363.306,427.8 363.681,427.926 
				364.808,424.967 364.796,424.824 364.444,424.984 364.444,424.984 			"/>
			<polygon fill-rule="evenodd" clip-rule="evenodd" points="363.372,421.587 363.009,421.605 364.444,424.984 364.796,424.824 
				363.362,421.444 362.997,421.462 363.372,421.587 363.372,421.587 			"/>
			<polygon fill-rule="evenodd" clip-rule="evenodd" fill="#FFFFFF" points="363.278,422.351 363.438,422.702 363.497,423.058 
				363.479,423.409 363.378,423.774 363.2,424.131 362.954,424.447 362.64,424.737 362.257,424.989 362.05,425.079 361.841,425.167 
				361.608,425.209 361.394,425.257 361.187,425.284 360.958,425.309 360.751,425.28 360.536,425.269 360.351,425.227 
				360.155,425.159 359.964,425.077 359.798,424.981 359.655,424.875 359.493,424.761 359.362,424.618 359.255,424.462 
				359.093,424.112 359.034,423.754 359.034,423.397 359.155,423.039 359.31,422.693 359.56,422.36 359.876,422.068 
				360.274,421.825 360.466,421.729 360.692,421.646 360.905,421.599 361.12,421.552 361.347,421.526 361.554,421.498 
				361.765,421.526 361.978,421.54 362.175,421.603 362.37,421.67 362.55,421.729 362.733,421.832 362.884,421.921 363.038,422.051 
				363.146,422.206 363.278,422.351 363.278,422.351 363.278,422.351 			"/>
			<polygon fill-rule="evenodd" clip-rule="evenodd" points="363.419,422.935 363.581,423.287 363.634,423.661 363.618,424.013 
				363.521,424.358 363.36,424.722 363.091,425.048 362.8,425.329 362.399,425.572 362.187,425.679 361.978,425.768 
				361.763,425.814 361.532,425.859 361.323,425.888 361.12,425.9 360.905,425.888 360.679,425.853 360.493,425.81 360.296,425.745 
				360.124,425.667 359.94,425.565 359.792,425.476 359.653,425.351 359.517,425.226 359.397,425.048 359.231,424.714 
				359.173,424.355 359.194,423.985 359.29,423.641 359.452,423.277 359.696,422.961 360.013,422.669 360.411,422.427 
				360.626,422.319 360.829,422.246 361.048,422.182 361.282,422.142 361.483,422.128 361.692,422.1 361.901,422.128 
				362.114,422.142 362.317,422.188 362.515,422.253 362.687,422.331 362.878,422.417 363.021,422.521 363.183,422.634 
				363.288,422.79 363.415,422.952 363.415,422.952 363.419,422.935 			"/>
			<polygon fill-rule="evenodd" clip-rule="evenodd" fill="#FFFFFF" points="363.521,423.345 363.688,423.679 363.741,424.054 
				363.722,424.407 363.628,424.75 363.45,425.108 363.198,425.44 362.907,425.721 362.509,425.964 362.312,426.078 
				362.085,426.162 361.87,426.209 361.638,426.251 361.429,426.282 361.228,426.293 361.011,426.282 360.784,426.245 
				360.601,426.202 360.403,426.138 360.231,426.06 360.048,425.959 359.899,425.868 359.743,425.738 359.63,425.601 
				359.505,425.44 359.339,425.108 359.278,424.747 359.296,424.397 359.397,424.034 359.558,423.672 359.808,423.338 
				360.136,423.07 360.519,422.818 360.733,422.713 360.94,422.622 361.157,422.575 361.388,422.533 361.597,422.505 361.8,422.492 
				362.032,422.51 362.224,422.533 362.425,422.583 362.622,422.648 362.812,422.729 362.979,422.826 363.128,422.917 
				363.288,423.028 363.396,423.185 363.521,423.345 363.521,423.345 			"/>
			<polygon fill-rule="evenodd" clip-rule="evenodd" points="363.663,423.928 363.825,424.28 363.886,424.639 363.886,424.993 
				363.765,425.352 363.61,425.697 363.341,426.024 363.044,426.325 362.646,426.567 362.454,426.661 362.228,426.745 
				362.013,426.794 361.8,426.839 361.571,426.864 361.364,426.893 361.155,426.864 360.94,426.853 360.737,426.806 
				360.542,426.738 360.368,426.661 360.185,426.561 360.04,426.452 359.899,426.347 359.767,426.202 359.642,426.042 
				359.499,425.696 359.421,425.333 359.44,424.981 359.54,424.618 359.714,424.277 359.964,423.945 360.28,423.653 
				360.661,423.404 360.87,423.313 361.079,423.225 361.312,423.184 361.526,423.135 361.733,423.105 361.954,423.101 
				362.167,423.112 362.366,423.117 362.569,423.165 362.765,423.231 362.954,423.313 363.122,423.409 363.284,423.522 
				363.427,423.632 363.558,423.774 363.657,423.946 363.657,423.946 363.663,423.928 			"/>
			<polygon fill-rule="evenodd" clip-rule="evenodd" fill="#FFFFFF" points="363.872,424.313 364.04,424.65 364.099,425.007 
				364.093,425.382 363.997,425.728 363.819,426.085 363.55,426.412 363.259,426.692 362.878,426.942 362.663,427.05 
				362.437,427.133 362.222,427.181 362.007,427.227 361.78,427.252 361.579,427.265 361.364,427.252 361.155,427.222 
				360.952,427.175 360.757,427.108 360.583,427.03 360.411,426.954 360.249,426.839 360.112,426.715 359.981,426.571 
				359.874,426.418 359.706,426.084 359.636,425.703 359.653,425.351 359.767,425.011 359.929,424.649 360.177,424.313 
				360.489,424.041 360.87,423.792 361.083,423.685 361.292,423.594 361.519,423.571 361.739,423.505 361.948,423.476 
				362.167,423.47 362.384,423.482 362.573,423.505 362.776,423.554 362.991,423.625 363.163,423.701 363.337,423.779 
				363.497,423.893 363.634,424.019 363.767,424.162 363.872,424.313 363.872,424.313 			"/>
			<polygon fill-rule="evenodd" clip-rule="evenodd" points="364.034,424.906 364.177,425.251 364.255,425.614 364.235,425.966 
				364.134,426.329 363.962,426.669 363.71,427.003 363.396,427.296 363.013,427.545 362.806,427.634 362.577,427.717 
				362.366,427.764 362.151,427.812 361.942,427.842 361.716,427.864 361.507,427.837 361.292,427.823 361.108,427.781 
				360.894,427.71 360.72,427.632 360.554,427.538 360.392,427.425 360.249,427.316 360.118,427.173 360.011,427.02 
				359.851,426.668 359.772,426.305 359.792,425.952 359.911,425.594 360.065,425.248 360.315,424.915 360.632,424.623 
				361.03,424.38 361.222,424.285 361.448,424.202 361.663,424.153 361.876,424.108 362.104,424.082 362.312,424.053 
				362.521,424.082 362.718,424.089 362.938,424.144 363.134,424.209 363.308,424.287 363.474,424.381 363.634,424.494 
				363.776,424.602 363.907,424.745 364.034,424.906 364.034,424.906 364.034,424.906 			"/>
			<polygon fill-rule="evenodd" clip-rule="evenodd" points="344.335,420.359 344.354,420.246 343.22,423.224 343.579,423.342 
				344.712,420.364 344.716,420.288 344.335,420.359 344.335,420.359 344.335,420.359 			"/>
			<polygon fill-rule="evenodd" clip-rule="evenodd" points="344.306,420.208 344.312,420.192 344.335,420.359 344.716,420.288 
				344.675,420.114 344.683,420.097 344.306,420.208 344.306,420.208 344.306,420.208 			"/>
			<polygon fill-rule="evenodd" clip-rule="evenodd" points="344.265,420.037 344.306,420.208 344.683,420.097 344.64,419.923 
				344.265,420.037 344.265,420.037 344.265,420.037 			"/>
			<polygon fill-rule="evenodd" clip-rule="evenodd" points="344.216,419.883 344.265,420.037 344.64,419.923 344.593,419.77 
				344.216,419.883 344.216,419.883 			"/>
			<polygon fill-rule="evenodd" clip-rule="evenodd" points="344.175,419.709 344.175,419.709 344.216,419.883 344.593,419.77 
				344.55,419.598 344.546,419.615 344.175,419.709 344.175,419.709 344.175,419.709 			"/>
			<polygon fill-rule="evenodd" clip-rule="evenodd" points="344.128,419.495 344.128,419.556 344.175,419.709 344.546,419.615 
				344.497,419.459 344.515,419.524 344.128,419.495 344.128,419.495 			"/>
			<polygon fill-rule="evenodd" clip-rule="evenodd" points="344.509,419.423 344.134,419.357 344.128,419.495 344.515,419.524 
				344.521,419.389 344.146,419.321 344.503,419.441 344.503,419.441 344.509,419.423 			"/>
			<polygon fill-rule="evenodd" clip-rule="evenodd" fill="#4C4849" points="344.835,428.091 344.798,427.899 344.399,427.966 
				344.429,428.175 344.835,428.091 344.835,428.091 344.835,428.091 			"/>
			<polygon fill-rule="evenodd" clip-rule="evenodd" points="345.663,425.608 345.675,425.513 344.548,428.474 344.905,428.592 
				346.032,425.631 346.026,425.529 345.663,425.608 345.663,425.608 345.663,425.608 			"/>
			<polygon fill-rule="evenodd" clip-rule="evenodd" points="345.634,425.398 345.663,425.608 346.026,425.529 345.997,425.322 
				345.616,425.394 345.616,425.394 345.634,425.398 			"/>
			<polygon fill-rule="evenodd" clip-rule="evenodd" points="345.581,425.204 345.616,425.394 345.997,425.322 345.944,425.126 
				345.581,425.204 345.581,425.204 345.581,425.204 			"/>
			<polygon fill-rule="evenodd" clip-rule="evenodd" points="345.532,424.989 345.544,425.011 345.581,425.204 345.944,425.126 
				345.913,424.915 345.925,424.941 345.532,424.989 345.532,424.989 345.532,424.989 			"/>
			<polygon fill-rule="evenodd" clip-rule="evenodd" points="345.89,424.81 345.509,424.761 345.532,424.989 345.925,424.941 
				345.896,424.734 345.515,424.686 345.89,424.81 345.89,424.81 			"/>
			<g>
				<polygon fill="#4C4849" points="343.222,422.633 343.042,422.688 343.222,422.633 				"/>
				<polygon fill="#4C4849" points="343.411,423.253 343.417,423.237 343.511,423.244 343.579,423.342 343.411,423.288 				"/>
				<polygon points="342.999,422.516 343.192,422.478 343.198,422.342 344.331,419.366 344.325,419.382 344.325,419.502 
					344.354,419.651 344.413,419.83 344.462,419.985 344.503,420.156 344.532,420.306 344.532,420.306 344.712,420.364 
					343.579,423.342 343.511,423.244 343.417,423.237 343.411,423.253 343.411,423.288 343.579,423.342 343.413,423.333 
					343.417,423.469 343.302,423.326 343.21,423.319 343.185,423.152 343.253,423.138 343.327,422.946 343.138,422.999 
					343.083,422.86 343.042,422.688 343.222,422.633 343.222,422.633 343.042,422.688 343.048,422.669 				"/>
			</g>
			<g>
				<polygon fill="none" points="352.224,423.329 352.224,423.329 352.386,422.965 				"/>
				<polygon points="343.405,423.088 351.7,422.815 351.913,422.826 351.95,422.841 352.151,422.889 352.171,422.896 
					352.386,422.965 352.595,423.056 352.61,423.061 352.808,423.186 352.845,423.196 352.999,423.329 353.046,423.365 
					353.159,423.501 353.171,423.525 353.249,423.65 353.255,423.692 352.89,423.802 352.831,423.711 352.827,423.729 
					352.731,423.597 352.731,423.597 352.604,423.495 352.636,423.525 352.433,423.419 352.433,423.416 352.224,423.329 
					352.224,423.329 352.044,423.268 351.843,423.223 351.88,423.233 351.687,423.209 351.687,423.191 343.417,423.469 				"/>
				<polygon points="352.88,423.807 352.89,423.802 352.909,423.835 				"/>
			</g>
			<polygon fill-rule="evenodd" clip-rule="evenodd" points="357.312,430.765 357.312,430.647 356.177,433.625 356.554,433.75 
				357.687,430.771 357.687,430.654 357.312,430.765 357.312,430.765 357.312,430.765 			"/>
			<polygon fill-rule="evenodd" clip-rule="evenodd" points="354.038,420.873 354.013,420.827 357.312,430.765 357.687,430.654 
				354.388,420.713 354.38,420.674 354.038,420.873 354.038,420.873 354.038,420.873 			"/>
			<polygon fill-rule="evenodd" clip-rule="evenodd" points="353.97,420.775 353.96,420.751 354.038,420.873 354.38,420.674 
				354.306,420.548 354.286,420.539 353.952,420.769 353.952,420.769 353.97,420.775 			"/>
			<polygon fill-rule="evenodd" clip-rule="evenodd" points="353.894,420.648 353.862,420.619 353.952,420.769 354.286,420.539 
				354.161,420.382 354.132,420.35 353.894,420.648 353.894,420.648 353.894,420.648 			"/>
			<polygon fill-rule="evenodd" clip-rule="evenodd" points="353.761,420.565 353.733,420.535 353.894,420.648 354.132,420.35 
				353.97,420.238 353.94,420.207 353.761,420.565 353.761,420.565 			"/>
			<polygon fill-rule="evenodd" clip-rule="evenodd" points="353.583,420.445 353.565,420.44 353.761,420.565 353.94,420.207 
				353.739,420.101 353.72,420.095 353.583,420.445 353.583,420.445 			"/>
			<polygon fill-rule="evenodd" clip-rule="evenodd" points="353.394,420.363 353.351,420.367 353.583,420.445 353.72,420.095 
				353.513,420.005 353.495,420 353.37,420.374 353.37,420.374 353.394,420.363 			"/>
			<polygon fill-rule="evenodd" clip-rule="evenodd" points="353.179,420.292 353.155,420.303 353.37,420.374 353.495,420 
				353.278,419.929 353.278,419.929 353.171,420.308 353.171,420.308 353.179,420.292 			"/>
			<polygon fill-rule="evenodd" clip-rule="evenodd" points="353.011,420.254 352.976,420.243 353.171,420.308 353.278,419.929 
				353.06,419.875 353.042,419.868 353.011,420.254 353.011,420.254 353.011,420.254 			"/>
			<polygon fill-rule="evenodd" clip-rule="evenodd" points="352.819,420.231 352.813,420.247 353.011,420.254 353.042,419.868 
				352.833,419.837 352.808,419.851 352.819,420.231 352.819,420.231 			"/>
			<polygon fill-rule="evenodd" clip-rule="evenodd" points="344.729,420.371 344.526,420.5 352.819,420.231 352.808,419.851 
				344.532,420.128 344.354,420.246 344.712,420.364 344.712,420.364 344.729,420.371 			"/>
			<polygon fill="#4C4849" points="346.812,429.427 346.784,429.41 346.802,429.402 			"/>
			<g>
				<polygon fill="#4C4849" points="351.292,430.766 351.259,431.168 351.292,430.766 				"/>
				<g>
					<polygon fill="none" points="351.276,430.958 351.259,431.168 351.276,430.958 					"/>
					<g>
						<polygon fill="none" points="344.554,427.734 344.567,427.704 344.573,427.742 						"/>
						<path d="M344.429,428.175l0.035,0.19l0.072,0.204l0.09,0.148l0.506,0.269l0.506,0.267l0.488,0.264l0.496,0.243l0.018,0.007
							l0.5,0.225l0.5,0.229l0.543,0.219l0.549,0.203l0.018,0.006l0.584,0.154l0.582,0.155l0.02,0.007l0.645,0.096l0.66,0.103
							l0.02,0.005l0.719,0.04l0.025-0.011l0.768,0.02l0.822-0.026l0.871-0.046l0.178-0.119l1.127-2.96l-0.191-0.263l0.012,0.383
							l-0.059-0.075l0.043-0.111l-0.125,0.009l-0.055-0.067l-0.027,0.074l-0.646,0.037h-0.834l-0.77-0.016l-0.703-0.037l-0.684-0.09
							l-0.639-0.111l-0.584-0.156l-0.584-0.155l-0.547-0.203l-0.531-0.198l-0.5-0.226l-0.494-0.243l-0.514-0.251l-0.488-0.263
							l-0.488-0.262l-0.338-0.18l0.01-0.03l-0.178-0.06l0,0l-0.047-0.213l-0.037-0.191l-0.014-0.065l0.133-0.292l-0.188-0.062
							l-0.01-0.004l0,0l-0.178-0.058l-1.127,2.96l-0.012,0.096l0.029,0.207L344.429,428.175z M344.567,427.704l0.006,0.038
							l-0.02-0.008L344.567,427.704z"/>
					</g>
				</g>
			</g>
			<polygon fill-rule="evenodd" clip-rule="evenodd" points="354.72,428.232 355.589,428.186 355.577,427.803 354.708,427.852 
				354.72,428.232 354.72,428.232 354.72,428.232 			"/>
			<polygon fill-rule="evenodd" clip-rule="evenodd" points="353.897,428.257 354.72,428.232 354.708,427.852 353.886,427.876 
				353.897,428.257 353.897,428.257 353.897,428.257 			"/>
			<polygon fill-rule="evenodd" clip-rule="evenodd" points="353.112,428.232 353.13,428.236 353.897,428.257 353.886,427.876 
				353.118,427.856 353.142,427.845 353.104,428.248 353.104,428.248 353.112,428.232 			"/>
			<polygon fill-rule="evenodd" clip-rule="evenodd" points="352.372,428.186 352.39,428.188 353.104,428.248 353.142,427.845 
				352.421,427.802 352.438,427.809 352.372,428.186 352.372,428.186 352.372,428.186 			"/>
			<polygon fill-rule="evenodd" clip-rule="evenodd" points="351.704,428.101 352.372,428.186 352.438,427.809 351.776,427.706 
				351.704,428.101 351.704,428.101 			"/>
			<polygon fill-rule="evenodd" clip-rule="evenodd" points="351.048,427.98 351.067,427.988 351.704,428.101 351.776,427.706 
				351.114,427.604 351.134,427.61 351.048,427.98 351.048,427.98 351.048,427.98 			"/>
			<polygon fill-rule="evenodd" clip-rule="evenodd" points="350.466,427.824 351.048,427.98 351.134,427.61 350.55,427.456 
				350.458,427.844 350.458,427.844 350.466,427.824 			"/>
			<polygon fill-rule="evenodd" clip-rule="evenodd" points="349.856,427.683 349.876,427.688 350.458,427.844 350.55,427.456 
				349.966,427.301 349.983,427.308 349.856,427.683 349.856,427.683 			"/>
			<polygon fill-rule="evenodd" clip-rule="evenodd" points="349.31,427.479 349.31,427.479 349.856,427.683 349.983,427.308 
				349.435,427.104 349.454,427.109 349.294,427.474 349.294,427.474 349.31,427.479 			"/>
			<polygon fill-rule="evenodd" clip-rule="evenodd" points="348.767,427.259 349.294,427.474 349.454,427.109 348.929,426.895 
				348.767,427.259 348.767,427.259 			"/>
			<polygon fill-rule="evenodd" clip-rule="evenodd" points="348.267,427.031 348.767,427.259 348.929,426.895 348.423,426.686 
				348.267,427.031 348.267,427.031 			"/>
			<polygon fill-rule="evenodd" clip-rule="evenodd" points="347.755,426.781 347.767,426.807 348.267,427.031 348.423,426.686 
				347.911,426.438 347.927,426.443 347.749,426.8 347.749,426.8 347.755,426.781 			"/>
			<polygon fill-rule="evenodd" clip-rule="evenodd" points="347.261,426.538 347.749,426.8 347.927,426.443 347.433,426.198 
				347.255,426.555 347.255,426.555 347.261,426.538 			"/>
			<polygon fill-rule="evenodd" clip-rule="evenodd" points="346.771,426.275 347.255,426.555 347.433,426.198 346.944,425.938 
				346.753,426.271 346.753,426.271 346.771,426.275 			"/>
			<polygon fill-rule="evenodd" clip-rule="evenodd" points="346.265,426.007 346.753,426.271 346.944,425.938 346.456,425.672 
				346.265,426.007 346.265,426.007 			"/>
			<polygon fill-rule="evenodd" clip-rule="evenodd" points="346.032,425.631 345.759,425.738 346.265,426.007 346.456,425.672 
				345.95,425.405 345.675,425.513 346.032,425.631 346.032,425.631 346.032,425.631 			"/>
			<polygon fill-rule="evenodd" clip-rule="evenodd" points="397.683,420.267 396.548,423.245 400.249,424.479 401.106,422.501 
				401.13,422.312 401.138,422.113 401.106,421.904 401.036,421.702 400.917,421.524 400.821,421.333 400.667,421.143 
				400.507,420.971 400.339,420.815 400.153,420.654 399.964,420.51 399.778,420.409 399.599,420.29 399.392,420.2 399.206,420.099 
				399.028,420.04 398.868,419.986 398.675,419.962 398.503,419.946 398.337,419.969 398.169,419.993 397.991,420.051 
				397.835,420.158 397.683,420.267 397.683,420.267 397.683,420.267 			"/>
			<polygon fill-rule="evenodd" clip-rule="evenodd" points="400.081,424.384 400.313,424.283 396.614,423.049 396.489,423.424 
				400.19,424.657 400.438,424.562 400.081,424.384 400.081,424.384 			"/>
			<g>
				<polygon fill="none" points="400.796,425.241 400.819,425.443 400.796,425.241 				"/>
				<polygon fill="none" points="402.704,423.248 402.841,423.378 402.692,423.273 				"/>
				<g>
					<polygon fill="none" points="402.841,423.378 402.692,423.273 402.704,423.248 					"/>
					<g>
						<polygon fill="none" points="402.841,423.378 402.692,423.273 402.704,423.248 						"/>
						<polygon points="342.999,422.337 343.019,422.281 344.146,419.321 344.503,419.441 343.409,422.366 343.388,422.484 
							343.382,422.442 342.999,422.516 342.995,422.474 						"/>
						<g>
							<polygon fill="none" points="402.841,423.378 402.692,423.273 402.704,423.248 							"/>
							<polygon fill="#4C4849" points="361.144,429.345 361.077,429.383 361.071,429.378 							"/>
							<g>
								<polygon fill="none" points="361.214,429.517 361.356,429.652 361.214,429.517 								"/>
								<polygon fill="none" points="402.841,423.378 402.692,423.273 402.704,423.248 								"/>
								<polygon fill="none" points="356.356,433.684 356.37,433.684 356.37,433.689 356.177,433.625 356.339,433.626 								"/>
								<path d="M343.138,422.999l0.041,0.172l0.006-0.019l0.289-0.06l-0.074,0.191l8.295-0.271l0.195,0.006l0.215,0.073
									l0.215,0.068l0.215,0.074l0.195,0.124l0.162,0.113l0.113,0.139l0.07,0.137l-0.195,0.06l3.297,9.938l0.195,0.002l0.004,0.122
									h0.297l0.279-0.006l0.258,0.006l0.232-0.04l0.236-0.062l0.24-0.115l0.219-0.186l0.262-0.251l0.006-0.019l0.15-0.207
									l0.172-0.221l0.197-0.231l0.139-0.233l0.172-0.28l0.18-0.238l0.146-0.266l0.191-0.276l0.154-0.227l0.223-0.243l0.18-0.238
									l0.207-0.21l0.184-0.195l0.199-0.174l0.189-0.153l0.221-0.124l0.047-0.025l-0.143-0.136l0,0l0.143,0.136l0.221-0.243
									l0.203-0.193l0.178-0.176l0.193-0.156l0.184-0.136l0.195-0.114l0.174-0.1l0.189-0.096l0.215-0.049l0.209-0.088l0.215-0.048
									l0.25-0.036l0.273-0.049l0.305-0.018l0.328-0.028l0.32-0.013l0.02,0.008l35.791-2.675l0.209-0.027l0.191-0.038l0.172-0.041
									l0.18-0.06l0.166-0.083l0.174-0.103l0.145-0.13l0.166-0.144l0.035-0.047l0.625-1.459l-0.324-0.21l0.143,0.142l-0.023,0.019
									l-0.158-0.111l-0.156,0.365l-0.105,0.062l-0.137,0.055l-0.16,0.064l-0.15,0.03l-0.189,0.036l-0.191,0.035l-35.811,2.668
									l-0.229,0.022l-0.219,0.007l-0.219,0.006l-0.234,0.038h-0.238l-0.207,0.032l-0.229,0.023l-0.207,0.031l-0.232,0.041
									l-0.209,0.029l-0.213,0.047l-0.24,0.061l-0.215,0.047l-0.227,0.084l-0.227,0.084l-0.215,0.106l-0.422,0.256l-0.43,0.394
									l-0.451,0.464l-0.438,0.53l-0.422,0.554l-0.363,0.495l-0.357,0.477l-0.297,0.358l-0.176,0.04l-0.148,0.03l-0.186,0.019
									h-0.178h-0.18l-0.154-0.013l-0.195-0.007l-0.174-0.019l-3.287-9.914l-0.07-0.143l-0.113-0.137l-0.16-0.113l-0.217-0.131
									l-0.207-0.09l-0.215-0.073l-0.203-0.047l-0.197-0.006l-8.287,0.254l-0.996,2.619l-0.006-0.035L343.138,422.999z
									 M402.692,423.273l0.012-0.025l0.137,0.13L402.692,423.273z"/>
							</g>
						</g>
					</g>
				</g>
			</g>
			<polygon fill-rule="evenodd" clip-rule="evenodd" points="401.44,424.004 401.653,423.954 401.845,423.92 402.019,423.876 
				402.198,423.817 402.364,423.733 402.536,423.634 402.673,423.521 402.841,423.378 402.558,423.103 402.429,423.24 
				402.3,423.337 402.173,423.413 402.036,423.466 401.905,423.502 401.751,423.55 401.585,423.573 401.399,423.591 401.44,424.004 
				401.44,424.004 			"/>
			<polygon fill-rule="evenodd" clip-rule="evenodd" points="365.653,426.659 401.44,424.004 401.399,423.591 365.606,426.265 
				365.653,426.659 365.653,426.659 			"/>
			<polygon fill-rule="evenodd" clip-rule="evenodd" points="362.144,427.294 362.353,427.205 362.556,427.133 362.8,427.056 
				363.003,426.984 363.222,426.92 363.431,426.891 363.64,426.859 363.872,426.819 364.063,426.781 364.282,426.777 
				364.511,426.753 364.737,426.73 364.962,426.706 365.165,426.694 365.409,426.676 365.653,426.659 365.606,426.265 
				365.378,426.288 365.155,426.312 364.915,426.312 364.688,426.336 364.468,426.343 364.255,426.39 364.032,426.395 
				363.788,426.412 363.573,426.461 363.36,426.508 363.128,426.55 362.888,426.609 362.687,426.681 362.442,426.757 
				362.198,426.835 361.983,426.941 362.144,427.294 362.144,427.294 362.144,427.294 			"/>
			<polygon fill-rule="evenodd" clip-rule="evenodd" points="358.937,430.83 359.015,430.777 359.177,430.592 359.319,430.402 
				359.491,430.183 359.671,429.943 359.874,429.694 360.06,429.437 360.267,429.169 360.476,428.902 360.69,428.616 
				360.909,428.371 361.126,428.145 361.345,427.899 361.53,427.703 361.763,427.545 361.954,427.39 362.144,427.294 
				361.983,426.941 361.739,427.08 361.53,427.227 361.286,427.425 361.056,427.646 360.839,427.871 360.624,428.098 
				360.388,428.396 360.177,428.663 359.97,428.931 359.761,429.199 359.577,429.456 359.372,429.705 359.194,429.943 
				359.021,430.164 358.88,430.355 358.747,430.51 358.819,430.472 358.937,430.83 358.937,430.83 358.937,430.83 			"/>
			<polygon fill="none" points="397.604,420.438 397.683,420.267 397.823,420.136 398.038,420.028 398.29,419.993 398.427,419.998 
				398.581,420.011 398.729,420.04 398.878,420.069 399.058,420.131 399.22,420.185 399.392,420.261 399.575,420.362 
				399.731,420.434 399.892,420.548 400.034,420.654 400.19,420.786 400.351,420.897 400.464,421.035 400.603,421.16 
				400.714,421.298 400.923,421.565 401.03,421.84 401.083,421.978 401.114,422.067 401.095,422.3 401.052,422.483 400.921,422.638 
				400.731,422.732 400.476,422.786 400.333,422.8 400.185,422.769 400.011,422.751 399.827,422.709 399.665,422.655 
				399.487,422.595 399.296,422.515 399.128,422.417 398.956,422.339 398.771,422.238 398.61,422.127 398.456,421.993 
				398.312,421.887 398.163,421.739 398.032,421.595 397.921,421.456 397.737,421.176 397.626,420.904 397.599,420.814 
				397.567,420.665 			"/>
			<polygon fill-rule="evenodd" clip-rule="evenodd" fill="#FFFFFF" points="352.081,420.064 352.819,420.052 352.88,420.052 
				346.534,417.937 346.214,418.126 352.075,420.082 352.075,420.082 352.081,420.064 			"/>
			<polygon fill-rule="evenodd" clip-rule="evenodd" fill="#FFFFFF" points="352.081,420.064 344.532,420.306 344.503,420.156 
				344.462,419.985 344.413,419.83 344.354,419.651 344.325,419.502 344.325,419.382 344.372,419.239 344.503,419.144 
				344.813,418.931 345.157,418.728 345.503,418.524 345.849,418.322 346.179,418.112 346.214,418.126 352.075,420.082 
				352.075,420.082 352.081,420.064 			"/>
			<polygon fill="#FFFFFF" points="347.491,424.649 352.636,424.359 354.647,425.17 355.356,427.272 355.573,427.999 
				354.72,428.052 353.886,428.052 353.116,428.036 352.413,427.999 351.729,427.909 351.091,427.798 350.507,427.642 
				349.923,427.486 349.376,427.283 348.845,427.085 348.345,426.859 347.851,426.616 347.337,426.365 346.849,426.103 
				346.36,425.841 345.854,425.571 345.808,425.358 345.771,425.167 345.724,424.953 345.692,424.743 			"/>
			<polygon fill-rule="evenodd" clip-rule="evenodd" fill="#FFFFFF" points="360.446,425.237 360.519,425.322 361.179,425.721 
				361.394,425.377 360.731,424.977 360.798,425.077 360.446,425.237 360.47,425.284 360.519,425.322 360.446,425.237 
				360.446,425.237 			"/>
			<polygon fill-rule="evenodd" clip-rule="evenodd" fill="#FFFFFF" points="354.565,425.361 354.452,425.224 355.394,428.059 
				355.769,427.945 354.829,425.109 354.726,424.996 354.829,425.109 354.798,425.021 354.726,424.996 354.565,425.361 
				354.565,425.361 354.565,425.361 			"/>
			<polygon fill-rule="evenodd" clip-rule="evenodd" fill="#FFFFFF" points="352.653,424.546 352.558,424.532 354.565,425.361 
				354.726,424.996 352.72,424.169 352.642,424.163 352.72,424.169 352.683,424.157 352.642,424.163 352.653,424.546 
				352.653,424.546 352.653,424.546 			"/>
			<polygon fill-rule="evenodd" clip-rule="evenodd" fill="#FFFFFF" points="345.896,424.734 345.706,424.946 352.653,424.546 
				352.642,424.163 345.694,424.565 345.509,424.761 345.694,424.565 345.472,424.569 345.509,424.761 345.896,424.734 
				345.896,424.734 			"/>
			<polygon fill-rule="evenodd" clip-rule="evenodd" fill="#FFFFFF" points="345.95,425.405 346.026,425.529 346.021,425.429 
				345.997,425.322 345.991,425.221 345.962,425.131 345.956,425.03 345.931,424.924 345.901,424.833 345.896,424.734 
				345.509,424.761 345.507,424.881 345.526,425.006 345.556,425.093 345.563,425.195 345.591,425.284 345.616,425.394 
				345.657,425.507 345.663,425.608 345.759,425.738 345.663,425.608 345.692,425.696 345.759,425.738 345.95,425.405 
				345.95,425.405 			"/>
			<polygon fill-rule="evenodd" clip-rule="evenodd" fill="#FFFFFF" points="355.397,428.041 355.56,427.798 354.708,427.852 
				353.886,427.876 353.142,427.845 352.421,427.802 351.776,427.706 351.134,427.61 350.55,427.456 349.983,427.308 
				349.435,427.104 348.929,426.895 348.423,426.686 347.927,426.443 347.433,426.198 346.944,425.938 346.456,425.672 
				345.95,425.405 345.759,425.738 346.265,426.007 346.753,426.271 347.255,426.555 347.749,426.8 348.267,427.031 
				348.767,427.259 349.31,427.479 349.856,427.683 350.458,427.844 351.048,427.98 351.704,428.101 352.39,428.188 
				353.104,428.248 353.897,428.257 354.72,428.232 355.606,428.19 355.769,427.945 355.606,428.19 355.853,428.173 
				355.769,427.945 355.394,428.059 355.394,428.059 355.397,428.041 			"/>
			<g>
				<polygon fill="none" points="358.993,430.56 359.14,430.701 358.993,430.56 				"/>
				<polygon fill="none" points="357.675,430.51 357.64,430.511 357.64,430.511 				"/>
				<polygon fill="none" points="354.44,420.87 359.655,422.611 354.44,420.87 				"/>
			</g>
			<polygon fill-rule="evenodd" clip-rule="evenodd" fill="#FFFFFF" points="365.606,426.265 365.345,426.276 365.052,426.318 
				364.79,426.329 364.505,426.352 364.231,426.4 363.938,426.443 363.646,426.485 363.364,426.55 363.085,426.616 362.843,426.692 
				362.573,426.781 362.323,426.877 362.108,426.984 361.853,427.098 361.644,427.247 361.452,427.4 361.692,427.7 361.876,427.562 
				362.056,427.442 362.251,427.329 362.478,427.247 362.698,427.122 362.937,427.062 363.216,426.997 363.462,426.92 
				363.729,426.891 363.968,426.829 364.255,426.807 364.528,426.76 364.819,426.717 365.104,426.692 365.374,426.664 
				365.653,426.659 365.606,426.265 365.606,426.265 365.606,426.265 			"/>
			<polygon fill-rule="evenodd" clip-rule="evenodd" fill="#FFFFFF" points="401.399,423.591 365.606,426.265 365.653,426.659 
				401.44,424.004 401.399,423.591 401.399,423.591 			"/>
			<polygon fill-rule="evenodd" clip-rule="evenodd" fill="#FFFFFF" points="402.067,421.41 402.216,421.619 402.37,421.812 
				402.442,422.014 402.556,422.21 402.614,422.389 402.634,422.572 402.638,422.733 402.626,422.889 402.585,423.014 
				402.524,423.133 402.446,423.246 402.31,423.359 402.167,423.433 401.94,423.515 401.704,423.573 401.399,423.591 
				401.44,424.004 401.769,423.972 402.056,423.889 402.304,423.793 402.524,423.671 402.728,423.537 402.87,423.346 
				402.948,423.174 403.021,422.96 403.015,422.739 403.024,422.526 402.978,422.312 402.899,422.068 402.812,421.857 
				402.692,421.619 402.536,421.37 402.382,421.179 402.067,421.41 402.067,421.41 			"/>
			<polygon fill-rule="evenodd" clip-rule="evenodd" fill="#FFFFFF" points="397.8,419.372 398.122,419.36 398.45,419.392 
				398.784,419.463 399.104,419.511 399.409,419.612 399.714,419.713 400.005,419.851 400.28,419.982 400.565,420.136 
				400.827,420.303 401.108,420.477 401.31,420.642 401.524,420.833 401.733,421.042 401.905,421.238 402.067,421.41 
				402.382,421.179 402.198,420.959 401.989,420.751 401.78,420.539 401.548,420.345 401.292,420.16 401.036,419.976 
				400.774,419.808 400.478,419.628 400.167,419.487 399.851,419.36 399.528,419.254 399.19,419.14 398.854,419.068 
				398.515,419.015 398.126,418.985 397.79,418.989 397.8,419.372 397.8,419.372 			"/>
			<polygon fill-rule="evenodd" clip-rule="evenodd" fill="#FFFFFF" points="366.132,420.463 397.8,419.372 397.79,418.989 
				366.138,420.087 366.132,420.463 366.132,420.463 			"/>
			<polygon fill-rule="evenodd" clip-rule="evenodd" fill="#FFFFFF" points="361.134,419.667 361.431,419.788 361.747,419.854 
				362.052,419.954 362.366,420.021 362.698,420.094 363.009,420.176 363.349,420.229 363.653,420.271 363.97,420.338 
				364.296,420.366 364.618,420.414 364.935,420.42 365.237,420.462 365.56,420.449 365.851,420.47 366.132,420.463 
				366.138,420.087 365.839,420.087 365.548,420.069 365.272,420.058 364.964,420.035 364.653,420.009 364.345,419.985 
				364.04,419.943 363.72,419.896 363.403,419.83 363.101,419.788 362.79,419.706 362.468,419.658 362.157,419.572 361.829,419.484 
				361.554,419.413 361.253,419.312 361.128,419.687 361.128,419.687 361.134,419.667 			"/>
			<polygon fill-rule="evenodd" clip-rule="evenodd" fill="#FFFFFF" points="350.45,416.741 350.991,416.663 351.503,416.614 
				351.993,416.578 352.44,416.55 352.862,416.531 353.245,416.579 353.638,416.592 353.966,416.621 354.306,416.675 
				354.622,416.742 354.919,416.802 355.188,416.891 355.474,416.985 355.698,417.08 355.979,417.193 356.2,417.307 
				356.456,417.435 356.712,417.558 356.962,417.702 357.214,417.845 357.464,417.986 357.726,418.155 357.981,418.279 
				358.261,418.452 358.571,418.596 358.868,418.774 359.202,418.905 359.524,419.072 359.886,419.232 360.28,419.366 
				360.698,419.542 361.128,419.687 361.253,419.312 360.823,419.168 360.399,419.008 360.048,418.869 359.679,418.727 
				359.341,418.553 359.048,418.417 358.749,418.236 358.458,418.101 358.171,417.945 357.903,417.796 357.653,417.653 
				357.392,417.485 357.142,417.343 356.884,417.219 356.63,417.094 356.396,416.955 356.14,416.831 355.86,416.717 355.597,416.61 
				355.312,416.515 355.009,416.414 354.692,416.349 354.372,416.3 354.019,416.223 353.655,416.18 353.28,416.176 352.845,416.169 
				352.429,416.168 351.944,416.185 351.456,416.222 350.94,416.286 350.403,416.347 350.433,416.733 350.433,416.733 
				350.45,416.741 			"/>
			<polygon fill-rule="evenodd" clip-rule="evenodd" fill="#FFFFFF" points="344.604,419.318 344.913,419.102 345.259,418.898 
				345.604,418.698 345.956,418.478 346.278,418.287 346.642,418.09 346.981,417.905 347.333,417.745 347.71,417.573 
				348.083,417.399 348.454,417.246 348.835,417.114 349.247,417.015 349.622,416.899 350.032,416.8 350.433,416.733 
				350.403,416.347 349.954,416.435 349.532,416.514 349.114,416.631 348.722,416.738 348.329,416.903 347.923,417.048 
				347.556,417.204 347.179,417.376 346.798,417.566 346.435,417.763 346.093,417.947 345.747,418.148 345.401,418.353 
				345.056,418.553 344.729,418.763 344.401,418.97 344.585,419.312 344.585,419.312 344.604,419.318 			"/>
			<polygon fill-rule="evenodd" clip-rule="evenodd" fill="#FFFFFF" points="344.532,420.128 344.735,420.293 344.675,420.114 
				344.64,419.923 344.593,419.77 344.55,419.598 344.526,419.488 344.509,419.423 344.538,419.335 344.585,419.312 344.401,418.97 
				344.229,419.13 344.138,419.34 344.114,419.531 344.175,419.709 344.216,419.883 344.265,420.037 344.312,420.192 
				344.341,420.342 344.526,420.5 344.341,420.342 344.349,420.5 344.526,420.5 344.532,420.128 344.532,420.128 			"/>
			<g>
				<polygon fill="none" points="359.153,421.55 359.155,421.552 359.106,421.753 				"/>
				<polygon fill="#FFFFFF" points="359.161,421.533 359.155,421.552 359.153,421.55 				"/>
				<polygon fill="#FFFFFF" points="359.071,421.622 359.153,421.55 359.106,421.753 				"/>
				<g>
					<polygon fill="none" points="397.683,420.267 397.823,420.136 398.038,420.028 398.29,419.993 398.427,419.998 
						398.581,420.011 398.729,420.04 398.878,420.069 399.058,420.131 399.22,420.185 399.392,420.261 399.575,420.362 
						399.731,420.434 399.892,420.548 400.034,420.654 400.19,420.786 400.351,420.897 400.464,421.035 400.603,421.16 
						400.714,421.298 400.923,421.565 401.03,421.84 401.083,421.978 401.114,422.067 401.095,422.3 401.052,422.483 
						400.921,422.638 400.731,422.732 400.476,422.786 400.333,422.8 400.185,422.769 400.011,422.751 399.827,422.709 
						399.665,422.655 399.487,422.595 399.296,422.515 399.128,422.417 398.956,422.339 398.771,422.238 398.61,422.127 
						398.456,421.993 398.312,421.887 398.163,421.739 398.032,421.595 397.921,421.456 397.737,421.176 397.626,420.904 
						397.599,420.814 397.567,420.665 397.604,420.438 					"/>
					<polygon fill="none" points="363.187,421.524 363.187,421.524 363.009,421.605 					"/>
					<polygon fill="none" points="364.474,424.774 364.601,424.876 364.612,424.899 364.272,425.323 361.28,425.536 
						360.632,425.162 360.628,425.155 360.798,425.077 359.524,421.728 359.735,421.517 362.456,421.36 363.032,421.661 
						364.444,424.984 					"/>
					<polygon fill="none" points="354.267,420.516 354.267,420.516 359.272,422.185 					"/>
					<g>
						<polygon fill="none" points="397.683,420.267 397.823,420.136 398.038,420.028 398.29,419.993 398.427,419.998 
							398.581,420.011 398.729,420.04 398.878,420.069 399.058,420.131 399.22,420.185 399.392,420.261 399.575,420.362 
							399.731,420.434 399.892,420.548 400.034,420.654 400.19,420.786 400.351,420.897 400.464,421.035 400.603,421.16 
							400.714,421.298 400.923,421.565 401.03,421.84 401.083,421.978 401.114,422.067 401.095,422.3 401.052,422.483 
							400.921,422.638 400.731,422.732 400.476,422.786 400.333,422.8 400.185,422.769 400.011,422.751 399.827,422.709 
							399.665,422.655 399.487,422.595 399.296,422.515 399.128,422.417 398.956,422.339 398.771,422.238 398.61,422.127 
							398.456,421.993 398.312,421.887 398.163,421.739 398.032,421.595 397.921,421.456 397.737,421.176 397.626,420.904 
							397.599,420.814 397.567,420.665 397.604,420.438 						"/>
						<polygon fill="none" points="362.456,421.36 363.032,421.661 364.444,424.984 364.474,424.774 364.601,424.876 
							364.612,424.899 364.272,425.323 361.28,425.536 360.632,425.162 360.628,425.155 360.798,425.077 359.524,421.728 
							359.735,421.517 						"/>
						<polygon fill="none" points="354.267,420.516 354.267,420.516 359.272,422.185 						"/>
						<g>
							<polygon fill="none" points="397.683,420.267 397.823,420.136 398.038,420.028 398.29,419.993 398.427,419.998 
								398.581,420.011 398.729,420.04 398.878,420.069 399.058,420.131 399.22,420.185 399.392,420.261 399.575,420.362 
								399.731,420.434 399.892,420.548 400.034,420.654 400.19,420.786 400.351,420.897 400.464,421.035 400.603,421.16 
								400.714,421.298 400.923,421.565 401.03,421.84 401.083,421.978 401.114,422.067 401.095,422.3 401.052,422.483 
								400.921,422.638 400.731,422.732 400.476,422.786 400.333,422.8 400.185,422.769 400.011,422.751 399.827,422.709 
								399.665,422.655 399.487,422.595 399.296,422.515 399.128,422.417 398.956,422.339 398.771,422.238 398.61,422.127 
								398.456,421.993 398.312,421.887 398.163,421.739 398.032,421.595 397.921,421.456 397.737,421.176 397.626,420.904 
								397.599,420.814 397.567,420.665 397.604,420.438 							"/>
							<polygon fill="none" points="362.456,421.36 363.032,421.661 364.444,424.984 364.474,424.774 364.601,424.876 
								364.612,424.899 364.276,425.318 364.255,425.138 361.265,425.352 361.394,425.377 361.294,425.535 361.28,425.536 
								360.632,425.162 360.628,425.155 360.798,425.077 359.524,421.728 359.735,421.517 							"/>
							<polygon fill="none" points="354.267,420.516 354.267,420.516 359.272,422.185 							"/>
							<g>
								<polygon fill="none" points="364.55,424.244 370.218,426.135 364.55,424.244 								"/>
								<polygon fill="none" points="364.403,423.896 370.933,426.076 364.403,423.896 								"/>
								<polygon fill="none" points="397.683,420.267 397.823,420.136 398.038,420.028 398.29,419.993 398.427,419.998 
									398.581,420.011 398.729,420.04 398.878,420.069 399.058,420.131 399.22,420.185 399.392,420.261 399.575,420.362 
									399.731,420.434 399.892,420.548 400.034,420.654 400.19,420.786 400.351,420.897 400.464,421.035 400.603,421.16 
									400.714,421.298 400.923,421.565 401.03,421.84 401.083,421.978 401.114,422.067 401.095,422.3 401.052,422.483 
									400.921,422.638 400.731,422.732 400.476,422.786 400.333,422.8 400.185,422.769 400.011,422.751 399.827,422.709 
									399.665,422.655 399.487,422.595 399.296,422.515 399.128,422.417 398.956,422.339 398.771,422.238 398.61,422.127 
									398.456,421.993 398.312,421.887 398.163,421.739 398.032,421.595 397.921,421.456 397.737,421.176 397.626,420.904 
									397.599,420.814 397.567,420.665 397.604,420.438 								"/>
								<polygon fill="none" points="362.456,421.36 363.032,421.661 364.444,424.984 364.474,424.774 364.601,424.876 
									364.612,424.899 364.276,425.318 364.272,425.323 361.294,425.535 361.28,425.536 360.632,425.162 360.628,425.155 
									360.798,425.077 359.524,421.728 359.735,421.517 								"/>
								<polygon fill="none" points="354.267,420.516 354.267,420.516 359.272,422.185 								"/>
								<polygon fill="#FFFFFF" points="364.403,423.896 370.933,426.076 370.224,426.117 370.218,426.135 364.55,424.244 								
									"/>
								<g>
									<polygon fill="none" points="397.683,420.267 397.823,420.136 398.038,420.028 398.29,419.993 398.427,419.998 
										398.581,420.011 398.729,420.04 398.878,420.069 399.058,420.131 399.22,420.185 399.392,420.261 399.575,420.362 
										399.731,420.434 399.892,420.548 400.034,420.654 400.19,420.786 400.351,420.897 400.464,421.035 400.603,421.16 
										400.714,421.298 400.923,421.565 401.03,421.84 401.083,421.978 401.114,422.067 401.095,422.3 401.052,422.483 
										400.921,422.638 400.731,422.732 400.476,422.786 400.333,422.8 400.185,422.769 400.011,422.751 399.827,422.709 
										399.665,422.655 399.487,422.595 399.296,422.515 399.128,422.417 398.956,422.339 398.771,422.238 398.61,422.127 
										398.456,421.993 398.312,421.887 398.163,421.739 398.032,421.595 397.921,421.456 397.737,421.176 397.626,420.904 
										397.599,420.814 397.567,420.665 397.604,420.438 									"/>
									<polygon fill="none" points="362.456,421.36 363.032,421.661 364.397,424.872 364.185,425.144 361.265,425.352 
										361.394,425.377 361.294,425.535 361.28,425.536 360.632,425.162 360.628,425.155 360.798,425.077 359.524,421.728 
										359.735,421.517 									"/>
									<polygon fill="none" points="364.474,424.774 364.601,424.876 364.601,424.876 									"/>
									<polygon fill="none" points="354.267,420.516 354.267,420.516 359.272,422.185 									"/>
									<path fill="#FFFFFF" d="M344.526,420.5l8.293-0.269l0.174,0.016l0.162,0.056l0.215,0.071l0.195,0.066l0.178,0.119
										l0.133,0.082l0.076,0.127l0.061,0.059l3.299,9.938l0.047,0.154l0.162-0.005l0.166-0.023l0.191,0.023l0.232,0.019
										l0.219-0.007l0.215,0.014l0.197-0.055l0.219-0.064l0.18-0.119l0.215-0.229l0.18-0.236l0.166-0.202l0.166-0.2l0.145-0.193
										l0.137-0.173l0.119-0.177l0.143-0.192l0.119-0.178l0.139-0.172l0.135-0.174l0.15-0.149l0.156-0.167l0.178-0.178l0.18-0.181
										l0.227-0.199l-0.121-0.151l0.178-0.148l0.205-0.131l0.232-0.101l0.213-0.107l0.232-0.1l0.262-0.073l0.27-0.09l0.262-0.068
										l0.25-0.038l0.275-0.049l0.291-0.04l0.275-0.047l0.285-0.024l0.285-0.024l0.27-0.029l0.262-0.011l4.6-0.333l-5.668-1.891
										l-0.146-0.348l0,0l6.529,2.18l30.496-2.276l0.566-0.089l0.424-0.196l0.293-0.28l0.104-0.321v-0.357l0.008-0.019
										l-0.102-0.41l-0.201-0.407l-0.295-0.435l-0.17-0.195l-0.191-0.203l-0.209-0.207l-0.219-0.174l-0.232-0.198l-0.262-0.165
										l-0.281-0.174l-0.279-0.173l-0.301-0.119l-0.291-0.137l-0.322-0.108l-0.338-0.111l-0.32-0.048l-0.336-0.072l-0.348-0.036
										l-0.336,0.007l-4.607,0.169l-27.045,0.927h-0.299l-0.279,0.005l-0.316-0.005l-0.303-0.042l-0.311-0.024l-0.309-0.024
										l-0.305-0.043l-0.322-0.047l-0.322-0.047l-0.314-0.065l-0.316-0.068l-0.316-0.064l-0.326-0.087l-0.309-0.087l-0.295-0.076
										l-0.303-0.1l-0.43-0.146l-0.422-0.161l-0.369-0.142l-0.369-0.145l-0.322-0.165l-0.311-0.143l-0.32-0.169l-0.293-0.137
										l-0.279-0.173l-0.252-0.144l-0.268-0.148l-0.25-0.143l-0.268-0.147l-0.25-0.146l-0.238-0.119l-0.25-0.143l-0.258-0.125
										l-0.262-0.107l-0.25-0.084l-0.287-0.096l-0.303-0.101l-0.291-0.078l-0.322-0.047l-0.34-0.055l-0.346-0.035l-0.387-0.029
										l-0.412-0.02l-0.422,0.019l-0.441,0.011l-0.494,0.054l-0.514,0.048l-0.561,0.071l-0.416,0.06l-0.412,0.101l-0.41,0.101
										l-0.383,0.132l-0.404,0.145l-0.387,0.146l-0.367,0.154l-0.377,0.173l-0.357,0.179l-0.365,0.198l5.789,1.93l-7.791,0.262
										L344.526,420.5z M397.567,420.665l0.037-0.227l0.078-0.172l0.141-0.131l0.215-0.107l0.252-0.035l0.137,0.005l0.154,0.013
										l0.148,0.029l0.148,0.029l0.18,0.062l0.162,0.054l0.172,0.076l0.184,0.102l0.156,0.071l0.16,0.114l0.143,0.106l0.156,0.132
										l0.16,0.111l0.113,0.138l0.139,0.125l0.111,0.138l0.209,0.268l0.107,0.274l0.053,0.138l0.031,0.09l-0.02,0.232
										l-0.043,0.184l-0.131,0.154l-0.189,0.095l-0.256,0.054l-0.143,0.014l-0.148-0.031l-0.174-0.018l-0.184-0.042l-0.162-0.054
										l-0.178-0.061l-0.191-0.08l-0.168-0.098l-0.172-0.078l-0.186-0.101l-0.16-0.111l-0.154-0.134l-0.145-0.106l-0.148-0.147
										l-0.131-0.145l-0.111-0.139l-0.184-0.28l-0.111-0.271l-0.027-0.09L397.567,420.665z M364.601,424.876L364.601,424.876
										l-0.127-0.102L364.601,424.876z M359.524,421.728l0.211-0.211l2.721-0.156l0.576,0.301l1.365,3.211l-0.213,0.271
										l-2.92,0.208l0.129,0.025l-0.1,0.158l-0.014,0.001l-0.648-0.374l-0.004-0.007l0.17-0.078L359.524,421.728z"/>
								</g>
							</g>
						</g>
					</g>
				</g>
			</g>
			<polygon fill-rule="evenodd" clip-rule="evenodd" points="395.726,422.731 395.56,422.637 395.53,422.487 395.769,422.427 
				395.815,422.583 395.673,422.476 395.726,422.731 395.726,422.731 			"/>
			<polygon fill-rule="evenodd" clip-rule="evenodd" points="396.05,422.541 396.013,422.59 395.952,422.648 395.88,422.684 
				395.812,422.719 395.726,422.731 395.673,422.476 395.708,422.487 395.763,422.445 395.827,422.427 395.835,422.41 
				395.821,422.445 396.044,422.559 396.044,422.559 396.05,422.541 			"/>
			<polygon fill-rule="evenodd" clip-rule="evenodd" points="395.376,421.046 395.394,421.051 395.507,421.188 395.655,421.338 
				395.798,421.505 395.935,421.689 396.048,421.886 396.112,422.106 396.114,422.345 396.044,422.559 395.821,422.445 
				395.87,422.302 395.858,422.161 395.815,421.986 395.708,421.833 395.591,421.654 395.46,421.511 395.31,421.36 395.196,421.225 
				395.214,421.23 395.376,421.046 395.376,421.046 			"/>
			<polygon fill-rule="evenodd" clip-rule="evenodd" points="393.183,420.413 393.165,420.406 393.481,420.413 393.778,420.413 
				394.058,420.467 394.327,420.496 394.601,420.569 394.856,420.694 395.124,420.843 395.376,421.046 395.214,421.23 
				394.97,421.068 394.737,420.932 394.519,420.819 394.28,420.759 394.017,420.712 393.749,420.681 393.476,420.67 
				393.194,420.676 393.2,420.658 393.159,420.425 393.159,420.425 393.183,420.413 			"/>
			<polygon fill-rule="evenodd" clip-rule="evenodd" points="369.933,421.633 370.034,421.565 393.159,420.425 393.2,420.658 
				370.069,421.817 370.173,421.751 369.933,421.633 369.933,421.633 			"/>
			<polygon fill-rule="evenodd" clip-rule="evenodd" points="369.384,422.441 369.134,422.358 369.151,422.185 369.2,422.043 
				369.271,421.888 369.366,421.779 369.491,421.702 369.651,421.638 369.831,421.579 370.034,421.565 370.069,421.817 
				369.878,421.853 369.706,421.894 369.622,421.904 369.538,421.978 369.499,422.043 369.433,422.121 369.397,422.228 
				369.403,422.388 369.151,422.303 369.384,422.441 369.384,422.441 			"/>
			<g>
				<polygon fill="none" points="370.034,421.572 370.069,421.817 370.034,421.572 				"/>
				<g>
					<polygon fill="none" points="369.403,422.388 369.433,422.238 369.503,422.085 369.563,421.967 369.688,421.888 
						369.837,421.857 370.046,421.828 370.069,421.817 393.2,420.658 393.587,420.688 393.911,420.676 394.214,420.717 
						394.493,420.771 394.751,420.896 394.981,421.032 395.196,421.225 395.442,421.505 395.655,421.755 395.812,422.004 
						395.888,422.188 395.888,422.309 395.835,422.41 395.687,422.499 395.405,422.565 395.013,422.611 371.243,423.836 
						371.226,423.831 370.892,423.818 370.563,423.729 370.272,423.591 370.022,423.448 369.813,423.24 369.665,423.031 
						369.534,422.829 369.433,422.657 369.413,422.53 					"/>
					<g>
						<path fill="none" d="M369.433,422.238l-0.029,0.149l0.01,0.143l0.02,0.127l0.102,0.172l0.131,0.202l0.148,0.209l0.209,0.208
							l0.25,0.143l0.291,0.138l0.328,0.09l0.334,0.013l0.018,0.005l23.77-1.225l0.393-0.046l0.281-0.066l0.148-0.089l0.053-0.102
							v-0.12l-0.076-0.185l-0.156-0.249l-0.213-0.25l-0.246-0.28l-0.215-0.192l-0.23-0.136l-0.258-0.125l-0.279-0.055l-0.303-0.041
							l-0.324,0.012l-0.387-0.029l-23.131,1.159l-0.023,0.011l-0.209,0.029l-0.148,0.03l-0.125,0.079l-0.061,0.118L369.433,422.238z
							 M369.759,422.09l23.133-1.158l0.01-0.035l0.311,0.023h0.299l0.281,0.053l0.266,0.03l0.275,0.072l0.256,0.125l0.25,0.143
							l0.268,0.209l0.102,0.111l0.09,0.091l0.084,0.107l0.07,0.082l0.102,0.116l0.078,0.123l0.064,0.1l0.066,0.103l0.006,0.042
							l-0.238,0.061l0.006,0.042l-0.061-0.119l-0.064-0.102l-0.09-0.089l-0.066-0.103l-0.07-0.082l-0.084-0.108l-0.088-0.088
							l-0.107-0.096l0.008-0.009l-0.213-0.158l-0.227-0.156l-0.225-0.096l-0.238-0.061l-0.262-0.049l-0.27-0.026l-0.291-0.021
							l-0.281,0.007l-23.123,1.143L369.759,422.09z"/>
						<g>
							<path fill="none" d="M369.433,422.238l-0.029,0.149l0.01,0.143l0.02,0.127l0.102,0.172l0.131,0.202l0.148,0.209l0.209,0.208
								l0.25,0.143l0.291,0.138l0.328,0.09l0.334,0.013l0.018,0.005l23.77-1.225l0.393-0.046l0.281-0.066l0.148-0.089l0.053-0.102
								v-0.12l-0.076-0.185l-0.156-0.249l-0.213-0.25l-0.246-0.28l-0.215-0.192l-0.23-0.136l-0.258-0.125l-0.279-0.055l-0.303-0.041
								l-0.324,0.012l-0.387-0.029l-23.131,1.159l-0.023,0.011l-0.209,0.029l-0.148,0.03l-0.125,0.079l-0.061,0.118L369.433,422.238
								z"/>
							<g>
								<polygon fill="none" points="369.503,422.085 369.563,421.967 369.688,421.888 369.837,421.857 369.974,421.839 
									369.784,422.198 392.915,421.039 393.212,421.039 393.487,421.051 393.767,421.104 394.034,421.135 394.29,421.2 
									394.536,421.302 394.778,421.463 395.019,421.642 395.101,421.748 395.19,421.839 395.274,421.943 395.364,422.035 
									395.429,422.135 395.513,422.242 395.579,422.345 395.655,422.469 395.665,422.505 395.405,422.565 395.013,422.611 
									371.243,423.836 371.226,423.831 370.892,423.818 370.563,423.729 370.272,423.591 370.022,423.448 369.813,423.24 
									369.665,423.031 369.534,422.829 369.433,422.657 369.413,422.53 369.403,422.388 369.433,422.238 								"/>
								<polygon points="395.579,422.345 395.513,422.242 395.429,422.135 395.364,422.035 395.274,421.943 395.19,421.839 
									395.101,421.748 395.019,421.642 394.778,421.463 394.536,421.302 394.29,421.2 394.034,421.135 393.767,421.104 
									393.487,421.051 393.212,421.039 392.915,421.039 369.784,422.198 369.974,421.839 370.046,421.828 370.069,421.817 
									393.2,420.658 393.587,420.688 393.911,420.676 394.214,420.717 394.493,420.771 394.751,420.896 394.981,421.032 
									395.196,421.225 395.442,421.505 395.655,421.755 395.812,422.004 395.888,422.188 395.888,422.309 395.835,422.41 
									395.687,422.499 395.665,422.505 395.655,422.469 								"/>
								<g>
									<polygon fill="none" points="369.442,422.216 369.462,422.21 369.581,422.21 369.784,422.198 369.976,421.839 
										370.046,421.828 370.069,421.817 393.2,420.658 393.587,420.688 393.911,420.676 394.214,420.717 394.493,420.771 
										394.751,420.896 394.981,421.032 395.196,421.225 395.442,421.505 395.655,421.755 395.812,422.004 395.888,422.188 
										395.888,422.309 395.835,422.41 395.687,422.499 395.665,422.505 395.405,422.565 395.013,422.611 371.243,423.836 
										371.226,423.831 370.892,423.818 370.563,423.729 370.272,423.591 370.022,423.448 369.813,423.24 369.665,423.031 
										369.534,422.829 369.433,422.657 369.413,422.53 369.403,422.388 369.433,422.238 									"/>
									<path d="M369.134,422.358l0.025,0.226l0.045,0.155l0.066,0.219l0.156,0.252l0.189,0.202l0.244,0.222l0.293,0.197
										l0.328,0.147l0.344,0.095l0.418,0.001l23.762-1.206l0.453-0.047l0.32-0.071l0.234-0.16l0.131-0.216l-0.006-0.221
										l-0.09-0.268l-0.172-0.256l-0.238-0.299l-0.244-0.28l-0.264-0.228l-0.279-0.171l-0.273-0.132l-0.297-0.059l-0.357-0.06
										h-0.357l-0.406,0.022l-23.125,1.141v0.007l-0.246,0.012l-0.25,0.096l-0.166,0.143l-0.113,0.161l-0.076,0.173
										L369.134,422.358z M369.403,422.388l0.029-0.149l0.01-0.022l0.02-0.006h0.119l0.203-0.012l0.191-0.359l0.07-0.011
										l0.023-0.011l23.131-1.159l0.387,0.029l0.324-0.012l0.303,0.041l0.279,0.055l0.258,0.125l0.23,0.136l0.215,0.192
										l0.246,0.28l0.213,0.25l0.156,0.249l0.076,0.185v0.12l-0.053,0.102l-0.148,0.089l-0.021,0.006l-0.26,0.061l-0.393,0.046
										l-23.77,1.225l-0.018-0.005l-0.334-0.013l-0.328-0.09l-0.291-0.138l-0.25-0.143l-0.209-0.208l-0.148-0.209l-0.131-0.202
										l-0.102-0.172l-0.02-0.127L369.403,422.388z"/>
								</g>
							</g>
						</g>
					</g>
				</g>
			</g>
		</g>
	</g>
	<rect x="295.96" y="20.25" fill="#E6E7E8" width="221.426" height="37.94"/>
	<text transform="matrix(1 0 0 1 299.7803 34.5059)"><tspan x="0" y="0" fill="#231F20" font-family="'Arial-BoldMT'" font-size="16.3494">54 Card Tuck Box Template</tspan><tspan x="0" y="18.685" fill="#231F20" font-family="'Arial-BoldMT'" font-size="16.3494">www.thegamecrafter.com</tspan></text>
	<g>
		<path fill="#EC1E28" d="M160.528,177.322c0,0.888-0.403,1.754-1.207,2.597l-0.127,0.125l-7.04,7.417
			c-1.496,1.571-2.771,2.787-3.821,3.646c-1.052,0.859-1.796,1.287-2.228,1.287c-0.456,0-1.021-0.214-1.698-0.644
			c-0.676-0.428-1.112-0.872-1.311-1.327c-0.166-0.38-0.325-1.185-0.473-2.416c-0.147-1.229-0.222-2.563-0.222-3.998
			c0-0.782,0.327-1.506,0.979-2.171c0.653-0.665,1.375-0.997,2.164-0.997c0.754,0,1.2,0.688,1.344,2.062
			c0.018,0.159,0.027,0.278,0.037,0.354c0.119,1.056,0.261,1.792,0.419,2.21c0.161,0.418,0.378,0.627,0.65,0.627
			c0.113,0,0.327-0.124,0.639-0.37c0.31-0.248,0.684-0.583,1.116-1.009l7.234-7.166c0.607-0.607,1.149-1.066,1.629-1.379
			c0.479-0.311,0.884-0.467,1.219-0.467c0.252,0,0.429,0.096,0.537,0.285c0.105,0.19,0.158,0.51,0.158,0.958V177.322z"/>
	</g>
	<text transform="matrix(1 0 0 1 160.6147 190.2495)" font-family="'ArialMT'" font-size="14">Fold Line</text>
	<g>
		<path fill="#EC1E28" d="M338.528,77.322c0,0.888-0.404,1.754-1.207,2.597l-0.127,0.125l-7.041,7.417
			c-1.496,1.571-2.77,2.787-3.82,3.646c-1.053,0.859-1.797,1.287-2.229,1.287c-0.455,0-1.021-0.214-1.697-0.644
			c-0.676-0.428-1.113-0.872-1.311-1.327c-0.166-0.38-0.326-1.185-0.473-2.416c-0.148-1.229-0.223-2.563-0.223-3.998
			c0-0.782,0.328-1.506,0.98-2.171s1.375-0.997,2.164-0.997c0.754,0,1.199,0.688,1.344,2.062c0.018,0.159,0.027,0.278,0.037,0.354
			c0.119,1.056,0.26,1.792,0.418,2.21c0.162,0.418,0.379,0.627,0.65,0.627c0.113,0,0.328-0.124,0.639-0.37
			c0.311-0.248,0.684-0.583,1.117-1.009l7.234-7.166c0.607-0.607,1.148-1.066,1.629-1.379c0.479-0.311,0.883-0.467,1.219-0.467
			c0.252,0,0.428,0.096,0.537,0.285c0.105,0.19,0.158,0.51,0.158,0.958V77.322z"/>
	</g>
	<text transform="matrix(1 0 0 1 338.6152 90.2495)" font-family="'ArialMT'" font-size="14">Bleed Zone</text>
	<g>
		<g>
			<g>
				<path fill="none" stroke="#00ADEE" stroke-miterlimit="10" d="M426.001,111.755h-2.461c-0.084,0.529-0.258,1.073-0.539,1.623
					c-0.119,0.231-0.24,0.461-0.365,0.689"/>
				<path fill="none" stroke="#00ADEE" stroke-miterlimit="10" stroke-dasharray="4.6605,4.6605" d="M420.079,117.976
					c-5.709,7.368-14.734,11.737-24.164,10.683c-8.459-0.945-17.262-4.833-21.549-12.418"/>
				<path fill="none" stroke="#00ADEE" stroke-miterlimit="10" d="M373.339,114.146c-0.133-0.315-0.256-0.637-0.375-0.963
					c-0.18-0.501-0.273-0.977-0.305-1.428h-2.463"/>
				
					<line fill="none" stroke="#00ADEE" stroke-miterlimit="10" stroke-dasharray="4.559,4.559" x1="365.673" y1="111.755" x2="322.692" y2="111.755"/>
				<polyline fill="none" stroke="#00ADEE" stroke-miterlimit="10" points="320.429,111.755 317.968,111.755 317.968,114.255 				
					"/>
				
					<line fill="none" stroke="#00ADEE" stroke-miterlimit="10" stroke-dasharray="4.8866,4.8866" x1="317.968" y1="119.179" x2="317.968" y2="343.223"/>
				<polyline fill="none" stroke="#00ADEE" stroke-miterlimit="10" points="317.968,345.686 317.968,348.186 320.429,348.186 				
					"/>
				
					<line fill="none" stroke="#00ADEE" stroke-miterlimit="10" stroke-dasharray="5.1007,5.1007" x1="325.491" y1="348.186" x2="474.815" y2="348.186"/>
				<polyline fill="none" stroke="#00ADEE" stroke-miterlimit="10" points="477.349,348.186 479.81,348.186 479.81,345.686 				"/>
				
					<line fill="none" stroke="#00ADEE" stroke-miterlimit="10" stroke-dasharray="4.8866,4.8866" x1="479.81" y1="340.762" x2="479.81" y2="116.717"/>
				<polyline fill="none" stroke="#00ADEE" stroke-miterlimit="10" points="479.81,114.255 479.81,111.755 477.349,111.755 				"/>
				
					<line fill="none" stroke="#00ADEE" stroke-miterlimit="10" stroke-dasharray="4.7036,4.7036" x1="472.681" y1="111.755" x2="428.337" y2="111.755"/>
			</g>
		</g>
	</g>
	<g>
		<g>
			<g>
				<polyline fill="none" stroke="#00ADEE" stroke-miterlimit="10" points="239.957,345.75 239.957,348.25 237.457,348.25 				"/>
				
					<line fill="none" stroke="#00ADEE" stroke-miterlimit="10" stroke-dasharray="5.1398,5.1398" x1="232.317" y1="348.25" x2="80.693" y2="348.25"/>
				<polyline fill="none" stroke="#00ADEE" stroke-miterlimit="10" points="78.123,348.25 75.623,348.25 75.623,345.75 				"/>
				
					<line fill="none" stroke="#00ADEE" stroke-miterlimit="10" stroke-dasharray="4.924,4.924" x1="75.623" y1="340.826" x2="75.623" y2="116.782"/>
				<polyline fill="none" stroke="#00ADEE" stroke-miterlimit="10" points="75.623,114.32 75.623,111.82 78.123,111.82 				"/>
				
					<line fill="none" stroke="#00ADEE" stroke-miterlimit="10" stroke-dasharray="5.1398,5.1398" x1="83.263" y1="111.82" x2="234.887" y2="111.82"/>
				<polyline fill="none" stroke="#00ADEE" stroke-miterlimit="10" points="237.457,111.82 239.957,111.82 239.957,114.32 				"/>
				
					<line fill="none" stroke="#00ADEE" stroke-miterlimit="10" stroke-dasharray="4.924,4.924" x1="239.957" y1="119.244" x2="239.957" y2="343.288"/>
			</g>
		</g>
	</g>
	<line fill="none" stroke="#00ADEE" stroke-miterlimit="10" x1="239.957" y1="299.583" x2="209.957" y2="299.583"/>
	<g>
		<path fill="#EC1E28" d="M144.528,290.322c0,0.888-0.403,1.754-1.207,2.597l-0.127,0.126l-7.04,7.417
			c-1.496,1.571-2.771,2.786-3.821,3.646c-1.052,0.859-1.796,1.287-2.228,1.287c-0.456,0-1.021-0.215-1.698-0.644
			c-0.676-0.429-1.112-0.872-1.311-1.327c-0.166-0.38-0.325-1.185-0.473-2.416c-0.147-1.229-0.222-2.562-0.222-3.998
			c0-0.782,0.327-1.506,0.979-2.171c0.653-0.665,1.375-0.997,2.164-0.997c0.754,0,1.2,0.688,1.344,2.062
			c0.018,0.159,0.027,0.277,0.037,0.354c0.119,1.056,0.261,1.793,0.419,2.21c0.161,0.418,0.378,0.627,0.65,0.627
			c0.113,0,0.327-0.124,0.639-0.37c0.31-0.248,0.684-0.582,1.116-1.009l7.234-7.166c0.607-0.607,1.149-1.066,1.629-1.379
			c0.479-0.312,0.884-0.468,1.219-0.468c0.252,0,0.429,0.097,0.537,0.285c0.105,0.189,0.158,0.51,0.158,0.958V290.322z"/>
	</g>
	<text transform="matrix(1 0 0 1 144.6147 303.25)" font-family="'ArialMT'" font-size="14">Safe Zone</text>
	<g>
		<g>
			<g>
				<polyline fill="none" stroke="#00ADEE" stroke-width="1.0349" stroke-miterlimit="10" points="57.294,345.75 57.294,348.25 
					48.962,348.25 				"/>
				<polyline fill="none" stroke="#00ADEE" stroke-width="1.0349" stroke-miterlimit="10" points="27.332,348.25 19,348.25 
					19,345.75 				"/>
				
					<line fill="none" stroke="#00ADEE" stroke-width="1.0349" stroke-miterlimit="10" stroke-dasharray="8.989,8.989" x1="19" y1="340.826" x2="19" y2="116.782"/>
				<polyline fill="none" stroke="#00ADEE" stroke-width="1.0349" stroke-miterlimit="10" points="19,114.32 19,111.82 
					27.332,111.82 				"/>
				<polyline fill="none" stroke="#00ADEE" stroke-width="1.0349" stroke-miterlimit="10" points="48.962,111.82 57.294,111.82 
					57.294,114.32 				"/>
				
					<line fill="none" stroke="#00ADEE" stroke-width="1.0349" stroke-miterlimit="10" stroke-dasharray="8.989,8.989" x1="57.294" y1="119.244" x2="57.294" y2="343.288"/>
			</g>
		</g>
	</g>
	<g>
		<g>
			<g>
				<polyline fill="none" stroke="#00ADEE" stroke-width="1.0314" stroke-miterlimit="10" points="295.96,345.75 295.96,348.25 
					288.091,348.25 				"/>
				<polyline fill="none" stroke="#00ADEE" stroke-width="1.0314" stroke-miterlimit="10" points="267.67,348.25 259.803,348.25 
					259.803,345.75 				"/>
				
					<line fill="none" stroke="#00ADEE" stroke-width="1.0314" stroke-miterlimit="10" stroke-dasharray="8.7347,8.7347" x1="259.803" y1="340.826" x2="259.803" y2="116.782"/>
				<polyline fill="none" stroke="#00ADEE" stroke-width="1.0314" stroke-miterlimit="10" points="259.803,114.32 259.803,111.82 
					267.67,111.82 				"/>
				<polyline fill="none" stroke="#00ADEE" stroke-width="1.0314" stroke-miterlimit="10" points="288.091,111.82 295.96,111.82 
					295.96,114.32 				"/>
				
					<line fill="none" stroke="#00ADEE" stroke-width="1.0314" stroke-miterlimit="10" stroke-dasharray="8.7347,8.7347" x1="295.96" y1="119.244" x2="295.96" y2="343.288"/>
			</g>
		</g>
	</g>
	<g>
		<g>
			<g>
				<polyline fill="none" stroke="#00ADEE" stroke-width="1.0266" stroke-miterlimit="10" points="239.957,86.005 239.957,93.589 
					237.457,93.589 				"/>
				
					<line fill="none" stroke="#00ADEE" stroke-width="1.0266" stroke-miterlimit="10" stroke-dasharray="8.9521,8.9521" x1="232.317" y1="93.589" x2="80.693" y2="93.589"/>
				<polyline fill="none" stroke="#00ADEE" stroke-width="1.0266" stroke-miterlimit="10" points="78.123,93.589 75.623,93.589 
					75.623,86.005 				"/>
				
					<line fill="none" stroke="#00ADEE" stroke-width="1.0266" stroke-miterlimit="10" stroke-dasharray="4.578,4.578" x1="75.623" y1="78.032" x2="75.623" y2="66.07"/>
				<polyline fill="none" stroke="#00ADEE" stroke-width="1.0266" stroke-miterlimit="10" points="75.623,62.084 75.623,54.5 
					78.123,54.5 				"/>
				
					<line fill="none" stroke="#00ADEE" stroke-width="1.0266" stroke-miterlimit="10" stroke-dasharray="8.9521,8.9521" x1="83.263" y1="54.5" x2="234.887" y2="54.5"/>
				<polyline fill="none" stroke="#00ADEE" stroke-width="1.0266" stroke-miterlimit="10" points="237.457,54.5 239.957,54.5 
					239.957,62.084 				"/>
				
					<line fill="none" stroke="#00ADEE" stroke-width="1.0266" stroke-miterlimit="10" stroke-dasharray="4.578,4.578" x1="239.957" y1="70.057" x2="239.957" y2="82.018"/>
			</g>
		</g>
	</g>
	<g>
		<g>
			<g>
				<polyline fill="none" stroke="#00ADEE" stroke-width="1.0293" stroke-miterlimit="10" points="239.957,396.763 239.957,404 
					237.457,404 				"/>
				
					<line fill="none" stroke="#00ADEE" stroke-width="1.0293" stroke-miterlimit="10" stroke-dasharray="8.7443,8.7443" x1="232.317" y1="404" x2="80.693" y2="404"/>
				<polyline fill="none" stroke="#00ADEE" stroke-width="1.0293" stroke-miterlimit="10" points="78.123,404 75.623,404 
					75.623,396.763 				"/>
				
					<line fill="none" stroke="#00ADEE" stroke-width="1.0293" stroke-miterlimit="10" stroke-dasharray="4.472,4.472" x1="75.623" y1="389.154" x2="75.623" y2="377.744"/>
				<polyline fill="none" stroke="#00ADEE" stroke-width="1.0293" stroke-miterlimit="10" points="75.623,373.939 75.623,366.703 
					78.123,366.703 				"/>
				
					<line fill="none" stroke="#00ADEE" stroke-width="1.0293" stroke-miterlimit="10" stroke-dasharray="8.7443,8.7443" x1="83.263" y1="366.703" x2="234.887" y2="366.703"/>
				<polyline fill="none" stroke="#00ADEE" stroke-width="1.0293" stroke-miterlimit="10" points="237.457,366.703 239.957,366.703 
					239.957,373.939 				"/>
				
					<line fill="none" stroke="#00ADEE" stroke-width="1.0293" stroke-miterlimit="10" stroke-dasharray="4.472,4.472" x1="239.957" y1="381.549" x2="239.957" y2="392.959"/>
			</g>
		</g>
	</g>
</g>
</svg>
