<?xml version="1.0" encoding="UTF-8" standalone="no"?>
<!-- Created with Inkscape (http://www.inkscape.org/) -->

<svg
   xmlns:dc="http://purl.org/dc/elements/1.1/"
   xmlns:cc="http://creativecommons.org/ns#"
   xmlns:rdf="http://www.w3.org/1999/02/22-rdf-syntax-ns#"
   xmlns:svg="http://www.w3.org/2000/svg"
   xmlns="http://www.w3.org/2000/svg"
   xmlns:sodipodi="http://sodipodi.sourceforge.net/DTD/sodipodi-0.dtd"
   xmlns:inkscape="http://www.inkscape.org/namespaces/inkscape"
   width="8.5in"
   height="11in"
   viewBox="0 0 765.00001 990.00002"
   id="svg3438"
   version="1.1"
   inkscape:version="0.91 r13725"
   sodipodi:docname="trackers.svg">
  <defs
     id="defs3440" />
  <sodipodi:namedview
     id="base"
     pagecolor="#ffffff"
     bordercolor="#666666"
     borderopacity="1.0"
     inkscape:pageopacity="0.0"
     inkscape:pageshadow="2"
     inkscape:zoom="0.9899495"
     inkscape:cx="445.46784"
     inkscape:cy="654.08899"
     inkscape:document-units="px"
     inkscape:current-layer="layer1"
     showgrid="false"
     inkscape:window-width="1920"
     inkscape:window-height="1017"
     inkscape:window-x="-8"
     inkscape:window-y="-8"
     inkscape:window-maximized="1"
     units="in" />
  <metadata
     id="metadata3443">
    <rdf:RDF>
      <cc:Work
         rdf:about="">
        <dc:format>image/svg+xml</dc:format>
        <dc:type
           rdf:resource="http://purl.org/dc/dcmitype/StillImage" />
        <dc:title />
      </cc:Work>
    </rdf:RDF>
  </metadata>
  <g
     inkscape:label="Layer 1"
     inkscape:groupmode="layer"
     id="layer1"
     transform="translate(0,-62.362175)">
    <rect
       style="fill:none;stroke:#000000;stroke-width:2;stroke-miterlimit:4;stroke-dasharray:none;stroke-opacity:1"
       id="rect4256"
       width="44.193771"
       height="44.193771"
       x="93.88179"
       y="154.58139"
       ry="8.2220984" />
    <text
       xml:space="preserve"
       style="font-style:normal;font-weight:normal;font-size:40px;line-height:125%;font-family:sans-serif;letter-spacing:0px;word-spacing:0px;fill:#000000;fill-opacity:1;stroke:none;stroke-width:1px;stroke-linecap:butt;stroke-linejoin:miter;stroke-opacity:1"
       x="46.958374"
       y="189.50504"
       id="text4258"
       sodipodi:linespacing="125%"><tspan
         sodipodi:role="line"
         id="tspan4260"
         x="46.958374"
         y="189.50504">🔊</tspan></text>
    <rect
       ry="8.2220984"
       y="154.58139"
       x="184.1339"
       height="44.193771"
       width="44.193771"
       id="rect4262"
       style="fill:none;stroke:#000000;stroke-width:2;stroke-miterlimit:4;stroke-dasharray:none;stroke-opacity:1" />
    <rect
       style="fill:none;stroke:#000000;stroke-width:2;stroke-miterlimit:4;stroke-dasharray:none;stroke-opacity:1"
       id="rect4264"
       width="44.193771"
       height="44.193771"
       x="680.52051"
       y="154.58139"
       ry="8.2220984" />
    <rect
       ry="8.2220984"
       y="154.58139"
       x="635.39453"
       height="44.193771"
       width="44.193771"
       id="rect4274"
       style="fill:none;stroke:#000000;stroke-width:2;stroke-miterlimit:4;stroke-dasharray:none;stroke-opacity:1" />
    <rect
       style="fill:none;stroke:#000000;stroke-width:2;stroke-miterlimit:4;stroke-dasharray:none;stroke-opacity:1"
       id="rect4276"
       width="44.193771"
       height="44.193771"
       x="590.26843"
       y="154.58139"
       ry="8.2220984" />
    <rect
       ry="8.2220984"
       y="154.58139"
       x="319.51205"
       height="44.193771"
       width="44.193771"
       id="rect4278"
       style="fill:none;stroke:#000000;stroke-width:2;stroke-miterlimit:4;stroke-dasharray:none;stroke-opacity:1" />
    <rect
       style="fill:none;stroke:#000000;stroke-width:2;stroke-miterlimit:4;stroke-dasharray:none;stroke-opacity:1"
       id="rect4280"
       width="44.193771"
       height="44.193771"
       x="229.25996"
       y="154.58139"
       ry="8.2220984" />
    <rect
       ry="8.2220984"
       y="154.58139"
       x="364.63812"
       height="44.193771"
       width="44.193771"
       id="rect4282"
       style="fill:none;stroke:#000000;stroke-width:2;stroke-miterlimit:4;stroke-dasharray:none;stroke-opacity:1" />
    <rect
       style="fill:none;stroke:#000000;stroke-width:2;stroke-miterlimit:4;stroke-dasharray:none;stroke-opacity:1"
       id="rect4284"
       width="44.193771"
       height="44.193771"
       x="274.38602"
       y="154.58139"
       ry="8.2220984" />
    <rect
       ry="8.2220984"
       y="154.58139"
       x="545.14233"
       height="44.193771"
       width="44.193771"
       id="rect4286"
       style="fill:none;stroke:#000000;stroke-width:2;stroke-miterlimit:4;stroke-dasharray:none;stroke-opacity:1" />
    <rect
       style="fill:none;stroke:#000000;stroke-width:2;stroke-miterlimit:4;stroke-dasharray:none;stroke-opacity:1"
       id="rect4288"
       width="44.193771"
       height="44.193771"
       x="409.76416"
       y="154.58139"
       ry="8.2220984" />
    <rect
       ry="8.2220984"
       y="154.58139"
       x="139.00783"
       height="44.193771"
       width="44.193771"
       id="rect4290"
       style="fill:none;stroke:#000000;stroke-width:2;stroke-miterlimit:4;stroke-dasharray:none;stroke-opacity:1" />
    <rect
       style="fill:none;stroke:#000000;stroke-width:2;stroke-miterlimit:4;stroke-dasharray:none;stroke-opacity:1"
       id="rect4292"
       width="44.193771"
       height="44.193771"
       x="454.89023"
       y="154.58139"
       ry="8.2220984" />
    <rect
       ry="8.2220984"
       y="154.58139"
       x="500.0163"
       height="44.193771"
       width="44.193771"
       id="rect4294"
       style="fill:none;stroke:#000000;stroke-width:2;stroke-miterlimit:4;stroke-dasharray:none;stroke-opacity:1" />
    <rect
       ry="8.2220984"
       y="200.05856"
       x="680.52051"
       height="44.193771"
       width="44.193771"
       id="rect4296"
       style="fill:none;stroke:#000000;stroke-width:2;stroke-miterlimit:4;stroke-dasharray:none;stroke-opacity:1" />
    <g
       id="g4354"
       transform="translate(10.233955,10.285714)">
      <rect
         style="fill:none;stroke:#000000;stroke-width:2;stroke-miterlimit:4;stroke-dasharray:none;stroke-opacity:1"
         id="rect4326"
         width="44.193771"
         height="44.193771"
         x="83.647858"
         y="235.25002"
         ry="8.2220984" />
      <rect
         ry="8.2220984"
         y="235.25002"
         x="173.89996"
         height="44.193771"
         width="44.193771"
         id="rect4328"
         style="fill:none;stroke:#000000;stroke-width:2;stroke-miterlimit:4;stroke-dasharray:none;stroke-opacity:1" />
      <rect
         style="fill:none;stroke:#000000;stroke-width:2;stroke-miterlimit:4;stroke-dasharray:none;stroke-opacity:1"
         id="rect4330"
         width="44.193771"
         height="44.193771"
         x="670.28656"
         y="235.25002"
         ry="8.2220984" />
      <rect
         ry="8.2220984"
         y="235.25002"
         x="625.16058"
         height="44.193771"
         width="44.193771"
         id="rect4332"
         style="fill:none;stroke:#000000;stroke-width:2;stroke-miterlimit:4;stroke-dasharray:none;stroke-opacity:1" />
      <rect
         style="fill:none;stroke:#000000;stroke-width:2;stroke-miterlimit:4;stroke-dasharray:none;stroke-opacity:1"
         id="rect4334"
         width="44.193771"
         height="44.193771"
         x="580.03448"
         y="235.25002"
         ry="8.2220984" />
      <rect
         ry="8.2220984"
         y="235.25002"
         x="309.27814"
         height="44.193771"
         width="44.193771"
         id="rect4336"
         style="fill:none;stroke:#000000;stroke-width:2;stroke-miterlimit:4;stroke-dasharray:none;stroke-opacity:1" />
      <rect
         style="fill:none;stroke:#000000;stroke-width:2;stroke-miterlimit:4;stroke-dasharray:none;stroke-opacity:1"
         id="rect4338"
         width="44.193771"
         height="44.193771"
         x="219.02603"
         y="235.25002"
         ry="8.2220984" />
      <rect
         ry="8.2220984"
         y="235.25002"
         x="354.40421"
         height="44.193771"
         width="44.193771"
         id="rect4340"
         style="fill:none;stroke:#000000;stroke-width:2;stroke-miterlimit:4;stroke-dasharray:none;stroke-opacity:1" />
      <rect
         style="fill:none;stroke:#000000;stroke-width:2;stroke-miterlimit:4;stroke-dasharray:none;stroke-opacity:1"
         id="rect4342"
         width="44.193771"
         height="44.193771"
         x="264.1521"
         y="235.25002"
         ry="8.2220984" />
      <rect
         ry="8.2220984"
         y="235.25002"
         x="534.90839"
         height="44.193771"
         width="44.193771"
         id="rect4344"
         style="fill:none;stroke:#000000;stroke-width:2;stroke-miterlimit:4;stroke-dasharray:none;stroke-opacity:1" />
      <rect
         style="fill:none;stroke:#000000;stroke-width:2;stroke-miterlimit:4;stroke-dasharray:none;stroke-opacity:1"
         id="rect4346"
         width="44.193771"
         height="44.193771"
         x="399.53024"
         y="235.25002"
         ry="8.2220984" />
      <rect
         ry="8.2220984"
         y="235.25002"
         x="128.7739"
         height="44.193771"
         width="44.193771"
         id="rect4348"
         style="fill:none;stroke:#000000;stroke-width:2;stroke-miterlimit:4;stroke-dasharray:none;stroke-opacity:1" />
      <rect
         style="fill:none;stroke:#000000;stroke-width:2;stroke-miterlimit:4;stroke-dasharray:none;stroke-opacity:1"
         id="rect4350"
         width="44.193771"
         height="44.193771"
         x="444.65631"
         y="235.25002"
         ry="8.2220984" />
      <rect
         ry="8.2220984"
         y="235.25002"
         x="489.78238"
         height="44.193771"
         width="44.193771"
         id="rect4352"
         style="fill:none;stroke:#000000;stroke-width:2;stroke-miterlimit:4;stroke-dasharray:none;stroke-opacity:1" />
    </g>
    <rect
       ry="8.2220984"
       y="510.15509"
       x="90.851334"
       height="44.193771"
       width="44.193771"
       id="rect4476"
       style="fill:none;stroke:#000000;stroke-width:2;stroke-miterlimit:4;stroke-dasharray:none;stroke-opacity:1" />
    <text
       sodipodi:linespacing="125%"
       id="text4478"
       y="545.07874"
       x="43.927917"
       style="font-style:normal;font-weight:normal;font-size:40px;line-height:125%;font-family:sans-serif;letter-spacing:0px;word-spacing:0px;fill:#000000;fill-opacity:1;stroke:none;stroke-width:1px;stroke-linecap:butt;stroke-linejoin:miter;stroke-opacity:1"
       xml:space="preserve"><tspan
         y="545.07874"
         x="43.927917"
         id="tspan4480"
         sodipodi:role="line">⚠</tspan></text>
    <rect
       style="fill:none;stroke:#000000;stroke-width:2;stroke-miterlimit:4;stroke-dasharray:none;stroke-opacity:1"
       id="rect4482"
       width="44.193771"
       height="44.193771"
       x="181.10344"
       y="510.15509"
       ry="8.2220984" />
    <rect
       ry="8.2220984"
       y="510.15509"
       x="677.49005"
       height="44.193771"
       width="44.193771"
       id="rect4484"
       style="fill:none;stroke:#000000;stroke-width:2;stroke-miterlimit:4;stroke-dasharray:none;stroke-opacity:1" />
    <rect
       style="fill:none;stroke:#000000;stroke-width:2;stroke-miterlimit:4;stroke-dasharray:none;stroke-opacity:1"
       id="rect4486"
       width="44.193771"
       height="44.193771"
       x="632.36407"
       y="510.15509"
       ry="8.2220984" />
    <rect
       ry="8.2220984"
       y="510.15509"
       x="587.23798"
       height="44.193771"
       width="44.193771"
       id="rect4488"
       style="fill:none;stroke:#000000;stroke-width:2;stroke-miterlimit:4;stroke-dasharray:none;stroke-opacity:1" />
    <rect
       style="fill:none;stroke:#000000;stroke-width:2;stroke-miterlimit:4;stroke-dasharray:none;stroke-opacity:1"
       id="rect4490"
       width="44.193771"
       height="44.193771"
       x="316.4816"
       y="510.15509"
       ry="8.2220984" />
    <rect
       ry="8.2220984"
       y="510.15509"
       x="226.22951"
       height="44.193771"
       width="44.193771"
       id="rect4492"
       style="fill:none;stroke:#000000;stroke-width:2;stroke-miterlimit:4;stroke-dasharray:none;stroke-opacity:1" />
    <rect
       style="fill:none;stroke:#000000;stroke-width:2;stroke-miterlimit:4;stroke-dasharray:none;stroke-opacity:1"
       id="rect4494"
       width="44.193771"
       height="44.193771"
       x="361.60767"
       y="510.15509"
       ry="8.2220984" />
    <rect
       ry="8.2220984"
       y="510.15509"
       x="271.35556"
       height="44.193771"
       width="44.193771"
       id="rect4496"
       style="fill:none;stroke:#000000;stroke-width:2;stroke-miterlimit:4;stroke-dasharray:none;stroke-opacity:1" />
    <rect
       style="fill:none;stroke:#000000;stroke-width:2;stroke-miterlimit:4;stroke-dasharray:none;stroke-opacity:1"
       id="rect4498"
       width="44.193771"
       height="44.193771"
       x="542.11188"
       y="510.15509"
       ry="8.2220984" />
    <rect
       ry="8.2220984"
       y="510.15509"
       x="406.7337"
       height="44.193771"
       width="44.193771"
       id="rect4500"
       style="fill:none;stroke:#000000;stroke-width:2;stroke-miterlimit:4;stroke-dasharray:none;stroke-opacity:1" />
    <rect
       style="fill:none;stroke:#000000;stroke-width:2;stroke-miterlimit:4;stroke-dasharray:none;stroke-opacity:1"
       id="rect4502"
       width="44.193771"
       height="44.193771"
       x="135.97737"
       y="510.15509"
       ry="8.2220984" />
    <rect
       ry="8.2220984"
       y="510.15509"
       x="451.85977"
       height="44.193771"
       width="44.193771"
       id="rect4504"
       style="fill:none;stroke:#000000;stroke-width:2;stroke-miterlimit:4;stroke-dasharray:none;stroke-opacity:1" />
    <rect
       style="fill:none;stroke:#000000;stroke-width:2;stroke-miterlimit:4;stroke-dasharray:none;stroke-opacity:1"
       id="rect4506"
       width="44.193771"
       height="44.193771"
       x="496.98584"
       y="510.15509"
       ry="8.2220984" />
    <rect
       style="fill:none;stroke:#000000;stroke-width:2;stroke-miterlimit:4;stroke-dasharray:none;stroke-opacity:1"
       id="rect4508"
       width="44.193771"
       height="44.193771"
       x="677.49005"
       y="555.63226"
       ry="8.2220984" />
    <rect
       style="fill:none;stroke:#000000;stroke-width:2;stroke-miterlimit:4;stroke-dasharray:none;stroke-opacity:1"
       id="rect4516"
       width="44.193771"
       height="44.193771"
       x="677.49005"
       y="601.10944"
       ry="8.2220984" />
    <rect
       ry="8.2220984"
       y="601.10944"
       x="632.36407"
       height="44.193771"
       width="44.193771"
       id="rect4518"
       style="fill:none;stroke:#000000;stroke-width:2;stroke-miterlimit:4;stroke-dasharray:none;stroke-opacity:1" />
    <rect
       style="fill:none;stroke:#000000;stroke-width:2;stroke-miterlimit:4;stroke-dasharray:none;stroke-opacity:1"
       id="rect4520"
       width="44.193771"
       height="44.193771"
       x="587.23798"
       y="601.10944"
       ry="8.2220984" />
    <rect
       ry="8.2220984"
       y="601.10944"
       x="542.11188"
       height="44.193771"
       width="44.193771"
       id="rect4530"
       style="fill:none;stroke:#000000;stroke-width:2;stroke-miterlimit:4;stroke-dasharray:none;stroke-opacity:1" />
    <rect
       style="fill:none;stroke:#000000;stroke-width:2;stroke-miterlimit:4;stroke-dasharray:none;stroke-opacity:1"
       id="rect4532"
       width="44.193771"
       height="44.193771"
       x="406.73373"
       y="601.10944"
       ry="8.2220984" />
    <rect
       style="fill:none;stroke:#000000;stroke-width:2;stroke-miterlimit:4;stroke-dasharray:none;stroke-opacity:1"
       id="rect4536"
       width="44.193771"
       height="44.193771"
       x="451.8598"
       y="601.10944"
       ry="8.2220984" />
    <rect
       ry="8.2220984"
       y="601.10944"
       x="496.98587"
       height="44.193771"
       width="44.193771"
       id="rect4538"
       style="fill:none;stroke:#000000;stroke-width:2;stroke-miterlimit:4;stroke-dasharray:none;stroke-opacity:1" />
    <text
       xml:space="preserve"
       style="font-style:normal;font-weight:normal;font-size:40px;line-height:125%;font-family:sans-serif;letter-spacing:0px;word-spacing:0px;fill:#000000;fill-opacity:1;stroke:none;stroke-width:1px;stroke-linecap:butt;stroke-linejoin:miter;stroke-opacity:1"
       x="367.17673"
       y="545.07874"
       id="text4540"
       sodipodi:linespacing="125%"><tspan
         sodipodi:role="line"
         id="tspan4542"
         x="367.17673"
         y="545.07874">⚠</tspan></text>
    <text
       sodipodi:linespacing="125%"
       id="text4544"
       y="546.08893"
       x="681.33417"
       style="font-style:normal;font-weight:normal;font-size:40px;line-height:125%;font-family:sans-serif;letter-spacing:0px;word-spacing:0px;fill:#000000;fill-opacity:1;stroke:none;stroke-width:1px;stroke-linecap:butt;stroke-linejoin:miter;stroke-opacity:1"
       xml:space="preserve"><tspan
         y="546.08893"
         x="681.33417"
         id="tspan4546"
         sodipodi:role="line">⚠</tspan></text>
    <path
       d="m 553.67469,514.8099 c -1.18095,-4.1e-4 -2.42356,0.17084 -3.73104,0.55238 a 0.75701094,0.75701094 0 0 0 -0.0115,0.004 0.75701094,0.75701094 0 0 0 -0.0395,0.0138 0.75701094,0.75701094 0 0 0 -0.0311,0.0121 0.75701094,0.75701094 0 0 0 -0.0375,0.0174 0.75701094,0.75701094 0 0 0 -0.0306,0.0154 0.75701094,0.75701094 0 0 0 -0.0369,0.0217 0.75701094,0.75701094 0 0 0 -0.0273,0.0175 0.75701094,0.75701094 0 0 0 -0.0347,0.0255 0.75701094,0.75701094 0 0 0 -0.0258,0.0204 0.75701094,0.75701094 0 0 0 -0.0316,0.0284 0.75701094,0.75701094 0 0 0 -0.0237,0.0231 0.75701094,0.75701094 0 0 0 -0.0295,0.0323 0.75701094,0.75701094 0 0 0 -0.0197,0.0233 0.75701094,0.75701094 0 0 0 -0.0273,0.0369 0.75701094,0.75701094 0 0 0 -0.0171,0.0251 0.75701094,0.75701094 0 0 0 -0.0225,0.0376 0.75701094,0.75701094 0 0 0 -0.0154,0.0282 0.75701094,0.75701094 0 0 0 -0.0185,0.0396 0.75701094,0.75701094 0 0 0 -0.0125,0.0292 0.75701094,0.75701094 0 0 0 -0.0142,0.0408 0.75701094,0.75701094 0 0 0 -0.01,0.0308 0.75701094,0.75701094 0 0 0 -0.0136,0.0548 l -1.78432,8.92173 a 0.75701094,0.75701094 0 0 0 0.44823,0.84577 l 6.53604,2.75537 2.51965,12.91963 -9.28606,2.01707 a 0.75701094,0.75701094 0 0 0 -0.59764,0.7296 l -0.0846,6.09354 a 0.75701094,0.75701094 0 0 0 0.98611,0.73199 l 11.67136,-3.73031 1.92225,-0.37269 c 0.0141,2.4e-4 0.0281,10e-4 0.0422,10e-4 0.79335,0 1.54048,-0.37787 2.06226,-0.99384 0.52138,-0.61549 0.79414,-1.4176 0.79335,-2.24394 l 0,-0.002 c 4.1e-4,-0.52385 -0.10933,-1.03886 -0.32233,-1.50246 l -2.01389,-10.40452 10.02235,4.22491 a 0.75701094,0.75701094 0 0 0 0.0124,0.005 0.75701094,0.75701094 0 0 0 0.0434,0.0157 0.75701094,0.75701094 0 0 0 0.0279,0.009 0.75701094,0.75701094 0 0 0 0.0433,0.011 0.75701094,0.75701094 0 0 0 0.0332,0.007 0.75701094,0.75701094 0 0 0 0.0385,0.006 0.75701094,0.75701094 0 0 0 0.0384,0.004 0.75701094,0.75701094 0 0 0 0.0343,0.002 0.75701094,0.75701094 0 0 0 0.043,3.2e-4 0.75701094,0.75701094 0 0 0 0.0289,-8.2e-4 l 6.64624,-0.42074 a 0.75701094,0.75701094 0 0 0 0.63509,-0.43333 l 4.02587,-8.52267 8.2e-4,-10e-4 a 0.75701094,0.75701094 0 0 0 0,-1.6e-4 0.75701094,0.75701094 0 0 0 0.002,-0.004 0.75701094,0.75701094 0 0 0 -0.43906,-1.04682 c -0.62051,-0.34026 -1.25919,-0.57852 -1.90895,-0.72897 l -24.53329,-9.52096 a 0.75701094,0.75701094 0 0 0 -0.0639,-0.0214 c -1.06117,-0.30623 -2.18051,-0.47891 -3.36153,-0.47954 z m -2.09948,1.09352 a 0.75701094,0.75701094 0 0 1 0.2938,0.0574 l 23.16852,9.28573 a 0.75764842,0.75764842 0 0 1 0.45979,0.85981 0.75701094,0.75701094 0 0 0 -0.0563,0.11634 l -0.0666,0.16494 a 0.75764842,0.75764842 0 0 1 -0.89964,0.26584 l -23.16845,-9.28821 a 0.75701094,0.75701094 0 0 1 0.26902,-1.46183 z m 28.47222,10.22897 c 0.35062,0.003 0.69725,0.0405 1.04133,0.11188 l 1.17456,0.4558 -1.88615,3.99335 c 0.0727,-0.32336 0.1098,-0.64401 0.10638,-0.94467 -0.008,-0.69581 -0.23428,-1.27098 -0.62513,-1.55888 -0.39086,-0.2879 -0.93137,-0.2773 -1.46422,0.0199 -0.13148,0.0733 -0.26336,0.16439 -0.39094,0.26893 0.0489,-0.0655 0.0948,-0.13706 0.13443,-0.21411 0.11291,-0.21969 0.17914,-0.47429 0.1769,-0.69964 -0.002,-0.22591 -0.0753,-0.41779 -0.20423,-0.51556 -0.0644,-0.0489 -0.13865,-0.0735 -0.21914,-0.0722 -0.0805,0.001 -0.16749,0.0265 -0.25148,0.0747 -0.1679,0.0966 -0.32512,0.28049 -0.43827,0.50058 -0.11291,0.22025 -0.1793,0.47397 -0.17666,0.6998 0.002,0.22575 0.0753,0.41771 0.20415,0.51556 0.12885,0.0976 0.30264,0.0914 0.47062,-0.005 -0.27221,0.28384 -0.52162,0.62952 -0.7245,1.0136 -0.36719,0.69454 -0.57581,1.49793 -0.56776,2.19374 0.008,0.69581 0.23906,1.27337 0.62999,1.56135 0.39078,0.28799 0.92627,0.27492 1.45905,-0.0223 0.33292,-0.18583 0.66059,-0.47955 0.94905,-0.84323 l -0.67016,1.4184 -5.00025,0.31874 2.96852,-7.36213 c 1.16619,-0.61724 2.25286,-0.91742 3.30399,-0.90841 z m -23.75245,3.0396 1.27608,0.53804 2.3692,11.12049 c -0.23945,-0.0731 -0.4895,-0.11236 -0.74442,-0.11236 -0.21706,0 -0.4303,0.0291 -0.63652,0.0826 l -2.26434,-11.62888 z m 2.97648,1.25489 1.35601,0.57166 1.83276,9.46901 c -0.2177,-0.0598 -0.44336,-0.0921 -0.6731,-0.0921 -0.13092,0 -0.26025,0.0111 -0.38767,0.0311 l -2.12792,-9.97979 z m 2.51559,11.46792 c 0.30782,0 0.65804,0.15761 0.91415,0.45994 0.25619,0.30241 0.43293,0.78809 0.43222,1.25863 a 0.75462041,0.7595609 0 0 0 0,0.002 c 8.1e-4,0.47054 -0.17611,0.95622 -0.43214,1.25863 -0.12152,0.14343 -0.26423,0.25316 -0.41341,0.33005 l -0.4895,0.0948 c 0.16781,-0.42018 0.25371,-0.8767 0.25324,-1.34087 l 0,-0.002 c 3.2e-4,-0.30065 -0.036,-0.59844 -0.10694,-0.88506 a 0.75701094,0.75701094 0 0 0 -0.0154,-0.17906 l -0.21164,-0.99272 c 0.0231,-0.002 0.0465,-0.004 0.0693,-0.004 z m -2.59121,0.34264 c 0.30791,0 0.6582,0.15762 0.91439,0.46003 0.25611,0.3024 0.4327,0.78809 0.43206,1.25863 a 0.75462041,0.7595609 0 0 0 0,0.002 c 8.2e-4,0.47054 -0.17611,0.95623 -0.43214,1.25863 -0.25619,0.30241 -0.6064,0.46011 -0.91439,0.46011 -0.30782,0 -0.65605,-0.15778 -0.91216,-0.46011 -0.2561,-0.30232 -0.43492,-0.78808 -0.43428,-1.25863 a 0.75462041,0.7595609 0 0 0 0,-0.002 c -8.2e-4,-0.47054 0.17818,-0.95623 0.43428,-1.25863 0.25611,-0.30241 0.60434,-0.46003 0.91216,-0.46003 z m -2.74883,0.84387 c -0.0693,0.28368 -0.10486,0.57772 -0.10454,0.87479 l 0,0.002 c -8.2e-4,0.82634 0.27173,1.62853 0.79311,2.24394 0.0668,0.0789 0.13729,0.15379 0.211,0.22448 l -8.65263,2.76548 0.0623,-4.44007 7.69075,-1.67068 z"
       id="path4598"
       inkscape:connector-curvature="0"
       style="fill:#000000;stroke-linecap:round;stroke-linejoin:round" />
    <g
       id="g4779"
       transform="translate(89.398502,45.204327)">
      <path
         sodipodi:nodetypes="ccccccccccccccccccccccccccccccccccccccccccccccccccccccccccccccccccccccccccccc"
         id="path4625"
         d="m 607.86321,514.08039 0,31.87223 -1.41292,0 2.33979,4.44998 2.3398,-4.4499 -1.31958,0 0,-4.86406 2.21779,0 0,-2.78537 -2.21779,0 0,-5.33868 2.21779,0 0,-2.78277 -2.21779,0 0,-5.336 2.21779,0 0,-2.78545 -2.21779,0 0,-5.20648 2.21779,0 0,-2.7735 z m 5.59696,0 0,31.87223 -1.19742,0 2.33995,4.44998 2.3398,-4.4499 -1.35789,0 0,-4.86406 2.04051,0 0,-2.78537 -2.04044,0 0,-5.33868 2.04052,0 0,-2.78277 -2.04044,0 0,-5.336 2.04051,0 0,-2.78545 -2.04044,0 0,-5.20648 2.04052,0 0,-2.7735 -4.1648,0 z m 5.59718,0 0,31.87223 -1.08973,0 2.3398,4.44998 2.34002,-4.4499 -1.42266,0 0,-4.86406 2.26806,0 0,-2.78537 -2.26806,0 0,-5.33868 2.26806,0 0,-2.78277 -2.26806,0 0,-5.336 2.26806,0 0,-2.78545 -2.26806,0 0,-5.20648 2.26806,0 0,-2.7735 -4.43541,0 z m 5.50538,0 0,31.87223 -1.12568,0 2.34233,4.44998 2.33979,-4.4499 -1.43683,0 0,-31.87223 -2.11946,0 z"
         style="fill:#000000"
         inkscape:connector-curvature="0" />
      <text
         sodipodi:linespacing="125%"
         id="text4648"
         y="537.89789"
         x="591.57465"
         style="font-style:normal;font-weight:normal;font-size:21.4563942px;line-height:125%;font-family:sans-serif;letter-spacing:0px;word-spacing:0px;fill:#000000;fill-opacity:1;stroke:none;stroke-width:1px;stroke-linecap:butt;stroke-linejoin:miter;stroke-opacity:1"
         xml:space="preserve"><tspan
           y="537.89789"
           x="591.57465"
           id="tspan4650"
           sodipodi:role="line">A</tspan></text>
    </g>
    <text
       sodipodi:linespacing="125%"
       id="text4652"
       y="188.49489"
       x="276.26294"
       style="font-style:normal;font-weight:normal;font-size:40px;line-height:125%;font-family:sans-serif;letter-spacing:0px;word-spacing:0px;fill:#000000;fill-opacity:1;stroke:none;stroke-width:1px;stroke-linecap:butt;stroke-linejoin:miter;stroke-opacity:1"
       xml:space="preserve"><tspan
         y="188.49489"
         x="276.26294"
         id="tspan4654"
         sodipodi:role="line">⚠</tspan></text>
    <text
       xml:space="preserve"
       style="font-style:normal;font-weight:normal;font-size:40px;line-height:125%;font-family:sans-serif;letter-spacing:0px;word-spacing:0px;fill:#000000;fill-opacity:1;stroke:none;stroke-width:1px;stroke-linecap:butt;stroke-linejoin:miter;stroke-opacity:1"
       x="458.09039"
       y="187.48474"
       id="text4656"
       sodipodi:linespacing="125%"><tspan
         sodipodi:role="line"
         id="tspan4658"
         x="458.09039"
         y="187.48474">⚠</tspan></text>
    <text
       sodipodi:linespacing="125%"
       id="text4660"
       y="188.49489"
       x="592.44067"
       style="font-style:normal;font-weight:normal;font-size:40px;line-height:125%;font-family:sans-serif;letter-spacing:0px;word-spacing:0px;fill:#000000;fill-opacity:1;stroke:none;stroke-width:1px;stroke-linecap:butt;stroke-linejoin:miter;stroke-opacity:1"
       xml:space="preserve"><tspan
         y="188.49489"
         x="592.44067"
         id="tspan4662"
         sodipodi:role="line">⚠</tspan></text>
    <text
       xml:space="preserve"
       style="font-style:normal;font-weight:normal;font-size:40px;line-height:125%;font-family:sans-serif;letter-spacing:0px;word-spacing:0px;fill:#000000;fill-opacity:1;stroke:none;stroke-width:1px;stroke-linecap:butt;stroke-linejoin:miter;stroke-opacity:1"
       x="684.36456"
       y="190.5152"
       id="text4664"
       sodipodi:linespacing="125%"><tspan
         sodipodi:role="line"
         id="tspan4666"
         x="684.36456"
         y="190.5152">⚠</tspan></text>
    <text
       sodipodi:linespacing="125%"
       id="text4668"
       y="279.35767"
       x="685.37469"
       style="font-style:normal;font-weight:normal;font-size:40px;line-height:125%;font-family:sans-serif;letter-spacing:0px;word-spacing:0px;fill:#000000;fill-opacity:1;stroke:none;stroke-width:1px;stroke-linecap:butt;stroke-linejoin:miter;stroke-opacity:1"
       xml:space="preserve"><tspan
         y="279.35767"
         x="685.37469"
         id="tspan4670"
         sodipodi:role="line">⚠</tspan></text>
    <text
       xml:space="preserve"
       style="font-style:normal;font-weight:normal;font-size:40px;line-height:125%;font-family:sans-serif;letter-spacing:0px;word-spacing:0px;fill:#000000;fill-opacity:1;stroke:none;stroke-width:1px;stroke-linecap:butt;stroke-linejoin:miter;stroke-opacity:1"
       x="596.48126"
       y="280.36783"
       id="text4672"
       sodipodi:linespacing="125%"><tspan
         sodipodi:role="line"
         id="tspan4674"
         x="596.48126"
         y="280.36783">⚠</tspan></text>
    <text
       sodipodi:linespacing="125%"
       id="text4676"
       y="280.36783"
       x="551.02441"
       style="font-style:normal;font-weight:normal;font-size:40px;line-height:125%;font-family:sans-serif;letter-spacing:0px;word-spacing:0px;fill:#000000;fill-opacity:1;stroke:none;stroke-width:1px;stroke-linecap:butt;stroke-linejoin:miter;stroke-opacity:1"
       xml:space="preserve"><tspan
         y="280.36783"
         x="551.02441"
         id="tspan4678"
         sodipodi:role="line">⚠</tspan></text>
    <text
       xml:space="preserve"
       style="font-style:normal;font-weight:normal;font-size:40px;line-height:125%;font-family:sans-serif;letter-spacing:0px;word-spacing:0px;fill:#000000;fill-opacity:1;stroke:none;stroke-width:1px;stroke-linecap:butt;stroke-linejoin:miter;stroke-opacity:1"
       x="505.80215"
       y="280.36783"
       id="text4684"
       sodipodi:linespacing="125%"><tspan
         sodipodi:role="line"
         id="tspan4686"
         x="505.80215"
         y="280.36783">⚠</tspan></text>
    <text
       sodipodi:linespacing="125%"
       id="text4688"
       y="280.36783"
       x="459.3736"
       style="font-style:normal;font-weight:normal;font-size:40px;line-height:125%;font-family:sans-serif;letter-spacing:0px;word-spacing:0px;fill:#000000;fill-opacity:1;stroke:none;stroke-width:1px;stroke-linecap:butt;stroke-linejoin:miter;stroke-opacity:1"
       xml:space="preserve"><tspan
         y="280.36783"
         x="459.3736"
         id="tspan4690"
         sodipodi:role="line">⚠</tspan></text>
    <text
       xml:space="preserve"
       style="font-style:normal;font-weight:normal;font-size:40px;line-height:125%;font-family:sans-serif;letter-spacing:0px;word-spacing:0px;fill:#000000;fill-opacity:1;stroke:none;stroke-width:1px;stroke-linecap:butt;stroke-linejoin:miter;stroke-opacity:1"
       x="414.01645"
       y="280.36783"
       id="text4692"
       sodipodi:linespacing="125%"><tspan
         sodipodi:role="line"
         id="tspan4694"
         x="414.01645"
         y="280.36783">⚠</tspan></text>
    <text
       sodipodi:linespacing="125%"
       id="text4696"
       y="280.36783"
       x="370.08789"
       style="font-style:normal;font-weight:normal;font-size:40px;line-height:125%;font-family:sans-serif;letter-spacing:0px;word-spacing:0px;fill:#000000;fill-opacity:1;stroke:none;stroke-width:1px;stroke-linecap:butt;stroke-linejoin:miter;stroke-opacity:1"
       xml:space="preserve"><tspan
         y="280.36783"
         x="370.08789"
         id="tspan4698"
         sodipodi:role="line">⚠</tspan></text>
    <text
       xml:space="preserve"
       style="font-style:normal;font-weight:normal;font-size:40px;line-height:125%;font-family:sans-serif;letter-spacing:0px;word-spacing:0px;fill:#000000;fill-opacity:1;stroke:none;stroke-width:1px;stroke-linecap:butt;stroke-linejoin:miter;stroke-opacity:1"
       x="324.3736"
       y="280.36783"
       id="text4700"
       sodipodi:linespacing="125%"><tspan
         sodipodi:role="line"
         id="tspan4702"
         x="324.3736"
         y="280.36783">⚠</tspan></text>
    <text
       sodipodi:linespacing="125%"
       id="text4704"
       y="280.36783"
       x="279.73074"
       style="font-style:normal;font-weight:normal;font-size:40px;line-height:125%;font-family:sans-serif;letter-spacing:0px;word-spacing:0px;fill:#000000;fill-opacity:1;stroke:none;stroke-width:1px;stroke-linecap:butt;stroke-linejoin:miter;stroke-opacity:1"
       xml:space="preserve"><tspan
         y="280.36783"
         x="279.73074"
         id="tspan4706"
         sodipodi:role="line">⚠</tspan></text>
    <text
       xml:space="preserve"
       style="font-style:normal;font-weight:normal;font-size:40px;line-height:125%;font-family:sans-serif;letter-spacing:0px;word-spacing:0px;fill:#000000;fill-opacity:1;stroke:none;stroke-width:1px;stroke-linecap:butt;stroke-linejoin:miter;stroke-opacity:1"
       x="233.65932"
       y="280.36783"
       id="text4708"
       sodipodi:linespacing="125%"><tspan
         sodipodi:role="line"
         id="tspan4710"
         x="233.65932"
         y="280.36783">⚠</tspan></text>
    <text
       sodipodi:linespacing="125%"
       id="text4712"
       y="280.36783"
       x="190.44504"
       style="font-style:normal;font-weight:normal;font-size:40px;line-height:125%;font-family:sans-serif;letter-spacing:0px;word-spacing:0px;fill:#000000;fill-opacity:1;stroke:none;stroke-width:1px;stroke-linecap:butt;stroke-linejoin:miter;stroke-opacity:1"
       xml:space="preserve"><tspan
         y="280.36783"
         x="190.44504"
         id="tspan4714"
         sodipodi:role="line">⚠</tspan></text>
    <text
       xml:space="preserve"
       style="font-style:normal;font-weight:normal;font-size:40px;line-height:125%;font-family:sans-serif;letter-spacing:0px;word-spacing:0px;fill:#000000;fill-opacity:1;stroke:none;stroke-width:1px;stroke-linecap:butt;stroke-linejoin:miter;stroke-opacity:1"
       x="144.37361"
       y="280.36783"
       id="text4716"
       sodipodi:linespacing="125%"><tspan
         sodipodi:role="line"
         id="tspan4718"
         x="144.37361"
         y="280.36783">⚠</tspan></text>
    <text
       sodipodi:linespacing="125%"
       id="text4720"
       y="280.36783"
       x="99.373611"
       style="font-style:normal;font-weight:normal;font-size:40px;line-height:125%;font-family:sans-serif;letter-spacing:0px;word-spacing:0px;fill:#000000;fill-opacity:1;stroke:none;stroke-width:1px;stroke-linecap:butt;stroke-linejoin:miter;stroke-opacity:1"
       xml:space="preserve"><tspan
         y="280.36783"
         x="99.373611"
         id="tspan4722"
         sodipodi:role="line">⚠</tspan></text>
    <g
       id="g4821">
      <text
         xml:space="preserve"
         style="font-style:normal;font-weight:normal;font-size:23.522892px;line-height:125%;font-family:sans-serif;letter-spacing:0px;word-spacing:0px;fill:#000000;fill-opacity:1;stroke:none;stroke-width:1px;stroke-linecap:butt;stroke-linejoin:miter;stroke-opacity:1"
         x="412.81186"
         y="531.21289"
         id="text4728"
         sodipodi:linespacing="125%"><tspan
           sodipodi:role="line"
           id="tspan4730"
           x="412.81186"
           y="531.21289">🔊</tspan></text>
      <text
         sodipodi:linespacing="125%"
         id="text4732"
         y="548.3855"
         x="424.68115"
         style="font-style:normal;font-weight:normal;font-size:23.522892px;line-height:125%;font-family:sans-serif;letter-spacing:0px;word-spacing:0px;fill:#000000;fill-opacity:1;stroke:none;stroke-width:1px;stroke-linecap:butt;stroke-linejoin:miter;stroke-opacity:1"
         xml:space="preserve"><tspan
           y="548.3855"
           x="424.68115"
           id="tspan4734"
           sodipodi:role="line">🔊</tspan></text>
    </g>
    <g
       id="g4827"
       transform="translate(45.456865,91.574498)">
      <text
         sodipodi:linespacing="125%"
         id="text4548"
         y="533.00684"
         x="637.02802"
         style="font-style:normal;font-weight:normal;font-size:22.4054985px;line-height:125%;font-family:sans-serif;letter-spacing:0px;word-spacing:0px;fill:#000000;fill-opacity:1;stroke:none;stroke-width:1px;stroke-linecap:butt;stroke-linejoin:miter;stroke-opacity:1"
         xml:space="preserve"><tspan
           y="533.00684"
           x="637.02802"
           id="tspan4550"
           sodipodi:role="line">⚠</tspan></text>
      <text
         xml:space="preserve"
         style="font-style:normal;font-weight:normal;font-size:22.4054985px;line-height:125%;font-family:sans-serif;letter-spacing:0px;word-spacing:0px;fill:#000000;fill-opacity:1;stroke:none;stroke-width:1px;stroke-linecap:butt;stroke-linejoin:miter;stroke-opacity:1"
         x="652.20654"
         y="545.50684"
         id="text4736"
         sodipodi:linespacing="125%"><tspan
           sodipodi:role="line"
           id="tspan4738"
           x="652.20654"
           y="545.50684">⚠</tspan></text>
    </g>
    <g
       id="g4784"
       transform="translate(0,0.28901617)">
      <path
         inkscape:connector-curvature="0"
         style="fill:#000000"
         d="m 606.73051,604.49881 0,31.87223 -1.41292,0 2.33979,4.44998 2.3398,-4.4499 -1.31958,0 0,-4.86406 2.21779,0 0,-2.78537 -2.21779,0 0,-5.33868 2.21779,0 0,-2.78277 -2.21779,0 0,-5.336 2.21779,0 0,-2.78545 -2.21779,0 0,-5.20648 2.21779,0 0,-2.7735 z m 5.59696,0 0,31.87223 -1.19742,0 2.33995,4.44998 2.3398,-4.4499 -1.35789,0 0,-4.86406 2.04051,0 0,-2.78537 -2.04044,0 0,-5.33868 2.04052,0 0,-2.78277 -2.04044,0 0,-5.336 2.04051,0 0,-2.78545 -2.04044,0 0,-5.20648 2.04052,0 0,-2.7735 -4.1648,0 z m 5.59718,0 0,31.87223 -1.08973,0 2.3398,4.44998 2.34002,-4.4499 -1.42266,0 0,-4.86406 2.26806,0 0,-2.78537 -2.26806,0 0,-5.33868 2.26806,0 0,-2.78277 -2.26806,0 0,-5.336 2.26806,0 0,-2.78545 -2.26806,0 0,-5.20648 2.26806,0 0,-2.7735 -4.43541,0 z m 5.50538,0 0,31.87223 -1.12568,0 2.34233,4.44998 2.33979,-4.4499 -1.43683,0 0,-31.87223 -2.11946,0 z"
         id="path4740"
         sodipodi:nodetypes="ccccccccccccccccccccccccccccccccccccccccccccccccccccccccccccccccccccccccccccc" />
      <text
         xml:space="preserve"
         style="font-style:normal;font-weight:normal;font-size:21.4563942px;line-height:125%;font-family:sans-serif;letter-spacing:0px;word-spacing:0px;fill:#000000;fill-opacity:1;stroke:none;stroke-width:1px;stroke-linecap:butt;stroke-linejoin:miter;stroke-opacity:1"
         x="590.44196"
         y="628.31635"
         id="text4742"
         sodipodi:linespacing="125%"><tspan
           sodipodi:role="line"
           id="tspan4744"
           x="590.44196"
           y="628.31635">B</tspan></text>
      <text
         sodipodi:linespacing="125%"
         id="text4748"
         y="628.31635"
         x="590.44196"
         style="font-style:normal;font-weight:normal;font-size:21.4563942px;line-height:125%;font-family:sans-serif;letter-spacing:0px;word-spacing:0px;fill:#000000;fill-opacity:1;stroke:none;stroke-width:1px;stroke-linecap:butt;stroke-linejoin:miter;stroke-opacity:1"
         xml:space="preserve"><tspan
           y="628.31635"
           x="590.44196"
           id="tspan4750"
           sodipodi:role="line">B</tspan></text>
    </g>
    <path
       inkscape:connector-curvature="0"
       style="fill:#000000"
       d="m 457.55965,513.82863 0,10.59653 1.41287,0 0,-10.59653 -1.41287,0 z m 20.09418,0 0,10.59653 1.41287,0 0,-10.59653 -1.41287,0 z m -16.32652,7.50423 0,3.0923 1.41287,0 0,-3.0923 -1.41287,0 z m 20.09418,0 0,3.0923 1.41287,0 0,-3.0923 -1.41287,0 z m -24.96074,4.50518 0,7.79198 1.25588,1.25589 0,14.65698 8.63423,0 0,-14.65698 1.25588,-1.25589 0,-7.79198 -11.14599,0 z m 20.09418,0 0,7.79198 1.25589,1.25589 0,14.65698 8.63421,0 0,-14.65698 1.25589,-1.25589 0,-7.79198 -11.14599,0 z m -7.53532,0.54945 0,6.27942 1.2898,0 0,-6.27942 -1.2898,0 z m 20.09418,0 0,6.27942 1.2898,0 0,-6.27942 -1.2898,0 z m -30.84771,0.54945 7.53533,0 0,1.41287 -7.53533,0 0,-1.41287 z m 20.09419,0 7.53532,0 0,1.41287 -7.53532,0 0,-1.41287 z m -20.09419,2.51177 7.53533,0 0,1.41287 -7.53533,0 0,-1.41287 z m 20.09419,0 7.53532,0 0,1.41287 -7.53532,0 0,-1.41287 z m -20.09419,2.51177 7.53533,0 0,1.41288 -7.53533,0 0,-1.41288 z m 20.09419,0 7.53532,0 0,1.41288 -7.53532,0 0,-1.41288 z m -17.58241,3.21821 a 1.8838294,1.8838294 0 0 1 1.88383,1.88383 1.8838294,1.8838294 0 0 1 -1.88383,1.88383 1.8838294,1.8838294 0 0 1 -1.88383,-1.88383 1.8838294,1.8838294 0 0 1 1.88383,-1.88383 z m 20.09418,0 a 1.8838294,1.8838294 0 0 1 1.88383,1.88383 1.8838294,1.8838294 0 0 1 -1.88383,1.88383 1.8838294,1.8838294 0 0 1 -1.88383,-1.88383 1.8838294,1.8838294 0 0 1 1.88383,-1.88383 z"
       id="path4756" />
    <g
       id="g4808"
       transform="translate(43.941636,0.28901617)">
      <path
         sodipodi:nodetypes="ccccccccccccccccccccccccccccccccccccccccccccccccccccccccccccccccccccccccccccc"
         id="path4793"
         d="m 515.30194,604.49881 0,31.87223 -1.41292,0 2.33979,4.44998 2.3398,-4.4499 -1.31958,0 0,-4.86406 2.21779,0 0,-2.78537 -2.21779,0 0,-5.33868 2.21779,0 0,-2.78277 -2.21779,0 0,-5.336 2.21779,0 0,-2.78545 -2.21779,0 0,-5.20648 2.21779,0 0,-2.7735 z m 5.59696,0 0,31.87223 -1.19742,0 2.33995,4.44998 2.3398,-4.4499 -1.35789,0 0,-4.86406 2.04051,0 0,-2.78537 -2.04044,0 0,-5.33868 2.04052,0 0,-2.78277 -2.04044,0 0,-5.336 2.04051,0 0,-2.78545 -2.04044,0 0,-5.20648 2.04052,0 0,-2.7735 -4.1648,0 z m 5.59718,0 0,31.87223 -1.08973,0 2.3398,4.44998 2.34002,-4.4499 -1.42266,0 0,-4.86406 2.26806,0 0,-2.78537 -2.26806,0 0,-5.33868 2.26806,0 0,-2.78277 -2.26806,0 0,-5.336 2.26806,0 0,-2.78545 -2.26806,0 0,-5.20648 2.26806,0 0,-2.7735 -4.43541,0 z m 5.50538,0 0,31.87223 -1.12568,0 2.34233,4.44998 2.33979,-4.4499 -1.43683,0 0,-31.87223 -2.11946,0 z"
         style="fill:#000000"
         inkscape:connector-curvature="0" />
      <text
         xml:space="preserve"
         style="font-style:normal;font-weight:normal;font-size:21.4563942px;line-height:125%;font-family:sans-serif;letter-spacing:0px;word-spacing:0px;fill:#000000;fill-opacity:1;stroke:none;stroke-width:1px;stroke-linecap:butt;stroke-linejoin:miter;stroke-opacity:1"
         x="498.76086"
         y="630.45984"
         id="text4799"
         sodipodi:linespacing="125%"><tspan
           sodipodi:role="line"
           id="tspan4801"
           x="498.76086"
           y="630.45984">C</tspan></text>
    </g>
    <g
       id="g4813"
       transform="translate(-1.5152313,1.2991687)">
      <path
         inkscape:connector-curvature="0"
         style="fill:#000000"
         d="m 515.30194,604.49881 0,31.87223 -1.41292,0 2.33979,4.44998 2.3398,-4.4499 -1.31958,0 0,-4.86406 2.21779,0 0,-2.78537 -2.21779,0 0,-5.33868 2.21779,0 0,-2.78277 -2.21779,0 0,-5.336 2.21779,0 0,-2.78545 -2.21779,0 0,-5.20648 2.21779,0 0,-2.7735 z m 5.59696,0 0,31.87223 -1.19742,0 2.33995,4.44998 2.3398,-4.4499 -1.35789,0 0,-4.86406 2.04051,0 0,-2.78537 -2.04044,0 0,-5.33868 2.04052,0 0,-2.78277 -2.04044,0 0,-5.336 2.04051,0 0,-2.78545 -2.04044,0 0,-5.20648 2.04052,0 0,-2.7735 -4.1648,0 z m 5.59718,0 0,31.87223 -1.08973,0 2.3398,4.44998 2.34002,-4.4499 -1.42266,0 0,-4.86406 2.26806,0 0,-2.78537 -2.26806,0 0,-5.33868 2.26806,0 0,-2.78277 -2.26806,0 0,-5.336 2.26806,0 0,-2.78545 -2.26806,0 0,-5.20648 2.26806,0 0,-2.7735 -4.43541,0 z m 5.50538,0 0,31.87223 -1.12568,0 2.34233,4.44998 2.33979,-4.4499 -1.43683,0 0,-31.87223 -2.11946,0 z"
         id="path4815"
         sodipodi:nodetypes="ccccccccccccccccccccccccccccccccccccccccccccccccccccccccccccccccccccccccccccc" />
      <text
         sodipodi:linespacing="125%"
         id="text4817"
         y="630.45984"
         x="498.76086"
         style="font-style:normal;font-weight:normal;font-size:21.4563942px;line-height:125%;font-family:sans-serif;letter-spacing:0px;word-spacing:0px;fill:#000000;fill-opacity:1;stroke:none;stroke-width:1px;stroke-linecap:butt;stroke-linejoin:miter;stroke-opacity:1"
         xml:space="preserve"><tspan
           y="630.45984"
           x="498.76086"
           id="tspan4819"
           sodipodi:role="line">D</tspan></text>
    </g>
    <path
       id="path4833"
       d="m 638.88203,514.83878 0,10.59653 1.41287,0 0,-10.59653 -1.41287,0 z m 20.09418,0 0,10.59653 1.41287,0 0,-10.59653 -1.41287,0 z m -16.32652,7.50423 0,3.0923 1.41287,0 0,-3.0923 -1.41287,0 z m 20.09418,0 0,3.0923 1.41287,0 0,-3.0923 -1.41287,0 z m -24.96074,4.50518 0,7.79198 1.25588,1.25589 0,14.65698 8.63423,0 0,-14.65698 1.25588,-1.25589 0,-7.79198 -11.14599,0 z m 20.09418,0 0,7.79198 1.25589,1.25589 0,14.65698 8.63421,0 0,-14.65698 1.25589,-1.25589 0,-7.79198 -11.14599,0 z m -7.53532,0.54945 0,6.27942 1.2898,0 0,-6.27942 -1.2898,0 z m 20.09418,0 0,6.27942 1.2898,0 0,-6.27942 -1.2898,0 z m -30.84771,0.54945 7.53533,0 0,1.41287 -7.53533,0 0,-1.41287 z m 20.09419,0 7.53532,0 0,1.41287 -7.53532,0 0,-1.41287 z m -20.09419,2.51177 7.53533,0 0,1.41287 -7.53533,0 0,-1.41287 z m 20.09419,0 7.53532,0 0,1.41287 -7.53532,0 0,-1.41287 z m -20.09419,2.51177 7.53533,0 0,1.41288 -7.53533,0 0,-1.41288 z m 20.09419,0 7.53532,0 0,1.41288 -7.53532,0 0,-1.41288 z m -17.58241,3.21821 a 1.8838294,1.8838294 0 0 1 1.88383,1.88383 1.8838294,1.8838294 0 0 1 -1.88383,1.88383 1.8838294,1.8838294 0 0 1 -1.88383,-1.88383 1.8838294,1.8838294 0 0 1 1.88383,-1.88383 z m 20.09418,0 a 1.8838294,1.8838294 0 0 1 1.88383,1.88383 1.8838294,1.8838294 0 0 1 -1.88383,1.88383 1.8838294,1.8838294 0 0 1 -1.88383,-1.88383 1.8838294,1.8838294 0 0 1 1.88383,-1.88383 z"
       style="fill:#000000"
       inkscape:connector-curvature="0" />
    <path
       style="fill:#000000;stroke-linecap:round;stroke-linejoin:round"
       inkscape:connector-curvature="0"
       id="path4835"
       d="m 644.08334,604.85868 c -1.18095,-4.1e-4 -2.42356,0.17084 -3.73104,0.55238 a 0.75701094,0.75701094 0 0 0 -0.0115,0.004 0.75701094,0.75701094 0 0 0 -0.0395,0.0138 0.75701094,0.75701094 0 0 0 -0.0311,0.0121 0.75701094,0.75701094 0 0 0 -0.0375,0.0174 0.75701094,0.75701094 0 0 0 -0.0306,0.0154 0.75701094,0.75701094 0 0 0 -0.0369,0.0217 0.75701094,0.75701094 0 0 0 -0.0273,0.0175 0.75701094,0.75701094 0 0 0 -0.0347,0.0255 0.75701094,0.75701094 0 0 0 -0.0258,0.0204 0.75701094,0.75701094 0 0 0 -0.0316,0.0284 0.75701094,0.75701094 0 0 0 -0.0237,0.0231 0.75701094,0.75701094 0 0 0 -0.0295,0.0323 0.75701094,0.75701094 0 0 0 -0.0197,0.0233 0.75701094,0.75701094 0 0 0 -0.0273,0.0369 0.75701094,0.75701094 0 0 0 -0.0171,0.0251 0.75701094,0.75701094 0 0 0 -0.0225,0.0376 0.75701094,0.75701094 0 0 0 -0.0154,0.0282 0.75701094,0.75701094 0 0 0 -0.0185,0.0396 0.75701094,0.75701094 0 0 0 -0.0125,0.0292 0.75701094,0.75701094 0 0 0 -0.0142,0.0408 0.75701094,0.75701094 0 0 0 -0.01,0.0308 0.75701094,0.75701094 0 0 0 -0.0136,0.0548 l -1.78432,8.92173 a 0.75701094,0.75701094 0 0 0 0.44823,0.84577 l 6.53604,2.75537 2.51965,12.91963 -9.28606,2.01707 a 0.75701094,0.75701094 0 0 0 -0.59764,0.7296 l -0.0846,6.09354 a 0.75701094,0.75701094 0 0 0 0.98611,0.73199 l 11.67136,-3.73031 1.92225,-0.37269 c 0.0141,2.4e-4 0.0281,10e-4 0.0422,10e-4 0.79335,0 1.54048,-0.37787 2.06226,-0.99384 0.52138,-0.61549 0.79414,-1.4176 0.79335,-2.24394 l 0,-0.002 c 4.1e-4,-0.52385 -0.10933,-1.03886 -0.32233,-1.50246 l -2.01389,-10.40452 10.02235,4.22491 a 0.75701094,0.75701094 0 0 0 0.0124,0.005 0.75701094,0.75701094 0 0 0 0.0434,0.0157 0.75701094,0.75701094 0 0 0 0.0279,0.009 0.75701094,0.75701094 0 0 0 0.0433,0.011 0.75701094,0.75701094 0 0 0 0.0332,0.007 0.75701094,0.75701094 0 0 0 0.0385,0.006 0.75701094,0.75701094 0 0 0 0.0384,0.004 0.75701094,0.75701094 0 0 0 0.0343,0.002 0.75701094,0.75701094 0 0 0 0.043,3.2e-4 0.75701094,0.75701094 0 0 0 0.0289,-8.2e-4 l 6.64624,-0.42074 a 0.75701094,0.75701094 0 0 0 0.63509,-0.43333 l 4.02587,-8.52267 8.2e-4,-0.001 a 0.75701094,0.75701094 0 0 0 0,-1.6e-4 0.75701094,0.75701094 0 0 0 0.002,-0.004 0.75701094,0.75701094 0 0 0 -0.43906,-1.04682 c -0.62051,-0.34026 -1.25919,-0.57852 -1.90895,-0.72897 l -24.53329,-9.52096 a 0.75701094,0.75701094 0 0 0 -0.0639,-0.0214 c -1.06117,-0.30623 -2.18051,-0.47891 -3.36153,-0.47954 z m -2.09948,1.09352 a 0.75701094,0.75701094 0 0 1 0.2938,0.0574 l 23.16852,9.28573 a 0.75764842,0.75764842 0 0 1 0.45979,0.85981 0.75701094,0.75701094 0 0 0 -0.0563,0.11634 l -0.0666,0.16494 a 0.75764842,0.75764842 0 0 1 -0.89964,0.26584 l -23.16845,-9.28821 a 0.75701094,0.75701094 0 0 1 0.26902,-1.46183 z m 28.47222,10.22897 c 0.35062,0.003 0.69725,0.0405 1.04133,0.11188 l 1.17456,0.4558 -1.88615,3.99335 c 0.0727,-0.32336 0.1098,-0.64401 0.10638,-0.94467 -0.008,-0.69581 -0.23428,-1.27098 -0.62513,-1.55888 -0.39086,-0.2879 -0.93137,-0.2773 -1.46422,0.0199 -0.13148,0.0733 -0.26336,0.16439 -0.39094,0.26893 0.0489,-0.0655 0.0948,-0.13706 0.13443,-0.21411 0.11291,-0.21969 0.17914,-0.47429 0.1769,-0.69964 -0.002,-0.22591 -0.0753,-0.41779 -0.20423,-0.51556 -0.0644,-0.0489 -0.13865,-0.0735 -0.21914,-0.0722 -0.0805,10e-4 -0.16749,0.0265 -0.25148,0.0747 -0.1679,0.0966 -0.32512,0.28049 -0.43827,0.50058 -0.11291,0.22025 -0.1793,0.47397 -0.17666,0.6998 0.002,0.22575 0.0753,0.41771 0.20415,0.51556 0.12885,0.0976 0.30264,0.0914 0.47062,-0.005 -0.27221,0.28384 -0.52162,0.62952 -0.7245,1.0136 -0.36719,0.69454 -0.57581,1.49793 -0.56776,2.19374 0.008,0.69581 0.23906,1.27337 0.62999,1.56135 0.39078,0.28799 0.92627,0.27492 1.45905,-0.0223 0.33292,-0.18583 0.66059,-0.47955 0.94905,-0.84323 l -0.67016,1.4184 -5.00025,0.31874 2.96852,-7.36213 c 1.16619,-0.61724 2.25286,-0.91742 3.30399,-0.90841 z m -23.75245,3.0396 1.27608,0.53804 2.3692,11.12049 c -0.23945,-0.0731 -0.4895,-0.11236 -0.74442,-0.11236 -0.21706,0 -0.4303,0.0291 -0.63652,0.0826 l -2.26434,-11.62888 z m 2.97648,1.25489 1.35601,0.57166 1.83276,9.46901 c -0.2177,-0.0598 -0.44336,-0.0921 -0.6731,-0.0921 -0.13092,0 -0.26025,0.0111 -0.38767,0.0311 l -2.12792,-9.97979 z m 2.51559,11.46792 c 0.30782,0 0.65804,0.15761 0.91415,0.45994 0.25619,0.30241 0.43293,0.78809 0.43222,1.25863 a 0.75462041,0.7595609 0 0 0 0,0.002 c 8.1e-4,0.47054 -0.17611,0.95622 -0.43214,1.25863 -0.12152,0.14343 -0.26423,0.25316 -0.41341,0.33005 l -0.4895,0.0948 c 0.16781,-0.42018 0.25371,-0.8767 0.25324,-1.34087 l 0,-0.002 c 3.2e-4,-0.30065 -0.036,-0.59844 -0.10694,-0.88506 a 0.75701094,0.75701094 0 0 0 -0.0154,-0.17906 l -0.21164,-0.99272 c 0.0231,-0.002 0.0465,-0.004 0.0693,-0.004 z m -2.59121,0.34264 c 0.30791,0 0.6582,0.15762 0.91439,0.46003 0.25611,0.3024 0.4327,0.78809 0.43206,1.25863 a 0.75462041,0.7595609 0 0 0 0,0.002 c 8.2e-4,0.47054 -0.17611,0.95623 -0.43214,1.25863 -0.25619,0.30241 -0.6064,0.46011 -0.91439,0.46011 -0.30782,0 -0.65605,-0.15778 -0.91216,-0.46011 -0.2561,-0.30232 -0.43492,-0.78808 -0.43428,-1.25863 a 0.75462041,0.7595609 0 0 0 0,-0.002 c -8.2e-4,-0.47054 0.17818,-0.95623 0.43428,-1.25863 0.25611,-0.30241 0.60434,-0.46003 0.91216,-0.46003 z m -2.74883,0.84387 c -0.0693,0.28368 -0.10486,0.57772 -0.10454,0.87479 l 0,0.002 c -8.2e-4,0.82634 0.27173,1.62853 0.79311,2.24394 0.0668,0.0789 0.13729,0.15379 0.211,0.22448 l -8.65263,2.76548 0.0623,-4.44007 7.69075,-1.67068 z" />
    <path
       inkscape:connector-curvature="0"
       style="fill:#000000"
       d="m 429.07352,604.95554 c -6.19471,-0.0106 -12.22445,3.19949 -15.54409,8.94926 -3.36255,5.8242 -3.07634,12.75291 0.1457,18.14255 -1.98693,-5.03034 -1.53004,-11.40375 1.73388,-17.05713 3.26594,-5.65677 8.56274,-9.24074 13.91592,-10.03227 -0.0838,-0.002 -0.16766,-0.002 -0.25141,-0.002 z m -0.0118,4.01778 c -4.80381,-0.008 -9.47847,2.48142 -12.05281,6.94014 -2.60719,4.51609 -2.38736,9.88694 0.11052,14.06636 -1.53952,-3.90049 -1.18413,-8.84227 1.34623,-13.22513 2.53186,-4.38543 6.63655,-7.16419 10.7865,-7.77919 -0.0634,-8e-4 -0.12706,-0.002 -0.19037,-0.002 z m -0.0987,3.26806 c -3.6378,0.0281 -7.1687,1.92543 -9.11594,5.29799 -2.92356,5.06395 -1.18263,11.55848 3.8814,14.48212 5.06395,2.92387 11.55848,1.18503 14.48212,-3.87884 2.92386,-5.06402 1.18263,-11.56089 -3.88124,-14.48453 -1.58246,-0.91347 -3.3043,-1.37073 -5.01373,-1.41419 -0.11759,-0.003 -0.23518,-0.003 -0.35261,-0.002 z m -0.0328,1.39787 -0.047,2.21339 c -1.14969,0.0122 -2.2821,0.30697 -3.28925,0.85979 l -1.12549,-1.86303 c 1.35931,-0.77551 2.89725,-1.19301 4.46166,-1.21008 z m 15.44538,0.009 c 1.99008,5.03139 1.53395,11.40826 -1.73147,17.06427 -3.26204,5.65 -8.55042,9.23262 -13.89713,10.02979 6.27515,0.092 12.41361,-3.12566 15.77437,-8.94677 3.36339,-5.82563 3.07875,-12.75683 -0.14585,-18.14722 z m -12.85149,0.33832 c 0.71875,0.20374 1.42547,0.49711 2.10288,0.88813 0.70491,0.40697 1.33471,0.89333 1.88649,1.44013 l -1.6399,1.57178 c -0.42042,-0.41922 -0.90167,-0.79092 -1.4402,-1.10181 -0.46486,-0.2684 -0.94806,-0.47816 -1.44029,-0.62965 l 0.5311,-2.16858 z m 9.40254,1.72695 c 1.54373,3.90177 1.1909,8.84813 -1.34157,13.23446 -2.5284,4.37926 -6.62588,7.15666 -10.76996,7.77678 4.86449,0.0695 9.6214,-2.42555 12.22664,-6.93789 2.60869,-4.5185 2.38645,-9.8931 -0.11504,-14.07351 z m -18.52088,0.74003 1.49885,1.5623 c -0.37087,0.39065 -0.70318,0.831 -0.98445,1.31796 -0.30426,0.52702 -0.52928,1.07707 -0.68371,1.63763 l -2.09332,-0.51448 c 0.2045,-0.75807 0.50929,-1.50276 0.92099,-2.21564 0.38246,-0.66266 0.83453,-1.26044 1.34149,-1.78785 z m 14.67948,1.94295 c 0.74935,1.35946 1.14654,2.89124 1.14654,4.44519 l -2.31654,-0.0494 c -0.005,-1.11722 -0.2778,-2.21827 -0.79416,-3.20693 l 1.96416,-1.18886 z m -17.2569,4.63781 2.16377,0.047 c 0.0443,1.1291 0.36298,2.2355 0.92805,3.21633 l -1.86784,1.13023 c -0.76912,-1.33788 -1.1909,-2.85229 -1.22398,-4.39355 z m 15.78369,1.82093 2.25068,0.55199 c -0.203,0.69469 -0.49095,1.37713 -0.86927,2.03236 -0.40674,0.70446 -0.89167,1.33524 -1.43788,1.88663 l -1.60003,-1.66816 c 0.38831,-0.4017 0.73476,-0.85693 1.02676,-1.36269 0.26871,-0.46538 0.47817,-0.94731 0.62967,-1.44021 z m -11.3809,3.0825 c 0.37042,0.34058 0.78415,0.6447 1.23826,0.90671 0.52681,0.30434 1.077,0.53185 1.63749,0.68612 l -0.53335,2.17324 c -0.73258,-0.20427 -1.45283,-0.50147 -2.14271,-0.89979 -0.66282,-0.38268 -1.26037,-0.83453 -1.78786,-1.34156 l 1.58817,-1.52472 z m 8.07743,0.97964 1.18894,1.96649 c -1.33727,0.74243 -2.84236,1.14 -4.37234,1.15593 l 0.047,-2.26481 c 1.09692,-0.0357 2.17384,-0.32915 3.13649,-0.85754 z"
       id="path4986" />
    <path
       id="path5009"
       d="m 473.71638,604.95554 c -6.19471,-0.0106 -12.22445,3.19949 -15.54409,8.94926 -3.36255,5.8242 -3.07634,12.75291 0.1457,18.14255 -1.98693,-5.03034 -1.53004,-11.40375 1.73388,-17.05713 3.26594,-5.65677 8.56274,-9.24074 13.91592,-10.03227 -0.0838,-0.002 -0.16766,-0.002 -0.25141,-0.002 z m -0.0118,4.01778 c -4.80381,-0.008 -9.47847,2.48142 -12.05281,6.94014 -2.60719,4.51609 -2.38736,9.88694 0.11052,14.06636 -1.53952,-3.90049 -1.18413,-8.84227 1.34623,-13.22513 2.53186,-4.38543 6.63655,-7.16419 10.7865,-7.77919 -0.0634,-8e-4 -0.12706,-0.002 -0.19037,-0.002 z m -0.0987,3.26806 c -3.6378,0.0281 -7.1687,1.92543 -9.11594,5.29799 -2.92356,5.06395 -1.18263,11.55848 3.8814,14.48212 5.06395,2.92387 11.55848,1.18503 14.48212,-3.87884 2.92386,-5.06402 1.18263,-11.56089 -3.88124,-14.48453 -1.58246,-0.91347 -3.3043,-1.37073 -5.01373,-1.41419 -0.11759,-0.003 -0.23518,-0.003 -0.35261,-0.002 z m -0.0328,1.39787 -0.047,2.21339 c -1.14969,0.0122 -2.2821,0.30697 -3.28925,0.85979 l -1.12549,-1.86303 c 1.35931,-0.77551 2.89725,-1.19301 4.46166,-1.21008 z m 15.44538,0.009 c 1.99008,5.03139 1.53395,11.40826 -1.73147,17.06427 -3.26204,5.65 -8.55042,9.23262 -13.89713,10.02979 6.27515,0.092 12.41361,-3.12566 15.77437,-8.94677 3.36339,-5.82563 3.07875,-12.75683 -0.14585,-18.14722 z m -12.85149,0.33832 c 0.71875,0.20374 1.42547,0.49711 2.10288,0.88813 0.70491,0.40697 1.33471,0.89333 1.88649,1.44013 l -1.6399,1.57178 c -0.42042,-0.41922 -0.90167,-0.79092 -1.4402,-1.10181 -0.46486,-0.2684 -0.94806,-0.47816 -1.44029,-0.62965 l 0.5311,-2.16858 z m 9.40254,1.72695 c 1.54373,3.90177 1.1909,8.84813 -1.34157,13.23446 -2.5284,4.37926 -6.62588,7.15666 -10.76996,7.77678 4.86449,0.0695 9.6214,-2.42555 12.22664,-6.93789 2.60869,-4.5185 2.38645,-9.8931 -0.11504,-14.07351 z m -18.52088,0.74003 1.49885,1.5623 c -0.37087,0.39065 -0.70318,0.831 -0.98445,1.31796 -0.30426,0.52702 -0.52928,1.07707 -0.68371,1.63763 l -2.09332,-0.51448 c 0.2045,-0.75807 0.50929,-1.50276 0.92099,-2.21564 0.38246,-0.66266 0.83453,-1.26044 1.34149,-1.78785 z m 14.67948,1.94295 c 0.74935,1.35946 1.14654,2.89124 1.14654,4.44519 l -2.31654,-0.0494 c -0.005,-1.11722 -0.2778,-2.21827 -0.79416,-3.20693 l 1.96416,-1.18886 z m -17.2569,4.63781 2.16377,0.047 c 0.0443,1.1291 0.36298,2.2355 0.92805,3.21633 l -1.86784,1.13023 c -0.76912,-1.33788 -1.1909,-2.85229 -1.22398,-4.39355 z m 15.78369,1.82093 2.25068,0.55199 c -0.203,0.69469 -0.49095,1.37713 -0.86927,2.03236 -0.40674,0.70446 -0.89167,1.33524 -1.43788,1.88663 l -1.60003,-1.66816 c 0.38831,-0.4017 0.73476,-0.85693 1.02676,-1.36269 0.26871,-0.46538 0.47817,-0.94731 0.62967,-1.44021 z m -11.3809,3.0825 c 0.37042,0.34058 0.78415,0.6447 1.23826,0.90671 0.52681,0.30434 1.077,0.53185 1.63749,0.68612 l -0.53335,2.17324 c -0.73258,-0.20427 -1.45283,-0.50147 -2.14271,-0.89979 -0.66282,-0.38268 -1.26037,-0.83453 -1.78786,-1.34156 l 1.58817,-1.52472 z m 8.07743,0.97964 1.18894,1.96649 c -1.33727,0.74243 -2.84236,1.14 -4.37234,1.15593 l 0.047,-2.26481 c 1.09692,-0.0357 2.17384,-0.32915 3.13649,-0.85754 z"
       style="fill:#000000"
       inkscape:connector-curvature="0" />
  </g>
</svg>
