<?xml version="1.0" encoding="UTF-8" standalone="no"?>
<svg
   xmlns:dc="http://purl.org/dc/elements/1.1/"
   xmlns:cc="http://creativecommons.org/ns#"
   xmlns:rdf="http://www.w3.org/1999/02/22-rdf-syntax-ns#"
   xmlns:svg="http://www.w3.org/2000/svg"
   xmlns="http://www.w3.org/2000/svg"
   xmlns:sodipodi="http://sodipodi.sourceforge.net/DTD/sodipodi-0.dtd"
   xmlns:inkscape="http://www.inkscape.org/namespaces/inkscape"
   width="450"
   height="325"
   viewBox="0 0 450.00001 325"
   id="svg5199"
   version="1.1"
   inkscape:version="1.0 (4035a4fb49, 2020-05-01)"
   sodipodi:docname="are-those-new-locks.svg">
  <defs
     id="defs5201" />
  <sodipodi:namedview
     id="base"
     pagecolor="#ffffff"
     bordercolor="#666666"
     borderopacity="1.0"
     inkscape:pageopacity="0.0"
     inkscape:pageshadow="2"
     inkscape:zoom="2.8"
     inkscape:cx="273.16957"
     inkscape:cy="248.73565"
     inkscape:document-units="px"
     inkscape:current-layer="layer1"
     showgrid="false"
     units="px"
     borderlayer="true"
     inkscape:window-width="1920"
     inkscape:window-height="1017"
     inkscape:window-x="-8"
     inkscape:window-y="-8"
     inkscape:window-maximized="1"
     inkscape:document-rotation="0" />
  <metadata
     id="metadata5204">
    <rdf:RDF>
      <cc:Work
         rdf:about="">
        <dc:format>image/svg+xml</dc:format>
        <dc:type
           rdf:resource="http://purl.org/dc/dcmitype/StillImage" />
        <dc:title />
      </cc:Work>
    </rdf:RDF>
  </metadata>
  <g
     inkscape:label="Layer 1"
     inkscape:groupmode="layer"
     id="layer1"
     transform="translate(0,-727.36216)">
    <circle
       r="53.02021"
       cy="899.06299"
       cx="58.699631"
       id="circle4163-4"
       style="fill:#000000;stroke:none;stroke-width:8.57782;stroke-miterlimit:4;stroke-dasharray:none;stroke-opacity:1" />
    <g
       id="g1778"
       transform="matrix(0.61122867,0,0,0.61122867,161.46309,133.2614)"
       style="stroke-width:1.63605">
      <path
         sodipodi:nodetypes="sssssssccscsssscccscsscsssssssccsscsss"
         id="path1040"
         d="m 77.03256,1458.0721 c -45.8691,-0.6209 -51.38277,-0.9801 -64.16,-4.1796 -20.7822995,-5.2041 -34.04373,-16.3537 -39.17281,-32.9348 -1.69301,-5.4731 -2.30394,-9.9712 -2.49981,-18.4059 -0.24928,-10.7349 0.45093,-17.2691 2.97882,-27.7979 2.15912,-8.9928 6.25443,-21.7807 10.57113,-33.0091 12.8826005,-33.5095 34.44964,-64.3756 62.04629,-88.7989 2.81401,-2.4904 5.43996,-4.968 5.83545,-5.5058 6.365866,-10.8867 -0.348321,-25.7693 -3.14854,-30.7643 -2.47357,-4.3543 -6.39262,-9.8183 -12.32433,-17.1829 -2.62141,-3.2546 -5.49727,-6.8953 -6.39081,-8.0903 -4.02979,-5.3896 -7.05141,-13.2927 -9.11815,-23.8487 -0.37904,-1.936 -1.39299,-6.0968 -2.25321,-9.2464 -1.91952,-7.0279 -2.01528,-8.7546 -0.59435,-10.7161 1.70457,-2.3531 4.11896,-3.2952 6.67849,-2.606 1.64008,0.4416 3.17792,1.7699 4.99126,4.311 2.38097,3.3367 2.00237,3.1847 8.10059,3.251 4.21045,0.046 7.7429,0.3667 16.69998,1.5172 25.33601,3.2545 27.89169,3.0902 41.76,-2.6837 9.86237,-4.1061 14.26806,-5.2229 20.48001,-5.1914 7.59931,0.038 14.67249,2.4283 22.24,7.5142 1.672,1.1237 5.488,3.6957 8.48,5.7157 2.992,2.02 6.304,4.0071 7.36,4.4158 3.9551,1.531 8.04878,1.1701 16.16,-1.4247 5.10349,-1.6326 8.13075,-2.0554 10.11472,-1.4127 1.86346,0.6037 4.98134,3.045 5.80528,4.5456 1.12789,2.054 0.96834,4.0085 -0.76005,9.3104 -0.81403,2.4971 -1.90956,5.4041 -2.43452,6.4601 -2.82958,5.692 -9.31621,12.1611 -22.64543,22.5844 -2.376,1.858 -7.28704,5.6996 -10.91342,8.5369 -3.62639,2.8372 -7.22639,5.9237 -8,6.8587 -11.39476,16.534 -3.16453,21.5811 6.21798,30.6804 18.07076,17.4862 39.3828,44.1078 52.11571,65.0996 8.22395,13.5582 12.81273,23.702 18.70542,41.3495 6.03991,18.0884 8.42658,30.2568 8.42815,42.9705 0.002,12.3714 -1.51394,20.7775 -5.10053,28.2921 -8.76314,18.3606 -29.03359,28.2893 -61.11331,29.934 -6.38741,0.3274 -69.5635,0.6629 -85.14001,0.4521 z"
         style="fill:#000000;stroke-width:1.63605" />
      <g
         transform="translate(-10.101525,7.0710677)"
         id="g1772"
         style="stroke-width:1.63605">
        <circle
           style="fill:#ffffff;stroke:none;stroke-width:1.0907;stop-color:#000000"
           id="path1768"
           cx="110.10662"
           cy="1352.6465"
           r="66.670067" />
        <path
           style="fill:#000000;fill-opacity:1;stroke:none;stroke-width:1.18441;stroke-linecap:round;stroke-linejoin:round;stroke-miterlimit:4;stroke-dasharray:none;stroke-opacity:1"
           d="m 110.058,1314.1724 v 0.056 c -11.673437,7.2552 -31.961468,8.2061 -33.757969,8.9506 2.223096,49.5756 13.036708,56.6142 33.757969,67.8895 v 0.052 c 0.0168,0 0.0317,-0.019 0.0486,-0.03 0.0168,0.019 0.0317,0.019 0.0486,0.03 v -0.052 c 20.7213,-11.2753 31.53491,-18.3139 33.75801,-67.8895 -1.79654,-0.7445 -22.08454,-1.6954 -33.75801,-8.9506 v -0.056 c -0.0149,0 -0.0332,0.02 -0.0486,0.03 -0.0149,-0.02 -0.0332,-0.02 -0.0486,-0.03 z"
           id="path5544" />
      </g>
    </g>
    <path
       sodipodi:nodetypes="scccccscs"
       inkscape:connector-curvature="0"
       d="m 341.84337,784.03128 c 31.25415,1.39033 63.46877,26.26752 64.03488,48.53684 l 25.23447,-6.22385 -33.1314,64.35489 -47.43755,-44.49627 27.40987,-6.75464 c 4.79605,-21.66765 -49.61759,-29.87381 -55.17883,-30.04056 -5.91969,-0.17757 -38.18704,-3.09119 -77.08719,19.84748 33.17904,-42.81218 57.11732,-46.96055 96.15575,-45.22389 z"
       id="path5102"
       style="fill:#000000;fill-opacity:1;stroke:none;stroke-width:0.941362;stroke-opacity:1" />
    <circle
       r="53.02021"
       cy="961.5127"
       cx="390.38892"
       id="circle1802"
       style="fill:#000000;stroke:none;stroke-width:8.57782;stroke-miterlimit:4;stroke-dasharray:none;stroke-opacity:1" />
    <path
       style="fill:#000000;fill-opacity:1;stroke:none;stroke-width:0.941362;stroke-opacity:1"
       id="path40"
       d="m 95.816494,769.01712 c 27.762046,-14.42301 68.099326,-8.98604 79.724246,10.0167 l 18.74177,-18.00725 3.48481,72.29867 -63.33026,-14.81612 20.36033,-19.55463 c -6.68033,-21.16276 -57.906998,-1.06268 -62.806549,1.57353 -5.215386,2.80607 -34.616541,16.41647 -56.835724,55.73202 7.327801,-53.66596 25.984775,-69.22769 60.661377,-87.24292 z"
       inkscape:connector-curvature="0"
       sodipodi:nodetypes="scccccscs" />
    <g
       transform="matrix(1.8868769,0,0,1.8913039,-5.2001432,-1034.8103)"
       id="text3340"
       style="font-style:normal;font-weight:normal;font-size:48.9798px;line-height:125%;font-family:sans-serif;letter-spacing:0px;word-spacing:0px;fill:#ffffff;fill-opacity:1;stroke:none;stroke-width:0.874876px;stroke-linecap:butt;stroke-linejoin:miter;stroke-opacity:1">
      <path
         style="fill:#ffffff;stroke-width:0.874876px"
         inkscape:connector-curvature="0"
         id="path3583"
         d="m 45.225419,1016.332 q 0.669646,0 1.291459,0.2631 0.621814,0.263 1.076216,0.7174 0.478318,0.4305 0.741393,1.0284 0.286991,0.574 0.286991,1.2197 v 18.0087 q 0,0.6936 -0.263075,1.2915 -0.239159,0.5979 -0.693561,1.0523 -0.454402,0.4783 -1.0523,0.7414 -0.597898,0.263 -1.267543,0.263 H 22.457477 q -0.693561,0 -1.315374,-0.263 -0.597898,-0.2631 -1.0523,-0.7414 -0.454402,-0.4544 -0.717477,-1.0523 -0.263075,-0.5979 -0.263075,-1.2915 v -18.0087 q 0,-0.6457 0.263075,-1.2197 0.28699,-0.5979 0.741393,-1.0284 0.478318,-0.4544 1.076215,-0.7174 0.597898,-0.2631 1.267543,-0.2631 v -3.8744 q 0,-2.4394 0.406571,-4.544 0.40657,-2.1046 1.626281,-3.6352 1.243627,-1.5546 3.467807,-2.4155 2.248095,-0.8849 5.907228,-0.8849 3.68305,0 5.907229,0.8849 2.248095,0.8609 3.44389,2.4155 1.219712,1.5306 1.602366,3.6352 0.40657,2.1046 0.40657,4.544 z m -17.889097,-3.8744 v 3.7548 h 13.058085 v -3.7548 q 0,-1.8176 -0.143496,-3.0612 -0.143495,-1.2676 -0.789225,-2.0329 -0.621813,-0.7653 -1.937188,-1.1001 -1.315375,-0.3348 -3.659134,-0.3348 -2.319842,0 -3.635217,0.3348 -1.291459,0.3348 -1.937189,1.1001 -0.645729,0.7653 -0.81314,2.0329 -0.143496,1.2436 -0.143496,3.0612 z" />
    </g>
    <g
       aria-label="2x"
       id="text44"
       style="font-style:normal;font-variant:normal;font-weight:normal;font-stretch:normal;font-size:24px;line-height:1.25;font-family:'Archivo Black';-inkscape-font-specification:'Archivo Black, ';letter-spacing:0px;word-spacing:0px;fill:#000000;fill-opacity:1;stroke:none"
       transform="translate(220.72344,-72.586822)">
      <path
         style="fill:#000000"
         d="m -170.26743,973.06218 c -4.728,0 -7.08,2.208 -7.08,5.592 0,0.168 0,0.336 0.024,0.528 h 4.272 v -0.48 c 0,-1.296 0.84,-2.256 2.328,-2.256 1.464,0 2.064,0.84 2.064,1.752 0,1.56 -2.688,2.904 -6.432,6.24 -1.344,1.2 -2.304,2.472 -2.304,4.272 v 1.152 h 13.68 v -4.056 h -7.224 c 3.408,-2.448 7.032,-4.2 7.032,-7.776 0,-3 -2.448,-4.968 -6.36,-4.968 z"
         id="path46" />
      <path
         style="fill:#000000"
         d="m -151.40418,983.26218 4.464,-6.072 h -5.28 l -2.016,3.36 h -0.096 l -2.016,-3.36 h -5.616 l 4.392,5.952 -4.872,6.72 h 5.304 l 2.424,-3.984 h 0.096 l 2.4,3.984 h 5.568 z"
         id="path48" />
    </g>
    <g
       style="font-style:normal;font-weight:normal;font-size:48.9798px;line-height:125%;font-family:sans-serif;letter-spacing:0px;word-spacing:0px;fill:#ffffff;fill-opacity:1;stroke:none;stroke-width:0.874876px;stroke-linecap:butt;stroke-linejoin:miter;stroke-opacity:1"
       id="g43"
       transform="matrix(1.8868769,0,0,1.8913039,326.48914,-969.40977)">
      <path
         d="m 45.225419,1016.332 q 0.669646,0 1.291459,0.2631 0.621814,0.263 1.076216,0.7174 0.478318,0.4305 0.741393,1.0284 0.286991,0.574 0.286991,1.2197 v 18.0087 q 0,0.6936 -0.263075,1.2915 -0.239159,0.5979 -0.693561,1.0523 -0.454402,0.4783 -1.0523,0.7414 -0.597898,0.263 -1.267543,0.263 H 22.457477 q -0.693561,0 -1.315374,-0.263 -0.597898,-0.2631 -1.0523,-0.7414 -0.454402,-0.4544 -0.717477,-1.0523 -0.263075,-0.5979 -0.263075,-1.2915 v -18.0087 q 0,-0.6457 0.263075,-1.2197 0.28699,-0.5979 0.741393,-1.0284 0.478318,-0.4544 1.076215,-0.7174 0.597898,-0.2631 1.267543,-0.2631 v -3.8744 q 0,-2.4394 0.406571,-4.544 0.40657,-2.1046 1.626281,-3.6352 1.243627,-1.5546 3.467807,-2.4155 2.248095,-0.8849 5.907228,-0.8849 3.68305,0 5.907229,0.8849 2.248095,0.8609 3.44389,2.4155 1.219712,1.5306 1.602366,3.6352 0.40657,2.1046 0.40657,4.544 z m -17.889097,-3.8744 v 3.7548 h 13.058085 v -3.7548 q 0,-1.8176 -0.143496,-3.0612 -0.143495,-1.2676 -0.789225,-2.0329 -0.621813,-0.7653 -1.937188,-1.1001 -1.315375,-0.3348 -3.659134,-0.3348 -2.319842,0 -3.635217,0.3348 -1.291459,0.3348 -1.937189,1.1001 -0.645729,0.7653 -0.81314,2.0329 -0.143496,1.2436 -0.143496,3.0612 z"
         id="path41"
         inkscape:connector-curvature="0"
         style="fill:#ffffff;stroke-width:0.874876px" />
    </g>
  </g>
</svg>
