<?xml version="1.0" encoding="UTF-8" standalone="no"?>
<svg
   xmlns:dc="http://purl.org/dc/elements/1.1/"
   xmlns:cc="http://creativecommons.org/ns#"
   xmlns:rdf="http://www.w3.org/1999/02/22-rdf-syntax-ns#"
   xmlns:svg="http://www.w3.org/2000/svg"
   xmlns="http://www.w3.org/2000/svg"
   xmlns:sodipodi="http://sodipodi.sourceforge.net/DTD/sodipodi-0.dtd"
   xmlns:inkscape="http://www.inkscape.org/namespaces/inkscape"
   sodipodi:docname="automated-system-reboot.svg"
   inkscape:version="1.0 (4035a4fb49, 2020-05-01)"
   version="1.1"
   id="svg5199"
   viewBox="0 0 450.00001 325"
   height="325"
   width="450">
  <defs
     id="defs5201" />
  <sodipodi:namedview
     inkscape:document-rotation="0"
     inkscape:window-maximized="1"
     inkscape:window-y="-8"
     inkscape:window-x="-8"
     inkscape:window-height="1017"
     inkscape:window-width="1920"
     borderlayer="true"
     units="px"
     showgrid="false"
     inkscape:current-layer="layer1"
     inkscape:document-units="px"
     inkscape:cy="200.86896"
     inkscape:cx="391.0518"
     inkscape:zoom="2.8"
     inkscape:pageshadow="2"
     inkscape:pageopacity="0.0"
     borderopacity="1.0"
     bordercolor="#666666"
     pagecolor="#ffffff"
     id="base" />
  <metadata
     id="metadata5204">
    <rdf:RDF>
      <cc:Work
         rdf:about="">
        <dc:format>image/svg+xml</dc:format>
        <dc:type
           rdf:resource="http://purl.org/dc/dcmitype/StillImage" />
        <dc:title />
      </cc:Work>
    </rdf:RDF>
  </metadata>
  <g
     transform="translate(0,-727.36216)"
     id="layer1"
     inkscape:groupmode="layer"
     inkscape:label="Layer 1">
    <g
       transform="translate(-276.81765,-180.82814)"
       id="g51" />
    <path
       inkscape:transform-center-y="-3.895383"
       inkscape:transform-center-x="3.7611868"
       sodipodi:nodetypes="cccccccc"
       inkscape:connector-curvature="0"
       id="path15147-5"
       d="m 254.54272,884.47017 -28.18453,-22.5703 -2.2e-4,12.3551 h -30.90068 l 9e-5,21.4686 h 30.90067 l -5e-5,11.3168 z"
       style="fill:#000000;fill-opacity:1;stroke:none;stroke-width:1.101;stroke-linecap:round;stroke-linejoin:round;stroke-miterlimit:4;stroke-dasharray:none;stroke-dashoffset:0;stroke-opacity:1" />
    <path
       sodipodi:type="star"
       style="font-style:normal;font-weight:normal;font-size:medium;line-height:125%;font-family:sans-serif;letter-spacing:0px;word-spacing:0px;fill:#b3b3b3;fill-opacity:1;stroke:#000000;stroke-width:0.647276;stroke-linecap:butt;stroke-linejoin:round;stroke-miterlimit:4;stroke-dasharray:none;stroke-dashoffset:0;stroke-opacity:1"
       id="path5084-7"
       sodipodi:sides="6"
       sodipodi:cx="389.90088"
       sodipodi:cy="1102.7913"
       sodipodi:r1="11.162703"
       sodipodi:r2="9.6671848"
       sodipodi:arg1="-1.0471976"
       sodipodi:arg2="-0.52359878"
       inkscape:flatsided="true"
       inkscape:rounded="0"
       inkscape:randomized="0"
       transform="matrix(5.4561167,3.1478737,-3.1502487,5.4525514,1416.7423,-6407.1881)"
       d="m 395.48223,1093.1241 5.58135,9.6672 -5.58135,9.6671 -11.1627,0 -5.58135,-9.6671 5.58135,-9.6672 z" />
    <ellipse
       style="fill:#000000;stroke:none;stroke-width:1.73414;stroke-miterlimit:4;stroke-dasharray:none;stroke-opacity:1"
       id="ellipse1335"
       cx="70.020172"
       cy="833.19659"
       rx="33.932671"
       ry="33.885555" />
    <path
       transform="matrix(5.4561167,3.1478737,-3.1502487,5.4525514,1416.6072,-6404.7637)"
       sodipodi:type="star"
       style="font-style:normal;font-weight:normal;font-size:medium;line-height:125%;font-family:sans-serif;letter-spacing:0px;word-spacing:0px;fill:#b3b3b3;fill-opacity:1;stroke:#000000;stroke-width:0.647276;stroke-linecap:butt;stroke-linejoin:round;stroke-miterlimit:4;stroke-dasharray:none;stroke-dashoffset:0;stroke-opacity:1"
       id="path5092-2"
       sodipodi:sides="6"
       sodipodi:cx="407.40814"
       sodipodi:cy="1113.0243"
       sodipodi:r1="11.162703"
       sodipodi:r2="9.6671848"
       sodipodi:arg1="-1.0471976"
       sodipodi:arg2="-0.52359878"
       inkscape:flatsided="true"
       inkscape:rounded="0"
       inkscape:randomized="0"
       d="m 412.98949,1103.3571 5.58135,9.6672 -5.58135,9.6672 -11.1627,0 -5.58135,-9.6672 5.58135,-9.6672 z" />
    <ellipse
       ry="33.885555"
       rx="33.932671"
       cy="946.52783"
       cx="133.17024"
       id="path4151"
       style="fill:#000000;stroke:none;stroke-width:1.73414;stroke-miterlimit:4;stroke-dasharray:none;stroke-opacity:1" />
    <g
       transform="matrix(1.1302562,0,0,1.1304693,-539.32295,126.69557)"
       id="g7180"
       style="font-variation-settings:normal;vector-effect:none;fill:#ffffff;fill-opacity:1;stroke-width:0.511383;stroke-linecap:butt;stroke-linejoin:miter;stroke-miterlimit:4;stroke-dasharray:none;stroke-dashoffset:0;stroke-opacity:1;stop-color:#000000">
      <path
         style="font-variation-settings:normal;vector-effect:none;fill:#ffffff;fill-opacity:1;stroke-width:0.511383;stroke-linecap:butt;stroke-linejoin:miter;stroke-miterlimit:4;stroke-dasharray:none;stroke-dashoffset:0;stroke-opacity:1;stop-color:#000000;stop-opacity:1"
         inkscape:connector-curvature="0"
         id="path7182"
         d="m 525.65901,625.00231 1.94807,9.9888 -7.17953,1.5595 c -0.26665,0.0574 -0.4583,0.29137 -0.46207,0.5641 l -0.0654,4.7112 c -0.006,0.3994 0.38172,0.68693 0.76242,0.566 l 9.02373,-2.8841 1.48619,-0.2882 c 0.0109,2e-4 0.0217,8e-4 0.0326,8e-4 0.61338,0 1.19103,-0.2922 1.59444,-0.7684 0.40311,-0.4759 0.61399,-1.096 0.61338,-1.7349 v 0 c 3.2e-4,-0.405 -0.0845,-0.8032 -0.24921,-1.1616 l -1.55704,-8.0443 z m 1.30079,0.5469 0.9866,0.416 1.83175,8.5978 c -0.18513,-0.057 -0.37846,-0.087 -0.57555,-0.087 -0.16782,0 -0.33269,0.023 -0.49212,0.064 l -1.75068,-8.9909 z m 2.30127,0.9702 1.0484,0.442 1.417,7.321 c -0.16831,-0.046 -0.34278,-0.071 -0.52041,-0.071 -0.10122,0 -0.20121,0.01 -0.29973,0.024 l -1.6452,-7.7159 z m 1.94493,8.8665 c 0.23799,0 0.50876,0.1218 0.70678,0.3556 0.19807,0.2338 0.33472,0.6093 0.33417,0.9731 6.2e-4,0.3638 -0.13616,0.7393 -0.33411,0.9731 -0.094,0.1109 -0.20429,0.1957 -0.31963,0.2552 l -0.37846,0.073 c 0.12974,-0.3249 0.19616,-0.6778 0.19579,-1.0367 v 0 c 2.5e-4,-0.2325 -0.0278,-0.4627 -0.0827,-0.6843 0.002,-0.0465 -0.002,-0.093 -0.0119,-0.1385 l -0.16363,-0.7675 h 0.0536 z m -2.0034,0.2649 c 0.23806,0 0.50889,0.1218 0.70696,0.3556 0.19802,0.2338 0.33455,0.6094 0.33405,0.9732 6.4e-4,0.3638 -0.13616,0.7393 -0.33411,0.9731 -0.19807,0.2338 -0.46884,0.3557 -0.70696,0.3557 -0.23799,0 -0.50723,-0.122 -0.70524,-0.3557 -0.198,-0.2338 -0.33626,-0.6093 -0.33576,-0.9731 -6.4e-4,-0.3638 0.13776,-0.7394 0.33576,-0.9732 0.19801,-0.2338 0.46725,-0.3556 0.70524,-0.3556 z m -2.12526,0.6524 c -0.0536,0.2193 -0.0811,0.4467 -0.0808,0.6764 v 0 c -6.3e-4,0.6388 0.21009,1.259 0.6132,1.7349 0.0516,0.061 0.10614,0.1189 0.16313,0.1735 l -6.68979,2.1381 0.0482,-3.4328 5.94611,-1.2917 z"
         sodipodi:nodetypes="ccccccccscccccccccsccccccsccccccccccccccccscccscccssccccccccc" />
      <path
         d="m 557.57911,623.18801 c 0.36275,-0.83791 0.62263,-1.77224 0.75319,-2.81716 l 0.004,-0.008 c 10e-4,-0.0107 0.002,-0.0215 0.002,-0.0324 4.3e-4,-0.009 8.9e-4,-0.0172 3.5e-4,-0.026 3e-4,-0.0108 -5.1e-4,-0.0215 -10e-4,-0.0322 -5e-4,-0.009 -0.001,-0.0178 -0.002,-0.0265 -6.2e-4,-0.0112 -0.003,-0.022 -0.004,-0.0329 -0.002,-0.008 -0.003,-0.0166 -0.004,-0.0249 -0.002,-0.0106 -0.005,-0.0218 -0.008,-0.0325 -0.002,-0.008 -0.004,-0.0165 -0.007,-0.0246 -0.003,-0.0101 -0.007,-0.0209 -0.0105,-0.0311 -0.003,-0.008 -0.006,-0.016 -0.009,-0.0239 -0.004,-0.0105 -0.009,-0.0206 -0.0139,-0.0309 -0.004,-0.007 -0.007,-0.0142 -0.0105,-0.0211 -0.005,-0.01 -0.0118,-0.0208 -0.0182,-0.0309 -0.004,-0.007 -0.008,-0.0133 -0.0122,-0.0197 -0.007,-0.009 -0.0129,-0.0186 -0.0197,-0.0275 -0.005,-0.006 -0.0102,-0.0131 -0.0155,-0.0197 -0.007,-0.009 -0.0148,-0.0173 -0.0228,-0.0254 -0.006,-0.006 -0.0113,-0.0125 -0.0171,-0.0183 -0.008,-0.008 -0.0163,-0.0158 -0.025,-0.0228 -0.006,-0.006 -0.0122,-0.0118 -0.0188,-0.0169 -0.0112,-0.009 -0.0224,-0.0184 -0.0344,-0.0263 l -5.78328,-4.00456 c -0.2286,-0.15826 -0.537,-0.13378 -0.73783,0.0584 l -3.96138,3.79236 -4.66387,4.4628 -6.07429,5.81523 -0.004,0.009 c -0.008,0.009 -0.0162,0.0173 -0.0244,0.0261 -0.006,0.005 -0.0121,0.0103 -0.0177,0.0159 -0.008,0.009 -0.0152,0.0176 -0.0225,0.0268 -0.007,0.006 -0.0132,0.0129 -0.0194,0.0196 -0.004,0.009 -0.008,0.0182 -0.0118,0.0274 -0.004,0.009 -0.008,0.0181 -0.0118,0.0273 -0.004,0.008 -0.007,0.0162 -0.0105,0.0243 -0.005,0.01 -0.009,0.0201 -0.0135,0.0303 -0.003,0.006 -0.006,0.0138 -0.008,0.0208 l -1.7414,4.84541 c -0.0714,0.20056 -0.0283,0.42406 0.11254,0.58366 l 4.81212,5.47273 4.8e-4,9e-4 9e-5,4e-5 -7.9e-4,0.002 c 0.23004,0.26662 0.64179,0.27106 0.87765,0.01 0.43184,-0.33592 0.79694,-0.71601 1.10321,-1.13088 l 14.28632,-14.48689 c 0.0119,-0.0125 0.0234,-0.0255 0.0343,-0.039 0.54305,-0.65902 1.00914,-1.40032 1.3721,-2.23819 z m -0.13161,-1.82549 c -0.0304,0.0717 -0.0748,0.13666 -0.13056,0.19102 l -13.70048,13.59064 c -0.202,0.20058 -0.51898,0.2269 -0.75129,0.0624 -0.0196,-0.027 -0.0414,-0.0523 -0.0653,-0.0757 l -0.0966,-0.0979 c -0.14082,-0.23136 -0.10467,-0.52909 0.0874,-0.72002 l 13.70231,-13.58979 c 0.45343,-0.45681 1.20468,0.0465 0.95474,0.63959 z m -15.99774,17.0647 c -0.10761,0.24881 -0.24246,0.48248 -0.39947,0.70441 l -0.68395,0.69358 -2.25485,-2.56415 c 0.20714,0.15083 0.42328,0.27558 0.6377,0.3655 0.49608,0.20803 0.97377,0.22383 1.29804,0.0349 0.32428,-0.18899 0.48265,-0.5758 0.43565,-1.04499 -0.012,-0.11593 -0.0358,-0.23734 -0.0708,-0.35995 0.0318,0.0549 0.0682,0.10936 0.11073,0.16113 0.12119,0.14754 0.28149,0.27267 0.44215,0.34027 0.16105,0.0675 0.31957,0.0748 0.42853,0.0133 0.0547,-0.0306 0.0949,-0.0758 0.11866,-0.13328 0.024,-0.0574 0.0321,-0.12719 0.024,-0.20148 -0.0173,-0.14891 -0.0993,-0.31681 -0.22068,-0.46464 -0.12165,-0.14773 -0.28135,-0.27272 -0.44241,-0.34017 -0.16095,-0.0674 -0.31947,-0.0748 -0.4285,-0.0134 -0.10838,0.0616 -0.15806,0.18657 -0.14445,0.33396 -0.11792,-0.28031 -0.28661,-0.56337 -0.49693,-0.82524 -0.38016,-0.47375 -0.88619,-0.86836 -1.38245,-1.07623 -0.49608,-0.20803 -0.97697,-0.22121 -1.30126,-0.0322 -0.32435,0.1889 -0.47944,0.5729 -0.43224,1.04212 0.0297,0.2933 0.13748,0.61593 0.30703,0.93226 l -0.80078,-0.9109 1.30851,-3.64611 4.31319,4.36623 c 0.08,1.01699 -0.0405,1.88025 -0.36953,2.62337 z"
         id="path7184"
         inkscape:connector-curvature="0"
         style="font-variation-settings:normal;vector-effect:none;fill:#ffffff;fill-opacity:1;stroke-width:0.511383;stroke-linecap:butt;stroke-linejoin:miter;stroke-miterlimit:4;stroke-dasharray:none;stroke-dashoffset:0;stroke-opacity:1;stop-color:#000000;stop-opacity:1"
         sodipodi:nodetypes="cccccccccccccccccccccccccccccccccccccccccccccccccccccccccccccccccccccccccccccccccccccccc" />
      <path
         style="font-variation-settings:normal;vector-effect:none;fill:#ffffff;fill-opacity:1;stroke-width:0.511383;stroke-linecap:butt;stroke-linejoin:miter;stroke-miterlimit:4;stroke-dasharray:none;stroke-dashoffset:0;stroke-opacity:1;stop-color:#000000;stop-opacity:1"
         inkscape:connector-curvature="0"
         d="m 526.02681,607.50554 1.12689,7.14648 -2.91854,-0.74553 4.51983,9.87315 -1.12792,-7.14503 2.91969,0.7441 -4.52014,-9.8733 z"
         id="path7186"
         sodipodi:nodetypes="cccccccc" />
      <path
         sodipodi:nodetypes="cccccccc"
         id="path7188"
         d="m 542.72268,609.72784 -4.0292,6.00895 -1.6347,-2.5301 -3.39261,10.31495 4.02745,-6.00861 1.63652,2.52986 3.39248,-10.31527 z"
         inkscape:connector-curvature="0"
         style="font-variation-settings:normal;vector-effect:none;fill:#ffffff;fill-opacity:1;stroke-width:0.511383;stroke-linecap:butt;stroke-linejoin:miter;stroke-miterlimit:4;stroke-dasharray:none;stroke-dashoffset:0;stroke-opacity:1;stop-color:#000000;stop-opacity:1" />
    </g>
    <g
       style="font-variation-settings:normal;vector-effect:none;fill:#ffffff;fill-opacity:1;stroke-width:0.511383;stroke-linecap:butt;stroke-linejoin:miter;stroke-miterlimit:4;stroke-dasharray:none;stroke-dashoffset:0;stroke-opacity:1;stop-color:#000000"
       id="g1362"
       transform="matrix(1.1302562,0,0,1.1304693,-476.17288,240.02681)">
      <path
         sodipodi:nodetypes="ccccccccscccccccccsccccccsccccccccccccccccscccscccssccccccccc"
         d="m 525.65901,625.00231 1.94807,9.9888 -7.17953,1.5595 c -0.26665,0.0574 -0.4583,0.29137 -0.46207,0.5641 l -0.0654,4.7112 c -0.006,0.3994 0.38172,0.68693 0.76242,0.566 l 9.02373,-2.8841 1.48619,-0.2882 c 0.0109,2e-4 0.0217,8e-4 0.0326,8e-4 0.61338,0 1.19103,-0.2922 1.59444,-0.7684 0.40311,-0.4759 0.61399,-1.096 0.61338,-1.7349 v 0 c 3.2e-4,-0.405 -0.0845,-0.8032 -0.24921,-1.1616 l -1.55704,-8.0443 z m 1.30079,0.5469 0.9866,0.416 1.83175,8.5978 c -0.18513,-0.057 -0.37846,-0.087 -0.57555,-0.087 -0.16782,0 -0.33269,0.023 -0.49212,0.064 l -1.75068,-8.9909 z m 2.30127,0.9702 1.0484,0.442 1.417,7.321 c -0.16831,-0.046 -0.34278,-0.071 -0.52041,-0.071 -0.10122,0 -0.20121,0.01 -0.29973,0.024 l -1.6452,-7.7159 z m 1.94493,8.8665 c 0.23799,0 0.50876,0.1218 0.70678,0.3556 0.19807,0.2338 0.33472,0.6093 0.33417,0.9731 6.2e-4,0.3638 -0.13616,0.7393 -0.33411,0.9731 -0.094,0.1109 -0.20429,0.1957 -0.31963,0.2552 l -0.37846,0.073 c 0.12974,-0.3249 0.19616,-0.6778 0.19579,-1.0367 v 0 c 2.5e-4,-0.2325 -0.0278,-0.4627 -0.0827,-0.6843 0.002,-0.0465 -0.002,-0.093 -0.0119,-0.1385 l -0.16363,-0.7675 h 0.0536 z m -2.0034,0.2649 c 0.23806,0 0.50889,0.1218 0.70696,0.3556 0.19802,0.2338 0.33455,0.6094 0.33405,0.9732 6.4e-4,0.3638 -0.13616,0.7393 -0.33411,0.9731 -0.19807,0.2338 -0.46884,0.3557 -0.70696,0.3557 -0.23799,0 -0.50723,-0.122 -0.70524,-0.3557 -0.198,-0.2338 -0.33626,-0.6093 -0.33576,-0.9731 -6.4e-4,-0.3638 0.13776,-0.7394 0.33576,-0.9732 0.19801,-0.2338 0.46725,-0.3556 0.70524,-0.3556 z m -2.12526,0.6524 c -0.0536,0.2193 -0.0811,0.4467 -0.0808,0.6764 v 0 c -6.3e-4,0.6388 0.21009,1.259 0.6132,1.7349 0.0516,0.061 0.10614,0.1189 0.16313,0.1735 l -6.68979,2.1381 0.0482,-3.4328 5.94611,-1.2917 z"
         id="path1354"
         inkscape:connector-curvature="0"
         style="font-variation-settings:normal;vector-effect:none;fill:#ffffff;fill-opacity:1;stroke-width:0.511383;stroke-linecap:butt;stroke-linejoin:miter;stroke-miterlimit:4;stroke-dasharray:none;stroke-dashoffset:0;stroke-opacity:1;stop-color:#000000;stop-opacity:1" />
      <path
         sodipodi:nodetypes="cccccccccccccccccccccccccccccccccccccccccccccccccccccccccccccccccccccccccccccccccccccccc"
         style="font-variation-settings:normal;vector-effect:none;fill:#ffffff;fill-opacity:1;stroke-width:0.511383;stroke-linecap:butt;stroke-linejoin:miter;stroke-miterlimit:4;stroke-dasharray:none;stroke-dashoffset:0;stroke-opacity:1;stop-color:#000000;stop-opacity:1"
         inkscape:connector-curvature="0"
         id="path1356"
         d="m 557.57911,623.18801 c 0.36275,-0.83791 0.62263,-1.77224 0.75319,-2.81716 l 0.004,-0.008 c 10e-4,-0.0107 0.002,-0.0215 0.002,-0.0324 4.3e-4,-0.009 8.9e-4,-0.0172 3.5e-4,-0.026 3e-4,-0.0108 -5.1e-4,-0.0215 -10e-4,-0.0322 -5e-4,-0.009 -0.001,-0.0178 -0.002,-0.0265 -6.2e-4,-0.0112 -0.003,-0.022 -0.004,-0.0329 -0.002,-0.008 -0.003,-0.0166 -0.004,-0.0249 -0.002,-0.0106 -0.005,-0.0218 -0.008,-0.0325 -0.002,-0.008 -0.004,-0.0165 -0.007,-0.0246 -0.003,-0.0101 -0.007,-0.0209 -0.0105,-0.0311 -0.003,-0.008 -0.006,-0.016 -0.009,-0.0239 -0.004,-0.0105 -0.009,-0.0206 -0.0139,-0.0309 -0.004,-0.007 -0.007,-0.0142 -0.0105,-0.0211 -0.005,-0.01 -0.0118,-0.0208 -0.0182,-0.0309 -0.004,-0.007 -0.008,-0.0133 -0.0122,-0.0197 -0.007,-0.009 -0.0129,-0.0186 -0.0197,-0.0275 -0.005,-0.006 -0.0102,-0.0131 -0.0155,-0.0197 -0.007,-0.009 -0.0148,-0.0173 -0.0228,-0.0254 -0.006,-0.006 -0.0113,-0.0125 -0.0171,-0.0183 -0.008,-0.008 -0.0163,-0.0158 -0.025,-0.0228 -0.006,-0.006 -0.0122,-0.0118 -0.0188,-0.0169 -0.0112,-0.009 -0.0224,-0.0184 -0.0344,-0.0263 l -5.78328,-4.00456 c -0.2286,-0.15826 -0.537,-0.13378 -0.73783,0.0584 l -3.96138,3.79236 -4.66387,4.4628 -6.07429,5.81523 -0.004,0.009 c -0.008,0.009 -0.0162,0.0173 -0.0244,0.0261 -0.006,0.005 -0.0121,0.0103 -0.0177,0.0159 -0.008,0.009 -0.0152,0.0176 -0.0225,0.0268 -0.007,0.006 -0.0132,0.0129 -0.0194,0.0196 -0.004,0.009 -0.008,0.0182 -0.0118,0.0274 -0.004,0.009 -0.008,0.0181 -0.0118,0.0273 -0.004,0.008 -0.007,0.0162 -0.0105,0.0243 -0.005,0.01 -0.009,0.0201 -0.0135,0.0303 -0.003,0.006 -0.006,0.0138 -0.008,0.0208 l -1.7414,4.84541 c -0.0714,0.20056 -0.0283,0.42406 0.11254,0.58366 l 4.81212,5.47273 4.8e-4,9e-4 9e-5,4e-5 -7.9e-4,0.002 c 0.23004,0.26662 0.64179,0.27106 0.87765,0.01 0.43184,-0.33592 0.79694,-0.71601 1.10321,-1.13088 l 14.28632,-14.48689 c 0.0119,-0.0125 0.0234,-0.0255 0.0343,-0.039 0.54305,-0.65902 1.00914,-1.40032 1.3721,-2.23819 z m -0.13161,-1.82549 c -0.0304,0.0717 -0.0748,0.13666 -0.13056,0.19102 l -13.70048,13.59064 c -0.202,0.20058 -0.51898,0.2269 -0.75129,0.0624 -0.0196,-0.027 -0.0414,-0.0523 -0.0653,-0.0757 l -0.0966,-0.0979 c -0.14082,-0.23136 -0.10467,-0.52909 0.0874,-0.72002 l 13.70231,-13.58979 c 0.45343,-0.45681 1.20468,0.0465 0.95474,0.63959 z m -15.99774,17.0647 c -0.10761,0.24881 -0.24246,0.48248 -0.39947,0.70441 l -0.68395,0.69358 -2.25485,-2.56415 c 0.20714,0.15083 0.42328,0.27558 0.6377,0.3655 0.49608,0.20803 0.97377,0.22383 1.29804,0.0349 0.32428,-0.18899 0.48265,-0.5758 0.43565,-1.04499 -0.012,-0.11593 -0.0358,-0.23734 -0.0708,-0.35995 0.0318,0.0549 0.0682,0.10936 0.11073,0.16113 0.12119,0.14754 0.28149,0.27267 0.44215,0.34027 0.16105,0.0675 0.31957,0.0748 0.42853,0.0133 0.0547,-0.0306 0.0949,-0.0758 0.11866,-0.13328 0.024,-0.0574 0.0321,-0.12719 0.024,-0.20148 -0.0173,-0.14891 -0.0993,-0.31681 -0.22068,-0.46464 -0.12165,-0.14773 -0.28135,-0.27272 -0.44241,-0.34017 -0.16095,-0.0674 -0.31947,-0.0748 -0.4285,-0.0134 -0.10838,0.0616 -0.15806,0.18657 -0.14445,0.33396 -0.11792,-0.28031 -0.28661,-0.56337 -0.49693,-0.82524 -0.38016,-0.47375 -0.88619,-0.86836 -1.38245,-1.07623 -0.49608,-0.20803 -0.97697,-0.22121 -1.30126,-0.0322 -0.32435,0.1889 -0.47944,0.5729 -0.43224,1.04212 0.0297,0.2933 0.13748,0.61593 0.30703,0.93226 l -0.80078,-0.9109 1.30851,-3.64611 4.31319,4.36623 c 0.08,1.01699 -0.0405,1.88025 -0.36953,2.62337 z" />
      <path
         sodipodi:nodetypes="cccccccc"
         id="path1358"
         d="m 526.02681,607.50554 1.12689,7.14648 -2.91854,-0.74553 4.51983,9.87315 -1.12792,-7.14503 2.91969,0.7441 -4.52014,-9.8733 z"
         inkscape:connector-curvature="0"
         style="font-variation-settings:normal;vector-effect:none;fill:#ffffff;fill-opacity:1;stroke-width:0.511383;stroke-linecap:butt;stroke-linejoin:miter;stroke-miterlimit:4;stroke-dasharray:none;stroke-dashoffset:0;stroke-opacity:1;stop-color:#000000;stop-opacity:1" />
      <path
         style="font-variation-settings:normal;vector-effect:none;fill:#ffffff;fill-opacity:1;stroke-width:0.511383;stroke-linecap:butt;stroke-linejoin:miter;stroke-miterlimit:4;stroke-dasharray:none;stroke-dashoffset:0;stroke-opacity:1;stop-color:#000000;stop-opacity:1"
         inkscape:connector-curvature="0"
         d="m 542.72268,609.72784 -4.0292,6.00895 -1.6347,-2.5301 -3.39261,10.31495 4.02745,-6.00861 1.63652,2.52986 3.39248,-10.31527 z"
         id="path1360"
         sodipodi:nodetypes="cccccccc" />
    </g>
    <path
       transform="matrix(5.4561167,3.1478737,-3.1502487,5.4525514,1663.5519,-6407.1881)"
       inkscape:randomized="0"
       inkscape:rounded="0"
       inkscape:flatsided="true"
       sodipodi:arg2="-0.52359878"
       sodipodi:arg1="-1.0471976"
       sodipodi:r2="9.6671848"
       sodipodi:r1="11.162703"
       sodipodi:cy="1102.7913"
       sodipodi:cx="389.90088"
       sodipodi:sides="6"
       id="path1364"
       style="font-style:normal;font-weight:normal;font-size:medium;line-height:125%;font-family:sans-serif;letter-spacing:0px;word-spacing:0px;fill:#b3b3b3;fill-opacity:1;stroke:#000000;stroke-width:0.647276;stroke-linecap:butt;stroke-linejoin:round;stroke-miterlimit:4;stroke-dasharray:none;stroke-dashoffset:0;stroke-opacity:1"
       sodipodi:type="star"
       d="m 395.48223,1093.1241 5.58135,9.6672 -5.58135,9.6671 -11.1627,0 -5.58135,-9.6671 5.58135,-9.6672 z" />
    <ellipse
       ry="33.885555"
       rx="33.932671"
       cy="833.19659"
       cx="316.82986"
       id="ellipse1366"
       style="fill:#000000;stroke:none;stroke-width:1.73414;stroke-miterlimit:4;stroke-dasharray:none;stroke-opacity:1" />
    <path
       inkscape:randomized="0"
       inkscape:rounded="0"
       inkscape:flatsided="true"
       sodipodi:arg2="-0.52359878"
       sodipodi:arg1="-1.0471976"
       sodipodi:r2="9.6671848"
       sodipodi:r1="11.162703"
       sodipodi:cy="1113.0243"
       sodipodi:cx="407.40814"
       sodipodi:sides="6"
       id="path1368"
       style="font-style:normal;font-weight:normal;font-size:medium;line-height:125%;font-family:sans-serif;letter-spacing:0px;word-spacing:0px;fill:#b3b3b3;fill-opacity:1;stroke:#000000;stroke-width:0.647276;stroke-linecap:butt;stroke-linejoin:round;stroke-miterlimit:4;stroke-dasharray:none;stroke-dashoffset:0;stroke-opacity:1"
       sodipodi:type="star"
       transform="matrix(5.4561167,3.1478737,-3.1502487,5.4525514,1663.4168,-6404.7637)"
       d="m 412.98949,1103.3571 5.58135,9.6672 -5.58135,9.6672 -11.1627,0 -5.58135,-9.6672 5.58135,-9.6672 z" />
    <ellipse
       style="fill:#000000;stroke:none;stroke-width:1.73414;stroke-miterlimit:4;stroke-dasharray:none;stroke-opacity:1"
       id="ellipse1370"
       cx="379.97995"
       cy="946.52783"
       rx="33.932671"
       ry="33.885555" />
    <path
       id="path1339"
       d="m 304.0584,813.83448 c -1.26352,-4.4e-4 -2.59304,0.18285 -3.99196,0.59114 a 0.80995587,0.81010853 0 0 0 -0.0124,0.012 0.80995587,0.81010853 0 0 0 -0.0423,0.0143 0.80995587,0.81010853 0 0 0 -0.0332,0.012 0.80995587,0.81010853 0 0 0 -0.04,0.0197 0.80995587,0.81010853 0 0 0 -0.0327,0.0165 0.80995587,0.81010853 0 0 0 -0.0395,0.023 0.80995587,0.81010853 0 0 0 -0.0291,0.0198 0.80995587,0.81010853 0 0 0 -0.037,0.0263 0.80995587,0.81010853 0 0 0 -0.0276,0.0219 0.80995587,0.81010853 0 0 0 -0.0338,0.0308 0.80995587,0.81010853 0 0 0 -0.0253,0.0242 0.80995587,0.81010853 0 0 0 -0.0316,0.0341 0.80995587,0.81010853 0 0 0 -0.0211,0.0252 0.80995587,0.81010853 0 0 0 -0.0291,0.0384 0.80995587,0.81010853 0 0 0 -0.0183,0.0263 0.80995587,0.81010853 0 0 0 -0.0241,0.0406 0.80995587,0.81010853 0 0 0 -0.0165,0.0296 0.80995587,0.81010853 0 0 0 -0.0198,0.0428 0.80995587,0.81010853 0 0 0 -0.0133,0.0318 0.80995587,0.81010853 0 0 0 -0.0151,0.0428 0.80995587,0.81010853 0 0 0 -0.0104,0.0329 0.80995587,0.81010853 0 0 0 -0.0145,0.0593 l -1.90911,9.54754 a 0.80995587,0.81010853 0 0 0 0.47957,0.90503 l 6.99316,2.94867 2.69587,13.82587 -9.93551,2.15855 a 0.80995587,0.81010853 0 0 0 -0.63944,0.78069 l -0.0905,6.52106 a 0.80995587,0.81010853 0 0 0 1.05508,0.7832 l 12.48764,-3.99187 2.05669,-0.39886 c 0.0151,0 0.0301,0 0.0452,0 0.84884,0 1.64822,-0.40433 2.20649,-1.06363 0.55786,-0.65853 0.84969,-1.51702 0.84884,-2.4012 v 0 c 5.1e-4,-0.56052 -0.11697,-1.1116 -0.34487,-1.6078 l -2.15474,-11.13437 10.72331,4.52123 a 0.80995587,0.81010853 0 0 0 0.0132,0.012 0.80995587,0.81010853 0 0 0 0.0465,0.0165 0.80995587,0.81010853 0 0 0 0.0298,0.012 0.80995587,0.81010853 0 0 0 0.0463,0.012 0.80995587,0.81010853 0 0 0 0.0355,0.012 0.80995587,0.81010853 0 0 0 0.0412,0.012 0.80995587,0.81010853 0 0 0 0.041,0.012 0.80995587,0.81010853 0 0 0 0.0366,0 0.80995587,0.81010853 0 0 0 0.0461,0 0.80995587,0.81010853 0 0 0 0.031,0 l 7.11107,-0.45033 a 0.80995587,0.81010853 0 0 0 0.67951,-0.46371 l 4.30743,-9.12049 h 6.8e-4 a 0.80995587,0.81010853 0 0 0 0.002,-0.012 0.80995587,0.81010853 0 0 0 -0.46978,-1.12027 c -0.66391,-0.36405 -1.34726,-0.61901 -2.04245,-0.78002 l -26.24896,-10.18643 a 0.80995587,0.81010853 0 0 0 -0.0684,-0.023 c -1.1354,-0.32772 -2.33302,-0.51244 -3.59663,-0.51321 z m -2.2463,1.17031 a 0.80995587,0.81010853 0 0 1 0.31436,0.0614 l 24.7889,9.93717 a 0.81063799,0.81079078 0 0 1 0.49195,0.92007 0.80995587,0.81010853 0 0 0 -0.0603,0.12446 l -0.0713,0.17649 a 0.81063799,0.81079078 0 0 1 -0.96257,0.28448 l -24.78882,-9.93969 a 0.80995587,0.81010853 0 0 1 0.28783,-1.56444 z m 30.46355,10.94648 c 0.37514,0 0.74601,0.0428 1.11416,0.11929 l 1.25671,0.48775 -2.01807,4.27351 c 0.0778,-0.34605 0.11749,-0.68936 0.11382,-1.01105 -0.008,-0.74447 -0.25066,-1.36019 -0.66885,-1.66816 -0.41819,-0.30819 -0.9965,-0.29678 -1.56663,0.0209 -0.14067,0.079 -0.28178,0.17605 -0.41827,0.28788 0.0524,-0.0703 0.10143,-0.14673 0.14383,-0.22927 0.12081,-0.23499 0.19166,-0.50739 0.18927,-0.74864 -0.003,-0.24168 -0.0806,-0.44702 -0.21852,-0.55173 -0.0689,-0.0527 -0.14834,-0.079 -0.23446,-0.0769 -0.0861,0 -0.17921,0.0275 -0.26907,0.079 -0.17964,0.10317 -0.34785,0.30019 -0.46893,0.53561 -0.12081,0.23575 -0.19183,0.50717 -0.18901,0.74885 0.002,0.24168 0.0806,0.44714 0.21843,0.55184 0.13786,0.10428 0.32381,0.0977 0.50354,-0.012 -0.29124,0.3037 -0.5581,0.67368 -0.77518,1.0846 -0.39287,0.74314 -0.61607,1.60296 -0.60746,2.34753 0.008,0.74469 0.25577,1.36282 0.67405,1.67101 0.41811,0.30819 0.99105,0.29404 1.56109,-0.023 0.3562,-0.19888 0.70679,-0.51321 1.01543,-0.9024 l -0.71703,1.5179 -5.34997,0.34112 3.17614,-7.87862 c 1.24775,-0.66039 2.41042,-0.98175 3.53506,-0.9722 z m -25.41368,3.25279 1.36533,0.57577 2.5349,11.90056 c -0.2562,-0.0779 -0.52374,-0.12051 -0.79648,-0.12051 -0.23225,0 -0.4604,0.0318 -0.68105,0.0889 l -2.4227,-12.44462 z m 3.18466,1.34295 1.45084,0.61166 1.96094,10.13319 c -0.23292,-0.0647 -0.47437,-0.0988 -0.72017,-0.0988 -0.14009,0 -0.27845,0.012 -0.41478,0.0329 l -2.27675,-10.67977 z m 2.69152,12.27219 c 0.32935,0 0.70407,0.16881 0.97809,0.49236 0.2741,0.32345 0.4632,0.84336 0.46244,1.34681 8.7e-4,0.50354 -0.18843,1.02323 -0.46236,1.3469 -0.13002,0.15355 -0.28271,0.27087 -0.44233,0.35318 l -0.52373,0.10094 c 0.17955,-0.44967 0.27146,-0.93818 0.27095,-1.43482 v 0 c 3.4e-4,-0.3218 -0.0385,-0.64052 -0.11442,-0.94729 a 0.80995587,0.81010853 0 0 0 -0.0165,-0.19163 l -0.22645,-1.06231 c 0.0247,0 0.0497,-0.012 0.0742,-0.012 z m -2.77243,0.3667 c 0.32943,0 0.70423,0.16868 0.97833,0.49235 0.27403,0.32367 0.46296,0.84336 0.46227,1.3468 6.9e-4,0.50366 -0.18841,1.02335 -0.46235,1.3469 -0.2741,0.32367 -0.64882,0.49258 -0.97834,0.49258 -0.32935,0 -0.70194,-0.16901 -0.97595,-0.49258 -0.27402,-0.32343 -0.46535,-0.84324 -0.46466,-1.3469 -6.9e-4,-0.50344 0.19064,-1.02313 0.46466,-1.3468 0.27401,-0.32367 0.6466,-0.49235 0.97595,-0.49235 z m -2.94108,0.90306 c -0.0742,0.30358 -0.1122,0.61835 -0.11186,0.93609 v 0 c -8.7e-4,0.8844 0.29072,1.74279 0.84857,2.40143 0.0715,0.0835 0.1469,0.16452 0.22576,0.24025 l -9.25779,2.95942 0.0667,-4.75149 8.22864,-1.7879 z"
       style="font-variation-settings:normal;vector-effect:none;fill:#ffffff;fill-opacity:1;stroke-width:0.578048;stroke-linecap:butt;stroke-linejoin:miter;stroke-miterlimit:4;stroke-dasharray:none;stroke-dashoffset:0;stroke-opacity:1;stop-color:#000000"
       inkscape:connector-curvature="0" />
    <path
       inkscape:connector-curvature="0"
       style="font-variation-settings:normal;vector-effect:none;fill:#ffffff;fill-opacity:1;stroke-width:0.578048;stroke-linecap:butt;stroke-linejoin:miter;stroke-miterlimit:4;stroke-dasharray:none;stroke-dashoffset:0;stroke-opacity:1;stop-color:#000000"
       d="m 367.20849,927.16572 c -1.26352,-4.3e-4 -2.59305,0.18286 -3.99197,0.59114 a 0.80995587,0.81010853 0 0 0 -0.0123,0.012 0.80995587,0.81010853 0 0 0 -0.0423,0.0143 0.80995587,0.81010853 0 0 0 -0.0332,0.012 0.80995587,0.81010853 0 0 0 -0.04,0.0198 0.80995587,0.81010853 0 0 0 -0.0327,0.0165 0.80995587,0.81010853 0 0 0 -0.0395,0.0231 0.80995587,0.81010853 0 0 0 -0.0291,0.0198 0.80995587,0.81010853 0 0 0 -0.037,0.0263 0.80995587,0.81010853 0 0 0 -0.0276,0.0219 0.80995587,0.81010853 0 0 0 -0.0338,0.0308 0.80995587,0.81010853 0 0 0 -0.0253,0.0242 0.80995587,0.81010853 0 0 0 -0.0316,0.0341 0.80995587,0.81010853 0 0 0 -0.0211,0.0252 0.80995587,0.81010853 0 0 0 -0.0291,0.0384 0.80995587,0.81010853 0 0 0 -0.0183,0.0263 0.80995587,0.81010853 0 0 0 -0.0241,0.0406 0.80995587,0.81010853 0 0 0 -0.0165,0.0296 0.80995587,0.81010853 0 0 0 -0.0199,0.0428 0.80995587,0.81010853 0 0 0 -0.0133,0.0318 0.80995587,0.81010853 0 0 0 -0.0151,0.0428 0.80995587,0.81010853 0 0 0 -0.0104,0.0329 0.80995587,0.81010853 0 0 0 -0.0145,0.0593 l -1.90911,9.54755 a 0.80995587,0.81010853 0 0 0 0.47958,0.90503 l 6.99316,2.94867 2.69587,13.82587 -9.93551,2.15855 a 0.80995587,0.81010853 0 0 0 -0.63945,0.78068 l -0.0905,6.52106 a 0.80995587,0.81010853 0 0 0 1.05508,0.78321 l 12.48765,-3.99188 2.05669,-0.39885 c 0.0151,0 0.0301,0 0.0452,0 0.84883,0 1.64822,-0.40434 2.20649,-1.06363 0.55785,-0.65853 0.84969,-1.51702 0.84884,-2.40121 v 0 c 5.1e-4,-0.56052 -0.11697,-1.11159 -0.34487,-1.60779 l -2.15474,-11.13437 10.7233,4.52123 a 0.80995587,0.81010853 0 0 0 0.0132,0.012 0.80995587,0.81010853 0 0 0 0.0465,0.0165 0.80995587,0.81010853 0 0 0 0.0298,0.012 0.80995587,0.81010853 0 0 0 0.0463,0.012 0.80995587,0.81010853 0 0 0 0.0355,0.012 0.80995587,0.81010853 0 0 0 0.0412,0.012 0.80995587,0.81010853 0 0 0 0.041,0.012 0.80995587,0.81010853 0 0 0 0.0366,0 0.80995587,0.81010853 0 0 0 0.0461,0 0.80995587,0.81010853 0 0 0 0.031,0 l 7.11106,-0.45033 a 0.80995587,0.81010853 0 0 0 0.67952,-0.4637 l 4.30743,-9.1205 h 6.8e-4 a 0.80995587,0.81010853 0 0 0 0.002,-0.012 0.80995587,0.81010853 0 0 0 -0.46978,-1.12026 c -0.66391,-0.36406 -1.34726,-0.61902 -2.04245,-0.78003 L 370.8742,927.73074 a 0.80995587,0.81010853 0 0 0 -0.0684,-0.0231 c -1.1354,-0.32772 -2.33302,-0.51243 -3.59663,-0.51321 z m -2.2463,1.17032 a 0.80995587,0.81010853 0 0 1 0.31435,0.0614 l 24.7889,9.93717 a 0.81063799,0.81079078 0 0 1 0.49195,0.92008 0.80995587,0.81010853 0 0 0 -0.0603,0.12446 l -0.0713,0.17649 a 0.81063799,0.81079078 0 0 1 -0.96258,0.28448 l -24.78882,-9.93969 a 0.80995587,0.81010853 0 0 1 0.28784,-1.56444 z m 30.46355,10.94647 c 0.37513,0 0.74601,0.0428 1.11416,0.1193 l 1.2567,0.48775 -2.01806,4.27351 c 0.0778,-0.34606 0.11748,-0.68937 0.11382,-1.01106 -0.008,-0.74446 -0.25067,-1.36018 -0.66885,-1.66816 -0.41819,-0.30819 -0.99651,-0.29678 -1.56663,0.0209 -0.14067,0.079 -0.28178,0.17604 -0.41827,0.28788 0.0524,-0.0703 0.10143,-0.14674 0.14383,-0.22927 0.1208,-0.23499 0.19165,-0.5074 0.18927,-0.74864 -0.003,-0.24168 -0.0806,-0.44703 -0.21852,-0.55174 -0.0689,-0.0527 -0.14835,-0.079 -0.23446,-0.0769 -0.0861,0 -0.17921,0.0275 -0.26908,0.079 -0.17964,0.10317 -0.34785,0.30018 -0.46892,0.5356 -0.12081,0.23576 -0.19183,0.50717 -0.18901,0.74885 0.002,0.24168 0.0806,0.44714 0.21843,0.55185 0.13785,0.10427 0.32381,0.0976 0.50353,-0.012 -0.29124,0.30369 -0.55809,0.67367 -0.77517,1.08459 -0.39287,0.74315 -0.61607,1.60297 -0.60746,2.34754 0.008,0.74469 0.25577,1.36282 0.67405,1.67101 0.41811,0.30819 0.99105,0.29403 1.56108,-0.0231 0.35621,-0.19887 0.7068,-0.51321 1.01543,-0.9024 l -0.71703,1.51791 -5.34996,0.34111 3.17613,-7.87861 c 1.24776,-0.66039 2.41043,-0.98175 3.53507,-0.9722 z m -25.41369,3.25279 1.36533,0.57577 2.53491,11.90057 c -0.25621,-0.0779 -0.52374,-0.12051 -0.79649,-0.12051 -0.23225,0 -0.46039,0.0318 -0.68104,0.0889 l -2.42271,-12.44462 z m 3.18467,1.34296 1.45084,0.61165 1.96094,10.1332 c -0.23292,-0.0647 -0.47437,-0.0988 -0.72017,-0.0988 -0.14009,0 -0.27846,0.012 -0.41479,0.0329 l -2.27674,-10.67978 z m 2.69151,12.27219 c 0.32936,0 0.70407,0.16881 0.97809,0.49236 0.2741,0.32345 0.46321,0.84336 0.46245,1.3468 8.6e-4,0.50355 -0.18843,1.02324 -0.46237,1.3469 -0.13001,0.15355 -0.28271,0.27087 -0.44232,0.35319 l -0.52374,0.10094 c 0.17956,-0.44967 0.27147,-0.93818 0.27096,-1.43483 v 0 c 3.4e-4,-0.32179 -0.0385,-0.64052 -0.11442,-0.94729 a 0.80995587,0.81010853 0 0 0 -0.0165,-0.19163 l -0.22645,-1.06231 c 0.0247,0 0.0497,-0.012 0.0742,-0.012 z m -2.77243,0.36669 c 0.32944,0 0.70424,0.16869 0.97834,0.49236 0.27403,0.32366 0.46296,0.84335 0.46227,1.3468 6.9e-4,0.50366 -0.18842,1.02335 -0.46235,1.3469 -0.2741,0.32367 -0.64882,0.49258 -0.97834,0.49258 -0.32935,0 -0.70194,-0.16902 -0.97596,-0.49258 -0.27402,-0.32344 -0.46534,-0.84324 -0.46465,-1.3469 -6.9e-4,-0.50345 0.19063,-1.02314 0.46465,-1.3468 0.27402,-0.32367 0.64661,-0.49236 0.97596,-0.49236 z m -2.94107,0.90306 c -0.0742,0.30358 -0.11221,0.61836 -0.11187,0.9361 v 0 c -8.6e-4,0.8844 0.29073,1.74279 0.84858,2.40143 0.0715,0.0834 0.1469,0.16452 0.22576,0.24025 l -9.25779,2.95942 0.0667,-4.75149 8.22865,-1.7879 z"
       id="path1392" />
  </g>
</svg>
