<?xml version="1.0" encoding="UTF-8" standalone="no"?>
<svg
   xmlns:dc="http://purl.org/dc/elements/1.1/"
   xmlns:cc="http://creativecommons.org/ns#"
   xmlns:rdf="http://www.w3.org/1999/02/22-rdf-syntax-ns#"
   xmlns:svg="http://www.w3.org/2000/svg"
   xmlns="http://www.w3.org/2000/svg"
   xmlns:sodipodi="http://sodipodi.sourceforge.net/DTD/sodipodi-0.dtd"
   xmlns:inkscape="http://www.inkscape.org/namespaces/inkscape"
   width="450"
   height="325"
   viewBox="0 0 450.00001 325"
   id="svg5199"
   version="1.1"
   inkscape:version="1.0.1 (3bc2e813f5, 2020-09-07)"
   sodipodi:docname="big-guard.svg">
  <defs
     id="defs5201" />
  <sodipodi:namedview
     id="base"
     pagecolor="#ffffff"
     bordercolor="#666666"
     borderopacity="1.0"
     inkscape:pageopacity="0.0"
     inkscape:pageshadow="2"
     inkscape:zoom="3.959798"
     inkscape:cx="191.40401"
     inkscape:cy="215.62437"
     inkscape:document-units="px"
     inkscape:current-layer="layer1"
     showgrid="false"
     units="px"
     borderlayer="true"
     inkscape:window-width="1920"
     inkscape:window-height="1017"
     inkscape:window-x="-8"
     inkscape:window-y="-8"
     inkscape:window-maximized="1"
     inkscape:document-rotation="0" />
  <metadata
     id="metadata5204">
    <rdf:RDF>
      <cc:Work
         rdf:about="">
        <dc:format>image/svg+xml</dc:format>
        <dc:type
           rdf:resource="http://purl.org/dc/dcmitype/StillImage" />
        <dc:title />
      </cc:Work>
    </rdf:RDF>
  </metadata>
  <g
     inkscape:label="Layer 1"
     inkscape:groupmode="layer"
     id="layer1"
     transform="translate(0,-727.36216)">
    <circle
       r="53.02021"
       cy="908.91199"
       cx="58.699631"
       id="circle4163-4"
       style="fill:#000000;stroke:none;stroke-width:8.57782;stroke-miterlimit:4;stroke-dasharray:none;stroke-opacity:1" />
    <path
       sodipodi:nodetypes="scccccscs"
       inkscape:connector-curvature="0"
       d="m 341.84337,784.03128 c 31.25415,1.39033 63.46877,26.26752 64.03488,48.53684 l 25.23447,-6.22385 -33.1314,64.35489 -47.43755,-44.49627 27.40987,-6.75464 c 4.79605,-21.66765 -49.61759,-29.87381 -55.17883,-30.04056 -5.91969,-0.17757 -38.18704,-3.09119 -77.08719,19.84748 33.17904,-42.81218 57.11732,-46.96055 96.15575,-45.22389 z"
       id="path5102"
       style="fill:#000000;fill-opacity:1;stroke:none;stroke-width:0.941362;stroke-opacity:1" />
    <circle
       r="53.02021"
       cy="948.38074"
       cx="397.48029"
       id="circle1802"
       style="fill:#000000;stroke:none;stroke-width:8.57782;stroke-miterlimit:4;stroke-dasharray:none;stroke-opacity:1" />
    <path
       style="fill:#000000;fill-opacity:1;stroke:none;stroke-width:0.941362;stroke-opacity:1"
       id="path40"
       d="m 95.816494,769.01712 c 27.762046,-14.42301 68.099326,-8.98604 79.724246,10.0167 l 18.74177,-18.00725 3.48481,72.29867 -63.33026,-14.81612 20.36033,-19.55463 c -6.68033,-21.16276 -57.906998,-1.06268 -62.806549,1.57353 -5.215386,2.80607 -34.616541,16.41647 -56.835724,55.73202 7.327801,-53.66596 25.984775,-69.22769 60.661377,-87.24292 z"
       inkscape:connector-curvature="0"
       sodipodi:nodetypes="scccccscs" />
    <g
       transform="translate(-0.03675726,11.403332)"
       id="g51">
      <g
         transform="translate(219.19324,-51.669672)"
         style="font-style:normal;font-variant:normal;font-weight:normal;font-stretch:normal;font-size:24px;line-height:1.25;font-family:'Archivo Black';-inkscape-font-specification:'Archivo Black, ';letter-spacing:0px;word-spacing:0px;fill:#ffffff;fill-opacity:1;stroke:none"
         id="text44"
         aria-label="2x">
        <path
           id="path46"
           d="m -170.26743,973.06218 c -4.728,0 -7.08,2.208 -7.08,5.592 0,0.168 0,0.336 0.024,0.528 h 4.272 v -0.48 c 0,-1.296 0.84,-2.256 2.328,-2.256 1.464,0 2.064,0.84 2.064,1.752 0,1.56 -2.688,2.904 -6.432,6.24 -1.344,1.2 -2.304,2.472 -2.304,4.272 v 1.152 h 13.68 v -4.056 h -7.224 c 3.408,-2.448 7.032,-4.2 7.032,-7.776 0,-3 -2.448,-4.968 -6.36,-4.968 z" />
        <path
           id="path48"
           d="m -151.40418,983.26218 4.464,-6.072 h -5.28 l -2.016,3.36 h -0.096 l -2.016,-3.36 h -5.616 l 4.392,5.952 -4.872,6.72 h 5.304 l 2.424,-3.984 h 0.096 l 2.4,3.984 h 5.568 z" />
      </g>
      <path
         id="path15149"
         d="m 58.736391,856.82478 c -2.823414,0 -4.697007,1.41303 -7.21028,2.81288 -2.382141,1.32723 -5.376549,2.46488 -9.599479,1.60058 -2.004044,2.00853 -4.040109,4.01731 -6.211368,5.378 -1.776769,1.1137 -3.773489,1.77712 -5.765072,1.46334 0.571431,4.50801 3.301575,8.91754 6.155493,11.22566 7.526248,-2.50075 15.071355,-3.75169 22.61647,-3.75169 7.55202,0 15.103898,1.25348 22.637067,3.75878 2.856899,-2.30621 5.591494,-6.72018 6.163362,-11.23275 -1.991168,0.3134 -3.988175,-0.3504 -5.765079,-1.46283 -2.171267,-1.3612 -4.207045,-3.36998 -6.211376,-5.37851 -4.222501,0.8643 -7.217467,-0.27208 -9.599336,-1.6002 -2.513666,-1.40074 -4.387129,-2.81326 -7.210402,-2.81326 z m -0.01483,2.63432 c 2.664073,0 7.148443,3.60949 7.148443,3.60949 0,0 -2.852985,10.83026 -7.148443,10.83026 -4.295752,0 -7.148846,-10.83026 -7.148846,-10.83026 0,0 4.484779,-3.60949 7.148846,-3.60949 z m 0,18.51143 c -7.097456,0 -14.195321,1.16362 -21.310116,3.46984 -0.293175,1.8159 0.202956,3.16543 1.270132,4.41308 1.191192,1.39288 3.190771,2.57539 5.560696,3.46604 4.74055,1.78168 10.887783,2.41254 14.479424,2.41254 3.591504,0 9.738456,-0.63086 14.478735,-2.41254 2.370333,-0.89065 4.369503,-2.07278 5.56071,-3.46604 1.067541,-1.24765 1.563866,-2.5968 1.27054,-4.41308 -7.114824,-2.30622 -14.21268,-3.46984 -21.309985,-3.46984 z m -23.28949,7.70436 c -1.320447,0.32164 -3.62094,1.04817 -4.03414,2.29088 -1.129779,3.39684 2.274726,8.60084 4.849427,11.88376 -0.709377,-2.96673 -1.091796,-6.12228 -1.091796,-9.39366 0,-1.62543 0.09488,-3.22196 0.276544,-4.78098 z m 46.57844,0 a 41.124137,41.23565 0 0 1 0.276473,4.7806 c 0,3.27176 -0.382311,6.42731 -1.091795,9.39404 2.574701,-3.28292 5.979206,-8.48692 4.849427,-11.88376 -0.413079,-1.24271 -2.713836,-1.97 -4.033875,-2.29088 z m -44.370988,2.58451 c -0.04071,0.72489 -0.06377,1.45675 -0.06377,2.19609 0,8.00407 2.437478,15.22813 6.305892,20.39741 3.8683,5.16978 9.102331,8.26564 14.84001,8.26564 5.737413,0 10.971572,-3.09586 14.839729,-8.26564 3.868157,-5.16928 6.305491,-12.39296 6.305491,-20.39741 0,-0.73934 -0.02336,-1.4712 -0.06377,-2.19647 -1.10253,1.03208 -2.448993,1.86989 -3.930552,2.56588 0.574032,2.45373 -0.03569,5.50549 -1.626519,7.09949 -2.927426,2.93415 -9.492466,2.93415 -12.420028,0 -0.906688,-0.90916 -1.295619,-2.35729 -1.244351,-3.81074 -0.663283,0 -1.290604,0.0583 -1.860308,0.0583 -0.569849,0 -1.197319,0 -1.860716,-0.0583 0.05145,1.45345 -0.337529,2.90158 -1.244366,3.81074 -2.927563,2.93415 -9.492473,2.93415 -12.419907,0 -1.590707,-1.594 -2.200545,-4.64576 -1.626506,-7.09911 -1.481543,-0.69599 -2.828422,-1.53342 -3.930544,-2.56588 z m 21.08203,15.88903 c 3.104947,4.97931 9.314551,5.60193 12.419483,5.60193 -3.104795,2.48971 -12.419339,2.48971 -12.419339,0 0,2.48971 -9.315097,2.48971 -12.420036,0 3.104939,0 9.314953,-0.62262 12.420036,-5.60193 z"
         style="fill:#ffffff;fill-opacity:1;stroke-width:1.75904"
         inkscape:connector-curvature="0" />
    </g>
    <path
       id="path59"
       d="m 397.48029,911.49562 c -3.34357,0 -5.56234,1.67336 -8.53863,3.3311 -2.82101,1.57174 -6.36708,2.91898 -11.368,1.89545 -2.37325,2.37857 -4.78443,4.75742 -7.3557,6.36881 -2.1041,1.31887 -4.46868,2.10451 -6.82717,1.73293 0.6767,5.33852 3.90983,10.56042 7.28952,13.29376 8.91282,-2.96147 17.84797,-4.44287 26.78312,-4.44287 8.94333,0 17.8865,1.48441 26.80751,4.45126 3.38323,-2.73108 6.62163,-7.95824 7.29884,-13.30216 -2.35799,0.37114 -4.72291,-0.41496 -6.82718,-1.73233 -2.57128,-1.61198 -4.98211,-3.99083 -7.3557,-6.3694 -5.00041,1.02353 -8.54715,-0.3222 -11.36783,-1.895 -2.97676,-1.6588 -5.19538,-3.33155 -8.53878,-3.33155 z m -0.0175,3.11964 c 3.15488,0 8.46541,4.27448 8.46541,4.27448 0,0 -3.37859,12.82552 -8.46541,12.82552 -5.08715,0 -8.46588,-12.82552 -8.46588,-12.82552 0,0 5.31101,-4.27448 8.46588,-4.27448 z m 0,21.92182 c -8.40503,0 -16.81053,1.37799 -25.23609,4.10907 -0.34718,2.15046 0.24035,3.7486 1.50413,5.22612 1.41065,1.64949 3.77861,3.04985 6.58514,4.10459 5.61391,2.10992 12.89366,2.85701 17.14699,2.85701 4.25316,0 11.53257,-0.74709 17.14616,-2.85701 2.80701,-1.05474 5.17449,-2.45465 6.58516,-4.10459 1.26421,-1.47752 1.85198,-3.07522 1.50461,-5.22612 -8.42559,-2.73109 -16.83109,-4.10907 -25.23593,-4.10907 z m -27.58012,9.12372 c -1.56372,0.3809 -4.28803,1.24128 -4.77736,2.71293 -1.33792,4.02265 2.69381,10.18538 5.74285,14.07313 -0.84007,-3.51329 -1.29295,-7.2502 -1.29295,-11.12426 0,-1.92489 0.11239,-3.81555 0.3275,-5.66178 z m 55.15961,0 a 48.700466,48.832523 0 0 1 0.32741,5.66135 c 0,3.87451 -0.45275,7.61142 -1.29293,11.12471 3.04904,-3.88774 7.08075,-10.05048 5.74284,-14.07313 -0.48918,-1.47165 -3.21381,-2.33293 -4.77704,-2.71293 z m -52.54548,3.06066 c -0.0482,0.85844 -0.0756,1.72514 -0.0756,2.60069 0,9.47865 2.88654,18.03361 7.46763,24.15524 4.58096,6.1222 10.77927,9.78842 17.574,9.78842 6.79442,0 12.99288,-3.66622 17.57366,-9.78842 4.58079,-6.12162 7.46715,-14.67613 7.46715,-24.15524 0,-0.87555 -0.0277,-1.74224 -0.0755,-2.60113 -1.30565,1.22221 -2.90017,2.21438 -4.65468,3.0386 0.67979,2.90577 -0.0423,6.51977 -1.92617,8.40742 -3.46674,3.47472 -11.24127,3.47472 -14.70817,0 -1.07373,-1.07666 -1.53431,-2.79158 -1.47361,-4.5128 -0.78548,0 -1.52837,0.069 -2.20303,0.069 -0.67483,0 -1.4179,0 -2.20352,-0.069 0.0609,1.72122 -0.39971,3.43614 -1.47362,4.5128 -3.4669,3.47472 -11.24127,3.47472 -14.70803,0 -1.88376,-1.88767 -2.60595,-5.50165 -1.92616,-8.40699 -1.75448,-0.82421 -3.3495,-1.81592 -4.65466,-3.03859 z m 24.96598,18.81629 c 3.67698,5.89665 11.03058,6.63398 14.70754,6.63398 -3.6768,2.94839 -14.70736,2.94839 -14.70736,0 0,2.94839 -11.03123,2.94839 -14.70819,0 3.67696,0 11.03105,-0.73733 14.70819,-6.63398 z"
       style="fill:#ffffff;fill-opacity:1;stroke-width:2.08311"
       inkscape:connector-curvature="0" />
    <g
       id="g20"
       transform="translate(-129.82157,9.2331771)">
      <path
         style="fill:#000000;stroke-width:1"
         d="m 344.97617,1024.4769 c -28.03651,-0.3795 -31.40662,-0.5991 -39.21643,-2.5547 -12.70274,-3.1809 -20.80851,-9.9959 -23.94355,-20.1307 -1.03481,-3.34533 -1.40823,-6.0947 -1.52795,-11.25023 -0.15237,-6.56148 0.27562,-10.55537 1.82074,-16.99087 1.31971,-5.49666 3.82288,-13.31299 6.46138,-20.17611 7.87421,-20.48197 21.0566,-39.34821 37.92447,-54.27643 1.72,-1.52221 3.32506,-3.03659 3.56679,-3.36531 3.891,-6.65426 -0.2129,-15.75093 -1.92448,-18.80402 -1.51191,-2.66147 -3.90735,-6.00123 -7.53298,-10.50268 -1.60228,-1.9893 -3.36009,-4.21461 -3.90625,-4.94502 -2.46312,-3.29428 -4.31002,-8.12488 -5.57327,-14.57701 -0.23168,-1.18334 -0.85144,-3.72654 -1.37723,-5.65167 -1.17326,-4.29565 -1.2318,-5.35106 -0.36328,-6.54998 1.04188,-1.43829 2.51762,-2.01413 4.08208,-1.59287 1.00247,0.26992 1.94244,1.08182 3.0508,2.63501 1.45532,2.03949 1.22391,1.94658 4.95132,1.9871 2.57354,0.0281 4.73268,0.22414 10.2075,0.92736 15.4861,1.98924 17.0482,1.88882 25.52491,-1.64035 6.02817,-2.50977 8.72105,-3.19239 12.51797,-3.17314 4.64492,0.0232 8.96825,1.48425 13.59373,4.5929 1.02197,0.68684 3.35442,2.25892 5.18322,3.4936 1.82879,1.23468 3.85318,2.44925 4.49864,2.69906 2.41747,0.93579 4.91964,0.7152 9.87745,-0.87082 3.1194,-0.99789 4.96975,-1.25632 6.18241,-0.86348 1.139,0.369 3.04474,1.86119 3.54836,2.7784 0.68939,1.25547 0.59187,2.45011 -0.46457,5.69079 -0.49756,1.52629 -1.16718,3.30314 -1.48805,3.94859 -1.72952,3.47912 -5.69433,7.43322 -13.84153,13.80424 -1.45228,1.13566 -4.45405,3.48376 -6.6706,5.21799 -2.21655,1.73418 -4.41698,3.62074 -4.88983,4.19224 -6.9648,10.10605 -1.93425,13.19099 3.80061,18.75274 11.04537,10.68807 24.0719,26.95995 31.85462,39.79074 5.02671,8.28716 7.8315,14.48734 11.43328,25.274 3.69177,11.05615 5.15057,18.49382 5.15153,26.2648 0.001,7.56176 -0.92536,12.69983 -3.11759,17.29293 -5.35628,11.2225 -17.74616,17.2912 -37.35421,18.2965 -3.90416,0.2002 -42.5192,0.4052 -52.04001,0.2764 z"
         id="path1040"
         sodipodi:nodetypes="sssssssccscsssscccscsscsssssssccsscsss" />
      <path
         id="path5544"
         d="m 358.95814,917.26914 v 0.0685 c -14.28778,8.88005 -39.11949,10.04392 -41.31833,10.95515 2.72098,60.67847 15.95639,69.29342 41.31833,83.09391 v 0.064 c 0.0206,0 0.0388,-0.023 0.0595,-0.037 0.0206,0.023 0.0389,0.023 0.0595,0.037 v -0.064 c 25.362,-13.80049 38.59741,-22.41544 41.31839,-83.09391 -2.1989,-0.91123 -27.03055,-2.0751 -41.31839,-10.95515 v -0.0685 c -0.018,0 -0.0406,0.0244 -0.0595,0.0367 -0.018,-0.0244 -0.0406,-0.0244 -0.0595,-0.0367 z"
         style="fill:#ffffff;fill-opacity:1;stroke:none;stroke-width:0.723946;stroke-linecap:round;stroke-linejoin:round;stroke-miterlimit:4;stroke-dasharray:none;stroke-opacity:1" />
    </g>
  </g>
</svg>
