<?xml version="1.0" encoding="UTF-8" standalone="no"?>
<!-- Created with Inkscape (http://www.inkscape.org/) -->

<svg
   xmlns:dc="http://purl.org/dc/elements/1.1/"
   xmlns:cc="http://creativecommons.org/ns#"
   xmlns:rdf="http://www.w3.org/1999/02/22-rdf-syntax-ns#"
   xmlns:svg="http://www.w3.org/2000/svg"
   xmlns="http://www.w3.org/2000/svg"
   xmlns:sodipodi="http://sodipodi.sourceforge.net/DTD/sodipodi-0.dtd"
   xmlns:inkscape="http://www.inkscape.org/namespaces/inkscape"
   width="450"
   height="325"
   viewBox="0 0 450.00001 325"
   id="svg5199"
   version="1.1"
   inkscape:version="0.92.0 r15299"
   sodipodi:docname="figure_alerts_call_it_in.svg">
  <defs
     id="defs5201" />
  <sodipodi:namedview
     id="base"
     pagecolor="#ffffff"
     bordercolor="#666666"
     borderopacity="1.0"
     inkscape:pageopacity="0.0"
     inkscape:pageshadow="2"
     inkscape:zoom="0.98994949"
     inkscape:cx="409.43095"
     inkscape:cy="142.55682"
     inkscape:document-units="px"
     inkscape:current-layer="layer1"
     showgrid="false"
     units="px"
     borderlayer="true"
     inkscape:window-width="1920"
     inkscape:window-height="1017"
     inkscape:window-x="-8"
     inkscape:window-y="-8"
     inkscape:window-maximized="1" />
  <metadata
     id="metadata5204">
    <rdf:RDF>
      <cc:Work
         rdf:about="">
        <dc:format>image/svg+xml</dc:format>
        <dc:type
           rdf:resource="http://purl.org/dc/dcmitype/StillImage" />
        <dc:title></dc:title>
      </cc:Work>
    </rdf:RDF>
  </metadata>
  <g
     inkscape:label="Layer 1"
     inkscape:groupmode="layer"
     id="layer1"
     transform="translate(0,-727.36216)">
    <path
       style="fill:#000000;fill-opacity:1;stroke:none;stroke-width:1.10099995;stroke-linecap:round;stroke-linejoin:round;stroke-miterlimit:4;stroke-dasharray:none;stroke-dashoffset:0;stroke-opacity:1"
       d="m 271.47691,879.42849 -45.00361,-36.0126 1.1e-4,19.7137 -49.33997,-3.5e-4 -2.5e-4,34.25301 49.34019,1.7e-4 -1.7e-4,18.05674 z"
       id="path5066"
       inkscape:connector-curvature="0"
       sodipodi:nodetypes="cccccccc"
       inkscape:transform-center-x="6.0057264"
       inkscape:transform-center-y="-6.2153855" />
    <g
       id="g3373"
       transform="matrix(2.8725742,0,0,2.8725742,-150.8328,-1735.8667)">
      <circle
         r="23.738585"
         cy="910.43573"
         cx="78.53936"
         id="path3364"
         style="fill:#000000" />
      <g
         style="fill:#ffffff"
         transform="matrix(1.4064866,0,0,1.4064866,3.6211627,-405.17966)"
         id="g3358">
        <path
           style="fill:#ffffff;fill-opacity:1;stroke-linecap:round;stroke-linejoin:round"
           inkscape:connector-curvature="0"
           id="path5114"
           d="m 45.412163,935.41454 1.136699,5.83817 -4.189297,0.91149 c -0.155568,0.0336 -0.267394,0.17031 -0.269619,0.3297 l -0.03816,2.75358 c -0.0037,0.23342 0.222757,0.40148 0.444882,0.3308 l 5.265384,-1.68567 0.867212,-0.16845 c 0.0063,1.3e-4 0.01262,0 0.01893,0 0.357932,0 0.694973,-0.17078 0.930383,-0.4491 0.235211,-0.27816 0.358264,-0.64057 0.357899,-1.01398 l 0,0 c 1.99e-4,-0.23674 -0.04932,-0.46946 -0.145405,-0.67893 l -0.908562,-4.70167 z m 0.759006,0.31967 0.575673,0.24312 1.068846,5.02519 c -0.108041,-0.0333 -0.22083,-0.0508 -0.335845,-0.0508 -0.09791,0 -0.194128,0.0133 -0.287156,0.0374 l -1.021518,-5.25492 z m 1.342783,0.56704 0.611775,0.25833 0.826826,4.27894 c -0.09821,-0.0269 -0.200039,-0.0415 -0.303662,-0.0415 -0.05908,0 -0.117406,0.006 -0.174897,0.014 l -0.959976,-4.50973 z m 1.134906,5.18222 c 0.138861,0 0.296853,0.0712 0.4124,0.20785 0.115579,0.13663 0.195289,0.3561 0.194991,0.56876 0,0.21263 -0.07944,0.4321 -0.194958,0.56873 -0.05487,0.0648 -0.1192,0.11439 -0.186522,0.14916 l -0.22083,0.0427 c 0.07572,-0.18991 0.114484,-0.39616 0.114251,-0.60593 l 0,0 c 1.33e-4,-0.13591 -0.01627,-0.27045 -0.04826,-0.39995 0,-0.0272 0,-0.0544 -0.007,-0.081 l -0.09549,-0.44857 0.03122,0 z m -1.169015,0.15484 c 0.138928,0 0.296953,0.0712 0.412533,0.20784 0.115546,0.13664 0.19519,0.35617 0.194891,0.5688 0,0.21263 -0.07944,0.4321 -0.194925,0.56877 -0.115579,0.13663 -0.273571,0.20787 -0.412533,0.20787 -0.138861,0 -0.295957,-0.0713 -0.411503,-0.20787 -0.115546,-0.13667 -0.19622,-0.35614 -0.195921,-0.56877 0,-0.21263 0.08037,-0.43216 0.195921,-0.5688 0.115546,-0.13667 0.272642,-0.20784 0.411503,-0.20784 z m -1.24009,0.38131 c -0.03122,0.12817 -0.04733,0.26109 -0.04716,0.39533 l 0,0 c 0,0.37338 0.122588,0.73586 0.357832,1.01401 0.03022,0.0356 0.06191,0.0695 0.09519,0.1014 l -3.903536,1.24966 0.02823,-2.00637 3.469582,-0.75496 z"
           sodipodi:nodetypes="ccccccccscccccccccsccccccsccccccccccccccccscccscccssccccccccc" />
        <path
           d="m 64.037656,934.35413 c 0.211663,-0.48971 0.363278,-1.03583 0.439468,-1.64654 l 0.0033,-0.005 c 0,-0.006 0,-0.0126 0,-0.0189 2.33e-4,-0.005 0,-0.01 1.99e-4,-0.0153 1.66e-4,-0.006 -2.99e-4,-0.0126 0,-0.0189 -2.99e-4,-0.005 0,-0.0103 0,-0.0156 0,-0.007 -0.0033,-0.013 -0.0033,-0.0193 0,-0.005 -0.0033,-0.01 -0.0033,-0.0146 0,-0.006 -0.0033,-0.0126 -0.0046,-0.0189 0,-0.005 -0.0033,-0.01 -0.004,-0.0143 -0.0033,-0.006 -0.004,-0.0123 -0.006,-0.0183 -0.0033,-0.005 -0.0037,-0.009 -0.0053,-0.0139 -0.0033,-0.006 -0.0053,-0.012 -0.008,-0.0179 -0.0033,-0.004 -0.004,-0.008 -0.006,-0.0123 -0.0033,-0.006 -0.007,-0.0123 -0.01063,-0.0179 -0.0033,-0.004 -0.0046,-0.008 -0.007,-0.0116 -0.004,-0.005 -0.0076,-0.011 -0.01162,-0.0159 -0.0033,-0.003 -0.006,-0.008 -0.009,-0.0116 -0.004,-0.005 -0.0086,-0.01 -0.01329,-0.0149 -0.0037,-0.004 -0.0066,-0.007 -0.01,-0.0106 -0.0046,-0.005 -0.0096,-0.009 -0.01461,-0.0133 -0.0033,-0.003 -0.007,-0.007 -0.01096,-0.01 -0.0066,-0.005 -0.01295,-0.0106 -0.02026,-0.0153 l -3.374561,-2.34055 c -0.133381,-0.0925 -0.313327,-0.0782 -0.430534,0.0341 l -2.31146,2.21651 -2.721402,2.60841 -3.544343,3.39884 -0.0033,0.005 c -0.0047,0.005 -0.0093,0.01 -0.01428,0.0153 -0.0037,0.003 -0.007,0.006 -0.0103,0.009 -0.0047,0.005 -0.009,0.0103 -0.01329,0.0156 -0.004,0.004 -0.0076,0.008 -0.01129,0.0113 -0.0033,0.005 -0.0046,0.0106 -0.007,0.0159 -0.0033,0.005 -0.0046,0.0106 -0.007,0.0159 -0.0033,0.005 -0.004,0.009 -0.006,0.0143 -0.0033,0.006 -0.0053,0.0116 -0.008,0.0176 -0.0033,0.004 -0.0037,0.008 -0.0047,0.0123 l -1.016137,2.832 c -0.04165,0.11724 -0.01661,0.24787 0.06569,0.34116 l 2.807888,3.19863 2.66e-4,0 6.6e-5,4e-5 0,0 c 0.134212,0.15583 0.374471,0.15842 0.512104,0.006 0.251984,-0.19635 0.465009,-0.41847 0.643726,-0.66096 l 8.336115,-8.4672 c 0.007,-0.007 0.01362,-0.0149 0.01993,-0.0229 0.316881,-0.38517 0.588825,-0.81846 0.800622,-1.30814 z m -0.07682,-1.06695 c -0.0176,0.0419 -0.04364,0.0799 -0.07616,0.11166 l -7.994292,7.94335 c -0.117871,0.11724 -0.302832,0.13261 -0.438372,0.0365 -0.01129,-0.0159 -0.02425,-0.0305 -0.0381,-0.0442 l -0.05639,-0.0572 c -0.08217,-0.13521 -0.06108,-0.30924 0.05101,-0.42084 l 7.995355,-7.94284 c 0.264571,-0.267 0.70291,0.0272 0.557074,0.37384 z m -9.334717,9.97386 c -0.0628,0.1454 -0.141485,0.28201 -0.233085,0.4117 l -0.399115,0.40539 -1.315715,-1.49868 c 0.120894,0.0882 0.247002,0.16108 0.372113,0.21363 0.289481,0.12159 0.5682,0.13082 0.757412,0.0202 0.189212,-0.11046 0.281643,-0.33654 0.254209,-0.61077 -0.007,-0.0678 -0.02092,-0.1387 -0.04132,-0.21037 0.0186,0.0322 0.03979,0.0639 0.0646,0.0942 0.07074,0.0862 0.164269,0.15935 0.257995,0.19888 0.09399,0.0394 0.186488,0.0437 0.250057,0.008 0.03188,-0.0179 0.05537,-0.0443 0.06925,-0.0779 0.01395,-0.0335 0.0186,-0.0743 0.01395,-0.11774 -0.01,-0.0871 -0.05796,-0.18519 -0.128799,-0.27158 -0.07097,-0.0863 -0.164169,-0.15939 -0.258127,-0.19881 -0.09392,-0.0394 -0.186422,-0.0437 -0.250024,-0.008 -0.06324,0.036 -0.09223,0.10904 -0.08429,0.19519 -0.06882,-0.16384 -0.167258,-0.32927 -0.289979,-0.48235 -0.221826,-0.27689 -0.517086,-0.50752 -0.806666,-0.62901 -0.289447,-0.12159 -0.57006,-0.1293 -0.759272,-0.0189 -0.189278,0.1104 -0.279749,0.33485 -0.252216,0.60908 0.01727,0.17145 0.08021,0.36003 0.179149,0.54489 l -0.467267,-0.5324 0.763523,-2.13105 2.51678,2.55196 c 0.04666,0.5944 -0.02358,1.09893 -0.215616,1.53329 z"
           id="path5116"
           inkscape:connector-curvature="0"
           style="fill:#ffffff;fill-opacity:1;stroke-linecap:round;stroke-linejoin:round"
           sodipodi:nodetypes="cccccccccccccccccccccccccccccccccccccccccccccccccccccccccccccccccccccccccccccccccccccccc" />
        <path
           style="fill:#ffffff;fill-opacity:1"
           inkscape:connector-curvature="0"
           d="m 45.626782,925.18817 0.657542,4.17691 -1.703006,-0.43572 2.637341,5.77058 -0.658139,-4.17608 1.703637,0.43492 -2.637508,-5.77068 z"
           id="path5118"
           sodipodi:nodetypes="cccccccc" />
        <path
           sodipodi:nodetypes="cccccccc"
           id="path5120"
           d="m 55.36885,926.48705 -2.351049,3.51206 -0.953831,-1.47876 -1.9796,6.02877 2.35002,-3.51186 0.954927,1.47866 1.9795,-6.029 z"
           inkscape:connector-curvature="0"
           style="fill:#ffffff;fill-opacity:1" />
      </g>
    </g>
    <g
       id="g3368"
       transform="matrix(2.8725742,0,0,2.8725742,-298.05223,-1728.6852)">
      <circle
         style="fill:#000000"
         id="circle3366"
         cx="233.8965"
         cy="907.93573"
         r="23.738585" />
      <g
         inkscape:label="Layer 1"
         id="g5072"
         transform="matrix(0.74008615,0,0,0.74192129,2.2021507,337.83355)"
         style="fill:#ffffff;fill-opacity:1">
        <path
           inkscape:connector-curvature="0"
           style="fill:#ffffff;fill-opacity:1"
           d="m 313.06408,745.03564 c 2.12484,0 3.53493,1.0606 5.42645,2.1113 1.79267,0.996 4.04632,1.8501 7.22448,1.2011 1.50824,1.5076 3.04056,3.01551 4.67467,4.03681 1.33724,0.8358 2.83991,1.3336 4.33873,1.0984 -0.43002,3.3835 -2.48465,6.6932 -4.63257,8.4257 -5.66423,-1.8772 -11.34264,-2.8162 -17.02104,-2.8162 -5.68366,0 -11.36722,0.9408 -17.03662,2.8213 -2.15015,-1.731 -4.20821,-5.044 -4.63854,-8.4308 1.49852,0.2354 3.00149,-0.2626 4.33873,-1.0983 1.63411,-1.0213 3.16623,-2.52911 4.67467,-4.03671 3.17786,0.6489 5.43182,-0.2053 7.22448,-1.2011 1.89172,-1.0512 3.30171,-2.1115 5.42656,-2.1115 z m 0.0106,1.977 c -2.00495,0 -5.37992,2.7095 -5.37992,2.7095 0,0 2.14711,8.12861 5.37992,8.12861 3.233,0 5.38011,-8.12861 5.38011,-8.12861 0,0 -3.37517,-2.7095 -5.38011,-2.7095 z m 0,13.89451 c 5.34146,0 10.68333,0.8733 16.03794,2.6039 0.22058,1.363 -0.15279,2.3758 -0.95598,3.3124 -0.89648,1.0454 -2.40128,1.9329 -4.18494,2.6013 -3.56772,1.3375 -8.19412,1.8108 -10.89712,1.8108 -2.70291,0 -7.32911,-0.4733 -10.89673,-1.8107 -1.78386,-0.6684 -3.28845,-1.5558 -4.18494,-2.6014 -0.80339,-0.9366 -1.17696,-1.9492 -0.95618,-3.3123 5.35462,-1.7307 10.69638,-2.604 16.03785,-2.604 z m 17.52766,5.7823 c 0.99362,0.241 2.72507,0.7866 3.03611,1.7195 0.85014,2.5495 -1.71202,6.455 -3.64968,8.9193 0.53384,-2.2265 0.8216,-4.5948 0.8216,-7.0505 0,-1.22 -0.0714,-2.4182 -0.20803,-3.5883 z m -35.05492,0 a 30.949923,30.949923 0 0 0 -0.20804,3.5882 c 0,2.4557 0.28767,4.824 0.82161,7.0505 -1.93766,-2.4643 -4.49992,-6.3698 -3.64968,-8.9193 0.31094,-0.9329 2.04249,-1.4785 3.036,-1.7195 z m 33.39349,1.9398 c 0.0309,0.5441 0.0481,1.0934 0.0481,1.6483 0,6.0077 -1.83445,11.4294 -4.74579,15.3096 -2.91125,3.88 -6.85041,6.2038 -11.16861,6.2038 -4.31789,0 -8.25715,-2.3238 -11.1683,-6.2038 -2.91124,-3.8802 -4.74549,-9.3018 -4.74549,-15.3095 0,-0.5551 0.0172,-1.1044 0.048,-1.6485 0.8297,0.7747 1.84315,1.4032 2.95809,1.9255 -0.43205,1.8416 0.0269,4.1322 1.22411,5.3289 2.20317,2.2022 7.14405,2.2022 9.34731,0 0.68238,-0.6823 0.9751,-1.7694 0.93645,-2.8602 0.49924,0.022 0.97136,0.033 1.40007,0.033 0.42882,0 0.90104,-0.012 1.40038,-0.033 -0.0388,1.0907 0.25397,2.1779 0.93655,2.8602 2.20327,2.2022 7.14394,2.2022 9.3471,0 1.1972,-1.1967 1.65617,-3.487 1.22412,-5.3285 1.11504,-0.5223 2.12869,-1.1511 2.95819,-1.9258 z m -15.86623,11.926 c -2.33673,3.7373 -7.01018,4.2044 -9.3469,4.2044 2.33662,1.8688 9.3468,1.8688 9.3468,0 0,1.8688 7.01047,1.8688 9.3473,0 -2.33683,0 -7.01048,-0.4671 -9.3473,-4.2044 z"
           id="path5074" />
      </g>
    </g>
  </g>
</svg>
