<?xml version="1.0" encoding="UTF-8" standalone="no"?>
<svg
   xmlns:dc="http://purl.org/dc/elements/1.1/"
   xmlns:cc="http://creativecommons.org/ns#"
   xmlns:rdf="http://www.w3.org/1999/02/22-rdf-syntax-ns#"
   xmlns:svg="http://www.w3.org/2000/svg"
   xmlns="http://www.w3.org/2000/svg"
   xmlns:sodipodi="http://sodipodi.sourceforge.net/DTD/sodipodi-0.dtd"
   xmlns:inkscape="http://www.inkscape.org/namespaces/inkscape"
   sodipodi:docname="caught-in-a-reflection.svg"
   inkscape:version="1.0 (4035a4fb49, 2020-05-01)"
   version="1.1"
   id="svg5199"
   viewBox="0 0 450.00001 325"
   height="325"
   width="450">
  <defs
     id="defs5201" />
  <sodipodi:namedview
     inkscape:document-rotation="0"
     inkscape:window-maximized="1"
     inkscape:window-y="-8"
     inkscape:window-x="1912"
     inkscape:window-height="961"
     inkscape:window-width="1280"
     borderlayer="true"
     units="px"
     showgrid="false"
     inkscape:current-layer="g929"
     inkscape:document-units="px"
     inkscape:cy="104.38918"
     inkscape:cx="156.36963"
     inkscape:zoom="2.8"
     inkscape:pageshadow="2"
     inkscape:pageopacity="0.0"
     borderopacity="1.0"
     bordercolor="#666666"
     pagecolor="#ffffff"
     id="base" />
  <metadata
     id="metadata5204">
    <rdf:RDF>
      <cc:Work
         rdf:about="">
        <dc:format>image/svg+xml</dc:format>
        <dc:type
           rdf:resource="http://purl.org/dc/dcmitype/StillImage" />
        <dc:title />
      </cc:Work>
    </rdf:RDF>
  </metadata>
  <g
     transform="translate(0,-727.36216)"
     id="layer1"
     inkscape:groupmode="layer"
     inkscape:label="Layer 1">
    <g
       transform="matrix(0.34784466,0,0,0.34784466,7.0813324,805.72729)"
       style="stroke-width:2.87485;stroke:#000000;stroke-opacity:1"
       id="g24"
       class="" />
    <g
       transform="translate(20.20305,-12.58106)"
       id="g929">
      <path
         sodipodi:type="star"
         style="font-style:normal;font-weight:normal;font-size:medium;line-height:125%;font-family:sans-serif;letter-spacing:0px;word-spacing:0px;fill:#b3b3b3;fill-opacity:1;stroke:#000000;stroke-width:0.665951;stroke-linecap:butt;stroke-linejoin:round;stroke-miterlimit:4;stroke-dasharray:none;stroke-dashoffset:0;stroke-opacity:1"
         id="path5084-7"
         sodipodi:sides="6"
         sodipodi:cx="389.90088"
         sodipodi:cy="1102.7913"
         sodipodi:r1="11.162703"
         sodipodi:r2="9.6671848"
         sodipodi:arg1="-1.0471976"
         sodipodi:arg2="-0.52359878"
         inkscape:flatsided="true"
         inkscape:rounded="0"
         inkscape:randomized="0"
         transform="matrix(5.3036155,3.0593124,-3.0621977,5.299151,1380.3424,-6185.7427)"
         d="m 395.48223,1093.1241 5.58135,9.6672 -5.58135,9.6671 -11.1627,0 -5.58135,-9.6671 5.58135,-9.6672 z" />
      <path
         transform="matrix(5.3036155,3.0593124,-3.0621977,5.299151,1380.2111,-6183.3865)"
         sodipodi:type="star"
         style="font-style:normal;font-weight:normal;font-size:medium;line-height:125%;font-family:sans-serif;letter-spacing:0px;word-spacing:0px;fill:#b3b3b3;fill-opacity:1;stroke:#000000;stroke-width:0.665951;stroke-linecap:butt;stroke-linejoin:round;stroke-miterlimit:4;stroke-dasharray:none;stroke-dashoffset:0;stroke-opacity:1"
         id="path5092-2"
         sodipodi:sides="6"
         sodipodi:cx="407.40814"
         sodipodi:cy="1113.0243"
         sodipodi:r1="11.162703"
         sodipodi:r2="9.6671848"
         sodipodi:arg1="-1.0471976"
         sodipodi:arg2="-0.52359878"
         inkscape:flatsided="true"
         inkscape:rounded="0"
         inkscape:randomized="0"
         d="m 412.98949,1103.3571 5.58135,9.6672 -5.58135,9.6672 -11.1627,0 -5.58135,-9.6672 5.58135,-9.6672 z" />
      <path
         id="path5096-9"
         d="m 71.590354,817.60353 c -4.067754,0 -6.993279,2.15032 -8.682923,4.85157 -1.511117,2.41534 -2.139805,5.21731 -2.262444,7.67165 -4.61128,2.27761 -9.719737,4.57456 -13.832623,6.92291 -2.157491,1.2322 -4.038494,2.47102 -5.45435,3.80242 -1.415846,1.33142 -2.460531,2.83103 -2.460531,4.5993 0,0.75288 0.36823,1.36601 0.78193,1.81629 0.415331,0.45135 0.912082,0.80003 1.478226,1.1263 1.132213,0.65214 2.559635,1.19606 4.129866,1.66724 2.332675,0.69912 4.945085,1.21927 7.216557,1.44107 -2.259307,3.89031 -5.266009,7.46262 -7.901616,10.88547 -3.045854,3.95667 -5.704963,7.75093 -5.704963,11.96599 0,0.60181 -0.0146,1.07203 0.04792,1.54466 0.05337,0.47501 0.189342,1.0611 0.664365,1.52866 0.475264,0.46542 1.057167,0.5928 1.53109,0.64399 0.473847,0.0517 0.95143,0.0517 1.563903,0.0517 h 16.804726 c 1.219849,0 2.113113,0.0766 3.032002,-0.51537 0.918997,-0.58993 1.25411,-1.396 1.908837,-2.60059 h 0.0146 l 0.0146,-0.0527 c 0,0 1.464831,-2.97584 3.21261,-5.92935 0.873778,-1.47576 1.822508,-2.94633 2.647678,-3.988 0.41343,-0.5211 0.79912,-0.9343 1.0772,-1.16759 0.0851,-0.0661 0.12414,-0.0854 0.17839,-0.11876 0.0547,0.0527 0.0931,0.0527 0.1784,0.11876 0.27784,0.2328 0.66442,0.646 1.07719,1.16759 0.82516,1.04167 1.77383,2.51224 2.64769,3.988 1.74761,2.95351 3.212603,5.92935 3.212603,5.92935 l 0.0146,0.0527 h 0.0146 c 0.65476,1.20459 0.98679,2.00597 1.89972,2.59734 0.91271,0.59129 1.80409,0.52102 3.00676,0.52102 h 16.878693 c 0.60262,0 1.07266,0 1.54331,-0.0517 0.47052,-0.0517 1.05433,-0.18047 1.52477,-0.65262 0.47002,-0.47501 0.60018,-1.05308 0.65227,-1.52339 0.0534,-0.46543 0.0475,-0.93948 0.0475,-1.54227 0,-4.21456 -2.6591,-8.00836 -5.705023,-11.96499 -2.63542,-3.42327 -5.64211,-6.99576 -7.90155,-10.88588 2.27151,-0.22334 4.88395,-0.74195 7.21653,-1.44125 1.57019,-0.47492 2.997673,-1.01454 4.129853,-1.66715 0.56615,-0.3231 1.06335,-0.67591 1.47798,-1.12573 0.41485,-0.45124 0.78221,-1.06398 0.78221,-1.81685 0,-1.76837 -1.04468,-3.26752 -2.46048,-4.5994 -1.41595,-1.33083 -3.296923,-2.57012 -5.454293,-3.80232 -4.11301,-2.34826 -9.22138,-4.64492 -13.83276,-6.923 -0.12275,-2.45426 -0.75144,-5.25624 -2.26238,-7.67157 -1.68967,-2.70136 -4.615153,-4.85157 -8.682943,-4.85157 z"
         inkscape:connector-curvature="0"
         style="fill:#4d4d4d;fill-opacity:1;stroke:none;stroke-width:0.999999;stroke-opacity:1" />
      <g
         style="stroke-width:0.905967"
         transform="matrix(1.1041718,0,0,1.1034152,236.46775,-100.46414)"
         id="g52">
        <path
           sodipodi:nodetypes="cccccccccc"
           d="m 112.29504,909.4236 c -1.79627,-0.008 -4.03987,0.48246 -6.50018,2.15837 -19.3419,13.57951 -39.01843,26.60803 -58.98889,39.24592 -3.54801,2.30308 -3.39148,5.77422 0.35376,7.7465 l 44.785,23.57031 c 1.8728,0.98614 7.79659,0.71516 11.34461,-1.58757 l 59.07585,-38.34361 c 3.54767,-2.30343 3.39148,-5.77353 -0.35272,-7.7458 -15.53787,-8.17783 -29.83811,-15.69336 -45.42086,-23.95433 0,0 -1.67069,-1.07797 -4.29657,-1.08979 z"
           fill="#ffffff"
           fill-opacity="1"
           id="path957"
           style="stroke:#000000;stroke-width:1.81193;stroke-miterlimit:4;stroke-dasharray:none;stroke-opacity:1" />
        <path
           style="stroke:#000000;stroke-width:1.81193;stroke-miterlimit:4;stroke-dasharray:none;stroke-opacity:1"
           id="path955"
           fill-opacity="1"
           fill="#ffffff"
           d="m 112.29504,905.4236 c -1.79627,-0.008 -4.03987,0.48246 -6.50018,2.15837 -19.3419,13.57951 -39.01843,26.60803 -58.98889,39.24592 -3.54801,2.30308 -3.39148,5.77422 0.35376,7.7465 l 44.785,23.57031 c 1.8728,0.98614 7.79659,0.71516 11.34461,-1.58757 l 59.07585,-38.34361 c 3.54767,-2.30343 3.39148,-5.77353 -0.35272,-7.7458 -15.53787,-8.17783 -29.83811,-15.69336 -45.42086,-23.95433 0,0 -1.67069,-1.07797 -4.29657,-1.08979 z"
           sodipodi:nodetypes="cccccccccc" />
        <path
           sodipodi:nodetypes="cccccccccc"
           d="m 112.29504,901.4236 c -1.79627,-0.008 -4.03987,0.48246 -6.50018,2.15837 -19.3419,13.57951 -39.01843,26.60803 -58.98889,39.24592 -3.54801,2.30308 -3.39148,5.77422 0.35376,7.7465 l 44.785,23.57031 c 1.8728,0.98614 7.79659,0.71516 11.34461,-1.58757 l 59.07585,-38.34361 c 3.54767,-2.30343 3.39148,-5.77353 -0.35272,-7.7458 -15.53787,-8.17783 -29.83811,-15.69336 -45.42086,-23.95433 0,0 -1.67069,-1.07797 -4.29657,-1.08979 z"
           fill="#ffffff"
           fill-opacity="1"
           id="path953"
           style="stroke:#000000;stroke-width:1.81193;stroke-miterlimit:4;stroke-dasharray:none;stroke-opacity:1" />
        <path
           style="stroke:#000000;stroke-width:1.81193;stroke-miterlimit:4;stroke-dasharray:none;stroke-opacity:1"
           id="path947"
           fill-opacity="1"
           fill="#ffffff"
           d="m 112.29504,897.4236 c -1.79627,-0.008 -4.03987,0.48246 -6.50018,2.15837 -19.3419,13.57951 -39.01843,26.60803 -58.98889,39.24592 -3.54801,2.30308 -3.39148,5.77422 0.35376,7.7465 l 44.785,23.57031 c 1.8728,0.98614 7.79659,0.71516 11.34461,-1.58757 l 59.07585,-38.34361 c 3.54767,-2.30343 3.39148,-5.77353 -0.35272,-7.7458 -15.53787,-8.17783 -29.83811,-15.69336 -45.42086,-23.95433 0,0 -1.67069,-1.07797 -4.29657,-1.08979 z"
           sodipodi:nodetypes="cccccccccc" />
        <path
           sodipodi:nodetypes="cccccccccc"
           d="m 112.29504,893.4236 c -1.79627,-0.008 -4.03987,0.48246 -6.50018,2.15837 -19.3419,13.57951 -39.01843,26.60803 -58.98889,39.24592 -3.54801,2.30308 -3.39148,5.77422 0.35376,7.7465 l 44.785,23.57031 c 1.8728,0.98614 7.79659,0.71516 11.34461,-1.58757 l 59.07585,-38.34361 c 3.54767,-2.30343 3.39148,-5.77353 -0.35272,-7.7458 -15.53787,-8.17783 -29.83811,-15.69336 -45.42086,-23.95433 0,0 -1.67069,-1.07797 -4.29657,-1.08979 z"
           fill="#ffffff"
           fill-opacity="1"
           id="path945"
           style="stroke:#000000;stroke-width:1.81193;stroke-miterlimit:4;stroke-dasharray:none;stroke-opacity:1" />
        <path
           style="stroke:#000000;stroke-width:1.81193;stroke-miterlimit:4;stroke-dasharray:none;stroke-opacity:1"
           id="path943"
           fill-opacity="1"
           fill="#ffffff"
           d="m 112.29504,889.4236 c -1.79627,-0.008 -4.03987,0.48246 -6.50018,2.15837 -19.3419,13.57951 -39.01843,26.60803 -58.98889,39.24592 -3.54801,2.30308 -3.39148,5.77422 0.35376,7.7465 l 44.785,23.57031 c 1.8728,0.98614 7.79659,0.71516 11.34461,-1.58757 l 59.07585,-38.34361 c 3.54767,-2.30343 3.39148,-5.77353 -0.35272,-7.7458 -15.53787,-8.17783 -29.83811,-15.69336 -45.42086,-23.95433 0,0 -1.67069,-1.07797 -4.29657,-1.08979 z"
           sodipodi:nodetypes="cccccccccc" />
        <path
           sodipodi:nodetypes="cccccccccc"
           d="m 112.29504,832.09744 c -1.79627,-0.008 -4.03987,0.48246 -6.50018,2.15837 -19.3419,13.57951 -39.01843,26.60803 -58.98889,39.24592 -3.54801,2.30308 -3.39148,5.77422 0.35376,7.7465 l 44.785,23.57031 c 1.8728,0.98614 7.79659,0.71516 11.34461,-1.58757 l 59.07585,-38.34361 c 3.54767,-2.30343 3.39148,-5.77353 -0.35272,-7.7458 -15.53787,-8.17783 -29.83811,-15.69336 -45.42086,-23.95433 0,0 -1.67069,-1.07797 -4.29657,-1.08979 z"
           fill="#ffffff"
           fill-opacity="1"
           id="path941"
           style="stroke:#000000;stroke-width:1.81193;stroke-miterlimit:4;stroke-dasharray:none;stroke-opacity:1" />
        <path
           inkscape:connector-curvature="0"
           id="path3444"
           style="font-style:normal;font-weight:normal;font-size:medium;line-height:125%;font-family:sans-serif;letter-spacing:0px;word-spacing:0px;fill:#000000;fill-opacity:1;stroke:none;stroke-width:0.905967px;stroke-linecap:butt;stroke-linejoin:miter;stroke-opacity:1"
           d="M 111.39701,881.21898 77.51962,865.24443 q -0.35419,-0.16701 -0.44342,-0.41079 -0.0684,-0.23395 0.0484,-0.46127 0.11676,-0.22732 0.44072,-0.3973 0.30369,-0.15935 0.79433,-0.25073 l 46.11322,-7.34124 q 0.45012,-0.0701 0.88354,-0.007 0.43348,0.0631 0.76685,0.22033 0.33336,0.15719 0.48325,0.36914 0.14988,0.21194 0.0332,0.43923 l -12.23583,23.31579 q -0.15727,0.24857 -0.46097,0.40793 -0.32395,0.16997 -0.77408,0.24009 -0.45012,0.0701 -0.94426,0.0388 -0.47332,-0.0215 -0.82752,-0.18851 z m -29.11903,-16.31258 29.50209,13.91141 10.638,-20.27725 z m 24.05837,4.00252 -3.87526,-1.82734 11.2368,-5.8959 3.87526,1.82733 z m -3.10147,2.20851 q -0.52642,0.27622 -1.18016,0.41167 -0.63296,0.1453 -1.33135,0.15889 -0.65728,0.0128 -1.31811,-0.0971 -0.64059,-0.12054 -1.16146,-0.36615 -0.52087,-0.24561 -0.79702,-0.55735 -0.25589,-0.32238 -0.26533,-0.64952 0.0109,-0.3378 0.26877,-0.65994 0.25789,-0.32212 0.7843,-0.59833 0.50616,-0.26558 1.15934,-0.42149 0.6532,-0.15592 1.31051,-0.1687 0.67754,-0.0234 1.33836,0.0865 0.66082,0.1099 1.1817,0.35551 0.52086,0.24562 0.77677,0.56799 0.2559,0.32237 0.24509,0.66015 0.0302,0.33699 -0.24794,0.66976 -0.25731,0.34257 -0.76347,0.60815 z" />
      </g>
      <g
         transform="translate(-294.38022,-169.91598)"
         id="g51">
        <path
           inkscape:transform-center-y="-3.7857682"
           inkscape:transform-center-x="3.6560491"
           sodipodi:nodetypes="cccccccc"
           inkscape:connector-curvature="0"
           id="path15147-5"
           d="m 550.04848,1070.6903 -27.39675,-21.9353 -2.2e-4,12.0075 h -30.03699 l 9e-5,20.8646 h 30.03698 l -5e-5,10.9985 z"
           style="fill:#000000;fill-opacity:1;stroke:none;stroke-width:1.101;stroke-linecap:round;stroke-linejoin:round;stroke-miterlimit:4;stroke-dasharray:none;stroke-dashoffset:0;stroke-opacity:1" />
        <text
           xml:space="preserve"
           style="font-style:normal;font-variant:normal;font-weight:normal;font-stretch:normal;font-size:24px;line-height:1.25;font-family:'Archivo Black';-inkscape-font-specification:'Archivo Black, ';letter-spacing:0px;word-spacing:0px;fill:#ffffff;fill-opacity:1;stroke:none"
           x="496.74249"
           y="1079.2109"
           id="text46"><tspan
             sodipodi:role="line"
             id="tspan44"
             x="496.74249"
             y="1079.2109">1x</tspan></text>
      </g>
      <g
         transform="translate(4.9048821,2.8278311)"
         id="g93">
        <ellipse
           cy="958.25824"
           cx="-127.74193"
           id="path4151-3"
           style="fill:#000000;stroke:none;stroke-width:4.16408;stroke-miterlimit:4;stroke-dasharray:none;stroke-opacity:1"
           transform="scale(-1,1)"
           rx="33.453377"
           ry="33.462631" />
        <path
           inkscape:connector-curvature="0"
           style="font-variation-settings:normal;vector-effect:none;fill:#ffffff;fill-opacity:1;stroke-width:0.578048;stroke-linecap:butt;stroke-linejoin:miter;stroke-miterlimit:4;stroke-dasharray:none;stroke-dashoffset:0;stroke-opacity:1;stop-color:#000000"
           d="m 115.01595,938.96533 c -1.259,-4.3e-4 -2.58377,0.18219 -3.9777,0.58902 a 0.80705977,0.80721191 0 0 0 -0.0123,0.012 0.80705977,0.80721191 0 0 0 -0.0422,0.0143 0.80705977,0.80721191 0 0 0 -0.0331,0.012 0.80705977,0.80721191 0 0 0 -0.0399,0.0197 0.80705977,0.80721191 0 0 0 -0.0325,0.0164 0.80705977,0.80721191 0 0 0 -0.0393,0.023 0.80705977,0.80721191 0 0 0 -0.029,0.0196 0.80705977,0.80721191 0 0 0 -0.0368,0.0263 0.80705977,0.80721191 0 0 0 -0.0275,0.0218 0.80705977,0.80721191 0 0 0 -0.0337,0.0307 0.80705977,0.80721191 0 0 0 -0.0252,0.0241 0.80705977,0.80721191 0 0 0 -0.0315,0.034 0.80705977,0.80721191 0 0 0 -0.021,0.0252 0.80705977,0.80721191 0 0 0 -0.029,0.0383 0.80705977,0.80721191 0 0 0 -0.0182,0.0262 0.80705977,0.80721191 0 0 0 -0.024,0.0405 0.80705977,0.80721191 0 0 0 -0.0164,0.0295 0.80705977,0.80721191 0 0 0 -0.0198,0.0426 0.80705977,0.80721191 0 0 0 -0.0133,0.0317 0.80705977,0.80721191 0 0 0 -0.0151,0.0426 0.80705977,0.80721191 0 0 0 -0.0103,0.0328 0.80705977,0.80721191 0 0 0 -0.0144,0.0591 l -1.90228,9.51342 a 0.80705977,0.80721191 0 0 0 0.47786,0.9018 l 6.96815,2.93812 2.68624,13.77644 -9.89999,2.15083 a 0.80705977,0.80721191 0 0 0 -0.63715,0.77789 l -0.0902,6.49777 a 0.80705977,0.80721191 0 0 0 1.05131,0.78038 l 12.44299,-3.9776 2.04933,-0.39743 c 0.0151,0 0.03,0 0.045,0 0.84579,0 1.64233,-0.4029 2.1986,-1.05983 0.55585,-0.65617 0.84664,-1.51159 0.8458,-2.39262 v 0 c 4.9e-4,-0.55852 -0.11655,-1.10762 -0.34364,-1.60204 l -2.14703,-11.09456 10.68496,4.50506 a 0.80705977,0.80721191 0 0 0 0.0131,0.012 0.80705977,0.80721191 0 0 0 0.0464,0.0165 0.80705977,0.80721191 0 0 0 0.0297,0.0119 0.80705977,0.80721191 0 0 0 0.0462,0.012 0.80705977,0.80721191 0 0 0 0.0354,0.012 0.80705977,0.80721191 0 0 0 0.041,0.0119 0.80705977,0.80721191 0 0 0 0.0409,0.012 0.80705977,0.80721191 0 0 0 0.0365,0 0.80705977,0.80721191 0 0 0 0.0459,0 0.80705977,0.80721191 0 0 0 0.0308,0 l 7.08563,-0.44872 a 0.80705977,0.80721191 0 0 0 0.6771,-0.46204 l 4.29202,-9.08789 h 4.9e-4 a 0.80705977,0.80721191 0 0 0 0.002,-0.012 0.80705977,0.80721191 0 0 0 -0.46811,-1.11626 c -0.66153,-0.36275 -1.34243,-0.6168 -2.03514,-0.77723 l -26.155,-10.15012 a 0.80705977,0.80721191 0 0 0 -0.0682,-0.023 c -1.13134,-0.32655 -2.32467,-0.51061 -3.58377,-0.51138 z m -2.23827,1.16613 a 0.80705977,0.80721191 0 0 1 0.31323,0.0612 l 24.70027,9.90165 a 0.80773946,0.80789174 0 0 1 0.49019,0.91678 0.80705977,0.80721191 0 0 0 -0.0601,0.12402 l -0.0711,0.17585 a 0.80773946,0.80789174 0 0 1 -0.95914,0.28347 l -24.70018,-9.90415 a 0.80705977,0.80721191 0 0 1 0.28682,-1.55885 z m 30.35463,10.90733 c 0.37379,0 0.74335,0.0426 1.11018,0.11888 l 1.25222,0.486 -2.01086,4.25823 c 0.0776,-0.34482 0.11706,-0.68691 0.11341,-1.00745 -0.008,-0.74179 -0.24977,-1.35531 -0.66646,-1.66219 -0.41669,-0.30709 -0.99294,-0.29572 -1.56103,0.0209 -0.14016,0.0787 -0.28077,0.17541 -0.41677,0.28684 0.0522,-0.0701 0.10106,-0.14621 0.14332,-0.22844 0.12036,-0.23416 0.19096,-0.50559 0.18859,-0.74596 -0.002,-0.24082 -0.0803,-0.44543 -0.21774,-0.54977 -0.0686,-0.0525 -0.14782,-0.0787 -0.23363,-0.0766 -0.0858,0 -0.17857,0.0274 -0.2681,0.0787 -0.17901,0.10279 -0.34662,0.2991 -0.46725,0.53368 -0.12038,0.23492 -0.19115,0.50535 -0.18833,0.74617 0.002,0.24082 0.0803,0.44554 0.21764,0.54988 0.13736,0.1039 0.32266,0.0973 0.50174,-0.012 -0.2902,0.3026 -0.5561,0.67125 -0.77241,1.08071 -0.39146,0.74049 -0.61387,1.59724 -0.60528,2.33915 0.008,0.74202 0.25485,1.35794 0.67163,1.66503 0.41662,0.30709 0.98751,0.29297 1.55551,-0.023 0.35494,-0.19816 0.70427,-0.51137 1.01181,-0.89917 l -0.71448,1.51249 -5.33084,0.33988 3.16478,-7.85043 c 1.2433,-0.65804 2.40181,-0.97825 3.52243,-0.96873 z m -25.32282,3.24116 1.36045,0.57371 2.52584,11.85802 c -0.25528,-0.0777 -0.52187,-0.12008 -0.79364,-0.12008 -0.23142,0 -0.45874,0.0317 -0.67861,0.0886 l -2.41404,-12.40012 z m 3.17328,1.33816 1.44565,0.60946 1.95393,10.09697 c -0.23209,-0.0645 -0.47268,-0.0984 -0.7176,-0.0984 -0.13959,0 -0.27745,0.012 -0.4133,0.0328 l -2.2686,-10.64159 z m 2.68189,12.22831 c 0.32818,0 0.70154,0.16821 0.97458,0.4906 0.27312,0.32229 0.46156,0.84034 0.4608,1.34198 8.8e-4,0.50175 -0.18775,1.01959 -0.4607,1.34209 -0.12956,0.153 -0.28171,0.2699 -0.44075,0.35192 l -0.52187,0.10058 c 0.17892,-0.44806 0.2705,-0.93482 0.26999,-1.4297 v 0 c 3.4e-4,-0.32064 -0.0383,-0.63823 -0.114,-0.9439 a 0.80705977,0.80721191 0 0 0 -0.0164,-0.19094 l -0.22564,-1.05851 c 0.0246,0 0.0496,-0.012 0.0739,-0.012 z m -2.76252,0.36537 c 0.32826,0 0.70172,0.1681 0.97484,0.49061 0.27305,0.3225 0.46131,0.84033 0.46062,1.34198 6.8e-4,0.50186 -0.18775,1.01969 -0.4607,1.34209 -0.27312,0.32251 -0.6465,0.49082 -0.97484,0.49082 -0.32817,0 -0.69943,-0.16842 -0.97248,-0.49082 -0.27303,-0.32229 -0.46367,-0.84023 -0.46298,-1.34209 -6.9e-4,-0.50165 0.18995,-1.01948 0.46298,-1.34198 0.27305,-0.32251 0.64431,-0.49061 0.97248,-0.49061 z m -2.93056,0.89983 c -0.0739,0.3025 -0.11181,0.61616 -0.11147,0.93276 v 0 c -8.8e-4,0.88124 0.28969,1.73656 0.84555,2.39284 0.0712,0.0831 0.14638,0.16393 0.22495,0.2394 l -9.22468,2.94884 0.0664,-4.73451 8.19922,-1.7815 z"
           id="path145" />
      </g>
    </g>
  </g>
</svg>
