<?xml version="1.0" encoding="UTF-8" standalone="no"?>
<svg
   xmlns:dc="http://purl.org/dc/elements/1.1/"
   xmlns:cc="http://creativecommons.org/ns#"
   xmlns:rdf="http://www.w3.org/1999/02/22-rdf-syntax-ns#"
   xmlns:svg="http://www.w3.org/2000/svg"
   xmlns="http://www.w3.org/2000/svg"
   xmlns:sodipodi="http://sodipodi.sourceforge.net/DTD/sodipodi-0.dtd"
   xmlns:inkscape="http://www.inkscape.org/namespaces/inkscape"
   width="450"
   height="325"
   viewBox="0 0 450.00001 325"
   id="svg5199"
   version="1.1"
   inkscape:version="1.0 (4035a4fb49, 2020-05-01)"
   sodipodi:docname="caught-in-a-reflection.svg">
  <defs
     id="defs5201" />
  <sodipodi:namedview
     id="base"
     pagecolor="#ffffff"
     bordercolor="#666666"
     borderopacity="1.0"
     inkscape:pageopacity="0.0"
     inkscape:pageshadow="2"
     inkscape:zoom="5.6"
     inkscape:cx="190.09306"
     inkscape:cy="165.335"
     inkscape:document-units="px"
     inkscape:current-layer="g929"
     showgrid="false"
     units="px"
     borderlayer="true"
     inkscape:window-width="1280"
     inkscape:window-height="961"
     inkscape:window-x="1912"
     inkscape:window-y="-8"
     inkscape:window-maximized="1"
     inkscape:document-rotation="0" />
  <metadata
     id="metadata5204">
    <rdf:RDF>
      <cc:Work
         rdf:about="">
        <dc:format>image/svg+xml</dc:format>
        <dc:type
           rdf:resource="http://purl.org/dc/dcmitype/StillImage" />
        <dc:title />
      </cc:Work>
    </rdf:RDF>
  </metadata>
  <g
     inkscape:label="Layer 1"
     inkscape:groupmode="layer"
     id="layer1"
     transform="translate(0,-727.36216)">
    <g
       id="g939"
       transform="translate(-32.324882,11.958539)">
      <g
         transform="matrix(1.0524616,0,0,1.0524616,-16.441904,-94.460795)"
         id="g4252"
         style="stroke-width:0.693908">
        <rect
           style="fill:#b3b3b3;fill-opacity:1;stroke:#000000;stroke-width:3.46954;stroke-linecap:round;stroke-linejoin:round;stroke-miterlimit:4;stroke-dasharray:none;stroke-dashoffset:0.6;stroke-opacity:1"
           id="rect5229"
           width="119.48205"
           height="119.48203"
           x="296.20898"
           y="884.43329"
           ry="10.106077"
           rx="10.106077" />
        <path
           style="fill:#000000;fill-opacity:1;stroke-width:0.693908"
           d="m 349.04357,894.25658 v 94.69231 l 30.34921,-8.84956 v -76.99319 z m 34.18312,5.58532 0.0126,0.48022 v 6.1699 h 3.41977 v -6.64755 h -3.43321 z m -55.12948,0 v 24.36203 h 3.84742 v -20.62269 h 13.25147 v -3.73934 z m 55.14299,10.38691 v 3.32442 h 3.41854 v -3.32442 z m 0,7.06376 v 49.02757 h 3.41854 v -49.02757 z m -60.36762,6.05528 -12.45385,12.10483 12.45385,12.10674 v -7.3282 h 20.51871 v -9.5558 h -20.51871 z m 31.94084,13.26504 c 1.41641,0 2.56459,2.23208 2.56459,4.986 0,2.75329 -1.14818,4.986 -2.56459,4.986 -1.41633,0 -2.56451,-2.23271 -2.56451,-4.986 0,-2.75392 1.14818,-4.986 2.56451,-4.986 z m -22.86879,6.31526 v 7.32949 h -20.51749 v 9.55579 h 20.51749 v 7.32756 l 12.45506,-12.1061 z m -3.84742,25.83599 v 12.72208 h 3.84742 v -12.72208 z m 55.14299,1.29533 v 2.90823 h 3.41854 v -2.90823 z m 0,6.64821 v 4.77854 h 3.41854 v -4.77854 z m -73.73678,9.5558 v 3.73997 h 35.69268 v -3.73997 z m 62.12102,0 -12.82388,3.73997 h 46.45325 v -3.73997 z"
           id="path11026"
           inkscape:connector-curvature="0" />
      </g>
      <g
         style="fill:#4d4d4d;fill-opacity:1;stroke:none;stroke-width:0.600061;stroke-miterlimit:4;stroke-dasharray:none;stroke-opacity:1"
         transform="matrix(1.666497,0,0,1.6664969,935.17112,-698.99406)"
         id="g5246">
        <path
           style="fill:#4d4d4d;fill-opacity:1;stroke:none;stroke-width:0.600061;stroke-miterlimit:4;stroke-dasharray:none;stroke-opacity:1"
           inkscape:connector-curvature="0"
           d="m -361.34368,894.60352 c -1.5875,0 -2.72928,0.83893 -3.38869,1.89253 -0.58973,0.9421 -0.83508,2.03513 -0.88294,2.9924 -1.79963,0.88864 -3.79332,1.78454 -5.39841,2.70058 -0.84204,0.4806 -1.57611,0.96388 -2.12868,1.48324 -0.55257,0.51934 -0.96029,1.10419 -0.96029,1.79411 0,0.29359 0.1436,0.53281 0.3051,0.70834 0.16225,0.17616 0.35598,0.31224 0.57695,0.43936 0.44187,0.2546 0.99893,0.46672 1.61176,0.65031 0.91035,0.27285 1.92989,0.47562 2.81637,0.56227 -0.88172,1.51742 -2.05515,2.9109 -3.08373,4.24619 -1.18873,1.54333 -2.22649,3.02327 -2.22649,4.66753 0,0.23488 -0.003,0.41821 0.0179,0.60247 0.0215,0.1844 0.0737,0.41405 0.25928,0.59623 0.18549,0.18226 0.41257,0.2313 0.59754,0.25136 0.18478,0.0215 0.37132,0.0215 0.61036,0.0215 h 6.55832 c 0.47611,0 0.82468,0.0287 1.18328,-0.20123 0.35869,-0.23022 0.48947,-0.54463 0.74496,-1.01448 h 0.003 l 0.003,-0.0215 c 0,0 0.57168,-1.16076 1.25378,-2.31284 0.3409,-0.57568 0.71126,-1.14934 1.03331,-1.55574 0.16119,-0.20301 0.31191,-0.36436 0.42042,-0.45533 0.0322,-0.0285 0.0484,-0.0322 0.0695,-0.0456 0.0215,0.0215 0.0361,0.0215 0.0695,0.0456 0.1084,0.0913 0.25928,0.25206 0.42038,0.45533 0.32195,0.4064 0.69227,0.98006 1.03334,1.55574 0.68203,1.15208 1.25374,2.31284 1.25374,2.31284 l 0.003,0.0215 h 0.003 c 0.25569,0.46985 0.38513,0.78236 0.74147,1.01324 0.3563,0.23059 0.70403,0.20302 1.17339,0.20302 h 6.58723 c 0.2353,0 0.41862,0 0.60231,-0.0215 0.18371,-0.0215 0.41151,-0.0705 0.59507,-0.25458 0.18334,-0.1844 0.2342,-0.41076 0.25461,-0.59416 0.0215,-0.18225 0.0179,-0.36663 0.0179,-0.60161 0,-1.64405 -1.03778,-3.12399 -2.22649,-4.66735 -1.02852,-1.33527 -2.20195,-2.72877 -3.08372,-4.24619 0.88648,-0.0871 1.90603,-0.28967 2.81637,-0.56225 0.61282,-0.18441 1.16988,-0.39584 1.61176,-0.65032 0.22094,-0.12634 0.415,-0.26354 0.5768,-0.43915 0.1619,-0.17617 0.30546,-0.41493 0.30546,-0.70858 0,-0.6899 -0.4077,-1.27475 -0.96026,-1.79408 -0.55259,-0.51937 -1.28668,-1.00263 -2.12866,-1.48326 -1.60517,-0.916 -3.59878,-1.81192 -5.39848,-2.70056 -0.0481,-0.95723 -0.29329,-2.05024 -0.88293,-2.99238 -0.65941,-1.05362 -1.80116,-1.89256 -3.38869,-1.89256 z"
           id="path5238" />
        <path
           id="path5240"
           d="m -333.11578,894.60352 c -1.5875,0 -2.72925,0.8389 -3.38866,1.89253 -0.58974,0.94212 -0.8351,2.03509 -0.88296,2.99237 -1.79966,0.88867 -3.7933,1.78457 -5.39845,2.70059 -0.84197,0.48061 -1.5761,0.96386 -2.12864,1.48323 -0.55258,0.51937 -0.96027,1.10422 -0.96027,1.79409 0,0.29363 0.14359,0.53283 0.3051,0.70839 0.16225,0.17616 0.35596,0.31224 0.57695,0.43933 0.44183,0.25459 0.99893,0.46671 1.61174,0.65034 0.91036,0.27285 1.9299,0.47562 2.81638,0.56223 -0.88173,1.51746 -2.05516,2.91095 -3.08376,4.24624 -1.1887,1.54332 -2.22645,3.02323 -2.22645,4.66749 0,0.23487 -0.003,0.41824 0.0179,0.6025 0.0215,0.1844 0.0737,0.41406 0.25928,0.59623 0.1855,0.18226 0.4126,0.2313 0.59757,0.25136 0.18479,0.0215 0.37132,0.0215 0.61031,0.0215 h 6.55838 c 0.47606,0 0.82468,0.0287 1.18328,-0.2012 0.35865,-0.23025 0.48944,-0.54464 0.74496,-1.01448 h 0.003 l 0.003,-0.0216 c 0,0 0.57169,-1.16075 1.25382,-2.31285 0.34091,-0.5757 0.71123,-1.14934 1.03331,-1.55576 0.16119,-0.20302 0.3119,-0.36434 0.42039,-0.45532 0.0322,-0.0287 0.0484,-0.0322 0.0695,-0.0455 0.0215,0.0215 0.0366,0.0215 0.0695,0.0455 0.1084,0.091 0.25927,0.25209 0.42038,0.45532 0.32193,0.40642 0.69226,0.98006 1.03328,1.55576 0.68206,1.1521 1.2538,2.31285 1.2538,2.31285 l 0.003,0.0216 h 0.003 c 0.25569,0.46984 0.38512,0.78236 0.74142,1.01321 0.35632,0.23059 0.70404,0.20302 1.17341,0.20302 h 6.58726 c 0.23527,0 0.41862,0 0.6023,-0.0215 0.1837,-0.0215 0.41146,-0.0705 0.59502,-0.2546 0.18337,-0.18438 0.2342,-0.41076 0.25461,-0.59416 0.0215,-0.18223 0.018,-0.36662 0.018,-0.60159 0,-1.64408 -1.03775,-3.12401 -2.22645,-4.66737 -1.02856,-1.33525 -2.20195,-2.72877 -3.08377,-4.24617 0.8865,-0.0871 1.90602,-0.28969 2.81642,-0.56227 0.61277,-0.1844 1.16987,-0.39583 1.6117,-0.65031 0.22097,-0.12635 0.41502,-0.26353 0.57683,-0.43916 0.16189,-0.17617 0.30545,-0.41491 0.30545,-0.70856 0,-0.68992 -0.40771,-1.27477 -0.96027,-1.79413 -0.55259,-0.51934 -1.28666,-1.00263 -2.12865,-1.48323 -1.60514,-0.916 -3.59877,-1.81192 -5.39844,-2.70059 -0.0479,-0.95725 -0.29329,-2.05021 -0.88294,-2.99235 -0.65943,-1.05363 -1.80114,-1.89256 -3.38871,-1.89256 z"
           inkscape:connector-curvature="0"
           style="fill:#4d4d4d;fill-opacity:1;stroke:none;stroke-width:0.600061;stroke-miterlimit:4;stroke-dasharray:none;stroke-opacity:1" />
        <text
           xml:space="preserve"
           style="font-style:normal;font-weight:normal;font-size:31.5786px;line-height:125%;font-family:sans-serif;letter-spacing:0px;word-spacing:0px;fill:#4d4d4d;fill-opacity:1;stroke:none;stroke-width:0.600061;stroke-linecap:butt;stroke-linejoin:miter;stroke-miterlimit:4;stroke-dasharray:none;stroke-opacity:1"
           x="-319.87796"
           y="915.44635"
           id="text5242"
           transform="scale(1.0000655,0.99993451)"><tspan
             sodipodi:role="line"
             id="tspan5244"
             x="-319.87796"
             y="915.44635"
             style="font-style:normal;font-variant:normal;font-weight:normal;font-stretch:normal;font-family:'Archivo Black';-inkscape-font-specification:'Archivo Black, ';fill:#4d4d4d;fill-opacity:1;stroke:none;stroke-width:0.600061;stroke-miterlimit:4;stroke-dasharray:none;stroke-opacity:1">+</tspan></text>
      </g>
    </g>
    <text
       transform="scale(1.0000136,0.99998641)"
       id="text3446"
       y="936.37866"
       x="178.95679"
       style="font-style:normal;font-weight:normal;font-size:170.53px;line-height:125%;font-family:sans-serif;letter-spacing:0px;word-spacing:0px;fill:#000000;fill-opacity:1;stroke:none;stroke-width:1px;stroke-linecap:butt;stroke-linejoin:miter;stroke-opacity:1"
       xml:space="preserve"><tspan
         style="stroke-width:1px"
         y="936.37866"
         x="178.95679"
         id="tspan3448"
         sodipodi:role="line">:</tspan></text>
    <g
       class=""
       id="g24"
       style="stroke-width:2.87485;stroke:#000000;stroke-opacity:1"
       transform="matrix(0.34784466,0,0,0.34784466,7.0813324,805.72729)" />
    <g
       id="g929"
       transform="translate(20.20305,-12.58106)">
      <g
         id="g52">
        <path
           style="stroke:#000000;stroke-width:2;stroke-miterlimit:4;stroke-dasharray:none;stroke-opacity:1"
           id="path957"
           fill-opacity="1"
           fill="#ffffff"
           d="m 112.29504,909.4236 c -1.79627,-0.008 -4.03987,0.48246 -6.50018,2.15837 -19.3419,13.57951 -39.01843,26.60803 -58.98889,39.24592 -3.54801,2.30308 -3.39148,5.77422 0.35376,7.7465 l 44.785,23.57031 c 1.8728,0.98614 7.79659,0.71516 11.34461,-1.58757 l 59.07585,-38.34361 c 3.54767,-2.30343 3.39148,-5.77353 -0.35272,-7.7458 -15.53787,-8.17783 -29.83811,-15.69336 -45.42086,-23.95433 0,0 -1.67069,-1.07797 -4.29657,-1.08979 z"
           sodipodi:nodetypes="cccccccccc" />
        <path
           sodipodi:nodetypes="cccccccccc"
           d="m 112.29504,905.4236 c -1.79627,-0.008 -4.03987,0.48246 -6.50018,2.15837 -19.3419,13.57951 -39.01843,26.60803 -58.98889,39.24592 -3.54801,2.30308 -3.39148,5.77422 0.35376,7.7465 l 44.785,23.57031 c 1.8728,0.98614 7.79659,0.71516 11.34461,-1.58757 l 59.07585,-38.34361 c 3.54767,-2.30343 3.39148,-5.77353 -0.35272,-7.7458 -15.53787,-8.17783 -29.83811,-15.69336 -45.42086,-23.95433 0,0 -1.67069,-1.07797 -4.29657,-1.08979 z"
           fill="#ffffff"
           fill-opacity="1"
           id="path955"
           style="stroke:#000000;stroke-width:2;stroke-miterlimit:4;stroke-dasharray:none;stroke-opacity:1" />
        <path
           style="stroke:#000000;stroke-width:2;stroke-miterlimit:4;stroke-dasharray:none;stroke-opacity:1"
           id="path953"
           fill-opacity="1"
           fill="#ffffff"
           d="m 112.29504,901.4236 c -1.79627,-0.008 -4.03987,0.48246 -6.50018,2.15837 -19.3419,13.57951 -39.01843,26.60803 -58.98889,39.24592 -3.54801,2.30308 -3.39148,5.77422 0.35376,7.7465 l 44.785,23.57031 c 1.8728,0.98614 7.79659,0.71516 11.34461,-1.58757 l 59.07585,-38.34361 c 3.54767,-2.30343 3.39148,-5.77353 -0.35272,-7.7458 -15.53787,-8.17783 -29.83811,-15.69336 -45.42086,-23.95433 0,0 -1.67069,-1.07797 -4.29657,-1.08979 z"
           sodipodi:nodetypes="cccccccccc" />
        <path
           sodipodi:nodetypes="cccccccccc"
           d="m 112.29504,897.4236 c -1.79627,-0.008 -4.03987,0.48246 -6.50018,2.15837 -19.3419,13.57951 -39.01843,26.60803 -58.98889,39.24592 -3.54801,2.30308 -3.39148,5.77422 0.35376,7.7465 l 44.785,23.57031 c 1.8728,0.98614 7.79659,0.71516 11.34461,-1.58757 l 59.07585,-38.34361 c 3.54767,-2.30343 3.39148,-5.77353 -0.35272,-7.7458 -15.53787,-8.17783 -29.83811,-15.69336 -45.42086,-23.95433 0,0 -1.67069,-1.07797 -4.29657,-1.08979 z"
           fill="#ffffff"
           fill-opacity="1"
           id="path947"
           style="stroke:#000000;stroke-width:2;stroke-miterlimit:4;stroke-dasharray:none;stroke-opacity:1" />
        <path
           style="stroke:#000000;stroke-width:2;stroke-miterlimit:4;stroke-dasharray:none;stroke-opacity:1"
           id="path945"
           fill-opacity="1"
           fill="#ffffff"
           d="m 112.29504,893.4236 c -1.79627,-0.008 -4.03987,0.48246 -6.50018,2.15837 -19.3419,13.57951 -39.01843,26.60803 -58.98889,39.24592 -3.54801,2.30308 -3.39148,5.77422 0.35376,7.7465 l 44.785,23.57031 c 1.8728,0.98614 7.79659,0.71516 11.34461,-1.58757 l 59.07585,-38.34361 c 3.54767,-2.30343 3.39148,-5.77353 -0.35272,-7.7458 -15.53787,-8.17783 -29.83811,-15.69336 -45.42086,-23.95433 0,0 -1.67069,-1.07797 -4.29657,-1.08979 z"
           sodipodi:nodetypes="cccccccccc" />
        <path
           sodipodi:nodetypes="cccccccccc"
           d="m 112.29504,889.4236 c -1.79627,-0.008 -4.03987,0.48246 -6.50018,2.15837 -19.3419,13.57951 -39.01843,26.60803 -58.98889,39.24592 -3.54801,2.30308 -3.39148,5.77422 0.35376,7.7465 l 44.785,23.57031 c 1.8728,0.98614 7.79659,0.71516 11.34461,-1.58757 l 59.07585,-38.34361 c 3.54767,-2.30343 3.39148,-5.77353 -0.35272,-7.7458 -15.53787,-8.17783 -29.83811,-15.69336 -45.42086,-23.95433 0,0 -1.67069,-1.07797 -4.29657,-1.08979 z"
           fill="#ffffff"
           fill-opacity="1"
           id="path943"
           style="stroke:#000000;stroke-width:2;stroke-miterlimit:4;stroke-dasharray:none;stroke-opacity:1" />
        <path
           style="stroke:#000000;stroke-width:2;stroke-miterlimit:4;stroke-dasharray:none;stroke-opacity:1"
           id="path941"
           fill-opacity="1"
           fill="#ffffff"
           d="m 112.29504,832.09744 c -1.79627,-0.008 -4.03987,0.48246 -6.50018,2.15837 -19.3419,13.57951 -39.01843,26.60803 -58.98889,39.24592 -3.54801,2.30308 -3.39148,5.77422 0.35376,7.7465 l 44.785,23.57031 c 1.8728,0.98614 7.79659,0.71516 11.34461,-1.58757 l 59.07585,-38.34361 c 3.54767,-2.30343 3.39148,-5.77353 -0.35272,-7.7458 -15.53787,-8.17783 -29.83811,-15.69336 -45.42086,-23.95433 0,0 -1.67069,-1.07797 -4.29657,-1.08979 z"
           sodipodi:nodetypes="cccccccccc" />
        <path
           d="M 111.39701,881.21898 77.51962,865.24443 q -0.35419,-0.16701 -0.44342,-0.41079 -0.0684,-0.23395 0.0484,-0.46127 0.11676,-0.22732 0.44072,-0.3973 0.30369,-0.15935 0.79433,-0.25073 l 46.11322,-7.34124 q 0.45012,-0.0701 0.88354,-0.007 0.43348,0.0631 0.76685,0.22033 0.33336,0.15719 0.48325,0.36914 0.14988,0.21194 0.0332,0.43923 l -12.23583,23.31579 q -0.15727,0.24857 -0.46097,0.40793 -0.32395,0.16997 -0.77408,0.24009 -0.45012,0.0701 -0.94426,0.0388 -0.47332,-0.0215 -0.82752,-0.18851 z m -29.11903,-16.31258 29.50209,13.91141 10.638,-20.27725 z m 24.05837,4.00252 -3.87526,-1.82734 11.2368,-5.8959 3.87526,1.82733 z m -3.10147,2.20851 q -0.52642,0.27622 -1.18016,0.41167 -0.63296,0.1453 -1.33135,0.15889 -0.65728,0.0128 -1.31811,-0.0971 -0.64059,-0.12054 -1.16146,-0.36615 -0.52087,-0.24561 -0.79702,-0.55735 -0.25589,-0.32238 -0.26533,-0.64952 0.0109,-0.3378 0.26877,-0.65994 0.25789,-0.32212 0.7843,-0.59833 0.50616,-0.26558 1.15934,-0.42149 0.6532,-0.15592 1.31051,-0.1687 0.67754,-0.0234 1.33836,0.0865 0.66082,0.1099 1.1817,0.35551 0.52086,0.24562 0.77677,0.56799 0.2559,0.32237 0.24509,0.66015 0.0302,0.33699 -0.24794,0.66976 -0.25731,0.34257 -0.76347,0.60815 z"
           style="font-style:normal;font-weight:normal;font-size:medium;line-height:125%;font-family:sans-serif;letter-spacing:0px;word-spacing:0px;fill:#000000;fill-opacity:1;stroke:none;stroke-width:1px;stroke-linecap:butt;stroke-linejoin:miter;stroke-opacity:1"
           id="path3444"
           inkscape:connector-curvature="0" />
      </g>
    </g>
  </g>
</svg>
