<?xml version="1.0" encoding="UTF-8" standalone="no"?>
<svg
   xmlns:dc="http://purl.org/dc/elements/1.1/"
   xmlns:cc="http://creativecommons.org/ns#"
   xmlns:rdf="http://www.w3.org/1999/02/22-rdf-syntax-ns#"
   xmlns:svg="http://www.w3.org/2000/svg"
   xmlns="http://www.w3.org/2000/svg"
   xmlns:sodipodi="http://sodipodi.sourceforge.net/DTD/sodipodi-0.dtd"
   xmlns:inkscape="http://www.inkscape.org/namespaces/inkscape"
   sodipodi:docname="door_rattles.svg"
   inkscape:version="1.0 (4035a4fb49, 2020-05-01)"
   version="1.1"
   id="svg5199"
   viewBox="0 0 450.00001 325"
   height="325"
   width="450">
  <defs
     id="defs5201" />
  <sodipodi:namedview
     inkscape:snap-global="false"
     inkscape:document-rotation="0"
     inkscape:window-maximized="1"
     inkscape:window-y="-8"
     inkscape:window-x="1912"
     inkscape:window-height="961"
     inkscape:window-width="1280"
     borderlayer="true"
     units="px"
     showgrid="false"
     inkscape:current-layer="layer1"
     inkscape:document-units="px"
     inkscape:cy="181.55759"
     inkscape:cx="407.12635"
     inkscape:zoom="2.8"
     inkscape:pageshadow="2"
     inkscape:pageopacity="0.0"
     borderopacity="1.0"
     bordercolor="#666666"
     pagecolor="#ffffff"
     id="base" />
  <metadata
     id="metadata5204">
    <rdf:RDF>
      <cc:Work
         rdf:about="">
        <dc:format>image/svg+xml</dc:format>
        <dc:type
           rdf:resource="http://purl.org/dc/dcmitype/StillImage" />
        <dc:title />
      </cc:Work>
    </rdf:RDF>
  </metadata>
  <g
     transform="translate(0,-727.36216)"
     id="layer1"
     inkscape:groupmode="layer"
     inkscape:label="Layer 1">
    <g
       style="stroke-width:0.912336"
       transform="matrix(1.0959355,0,0,1.0962386,-6.843133,-102.63675)"
       id="g45">
      <path
         transform="matrix(5.1299262,2.9617642,-2.963944,5.1337016,1543.4131,-5952.1939)"
         d="m 395.48223,1093.1241 5.58135,9.6672 -5.58135,9.6671 -11.1627,0 -5.58135,-9.6671 5.58135,-9.6672 z"
         inkscape:randomized="0"
         inkscape:rounded="0"
         inkscape:flatsided="true"
         sodipodi:arg2="-0.52359878"
         sodipodi:arg1="-1.0471976"
         sodipodi:r2="9.6671848"
         sodipodi:r1="11.162703"
         sodipodi:cy="1102.7913"
         sodipodi:cx="389.90088"
         sodipodi:sides="6"
         id="path5084"
         style="font-style:normal;font-weight:normal;font-size:medium;line-height:125%;font-family:sans-serif;letter-spacing:0px;word-spacing:0px;fill:#b3b3b3;fill-opacity:1;stroke:#000000;stroke-width:0.769812;stroke-linecap:butt;stroke-linejoin:round;stroke-miterlimit:4;stroke-dasharray:none;stroke-dashoffset:0;stroke-opacity:1"
         sodipodi:type="star" />
      <path
         d="m 412.98949,1103.3571 5.58135,9.6672 -5.58135,9.6672 -11.1627,0 -5.58135,-9.6672 5.58135,-9.6672 z"
         inkscape:randomized="0"
         inkscape:rounded="0"
         inkscape:flatsided="true"
         sodipodi:arg2="-0.52359878"
         sodipodi:arg1="-1.0471976"
         sodipodi:r2="9.6671848"
         sodipodi:r1="11.162703"
         sodipodi:cy="1113.0243"
         sodipodi:cx="407.40814"
         sodipodi:sides="6"
         id="path5092"
         style="font-style:normal;font-weight:normal;font-size:medium;line-height:125%;font-family:sans-serif;letter-spacing:0px;word-spacing:0px;fill:#b3b3b3;fill-opacity:1;stroke:#000000;stroke-width:0.769812;stroke-linecap:butt;stroke-linejoin:round;stroke-miterlimit:4;stroke-dasharray:none;stroke-dashoffset:0;stroke-opacity:1"
         sodipodi:type="star"
         transform="matrix(5.1299262,2.9617642,-2.963944,5.1337016,1545.6424,-5951.1973)" />
      <path
         style="fill:#4d4d4d;fill-opacity:1;stroke:none;stroke-width:0.912336;stroke-opacity:1"
         inkscape:connector-curvature="0"
         d="m 339.49782,933.75091 c -3.93453,0 -6.76425,2.08315 -8.39856,4.7001 -1.46162,2.33992 -2.06973,5.05439 -2.18835,7.43204 -4.46027,2.20653 -9.40142,4.43187 -13.3796,6.70688 -2.08684,1.19366 -3.90623,2.39381 -5.27572,3.68364 -1.36949,1.28984 -2.37996,2.74258 -2.37996,4.45576 0,0.72935 0.35617,1.32342 0.75632,1.75961 0.40173,0.43716 0.88222,0.77497 1.42982,1.0911 1.09514,0.63181 2.47581,1.15868 3.99462,1.61516 2.25627,0.67736 4.78312,1.18125 6.98021,1.39614 -2.18531,3.76874 -5.09354,7.22962 -7.64284,10.54556 -2.9461,3.83314 -5.51813,7.50893 -5.51813,11.59237 0,0.58307 -0.0141,1.03858 0.0464,1.49645 0.0516,0.46021 0.18313,1.02799 0.64261,1.48088 0.45969,0.4509 1.02253,0.57428 1.48094,0.62394 0.45833,0.0504 0.92027,0.0504 1.51269,0.0504 h 16.25437 c 1.1799,0 2.04391,0.0738 2.93271,-0.49934 0.8889,-0.5715 1.21303,-1.35238 1.84632,-2.51935 h 0.0141 l 0.0141,-0.0507 c 0,0 1.41685,-2.88291 3.10739,-5.74421 0.84517,-1.42973 1.76283,-2.85438 2.56098,-3.86352 0.39989,-0.50481 0.77294,-0.90514 1.04191,-1.13109 0.0823,-0.0644 0.12008,-0.0828 0.17256,-0.11509 0.0529,0.0507 0.0901,0.0507 0.17256,0.11509 0.26874,0.22548 0.64267,0.62583 1.0419,1.13109 0.79815,1.00914 1.71576,2.43379 2.56099,3.86352 1.69036,2.8613 3.10739,5.74421 3.10739,5.74421 l 0.0141,0.0507 h 0.0141 c 0.63332,1.16697 0.95448,1.94325 1.83752,2.51614 0.88282,0.57288 1.74499,0.50481 2.90828,0.50481 h 16.32594 c 0.58288,0 1.03753,0 1.49276,-0.0504 0.45511,-0.0504 1.01981,-0.17478 1.47483,-0.63219 0.45463,-0.46019 0.58053,-1.02021 0.63092,-1.47578 0.0516,-0.45096 0.046,-0.9102 0.046,-1.49413 0,-4.08303 -2.57203,-7.75835 -5.51819,-11.59151 -2.54911,-3.31639 -5.45734,-6.77727 -7.64279,-10.54601 2.19714,-0.21628 4.72399,-0.71878 6.9802,-1.39614 1.51877,-0.46016 2.8995,-0.9829 3.9946,-1.61516 0.54762,-0.31292 1.02854,-0.65481 1.42958,-1.09058 0.40126,-0.43716 0.7566,-1.03078 0.7566,-1.76013 0,-1.71318 -1.01048,-3.16547 -2.37991,-4.45576 -1.36958,-1.28936 -3.18894,-2.48994 -5.27568,-3.68359 -3.9783,-2.27506 -8.91938,-4.49995 -13.37974,-6.70689 -0.11866,-2.37765 -0.72682,-5.09216 -2.18829,-7.43208 -1.63433,-2.61695 -4.46401,-4.7001 -8.39859,-4.7001 z"
         id="path5096" />
      <path
         style="fill:#000000;fill-opacity:1;stroke:none;stroke-width:0.912336;stroke-opacity:1"
         id="path5102"
         d="m 184.15543,771.87895 c 17.74406,-3.89232 40.53142,8.47721 45.12056,23.94957 l 12.91703,-8.27578 -6.17994,50.12342 -35.06414,-23.70921 14.03165,-8.98531 c -1.47521,-15.88646 -33.47775,-13.15258 -36.6196,-12.40369 -3.34435,0.79715 -21.94725,3.78278 -39.29919,25.86466 10.33976,-35.07805 22.93014,-41.70199 45.09363,-46.56366 z"
         inkscape:connector-curvature="0"
         sodipodi:nodetypes="scccccscs" />
      <g
         style="stroke-width:0.912336"
         id="g4163"
         transform="matrix(-1.3880253,0,0,1.3880253,633.7469,-414.22488)">
        <circle
           r="45"
           cy="928.07642"
           cx="400.71429"
           id="path4151"
           style="fill:#000000;stroke:none;stroke-width:2.73701;stroke-miterlimit:4;stroke-dasharray:none;stroke-opacity:1" />
        <path
           inkscape:connector-curvature="0"
           style="fill:#ffffff;fill-opacity:1;stroke-width:0.912336"
           d="m 400.71429,896.83247 c 2.83886,0 4.7227,1.41745 7.24972,2.82167 2.39517,1.33142 5.40596,2.47258 9.65199,1.60564 2.01501,2.01471 4.06221,4.02984 6.24535,5.39477 1.78649,1.11717 3.79413,1.78267 5.79661,1.46791 -0.57456,4.52203 -3.31964,8.94522 -6.18917,11.26062 -7.56742,-2.50856 -15.1538,-3.76346 -22.74019,-3.76346 -7.59333,0 -15.18652,1.25738 -22.7609,3.7705 -2.87253,-2.31334 -5.62208,-6.74108 -6.19708,-11.26766 2.00206,0.31435 4.00999,-0.35158 5.79662,-1.4675 2.18314,-1.36534 4.23006,-3.38047 6.24535,-5.39518 4.2456,0.86694 7.25695,-0.27299 9.65185,-1.60524 2.52742,-1.40504 4.41113,-2.82207 7.24985,-2.82207 z m 0.0149,2.64257 c -2.67865,0 -7.18755,3.62078 -7.18755,3.62078 0,0 2.86859,10.86397 7.18755,10.86397 4.31925,0 7.18795,-10.86397 7.18795,-10.86397 0,0 -4.50931,-3.62078 -7.18795,-3.62078 z m 0,18.56919 c 7.13628,0 14.27297,1.16721 21.42669,3.48055 0.29478,1.82156 -0.20407,3.17531 -1.27708,4.42689 -1.19771,1.3972 -3.20823,2.58344 -5.59112,3.47685 -4.76648,1.78723 -10.94734,2.42006 -14.55863,2.42006 -3.61115,0 -9.79173,-0.63283 -14.55794,-2.42006 -2.3833,-0.89341 -4.39341,-2.07924 -5.59113,-3.47685 -1.07338,-1.25158 -1.57242,-2.60493 -1.27749,-4.42689 7.15374,-2.31334 14.29043,-3.48055 21.42656,-3.48055 z m 23.41689,7.72835 c 1.32767,0.32263 3.64075,1.05141 4.05621,2.29805 1.13596,3.40734 -2.28717,8.62757 -4.87596,11.92075 0.71326,-2.97594 1.09777,-6.14133 1.09777,-9.42295 0,-1.63046 -0.0954,-3.23197 -0.27806,-4.79585 z m -46.83325,0 a 41.349104,41.364178 0 0 0 -0.27798,4.79544 c 0,3.28203 0.3844,6.44742 1.09777,9.42336 -2.58879,-3.29318 -6.01192,-8.51341 -4.87596,-11.92075 0.41534,-1.24664 2.72868,-1.97625 4.05594,-2.29805 z m 44.61372,2.59253 c 0.0409,0.72715 0.0641,1.46131 0.0641,2.20291 0,8.02908 -2.45081,15.27558 -6.34039,20.46106 -3.88946,5.18588 -9.15212,8.29129 -14.92119,8.29129 -5.7688,0 -11.03159,-3.10541 -14.92091,-8.29129 -3.88931,-5.18548 -6.33998,-12.43157 -6.33998,-20.46106 0,-0.7416 0.0235,-1.47576 0.0641,-2.20332 1.10856,1.03528 2.46239,1.87575 3.95205,2.57392 -0.57717,2.46142 0.0359,5.52258 1.63542,7.12159 2.94344,2.94328 9.54439,2.94328 12.48797,0 0.91165,-0.91201 1.30271,-2.36462 1.25116,-3.82261 0.66691,0 1.29766,0.0579 1.87048,0.0579 0.57297,0 1.20387,0 1.8709,-0.0579 -0.0517,1.45799 0.33937,2.9106 1.25117,3.82261 2.94358,2.94328 9.5444,2.94328 12.48785,0 1.59941,-1.59901 2.21258,-4.66017 1.6354,-7.12117 1.48965,-0.69818 2.8439,-1.53824 3.95205,-2.57393 z m -21.19736,15.93861 c -3.12193,4.99479 -9.3655,5.61935 -12.48742,5.61935 3.12178,2.49741 12.48728,2.49741 12.48728,0 0,2.49741 9.36605,2.49741 12.48798,0 -3.12193,0 -9.36591,-0.62456 -12.48798,-5.61935 z"
           id="path15149" />
      </g>
      <g
         style="stroke-width:0.912336"
         id="g32"
         transform="translate(25.009874,-19.566662)">
        <circle
           style="fill:#000000;stroke:none;stroke-width:7.30765;stroke-miterlimit:4;stroke-dasharray:none;stroke-opacity:1"
           id="circle4163"
           cx="249.95442"
           cy="883.56848"
           r="31.467171" />
        <g
           transform="matrix(1.0666666,0,0,1.0666666,213.83137,-205.44238)"
           id="text3340"
           style="font-style:normal;font-weight:normal;font-size:48.9798px;line-height:125%;font-family:sans-serif;letter-spacing:0px;word-spacing:0px;fill:#ffffff;fill-opacity:1;stroke:none;stroke-width:0.912336px;stroke-linecap:butt;stroke-linejoin:miter;stroke-opacity:1">
          <path
             style="fill:#ffffff;stroke-width:0.912336px"
             inkscape:connector-curvature="0"
             id="path3583"
             d="m 45.225419,1016.332 q 0.669646,0 1.291459,0.2631 0.621814,0.263 1.076216,0.7174 0.478318,0.4305 0.741393,1.0284 0.286991,0.574 0.286991,1.2197 v 18.0087 q 0,0.6936 -0.263075,1.2915 -0.239159,0.5979 -0.693561,1.0523 -0.454402,0.4783 -1.0523,0.7414 -0.597898,0.263 -1.267543,0.263 H 22.457477 q -0.693561,0 -1.315374,-0.263 -0.597898,-0.2631 -1.0523,-0.7414 -0.454402,-0.4544 -0.717477,-1.0523 -0.263075,-0.5979 -0.263075,-1.2915 v -18.0087 q 0,-0.6457 0.263075,-1.2197 0.28699,-0.5979 0.741393,-1.0284 0.478318,-0.4544 1.076215,-0.7174 0.597898,-0.2631 1.267543,-0.2631 v -3.8744 q 0,-2.4394 0.406571,-4.544 0.40657,-2.1046 1.626281,-3.6352 1.243627,-1.5546 3.467807,-2.4155 2.248095,-0.8849 5.907228,-0.8849 3.68305,0 5.907229,0.8849 2.248095,0.8609 3.44389,2.4155 1.219712,1.5306 1.602366,3.6352 0.40657,2.1046 0.40657,4.544 z m -17.889097,-3.8744 v 3.7548 h 13.058085 v -3.7548 q 0,-1.8176 -0.143496,-3.0612 -0.143495,-1.2676 -0.789225,-2.0329 -0.621813,-0.7653 -1.937188,-1.1001 -1.315375,-0.3348 -3.659134,-0.3348 -2.319842,0 -3.635217,0.3348 -1.291459,0.3348 -1.937189,1.1001 -0.645729,0.7653 -0.81314,2.0329 -0.143496,1.2436 -0.143496,3.0612 z" />
        </g>
      </g>
    </g>
  </g>
</svg>
