<?xml version="1.0" encoding="UTF-8" standalone="no"?>
<svg
   xmlns:dc="http://purl.org/dc/elements/1.1/"
   xmlns:cc="http://creativecommons.org/ns#"
   xmlns:rdf="http://www.w3.org/1999/02/22-rdf-syntax-ns#"
   xmlns:svg="http://www.w3.org/2000/svg"
   xmlns="http://www.w3.org/2000/svg"
   xmlns:sodipodi="http://sodipodi.sourceforge.net/DTD/sodipodi-0.dtd"
   xmlns:inkscape="http://www.inkscape.org/namespaces/inkscape"
   sodipodi:docname="double-camera.svg"
   inkscape:version="1.0 (4035a4fb49, 2020-05-01)"
   version="1.1"
   id="svg5199"
   viewBox="0 0 450.00001 325"
   height="325"
   width="450">
  <defs
     id="defs5201" />
  <sodipodi:namedview
     inkscape:snap-global="false"
     inkscape:document-rotation="0"
     inkscape:window-maximized="1"
     inkscape:window-y="-8"
     inkscape:window-x="1912"
     inkscape:window-height="961"
     inkscape:window-width="1280"
     borderlayer="true"
     units="px"
     showgrid="false"
     inkscape:current-layer="layer1"
     inkscape:document-units="px"
     inkscape:cy="-161.24771"
     inkscape:cx="610.0214"
     inkscape:zoom="1.4"
     inkscape:pageshadow="2"
     inkscape:pageopacity="0.0"
     borderopacity="1.0"
     bordercolor="#666666"
     pagecolor="#ffffff"
     id="base" />
  <metadata
     id="metadata5204">
    <rdf:RDF>
      <cc:Work
         rdf:about="">
        <dc:format>image/svg+xml</dc:format>
        <dc:type
           rdf:resource="http://purl.org/dc/dcmitype/StillImage" />
        <dc:title />
      </cc:Work>
    </rdf:RDF>
  </metadata>
  <g
     transform="translate(0,-727.36216)"
     id="layer1"
     inkscape:groupmode="layer"
     inkscape:label="Layer 1">
    <path
       d="m 395.48223,1093.1241 5.58135,9.6672 -5.58135,9.6671 -11.1627,0 -5.58135,-9.6671 5.58135,-9.6672 z"
       sodipodi:type="star"
       style="font-style:normal;font-weight:normal;font-size:medium;line-height:125%;font-family:sans-serif;letter-spacing:0px;word-spacing:0px;fill:#b3b3b3;fill-opacity:1;stroke:#000000;stroke-width:0.769812;stroke-linecap:butt;stroke-linejoin:round;stroke-miterlimit:4;stroke-dasharray:none;stroke-dashoffset:0;stroke-opacity:1"
       id="path5084"
       sodipodi:sides="6"
       sodipodi:cx="389.90088"
       sodipodi:cy="1102.7913"
       sodipodi:r1="11.162703"
       sodipodi:r2="9.6671848"
       sodipodi:arg1="-1.0471976"
       sodipodi:arg2="-0.52359878"
       inkscape:flatsided="true"
       inkscape:rounded="0"
       inkscape:randomized="0"
       transform="matrix(5.6220682,3.2468002,-3.2482914,5.6277619,1684.6381,-6627.6615)" />
    <path
       d="m 412.98949,1103.3571 5.58135,9.6672 -5.58135,9.6672 -11.1627,0 -5.58135,-9.6672 5.58135,-9.6672 z"
       transform="matrix(5.6220682,3.2468002,-3.2482914,5.6277619,1687.0812,-6626.5689)"
       sodipodi:type="star"
       style="font-style:normal;font-weight:normal;font-size:medium;line-height:125%;font-family:sans-serif;letter-spacing:0px;word-spacing:0px;fill:#b3b3b3;fill-opacity:1;stroke:#000000;stroke-width:0.769812;stroke-linecap:butt;stroke-linejoin:round;stroke-miterlimit:4;stroke-dasharray:none;stroke-dashoffset:0;stroke-opacity:1"
       id="path5092"
       sodipodi:sides="6"
       sodipodi:cx="407.40814"
       sodipodi:cy="1113.0243"
       sodipodi:r1="11.162703"
       sodipodi:r2="9.6671848"
       sodipodi:arg1="-1.0471976"
       sodipodi:arg2="-0.52359878"
       inkscape:flatsided="true"
       inkscape:rounded="0"
       inkscape:randomized="0" />
    <path
       id="path5096"
       d="m 362.1256,927.90075 c -4.31199,0 -7.41318,2.28363 -9.20428,5.15243 -1.60184,2.56511 -2.26829,5.54082 -2.39829,8.14729 -4.88817,2.41888 -10.30335,4.85839 -14.66318,7.35234 -2.28704,1.30854 -4.28098,2.62419 -5.78185,4.03815 -1.50087,1.41397 -2.60828,3.00652 -2.60828,4.88458 0,0.79954 0.39034,1.45078 0.82888,1.92895 0.44027,0.47923 0.96685,0.84955 1.56699,1.1961 1.2002,0.69262 2.71333,1.27019 4.37784,1.7706 2.47273,0.74255 5.24199,1.29494 7.64986,1.53051 -2.39496,4.13144 -5.58219,7.92539 -8.37606,11.56045 -3.22873,4.20203 -6.04751,8.23158 -6.04751,12.708 0,0.63918 -0.0154,1.13853 0.0509,1.64047 0.0566,0.5045 0.2007,1.12692 0.70426,1.62339 0.50379,0.4943 1.12063,0.62955 1.62301,0.68399 0.5023,0.0553 1.00856,0.0553 1.65782,0.0553 h 17.81374 c 1.29309,0 2.23999,0.0809 3.21406,-0.54739 0.97417,-0.6265 1.3294,-1.48253 2.02345,-2.76181 h 0.0154 l 0.0154,-0.0556 c 0,0 1.55278,-3.16036 3.4055,-6.29703 0.92625,-1.56732 1.93195,-3.12908 2.80667,-4.23534 0.43825,-0.55339 0.84709,-0.99225 1.14186,-1.23994 0.0902,-0.0706 0.1316,-0.0908 0.18912,-0.12617 0.058,0.0556 0.0987,0.0556 0.18911,0.12617 0.29453,0.24718 0.70433,0.68606 1.14186,1.23994 0.87472,1.10626 1.88036,2.66802 2.80668,4.23534 1.85252,3.13667 3.4055,6.29703 3.4055,6.29703 l 0.0154,0.0556 h 0.0154 c 0.69408,1.27928 1.04605,2.13026 2.01381,2.75829 0.96751,0.62801 1.91239,0.55339 3.18728,0.55339 h 17.89218 c 0.6388,0 1.13707,0 1.63597,-0.0553 0.49877,-0.0553 1.11765,-0.1916 1.61632,-0.69303 0.49824,-0.50448 0.63622,-1.1184 0.69145,-1.61781 0.0566,-0.49436 0.0504,-0.9978 0.0504,-1.63792 0,-4.47598 -2.81878,-8.505 -6.04758,-12.70706 -2.79366,-3.63556 -5.98089,-7.42951 -8.37601,-11.56095 2.40793,-0.23709 5.17719,-0.78795 7.64985,-1.5305 1.66448,-0.50444 3.17767,-1.07749 4.37783,-1.7706 0.60015,-0.34303 1.12721,-0.71783 1.56672,-1.19553 0.43976,-0.47924 0.82919,-1.12999 0.82919,-1.92953 0,-1.87805 -1.10742,-3.47011 -2.60823,-4.88457 -1.50097,-1.41345 -3.49487,-2.72957 -5.7818,-4.0381 -4.35996,-2.49401 -9.77507,-4.93302 -14.66334,-7.35235 -0.13004,-2.60647 -0.79654,-5.58222 -2.39822,-8.14733 -1.79112,-2.8688 -4.89227,-5.15243 -9.20431,-5.15243 z"
       inkscape:connector-curvature="0"
       style="fill:#4d4d4d;fill-opacity:1;stroke:none;stroke-width:1;stroke-opacity:1" />
    <path
       sodipodi:nodetypes="scccccscs"
       inkscape:connector-curvature="0"
       d="m 183.08103,748.37294 c 18.67691,-6.89493 45.27482,3.10995 52.58405,19.22079 l 12.77746,-10.92891 0.83098,55.35683 -41.63096,-20.47209 13.88073,-11.86697 c -3.99115,-17.02877 -38.32087,-9.24754 -41.61891,-7.96187 -3.51061,1.36853 -23.25623,7.40807 -38.77133,33.99552 5.94796,-39.64508 18.61929,-48.73118 41.94798,-57.3433 z"
       id="path5102"
       style="fill:#000000;fill-opacity:1;stroke:none;stroke-width:1;stroke-opacity:1" />
    <g
       id="g141">
      <ellipse
         ry="34.495525"
         rx="34.485989"
         cy="844.51538"
         cx="294.5"
         id="circle4163"
         style="fill:#000000;stroke:none;stroke-width:8.00982;stroke-miterlimit:4;stroke-dasharray:none;stroke-opacity:1" />
      <path
         inkscape:connector-curvature="0"
         style="font-variation-settings:normal;vector-effect:none;fill:#ffffff;fill-opacity:1;stroke-width:0.578048;stroke-linecap:butt;stroke-linejoin:miter;stroke-miterlimit:4;stroke-dasharray:none;stroke-dashoffset:0;stroke-opacity:1;stop-color:#000000"
         d="m 280.22612,822.8759 c -1.41214,-4.8e-4 -2.89804,0.20435 -4.46152,0.66067 a 0.9052249,0.90539552 0 0 0 -0.0138,0.0134 0.9052249,0.90539552 0 0 0 -0.0473,0.016 0.9052249,0.90539552 0 0 0 -0.0371,0.0134 0.9052249,0.90539552 0 0 0 -0.0447,0.0221 0.9052249,0.90539552 0 0 0 -0.0365,0.0184 0.9052249,0.90539552 0 0 0 -0.0441,0.0258 0.9052249,0.90539552 0 0 0 -0.0325,0.022 0.9052249,0.90539552 0 0 0 -0.0413,0.0295 0.9052249,0.90539552 0 0 0 -0.0308,0.0245 0.9052249,0.90539552 0 0 0 -0.0378,0.0344 0.9052249,0.90539552 0 0 0 -0.0283,0.027 0.9052249,0.90539552 0 0 0 -0.0353,0.0381 0.9052249,0.90539552 0 0 0 -0.0236,0.0282 0.9052249,0.90539552 0 0 0 -0.0325,0.0429 0.9052249,0.90539552 0 0 0 -0.0204,0.0294 0.9052249,0.90539552 0 0 0 -0.0269,0.0454 0.9052249,0.90539552 0 0 0 -0.0184,0.0331 0.9052249,0.90539552 0 0 0 -0.0222,0.0478 0.9052249,0.90539552 0 0 0 -0.0149,0.0355 0.9052249,0.90539552 0 0 0 -0.0169,0.0478 0.9052249,0.90539552 0 0 0 -0.0116,0.0368 0.9052249,0.90539552 0 0 0 -0.0162,0.0663 l -2.13366,10.67056 a 0.9052249,0.90539552 0 0 0 0.53599,1.01148 l 7.81571,3.2955 3.01297,15.45211 -11.10415,2.41244 a 0.9052249,0.90539552 0 0 0 -0.71465,0.87251 l -0.10115,7.28808 a 0.9052249,0.90539552 0 0 0 1.17918,0.87533 l 13.95647,-4.46141 2.2986,-0.44577 c 0.0169,0 0.0336,0 0.0505,0 0.94867,0 1.84209,-0.4519 2.46602,-1.18873 0.62347,-0.73599 0.94963,-1.69546 0.94868,-2.68365 v 0 c 5.7e-4,-0.62645 -0.13072,-1.24234 -0.38543,-1.7969 l -2.40819,-12.44402 11.98461,5.05302 a 0.9052249,0.90539552 0 0 0 0.0147,0.0134 0.9052249,0.90539552 0 0 0 0.052,0.0185 0.9052249,0.90539552 0 0 0 0.0333,0.0134 0.9052249,0.90539552 0 0 0 0.0518,0.0134 0.9052249,0.90539552 0 0 0 0.0397,0.0134 0.9052249,0.90539552 0 0 0 0.046,0.0134 0.9052249,0.90539552 0 0 0 0.0459,0.0134 0.9052249,0.90539552 0 0 0 0.0409,0 0.9052249,0.90539552 0 0 0 0.0515,0 0.9052249,0.90539552 0 0 0 0.0346,0 l 7.94748,-0.5033 a 0.9052249,0.90539552 0 0 0 0.75945,-0.51824 l 4.81408,-10.19327 h 7.6e-4 a 0.9052249,0.90539552 0 0 0 0.002,-0.0134 0.9052249,0.90539552 0 0 0 -0.52504,-1.25203 c -0.742,-0.40688 -1.50572,-0.69183 -2.28268,-0.87178 l -29.33643,-11.38457 a 0.9052249,0.90539552 0 0 0 -0.0765,-0.0258 c -1.26895,-0.36627 -2.60743,-0.57272 -4.01967,-0.57358 z m -2.51052,1.30797 a 0.9052249,0.90539552 0 0 1 0.35133,0.0686 l 27.70464,11.10601 a 0.90598726,0.90615802 0 0 1 0.54981,1.0283 0.9052249,0.90539552 0 0 0 -0.0674,0.1391 l -0.0797,0.19724 a 0.90598726,0.90615802 0 0 1 -1.0758,0.31795 l -27.70454,-11.10882 a 0.9052249,0.90539552 0 0 1 0.3217,-1.74846 z m 34.04675,12.23402 c 0.41925,0 0.83376,0.0478 1.24521,0.13334 l 1.40453,0.54512 -2.25544,4.77617 c 0.087,-0.38677 0.1313,-0.77046 0.1272,-1.12999 -0.009,-0.83202 -0.28015,-1.52016 -0.74752,-1.86437 -0.46738,-0.34444 -1.11372,-0.33169 -1.7509,0.0234 -0.15721,0.0883 -0.31492,0.19675 -0.46747,0.32174 0.0586,-0.0786 0.11336,-0.164 0.16075,-0.25624 0.13501,-0.26263 0.21419,-0.56708 0.21153,-0.83669 -0.003,-0.27011 -0.0901,-0.49961 -0.24422,-0.61664 -0.077,-0.0589 -0.1658,-0.0883 -0.26204,-0.0859 -0.0962,0 -0.20029,0.0307 -0.30072,0.0883 -0.20078,0.1153 -0.38877,0.33548 -0.52408,0.5986 -0.13502,0.26349 -0.2144,0.56682 -0.21124,0.83693 0.002,0.2701 0.0901,0.49973 0.24412,0.61676 0.15406,0.11653 0.3619,0.10908 0.56277,-0.0134 -0.3255,0.33941 -0.62375,0.7529 -0.86636,1.21216 -0.43908,0.83056 -0.68854,1.79151 -0.67891,2.62366 0.009,0.83228 0.28585,1.52312 0.75333,1.86756 0.46729,0.34444 1.10762,0.32861 1.7447,-0.0258 0.39811,-0.22226 0.78993,-0.57357 1.13488,-1.00854 l -0.80138,1.69645 -5.97924,0.38123 3.54972,-8.80531 c 1.39452,-0.73807 2.69395,-1.09723 3.95087,-1.08655 z m -28.40291,3.6354 1.52593,0.64349 2.83306,13.30034 c -0.28633,-0.0871 -0.58534,-0.13468 -0.89017,-0.13468 -0.25957,0 -0.51454,0.0355 -0.76115,0.0994 l -2.70767,-13.90839 z m 3.55926,1.50092 1.62149,0.68359 2.19159,11.32509 c -0.26032,-0.0723 -0.53017,-0.11042 -0.80488,-0.11042 -0.15657,0 -0.3112,0.0134 -0.46358,0.0368 l -2.54453,-11.93596 z m 3.0081,13.71567 c 0.36809,0 0.78687,0.18867 1.09312,0.55028 0.30634,0.36149 0.5177,0.94255 0.51685,1.50521 9.6e-4,0.56278 -0.21059,1.1436 -0.51674,1.50533 -0.14532,0.17161 -0.31598,0.30273 -0.49436,0.39473 l -0.58535,0.11281 c 0.20068,-0.50256 0.3034,-1.04853 0.30283,-1.6036 v 0 c 3.8e-4,-0.35964 -0.043,-0.71586 -0.12787,-1.05871 a 0.9052249,0.90539552 0 0 0 -0.0184,-0.21417 l -0.25309,-1.18726 c 0.0276,0 0.0556,-0.0134 0.0829,-0.0134 z m -3.09854,0.40982 c 0.36819,0 0.78707,0.18854 1.09341,0.55028 0.30627,0.36173 0.51742,0.94254 0.51665,1.50521 7.7e-4,0.5629 -0.21059,1.14372 -0.51674,1.50533 -0.30634,0.36174 -0.72513,0.55052 -1.09341,0.55052 -0.36809,0 -0.7845,-0.18891 -1.09076,-0.55052 -0.30624,-0.36149 -0.52007,-0.94243 -0.5193,-1.50533 -7.7e-4,-0.56267 0.21306,-1.14348 0.5193,-1.50521 0.30626,-0.36174 0.72267,-0.55028 1.09076,-0.55028 z m -3.28701,1.00928 c -0.0829,0.33929 -0.12541,0.6911 -0.12503,1.04621 v 0 c -9.6e-4,0.98843 0.32493,1.94778 0.9484,2.68389 0.0799,0.0932 0.16418,0.18387 0.25231,0.26851 l -10.34671,3.30752 0.0745,-5.31038 9.19652,-1.99819 z"
         id="path1339" />
    </g>
    <g
       id="g18">
      <ellipse
         ry="68.472313"
         rx="68.453377"
         transform="scale(-1,1)"
         style="fill:#000000;stroke:none;stroke-width:4.16408;stroke-miterlimit:4;stroke-dasharray:none;stroke-opacity:1"
         id="path4151"
         cx="-97.586967"
         cy="873.11908" />
      <path
         id="path145"
         d="m 71.546663,833.64134 c -2.576214,-8.7e-4 -5.286991,0.3728 -8.139299,1.20528 a 1.6514317,1.651743 0 0 0 -0.02518,0.0245 1.6514317,1.651743 0 0 0 -0.08629,0.0292 1.6514317,1.651743 0 0 0 -0.06768,0.0245 1.6514317,1.651743 0 0 0 -0.08155,0.0403 1.6514317,1.651743 0 0 0 -0.06659,0.0336 1.6514317,1.651743 0 0 0 -0.08045,0.0471 1.6514317,1.651743 0 0 0 -0.05929,0.0401 1.6514317,1.651743 0 0 0 -0.07534,0.0538 1.6514317,1.651743 0 0 0 -0.05619,0.0447 1.6514317,1.651743 0 0 0 -0.06896,0.0628 1.6514317,1.651743 0 0 0 -0.05163,0.0493 1.6514317,1.651743 0 0 0 -0.0644,0.0695 1.6514317,1.651743 0 0 0 -0.04305,0.0515 1.6514317,1.651743 0 0 0 -0.05929,0.0783 1.6514317,1.651743 0 0 0 -0.03722,0.0536 1.6514317,1.651743 0 0 0 -0.04907,0.0828 1.6514317,1.651743 0 0 0 -0.03357,0.0604 1.6514317,1.651743 0 0 0 -0.0405,0.0872 1.6514317,1.651743 0 0 0 -0.02718,0.0648 1.6514317,1.651743 0 0 0 -0.03083,0.0872 1.6514317,1.651743 0 0 0 -0.02116,0.0671 1.6514317,1.651743 0 0 0 -0.02955,0.12095 l -3.892507,19.46666 a 1.6514317,1.651743 0 0 0 0.977825,1.84528 l 14.258458,6.01209 5.496661,28.18979 -20.257669,4.4011 a 1.6514317,1.651743 0 0 0 -1.303759,1.59174 l -0.184531,13.29594 a 1.6514317,1.651743 0 0 0 2.151217,1.59684 l 25.46125,-8.13909 4.193412,-0.81324 c 0.03083,0 0.0613,0 0.09213,0 1.73069,0 3.360585,-0.82441 4.498842,-2.16864 1.137417,-1.34269 1.732441,-3.09308 1.730708,-4.89587 v 0 c 0.001,-1.14285 -0.238477,-2.26644 -0.703153,-3.27814 l -4.393341,-22.70204 21.863923,9.21839 a 1.6514317,1.651743 0 0 0 0.0268,0.0245 1.6514317,1.651743 0 0 0 0.0949,0.0337 1.6514317,1.651743 0 0 0 0.0607,0.0244 1.6514317,1.651743 0 0 0 0.0945,0.0245 1.6514317,1.651743 0 0 0 0.0724,0.0245 1.6514317,1.651743 0 0 0 0.0839,0.0244 1.6514317,1.651743 0 0 0 0.0837,0.0245 1.6514317,1.651743 0 0 0 0.0746,0 1.6514317,1.651743 0 0 0 0.0939,0 1.6514317,1.651743 0 0 0 0.0631,0 l 14.49886,-0.91819 a 1.6514317,1.651743 0 0 0 1.38549,-0.94544 l 8.78248,-18.59592 h 0.001 a 1.6514317,1.651743 0 0 0 0.004,-0.0245 1.6514317,1.651743 0 0 0 -0.95785,-2.28412 c -1.35365,-0.74228 -2.74693,-1.26213 -4.16437,-1.59041 L 79.020773,834.7931 a 1.6514317,1.651743 0 0 0 -0.139562,-0.0471 c -2.314987,-0.6682 -4.75682,-1.04483 -7.333217,-1.0464 z m -4.580025,2.38617 a 1.6514317,1.651743 0 0 1 0.640943,0.12515 l 50.542489,20.26107 a 1.6528225,1.6531341 0 0 1 1.00304,1.87596 1.6514317,1.651743 0 0 0 -0.12296,0.25376 l -0.1454,0.35983 a 1.6528225,1.6531341 0 0 1 -1.96262,0.58005 L 66.379823,839.21714 a 1.6514317,1.651743 0 0 1 0.586888,-3.18977 z m 62.112622,22.31893 c 0.76485,0 1.52106,0.0872 2.27168,0.24326 l 2.56233,0.99448 -4.11468,8.71332 c 0.15872,-0.70559 0.23954,-1.40557 0.23206,-2.06147 -0.0164,-1.51789 -0.51109,-2.77328 -1.36373,-3.40124 -0.85265,-0.62837 -2.03179,-0.60511 -3.19422,0.0427 -0.2868,0.16109 -0.57452,0.35894 -0.85282,0.58696 0.1069,-0.14339 0.2068,-0.29919 0.29326,-0.46746 0.2463,-0.47913 0.39075,-1.03455 0.3859,-1.5264 -0.005,-0.49277 -0.16437,-0.91146 -0.44554,-1.12496 -0.14047,-0.10745 -0.30247,-0.16109 -0.47805,-0.15671 -0.1755,0 -0.3654,0.056 -0.54861,0.16109 -0.36629,0.21034 -0.70925,0.61203 -0.9561,1.09204 -0.24632,0.4807 -0.39114,1.03407 -0.38537,1.52684 0.004,0.49276 0.16437,0.91168 0.44535,1.12518 0.28106,0.21259 0.66023,0.199 1.02668,-0.0245 -0.59382,0.6192 -1.13792,1.37354 -1.58053,2.21139 -0.80102,1.51521 -1.25612,3.26831 -1.23855,4.78643 0.0164,1.51835 0.52148,2.77867 1.37432,3.40705 0.85249,0.62837 2.02067,0.59949 3.18292,-0.0471 0.72629,-0.40548 1.4411,-1.04638 2.0704,-1.83991 l -1.46199,3.09489 -10.90813,0.69549 6.47588,-16.06382 c 2.54407,-1.34649 4.91466,-2.00171 7.2077,-1.98223 z m -51.816378,6.63218 2.783805,1.17394 5.168445,24.26425 c -0.522362,-0.1589 -1.067855,-0.2457 -1.623967,-0.2457 -0.473542,0 -0.938692,0.0648 -1.388591,0.18134 l -4.939692,-25.37354 z m 6.493276,2.73818 2.958138,1.2471 3.99819,20.66073 c -0.47491,-0.1319 -0.967207,-0.20144 -1.468369,-0.20144 -0.285636,0 -0.567733,0.0245 -0.845725,0.0671 l -4.64207,-21.77517 z m 5.487776,25.02195 c 0.671519,0 1.435513,0.3442 1.994215,1.0039 0.558866,0.65947 0.944458,1.71952 0.942907,2.746 0.0018,1.0267 -0.384186,2.08631 -0.942706,2.74622 -0.265112,0.31308 -0.576453,0.55228 -0.901877,0.72012 l -1.067874,0.20581 c 0.366107,-0.91684 0.553503,-1.91287 0.552463,-2.92551 v 0 c 6.93e-4,-0.6561 -0.07845,-1.30596 -0.233277,-1.93143 a 1.6514317,1.651743 0 0 0 -0.03357,-0.39072 l -0.461721,-2.16596 c 0.05035,0 0.101433,-0.0245 0.151238,-0.0245 z m -5.652769,0.74765 c 0.671701,0 1.435878,0.34396 1.994744,1.00389 0.558739,0.65992 0.943947,1.71951 0.942542,2.74601 0.0014,1.02692 -0.384186,2.08652 -0.942706,2.74622 -0.558866,0.65994 -1.322879,1.00433 -1.994744,1.00433 -0.671519,0 -1.431189,-0.34463 -1.98991,-1.00433 -0.558683,-0.65948 -0.94878,-1.7193 -0.947376,-2.74622 -0.0014,-1.0265 0.388693,-2.08609 0.947376,-2.74601 0.558721,-0.65993 1.318391,-1.00389 1.98991,-1.00389 z m -5.996601,1.84126 c -0.151237,0.61898 -0.22879,1.2608 -0.228096,1.90864 v 0 c -0.0018,1.80322 0.59278,3.5534 1.730197,4.89631 0.145764,0.17003 0.299519,0.33544 0.460298,0.48985 l -18.875846,6.03402 0.135913,-9.6879 16.777516,-3.64537 z"
         style="font-variation-settings:normal;vector-effect:none;fill:#ffffff;fill-opacity:1;stroke-width:0.578047;stroke-linecap:butt;stroke-linejoin:miter;stroke-miterlimit:4;stroke-dasharray:none;stroke-dashoffset:0;stroke-opacity:1;stop-color:#000000"
         inkscape:connector-curvature="0" />
    </g>
  </g>
</svg>
