<?xml version="1.0" encoding="UTF-8" standalone="no"?>
<svg
   xmlns:dc="http://purl.org/dc/elements/1.1/"
   xmlns:cc="http://creativecommons.org/ns#"
   xmlns:rdf="http://www.w3.org/1999/02/22-rdf-syntax-ns#"
   xmlns:svg="http://www.w3.org/2000/svg"
   xmlns="http://www.w3.org/2000/svg"
   xmlns:sodipodi="http://sodipodi.sourceforge.net/DTD/sodipodi-0.dtd"
   xmlns:inkscape="http://www.inkscape.org/namespaces/inkscape"
   sodipodi:docname="fear-of-unknown.svg"
   inkscape:version="1.0 (4035a4fb49, 2020-05-01)"
   version="1.1"
   id="svg5199"
   viewBox="0 0 450.00001 325"
   height="325"
   width="450">
  <defs
     id="defs5201" />
  <sodipodi:namedview
     inkscape:document-rotation="0"
     inkscape:window-maximized="1"
     inkscape:window-y="-8"
     inkscape:window-x="1912"
     inkscape:window-height="961"
     inkscape:window-width="1280"
     borderlayer="true"
     units="px"
     showgrid="false"
     inkscape:current-layer="layer1"
     inkscape:document-units="px"
     inkscape:cy="200.40034"
     inkscape:cx="385.71001"
     inkscape:zoom="1.4"
     inkscape:pageshadow="2"
     inkscape:pageopacity="0.0"
     borderopacity="1.0"
     bordercolor="#666666"
     pagecolor="#ffffff"
     id="base" />
  <metadata
     id="metadata5204">
    <rdf:RDF>
      <cc:Work
         rdf:about="">
        <dc:format>image/svg+xml</dc:format>
        <dc:type
           rdf:resource="http://purl.org/dc/dcmitype/StillImage" />
        <dc:title />
      </cc:Work>
    </rdf:RDF>
  </metadata>
  <g
     transform="translate(0,-727.36216)"
     id="layer1"
     inkscape:groupmode="layer"
     inkscape:label="Layer 1">
    <path
       inkscape:transform-center-y="-5.6320685"
       inkscape:transform-center-x="5.4440743"
       sodipodi:nodetypes="cccccccc"
       inkscape:connector-curvature="0"
       id="path15147-5"
       d="m 255.25685,889.86214 -40.79537,-32.63302 -3.4e-4,17.8635 H 169.7343 l 1.4e-4,31.04013 h 44.72683 l -8e-5,16.36241 z"
       style="fill:#000000;fill-opacity:1;stroke:none;stroke-width:1.78348;stroke-linecap:round;stroke-linejoin:round;stroke-miterlimit:4;stroke-dasharray:none;stroke-dashoffset:0;stroke-opacity:1" />
    <g
       id="g957"
       transform="matrix(1.0070317,0,0,1.0061092,-190.44617,-60.233384)"
       style="stroke-width:1.08835">
      <path
         d="m 555.14612,969.86542 q 0,1.6325 -1.1241,2.8147 -1.1242,1.1822 -2.75419,1.4636 h -20.90896 q -1.57381,-0.2818 -2.75414,-1.4636 -1.12414,-1.1822 -1.12414,-2.8147 v -3.0399 q 0,-2.2517 -0.33725,-3.9405 -0.28108,-1.6888 -1.18035,-3.6591 -0.89932,-1.9704 -2.58553,-4.6161 -1.68621,-2.6458 -4.38414,-6.699 -3.03518,-4.6161 -5.22725,-8.10635 -2.13587,-3.54651 -3.54104,-6.64264 -1.34896,-3.09613 -2.02345,-6.07972 -0.61822,-3.03986 -0.61822,-6.64264 0,-4.67246 1.18033,-9.00706 1.23656,-4.3346 3.48484,-8.10636 2.24828,-3.77167 5.33965,-6.81154 3.14759,-3.09611 6.91346,-5.29164 3.82207,-2.19543 8.20621,-3.37764 4.44036,-1.23846 9.16174,-1.23846 4.66517,0 8.99307,1.23846 4.32799,1.18221 8.15002,3.37764 3.82211,2.19553 6.96964,5.29164 3.14761,3.03987 5.39592,6.81154 2.30448,3.77176 3.54104,8.10636 1.23657,4.3346 1.23657,9.00706 0,3.32127 -0.73059,6.41749 -0.67431,3.09613 -2.13586,6.36113 -1.40508,3.20876 -3.59722,6.81165 -2.13586,3.60277 -5.00241,7.82488 -2.6979,3.9968 -4.38416,6.5863 -1.68616,2.5895 -2.64174,4.5598 -0.89941,1.914 -1.23646,3.6028 -0.2814,1.6888 -0.2814,3.9406 v 3.3213 z m 0,16.0437 q 0,0.7881 -0.11255,1.3511 -0.0511,0.2255 -0.0511,0.4499 -0.2251,0.619 -0.2251,1.4074 0,0.788 0.2251,1.2383 0,0.1128 0.0511,0.3382 0.11255,0.4499 0.11255,1.1822 0,0.9572 -0.28138,1.6325 -0.22511,0.67541 -0.50547,1.12601 -0.33767,0.5626 -0.78684,0.8444 -0.50547,0.2818 -1.06795,0.5626 -0.50545,0.2818 -0.73056,0.2818 -0.28139,0 -0.73058,0.2819 -0.4492,0.3371 -0.78685,0.788 l -2.02341,3.60277 q -0.33726,0.4499 -0.95549,0.7881 -0.61823,0.3945 -1.12413,0.619 h -10.51071 q -0.56204,-0.2255 -1.18033,-0.619 -0.61823,-0.3382 -0.89931,-0.7881 l -2.24828,-3.60277 q -0.28108,-0.4499 -0.6745,-0.788 -0.39343,-0.2819 -0.6745,-0.2819 -0.33726,0 -0.84314,-0.2818 -0.44959,-0.2818 -0.95547,-0.5626 -0.44971,-0.2818 -0.78685,-0.8444 -0.28108,-0.4499 -0.50587,-1.12601 -0.22481,-0.6753 -0.22481,-1.6325 0,-0.9571 0.0563,-1.1822 0,-0.2254 0.0563,-0.3382 0.1124,-0.2818 0.16862,-0.619 0.0563,-0.2818 0.0563,-0.6189 0,-0.3382 -0.0563,-0.7317 -0.0563,-0.3372 -0.16862,-0.6754 -0.0563,-0.2254 -0.0563,-0.4499 -0.0563,-0.2818 -0.0563,-1.3511 0,-1.0135 0.22481,-1.8014 0.28108,-0.788 0.56204,-1.2947 0.33726,-0.619 0.84314,-1.0696 l 2.36068,-1.2384 h 20.45936 l 2.36066,1.2384 q 0.45021,0.4499 0.84312,1.0696 0.2814,0.5063 0.56175,1.2947 0.28139,0.7881 0.28139,1.8014 z"
         style="font-style:normal;font-variant:normal;font-weight:normal;font-stretch:normal;font-size:11.25px;line-height:110%;font-family:'Archivo Narrow';-inkscape-font-specification:'Archivo Narrow';letter-spacing:0px;word-spacing:0px;fill:#000000;fill-opacity:1;stroke:none;stroke-width:7.18257px;stroke-linecap:butt;stroke-linejoin:miter;stroke-opacity:1"
         id="path6427"
         inkscape:connector-curvature="0" />
      <circle
         r="70.535713"
         cy="944.32642"
         cx="541.25"
         id="path127"
         style="fill:none;stroke:#000000;stroke-width:10.8835;stroke-miterlimit:4;stroke-dasharray:none;stroke-opacity:1;stop-color:#000000" />
      <rect
         transform="rotate(-45)"
         y="977.25592"
         x="-287.84616"
         height="144.64285"
         width="15"
         id="rect952"
         style="fill:#000000;fill-opacity:1;stroke:none;stroke-width:10.8835;stroke-miterlimit:4;stroke-dasharray:none;stroke-opacity:1;stop-color:#000000" />
    </g>
    <g
       transform="matrix(1.0954972,0,0,1.0954972,-10.024162,-57.008475)"
       id="g101">
      <path
         id="path5096-9"
         d="m 82.889227,765.22419 c -4.590105,0 -7.89129,2.42423 -9.797877,5.46953 -1.70516,2.723 -2.414584,5.88186 -2.552966,8.64883 -5.2034,2.56771 -10.967825,5.15722 -15.608817,7.80471 -2.434551,1.38913 -4.557066,2.78574 -6.154742,4.28673 -1.597631,1.50101 -2.776479,3.19162 -2.776479,5.18513 0,0.84878 0.415526,1.54 0.88234,2.04764 0.468666,0.50885 1.0292,0.90193 1.668038,1.26976 1.27761,0.73521 2.888314,1.3484 4.660178,1.87962 2.632207,0.78815 5.580064,1.37456 8.143203,1.6246 -2.549419,4.38584 -5.942205,8.41316 -8.91623,12.272 -3.436957,4.46065 -6.437529,8.73819 -6.437529,13.49014 0,0.67846 -0.01562,1.20859 0.05399,1.74141 0.06023,0.53551 0.21372,1.19625 0.749692,1.72337 0.536284,0.5247 1.192902,0.66831 1.727692,0.72602 0.534678,0.0582 1.073594,0.0582 1.764702,0.0582 h 18.962585 c 1.376482,0 2.384444,0.0863 3.421318,-0.58099 1.037008,-0.66508 1.415145,-1.57383 2.153949,-2.93184 h 0.01562 l 0.01562,-0.0593 c 0,0 1.652935,-3.35486 3.625133,-6.68457 0.98599,-1.66374 2.05653,-3.32162 2.98766,-4.49597 0.46652,-0.58748 0.90172,-1.05331 1.21552,-1.31631 0.0959,-0.0745 0.1401,-0.0962 0.20123,-0.13385 0.0618,0.0593 0.10507,0.0593 0.20122,0.13385 0.31351,0.26244 0.74974,0.72827 1.2155,1.31631 0.93111,1.17435 2.0016,2.83223 2.98768,4.49597 1.97202,3.32971 3.62511,6.68457 3.62511,6.68457 l 0.0156,0.0593 h 0.0156 c 0.73885,1.35801 1.113513,2.26145 2.143673,2.92815 1.02991,0.66662 2.03576,0.5874 3.39285,0.5874 h 19.04604 c 0.68,0 1.2104,0 1.74148,-0.0582 0.53093,-0.0582 1.18972,-0.20346 1.72056,-0.73575 0.53037,-0.5355 0.67725,-1.18719 0.73603,-1.71743 0.0602,-0.5247 0.0536,-1.05913 0.0536,-1.73871 0,-4.75138 -3.00053,-9.02842 -6.43758,-13.489 -2.97382,-3.85931 -6.36659,-7.88685 -8.91616,-12.27245 2.56318,-0.2518 5.51108,-0.83647 8.14318,-1.62483 1.77182,-0.53541 3.38259,-1.14377 4.66015,-1.8795 0.63884,-0.36426 1.19989,-0.76201 1.66775,-1.26913 0.46813,-0.50871 0.88266,-1.19951 0.88266,-2.04827 0,-1.99362 -1.17881,-3.68372 -2.77642,-5.18525 -1.59776,-1.50034 -3.72025,-2.89748 -6.15465,-4.28663 -4.64117,-2.64736 -10.40548,-5.23655 -15.60899,-7.8048 -0.13854,-2.76687 -0.84794,-5.92574 -2.5529,-8.64872 -1.906643,-3.04546 -5.207783,-5.46955 -9.797883,-5.46955 z"
         inkscape:connector-curvature="0"
         style="font-variation-settings:normal;opacity:1;vector-effect:none;fill:#000000;fill-opacity:1;stroke:none;stroke-width:1.35152;stroke-linecap:round;stroke-linejoin:round;stroke-miterlimit:4;stroke-dasharray:none;stroke-dashoffset:0;stroke-opacity:1;stop-color:#000000;stop-opacity:1" />
      <g
         id="g91">
        <g
           transform="translate(21.468821,-38.571429)"
           id="g37">
          <path
             d="m 412.98949,1103.3571 5.58135,9.6672 -5.58135,9.6672 -11.1627,0 -5.58135,-9.6672 5.58135,-9.6672 z"
             inkscape:randomized="0"
             inkscape:rounded="0"
             inkscape:flatsided="true"
             sodipodi:arg2="-0.52359878"
             sodipodi:arg1="-1.0471976"
             sodipodi:r2="9.6671848"
             sodipodi:r1="11.162703"
             sodipodi:cy="1113.0243"
             sodipodi:cx="407.40814"
             sodipodi:sides="6"
             id="path54"
             style="font-style:normal;font-weight:normal;font-size:medium;line-height:125%;font-family:sans-serif;letter-spacing:0px;word-spacing:0px;fill:#b3b3b3;fill-opacity:1;stroke:#000000;stroke-width:0.724785;stroke-linecap:butt;stroke-linejoin:round;stroke-miterlimit:4;stroke-dasharray:none;stroke-dashoffset:0;stroke-opacity:1"
             sodipodi:type="star"
             transform="matrix(4.8753288,2.8096854,-2.8149138,4.8667626,1208.1965,-5624.2735)" />
          <g
             transform="matrix(0.91924627,0,0,0.91840422,-83.617691,92.676351)"
             id="g1029"
             style="stroke-width:1.08835">
            <ellipse
               ry="31.102739"
               rx="31.029938"
               style="fill:#000000;stroke:none;stroke-width:4.53196;stroke-miterlimit:4;stroke-dasharray:none;stroke-opacity:1"
               id="ellipse1025"
               cx="-157.73289"
               cy="919.5993"
               transform="scale(-1,1)" />
            <path
               style="font-variation-settings:normal;vector-effect:none;fill:#ffffff;fill-opacity:1;stroke:none;stroke-width:1.51066;stroke-linecap:butt;stroke-linejoin:miter;stroke-miterlimit:4;stroke-dasharray:none;stroke-dashoffset:0;stroke-opacity:1;stop-color:#000000"
               d="m 157.7079,901.84421 v 0.029 c -5.99384,3.7252 -16.4109,4.2135 -17.33334,4.5959 1.14147,25.4549 6.69381,29.0689 17.33334,34.8583 v 0.027 c 0.009,-0.01 0.0163,-0.01 0.025,-0.015 0.009,0.01 0.0163,0.01 0.025,0.015 v -0.027 c 10.63952,-5.7894 16.19186,-9.4034 17.33333,-34.8583 -0.92243,-0.3824 -11.33949,-0.8707 -17.33333,-4.5959 v -0.029 c -0.008,0.01 -0.017,0.01 -0.025,0.015 -0.008,0 -0.017,-0.01 -0.025,-0.015 z"
               id="path1027" />
          </g>
        </g>
        <path
           inkscape:randomized="0"
           inkscape:rounded="0"
           inkscape:flatsided="true"
           sodipodi:arg2="-0.52359878"
           sodipodi:arg1="-1.0471976"
           sodipodi:r2="9.6671848"
           sodipodi:r1="11.162703"
           sodipodi:cy="1113.0243"
           sodipodi:cx="407.40814"
           sodipodi:sides="6"
           id="path57"
           style="font-style:normal;font-weight:normal;font-size:medium;line-height:125%;font-family:sans-serif;font-variation-settings:normal;letter-spacing:0px;word-spacing:0px;opacity:1;vector-effect:none;fill:#000000;fill-opacity:1;stroke:none;stroke-width:0.195747;stroke-linecap:round;stroke-linejoin:round;stroke-miterlimit:4;stroke-dasharray:none;stroke-dashoffset:0;stroke-opacity:1;stop-color:#000000;stop-opacity:1"
           sodipodi:type="star"
           transform="matrix(0.90813511,0.52336449,-0.52433839,0.90653947,336.82336,-346.38536)"
           d="m 412.98949,1103.3571 5.58135,9.6672 -5.58135,9.6672 -11.1627,0 -5.58135,-9.6672 5.58135,-9.6672 z" />
      </g>
    </g>
  </g>
</svg>
