<?xml version="1.0" encoding="UTF-8" standalone="no"?>
<svg
   xmlns:dc="http://purl.org/dc/elements/1.1/"
   xmlns:cc="http://creativecommons.org/ns#"
   xmlns:rdf="http://www.w3.org/1999/02/22-rdf-syntax-ns#"
   xmlns:svg="http://www.w3.org/2000/svg"
   xmlns="http://www.w3.org/2000/svg"
   xmlns:sodipodi="http://sodipodi.sourceforge.net/DTD/sodipodi-0.dtd"
   xmlns:inkscape="http://www.inkscape.org/namespaces/inkscape"
   sodipodi:docname="fumble-the-loot.svg"
   inkscape:version="1.0 (4035a4fb49, 2020-05-01)"
   version="1.1"
   id="svg5199"
   viewBox="0 0 450.00001 325"
   height="325"
   width="450">
  <defs
     id="defs5201" />
  <sodipodi:namedview
     inkscape:document-rotation="0"
     inkscape:window-maximized="1"
     inkscape:window-y="134"
     inkscape:window-x="1672"
     inkscape:window-height="1017"
     inkscape:window-width="1920"
     borderlayer="true"
     units="px"
     showgrid="false"
     inkscape:current-layer="g1062"
     inkscape:document-units="px"
     inkscape:cy="210.07949"
     inkscape:cx="345.80195"
     inkscape:zoom="2.8"
     inkscape:pageshadow="2"
     inkscape:pageopacity="0.0"
     borderopacity="1.0"
     bordercolor="#666666"
     pagecolor="#ffffff"
     id="base" />
  <metadata
     id="metadata5204">
    <rdf:RDF>
      <cc:Work
         rdf:about="">
        <dc:format>image/svg+xml</dc:format>
        <dc:type
           rdf:resource="http://purl.org/dc/dcmitype/StillImage" />
        <dc:title />
      </cc:Work>
    </rdf:RDF>
  </metadata>
  <g
     transform="translate(0,-727.36216)"
     id="layer1"
     inkscape:groupmode="layer"
     inkscape:label="Layer 1">
    <g
       transform="matrix(0.75170163,0,0,0.75170163,-146.0839,196.45202)"
       id="g1062">
      <g
         transform="matrix(1.5653564,0,0,1.5653564,-238.20675,-576.43003)"
         id="g1113">
        <path
           d="m 395.48223,1093.1241 5.58135,9.6672 -5.58135,9.6671 -11.1627,0 -5.58135,-9.6671 5.58135,-9.6672 z"
           transform="matrix(6.4857233,3.7377668,-3.7447222,6.4743276,1991.6503,-7639.6536)"
           inkscape:randomized="0"
           inkscape:rounded="0"
           inkscape:flatsided="true"
           sodipodi:arg2="-0.52359878"
           sodipodi:arg1="-1.0471976"
           sodipodi:r2="9.6671848"
           sodipodi:r1="11.162703"
           sodipodi:cy="1102.7913"
           sodipodi:cx="389.90088"
           sodipodi:sides="6"
           id="path5084-7"
           style="font-style:normal;font-weight:normal;font-size:medium;line-height:125%;font-family:sans-serif;letter-spacing:0px;word-spacing:0px;fill:#b3b3b3;fill-opacity:1;stroke:#000000;stroke-width:0.724785;stroke-linecap:butt;stroke-linejoin:round;stroke-miterlimit:4;stroke-dasharray:none;stroke-dashoffset:0;stroke-opacity:1"
           sodipodi:type="star" />
        <path
           d="m 412.98949,1103.3571 5.58135,9.6672 -5.58135,9.6672 -11.1627,0 -5.58135,-9.6672 5.58135,-9.6672 z"
           inkscape:randomized="0"
           inkscape:rounded="0"
           inkscape:flatsided="true"
           sodipodi:arg2="-0.52359878"
           sodipodi:arg1="-1.0471976"
           sodipodi:r2="9.6671848"
           sodipodi:r1="11.162703"
           sodipodi:cy="1113.0243"
           sodipodi:cx="407.40814"
           sodipodi:sides="6"
           id="path5092-2"
           style="font-style:normal;font-weight:normal;font-size:medium;line-height:125%;font-family:sans-serif;letter-spacing:0px;word-spacing:0px;fill:#b3b3b3;fill-opacity:1;stroke:#000000;stroke-width:0.724785;stroke-linecap:butt;stroke-linejoin:round;stroke-miterlimit:4;stroke-dasharray:none;stroke-dashoffset:0;stroke-opacity:1"
           sodipodi:type="star"
           transform="matrix(6.4857233,3.7377668,-3.7447222,6.4743276,2069.9158,-7771.3468)" />
        <path
           transform="matrix(1.3303151,0,0,1.3303151,194.33761,-261.34308)"
           style="fill:#4d4d4d;fill-opacity:1;stroke:none;stroke-width:1;stroke-opacity:1"
           inkscape:connector-curvature="0"
           d="m 147.97743,885.61475 c -3.73926,0 -6.42854,1.97487 -7.98174,4.4557 -1.38909,2.21826 -1.96701,4.7916 -2.07974,7.04568 -4.23891,2.09177 -8.93484,4.2013 -12.71559,6.35803 -1.98327,1.13166 -3.71237,2.2694 -5.01389,3.49216 -1.30151,1.22278 -2.26184,2.60003 -2.26184,4.22402 0,0.69144 0.3385,1.25454 0.71879,1.66808 0.38179,0.41453 0.83843,0.73475 1.35885,1.0344 1.04079,0.59893 2.35294,1.09847 3.79637,1.5312 2.1443,0.64208 4.54575,1.11979 6.63379,1.32349 -2.07686,3.57287 -4.84076,6.8537 -7.26353,9.99726 -2.79989,3.63382 -5.24427,7.11849 -5.24427,10.98961 0,0.55271 -0.0134,0.98456 0.044,1.41863 0.0491,0.43625 0.17406,0.97452 0.61072,1.40392 0.43688,0.42745 0.9718,0.54443 1.40745,0.59145 0.43558,0.0475 0.8746,0.0475 1.43761,0.0475 h 15.44768 c 1.12134,0 1.94247,0.0703 2.78716,-0.47332 0.84478,-0.54179 1.15283,-1.28209 1.75469,-2.38839 h 0.0134 l 0.0134,-0.0484 c 0,0 1.34654,-2.73303 2.95318,-5.44554 0.80322,-1.35535 1.67534,-2.70592 2.43387,-3.6626 0.38004,-0.47858 0.73459,-0.85806 0.99021,-1.07232 0.0782,-0.0607 0.11412,-0.0784 0.16399,-0.10907 0.0503,0.0484 0.0856,0.0484 0.16399,0.10907 0.2554,0.21381 0.61077,0.59329 0.9902,1.07232 0.75853,0.95668 1.63059,2.30725 2.43388,3.6626 1.60649,2.71251 2.95318,5.44554 2.95318,5.44554 l 0.0134,0.0484 h 0.0134 c 0.60188,1.1063 0.9071,1.84229 1.74631,2.38541 0.83901,0.54304 1.6584,0.4785 2.76395,0.4785 h 15.51568 c 0.55395,0 0.98604,0 1.41868,-0.0475 0.43252,-0.0475 0.96919,-0.16574 1.40164,-0.59937 0.43206,-0.43625 0.55171,-0.96715 0.59959,-1.39908 0.0491,-0.42746 0.0437,-0.86283 0.0437,-1.41643 0,-3.87067 -2.44437,-7.35491 -5.24432,-10.9887 -2.4226,-3.14394 -5.18649,-6.42493 -7.26347,-9.99764 2.08808,-0.20511 4.48955,-0.68141 6.63377,-1.32365 1.44339,-0.43617 2.75559,-0.93176 3.79635,-1.53112 0.52043,-0.29673 0.97748,-0.62075 1.35862,-1.03387 0.38135,-0.41442 0.71905,-0.97716 0.71905,-1.6686 0,-1.62408 -0.96032,-3.00091 -2.26179,-4.22411 -1.30161,-1.22224 -3.03068,-2.36041 -5.01383,-3.49207 -3.78087,-2.15665 -8.47672,-4.26591 -12.71572,-6.35811 -0.11283,-2.254 -0.69076,-4.82735 -2.07968,-7.0456 -1.55323,-2.48094 -4.24247,-4.45571 -7.98177,-4.45571 z"
           id="path5096-9" />
        <path
           transform="matrix(1.3303151,0,0,1.3303151,194.33761,-261.34308)"
           style="font-style:italic;font-variant:normal;font-weight:normal;font-stretch:normal;font-size:medium;line-height:30.5494px;font-family:'Archivo Narrow';-inkscape-font-specification:'Archivo Narrow Italic';text-align:center;letter-spacing:0px;word-spacing:0px;writing-mode:lr-tb;text-anchor:middle;fill:#000000;fill-opacity:1;stroke:none;stroke-width:0.65488;stroke-linecap:butt;stroke-linejoin:miter;stroke-opacity:1"
           id="path5203"
           d="m 203.37341,862.57314 c 11.49817,-3.05283 26.75985,4.38991 30.20377,14.38196 l 8.21495,-5.78308 -2.61326,32.96999 -23.61738,-14.51159 8.92393,-6.27901 c -1.41836,-10.3518 -22.27833,-7.65016 -24.31252,-7.07051 -2.16539,0.61688 -14.25127,3.10112 -24.97393,18.04335 5.76412,-23.24509 13.81248,-27.93803 28.17444,-31.75111 z"
           inkscape:connector-curvature="0"
           sodipodi:nodetypes="scccccscs" />
        <g
           id="g220"
           transform="matrix(0.63193595,0,0,0.63193595,348.68235,405.78805)">
          <g
             transform="translate(97.153124,-119.99533)"
             id="g212">
            <ellipse
               style="fill:#000000;stroke:none;stroke-width:3.09359;stroke-miterlimit:4;stroke-dasharray:none;stroke-opacity:1"
               id="circle72"
               cx="266.27039"
               cy="993.09918"
               rx="26.236814"
               ry="26.298372" />
            <path
               inkscape:connector-curvature="0"
               style="fill:#ffffff;fill-opacity:1;stroke-width:1.0312"
               d="m 266.2704,974.83996 c 1.65517,0 2.75352,0.82837 4.22688,1.64901 1.39648,0.77809 3.15189,1.44499 5.6275,0.93835 1.17483,1.17741 2.36843,2.35507 3.64129,3.15274 1.04159,0.65289 2.21213,1.04181 3.37965,0.85786 -0.33499,2.64271 -1.93548,5.22766 -3.60853,6.5808 -4.41211,-1.46602 -8.83528,-2.19939 -13.25845,-2.19939 -4.42722,0 -8.85435,0.73482 -13.27052,2.20351 -1.6748,-1.35194 -3.2779,-3.93955 -3.61315,-6.58492 1.16728,0.18371 2.33799,-0.20546 3.37966,-0.85762 1.27286,-0.79791 2.4663,-1.97557 3.6413,-3.15298 2.47535,0.50664 4.23109,-0.15954 5.62741,-0.93812 1.47359,-0.82112 2.57187,-1.64924 4.22696,-1.64924 z m 0.009,1.54434 c -1.56176,0 -4.19063,2.11601 -4.19063,2.11601 0,0 1.67251,6.349 4.19063,6.349 2.5183,0 4.19087,-6.349 4.19087,-6.349 0,0 -2.62911,-2.11601 -4.19087,-2.11601 z m 0,10.85199 c 4.16074,0 8.32172,0.68212 12.49263,2.03406 0.17186,1.06453 -0.11898,1.85568 -0.74459,2.58711 -0.69832,0.81653 -1.87053,1.50978 -3.25985,2.0319 -2.77905,1.04447 -6.38274,1.4143 -8.48827,1.4143 -2.10545,0 -5.70897,-0.36983 -8.48786,-1.4143 -1.38956,-0.52212 -2.56154,-1.21513 -3.25986,-2.0319 -0.62582,-0.73143 -0.91678,-1.52234 -0.74483,-2.58711 4.17092,-1.35194 8.3319,-2.03406 12.49255,-2.03406 z m 13.65299,4.51651 c 0.77409,0.18855 2.12271,0.61445 2.36494,1.343 0.66231,1.99128 -1.33352,5.04202 -2.84288,6.9666 0.41586,-1.73918 0.64004,-3.58906 0.64004,-5.50687 0,-0.95285 -0.0556,-1.88879 -0.16212,-2.80273 z m -27.30567,0 a 24.108195,24.173567 0 0 0 -0.16207,2.8025 c 0,1.91804 0.22412,3.76792 0.64004,5.5071 -1.50937,-1.92458 -3.50519,-4.97532 -2.84288,-6.9666 0.24216,-0.72855 1.59093,-1.15494 2.36478,-1.343 z m 26.0116,1.51509 c 0.0239,0.42496 0.0374,0.85401 0.0374,1.28741 0,4.69225 -1.42892,8.9272 -3.6967,11.9576 -2.26771,3.0307 -5.33606,4.8455 -8.69965,4.8455 -3.36345,0 -6.43187,-1.8148 -8.6995,-4.8455 -2.26762,-3.0304 -3.69646,-7.26511 -3.69646,-11.9576 0,-0.4334 0.0137,-0.86245 0.0374,-1.28765 0.64634,0.60503 1.43568,1.09621 2.30421,1.50423 -0.33652,1.43847 0.0209,3.22744 0.95351,4.16191 1.71615,1.72011 5.56477,1.72011 7.28099,0 0.53153,-0.53299 0.75953,-1.3819 0.72948,-2.23396 0.38884,0 0.75659,0.0339 1.09057,0.0339 0.33406,0 0.7019,0 1.0908,-0.0339 -0.0302,0.85206 0.19787,1.70097 0.72949,2.23396 1.71622,1.72011 5.56477,1.72011 7.28092,0 0.93252,-0.93447 1.29002,-2.72344 0.9535,-4.16167 0.86853,-0.40802 1.65811,-0.89896 2.30421,-1.50423 z m -12.35891,9.31461 c -1.82022,2.919 -5.46047,3.284 -7.28068,3.284 1.82013,1.4595 7.28059,1.4595 7.28059,0 0,1.4595 5.46079,1.4595 7.281,0 -1.82021,0 -5.46071,-0.365 -7.281,-3.284 z"
               id="path74" />
          </g>
          <g
             transform="matrix(0.6164686,0,0,0.6164686,141.05447,217.75062)"
             id="g206">
            <ellipse
               style="fill:none;stroke:#000000;stroke-width:10;stroke-miterlimit:4;stroke-dasharray:none;stroke-opacity:1;stop-color:#000000"
               id="path127"
               cx="360.71429"
               cy="1063.0764"
               rx="64.839691"
               ry="64.780296" />
            <rect
               style="fill:#000000;fill-opacity:1;stroke:none;stroke-width:10;stroke-miterlimit:4;stroke-dasharray:none;stroke-opacity:1;stop-color:#000000"
               id="rect952"
               width="13.78238"
               height="132.90152"
               x="-499.70505"
               y="939.73712"
               transform="matrix(0.70743072,-0.7067827,0.70743072,0.7067827,0,0)" />
          </g>
        </g>
        <rect
           ry="3.8094873"
           rx="3.8094873"
           y="944.14783"
           x="483.57144"
           height="27.857143"
           width="55.714287"
           id="rect226"
           style="fill:#ffffff;fill-opacity:1;stroke:#000000;stroke-width:1.101;stroke-linecap:round;stroke-linejoin:round;stroke-opacity:1;stop-color:#000000" />
        <text
           id="text224"
           y="966.16443"
           x="494.93869"
           style="font-style:normal;font-variant:normal;font-weight:normal;font-stretch:normal;font-size:24px;line-height:1.25;font-family:'Archivo Narrow';-inkscape-font-specification:'Archivo Narrow';letter-spacing:0px;word-spacing:0px;fill:#000000;fill-opacity:1;stroke:none"
           xml:space="preserve"><tspan
             y="966.16443"
             x="494.93869"
             id="tspan222"
             sodipodi:role="line">$2k</tspan></text>
      </g>
    </g>
  </g>
</svg>
