<?xml version="1.0" encoding="UTF-8" standalone="no"?>
<!-- Created with Inkscape (http://www.inkscape.org/) -->

<svg
   xmlns:dc="http://purl.org/dc/elements/1.1/"
   xmlns:cc="http://creativecommons.org/ns#"
   xmlns:rdf="http://www.w3.org/1999/02/22-rdf-syntax-ns#"
   xmlns:svg="http://www.w3.org/2000/svg"
   xmlns="http://www.w3.org/2000/svg"
   xmlns:sodipodi="http://sodipodi.sourceforge.net/DTD/sodipodi-0.dtd"
   xmlns:inkscape="http://www.inkscape.org/namespaces/inkscape"
   width="450"
   height="325"
   viewBox="0 0 450.00001 325"
   id="svg5199"
   version="1.1"
   inkscape:version="0.92.0 r15299"
   sodipodi:docname="figure_alerts_guard_loot_dog.svg">
  <defs
     id="defs5201" />
  <sodipodi:namedview
     id="base"
     pagecolor="#ffffff"
     bordercolor="#666666"
     borderopacity="1.0"
     inkscape:pageopacity="0.0"
     inkscape:pageshadow="2"
     inkscape:zoom="0.98994949"
     inkscape:cx="236.85295"
     inkscape:cy="108.62907"
     inkscape:document-units="px"
     inkscape:current-layer="layer1"
     showgrid="false"
     units="px"
     borderlayer="true"
     inkscape:window-width="1920"
     inkscape:window-height="1017"
     inkscape:window-x="1672"
     inkscape:window-y="134"
     inkscape:window-maximized="1" />
  <metadata
     id="metadata5204">
    <rdf:RDF>
      <cc:Work
         rdf:about="">
        <dc:format>image/svg+xml</dc:format>
        <dc:type
           rdf:resource="http://purl.org/dc/dcmitype/StillImage" />
        <dc:title />
      </cc:Work>
    </rdf:RDF>
  </metadata>
  <g
     inkscape:label="Layer 1"
     inkscape:groupmode="layer"
     id="layer1"
     transform="translate(0,-727.36216)">
    <g
       id="g5217"
       transform="matrix(0.82442082,0,0,0.82442082,-488.05596,708.70652)">
      <circle
         r="46.601688"
         cy="180.0994"
         cx="-659.98737"
         id="circle5213"
         style="font-style:italic;font-variant:normal;font-weight:normal;font-stretch:normal;font-size:medium;line-height:30.54940224px;font-family:'Archivo Narrow';-inkscape-font-specification:'Archivo Narrow Italic';text-align:center;letter-spacing:0px;word-spacing:0px;writing-mode:lr-tb;text-anchor:middle;fill:#000000;fill-opacity:1;stroke:none;stroke-width:3.10677958;stroke-linecap:butt;stroke-linejoin:miter;stroke-miterlimit:4;stroke-dasharray:none;stroke-opacity:1"
         transform="scale(-1,1)" />
      <path
         id="path5215"
         style="font-style:italic;font-variant:normal;font-weight:normal;font-stretch:normal;font-size:medium;line-height:30.54940224px;font-family:'Archivo Narrow';-inkscape-font-specification:'Archivo Narrow Italic';text-align:center;letter-spacing:0px;word-spacing:0px;writing-mode:lr-tb;text-anchor:middle;display:inline;fill:#ffffff;fill-opacity:1;stroke:none;stroke-width:0.88203329;stroke-linecap:butt;stroke-linejoin:miter;stroke-miterlimit:4;stroke-dasharray:none;stroke-opacity:1"
         d="m 626.45167,178.07501 c -0.41404,4.27833 -0.71617,8.54816 -0.54751,12.90075 l 9.46716,9.46715 c -2.74128,-9.87289 -3.62812,-21.02367 1.50716,-32.70635 l -0.0795,-0.0106 z m 11.98826,-7.45365 c -4.67947,12.13242 -2.67997,23.56547 0.79653,33.6867 l 6.55976,6.55976 c 1.21957,-1.03787 2.4725,-1.9273 3.77447,-2.67128 -1.22402,-0.24852 -2.40279,-0.59761 -3.38913,-1.11266 -1.37969,-0.72062 -2.5621,-2.03175 -3.54741,-3.18746 -0.9852,-1.15567 -1.70427,-2.17242 -1.70427,-2.17242 l 2.10246,-1.4872 c 0,0 0.66052,0.92994 1.56336,1.98904 0.90329,1.05891 2.11836,2.23088 2.77808,2.57516 1.21847,0.63647 3.80933,1.11766 5.9892,1.33174 0.29704,0.03 0.59476,0.054 0.89234,0.077 1.17347,-0.33904 2.39004,-0.58371 3.66287,-0.73578 6.14016,-0.73288 13.45289,0.5599 23.29564,3.18552 2.34277,-1.02686 5.14411,-3.15112 7.572,-5.4668 -0.24302,-0.045 -0.48355,-0.10902 -0.71718,-0.18952 -1.41934,-0.49405 -2.66656,-1.79958 -2.80092,-3.55081 -0.12754,-1.65801 -0.0666,-3.70358 0.63456,-5.56221 0.30654,-0.81303 0.78043,-1.5993 1.41999,-2.25167 l 0.02,-0.02 -8.17772,-4.48665 c -1.31654,-0.50825 -2.29038,-1.43495 -2.955,-2.48335 -0.68287,-1.07747 -1.091,-2.27678 -1.442,-3.47256 -0.70031,-2.38829 -1.22087,-4.76927 -2.37463,-6.21006 -2.4344,-2.95065 -6.10142,-3.51361 -9.93789,-5.03482 l -0.36354,-0.14401 -0.21902,-0.32104 c -3.37294,-4.87948 -4.18642,-10.9539 -4.9321,-17.15202 -5.51365,4.51236 -9.69142,12.79884 -13.00865,18.98066 l -0.54051,1.00225 -1.05931,-0.41104 c -1.34592,-0.51921 -2.64361,-0.93769 -3.89499,-1.26173 z m 40.72793,16.50727 c 0.04,0.0106 0.073,0.03 0.11246,0.04 l -0.18052,-0.0815 z m -18.08695,-34.20766 c -0.44705,0.44555 -0.87874,0.90705 -1.28558,1.3903 0.69127,5.09302 1.62316,9.72933 4.00101,13.35515 0.25802,0.097 0.52115,0.19102 0.78742,0.28302 -0.85978,-5.89215 -1.24913,-12.10072 0.8923,-18.61847 -1.73648,1.18552 -3.18668,2.38604 -4.3953,3.58986 z m 28.20957,40.06599 c 4.34779,3.09386 2.60187,5.27123 0.85184,7.68722 1.14911,-0.65696 4.44099,-3.18386 3.92065,-5.32527 -0.41905,-1.72493 -3.3368,-2.18998 -4.77249,-2.36195 z m -24.05355,-14.59552 c 1.96649,0.78268 3.57479,2.17172 5.17995,3.59747 -1.27267,1.56346 -2.5394,1.65726 -4.10991,1.37174 -1.80332,-1.34609 -2.77657,-3.33889 -2.81377,-5.46981 0.61432,0.11206 1.19362,0.28153 1.74398,0.50066 z"
         inkscape:connector-curvature="0" />
    </g>
    <path
       transform="matrix(0,-4.3993958,4.3843478,0,-4717.0997,2666.4027)"
       sodipodi:type="star"
       style="font-style:normal;font-variant:normal;font-weight:normal;font-stretch:normal;font-size:medium;line-height:125%;font-family:sans-serif;-inkscape-font-specification:'Archivo Narrow Italic';text-align:center;letter-spacing:0px;word-spacing:0px;writing-mode:lr-tb;text-anchor:middle;fill:#b3b3b3;fill-opacity:1;stroke:#000000;stroke-width:0.31629431;stroke-linecap:butt;stroke-linejoin:round;stroke-miterlimit:4;stroke-dasharray:none;stroke-dashoffset:0;stroke-opacity:1"
       id="path6077-3"
       sodipodi:sides="6"
       sodipodi:cx="407.40814"
       sodipodi:cy="1113.0243"
       sodipodi:r1="11.162703"
       sodipodi:r2="9.6671848"
       sodipodi:arg1="-1.0471976"
       sodipodi:arg2="-0.52359878"
       inkscape:flatsided="true"
       inkscape:rounded="0"
       inkscape:randomized="0"
       d="m 412.98949,1103.3571 5.58135,9.6672 -5.58135,9.6672 -11.1627,0 -5.58135,-9.6672 5.58135,-9.6672 z" />
    <path
       sodipodi:nodetypes="scccccscs"
       inkscape:connector-curvature="0"
       d="m 126.15551,810.4728 c 9.84738,-0.38479 20.83563,8.3961 21.80939,17.09686 l 7.68802,-3.1865 -8.08495,26.17739 -16.4619,-16.00859 8.35096,-3.45894 c 0.72872,-8.62463 -16.62246,-10.21955 -18.37177,-10.11957 -1.86209,0.10645 -12.08153,-0.0749 -23.455815,10.06096 8.870205,-17.74558 16.226085,-20.08106 28.526065,-20.56161 z"
       id="path5102-0"
       style="font-style:italic;font-variant:normal;font-weight:normal;font-stretch:normal;font-size:medium;line-height:30.54940224px;font-family:'Archivo Narrow';-inkscape-font-specification:'Archivo Narrow Italic';text-align:center;letter-spacing:0px;word-spacing:0px;writing-mode:lr-tb;text-anchor:middle;fill:#000000;fill-opacity:1;stroke:none;stroke-width:0.54249102;stroke-linecap:butt;stroke-linejoin:miter;stroke-opacity:1" />
    <path
       d="m 412.98949,1103.3571 5.58135,9.6672 -5.58135,9.6672 -11.1627,0 -5.58135,-9.6672 5.58135,-9.6672 z"
       inkscape:randomized="0"
       inkscape:rounded="0"
       inkscape:flatsided="true"
       sodipodi:arg2="-0.52359878"
       sodipodi:arg1="-1.0471976"
       sodipodi:r2="9.6671848"
       sodipodi:r1="11.162703"
       sodipodi:cy="1113.0243"
       sodipodi:cx="407.40814"
       sodipodi:sides="6"
       id="path5201-1"
       style="font-style:normal;font-variant:normal;font-weight:normal;font-stretch:normal;font-size:medium;line-height:125%;font-family:sans-serif;-inkscape-font-specification:'Archivo Narrow Italic';text-align:center;letter-spacing:0px;word-spacing:0px;writing-mode:lr-tb;text-anchor:middle;fill:#b3b3b3;fill-opacity:1;stroke:#000000;stroke-width:0.31629431;stroke-linecap:butt;stroke-linejoin:round;stroke-miterlimit:4;stroke-dasharray:none;stroke-dashoffset:0;stroke-opacity:1"
       sodipodi:type="star"
       transform="matrix(0,-4.3993958,4.3843478,0,-4578.4264,2686.6507)" />
    <path
       style="font-style:italic;font-variant:normal;font-weight:normal;font-stretch:normal;font-size:medium;line-height:30.54940224px;font-family:'Archivo Narrow';-inkscape-font-specification:'Archivo Narrow Italic';text-align:center;letter-spacing:0px;word-spacing:0px;writing-mode:lr-tb;text-anchor:middle;fill:#000000;fill-opacity:1;stroke:none;stroke-width:0.54249102;stroke-linecap:butt;stroke-linejoin:miter;stroke-opacity:1"
       id="path5203"
       d="m 338.1615,824.79151 c -9.84737,-0.38479 -20.83562,8.3961 -21.80938,17.09686 l -7.68802,-3.1865 8.08495,26.17732 16.4619,-16.00852 -8.35096,-3.45894 c -0.72873,-8.62463 16.62246,-10.21962 18.37176,-10.11957 1.8621,0.10638 12.08154,-0.0749 23.45582,10.06096 -8.87021,-17.74558 -16.22609,-20.08106 -28.52607,-20.56161 z"
       inkscape:connector-curvature="0"
       sodipodi:nodetypes="scccccscs" />
    <path
       style="font-style:italic;font-variant:normal;font-weight:normal;font-stretch:normal;font-size:medium;line-height:30.54940224px;font-family:'Archivo Narrow';-inkscape-font-specification:'Archivo Narrow Italic';text-align:center;letter-spacing:0px;word-spacing:0px;writing-mode:lr-tb;text-anchor:middle;fill:#000000;fill-opacity:1;stroke:none;stroke-width:2.22383523;stroke-linecap:butt;stroke-linejoin:miter;stroke-opacity:1"
       inkscape:connector-curvature="0"
       d="m 161.81641,849.18587 -15.07196,11.29916 7,3.49835 8.07196,-6.05123 v -8.74613 z m 1.93855,0 v 8.7462 l 8.07205,6.05131 7.00034,-3.49849 z m 0.99922,2.40223 3.94492,2.84686 c -2.70592,-0.45313 -3.20281,0.99069 -4.02227,3.10135 l 0.0776,-5.94821 z m -4.06989,0.4226 -0.0297,3.59266 c -2.375,0.12746 -6.11589,1.55318 -11.61997,4.73713 l 11.64953,-8.32957 z m 2.10147,7.61714 -7.96967,5.97453 v 16.9009 l 7.96967,5.97467 7.96968,-5.97467 v -16.90061 l -7.96968,-5.97467 z m 0.45397,1.90285 c -4.03902,3.64399 -6.53108,17.7501 -6.85503,21.43946 l -0.0378,-16.27071 6.89269,-5.16882 z m -17.36252,0.68771 v 23.66906 l 7.00041,-3.49835 v -16.67222 z m 33.81709,0 -7.00032,3.49849 v 16.67222 l 7.00032,3.49835 z m -32.45493,2.51013 4.35882,2.24299 c -4.98427,4.17369 -3.31602,13.21234 -4.50999,17.50673 l 0.1513,-19.74972 z m 6.50492,19.39409 -6.99984,3.49828 15.07196,11.29923 v -8.74627 l -8.0719,-6.05124 z m 18.08287,0 -8.0722,6.05124 v 8.74613 l 15.07216,-11.29909 z m -18.24567,1.84919 c -2.11028,1.75335 -1.80346,2.62378 0.48217,5.85935 l -4.76522,-4.09385 4.28314,-1.7655 z"
       id="path5055" />
    <text
       id="text6440"
       y="906.5719"
       x="276.44086"
       style="font-style:normal;font-variant:normal;font-weight:normal;font-stretch:normal;font-size:36.41261292px;line-height:72.82522583px;font-family:'Archivo Narrow';-inkscape-font-specification:'Archivo Narrow, Normal';text-align:start;letter-spacing:0px;word-spacing:0px;writing-mode:lr-tb;text-anchor:start;fill:#000000;fill-opacity:1;stroke:none;stroke-width:2.91300893px;stroke-linecap:butt;stroke-linejoin:miter;stroke-opacity:1"
       xml:space="preserve"><tspan
         style="stroke-width:2.91300893px"
         y="906.5719"
         x="276.44086"
         id="tspan6438"
         sodipodi:role="line">$2k</tspan></text>
    <g
       transform="matrix(0.82442082,0,0,0.82442082,-143.59394,722.84866)"
       id="g4555">
      <circle
         transform="scale(-1,1)"
         style="font-style:italic;font-variant:normal;font-weight:normal;font-stretch:normal;font-size:medium;line-height:30.54940224px;font-family:'Archivo Narrow';-inkscape-font-specification:'Archivo Narrow Italic';text-align:center;letter-spacing:0px;word-spacing:0px;writing-mode:lr-tb;text-anchor:middle;fill:#000000;fill-opacity:1;stroke:none;stroke-width:3.10677958;stroke-linecap:butt;stroke-linejoin:miter;stroke-miterlimit:4;stroke-dasharray:none;stroke-opacity:1"
         id="circle4551"
         cx="-659.98737"
         cy="180.0994"
         r="46.601688" />
      <path
         inkscape:connector-curvature="0"
         d="m 626.45167,178.07501 c -0.41404,4.27833 -0.71617,8.54816 -0.54751,12.90075 l 9.46716,9.46715 c -2.74128,-9.87289 -3.62812,-21.02367 1.50716,-32.70635 l -0.0795,-0.0106 z m 11.98826,-7.45365 c -4.67947,12.13242 -2.67997,23.56547 0.79653,33.6867 l 6.55976,6.55976 c 1.21957,-1.03787 2.4725,-1.9273 3.77447,-2.67128 -1.22402,-0.24852 -2.40279,-0.59761 -3.38913,-1.11266 -1.37969,-0.72062 -2.5621,-2.03175 -3.54741,-3.18746 -0.9852,-1.15567 -1.70427,-2.17242 -1.70427,-2.17242 l 2.10246,-1.4872 c 0,0 0.66052,0.92994 1.56336,1.98904 0.90329,1.05891 2.11836,2.23088 2.77808,2.57516 1.21847,0.63647 3.80933,1.11766 5.9892,1.33174 0.29704,0.03 0.59476,0.054 0.89234,0.077 1.17347,-0.33904 2.39004,-0.58371 3.66287,-0.73578 6.14016,-0.73288 13.45289,0.5599 23.29564,3.18552 2.34277,-1.02686 5.14411,-3.15112 7.572,-5.4668 -0.24302,-0.045 -0.48355,-0.10902 -0.71718,-0.18952 -1.41934,-0.49405 -2.66656,-1.79958 -2.80092,-3.55081 -0.12754,-1.65801 -0.0666,-3.70358 0.63456,-5.56221 0.30654,-0.81303 0.78043,-1.5993 1.41999,-2.25167 l 0.02,-0.02 -8.17772,-4.48665 c -1.31654,-0.50825 -2.29038,-1.43495 -2.955,-2.48335 -0.68287,-1.07747 -1.091,-2.27678 -1.442,-3.47256 -0.70031,-2.38829 -1.22087,-4.76927 -2.37463,-6.21006 -2.4344,-2.95065 -6.10142,-3.51361 -9.93789,-5.03482 l -0.36354,-0.14401 -0.21902,-0.32104 c -3.37294,-4.87948 -4.18642,-10.9539 -4.9321,-17.15202 -5.51365,4.51236 -9.69142,12.79884 -13.00865,18.98066 l -0.54051,1.00225 -1.05931,-0.41104 c -1.34592,-0.51921 -2.64361,-0.93769 -3.89499,-1.26173 z m 40.72793,16.50727 c 0.04,0.0106 0.073,0.03 0.11246,0.04 l -0.18052,-0.0815 z m -18.08695,-34.20766 c -0.44705,0.44555 -0.87874,0.90705 -1.28558,1.3903 0.69127,5.09302 1.62316,9.72933 4.00101,13.35515 0.25802,0.097 0.52115,0.19102 0.78742,0.28302 -0.85978,-5.89215 -1.24913,-12.10072 0.8923,-18.61847 -1.73648,1.18552 -3.18668,2.38604 -4.3953,3.58986 z m 28.20957,40.06599 c 4.34779,3.09386 2.60187,5.27123 0.85184,7.68722 1.14911,-0.65696 4.44099,-3.18386 3.92065,-5.32527 -0.41905,-1.72493 -3.3368,-2.18998 -4.77249,-2.36195 z m -24.05355,-14.59552 c 1.96649,0.78268 3.57479,2.17172 5.17995,3.59747 -1.27267,1.56346 -2.5394,1.65726 -4.10991,1.37174 -1.80332,-1.34609 -2.77657,-3.33889 -2.81377,-5.46981 0.61432,0.11206 1.19362,0.28153 1.74398,0.50066 z"
         style="font-style:italic;font-variant:normal;font-weight:normal;font-stretch:normal;font-size:medium;line-height:30.54940224px;font-family:'Archivo Narrow';-inkscape-font-specification:'Archivo Narrow Italic';text-align:center;letter-spacing:0px;word-spacing:0px;writing-mode:lr-tb;text-anchor:middle;display:inline;fill:#ffffff;fill-opacity:1;stroke:none;stroke-width:0.88203329;stroke-linecap:butt;stroke-linejoin:miter;stroke-miterlimit:4;stroke-dasharray:none;stroke-opacity:1"
         id="path4553" />
    </g>
  </g>
</svg>
