<?xml version="1.0" encoding="UTF-8" standalone="no"?>
<svg
   xmlns:dc="http://purl.org/dc/elements/1.1/"
   xmlns:cc="http://creativecommons.org/ns#"
   xmlns:rdf="http://www.w3.org/1999/02/22-rdf-syntax-ns#"
   xmlns:svg="http://www.w3.org/2000/svg"
   xmlns="http://www.w3.org/2000/svg"
   xmlns:sodipodi="http://sodipodi.sourceforge.net/DTD/sodipodi-0.dtd"
   xmlns:inkscape="http://www.inkscape.org/namespaces/inkscape"
   sodipodi:docname="guard-locks-himself-in.svg"
   inkscape:version="1.0 (4035a4fb49, 2020-05-01)"
   version="1.1"
   id="svg5199"
   viewBox="0 0 450.00001 325"
   height="325"
   width="450">
  <defs
     id="defs5201" />
  <sodipodi:namedview
     inkscape:document-rotation="0"
     inkscape:window-maximized="1"
     inkscape:window-y="-8"
     inkscape:window-x="1912"
     inkscape:window-height="961"
     inkscape:window-width="1280"
     borderlayer="true"
     units="px"
     showgrid="false"
     inkscape:current-layer="layer1"
     inkscape:document-units="px"
     inkscape:cy="209.04515"
     inkscape:cx="254.19476"
     inkscape:zoom="2.8"
     inkscape:pageshadow="2"
     inkscape:pageopacity="0.0"
     borderopacity="1.0"
     bordercolor="#666666"
     pagecolor="#ffffff"
     id="base" />
  <metadata
     id="metadata5204">
    <rdf:RDF>
      <cc:Work
         rdf:about="">
        <dc:format>image/svg+xml</dc:format>
        <dc:type
           rdf:resource="http://purl.org/dc/dcmitype/StillImage" />
        <dc:title />
      </cc:Work>
    </rdf:RDF>
  </metadata>
  <g
     transform="translate(0,-727.36216)"
     id="layer1"
     inkscape:groupmode="layer"
     inkscape:label="Layer 1">
    <g
       style="stroke-width:1.12789"
       transform="matrix(0.88666807,0,0,0.88656006,38.274204,104.46902)"
       id="g21">
      <path
         d="m 412.98949,1103.3571 5.58135,9.6672 -5.58135,9.6672 -11.1627,0 -5.58135,-9.6672 5.58135,-9.6672 z"
         inkscape:randomized="0"
         inkscape:rounded="0"
         inkscape:flatsided="true"
         sodipodi:arg2="-0.52359878"
         sodipodi:arg1="-1.0471976"
         sodipodi:r2="9.6671848"
         sodipodi:r1="11.162703"
         sodipodi:cy="1113.0243"
         sodipodi:cx="407.40814"
         sodipodi:sides="6"
         id="path5092"
         style="font-style:normal;font-weight:normal;font-size:medium;line-height:125%;font-family:sans-serif;letter-spacing:0px;word-spacing:0px;fill:#b3b3b3;fill-opacity:1;stroke:#000000;stroke-width:0.658152;stroke-linecap:butt;stroke-linejoin:round;stroke-miterlimit:4;stroke-dasharray:none;stroke-dashoffset:0;stroke-opacity:1"
         sodipodi:type="star"
         transform="matrix(7.4087419,4.2774391,-4.291153,7.4324951,2074.9551,-9052.2261)" />
      <path
         style="fill:#4d4d4d;fill-opacity:1;stroke:none;stroke-width:1.12789;stroke-opacity:1"
         inkscape:connector-curvature="0"
         d="m 317.17299,920.53971 c -5.68233,0 -9.76906,3.01595 -12.12937,6.80473 -2.1109,3.3877 -2.98914,7.31767 -3.16046,10.76 -6.44161,3.19458 -13.57771,6.41639 -19.32308,9.71012 -3.01386,1.72816 -5.64146,3.46572 -7.6193,5.33312 -1.97785,1.86741 -3.43719,3.97066 -3.43719,6.45098 0,1.05594 0.51439,1.91602 1.09229,2.54753 0.58019,0.63292 1.27412,1.12199 2.06498,1.57968 1.58162,0.91473 3.57561,1.67752 5.76911,2.33841 3.25855,0.98067 6.90788,1.71019 10.08096,2.02131 -3.15607,5.45632 -7.35619,10.46693 -11.03794,15.2677 -4.25482,5.54956 -7.9694,10.87131 -7.9694,16.78321 0,0.8442 -0.0204,1.5037 0.067,2.1666 0.0745,0.6663 0.26448,1.4883 0.92807,2.144 0.6639,0.6528 1.47676,0.8314 2.13881,0.9033 0.66193,0.073 1.32907,0.073 2.18465,0.073 h 23.47489 c 1.70404,0 2.95186,0.1069 4.23548,-0.7229 1.28377,-0.8274 1.75188,-1.958 2.66649,-3.6475 h 0.0204 l 0.0204,-0.073 c 0,0 2.04624,-4.17384 4.48775,-8.31639 1.22061,-2.06994 2.54592,-4.13253 3.69862,-5.59354 0.57753,-0.73086 1.1163,-1.31045 1.50475,-1.63758 0.11886,-0.0932 0.17342,-0.11988 0.24921,-0.16663 0.0764,0.0734 0.13013,0.0734 0.24922,0.16663 0.38812,0.32645 0.92816,0.90607 1.50473,1.63758 1.15271,1.46101 2.47794,3.5236 3.69863,5.59354 2.44126,4.14255 4.48776,8.31639 4.48776,8.31639 l 0.0204,0.073 h 0.0204 c 0.91465,1.6895 1.37848,2.8134 2.65378,3.6428 1.27499,0.8294 2.52015,0.7309 4.2002,0.7309 h 23.57824 c 0.84181,0 1.49843,0 2.15588,-0.073 0.65728,-0.073 1.47283,-0.2531 2.12998,-0.9153 0.65658,-0.6662 0.83841,-1.477 0.91118,-2.1366 0.0745,-0.6529 0.0664,-1.3178 0.0664,-2.1632 0,-5.91133 -3.71458,-11.23241 -7.96948,-16.782 -3.68148,-4.80142 -7.8816,-9.81203 -11.03787,-15.26835 3.17315,-0.31313 6.82248,-1.04064 10.08094,-2.02131 2.19344,-0.66621 4.18752,-1.42303 5.76908,-2.3384 0.79089,-0.45305 1.48544,-0.94803 2.06463,-1.57893 0.57951,-0.63291 1.0927,-1.49235 1.0927,-2.54829 0,-2.48032 -1.45936,-4.58292 -3.43712,-6.45098 -1.97797,-1.86672 -4.60553,-3.6049 -7.61924,-5.33305 -5.74554,-3.29379 -12.88154,-6.51496 -19.32329,-9.71013 -0.17137,-3.44233 -1.04968,-7.37235 -3.16037,-10.76005 -2.36033,-3.78878 -6.44701,-6.80474 -12.12941,-6.80474 z"
         id="path5096" />
    </g>
    <g
       style="stroke-width:1.76659"
       transform="matrix(0.56540199,0,0,0.56672855,57.496433,382.92165)"
       id="g37">
      <circle
         style="fill:#000000;stroke:none;stroke-width:7.35619;stroke-miterlimit:4;stroke-dasharray:none;stroke-opacity:1"
         id="path4151"
         cx="-60.567062"
         cy="820.74567"
         r="62.46114"
         transform="scale(-1,1)" />
      <g
         style="font-style:normal;font-weight:normal;font-size:48.9798px;line-height:125%;font-family:sans-serif;letter-spacing:0px;word-spacing:0px;fill:#ffffff;fill-opacity:1;stroke:none;stroke-width:0.874876px;stroke-linecap:butt;stroke-linejoin:miter;stroke-opacity:1"
         id="text3340"
         transform="matrix(2.1538472,0,0,2.1538472,-12.373758,-1378.2198)">
        <path
           d="m 45.225419,1016.332 q 0.669646,0 1.291459,0.2631 0.621814,0.263 1.076216,0.7174 0.478318,0.4305 0.741393,1.0284 0.286991,0.574 0.286991,1.2197 v 18.0087 q 0,0.6936 -0.263075,1.2915 -0.239159,0.5979 -0.693561,1.0523 -0.454402,0.4783 -1.0523,0.7414 -0.597898,0.263 -1.267543,0.263 H 22.457477 q -0.693561,0 -1.315374,-0.263 -0.597898,-0.2631 -1.0523,-0.7414 -0.454402,-0.4544 -0.717477,-1.0523 -0.263075,-0.5979 -0.263075,-1.2915 v -18.0087 q 0,-0.6457 0.263075,-1.2197 0.28699,-0.5979 0.741393,-1.0284 0.478318,-0.4544 1.076215,-0.7174 0.597898,-0.2631 1.267543,-0.2631 v -3.8744 q 0,-2.4394 0.406571,-4.544 0.40657,-2.1046 1.626281,-3.6352 1.243627,-1.5546 3.467807,-2.4155 2.248095,-0.8849 5.907228,-0.8849 3.68305,0 5.907229,0.8849 2.248095,0.8609 3.44389,2.4155 1.219712,1.5306 1.602366,3.6352 0.40657,2.1046 0.40657,4.544 z m -17.889097,-3.8744 v 3.7548 h 13.058085 v -3.7548 q 0,-1.8176 -0.143496,-3.0612 -0.143495,-1.2676 -0.789225,-2.0329 -0.621813,-0.7653 -1.937188,-1.1001 -1.315375,-0.3348 -3.659134,-0.3348 -2.319842,0 -3.635217,0.3348 -1.291459,0.3348 -1.937189,1.1001 -0.645729,0.7653 -0.81314,2.0329 -0.143496,1.2436 -0.143496,3.0612 z"
           id="path3583"
           inkscape:connector-curvature="0"
           style="fill:#ffffff;stroke-width:0.874876px" />
      </g>
    </g>
    <g
       style="stroke-width:1.12789"
       transform="matrix(0.88666807,0,0,0.88656006,38.274204,104.46902)"
       id="g27">
      <path
         d="m 395.48223,1093.1241 5.58135,9.6672 -5.58135,9.6671 -11.1627,0 -5.58135,-9.6671 5.58135,-9.6672 z"
         transform="matrix(7.4087419,4.2774391,-4.291153,7.4324951,2073.1433,-9051.5287)"
         inkscape:randomized="0"
         inkscape:rounded="0"
         inkscape:flatsided="true"
         sodipodi:arg2="-0.52359878"
         sodipodi:arg1="-1.0471976"
         sodipodi:r2="9.6671848"
         sodipodi:r1="11.162703"
         sodipodi:cy="1102.7913"
         sodipodi:cx="389.90088"
         sodipodi:sides="6"
         id="path5084"
         style="font-style:normal;font-weight:normal;font-size:medium;line-height:125%;font-family:sans-serif;letter-spacing:0px;word-spacing:0px;fill:#b3b3b3;fill-opacity:1;stroke:#000000;stroke-width:0.658152;stroke-linecap:butt;stroke-linejoin:round;stroke-miterlimit:4;stroke-dasharray:none;stroke-dashoffset:0;stroke-opacity:1"
         sodipodi:type="star" />
      <g
         id="g32"
         transform="matrix(0.63767041,0,0,0.63924439,170.49885,197.84076)"
         style="stroke-width:1.76659">
        <circle
           style="fill:#000000;stroke:none;stroke-width:7.35619;stroke-miterlimit:4;stroke-dasharray:none;stroke-opacity:1"
           id="circle28"
           cx="-92.639404"
           cy="961.91449"
           r="62.46114"
           transform="scale(-1,1)" />
        <path
           inkscape:connector-curvature="0"
           style="fill:#ffffff;fill-opacity:1;stroke-width:2.45207"
           d="m 92.639411,918.54708 c -3.94041,0 -6.55523,1.96745 -10.0628,3.91655 -3.32456,1.84804 -7.50361,3.432 -13.39721,2.22867 -2.79688,2.79646 -5.63845,5.59352 -8.6687,7.48807 -2.47969,1.55066 -5.26635,2.47439 -8.04584,2.0375 0.7975,6.27669 4.60774,12.41619 8.59072,15.63003 10.50377,-3.48195 21.03386,-5.22378 31.56396,-5.22378 10.539739,0 21.079279,1.74527 31.592709,5.23355 3.98714,-3.21098 7.80359,-9.35679 8.6017,-15.6398 -2.77891,0.43633 -5.56597,-0.488 -8.04585,-2.03693 -3.03026,-1.89512 -5.87143,-4.69218 -8.66871,-7.48864 -5.893,1.20333 -10.07283,-0.37892 -13.39701,-2.22812 -3.508119,-1.95023 -6.122759,-3.9171 -10.062969,-3.9171 z m -0.0207,3.66795 c 3.71803,0 9.976499,5.02574 9.976499,5.02574 0,0 -3.981679,15.07946 -9.976499,15.07946 -5.99523,0 -9.97706,-15.07946 -9.97706,-15.07946 0,0 6.25904,-5.02574 9.97706,-5.02574 z m 0,25.77451 c -9.90534,0 -19.81125,1.62011 -29.74079,4.83109 -0.40916,2.52837 0.28325,4.40741 1.77262,6.14463 1.66245,1.93935 4.4531,3.58588 7.76061,4.82596 6.616,2.48072 15.19519,3.3591 20.20775,3.3591 5.01237,0 13.591169,-0.87838 20.206789,-3.3591 3.30808,-1.24008 6.09816,-2.88604 7.76063,-4.82596 1.48988,-1.73722 2.18256,-3.6157 1.77319,-6.14463 -9.92958,-3.21098 -19.83548,-4.83109 -29.740609,-4.83109 z m -32.50324,10.72714 c -1.84284,0.44782 -5.05345,1.45939 -5.63012,3.18975 -1.57674,4.72948 3.17465,11.97529 6.76795,16.54631 -0.99002,-4.13068 -1.52373,-8.52432 -1.52373,-13.0793 0,-2.26312 0.13242,-4.48605 0.38595,-6.65676 z m 65.005729,0 a 57.393602,57.414526 0 0 1 0.38585,6.6562 c 0,4.55554 -0.53356,8.94918 -1.52373,13.07986 3.5933,-4.57102 8.34469,-11.81683 6.76795,-16.54631 -0.5765,-1.73036 -3.78748,-2.74308 -5.62975,-3.18975 z m -61.924969,3.5985 c -0.0568,1.0093 -0.089,2.02834 -0.089,3.0577 0,11.14456 3.40179,21.20289 8.80062,28.40046 5.39867,7.19816 12.70338,11.50856 20.71099,11.50856 8.007239,0 15.312129,-4.3104 20.710599,-11.50856 5.39847,-7.19757 8.80006,-17.25533 8.80006,-28.40046 0,-1.02936 -0.0326,-2.0484 -0.089,-3.05827 -1.53871,1.437 -3.41786,2.60359 -5.48555,3.57267 0.80113,3.41651 -0.0498,7.66548 -2.27,9.88494 -4.08557,4.08535 -13.24786,4.08535 -17.333619,0 -1.26539,-1.26589 -1.80819,-3.28215 -1.73664,-5.30587 -0.92569,0 -1.80119,0.0804 -2.59628,0.0804 -0.79529,0 -1.671,0 -2.59685,-0.0804 0.0718,2.02372 -0.47106,4.03998 -1.73666,5.30587 -4.08576,4.08535 -13.24787,4.08535 -17.33345,0 -2.22002,-2.21946 -3.07112,-6.46843 -2.26998,-9.88436 -2.06767,-0.96909 -3.9474,-2.13512 -5.48554,-3.57268 z m 29.42247,22.12319 c 4.33332,6.9329 12.999559,7.7998 17.332859,7.7998 -4.33311,3.46647 -17.332659,3.46647 -17.332659,0 0,3.46647 -13.00032,3.46647 -17.33363,0 4.33331,0 13.00012,-0.8669 17.33363,-7.7998 z"
           id="path15149" />
      </g>
    </g>
    <path
       sodipodi:nodetypes="scccccscs"
       inkscape:connector-curvature="0"
       d="m 133.70212,760.77935 c 14.6519,-7.56793 37.53932,-2.01733 45.19139,10.51322 l 9.3904,-10.29387 6.3281,45.51089 -36.31404,-12.65163 10.20176,-11.1781 c -5.01774,-13.62221 -32.44807,-3.74122 -35.02841,-2.34872 -2.74667,1.48224 -18.36443,8.4537 -28.40877,31.92172 0.8473,-33.25543 10.33836,-42.02075 28.63957,-51.47351 z"
       id="path5102"
       style="fill:#000000;fill-opacity:1;stroke:none;stroke-width:1;stroke-opacity:1" />
  </g>
</svg>
