<?xml version="1.0" encoding="UTF-8" standalone="no"?>
<svg
   xmlns:dc="http://purl.org/dc/elements/1.1/"
   xmlns:cc="http://creativecommons.org/ns#"
   xmlns:rdf="http://www.w3.org/1999/02/22-rdf-syntax-ns#"
   xmlns:svg="http://www.w3.org/2000/svg"
   xmlns="http://www.w3.org/2000/svg"
   xmlns:sodipodi="http://sodipodi.sourceforge.net/DTD/sodipodi-0.dtd"
   xmlns:inkscape="http://www.inkscape.org/namespaces/inkscape"
   sodipodi:docname="huh-didnt-see-those.svg"
   inkscape:version="1.0.1 (3bc2e813f5, 2020-09-07)"
   version="1.1"
   id="svg5199"
   viewBox="0 0 450.00001 325"
   height="325"
   width="450">
  <defs
     id="defs5201" />
  <sodipodi:namedview
     inkscape:document-rotation="0"
     inkscape:window-maximized="1"
     inkscape:window-y="-8"
     inkscape:window-x="-8"
     inkscape:window-height="1017"
     inkscape:window-width="1920"
     borderlayer="true"
     units="px"
     showgrid="false"
     inkscape:current-layer="layer1"
     inkscape:document-units="px"
     inkscape:cy="259.70856"
     inkscape:cx="396.87757"
     inkscape:zoom="1.4"
     inkscape:pageshadow="2"
     inkscape:pageopacity="0.0"
     borderopacity="1.0"
     bordercolor="#666666"
     pagecolor="#ffffff"
     id="base" />
  <metadata
     id="metadata5204">
    <rdf:RDF>
      <cc:Work
         rdf:about="">
        <dc:format>image/svg+xml</dc:format>
        <dc:type
           rdf:resource="http://purl.org/dc/dcmitype/StillImage" />
        <dc:title />
      </cc:Work>
    </rdf:RDF>
  </metadata>
  <g
     transform="translate(0,-727.36216)"
     id="layer1"
     inkscape:groupmode="layer"
     inkscape:label="Layer 1">
    <g
       id="g20">
      <path
         style="fill:#000000;stroke-width:1"
         d="m 344.97617,1024.4769 c -28.03651,-0.3795 -31.40662,-0.5991 -39.21643,-2.5547 -12.70274,-3.1809 -20.80851,-9.9959 -23.94355,-20.1307 -1.03481,-3.34533 -1.40823,-6.0947 -1.52795,-11.25023 -0.15237,-6.56148 0.27562,-10.55537 1.82074,-16.99087 1.31971,-5.49666 3.82288,-13.31299 6.46138,-20.17611 7.87421,-20.48197 21.0566,-39.34821 37.92447,-54.27643 1.72,-1.52221 3.32506,-3.03659 3.56679,-3.36531 3.891,-6.65426 -0.2129,-15.75093 -1.92448,-18.80402 -1.51191,-2.66147 -3.90735,-6.00123 -7.53298,-10.50268 -1.60228,-1.9893 -3.36009,-4.21461 -3.90625,-4.94502 -2.46312,-3.29428 -4.31002,-8.12488 -5.57327,-14.57701 -0.23168,-1.18334 -0.85144,-3.72654 -1.37723,-5.65167 -1.17326,-4.29565 -1.2318,-5.35106 -0.36328,-6.54998 1.04188,-1.43829 2.51762,-2.01413 4.08208,-1.59287 1.00247,0.26992 1.94244,1.08182 3.0508,2.63501 1.45532,2.03949 1.22391,1.94658 4.95132,1.9871 2.57354,0.0281 4.73268,0.22414 10.2075,0.92736 15.4861,1.98924 17.0482,1.88882 25.52491,-1.64035 6.02817,-2.50977 8.72105,-3.19239 12.51797,-3.17314 4.64492,0.0232 8.96825,1.48425 13.59373,4.5929 1.02197,0.68684 3.35442,2.25892 5.18322,3.4936 1.82879,1.23468 3.85318,2.44925 4.49864,2.69906 2.41747,0.93579 4.91964,0.7152 9.87745,-0.87082 3.1194,-0.99789 4.96975,-1.25632 6.18241,-0.86348 1.139,0.369 3.04474,1.86119 3.54836,2.7784 0.68939,1.25547 0.59187,2.45011 -0.46457,5.69079 -0.49756,1.52629 -1.16718,3.30314 -1.48805,3.94859 -1.72952,3.47912 -5.69433,7.43322 -13.84153,13.80424 -1.45228,1.13566 -4.45405,3.48376 -6.6706,5.21799 -2.21655,1.73418 -4.41698,3.62074 -4.88983,4.19224 -6.9648,10.10605 -1.93425,13.19099 3.80061,18.75274 11.04537,10.68807 24.0719,26.95995 31.85462,39.79074 5.02671,8.28716 7.8315,14.48734 11.43328,25.274 3.69177,11.05615 5.15057,18.49382 5.15153,26.2648 0.001,7.56176 -0.92536,12.69983 -3.11759,17.29293 -5.35628,11.2225 -17.74616,17.2912 -37.35421,18.2965 -3.90416,0.2002 -42.5192,0.4052 -52.04001,0.2764 z"
         id="path1040"
         sodipodi:nodetypes="sssssssccscsssscccscsscsssssssccsscsss" />
      <path
         id="path5544"
         d="m 358.95814,917.26914 v 0.0685 c -14.28778,8.88005 -39.11949,10.04392 -41.31833,10.95515 2.72098,60.67847 15.95639,69.29342 41.31833,83.09391 v 0.064 c 0.0206,0 0.0388,-0.023 0.0595,-0.037 0.0206,0.023 0.0389,0.023 0.0595,0.037 v -0.064 c 25.362,-13.80049 38.59741,-22.41544 41.31839,-83.09391 -2.1989,-0.91123 -27.03055,-2.0751 -41.31839,-10.95515 v -0.0685 c -0.018,0 -0.0406,0.0244 -0.0595,0.0367 -0.018,-0.0244 -0.0406,-0.0244 -0.0595,-0.0367 z"
         style="fill:#ffffff;fill-opacity:1;stroke:none;stroke-width:0.723946;stroke-linecap:round;stroke-linejoin:round;stroke-miterlimit:4;stroke-dasharray:none;stroke-opacity:1" />
    </g>
    <path
       style="fill:#000000;fill-opacity:1;stroke:none;stroke-width:0.941362;stroke-opacity:1"
       id="path5102"
       d="m 237.40907,754.80968 c 28.63918,-12.59176 68.53881,-4.54964 78.90657,15.16718 l 19.8704,-16.75357 -1.21243,72.37245 -62.23578,-18.89306 21.58592,-18.1927 c -5.29346,-21.55153 -57.7161,-4.81677 -62.77634,-2.50394 -5.38643,2.46183 -35.60855,14.13637 -60.33127,51.92778 10.7936,-53.07757 30.42074,-67.39629 66.19293,-83.12414 z"
       inkscape:connector-curvature="0"
       sodipodi:nodetypes="scccccscs" />
    <g
       style="stroke-width:0.620008"
       transform="matrix(1.6128836,0,0,1.6128836,-500.03908,-953.23457)"
       id="g51">
      <circle
         style="fill:#000000;stroke:none;stroke-width:4.96615;stroke-miterlimit:4;stroke-dasharray:none;stroke-opacity:1"
         id="circle4163"
         cx="357.85715"
         cy="1122.3622"
         r="31.467171" />
      <g
         transform="matrix(1.0666666,0,0,1.0666666,321.73409,33.351274)"
         id="text3340"
         style="font-style:normal;font-weight:normal;font-size:48.9798px;line-height:125%;font-family:sans-serif;letter-spacing:0px;word-spacing:0px;fill:#ffffff;fill-opacity:1;stroke:none;stroke-width:0.620008px;stroke-linecap:butt;stroke-linejoin:miter;stroke-opacity:1">
        <path
           style="fill:#ffffff;stroke-width:0.620008px"
           inkscape:connector-curvature="0"
           id="path3583"
           d="m 45.225419,1016.332 q 0.669646,0 1.291459,0.2631 0.621814,0.263 1.076216,0.7174 0.478318,0.4305 0.741393,1.0284 0.286991,0.574 0.286991,1.2197 v 18.0087 q 0,0.6936 -0.263075,1.2915 -0.239159,0.5979 -0.693561,1.0523 -0.454402,0.4783 -1.0523,0.7414 -0.597898,0.263 -1.267543,0.263 H 22.457477 q -0.693561,0 -1.315374,-0.263 -0.597898,-0.2631 -1.0523,-0.7414 -0.454402,-0.4544 -0.717477,-1.0523 -0.263075,-0.5979 -0.263075,-1.2915 v -18.0087 q 0,-0.6457 0.263075,-1.2197 0.28699,-0.5979 0.741393,-1.0284 0.478318,-0.4544 1.076215,-0.7174 0.597898,-0.2631 1.267543,-0.2631 v -3.8744 q 0,-2.4394 0.406571,-4.544 0.40657,-2.1046 1.626281,-3.6352 1.243627,-1.5546 3.467807,-2.4155 2.248095,-0.8849 5.907228,-0.8849 3.68305,0 5.907229,0.8849 2.248095,0.8609 3.44389,2.4155 1.219712,1.5306 1.602366,3.6352 0.40657,2.1046 0.40657,4.544 z m -17.889097,-3.8744 v 3.7548 h 13.058085 v -3.7548 q 0,-1.8176 -0.143496,-3.0612 -0.143495,-1.2676 -0.789225,-2.0329 -0.621813,-0.7653 -1.937188,-1.1001 -1.315375,-0.3348 -3.659134,-0.3348 -2.319842,0 -3.635217,0.3348 -1.291459,0.3348 -1.937189,1.1001 -0.645729,0.7653 -0.81314,2.0329 -0.143496,1.2436 -0.143496,3.0612 z" />
      </g>
    </g>
    <g
       id="g59"
       transform="matrix(1.6128836,0,0,1.6128836,-408.61051,-877.52028)"
       style="stroke-width:0.620008">
      <circle
         r="31.467171"
         cy="1122.3622"
         cx="357.85715"
         id="circle53"
         style="fill:#000000;stroke:none;stroke-width:4.96615;stroke-miterlimit:4;stroke-dasharray:none;stroke-opacity:1" />
      <g
         style="font-style:normal;font-weight:normal;font-size:48.9798px;line-height:125%;font-family:sans-serif;letter-spacing:0px;word-spacing:0px;fill:#ffffff;fill-opacity:1;stroke:none;stroke-width:0.620008px;stroke-linecap:butt;stroke-linejoin:miter;stroke-opacity:1"
         id="g57"
         transform="matrix(1.0666666,0,0,1.0666666,321.73409,33.351274)">
        <path
           d="m 45.225419,1016.332 q 0.669646,0 1.291459,0.2631 0.621814,0.263 1.076216,0.7174 0.478318,0.4305 0.741393,1.0284 0.286991,0.574 0.286991,1.2197 v 18.0087 q 0,0.6936 -0.263075,1.2915 -0.239159,0.5979 -0.693561,1.0523 -0.454402,0.4783 -1.0523,0.7414 -0.597898,0.263 -1.267543,0.263 H 22.457477 q -0.693561,0 -1.315374,-0.263 -0.597898,-0.2631 -1.0523,-0.7414 -0.454402,-0.4544 -0.717477,-1.0523 -0.263075,-0.5979 -0.263075,-1.2915 v -18.0087 q 0,-0.6457 0.263075,-1.2197 0.28699,-0.5979 0.741393,-1.0284 0.478318,-0.4544 1.076215,-0.7174 0.597898,-0.2631 1.267543,-0.2631 v -3.8744 q 0,-2.4394 0.406571,-4.544 0.40657,-2.1046 1.626281,-3.6352 1.243627,-1.5546 3.467807,-2.4155 2.248095,-0.8849 5.907228,-0.8849 3.68305,0 5.907229,0.8849 2.248095,0.8609 3.44389,2.4155 1.219712,1.5306 1.602366,3.6352 0.40657,2.1046 0.40657,4.544 z m -17.889097,-3.8744 v 3.7548 h 13.058085 v -3.7548 q 0,-1.8176 -0.143496,-3.0612 -0.143495,-1.2676 -0.789225,-2.0329 -0.621813,-0.7653 -1.937188,-1.1001 -1.315375,-0.3348 -3.659134,-0.3348 -2.319842,0 -3.635217,0.3348 -1.291459,0.3348 -1.937189,1.1001 -0.645729,0.7653 -0.81314,2.0329 -0.143496,1.2436 -0.143496,3.0612 z"
           id="path55"
           inkscape:connector-curvature="0"
           style="fill:#ffffff;stroke-width:0.620008px" />
      </g>
    </g>
  </g>
</svg>
