<?xml version="1.0" encoding="UTF-8" standalone="no"?>
<svg
   xmlns:dc="http://purl.org/dc/elements/1.1/"
   xmlns:cc="http://creativecommons.org/ns#"
   xmlns:rdf="http://www.w3.org/1999/02/22-rdf-syntax-ns#"
   xmlns:svg="http://www.w3.org/2000/svg"
   xmlns="http://www.w3.org/2000/svg"
   xmlns:sodipodi="http://sodipodi.sourceforge.net/DTD/sodipodi-0.dtd"
   xmlns:inkscape="http://www.inkscape.org/namespaces/inkscape"
   sodipodi:docname="increased-suspicion.svg"
   inkscape:version="1.0 (4035a4fb49, 2020-05-01)"
   version="1.1"
   id="svg5199"
   viewBox="0 0 450.00001 325"
   height="325"
   width="450">
  <defs
     id="defs5201" />
  <sodipodi:namedview
     inkscape:document-rotation="0"
     inkscape:window-maximized="1"
     inkscape:window-y="-8"
     inkscape:window-x="-8"
     inkscape:window-height="1017"
     inkscape:window-width="1920"
     borderlayer="true"
     units="px"
     showgrid="false"
     inkscape:current-layer="layer1"
     inkscape:document-units="px"
     inkscape:cy="220.32438"
     inkscape:cx="254.22392"
     inkscape:zoom="1.979899"
     inkscape:pageshadow="2"
     inkscape:pageopacity="0.0"
     borderopacity="1.0"
     bordercolor="#666666"
     pagecolor="#ffffff"
     id="base"
     inkscape:snap-global="false" />
  <metadata
     id="metadata5204">
    <rdf:RDF>
      <cc:Work
         rdf:about="">
        <dc:format>image/svg+xml</dc:format>
        <dc:type
           rdf:resource="http://purl.org/dc/dcmitype/StillImage" />
        <dc:title />
      </cc:Work>
    </rdf:RDF>
  </metadata>
  <g
     transform="translate(0,-727.36216)"
     id="layer1"
     inkscape:groupmode="layer"
     inkscape:label="Layer 1">
    <g
       transform="translate(-0.34487145,21.583722)"
       id="g171">
      <g
         transform="matrix(1.0764968,0,0,1.0764968,-278.31711,-345.01637)"
         id="g51"
         style="stroke-width:0.69013">
        <path
           inkscape:transform-center-y="-3.7857682"
           inkscape:transform-center-x="3.6560491"
           sodipodi:nodetypes="cccccccc"
           inkscape:connector-curvature="0"
           id="path15147"
           d="m 550.04848,1070.6903 -27.39675,-21.9353 -2.2e-4,12.0075 h -30.03699 l 9e-5,20.8646 h 30.03698 l -5e-5,10.9985 z"
           style="fill:#000000;fill-opacity:1;stroke:none;stroke-width:0.759833;stroke-linecap:round;stroke-linejoin:round;stroke-miterlimit:4;stroke-dasharray:none;stroke-dashoffset:0;stroke-opacity:1" />
        <text
           xml:space="preserve"
           style="font-style:normal;font-variant:normal;font-weight:normal;font-stretch:normal;font-size:24px;line-height:1.25;font-family:'Archivo Black';-inkscape-font-specification:'Archivo Black, ';letter-spacing:0px;word-spacing:0px;fill:#ffffff;fill-opacity:1;stroke:none;stroke-width:0.69013"
           x="496.74249"
           y="1079.2109"
           id="text46"><tspan
             sodipodi:role="line"
             id="tspan44"
             x="496.74249"
             y="1079.2109"
             style="stroke-width:0.69013">1x</tspan></text>
      </g>
      <g
         id="g52"
         transform="matrix(0.82031475,0,0,0.81975265,273.61913,56.418141)"
         style="stroke-width:0.905967">
        <path
           style="stroke:#000000;stroke-width:1.81193;stroke-miterlimit:4;stroke-dasharray:none;stroke-opacity:1"
           id="path957"
           fill-opacity="1"
           fill="#ffffff"
           d="m 112.29504,909.4236 c -1.79627,-0.008 -4.03987,0.48246 -6.50018,2.15837 -19.3419,13.57951 -39.01843,26.60803 -58.98889,39.24592 -3.54801,2.30308 -3.39148,5.77422 0.35376,7.7465 l 44.785,23.57031 c 1.8728,0.98614 7.79659,0.71516 11.34461,-1.58757 l 59.07585,-38.34361 c 3.54767,-2.30343 3.39148,-5.77353 -0.35272,-7.7458 -15.53787,-8.17783 -29.83811,-15.69336 -45.42086,-23.95433 0,0 -1.67069,-1.07797 -4.29657,-1.08979 z"
           sodipodi:nodetypes="cccccccccc" />
        <path
           sodipodi:nodetypes="cccccccccc"
           d="m 112.29504,905.4236 c -1.79627,-0.008 -4.03987,0.48246 -6.50018,2.15837 -19.3419,13.57951 -39.01843,26.60803 -58.98889,39.24592 -3.54801,2.30308 -3.39148,5.77422 0.35376,7.7465 l 44.785,23.57031 c 1.8728,0.98614 7.79659,0.71516 11.34461,-1.58757 l 59.07585,-38.34361 c 3.54767,-2.30343 3.39148,-5.77353 -0.35272,-7.7458 -15.53787,-8.17783 -29.83811,-15.69336 -45.42086,-23.95433 0,0 -1.67069,-1.07797 -4.29657,-1.08979 z"
           fill="#ffffff"
           fill-opacity="1"
           id="path955"
           style="stroke:#000000;stroke-width:1.81193;stroke-miterlimit:4;stroke-dasharray:none;stroke-opacity:1" />
        <path
           style="stroke:#000000;stroke-width:1.81193;stroke-miterlimit:4;stroke-dasharray:none;stroke-opacity:1"
           id="path953"
           fill-opacity="1"
           fill="#ffffff"
           d="m 112.29504,901.4236 c -1.79627,-0.008 -4.03987,0.48246 -6.50018,2.15837 -19.3419,13.57951 -39.01843,26.60803 -58.98889,39.24592 -3.54801,2.30308 -3.39148,5.77422 0.35376,7.7465 l 44.785,23.57031 c 1.8728,0.98614 7.79659,0.71516 11.34461,-1.58757 l 59.07585,-38.34361 c 3.54767,-2.30343 3.39148,-5.77353 -0.35272,-7.7458 -15.53787,-8.17783 -29.83811,-15.69336 -45.42086,-23.95433 0,0 -1.67069,-1.07797 -4.29657,-1.08979 z"
           sodipodi:nodetypes="cccccccccc" />
        <path
           sodipodi:nodetypes="cccccccccc"
           d="m 112.29504,897.4236 c -1.79627,-0.008 -4.03987,0.48246 -6.50018,2.15837 -19.3419,13.57951 -39.01843,26.60803 -58.98889,39.24592 -3.54801,2.30308 -3.39148,5.77422 0.35376,7.7465 l 44.785,23.57031 c 1.8728,0.98614 7.79659,0.71516 11.34461,-1.58757 l 59.07585,-38.34361 c 3.54767,-2.30343 3.39148,-5.77353 -0.35272,-7.7458 -15.53787,-8.17783 -29.83811,-15.69336 -45.42086,-23.95433 0,0 -1.67069,-1.07797 -4.29657,-1.08979 z"
           fill="#ffffff"
           fill-opacity="1"
           id="path947"
           style="stroke:#000000;stroke-width:1.81193;stroke-miterlimit:4;stroke-dasharray:none;stroke-opacity:1" />
        <path
           style="stroke:#000000;stroke-width:1.81193;stroke-miterlimit:4;stroke-dasharray:none;stroke-opacity:1"
           id="path945"
           fill-opacity="1"
           fill="#ffffff"
           d="m 112.29504,893.4236 c -1.79627,-0.008 -4.03987,0.48246 -6.50018,2.15837 -19.3419,13.57951 -39.01843,26.60803 -58.98889,39.24592 -3.54801,2.30308 -3.39148,5.77422 0.35376,7.7465 l 44.785,23.57031 c 1.8728,0.98614 7.79659,0.71516 11.34461,-1.58757 l 59.07585,-38.34361 c 3.54767,-2.30343 3.39148,-5.77353 -0.35272,-7.7458 -15.53787,-8.17783 -29.83811,-15.69336 -45.42086,-23.95433 0,0 -1.67069,-1.07797 -4.29657,-1.08979 z"
           sodipodi:nodetypes="cccccccccc" />
        <path
           sodipodi:nodetypes="cccccccccc"
           d="m 112.29504,889.4236 c -1.79627,-0.008 -4.03987,0.48246 -6.50018,2.15837 -19.3419,13.57951 -39.01843,26.60803 -58.98889,39.24592 -3.54801,2.30308 -3.39148,5.77422 0.35376,7.7465 l 44.785,23.57031 c 1.8728,0.98614 7.79659,0.71516 11.34461,-1.58757 l 59.07585,-38.34361 c 3.54767,-2.30343 3.39148,-5.77353 -0.35272,-7.7458 -15.53787,-8.17783 -29.83811,-15.69336 -45.42086,-23.95433 0,0 -1.67069,-1.07797 -4.29657,-1.08979 z"
           fill="#ffffff"
           fill-opacity="1"
           id="path943"
           style="stroke:#000000;stroke-width:1.81193;stroke-miterlimit:4;stroke-dasharray:none;stroke-opacity:1" />
        <path
           style="stroke:#000000;stroke-width:1.81193;stroke-miterlimit:4;stroke-dasharray:none;stroke-opacity:1"
           id="path941"
           fill-opacity="1"
           fill="#ffffff"
           d="m 112.29504,832.09744 c -1.79627,-0.008 -4.03987,0.48246 -6.50018,2.15837 -19.3419,13.57951 -39.01843,26.60803 -58.98889,39.24592 -3.54801,2.30308 -3.39148,5.77422 0.35376,7.7465 l 44.785,23.57031 c 1.8728,0.98614 7.79659,0.71516 11.34461,-1.58757 l 59.07585,-38.34361 c 3.54767,-2.30343 3.39148,-5.77353 -0.35272,-7.7458 -15.53787,-8.17783 -29.83811,-15.69336 -45.42086,-23.95433 0,0 -1.67069,-1.07797 -4.29657,-1.08979 z"
           sodipodi:nodetypes="cccccccccc" />
        <path
           d="M 111.39701,881.21898 77.51962,865.24443 q -0.35419,-0.16701 -0.44342,-0.41079 -0.0684,-0.23395 0.0484,-0.46127 0.11676,-0.22732 0.44072,-0.3973 0.30369,-0.15935 0.79433,-0.25073 l 46.11322,-7.34124 q 0.45012,-0.0701 0.88354,-0.007 0.43348,0.0631 0.76685,0.22033 0.33336,0.15719 0.48325,0.36914 0.14988,0.21194 0.0332,0.43923 l -12.23583,23.31579 q -0.15727,0.24857 -0.46097,0.40793 -0.32395,0.16997 -0.77408,0.24009 -0.45012,0.0701 -0.94426,0.0388 -0.47332,-0.0215 -0.82752,-0.18851 z m -29.11903,-16.31258 29.50209,13.91141 10.638,-20.27725 z m 24.05837,4.00252 -3.87526,-1.82734 11.2368,-5.8959 3.87526,1.82733 z m -3.10147,2.20851 q -0.52642,0.27622 -1.18016,0.41167 -0.63296,0.1453 -1.33135,0.15889 -0.65728,0.0128 -1.31811,-0.0971 -0.64059,-0.12054 -1.16146,-0.36615 -0.52087,-0.24561 -0.79702,-0.55735 -0.25589,-0.32238 -0.26533,-0.64952 0.0109,-0.3378 0.26877,-0.65994 0.25789,-0.32212 0.7843,-0.59833 0.50616,-0.26558 1.15934,-0.42149 0.6532,-0.15592 1.31051,-0.1687 0.67754,-0.0234 1.33836,0.0865 0.66082,0.1099 1.1817,0.35551 0.52086,0.24562 0.77677,0.56799 0.2559,0.32237 0.24509,0.66015 0.0302,0.33699 -0.24794,0.66976 -0.25731,0.34257 -0.76347,0.60815 z"
           style="font-style:normal;font-weight:normal;font-size:medium;line-height:125%;font-family:sans-serif;letter-spacing:0px;word-spacing:0px;fill:#000000;fill-opacity:1;stroke:none;stroke-width:0.905967px;stroke-linecap:butt;stroke-linejoin:miter;stroke-opacity:1"
           id="path3444"
           inkscape:connector-curvature="0" />
      </g>
      <g
         id="g21"
         transform="matrix(-0.6587262,0,0,0.65864596,306.01583,301.92939)"
         style="stroke-width:1.12789">
        <path
           transform="matrix(7.4087419,4.2774391,-4.291153,7.4324951,2074.9551,-9052.2261)"
           sodipodi:type="star"
           style="font-style:normal;font-weight:normal;font-size:medium;line-height:125%;font-family:sans-serif;letter-spacing:0px;word-spacing:0px;fill:#b3b3b3;fill-opacity:1;stroke:#000000;stroke-width:0.658152;stroke-linecap:butt;stroke-linejoin:round;stroke-miterlimit:4;stroke-dasharray:none;stroke-dashoffset:0;stroke-opacity:1"
           id="path5092"
           sodipodi:sides="6"
           sodipodi:cx="407.40814"
           sodipodi:cy="1113.0243"
           sodipodi:r1="11.162703"
           sodipodi:r2="9.6671848"
           sodipodi:arg1="-1.0471976"
           sodipodi:arg2="-0.52359878"
           inkscape:flatsided="true"
           inkscape:rounded="0"
           inkscape:randomized="0"
           d="m 412.98949,1103.3571 5.58135,9.6672 -5.58135,9.6672 -11.1627,0 -5.58135,-9.6672 5.58135,-9.6672 z" />
        <path
           id="path5096"
           d="m 317.17299,920.53971 c -5.68233,0 -9.76906,3.01595 -12.12937,6.80473 -2.1109,3.3877 -2.98914,7.31767 -3.16046,10.76 -6.44161,3.19458 -13.57771,6.41639 -19.32308,9.71012 -3.01386,1.72816 -5.64146,3.46572 -7.6193,5.33312 -1.97785,1.86741 -3.43719,3.97066 -3.43719,6.45098 0,1.05594 0.51439,1.91602 1.09229,2.54753 0.58019,0.63292 1.27412,1.12199 2.06498,1.57968 1.58162,0.91473 3.57561,1.67752 5.76911,2.33841 3.25855,0.98067 6.90788,1.71019 10.08096,2.02131 -3.15607,5.45632 -7.35619,10.46693 -11.03794,15.2677 -4.25482,5.54956 -7.9694,10.87131 -7.9694,16.78321 0,0.8442 -0.0204,1.5037 0.067,2.1666 0.0745,0.6663 0.26448,1.4883 0.92807,2.144 0.6639,0.6528 1.47676,0.8314 2.13881,0.9033 0.66193,0.073 1.32907,0.073 2.18465,0.073 h 23.47489 c 1.70404,0 2.95186,0.1069 4.23548,-0.7229 1.28377,-0.8274 1.75188,-1.958 2.66649,-3.6475 h 0.0204 l 0.0204,-0.073 c 0,0 2.04624,-4.17384 4.48775,-8.31639 1.22061,-2.06994 2.54592,-4.13253 3.69862,-5.59354 0.57753,-0.73086 1.1163,-1.31045 1.50475,-1.63758 0.11886,-0.0932 0.17342,-0.11988 0.24921,-0.16663 0.0764,0.0734 0.13013,0.0734 0.24922,0.16663 0.38812,0.32645 0.92816,0.90607 1.50473,1.63758 1.15271,1.46101 2.47794,3.5236 3.69863,5.59354 2.44126,4.14255 4.48776,8.31639 4.48776,8.31639 l 0.0204,0.073 h 0.0204 c 0.91465,1.6895 1.37848,2.8134 2.65378,3.6428 1.27499,0.8294 2.52015,0.7309 4.2002,0.7309 h 23.57824 c 0.84181,0 1.49843,0 2.15588,-0.073 0.65728,-0.073 1.47283,-0.2531 2.12998,-0.9153 0.65658,-0.6662 0.83841,-1.477 0.91118,-2.1366 0.0745,-0.6529 0.0664,-1.3178 0.0664,-2.1632 0,-5.91133 -3.71458,-11.23241 -7.96948,-16.782 -3.68148,-4.80142 -7.8816,-9.81203 -11.03787,-15.26835 3.17315,-0.31313 6.82248,-1.04064 10.08094,-2.02131 2.19344,-0.66621 4.18752,-1.42303 5.76908,-2.3384 0.79089,-0.45305 1.48544,-0.94803 2.06463,-1.57893 0.57951,-0.63291 1.0927,-1.49235 1.0927,-2.54829 0,-2.48032 -1.45936,-4.58292 -3.43712,-6.45098 -1.97797,-1.86672 -4.60553,-3.6049 -7.61924,-5.33305 -5.74554,-3.29379 -12.88154,-6.51496 -19.32329,-9.71013 -0.17137,-3.44233 -1.04968,-7.37235 -3.16037,-10.76005 -2.36033,-3.78878 -6.44701,-6.80474 -12.12941,-6.80474 z"
           inkscape:connector-curvature="0"
           style="fill:#4d4d4d;fill-opacity:1;stroke:none;stroke-width:1.12789;stroke-opacity:1" />
      </g>
      <path
         d="m 395.48223,1093.1241 5.58135,9.6672 -5.58135,9.6671 -11.1627,0 -5.58135,-9.6671 5.58135,-9.6672 z"
         transform="matrix(-4.8803324,2.817318,2.8266949,4.8953828,-1001.802,-5560.8646)"
         inkscape:randomized="0"
         inkscape:rounded="0"
         inkscape:flatsided="true"
         sodipodi:arg2="-0.52359878"
         sodipodi:arg1="-1.0471976"
         sodipodi:r2="9.6671848"
         sodipodi:r1="11.162703"
         sodipodi:cy="1102.7913"
         sodipodi:cx="389.90088"
         sodipodi:sides="6"
         id="path5084"
         style="font-style:normal;font-weight:normal;font-size:medium;line-height:125%;font-family:sans-serif;letter-spacing:0px;word-spacing:0px;fill:#b3b3b3;fill-opacity:1;stroke:#000000;stroke-width:0.658152;stroke-linecap:butt;stroke-linejoin:round;stroke-miterlimit:4;stroke-dasharray:none;stroke-dashoffset:0;stroke-opacity:1"
         sodipodi:type="star" />
      <g
         style="stroke-width:1.12789"
         transform="matrix(-0.6587262,0,0,0.65864596,274.49626,166.09511)"
         id="g68">
        <path
           d="m 412.98949,1103.3571 5.58135,9.6672 -5.58135,9.6672 -11.1627,0 -5.58135,-9.6672 5.58135,-9.6672 z"
           inkscape:randomized="0"
           inkscape:rounded="0"
           inkscape:flatsided="true"
           sodipodi:arg2="-0.52359878"
           sodipodi:arg1="-1.0471976"
           sodipodi:r2="9.6671848"
           sodipodi:r1="11.162703"
           sodipodi:cy="1113.0243"
           sodipodi:cx="407.40814"
           sodipodi:sides="6"
           id="path64"
           style="font-style:normal;font-weight:normal;font-size:medium;line-height:125%;font-family:sans-serif;letter-spacing:0px;word-spacing:0px;fill:#b3b3b3;fill-opacity:1;stroke:#000000;stroke-width:0.658152;stroke-linecap:butt;stroke-linejoin:round;stroke-miterlimit:4;stroke-dasharray:none;stroke-dashoffset:0;stroke-opacity:1"
           sodipodi:type="star"
           transform="matrix(7.4087419,4.2774391,-4.291153,7.4324951,2074.9551,-9052.2261)" />
        <path
           style="fill:#4d4d4d;fill-opacity:1;stroke:none;stroke-width:1.12789;stroke-opacity:1"
           inkscape:connector-curvature="0"
           d="m 317.17299,920.53971 c -5.68233,0 -9.76906,3.01595 -12.12937,6.80473 -2.1109,3.3877 -2.98914,7.31767 -3.16046,10.76 -6.44161,3.19458 -13.57771,6.41639 -19.32308,9.71012 -3.01386,1.72816 -5.64146,3.46572 -7.6193,5.33312 -1.97785,1.86741 -3.43719,3.97066 -3.43719,6.45098 0,1.05594 0.51439,1.91602 1.09229,2.54753 0.58019,0.63292 1.27412,1.12199 2.06498,1.57968 1.58162,0.91473 3.57561,1.67752 5.76911,2.33841 3.25855,0.98067 6.90788,1.71019 10.08096,2.02131 -3.15607,5.45632 -7.35619,10.46693 -11.03794,15.2677 -4.25482,5.54956 -7.9694,10.87131 -7.9694,16.78321 0,0.8442 -0.0204,1.5037 0.067,2.1666 0.0745,0.6663 0.26448,1.4883 0.92807,2.144 0.6639,0.6528 1.47676,0.8314 2.13881,0.9033 0.66193,0.073 1.32907,0.073 2.18465,0.073 h 23.47489 c 1.70404,0 2.95186,0.1069 4.23548,-0.7229 1.28377,-0.8274 1.75188,-1.958 2.66649,-3.6475 h 0.0204 l 0.0204,-0.073 c 0,0 2.04624,-4.17384 4.48775,-8.31639 1.22061,-2.06994 2.54592,-4.13253 3.69862,-5.59354 0.57753,-0.73086 1.1163,-1.31045 1.50475,-1.63758 0.11886,-0.0932 0.17342,-0.11988 0.24921,-0.16663 0.0764,0.0734 0.13013,0.0734 0.24922,0.16663 0.38812,0.32645 0.92816,0.90607 1.50473,1.63758 1.15271,1.46101 2.47794,3.5236 3.69863,5.59354 2.44126,4.14255 4.48776,8.31639 4.48776,8.31639 l 0.0204,0.073 h 0.0204 c 0.91465,1.6895 1.37848,2.8134 2.65378,3.6428 1.27499,0.8294 2.52015,0.7309 4.2002,0.7309 h 23.57824 c 0.84181,0 1.49843,0 2.15588,-0.073 0.65728,-0.073 1.47283,-0.2531 2.12998,-0.9153 0.65658,-0.6662 0.83841,-1.477 0.91118,-2.1366 0.0745,-0.6529 0.0664,-1.3178 0.0664,-2.1632 0,-5.91133 -3.71458,-11.23241 -7.96948,-16.782 -3.68148,-4.80142 -7.8816,-9.81203 -11.03787,-15.26835 3.17315,-0.31313 6.82248,-1.04064 10.08094,-2.02131 2.19344,-0.66621 4.18752,-1.42303 5.76908,-2.3384 0.79089,-0.45305 1.48544,-0.94803 2.06463,-1.57893 0.57951,-0.63291 1.0927,-1.49235 1.0927,-2.54829 0,-2.48032 -1.45936,-4.58292 -3.43712,-6.45098 -1.97797,-1.86672 -4.60553,-3.6049 -7.61924,-5.33305 -5.74554,-3.29379 -12.88154,-6.51496 -19.32329,-9.71013 -0.17137,-3.44233 -1.04968,-7.37235 -3.16037,-10.76005 -2.36033,-3.78878 -6.44701,-6.80474 -12.12941,-6.80474 z"
           id="path66" />
      </g>
      <g
         style="stroke-width:1.12789"
         transform="matrix(-0.6587262,0,0,0.65864596,332.31229,265.05391)"
         id="g78">
        <path
           d="m 395.48223,1093.1241 5.58135,9.6672 -5.58135,9.6671 -11.1627,0 -5.58135,-9.6671 5.58135,-9.6672 z"
           transform="matrix(7.4087419,4.2774391,-4.291153,7.4324951,2073.1433,-9051.5287)"
           inkscape:randomized="0"
           inkscape:rounded="0"
           inkscape:flatsided="true"
           sodipodi:arg2="-0.52359878"
           sodipodi:arg1="-1.0471976"
           sodipodi:r2="9.6671848"
           sodipodi:r1="11.162703"
           sodipodi:cy="1102.7913"
           sodipodi:cx="389.90088"
           sodipodi:sides="6"
           id="path70"
           style="font-style:normal;font-weight:normal;font-size:medium;line-height:125%;font-family:sans-serif;letter-spacing:0px;word-spacing:0px;fill:#b3b3b3;fill-opacity:1;stroke:#000000;stroke-width:0.658152;stroke-linecap:butt;stroke-linejoin:round;stroke-miterlimit:4;stroke-dasharray:none;stroke-dashoffset:0;stroke-opacity:1"
           sodipodi:type="star" />
        <g
           id="g76"
           transform="matrix(0.63767041,0,0,0.63924439,170.49885,197.84076)"
           style="stroke-width:1.76659">
          <circle
             style="fill:#000000;stroke:none;stroke-width:7.35619;stroke-miterlimit:4;stroke-dasharray:none;stroke-opacity:1"
             id="circle72"
             cx="-92.639404"
             cy="961.91449"
             r="62.46114"
             transform="scale(-1,1)" />
          <path
             inkscape:connector-curvature="0"
             style="fill:#ffffff;fill-opacity:1;stroke-width:2.45207"
             d="m 92.639411,918.54708 c -3.94041,0 -6.55523,1.96745 -10.0628,3.91655 -3.32456,1.84804 -7.50361,3.432 -13.39721,2.22867 -2.79688,2.79646 -5.63845,5.59352 -8.6687,7.48807 -2.47969,1.55066 -5.26635,2.47439 -8.04584,2.0375 0.7975,6.27669 4.60774,12.41619 8.59072,15.63003 10.50377,-3.48195 21.03386,-5.22378 31.56396,-5.22378 10.539739,0 21.079279,1.74527 31.592709,5.23355 3.98714,-3.21098 7.80359,-9.35679 8.6017,-15.6398 -2.77891,0.43633 -5.56597,-0.488 -8.04585,-2.03693 -3.03026,-1.89512 -5.87143,-4.69218 -8.66871,-7.48864 -5.893,1.20333 -10.07283,-0.37892 -13.39701,-2.22812 -3.508119,-1.95023 -6.122759,-3.9171 -10.062969,-3.9171 z m -0.0207,3.66795 c 3.71803,0 9.976499,5.02574 9.976499,5.02574 0,0 -3.981679,15.07946 -9.976499,15.07946 -5.99523,0 -9.97706,-15.07946 -9.97706,-15.07946 0,0 6.25904,-5.02574 9.97706,-5.02574 z m 0,25.77451 c -9.90534,0 -19.81125,1.62011 -29.74079,4.83109 -0.40916,2.52837 0.28325,4.40741 1.77262,6.14463 1.66245,1.93935 4.4531,3.58588 7.76061,4.82596 6.616,2.48072 15.19519,3.3591 20.20775,3.3591 5.01237,0 13.591169,-0.87838 20.206789,-3.3591 3.30808,-1.24008 6.09816,-2.88604 7.76063,-4.82596 1.48988,-1.73722 2.18256,-3.6157 1.77319,-6.14463 -9.92958,-3.21098 -19.83548,-4.83109 -29.740609,-4.83109 z m -32.50324,10.72714 c -1.84284,0.44782 -5.05345,1.45939 -5.63012,3.18975 -1.57674,4.72948 3.17465,11.97529 6.76795,16.54631 -0.99002,-4.13068 -1.52373,-8.52432 -1.52373,-13.0793 0,-2.26312 0.13242,-4.48605 0.38595,-6.65676 z m 65.005729,0 a 57.393602,57.414526 0 0 1 0.38585,6.6562 c 0,4.55554 -0.53356,8.94918 -1.52373,13.07986 3.5933,-4.57102 8.34469,-11.81683 6.76795,-16.54631 -0.5765,-1.73036 -3.78748,-2.74308 -5.62975,-3.18975 z m -61.924969,3.5985 c -0.0568,1.0093 -0.089,2.02834 -0.089,3.0577 0,11.14456 3.40179,21.20289 8.80062,28.40046 5.39867,7.19816 12.70338,11.50856 20.71099,11.50856 8.007239,0 15.312129,-4.3104 20.710599,-11.50856 5.39847,-7.19757 8.80006,-17.25533 8.80006,-28.40046 0,-1.02936 -0.0326,-2.0484 -0.089,-3.05827 -1.53871,1.437 -3.41786,2.60359 -5.48555,3.57267 0.80113,3.41651 -0.0498,7.66548 -2.27,9.88494 -4.08557,4.08535 -13.24786,4.08535 -17.333619,0 -1.26539,-1.26589 -1.80819,-3.28215 -1.73664,-5.30587 -0.92569,0 -1.80119,0.0804 -2.59628,0.0804 -0.79529,0 -1.671,0 -2.59685,-0.0804 0.0718,2.02372 -0.47106,4.03998 -1.73666,5.30587 -4.08576,4.08535 -13.24787,4.08535 -17.33345,0 -2.22002,-2.21946 -3.07112,-6.46843 -2.26998,-9.88436 -2.06767,-0.96909 -3.9474,-2.13512 -5.48554,-3.57268 z m 29.42247,22.12319 c 4.33332,6.9329 12.999559,7.7998 17.332859,7.7998 -4.33311,3.46647 -17.332659,3.46647 -17.332659,0 0,3.46647 -13.00032,3.46647 -17.33363,0 4.33331,0 13.00012,-0.8669 17.33363,-7.7998 z"
             id="path74" />
        </g>
      </g>
      <g
         id="g90"
         transform="matrix(0.74292311,0,0,0.74292311,278.27226,112.89582)">
        <ellipse
           style="fill:#000000;stroke:none;stroke-width:1.73414;stroke-miterlimit:4;stroke-dasharray:none;stroke-opacity:1"
           id="ellipse1366"
           cx="-88.388344"
           cy="1108.1897"
           rx="33.932671"
           ry="33.885555" />
        <path
           inkscape:connector-curvature="0"
           style="font-variation-settings:normal;vector-effect:none;fill:#ffffff;fill-opacity:1;stroke-width:0.578048;stroke-linecap:butt;stroke-linejoin:miter;stroke-miterlimit:4;stroke-dasharray:none;stroke-dashoffset:0;stroke-opacity:1;stop-color:#000000"
           d="m -101.15981,1088.8275 c -1.26352,-4e-4 -2.59304,0.1829 -3.99196,0.5912 a 0.80995587,0.81010853 0 0 0 -0.0124,0.012 0.80995587,0.81010853 0 0 0 -0.0423,0.014 0.80995587,0.81010853 0 0 0 -0.0332,0.012 0.80995587,0.81010853 0 0 0 -0.04,0.02 0.80995587,0.81010853 0 0 0 -0.0327,0.016 0.80995587,0.81010853 0 0 0 -0.0395,0.023 0.80995587,0.81010853 0 0 0 -0.0291,0.02 0.80995587,0.81010853 0 0 0 -0.037,0.026 0.80995587,0.81010853 0 0 0 -0.0276,0.022 0.80995587,0.81010853 0 0 0 -0.0338,0.031 0.80995587,0.81010853 0 0 0 -0.0253,0.024 0.80995587,0.81010853 0 0 0 -0.0316,0.034 0.80995587,0.81010853 0 0 0 -0.0211,0.025 0.80995587,0.81010853 0 0 0 -0.0291,0.038 0.80995587,0.81010853 0 0 0 -0.0183,0.026 0.80995587,0.81010853 0 0 0 -0.0241,0.041 0.80995587,0.81010853 0 0 0 -0.0165,0.03 0.80995587,0.81010853 0 0 0 -0.0198,0.043 0.80995587,0.81010853 0 0 0 -0.0133,0.032 0.80995587,0.81010853 0 0 0 -0.0151,0.043 0.80995587,0.81010853 0 0 0 -0.0104,0.033 0.80995587,0.81010853 0 0 0 -0.0145,0.059 l -1.90911,9.5475 a 0.80995587,0.81010853 0 0 0 0.47957,0.905 l 6.99316,2.9487 2.695868,13.8259 -9.935508,2.1585 a 0.80995587,0.81010853 0 0 0 -0.63944,0.7807 l -0.0905,6.5211 a 0.80995587,0.81010853 0 0 0 1.05508,0.7832 l 12.487638,-3.9919 2.05669,-0.3989 c 0.0151,0 0.0301,0 0.0452,0 0.84884,0 1.64822,-0.4043 2.20649,-1.0636 0.55786,-0.6585 0.84969,-1.517 0.84884,-2.4012 v 0 c 5.1e-4,-0.5605 -0.11697,-1.1116 -0.34487,-1.6078 l -2.15474,-11.1344 10.72331,4.5213 a 0.80995587,0.81010853 0 0 0 0.0132,0.012 0.80995587,0.81010853 0 0 0 0.0465,0.016 0.80995587,0.81010853 0 0 0 0.0298,0.012 0.80995587,0.81010853 0 0 0 0.0463,0.012 0.80995587,0.81010853 0 0 0 0.0355,0.012 0.80995587,0.81010853 0 0 0 0.0412,0.012 0.80995587,0.81010853 0 0 0 0.041,0.012 0.80995587,0.81010853 0 0 0 0.0366,0 0.80995587,0.81010853 0 0 0 0.0461,0 0.80995587,0.81010853 0 0 0 0.031,0 l 7.11107,-0.4504 a 0.80995587,0.81010853 0 0 0 0.67951,-0.4637 l 4.30743,-9.1205 h 6.8e-4 a 0.80995587,0.81010853 0 0 0 0.002,-0.012 0.80995587,0.81010853 0 0 0 -0.46978,-1.1202 c -0.66391,-0.3641 -1.34726,-0.619 -2.04245,-0.78 l -26.24896,-10.1865 a 0.80995587,0.81010853 0 0 0 -0.0684,-0.023 c -1.1354,-0.3277 -2.33302,-0.5124 -3.596628,-0.5132 z m -2.2463,1.1703 a 0.80995587,0.81010853 0 0 1 0.31436,0.061 l 24.788898,9.9372 a 0.81063799,0.81079078 0 0 1 0.49195,0.9201 0.80995587,0.81010853 0 0 0 -0.0603,0.1244 l -0.0713,0.1765 a 0.81063799,0.81079078 0 0 1 -0.96257,0.2845 l -24.788818,-9.9397 a 0.80995587,0.81010853 0 0 1 0.28783,-1.5644 z m 30.463548,10.9465 c 0.37514,0 0.74601,0.043 1.11416,0.1193 l 1.25671,0.4878 -2.01807,4.2735 c 0.0778,-0.3461 0.11749,-0.6894 0.11382,-1.0111 -0.008,-0.7445 -0.25066,-1.3602 -0.66885,-1.6681 -0.41819,-0.3082 -0.9965,-0.2968 -1.56663,0.021 -0.14067,0.079 -0.28178,0.176 -0.41827,0.2878 0.0524,-0.07 0.10143,-0.1467 0.14383,-0.2292 0.12081,-0.235 0.19166,-0.5074 0.18927,-0.7487 -0.003,-0.2417 -0.0806,-0.447 -0.21852,-0.5517 -0.0689,-0.053 -0.14834,-0.079 -0.23446,-0.077 -0.0861,0 -0.17921,0.027 -0.26907,0.079 -0.17964,0.1032 -0.34785,0.3002 -0.46893,0.5356 -0.12081,0.2358 -0.19183,0.5072 -0.18901,0.7489 0.002,0.2416 0.0806,0.4471 0.21843,0.5518 0.13786,0.1043 0.32381,0.098 0.50354,-0.012 -0.29124,0.3037 -0.5581,0.6737 -0.77518,1.0846 -0.39287,0.7431 -0.61607,1.603 -0.60746,2.3475 0.008,0.7447 0.25577,1.3628 0.67405,1.671 0.41811,0.3082 0.99105,0.2941 1.56109,-0.023 0.3562,-0.1988 0.70679,-0.5132 1.01543,-0.9024 l -0.71703,1.5179 -5.34997,0.3412 3.17614,-7.8787 c 1.24775,-0.6604 2.41042,-0.9817 3.53506,-0.9722 z m -25.41368,3.2528 1.36533,0.5758 2.5349,11.9005 c -0.2562,-0.078 -0.52374,-0.1205 -0.79648,-0.1205 -0.23225,0 -0.4604,0.032 -0.68105,0.089 l -2.4227,-12.4446 z m 3.18466,1.343 1.45084,0.6116 1.96094,10.1332 c -0.23292,-0.065 -0.47437,-0.099 -0.72017,-0.099 -0.14009,0 -0.27845,0.012 -0.41478,0.033 l -2.27675,-10.6798 z m 2.69152,12.2721 c 0.32935,0 0.70407,0.1689 0.97809,0.4924 0.2741,0.3235 0.4632,0.8434 0.46244,1.3468 8.7e-4,0.5036 -0.18843,1.0232 -0.46236,1.3469 -0.13002,0.1536 -0.28271,0.2709 -0.44233,0.3532 l -0.52373,0.1009 c 0.17955,-0.4496 0.27146,-0.9381 0.27095,-1.4348 v 0 c 3.4e-4,-0.3218 -0.0385,-0.6405 -0.11442,-0.9473 a 0.80995587,0.81010853 0 0 0 -0.0165,-0.1916 l -0.22645,-1.0623 c 0.0247,0 0.0497,-0.012 0.0742,-0.012 z m -2.77243,0.3667 c 0.32943,0 0.70423,0.1687 0.97833,0.4924 0.27403,0.3237 0.46296,0.8434 0.46227,1.3468 6.9e-4,0.5037 -0.18841,1.0233 -0.46235,1.3469 -0.2741,0.3237 -0.64882,0.4926 -0.97834,0.4926 -0.32935,0 -0.70194,-0.169 -0.97595,-0.4926 -0.27402,-0.3234 -0.46535,-0.8432 -0.46466,-1.3469 -6.9e-4,-0.5034 0.19064,-1.0231 0.46466,-1.3468 0.27401,-0.3237 0.6466,-0.4924 0.97595,-0.4924 z m -2.94108,0.9031 c -0.0742,0.3036 -0.1122,0.6184 -0.11186,0.9361 v 0 c -8.7e-4,0.8844 0.29072,1.7428 0.84857,2.4014 0.0715,0.083 0.1469,0.1645 0.22576,0.2403 l -9.257788,2.9594 0.0667,-4.7515 8.228638,-1.7879 z"
           id="path1339" />
      </g>
      <g
         style="stroke-width:0.905967"
         transform="matrix(0.82031475,0,0,0.81975265,305.51391,190.00103)"
         id="g120">
        <path
           sodipodi:nodetypes="cccccccccc"
           d="m 112.29504,909.4236 c -1.79627,-0.008 -4.03987,0.48246 -6.50018,2.15837 -19.3419,13.57951 -39.01843,26.60803 -58.98889,39.24592 -3.54801,2.30308 -3.39148,5.77422 0.35376,7.7465 l 44.785,23.57031 c 1.8728,0.98614 7.79659,0.71516 11.34461,-1.58757 l 59.07585,-38.34361 c 3.54767,-2.30343 3.39148,-5.77353 -0.35272,-7.7458 -15.53787,-8.17783 -29.83811,-15.69336 -45.42086,-23.95433 0,0 -1.67069,-1.07797 -4.29657,-1.08979 z"
           fill="#ffffff"
           fill-opacity="1"
           id="path104"
           style="stroke:#000000;stroke-width:1.81193;stroke-miterlimit:4;stroke-dasharray:none;stroke-opacity:1" />
        <path
           style="stroke:#000000;stroke-width:1.81193;stroke-miterlimit:4;stroke-dasharray:none;stroke-opacity:1"
           id="path106"
           fill-opacity="1"
           fill="#ffffff"
           d="m 112.29504,905.4236 c -1.79627,-0.008 -4.03987,0.48246 -6.50018,2.15837 -19.3419,13.57951 -39.01843,26.60803 -58.98889,39.24592 -3.54801,2.30308 -3.39148,5.77422 0.35376,7.7465 l 44.785,23.57031 c 1.8728,0.98614 7.79659,0.71516 11.34461,-1.58757 l 59.07585,-38.34361 c 3.54767,-2.30343 3.39148,-5.77353 -0.35272,-7.7458 -15.53787,-8.17783 -29.83811,-15.69336 -45.42086,-23.95433 0,0 -1.67069,-1.07797 -4.29657,-1.08979 z"
           sodipodi:nodetypes="cccccccccc" />
        <path
           sodipodi:nodetypes="cccccccccc"
           d="m 112.29504,901.4236 c -1.79627,-0.008 -4.03987,0.48246 -6.50018,2.15837 -19.3419,13.57951 -39.01843,26.60803 -58.98889,39.24592 -3.54801,2.30308 -3.39148,5.77422 0.35376,7.7465 l 44.785,23.57031 c 1.8728,0.98614 7.79659,0.71516 11.34461,-1.58757 l 59.07585,-38.34361 c 3.54767,-2.30343 3.39148,-5.77353 -0.35272,-7.7458 -15.53787,-8.17783 -29.83811,-15.69336 -45.42086,-23.95433 0,0 -1.67069,-1.07797 -4.29657,-1.08979 z"
           fill="#ffffff"
           fill-opacity="1"
           id="path108"
           style="stroke:#000000;stroke-width:1.81193;stroke-miterlimit:4;stroke-dasharray:none;stroke-opacity:1" />
        <path
           style="stroke:#000000;stroke-width:1.81193;stroke-miterlimit:4;stroke-dasharray:none;stroke-opacity:1"
           id="path110"
           fill-opacity="1"
           fill="#ffffff"
           d="m 112.29504,897.4236 c -1.79627,-0.008 -4.03987,0.48246 -6.50018,2.15837 -19.3419,13.57951 -39.01843,26.60803 -58.98889,39.24592 -3.54801,2.30308 -3.39148,5.77422 0.35376,7.7465 l 44.785,23.57031 c 1.8728,0.98614 7.79659,0.71516 11.34461,-1.58757 l 59.07585,-38.34361 c 3.54767,-2.30343 3.39148,-5.77353 -0.35272,-7.7458 -15.53787,-8.17783 -29.83811,-15.69336 -45.42086,-23.95433 0,0 -1.67069,-1.07797 -4.29657,-1.08979 z"
           sodipodi:nodetypes="cccccccccc" />
        <path
           sodipodi:nodetypes="cccccccccc"
           d="m 112.29504,893.4236 c -1.79627,-0.008 -4.03987,0.48246 -6.50018,2.15837 -19.3419,13.57951 -39.01843,26.60803 -58.98889,39.24592 -3.54801,2.30308 -3.39148,5.77422 0.35376,7.7465 l 44.785,23.57031 c 1.8728,0.98614 7.79659,0.71516 11.34461,-1.58757 l 59.07585,-38.34361 c 3.54767,-2.30343 3.39148,-5.77353 -0.35272,-7.7458 -15.53787,-8.17783 -29.83811,-15.69336 -45.42086,-23.95433 0,0 -1.67069,-1.07797 -4.29657,-1.08979 z"
           fill="#ffffff"
           fill-opacity="1"
           id="path112"
           style="stroke:#000000;stroke-width:1.81193;stroke-miterlimit:4;stroke-dasharray:none;stroke-opacity:1" />
        <path
           style="stroke:#000000;stroke-width:1.81193;stroke-miterlimit:4;stroke-dasharray:none;stroke-opacity:1"
           id="path114"
           fill-opacity="1"
           fill="#ffffff"
           d="m 112.29504,889.4236 c -1.79627,-0.008 -4.03987,0.48246 -6.50018,2.15837 -19.3419,13.57951 -39.01843,26.60803 -58.98889,39.24592 -3.54801,2.30308 -3.39148,5.77422 0.35376,7.7465 l 44.785,23.57031 c 1.8728,0.98614 7.79659,0.71516 11.34461,-1.58757 l 59.07585,-38.34361 c 3.54767,-2.30343 3.39148,-5.77353 -0.35272,-7.7458 -15.53787,-8.17783 -29.83811,-15.69336 -45.42086,-23.95433 0,0 -1.67069,-1.07797 -4.29657,-1.08979 z"
           sodipodi:nodetypes="cccccccccc" />
        <path
           sodipodi:nodetypes="cccccccccc"
           d="m 112.29504,832.09744 c -1.79627,-0.008 -4.03987,0.48246 -6.50018,2.15837 -19.3419,13.57951 -39.01843,26.60803 -58.98889,39.24592 -3.54801,2.30308 -3.39148,5.77422 0.35376,7.7465 l 44.785,23.57031 c 1.8728,0.98614 7.79659,0.71516 11.34461,-1.58757 l 59.07585,-38.34361 c 3.54767,-2.30343 3.39148,-5.77353 -0.35272,-7.7458 -15.53787,-8.17783 -29.83811,-15.69336 -45.42086,-23.95433 0,0 -1.67069,-1.07797 -4.29657,-1.08979 z"
           fill="#ffffff"
           fill-opacity="1"
           id="path116"
           style="stroke:#000000;stroke-width:1.81193;stroke-miterlimit:4;stroke-dasharray:none;stroke-opacity:1" />
        <path
           inkscape:connector-curvature="0"
           id="path118"
           style="font-style:normal;font-weight:normal;font-size:medium;line-height:125%;font-family:sans-serif;letter-spacing:0px;word-spacing:0px;fill:#000000;fill-opacity:1;stroke:none;stroke-width:0.905967px;stroke-linecap:butt;stroke-linejoin:miter;stroke-opacity:1"
           d="M 111.39701,881.21898 77.51962,865.24443 q -0.35419,-0.16701 -0.44342,-0.41079 -0.0684,-0.23395 0.0484,-0.46127 0.11676,-0.22732 0.44072,-0.3973 0.30369,-0.15935 0.79433,-0.25073 l 46.11322,-7.34124 q 0.45012,-0.0701 0.88354,-0.007 0.43348,0.0631 0.76685,0.22033 0.33336,0.15719 0.48325,0.36914 0.14988,0.21194 0.0332,0.43923 l -12.23583,23.31579 q -0.15727,0.24857 -0.46097,0.40793 -0.32395,0.16997 -0.77408,0.24009 -0.45012,0.0701 -0.94426,0.0388 -0.47332,-0.0215 -0.82752,-0.18851 z m -29.11903,-16.31258 29.50209,13.91141 10.638,-20.27725 z m 24.05837,4.00252 -3.87526,-1.82734 11.2368,-5.8959 3.87526,1.82733 z m -3.10147,2.20851 q -0.52642,0.27622 -1.18016,0.41167 -0.63296,0.1453 -1.33135,0.15889 -0.65728,0.0128 -1.31811,-0.0971 -0.64059,-0.12054 -1.16146,-0.36615 -0.52087,-0.24561 -0.79702,-0.55735 -0.25589,-0.32238 -0.26533,-0.64952 0.0109,-0.3378 0.26877,-0.65994 0.25789,-0.32212 0.7843,-0.59833 0.50616,-0.26558 1.15934,-0.42149 0.6532,-0.15592 1.31051,-0.1687 0.67754,-0.0234 1.33836,0.0865 0.66082,0.1099 1.1817,0.35551 0.52086,0.24562 0.77677,0.56799 0.2559,0.32237 0.24509,0.66015 0.0302,0.33699 -0.24794,0.66976 -0.25731,0.34257 -0.76347,0.60815 z" />
      </g>
      <g
         style="stroke-width:0.69013"
         id="g128"
         transform="matrix(1.0764968,0,0,1.0764968,-248.67371,-218.56291)">
        <path
           style="fill:#000000;fill-opacity:1;stroke:none;stroke-width:0.759833;stroke-linecap:round;stroke-linejoin:round;stroke-miterlimit:4;stroke-dasharray:none;stroke-dashoffset:0;stroke-opacity:1"
           d="m 550.04848,1070.6903 -27.39675,-21.9353 -2.2e-4,12.0075 h -30.03699 l 9e-5,20.8646 h 30.03698 l -5e-5,10.9985 z"
           id="path122"
           inkscape:connector-curvature="0"
           sodipodi:nodetypes="cccccccc"
           inkscape:transform-center-x="3.6560491"
           inkscape:transform-center-y="-3.7857682" />
        <text
           id="text126"
           y="1079.2109"
           x="496.74249"
           style="font-style:normal;font-variant:normal;font-weight:normal;font-stretch:normal;font-size:24px;line-height:1.25;font-family:'Archivo Black';-inkscape-font-specification:'Archivo Black, ';letter-spacing:0px;word-spacing:0px;fill:#ffffff;fill-opacity:1;stroke:none;stroke-width:0.69013"
           xml:space="preserve"><tspan
             style="stroke-width:0.69013"
             y="1079.2109"
             x="496.74249"
             id="tspan124"
             sodipodi:role="line">1x</tspan></text>
      </g>
    </g>
  </g>
</svg>
