<?xml version="1.0" encoding="UTF-8" standalone="no"?>
<svg
   xmlns:dc="http://purl.org/dc/elements/1.1/"
   xmlns:cc="http://creativecommons.org/ns#"
   xmlns:rdf="http://www.w3.org/1999/02/22-rdf-syntax-ns#"
   xmlns:svg="http://www.w3.org/2000/svg"
   xmlns="http://www.w3.org/2000/svg"
   xmlns:sodipodi="http://sodipodi.sourceforge.net/DTD/sodipodi-0.dtd"
   xmlns:inkscape="http://www.inkscape.org/namespaces/inkscape"
   width="450"
   height="325"
   viewBox="0 0 450.00001 325"
   id="svg5199"
   version="1.1"
   inkscape:version="1.0.1 (3bc2e813f5, 2020-09-07)"
   sodipodi:docname="just-like-we-planned-it.svg">
  <defs
     id="defs5201" />
  <sodipodi:namedview
     inkscape:snap-global="false"
     id="base"
     pagecolor="#ffffff"
     bordercolor="#666666"
     borderopacity="1.0"
     inkscape:pageopacity="0.0"
     inkscape:pageshadow="2"
     inkscape:zoom="1.979899"
     inkscape:cx="525.61568"
     inkscape:cy="193.23373"
     inkscape:document-units="px"
     inkscape:current-layer="layer1"
     showgrid="false"
     units="px"
     borderlayer="true"
     inkscape:window-width="1920"
     inkscape:window-height="1017"
     inkscape:window-x="-8"
     inkscape:window-y="-8"
     inkscape:window-maximized="1"
     inkscape:document-rotation="0" />
  <metadata
     id="metadata5204">
    <rdf:RDF>
      <cc:Work
         rdf:about="">
        <dc:format>image/svg+xml</dc:format>
        <dc:type
           rdf:resource="http://purl.org/dc/dcmitype/StillImage" />
        <dc:title></dc:title>
      </cc:Work>
    </rdf:RDF>
  </metadata>
  <g
     inkscape:label="Layer 1"
     inkscape:groupmode="layer"
     id="layer1"
     transform="translate(0,-727.36216)">
    <path
       style="fill:#000000;fill-opacity:1;stroke:none;stroke-width:1.101;stroke-linecap:round;stroke-linejoin:round;stroke-miterlimit:4;stroke-dasharray:none;stroke-dashoffset:0;stroke-opacity:1"
       d="m 268.28257,889.86216 -41.29271,-33.12782 -3.3e-4,18.13431 h -45.2721 l 1.2e-4,31.51088 h 45.27211 l -8e-5,16.61045 z"
       id="path15147-6"
       inkscape:connector-curvature="0"
       sodipodi:nodetypes="cccccccc"
       inkscape:transform-center-x="5.0225219"
       inkscape:transform-center-y="-5.2031502" />
    <path
       id="path886"
       style="color:#000000;font-style:normal;font-variant:normal;font-weight:normal;font-stretch:normal;font-size:medium;line-height:normal;font-family:sans-serif;font-variant-ligatures:normal;font-variant-position:normal;font-variant-caps:normal;font-variant-numeric:normal;font-variant-alternates:normal;font-variant-east-asian:normal;font-feature-settings:normal;font-variation-settings:normal;text-indent:0;text-align:start;text-decoration:none;text-decoration-line:none;text-decoration-style:solid;text-decoration-color:#000000;letter-spacing:normal;word-spacing:normal;text-transform:none;writing-mode:lr-tb;direction:ltr;text-orientation:mixed;dominant-baseline:auto;baseline-shift:baseline;text-anchor:start;white-space:normal;shape-padding:0;shape-margin:0;inline-size:0;clip-rule:nonzero;display:inline;overflow:visible;visibility:visible;opacity:1;isolation:auto;mix-blend-mode:normal;color-interpolation:sRGB;color-interpolation-filters:linearRGB;solid-color:#000000;solid-opacity:1;vector-effect:none;fill:#000000;fill-opacity:1;fill-rule:nonzero;stroke:none;stroke-width:3.03089;stroke-linecap:butt;stroke-linejoin:miter;stroke-miterlimit:4;stroke-dasharray:none;stroke-dashoffset:0;stroke-opacity:1;paint-order:markers stroke fill;color-rendering:auto;image-rendering:auto;shape-rendering:auto;text-rendering:auto;enable-background:accumulate;stop-color:#000000;stop-opacity:1"
       d="M 167.32162,827.72855 C 129.10127,857.79199 111.65227,876.80904 97.771424,894.53883 91.214795,880.5897 73.230082,867.01098 72.394403,865.90731 l -4.487991,6.57072 c 9.97012,11.62534 26.602543,38.4673 32.453258,52.0532 7.54133,-25.29748 56.43665,-76.13509 67.18438,-86.59728 z m -62.20098,7.46347 c -30.283126,0 -54.880061,24.59692 -54.880066,54.88006 5e-6,30.28314 24.59694,54.88006 54.880066,54.88006 30.28312,0 54.88006,-24.59692 54.88006,-54.88006 0,-10.89815 -3.18595,-21.06022 -8.6757,-29.60416 -1.00311,1.09523 -2.04539,2.25292 -3.08061,3.3991 4.64473,7.63466 7.31888,16.60419 7.31888,26.20506 0,27.88532 -22.55726,50.44364 -50.44263,50.44364 -27.885363,0 -50.443632,-22.55832 -50.44364,-50.44364 8e-6,-27.88537 22.558277,-50.44364 50.44364,-50.44364 11.24711,0 21.62647,3.67098 30.00959,9.87986 1.09642,-0.97942 2.22356,-1.97388 3.37079,-2.97953 -9.25232,-7.10695 -20.8264,-11.33675 -33.38038,-11.33675 z" />
    <g
       id="g944"
       transform="translate(0,-1.4386774)">
      <path
         d="m 348.35036,807.62693 q 0,0.88756 -0.61115,1.53029 -0.6112,0.64275 -1.49739,0.79574 h -11.36776 q -0.85563,-0.15321 -1.49736,-0.79574 -0.61116,-0.64273 -0.61116,-1.53029 v -1.65272 q 0,-1.22418 -0.18336,-2.14238 -0.15282,-0.91815 -0.64173,-1.98935 -0.48894,-1.07125 -1.40569,-2.50966 -0.91676,-1.43848 -2.38356,-3.64211 -1.65016,-2.50967 -2.84194,-4.40726 -1.16123,-1.92815 -1.92519,-3.61144 -0.73341,-1.68331 -1.10011,-3.30541 -0.33611,-1.6527 -0.33611,-3.61146 0,-2.54031 0.64173,-4.89694 0.67227,-2.35663 1.89463,-4.40725 1.22233,-2.05057 2.90304,-3.70329 1.71128,-1.68328 3.7587,-2.87695 2.07798,-1.19359 4.46154,-1.83635 2.41411,-0.67331 4.98103,-0.67331 2.53634,0 4.88933,0.67331 2.35303,0.64276 4.43098,1.83635 2.078,1.19367 3.78924,2.87695 1.7113,1.65272 2.93365,3.70329 1.2529,2.05062 1.92518,4.40725 0.6723,2.35663 0.6723,4.89694 0,1.8057 -0.39721,3.48904 -0.3666,1.6833 -1.16122,3.45841 -0.76391,1.74453 -1.95572,3.70335 -1.16122,1.95874 -2.7197,4.25418 -1.4668,2.17298 -2.38357,3.58088 -0.91673,1.40782 -1.43626,2.47903 -0.48899,1.04061 -0.67223,1.95875 -0.153,0.91819 -0.153,2.14245 v 1.8057 z m 0,8.72262 q 0,0.42846 -0.0612,0.73456 -0.0278,0.12257 -0.0278,0.24458 -0.12238,0.33654 -0.12238,0.76516 0,0.42845 0.12238,0.67329 0,0.0613 0.0278,0.18384 0.0612,0.2446 0.0612,0.64275 0,0.52039 -0.15299,0.88756 -0.12239,0.36715 -0.27481,0.61214 -0.18358,0.30588 -0.42779,0.45911 -0.27481,0.15321 -0.58062,0.30587 -0.27481,0.15323 -0.39719,0.15323 -0.15299,0 -0.3972,0.15322 -0.24423,0.18331 -0.42779,0.42845 l -1.10009,1.95876 q -0.18335,0.2446 -0.51947,0.42846 -0.33612,0.21449 -0.61117,0.33651 h -5.71443 q -0.30559,-0.12257 -0.64172,-0.33651 -0.33612,-0.18386 -0.48895,-0.42846 l -1.22234,-1.95876 q -0.15281,-0.24459 -0.3667,-0.42845 -0.2139,-0.15322 -0.36671,-0.15322 -0.18337,0 -0.4584,-0.15323 -0.24444,-0.15321 -0.51947,-0.30587 -0.2445,-0.15323 -0.42779,-0.45911 -0.15281,-0.24459 -0.27503,-0.61214 -0.12222,-0.36717 -0.12222,-0.88756 0,-0.52038 0.0306,-0.64275 0,-0.12256 0.0306,-0.18384 0.0612,-0.15324 0.0916,-0.33655 0.0306,-0.15322 0.0306,-0.33652 0,-0.18386 -0.0306,-0.39781 -0.0305,-0.1833 -0.0916,-0.36717 -0.0306,-0.12257 -0.0306,-0.2446 -0.0306,-0.1532 -0.0306,-0.73455 0,-0.55103 0.12222,-0.97938 0.1528,-0.42845 0.30556,-0.7039 0.18336,-0.33653 0.4584,-0.58152 l 1.28346,-0.67333 h 11.12329 l 1.28344,0.67333 q 0.24477,0.24459 0.45839,0.58152 0.15299,0.27522 0.30541,0.7039 0.15298,0.42846 0.15298,0.97938 z"
         style="font-style:normal;font-variant:normal;font-weight:normal;font-stretch:normal;font-size:11.25px;line-height:110%;font-family:'Archivo Narrow';-inkscape-font-specification:'Archivo Narrow';letter-spacing:0px;word-spacing:0px;fill:#000000;fill-opacity:1;stroke:none;stroke-width:6.59956px;stroke-linecap:butt;stroke-linejoin:miter;stroke-opacity:1"
         id="path148"
         inkscape:connector-curvature="0" />
      <g
         id="g935"
         transform="translate(0,6.4285714)">
        <path
           transform="matrix(-4.8803324,2.817318,2.8266949,4.8953829,-815.3381,-5706.3868)"
           sodipodi:type="star"
           style="font-style:normal;font-weight:normal;font-size:medium;line-height:125%;font-family:sans-serif;letter-spacing:0px;word-spacing:0px;fill:#b3b3b3;fill-opacity:1;stroke:#000000;stroke-width:0.658152;stroke-linecap:butt;stroke-linejoin:round;stroke-miterlimit:4;stroke-dasharray:none;stroke-dashoffset:0;stroke-opacity:1"
           id="path5092"
           sodipodi:sides="6"
           sodipodi:cx="407.40814"
           sodipodi:cy="1113.0243"
           sodipodi:r1="11.162703"
           sodipodi:r2="9.6671848"
           sodipodi:arg1="-1.0471976"
           sodipodi:arg2="-0.52359878"
           inkscape:flatsided="true"
           inkscape:rounded="0"
           inkscape:randomized="0"
           d="m 412.98949,1103.3571 5.58135,9.6672 -5.58135,9.6672 -11.1627,0 -5.58135,-9.6672 5.58135,-9.6672 z" />
        <path
           id="path112"
           d="m 342.55803,868.80629 c 2.84988,0 4.8995,1.51241 6.08328,3.41238 1.05868,1.69883 1.49915,3.6696 1.58507,5.39584 3.23068,1.60199 6.80967,3.21763 9.69117,4.86935 1.51155,0.86662 2.82937,1.73795 3.82133,2.67441 0.99195,0.93645 1.72386,1.99117 1.72386,3.23498 0,0.52952 -0.25799,0.96083 -0.54782,1.27751 -0.29099,0.31739 -0.63901,0.56265 -1.03566,0.79217 -0.79323,0.45871 -1.79328,0.84123 -2.89339,1.17265 -1.63428,0.49177 -3.46454,0.8576 -5.05594,1.01362 1.58288,2.7362 3.68938,5.24887 5.53589,7.65632 2.13394,2.78296 3.99692,5.45166 3.99692,8.41628 0,0.4234 0.0102,0.7541 -0.0336,1.0865 -0.0374,0.3341 -0.13265,0.7464 -0.46547,1.0752 -0.33297,0.3273 -0.74064,0.4169 -1.07268,0.453 -0.33198,0.037 -0.66657,0.037 -1.09567,0.037 h -11.77341 c -0.85463,0 -1.48045,0.054 -2.12423,-0.3626 -0.64386,-0.4149 -0.87862,-0.9818 -1.33733,-1.8291 h -0.0102 l -0.0102,-0.037 c 0,0 -1.02626,-2.09304 -2.25076,-4.17041 -0.61217,-1.03802 -1.27686,-2.07235 -1.85498,-2.80501 -0.28964,-0.3665 -0.55985,-0.65715 -0.75468,-0.82119 -0.0596,-0.0467 -0.087,-0.0602 -0.12499,-0.0836 -0.0383,0.0368 -0.0653,0.0368 -0.12499,0.0836 -0.19465,0.1637 -0.4655,0.45437 -0.75467,0.82119 -0.57812,0.73266 -1.24276,1.76699 -1.85499,2.80501 -1.22437,2.07737 -2.25075,4.17041 -2.25075,4.17041 l -0.0102,0.037 h -0.0102 c -0.45873,0.8473 -0.69136,1.4109 -1.33096,1.8268 -0.63945,0.4159 -1.26394,0.3665 -2.10654,0.3665 h -11.82541 c -0.42219,0 -0.75151,0 -1.08124,-0.037 -0.32965,-0.037 -0.73868,-0.1269 -1.06826,-0.459 -0.3293,-0.3341 -0.42049,-0.7407 -0.45699,-1.0714 -0.0374,-0.3274 -0.0333,-0.6609 -0.0333,-1.0848 0,-2.96438 1.86299,-5.63275 3.99696,-8.41572 1.84638,-2.40777 3.95288,-4.92045 5.53585,-7.65664 -1.59143,-0.15703 -3.42169,-0.52185 -5.05592,-1.01363 -1.10008,-0.33409 -2.10018,-0.71361 -2.89338,-1.17264 -0.39666,-0.22719 -0.745,-0.47542 -1.03548,-0.79179 -0.29064,-0.31739 -0.54803,-0.74837 -0.54803,-1.2779 0,-1.24381 0.73192,-2.2982 1.72383,-3.23498 0.99202,-0.93611 2.30983,-1.80776 3.8213,-2.67437 2.88158,-1.65175 6.46052,-3.26707 9.69127,-4.86936 0.0859,-1.72624 0.52645,-3.69703 1.58503,-5.39586 1.18378,-1.89997 3.23338,-3.41239 6.08329,-3.41239 z"
           inkscape:connector-curvature="0"
           style="fill:#4d4d4d;fill-opacity:1;stroke:none;stroke-width:0.565639;stroke-opacity:1" />
        <g
           style="stroke-width:1.34344"
           id="g4252"
           transform="matrix(0.47077953,-0.27180469,0.27180469,0.47077953,-33.635275,621.89193)">
          <rect
             rx="10.106077"
             ry="10.106077"
             y="884.43329"
             x="296.20898"
             height="119.48203"
             width="119.48205"
             id="rect5229"
             style="fill:#b3b3b3;fill-opacity:1;stroke:#000000;stroke-width:6.71725;stroke-linecap:round;stroke-linejoin:round;stroke-miterlimit:4;stroke-dasharray:none;stroke-dashoffset:0.6;stroke-opacity:1" />
          <path
             inkscape:connector-curvature="0"
             id="path11026"
             d="m 349.04357,894.25658 v 94.69231 l 30.34921,-8.84956 v -76.99319 z m 34.18312,5.58532 0.0126,0.48022 v 6.1699 h 3.41977 v -6.64755 h -3.43321 z m -55.12948,0 v 24.36203 h 3.84742 v -20.62269 h 13.25147 v -3.73934 z m 55.14299,10.38691 v 3.32442 h 3.41854 v -3.32442 z m 0,7.06376 v 49.02757 h 3.41854 v -49.02757 z m -60.36762,6.05528 -12.45385,12.10483 12.45385,12.10674 v -7.3282 h 20.51871 v -9.5558 h -20.51871 z m 31.94084,13.26504 c 1.41641,0 2.56459,2.23208 2.56459,4.986 0,2.75329 -1.14818,4.986 -2.56459,4.986 -1.41633,0 -2.56451,-2.23271 -2.56451,-4.986 0,-2.75392 1.14818,-4.986 2.56451,-4.986 z m -22.86879,6.31526 v 7.32949 h -20.51749 v 9.55579 h 20.51749 v 7.32756 l 12.45506,-12.1061 z m -3.84742,25.83599 v 12.72208 h 3.84742 v -12.72208 z m 55.14299,1.29533 v 2.90823 h 3.41854 v -2.90823 z m 0,6.64821 v 4.77854 h 3.41854 v -4.77854 z m -73.73678,9.5558 v 3.73997 h 35.69268 v -3.73997 z m 62.12102,0 -12.82388,3.73997 h 46.45325 v -3.73997 z"
             style="fill:#000000;fill-opacity:1;stroke-width:1.34344" />
        </g>
      </g>
    </g>
  </g>
</svg>
