<?xml version="1.0" encoding="UTF-8" standalone="no"?>
<!-- Created with Inkscape (http://www.inkscape.org/) -->

<svg
   xmlns:dc="http://purl.org/dc/elements/1.1/"
   xmlns:cc="http://creativecommons.org/ns#"
   xmlns:rdf="http://www.w3.org/1999/02/22-rdf-syntax-ns#"
   xmlns:svg="http://www.w3.org/2000/svg"
   xmlns="http://www.w3.org/2000/svg"
   xmlns:sodipodi="http://sodipodi.sourceforge.net/DTD/sodipodi-0.dtd"
   xmlns:inkscape="http://www.inkscape.org/namespaces/inkscape"
   width="450"
   height="325"
   viewBox="0 0 450.00001 325"
   id="svg5199"
   version="1.1"
   inkscape:version="0.92.0 r15299"
   sodipodi:docname="figure_alerts_lockdown.svg">
  <defs
     id="defs5201" />
  <sodipodi:namedview
     id="base"
     pagecolor="#ffffff"
     bordercolor="#666666"
     borderopacity="1.0"
     inkscape:pageopacity="0.0"
     inkscape:pageshadow="2"
     inkscape:zoom="0.98994949"
     inkscape:cx="-61.089979"
     inkscape:cy="113.91674"
     inkscape:document-units="px"
     inkscape:current-layer="layer1"
     showgrid="false"
     units="px"
     borderlayer="true"
     inkscape:window-width="1920"
     inkscape:window-height="1017"
     inkscape:window-x="-8"
     inkscape:window-y="-8"
     inkscape:window-maximized="1" />
  <metadata
     id="metadata5204">
    <rdf:RDF>
      <cc:Work
         rdf:about="">
        <dc:format>image/svg+xml</dc:format>
        <dc:type
           rdf:resource="http://purl.org/dc/dcmitype/StillImage" />
        <dc:title />
      </cc:Work>
    </rdf:RDF>
  </metadata>
  <g
     inkscape:label="Layer 1"
     inkscape:groupmode="layer"
     id="layer1"
     transform="translate(0,-727.36216)">
    <path
       style="fill:#000000;fill-opacity:1;stroke:none;stroke-width:10;stroke-linecap:round;stroke-linejoin:round;stroke-miterlimit:4;stroke-dasharray:none;stroke-dashoffset:0;stroke-opacity:1"
       d="m 210.67352,756.50965 c -3.83646,0.10382 -9.73709,1.74169 -9.11749,4.12798 2.00002,2.1325 3.21619,5.1721 4.63936,7.9059 3.17419,6.09659 5.61391,12.96411 7.56956,21.09746 1.80365,1.27015 2.45451,1.08082 5.10165,0.48475 1.76728,-0.39722 3.2913,-0.62968 3.84956,-2.00563 0.79372,-2.24529 1.3235,-4.44841 1.94743,-6.71236 0.6922,-2.51128 1.49828,-5.08941 2.90314,-7.67713 2.89775,-5.33687 5.85825,-9.76448 7.44825,-13.93635 0.58627,-1.71978 -3.97485,-2.43669 -5.81517,-2.44529 -3.9401,-0.022 -8.95419,0.11701 -16.30549,-0.65985 -0.55908,-0.14925 -1.33565,-0.20376 -2.2208,-0.17948 z m -13.6583,2.36907 c -0.44652,-0.0442 -0.88885,0.0367 -1.28767,0.25159 -5.32628,2.89107 -10.55031,0.70103 -14.51059,4.43303 -1.32143,1.24532 -1.67731,3.31331 -0.41706,4.62159 7.66232,7.9589 8.13509,10.54215 15.03571,23.38568 5.05541,3.56944 10.68059,0.8341 12.2402,0.1706 1.66004,-0.73265 2.87945,-2.25337 2.3557,-3.9933 -1.01564,-11.24111 -5.62884,-16.75599 -10.71479,-26.2574 -0.0221,-1.36263 -1.35769,-2.492 -2.69658,-2.60685 v -0.004 z m 41.44106,1.26083 c -1.33887,0.11468 -2.67266,1.2486 -2.69655,2.6114 -5.08598,9.50134 -9.69893,15.0163 -10.71481,26.25733 -0.52375,1.73993 0.69074,3.26019 2.35128,3.99337 8.40536,3.71177 5.54497,1.12679 9.26543,1.72742 1.79149,0.28908 3.06166,-0.29793 3.92151,-1.89792 6.90061,-12.84364 7.37315,-15.42685 15.03555,-23.38577 1.25937,-1.30812 0.90378,-3.3762 -0.41708,-4.62151 -3.96031,-3.7323 -10.12696,-1.54191 -15.45294,-4.43304 -0.39796,-0.21702 -0.84608,-0.28983 -1.29225,-0.25157 z m -63.52106,5.97656 c -0.44579,0.0441 -0.87389,0.18978 -1.22926,0.4708 -4.75082,3.7651 -11.20486,2.66332 -14.46587,7.02198 -1.08802,1.4542 -1.11628,3.59968 0.38104,4.62598 9.24228,6.33346 11.5083,8.02346 18.82704,20.4513 5.59249,2.64582 11.59875,-1.1771 13.02106,-2.09987 1.5095,-1.00804 2.44755,-2.71937 1.63312,-4.34335 -2.92947,-10.89884 -8.42165,-15.53859 -15.06245,-24.02288 -0.25672,-1.33826 -1.76612,-2.22153 -3.10498,-2.10431 z m 85.31852,2.25249 c -1.3405,-0.0979 -2.83582,0.80719 -3.07356,2.14921 -6.51605,8.58072 -11.9381,13.30213 -14.70816,24.24274 -0.79078,1.63561 0.16988,3.33044 1.69606,4.31636 1.43584,0.90185 7.4947,4.63447 13.04791,1.90692 8.83335,-11.59523 9.70884,-14.06921 18.52654,-20.72055 1.44935,-1.09323 1.42315,-3.19228 0.31408,-4.63045 -3.32438,-4.31048 -9.7593,-3.11603 -14.56455,-6.81112 -0.35899,-0.2773 -0.79166,-0.42075 -1.23825,-0.45311 z m -105.76534,8.50708 c -0.68485,0.0221 -1.34601,0.27367 -1.79465,0.78528 -3.99477,4.56169 -10.54001,4.64923 -12.96273,9.52567 -0.80819,1.62708 -0.43839,3.7129 1.20699,4.47792 10.13064,4.70932 14.16536,5.87186 23.03569,16.54766 5.97728,1.59222 10.36121,-3.08901 11.59421,-4.25353 1.30327,-1.26436 1.91454,-3.11307 0.821,-4.56324 -4.84379,-10.19075 -11.07708,-13.76363 -19.13664,-20.90894 -0.4112,-1.05823 -1.62214,-1.65002 -2.76387,-1.61082 z m 125.95191,3.02872 c -1.14159,-0.0442 -2.35224,0.55242 -2.76389,1.61074 -8.05962,7.14536 -14.29263,10.7136 -19.13672,20.90452 -1.09346,1.45023 -0.48254,3.30343 0.82108,4.56765 1.23275,1.16461 6.45147,6.01177 12.42883,4.41964 10.91855,-9.65001 12.25881,-13.80328 22.20103,-18.60721 1.63404,-0.78967 2.01537,-2.85098 1.20703,-4.47792 -2.42256,-4.87646 -8.96796,-3.07062 -12.96272,-7.63224 -0.44945,-0.51199 -1.10938,-0.76165 -1.79464,-0.78518 z M 137.0388,791.62866 c -1.14218,-0.0789 -2.36731,0.46857 -2.80426,1.5166 -2.33409,5.59953 -7.22134,7.33638 -9.26542,12.38387 -0.68193,1.68401 -0.1582,3.74744 1.5435,4.37469 3.10983,1.14504 17.63151,6.91937 20.50521,8.49822 3.01062,1.65405 1.94215,1.88172 7.03547,3.99327 1.65063,0.68484 3.11513,0.61497 4.02918,-0.21553 3.108,-2.822 5.36651,-5.50864 7.1207,-8.13474 0.83278,-1.61465 -0.62452,-2.99963 -2.12221,-4.02478 -7.8352,-8.11082 -14.35189,-13.35509 -24.26519,-17.55273 -0.43693,-0.52301 -1.09146,-0.79224 -1.77698,-0.83903 z m 165.00129,0.17946 c -0.68558,0.0515 -1.34041,0.31632 -1.77669,0.83904 -9.91373,4.19795 -18.44863,11.46048 -26.28428,19.57188 -3.13763,2.30405 3.71841,13.25228 9.70079,12.74736 8.63464,-6.09881 18.10705,-9.91992 29.55055,-14.13382 1.703,-0.62746 2.22562,-2.69059 1.54359,-4.37471 -2.04418,-5.04739 -7.59555,-7.53814 -9.9296,-13.13764 -0.43696,-1.04815 -1.66209,-1.59014 -2.80435,-1.51211 z m -88.83611,4.14147 c -4.64952,0.27658 -9.14185,0.91906 -13.42928,1.91587 v 15.39455 h -14.34015 v -10.47242 c -4.9167,2.28374 -9.42352,5.05986 -13.42932,8.2559 v 2.21652 h -2.60675 c -4.46365,3.98762 -8.21234,8.51702 -11.10509,13.45175 h 13.71184 v 17.35536 h -25.9119 c -0.55539,4.67131 1.19418,9.70328 2.08205,14.6004 h 23.82985 v 14.82467 h -23.22865 c -0.966,5.15585 -0.2067,9.8815 0.57452,14.60041 h 22.65435 v 13.78819 h -21.01219 c -0.95113,5.05654 -0.61349,9.85634 0,14.60024 h 21.01219 v 11.72405 h -21.25002 c -1.0675,4.86675 1.32468,9.73423 2.01475,14.60098 h 19.23527 v 13.25851 h -19.41034 c 0,0 -3.08864,1.099 -3.19024,1.65584 l 0.71353,11.79613 h 21.88697 v 17.59709 l 5.99922,18.84977 c -28.15175,-2.0508 -56.54447,2.6298 -85.996022,-1.4226 -0.179469,0 -0.358963,-0.074 -0.534049,-0.074 -2.637919,0 -4.720211,2.5732 -4.720211,5.3082 v 4.6042 c 0,2.9173 2.3526,5.013 5.25435,5.2669 16.819392,1.4733 33.329142,2.698 49.629572,2.9658 48.27651,0.9402 107.0962,0.7283 162.26868,-0.2133 17.25362,-0.3604 27.58959,-2.3847 45.12047,-2.7503 2.91181,-0.074 5.25854,-2.3504 5.25854,-5.2677 v -4.6042 c 0,-2.9174 -2.35247,-5.4597 -5.25854,-5.2677 -10.98704,0.7283 -22.00187,2.1054 -33.06401,1.8177 -17.47459,-0.456 -35.39558,0 -53.51091,0.5076 l 6.29072,-19.75534 v -17.59782 h 19.8679 l -0.57891,-9.52607 c 0,-1.27258 -0.18171,-2.58196 -0.51566,-3.9259 h -18.77325 v -13.25851 h 21.14219 c 1.08779,-6.26441 2.05453,-12.35591 0.35455,-14.60023 h -21.49667 v -11.72479 h 20.3122 c 0.91709,-4.79024 2.68413,-9.50987 0,-14.60024 h -20.3122 v -13.78814 h 20.55002 c 0.90075,-4.87616 1.75949,-9.59874 1.30113,-14.60039 h -21.85115 v -14.82468 h 21.97223 c 0.57744,-4.81444 1.58721,-9.57446 0.47152,-14.6004 H 268.7437 v -17.35535 h 10.24798 c -5.99569,-6.80625 -14.43319,-13.48301 -23.67731,-18.8764 v 5.42465 h -14.34012 v -12.44214 c -4.54521,-1.80332 -9.07595,-3.17685 -13.4293,-4.03375 v 16.47589 h -14.34022 v -17.31043 z m 105.35688,15.05799 c -0.44946,0.0138 -0.88515,0.14342 -1.25613,0.40386 -9.25881,3.31008 -19.04093,8.5569 -30.44372,12.09668 -1.71199,0.60173 -2.22221,2.4826 -1.83512,4.25806 1.96077,8.98921 4.56339,7.97031 5.0837,11.58073 0.25965,1.79855 2.76894,2.88423 4.25347,1.83961 8.62721,-6.07094 17.096,-11.01309 30.4391,-12.09223 1.80817,-0.1465 2.4057,-2.53149 1.83967,-4.25802 -1.69719,-5.17489 -4.28055,-5.5669 -5.08802,-11.58075 -0.18169,-1.35078 -1.64511,-2.29949 -2.99295,-2.24794 z m -198.1639,0.17952 c -1.34776,-0.0515 -2.81572,0.89712 -2.99721,2.24791 -0.80754,6.01383 -3.22039,5.73725 -4.91764,10.91215 -0.56643,1.7266 0.0941,3.74833 1.8351,4.2581 11.70306,3.42592 21.83275,5.7602 30.86096,11.25759 1.55043,0.94402 3.98992,-0.0514 4.24905,-1.84407 0.52083,-3.61041 2.54402,-1.08399 4.50478,-10.07313 0.38691,-1.77537 -0.12632,-3.65609 -1.83947,-4.25804 -9.66449,-5.80376 -19.7788,-10.61189 -30.43917,-12.0967 -0.36999,-0.26113 -0.80701,-0.38692 -1.2564,-0.40381 z m 65.03759,15.52466 h 14.34015 v 17.35536 h -14.34015 z m 27.76943,0 h 14.34015 v 17.35536 h -14.34015 z m 27.76947,0 h 14.34021 v 17.35536 h -14.34021 z m 86.3057,3.26195 c -0.45019,0.008 -0.88797,0.12503 -1.26538,0.37662 -10.69456,1.21477 -20.93203,5.76287 -30.73991,11.32049 -1.72637,0.55759 -2.11852,2.39998 -1.94277,4.20868 0.4958,5.09368 0.0736,7.6079 -0.53846,11.20382 -0.30456,1.79134 1.38044,1.72668 3.14544,1.3057 10.27812,-2.45186 20.82681,-0.72384 33.01465,-0.38104 1.81349,0.0515 3.05863,-1.66895 3.05105,-3.48632 -0.0295,-5.44678 -1.13002,-16.19137 -1.78567,-22.2236 -0.1471,-1.35498 -1.59023,-2.34171 -2.93895,-2.32427 z m -217.01805,1.04551 c -1.34549,0.0736 -2.71837,1.14783 -2.77743,2.50818 -0.26333,6.06225 -0.66866,15.52121 -0.3413,20.95829 0.10809,1.81406 1.46893,3.44909 3.27549,3.27989 12.13934,-1.13695 22.32986,-1.77639 32.74536,0 1.78867,0.30455 3.69639,-1.51224 3.27547,-3.27989 -0.8449,-3.54818 -1.43278,-4.69329 -1.26971,-9.80839 0.0588,-1.81643 -0.45239,-3.62946 -2.21205,-4.07405 -10.14807,-4.90634 -20.65771,-8.77751 -31.40839,-9.29244 -0.39206,-0.22654 -0.83551,-0.31336 -1.28325,-0.2913 v 0 z m 17.11299,27.59445 c -5.50202,-0.0736 -10.86456,0.29278 -15.95103,1.28767 -1.76428,-0.42371 -2.88239,1.50585 -3.27543,3.27998 -1.23044,5.55129 -1.23965,10.35478 0,15.9061 0.39649,1.77361 1.47525,3.50308 3.27543,3.27541 12.16053,-1.53852 22.09676,-1.17558 32.74999,0 1.80339,0.19862 3.6964,-1.50762 3.27548,-3.27541 -0.84493,-3.54835 1.48591,-6.82613 0,-15.9061 -0.29424,-1.79346 -1.46246,-3.3525 -3.27548,-3.27998 -5.65384,-0.72531 -11.29697,-1.22028 -16.79896,-1.28767 z m 185.19249,0 c -5.50202,0.0736 -11.14511,0.56273 -16.79896,1.28767 -1.81281,-0.0736 -2.98191,1.48652 -3.27549,3.27998 -1.4857,9.07997 0.8449,13.10706 0,16.65536 -0.42079,1.76767 1.46702,3.4274 3.27549,3.27992 10.77015,-0.87875 20.69471,-2.194 32.74978,0 1.78493,0.3244 2.87935,-1.50637 3.2754,-3.27992 1.23965,-5.55128 1.23047,-11.10407 0,-16.65536 -0.39353,-1.77413 -1.51115,-3.70338 -3.2754,-3.27998 -5.08672,-0.99462 -10.4486,-1.3552 -15.95081,-1.28767 z m -127.13203,0.0515 h 14.34015 v 14.82466 h -14.34015 z m 27.76943,0 h 14.34015 v 14.82466 h -14.34015 z m 27.76947,0 h 14.34021 v 14.82466 h -14.34021 z m 71.41349,24.56575 c -5.50207,0.0736 -11.14512,0.56787 -16.79897,1.29223 -1.81282,-0.0736 -2.63183,1.58072 -3.27526,3.2799 -3.1806,8.40111 0.29352,11.76868 0,15.53792 -0.13973,1.81179 1.46656,3.13734 3.27526,3.28004 10.94106,0.86435 20.99241,2.22741 32.75001,0 1.78266,-0.33838 2.87936,-1.5065 3.27542,-3.28004 1.23964,-5.55086 1.23043,-9.98656 0,-15.53792 -0.39356,-1.77405 -1.51115,-3.70347 -3.27542,-3.2799 -5.0867,-0.99476 -10.44903,-1.35978 -15.95104,-1.29223 z m -184.50147,0.4215 c -5.50155,-0.0736 -10.97254,0.15587 -16.2827,0.87042 -1.76436,-0.4237 -2.88248,1.50585 -3.2755,3.27991 -1.23043,5.55166 -1.23964,11.10401 0,16.65559 0.39576,1.77354 1.46723,3.12852 3.2755,3.28004 11.75795,0.98572 21.8045,0.66941 32.74534,0 1.81099,-0.11029 3.4207,-1.46824 3.27981,-3.28004 -0.29347,-3.76923 3.18062,-8.25418 0,-16.65559 -0.64216,-1.69924 -1.46676,-3.35273 -3.27981,-3.27991 -5.43221,-0.44797 -10.96105,-0.80371 -16.46264,-0.87042 z m 57.54908,4.43751 h 14.34015 v 13.78866 h -14.34015 z m 27.76943,0 h 14.34015 v 13.78866 h -14.34015 z m 27.76947,0 h 14.34021 v 13.78866 h -14.34021 z m 88.01963,20.11043 c -0.21624,0 -0.43471,7.2e-4 -0.65541,0.0736 -11.61463,2.78867 -21.6407,0.44871 -32.74997,0 -1.81277,-0.0736 -3.38342,1.46605 -3.27522,3.28005 0.49948,8.40133 0.91384,12.88188 0,16.65109 -0.42738,1.7662 1.46174,3.23078 3.27522,3.28008 9.71363,0.26481 20.35545,1.48809 32.74997,0 1.80135,-0.21333 2.95639,-1.49109 3.2755,-3.28008 0.98968,-5.55158 -0.64954,-11.09951 0,-16.65109 0.18389,-1.57934 -1.11164,-3.22929 -2.62029,-3.33375 v 0 z m -218.05017,0.99157 v 0 c -1.50864,0.10304 -2.80036,1.75884 -2.61564,3.33818 0.64953,5.55087 -0.98991,10.09466 0,15.64553 0.31926,1.78901 1.46289,3.19914 3.2754,3.28005 12.39463,0.55907 23.03204,-1.62861 32.74544,0 1.78957,0.30161 3.70802,-1.51385 3.27981,-3.28005 -0.91381,-3.76921 -0.50017,-7.24494 0,-15.64553 0.10809,-1.81398 -1.46676,-3.35729 -3.27981,-3.28446 -11.10921,0.44137 -21.13071,2.78793 -32.74544,0 -0.22067,-0.0736 -0.44356,-0.0736 -0.65982,-0.0736 z m 74.49164,7.28689 h 14.34015 v 11.72405 h -14.34015 z m 27.76943,0 h 14.34015 v 11.72405 h -14.34015 z m 27.76947,0 h 14.34021 v 11.72405 h -14.34021 z m -104.93073,15.8699 v 0.004 c -8.13842,0 -15.89565,1.27701 -24.44005,0.52228 -1.80721,-0.1619 -3.01103,1.48664 -3.2754,3.28446 -0.81674,5.5516 -2.37401,11.09952 0,16.65111 0.71425,1.67056 1.46171,2.74821 3.2754,2.69672 12.39463,-0.35308 25.85057,-1.46017 33.57983,0.16917 1.77532,0.37517 3.24401,-1.4631 3.28007,-3.27932 0.078,-3.76996 0.89502,-7.83269 -0.83465,-16.23402 -0.36704,-1.77943 -1.48265,-3.0351 -3.27981,-3.28446 -2.84037,-0.39724 -5.59278,-0.52964 -8.30539,-0.52229 z m 159.54517,0.52228 c -1.81111,-0.11028 -2.90878,1.50432 -3.27518,3.28448 -1.72963,8.40057 -0.078,12.88113 0,16.65109 0.0366,1.81693 1.46539,3.40732 3.27518,3.27931 9.71344,-0.6841 20.35546,-0.35308 32.75,0 1.81349,0.0736 2.56131,-1.60875 3.27551,-3.27931 2.37402,-5.5516 0.81673,-11.0995 0,-16.65109 -0.26483,-1.79783 -1.47417,-3.50074 -3.27551,-3.28448 -11.39251,1.3675 -21.38823,0.67676 -32.75,0 z m -110.15334,9.92918 h 14.34015 v 13.25923 h -14.34015 z m 27.76943,0 h 14.34015 v 13.25923 h -14.34015 z m 27.76947,0 h 14.34021 v 13.25923 H 240.97345 Z M 136.04272,956.3198 c -8.13842,0 -15.89565,1.28144 -24.44005,0.5223 -1.80721,-0.1619 -3.01103,1.48223 -3.2754,3.28004 -0.81674,5.5516 -2.37401,10.09908 0,15.65069 0.71425,1.67055 1.48312,2.99758 3.2754,3.2793 12.39463,1.9523 23.03204,0.24276 32.74544,0 1.81371,-0.0736 3.24379,-1.46238 3.27981,-3.2793 0.0781,-3.76997 1.72967,-7.24938 0,-15.65069 -0.36704,-1.77943 -1.48265,-3.02994 -3.27981,-3.28004 -2.84037,-0.39723 -5.59278,-0.52963 -8.30539,-0.5223 z m 159.54517,0.5223 c -1.8084,-0.14726 -2.90878,1.50061 -3.27518,3.28004 -1.72963,8.40131 -0.078,12.88629 0,16.65553 0.0366,1.81694 1.46151,3.23443 3.27518,3.28005 9.71344,0.24274 20.35546,1.95229 32.75,0 1.79216,-0.27953 2.56131,-1.60951 3.27551,-3.28005 2.37402,-5.5516 0.81673,-11.10393 0,-16.65553 -0.26483,-1.79781 -1.47299,-3.48747 -3.27551,-3.28004 -5.66392,0.65468 -10.68234,0.29421 -16.00472,0.2501 -5.40331,-0.0736 -11.11091,0.20595 -16.74528,-0.2501 z m -110.15334,12.66708 h 14.34015 v 17.59708 l 6.46115,20.29464 c -8.89285,-0.2061 -17.81895,-0.6254 -26.77771,-1.3507 -0.022,0 -0.0295,0 -0.0515,0 l 6.02579,-18.9396 v -17.5978 z m 27.76943,0 h 14.34015 v 17.59708 l 6.48367,20.36584 c -9.0465,0.1254 -18.14011,0.147 -27.28035,-0.074 l 6.45653,-20.3033 v -17.59709 z m 27.76947,0 h 14.34021 v 17.59708 l 6.29064,19.77814 c -8.99436,0.2428 -17.9913,0.4487 -27.10557,0.5811 l 6.47472,-20.35703 v -17.5971 z M 110.95646,980.7845 v 0.003 c -1.43443,0.15445 -2.39793,1.7294 -2.62919,3.30211 -0.81674,5.55161 -2.37401,11.10392 0,16.65559 0.71425,1.6705 1.50725,2.8732 3.2754,3.2801 9.49526,2.1877 20.81699,0.1986 32.74544,0 1.81415,0 3.24379,-1.4632 3.27981,-3.2801 0.0781,-3.76929 1.72967,-8.25427 0,-16.65559 -0.36704,-1.77942 -1.47714,-3.48161 -3.27981,-3.2749 -10.43893,1.19537 -20.98506,2.11337 -32.74544,0 -0.22288,-0.0736 -0.44136,-0.0736 -0.64658,0 z m 218.0231,0.66937 c -0.2045,0 -0.41929,0 -0.64144,0 -11.7603,2.11342 -22.31106,1.19537 -32.74999,0 -1.80268,-0.20597 -2.90888,1.49992 -3.27527,3.27933 -1.72962,8.40133 -0.078,12.88628 0,16.6555 0.0366,1.817 1.47899,3.536 3.27527,3.28 10.91626,-1.5565 21.83371,-0.2795 32.74999,0 1.8137,0.074 2.56122,-1.6095 3.2755,-3.28 2.37399,-5.55084 0.81666,-11.10392 0,-16.6555 -0.23099,-1.57271 -1.19972,-3.15204 -2.63392,-3.30652 v -0.003 z"
       id="path15171"
       inkscape:connector-curvature="0" />
  </g>
</svg>
