<?xml version="1.0" encoding="UTF-8" standalone="no"?>
<svg
   xmlns:dc="http://purl.org/dc/elements/1.1/"
   xmlns:cc="http://creativecommons.org/ns#"
   xmlns:rdf="http://www.w3.org/1999/02/22-rdf-syntax-ns#"
   xmlns:svg="http://www.w3.org/2000/svg"
   xmlns="http://www.w3.org/2000/svg"
   xmlns:sodipodi="http://sodipodi.sourceforge.net/DTD/sodipodi-0.dtd"
   xmlns:inkscape="http://www.inkscape.org/namespaces/inkscape"
   sodipodi:docname="moment-of-doubt.svg"
   inkscape:version="1.0 (4035a4fb49, 2020-05-01)"
   version="1.1"
   id="svg5199"
   viewBox="0 0 450.00001 325"
   height="325"
   width="450">
  <defs
     id="defs5201" />
  <sodipodi:namedview
     inkscape:document-rotation="0"
     inkscape:window-maximized="1"
     inkscape:window-y="-8"
     inkscape:window-x="-8"
     inkscape:window-height="1017"
     inkscape:window-width="1920"
     borderlayer="true"
     units="px"
     showgrid="false"
     inkscape:current-layer="layer1"
     inkscape:document-units="px"
     inkscape:cy="218.29255"
     inkscape:cx="274.24065"
     inkscape:zoom="2.8"
     inkscape:pageshadow="2"
     inkscape:pageopacity="0.0"
     borderopacity="1.0"
     bordercolor="#666666"
     pagecolor="#ffffff"
     id="base"
     inkscape:snap-global="false" />
  <metadata
     id="metadata5204">
    <rdf:RDF>
      <cc:Work
         rdf:about="">
        <dc:format>image/svg+xml</dc:format>
        <dc:type
           rdf:resource="http://purl.org/dc/dcmitype/StillImage" />
        <dc:title />
      </cc:Work>
    </rdf:RDF>
  </metadata>
  <g
     transform="translate(0,-727.36216)"
     id="layer1"
     inkscape:groupmode="layer"
     inkscape:label="Layer 1">
    <path
       inkscape:transform-center-y="-3.7857682"
       inkscape:transform-center-x="3.6560491"
       sodipodi:nodetypes="cccccccc"
       inkscape:connector-curvature="0"
       id="path15147"
       d="m 283.23077,889.86216 -27.39675,-21.9353 -2.2e-4,12.0075 h -30.03699 l 9e-5,20.8646 h 30.03698 l -5e-5,10.9985 z"
       style="fill:#000000;fill-opacity:1;stroke:none;stroke-width:1.101;stroke-linecap:round;stroke-linejoin:round;stroke-miterlimit:4;stroke-dasharray:none;stroke-dashoffset:0;stroke-opacity:1" />
    <g
       transform="translate(-29.936937,-28.892831)"
       id="g111">
      <path
         transform="matrix(2.7483711,1.5875102,-1.5868525,2.7497865,853.56093,-2790.1175)"
         inkscape:randomized="0"
         inkscape:rounded="0"
         inkscape:flatsided="true"
         sodipodi:arg2="-0.52359878"
         sodipodi:arg1="-1.0471976"
         sodipodi:r2="9.6671848"
         sodipodi:r1="11.162703"
         sodipodi:cy="1102.7913"
         sodipodi:cx="389.90088"
         sodipodi:sides="6"
         id="path5084-7"
         style="font-style:normal;font-weight:normal;font-size:medium;line-height:125%;font-family:sans-serif;letter-spacing:0px;word-spacing:0px;fill:#b3b3b3;fill-opacity:1;stroke:#000000;stroke-width:0.840064;stroke-linecap:butt;stroke-linejoin:round;stroke-miterlimit:4;stroke-dasharray:none;stroke-dashoffset:0;stroke-opacity:1"
         sodipodi:type="star"
         d="m 395.48223,1093.1241 5.58135,9.6672 -5.58135,9.6671 -11.1627,0 -5.58135,-9.6671 5.58135,-9.6672 z" />
      <path
         sodipodi:type="star"
         style="font-style:normal;font-weight:normal;font-size:medium;line-height:125%;font-family:sans-serif;letter-spacing:0px;word-spacing:0px;fill:#b3b3b3;fill-opacity:1;stroke:#000000;stroke-width:0.840064;stroke-linecap:butt;stroke-linejoin:round;stroke-miterlimit:4;stroke-dasharray:none;stroke-dashoffset:0;stroke-opacity:1"
         id="path36"
         sodipodi:sides="6"
         sodipodi:cx="389.90088"
         sodipodi:cy="1102.7913"
         sodipodi:r1="11.162703"
         sodipodi:r2="9.6671848"
         sodipodi:arg1="-1.0471976"
         sodipodi:arg2="-0.52359878"
         inkscape:flatsided="true"
         inkscape:rounded="0"
         inkscape:randomized="0"
         transform="matrix(2.7483711,1.5875102,-1.5868525,2.7497865,786.75032,-2674.3444)"
         d="m 395.48223,1093.1241 5.58135,9.6672 -5.58135,9.6671 -11.1627,0 -5.58135,-9.6671 5.58135,-9.6672 z" />
      <path
         transform="matrix(2.7483711,1.5875102,-1.5868525,2.7497865,820.27835,-2732.4436)"
         inkscape:randomized="0"
         inkscape:rounded="0"
         inkscape:flatsided="true"
         sodipodi:arg2="-0.52359878"
         sodipodi:arg1="-1.0471976"
         sodipodi:r2="9.6671848"
         sodipodi:r1="11.162703"
         sodipodi:cy="1102.7913"
         sodipodi:cx="389.90088"
         sodipodi:sides="6"
         id="path42"
         style="font-style:normal;font-weight:normal;font-size:medium;line-height:125%;font-family:sans-serif;font-variation-settings:normal;letter-spacing:0px;word-spacing:0px;opacity:1;vector-effect:none;fill:#b3b3b3;fill-opacity:1;stroke:#000000;stroke-width:0.840064;stroke-linecap:butt;stroke-linejoin:round;stroke-miterlimit:4;stroke-dasharray:none;stroke-dashoffset:0;stroke-opacity:1;stop-color:#000000;stop-opacity:1"
         sodipodi:type="star"
         d="m 395.48223,1093.1241 5.58135,9.6672 -5.58135,9.6671 -11.1627,0 -5.58135,-9.6671 5.58135,-9.6672 z" />
      <path
         transform="matrix(2.7483711,1.5875102,-1.5868525,2.7497865,853.67132,-2674.2328)"
         inkscape:randomized="0"
         inkscape:rounded="0"
         inkscape:flatsided="true"
         sodipodi:arg2="-0.52359878"
         sodipodi:arg1="-1.0471976"
         sodipodi:r2="9.6671848"
         sodipodi:r1="11.162703"
         sodipodi:cy="1102.7913"
         sodipodi:cx="389.90088"
         sodipodi:sides="6"
         id="path72"
         style="font-style:normal;font-weight:normal;font-size:medium;line-height:125%;font-family:sans-serif;letter-spacing:0px;word-spacing:0px;fill:#b3b3b3;fill-opacity:1;stroke:#000000;stroke-width:0.840064;stroke-linecap:butt;stroke-linejoin:round;stroke-miterlimit:4;stroke-dasharray:none;stroke-dashoffset:0;stroke-opacity:1"
         sodipodi:type="star"
         d="m 395.48223,1093.1241 5.58135,9.6672 -5.58135,9.6671 -11.1627,0 -5.58135,-9.6671 5.58135,-9.6672 z" />
      <path
         sodipodi:type="star"
         style="font-style:normal;font-weight:normal;font-size:medium;line-height:125%;font-family:sans-serif;letter-spacing:0px;word-spacing:0px;fill:#b3b3b3;fill-opacity:1;stroke:#000000;stroke-width:0.840064;stroke-linecap:butt;stroke-linejoin:round;stroke-miterlimit:4;stroke-dasharray:none;stroke-dashoffset:0;stroke-opacity:1"
         id="path74"
         sodipodi:sides="6"
         sodipodi:cx="389.90088"
         sodipodi:cy="1102.7913"
         sodipodi:r1="11.162703"
         sodipodi:r2="9.6671848"
         sodipodi:arg1="-1.0471976"
         sodipodi:arg2="-0.52359878"
         inkscape:flatsided="true"
         inkscape:rounded="0"
         inkscape:randomized="0"
         transform="matrix(2.7483711,1.5875102,-1.5868525,2.7497865,887.19935,-2732.332)"
         d="m 395.48223,1093.1241 5.58135,9.6672 -5.58135,9.6671 -11.1627,0 -5.58135,-9.6671 5.58135,-9.6672 z" />
      <path
         sodipodi:type="star"
         style="font-style:normal;font-weight:normal;font-size:medium;line-height:125%;font-family:sans-serif;letter-spacing:0px;word-spacing:0px;fill:#b3b3b3;fill-opacity:1;stroke:#000000;stroke-width:0.840064;stroke-linecap:butt;stroke-linejoin:round;stroke-miterlimit:4;stroke-dasharray:none;stroke-dashoffset:0;stroke-opacity:1"
         id="path88"
         sodipodi:sides="6"
         sodipodi:cx="389.90088"
         sodipodi:cy="1102.7913"
         sodipodi:r1="11.162703"
         sodipodi:r2="9.6671848"
         sodipodi:arg1="-1.0471976"
         sodipodi:arg2="-0.52359878"
         inkscape:flatsided="true"
         inkscape:rounded="0"
         inkscape:randomized="0"
         transform="matrix(2.7483711,1.5875102,-1.5868525,2.7497865,752.56252,-2732.9823)"
         d="m 395.48223,1093.1241 5.58135,9.6672 -5.58135,9.6671 -11.1627,0 -5.58135,-9.6671 5.58135,-9.6672 z" />
      <path
         transform="matrix(2.7483711,1.5875102,-1.5868525,2.7497865,786.09056,-2791.0815)"
         inkscape:randomized="0"
         inkscape:rounded="0"
         inkscape:flatsided="true"
         sodipodi:arg2="-0.52359878"
         sodipodi:arg1="-1.0471976"
         sodipodi:r2="9.6671848"
         sodipodi:r1="11.162703"
         sodipodi:cy="1102.7913"
         sodipodi:cx="389.90088"
         sodipodi:sides="6"
         id="path90"
         style="font-style:normal;font-weight:normal;font-size:medium;line-height:125%;font-family:sans-serif;font-variation-settings:normal;letter-spacing:0px;word-spacing:0px;opacity:1;vector-effect:none;fill:#b3b3b3;fill-opacity:1;stroke:#000000;stroke-width:0.840064;stroke-linecap:butt;stroke-linejoin:round;stroke-miterlimit:4;stroke-dasharray:none;stroke-dashoffset:0;stroke-opacity:1;stop-color:#000000;stop-opacity:1"
         sodipodi:type="star"
         d="m 395.48223,1093.1241 5.58135,9.6672 -5.58135,9.6671 -11.1627,0 -5.58135,-9.6671 5.58135,-9.6672 z" />
      <path
         style="fill:#4d4d4d;fill-opacity:1;stroke:none;stroke-width:1;stroke-opacity:1"
         inkscape:connector-curvature="0"
         d="m 208.47861,900.55938 c -2.22264,0 -3.82116,1.17598 -4.74439,2.65328 -0.82568,1.32093 -1.16919,2.85327 -1.2362,4.19553 -2.51963,1.24563 -5.31091,2.5018 -7.55821,3.78609 -1.17886,0.67386 -2.20664,1.35136 -2.98028,2.0795 -0.77362,0.72814 -1.34444,1.54827 -1.34444,2.51536 0,0.4117 0.20121,0.74703 0.42725,0.99332 0.22694,0.24679 0.49837,0.43748 0.80771,0.61594 0.61865,0.35667 1.39859,0.6541 2.25657,0.91181 1.27459,0.38233 2.70202,0.66677 3.94316,0.78813 -1.23449,2.12757 -2.87737,4.08119 -4.31747,5.95312 -1.66427,2.1639 -3.11722,4.23895 -3.11722,6.5441 0,0.32912 -0.008,0.58633 0.0262,0.84479 0.0292,0.25978 0.10346,0.5803 0.36301,0.83601 0.25968,0.25451 0.57764,0.32416 0.83659,0.35221 0.25892,0.0282 0.51987,0.0282 0.85453,0.0282 h 9.18216 c 0.66654,0 1.15462,0.042 1.6567,-0.28186 0.50215,-0.32266 0.68525,-0.76347 1.043,-1.42227 h 0.008 l 0.008,-0.0289 c 0,0 0.80039,-1.62746 1.75538,-3.24268 0.47744,-0.80708 0.99583,-1.61133 1.44671,-2.18103 0.22589,-0.28495 0.43664,-0.51097 0.58858,-0.63854 0.0465,-0.0364 0.0678,-0.0464 0.0975,-0.0649 0.0299,0.0289 0.0509,0.0289 0.0975,0.0649 0.15182,0.12732 0.36305,0.35328 0.58858,0.63854 0.45087,0.5697 0.96924,1.37395 1.44671,2.18103 0.9549,1.61522 1.75538,3.24268 1.75538,3.24268 l 0.008,0.0289 h 0.008 c 0.35776,0.6588 0.53918,1.09704 1.03801,1.42051 0.49871,0.32334 0.98576,0.28494 1.6429,0.28494 h 9.22259 c 0.32927,0 0.5861,0 0.84326,-0.0282 0.2571,-0.0282 0.5761,-0.0987 0.83315,-0.35691 0.25682,-0.25978 0.32794,-0.57598 0.3564,-0.83318 0.0292,-0.25451 0.026,-0.51379 0.026,-0.84341 0,-2.3049 -1.45295,-4.3797 -3.11724,-6.5436 -1.44,-1.87212 -3.08288,-3.82587 -4.31744,-5.95338 1.24116,-0.12211 2.66861,-0.40573 3.94314,-0.78819 0.85796,-0.25972 1.63793,-0.55482 2.25656,-0.91174 0.30935,-0.1767 0.58102,-0.36966 0.80758,-0.61569 0.22667,-0.24673 0.4274,-0.58188 0.4274,-0.99364 0,-0.96708 -0.57082,-1.78696 -1.34442,-2.51535 -0.77368,-0.72783 -1.80144,-1.40558 -2.98025,-2.07944 -2.24736,-1.28423 -5.03859,-2.54027 -7.55827,-3.78616 -0.0671,-1.3422 -0.41058,-2.87459 -1.23617,-4.19552 -0.92324,-1.4773 -2.52174,-2.65328 -4.7444,-2.65328 z"
         id="path5096-9" />
      <path
         id="path75"
         d="m 107.71326,843.78058 c -2.22264,0 -3.82116,1.17598 -4.74439,2.65328 -0.82568,1.32093 -1.16919,2.85327 -1.2362,4.19553 -2.519636,1.24563 -5.310916,2.5018 -7.558216,3.78609 -1.17886,0.67386 -2.20664,1.35136 -2.98028,2.0795 -0.77362,0.72814 -1.34444,1.54827 -1.34444,2.51536 0,0.4117 0.20121,0.74703 0.42725,0.99332 0.22694,0.24679 0.49837,0.43748 0.80771,0.61594 0.61865,0.35667 1.39859,0.6541 2.25657,0.91181 1.27459,0.38233 2.70202,0.66677 3.94316,0.78813 -1.23449,2.12757 -2.87737,4.08119 -4.31747,5.95312 -1.66427,2.1639 -3.11722,4.23895 -3.11722,6.5441 0,0.32912 -0.008,0.58633 0.0262,0.84479 0.0292,0.25978 0.10346,0.5803 0.36301,0.83601 0.25968,0.25451 0.57764,0.32416 0.83659,0.35221 0.25892,0.0282 0.51987,0.0282 0.85453,0.0282 h 9.182166 c 0.66654,0 1.15462,0.042 1.6567,-0.28186 0.50215,-0.32266 0.68525,-0.76347 1.043,-1.42227 h 0.008 l 0.008,-0.0289 c 0,0 0.80039,-1.62746 1.75538,-3.24268 0.47744,-0.80708 0.99583,-1.61133 1.44671,-2.18103 0.22589,-0.28495 0.43664,-0.51097 0.58858,-0.63854 0.0465,-0.0364 0.0678,-0.0464 0.0975,-0.0649 0.0299,0.0289 0.0509,0.0289 0.0975,0.0649 0.15182,0.12732 0.36305,0.35328 0.58858,0.63854 0.45087,0.5697 0.96924,1.37395 1.44671,2.18103 0.9549,1.61522 1.75538,3.24268 1.75538,3.24268 l 0.008,0.0289 h 0.008 c 0.35776,0.6588 0.53918,1.09704 1.03801,1.42051 0.49871,0.32334 0.98576,0.28494 1.6429,0.28494 h 9.22259 c 0.32927,0 0.5861,0 0.84326,-0.0282 0.2571,-0.0282 0.5761,-0.0987 0.83315,-0.35691 0.25682,-0.25978 0.32794,-0.57598 0.3564,-0.83318 0.0292,-0.25451 0.026,-0.51379 0.026,-0.84341 0,-2.3049 -1.45295,-4.3797 -3.11724,-6.5436 -1.44,-1.87212 -3.08288,-3.82587 -4.31744,-5.95338 1.24116,-0.12211 2.66861,-0.40573 3.94314,-0.78819 0.85796,-0.25972 1.63793,-0.55482 2.25656,-0.91174 0.30935,-0.1767 0.58102,-0.36966 0.80758,-0.61569 0.22667,-0.24673 0.4274,-0.58188 0.4274,-0.99364 0,-0.96708 -0.57082,-1.78696 -1.34442,-2.51535 -0.77368,-0.72783 -1.80144,-1.40558 -2.98025,-2.07944 -2.24736,-1.28423 -5.03859,-2.54027 -7.55827,-3.78616 -0.0671,-1.3422 -0.41058,-2.87459 -1.23617,-4.19552 -0.92324,-1.4773 -2.52174,-2.65328 -4.7444,-2.65328 z"
         inkscape:connector-curvature="0"
         style="fill:#4d4d4d;fill-opacity:1;stroke:none;stroke-width:1;stroke-opacity:1" />
      <path
         style="fill:#4d4d4d;fill-opacity:1;stroke:none;stroke-width:1;stroke-opacity:1"
         inkscape:connector-curvature="0"
         d="m 108.37302,960.51768 c -2.22264,0 -3.82116,1.17598 -4.74439,2.65328 -0.82568,1.32093 -1.16919,2.85327 -1.2362,4.19553 -2.519638,1.24563 -5.310918,2.5018 -7.558218,3.78609 -1.17886,0.67386 -2.20664,1.35136 -2.98028,2.0795 -0.77362,0.72814 -1.34444,1.54827 -1.34444,2.51536 0,0.4117 0.20121,0.74703 0.42725,0.99332 0.22694,0.24679 0.49837,0.43748 0.80771,0.61594 0.61865,0.35667 1.39859,0.6541 2.25657,0.91181 1.27459,0.38233 2.70202,0.66677 3.94316,0.78813 -1.23449,2.12757 -2.87737,4.08119 -4.31747,5.95312 -1.66427,2.1639 -3.11722,4.23895 -3.11722,6.5441 0,0.32912 -0.008,0.58633 0.0262,0.84479 0.0292,0.25978 0.10346,0.5803 0.36301,0.83601 0.25968,0.25451 0.57764,0.32416 0.83659,0.35221 0.25892,0.0282 0.51987,0.0282 0.85453,0.0282 h 9.182168 c 0.66654,0 1.15462,0.042 1.6567,-0.28186 0.50215,-0.32266 0.68525,-0.76347 1.043,-1.42227 h 0.008 l 0.008,-0.0289 c 0,0 0.80039,-1.62746 1.75538,-3.24268 0.47744,-0.80708 0.99583,-1.61133 1.44671,-2.18103 0.22589,-0.28495 0.43664,-0.51097 0.58858,-0.63854 0.0465,-0.0364 0.0678,-0.0464 0.0975,-0.0649 0.0299,0.0289 0.0509,0.0289 0.0975,0.0649 0.15182,0.12732 0.36305,0.35328 0.58858,0.63854 0.45087,0.5697 0.96924,1.37395 1.44671,2.18103 0.9549,1.61522 1.75538,3.24268 1.75538,3.24268 l 0.008,0.0289 h 0.008 c 0.35776,0.6588 0.53918,1.09704 1.03801,1.42051 0.49871,0.32334 0.98576,0.28494 1.6429,0.28494 h 9.22259 c 0.32927,0 0.5861,0 0.84326,-0.0282 0.2571,-0.0282 0.5761,-0.0987 0.83315,-0.35691 0.25682,-0.25978 0.32794,-0.57598 0.3564,-0.83318 0.0292,-0.25451 0.026,-0.51379 0.026,-0.84341 0,-2.3049 -1.45295,-4.3797 -3.11724,-6.5436 -1.44,-1.87212 -3.08288,-3.82587 -4.31744,-5.95338 1.24116,-0.12211 2.66861,-0.40573 3.94314,-0.78819 0.85796,-0.25972 1.63793,-0.55482 2.25656,-0.91174 0.30935,-0.1767 0.58102,-0.36966 0.80758,-0.61569 0.22667,-0.24673 0.4274,-0.58188 0.4274,-0.99364 0,-0.96708 -0.57082,-1.78696 -1.34442,-2.51535 -0.77368,-0.72783 -1.80144,-1.40558 -2.98025,-2.07944 -2.24736,-1.28423 -5.03859,-2.54027 -7.55827,-3.78616 -0.0671,-1.3422 -0.41058,-2.87459 -1.23617,-4.19552 -0.92324,-1.4773 -2.52174,-2.65328 -4.7444,-2.65328 z"
         id="path77" />
    </g>
    <g
       style="stroke-width:1.08835"
       transform="matrix(0.91924627,0,0,0.91840422,-129.62184,22.588794)"
       id="g957">
      <path
         inkscape:connector-curvature="0"
         id="path6427"
         style="font-style:normal;font-variant:normal;font-weight:normal;font-stretch:normal;font-size:11.25px;line-height:110%;font-family:'Archivo Narrow';-inkscape-font-specification:'Archivo Narrow';letter-spacing:0px;word-spacing:0px;fill:#000000;fill-opacity:1;stroke:none;stroke-width:7.18257px;stroke-linecap:butt;stroke-linejoin:miter;stroke-opacity:1"
         d="m 555.14612,969.86542 q 0,1.6325 -1.1241,2.8147 -1.1242,1.1822 -2.75419,1.4636 h -20.90896 q -1.57381,-0.2818 -2.75414,-1.4636 -1.12414,-1.1822 -1.12414,-2.8147 v -3.0399 q 0,-2.2517 -0.33725,-3.9405 -0.28108,-1.6888 -1.18035,-3.6591 -0.89932,-1.9704 -2.58553,-4.6161 -1.68621,-2.6458 -4.38414,-6.699 -3.03518,-4.6161 -5.22725,-8.10635 -2.13587,-3.54651 -3.54104,-6.64264 -1.34896,-3.09613 -2.02345,-6.07972 -0.61822,-3.03986 -0.61822,-6.64264 0,-4.67246 1.18033,-9.00706 1.23656,-4.3346 3.48484,-8.10636 2.24828,-3.77167 5.33965,-6.81154 3.14759,-3.09611 6.91346,-5.29164 3.82207,-2.19543 8.20621,-3.37764 4.44036,-1.23846 9.16174,-1.23846 4.66517,0 8.99307,1.23846 4.32799,1.18221 8.15002,3.37764 3.82211,2.19553 6.96964,5.29164 3.14761,3.03987 5.39592,6.81154 2.30448,3.77176 3.54104,8.10636 1.23657,4.3346 1.23657,9.00706 0,3.32127 -0.73059,6.41749 -0.67431,3.09613 -2.13586,6.36113 -1.40508,3.20876 -3.59722,6.81165 -2.13586,3.60277 -5.00241,7.82488 -2.6979,3.9968 -4.38416,6.5863 -1.68616,2.5895 -2.64174,4.5598 -0.89941,1.914 -1.23646,3.6028 -0.2814,1.6888 -0.2814,3.9406 v 3.3213 z m 0,16.0437 q 0,0.7881 -0.11255,1.3511 -0.0511,0.2255 -0.0511,0.4499 -0.2251,0.619 -0.2251,1.4074 0,0.788 0.2251,1.2383 0,0.1128 0.0511,0.3382 0.11255,0.4499 0.11255,1.1822 0,0.9572 -0.28138,1.6325 -0.22511,0.67541 -0.50547,1.12601 -0.33767,0.5626 -0.78684,0.8444 -0.50547,0.2818 -1.06795,0.5626 -0.50545,0.2818 -0.73056,0.2818 -0.28139,0 -0.73058,0.2819 -0.4492,0.3371 -0.78685,0.788 l -2.02341,3.60277 q -0.33726,0.4499 -0.95549,0.7881 -0.61823,0.3945 -1.12413,0.619 h -10.51071 q -0.56204,-0.2255 -1.18033,-0.619 -0.61823,-0.3382 -0.89931,-0.7881 l -2.24828,-3.60277 q -0.28108,-0.4499 -0.6745,-0.788 -0.39343,-0.2819 -0.6745,-0.2819 -0.33726,0 -0.84314,-0.2818 -0.44959,-0.2818 -0.95547,-0.5626 -0.44971,-0.2818 -0.78685,-0.8444 -0.28108,-0.4499 -0.50587,-1.12601 -0.22481,-0.6753 -0.22481,-1.6325 0,-0.9571 0.0563,-1.1822 0,-0.2254 0.0563,-0.3382 0.1124,-0.2818 0.16862,-0.619 0.0563,-0.2818 0.0563,-0.6189 0,-0.3382 -0.0563,-0.7317 -0.0563,-0.3372 -0.16862,-0.6754 -0.0563,-0.2254 -0.0563,-0.4499 -0.0563,-0.2818 -0.0563,-1.3511 0,-1.0135 0.22481,-1.8014 0.28108,-0.788 0.56204,-1.2947 0.33726,-0.619 0.84314,-1.0696 l 2.36068,-1.2384 h 20.45936 l 2.36066,1.2384 q 0.45021,0.4499 0.84312,1.0696 0.2814,0.5063 0.56175,1.2947 0.28139,0.7881 0.28139,1.8014 z" />
      <circle
         style="fill:none;stroke:#000000;stroke-width:10.8835;stroke-miterlimit:4;stroke-dasharray:none;stroke-opacity:1;stop-color:#000000"
         id="path127"
         cx="541.25"
         cy="944.32642"
         r="70.535713" />
      <rect
         style="fill:#000000;fill-opacity:1;stroke:none;stroke-width:10.8835;stroke-miterlimit:4;stroke-dasharray:none;stroke-opacity:1;stop-color:#000000"
         id="rect952"
         width="15"
         height="144.64285"
         x="-287.84616"
         y="977.25592"
         transform="rotate(-45)" />
    </g>
  </g>
</svg>
