<?xml version="1.0" encoding="UTF-8" standalone="no"?>
<svg
   xmlns:dc="http://purl.org/dc/elements/1.1/"
   xmlns:cc="http://creativecommons.org/ns#"
   xmlns:rdf="http://www.w3.org/1999/02/22-rdf-syntax-ns#"
   xmlns:svg="http://www.w3.org/2000/svg"
   xmlns="http://www.w3.org/2000/svg"
   xmlns:sodipodi="http://sodipodi.sourceforge.net/DTD/sodipodi-0.dtd"
   xmlns:inkscape="http://www.inkscape.org/namespaces/inkscape"
   sodipodi:docname="oops-re-locked.svg"
   inkscape:version="1.0 (4035a4fb49, 2020-05-01)"
   version="1.1"
   id="svg5199"
   viewBox="0 0 450.00001 325"
   height="325"
   width="450">
  <defs
     id="defs5201">
    <marker
       inkscape:isstock="true"
       style="overflow:visible"
       id="marker15102"
       refX="0"
       refY="0"
       orient="auto"
       inkscape:stockid="Arrow2Lend">
      <path
         transform="matrix(-1.1,0,0,-1.1,-1.1,0)"
         d="M 8.7185878,4.0337352 -2.2072895,0.01601326 8.7185884,-4.0017078 c -1.7454984,2.3720609 -1.7354408,5.6174519 -6e-7,8.035443 z"
         style="fill:#000000;fill-opacity:1;fill-rule:evenodd;stroke:#000000;stroke-width:0.625;stroke-linejoin:round;stroke-opacity:1"
         id="path15104"
         inkscape:connector-curvature="0" />
    </marker>
    <inkscape:perspective
       sodipodi:type="inkscape:persp3d"
       inkscape:vp_x="18.016193 : 750.09004 : 1"
       inkscape:vp_y="506.3456 : 47.252995 : 0"
       inkscape:vp_z="58.843036 : 71.472236 : 1"
       inkscape:persp3d-origin="-41.513532 : 520.19242 : 1"
       id="perspective4718" />
    <marker
       inkscape:stockid="Arrow2Lend"
       orient="auto"
       refY="0"
       refX="0"
       id="Arrow2Lend"
       style="overflow:visible"
       inkscape:isstock="true">
      <path
         id="path5089"
         style="fill:#ffffff;fill-opacity:1;fill-rule:evenodd;stroke:#ffffff;stroke-width:0.625;stroke-linejoin:round;stroke-opacity:1"
         d="M 8.7185878,4.0337352 -2.2072895,0.01601326 8.7185884,-4.0017078 c -1.7454984,2.3720609 -1.7354408,5.6174519 -6e-7,8.035443 z"
         transform="matrix(-1.1,0,0,-1.1,-1.1,0)"
         inkscape:connector-curvature="0" />
    </marker>
    <marker
       inkscape:stockid="Arrow1Mend"
       orient="auto"
       refY="0"
       refX="0"
       id="Arrow1Mend"
       style="overflow:visible"
       inkscape:isstock="true">
      <path
         id="path5077"
         d="M 0,0 5,-5 -12.5,0 5,5 0,0 Z"
         style="fill:#000000;fill-opacity:1;fill-rule:evenodd;stroke:#000000;stroke-width:1pt;stroke-opacity:1"
         transform="matrix(-0.4,0,0,-0.4,-4,0)"
         inkscape:connector-curvature="0" />
    </marker>
    <filter
       inkscape:label="Linen Canvas"
       inkscape:menu="Bumps"
       inkscape:menu-tooltip="Painting canvas emboss effect"
       style="color-interpolation-filters:sRGB"
       id="filter5738">
      <feTurbulence
         numOctaves="5"
         baseFrequency="0.4"
         id="feTurbulence5740" />
      <feConvolveMatrix
         order="5 5"
         kernelMatrix="-4 0 0 0 -4 0 -2 0 -2 0 0 0 -10 0 0 0 -2 0 -2 0 -4 0 0 0 -4 "
         targetX="2"
         targetY="2"
         id="feConvolveMatrix5742" />
      <feConvolveMatrix
         order="3 3"
         kernelMatrix="2 0 2 0 -5 0 2 0 2 "
         targetX="1"
         targetY="1"
         id="feConvolveMatrix5744" />
      <feColorMatrix
         type="saturate"
         result="result1"
         id="feColorMatrix5746" />
      <feComposite
         k4="0"
         in2="SourceGraphic"
         operator="arithmetic"
         k1="1.5"
         k2="0.5"
         k3="0.5"
         result="result2"
         id="feComposite5748" />
      <feBlend
         mode="normal"
         in2="result1"
         result="result4"
         id="feBlend5750" />
      <feColorMatrix
         type="luminanceToAlpha"
         id="feColorMatrix5752" />
      <feDiffuseLighting
         surfaceScale="10"
         diffuseConstant="1"
         result="result3"
         id="feDiffuseLighting5754">
        <feDistantLight
           azimuth="180"
           elevation="35"
           id="feDistantLight5756" />
      </feDiffuseLighting>
      <feComposite
         k4="0"
         k2="0"
         in2="result4"
         operator="arithmetic"
         k1="1.5"
         k3="0.5"
         result="result5"
         id="feComposite5758" />
      <feBlend
         mode="normal"
         in2="result3"
         result="result6"
         id="feBlend5760" />
      <feComposite
         in2="SourceGraphic"
         operator="in"
         id="feComposite5762" />
    </filter>
    <filter
       inkscape:label="Linen Canvas"
       inkscape:menu="Bumps"
       inkscape:menu-tooltip="Painting canvas emboss effect"
       style="color-interpolation-filters:sRGB"
       id="filter5738-7">
      <feTurbulence
         numOctaves="5"
         baseFrequency="0.4"
         id="feTurbulence5740-2" />
      <feConvolveMatrix
         order="5 5"
         kernelMatrix="-4 0 0 0 -4 0 -2 0 -2 0 0 0 -10 0 0 0 -2 0 -2 0 -4 0 0 0 -4 "
         targetX="2"
         targetY="2"
         id="feConvolveMatrix5742-7" />
      <feConvolveMatrix
         order="3 3"
         kernelMatrix="2 0 2 0 -5 0 2 0 2 "
         targetX="1"
         targetY="1"
         id="feConvolveMatrix5744-6" />
      <feColorMatrix
         type="saturate"
         result="result1"
         id="feColorMatrix5746-7" />
      <feComposite
         k4="0"
         in2="SourceGraphic"
         operator="arithmetic"
         k1="1.5"
         k2="0.5"
         k3="0.5"
         result="result2"
         id="feComposite5748-0" />
      <feBlend
         mode="normal"
         in2="result1"
         result="result4"
         id="feBlend5750-0" />
      <feColorMatrix
         type="luminanceToAlpha"
         id="feColorMatrix5752-6" />
      <feDiffuseLighting
         surfaceScale="10"
         diffuseConstant="1"
         result="result3"
         id="feDiffuseLighting5754-4">
        <feDistantLight
           azimuth="180"
           elevation="35"
           id="feDistantLight5756-8" />
      </feDiffuseLighting>
      <feComposite
         k4="0"
         k2="0"
         in2="result4"
         operator="arithmetic"
         k1="1.5"
         k3="0.5"
         result="result5"
         id="feComposite5758-6" />
      <feBlend
         mode="normal"
         in2="result3"
         result="result6"
         id="feBlend5760-9" />
      <feComposite
         in2="SourceGraphic"
         operator="in"
         id="feComposite5762-2" />
    </filter>
    <marker
       inkscape:isstock="true"
       style="overflow:visible"
       id="marker15102-9"
       refX="0"
       refY="0"
       orient="auto"
       inkscape:stockid="Arrow2Lend">
      <path
         transform="matrix(-1.1,0,0,-1.1,-1.1,0)"
         d="M 8.7185878,4.0337352 -2.2072895,0.01601326 8.7185884,-4.0017078 c -1.7454984,2.3720609 -1.7354408,5.6174519 -6e-7,8.035443 z"
         style="fill:#000000;fill-opacity:1;fill-rule:evenodd;stroke:#000000;stroke-width:0.625;stroke-linejoin:round;stroke-opacity:1"
         id="path15104-2"
         inkscape:connector-curvature="0" />
    </marker>
    <filter
       inkscape:menu="Textures"
       inkscape:label="Watercolor"
       inkscape:menu-tooltip="Cloudy watercolor effect"
       height="2"
       y="-0.5"
       width="1.6"
       x="-0.30000001"
       style="color-interpolation-filters:sRGB"
       id="filter7274">
      <feGaussianBlur
         stdDeviation="15"
         result="result8"
         id="feGaussianBlur7276" />
      <feTurbulence
         seed="27"
         result="result7"
         type="fractalNoise"
         numOctaves="5"
         baseFrequency="0.025"
         id="feTurbulence7278" />
      <feComposite
         in2="result8"
         result="result6"
         operator="over"
         in="result7"
         id="feComposite7280" />
      <feColorMatrix
         result="result9"
         values="1 0 0 0 0 0 1 0 0 0 0 0 1 0 0 0 0 0 6 -4 "
         id="feColorMatrix7282" />
      <feDisplacementMap
         in="result7"
         in2="result9"
         xChannelSelector="A"
         yChannelSelector="A"
         scale="45"
         result="result4"
         id="feDisplacementMap7284" />
      <feComposite
         in2="result4"
         result="result2"
         operator="in"
         in="result8"
         id="feComposite7286" />
      <feComposite
         result="fbSourceGraphic"
         in="result2"
         operator="in"
         in2="result9"
         id="feComposite7288" />
      <feComposite
         operator="arithmetic"
         k2="1"
         k1="0.5"
         in="fbSourceGraphic"
         in2="fbSourceGraphic"
         result="result91"
         id="feComposite7290"
         k3="0"
         k4="0" />
      <feBlend
         in="fbSourceGraphic"
         mode="multiply"
         in2="result91"
         id="feBlend7292" />
    </filter>
    <filter
       x="-0.25"
       width="1.5"
       y="-0.25"
       height="1.5"
       inkscape:menu-tooltip="Thick acrylic paint texture with high texture depth"
       inkscape:menu="Bumps"
       inkscape:label="Thick Acrylic"
       style="color-interpolation-filters:sRGB"
       id="filter7314">
      <feGaussianBlur
         result="result9"
         in="SourceGraphic"
         stdDeviation="1"
         id="feGaussianBlur7316" />
      <feTurbulence
         baseFrequency="0.02"
         numOctaves="5"
         type="fractalNoise"
         result="result7"
         seed="0"
         id="feTurbulence7318" />
      <feColorMatrix
         values="1 0 0 0 0 0 1 0 0 0 0 0 1 0 0 0 0 0 1 0 "
         result="result5"
         id="feColorMatrix7320" />
      <feComposite
         in="result9"
         operator="out"
         result="result6"
         in2="result5"
         id="feComposite7322" />
      <feGaussianBlur
         stdDeviation="0.5"
         result="result11"
         id="feGaussianBlur7324" />
      <feDisplacementMap
         result="result4"
         scale="100"
         yChannelSelector="G"
         xChannelSelector="A"
         in2="result11"
         in="result5"
         id="feDisplacementMap7326" />
      <feComposite
         in="result9"
         operator="in"
         result="result2"
         in2="result4"
         id="feComposite7328" />
      <feComposite
         in2="SourceGraphic"
         operator="in"
         result="fbSourceGraphic"
         id="feComposite7330" />
      <feBlend
         mode="multiply"
         result="fbSourceGraphic"
         in2="fbSourceGraphic"
         id="feBlend7332" />
      <feDiffuseLighting
         diffuseConstant="0.69999999"
         surfaceScale="10"
         in="fbSourceGraphic"
         result="result10"
         id="feDiffuseLighting7334">
        <feDistantLight
           elevation="25"
           azimuth="235"
           id="feDistantLight7336" />
      </feDiffuseLighting>
      <feComposite
         operator="in"
         result="result2"
         in="result10"
         in2="fbSourceGraphic"
         id="feComposite7338" />
      <feComposite
         k3="1"
         k2="1"
         operator="arithmetic"
         result="result4"
         in="fbSourceGraphic"
         in2="result2"
         id="feComposite7340"
         k1="0"
         k4="0" />
    </filter>
    <filter
       inkscape:menu-tooltip="3D warped, fibered wood texture"
       inkscape:menu="Materials"
       inkscape:label="3D Wood"
       height="1.5"
       y="-0.25"
       width="1.5"
       x="-0.25"
       style="color-interpolation-filters:sRGB"
       id="filter7426">
      <feGaussianBlur
         result="result8"
         stdDeviation="4"
         id="feGaussianBlur7428" />
      <feTurbulence
         baseFrequency="0.025 0.2"
         numOctaves="3"
         type="fractalNoise"
         result="result7"
         seed="22"
         id="feTurbulence7430" />
      <feComposite
         in2="result8"
         operator="in"
         in="SourceGraphic"
         result="result6"
         id="feComposite7432" />
      <feDisplacementMap
         in2="result6"
         result="result4"
         scale="50"
         yChannelSelector="A"
         xChannelSelector="A"
         in="result7"
         id="feDisplacementMap7434" />
      <feFlood
         flood-color="rgb(230,211,138)"
         flood-opacity="1"
         id="feFlood7436" />
      <feComposite
         in2="result4"
         operator="atop"
         result="result2"
         id="feComposite7438" />
      <feComposite
         in2="SourceGraphic"
         operator="atop"
         in="result2"
         result="result9"
         id="feComposite7440" />
      <feGaussianBlur
         result="result0"
         in="result9"
         stdDeviation="8"
         id="feGaussianBlur7442" />
      <feSpecularLighting
         specularExponent="15"
         specularConstant="0.69999999"
         surfaceScale="5"
         lighting-color="#ffffff"
         result="result1"
         in="result0"
         id="feSpecularLighting7444">
        <feDistantLight
           azimuth="235"
           elevation="50"
           id="feDistantLight7446" />
      </feSpecularLighting>
      <feComposite
         operator="in"
         result="result2"
         in="result1"
         in2="result9"
         id="feComposite7448" />
      <feComposite
         k3="0.5"
         k2="0.5"
         operator="arithmetic"
         result="result4"
         in="result9"
         in2="result2"
         id="feComposite7450"
         k1="0"
         k4="0" />
      <feConvolveMatrix
         order="3 3"
         kernelMatrix="2 0 0 0 2 0 0 0 -2 "
         targetX="2"
         targetY="2"
         result="result10"
         id="feConvolveMatrix7452" />
      <feBlend
         mode="multiply"
         in="result10"
         in2="result10"
         id="feBlend7454" />
    </filter>
  </defs>
  <sodipodi:namedview
     inkscape:document-rotation="0"
     inkscape:window-maximized="1"
     inkscape:window-y="-8"
     inkscape:window-x="-8"
     inkscape:window-height="1017"
     inkscape:window-width="1920"
     borderlayer="true"
     units="px"
     showgrid="false"
     inkscape:current-layer="layer1"
     inkscape:document-units="px"
     inkscape:cy="-12.414848"
     inkscape:cx="29.302407"
     inkscape:zoom="1.4"
     inkscape:pageshadow="2"
     inkscape:pageopacity="0.0"
     borderopacity="1.0"
     bordercolor="#666666"
     pagecolor="#ffffff"
     id="base" />
  <metadata
     id="metadata5204">
    <rdf:RDF>
      <cc:Work
         rdf:about="">
        <dc:format>image/svg+xml</dc:format>
        <dc:type
           rdf:resource="http://purl.org/dc/dcmitype/StillImage" />
        <dc:title />
      </cc:Work>
    </rdf:RDF>
  </metadata>
  <g
     transform="translate(0,-727.36216)"
     id="layer1"
     inkscape:groupmode="layer"
     inkscape:label="Layer 1">
    <text
       xml:space="preserve"
       style="font-style:normal;font-weight:normal;font-size:40px;line-height:125%;font-family:sans-serif;letter-spacing:0px;word-spacing:0px;fill:#000000;fill-opacity:1;stroke:none;stroke-width:1px;stroke-linecap:butt;stroke-linejoin:miter;stroke-opacity:1"
       x="-1913.8258"
       y="423.44562"
       id="text3485" />
    <flowRoot
       transform="translate(-2307.7853,-452.1399)"
       xml:space="preserve"
       id="flowRoot3619"
       style="font-style:normal;font-weight:normal;font-size:40px;line-height:125%;font-family:sans-serif;letter-spacing:0px;word-spacing:0px;fill:#000000;fill-opacity:1;stroke:none;stroke-width:1px;stroke-linecap:butt;stroke-linejoin:miter;stroke-opacity:1"><flowRegion
         id="flowRegion3621"><rect
           id="rect3623"
           width="817.21338"
           height="236.37569"
           x="-47.477169"
           y="400.07092" /></flowRegion><flowPara
         id="flowPara3625" /></flowRoot>
    <text
       id="text10591"
       y="35.720421"
       x="-2203.2432"
       style="font-style:normal;font-weight:normal;font-size:40px;line-height:125%;font-family:sans-serif;letter-spacing:0px;word-spacing:0px;fill:#000000;fill-opacity:1;stroke:none;stroke-width:1px;stroke-linecap:butt;stroke-linejoin:miter;stroke-opacity:1"
       xml:space="preserve" />
    <text
       xml:space="preserve"
       style="font-style:normal;font-weight:normal;font-size:18.9276px;line-height:125%;font-family:sans-serif;letter-spacing:0px;word-spacing:0px;fill:#000000;fill-opacity:1;stroke:none;stroke-width:1px;stroke-linecap:butt;stroke-linejoin:miter;stroke-opacity:1"
       x="-2077.6914"
       y="515.85962"
       id="text4751"
       transform="scale(0.99983363,1.0001664)" />
    <text
       transform="scale(0.99983363,1.0001664)"
       id="text4776"
       y="549.18909"
       x="-2077.6914"
       style="font-style:normal;font-weight:normal;font-size:18.9276px;line-height:125%;font-family:sans-serif;letter-spacing:0px;word-spacing:0px;fill:#000000;fill-opacity:1;stroke:none;stroke-width:1px;stroke-linecap:butt;stroke-linejoin:miter;stroke-opacity:1"
       xml:space="preserve" />
    <text
       xml:space="preserve"
       style="font-style:normal;font-weight:normal;font-size:10.668px;line-height:125%;font-family:sans-serif;letter-spacing:0px;word-spacing:0px;fill:#000000;fill-opacity:1;stroke:none;stroke-width:1px;stroke-linecap:butt;stroke-linejoin:miter;stroke-opacity:1"
       x="-2211.1172"
       y="345.59982"
       id="text4701"
       transform="scale(0.99983363,1.0001664)" />
    <path
       inkscape:transform-center-y="-4.3939826"
       inkscape:transform-center-x="4.2169534"
       sodipodi:nodetypes="cccccccc"
       inkscape:connector-curvature="0"
       id="path15147"
       d="m 259.40384,889.86216 -31.59989,-25.45916 -2.5e-4,13.93645 h -34.64518 l 9e-5,24.21652 h 34.64518 l -5e-5,12.76535 z"
       style="fill:#000000;fill-opacity:1;stroke:none;stroke-width:1.101;stroke-linecap:round;stroke-linejoin:round;stroke-miterlimit:4;stroke-dasharray:none;stroke-dashoffset:0;stroke-opacity:1" />
    <g
       style="stroke-width:0.739058"
       transform="matrix(1.3491685,0,0,1.3569894,-28.175515,-317.67121)"
       id="g245">
      <path
         d="m 412.98949,1103.3571 5.58135,9.6672 -5.58135,9.6672 -11.1627,0 -5.58135,-9.6672 5.58135,-9.6672 z"
         inkscape:randomized="0"
         inkscape:rounded="0"
         inkscape:flatsided="true"
         sodipodi:arg2="-0.52359878"
         sodipodi:arg1="-1.0471976"
         sodipodi:r2="9.6671848"
         sodipodi:r1="11.162703"
         sodipodi:cy="1113.0243"
         sodipodi:cx="407.40814"
         sodipodi:sides="6"
         id="path123"
         style="font-style:normal;font-weight:normal;font-size:medium;line-height:125%;font-family:sans-serif;letter-spacing:0px;word-spacing:0px;fill:#b3b3b3;fill-opacity:1;stroke:#000000;stroke-width:0.662394;stroke-linecap:butt;stroke-linejoin:round;stroke-miterlimit:4;stroke-dasharray:none;stroke-dashoffset:0;stroke-opacity:1"
         sodipodi:type="star"
         transform="matrix(5.4359331,3.1384374,-3.1396578,5.4380469,1569.9032,-6441.4412)" />
      <g
         style="stroke-width:0.739058"
         transform="translate(198.71261,1.9457012)"
         id="g135">
        <path
           id="path125"
           d="m 62.531553,863.97365 c -3.225267,0 -5.545067,1.70436 -6.884834,3.84495 -1.198087,1.914 -1.69651,4.13445 -1.793661,6.07877 -3.656462,1.80562 -7.706984,3.62551 -10.96807,5.48643 -1.710826,0.9764 -3.202259,1.95862 -4.324859,3.01397 -1.122622,1.05491 -1.951109,2.24319 -1.951109,3.64468 0,0.59592 0.291739,1.08211 0.620167,1.43896 0.329046,0.3613 0.722934,0.63338 1.17199,0.89164 0.897792,0.51519 2.029674,0.94875 3.274497,1.32165 1.84983,0.55445 3.921099,0.96659 5.722115,1.14279 -1.791145,3.0822 -4.175372,5.91329 -6.265067,8.62617 -2.415184,3.13528 -4.523736,6.14211 -4.523736,9.48214 0,0.47772 -0.01436,0.84927 0.03672,1.22352 0.04421,0.37022 0.149767,0.84169 0.526727,1.21147 0.376984,0.37023 0.838238,0.46656 1.214009,0.51473 0.375908,0.0624 0.754504,0 1.240105,0 H 52.95098 c 0.967371,0 1.675733,0.0624 2.404283,-0.4059 0.728705,-0.46656 0.994497,-1.10621 1.513555,-2.06075 h 0.01436 l 0.0143,-0.0624 c 0,0 1.161381,-2.35783 2.54713,-4.69871 0.692869,-1.16999 1.445154,-2.33551 2.099556,-3.1607 0.327427,-0.40591 0.633458,-0.74 0.854012,-0.92512 0.06785,-0.0624 0.09877,-0.0624 0.141537,-0.0936 0.04421,0 0.07372,0 0.141537,0.0936 0.220542,0.18735 0.526734,0.50939 0.854,0.92512 0.654391,0.82519 1.406533,1.99071 2.099413,3.1607 1.385749,2.34088 2.547411,4.69871 2.547411,4.69871 l 0.01436,0.0624 h 0.01435 c 0.519258,0.95454 0.782368,1.58928 1.506349,2.05852 0.723529,0.46702 1.430432,0.4059 2.38394,0.4059 h 13.383402 c 0.477778,0 0.850466,0 1.223726,-0.0624 0.37314,-0.0624 0.836019,-0.13827 1.209005,-0.52054 0.372682,-0.37021 0.475838,-0.835 0.517102,-1.20746 0.04284,-0.37021 0.03672,-0.74491 0.03672,-1.22218 0,-3.33957 -2.108552,-6.3473 -4.523736,-9.48213 -2.089828,-2.71243 -4.473613,-5.54441 -6.265227,-8.62617 1.801193,-0.17842 3.872456,-0.58789 5.722125,-1.14234 1.244973,-0.37022 2.37686,-0.80379 3.274503,-1.3212 0.449068,-0.25871 0.843237,-0.53615 1.17199,-0.89211 0.328726,-0.36129 0.620362,-0.84303 0.620362,-1.4394 0,-1.40149 -0.828504,-2.58978 -1.95111,-3.64422 -1.122605,-1.05581 -2.614198,-2.03757 -4.324864,-3.01353 -3.26108,-1.86092 -7.311613,-3.68126 -10.968212,-5.48686 -0.09724,-1.94434 -0.595735,-4.16522 -1.793668,-6.07922 -1.339755,-2.14015 -3.659424,-3.84407 -6.884833,-3.84407 z"
           inkscape:connector-curvature="0"
           style="fill:#4d4d4d;fill-opacity:1;stroke:none;stroke-width:2.21717;stroke-miterlimit:4;stroke-dasharray:none;stroke-opacity:1" />
        <g
           id="g133"
           transform="matrix(0.41102029,0,0,0.41198463,95.462853,549.78175)"
           style="stroke-width:1.79601">
          <circle
             transform="scale(-1,1)"
             r="62.46114"
             cy="820.74567"
             cx="-60.567062"
             id="circle127"
             style="fill:#000000;stroke:none;stroke-width:7.47868;stroke-miterlimit:4;stroke-dasharray:none;stroke-opacity:1" />
          <g
             transform="matrix(2.1538472,0,0,2.1538472,-12.373758,-1378.2198)"
             id="g131"
             style="font-style:normal;font-weight:normal;font-size:48.9798px;line-height:125%;font-family:sans-serif;letter-spacing:0px;word-spacing:0px;fill:#ffffff;fill-opacity:1;stroke:none;stroke-width:0.889442px;stroke-linecap:butt;stroke-linejoin:miter;stroke-opacity:1">
            <path
               style="fill:#ffffff;stroke-width:0.889442px"
               inkscape:connector-curvature="0"
               id="path129"
               d="m 45.225419,1016.332 q 0.669646,0 1.291459,0.2631 0.621814,0.263 1.076216,0.7174 0.478318,0.4305 0.741393,1.0284 0.286991,0.574 0.286991,1.2197 v 18.0087 q 0,0.6936 -0.263075,1.2915 -0.239159,0.5979 -0.693561,1.0523 -0.454402,0.4783 -1.0523,0.7414 -0.597898,0.263 -1.267543,0.263 H 22.457477 q -0.693561,0 -1.315374,-0.263 -0.597898,-0.2631 -1.0523,-0.7414 -0.454402,-0.4544 -0.717477,-1.0523 -0.263075,-0.5979 -0.263075,-1.2915 v -18.0087 q 0,-0.6457 0.263075,-1.2197 0.28699,-0.5979 0.741393,-1.0284 0.478318,-0.4544 1.076215,-0.7174 0.597898,-0.2631 1.267543,-0.2631 v -3.8744 q 0,-2.4394 0.406571,-4.544 0.40657,-2.1046 1.626281,-3.6352 1.243627,-1.5546 3.467807,-2.4155 2.248095,-0.8849 5.907228,-0.8849 3.68305,0 5.907229,0.8849 2.248095,0.8609 3.44389,2.4155 1.219712,1.5306 1.602366,3.6352 0.40657,2.1046 0.40657,4.544 z m -17.889097,-3.8744 v 3.7548 h 13.058085 v -3.7548 q 0,-1.8176 -0.143496,-3.0612 -0.143495,-1.2676 -0.789225,-2.0329 -0.621813,-0.7653 -1.937188,-1.1001 -1.315375,-0.3348 -3.659134,-0.3348 -2.319842,0 -3.635217,0.3348 -1.291459,0.3348 -1.937189,1.1001 -0.645729,0.7653 -0.81314,2.0329 -0.143496,1.2436 -0.143496,3.0612 z" />
          </g>
        </g>
      </g>
    </g>
    <g
       style="stroke-width:0.739058"
       transform="matrix(1.3491685,0,0,1.3569894,-28.175515,-317.67121)"
       id="g236">
      <path
         transform="matrix(5.4359331,3.1384374,-3.1396578,5.4380469,1367.046,-6441.4412)"
         sodipodi:type="star"
         style="font-style:normal;font-weight:normal;font-size:medium;line-height:125%;font-family:sans-serif;letter-spacing:0px;word-spacing:0px;fill:#b3b3b3;fill-opacity:1;stroke:#000000;stroke-width:0.662394;stroke-linecap:butt;stroke-linejoin:round;stroke-miterlimit:4;stroke-dasharray:none;stroke-dashoffset:0;stroke-opacity:1"
         id="path5092"
         sodipodi:sides="6"
         sodipodi:cx="407.40814"
         sodipodi:cy="1113.0243"
         sodipodi:r1="11.162703"
         sodipodi:r2="9.6671848"
         sodipodi:arg1="-1.0471976"
         sodipodi:arg2="-0.52359878"
         inkscape:flatsided="true"
         inkscape:rounded="0"
         inkscape:randomized="0"
         d="m 412.98949,1103.3571 5.58135,9.6672 -5.58135,9.6672 -11.1627,0 -5.58135,-9.6672 5.58135,-9.6672 z" />
      <path
         id="path4157"
         d="m 58.387025,865.91935 c -3.225267,0 -5.545067,1.70436 -6.884834,3.84495 -1.198087,1.914 -1.69651,4.13445 -1.793661,6.07877 -3.656462,1.80562 -7.706984,3.62551 -10.96807,5.48643 -1.710826,0.9764 -3.202259,1.95862 -4.324859,3.01397 -1.122622,1.05491 -1.951109,2.24319 -1.951109,3.64468 0,0.59592 0.291739,1.08211 0.620167,1.43896 0.329046,0.3613 0.722934,0.63338 1.17199,0.89164 0.897792,0.51519 2.029674,0.94875 3.274497,1.32165 1.84983,0.55445 3.921099,0.96659 5.722115,1.14279 -1.791145,3.0822 -4.175372,5.91329 -6.265067,8.62617 -2.415184,3.13528 -4.523736,6.14211 -4.523736,9.48214 0,0.47772 -0.01436,0.84927 0.03672,1.22352 0.04421,0.37022 0.149767,0.84169 0.526727,1.21147 0.376984,0.37023 0.838238,0.46656 1.214009,0.51473 0.375908,0.0624 0.754504,0 1.240105,0 h 13.324433 c 0.967371,0 1.675733,0.0624 2.404283,-0.4059 0.728705,-0.46656 0.994497,-1.10621 1.513555,-2.06075 h 0.01436 l 0.0143,-0.0624 c 0,0 1.161381,-2.35783 2.54713,-4.69871 0.692869,-1.16999 1.445154,-2.33551 2.099556,-3.1607 0.327427,-0.40591 0.633458,-0.74 0.854012,-0.92512 0.06785,-0.0624 0.09877,-0.0624 0.141537,-0.0936 0.04421,0 0.07372,0 0.141537,0.0936 0.220542,0.18735 0.526734,0.50939 0.854,0.92512 0.654391,0.82519 1.406533,1.99071 2.099413,3.1607 1.385749,2.34088 2.547411,4.69871 2.547411,4.69871 l 0.01436,0.0624 h 0.01435 c 0.519258,0.95454 0.782368,1.58928 1.506349,2.05852 0.723529,0.46702 1.430432,0.4059 2.38394,0.4059 h 13.383402 c 0.477778,0 0.850466,0 1.223726,-0.0624 0.37314,-0.0624 0.836019,-0.13827 1.209005,-0.52054 0.372682,-0.37021 0.475838,-0.835 0.517102,-1.20746 0.04284,-0.37021 0.03672,-0.74491 0.03672,-1.22218 0,-3.33957 -2.108552,-6.3473 -4.523736,-9.48213 -2.089828,-2.71243 -4.473613,-5.54441 -6.265227,-8.62617 1.801193,-0.17842 3.872456,-0.58789 5.722125,-1.14234 1.244973,-0.37022 2.37686,-0.80379 3.274503,-1.3212 0.449068,-0.25871 0.843237,-0.53615 1.17199,-0.89211 0.328726,-0.36129 0.620362,-0.84303 0.620362,-1.4394 0,-1.40149 -0.828504,-2.58978 -1.95111,-3.64422 -1.122605,-1.05581 -2.614198,-2.03757 -4.324864,-3.01353 -3.26108,-1.86092 -7.311613,-3.68126 -10.968212,-5.48686 -0.09724,-1.94434 -0.595735,-4.16522 -1.793668,-6.07922 -1.339755,-2.14015 -3.659424,-3.84407 -6.884833,-3.84407 z"
         inkscape:connector-curvature="0"
         style="fill:#4d4d4d;fill-opacity:1;stroke:none;stroke-width:2.21717;stroke-miterlimit:4;stroke-dasharray:none;stroke-opacity:1" />
      <g
         style="stroke-width:0.739058"
         id="g229">
        <ellipse
           ry="25.73303"
           rx="25.672796"
           transform="scale(-1,1)"
           cy="889.86206"
           cx="-116.21262"
           id="path4151"
           style="fill:#000000;stroke:none;stroke-width:3.07749;stroke-miterlimit:4;stroke-dasharray:none;stroke-opacity:1" />
        <path
           id="path3353"
           d="m 108.30122,874.04991 c -1.2186,0 -2.27161,0.10053 -3.15893,0.30167 -0.88733,0.18926 -1.64452,0.46726 -2.27156,0.83409 -0.62706,0.35485 -1.13575,0.78666 -1.52618,1.2955 -0.39042,0.50866 -0.69217,1.07654 -0.90513,1.70364 -0.22479,0.62701 -0.37262,1.30729 -0.443607,2.04085 -0.08284,0.73347 -0.124283,1.50259 -0.124283,2.30707 v 1.2244 h 3.53163 v -1.2244 c 0,-0.89916 0.0414,-1.65639 0.12421,-2.27161 0.071,-0.61522 0.26621,-1.11208 0.58565,-1.4907 0.31944,-0.37853 0.81041,-0.65068 1.47295,-0.81636 0.65071,-0.17748 1.55581,-0.26613 2.71525,-0.26613 1.14761,0 2.0467,0.0887 2.6974,0.26613 0.63888,0.16568 1.11805,0.43783 1.43749,0.81636 0.31945,0.37862 0.52062,0.87548 0.60343,1.4907 0.071,0.61522 0.10644,1.37245 0.10644,2.27161 h -0.007 v 4.79151 c -0.33127,0 -0.64482,0.0707 -0.94059,0.21293 -0.29578,0.13023 -0.56192,0.31355 -0.79854,0.55025 -0.22479,0.22472 -0.40823,0.49103 -0.5502,0.79863 -0.13014,0.29573 -0.19519,0.60928 -0.19519,0.94046 v 13.34544 c 0,0.34306 0.0651,0.6685 0.19519,0.9761 0.13014,0.29573 0.30764,0.5561 0.53243,0.78091 0.22479,0.2365 0.48508,0.41992 0.78086,0.55006 0.3076,0.13013 0.63294,0.1952 0.97604,0.1952 h 16.98343 c 0.33127,0 0.64481,-0.0651 0.94059,-0.1952 0.29577,-0.13014 0.55606,-0.31356 0.78085,-0.55006 0.22479,-0.22481 0.39636,-0.48518 0.51466,-0.78091 0.13015,-0.3076 0.19521,-0.63304 0.19521,-0.9761 v -13.34544 c 0,-0.33118 -0.0651,-0.64473 -0.19521,-0.94046 -0.1183,-0.3076 -0.28987,-0.57391 -0.51466,-0.79863 -0.22479,-0.2367 -0.48508,-0.42002 -0.78085,-0.55025 -0.29578,-0.14192 -0.60932,-0.21293 -0.94059,-0.21293 h -13.3557 v -4.79151 c 0,-0.80448 -0.0414,-1.5736 -0.1242,-2.30707 -0.0828,-0.73356 -0.23667,-1.41384 -0.46145,-2.04085 -0.22479,-0.6271 -0.5324,-1.19498 -0.92283,-1.70364 -0.40225,-0.50884 -0.91689,-0.94065 -1.54393,-1.2955 -0.62704,-0.36683 -1.38424,-0.64483 -2.27156,-0.83409 -0.88733,-0.20114 -1.93433,-0.30167 -3.1411,-0.30167 z"
           style="font-style:normal;font-weight:normal;font-size:medium;line-height:125%;font-family:sans-serif;font-variation-settings:normal;letter-spacing:0px;word-spacing:0px;opacity:1;vector-effect:none;fill:#ffffff;fill-opacity:1;stroke:none;stroke-width:0.788324px;stroke-linecap:butt;stroke-linejoin:miter;stroke-miterlimit:4;stroke-dasharray:none;stroke-dashoffset:0;stroke-opacity:1;stop-color:#000000;stop-opacity:1"
           inkscape:connector-curvature="0" />
      </g>
    </g>
  </g>
</svg>
