<?xml version="1.0" encoding="UTF-8" standalone="no"?>
<svg
   xmlns:dc="http://purl.org/dc/elements/1.1/"
   xmlns:cc="http://creativecommons.org/ns#"
   xmlns:rdf="http://www.w3.org/1999/02/22-rdf-syntax-ns#"
   xmlns:svg="http://www.w3.org/2000/svg"
   xmlns="http://www.w3.org/2000/svg"
   xmlns:sodipodi="http://sodipodi.sourceforge.net/DTD/sodipodi-0.dtd"
   xmlns:inkscape="http://www.inkscape.org/namespaces/inkscape"
   width="450"
   height="325"
   viewBox="0 0 450.00001 325"
   id="svg5199"
   version="1.1"
   inkscape:version="1.0.1 (3bc2e813f5, 2020-09-07)"
   sodipodi:docname="overwhelmed.svg">
  <defs
     id="defs5201" />
  <sodipodi:namedview
     id="base"
     pagecolor="#ffffff"
     bordercolor="#666666"
     borderopacity="1.0"
     inkscape:pageopacity="0.0"
     inkscape:pageshadow="2"
     inkscape:zoom="1.979899"
     inkscape:cx="317.25042"
     inkscape:cy="268.69031"
     inkscape:document-units="px"
     inkscape:current-layer="layer1"
     showgrid="false"
     units="px"
     borderlayer="true"
     inkscape:window-width="1280"
     inkscape:window-height="961"
     inkscape:window-x="1912"
     inkscape:window-y="-8"
     inkscape:window-maximized="1"
     inkscape:document-rotation="0"
     inkscape:snap-bbox="true"
     showguides="true"
     inkscape:guide-bbox="true"
     inkscape:snap-nodes="false"
     inkscape:snap-others="false" />
  <metadata
     id="metadata5204">
    <rdf:RDF>
      <cc:Work
         rdf:about="">
        <dc:format>image/svg+xml</dc:format>
        <dc:type
           rdf:resource="http://purl.org/dc/dcmitype/StillImage" />
        <dc:title />
      </cc:Work>
    </rdf:RDF>
  </metadata>
  <g
     inkscape:label="Layer 1"
     inkscape:groupmode="layer"
     id="layer1"
     transform="translate(0,-727.36216)">
    <path
       style="fill:#000000;fill-opacity:1;stroke:none;stroke-width:1.101;stroke-linecap:round;stroke-linejoin:round;stroke-miterlimit:4;stroke-dasharray:none;stroke-dashoffset:0;stroke-opacity:1"
       d="m 300.5328,857.53201 -25.18436,-20.14547 -2.1e-4,11.02774 h -27.61139 l 9e-5,19.16213 h 27.61138 l -5e-5,10.10107 z"
       id="path15147-5"
       inkscape:connector-curvature="0"
       sodipodi:nodetypes="cccccccc"
       inkscape:transform-center-x="3.36081"
       inkscape:transform-center-y="-3.4768648" />
    <g
       style="stroke-width:1.08835"
       transform="matrix(0.91924627,0,0,0.91840422,-121.47993,-9.7413678)"
       id="g957">
      <path
         inkscape:connector-curvature="0"
         id="path6427"
         style="font-style:normal;font-variant:normal;font-weight:normal;font-stretch:normal;font-size:11.25px;line-height:110%;font-family:'Archivo Narrow';-inkscape-font-specification:'Archivo Narrow';letter-spacing:0px;word-spacing:0px;fill:#000000;fill-opacity:1;stroke:none;stroke-width:7.18257px;stroke-linecap:butt;stroke-linejoin:miter;stroke-opacity:1"
         d="m 555.14612,969.86542 q 0,1.6325 -1.1241,2.8147 -1.1242,1.1822 -2.75419,1.4636 h -20.90896 q -1.57381,-0.2818 -2.75414,-1.4636 -1.12414,-1.1822 -1.12414,-2.8147 v -3.0399 q 0,-2.2517 -0.33725,-3.9405 -0.28108,-1.6888 -1.18035,-3.6591 -0.89932,-1.9704 -2.58553,-4.6161 -1.68621,-2.6458 -4.38414,-6.699 -3.03518,-4.6161 -5.22725,-8.10635 -2.13587,-3.54651 -3.54104,-6.64264 -1.34896,-3.09613 -2.02345,-6.07972 -0.61822,-3.03986 -0.61822,-6.64264 0,-4.67246 1.18033,-9.00706 1.23656,-4.3346 3.48484,-8.10636 2.24828,-3.77167 5.33965,-6.81154 3.14759,-3.09611 6.91346,-5.29164 3.82207,-2.19543 8.20621,-3.37764 4.44036,-1.23846 9.16174,-1.23846 4.66517,0 8.99307,1.23846 4.32799,1.18221 8.15002,3.37764 3.82211,2.19553 6.96964,5.29164 3.14761,3.03987 5.39592,6.81154 2.30448,3.77176 3.54104,8.10636 1.23657,4.3346 1.23657,9.00706 0,3.32127 -0.73059,6.41749 -0.67431,3.09613 -2.13586,6.36113 -1.40508,3.20876 -3.59722,6.81165 -2.13586,3.60277 -5.00241,7.82488 -2.6979,3.9968 -4.38416,6.5863 -1.68616,2.5895 -2.64174,4.5598 -0.89941,1.914 -1.23646,3.6028 -0.2814,1.6888 -0.2814,3.9406 v 3.3213 z m 0,16.0437 q 0,0.7881 -0.11255,1.3511 -0.0511,0.2255 -0.0511,0.4499 -0.2251,0.619 -0.2251,1.4074 0,0.788 0.2251,1.2383 0,0.1128 0.0511,0.3382 0.11255,0.4499 0.11255,1.1822 0,0.9572 -0.28138,1.6325 -0.22511,0.67541 -0.50547,1.12601 -0.33767,0.5626 -0.78684,0.8444 -0.50547,0.2818 -1.06795,0.5626 -0.50545,0.2818 -0.73056,0.2818 -0.28139,0 -0.73058,0.2819 -0.4492,0.3371 -0.78685,0.788 l -2.02341,3.60277 q -0.33726,0.4499 -0.95549,0.7881 -0.61823,0.3945 -1.12413,0.619 h -10.51071 q -0.56204,-0.2255 -1.18033,-0.619 -0.61823,-0.3382 -0.89931,-0.7881 l -2.24828,-3.60277 q -0.28108,-0.4499 -0.6745,-0.788 -0.39343,-0.2819 -0.6745,-0.2819 -0.33726,0 -0.84314,-0.2818 -0.44959,-0.2818 -0.95547,-0.5626 -0.44971,-0.2818 -0.78685,-0.8444 -0.28108,-0.4499 -0.50587,-1.12601 -0.22481,-0.6753 -0.22481,-1.6325 0,-0.9571 0.0563,-1.1822 0,-0.2254 0.0563,-0.3382 0.1124,-0.2818 0.16862,-0.619 0.0563,-0.2818 0.0563,-0.6189 0,-0.3382 -0.0563,-0.7317 -0.0563,-0.3372 -0.16862,-0.6754 -0.0563,-0.2254 -0.0563,-0.4499 -0.0563,-0.2818 -0.0563,-1.3511 0,-1.0135 0.22481,-1.8014 0.28108,-0.788 0.56204,-1.2947 0.33726,-0.619 0.84314,-1.0696 l 2.36068,-1.2384 h 20.45936 l 2.36066,1.2384 q 0.45021,0.4499 0.84312,1.0696 0.2814,0.5063 0.56175,1.2947 0.28139,0.7881 0.28139,1.8014 z" />
      <circle
         style="fill:none;stroke:#000000;stroke-width:10.8835;stroke-miterlimit:4;stroke-dasharray:none;stroke-opacity:1;stop-color:#000000"
         id="path127"
         cx="541.25"
         cy="944.32642"
         r="70.535713" />
      <rect
         style="fill:#000000;fill-opacity:1;stroke:none;stroke-width:10.8835;stroke-miterlimit:4;stroke-dasharray:none;stroke-opacity:1;stop-color:#000000"
         id="rect952"
         width="15"
         height="144.64285"
         x="-287.84616"
         y="977.25592"
         transform="rotate(-45)" />
    </g>
    <path
       transform="matrix(4.8753288,2.8096854,-2.8149138,4.8667626,1323.2231,-5655.4039)"
       inkscape:randomized="0"
       inkscape:rounded="0"
       inkscape:flatsided="true"
       sodipodi:arg2="-0.52359878"
       sodipodi:arg1="-1.0471976"
       sodipodi:r2="9.6671848"
       sodipodi:r1="11.162703"
       sodipodi:cy="1102.7913"
       sodipodi:cx="389.90088"
       sodipodi:sides="6"
       id="path5084-7"
       style="font-style:normal;font-weight:normal;font-size:medium;line-height:125%;font-family:sans-serif;letter-spacing:0px;word-spacing:0px;fill:#b3b3b3;fill-opacity:1;stroke:#000000;stroke-width:0.724785;stroke-linecap:butt;stroke-linejoin:round;stroke-miterlimit:4;stroke-dasharray:none;stroke-dashoffset:0;stroke-opacity:1"
       sodipodi:type="star"
       d="m 395.48223,1093.1241 5.58135,9.6672 -5.58135,9.6671 -11.1627,0 -5.58135,-9.6671 5.58135,-9.6672 z" />
    <path
       inkscape:randomized="0"
       inkscape:rounded="0"
       inkscape:flatsided="true"
       sodipodi:arg2="-0.52359878"
       sodipodi:arg1="-1.0471976"
       sodipodi:r2="9.6671848"
       sodipodi:r1="11.162703"
       sodipodi:cy="1113.0243"
       sodipodi:cx="407.40814"
       sodipodi:sides="6"
       id="path5092-2"
       style="font-style:normal;font-weight:normal;font-size:medium;line-height:125%;font-family:sans-serif;letter-spacing:0px;word-spacing:0px;fill:#b3b3b3;fill-opacity:1;stroke:#000000;stroke-width:0.724785;stroke-linecap:butt;stroke-linejoin:round;stroke-miterlimit:4;stroke-dasharray:none;stroke-dashoffset:0;stroke-opacity:1"
       sodipodi:type="star"
       transform="matrix(4.8753288,2.8096854,-2.8149138,4.8667626,1324.0872,-5653.5679)"
       d="m 412.98949,1103.3571 5.58135,9.6672 -5.58135,9.6672 -11.1627,0 -5.58135,-9.6672 5.58135,-9.6672 z" />
    <path
       style="fill:#4d4d4d;fill-opacity:1;stroke:none;stroke-width:1;stroke-opacity:1"
       inkscape:connector-curvature="0"
       d="m 120.15759,776.49888 c -3.73927,0 -6.42855,1.97486 -7.98174,4.4557 -1.38909,2.21826 -1.96701,4.7916 -2.07975,7.04568 -4.2389,2.09176 -8.93483,4.20129 -12.715585,6.35803 -1.983265,1.13165 -3.71237,2.26939 -5.013891,3.49215 -1.301511,1.22279 -2.261833,2.60003 -2.261833,4.22402 0,0.69145 0.338494,1.25455 0.718786,1.66809 0.381791,0.41452 0.838428,0.73475 1.358853,1.0344 1.040783,0.59893 2.352935,1.09846 3.796364,1.5312 2.144303,0.64207 4.545756,1.11978 6.633796,1.32348 -2.07686,3.57288 -4.840762,6.8537 -7.263534,9.99726 -2.799889,3.63383 -5.244265,7.11849 -5.244265,10.98962 0,0.5527 -0.01342,0.98456 0.04405,1.41862 0.04906,0.43625 0.174052,0.97452 0.610715,1.40393 0.436885,0.42744 0.971797,0.54443 1.407449,0.59144 0.435582,0.0475 0.874598,0.0475 1.437612,0.0475 H 109.0523 c 1.12134,0 1.94247,0.0703 2.78715,-0.47331 0.84479,-0.5418 1.15284,-1.2821 1.7547,-2.3884 h 0.0134 l 0.0134,-0.0484 c 0,0 1.34654,-2.73302 2.95318,-5.44554 0.80322,-1.35534 1.67533,-2.70592 2.43387,-3.66259 0.38004,-0.47858 0.73458,-0.85807 0.99021,-1.07232 0.0782,-0.0607 0.11411,-0.0784 0.16398,-0.10907 0.0503,0.0484 0.0856,0.0484 0.164,0.10907 0.2554,0.2138 0.61076,0.59329 0.9902,1.07232 0.75852,0.95667 1.63059,2.30725 2.43388,3.66259 1.60648,2.71252 2.95317,5.44554 2.95317,5.44554 l 0.0134,0.0484 h 0.0134 c 0.60189,1.1063 0.90711,1.84229 1.74632,2.38541 0.839,0.54304 1.6584,0.47851 2.76395,0.47851 h 15.51567 c 0.55396,0 0.98604,0 1.41868,-0.0475 0.43253,-0.0475 0.96919,-0.16575 1.40164,-0.59937 0.43207,-0.43625 0.55172,-0.96715 0.5996,-1.39909 0.0491,-0.42745 0.0437,-0.86282 0.0437,-1.41643 0,-3.87067 -2.44436,-7.35491 -5.24431,-10.98869 -2.4226,-3.14395 -5.18649,-6.42494 -7.26347,-9.99764 2.08807,-0.20512 4.48955,-0.68141 6.63376,-1.32365 1.4434,-0.43617 2.7556,-0.93176 3.79635,-1.53112 0.52043,-0.29674 0.97748,-0.62076 1.35863,-1.03388 0.38135,-0.41442 0.71904,-0.97716 0.71904,-1.6686 0,-1.62408 -0.96031,-3.0009 -2.26178,-4.22411 -1.30161,-1.22224 -3.03068,-2.36041 -5.01384,-3.49206 -3.78087,-2.15665 -8.47672,-4.26592 -12.71571,-6.35812 -0.11284,-2.254 -0.69076,-4.82735 -2.07969,-7.0456 -1.55322,-2.48094 -4.24246,-4.4557 -7.98176,-4.4557 z"
       id="path5096-9" />
    <path
       transform="matrix(4.8753288,2.8096854,-2.8149138,4.8667626,1208.1965,-5653.5679)"
       sodipodi:type="star"
       style="font-style:normal;font-weight:normal;font-size:medium;line-height:125%;font-family:sans-serif;letter-spacing:0px;word-spacing:0px;fill:#b3b3b3;fill-opacity:1;stroke:#000000;stroke-width:0.724785;stroke-linecap:butt;stroke-linejoin:round;stroke-miterlimit:4;stroke-dasharray:none;stroke-dashoffset:0;stroke-opacity:1"
       id="path54"
       sodipodi:sides="6"
       sodipodi:cx="407.40814"
       sodipodi:cy="1113.0243"
       sodipodi:r1="11.162703"
       sodipodi:r2="9.6671848"
       sodipodi:arg1="-1.0471976"
       sodipodi:arg2="-0.52359878"
       inkscape:flatsided="true"
       inkscape:rounded="0"
       inkscape:randomized="0"
       d="m 412.98949,1103.3571 5.58135,9.6672 -5.58135,9.6672 -11.1627,0 -5.58135,-9.6672 5.58135,-9.6672 z" />
    <g
       transform="matrix(0.69500971,0,0,0.69500971,-151.71309,361.02192)"
       id="g5633">
      <circle
         style="fill:#000000;stroke:none;stroke-width:3;stroke-miterlimit:4;stroke-dasharray:none;stroke-opacity:1"
         id="circle5629"
         cx="400.71429"
         cy="928.07642"
         r="45" />
      <path
         id="path5631"
         d="m 400.71429,896.83247 c 2.83886,0 4.7227,1.41745 7.24972,2.82167 2.39517,1.33142 5.40596,2.47258 9.65199,1.60564 2.01501,2.01471 4.06221,4.02984 6.24535,5.39477 1.78649,1.11717 3.79413,1.78267 5.79661,1.46791 -0.57456,4.52203 -3.31964,8.94522 -6.18917,11.26062 -7.56742,-2.50856 -15.1538,-3.76346 -22.74019,-3.76346 -7.59333,0 -15.18652,1.25738 -22.7609,3.7705 -2.87253,-2.31334 -5.62208,-6.74108 -6.19708,-11.26766 2.00206,0.31435 4.00999,-0.35158 5.79662,-1.4675 2.18314,-1.36534 4.23006,-3.38047 6.24535,-5.39518 4.2456,0.86694 7.25695,-0.27299 9.65185,-1.60524 2.52742,-1.40504 4.41113,-2.82207 7.24985,-2.82207 z m 0.0149,2.64257 c -2.67865,0 -7.18755,3.62078 -7.18755,3.62078 0,0 2.86859,10.86397 7.18755,10.86397 4.31925,0 7.18795,-10.86397 7.18795,-10.86397 0,0 -4.50931,-3.62078 -7.18795,-3.62078 z m 0,18.56919 c 7.13628,0 14.27297,1.16721 21.42669,3.48055 0.29478,1.82156 -0.20407,3.17531 -1.27708,4.42689 -1.19771,1.3972 -3.20823,2.58344 -5.59112,3.47685 -4.76648,1.78723 -10.94734,2.42006 -14.55863,2.42006 -3.61115,0 -9.79173,-0.63283 -14.55794,-2.42006 -2.3833,-0.89341 -4.39341,-2.07924 -5.59113,-3.47685 -1.07338,-1.25158 -1.57242,-2.60493 -1.27749,-4.42689 7.15374,-2.31334 14.29043,-3.48055 21.42656,-3.48055 z m 23.41689,7.72835 c 1.32767,0.32263 3.64075,1.05141 4.05621,2.29805 1.13596,3.40734 -2.28717,8.62757 -4.87596,11.92075 0.71326,-2.97594 1.09777,-6.14133 1.09777,-9.42295 0,-1.63046 -0.0954,-3.23197 -0.27806,-4.79585 z m -46.83325,0 a 41.349104,41.364178 0 0 0 -0.27798,4.79544 c 0,3.28203 0.3844,6.44742 1.09777,9.42336 -2.58879,-3.29318 -6.01192,-8.51341 -4.87596,-11.92075 0.41534,-1.24664 2.72868,-1.97625 4.05594,-2.29805 z m 44.61372,2.59253 c 0.0409,0.72715 0.0641,1.46131 0.0641,2.20291 0,8.02908 -2.45081,15.27558 -6.34039,20.46106 -3.88946,5.18588 -9.15212,8.29129 -14.92119,8.29129 -5.7688,0 -11.03159,-3.10541 -14.92091,-8.29129 -3.88931,-5.18548 -6.33998,-12.43157 -6.33998,-20.46106 0,-0.7416 0.0235,-1.47576 0.0641,-2.20332 1.10856,1.03528 2.46239,1.87575 3.95205,2.57392 -0.57717,2.46142 0.0359,5.52258 1.63542,7.12159 2.94344,2.94328 9.54439,2.94328 12.48797,0 0.91165,-0.91201 1.30271,-2.36462 1.25116,-3.82261 0.66691,0 1.29766,0.0579 1.87048,0.0579 0.57297,0 1.20387,0 1.8709,-0.0579 -0.0517,1.45799 0.33937,2.9106 1.25117,3.82261 2.94358,2.94328 9.5444,2.94328 12.48785,0 1.59941,-1.59901 2.21258,-4.66017 1.6354,-7.12117 1.48965,-0.69818 2.8439,-1.53824 3.95205,-2.57393 z m -21.19736,15.93861 c -3.12193,4.99479 -9.3655,5.61935 -12.48742,5.61935 3.12178,2.49741 12.48728,2.49741 12.48728,0 0,2.49741 9.36605,2.49741 12.48798,0 -3.12193,0 -9.36591,-0.62456 -12.48798,-5.61935 z"
         style="fill:#ffffff;fill-opacity:1"
         inkscape:connector-curvature="0" />
    </g>
    <ellipse
       ry="31.211622"
       rx="31.202993"
       cy="907.42096"
       cx="179.04953"
       id="circle4163"
       style="fill:#000000;stroke:none;stroke-width:7.2473;stroke-miterlimit:4;stroke-dasharray:none;stroke-opacity:1" />
    <ellipse
       cy="907.02832"
       cx="-59.157166"
       id="path4151"
       style="fill:#000000;stroke:none;stroke-width:1.90589;stroke-miterlimit:4;stroke-dasharray:none;stroke-opacity:1"
       transform="scale(-1,1)"
       rx="31.330898"
       ry="31.339565" />
    <g
       id="g90"
       transform="matrix(0.89908067,0,0,0.89908067,-51.200673,246.75657)">
      <ellipse
         ry="34.495525"
         rx="34.485989"
         cy="844.51538"
         cx="294.5"
         id="ellipse86"
         style="fill:#000000;stroke:none;stroke-width:8.00982;stroke-miterlimit:4;stroke-dasharray:none;stroke-opacity:1" />
      <path
         inkscape:connector-curvature="0"
         style="font-variation-settings:normal;vector-effect:none;fill:#ffffff;fill-opacity:1;stroke-width:0.578048;stroke-linecap:butt;stroke-linejoin:miter;stroke-miterlimit:4;stroke-dasharray:none;stroke-dashoffset:0;stroke-opacity:1;stop-color:#000000"
         d="m 280.22612,822.8759 c -1.41214,-4.8e-4 -2.89804,0.20435 -4.46152,0.66067 a 0.9052249,0.90539552 0 0 0 -0.0138,0.0134 0.9052249,0.90539552 0 0 0 -0.0473,0.016 0.9052249,0.90539552 0 0 0 -0.0371,0.0134 0.9052249,0.90539552 0 0 0 -0.0447,0.0221 0.9052249,0.90539552 0 0 0 -0.0365,0.0184 0.9052249,0.90539552 0 0 0 -0.0441,0.0258 0.9052249,0.90539552 0 0 0 -0.0325,0.022 0.9052249,0.90539552 0 0 0 -0.0413,0.0295 0.9052249,0.90539552 0 0 0 -0.0308,0.0245 0.9052249,0.90539552 0 0 0 -0.0378,0.0344 0.9052249,0.90539552 0 0 0 -0.0283,0.027 0.9052249,0.90539552 0 0 0 -0.0353,0.0381 0.9052249,0.90539552 0 0 0 -0.0236,0.0282 0.9052249,0.90539552 0 0 0 -0.0325,0.0429 0.9052249,0.90539552 0 0 0 -0.0204,0.0294 0.9052249,0.90539552 0 0 0 -0.0269,0.0454 0.9052249,0.90539552 0 0 0 -0.0184,0.0331 0.9052249,0.90539552 0 0 0 -0.0222,0.0478 0.9052249,0.90539552 0 0 0 -0.0149,0.0355 0.9052249,0.90539552 0 0 0 -0.0169,0.0478 0.9052249,0.90539552 0 0 0 -0.0116,0.0368 0.9052249,0.90539552 0 0 0 -0.0162,0.0663 l -2.13366,10.67056 a 0.9052249,0.90539552 0 0 0 0.53599,1.01148 l 7.81571,3.2955 3.01297,15.45211 -11.10415,2.41244 a 0.9052249,0.90539552 0 0 0 -0.71465,0.87251 l -0.10115,7.28808 a 0.9052249,0.90539552 0 0 0 1.17918,0.87533 l 13.95647,-4.46141 2.2986,-0.44577 c 0.0169,0 0.0336,0 0.0505,0 0.94867,0 1.84209,-0.4519 2.46602,-1.18873 0.62347,-0.73599 0.94963,-1.69546 0.94868,-2.68365 v 0 c 5.7e-4,-0.62645 -0.13072,-1.24234 -0.38543,-1.7969 l -2.40819,-12.44402 11.98461,5.05302 a 0.9052249,0.90539552 0 0 0 0.0147,0.0134 0.9052249,0.90539552 0 0 0 0.052,0.0185 0.9052249,0.90539552 0 0 0 0.0333,0.0134 0.9052249,0.90539552 0 0 0 0.0518,0.0134 0.9052249,0.90539552 0 0 0 0.0397,0.0134 0.9052249,0.90539552 0 0 0 0.046,0.0134 0.9052249,0.90539552 0 0 0 0.0459,0.0134 0.9052249,0.90539552 0 0 0 0.0409,0 0.9052249,0.90539552 0 0 0 0.0515,0 0.9052249,0.90539552 0 0 0 0.0346,0 l 7.94748,-0.5033 a 0.9052249,0.90539552 0 0 0 0.75945,-0.51824 l 4.81408,-10.19327 h 7.6e-4 a 0.9052249,0.90539552 0 0 0 0.002,-0.0134 0.9052249,0.90539552 0 0 0 -0.52504,-1.25203 c -0.742,-0.40688 -1.50572,-0.69183 -2.28268,-0.87178 l -29.33643,-11.38457 a 0.9052249,0.90539552 0 0 0 -0.0765,-0.0258 c -1.26895,-0.36627 -2.60743,-0.57272 -4.01967,-0.57358 z m -2.51052,1.30797 a 0.9052249,0.90539552 0 0 1 0.35133,0.0686 l 27.70464,11.10601 a 0.90598726,0.90615802 0 0 1 0.54981,1.0283 0.9052249,0.90539552 0 0 0 -0.0674,0.1391 l -0.0797,0.19724 a 0.90598726,0.90615802 0 0 1 -1.0758,0.31795 l -27.70454,-11.10882 a 0.9052249,0.90539552 0 0 1 0.3217,-1.74846 z m 34.04675,12.23402 c 0.41925,0 0.83376,0.0478 1.24521,0.13334 l 1.40453,0.54512 -2.25544,4.77617 c 0.087,-0.38677 0.1313,-0.77046 0.1272,-1.12999 -0.009,-0.83202 -0.28015,-1.52016 -0.74752,-1.86437 -0.46738,-0.34444 -1.11372,-0.33169 -1.7509,0.0234 -0.15721,0.0883 -0.31492,0.19675 -0.46747,0.32174 0.0586,-0.0786 0.11336,-0.164 0.16075,-0.25624 0.13501,-0.26263 0.21419,-0.56708 0.21153,-0.83669 -0.003,-0.27011 -0.0901,-0.49961 -0.24422,-0.61664 -0.077,-0.0589 -0.1658,-0.0883 -0.26204,-0.0859 -0.0962,0 -0.20029,0.0307 -0.30072,0.0883 -0.20078,0.1153 -0.38877,0.33548 -0.52408,0.5986 -0.13502,0.26349 -0.2144,0.56682 -0.21124,0.83693 0.002,0.2701 0.0901,0.49973 0.24412,0.61676 0.15406,0.11653 0.3619,0.10908 0.56277,-0.0134 -0.3255,0.33941 -0.62375,0.7529 -0.86636,1.21216 -0.43908,0.83056 -0.68854,1.79151 -0.67891,2.62366 0.009,0.83228 0.28585,1.52312 0.75333,1.86756 0.46729,0.34444 1.10762,0.32861 1.7447,-0.0258 0.39811,-0.22226 0.78993,-0.57357 1.13488,-1.00854 l -0.80138,1.69645 -5.97924,0.38123 3.54972,-8.80531 c 1.39452,-0.73807 2.69395,-1.09723 3.95087,-1.08655 z m -28.40291,3.6354 1.52593,0.64349 2.83306,13.30034 c -0.28633,-0.0871 -0.58534,-0.13468 -0.89017,-0.13468 -0.25957,0 -0.51454,0.0355 -0.76115,0.0994 l -2.70767,-13.90839 z m 3.55926,1.50092 1.62149,0.68359 2.19159,11.32509 c -0.26032,-0.0723 -0.53017,-0.11042 -0.80488,-0.11042 -0.15657,0 -0.3112,0.0134 -0.46358,0.0368 l -2.54453,-11.93596 z m 3.0081,13.71567 c 0.36809,0 0.78687,0.18867 1.09312,0.55028 0.30634,0.36149 0.5177,0.94255 0.51685,1.50521 9.6e-4,0.56278 -0.21059,1.1436 -0.51674,1.50533 -0.14532,0.17161 -0.31598,0.30273 -0.49436,0.39473 l -0.58535,0.11281 c 0.20068,-0.50256 0.3034,-1.04853 0.30283,-1.6036 v 0 c 3.8e-4,-0.35964 -0.043,-0.71586 -0.12787,-1.05871 a 0.9052249,0.90539552 0 0 0 -0.0184,-0.21417 l -0.25309,-1.18726 c 0.0276,0 0.0556,-0.0134 0.0829,-0.0134 z m -3.09854,0.40982 c 0.36819,0 0.78707,0.18854 1.09341,0.55028 0.30627,0.36173 0.51742,0.94254 0.51665,1.50521 7.7e-4,0.5629 -0.21059,1.14372 -0.51674,1.50533 -0.30634,0.36174 -0.72513,0.55052 -1.09341,0.55052 -0.36809,0 -0.7845,-0.18891 -1.09076,-0.55052 -0.30624,-0.36149 -0.52007,-0.94243 -0.5193,-1.50533 -7.7e-4,-0.56267 0.21306,-1.14348 0.5193,-1.50521 0.30626,-0.36174 0.72267,-0.55028 1.09076,-0.55028 z m -3.28701,1.00928 c -0.0829,0.33929 -0.12541,0.6911 -0.12503,1.04621 v 0 c -9.6e-4,0.98843 0.32493,1.94778 0.9484,2.68389 0.0799,0.0932 0.16418,0.18387 0.25231,0.26851 l -10.34671,3.30752 0.0745,-5.31038 9.19652,-1.99819 z"
         id="path88" />
    </g>
    <g
       id="g98"
       transform="matrix(0.45480274,0,0,0.45480274,107.76035,621.25589)">
      <ellipse
         cy="846.05505"
         cx="148.9975"
         id="ellipse92"
         style="fill:#000000;stroke:none;stroke-width:4.16408;stroke-miterlimit:4;stroke-dasharray:none;stroke-opacity:1"
         transform="scale(-1,1)"
         rx="68.453377"
         ry="68.472313" />
      <g
         style="font-style:normal;font-weight:normal;font-size:48.9798px;line-height:125%;font-family:sans-serif;letter-spacing:0px;word-spacing:0px;fill:#ffffff;fill-opacity:1;stroke:none;stroke-width:0.889442px;stroke-linecap:butt;stroke-linejoin:miter;stroke-opacity:1"
         id="g96"
         transform="matrix(2.3410321,0,0,2.3601271,-228.2774,-1563.5115)">
        <path
           d="m 45.225419,1016.332 q 0.669646,0 1.291459,0.2631 0.621814,0.263 1.076216,0.7174 0.478318,0.4305 0.741393,1.0284 0.286991,0.574 0.286991,1.2197 v 18.0087 q 0,0.6936 -0.263075,1.2915 -0.239159,0.5979 -0.693561,1.0523 -0.454402,0.4783 -1.0523,0.7414 -0.597898,0.263 -1.267543,0.263 H 22.457477 q -0.693561,0 -1.315374,-0.263 -0.597898,-0.2631 -1.0523,-0.7414 -0.454402,-0.4544 -0.717477,-1.0523 -0.263075,-0.5979 -0.263075,-1.2915 v -18.0087 q 0,-0.6457 0.263075,-1.2197 0.28699,-0.5979 0.741393,-1.0284 0.478318,-0.4544 1.076215,-0.7174 0.597898,-0.2631 1.267543,-0.2631 v -3.8744 q 0,-2.4394 0.406571,-4.544 0.40657,-2.1046 1.626281,-3.6352 1.243627,-1.5546 3.467807,-2.4155 2.248095,-0.8849 5.907228,-0.8849 3.68305,0 5.907229,0.8849 2.248095,0.8609 3.44389,2.4155 1.219712,1.5306 1.602366,3.6352 0.40657,2.1046 0.40657,4.544 z m -17.889097,-3.8744 v 3.7548 h 13.058085 v -3.7548 q 0,-1.8176 -0.143496,-3.0612 -0.143495,-1.2676 -0.789225,-2.0329 -0.621813,-0.7653 -1.937188,-1.1001 -1.315375,-0.3348 -3.659134,-0.3348 -2.319842,0 -3.635217,0.3348 -1.291459,0.3348 -1.937189,1.1001 -0.645729,0.7653 -0.81314,2.0329 -0.143496,1.2436 -0.143496,3.0612 z"
           id="path94"
           inkscape:connector-curvature="0"
           style="fill:#ffffff;stroke-width:0.889442px" />
      </g>
    </g>
  </g>
</svg>
