<?xml version="1.0" encoding="UTF-8" standalone="no"?>
<svg
   xmlns:dc="http://purl.org/dc/elements/1.1/"
   xmlns:cc="http://creativecommons.org/ns#"
   xmlns:rdf="http://www.w3.org/1999/02/22-rdf-syntax-ns#"
   xmlns:svg="http://www.w3.org/2000/svg"
   xmlns="http://www.w3.org/2000/svg"
   xmlns:sodipodi="http://sodipodi.sourceforge.net/DTD/sodipodi-0.dtd"
   xmlns:inkscape="http://www.inkscape.org/namespaces/inkscape"
   width="450"
   height="325"
   viewBox="0 0 450.00001 325"
   id="svg5199"
   version="1.1"
   inkscape:version="1.0 (4035a4fb49, 2020-05-01)"
   sodipodi:docname="overwhelmed.svg">
  <defs
     id="defs5201" />
  <sodipodi:namedview
     id="base"
     pagecolor="#ffffff"
     bordercolor="#666666"
     borderopacity="1.0"
     inkscape:pageopacity="0.0"
     inkscape:pageshadow="2"
     inkscape:zoom="2.8"
     inkscape:cx="290.9008"
     inkscape:cy="178.96517"
     inkscape:document-units="px"
     inkscape:current-layer="layer1"
     showgrid="false"
     units="px"
     borderlayer="true"
     inkscape:window-width="1280"
     inkscape:window-height="961"
     inkscape:window-x="1912"
     inkscape:window-y="-8"
     inkscape:window-maximized="1"
     inkscape:document-rotation="0" />
  <metadata
     id="metadata5204">
    <rdf:RDF>
      <cc:Work
         rdf:about="">
        <dc:format>image/svg+xml</dc:format>
        <dc:type
           rdf:resource="http://purl.org/dc/dcmitype/StillImage" />
        <dc:title />
      </cc:Work>
    </rdf:RDF>
  </metadata>
  <g
     inkscape:label="Layer 1"
     inkscape:groupmode="layer"
     id="layer1"
     transform="translate(0,-727.36216)">
    <path
       style="fill:#000000;fill-opacity:1;stroke:none;stroke-width:1.101;stroke-linecap:round;stroke-linejoin:round;stroke-miterlimit:4;stroke-dasharray:none;stroke-dashoffset:0;stroke-opacity:1"
       d="m 300.5328,886.82643 -25.18436,-20.14547 -2.1e-4,11.02774 h -27.61139 l 9e-5,19.16213 h 27.61138 l -5e-5,10.10107 z"
       id="path15147-5"
       inkscape:connector-curvature="0"
       sodipodi:nodetypes="cccccccc"
       inkscape:transform-center-x="3.36081"
       inkscape:transform-center-y="-3.4768648" />
    <g
       style="stroke-width:1.08835"
       transform="matrix(0.91924627,0,0,0.91840422,-121.47993,19.553056)"
       id="g957">
      <path
         inkscape:connector-curvature="0"
         id="path6427"
         style="font-style:normal;font-variant:normal;font-weight:normal;font-stretch:normal;font-size:11.25px;line-height:110%;font-family:'Archivo Narrow';-inkscape-font-specification:'Archivo Narrow';letter-spacing:0px;word-spacing:0px;fill:#000000;fill-opacity:1;stroke:none;stroke-width:7.18257px;stroke-linecap:butt;stroke-linejoin:miter;stroke-opacity:1"
         d="m 555.14612,969.86542 q 0,1.6325 -1.1241,2.8147 -1.1242,1.1822 -2.75419,1.4636 h -20.90896 q -1.57381,-0.2818 -2.75414,-1.4636 -1.12414,-1.1822 -1.12414,-2.8147 v -3.0399 q 0,-2.2517 -0.33725,-3.9405 -0.28108,-1.6888 -1.18035,-3.6591 -0.89932,-1.9704 -2.58553,-4.6161 -1.68621,-2.6458 -4.38414,-6.699 -3.03518,-4.6161 -5.22725,-8.10635 -2.13587,-3.54651 -3.54104,-6.64264 -1.34896,-3.09613 -2.02345,-6.07972 -0.61822,-3.03986 -0.61822,-6.64264 0,-4.67246 1.18033,-9.00706 1.23656,-4.3346 3.48484,-8.10636 2.24828,-3.77167 5.33965,-6.81154 3.14759,-3.09611 6.91346,-5.29164 3.82207,-2.19543 8.20621,-3.37764 4.44036,-1.23846 9.16174,-1.23846 4.66517,0 8.99307,1.23846 4.32799,1.18221 8.15002,3.37764 3.82211,2.19553 6.96964,5.29164 3.14761,3.03987 5.39592,6.81154 2.30448,3.77176 3.54104,8.10636 1.23657,4.3346 1.23657,9.00706 0,3.32127 -0.73059,6.41749 -0.67431,3.09613 -2.13586,6.36113 -1.40508,3.20876 -3.59722,6.81165 -2.13586,3.60277 -5.00241,7.82488 -2.6979,3.9968 -4.38416,6.5863 -1.68616,2.5895 -2.64174,4.5598 -0.89941,1.914 -1.23646,3.6028 -0.2814,1.6888 -0.2814,3.9406 v 3.3213 z m 0,16.0437 q 0,0.7881 -0.11255,1.3511 -0.0511,0.2255 -0.0511,0.4499 -0.2251,0.619 -0.2251,1.4074 0,0.788 0.2251,1.2383 0,0.1128 0.0511,0.3382 0.11255,0.4499 0.11255,1.1822 0,0.9572 -0.28138,1.6325 -0.22511,0.67541 -0.50547,1.12601 -0.33767,0.5626 -0.78684,0.8444 -0.50547,0.2818 -1.06795,0.5626 -0.50545,0.2818 -0.73056,0.2818 -0.28139,0 -0.73058,0.2819 -0.4492,0.3371 -0.78685,0.788 l -2.02341,3.60277 q -0.33726,0.4499 -0.95549,0.7881 -0.61823,0.3945 -1.12413,0.619 h -10.51071 q -0.56204,-0.2255 -1.18033,-0.619 -0.61823,-0.3382 -0.89931,-0.7881 l -2.24828,-3.60277 q -0.28108,-0.4499 -0.6745,-0.788 -0.39343,-0.2819 -0.6745,-0.2819 -0.33726,0 -0.84314,-0.2818 -0.44959,-0.2818 -0.95547,-0.5626 -0.44971,-0.2818 -0.78685,-0.8444 -0.28108,-0.4499 -0.50587,-1.12601 -0.22481,-0.6753 -0.22481,-1.6325 0,-0.9571 0.0563,-1.1822 0,-0.2254 0.0563,-0.3382 0.1124,-0.2818 0.16862,-0.619 0.0563,-0.2818 0.0563,-0.6189 0,-0.3382 -0.0563,-0.7317 -0.0563,-0.3372 -0.16862,-0.6754 -0.0563,-0.2254 -0.0563,-0.4499 -0.0563,-0.2818 -0.0563,-1.3511 0,-1.0135 0.22481,-1.8014 0.28108,-0.788 0.56204,-1.2947 0.33726,-0.619 0.84314,-1.0696 l 2.36068,-1.2384 h 20.45936 l 2.36066,1.2384 q 0.45021,0.4499 0.84312,1.0696 0.2814,0.5063 0.56175,1.2947 0.28139,0.7881 0.28139,1.8014 z" />
      <circle
         style="fill:none;stroke:#000000;stroke-width:10.8835;stroke-miterlimit:4;stroke-dasharray:none;stroke-opacity:1;stop-color:#000000"
         id="path127"
         cx="541.25"
         cy="944.32642"
         r="70.535713" />
      <rect
         style="fill:#000000;fill-opacity:1;stroke:none;stroke-width:10.8835;stroke-miterlimit:4;stroke-dasharray:none;stroke-opacity:1;stop-color:#000000"
         id="rect952"
         width="15"
         height="144.64285"
         x="-287.84616"
         y="977.25592"
         transform="rotate(-45)" />
    </g>
    <g
       style="stroke-width:1.08835"
       transform="matrix(0.91924627,0,0,0.91840422,35.776846,95.977402)"
       id="g1041">
      <path
         d="m 395.48223,1093.1241 5.58135,9.6672 -5.58135,9.6671 -11.1627,0 -5.58135,-9.6671 5.58135,-9.6672 z"
         transform="matrix(5.3036155,3.0593124,-3.0621977,5.299151,1400.5455,-6230.4667)"
         inkscape:randomized="0"
         inkscape:rounded="0"
         inkscape:flatsided="true"
         sodipodi:arg2="-0.52359878"
         sodipodi:arg1="-1.0471976"
         sodipodi:r2="9.6671848"
         sodipodi:r1="11.162703"
         sodipodi:cy="1102.7913"
         sodipodi:cx="389.90088"
         sodipodi:sides="6"
         id="path5084-7"
         style="font-style:normal;font-weight:normal;font-size:medium;line-height:125%;font-family:sans-serif;letter-spacing:0px;word-spacing:0px;fill:#b3b3b3;fill-opacity:1;stroke:#000000;stroke-width:0.724785;stroke-linecap:butt;stroke-linejoin:round;stroke-miterlimit:4;stroke-dasharray:none;stroke-dashoffset:0;stroke-opacity:1"
         sodipodi:type="star" />
      <path
         d="m 412.98949,1103.3571 5.58135,9.6672 -5.58135,9.6672 -11.1627,0 -5.58135,-9.6672 5.58135,-9.6672 z"
         inkscape:randomized="0"
         inkscape:rounded="0"
         inkscape:flatsided="true"
         sodipodi:arg2="-0.52359878"
         sodipodi:arg1="-1.0471976"
         sodipodi:r2="9.6671848"
         sodipodi:r1="11.162703"
         sodipodi:cy="1113.0243"
         sodipodi:cx="407.40814"
         sodipodi:sides="6"
         id="path5092-2"
         style="font-style:normal;font-weight:normal;font-size:medium;line-height:125%;font-family:sans-serif;letter-spacing:0px;word-spacing:0px;fill:#b3b3b3;fill-opacity:1;stroke:#000000;stroke-width:0.724785;stroke-linecap:butt;stroke-linejoin:round;stroke-miterlimit:4;stroke-dasharray:none;stroke-dashoffset:0;stroke-opacity:1"
         sodipodi:type="star"
         transform="matrix(5.3036155,3.0593124,-3.0621977,5.299151,1401.4855,-6228.4676)" />
      <path
         style="fill:#4d4d4d;fill-opacity:1;stroke:none;stroke-width:1.08835;stroke-opacity:1"
         inkscape:connector-curvature="0"
         d="m 91.793404,772.87961 c -4.067754,0 -6.993279,2.15032 -8.682923,4.85157 -1.511117,2.41534 -2.139805,5.21731 -2.262444,7.67165 -4.61128,2.27761 -9.719737,4.57456 -13.832623,6.92291 -2.157491,1.2322 -4.038494,2.47102 -5.45435,3.80242 -1.415846,1.33142 -2.460531,2.83103 -2.460531,4.5993 0,0.75288 0.36823,1.36601 0.78193,1.81629 0.415331,0.45135 0.912082,0.80003 1.478226,1.1263 1.132213,0.65214 2.559635,1.19606 4.129866,1.66724 2.332675,0.69912 4.945085,1.21927 7.216557,1.44107 -2.259307,3.89031 -5.266009,7.46262 -7.901616,10.88547 -3.045854,3.95667 -5.704963,7.75093 -5.704963,11.96599 0,0.60181 -0.0146,1.07203 0.04792,1.54466 0.05337,0.47501 0.189342,1.0611 0.664365,1.52866 0.475264,0.46542 1.057167,0.5928 1.53109,0.64399 0.473847,0.0517 0.95143,0.0517 1.563903,0.0517 h 16.804726 c 1.219849,0 2.113113,0.0766 3.032002,-0.51537 0.918997,-0.58993 1.25411,-1.396 1.908837,-2.60059 h 0.0146 l 0.0146,-0.0527 c 0,0 1.464831,-2.97584 3.21261,-5.92935 0.873778,-1.47576 1.822508,-2.94633 2.647678,-3.988 0.41343,-0.5211 0.79912,-0.9343 1.0772,-1.16759 0.0851,-0.0661 0.12414,-0.0854 0.17839,-0.11876 0.0547,0.0527 0.0931,0.0527 0.1784,0.11876 0.27784,0.2328 0.66442,0.646 1.07719,1.16759 0.82516,1.04167 1.77383,2.51224 2.64769,3.988 1.74761,2.95351 3.212603,5.92935 3.212603,5.92935 l 0.0146,0.0527 h 0.0146 c 0.65476,1.20459 0.98679,2.00597 1.899723,2.59734 0.91271,0.59129 1.80409,0.52102 3.00676,0.52102 h 16.87869 c 0.60262,0 1.07266,0 1.54331,-0.0517 0.47052,-0.0517 1.05433,-0.18047 1.52477,-0.65262 0.47002,-0.47501 0.60018,-1.05308 0.65227,-1.52339 0.0534,-0.46543 0.0475,-0.93948 0.0475,-1.54227 0,-4.21456 -2.6591,-8.00836 -5.70502,-11.96499 -2.63542,-3.42327 -5.64211,-6.99576 -7.90155,-10.88588 2.27151,-0.22334 4.88395,-0.74195 7.21653,-1.44125 1.57019,-0.47492 2.99767,-1.01454 4.12985,-1.66715 0.56615,-0.3231 1.06335,-0.67591 1.47798,-1.12573 0.41485,-0.45124 0.78221,-1.06398 0.78221,-1.81685 0,-1.76837 -1.04468,-3.26752 -2.46048,-4.5994 -1.41595,-1.33083 -3.29692,-2.57012 -5.45429,-3.80232 -4.11301,-2.34826 -9.22138,-4.64492 -13.83276,-6.923 -0.12275,-2.45426 -0.75144,-5.25624 -2.26238,-7.67157 -1.689673,-2.70136 -4.615156,-4.85157 -8.682946,-4.85157 z"
         id="path5096-9" />
      <path
         d="m 412.98949,1103.3571 5.58135,9.6672 -5.58135,9.6672 -11.1627,0 -5.58135,-9.6672 5.58135,-9.6672 z"
         transform="matrix(5.3036155,3.0593124,-3.0621977,5.299151,1275.4141,-6228.4676)"
         sodipodi:type="star"
         style="font-style:normal;font-weight:normal;font-size:medium;line-height:125%;font-family:sans-serif;letter-spacing:0px;word-spacing:0px;fill:#b3b3b3;fill-opacity:1;stroke:#000000;stroke-width:0.724785;stroke-linecap:butt;stroke-linejoin:round;stroke-miterlimit:4;stroke-dasharray:none;stroke-dashoffset:0;stroke-opacity:1"
         id="path54"
         sodipodi:sides="6"
         sodipodi:cx="407.40814"
         sodipodi:cy="1113.0243"
         sodipodi:r1="11.162703"
         sodipodi:r2="9.6671848"
         sodipodi:arg1="-1.0471976"
         sodipodi:arg2="-0.52359878"
         inkscape:flatsided="true"
         inkscape:rounded="0"
         inkscape:randomized="0" />
      <g
         style="stroke-width:1.08835"
         id="g1023"
         transform="translate(-3.8116847,-3.5943333)">
        <ellipse
           ry="31.102739"
           rx="31.029938"
           style="fill:#000000;stroke:none;stroke-width:4.53196;stroke-miterlimit:4;stroke-dasharray:none;stroke-opacity:1"
           id="ellipse1013"
           cx="-157.73289"
           cy="919.5993"
           transform="scale(-1,1)" />
        <path
           style="font-variation-settings:normal;vector-effect:none;fill:#ffffff;fill-opacity:1;stroke:none;stroke-width:1.51066;stroke-linecap:butt;stroke-linejoin:miter;stroke-miterlimit:4;stroke-dasharray:none;stroke-dashoffset:0;stroke-opacity:1;stop-color:#000000"
           d="m 157.7079,901.84421 v 0.029 c -5.99384,3.7252 -16.4109,4.2135 -17.33334,4.5959 1.14147,25.4549 6.69381,29.0689 17.33334,34.8583 v 0.027 c 0.009,-0.01 0.0163,-0.01 0.025,-0.015 0.009,0.01 0.0163,0.01 0.025,0.015 v -0.027 c 10.63952,-5.7894 16.19186,-9.4034 17.33333,-34.8583 -0.92243,-0.3824 -11.33949,-0.8707 -17.33333,-4.5959 v -0.029 c -0.008,0.01 -0.017,0.01 -0.025,0.015 -0.008,0 -0.017,-0.01 -0.025,-0.015 z"
           id="path1015" />
      </g>
      <g
         style="stroke-width:1.08835"
         id="g1029"
         transform="translate(-129.88308,-3.5943333)">
        <ellipse
           transform="scale(-1,1)"
           cy="919.5993"
           cx="-157.73289"
           id="ellipse1025"
           style="fill:#000000;stroke:none;stroke-width:4.53196;stroke-miterlimit:4;stroke-dasharray:none;stroke-opacity:1"
           rx="31.029938"
           ry="31.102739" />
        <path
           id="path1027"
           d="m 157.7079,901.84421 v 0.029 c -5.99384,3.7252 -16.4109,4.2135 -17.33334,4.5959 1.14147,25.4549 6.69381,29.0689 17.33334,34.8583 v 0.027 c 0.009,-0.01 0.0163,-0.01 0.025,-0.015 0.009,0.01 0.0163,0.01 0.025,0.015 v -0.027 c 10.63952,-5.7894 16.19186,-9.4034 17.33333,-34.8583 -0.92243,-0.3824 -11.33949,-0.8707 -17.33333,-4.5959 v -0.029 c -0.008,0.01 -0.017,0.01 -0.025,0.015 -0.008,0 -0.017,-0.01 -0.025,-0.015 z"
           style="font-variation-settings:normal;vector-effect:none;fill:#ffffff;fill-opacity:1;stroke:none;stroke-width:1.51066;stroke-linecap:butt;stroke-linejoin:miter;stroke-miterlimit:4;stroke-dasharray:none;stroke-dashoffset:0;stroke-opacity:1;stop-color:#000000" />
      </g>
    </g>
  </g>
</svg>
