<?xml version="1.0" encoding="UTF-8" standalone="no"?>
<!-- Created with Inkscape (http://www.inkscape.org/) -->

<svg
   xmlns:dc="http://purl.org/dc/elements/1.1/"
   xmlns:cc="http://creativecommons.org/ns#"
   xmlns:rdf="http://www.w3.org/1999/02/22-rdf-syntax-ns#"
   xmlns:svg="http://www.w3.org/2000/svg"
   xmlns="http://www.w3.org/2000/svg"
   xmlns:sodipodi="http://sodipodi.sourceforge.net/DTD/sodipodi-0.dtd"
   xmlns:inkscape="http://www.inkscape.org/namespaces/inkscape"
   width="450"
   height="325"
   viewBox="0 0 450.00001 325"
   id="svg5199"
   version="1.1"
   inkscape:version="0.92.0 r15299"
   sodipodi:docname="figure_alerts_power_on.svg">
  <defs
     id="defs5201" />
  <sodipodi:namedview
     id="base"
     pagecolor="#ffffff"
     bordercolor="#666666"
     borderopacity="1.0"
     inkscape:pageopacity="0.0"
     inkscape:pageshadow="2"
     inkscape:zoom="1.979899"
     inkscape:cx="203.2341"
     inkscape:cy="156.01142"
     inkscape:document-units="px"
     inkscape:current-layer="layer1"
     showgrid="false"
     units="px"
     borderlayer="true"
     inkscape:window-width="1920"
     inkscape:window-height="1017"
     inkscape:window-x="-8"
     inkscape:window-y="-8"
     inkscape:window-maximized="1" />
  <metadata
     id="metadata5204">
    <rdf:RDF>
      <cc:Work
         rdf:about="">
        <dc:format>image/svg+xml</dc:format>
        <dc:type
           rdf:resource="http://purl.org/dc/dcmitype/StillImage" />
        <dc:title></dc:title>
      </cc:Work>
    </rdf:RDF>
  </metadata>
  <g
     inkscape:label="Layer 1"
     inkscape:groupmode="layer"
     id="layer1"
     transform="translate(0,-727.36216)">
    <g
       id="g3434"
       transform="translate(-9.0819671,-2.0852264)">
      <path
         inkscape:transform-center-y="-7.178062"
         inkscape:transform-center-x="6.9288348"
         sodipodi:nodetypes="cccccccc"
         inkscape:connector-curvature="0"
         id="path15147"
         d="m 291.81168,886.89193 -51.92159,-41.59067 -3.9e-4,22.76688 -56.92528,0 1.5e-4,39.56064 56.92527,0 -1.1e-4,20.85376 z"
         style="fill:#000000;fill-opacity:1;stroke:none;stroke-width:1.10099995;stroke-linecap:round;stroke-linejoin:round;stroke-miterlimit:4;stroke-dasharray:none;stroke-dashoffset:0;stroke-opacity:1" />
      <path
         d="m 240.9531,902.15656 -32.68694,0 q -0.34174,0 -0.62318,-0.2007 -0.26134,-0.2007 -0.42216,-0.48166 -0.16082,-0.28096 -0.16082,-0.60208 0,-0.30105 0.16082,-0.62216 l 16.32338,-28.93999 q 0.16081,-0.28097 0.44224,-0.42145 0.28144,-0.14056 0.60308,-0.14056 0.32164,0 0.60309,0.14056 0.28143,0.14055 0.44227,0.42145 l 16.36354,28.93999 q 0.16083,0.32111 0.16083,0.62216 0,0.32112 -0.16083,0.60208 -0.16081,0.28096 -0.44225,0.48166 -0.26134,0.2007 -0.60307,0.2007 z m -30.59626,-2.56887 28.46537,0 -14.23269,-25.16698 -14.23268,25.16698 z m 16.10223,-7.30527 -3.73909,0 0,-11.13847 3.73909,0 0,11.13847 z m 0.56287,3.65264 q 0,0.52179 -0.20102,0.96333 -0.18093,0.44152 -0.52266,0.78271 -0.32166,0.32111 -0.76391,0.52179 -0.44226,0.18063 -0.94483,0.18063 -0.50257,0 -0.94483,-0.18063 -0.44225,-0.20068 -0.76389,-0.52179 -0.32165,-0.34119 -0.50257,-0.78271 -0.18093,-0.44154 -0.18093,-0.96333 0,-0.50174 0.18093,-0.96334 0.18092,-0.46159 0.50257,-0.7827 0.32164,-0.34117 0.76389,-0.54186 0.44226,-0.2007 0.94483,-0.2007 0.50257,0 0.94483,0.2007 0.44225,0.20069 0.76391,0.54186 0.34173,0.32111 0.52266,0.7827 0.20102,0.4616 0.20102,0.96334 z"
         style="font-style:normal;font-weight:normal;font-size:medium;line-height:125%;font-family:sans-serif;letter-spacing:0px;word-spacing:0px;fill:#ffffff;fill-opacity:1;stroke:none;stroke-width:1px;stroke-linecap:butt;stroke-linejoin:miter;stroke-opacity:1"
         id="path14021"
         inkscape:connector-curvature="0" />
      <g
         transform="matrix(1.3827372,0,0,1.3827372,-85.687174,-354.29549)"
         id="g3421">
        <circle
           r="45"
           cy="901.28687"
           cx="138.54434"
           id="circle4153"
           style="fill:#000000;stroke:none;stroke-width:3;stroke-miterlimit:4;stroke-dasharray:none;stroke-opacity:1" />
        <g
           id="g6324"
           transform="matrix(0.59413673,0,0,0.59512313,-188.30063,529.57223)"
           style="opacity:1;fill:#d8c586;fill-opacity:1">
          <g
             id="g3415"
             style="fill:#ffffff"
             transform="matrix(2.7222461,0,0,2.7222461,-917.4984,-1076.7008)">
            <path
               style="fill:#ffffff;fill-opacity:1;stroke-linecap:round;stroke-linejoin:round"
               inkscape:connector-curvature="0"
               id="path6300"
               d="m 525.65901,625.00231 1.94807,9.9888 -7.17953,1.5595 c -0.26665,0.0574 -0.4583,0.29137 -0.46207,0.5641 l -0.0654,4.7112 c -0.006,0.3994 0.38172,0.68693 0.76242,0.566 l 9.02373,-2.8841 1.48619,-0.2882 c 0.0109,2e-4 0.0217,8e-4 0.0326,8e-4 0.61338,0 1.19103,-0.2922 1.59444,-0.7684 0.40311,-0.4759 0.61399,-1.096 0.61338,-1.7349 l 0,0 c 3.2e-4,-0.405 -0.0845,-0.8032 -0.24921,-1.1616 l -1.55704,-8.0443 z m 1.30079,0.5469 0.9866,0.416 1.83175,8.5978 c -0.18513,-0.057 -0.37846,-0.087 -0.57555,-0.087 -0.16782,0 -0.33269,0.023 -0.49212,0.064 l -1.75068,-8.9909 z m 2.30127,0.9702 1.0484,0.442 1.417,7.321 c -0.16831,-0.046 -0.34278,-0.071 -0.52041,-0.071 -0.10122,0 -0.20121,0.01 -0.29973,0.024 l -1.6452,-7.7159 z m 1.94493,8.8665 c 0.23799,0 0.50876,0.1218 0.70678,0.3556 0.19807,0.2338 0.33472,0.6093 0.33417,0.9731 6.2e-4,0.3638 -0.13616,0.7393 -0.33411,0.9731 -0.094,0.1109 -0.20429,0.1957 -0.31963,0.2552 l -0.37846,0.073 c 0.12974,-0.3249 0.19616,-0.6778 0.19579,-1.0367 l 0,0 c 2.5e-4,-0.2325 -0.0278,-0.4627 -0.0827,-0.6843 0.002,-0.0465 -0.002,-0.093 -0.0119,-0.1385 l -0.16363,-0.7675 0.0536,0 z m -2.0034,0.2649 c 0.23806,0 0.50889,0.1218 0.70696,0.3556 0.19802,0.2338 0.33455,0.6094 0.33405,0.9732 6.4e-4,0.3638 -0.13616,0.7393 -0.33411,0.9731 -0.19807,0.2338 -0.46884,0.3557 -0.70696,0.3557 -0.23799,0 -0.50723,-0.122 -0.70524,-0.3557 -0.198,-0.2338 -0.33626,-0.6093 -0.33576,-0.9731 -6.4e-4,-0.3638 0.13776,-0.7394 0.33576,-0.9732 0.19801,-0.2338 0.46725,-0.3556 0.70524,-0.3556 z m -2.12526,0.6524 c -0.0536,0.2193 -0.0811,0.4467 -0.0808,0.6764 l 0,0 c -6.3e-4,0.6388 0.21009,1.259 0.6132,1.7349 0.0516,0.061 0.10614,0.1189 0.16313,0.1735 l -6.68979,2.1381 0.0482,-3.4328 5.94611,-1.2917 z"
               sodipodi:nodetypes="ccccccccscccccccccsccccccsccccccccccccccccscccscccssccccccccc" />
            <path
               d="m 557.57911,623.18801 c 0.36275,-0.83791 0.62263,-1.77224 0.75319,-2.81716 l 0.004,-0.008 c 10e-4,-0.0107 0.002,-0.0215 0.002,-0.0324 4.3e-4,-0.009 8.9e-4,-0.0172 3.5e-4,-0.026 3e-4,-0.0108 -5.1e-4,-0.0215 -10e-4,-0.0322 -5e-4,-0.009 -0.001,-0.0178 -0.002,-0.0265 -6.2e-4,-0.0112 -0.003,-0.022 -0.004,-0.0329 -0.002,-0.008 -0.003,-0.0166 -0.004,-0.0249 -0.002,-0.0106 -0.005,-0.0218 -0.008,-0.0325 -0.002,-0.008 -0.004,-0.0165 -0.007,-0.0246 -0.003,-0.0101 -0.007,-0.0209 -0.0105,-0.0311 -0.003,-0.008 -0.006,-0.016 -0.009,-0.0239 -0.004,-0.0105 -0.009,-0.0206 -0.0139,-0.0309 -0.004,-0.007 -0.007,-0.0142 -0.0105,-0.0211 -0.005,-0.01 -0.0118,-0.0208 -0.0182,-0.0309 -0.004,-0.007 -0.008,-0.0133 -0.0122,-0.0197 -0.007,-0.009 -0.0129,-0.0186 -0.0197,-0.0275 -0.005,-0.006 -0.0102,-0.0131 -0.0155,-0.0197 -0.007,-0.009 -0.0148,-0.0173 -0.0228,-0.0254 -0.006,-0.006 -0.0113,-0.0125 -0.0171,-0.0183 -0.008,-0.008 -0.0163,-0.0158 -0.025,-0.0228 -0.006,-0.006 -0.0122,-0.0118 -0.0188,-0.0169 -0.0112,-0.009 -0.0224,-0.0184 -0.0344,-0.0263 l -5.78328,-4.00456 c -0.2286,-0.15826 -0.537,-0.13378 -0.73783,0.0584 l -3.96138,3.79236 -4.66387,4.4628 -6.07429,5.81523 -0.004,0.009 c -0.008,0.009 -0.0162,0.0173 -0.0244,0.0261 -0.006,0.005 -0.0121,0.0103 -0.0177,0.0159 -0.008,0.009 -0.0152,0.0176 -0.0225,0.0268 -0.007,0.006 -0.0132,0.0129 -0.0194,0.0196 -0.004,0.009 -0.008,0.0182 -0.0118,0.0274 -0.004,0.009 -0.008,0.0181 -0.0118,0.0273 -0.004,0.008 -0.007,0.0162 -0.0105,0.0243 -0.005,0.01 -0.009,0.0201 -0.0135,0.0303 -0.003,0.006 -0.006,0.0138 -0.008,0.0208 l -1.7414,4.84541 c -0.0714,0.20056 -0.0283,0.42406 0.11254,0.58366 l 4.81212,5.47273 4.8e-4,9e-4 9e-5,4e-5 -7.9e-4,0.002 c 0.23004,0.26662 0.64179,0.27106 0.87765,0.01 0.43184,-0.33592 0.79694,-0.71601 1.10321,-1.13088 l 14.28632,-14.48689 c 0.0119,-0.0125 0.0234,-0.0255 0.0343,-0.039 0.54305,-0.65902 1.00914,-1.40032 1.3721,-2.23819 z m -0.13161,-1.82549 c -0.0304,0.0717 -0.0748,0.13666 -0.13056,0.19102 l -13.70048,13.59064 c -0.202,0.20058 -0.51898,0.2269 -0.75129,0.0624 -0.0196,-0.027 -0.0414,-0.0523 -0.0653,-0.0757 l -0.0966,-0.0979 c -0.14082,-0.23136 -0.10467,-0.52909 0.0874,-0.72002 l 13.70231,-13.58979 c 0.45343,-0.45681 1.20468,0.0465 0.95474,0.63959 z m -15.99774,17.0647 c -0.10761,0.24881 -0.24246,0.48248 -0.39947,0.70441 l -0.68395,0.69358 -2.25485,-2.56415 c 0.20714,0.15083 0.42328,0.27558 0.6377,0.3655 0.49608,0.20803 0.97377,0.22383 1.29804,0.0349 0.32428,-0.18899 0.48265,-0.5758 0.43565,-1.04499 -0.012,-0.11593 -0.0358,-0.23734 -0.0708,-0.35995 0.0318,0.0549 0.0682,0.10936 0.11073,0.16113 0.12119,0.14754 0.28149,0.27267 0.44215,0.34027 0.16105,0.0675 0.31957,0.0748 0.42853,0.0133 0.0547,-0.0306 0.0949,-0.0758 0.11866,-0.13328 0.024,-0.0574 0.0321,-0.12719 0.024,-0.20148 -0.0173,-0.14891 -0.0993,-0.31681 -0.22068,-0.46464 -0.12165,-0.14773 -0.28135,-0.27272 -0.44241,-0.34017 -0.16095,-0.0674 -0.31947,-0.0748 -0.4285,-0.0134 -0.10838,0.0616 -0.15806,0.18657 -0.14445,0.33396 -0.11792,-0.28031 -0.28661,-0.56337 -0.49693,-0.82524 -0.38016,-0.47375 -0.88619,-0.86836 -1.38245,-1.07623 -0.49608,-0.20803 -0.97697,-0.22121 -1.30126,-0.0322 -0.32435,0.1889 -0.47944,0.5729 -0.43224,1.04212 0.0297,0.2933 0.13748,0.61593 0.30703,0.93226 l -0.80078,-0.9109 1.30851,-3.64611 4.31319,4.36623 c 0.08,1.01699 -0.0405,1.88025 -0.36953,2.62337 z"
               id="path6302"
               inkscape:connector-curvature="0"
               style="fill:#ffffff;fill-opacity:1;stroke-linecap:round;stroke-linejoin:round"
               sodipodi:nodetypes="cccccccccccccccccccccccccccccccccccccccccccccccccccccccccccccccccccccccccccccccccccccccc" />
            <path
               style="fill:#ffffff;fill-opacity:1"
               inkscape:connector-curvature="0"
               d="m 526.02681,607.50554 1.12689,7.14648 -2.91854,-0.74553 4.51983,9.87315 -1.12792,-7.14503 2.91969,0.7441 -4.52014,-9.8733 z"
               id="path6308"
               sodipodi:nodetypes="cccccccc" />
            <path
               sodipodi:nodetypes="cccccccc"
               id="path6322"
               d="m 542.72268,609.72784 -4.0292,6.00895 -1.6347,-2.5301 -3.39261,10.31495 4.02745,-6.00861 1.63652,2.52986 3.39248,-10.31527 z"
               inkscape:connector-curvature="0"
               style="fill:#ffffff;fill-opacity:1" />
          </g>
        </g>
      </g>
      <g
         transform="matrix(1.3827372,0,0,1.3827372,-204.60413,-354.29549)"
         id="g3430">
        <circle
           style="fill:#000000;stroke:none;stroke-width:3;stroke-miterlimit:4;stroke-dasharray:none;stroke-opacity:1"
           id="path4151"
           cx="409.97293"
           cy="901.28687"
           r="45" />
        <path
           d="m 390.77106,872.12106 c -1.89952,0 -3.89823,0.27697 -6.00123,0.89032 a 1.2176101,1.2200373 0 0 0 -0.0185,0 1.2176101,1.2200373 0 0 0 -0.064,0 1.2176101,1.2200373 0 0 0 -0.0502,0 1.2176101,1.2200373 0 0 0 -0.0603,0.0431 1.2176101,1.2200373 0 0 0 -0.0486,0.0431 1.2176101,1.2200373 0 0 0 -0.0597,0.0431 1.2176101,1.2200373 0 0 0 -0.0437,0.0431 1.2176101,1.2200373 0 0 0 -0.056,0.0431 1.2176101,1.2200373 0 0 0 -0.0394,0.0431 1.2176101,1.2200373 0 0 0 -0.0508,0.0431 1.2176101,1.2200373 0 0 0 -0.0394,0.0431 1.2176101,1.2200373 0 0 0 -0.048,0.0523 1.2176101,1.2200373 0 0 0 -0.0308,0.0431 1.2176101,1.2200373 0 0 0 -0.0443,0.0616 1.2176101,1.2200373 0 0 0 -0.0246,0.0431 1.2176101,1.2200373 0 0 0 -0.0348,0.0616 1.2176101,1.2200373 0 0 0 -0.0246,0.0431 1.2176101,1.2200373 0 0 0 -0.0308,0.0616 1.2176101,1.2200373 0 0 0 -0.0215,0.0492 1.2176101,1.2200373 0 0 0 -0.0215,0.0677 1.2176101,1.2200373 0 0 0 -0.0185,0.0492 1.2176101,1.2200373 0 0 0 -0.0216,0.0892 l -2.86994,14.37867 a 1.2176101,1.2200373 0 0 0 0.72102,1.36302 l 10.51282,4.44083 4.05269,20.82233 -14.9361,3.25045 a 1.2176101,1.2200373 0 0 0 -0.96129,1.1756 l -0.13602,9.8209 a 1.2176101,1.2200373 0 0 0 1.58608,1.17961 l 18.77275,-6.01158 3.09183,-0.60073 c 0.0215,0 0.0449,6.2e-4 0.0683,6.2e-4 1.27599,0 2.47769,-0.60873 3.31696,-1.60153 0.83861,-0.99218 1.27734,-2.28504 1.27608,-3.61636 l 0,0 c 6.8e-4,-0.84478 -0.17603,-1.67509 -0.5184,-2.42169 l -3.23925,-16.76865 16.12035,6.80896 a 1.2176101,1.2200373 0 0 0 0.0215,0 1.2176101,1.2200373 0 0 0 0.0699,0.0431 1.2176101,1.2200373 0 0 0 0.0443,0 1.2176101,1.2200373 0 0 0 0.0699,0 1.2176101,1.2200373 0 0 0 0.0539,0 1.2176101,1.2200373 0 0 0 0.0619,0 1.2176101,1.2200373 0 0 0 0.0618,0 1.2176101,1.2200373 0 0 0 0.0554,0 1.2176101,1.2200373 0 0 0 0.0689,9.3e-4 1.2176101,1.2200373 0 0 0 0.0465,0 l 10.69004,-0.67798 a 1.2176101,1.2200373 0 0 0 1.02158,-0.69797 l 6.47532,-13.73609 0,0 a 1.2176101,1.2200373 0 0 0 0,-3.1e-4 1.2176101,1.2200373 0 0 0 0.006,0 1.2176101,1.2200373 0 0 0 -0.70616,-1.68708 c -0.99803,-0.54872 -2.02533,-0.93248 -3.07048,-1.1753 l -39.46054,-15.34488 a 1.2176101,1.2200373 0 0 0 -0.10278,-0.0431 c -1.70681,-0.49332 -3.5073,-0.77183 -5.40689,-0.77245 z m -3.37699,1.76248 a 1.2176101,1.2200373 0 0 1 0.47261,0.0892 l 37.2652,14.96555 a 1.2186353,1.2210647 0 0 1 0.73955,1.3861 1.2176101,1.2200373 0 0 0 -0.0905,0.1908 l -0.10709,0.26467 a 1.2186353,1.2210647 0 0 1 -1.44698,0.42623 l -37.26517,-14.96924 a 1.2176101,1.2200373 0 0 1 0.4326,-2.35582 z m 45.79604,16.48552 c 0.56395,0 1.12141,0.0646 1.6749,0.1785 l 1.88924,0.73429 -3.03385,6.43596 c 0.11663,-0.52071 0.17695,-1.03804 0.17141,-1.52243 -0.0123,-1.12113 -0.37693,-2.04838 -1.00544,-2.51247 -0.62874,-0.46409 -1.4981,-0.44685 -2.35518,0.0431 -0.21142,0.11694 -0.42337,0.26466 -0.62879,0.43546 0.0788,-0.10463 0.15295,-0.22158 0.21665,-0.34345 0.18157,-0.35606 0.28836,-0.76414 0.28436,-1.12728 -0.006,-0.36499 -0.12125,-0.67367 -0.32871,-0.83093 -0.1034,-0.08 -0.22281,-0.12002 -0.35231,-0.11386 -0.12956,0 -0.26928,0.0431 -0.40456,0.11694 -0.27021,0.1508 -0.52293,0.45208 -0.70494,0.80692 -0.18157,0.35607 -0.28836,0.76414 -0.28436,1.12759 0.006,0.36499 0.12095,0.67336 0.32819,0.83123 0.20711,0.15696 0.4868,0.14772 0.75694,0 -0.43784,0.45732 -0.83899,1.01435 -1.16533,1.63354 -0.59063,1.11928 -0.92617,2.41399 -0.91315,3.53573 0.0123,1.12083 0.38432,2.05208 1.0132,2.51585 0.62858,0.4644 1.48997,0.44347 2.34681,-0.0431 0.53551,-0.29852 1.0626,-0.77276 1.52647,-1.35841 l -1.07777,2.28597 -8.0427,0.51332 4.77474,-11.86528 c 1.87573,-0.99434 3.62356,-1.47812 5.31421,-1.46396 z m -38.20451,4.89876 2.05244,0.86693 3.81074,17.92241 c -0.38527,-0.11695 -0.78731,-0.1785 -1.19733,-0.1785 -0.34926,0 -0.69213,0.0492 -1.02373,0.13233 l -3.64212,-18.74194 z m 4.78744,2.02253 2.18109,0.92109 2.94793,15.26069 c -0.35016,-0.0954 -0.71315,-0.14772 -1.08266,-0.14772 -0.2105,0 -0.41864,0 -0.62357,0.0492 l -3.42263,-16.08392 z m 4.04623,18.48189 c 0.49514,0 1.05842,0.25544 1.4704,0.74137 0.41195,0.48748 0.69634,1.27009 0.69517,2.02838 0,0.7586 -0.28343,1.54121 -0.69511,2.02838 -0.19573,0.23389 -0.42512,0.4093 -0.66495,0.5324 l -0.78735,0.1508 c 0.2699,-0.67766 0.40805,-1.41319 0.40725,-2.16132 l 0,0 c 5.2e-4,-0.48471 -0.0582,-0.9648 -0.17204,-1.42673 a 1.2176101,1.2200373 0 0 0 -0.0246,-0.28929 l -0.34055,-1.59998 c 0.0348,0 0.0751,0 0.1114,0 z m -4.16782,0.55211 c 0.49523,0 1.05866,0.25543 1.47077,0.74198 0.41195,0.48717 0.69594,1.27008 0.69493,2.02869 0,0.75829 -0.28344,1.54151 -0.69509,2.02868 -0.41201,0.48717 -0.97538,0.74137 -1.47073,0.74137 -0.49508,0 -1.05524,-0.25236 -1.46713,-0.74137 -0.41202,-0.48717 -0.69958,-1.27039 -0.69857,-2.02868 0,-0.75861 0.28652,-1.54152 0.69857,-2.02869 0.41195,-0.48747 0.97205,-0.74198 1.46713,-0.74198 z m -4.42128,1.36056 c -0.11141,0.45701 -0.16865,0.93094 -0.16803,1.41011 l 0,0 c 0,1.33163 0.43703,2.62448 1.27565,3.61636 0.10771,0.12618 0.22066,0.2462 0.33917,0.36068 l -13.91723,4.45714 0.10033,-7.1561 12.37017,-2.6925 z"
           id="path4833"
           inkscape:connector-curvature="0"
           style="opacity:1;fill:#ffffff;fill-opacity:1;stroke-linecap:round;stroke-linejoin:round" />
      </g>
    </g>
  </g>
</svg>
