<?xml version="1.0" encoding="UTF-8" standalone="no"?>
<svg
   xmlns:dc="http://purl.org/dc/elements/1.1/"
   xmlns:cc="http://creativecommons.org/ns#"
   xmlns:rdf="http://www.w3.org/1999/02/22-rdf-syntax-ns#"
   xmlns:svg="http://www.w3.org/2000/svg"
   xmlns="http://www.w3.org/2000/svg"
   xmlns:sodipodi="http://sodipodi.sourceforge.net/DTD/sodipodi-0.dtd"
   xmlns:inkscape="http://www.inkscape.org/namespaces/inkscape"
   width="450"
   height="325"
   viewBox="0 0 450.00001 325"
   id="svg5199"
   version="1.1"
   inkscape:version="1.0 (4035a4fb49, 2020-05-01)"
   sodipodi:docname="shadows-in-the-window.svg">
  <defs
     id="defs5201" />
  <sodipodi:namedview
     inkscape:snap-global="false"
     id="base"
     pagecolor="#ffffff"
     bordercolor="#666666"
     borderopacity="1.0"
     inkscape:pageopacity="0.0"
     inkscape:pageshadow="2"
     inkscape:zoom="1.979899"
     inkscape:cx="254.22392"
     inkscape:cy="220.32438"
     inkscape:document-units="px"
     inkscape:current-layer="g111"
     showgrid="false"
     units="px"
     borderlayer="true"
     inkscape:window-width="1920"
     inkscape:window-height="1017"
     inkscape:window-x="-8"
     inkscape:window-y="-8"
     inkscape:window-maximized="1"
     inkscape:document-rotation="0" />
  <metadata
     id="metadata5204">
    <rdf:RDF>
      <cc:Work
         rdf:about="">
        <dc:format>image/svg+xml</dc:format>
        <dc:type
           rdf:resource="http://purl.org/dc/dcmitype/StillImage" />
        <dc:title />
      </cc:Work>
    </rdf:RDF>
  </metadata>
  <g
     inkscape:label="Layer 1"
     inkscape:groupmode="layer"
     id="layer1"
     transform="translate(0,-727.36216)">
    <g
       transform="translate(-236.88077,-180.82814)"
       id="g51">
      <path
         inkscape:transform-center-y="-3.7857682"
         inkscape:transform-center-x="3.6560491"
         sodipodi:nodetypes="cccccccc"
         inkscape:connector-curvature="0"
         id="path15147"
         d="m 550.04848,1070.6903 -27.39675,-21.9353 -2.2e-4,12.0075 h -30.03699 l 9e-5,20.8646 h 30.03698 l -5e-5,10.9985 z"
         style="fill:#000000;fill-opacity:1;stroke:none;stroke-width:1.101;stroke-linecap:round;stroke-linejoin:round;stroke-miterlimit:4;stroke-dasharray:none;stroke-dashoffset:0;stroke-opacity:1" />
      <text
         xml:space="preserve"
         style="font-style:normal;font-variant:normal;font-weight:normal;font-stretch:normal;font-size:24px;line-height:1.25;font-family:'Archivo Black';-inkscape-font-specification:'Archivo Black, ';letter-spacing:0px;word-spacing:0px;fill:#ffffff;fill-opacity:1;stroke:none"
         x="496.74249"
         y="1079.2109"
         id="text46"><tspan
           sodipodi:role="line"
           id="tspan44"
           x="496.74249"
           y="1079.2109">1x</tspan></text>
    </g>
    <g
       id="g52"
       transform="matrix(1.1041718,0,0,1.1034152,259.07163,-111.3763)"
       style="stroke-width:0.905967">
      <path
         style="stroke:#000000;stroke-width:1.81193;stroke-miterlimit:4;stroke-dasharray:none;stroke-opacity:1"
         id="path957"
         fill-opacity="1"
         fill="#ffffff"
         d="m 112.29504,909.4236 c -1.79627,-0.008 -4.03987,0.48246 -6.50018,2.15837 -19.3419,13.57951 -39.01843,26.60803 -58.98889,39.24592 -3.54801,2.30308 -3.39148,5.77422 0.35376,7.7465 l 44.785,23.57031 c 1.8728,0.98614 7.79659,0.71516 11.34461,-1.58757 l 59.07585,-38.34361 c 3.54767,-2.30343 3.39148,-5.77353 -0.35272,-7.7458 -15.53787,-8.17783 -29.83811,-15.69336 -45.42086,-23.95433 0,0 -1.67069,-1.07797 -4.29657,-1.08979 z"
         sodipodi:nodetypes="cccccccccc" />
      <path
         sodipodi:nodetypes="cccccccccc"
         d="m 112.29504,905.4236 c -1.79627,-0.008 -4.03987,0.48246 -6.50018,2.15837 -19.3419,13.57951 -39.01843,26.60803 -58.98889,39.24592 -3.54801,2.30308 -3.39148,5.77422 0.35376,7.7465 l 44.785,23.57031 c 1.8728,0.98614 7.79659,0.71516 11.34461,-1.58757 l 59.07585,-38.34361 c 3.54767,-2.30343 3.39148,-5.77353 -0.35272,-7.7458 -15.53787,-8.17783 -29.83811,-15.69336 -45.42086,-23.95433 0,0 -1.67069,-1.07797 -4.29657,-1.08979 z"
         fill="#ffffff"
         fill-opacity="1"
         id="path955"
         style="stroke:#000000;stroke-width:1.81193;stroke-miterlimit:4;stroke-dasharray:none;stroke-opacity:1" />
      <path
         style="stroke:#000000;stroke-width:1.81193;stroke-miterlimit:4;stroke-dasharray:none;stroke-opacity:1"
         id="path953"
         fill-opacity="1"
         fill="#ffffff"
         d="m 112.29504,901.4236 c -1.79627,-0.008 -4.03987,0.48246 -6.50018,2.15837 -19.3419,13.57951 -39.01843,26.60803 -58.98889,39.24592 -3.54801,2.30308 -3.39148,5.77422 0.35376,7.7465 l 44.785,23.57031 c 1.8728,0.98614 7.79659,0.71516 11.34461,-1.58757 l 59.07585,-38.34361 c 3.54767,-2.30343 3.39148,-5.77353 -0.35272,-7.7458 -15.53787,-8.17783 -29.83811,-15.69336 -45.42086,-23.95433 0,0 -1.67069,-1.07797 -4.29657,-1.08979 z"
         sodipodi:nodetypes="cccccccccc" />
      <path
         sodipodi:nodetypes="cccccccccc"
         d="m 112.29504,897.4236 c -1.79627,-0.008 -4.03987,0.48246 -6.50018,2.15837 -19.3419,13.57951 -39.01843,26.60803 -58.98889,39.24592 -3.54801,2.30308 -3.39148,5.77422 0.35376,7.7465 l 44.785,23.57031 c 1.8728,0.98614 7.79659,0.71516 11.34461,-1.58757 l 59.07585,-38.34361 c 3.54767,-2.30343 3.39148,-5.77353 -0.35272,-7.7458 -15.53787,-8.17783 -29.83811,-15.69336 -45.42086,-23.95433 0,0 -1.67069,-1.07797 -4.29657,-1.08979 z"
         fill="#ffffff"
         fill-opacity="1"
         id="path947"
         style="stroke:#000000;stroke-width:1.81193;stroke-miterlimit:4;stroke-dasharray:none;stroke-opacity:1" />
      <path
         style="stroke:#000000;stroke-width:1.81193;stroke-miterlimit:4;stroke-dasharray:none;stroke-opacity:1"
         id="path945"
         fill-opacity="1"
         fill="#ffffff"
         d="m 112.29504,893.4236 c -1.79627,-0.008 -4.03987,0.48246 -6.50018,2.15837 -19.3419,13.57951 -39.01843,26.60803 -58.98889,39.24592 -3.54801,2.30308 -3.39148,5.77422 0.35376,7.7465 l 44.785,23.57031 c 1.8728,0.98614 7.79659,0.71516 11.34461,-1.58757 l 59.07585,-38.34361 c 3.54767,-2.30343 3.39148,-5.77353 -0.35272,-7.7458 -15.53787,-8.17783 -29.83811,-15.69336 -45.42086,-23.95433 0,0 -1.67069,-1.07797 -4.29657,-1.08979 z"
         sodipodi:nodetypes="cccccccccc" />
      <path
         sodipodi:nodetypes="cccccccccc"
         d="m 112.29504,889.4236 c -1.79627,-0.008 -4.03987,0.48246 -6.50018,2.15837 -19.3419,13.57951 -39.01843,26.60803 -58.98889,39.24592 -3.54801,2.30308 -3.39148,5.77422 0.35376,7.7465 l 44.785,23.57031 c 1.8728,0.98614 7.79659,0.71516 11.34461,-1.58757 l 59.07585,-38.34361 c 3.54767,-2.30343 3.39148,-5.77353 -0.35272,-7.7458 -15.53787,-8.17783 -29.83811,-15.69336 -45.42086,-23.95433 0,0 -1.67069,-1.07797 -4.29657,-1.08979 z"
         fill="#ffffff"
         fill-opacity="1"
         id="path943"
         style="stroke:#000000;stroke-width:1.81193;stroke-miterlimit:4;stroke-dasharray:none;stroke-opacity:1" />
      <path
         style="stroke:#000000;stroke-width:1.81193;stroke-miterlimit:4;stroke-dasharray:none;stroke-opacity:1"
         id="path941"
         fill-opacity="1"
         fill="#ffffff"
         d="m 112.29504,832.09744 c -1.79627,-0.008 -4.03987,0.48246 -6.50018,2.15837 -19.3419,13.57951 -39.01843,26.60803 -58.98889,39.24592 -3.54801,2.30308 -3.39148,5.77422 0.35376,7.7465 l 44.785,23.57031 c 1.8728,0.98614 7.79659,0.71516 11.34461,-1.58757 l 59.07585,-38.34361 c 3.54767,-2.30343 3.39148,-5.77353 -0.35272,-7.7458 -15.53787,-8.17783 -29.83811,-15.69336 -45.42086,-23.95433 0,0 -1.67069,-1.07797 -4.29657,-1.08979 z"
         sodipodi:nodetypes="cccccccccc" />
      <path
         d="M 111.39701,881.21898 77.51962,865.24443 q -0.35419,-0.16701 -0.44342,-0.41079 -0.0684,-0.23395 0.0484,-0.46127 0.11676,-0.22732 0.44072,-0.3973 0.30369,-0.15935 0.79433,-0.25073 l 46.11322,-7.34124 q 0.45012,-0.0701 0.88354,-0.007 0.43348,0.0631 0.76685,0.22033 0.33336,0.15719 0.48325,0.36914 0.14988,0.21194 0.0332,0.43923 l -12.23583,23.31579 q -0.15727,0.24857 -0.46097,0.40793 -0.32395,0.16997 -0.77408,0.24009 -0.45012,0.0701 -0.94426,0.0388 -0.47332,-0.0215 -0.82752,-0.18851 z m -29.11903,-16.31258 29.50209,13.91141 10.638,-20.27725 z m 24.05837,4.00252 -3.87526,-1.82734 11.2368,-5.8959 3.87526,1.82733 z m -3.10147,2.20851 q -0.52642,0.27622 -1.18016,0.41167 -0.63296,0.1453 -1.33135,0.15889 -0.65728,0.0128 -1.31811,-0.0971 -0.64059,-0.12054 -1.16146,-0.36615 -0.52087,-0.24561 -0.79702,-0.55735 -0.25589,-0.32238 -0.26533,-0.64952 0.0109,-0.3378 0.26877,-0.65994 0.25789,-0.32212 0.7843,-0.59833 0.50616,-0.26558 1.15934,-0.42149 0.6532,-0.15592 1.31051,-0.1687 0.67754,-0.0234 1.33836,0.0865 0.66082,0.1099 1.1817,0.35551 0.52086,0.24562 0.77677,0.56799 0.2559,0.32237 0.24509,0.66015 0.0302,0.33699 -0.24794,0.66976 -0.25731,0.34257 -0.76347,0.60815 z"
         style="font-style:normal;font-weight:normal;font-size:medium;line-height:125%;font-family:sans-serif;letter-spacing:0px;word-spacing:0px;fill:#000000;fill-opacity:1;stroke:none;stroke-width:0.905967px;stroke-linecap:butt;stroke-linejoin:miter;stroke-opacity:1"
         id="path3444"
         inkscape:connector-curvature="0" />
    </g>
    <g
       id="g111">
      <g
         transform="translate(0,-11.001003)"
         id="g986">
        <g
           id="g149"
           transform="matrix(0.51537963,0.29769285,-0.29755457,0.51561913,395.69069,404.66824)"
           style="stroke-width:4.47993;stroke-miterlimit:4;stroke-dasharray:none">
          <path
             sodipodi:type="star"
             style="font-style:normal;font-weight:normal;font-size:medium;line-height:125%;font-family:sans-serif;letter-spacing:0px;word-spacing:0px;fill:#b3b3b3;fill-opacity:1;stroke:#000000;stroke-width:0.840064;stroke-linecap:butt;stroke-linejoin:round;stroke-miterlimit:4;stroke-dasharray:none;stroke-dashoffset:0;stroke-opacity:1"
             id="path5084-7"
             sodipodi:sides="6"
             sodipodi:cx="389.90088"
             sodipodi:cy="1102.7913"
             sodipodi:r1="11.162703"
             sodipodi:r2="9.6671848"
             sodipodi:arg1="-1.0471976"
             sodipodi:arg2="-0.52359878"
             inkscape:flatsided="true"
             inkscape:rounded="0"
             inkscape:randomized="0"
             transform="matrix(5.3327119,0,0,5.3329799,-2007.4061,-5015.7067)"
             d="m 395.48223,1093.1241 5.58135,9.6672 -5.58135,9.6671 -11.1627,0 -5.58135,-9.6671 5.58135,-9.6672 z" />
          <path
             transform="matrix(5.3327119,0,0,5.3329799,-2007.4061,-4791.1744)"
             inkscape:randomized="0"
             inkscape:rounded="0"
             inkscape:flatsided="true"
             sodipodi:arg2="-0.52359878"
             sodipodi:arg1="-1.0471976"
             sodipodi:r2="9.6671848"
             sodipodi:r1="11.162703"
             sodipodi:cy="1102.7913"
             sodipodi:cx="389.90088"
             sodipodi:sides="6"
             id="path36"
             style="font-style:normal;font-weight:normal;font-size:medium;line-height:125%;font-family:sans-serif;letter-spacing:0px;word-spacing:0px;fill:#b3b3b3;fill-opacity:1;stroke:#000000;stroke-width:0.840064;stroke-linecap:butt;stroke-linejoin:round;stroke-miterlimit:4;stroke-dasharray:none;stroke-dashoffset:0;stroke-opacity:1"
             sodipodi:type="star"
             d="m 395.48223,1093.1241 5.58135,9.6672 -5.58135,9.6671 -11.1627,0 -5.58135,-9.6671 5.58135,-9.6672 z" />
          <path
             sodipodi:type="star"
             style="font-style:normal;font-weight:normal;font-size:medium;line-height:125%;font-family:sans-serif;letter-spacing:0px;word-spacing:0px;fill:#e6e6e6;fill-opacity:1;stroke:#000000;stroke-width:0.840064;stroke-linecap:butt;stroke-linejoin:round;stroke-miterlimit:4;stroke-dasharray:none;stroke-dashoffset:0;stroke-opacity:1"
             id="path42"
             sodipodi:sides="6"
             sodipodi:cx="389.90088"
             sodipodi:cy="1102.7913"
             sodipodi:r1="11.162703"
             sodipodi:r2="9.6671848"
             sodipodi:arg1="-1.0471976"
             sodipodi:arg2="-0.52359878"
             inkscape:flatsided="true"
             inkscape:rounded="0"
             inkscape:randomized="0"
             transform="matrix(5.3327119,0,0,5.3329799,-2007.4061,-4903.853)"
             d="m 395.48223,1093.1241 5.58135,9.6672 -5.58135,9.6671 -11.1627,0 -5.58135,-9.6671 5.58135,-9.6672 z" />
          <path
             sodipodi:type="star"
             style="font-style:normal;font-weight:normal;font-size:medium;line-height:125%;font-family:sans-serif;letter-spacing:0px;word-spacing:0px;fill:#b3b3b3;fill-opacity:1;stroke:#000000;stroke-width:0.840064;stroke-linecap:butt;stroke-linejoin:round;stroke-miterlimit:4;stroke-dasharray:none;stroke-dashoffset:0;stroke-opacity:1"
             id="path72"
             sodipodi:sides="6"
             sodipodi:cx="389.90088"
             sodipodi:cy="1102.7913"
             sodipodi:r1="11.162703"
             sodipodi:r2="9.6671848"
             sodipodi:arg1="-1.0471976"
             sodipodi:arg2="-0.52359878"
             inkscape:flatsided="true"
             inkscape:rounded="0"
             inkscape:randomized="0"
             transform="matrix(5.3327119,0,0,5.3329799,-1909.9264,-4847.2379)"
             d="m 395.48223,1093.1241 5.58135,9.6672 -5.58135,9.6671 -11.1627,0 -5.58135,-9.6671 5.58135,-9.6672 z" />
          <path
             transform="matrix(5.3327119,0,0,5.3329799,-1909.9264,-4959.9165)"
             inkscape:randomized="0"
             inkscape:rounded="0"
             inkscape:flatsided="true"
             sodipodi:arg2="-0.52359878"
             sodipodi:arg1="-1.0471976"
             sodipodi:r2="9.6671848"
             sodipodi:r1="11.162703"
             sodipodi:cy="1102.7913"
             sodipodi:cx="389.90088"
             sodipodi:sides="6"
             id="path74"
             style="font-style:normal;font-weight:normal;font-size:medium;line-height:125%;font-family:sans-serif;letter-spacing:0px;word-spacing:0px;fill:#b3b3b3;fill-opacity:1;stroke:#000000;stroke-width:0.840064;stroke-linecap:butt;stroke-linejoin:round;stroke-miterlimit:4;stroke-dasharray:none;stroke-dashoffset:0;stroke-opacity:1"
             sodipodi:type="star"
             d="m 395.48223,1093.1241 5.58135,9.6672 -5.58135,9.6671 -11.1627,0 -5.58135,-9.6671 5.58135,-9.6672 z" />
          <path
             transform="matrix(5.3327119,0,0,5.3329799,-2203.8808,-5016.2118)"
             inkscape:randomized="0"
             inkscape:rounded="0"
             inkscape:flatsided="true"
             sodipodi:arg2="-0.52359878"
             sodipodi:arg1="-1.0471976"
             sodipodi:r2="9.6671848"
             sodipodi:r1="11.162703"
             sodipodi:cy="1102.7913"
             sodipodi:cx="389.90088"
             sodipodi:sides="6"
             id="path78"
             style="font-style:normal;font-weight:normal;font-size:medium;line-height:125%;font-family:sans-serif;letter-spacing:0px;word-spacing:0px;fill:#b3b3b3;fill-opacity:1;stroke:#000000;stroke-width:0.840064;stroke-linecap:butt;stroke-linejoin:round;stroke-miterlimit:4;stroke-dasharray:none;stroke-dashoffset:0;stroke-opacity:1"
             sodipodi:type="star"
             d="m 395.48223,1093.1241 5.58135,9.6672 -5.58135,9.6671 -11.1627,0 -5.58135,-9.6671 5.58135,-9.6672 z" />
          <path
             transform="matrix(5.3327119,0,0,5.3329799,-2203.8808,-4904.3581)"
             inkscape:randomized="0"
             inkscape:rounded="0"
             inkscape:flatsided="true"
             sodipodi:arg2="-0.52359878"
             sodipodi:arg1="-1.0471976"
             sodipodi:r2="9.6671848"
             sodipodi:r1="11.162703"
             sodipodi:cy="1102.7913"
             sodipodi:cx="389.90088"
             sodipodi:sides="6"
             id="path82"
             style="font-style:normal;font-weight:normal;font-size:medium;line-height:125%;font-family:sans-serif;letter-spacing:0px;word-spacing:0px;fill:#b3b3b3;fill-opacity:1;stroke:#000000;stroke-width:0.840064;stroke-linecap:butt;stroke-linejoin:round;stroke-miterlimit:4;stroke-dasharray:none;stroke-dashoffset:0;stroke-opacity:1"
             sodipodi:type="star"
             d="m 395.48223,1093.1241 5.58135,9.6672 -5.58135,9.6671 -11.1627,0 -5.58135,-9.6671 5.58135,-9.6672 z" />
          <path
             sodipodi:type="star"
             style="font-style:normal;font-weight:normal;font-size:medium;line-height:125%;font-family:sans-serif;letter-spacing:0px;word-spacing:0px;fill:#b3b3b3;fill-opacity:1;stroke:#000000;stroke-width:0.840064;stroke-linecap:butt;stroke-linejoin:round;stroke-miterlimit:4;stroke-dasharray:none;stroke-dashoffset:0;stroke-opacity:1"
             id="path86"
             sodipodi:sides="6"
             sodipodi:cx="389.90088"
             sodipodi:cy="1102.7913"
             sodipodi:r1="11.162703"
             sodipodi:r2="9.6671848"
             sodipodi:arg1="-1.0471976"
             sodipodi:arg2="-0.52359878"
             inkscape:flatsided="true"
             inkscape:rounded="0"
             inkscape:randomized="0"
             transform="matrix(5.3327119,0,0,5.3329799,-2106.4011,-5072.2752)"
             d="m 395.48223,1093.1241 5.58135,9.6672 -5.58135,9.6671 -11.1627,0 -5.58135,-9.6671 5.58135,-9.6672 z" />
          <path
             transform="matrix(5.3327119,0,0,5.3329799,-2106.4011,-4847.7429)"
             inkscape:randomized="0"
             inkscape:rounded="0"
             inkscape:flatsided="true"
             sodipodi:arg2="-0.52359878"
             sodipodi:arg1="-1.0471976"
             sodipodi:r2="9.6671848"
             sodipodi:r1="11.162703"
             sodipodi:cy="1102.7913"
             sodipodi:cx="389.90088"
             sodipodi:sides="6"
             id="path88"
             style="font-style:normal;font-weight:normal;font-size:medium;line-height:125%;font-family:sans-serif;letter-spacing:0px;word-spacing:0px;fill:#b3b3b3;fill-opacity:1;stroke:#000000;stroke-width:0.840064;stroke-linecap:butt;stroke-linejoin:round;stroke-miterlimit:4;stroke-dasharray:none;stroke-dashoffset:0;stroke-opacity:1"
             sodipodi:type="star"
             d="m 395.48223,1093.1241 5.58135,9.6672 -5.58135,9.6671 -11.1627,0 -5.58135,-9.6671 5.58135,-9.6672 z" />
          <path
             sodipodi:type="star"
             style="font-style:normal;font-weight:normal;font-size:medium;line-height:125%;font-family:sans-serif;font-variation-settings:normal;letter-spacing:0px;word-spacing:0px;opacity:1;vector-effect:none;fill:#e6e6e6;fill-opacity:1;stroke:#000000;stroke-width:0.840064;stroke-linecap:butt;stroke-linejoin:round;stroke-miterlimit:4;stroke-dasharray:none;stroke-dashoffset:0;stroke-opacity:1;stop-color:#000000;stop-opacity:1"
             id="path90"
             sodipodi:sides="6"
             sodipodi:cx="389.90088"
             sodipodi:cy="1102.7913"
             sodipodi:r1="11.162703"
             sodipodi:r2="9.6671848"
             sodipodi:arg1="-1.0471976"
             sodipodi:arg2="-0.52359878"
             inkscape:flatsided="true"
             inkscape:rounded="0"
             inkscape:randomized="0"
             transform="matrix(5.3327119,0,0,5.3329799,-2106.4011,-4960.4215)"
             d="m 395.48223,1093.1241 5.58135,9.6672 -5.58135,9.6671 -11.1627,0 -5.58135,-9.6671 5.58135,-9.6672 z" />
        </g>
        <path
           style="fill:#4d4d4d;fill-opacity:1;stroke:none;stroke-width:1;stroke-opacity:1"
           inkscape:connector-curvature="0"
           d="m 208.47861,911.56038 c -2.22264,0 -3.82116,1.17598 -4.74439,2.65328 -0.82568,1.32093 -1.16919,2.85327 -1.2362,4.19553 -2.51963,1.24563 -5.31091,2.5018 -7.55821,3.78609 -1.17886,0.67386 -2.20664,1.35136 -2.98028,2.0795 -0.77362,0.72814 -1.34444,1.54827 -1.34444,2.51536 0,0.4117 0.20121,0.74703 0.42725,0.99332 0.22694,0.24679 0.49837,0.43748 0.80771,0.61594 0.61865,0.35667 1.39859,0.6541 2.25657,0.91181 1.27459,0.38233 2.70202,0.66677 3.94316,0.78813 -1.23449,2.12757 -2.87737,4.08119 -4.31747,5.95312 -1.66427,2.1639 -3.11722,4.23895 -3.11722,6.5441 0,0.32912 -0.008,0.58633 0.0262,0.84479 0.0292,0.25978 0.10346,0.5803 0.36301,0.83601 0.25968,0.25451 0.57764,0.32416 0.83659,0.35221 0.25892,0.0282 0.51987,0.0282 0.85453,0.0282 h 9.18216 c 0.66654,0 1.15462,0.042 1.6567,-0.28186 0.50215,-0.32266 0.68525,-0.76347 1.043,-1.42227 h 0.008 l 0.008,-0.0289 c 0,0 0.80039,-1.62746 1.75538,-3.24268 0.47744,-0.80708 0.99583,-1.61133 1.44671,-2.18103 0.22589,-0.28495 0.43664,-0.51097 0.58858,-0.63854 0.0465,-0.0364 0.0678,-0.0464 0.0975,-0.0649 0.0299,0.0289 0.0509,0.0289 0.0975,0.0649 0.15182,0.12732 0.36305,0.35328 0.58858,0.63854 0.45087,0.5697 0.96924,1.37395 1.44671,2.18103 0.9549,1.61522 1.75538,3.24268 1.75538,3.24268 l 0.008,0.0289 h 0.008 c 0.35776,0.6588 0.53918,1.09704 1.03801,1.42051 0.49871,0.32334 0.98576,0.28494 1.6429,0.28494 h 9.22259 c 0.32927,0 0.5861,0 0.84326,-0.0282 0.2571,-0.0282 0.5761,-0.0987 0.83315,-0.35691 0.25682,-0.25978 0.32794,-0.57598 0.3564,-0.83318 0.0292,-0.25451 0.026,-0.51379 0.026,-0.84341 0,-2.3049 -1.45295,-4.3797 -3.11724,-6.5436 -1.44,-1.87212 -3.08288,-3.82587 -4.31744,-5.95338 1.24116,-0.12211 2.66861,-0.40573 3.94314,-0.78819 0.85796,-0.25972 1.63793,-0.55482 2.25656,-0.91174 0.30935,-0.1767 0.58102,-0.36966 0.80758,-0.61569 0.22667,-0.24673 0.4274,-0.58188 0.4274,-0.99364 0,-0.96708 -0.57082,-1.78696 -1.34442,-2.51535 -0.77368,-0.72783 -1.80144,-1.40558 -2.98025,-2.07944 -2.24736,-1.28423 -5.03859,-2.54027 -7.55827,-3.78616 -0.0671,-1.3422 -0.41058,-2.87459 -1.23617,-4.19552 -0.92324,-1.4773 -2.52174,-2.65328 -4.7444,-2.65328 z"
           id="path5096-9" />
      </g>
    </g>
  </g>
</svg>
