<?xml version="1.0" encoding="UTF-8" standalone="no"?>
<svg
   xmlns:dc="http://purl.org/dc/elements/1.1/"
   xmlns:cc="http://creativecommons.org/ns#"
   xmlns:rdf="http://www.w3.org/1999/02/22-rdf-syntax-ns#"
   xmlns:svg="http://www.w3.org/2000/svg"
   xmlns="http://www.w3.org/2000/svg"
   xmlns:sodipodi="http://sodipodi.sourceforge.net/DTD/sodipodi-0.dtd"
   xmlns:inkscape="http://www.inkscape.org/namespaces/inkscape"
   width="450"
   height="325"
   viewBox="0 0 450.00001 325"
   id="svg5199"
   version="1.1"
   inkscape:version="1.0.1 (3bc2e813f5, 2020-09-07)"
   sodipodi:docname="sick-him.svg">
  <defs
     id="defs5201" />
  <sodipodi:namedview
     id="base"
     pagecolor="#ffffff"
     bordercolor="#666666"
     borderopacity="1.0"
     inkscape:pageopacity="0.0"
     inkscape:pageshadow="2"
     inkscape:zoom="1.4"
     inkscape:cx="274.43639"
     inkscape:cy="320.14236"
     inkscape:document-units="px"
     inkscape:current-layer="layer1"
     showgrid="false"
     units="px"
     borderlayer="true"
     inkscape:window-width="1920"
     inkscape:window-height="1017"
     inkscape:window-x="1672"
     inkscape:window-y="134"
     inkscape:window-maximized="1"
     inkscape:snap-global="false"
     inkscape:document-rotation="0" />
  <metadata
     id="metadata5204">
    <rdf:RDF>
      <cc:Work
         rdf:about="">
        <dc:format>image/svg+xml</dc:format>
        <dc:type
           rdf:resource="http://purl.org/dc/dcmitype/StillImage" />
        <dc:title />
      </cc:Work>
    </rdf:RDF>
  </metadata>
  <g
     inkscape:label="Layer 1"
     inkscape:groupmode="layer"
     id="layer1"
     transform="translate(0,-727.36216)">
    <g
       id="g127"
       transform="matrix(1.2905351,0,0,1.2905351,26.945321,-211.75242)">
      <path
         sodipodi:type="star"
         style="font-style:normal;font-weight:normal;font-size:medium;line-height:125%;font-family:sans-serif;letter-spacing:0px;word-spacing:0px;fill:#b3b3b3;fill-opacity:1;stroke:#000000;stroke-width:0.840064;stroke-linecap:butt;stroke-linejoin:round;stroke-miterlimit:4;stroke-dasharray:none;stroke-dashoffset:0;stroke-opacity:1"
         id="path5084-7"
         sodipodi:sides="6"
         sodipodi:cx="389.90088"
         sodipodi:cy="1102.7913"
         sodipodi:r1="11.162703"
         sodipodi:r2="9.6671848"
         sodipodi:arg1="-1.0471976"
         sodipodi:arg2="-0.52359878"
         inkscape:flatsided="true"
         inkscape:rounded="0"
         inkscape:randomized="0"
         transform="matrix(2.7483711,1.5875102,-1.5868525,2.7497865,895.70379,-2791.5461)"
         d="m 395.48223,1093.1241 5.58135,9.6672 -5.58135,9.6671 -11.1627,0 -5.58135,-9.6671 5.58135,-9.6672 z" />
      <path
         transform="matrix(2.7483711,1.5875102,-1.5868525,2.7497865,929.34221,-2733.7606)"
         inkscape:randomized="0"
         inkscape:rounded="0"
         inkscape:flatsided="true"
         sodipodi:arg2="-0.52359878"
         sodipodi:arg1="-1.0471976"
         sodipodi:r2="9.6671848"
         sodipodi:r1="11.162703"
         sodipodi:cy="1102.7913"
         sodipodi:cx="389.90088"
         sodipodi:sides="6"
         id="path74"
         style="font-style:normal;font-weight:normal;font-size:medium;line-height:125%;font-family:sans-serif;letter-spacing:0px;word-spacing:0px;fill:#b3b3b3;fill-opacity:1;stroke:#000000;stroke-width:0.840064;stroke-linecap:butt;stroke-linejoin:round;stroke-miterlimit:4;stroke-dasharray:none;stroke-dashoffset:0;stroke-opacity:1"
         sodipodi:type="star"
         d="m 395.48223,1093.1241 5.58135,9.6672 -5.58135,9.6671 -11.1627,0 -5.58135,-9.6671 5.58135,-9.6672 z" />
      <path
         sodipodi:type="star"
         style="font-style:normal;font-weight:normal;font-size:medium;line-height:125%;font-family:sans-serif;letter-spacing:0px;word-spacing:0px;fill:#b3b3b3;fill-opacity:1;stroke:#000000;stroke-width:0.840064;stroke-linecap:butt;stroke-linejoin:round;stroke-miterlimit:4;stroke-dasharray:none;stroke-dashoffset:0;stroke-opacity:1"
         id="path86"
         sodipodi:sides="6"
         sodipodi:cx="389.90088"
         sodipodi:cy="1102.7913"
         sodipodi:r1="11.162703"
         sodipodi:r2="9.6671848"
         sodipodi:arg1="-1.0471976"
         sodipodi:arg2="-0.52359878"
         inkscape:flatsided="true"
         inkscape:rounded="0"
         inkscape:randomized="0"
         transform="matrix(2.7483711,1.5875102,-1.5868525,2.7497865,861.516,-2850.184)"
         d="m 395.48223,1093.1241 5.58135,9.6672 -5.58135,9.6671 -11.1627,0 -5.58135,-9.6671 5.58135,-9.6672 z" />
      <path
         style="fill:#4d4d4d;fill-opacity:1;stroke:none;stroke-width:1;stroke-opacity:1"
         inkscape:connector-curvature="0"
         d="m 250.62147,899.13081 c -2.22264,0 -3.82116,1.17598 -4.74439,2.65328 -0.82568,1.32093 -1.16919,2.85327 -1.2362,4.19553 -2.51963,1.24563 -5.31091,2.5018 -7.55821,3.78609 -1.17886,0.67386 -2.20664,1.35136 -2.98028,2.0795 -0.77362,0.72814 -1.34444,1.54827 -1.34444,2.51536 0,0.4117 0.20121,0.74703 0.42725,0.99332 0.22694,0.24679 0.49837,0.43748 0.80771,0.61594 0.61865,0.35667 1.39859,0.6541 2.25657,0.91181 1.27459,0.38233 2.70202,0.66677 3.94316,0.78813 -1.23449,2.12757 -2.87737,4.08119 -4.31747,5.95312 -1.66427,2.1639 -3.11722,4.23895 -3.11722,6.5441 0,0.32912 -0.008,0.58633 0.0262,0.84479 0.0292,0.25978 0.10346,0.5803 0.36301,0.83601 0.25968,0.25451 0.57764,0.32416 0.83659,0.35221 0.25892,0.0282 0.51987,0.0282 0.85453,0.0282 h 9.18216 c 0.66654,0 1.15462,0.042 1.6567,-0.28186 0.50215,-0.32266 0.68525,-0.76347 1.043,-1.42227 h 0.008 l 0.008,-0.0289 c 0,0 0.80039,-1.62746 1.75538,-3.24268 0.47744,-0.80708 0.99583,-1.61133 1.44671,-2.18103 0.22589,-0.28495 0.43664,-0.51097 0.58858,-0.63854 0.0465,-0.0364 0.0678,-0.0464 0.0975,-0.0649 0.0299,0.0289 0.0509,0.0289 0.0975,0.0649 0.15182,0.12732 0.36305,0.35328 0.58858,0.63854 0.45087,0.5697 0.96924,1.37395 1.44671,2.18103 0.9549,1.61522 1.75538,3.24268 1.75538,3.24268 l 0.008,0.0289 h 0.008 c 0.35776,0.6588 0.53918,1.09704 1.03801,1.42051 0.49871,0.32334 0.98576,0.28494 1.6429,0.28494 h 9.22259 c 0.32927,0 0.5861,0 0.84326,-0.0282 0.2571,-0.0282 0.5761,-0.0987 0.83315,-0.35691 0.25682,-0.25978 0.32794,-0.57598 0.3564,-0.83318 0.0292,-0.25451 0.026,-0.51379 0.026,-0.84341 0,-2.3049 -1.45295,-4.3797 -3.11724,-6.5436 -1.44,-1.87212 -3.08288,-3.82587 -4.31744,-5.95338 1.24116,-0.12211 2.66861,-0.40573 3.94314,-0.78819 0.85796,-0.25972 1.63793,-0.55482 2.25656,-0.91174 0.30935,-0.1767 0.58102,-0.36966 0.80758,-0.61569 0.22667,-0.24673 0.4274,-0.58188 0.4274,-0.99364 0,-0.96708 -0.57082,-1.78696 -1.34442,-2.51535 -0.77368,-0.72783 -1.80144,-1.40558 -2.98025,-2.07944 -2.24736,-1.28423 -5.03859,-2.54027 -7.55827,-3.78616 -0.0671,-1.3422 -0.41058,-2.87459 -1.23617,-4.19552 -0.92324,-1.4773 -2.52174,-2.65328 -4.7444,-2.65328 z"
         id="path5096-9" />
      <g
         id="g4555"
         transform="matrix(0.46868485,0,0,0.46868485,-263.53085,707.66769)">
        <circle
           r="46.601688"
           cy="180.0994"
           cx="-659.98737"
           id="circle4551"
           style="font-style:italic;font-variant:normal;font-weight:normal;font-stretch:normal;font-size:medium;line-height:30.5494px;font-family:'Archivo Narrow';-inkscape-font-specification:'Archivo Narrow Italic';text-align:center;letter-spacing:0px;word-spacing:0px;writing-mode:lr-tb;text-anchor:middle;fill:#000000;fill-opacity:1;stroke:none;stroke-width:3.10678;stroke-linecap:butt;stroke-linejoin:miter;stroke-miterlimit:4;stroke-dasharray:none;stroke-opacity:1"
           transform="scale(-1,1)" />
        <path
           id="path4553"
           style="font-style:italic;font-variant:normal;font-weight:normal;font-stretch:normal;font-size:medium;line-height:30.5494px;font-family:'Archivo Narrow';-inkscape-font-specification:'Archivo Narrow Italic';text-align:center;letter-spacing:0px;word-spacing:0px;writing-mode:lr-tb;text-anchor:middle;display:inline;fill:#ffffff;fill-opacity:1;stroke:none;stroke-width:0.882033;stroke-linecap:butt;stroke-linejoin:miter;stroke-miterlimit:4;stroke-dasharray:none;stroke-opacity:1"
           d="m 626.45167,178.07501 c -0.41404,4.27833 -0.71617,8.54816 -0.54751,12.90075 l 9.46716,9.46715 c -2.74128,-9.87289 -3.62812,-21.02367 1.50716,-32.70635 l -0.0795,-0.0106 z m 11.98826,-7.45365 c -4.67947,12.13242 -2.67997,23.56547 0.79653,33.6867 l 6.55976,6.55976 c 1.21957,-1.03787 2.4725,-1.9273 3.77447,-2.67128 -1.22402,-0.24852 -2.40279,-0.59761 -3.38913,-1.11266 -1.37969,-0.72062 -2.5621,-2.03175 -3.54741,-3.18746 -0.9852,-1.15567 -1.70427,-2.17242 -1.70427,-2.17242 l 2.10246,-1.4872 c 0,0 0.66052,0.92994 1.56336,1.98904 0.90329,1.05891 2.11836,2.23088 2.77808,2.57516 1.21847,0.63647 3.80933,1.11766 5.9892,1.33174 0.29704,0.03 0.59476,0.054 0.89234,0.077 1.17347,-0.33904 2.39004,-0.58371 3.66287,-0.73578 6.14016,-0.73288 13.45289,0.5599 23.29564,3.18552 2.34277,-1.02686 5.14411,-3.15112 7.572,-5.4668 -0.24302,-0.045 -0.48355,-0.10902 -0.71718,-0.18952 -1.41934,-0.49405 -2.66656,-1.79958 -2.80092,-3.55081 -0.12754,-1.65801 -0.0666,-3.70358 0.63456,-5.56221 0.30654,-0.81303 0.78043,-1.5993 1.41999,-2.25167 l 0.02,-0.02 -8.17772,-4.48665 c -1.31654,-0.50825 -2.29038,-1.43495 -2.955,-2.48335 -0.68287,-1.07747 -1.091,-2.27678 -1.442,-3.47256 -0.70031,-2.38829 -1.22087,-4.76927 -2.37463,-6.21006 -2.4344,-2.95065 -6.10142,-3.51361 -9.93789,-5.03482 l -0.36354,-0.14401 -0.21902,-0.32104 c -3.37294,-4.87948 -4.18642,-10.9539 -4.9321,-17.15202 -5.51365,4.51236 -9.69142,12.79884 -13.00865,18.98066 l -0.54051,1.00225 -1.05931,-0.41104 c -1.34592,-0.51921 -2.64361,-0.93769 -3.89499,-1.26173 z m 40.72793,16.50727 c 0.04,0.0106 0.073,0.03 0.11246,0.04 l -0.18052,-0.0815 z m -18.08695,-34.20766 c -0.44705,0.44555 -0.87874,0.90705 -1.28558,1.3903 0.69127,5.09302 1.62316,9.72933 4.00101,13.35515 0.25802,0.097 0.52115,0.19102 0.78742,0.28302 -0.85978,-5.89215 -1.24913,-12.10072 0.8923,-18.61847 -1.73648,1.18552 -3.18668,2.38604 -4.3953,3.58986 z m 28.20957,40.06599 c 4.34779,3.09386 2.60187,5.27123 0.85184,7.68722 1.14911,-0.65696 4.44099,-3.18386 3.92065,-5.32527 -0.41905,-1.72493 -3.3368,-2.18998 -4.77249,-2.36195 z m -24.05355,-14.59552 c 1.96649,0.78268 3.57479,2.17172 5.17995,3.59747 -1.27267,1.56346 -2.5394,1.65726 -4.10991,1.37174 -1.80332,-1.34609 -2.77657,-3.33889 -2.81377,-5.46981 0.61432,0.11206 1.19362,0.28153 1.74398,0.50066 z"
           inkscape:connector-curvature="0" />
      </g>
      <g
         id="g103">
        <path
           transform="matrix(2.7483711,1.5875102,-1.5868525,2.7497865,794.59502,-2850.2957)"
           inkscape:randomized="0"
           inkscape:rounded="0"
           inkscape:flatsided="true"
           sodipodi:arg2="-0.52359878"
           sodipodi:arg1="-1.0471976"
           sodipodi:r2="9.6671848"
           sodipodi:r1="11.162703"
           sodipodi:cy="1102.7913"
           sodipodi:cx="389.90088"
           sodipodi:sides="6"
           id="path78"
           style="font-style:normal;font-weight:normal;font-size:medium;line-height:125%;font-family:sans-serif;letter-spacing:0px;word-spacing:0px;fill:#b3b3b3;fill-opacity:1;stroke:#000000;stroke-width:0.840064;stroke-linecap:butt;stroke-linejoin:round;stroke-miterlimit:4;stroke-dasharray:none;stroke-dashoffset:0;stroke-opacity:1"
           sodipodi:type="star"
           d="m 395.48223,1093.1241 5.58135,9.6672 -5.58135,9.6671 -11.1627,0 -5.58135,-9.6671 5.58135,-9.6672 z" />
        <g
           id="g21"
           transform="matrix(0.4760118,0,0,0.4760118,52.888022,793.3381)">
          <path
             inkscape:connector-curvature="0"
             d="m 150.17453,27.451513 c 0.16879,1.743758 0.29199,3.484046 0.22317,5.258065 l -3.85982,3.858603 c 1.11763,-4.023976 1.4792,-8.568785 -0.61449,-13.330396 l 0.032,-0.0041 z m -4.88769,-3.037946 c 1.90785,4.944914 1.09264,9.604769 -0.32478,13.729957 l -2.67446,2.673617 c -0.49721,-0.422971 -1.00805,-0.785527 -1.53887,-1.088747 0.49903,-0.101272 0.97963,-0.243578 1.38178,-0.453491 0.56251,-0.293679 1.04458,-0.8281 1.44629,-1.299149 0.40165,-0.471037 0.69483,-0.885423 0.69483,-0.885423 l -0.8572,-0.606181 c 0,0 -0.26929,0.379039 -0.63743,0.810696 -0.36823,0.431594 -0.86366,0.909254 -1.13263,1.049571 -0.49677,0.259405 -1.55309,0.455509 -2.44183,0.542766 -0.12114,0.01275 -0.24248,0.02241 -0.36386,0.03172 -0.4784,-0.138136 -0.97444,-0.237855 -1.49337,-0.299852 -2.50339,-0.298609 -5.48483,0.228232 -9.49779,1.29835 -0.95517,-0.418568 -2.09729,-1.28433 -3.08715,-2.228151 0.0991,-0.01794 0.19713,-0.04479 0.29243,-0.07724 0.57869,-0.20134 1.08717,-0.73347 1.14196,-1.447237 0.0522,-0.675738 0.0272,-1.509493 -0.25878,-2.267034 -0.12496,-0.331404 -0.31816,-0.651878 -0.57901,-0.917729 l -0.008,-0.0079 3.33411,-1.82866 c 0.53672,-0.207063 0.93381,-0.584729 1.20477,-1.012079 0.27843,-0.439193 0.44481,-0.927963 0.58794,-1.415336 0.28551,-0.973415 0.49778,-1.943854 0.96815,-2.531091 0.99252,-1.202621 2.48759,-1.432071 4.05174,-2.052077 l 0.1482,-0.05851 0.0893,-0.1309 c 1.37517,-1.988772 1.70684,-4.464569 2.01085,-6.990784 2.24796,1.839135 3.95126,5.216525 5.30372,7.736105 l 0.2204,0.408437 0.43187,-0.16751 c 0.54874,-0.211649 1.07783,-0.382207 1.58801,-0.51426 z m -16.60506,6.728005 c -0.0159,0.0041 -0.029,0.01275 -0.046,0.01656 l 0.0736,-0.03379 z m 7.37418,-13.94229 c 0.18231,0.181581 0.35826,0.369678 0.52408,0.566674 -0.28185,2.075794 -0.66179,3.965458 -1.63124,5.44326 -0.10513,0.03979 -0.21247,0.07786 -0.32099,0.115374 0.35051,-2.401509 0.50924,-4.931995 -0.36385,-7.588483 0.70797,0.483187 1.29922,0.972502 1.79199,1.463146 z m -11.50124,16.330022 c -1.77262,1.260986 -1.0608,2.148428 -0.34729,3.133135 -0.46836,-0.267964 -1.81061,-1.297672 -1.59847,-2.170467 0.17086,-0.703066 1.36044,-0.892582 1.94578,-0.962665 z m 9.80681,-5.948825 c -0.80176,0.319024 -1.45748,0.885142 -2.11191,1.466249 0.51892,0.63722 1.03533,0.675468 1.67564,0.55912 0.73522,-0.548616 1.13202,-1.360852 1.1472,-2.229371 -0.25047,0.04593 -0.48664,0.114755 -0.71105,0.204026 z"
             style="font-variation-settings:normal;display:inline;vector-effect:none;fill:#000000;fill-opacity:1;stroke:none;stroke-width:0.47321;stroke-linecap:round;stroke-linejoin:round;stroke-miterlimit:4;stroke-dasharray:none;stroke-dashoffset:0;stroke-opacity:1;paint-order:markers fill stroke;stop-color:#000000"
             id="path25834-6-8" />
          <path
             id="rect8-6-4"
             style="font-variation-settings:normal;display:inline;vector-effect:none;fill:#000000;fill-opacity:1;stroke-width:0.47321;stroke-linecap:round;stroke-linejoin:round;stroke-miterlimit:4;stroke-dasharray:none;stroke-dashoffset:0;stroke-opacity:1;paint-order:markers fill stroke;stop-color:#000000"
             d="M 133.04917,-30.62242 86.551233,15.873968 h 6.993371 l 39.505076,-39.503533 39.50199,39.503533 h 6.99234 z m 5.3e-4,14.628048 -32.87965,32.878096 V 46.49742 h 15.52722 V 27.180254 a 17.350431,17.350431 0 0 1 0,-0.162264 17.350431,17.350431 0 0 1 17.19688,-17.3503644 17.350431,17.350431 0 0 1 0.15348,0 17.350431,17.350431 0 0 1 17.35191,17.3503644 17.350431,17.350431 0 0 1 -0.002,0.162264 h 0.002 V 46.49742 h 15.52567 V 16.882692 Z" />
        </g>
      </g>
      <path
         sodipodi:nodetypes="scccccscs"
         inkscape:connector-curvature="0"
         d="m 78.56268,752.80282 c 7.857122,-0.30702 16.624542,6.69917 17.401496,13.64142 l 6.134194,-2.54248 -6.450904,20.88663 -13.134787,-12.77304 6.663153,-2.75986 c 0.58144,-6.88151 -13.262904,-8.15413 -14.658651,-8.0743 -1.485751,0.0849 -9.639742,-0.0598 -18.715177,8.02754 7.077459,-14.15903 12.946643,-16.02249 22.760676,-16.40591 z"
         id="path5203"
         style="font-style:italic;font-variant:normal;font-weight:normal;font-stretch:normal;font-size:medium;line-height:30.5494px;font-family:'Archivo Narrow';-inkscape-font-specification:'Archivo Narrow Italic';text-align:center;letter-spacing:0px;word-spacing:0px;writing-mode:lr-tb;text-anchor:middle;fill:#000000;fill-opacity:1;stroke:none;stroke-width:0.432849;stroke-linecap:butt;stroke-linejoin:miter;stroke-opacity:1" />
      <path
         sodipodi:nodetypes="scccccscs"
         inkscape:connector-curvature="0"
         d="m 150.94953,770.23706 c 7.50993,-2.33013 17.79194,2.16815 20.3392,8.67276 l 5.26714,-4.04349 -0.82524,21.84455 -15.99313,-8.93828 5.72181,-4.39037 c -1.21944,-6.79751 -14.92143,-4.44359 -16.24895,-4.00523 -1.41316,0.46654 -9.32676,2.43718 -15.9998,12.59785 3.17167,-15.50836 8.35857,-18.82738 17.73897,-21.73779 z"
         id="path105"
         style="font-style:italic;font-variant:normal;font-weight:normal;font-stretch:normal;font-size:medium;line-height:30.5494px;font-family:'Archivo Narrow';-inkscape-font-specification:'Archivo Narrow Italic';text-align:center;letter-spacing:0px;word-spacing:0px;writing-mode:lr-tb;text-anchor:middle;fill:#000000;fill-opacity:1;stroke:none;stroke-width:0.432849;stroke-linecap:butt;stroke-linejoin:miter;stroke-opacity:1" />
      <path
         sodipodi:nodetypes="scccccscs"
         inkscape:connector-curvature="0"
         d="m 212.66998,814.45561 c 6.95797,3.66267 11.04768,14.11392 8.24941,20.51456 l 6.58361,0.86525 -16.02996,14.86289 -4.98853,-17.62916 7.15039,0.94147 c 3.94429,-5.66884 -7.40895,-13.69314 -8.65762,-14.32187 -1.32915,-0.66936 -8.31836,-4.87167 -20.22159,-2.40554 13.20878,-8.72336 19.22337,-7.40257 27.91429,-2.8276 z"
         id="path107"
         style="font-style:italic;font-variant:normal;font-weight:normal;font-stretch:normal;font-size:medium;line-height:30.5494px;font-family:'Archivo Narrow';-inkscape-font-specification:'Archivo Narrow Italic';text-align:center;letter-spacing:0px;word-spacing:0px;writing-mode:lr-tb;text-anchor:middle;fill:#000000;fill-opacity:1;stroke:none;stroke-width:0.432849;stroke-linecap:butt;stroke-linejoin:miter;stroke-opacity:1" />
      <path
         sodipodi:nodetypes="scccccscs"
         inkscape:connector-curvature="0"
         d="m 264.09855,870.88418 c 6.95797,3.66267 11.04768,14.11392 8.24941,20.51456 l 6.58361,0.86525 -16.02996,14.86289 -4.98853,-17.62916 7.15039,0.94147 c 3.94429,-5.66884 -7.40895,-13.69314 -8.65762,-14.32187 -1.32915,-0.66936 -8.31836,-4.87167 -20.22159,-2.40554 13.20878,-8.72336 19.22337,-7.40257 27.91429,-2.8276 z"
         id="path109"
         style="font-style:italic;font-variant:normal;font-weight:normal;font-stretch:normal;font-size:medium;line-height:30.5494px;font-family:'Archivo Narrow';-inkscape-font-specification:'Archivo Narrow Italic';text-align:center;letter-spacing:0px;word-spacing:0px;writing-mode:lr-tb;text-anchor:middle;fill:#000000;fill-opacity:1;stroke:none;stroke-width:0.432849;stroke-linecap:butt;stroke-linejoin:miter;stroke-opacity:1" />
    </g>
  </g>
</svg>
