<?xml version="1.0" encoding="UTF-8" standalone="no"?>
<svg
   xmlns:dc="http://purl.org/dc/elements/1.1/"
   xmlns:cc="http://creativecommons.org/ns#"
   xmlns:rdf="http://www.w3.org/1999/02/22-rdf-syntax-ns#"
   xmlns:svg="http://www.w3.org/2000/svg"
   xmlns="http://www.w3.org/2000/svg"
   xmlns:sodipodi="http://sodipodi.sourceforge.net/DTD/sodipodi-0.dtd"
   xmlns:inkscape="http://www.inkscape.org/namespaces/inkscape"
   width="450"
   height="325"
   viewBox="0 0 450.00001 325"
   id="svg5199"
   version="1.1"
   inkscape:version="1.0 (4035a4fb49, 2020-05-01)"
   sodipodi:docname="stage-whisper.svg">
  <defs
     id="defs5201" />
  <sodipodi:namedview
     inkscape:snap-global="false"
     id="base"
     pagecolor="#ffffff"
     bordercolor="#666666"
     borderopacity="1.0"
     inkscape:pageopacity="0.0"
     inkscape:pageshadow="2"
     inkscape:zoom="1.4"
     inkscape:cx="367.28564"
     inkscape:cy="147.82036"
     inkscape:document-units="px"
     inkscape:current-layer="layer1"
     showgrid="false"
     units="px"
     borderlayer="true"
     inkscape:window-width="1920"
     inkscape:window-height="1017"
     inkscape:window-x="-8"
     inkscape:window-y="-8"
     inkscape:window-maximized="1"
     inkscape:document-rotation="0" />
  <metadata
     id="metadata5204">
    <rdf:RDF>
      <cc:Work
         rdf:about="">
        <dc:format>image/svg+xml</dc:format>
        <dc:type
           rdf:resource="http://purl.org/dc/dcmitype/StillImage" />
        <dc:title />
      </cc:Work>
    </rdf:RDF>
  </metadata>
  <g
     inkscape:label="Layer 1"
     inkscape:groupmode="layer"
     id="layer1"
     transform="translate(0,-727.36216)">
    <g
       transform="translate(0,-31.722196)"
       id="g191">
      <path
         d="m 412.98949,1103.3571 5.58135,9.6672 -5.58135,9.6672 -11.1627,0 -5.58135,-9.6672 5.58135,-9.6672 z"
         transform="matrix(-4.8803324,2.817318,2.8266949,4.8953829,-875.3381,-5613.9503)"
         sodipodi:type="star"
         style="font-style:normal;font-weight:normal;font-size:medium;line-height:125%;font-family:sans-serif;letter-spacing:0px;word-spacing:0px;fill:#b3b3b3;fill-opacity:1;stroke:#000000;stroke-width:0.658152;stroke-linecap:butt;stroke-linejoin:round;stroke-miterlimit:4;stroke-dasharray:none;stroke-dashoffset:0;stroke-opacity:1"
         id="path5092"
         sodipodi:sides="6"
         sodipodi:cx="407.40814"
         sodipodi:cy="1113.0243"
         sodipodi:r1="11.162703"
         sodipodi:r2="9.6671848"
         sodipodi:arg1="-1.0471976"
         sodipodi:arg2="-0.52359878"
         inkscape:flatsided="true"
         inkscape:rounded="0"
         inkscape:randomized="0" />
      <path
         d="m 412.98949,1103.3571 5.58135,9.6672 -5.58135,9.6672 -11.1627,0 -5.58135,-9.6672 5.58135,-9.6672 z"
         inkscape:randomized="0"
         inkscape:rounded="0"
         inkscape:flatsided="true"
         sodipodi:arg2="-0.52359878"
         sodipodi:arg1="-1.0471976"
         sodipodi:r2="9.6671848"
         sodipodi:r1="11.162703"
         sodipodi:cy="1113.0243"
         sodipodi:cx="407.40814"
         sodipodi:sides="6"
         id="path64"
         style="font-style:normal;font-weight:normal;font-size:medium;line-height:125%;font-family:sans-serif;letter-spacing:0px;word-spacing:0px;fill:#b3b3b3;fill-opacity:1;stroke:#000000;stroke-width:0.658152;stroke-linecap:butt;stroke-linejoin:round;stroke-miterlimit:4;stroke-dasharray:none;stroke-dashoffset:0;stroke-opacity:1"
         sodipodi:type="star"
         transform="matrix(-4.8803324,2.817318,2.8266949,4.8953829,-990.44776,-5614.6767)" />
      <path
         style="fill:#4d4d4d;fill-opacity:1;stroke:none;stroke-width:0.565639;stroke-opacity:1"
         inkscape:connector-curvature="0"
         d="m 190.79106,958.85409 c 2.84988,0 4.8995,1.51241 6.08328,3.41238 1.05868,1.69883 1.49915,3.6696 1.58507,5.39584 3.23068,1.60199 6.80967,3.21763 9.69117,4.86935 1.51155,0.86662 2.82937,1.73795 3.82133,2.67441 0.99195,0.93645 1.72386,1.99117 1.72386,3.23498 0,0.52952 -0.25799,0.96083 -0.54782,1.27751 -0.29099,0.31739 -0.63901,0.56265 -1.03566,0.79217 -0.79323,0.45871 -1.79328,0.84123 -2.89339,1.17265 -1.63428,0.49177 -3.46454,0.8576 -5.05594,1.01362 1.58288,2.7362 3.68938,5.24887 5.53589,7.65632 2.13394,2.78296 3.99692,5.45166 3.99692,8.41632 0,0.42333 0.0102,0.75405 -0.0336,1.08648 -0.0374,0.33408 -0.13265,0.74638 -0.46547,1.07518 -0.33297,0.3273 -0.74064,0.4169 -1.07268,0.453 -0.33198,0.037 -0.66657,0.037 -1.09567,0.037 h -11.7734 c -0.85464,0 -1.48046,0.054 -2.12424,-0.3626 -0.64385,-0.4149 -0.87862,-0.9818 -1.33733,-1.82908 h -0.0102 l -0.0102,-0.0366 c 0,0 -1.02626,-2.09306 -2.25076,-4.17043 -0.61217,-1.03802 -1.27686,-2.07235 -1.85498,-2.80501 -0.28964,-0.3665 -0.55985,-0.65715 -0.75468,-0.82119 -0.0596,-0.0467 -0.087,-0.0602 -0.12499,-0.0836 -0.0383,0.0368 -0.0652,0.0368 -0.12499,0.0836 -0.19465,0.1637 -0.4655,0.45437 -0.75467,0.82119 -0.57812,0.73266 -1.24276,1.76699 -1.85499,2.80501 -1.22437,2.07737 -2.25075,4.17043 -2.25075,4.17043 l -0.0102,0.0366 h -0.0102 c -0.45873,0.84728 -0.69135,1.41088 -1.33096,1.82678 -0.63945,0.4159 -1.26394,0.3665 -2.10654,0.3665 h -11.82541 c -0.42219,0 -0.75151,0 -1.08124,-0.037 -0.32965,-0.037 -0.73868,-0.1269 -1.06826,-0.459 -0.32929,-0.3341 -0.42049,-0.7407 -0.45698,-1.07143 -0.0374,-0.32741 -0.0333,-0.66084 -0.0333,-1.08478 0,-2.96437 1.86298,-5.63274 3.99695,-8.41571 1.84638,-2.40777 3.95288,-4.92045 5.53586,-7.65664 -1.59144,-0.15703 -3.4217,-0.52185 -5.05593,-1.01363 -1.10008,-0.33409 -2.10018,-0.71361 -2.89338,-1.17264 -0.39666,-0.22719 -0.745,-0.47542 -1.03548,-0.79179 -0.29064,-0.31739 -0.54802,-0.74837 -0.54802,-1.2779 0,-1.24381 0.73191,-2.2982 1.72382,-3.23498 0.99202,-0.93611 2.30983,-1.80776 3.8213,-2.67437 2.88158,-1.65175 6.46052,-3.26707 9.69127,-4.86936 0.0859,-1.72624 0.52645,-3.69703 1.58503,-5.39586 1.18378,-1.89997 3.23338,-3.41239 6.08329,-3.41239 z"
         id="path66" />
      <path
         id="path102"
         d="m 142.33792,958.85409 c 2.84987,0 4.8995,1.51241 6.08327,3.41238 1.05869,1.69883 1.49916,3.6696 1.58508,5.39584 3.23068,1.60199 6.80967,3.21763 9.69116,4.86935 1.51155,0.86662 2.82938,1.73795 3.82133,2.67441 0.99195,0.93645 1.72386,1.99117 1.72386,3.23498 0,0.52952 -0.25798,0.96083 -0.54782,1.27751 -0.29098,0.31739 -0.63901,0.56265 -1.03565,0.79217 -0.79324,0.45871 -1.79329,0.84123 -2.8934,1.17265 -1.63427,0.49177 -3.46453,0.8576 -5.05593,1.01362 1.58287,2.7362 3.68937,5.24887 5.53588,7.65632 2.13394,2.78296 3.99692,5.45166 3.99692,8.41632 0,0.42333 0.0102,0.75405 -0.0336,1.08648 -0.0374,0.33408 -0.13264,0.74638 -0.46546,1.07518 -0.33296,0.3273 -0.74064,0.4169 -1.07268,0.453 -0.33198,0.037 -0.66657,0.037 -1.09567,0.037 h -11.77344 c -0.85463,0 -1.48045,0.054 -2.12423,-0.3626 -0.64385,-0.4149 -0.87862,-0.9818 -1.33733,-1.82908 h -0.0102 l -0.0102,-0.0366 c 0,0 -1.02626,-2.09306 -2.25075,-4.17043 -0.61218,-1.03802 -1.27687,-2.07235 -1.85498,-2.80501 -0.28965,-0.3665 -0.55986,-0.65715 -0.75468,-0.82119 -0.0596,-0.0467 -0.087,-0.0602 -0.12499,-0.0836 -0.0383,0.0368 -0.0653,0.0368 -0.12499,0.0836 -0.19466,0.1637 -0.46551,0.45437 -0.75468,0.82119 -0.57812,0.73266 -1.24276,1.76699 -1.85498,2.80501 -1.22437,2.07737 -2.25076,4.17043 -2.25076,4.17043 l -0.0102,0.0366 h -0.0102 c -0.45873,0.84728 -0.69135,1.41088 -1.33096,1.82678 -0.63945,0.4159 -1.26393,0.3665 -2.10654,0.3665 h -11.82526 c -0.4222,0 -0.75152,0 -1.08125,-0.037 -0.32965,-0.037 -0.73867,-0.1269 -1.06825,-0.459 -0.3293,-0.3341 -0.42049,-0.7407 -0.45699,-1.07143 -0.0374,-0.32741 -0.0333,-0.66084 -0.0333,-1.08478 0,-2.96437 1.86298,-5.63274 3.99696,-8.41571 1.84638,-2.40777 3.95288,-4.92045 5.53585,-7.65664 -1.59144,-0.15703 -3.4217,-0.52185 -5.05592,-1.01363 -1.10008,-0.33409 -2.10018,-0.71361 -2.89338,-1.17264 -0.39666,-0.22719 -0.745,-0.47542 -1.03548,-0.79179 -0.29065,-0.31739 -0.54803,-0.74837 -0.54803,-1.2779 0,-1.24381 0.73192,-2.2982 1.72383,-3.23498 0.99202,-0.93611 2.30982,-1.80776 3.8213,-2.67437 2.88158,-1.65175 6.46051,-3.26707 9.69126,-4.86936 0.0859,-1.72624 0.52645,-3.69703 1.58503,-5.39586 1.18379,-1.89997 3.23339,-3.41239 6.0833,-3.41239 z"
         inkscape:connector-curvature="0"
         style="fill:#4d4d4d;fill-opacity:1;stroke:none;stroke-width:0.565639;stroke-opacity:1" />
      <path
         id="path112"
         d="m 282.55803,961.24299 c 2.84988,0 4.8995,1.51241 6.08328,3.41238 1.05868,1.69883 1.49915,3.6696 1.58507,5.39584 3.23068,1.60199 6.80967,3.21763 9.69117,4.86935 1.51155,0.86662 2.82937,1.73795 3.82133,2.67441 0.99195,0.93645 1.72386,1.99117 1.72386,3.23498 0,0.52952 -0.25799,0.96083 -0.54782,1.27751 -0.29099,0.31739 -0.63901,0.56265 -1.03566,0.79217 -0.79323,0.45871 -1.79328,0.84123 -2.89339,1.17265 -1.63428,0.49177 -3.46454,0.8576 -5.05594,1.01362 1.58288,2.7362 3.68938,5.24887 5.53589,7.65632 2.13394,2.78296 3.99692,5.45166 3.99692,8.41628 0,0.4234 0.0102,0.7541 -0.0336,1.0865 -0.0374,0.3341 -0.13265,0.7464 -0.46547,1.0752 -0.33297,0.3273 -0.74064,0.4169 -1.07268,0.453 -0.33198,0.037 -0.66657,0.037 -1.09567,0.037 h -11.77341 c -0.85463,0 -1.48045,0.054 -2.12423,-0.3626 -0.64386,-0.4149 -0.87862,-0.9818 -1.33733,-1.8291 h -0.0102 l -0.0102,-0.037 c 0,0 -1.02626,-2.09304 -2.25076,-4.17041 -0.61217,-1.03802 -1.27686,-2.07235 -1.85498,-2.80501 -0.28964,-0.3665 -0.55985,-0.65715 -0.75468,-0.82119 -0.0596,-0.0467 -0.087,-0.0602 -0.12499,-0.0836 -0.0383,0.0368 -0.0653,0.0368 -0.12499,0.0836 -0.19465,0.1637 -0.4655,0.45437 -0.75467,0.82119 -0.57812,0.73266 -1.24276,1.76699 -1.85499,2.80501 -1.22437,2.07737 -2.25075,4.17041 -2.25075,4.17041 l -0.0102,0.037 h -0.0102 c -0.45873,0.8473 -0.69136,1.4109 -1.33096,1.8268 -0.63945,0.4159 -1.26394,0.3665 -2.10654,0.3665 h -11.82541 c -0.42219,0 -0.75151,0 -1.08124,-0.037 -0.32965,-0.037 -0.73868,-0.1269 -1.06826,-0.459 -0.3293,-0.3341 -0.42049,-0.7407 -0.45699,-1.0714 -0.0374,-0.3274 -0.0333,-0.6609 -0.0333,-1.0848 0,-2.96438 1.86299,-5.63275 3.99696,-8.41572 1.84638,-2.40777 3.95288,-4.92045 5.53585,-7.65664 -1.59143,-0.15703 -3.42169,-0.52185 -5.05592,-1.01363 -1.10008,-0.33409 -2.10018,-0.71361 -2.89338,-1.17264 -0.39666,-0.22719 -0.745,-0.47542 -1.03548,-0.79179 -0.29064,-0.31739 -0.54803,-0.74837 -0.54803,-1.2779 0,-1.24381 0.73192,-2.2982 1.72383,-3.23498 0.99202,-0.93611 2.30983,-1.80776 3.8213,-2.67437 2.88158,-1.65175 6.46052,-3.26707 9.69127,-4.86936 0.0859,-1.72624 0.52645,-3.69703 1.58503,-5.39586 1.18378,-1.89997 3.23338,-3.41239 6.08329,-3.41239 z"
         inkscape:connector-curvature="0"
         style="fill:#4d4d4d;fill-opacity:1;stroke:none;stroke-width:0.565639;stroke-opacity:1" />
    </g>
    <g
       style="stroke-width:0.910752"
       transform="matrix(1.0971453,0,0,1.0988421,-184.6172,-155.90903)"
       id="g107">
      <path
         style="fill:#000000;fill-opacity:1;stroke:none;stroke-width:1.00274;stroke-linecap:round;stroke-linejoin:round;stroke-miterlimit:4;stroke-dasharray:none;stroke-dashoffset:0;stroke-opacity:1"
         d="m 364.5852,889.8622 -37.6365,-30.14793 -3.1e-4,16.5031 h -41.26354 l 1.1e-4,28.67644 h 41.26355 l -7e-5,15.11632 z"
         id="path15147-6"
         inkscape:connector-curvature="0"
         sodipodi:nodetypes="cccccccc"
         inkscape:transform-center-x="5.0225219"
         inkscape:transform-center-y="-5.2031502" />
      <text
         xml:space="preserve"
         style="font-style:normal;font-variant:normal;font-weight:normal;font-stretch:normal;font-size:26.9528px;line-height:1.25;font-family:'Archivo Black';-inkscape-font-specification:'Archivo Black, ';letter-spacing:0px;word-spacing:0px;fill:#ffffff;fill-opacity:1;stroke:none;stroke-width:0.910752"
         x="287.53488"
         y="897.52319"
         id="text102"><tspan
           sodipodi:role="line"
           id="tspan100"
           x="287.53488"
           y="897.52319"
           style="stroke-width:0.910752">may</tspan></text>
    </g>
    <g
       transform="translate(-8.2142857,-31.722196)"
       id="g180">
      <g
         id="g111"
         transform="matrix(1.0971453,0,0,1.0988421,-38.895085,-124.18678)"
         style="stroke-width:0.910752">
        <path
           id="path4746"
           d="m 356.91916,868.1735 q 4.52492,4.57698 6.76128,10.1942 2.23663,5.61719 2.23663,11.54646 0,5.92929 -2.23663,11.54645 -2.23636,5.6172 -6.76128,10.0902 -0.9363,0.8842 -2.18444,0.8842 -0.57227,0 -1.14428,-0.208 -0.52007,-0.208 -0.88437,-0.6762 -0.98823,-0.8321 -0.98823,-2.1324 0,-1.3003 0.98823,-2.1325 3.58889,-3.6408 5.35737,-8.1657 1.8204,-4.52498 1.8204,-9.25801 0,-4.733 -1.8204,-9.20597 -1.76848,-4.52497 -5.4093,-8.16576 -0.9363,-0.93619 -0.9363,-2.18446 0,-1.30028 0.98823,-2.13245 0.88437,-0.88419 2.08058,-0.88419 1.24814,0 2.13251,0.88419 z m -10.35017,7.80168 q 2.80837,2.80861 4.26475,6.39736 1.45638,3.58878 1.45638,7.54162 0,3.84884 -1.45638,7.43755 -1.45638,3.5368 -4.26475,6.3454 -0.52034,0.4161 -1.09235,0.6761 -0.52008,0.2602 -1.09235,0.2602 -0.57201,0 -1.14401,-0.2602 -0.57228,-0.2601 -1.04043,-0.6761 -0.8841,-0.8842 -0.8841,-2.1325 0,-1.1962 0.8841,-2.1844 1.92453,-1.9244 3.01662,-4.31693 1.09235,-2.44453 1.09235,-5.14912 0,-2.70457 -1.09235,-5.20111 -1.09209,-2.49653 -3.01662,-4.42095 -0.8841,-0.88419 -0.8841,-2.13246 0,-1.19626 0.8841,-2.18446 0.98823,-0.88419 2.18444,-0.88419 1.19647,0 2.1847,0.88419 z m 20.59621,-15.3953 q 5.87745,5.87726 8.94599,13.41887 3.06854,7.54161 3.06854,15.91541 0,8.26975 -3.06854,15.81135 -3.06854,7.4896 -8.94599,13.3669 -0.93603,0.8842 -2.18443,0.8842 -1.30033,0 -2.18444,-0.8842 -0.8841,-0.8842 -0.8841,-2.1325 0,-1.1962 0.93603,-2.1324 4.99307,-4.9931 7.64566,-11.4425 2.65258,-6.4494 2.65258,-13.47085 0,-7.12553 -2.65258,-13.52289 -2.65259,-6.39739 -7.69759,-11.44247 -0.8841,-0.9882 -0.8841,-2.23647 0,-1.14425 0.8841,-2.13245 0.83218,-0.83218 2.13251,-0.83218 1.24814,0 2.23636,0.83218 z M 331.95381,856.523 q 1.24813,-0.93619 2.34048,-0.93619 0.98823,0 1.56024,0.83218 0.57227,0.78017 0.57227,2.28848 v 62.30934 q 0,1.5083 -0.6242,2.3405 -0.6242,0.7802 -1.61243,0.7802 -1.14428,0 -2.34049,-0.9882 -5.35709,-4.1609 -9.56991,-7.4376 -1.82041,-1.4043 -3.53696,-2.7046 -1.71629,-1.3523 -3.12047,-2.3925 -1.35252,-1.0402 -2.23663,-1.7164 -0.83218,-0.6761 -0.88411,-0.6761 h -20.33631 q -0.46815,0 -0.83217,-0.4161 -0.3121,-0.4681 -0.3121,-1.0402 v -34.01533 q 0,-0.57211 0.3121,-0.88418 0.36402,-0.36408 0.83217,-0.36408 h 20.59622 q 0,-0.0519 0.83218,-0.72817 0.88437,-0.67613 2.23663,-1.71636 1.35225,-1.09222 3.06854,-2.39252 1.71655,-1.35228 3.53696,-2.75658 4.21282,-3.22469 9.51799,-7.38559 z"
           inkscape:connector-curvature="0"
           style="font-style:normal;font-weight:normal;font-size:40px;line-height:125%;font-family:sans-serif;letter-spacing:0px;word-spacing:0px;fill:#000000;fill-opacity:1;stroke:none;stroke-width:0.910751px;stroke-linecap:butt;stroke-linejoin:miter;stroke-opacity:1" />
        <path
           d="m 429.96782,912.94135 q 0,1.48566 -1.02457,2.56152 -1.02466,1.07587 -2.51032,1.33196 h -19.05761 q -1.43446,-0.25646 -2.51028,-1.33196 -1.0246,-1.07586 -1.0246,-2.56152 v -2.76643 q 0,-2.04914 -0.30739,-3.58609 -0.25619,-1.53687 -1.07584,-3.32991 -0.81969,-1.79315 -2.35659,-4.20087 -1.53691,-2.40784 -3.99596,-6.09643 -2.76643,-4.20089 -4.76441,-7.37719 -1.94675,-3.2275 -3.2275,-6.04513 -1.22952,-2.81763 -1.84429,-5.53284 -0.56348,-2.76642 -0.56348,-6.04513 0,-4.25217 1.07582,-8.19686 1.12707,-3.9447 3.17628,-7.37719 2.04921,-3.4324 4.86686,-6.19883 2.86889,-2.81761 6.30132,-4.81565 3.48365,-1.99795 7.4796,-3.07382 4.04719,-1.12706 8.35052,-1.12706 4.2521,0 8.19679,1.12706 3.94478,1.07587 7.42839,3.07382 3.48369,1.99804 6.35252,4.81565 2.86891,2.76643 4.91815,6.19883 2.10043,3.43249 3.2275,7.37719 1.12708,3.94469 1.12708,8.19686 0,3.02252 -0.6659,5.84023 -0.6146,2.81763 -1.94674,5.78894 -1.28067,2.92013 -3.27871,6.19893 -1.94674,3.2787 -4.55948,7.12099 -2.45902,3.63729 -3.99597,5.99393 -1.53686,2.35653 -2.40783,4.14958 -0.81977,1.74186 -1.12698,3.27871 -0.25648,1.53695 -0.25648,3.58619 v 3.02252 z m 0,14.60058 q 0,0.71718 -0.10259,1.22956 -0.0466,0.20518 -0.0466,0.40942 -0.20517,0.5633 -0.20517,1.28077 0,0.71717 0.20517,1.12698 0,0.10259 0.0466,0.30775 0.10259,0.40942 0.10259,1.07587 0,0.87106 -0.25647,1.48566 -0.20518,0.61459 -0.46071,1.02466 -0.30777,0.512 -0.71717,0.76848 -0.46072,0.25647 -0.97339,0.512 -0.4607,0.25648 -0.66588,0.25648 -0.25647,0 -0.66589,0.25647 -0.40942,0.30683 -0.71718,0.71718 l -1.84425,3.27871 q -0.30739,0.40942 -0.87088,0.71718 -0.56349,0.35906 -1.0246,0.5633 h -9.58005 q -0.51228,-0.20518 -1.07582,-0.5633 -0.56349,-0.30776 -0.81968,-0.71718 l -2.04921,-3.27871 q -0.25619,-0.40942 -0.61478,-0.71718 -0.35859,-0.25647 -0.61478,-0.25647 -0.30739,0 -0.76848,-0.25648 -0.40978,-0.25646 -0.87087,-0.512 -0.40989,-0.25648 -0.71718,-0.76848 -0.25619,-0.40942 -0.46108,-1.02466 -0.2049,-0.6146 -0.2049,-1.48566 0,-0.87106 0.0513,-1.07587 0,-0.20517 0.0513,-0.30775 0.10245,-0.25648 0.15369,-0.56332 0.0513,-0.25646 0.0513,-0.5633 0,-0.30776 -0.0513,-0.66588 -0.0513,-0.30684 -0.15369,-0.6146 -0.0513,-0.20517 -0.0513,-0.40942 -0.0513,-0.25646 -0.0513,-1.22956 0,-0.92235 0.2049,-1.63935 0.25619,-0.71718 0.51228,-1.17826 0.30739,-0.5633 0.76848,-0.97339 l 2.15166,-1.12706 h 18.64781 l 2.15164,1.12706 q 0.41035,0.40942 0.76847,0.97339 0.25648,0.4607 0.51201,1.17826 0.25647,0.71718 0.25647,1.63935 z"
           style="font-style:normal;font-variant:normal;font-weight:normal;font-stretch:normal;font-size:11.25px;line-height:110%;font-family:'Archivo Narrow';-inkscape-font-specification:'Archivo Narrow';letter-spacing:0px;word-spacing:0px;fill:#000000;fill-opacity:1;stroke:none;stroke-width:6.01054px;stroke-linecap:butt;stroke-linejoin:miter;stroke-opacity:1"
           id="path6427"
           inkscape:connector-curvature="0" />
      </g>
      <path
         id="path172"
         d="m 253.73828,835.97549 c 2.28441,0 3.92733,1.21231 4.87622,2.73529 0.84862,1.36174 1.20169,2.94147 1.27056,4.32518 2.58965,1.28412 5.45848,2.57918 7.76823,3.90316 1.21162,0.69466 2.26795,1.3931 3.06309,2.14375 0.79512,0.75063 1.3818,1.59607 1.3818,2.59308 0,0.42445 -0.20679,0.77018 -0.43911,1.02402 -0.23326,0.25442 -0.51222,0.45101 -0.83017,0.63499 -0.63583,0.36769 -1.43745,0.67431 -2.31927,0.93997 -1.31001,0.39419 -2.7771,0.68743 -4.05273,0.8125 1.2688,2.19327 2.95732,4.20737 4.43744,6.13713 1.71052,2.23075 3.20384,4.36992 3.20384,6.7463 0,0.33938 0.008,0.60446 -0.0269,0.87091 -0.03,0.26781 -0.10633,0.5983 -0.37311,0.86185 -0.2669,0.26236 -0.59368,0.33418 -0.85984,0.36312 -0.26611,0.0297 -0.53431,0.0297 -0.87826,0.0297 h -9.43731 c -0.68505,0 -1.18669,0.0433 -1.70273,-0.29065 -0.51611,-0.33257 -0.70428,-0.78698 -1.07197,-1.46616 h -0.008 l -0.008,-0.0297 c 0,0 -0.82263,-1.67773 -1.80416,-3.3429 -0.4907,-0.83205 -1.0235,-1.66115 -1.48691,-2.24843 -0.23217,-0.29378 -0.44876,-0.52676 -0.60494,-0.65825 -0.0478,-0.0374 -0.0697,-0.0482 -0.10018,-0.067 -0.0307,0.0295 -0.0523,0.0295 -0.10019,0.067 -0.15603,0.13122 -0.37314,0.36421 -0.60493,0.65825 -0.46341,0.58728 -0.99616,1.41638 -1.48692,2.24843 -0.98142,1.66517 -1.80415,3.3429 -1.80415,3.3429 l -0.008,0.0297 h -0.008 c -0.3677,0.67918 -0.55417,1.13094 -1.06686,1.46432 -0.51257,0.33337 -1.01315,0.29377 -1.68855,0.29377 h -9.47898 c -0.33842,0 -0.6024,0 -0.8667,-0.0297 -0.26424,-0.0297 -0.59211,-0.10172 -0.85629,-0.36792 -0.26396,-0.26781 -0.33706,-0.59373 -0.36632,-0.85881 -0.03,-0.26244 -0.0267,-0.52977 -0.0267,-0.86955 0,-2.37618 1.49333,-4.51509 3.20388,-6.74585 1.48001,-1.93002 3.16853,-3.94412 4.43741,-6.13739 -1.27565,-0.12587 -2.74275,-0.4183 -4.05271,-0.81251 -0.8818,-0.26779 -1.68346,-0.57201 -2.31927,-0.93996 -0.31795,-0.18211 -0.59717,-0.38108 -0.83002,-0.63468 -0.23297,-0.25441 -0.43929,-0.59987 -0.43929,-1.02433 0,-0.99701 0.5867,-1.84219 1.38179,-2.59309 0.79518,-0.75036 1.8515,-1.44906 3.06306,-2.14371 2.30982,-1.32401 5.17861,-2.61881 7.7683,-3.90317 0.0689,-1.38372 0.422,-2.96345 1.27053,-4.3252 0.94889,-1.52297 2.5918,-2.73529 4.87623,-2.73529 z"
         inkscape:connector-curvature="0"
         style="font-variation-settings:normal;opacity:1;vector-effect:none;fill:#000000;fill-opacity:1;stroke:none;stroke-width:3.42249px;stroke-linecap:butt;stroke-linejoin:miter;stroke-miterlimit:4;stroke-dasharray:none;stroke-dashoffset:0;stroke-opacity:1;stop-color:#000000;stop-opacity:1" />
    </g>
    <g
       transform="translate(-8.2142857,-31.722196)"
       id="g184">
      <path
         d="m 66.214386,878.99161 q 0,1.63251 -1.124102,2.81471 -1.124201,1.18221 -2.754186,1.46361 H 41.427131 q -1.573811,-0.28181 -2.754142,-1.46361 -1.124135,-1.1822 -1.124135,-2.81471 v -3.03987 q 0,-2.25168 -0.337252,-3.94055 -0.281077,-1.68877 -1.180353,-3.65904 -0.899319,-1.97039 -2.585521,-4.61609 -1.686214,-2.64584 -4.384149,-6.69902 -3.035176,-4.61611 -5.22725,-8.10637 -2.135868,-3.54651 -3.541036,-6.64264 -1.348963,-3.09613 -2.023455,-6.07972 -0.618219,-3.03985 -0.618219,-6.64264 0,-4.67246 1.180331,-9.00705 1.236559,-4.33461 3.484841,-8.10637 2.248281,-3.77167 5.339652,-6.81154 3.147589,-3.09611 6.913464,-5.29164 3.82207,-2.19543 8.206208,-3.37764 4.440355,-1.23846 9.161733,-1.23846 4.665172,0 8.99307,1.23846 4.327997,1.18221 8.150023,3.37764 3.822116,2.19553 6.969646,5.29164 3.14761,3.03987 5.39592,6.81154 2.30448,3.77176 3.54104,8.10637 1.23657,4.33459 1.23657,9.00705 0,3.32127 -0.73059,6.41749 -0.67431,3.09613 -2.13586,6.36113 -1.40508,3.20876 -3.59722,6.81165 -2.13586,3.60277 -5.00241,7.82484 -2.69791,3.99681 -4.38417,6.58638 -1.686154,2.58946 -2.641734,4.55974 -0.899407,1.91403 -1.236461,3.60278 -0.281396,1.68887 -0.281396,3.94066 v 3.32127 z m 0,16.04373 q 0,0.78807 -0.112556,1.35109 -0.05113,0.22546 -0.05113,0.44989 -0.225102,0.61898 -0.225102,1.40737 0,0.78805 0.225102,1.23837 0,0.11273 0.05113,0.33817 0.112556,0.44989 0.112556,1.18221 0,0.95716 -0.281385,1.63251 -0.225112,0.67533 -0.505466,1.12593 -0.337668,0.56261 -0.786839,0.84444 -0.505477,0.28182 -1.067951,0.56261 -0.505455,0.28183 -0.730567,0.28183 -0.281385,0 -0.730578,0.28182 -0.449193,0.33716 -0.786851,0.78807 l -2.02341,3.60278 q -0.337251,0.44989 -0.955482,0.78807 -0.61823,0.39455 -1.124135,0.61898 H 46.711015 q -0.562045,-0.22546 -1.180331,-0.61898 -0.61823,-0.33818 -0.899308,-0.78807 l -2.248281,-3.60278 q -0.281077,-0.44989 -0.674503,-0.78807 -0.393425,-0.28182 -0.674503,-0.28182 -0.337251,0 -0.843134,-0.28183 -0.449588,-0.28181 -0.955471,-0.56261 -0.449709,-0.28183 -0.78685,-0.84444 -0.281078,-0.44988 -0.505872,-1.12593 -0.224805,-0.67535 -0.224805,-1.63251 0,-0.95716 0.05628,-1.18221 0,-0.22545 0.05628,-0.33817 0.112402,-0.28183 0.16862,-0.619 0.05628,-0.28181 0.05628,-0.61898 0,-0.33818 -0.05628,-0.73169 -0.05628,-0.33717 -0.16862,-0.67535 -0.05628,-0.22545 -0.05628,-0.44989 -0.05628,-0.28181 -0.05628,-1.35109 0,-1.01352 0.224805,-1.80139 0.281077,-0.78807 0.562045,-1.29472 0.337252,-0.61898 0.843135,-1.0696 l 2.360683,-1.23846 h 20.459357 l 2.360662,1.23846 q 0.450214,0.44988 0.843123,1.0696 0.281396,0.50623 0.56175,1.29472 0.281385,0.78807 0.281385,1.80139 z"
         style="font-style:normal;font-variant:normal;font-weight:normal;font-stretch:normal;font-size:11.25px;line-height:110%;font-family:'Archivo Narrow';-inkscape-font-specification:'Archivo Narrow';letter-spacing:0px;word-spacing:0px;fill:#000000;fill-opacity:1;stroke:none;stroke-width:6.59953px;stroke-linecap:butt;stroke-linejoin:miter;stroke-opacity:1"
         id="path148"
         inkscape:connector-curvature="0" />
      <path
         style="font-variation-settings:normal;opacity:1;vector-effect:none;fill:#000000;fill-opacity:1;stroke:none;stroke-width:3.42249px;stroke-linecap:butt;stroke-linejoin:miter;stroke-miterlimit:4;stroke-dasharray:none;stroke-dashoffset:0;stroke-opacity:1;stop-color:#000000;stop-opacity:1"
         inkscape:connector-curvature="0"
         d="m 106.90105,835.61835 c 2.28441,0 3.92733,1.21231 4.87622,2.73529 0.84862,1.36174 1.20169,2.94147 1.27056,4.32518 2.58965,1.28412 5.45848,2.57918 7.76823,3.90316 1.21162,0.69466 2.26795,1.3931 3.06309,2.14375 0.79512,0.75063 1.3818,1.59607 1.3818,2.59308 0,0.42445 -0.20679,0.77018 -0.43911,1.02402 -0.23326,0.25442 -0.51222,0.45101 -0.83017,0.63499 -0.63583,0.36769 -1.43745,0.67431 -2.31927,0.93997 -1.31001,0.39419 -2.7771,0.68743 -4.05273,0.8125 1.2688,2.19327 2.95732,4.20737 4.43744,6.13713 1.71052,2.23075 3.20384,4.36992 3.20384,6.7463 0,0.33938 0.008,0.60446 -0.0269,0.87091 -0.03,0.26781 -0.10633,0.5983 -0.37311,0.86185 -0.2669,0.26236 -0.59368,0.33418 -0.85984,0.36312 -0.26611,0.0297 -0.53431,0.0297 -0.87826,0.0297 h -9.43731 c -0.68505,0 -1.18669,0.0433 -1.70273,-0.29065 -0.51611,-0.33257 -0.70428,-0.78698 -1.07197,-1.46616 h -0.008 l -0.008,-0.0297 c 0,0 -0.82263,-1.67773 -1.80416,-3.3429 -0.4907,-0.83205 -1.0235,-1.66115 -1.48691,-2.24843 -0.23217,-0.29378 -0.44876,-0.52676 -0.60494,-0.65825 -0.0478,-0.0374 -0.0697,-0.0482 -0.10018,-0.067 -0.0307,0.0295 -0.0523,0.0295 -0.10019,0.067 -0.15603,0.13122 -0.37314,0.36421 -0.60493,0.65825 -0.46341,0.58728 -0.99616,1.41638 -1.48692,2.24843 -0.98142,1.66517 -1.80415,3.3429 -1.80415,3.3429 l -0.008,0.0297 h -0.008 c -0.3677,0.67918 -0.55417,1.13094 -1.06686,1.46432 -0.51257,0.33337 -1.01315,0.29377 -1.68855,0.29377 h -9.478976 c -0.33842,0 -0.6024,0 -0.8667,-0.0297 -0.26424,-0.0297 -0.592108,-0.10172 -0.856288,-0.36792 -0.26396,-0.26781 -0.33706,-0.59373 -0.36632,-0.85881 -0.03,-0.26244 -0.0267,-0.52977 -0.0267,-0.86955 0,-2.37618 1.493328,-4.51509 3.203878,-6.74585 1.48001,-1.93002 3.16853,-3.94412 4.43741,-6.13739 -1.27565,-0.12587 -2.74275,-0.4183 -4.05271,-0.81251 -0.8818,-0.26779 -1.68346,-0.57201 -2.31927,-0.93996 -0.31795,-0.18211 -0.597168,-0.38108 -0.830018,-0.63468 -0.23297,-0.25441 -0.43929,-0.59987 -0.43929,-1.02433 0,-0.99701 0.5867,-1.84219 1.381788,-2.59309 0.79518,-0.75036 1.8515,-1.44906 3.06306,-2.14371 2.30982,-1.32401 5.17861,-2.61881 7.768296,-3.90317 0.0689,-1.38372 0.422,-2.96345 1.27053,-4.3252 0.94889,-1.52297 2.5918,-2.73529 4.87623,-2.73529 z"
         id="path174" />
    </g>
  </g>
</svg>
