<?xml version="1.0" encoding="UTF-8" standalone="no"?>
<svg
   xmlns:dc="http://purl.org/dc/elements/1.1/"
   xmlns:cc="http://creativecommons.org/ns#"
   xmlns:rdf="http://www.w3.org/1999/02/22-rdf-syntax-ns#"
   xmlns:svg="http://www.w3.org/2000/svg"
   xmlns="http://www.w3.org/2000/svg"
   xmlns:sodipodi="http://sodipodi.sourceforge.net/DTD/sodipodi-0.dtd"
   xmlns:inkscape="http://www.inkscape.org/namespaces/inkscape"
   sodipodi:docname="suspicious-guards.svg"
   inkscape:version="1.0 (4035a4fb49, 2020-05-01)"
   version="1.1"
   id="svg5199"
   viewBox="0 0 450.00001 325"
   height="325"
   width="450">
  <defs
     id="defs5201" />
  <sodipodi:namedview
     inkscape:document-rotation="0"
     inkscape:window-maximized="1"
     inkscape:window-y="-8"
     inkscape:window-x="-8"
     inkscape:window-height="1017"
     inkscape:window-width="1920"
     borderlayer="true"
     units="px"
     showgrid="false"
     inkscape:current-layer="layer1"
     inkscape:document-units="px"
     inkscape:cy="173.43828"
     inkscape:cx="495.47968"
     inkscape:zoom="1.979899"
     inkscape:pageshadow="2"
     inkscape:pageopacity="0.0"
     borderopacity="1.0"
     bordercolor="#666666"
     pagecolor="#ffffff"
     id="base" />
  <metadata
     id="metadata5204">
    <rdf:RDF>
      <cc:Work
         rdf:about="">
        <dc:format>image/svg+xml</dc:format>
        <dc:type
           rdf:resource="http://purl.org/dc/dcmitype/StillImage" />
        <dc:title />
      </cc:Work>
    </rdf:RDF>
  </metadata>
  <g
     transform="translate(0,-727.36216)"
     id="layer1"
     inkscape:groupmode="layer"
     inkscape:label="Layer 1">
    <g
       id="g53">
      <path
         d="m 395.48223,1093.1241 5.58135,9.6672 -5.58135,9.6671 -11.1627,0 -5.58135,-9.6671 5.58135,-9.6672 z"
         transform="matrix(5.3036155,3.0593124,-3.0621977,5.299151,1402.9463,-6196.6549)"
         inkscape:randomized="0"
         inkscape:rounded="0"
         inkscape:flatsided="true"
         sodipodi:arg2="-0.52359878"
         sodipodi:arg1="-1.0471976"
         sodipodi:r2="9.6671848"
         sodipodi:r1="11.162703"
         sodipodi:cy="1102.7913"
         sodipodi:cx="389.90088"
         sodipodi:sides="6"
         id="path5084-7"
         style="font-style:normal;font-weight:normal;font-size:medium;line-height:125%;font-family:sans-serif;letter-spacing:0px;word-spacing:0px;fill:#b3b3b3;fill-opacity:1;stroke:#000000;stroke-width:0.665951;stroke-linecap:butt;stroke-linejoin:round;stroke-miterlimit:4;stroke-dasharray:none;stroke-dashoffset:0;stroke-opacity:1"
         sodipodi:type="star" />
      <path
         d="m 412.98949,1103.3571 5.58135,9.6672 -5.58135,9.6672 -11.1627,0 -5.58135,-9.6672 5.58135,-9.6672 z"
         inkscape:randomized="0"
         inkscape:rounded="0"
         inkscape:flatsided="true"
         sodipodi:arg2="-0.52359878"
         sodipodi:arg1="-1.0471976"
         sodipodi:r2="9.6671848"
         sodipodi:r1="11.162703"
         sodipodi:cy="1113.0243"
         sodipodi:cx="407.40814"
         sodipodi:sides="6"
         id="path5092-2"
         style="font-style:normal;font-weight:normal;font-size:medium;line-height:125%;font-family:sans-serif;letter-spacing:0px;word-spacing:0px;fill:#b3b3b3;fill-opacity:1;stroke:#000000;stroke-width:0.665951;stroke-linecap:butt;stroke-linejoin:round;stroke-miterlimit:4;stroke-dasharray:none;stroke-dashoffset:0;stroke-opacity:1"
         sodipodi:type="star"
         transform="matrix(5.3036155,3.0593124,-3.0621977,5.299151,1402.815,-6194.2987)" />
      <path
         style="fill:#4d4d4d;fill-opacity:1;stroke:none;stroke-width:0.999999;stroke-opacity:1"
         inkscape:connector-curvature="0"
         d="m 94.194237,806.69137 c -4.067754,0 -6.993279,2.15032 -8.682923,4.85157 -1.511117,2.41534 -2.139805,5.21731 -2.262444,7.67165 -4.61128,2.27761 -9.719737,4.57456 -13.832623,6.92291 -2.157491,1.2322 -4.038494,2.47102 -5.45435,3.80242 -1.415846,1.33142 -2.460531,2.83103 -2.460531,4.5993 0,0.75288 0.36823,1.36601 0.78193,1.81629 0.415331,0.45135 0.912082,0.80003 1.478226,1.1263 1.132213,0.65214 2.559635,1.19606 4.129866,1.66724 2.332675,0.69912 4.945085,1.21927 7.216557,1.44107 -2.259307,3.89031 -5.266009,7.46262 -7.901616,10.88547 -3.045854,3.95667 -5.704963,7.75093 -5.704963,11.96599 0,0.60181 -0.0146,1.07203 0.04792,1.54466 0.05337,0.47501 0.189342,1.0611 0.664365,1.52866 0.475264,0.46542 1.057167,0.5928 1.53109,0.64399 0.473847,0.0517 0.95143,0.0517 1.563903,0.0517 H 82.11337 c 1.219849,0 2.113113,0.0766 3.032002,-0.51537 0.918997,-0.58993 1.25411,-1.396 1.908837,-2.60059 h 0.0146 l 0.0146,-0.0527 c 0,0 1.464831,-2.97584 3.21261,-5.92935 0.873778,-1.47576 1.822508,-2.94633 2.647678,-3.988 0.41343,-0.5211 0.79912,-0.9343 1.0772,-1.16759 0.0851,-0.0661 0.12414,-0.0854 0.17839,-0.11876 0.0547,0.0527 0.0931,0.0527 0.1784,0.11876 0.27784,0.2328 0.66442,0.646 1.07719,1.16759 0.82516,1.04167 1.77383,2.51224 2.64769,3.988 1.74761,2.95351 3.212603,5.92935 3.212603,5.92935 l 0.0146,0.0527 h 0.0146 c 0.65476,1.20459 0.98679,2.00597 1.89972,2.59734 0.91271,0.59129 1.80409,0.52102 3.00676,0.52102 h 16.87869 c 0.60262,0 1.07266,0 1.54331,-0.0517 0.47052,-0.0517 1.05433,-0.18047 1.52477,-0.65262 0.47002,-0.47501 0.60018,-1.05308 0.65227,-1.52339 0.0534,-0.46543 0.0475,-0.93948 0.0475,-1.54227 0,-4.21456 -2.6591,-8.00836 -5.70502,-11.96499 -2.63542,-3.42327 -5.64211,-6.99576 -7.90155,-10.88588 2.27151,-0.22334 4.88395,-0.74195 7.21653,-1.44125 1.57019,-0.47492 2.99767,-1.01454 4.12985,-1.66715 0.56615,-0.3231 1.06335,-0.67591 1.47798,-1.12573 0.41485,-0.45124 0.78221,-1.06398 0.78221,-1.81685 0,-1.76837 -1.04468,-3.26752 -2.46048,-4.5994 -1.41595,-1.33083 -3.29692,-2.57012 -5.45429,-3.80232 -4.11301,-2.34826 -9.22138,-4.64492 -13.83276,-6.923 -0.12275,-2.45426 -0.75144,-5.25624 -2.26238,-7.67157 -1.68967,-2.70136 -4.615153,-4.85157 -8.682943,-4.85157 z"
         id="path5096-9" />
      <g
         id="g44"
         transform="matrix(1.1484002,0,0,1.1473759,-12.351123,-126.08399)"
         style="stroke-width:0.871165">
        <ellipse
           ry="28.702215"
           rx="28.721897"
           cy="938.01685"
           cx="145.94382"
           id="path4151"
           style="fill:#000000;stroke:none;stroke-width:1.51072;stroke-miterlimit:4;stroke-dasharray:none;stroke-opacity:1" />
        <path
           inkscape:connector-curvature="0"
           style="fill:#ffffff;fill-opacity:1;stroke-width:0.503575"
           d="m 145.94382,918.08864 c 1.81194,0 3.01433,0.90409 4.62724,1.79974 1.52875,0.84921 3.45043,1.57708 6.16052,1.02412 1.28611,1.28504 2.59276,2.57034 3.98618,3.44093 1.14026,0.71256 2.42166,1.13703 3.69977,0.93627 -0.36672,2.88428 -2.1188,5.70551 -3.95032,7.18233 -4.83002,-1.60003 -9.67213,-2.40044 -14.51426,-2.40044 -4.84655,0 -9.69301,0.80199 -14.52747,2.40493 -1.83343,-1.47551 -3.58837,-4.29964 -3.95537,-7.18682 1.27784,0.2005 2.55943,-0.22424 3.69977,-0.93601 1.39342,-0.87085 2.6999,-2.15615 3.98619,-3.44119 2.70981,0.55296 4.63185,-0.17412 6.16043,-1.02387 1.61316,-0.89617 2.81547,-1.79999 4.62732,-1.79999 z m 0.01,1.6855 c -1.70969,0 -4.58756,2.30944 -4.58756,2.30944 0,0 1.83092,6.92933 4.58756,6.92933 2.75682,0 4.58781,-6.92933 4.58781,-6.92933 0,0 -2.87813,-2.30944 -4.58781,-2.30944 z m 0,11.84394 c 4.55483,0 9.10993,0.74447 13.67589,2.21998 0.18815,1.16184 -0.13025,2.0253 -0.81511,2.82359 -0.76446,0.89118 -2.0477,1.64779 -3.56861,2.21763 -3.04228,1.13995 -6.9873,1.54358 -9.29226,1.54358 -2.30487,0 -6.24971,-0.40363 -9.29181,-1.54358 -1.52118,-0.56984 -2.80416,-1.32619 -3.56862,-2.21763 -0.6851,-0.79829 -1.00362,-1.66149 -0.81538,-2.82359 4.56598,-1.47551 9.12107,-2.21998 13.67581,-2.21998 z m 14.94617,4.92935 c 0.8474,0.20578 2.32376,0.67061 2.58893,1.46575 0.72504,2.1733 -1.45982,5.5029 -3.11215,7.60338 0.45525,-1.89813 0.70067,-3.91711 0.70067,-6.01021 0,-1.03995 -0.0609,-2.06144 -0.17748,-3.05892 z m -29.892,0 a 26.39166,26.38319 0 0 0 -0.17742,3.05866 c 0,2.09336 0.24535,4.11234 0.70067,6.01047 -1.65234,-2.10048 -3.8372,-5.43008 -3.11216,-7.60338 0.2651,-0.79514 1.74162,-1.2605 2.58877,-1.46575 z m 28.47535,1.65358 c 0.0261,0.4638 0.0409,0.93206 0.0409,1.40508 0,5.12116 -1.56426,9.74317 -4.04684,13.05061 -2.48251,3.3077 -5.84147,5.28844 -9.52367,5.28844 -3.68202,0 -7.04107,-1.98074 -9.52348,-5.28844 -2.48241,-3.30744 -4.04658,-7.92919 -4.04658,-13.05061 0,-0.47302 0.015,-0.94128 0.0409,-1.40534 0.70755,0.66033 1.57165,1.1964 2.52245,1.64172 -0.36839,1.56996 0.0229,3.52245 1.04383,4.54234 1.87869,1.8773 6.09185,1.8773 7.97063,0 0.58187,-0.58171 0.83147,-1.50822 0.79857,-2.43817 0.42566,0 0.82825,0.0369 1.19386,0.0369 0.36571,0 0.76839,0 1.19413,-0.0369 -0.033,0.92995 0.21661,1.85646 0.79858,2.43817 1.87878,1.8773 6.09185,1.8773 7.97055,0 1.02084,-1.01989 1.41221,-2.97238 1.04381,-4.54208 0.95079,-0.44531 1.81516,-0.98113 2.52246,-1.64172 z m -13.52952,10.16608 c -1.99262,3.18581 -5.97766,3.58417 -7.97027,3.58417 1.99252,1.59292 7.97018,1.59292 7.97018,0 0,1.59292 5.97802,1.59292 7.97063,0 -1.99261,0 -5.97792,-0.39836 -7.97063,-3.58417 z"
           id="path15149" />
      </g>
    </g>
    <g
       style="stroke-width:0.905967"
       transform="matrix(1.1041718,0,0,1.1034152,259.07163,-111.3763)"
       id="g52">
      <path
         sodipodi:nodetypes="cccccccccc"
         d="m 112.29504,909.4236 c -1.79627,-0.008 -4.03987,0.48246 -6.50018,2.15837 -19.3419,13.57951 -39.01843,26.60803 -58.98889,39.24592 -3.54801,2.30308 -3.39148,5.77422 0.35376,7.7465 l 44.785,23.57031 c 1.8728,0.98614 7.79659,0.71516 11.34461,-1.58757 l 59.07585,-38.34361 c 3.54767,-2.30343 3.39148,-5.77353 -0.35272,-7.7458 -15.53787,-8.17783 -29.83811,-15.69336 -45.42086,-23.95433 0,0 -1.67069,-1.07797 -4.29657,-1.08979 z"
         fill="#ffffff"
         fill-opacity="1"
         id="path957"
         style="stroke:#000000;stroke-width:1.81193;stroke-miterlimit:4;stroke-dasharray:none;stroke-opacity:1" />
      <path
         style="stroke:#000000;stroke-width:1.81193;stroke-miterlimit:4;stroke-dasharray:none;stroke-opacity:1"
         id="path955"
         fill-opacity="1"
         fill="#ffffff"
         d="m 112.29504,905.4236 c -1.79627,-0.008 -4.03987,0.48246 -6.50018,2.15837 -19.3419,13.57951 -39.01843,26.60803 -58.98889,39.24592 -3.54801,2.30308 -3.39148,5.77422 0.35376,7.7465 l 44.785,23.57031 c 1.8728,0.98614 7.79659,0.71516 11.34461,-1.58757 l 59.07585,-38.34361 c 3.54767,-2.30343 3.39148,-5.77353 -0.35272,-7.7458 -15.53787,-8.17783 -29.83811,-15.69336 -45.42086,-23.95433 0,0 -1.67069,-1.07797 -4.29657,-1.08979 z"
         sodipodi:nodetypes="cccccccccc" />
      <path
         sodipodi:nodetypes="cccccccccc"
         d="m 112.29504,901.4236 c -1.79627,-0.008 -4.03987,0.48246 -6.50018,2.15837 -19.3419,13.57951 -39.01843,26.60803 -58.98889,39.24592 -3.54801,2.30308 -3.39148,5.77422 0.35376,7.7465 l 44.785,23.57031 c 1.8728,0.98614 7.79659,0.71516 11.34461,-1.58757 l 59.07585,-38.34361 c 3.54767,-2.30343 3.39148,-5.77353 -0.35272,-7.7458 -15.53787,-8.17783 -29.83811,-15.69336 -45.42086,-23.95433 0,0 -1.67069,-1.07797 -4.29657,-1.08979 z"
         fill="#ffffff"
         fill-opacity="1"
         id="path953"
         style="stroke:#000000;stroke-width:1.81193;stroke-miterlimit:4;stroke-dasharray:none;stroke-opacity:1" />
      <path
         style="stroke:#000000;stroke-width:1.81193;stroke-miterlimit:4;stroke-dasharray:none;stroke-opacity:1"
         id="path947"
         fill-opacity="1"
         fill="#ffffff"
         d="m 112.29504,897.4236 c -1.79627,-0.008 -4.03987,0.48246 -6.50018,2.15837 -19.3419,13.57951 -39.01843,26.60803 -58.98889,39.24592 -3.54801,2.30308 -3.39148,5.77422 0.35376,7.7465 l 44.785,23.57031 c 1.8728,0.98614 7.79659,0.71516 11.34461,-1.58757 l 59.07585,-38.34361 c 3.54767,-2.30343 3.39148,-5.77353 -0.35272,-7.7458 -15.53787,-8.17783 -29.83811,-15.69336 -45.42086,-23.95433 0,0 -1.67069,-1.07797 -4.29657,-1.08979 z"
         sodipodi:nodetypes="cccccccccc" />
      <path
         sodipodi:nodetypes="cccccccccc"
         d="m 112.29504,893.4236 c -1.79627,-0.008 -4.03987,0.48246 -6.50018,2.15837 -19.3419,13.57951 -39.01843,26.60803 -58.98889,39.24592 -3.54801,2.30308 -3.39148,5.77422 0.35376,7.7465 l 44.785,23.57031 c 1.8728,0.98614 7.79659,0.71516 11.34461,-1.58757 l 59.07585,-38.34361 c 3.54767,-2.30343 3.39148,-5.77353 -0.35272,-7.7458 -15.53787,-8.17783 -29.83811,-15.69336 -45.42086,-23.95433 0,0 -1.67069,-1.07797 -4.29657,-1.08979 z"
         fill="#ffffff"
         fill-opacity="1"
         id="path945"
         style="stroke:#000000;stroke-width:1.81193;stroke-miterlimit:4;stroke-dasharray:none;stroke-opacity:1" />
      <path
         style="stroke:#000000;stroke-width:1.81193;stroke-miterlimit:4;stroke-dasharray:none;stroke-opacity:1"
         id="path943"
         fill-opacity="1"
         fill="#ffffff"
         d="m 112.29504,889.4236 c -1.79627,-0.008 -4.03987,0.48246 -6.50018,2.15837 -19.3419,13.57951 -39.01843,26.60803 -58.98889,39.24592 -3.54801,2.30308 -3.39148,5.77422 0.35376,7.7465 l 44.785,23.57031 c 1.8728,0.98614 7.79659,0.71516 11.34461,-1.58757 l 59.07585,-38.34361 c 3.54767,-2.30343 3.39148,-5.77353 -0.35272,-7.7458 -15.53787,-8.17783 -29.83811,-15.69336 -45.42086,-23.95433 0,0 -1.67069,-1.07797 -4.29657,-1.08979 z"
         sodipodi:nodetypes="cccccccccc" />
      <path
         sodipodi:nodetypes="cccccccccc"
         d="m 112.29504,832.09744 c -1.79627,-0.008 -4.03987,0.48246 -6.50018,2.15837 -19.3419,13.57951 -39.01843,26.60803 -58.98889,39.24592 -3.54801,2.30308 -3.39148,5.77422 0.35376,7.7465 l 44.785,23.57031 c 1.8728,0.98614 7.79659,0.71516 11.34461,-1.58757 l 59.07585,-38.34361 c 3.54767,-2.30343 3.39148,-5.77353 -0.35272,-7.7458 -15.53787,-8.17783 -29.83811,-15.69336 -45.42086,-23.95433 0,0 -1.67069,-1.07797 -4.29657,-1.08979 z"
         fill="#ffffff"
         fill-opacity="1"
         id="path941"
         style="stroke:#000000;stroke-width:1.81193;stroke-miterlimit:4;stroke-dasharray:none;stroke-opacity:1" />
      <path
         inkscape:connector-curvature="0"
         id="path3444"
         style="font-style:normal;font-weight:normal;font-size:medium;line-height:125%;font-family:sans-serif;letter-spacing:0px;word-spacing:0px;fill:#000000;fill-opacity:1;stroke:none;stroke-width:0.905967px;stroke-linecap:butt;stroke-linejoin:miter;stroke-opacity:1"
         d="M 111.39701,881.21898 77.51962,865.24443 q -0.35419,-0.16701 -0.44342,-0.41079 -0.0684,-0.23395 0.0484,-0.46127 0.11676,-0.22732 0.44072,-0.3973 0.30369,-0.15935 0.79433,-0.25073 l 46.11322,-7.34124 q 0.45012,-0.0701 0.88354,-0.007 0.43348,0.0631 0.76685,0.22033 0.33336,0.15719 0.48325,0.36914 0.14988,0.21194 0.0332,0.43923 l -12.23583,23.31579 q -0.15727,0.24857 -0.46097,0.40793 -0.32395,0.16997 -0.77408,0.24009 -0.45012,0.0701 -0.94426,0.0388 -0.47332,-0.0215 -0.82752,-0.18851 z m -29.11903,-16.31258 29.50209,13.91141 10.638,-20.27725 z m 24.05837,4.00252 -3.87526,-1.82734 11.2368,-5.8959 3.87526,1.82733 z m -3.10147,2.20851 q -0.52642,0.27622 -1.18016,0.41167 -0.63296,0.1453 -1.33135,0.15889 -0.65728,0.0128 -1.31811,-0.0971 -0.64059,-0.12054 -1.16146,-0.36615 -0.52087,-0.24561 -0.79702,-0.55735 -0.25589,-0.32238 -0.26533,-0.64952 0.0109,-0.3378 0.26877,-0.65994 0.25789,-0.32212 0.7843,-0.59833 0.50616,-0.26558 1.15934,-0.42149 0.6532,-0.15592 1.31051,-0.1687 0.67754,-0.0234 1.33836,0.0865 0.66082,0.1099 1.1817,0.35551 0.52086,0.24562 0.77677,0.56799 0.2559,0.32237 0.24509,0.66015 0.0302,0.33699 -0.24794,0.66976 -0.25731,0.34257 -0.76347,0.60815 z" />
    </g>
    <g
       transform="translate(-271.77634,-180.82814)"
       id="g51">
      <path
         inkscape:transform-center-y="-3.7857682"
         inkscape:transform-center-x="3.6560491"
         sodipodi:nodetypes="cccccccc"
         inkscape:connector-curvature="0"
         id="path15147-5"
         d="m 550.04848,1070.6903 -27.39675,-21.9353 -2.2e-4,12.0075 h -30.03699 l 9e-5,20.8646 h 30.03698 l -5e-5,10.9985 z"
         style="fill:#000000;fill-opacity:1;stroke:none;stroke-width:1.101;stroke-linecap:round;stroke-linejoin:round;stroke-miterlimit:4;stroke-dasharray:none;stroke-dashoffset:0;stroke-opacity:1" />
      <text
         xml:space="preserve"
         style="font-style:normal;font-variant:normal;font-weight:normal;font-stretch:normal;font-size:24px;line-height:1.25;font-family:'Archivo Black';-inkscape-font-specification:'Archivo Black, ';letter-spacing:0px;word-spacing:0px;fill:#ffffff;fill-opacity:1;stroke:none"
         x="496.74249"
         y="1079.2109"
         id="text46"><tspan
           sodipodi:role="line"
           id="tspan44"
           x="496.74249"
           y="1079.2109">1x</tspan></text>
    </g>
  </g>
</svg>
