<?xml version="1.0" encoding="UTF-8" standalone="no"?>
<svg
   xmlns:dc="http://purl.org/dc/elements/1.1/"
   xmlns:cc="http://creativecommons.org/ns#"
   xmlns:rdf="http://www.w3.org/1999/02/22-rdf-syntax-ns#"
   xmlns:svg="http://www.w3.org/2000/svg"
   xmlns="http://www.w3.org/2000/svg"
   xmlns:sodipodi="http://sodipodi.sourceforge.net/DTD/sodipodi-0.dtd"
   xmlns:inkscape="http://www.inkscape.org/namespaces/inkscape"
   sodipodi:docname="suspicious-guards.svg"
   inkscape:version="1.0 (4035a4fb49, 2020-05-01)"
   version="1.1"
   id="svg5199"
   viewBox="0 0 450.00001 325"
   height="325"
   width="450">
  <defs
     id="defs5201" />
  <sodipodi:namedview
     inkscape:document-rotation="0"
     inkscape:window-maximized="1"
     inkscape:window-y="-8"
     inkscape:window-x="-8"
     inkscape:window-height="1017"
     inkscape:window-width="1920"
     borderlayer="true"
     units="px"
     showgrid="false"
     inkscape:current-layer="layer1"
     inkscape:document-units="px"
     inkscape:cy="210.29819"
     inkscape:cx="543.5685"
     inkscape:zoom="1.979899"
     inkscape:pageshadow="2"
     inkscape:pageopacity="0.0"
     borderopacity="1.0"
     bordercolor="#666666"
     pagecolor="#ffffff"
     id="base" />
  <metadata
     id="metadata5204">
    <rdf:RDF>
      <cc:Work
         rdf:about="">
        <dc:format>image/svg+xml</dc:format>
        <dc:type
           rdf:resource="http://purl.org/dc/dcmitype/StillImage" />
        <dc:title />
      </cc:Work>
    </rdf:RDF>
  </metadata>
  <g
     transform="translate(0,-727.36216)"
     id="layer1"
     inkscape:groupmode="layer"
     inkscape:label="Layer 1">
    <g
       style="stroke-width:1.05474"
       transform="matrix(0.94832224,0,0,0.94787744,558.28159,51.955568)"
       id="g132">
      <path
         d="m 395.48223,1093.1241 5.58135,9.6672 -5.58135,9.6671 -11.1627,0 -5.58135,-9.6671 5.58135,-9.6672 z"
         transform="matrix(5.6233121,0,0,5.6262336,-2702.2695,-5345.5272)"
         inkscape:randomized="0"
         inkscape:rounded="0"
         inkscape:flatsided="true"
         sodipodi:arg2="-0.52359878"
         sodipodi:arg1="-1.0471976"
         sodipodi:r2="9.6671848"
         sodipodi:r1="11.162703"
         sodipodi:cy="1102.7913"
         sodipodi:cx="389.90088"
         sodipodi:sides="6"
         id="path5084-7"
         style="font-style:normal;font-weight:normal;font-size:medium;line-height:125%;font-family:sans-serif;letter-spacing:0px;word-spacing:0px;fill:#b3b3b3;fill-opacity:1;stroke:#000000;stroke-width:0.764437;stroke-linecap:butt;stroke-linejoin:round;stroke-miterlimit:4;stroke-dasharray:none;stroke-dashoffset:0;stroke-opacity:1"
         sodipodi:type="star" />
      <path
         id="path5086-9"
         d="m -410.71388,879.42764 c -4.30178,0 -7.39563,2.27708 -9.18247,5.13775 -1.59804,2.55776 -2.26291,5.52498 -2.3926,8.12391 -4.87659,2.41199 -10.27894,4.84444 -14.62842,7.33136 -2.28164,1.30475 -4.27084,2.61672 -5.76814,4.02661 -1.49733,1.40989 -2.60211,2.99788 -2.60211,4.87053 0,0.79722 0.38941,1.44664 0.82691,1.92351 0.43923,0.47774 0.96457,0.8471 1.56329,1.19265 1.19733,0.69058 2.70688,1.26658 4.36747,1.76549 2.46685,0.74046 5.22955,1.29118 7.63171,1.52612 -2.38928,4.11959 -5.56895,7.90271 -8.3562,11.52742 -3.22109,4.18991 -6.03318,8.20788 -6.03318,12.67155 0,0.6374 -0.0154,1.1352 0.0508,1.6358 0.0565,0.5031 0.20024,1.1237 0.7026,1.6187 0.50259,0.493 1.11797,0.6278 1.61916,0.682 0.50111,0.055 1.00617,0.055 1.65388,0.055 h 17.77153 c 1.29002,0 2.23468,0.08 3.20644,-0.5459 0.97186,-0.6247 1.32625,-1.4783 2.01864,-2.7539 h 0.0154 l 0.0154,-0.055 c 0,0 1.5491,-3.15137 3.39742,-6.279 0.92406,-1.56291 1.92736,-3.12011 2.80001,-4.22332 0.43723,-0.55178 0.84508,-0.98936 1.13916,-1.23638 0.09,-0.0698 0.13129,-0.0896 0.18867,-0.12573 0.0579,0.0547 0.0985,0.0547 0.18867,0.12573 0.29382,0.24643 0.70265,0.68413 1.13915,1.23638 0.87265,1.10321 1.87589,2.66041 2.80002,4.22332 1.84813,3.12763 3.39742,6.279 3.39742,6.279 l 0.0154,0.055 h 0.0154 c 0.69244,1.2756 1.04357,2.1242 2.00904,2.7505 0.96522,0.6261 1.90786,0.5518 3.17971,0.5518 h 17.84978 c 0.63727,0 1.13436,0 1.63208,-0.055 0.4976,-0.055 1.11501,-0.1911 1.61249,-0.6911 0.49707,-0.503 0.63472,-1.1152 0.68981,-1.6132 0.0565,-0.493 0.0503,-0.9949 0.0503,-1.6332 0,-4.46297 -2.81211,-8.48059 -6.03325,-12.67062 -2.78704,-3.62513 -5.9667,-7.40825 -8.35615,-11.52792 2.40222,-0.23627 5.16492,-0.78567 7.63172,-1.52604 1.66053,-0.50304 3.17013,-1.07439 4.36745,-1.76558 0.59873,-0.34203 1.12453,-0.71569 1.56301,-1.19204 0.43872,-0.47791 0.82722,-1.12681 0.82722,-1.92403 0,-1.87274 -1.10478,-3.4602 -2.60205,-4.87062 -1.49741,-1.40936 -3.48659,-2.72178 -5.76809,-4.02652 -4.34962,-2.48683 -9.75189,-4.91893 -14.62857,-7.33128 -0.12975,-2.5991 -0.79466,-5.56623 -2.39256,-8.12399 -1.78687,-2.86067 -4.88065,-5.13766 -9.18248,-5.13766 z"
         inkscape:connector-curvature="0"
         style="fill:#ffffff;stroke:none;stroke-width:1.05474;stroke-opacity:1" />
      <path
         d="m 412.98949,1103.3571 5.58135,9.6672 -5.58135,9.6672 -11.1627,0 -5.58135,-9.6672 5.58135,-9.6672 z"
         inkscape:randomized="0"
         inkscape:rounded="0"
         inkscape:flatsided="true"
         sodipodi:arg2="-0.52359878"
         sodipodi:arg1="-1.0471976"
         sodipodi:r2="9.6671848"
         sodipodi:r1="11.162703"
         sodipodi:cy="1113.0243"
         sodipodi:cx="407.40814"
         sodipodi:sides="6"
         id="path5092-2"
         style="font-style:normal;font-weight:normal;font-size:medium;line-height:125%;font-family:sans-serif;letter-spacing:0px;word-spacing:0px;fill:#b3b3b3;fill-opacity:1;stroke:#000000;stroke-width:0.764437;stroke-linecap:butt;stroke-linejoin:round;stroke-miterlimit:4;stroke-dasharray:none;stroke-dashoffset:0;stroke-opacity:1"
         sodipodi:type="star"
         transform="matrix(5.6233121,0,0,5.6262336,-2701.2912,-5343.5905)" />
      <path
         style="fill:#4d4d4d;fill-opacity:1;stroke:none;stroke-width:1.05474;stroke-opacity:1"
         inkscape:connector-curvature="0"
         d="m -509.73929,831.20865 c -3.73513,0 -6.42143,1.97718 -7.97291,4.46092 -1.38755,2.22085 -1.96483,4.79721 -2.07744,7.05393 -4.23421,2.09421 -8.92494,4.20622 -12.70151,6.36547 -1.98107,1.13299 -3.70826,2.27206 -5.00834,3.49625 -1.30007,1.22421 -2.25933,2.60307 -2.25933,4.22896 0,0.69226 0.33812,1.25602 0.71799,1.67005 0.38137,0.415 0.8375,0.73561 1.35735,1.0356 1.03963,0.59963 2.35033,1.09976 3.79216,1.533 2.14193,0.64282 4.54072,1.12109 6.62645,1.32503 -2.07456,3.57706 -4.8354,6.86172 -7.25549,10.00897 -2.79679,3.63807 -5.23846,7.12682 -5.23846,11.00248 0,0.55336 -0.0134,0.98571 0.044,1.42028 0.049,0.43677 0.17386,0.97567 0.61004,1.40557 0.4364,0.42795 0.97072,0.54507 1.40589,0.59214 0.4351,0.0476 0.87363,0.0476 1.43602,0.0476 h 15.43058 c 1.1201,0 1.94032,0.0705 2.78407,-0.47387 0.84385,-0.54243 1.15156,-1.28359 1.75275,-2.3912 h 0.0134 l 0.0134,-0.0484 c 0,0 1.34505,-2.73623 2.94991,-5.45192 0.80233,-1.35693 1.67348,-2.70909 2.43118,-3.66688 0.37962,-0.47915 0.73377,-0.85907 0.98911,-1.07358 0.0781,-0.0608 0.11399,-0.0785 0.16381,-0.10919 0.0502,0.0484 0.0855,0.0484 0.16381,0.10919 0.25512,0.21406 0.61009,0.59399 0.9891,1.07358 0.75769,0.95779 1.62879,2.30995 2.43119,3.66688 1.6047,2.71569 2.9499,5.45192 2.9499,5.45192 l 0.0134,0.0484 h 0.0134 c 0.60122,1.10761 0.9061,1.84445 1.74438,2.3882 0.83808,0.54368 1.65656,0.47907 2.76089,0.47907 h 15.4985 c 0.55334,0 0.98494,0 1.41711,-0.0476 0.43204,-0.0476 0.96812,-0.16594 1.40009,-0.60007 0.43158,-0.43676 0.5511,-0.96828 0.59893,-1.40072 0.049,-0.42796 0.0437,-0.86384 0.0437,-1.41809 0,-3.8752 -2.44167,-7.36352 -5.23852,-11.00157 -2.41991,-3.14762 -5.18075,-6.43245 -7.25543,-10.00934 2.08577,-0.20535 4.48458,-0.68221 6.62643,-1.3252 1.44179,-0.43668 2.75254,-0.93285 3.79215,-1.53291 0.51985,-0.29709 0.9764,-0.62149 1.35712,-1.03508 0.38093,-0.41491 0.71825,-0.97832 0.71825,-1.67057 0,-1.62598 -0.95926,-3.00442 -2.25929,-4.22905 -1.30017,-1.22367 -3.02732,-2.36317 -5.00829,-3.49616 -3.77668,-2.15917 -8.46733,-4.27091 -12.70163,-6.36556 -0.11271,-2.25664 -0.68999,-4.83299 -2.07738,-7.05384 -1.55151,-2.48384 -4.23777,-4.46092 -7.97293,-4.46092 z"
         id="path5096-9" />
      <g
         id="g4163"
         transform="matrix(0.67304587,0,0,0.67290031,-680.00716,294.04132)"
         style="stroke-width:0.905967">
        <circle
           r="45"
           cy="928.07642"
           cx="400.71429"
           id="path4151"
           style="fill:#000000;stroke:none;stroke-width:2.7179;stroke-miterlimit:4;stroke-dasharray:none;stroke-opacity:1" />
        <path
           inkscape:connector-curvature="0"
           style="fill:#ffffff;fill-opacity:1;stroke-width:0.905967"
           d="m 400.71429,896.83247 c 2.83886,0 4.7227,1.41745 7.24972,2.82167 2.39517,1.33142 5.40596,2.47258 9.65199,1.60564 2.01501,2.01471 4.06221,4.02984 6.24535,5.39477 1.78649,1.11717 3.79413,1.78267 5.79661,1.46791 -0.57456,4.52203 -3.31964,8.94522 -6.18917,11.26062 -7.56742,-2.50856 -15.1538,-3.76346 -22.74019,-3.76346 -7.59333,0 -15.18652,1.25738 -22.7609,3.7705 -2.87253,-2.31334 -5.62208,-6.74108 -6.19708,-11.26766 2.00206,0.31435 4.00999,-0.35158 5.79662,-1.4675 2.18314,-1.36534 4.23006,-3.38047 6.24535,-5.39518 4.2456,0.86694 7.25695,-0.27299 9.65185,-1.60524 2.52742,-1.40504 4.41113,-2.82207 7.24985,-2.82207 z m 0.0149,2.64257 c -2.67865,0 -7.18755,3.62078 -7.18755,3.62078 0,0 2.86859,10.86397 7.18755,10.86397 4.31925,0 7.18795,-10.86397 7.18795,-10.86397 0,0 -4.50931,-3.62078 -7.18795,-3.62078 z m 0,18.56919 c 7.13628,0 14.27297,1.16721 21.42669,3.48055 0.29478,1.82156 -0.20407,3.17531 -1.27708,4.42689 -1.19771,1.3972 -3.20823,2.58344 -5.59112,3.47685 -4.76648,1.78723 -10.94734,2.42006 -14.55863,2.42006 -3.61115,0 -9.79173,-0.63283 -14.55794,-2.42006 -2.3833,-0.89341 -4.39341,-2.07924 -5.59113,-3.47685 -1.07338,-1.25158 -1.57242,-2.60493 -1.27749,-4.42689 7.15374,-2.31334 14.29043,-3.48055 21.42656,-3.48055 z m 23.41689,7.72835 c 1.32767,0.32263 3.64075,1.05141 4.05621,2.29805 1.13596,3.40734 -2.28717,8.62757 -4.87596,11.92075 0.71326,-2.97594 1.09777,-6.14133 1.09777,-9.42295 0,-1.63046 -0.0954,-3.23197 -0.27806,-4.79585 z m -46.83325,0 a 41.349104,41.364178 0 0 0 -0.27798,4.79544 c 0,3.28203 0.3844,6.44742 1.09777,9.42336 -2.58879,-3.29318 -6.01192,-8.51341 -4.87596,-11.92075 0.41534,-1.24664 2.72868,-1.97625 4.05594,-2.29805 z m 44.61372,2.59253 c 0.0409,0.72715 0.0641,1.46131 0.0641,2.20291 0,8.02908 -2.45081,15.27558 -6.34039,20.46106 -3.88946,5.18588 -9.15212,8.29129 -14.92119,8.29129 -5.7688,0 -11.03159,-3.10541 -14.92091,-8.29129 -3.88931,-5.18548 -6.33998,-12.43157 -6.33998,-20.46106 0,-0.7416 0.0235,-1.47576 0.0641,-2.20332 1.10856,1.03528 2.46239,1.87575 3.95205,2.57392 -0.57717,2.46142 0.0359,5.52258 1.63542,7.12159 2.94344,2.94328 9.54439,2.94328 12.48797,0 0.91165,-0.91201 1.30271,-2.36462 1.25116,-3.82261 0.66691,0 1.29766,0.0579 1.87048,0.0579 0.57297,0 1.20387,0 1.8709,-0.0579 -0.0517,1.45799 0.33937,2.9106 1.25117,3.82261 2.94358,2.94328 9.5444,2.94328 12.48785,0 1.59941,-1.59901 2.21258,-4.66017 1.6354,-7.12117 1.48965,-0.69818 2.8439,-1.53824 3.95205,-2.57393 z m -21.19736,15.93861 c -3.12193,4.99479 -9.3655,5.61935 -12.48742,5.61935 3.12178,2.49741 12.48728,2.49741 12.48728,0 0,2.49741 9.36605,2.49741 12.48798,0 -3.12193,0 -9.36591,-0.62456 -12.48798,-5.61935 z"
           id="path15149" />
      </g>
    </g>
    <g
       style="stroke-width:0.905967"
       transform="matrix(1.1041718,0,0,1.1034152,259.07163,-106.81925)"
       id="g52">
      <path
         sodipodi:nodetypes="cccccccccc"
         d="m 112.29504,909.4236 c -1.79627,-0.008 -4.03987,0.48246 -6.50018,2.15837 -19.3419,13.57951 -39.01843,26.60803 -58.98889,39.24592 -3.54801,2.30308 -3.39148,5.77422 0.35376,7.7465 l 44.785,23.57031 c 1.8728,0.98614 7.79659,0.71516 11.34461,-1.58757 l 59.07585,-38.34361 c 3.54767,-2.30343 3.39148,-5.77353 -0.35272,-7.7458 -15.53787,-8.17783 -29.83811,-15.69336 -45.42086,-23.95433 0,0 -1.67069,-1.07797 -4.29657,-1.08979 z"
         fill="#ffffff"
         fill-opacity="1"
         id="path957"
         style="stroke:#000000;stroke-width:1.81193;stroke-miterlimit:4;stroke-dasharray:none;stroke-opacity:1" />
      <path
         style="stroke:#000000;stroke-width:1.81193;stroke-miterlimit:4;stroke-dasharray:none;stroke-opacity:1"
         id="path955"
         fill-opacity="1"
         fill="#ffffff"
         d="m 112.29504,905.4236 c -1.79627,-0.008 -4.03987,0.48246 -6.50018,2.15837 -19.3419,13.57951 -39.01843,26.60803 -58.98889,39.24592 -3.54801,2.30308 -3.39148,5.77422 0.35376,7.7465 l 44.785,23.57031 c 1.8728,0.98614 7.79659,0.71516 11.34461,-1.58757 l 59.07585,-38.34361 c 3.54767,-2.30343 3.39148,-5.77353 -0.35272,-7.7458 -15.53787,-8.17783 -29.83811,-15.69336 -45.42086,-23.95433 0,0 -1.67069,-1.07797 -4.29657,-1.08979 z"
         sodipodi:nodetypes="cccccccccc" />
      <path
         sodipodi:nodetypes="cccccccccc"
         d="m 112.29504,901.4236 c -1.79627,-0.008 -4.03987,0.48246 -6.50018,2.15837 -19.3419,13.57951 -39.01843,26.60803 -58.98889,39.24592 -3.54801,2.30308 -3.39148,5.77422 0.35376,7.7465 l 44.785,23.57031 c 1.8728,0.98614 7.79659,0.71516 11.34461,-1.58757 l 59.07585,-38.34361 c 3.54767,-2.30343 3.39148,-5.77353 -0.35272,-7.7458 -15.53787,-8.17783 -29.83811,-15.69336 -45.42086,-23.95433 0,0 -1.67069,-1.07797 -4.29657,-1.08979 z"
         fill="#ffffff"
         fill-opacity="1"
         id="path953"
         style="stroke:#000000;stroke-width:1.81193;stroke-miterlimit:4;stroke-dasharray:none;stroke-opacity:1" />
      <path
         style="stroke:#000000;stroke-width:1.81193;stroke-miterlimit:4;stroke-dasharray:none;stroke-opacity:1"
         id="path947"
         fill-opacity="1"
         fill="#ffffff"
         d="m 112.29504,897.4236 c -1.79627,-0.008 -4.03987,0.48246 -6.50018,2.15837 -19.3419,13.57951 -39.01843,26.60803 -58.98889,39.24592 -3.54801,2.30308 -3.39148,5.77422 0.35376,7.7465 l 44.785,23.57031 c 1.8728,0.98614 7.79659,0.71516 11.34461,-1.58757 l 59.07585,-38.34361 c 3.54767,-2.30343 3.39148,-5.77353 -0.35272,-7.7458 -15.53787,-8.17783 -29.83811,-15.69336 -45.42086,-23.95433 0,0 -1.67069,-1.07797 -4.29657,-1.08979 z"
         sodipodi:nodetypes="cccccccccc" />
      <path
         sodipodi:nodetypes="cccccccccc"
         d="m 112.29504,893.4236 c -1.79627,-0.008 -4.03987,0.48246 -6.50018,2.15837 -19.3419,13.57951 -39.01843,26.60803 -58.98889,39.24592 -3.54801,2.30308 -3.39148,5.77422 0.35376,7.7465 l 44.785,23.57031 c 1.8728,0.98614 7.79659,0.71516 11.34461,-1.58757 l 59.07585,-38.34361 c 3.54767,-2.30343 3.39148,-5.77353 -0.35272,-7.7458 -15.53787,-8.17783 -29.83811,-15.69336 -45.42086,-23.95433 0,0 -1.67069,-1.07797 -4.29657,-1.08979 z"
         fill="#ffffff"
         fill-opacity="1"
         id="path945"
         style="stroke:#000000;stroke-width:1.81193;stroke-miterlimit:4;stroke-dasharray:none;stroke-opacity:1" />
      <path
         style="stroke:#000000;stroke-width:1.81193;stroke-miterlimit:4;stroke-dasharray:none;stroke-opacity:1"
         id="path943"
         fill-opacity="1"
         fill="#ffffff"
         d="m 112.29504,889.4236 c -1.79627,-0.008 -4.03987,0.48246 -6.50018,2.15837 -19.3419,13.57951 -39.01843,26.60803 -58.98889,39.24592 -3.54801,2.30308 -3.39148,5.77422 0.35376,7.7465 l 44.785,23.57031 c 1.8728,0.98614 7.79659,0.71516 11.34461,-1.58757 l 59.07585,-38.34361 c 3.54767,-2.30343 3.39148,-5.77353 -0.35272,-7.7458 -15.53787,-8.17783 -29.83811,-15.69336 -45.42086,-23.95433 0,0 -1.67069,-1.07797 -4.29657,-1.08979 z"
         sodipodi:nodetypes="cccccccccc" />
      <path
         sodipodi:nodetypes="cccccccccc"
         d="m 112.29504,832.09744 c -1.79627,-0.008 -4.03987,0.48246 -6.50018,2.15837 -19.3419,13.57951 -39.01843,26.60803 -58.98889,39.24592 -3.54801,2.30308 -3.39148,5.77422 0.35376,7.7465 l 44.785,23.57031 c 1.8728,0.98614 7.79659,0.71516 11.34461,-1.58757 l 59.07585,-38.34361 c 3.54767,-2.30343 3.39148,-5.77353 -0.35272,-7.7458 -15.53787,-8.17783 -29.83811,-15.69336 -45.42086,-23.95433 0,0 -1.67069,-1.07797 -4.29657,-1.08979 z"
         fill="#ffffff"
         fill-opacity="1"
         id="path941"
         style="stroke:#000000;stroke-width:1.81193;stroke-miterlimit:4;stroke-dasharray:none;stroke-opacity:1" />
      <path
         inkscape:connector-curvature="0"
         id="path3444"
         style="font-style:normal;font-weight:normal;font-size:medium;line-height:125%;font-family:sans-serif;letter-spacing:0px;word-spacing:0px;fill:#000000;fill-opacity:1;stroke:none;stroke-width:0.905967px;stroke-linecap:butt;stroke-linejoin:miter;stroke-opacity:1"
         d="M 111.39701,881.21898 77.51962,865.24443 q -0.35419,-0.16701 -0.44342,-0.41079 -0.0684,-0.23395 0.0484,-0.46127 0.11676,-0.22732 0.44072,-0.3973 0.30369,-0.15935 0.79433,-0.25073 l 46.11322,-7.34124 q 0.45012,-0.0701 0.88354,-0.007 0.43348,0.0631 0.76685,0.22033 0.33336,0.15719 0.48325,0.36914 0.14988,0.21194 0.0332,0.43923 l -12.23583,23.31579 q -0.15727,0.24857 -0.46097,0.40793 -0.32395,0.16997 -0.77408,0.24009 -0.45012,0.0701 -0.94426,0.0388 -0.47332,-0.0215 -0.82752,-0.18851 z m -29.11903,-16.31258 29.50209,13.91141 10.638,-20.27725 z m 24.05837,4.00252 -3.87526,-1.82734 11.2368,-5.8959 3.87526,1.82733 z m -3.10147,2.20851 q -0.52642,0.27622 -1.18016,0.41167 -0.63296,0.1453 -1.33135,0.15889 -0.65728,0.0128 -1.31811,-0.0971 -0.64059,-0.12054 -1.16146,-0.36615 -0.52087,-0.24561 -0.79702,-0.55735 -0.25589,-0.32238 -0.26533,-0.64952 0.0109,-0.3378 0.26877,-0.65994 0.25789,-0.32212 0.7843,-0.59833 0.50616,-0.26558 1.15934,-0.42149 0.6532,-0.15592 1.31051,-0.1687 0.67754,-0.0234 1.33836,0.0865 0.66082,0.1099 1.1817,0.35551 0.52086,0.24562 0.77677,0.56799 0.2559,0.32237 0.24509,0.66015 0.0302,0.33699 -0.24794,0.66976 -0.25731,0.34257 -0.76347,0.60815 z" />
    </g>
    <path
       inkscape:transform-center-y="-3.7857682"
       inkscape:transform-center-x="3.6560491"
       sodipodi:nodetypes="cccccccc"
       inkscape:connector-curvature="0"
       id="path15147"
       d="m 296.50019,894.41867 -27.39675,-21.93524 -2.2e-4,12.00745 h -30.03699 l 9e-5,20.86465 h 30.03698 l -5e-5,10.99846 z"
       style="fill:#000000;fill-opacity:1;stroke:none;stroke-width:1.101;stroke-linecap:round;stroke-linejoin:round;stroke-miterlimit:4;stroke-dasharray:none;stroke-dashoffset:0;stroke-opacity:1" />
  </g>
</svg>
