<?xml version="1.0" encoding="UTF-8" standalone="no"?>
<svg
   xmlns:dc="http://purl.org/dc/elements/1.1/"
   xmlns:cc="http://creativecommons.org/ns#"
   xmlns:rdf="http://www.w3.org/1999/02/22-rdf-syntax-ns#"
   xmlns:svg="http://www.w3.org/2000/svg"
   xmlns="http://www.w3.org/2000/svg"
   xmlns:sodipodi="http://sodipodi.sourceforge.net/DTD/sodipodi-0.dtd"
   xmlns:inkscape="http://www.inkscape.org/namespaces/inkscape"
   sodipodi:docname="their-word-against-yours.svg"
   inkscape:version="1.0.1 (3bc2e813f5, 2020-09-07)"
   version="1.1"
   id="svg5199"
   viewBox="0 0 450.00001 325"
   height="325"
   width="450">
  <defs
     id="defs5201" />
  <sodipodi:namedview
     inkscape:document-rotation="0"
     inkscape:window-maximized="1"
     inkscape:window-y="-8"
     inkscape:window-x="-8"
     inkscape:window-height="1017"
     inkscape:window-width="1920"
     borderlayer="true"
     units="px"
     showgrid="false"
     inkscape:current-layer="layer1"
     inkscape:document-units="px"
     inkscape:cy="159.93376"
     inkscape:cx="142.38749"
     inkscape:zoom="1.979899"
     inkscape:pageshadow="2"
     inkscape:pageopacity="0.0"
     borderopacity="1.0"
     bordercolor="#666666"
     pagecolor="#ffffff"
     id="base"
     inkscape:snap-global="true"
     inkscape:snap-bbox="true" />
  <metadata
     id="metadata5204">
    <rdf:RDF>
      <cc:Work
         rdf:about="">
        <dc:format>image/svg+xml</dc:format>
        <dc:type
           rdf:resource="http://purl.org/dc/dcmitype/StillImage" />
        <dc:title />
      </cc:Work>
    </rdf:RDF>
  </metadata>
  <g
     transform="translate(0,-727.36216)"
     id="layer1"
     inkscape:groupmode="layer"
     inkscape:label="Layer 1">
    <path
       inkscape:transform-center-y="-3.7857682"
       inkscape:transform-center-x="3.6560491"
       sodipodi:nodetypes="cccccccc"
       inkscape:connector-curvature="0"
       id="path15147"
       d="m 288.98327,889.86216 -27.39675,-21.9353 -2.2e-4,12.0075 h -30.03699 l 9e-5,20.8646 h 30.03698 l -5e-5,10.9985 z"
       style="fill:#000000;fill-opacity:1;stroke:none;stroke-width:1.101;stroke-linecap:round;stroke-linejoin:round;stroke-miterlimit:4;stroke-dasharray:none;stroke-dashoffset:0;stroke-opacity:1" />
    <path
       sodipodi:type="star"
       style="font-style:normal;font-weight:normal;font-size:medium;line-height:125%;font-family:sans-serif;letter-spacing:0px;word-spacing:0px;fill:#b3b3b3;fill-opacity:1;stroke:#000000;stroke-width:0.840064;stroke-linecap:butt;stroke-linejoin:round;stroke-miterlimit:4;stroke-dasharray:none;stroke-dashoffset:0;stroke-opacity:1"
       id="path36"
       sodipodi:sides="6"
       sodipodi:cx="389.90088"
       sodipodi:cy="1102.7913"
       sodipodi:r1="11.162703"
       sodipodi:r2="9.6671848"
       sodipodi:arg1="-1.0471976"
       sodipodi:arg2="-0.52359878"
       inkscape:flatsided="true"
       inkscape:rounded="0"
       inkscape:randomized="0"
       transform="matrix(4.3391554,2.5063768,-2.5053384,4.3413901,1129.607,-4829.2477)"
       d="m 395.48223,1093.1241 5.58135,9.6672 -5.58135,9.6671 -11.1627,0 -5.58135,-9.6671 5.58135,-9.6672 z" />
    <path
       transform="matrix(4.3391554,2.5063768,-2.5053384,4.3413901,1182.5414,-4920.9753)"
       inkscape:randomized="0"
       inkscape:rounded="0"
       inkscape:flatsided="true"
       sodipodi:arg2="-0.52359878"
       sodipodi:arg1="-1.0471976"
       sodipodi:r2="9.6671848"
       sodipodi:r1="11.162703"
       sodipodi:cy="1102.7913"
       sodipodi:cx="389.90088"
       sodipodi:sides="6"
       id="path42"
       style="font-style:normal;font-weight:normal;font-size:medium;line-height:125%;font-family:sans-serif;font-variation-settings:normal;letter-spacing:0px;word-spacing:0px;vector-effect:none;fill:#b3b3b3;fill-opacity:1;stroke:#000000;stroke-width:0.840064;stroke-linecap:butt;stroke-linejoin:round;stroke-miterlimit:4;stroke-dasharray:none;stroke-dashoffset:0;stroke-opacity:1;stop-color:#000000"
       sodipodi:type="star"
       d="m 395.48223,1093.1241 5.58135,9.6672 -5.58135,9.6671 -11.1627,0 -5.58135,-9.6671 5.58135,-9.6672 z" />
    <path
       transform="matrix(4.3391554,2.5063768,-2.5053384,4.3413901,1235.2626,-4829.0715)"
       inkscape:randomized="0"
       inkscape:rounded="0"
       inkscape:flatsided="true"
       sodipodi:arg2="-0.52359878"
       sodipodi:arg1="-1.0471976"
       sodipodi:r2="9.6671848"
       sodipodi:r1="11.162703"
       sodipodi:cy="1102.7913"
       sodipodi:cx="389.90088"
       sodipodi:sides="6"
       id="path72"
       style="font-style:normal;font-weight:normal;font-size:medium;line-height:125%;font-family:sans-serif;letter-spacing:0px;word-spacing:0px;fill:#b3b3b3;fill-opacity:1;stroke:#000000;stroke-width:0.840064;stroke-linecap:butt;stroke-linejoin:round;stroke-miterlimit:4;stroke-dasharray:none;stroke-dashoffset:0;stroke-opacity:1"
       sodipodi:type="star"
       d="m 395.48223,1093.1241 5.58135,9.6672 -5.58135,9.6671 -11.1627,0 -5.58135,-9.6671 5.58135,-9.6672 z" />
    <g
       id="g141"
       transform="matrix(0.7776389,0,0,0.7776389,-64.776842,279.08606)"
       style="stroke-width:2.03026">
      <ellipse
         ry="34.495525"
         rx="34.485989"
         cy="844.51538"
         cx="294.5"
         id="circle4163"
         style="fill:#000000;stroke:none;stroke-width:16.262;stroke-miterlimit:4;stroke-dasharray:none;stroke-opacity:1" />
      <path
         inkscape:connector-curvature="0"
         style="font-variation-settings:normal;vector-effect:none;fill:#ffffff;fill-opacity:1;stroke-width:1.17359;stroke-linecap:butt;stroke-linejoin:miter;stroke-miterlimit:4;stroke-dasharray:none;stroke-dashoffset:0;stroke-opacity:1;stop-color:#000000"
         d="m 280.22612,822.8759 c -1.41214,-4.8e-4 -2.89804,0.20435 -4.46152,0.66067 a 0.9052249,0.90539552 0 0 0 -0.0138,0.0134 0.9052249,0.90539552 0 0 0 -0.0473,0.016 0.9052249,0.90539552 0 0 0 -0.0371,0.0134 0.9052249,0.90539552 0 0 0 -0.0447,0.0221 0.9052249,0.90539552 0 0 0 -0.0365,0.0184 0.9052249,0.90539552 0 0 0 -0.0441,0.0258 0.9052249,0.90539552 0 0 0 -0.0325,0.022 0.9052249,0.90539552 0 0 0 -0.0413,0.0295 0.9052249,0.90539552 0 0 0 -0.0308,0.0245 0.9052249,0.90539552 0 0 0 -0.0378,0.0344 0.9052249,0.90539552 0 0 0 -0.0283,0.027 0.9052249,0.90539552 0 0 0 -0.0353,0.0381 0.9052249,0.90539552 0 0 0 -0.0236,0.0282 0.9052249,0.90539552 0 0 0 -0.0325,0.0429 0.9052249,0.90539552 0 0 0 -0.0204,0.0294 0.9052249,0.90539552 0 0 0 -0.0269,0.0454 0.9052249,0.90539552 0 0 0 -0.0184,0.0331 0.9052249,0.90539552 0 0 0 -0.0222,0.0478 0.9052249,0.90539552 0 0 0 -0.0149,0.0355 0.9052249,0.90539552 0 0 0 -0.0169,0.0478 0.9052249,0.90539552 0 0 0 -0.0116,0.0368 0.9052249,0.90539552 0 0 0 -0.0162,0.0663 l -2.13366,10.67056 a 0.9052249,0.90539552 0 0 0 0.53599,1.01148 l 7.81571,3.2955 3.01297,15.45211 -11.10415,2.41244 a 0.9052249,0.90539552 0 0 0 -0.71465,0.87251 l -0.10115,7.28808 a 0.9052249,0.90539552 0 0 0 1.17918,0.87533 l 13.95647,-4.46141 2.2986,-0.44577 c 0.0169,0 0.0336,0 0.0505,0 0.94867,0 1.84209,-0.4519 2.46602,-1.18873 0.62347,-0.73599 0.94963,-1.69546 0.94868,-2.68365 v 0 c 5.7e-4,-0.62645 -0.13072,-1.24234 -0.38543,-1.7969 l -2.40819,-12.44402 11.98461,5.05302 a 0.9052249,0.90539552 0 0 0 0.0147,0.0134 0.9052249,0.90539552 0 0 0 0.052,0.0185 0.9052249,0.90539552 0 0 0 0.0333,0.0134 0.9052249,0.90539552 0 0 0 0.0518,0.0134 0.9052249,0.90539552 0 0 0 0.0397,0.0134 0.9052249,0.90539552 0 0 0 0.046,0.0134 0.9052249,0.90539552 0 0 0 0.0459,0.0134 0.9052249,0.90539552 0 0 0 0.0409,0 0.9052249,0.90539552 0 0 0 0.0515,0 0.9052249,0.90539552 0 0 0 0.0346,0 l 7.94748,-0.5033 a 0.9052249,0.90539552 0 0 0 0.75945,-0.51824 l 4.81408,-10.19327 h 7.6e-4 a 0.9052249,0.90539552 0 0 0 0.002,-0.0134 0.9052249,0.90539552 0 0 0 -0.52504,-1.25203 c -0.742,-0.40688 -1.50572,-0.69183 -2.28268,-0.87178 l -29.33643,-11.38457 a 0.9052249,0.90539552 0 0 0 -0.0765,-0.0258 c -1.26895,-0.36627 -2.60743,-0.57272 -4.01967,-0.57358 z m -2.51052,1.30797 a 0.9052249,0.90539552 0 0 1 0.35133,0.0686 l 27.70464,11.10601 a 0.90598726,0.90615802 0 0 1 0.54981,1.0283 0.9052249,0.90539552 0 0 0 -0.0674,0.1391 l -0.0797,0.19724 a 0.90598726,0.90615802 0 0 1 -1.0758,0.31795 l -27.70454,-11.10882 a 0.9052249,0.90539552 0 0 1 0.3217,-1.74846 z m 34.04675,12.23402 c 0.41925,0 0.83376,0.0478 1.24521,0.13334 l 1.40453,0.54512 -2.25544,4.77617 c 0.087,-0.38677 0.1313,-0.77046 0.1272,-1.12999 -0.009,-0.83202 -0.28015,-1.52016 -0.74752,-1.86437 -0.46738,-0.34444 -1.11372,-0.33169 -1.7509,0.0234 -0.15721,0.0883 -0.31492,0.19675 -0.46747,0.32174 0.0586,-0.0786 0.11336,-0.164 0.16075,-0.25624 0.13501,-0.26263 0.21419,-0.56708 0.21153,-0.83669 -0.003,-0.27011 -0.0901,-0.49961 -0.24422,-0.61664 -0.077,-0.0589 -0.1658,-0.0883 -0.26204,-0.0859 -0.0962,0 -0.20029,0.0307 -0.30072,0.0883 -0.20078,0.1153 -0.38877,0.33548 -0.52408,0.5986 -0.13502,0.26349 -0.2144,0.56682 -0.21124,0.83693 0.002,0.2701 0.0901,0.49973 0.24412,0.61676 0.15406,0.11653 0.3619,0.10908 0.56277,-0.0134 -0.3255,0.33941 -0.62375,0.7529 -0.86636,1.21216 -0.43908,0.83056 -0.68854,1.79151 -0.67891,2.62366 0.009,0.83228 0.28585,1.52312 0.75333,1.86756 0.46729,0.34444 1.10762,0.32861 1.7447,-0.0258 0.39811,-0.22226 0.78993,-0.57357 1.13488,-1.00854 l -0.80138,1.69645 -5.97924,0.38123 3.54972,-8.80531 c 1.39452,-0.73807 2.69395,-1.09723 3.95087,-1.08655 z m -28.40291,3.6354 1.52593,0.64349 2.83306,13.30034 c -0.28633,-0.0871 -0.58534,-0.13468 -0.89017,-0.13468 -0.25957,0 -0.51454,0.0355 -0.76115,0.0994 l -2.70767,-13.90839 z m 3.55926,1.50092 1.62149,0.68359 2.19159,11.32509 c -0.26032,-0.0723 -0.53017,-0.11042 -0.80488,-0.11042 -0.15657,0 -0.3112,0.0134 -0.46358,0.0368 l -2.54453,-11.93596 z m 3.0081,13.71567 c 0.36809,0 0.78687,0.18867 1.09312,0.55028 0.30634,0.36149 0.5177,0.94255 0.51685,1.50521 9.6e-4,0.56278 -0.21059,1.1436 -0.51674,1.50533 -0.14532,0.17161 -0.31598,0.30273 -0.49436,0.39473 l -0.58535,0.11281 c 0.20068,-0.50256 0.3034,-1.04853 0.30283,-1.6036 v 0 c 3.8e-4,-0.35964 -0.043,-0.71586 -0.12787,-1.05871 a 0.9052249,0.90539552 0 0 0 -0.0184,-0.21417 l -0.25309,-1.18726 c 0.0276,0 0.0556,-0.0134 0.0829,-0.0134 z m -3.09854,0.40982 c 0.36819,0 0.78707,0.18854 1.09341,0.55028 0.30627,0.36173 0.51742,0.94254 0.51665,1.50521 7.7e-4,0.5629 -0.21059,1.14372 -0.51674,1.50533 -0.30634,0.36174 -0.72513,0.55052 -1.09341,0.55052 -0.36809,0 -0.7845,-0.18891 -1.09076,-0.55052 -0.30624,-0.36149 -0.52007,-0.94243 -0.5193,-1.50533 -7.7e-4,-0.56267 0.21306,-1.14348 0.5193,-1.50521 0.30626,-0.36174 0.72267,-0.55028 1.09076,-0.55028 z m -3.28701,1.00928 c -0.0829,0.33929 -0.12541,0.6911 -0.12503,1.04621 v 0 c -9.6e-4,0.98843 0.32493,1.94778 0.9484,2.68389 0.0799,0.0932 0.16418,0.18387 0.25231,0.26851 l -10.34671,3.30752 0.0745,-5.31038 9.19652,-1.99819 z"
         id="path1339" />
    </g>
    <g
       id="g20"
       transform="matrix(0.39176539,0,0,0.39176539,73.285464,501.85244)"
       style="stroke-width:4.02998">
      <ellipse
         cy="873.11908"
         cx="-97.586967"
         id="path4151"
         style="fill:#000000;stroke:none;stroke-width:16.7812;stroke-miterlimit:4;stroke-dasharray:none;stroke-opacity:1"
         transform="scale(-1,1)"
         rx="68.453377"
         ry="68.472313" />
      <path
         id="path15149"
         d="m 97.586965,825.57807 c -4.31843,0 -7.1841,2.15681 -11.02817,4.29348 -3.6435,2.02589 -8.22347,3.76229 -14.68248,2.44315 -3.0652,3.0656 -6.17937,6.13183 -9.50034,8.20872 -2.71758,1.69989 -5.77157,2.71252 -8.81772,2.23358 0.87401,6.88075 5.04979,13.61111 9.41488,17.13424 11.51146,-3.81704 23.05175,-5.72651 34.59206,-5.72651 11.550875,0 23.101535,1.91324 34.623575,5.73722 4.36965,-3.51999 8.55223,-10.25727 9.42691,-17.14495 -3.0455,0.47832 -6.09994,-0.53497 -8.81774,-2.23296 -3.32096,-2.07751 -6.4347,-5.14374 -9.50034,-8.20934 -6.45834,1.31914 -11.03917,-0.41538 -14.68226,-2.44254 -3.84467,-2.13792 -6.71015,-4.29409 -11.028375,-4.29409 z m -0.0227,4.02096 c 4.074725,0 10.933605,5.5094 10.933605,5.5094 0,0 -4.36366,16.53069 -10.933605,16.53069 -6.57039,0 -10.93421,-16.53069 -10.93421,-16.53069 0,0 6.8595,-5.5094 10.93421,-5.5094 z m 0,28.255 c -10.85561,0 -21.71185,1.77604 -32.59399,5.29603 -0.44841,2.7717 0.31043,4.83158 1.94268,6.73599 1.82194,2.12599 4.88031,3.93098 8.50513,5.2904 7.25071,2.71946 16.65294,3.68238 22.14639,3.68238 5.493235,0 14.895045,-0.96292 22.145345,-3.68238 3.62544,-1.35942 6.68319,-3.16379 8.50515,-5.2904 1.63281,-1.90441 2.39194,-3.96368 1.9433,-6.73599 -10.88217,-3.51999 -21.73841,-5.29603 -32.593795,-5.29603 z m -35.62145,11.75952 c -2.01964,0.49091 -5.53826,1.59983 -6.17025,3.49672 -1.72801,5.18464 3.47921,13.12777 7.41724,18.1387 -1.085,-4.52821 -1.66991,-9.34469 -1.66991,-14.33803 0,-2.48092 0.14512,-4.91778 0.42298,-7.29739 z m 71.242095,0 a 62.899686,62.940019 0 0 1 0.42286,7.29677 c 0,4.99396 -0.58474,9.81044 -1.66991,14.33865 3.93803,-5.01093 9.14525,-12.95406 7.41724,-18.1387 -0.63181,-1.89689 -4.15083,-3.00707 -6.16984,-3.49672 z m -67.865785,3.94481 c -0.0622,1.10643 -0.0975,2.22354 -0.0975,3.35196 0,12.2171 3.72814,23.24343 9.64491,31.13369 5.91659,7.89087 13.92208,12.61608 22.69791,12.61608 8.775425,0 16.781105,-4.72521 22.697485,-12.61608 5.91637,-7.89026 9.64429,-18.91596 9.64429,-31.13369 0,-1.12842 -0.0358,-2.24553 -0.0975,-3.35259 -1.68632,1.57529 -3.74575,2.85416 -6.0118,3.9165 0.87798,3.74531 -0.0546,8.40319 -2.48778,10.83626 -4.47752,4.47851 -14.51879,4.47851 -18.99653,0 -1.38679,-1.38772 -1.98166,-3.59802 -1.90324,-5.81651 -1.014501,0 -1.973991,0.0881 -2.845355,0.0881 -0.8716,0 -1.83131,0 -2.84599,-0.0881 0.0787,2.21849 -0.51624,4.42879 -1.90326,5.81651 -4.47774,4.47851 -14.51881,4.47851 -18.99635,0 -2.433,-2.43307 -3.36574,-7.09095 -2.48775,-10.83562 -2.26603,-1.06236 -4.3261,-2.3406 -6.0118,-3.91651 z m 32.24514,24.2523 c 4.749035,7.6001 14.246675,8.55044 18.995695,8.55044 -4.74881,3.80007 -18.995485,3.80007 -18.995485,0 0,3.80007 -14.24751,3.80007 -18.99654,0 4.74903,0 14.24729,-0.95034 18.99654,-8.55044 z"
         style="fill:#ffffff;fill-opacity:1;stroke-width:5.59371"
         inkscape:connector-curvature="0" />
    </g>
    <path
       style="color:#000000;font-style:normal;font-variant:normal;font-weight:normal;font-stretch:normal;font-size:medium;line-height:normal;font-family:sans-serif;font-variant-ligatures:normal;font-variant-position:normal;font-variant-caps:normal;font-variant-numeric:normal;font-variant-alternates:normal;font-variant-east-asian:normal;font-feature-settings:normal;font-variation-settings:normal;text-indent:0;text-align:start;text-decoration:none;text-decoration-line:none;text-decoration-style:solid;text-decoration-color:#000000;letter-spacing:normal;word-spacing:normal;text-transform:none;writing-mode:lr-tb;direction:ltr;text-orientation:mixed;dominant-baseline:auto;baseline-shift:baseline;text-anchor:start;white-space:normal;shape-padding:0;shape-margin:0;inline-size:0;clip-rule:nonzero;display:inline;overflow:visible;visibility:visible;isolation:auto;mix-blend-mode:normal;color-interpolation:sRGB;color-interpolation-filters:linearRGB;solid-color:#000000;solid-opacity:1;vector-effect:none;fill:#000000;fill-opacity:1;fill-rule:nonzero;stroke:none;stroke-width:6.34437;stroke-linecap:butt;stroke-linejoin:miter;stroke-miterlimit:4;stroke-dasharray:none;stroke-dashoffset:0;stroke-opacity:1;paint-order:stroke markers fill;color-rendering:auto;image-rendering:auto;shape-rendering:auto;text-rendering:auto;enable-background:accumulate;stop-color:#000000"
       d="m 163.98182,891.79045 c -24.43198,0 -44.30895,19.85625 -44.30895,44.27056 0,24.4143 19.87697,44.27181 44.30895,44.27181 24.43197,0 44.30895,-19.85751 44.30895,-44.27181 0,-24.41431 -19.87698,-44.27056 -44.30895,-44.27056 z m 0,6.34437 c 21.00635,0 37.9646,16.94379 37.9646,37.92619 0,7.92303 -2.42035,15.26732 -6.56121,21.34408 l -52.76733,-52.71772 c 6.08186,-4.13549 13.43346,-6.55255 21.36394,-6.55255 z m -27.99702,12.28477 53.66071,53.61119 c -6.75201,6.18445 -15.75628,9.95768 -25.66369,9.95768 -21.00637,0 -37.9646,-16.94506 -37.9646,-37.92745 0,-9.89772 3.77574,-18.89558 9.96758,-25.64142 z"
       id="path932" />
    <g
       id="g964"
       transform="matrix(0.39176539,0,0,0.39176539,8.7660614,595.01389)"
       style="stroke-width:4.02998">
      <ellipse
         cy="873.11908"
         cx="-97.586967"
         id="ellipse960"
         style="fill:#000000;stroke:none;stroke-width:16.7812;stroke-miterlimit:4;stroke-dasharray:none;stroke-opacity:1"
         transform="scale(-1,1)"
         rx="68.453377"
         ry="68.472313" />
      <path
         id="path962"
         d="m 97.586965,825.57807 c -4.31843,0 -7.1841,2.15681 -11.02817,4.29348 -3.6435,2.02589 -8.22347,3.76229 -14.68248,2.44315 -3.0652,3.0656 -6.17937,6.13183 -9.50034,8.20872 -2.71758,1.69989 -5.77157,2.71252 -8.81772,2.23358 0.87401,6.88075 5.04979,13.61111 9.41488,17.13424 11.51146,-3.81704 23.05175,-5.72651 34.59206,-5.72651 11.550875,0 23.101535,1.91324 34.623575,5.73722 4.36965,-3.51999 8.55223,-10.25727 9.42691,-17.14495 -3.0455,0.47832 -6.09994,-0.53497 -8.81774,-2.23296 -3.32096,-2.07751 -6.4347,-5.14374 -9.50034,-8.20934 -6.45834,1.31914 -11.03917,-0.41538 -14.68226,-2.44254 -3.84467,-2.13792 -6.71015,-4.29409 -11.028375,-4.29409 z m -0.0227,4.02096 c 4.074725,0 10.933605,5.5094 10.933605,5.5094 0,0 -4.36366,16.53069 -10.933605,16.53069 -6.57039,0 -10.93421,-16.53069 -10.93421,-16.53069 0,0 6.8595,-5.5094 10.93421,-5.5094 z m 0,28.255 c -10.85561,0 -21.71185,1.77604 -32.59399,5.29603 -0.44841,2.7717 0.31043,4.83158 1.94268,6.73599 1.82194,2.12599 4.88031,3.93098 8.50513,5.2904 7.25071,2.71946 16.65294,3.68238 22.14639,3.68238 5.493235,0 14.895045,-0.96292 22.145345,-3.68238 3.62544,-1.35942 6.68319,-3.16379 8.50515,-5.2904 1.63281,-1.90441 2.39194,-3.96368 1.9433,-6.73599 -10.88217,-3.51999 -21.73841,-5.29603 -32.593795,-5.29603 z m -35.62145,11.75952 c -2.01964,0.49091 -5.53826,1.59983 -6.17025,3.49672 -1.72801,5.18464 3.47921,13.12777 7.41724,18.1387 -1.085,-4.52821 -1.66991,-9.34469 -1.66991,-14.33803 0,-2.48092 0.14512,-4.91778 0.42298,-7.29739 z m 71.242095,0 a 62.899686,62.940019 0 0 1 0.42286,7.29677 c 0,4.99396 -0.58474,9.81044 -1.66991,14.33865 3.93803,-5.01093 9.14525,-12.95406 7.41724,-18.1387 -0.63181,-1.89689 -4.15083,-3.00707 -6.16984,-3.49672 z m -67.865785,3.94481 c -0.0622,1.10643 -0.0975,2.22354 -0.0975,3.35196 0,12.2171 3.72814,23.24343 9.64491,31.13369 5.91659,7.89087 13.92208,12.61608 22.69791,12.61608 8.775425,0 16.781105,-4.72521 22.697485,-12.61608 5.91637,-7.89026 9.64429,-18.91596 9.64429,-31.13369 0,-1.12842 -0.0358,-2.24553 -0.0975,-3.35259 -1.68632,1.57529 -3.74575,2.85416 -6.0118,3.9165 0.87798,3.74531 -0.0546,8.40319 -2.48778,10.83626 -4.47752,4.47851 -14.51879,4.47851 -18.99653,0 -1.38679,-1.38772 -1.98166,-3.59802 -1.90324,-5.81651 -1.014501,0 -1.973991,0.0881 -2.845355,0.0881 -0.8716,0 -1.83131,0 -2.84599,-0.0881 0.0787,2.21849 -0.51624,4.42879 -1.90326,5.81651 -4.47774,4.47851 -14.51881,4.47851 -18.99635,0 -2.433,-2.43307 -3.36574,-7.09095 -2.48775,-10.83562 -2.26603,-1.06236 -4.3261,-2.3406 -6.0118,-3.91651 z m 32.24514,24.2523 c 4.749035,7.6001 14.246675,8.55044 18.995695,8.55044 -4.74881,3.80007 -18.995485,3.80007 -18.995485,0 0,3.80007 -14.24751,3.80007 -18.99654,0 4.74903,0 14.24729,-0.95034 18.99654,-8.55044 z"
         style="fill:#ffffff;fill-opacity:1;stroke-width:5.59371"
         inkscape:connector-curvature="0" />
    </g>
    <path
       style="fill:#4d4d4d;fill-opacity:1;stroke:none;stroke-width:1.57881;stroke-opacity:1"
       inkscape:connector-curvature="0"
       d="m 73.730562,909.50842 c -3.509126,0 -6.032885,1.85665 -7.49049,4.18903 -1.303591,2.0855 -1.845928,4.50477 -1.951724,6.62394 -3.97803,1.96662 -8.38493,3.94987 -11.932989,5.97752 -1.861196,1.0639 -3.483866,2.13354 -4.705296,3.28313 -1.221399,1.1496 -2.122615,2.44443 -2.122615,3.97128 0,0.64999 0.317672,1.17942 0.674546,1.56826 0.358296,0.38964 0.786832,0.6907 1.275221,0.97245 0.976731,0.56312 2.208108,1.0327 3.562695,1.43958 2.012335,0.60363 4.265976,1.0527 6.2255,1.24431 -1.949025,3.35902 -4.54282,6.44342 -6.816464,9.39884 -2.627566,3.41639 -4.921498,6.6925 -4.921498,10.33189 0,0.51962 -0.01263,0.9257 0.04137,1.33376 0.0461,0.41015 0.163343,0.91619 0.573123,1.3199 0.409986,0.40183 0.911984,0.51179 1.320817,0.55608 0.408785,0.0445 0.820776,0.0445 1.34914,0.0445 h 14.496898 c 1.05234,0 1.822925,0.0663 2.615614,-0.445 0.7928,-0.50942 1.08188,-1.20538 1.646699,-2.2455 h 0.01263 l 0.01263,-0.0456 c 0,0 1.263664,-2.56945 2.771411,-5.11957 0.753787,-1.27423 1.572226,-2.54398 2.28408,-3.44343 0.356638,-0.44988 0.689372,-0.80673 0.929256,-1.00814 0.07341,-0.0575 0.107043,-0.0733 0.153934,-0.10246 0.04721,0.0456 0.08036,0.0456 0.153934,0.10246 0.239695,0.20102 0.573187,0.55777 0.929256,1.00814 0.711838,0.89945 1.530246,2.1692 2.284072,3.44343 1.50761,2.55012 2.77142,5.11957 2.77142,5.11957 l 0.0126,0.0456 h 0.0126 c 0.56483,1.04012 0.85126,1.73202 1.63882,2.24272 0.78736,0.51049 1.55632,0.44986 2.59382,0.44986 h 14.56072 c 0.51985,0 0.92534,0 1.331348,-0.0445 0.40591,-0.0445 0.90955,-0.15583 1.31538,-0.56349 0.40547,-0.41015 0.51776,-0.90936 0.56269,-1.31543 0.0461,-0.40183 0.041,-0.81118 0.041,-1.33159 0,-3.639 -2.293928,-6.91471 -4.921528,-10.3311 -2.27349,-2.95572 -4.86728,-6.04032 -6.81642,-9.39925 1.95956,-0.19279 4.21323,-0.64057 6.22547,-1.24441 1.35456,-0.41004 2.58598,-0.87595 3.56268,-1.43946 0.488408,-0.27898 0.917318,-0.58362 1.275018,-0.97206 0.35786,-0.38954 0.67478,-0.91868 0.67478,-1.56877 0,-1.52683 -0.90122,-2.82127 -2.122578,-3.97126 -1.2215,-1.1491 -2.84414,-2.21914 -4.70525,-3.28304 -3.54816,-2.02755 -7.95498,-4.0106 -11.93307,-5.97762 -0.10594,-2.11908 -0.64823,-4.53843 -1.95168,-6.62393 -1.45762,-2.33238 -3.98135,-4.18903 -7.490503,-4.18903 z"
       id="path77" />
    <g
       style="stroke-width:1.08835"
       transform="matrix(0.91924627,0,0,0.91840422,-125.30083,22.588794)"
       id="g957">
      <path
         inkscape:connector-curvature="0"
         id="path6427-2"
         style="font-style:normal;font-variant:normal;font-weight:normal;font-stretch:normal;font-size:11.25px;line-height:110%;font-family:'Archivo Narrow';-inkscape-font-specification:'Archivo Narrow';letter-spacing:0px;word-spacing:0px;fill:#000000;fill-opacity:1;stroke:none;stroke-width:7.18257px;stroke-linecap:butt;stroke-linejoin:miter;stroke-opacity:1"
         d="m 555.14612,969.86542 q 0,1.6325 -1.1241,2.8147 -1.1242,1.1822 -2.75419,1.4636 h -20.90896 q -1.57381,-0.2818 -2.75414,-1.4636 -1.12414,-1.1822 -1.12414,-2.8147 v -3.0399 q 0,-2.2517 -0.33725,-3.9405 -0.28108,-1.6888 -1.18035,-3.6591 -0.89932,-1.9704 -2.58553,-4.6161 -1.68621,-2.6458 -4.38414,-6.699 -3.03518,-4.6161 -5.22725,-8.10635 -2.13587,-3.54651 -3.54104,-6.64264 -1.34896,-3.09613 -2.02345,-6.07972 -0.61822,-3.03986 -0.61822,-6.64264 0,-4.67246 1.18033,-9.00706 1.23656,-4.3346 3.48484,-8.10636 2.24828,-3.77167 5.33965,-6.81154 3.14759,-3.09611 6.91346,-5.29164 3.82207,-2.19543 8.20621,-3.37764 4.44036,-1.23846 9.16174,-1.23846 4.66517,0 8.99307,1.23846 4.32799,1.18221 8.15002,3.37764 3.82211,2.19553 6.96964,5.29164 3.14761,3.03987 5.39592,6.81154 2.30448,3.77176 3.54104,8.10636 1.23657,4.3346 1.23657,9.00706 0,3.32127 -0.73059,6.41749 -0.67431,3.09613 -2.13586,6.36113 -1.40508,3.20876 -3.59722,6.81165 -2.13586,3.60277 -5.00241,7.82488 -2.6979,3.9968 -4.38416,6.5863 -1.68616,2.5895 -2.64174,4.5598 -0.89941,1.914 -1.23646,3.6028 -0.2814,1.6888 -0.2814,3.9406 v 3.3213 z m 0,16.0437 q 0,0.7881 -0.11255,1.3511 -0.0511,0.2255 -0.0511,0.4499 -0.2251,0.619 -0.2251,1.4074 0,0.788 0.2251,1.2383 0,0.1128 0.0511,0.3382 0.11255,0.4499 0.11255,1.1822 0,0.9572 -0.28138,1.6325 -0.22511,0.67541 -0.50547,1.12601 -0.33767,0.5626 -0.78684,0.8444 -0.50547,0.2818 -1.06795,0.5626 -0.50545,0.2818 -0.73056,0.2818 -0.28139,0 -0.73058,0.2819 -0.4492,0.3371 -0.78685,0.788 l -2.02341,3.60277 q -0.33726,0.4499 -0.95549,0.7881 -0.61823,0.3945 -1.12413,0.619 h -10.51071 q -0.56204,-0.2255 -1.18033,-0.619 -0.61823,-0.3382 -0.89931,-0.7881 l -2.24828,-3.60277 q -0.28108,-0.4499 -0.6745,-0.788 -0.39343,-0.2819 -0.6745,-0.2819 -0.33726,0 -0.84314,-0.2818 -0.44959,-0.2818 -0.95547,-0.5626 -0.44971,-0.2818 -0.78685,-0.8444 -0.28108,-0.4499 -0.50587,-1.12601 -0.22481,-0.6753 -0.22481,-1.6325 0,-0.9571 0.0563,-1.1822 0,-0.2254 0.0563,-0.3382 0.1124,-0.2818 0.16862,-0.619 0.0563,-0.2818 0.0563,-0.6189 0,-0.3382 -0.0563,-0.7317 -0.0563,-0.3372 -0.16862,-0.6754 -0.0563,-0.2254 -0.0563,-0.4499 -0.0563,-0.2818 -0.0563,-1.3511 0,-1.0135 0.22481,-1.8014 0.28108,-0.788 0.56204,-1.2947 0.33726,-0.619 0.84314,-1.0696 l 2.36068,-1.2384 h 20.45936 l 2.36066,1.2384 q 0.45021,0.4499 0.84312,1.0696 0.2814,0.5063 0.56175,1.2947 0.28139,0.7881 0.28139,1.8014 z" />
      <circle
         style="fill:none;stroke:#000000;stroke-width:10.8835;stroke-miterlimit:4;stroke-dasharray:none;stroke-opacity:1;stop-color:#000000"
         id="path127"
         cx="541.25"
         cy="944.32642"
         r="70.535713" />
      <rect
         style="fill:#000000;fill-opacity:1;stroke:none;stroke-width:10.8835;stroke-miterlimit:4;stroke-dasharray:none;stroke-opacity:1;stop-color:#000000"
         id="rect952"
         width="15"
         height="144.64285"
         x="-287.84616"
         y="977.25592"
         transform="rotate(-45)" />
    </g>
  </g>
</svg>
