<?xml version="1.0" encoding="UTF-8" standalone="no"?>
<svg
   xmlns:dc="http://purl.org/dc/elements/1.1/"
   xmlns:cc="http://creativecommons.org/ns#"
   xmlns:rdf="http://www.w3.org/1999/02/22-rdf-syntax-ns#"
   xmlns:svg="http://www.w3.org/2000/svg"
   xmlns="http://www.w3.org/2000/svg"
   xmlns:sodipodi="http://sodipodi.sourceforge.net/DTD/sodipodi-0.dtd"
   xmlns:inkscape="http://www.inkscape.org/namespaces/inkscape"
   sodipodi:docname="ties-broke.svg"
   inkscape:version="1.0 (4035a4fb49, 2020-05-01)"
   version="1.1"
   id="svg5199"
   viewBox="0 0 450.00001 325"
   height="325"
   width="450">
  <defs
     id="defs5201">
    <marker
       inkscape:isstock="true"
       style="overflow:visible"
       id="marker15102"
       refX="0"
       refY="0"
       orient="auto"
       inkscape:stockid="Arrow2Lend">
      <path
         transform="matrix(-1.1,0,0,-1.1,-1.1,0)"
         d="M 8.7185878,4.0337352 -2.2072895,0.01601326 8.7185884,-4.0017078 c -1.7454984,2.3720609 -1.7354408,5.6174519 -6e-7,8.035443 z"
         style="fill:#000000;fill-opacity:1;fill-rule:evenodd;stroke:#000000;stroke-width:0.625;stroke-linejoin:round;stroke-opacity:1"
         id="path15104"
         inkscape:connector-curvature="0" />
    </marker>
    <inkscape:perspective
       sodipodi:type="inkscape:persp3d"
       inkscape:vp_x="18.016193 : 750.09004 : 1"
       inkscape:vp_y="506.3456 : 47.252995 : 0"
       inkscape:vp_z="58.843036 : 71.472236 : 1"
       inkscape:persp3d-origin="-41.513532 : 520.19242 : 1"
       id="perspective4718" />
    <marker
       inkscape:stockid="Arrow2Lend"
       orient="auto"
       refY="0"
       refX="0"
       id="Arrow2Lend"
       style="overflow:visible"
       inkscape:isstock="true">
      <path
         id="path5089"
         style="fill:#ffffff;fill-opacity:1;fill-rule:evenodd;stroke:#ffffff;stroke-width:0.625;stroke-linejoin:round;stroke-opacity:1"
         d="M 8.7185878,4.0337352 -2.2072895,0.01601326 8.7185884,-4.0017078 c -1.7454984,2.3720609 -1.7354408,5.6174519 -6e-7,8.035443 z"
         transform="matrix(-1.1,0,0,-1.1,-1.1,0)"
         inkscape:connector-curvature="0" />
    </marker>
    <marker
       inkscape:stockid="Arrow1Mend"
       orient="auto"
       refY="0"
       refX="0"
       id="Arrow1Mend"
       style="overflow:visible"
       inkscape:isstock="true">
      <path
         id="path5077"
         d="M 0,0 5,-5 -12.5,0 5,5 0,0 Z"
         style="fill:#000000;fill-opacity:1;fill-rule:evenodd;stroke:#000000;stroke-width:1pt;stroke-opacity:1"
         transform="matrix(-0.4,0,0,-0.4,-4,0)"
         inkscape:connector-curvature="0" />
    </marker>
    <filter
       inkscape:label="Linen Canvas"
       inkscape:menu="Bumps"
       inkscape:menu-tooltip="Painting canvas emboss effect"
       style="color-interpolation-filters:sRGB"
       id="filter5738">
      <feTurbulence
         numOctaves="5"
         baseFrequency="0.4"
         id="feTurbulence5740" />
      <feConvolveMatrix
         order="5 5"
         kernelMatrix="-4 0 0 0 -4 0 -2 0 -2 0 0 0 -10 0 0 0 -2 0 -2 0 -4 0 0 0 -4 "
         targetX="2"
         targetY="2"
         id="feConvolveMatrix5742" />
      <feConvolveMatrix
         order="3 3"
         kernelMatrix="2 0 2 0 -5 0 2 0 2 "
         targetX="1"
         targetY="1"
         id="feConvolveMatrix5744" />
      <feColorMatrix
         type="saturate"
         result="result1"
         id="feColorMatrix5746" />
      <feComposite
         k4="0"
         in2="SourceGraphic"
         operator="arithmetic"
         k1="1.5"
         k2="0.5"
         k3="0.5"
         result="result2"
         id="feComposite5748" />
      <feBlend
         mode="normal"
         in2="result1"
         result="result4"
         id="feBlend5750" />
      <feColorMatrix
         type="luminanceToAlpha"
         id="feColorMatrix5752" />
      <feDiffuseLighting
         surfaceScale="10"
         diffuseConstant="1"
         result="result3"
         id="feDiffuseLighting5754">
        <feDistantLight
           azimuth="180"
           elevation="35"
           id="feDistantLight5756" />
      </feDiffuseLighting>
      <feComposite
         k4="0"
         k2="0"
         in2="result4"
         operator="arithmetic"
         k1="1.5"
         k3="0.5"
         result="result5"
         id="feComposite5758" />
      <feBlend
         mode="normal"
         in2="result3"
         result="result6"
         id="feBlend5760" />
      <feComposite
         in2="SourceGraphic"
         operator="in"
         id="feComposite5762" />
    </filter>
    <filter
       inkscape:label="Linen Canvas"
       inkscape:menu="Bumps"
       inkscape:menu-tooltip="Painting canvas emboss effect"
       style="color-interpolation-filters:sRGB"
       id="filter5738-7">
      <feTurbulence
         numOctaves="5"
         baseFrequency="0.4"
         id="feTurbulence5740-2" />
      <feConvolveMatrix
         order="5 5"
         kernelMatrix="-4 0 0 0 -4 0 -2 0 -2 0 0 0 -10 0 0 0 -2 0 -2 0 -4 0 0 0 -4 "
         targetX="2"
         targetY="2"
         id="feConvolveMatrix5742-7" />
      <feConvolveMatrix
         order="3 3"
         kernelMatrix="2 0 2 0 -5 0 2 0 2 "
         targetX="1"
         targetY="1"
         id="feConvolveMatrix5744-6" />
      <feColorMatrix
         type="saturate"
         result="result1"
         id="feColorMatrix5746-7" />
      <feComposite
         k4="0"
         in2="SourceGraphic"
         operator="arithmetic"
         k1="1.5"
         k2="0.5"
         k3="0.5"
         result="result2"
         id="feComposite5748-0" />
      <feBlend
         mode="normal"
         in2="result1"
         result="result4"
         id="feBlend5750-0" />
      <feColorMatrix
         type="luminanceToAlpha"
         id="feColorMatrix5752-6" />
      <feDiffuseLighting
         surfaceScale="10"
         diffuseConstant="1"
         result="result3"
         id="feDiffuseLighting5754-4">
        <feDistantLight
           azimuth="180"
           elevation="35"
           id="feDistantLight5756-8" />
      </feDiffuseLighting>
      <feComposite
         k4="0"
         k2="0"
         in2="result4"
         operator="arithmetic"
         k1="1.5"
         k3="0.5"
         result="result5"
         id="feComposite5758-6" />
      <feBlend
         mode="normal"
         in2="result3"
         result="result6"
         id="feBlend5760-9" />
      <feComposite
         in2="SourceGraphic"
         operator="in"
         id="feComposite5762-2" />
    </filter>
    <marker
       inkscape:isstock="true"
       style="overflow:visible"
       id="marker15102-9"
       refX="0"
       refY="0"
       orient="auto"
       inkscape:stockid="Arrow2Lend">
      <path
         transform="matrix(-1.1,0,0,-1.1,-1.1,0)"
         d="M 8.7185878,4.0337352 -2.2072895,0.01601326 8.7185884,-4.0017078 c -1.7454984,2.3720609 -1.7354408,5.6174519 -6e-7,8.035443 z"
         style="fill:#000000;fill-opacity:1;fill-rule:evenodd;stroke:#000000;stroke-width:0.625;stroke-linejoin:round;stroke-opacity:1"
         id="path15104-2"
         inkscape:connector-curvature="0" />
    </marker>
    <filter
       inkscape:menu="Textures"
       inkscape:label="Watercolor"
       inkscape:menu-tooltip="Cloudy watercolor effect"
       height="2"
       y="-0.5"
       width="1.6"
       x="-0.30000001"
       style="color-interpolation-filters:sRGB"
       id="filter7274">
      <feGaussianBlur
         stdDeviation="15"
         result="result8"
         id="feGaussianBlur7276" />
      <feTurbulence
         seed="27"
         result="result7"
         type="fractalNoise"
         numOctaves="5"
         baseFrequency="0.025"
         id="feTurbulence7278" />
      <feComposite
         in2="result8"
         result="result6"
         operator="over"
         in="result7"
         id="feComposite7280" />
      <feColorMatrix
         result="result9"
         values="1 0 0 0 0 0 1 0 0 0 0 0 1 0 0 0 0 0 6 -4 "
         id="feColorMatrix7282" />
      <feDisplacementMap
         in="result7"
         in2="result9"
         xChannelSelector="A"
         yChannelSelector="A"
         scale="45"
         result="result4"
         id="feDisplacementMap7284" />
      <feComposite
         in2="result4"
         result="result2"
         operator="in"
         in="result8"
         id="feComposite7286" />
      <feComposite
         result="fbSourceGraphic"
         in="result2"
         operator="in"
         in2="result9"
         id="feComposite7288" />
      <feComposite
         operator="arithmetic"
         k2="1"
         k1="0.5"
         in="fbSourceGraphic"
         in2="fbSourceGraphic"
         result="result91"
         id="feComposite7290"
         k3="0"
         k4="0" />
      <feBlend
         in="fbSourceGraphic"
         mode="multiply"
         in2="result91"
         id="feBlend7292" />
    </filter>
    <filter
       x="-0.25"
       width="1.5"
       y="-0.25"
       height="1.5"
       inkscape:menu-tooltip="Thick acrylic paint texture with high texture depth"
       inkscape:menu="Bumps"
       inkscape:label="Thick Acrylic"
       style="color-interpolation-filters:sRGB"
       id="filter7314">
      <feGaussianBlur
         result="result9"
         in="SourceGraphic"
         stdDeviation="1"
         id="feGaussianBlur7316" />
      <feTurbulence
         baseFrequency="0.02"
         numOctaves="5"
         type="fractalNoise"
         result="result7"
         seed="0"
         id="feTurbulence7318" />
      <feColorMatrix
         values="1 0 0 0 0 0 1 0 0 0 0 0 1 0 0 0 0 0 1 0 "
         result="result5"
         id="feColorMatrix7320" />
      <feComposite
         in="result9"
         operator="out"
         result="result6"
         in2="result5"
         id="feComposite7322" />
      <feGaussianBlur
         stdDeviation="0.5"
         result="result11"
         id="feGaussianBlur7324" />
      <feDisplacementMap
         result="result4"
         scale="100"
         yChannelSelector="G"
         xChannelSelector="A"
         in2="result11"
         in="result5"
         id="feDisplacementMap7326" />
      <feComposite
         in="result9"
         operator="in"
         result="result2"
         in2="result4"
         id="feComposite7328" />
      <feComposite
         in2="SourceGraphic"
         operator="in"
         result="fbSourceGraphic"
         id="feComposite7330" />
      <feBlend
         mode="multiply"
         result="fbSourceGraphic"
         in2="fbSourceGraphic"
         id="feBlend7332" />
      <feDiffuseLighting
         diffuseConstant="0.69999999"
         surfaceScale="10"
         in="fbSourceGraphic"
         result="result10"
         id="feDiffuseLighting7334">
        <feDistantLight
           elevation="25"
           azimuth="235"
           id="feDistantLight7336" />
      </feDiffuseLighting>
      <feComposite
         operator="in"
         result="result2"
         in="result10"
         in2="fbSourceGraphic"
         id="feComposite7338" />
      <feComposite
         k3="1"
         k2="1"
         operator="arithmetic"
         result="result4"
         in="fbSourceGraphic"
         in2="result2"
         id="feComposite7340"
         k1="0"
         k4="0" />
    </filter>
    <filter
       inkscape:menu-tooltip="3D warped, fibered wood texture"
       inkscape:menu="Materials"
       inkscape:label="3D Wood"
       height="1.5"
       y="-0.25"
       width="1.5"
       x="-0.25"
       style="color-interpolation-filters:sRGB"
       id="filter7426">
      <feGaussianBlur
         result="result8"
         stdDeviation="4"
         id="feGaussianBlur7428" />
      <feTurbulence
         baseFrequency="0.025 0.2"
         numOctaves="3"
         type="fractalNoise"
         result="result7"
         seed="22"
         id="feTurbulence7430" />
      <feComposite
         in2="result8"
         operator="in"
         in="SourceGraphic"
         result="result6"
         id="feComposite7432" />
      <feDisplacementMap
         in2="result6"
         result="result4"
         scale="50"
         yChannelSelector="A"
         xChannelSelector="A"
         in="result7"
         id="feDisplacementMap7434" />
      <feFlood
         flood-color="rgb(230,211,138)"
         flood-opacity="1"
         id="feFlood7436" />
      <feComposite
         in2="result4"
         operator="atop"
         result="result2"
         id="feComposite7438" />
      <feComposite
         in2="SourceGraphic"
         operator="atop"
         in="result2"
         result="result9"
         id="feComposite7440" />
      <feGaussianBlur
         result="result0"
         in="result9"
         stdDeviation="8"
         id="feGaussianBlur7442" />
      <feSpecularLighting
         specularExponent="15"
         specularConstant="0.69999999"
         surfaceScale="5"
         lighting-color="#ffffff"
         result="result1"
         in="result0"
         id="feSpecularLighting7444">
        <feDistantLight
           azimuth="235"
           elevation="50"
           id="feDistantLight7446" />
      </feSpecularLighting>
      <feComposite
         operator="in"
         result="result2"
         in="result1"
         in2="result9"
         id="feComposite7448" />
      <feComposite
         k3="0.5"
         k2="0.5"
         operator="arithmetic"
         result="result4"
         in="result9"
         in2="result2"
         id="feComposite7450"
         k1="0"
         k4="0" />
      <feConvolveMatrix
         order="3 3"
         kernelMatrix="2 0 0 0 2 0 0 0 -2 "
         targetX="2"
         targetY="2"
         result="result10"
         id="feConvolveMatrix7452" />
      <feBlend
         mode="multiply"
         in="result10"
         in2="result10"
         id="feBlend7454" />
    </filter>
  </defs>
  <sodipodi:namedview
     inkscape:document-rotation="0"
     inkscape:window-maximized="1"
     inkscape:window-y="-8"
     inkscape:window-x="-8"
     inkscape:window-height="1017"
     inkscape:window-width="1920"
     borderlayer="true"
     units="px"
     showgrid="false"
     inkscape:current-layer="layer1"
     inkscape:document-units="px"
     inkscape:cy="158.45606"
     inkscape:cx="200.12885"
     inkscape:zoom="1.979899"
     inkscape:pageshadow="2"
     inkscape:pageopacity="0.0"
     borderopacity="1.0"
     bordercolor="#666666"
     pagecolor="#ffffff"
     id="base" />
  <metadata
     id="metadata5204">
    <rdf:RDF>
      <cc:Work
         rdf:about="">
        <dc:format>image/svg+xml</dc:format>
        <dc:type
           rdf:resource="http://purl.org/dc/dcmitype/StillImage" />
        <dc:title />
      </cc:Work>
    </rdf:RDF>
  </metadata>
  <g
     transform="translate(0,-727.36216)"
     id="layer1"
     inkscape:groupmode="layer"
     inkscape:label="Layer 1">
    <text
       xml:space="preserve"
       style="font-style:normal;font-weight:normal;font-size:40px;line-height:125%;font-family:sans-serif;letter-spacing:0px;word-spacing:0px;fill:#000000;fill-opacity:1;stroke:none;stroke-width:1px;stroke-linecap:butt;stroke-linejoin:miter;stroke-opacity:1"
       x="-1913.8258"
       y="423.44562"
       id="text3485" />
    <flowRoot
       transform="translate(-2307.7853,-452.1399)"
       xml:space="preserve"
       id="flowRoot3619"
       style="font-style:normal;font-weight:normal;font-size:40px;line-height:125%;font-family:sans-serif;letter-spacing:0px;word-spacing:0px;fill:#000000;fill-opacity:1;stroke:none;stroke-width:1px;stroke-linecap:butt;stroke-linejoin:miter;stroke-opacity:1"><flowRegion
         id="flowRegion3621"><rect
           id="rect3623"
           width="817.21338"
           height="236.37569"
           x="-47.477169"
           y="400.07092" /></flowRegion><flowPara
         id="flowPara3625" /></flowRoot>
    <text
       id="text10591"
       y="35.720421"
       x="-2203.2432"
       style="font-style:normal;font-weight:normal;font-size:40px;line-height:125%;font-family:sans-serif;letter-spacing:0px;word-spacing:0px;fill:#000000;fill-opacity:1;stroke:none;stroke-width:1px;stroke-linecap:butt;stroke-linejoin:miter;stroke-opacity:1"
       xml:space="preserve" />
    <text
       xml:space="preserve"
       style="font-style:normal;font-weight:normal;font-size:18.9276px;line-height:125%;font-family:sans-serif;letter-spacing:0px;word-spacing:0px;fill:#000000;fill-opacity:1;stroke:none;stroke-width:1px;stroke-linecap:butt;stroke-linejoin:miter;stroke-opacity:1"
       x="-2077.6914"
       y="515.85962"
       id="text4751"
       transform="scale(0.99983363,1.0001664)" />
    <text
       transform="scale(0.99983363,1.0001664)"
       id="text4776"
       y="549.18909"
       x="-2077.6914"
       style="font-style:normal;font-weight:normal;font-size:18.9276px;line-height:125%;font-family:sans-serif;letter-spacing:0px;word-spacing:0px;fill:#000000;fill-opacity:1;stroke:none;stroke-width:1px;stroke-linecap:butt;stroke-linejoin:miter;stroke-opacity:1"
       xml:space="preserve" />
    <text
       xml:space="preserve"
       style="font-style:normal;font-weight:normal;font-size:10.668px;line-height:125%;font-family:sans-serif;letter-spacing:0px;word-spacing:0px;fill:#000000;fill-opacity:1;stroke:none;stroke-width:1px;stroke-linecap:butt;stroke-linejoin:miter;stroke-opacity:1"
       x="-2211.1172"
       y="345.59982"
       id="text4701"
       transform="scale(0.99983363,1.0001664)" />
    <path
       d="m 412.98949,1103.3571 5.58135,9.6672 -5.58135,9.6672 -11.1627,0 -5.58135,-9.6672 5.58135,-9.6672 z"
       transform="matrix(7.3339897,4.2588263,-4.2359274,7.379372,2089.8884,-9057.1687)"
       sodipodi:type="star"
       style="font-style:normal;font-weight:normal;font-size:medium;line-height:125%;font-family:sans-serif;letter-spacing:0px;word-spacing:0px;fill:#b3b3b3;fill-opacity:1;stroke:#000000;stroke-width:0.662394;stroke-linecap:butt;stroke-linejoin:round;stroke-miterlimit:4;stroke-dasharray:none;stroke-dashoffset:0;stroke-opacity:1"
       id="path123"
       sodipodi:sides="6"
       sodipodi:cx="407.40814"
       sodipodi:cy="1113.0243"
       sodipodi:r1="11.162703"
       sodipodi:r2="9.6671848"
       sodipodi:arg1="-1.0471976"
       sodipodi:arg2="-0.52359878"
       inkscape:flatsided="true"
       inkscape:rounded="0"
       inkscape:randomized="0" />
    <g
       id="g334"
       transform="translate(0,-1.4699835)">
      <path
         transform="matrix(7.3339897,4.2588263,-4.2359274,7.379372,1816.1999,-9058.6386)"
         sodipodi:type="star"
         style="font-style:normal;font-weight:normal;font-size:medium;line-height:125%;font-family:sans-serif;letter-spacing:0px;word-spacing:0px;fill:#b3b3b3;fill-opacity:1;stroke:#000000;stroke-width:0.662394;stroke-linecap:butt;stroke-linejoin:round;stroke-miterlimit:4;stroke-dasharray:none;stroke-dashoffset:0;stroke-opacity:1"
         id="path5092"
         sodipodi:sides="6"
         sodipodi:cx="407.40814"
         sodipodi:cy="1113.0243"
         sodipodi:r1="11.162703"
         sodipodi:r2="9.6671848"
         sodipodi:arg1="-1.0471976"
         sodipodi:arg2="-0.52359878"
         inkscape:flatsided="true"
         inkscape:rounded="0"
         inkscape:randomized="0"
         d="m 412.98949,1103.3571 5.58135,9.6672 -5.58135,9.6672 -11.1627,0 -5.58135,-9.6672 5.58135,-9.6672 z" />
      <g
         transform="translate(9.00626,4.8791114e-5)"
         id="g327">
        <path
           style="fill:#4d4d4d;fill-opacity:1;stroke:none;stroke-width:2.99999;stroke-miterlimit:4;stroke-dasharray:none;stroke-opacity:1"
           inkscape:connector-curvature="0"
           d="m 50.59842,857.37217 c -4.351429,0 -7.48123,2.3128 -9.288801,5.21756 -1.616421,2.59727 -2.288878,5.6104 -2.419951,8.24882 -4.933183,2.45021 -10.39802,4.91978 -14.797775,7.44503 -2.308192,1.32496 -4.320387,2.65783 -5.834963,4.08992 -1.514606,1.43151 -2.632375,3.04399 -2.632375,4.9458 0,0.80865 0.393605,1.46841 0.83671,1.95265 0.443938,0.49028 0.97536,0.85949 1.581212,1.20995 1.211272,0.6991 2.738372,1.28744 4.417848,1.79346 2.495732,0.75238 5.290223,1.31165 7.720097,1.55076 -2.416556,4.18251 -5.63328,8.02427 -8.452631,11.70562 -3.25849,4.25454 -6.103282,8.33477 -6.103282,12.86716 0,0.64826 -0.01937,1.15245 0.04954,1.6603 0.05965,0.50239 0.20206,1.14217 0.710643,1.64396 0.508615,0.50239 1.130924,0.63311 1.637903,0.69848 0.507163,0.0847 1.017953,0 1.67311,0 h 17.976906 c 1.305146,0 2.260846,0.0847 3.243783,-0.5508 0.983145,-0.63312 1.341744,-1.50112 2.04204,-2.79642 h 0.01937 l 0.01929,-0.0847 c 0,0 1.566899,-3.19955 3.436508,-6.37609 0.934797,-1.58767 1.949756,-3.16927 2.832655,-4.28904 0.441754,-0.55082 0.854641,-1.00417 1.152206,-1.25538 0.09154,-0.0847 0.133257,-0.0847 0.190957,-0.12701 0.05965,0 0.09946,0 0.190957,0.12701 0.297549,0.25423 0.710653,0.69124 1.15219,1.25538 0.882884,1.11977 1.89765,2.70137 2.832462,4.28904 1.869609,3.17654 3.436887,6.37609 3.436887,6.37609 l 0.01937,0.0847 h 0.01936 c 0.700566,1.2953 1.055546,2.15664 2.032318,2.79339 0.976163,0.63374 1.929894,0.5508 3.216337,0.5508 h 18.056464 c 0.644603,0 1.147422,0 1.651013,-0.0847 0.503429,-0.0847 1.12793,-0.18763 1.631151,-0.70637 0.502811,-0.50237 0.641986,-1.13309 0.697658,-1.63851 0.0578,-0.50237 0.04954,-1.01084 0.04954,-1.65849 0,-4.53176 -2.844792,-8.61322 -6.103283,-12.86715 -2.81953,-3.68074 -6.035657,-7.5237 -8.452847,-11.70562 2.430113,-0.24211 5.224596,-0.79776 7.720111,-1.55014 1.679679,-0.50239 3.206785,-1.09074 4.417857,-1.79286 0.605868,-0.35106 1.137668,-0.72755 1.581212,-1.21058 0.443506,-0.49027 0.836972,-1.14398 0.836972,-1.95325 0,-1.90181 -1.117791,-3.5143 -2.632376,-4.94517 -1.514583,-1.43272 -3.526993,-2.76496 -5.83497,-4.08933 -4.399746,-2.52524 -9.864598,-4.99543 -14.797966,-7.44561 -0.131193,-2.63845 -0.803747,-5.65216 -2.41996,-8.24943 -1.807556,-2.90416 -4.93718,-5.21637 -9.2888,-5.21637 z"
           id="path4157" />
        <ellipse
           cy="889.86218"
           cx="116.67744"
           id="circle4153"
           style="fill:#000000;stroke:none;stroke-width:2.99999;stroke-miterlimit:4;stroke-dasharray:none;stroke-opacity:1"
           rx="28.561888"
           ry="28.533363" />
        <path
           id="path15143"
           d="m 125.93252,892.31845 c -2.06656,0.2771 -4.6951,0.4717 -8.01047,0.5848 -2.10367,0.072 -4.463,0.1075 -7.01377,0.1075 -3.21169,0 -6.07384,-0.055 -7.84549,-0.098 a 18.842815,18.822768 0 0 0 0.80365,5.2771 c 2.0244,6.7537 7.33966,11.3239 12.62997,11.3239 a 8.9388019,8.9292927 0 0 0 2.57142,-0.3722 c 5.86895,-1.7555 8.85671,-9.1968 6.86469,-16.8198 z m -14.66135,7.872 -1.22602,-0.7438 -0.54186,0.9498 -1.42123,-0.8119 0.56617,-0.9853 -1.26409,-0.7673 0.85054,-1.3979 1.22612,0.7441 0.54187,-0.9498 1.42123,0.8119 -0.56617,0.9857 1.26398,0.7669 z m 8.87575,-2.3285 -1.22624,-0.7441 -0.54174,0.9491 -1.42123,-0.8109 0.56337,-0.9899 -1.26409,-0.7656 0.85334,-1.3989 1.22612,0.7441 0.54176,-0.9497 1.42112,0.8119 -0.56617,0.9856 1.2642,0.7669 z m 10.99631,-20.4986 1.98654,1.6532 2.19584,-1.3598 -0.96079,2.3963 1.97384,1.6658 -2.57776,-0.1727 -0.97886,2.3897 -0.63188,-2.5028 -2.57701,-0.1891 2.18239,-1.3735 z m -0.0206,-7.1108 0.18789,1.6124 1.59084,0.3334 -1.47715,0.6763 0.18058,1.6137 -1.10243,-1.1942 -1.48157,0.6668 0.79634,-1.4132 -1.09255,-1.2027 1.59364,0.3227 z m -31.878947,-0.042 1.664087,1.9722 2.40084,-0.9544 -1.36606,2.1939 1.65044,1.9843 -2.50829,-0.6199 -1.383267,2.1818 -0.18048,-2.5739 -2.504743,-0.6379 2.394503,-0.9703 z m 31.878947,18.5175 c -0.4116,1.1421 -2.3077,2.3585 -13.24742,2.7304 -2.33674,0.078 -4.73758,0.1043 -6.96504,0.1043 -3.78411,0 -10.943177,-0.1109 -10.943177,-0.1109 v -1.4432 c 0,0 7.175417,0.1108 10.944027,0.1108 2.17972,0 4.52538,-0.039 6.81071,-0.101 3.50058,-0.1174 6.314,-0.3334 8.36271,-0.6411 3.07618,-0.4645 3.59448,-1.013 3.66859,-1.1222 -0.0215,-0.052 -0.11025,-0.2119 -0.43893,-0.4716 -0.91551,-0.7217 -2.57595,-1.4433 -4.81245,-2.1144 a 18.275785,18.256344 0 0 0 -1.49523,-1.9135 c 0.18056,0.046 0.36119,0.091 0.5309,0.1369 3.17556,0.8441 5.41753,1.7711 6.67077,2.7561 0.58778,0.4674 1.22611,1.2053 0.91453,2.0778 z m -27.52158,-0.1369 c 0.13553,-0.661 0.79838,-2.3901 1.12062,-2.8789 5.08789,0.3487 13.62043,-1.4179 15.92554,-2.2695 1.37316,1.1952 2.95325,3.2326 3.66666,4.7071 -5.17447,0.5883 -14.39504,0.6 -20.7154,0.4423 z m 1.75164,-6.502 c -0.91013,-0.055 -3.04542,-0.1891 -3.85079,0.1793 1.07168,1.011 6.77166,1.1238 11.57797,0.4439 5.15199,-0.7288 9.93205,-1.9358 12.7373,-3.8451 1.16847,-0.7956 1.78595,-1.9585 1.67409,-2.4738 -0.56897,-2.6306 -15.72141,-3.5592 -15.72141,-3.5592 0,0 16.09784,0.3331 16.21702,3.5579 0.12822,3.4601 -7.41656,6.1155 -14.66683,7.2455 -6.88642,1.0733 -13.488567,1.1483 -13.14634,-1.6896 0.19863,-1.6486 4.63454,-1.3409 6.55419,-1.1229 -0.38108,0.264 -1.079,0.9527 -1.37778,1.2637 z m 6.85136,-1.7255 a 9.5961214,9.5859132 0 0 1 3.84466,0.4146 c -1.14944,0.2836 -5.26309,0.8399 -7.68932,0.9018 1.91513,-1.1658 3.50243,-1.275 3.84197,-1.3157 z"
           style="fill:#ffffff;fill-opacity:1;stroke-width:0.999991"
           inkscape:connector-curvature="0" />
      </g>
    </g>
    <g
       id="g322"
       transform="translate(7.4576699,1.4698875)">
      <path
         style="fill:#4d4d4d;fill-opacity:1;stroke:none;stroke-width:2.99999;stroke-miterlimit:4;stroke-dasharray:none;stroke-opacity:1"
         inkscape:connector-curvature="0"
         d="m 324.28688,857.37217 c -4.35143,0 -7.48123,2.3128 -9.2888,5.21756 -1.61642,2.59728 -2.28888,5.61041 -2.41995,8.24883 -4.93318,2.4502 -10.39802,4.91978 -14.79778,7.44503 -2.30819,1.32496 -4.32038,2.65782 -5.83496,4.08992 -1.5146,1.4315 -2.63237,3.04399 -2.63237,4.94579 0,0.80866 0.3936,1.46841 0.83671,1.95266 0.44393,0.49028 0.97536,0.85949 1.58121,1.20994 1.21127,0.69911 2.73837,1.28745 4.41785,1.79347 2.49573,0.75238 5.29022,1.31165 7.72009,1.55075 -2.41655,4.18251 -5.63328,8.02427 -8.45263,11.70562 -3.25849,4.25454 -6.10328,8.33478 -6.10328,12.86717 0,0.64826 -0.0194,1.15245 0.0495,1.6603 0.0597,0.50238 0.20206,1.14216 0.71065,1.64395 0.50861,0.5024 1.13092,0.63312 1.6379,0.69848 0.50716,0.0847 1.01795,0 1.67311,0 h 17.9769 c 1.30515,0 2.26085,0.0847 3.24379,-0.5508 0.98314,-0.63311 1.34174,-1.50111 2.04204,-2.79641 h 0.0194 l 0.0193,-0.0847 c 0,0 1.56689,-3.19955 3.4365,-6.3761 0.9348,-1.58766 1.94976,-3.16926 2.83266,-4.28904 0.44175,-0.55081 0.85464,-1.00417 1.1522,-1.25537 0.0915,-0.0847 0.13326,-0.0847 0.19096,-0.12702 0.0596,0 0.0995,0 0.19096,0.12702 0.29755,0.25423 0.71065,0.69123 1.15219,1.25537 0.88288,1.11978 1.89765,2.70138 2.83246,4.28904 1.86961,3.17655 3.43689,6.3761 3.43689,6.3761 l 0.0194,0.0847 h 0.0194 c 0.70057,1.2953 1.05555,2.15663 2.03232,2.79339 0.97616,0.63374 1.92989,0.5508 3.21634,0.5508 h 18.05646 c 0.6446,0 1.14742,0 1.65101,-0.0847 0.50343,-0.0847 1.12793,-0.18763 1.63115,-0.70636 0.50282,-0.50238 0.64199,-1.13309 0.69766,-1.63852 0.0578,-0.50237 0.0495,-1.01083 0.0495,-1.65848 0,-4.53176 -2.84479,-8.61322 -6.10328,-12.86715 -2.81953,-3.68074 -6.03566,-7.52371 -8.45284,-11.70562 2.43011,-0.24212 5.22459,-0.79776 7.72011,-1.55015 1.67967,-0.50238 3.20678,-1.09073 4.41785,-1.79285 0.60587,-0.35107 1.13767,-0.72755 1.58121,-1.21058 0.44351,-0.49027 0.83698,-1.14399 0.83698,-1.95325 0,-1.90181 -1.11779,-3.51431 -2.63238,-4.94517 -1.51458,-1.43272 -3.52699,-2.76496 -5.83497,-4.08933 -4.39975,-2.52525 -9.8646,-4.99543 -14.79797,-7.44561 -0.13119,-2.63845 -0.80374,-5.65216 -2.41996,-8.24944 -1.80755,-2.90416 -4.93718,-5.21636 -9.2888,-5.21636 z"
         id="path125" />
      <ellipse
         cy="892.71948"
         cx="393.46317"
         id="ellipse317"
         style="fill:#000000;stroke:none;stroke-width:2.99999;stroke-miterlimit:4;stroke-dasharray:none;stroke-opacity:1"
         rx="28.561888"
         ry="28.533363" />
      <path
         inkscape:connector-curvature="0"
         style="fill:#ffffff;fill-opacity:1;stroke-width:1.0312"
         d="m 393.46318,873.68737 c 1.72523,0 2.87007,0.86347 4.40579,1.7188 1.45559,0.81103 3.2853,1.50616 5.8657,0.97812 1.22455,1.22724 2.46868,2.45478 3.79541,3.28614 1.08568,0.68054 2.30577,1.0859 3.5227,0.89422 -0.34916,2.75456 -2.0174,5.44897 -3.76126,6.85934 -4.59887,-1.52805 -9.20926,-2.29249 -13.81965,-2.29249 -4.61461,0 -9.22913,0.7659 -13.83222,2.29677 -1.74569,-1.40912 -3.41665,-4.10625 -3.76609,-6.86362 1.21669,0.19147 2.43695,-0.2142 3.52272,-0.8939 1.32673,-0.83168 2.57069,-2.05922 3.79542,-3.28646 2.58013,0.52804 4.41018,-0.16625 5.8656,-0.97781 1.53597,-0.85585 2.68073,-1.71911 4.40588,-1.71911 z m 0.009,1.60977 c -1.62786,0 -4.36801,2.20557 -4.36801,2.20557 0,0 1.74331,6.61773 4.36801,6.61773 2.62489,0 4.36826,-6.61773 4.36826,-6.61773 0,0 -2.74039,-2.20557 -4.36826,-2.20557 z m 0,11.31134 c 4.33685,0 8.67396,0.71097 13.02141,2.12009 0.17913,1.10966 -0.12402,1.93425 -0.77611,2.69661 -0.72788,0.85116 -1.9497,1.5737 -3.39783,2.1179 -2.89668,1.08871 -6.6529,1.47416 -8.84755,1.47416 -2.19457,0 -5.95062,-0.38545 -8.84713,-1.47416 -1.44838,-0.5442 -2.66996,-1.26653 -3.39784,-2.1179 -0.65231,-0.76236 -0.95559,-1.58674 -0.77636,-2.69661 4.34747,-1.40912 8.68457,-2.12009 13.02133,-2.12009 z m 14.23088,4.70767 c 0.80686,0.19648 2.21256,0.6404 2.46504,1.39984 0.69035,2.07559 -1.38996,5.25542 -2.96321,7.26148 0.43347,-1.81282 0.66713,-3.74102 0.66713,-5.73999 0,-0.99313 -0.058,-1.96875 -0.16898,-2.92133 z m -28.46144,0 a 25.128627,25.196766 0 0 0 -0.16893,2.92112 c 0,1.99918 0.23361,3.92738 0.66713,5.7402 -1.57326,-2.00606 -3.65355,-5.18589 -2.96321,-7.26148 0.25241,-0.75944 1.65827,-1.20388 2.46488,-1.39984 z m 27.1126,1.57923 c 0.0249,0.44288 0.039,0.89015 0.039,1.34189 0,4.89081 -1.4894,9.30496 -3.85317,12.46373 -2.3637,3.15898 -5.56192,5.0506 -9.06788,5.0506 -3.50582,0 -6.70411,-1.89162 -9.06773,-5.0506 -2.3636,-3.15877 -3.85292,-7.57261 -3.85292,-12.46373 0,-0.45174 0.0143,-0.89901 0.039,-1.3422 0.67369,0.63071 1.49644,1.14259 2.40174,1.56797 -0.35077,1.49928 0.0218,3.36401 0.99387,4.33806 1.78879,1.7928 5.80031,1.7928 7.58917,0 0.55403,-0.55556 0.79168,-1.44039 0.76036,-2.32856 0.4053,0 0.78861,0.0354 1.13673,0.0354 0.3482,0 0.73161,0 1.13697,-0.0354 -0.0315,0.88817 0.20624,1.773 0.76037,2.32856 1.78886,1.7928 5.80031,1.7928 7.5891,0 0.97199,-0.97405 1.34462,-2.83878 0.99386,-4.33785 0.90529,-0.42527 1.72829,-0.93706 2.40174,-1.56787 z m -12.88203,9.70886 c -1.89726,3.04255 -5.6916,3.423 -7.58885,3.423 1.89717,1.52128 7.58876,1.52128 7.58876,0 0,1.52128 5.69193,1.52128 7.58918,0 -1.89725,0 -5.69185,-0.38045 -7.58918,-3.423 z"
         id="path74" />
    </g>
    <path
       inkscape:transform-center-y="-5.2031502"
       inkscape:transform-center-x="5.0225219"
       sodipodi:nodetypes="cccccccc"
       inkscape:connector-curvature="0"
       id="path353"
       d="m 267.10076,883.76938 -41.29271,-33.1278 -3.4e-4,18.1343 h -45.2721 l 1.2e-4,31.5109 h 45.27211 l -7e-5,16.6104 z"
       style="fill:#000000;fill-opacity:1;stroke:none;stroke-width:1.101;stroke-linecap:round;stroke-linejoin:round;stroke-miterlimit:4;stroke-dasharray:none;stroke-dashoffset:0;stroke-opacity:1" />
  </g>
</svg>
