<?xml version="1.0" encoding="UTF-8" standalone="no"?>
<svg
   xmlns:dc="http://purl.org/dc/elements/1.1/"
   xmlns:cc="http://creativecommons.org/ns#"
   xmlns:rdf="http://www.w3.org/1999/02/22-rdf-syntax-ns#"
   xmlns:svg="http://www.w3.org/2000/svg"
   xmlns="http://www.w3.org/2000/svg"
   xmlns:sodipodi="http://sodipodi.sourceforge.net/DTD/sodipodi-0.dtd"
   xmlns:inkscape="http://www.inkscape.org/namespaces/inkscape"
   sodipodi:docname="unexpected-lock.svg"
   inkscape:version="1.0.1 (3bc2e813f5, 2020-09-07)"
   version="1.1"
   id="svg5199"
   viewBox="0 0 450.00001 325"
   height="325"
   width="450">
  <defs
     id="defs5201" />
  <sodipodi:namedview
     inkscape:snap-global="false"
     inkscape:document-rotation="0"
     inkscape:window-maximized="1"
     inkscape:window-y="-8"
     inkscape:window-x="1912"
     inkscape:window-height="961"
     inkscape:window-width="1280"
     borderlayer="true"
     units="px"
     showgrid="false"
     inkscape:current-layer="layer1"
     inkscape:document-units="px"
     inkscape:cy="148.99194"
     inkscape:cx="389.76119"
     inkscape:zoom="1.979899"
     inkscape:pageshadow="2"
     inkscape:pageopacity="0.0"
     borderopacity="1.0"
     bordercolor="#666666"
     pagecolor="#ffffff"
     id="base" />
  <metadata
     id="metadata5204">
    <rdf:RDF>
      <cc:Work
         rdf:about="">
        <dc:format>image/svg+xml</dc:format>
        <dc:type
           rdf:resource="http://purl.org/dc/dcmitype/StillImage" />
        <dc:title />
      </cc:Work>
    </rdf:RDF>
  </metadata>
  <g
     transform="translate(0,-727.36216)"
     id="layer1"
     inkscape:groupmode="layer"
     inkscape:label="Layer 1">
    <path
       d="m 395.48223,1093.1241 5.58135,9.6672 -5.58135,9.6671 -11.1627,0 -5.58135,-9.6671 5.58135,-9.6672 z"
       sodipodi:type="star"
       style="font-style:normal;font-weight:normal;font-size:medium;line-height:125%;font-family:sans-serif;letter-spacing:0px;word-spacing:0px;fill:#b3b3b3;fill-opacity:1;stroke:#000000;stroke-width:0.769812;stroke-linecap:butt;stroke-linejoin:round;stroke-miterlimit:4;stroke-dasharray:none;stroke-dashoffset:0;stroke-opacity:1"
       id="path5084"
       sodipodi:sides="6"
       sodipodi:cx="389.90088"
       sodipodi:cy="1102.7913"
       sodipodi:r1="11.162703"
       sodipodi:r2="9.6671848"
       sodipodi:arg1="-1.0471976"
       sodipodi:arg2="-0.52359878"
       inkscape:flatsided="true"
       inkscape:rounded="0"
       inkscape:randomized="0"
       transform="matrix(8.4588562,4.8850735,-4.8873171,8.4674229,2415.1899,-10351.683)" />
    <path
       sodipodi:nodetypes="scccccscs"
       inkscape:connector-curvature="0"
       d="m 182.11395,778.24077 c 18.67691,-6.89493 45.27482,3.10995 52.58405,19.22079 l 12.77746,-10.92891 0.83098,55.35683 -41.63096,-20.47209 13.88073,-11.86697 c -3.99115,-17.02877 -38.32087,-9.24754 -41.61891,-7.96187 -3.51061,1.36853 -23.25623,7.40807 -38.77133,33.99552 5.94796,-39.64508 18.61929,-48.73118 41.94798,-57.3433 z"
       id="path5102"
       style="fill:#000000;fill-opacity:1;stroke:none;stroke-width:1;stroke-opacity:1" />
    <ellipse
       cy="902.98694"
       cx="-96.619888"
       id="path4151"
       style="fill:#000000;stroke:none;stroke-width:4.16408;stroke-miterlimit:4;stroke-dasharray:none;stroke-opacity:1"
       transform="scale(-1,1)"
       rx="68.453377"
       ry="68.472313" />
    <path
       inkscape:connector-curvature="0"
       id="path15171"
       d="m 319.12357,820.18978 c -1.74988,0.0474 -4.44127,0.79442 -4.15865,1.88285 0.91224,0.97266 1.46697,2.35909 2.11609,3.60602 1.44781,2.78077 2.56061,5.91317 3.45262,9.62294 0.82267,0.57934 1.11954,0.49298 2.32695,0.2211 0.8061,-0.18117 1.50123,-0.28721 1.75586,-0.9148 0.36204,-1.02412 0.60367,-2.029 0.88826,-3.06163 0.31573,-1.14543 0.68338,-2.32137 1.32417,-3.50168 1.32171,-2.43425 2.67206,-4.45376 3.39728,-6.35663 0.26741,-0.78441 -1.813,-1.11142 -2.65239,-1.11535 -1.79716,-0.0105 -4.08417,0.0534 -7.43724,-0.30096 -0.25501,-0.0682 -0.60922,-0.093 -1.01295,-0.0818 z m -6.2298,1.08057 c -0.20367,-0.0202 -0.40542,0.0167 -0.58732,0.1148 -2.42942,1.31868 -4.8122,0.31976 -6.61855,2.02199 -0.60274,0.56801 -0.76507,1.51126 -0.19024,2.108 3.49493,3.63019 3.71057,4.80846 6.85806,10.66663 2.30588,1.62809 4.87162,0.38045 5.58299,0.0778 0.75718,-0.33418 1.31336,-1.02781 1.07448,-1.82142 -0.46326,-5.12728 -2.56742,-7.64271 -4.88721,-11.97649 -0.0105,-0.62151 -0.61927,-1.13665 -1.22996,-1.18903 v -0.001 z m 18.90202,0.57508 c -0.61068,0.0524 -1.21904,0.56952 -1.22993,1.19112 -2.31981,4.33373 -4.42386,6.84921 -4.88723,11.97645 -0.23889,0.79362 0.31506,1.48704 1.07247,1.82146 3.83384,1.693 2.52915,0.51393 4.22613,0.7879 0.81713,0.1318 1.39647,-0.13586 1.78867,-0.86569 3.14749,-5.8582 3.36303,-7.03646 6.85799,-10.66666 0.57442,-0.59666 0.41224,-1.53996 -0.19024,-2.10797 -1.80637,-1.70237 -4.6191,-0.70328 -7.04836,-2.02199 -0.18153,-0.099 -0.38593,-0.13225 -0.58942,-0.1148 z m -28.97311,2.72603 c -0.20334,0.0202 -0.39861,0.0865 -0.5607,0.21474 -2.16692,1.71733 -5.11074,1.2148 -6.59814,3.20286 -0.49627,0.66328 -0.50915,1.64187 0.17379,2.10999 4.21558,2.88881 5.24916,3.65964 8.58737,9.32822 2.55084,1.2068 5.29041,-0.53691 5.93914,-0.9578 0.68851,-0.45978 1.11638,-1.24034 0.7449,-1.98108 -1.33619,-4.97116 -3.84127,-7.08743 -6.87026,-10.95728 -0.11706,-0.6104 -0.80556,-1.01327 -1.41623,-0.95981 z m 38.91534,1.02741 c -0.61143,-0.0447 -1.29348,0.36817 -1.40191,0.98029 -2.97209,3.91382 -5.44518,6.06734 -6.70866,11.05756 -0.36069,0.74603 0.0775,1.51907 0.7736,1.96877 0.65491,0.41135 3.41847,2.11386 5.9514,0.86978 4.02906,-5.28879 4.42837,-6.41723 8.4503,-9.45102 0.66107,-0.49865 0.64912,-1.45606 0.14323,-2.11204 -1.51631,-1.96608 -4.45139,-1.42127 -6.64316,-3.10667 -0.16374,-0.12654 -0.36108,-0.19191 -0.56479,-0.20667 z m -48.24151,3.88022 c -0.31237,0.0105 -0.61395,0.12488 -0.81857,0.3582 -1.82209,2.08067 -4.8075,2.1206 -5.91255,4.34482 -0.36862,0.74215 -0.19996,1.69352 0.55054,2.04247 4.62076,2.148 6.46108,2.67826 10.507,7.54768 2.72634,0.72625 4.72593,-1.40895 5.28833,-1.94011 0.59444,-0.57669 0.87326,-1.41993 0.37447,-2.08138 -2.20934,-4.64817 -5.05245,-6.27785 -8.72857,-9.53695 -0.18756,-0.48268 -0.73989,-0.7526 -1.26065,-0.73473 z m 57.44897,1.38146 c -0.52069,-0.0202 -1.0729,0.25197 -1.26066,0.73469 -3.67614,3.25913 -6.51912,4.88668 -8.72861,9.53493 -0.49874,0.66149 -0.22009,1.50677 0.37452,2.0834 0.56227,0.5312 2.94263,2.74208 5.66902,2.01588 4.98015,-4.40155 5.59146,-6.29593 10.12629,-8.48709 0.74531,-0.36019 0.91924,-1.30039 0.55054,-2.04246 -1.10496,-2.22424 -4.09044,-1.40057 -5.91253,-3.48121 -0.205,-0.23353 -0.50601,-0.3474 -0.81857,-0.35814 z m -65.40806,5.34766 c -0.52097,-0.036 -1.07977,0.21371 -1.27907,0.69174 -1.06463,2.55404 -3.29378,3.34625 -4.22613,5.64852 -0.31104,0.7681 -0.0722,1.70928 0.70403,1.99537 1.41844,0.52227 8.04204,3.15606 9.35279,3.87619 1.3732,0.75444 0.88585,0.85829 3.20901,1.8214 0.75288,0.31238 1.42087,0.2805 1.83779,-0.0983 1.41761,-1.28716 2.44775,-2.5126 3.24788,-3.71041 0.37984,-0.73646 -0.28487,-1.36819 -0.96799,-1.83577 -3.57377,-3.6995 -6.54616,-6.09151 -11.06779,-8.00612 -0.1993,-0.23856 -0.49783,-0.36135 -0.81052,-0.3827 z m 75.26012,0.0819 c -0.3127,0.0235 -0.61139,0.14429 -0.81039,0.3827 -4.52182,1.91476 -8.41476,5.22734 -11.98874,8.92709 -1.43112,1.05093 1.69604,6.0446 4.42472,5.81431 3.93842,-2.78179 8.25896,-4.52466 13.47855,-6.44669 0.77677,-0.2862 1.01514,-1.22724 0.70405,-1.99539 -0.93239,-2.3022 -3.46446,-3.43828 -4.52907,-5.99232 -0.1993,-0.47808 -0.7581,-0.72529 -1.27911,-0.6897 z m -40.51978,1.889 c -2.12074,0.12608 -4.16977,0.4192 -6.12534,0.87386 v 7.02174 h -6.54081 v -4.77667 c -2.24259,1.04166 -4.29824,2.3079 -6.12536,3.76568 v 1.01099 h -1.18898 c -2.03595,1.81883 -3.7458,3.88477 -5.06524,6.13559 h 6.25422 v 7.9161 h -11.81889 c -0.25332,2.13067 0.54469,4.42584 0.94966,6.6595 h 10.86923 v 6.76181 h -10.59502 c -0.4406,2.35168 -0.0943,4.50714 0.26206,6.65952 h 10.33307 v 6.28904 h -9.58405 c -0.43383,2.30639 -0.27982,4.49566 0,6.65944 h 9.58405 v 5.34755 h -9.69253 c -0.48691,2.21982 0.60421,4.43996 0.91897,6.65977 h 8.77356 v 6.04746 h -8.85342 c 0,0 -1.40879,0.50128 -1.45513,0.75526 l 0.32546,5.38043 h 9.98304 v 8.02635 l 2.73637,8.59775 c -12.84053,-0.93541 -25.79099,1.1995 -39.22436,-0.64888 -0.0818,0 -0.16373,-0.0337 -0.2436,-0.0337 -1.20321,0 -2.15298,1.17368 -2.15298,2.42117 v 2.10005 c 0,1.33063 1.07307,2.28652 2.39661,2.40233 7.67163,0.67201 15.20202,1.23061 22.63696,1.35276 22.01979,0.42885 48.84855,0.33219 74.01373,-0.0974 7.86968,-0.16439 12.58412,-1.08771 20.58027,-1.25446 1.32813,-0.0337 2.39852,-1.07206 2.39852,-2.4027 v -2.10006 c 0,-1.33068 -1.07301,-2.49026 -2.39852,-2.4027 -5.01139,0.3322 -10.03546,0.96032 -15.0811,0.82909 -7.97049,-0.20799 -16.14458,0 -24.40731,0.23152 l 2.86931,-9.0108 v -8.02666 h 9.06212 l -0.26406,-4.34502 c 0,-0.58045 -0.0829,-1.17768 -0.23521,-1.79068 h -8.56281 v -6.04745 h 9.64334 c 0.49615,-2.85731 0.9371,-5.63576 0.16172,-6.65943 h -9.80503 v -5.34789 h 9.26476 c 0.4183,-2.18493 1.22429,-4.33764 0,-6.65944 h -9.26476 v -6.28903 h 9.37324 c 0.41084,-2.2241 0.80253,-4.37815 0.59347,-6.6595 h -9.96671 v -6.76181 h 10.02194 c 0.26338,-2.19596 0.72394,-4.36708 0.21507,-6.65951 h -10.23684 v -7.91609 h 4.67429 c -2.73475,-3.10445 -6.58324,-6.14984 -10.79965,-8.60988 v 2.47429 h -6.54081 v -5.67509 c -2.07314,-0.82252 -4.1397,-1.44901 -6.12534,-1.83987 v 7.51496 h -6.54083 v -7.89561 z m 48.05521,6.86823 c -0.20501,0.006 -0.40373,0.0655 -0.57294,0.1842 -4.22312,1.50979 -8.68492,3.90296 -13.88594,5.51751 -0.78088,0.27447 -1.01359,1.13237 -0.83703,1.94219 0.89434,4.10015 2.08144,3.6354 2.31875,5.28218 0.11841,0.82036 1.26298,1.31556 1.9401,0.83909 3.93502,-2.76908 7.79779,-5.02329 13.88384,-5.51549 0.82473,-0.0668 1.09727,-1.15466 0.8391,-1.94216 -0.77412,-2.36036 -1.95245,-2.53918 -2.32074,-5.28219 -0.0829,-0.61613 -0.75036,-1.04885 -1.36514,-1.02533 z m -90.3862,0.0819 c -0.61473,-0.0235 -1.2843,0.40918 -1.36708,1.02531 -0.36834,2.74302 -1.46888,2.61687 -2.24303,4.97723 -0.25835,0.78754 0.0429,1.70968 0.83703,1.9422 5.33798,1.56263 9.95831,2.62733 14.07624,5.13479 0.70719,0.4306 1.81988,-0.0235 1.93808,-0.84111 0.23756,-1.64677 1.16037,-0.49443 2.05472,-4.59455 0.17647,-0.80976 -0.0576,-1.6676 -0.83903,-1.94216 -4.40815,-2.6472 -9.02147,-4.84028 -13.88385,-5.51752 -0.16877,-0.11916 -0.3681,-0.17649 -0.57308,-0.18419 z m 29.66484,7.08108 h 6.54081 v 7.9161 h -6.54081 z m 12.66615,0 h 6.5408 v 7.9161 h -6.5408 z m 12.66616,0 h 6.54084 v 7.9161 h -6.54084 z m 39.36562,1.48784 c -0.20533,0.003 -0.40502,0.057 -0.57716,0.17178 -4.87799,0.55409 -9.54748,2.62856 -14.02104,5.16348 -0.78744,0.25433 -0.9663,1.09467 -0.88614,1.91966 0.22616,2.32331 0.0335,3.47011 -0.24559,5.11026 -0.13887,0.81707 0.62964,0.78758 1.43469,0.59556 4.68804,-1.11834 9.49949,-0.33016 15.05859,-0.17381 0.82717,0.0235 1.39509,-0.76122 1.39164,-1.59017 -0.0135,-2.48437 -0.51542,-7.38518 -0.81449,-10.13659 -0.0671,-0.61802 -0.72533,-1.06809 -1.3405,-1.06014 z m -98.98591,0.47687 c -0.61371,0.0336 -1.23991,0.52355 -1.26684,1.14403 -0.12007,2.7651 -0.305,7.0795 -0.15568,9.55946 0.0493,0.82743 0.67,1.57319 1.49402,1.49602 5.53697,-0.51859 10.18506,-0.81025 14.93576,0 0.81584,0.13887 1.68599,-0.68976 1.494,-1.49602 -0.38538,-1.61839 -0.65353,-2.14071 -0.57914,-4.47378 0.0268,-0.82852 -0.20634,-1.65548 -1.00896,-1.85825 -4.62872,-2.23787 -9.42236,-4.00359 -14.32594,-4.23847 -0.17883,-0.10336 -0.38109,-0.14293 -0.58531,-0.13285 v 0 z m 7.80554,12.58633 c -2.50957,-0.0335 -4.95552,0.13361 -7.27555,0.58733 -0.80473,-0.19326 -1.31472,0.68684 -1.49399,1.49607 -0.56123,2.53204 -0.56542,4.723 0,7.25506 0.18085,0.80898 0.67289,1.59782 1.49399,1.49397 5.54663,-0.70175 10.07873,-0.5362 14.93787,0 0.82255,0.0906 1.68598,-0.68765 1.494,-1.49397 -0.38538,-1.61847 0.67775,-3.11352 0,-7.25506 -0.13421,-0.81804 -0.66706,-1.52914 -1.494,-1.49607 -2.57883,-0.33082 -5.15276,-0.55659 -7.66232,-0.58733 z m 84.4697,0 c -2.50957,0.0336 -5.08349,0.25667 -7.66232,0.58733 -0.82685,-0.0335 -1.3601,0.67803 -1.49401,1.49607 -0.67766,4.14154 0.38537,5.97836 0,7.59681 -0.19192,0.80627 0.66913,1.5633 1.49401,1.49603 4.91247,-0.40082 9.43924,-1.00072 14.93778,0 0.81414,0.1479 1.31333,-0.68708 1.49397,-1.49603 0.56542,-2.53205 0.56124,-5.06477 0,-7.59681 -0.1795,-0.80923 -0.68926,-1.68918 -1.49397,-1.49607 -2.32014,-0.45366 -4.76579,-0.61812 -7.27546,-0.58733 z m -57.98726,0.0235 h 6.54081 v 6.76179 h -6.54081 z m 12.66615,0 h 6.5408 v 6.76179 h -6.5408 z m 12.66616,0 h 6.54084 v 6.76179 h -6.54084 z m 32.57301,11.2049 c -2.5096,0.0335 -5.0835,0.25901 -7.66232,0.5894 -0.82686,-0.0335 -1.20042,0.721 -1.4939,1.49602 -1.45073,3.8319 0.13391,5.36791 0,7.08713 -0.0638,0.82639 0.66892,1.43099 1.4939,1.49608 4.99042,0.39425 9.57503,1.01597 14.93788,0 0.81311,-0.15434 1.31334,-0.68714 1.49398,-1.49608 0.56542,-2.53185 0.56122,-4.55506 0,-7.08713 -0.17952,-0.80918 -0.68927,-1.68922 -1.49398,-1.49602 -2.32014,-0.45374 -4.766,-0.62022 -7.27556,-0.5894 z m -84.15451,0.19224 c -2.50935,-0.0336 -5.00478,0.0712 -7.42683,0.39702 -0.80476,-0.19326 -1.31475,0.68685 -1.49402,1.49602 -0.56123,2.53221 -0.56542,5.06475 0,7.59692 0.18052,0.80895 0.66923,1.42697 1.49402,1.49609 5.36301,0.4496 9.94543,0.30533 14.93574,0 0.82603,-0.0503 1.56025,-0.66968 1.49598,-1.49609 -0.13391,-1.71921 1.45075,-3.76488 0,-7.59692 -0.2929,-0.77505 -0.66901,-1.52924 -1.49598,-1.49602 -2.47772,-0.20433 -4.99954,-0.36659 -7.50891,-0.39702 z m 26.24919,2.02403 h 6.54081 v 6.28927 h -6.54081 z m 12.66615,0 h 6.5408 v 6.28927 h -6.5408 z m 12.66616,0 h 6.54084 v 6.28927 h -6.54084 z m 40.14738,9.17274 c -0.0987,0 -0.19829,3.3e-4 -0.29894,0.0335 -5.29766,1.27198 -9.87073,0.20467 -14.93787,0 -0.82685,-0.0335 -1.54324,0.6687 -1.49389,1.4961 0.22783,3.832 0.41682,5.87566 0,7.59487 -0.19493,0.80559 0.66673,1.47361 1.49389,1.49609 4.43057,0.12082 9.28449,0.67875 14.93787,0 0.82162,-0.0973 1.34845,-0.6801 1.494,-1.49609 0.45142,-2.53218 -0.29627,-5.06269 0,-7.59487 0.084,-0.72037 -0.50703,-1.47294 -1.19516,-1.52059 v 0 z m -99.45669,0.45228 v 0 c -0.68812,0.0469 -1.2773,0.80223 -1.19304,1.5226 0.29626,2.53185 -0.45151,4.60435 0,7.13622 0.14564,0.81599 0.66725,1.45918 1.49397,1.49608 5.65342,0.25501 10.50533,-0.74283 14.93579,0 0.81625,0.13751 1.6913,-0.69049 1.49598,-1.49608 -0.4168,-1.71921 -0.22813,-3.30456 0,-7.13622 0.0494,-0.8274 -0.66901,-1.53133 -1.49598,-1.49811 -5.06711,0.20132 -9.6381,1.27163 -14.93579,0 -0.10066,-0.0335 -0.20232,-0.0335 -0.30096,-0.0335 z m 33.977,3.32368 h 6.54081 v 5.34755 h -6.54081 z m 12.66615,0 h 6.5408 v 5.34755 h -6.5408 z m 12.66616,0 h 6.54084 v 5.34755 h -6.54084 z m -47.86083,7.23855 v 0.002 c -3.71208,0 -7.25029,0.58246 -11.14755,0.23822 -0.8243,-0.0739 -1.3734,0.67808 -1.49397,1.49811 -0.37254,2.53218 -1.08283,5.06269 0,7.59487 0.32578,0.76198 0.66671,1.25351 1.49397,1.23002 5.65342,-0.16105 11.79092,-0.666 15.31638,0.0772 0.80975,0.17111 1.47965,-0.66736 1.49609,-1.49577 0.0357,-1.71954 0.40824,-3.57263 -0.3807,-7.40463 -0.16742,-0.81163 -0.67626,-1.38436 -1.49598,-1.49811 -1.29555,-0.18118 -2.55097,-0.24157 -3.78824,-0.23822 z m 72.77149,0.23822 c -0.82609,-0.0503 -1.32676,0.68615 -1.49387,1.49811 -0.78893,3.83166 -0.0355,5.87533 0,7.59487 0.0167,0.82874 0.66838,1.55414 1.49387,1.49575 4.43048,-0.31202 9.28449,-0.16104 14.93787,0 0.82717,0.0335 1.16826,-0.73377 1.49402,-1.49575 1.08284,-2.53218 0.37253,-5.06269 0,-7.59487 -0.12082,-0.82002 -0.6724,-1.59675 -1.49402,-1.49811 -5.19633,0.62374 -9.75557,0.30868 -14.93787,0 z m -50.24297,4.52888 h 6.54081 v 6.04778 h -6.54081 z m 12.66615,0 h 6.5408 v 6.04778 h -6.5408 z m 12.66616,0 h 6.54084 v 6.04778 h -6.54084 z m -47.86083,6.16655 c -3.71208,0 -7.25029,0.58449 -11.14755,0.23822 -0.8243,-0.0739 -1.3734,0.67609 -1.49397,1.4961 -0.37254,2.53218 -1.08283,4.60638 0,7.13856 0.32578,0.76198 0.67647,1.36726 1.49397,1.49575 5.65342,0.89048 10.50533,0.11074 14.93579,0 0.82727,-0.0335 1.47955,-0.66701 1.49598,-1.49575 0.0357,-1.71954 0.78894,-3.30657 0,-7.13856 -0.16742,-0.81163 -0.67626,-1.38202 -1.49598,-1.4961 -1.29555,-0.18118 -2.55097,-0.24157 -3.78824,-0.23822 z m 72.77149,0.23822 c -0.82484,-0.0671 -1.32676,0.68447 -1.49387,1.4961 -0.78893,3.83199 -0.0355,5.87768 0,7.59688 0.0167,0.82874 0.66662,1.47529 1.49387,1.4961 4.43048,0.11074 9.28449,0.89049 14.93787,0 0.81744,-0.12744 1.16826,-0.73413 1.49402,-1.4961 1.08284,-2.53217 0.37253,-5.0647 0,-7.59688 -0.12082,-0.82001 -0.67186,-1.5907 -1.49402,-1.4961 -2.58341,0.29862 -4.87241,0.13421 -7.30005,0.11405 -2.46455,-0.0335 -5.06788,0.0939 -7.63782,-0.11405 z m -50.24297,5.7777 h 6.54081 v 8.02634 l 2.94705,9.25678 c -4.0562,-0.094 -8.12755,-0.28525 -12.21381,-0.61608 -0.0105,0 -0.0135,0 -0.0235,0 l 2.74847,-8.6387 v -8.02668 z m 12.66615,0 h 6.5408 v 8.02634 l 2.95733,9.28925 c -4.12628,0.0572 -8.27403,0.0671 -12.44308,-0.0337 l 2.94495,-9.26071 v -8.02637 z m 12.66616,0 h 6.54084 v 8.02634 l 2.86928,9.02119 c -4.1025,0.11074 -8.20617,0.20467 -12.36335,0.26505 l 2.95323,-9.28523 v -8.02636 z m -59.30313,5.14288 v 10e-4 c -0.65426,0.0704 -1.09374,0.78882 -1.19922,1.50616 -0.37254,2.53218 -1.08283,5.06469 0,7.59692 0.32578,0.76195 0.68749,1.31052 1.49397,1.49612 4.33097,0.99784 9.495,0.0906 14.93579,0 0.82746,0 1.47955,-0.6674 1.49598,-1.49612 0.0357,-1.71924 0.78894,-3.76493 0,-7.59692 -0.16742,-0.81161 -0.67375,-1.58804 -1.49598,-1.49376 -4.76138,0.54526 -9.57167,0.96397 -14.93579,0 -0.10171,-0.0335 -0.20131,-0.0335 -0.29493,0 z m 99.44434,0.30531 c -0.0933,0 -0.19124,0 -0.29258,0 -5.36408,0.96399 -10.17647,0.54523 -14.93787,0 -0.82224,-0.0939 -1.32678,0.68417 -1.49391,1.49578 -0.78891,3.83199 -0.0355,5.87768 0,7.59687 0.0167,0.82877 0.67459,1.61284 1.49391,1.49608 4.97911,-0.70995 9.95876,-0.12744 14.93787,0 0.82727,0.0337 1.16822,-0.73413 1.49402,-1.49608 1.08282,-2.53186 0.37249,-5.06469 0,-7.59687 -0.10532,-0.71734 -0.54722,-1.43771 -1.20138,-1.50817 v -10e-4 z"
       style="fill:#000000;fill-opacity:1;stroke:none;stroke-width:4.56118;stroke-linecap:round;stroke-linejoin:round;stroke-miterlimit:4;stroke-dasharray:none;stroke-dashoffset:0;stroke-opacity:1" />
    <g
       style="font-style:normal;font-weight:normal;font-size:48.9798px;line-height:125%;font-family:sans-serif;letter-spacing:0px;word-spacing:0px;fill:#ffffff;fill-opacity:1;stroke:none;stroke-width:0.889442px;stroke-linecap:butt;stroke-linejoin:miter;stroke-opacity:1"
       id="g131"
       transform="matrix(2.3410321,0,0,2.3601271,17.339982,-1506.5796)">
      <path
         d="m 45.225419,1016.332 q 0.669646,0 1.291459,0.2631 0.621814,0.263 1.076216,0.7174 0.478318,0.4305 0.741393,1.0284 0.286991,0.574 0.286991,1.2197 v 18.0087 q 0,0.6936 -0.263075,1.2915 -0.239159,0.5979 -0.693561,1.0523 -0.454402,0.4783 -1.0523,0.7414 -0.597898,0.263 -1.267543,0.263 H 22.457477 q -0.693561,0 -1.315374,-0.263 -0.597898,-0.2631 -1.0523,-0.7414 -0.454402,-0.4544 -0.717477,-1.0523 -0.263075,-0.5979 -0.263075,-1.2915 v -18.0087 q 0,-0.6457 0.263075,-1.2197 0.28699,-0.5979 0.741393,-1.0284 0.478318,-0.4544 1.076215,-0.7174 0.597898,-0.2631 1.267543,-0.2631 v -3.8744 q 0,-2.4394 0.406571,-4.544 0.40657,-2.1046 1.626281,-3.6352 1.243627,-1.5546 3.467807,-2.4155 2.248095,-0.8849 5.907228,-0.8849 3.68305,0 5.907229,0.8849 2.248095,0.8609 3.44389,2.4155 1.219712,1.5306 1.602366,3.6352 0.40657,2.1046 0.40657,4.544 z m -17.889097,-3.8744 v 3.7548 h 13.058085 v -3.7548 q 0,-1.8176 -0.143496,-3.0612 -0.143495,-1.2676 -0.789225,-2.0329 -0.621813,-0.7653 -1.937188,-1.1001 -1.315375,-0.3348 -3.659134,-0.3348 -2.319842,0 -3.635217,0.3348 -1.291459,0.3348 -1.937189,1.1001 -0.645729,0.7653 -0.81314,2.0329 -0.143496,1.2436 -0.143496,3.0612 z"
         id="path129"
         inkscape:connector-curvature="0"
         style="fill:#ffffff;stroke-width:0.889442px" />
    </g>
  </g>
</svg>
