<?xml version="1.0" encoding="UTF-8" standalone="no"?>
<!-- Created with Inkscape (http://www.inkscape.org/) -->

<svg
   xmlns:dc="http://purl.org/dc/elements/1.1/"
   xmlns:cc="http://creativecommons.org/ns#"
   xmlns:rdf="http://www.w3.org/1999/02/22-rdf-syntax-ns#"
   xmlns:svg="http://www.w3.org/2000/svg"
   xmlns="http://www.w3.org/2000/svg"
   xmlns:sodipodi="http://sodipodi.sourceforge.net/DTD/sodipodi-0.dtd"
   xmlns:inkscape="http://www.inkscape.org/namespaces/inkscape"
   width="450"
   height="325"
   viewBox="0 0 450 325"
   id="svg5199"
   version="1.1"
   inkscape:version="0.92.0 r15299"
   sodipodi:docname="figure_alerts_unsubdue.svg">
  <defs
     id="defs5201" />
  <sodipodi:namedview
     id="base"
     pagecolor="#ffffff"
     bordercolor="#666666"
     borderopacity="1.0"
     inkscape:pageopacity="0.0"
     inkscape:pageshadow="2"
     inkscape:zoom="1.4"
     inkscape:cx="101.61544"
     inkscape:cy="153.74948"
     inkscape:document-units="px"
     inkscape:current-layer="layer1"
     showgrid="false"
     units="px"
     borderlayer="true"
     inkscape:window-width="1920"
     inkscape:window-height="1017"
     inkscape:window-x="-8"
     inkscape:window-y="-8"
     inkscape:window-maximized="1" />
  <metadata
     id="metadata5204">
    <rdf:RDF>
      <cc:Work
         rdf:about="">
        <dc:format>image/svg+xml</dc:format>
        <dc:type
           rdf:resource="http://purl.org/dc/dcmitype/StillImage" />
        <dc:title />
      </cc:Work>
    </rdf:RDF>
  </metadata>
  <g
     inkscape:label="Layer 1"
     inkscape:groupmode="layer"
     id="layer1"
     transform="translate(0,-727.36216)">
    <g
       id="g4257"
       transform="translate(0,-47.390305)">
      <path
         inkscape:transform-center-y="-5.4261838"
         inkscape:transform-center-x="5.2377932"
         sodipodi:nodetypes="cccccccc"
         inkscape:connector-curvature="0"
         id="path15147"
         d="m 280.36769,965.1096 -39.24962,-31.44007 -3.1e-4,17.21041 -43.03211,0 1.2e-4,29.90552 43.03211,0 -8e-5,15.76421 z"
         style="fill:#000000;fill-opacity:1;stroke:none;stroke-width:1.10099995;stroke-linecap:round;stroke-linejoin:round;stroke-miterlimit:4;stroke-dasharray:none;stroke-dashoffset:0;stroke-opacity:1" />
      <g
         transform="translate(0,32.857143)"
         id="g4163">
        <circle
           style="fill:#000000;stroke:none;stroke-width:3;stroke-miterlimit:4;stroke-dasharray:none;stroke-opacity:1"
           id="path4151"
           cx="400.71429"
           cy="928.07642"
           r="45" />
        <path
           id="path15149"
           d="m 400.71429,896.83247 c 2.83886,0 4.7227,1.41745 7.24972,2.82167 2.39517,1.33142 5.40596,2.47258 9.65199,1.60564 2.01501,2.01471 4.06221,4.02984 6.24535,5.39477 1.78649,1.11717 3.79413,1.78267 5.79661,1.46791 -0.57456,4.52203 -3.31964,8.94522 -6.18917,11.26062 -7.56742,-2.50856 -15.1538,-3.76346 -22.74019,-3.76346 -7.59333,0 -15.18652,1.25738 -22.7609,3.7705 -2.87253,-2.31334 -5.62208,-6.74108 -6.19708,-11.26766 2.00206,0.31435 4.00999,-0.35158 5.79662,-1.4675 2.18314,-1.36534 4.23006,-3.38047 6.24535,-5.39518 4.2456,0.86694 7.25695,-0.27299 9.65185,-1.60524 2.52742,-1.40504 4.41113,-2.82207 7.24985,-2.82207 z m 0.0149,2.64257 c -2.67865,0 -7.18755,3.62078 -7.18755,3.62078 0,0 2.86859,10.86397 7.18755,10.86397 4.31925,0 7.18795,-10.86397 7.18795,-10.86397 0,0 -4.50931,-3.62078 -7.18795,-3.62078 z m 0,18.56919 c 7.13628,0 14.27297,1.16721 21.42669,3.48055 0.29478,1.82156 -0.20407,3.17531 -1.27708,4.42689 -1.19771,1.3972 -3.20823,2.58344 -5.59112,3.47685 -4.76648,1.78723 -10.94734,2.42006 -14.55863,2.42006 -3.61115,0 -9.79173,-0.63283 -14.55794,-2.42006 -2.3833,-0.89341 -4.39341,-2.07924 -5.59113,-3.47685 -1.07338,-1.25158 -1.57242,-2.60493 -1.27749,-4.42689 7.15374,-2.31334 14.29043,-3.48055 21.42656,-3.48055 z m 23.41689,7.72835 c 1.32767,0.32263 3.64075,1.05141 4.05621,2.29805 1.13596,3.40734 -2.28717,8.62757 -4.87596,11.92075 0.71326,-2.97594 1.09777,-6.14133 1.09777,-9.42295 0,-1.63046 -0.0954,-3.23197 -0.27806,-4.79585 z m -46.83325,0 a 41.349104,41.364178 0 0 0 -0.27798,4.79544 c 0,3.28203 0.3844,6.44742 1.09777,9.42336 -2.58879,-3.29318 -6.01192,-8.51341 -4.87596,-11.92075 0.41534,-1.24664 2.72868,-1.97625 4.05594,-2.29805 z m 44.61372,2.59253 c 0.0409,0.72715 0.0641,1.46131 0.0641,2.20291 0,8.02908 -2.45081,15.27558 -6.34039,20.46106 -3.88946,5.18588 -9.15212,8.29129 -14.92119,8.29129 -5.7688,0 -11.03159,-3.10541 -14.92091,-8.29129 -3.88931,-5.18548 -6.33998,-12.43157 -6.33998,-20.46106 0,-0.7416 0.0235,-1.47576 0.0641,-2.20332 1.10856,1.03528 2.46239,1.87575 3.95205,2.57392 -0.57717,2.46142 0.0359,5.52258 1.63542,7.12159 2.94344,2.94328 9.54439,2.94328 12.48797,0 0.91165,-0.91201 1.30271,-2.36462 1.25116,-3.82261 0.66691,0 1.29766,0.0579 1.87048,0.0579 0.57297,0 1.20387,0 1.8709,-0.0579 -0.0517,1.45799 0.33937,2.9106 1.25117,3.82261 2.94358,2.94328 9.5444,2.94328 12.48785,0 1.59941,-1.59901 2.21258,-4.66017 1.6354,-7.12117 1.48965,-0.69818 2.8439,-1.53824 3.95205,-2.57393 z m -21.19736,15.93861 c -3.12193,4.99479 -9.3655,5.61935 -12.48742,5.61935 3.12178,2.49741 12.48728,2.49741 12.48728,0 0,2.49741 9.36605,2.49741 12.48798,0 -3.12193,0 -9.36591,-0.62456 -12.48798,-5.61935 z"
           style="fill:#ffffff;fill-opacity:1"
           inkscape:connector-curvature="0" />
      </g>
      <path
         id="path15153"
         d="m 326.90186,870.18392 c -5.63942,0 -9.69562,2.9877 -12.03822,6.74008 -2.09487,3.35518 -2.96637,7.24755 -3.13624,10.65589 -6.39337,3.16519 -13.47576,6.35539 -19.17781,9.61753 -2.9914,1.7116 -5.59919,3.43339 -7.56207,5.2834 -1.96292,1.84922 -3.41154,3.93223 -3.41154,6.38899 0,1.04463 0.51011,1.89691 1.08437,2.52245 0.57534,0.63335 1.26406,1.11031 2.04924,1.56303 1.5698,0.90311 3.54891,1.66312 5.7255,2.3168 3.23445,0.97194 6.85609,1.69441 10.00519,2.00327 -3.13184,5.403 -7.30069,10.36581 -10.95455,15.1214 -4.22298,5.49605 -7.90981,10.76693 -7.90981,16.62188 0,0.83744 -0.0251,1.48875 0.0642,2.1448 0.0773,0.64898 0.26187,1.47546 0.92099,2.12366 0.65916,0.649 1.46567,0.81787 2.12271,0.90232 0.65728,0.10943 1.31926,0 2.16834,0 l 23.29794,0 c 1.69146,0 2.93004,0.10943 4.20392,-0.71153 1.27415,-0.81787 1.73889,-1.93916 2.64647,-3.61243 l 0.0251,0 0.025,-0.10943 c 0,0 2.03069,-4.13319 4.45369,-8.23668 1.21149,-2.05095 2.52687,-4.09407 3.6711,-5.54061 0.57251,-0.71155 1.10761,-1.2972 1.49325,-1.6217 0.11864,-0.10943 0.1727,-0.10943 0.24748,-0.16413 0.0773,0 0.1289,0 0.24748,0.16413 0.38562,0.32841 0.921,0.89295 1.49323,1.6217 1.14421,1.44654 2.45934,3.48966 3.67085,5.54061 2.423,4.10349 4.45418,8.23668 4.45418,8.23668 l 0.0251,0.10943 0.0251,0 c 0.90793,1.67327 1.36798,2.78595 2.63387,3.60852 1.2651,0.81866 2.50112,0.71153 4.16834,0.71153 l 23.40106,0 c 0.8354,0 1.48705,0 2.1397,-0.10943 0.65244,-0.10943 1.46179,-0.24238 2.11396,-0.91249 0.65164,-0.64897 0.83201,-1.46372 0.90416,-2.11663 0.0749,-0.64898 0.0642,-1.3058 0.0642,-2.14244 0,-5.85417 -3.68683,-11.12661 -7.90981,-16.62188 -3.6541,-4.7548 -7.82218,-9.71917 -10.95484,-15.12139 3.14941,-0.31277 6.77104,-1.03056 10.00522,-2.00248 2.17685,-0.64899 4.15597,-1.40902 5.72551,-2.31603 0.7852,-0.45351 1.47441,-0.93985 2.04924,-1.56383 0.57478,-0.63334 1.08471,-1.47781 1.08471,-2.52322 0,-2.45677 -1.44865,-4.5398 -3.41154,-6.38821 -1.96289,-1.8508 -4.57096,-3.5718 -7.56209,-5.28261 -5.70204,-3.26214 -12.78445,-6.45313 -19.17806,-9.61829 -0.17002,-3.40837 -1.04164,-7.3015 -3.13624,-10.65669 -2.34258,-3.75161 -6.39855,-6.73852 -12.03822,-6.73852 z"
         inkscape:connector-curvature="0"
         style="fill:#4d4d4d;fill-opacity:1;stroke:#ffffff;stroke-width:3;stroke-miterlimit:4;stroke-dasharray:none;stroke-opacity:1" />
      <g
         transform="translate(75.714286,32.857143)"
         id="g4159">
        <circle
           r="45"
           cy="928.07642"
           cx="53.57143"
           id="circle4153"
           style="fill:#000000;stroke:none;stroke-width:3;stroke-miterlimit:4;stroke-dasharray:none;stroke-opacity:1" />
        <path
           id="path15143"
           d="m 68.153056,931.9504 c -3.255924,0.43694 -7.397249,0.74381 -12.620705,0.92218 -3.314393,0.11307 -7.03157,0.16963 -11.050373,0.16963 -5.060116,0 -9.569507,-0.0874 -12.360777,-0.15421 a 29.687347,29.685409 0 0 0 1.266172,8.32264 c 3.189489,10.65119 11.563824,17.85892 19.898836,17.85892 a 14.083316,14.082398 0 0 0 4.051343,-0.58703 c 9.246686,-2.76855 13.953988,-14.50436 10.815504,-26.52648 z m -23.099335,12.41484 -1.931632,-1.17301 -0.853714,1.49789 -2.239183,-1.28046 0.89201,-1.55391 -1.991608,-1.21003 1.340048,-2.20467 1.931789,1.17353 0.853722,-1.49788 2.239193,1.28045 -0.892019,1.55441 1.991441,1.20952 z m 13.983976,-3.67222 -1.931974,-1.17354 -0.853529,1.49687 -2.239192,-1.27891 0.887612,-1.56112 -1.991608,-1.20745 1.344455,-2.20621 1.931789,1.17353 0.853547,-1.49788 2.239017,1.28044 -0.89201,1.55441 1.991784,1.20953 z m 17.324966,-32.32833 3.129843,2.60717 3.459602,-2.14453 -1.513739,3.77914 3.109836,2.6272 -4.061333,-0.27243 -1.54222,3.76885 -0.99554,-3.94722 -4.060158,-0.29814 3.43842,-2.16612 z m -0.03245,-11.21455 0.296027,2.5429 2.506404,0.52585 -2.327289,1.06661 0.284513,2.54496 -1.736917,-1.88341 -2.334248,1.05171 1.254649,-2.22884 -1.721337,-1.89677 2.510823,0.50889 z m -50.226122,-0.0669 2.621816,3.11039 3.782584,-1.50508 -2.152254,3.45993 2.600297,3.12941 -3.951875,-0.97768 -2.179366,3.44091 -0.28436,-4.05929 -3.946277,-1.00595 3.772587,-1.53027 z m 50.226122,29.20405 c -0.648491,1.80116 -3.635853,3.7195 -20.871668,4.30602 -3.681586,0.12337 -7.464182,0.16449 -10.973604,0.16449 -5.96196,0 -17.241263,-0.17478 -17.241263,-0.17478 l 0,-2.27611 c 0,0 11.305059,0.17477 17.242612,0.17477 3.434198,0 7.129851,-0.0615 10.730448,-0.15935 5.51525,-0.18506 9.947871,-0.52585 13.175674,-1.0111 4.846596,-0.7325 5.663196,-1.59761 5.779951,-1.76981 -0.03391,-0.0822 -0.173701,-0.33412 -0.691547,-0.74379 -1.442405,-1.13807 -4.058468,-2.27611 -7.582131,-3.33451 a 28.793977,28.792101 0 0 0 -2.355772,-3.01785 c 0.284464,0.0719 0.569055,0.14392 0.836433,0.21588 5.003191,1.33133 8.535475,2.79323 10.509987,4.34663 0.926063,0.73713 1.931768,1.90088 1.44086,3.27693 z m -43.360972,-0.2159 c 0.213528,-1.04246 1.25787,-3.76938 1.765557,-4.54042 8.01611,0.55001 21.459348,-2.23603 25.091115,-3.57918 2.163442,1.88496 4.652917,5.09814 5.776921,7.42361 -8.152514,0.92782 -22.67977,0.94632 -32.637653,0.69752 z m 2.759756,-10.25435 c -1.433931,-0.0874 -4.798137,-0.29815 -6.067023,0.28271 1.688456,1.59452 10.668925,1.77237 18.241389,0.7001 8.117093,-1.14936 15.64821,-3.05283 20.067949,-6.064 1.840965,-1.25475 2.813809,-3.08879 2.637577,-3.90148 -0.896428,-4.14872 -24.769493,-5.61319 -24.769493,-5.61319 0,0 25.362573,0.52532 25.550339,5.61114 0.202007,5.45694 -11.684985,9.64472 -23.107976,11.42686 -10.849734,1.6927 -21.251592,1.81092 -20.712392,-2.66472 0.31294,-2.59996 7.301839,-2.11472 10.326285,-1.77084 -0.600391,0.41637 -1.699984,1.50251 -2.170727,1.99289 z m 10.794498,-2.72128 a 15.11894,15.117955 0 0 1 6.057357,0.65384 c -1.810968,0.44722 -8.292141,1.32466 -12.114724,1.42231 3.01733,-1.83866 5.518163,-2.01087 6.053124,-2.07512 z"
           style="fill:#ffffff;fill-opacity:1"
           inkscape:connector-curvature="0" />
      </g>
      <path
         style="fill:#4d4d4d;fill-opacity:1;stroke:#ffffff;stroke-width:3;stroke-miterlimit:4;stroke-dasharray:none;stroke-opacity:1"
         inkscape:connector-curvature="0"
         d="m 53.330423,872.32677 c -5.63942,0 -9.69562,2.9877 -12.03822,6.74008 -2.09487,3.35518 -2.96637,7.24755 -3.13624,10.65589 -6.39337,3.16519 -13.47576,6.35539 -19.17781,9.61753 -2.9914,1.7116 -5.59919,3.43339 -7.56207,5.2834 -1.9629202,1.84922 -3.4115402,3.93223 -3.4115402,6.38899 0,1.04463 0.51011,1.89691 1.08437,2.52245 0.57534,0.63335 1.2640602,1.11031 2.0492402,1.56303 1.5698,0.90311 3.54891,1.66312 5.7255,2.3168 3.23445,0.97194 6.85609,1.69441 10.00519,2.00327 -3.13184,5.403 -7.30069,10.36581 -10.95455,15.1214 -4.22298,5.49605 -7.9098102,10.76693 -7.9098102,16.62188 0,0.83744 -0.0251,1.48875 0.0642,2.1448 0.0773,0.64898 0.26187,1.47546 0.92099,2.12366 0.65916,0.649 1.4656702,0.81787 2.1227102,0.90232 0.65728,0.10943 1.31926,0 2.16834,0 l 23.29794,0 c 1.69146,0 2.93004,0.10943 4.20392,-0.71153 1.27415,-0.81787 1.73889,-1.93916 2.64647,-3.61243 l 0.0251,0 0.025,-0.10943 c 0,0 2.03069,-4.13319 4.45369,-8.23668 1.21149,-2.05095 2.52687,-4.09407 3.6711,-5.54061 0.57251,-0.71155 1.10761,-1.2972 1.49325,-1.6217 0.11864,-0.10943 0.1727,-0.10943 0.24748,-0.16413 0.0773,0 0.1289,0 0.24748,0.16413 0.38562,0.32841 0.921,0.89295 1.49323,1.6217 1.14421,1.44654 2.45934,3.48966 3.67085,5.54061 2.423,4.10349 4.45418,8.23668 4.45418,8.23668 l 0.0251,0.10943 0.0251,0 c 0.90793,1.67327 1.36798,2.78595 2.63387,3.60852 1.2651,0.81866 2.501121,0.71153 4.168341,0.71153 l 23.401059,0 c 0.8354,0 1.48705,0 2.1397,-0.10943 0.65244,-0.10943 1.46179,-0.24238 2.11396,-0.91249 0.65164,-0.64897 0.83201,-1.46372 0.90416,-2.11663 0.0749,-0.64898 0.0642,-1.3058 0.0642,-2.14244 0,-5.85417 -3.68683,-11.12661 -7.90981,-16.62188 -3.654099,-4.7548 -7.822179,-9.71917 -10.954839,-15.12139 3.14941,-0.31277 6.77104,-1.03056 10.005219,-2.00248 2.17685,-0.64899 4.15597,-1.40902 5.72551,-2.31603 0.7852,-0.45351 1.47441,-0.93985 2.04924,-1.56383 0.57478,-0.63334 1.08471,-1.47781 1.08471,-2.52322 0,-2.45677 -1.44865,-4.5398 -3.41154,-6.38821 -1.96289,-1.8508 -4.57096,-3.5718 -7.562089,-5.28261 -5.70204,-3.26214 -12.78445,-6.45313 -19.17806,-9.61829 -0.17002,-3.40837 -1.041641,-7.3015 -3.136241,-10.65669 -2.34258,-3.75161 -6.39855,-6.73852 -12.03822,-6.73852 z"
         id="path4157" />
    </g>
  </g>
</svg>
