<?xml version="1.0" encoding="UTF-8" standalone="no"?>
<svg
   xmlns:dc="http://purl.org/dc/elements/1.1/"
   xmlns:cc="http://creativecommons.org/ns#"
   xmlns:rdf="http://www.w3.org/1999/02/22-rdf-syntax-ns#"
   xmlns:svg="http://www.w3.org/2000/svg"
   xmlns="http://www.w3.org/2000/svg"
   xmlns:sodipodi="http://sodipodi.sourceforge.net/DTD/sodipodi-0.dtd"
   xmlns:inkscape="http://www.inkscape.org/namespaces/inkscape"
   width="450"
   height="325"
   viewBox="0 0 450.00001 325"
   id="svg5199"
   version="1.1"
   inkscape:version="1.0 (4035a4fb49, 2020-05-01)"
   sodipodi:docname="watch-out.svg">
  <defs
     id="defs5201" />
  <sodipodi:namedview
     id="base"
     pagecolor="#ffffff"
     bordercolor="#666666"
     borderopacity="1.0"
     inkscape:pageopacity="0.0"
     inkscape:pageshadow="2"
     inkscape:zoom="1.4"
     inkscape:cx="429.95044"
     inkscape:cy="143.49401"
     inkscape:document-units="px"
     inkscape:current-layer="layer1"
     showgrid="false"
     units="px"
     borderlayer="true"
     inkscape:window-width="1280"
     inkscape:window-height="961"
     inkscape:window-x="1912"
     inkscape:window-y="-8"
     inkscape:window-maximized="1"
     inkscape:document-rotation="0" />
  <metadata
     id="metadata5204">
    <rdf:RDF>
      <cc:Work
         rdf:about="">
        <dc:format>image/svg+xml</dc:format>
        <dc:type
           rdf:resource="http://purl.org/dc/dcmitype/StillImage" />
        <dc:title />
      </cc:Work>
    </rdf:RDF>
  </metadata>
  <g
     inkscape:label="Layer 1"
     inkscape:groupmode="layer"
     id="layer1"
     transform="translate(0,-727.36216)">
    <g
       transform="translate(0,-10.357144)"
       id="g92">
      <g
         transform="matrix(0.84117287,0,0,0.84117287,-229.14084,116.76599)"
         id="g4252"
         style="stroke-width:0.693908">
        <rect
           style="fill:#b3b3b3;fill-opacity:1;stroke:#000000;stroke-width:3.46954;stroke-linecap:round;stroke-linejoin:round;stroke-miterlimit:4;stroke-dasharray:none;stroke-dashoffset:0.6;stroke-opacity:1"
           id="rect5229"
           width="119.48205"
           height="119.48203"
           x="296.20898"
           y="884.43329"
           ry="12.644557"
           rx="12.644557" />
        <path
           style="fill:#000000;fill-opacity:1;stroke-width:0.693908"
           d="m 349.04357,894.25658 v 94.69231 l 30.34921,-8.84956 v -76.99319 z m 34.18312,5.58532 0.0126,0.48022 v 6.1699 h 3.41977 v -6.64755 h -3.43321 z m -55.12948,0 v 24.36203 h 3.84742 v -20.62269 h 13.25147 v -3.73934 z m 55.14299,10.38691 v 3.32442 h 3.41854 v -3.32442 z m 0,7.06376 v 49.02757 h 3.41854 v -49.02757 z m -60.36762,6.05528 -12.45385,12.10483 12.45385,12.10674 v -7.3282 h 20.51871 v -9.5558 h -20.51871 z m 31.94084,13.26504 c 1.41641,0 2.56459,2.23208 2.56459,4.986 0,2.75329 -1.14818,4.986 -2.56459,4.986 -1.41633,0 -2.56451,-2.23271 -2.56451,-4.986 0,-2.75392 1.14818,-4.986 2.56451,-4.986 z m -22.86879,6.31526 v 7.32949 h -20.51749 v 9.55579 h 20.51749 v 7.32756 l 12.45506,-12.1061 z m -3.84742,25.83599 v 12.72208 h 3.84742 v -12.72208 z m 55.14299,1.29533 v 2.90823 h 3.41854 v -2.90823 z m 0,6.64821 v 4.77854 h 3.41854 v -4.77854 z m -73.73678,9.5558 v 3.73997 h 35.69268 v -3.73997 z m 62.12102,0 -12.82388,3.73997 h 46.45325 v -3.73997 z"
           id="path11026"
           inkscape:connector-curvature="0" />
      </g>
      <path
         id="path5238"
         d="m 69.167971,803.46133 c -3.241797,0 -5.573399,1.71317 -6.919964,3.8647 -1.204275,1.92383 -1.705299,4.15589 -1.803032,6.1107 -3.674983,1.81468 -7.746252,3.64417 -11.023968,5.5148 -1.719511,0.98142 -3.218539,1.96831 -4.346929,3.02889 -1.12839,1.06054 -1.960987,2.25484 -1.960987,3.66371 0,0.59953 0.293243,1.08803 0.623039,1.44648 0.331327,0.35973 0.726938,0.63762 1.178176,0.8972 0.902332,0.51992 2.039892,0.95309 3.291337,1.32799 1.859006,0.55719 3.940984,0.97125 5.751244,1.1482 -1.800539,3.09869 -4.196774,5.94428 -6.297213,8.67105 -2.427478,3.15159 -4.546664,6.17375 -4.546664,9.53145 0,0.47965 -0.0061,0.85402 0.03655,1.2303 0.04391,0.37655 0.150502,0.84552 0.52947,1.21754 0.378785,0.37219 0.8425,0.47233 1.220223,0.51329 0.377334,0.0439 0.758264,0.0439 1.246402,0.0439 h 13.392594 c 0.972253,0 1.684059,0.0586 2.416348,-0.41093 0.732473,-0.47012 0.999536,-1.11217 1.521266,-2.07165 h 0.0061 l 0.0061,-0.0439 c 0,0 1.167415,-2.37036 2.560314,-4.723 0.696145,-1.17557 1.452448,-2.34704 2.1101,-3.17693 0.329162,-0.41457 0.636944,-0.74406 0.858529,-0.92983 0.06575,-0.0582 0.09884,-0.0658 0.141925,-0.0931 0.04391,0.0439 0.07372,0.0439 0.141924,0.0931 0.221362,0.18644 0.52947,0.51473 0.858448,0.92983 0.657447,0.82989 1.413669,2.00136 2.11016,3.17693 1.392758,2.35264 2.560234,4.723 2.560234,4.723 l 0.0061,0.0439 h 0.0061 c 0.522139,0.95948 0.786465,1.59766 1.51414,2.06913 0.727592,0.47087 1.437683,0.41458 2.396152,0.41458 H 92.20393 c 0.4805,0 0.854854,0 1.229963,-0.0439 0.37515,-0.0439 0.840335,-0.14397 1.215179,-0.51988 0.374393,-0.37655 0.478247,-0.8388 0.519934,-1.21331 0.04387,-0.37217 0.03652,-0.74869 0.03652,-1.22854 0,-3.35727 -2.119227,-6.37942 -4.546665,-9.53108 -2.100316,-2.72672 -4.496551,-5.57237 -6.297193,-8.67105 1.81026,-0.17786 3.892259,-0.59153 5.751244,-1.14816 1.251426,-0.37658 2.388985,-0.80834 3.291337,-1.32801 0.451177,-0.25799 0.847463,-0.53815 1.177871,-0.89677 0.330613,-0.35976 0.623774,-0.84732 0.623774,-1.44697 0,-1.40883 -0.832556,-2.60314 -1.960926,-3.66365 -1.128431,-1.06059 -2.6275,-2.04745 -4.346888,-3.02893 -3.27788,-1.87054 -7.348985,-3.70008 -11.024111,-5.51476 -0.09823,-1.95474 -0.598921,-4.18675 -1.803011,-6.11067 -1.346566,-2.15156 -3.678108,-3.86474 -6.919966,-3.86474 z"
         inkscape:connector-curvature="0"
         style="fill:#4d4d4d;fill-opacity:1;stroke:none;stroke-width:1.22537;stroke-miterlimit:4;stroke-dasharray:none;stroke-opacity:1" />
    </g>
    <g
       class=""
       id="g24"
       style="stroke-width:2.87485;stroke:#000000;stroke-opacity:1"
       transform="matrix(0.34784466,0,0,0.34784466,7.0813324,805.72729)" />
    <g
       id="g929"
       transform="translate(20.20305,-12.58106)" />
    <g
       transform="translate(-318.21429,-106.80376)"
       id="g80">
      <path
         style="fill:#000000;fill-opacity:1;stroke:none;stroke-width:1.101;stroke-linecap:round;stroke-linejoin:round;stroke-miterlimit:4;stroke-dasharray:none;stroke-dashoffset:0;stroke-opacity:1"
         d="m 551.13972,1008.8088 -41.29271,-33.12784 -3.4e-4,18.1343 h -45.2721 l 1.2e-4,31.51084 h 45.27211 l -8e-5,16.6105 z"
         id="path15147-3"
         inkscape:connector-curvature="0"
         sodipodi:nodetypes="cccccccc"
         inkscape:transform-center-x="5.0225219"
         inkscape:transform-center-y="-5.2031502" />
      <text
         xml:space="preserve"
         style="font-style:normal;font-variant:normal;font-weight:normal;font-stretch:normal;font-size:29.594px;line-height:1.25;font-family:'Archivo Black';-inkscape-font-specification:'Archivo Black, ';letter-spacing:0px;word-spacing:0px;fill:#ffffff;fill-opacity:1;stroke:none;stroke-width:1"
         x="466.965"
         y="1016.4413"
         id="text102"
         transform="scale(0.99922762,1.000773)"><tspan
           sodipodi:role="line"
           id="tspan100"
           x="466.965"
           y="1016.4413"
           style="stroke-width:1">may</tspan></text>
    </g>
    <g
       transform="translate(0,0.98082704)"
       id="g100">
      <g
         id="g111"
         transform="matrix(0.74723867,0,0,0.74839432,65.953386,322.57205)"
         style="stroke-width:0.910752">
        <path
           id="path4746"
           d="m 356.91916,868.1735 q 4.52492,4.57698 6.76128,10.1942 2.23663,5.61719 2.23663,11.54646 0,5.92929 -2.23663,11.54645 -2.23636,5.6172 -6.76128,10.0902 -0.9363,0.8842 -2.18444,0.8842 -0.57227,0 -1.14428,-0.208 -0.52007,-0.208 -0.88437,-0.6762 -0.98823,-0.8321 -0.98823,-2.1324 0,-1.3003 0.98823,-2.1325 3.58889,-3.6408 5.35737,-8.1657 1.8204,-4.52498 1.8204,-9.25801 0,-4.733 -1.8204,-9.20597 -1.76848,-4.52497 -5.4093,-8.16576 -0.9363,-0.93619 -0.9363,-2.18446 0,-1.30028 0.98823,-2.13245 0.88437,-0.88419 2.08058,-0.88419 1.24814,0 2.13251,0.88419 z m -10.35017,7.80168 q 2.80837,2.80861 4.26475,6.39736 1.45638,3.58878 1.45638,7.54162 0,3.84884 -1.45638,7.43755 -1.45638,3.5368 -4.26475,6.3454 -0.52034,0.4161 -1.09235,0.6761 -0.52008,0.2602 -1.09235,0.2602 -0.57201,0 -1.14401,-0.2602 -0.57228,-0.2601 -1.04043,-0.6761 -0.8841,-0.8842 -0.8841,-2.1325 0,-1.1962 0.8841,-2.1844 1.92453,-1.9244 3.01662,-4.31693 1.09235,-2.44453 1.09235,-5.14912 0,-2.70457 -1.09235,-5.20111 -1.09209,-2.49653 -3.01662,-4.42095 -0.8841,-0.88419 -0.8841,-2.13246 0,-1.19626 0.8841,-2.18446 0.98823,-0.88419 2.18444,-0.88419 1.19647,0 2.1847,0.88419 z m 20.59621,-15.3953 q 5.87745,5.87726 8.94599,13.41887 3.06854,7.54161 3.06854,15.91541 0,8.26975 -3.06854,15.81135 -3.06854,7.4896 -8.94599,13.3669 -0.93603,0.8842 -2.18443,0.8842 -1.30033,0 -2.18444,-0.8842 -0.8841,-0.8842 -0.8841,-2.1325 0,-1.1962 0.93603,-2.1324 4.99307,-4.9931 7.64566,-11.4425 2.65258,-6.4494 2.65258,-13.47085 0,-7.12553 -2.65258,-13.52289 -2.65259,-6.39739 -7.69759,-11.44247 -0.8841,-0.9882 -0.8841,-2.23647 0,-1.14425 0.8841,-2.13245 0.83218,-0.83218 2.13251,-0.83218 1.24814,0 2.23636,0.83218 z M 331.95381,856.523 q 1.24813,-0.93619 2.34048,-0.93619 0.98823,0 1.56024,0.83218 0.57227,0.78017 0.57227,2.28848 v 62.30934 q 0,1.5083 -0.6242,2.3405 -0.6242,0.7802 -1.61243,0.7802 -1.14428,0 -2.34049,-0.9882 -5.35709,-4.1609 -9.56991,-7.4376 -1.82041,-1.4043 -3.53696,-2.7046 -1.71629,-1.3523 -3.12047,-2.3925 -1.35252,-1.0402 -2.23663,-1.7164 -0.83218,-0.6761 -0.88411,-0.6761 h -20.33631 q -0.46815,0 -0.83217,-0.4161 -0.3121,-0.4681 -0.3121,-1.0402 v -34.01533 q 0,-0.57211 0.3121,-0.88418 0.36402,-0.36408 0.83217,-0.36408 h 20.59622 q 0,-0.0519 0.83218,-0.72817 0.88437,-0.67613 2.23663,-1.71636 1.35225,-1.09222 3.06854,-2.39252 1.71655,-1.35228 3.53696,-2.75658 4.21282,-3.22469 9.51799,-7.38559 z"
           inkscape:connector-curvature="0"
           style="font-style:normal;font-weight:normal;font-size:40px;line-height:125%;font-family:sans-serif;letter-spacing:0px;word-spacing:0px;fill:#000000;fill-opacity:1;stroke:none;stroke-width:0.910751px;stroke-linecap:butt;stroke-linejoin:miter;stroke-opacity:1" />
        <path
           d="m 429.96782,912.94135 q 0,1.48566 -1.02457,2.56152 -1.02466,1.07587 -2.51032,1.33196 h -19.05761 q -1.43446,-0.25646 -2.51028,-1.33196 -1.0246,-1.07586 -1.0246,-2.56152 v -2.76643 q 0,-2.04914 -0.30739,-3.58609 -0.25619,-1.53687 -1.07584,-3.32991 -0.81969,-1.79315 -2.35659,-4.20087 -1.53691,-2.40784 -3.99596,-6.09643 -2.76643,-4.20089 -4.76441,-7.37719 -1.94675,-3.2275 -3.2275,-6.04513 -1.22952,-2.81763 -1.84429,-5.53284 -0.56348,-2.76642 -0.56348,-6.04513 0,-4.25217 1.07582,-8.19686 1.12707,-3.9447 3.17628,-7.37719 2.04921,-3.4324 4.86686,-6.19883 2.86889,-2.81761 6.30132,-4.81565 3.48365,-1.99795 7.4796,-3.07382 4.04719,-1.12706 8.35052,-1.12706 4.2521,0 8.19679,1.12706 3.94478,1.07587 7.42839,3.07382 3.48369,1.99804 6.35252,4.81565 2.86891,2.76643 4.91815,6.19883 2.10043,3.43249 3.2275,7.37719 1.12708,3.94469 1.12708,8.19686 0,3.02252 -0.6659,5.84023 -0.6146,2.81763 -1.94674,5.78894 -1.28067,2.92013 -3.27871,6.19893 -1.94674,3.2787 -4.55948,7.12099 -2.45902,3.63729 -3.99597,5.99393 -1.53686,2.35653 -2.40783,4.14958 -0.81977,1.74186 -1.12698,3.27871 -0.25648,1.53695 -0.25648,3.58619 v 3.02252 z m 0,14.60058 q 0,0.71718 -0.10259,1.22956 -0.0466,0.20518 -0.0466,0.40942 -0.20517,0.5633 -0.20517,1.28077 0,0.71717 0.20517,1.12698 0,0.10259 0.0466,0.30775 0.10259,0.40942 0.10259,1.07587 0,0.87106 -0.25647,1.48566 -0.20518,0.61459 -0.46071,1.02466 -0.30777,0.512 -0.71717,0.76848 -0.46072,0.25647 -0.97339,0.512 -0.4607,0.25648 -0.66588,0.25648 -0.25647,0 -0.66589,0.25647 -0.40942,0.30683 -0.71718,0.71718 l -1.84425,3.27871 q -0.30739,0.40942 -0.87088,0.71718 -0.56349,0.35906 -1.0246,0.5633 h -9.58005 q -0.51228,-0.20518 -1.07582,-0.5633 -0.56349,-0.30776 -0.81968,-0.71718 l -2.04921,-3.27871 q -0.25619,-0.40942 -0.61478,-0.71718 -0.35859,-0.25647 -0.61478,-0.25647 -0.30739,0 -0.76848,-0.25648 -0.40978,-0.25646 -0.87087,-0.512 -0.40989,-0.25648 -0.71718,-0.76848 -0.25619,-0.40942 -0.46108,-1.02466 -0.2049,-0.6146 -0.2049,-1.48566 0,-0.87106 0.0513,-1.07587 0,-0.20517 0.0513,-0.30775 0.10245,-0.25648 0.15369,-0.56332 0.0513,-0.25646 0.0513,-0.5633 0,-0.30776 -0.0513,-0.66588 -0.0513,-0.30684 -0.15369,-0.6146 -0.0513,-0.20517 -0.0513,-0.40942 -0.0513,-0.25646 -0.0513,-1.22956 0,-0.92235 0.2049,-1.63935 0.25619,-0.71718 0.51228,-1.17826 0.30739,-0.5633 0.76848,-0.97339 l 2.15166,-1.12706 h 18.64781 l 2.15164,1.12706 q 0.41035,0.40942 0.76847,0.97339 0.25648,0.4607 0.51201,1.17826 0.25647,0.71718 0.25647,1.63935 z"
           style="font-style:normal;font-variant:normal;font-weight:normal;font-stretch:normal;font-size:11.25px;line-height:110%;font-family:'Archivo Narrow';-inkscape-font-specification:'Archivo Narrow';letter-spacing:0px;word-spacing:0px;fill:#000000;fill-opacity:1;stroke:none;stroke-width:6.01054px;stroke-linecap:butt;stroke-linejoin:miter;stroke-opacity:1"
           id="path6427"
           inkscape:connector-curvature="0" />
      </g>
      <g
         id="g86">
        <path
           inkscape:randomized="0"
           inkscape:rounded="0"
           inkscape:flatsided="true"
           sodipodi:arg2="-0.52359878"
           sodipodi:arg1="-1.0471976"
           sodipodi:r2="9.6671848"
           sodipodi:r1="11.162703"
           sodipodi:cy="1113.0243"
           sodipodi:cx="407.40814"
           sodipodi:sides="6"
           id="path123"
           style="font-style:normal;font-weight:normal;font-size:medium;line-height:125%;font-family:sans-serif;letter-spacing:0px;word-spacing:0px;fill:#b3b3b3;fill-opacity:1;stroke:#000000;stroke-width:0.662394;stroke-linecap:butt;stroke-linejoin:round;stroke-miterlimit:4;stroke-dasharray:none;stroke-dashoffset:0;stroke-opacity:1"
           sodipodi:type="star"
           transform="matrix(7.3339897,4.2588263,-4.2359274,7.379372,2068.9058,-9100.7815)"
           d="m 412.98949,1103.3571 5.58135,9.6672 -5.58135,9.6672 -11.1627,0 -5.58135,-9.6672 5.58135,-9.6672 z" />
        <path
           id="path82"
           d="m 342.15532,814.83201 c -4.42258,0 -7.60345,2.33717 -9.44048,5.27237 -1.64291,2.62456 -2.32643,5.66963 -2.45976,8.33645 -5.01354,2.47565 -10.56772,4.97151 -15.03931,7.52349 -2.34583,1.3389 -4.39085,2.68525 -5.93025,4.13214 -1.5394,1.44682 -2.67525,3.07614 -2.67525,4.99817 0,0.8179 0.40006,1.48433 0.84998,1.97334 0.45201,0.49076 0.99171,0.86987 1.6073,1.224 1.231,0.70928 2.78291,1.30023 4.49018,1.81168 2.53611,0.76014 5.37643,1.32503 7.84606,1.56642 -2.45636,4.22735 -5.7254,8.10942 -8.5909,11.82938 -3.31165,4.29952 -6.20273,8.42246 -6.20273,13.00316 0,0.65435 -0.008,1.16509 0.0498,1.67842 0.0598,0.51371 0.20532,1.15349 0.72233,1.66101 0.51675,0.50777 1.14937,0.64438 1.66467,0.70026 0.51478,0.0599 1.03446,0.0599 1.70039,0.0599 h 18.27069 c 1.32638,0 2.29745,0.0799 3.29647,-0.5606 0.99926,-0.64137 1.36361,-1.51727 2.07536,-2.82623 h 0.008 l 0.008,-0.0598 c 0,0 1.59263,-3.23373 3.49288,-6.44329 0.94971,-1.60376 1.98148,-3.20192 2.87868,-4.33409 0.44905,-0.56557 0.86895,-1.01508 1.17124,-1.26851 0.0898,-0.0794 0.13491,-0.0898 0.19362,-0.12704 0.0598,0.0598 0.10063,0.0598 0.19361,0.12704 0.30199,0.25435 0.72233,0.70222 1.17113,1.26851 0.89691,1.13217 1.92858,2.73033 2.87876,4.33409 1.90005,3.20956 3.49278,6.44329 3.49278,6.44329 l 0.008,0.0598 h 0.008 c 0.71231,1.30896 1.07291,2.17958 2.06564,2.82278 0.99262,0.64238 1.96135,0.56559 3.26892,0.56559 h 18.35122 c 0.65552,0 1.16622,0 1.67796,-0.0598 0.51179,-0.0599 1.14642,-0.19641 1.65779,-0.70923 0.51077,-0.51372 0.65245,-1.14433 0.70932,-1.65525 0.0599,-0.50773 0.0498,-1.02139 0.0498,-1.67603 0,-4.58011 -2.89114,-8.70304 -6.20273,-13.00266 -2.86533,-3.71989 -6.13436,-7.60203 -8.59087,-11.82936 2.46963,-0.24265 5.30996,-0.807 7.84606,-1.56637 1.70725,-0.51374 3.25916,-1.10277 4.49018,-1.81172 0.6155,-0.35196 1.15613,-0.73417 1.60688,-1.22341 0.45104,-0.49079 0.85098,-1.15595 0.85098,-1.97401 0,-1.92198 -1.1358,-3.5513 -2.67517,-4.99809 -1.53945,-1.4469 -3.58453,-2.7932 -5.93019,-4.13218 -4.47181,-2.55187 -10.02576,-5.04779 -15.03951,-7.52344 -0.13407,-2.66673 -0.81706,-5.71172 -2.45974,-8.33641 -1.83702,-2.93525 -5.0178,-5.27243 -9.44047,-5.27243 z"
           inkscape:connector-curvature="0"
           style="fill:#4d4d4d;fill-opacity:1;stroke:none;stroke-width:1.6717;stroke-miterlimit:4;stroke-dasharray:none;stroke-opacity:1" />
      </g>
    </g>
  </g>
</svg>
