<?xml version="1.0" encoding="UTF-8" standalone="no"?>
<svg
   xmlns:dc="http://purl.org/dc/elements/1.1/"
   xmlns:cc="http://creativecommons.org/ns#"
   xmlns:rdf="http://www.w3.org/1999/02/22-rdf-syntax-ns#"
   xmlns:svg="http://www.w3.org/2000/svg"
   xmlns="http://www.w3.org/2000/svg"
   xmlns:sodipodi="http://sodipodi.sourceforge.net/DTD/sodipodi-0.dtd"
   xmlns:inkscape="http://www.inkscape.org/namespaces/inkscape"
   sodipodi:docname="where-is-he.svg"
   inkscape:version="1.0 (4035a4fb49, 2020-05-01)"
   version="1.1"
   id="svg5199"
   viewBox="0 0 450.00001 325"
   height="325"
   width="450">
  <defs
     id="defs5201" />
  <sodipodi:namedview
     inkscape:snap-global="false"
     inkscape:document-rotation="0"
     inkscape:window-maximized="1"
     inkscape:window-y="-8"
     inkscape:window-x="1912"
     inkscape:window-height="961"
     inkscape:window-width="1280"
     borderlayer="true"
     units="px"
     showgrid="false"
     inkscape:current-layer="layer1"
     inkscape:document-units="px"
     inkscape:cy="169.1514"
     inkscape:cx="493.04475"
     inkscape:zoom="2.8"
     inkscape:pageshadow="2"
     inkscape:pageopacity="0.0"
     borderopacity="1.0"
     bordercolor="#666666"
     pagecolor="#ffffff"
     id="base" />
  <metadata
     id="metadata5204">
    <rdf:RDF>
      <cc:Work
         rdf:about="">
        <dc:format>image/svg+xml</dc:format>
        <dc:type
           rdf:resource="http://purl.org/dc/dcmitype/StillImage" />
        <dc:title />
      </cc:Work>
    </rdf:RDF>
  </metadata>
  <g
     transform="translate(0,-727.36216)"
     id="layer1"
     inkscape:groupmode="layer"
     inkscape:label="Layer 1">
    <path
       d="m 395.48223,1093.1241 5.58135,9.6672 -5.58135,9.6671 -11.1627,0 -5.58135,-9.6671 5.58135,-9.6672 z"
       sodipodi:type="star"
       style="font-style:normal;font-weight:normal;font-size:medium;line-height:125%;font-family:sans-serif;letter-spacing:0px;word-spacing:0px;fill:#b3b3b3;fill-opacity:1;stroke:#000000;stroke-width:0.769812;stroke-linecap:butt;stroke-linejoin:round;stroke-miterlimit:4;stroke-dasharray:none;stroke-dashoffset:0;stroke-opacity:1"
       id="path5084"
       sodipodi:sides="6"
       sodipodi:cx="389.90088"
       sodipodi:cy="1102.7913"
       sodipodi:r1="11.162703"
       sodipodi:r2="9.6671848"
       sodipodi:arg1="-1.0471976"
       sodipodi:arg2="-0.52359878"
       inkscape:flatsided="true"
       inkscape:rounded="0"
       inkscape:randomized="0"
       transform="matrix(5.6220682,3.2468002,-3.2482914,5.6277619,1684.6381,-6627.6615)" />
    <path
       d="m 412.98949,1103.3571 5.58135,9.6672 -5.58135,9.6672 -11.1627,0 -5.58135,-9.6672 5.58135,-9.6672 z"
       transform="matrix(5.6220682,3.2468002,-3.2482914,5.6277619,1687.0812,-6626.5689)"
       sodipodi:type="star"
       style="font-style:normal;font-weight:normal;font-size:medium;line-height:125%;font-family:sans-serif;letter-spacing:0px;word-spacing:0px;fill:#b3b3b3;fill-opacity:1;stroke:#000000;stroke-width:0.769812;stroke-linecap:butt;stroke-linejoin:round;stroke-miterlimit:4;stroke-dasharray:none;stroke-dashoffset:0;stroke-opacity:1"
       id="path5092"
       sodipodi:sides="6"
       sodipodi:cx="407.40814"
       sodipodi:cy="1113.0243"
       sodipodi:r1="11.162703"
       sodipodi:r2="9.6671848"
       sodipodi:arg1="-1.0471976"
       sodipodi:arg2="-0.52359878"
       inkscape:flatsided="true"
       inkscape:rounded="0"
       inkscape:randomized="0" />
    <path
       sodipodi:nodetypes="scccccscs"
       inkscape:connector-curvature="0"
       d="m 183.08103,748.37294 c 18.67691,-6.89493 45.27482,3.10995 52.58405,19.22079 l 12.77746,-10.92891 0.83098,55.35683 -41.63096,-20.47209 13.88073,-11.86697 c -3.99115,-17.02877 -38.32087,-9.24754 -41.61891,-7.96187 -3.51061,1.36853 -23.25623,7.40807 -38.77133,33.99552 5.94796,-39.64508 18.61929,-48.73118 41.94798,-57.3433 z"
       id="path5102"
       style="fill:#000000;fill-opacity:1;stroke:none;stroke-width:1;stroke-opacity:1" />
    <g
       id="g141">
      <ellipse
         ry="34.495525"
         rx="34.485989"
         cy="844.51538"
         cx="294.5"
         id="circle4163"
         style="fill:#000000;stroke:none;stroke-width:8.00982;stroke-miterlimit:4;stroke-dasharray:none;stroke-opacity:1" />
      <path
         inkscape:connector-curvature="0"
         style="font-variation-settings:normal;vector-effect:none;fill:#ffffff;fill-opacity:1;stroke-width:0.578048;stroke-linecap:butt;stroke-linejoin:miter;stroke-miterlimit:4;stroke-dasharray:none;stroke-dashoffset:0;stroke-opacity:1;stop-color:#000000"
         d="m 280.22612,822.8759 c -1.41214,-4.8e-4 -2.89804,0.20435 -4.46152,0.66067 a 0.9052249,0.90539552 0 0 0 -0.0138,0.0134 0.9052249,0.90539552 0 0 0 -0.0473,0.016 0.9052249,0.90539552 0 0 0 -0.0371,0.0134 0.9052249,0.90539552 0 0 0 -0.0447,0.0221 0.9052249,0.90539552 0 0 0 -0.0365,0.0184 0.9052249,0.90539552 0 0 0 -0.0441,0.0258 0.9052249,0.90539552 0 0 0 -0.0325,0.022 0.9052249,0.90539552 0 0 0 -0.0413,0.0295 0.9052249,0.90539552 0 0 0 -0.0308,0.0245 0.9052249,0.90539552 0 0 0 -0.0378,0.0344 0.9052249,0.90539552 0 0 0 -0.0283,0.027 0.9052249,0.90539552 0 0 0 -0.0353,0.0381 0.9052249,0.90539552 0 0 0 -0.0236,0.0282 0.9052249,0.90539552 0 0 0 -0.0325,0.0429 0.9052249,0.90539552 0 0 0 -0.0204,0.0294 0.9052249,0.90539552 0 0 0 -0.0269,0.0454 0.9052249,0.90539552 0 0 0 -0.0184,0.0331 0.9052249,0.90539552 0 0 0 -0.0222,0.0478 0.9052249,0.90539552 0 0 0 -0.0149,0.0355 0.9052249,0.90539552 0 0 0 -0.0169,0.0478 0.9052249,0.90539552 0 0 0 -0.0116,0.0368 0.9052249,0.90539552 0 0 0 -0.0162,0.0663 l -2.13366,10.67056 a 0.9052249,0.90539552 0 0 0 0.53599,1.01148 l 7.81571,3.2955 3.01297,15.45211 -11.10415,2.41244 a 0.9052249,0.90539552 0 0 0 -0.71465,0.87251 l -0.10115,7.28808 a 0.9052249,0.90539552 0 0 0 1.17918,0.87533 l 13.95647,-4.46141 2.2986,-0.44577 c 0.0169,0 0.0336,0 0.0505,0 0.94867,0 1.84209,-0.4519 2.46602,-1.18873 0.62347,-0.73599 0.94963,-1.69546 0.94868,-2.68365 v 0 c 5.7e-4,-0.62645 -0.13072,-1.24234 -0.38543,-1.7969 l -2.40819,-12.44402 11.98461,5.05302 a 0.9052249,0.90539552 0 0 0 0.0147,0.0134 0.9052249,0.90539552 0 0 0 0.052,0.0185 0.9052249,0.90539552 0 0 0 0.0333,0.0134 0.9052249,0.90539552 0 0 0 0.0518,0.0134 0.9052249,0.90539552 0 0 0 0.0397,0.0134 0.9052249,0.90539552 0 0 0 0.046,0.0134 0.9052249,0.90539552 0 0 0 0.0459,0.0134 0.9052249,0.90539552 0 0 0 0.0409,0 0.9052249,0.90539552 0 0 0 0.0515,0 0.9052249,0.90539552 0 0 0 0.0346,0 l 7.94748,-0.5033 a 0.9052249,0.90539552 0 0 0 0.75945,-0.51824 l 4.81408,-10.19327 h 7.6e-4 a 0.9052249,0.90539552 0 0 0 0.002,-0.0134 0.9052249,0.90539552 0 0 0 -0.52504,-1.25203 c -0.742,-0.40688 -1.50572,-0.69183 -2.28268,-0.87178 l -29.33643,-11.38457 a 0.9052249,0.90539552 0 0 0 -0.0765,-0.0258 c -1.26895,-0.36627 -2.60743,-0.57272 -4.01967,-0.57358 z m -2.51052,1.30797 a 0.9052249,0.90539552 0 0 1 0.35133,0.0686 l 27.70464,11.10601 a 0.90598726,0.90615802 0 0 1 0.54981,1.0283 0.9052249,0.90539552 0 0 0 -0.0674,0.1391 l -0.0797,0.19724 a 0.90598726,0.90615802 0 0 1 -1.0758,0.31795 l -27.70454,-11.10882 a 0.9052249,0.90539552 0 0 1 0.3217,-1.74846 z m 34.04675,12.23402 c 0.41925,0 0.83376,0.0478 1.24521,0.13334 l 1.40453,0.54512 -2.25544,4.77617 c 0.087,-0.38677 0.1313,-0.77046 0.1272,-1.12999 -0.009,-0.83202 -0.28015,-1.52016 -0.74752,-1.86437 -0.46738,-0.34444 -1.11372,-0.33169 -1.7509,0.0234 -0.15721,0.0883 -0.31492,0.19675 -0.46747,0.32174 0.0586,-0.0786 0.11336,-0.164 0.16075,-0.25624 0.13501,-0.26263 0.21419,-0.56708 0.21153,-0.83669 -0.003,-0.27011 -0.0901,-0.49961 -0.24422,-0.61664 -0.077,-0.0589 -0.1658,-0.0883 -0.26204,-0.0859 -0.0962,0 -0.20029,0.0307 -0.30072,0.0883 -0.20078,0.1153 -0.38877,0.33548 -0.52408,0.5986 -0.13502,0.26349 -0.2144,0.56682 -0.21124,0.83693 0.002,0.2701 0.0901,0.49973 0.24412,0.61676 0.15406,0.11653 0.3619,0.10908 0.56277,-0.0134 -0.3255,0.33941 -0.62375,0.7529 -0.86636,1.21216 -0.43908,0.83056 -0.68854,1.79151 -0.67891,2.62366 0.009,0.83228 0.28585,1.52312 0.75333,1.86756 0.46729,0.34444 1.10762,0.32861 1.7447,-0.0258 0.39811,-0.22226 0.78993,-0.57357 1.13488,-1.00854 l -0.80138,1.69645 -5.97924,0.38123 3.54972,-8.80531 c 1.39452,-0.73807 2.69395,-1.09723 3.95087,-1.08655 z m -28.40291,3.6354 1.52593,0.64349 2.83306,13.30034 c -0.28633,-0.0871 -0.58534,-0.13468 -0.89017,-0.13468 -0.25957,0 -0.51454,0.0355 -0.76115,0.0994 l -2.70767,-13.90839 z m 3.55926,1.50092 1.62149,0.68359 2.19159,11.32509 c -0.26032,-0.0723 -0.53017,-0.11042 -0.80488,-0.11042 -0.15657,0 -0.3112,0.0134 -0.46358,0.0368 l -2.54453,-11.93596 z m 3.0081,13.71567 c 0.36809,0 0.78687,0.18867 1.09312,0.55028 0.30634,0.36149 0.5177,0.94255 0.51685,1.50521 9.6e-4,0.56278 -0.21059,1.1436 -0.51674,1.50533 -0.14532,0.17161 -0.31598,0.30273 -0.49436,0.39473 l -0.58535,0.11281 c 0.20068,-0.50256 0.3034,-1.04853 0.30283,-1.6036 v 0 c 3.8e-4,-0.35964 -0.043,-0.71586 -0.12787,-1.05871 a 0.9052249,0.90539552 0 0 0 -0.0184,-0.21417 l -0.25309,-1.18726 c 0.0276,0 0.0556,-0.0134 0.0829,-0.0134 z m -3.09854,0.40982 c 0.36819,0 0.78707,0.18854 1.09341,0.55028 0.30627,0.36173 0.51742,0.94254 0.51665,1.50521 7.7e-4,0.5629 -0.21059,1.14372 -0.51674,1.50533 -0.30634,0.36174 -0.72513,0.55052 -1.09341,0.55052 -0.36809,0 -0.7845,-0.18891 -1.09076,-0.55052 -0.30624,-0.36149 -0.52007,-0.94243 -0.5193,-1.50533 -7.7e-4,-0.56267 0.21306,-1.14348 0.5193,-1.50521 0.30626,-0.36174 0.72267,-0.55028 1.09076,-0.55028 z m -3.28701,1.00928 c -0.0829,0.33929 -0.12541,0.6911 -0.12503,1.04621 v 0 c -9.6e-4,0.98843 0.32493,1.94778 0.9484,2.68389 0.0799,0.0932 0.16418,0.18387 0.25231,0.26851 l -10.34671,3.30752 0.0745,-5.31038 9.19652,-1.99819 z"
         id="path1339" />
    </g>
    <ellipse
       cy="873.11908"
       cx="-97.586967"
       id="path4151"
       style="fill:#000000;stroke:none;stroke-width:4.16408;stroke-miterlimit:4;stroke-dasharray:none;stroke-opacity:1"
       transform="scale(-1,1)"
       rx="68.453377"
       ry="68.472313" />
    <path
       id="path15149"
       d="m 97.586965,825.57807 c -4.31843,0 -7.1841,2.15681 -11.02817,4.29348 -3.6435,2.02589 -8.22347,3.76229 -14.68248,2.44315 -3.0652,3.0656 -6.17937,6.13183 -9.50034,8.20872 -2.71758,1.69989 -5.77157,2.71252 -8.81772,2.23358 0.87401,6.88075 5.04979,13.61111 9.41488,17.13424 11.51146,-3.81704 23.05175,-5.72651 34.59206,-5.72651 11.550875,0 23.101535,1.91324 34.623575,5.73722 4.36965,-3.51999 8.55223,-10.25727 9.42691,-17.14495 -3.0455,0.47832 -6.09994,-0.53497 -8.81774,-2.23296 -3.32096,-2.07751 -6.4347,-5.14374 -9.50034,-8.20934 -6.45834,1.31914 -11.03917,-0.41538 -14.68226,-2.44254 -3.84467,-2.13792 -6.71015,-4.29409 -11.028375,-4.29409 z m -0.0227,4.02096 c 4.074725,0 10.933605,5.5094 10.933605,5.5094 0,0 -4.36366,16.53069 -10.933605,16.53069 -6.57039,0 -10.93421,-16.53069 -10.93421,-16.53069 0,0 6.8595,-5.5094 10.93421,-5.5094 z m 0,28.255 c -10.85561,0 -21.71185,1.77604 -32.59399,5.29603 -0.44841,2.7717 0.31043,4.83158 1.94268,6.73599 1.82194,2.12599 4.88031,3.93098 8.50513,5.2904 7.25071,2.71946 16.65294,3.68238 22.14639,3.68238 5.493235,0 14.895045,-0.96292 22.145345,-3.68238 3.62544,-1.35942 6.68319,-3.16379 8.50515,-5.2904 1.63281,-1.90441 2.39194,-3.96368 1.9433,-6.73599 -10.88217,-3.51999 -21.73841,-5.29603 -32.593795,-5.29603 z m -35.62145,11.75952 c -2.01964,0.49091 -5.53826,1.59983 -6.17025,3.49672 -1.72801,5.18464 3.47921,13.12777 7.41724,18.1387 -1.085,-4.52821 -1.66991,-9.34469 -1.66991,-14.33803 0,-2.48092 0.14512,-4.91778 0.42298,-7.29739 z m 71.242095,0 a 62.899686,62.940019 0 0 1 0.42286,7.29677 c 0,4.99396 -0.58474,9.81044 -1.66991,14.33865 3.93803,-5.01093 9.14525,-12.95406 7.41724,-18.1387 -0.63181,-1.89689 -4.15083,-3.00707 -6.16984,-3.49672 z m -67.865785,3.94481 c -0.0622,1.10643 -0.0975,2.22354 -0.0975,3.35196 0,12.2171 3.72814,23.24343 9.64491,31.13369 5.91659,7.89087 13.92208,12.61608 22.69791,12.61608 8.775425,0 16.781105,-4.72521 22.697485,-12.61608 5.91637,-7.89026 9.64429,-18.91596 9.64429,-31.13369 0,-1.12842 -0.0358,-2.24553 -0.0975,-3.35259 -1.68632,1.57529 -3.74575,2.85416 -6.0118,3.9165 0.87798,3.74531 -0.0546,8.40319 -2.48778,10.83626 -4.47752,4.47851 -14.51879,4.47851 -18.99653,0 -1.38679,-1.38772 -1.98166,-3.59802 -1.90324,-5.81651 -1.014501,0 -1.973991,0.0881 -2.845355,0.0881 -0.8716,0 -1.83131,0 -2.84599,-0.0881 0.0787,2.21849 -0.51624,4.42879 -1.90326,5.81651 -4.47774,4.47851 -14.51881,4.47851 -18.99635,0 -2.433,-2.43307 -3.36574,-7.09095 -2.48775,-10.83562 -2.26603,-1.06236 -4.3261,-2.3406 -6.0118,-3.91651 z m 32.24514,24.2523 c 4.749035,7.6001 14.246675,8.55044 18.995695,8.55044 -4.74881,3.80007 -18.995485,3.80007 -18.995485,0 0,3.80007 -14.24751,3.80007 -18.99654,0 4.74903,0 14.24729,-0.95034 18.99654,-8.55044 z"
       style="fill:#ffffff;fill-opacity:1;stroke-width:1.38802"
       inkscape:connector-curvature="0" />
    <g
       transform="translate(129.0589,-9.4757394)"
       id="g50">
      <ellipse
         style="fill:#000000;stroke:none;stroke-width:8.00982;stroke-miterlimit:4;stroke-dasharray:none;stroke-opacity:1"
         id="ellipse40"
         cx="233.07143"
         cy="969.51538"
         rx="34.485989"
         ry="34.495525" />
      <path
         inkscape:connector-curvature="0"
         style="fill:#ffffff;fill-opacity:1;stroke-width:1.11559"
         d="m 245.85746,971.53097 c -2.30545,0.30913 -5.23785,0.52623 -8.93648,0.6524 -2.34686,0.0803 -4.97893,0.11993 -7.82457,0.11993 -3.58296,0 -6.77597,-0.0614 -8.75243,-0.10933 a 21.02105,20.998685 0 0 0 0.89656,5.88713 c 2.25842,7.53443 8.18812,12.63295 14.08999,12.63295 a 9.97213,9.9615215 0 0 0 2.86868,-0.41523 c 6.5474,-1.95843 9.88055,-10.25995 7.65825,-18.76417 z m -16.35621,8.782 -1.36774,-0.82978 -0.6045,1.0596 -1.58553,-0.90576 0.63162,-1.0992 -1.41022,-0.856 0.94887,-1.5595 1.36785,0.83012 0.60452,-1.0596 1.58552,0.90576 -0.63162,1.09965 1.4101,0.85555 z m 9.90179,-2.59767 -1.36799,-0.83012 -0.60437,1.05882 -1.58552,-0.90464 0.6285,-1.10434 -1.41022,-0.8541 0.95198,-1.56061 1.36786,0.83011 0.60439,-1.05948 1.5854,0.90575 -0.63162,1.09954 1.41034,0.85555 z m 12.26749,-22.86825 2.21618,1.84431 2.44968,-1.51699 -1.07185,2.67331 2.20201,1.85837 -2.87575,-0.19266 -1.09201,2.66595 -0.70493,-2.79213 -2.87491,-0.21096 2.43467,-1.53227 z m -0.023,-7.93281 0.20961,1.7988 1.77474,0.37194 -1.64791,0.75448 0.20146,1.80024 -1.22987,-1.33225 -1.65284,0.74389 0.88839,-1.57657 -1.21885,-1.34173 1.77787,0.36 z m -35.56417,-0.0468 1.85646,2.20019 2.67838,-1.06473 -1.52398,2.44751 1.84123,2.21369 -2.79824,-0.69156 -1.54318,2.43401 -0.20134,-2.87144 -2.79429,-0.71164 2.6713,-1.08247 z m 35.56417,20.65813 c -0.45918,1.27412 -2.57447,2.63114 -14.77883,3.04603 -2.60686,0.087 -5.28524,0.11636 -7.7702,0.11636 -4.22155,0 -12.20821,-0.12372 -12.20821,-0.12372 v -1.61004 c 0,0 8.0049,0.12361 12.20916,0.12361 2.4317,0 5.04852,-0.0435 7.59803,-0.11267 3.90525,-0.13097 7.0439,-0.37194 9.32944,-0.71521 3.43179,-0.5182 4.01001,-1.13011 4.09268,-1.25193 -0.024,-0.058 -0.12299,-0.2364 -0.48967,-0.52612 -1.02134,-0.80513 -2.87373,-1.61014 -5.36877,-2.35882 a 20.388471,20.366783 0 0 0 -1.66808,-2.1347 c 0.20144,0.0513 0.40295,0.10152 0.59227,0.15272 3.54266,0.94168 6.0438,1.97584 7.44192,3.07471 0.65573,0.52143 1.36785,1.34463 1.02025,2.31799 z m -30.70308,-0.15273 c 0.15119,-0.73741 0.89067,-2.6664 1.25016,-3.2117 5.67605,0.38901 15.19496,-1.58181 17.76654,-2.53186 1.53189,1.33337 3.29464,3.60629 4.09052,5.25125 -5.77264,0.6563 -16.05911,0.66936 -23.1101,0.49343 z m 1.95413,-7.25363 c -1.01535,-0.0614 -3.39748,-0.21096 -4.29595,0.20003 1.19557,1.12787 7.55447,1.25371 12.91639,0.49521 5.74756,-0.81305 11.0802,-2.15958 14.20974,-4.28959 1.30354,-0.88758 1.9924,-2.18491 1.86761,-2.75978 -0.63474,-2.93469 -17.53881,-3.97064 -17.53881,-3.97064 0,0 17.95876,0.37161 18.09171,3.96919 0.14305,3.86009 -8.27391,6.82246 -16.36232,8.08309 -7.68249,1.19737 -15.04785,1.28104 -14.66606,-1.88492 0.2216,-1.83918 5.1703,-1.49591 7.31186,-1.25271 -0.42513,0.29452 -1.20373,1.06283 -1.53705,1.40978 z m 7.64338,-1.92497 a 10.705436,10.694048 0 0 1 4.2891,0.46253 c -1.28232,0.31638 -5.87151,0.93699 -8.57821,1.00605 2.13652,-1.30057 3.90731,-1.42239 4.2861,-1.4678 z"
         id="path15143" />
    </g>
  </g>
</svg>
