<?xml version="1.0" encoding="UTF-8" standalone="no"?>
<svg
   xmlns:dc="http://purl.org/dc/elements/1.1/"
   xmlns:cc="http://creativecommons.org/ns#"
   xmlns:rdf="http://www.w3.org/1999/02/22-rdf-syntax-ns#"
   xmlns:svg="http://www.w3.org/2000/svg"
   xmlns="http://www.w3.org/2000/svg"
   xmlns:sodipodi="http://sodipodi.sourceforge.net/DTD/sodipodi-0.dtd"
   xmlns:inkscape="http://www.inkscape.org/namespaces/inkscape"
   inkscape:export-ydpi="199.8732"
   inkscape:export-xdpi="199.8732"
   inkscape:export-filename="C:\code\timber-wolf\rules\noise event tracker.png"
   sodipodi:docname="fix_event_setup.svg"
   inkscape:version="1.0 (4035a4fb49, 2020-05-01)"
   id="svg13240"
   version="1.1"
   viewBox="0 0 72.638253 66.844376"
   height="66.844376mm"
   width="72.638252mm">
  <defs
     id="defs13234" />
  <sodipodi:namedview
     lock-margins="true"
     fit-margin-bottom="2"
     fit-margin-right="2"
     fit-margin-left="2"
     fit-margin-top="2"
     showgrid="false"
     inkscape:document-rotation="0"
     inkscape:current-layer="layer1"
     inkscape:document-units="mm"
     inkscape:cy="174.38285"
     inkscape:cx="192.82919"
     inkscape:zoom="2"
     inkscape:pageshadow="2"
     inkscape:pageopacity="0.0"
     borderopacity="1.0"
     bordercolor="#666666"
     pagecolor="#ffffff"
     id="base" />
  <metadata
     id="metadata13237">
    <rdf:RDF>
      <cc:Work
         rdf:about="">
        <dc:format>image/svg+xml</dc:format>
        <dc:type
           rdf:resource="http://purl.org/dc/dcmitype/StillImage" />
        <dc:title></dc:title>
      </cc:Work>
    </rdf:RDF>
  </metadata>
  <g
     transform="translate(-92.2381,-72.055806)"
     id="layer1"
     inkscape:groupmode="layer"
     inkscape:label="Layer 1">
    <path
       style="stroke:#000000;stroke-width:0.325799;stroke-miterlimit:4;stroke-dasharray:none;stroke-opacity:1"
       id="path957"
       fill-opacity="1"
       fill="#ffffff"
       d="m 128.74325,99.823919 c -0.9065,-0.004 -2.03875,0.243071 -3.28037,1.087421 -9.76105,6.84162 -19.69098,13.40563 -29.769239,19.77284 -1.79053,1.16034 -1.711534,2.90916 0.178526,3.90284 l 22.601133,11.87517 c 0.94512,0.49683 3.93461,0.36031 5.72515,-0.79985 l 29.81312,-19.31824 c 1.79036,-1.16051 1.71154,-2.90881 -0.178,-3.90248 -7.84132,-4.12015 -15.05805,-7.90661 -22.92201,-12.06865 0,0 -0.84314,-0.543101 -2.16831,-0.549051 z"
       sodipodi:nodetypes="cccccccccc" />
    <path
       sodipodi:nodetypes="cccccccccc"
       d="m 128.74325,97.808639 c -0.9065,-0.004 -2.03875,0.24307 -3.28037,1.08743 -9.76105,6.841611 -19.69098,13.405631 -29.769239,19.772841 -1.79053,1.16033 -1.711534,2.90916 0.178526,3.90283 l 22.601133,11.87517 c 0.94512,0.49684 3.93461,0.36031 5.72515,-0.79985 l 29.81312,-19.31824 c 1.79036,-1.16051 1.71154,-2.90881 -0.178,-3.90248 -7.84132,-4.12014 -15.05805,-7.90661 -22.92201,-12.068641 0,0 -0.84314,-0.54311 -2.16831,-0.54906 z"
       fill="#ffffff"
       fill-opacity="1"
       id="path955"
       style="stroke:#000000;stroke-width:0.325799;stroke-miterlimit:4;stroke-dasharray:none;stroke-opacity:1" />
    <path
       style="stroke:#000000;stroke-width:0.325799;stroke-miterlimit:4;stroke-dasharray:none;stroke-opacity:1"
       id="path953"
       fill-opacity="1"
       fill="#ffffff"
       d="m 128.74325,95.793359 c -0.9065,-0.004 -2.03875,0.24308 -3.28037,1.08743 -9.76105,6.841621 -19.69098,13.405631 -29.769239,19.772841 -1.79053,1.16034 -1.711534,2.90916 0.178526,3.90283 l 22.601133,11.87518 c 0.94512,0.49683 3.93461,0.36031 5.72515,-0.79985 l 29.81312,-19.31824 c 1.79036,-1.16051 1.71154,-2.90882 -0.178,-3.90248 -7.84132,-4.12015 -15.05805,-7.90662 -22.92201,-12.068651 0,0 -0.84314,-0.5431 -2.16831,-0.54906 z"
       sodipodi:nodetypes="cccccccccc" />
    <path
       sodipodi:nodetypes="cccccccccc"
       d="m 128.74325,93.778087 c -0.9065,-0.004 -2.03875,0.243073 -3.28037,1.087427 -9.76105,6.841616 -19.69098,13.405636 -29.769239,19.772846 -1.79053,1.16033 -1.711534,2.90916 0.178526,3.90283 l 22.601133,11.87517 c 0.94512,0.49684 3.93461,0.36031 5.72515,-0.79985 l 29.81312,-19.31824 c 1.79036,-1.16051 1.71154,-2.90881 -0.178,-3.90248 -7.84132,-4.12015 -15.05805,-7.906611 -22.92201,-12.068647 0,0 -0.84314,-0.5431 -2.16831,-0.549056 z"
       fill="#ffffff"
       fill-opacity="1"
       id="path947"
       style="stroke:#000000;stroke-width:0.325799;stroke-miterlimit:4;stroke-dasharray:none;stroke-opacity:1" />
    <path
       style="stroke:#000000;stroke-width:0.325799;stroke-miterlimit:4;stroke-dasharray:none;stroke-opacity:1"
       id="path945"
       fill-opacity="1"
       fill="#ffffff"
       d="m 128.74325,91.762811 c -0.9065,-0.004 -2.03875,0.243073 -3.28037,1.087427 -9.76105,6.841621 -19.69098,13.405632 -29.769239,19.772842 -1.79053,1.16033 -1.711534,2.90916 0.178526,3.90283 l 22.601133,11.87517 c 0.94512,0.49684 3.93461,0.36031 5.72515,-0.79985 L 154.01157,108.283 c 1.79036,-1.16052 1.71154,-2.90882 -0.178,-3.90249 -7.84132,-4.12014 -15.05805,-7.906611 -22.92201,-12.068642 0,0 -0.84314,-0.543102 -2.16831,-0.549057 z"
       sodipodi:nodetypes="cccccccccc" />
    <path
       sodipodi:nodetypes="cccccccccc"
       d="m 126.09742,95.466979 c 0.90078,-0.1019 2.05308,0.0209 3.37871,0.72578 10.44369,5.744341 21.02524,11.194411 31.73293,16.432771 1.90551,0.9596 2.01612,2.70671 0.24464,3.89924 l -21.18398,14.25308 c -0.88583,0.59627 -3.87253,0.7843 -5.77803,-0.17513 l -31.7274,-15.97606 c -1.90536,-0.95981 -2.01609,-2.70637 -0.24513,-3.89884 7.34965,-4.94514 14.11446,-9.49093 21.48208,-14.480181 0,0 0.77945,-0.63123 2.09618,-0.78066 z"
       fill="#ffffff"
       fill-opacity="1"
       id="path943"
       style="stroke:#000000;stroke-width:0.325799;stroke-miterlimit:4;stroke-dasharray:none;stroke-opacity:1"
       inkscape:transform-center-x="-4.5099075"
       inkscape:transform-center-y="14.317232" />
    <path
       id="path10608"
       d="m 160.30691,113.60917 c -0.14844,-0.0871 -0.39913,-0.11009 -0.71138,0.004 -0.61636,0.22535 -1.47987,0.42569 -2.47041,0.59337 0.0311,0.21167 0.0164,0.42984 -0.0439,0.64659 1.00283,0.0117 1.88148,0.0893 2.51909,0.25097 0.97246,0.24667 1.32694,-0.75191 -0.002,-0.78596 0.89005,-0.0842 1.01273,-0.53078 0.70879,-0.70914 z m -5.55868,-3.33301 c -0.30749,-0.17602 -1.00131,-0.0686 -1.07541,0.46224 -0.0472,-0.77179 -1.33383,-0.50346 -0.99773,0.0829 0.2491,0.43451 0.44017,1.0556 0.56971,1.77004 0.33516,-0.0765 0.67964,-0.11653 1.01948,-0.11978 0.14364,-0.7073 0.34397,-1.34398 0.59125,-1.83135 0.0837,-0.16492 0.0226,-0.2897 -0.10725,-0.364 z m 1.14364,2.89887 c -1.09326,-0.65539 -2.85554,-0.50914 -3.94423,0.32755 -0.72505,0.55694 -0.96497,1.27742 -0.72216,1.89018 l -0.91539,0.70319 0.30516,0.18264 0.77022,-0.59181 c 0.0531,0.0751 0.11465,0.1476 0.18459,0.21681 l -0.69235,0.53241 0.3047,0.18239 0.64934,-0.49921 c 0.0396,0.0278 0.0816,0.0543 0.12449,0.0806 0.0429,0.0258 0.0868,0.0504 0.13168,0.0736 l -0.64935,0.4992 0.30464,0.18235 0.69234,-0.53239 c 0.1098,0.0386 0.22339,0.071 0.33971,0.0977 l -0.77021,0.59181 0.30416,0.18277 0.91436,-0.70239 c 0.9263,0.0887 1.95084,-0.16204 2.67634,-0.71962 1.08853,-0.83684 1.08521,-2.04221 -0.008,-2.69776 z m -2.52059,0.44669 c 0.32362,0.19437 0.32488,0.55269 0.002,0.80057 -0.32275,0.24776 -0.84664,0.2914 -1.17048,0.0973 -0.32363,-0.19437 -0.32488,-0.55269 -0.002,-0.80057 0.32275,-0.24776 0.84664,-0.29141 1.17047,-0.0973 z m 2.17564,1.30477 c 0.32359,0.19436 0.32488,0.5527 0.002,0.80058 -0.32275,0.24776 -0.84668,0.29139 -1.17048,0.0973 -0.32363,-0.19437 -0.32488,-0.5527 -0.002,-0.80058 0.32274,-0.24776 0.84665,-0.2914 1.17048,-0.0973 z m -1.93605,9.7e-4 -0.29415,0.89332 -0.9752,-0.58498 1.26948,-0.30839 z m -2.89233,-0.16817 c -1.18269,0.0115 -2.22711,-0.0389 -2.95434,-0.16376 -0.89852,-0.15407 -1.13145,0.74543 0.002,0.68204 -1.09046,0.16414 -0.77549,1.06777 0.002,0.80931 0.7704,-0.25616 1.82669,-0.49617 3.00519,-0.69512 -0.0631,-0.20449 -0.0819,-0.41768 -0.0552,-0.63247 z m 3.44425,2.10376 c -0.2856,0.0378 -0.57324,0.0495 -0.85518,0.0353 -0.12033,0.80226 -0.32148,1.51348 -0.60843,2.01523 -0.39117,0.68407 1.01141,0.82239 1.0313,-0.0856 0.21378,0.89133 1.62963,0.52926 1.14913,-0.0955 -0.34636,-0.45027 -0.57981,-1.10916 -0.71685,-1.86939 z"
       inkscape:connector-curvature="0"
       style="opacity:0.8;fill:#da0000;fill-opacity:1;stroke-width:0.966231" />
    <text
       id="text13458"
       y="78.488106"
       x="98.497231"
       style="font-size:6.35px;line-height:1.25;font-family:'Archivo Narrow';-inkscape-font-specification:'Archivo Narrow';letter-spacing:0px;word-spacing:0px;stroke-width:0.264583"
       xml:space="preserve"><tspan
         style="stroke-width:0.264583"
         y="78.488106"
         x="98.497231"
         id="tspan13456"
         sodipodi:role="line">1-8, G1, 9-12, G2, 13-14, </tspan><tspan
         id="tspan13629"
         style="stroke-width:0.264583"
         y="86.425606"
         x="98.497231"
         sodipodi:role="line">G4, G1, C4, 15-20, C1, Z2</tspan></text>
    <path
       sodipodi:nodetypes="cccccccccc"
       d="m 128.74325,91.762811 c -0.9065,-0.004 -2.03875,0.243073 -3.28037,1.087427 -9.76105,6.841621 -19.69098,13.405632 -29.769239,19.772842 -1.79053,1.16033 -1.711534,2.90916 0.178526,3.90283 l 22.601133,11.87517 c 0.94512,0.49684 3.93461,0.36031 5.72515,-0.79985 L 154.01157,108.283 c 1.79036,-1.16052 1.71154,-2.90882 -0.178,-3.90249 -7.84132,-4.12014 -15.05805,-7.906611 -22.92201,-12.068642 0,0 -0.84314,-0.543102 -2.16831,-0.549057 z"
       fill="#ffffff"
       fill-opacity="1"
       id="path13472"
       style="stroke:#000000;stroke-width:0.325799;stroke-miterlimit:4;stroke-dasharray:none;stroke-opacity:1" />
    <path
       inkscape:connector-curvature="0"
       id="path1479"
       style="font-style:normal;font-variant:normal;font-weight:normal;font-stretch:normal;font-size:medium;line-height:1.25;font-family:'Archivo Narrow';-inkscape-font-specification:'Archivo Narrow';font-variation-settings:normal;letter-spacing:0px;word-spacing:0px;display:inline;opacity:1;vector-effect:none;fill:#000000;fill-opacity:1;stroke:none;stroke-width:0.264583;stroke-linecap:butt;stroke-linejoin:miter;stroke-miterlimit:4;stroke-dasharray:none;stroke-dashoffset:0;stroke-opacity:1;stop-color:#000000;stop-opacity:1"
       d="m 108.84848,120.58482 -12.43893,-5.76191 q -0.130038,-0.0602 -0.176178,-0.17451 -0.03855,-0.11066 -0.01439,-0.22961 0.02407,-0.11885 0.121576,-0.2223 0.09151,-0.0971 0.250169,-0.17211 L 111.593,107.57536 q 0.14651,-0.0621 0.29629,-0.0579 0.1497,0.004 0.27216,0.061 0.12236,0.0567 0.18682,0.15157 0.0644,0.0949 0.0403,0.21378 l -2.56333,12.21094 q -0.0362,0.13186 -0.12762,0.22888 -0.0975,0.10343 -0.24414,0.16552 -0.14662,0.0621 -0.31455,0.0772 -0.16039,0.0186 -0.29046,-0.0416 z m -10.86303,-6.22124 10.83241,5.01775 2.22822,-10.61942 z m 8.34663,0.48416 -1.4229,-0.65912 3.38325,-3.58955 1.42291,0.65912 z m -0.89529,1.27634 q -0.15839,0.16804 -0.36912,0.27498 -0.20298,0.11047 -0.43662,0.1601 -0.21988,0.0468 -0.44929,0.0336 -0.22303,-0.0199 -0.41429,-0.10847 -0.19123,-0.0886 -0.30482,-0.22463 -0.10734,-0.14263 -0.1321,-0.3029 -0.0188,-0.16658 0.0465,-0.34082 0.0653,-0.17423 0.22376,-0.34232 0.15242,-0.16171 0.36144,-0.27857 0.20895,-0.1168 0.42899,-0.16363 0.22594,-0.0532 0.4552,-0.0399 0.22921,0.0134 0.42044,0.10195 0.19126,0.0886 0.29867,0.23115 0.10741,0.14255 0.12618,0.30921 0.0327,0.16361 -0.0388,0.34436 -0.0636,0.1841 -0.21608,0.3459 z" />
    <text
       transform="matrix(0.82013757,0.57216639,-0.82015187,0.64713127,0,0)"
       xml:space="preserve"
       style="font-size:6.35px;line-height:1.25;font-family:'Archivo Narrow';-inkscape-font-specification:'Archivo Narrow';letter-spacing:0px;word-spacing:0px;stroke-width:0.264583"
       x="168.60692"
       y="20.074924"
       id="text13627"><tspan
         sodipodi:role="line"
         id="tspan13625"
         x="168.60692"
         y="20.074924"
         style="font-style:normal;font-variant:normal;font-weight:normal;font-stretch:normal;font-family:'Archivo Black';-inkscape-font-specification:'Archivo Black, ';stroke-width:0.264583">1</tspan></text>
  </g>
</svg>
