<?xml version="1.0" encoding="UTF-8" standalone="no"?>
<!-- Created with Inkscape (http://www.inkscape.org/) -->

<svg
   xmlns:dc="http://purl.org/dc/elements/1.1/"
   xmlns:cc="http://creativecommons.org/ns#"
   xmlns:rdf="http://www.w3.org/1999/02/22-rdf-syntax-ns#"
   xmlns:svg="http://www.w3.org/2000/svg"
   xmlns="http://www.w3.org/2000/svg"
   xmlns:sodipodi="http://sodipodi.sourceforge.net/DTD/sodipodi-0.dtd"
   xmlns:inkscape="http://www.inkscape.org/namespaces/inkscape"
   width="9.9795475in"
   height="6.6896858in"
   viewBox="0 0 253.48051 169.91803"
   version="1.1"
   id="svg8"
   inkscape:version="0.92.1 r15371"
   sodipodi:docname="interlocking tiles 7.75x11.5 sheet 1 of 2.svg">
  <defs
     id="defs2">
    <pattern
       y="0"
       x="0"
       height="6"
       width="6"
       patternUnits="userSpaceOnUse"
       id="EMFhbasepattern" />
    <pattern
       y="0"
       x="0"
       height="6"
       width="6"
       patternUnits="userSpaceOnUse"
       id="EMFhbasepattern-6" />
  </defs>
  <sodipodi:namedview
     id="base"
     pagecolor="#ffffff"
     bordercolor="#666666"
     borderopacity="1.0"
     inkscape:pageopacity="0.0"
     inkscape:pageshadow="2"
     inkscape:zoom="0.49497475"
     inkscape:cx="55.517833"
     inkscape:cy="428.55248"
     inkscape:document-units="in"
     inkscape:current-layer="layer1"
     showgrid="false"
     units="in"
     inkscape:window-width="1600"
     inkscape:window-height="837"
     inkscape:window-x="-8"
     inkscape:window-y="-8"
     inkscape:window-maximized="1"
     showguides="false"
     inkscape:guide-bbox="true"
     inkscape:snap-intersection-paths="false"
     inkscape:snap-object-midpoints="true"
     inkscape:snap-others="true"
     inkscape:object-nodes="true"
     inkscape:snap-global="false"
     fit-margin-top="0"
     fit-margin-left="0"
     fit-margin-right="0"
     fit-margin-bottom="0">
    <sodipodi:guide
       position="12.988196,202.78208"
       orientation="0,1"
       id="guide4579"
       inkscape:locked="false" />
    <sodipodi:guide
       position="0.9276577,202.78208"
       orientation="1,0"
       id="guide4581"
       inkscape:locked="false" />
    <sodipodi:guide
       position="275.81437,202.78208"
       orientation="1,0"
       id="guide4583"
       inkscape:locked="false" />
    <sodipodi:guide
       position="264.45541,-21.022746"
       orientation="0,1"
       id="guide4585"
       inkscape:locked="false" />
    <sodipodi:guide
       position="224.96101,139.76444"
       orientation="1,0"
       id="guide5129"
       inkscape:locked="false" />
    <sodipodi:guide
       position="177.32554,140.67533"
       orientation="1,0"
       id="guide5131"
       inkscape:locked="false" />
    <sodipodi:guide
       position="129.99449,161.8288"
       orientation="1,0"
       id="guide5133"
       inkscape:locked="false" />
    <sodipodi:guide
       position="82.416734,177.7983"
       orientation="1,0"
       id="guide5135"
       inkscape:locked="false" />
    <sodipodi:guide
       position="34.971115,196.93556"
       orientation="1,0"
       id="guide5137"
       inkscape:locked="false" />
    <sodipodi:guide
       position="34.971114,169.67407"
       orientation="0,1"
       id="guide5139"
       inkscape:locked="false" />
    <sodipodi:guide
       position="38.335262,114.77077"
       orientation="0,1"
       id="guide5141"
       inkscape:locked="false" />
    <sodipodi:guide
       position="37.248579,59.96422"
       orientation="0,1"
       id="guide5143"
       inkscape:locked="false" />
    <sodipodi:guide
       position="38.051779,5.1576695"
       orientation="0,1"
       id="guide5145"
       inkscape:locked="false" />
    <sodipodi:guide
       position="188.10833,32.324709"
       orientation="0,1"
       id="guide5213"
       inkscape:locked="false" />
    <sodipodi:guide
       position="193.89626,87.38846"
       orientation="0,1"
       id="guide5215"
       inkscape:locked="false" />
    <sodipodi:guide
       position="187.28134,142.07849"
       orientation="0,1"
       id="guide5217"
       inkscape:locked="false" />
    <sodipodi:guide
       position="16.562926,-22.492729"
       orientation="0,1"
       id="guide4645"
       inkscape:locked="false" />
  </sodipodi:namedview>
  <metadata
     id="metadata5">
    <rdf:RDF>
      <cc:Work
         rdf:about="">
        <dc:format>image/svg+xml</dc:format>
        <dc:type
           rdf:resource="http://purl.org/dc/dcmitype/StillImage" />
        <dc:title></dc:title>
      </cc:Work>
    </rdf:RDF>
  </metadata>
  <g
     inkscape:label="front"
     inkscape:groupmode="layer"
     id="layer1"
     transform="translate(-1.2104985,-102.85198)"
     style="display:inline">
    <path
       style="opacity:1;fill:none;fill-opacity:1;fill-rule:nonzero;stroke:#ff0000;stroke-width:0.1763889;stroke-linecap:round;stroke-linejoin:round;stroke-miterlimit:4;stroke-dasharray:none;stroke-dashoffset:0;stroke-opacity:1"
       d="m 32.95463,102.94017 -0.0207,0.0346 -0.0191,-0.0341 -4.44727,2.56728 1.48724,2.57607 H 17.12923 l -6.42028,11.11973 h 2.95176 l -5.2e-4,5.13561 h -0.0393 l 0.0202,0.0346 -4.4483094,2.56677 -1.474839,-2.55437 -6.41925,11.11767 6.41976,11.1187 -3.00188,5.2e-4 -0.001,5.13509 h 0.0403 l -0.0202,0.0341 4.447269,2.5678 1.5012094,-2.59984 6.44611,11.1647 12.88862,5.1e-4 0.003,-0.005 -1.50223,-2.6019 4.44727,-2.56729 0.0196,0.0341 0.0202,-0.0346 4.44676,2.56832 -1.50172,2.60139 0.003,0.005 12.83694,5.2e-4 6.42287,-11.1249 1.48156,2.56573 4.44728,-2.56728 -0.0196,-0.0346 h 0.0393 v -5.13507 h -2.96364 l 6.42338,-11.12439 -6.42906,-11.13575 -1.46761,2.54144 -4.44676,-2.5678 0.0196,-0.0341 h -0.0403 l 0.001,-5.13561 h 2.93367 L 48.7912,108.08406 H 35.91447 l 1.48673,-2.57555 z"
       id="path4589"
       inkscape:connector-curvature="0" />
    <path
       inkscape:connector-curvature="0"
       id="path4617"
       d="m 80.44515,130.36644 -0.0207,0.0346 -0.0191,-0.0341 -4.44727,2.56728 1.48724,2.57607 H 64.61975 l -6.42028,11.11973 h 2.95176 l -5.2e-4,5.13561 h -0.0393 l 0.0202,0.0346 -4.44831,2.56677 -1.47484,-2.55437 -6.41925,11.11767 6.41976,11.1187 -3.00188,5.2e-4 -10e-4,5.13509 h 0.0403 l -0.0202,0.0341 4.44727,2.5678 1.50121,-2.59984 6.44611,11.1647 12.88862,5.1e-4 0.003,-0.005 -1.50223,-2.6019 4.44727,-2.56729 0.0196,0.0341 0.0202,-0.0346 4.44676,2.56832 -1.50172,2.60139 0.003,0.005 12.83694,5.2e-4 6.42286,-11.1249 1.48156,2.56573 4.44728,-2.56728 -0.0196,-0.0346 h 0.0393 v -5.13508 h -2.96364 l 6.42338,-11.12439 -6.42906,-11.13575 -1.46761,2.54144 -4.446757,-2.5678 0.0196,-0.0341 h -0.0403 l 10e-4,-5.13561 H 102.6839 L 96.28172,135.51033 H 83.40499 l 1.48673,-2.57555 z"
       style="opacity:1;fill:none;fill-opacity:1;fill-rule:nonzero;stroke:#ff0000;stroke-width:0.1763889;stroke-linecap:round;stroke-linejoin:round;stroke-miterlimit:4;stroke-dasharray:none;stroke-dashoffset:0;stroke-opacity:1" />
    <path
       inkscape:connector-curvature="0"
       id="path4625"
       d="m 32.95513,157.78227 -0.0207,0.0346 -0.0191,-0.0341 -4.44727,2.56728 1.48724,2.57607 H 17.12973 l -6.42028,11.11973 h 2.95176 l -5.2e-4,5.13561 h -0.0393 l 0.0202,0.0346 -4.4483094,2.56677 -1.474839,-2.55437 -6.41925,11.11767 6.41976,11.1187 -3.00188,5.2e-4 -10e-4,5.13509 h 0.0403 l -0.0202,0.0341 4.447269,2.5678 1.5012094,-2.59984 6.44611,11.1647 12.88862,5.1e-4 0.003,-0.005 -1.50223,-2.6019 4.44727,-2.56729 0.0196,0.0341 0.0202,-0.0346 4.44676,2.56832 -1.50172,2.60139 0.003,0.005 12.83694,5.2e-4 6.42287,-11.1249 1.48156,2.56573 4.44728,-2.56728 -0.0196,-0.0346 h 0.0393 v -5.13508 h -2.96364 l 6.42338,-11.12439 -6.42906,-11.13575 -1.46761,2.54144 -4.44676,-2.5678 0.0196,-0.0341 h -0.0403 l 10e-4,-5.13561 h 2.93367 L 48.7917,162.92615 H 35.91497 l 1.48673,-2.57555 z"
       style="opacity:1;fill:none;fill-opacity:1;fill-rule:nonzero;stroke:#ff0000;stroke-width:0.1763889;stroke-linecap:round;stroke-linejoin:round;stroke-miterlimit:4;stroke-dasharray:none;stroke-dashoffset:0;stroke-opacity:1" />
    <path
       style="opacity:1;fill:none;fill-opacity:1;fill-rule:nonzero;stroke:#ff0000;stroke-width:0.1763889;stroke-linecap:round;stroke-linejoin:round;stroke-miterlimit:4;stroke-dasharray:none;stroke-dashoffset:0;stroke-opacity:1"
       d="m 32.95563,212.6244 -0.0207,0.0346 -0.0191,-0.0341 -4.44727,2.56728 1.48724,2.57607 H 17.13023 l -6.42028,11.11973 h 2.95176 l -5.2e-4,5.13561 h -0.0393 l 0.0202,0.0346 -4.4483094,2.56677 -1.474839,-2.55437 -6.41925,11.11767 6.41976,11.1187 -3.00188,5.2e-4 -0.001,5.13509 h 0.0403 l -0.0202,0.0341 4.447269,2.5678 1.5012094,-2.59984 6.44611,11.1647 12.88862,5.1e-4 0.003,-0.005 -1.50223,-2.6019 4.44727,-2.56729 0.0196,0.0341 0.0202,-0.0346 4.44676,2.56832 -1.50172,2.60139 0.003,0.005 12.83694,5.2e-4 6.42287,-11.1249 1.48156,2.56573 4.44728,-2.56728 -0.0196,-0.0346 h 0.0393 v -5.13508 h -2.96364 l 6.42338,-11.12439 -6.42906,-11.13575 -1.46761,2.54144 -4.44676,-2.5678 0.0196,-0.0341 h -0.0403 l 10e-4,-5.13561 h 2.93367 L 48.7922,217.76828 H 35.91547 l 1.48673,-2.57555 z"
       id="path4633"
       inkscape:connector-curvature="0" />
    <path
       style="opacity:1;fill:none;fill-opacity:1;fill-rule:nonzero;stroke:#ff0000;stroke-width:0.1763889;stroke-linecap:round;stroke-linejoin:round;stroke-miterlimit:4;stroke-dasharray:none;stroke-dashoffset:0;stroke-opacity:1"
       d="m 80.44565,185.20855 -0.0207,0.0346 -0.0191,-0.0341 -4.44727,2.56728 1.48724,2.57607 H 64.62025 l -6.42028,11.11973 h 2.95176 l -5.2e-4,5.13561 h -0.0393 l 0.0202,0.0346 -4.44831,2.56677 -1.47484,-2.55437 -6.41925,11.11767 6.41976,11.1187 -3.00188,5.2e-4 -0.001,5.13509 h 0.0403 l -0.0202,0.0341 4.44727,2.5678 1.50121,-2.59984 6.44611,11.1647 12.88862,5.1e-4 0.003,-0.005 -1.50223,-2.6019 4.44727,-2.56729 0.0196,0.0341 0.0202,-0.0346 4.44676,2.56832 -1.50172,2.60139 0.003,0.005 12.83694,5.2e-4 6.42286,-11.1249 1.48156,2.56573 4.44728,-2.56728 -0.0196,-0.0346 h 0.0393 v -5.13508 h -2.96364 l 6.42338,-11.12439 -6.42906,-11.13575 -1.46761,2.54144 -4.446757,-2.5678 0.0196,-0.0341 h -0.0403 l 10e-4,-5.13561 H 102.6844 L 96.28222,190.35243 H 83.40549 l 1.48673,-2.57555 z"
       id="path4641"
       inkscape:connector-curvature="0" />
    <path
       inkscape:connector-curvature="0"
       id="path4649"
       d="m 127.94075,102.9418 -0.0207,0.0346 -0.0191,-0.0341 -4.44727,2.56728 1.48724,2.57607 h -12.82557 l -6.42028,11.11973 h 2.95176 l -5.2e-4,5.13561 h -0.0393 l 0.0202,0.0346 -4.44831,2.56677 -1.47484,-2.55437 -6.41924,11.11767 6.41975,11.1187 -3.001877,5.2e-4 -10e-4,5.13509 h 0.0403 l -0.0202,0.0341 4.447267,2.5678 1.50121,-2.59984 6.44611,11.1647 12.88862,5.1e-4 0.003,-0.005 -1.50223,-2.6019 4.44727,-2.56729 0.0196,0.0341 0.0202,-0.0346 4.44676,2.56832 -1.50172,2.60139 0.003,0.005 12.83694,5.2e-4 6.42287,-11.1249 1.48156,2.56573 4.44728,-2.56728 -0.0196,-0.0346 h 0.0393 v -5.13508 h -2.96364 l 6.42338,-11.12439 -6.42906,-11.13575 -1.46761,2.54144 -4.44676,-2.5678 0.0196,-0.0341 h -0.0403 l 10e-4,-5.13561 h 2.93367 l -6.40219,-11.08976 h -12.87673 l 1.48673,-2.57555 z"
       style="opacity:1;fill:none;fill-opacity:1;fill-rule:nonzero;stroke:#ff0000;stroke-width:0.1763889;stroke-linecap:round;stroke-linejoin:round;stroke-miterlimit:4;stroke-dasharray:none;stroke-dashoffset:0;stroke-opacity:1" />
    <path
       style="opacity:1;fill:none;fill-opacity:1;fill-rule:nonzero;stroke:#ff0000;stroke-width:0.1763889;stroke-linecap:round;stroke-linejoin:round;stroke-miterlimit:4;stroke-dasharray:none;stroke-dashoffset:0;stroke-opacity:1"
       d="m 127.94125,157.7839 -0.0207,0.0346 -0.0191,-0.0341 -4.44727,2.56728 1.48724,2.57607 h -12.82557 l -6.42028,11.11973 h 2.95176 l -5.2e-4,5.13561 h -0.0393 l 0.0202,0.0346 -4.44831,2.56677 -1.47484,-2.55437 -6.41924,11.11767 6.41975,11.1187 -3.001877,5.2e-4 -0.001,5.13509 h 0.0403 l -0.0202,0.0341 4.447267,2.5678 1.50121,-2.59984 6.44611,11.1647 12.88862,5.1e-4 0.003,-0.005 -1.50223,-2.6019 4.44727,-2.56729 0.0196,0.0341 0.0202,-0.0346 4.44676,2.56832 -1.50172,2.60139 0.003,0.005 12.83694,5.2e-4 6.42287,-11.1249 1.48156,2.56573 4.44728,-2.56728 -0.0196,-0.0346 h 0.0393 v -5.13508 h -2.96364 l 6.42338,-11.12439 -6.42906,-11.13575 -1.46761,2.54144 -4.44676,-2.5678 0.0196,-0.0341 h -0.0403 l 0.001,-5.13561 h 2.93367 l -6.40219,-11.08976 h -12.87673 l 1.48673,-2.57555 z"
       id="path4657"
       inkscape:connector-curvature="0" />
    <path
       inkscape:connector-curvature="0"
       id="path4665"
       d="m 127.94175,212.62601 -0.0207,0.0346 -0.0191,-0.0341 -4.44727,2.56728 1.48724,2.57607 h -12.82557 l -6.42028,11.11973 h 2.95176 l -5.2e-4,5.13561 h -0.0393 l 0.0202,0.0346 -4.44831,2.56677 -1.47484,-2.55437 -6.41924,11.11767 6.41975,11.1187 -3.001877,5.2e-4 -0.001,5.13509 h 0.0403 l -0.0202,0.0341 4.447267,2.5678 1.50121,-2.59984 6.44611,11.1647 12.88862,5.1e-4 0.003,-0.005 -1.50223,-2.6019 4.44727,-2.56729 0.0196,0.0341 0.0202,-0.0346 4.44676,2.56832 -1.50172,2.60139 0.003,0.005 12.83694,5.2e-4 6.42287,-11.1249 1.48156,2.56573 4.44728,-2.56728 -0.0196,-0.0346 h 0.0393 v -5.13508 h -2.96364 l 6.42338,-11.12439 -6.42906,-11.13575 -1.46761,2.54144 -4.44676,-2.5678 0.0196,-0.0341 h -0.0403 l 0.001,-5.13561 h 2.93367 l -6.40219,-11.08976 h -12.87673 l 1.48673,-2.57555 z"
       style="opacity:1;fill:none;fill-opacity:1;fill-rule:nonzero;stroke:#ff0000;stroke-width:0.1763889;stroke-linecap:round;stroke-linejoin:round;stroke-miterlimit:4;stroke-dasharray:none;stroke-dashoffset:0;stroke-opacity:1" />
    <path
       style="opacity:1;fill:none;fill-opacity:1;fill-rule:nonzero;stroke:#ff0000;stroke-width:0.1763889;stroke-linecap:round;stroke-linejoin:round;stroke-miterlimit:4;stroke-dasharray:none;stroke-dashoffset:0;stroke-opacity:1"
       d="m 175.42397,130.40214 -0.0207,0.0346 -0.0191,-0.0341 -4.44727,2.56728 1.48724,2.57607 h -12.82557 l -6.42028,11.11973 h 2.95176 l -5.2e-4,5.13561 h -0.0393 l 0.0202,0.0346 -4.44831,2.56677 -1.47484,-2.55437 -6.41925,11.11767 6.41976,11.1187 -3.00188,5.2e-4 -0.001,5.13509 h 0.0403 l -0.0202,0.0341 4.44727,2.5678 1.50121,-2.59984 6.44611,11.1647 12.88862,5.1e-4 0.003,-0.005 -1.50223,-2.6019 4.44727,-2.56729 0.0196,0.0341 0.0202,-0.0346 4.44676,2.56832 -1.50172,2.60139 0.003,0.005 12.83694,5.2e-4 6.42287,-11.1249 1.48156,2.56573 4.44728,-2.56728 -0.0196,-0.0346 h 0.0393 v -5.13508 h -2.96364 l 6.42338,-11.12439 -6.42906,-11.13575 -1.46761,2.54144 -4.44676,-2.5678 0.0196,-0.0341 h -0.0403 l 0.001,-5.13561 h 2.93367 l -6.40219,-11.08975 h -12.87673 l 1.48673,-2.57555 z"
       id="path4681"
       inkscape:connector-curvature="0" />
    <path
       inkscape:connector-curvature="0"
       id="path4689"
       d="m 175.42447,185.24424 -0.0207,0.0346 -0.0191,-0.0341 -4.44727,2.56728 1.48724,2.57607 h -12.82557 l -6.42028,11.11973 h 2.95176 l -5.2e-4,5.13561 h -0.0393 l 0.0202,0.0346 -4.44831,2.56677 -1.47484,-2.55437 -6.41925,11.11767 6.41976,11.1187 -3.00188,5.2e-4 -0.001,5.13509 h 0.0403 l -0.0202,0.0341 4.44727,2.5678 1.50121,-2.59984 6.44611,11.1647 12.88862,5.1e-4 0.003,-0.005 -1.50223,-2.6019 4.44727,-2.56729 0.0196,0.0341 0.0202,-0.0346 4.44676,2.56832 -1.50172,2.60139 0.003,0.005 12.83694,5.2e-4 6.42287,-11.1249 1.48156,2.56573 4.44728,-2.56728 -0.0196,-0.0346 h 0.0393 v -5.13508 h -2.96364 l 6.42338,-11.12439 -6.42906,-11.13575 -1.46761,2.54144 -4.44676,-2.5678 0.0196,-0.0341 h -0.0403 l 0.001,-5.13561 h 2.93367 l -6.40219,-11.08976 h -12.87673 l 1.48673,-2.57555 z"
       style="opacity:1;fill:none;fill-opacity:1;fill-rule:nonzero;stroke:#ff0000;stroke-width:0.1763889;stroke-linecap:round;stroke-linejoin:round;stroke-miterlimit:4;stroke-dasharray:none;stroke-dashoffset:0;stroke-opacity:1" />
    <path
       style="opacity:1;fill:none;fill-opacity:1;fill-rule:nonzero;stroke:#ff0000;stroke-width:0.1763889;stroke-linecap:round;stroke-linejoin:round;stroke-miterlimit:4;stroke-dasharray:none;stroke-dashoffset:0;stroke-opacity:1"
       d="m 222.93361,103.01162 -0.0207,0.0346 -0.0191,-0.0341 -4.44727,2.56728 1.48724,2.57607 h -12.82557 l -6.42028,11.11973 h 2.95176 l -5.2e-4,5.13561 h -0.0393 l 0.0202,0.0346 -4.44831,2.56677 -1.47484,-2.55437 -6.41925,11.11767 6.41976,11.1187 -3.00188,5.2e-4 -0.001,5.13509 h 0.0403 l -0.0202,0.0341 4.44727,2.5678 1.50121,-2.59984 6.44611,11.1647 12.88862,5.1e-4 0.003,-0.005 -1.50223,-2.6019 4.44727,-2.56729 0.0196,0.0341 0.0202,-0.0346 4.44676,2.56832 -1.50172,2.60139 0.003,0.005 12.83694,5.2e-4 6.42287,-11.1249 1.48156,2.56573 4.44728,-2.56728 -0.0196,-0.0346 h 0.0393 v -5.13508 h -2.96364 l 6.42338,-11.12439 -6.42906,-11.13575 -1.46761,2.54144 -4.44676,-2.5678 0.0196,-0.0341 h -0.0403 l 0.001,-5.13561 h 2.93367 l -6.40219,-11.08976 h -12.87673 l 1.48673,-2.57555 z"
       id="path4705"
       inkscape:connector-curvature="0" />
    <path
       inkscape:connector-curvature="0"
       id="path4727"
       d="m 222.93411,157.85372 -0.0207,0.0346 -0.0191,-0.0341 -4.44727,2.56728 1.48724,2.57607 h -12.82557 l -6.42028,11.11973 h 2.95176 l -5.2e-4,5.13561 h -0.0393 l 0.0202,0.0346 -4.44831,2.56677 -1.47484,-2.55437 -6.41925,11.11767 6.41976,11.1187 -3.00188,5.2e-4 -0.001,5.13509 h 0.0403 l -0.0202,0.0341 4.44727,2.5678 1.50121,-2.59984 6.44611,11.1647 12.88862,5.1e-4 0.003,-0.005 -1.50223,-2.6019 4.44727,-2.56729 0.0196,0.0341 0.0202,-0.0346 4.44676,2.56832 -1.50172,2.60139 0.003,0.005 12.83694,5.2e-4 6.42287,-11.1249 1.48156,2.56573 4.44728,-2.56728 -0.0196,-0.0346 h 0.0393 v -5.13508 h -2.96364 l 6.42338,-11.12439 -6.42906,-11.13575 -1.46761,2.54144 -4.44676,-2.5678 0.0196,-0.0341 h -0.0403 l 0.001,-5.13561 h 2.93367 l -6.40219,-11.08976 h -12.87673 l 1.48673,-2.57555 z"
       style="opacity:1;fill:none;fill-opacity:1;fill-rule:nonzero;stroke:#ff0000;stroke-width:0.1763889;stroke-linecap:round;stroke-linejoin:round;stroke-miterlimit:4;stroke-dasharray:none;stroke-dashoffset:0;stroke-opacity:1" />
    <path
       style="opacity:1;fill:none;fill-opacity:1;fill-rule:nonzero;stroke:#ff0000;stroke-width:0.1763889;stroke-linecap:round;stroke-linejoin:round;stroke-miterlimit:4;stroke-dasharray:none;stroke-dashoffset:0;stroke-opacity:1"
       d="m 222.93461,212.69583 -0.0207,0.0346 -0.0191,-0.0341 -4.44727,2.56728 1.48724,2.57607 h -12.82557 l -6.42028,11.11973 h 2.95176 l -5.2e-4,5.13561 h -0.0393 l 0.0202,0.0346 -4.44831,2.56677 -1.47484,-2.55437 -6.41925,11.11767 6.41976,11.1187 -3.00188,5.2e-4 -0.001,5.13509 h 0.0403 l -0.0202,0.0341 4.44727,2.5678 1.50121,-2.59984 6.44611,11.1647 12.88862,5.1e-4 0.003,-0.005 -1.50223,-2.6019 4.44727,-2.56729 0.0196,0.0341 0.0202,-0.0346 4.44676,2.56832 -1.50172,2.60139 0.003,0.005 12.83694,5.2e-4 6.42287,-11.1249 1.48156,2.56573 4.44728,-2.56728 -0.0196,-0.0346 h 0.0393 v -5.13508 h -2.96364 l 6.42338,-11.12439 -6.42906,-11.13575 -1.46761,2.54144 -4.44676,-2.5678 0.0196,-0.0341 h -0.0403 l 0.001,-5.13561 h 2.93367 l -6.40219,-11.08976 h -12.87673 l 1.48673,-2.57555 z"
       id="path4735"
       inkscape:connector-curvature="0" />
    <path
       inkscape:connector-curvature="0"
       style="fill:none;fill-opacity:1;stroke:#0000ff;stroke-width:0.17638889;stroke-linecap:round;stroke-linejoin:round;stroke-miterlimit:4;stroke-dasharray:none;stroke-opacity:1"
       d="m 220.43499,131.12664 0.004,0.007 c -0.88059,1.64652 -3.20291,3.13651 -3.3637,3.34614 3.62903,5.68163 5.37937,5.7752 8.58316,5.69424 l 0.004,0.006 c 0.001,-0.002 0.002,-0.005 0.004,-0.007 0.002,-1.4e-4 0.005,6e-4 0.008,-4e-5 l -0.004,-0.006 c 1.67201,-2.73409 2.46614,-4.29671 -0.63978,-10.28036 -0.26193,0.0344 -2.71346,1.30063 -4.57967,1.23998 l -0.004,-0.007 c -0.001,0.002 -0.002,0.004 -0.004,0.007 -0.002,1.3e-4 -0.004,2.7e-4 -0.008,4e-5 z"
       id="path5544" />
    <circle
       style="opacity:1;fill:none;fill-opacity:1;fill-rule:nonzero;stroke:#0000ff;stroke-width:0.17638892;stroke-linecap:round;stroke-linejoin:round;stroke-miterlimit:4;stroke-dasharray:none;stroke-dashoffset:0;stroke-opacity:1"
       id="path5123"
       cx="125.34598"
       cy="228.73618"
       r="9.4368057"
       transform="rotate(-30)" />
    <path
       inkscape:connector-curvature="0"
       style="fill:none;fill-opacity:1;stroke:#0000ff;stroke-width:0.17638889;stroke-linecap:round;stroke-linejoin:round;stroke-miterlimit:4;stroke-dasharray:none;stroke-opacity:1"
       d="m 30.445099,131.10454 0.004,0.007 c -0.880589,1.64651 -3.202905,3.1365 -3.363701,3.34613 3.629032,5.68163 5.379371,5.77521 8.583166,5.69424 l 0.0035,0.006 c 0.0012,-0.002 0.002,-0.005 0.0041,-0.007 0.0022,-1.3e-4 0.005,6e-4 0.0081,-3e-5 l -0.0035,-0.006 c 1.672014,-2.73408 2.466144,-4.29671 -0.639774,-10.28036 -0.261937,0.0344 -2.713459,1.30064 -4.579678,1.23999 l -0.004,-0.007 c -0.0012,0.002 -0.0025,0.004 -0.0041,0.007 -0.0022,1.3e-4 -0.0045,2.6e-4 -0.0081,3e-5 z"
       id="path5165" />
    <circle
       style="opacity:1;fill:none;fill-opacity:1;fill-rule:nonzero;stroke:#0000ff;stroke-width:0.17638892;stroke-linecap:round;stroke-linejoin:round;stroke-miterlimit:4;stroke-dasharray:none;stroke-dashoffset:0;stroke-opacity:1"
       id="circle5167"
       cx="-39.179031"
       cy="133.72209"
       r="9.4368057"
       transform="rotate(-30)" />
    <path
       id="path5171"
       d="m 125.46847,131.10454 0.004,0.007 c -0.88059,1.64651 -3.20291,3.1365 -3.36371,3.34613 3.62904,5.68163 5.37938,5.77521 8.58317,5.69424 l 0.004,0.006 c 0.001,-0.002 0.002,-0.005 0.004,-0.007 0.002,-1.3e-4 0.005,6e-4 0.008,-3e-5 l -0.004,-0.006 c 1.67201,-2.73408 2.46614,-4.29671 -0.63978,-10.28036 -0.26194,0.0344 -2.71346,1.30064 -4.57968,1.23999 l -0.004,-0.007 c -10e-4,0.002 -0.002,0.004 -0.004,0.007 -0.002,1.3e-4 -0.004,2.6e-4 -0.008,3e-5 z"
       style="fill:none;fill-opacity:1;stroke:#0000ff;stroke-width:0.17638889;stroke-linecap:round;stroke-linejoin:round;stroke-miterlimit:4;stroke-dasharray:none;stroke-opacity:1"
       inkscape:connector-curvature="0" />
    <circle
       r="9.4368057"
       cy="181.23378"
       cx="43.113628"
       id="circle5173"
       style="opacity:1;fill:none;fill-opacity:1;fill-rule:nonzero;stroke:#0000ff;stroke-width:0.17638892;stroke-linecap:round;stroke-linejoin:round;stroke-miterlimit:4;stroke-dasharray:none;stroke-dashoffset:0;stroke-opacity:1"
       transform="rotate(-30)" />
    <path
       id="path5177"
       d="m 125.46846,185.91109 0.004,0.007 c -0.88059,1.64652 -3.2029,3.13651 -3.3637,3.34614 3.62903,5.68163 5.37937,5.77521 8.58317,5.69424 l 0.004,0.006 c 0.001,-0.002 0.002,-0.005 0.004,-0.007 0.002,-1.3e-4 0.005,6e-4 0.008,-3e-5 l -0.004,-0.006 c 1.67202,-2.73408 2.46615,-4.29671 -0.63977,-10.28036 -0.26194,0.0344 -2.71346,1.30063 -4.57968,1.23999 l -0.004,-0.007 c -0.001,0.002 -0.002,0.004 -0.004,0.007 -0.002,1.4e-4 -0.004,2.7e-4 -0.008,4e-5 z"
       style="fill:none;fill-opacity:1;stroke:#0000ff;stroke-width:0.17638889;stroke-linecap:round;stroke-linejoin:round;stroke-miterlimit:4;stroke-dasharray:none;stroke-opacity:1"
       inkscape:connector-curvature="0" />
    <circle
       r="9.4368057"
       cy="228.69763"
       cx="15.710353"
       id="circle5179"
       style="opacity:1;fill:none;fill-opacity:1;fill-rule:nonzero;stroke:#0000ff;stroke-width:0.17638892;stroke-linecap:round;stroke-linejoin:round;stroke-miterlimit:4;stroke-dasharray:none;stroke-dashoffset:0;stroke-opacity:1"
       transform="rotate(-30)" />
    <path
       inkscape:connector-curvature="0"
       style="fill:none;fill-opacity:1;stroke:#0000ff;stroke-width:0.17638889;stroke-linecap:round;stroke-linejoin:round;stroke-miterlimit:4;stroke-dasharray:none;stroke-opacity:1"
       d="m 125.46847,240.71764 0.004,0.007 c -0.88059,1.64651 -3.20291,3.1365 -3.36371,3.34613 3.62904,5.68163 5.37938,5.77521 8.58317,5.69424 l 0.004,0.006 c 0.001,-0.002 0.002,-0.005 0.004,-0.007 0.002,-1.3e-4 0.005,6e-4 0.008,-3e-5 l -0.004,-0.006 c 1.67201,-2.73408 2.46614,-4.29671 -0.63978,-10.28036 -0.26194,0.0344 -2.71346,1.30064 -4.57968,1.23999 l -0.004,-0.007 c -10e-4,0.002 -0.002,0.004 -0.004,0.007 -0.002,1.3e-4 -0.004,2.6e-4 -0.008,3e-5 z"
       id="path5183" />
    <circle
       style="opacity:1;fill:none;fill-opacity:1;fill-rule:nonzero;stroke:#0000ff;stroke-width:0.17638892;stroke-linecap:round;stroke-linejoin:round;stroke-miterlimit:4;stroke-dasharray:none;stroke-dashoffset:0;stroke-opacity:1"
       id="circle5185"
       cx="-11.692925"
       cy="276.16153"
       r="9.4368057"
       transform="rotate(-30)" />
    <path
       id="path5189"
       d="m 30.445096,185.91109 0.004,0.007 c -0.880589,1.64652 -3.202906,3.13651 -3.363701,3.34614 3.629032,5.68163 5.379371,5.77521 8.583166,5.69424 l 0.0035,0.006 c 0.0012,-0.002 0.002,-0.005 0.0041,-0.007 0.0022,-1.3e-4 0.005,6e-4 0.0081,-4e-5 l -0.0035,-0.006 c 1.672015,-2.73408 2.466145,-4.29671 -0.639773,-10.28036 -0.261937,0.0344 -2.713459,1.30063 -4.579678,1.23999 l -0.004,-0.007 c -0.0012,0.002 -0.0025,0.004 -0.0041,0.007 -0.0022,1.4e-4 -0.0045,2.7e-4 -0.0081,4e-5 z"
       style="fill:none;fill-opacity:1;stroke:#0000ff;stroke-width:0.17638889;stroke-linecap:round;stroke-linejoin:round;stroke-miterlimit:4;stroke-dasharray:none;stroke-opacity:1"
       inkscape:connector-curvature="0" />
    <circle
       r="9.4368057"
       cy="181.18594"
       cx="-66.582314"
       id="circle5191"
       style="opacity:1;fill:none;fill-opacity:1;fill-rule:nonzero;stroke:#0000ff;stroke-width:0.17638892;stroke-linecap:round;stroke-linejoin:round;stroke-miterlimit:4;stroke-dasharray:none;stroke-dashoffset:0;stroke-opacity:1"
       transform="rotate(-30)" />
    <path
       inkscape:connector-curvature="0"
       style="fill:none;fill-opacity:1;stroke:#0000ff;stroke-width:0.17638889;stroke-linecap:round;stroke-linejoin:round;stroke-miterlimit:4;stroke-dasharray:none;stroke-opacity:1"
       d="m 30.445098,240.45038 0.004,0.007 c -0.880588,1.64652 -3.202905,3.13651 -3.363701,3.34614 3.629032,5.68163 5.379372,5.77521 8.583166,5.69424 l 0.0035,0.006 c 0.0012,-0.002 0.002,-0.005 0.0041,-0.007 0.0022,-1.3e-4 0.005,6e-4 0.0081,-4e-5 l -0.0035,-0.006 c 1.672015,-2.73408 2.466144,-4.29671 -0.639774,-10.28036 -0.261937,0.0344 -2.713459,1.30063 -4.579677,1.23999 l -0.004,-0.007 c -0.0012,0.002 -0.0025,0.004 -0.0041,0.007 -0.0022,1.4e-4 -0.0045,2.7e-4 -0.0081,4e-5 z"
       id="path5195" />
    <circle
       style="opacity:1;fill:none;fill-opacity:1;fill-rule:nonzero;stroke:#0000ff;stroke-width:0.17638892;stroke-linecap:round;stroke-linejoin:round;stroke-miterlimit:4;stroke-dasharray:none;stroke-dashoffset:0;stroke-opacity:1"
       id="circle5197"
       cx="-93.851952"
       cy="228.41837"
       r="9.4368057"
       transform="rotate(-30)" />
    <path
       id="path5201"
       d="m 220.43498,185.91109 0.004,0.007 c -0.88059,1.64652 -3.2029,3.13651 -3.3637,3.34614 3.62903,5.68163 5.37937,5.77521 8.58317,5.69424 l 0.004,0.006 c 0.001,-0.002 0.002,-0.005 0.004,-0.007 0.002,-1.3e-4 0.005,6e-4 0.008,-4e-5 l -0.004,-0.006 c 1.67202,-2.73408 2.46615,-4.29671 -0.63977,-10.28036 -0.26194,0.0344 -2.71346,1.30063 -4.57968,1.23999 l -0.004,-0.007 c -0.001,0.002 -0.002,0.004 -0.004,0.007 -0.002,1.4e-4 -0.004,2.7e-4 -0.008,4e-5 z"
       style="fill:none;fill-opacity:1;stroke:#0000ff;stroke-width:0.17638889;stroke-linecap:round;stroke-linejoin:round;stroke-miterlimit:4;stroke-dasharray:none;stroke-opacity:1"
       inkscape:connector-curvature="0" />
    <circle
       r="9.4368057"
       cy="276.18094"
       cx="97.953766"
       id="circle5203"
       style="opacity:1;fill:none;fill-opacity:1;fill-rule:nonzero;stroke:#0000ff;stroke-width:0.17638892;stroke-linecap:round;stroke-linejoin:round;stroke-miterlimit:4;stroke-dasharray:none;stroke-dashoffset:0;stroke-opacity:1"
       transform="rotate(-30)" />
    <path
       inkscape:connector-curvature="0"
       style="fill:none;fill-opacity:1;stroke:#0000ff;stroke-width:0.17638889;stroke-linecap:round;stroke-linejoin:round;stroke-miterlimit:4;stroke-dasharray:none;stroke-opacity:1"
       d="m 220.43499,240.71764 0.004,0.007 c -0.88059,1.64651 -3.20291,3.1365 -3.36371,3.34613 3.62904,5.68163 5.37938,5.77521 8.58317,5.69424 l 0.004,0.006 c 0.001,-0.002 0.002,-0.005 0.004,-0.007 0.002,-1.3e-4 0.005,6e-4 0.008,-3e-5 l -0.004,-0.006 c 1.67201,-2.73408 2.46614,-4.29671 -0.63978,-10.28036 -0.26194,0.0344 -2.71346,1.30064 -4.57968,1.23999 l -0.004,-0.007 c -0.001,0.002 -0.002,0.004 -0.004,0.007 -0.002,1.3e-4 -0.004,2.6e-4 -0.008,3e-5 z"
       id="path5207" />
    <circle
       style="opacity:1;fill:none;fill-opacity:1;fill-rule:nonzero;stroke:#0000ff;stroke-width:0.17638892;stroke-linecap:round;stroke-linejoin:round;stroke-miterlimit:4;stroke-dasharray:none;stroke-dashoffset:0;stroke-opacity:1"
       id="circle5209"
       cx="70.550484"
       cy="323.64481"
       r="9.4368057"
       transform="rotate(-30)" />
    <path
       id="path5225"
       d="m 172.79952,158.48685 0.004,0.007 c -0.88059,1.64651 -3.20291,3.1365 -3.3637,3.34613 3.62903,5.68163 5.37937,5.77521 8.58316,5.69424 l 0.003,0.006 c 0.001,-0.002 0.002,-0.005 0.004,-0.007 0.002,-1.3e-4 0.005,6e-4 0.008,-3e-5 l -0.004,-0.006 c 1.67201,-2.73408 2.46614,-4.29671 -0.63978,-10.28036 -0.26193,0.0344 -2.71346,1.30063 -4.57967,1.23999 l -0.004,-0.007 c -0.001,0.002 -0.002,0.004 -0.004,0.007 -0.002,1.4e-4 -0.004,2.7e-4 -0.008,4e-5 z"
       style="fill:none;fill-opacity:1;stroke:#0000ff;stroke-width:0.17638889;stroke-linecap:round;stroke-linejoin:round;stroke-miterlimit:4;stroke-dasharray:none;stroke-opacity:1"
       inkscape:connector-curvature="0" />
    <circle
       r="9.4368057"
       cy="228.61308"
       cx="70.412354"
       id="circle5227"
       style="opacity:1;fill:none;fill-opacity:1;fill-rule:nonzero;stroke:#0000ff;stroke-width:0.17638892;stroke-linecap:round;stroke-linejoin:round;stroke-miterlimit:4;stroke-dasharray:none;stroke-dashoffset:0;stroke-opacity:1"
       transform="rotate(-30)" />
    <path
       inkscape:connector-curvature="0"
       style="fill:none;fill-opacity:1;stroke:#0000ff;stroke-width:0.17638889;stroke-linecap:round;stroke-linejoin:round;stroke-miterlimit:4;stroke-dasharray:none;stroke-opacity:1"
       d="m 172.79952,213.5506 0.004,0.007 c -0.88059,1.64651 -3.20291,3.1365 -3.36371,3.34614 3.62904,5.68162 5.37938,5.7752 8.58317,5.69424 l 0.003,0.006 c 0.001,-0.002 0.002,-0.005 0.004,-0.007 0.002,-1.3e-4 0.005,6e-4 0.008,-3e-5 l -0.004,-0.006 c 1.67202,-2.73409 2.46615,-4.29672 -0.63977,-10.28036 -0.26194,0.0344 -2.71346,1.30063 -4.57968,1.23998 l -0.004,-0.007 c -0.001,0.002 -0.002,0.004 -0.004,0.007 -0.002,1.3e-4 -0.004,2.7e-4 -0.008,3e-5 z"
       id="path5231" />
    <circle
       style="opacity:1;fill:none;fill-opacity:1;fill-rule:nonzero;stroke:#0000ff;stroke-width:0.17638892;stroke-linecap:round;stroke-linejoin:round;stroke-miterlimit:4;stroke-dasharray:none;stroke-dashoffset:0;stroke-opacity:1"
       id="circle5233"
       cx="42.880489"
       cy="276.29971"
       r="9.4368057"
       transform="rotate(-30)" />
    <path
       id="path5237"
       d="m 77.890718,213.5506 0.004,0.007 c -0.880589,1.64652 -3.202906,3.13651 -3.363702,3.34614 3.629032,5.68163 5.379372,5.77521 8.583167,5.69424 l 0.0035,0.006 c 0.0012,-0.002 0.002,-0.005 0.0041,-0.007 0.0022,-1.3e-4 0.005,6e-4 0.0081,-3e-5 l -0.0035,-0.006 c 1.672015,-2.73408 2.466145,-4.29671 -0.639773,-10.28036 -0.261938,0.0344 -2.71346,1.30063 -4.579678,1.23999 l -0.004,-0.007 c -0.0012,0.002 -0.0025,0.004 -0.0041,0.007 -0.0022,1.4e-4 -0.0045,2.7e-4 -0.0081,4e-5 z"
       style="fill:none;fill-opacity:1;stroke:#0000ff;stroke-width:0.17638889;stroke-linecap:round;stroke-linejoin:round;stroke-miterlimit:4;stroke-dasharray:none;stroke-opacity:1"
       inkscape:connector-curvature="0" />
    <circle
       r="9.4368057"
       cy="228.84528"
       cx="-39.31295"
       id="circle5239"
       style="opacity:1;fill:none;fill-opacity:1;fill-rule:nonzero;stroke:#0000ff;stroke-width:0.17638892;stroke-linecap:round;stroke-linejoin:round;stroke-miterlimit:4;stroke-dasharray:none;stroke-dashoffset:0;stroke-opacity:1"
       transform="rotate(-30)" />
    <path
       inkscape:connector-curvature="0"
       style="fill:none;fill-opacity:1;stroke:#0000ff;stroke-width:0.17638889;stroke-linecap:round;stroke-linejoin:round;stroke-miterlimit:4;stroke-dasharray:none;stroke-opacity:1"
       d="m 77.89072,158.48684 0.004,0.007 c -0.880589,1.64652 -3.202906,3.13651 -3.363702,3.34614 3.629032,5.68163 5.379372,5.77521 8.583167,5.69424 l 0.0035,0.006 c 0.0012,-0.002 0.002,-0.005 0.0041,-0.007 0.0022,-1.3e-4 0.005,6e-4 0.0081,-4e-5 l -0.0035,-0.006 c 1.672015,-2.73408 2.466145,-4.29671 -0.639773,-10.28036 -0.261938,0.0344 -2.713459,1.30063 -4.579678,1.23999 l -0.004,-0.007 c -0.0012,0.002 -0.0025,0.004 -0.0041,0.007 -0.0022,1.4e-4 -0.0045,2.7e-4 -0.0081,4e-5 z"
       id="path5243" />
    <circle
       style="opacity:1;fill:none;fill-opacity:1;fill-rule:nonzero;stroke:#0000ff;stroke-width:0.17638892;stroke-linecap:round;stroke-linejoin:round;stroke-miterlimit:4;stroke-dasharray:none;stroke-dashoffset:0;stroke-opacity:1"
       id="circle5245"
       cx="-11.781075"
       cy="181.15868"
       r="9.4368057"
       transform="rotate(-30)" />
    <circle
       transform="rotate(-30)"
       style="display:inline;opacity:1;fill:none;fill-opacity:1;fill-rule:nonzero;stroke:#ff0000;stroke-width:0.17638892;stroke-linecap:round;stroke-linejoin:round;stroke-miterlimit:4;stroke-dasharray:none;stroke-dashoffset:0;stroke-opacity:1"
       id="circle5754"
       cx="23.095039"
       cy="312.23517"
       r="9.4368057" />
    <circle
       r="9.4368057"
       cy="260.25247"
       cx="-65.42971"
       id="circle5760"
       style="display:inline;opacity:1;fill:none;fill-opacity:1;fill-rule:nonzero;stroke:#ff0000;stroke-width:0.17638892;stroke-linecap:round;stroke-linejoin:round;stroke-miterlimit:4;stroke-dasharray:none;stroke-dashoffset:0;stroke-opacity:1"
       transform="rotate(-30)" />
    <circle
       transform="rotate(-30)"
       style="display:inline;opacity:1;fill:none;fill-opacity:1;fill-rule:nonzero;stroke:#ff0000;stroke-width:0.17638892;stroke-linecap:round;stroke-linejoin:round;stroke-miterlimit:4;stroke-dasharray:none;stroke-dashoffset:0;stroke-opacity:1"
       id="circle5762"
       cx="86.136444"
       cy="184.00345"
       r="9.4368057" />
    <circle
       r="9.4368057"
       cy="145.39505"
       cx="23.873533"
       id="circle5764"
       style="display:inline;opacity:1;fill:none;fill-opacity:1;fill-rule:nonzero;stroke:#ff0000;stroke-width:0.17638892;stroke-linecap:round;stroke-linejoin:round;stroke-miterlimit:4;stroke-dasharray:none;stroke-dashoffset:0;stroke-opacity:1"
       transform="rotate(-30)" />
    <circle
       transform="rotate(-30)"
       style="display:inline;opacity:1;fill:none;fill-opacity:1;fill-rule:nonzero;stroke:#ff0000;stroke-width:0.17638892;stroke-linecap:round;stroke-linejoin:round;stroke-miterlimit:4;stroke-dasharray:none;stroke-dashoffset:0;stroke-opacity:1"
       id="circle5766"
       cx="3.8627951"
       cy="137.3756"
       r="9.4368057" />
    <circle
       r="9.4368057"
       cy="194.11171"
       cx="104.40045"
       id="circle5768"
       style="display:inline;opacity:1;fill:none;fill-opacity:1;fill-rule:nonzero;stroke:#ff0000;stroke-width:0.17638892;stroke-linecap:round;stroke-linejoin:round;stroke-miterlimit:4;stroke-dasharray:none;stroke-dashoffset:0;stroke-opacity:1"
       transform="rotate(-30)" />
  </g>
</svg>
