<?xml version="1.0" encoding="UTF-8" standalone="no"?>
<!-- Created with Inkscape (http://www.inkscape.org/) -->

<svg
   xmlns:dc="http://purl.org/dc/elements/1.1/"
   xmlns:cc="http://creativecommons.org/ns#"
   xmlns:rdf="http://www.w3.org/1999/02/22-rdf-syntax-ns#"
   xmlns:svg="http://www.w3.org/2000/svg"
   xmlns="http://www.w3.org/2000/svg"
   xmlns:sodipodi="http://sodipodi.sourceforge.net/DTD/sodipodi-0.dtd"
   xmlns:inkscape="http://www.inkscape.org/namespaces/inkscape"
   width="375"
   height="375"
   viewBox="0 0 375 375.00001"
   id="svg5125"
   version="1.1"
   inkscape:version="0.92.0 r15299"
   sodipodi:docname="art_fakestrawberry.svg">
  <defs
     id="defs5127">
    <filter
       inkscape:menu="Textures"
       inkscape:label="Watercolor"
       inkscape:menu-tooltip="Cloudy watercolor effect"
       height="2"
       y="-0.5"
       width="1.6"
       x="-0.3"
       style="color-interpolation-filters:sRGB;"
       id="filter7274">
      <feGaussianBlur
         stdDeviation="15"
         result="result8"
         id="feGaussianBlur7276" />
      <feTurbulence
         seed="27"
         result="result7"
         type="fractalNoise"
         numOctaves="5"
         baseFrequency="0.025"
         id="feTurbulence7278" />
      <feComposite
         in2="result8"
         result="result6"
         operator="over"
         in="result7"
         id="feComposite7280" />
      <feColorMatrix
         result="result9"
         values="1 0 0 0 0 0 1 0 0 0 0 0 1 0 0 0 0 0 6 -4 "
         id="feColorMatrix7282" />
      <feDisplacementMap
         in="result7"
         in2="result9"
         xChannelSelector="A"
         yChannelSelector="A"
         scale="45"
         result="result4"
         id="feDisplacementMap7284" />
      <feComposite
         in2="result4"
         result="result2"
         operator="in"
         in="result8"
         id="feComposite7286" />
      <feComposite
         result="fbSourceGraphic"
         in="result2"
         operator="in"
         in2="result9"
         id="feComposite7288" />
      <feComposite
         operator="arithmetic"
         k2="1"
         k1="0.5"
         in="fbSourceGraphic"
         in2="fbSourceGraphic"
         result="result91"
         id="feComposite7290" />
      <feBlend
         in="fbSourceGraphic"
         mode="multiply"
         in2="result91"
         id="feBlend7292" />
    </filter>
    <filter
       x="-0.25"
       width="1.5"
       y="-0.25"
       height="1.5"
       inkscape:menu-tooltip="Thick acrylic paint texture with high texture depth"
       inkscape:menu="Bumps"
       inkscape:label="Thick Acrylic"
       style="color-interpolation-filters:sRGB;"
       id="filter7314">
      <feGaussianBlur
         result="result9"
         in="SourceGraphic"
         stdDeviation="1"
         id="feGaussianBlur7316" />
      <feTurbulence
         baseFrequency="0.02"
         numOctaves="5"
         type="fractalNoise"
         result="result7"
         seed="0"
         id="feTurbulence7318" />
      <feColorMatrix
         values="1 0 0 0 0 0 1 0 0 0 0 0 1 0 0 0 0 0 1 0 "
         result="result5"
         id="feColorMatrix7320" />
      <feComposite
         in="result9"
         operator="out"
         result="result6"
         in2="result5"
         id="feComposite7322" />
      <feGaussianBlur
         stdDeviation="0.5"
         result="result11"
         id="feGaussianBlur7324" />
      <feDisplacementMap
         result="result4"
         scale="100"
         yChannelSelector="G"
         xChannelSelector="A"
         in2="result11"
         in="result5"
         id="feDisplacementMap7326" />
      <feComposite
         in="result9"
         operator="in"
         result="result2"
         in2="result4"
         id="feComposite7328" />
      <feComposite
         in2="SourceGraphic"
         operator="in"
         result="fbSourceGraphic"
         id="feComposite7330" />
      <feBlend
         mode="multiply"
         result="fbSourceGraphic"
         in2="fbSourceGraphic"
         id="feBlend7332" />
      <feDiffuseLighting
         diffuseConstant="0.7"
         surfaceScale="10"
         in="fbSourceGraphic"
         result="result10"
         id="feDiffuseLighting7334">
        <feDistantLight
           elevation="25"
           azimuth="235"
           id="feDistantLight7336" />
      </feDiffuseLighting>
      <feComposite
         operator="in"
         result="result2"
         in="result10"
         in2="fbSourceGraphic"
         id="feComposite7338" />
      <feComposite
         k3="1"
         k2="1"
         operator="arithmetic"
         result="result4"
         in="fbSourceGraphic"
         in2="result2"
         id="feComposite7340" />
    </filter>
    <filter
       inkscape:menu-tooltip="3D warped, fibered wood texture"
       inkscape:menu="Materials"
       inkscape:label="3D Wood"
       height="1.5"
       y="-0.25"
       width="1.5"
       x="-0.25"
       style="color-interpolation-filters:sRGB;"
       id="filter7426">
      <feGaussianBlur
         result="result8"
         stdDeviation="4"
         id="feGaussianBlur7428" />
      <feTurbulence
         baseFrequency="0.025 0.2"
         numOctaves="3"
         type="fractalNoise"
         result="result7"
         seed="22"
         id="feTurbulence7430" />
      <feComposite
         in2="result8"
         operator="in"
         in="SourceGraphic"
         result="result6"
         id="feComposite7432" />
      <feDisplacementMap
         in2="result6"
         result="result4"
         scale="50"
         yChannelSelector="A"
         xChannelSelector="A"
         in="result7"
         id="feDisplacementMap7434" />
      <feFlood
         flood-color="rgb(230,211,138)"
         flood-opacity="1"
         id="feFlood7436" />
      <feComposite
         in2="result4"
         operator="atop"
         result="result2"
         id="feComposite7438" />
      <feComposite
         in2="SourceGraphic"
         operator="atop"
         in="result2"
         result="result9"
         id="feComposite7440" />
      <feGaussianBlur
         result="result0"
         in="result9"
         stdDeviation="8"
         id="feGaussianBlur7442" />
      <feSpecularLighting
         specularExponent="15"
         specularConstant="0.7"
         surfaceScale="5"
         lighting-color="rgb(255,255,255)"
         result="result1"
         in="result0"
         id="feSpecularLighting7444">
        <feDistantLight
           azimuth="235"
           elevation="50"
           id="feDistantLight7446" />
      </feSpecularLighting>
      <feComposite
         operator="in"
         result="result2"
         in="result1"
         in2="result9"
         id="feComposite7448" />
      <feComposite
         k3="0.5"
         k2="0.5"
         operator="arithmetic"
         result="result4"
         in="result9"
         in2="result2"
         id="feComposite7450" />
      <feConvolveMatrix
         order="3 3"
         kernelMatrix="2 0 0 0 2 0 0 0 -2 "
         targetX="2"
         targetY="2"
         result="result10"
         id="feConvolveMatrix7452" />
      <feBlend
         mode="multiply"
         in="result10"
         in2="result10"
         id="feBlend7454" />
    </filter>
  </defs>
  <sodipodi:namedview
     id="base"
     pagecolor="#ffffff"
     bordercolor="#666666"
     borderopacity="1.0"
     inkscape:pageopacity="0.0"
     inkscape:pageshadow="2"
     inkscape:zoom="0.98994949"
     inkscape:cx="-67.159597"
     inkscape:cy="114.19136"
     inkscape:document-units="px"
     inkscape:current-layer="layer1"
     showgrid="false"
     units="px"
     inkscape:window-width="1920"
     inkscape:window-height="1017"
     inkscape:window-x="-8"
     inkscape:window-y="-8"
     inkscape:window-maximized="1" />
  <metadata
     id="metadata5130">
    <rdf:RDF>
      <cc:Work
         rdf:about="">
        <dc:format>image/svg+xml</dc:format>
        <dc:type
           rdf:resource="http://purl.org/dc/dcmitype/StillImage" />
        <dc:title></dc:title>
      </cc:Work>
    </rdf:RDF>
  </metadata>
  <g
     inkscape:label="Layer 1"
     inkscape:groupmode="layer"
     id="layer1"
     transform="translate(0,-677.36216)">
    <path
       style="fill:#000000"
       inkscape:connector-curvature="0"
       d="m 239.58216,757.28343 c -1.44037,0.0353 -2.94666,0.55399 -4.23612,1.7126 L 216.87427,781.638 c 3.92809,1.74173 8.23918,1.76943 12.84304,1.70734 5.71661,-7.85424 12.05407,-16.43059 13.34353,-17.64172 4.56851,-4.28722 0.84388,-8.52573 -3.47868,-8.42066 z m -51.00248,13.11526 c -0.47854,0.006 -1.04208,0.0296 -1.66914,0.0764 -2.50633,0.18625 -6.04232,0.71398 -10.1428,1.49243 -8.20098,1.55595 -18.72202,4.09762 -29.04822,6.78925 -15.51413,4.04508 -27.76831,7.61116 -34.31686,9.54009 0.99002,0.66957 2.11329,1.29902 3.54172,1.84823 3.87937,1.49339 9.33522,2.34396 15.82694,2.39744 12.98535,0.10794 30.04445,-2.88457 47.69669,-8.20145 l 4.11673,7.30886 c -9.86581,8.88295 -12.2623,16.03708 -12.28952,21.01822 -0.0272,4.98114 2.8306,8.4197 3.48488,8.89489 5.02508,3.65586 11.90794,3.39892 20.42602,-0.0525 8.51857,-3.45289 18.01282,-10.06831 26.48649,-17.55578 l 4.40327,-3.88987 2.375,5.37419 c 6.14356,13.90707 12.07938,26.51657 19.33714,34.67695 6.23717,7.01228 12.97436,10.93319 22.76997,10.62611 -4.20555,-13.12194 -6.67463,-22.73129 -10.24883,-30.66673 -4.04365,-8.97656 -9.57066,-16.45734 -21.89409,-26.68229 -1.53876,-1.27609 -4.53699,-1.52204 -9.29845,-1.4547 -4.7605,0.0678 -10.87732,0.27461 -17.08297,-2.58848 -6.78639,-3.13004 -10.37777,-6.33937 -13.20169,-9.42069 -2.73987,-2.98964 -4.83644,-5.68557 -9.85244,-9.43122 -0.0736,-0.0272 -0.0955,-0.0525 -0.26458,-0.0669 -0.28511,-0.0248 -0.67816,-0.0368 -1.15574,-0.031 z m -19.43075,25.90192 c -9.22585,2.2088 -18.10499,3.72988 -26.25725,4.41951 -0.0764,0.46993 -0.17431,0.94751 -0.30421,1.42986 -1.14333,4.24806 -3.9916,7.17514 -6.36135,6.53805 -2.12665,-0.57309 -3.14007,-3.82254 -2.50107,-7.5529 -0.34147,0 -0.68628,0.005 -1.02393,0 -4.54559,-0.0382 -8.76356,-0.40117 -12.59708,-1.18201 -1.91986,2.28378 -3.71938,4.71704 -5.3632,7.32128 -3.44334,5.45585 -4.27672,12.6391 -5.74384,19.74881 0.245,-0.074 0.48713,-0.11701 0.72449,-0.12895 0.26124,-0.01 0.51578,0.0191 0.7603,0.085 2.36975,0.63805 3.36406,4.59908 2.22074,8.84714 -1.1161,4.13726 -3.8574,7.03807 -6.20469,6.56479 -2.62477,21.01583 -2.77951,44.47686 -2.89795,66.28308 -0.13993,25.91816 -2.26611,47.53669 12.87551,61.66298 40.92463,11.50008 93.71803,-26.37473 125.11928,-58.3634 -1.13855,0.36153 -2.15484,0.28512 -2.91132,-0.21873 -2.04117,-1.36348 -1.71451,-5.43484 0.72831,-9.09309 1.82435,-2.73174 4.39849,-4.55896 6.48073,-4.60003 0.62563,-0.0124 1.18153,0.1385 1.63953,0.44415 1.52682,1.02393 1.76704,3.62959 0.60652,6.55333 11.20399,-12.29764 18.62316,-23.01832 20.12897,-28.64514 0.97665,-5.97451 1.15096,-11.69876 0.69535,-17.16512 -0.59697,-0.0334 -1.19012,-0.075 -1.77516,-0.13515 -0.0965,1.45422 -0.54539,3.09852 -1.36682,4.7199 -1.9896,3.92378 -5.37658,6.20518 -7.5658,5.09576 -2.18874,-1.11037 -2.35064,-5.19032 -0.362,-9.1141 0.44414,-0.87683 0.96471,-1.67439 1.52825,-2.37595 -4.20412,-1.40743 -8.01233,-3.55796 -11.43036,-6.28159 0.57883,1.89599 -0.0697,4.79202 -1.85921,7.47076 -2.44281,3.65825 -6.07814,5.51841 -8.11883,4.15493 -2.04165,-1.36301 -1.71546,-5.43389 0.72831,-9.09214 1.82435,-2.7327 4.39849,-4.55943 6.48073,-4.60051 0.13086,-0.005 0.25694,0.006 0.38207,0.0172 -1.11945,-1.03396 -2.19352,-2.13 -3.21888,-3.28335 -6.12972,-6.89146 -10.94036,-15.68367 -15.44488,-25.22807 -1.30856,1.76226 -2.93376,2.70882 -4.38273,2.31864 -1.74412,-0.46898 -2.73939,-2.73986 -2.6902,-5.59817 -6.59392,5.02508 -13.51738,9.3548 -20.43319,12.15771 -0.005,0 -0.01,0.005 -0.0143,0.005 -1.19395,4.08664 -3.95817,6.86614 -6.27251,6.24386 -1.31143,-0.35341 -2.1983,-1.72692 -2.53833,-3.60094 -7.10732,1.35155 -14.08092,0.61226 -19.88636,-3.61049 -3.35451,-2.44042 -6.4688,-7.17896 -6.95163,-13.92952 -1.35298,2.0383 -3.12145,3.17589 -4.68504,2.75562 -2.3707,-0.63756 -3.36549,-4.59907 -2.22217,-8.84761 1.00769,-3.74421 3.37313,-6.53948 5.60295,-6.62162 0.26123,-0.01 0.51578,0.0181 0.7603,0.0841 0.90167,0.24261 1.60275,0.96853 2.06409,2.00583 0.8754,-2.46287 2.13669,-5.02651 3.85788,-7.66131 z m -24.68411,16.19467 c 0.26124,-0.01 0.51579,0.0191 0.75935,0.085 2.37022,0.63805 3.36454,4.59908 2.22074,8.84714 -1.14284,4.24758 -3.99112,7.17465 -6.36134,6.53709 -2.36974,-0.63805 -3.36406,-4.59908 -2.22074,-8.84714 1.00769,-3.74421 3.37266,-6.53995 5.60199,-6.62257 z m -16.90531,2.05741 c 0.26076,-0.01 0.51483,0.0191 0.75935,0.085 2.37022,0.63757 3.36502,4.59908 2.2217,8.84761 -1.14333,4.24806 -3.99113,7.17514 -6.36135,6.53805 -2.37022,-0.63805 -3.36501,-4.59908 -2.22169,-8.84762 1.00769,-3.74421 3.3717,-6.54043 5.60199,-6.62305 z m 89.84201,6.65266 c 0.26028,-0.01 0.51435,0.0191 0.75935,0.0841 2.36879,0.63804 3.36358,4.59908 2.22074,8.84713 -1.14332,4.24854 -3.9916,7.17562 -6.36134,6.53805 -2.37022,-0.63852 -3.36454,-4.59908 -2.22074,-8.84761 1.00769,-3.74422 3.3717,-6.53948 5.60199,-6.6221 z m -64.51269,9.0119 c 0.26075,-0.01 0.51483,0.0191 0.75935,0.0845 2.37069,0.63804 3.36549,4.59907 2.22169,8.84856 -1.1438,4.24902 -3.99255,7.17562 -6.36277,6.53709 -2.36975,-0.63852 -3.36407,-4.59907 -2.22074,-8.84761 1.00769,-3.74421 3.37265,-6.539 5.60199,-6.62162 z m 21.12519,4.45915 c 0.26171,-0.01 0.51578,0.0191 0.75935,0.086 2.37118,0.63708 3.36597,4.59812 2.22265,8.84665 -1.1438,4.24902 -3.99256,7.17562 -6.36278,6.53709 -2.36878,-0.63852 -3.36358,-4.59907 -2.22073,-8.84761 1.00769,-3.74421 3.37313,-6.539 5.60199,-6.62162 z m 32.16823,4.65305 c 0.26076,-0.01 0.51483,0.0191 0.75935,0.0841 2.37022,0.63709 3.36502,4.59812 2.2217,8.84714 -1.1438,4.24901 -3.99256,7.17608 -6.36278,6.53804 -2.36974,-0.639 -3.36406,-4.59908 -2.22074,-8.84761 1.00769,-3.74422 3.37171,-6.53996 5.602,-6.62258 z m 18.80847,0.85008 c 0.26123,-0.01 0.51578,0.0191 0.7603,0.0845 2.36974,0.63852 3.36406,4.59907 2.22074,8.84761 -1.14332,4.24806 -3.99112,7.17513 -6.36134,6.53804 -2.3707,-0.63804 -3.3655,-4.59907 -2.22217,-8.84761 1.00769,-3.74421 3.3717,-6.53995 5.60199,-6.62258 z m -94.3962,1.42319 c 0.26076,-0.01 0.51579,0.0181 0.75935,0.084 2.3707,0.63757 3.36502,4.59908 2.22169,8.84761 -1.14379,4.24806 -3.99159,7.17466 -6.36134,6.5371 -2.37069,-0.63757 -3.36549,-4.59908 -2.22217,-8.84762 1.00769,-3.74421 3.37266,-6.539 5.60199,-6.62162 z m 57.87054,9.0119 c 0.26076,-0.01 0.51578,0.0191 0.75935,0.086 2.37022,0.63757 3.36454,4.59908 2.22074,8.84666 -1.14237,4.24854 -3.99065,7.17561 -6.36134,6.53805 -2.36975,-0.63757 -3.36454,-4.59908 -2.22074,-8.84762 1.00673,-3.74421 3.3717,-6.53948 5.60199,-6.6221 z m -75.42201,7.11591 c 0.26075,-0.01 0.51483,0.0191 0.75935,0.0845 2.37022,0.63757 3.36501,4.59908 2.22169,8.84762 -1.14332,4.24806 -3.9916,7.17513 -6.36134,6.53804 -2.3707,-0.63804 -3.3655,-4.59907 -2.22217,-8.84761 1.00769,-3.74421 3.37265,-6.53996 5.60199,-6.62258 z m 100.17011,2.83204 c 0.26076,-0.01 0.51483,0.0191 0.75935,0.0845 2.37022,0.63757 3.36502,4.59908 2.22169,8.84714 -1.14332,4.24901 -3.99255,7.17657 -6.36229,6.53804 -2.37022,-0.63852 -3.36454,-4.59907 -2.22074,-8.84713 1.00769,-3.74421 3.3717,-6.53948 5.60199,-6.6221 z m -51.73366,1.29233 c 2.45141,0.12703 4.25331,3.79197 4.02408,8.18664 -0.22829,4.39372 -2.40127,7.85234 -4.8522,7.72435 -2.45188,-0.12751 -4.25379,-3.79292 -4.02455,-8.18712 0.22924,-4.39372 2.40222,-7.85234 4.85315,-7.72435 z m -21.81577,5.32882 c 0.26171,-0.01 0.51579,0.0191 0.76078,0.0845 2.36975,0.63852 3.36406,4.59907 2.22074,8.84761 -1.14332,4.24854 -3.9916,7.17561 -6.36134,6.53805 -2.3707,-0.63709 -3.36597,-4.59908 -2.22217,-8.8481 1.00769,-3.74421 3.37266,-6.53947 5.60199,-6.62162 z m 94.15454,3.37647 c 0.62563,-0.0124 1.18201,0.1385 1.64048,0.44415 2.04117,1.36301 1.71451,5.43484 -0.72974,9.09309 -2.44329,3.65825 -6.07861,5.51889 -8.11978,4.15588 -2.04117,-1.36348 -1.71451,-5.43483 0.72878,-9.09308 1.82435,-2.73175 4.3985,-4.55897 6.48074,-4.60004 z m 22.8311,3.18449 c 0.48618,0.0205 0.92651,0.14901 1.30618,0.38207 2.09418,1.27991 1.93228,5.36033 -0.362,9.11458 -2.29381,3.75472 -5.85177,5.76054 -7.94595,4.47968 -2.09466,-1.27991 -1.93276,-5.36034 0.36105,-9.1141 1.71355,-2.80339 4.21128,-4.7328 6.2897,-4.85793 0.1194,-0.008 0.2364,-0.009 0.35102,-0.005 z m -76.41012,2.43756 c 0.26076,-0.01 0.51483,0.0191 0.75935,0.0845 2.37022,0.63757 3.36502,4.59908 2.2217,8.84762 -1.14333,4.24853 -3.99256,7.17609 -6.3623,6.53804 -2.37022,-0.639 -3.36454,-4.59907 -2.22074,-8.84761 1.00769,-3.74421 3.3717,-6.53948 5.60199,-6.6221 z m 23.21985,4.78772 c 0.62563,-0.0124 1.18105,0.1385 1.63905,0.44415 2.04117,1.36397 1.71546,5.43484 -0.7283,9.09309 -2.44377,3.65921 -6.07957,5.51985 -8.12074,4.15684 -2.04117,-1.36396 -1.71451,-5.43579 0.72926,-9.09404 1.82435,-2.73175 4.39849,-4.55896 6.48073,-4.60051 z m -87.89158,4.93434 c 0.26124,-0.01 0.51579,0.0181 0.75935,0.0841 2.3707,0.63709 3.3655,4.59907 2.22217,8.84713 -1.14332,4.24902 -3.99255,7.17609 -6.36229,6.53805 -2.36974,-0.63852 -3.36406,-4.59908 -2.22074,-8.84762 1.00769,-3.74421 3.37266,-6.53947 5.60199,-6.62162 z m 105.40438,4.55132 c 0.62562,-0.0129 1.18152,0.13755 1.63952,0.44415 2.04069,1.36301 1.71451,5.43484 -0.72974,9.09309 -2.44377,3.65825 -6.07861,5.51841 -8.11978,4.15493 -2.04117,-1.36253 -1.71451,-5.43341 0.7283,-9.09213 1.82531,-2.73318 4.3985,-4.55992 6.48074,-4.60099 z m -62.6277,0.47901 c 0.26028,-0.01 0.51435,0.0191 0.75935,0.085 2.36974,0.63757 3.36454,4.59908 2.22074,8.84714 -1.14284,4.24901 -3.9916,7.17609 -6.36134,6.53804 -2.37022,-0.63852 -3.36454,-4.59907 -2.22074,-8.84761 1.00673,-3.74421 3.3717,-6.53996 5.60199,-6.62258 z m -25.08622,2.82249 c 0.26075,-0.01 0.51482,0.0191 0.75934,0.085 2.37023,0.63757 3.36502,4.59908 2.2217,8.84714 -1.1438,4.24901 -3.99256,7.17561 -6.3623,6.53709 -2.37022,-0.63805 -3.36454,-4.59908 -2.22074,-8.84714 1.00769,-3.74421 3.37171,-6.539 5.602,-6.62162 z m 56.95597,7.99657 c 0.62563,-0.0119 1.18153,0.1385 1.63953,0.4451 2.04117,1.36301 1.7145,5.43389 -0.72831,9.09309 -2.44425,3.65825 -6.07957,5.51889 -8.12074,4.15493 -2.04069,-1.36348 -1.71451,-5.43484 0.72926,-9.09309 1.82435,-2.73174 4.3985,-4.55848 6.47978,-4.60003 z m 14.4305,10.76127 c 0.62563,-0.0124 1.18201,0.1385 1.64001,0.44415 2.04069,1.36396 1.7145,5.43484 -0.72974,9.09309 -2.44329,3.65824 -6.07814,5.51841 -8.11883,4.15588 -2.0426,-1.36301 -1.71642,-5.43484 0.72783,-9.09404 1.8253,-2.73175 4.39849,-4.55849 6.48073,-4.59908 z m 19.21154,0.71159 c 0.62563,-0.0129 1.18153,0.1385 1.63953,0.44415 2.04069,1.36396 1.7145,5.43484 -0.72927,9.09309 -2.44329,3.65825 -6.07813,5.51841 -8.11882,4.15493 -2.04165,-1.36301 -1.71547,-5.43389 0.72782,-9.09214 1.82531,-2.73318 4.3985,-4.55991 6.48074,-4.60098 z m -62.20169,0.19246 c 0.26171,-0.01 0.51578,0.0191 0.7603,0.085 2.37022,0.63805 3.36454,4.59908 2.22074,8.84714 -1.14285,4.24806 -3.99112,7.17466 -6.36134,6.53709 -2.37022,-0.63709 -3.36502,-4.59812 -2.2217,-8.84714 1.00769,-3.74421 3.37266,-6.539 5.602,-6.62162 z m -45.29018,5.97737 c 0.26076,-0.01 0.51483,0.0181 0.75935,0.0836 2.3707,0.63804 3.3655,4.60003 2.2217,8.84952 -1.14428,4.24806 -3.99256,7.17514 -6.36278,6.53614 -2.37022,-0.63805 -3.36453,-4.59908 -2.22073,-8.84714 1.00769,-3.74326 3.3717,-6.539 5.60199,-6.62114 z m 22.74467,4.9735 c 0.26123,-0.01 0.51578,0.0191 0.75934,0.0845 2.3707,0.63853 3.36502,4.59908 2.2217,8.84762 -1.14332,4.24805 -3.9916,7.17513 -6.36134,6.53804 -2.37118,-0.63756 -3.36597,-4.59908 -2.22217,-8.84857 1.00769,-3.74421 3.37313,-6.53947 5.60294,-6.62162 z m 35.77442,9.25547 c 0.62563,-0.0119 1.18153,0.13849 1.63953,0.4451 2.04117,1.36349 1.71546,5.43484 -0.72831,9.09309 -2.44377,3.65825 -6.07957,5.51889 -8.12074,4.15493 -2.04069,-1.36349 -1.7145,-5.43484 0.72926,-9.09309 1.82531,-2.73175 4.3985,-4.55801 6.48074,-4.59908 z m 19.64423,3.11763 c 0.62562,-0.0124 1.18153,0.1385 1.63952,0.44415 2.04213,1.36253 1.71594,5.43483 -0.7283,9.09308 -2.44329,3.65921 -6.07957,5.51985 -8.12027,4.15589 -2.04117,-1.36301 -1.7145,-5.43389 0.72831,-9.09309 1.8253,-2.73175 4.3985,-4.55896 6.48074,-4.60003 z m -71.99683,13.01209 c 0.26028,-0.01 0.51436,0.0181 0.75935,0.0841 2.36975,0.63756 3.36454,4.59907 2.22074,8.84713 -1.14284,4.24854 -3.99064,7.17561 -6.36134,6.53805 -2.37022,-0.63757 -3.36502,-4.59908 -2.22169,-8.84762 1.00769,-3.74421 3.37265,-6.53947 5.60199,-6.62209 z m 29.78082,4.66021 c 0.62563,-0.0124 1.18201,0.1385 1.64001,0.44415 2.04117,1.36301 1.7145,5.43388 -0.72879,9.09309 -2.44329,3.65825 -6.07957,5.51937 -8.12074,4.15588 -2.04116,-1.36348 -1.7145,-5.43484 0.72974,-9.09309 1.82435,-2.73174 4.3985,-4.55896 6.47978,-4.60003 z"
       id="path8093" />
    <g
       style="font-style:normal;font-variant:normal;font-weight:normal;font-stretch:normal;font-size:40px;line-height:125%;font-family:'Archivo Black';-inkscape-font-specification:'Archivo Black, ';text-align:start;letter-spacing:0px;word-spacing:0px;writing-mode:lr-tb;text-anchor:start;fill:#ff0000;fill-opacity:1;stroke:none;stroke-width:1px;stroke-linecap:butt;stroke-linejoin:miter;stroke-opacity:1"
       id="text8048"
       transform="matrix(1.4346579,-1.4346579,1.4346579,1.4346579,-782.44274,-658.53438)">
      <path
         d="m -248.56797,882.65649 8.84,0 0,-9.88 11.52,0 0,-6.32 -11.52,0 0,-4.72 13.4,0 0,-6.6 -22.24,0 0,27.52 z"
         style="fill:#ff0000"
         id="path8053"
         inkscape:connector-curvature="0" />
      <path
         d="m -197.79922,882.65649 -10.04,-27.52 -10.28,0 -10.04,27.52 9.04,0 1.16,-3.88 9.64,0 1.16,3.88 9.36,0 z m -15.4,-19.84 0.16,0 2.88,9.8 -5.96,0 2.92,-9.8 z"
         style="fill:#ff0000"
         id="path8055"
         inkscape:connector-curvature="0" />
      <path
         d="m -185.66547,866.89649 0,-11.76 -8.84,0 0,27.52 8.84,0 0,-6.16 4.8,-3.92 5.72,10.08 10.44,0 -10.08,-16.2 9.88,-11.32 -10.96,0 -9.8,11.76 z"
         style="fill:#ff0000"
         id="path8057"
         inkscape:connector-curvature="0" />
      <path
         d="m -161.14609,882.65649 24.08,0 0,-6.6 -15.24,0 0,-4.2 12.8,0 0,-6.32 -12.8,0 0,-3.8 14.96,0 0,-6.6 -23.8,0 0,27.52 z"
         style="fill:#ff0000"
         id="path8059"
         inkscape:connector-curvature="0" />
    </g>
    <path
       inkscape:connector-curvature="0"
       style="opacity:1;fill:#000000;fill-opacity:1;stroke:none;stroke-width:3;stroke-linecap:round;stroke-linejoin:round;stroke-miterlimit:4;stroke-dasharray:none;stroke-dashoffset:0;stroke-opacity:1"
       d="M 2.66992,677.36215 C 1.19062,677.36215 0,678.55277 0,680.03207 l 0,369.66013 c 0,1.4793 1.19062,2.67 2.66992,2.67 l 369.66016,0 c 1.4793,0 2.66992,-1.1907 2.66992,-2.67 l 0,-369.66013 c 0,-1.4793 -1.19062,-2.66992 -2.66992,-2.66992 l -369.66016,0 z m 60.74219,61.61914 248.17578,0 c 0.99315,0 1.79297,0.79982 1.79297,1.79297 l 0,248.1758 c 0,0.9931 -0.79982,1.793 -1.79297,1.793 l -248.17578,0 c -0.99315,0 -1.79297,-0.7999 -1.79297,-1.793 l 0,-248.1758 c 0,-0.99315 0.79982,-1.79297 1.79297,-1.79297 z"
       id="rect4852" />
  </g>
</svg>
