<?xml version="1.0" encoding="UTF-8" standalone="no"?>
<!-- Created with Inkscape (http://www.inkscape.org/) -->

<svg
   xmlns:dc="http://purl.org/dc/elements/1.1/"
   xmlns:cc="http://creativecommons.org/ns#"
   xmlns:rdf="http://www.w3.org/1999/02/22-rdf-syntax-ns#"
   xmlns:svg="http://www.w3.org/2000/svg"
   xmlns="http://www.w3.org/2000/svg"
   xmlns:sodipodi="http://sodipodi.sourceforge.net/DTD/sodipodi-0.dtd"
   xmlns:inkscape="http://www.inkscape.org/namespaces/inkscape"
   width="0.75in"
   height="0.75in"
   viewBox="0 0 67.500001 67.500002"
   id="svg2"
   version="1.1"
   inkscape:version="0.91 r13725"
   sodipodi:docname="camera.svg">
  <defs
     id="defs4" />
  <sodipodi:namedview
     id="base"
     pagecolor="#ffffff"
     bordercolor="#666666"
     borderopacity="1.0"
     inkscape:pageopacity="0.0"
     inkscape:pageshadow="2"
     inkscape:zoom="3.959798"
     inkscape:cx="106.45982"
     inkscape:cy="-10.375746"
     inkscape:document-units="px"
     inkscape:current-layer="layer1"
     showgrid="false"
     units="in"
     inkscape:window-width="1920"
     inkscape:window-height="1017"
     inkscape:window-x="-8"
     inkscape:window-y="-8"
     inkscape:window-maximized="1" />
  <metadata
     id="metadata7">
    <rdf:RDF>
      <cc:Work
         rdf:about="">
        <dc:format>image/svg+xml</dc:format>
        <dc:type
           rdf:resource="http://purl.org/dc/dcmitype/StillImage" />
        <dc:title />
      </cc:Work>
    </rdf:RDF>
  </metadata>
  <g
     inkscape:label="Layer 1"
     inkscape:groupmode="layer"
     id="layer1"
     transform="translate(0,-984.86215)">
    <path
       inkscape:connector-curvature="0"
       style="fill:#000000;stroke-linecap:round;stroke-linejoin:round"
       d="m 21.460297,997.04649 c -1.442471,-6.3e-4 -2.960279,0.20871 -4.557316,0.67477 a 0.92466162,0.92466162 0 0 0 -0.01412,0.009 0.92466162,0.92466162 0 0 0 -0.04828,0.017 0.92466162,0.92466162 0 0 0 -0.03796,0.014 0.92466162,0.92466162 0 0 0 -0.04574,0.022 0.92466162,0.92466162 0 0 0 -0.03738,0.019 0.92466162,0.92466162 0 0 0 -0.04507,0.026 0.92466162,0.92466162 0 0 0 -0.03329,0.022 0.92466162,0.92466162 0 0 0 -0.04234,0.031 0.92466162,0.92466162 0 0 0 -0.03153,0.025 0.92466162,0.92466162 0 0 0 -0.03864,0.035 0.92466162,0.92466162 0 0 0 -0.02891,0.028 0.92466162,0.92466162 0 0 0 -0.03601,0.039 0.92466162,0.92466162 0 0 0 -0.02405,0.029 0.92466162,0.92466162 0 0 0 -0.03329,0.045 0.92466162,0.92466162 0 0 0 -0.02093,0.031 0.92466162,0.92466162 0 0 0 -0.02744,0.046 0.92466162,0.92466162 0 0 0 -0.01878,0.034 0.92466162,0.92466162 0 0 0 -0.02268,0.048 0.92466162,0.92466162 0 0 0 -0.01519,0.036 0.92466162,0.92466162 0 0 0 -0.01733,0.049 0.92466162,0.92466162 0 0 0 -0.01188,0.038 0.92466162,0.92466162 0 0 0 -0.01655,0.068 l -2.179476,10.89764 a 0.92466162,0.92466162 0 0 0 0.547497,1.0331 l 7.983528,3.3655 3.077663,15.7809 -11.342581,2.4638 a 0.92466162,0.92466162 0 0 0 -0.729996,0.8911 l -0.103368,7.4431 a 0.92466162,0.92466162 0 0 0 1.204494,0.8941 l 14.256141,-4.5564 2.34796,-0.4553 c 0.01723,0 0.03436,0 0.05159,0 0.969046,0 1.881638,-0.4615 2.518973,-1.2139 0.636849,-0.7518 0.970019,-1.7316 0.969045,-2.7408 l 0,0 c 5.85e-4,-0.6398 -0.13354,-1.2689 -0.393711,-1.8352 l -2.459892,-12.7088 12.241936,5.1606 a 0.92466162,0.92466162 0 0 0 0.01509,0.01 0.92466162,0.92466162 0 0 0 0.05304,0.019 0.92466162,0.92466162 0 0 0 0.03407,0.011 0.92466162,0.92466162 0 0 0 0.05285,0.013 0.92466162,0.92466162 0 0 0 0.04049,0.01 0.92466162,0.92466162 0 0 0 0.04701,0.01 0.92466162,0.92466162 0 0 0 0.04691,0.01 0.92466162,0.92466162 0 0 0 0.04185,0 0.92466162,0.92466162 0 0 0 0.05256,0 0.92466162,0.92466162 0 0 0 0.03533,0 l 8.11814,-0.5139 a 0.92466162,0.92466162 0 0 0 0.775742,-0.5293 l 4.917448,-10.4101 7.79e-4,0 a 0.92466162,0.92466162 0 0 0 0.002,-0.01 0.92466162,0.92466162 0 0 0 -0.536304,-1.2787 c -0.75793,-0.4156 -1.538052,-0.7066 -2.331704,-0.8904 l -29.96624,-11.62943 a 0.92466162,0.92466162 0 0 0 -0.07806,-0.0261 c -1.296182,-0.37398 -2.663415,-0.58493 -4.105983,-0.58574 z m -2.564427,1.33577 a 0.92466162,0.92466162 0 0 1 0.358866,0.07 l 28.299513,11.34234 a 0.92544034,0.92544034 0 0 1 0.56161,1.0502 0.92466162,0.92466162 0 0 0 -0.06882,0.1421 l -0.08137,0.2015 a 0.92544034,0.92544034 0 0 1 -1.098888,0.3247 l -28.299413,-11.3453 a 0.92466162,0.92466162 0 0 1 0.328595,-1.78564 z m 34.77779,12.49434 c 0.428264,0 0.851662,0.049 1.271945,0.1367 l 1.434685,0.5567 -2.303868,4.8778 c 0.08877,-0.395 0.134125,-0.7867 0.12994,-1.1539 -0.0097,-0.8499 -0.286159,-1.5525 -0.763576,-1.9041 -0.477417,-0.3517 -1.137626,-0.3388 -1.788491,0.024 -0.160599,0.09 -0.321684,0.2008 -0.477514,0.3285 0.05976,-0.08 0.115826,-0.1674 0.1642,-0.2616 0.137921,-0.2683 0.218804,-0.5792 0.216079,-0.8545 -0.0031,-0.276 -0.09198,-0.5103 -0.249464,-0.6298 -0.07865,-0.059 -0.169359,-0.09 -0.267665,-0.088 -0.09831,0 -0.204593,0.032 -0.307183,0.091 -0.205079,0.1179 -0.397117,0.3426 -0.53533,0.6114 -0.13792,0.2691 -0.218998,0.5789 -0.215786,0.8548 0.0029,0.2757 0.09198,0.5102 0.249366,0.6297 0.157387,0.1193 0.36967,0.1116 0.574847,-0.01 -0.332488,0.3467 -0.63714,0.769 -0.884949,1.2381 -0.44851,0.8483 -0.703327,1.8296 -0.693497,2.6795 0.0097,0.85 0.291999,1.5554 0.769514,1.9072 0.47732,0.3518 1.131396,0.3357 1.782163,-0.027 0.406657,-0.227 0.806889,-0.5857 1.159234,-1.03 l -0.818569,1.7326 -6.107633,0.3893 3.625939,-8.9926 c 1.424465,-0.7539 2.751793,-1.1206 4.03571,-1.1096 z m -29.012768,3.7128 1.558687,0.6571 2.893899,13.5834 c -0.292485,-0.089 -0.597916,-0.1373 -0.909283,-0.1373 -0.265135,0 -0.525597,0.036 -0.777494,0.1009 l -2.765809,-14.2042 z m 3.635672,1.5328 1.656312,0.6982 2.238654,11.5661 c -0.265912,-0.073 -0.541559,-0.1125 -0.822169,-0.1125 -0.159918,0 -0.317889,0.014 -0.473525,0.038 l -2.599174,-12.1899 z m 3.0727,14.0076 c 0.375996,0 0.803773,0.1926 1.116601,0.5619 0.312925,0.3693 0.528809,0.9626 0.527933,1.5373 9.89e-4,0.5747 -0.215105,1.168 -0.527836,1.5373 -0.148432,0.1752 -0.322755,0.3092 -0.504962,0.4032 l -0.597916,0.1158 c 0.204983,-0.5133 0.309909,-1.0709 0.309324,-1.6378 l 0,0 c 3.89e-4,-0.3673 -0.04399,-0.731 -0.13062,-1.0812 a 0.92466162,0.92466162 0 0 0 -0.01878,-0.2187 l -0.258515,-1.2126 c 0.02823,0 0.05675,-0.01 0.08468,-0.01 z m -3.165069,0.4185 c 0.376095,0 0.803969,0.1926 1.116895,0.562 0.312827,0.3694 0.528516,0.9626 0.527737,1.5373 7.79e-4,0.5748 -0.215105,1.168 -0.527835,1.5374 -0.312926,0.3694 -0.740702,0.562 -1.116894,0.562 -0.375997,0 -0.801342,-0.1927 -1.114169,-0.562 -0.312828,-0.3693 -0.531243,-0.9626 -0.530464,-1.5374 -7.79e-4,-0.5747 0.217636,-1.1679 0.530464,-1.5373 0.312827,-0.3694 0.738172,-0.562 1.114169,-0.562 z m -3.357592,1.0308 c -0.08468,0.3465 -0.12809,0.7057 -0.127701,1.0685 l 0,0 c -9.89e-4,1.0094 0.331905,1.9892 0.968753,2.7409 0.08157,0.096 0.167705,0.1879 0.257738,0.2742 l -10.568882,3.378 0.07612,-5.4234 9.393978,-2.0407 z"
       id="path6" />
  </g>
</svg>
