<?xml version="1.0" encoding="UTF-8" standalone="no"?>
<!-- Created with Inkscape (http://www.inkscape.org/) -->

<svg
   xmlns:dc="http://purl.org/dc/elements/1.1/"
   xmlns:cc="http://creativecommons.org/ns#"
   xmlns:rdf="http://www.w3.org/1999/02/22-rdf-syntax-ns#"
   xmlns:svg="http://www.w3.org/2000/svg"
   xmlns="http://www.w3.org/2000/svg"
   xmlns:sodipodi="http://sodipodi.sourceforge.net/DTD/sodipodi-0.dtd"
   xmlns:inkscape="http://www.inkscape.org/namespaces/inkscape"
   width="0.75in"
   height="0.75in"
   viewBox="0 0 67.500001 67.500002"
   id="svg2"
   version="1.1"
   inkscape:version="0.92.0 r15299"
   sodipodi:docname="camera.svg">
  <defs
     id="defs4" />
  <sodipodi:namedview
     id="base"
     pagecolor="#ffffff"
     bordercolor="#666666"
     borderopacity="1.0"
     inkscape:pageopacity="0.0"
     inkscape:pageshadow="2"
     inkscape:zoom="3.959798"
     inkscape:cx="66.053718"
     inkscape:cy="-10.375746"
     inkscape:document-units="px"
     inkscape:current-layer="layer1"
     showgrid="false"
     units="in"
     inkscape:window-width="1920"
     inkscape:window-height="1017"
     inkscape:window-x="-8"
     inkscape:window-y="-8"
     inkscape:window-maximized="1" />
  <metadata
     id="metadata7">
    <rdf:RDF>
      <cc:Work
         rdf:about="">
        <dc:format>image/svg+xml</dc:format>
        <dc:type
           rdf:resource="http://purl.org/dc/dcmitype/StillImage" />
        <dc:title />
      </cc:Work>
    </rdf:RDF>
  </metadata>
  <g
     inkscape:label="Layer 1"
     inkscape:groupmode="layer"
     id="layer1"
     transform="translate(0,-984.86215)">
    <path
       inkscape:connector-curvature="0"
       style="fill:#000000;stroke-linecap:round;stroke-linejoin:round"
       d="m 24.401753,1001.5049 c -1.151451,-4e-4 -2.363038,0.1666 -3.637871,0.5386 a 0.73810988,0.73810988 0 0 0 -0.01127,0.011 0.73810988,0.73810988 0 0 0 -0.03854,0.013 0.73810988,0.73810988 0 0 0 -0.0303,0.011 0.73810988,0.73810988 0 0 0 -0.03651,0.018 0.73810988,0.73810988 0 0 0 -0.02984,0.015 0.73810988,0.73810988 0 0 0 -0.03598,0.021 0.73810988,0.73810988 0 0 0 -0.02657,0.018 0.73810988,0.73810988 0 0 0 -0.0338,0.024 0.73810988,0.73810988 0 0 0 -0.02516,0.02 0.73810988,0.73810988 0 0 0 -0.03084,0.028 0.73810988,0.73810988 0 0 0 -0.02308,0.022 0.73810988,0.73810988 0 0 0 -0.02875,0.031 0.73810988,0.73810988 0 0 0 -0.0192,0.023 0.73810988,0.73810988 0 0 0 -0.02657,0.035 0.73810988,0.73810988 0 0 0 -0.0167,0.024 0.73810988,0.73810988 0 0 0 -0.0219,0.037 0.73810988,0.73810988 0 0 0 -0.01499,0.027 0.73810988,0.73810988 0 0 0 -0.0181,0.039 0.73810988,0.73810988 0 0 0 -0.01212,0.029 0.73810988,0.73810988 0 0 0 -0.01383,0.039 0.73810988,0.73810988 0 0 0 -0.0095,0.03 0.73810988,0.73810988 0 0 0 -0.01321,0.054 l -1.739764,8.699 a 0.73810988,0.73810988 0 0 0 0.437039,0.8246 l 6.37284,2.6866 2.45674,12.5971 -9.0542,1.9667 a 0.73810988,0.73810988 0 0 0 -0.582717,0.7113 l -0.08251,5.9415 a 0.73810988,0.73810988 0 0 0 0.961486,0.7136 l 11.379945,-3.6371 1.874256,-0.3634 c 0.01375,0 0.02743,0 0.04118,0 0.77354,0 1.502016,-0.3684 2.010767,-0.9691 0.508364,-0.6 0.774316,-1.3822 0.773539,-2.1878 l 0,0 c 4.67e-4,-0.5107 -0.106598,-1.0128 -0.314279,-1.4649 l -1.963605,-10.1448 9.772108,4.1194 a 0.73810988,0.73810988 0 0 0 0.01204,0.011 0.73810988,0.73810988 0 0 0 0.04234,0.015 0.73810988,0.73810988 0 0 0 0.02719,0.011 0.73810988,0.73810988 0 0 0 0.04219,0.011 0.73810988,0.73810988 0 0 0 0.03232,0.011 0.73810988,0.73810988 0 0 0 0.03753,0.011 0.73810988,0.73810988 0 0 0 0.03745,0.011 0.73810988,0.73810988 0 0 0 0.0334,0 0.73810988,0.73810988 0 0 0 0.04195,0 0.73810988,0.73810988 0 0 0 0.0282,0 l 6.480294,-0.4103 a 0.73810988,0.73810988 0 0 0 0.619235,-0.4225 l 3.925346,-8.3099 6.21e-4,0 a 0.73810988,0.73810988 0 0 0 0.0016,-0.011 0.73810988,0.73810988 0 0 0 -0.428104,-1.0207 c -0.605017,-0.3317 -1.227748,-0.564 -1.861279,-0.7107 L 27.741684,1002.02 a 0.73810988,0.73810988 0 0 0 -0.06231,-0.021 c -1.034675,-0.2986 -2.126067,-0.4669 -3.277596,-0.4676 z m -2.04705,1.0663 a 0.73810988,0.73810988 0 0 1 0.286464,0.056 l 22.590047,9.054 a 0.7387315,0.7387315 0 0 1 0.448305,0.8383 0.73810988,0.73810988 0 0 0 -0.05493,0.1134 l -0.06495,0.1608 a 0.7387315,0.7387315 0 0 1 -0.877185,0.2592 l -22.589969,-9.0563 a 0.73810988,0.73810988 0 0 1 0.262302,-1.4254 z m 27.761323,9.9736 c 0.341862,0 0.679838,0.039 1.015329,0.1087 l 1.145235,0.4444 -1.839059,3.8937 c 0.07086,-0.3153 0.107063,-0.6281 0.103725,-0.9212 -0.0078,-0.6783 -0.228426,-1.2393 -0.609524,-1.5199 -0.381097,-0.2808 -0.908108,-0.2704 -1.42766,0.019 -0.128198,0.072 -0.256784,0.1604 -0.381175,0.2623 0.04771,-0.064 0.09246,-0.1337 0.131073,-0.2089 0.11009,-0.2141 0.17466,-0.4623 0.172484,-0.6821 -0.0024,-0.2202 -0.07343,-0.4073 -0.199134,-0.5027 -0.06278,-0.048 -0.13519,-0.072 -0.213663,-0.07 -0.07847,0 -0.163317,0.025 -0.245209,0.072 -0.163704,0.094 -0.316998,0.2735 -0.427326,0.488 -0.110091,0.2148 -0.174814,0.4621 -0.17225,0.6823 0.0023,0.2202 0.07343,0.4074 0.199056,0.5028 0.125633,0.095 0.295087,0.089 0.458869,-0.011 -0.265407,0.2767 -0.508595,0.6138 -0.706409,0.9882 -0.358021,0.6771 -0.561429,1.4605 -0.553583,2.1389 0.0078,0.6785 0.233088,1.2417 0.614265,1.5225 0.38102,0.2808 0.903135,0.2679 1.422608,-0.021 0.324614,-0.1812 0.644098,-0.4676 0.925358,-0.8222 l -0.653423,1.383 -4.875409,0.3108 2.894401,-7.1784 c 1.137077,-0.6017 2.196615,-0.8945 3.2215,-0.8858 z m -23.159402,2.9637 1.244219,0.5246 2.310051,10.8429 c -0.233476,-0.071 -0.477285,-0.1098 -0.725834,-0.1098 -0.211643,0 -0.419557,0.029 -0.620633,0.081 l -2.207803,-11.3386 z m 2.90217,1.2236 1.322149,0.5573 1.787002,9.2326 c -0.212264,-0.059 -0.432299,-0.09 -0.656295,-0.09 -0.127654,0 -0.253754,0.011 -0.37799,0.03 l -2.074788,-9.7306 z m 2.452778,11.1815 c 0.300138,0 0.641611,0.1538 0.891326,0.4486 0.249791,0.2947 0.42212,0.7684 0.421422,1.2271 7.89e-4,0.4588 -0.171708,0.9323 -0.421345,1.2272 -0.118486,0.1399 -0.257639,0.2468 -0.403086,0.3218 l -0.477284,0.092 c 0.163626,-0.4097 0.247384,-0.8548 0.246917,-1.3073 l 0,0 c 3.1e-4,-0.2932 -0.03511,-0.5836 -0.104269,-0.8631 a 0.73810988,0.73810988 0 0 0 -0.01499,-0.1746 l -0.206359,-0.9679 c 0.02253,0 0.0453,-0.011 0.06759,-0.011 z m -2.526512,0.3341 c 0.300218,0 0.641768,0.1537 0.89156,0.4486 0.249714,0.2949 0.421887,0.7684 0.421265,1.2271 6.22e-4,0.4589 -0.171707,0.9324 -0.421343,1.2272 -0.249793,0.2949 -0.591264,0.4488 -0.891559,0.4488 -0.300139,0 -0.63967,-0.154 -0.889384,-0.4488 -0.249714,-0.2947 -0.424064,-0.7683 -0.423442,-1.2272 -6.22e-4,-0.4587 0.173728,-0.9322 0.423442,-1.2271 0.249714,-0.2949 0.589245,-0.4486 0.889384,-0.4486 z m -2.680192,0.8228 c -0.06759,0.2766 -0.10225,0.5634 -0.10194,0.8529 l 0,0 c -7.89e-4,0.8058 0.264942,1.5879 0.773305,2.188 0.06511,0.076 0.13387,0.1499 0.205739,0.2189 l -8.436595,2.6964 0.06076,-4.3292 7.498731,-1.629 z"
       id="path6" />
  </g>
</svg>
