<?xml version="1.0" encoding="UTF-8" standalone="no"?>
<!-- Created with Inkscape (http://www.inkscape.org/) -->

<svg
   xmlns:dc="http://purl.org/dc/elements/1.1/"
   xmlns:cc="http://creativecommons.org/ns#"
   xmlns:rdf="http://www.w3.org/1999/02/22-rdf-syntax-ns#"
   xmlns:svg="http://www.w3.org/2000/svg"
   xmlns="http://www.w3.org/2000/svg"
   xmlns:sodipodi="http://sodipodi.sourceforge.net/DTD/sodipodi-0.dtd"
   xmlns:inkscape="http://www.inkscape.org/namespaces/inkscape"
   width="825"
   height="1125"
   viewBox="0 0 825.00001 1125"
   id="svg4454"
   version="1.1"
   inkscape:version="0.91 r13725"
   sodipodi:docname="character.svg">
  <defs
     id="defs4456" />
  <sodipodi:namedview
     id="base"
     pagecolor="#ffffff"
     bordercolor="#666666"
     borderopacity="1.0"
     inkscape:pageopacity="0.0"
     inkscape:pageshadow="2"
     inkscape:zoom="2.8"
     inkscape:cx="195.43299"
     inkscape:cy="179.71443"
     inkscape:document-units="px"
     inkscape:current-layer="layer1"
     showgrid="false"
     inkscape:window-width="1920"
     inkscape:window-height="1017"
     inkscape:window-x="-8"
     inkscape:window-y="-8"
     inkscape:window-maximized="1"
     units="px"
     showguides="true"
     inkscape:guide-bbox="true">
    <sodipodi:guide
       position="40.714286,75"
       orientation="0,1"
       id="guide4151" />
    <sodipodi:guide
       position="750.00001,314.28571"
       orientation="1,0"
       id="guide4800" />
    <sodipodi:guide
       position="75.000001,362.5"
       orientation="1,0"
       id="guide4802" />
  </sodipodi:namedview>
  <metadata
     id="metadata4459">
    <rdf:RDF>
      <cc:Work
         rdf:about="">
        <dc:format>image/svg+xml</dc:format>
        <dc:type
           rdf:resource="http://purl.org/dc/dcmitype/StillImage" />
        <dc:title />
      </cc:Work>
    </rdf:RDF>
  </metadata>
  <g
     inkscape:label="Layer 1"
     inkscape:groupmode="layer"
     id="layer1"
     transform="translate(0,72.637839)">
    <rect
       ry="41.976757"
       y="787.76617"
       x="536.24255"
       height="187.964"
       width="212.5"
       id="rect4424"
       style="fill:none;stroke:#000000;stroke-width:2.5;stroke-miterlimit:4;stroke-dasharray:none;stroke-dashoffset:0;stroke-opacity:1" />
    <path
       style="fill:#000000"
       d="m 137.14725,166.29558 c 0.20669,-0.33451 0.66579,-2.89511 1.02019,-5.69031 0.35441,-2.79522 -0.84227,-6.67217 -0.48223,-7.03224 0.43679,-0.43672 4.38247,1.84718 8.2968,1.38094 10.14405,-1.20826 15.18102,-1.76695 13.12725,-9.78033 -0.77803,-3.03573 -0.74002,-3.29917 0.69701,-4.82872 1.2571,-1.3382 1.67553,-2.08161 0.75519,-2.84245 -1.52417,-1.26003 -1.83498,-0.85665 0.22552,-2.04627 0.82034,-0.47362 0.87736,-1.49004 0.56247,-3.35387 -0.42017,-2.48708 -0.37989,-2.55084 2.26421,-3.58958 4.84317,-1.90239 4.50914,-3.68922 -2.71075,-14.50167 -2.29319,-3.43425 -3.98324,-5.3855 -3.45127,-5.84993 1.56371,-18.64364 -11.11601,-34.485217 -25.02139,-39.234297 -28.42308,-6.211562 -55.806019,6.87501 -56.402467,34.540517 0,9.88791 2.640121,16.72134 10.078277,26.0857 5.2586,6.62049 5.837623,10.4101 5.830994,19.32149 -0.0036,5.36651 0.867386,5.82214 -0.868207,10.66665 -1.117266,3.1184 -2.615298,6.77497 -2.615298,6.98356 0,0.6524 48.289281,0.42549 48.693701,-0.22871 z"
       id="path4149"
       inkscape:connector-curvature="0"
       sodipodi:nodetypes="csssssssssscccscsssc" />
    <rect
       style="fill:none;stroke:#000000;stroke-width:2.5;stroke-miterlimit:4;stroke-dasharray:none;stroke-dashoffset:0;stroke-opacity:1"
       id="rect4775"
       width="212.5"
       height="187.96449"
       x="74.835388"
       y="787.76562"
       ry="41.976868" />
    <rect
       style="fill:none;fill-opacity:1;stroke:#000000;stroke-width:2.5;stroke-linecap:round;stroke-linejoin:round;stroke-miterlimit:4;stroke-dasharray:5.00000002, 5.00000002;stroke-dashoffset:0;stroke-opacity:1"
       id="rect4823"
       width="202.14287"
       height="484.28571"
       x="76.428574"
       y="266.64786"
       ry="30.1134" />
    <g
       transform="translate(-23.568667,-8.3521247)"
       style="font-style:normal;font-weight:normal;font-size:40px;line-height:125%;font-family:sans-serif;text-align:center;letter-spacing:0px;word-spacing:0px;text-anchor:middle;fill:#000000;fill-opacity:1;stroke:none;stroke-width:1px;stroke-linecap:butt;stroke-linejoin:miter;stroke-opacity:1"
       id="flowRoot4825">
      <path
         d="m 140.8843,424.98913 c -7.12,0 -10.8,4.68 -10.8,14.2 0,9.52 3.68,14.2 10.8,14.2 5.6,0 9.56,-3.24 9.56,-10.32 l -3.48,0 c 0,4.76 -2.4,7.08 -6.08,7.08 -4.8,0 -7.12,-3.28 -7.12,-9.96 l 0,-2 c 0,-6.68 2.32,-9.96 7.12,-9.96 3.6,0 5.96,2.36 5.96,7.16 l 3.6,0 c 0,-7 -3.96,-10.4 -9.56,-10.4 z"
         style="font-style:normal;font-variant:normal;font-weight:normal;font-stretch:normal;font-family:'Archivo Narrow';-inkscape-font-specification:'Archivo Narrow';text-align:center;text-anchor:middle"
         id="path4838"
         inkscape:connector-curvature="0" />
      <path
         d="m 157.75617,423.98913 -3.28,0 0,28.92 3.28,0 0,-12.84 c 0,-3.64 1.84,-5.76 3.92,-5.76 1.76,0 2.96,0.76 2.96,3.68 l 0,14.92 3.28,0 0,-15.16 c 0,-4.68 -2.04,-6.36 -5.2,-6.36 -2.08,0 -3.64,0.8 -4.72,2.68 l -0.24,0 0,-10.08 z"
         style="font-style:normal;font-variant:normal;font-weight:normal;font-stretch:normal;font-family:'Archivo Narrow';-inkscape-font-specification:'Archivo Narrow';text-align:center;text-anchor:middle"
         id="path4840"
         inkscape:connector-curvature="0" />
      <path
         d="m 179.1993,431.38913 c -3.96,0 -6.76,2 -6.76,5.84 0,0.36 0,0.64 0.04,0.88 l 3.24,0 0,-0.48 c 0,-1.6 0.76,-3.32 3.24,-3.32 2.68,0 3.32,1.4 3.32,3.4 l 0,2.72 c -6.12,0 -10.64,1.24 -10.64,7.04 0,5.08 3.44,5.92 5.52,5.92 2.2,0 4.04,-1.04 5.12,-2.76 l 0.2,0 c 0.4,1.56 1.6,2.6 3.32,2.6 1.04,0 1.8,-0.28 2.16,-0.48 l 0,-2.28 -1.28,0 c -0.56,0 -1.12,-0.4 -1.12,-1.4 l 0,-11.8 c 0,-3.72 -2.12,-5.88 -6.36,-5.88 z m 3.08,13.88 c 0,3.48 -2.28,5.2 -4.36,5.2 -1.84,0 -2.84,-0.8 -2.84,-3.2 0,-3.28 2.92,-3.92 7.2,-3.92 l 0,1.92 z"
         style="font-style:normal;font-variant:normal;font-weight:normal;font-stretch:normal;font-family:'Archivo Narrow';-inkscape-font-specification:'Archivo Narrow';text-align:center;text-anchor:middle"
         id="path4842"
         inkscape:connector-curvature="0" />
      <path
         d="m 197.60242,431.38913 c -2,0 -3.04,1.64 -3.56,3.24 l -0.24,0 -0.44,-2.76 -2.48,0 0,21.04 3.28,0 0,-12.84 c 0,-3.72 1.84,-4.96 3.92,-4.96 l 1.08,0 0,-3.4 c 0,0 -0.68,-0.32 -1.56,-0.32 z"
         style="font-style:normal;font-variant:normal;font-weight:normal;font-stretch:normal;font-family:'Archivo Narrow';-inkscape-font-specification:'Archivo Narrow';text-align:center;text-anchor:middle"
         id="path4844"
         inkscape:connector-curvature="0" />
      <path
         d="m 208.33992,431.38913 c -3.96,0 -6.76,2 -6.76,5.84 0,0.36 0,0.64 0.04,0.88 l 3.24,0 0,-0.48 c 0,-1.6 0.76,-3.32 3.24,-3.32 2.68,0 3.32,1.4 3.32,3.4 l 0,2.72 c -6.12,0 -10.64,1.24 -10.64,7.04 0,5.08 3.44,5.92 5.52,5.92 2.2,0 4.04,-1.04 5.12,-2.76 l 0.2,0 c 0.4,1.56 1.6,2.6 3.32,2.6 1.04,0 1.8,-0.28 2.16,-0.48 l 0,-2.28 -1.28,0 c -0.56,0 -1.12,-0.4 -1.12,-1.4 l 0,-11.8 c 0,-3.72 -2.12,-5.88 -6.36,-5.88 z m 3.08,13.88 c 0,3.48 -2.28,5.2 -4.36,5.2 -1.84,0 -2.84,-0.8 -2.84,-3.2 0,-3.28 2.92,-3.92 7.2,-3.92 l 0,1.92 z"
         style="font-style:normal;font-variant:normal;font-weight:normal;font-stretch:normal;font-family:'Archivo Narrow';-inkscape-font-specification:'Archivo Narrow';text-align:center;text-anchor:middle"
         id="path4846"
         inkscape:connector-curvature="0" />
      <path
         d="m 226.26305,431.38913 c -4.92,0 -7.2,3.44 -7.2,11 0,7.56 2.24,11 7.2,11 4.64,0 6.44,-3.88 6.44,-8.28 l -3.24,0 c 0,3.48 -0.84,5.36 -3.2,5.36 -2.64,0 -3.76,-2.48 -3.76,-7.32 l 0,-1.52 c 0,-4.84 1.16,-7.32 3.76,-7.32 2.36,0 3.04,1.72 3.04,5.36 l 3.4,0 c 0,-5.36 -1.88,-8.28 -6.44,-8.28 z"
         style="font-style:normal;font-variant:normal;font-weight:normal;font-stretch:normal;font-family:'Archivo Narrow';-inkscape-font-specification:'Archivo Narrow';text-align:center;text-anchor:middle"
         id="path4848"
         inkscape:connector-curvature="0" />
      <path
         d="m 239.6693,426.02913 -2.56,0 -0.72,5.84 -1.8,0 0,2.92 1.8,0 0,13.68 c 0,2.4 0.88,4.84 3.76,4.84 0.8,0 1.8,-0.24 2.36,-0.56 l 0,-2.28 -0.96,0 c -1.24,0 -1.88,-0.68 -1.88,-1.92 l 0,-13.76 2.84,0 0,-2.92 -2.84,0 0,-5.84 z"
         style="font-style:normal;font-variant:normal;font-weight:normal;font-stretch:normal;font-family:'Archivo Narrow';-inkscape-font-specification:'Archivo Narrow';text-align:center;text-anchor:middle"
         id="path4850"
         inkscape:connector-curvature="0" />
      <path
         d="m 252.76992,431.38913 c -5.28,0 -7.92,3.44 -7.92,11 0,7.8 2.72,11 7.96,11 4.08,0 6.88,-2.92 6.88,-7.64 l -3.24,0 c 0,2.92 -1.48,4.72 -3.56,4.72 -3.12,0 -4.56,-2.2 -4.6,-7.12 l 11.4,0 0,-2.08 c 0,-7.04 -2.32,-9.88 -6.92,-9.88 z m 0,2.92 c 2.28,0 3.48,2.12 3.48,6.12 l -7.92,0 c 0.28,-4.04 1.52,-6.12 4.44,-6.12 z"
         style="font-style:normal;font-variant:normal;font-weight:normal;font-stretch:normal;font-family:'Archivo Narrow';-inkscape-font-specification:'Archivo Narrow';text-align:center;text-anchor:middle"
         id="path4852"
         inkscape:connector-curvature="0" />
      <path
         d="m 270.49305,431.38913 c -2,0 -3.04,1.64 -3.56,3.24 l -0.24,0 -0.44,-2.76 -2.48,0 0,21.04 3.28,0 0,-12.84 c 0,-3.72 1.84,-4.96 3.92,-4.96 l 1.08,0 0,-3.4 c 0,0 -0.68,-0.32 -1.56,-0.32 z"
         style="font-style:normal;font-variant:normal;font-weight:normal;font-stretch:normal;font-family:'Archivo Narrow';-inkscape-font-specification:'Archivo Narrow';text-align:center;text-anchor:middle"
         id="path4854"
         inkscape:connector-curvature="0" />
      <path
         d="m 197.50086,502.90913 3.8,0 -8.72,-27.44 -4.52,0 -8.72,27.44 3.52,0 1.88,-6.12 10.88,0 1.88,6.12 z m -8.04,-21.52 c 0.28,-0.88 0.64,-3.04 0.64,-3.04 l 0.16,0 c 0,0 0.36,2.12 0.64,3.04 l 3.72,12.2 -8.92,0 3.76,-12.2 z"
         style="font-style:normal;font-variant:normal;font-weight:normal;font-stretch:normal;font-family:'Archivo Narrow';-inkscape-font-specification:'Archivo Narrow';text-align:center;text-anchor:middle"
         id="path4856"
         inkscape:connector-curvature="0" />
      <path
         d="m 210.37586,481.38913 c -2,0 -3.04,1.64 -3.56,3.24 l -0.24,0 -0.44,-2.76 -2.48,0 0,21.04 3.28,0 0,-12.84 c 0,-3.72 1.84,-4.96 3.92,-4.96 l 1.08,0 0,-3.4 c 0,0 -0.68,-0.32 -1.56,-0.32 z"
         style="font-style:normal;font-variant:normal;font-weight:normal;font-stretch:normal;font-family:'Archivo Narrow';-inkscape-font-specification:'Archivo Narrow';text-align:center;text-anchor:middle"
         id="path4858"
         inkscape:connector-curvature="0" />
      <path
         d="m 217.83336,476.02913 -2.56,0 -0.72,5.84 -1.8,0 0,2.92 1.8,0 0,13.68 c 0,2.4 0.88,4.84 3.76,4.84 0.8,0 1.8,-0.24 2.36,-0.56 l 0,-2.28 -0.96,0 c -1.24,0 -1.88,-0.68 -1.88,-1.92 l 0,-13.76 2.84,0 0,-2.92 -2.84,0 0,-5.84 z"
         style="font-style:normal;font-variant:normal;font-weight:normal;font-stretch:normal;font-family:'Archivo Narrow';-inkscape-font-specification:'Archivo Narrow';text-align:center;text-anchor:middle"
         id="path4860"
         inkscape:connector-curvature="0" />
      <path
         d="m 185.72961,525.46913 -3.52,0 0,11.8 -11.04,0 0,-11.8 -3.52,0 0,27.44 3.52,0 0,-12.44 11.04,0 0,12.44 3.52,0 0,-27.44 z"
         style="font-style:normal;font-variant:normal;font-weight:normal;font-stretch:normal;font-family:'Archivo Narrow';-inkscape-font-specification:'Archivo Narrow';text-align:center;text-anchor:middle"
         id="path4862"
         inkscape:connector-curvature="0" />
      <path
         d="m 198.12148,531.38913 c -5.28,0 -7.92,3.44 -7.92,11 0,7.8 2.72,11 7.96,11 4.08,0 6.88,-2.92 6.88,-7.64 l -3.24,0 c 0,2.92 -1.48,4.72 -3.56,4.72 -3.12,0 -4.56,-2.2 -4.6,-7.12 l 11.4,0 0,-2.08 c 0,-7.04 -2.32,-9.88 -6.92,-9.88 z m 0,2.92 c 2.28,0 3.48,2.12 3.48,6.12 l -7.92,0 c 0.28,-4.04 1.52,-6.12 4.44,-6.12 z"
         style="font-style:normal;font-variant:normal;font-weight:normal;font-stretch:normal;font-family:'Archivo Narrow';-inkscape-font-specification:'Archivo Narrow';text-align:center;text-anchor:middle"
         id="path4864"
         inkscape:connector-curvature="0" />
      <path
         d="m 215.84461,531.38913 c -2,0 -3.04,1.64 -3.56,3.24 l -0.24,0 -0.44,-2.76 -2.48,0 0,21.04 3.28,0 0,-12.84 c 0,-3.72 1.84,-4.96 3.92,-4.96 l 1.08,0 0,-3.4 c 0,0 -0.68,-0.32 -1.56,-0.32 z"
         style="font-style:normal;font-variant:normal;font-weight:normal;font-stretch:normal;font-family:'Archivo Narrow';-inkscape-font-specification:'Archivo Narrow';text-align:center;text-anchor:middle"
         id="path4866"
         inkscape:connector-curvature="0" />
      <path
         d="m 227.26211,531.38913 c -5.28,0 -7.92,3.44 -7.92,11 0,7.8 2.72,11 7.96,11 4.08,0 6.88,-2.92 6.88,-7.64 l -3.24,0 c 0,2.92 -1.48,4.72 -3.56,4.72 -3.12,0 -4.56,-2.2 -4.6,-7.12 l 11.4,0 0,-2.08 c 0,-7.04 -2.32,-9.88 -6.92,-9.88 z m 0,2.92 c 2.28,0 3.48,2.12 3.48,6.12 l -7.92,0 c 0.28,-4.04 1.52,-6.12 4.44,-6.12 z"
         style="font-style:normal;font-variant:normal;font-weight:normal;font-stretch:normal;font-family:'Archivo Narrow';-inkscape-font-specification:'Archivo Narrow';text-align:center;text-anchor:middle"
         id="path4868"
         inkscape:connector-curvature="0" />
    </g>
  </g>
</svg>
