<?xml version="1.0" encoding="UTF-8" standalone="no"?>
<!-- Created with Inkscape (http://www.inkscape.org/) -->

<svg
   xmlns:dc="http://purl.org/dc/elements/1.1/"
   xmlns:cc="http://creativecommons.org/ns#"
   xmlns:rdf="http://www.w3.org/1999/02/22-rdf-syntax-ns#"
   xmlns:svg="http://www.w3.org/2000/svg"
   xmlns="http://www.w3.org/2000/svg"
   xmlns:sodipodi="http://sodipodi.sourceforge.net/DTD/sodipodi-0.dtd"
   xmlns:inkscape="http://www.inkscape.org/namespaces/inkscape"
   width="825"
   height="1125"
   viewBox="0 0 825.00001 1125"
   id="svg4227"
   version="1.1"
   inkscape:version="0.91 r13725"
   sodipodi:docname="character-color.svg">
  <defs
     id="defs4229">
    <filter
       inkscape:collect="always"
       style="color-interpolation-filters:sRGB"
       id="filter8907"
       x="-0.051722225"
       width="1.1034445"
       y="-0.071432218"
       height="1.1428643">
      <feGaussianBlur
         inkscape:collect="always"
         stdDeviation="2.2157208"
         id="feGaussianBlur8909" />
    </filter>
    <filter
       inkscape:collect="always"
       style="color-interpolation-filters:sRGB"
       id="filter7636"
       x="-0.050293941"
       width="1.1005878"
       y="-0.04590619"
       height="1.0918124">
      <feGaussianBlur
         inkscape:collect="always"
         stdDeviation="2.3612727"
         id="feGaussianBlur7638" />
    </filter>
    <filter
       inkscape:collect="always"
       style="color-interpolation-filters:sRGB"
       id="filter5063"
       x="-0.044348628"
       width="1.0886973"
       y="-0.092723766"
       height="1.1854475">
      <feGaussianBlur
         inkscape:collect="always"
         stdDeviation="2.8761529"
         id="feGaussianBlur5065" />
    </filter>
    <filter
       inkscape:collect="always"
       style="color-interpolation-filters:sRGB"
       id="filter6487"
       x="-0.098912528"
       width="1.1978251"
       y="-0.12477531"
       height="1.2495506">
      <feGaussianBlur
         inkscape:collect="always"
         stdDeviation="8.3183542"
         id="feGaussianBlur6489" />
    </filter>
    <filter
       inkscape:collect="always"
       style="color-interpolation-filters:sRGB"
       id="filter6491"
       x="-0.098912528"
       width="1.1978251"
       y="-0.12477531"
       height="1.2495506">
      <feGaussianBlur
         inkscape:collect="always"
         stdDeviation="8.3183542"
         id="feGaussianBlur6493" />
    </filter>
    <filter
       inkscape:collect="always"
       style="color-interpolation-filters:sRGB"
       id="filter7725"
       x="-0.027086957"
       width="1.0541739"
       y="-0.053655499"
       height="1.107311">
      <feGaussianBlur
         inkscape:collect="always"
         stdDeviation="5.2233594"
         id="feGaussianBlur7727" />
    </filter>
  </defs>
  <sodipodi:namedview
     id="base"
     pagecolor="#ffffff"
     bordercolor="#666666"
     borderopacity="1.0"
     inkscape:pageopacity="0.0"
     inkscape:pageshadow="2"
     inkscape:zoom="1.4"
     inkscape:cx="404.57717"
     inkscape:cy="234.87695"
     inkscape:document-units="px"
     inkscape:current-layer="layer1"
     showgrid="false"
     inkscape:window-width="1920"
     inkscape:window-height="1017"
     inkscape:window-x="-8"
     inkscape:window-y="-8"
     inkscape:window-maximized="1"
     units="px"
     showguides="true"
     inkscape:guide-bbox="true">
    <sodipodi:guide
       position="406.081,1050"
       orientation="0,1"
       id="guide4841"
       inkscape:label=""
       inkscape:color="rgb(0,0,255)" />
    <sodipodi:guide
       position="401.03057,1087.5"
       orientation="0,1"
       id="guide4843"
       inkscape:label=""
       inkscape:color="rgb(0,0,255)" />
    <sodipodi:guide
       position="462.85715,75"
       orientation="0,1"
       id="guide4845"
       inkscape:label=""
       inkscape:color="rgb(0,0,255)" />
    <sodipodi:guide
       position="395.71429,37.5"
       orientation="0,1"
       id="guide4847"
       inkscape:label=""
       inkscape:color="rgb(0,0,255)" />
    <sodipodi:guide
       position="37.5,878.571"
       orientation="1,0"
       id="guide4849"
       inkscape:label=""
       inkscape:color="rgb(0,0,255)" />
    <sodipodi:guide
       position="75.000001,872.85714"
       orientation="1,0"
       id="guide4851"
       inkscape:label=""
       inkscape:color="rgb(0,0,255)" />
    <sodipodi:guide
       position="787.50001,851.42857"
       orientation="1,0"
       id="guide4853"
       inkscape:label=""
       inkscape:color="rgb(0,0,255)" />
    <sodipodi:guide
       position="750.00001,767.14286"
       orientation="1,0"
       id="guide4855"
       inkscape:label=""
       inkscape:color="rgb(0,0,255)" />
  </sodipodi:namedview>
  <metadata
     id="metadata4232">
    <rdf:RDF>
      <cc:Work
         rdf:about="">
        <dc:format>image/svg+xml</dc:format>
        <dc:type
           rdf:resource="http://purl.org/dc/dcmitype/StillImage" />
        <dc:title />
      </cc:Work>
    </rdf:RDF>
  </metadata>
  <g
     inkscape:label="Layer 1"
     inkscape:groupmode="layer"
     id="layer1"
     transform="translate(0,72.637839)">
    <rect
       style="display:inline;opacity:1;fill:#000000;fill-opacity:1;fill-rule:nonzero;stroke:none;stroke-width:0.542;stroke-linecap:square;stroke-linejoin:round;stroke-miterlimit:4;stroke-dasharray:none;stroke-dashoffset:0;stroke-opacity:1;filter:url(#filter7725)"
       id="rect7707"
       width="462.80807"
       height="233.63985"
       x="291.42191"
       y="-121.20737"
       ry="46.547062"
       transform="matrix(0.91467724,0,0,1,64.608954,0)" />
    <rect
       ry="31.876114"
       y="821.40643"
       x="81.953354"
       height="160"
       width="201.8354"
       id="rect6411"
       style="display:inline;opacity:1;fill:#000000;fill-opacity:1;fill-rule:nonzero;stroke:none;stroke-width:0.542;stroke-linecap:square;stroke-linejoin:round;stroke-miterlimit:4;stroke-dasharray:none;stroke-dashoffset:0;stroke-opacity:1;filter:url(#filter6487)"
       transform="matrix(1.0416327,0,0,0.9961869,-2.9705499,3.4371558)" />
    <rect
       style="display:inline;opacity:1;fill:#000000;fill-opacity:1;fill-rule:nonzero;stroke:none;stroke-width:0.542;stroke-linecap:square;stroke-linejoin:round;stroke-miterlimit:4;stroke-dasharray:none;stroke-dashoffset:0;stroke-opacity:1;filter:url(#filter6491)"
       id="rect6413"
       width="201.8354"
       height="160"
       x="551.95337"
       y="821.40643"
       ry="31.876114"
       transform="matrix(1.032019,0,0,0.99705919,-22.332853,2.6508653)" />
    <rect
       ry="46.547062"
       y="-127.20737"
       x="325.67789"
       height="233.63985"
       width="423.32001"
       id="rect4201"
       style="display:inline;opacity:1;fill:#d9c787;fill-opacity:1;fill-rule:nonzero;stroke:none;stroke-width:0.542;stroke-linecap:square;stroke-linejoin:round;stroke-miterlimit:4;stroke-dasharray:none;stroke-dashoffset:0;stroke-opacity:1" />
    <rect
       style="display:inline;opacity:1;fill:#000000;fill-opacity:1;fill-rule:nonzero;stroke:none;stroke-width:0.542;stroke-linecap:square;stroke-linejoin:round;stroke-miterlimit:4;stroke-dasharray:none;stroke-dashoffset:0;stroke-opacity:1;filter:url(#filter5063)"
       id="rect5928"
       width="155.64781"
       height="74.44442"
       x="80.45153"
       y="8.4652758"
       ry="21.401697" />
    <g
       transform="translate(-1.5837715,-73.315338)"
       style="display:inline"
       id="g5921">
      <rect
         style="opacity:1;fill:#d9c787;fill-opacity:1;fill-rule:nonzero;stroke:none;stroke-width:0.542;stroke-linecap:square;stroke-linejoin:round;stroke-miterlimit:4;stroke-dasharray:none;stroke-dashoffset:0;stroke-opacity:1"
         id="rect5915"
         width="155.64781"
         height="74.44442"
         x="77.004837"
         y="75.760315"
         ry="21.401697" />
      <text
         sodipodi:linespacing="125%"
         id="text5917"
         y="126.46252"
         x="93.024368"
         style="font-style:normal;font-weight:normal;font-size:40px;line-height:125%;font-family:sans-serif;letter-spacing:0px;word-spacing:0px;fill:#000000;fill-opacity:1;stroke:none;stroke-width:1px;stroke-linecap:butt;stroke-linejoin:miter;stroke-opacity:1"
         xml:space="preserve"><tspan
           style="font-style:normal;font-variant:normal;font-weight:normal;font-stretch:normal;font-family:'Archivo Narrow';-inkscape-font-specification:'Archivo Narrow'"
           y="126.46252"
           x="93.024368"
           id="tspan5919"
           sodipodi:role="line" /></text>
    </g>
    <path
       sodipodi:nodetypes="csssssssssscccscsssc"
       inkscape:connector-curvature="0"
       id="path7626"
       d="m 156.85431,223.5826 c 0.25641,-0.41499 0.82597,-3.59165 1.26563,-7.05935 0.43968,-3.46772 -1.04491,-8.27743 -0.59825,-8.72413 0.54188,-0.54179 5.43685,2.2916 10.29293,1.71318 12.58462,-1.49895 18.83343,-2.19206 16.28555,-12.13338 -0.96522,-3.7661 -0.91807,-4.09292 0.8647,-5.99046 1.55955,-1.66016 2.07865,-2.58243 0.93688,-3.52632 -1.89087,-1.56318 -2.27646,-1.06275 0.27978,-2.53858 1.01771,-0.58757 1.08844,-1.84853 0.6978,-4.16078 -0.52126,-3.08545 -0.47129,-3.16455 2.80895,-4.4532 6.00839,-2.36009 5.594,-4.57681 -3.36293,-17.99064 -2.84491,-4.2605 -4.94157,-6.6812 -4.28161,-7.25736 1.93992,-23.12913 -13.79042,-42.78204 -31.0413,-48.67371 -35.2614,-7.705999 -69.232428,8.52908 -69.972378,42.85065 0,12.26684 3.275311,20.74433 12.503021,32.36167 6.523767,8.21332 7.242087,12.91467 7.233867,23.97006 -0.005,6.65764 1.07608,7.22289 -1.077077,13.23294 -1.38608,3.86866 -3.24452,8.40496 -3.24452,8.66374 0,0.80936 59.907237,0.52786 60.408957,-0.28374 z"
       style="fill:#000000;fill-opacity:1;filter:url(#filter7636)"
       transform="matrix(0.73422702,0,0,0.73564287,52.493207,24.062968)" />
    <path
       style="fill:#d9c787;fill-opacity:1"
       d="m 165.23535,185.76008 c 0.18827,-0.30529 0.60645,-2.64217 0.92926,-5.19316 0.32283,-2.55101 -0.7672,-6.08923 -0.43925,-6.41785 0.39787,-0.39856 3.99188,1.6858 7.55735,1.26029 9.23997,-1.10269 13.82801,-1.61257 11.95729,-8.92583 -0.70869,-2.77051 -0.67407,-3.01093 0.63489,-4.40684 1.14506,-1.22129 1.5262,-1.89975 0.68788,-2.59411 -1.38833,-1.14995 -1.67144,-0.78181 0.20542,-1.86749 0.74723,-0.43224 0.79916,-1.35986 0.51234,-3.06085 -0.38272,-2.26979 -0.34603,-2.32798 2.06241,-3.27596 4.41152,-1.73619 4.10727,-3.3669 -2.46915,-13.23469 -2.08881,-3.13421 -3.62824,-4.91498 -3.14368,-5.33883 1.42435,-17.01478 -10.1253,-31.4723 -22.79136,-35.806456 -25.88987,-5.66887 -50.83232,6.274346 -51.37561,31.522766 0,9.02401 2.40482,15.26042 9.18005,23.80663 4.78993,6.04207 5.31734,9.50059 5.31131,17.63341 -0.004,4.89764 0.79008,5.31346 -0.79083,9.73471 -1.01769,2.84596 -2.38221,6.18305 -2.38221,6.37342 0,0.5954 43.98552,0.38832 44.35389,-0.20873 z"
       id="path4149"
       inkscape:connector-curvature="0"
       sodipodi:nodetypes="csssssssssscccscsssc" />
    <rect
       ry="21.401697"
       y="206.31796"
       x="101.93272"
       height="74.44442"
       width="102.81325"
       id="rect8869"
       style="opacity:1;fill:#000000;fill-opacity:1;fill-rule:nonzero;stroke:none;stroke-width:0.542;stroke-linecap:square;stroke-linejoin:round;stroke-miterlimit:4;stroke-dasharray:none;stroke-dashoffset:0;stroke-opacity:1;filter:url(#filter8907)" />
    <rect
       style="opacity:1;fill:#d9c787;fill-opacity:1;fill-rule:nonzero;stroke:none;stroke-width:0.542;stroke-linecap:square;stroke-linejoin:round;stroke-miterlimit:4;stroke-dasharray:none;stroke-dashoffset:0;stroke-opacity:1"
       id="rect7648"
       width="102.81325"
       height="74.44442"
       x="97.932724"
       y="202.31796"
       ry="21.401697" />
    <rect
       style="display:inline;opacity:1;fill:#d9c787;fill-opacity:1;fill-rule:nonzero;stroke:none;stroke-width:0.542;stroke-linecap:square;stroke-linejoin:round;stroke-miterlimit:4;stroke-dasharray:none;stroke-dashoffset:0;stroke-opacity:1"
       id="rect8920"
       width="210.23834"
       height="159.38991"
       x="76.144943"
       y="815.73438"
       ry="31.754566" />
    <g
       style="fill:#2c9087;fill-opacity:1"
       transform="matrix(0.07071224,0,0,0.07071224,294.16656,859.67634)"
       id="g10488">
      <path
         style="fill:#2c9087;fill-opacity:1"
         inkscape:connector-curvature="0"
         d="m -464.16751,-518.31029 c -6.176,0 -12.353,1.384 -17.137,4.152 l -152.753,88.36 c -9.57,5.536 -9.57,14.29 0,19.826 l 152.753,88.36 c 9.57,5.536 24.703,5.536 34.272,0 l 152.753,-88.36 c 9.57,-5.535 9.57,-14.29 0,-19.825 l -152.753,-88.36 c -4.785,-2.77 -10.96,-4.153 -17.135,-4.153 z m -0.824,53.11 c 9.013,0.097 17.117,2.162 24.31,6.192 4.92,2.758 8.143,5.903 9.666,9.438 1.473,3.507 1.56,8.13 0.26,13.865 l -1.6,5.706 c -1.06,4.083 -1.28,7.02 -0.66,8.81 0.57,1.764 1.983,3.278 4.242,4.544 l 3.39,1.898 -33.235,18.62 -3.693,-2.067 c -4.118,-2.306 -6.744,-4.912 -7.883,-7.82 -1.188,-2.935 -0.99,-7.603 0.594,-14.005 l 1.524,-5.748 c 0.887,-3.423 0.973,-6.23 0.26,-8.418 -0.653,-2.224 -2.134,-3.983 -4.444,-5.277 -3.515,-1.97 -7.726,-2.676 -12.63,-2.123 -4.956,0.526 -10.072,2.268 -15.35,5.225 -4.972,2.785 -9.487,6.272 -13.55,10.46 -4.112,4.162 -7.64,8.924 -10.587,14.288 l -23.65,-13.252 c 5.318,-5.34 10.543,-10.01 15.676,-14.013 5.134,-4 10.554,-7.6 16.262,-10.8 14.976,-8.39 28.903,-13.38 41.78,-14.967 3.208,-0.404 6.315,-0.59 9.32,-0.557 z m 50.757,56.7 26.815,15.024 -33.235,18.62 -26.816,-15.023 33.236,-18.62 z m -230.023,19.266 c -5.753,-0.155 -9.664,4.336 -9.664,12.28 l 0,157.696 c 0,11.052 7.57,24.163 17.14,29.69 l 146.93,84.848 c 9.57,5.525996 17.14,1.156 17.14,-9.895 l 0,-157.699 c 0,-11.052 -7.57,-24.16 -17.14,-29.688 l -146.93,-84.847 c -2.69,-1.555 -5.225,-2.327 -7.476,-2.387 z m 360.773,0 c -2.25,0.06 -4.783,0.83 -7.474,2.385 l -146.935,84.847 c -9.57,5.527 -17.14,18.638 -17.14,29.69 l 0,157.7 c 0,11.05 7.57,15.417996 17.14,9.89 l 146.936,-84.844 c 9.57,-5.527 17.137,-18.636 17.137,-29.688 l 0,-157.7 c 0,-7.942 -3.91,-12.432 -9.664,-12.278 z m -321.545,63.752 c 6.553,1.366 12.538,3.038 17.954,5.013 5.415,1.976 10.643,4.417 15.68,7.325 13.213,7.63 23.286,16.324 30.218,26.082 6.932,9.7 10.398,20.046 10.398,31.04 0,5.64 -1.055,10.094 -3.168,13.364 -2.112,3.212 -5.714,5.91 -10.804,8.094 l -5.2,1.92 c -3.682,1.442 -6.093,2.928 -7.23,4.46 -1.137,1.472 -1.705,3.502 -1.705,6.092 l 0,3.885 -29.325,-16.933 0,-4.23 c 0,-4.72 0.892,-8.376 2.68,-10.97 1.787,-2.652 5.552,-5.14 11.292,-7.467 l 5.2,-2.006 c 3.087,-1.21 5.334,-2.732 6.742,-4.567 1.46,-1.803 2.192,-4.028 2.192,-6.676 0,-4.027 -1.3,-7.915 -3.9,-11.66 -2.6,-3.804 -6.227,-7.05 -10.885,-9.74 -4.387,-2.532 -9.126,-4.29 -14.217,-5.272 -5.09,-1.04 -10.398,-1.254 -15.922,-0.645 l 0,-27.11 z m 269.54,8.607 c 1.522,0 2.932,0.165 4.232,0.493 6.932,1.696 10.398,8.04 10.398,19.034 0,5.64 -1.056,11.314 -3.168,17.023 -2.112,5.65 -5.714,12.507 -10.804,20.568 l -5.2,7.924 c -3.682,5.695 -6.093,9.963 -7.23,12.807 -1.137,2.785 -1.705,5.473 -1.705,8.063 l 0,3.885 -29.325,16.932 0,-4.23 c 0,-4.72 0.894,-9.41 2.68,-14.067 1.79,-4.715 5.552,-11.55 11.292,-20.504 l 5.2,-8.01 c 3.087,-4.776 5.334,-8.894 6.742,-12.354 1.46,-3.492 2.192,-6.562 2.192,-9.21 0,-4.028 -1.3,-6.414 -3.898,-7.158 -2.6,-0.8 -6.23,0.142 -10.887,2.83 -4.387,2.533 -9.124,6.25 -14.215,11.145 -5.09,4.84 -10.398,10.752 -15.922,17.74 l 0,-27.11 c 6.553,-6.2 12.536,-11.44 17.95,-15.718 5.417,-4.278 10.645,-7.87 15.68,-10.777 10.738,-6.2 19.4,-9.302 25.99,-9.307 z m -252.723,94.515 29.326,16.93 0,30.736 -29.325,-16.93 0,-30.735 z m 239.246,8.06 0,30.735 -29.325,16.93 0,-30.733 29.326,-16.932 z"
         id="path10490" />
    </g>
    <rect
       ry="31.782372"
       y="815.65936"
       x="541.10138"
       height="159.52946"
       width="208.29797"
       id="rect5069"
       style="display:inline;opacity:1;fill:#d9c787;fill-opacity:1;fill-rule:nonzero;stroke:none;stroke-width:0.542;stroke-linecap:square;stroke-linejoin:round;stroke-miterlimit:4;stroke-dasharray:none;stroke-dashoffset:0;stroke-opacity:1" />
    <g
       id="g6516"
       transform="matrix(0.07071224,0,0,0.07071224,756.30941,859.67634)"
       style="fill:#2c9087;fill-opacity:1">
      <path
         id="path6518"
         d="m -464.16751,-518.31029 c -6.176,0 -12.353,1.384 -17.137,4.152 l -152.753,88.36 c -9.57,5.536 -9.57,14.29 0,19.826 l 152.753,88.36 c 9.57,5.536 24.703,5.536 34.272,0 l 152.753,-88.36 c 9.57,-5.535 9.57,-14.29 0,-19.825 l -152.753,-88.36 c -4.785,-2.77 -10.96,-4.153 -17.135,-4.153 z m -0.824,53.11 c 9.013,0.097 17.117,2.162 24.31,6.192 4.92,2.758 8.143,5.903 9.666,9.438 1.473,3.507 1.56,8.13 0.26,13.865 l -1.6,5.706 c -1.06,4.083 -1.28,7.02 -0.66,8.81 0.57,1.764 1.983,3.278 4.242,4.544 l 3.39,1.898 -33.235,18.62 -3.693,-2.067 c -4.118,-2.306 -6.744,-4.912 -7.883,-7.82 -1.188,-2.935 -0.99,-7.603 0.594,-14.005 l 1.524,-5.748 c 0.887,-3.423 0.973,-6.23 0.26,-8.418 -0.653,-2.224 -2.134,-3.983 -4.444,-5.277 -3.515,-1.97 -7.726,-2.676 -12.63,-2.123 -4.956,0.526 -10.072,2.268 -15.35,5.225 -4.972,2.785 -9.487,6.272 -13.55,10.46 -4.112,4.162 -7.64,8.924 -10.587,14.288 l -23.65,-13.252 c 5.318,-5.34 10.543,-10.01 15.676,-14.013 5.134,-4 10.554,-7.6 16.262,-10.8 14.976,-8.39 28.903,-13.38 41.78,-14.967 3.208,-0.404 6.315,-0.59 9.32,-0.557 z m 50.757,56.7 26.815,15.024 -33.235,18.62 -26.816,-15.023 33.236,-18.62 z m -230.023,19.266 c -5.753,-0.155 -9.664,4.336 -9.664,12.28 l 0,157.696 c 0,11.052 7.57,24.163 17.14,29.69 l 146.93,84.848 c 9.57,5.525996 17.14,1.156 17.14,-9.895 l 0,-157.699 c 0,-11.052 -7.57,-24.16 -17.14,-29.688 l -146.93,-84.847 c -2.69,-1.555 -5.225,-2.327 -7.476,-2.387 z m 360.773,0 c -2.25,0.06 -4.783,0.83 -7.474,2.385 l -146.935,84.847 c -9.57,5.527 -17.14,18.638 -17.14,29.69 l 0,157.7 c 0,11.05 7.57,15.417996 17.14,9.89 l 146.936,-84.844 c 9.57,-5.527 17.137,-18.636 17.137,-29.688 l 0,-157.7 c 0,-7.942 -3.91,-12.432 -9.664,-12.278 z m -321.545,63.752 c 6.553,1.366 12.538,3.038 17.954,5.013 5.415,1.976 10.643,4.417 15.68,7.325 13.213,7.63 23.286,16.324 30.218,26.082 6.932,9.7 10.398,20.046 10.398,31.04 0,5.64 -1.055,10.094 -3.168,13.364 -2.112,3.212 -5.714,5.91 -10.804,8.094 l -5.2,1.92 c -3.682,1.442 -6.093,2.928 -7.23,4.46 -1.137,1.472 -1.705,3.502 -1.705,6.092 l 0,3.885 -29.325,-16.933 0,-4.23 c 0,-4.72 0.892,-8.376 2.68,-10.97 1.787,-2.652 5.552,-5.14 11.292,-7.467 l 5.2,-2.006 c 3.087,-1.21 5.334,-2.732 6.742,-4.567 1.46,-1.803 2.192,-4.028 2.192,-6.676 0,-4.027 -1.3,-7.915 -3.9,-11.66 -2.6,-3.804 -6.227,-7.05 -10.885,-9.74 -4.387,-2.532 -9.126,-4.29 -14.217,-5.272 -5.09,-1.04 -10.398,-1.254 -15.922,-0.645 l 0,-27.11 z m 269.54,8.607 c 1.522,0 2.932,0.165 4.232,0.493 6.932,1.696 10.398,8.04 10.398,19.034 0,5.64 -1.056,11.314 -3.168,17.023 -2.112,5.65 -5.714,12.507 -10.804,20.568 l -5.2,7.924 c -3.682,5.695 -6.093,9.963 -7.23,12.807 -1.137,2.785 -1.705,5.473 -1.705,8.063 l 0,3.885 -29.325,16.932 0,-4.23 c 0,-4.72 0.894,-9.41 2.68,-14.067 1.79,-4.715 5.552,-11.55 11.292,-20.504 l 5.2,-8.01 c 3.087,-4.776 5.334,-8.894 6.742,-12.354 1.46,-3.492 2.192,-6.562 2.192,-9.21 0,-4.028 -1.3,-6.414 -3.898,-7.158 -2.6,-0.8 -6.23,0.142 -10.887,2.83 -4.387,2.533 -9.124,6.25 -14.215,11.145 -5.09,4.84 -10.398,10.752 -15.922,17.74 l 0,-27.11 c 6.553,-6.2 12.536,-11.44 17.95,-15.718 5.417,-4.278 10.645,-7.87 15.68,-10.777 10.738,-6.2 19.4,-9.302 25.99,-9.307 z m -252.723,94.515 29.326,16.93 0,30.736 -29.325,-16.93 0,-30.735 z m 239.246,8.06 0,30.735 -29.325,16.93 0,-30.733 29.326,-16.932 z"
         inkscape:connector-curvature="0"
         style="fill:#2c9087;fill-opacity:1" />
    </g>
  </g>
</svg>
