<?xml version="1.0" encoding="UTF-8" standalone="no"?>
<!-- Created with Inkscape (http://www.inkscape.org/) -->

<svg
   xmlns:dc="http://purl.org/dc/elements/1.1/"
   xmlns:cc="http://creativecommons.org/ns#"
   xmlns:rdf="http://www.w3.org/1999/02/22-rdf-syntax-ns#"
   xmlns:svg="http://www.w3.org/2000/svg"
   xmlns="http://www.w3.org/2000/svg"
   xmlns:sodipodi="http://sodipodi.sourceforge.net/DTD/sodipodi-0.dtd"
   xmlns:inkscape="http://www.inkscape.org/namespaces/inkscape"
   width="825"
   height="1125"
   viewBox="0 0 825.00001 1125"
   id="svg4454"
   version="1.1"
   inkscape:version="0.91 r13725"
   sodipodi:docname="character.svg">
  <defs
     id="defs4456" />
  <sodipodi:namedview
     id="base"
     pagecolor="#ffffff"
     bordercolor="#666666"
     borderopacity="1.0"
     inkscape:pageopacity="0.0"
     inkscape:pageshadow="2"
     inkscape:zoom="0.7"
     inkscape:cx="-85.351949"
     inkscape:cy="520.78581"
     inkscape:document-units="px"
     inkscape:current-layer="layer1"
     showgrid="false"
     inkscape:window-width="1920"
     inkscape:window-height="1017"
     inkscape:window-x="-8"
     inkscape:window-y="-8"
     inkscape:window-maximized="1"
     units="px"
     showguides="true"
     inkscape:guide-bbox="true" />
  <metadata
     id="metadata4459">
    <rdf:RDF>
      <cc:Work
         rdf:about="">
        <dc:format>image/svg+xml</dc:format>
        <dc:type
           rdf:resource="http://purl.org/dc/dcmitype/StillImage" />
        <dc:title />
      </cc:Work>
    </rdf:RDF>
  </metadata>
  <g
     inkscape:label="Layer 1"
     inkscape:groupmode="layer"
     id="layer1"
     transform="translate(0,72.637839)">
    <g
       id="g4412"
       transform="translate(-2.9136047,0)">
      <rect
         ry="79.731812"
         y="866.77905"
         x="-190.27612"
         height="357.02405"
         width="591.37946"
         id="rect5010"
         style="fill:none;stroke:#000000;stroke-width:2.56993198;stroke-miterlimit:4;stroke-dasharray:none;stroke-dashoffset:0;stroke-opacity:1" />
      <rect
         style="fill:none;stroke:#000000;stroke-width:2.56993198;stroke-miterlimit:4;stroke-dasharray:none;stroke-dashoffset:0;stroke-opacity:1"
         id="rect4410"
         width="591.37946"
         height="357.02405"
         x="429.72388"
         y="866.77905"
         ry="79.731812" />
    </g>
    <rect
       ry="41.976868"
       y="654.42548"
       x="462.33539"
       height="187.96449"
       width="302.71762"
       id="rect4424"
       style="fill:none;stroke:#000000;stroke-width:2.5;stroke-miterlimit:4;stroke-dasharray:none;stroke-dashoffset:0;stroke-opacity:1" />
    <path
       style="fill:#000000"
       d="m 130.0044,166.29558 c 0.20669,-0.33451 0.66579,-2.89511 1.02019,-5.69031 0.35441,-2.79522 -0.84227,-6.67217 -0.48223,-7.03224 0.43679,-0.43672 4.38247,1.84718 8.2968,1.38094 10.14405,-1.20826 15.18102,-1.76695 13.12725,-9.78033 -0.77803,-3.03573 -0.74002,-3.29917 0.69701,-4.82872 1.2571,-1.3382 1.67553,-2.08161 0.75519,-2.84245 -1.52417,-1.26003 -1.83498,-0.85665 0.22552,-2.04627 0.82034,-0.47362 0.87736,-1.49004 0.56247,-3.35387 -0.42017,-2.48708 -0.37989,-2.55084 2.26421,-3.58958 4.84317,-1.90239 4.50914,-3.68922 -2.71075,-14.50167 -2.29319,-3.43425 -3.98324,-5.3855 -3.45127,-5.84993 1.56371,-18.64364 -11.11601,-34.485217 -25.02139,-39.234297 -28.423084,-6.211562 -55.806026,6.87501 -56.402474,34.540517 0,9.88791 2.640121,16.72134 10.078277,26.0857 5.2586,6.62049 5.837623,10.4101 5.830994,19.32149 -0.0036,5.36651 0.867386,5.82214 -0.868207,10.66665 -1.117266,3.1184 -2.615298,6.77497 -2.615298,6.98356 0,0.6524 48.289288,0.42549 48.693708,-0.22871 z"
       id="path4149"
       inkscape:connector-curvature="0"
       sodipodi:nodetypes="csssssssssscccscsssc" />
    <text
       xml:space="preserve"
       style="font-style:normal;font-weight:normal;font-size:40px;line-height:125%;font-family:sans-serif;letter-spacing:0px;word-spacing:0px;fill:#000000;fill-opacity:1;stroke:none;stroke-width:1px;stroke-linecap:butt;stroke-linejoin:miter;stroke-opacity:1"
       x="55.714287"
       y="929.50507"
       id="text4761"
       sodipodi:linespacing="125%"><tspan
         sodipodi:role="line"
         id="tspan4763"
         x="55.714287"
         y="929.50507"
         style="font-style:normal;font-variant:normal;font-weight:normal;font-stretch:normal;font-family:'archivo narrow';-inkscape-font-specification:'archivo narrow'">Place skill card here</tspan></text>
    <text
       sodipodi:linespacing="125%"
       id="text4769"
       y="929.50507"
       x="487.14285"
       style="font-style:normal;font-weight:normal;font-size:40px;line-height:125%;font-family:sans-serif;letter-spacing:0px;word-spacing:0px;fill:#000000;fill-opacity:1;stroke:none;stroke-width:1px;stroke-linecap:butt;stroke-linejoin:miter;stroke-opacity:1"
       xml:space="preserve"><tspan
         style="font-style:normal;font-variant:normal;font-weight:normal;font-stretch:normal;font-family:'archivo narrow';-inkscape-font-specification:'archivo narrow'"
         y="929.50507"
         x="487.14285"
         id="tspan4771"
         sodipodi:role="line">Place skill card here</tspan></text>
    <rect
       style="fill:none;stroke:#000000;stroke-width:2.5;stroke-miterlimit:4;stroke-dasharray:none;stroke-dashoffset:0;stroke-opacity:1"
       id="rect4775"
       width="302.71762"
       height="187.96449"
       x="58.049675"
       y="654.42548"
       ry="41.976868" />
  </g>
</svg>
