<?xml version="1.0" encoding="UTF-8" standalone="no"?>
<!-- Created with Inkscape (http://www.inkscape.org/) -->

<svg
   xmlns:dc="http://purl.org/dc/elements/1.1/"
   xmlns:cc="http://creativecommons.org/ns#"
   xmlns:rdf="http://www.w3.org/1999/02/22-rdf-syntax-ns#"
   xmlns:svg="http://www.w3.org/2000/svg"
   xmlns="http://www.w3.org/2000/svg"
   xmlns:sodipodi="http://sodipodi.sourceforge.net/DTD/sodipodi-0.dtd"
   xmlns:inkscape="http://www.inkscape.org/namespaces/inkscape"
   width="825"
   height="1125"
   viewBox="0 0 825.00001 1125"
   id="svg4454"
   version="1.1"
   inkscape:version="0.91 r13725"
   sodipodi:docname="character.svg">
  <defs
     id="defs4456" />
  <sodipodi:namedview
     id="base"
     pagecolor="#ffffff"
     bordercolor="#666666"
     borderopacity="1.0"
     inkscape:pageopacity="0.0"
     inkscape:pageshadow="2"
     inkscape:zoom="0.49497475"
     inkscape:cx="-88.506059"
     inkscape:cy="494.67565"
     inkscape:document-units="px"
     inkscape:current-layer="layer1"
     showgrid="false"
     inkscape:window-width="1920"
     inkscape:window-height="1017"
     inkscape:window-x="-8"
     inkscape:window-y="-8"
     inkscape:window-maximized="1"
     units="px"
     showguides="true"
     inkscape:guide-bbox="true">
    <sodipodi:guide
       position="40.714286,75"
       orientation="0,1"
       id="guide4151" />
    <sodipodi:guide
       position="750.00001,314.28571"
       orientation="1,0"
       id="guide4800" />
    <sodipodi:guide
       position="75.000001,362.5"
       orientation="1,0"
       id="guide4802" />
  </sodipodi:namedview>
  <metadata
     id="metadata4459">
    <rdf:RDF>
      <cc:Work
         rdf:about="">
        <dc:format>image/svg+xml</dc:format>
        <dc:type
           rdf:resource="http://purl.org/dc/dcmitype/StillImage" />
        <dc:title />
      </cc:Work>
    </rdf:RDF>
  </metadata>
  <g
     inkscape:label="Layer 1"
     inkscape:groupmode="layer"
     id="layer1"
     transform="translate(0,72.637839)">
    <rect
       ry="41.976757"
       y="787.76617"
       x="536.24255"
       height="187.964"
       width="212.5"
       id="rect4424"
       style="fill:none;stroke:#000000;stroke-width:2.5;stroke-miterlimit:4;stroke-dasharray:none;stroke-dashoffset:0;stroke-opacity:1" />
    <rect
       style="fill:none;stroke:#000000;stroke-width:2.5;stroke-miterlimit:4;stroke-dasharray:none;stroke-dashoffset:0;stroke-opacity:1"
       id="rect4775"
       width="212.5"
       height="187.96449"
       x="74.835388"
       y="787.76562"
       ry="41.976868" />
    <path
       style="fill:none;fill-opacity:1;stroke:#000000;stroke-width:3;stroke-miterlimit:4;stroke-dasharray:none;stroke-opacity:1"
       d="m 169.82425,198.37036 c 0.25641,-0.41499 0.82597,-3.59165 1.26563,-7.05935 0.43968,-3.46772 -1.04491,-8.27743 -0.59825,-8.72413 0.54188,-0.54179 5.43685,2.2916 10.29293,1.71318 12.58462,-1.49895 18.83343,-2.19206 16.28555,-12.13338 -0.96522,-3.7661 -0.91807,-4.09292 0.8647,-5.99046 1.55955,-1.66016 2.07865,-2.58243 0.93688,-3.52632 -1.89087,-1.56318 -2.27646,-1.06275 0.27978,-2.53858 1.01771,-0.58757 1.08844,-1.84853 0.6978,-4.16078 -0.52126,-3.08545 -0.47129,-3.16455 2.80895,-4.4532 6.00839,-2.36009 5.594,-4.57681 -3.36293,-17.99064 -2.84491,-4.2605 -4.94157,-6.6812 -4.28161,-7.25736 1.93992,-23.12913 -13.79042,-42.782036 -31.0413,-48.673705 -35.2614,-7.706 -69.23243,8.529079 -69.97238,42.850645 0,12.26684 3.27531,20.74433 12.50302,32.36167 6.52377,8.21332 7.24209,12.91467 7.23387,23.97006 -0.005,6.65764 1.07608,7.22289 -1.07708,13.23294 -1.38608,3.86866 -3.24452,8.40496 -3.24452,8.66374 0,0.80936 59.90724,0.52786 60.40896,-0.28374 z"
       id="path4149"
       inkscape:connector-curvature="0"
       sodipodi:nodetypes="csssssssssscccscsssc" />
  </g>
</svg>
