<?xml version="1.0" encoding="UTF-8" standalone="no"?>
<!-- Created with Inkscape (http://www.inkscape.org/) -->

<svg
   xmlns:dc="http://purl.org/dc/elements/1.1/"
   xmlns:cc="http://creativecommons.org/ns#"
   xmlns:rdf="http://www.w3.org/1999/02/22-rdf-syntax-ns#"
   xmlns:svg="http://www.w3.org/2000/svg"
   xmlns="http://www.w3.org/2000/svg"
   xmlns:sodipodi="http://sodipodi.sourceforge.net/DTD/sodipodi-0.dtd"
   xmlns:inkscape="http://www.inkscape.org/namespaces/inkscape"
   width="825"
   height="1125"
   viewBox="0 0 825.00001 1125"
   id="svg4454"
   version="1.1"
   inkscape:version="0.91 r13725"
   sodipodi:docname="character.svg">
  <defs
     id="defs4456" />
  <sodipodi:namedview
     id="base"
     pagecolor="#ffffff"
     bordercolor="#666666"
     borderopacity="1.0"
     inkscape:pageopacity="0.0"
     inkscape:pageshadow="2"
     inkscape:zoom="3.959798"
     inkscape:cx="34.521188"
     inkscape:cy="952.48642"
     inkscape:document-units="px"
     inkscape:current-layer="layer1"
     showgrid="false"
     inkscape:window-width="1920"
     inkscape:window-height="1017"
     inkscape:window-x="-8"
     inkscape:window-y="-8"
     inkscape:window-maximized="1"
     units="px"
     showguides="true"
     inkscape:guide-bbox="true" />
  <metadata
     id="metadata4459">
    <rdf:RDF>
      <cc:Work
         rdf:about="">
        <dc:format>image/svg+xml</dc:format>
        <dc:type
           rdf:resource="http://purl.org/dc/dcmitype/StillImage" />
        <dc:title />
      </cc:Work>
    </rdf:RDF>
  </metadata>
  <g
     inkscape:label="Layer 1"
     inkscape:groupmode="layer"
     id="layer1"
     transform="translate(0,72.637839)">
    <g
       id="g4290"
       style="fill:#000000">
      <path
         inkscape:export-ydpi="52.639999"
         inkscape:export-xdpi="52.639999"
         inkscape:export-filename="G:\apmeneel\Documents\Board Games\Grifters Cards\decks\skill.png"
         sodipodi:nodetypes="ccccccc"
         inkscape:connector-curvature="0"
         id="rect3817"
         d="m 97.718186,4.1718533 c 2.012908,4.4024639 5.835174,7.7885117 9.004374,11.0555387 -0.63369,1.880615 -0.59638,1.372677 -1.39134,3.092017 -0.26705,-0.473787 -0.91275,-0.568916 -1.45612,-0.766389 -2.73873,4.502711 -4.692734,8.12997 -7.720523,12.023464 C 87.4783,25.168663 85.738471,25.85476 81.929003,24.894264 88.48689,17.771206 92.924626,11.956533 97.718186,4.1718533 Z"
         style="fill:#000000;fill-opacity:1;fill-rule:nonzero;stroke:none" />
      <g
         transform="matrix(0.81161288,0.58419563,-0.58419563,0.81161288,0,0)"
         style="font-style:normal;font-variant:normal;font-weight:normal;font-stretch:normal;font-size:20.39699936px;line-height:125%;font-family:Rockwell;-inkscape-font-specification:Rockwell;letter-spacing:0px;word-spacing:0px;fill:#ffffff;fill-opacity:1;stroke:none"
         id="text3828">
        <path
           d="m 89.853453,-48.044991 0,4.631154 q 3.137234,0.876434 3.137234,3.794559 0,2.948004 -3.137234,3.734802 l 0,2.041692 -0.617487,0 0,-1.922178 q -0.418298,0.0498 -0.717082,0.0498 -0.229068,0 -0.488014,-0.02988 l 0,1.902259 -0.607528,0 0,-1.922178 q -1.673192,-0.278865 -2.519747,-1.165258 -0.846555,-0.896353 -0.846555,-1.912219 0,-0.657325 0.37846,-1.025826 0.37846,-0.37846 1.005907,-0.37846 0.55773,0 0.916271,0.37846 0.368501,0.368501 0.368501,0.886393 0,0.478055 -0.298784,0.826637 -0.298785,0.338622 -0.677245,0.438216 -0.3685,0.0996 -0.3685,0.258947 0,0.239027 0.517892,0.56769 0.517893,0.328662 1.5238,0.497973 l 0,-4.750668 q -3.077477,-0.995947 -3.077477,-3.655126 0,-2.798612 3.077477,-3.734803 l 0,-1.035785 0.607528,0 0,0.936191 q 0.647365,-0.07968 1.205096,-0.03984 l 0,-0.896353 0.617487,0 0,0.936191 q 1.543718,0.239027 2.310598,1.035785 0.766879,0.786798 0.766879,1.613434 0,0.57765 -0.318703,0.976029 -0.318703,0.388419 -0.906312,0.388419 -0.517893,0 -0.826636,-0.318703 -0.298785,-0.318703 -0.298785,-0.796758 0,-0.856514 0.856515,-1.085582 0.308744,-0.05976 0.308744,-0.219109 0,-0.219108 -0.517893,-0.527852 -0.507933,-0.318703 -1.374407,-0.478054 z m -0.617487,4.471803 0,-4.511641 q -0.737001,0 -1.205096,0.07968 l 0,4.103303 q 0.677244,0.229068 1.205096,0.328663 z m -1.812624,-0.507933 0,-3.814478 q -1.792705,0.607527 -1.792705,2.011813 0,1.304691 1.792705,1.802665 z m 1.812624,7.688712 0,-4.222816 -1.205096,-0.348582 0,4.631155 q 0.398378,0.02988 1.205096,-0.05976 z m 0.617487,-4.043546 0,3.96387 q 1.005907,-0.278865 1.483961,-0.866474 0.488015,-0.587609 0.488015,-1.254893 0,-1.414245 -1.971976,-1.842503 z"
           style="font-style:normal;font-variant:normal;font-weight:bold;font-stretch:normal;font-family:'Bodoni MT';-inkscape-font-specification:'Bodoni MT Bold';fill:#ffffff"
           id="path4378" />
      </g>
      <path
         inkscape:export-ydpi="52.639999"
         inkscape:export-xdpi="52.639999"
         inkscape:export-filename="G:\apmeneel\Documents\Board Games\Grifters Cards\decks\skill.png"
         sodipodi:nodetypes="ccccccccccccccccccc"
         inkscape:connector-curvature="0"
         id="path3024"
         d="m 103.6306,18.735337 c -3.09359,5.432252 -6.141506,10.905104 -10.201582,15.478256 4.933951,6.301032 11.575072,11.522002 15.090992,20.051376 -0.0743,6.398758 -2.59407,12.578181 -4.0686,18.761518 7.57432,-0.832518 15.30565,-0.72296 23.10013,-0.234518 0.039,-5.628457 0.94877,-11.132541 0.11725,-16.885369 1.23646,-2.16862 3.80411,-3.329057 4.69038,-5.628455 0.23134,-4.145541 1.78931,-8.166709 1.81336,-12.560993 -2.47036,1.500891 -4.22172,3.877266 -6.50374,5.642682 -1.71195,-1.552317 -3.90322,-2.762266 -4.9249,-4.807639 -3.27282,-0.202008 -6.43052,-0.691804 -9.2635,-1.993412 -2.92335,-1.337984 -5.22321,-3.368737 -8.79446,-3.986823 0.95249,-1.012068 1.74367,-2.508109 2.46245,-4.221342 0.37055,0.662568 0.65462,0.932038 1.25861,1.049933 -0.52686,0.946229 -1.27545,1.786282 -1.77934,2.482894 2.52475,1.330589 5.76674,3.266425 8.51482,4.15037 1.03579,-0.947847 1.97477,-2.678325 2.83467,-3.890006 0.39087,-2.188845 0.27181,-4.887614 0.66267,-7.076459 -5.18909,-1.966633 -9.45889,-3.553441 -15.00921,-6.332013"
         style="display:inline;fill:#000000;stroke:none" />
      <path
         inkscape:export-ydpi="52.639999"
         inkscape:export-xdpi="52.639999"
         inkscape:export-filename="G:\apmeneel\Documents\Board Games\Grifters Cards\decks\skill.png"
         sodipodi:nodetypes="ccccc"
         inkscape:connector-curvature="0"
         id="path3028"
         d="m 113.15793,21.784085 c 2.06388,-2.955889 3.538,-4.85209 4.69038,-7.504609 -1.81706,-2.86275 -3.54761,-3.058675 -6.0975,-4.104082 -2.30583,1.667923 -4.69835,6.073551 -6.06817,8.765147 2.37896,1.038401 4.24388,2.000448 7.47529,2.843544 z"
         style="display:inline;fill:#000000;stroke:none" />
      <path
         inkscape:export-ydpi="52.639999"
         inkscape:export-xdpi="52.639999"
         inkscape:export-filename="G:\apmeneel\Documents\Board Games\Grifters Cards\decks\skill.png"
         sodipodi:nodetypes="cccccc"
         inkscape:connector-curvature="0"
         id="path3032"
         d="m 114.33052,22.487642 c 1.8673,1.411812 3.52224,1.720649 5.04216,2.46245 -0.35991,1.250768 -0.30181,1.959329 -0.35178,3.752304 2.60723,-2.042651 5.3816,-6.899676 6.80106,-9.263501 -1.81415,-1.828194 -3.90885,-3.732301 -7.03557,-4.690381 -1.84679,2.50135 -3.32537,5.077707 -4.45587,7.739128"
         style="display:inline;fill:#000000;stroke:none" />
      <path
         inkscape:export-ydpi="52.639999"
         inkscape:export-xdpi="52.639999"
         inkscape:export-filename="G:\apmeneel\Documents\Board Games\Grifters Cards\decks\skill.png"
         sodipodi:nodetypes="ccccc"
         inkscape:connector-curvature="0"
         id="path3036"
         d="m 125.81484,21.598136 c -2.63761,4.566848 -6.24399,10.026861 -9.3263,14.445479 1.38216,1.748467 4.2314,0.639645 6.4635,1.77657 2.91164,-4.289896 6.02155,-7.900251 9.54659,-11.883447 -2.13977,-1.989761 -4.31519,-3.380905 -6.68379,-4.338602"
         style="display:inline;fill:#000000;stroke:none" />
      <path
         inkscape:export-ydpi="52.639999"
         inkscape:export-xdpi="52.639999"
         inkscape:export-filename="G:\apmeneel\Documents\Board Games\Grifters Cards\decks\skill.png"
         sodipodi:nodetypes="ccccc"
         inkscape:connector-curvature="0"
         id="path3040"
         d="m 133.09204,26.855558 c -4.67353,3.71617 -6.54432,8.779525 -9.20192,11.523695 1.13559,1.098733 2.11533,2.742709 3.69073,4.159764 3.64927,-3.490551 6.80105,-6.566532 10.20158,-9.849798 -0.87904,-2.044821 -2.79987,-4.561101 -4.69039,-5.833661"
         style="display:inline;fill:#000000;stroke:none" />
    </g>
    <g
       id="g4412"
       transform="translate(-2.9136047,0)">
      <rect
         ry="79.731812"
         y="866.77905"
         x="-190.27612"
         height="357.02405"
         width="591.37946"
         id="rect5010"
         style="fill:none;stroke:#000000;stroke-width:2.56993198;stroke-miterlimit:4;stroke-dasharray:none;stroke-dashoffset:0;stroke-opacity:1" />
      <rect
         style="fill:none;stroke:#000000;stroke-width:2.56993198;stroke-miterlimit:4;stroke-dasharray:none;stroke-dashoffset:0;stroke-opacity:1"
         id="rect4410"
         width="591.37946"
         height="357.02405"
         x="429.72388"
         y="866.77905"
         ry="79.731812" />
    </g>
    <rect
       style="fill:none;stroke:#000000;stroke-width:1.10078728;stroke-miterlimit:4;stroke-dasharray:none;stroke-dashoffset:0;stroke-opacity:1"
       id="rect5081"
       width="302.71762"
       height="127.96449"
       x="-362.66461"
       y="-842.39014"
       ry="28.577463"
       transform="scale(-1,-1)" />
    <rect
       ry="28.577463"
       y="714.42548"
       x="462.33539"
       height="127.96449"
       width="302.71762"
       id="rect4424"
       style="fill:none;stroke:#000000;stroke-width:1.10078728;stroke-miterlimit:4;stroke-dasharray:none;stroke-dashoffset:0;stroke-opacity:1" />
    <path
       style="fill:#000000"
       d="m 116.54591,163.09179 c 0.16118,-0.26085 0.51918,-2.25761 0.79554,-4.43731 0.27637,-2.17971 -0.6568,-5.20296 -0.37604,-5.48374 0.34061,-0.34055 3.41745,1.44043 6.46985,1.07686 7.91033,-0.9422 11.83816,-1.37787 10.23663,-7.62671 -0.60671,-2.36726 -0.57707,-2.57269 0.54353,-3.76543 0.98029,-1.04353 1.30658,-1.62324 0.5889,-2.21655 -1.18855,-0.98257 -1.43092,-0.66801 0.17586,-1.59568 0.6397,-0.36933 0.68416,-1.16193 0.43861,-2.61535 -0.32765,-1.93942 -0.29624,-1.98914 1.76563,-2.79915 3.77671,-1.48349 3.51623,-2.87686 -2.11384,-11.30841 -1.78823,-2.67803 -3.10613,-4.19961 -2.6913,-4.56178 1.21938,-14.53831 -8.66827,-26.891582 -19.51169,-30.594913 -22.164328,-4.843779 -43.517554,5.361132 -43.982664,26.934703 0,7.7106 2.058767,13.03931 7.859043,20.34164 4.100658,5.16266 4.55218,8.1178 4.547011,15.0669 -0.0028,4.18481 0.676388,4.54011 -0.677028,8.31786 -0.871244,2.43173 -2.03941,5.28312 -2.03941,5.44578 0,0.50874 37.655998,0.3318 37.971368,-0.17835 z"
       id="path4149"
       inkscape:connector-curvature="0"
       sodipodi:nodetypes="csssssssssscccscsssc" />
  </g>
</svg>
