<?xml version="1.0" encoding="UTF-8" standalone="no"?>
<!-- Created with Inkscape (http://www.inkscape.org/) -->

<svg
   xmlns:dc="http://purl.org/dc/elements/1.1/"
   xmlns:cc="http://creativecommons.org/ns#"
   xmlns:rdf="http://www.w3.org/1999/02/22-rdf-syntax-ns#"
   xmlns:svg="http://www.w3.org/2000/svg"
   xmlns="http://www.w3.org/2000/svg"
   xmlns:sodipodi="http://sodipodi.sourceforge.net/DTD/sodipodi-0.dtd"
   xmlns:inkscape="http://www.inkscape.org/namespaces/inkscape"
   width="825"
   height="1125"
   viewBox="0 0 825.00001 1125"
   id="svg4454"
   version="1.1"
   inkscape:version="0.91 r13725"
   sodipodi:docname="character.svg">
  <defs
     id="defs4456" />
  <sodipodi:namedview
     id="base"
     pagecolor="#ffffff"
     bordercolor="#666666"
     borderopacity="1.0"
     inkscape:pageopacity="0.0"
     inkscape:pageshadow="2"
     inkscape:zoom="0.7"
     inkscape:cx="402.06888"
     inkscape:cy="533.09126"
     inkscape:document-units="px"
     inkscape:current-layer="layer1"
     showgrid="false"
     inkscape:window-width="1920"
     inkscape:window-height="1017"
     inkscape:window-x="-8"
     inkscape:window-y="-8"
     inkscape:window-maximized="1"
     units="px"
     showguides="true"
     inkscape:guide-bbox="true" />
  <metadata
     id="metadata4459">
    <rdf:RDF>
      <cc:Work
         rdf:about="">
        <dc:format>image/svg+xml</dc:format>
        <dc:type
           rdf:resource="http://purl.org/dc/dcmitype/StillImage" />
        <dc:title />
      </cc:Work>
    </rdf:RDF>
  </metadata>
  <g
     inkscape:label="Layer 1"
     inkscape:groupmode="layer"
     id="layer1"
     transform="translate(0,72.637839)">
    <rect
       style="fill:#000000;stroke:none;stroke-width:1.75600004;stroke-miterlimit:4;stroke-dasharray:none;stroke-dashoffset:0;stroke-opacity:1"
       id="rect5894"
       width="79.296974"
       height="79.296974"
       x="67.680222"
       y="-1.0493181"
       ry="12.831145" />
    <g
       id="g4290">
      <path
         inkscape:export-ydpi="52.639999"
         inkscape:export-xdpi="52.639999"
         inkscape:export-filename="G:\apmeneel\Documents\Board Games\Grifters Cards\decks\skill.png"
         sodipodi:nodetypes="ccccccc"
         inkscape:connector-curvature="0"
         id="rect3817"
         d="m 97.718186,4.1718533 c 2.012908,4.4024639 5.835174,7.7885117 9.004374,11.0555387 -0.63369,1.880615 -0.59638,1.372677 -1.39134,3.092017 -0.26705,-0.473787 -0.91275,-0.568916 -1.45612,-0.766389 -2.73873,4.502711 -4.692734,8.12997 -7.720523,12.023464 C 87.4783,25.168663 85.738471,25.85476 81.929003,24.894264 88.48689,17.771206 92.924626,11.956533 97.718186,4.1718533 Z"
         style="fill:#ffffff;fill-opacity:1;fill-rule:nonzero;stroke:none" />
      <g
         transform="matrix(0.81161288,0.58419563,-0.58419563,0.81161288,0,0)"
         style="font-style:normal;font-variant:normal;font-weight:normal;font-stretch:normal;font-size:20.39699936px;line-height:125%;font-family:Rockwell;-inkscape-font-specification:Rockwell;letter-spacing:0px;word-spacing:0px;fill:#000000;fill-opacity:1;stroke:none"
         id="text3828">
        <path
           d="m 89.853453,-48.044991 0,4.631154 q 3.137234,0.876434 3.137234,3.794559 0,2.948004 -3.137234,3.734802 l 0,2.041692 -0.617487,0 0,-1.922178 q -0.418298,0.0498 -0.717082,0.0498 -0.229068,0 -0.488014,-0.02988 l 0,1.902259 -0.607528,0 0,-1.922178 q -1.673192,-0.278865 -2.519747,-1.165258 -0.846555,-0.896353 -0.846555,-1.912219 0,-0.657325 0.37846,-1.025826 0.37846,-0.37846 1.005907,-0.37846 0.55773,0 0.916271,0.37846 0.368501,0.368501 0.368501,0.886393 0,0.478055 -0.298784,0.826637 -0.298785,0.338622 -0.677245,0.438216 -0.3685,0.0996 -0.3685,0.258947 0,0.239027 0.517892,0.56769 0.517893,0.328662 1.5238,0.497973 l 0,-4.750668 q -3.077477,-0.995947 -3.077477,-3.655126 0,-2.798612 3.077477,-3.734803 l 0,-1.035785 0.607528,0 0,0.936191 q 0.647365,-0.07968 1.205096,-0.03984 l 0,-0.896353 0.617487,0 0,0.936191 q 1.543718,0.239027 2.310598,1.035785 0.766879,0.786798 0.766879,1.613434 0,0.57765 -0.318703,0.976029 -0.318703,0.388419 -0.906312,0.388419 -0.517893,0 -0.826636,-0.318703 -0.298785,-0.318703 -0.298785,-0.796758 0,-0.856514 0.856515,-1.085582 0.308744,-0.05976 0.308744,-0.219109 0,-0.219108 -0.517893,-0.527852 -0.507933,-0.318703 -1.374407,-0.478054 z m -0.617487,4.471803 0,-4.511641 q -0.737001,0 -1.205096,0.07968 l 0,4.103303 q 0.677244,0.229068 1.205096,0.328663 z m -1.812624,-0.507933 0,-3.814478 q -1.792705,0.607527 -1.792705,2.011813 0,1.304691 1.792705,1.802665 z m 1.812624,7.688712 0,-4.222816 -1.205096,-0.348582 0,4.631155 q 0.398378,0.02988 1.205096,-0.05976 z m 0.617487,-4.043546 0,3.96387 q 1.005907,-0.278865 1.483961,-0.866474 0.488015,-0.587609 0.488015,-1.254893 0,-1.414245 -1.971976,-1.842503 z"
           style="font-style:normal;font-variant:normal;font-weight:bold;font-stretch:normal;font-family:'Bodoni MT';-inkscape-font-specification:'Bodoni MT Bold';fill:#000000"
           id="path4378" />
      </g>
      <path
         inkscape:export-ydpi="52.639999"
         inkscape:export-xdpi="52.639999"
         inkscape:export-filename="G:\apmeneel\Documents\Board Games\Grifters Cards\decks\skill.png"
         sodipodi:nodetypes="ccccccccccccccccccc"
         inkscape:connector-curvature="0"
         id="path3024"
         d="m 103.6306,18.735337 c -3.09359,5.432252 -6.141506,10.905104 -10.201582,15.478256 4.933951,6.301032 11.575072,11.522002 15.090992,20.051376 -0.0743,6.398758 -2.59407,12.578181 -4.0686,18.761518 7.57432,-0.832518 15.30565,-0.72296 23.10013,-0.234518 0.039,-5.628457 0.94877,-11.132541 0.11725,-16.885369 1.23646,-2.16862 3.80411,-3.329057 4.69038,-5.628455 0.23134,-4.145541 1.78931,-8.166709 1.81336,-12.560993 -2.47036,1.500891 -4.22172,3.877266 -6.50374,5.642682 -1.71195,-1.552317 -3.90322,-2.762266 -4.9249,-4.807639 -3.27282,-0.202008 -6.43052,-0.691804 -9.2635,-1.993412 -2.92335,-1.337984 -5.22321,-3.368737 -8.79446,-3.986823 0.95249,-1.012068 1.74367,-2.508109 2.46245,-4.221342 0.37055,0.662568 0.65462,0.932038 1.25861,1.049933 -0.52686,0.946229 -1.27545,1.786282 -1.77934,2.482894 2.52475,1.330589 5.76674,3.266425 8.51482,4.15037 1.03579,-0.947847 1.97477,-2.678325 2.83467,-3.890006 0.39087,-2.188845 0.27181,-4.887614 0.66267,-7.076459 -5.18909,-1.966633 -9.45889,-3.553441 -15.00921,-6.332013"
         style="display:inline;fill:#ffffff;stroke:none" />
      <path
         inkscape:export-ydpi="52.639999"
         inkscape:export-xdpi="52.639999"
         inkscape:export-filename="G:\apmeneel\Documents\Board Games\Grifters Cards\decks\skill.png"
         sodipodi:nodetypes="ccccc"
         inkscape:connector-curvature="0"
         id="path3028"
         d="m 113.15793,21.784085 c 2.06388,-2.955889 3.538,-4.85209 4.69038,-7.504609 -1.81706,-2.86275 -3.54761,-3.058675 -6.0975,-4.104082 -2.30583,1.667923 -4.69835,6.073551 -6.06817,8.765147 2.37896,1.038401 4.24388,2.000448 7.47529,2.843544 z"
         style="display:inline;fill:#ffffff;stroke:none" />
      <path
         inkscape:export-ydpi="52.639999"
         inkscape:export-xdpi="52.639999"
         inkscape:export-filename="G:\apmeneel\Documents\Board Games\Grifters Cards\decks\skill.png"
         sodipodi:nodetypes="cccccc"
         inkscape:connector-curvature="0"
         id="path3032"
         d="m 114.33052,22.487642 c 1.8673,1.411812 3.52224,1.720649 5.04216,2.46245 -0.35991,1.250768 -0.30181,1.959329 -0.35178,3.752304 2.60723,-2.042651 5.3816,-6.899676 6.80106,-9.263501 -1.81415,-1.828194 -3.90885,-3.732301 -7.03557,-4.690381 -1.84679,2.50135 -3.32537,5.077707 -4.45587,7.739128"
         style="display:inline;fill:#ffffff;stroke:none" />
      <path
         inkscape:export-ydpi="52.639999"
         inkscape:export-xdpi="52.639999"
         inkscape:export-filename="G:\apmeneel\Documents\Board Games\Grifters Cards\decks\skill.png"
         sodipodi:nodetypes="ccccc"
         inkscape:connector-curvature="0"
         id="path3036"
         d="m 125.81484,21.598136 c -2.63761,4.566848 -6.24399,10.026861 -9.3263,14.445479 1.38216,1.748467 4.2314,0.639645 6.4635,1.77657 2.91164,-4.289896 6.02155,-7.900251 9.54659,-11.883447 -2.13977,-1.989761 -4.31519,-3.380905 -6.68379,-4.338602"
         style="display:inline;fill:#ffffff;stroke:none" />
      <path
         inkscape:export-ydpi="52.639999"
         inkscape:export-xdpi="52.639999"
         inkscape:export-filename="G:\apmeneel\Documents\Board Games\Grifters Cards\decks\skill.png"
         sodipodi:nodetypes="ccccc"
         inkscape:connector-curvature="0"
         id="path3040"
         d="m 133.09204,26.855558 c -4.67353,3.71617 -6.54432,8.779525 -9.20192,11.523695 1.13559,1.098733 2.11533,2.742709 3.69073,4.159764 3.64927,-3.490551 6.80105,-6.566532 10.20158,-9.849798 -0.87904,-2.044821 -2.79987,-4.561101 -4.69039,-5.833661"
         style="display:inline;fill:#ffffff;stroke:none" />
    </g>
    <rect
       ry="10.011562"
       y="88.34919"
       x="68.690376"
       height="61.871845"
       width="79.296974"
       id="rect4218"
       style="fill:#000000;stroke:none;stroke-width:1.75600004;stroke-miterlimit:4;stroke-dasharray:none;stroke-dashoffset:0;stroke-opacity:1" />
    <path
       style="fill:#ffffff"
       inkscape:connector-curvature="0"
       d="m 120.44012,98.018815 c -0.9671,0.0032 -1.93439,0.0197 -2.90149,0.04806 l 0.58572,6.304515 -5.8721,-6.013193 c -3.00415,0.247013 -6.00656,0.63964 -9.01071,1.204503 l 3.29191,2.73012 -4.61953,-0.0541 c 3.37918,9.62758 0.66664,17.54806 -0.03,28.06536 l 9.20293,10.17311 c 0.96114,-0.12745 1.90845,-0.23288 2.84143,-0.32141 l 2.06934,-4.05179 1.78118,2.77232 3.98874,-3.22886 0.0781,4.14195 c 7.972,-0.0233 15.16048,0.87444 22.65288,0.75094 -2.70562,-7.0173 -2.99204,-13.79835 -3.06364,-20.10296 l -3.1958,-1.83819 3.14178,-3.25577 c -0.0413,-2.0504 -0.12899,-4.03737 -0.34841,-5.95303 l -5.52061,0.069 4.82974,-4.00383 c -0.36937,-1.48756 -0.87003,-2.92187 -1.54985,-4.29804 l -2.83825,-2.297701 c -5.17094,-0.52748 -10.34256,-0.857728 -15.5136,-0.841004 z m 5.64364,3.553335 0.68193,1.59781 2.36383,5.53858 1.35444,-1.89826 0.80198,-1.12338 0.70288,1.18951 3.90752,6.6438 -1.54984,0.9102 -3.20781,-5.44852 -4.07889,5.70966 -1.45969,-1.04524 2.30674,-3.22886 -2.11163,-4.94085 -2.36056,3.85063 1.1502,2.17458 -1.58877,0.841 -1.75409,-3.31594 -2.38795,5.5926 -1.65192,-0.70586 3.1266,-7.32256 0.73911,-1.73294 0.87993,1.66373 0.51065,0.96422 2.71523,-4.43327 0.91001,-1.48064 z m -18.72709,5.40643 0.009,0 0.0121,0.003 0.009,0.003 0.45943,0.10822 0.009,0.003 0.012,0.003 0.43539,0.11438 0.0121,0.003 0.012,0.003 0.41157,0.12014 0.0121,0.003 0.0119,0.003 0.39349,0.1263 0.012,0.003 0.0121,0.006 0.0211,0.006 -0.56179,1.58877 -0.033,0.10524 -0.003,0 -0.0212,-0.006 -0.34236,-0.1112 -0.024,-0.006 -0.36648,-0.10813 -0.024,-0.006 -0.39042,-0.10207 -0.0212,-0.006 -0.41742,-0.0961 -0.009,-0.003 -0.012,-0.003 0.11101,-0.47154 0.27037,-1.28265 z m 3.64023,1.28543 0.25538,0.14706 0.0179,0.009 0.015,0.012 0.25537,0.15916 0.0149,0.012 0.0181,0.0121 0.23423,0.16225 0.0181,0.012 0.018,0.0149 0.21914,0.1682 0.0183,0.012 0.0149,0.015 0.20425,0.17108 0.015,0.0152 0.0183,0.015 0.18607,0.17723 0.0181,0.015 0.015,0.0181 0.0811,0.0841 -1.30042,1.23747 -0.0452,-0.0481 -0.036,-0.0331 -0.11726,-0.1111 -0.009,-0.009 -0.024,-0.0212 -0.13504,-0.1138 -0.015,-0.012 -0.0181,-0.0151 -0.15013,-0.11726 -0.0181,-0.0119 -0.015,-0.012 -0.17109,-0.11707 -0.0302,-0.0183 -0.003,-0.003 -0.21933,-0.13821 -0.22529,-0.12908 0.89511,-1.55897 z m 2.75723,3.1117 0.024,0.0811 0.006,0.024 0.009,0.024 0.0481,0.19799 0.006,0.0211 0.003,0.024 0.039,0.19828 0.003,0.024 0.006,0.024 0.0269,0.19818 0.003,0.0212 0,0.024 0.0181,0.19799 0.003,0.0212 0,0.0211 0.009,0.198 0,0.26143 -0.003,0.0181 -0.009,0.19819 0,0.0211 -0.003,0.0179 -0.0183,0.19838 0,0.015 -0.003,0.0181 -0.015,0.11111 -1.781,-0.23125 0.0119,-0.0752 0.003,-0.0331 0.0121,-0.12909 0,-0.006 0.003,-0.03 0.006,-0.16224 0,-0.16214 -0.006,-0.11438 -0.012,-0.15311 -0.0269,-0.19818 -0.0302,-0.15023 -0.036,-0.13514 -0.003,-0.015 -0.012,-0.0331 1.71804,-0.53152 z m -2.04243,3.4332 1.66086,0.67857 -0.10506,0.25537 -0.006,0.0151 -0.006,0.0149 -0.15618,0.34841 -0.006,0.012 -0.006,0.012 -0.16215,0.33352 -0.003,0.009 -0.006,0.009 -0.16205,0.3214 -0.006,0.006 -0.003,0.006 -0.16224,0.30333 -0.003,0.006 -0.003,0.006 -0.0301,0.0541 -1.57079,-0.87117 0.024,-0.042 0.006,-0.0121 0.14705,-0.27633 0.009,-0.0151 0.14725,-0.28545 0.009,-0.021 0.14129,-0.29122 0.0119,-0.024 0.13513,-0.29748 0.012,-0.0301 0.0932,-0.22519 z m -1.583,3.27682 1.70026,0.57957 -0.0151,0.0391 -0.003,0.006 -0.099,0.3364 -0.0871,0.33035 -0.003,0.0211 -0.006,0.0179 -0.0631,0.31852 -0.0421,0.25826 -0.003,0.0212 -0.003,0.024 -0.0181,0.18319 -1.78715,-0.19223 0.0271,-0.22827 0,-0.024 0.003,-0.0209 0.0572,-0.34534 0.003,-0.0212 0.003,-0.0181 0.0752,-0.35736 0.003,-0.0211 0.006,-0.0179 0.0932,-0.36946 0.003,-0.0181 0.006,-0.018 0.114,-0.37869 0.006,-0.0179 0.006,-0.0181 0.024,-0.0692 z m 19.97686,1.66999 0.0841,0.009 0.0211,0 0.0179,0.003 0.18319,0.024 0.0212,0.003 0.018,0.003 0.18012,0.0331 0.018,0.003 0.0212,0.003 0.17426,0.039 0.0209,0.006 0.0183,0.006 0.17108,0.045 0.0212,0.006 0.0179,0.006 0.16532,0.0542 0.0209,0.006 0.0212,0.006 0.15907,0.06 0.0209,0.009 0.0181,0.009 0.15618,0.0663 0.0212,0.009 0.0179,0.009 0.15321,0.0721 0.0181,0.012 0.0209,0.009 0.14705,0.0811 0.0183,0.009 0.018,0.012 0.11707,0.0721 -0.93711,1.53187 -0.10804,-0.0661 -0.009,-0.006 -0.0721,-0.039 -0.039,-0.0183 -0.0721,-0.0389 -0.018,-0.006 -0.0212,-0.012 -0.12014,-0.0481 -0.0811,-0.03 -0.12303,-0.0421 -0.0271,-0.006 -0.015,-0.006 -0.0901,-0.024 -0.0331,-0.006 -0.006,-0.003 -0.0961,-0.0212 -0.14128,-0.0269 -0.0209,-0.003 -0.018,-0.003 -0.13841,-0.0181 -0.006,0 -0.0481,-0.003 0.15907,-1.79012 z m -2.03954,0.14417 0.22836,1.14135 0.14129,0.61869 -0.0181,0.003 -0.19223,0.0423 -0.015,0.003 -0.009,0.003 -0.19222,0.0512 -0.021,0.006 -0.20127,0.0571 -0.0212,0.006 -0.20712,0.0661 -0.0211,0.006 -0.21309,0.0721 -0.0211,0.009 -0.22222,0.0811 -0.018,0.006 -0.20741,0.0811 -0.65473,-1.67297 0.22529,-0.0871 0.009,-0.006 0.012,-0.003 0.25826,-0.0932 0.009,-0.006 0.012,-0.003 0.2522,-0.0842 0.012,-0.006 0.009,-0.003 0.24933,-0.0782 0.012,-0.003 0.009,-0.003 0.24634,-0.069 0.009,-0.003 0.0121,-0.003 0.24028,-0.0631 0.012,-0.003 0.0121,-0.003 0.23433,-0.0511 0.012,-0.003 0.0119,-0.003 0.006,-0.003 z m -3.64321,1.52273 1.05437,1.45671 -0.16532,0.11726 -0.009,0.009 -0.009,0.006 -0.30333,0.20723 -0.009,0.006 -0.012,0.006 -0.3093,0.20107 -0.009,0.006 -0.009,0.006 -0.31525,0.19223 -0.009,0.006 -0.012,0.006 -0.31814,0.18319 -0.009,0.006 -0.012,0.006 -0.10217,0.0571 -0.85897,-1.57695 0.0841,-0.0481 0.0181,-0.009 0.28228,-0.16224 0.0211,-0.012 0.27624,-0.1682 0.018,-0.012 0.27046,-0.17723 0.0211,-0.012 0.28219,-0.19512 0.14417,-0.10515 z m -12.83413,0.26144 0.0119,0.042 0.006,0.0269 0.0452,0.13225 0.006,0.0119 0.0873,0.2102 0.006,0.0183 0.0571,0.114 0.012,0.0211 0.0811,0.14417 0.0119,0.018 0.0932,0.13811 0.009,0.012 0.10524,0.13504 0.009,0.009 0.12303,0.13513 -1.32734,1.21056 -0.13225,-0.14417 -0.0211,-0.0211 -0.018,-0.024 -0.15609,-0.19511 -0.018,-0.024 -0.0183,-0.0269 -0.1411,-0.20741 -0.018,-0.024 -0.015,-0.0269 -0.12927,-0.21933 -0.015,-0.0269 -0.0151,-0.0272 -0.11419,-0.22827 -0.012,-0.03 -0.012,-0.0269 -0.099,-0.24028 -0.0121,-0.0302 -0.009,-0.0298 -0.0841,-0.24941 -0.009,-0.0301 -0.009,-0.03 -0.018,-0.0692 1.7391,-0.44741 z m 22.13606,0.31833 0.0812,0.1261 0.006,0.015 0.009,0.012 0.0932,0.16243 0.006,0.0119 0.009,0.012 0.0901,0.1682 0.006,0.0119 0.006,0.015 0.087,0.17109 0.006,0.0121 0.006,0.012 0.0811,0.18031 0.006,0.012 0.006,0.009 0.0779,0.18627 0.003,0.012 0.006,0.009 0.075,0.18934 0.003,0.012 0.006,0.012 0.0721,0.19511 0.003,0.009 0.003,0.009 0.069,0.20107 0.003,0.009 0.003,0.012 0.0151,0.0481 -1.71208,0.54074 -0.009,-0.03 -0.009,-0.0212 -0.0541,-0.15907 -0.006,-0.0211 -0.0571,-0.15321 -0.009,-0.0211 -0.0571,-0.14706 -0.009,-0.0211 -0.0601,-0.13802 -0.009,-0.024 -0.06,-0.13216 -0.012,-0.024 -0.063,-0.12619 -0.012,-0.024 -0.0631,-0.11707 -0.015,-0.024 -0.0631,-0.11111 -0.0179,-0.0271 -0.0631,-0.10207 1.52273,-0.95211 z m -12.24543,1.04822 0.66992,1.667 -0.28835,0.11707 -0.009,0.003 -0.009,0.003 -0.34543,0.12899 -0.009,0.006 -0.0121,0.003 -0.34544,0.12014 -0.009,0.003 -0.012,0.003 -0.34831,0.11418 -0.009,0.003 -0.009,0.003 -0.35149,0.10495 -0.009,0.003 -0.009,0.003 -0.0181,0.003 -0.4775,-1.73006 0.0179,-0.006 0.31237,-0.0932 0.0181,-0.006 0.30949,-0.099 0.0209,-0.006 0.32746,-0.11726 0,0.003 0.30641,-0.11697 0.0211,-0.009 0.2672,-0.10823 z m -8.04957,0.59168 0.024,0.012 0.006,0.003 0.21319,0.0842 0.036,0.0121 0.18934,0.0661 0.024,0.006 0.015,0.006 0.20126,0.0569 0.012,0.003 0.0212,0.006 0.24606,0.0601 0.2224,0.048 0.0179,0.003 0.015,0.003 0.26432,0.0421 -0.1411,0.83811 -0.009,0.0481 -0.11726,0.89194 -0.0179,-0.003 -0.015,-0.003 -0.29439,-0.0512 -0.0181,-0.003 -0.015,-0.003 -0.29123,-0.0601 -0.015,-0.003 -0.0181,-0.003 -0.28229,-0.069 -0.0151,-0.006 -0.0181,-0.006 -0.27335,-0.0781 -0.0179,-0.006 -0.0211,-0.006 -0.26431,-0.0901 -0.0179,-0.006 -0.0212,-0.009 -0.25518,-0.099 -0.0181,-0.009 -0.0211,-0.009 -0.063,-0.0269 0.73287,-1.6401 z m 4.79976,0.33928 0.27325,1.77523 -0.32141,0.0481 -0.012,0.003 -0.012,0 -0.34236,0.0452 -0.012,0 -0.009,0.003 -0.34216,0.0332 -0.0121,0.003 -0.012,0 -0.3364,0.0272 -0.0241,0 -0.33352,0.018 -0.024,0 -0.11111,0.003 -0.039,-1.79599 0.0871,-0.003 0.024,0 0.28546,-0.015 0.31237,-0.0209 0,-0.003 0.31814,-0.0298 0.0183,-0.003 0.006,0 0.29748,-0.039 0.0119,-0.003 0.009,0 0.30035,-0.0452 z m 16.77192,1.73006 0.0361,0.22836 0.003,0.012 0,0.0152 0.0692,0.50153 0,0.012 0.003,0.0121 0.0541,0.51959 0,0.0211 0.0452,0.53478 -1.79012,0.14417 -0.0421,-0.51363 -0.003,-0.0211 -0.0481,-0.47144 0,-0.006 -0.003,-0.0209 -0.0601,-0.44751 -0.003,-0.0271 -0.0361,-0.20425 1.77523,-0.28834 z m -6.49376,2.96175 c 1.81589,0.33256 4.31678,1.55581 6.61987,3.25587 0.71701,-0.94528 1.38644,-1.96073 2.04848,-2.98867 l 2.88938,1.2466 c -0.45039,1.17356 -1.44075,2.45265 -2.74531,3.57411 1.63558,1.55378 2.96705,3.31738 3.55623,5.08828 -1.32695,-1.74043 -2.98627,-3.0497 -4.83262,-4.11503 -2.24783,1.52302 -5.06349,2.49224 -7.65319,1.96438 2.20245,-0.42127 3.90646,-1.59165 5.36452,-3.13275 -1.58224,-0.72124 -3.24847,-1.33377 -4.92586,-1.93131 l -0.3214,-2.96148 z"
       id="path4346" />
    <g
       id="g4412"
       transform="translate(-2.9136047,0)">
      <rect
         ry="79.731812"
         y="866.77905"
         x="-190.27612"
         height="357.02405"
         width="591.37946"
         id="rect5010"
         style="fill:none;stroke:#000000;stroke-width:2.56993198;stroke-miterlimit:4;stroke-dasharray:none;stroke-dashoffset:0;stroke-opacity:1" />
      <rect
         style="fill:none;stroke:#000000;stroke-width:2.56993198;stroke-miterlimit:4;stroke-dasharray:none;stroke-dashoffset:0;stroke-opacity:1"
         id="rect4410"
         width="591.37946"
         height="357.02405"
         x="429.72388"
         y="866.77905"
         ry="79.731812" />
    </g>
    <g
       id="g4432"
       transform="translate(-8.6957792,0)">
      <rect
         transform="scale(-1,-1)"
         ry="28.577463"
         y="-842.39014"
         x="-371.36038"
         height="127.96449"
         width="302.71762"
         id="rect5081"
         style="fill:none;stroke:#000000;stroke-width:1.10078728;stroke-miterlimit:4;stroke-dasharray:none;stroke-dashoffset:0;stroke-opacity:1" />
      <circle
         transform="scale(-1,-1)"
         style="fill:#ffffff;stroke:#000000;stroke-width:1.7876538;stroke-miterlimit:4;stroke-dasharray:none;stroke-dashoffset:0;stroke-opacity:1"
         id="circle5083"
         cx="-329.44162"
         cy="-778.40778"
         r="75.392281" />
      <g
         transform="matrix(-1,0,0,-1,1210.963,1556.8156)"
         id="g4428">
        <rect
           transform="scale(-1,-1)"
           ry="28.577463"
           y="-842.39014"
           x="-739.93182"
           height="127.96449"
           width="302.71762"
           id="rect4424"
           style="fill:none;stroke:#000000;stroke-width:1.10078728;stroke-miterlimit:4;stroke-dasharray:none;stroke-dashoffset:0;stroke-opacity:1" />
        <circle
           transform="scale(-1,-1)"
           style="fill:#ffffff;stroke:#000000;stroke-width:1.7876538;stroke-miterlimit:4;stroke-dasharray:none;stroke-dashoffset:0;stroke-opacity:1"
           id="circle4426"
           cx="-698.01306"
           cy="-778.40778"
           r="75.392281" />
      </g>
    </g>
  </g>
</svg>
