<?xml version="1.0" encoding="UTF-8" standalone="no"?>
<!-- Created with Inkscape (http://www.inkscape.org/) -->

<svg
   xmlns:dc="http://purl.org/dc/elements/1.1/"
   xmlns:cc="http://creativecommons.org/ns#"
   xmlns:rdf="http://www.w3.org/1999/02/22-rdf-syntax-ns#"
   xmlns:svg="http://www.w3.org/2000/svg"
   xmlns="http://www.w3.org/2000/svg"
   xmlns:sodipodi="http://sodipodi.sourceforge.net/DTD/sodipodi-0.dtd"
   xmlns:inkscape="http://www.inkscape.org/namespaces/inkscape"
   width="825"
   height="1125"
   viewBox="0 0 825.00001 1125"
   id="svg4454"
   version="1.1"
   inkscape:version="0.91 r13725"
   sodipodi:docname="character.svg">
  <defs
     id="defs4456" />
  <sodipodi:namedview
     id="base"
     pagecolor="#ffffff"
     bordercolor="#666666"
     borderopacity="1.0"
     inkscape:pageopacity="0.0"
     inkscape:pageshadow="2"
     inkscape:zoom="0.49497475"
     inkscape:cx="209.48894"
     inkscape:cy="494.67565"
     inkscape:document-units="px"
     inkscape:current-layer="layer1"
     showgrid="false"
     inkscape:window-width="1920"
     inkscape:window-height="1017"
     inkscape:window-x="-8"
     inkscape:window-y="-8"
     inkscape:window-maximized="1"
     units="px"
     showguides="true"
     inkscape:guide-bbox="true">
    <sodipodi:guide
       position="40.714286,75"
       orientation="0,1"
       id="guide4151" />
    <sodipodi:guide
       position="750.00001,314.28571"
       orientation="1,0"
       id="guide4800" />
    <sodipodi:guide
       position="75.000001,362.5"
       orientation="1,0"
       id="guide4802" />
  </sodipodi:namedview>
  <metadata
     id="metadata4459">
    <rdf:RDF>
      <cc:Work
         rdf:about="">
        <dc:format>image/svg+xml</dc:format>
        <dc:type
           rdf:resource="http://purl.org/dc/dcmitype/StillImage" />
        <dc:title />
      </cc:Work>
    </rdf:RDF>
  </metadata>
  <g
     inkscape:label="Layer 1"
     inkscape:groupmode="layer"
     id="layer1"
     transform="translate(0,72.637839)">
    <rect
       ry="41.976757"
       y="787.76617"
       x="536.24255"
       height="187.964"
       width="212.5"
       id="rect4424"
       style="fill:none;stroke:#000000;stroke-width:2.5;stroke-miterlimit:4;stroke-dasharray:none;stroke-dashoffset:0;stroke-opacity:1" />
    <rect
       style="fill:none;stroke:#000000;stroke-width:2.5;stroke-miterlimit:4;stroke-dasharray:none;stroke-dashoffset:0;stroke-opacity:1"
       id="rect4775"
       width="212.5"
       height="187.96449"
       x="74.835388"
       y="787.76562"
       ry="41.976868" />
    <rect
       style="fill:none;fill-opacity:1;stroke:#000000;stroke-width:2.5;stroke-linecap:round;stroke-linejoin:round;stroke-miterlimit:4;stroke-dasharray:5.00000001, 5.00000001;stroke-dashoffset:0;stroke-opacity:1"
       id="rect4823"
       width="177.8992"
       height="484.28571"
       x="76.428574"
       y="266.64786"
       ry="30.1134" />
    <g
       transform="translate(-37.710803,11.850926)"
       style="font-style:normal;font-weight:normal;font-size:40px;line-height:125%;font-family:sans-serif;text-align:center;letter-spacing:0px;word-spacing:0px;text-anchor:middle;fill:#000000;fill-opacity:1;stroke:none;stroke-width:1px;stroke-linecap:butt;stroke-linejoin:miter;stroke-opacity:1"
       id="flowRoot4825">
      <path
         d="m 140.8843,424.98913 c -7.12,0 -10.8,4.68 -10.8,14.2 0,9.52 3.68,14.2 10.8,14.2 5.6,0 9.56,-3.24 9.56,-10.32 l -3.48,0 c 0,4.76 -2.4,7.08 -6.08,7.08 -4.8,0 -7.12,-3.28 -7.12,-9.96 l 0,-2 c 0,-6.68 2.32,-9.96 7.12,-9.96 3.6,0 5.96,2.36 5.96,7.16 l 3.6,0 c 0,-7 -3.96,-10.4 -9.56,-10.4 z"
         style="font-style:normal;font-variant:normal;font-weight:normal;font-stretch:normal;font-family:'Archivo Narrow';-inkscape-font-specification:'Archivo Narrow';text-align:center;text-anchor:middle"
         id="path4838"
         inkscape:connector-curvature="0" />
      <path
         d="m 157.75617,423.98913 -3.28,0 0,28.92 3.28,0 0,-12.84 c 0,-3.64 1.84,-5.76 3.92,-5.76 1.76,0 2.96,0.76 2.96,3.68 l 0,14.92 3.28,0 0,-15.16 c 0,-4.68 -2.04,-6.36 -5.2,-6.36 -2.08,0 -3.64,0.8 -4.72,2.68 l -0.24,0 0,-10.08 z"
         style="font-style:normal;font-variant:normal;font-weight:normal;font-stretch:normal;font-family:'Archivo Narrow';-inkscape-font-specification:'Archivo Narrow';text-align:center;text-anchor:middle"
         id="path4840"
         inkscape:connector-curvature="0" />
      <path
         d="m 179.1993,431.38913 c -3.96,0 -6.76,2 -6.76,5.84 0,0.36 0,0.64 0.04,0.88 l 3.24,0 0,-0.48 c 0,-1.6 0.76,-3.32 3.24,-3.32 2.68,0 3.32,1.4 3.32,3.4 l 0,2.72 c -6.12,0 -10.64,1.24 -10.64,7.04 0,5.08 3.44,5.92 5.52,5.92 2.2,0 4.04,-1.04 5.12,-2.76 l 0.2,0 c 0.4,1.56 1.6,2.6 3.32,2.6 1.04,0 1.8,-0.28 2.16,-0.48 l 0,-2.28 -1.28,0 c -0.56,0 -1.12,-0.4 -1.12,-1.4 l 0,-11.8 c 0,-3.72 -2.12,-5.88 -6.36,-5.88 z m 3.08,13.88 c 0,3.48 -2.28,5.2 -4.36,5.2 -1.84,0 -2.84,-0.8 -2.84,-3.2 0,-3.28 2.92,-3.92 7.2,-3.92 l 0,1.92 z"
         style="font-style:normal;font-variant:normal;font-weight:normal;font-stretch:normal;font-family:'Archivo Narrow';-inkscape-font-specification:'Archivo Narrow';text-align:center;text-anchor:middle"
         id="path4842"
         inkscape:connector-curvature="0" />
      <path
         d="m 197.60242,431.38913 c -2,0 -3.04,1.64 -3.56,3.24 l -0.24,0 -0.44,-2.76 -2.48,0 0,21.04 3.28,0 0,-12.84 c 0,-3.72 1.84,-4.96 3.92,-4.96 l 1.08,0 0,-3.4 c 0,0 -0.68,-0.32 -1.56,-0.32 z"
         style="font-style:normal;font-variant:normal;font-weight:normal;font-stretch:normal;font-family:'Archivo Narrow';-inkscape-font-specification:'Archivo Narrow';text-align:center;text-anchor:middle"
         id="path4844"
         inkscape:connector-curvature="0" />
      <path
         d="m 208.33992,431.38913 c -3.96,0 -6.76,2 -6.76,5.84 0,0.36 0,0.64 0.04,0.88 l 3.24,0 0,-0.48 c 0,-1.6 0.76,-3.32 3.24,-3.32 2.68,0 3.32,1.4 3.32,3.4 l 0,2.72 c -6.12,0 -10.64,1.24 -10.64,7.04 0,5.08 3.44,5.92 5.52,5.92 2.2,0 4.04,-1.04 5.12,-2.76 l 0.2,0 c 0.4,1.56 1.6,2.6 3.32,2.6 1.04,0 1.8,-0.28 2.16,-0.48 l 0,-2.28 -1.28,0 c -0.56,0 -1.12,-0.4 -1.12,-1.4 l 0,-11.8 c 0,-3.72 -2.12,-5.88 -6.36,-5.88 z m 3.08,13.88 c 0,3.48 -2.28,5.2 -4.36,5.2 -1.84,0 -2.84,-0.8 -2.84,-3.2 0,-3.28 2.92,-3.92 7.2,-3.92 l 0,1.92 z"
         style="font-style:normal;font-variant:normal;font-weight:normal;font-stretch:normal;font-family:'Archivo Narrow';-inkscape-font-specification:'Archivo Narrow';text-align:center;text-anchor:middle"
         id="path4846"
         inkscape:connector-curvature="0" />
      <path
         d="m 226.26305,431.38913 c -4.92,0 -7.2,3.44 -7.2,11 0,7.56 2.24,11 7.2,11 4.64,0 6.44,-3.88 6.44,-8.28 l -3.24,0 c 0,3.48 -0.84,5.36 -3.2,5.36 -2.64,0 -3.76,-2.48 -3.76,-7.32 l 0,-1.52 c 0,-4.84 1.16,-7.32 3.76,-7.32 2.36,0 3.04,1.72 3.04,5.36 l 3.4,0 c 0,-5.36 -1.88,-8.28 -6.44,-8.28 z"
         style="font-style:normal;font-variant:normal;font-weight:normal;font-stretch:normal;font-family:'Archivo Narrow';-inkscape-font-specification:'Archivo Narrow';text-align:center;text-anchor:middle"
         id="path4848"
         inkscape:connector-curvature="0" />
      <path
         d="m 239.6693,426.02913 -2.56,0 -0.72,5.84 -1.8,0 0,2.92 1.8,0 0,13.68 c 0,2.4 0.88,4.84 3.76,4.84 0.8,0 1.8,-0.24 2.36,-0.56 l 0,-2.28 -0.96,0 c -1.24,0 -1.88,-0.68 -1.88,-1.92 l 0,-13.76 2.84,0 0,-2.92 -2.84,0 0,-5.84 z"
         style="font-style:normal;font-variant:normal;font-weight:normal;font-stretch:normal;font-family:'Archivo Narrow';-inkscape-font-specification:'Archivo Narrow';text-align:center;text-anchor:middle"
         id="path4850"
         inkscape:connector-curvature="0" />
      <path
         d="m 252.76992,431.38913 c -5.28,0 -7.92,3.44 -7.92,11 0,7.8 2.72,11 7.96,11 4.08,0 6.88,-2.92 6.88,-7.64 l -3.24,0 c 0,2.92 -1.48,4.72 -3.56,4.72 -3.12,0 -4.56,-2.2 -4.6,-7.12 l 11.4,0 0,-2.08 c 0,-7.04 -2.32,-9.88 -6.92,-9.88 z m 0,2.92 c 2.28,0 3.48,2.12 3.48,6.12 l -7.92,0 c 0.28,-4.04 1.52,-6.12 4.44,-6.12 z"
         style="font-style:normal;font-variant:normal;font-weight:normal;font-stretch:normal;font-family:'Archivo Narrow';-inkscape-font-specification:'Archivo Narrow';text-align:center;text-anchor:middle"
         id="path4852"
         inkscape:connector-curvature="0" />
      <path
         d="m 270.49305,431.38913 c -2,0 -3.04,1.64 -3.56,3.24 l -0.24,0 -0.44,-2.76 -2.48,0 0,21.04 3.28,0 0,-12.84 c 0,-3.72 1.84,-4.96 3.92,-4.96 l 1.08,0 0,-3.4 c 0,0 -0.68,-0.32 -1.56,-0.32 z"
         style="font-style:normal;font-variant:normal;font-weight:normal;font-stretch:normal;font-family:'Archivo Narrow';-inkscape-font-specification:'Archivo Narrow';text-align:center;text-anchor:middle"
         id="path4854"
         inkscape:connector-curvature="0" />
      <path
         d="m 197.50086,502.90913 3.8,0 -8.72,-27.44 -4.52,0 -8.72,27.44 3.52,0 1.88,-6.12 10.88,0 1.88,6.12 z m -8.04,-21.52 c 0.28,-0.88 0.64,-3.04 0.64,-3.04 l 0.16,0 c 0,0 0.36,2.12 0.64,3.04 l 3.72,12.2 -8.92,0 3.76,-12.2 z"
         style="font-style:normal;font-variant:normal;font-weight:normal;font-stretch:normal;font-family:'Archivo Narrow';-inkscape-font-specification:'Archivo Narrow';text-align:center;text-anchor:middle"
         id="path4856"
         inkscape:connector-curvature="0" />
      <path
         d="m 210.37586,481.38913 c -2,0 -3.04,1.64 -3.56,3.24 l -0.24,0 -0.44,-2.76 -2.48,0 0,21.04 3.28,0 0,-12.84 c 0,-3.72 1.84,-4.96 3.92,-4.96 l 1.08,0 0,-3.4 c 0,0 -0.68,-0.32 -1.56,-0.32 z"
         style="font-style:normal;font-variant:normal;font-weight:normal;font-stretch:normal;font-family:'Archivo Narrow';-inkscape-font-specification:'Archivo Narrow';text-align:center;text-anchor:middle"
         id="path4858"
         inkscape:connector-curvature="0" />
      <path
         d="m 217.83336,476.02913 -2.56,0 -0.72,5.84 -1.8,0 0,2.92 1.8,0 0,13.68 c 0,2.4 0.88,4.84 3.76,4.84 0.8,0 1.8,-0.24 2.36,-0.56 l 0,-2.28 -0.96,0 c -1.24,0 -1.88,-0.68 -1.88,-1.92 l 0,-13.76 2.84,0 0,-2.92 -2.84,0 0,-5.84 z"
         style="font-style:normal;font-variant:normal;font-weight:normal;font-stretch:normal;font-family:'Archivo Narrow';-inkscape-font-specification:'Archivo Narrow';text-align:center;text-anchor:middle"
         id="path4860"
         inkscape:connector-curvature="0" />
      <path
         d="m 185.72961,525.46913 -3.52,0 0,11.8 -11.04,0 0,-11.8 -3.52,0 0,27.44 3.52,0 0,-12.44 11.04,0 0,12.44 3.52,0 0,-27.44 z"
         style="font-style:normal;font-variant:normal;font-weight:normal;font-stretch:normal;font-family:'Archivo Narrow';-inkscape-font-specification:'Archivo Narrow';text-align:center;text-anchor:middle"
         id="path4862"
         inkscape:connector-curvature="0" />
      <path
         d="m 198.12148,531.38913 c -5.28,0 -7.92,3.44 -7.92,11 0,7.8 2.72,11 7.96,11 4.08,0 6.88,-2.92 6.88,-7.64 l -3.24,0 c 0,2.92 -1.48,4.72 -3.56,4.72 -3.12,0 -4.56,-2.2 -4.6,-7.12 l 11.4,0 0,-2.08 c 0,-7.04 -2.32,-9.88 -6.92,-9.88 z m 0,2.92 c 2.28,0 3.48,2.12 3.48,6.12 l -7.92,0 c 0.28,-4.04 1.52,-6.12 4.44,-6.12 z"
         style="font-style:normal;font-variant:normal;font-weight:normal;font-stretch:normal;font-family:'Archivo Narrow';-inkscape-font-specification:'Archivo Narrow';text-align:center;text-anchor:middle"
         id="path4864"
         inkscape:connector-curvature="0" />
      <path
         d="m 215.84461,531.38913 c -2,0 -3.04,1.64 -3.56,3.24 l -0.24,0 -0.44,-2.76 -2.48,0 0,21.04 3.28,0 0,-12.84 c 0,-3.72 1.84,-4.96 3.92,-4.96 l 1.08,0 0,-3.4 c 0,0 -0.68,-0.32 -1.56,-0.32 z"
         style="font-style:normal;font-variant:normal;font-weight:normal;font-stretch:normal;font-family:'Archivo Narrow';-inkscape-font-specification:'Archivo Narrow';text-align:center;text-anchor:middle"
         id="path4866"
         inkscape:connector-curvature="0" />
      <path
         d="m 227.26211,531.38913 c -5.28,0 -7.92,3.44 -7.92,11 0,7.8 2.72,11 7.96,11 4.08,0 6.88,-2.92 6.88,-7.64 l -3.24,0 c 0,2.92 -1.48,4.72 -3.56,4.72 -3.12,0 -4.56,-2.2 -4.6,-7.12 l 11.4,0 0,-2.08 c 0,-7.04 -2.32,-9.88 -6.92,-9.88 z m 0,2.92 c 2.28,0 3.48,2.12 3.48,6.12 l -7.92,0 c 0.28,-4.04 1.52,-6.12 4.44,-6.12 z"
         style="font-style:normal;font-variant:normal;font-weight:normal;font-stretch:normal;font-family:'Archivo Narrow';-inkscape-font-specification:'Archivo Narrow';text-align:center;text-anchor:middle"
         id="path4868"
         inkscape:connector-curvature="0" />
    </g>
    <path
       style="fill:none;fill-opacity:1;stroke:#000000;stroke-opacity:1;stroke-width:3;stroke-miterlimit:4;stroke-dasharray:none"
       d="m 169.82425,220.59372 c 0.25641,-0.41499 0.82597,-3.59165 1.26563,-7.05935 0.43968,-3.46772 -1.04491,-8.27743 -0.59825,-8.72413 0.54188,-0.54179 5.43685,2.2916 10.29293,1.71318 12.58462,-1.49895 18.83343,-2.19206 16.28555,-12.13338 -0.96522,-3.7661 -0.91807,-4.09292 0.8647,-5.99046 1.55955,-1.66016 2.07865,-2.58243 0.93688,-3.52632 -1.89087,-1.56318 -2.27646,-1.06275 0.27978,-2.53858 1.01771,-0.58757 1.08844,-1.84853 0.6978,-4.16078 -0.52126,-3.08545 -0.47129,-3.16455 2.80895,-4.4532 6.00839,-2.36009 5.594,-4.57681 -3.36293,-17.99064 -2.84491,-4.2605 -4.94157,-6.6812 -4.28161,-7.25736 1.93992,-23.12913 -13.79042,-42.78204 -31.0413,-48.673709 -35.2614,-7.706 -69.23243,8.529079 -69.97238,42.850649 0,12.26684 3.27531,20.74433 12.50302,32.36167 6.52377,8.21332 7.24209,12.91467 7.23387,23.97006 -0.005,6.65764 1.07608,7.22289 -1.07708,13.23294 -1.38608,3.86866 -3.24452,8.40496 -3.24452,8.66374 0,0.80936 59.90724,0.52786 60.40896,-0.28374 z"
       id="path4149"
       inkscape:connector-curvature="0"
       sodipodi:nodetypes="csssssssssscccscsssc" />
  </g>
</svg>
