<?xml version="1.0" encoding="UTF-8" standalone="no"?>
<!-- Created with Inkscape (http://www.inkscape.org/) -->

<svg
   xmlns:dc="http://purl.org/dc/elements/1.1/"
   xmlns:cc="http://creativecommons.org/ns#"
   xmlns:rdf="http://www.w3.org/1999/02/22-rdf-syntax-ns#"
   xmlns:svg="http://www.w3.org/2000/svg"
   xmlns="http://www.w3.org/2000/svg"
   xmlns:sodipodi="http://sodipodi.sourceforge.net/DTD/sodipodi-0.dtd"
   xmlns:inkscape="http://www.inkscape.org/namespaces/inkscape"
   width="375"
   height="375"
   viewBox="0 0 375.00002 375.00001"
   id="svg4596"
   version="1.1"
   inkscape:version="0.91 r13725"
   sodipodi:docname="control_panel.svg">
  <defs
     id="defs4598" />
  <sodipodi:namedview
     id="base"
     pagecolor="#ffffff"
     bordercolor="#666666"
     borderopacity="1.0"
     inkscape:pageopacity="0.0"
     inkscape:pageshadow="2"
     inkscape:zoom="0.98994949"
     inkscape:cx="21.436342"
     inkscape:cy="190.05218"
     inkscape:document-units="px"
     inkscape:current-layer="g5186"
     showgrid="false"
     units="px"
     showguides="true"
     inkscape:guide-bbox="true"
     inkscape:window-width="1280"
     inkscape:window-height="961"
     inkscape:window-x="1912"
     inkscape:window-y="-8"
     inkscape:window-maximized="1" />
  <metadata
     id="metadata4601">
    <rdf:RDF>
      <cc:Work
         rdf:about="">
        <dc:format>image/svg+xml</dc:format>
        <dc:type
           rdf:resource="http://purl.org/dc/dcmitype/StillImage" />
        <dc:title />
      </cc:Work>
    </rdf:RDF>
  </metadata>
  <g
     inkscape:label="Layer 1"
     inkscape:groupmode="layer"
     id="layer1"
     transform="translate(0,-677.36216)">
    <g
       id="g5186">
      <g
         id="g4239"
         transform="matrix(1.500307,0,0,1.500307,-101.9646,-365.41565)">
        <path
           transform="translate(0,152.36215)"
           sodipodi:nodetypes="ssccccssccccccsssccccccsccccccsccccccscccccccccccccccccccccccccssscccccccccccccccsscccccccccssscccccccccsssccccccccccsssccccccccccccc"
           inkscape:connector-curvature="0"
           id="path4540"
           d="m 210.05664,602.98242 c -3.97887,0 -7.20117,3.23061 -7.20117,7.20899 0,3.11044 1.97078,5.75837 4.73242,6.76562 l 0,23.94531 4.5293,0 0,-23.80859 c 2.97538,-0.88562 5.14844,-3.64077 5.14843,-6.90234 0,-3.97861 -3.23011,-7.20899 -7.20898,-7.20899 z m -21.81055,8.61719 0,29.30273 4.53907,0 0,-29.30273 -4.53711,0 z m -27.77539,0.16016 c -3.97888,0 -7.20703,3.22864 -7.20703,7.20703 0,3.97838 3.22815,7.19922 7.20703,7.19922 3.24709,0 5.98963,-2.14658 6.88868,-5.09766 l 11.52929,0 0,19.83398 4.53906,0 0,-24.37304 -16.17382,0 c -0.99762,-2.78026 -3.65954,-4.76953 -6.78321,-4.76953 z m 37.3418,13.11132 0,16.03125 4.53125,0 0,-16.03125 z m 48.375,3.22657 c -3.97889,0 -7.20898,3.2306 -7.20898,7.20898 0,3.35647 2.29576,6.17577 5.40429,6.97461 l 0,7.04687 -23.8457,0 0,4.53126 28.38281,0 0,-11.89063 c 2.62309,-1.07553 4.4668,-3.65086 4.4668,-6.66211 0,-3.97838 -3.22229,-7.20703 -7.20117,-7.20703 z m -113.30273,6.96093 0,4.53711 21.46875,0 0,14.26368 16.11718,0 0,-4.53126 -11.57812,0 0,-14.26953 -26.00586,0 z M 175,645.43945 l 0,0.002 0,40.97656 41.00586,0 0,-40.97852 z m 5.31309,5.30469 30.05078,0 0,30.05274 -30.05078,0 z m -37.15293,8.35938 0,23.08007 c -2.94817,0.90101 -5.0918,3.64235 -5.0918,6.88672 0,3.97791 3.2223,7.20899 7.20117,7.20899 3.97887,0 7.20703,-3.22911 7.20703,-7.20703 0,-3.12871 -1.99905,-5.78933 -4.78711,-6.78321 l 0,-18.65625 22.78125,0 0,-4.52929 z m 77.37695,0 0,4.52929 13.84766,0 0,-4.52929 z m 25.64844,5.63476 c -2.79543,7.5e-4 -5.21917,1.59347 -6.41407,3.91992 l -19.23632,0 0,4.53907 18.55468,0 c 0.59657,3.3783 3.54661,5.94921 7.09571,5.94921 3.97887,0 7.20117,-3.23095 7.20117,-7.20898 0,-3.97786 -3.22124,-7.19815 -7.19922,-7.19922 z m -89.5625,3.91992 0,4.53907 13.84765,0 0,-4.53907 z m 4.40234,9.35742 0,34.77149 c -2.95022,0.90137 -5.10156,3.6427 -5.10156,6.88672 0,3.97803 3.23009,7.20703 7.20898,7.20703 3.97862,0 7.20117,-3.229 7.20117,-7.20703 0,-3.12848 -1.9933,-5.78956 -4.77929,-6.78321 l 0,-30.33789 4.91406,0 0,-4.53711 z m 59.51172,0 0,4.53711 11.58594,0 0,24.44532 c -2.90532,0.92977 -5.01172,3.65895 -5.01172,6.87109 0,3.97815 3.23011,7.19922 7.20898,7.19922 3.97887,0 7.19922,-3.2213 7.19922,-7.19922 0,-3.1608 -2.03577,-5.84349 -4.86719,-6.81445 l 0,-29.03907 z m -41.64844,12.93946 0,13.86133 4.53906,0 0,-13.86133 z m 9.35938,0 0,22.20898 c -2.82579,0.97347 -4.86133,3.65169 -4.86133,6.80664 0,3.97805 3.2301,7.20703 7.20898,7.20703 3.97887,0 7.20118,-3.22922 7.20118,-7.20703 0,-3.21464 -2.10486,-5.93721 -5.01172,-6.86328 l 0,-22.15234 z m 9.56445,0 0,13.86133 4.53906,0 -0.008,-13.86133 z m 9.77539,0 0,40.32226 4.5293,0 0,-40.32226 z"
           style="fill:#000000" />
        <g
           id="g4236">
          <path
             inkscape:connector-curvature="0"
             id="path4542"
             d="m 192.93692,745.41842 a 74.607757,74.598951 0 0 0 -74.60776,74.59896 74.607757,74.598951 0 0 0 74.60776,74.59895 74.607757,74.598951 0 0 0 74.60776,-74.59895 74.607757,74.598951 0 0 0 -74.60776,-74.59896 z m 0,10.65698 a 63.949506,63.941958 0 0 1 63.94952,63.94198 63.949506,63.941958 0 0 1 -63.94952,63.94197 63.949506,63.941958 0 0 1 -63.94952,-63.94197 63.949506,63.941958 0 0 1 63.94952,-63.94198 z"
             style="fill:#000000;fill-opacity:1;stroke:none;stroke-width:2.5;stroke-linecap:round;stroke-linejoin:round;stroke-miterlimit:4;stroke-dasharray:none;stroke-dashoffset:0;stroke-opacity:1" />
        </g>
      </g>
    </g>
  </g>
</svg>
