<?xml version="1.0" encoding="UTF-8" standalone="no"?>
<svg
   xmlns:dc="http://purl.org/dc/elements/1.1/"
   xmlns:cc="http://creativecommons.org/ns#"
   xmlns:rdf="http://www.w3.org/1999/02/22-rdf-syntax-ns#"
   xmlns:svg="http://www.w3.org/2000/svg"
   xmlns="http://www.w3.org/2000/svg"
   xmlns:sodipodi="http://sodipodi.sourceforge.net/DTD/sodipodi-0.dtd"
   xmlns:inkscape="http://www.inkscape.org/namespaces/inkscape"
   width="600"
   height="90"
   viewBox="0 0 158.75 23.812501"
   version="1.1"
   id="svg619"
   inkscape:version="1.0 (4035a4fb49, 2020-05-01)"
   sodipodi:docname="crisis-front.svg">
  <defs
     id="defs613" />
  <sodipodi:namedview
     units="px"
     id="base"
     pagecolor="#ffffff"
     bordercolor="#666666"
     borderopacity="1.0"
     inkscape:pageopacity="0.0"
     inkscape:pageshadow="2"
     inkscape:zoom="2.8"
     inkscape:cx="343.74173"
     inkscape:cy="35.558682"
     inkscape:document-units="mm"
     inkscape:current-layer="layer1"
     inkscape:document-rotation="0"
     showgrid="false"
     fit-margin-top="0"
     fit-margin-left="0"
     fit-margin-right="0"
     fit-margin-bottom="0" />
  <metadata
     id="metadata616">
    <rdf:RDF>
      <cc:Work
         rdf:about="">
        <dc:format>image/svg+xml</dc:format>
        <dc:type
           rdf:resource="http://purl.org/dc/dcmitype/StillImage" />
        <dc:title></dc:title>
      </cc:Work>
    </rdf:RDF>
  </metadata>
  <g
     inkscape:label="Layer 1"
     inkscape:groupmode="layer"
     id="layer1"
     transform="translate(-21.173885,-32.937889)">
    <path
       style="opacity:0.85;fill:#f40000;fill-opacity:1;stroke-width:0.264583"
       inkscape:connector-curvature="0"
       d="m 175.30617,33.780061 c -0.40098,0.04367 -0.80566,0.341676 -0.99657,0.970348 -0.37696,1.240919 -1.15818,2.771217 -2.19061,4.414541 0.50837,0.339821 0.96615,0.753455 1.35662,1.226048 1.4431,-1.336446 2.85561,-2.385632 4.11184,-2.956815 1.91593,-0.87114 0.22626,-3.152898 -1.72757,-1.415151 1.07337,-1.356801 0.26687,-2.328611 -0.55376,-2.239011 z m -15.17062,1.509453 c -0.82085,0.09857 -1.56598,1.23156 -0.50618,2.28969 -1.76006,-1.328722 -2.99019,0.89689 -1.22867,1.500024 1.30543,0.446917 2.93816,1.309041 4.68871,2.422877 0.30599,-0.591665 0.70513,-1.130179 1.17845,-1.596012 -1.34872,-1.470774 -2.46231,-2.89079 -3.18198,-4.104951 -0.24356,-0.410865 -0.60368,-0.553318 -0.95021,-0.511685 z m 7.97662,3.683005 c -2.98347,0.296586 -5.15389,2.946357 -4.85731,5.929733 0.19746,1.986308 1.43837,3.611208 3.12596,4.388271 l 0.2493,2.507827 0.83221,-0.08273 -0.20981,-2.110442 c 0.23995,0.0637 0.48592,0.111183 0.73663,0.141395 l 0.18868,1.897922 0.83096,-0.08261 -0.17693,-1.779746 c 0.11696,-0.0041 0.23439,-0.01208 0.35257,-0.02382 0.11724,-0.01165 0.23303,-0.02702 0.34764,-0.04579 l 0.17692,1.779746 0.83079,-0.08259 -0.18867,-1.897877 c 0.24,-0.0789 0.47165,-0.174132 0.69442,-0.283652 l 0.20979,2.110397 0.83088,-0.0826 -0.24903,-2.504983 c 1.50407,-1.093758 2.40243,-2.932938 2.20479,-4.921069 -0.2966,-2.983509 -2.94629,-5.154025 -5.9298,-4.857437 z m -2.58333,4.217768 c 0.88386,-0.08787 1.67182,0.557588 1.75967,1.441459 0.0879,0.883871 -0.55758,1.671818 -1.44145,1.759683 -0.88387,0.08787 -1.67182,-0.557588 -1.75969,-1.441459 -0.0879,-0.88387 0.5576,-1.671817 1.44147,-1.759683 z m 5.93826,-0.590319 c 0.88378,-0.08786 1.67181,0.557587 1.75968,1.441458 0.0879,0.883871 -0.55768,1.671827 -1.44146,1.759683 -0.88387,0.08786 -1.67182,-0.557588 -1.75968,-1.441459 -0.0879,-0.88387 0.55759,-1.671817 1.44146,-1.759682 z m -2.73504,2.622119 1.54403,2.010132 -2.66203,0.26463 1.11807,-2.274772 z m -4.45783,3.611406 c -1.64659,1.621669 -3.23403,2.944082 -4.5358,3.703301 -1.60825,0.938167 0.0359,2.876568 1.49988,1.227339 -1.18146,1.772182 1.24628,2.976431 1.7782,1.457848 0.52711,-1.504994 1.49384,-3.367808 2.7234,-5.321943 -0.5379,-0.283547 -1.03213,-0.642867 -1.4656,-1.066598 z m 9.48456,-0.865722 c -0.32096,0.454637 -0.7016,0.86537 -1.13167,1.221073 1.58998,1.610539 2.86594,3.166175 3.56111,4.460001 0.94776,1.763866 3.23406,0.115016 1.2701,-1.550389 2.25771,1.319034 3.46494,-1.250749 1.4151,-1.727654 -1.47751,-0.343694 -3.25307,-1.216673 -5.11468,-2.403025 z"
       id="path4533-5" />
    <path
       id="path4535-3"
       d="m 43.349946,36.881092 c -0.390771,-0.0999 -0.874332,0.03701 -1.273851,0.558607 -0.788702,1.029527 -2.057523,2.188055 -3.60128,3.364183 0.35667,0.496696 0.640057,1.044743 0.839704,1.624351 1.820517,-0.744584 3.511491,-1.230957 4.888285,-1.324644 2.099819,-0.142887 1.318999,-2.872665 -1.120624,-1.931671 1.481459,-0.893483 1.06788,-2.086451 0.267734,-2.29088 z M 28.615367,32.967251 c -0.803186,-0.195945 -1.898718,0.603239 -1.27797,1.966136 -1.181396,-1.862155 -3.114719,-0.210234 -1.677165,0.973051 1.065368,0.876863 2.291381,2.257416 3.539332,3.915028 0.49427,-0.446537 1.057097,-0.810598 1.663849,-1.080559 -0.746362,-1.850715 -1.290408,-3.571346 -1.537886,-4.960897 -0.08378,-0.470229 -0.370939,-0.730065 -0.710019,-0.812767 z m 6.175373,6.249464 c -2.897621,-0.769947 -5.860294,0.948941 -6.630218,3.846476 -0.512609,1.929156 0.0787,3.886329 1.385944,5.2065 l -0.647199,2.43567 0.808263,0.214769 0.544644,-2.049718 c 0.202297,0.143903 0.415928,0.274728 0.640068,0.391056 l -0.489799,1.843312 0.807053,0.214448 0.459302,-1.728536 c 0.110958,0.03721 0.223702,0.071 0.338478,0.101496 0.113868,0.03026 0.227687,0.05652 0.34158,0.07921 l -0.459302,1.728537 0.806881,0.214402 0.489788,-1.843269 c 0.252426,0.0104 0.502759,0.0026 0.749801,-0.02174 l -0.544633,2.049674 0.806967,0.214425 0.646465,-2.432907 c 1.792359,-0.495953 3.279333,-1.902555 3.792413,-3.833482 0.769958,-2.897663 -0.948821,-5.860401 -3.846485,-6.630359 z m -3.899897,3.042037 c 0.85844,0.228102 1.369558,1.10914 1.141457,1.967579 -0.228102,0.85844 -1.109141,1.369558 -1.96758,1.141456 -0.858439,-0.228102 -1.369557,-1.10914 -1.141455,-1.967579 0.228101,-0.858439 1.10914,-1.369558 1.967578,-1.141456 z m 5.767389,1.532493 c 0.858353,0.228079 1.369559,1.109141 1.141457,1.967579 -0.228102,0.85844 -1.109227,1.369535 -1.96758,1.141456 -0.858439,-0.228101 -1.369557,-1.10914 -1.141455,-1.967579 0.228101,-0.858439 1.10914,-1.369557 1.967578,-1.141456 z m -3.48163,1.494728 0.739848,2.424314 -2.585422,-0.68699 1.84566,-1.737301 z m -5.442098,1.81606 c -2.111179,0.9402 -4.06189,1.620973 -5.54737,1.874721 -1.835278,0.313685 -0.976526,2.705982 0.973395,1.67587 -1.728525,1.244457 0.121737,3.22452 1.153034,1.989425 1.022029,-1.224058 2.581314,-2.628781 4.418765,-4.026717 -0.404067,-0.45437 -0.740654,-0.96436 -0.997725,-1.51332 z m 9.184586,2.519923 c -0.460168,0.312979 -0.9608,0.563892 -1.488388,0.745925 0.923186,2.0663 1.571638,3.97093 1.768205,5.426469 0.268017,1.984347 2.987726,1.243336 1.733633,-1.005663 1.650755,2.027831 3.683493,0.04562 1.93165,-1.120722 -1.262734,-0.840638 -2.618667,-2.281509 -3.945143,-4.046021 z"
       inkscape:connector-curvature="0"
       style="opacity:0.85;fill:#f40000;fill-opacity:1;stroke-width:0.264584" />
    <g
       id="g1765"
       transform="translate(0.852548,0.7464865)">
      <g
         style="font-style:normal;font-variant:normal;font-weight:normal;font-stretch:normal;font-size:6.35px;line-height:1;font-family:'Archivo Narrow';-inkscape-font-specification:'Archivo Narrow';text-align:center;letter-spacing:0px;word-spacing:0px;text-anchor:middle;fill:#000000;fill-opacity:1;stroke:none;stroke-width:0.264583"
         id="text1562"
         aria-label=" Do all encountered crises  after this round's Event ">
        <path
           id="path1611"
           style="stroke-width:0.264583"
           d="m 72.010364,47.610703 c 1.39065,0 1.8923,-1.59385 1.8923,-2.72415 0,-1.08585 -0.5334,-1.63195 -1.45415,-1.63195 h -1.28905 l -0.61595,4.3561 z m 0.37465,-3.8481 c 0.59055,0 0.9398,0.3683 0.9398,1.1303 0,0.889 -0.28575,2.2098 -1.37795,2.2098 h -0.76835 l 0.46355,-3.3401 z" />
        <path
           id="path1613"
           style="font-style:italic;font-variant:normal;font-weight:normal;font-stretch:normal;font-family:'Archivo Narrow';-inkscape-font-specification:'Archivo Narrow Italic';stroke-width:0.264583"
           d="m 75.711124,44.194403 c -1.1557,0 -1.41605,1.39065 -1.41605,2.30505 0,0.8128 0.3683,1.18745 1.0541,1.18745 1.1557,0 1.41605,-1.37795 1.41605,-2.29235 0,-0.81915 -0.3683,-1.20015 -1.0541,-1.20015 z m 0,0.46355 c 0.3429,0 0.51435,0.254 0.51435,0.74295 0,0.45085 -0.1016,1.82245 -0.8763,1.82245 -0.36195,0 -0.51435,-0.26035 -0.51435,-0.79375 0,-0.43815 0.10795,-1.77165 0.8763,-1.77165 z" />
        <path
           id="path1615"
           style="font-style:italic;font-variant:normal;font-weight:normal;font-stretch:normal;font-family:'Archivo Narrow';-inkscape-font-specification:'Archivo Narrow Italic';stroke-width:0.264583"
           d="m 79.924944,44.194403 c -0.6223,0 -1.28905,0.7239 -1.28905,2.25425 0,0.85725 0.3556,1.23825 0.84455,1.23825 0.29845,0 0.52705,-0.1651 0.76835,-0.52705 0.0063,0.37465 0.1905,0.52705 0.4572,0.52705 0.1651,0 0.2921,-0.05715 0.3556,-0.1016 l 0.0508,-0.36195 h -0.2032 c -0.08255,0 -0.1524,-0.0508 -0.1524,-0.1778 0,-0.0762 0.38735,-2.77495 0.38735,-2.77495 h -0.41275 l -0.1143,0.46355 c -0.127,-0.41275 -0.38735,-0.53975 -0.69215,-0.53975 z m 0.0762,0.46355 c 0.2921,0 0.43815,0.2413 0.43815,0.71755 0,0.508 -0.19685,1.84785 -0.8001,1.84785 -0.31115,0 -0.4699,-0.2413 -0.4699,-0.7239 0,-0.5461 0.1524,-1.8415 0.83185,-1.8415 z" />
        <path
           id="path1617"
           style="font-style:italic;font-variant:normal;font-weight:normal;font-stretch:normal;font-family:'Archivo Narrow';-inkscape-font-specification:'Archivo Narrow Italic';stroke-width:0.264583"
           d="m 82.57339,43.019653 h -0.5207 l -0.635,4.59105 h 0.51435 z" />
        <path
           id="path1619"
           style="font-style:italic;font-variant:normal;font-weight:normal;font-stretch:normal;font-family:'Archivo Narrow';-inkscape-font-specification:'Archivo Narrow Italic';stroke-width:0.264583"
           d="m 83.726809,43.019653 h -0.5207 l -0.635,4.59105 h 0.51435 z" />
        <path
           id="path1621"
           style="font-style:italic;font-variant:normal;font-weight:normal;font-stretch:normal;font-family:'Archivo Narrow';-inkscape-font-specification:'Archivo Narrow Italic';stroke-width:0.264583"
           d="m 86.712301,44.194403 c -1.1557,0 -1.41605,1.32715 -1.41605,2.27965 0,0.83185 0.3937,1.21285 1.0795,1.21285 0.7112,0 1.1303,-0.5588 1.2319,-1.2065 h -0.52705 c -0.05715,0.40005 -0.3302,0.74295 -0.70485,0.74295 -0.36195,0 -0.53975,-0.26035 -0.53975,-0.79375 0,-0.08255 0.0063,-0.2032 0.01905,-0.33655 h 1.83515 c 0.0381,-0.2413 0.0508,-0.4826 0.0508,-0.6985 0,-0.81915 -0.36195,-1.20015 -1.0287,-1.20015 z m 0,0.46355 c 0.32385,0 0.48895,0.254 0.48895,0.74295 0,0.05715 0,0.14605 -0.0063,0.2286 h -1.27635 c 0.1016,-0.4826 0.3302,-0.97155 0.79375,-0.97155 z" />
        <path
           id="path1623"
           style="font-style:italic;font-variant:normal;font-weight:normal;font-stretch:normal;font-family:'Archivo Narrow';-inkscape-font-specification:'Archivo Narrow Italic';stroke-width:0.264583"
           d="m 89.868746,44.194403 c -0.5334,0 -0.79375,0.381 -0.889,0.5715 v -0.4953 h -0.4064 l -0.4699,3.3401 h 0.5207 l 0.26035,-1.8669 c 0.0889,-0.64135 0.3683,-1.08585 0.79375,-1.08585 0.24765,0 0.381,0.12065 0.381,0.4064 0,0.2032 -0.3429,2.54635 -0.3429,2.54635 h 0.5207 c 0,0 0.3556,-2.4638 0.3556,-2.667 0,-0.381 -0.17145,-0.7493 -0.7239,-0.7493 z" />
        <path
           id="path1625"
           style="font-style:italic;font-variant:normal;font-weight:normal;font-stretch:normal;font-family:'Archivo Narrow';-inkscape-font-specification:'Archivo Narrow Italic';stroke-width:0.264583"
           d="m 92.377493,44.194403 c -1.08585,0 -1.32715,1.2954 -1.32715,2.27965 0,0.83185 0.3937,1.21285 1.02235,1.21285 0.67945,0 1.07315,-0.61595 1.1557,-1.2954 h -0.5207 c -0.0508,0.43815 -0.2921,0.83185 -0.6477,0.83185 -0.3048,0 -0.4699,-0.2921 -0.4699,-0.79375 0,-0.3556 0.0889,-1.77165 0.7874,-1.77165 0.2794,0 0.41275,0.254 0.41275,0.74295 v 0.10795 h 0.53975 v -0.1143 c 0,-0.81915 -0.3302,-1.20015 -0.9525,-1.20015 z" />
        <path
           id="path1627"
           style="font-style:italic;font-variant:normal;font-weight:normal;font-stretch:normal;font-family:'Archivo Narrow';-inkscape-font-specification:'Archivo Narrow Italic';stroke-width:0.264583"
           d="m 95.083585,44.194403 c -1.1557,0 -1.41605,1.39065 -1.41605,2.30505 0,0.8128 0.3683,1.18745 1.0541,1.18745 1.1557,0 1.41605,-1.37795 1.41605,-2.29235 0,-0.81915 -0.3683,-1.20015 -1.0541,-1.20015 z m 0,0.46355 c 0.3429,0 0.51435,0.254 0.51435,0.74295 0,0.45085 -0.1016,1.82245 -0.8763,1.82245 -0.36195,0 -0.51435,-0.26035 -0.51435,-0.79375 0,-0.43815 0.10795,-1.77165 0.8763,-1.77165 z" />
        <path
           id="path1629"
           style="font-style:italic;font-variant:normal;font-weight:normal;font-stretch:normal;font-family:'Archivo Narrow';-inkscape-font-specification:'Archivo Narrow Italic';stroke-width:0.264583"
           d="m 99.103631,44.270603 h -0.5207 l -0.26035,1.8669 c -0.0889,0.64135 -0.3683,1.08585 -0.79375,1.08585 -0.24765,0 -0.381,-0.12065 -0.381,-0.4064 0,-0.2032 0.3429,-2.54635 0.3429,-2.54635 h -0.5207 c 0,0 -0.3556,2.4638 -0.3556,2.667 0,0.381 0.17145,0.7493 0.7239,0.7493 0.5334,0 0.79375,-0.37465 0.889,-0.56515 v 0.48895 h 0.4064 z" />
        <path
           id="path1631"
           style="font-style:italic;font-variant:normal;font-weight:normal;font-stretch:normal;font-family:'Archivo Narrow';-inkscape-font-specification:'Archivo Narrow Italic';stroke-width:0.264583"
           d="m 101.14248,44.194403 c -0.5334,0 -0.79375,0.381 -0.889,0.5715 v -0.4953 h -0.406403 l -0.4699,3.3401 h 0.5207 l 0.260353,-1.8669 c 0.0889,-0.64135 0.3683,-1.08585 0.79375,-1.08585 0.24765,0 0.381,0.12065 0.381,0.4064 0,0.2032 -0.3429,2.54635 -0.3429,2.54635 h 0.5207 c 0,0 0.3556,-2.4638 0.3556,-2.667 0,-0.381 -0.17145,-0.7493 -0.7239,-0.7493 z" />
        <path
           id="path1633"
           style="font-style:italic;font-variant:normal;font-weight:normal;font-stretch:normal;font-family:'Archivo Narrow';-inkscape-font-specification:'Archivo Narrow Italic';stroke-width:0.264583"
           d="m 103.41627,43.343503 h -0.5461 l -0.13335,0.9271 h -0.28575 l -0.0635,0.46355 h 0.28575 c 0,0 -0.3302,2.2352 -0.3302,2.4003 0,0.28575 0.127,0.53975 0.51435,0.53975 0.127,0 0.28575,-0.0381 0.38735,-0.0889 l 0.0508,-0.36195 h -0.18415 c -0.15875,0 -0.23495,-0.08255 -0.23495,-0.23495 0,-0.0762 0.3175,-2.25425 0.3175,-2.25425 h 0.45085 l 0.0635,-0.46355 h -0.45085 z" />
        <path
           id="path1635"
           style="font-style:italic;font-variant:normal;font-weight:normal;font-stretch:normal;font-family:'Archivo Narrow';-inkscape-font-specification:'Archivo Narrow Italic';stroke-width:0.264583"
           d="m 105.2166,44.194403 c -1.1557,0 -1.41605,1.32715 -1.41605,2.27965 0,0.83185 0.3937,1.21285 1.0795,1.21285 0.7112,0 1.1303,-0.5588 1.2319,-1.2065 h -0.52705 c -0.0572,0.40005 -0.3302,0.74295 -0.70485,0.74295 -0.36195,0 -0.53975,-0.26035 -0.53975,-0.79375 0,-0.08255 0.006,-0.2032 0.0191,-0.33655 h 1.83515 c 0.0381,-0.2413 0.0508,-0.4826 0.0508,-0.6985 0,-0.81915 -0.36195,-1.20015 -1.0287,-1.20015 z m 0,0.46355 c 0.32385,0 0.48895,0.254 0.48895,0.74295 0,0.05715 0,0.14605 -0.006,0.2286 h -1.27635 c 0.1016,-0.4826 0.3302,-0.97155 0.79375,-0.97155 z" />
        <path
           id="path1637"
           style="font-style:italic;font-variant:normal;font-weight:normal;font-stretch:normal;font-family:'Archivo Narrow';-inkscape-font-specification:'Archivo Narrow Italic';stroke-width:0.264583"
           d="m 108.11269,44.194403 c -0.381,0 -0.5461,0.3556 -0.66675,0.6096 v -0.5334 h -0.4064 l -0.4699,3.3401 h 0.5207 l 0.27305,-1.9304 c 0.0825,-0.59055 0.41275,-0.89535 0.74295,-0.89535 h 0.17145 l 0.0762,-0.53975 c 0,0 -0.1016,-0.0508 -0.2413,-0.0508 z" />
        <path
           id="path1639"
           style="font-style:italic;font-variant:normal;font-weight:normal;font-stretch:normal;font-family:'Archivo Narrow';-inkscape-font-specification:'Archivo Narrow Italic';stroke-width:0.264583"
           d="m 109.84267,44.194403 c -1.1557,0 -1.41605,1.32715 -1.41605,2.27965 0,0.83185 0.3937,1.21285 1.0795,1.21285 0.7112,0 1.1303,-0.5588 1.2319,-1.2065 h -0.52705 c -0.0572,0.40005 -0.3302,0.74295 -0.70485,0.74295 -0.36195,0 -0.53975,-0.26035 -0.53975,-0.79375 0,-0.08255 0.006,-0.2032 0.0191,-0.33655 h 1.83515 c 0.0381,-0.2413 0.0508,-0.4826 0.0508,-0.6985 0,-0.81915 -0.36195,-1.20015 -1.0287,-1.20015 z m 0,0.46355 c 0.32385,0 0.48895,0.254 0.48895,0.74295 0,0.05715 0,0.14605 -0.006,0.2286 h -1.27635 c 0.1016,-0.4826 0.3302,-0.97155 0.79375,-0.97155 z" />
        <path
           id="path1641"
           style="font-style:italic;font-variant:normal;font-weight:normal;font-stretch:normal;font-family:'Archivo Narrow';-inkscape-font-specification:'Archivo Narrow Italic';stroke-width:0.264583"
           d="m 114.01512,43.019653 h -0.5207 l -0.2286,1.61925 c -0.14605,-0.3175 -0.38735,-0.4445 -0.66675,-0.4445 -0.6223,0 -1.28905,0.7239 -1.28905,2.25425 0,0.85725 0.3556,1.23825 0.84455,1.23825 0.3048,0 0.5842,-0.1651 0.80645,-0.52705 v 0.45085 h 0.41275 z m -1.33985,1.6383 c 0.31115,0 0.46355,0.2413 0.46355,0.71755 0,0.508 -0.1651,1.84785 -0.8255,1.84785 -0.31115,0 -0.4699,-0.2413 -0.4699,-0.7239 0,-0.5461 0.1524,-1.8415 0.83185,-1.8415 z" />
        <path
           id="path1643"
           style="font-style:italic;font-variant:normal;font-weight:normal;font-stretch:normal;font-family:'Archivo Narrow';-inkscape-font-specification:'Archivo Narrow Italic';stroke-width:0.264583"
           d="m 116.95894,44.194403 c -1.08585,0 -1.32715,1.2954 -1.32715,2.27965 0,0.83185 0.3937,1.21285 1.02235,1.21285 0.67945,0 1.07315,-0.61595 1.1557,-1.2954 h -0.5207 c -0.0508,0.43815 -0.2921,0.83185 -0.6477,0.83185 -0.3048,0 -0.4699,-0.2921 -0.4699,-0.79375 0,-0.3556 0.0889,-1.77165 0.7874,-1.77165 0.2794,0 0.41275,0.254 0.41275,0.74295 v 0.10795 h 0.53975 v -0.1143 c 0,-0.81915 -0.3302,-1.20015 -0.9525,-1.20015 z" />
        <path
           id="path1645"
           style="font-style:italic;font-variant:normal;font-weight:normal;font-stretch:normal;font-family:'Archivo Narrow';-inkscape-font-specification:'Archivo Narrow Italic';stroke-width:0.264583"
           d="m 119.68408,44.194403 c -0.381,0 -0.5461,0.3556 -0.66675,0.6096 v -0.5334 h -0.4064 l -0.4699,3.3401 h 0.5207 l 0.27305,-1.9304 c 0.0825,-0.59055 0.41275,-0.89535 0.74295,-0.89535 h 0.17145 l 0.0762,-0.53975 c 0,0 -0.1016,-0.0508 -0.2413,-0.0508 z" />
        <path
           id="path1647"
           style="font-style:italic;font-variant:normal;font-weight:normal;font-stretch:normal;font-family:'Archivo Narrow';-inkscape-font-specification:'Archivo Narrow Italic';stroke-width:0.264583"
           d="m 120.86161,44.270603 h -0.5207 l -0.46355,3.3401 h 0.51435 z m 0.17145,-1.25095 h -0.5207 l -0.0825,0.6223 h 0.5207 z" />
        <path
           id="path1649"
           style="font-style:italic;font-variant:normal;font-weight:normal;font-stretch:normal;font-family:'Archivo Narrow';-inkscape-font-specification:'Archivo Narrow Italic';stroke-width:0.264583"
           d="m 122.40238,44.194403 c -0.67945,0 -1.0287,0.41275 -1.0287,0.9398 0,0.99695 1.27,0.86995 1.27,1.61925 0,0.26035 -0.1905,0.47625 -0.4826,0.47625 -0.3048,0 -0.56515,-0.1778 -0.56515,-0.5715 0,-0.0635 0.006,-0.13335 0.0191,-0.2032 h -0.53975 c -0.0127,0.06985 -0.0127,0.1397 -0.0127,0.2032 0,0.62865 0.4699,1.0287 1.04775,1.0287 0.65405,0 1.07315,-0.37465 1.07315,-1.016 0,-1.0795 -1.27,-0.8509 -1.27,-1.6129 0,-0.2667 0.24765,-0.4064 0.4318,-0.4064 0.23495,0 0.4699,0.13335 0.4699,0.59055 h 0.53975 c 0,-0.53975 -0.27305,-1.04775 -0.9525,-1.04775 z" />
        <path
           id="path1651"
           style="font-style:italic;font-variant:normal;font-weight:normal;font-stretch:normal;font-family:'Archivo Narrow';-inkscape-font-specification:'Archivo Narrow Italic';stroke-width:0.264583"
           d="m 125.17197,44.194403 c -1.1557,0 -1.41605,1.32715 -1.41605,2.27965 0,0.83185 0.3937,1.21285 1.0795,1.21285 0.7112,0 1.1303,-0.5588 1.2319,-1.2065 h -0.52705 c -0.0572,0.40005 -0.3302,0.74295 -0.70485,0.74295 -0.36195,0 -0.53975,-0.26035 -0.53975,-0.79375 0,-0.08255 0.006,-0.2032 0.019,-0.33655 h 1.83515 c 0.0381,-0.2413 0.0508,-0.4826 0.0508,-0.6985 0,-0.81915 -0.36195,-1.20015 -1.0287,-1.20015 z m 0,0.46355 c 0.32385,0 0.48895,0.254 0.48895,0.74295 0,0.05715 0,0.14605 -0.006,0.2286 h -1.27635 c 0.1016,-0.4826 0.3302,-0.97155 0.79375,-0.97155 z" />
        <path
           id="path1653"
           style="font-style:italic;font-variant:normal;font-weight:normal;font-stretch:normal;font-family:'Archivo Narrow';-inkscape-font-specification:'Archivo Narrow Italic';stroke-width:0.264583"
           d="m 127.89661,44.194403 c -0.67945,0 -1.0287,0.41275 -1.0287,0.9398 0,0.99695 1.27,0.86995 1.27,1.61925 0,0.26035 -0.1905,0.47625 -0.4826,0.47625 -0.3048,0 -0.56515,-0.1778 -0.56515,-0.5715 0,-0.0635 0.006,-0.13335 0.0191,-0.2032 h -0.53975 c -0.0127,0.06985 -0.0127,0.1397 -0.0127,0.2032 0,0.62865 0.4699,1.0287 1.04775,1.0287 0.65405,0 1.07315,-0.37465 1.07315,-1.016 0,-1.0795 -1.27,-0.8509 -1.27,-1.6129 0,-0.2667 0.24765,-0.4064 0.4318,-0.4064 0.23495,0 0.4699,0.13335 0.4699,0.59055 h 0.53975 c 0,-0.53975 -0.27305,-1.04775 -0.9525,-1.04775 z" />
        <path
           id="path1655"
           style="font-style:italic;font-variant:normal;font-weight:normal;font-stretch:normal;font-family:'Archivo Narrow';-inkscape-font-specification:'Archivo Narrow Italic';stroke-width:0.264583"
           d="m 75.367083,50.689028 c -0.6223,0 -1.28905,0.7239 -1.28905,2.25425 0,0.85725 0.3556,1.23825 0.84455,1.23825 0.29845,0 0.52705,-0.1651 0.76835,-0.52705 0.0063,0.37465 0.1905,0.52705 0.4572,0.52705 0.1651,0 0.2921,-0.05715 0.3556,-0.1016 l 0.0508,-0.36195 h -0.2032 c -0.08255,0 -0.1524,-0.0508 -0.1524,-0.1778 0,-0.0762 0.38735,-2.77495 0.38735,-2.77495 h -0.41275 l -0.1143,0.46355 c -0.127,-0.41275 -0.38735,-0.53975 -0.69215,-0.53975 z m 0.0762,0.46355 c 0.2921,0 0.43815,0.2413 0.43815,0.71755 0,0.508 -0.19685,1.84785 -0.8001,1.84785 -0.31115,0 -0.4699,-0.2413 -0.4699,-0.7239 0,-0.5461 0.1524,-1.8415 0.83185,-1.8415 z" />
        <path
           id="path1657"
           style="font-style:italic;font-variant:normal;font-weight:normal;font-stretch:normal;font-family:'Archivo Narrow';-inkscape-font-specification:'Archivo Narrow Italic';stroke-width:0.264583"
           d="m 78.199679,49.463478 c -0.508,0 -0.71755,0.38735 -0.76835,0.76835 l -0.0762,0.5334 h -0.2921 l -0.0635,0.46355 h 0.2921 l -0.4318,3.2893 c -0.0254,0.19685 -0.1397,0.3048 -0.33655,0.3048 h -0.2794 l -0.0508,0.36195 c 0.1016,0.0381 0.27305,0.0762 0.42545,0.0762 0.50165,0 0.7112,-0.38735 0.762,-0.76835 l 0.4318,-3.2639 h 0.57785 l 0.0635,-0.46355 h -0.57785 l 0.0762,-0.5588 c 0.0254,-0.19685 0.14605,-0.3048 0.3429,-0.3048 h 0.2794 l 0.0508,-0.36195 c -0.1016,-0.0381 -0.27305,-0.0762 -0.42545,-0.0762 z" />
        <path
           id="path1659"
           style="font-style:italic;font-variant:normal;font-weight:normal;font-stretch:normal;font-family:'Archivo Narrow';-inkscape-font-specification:'Archivo Narrow Italic';stroke-width:0.264583"
           d="m 79.498354,49.838128 h -0.5461 l -0.13335,0.9271 h -0.28575 l -0.0635,0.46355 h 0.28575 c 0,0 -0.3302,2.2352 -0.3302,2.4003 0,0.28575 0.127,0.53975 0.51435,0.53975 0.127,0 0.28575,-0.0381 0.38735,-0.0889 l 0.0508,-0.36195 h -0.18415 c -0.15875,0 -0.23495,-0.08255 -0.23495,-0.23495 0,-0.0762 0.3175,-2.25425 0.3175,-2.25425 h 0.45085 l 0.0635,-0.46355 h -0.45085 z" />
        <path
           id="path1661"
           style="font-style:italic;font-variant:normal;font-weight:normal;font-stretch:normal;font-family:'Archivo Narrow';-inkscape-font-specification:'Archivo Narrow Italic';stroke-width:0.264583"
           d="m 81.298678,50.689028 c -1.1557,0 -1.41605,1.32715 -1.41605,2.27965 0,0.83185 0.3937,1.21285 1.0795,1.21285 0.7112,0 1.1303,-0.5588 1.2319,-1.2065 h -0.52705 c -0.05715,0.40005 -0.3302,0.74295 -0.70485,0.74295 -0.36195,0 -0.53975,-0.26035 -0.53975,-0.79375 0,-0.08255 0.0064,-0.2032 0.01905,-0.33655 h 1.83515 c 0.0381,-0.2413 0.0508,-0.4826 0.0508,-0.6985 0,-0.81915 -0.36195,-1.20015 -1.0287,-1.20015 z m 0,0.46355 c 0.32385,0 0.48895,0.254 0.48895,0.74295 0,0.05715 0,0.14605 -0.0063,0.2286 h -1.27635 c 0.1016,-0.4826 0.3302,-0.97155 0.79375,-0.97155 z" />
        <path
           id="path1663"
           style="font-style:italic;font-variant:normal;font-weight:normal;font-stretch:normal;font-family:'Archivo Narrow';-inkscape-font-specification:'Archivo Narrow Italic';stroke-width:0.264583"
           d="m 84.194774,50.689028 c -0.381,0 -0.5461,0.3556 -0.66675,0.6096 v -0.5334 h -0.4064 l -0.4699,3.3401 h 0.5207 l 0.27305,-1.9304 c 0.08255,-0.59055 0.41275,-0.89535 0.74295,-0.89535 h 0.17145 l 0.0762,-0.53975 c 0,0 -0.1016,-0.0508 -0.2413,-0.0508 z" />
        <path
           id="path1665"
           style="font-style:italic;font-variant:normal;font-weight:normal;font-stretch:normal;font-family:'Archivo Narrow';-inkscape-font-specification:'Archivo Narrow Italic';stroke-width:0.264583"
           d="m 87.026576,49.838128 h -0.5461 l -0.13335,0.9271 h -0.28575 l -0.0635,0.46355 h 0.28575 c 0,0 -0.3302,2.2352 -0.3302,2.4003 0,0.28575 0.127,0.53975 0.51435,0.53975 0.127,0 0.28575,-0.0381 0.38735,-0.0889 l 0.0508,-0.36195 h -0.18415 c -0.15875,0 -0.23495,-0.08255 -0.23495,-0.23495 0,-0.0762 0.3175,-2.25425 0.3175,-2.25425 h 0.45085 l 0.0635,-0.46355 h -0.45085 z" />
        <path
           id="path1667"
           style="font-style:italic;font-variant:normal;font-weight:normal;font-stretch:normal;font-family:'Archivo Narrow';-inkscape-font-specification:'Archivo Narrow Italic';stroke-width:0.264583"
           d="m 88.49035,49.514278 h -0.5207 l -0.64135,4.59105 h 0.51435 l 0.26035,-1.8669 c 0.0889,-0.64135 0.3683,-1.08585 0.79375,-1.08585 0.24765,0 0.381,0.12065 0.381,0.4064 0,0.2032 -0.3429,2.54635 -0.3429,2.54635 h 0.5207 c 0,0 0.3556,-2.4638 0.3556,-2.667 0,-0.381 -0.17145,-0.7493 -0.7239,-0.7493 -0.4445,0 -0.6985,0.2667 -0.8255,0.46355 z" />
        <path
           id="path1669"
           style="font-style:italic;font-variant:normal;font-weight:normal;font-stretch:normal;font-family:'Archivo Narrow';-inkscape-font-specification:'Archivo Narrow Italic';stroke-width:0.264583"
           d="m 91.164197,50.765228 h -0.5207 l -0.46355,3.3401 h 0.51435 z m 0.17145,-1.25095 h -0.5207 l -0.08255,0.6223 h 0.5207 z" />
        <path
           id="path1671"
           style="font-style:italic;font-variant:normal;font-weight:normal;font-stretch:normal;font-family:'Archivo Narrow';-inkscape-font-specification:'Archivo Narrow Italic';stroke-width:0.264583"
           d="m 92.704965,50.689028 c -0.67945,0 -1.0287,0.41275 -1.0287,0.9398 0,0.99695 1.27,0.86995 1.27,1.61925 0,0.26035 -0.1905,0.47625 -0.4826,0.47625 -0.3048,0 -0.56515,-0.1778 -0.56515,-0.5715 0,-0.0635 0.0063,-0.13335 0.01905,-0.2032 h -0.53975 c -0.0127,0.06985 -0.0127,0.1397 -0.0127,0.2032 0,0.62865 0.4699,1.0287 1.04775,1.0287 0.65405,0 1.07315,-0.37465 1.07315,-1.016 0,-1.0795 -1.27,-0.8509 -1.27,-1.6129 0,-0.2667 0.24765,-0.4064 0.4318,-0.4064 0.23495,0 0.4699,0.13335 0.4699,0.59055 h 0.53975 c 0,-0.53975 -0.27305,-1.04775 -0.9525,-1.04775 z" />
        <path
           id="path1673"
           style="font-style:italic;font-variant:normal;font-weight:normal;font-stretch:normal;font-family:'Archivo Narrow';-inkscape-font-specification:'Archivo Narrow Italic';stroke-width:0.264583"
           d="m 96.931981,50.689028 c -0.381,0 -0.5461,0.3556 -0.66675,0.6096 v -0.5334 h -0.4064 l -0.4699,3.3401 h 0.5207 l 0.27305,-1.9304 c 0.08255,-0.59055 0.41275,-0.89535 0.74295,-0.89535 h 0.17145 l 0.0762,-0.53975 c 0,0 -0.1016,-0.0508 -0.2413,-0.0508 z" />
        <path
           id="path1675"
           style="font-style:italic;font-variant:normal;font-weight:normal;font-stretch:normal;font-family:'Archivo Narrow';-inkscape-font-specification:'Archivo Narrow Italic';stroke-width:0.264583"
           d="m 98.64926,50.689028 c -1.1557,0 -1.41605,1.39065 -1.41605,2.30505 0,0.8128 0.3683,1.18745 1.0541,1.18745 1.155699,0 1.416049,-1.37795 1.416049,-2.29235 0,-0.81915 -0.3683,-1.20015 -1.054099,-1.20015 z m 0,0.46355 c 0.3429,0 0.51435,0.254 0.51435,0.74295 0,0.45085 -0.1016,1.82245 -0.8763,1.82245 -0.36195,0 -0.51435,-0.26035 -0.51435,-0.79375 0,-0.43815 0.10795,-1.77165 0.8763,-1.77165 z" />
        <path
           id="path1677"
           style="font-style:italic;font-variant:normal;font-weight:normal;font-stretch:normal;font-family:'Archivo Narrow';-inkscape-font-specification:'Archivo Narrow Italic';stroke-width:0.264583"
           d="m 102.66931,50.765228 h -0.5207 l -0.26035,1.8669 c -0.0889,0.64135 -0.3683,1.08585 -0.79375,1.08585 -0.24765,0 -0.381,-0.12065 -0.381,-0.4064 0,-0.2032 0.3429,-2.54635 0.3429,-2.54635 h -0.5207 c 0,0 -0.3556,2.4638 -0.3556,2.667 0,0.381 0.17145,0.7493 0.7239,0.7493 0.5334,0 0.79375,-0.37465 0.889,-0.56515 v 0.48895 h 0.4064 z" />
        <path
           id="path1679"
           style="font-style:italic;font-variant:normal;font-weight:normal;font-stretch:normal;font-family:'Archivo Narrow';-inkscape-font-specification:'Archivo Narrow Italic';stroke-width:0.264583"
           d="m 104.70815,50.689028 c -0.5334,0 -0.79375,0.381 -0.889,0.5715 v -0.4953 h -0.4064 l -0.4699,3.3401 h 0.5207 l 0.26035,-1.8669 c 0.0889,-0.64135 0.3683,-1.08585 0.79375,-1.08585 0.24765,0 0.381,0.12065 0.381,0.4064 0,0.2032 -0.3429,2.54635 -0.3429,2.54635 h 0.5207 c 0,0 0.3556,-2.4638 0.3556,-2.667 0,-0.381 -0.17145,-0.7493 -0.7239,-0.7493 z" />
        <path
           id="path1681"
           style="font-style:italic;font-variant:normal;font-weight:normal;font-stretch:normal;font-family:'Archivo Narrow';-inkscape-font-specification:'Archivo Narrow Italic';stroke-width:0.264583"
           d="m 108.6139,49.514278 h -0.5207 l -0.2286,1.61925 c -0.14605,-0.3175 -0.38735,-0.4445 -0.66675,-0.4445 -0.6223,0 -1.28905,0.7239 -1.28905,2.25425 0,0.85725 0.3556,1.23825 0.84455,1.23825 0.3048,0 0.5842,-0.1651 0.80645,-0.52705 v 0.45085 h 0.41275 z m -1.33985,1.6383 c 0.31115,0 0.46355,0.2413 0.46355,0.71755 0,0.508 -0.1651,1.84785 -0.8255,1.84785 -0.31115,0 -0.4699,-0.2413 -0.4699,-0.7239 0,-0.5461 0.1524,-1.8415 0.83185,-1.8415 z" />
        <path
           id="path1683"
           style="font-style:italic;font-variant:normal;font-weight:normal;font-stretch:normal;font-family:'Archivo Narrow';-inkscape-font-specification:'Archivo Narrow Italic';stroke-width:0.264583"
           d="m 109.71294,49.749228 h -0.5207 l -0.13335,0.93345 0.0254,0.8382 h 0.24765 l 0.24765,-0.8382 z" />
        <path
           id="path1685"
           style="font-style:italic;font-variant:normal;font-weight:normal;font-stretch:normal;font-family:'Archivo Narrow';-inkscape-font-specification:'Archivo Narrow Italic';stroke-width:0.264583"
           d="m 111.04803,50.689028 c -0.67945,0 -1.0287,0.41275 -1.0287,0.9398 0,0.99695 1.27,0.86995 1.27,1.61925 0,0.26035 -0.1905,0.47625 -0.4826,0.47625 -0.3048,0 -0.56515,-0.1778 -0.56515,-0.5715 0,-0.0635 0.006,-0.13335 0.0191,-0.2032 h -0.53975 c -0.0127,0.06985 -0.0127,0.1397 -0.0127,0.2032 0,0.62865 0.4699,1.0287 1.04775,1.0287 0.65405,0 1.07315,-0.37465 1.07315,-1.016 0,-1.0795 -1.27,-0.8509 -1.27,-1.6129 0,-0.2667 0.24765,-0.4064 0.4318,-0.4064 0.23495,0 0.4699,0.13335 0.4699,0.59055 h 0.53975 c 0,-0.53975 -0.27305,-1.04775 -0.9525,-1.04775 z" />
        <path
           id="path1687"
           style="font-style:italic;font-variant:normal;font-weight:normal;font-stretch:normal;font-family:'Archivo Narrow';-inkscape-font-specification:'Archivo Narrow Italic';stroke-width:0.264583"
           d="m 116.57045,54.105328 0.0762,-0.508 h -2.16535 l 0.2032,-1.46685 h 1.84785 l 0.0699,-0.508 h -1.84785 l 0.1905,-1.36525 h 2.12725 l 0.0762,-0.508 h -2.68605 l -0.61595,4.3561 z" />
        <path
           id="path1689"
           style="font-style:italic;font-variant:normal;font-weight:normal;font-stretch:normal;font-family:'Archivo Narrow';-inkscape-font-specification:'Archivo Narrow Italic';stroke-width:0.264583"
           d="m 119.9415,50.765228 h -0.5588 l -1.0668,2.58445 h -0.0254 l -0.3429,-2.58445 h -0.55245 l 0.4953,3.3401 h 0.56515 z" />
        <path
           id="path1691"
           style="font-style:italic;font-variant:normal;font-weight:normal;font-stretch:normal;font-family:'Archivo Narrow';-inkscape-font-specification:'Archivo Narrow Italic';stroke-width:0.264583"
           d="m 121.34585,50.689028 c -1.1557,0 -1.41605,1.32715 -1.41605,2.27965 0,0.83185 0.3937,1.21285 1.0795,1.21285 0.7112,0 1.1303,-0.5588 1.2319,-1.2065 h -0.52705 c -0.0572,0.40005 -0.3302,0.74295 -0.70485,0.74295 -0.36195,0 -0.53975,-0.26035 -0.53975,-0.79375 0,-0.08255 0.006,-0.2032 0.0191,-0.33655 h 1.83515 c 0.0381,-0.2413 0.0508,-0.4826 0.0508,-0.6985 0,-0.81915 -0.36195,-1.20015 -1.0287,-1.20015 z m 0,0.46355 c 0.32385,0 0.48895,0.254 0.48895,0.74295 0,0.05715 0,0.14605 -0.006,0.2286 h -1.27635 c 0.1016,-0.4826 0.3302,-0.97155 0.79375,-0.97155 z" />
        <path
           id="path1693"
           style="font-style:italic;font-variant:normal;font-weight:normal;font-stretch:normal;font-family:'Archivo Narrow';-inkscape-font-specification:'Archivo Narrow Italic';stroke-width:0.264583"
           d="m 124.50229,50.689028 c -0.5334,0 -0.79375,0.381 -0.889,0.5715 v -0.4953 h -0.4064 l -0.4699,3.3401 h 0.5207 l 0.26035,-1.8669 c 0.0889,-0.64135 0.3683,-1.08585 0.79375,-1.08585 0.24765,0 0.381,0.12065 0.381,0.4064 0,0.2032 -0.3429,2.54635 -0.3429,2.54635 h 0.5207 c 0,0 0.3556,-2.4638 0.3556,-2.667 0,-0.381 -0.17145,-0.7493 -0.7239,-0.7493 z" />
        <path
           id="path1695"
           style="font-style:italic;font-variant:normal;font-weight:normal;font-stretch:normal;font-family:'Archivo Narrow';-inkscape-font-specification:'Archivo Narrow Italic';stroke-width:0.264583"
           d="m 126.77609,49.838128 h -0.5461 l -0.13335,0.9271 h -0.28575 l -0.0635,0.46355 h 0.28575 c 0,0 -0.3302,2.2352 -0.3302,2.4003 0,0.28575 0.127,0.53975 0.51435,0.53975 0.127,0 0.28575,-0.0381 0.38735,-0.0889 l 0.0508,-0.36195 h -0.18415 c -0.15875,0 -0.23495,-0.08255 -0.23495,-0.23495 0,-0.0762 0.3175,-2.25425 0.3175,-2.25425 h 0.45085 l 0.0635,-0.46355 h -0.45085 z" />
      </g>
      <g
         style="font-style:normal;font-variant:normal;font-weight:normal;font-stretch:normal;font-size:10.5982px;line-height:1.25;font-family:'Archivo Narrow';-inkscape-font-specification:'Archivo Narrow';letter-spacing:0px;word-spacing:0px;fill:#000000;fill-opacity:1;stroke:none;stroke-width:0.441592"
         id="text1574"
         aria-label="Crisis!">
        <path
           id="path1698"
           style="stroke-width:0.441592"
           d="m 91.096098,33.199232 c -1.88648,0 -2.861514,1.239989 -2.861514,3.762361 0,2.522371 0.975034,3.76236 2.861514,3.76236 1.483748,0 2.532969,-0.858454 2.532969,-2.734335 h -0.922043 c 0,1.261186 -0.635892,1.875881 -1.610926,1.875881 -1.271784,0 -1.88648,-0.869052 -1.88648,-2.638951 v -0.52991 c 0,-1.7699 0.614696,-2.638952 1.88648,-2.638952 0.953838,0 1.579131,0.625294 1.579131,1.897078 h 0.953838 c 0,-1.854685 -1.049221,-2.755532 -2.532969,-2.755532 z" />
        <path
           id="path1700"
           style="stroke-width:0.441592"
           d="m 96.477831,34.894944 c -0.52991,0 -0.805464,0.434526 -0.94324,0.858454 h -0.06359 L 95.35442,35.022122 h -0.657088 v 5.574653 h 0.869052 v -3.402022 c 0,-0.985633 0.487518,-1.314177 1.038624,-1.314177 h 0.286151 v -0.900847 c 0,0 -0.180169,-0.08478 -0.413329,-0.08478 z" />
        <path
           id="path1702"
           style="stroke-width:0.441592"
           d="m 98.358348,35.022122 h -0.869052 v 5.574653 h 0.869052 z m 0,-2.087845 H 97.489296 V 33.9729 h 0.869052 z" />
        <path
           id="path1704"
           style="stroke-width:0.441592"
           d="m 101.09947,34.894944 c -1.05982,0 -1.738101,0.604097 -1.738101,1.58973 0,2.003059 2.543571,1.250587 2.543571,2.649549 0,0.540509 -0.38154,0.82666 -0.83726,0.82666 -0.50871,0 -0.91145,-0.29675 -0.91145,-0.996231 V 38.85867 h -0.911441 c 0,0.0212 -0.0106,0.08479 -0.0106,0.233161 0,0.826659 0.508713,1.632122 1.791101,1.632122 1.02802,0 1.78049,-0.519311 1.78049,-1.716908 0,-2.077247 -2.54356,-1.367168 -2.54356,-2.585961 0,-0.307347 0.13777,-0.76307 0.75247,-0.76307 0.5935,0 0.77367,0.434526 0.77367,0.869052 v 0.09538 h 0.90084 c 0,-0.0212 0.0106,-0.127178 0.0106,-0.201366 0,-0.826659 -0.5617,-1.52614 -1.60033,-1.52614 z" />
        <path
           id="path1706"
           style="stroke-width:0.441592"
           d="m 104.63033,35.022122 h -0.86905 v 5.574653 h 0.86905 z m 0,-2.087845 h -0.86905 V 33.9729 h 0.86905 z" />
        <path
           id="path1708"
           style="stroke-width:0.441592"
           d="m 107.37145,34.894944 c -1.05982,0 -1.7381,0.604097 -1.7381,1.58973 0,2.003059 2.54357,1.250587 2.54357,2.649549 0,0.540509 -0.38154,0.82666 -0.83726,0.82666 -0.50871,0 -0.91144,-0.29675 -0.91144,-0.996231 V 38.85867 h -0.91145 c 0,0.0212 -0.0106,0.08479 -0.0106,0.233161 0,0.826659 0.50872,1.632122 1.7911,1.632122 1.02802,0 1.7805,-0.519311 1.7805,-1.716908 0,-2.077247 -2.54357,-1.367168 -2.54357,-2.585961 0,-0.307347 0.13777,-0.76307 0.75247,-0.76307 0.5935,0 0.77367,0.434526 0.77367,0.869052 v 0.09538 h 0.90084 c 0,-0.0212 0.0106,-0.127178 0.0106,-0.201366 0,-0.826659 -0.5617,-1.52614 -1.60033,-1.52614 z" />
        <path
           id="path1710"
           style="stroke-width:0.441592"
           d="m 110.13924,33.32641 c 0.10598,1.812292 0.18017,3.645781 0.26496,5.458073 h 0.65708 c 0.0954,-1.918274 0.22257,-4.853976 0.27556,-5.458073 z m 1.13401,6.125759 h -1.05982 v 1.144606 h 1.05982 z" />
      </g>
    </g>
  </g>
</svg>
