<?xml version="1.0" encoding="UTF-8" standalone="no"?>
<!-- Created with Inkscape (http://www.inkscape.org/) -->

<svg
   xmlns:dc="http://purl.org/dc/elements/1.1/"
   xmlns:cc="http://creativecommons.org/ns#"
   xmlns:rdf="http://www.w3.org/1999/02/22-rdf-syntax-ns#"
   xmlns:svg="http://www.w3.org/2000/svg"
   xmlns="http://www.w3.org/2000/svg"
   xmlns:sodipodi="http://sodipodi.sourceforge.net/DTD/sodipodi-0.dtd"
   xmlns:inkscape="http://www.inkscape.org/namespaces/inkscape"
   width="0.75in"
   height="0.75in"
   viewBox="0 0 67.500001 67.500002"
   id="svg2"
   version="1.1"
   inkscape:version="0.91 r13725"
   sodipodi:docname="disconnected.svg">
  <defs
     id="defs4" />
  <sodipodi:namedview
     id="base"
     pagecolor="#ffffff"
     bordercolor="#666666"
     borderopacity="1.0"
     inkscape:pageopacity="0.0"
     inkscape:pageshadow="2"
     inkscape:zoom="5.6"
     inkscape:cx="129.60348"
     inkscape:cy="38.529813"
     inkscape:document-units="px"
     inkscape:current-layer="layer1"
     showgrid="false"
     units="in"
     inkscape:window-width="1920"
     inkscape:window-height="1017"
     inkscape:window-x="-8"
     inkscape:window-y="-8"
     inkscape:window-maximized="1" />
  <metadata
     id="metadata7">
    <rdf:RDF>
      <cc:Work
         rdf:about="">
        <dc:format>image/svg+xml</dc:format>
        <dc:type
           rdf:resource="http://purl.org/dc/dcmitype/StillImage" />
        <dc:title />
      </cc:Work>
    </rdf:RDF>
  </metadata>
  <g
     inkscape:label="Layer 1"
     inkscape:groupmode="layer"
     id="layer1"
     transform="translate(0,-984.86215)">
    <path
       inkscape:connector-curvature="0"
       style="fill:#000000"
       d="m 26.709497,1005.0867 c -6.463325,0 -11.796989,4.8427 -12.579574,11.0938 l -6.4382844,0 0,3.1696 6.4383904,0 c 0.782479,6.2512 6.116037,11.0938 12.579468,11.0938 l 1.584822,0 c 0.877991,0 1.584822,-0.7068 1.584822,-1.5848 l 0,-3.1697 4.754464,0 0,-3.1696 -4.754464,0 0,-9.5089 4.754464,0 0,-3.1697 -4.754464,0 0,-3.1696 c 0,-0.878 -0.706831,-1.5849 -1.584822,-1.5849 l -1.584822,0 z m 22.187502,0 c -0.877991,0 -1.584822,0.7069 -1.584822,1.5849 l 0,3.1696 3.169643,0 0,3.1697 -3.169643,0 0,9.5089 3.169643,0 0,3.1696 -3.169643,0 0,3.1697 c 0,0.878 0.706831,1.5848 1.584822,1.5848 l 9.508931,0 0,-25.3572 -9.508931,0 z"
       id="path6" />
  </g>
</svg>
