<?xml version="1.0" encoding="UTF-8" standalone="no"?>
<svg
   xmlns:dc="http://purl.org/dc/elements/1.1/"
   xmlns:cc="http://creativecommons.org/ns#"
   xmlns:rdf="http://www.w3.org/1999/02/22-rdf-syntax-ns#"
   xmlns:svg="http://www.w3.org/2000/svg"
   xmlns="http://www.w3.org/2000/svg"
   xmlns:xlink="http://www.w3.org/1999/xlink"
   xmlns:sodipodi="http://sodipodi.sourceforge.net/DTD/sodipodi-0.dtd"
   xmlns:inkscape="http://www.inkscape.org/namespaces/inkscape"
   sodipodi:docname="document-bg.svg"
   inkscape:version="1.0.1 (3bc2e813f5, 2020-09-07)"
   id="svg39"
   version="1.1"
   viewBox="0 0 292.1 222.25001"
   height="8.75in"
   width="11.5in">
  <defs
     id="defs33">
    <linearGradient
       inkscape:collect="always"
       id="linearGradient1326">
      <stop
         style="stop-color:#7d5f1c;stop-opacity:1;"
         offset="0"
         id="stop1322" />
      <stop
         style="stop-color:#7d5f1c;stop-opacity:0;"
         offset="1"
         id="stop1324" />
    </linearGradient>
    <linearGradient
       inkscape:collect="always"
       id="linearGradient1288">
      <stop
         style="stop-color:#a07924;stop-opacity:1;"
         offset="0"
         id="stop1284" />
      <stop
         style="stop-color:#cc9a2e;stop-opacity:0"
         offset="1"
         id="stop1286" />
    </linearGradient>
    <linearGradient
       inkscape:collect="always"
       id="linearGradient1268">
      <stop
         style="stop-color:#ac8432;stop-opacity:1;"
         offset="0"
         id="stop1264" />
      <stop
         style="stop-color:#ac8432;stop-opacity:0;"
         offset="1"
         id="stop1266" />
    </linearGradient>
    <linearGradient
       inkscape:collect="always"
       id="linearGradient1238">
      <stop
         style="stop-color:#a07924;stop-opacity:1;"
         offset="0"
         id="stop1234" />
      <stop
         style="stop-color:#a07924;stop-opacity:0;"
         offset="1"
         id="stop1236" />
    </linearGradient>
    <linearGradient
       inkscape:collect="always"
       id="linearGradient9084">
      <stop
         style="stop-color:#f9f6f1;stop-opacity:1;"
         offset="0"
         id="stop9080" />
      <stop
         style="stop-color:#f9f6f1;stop-opacity:0;"
         offset="1"
         id="stop9082" />
    </linearGradient>
    <linearGradient
       inkscape:collect="always"
       xlink:href="#linearGradient9084"
       id="linearGradient9086"
       x1="254.23817"
       y1="-344.30334"
       x2="-11.545988"
       y2="-198.90872"
       gradientUnits="userSpaceOnUse"
       gradientTransform="matrix(1,0,0,2,-1.1339271,413.73276)" />
    <linearGradient
       inkscape:collect="always"
       xlink:href="#linearGradient9084"
       id="linearGradient9090"
       gradientUnits="userSpaceOnUse"
       gradientTransform="matrix(1,0,0,2,-1.133927,413.73276)"
       x1="-94.579964"
       y1="-250.7773"
       x2="300.14551"
       y2="-325.67444" />
    <linearGradient
       inkscape:collect="always"
       xlink:href="#linearGradient1238"
       id="linearGradient1240"
       x1="168.54128"
       y1="90.933662"
       x2="72.622963"
       y2="4.7550869"
       gradientUnits="userSpaceOnUse"
       gradientTransform="scale(3.7795276)" />
    <linearGradient
       inkscape:collect="always"
       xlink:href="#linearGradient1238"
       id="linearGradient1243"
       gradientUnits="userSpaceOnUse"
       gradientTransform="translate(141.38558,-0.68988037)"
       x1="168.54128"
       y1="90.933662"
       x2="72.622963"
       y2="4.7550869" />
    <linearGradient
       inkscape:collect="always"
       xlink:href="#linearGradient1268"
       id="linearGradient1270"
       x1="130.04761"
       y1="66.334824"
       x2="97.13266"
       y2="34.49033"
       gradientUnits="userSpaceOnUse"
       gradientTransform="matrix(3.7795276,0,0,3.7795276,75.357143,-44.285715)" />
    <linearGradient
       inkscape:collect="always"
       xlink:href="#linearGradient1288"
       id="linearGradient1282"
       gradientUnits="userSpaceOnUse"
       gradientTransform="translate(68.508185,0.56696425)"
       x1="128.17836"
       y1="55.200943"
       x2="106.96709"
       y2="31.28159" />
    <linearGradient
       inkscape:collect="always"
       xlink:href="#linearGradient1326"
       id="linearGradient1328"
       x1="177.22426"
       y1="89.423332"
       x2="88.882019"
       y2="4.9661608"
       gradientUnits="userSpaceOnUse"
       gradientTransform="translate(37.551369,0.66817382)" />
    <radialGradient
       inkscape:collect="always"
       xlink:href="#linearGradient1238"
       id="radialGradient968"
       cx="20.727715"
       cy="212.05467"
       fx="20.727715"
       fy="212.05467"
       r="40.868362"
       gradientTransform="matrix(1.4746081,0,9.9711871e-7,1.2665533,-9.8377488,-56.523872)"
       gradientUnits="userSpaceOnUse" />
  </defs>
  <sodipodi:namedview
     id="base"
     pagecolor="#ffffff"
     bordercolor="#666666"
     borderopacity="1.0"
     inkscape:pageopacity="0.0"
     inkscape:pageshadow="2"
     inkscape:zoom="0.98994949"
     inkscape:cx="561.25789"
     inkscape:cy="242.08822"
     inkscape:document-units="mm"
     inkscape:current-layer="layer5"
     inkscape:document-rotation="0"
     showgrid="false"
     inkscape:snap-page="true"
     units="in"
     inkscape:snap-global="true" />
  <metadata
     id="metadata36">
    <rdf:RDF>
      <cc:Work
         rdf:about="">
        <dc:format>image/svg+xml</dc:format>
        <dc:type
           rdf:resource="http://purl.org/dc/dcmitype/StillImage" />
        <dc:title></dc:title>
      </cc:Work>
    </rdf:RDF>
  </metadata>
  <g
     inkscape:groupmode="layer"
     id="layer2"
     inkscape:label="white"
     style="display:inline"
     sodipodi:insensitive="true">
    <rect
       style="font-variation-settings:normal;display:inline;opacity:1;vector-effect:none;fill:#f9f6f1;fill-opacity:1;stroke:none;stroke-width:0.274479;stroke-linecap:round;stroke-linejoin:round;stroke-miterlimit:4;stroke-dasharray:none;stroke-dashoffset:0;stroke-opacity:1;paint-order:markers fill stroke;stop-color:#000000;stop-opacity:1"
       id="rect11219"
       width="222.25"
       height="292.10001"
       x="0"
       y="-292.10001"
       transform="rotate(90)" />
  </g>
  <g
     inkscape:label="grid"
     inkscape:groupmode="layer"
     id="layer1"
     style="display:inline"
     sodipodi:insensitive="true">
    <g
       transform="rotate(90,-33.438928,-14.914457)"
       style="display:inline;stroke-width:0.908212"
       id="g11476" />
    <g
       id="g7029"
       transform="rotate(-88.619766,139.06922,155.41509)"
       style="stroke:#008700;stroke-opacity:1">
      <g
         inkscape:label="GridCartesian:X10:Y13"
         transform="translate(54.2998,-8.57894)"
         id="g6010"
         style="stroke:#008700;stroke-opacity:1">
        <g
           inkscape:label="MajorXGridlines"
           id="g5838"
           style="stroke:#008700;stroke-opacity:1">
          <path
             style="fill:none;stroke:#008700;stroke-width:0.132292;stroke-opacity:1"
             d="M 25.4,0 V 330.2"
             inkscape:label="MajorXDiv1"
             id="path5820" />
          <path
             style="fill:none;stroke:#008700;stroke-width:0.132292;stroke-opacity:1"
             d="M 50.8,0 V 330.2"
             inkscape:label="MajorXDiv2"
             id="path5822" />
          <path
             style="fill:none;stroke:#008700;stroke-width:0.132292;stroke-opacity:1"
             d="M 76.2,0 V 330.2"
             inkscape:label="MajorXDiv3"
             id="path5824" />
          <path
             style="fill:none;stroke:#008700;stroke-width:0.132292;stroke-opacity:1"
             d="M 101.6,0 V 330.2"
             inkscape:label="MajorXDiv4"
             id="path5826" />
          <path
             style="fill:none;stroke:#008700;stroke-width:0.132292;stroke-opacity:1"
             d="M 127,0 V 330.2"
             inkscape:label="MajorXDiv5"
             id="path5828" />
          <path
             style="fill:none;stroke:#008700;stroke-width:0.132292;stroke-opacity:1"
             d="M 152.4,0 V 330.2"
             inkscape:label="MajorXDiv6"
             id="path5830" />
          <path
             style="fill:none;stroke:#008700;stroke-width:0.132292;stroke-opacity:1"
             d="M 177.8,0 V 330.2"
             inkscape:label="MajorXDiv7"
             id="path5832" />
          <path
             style="fill:none;stroke:#008700;stroke-width:0.132292;stroke-opacity:1"
             d="M 203.2,0 V 330.2"
             inkscape:label="MajorXDiv8"
             id="path5834" />
          <path
             style="fill:none;stroke:#008700;stroke-width:0.132292;stroke-opacity:1"
             d="M 228.6,0 V 330.2"
             inkscape:label="MajorXDiv9"
             id="path5836" />
        </g>
        <g
           inkscape:label="MajorYGridlines"
           id="g5864"
           style="stroke:#008700;stroke-opacity:1">
          <path
             style="fill:none;stroke:#008700;stroke-width:0.132292;stroke-opacity:1"
             d="M 0,25.4 H 254"
             inkscape:label="MajorYDiv1"
             id="path5840" />
          <path
             style="fill:none;stroke:#008700;stroke-width:0.132292;stroke-opacity:1"
             d="M 0,50.8 H 254"
             inkscape:label="MajorYDiv2"
             id="path5842" />
          <path
             style="fill:none;stroke:#008700;stroke-width:0.132292;stroke-opacity:1"
             d="M 0,76.2 H 254"
             inkscape:label="MajorYDiv3"
             id="path5844" />
          <path
             style="fill:none;stroke:#008700;stroke-width:0.132292;stroke-opacity:1"
             d="M 0,101.6 H 254"
             inkscape:label="MajorYDiv4"
             id="path5846" />
          <path
             style="fill:none;stroke:#008700;stroke-width:0.132292;stroke-opacity:1"
             d="M 0,127 H 254"
             inkscape:label="MajorYDiv5"
             id="path5848" />
          <path
             style="fill:none;stroke:#008700;stroke-width:0.132292;stroke-opacity:1"
             d="M 0,152.4 H 254"
             inkscape:label="MajorYDiv6"
             id="path5850" />
          <path
             style="fill:none;stroke:#008700;stroke-width:0.132292;stroke-opacity:1"
             d="M 0,177.8 H 254"
             inkscape:label="MajorYDiv7"
             id="path5852" />
          <path
             style="fill:none;stroke:#008700;stroke-width:0.132292;stroke-opacity:1"
             d="M 0,203.2 H 254"
             inkscape:label="MajorYDiv8"
             id="path5854" />
          <path
             style="fill:none;stroke:#008700;stroke-width:0.132292;stroke-opacity:1"
             d="M 0,228.6 H 254"
             inkscape:label="MajorYDiv9"
             id="path5856" />
          <path
             style="fill:none;stroke:#008700;stroke-width:0.132292;stroke-opacity:1"
             d="M 0,254 H 254"
             inkscape:label="MajorYDiv10"
             id="path5858" />
          <path
             style="fill:none;stroke:#008700;stroke-width:0.132292;stroke-opacity:1"
             d="M 0,279.4 H 254"
             inkscape:label="MajorYDiv11"
             id="path5860" />
          <path
             style="fill:none;stroke:#008700;stroke-width:0.132292;stroke-opacity:1"
             d="M 0,304.8 H 254"
             inkscape:label="MajorYDiv12"
             id="path5862" />
        </g>
        <g
           inkscape:label="MinorXGridlines"
           id="g5926"
           style="stroke:#008700;stroke-opacity:1">
          <path
             style="fill:none;stroke:#008700;stroke-width:0.0661458;stroke-opacity:1"
             d="M 6.35,0 V 330.2"
             inkscape:label="MinorXDiv0:1"
             id="path5866" />
          <path
             style="fill:none;stroke:#008700;stroke-width:0.0661458;stroke-opacity:1"
             d="M 12.7,0 V 330.2"
             inkscape:label="MinorXDiv0:2"
             id="path5868" />
          <path
             style="fill:none;stroke:#008700;stroke-width:0.0661458;stroke-opacity:1"
             d="M 19.05,0 V 330.2"
             inkscape:label="MinorXDiv0:3"
             id="path5870" />
          <path
             style="fill:none;stroke:#008700;stroke-width:0.0661458;stroke-opacity:1"
             d="M 31.75,0 V 330.2"
             inkscape:label="MinorXDiv1:1"
             id="path5872" />
          <path
             style="fill:none;stroke:#008700;stroke-width:0.0661458;stroke-opacity:1"
             d="M 38.1,0 V 330.2"
             inkscape:label="MinorXDiv1:2"
             id="path5874" />
          <path
             style="fill:none;stroke:#008700;stroke-width:0.0661458;stroke-opacity:1"
             d="M 44.45,0 V 330.2"
             inkscape:label="MinorXDiv1:3"
             id="path5876" />
          <path
             style="fill:none;stroke:#008700;stroke-width:0.0661458;stroke-opacity:1"
             d="M 57.15,0 V 330.2"
             inkscape:label="MinorXDiv2:1"
             id="path5878" />
          <path
             style="fill:none;stroke:#008700;stroke-width:0.0661458;stroke-opacity:1"
             d="M 63.5,0 V 330.2"
             inkscape:label="MinorXDiv2:2"
             id="path5880" />
          <path
             style="fill:none;stroke:#008700;stroke-width:0.0661458;stroke-opacity:1"
             d="M 69.85,0 V 330.2"
             inkscape:label="MinorXDiv2:3"
             id="path5882" />
          <path
             style="fill:none;stroke:#008700;stroke-width:0.0661458;stroke-opacity:1"
             d="M 82.55,0 V 330.2"
             inkscape:label="MinorXDiv3:1"
             id="path5884" />
          <path
             style="fill:none;stroke:#008700;stroke-width:0.0661458;stroke-opacity:1"
             d="M 88.9,0 V 330.2"
             inkscape:label="MinorXDiv3:2"
             id="path5886" />
          <path
             style="fill:none;stroke:#008700;stroke-width:0.0661458;stroke-opacity:1"
             d="M 95.25,0 V 330.2"
             inkscape:label="MinorXDiv3:3"
             id="path5888" />
          <path
             style="fill:none;stroke:#008700;stroke-width:0.0661458;stroke-opacity:1"
             d="M 107.95,0 V 330.2"
             inkscape:label="MinorXDiv4:1"
             id="path5890" />
          <path
             style="fill:none;stroke:#008700;stroke-width:0.0661458;stroke-opacity:1"
             d="M 114.3,0 V 330.2"
             inkscape:label="MinorXDiv4:2"
             id="path5892" />
          <path
             style="fill:none;stroke:#008700;stroke-width:0.0661458;stroke-opacity:1"
             d="M 120.65,0 V 330.2"
             inkscape:label="MinorXDiv4:3"
             id="path5894" />
          <path
             style="fill:none;stroke:#008700;stroke-width:0.0661458;stroke-opacity:1"
             d="M 133.35,0 V 330.2"
             inkscape:label="MinorXDiv5:1"
             id="path5896" />
          <path
             style="fill:none;stroke:#008700;stroke-width:0.0661458;stroke-opacity:1"
             d="M 139.7,0 V 330.2"
             inkscape:label="MinorXDiv5:2"
             id="path5898" />
          <path
             style="fill:none;stroke:#008700;stroke-width:0.0661458;stroke-opacity:1"
             d="M 146.05,0 V 330.2"
             inkscape:label="MinorXDiv5:3"
             id="path5900" />
          <path
             style="fill:none;stroke:#008700;stroke-width:0.0661458;stroke-opacity:1"
             d="M 158.75,0 V 330.2"
             inkscape:label="MinorXDiv6:1"
             id="path5902" />
          <path
             style="fill:none;stroke:#008700;stroke-width:0.0661458;stroke-opacity:1"
             d="M 165.1,0 V 330.2"
             inkscape:label="MinorXDiv6:2"
             id="path5904" />
          <path
             style="fill:none;stroke:#008700;stroke-width:0.0661458;stroke-opacity:1"
             d="M 171.45,0 V 330.2"
             inkscape:label="MinorXDiv6:3"
             id="path5906" />
          <path
             style="fill:none;stroke:#008700;stroke-width:0.0661458;stroke-opacity:1"
             d="M 184.15,0 V 330.2"
             inkscape:label="MinorXDiv7:1"
             id="path5908" />
          <path
             style="fill:none;stroke:#008700;stroke-width:0.0661458;stroke-opacity:1"
             d="M 190.5,0 V 330.2"
             inkscape:label="MinorXDiv7:2"
             id="path5910" />
          <path
             style="fill:none;stroke:#008700;stroke-width:0.0661458;stroke-opacity:1"
             d="M 196.85,0 V 330.2"
             inkscape:label="MinorXDiv7:3"
             id="path5912" />
          <path
             style="fill:none;stroke:#008700;stroke-width:0.0661458;stroke-opacity:1"
             d="M 209.55,0 V 330.2"
             inkscape:label="MinorXDiv8:1"
             id="path5914" />
          <path
             style="fill:none;stroke:#008700;stroke-width:0.0661458;stroke-opacity:1"
             d="M 215.9,0 V 330.2"
             inkscape:label="MinorXDiv8:2"
             id="path5916" />
          <path
             style="fill:none;stroke:#008700;stroke-width:0.0661458;stroke-opacity:1"
             d="M 222.25,0 V 330.2"
             inkscape:label="MinorXDiv8:3"
             id="path5918" />
          <path
             style="fill:none;stroke:#008700;stroke-width:0.0661458;stroke-opacity:1"
             d="M 234.95,0 V 330.2"
             inkscape:label="MinorXDiv9:1"
             id="path5920" />
          <path
             style="fill:none;stroke:#008700;stroke-width:0.0661458;stroke-opacity:1"
             d="M 241.3,0 V 330.2"
             inkscape:label="MinorXDiv9:2"
             id="path5922" />
          <path
             style="fill:none;stroke:#008700;stroke-width:0.0661458;stroke-opacity:1"
             d="M 247.65,0 V 330.2"
             inkscape:label="MinorXDiv9:3"
             id="path5924" />
        </g>
        <g
           inkscape:label="MinorYGridlines"
           id="g6006"
           style="stroke:#008700;stroke-opacity:1">
          <path
             style="fill:none;stroke:#008700;stroke-width:0.0661458;stroke-opacity:1"
             d="M 0,6.35 H 254"
             inkscape:label="MinorXYiv0:1"
             id="path5928" />
          <path
             style="fill:none;stroke:#008700;stroke-width:0.0661458;stroke-opacity:1"
             d="M 0,12.7 H 254"
             inkscape:label="MinorXYiv0:2"
             id="path5930" />
          <path
             style="fill:none;stroke:#008700;stroke-width:0.0661458;stroke-opacity:1"
             d="M 0,19.05 H 254"
             inkscape:label="MinorXYiv0:3"
             id="path5932" />
          <path
             style="fill:none;stroke:#008700;stroke-width:0.0661458;stroke-opacity:1"
             d="M 0,31.75 H 254"
             inkscape:label="MinorXYiv1:1"
             id="path5934" />
          <path
             style="fill:none;stroke:#008700;stroke-width:0.0661458;stroke-opacity:1"
             d="M 0,38.1 H 254"
             inkscape:label="MinorXYiv1:2"
             id="path5936" />
          <path
             style="fill:none;stroke:#008700;stroke-width:0.0661458;stroke-opacity:1"
             d="M 0,44.45 H 254"
             inkscape:label="MinorXYiv1:3"
             id="path5938" />
          <path
             style="fill:none;stroke:#008700;stroke-width:0.0661458;stroke-opacity:1"
             d="M 0,57.15 H 254"
             inkscape:label="MinorXYiv2:1"
             id="path5940" />
          <path
             style="fill:none;stroke:#008700;stroke-width:0.0661458;stroke-opacity:1"
             d="M 0,63.5 H 254"
             inkscape:label="MinorXYiv2:2"
             id="path5942" />
          <path
             style="fill:none;stroke:#008700;stroke-width:0.0661458;stroke-opacity:1"
             d="M 0,69.85 H 254"
             inkscape:label="MinorXYiv2:3"
             id="path5944" />
          <path
             style="fill:none;stroke:#008700;stroke-width:0.0661458;stroke-opacity:1"
             d="M 0,82.55 H 254"
             inkscape:label="MinorXYiv3:1"
             id="path5946" />
          <path
             style="fill:none;stroke:#008700;stroke-width:0.0661458;stroke-opacity:1"
             d="M 0,88.9 H 254"
             inkscape:label="MinorXYiv3:2"
             id="path5948" />
          <path
             style="fill:none;stroke:#008700;stroke-width:0.0661458;stroke-opacity:1"
             d="M 0,95.25 H 254"
             inkscape:label="MinorXYiv3:3"
             id="path5950" />
          <path
             style="fill:none;stroke:#008700;stroke-width:0.0661458;stroke-opacity:1"
             d="M 0,107.95 H 254"
             inkscape:label="MinorXYiv4:1"
             id="path5952" />
          <path
             style="fill:none;stroke:#008700;stroke-width:0.0661458;stroke-opacity:1"
             d="M 0,114.3 H 254"
             inkscape:label="MinorXYiv4:2"
             id="path5954" />
          <path
             style="fill:none;stroke:#008700;stroke-width:0.0661458;stroke-opacity:1"
             d="M 0,120.65 H 254"
             inkscape:label="MinorXYiv4:3"
             id="path5956" />
          <path
             style="fill:none;stroke:#008700;stroke-width:0.0661458;stroke-opacity:1"
             d="M 0,133.35 H 254"
             inkscape:label="MinorXYiv5:1"
             id="path5958" />
          <path
             style="fill:none;stroke:#008700;stroke-width:0.0661458;stroke-opacity:1"
             d="M 0,139.7 H 254"
             inkscape:label="MinorXYiv5:2"
             id="path5960" />
          <path
             style="fill:none;stroke:#008700;stroke-width:0.0661458;stroke-opacity:1"
             d="M 0,146.05 H 254"
             inkscape:label="MinorXYiv5:3"
             id="path5962" />
          <path
             style="fill:none;stroke:#008700;stroke-width:0.0661458;stroke-opacity:1"
             d="M 0,158.75 H 254"
             inkscape:label="MinorXYiv6:1"
             id="path5964" />
          <path
             style="fill:none;stroke:#008700;stroke-width:0.0661458;stroke-opacity:1"
             d="M 0,165.1 H 254"
             inkscape:label="MinorXYiv6:2"
             id="path5966" />
          <path
             style="fill:none;stroke:#008700;stroke-width:0.0661458;stroke-opacity:1"
             d="M 0,171.45 H 254"
             inkscape:label="MinorXYiv6:3"
             id="path5968" />
          <path
             style="fill:none;stroke:#008700;stroke-width:0.0661458;stroke-opacity:1"
             d="M 0,184.15 H 254"
             inkscape:label="MinorXYiv7:1"
             id="path5970" />
          <path
             style="fill:none;stroke:#008700;stroke-width:0.0661458;stroke-opacity:1"
             d="M 0,190.5 H 254"
             inkscape:label="MinorXYiv7:2"
             id="path5972" />
          <path
             style="fill:none;stroke:#008700;stroke-width:0.0661458;stroke-opacity:1"
             d="M 0,196.85 H 254"
             inkscape:label="MinorXYiv7:3"
             id="path5974" />
          <path
             style="fill:none;stroke:#008700;stroke-width:0.0661458;stroke-opacity:1"
             d="M 0,209.55 H 254"
             inkscape:label="MinorXYiv8:1"
             id="path5976" />
          <path
             style="fill:none;stroke:#008700;stroke-width:0.0661458;stroke-opacity:1"
             d="M 0,215.9 H 254"
             inkscape:label="MinorXYiv8:2"
             id="path5978" />
          <path
             style="fill:none;stroke:#008700;stroke-width:0.0661458;stroke-opacity:1"
             d="M 0,222.25 H 254"
             inkscape:label="MinorXYiv8:3"
             id="path5980" />
          <path
             style="fill:none;stroke:#008700;stroke-width:0.0661458;stroke-opacity:1"
             d="M 0,234.95 H 254"
             inkscape:label="MinorXYiv9:1"
             id="path5982" />
          <path
             style="fill:none;stroke:#008700;stroke-width:0.0661458;stroke-opacity:1"
             d="M 0,241.3 H 254"
             inkscape:label="MinorXYiv9:2"
             id="path5984" />
          <path
             style="fill:none;stroke:#008700;stroke-width:0.0661458;stroke-opacity:1"
             d="M 0,247.65 H 254"
             inkscape:label="MinorXYiv9:3"
             id="path5986" />
          <path
             style="fill:none;stroke:#008700;stroke-width:0.0661458;stroke-opacity:1"
             d="M 0,260.35 H 254"
             inkscape:label="MinorXYiv10:1"
             id="path5988" />
          <path
             style="fill:none;stroke:#008700;stroke-width:0.0661458;stroke-opacity:1"
             d="M 0,266.7 H 254"
             inkscape:label="MinorXYiv10:2"
             id="path5990" />
          <path
             style="fill:none;stroke:#008700;stroke-width:0.0661458;stroke-opacity:1"
             d="M 0,273.05 H 254"
             inkscape:label="MinorXYiv10:3"
             id="path5992" />
          <path
             style="fill:none;stroke:#008700;stroke-width:0.0661458;stroke-opacity:1"
             d="M 0,285.75 H 254"
             inkscape:label="MinorXYiv11:1"
             id="path5994" />
          <path
             style="fill:none;stroke:#008700;stroke-width:0.0661458;stroke-opacity:1"
             d="M 0,292.1 H 254"
             inkscape:label="MinorXYiv11:2"
             id="path5996" />
          <path
             style="fill:none;stroke:#008700;stroke-width:0.0661458;stroke-opacity:1"
             d="M 0,298.45 H 254"
             inkscape:label="MinorXYiv11:3"
             id="path5998" />
          <path
             style="fill:none;stroke:#008700;stroke-width:0.0661458;stroke-opacity:1"
             d="M 0,311.15 H 254"
             inkscape:label="MinorXYiv12:1"
             id="path6000" />
          <path
             style="fill:none;stroke:#008700;stroke-width:0.0661458;stroke-opacity:1"
             d="M 0,317.5 H 254"
             inkscape:label="MinorXYiv12:2"
             id="path6002" />
          <path
             style="fill:none;stroke:#008700;stroke-width:0.0661458;stroke-opacity:1"
             d="M 0,323.85 H 254"
             inkscape:label="MinorXYiv12:3"
             id="path6004" />
        </g>
        <rect
           x="0"
           y="0"
           width="254"
           height="330.20001"
           style="fill:none;stroke:#008700;stroke-width:0.264583;stroke-opacity:1"
           inkscape:label="Border"
           id="rect6008" />
      </g>
    </g>
  </g>
  <g
     inkscape:groupmode="layer"
     id="layer4"
     inkscape:label="white overlay"
     style="display:inline"
     sodipodi:insensitive="true">
    <rect
       style="font-variation-settings:normal;display:inline;opacity:1;vector-effect:none;fill:url(#linearGradient9086);fill-opacity:1;stroke:none;stroke-width:0.274479;stroke-linecap:round;stroke-linejoin:round;stroke-miterlimit:4;stroke-dasharray:none;stroke-dashoffset:0;stroke-opacity:1;paint-order:markers fill stroke;stop-color:#000000;stop-opacity:1"
       id="rect11219-1"
       width="222.25"
       height="292.10001"
       x="1.9073486e-06"
       y="-292.10001"
       transform="rotate(90)" />
    <rect
       style="font-variation-settings:normal;display:inline;opacity:1;vector-effect:none;fill:url(#linearGradient9090);fill-opacity:1;stroke:none;stroke-width:0.274479;stroke-linecap:round;stroke-linejoin:round;stroke-miterlimit:4;stroke-dasharray:none;stroke-dashoffset:0;stroke-opacity:1;paint-order:markers fill stroke;stop-color:#000000;stop-opacity:1"
       id="rect9088"
       width="222.25"
       height="292.10001"
       x="1.9073486e-06"
       y="-292.10001"
       transform="rotate(90)" />
    <path
       id="path159"
       style="font-variation-settings:normal;opacity:0.568647;vector-effect:none;fill:url(#radialGradient968);fill-opacity:1;stroke:none;stroke-width:0.19082;stroke-linecap:butt;stroke-linejoin:miter;stroke-miterlimit:4;stroke-dasharray:none;stroke-dashoffset:0;stroke-opacity:1;paint-order:markers stroke fill;stop-color:#000000;stop-opacity:1"
       d="m 13.681621,176.50101 c -2.18617,0.19524 -4.3833198,0.44254 -6.4952798,1.06593 -2.5279,0.71848 -5.0153,1.56878 -7.50863003,2.39696 3.76159003,-0.45908 7.52774003,-0.87999 11.29057983,-1.32822 1.203,-0.16452 2.42626,-0.31016 3.63775,-0.14508 1.68868,0.15793 3.37777,0.32931 5.05288,0.59792 1.29989,0.22519 2.58849,0.56862 3.78321,1.13676 2.97259,1.28142 5.73768,2.99184 8.39222,4.83293 1.89725,1.32152 3.77323,2.69671 5.41718,4.33008 1.4326,1.44576 2.61682,3.1209 3.61563,4.89006 0.69994,1.18102 1.34666,2.41482 2.29162,3.42494 0.0857,0.0966 0.17147,0.19327 0.25721,0.2899 -2.29746,-1.75923 -4.46484,-3.67856 -6.66891,-5.55129 -1.89784,-1.61471 -3.77595,-3.25559 -5.75687,-4.76902 -2.49509,-1.67223 -5.28575,-2.85146 -8.1376,-3.76462 -2.41439,-0.77459 -4.84556,-1.53564 -7.35183,-1.95212 -3.72681,-0.4872 -7.5247398,-0.28143 -11.2088398,0.43125 -3.72474003,0.7197 -7.3614,1.94492 -10.71237,3.7313 -2.92879,1.56986 -5.5537802,3.68184 -7.7886602,6.13605 -1.35264,1.47129 -2.63232,3.01223 -3.79563,4.63801 -0.38105,0.52552 -0.73182,1.07545 -0.98972,1.67292 -0.53319,1.17881 -0.82326,2.44596 -1.14621,3.69315 0.01,0.10057 0.10954,-0.18475 0.14906,-0.21466 0.84007,-1.47476 1.69975,-2.94115 2.67125,-4.33417 2.23268,-2.20076 4.68636,-4.1617 7.1819,-6.05356 2.1246502,-1.53305 4.3267702,-3.00493 6.7685302,-3.98679 2.55700997,-1.06863 5.26634,-1.7566 8.01218,-2.11482 1.63071,-0.21189 3.27534,-0.30518 4.91891,-0.33107 2.9409998,-0.0391 5.8880898,0.19717 8.7799798,0.73693 3.22337,0.66088 6.28811,2.01608 9.00693,3.86094 3.7531,2.50277 7.00963,5.76762 9.42644,9.58164 1.80209,2.83188 3.15589,5.93409 4.1361,9.14033 0.97379,3.16856 1.59052,6.45479 1.73715,9.76894 0.0814,2.17508 -0.0599,4.37763 -0.63198,6.48493 -0.44055,1.63852 -1.35437,3.09725 -2.33954,4.4598 -1.73088,2.39213 -3.64548,4.6563 -5.77147,6.70727 -2.31474,2.20344 -4.96365,4.07699 -7.88423,5.38842 -1.19788,0.55027 -2.44042,0.99581 -3.6858,1.42373 -0.23857,0.10722 -0.55486,0.0811 -0.72736,0.30831 -0.14357,0.21464 0.0936,0.46488 0.3197,0.45293 0.4308,-0.0488 0.84656,-0.18627 1.27077,-0.27345 2.43964,-0.58287 4.90796,-1.14411 7.19939,-2.19212 2.13462,-0.95641 4.16075,-2.13263 6.16522,-3.33306 0.1569,-0.23215 0.59312,-0.15908 0.63866,0.12695 -0.1549,0.46031 -0.5691,0.75209 -0.85447,1.12592 -1.81291,2.0203 -3.59134,4.08191 -5.59752,5.91617 -0.98544,0.90601 -2.08748,1.67356 -3.20816,2.40127 -0.19454,-0.0135 -0.5285,0.37289 -0.18864,0.3806 0.35705,-0.0612 0.67873,-0.24184 1.02553,-0.33975 2.43832,-0.87226 4.6212,-2.38737 6.39389,-4.26518 2.54876,-2.62605 4.93761,-5.41429 7.0467,-8.40739 2.3581,-3.32646 4.3883,-6.8861 6.04048,-10.61417 1.02533,-2.30367 1.88346,-4.68777 2.45398,-7.14631 0.4694,-2.0087 0.79768,-4.05355 0.9276,-6.11315 0.0841,-1.59502 0.0239,-3.19274 0.0129,-4.78883 -0.0161,-1.52966 -0.0716,-3.0597 -0.21869,-4.58284 -0.0798,-0.96003 -0.17449,-1.95252 0.10388,-2.89056 0.2335,-0.76946 0.81509,-1.36804 1.41797,-1.87109 0.91949,-0.74408 1.95044,-1.33079 2.93688,-1.97867 0.19765,-0.1155 0.45844,-0.25286 0.4264,-0.52478 -0.002,-0.24438 -0.1948,-0.46801 -0.44092,-0.49072 -1.36931,-0.41422 -2.77389,-0.71059 -4.19057,-0.90628 -0.93142,-0.11495 -1.87294,-0.13181 -2.80941,-0.088 -0.51414,-0.0226 -0.91747,-0.39478 -1.2375,-0.76276 -0.83383,-0.90941 -1.59893,-1.87875 -2.37716,-2.83539 -0.50128,-0.62574 -0.99735,-1.25563 -1.49522,-1.88408 -0.38297,-0.6129 0.0223,-1.53385 0.73242,-1.66601 0.96856,-0.22294 1.94799,-0.45029 2.84267,-0.89679 0.22932,-0.12959 0.51649,-0.19054 0.70225,-0.3786 0.11918,-0.20624 -0.0586,-0.53762 -0.31054,-0.49414 -1.28562,0.12738 -2.48382,0.65008 -3.72071,0.97851 -0.44128,0.13121 -0.93427,0.28127 -1.37782,0.0738 -0.71836,-0.26186 -1.36013,-0.68689 -2.02418,-1.05824 -0.95536,-0.56144 -1.86167,-1.21552 -2.87463,-1.67269 -1.4859,-0.62569 -3.05988,-1.05921 -4.45751,-1.88151 -0.79577,-0.44076 -1.55649,-0.97157 -2.43941,-1.22763 -0.66575,-0.20745 -1.35327,-0.33305 -2.03119,-0.49329 -1.70796,-0.37144 -3.4306,-0.67049 -5.15096,-0.97763 -2.73917,-0.45931 -5.48901,-0.88477 -8.26101,-1.08336 -0.44109,-0.0195 -0.87784,0.0467 -1.31687,0.0783 z m 45.52343,16.5332 c -0.52438,0.14026 -1.0054,0.39965 -1.48437,0.64844 -0.17838,0.19885 -0.0222,0.50204 0.18554,0.60742 0.88612,0.38881 1.75312,0.82039 2.61719,1.25586 0.33688,0.12997 0.70904,-0.10444 0.84657,-0.41487 0.22854,-0.36804 0.27374,-0.82735 0.18077,-1.24529 -0.25994,-0.43656 -0.7799,-0.58344 -1.23242,-0.73242 -0.35257,-0.0644 -0.70995,-0.0935 -1.0664,-0.12695 z"
       sodipodi:nodetypes="cccccccccccccccccccccccccccccccccccccccccccccccccccccccccc" />
  </g>
  <g
     inkscape:groupmode="layer"
     id="layer5"
     inkscape:label="coffee stain"
     style="display:inline"
     sodipodi:insensitive="true">
    <path
       id="path9095"
       style="opacity:0.568647;fill:url(#linearGradient1243);fill-opacity:1;stroke:none;stroke-width:0.264583;stroke-opacity:1;paint-order:markers stroke fill;stop-color:#000000"
       d="m 247.29539,-9.3007242 c -0.18302,0.023 -0.36512,0.051308 -0.54725,0.078548 2.6795,0.1036931 5.35082,0.3901516 8.01967,0.6413045 2.54846,0.214069 5.18142,0.4026114 7.51995,1.5265217 2.13871,1.1670686 3.97533,2.789452 5.83065,4.345988 0.89177,0.7715584 1.82173,1.5110378 2.72748,2.27583006 C 270.43261,-0.32236989 270.029,-0.17718595 269.6408,0 c -0.15639,-0.21600662 -0.36206,-0.39486477 -0.5917,-0.52916667 -0.18878,-0.10393374 -0.40303,-0.1662938 -0.61959,-0.16123046 -0.46255,0.0314691 -0.92266,0.19557616 -1.27693,0.49919432 -0.18292,0.18028978 -0.27826,0.42910405 -0.33125,0.67592773 -0.0526,0.24889851 -0.0817,0.51390959 -0.003,0.76067708 0.0761,0.2410481 0.24192,0.4372341 0.39687,0.631486 0.0425,0.05332 0.0879,0.1059379 0.13281,0.1586466 -0.18494,0.395678 -0.31368,0.8207729 -0.40462,1.2443684 -0.17776,0.8407242 -0.27541,1.7358262 -0.01,2.5693524 0.2569,0.814207 0.81762,1.4765461 1.341,2.1326863 0.43763,0.548549 0.87851,1.1405801 1.52704,1.4526244 0.65827,0.3141411 1.40573,0.2942061 2.1177,0.298173 1.04048,0.007 2.1177,-0.1474123 3.02824,-0.6805787 0.65925,-0.3738724 1.20291,-0.9459862 1.54771,-1.6200559 0.12281,0.3106486 0.24584,0.6214721 0.36742,0.9312092 0.21919,0.6044166 0.45421,1.2045249 0.69195,1.8040243 -0.17804,-0.001 -0.35586,-0.0022 -0.53382,-0.0031 -0.15985,-0.01733 -0.33689,0.155655 -0.25683,0.314709 0.094,0.197393 0.33678,0.234872 0.4842,0.378272 0.10288,0.08828 0.13801,0.250224 0.0481,0.360184 -0.10999,0.187484 -0.34509,0.219792 -0.5426,0.22841 -0.24187,0.02732 -0.48456,0.05057 -0.72605,0.08113 -0.0668,0.01019 -0.13006,0.03334 -0.19482,0.05168 -0.12262,0.120726 -0.0884,0.351195 0.0641,0.430981 0.25496,0.17013 0.51101,0.339422 0.75551,0.524516 0.1512,0.08547 0.27027,0.247096 0.27181,0.42478 0.002,0.207598 -0.14447,0.397749 -0.32711,0.485242 -0.21151,0.08467 -0.43279,0.146787 -0.63613,0.251147 -0.1034,0.02862 -0.16782,0.138206 -0.13643,0.242363 0.0131,0.09044 0.0852,0.162185 0.17311,0.182934 0.18599,0.07828 0.38568,0.141833 0.53537,0.283704 0.16671,0.156193 0.35077,0.298264 0.48369,0.486275 0.12863,0.165828 0.10457,0.399816 0.0222,0.580843 -0.10065,0.215442 -0.25672,0.409792 -0.30748,0.645439 -0.0176,0.155484 0.12017,0.276855 0.26045,0.310575 0.20238,0.05931 0.41428,0.08699 0.60823,0.17415 0.20553,0.07897 0.43509,0.165655 0.55501,0.362768 0.0797,0.145306 0.0802,0.332198 -0.006,0.474907 -0.11708,0.184201 -0.29771,0.315521 -0.43305,0.485242 -0.0694,0.07057 -0.13363,0.188289 -0.0594,0.279052 0.0661,0.08867 0.20516,0.12575 0.2961,0.05271 0.21901,-0.120067 0.43758,-0.241757 0.66198,-0.351399 0.1884,-0.08595 0.37972,-0.17048 0.58446,-0.208773 0.1815,-0.03622 0.37373,0.01529 0.52089,0.125574 0.10926,0.212526 0.0845,0.458597 0.0465,0.685746 -0.0534,0.365272 -0.11042,0.729939 -0.16846,1.094506 0.13892,-0.364896 0.27766,-0.72971 0.41651,-1.094506 0.21113,2.536486 -0.15731,5.097505 -0.53485,7.606255 -0.53226,3.173161 -0.58615,6.450936 -1.65571,9.515697 -1.30132,3.32445 -3.26694,6.378776 -5.66271,9.028906 -1.98577,2.246469 -4.65355,3.7158 -7.24658,5.155758 -2.7556,1.614051 -5.62894,3.155482 -8.78861,3.808553 -3.53573,0.534728 -7.10781,0.993182 -10.69237,0.869714 -3.14044,-0.05839 -6.12663,-1.157999 -9.02271,-2.264978 -2.55498,-1.05128 -5.2693,-1.701853 -7.74578,-2.942455 -2.18154,-1.021049 -3.82317,-2.879315 -5.12217,-4.852416 -1.22732,-1.97721 -2.48472,-3.935897 -3.72277,-5.906617 -0.79039,-1.310553 -1.64093,-2.597809 -2.3089,-3.975468 0.16483,0.621231 0.36042,1.234985 0.59531,1.837614 0.74277,1.96215 1.92491,3.709156 2.99775,5.498888 1.31805,2.11087 2.65695,4.208915 3.96358,6.326746 1.38296,2.11342 3.12985,4.103441 5.45238,5.197099 2.63652,1.32883 5.52642,2.026221 8.24653,3.152262 3.08324,1.185711 6.26274,2.363149 9.60613,2.425692 3.81622,0.132249 7.61958,-0.358447 11.3838,-0.931209 3.36387,-0.699508 6.42234,-2.350501 9.35602,-4.079338 2.76061,-1.542362 5.60119,-3.116948 7.71529,-5.523177 2.5506,-2.838612 4.64315,-6.109846 6.02857,-9.670727 1.13868,-3.28272 1.19603,-6.793318 1.76269,-10.192142 0.48028,-3.210952 0.95031,-6.502351 0.36535,-9.732741 -0.15898,-0.87654 -0.38537,-1.733191 -0.64802,-2.578654 0.3259,-0.01966 0.65268,-0.0198 0.97823,-0.04547 0.051,-0.0089 0.10193,-0.01794 0.15296,-0.02687 0.0546,-0.178977 -0.0263,-0.364628 -0.12919,-0.509529 -0.12035,-0.175807 -0.28715,-0.312691 -0.40979,-0.486275 -0.12096,-0.193811 -0.007,-0.459772 0.17673,-0.570508 0.20113,-0.117518 0.42376,-0.190521 0.63873,-0.27802 0.21676,-0.09077 0.43513,-0.177687 0.65628,-0.257348 0.10841,-0.04113 0.22845,-0.111112 0.26562,-0.225826 0.005,-0.0164 0.009,-0.0339 0.0104,-0.05219 -0.0425,-0.207181 -0.27065,-0.270959 -0.44855,-0.314193 l -1.15084,-0.304374 c -0.13203,-0.07894 -0.16103,-0.264975 -0.0977,-0.396875 0.0579,-0.131765 0.21304,-0.155111 0.32246,-0.226343 0.36475,-0.189737 0.73214,-0.374857 1.09916,-0.560173 0.13326,-0.03277 0.29068,-0.122931 0.27854,-0.281636 -5.3e-4,-0.03708 -0.009,-0.07387 -0.0243,-0.107487 -0.23981,-0.07168 -0.47694,0.0443 -0.68575,0.151929 -0.29653,0.145383 -0.59333,0.291274 -0.88986,0.436665 -0.19145,0.01322 -0.37841,-0.147272 -0.39791,-0.337447 -0.009,-0.21716 0.13242,-0.400241 0.22014,-0.588594 0.10539,-0.203325 0.20305,-0.410848 0.29714,-0.619601 0.033,-0.08436 0.0927,-0.182083 0.0346,-0.269751 -0.0775,-0.153872 -0.27905,-0.182406 -0.42788,-0.12454 -0.26747,0.06466 -0.53443,0.129089 -0.80202,0.19327 -0.22066,-0.04449 -0.41929,-0.204844 -0.49196,-0.420129 -0.0844,-0.2276643 -0.11313,-0.4708664 -0.1695,-0.7059005 -0.0332,-0.1451472 -0.20462,-0.2500955 -0.34313,-0.1741495 -0.18564,0.09696 -0.29244,0.291606 -0.46302,0.4103108 -0.0319,0.01438 -0.0513,0.068481 -0.0961,0.042892 -0.19434,-0.009 -0.38749,-0.036872 -0.57722,-0.079582 -0.0293,-0.028031 -0.0527,-0.060711 -0.0765,-0.093018 -0.049,-0.1257588 -0.0993,-0.2517672 -0.14832,-0.3777546 -0.005,-0.038631 -0.0107,-0.077481 -0.0108,-0.1162719 -0.0172,-0.2501631 -0.0297,-0.5004187 -0.0419,-0.7508587 0.003,-0.154274 -0.16448,-0.2733117 -0.30903,-0.2201415 -0.021,0.00688 -0.0367,0.020352 -0.0543,0.031522 -0.56662,-1.4075502 -1.19095,-2.7942756 -2.06344,-4.0390299 -1.80329,-2.4860929 -4.34293,-4.2713698 -6.63525,-6.2668007 -1.97522,-1.6672331 -3.93044,-3.4054591 -6.20737,-4.6555299 -2.48967,-1.2038388 -5.29306,-1.4057492 -8.00623,-1.6350421 -3.66303,-0.3468111 -7.32992,-0.7615928 -11.01484,-0.7307048 z M 258.8027,1.7838704 c -0.0986,-0.00299 -0.1982,0.00184 -0.2961,0.0031 -0.40885,0.02335 -0.81706,0.099628 -1.19632,0.2573484 -0.13719,0.116527 -0.0443,0.3314833 0.0873,0.4103111 0.46101,0.206861 0.9023,0.4610706 1.37976,0.6304523 0.2141,0.068809 0.43765,0.1226852 0.66353,0.1214395 0.13496,-0.00122 0.22571,-0.1358148 0.20515,-0.2630328 -0.0464,-0.2271395 -0.10398,-0.4530775 -0.16485,-0.6769613 -0.0574,-0.1925297 -0.18283,-0.3826573 -0.38705,-0.4382161 -0.0947,-0.030536 -0.19282,-0.041453 -0.29146,-0.044442 z m 5.25033,8.2909666 c -0.14863,0.0062 -0.29756,0.02792 -0.44339,0.04858 -0.58437,0.09436 -1.12872,0.342969 -1.65209,0.609782 -0.75074,0.371524 -1.50351,0.742501 -2.28875,1.036629 -0.44105,0.18523 -0.85213,0.478693 -1.10484,0.891935 -0.33645,0.519698 -0.49844,1.137635 -0.5302,1.751831 -0.008,0.268351 0.0215,0.538244 0.0946,0.796851 0.26076,0.47467 0.70145,0.828154 1.18339,1.061434 0.52716,0.243758 1.14339,0.245317 1.69241,0.07493 0.55232,-0.154442 1.0927,-0.40511 1.5043,-0.812871 0.49255,-0.474512 0.82804,-1.092272 1.03249,-1.740462 0.20804,-0.58917 0.4756,-1.154829 0.71676,-1.730644 0.18224,-0.418237 0.39321,-0.825885 0.52968,-1.262455 0.0454,-0.15478 0.0721,-0.331806 -0.0104,-0.479557 -0.0547,-0.109385 -0.16696,-0.17406 -0.28267,-0.201021 -0.14434,-0.0417 -0.29269,-0.05112 -0.44131,-0.04496 z m 11.19983,3.979602 -0.0114,5.29e-4 c -0.38345,0.0157 -0.76737,0.03134 -1.15083,0.04703 -0.0896,0.0057 -0.17417,0.04561 -0.23978,0.105936 -0.0656,0.0603 -0.11205,0.141121 -0.12506,0.22996 0.0987,0.148651 0.3019,0.205429 0.46871,0.153996 0.20336,-0.08243 0.39432,-0.198188 0.59169,-0.295589 0.15509,-0.08148 0.31097,-0.161461 0.46664,-0.241846 z" />
  </g>
</svg>
