<?xml version="1.0" encoding="UTF-8" standalone="no"?>
<!-- Created with Inkscape (http://www.inkscape.org/) -->

<svg
   xmlns:dc="http://purl.org/dc/elements/1.1/"
   xmlns:cc="http://creativecommons.org/ns#"
   xmlns:rdf="http://www.w3.org/1999/02/22-rdf-syntax-ns#"
   xmlns:svg="http://www.w3.org/2000/svg"
   xmlns="http://www.w3.org/2000/svg"
   xmlns:sodipodi="http://sodipodi.sourceforge.net/DTD/sodipodi-0.dtd"
   xmlns:inkscape="http://www.inkscape.org/namespaces/inkscape"
   width="300"
   height="200"
   viewBox="0 0 300 200"
   id="svg16062"
   version="1.1"
   inkscape:version="0.91 r13725"
   sodipodi:docname="figure_board.svg">
  <defs
     id="defs16064">
    <marker
       inkscape:isstock="true"
       style="overflow:visible"
       id="marker18498"
       refX="0"
       refY="0"
       orient="auto"
       inkscape:stockid="Arrow2Lend">
      <path
         transform="matrix(-1.1,0,0,-1.1,-1.1,0)"
         d="M 8.7185878,4.0337352 -2.2072895,0.01601326 8.7185884,-4.0017078 c -1.7454984,2.3720609 -1.7354408,5.6174519 -6e-7,8.035443 z"
         style="fill:#000000;fill-opacity:1;fill-rule:evenodd;stroke:#000000;stroke-width:0.625;stroke-linejoin:round;stroke-opacity:1"
         id="path18500"
         inkscape:connector-curvature="0" />
    </marker>
    <marker
       inkscape:stockid="Arrow2Lend"
       orient="auto"
       refY="0"
       refX="0"
       id="marker18350"
       style="overflow:visible"
       inkscape:isstock="true"
       inkscape:collect="always">
      <path
         id="path18352"
         style="fill:#000000;fill-opacity:1;fill-rule:evenodd;stroke:#000000;stroke-width:0.625;stroke-linejoin:round;stroke-opacity:1"
         d="M 8.7185878,4.0337352 -2.2072895,0.01601326 8.7185884,-4.0017078 c -1.7454984,2.3720609 -1.7354408,5.6174519 -6e-7,8.035443 z"
         transform="matrix(-1.1,0,0,-1.1,-1.1,0)"
         inkscape:connector-curvature="0" />
    </marker>
    <marker
       inkscape:isstock="true"
       style="overflow:visible"
       id="marker17914"
       refX="0"
       refY="0"
       orient="auto"
       inkscape:stockid="Arrow2Lend"
       inkscape:collect="always">
      <path
         transform="matrix(-1.1,0,0,-1.1,-1.1,0)"
         d="M 8.7185878,4.0337352 -2.2072895,0.01601326 8.7185884,-4.0017078 c -1.7454984,2.3720609 -1.7354408,5.6174519 -6e-7,8.035443 z"
         style="fill:#000000;fill-opacity:1;fill-rule:evenodd;stroke:#000000;stroke-width:0.625;stroke-linejoin:round;stroke-opacity:1"
         id="path17916"
         inkscape:connector-curvature="0" />
    </marker>
    <marker
       inkscape:isstock="true"
       style="overflow:visible"
       id="marker17866"
       refX="0"
       refY="0"
       orient="auto"
       inkscape:stockid="Arrow2Lend">
      <path
         transform="matrix(-1.1,0,0,-1.1,-1.1,0)"
         d="M 8.7185878,4.0337352 -2.2072895,0.01601326 8.7185884,-4.0017078 c -1.7454984,2.3720609 -1.7354408,5.6174519 -6e-7,8.035443 z"
         style="fill:#000000;fill-opacity:1;fill-rule:evenodd;stroke:#000000;stroke-width:0.625;stroke-linejoin:round;stroke-opacity:1"
         id="path17868"
         inkscape:connector-curvature="0" />
    </marker>
    <marker
       inkscape:stockid="Arrow2Lend"
       orient="auto"
       refY="0"
       refX="0"
       id="Arrow2Lend"
       style="overflow:visible"
       inkscape:isstock="true"
       inkscape:collect="always">
      <path
         id="path16757"
         style="fill:#000000;fill-opacity:1;fill-rule:evenodd;stroke:#000000;stroke-width:0.625;stroke-linejoin:round;stroke-opacity:1"
         d="M 8.7185878,4.0337352 -2.2072895,0.01601326 8.7185884,-4.0017078 c -1.7454984,2.3720609 -1.7354408,5.6174519 -6e-7,8.035443 z"
         transform="matrix(-1.1,0,0,-1.1,-1.1,0)"
         inkscape:connector-curvature="0" />
    </marker>
    <marker
       inkscape:isstock="true"
       style="overflow:visible"
       id="marker17104"
       refX="0"
       refY="0"
       orient="auto"
       inkscape:stockid="Arrow1Lend">
      <path
         transform="matrix(-0.8,0,0,-0.8,-10,0)"
         style="fill:#000000;fill-opacity:1;fill-rule:evenodd;stroke:#000000;stroke-width:1pt;stroke-opacity:1"
         d="M 0,0 5,-5 -12.5,0 5,5 0,0 Z"
         id="path17106"
         inkscape:connector-curvature="0" />
    </marker>
  </defs>
  <sodipodi:namedview
     id="base"
     pagecolor="#ffffff"
     bordercolor="#666666"
     borderopacity="1.0"
     inkscape:pageopacity="0.0"
     inkscape:pageshadow="2"
     inkscape:zoom="2.8"
     inkscape:cx="153.98935"
     inkscape:cy="115.77905"
     inkscape:document-units="px"
     inkscape:current-layer="layer1"
     showgrid="false"
     units="px"
     inkscape:window-width="1920"
     inkscape:window-height="1017"
     inkscape:window-x="-8"
     inkscape:window-y="-8"
     inkscape:window-maximized="1" />
  <metadata
     id="metadata16067">
    <rdf:RDF>
      <cc:Work
         rdf:about="">
        <dc:format>image/svg+xml</dc:format>
        <dc:type
           rdf:resource="http://purl.org/dc/dcmitype/StillImage" />
        <dc:title></dc:title>
      </cc:Work>
    </rdf:RDF>
  </metadata>
  <g
     inkscape:label="Layer 1"
     inkscape:groupmode="layer"
     id="layer1"
     transform="translate(0,-852.36216)">
    <path
       transform="matrix(3.1261177,0,0,3.1321455,-1231.6275,-2563.346)"
       sodipodi:type="star"
       style="font-style:normal;font-weight:normal;font-size:medium;line-height:125%;font-family:sans-serif;letter-spacing:0px;word-spacing:0px;fill:#d8c586;fill-opacity:1;stroke:none;stroke-width:0.09605665;stroke-linecap:butt;stroke-linejoin:round;stroke-miterlimit:4;stroke-dasharray:none;stroke-dashoffset:0;stroke-opacity:1"
       id="path13290"
       sodipodi:sides="6"
       sodipodi:cx="407.40814"
       sodipodi:cy="1113.0243"
       sodipodi:r1="11.162703"
       sodipodi:r2="9.6671848"
       sodipodi:arg1="-1.0471976"
       sodipodi:arg2="-0.52359878"
       inkscape:flatsided="true"
       inkscape:rounded="0"
       inkscape:randomized="0"
       d="m 412.98949,1103.3571 5.58135,9.6672 -5.58135,9.6672 -11.1627,0 -5.58135,-9.6672 5.58135,-9.6672 z" />
    <path
       d="m 412.98949,1103.3571 5.58135,9.6672 -5.58135,9.6672 -11.1627,0 -5.58135,-9.6672 5.58135,-9.6672 z"
       inkscape:randomized="0"
       inkscape:rounded="0"
       inkscape:flatsided="true"
       sodipodi:arg2="-0.52359878"
       sodipodi:arg1="-1.0471976"
       sodipodi:r2="9.6671848"
       sodipodi:r1="11.162703"
       sodipodi:cy="1113.0243"
       sodipodi:cx="407.40814"
       sodipodi:sides="6"
       id="path16616"
       style="font-style:normal;font-weight:normal;font-size:medium;line-height:125%;font-family:sans-serif;letter-spacing:0px;word-spacing:0px;fill:#d8c586;fill-opacity:1;stroke:none;stroke-width:0.09605665;stroke-linecap:butt;stroke-linejoin:round;stroke-miterlimit:4;stroke-dasharray:none;stroke-dashoffset:0;stroke-opacity:1"
       sodipodi:type="star"
       transform="matrix(3.1261177,0,0,3.1321455,-1178.4107,-2594.8727)" />
    <path
       inkscape:connector-curvature="0"
       style="fill:#42290d;fill-opacity:1;stroke-linecap:round;stroke-linejoin:round"
       d="m 85.339856,876.32608 c -0.97511,-4.5e-4 -2.00113,0.14081 -3.08064,0.45608 a 0.62505843,0.62498458 0 0 0 -0.009,0 0.62505843,0.62498458 0 0 0 -0.0321,0.022 0.62505843,0.62498458 0 0 0 -0.0255,0 0.62505843,0.62498458 0 0 0 -0.031,0.022 0.62505843,0.62498458 0 0 0 -0.0256,0.022 0.62505843,0.62498458 0 0 0 -0.0302,0.022 0.62505843,0.62498458 0 0 0 -0.0227,0.022 0.62505843,0.62498458 0 0 0 -0.0284,0.022 0.62505843,0.62498458 0 0 0 -0.022,0.022 0.62505843,0.62498458 0 0 0 -0.0264,0.0242 0.62505843,0.62498458 0 0 0 -0.0198,0.022 0.62505843,0.62498458 0 0 0 -0.0244,0.0265 0.62505843,0.62498458 0 0 0 -0.0153,0.022 0.62505843,0.62498458 0 0 0 -0.0227,0.0309 0.62505843,0.62498458 0 0 0 -0.0132,0.022 0.62505843,0.62498458 0 0 0 -0.0176,0.0309 0.62505843,0.62498458 0 0 0 -0.0132,0.022 0.62505843,0.62498458 0 0 0 -0.0153,0.033 0.62505843,0.62498458 0 0 0 -0.011,0.0242 0.62505843,0.62498458 0 0 0 -0.0132,0.0331 0.62505843,0.62498458 0 0 0 -0.009,0.0265 0.62505843,0.62498458 0 0 0 -0.011,0.0462 l -1.47334,7.36589 a 0.62505843,0.62498458 0 0 0 0.37014,0.6981 l 5.39671,2.27475 2.0805,10.66656 -7.66739,1.66529 a 0.62505843,0.62498458 0 0 0 -0.49351,0.60225 l -0.07,5.03089 a 0.62505843,0.62498458 0 0 0 0.81423,0.6044 l 9.63686,-3.07979 1.58729,-0.30788 c 0.0132,0 0.0227,0 0.035,0 0.65507,0 1.27204,-0.31177 1.70281,-0.8204 0.4305,-0.50805 0.65571,-1.17027 0.65505,-1.85253 l 0,0 c 3.7e-4,-0.43232 -0.0906,-0.85764 -0.26612,-1.24048 l -1.66284,-8.58984 8.275384,3.48819 a 0.62505843,0.62498458 0 0 0 0.0109,0 0.62505843,0.62498458 0 0 0 0.0359,0.0224 0.62505843,0.62498458 0 0 0 0.0227,0 0.62505843,0.62498458 0 0 0 0.0359,0 0.62505843,0.62498458 0 0 0 0.0275,0 0.62505843,0.62498458 0 0 0 0.0321,0 0.62505843,0.62498458 0 0 0 0.0321,0 0.62505843,0.62498458 0 0 0 0.0284,0 0.62505843,0.62498458 0 0 0 0.0359,0 0.62505843,0.62498458 0 0 0 0.0235,0 l 5.48767,-0.34745 a 0.62505843,0.62498458 0 0 0 0.52451,-0.35775 l 3.32408,-7.03625 5.7e-4,0 a 0.62505843,0.62498458 0 0 0 -0.36259,-0.86425 c -0.5123,-0.28094 -1.03973,-0.47761 -1.57621,-0.60195 l -20.256604,-7.86027 a 0.62505843,0.62498458 0 0 0 -0.053,-0.022 c -0.87628,-0.25279 -1.80048,-0.39537 -2.7756,-0.39602 z m -1.7335,0.90295 a 0.62505843,0.62498458 0 0 1 0.24261,0.0462 l 19.130134,7.66624 a 0.62558485,0.62551093 0 0 1 0.37957,0.70995 0.62505843,0.62498458 0 0 0 -0.0465,0.0972 l -0.0547,0.13641 a 0.62558485,0.62551093 0 0 1 -0.74292,0.21999 l -19.129954,-7.66838 a 0.62505843,0.62498458 0 0 1 0.22209,-1.20701 z m 23.509344,8.44492 c 0.28946,0 0.57572,0.0331 0.85978,0.0924 l 0.9698,0.37651 -1.5574,3.29687 c 0.0605,-0.26705 0.0906,-0.53177 0.0878,-0.77996 -0.009,-0.57444 -0.19338,-1.04944 -0.51617,-1.28703 -0.32278,-0.23759 -0.76904,-0.22904 -1.20899,0.0224 -0.10868,0.0612 -0.21737,0.13639 -0.3228,0.22204 0.0407,-0.0525 0.0785,-0.11229 0.11089,-0.17606 0.0935,-0.18043 0.14785,-0.39138 0.14609,-0.57755 0,-0.18695 -0.0623,-0.34473 -0.16854,-0.42552 -0.053,-0.0398 -0.11441,-0.0612 -0.18106,-0.0593 -0.0662,0 -0.1384,0.0224 -0.20748,0.0612 -0.13884,0.0788 -0.26849,0.23147 -0.36191,0.41317 -0.0935,0.18267 -0.14785,0.39119 -0.14609,0.57775 0,0.18704 0.0622,0.34482 0.16853,0.42551 0.10649,0.0817 0.24989,0.0749 0.38855,0 -0.22464,0.23458 -0.43066,0.51991 -0.59816,0.83693 -0.30315,0.57337 -0.47539,1.23677 -0.46876,1.81122 0.009,0.57444 0.19735,1.05119 0.52017,1.28907 0.32259,0.23779 0.76481,0.2268 1.20473,-0.0224 0.27482,-0.15408 0.54549,-0.39605 0.78362,-0.69635 l -0.55339,1.17116 -4.12866,0.26306 2.45108,-6.0781 c 0.96292,-0.50961 1.86019,-0.75731 2.72809,-0.75011 z m -19.612294,2.50951 1.0537,0.44418 1.95627,9.18101 c -0.19779,-0.0593 -0.40426,-0.0923 -0.61473,-0.0923 -0.17931,0 -0.3553,0.0243 -0.52552,0.0681 l -1.86972,-9.60063 z m 2.45768,1.03603 1.11964,0.47188 1.51331,7.81767 c -0.17975,-0.0487 -0.36606,-0.0768 -0.55578,-0.0768 -0.10825,0 -0.21495,0 -0.32015,0.0262 l -1.75691,-8.2391 z m 2.0771,9.46789 c 0.25422,0 0.5433,0.12988 0.7548,0.37982 0.21143,0.24966 0.35747,0.65057 0.3569,1.03914 6.2e-4,0.38827 -0.14542,0.78939 -0.3568,1.03884 -0.10032,0.1188 -0.21826,0.20901 -0.34131,0.27259 l -0.40423,0.0797 c 0.13861,-0.34697 0.20946,-0.72386 0.20901,-1.10689 l 0,0 c 2.6e-4,-0.24838 -0.0293,-0.49415 -0.0878,-0.73086 a 0.62505843,0.62498458 0 0 0 -0.0132,-0.14739 l -0.17469,-0.81962 c 0.0198,0 0.0387,0 0.0576,0 z m -2.13954,0.2828 c 0.25421,0 0.54349,0.12978 0.75501,0.37992 0.21144,0.24974 0.35728,0.65057 0.35672,1.03914 5.6e-4,0.38857 -0.14544,0.78938 -0.35683,1.03913 -0.21144,0.24974 -0.50069,0.37972 -0.75499,0.37972 -0.25414,0 -0.54158,-0.12978 -0.7531,-0.37972 -0.21145,-0.24975 -0.35919,-0.65056 -0.35861,-1.03913 -5.8e-4,-0.38857 0.1472,-0.7894 0.35861,-1.03914 0.21143,-0.24975 0.49896,-0.37992 0.7531,-0.37992 z m -2.2697,0.69674 c -0.0576,0.23429 -0.0869,0.47704 -0.086,0.72232 l 0,0 c 0,0.68225 0.22429,1.34448 0.65488,1.85253 0.0557,0.0641 0.11331,0.12765 0.17425,0.18481 l -7.14439,2.28329 0.051,-3.66589 6.35031,-1.37929 z"
       id="path13310" />
    <path
       transform="matrix(3.1261177,0,0,3.1321455,-1124.1849,-2563.8505)"
       sodipodi:type="star"
       style="font-style:normal;font-weight:normal;font-size:medium;line-height:125%;font-family:sans-serif;letter-spacing:0px;word-spacing:0px;fill:#d8c586;fill-opacity:1;stroke:none;stroke-width:0.09605665;stroke-linecap:butt;stroke-linejoin:round;stroke-miterlimit:4;stroke-dasharray:none;stroke-dashoffset:0;stroke-opacity:1"
       id="path16648"
       sodipodi:sides="6"
       sodipodi:cx="407.40814"
       sodipodi:cy="1113.0243"
       sodipodi:r1="11.162703"
       sodipodi:r2="9.6671848"
       sodipodi:arg1="-1.0471976"
       sodipodi:arg2="-0.52359878"
       inkscape:flatsided="true"
       inkscape:rounded="0"
       inkscape:randomized="0"
       d="m 412.98949,1103.3571 5.58135,9.6672 -5.58135,9.6672 -11.1627,0 -5.58135,-9.6672 5.58135,-9.6672 z" />
    <path
       d="m 412.98949,1103.3571 5.58135,9.6672 -5.58135,9.6672 -11.1627,0 -5.58135,-9.6672 5.58135,-9.6672 z"
       inkscape:randomized="0"
       inkscape:rounded="0"
       inkscape:flatsided="true"
       sodipodi:arg2="-0.52359878"
       sodipodi:arg1="-1.0471976"
       sodipodi:r2="9.6671848"
       sodipodi:r1="11.162703"
       sodipodi:cy="1113.0243"
       sodipodi:cx="407.40814"
       sodipodi:sides="6"
       id="path16650"
       style="font-style:normal;font-weight:normal;font-size:medium;line-height:125%;font-family:sans-serif;letter-spacing:0px;word-spacing:0px;fill:none;fill-opacity:1;stroke:#a700a7;stroke-width:0.67705333;stroke-linecap:butt;stroke-linejoin:round;stroke-miterlimit:4;stroke-dasharray:0.67705335, 0.67705335;stroke-dashoffset:0;stroke-opacity:1"
       sodipodi:type="star"
       transform="matrix(3.1261177,0,0,3.1321455,-1177.1928,-2532.115)" />
    <path
       id="path13296"
       d="m 149.42089,907.99955 c 1.30027,0 2.16322,0.64902 3.32067,1.29196 1.09697,0.6093 2.47618,1.13176 4.42091,0.73467 0.92293,0.92242 1.86059,1.84528 2.86068,2.47 0.81831,0.51144 1.7378,0.8161 2.65507,0.67224 -0.26312,2.07007 -1.52055,4.09531 -2.83497,5.15532 -3.46611,-1.14857 -6.94099,-1.72316 -10.41577,-1.72316 -3.47811,0 -6.95614,0.57571 -10.42552,1.72633 -1.31565,-1.05909 -2.57502,-3.08627 -2.83843,-5.15849 0.91701,0.14324 1.83676,-0.16059 2.65508,-0.67202 1,-0.62494 1.93756,-1.54758 2.8606,-2.47 1.94465,0.39708 3.32384,-0.12579 4.42092,-0.73489 1.15762,-0.64316 2.02049,-1.29196 3.32076,-1.29196 z m 0.013,1.20973 c -1.22684,0 -3.29225,1.65774 -3.29225,1.65774 0,0 1.31396,4.97367 3.29225,4.97367 1.97845,0 3.29235,-4.97367 3.29235,-4.97367 0,0 -2.06549,-1.65774 -3.29235,-1.65774 z m 0,8.50162 c 3.26859,0 6.53755,0.5342 9.81414,1.59309 0.1352,0.83392 -0.0935,1.45361 -0.585,2.02677 -0.5484,0.63973 -1.46928,1.18293 -2.56087,1.59176 -2.18316,0.81827 -5.01422,1.10786 -6.66836,1.10786 -1.65394,0 -4.48493,-0.28959 -6.66809,-1.10776 -1.09166,-0.40893 -2.01235,-0.95203 -2.56095,-1.59186 -0.49167,-0.57316 -0.7202,-1.19254 -0.58519,-2.02677 3.27678,-1.05889 6.54555,-1.59309 9.81423,-1.59309 z m 10.72581,3.53774 c 0.60812,0.14767 1.66766,0.48144 1.85801,1.05225 0.52017,1.55995 -1.0477,3.94974 -2.23338,5.45744 0.32666,-1.3623 0.50274,-2.8114 0.50274,-4.31379 0,-0.74648 -0.0438,-1.47978 -0.12737,-2.1959 z m -21.45151,0 a 18.939494,18.937258 0 0 0 -0.12738,2.1956 c 0,1.50269 0.17598,2.95179 0.50285,4.31398 -1.18588,-1.50759 -2.75374,-3.89738 -2.23337,-5.45733 0.19009,-0.57081 1.24988,-0.90458 1.8578,-1.05225 z m 20.43484,1.18702 c 0.0196,0.33316 0.0297,0.66908 0.0297,1.00858 0,3.6761 -1.1226,6.99347 -2.9042,9.36751 -1.78149,2.37403 -4.19199,3.79574 -6.83448,3.79574 -2.64229,0 -5.05289,-1.42171 -6.8343,-3.79574 -1.78157,-2.37404 -2.9039,-5.69141 -2.9039,-9.36751 0,-0.3395 0.013,-0.67572 0.0297,-1.00858 0.5077,0.47408 1.12791,0.85867 1.8102,1.17802 -0.26431,1.12689 0.0174,2.52845 0.74909,3.26082 1.34827,1.34737 4.37171,1.34737 5.72006,0 0.4176,-0.41751 0.59666,-1.0825 0.57299,-1.75005 0.30552,0.0215 0.59444,0.0215 0.8568,0.0215 0.26237,0 0.55138,0 0.85699,-0.0215 -0.0241,0.66714 0.15536,1.33254 0.57299,1.75005 1.34835,1.34737 4.37172,1.34737 5.71988,0 0.73269,-0.73237 1.01353,-2.13382 0.74909,-3.26031 0.68247,-0.31966 1.30261,-0.70436 1.81019,-1.17853 z m -9.70914,7.29718 c -1.42997,2.28661 -4.28982,2.57262 -5.71969,2.57262 1.42987,1.14336 5.7196,1.14336 5.7196,0 0,1.14336 4.2901,1.14336 5.71998,0 -1.42988,0 -4.28992,-0.28601 -5.71998,-2.57262 z"
       style="fill:#42290d;fill-opacity:1"
       inkscape:connector-curvature="0" />
    <text
       xml:space="preserve"
       style="font-style:normal;font-variant:normal;font-weight:normal;font-stretch:normal;font-size:10.90279579px;line-height:125%;font-family:'Archivo Narrow';-inkscape-font-specification:'Archivo Narrow, Normal';text-align:start;letter-spacing:0px;word-spacing:0px;writing-mode:lr-tb;text-anchor:start;fill:#000000;fill-opacity:1;stroke:none;stroke-width:1px;stroke-linecap:butt;stroke-linejoin:miter;stroke-opacity:1"
       x="68.671013"
       y="954.71124"
       id="text16667"
       sodipodi:linespacing="125%"><tspan
         sodipodi:role="line"
         id="tspan16669"
         x="68.671013"
         y="954.71124">non-tiled gap</tspan></text>
    <path
       d="m 412.98949,1103.3571 5.58135,9.6672 -5.58135,9.6672 -11.1627,0 -5.58135,-9.6672 5.58135,-9.6672 z"
       inkscape:randomized="0"
       inkscape:rounded="0"
       inkscape:flatsided="true"
       sodipodi:arg2="-0.52359878"
       sodipodi:arg1="-1.0471976"
       sodipodi:r2="9.6671848"
       sodipodi:r1="11.162703"
       sodipodi:cy="1113.0243"
       sodipodi:cx="407.40814"
       sodipodi:sides="6"
       id="path16671"
       style="font-style:normal;font-weight:normal;font-size:medium;line-height:125%;font-family:sans-serif;letter-spacing:0px;word-spacing:0px;fill:#d8c586;fill-opacity:1;stroke:none;stroke-width:0.09605665;stroke-linecap:butt;stroke-linejoin:round;stroke-miterlimit:4;stroke-dasharray:none;stroke-dashoffset:0;stroke-opacity:1"
       sodipodi:type="star"
       transform="matrix(3.1261177,0,0,3.1321455,-1122.0448,-2501.0743)" />
    <path
       transform="matrix(3.1261177,0,0,3.1321455,-1176.6173,-2469.6862)"
       sodipodi:type="star"
       style="font-style:normal;font-weight:normal;font-size:medium;line-height:125%;font-family:sans-serif;letter-spacing:0px;word-spacing:0px;fill:#d8c586;fill-opacity:1;stroke:none;stroke-width:0.09605665;stroke-linecap:butt;stroke-linejoin:round;stroke-miterlimit:4;stroke-dasharray:none;stroke-dashoffset:0;stroke-opacity:1"
       id="path16673"
       sodipodi:sides="6"
       sodipodi:cx="407.40814"
       sodipodi:cy="1113.0243"
       sodipodi:r1="11.162703"
       sodipodi:r2="9.6671848"
       sodipodi:arg1="-1.0471976"
       sodipodi:arg2="-0.52359878"
       inkscape:flatsided="true"
       inkscape:rounded="0"
       inkscape:randomized="0"
       d="m 412.98949,1103.3571 5.58135,9.6672 -5.58135,9.6672 -11.1627,0 -5.58135,-9.6672 5.58135,-9.6672 z" />
    <path
       d="m 412.98949,1103.3571 5.58135,9.6672 -5.58135,9.6672 -11.1627,0 -5.58135,-9.6672 5.58135,-9.6672 z"
       inkscape:randomized="0"
       inkscape:rounded="0"
       inkscape:flatsided="true"
       sodipodi:arg2="-0.52359878"
       sodipodi:arg1="-1.0471976"
       sodipodi:r2="9.6671848"
       sodipodi:r1="11.162703"
       sodipodi:cy="1113.0243"
       sodipodi:cx="407.40814"
       sodipodi:sides="6"
       id="path16675"
       style="font-style:normal;font-weight:normal;font-size:medium;line-height:125%;font-family:sans-serif;letter-spacing:0px;word-spacing:0px;fill:#d8c586;fill-opacity:1;stroke:none;stroke-width:0.09605665;stroke-linecap:butt;stroke-linejoin:round;stroke-miterlimit:4;stroke-dasharray:none;stroke-dashoffset:0;stroke-opacity:1"
       sodipodi:type="star"
       transform="matrix(3.1261177,0,0,3.1321455,-1231.5464,-2501.7877)" />
    <g
       id="g16704"
       transform="matrix(0.59854013,0,0,0.59854013,77.002036,430.12401)">
      <circle
         r="24.464285"
         cy="976.11218"
         cx="34.107143"
         id="path16696"
         style="opacity:1;fill:#42290d;fill-opacity:1;stroke:none;stroke-width:3;stroke-linecap:round;stroke-linejoin:round;stroke-miterlimit:4;stroke-dasharray:3, 3;stroke-dashoffset:0;stroke-opacity:1" />
      <path
         id="path9407"
         d="m 34.084976,961.28604 0,0.0247 c -5.104961,3.17288 -13.977197,3.58872 -14.762827,3.91433 0.972177,21.67998 5.701132,24.75796 14.762827,29.68881 l 0,0.0244 c 0.007,0 0.01485,0 0.02216,-0.0244 0.007,0 0.01473,0 0.02216,0.0244 l 0,-0.0244 c 9.061706,-4.93085 13.790661,-8.00883 14.762838,-29.68881 -0.785607,-0.32561 -9.657855,-0.74145 -14.762838,-3.91433 l 0,-0.0247 c -0.0046,0 -0.01473,0 -0.02216,0 -0.007,0 -0.01473,0 -0.02216,0 z"
         style="fill:#d8c586;fill-opacity:1;stroke:none;stroke-width:0.67869741;stroke-linecap:round;stroke-linejoin:round;stroke-miterlimit:4;stroke-dasharray:none;stroke-opacity:1"
         inkscape:connector-curvature="0" />
    </g>
    <path
       d="m 412.98949,1103.3571 5.58135,9.6672 -5.58135,9.6672 -11.1627,0 -5.58135,-9.6672 5.58135,-9.6672 z"
       inkscape:randomized="0"
       inkscape:rounded="0"
       inkscape:flatsided="true"
       sodipodi:arg2="-0.52359878"
       sodipodi:arg1="-1.0471976"
       sodipodi:r2="9.6671848"
       sodipodi:r1="11.162703"
       sodipodi:cy="1113.0243"
       sodipodi:cx="407.40814"
       sodipodi:sides="6"
       id="path16714"
       style="font-style:normal;font-weight:normal;font-size:medium;line-height:125%;font-family:sans-serif;letter-spacing:0px;word-spacing:0px;fill:#d8c586;fill-opacity:1;stroke:none;stroke-width:0.09605665;stroke-linecap:butt;stroke-linejoin:round;stroke-miterlimit:4;stroke-dasharray:none;stroke-dashoffset:0;stroke-opacity:1"
       sodipodi:type="star"
       transform="matrix(3.1261177,0,0,3.1321455,-1070.6468,-2594.4076)" />
    <path
       sodipodi:nodetypes="cc"
       inkscape:connector-curvature="0"
       id="path16722"
       d="m 185.12172,986.39175 -17.67767,29.41035"
       style="fill:none;fill-rule:evenodd;stroke:#009ba7;stroke-width:3;stroke-linecap:butt;stroke-linejoin:miter;stroke-miterlimit:4;stroke-dasharray:3, 3;stroke-dashoffset:0;stroke-opacity:1" />
    <path
       style="fill:none;fill-rule:evenodd;stroke:#009ba7;stroke-width:3;stroke-linecap:butt;stroke-linejoin:miter;stroke-miterlimit:4;stroke-dasharray:3, 3;stroke-dashoffset:0;stroke-opacity:1"
       d="M 186.44424,986.46565 169.81295,956.45121"
       id="path16724"
       inkscape:connector-curvature="0"
       sodipodi:nodetypes="cc" />
    <text
       xml:space="preserve"
       style="font-style:normal;font-variant:normal;font-weight:normal;font-stretch:normal;font-size:13.20003414px;line-height:125%;font-family:'Archivo Narrow';-inkscape-font-specification:'Archivo Narrow, Normal';text-align:start;letter-spacing:0px;word-spacing:0px;writing-mode:lr-tb;text-anchor:start;fill:#000000;fill-opacity:1;stroke:none;stroke-width:1px;stroke-linecap:butt;stroke-linejoin:miter;stroke-opacity:1"
       x="207.0408"
       y="995.62628"
       id="text16726"
       sodipodi:linespacing="125%"><tspan
         sodipodi:role="line"
         id="tspan16728"
         x="207.0408"
         y="995.62628">external sides</tspan></text>
    <path
       style="fill:none;fill-rule:evenodd;stroke:#000000;stroke-width:1px;stroke-linecap:butt;stroke-linejoin:miter;stroke-opacity:1;marker-end:url(#Arrow2Lend)"
       d="M 205.94497,989.44543 183.35224,975.39219"
       id="path16730"
       inkscape:connector-curvature="0"
       sodipodi:nodetypes="cc" />
    <path
       sodipodi:nodetypes="cc"
       inkscape:connector-curvature="0"
       id="path17102"
       d="m 204.5046,996.3327 -24.55917,6.6474"
       style="fill:none;fill-rule:evenodd;stroke:#000000;stroke-width:1px;stroke-linecap:butt;stroke-linejoin:miter;stroke-opacity:1;marker-end:url(#marker17866)" />
    <path
       style="fill:none;fill-rule:evenodd;stroke:#a7000c;stroke-width:3;stroke-linecap:butt;stroke-linejoin:miter;stroke-miterlimit:4;stroke-dasharray:3, 3;stroke-dashoffset:0;stroke-opacity:1"
       d="m 117.3374,983.20676 17.6777,-29.41037"
       id="path17900"
       inkscape:connector-curvature="0"
       sodipodi:nodetypes="cc" />
    <text
       sodipodi:linespacing="125%"
       id="text17902"
       y="956.06323"
       x="174.09476"
       style="font-style:normal;font-variant:normal;font-weight:normal;font-stretch:normal;font-size:13.20003414px;line-height:125%;font-family:'Archivo Narrow';-inkscape-font-specification:'Archivo Narrow, Normal';text-align:start;letter-spacing:0px;word-spacing:0px;writing-mode:lr-tb;text-anchor:start;fill:#000000;fill-opacity:1;stroke:none;stroke-width:1px;stroke-linecap:butt;stroke-linejoin:miter;stroke-opacity:1"
       xml:space="preserve"><tspan
         y="956.06323"
         x="174.09476"
         id="tspan17904"
         sodipodi:role="line">NOT external side</tspan></text>
    <path
       sodipodi:nodetypes="cc"
       inkscape:connector-curvature="0"
       id="path17912"
       d="m 172.15847,953.23401 -39.98864,13.08784"
       style="fill:none;fill-rule:evenodd;stroke:#000000;stroke-width:1px;stroke-linecap:butt;stroke-linejoin:miter;stroke-opacity:1;marker-end:url(#marker17914)" />
    <text
       xml:space="preserve"
       style="font-style:normal;font-variant:normal;font-weight:normal;font-stretch:normal;font-size:13.20003414px;line-height:125%;font-family:'Archivo Narrow';-inkscape-font-specification:'Archivo Narrow, Normal';text-align:start;letter-spacing:0px;word-spacing:0px;writing-mode:lr-tb;text-anchor:start;fill:#000000;fill-opacity:1;stroke:none;stroke-width:1px;stroke-linecap:butt;stroke-linejoin:miter;stroke-opacity:1"
       x="159.56395"
       y="1038.7434"
       id="text18344"
       sodipodi:linespacing="125%"><tspan
         sodipodi:role="line"
         id="tspan18346"
         x="159.56395"
         y="1038.7434">Security Tile</tspan></text>
    <path
       style="fill:none;fill-rule:evenodd;stroke:#000000;stroke-width:1px;stroke-linecap:butt;stroke-linejoin:miter;stroke-opacity:1;marker-end:url(#marker18350)"
       d="m 152.8684,1036.358 -28.50496,0.165"
       id="path18348"
       inkscape:connector-curvature="0"
       sodipodi:nodetypes="cc" />
    <text
       sodipodi:linespacing="125%"
       id="text18486"
       y="930.0661"
       x="232.06395"
       style="font-style:normal;font-variant:normal;font-weight:normal;font-stretch:normal;font-size:13.20003414px;line-height:125%;font-family:'Archivo Narrow';-inkscape-font-specification:'Archivo Narrow, Normal';text-align:start;letter-spacing:0px;word-spacing:0px;writing-mode:lr-tb;text-anchor:start;fill:#000000;fill-opacity:1;stroke:none;stroke-width:1px;stroke-linecap:butt;stroke-linejoin:miter;stroke-opacity:1"
       xml:space="preserve"><tspan
         y="930.0661"
         x="232.06395"
         id="tspan18488"
         sodipodi:role="line">Blank Tile</tspan></text>
    <path
       sodipodi:nodetypes="cc"
       inkscape:connector-curvature="0"
       id="path18496"
       d="M 254.21647,918.01246 233.4479,906.99404"
       style="fill:none;fill-rule:evenodd;stroke:#000000;stroke-width:1px;stroke-linecap:butt;stroke-linejoin:miter;stroke-opacity:1;marker-end:url(#marker18498)" />
    <path
       inkscape:connector-curvature="0"
       style="fill:#42290d;fill-opacity:1"
       d="m 43.354866,907.99955 c 1.30027,0 2.16322,0.64902 3.32067,1.29196 1.09697,0.6093 2.47618,1.13176 4.42091,0.73467 0.92293,0.92242 1.86059,1.84528 2.86068,2.47 0.81831,0.51144 1.7378,0.8161 2.65507,0.67224 -0.26312,2.07007 -1.52055,4.09531 -2.83497,5.15532 -3.46611,-1.14857 -6.94099,-1.72316 -10.41577,-1.72316 -3.47811,0 -6.95614,0.57571 -10.42552,1.72633 -1.31565,-1.05909 -2.57502,-3.08627 -2.83843,-5.15849 0.91701,0.14324 1.83676,-0.16059 2.65508,-0.67202 1,-0.62494 1.93756,-1.54758 2.8606,-2.47 1.94465,0.39708 3.32384,-0.12579 4.42092,-0.73489 1.15762,-0.64316 2.02049,-1.29196 3.32076,-1.29196 z m 0.013,1.20973 c -1.22684,0 -3.29225,1.65774 -3.29225,1.65774 0,0 1.31396,4.97367 3.29225,4.97367 1.97845,0 3.29235,-4.97367 3.29235,-4.97367 0,0 -2.06549,-1.65774 -3.29235,-1.65774 z m 0,8.50162 c 3.26859,0 6.53755,0.5342 9.81414,1.59309 0.1352,0.83392 -0.0935,1.45361 -0.585,2.02677 -0.5484,0.63973 -1.46928,1.18293 -2.56087,1.59176 -2.18316,0.81827 -5.01422,1.10786 -6.66836,1.10786 -1.65394,0 -4.48493,-0.28959 -6.66809,-1.10776 -1.09166,-0.40893 -2.01235,-0.95203 -2.56095,-1.59186 -0.49167,-0.57316 -0.7202,-1.19254 -0.58519,-2.02677 3.27678,-1.05889 6.54555,-1.59309 9.81423,-1.59309 z m 10.72581,3.53774 c 0.60812,0.14767 1.66766,0.48144 1.85801,1.05225 0.52017,1.55995 -1.0477,3.94974 -2.23338,5.45744 0.32666,-1.3623 0.50274,-2.8114 0.50274,-4.31379 0,-0.74648 -0.0438,-1.47978 -0.12737,-2.1959 z m -21.45151,0 a 18.939494,18.937258 0 0 0 -0.12738,2.1956 c 0,1.50269 0.17598,2.95179 0.50285,4.31398 -1.18588,-1.50759 -2.75374,-3.89738 -2.23337,-5.45733 0.19009,-0.57081 1.24988,-0.90458 1.8578,-1.05225 z m 20.43484,1.18702 c 0.0196,0.33316 0.0297,0.66908 0.0297,1.00858 0,3.6761 -1.1226,6.99347 -2.9042,9.36751 -1.78149,2.37403 -4.19199,3.79574 -6.83448,3.79574 -2.64229,0 -5.05289,-1.42171 -6.8343,-3.79574 -1.78157,-2.37404 -2.9039,-5.69141 -2.9039,-9.36751 0,-0.3395 0.013,-0.67572 0.0297,-1.00858 0.5077,0.47408 1.12791,0.85867 1.8102,1.17802 -0.26431,1.12689 0.0174,2.52845 0.74909,3.26082 1.34827,1.34737 4.37171,1.34737 5.72006,0 0.4176,-0.41751 0.59666,-1.0825 0.57299,-1.75005 0.30552,0.0215 0.59444,0.0215 0.8568,0.0215 0.26237,0 0.55138,0 0.85699,-0.0215 -0.0241,0.66714 0.15536,1.33254 0.57299,1.75005 1.34835,1.34737 4.37172,1.34737 5.71988,0 0.73269,-0.73237 1.01353,-2.13382 0.74909,-3.26031 0.68247,-0.31966 1.30261,-0.70436 1.81019,-1.17853 z m -9.70914,7.29718 c -1.42997,2.28661 -4.28982,2.57262 -5.71969,2.57262 1.42987,1.14336 5.7196,1.14336 5.7196,0 0,1.14336 4.2901,1.14336 5.71998,0 -1.42988,0 -4.28992,-0.28601 -5.71998,-2.57262 z"
       id="path18804" />
    <path
       id="path18806"
       d="m 33.618716,898.28774 c -1.86252,0 -3.20214,0.9868 -3.97583,2.22594 -0.69186,1.10827 -0.97969,2.39374 -1.03579,3.51955 -2.11153,1.04527 -4.45061,2.09908 -6.33381,3.17634 -0.98795,0.56531 -1.849236,1.13376 -2.497515,1.74461 -0.648279,0.61083 -1.12672,1.29876 -1.12672,2.1102 0,0.34523 0.168478,0.62675 0.35815,0.83315 0.190016,0.20659 0.417491,0.36689 0.676797,0.51655 0.51845,0.29944 1.172098,0.5492 1.890958,0.76493 1.06822,0.32091 2.26432,0.55952 3.30438,0.66151 -1.03435,1.78447 -2.41119,3.42364 -3.61793,4.99421 -1.394716,1.81498 -2.612355,3.55576 -2.612355,5.48943 0,0.27637 -0.0089,0.4919 0.02124,0.70866 0.02559,0.21651 0.08646,0.48714 0.30418,0.70123 0.217689,0.21454 0.484058,0.27206 0.701067,0.29567 0.217075,0.0235 0.4357,0.0196 0.716127,0.0196 l 7.694551,0 c 0.55864,0 0.96769,0.0338 1.38841,-0.23678 0.42082,-0.27083 0.5743,-0.64064 0.87405,-1.19319 l 0.009,-0.0196 0.009,-0.0196 c 0,0 0.67067,-1.36522 1.47091,-2.72007 0.40012,-0.67736 0.83456,-1.35204 1.21245,-1.83004 0.18907,-0.23901 0.36582,-0.42845 0.49317,-0.53546 0.0391,-0.0319 0.0571,-0.0379 0.0817,-0.0516 0.0255,0.0196 0.0426,0.0196 0.0817,0.0516 0.12735,0.1074 0.30417,0.29645 0.49316,0.53546 0.37791,0.478 0.81224,1.15268 1.21236,1.83004 0.80024,1.35485 1.47109,2.72007 1.47109,2.72007 l 0.009,0.0196 0.009,0.0196 c 0.29982,0.55255 0.45179,0.92021 0.86986,1.19163 0.41784,0.27141 0.82605,0.23815 1.37667,0.23815 l 7.72862,0 c 0.27591,0 0.49112,0 0.70667,-0.0215 0.21546,-0.0235 0.48279,-0.0835 0.69817,-0.29901 0.21521,-0.21578 0.2748,-0.48341 0.29863,-0.69894 0.0248,-0.21572 0.0212,-0.43124 0.0212,-0.70743 0,-1.93385 -1.21764,-3.67463 -2.61236,-5.48981 -1.20682,-1.57039 -2.58341,-3.20954 -3.61801,-4.99401 1.04014,-0.1015 2.23625,-0.34061 3.30439,-0.66132 0.71894,-0.21592 1.37258,-0.46549 1.89095,-0.76493 0.25931,-0.14909 0.48695,-0.31015 0.6768,-0.51656 0.18984,-0.20659 0.35823,-0.48792 0.35823,-0.83327 0,-0.81144 -0.47844,-1.49924 -1.12671,-2.11007 -0.64828,-0.61105 -1.50964,-1.1795 -2.49753,-1.74458 -1.88319,-1.0773 -4.22227,-2.13131 -6.33388,-3.17635 -0.0563,-1.12581 -0.34403,-2.41146 -1.0358,-3.51957 -0.77367,-1.23913 -2.11323,-2.22575 -3.97583,-2.22575 z"
       inkscape:connector-curvature="0"
       style="fill:#000000;fill-opacity:1;stroke:none;stroke-width:0.99999994;stroke-opacity:1" />
    <path
       style="fill:#000080;fill-opacity:1;stroke:none;stroke-width:0.99999994;stroke-opacity:1"
       inkscape:connector-curvature="0"
       d="m 31.997526,896.91909 c -1.86252,0 -3.20214,0.9868 -3.97583,2.22594 -0.69186,1.10827 -0.97969,2.39374 -1.03579,3.51955 -2.11153,1.04527 -4.45061,2.09908 -6.333815,3.17634 -0.987948,0.56531 -1.849234,1.13376 -2.497513,1.74461 -0.648279,0.61083 -1.12672,1.29876 -1.12672,2.1102 0,0.34523 0.168478,0.62675 0.35815,0.83315 0.190016,0.20659 0.417491,0.36689 0.676797,0.51655 0.51845,0.29944 1.172102,0.5492 1.890959,0.76493 1.068222,0.32091 2.264322,0.55952 3.304382,0.66151 -1.03435,1.78447 -2.41119,3.42364 -3.617937,4.99421 -1.394712,1.81498 -2.612351,3.55576 -2.612351,5.48943 0,0.27637 -0.0089,0.4919 0.02124,0.70866 0.02559,0.21651 0.08646,0.48714 0.30418,0.70123 0.217689,0.21454 0.484058,0.27206 0.701067,0.29567 0.217075,0.0235 0.4357,0.0196 0.716127,0.0196 l 7.694554,0 c 0.55864,0 0.96769,0.0338 1.38841,-0.23678 0.42082,-0.27083 0.5743,-0.64064 0.87405,-1.19319 l 0.009,-0.0196 0.009,-0.0196 c 0,0 0.67067,-1.36522 1.47091,-2.72007 0.40012,-0.67736 0.83456,-1.35204 1.21245,-1.83004 0.18907,-0.23901 0.36582,-0.42845 0.49317,-0.53546 0.0391,-0.0319 0.0571,-0.0379 0.0817,-0.0516 0.0255,0.0196 0.0426,0.0196 0.0817,0.0516 0.12735,0.1074 0.30417,0.29645 0.49316,0.53546 0.37791,0.478 0.81224,1.15268 1.21236,1.83004 0.80024,1.35485 1.47109,2.72007 1.47109,2.72007 l 0.009,0.0196 0.009,0.0196 c 0.29982,0.55255 0.45179,0.92021 0.86986,1.19163 0.41784,0.27141 0.82605,0.23815 1.37667,0.23815 l 7.72862,0 c 0.27591,0 0.49112,0 0.70667,-0.0215 0.21546,-0.0235 0.48279,-0.0835 0.69817,-0.29901 0.21521,-0.21578 0.2748,-0.48341 0.29863,-0.69894 0.0248,-0.21572 0.0212,-0.43124 0.0212,-0.70743 0,-1.93385 -1.21764,-3.67463 -2.61236,-5.48981 -1.20682,-1.57039 -2.58341,-3.20954 -3.61801,-4.99401 1.04014,-0.1015 2.23625,-0.34061 3.30439,-0.66132 0.71894,-0.21592 1.37258,-0.46549 1.89095,-0.76493 0.25931,-0.14909 0.48695,-0.31015 0.6768,-0.51656 0.18984,-0.20659 0.35823,-0.48792 0.35823,-0.83327 0,-0.81144 -0.47844,-1.49924 -1.12671,-2.11007 -0.64828,-0.61105 -1.50964,-1.1795 -2.49753,-1.74458 -1.88319,-1.0773 -4.22227,-2.13131 -6.33388,-3.17635 -0.0563,-1.12581 -0.34403,-2.41146 -1.0358,-3.51957 -0.77367,-1.23913 -2.11323,-2.22575 -3.97583,-2.22575 z"
       id="path13292" />
  </g>
</svg>
