<?xml version="1.0" encoding="UTF-8" standalone="no"?>
<!-- Created with Inkscape (http://www.inkscape.org/) -->

<svg
   xmlns:dc="http://purl.org/dc/elements/1.1/"
   xmlns:cc="http://creativecommons.org/ns#"
   xmlns:rdf="http://www.w3.org/1999/02/22-rdf-syntax-ns#"
   xmlns:svg="http://www.w3.org/2000/svg"
   xmlns="http://www.w3.org/2000/svg"
   xmlns:sodipodi="http://sodipodi.sourceforge.net/DTD/sodipodi-0.dtd"
   xmlns:inkscape="http://www.inkscape.org/namespaces/inkscape"
   width="450"
   height="325"
   viewBox="0 0 450 325"
   id="svg5199"
   version="1.1"
   inkscape:version="0.91 r13725"
   sodipodi:docname="figure_alerts_unsubdue.svg">
  <defs
     id="defs5201" />
  <sodipodi:namedview
     id="base"
     pagecolor="#ffffff"
     bordercolor="#666666"
     borderopacity="1.0"
     inkscape:pageopacity="0.0"
     inkscape:pageshadow="2"
     inkscape:zoom="1.4"
     inkscape:cx="236.61544"
     inkscape:cy="160.17805"
     inkscape:document-units="px"
     inkscape:current-layer="layer1"
     showgrid="false"
     units="px"
     borderlayer="true"
     inkscape:window-width="1920"
     inkscape:window-height="1017"
     inkscape:window-x="-8"
     inkscape:window-y="-8"
     inkscape:window-maximized="1" />
  <metadata
     id="metadata5204">
    <rdf:RDF>
      <cc:Work
         rdf:about="">
        <dc:format>image/svg+xml</dc:format>
        <dc:type
           rdf:resource="http://purl.org/dc/dcmitype/StillImage" />
        <dc:title></dc:title>
      </cc:Work>
    </rdf:RDF>
  </metadata>
  <g
     inkscape:label="Layer 1"
     inkscape:groupmode="layer"
     id="layer1"
     transform="translate(0,-727.36216)">
    <g
       id="g5246"
       transform="matrix(1.3255366,0,0,1.3255366,803.91729,-254.24629)"
       style="fill:#42290d;fill-opacity:1">
      <path
         id="path5238"
         d="m -361.34368,894.60352 c -1.5875,0 -2.72928,0.83893 -3.38869,1.89253 -0.58973,0.9421 -0.83508,2.03513 -0.88294,2.9924 -1.79963,0.88864 -3.79332,1.78454 -5.39841,2.70058 -0.84204,0.4806 -1.57611,0.96388 -2.12868,1.48324 -0.55257,0.51934 -0.96029,1.10419 -0.96029,1.79411 0,0.29359 0.1436,0.53281 0.3051,0.70834 0.16225,0.17616 0.35598,0.31224 0.57695,0.43936 0.44187,0.2546 0.99893,0.46672 1.61176,0.65031 0.91035,0.27285 1.92989,0.47562 2.81637,0.56227 -0.88172,1.51742 -2.05515,2.9109 -3.08373,4.24619 -1.18873,1.54333 -2.22649,3.02327 -2.22649,4.66753 0,0.23488 -0.003,0.41821 0.0179,0.60247 0.0215,0.1844 0.0737,0.41405 0.25928,0.59623 0.18549,0.18226 0.41257,0.2313 0.59754,0.25136 0.18478,0.0215 0.37132,0.0215 0.61036,0.0215 l 6.55832,0 c 0.47611,0 0.82468,0.0287 1.18328,-0.20123 0.35869,-0.23022 0.48947,-0.54463 0.74496,-1.01448 l 0.003,0 0.003,-0.0215 c 0,0 0.57168,-1.16076 1.25378,-2.31284 0.3409,-0.57568 0.71126,-1.14934 1.03331,-1.55574 0.16119,-0.20301 0.31191,-0.36436 0.42042,-0.45533 0.0322,-0.0285 0.0484,-0.0322 0.0695,-0.0456 0.0215,0.0215 0.0361,0.0215 0.0695,0.0456 0.1084,0.0913 0.25928,0.25206 0.42038,0.45533 0.32195,0.4064 0.69227,0.98006 1.03334,1.55574 0.68203,1.15208 1.25374,2.31284 1.25374,2.31284 l 0.003,0.0215 0.003,0 c 0.25569,0.46985 0.38513,0.78236 0.74147,1.01324 0.3563,0.23059 0.70403,0.20302 1.17339,0.20302 l 6.58723,0 c 0.2353,0 0.41862,0 0.60231,-0.0215 0.18371,-0.0215 0.41151,-0.0705 0.59507,-0.25458 0.18334,-0.1844 0.2342,-0.41076 0.25461,-0.59416 0.0215,-0.18225 0.0179,-0.36663 0.0179,-0.60161 0,-1.64405 -1.03778,-3.12399 -2.22649,-4.66735 -1.02852,-1.33527 -2.20195,-2.72877 -3.08372,-4.24619 0.88648,-0.0871 1.90603,-0.28967 2.81637,-0.56225 0.61282,-0.18441 1.16988,-0.39584 1.61176,-0.65032 0.22094,-0.12634 0.415,-0.26354 0.5768,-0.43915 0.1619,-0.17617 0.30546,-0.41493 0.30546,-0.70858 0,-0.6899 -0.4077,-1.27475 -0.96026,-1.79408 -0.55259,-0.51937 -1.28668,-1.00263 -2.12866,-1.48326 -1.60517,-0.916 -3.59878,-1.81192 -5.39848,-2.70056 -0.0481,-0.95723 -0.29329,-2.05024 -0.88293,-2.99238 -0.65941,-1.05362 -1.80116,-1.89256 -3.38869,-1.89256 z"
         inkscape:connector-curvature="0"
         style="fill:#42290d;fill-opacity:1;stroke:none;stroke-opacity:1" />
      <path
         style="fill:#42290d;fill-opacity:1;stroke:none;stroke-opacity:1"
         inkscape:connector-curvature="0"
         d="m -333.11578,894.60352 c -1.5875,0 -2.72925,0.8389 -3.38866,1.89253 -0.58974,0.94212 -0.8351,2.03509 -0.88296,2.99237 -1.79966,0.88867 -3.7933,1.78457 -5.39845,2.70059 -0.84197,0.48061 -1.5761,0.96386 -2.12864,1.48323 -0.55258,0.51937 -0.96027,1.10422 -0.96027,1.79409 0,0.29363 0.14359,0.53283 0.3051,0.70839 0.16225,0.17616 0.35596,0.31224 0.57695,0.43933 0.44183,0.25459 0.99893,0.46671 1.61174,0.65034 0.91036,0.27285 1.9299,0.47562 2.81638,0.56223 -0.88173,1.51746 -2.05516,2.91095 -3.08376,4.24624 -1.1887,1.54332 -2.22645,3.02323 -2.22645,4.66749 0,0.23487 -0.003,0.41824 0.0179,0.6025 0.0215,0.1844 0.0737,0.41406 0.25928,0.59623 0.1855,0.18226 0.4126,0.2313 0.59757,0.25136 0.18479,0.0215 0.37132,0.0215 0.61031,0.0215 l 6.55838,0 c 0.47606,0 0.82468,0.0287 1.18328,-0.2012 0.35865,-0.23025 0.48944,-0.54464 0.74496,-1.01448 l 0.003,0 0.003,-0.0216 c 0,0 0.57169,-1.16075 1.25382,-2.31285 0.34091,-0.5757 0.71123,-1.14934 1.03331,-1.55576 0.16119,-0.20302 0.3119,-0.36434 0.42039,-0.45532 0.0322,-0.0287 0.0484,-0.0322 0.0695,-0.0455 0.0215,0.0215 0.0366,0.0215 0.0695,0.0455 0.1084,0.091 0.25927,0.25209 0.42038,0.45532 0.32193,0.40642 0.69226,0.98006 1.03328,1.55576 0.68206,1.1521 1.2538,2.31285 1.2538,2.31285 l 0.003,0.0216 0.003,0 c 0.25569,0.46984 0.38512,0.78236 0.74142,1.01321 0.35632,0.23059 0.70404,0.20302 1.17341,0.20302 l 6.58726,0 c 0.23527,0 0.41862,0 0.6023,-0.0215 0.1837,-0.0215 0.41146,-0.0705 0.59502,-0.2546 0.18337,-0.18438 0.2342,-0.41076 0.25461,-0.59416 0.0215,-0.18223 0.018,-0.36662 0.018,-0.60159 0,-1.64408 -1.03775,-3.12401 -2.22645,-4.66737 -1.02856,-1.33525 -2.20195,-2.72877 -3.08377,-4.24617 0.8865,-0.0871 1.90602,-0.28969 2.81642,-0.56227 0.61277,-0.1844 1.16987,-0.39583 1.6117,-0.65031 0.22097,-0.12635 0.41502,-0.26353 0.57683,-0.43916 0.16189,-0.17617 0.30545,-0.41491 0.30545,-0.70856 0,-0.68992 -0.40771,-1.27477 -0.96027,-1.79413 -0.55259,-0.51934 -1.28666,-1.00263 -2.12865,-1.48323 -1.60514,-0.916 -3.59877,-1.81192 -5.39844,-2.70059 -0.0479,-0.95725 -0.29329,-2.05021 -0.88294,-2.99235 -0.65943,-1.05363 -1.80114,-1.89256 -3.38871,-1.89256 z"
         id="path5240" />
      <text
         transform="scale(1.0000655,0.99993451)"
         sodipodi:linespacing="125%"
         id="text5242"
         y="915.44635"
         x="-319.87796"
         style="font-style:normal;font-weight:normal;font-size:31.57863808px;line-height:125%;font-family:sans-serif;letter-spacing:0px;word-spacing:0px;fill:#42290d;fill-opacity:1;stroke:none;stroke-width:1px;stroke-linecap:butt;stroke-linejoin:miter;stroke-opacity:1"
         xml:space="preserve"><tspan
           style="font-style:normal;font-variant:normal;font-weight:normal;font-stretch:normal;font-family:'Archivo Black';-inkscape-font-specification:'Archivo Black, ';fill:#42290d;fill-opacity:1"
           y="915.44635"
           x="-319.87796"
           id="tspan5244"
           sodipodi:role="line">+</tspan></text>
    </g>
    <g
       style="font-style:normal;font-weight:normal;font-size:40px;line-height:125%;font-family:sans-serif;letter-spacing:0px;word-spacing:0px;fill:#000000;fill-opacity:1;stroke:none;stroke-width:1px;stroke-linecap:butt;stroke-linejoin:miter;stroke-opacity:1"
       id="g14194"
       transform="matrix(2.8041443,0,0,2.8041443,-576.57943,779.39985)">
      <g
         id="g14196"
         transform="translate(301.32214,-340.94806)"
         style="fill:#000000;fill-opacity:1">
        <path
           inkscape:connector-curvature="0"
           id="path14200"
           style="fill:#000000;fill-opacity:1"
           d="m -15.60377,354.7502 -31.75781,0 q -0.33203,0 -0.60547,-0.19531 -0.25391,-0.19532 -0.41016,-0.46875 -0.15625,-0.27344 -0.15625,-0.58594 0,-0.29297 0.15625,-0.60547 l 15.85938,-28.16406 q 0.15625,-0.27344 0.42968,-0.41016 0.27344,-0.13672 0.58594,-0.13672 0.3125,0 0.58594,0.13672 0.27344,0.13672 0.42969,0.41016 l 15.89843,28.16406 q 0.15625,0.3125 0.15625,0.60547 0,0.3125 -0.15625,0.58594 -0.15625,0.27343 -0.42968,0.46875 -0.25391,0.19531 -0.58594,0.19531 z m -29.72656,-2.5 27.65625,0 -13.82813,-24.49219 -13.82812,24.49219 z m 15.64453,-7.10938 -3.63281,0 0,-10.83984 3.63281,0 0,10.83984 z m 0.54687,3.55469 q 0,0.50781 -0.19531,0.9375 -0.17578,0.42969 -0.50781,0.76172 -0.3125,0.3125 -0.74219,0.50781 -0.42969,0.17578 -0.91797,0.17578 -0.48828,0 -0.91797,-0.17578 -0.42968,-0.19531 -0.74218,-0.50781 -0.3125,-0.33203 -0.48829,-0.76172 -0.17578,-0.42969 -0.17578,-0.9375 0,-0.48828 0.17578,-0.9375 0.17579,-0.44922 0.48829,-0.76172 0.3125,-0.33203 0.74218,-0.52734 0.42969,-0.19531 0.91797,-0.19531 0.48828,0 0.91797,0.19531 0.42969,0.19531 0.74219,0.52734 0.33203,0.3125 0.50781,0.76172 0.19531,0.44922 0.19531,0.9375 z" />
      </g>
    </g>
    <path
       d="m 412.98949,1103.3571 5.58135,9.6672 -5.58135,9.6672 -11.1627,0 -5.58135,-9.6672 5.58135,-9.6672 z"
       inkscape:randomized="0"
       inkscape:rounded="0"
       inkscape:flatsided="true"
       sodipodi:arg2="-0.52359878"
       sodipodi:arg1="-1.0471976"
       sodipodi:r2="9.6671848"
       sodipodi:r1="11.162703"
       sodipodi:cy="1113.0243"
       sodipodi:cx="407.40814"
       sodipodi:sides="6"
       id="path15141"
       style="font-style:normal;font-weight:normal;font-size:medium;line-height:125%;font-family:sans-serif;letter-spacing:0px;word-spacing:0px;fill:#c1c1c1;fill-opacity:1;stroke:#000000;stroke-width:0.67880458;stroke-linecap:butt;stroke-linejoin:round;stroke-miterlimit:4;stroke-dasharray:none;stroke-dashoffset:0;stroke-opacity:1"
       sodipodi:type="star"
       transform="matrix(7.739903,0,0,7.7548263,-3062.8984,-7700.8924)" />
    <path
       id="path15143"
       d="m 132.11481,931.18858 c -3.33108,0.44702 -7.568,0.76097 -12.91203,0.94346 -3.3909,0.11568 -7.19388,0.17354 -11.30545,0.17354 -5.17692,0 -9.790401,-0.0894 -12.646102,-0.15776 a 30.372623,30.370641 0 0 0 1.295399,8.51475 c 3.263112,10.89705 11.830753,18.27116 20.358163,18.27116 a 14.408403,14.407463 0 0 0 4.14486,-0.60058 c 9.46013,-2.83246 14.27609,-14.83917 11.06516,-27.13879 z m -23.63254,12.70141 -1.97622,-1.20009 -0.87342,1.53246 -2.29087,-1.31001 0.9126,-1.58978 -2.03758,-1.23796 1.37098,-2.25556 1.97638,1.20062 0.87343,-1.53246 2.29088,1.31 -0.91261,1.5903 2.03741,1.23744 z m 14.30677,-3.75699 -1.97657,-1.20062 -0.87323,1.53141 -2.29088,-1.30843 0.9081,-1.59715 -2.03758,-1.23532 1.37549,-2.25714 1.97638,1.20062 0.87325,-1.53246 2.2907,1.31 -0.9126,1.5903 2.03776,1.23744 z m 17.72488,-33.07456 3.20209,2.66734 3.53946,-2.19403 -1.54868,3.86638 3.18162,2.68784 -4.15508,-0.27872 -1.57782,3.85585 -1.01852,-4.03834 -4.15388,-0.30501 3.51779,-2.21613 z m -0.0332,-11.47343 0.30286,2.6016 2.56426,0.53799 -2.38101,1.09123 0.29108,2.6037 -1.77701,-1.92687 -2.38813,1.07598 1.28361,-2.28029 -1.76107,-1.94055 2.56878,0.52064 z m -51.385497,-0.0684 2.682335,3.18219 3.869898,-1.53982 -2.201935,3.53979 2.660321,3.20165 -4.043097,-1.00025 -2.229672,3.52034 -0.290924,-4.153 -4.03737,-1.02916 3.85967,-1.56559 z m 51.385497,29.87817 c -0.66346,1.84274 -3.71978,3.80536 -21.35345,4.40542 -3.76657,0.12621 -7.63648,0.16829 -11.22691,0.16829 -6.09958,0 -17.639245,-0.17882 -17.639245,-0.17882 l 0,-2.32865 c 0,0 11.566015,0.17881 17.640625,0.17881 3.51347,0 7.29443,-0.063 10.97814,-0.16303 5.64256,-0.18933 10.1775,-0.53799 13.47981,-1.03444 4.95847,-0.74941 5.79392,-1.63449 5.91337,-1.81066 -0.0347,-0.0841 -0.17771,-0.34183 -0.70751,-0.76096 -1.4757,-1.16434 -4.15215,-2.32866 -7.75715,-3.41148 a 29.458632,29.456712 0 0 0 -2.41015,-3.08752 c 0.29103,0.0736 0.58219,0.14725 0.85574,0.22087 5.11868,1.36205 8.7325,2.8577 10.75259,4.44696 0.94744,0.75414 1.97636,1.94476 1.47412,3.35258 z M 96.118842,925.1739 c 0.218457,-1.06652 1.286906,-3.85639 1.806311,-4.64523 8.201147,0.56271 21.954697,-2.28764 25.670297,-3.66179 2.21338,1.92846 4.76032,5.21582 5.91027,7.59496 -8.3407,0.94924 -23.20329,0.96817 -33.391032,0.71363 z m 2.823459,-10.49106 c -1.46703,-0.0894 -4.908893,-0.30502 -6.207068,0.28924 1.727431,1.63133 10.915197,1.81328 18.662457,0.71626 8.30446,-1.17589 16.00942,-3.12329 20.53118,-6.20397 1.88346,-1.28371 2.87876,-3.1601 2.69846,-3.99154 -0.91712,-4.24449 -25.34125,-5.74276 -25.34125,-5.74276 0,0 25.94802,0.53745 26.14012,5.74066 0.20667,5.5829 -11.95471,9.86735 -23.64138,11.69063 -11.10018,1.73177 -21.742145,1.85272 -21.190498,-2.72624 0.320164,-2.65997 7.470388,-2.16352 10.564648,-1.81171 -0.61425,0.42598 -1.739225,1.53719 -2.220834,2.0389 z m 11.043669,-2.78409 a 15.467933,15.466924 0 0 1 6.19718,0.66893 c -1.85277,0.45754 -8.48355,1.35524 -12.39437,1.45515 3.08698,-1.88111 5.64554,-2.05729 6.19285,-2.12302 z"
       style="fill:#000000;fill-opacity:1"
       inkscape:connector-curvature="0" />
    <path
       id="path15145"
       d="m 54.226437,897.5934 c -3.792931,0 -6.521039,2.00891 -8.096595,4.53269 -1.40895,2.25712 -1.995107,4.8745 -2.109364,7.1674 -4.300018,2.1283 -9.063457,4.275 -12.898505,6.4685 -2.01193,1.15066 -3.765888,2.30921 -5.086078,3.55295 -1.320189,1.24374 -2.294509,2.64473 -2.294509,4.29708 0,0.70366 0.343094,1.27583 0.729353,1.69653 0.386953,0.42598 0.850192,0.7473 1.378269,1.05233 1.055807,0.6074 2.38692,1.11804 3.850831,1.55716 2.175415,0.65369 4.61122,1.14015 6.729243,1.34735 -2.106407,3.63393 -4.910275,6.9723 -7.367754,10.17132 -2.840277,3.69547 -5.319942,7.24104 -5.319942,11.17841 0,0.56954 -0.01736,1.0013 0.04313,1.44306 0.05207,0.43649 0.176122,0.99184 0.619435,1.42833 0.443277,0.43649 0.985768,0.55061 1.427678,0.60109 0.442066,0.0736 0.887294,0 1.458367,0 l 15.669607,0 c 1.137636,0 1.970669,0.0736 2.827445,-0.47857 0.856955,-0.5506 1.169537,-1.30526 1.779961,-2.43015 l 0.01736,0 0.01736,-0.0736 c 0,0 1.365785,-2.7804 2.995443,-5.53977 0.814821,-1.37941 1.699507,-2.75358 2.46909,-3.72701 0.38506,-0.48383 0.744946,-0.87246 1.004316,-1.09018 0.07977,-0.0736 0.116174,-0.0736 0.166393,-0.10522 0.05206,0 0.08672,0 0.166446,0.10522 0.259371,0.22088 0.619441,0.6011 1.004311,1.09018 0.769578,0.97343 1.654096,2.3476 2.468922,3.72701 1.629647,2.75937 2.995784,5.53977 2.995784,5.53977 l 0.01683,0.0736 0.01683,0 c 0.610647,1.12489 0.920064,1.87377 1.77147,2.42701 0.850882,0.55008 1.682178,0.47856 2.803516,0.47856 l 15.738959,0 c 0.56187,0 1.000155,0 1.439125,-0.0736 0.438754,-0.0736 0.983159,-0.16302 1.421782,-0.61319 0.43828,-0.4365 0.559599,-0.98501 0.608118,-1.42413 0.05049,-0.43648 0.04313,-0.87718 0.04313,-1.44041 0,-3.93791 -2.47967,-7.48348 -5.319942,-11.17947 -2.457658,-3.19849 -5.261,-6.53634 -7.367928,-10.17028 2.118197,-0.21035 4.554009,-0.69313 6.729245,-1.34681 1.464085,-0.44175 2.795203,-0.94818 3.850835,-1.55769 0.528093,-0.30503 0.991654,-0.63266 1.37826,-1.05232 0.386584,-0.42598 0.729557,-0.9929 0.729557,-1.69654 0,-1.65288 -0.974331,-3.05334 -2.294514,-4.29709 -1.320195,-1.24426 -3.074326,-2.40228 -5.086073,-3.55293 -3.835053,-2.19351 -8.598493,-4.3402 -12.898685,-6.46798 -0.114385,-2.29291 -0.700581,-4.91133 -2.109362,-7.16741 -1.575559,-2.52378 -4.303489,-4.53269 -8.096587,-4.53269 z"
       inkscape:connector-curvature="0"
       style="fill:#000000;fill-opacity:1;stroke:none;stroke-width:0.99999994;stroke-opacity:1" />
    <path
       style="fill:#000000;fill-opacity:1;stroke:none;stroke-width:1.10099995;stroke-linecap:round;stroke-linejoin:round;stroke-miterlimit:4;stroke-dasharray:none;stroke-dashoffset:0;stroke-opacity:1"
       d="m 264.6534,931.62515 -39.24962,-31.44007 -3.1e-4,17.21041 -43.03211,0 1.2e-4,29.90552 43.03211,0 -8e-5,15.76421 z"
       id="path15147"
       inkscape:connector-curvature="0"
       sodipodi:nodetypes="cccccccc"
       inkscape:transform-center-x="5.2377932"
       inkscape:transform-center-y="-5.4261838" />
    <path
       transform="matrix(7.739903,0,0,7.7548263,-2793.8988,-7699.4025)"
       sodipodi:type="star"
       style="font-style:normal;font-weight:normal;font-size:medium;line-height:125%;font-family:sans-serif;letter-spacing:0px;word-spacing:0px;fill:#c1c1c1;fill-opacity:1;stroke:#000000;stroke-width:0.67880458;stroke-linecap:butt;stroke-linejoin:round;stroke-miterlimit:4;stroke-dasharray:none;stroke-dashoffset:0;stroke-opacity:1"
       id="path15151"
       sodipodi:sides="6"
       sodipodi:cx="407.40814"
       sodipodi:cy="1113.0243"
       sodipodi:r1="11.162703"
       sodipodi:r2="9.6671848"
       sodipodi:arg1="-1.0471976"
       sodipodi:arg2="-0.52359878"
       inkscape:flatsided="true"
       inkscape:rounded="0"
       inkscape:randomized="0"
       d="m 412.98949,1103.3571 5.58135,9.6672 -5.58135,9.6672 -11.1627,0 -5.58135,-9.6672 5.58135,-9.6672 z" />
    <path
       id="path15149"
       d="m 391.1245,888.88835 c 3.60951,0 6.00474,1.80224 9.21775,3.58765 3.04537,1.69286 6.87349,3.1438 12.27215,2.04152 2.56202,2.56163 5.16495,5.12379 7.94074,6.85924 2.27145,1.42045 4.8241,2.2666 7.37018,1.8664 -0.73054,5.7496 -4.2208,11.37352 -7.86931,14.31747 -9.6217,-3.18955 -19.2675,-4.78511 -28.91331,-4.78511 -9.65464,0 -19.30911,1.59872 -28.93965,4.79406 -3.65232,-2.94133 -7.14827,-8.57104 -7.87936,-14.32642 2.54555,0.39969 5.09856,-0.44702 7.37019,-1.86587 2.77578,-1.73598 5.37837,-4.29814 7.94073,-6.85977 5.39813,1.10228 9.22695,-0.3471 12.27197,-2.04101 3.21353,-1.78645 5.60859,-3.58816 9.21792,-3.58816 z m 0.019,3.35993 c -3.40581,0 -9.13871,4.60369 -9.13871,4.60369 0,0 3.64731,13.81314 9.13871,13.81314 5.49176,0 9.13921,-13.81314 9.13921,-13.81314 0,0 -5.73342,-4.60369 -9.13921,-4.60369 z m 0,23.61004 c 9.07351,0 18.14755,1.48407 27.24325,4.4254 0.3748,2.31604 -0.25947,4.03729 -1.62376,5.62863 -1.52285,1.77648 -4.07915,3.28474 -7.10891,4.42068 -6.0604,2.2724 -13.91914,3.07702 -18.51076,3.07702 -4.59144,0 -12.44983,-0.80462 -18.50989,-3.07702 -3.03028,-1.13594 -5.58605,-2.64367 -7.10891,-4.42068 -1.36476,-1.59134 -1.99927,-3.31208 -1.62428,-5.62863 9.09571,-2.94133 18.16975,-4.4254 27.24308,-4.4254 z m 29.77371,9.82632 c 1.68809,0.41021 4.62908,1.33683 5.15733,2.92188 1.44433,4.33231 -2.90806,10.96964 -6.19961,15.1568 0.90689,-3.7838 1.39578,-7.80848 1.39578,-11.98093 0,-2.07308 -0.12132,-4.10933 -0.35355,-6.09775 z m -59.54675,0 a 52.573865,52.593032 0 0 0 -0.35345,6.09723 c 0,4.17297 0.48876,8.19765 1.39578,11.98145 -3.29155,-4.18716 -7.64394,-10.82449 -6.19961,-15.1568 0.5281,-1.58505 3.46942,-2.51273 5.15698,-2.92188 z m 56.7247,3.29631 c 0.052,0.92454 0.0815,1.858 0.0815,2.80092 0,10.20867 -3.11611,19.42233 -8.06157,26.01548 -4.9453,6.59366 -11.63658,10.54207 -18.97174,10.54207 -7.33482,0 -14.02627,-3.94841 -18.97139,-10.54207 -4.94512,-6.59315 -8.06105,-15.80629 -8.06105,-26.01548 0,-0.94292 0.0299,-1.87638 0.0815,-2.80144 1.40949,1.31631 3.13084,2.38494 5.02488,3.27264 -0.73385,3.1296 0.0457,7.02175 2.07938,9.05484 3.74247,3.74227 12.13534,3.74227 15.87799,0 1.15913,-1.15959 1.65635,-3.00653 1.59081,-4.86031 0.84795,0 1.64993,0.0736 2.37825,0.0736 0.7285,0 1.53067,0 2.37878,-0.0736 -0.0657,1.85378 0.43149,3.70072 1.59081,4.86031 3.74266,3.74227 12.13535,3.74227 15.87784,0 2.03359,-2.03309 2.81322,-5.92524 2.07935,-9.05431 1.89404,-0.88771 3.61592,-1.95581 5.02489,-3.27265 z M 391.1435,949.2463 c -3.96942,6.35069 -11.90789,7.1448 -15.8773,7.1448 3.96923,3.17536 15.87712,3.17536 15.87712,0 0,3.17536 11.90859,3.17536 15.87801,0 -3.96942,0 -11.90841,-0.79411 -15.87801,-7.1448 z"
       style="fill:#000000;fill-opacity:1"
       inkscape:connector-curvature="0" />
    <path
       style="fill:#000000;fill-opacity:1;stroke:none;stroke-width:0.99999994;stroke-opacity:1"
       inkscape:connector-curvature="0"
       d="m 321.55575,897.50144 c -3.79293,0 -6.52103,2.00945 -8.0966,4.53321 -1.40896,2.25661 -1.99511,4.87452 -2.10936,7.16688 -4.30002,2.12883 -9.06346,4.27448 -12.89851,6.46851 -2.01194,1.15118 -3.76588,2.30921 -5.08606,3.55348 -1.32021,1.24374 -2.29452,2.64472 -2.29452,4.29708 0,0.70259 0.34309,1.27581 0.72932,1.69653 0.38696,0.42598 0.85018,0.74677 1.37827,1.05126 1.05581,0.60741 2.38691,1.11857 3.85083,1.55822 2.17541,0.6537 4.61123,1.13962 6.72924,1.34735 -2.1064,3.63392 -4.91026,6.97178 -7.36776,10.17027 -2.84027,3.69651 -5.31994,7.24157 -5.31994,11.17946 0,0.56324 -0.0169,1.0013 0.0432,1.44254 0.052,0.43649 0.17613,0.99236 0.61944,1.42832 0.44333,0.4365 0.98577,0.55008 1.42768,0.60688 0.44207,0.0736 0.8873,0 1.45837,0 l 15.66961,0 c 1.13763,0 1.97067,0.0736 2.82745,-0.47856 0.85696,-0.55008 1.16953,-1.30423 1.77995,-2.42963 l 0.0169,0 0.0168,-0.0736 c 0,0 1.36579,-2.77988 2.99544,-5.53978 0.81482,-1.37942 1.69951,-2.75357 2.46909,-3.72648 0.38506,-0.47857 0.74495,-0.87246 1.00432,-1.09071 0.0798,-0.0736 0.11616,-0.0736 0.16645,-0.11039 0.052,0 0.0867,0 0.16645,0.11039 0.25936,0.22088 0.61944,0.60057 1.00431,1.09071 0.76957,0.97291 1.65409,2.34706 2.46892,3.72648 1.62965,2.7599 2.99577,5.53978 2.99577,5.53978 l 0.0169,0.0736 0.0169,0 c 0.61065,1.1254 0.92007,1.87376 1.77147,2.427 0.85088,0.55061 1.68219,0.47856 2.80352,0.47856 l 15.73897,0 c 0.56187,0 1.00015,0 1.43911,-0.0736 0.43881,-0.0736 0.98316,-0.16302 1.42179,-0.61372 0.43828,-0.43648 0.55959,-0.98446 0.60812,-1.42359 0.0504,-0.43649 0.0432,-0.87825 0.0432,-1.44095 0,-3.93737 -2.47967,-7.48348 -5.31994,-11.17946 -2.45766,-3.19796 -5.261,-6.53687 -7.36795,-10.17027 2.11821,-0.21036 4.55403,-0.69313 6.72926,-1.34682 1.46409,-0.43649 2.7952,-0.94767 3.85083,-1.5577 0.52811,-0.30502 0.99165,-0.63212 1.37827,-1.05179 0.38658,-0.42597 0.72955,-0.99394 0.72955,-1.69706 0,-1.65236 -0.97433,-3.05335 -2.29452,-4.29655 -1.32019,-1.2448 -3.07431,-2.4023 -5.08607,-3.55295 -3.83505,-2.19403 -8.5985,-4.34021 -12.89868,-6.46902 -0.11435,-2.29238 -0.70058,-4.9108 -2.10936,-7.16742 -1.57556,-2.52324 -4.3035,-4.53216 -8.0966,-4.53216 z"
       id="path15153" />
    <g
       transform="matrix(2.8041443,0,0,2.8041443,-474.981,779.39985)"
       id="g4154"
       style="font-style:normal;font-weight:normal;font-size:40px;line-height:125%;font-family:sans-serif;letter-spacing:0px;word-spacing:0px;fill:#000000;fill-opacity:1;stroke:none;stroke-width:1px;stroke-linecap:butt;stroke-linejoin:miter;stroke-opacity:1">
      <g
         style="fill:#000000;fill-opacity:1"
         transform="translate(301.32214,-340.94806)"
         id="g4156">
        <path
           d="m -15.60377,354.7502 -31.75781,0 q -0.33203,0 -0.60547,-0.19531 -0.25391,-0.19532 -0.41016,-0.46875 -0.15625,-0.27344 -0.15625,-0.58594 0,-0.29297 0.15625,-0.60547 l 15.85938,-28.16406 q 0.15625,-0.27344 0.42968,-0.41016 0.27344,-0.13672 0.58594,-0.13672 0.3125,0 0.58594,0.13672 0.27344,0.13672 0.42969,0.41016 l 15.89843,28.16406 q 0.15625,0.3125 0.15625,0.60547 0,0.3125 -0.15625,0.58594 -0.15625,0.27343 -0.42968,0.46875 -0.25391,0.19531 -0.58594,0.19531 z m -29.72656,-2.5 27.65625,0 -13.82813,-24.49219 -13.82812,24.49219 z m 15.64453,-7.10938 -3.63281,0 0,-10.83984 3.63281,0 0,10.83984 z m 0.54687,3.55469 q 0,0.50781 -0.19531,0.9375 -0.17578,0.42969 -0.50781,0.76172 -0.3125,0.3125 -0.74219,0.50781 -0.42969,0.17578 -0.91797,0.17578 -0.48828,0 -0.91797,-0.17578 -0.42968,-0.19531 -0.74218,-0.50781 -0.3125,-0.33203 -0.48829,-0.76172 -0.17578,-0.42969 -0.17578,-0.9375 0,-0.48828 0.17578,-0.9375 0.17579,-0.44922 0.48829,-0.76172 0.3125,-0.33203 0.74218,-0.52734 0.42969,-0.19531 0.91797,-0.19531 0.48828,0 0.91797,0.19531 0.42969,0.19531 0.74219,0.52734 0.33203,0.3125 0.50781,0.76172 0.19531,0.44922 0.19531,0.9375 z"
           style="fill:#000000;fill-opacity:1"
           id="path4158"
           inkscape:connector-curvature="0" />
      </g>
    </g>
  </g>
</svg>
