<?xml version="1.0" encoding="UTF-8" standalone="no"?>
<!-- Created with Inkscape (http://www.inkscape.org/) -->

<svg
   xmlns:dc="http://purl.org/dc/elements/1.1/"
   xmlns:cc="http://creativecommons.org/ns#"
   xmlns:rdf="http://www.w3.org/1999/02/22-rdf-syntax-ns#"
   xmlns:svg="http://www.w3.org/2000/svg"
   xmlns="http://www.w3.org/2000/svg"
   xmlns:sodipodi="http://sodipodi.sourceforge.net/DTD/sodipodi-0.dtd"
   xmlns:inkscape="http://www.inkscape.org/namespaces/inkscape"
   width="450"
   height="325"
   viewBox="0 0 450.00001 325"
   id="svg5199"
   version="1.1"
   inkscape:version="0.92.3 (2405546, 2018-03-11)"
   sodipodi:docname="figure_alerts_door_rattles.svg">
  <defs
     id="defs5201" />
  <sodipodi:namedview
     id="base"
     pagecolor="#ffffff"
     bordercolor="#666666"
     borderopacity="1.0"
     inkscape:pageopacity="0.0"
     inkscape:pageshadow="2"
     inkscape:zoom="0.98994951"
     inkscape:cx="221.47495"
     inkscape:cy="235.49391"
     inkscape:document-units="px"
     inkscape:current-layer="layer1"
     showgrid="false"
     units="px"
     borderlayer="true"
     inkscape:window-width="1280"
     inkscape:window-height="961"
     inkscape:window-x="1912"
     inkscape:window-y="-8"
     inkscape:window-maximized="1" />
  <metadata
     id="metadata5204">
    <rdf:RDF>
      <cc:Work
         rdf:about="">
        <dc:format>image/svg+xml</dc:format>
        <dc:type
           rdf:resource="http://purl.org/dc/dcmitype/StillImage" />
        <dc:title />
      </cc:Work>
    </rdf:RDF>
  </metadata>
  <g
     inkscape:label="Layer 1"
     inkscape:groupmode="layer"
     id="layer1"
     transform="translate(0,-727.36216)">
    <path
       transform="matrix(5.9235285,0,0,5.927888,-2057.3158,-5651.2376)"
       d="m 395.48223,1093.1241 5.58135,9.6672 -5.58135,9.6671 -11.1627,0 -5.58135,-9.6671 5.58135,-9.6672 z"
       inkscape:randomized="0"
       inkscape:rounded="0"
       inkscape:flatsided="true"
       sodipodi:arg2="-0.52359878"
       sodipodi:arg1="-1.0471976"
       sodipodi:r2="9.6671848"
       sodipodi:r1="11.162703"
       sodipodi:cy="1102.7913"
       sodipodi:cx="389.90088"
       sodipodi:sides="6"
       id="path5084"
       style="font-style:normal;font-weight:normal;font-size:medium;line-height:125%;font-family:sans-serif;letter-spacing:0px;word-spacing:0px;fill:#b3b3b3;fill-opacity:1;stroke:#000000;stroke-width:0.84378105;stroke-linecap:butt;stroke-linejoin:round;stroke-miterlimit:4;stroke-dasharray:none;stroke-dashoffset:0;stroke-opacity:1"
       sodipodi:type="star" />
    <path
       id="path5086"
       d="m 356.5811,907.47266 c -4.53144,0 -7.79045,2.39918 -9.6727,5.41314 -1.68336,2.69491 -2.38372,5.82118 -2.52034,8.55954 -5.13693,2.54128 -10.82769,5.10423 -15.40939,7.72437 -2.40344,1.37475 -4.49884,2.75697 -6.07609,4.24248 -1.57726,1.48552 -2.74103,3.15865 -2.74103,5.13174 0,0.84 0.41021,1.52419 0.87107,2.02656 0.46267,0.50348 1.01606,0.89253 1.64673,1.25662 1.26128,0.72766 2.85141,1.33447 4.60064,1.8602 2.59856,0.78012 5.50876,1.36045 8.03916,1.60794 -2.51684,4.34049 -5.86627,8.32642 -8.80232,12.14541 -3.39305,4.41466 -6.35528,8.6481 -6.35528,13.35103 0,0.67153 -0.0162,1.19615 0.0535,1.72348 0.0594,0.53002 0.21092,1.18394 0.7401,1.70554 0.52943,0.5193 1.17766,0.6614 1.70561,0.7186 0.52786,0.058 1.05989,0.058 1.74218,0.058 h 18.7203 c 1.35889,0 2.35398,0.085 3.37762,-0.5751 1.02375,-0.6582 1.39706,-1.55754 2.12642,-2.90156 h 0.0162 l 0.0162,-0.0584 c 0,0 1.6318,-3.32027 3.57881,-6.61565 0.97339,-1.64663 2.03026,-3.28742 2.9495,-4.44965 0.46056,-0.58139 0.8902,-1.04246 1.19998,-1.30269 0.0948,-0.0742 0.13829,-0.0954 0.19873,-0.13255 0.0609,0.0584 0.10381,0.0584 0.19875,0.13255 0.30951,0.25969 0.74016,0.72078 1.19996,1.30269 0.91924,1.16223 1.97605,2.80302 2.94951,4.44965 1.9468,3.29538 3.57881,6.61565 3.57881,6.61565 l 0.0162,0.0584 h 0.0162 c 0.7294,1.34402 1.09928,2.23806 2.11629,2.89786 1.01675,0.6598 2.00972,0.5814 3.34948,0.5814 h 18.80273 c 0.6713,0 1.19493,0 1.71922,-0.058 0.52415,-0.058 1.17453,-0.2013 1.69857,-0.7281 0.52361,-0.53 0.66861,-1.17498 0.72664,-1.69967 0.0594,-0.51937 0.053,-1.04828 0.053,-1.7208 0,-4.70246 -2.96223,-8.93536 -6.35534,-13.35004 -2.93583,-3.81951 -6.28527,-7.80544 -8.80227,-12.14593 2.53047,-0.24909 5.44066,-0.82782 8.03916,-1.60794 1.74918,-0.52997 3.33937,-1.13202 4.60061,-1.8602 0.6307,-0.36039 1.18458,-0.75415 1.64646,-1.25603 0.46214,-0.50348 0.87138,-1.18715 0.87138,-2.02715 0,-1.97309 -1.16377,-3.6457 -2.74096,-5.13174 -1.57736,-1.48497 -3.67273,-2.86768 -6.07604,-4.24242 -4.58184,-2.62021 -10.27253,-5.18263 -15.40956,-7.72438 -0.13667,-2.73836 -0.83709,-5.86468 -2.52028,-8.55959 -1.88227,-3.01396 -5.14123,-5.41314 -9.67272,-5.41314 z"
       inkscape:connector-curvature="0"
       style="fill:#ffffff;stroke:none;stroke-opacity:1" />
    <path
       d="m 412.98949,1103.3571 5.58135,9.6672 -5.58135,9.6672 -11.1627,0 -5.58135,-9.6672 5.58135,-9.6672 z"
       inkscape:randomized="0"
       inkscape:rounded="0"
       inkscape:flatsided="true"
       sodipodi:arg2="-0.52359878"
       sodipodi:arg1="-1.0471976"
       sodipodi:r2="9.6671848"
       sodipodi:r1="11.162703"
       sodipodi:cy="1113.0243"
       sodipodi:cx="407.40814"
       sodipodi:sides="6"
       id="path5092"
       style="font-style:normal;font-weight:normal;font-size:medium;line-height:125%;font-family:sans-serif;letter-spacing:0px;word-spacing:0px;fill:#b3b3b3;fill-opacity:1;stroke:#000000;stroke-width:0.84378105;stroke-linecap:butt;stroke-linejoin:round;stroke-miterlimit:4;stroke-dasharray:none;stroke-dashoffset:0;stroke-opacity:1"
       sodipodi:type="star"
       transform="matrix(5.9235285,0,0,5.927888,-2056.2853,-5649.197)" />
    <path
       style="fill:#4d4d4d;fill-opacity:1;stroke:none;stroke-opacity:1"
       inkscape:connector-curvature="0"
       d="m 357.49782,913.25092 c -3.93453,0 -6.76425,2.08315 -8.39856,4.7001 -1.46162,2.33992 -2.06973,5.05439 -2.18835,7.43204 -4.46027,2.20653 -9.40142,4.43187 -13.3796,6.70688 -2.08684,1.19366 -3.90623,2.39381 -5.27572,3.68364 -1.36949,1.28984 -2.37996,2.74258 -2.37996,4.45576 0,0.72935 0.35617,1.32342 0.75632,1.75961 0.40173,0.43716 0.88222,0.77497 1.42982,1.0911 1.09514,0.63181 2.47581,1.15868 3.99462,1.61516 2.25627,0.67736 4.78312,1.18125 6.98021,1.39614 -2.18531,3.76874 -5.09354,7.22962 -7.64284,10.54556 -2.9461,3.83314 -5.51813,7.50893 -5.51813,11.59237 0,0.58307 -0.0141,1.03858 0.0464,1.49645 0.0516,0.46021 0.18313,1.02799 0.64261,1.48088 0.45969,0.4509 1.02253,0.57428 1.48094,0.62394 0.45833,0.0504 0.92027,0.0504 1.51269,0.0504 h 16.25437 c 1.1799,0 2.04391,0.0738 2.93271,-0.49934 0.8889,-0.5715 1.21303,-1.35238 1.84632,-2.51935 h 0.0141 l 0.0141,-0.0507 c 0,0 1.41685,-2.88291 3.10739,-5.74421 0.84517,-1.42973 1.76283,-2.85438 2.56098,-3.86352 0.39989,-0.50481 0.77294,-0.90514 1.04191,-1.13109 0.0823,-0.0644 0.12008,-0.0828 0.17256,-0.11509 0.0529,0.0507 0.0901,0.0507 0.17256,0.11509 0.26874,0.22548 0.64267,0.62583 1.0419,1.13109 0.79815,1.00914 1.71576,2.43379 2.56099,3.86352 1.69036,2.8613 3.10739,5.74421 3.10739,5.74421 l 0.0141,0.0507 h 0.0141 c 0.63332,1.16697 0.95448,1.94325 1.83752,2.51614 0.88282,0.57288 1.74499,0.50481 2.90828,0.50481 h 16.32594 c 0.58288,0 1.03753,0 1.49276,-0.0504 0.45511,-0.0504 1.01981,-0.17478 1.47483,-0.63219 0.45463,-0.46019 0.58053,-1.02021 0.63092,-1.47578 0.0516,-0.45096 0.046,-0.9102 0.046,-1.49413 0,-4.08303 -2.57203,-7.75835 -5.51819,-11.59151 -2.54911,-3.31639 -5.45734,-6.77727 -7.64279,-10.54601 2.19714,-0.21628 4.72399,-0.71878 6.9802,-1.39614 1.51877,-0.46016 2.8995,-0.9829 3.9946,-1.61516 0.54762,-0.31292 1.02854,-0.65481 1.42958,-1.09058 0.40126,-0.43716 0.7566,-1.03078 0.7566,-1.76013 0,-1.71318 -1.01048,-3.16547 -2.37991,-4.45576 -1.36958,-1.28936 -3.18894,-2.48994 -5.27568,-3.68359 -3.9783,-2.27506 -8.91938,-4.49995 -13.37974,-6.70689 -0.11866,-2.37765 -0.72682,-5.09216 -2.18829,-7.43208 -1.63433,-2.61695 -4.46401,-4.7001 -8.39859,-4.7001 z"
       id="path5096" />
    <path
       style="fill:#000000;fill-opacity:1;stroke:none;stroke-width:0.99999994;stroke-opacity:1"
       id="path5102"
       d="m 194.15732,771.39397 c 18.14685,0.8328 36.95628,18.67866 37.38451,34.81157 l 14.61882,-4.65062 -18.94226,46.81602 -27.73296,-31.97661 15.8791,-5.04748 c 2.68678,-15.72696 -28.93288,-21.3691 -32.1615,-21.45889 -3.43671,-0.0956 -22.17847,-2.02649 -44.65437,14.81196 19.06631,-31.20667 32.94208,-34.34627 55.60866,-33.30595 z"
       inkscape:connector-curvature="0"
       sodipodi:nodetypes="scccccscs" />
    <g
       id="g4163"
       transform="matrix(-1.3880253,0,0,1.3880253,643.03261,-438.15345)">
      <circle
         r="45"
         cy="928.07642"
         cx="400.71429"
         id="path4151"
         style="fill:#000000;stroke:none;stroke-width:3;stroke-miterlimit:4;stroke-dasharray:none;stroke-opacity:1" />
      <path
         inkscape:connector-curvature="0"
         style="fill:#ffffff;fill-opacity:1"
         d="m 400.71429,896.83247 c 2.83886,0 4.7227,1.41745 7.24972,2.82167 2.39517,1.33142 5.40596,2.47258 9.65199,1.60564 2.01501,2.01471 4.06221,4.02984 6.24535,5.39477 1.78649,1.11717 3.79413,1.78267 5.79661,1.46791 -0.57456,4.52203 -3.31964,8.94522 -6.18917,11.26062 -7.56742,-2.50856 -15.1538,-3.76346 -22.74019,-3.76346 -7.59333,0 -15.18652,1.25738 -22.7609,3.7705 -2.87253,-2.31334 -5.62208,-6.74108 -6.19708,-11.26766 2.00206,0.31435 4.00999,-0.35158 5.79662,-1.4675 2.18314,-1.36534 4.23006,-3.38047 6.24535,-5.39518 4.2456,0.86694 7.25695,-0.27299 9.65185,-1.60524 2.52742,-1.40504 4.41113,-2.82207 7.24985,-2.82207 z m 0.0149,2.64257 c -2.67865,0 -7.18755,3.62078 -7.18755,3.62078 0,0 2.86859,10.86397 7.18755,10.86397 4.31925,0 7.18795,-10.86397 7.18795,-10.86397 0,0 -4.50931,-3.62078 -7.18795,-3.62078 z m 0,18.56919 c 7.13628,0 14.27297,1.16721 21.42669,3.48055 0.29478,1.82156 -0.20407,3.17531 -1.27708,4.42689 -1.19771,1.3972 -3.20823,2.58344 -5.59112,3.47685 -4.76648,1.78723 -10.94734,2.42006 -14.55863,2.42006 -3.61115,0 -9.79173,-0.63283 -14.55794,-2.42006 -2.3833,-0.89341 -4.39341,-2.07924 -5.59113,-3.47685 -1.07338,-1.25158 -1.57242,-2.60493 -1.27749,-4.42689 7.15374,-2.31334 14.29043,-3.48055 21.42656,-3.48055 z m 23.41689,7.72835 c 1.32767,0.32263 3.64075,1.05141 4.05621,2.29805 1.13596,3.40734 -2.28717,8.62757 -4.87596,11.92075 0.71326,-2.97594 1.09777,-6.14133 1.09777,-9.42295 0,-1.63046 -0.0954,-3.23197 -0.27806,-4.79585 z m -46.83325,0 a 41.349104,41.364178 0 0 0 -0.27798,4.79544 c 0,3.28203 0.3844,6.44742 1.09777,9.42336 -2.58879,-3.29318 -6.01192,-8.51341 -4.87596,-11.92075 0.41534,-1.24664 2.72868,-1.97625 4.05594,-2.29805 z m 44.61372,2.59253 c 0.0409,0.72715 0.0641,1.46131 0.0641,2.20291 0,8.02908 -2.45081,15.27558 -6.34039,20.46106 -3.88946,5.18588 -9.15212,8.29129 -14.92119,8.29129 -5.7688,0 -11.03159,-3.10541 -14.92091,-8.29129 -3.88931,-5.18548 -6.33998,-12.43157 -6.33998,-20.46106 0,-0.7416 0.0235,-1.47576 0.0641,-2.20332 1.10856,1.03528 2.46239,1.87575 3.95205,2.57392 -0.57717,2.46142 0.0359,5.52258 1.63542,7.12159 2.94344,2.94328 9.54439,2.94328 12.48797,0 0.91165,-0.91201 1.30271,-2.36462 1.25116,-3.82261 0.66691,0 1.29766,0.0579 1.87048,0.0579 0.57297,0 1.20387,0 1.8709,-0.0579 -0.0517,1.45799 0.33937,2.9106 1.25117,3.82261 2.94358,2.94328 9.5444,2.94328 12.48785,0 1.59941,-1.59901 2.21258,-4.66017 1.6354,-7.12117 1.48965,-0.69818 2.8439,-1.53824 3.95205,-2.57393 z m -21.19736,15.93861 c -3.12193,4.99479 -9.3655,5.61935 -12.48742,5.61935 3.12178,2.49741 12.48728,2.49741 12.48728,0 0,2.49741 9.36605,2.49741 12.48798,0 -3.12193,0 -9.36591,-0.62456 -12.48798,-5.61935 z"
         id="path15149" />
    </g>
    <circle
       r="31.467171"
       cy="883.56848"
       cx="249.95442"
       id="circle4163"
       style="fill:#000000;stroke:none;stroke-width:8.00982475;stroke-miterlimit:4;stroke-dasharray:none;stroke-opacity:1" />
    <g
       style="font-style:normal;font-weight:normal;font-size:48.97977448px;line-height:125%;font-family:sans-serif;letter-spacing:0px;word-spacing:0px;fill:#ffffff;fill-opacity:1;stroke:none;stroke-width:1px;stroke-linecap:butt;stroke-linejoin:miter;stroke-opacity:1"
       id="text3340"
       transform="matrix(1.0666666,0,0,1.0666666,213.83137,-205.44242)">
      <path
         d="m 45.225419,1016.332 q 0.669646,0 1.291459,0.2631 0.621814,0.263 1.076216,0.7174 0.478318,0.4305 0.741393,1.0284 0.286991,0.574 0.286991,1.2197 v 18.0087 q 0,0.6936 -0.263075,1.2915 -0.239159,0.5979 -0.693561,1.0523 -0.454402,0.4783 -1.0523,0.7414 -0.597898,0.263 -1.267543,0.263 H 22.457477 q -0.693561,0 -1.315374,-0.263 -0.597898,-0.2631 -1.0523,-0.7414 -0.454402,-0.4544 -0.717477,-1.0523 -0.263075,-0.5979 -0.263075,-1.2915 v -18.0087 q 0,-0.6457 0.263075,-1.2197 0.28699,-0.5979 0.741393,-1.0284 0.478318,-0.4544 1.076215,-0.7174 0.597898,-0.2631 1.267543,-0.2631 v -3.8744 q 0,-2.4394 0.406571,-4.544 0.40657,-2.1046 1.626281,-3.6352 1.243627,-1.5546 3.467807,-2.4155 2.248095,-0.8849 5.907228,-0.8849 3.68305,0 5.907229,0.8849 2.248095,0.8609 3.44389,2.4155 1.219712,1.5306 1.602366,3.6352 0.40657,2.1046 0.40657,4.544 z m -17.889097,-3.8744 v 3.7548 h 13.058085 v -3.7548 q 0,-1.8176 -0.143496,-3.0612 -0.143495,-1.2676 -0.789225,-2.0329 -0.621813,-0.7653 -1.937188,-1.1001 -1.315375,-0.3348 -3.659134,-0.3348 -2.319842,0 -3.635217,0.3348 -1.291459,0.3348 -1.937189,1.1001 -0.645729,0.7653 -0.81314,2.0329 -0.143496,1.2436 -0.143496,3.0612 z"
         id="path3583"
         inkscape:connector-curvature="0"
         style="fill:#ffffff" />
    </g>
  </g>
</svg>
