<?xml version="1.0" encoding="UTF-8" standalone="no"?>
<!-- Created with Inkscape (http://www.inkscape.org/) -->

<svg
   xmlns:dc="http://purl.org/dc/elements/1.1/"
   xmlns:cc="http://creativecommons.org/ns#"
   xmlns:rdf="http://www.w3.org/1999/02/22-rdf-syntax-ns#"
   xmlns:svg="http://www.w3.org/2000/svg"
   xmlns="http://www.w3.org/2000/svg"
   xmlns:sodipodi="http://sodipodi.sourceforge.net/DTD/sodipodi-0.dtd"
   xmlns:inkscape="http://www.inkscape.org/namespaces/inkscape"
   width="450"
   height="325"
   viewBox="0 0 450.00001 325"
   id="svg5199"
   version="1.1"
   inkscape:version="0.91 r13725"
   sodipodi:docname="figure_alerts_on_disabled.svg">
  <defs
     id="defs5201" />
  <sodipodi:namedview
     id="base"
     pagecolor="#ffffff"
     bordercolor="#666666"
     borderopacity="1.0"
     inkscape:pageopacity="0.0"
     inkscape:pageshadow="2"
     inkscape:zoom="1.979899"
     inkscape:cx="175.87492"
     inkscape:cy="131.74591"
     inkscape:document-units="px"
     inkscape:current-layer="layer1"
     showgrid="false"
     units="px"
     borderlayer="true"
     inkscape:window-width="1920"
     inkscape:window-height="1017"
     inkscape:window-x="-8"
     inkscape:window-y="-8"
     inkscape:window-maximized="1" />
  <metadata
     id="metadata5204">
    <rdf:RDF>
      <cc:Work
         rdf:about="">
        <dc:format>image/svg+xml</dc:format>
        <dc:type
           rdf:resource="http://purl.org/dc/dcmitype/StillImage" />
        <dc:title></dc:title>
      </cc:Work>
    </rdf:RDF>
  </metadata>
  <g
     inkscape:label="Layer 1"
     inkscape:groupmode="layer"
     id="layer1"
     transform="translate(0,-727.36216)">
    <g
       id="g3433"
       transform="translate(29.7995,-33.84011)">
      <g
         transform="translate(241.39534,-47.053878)"
         id="g4159">
        <circle
           r="45"
           cy="928.07642"
           cx="53.57143"
           id="circle4153"
           style="fill:#000000;stroke:none;stroke-width:3;stroke-miterlimit:4;stroke-dasharray:none;stroke-opacity:1" />
        <path
           id="path15143"
           d="m 68.153056,931.9504 c -3.255924,0.43694 -7.397249,0.74381 -12.620705,0.92218 -3.314393,0.11307 -7.03157,0.16963 -11.050373,0.16963 -5.060116,0 -9.569507,-0.0874 -12.360777,-0.15421 a 29.687347,29.685409 0 0 0 1.266172,8.32264 c 3.189489,10.65119 11.563824,17.85892 19.898836,17.85892 a 14.083316,14.082398 0 0 0 4.051343,-0.58703 c 9.246686,-2.76855 13.953988,-14.50436 10.815504,-26.52648 z m -23.099335,12.41484 -1.931632,-1.17301 -0.853714,1.49789 -2.239183,-1.28046 0.89201,-1.55391 -1.991608,-1.21003 1.340048,-2.20467 1.931789,1.17353 0.853722,-1.49788 2.239193,1.28045 -0.892019,1.55441 1.991441,1.20952 z m 13.983976,-3.67222 -1.931974,-1.17354 -0.853529,1.49687 -2.239192,-1.27891 0.887612,-1.56112 -1.991608,-1.20745 1.344455,-2.20621 1.931789,1.17353 0.853547,-1.49788 2.239017,1.28044 -0.89201,1.55441 1.991784,1.20953 z m 17.324966,-32.32833 3.129843,2.60717 3.459602,-2.14453 -1.513739,3.77914 3.109836,2.6272 -4.061333,-0.27243 -1.54222,3.76885 -0.99554,-3.94722 -4.060158,-0.29814 3.43842,-2.16612 z m -0.03245,-11.21455 0.296027,2.5429 2.506404,0.52585 -2.327289,1.06661 0.284513,2.54496 -1.736917,-1.88341 -2.334248,1.05171 1.254649,-2.22884 -1.721337,-1.89677 2.510823,0.50889 z m -50.226122,-0.0669 2.621816,3.11039 3.782584,-1.50508 -2.152254,3.45993 2.600297,3.12941 -3.951875,-0.97768 -2.179366,3.44091 -0.28436,-4.05929 -3.946277,-1.00595 3.772587,-1.53027 z m 50.226122,29.20405 c -0.648491,1.80116 -3.635853,3.7195 -20.871668,4.30602 -3.681586,0.12337 -7.464182,0.16449 -10.973604,0.16449 -5.96196,0 -17.241263,-0.17478 -17.241263,-0.17478 l 0,-2.27611 c 0,0 11.305059,0.17477 17.242612,0.17477 3.434198,0 7.129851,-0.0615 10.730448,-0.15935 5.51525,-0.18506 9.947871,-0.52585 13.175674,-1.0111 4.846596,-0.7325 5.663196,-1.59761 5.779951,-1.76981 -0.03391,-0.0822 -0.173701,-0.33412 -0.691547,-0.74379 -1.442405,-1.13807 -4.058468,-2.27611 -7.582131,-3.33451 a 28.793977,28.792101 0 0 0 -2.355772,-3.01785 c 0.284464,0.0719 0.569055,0.14392 0.836433,0.21588 5.003191,1.33133 8.535475,2.79323 10.509987,4.34663 0.926063,0.73713 1.931768,1.90088 1.44086,3.27693 z m -43.360972,-0.2159 c 0.213528,-1.04246 1.25787,-3.76938 1.765557,-4.54042 8.01611,0.55001 21.459348,-2.23603 25.091115,-3.57918 2.163442,1.88496 4.652917,5.09814 5.776921,7.42361 -8.152514,0.92782 -22.67977,0.94632 -32.637653,0.69752 z m 2.759756,-10.25435 c -1.433931,-0.0874 -4.798137,-0.29815 -6.067023,0.28271 1.688456,1.59452 10.668925,1.77237 18.241389,0.7001 8.117093,-1.14936 15.64821,-3.05283 20.067949,-6.064 1.840965,-1.25475 2.813809,-3.08879 2.637577,-3.90148 -0.896428,-4.14872 -24.769493,-5.61319 -24.769493,-5.61319 0,0 25.362573,0.52532 25.550339,5.61114 0.202007,5.45694 -11.684985,9.64472 -23.107976,11.42686 -10.849734,1.6927 -21.251592,1.81092 -20.712392,-2.66472 0.31294,-2.59996 7.301839,-2.11472 10.326285,-1.77084 -0.600391,0.41637 -1.699984,1.50251 -2.170727,1.99289 z m 10.794498,-2.72128 a 15.11894,15.117955 0 0 1 6.057357,0.65384 c -1.810968,0.44722 -8.292141,1.32466 -12.114724,1.42231 3.01733,-1.83866 5.518163,-2.01087 6.053124,-2.07512 z"
           style="fill:#ffffff;fill-opacity:1"
           inkscape:connector-curvature="0" />
      </g>
      <path
         style="fill:#4d4d4d;fill-opacity:1;stroke:#ffffff;stroke-width:3;stroke-miterlimit:4;stroke-dasharray:none;stroke-opacity:1"
         inkscape:connector-curvature="0"
         d="m 219.01147,792.41575 c -5.63942,0 -9.69562,2.9877 -12.03822,6.74008 -2.09487,3.35518 -2.96637,7.24755 -3.13624,10.65589 -6.39337,3.16519 -13.47576,6.35539 -19.17781,9.61753 -2.9914,1.7116 -5.59919,3.43339 -7.56207,5.2834 -1.96292,1.84922 -3.41154,3.93223 -3.41154,6.38899 0,1.04463 0.51011,1.89691 1.08437,2.52245 0.57534,0.63335 1.26406,1.11031 2.04924,1.56303 1.5698,0.90311 3.54891,1.66312 5.7255,2.3168 3.23445,0.97194 6.85609,1.69441 10.00519,2.00327 -3.13184,5.403 -7.30069,10.36581 -10.95455,15.1214 -4.22298,5.49605 -7.90981,10.76693 -7.90981,16.62188 0,0.83744 -0.0251,1.48875 0.0642,2.1448 0.0773,0.64898 0.26187,1.47546 0.92099,2.12366 0.65916,0.649 1.46567,0.81787 2.12271,0.90232 0.65728,0.10943 1.31926,0 2.16834,0 l 23.29794,0 c 1.69146,0 2.93004,0.10943 4.20392,-0.71153 1.27415,-0.81787 1.73889,-1.93916 2.64647,-3.61243 l 0.0251,0 0.025,-0.10943 c 0,0 2.03069,-4.13319 4.45369,-8.23668 1.21149,-2.05095 2.52687,-4.09407 3.6711,-5.54061 0.57251,-0.71155 1.10761,-1.2972 1.49325,-1.6217 0.11864,-0.10943 0.1727,-0.10943 0.24748,-0.16413 0.0773,0 0.1289,0 0.24748,0.16413 0.38562,0.32841 0.921,0.89295 1.49323,1.6217 1.14421,1.44654 2.45934,3.48966 3.67085,5.54061 2.423,4.10349 4.45418,8.23668 4.45418,8.23668 l 0.0251,0.10943 0.0251,0 c 0.90793,1.67327 1.36798,2.78595 2.63387,3.60852 1.2651,0.81866 2.50113,0.71153 4.16835,0.71153 l 23.40105,0 c 0.8354,0 1.48705,0 2.1397,-0.10943 0.65244,-0.10943 1.46179,-0.24238 2.11396,-0.91249 0.65164,-0.64897 0.83201,-1.46372 0.90416,-2.11663 0.0749,-0.64898 0.0642,-1.3058 0.0642,-2.14244 0,-5.85417 -3.68683,-11.12661 -7.90981,-16.62188 -3.65409,-4.7548 -7.82217,-9.71917 -10.95483,-15.12139 3.14941,-0.31277 6.77104,-1.03056 10.00521,-2.00248 2.17685,-0.64899 4.15597,-1.40902 5.72551,-2.31603 0.7852,-0.45351 1.47441,-0.93985 2.04924,-1.56383 0.57478,-0.63334 1.08471,-1.47781 1.08471,-2.52322 0,-2.45677 -1.44865,-4.5398 -3.41154,-6.38821 -1.96289,-1.8508 -4.57096,-3.5718 -7.56208,-5.28261 -5.70204,-3.26214 -12.78445,-6.45313 -19.17806,-9.61829 -0.17002,-3.40837 -1.04165,-7.3015 -3.13625,-10.65669 -2.34258,-3.75161 -6.39855,-6.73852 -12.03822,-6.73852 z"
         id="path4157" />
      <g
         transform="matrix(0.75657887,0,0,0.75657887,39.307852,217.53548)"
         id="g3383">
        <path
           inkscape:connector-curvature="0"
           id="path14021"
           style="font-style:normal;font-weight:normal;font-size:medium;line-height:125%;font-family:sans-serif;letter-spacing:0px;word-spacing:0px;fill:#000000;fill-opacity:1;stroke:none;stroke-width:1px;stroke-linecap:butt;stroke-linejoin:miter;stroke-opacity:1"
           d="m 110.60523,866.68519 -95.011715,0 q -0.993345,0 -1.811409,-0.58336 -0.759647,-0.58336 -1.227104,-1.40004 -0.467471,-0.81668 -0.467471,-1.75007 0,-0.87508 0.467471,-1.80844 l 47.447445,-84.12041 q 0.46745,-0.8167 1.28549,-1.22504 0.81805,-0.40856 1.75299,-0.40856 0.93493,0 1.753,0.40856 0.81805,0.40854 1.28553,1.22504 l 47.564243,84.12041 q 0.46748,0.93336 0.46748,1.80844 0,0.93339 -0.46748,1.75007 -0.46745,0.81668 -1.2855,1.40004 -0.75962,0.58336 -1.75297,0.58336 z m -88.934705,-7.46697 82.740835,0 -41.370433,-73.15331 -41.370402,73.15331 z m 46.804652,-21.23433 -10.86848,0 0,-32.37642 10.86848,0 0,32.37642 z m 1.63612,10.61718 q 0,1.51671 -0.58431,2.80011 -0.52592,1.2834 -1.51926,2.27513 -0.93493,0.93337 -2.22045,1.51671 -1.28554,0.52502 -2.74635,0.52502 -1.46082,0 -2.74635,-0.52502 -1.28549,-0.58334 -2.22042,-1.51671 -0.93493,-0.99173 -1.46084,-2.27513 -0.5259,-1.2834 -0.5259,-2.80011 0,-1.4584 0.5259,-2.80014 0.52591,-1.34175 1.46084,-2.27512 0.93493,-0.99169 2.22042,-1.57504 1.28553,-0.58335 2.74635,-0.58335 1.46081,0 2.74635,0.58335 1.28552,0.58335 2.22045,1.57504 0.99334,0.93337 1.51926,2.27512 0.58431,1.34174 0.58431,2.80014 z" />
        <text
           xml:space="preserve"
           style="font-style:normal;font-weight:normal;font-size:118.33239746px;line-height:125%;font-family:sans-serif;letter-spacing:0px;word-spacing:0px;fill:#000000;fill-opacity:1;stroke:none;stroke-width:1px;stroke-linecap:butt;stroke-linejoin:miter;stroke-opacity:1"
           x="114.7237"
           y="853.3183"
           id="text14023"
           sodipodi:linespacing="125%"
           transform="scale(1.0000136,0.99998641)"><tspan
             sodipodi:role="line"
             id="tspan14025"
             x="114.7237"
             y="853.3183">:</tspan></text>
      </g>
    </g>
    <g
       id="g3420"
       transform="translate(29.7995,-10.101525)">
      <circle
         r="45"
         cy="992.13934"
         cx="294.96677"
         id="circle3390"
         style="fill:#000000;stroke:none;stroke-width:3;stroke-miterlimit:4;stroke-dasharray:none;stroke-opacity:1" />
      <path
         id="path3394"
         d="m 219.01147,903.53253 c -5.63942,0 -9.69562,2.9877 -12.03822,6.74008 -2.09487,3.35518 -2.96637,7.24755 -3.13624,10.65589 -6.39337,3.16519 -13.47576,6.35539 -19.17781,9.61753 -2.9914,1.7116 -5.59919,3.43339 -7.56207,5.2834 -1.96292,1.84922 -3.41154,3.93223 -3.41154,6.38899 0,1.04463 0.51011,1.89691 1.08437,2.52245 0.57534,0.63335 1.26406,1.11031 2.04924,1.56303 1.5698,0.90311 3.54891,1.66312 5.7255,2.3168 3.23445,0.97194 6.85609,1.69441 10.00519,2.00327 -3.13184,5.403 -7.30069,10.36581 -10.95455,15.1214 -4.22298,5.49605 -7.90981,10.76693 -7.90981,16.62188 0,0.83744 -0.0251,1.48875 0.0642,2.1448 0.0773,0.64898 0.26187,1.47546 0.92099,2.12366 0.65916,0.649 1.46567,0.81787 2.12271,0.90232 0.65728,0.10943 1.31926,0 2.16834,0 l 23.29794,0 c 1.69146,0 2.93004,0.10943 4.20392,-0.71153 1.27415,-0.81787 1.73889,-1.93916 2.64647,-3.61243 l 0.0251,0 0.025,-0.10943 c 0,0 2.03069,-4.13319 4.45369,-8.23668 1.21149,-2.05095 2.52687,-4.09407 3.6711,-5.54061 0.57251,-0.71155 1.10761,-1.2972 1.49325,-1.6217 0.11864,-0.10943 0.1727,-0.10943 0.24748,-0.16413 0.0773,0 0.1289,0 0.24748,0.16413 0.38562,0.32841 0.921,0.89295 1.49323,1.6217 1.14421,1.44654 2.45934,3.48966 3.67085,5.54061 2.423,4.10349 4.45418,8.23668 4.45418,8.23668 l 0.0251,0.10943 0.0251,0 c 0.90793,1.67327 1.36798,2.78595 2.63387,3.60852 1.2651,0.81866 2.50113,0.71153 4.16835,0.71153 l 23.40105,0 c 0.8354,0 1.48705,0 2.1397,-0.10943 0.65244,-0.10943 1.46179,-0.24238 2.11396,-0.91249 0.65164,-0.64897 0.83201,-1.46372 0.90416,-2.11663 0.0749,-0.64898 0.0642,-1.3058 0.0642,-2.14244 0,-5.85417 -3.68683,-11.12661 -7.90981,-16.62188 -3.65409,-4.7548 -7.82217,-9.71917 -10.95483,-15.12139 3.14941,-0.31277 6.77104,-1.03056 10.00521,-2.00248 2.17685,-0.64899 4.15597,-1.40902 5.72551,-2.31603 0.7852,-0.45351 1.47441,-0.93985 2.04924,-1.56383 0.57478,-0.63334 1.08471,-1.47781 1.08471,-2.52322 0,-2.45677 -1.44865,-4.5398 -3.41154,-6.38821 -1.96289,-1.8508 -4.57096,-3.5718 -7.56208,-5.28261 -5.70204,-3.26214 -12.78445,-6.45313 -19.17806,-9.61829 -0.17002,-3.40837 -1.04165,-7.3015 -3.13625,-10.65669 -2.34258,-3.75161 -6.39855,-6.73852 -12.03822,-6.73852 z"
         inkscape:connector-curvature="0"
         style="fill:#4d4d4d;fill-opacity:1;stroke:#ffffff;stroke-width:3;stroke-miterlimit:4;stroke-dasharray:none;stroke-opacity:1" />
      <g
         id="g3396"
         transform="matrix(0.75657887,0,0,0.75657887,39.307852,328.65226)">
        <path
           d="m 110.60523,866.68519 -95.011715,0 q -0.993345,0 -1.811409,-0.58336 -0.759647,-0.58336 -1.227104,-1.40004 -0.467471,-0.81668 -0.467471,-1.75007 0,-0.87508 0.467471,-1.80844 l 47.447445,-84.12041 q 0.46745,-0.8167 1.28549,-1.22504 0.81805,-0.40856 1.75299,-0.40856 0.93493,0 1.753,0.40856 0.81805,0.40854 1.28553,1.22504 l 47.564243,84.12041 q 0.46748,0.93336 0.46748,1.80844 0,0.93339 -0.46748,1.75007 -0.46745,0.81668 -1.2855,1.40004 -0.75962,0.58336 -1.75297,0.58336 z m -88.934705,-7.46697 82.740835,0 -41.370433,-73.15331 -41.370402,73.15331 z m 46.804652,-21.23433 -10.86848,0 0,-32.37642 10.86848,0 0,32.37642 z m 1.63612,10.61718 q 0,1.51671 -0.58431,2.80011 -0.52592,1.2834 -1.51926,2.27513 -0.93493,0.93337 -2.22045,1.51671 -1.28554,0.52502 -2.74635,0.52502 -1.46082,0 -2.74635,-0.52502 -1.28549,-0.58334 -2.22042,-1.51671 -0.93493,-0.99173 -1.46084,-2.27513 -0.5259,-1.2834 -0.5259,-2.80011 0,-1.4584 0.5259,-2.80014 0.52591,-1.34175 1.46084,-2.27512 0.93493,-0.99169 2.22042,-1.57504 1.28553,-0.58335 2.74635,-0.58335 1.46081,0 2.74635,0.58335 1.28552,0.58335 2.22045,1.57504 0.99334,0.93337 1.51926,2.27512 0.58431,1.34174 0.58431,2.80014 z"
           style="font-style:normal;font-weight:normal;font-size:medium;line-height:125%;font-family:sans-serif;letter-spacing:0px;word-spacing:0px;fill:#000000;fill-opacity:1;stroke:none;stroke-width:1px;stroke-linecap:butt;stroke-linejoin:miter;stroke-opacity:1"
           id="path3398"
           inkscape:connector-curvature="0" />
        <text
           transform="scale(1.0000136,0.99998641)"
           sodipodi:linespacing="125%"
           id="text3400"
           y="853.3183"
           x="114.7237"
           style="font-style:normal;font-weight:normal;font-size:118.33239746px;line-height:125%;font-family:sans-serif;letter-spacing:0px;word-spacing:0px;fill:#000000;fill-opacity:1;stroke:none;stroke-width:1px;stroke-linecap:butt;stroke-linejoin:miter;stroke-opacity:1"
           xml:space="preserve"><tspan
             y="853.3183"
             x="114.7237"
             id="tspan3402"
             sodipodi:role="line">:</tspan></text>
      </g>
      <g
         style="fill:#ffffff;fill-opacity:1"
         id="g11398"
         transform="matrix(1.6609639,0,0,1.6637214,-600.49118,-49.644631)">
        <path
           sodipodi:nodetypes="ccccccccscccccccccsccccccsccccccccccccccccscccscccssccccccccc"
           d="m 525.65901,625.00231 1.94807,9.9888 -7.17953,1.5595 c -0.26665,0.0574 -0.4583,0.29137 -0.46207,0.5641 l -0.0654,4.7112 c -0.006,0.3994 0.38172,0.68693 0.76242,0.566 l 9.02373,-2.8841 1.48619,-0.2882 c 0.0109,2e-4 0.0217,8e-4 0.0326,8e-4 0.61338,0 1.19103,-0.2922 1.59444,-0.7684 0.40311,-0.4759 0.61399,-1.096 0.61338,-1.7349 l 0,0 c 3.2e-4,-0.405 -0.0845,-0.8032 -0.24921,-1.1616 l -1.55704,-8.0443 z m 1.30079,0.5469 0.9866,0.416 1.83175,8.5978 c -0.18513,-0.057 -0.37846,-0.087 -0.57555,-0.087 -0.16782,0 -0.33269,0.023 -0.49212,0.064 l -1.75068,-8.9909 z m 2.30127,0.9702 1.0484,0.442 1.417,7.321 c -0.16831,-0.046 -0.34278,-0.071 -0.52041,-0.071 -0.10122,0 -0.20121,0.01 -0.29973,0.024 l -1.6452,-7.7159 z m 1.94493,8.8665 c 0.23799,0 0.50876,0.1218 0.70678,0.3556 0.19807,0.2338 0.33472,0.6093 0.33417,0.9731 6.2e-4,0.3638 -0.13616,0.7393 -0.33411,0.9731 -0.094,0.1109 -0.20429,0.1957 -0.31963,0.2552 l -0.37846,0.073 c 0.12974,-0.3249 0.19616,-0.6778 0.19579,-1.0367 l 0,0 c 2.5e-4,-0.2325 -0.0278,-0.4627 -0.0827,-0.6843 0.002,-0.0465 -0.002,-0.093 -0.0119,-0.1385 l -0.16363,-0.7675 0.0536,0 z m -2.0034,0.2649 c 0.23806,0 0.50889,0.1218 0.70696,0.3556 0.19802,0.2338 0.33455,0.6094 0.33405,0.9732 6.4e-4,0.3638 -0.13616,0.7393 -0.33411,0.9731 -0.19807,0.2338 -0.46884,0.3557 -0.70696,0.3557 -0.23799,0 -0.50723,-0.122 -0.70524,-0.3557 -0.198,-0.2338 -0.33626,-0.6093 -0.33576,-0.9731 -6.4e-4,-0.3638 0.13776,-0.7394 0.33576,-0.9732 0.19801,-0.2338 0.46725,-0.3556 0.70524,-0.3556 z m -2.12526,0.6524 c -0.0536,0.2193 -0.0811,0.4467 -0.0808,0.6764 l 0,0 c -6.3e-4,0.6388 0.21009,1.259 0.6132,1.7349 0.0516,0.061 0.10614,0.1189 0.16313,0.1735 l -6.68979,2.1381 0.0482,-3.4328 5.94611,-1.2917 z"
           id="path11400"
           inkscape:connector-curvature="0"
           style="fill:#ffffff;fill-opacity:1;stroke-linecap:round;stroke-linejoin:round" />
        <path
           sodipodi:nodetypes="cccccccccccccccccccccccccccccccccccccccccccccccccccccccccccccccccccccccccccccccccccccccc"
           style="fill:#ffffff;fill-opacity:1;stroke-linecap:round;stroke-linejoin:round"
           inkscape:connector-curvature="0"
           id="path11402"
           d="m 557.57911,623.18801 c 0.36275,-0.83791 0.62263,-1.77224 0.75319,-2.81716 l 0.004,-0.008 c 10e-4,-0.0107 0.002,-0.0215 0.002,-0.0324 4.3e-4,-0.009 8.9e-4,-0.0172 3.5e-4,-0.026 3e-4,-0.0108 -5.1e-4,-0.0215 -10e-4,-0.0322 -5e-4,-0.009 -0.001,-0.0178 -0.002,-0.0265 -6.2e-4,-0.0112 -0.003,-0.022 -0.004,-0.0329 -0.002,-0.008 -0.003,-0.0166 -0.004,-0.0249 -0.002,-0.0106 -0.005,-0.0218 -0.008,-0.0325 -0.002,-0.008 -0.004,-0.0165 -0.007,-0.0246 -0.003,-0.0101 -0.007,-0.0209 -0.0105,-0.0311 -0.003,-0.008 -0.006,-0.016 -0.009,-0.0239 -0.004,-0.0105 -0.009,-0.0206 -0.0139,-0.0309 -0.004,-0.007 -0.007,-0.0142 -0.0105,-0.0211 -0.005,-0.01 -0.0118,-0.0208 -0.0182,-0.0309 -0.004,-0.007 -0.008,-0.0133 -0.0122,-0.0197 -0.007,-0.009 -0.0129,-0.0186 -0.0197,-0.0275 -0.005,-0.006 -0.0102,-0.0131 -0.0155,-0.0197 -0.007,-0.009 -0.0148,-0.0173 -0.0228,-0.0254 -0.006,-0.006 -0.0113,-0.0125 -0.0171,-0.0183 -0.008,-0.008 -0.0163,-0.0158 -0.025,-0.0228 -0.006,-0.006 -0.0122,-0.0118 -0.0188,-0.0169 -0.0112,-0.009 -0.0224,-0.0184 -0.0344,-0.0263 l -5.78328,-4.00456 c -0.2286,-0.15826 -0.537,-0.13378 -0.73783,0.0584 l -3.96138,3.79236 -4.66387,4.4628 -6.07429,5.81523 -0.004,0.009 c -0.008,0.009 -0.0162,0.0173 -0.0244,0.0261 -0.006,0.005 -0.0121,0.0103 -0.0177,0.0159 -0.008,0.009 -0.0152,0.0176 -0.0225,0.0268 -0.007,0.006 -0.0132,0.0129 -0.0194,0.0196 -0.004,0.009 -0.008,0.0182 -0.0118,0.0274 -0.004,0.009 -0.008,0.0181 -0.0118,0.0273 -0.004,0.008 -0.007,0.0162 -0.0105,0.0243 -0.005,0.01 -0.009,0.0201 -0.0135,0.0303 -0.003,0.006 -0.006,0.0138 -0.008,0.0208 l -1.7414,4.84541 c -0.0714,0.20056 -0.0283,0.42406 0.11254,0.58366 l 4.81212,5.47273 4.8e-4,9e-4 9e-5,4e-5 -7.9e-4,0.002 c 0.23004,0.26662 0.64179,0.27106 0.87765,0.01 0.43184,-0.33592 0.79694,-0.71601 1.10321,-1.13088 l 14.28632,-14.48689 c 0.0119,-0.0125 0.0234,-0.0255 0.0343,-0.039 0.54305,-0.65902 1.00914,-1.40032 1.3721,-2.23819 z m -0.13161,-1.82549 c -0.0304,0.0717 -0.0748,0.13666 -0.13056,0.19102 l -13.70048,13.59064 c -0.202,0.20058 -0.51898,0.2269 -0.75129,0.0624 -0.0196,-0.027 -0.0414,-0.0523 -0.0653,-0.0757 l -0.0966,-0.0979 c -0.14082,-0.23136 -0.10467,-0.52909 0.0874,-0.72002 l 13.70231,-13.58979 c 0.45343,-0.45681 1.20468,0.0465 0.95474,0.63959 z m -15.99774,17.0647 c -0.10761,0.24881 -0.24246,0.48248 -0.39947,0.70441 l -0.68395,0.69358 -2.25485,-2.56415 c 0.20714,0.15083 0.42328,0.27558 0.6377,0.3655 0.49608,0.20803 0.97377,0.22383 1.29804,0.0349 0.32428,-0.18899 0.48265,-0.5758 0.43565,-1.04499 -0.012,-0.11593 -0.0358,-0.23734 -0.0708,-0.35995 0.0318,0.0549 0.0682,0.10936 0.11073,0.16113 0.12119,0.14754 0.28149,0.27267 0.44215,0.34027 0.16105,0.0675 0.31957,0.0748 0.42853,0.0133 0.0547,-0.0306 0.0949,-0.0758 0.11866,-0.13328 0.024,-0.0574 0.0321,-0.12719 0.024,-0.20148 -0.0173,-0.14891 -0.0993,-0.31681 -0.22068,-0.46464 -0.12165,-0.14773 -0.28135,-0.27272 -0.44241,-0.34017 -0.16095,-0.0674 -0.31947,-0.0748 -0.4285,-0.0134 -0.10838,0.0616 -0.15806,0.18657 -0.14445,0.33396 -0.11792,-0.28031 -0.28661,-0.56337 -0.49693,-0.82524 -0.38016,-0.47375 -0.88619,-0.86836 -1.38245,-1.07623 -0.49608,-0.20803 -0.97697,-0.22121 -1.30126,-0.0322 -0.32435,0.1889 -0.47944,0.5729 -0.43224,1.04212 0.0297,0.2933 0.13748,0.61593 0.30703,0.93226 l -0.80078,-0.9109 1.30851,-3.64611 4.31319,4.36623 c 0.08,1.01699 -0.0405,1.88025 -0.36953,2.62337 z" />
        <path
           sodipodi:nodetypes="cccccccc"
           id="path11404"
           d="m 526.02681,607.50554 1.12689,7.14648 -2.91854,-0.74553 4.51983,9.87315 -1.12792,-7.14503 2.91969,0.7441 -4.52014,-9.8733 z"
           inkscape:connector-curvature="0"
           style="fill:#ffffff;fill-opacity:1" />
        <path
           style="fill:#ffffff;fill-opacity:1"
           inkscape:connector-curvature="0"
           d="m 542.72268,609.72784 -4.0292,6.00895 -1.6347,-2.5301 -3.39261,10.31495 4.02745,-6.00861 1.63652,2.52986 3.39248,-10.31527 z"
           id="path11406"
           sodipodi:nodetypes="cccccccc" />
      </g>
    </g>
  </g>
</svg>
