<?xml version="1.0" encoding="UTF-8" standalone="no"?>
<!-- Created with Inkscape (http://www.inkscape.org/) -->

<svg
   xmlns:dc="http://purl.org/dc/elements/1.1/"
   xmlns:cc="http://creativecommons.org/ns#"
   xmlns:rdf="http://www.w3.org/1999/02/22-rdf-syntax-ns#"
   xmlns:svg="http://www.w3.org/2000/svg"
   xmlns="http://www.w3.org/2000/svg"
   xmlns:sodipodi="http://sodipodi.sourceforge.net/DTD/sodipodi-0.dtd"
   xmlns:inkscape="http://www.inkscape.org/namespaces/inkscape"
   width="250"
   height="200"
   viewBox="0 0 250 200"
   id="svg11777"
   version="1.1"
   inkscape:version="0.91 r13725"
   sodipodi:docname="figure_escape.svg">
  <defs
     id="defs11779">
    <filter
       inkscape:label="Linen Canvas"
       inkscape:menu="Bumps"
       inkscape:menu-tooltip="Painting canvas emboss effect"
       style="color-interpolation-filters:sRGB"
       id="filter5738-7">
      <feTurbulence
         numOctaves="5"
         baseFrequency="0.4"
         id="feTurbulence5740-2" />
      <feConvolveMatrix
         order="5 5"
         kernelMatrix="-4 0 0 0 -4 0 -2 0 -2 0 0 0 -10 0 0 0 -2 0 -2 0 -4 0 0 0 -4 "
         targetX="2"
         targetY="2"
         id="feConvolveMatrix5742-7" />
      <feConvolveMatrix
         order="3 3"
         kernelMatrix="2 0 2 0 -5 0 2 0 2 "
         targetX="1"
         targetY="1"
         id="feConvolveMatrix5744-6" />
      <feColorMatrix
         type="saturate"
         result="result1"
         id="feColorMatrix5746-7" />
      <feComposite
         k4="0"
         in2="SourceGraphic"
         operator="arithmetic"
         k1="1.5"
         k2="0.5"
         k3="0.5"
         result="result2"
         id="feComposite5748-0" />
      <feBlend
         mode="normal"
         in2="result1"
         result="result4"
         id="feBlend5750-0" />
      <feColorMatrix
         type="luminanceToAlpha"
         id="feColorMatrix5752-6" />
      <feDiffuseLighting
         surfaceScale="10"
         diffuseConstant="1"
         result="result3"
         id="feDiffuseLighting5754-4">
        <feDistantLight
           azimuth="180"
           elevation="35"
           id="feDistantLight5756-8" />
      </feDiffuseLighting>
      <feComposite
         k4="0"
         k2="0"
         in2="result4"
         operator="arithmetic"
         k1="1.5"
         k3="0.5"
         result="result5"
         id="feComposite5758-6" />
      <feBlend
         mode="normal"
         in2="result3"
         result="result6"
         id="feBlend5760-9" />
      <feComposite
         in2="SourceGraphic"
         operator="in"
         id="feComposite5762-2" />
    </filter>
    <filter
       inkscape:collect="always"
       style="color-interpolation-filters:sRGB"
       id="filter10726"
       x="-0.07697742"
       width="1.1539548"
       y="-0.088885866"
       height="1.1777717">
      <feGaussianBlur
         inkscape:collect="always"
         stdDeviation="0.71606337"
         id="feGaussianBlur10728" />
    </filter>
    <filter
       inkscape:collect="always"
       style="color-interpolation-filters:sRGB"
       id="filter10730"
       x="-0.07697742"
       width="1.1539548"
       y="-0.088885866"
       height="1.1777717">
      <feGaussianBlur
         inkscape:collect="always"
         stdDeviation="0.71606337"
         id="feGaussianBlur10732" />
    </filter>
    <filter
       inkscape:collect="always"
       style="color-interpolation-filters:sRGB"
       id="filter10734"
       x="-0.07697742"
       width="1.1539548"
       y="-0.088885866"
       height="1.1777717">
      <feGaussianBlur
         inkscape:collect="always"
         stdDeviation="0.71606337"
         id="feGaussianBlur10736" />
    </filter>
    <filter
       inkscape:collect="always"
       style="color-interpolation-filters:sRGB"
       id="filter10738"
       x="-0.07697742"
       width="1.1539548"
       y="-0.088885866"
       height="1.1777717">
      <feGaussianBlur
         inkscape:collect="always"
         stdDeviation="0.71606337"
         id="feGaussianBlur10740" />
    </filter>
    <filter
       inkscape:collect="always"
       style="color-interpolation-filters:sRGB"
       id="filter10742"
       x="-0.11821222"
       width="1.2364244"
       y="-0.11821608"
       height="1.2364322">
      <feGaussianBlur
         inkscape:collect="always"
         stdDeviation="1.8832449"
         id="feGaussianBlur10744" />
    </filter>
    <filter
       inkscape:collect="always"
       style="color-interpolation-filters:sRGB"
       id="filter10746"
       x="-0.07697742"
       width="1.1539548"
       y="-0.088885866"
       height="1.1777717">
      <feGaussianBlur
         inkscape:collect="always"
         stdDeviation="0.71606337"
         id="feGaussianBlur10748" />
    </filter>
    <filter
       inkscape:collect="always"
       style="color-interpolation-filters:sRGB"
       id="filter10750"
       x="-0.07697742"
       width="1.1539548"
       y="-0.088885866"
       height="1.1777717">
      <feGaussianBlur
         inkscape:collect="always"
         stdDeviation="0.71606337"
         id="feGaussianBlur10752" />
    </filter>
    <filter
       inkscape:collect="always"
       style="color-interpolation-filters:sRGB"
       id="filter10754"
       x="-0.07697742"
       width="1.1539548"
       y="-0.088885866"
       height="1.1777717">
      <feGaussianBlur
         inkscape:collect="always"
         stdDeviation="0.71606337"
         id="feGaussianBlur10756" />
    </filter>
    <filter
       inkscape:collect="always"
       style="color-interpolation-filters:sRGB"
       id="filter10758"
       x="-0.07697742"
       width="1.1539548"
       y="-0.088885866"
       height="1.1777717">
      <feGaussianBlur
         inkscape:collect="always"
         stdDeviation="0.71606337"
         id="feGaussianBlur10760" />
    </filter>
  </defs>
  <sodipodi:namedview
     id="base"
     pagecolor="#ffffff"
     bordercolor="#666666"
     borderopacity="1.0"
     inkscape:pageopacity="0.0"
     inkscape:pageshadow="2"
     inkscape:zoom="3.959798"
     inkscape:cx="116.25612"
     inkscape:cy="131.9919"
     inkscape:document-units="px"
     inkscape:current-layer="layer1"
     showgrid="false"
     units="px"
     inkscape:window-width="1920"
     inkscape:window-height="1017"
     inkscape:window-x="-8"
     inkscape:window-y="-8"
     inkscape:window-maximized="1" />
  <metadata
     id="metadata11782">
    <rdf:RDF>
      <cc:Work
         rdf:about="">
        <dc:format>image/svg+xml</dc:format>
        <dc:type
           rdf:resource="http://purl.org/dc/dcmitype/StillImage" />
        <dc:title />
      </cc:Work>
    </rdf:RDF>
  </metadata>
  <g
     inkscape:label="Layer 1"
     inkscape:groupmode="layer"
     id="layer1"
     transform="translate(0,-852.36216)">
    <path
       d="m 412.98949,1103.3571 5.58135,9.6672 -5.58135,9.6672 -11.1627,0 -5.58135,-9.6672 5.58135,-9.6672 z"
       inkscape:randomized="0"
       inkscape:rounded="0"
       inkscape:flatsided="true"
       sodipodi:arg2="-0.52359878"
       sodipodi:arg1="-1.0471976"
       sodipodi:r2="9.6671848"
       sodipodi:r1="11.162703"
       sodipodi:cy="1113.0243"
       sodipodi:cx="407.40814"
       sodipodi:sides="6"
       id="path10456"
       style="font-style:normal;font-weight:normal;font-size:medium;line-height:125%;font-family:sans-serif;letter-spacing:0px;word-spacing:0px;fill:#000000;fill-opacity:1;stroke:none;stroke-width:0.09605665;stroke-linecap:butt;stroke-linejoin:round;stroke-miterlimit:4;stroke-dasharray:none;stroke-dashoffset:0;stroke-opacity:1;filter:url(#filter10758)"
       sodipodi:type="star"
       transform="matrix(2.6274656,0,0,2.6325319,-1024.636,-2028.4769)" />
    <path
       transform="matrix(2.6274656,0,0,2.6325319,-979.50451,-2002.5271)"
       sodipodi:type="star"
       style="font-style:normal;font-weight:normal;font-size:medium;line-height:125%;font-family:sans-serif;letter-spacing:0px;word-spacing:0px;fill:#000000;fill-opacity:1;stroke:none;stroke-width:0.09605665;stroke-linecap:butt;stroke-linejoin:round;stroke-miterlimit:4;stroke-dasharray:none;stroke-dashoffset:0;stroke-opacity:1;filter:url(#filter10746)"
       id="path10458"
       sodipodi:sides="6"
       sodipodi:cx="407.40814"
       sodipodi:cy="1113.0243"
       sodipodi:r1="11.162703"
       sodipodi:r2="9.6671848"
       sodipodi:arg1="-1.0471976"
       sodipodi:arg2="-0.52359878"
       inkscape:flatsided="true"
       inkscape:rounded="0"
       inkscape:randomized="0"
       d="m 412.98949,1103.3571 5.58135,9.6672 -5.58135,9.6672 -11.1627,0 -5.58135,-9.6672 5.58135,-9.6672 z" />
    <path
       d="m 412.98949,1103.3571 5.58135,9.6672 -5.58135,9.6672 -11.1627,0 -5.58135,-9.6672 5.58135,-9.6672 z"
       inkscape:randomized="0"
       inkscape:rounded="0"
       inkscape:flatsided="true"
       sodipodi:arg2="-0.52359878"
       sodipodi:arg1="-1.0471976"
       sodipodi:r2="9.6671848"
       sodipodi:r1="11.162703"
       sodipodi:cy="1113.0243"
       sodipodi:cx="407.40814"
       sodipodi:sides="6"
       id="path10460"
       style="font-style:normal;font-weight:normal;font-size:medium;line-height:125%;font-family:sans-serif;letter-spacing:0px;word-spacing:0px;fill:#000000;fill-opacity:1;stroke:none;stroke-width:0.09605665;stroke-linecap:butt;stroke-linejoin:round;stroke-miterlimit:4;stroke-dasharray:none;stroke-dashoffset:0;stroke-opacity:1;filter:url(#filter10754)"
       sodipodi:type="star"
       transform="matrix(2.6274656,0,0,2.6325319,-934.07665,-2027.5863)" />
    <path
       transform="matrix(2.6274656,0,0,2.6325319,-889.10022,-2001.4908)"
       sodipodi:type="star"
       style="font-style:normal;font-weight:normal;font-size:medium;line-height:125%;font-family:sans-serif;letter-spacing:0px;word-spacing:0px;fill:#000000;fill-opacity:1;stroke:none;stroke-width:0.09605665;stroke-linecap:butt;stroke-linejoin:round;stroke-miterlimit:4;stroke-dasharray:none;stroke-dashoffset:0;stroke-opacity:1;filter:url(#filter10750)"
       id="path10462"
       sodipodi:sides="6"
       sodipodi:cx="407.40814"
       sodipodi:cy="1113.0243"
       sodipodi:r1="11.162703"
       sodipodi:r2="9.6671848"
       sodipodi:arg1="-1.0471976"
       sodipodi:arg2="-0.52359878"
       inkscape:flatsided="true"
       inkscape:rounded="0"
       inkscape:randomized="0"
       d="m 412.98949,1103.3571 5.58135,9.6672 -5.58135,9.6672 -11.1627,0 -5.58135,-9.6672 5.58135,-9.6672 z" />
    <rect
       transform="matrix(0.86602542,-0.49999997,0.49999997,0.86602542,0,0)"
       style="fill:#000000;fill-opacity:1;stroke:none;stroke-width:3;stroke-linecap:round;stroke-linejoin:round;stroke-miterlimit:4;stroke-dasharray:none;stroke-dashoffset:0;stroke-opacity:1;filter:url(#filter10742)"
       id="rect10464"
       width="28.827805"
       height="28.824398"
       x="-280.30649"
       y="881.95221"
       ry="1.5654925" />
    <path
       transform="matrix(2.6274656,0,0,2.6325319,-1024.9086,-1924.2396)"
       sodipodi:type="star"
       style="font-style:normal;font-weight:normal;font-size:medium;line-height:125%;font-family:sans-serif;letter-spacing:0px;word-spacing:0px;fill:#000000;fill-opacity:1;stroke:none;stroke-width:0.09605665;stroke-linecap:butt;stroke-linejoin:round;stroke-miterlimit:4;stroke-dasharray:none;stroke-dashoffset:0;stroke-opacity:1;filter:url(#filter10726)"
       id="path10466"
       sodipodi:sides="6"
       sodipodi:cx="407.40814"
       sodipodi:cy="1113.0243"
       sodipodi:r1="11.162703"
       sodipodi:r2="9.6671848"
       sodipodi:arg1="-1.0471976"
       sodipodi:arg2="-0.52359878"
       inkscape:flatsided="true"
       inkscape:rounded="0"
       inkscape:randomized="0"
       d="m 412.98949,1103.3571 5.58135,9.6672 -5.58135,9.6672 -11.1627,0 -5.58135,-9.6672 5.58135,-9.6672 z" />
    <path
       d="m 412.98949,1103.3571 5.58135,9.6672 -5.58135,9.6672 -11.1627,0 -5.58135,-9.6672 5.58135,-9.6672 z"
       inkscape:randomized="0"
       inkscape:rounded="0"
       inkscape:flatsided="true"
       sodipodi:arg2="-0.52359878"
       sodipodi:arg1="-1.0471976"
       sodipodi:r2="9.6671848"
       sodipodi:r1="11.162703"
       sodipodi:cy="1113.0243"
       sodipodi:cx="407.40814"
       sodipodi:sides="6"
       id="path10468"
       style="font-style:normal;font-weight:normal;font-size:medium;line-height:125%;font-family:sans-serif;letter-spacing:0px;word-spacing:0px;fill:#000000;fill-opacity:1;stroke:none;stroke-width:0.09605665;stroke-linecap:butt;stroke-linejoin:round;stroke-miterlimit:4;stroke-dasharray:none;stroke-dashoffset:0;stroke-opacity:1;filter:url(#filter10730)"
       sodipodi:type="star"
       transform="matrix(2.6274656,0,0,2.6325319,-980.2188,-1950.3843)" />
    <path
       d="m 412.98949,1103.3571 5.58135,9.6672 -5.58135,9.6672 -11.1627,0 -5.58135,-9.6672 5.58135,-9.6672 z"
       inkscape:randomized="0"
       inkscape:rounded="0"
       inkscape:flatsided="true"
       sodipodi:arg2="-0.52359878"
       sodipodi:arg1="-1.0471976"
       sodipodi:r2="9.6671848"
       sodipodi:r1="11.162703"
       sodipodi:cy="1113.0243"
       sodipodi:cx="407.40814"
       sodipodi:sides="6"
       id="path10470"
       style="font-style:normal;font-weight:normal;font-size:medium;line-height:125%;font-family:sans-serif;letter-spacing:0px;word-spacing:0px;fill:#000000;fill-opacity:1;stroke:none;stroke-width:0.09605665;stroke-linecap:butt;stroke-linejoin:round;stroke-miterlimit:4;stroke-dasharray:none;stroke-dashoffset:0;stroke-opacity:1;filter:url(#filter10734)"
       sodipodi:type="star"
       transform="matrix(2.6274656,0,0,2.6325319,-935.37036,-1923.5433)" />
    <path
       transform="matrix(2.6274656,0,0,2.6325319,-934.50451,-1975.7414)"
       sodipodi:type="star"
       style="font-style:normal;font-weight:normal;font-size:medium;line-height:125%;font-family:sans-serif;letter-spacing:0px;word-spacing:0px;fill:#000000;fill-opacity:1;stroke:none;stroke-width:0.09605665;stroke-linecap:butt;stroke-linejoin:round;stroke-miterlimit:4;stroke-dasharray:none;stroke-dashoffset:0;stroke-opacity:1;filter:url(#filter10738)"
       id="path10472"
       sodipodi:sides="6"
       sodipodi:cx="407.40814"
       sodipodi:cy="1113.0243"
       sodipodi:r1="11.162703"
       sodipodi:r2="9.6671848"
       sodipodi:arg1="-1.0471976"
       sodipodi:arg2="-0.52359878"
       inkscape:flatsided="true"
       inkscape:rounded="0"
       inkscape:randomized="0"
       d="m 412.98949,1103.3571 5.58135,9.6672 -5.58135,9.6672 -11.1627,0 -5.58135,-9.6672 5.58135,-9.6672 z" />
    <path
       transform="matrix(2.6274656,0,0,2.6325319,-1026.636,-2030.4769)"
       sodipodi:type="star"
       style="font-style:normal;font-weight:normal;font-size:medium;line-height:125%;font-family:sans-serif;letter-spacing:0px;word-spacing:0px;fill:#d8c586;fill-opacity:1;stroke:none;stroke-width:0.09605665;stroke-linecap:butt;stroke-linejoin:round;stroke-miterlimit:4;stroke-dasharray:none;stroke-dashoffset:0;stroke-opacity:1"
       id="path13290"
       sodipodi:sides="6"
       sodipodi:cx="407.40814"
       sodipodi:cy="1113.0243"
       sodipodi:r1="11.162703"
       sodipodi:r2="9.6671848"
       sodipodi:arg1="-1.0471976"
       sodipodi:arg2="-0.52359878"
       inkscape:flatsided="true"
       inkscape:rounded="0"
       inkscape:randomized="0"
       d="m 412.98949,1103.3571 5.58135,9.6672 -5.58135,9.6672 -11.1627,0 -5.58135,-9.6672 5.58135,-9.6672 z" />
    <path
       style="fill:#000080;fill-opacity:1;stroke:none;stroke-width:0.99999994;stroke-opacity:1"
       inkscape:connector-curvature="0"
       d="m 44.955462,881.80005 c -2.113471,0 -3.63361,1.11977 -4.511533,2.52587 -0.785093,1.2576 -1.111703,2.71628 -1.175364,3.99378 -2.396034,1.18611 -5.050288,2.38191 -7.187238,3.60433 -1.12107,0.64148 -2.098396,1.28652 -2.834027,1.97968 -0.735631,0.69314 -1.27854,1.47376 -1.27854,2.39453 0,0.39174 0.191177,0.7112 0.406409,0.94541 0.215619,0.23443 0.473742,0.41632 0.767991,0.58614 0.588307,0.3398 1.330029,0.62322 2.145742,0.86801 1.212162,0.36415 2.569429,0.63491 3.749624,0.75065 -1.17372,2.02491 -2.736075,3.88494 -4.105419,5.66713 -1.582638,2.05954 -2.964347,4.03488 -2.964347,6.22909 0,0.3136 -0.0096,0.55817 0.02412,0.80414 0.02901,0.24568 0.09814,0.55278 0.34516,0.79571 0.247016,0.24346 0.54928,0.30873 0.795526,0.33552 0.246335,0.0266 0.494409,0.0222 0.81262,0.0222 l 8.731332,0 c 0.633905,0 1.098078,0.0384 1.57549,-0.26869 0.477507,-0.30732 0.651679,-0.72697 0.991823,-1.35396 l 0.0096,-0.0222 0.0097,-0.0222 c 0,0 0.761036,-1.54918 1.669107,-3.08658 0.454027,-0.76863 0.946994,-1.53422 1.375811,-2.07663 0.214552,-0.27121 0.415104,-0.48617 0.559617,-0.6076 0.0444,-0.0362 0.06475,-0.043 0.09274,-0.0585 0.02901,0.0222 0.04833,0.0222 0.09274,0.0585 0.14452,0.12187 0.34516,0.33639 0.559617,0.6076 0.428824,0.54241 0.921686,1.308 1.375722,2.07663 0.908064,1.5374 1.669291,3.08658 1.669291,3.08658 l 0.0097,0.0222 0.0096,0.0222 c 0.340232,0.62699 0.512672,1.0442 0.98708,1.35219 0.474126,0.30798 0.937338,0.27024 1.562163,0.27024 l 8.769974,0 c 0.313089,0 0.557301,0 0.801897,-0.0244 0.2445,-0.0266 0.547837,-0.0947 0.792241,-0.33929 0.24421,-0.24486 0.31183,-0.54855 0.338878,-0.79312 0.02805,-0.24479 0.02412,-0.48935 0.02412,-0.80274 0,-2.19443 -1.381709,-4.16977 -2.964348,-6.22953 -1.369439,-1.78197 -2.931506,-3.642 -4.105515,-5.66691 1.180292,-0.11517 2.537559,-0.3865 3.749632,-0.75042 0.815809,-0.24502 1.557524,-0.52821 2.145734,-0.86801 0.294257,-0.16917 0.552573,-0.35194 0.767991,-0.58615 0.215426,-0.23443 0.406506,-0.55366 0.406506,-0.94556 0,-0.92077 -0.542908,-1.70124 -1.278532,-2.39438 -0.735631,-0.69338 -1.713054,-1.33842 -2.834036,-1.97964 -2.136942,-1.22246 -4.791196,-2.41849 -7.187327,-3.60435 -0.06379,-1.2775 -0.390375,-2.73638 -1.175363,-3.99379 -0.877924,-1.40609 -2.397966,-2.52565 -4.51154,-2.52565 z"
       id="path13292" />
    <path
       d="m 412.98949,1103.3571 5.58135,9.6672 -5.58135,9.6672 -11.1627,0 -5.58135,-9.6672 5.58135,-9.6672 z"
       inkscape:randomized="0"
       inkscape:rounded="0"
       inkscape:flatsided="true"
       sodipodi:arg2="-0.52359878"
       sodipodi:arg1="-1.0471976"
       sodipodi:r2="9.6671848"
       sodipodi:r1="11.162703"
       sodipodi:cy="1113.0243"
       sodipodi:cx="407.40814"
       sodipodi:sides="6"
       id="path13294"
       style="font-style:normal;font-weight:normal;font-size:medium;line-height:125%;font-family:sans-serif;letter-spacing:0px;word-spacing:0px;fill:#d8c586;fill-opacity:1;stroke:none;stroke-width:0.09605665;stroke-linecap:butt;stroke-linejoin:round;stroke-miterlimit:4;stroke-dasharray:none;stroke-dashoffset:0;stroke-opacity:1"
       sodipodi:type="star"
       transform="matrix(2.6274656,0,0,2.6325319,-981.50451,-2004.5271)" />
    <path
       id="path13296"
       d="m 88.276409,911.3493 c 1.271552,0 2.115442,0.63469 3.247325,1.26342 1.072744,0.59585 2.421492,1.10677 4.323268,0.71845 0.90254,0.90204 1.81949,1.80452 2.797489,2.41544 0.800241,0.50014 1.699419,0.79808 2.596429,0.65739 -0.25731,2.02435 -1.486958,4.00485 -2.772359,5.04145 -3.38954,-1.1232 -6.787674,-1.6851 -10.185701,-1.6851 -3.401292,0 -6.802503,0.563 -10.195245,1.6882 -1.286597,-1.0357 -2.518148,-3.0181 -2.775735,-5.04455 0.896748,0.14008 1.796189,-0.15704 2.596429,-0.65718 0.977913,-0.61113 1.894775,-1.5134 2.797422,-2.41544 1.901693,0.38831 3.250421,-0.12301 4.32327,-0.71866 1.132053,-0.62895 1.975856,-1.26342 3.247408,-1.26342 z m 0.01266,1.18301 c -1.199746,0 -3.219527,1.62112 -3.219527,1.62112 0,0 1.284941,4.86382 3.219527,4.86382 1.934752,0 3.219632,-4.86382 3.219632,-4.86382 0,0 -2.019869,-1.62112 -3.219632,-1.62112 z m 0,8.31384 c 3.196395,0 6.393152,0.5224 9.597372,1.5579 0.13221,0.8155 -0.0914,1.4215 -0.57208,1.982 -0.53629,0.6256 -1.43683,1.1568 -2.50431,1.5566 -2.134944,0.8002 -4.903464,1.0834 -6.521068,1.0834 -1.617412,0 -4.38587,-0.2832 -6.520811,-1.0833 -1.067545,-0.3999 -1.9679,-0.931 -2.504377,-1.5567 -0.480818,-0.5605 -0.704305,-1.1662 -0.572277,-1.982 3.204418,-1.0355 6.400984,-1.5579 9.597465,-1.5579 z m 10.488902,3.4596 c 0.59469,0.1444 1.630829,0.4708 1.816969,1.029 0.50868,1.5255 -1.024559,3.8625 -2.184049,5.3369 0.31944,-1.3322 0.49164,-2.7493 0.49164,-4.2185 0,-0.73 -0.0429,-1.4471 -0.12456,-2.1474 z m -20.977703,0 a 18.521163,18.518977 0 0 0 -0.124559,2.1471 c 0,1.4695 0.172093,2.8866 0.491747,4.2187 -1.159681,-1.4743 -2.692914,-3.8113 -2.184044,-5.3368 0.185887,-0.5582 1.222279,-0.8846 1.816773,-1.029 z m 19.983493,1.1608 c 0.0191,0.3258 0.0291,0.6543 0.0291,0.9863 0,3.5949 -1.0978,6.839 -2.84005,9.1606 -1.742141,2.3216 -4.099401,3.7119 -6.683523,3.7119 -2.583929,0 -4.941275,-1.3903 -6.683333,-3.7119 -1.742226,-2.3216 -2.839776,-5.5657 -2.839776,-9.1606 0,-0.332 0.01266,-0.6608 0.02908,-0.9863 0.496478,0.4636 1.103004,0.8397 1.770216,1.152 -0.258478,1.102 0.01697,2.4726 0.732549,3.1888 1.318489,1.3176 4.275144,1.3176 5.593719,0 0.408373,-0.4083 0.58348,-1.0586 0.560329,-1.7114 0.298774,0.021 0.581314,0.021 0.837883,0.021 0.256567,0 0.539194,0 0.838053,-0.021 -0.02356,0.6524 0.151934,1.3031 0.560329,1.7114 1.318575,1.3176 4.275166,1.3176 5.593544,0 0.71651,-0.7162 0.99114,-2.0867 0.73255,-3.1883 0.66739,-0.3126 1.27383,-0.6888 1.7702,-1.1525 z m -9.494692,7.136 c -1.398384,2.2361 -4.195063,2.5158 -5.59336,2.5158 1.398297,1.1181 5.593274,1.1181 5.593274,0 0,1.1181 4.195337,1.1181 5.593635,0 -1.398298,0 -4.195168,-0.2797 -5.593635,-2.5158 z"
       style="fill:#42290d;fill-opacity:1"
       inkscape:connector-curvature="0" />
    <path
       transform="matrix(2.6274656,0,0,2.6325319,-936.07665,-2029.5863)"
       sodipodi:type="star"
       style="font-style:normal;font-weight:normal;font-size:medium;line-height:125%;font-family:sans-serif;letter-spacing:0px;word-spacing:0px;fill:#d8c586;fill-opacity:1;stroke:none;stroke-width:0.09605665;stroke-linecap:butt;stroke-linejoin:round;stroke-miterlimit:4;stroke-dasharray:none;stroke-dashoffset:0;stroke-opacity:1"
       id="path13298"
       sodipodi:sides="6"
       sodipodi:cx="407.40814"
       sodipodi:cy="1113.0243"
       sodipodi:r1="11.162703"
       sodipodi:r2="9.6671848"
       sodipodi:arg1="-1.0471976"
       sodipodi:arg2="-0.52359878"
       inkscape:flatsided="true"
       inkscape:rounded="0"
       inkscape:randomized="0"
       d="m 412.98949,1103.3571 5.58135,9.6672 -5.58135,9.6672 -11.1627,0 -5.58135,-9.6672 5.58135,-9.6672 z" />
    <path
       d="m 412.98949,1103.3571 5.58135,9.6672 -5.58135,9.6672 -11.1627,0 -5.58135,-9.6672 5.58135,-9.6672 z"
       inkscape:randomized="0"
       inkscape:rounded="0"
       inkscape:flatsided="true"
       sodipodi:arg2="-0.52359878"
       sodipodi:arg1="-1.0471976"
       sodipodi:r2="9.6671848"
       sodipodi:r1="11.162703"
       sodipodi:cy="1113.0243"
       sodipodi:cx="407.40814"
       sodipodi:sides="6"
       id="path13300"
       style="font-style:normal;font-weight:normal;font-size:medium;line-height:125%;font-family:sans-serif;letter-spacing:0px;word-spacing:0px;fill:#d8c586;fill-opacity:1;stroke:none;stroke-width:0.09605665;stroke-linecap:butt;stroke-linejoin:round;stroke-miterlimit:4;stroke-dasharray:none;stroke-dashoffset:0;stroke-opacity:1"
       sodipodi:type="star"
       transform="matrix(2.6274656,0,0,2.6325319,-891.10022,-2003.4908)" />
    <rect
       ry="1.5654925"
       y="879.22015"
       x="-281.03854"
       height="28.824398"
       width="28.827805"
       id="rect13304"
       style="fill:#d8c586;fill-opacity:1;stroke:none;stroke-width:3;stroke-linecap:round;stroke-linejoin:round;stroke-miterlimit:4;stroke-dasharray:none;stroke-dashoffset:0;stroke-opacity:1"
       transform="matrix(0.86602542,-0.49999997,0.49999997,0.86602542,0,0)" />
    <path
       id="path13306"
       d="m 209.85402,899.08896 10.07336,17.44763 4.49482,-4.76926 -8.19053,-14.18639 z m 6.71694,-2.50628 0.0544,0.0878 0.65628,1.13669 0.6125,-0.35367 -0.70714,-1.2248 z m -9.87431,5.702 2.5918,4.48908 0.68906,-0.39788 -2.19386,-3.79993 2.37359,-1.37038 -0.39785,-0.68909 z m 10.98221,-3.78853 0.35364,0.61247 0.61258,-0.35362 -0.35363,-0.61248 z m 0.75145,1.30145 5.21571,9.03392 0.6125,-0.35369 -5.21572,-9.03389 z m -7.89009,7.55283 0.77953,1.35021 -3.67523,2.12188 1.01661,1.7608 3.67523,-2.12189 0.77953,1.35021 0.94298,-3.51869 z m 4.85367,-1.05321 c 0.25373,-0.14647 0.69691,0.14613 0.98988,0.65349 0.29292,0.50744 0.32467,1.03745 0.071,1.18391 -0.25373,0.14647 -0.69686,-0.14601 -0.98979,-0.65344 -0.29288,-0.50731 -0.32476,-1.03749 -0.071,-1.18395 z m -1.71537,6.48892 -0.68915,0.39784 2.39285,4.14447 0.68905,-0.39788 z m 10.36522,-3.26569 0.30947,0.53598 0.61258,-0.35363 -0.30947,-0.53597 z m 0.70728,1.22496 0.50828,0.88043 0.61257,-0.35361 -0.50836,-0.88049 z m -12.19127,9.38629 0.39786,0.68909 6.39334,-3.69119 -0.39786,-0.68909 z m 11.1272,-6.42427 -1.89918,2.01528 8.3209,-4.80402 -0.39786,-0.6891 z"
       style="fill:#42290d;fill-opacity:1"
       inkscape:connector-curvature="0" />
    <path
       id="path13308"
       d="m 144.67714,903.17967 c -1.9214,0.2603 -4.3653,0.439 -7.4478,0.544 -1.9559,0.067 -4.1495,0.1 -6.5211,0.1 -2.9861,0 -5.6472,-0.053 -7.2944,-0.091 a 17.519251,17.518108 0 0 0 0.7472,4.9115 c 1.8822,6.2857 6.8241,10.53898 11.7428,10.53898 a 8.3109197,8.3103781 0 0 0 2.3908,-0.3492 c 5.4567,-1.63348 8.2346,-8.55878 6.3825,-15.65368 z m -13.6315,7.3266 -1.1399,-0.6925 -0.5038,0.8839 -1.3214,-0.7556 0.5264,-0.9174 -1.1753,-0.7135 0.7908,-1.3011 1.14,0.6925 0.5038,-0.884 1.3214,0.7556 -0.5264,0.9175 1.1752,0.7135 z m 8.2523,-2.1675 -1.1401,-0.6924 -0.5037,0.8838 -1.3214,-0.7554 0.5238,-0.9209 -1.1753,-0.7127 0.7934,-1.302 1.14,0.6926 0.5037,-0.8838 1.3213,0.7553 -0.5264,0.9175 1.1754,0.7137 z m 10.2239,-19.0777 1.847,1.5387 2.0416,-1.2659 -0.8933,2.2304 1.8352,1.5504 -2.3967,-0.1603 -0.9101,2.2244 -0.5875,-2.3293 -2.396,-0.1764 2.0291,-1.2784 z m -0.019,-6.618 0.1747,1.501 1.4791,0.308 -1.3734,0.6295 0.1679,1.5018 -1.025,-1.1114 -1.3775,0.6204 0.7404,-1.3154 -1.0158,-1.1191 1.4817,0.2981 z m -29.6397,-0.038 1.5472,1.8358 2.2322,-0.8881 -1.2701,2.0415 1.5345,1.8466 -2.3321,-0.5766 -1.2861,2.0306 -0.1678,-2.3956 -2.3288,-0.5935 2.2263,-0.9033 z m 29.6397,17.2342 c -0.3827,1.0629 -2.1456,2.1951 -12.3169,2.541 -2.1726,0.074 -4.4048,0.099 -6.4758,0.099 -3.5183,0 -10.1745,-0.1015 -10.1745,-0.1015 l 0,-1.3431 c 0,0 6.6714,0.1016 10.1753,0.1016 2.0266,0 4.2075,-0.024 6.3323,-0.096 3.2547,-0.1083 5.8705,-0.3097 7.7753,-0.5968 2.8601,-0.4323 3.342,-0.9427 3.4109,-1.0443 -0.02,-0.048 -0.1025,-0.1972 -0.4081,-0.439 -0.8512,-0.6715 -2.395,-1.3431 -4.4744,-1.9676 a 16.992052,16.990945 0 0 0 -1.3902,-1.7812 c 0.1679,0.042 0.3358,0.084 0.4936,0.1284 2.9525,0.7857 5.037,1.6487 6.2022,2.5652 0.5465,0.4349 1.14,1.1216 0.8503,1.9341 z m -25.5884,-0.1267 c 0.126,-0.6153 0.7423,-2.2245 1.0419,-2.6795 4.7305,0.324 12.6637,-1.3196 14.8069,-2.112 1.2767,1.1123 2.7458,3.0086 3.4091,4.381 -4.811,0.5474 -13.3839,0.5583 -19.2603,0.4114 z m 1.6286,-6.0514 c -0.8462,-0.051 -2.8315,-0.1738 -3.5803,0.1679 0.9964,0.941 6.296,1.0458 10.7647,0.4129 4.7901,-0.6782 9.2344,-1.8014 11.8426,-3.5785 1.0864,-0.7404 1.6605,-1.8224 1.5565,-2.3025 -0.529,-2.4477 -14.6171,-3.3123 -14.6171,-3.3123 0,0 14.9671,0.3097 15.0779,3.3114 0.1192,3.2201 -6.8956,5.6914 -13.6366,6.7432 -6.4027,0.999 -12.5411,1.0685 -12.2229,-1.5723 0.1847,-1.5344 4.309,-1.2482 6.0938,-1.0451 -0.3543,0.2443 -1.0032,0.8864 -1.281,1.176 z m 6.3701,-1.606 a 8.9220673,8.9214855 0 0 1 3.5746,0.3862 c -1.0687,0.262 -4.8934,0.7816 -7.1492,0.8395 1.7806,-1.0854 3.2564,-1.1869 3.5721,-1.2248 z"
       style="fill:#42290d;fill-opacity:1"
       inkscape:connector-curvature="0" />
    <path
       inkscape:connector-curvature="0"
       style="fill:#42290d;fill-opacity:1;stroke-linecap:round;stroke-linejoin:round"
       d="m 173.77057,910.70212 c -1.00305,-4.6e-4 -2.05846,0.14484 -3.16889,0.46915 a 0.6429629,0.64288695 0 0 0 -0.009,0 0.6429629,0.64288695 0 0 0 -0.033,0.0226 0.6429629,0.64288695 0 0 0 -0.0262,0 0.6429629,0.64288695 0 0 0 -0.0319,0.0226 0.6429629,0.64288695 0 0 0 -0.0263,0.0226 0.6429629,0.64288695 0 0 0 -0.031,0.0226 0.6429629,0.64288695 0 0 0 -0.0233,0.0226 0.6429629,0.64288695 0 0 0 -0.0292,0.0226 0.6429629,0.64288695 0 0 0 -0.0226,0.0226 0.6429629,0.64288695 0 0 0 -0.0272,0.0249 0.6429629,0.64288695 0 0 0 -0.0204,0.0226 0.6429629,0.64288695 0 0 0 -0.0251,0.0272 0.6429629,0.64288695 0 0 0 -0.0158,0.0226 0.6429629,0.64288695 0 0 0 -0.0233,0.0317 0.6429629,0.64288695 0 0 0 -0.0136,0.0226 0.6429629,0.64288695 0 0 0 -0.0181,0.0317 0.6429629,0.64288695 0 0 0 -0.0136,0.0226 0.6429629,0.64288695 0 0 0 -0.0158,0.0339 0.6429629,0.64288695 0 0 0 -0.0113,0.0249 0.6429629,0.64288695 0 0 0 -0.0136,0.034 0.6429629,0.64288695 0 0 0 -0.009,0.0272 0.6429629,0.64288695 0 0 0 -0.0113,0.0475 l -1.51554,7.57688 a 0.6429629,0.64288695 0 0 0 0.38073,0.7181 l 5.55131,2.3399 2.14009,10.9721 -7.88702,1.713 a 0.6429629,0.64288695 0 0 0 -0.50764,0.6195 l -0.072,5.175 a 0.6429629,0.64288695 0 0 0 0.83755,0.6217 l 9.91291,-3.168 1.63275,-0.3167 c 0.0136,0 0.0233,0 0.036,0 0.67383,0 1.30848,-0.3207 1.75158,-0.8439 0.44284,-0.5226 0.6745,-1.2038 0.67382,-1.9056 l 0,0 c 3.8e-4,-0.4447 -0.0932,-0.8822 -0.27375,-1.276 l -1.71047,-8.8359 8.51243,3.5881 a 0.6429629,0.64288695 0 0 0 0.0113,0 0.6429629,0.64288695 0 0 0 0.0369,0.023 0.6429629,0.64288695 0 0 0 0.0233,0 0.6429629,0.64288695 0 0 0 0.0369,0 0.6429629,0.64288695 0 0 0 0.0283,0 0.6429629,0.64288695 0 0 0 0.033,0 0.6429629,0.64288695 0 0 0 0.033,0 0.6429629,0.64288695 0 0 0 0.0292,0 0.6429629,0.64288695 0 0 0 0.0369,0 0.6429629,0.64288695 0 0 0 0.0242,0 l 5.64487,-0.3574 a 0.6429629,0.64288695 0 0 0 0.53952,-0.368 l 3.4193,-7.2378 5.9e-4,0 a 0.6429629,0.64288695 0 0 0 -0.37297,-0.889 c -0.52698,-0.289 -1.06951,-0.4913 -1.62136,-0.6192 l -20.83692,-8.08544 a 0.6429629,0.64288695 0 0 0 -0.0545,-0.0226 c -0.90138,-0.26004 -1.85206,-0.4067 -2.8551,-0.40738 z m -1.78316,0.92881 a 0.6429629,0.64288695 0 0 1 0.24956,0.0475 l 19.6781,7.88582 a 0.64350437,0.64342837 0 0 1 0.39044,0.7303 0.6429629,0.64288695 0 0 0 -0.0478,0.1 l -0.0563,0.1403 a 0.64350437,0.64342837 0 0 1 -0.76419,0.2263 l -19.67792,-7.88804 a 0.6429629,0.64288695 0 0 1 0.22845,-1.24158 z m 24.18275,8.68682 c 0.29775,0 0.59221,0.034 0.88441,0.095 l 0.99759,0.3873 -1.60202,3.3913 c 0.0622,-0.2747 0.0932,-0.547 0.0903,-0.8023 -0.009,-0.5909 -0.19893,-1.0795 -0.53096,-1.3239 -0.33203,-0.2444 -0.79107,-0.2356 -1.24362,0.023 -0.1118,0.063 -0.2236,0.1403 -0.33205,0.2284 0.0419,-0.054 0.0808,-0.1155 0.11406,-0.1811 0.0962,-0.1856 0.15209,-0.4026 0.15028,-0.5941 0,-0.1923 -0.0641,-0.3546 -0.17336,-0.4377 -0.0546,-0.041 -0.11769,-0.063 -0.18626,-0.061 -0.0681,0 -0.14236,0.023 -0.21342,0.063 -0.14281,0.081 -0.27618,0.2381 -0.37227,0.425 -0.0962,0.1879 -0.15209,0.4024 -0.15028,0.5943 0,0.1924 0.064,0.3547 0.17336,0.4377 0.10954,0.084 0.25705,0.077 0.39968,0 -0.23107,0.2413 -0.44299,0.5348 -0.61529,0.8609 -0.31184,0.5898 -0.48901,1.2722 -0.48219,1.8631 0.009,0.5909 0.203,1.0813 0.53506,1.326 0.33183,0.2446 0.78672,0.2333 1.23925,-0.023 0.28269,-0.1585 0.56111,-0.4074 0.80607,-0.7163 l -0.56925,1.2047 -4.24693,0.2706 2.5213,-6.2522 c 0.9905,-0.5242 1.91347,-0.779 2.80623,-0.7716 z m -20.17407,2.5814 1.08388,0.4569 2.01231,9.444 c -0.20346,-0.061 -0.41584,-0.095 -0.63234,-0.095 -0.18445,0 -0.36548,0.025 -0.54058,0.07 l -1.92327,-9.8756 z m 2.52808,1.0657 1.15171,0.4854 1.55666,8.0416 c -0.1849,-0.05 -0.37655,-0.079 -0.5717,-0.079 -0.11135,0 -0.22111,0 -0.32932,0.027 l -1.80724,-8.4751 z m 2.1366,9.7391 c 0.26149,0 0.55885,0.1336 0.77641,0.3907 0.21749,0.2568 0.36772,0.6692 0.36713,1.0689 6.8e-4,0.3994 -0.14959,0.812 -0.36702,1.0686 -0.1032,0.1222 -0.22451,0.215 -0.35109,0.2804 l -0.41581,0.082 c 0.14258,-0.3569 0.21546,-0.7446 0.215,-1.1386 l 0,0 c 2.7e-4,-0.2555 -0.0301,-0.5083 -0.0903,-0.7518 a 0.6429629,0.64288695 0 0 0 -0.0136,-0.1516 l -0.17969,-0.8431 c 0.0204,0 0.0398,0 0.0593,0 z m -2.20083,0.2909 c 0.26149,0 0.55905,0.1335 0.77664,0.3908 0.21749,0.2569 0.36751,0.6692 0.36693,1.0689 5.8e-4,0.3997 -0.1496,0.812 -0.36705,1.0689 -0.21749,0.2569 -0.51503,0.3906 -0.77661,0.3906 -0.26142,0 -0.5571,-0.1335 -0.77468,-0.3906 -0.2175,-0.2569 -0.36947,-0.6692 -0.36888,-1.0689 -5.9e-4,-0.3997 0.15141,-0.812 0.36888,-1.0689 0.21749,-0.2569 0.51326,-0.3908 0.77468,-0.3908 z m -2.33472,0.7167 c -0.0593,0.241 -0.0894,0.4907 -0.0885,0.743 l 0,0 c 0,0.7018 0.23071,1.383 0.67364,1.9056 0.0573,0.066 0.11655,0.1313 0.17924,0.1901 l -7.34904,2.3487 0.0525,-3.7709 6.53221,-1.4188 z"
       id="path13310" />
    <path
       sodipodi:nodetypes="ccccc"
       inkscape:connector-curvature="0"
       id="path13312"
       d="m 46.603088,896.78899 41.668793,11.86928 43.689089,-7.3236 52.2754,22.22328 22.90174,-11.58034"
       style="fill:none;fill-rule:evenodd;stroke:#000080;stroke-width:1;stroke-linecap:butt;stroke-linejoin:miter;stroke-miterlimit:4;stroke-dasharray:1, 1;stroke-dashoffset:0;stroke-opacity:1" />
    <text
       transform="matrix(0.96592583,0.25881905,-0.25881905,0.96592583,0,0)"
       sodipodi:linespacing="125%"
       id="text13314"
       y="865.30969"
       x="301.60245"
       style="font-style:normal;font-variant:normal;font-weight:normal;font-stretch:normal;font-size:13.25020981px;line-height:125%;font-family:'Archivo Narrow';-inkscape-font-specification:'Archivo Narrow, Normal';text-align:start;letter-spacing:0px;word-spacing:0px;writing-mode:lr-tb;text-anchor:start;fill:#000000;fill-opacity:1;stroke:none;stroke-width:1px;stroke-linecap:butt;stroke-linejoin:miter;stroke-opacity:1"
       xml:space="preserve"><tspan
         y="865.30969"
         x="301.60245"
         id="tspan13316"
         sodipodi:role="line">1</tspan></text>
    <text
       xml:space="preserve"
       style="font-style:normal;font-variant:normal;font-weight:normal;font-stretch:normal;font-size:13.25020981px;line-height:125%;font-family:'Archivo Narrow';-inkscape-font-specification:'Archivo Narrow, Normal';text-align:start;letter-spacing:0px;word-spacing:0px;writing-mode:lr-tb;text-anchor:start;fill:#000000;fill-opacity:1;stroke:none;stroke-width:1px;stroke-linecap:butt;stroke-linejoin:miter;stroke-opacity:1"
       x="-18.34621"
       y="921.89838"
       id="text13318"
       sodipodi:linespacing="125%"
       transform="matrix(0.99005087,-0.1407099,0.1407099,0.99005087,0,0)"><tspan
         sodipodi:role="line"
         id="tspan13320"
         x="-18.34621"
         y="921.89838">2</tspan></text>
    <text
       transform="matrix(0.92776415,0.37316709,-0.37316709,0.92776415,0,0)"
       sodipodi:linespacing="125%"
       id="text13322"
       y="797.74127"
       x="486.67352"
       style="font-style:normal;font-variant:normal;font-weight:normal;font-stretch:normal;font-size:13.25020981px;line-height:125%;font-family:'Archivo Narrow';-inkscape-font-specification:'Archivo Narrow, Normal';text-align:start;letter-spacing:0px;word-spacing:0px;writing-mode:lr-tb;text-anchor:start;fill:#000000;fill-opacity:1;stroke:none;stroke-width:1px;stroke-linecap:butt;stroke-linejoin:miter;stroke-opacity:1"
       xml:space="preserve"><tspan
         y="797.74127"
         x="486.67352"
         id="tspan13324"
         sodipodi:role="line">1</tspan></text>
    <text
       xml:space="preserve"
       style="font-style:normal;font-variant:normal;font-weight:normal;font-stretch:normal;font-size:13.25020981px;line-height:125%;font-family:'Archivo Narrow';-inkscape-font-specification:'Archivo Narrow, Normal';text-align:start;letter-spacing:0px;word-spacing:0px;writing-mode:lr-tb;text-anchor:start;fill:#000000;fill-opacity:1;stroke:none;stroke-width:1px;stroke-linecap:butt;stroke-linejoin:miter;stroke-opacity:1"
       x="-265.75449"
       y="897.04388"
       id="text13326"
       sodipodi:linespacing="125%"
       transform="matrix(0.87520739,-0.4837479,0.4837479,0.87520739,0,0)"><tspan
         sodipodi:role="line"
         id="tspan13328"
         x="-265.75449"
         y="897.04388">1</tspan></text>
    <path
       d="m 412.98949,1103.3571 5.58135,9.6672 -5.58135,9.6672 -11.1627,0 -5.58135,-9.6672 5.58135,-9.6672 z"
       inkscape:randomized="0"
       inkscape:rounded="0"
       inkscape:flatsided="true"
       sodipodi:arg2="-0.52359878"
       sodipodi:arg1="-1.0471976"
       sodipodi:r2="9.6671848"
       sodipodi:r1="11.162703"
       sodipodi:cy="1113.0243"
       sodipodi:cx="407.40814"
       sodipodi:sides="6"
       id="path13332"
       style="font-style:normal;font-weight:normal;font-size:medium;line-height:125%;font-family:sans-serif;letter-spacing:0px;word-spacing:0px;fill:#d8c586;fill-opacity:1;stroke:none;stroke-width:0.09605665;stroke-linecap:butt;stroke-linejoin:round;stroke-miterlimit:4;stroke-dasharray:none;stroke-dashoffset:0;stroke-opacity:1"
       sodipodi:type="star"
       transform="matrix(2.6274656,0,0,2.6325319,-1026.9086,-1926.2396)" />
    <path
       id="path13334"
       d="m 44.68262,984.96593 c -2.11347,0 -3.633609,1.11977 -4.511533,2.52593 -0.785092,1.2576 -1.111702,2.7163 -1.175363,3.9938 -2.396035,1.1861 -5.050289,2.3819 -7.187239,3.6043 -1.12107,0.6415 -2.098396,1.2865 -2.834027,1.9797 -0.735631,0.6931 -1.27854,1.47371 -1.27854,2.39451 0,0.3918 0.191177,0.71123 0.406409,0.94543 0.215619,0.2345 0.473742,0.4163 0.767991,0.5862 0.588307,0.3398 1.330029,0.6232 2.145742,0.868 1.212162,0.3641 2.569429,0.6349 3.749624,0.7506 -1.17372,2.0249 -2.736075,3.885 -4.105419,5.6672 -1.582638,2.0595 -2.964347,4.0348 -2.964347,6.229 0,0.3136 -0.0096,0.5582 0.02412,0.8042 0.02901,0.2457 0.09814,0.5528 0.34516,0.7957 0.247016,0.2435 0.54928,0.3087 0.795526,0.3355 0.246335,0.027 0.494409,0.022 0.81262,0.022 l 8.731332,0 c 0.633905,0 1.098078,0.038 1.57549,-0.2687 0.477507,-0.3073 0.651679,-0.7269 0.991823,-1.3539 l 0.0096,-0.022 0.0097,-0.022 c 0,0 0.761036,-1.5492 1.669107,-3.0866 0.454027,-0.7686 0.946994,-1.5342 1.375811,-2.0766 0.214552,-0.2713 0.415104,-0.4862 0.559617,-0.6076 0.0444,-0.036 0.06475,-0.043 0.09274,-0.058 0.02901,0.022 0.04833,0.022 0.09274,0.058 0.14452,0.1218 0.34516,0.3363 0.559617,0.6076 0.428824,0.5424 0.921686,1.308 1.375722,2.0766 0.908064,1.5374 1.669291,3.0866 1.669291,3.0866 l 0.0097,0.022 0.0096,0.022 c 0.340232,0.627 0.512672,1.0442 0.98708,1.3522 0.474126,0.3079 0.937338,0.2702 1.562163,0.2702 l 8.769974,0 c 0.313089,0 0.557301,0 0.801897,-0.024 0.2445,-0.027 0.547837,-0.095 0.792241,-0.3393 0.24421,-0.2449 0.31183,-0.5485 0.338878,-0.7931 0.02805,-0.2448 0.02412,-0.4894 0.02412,-0.8028 0,-2.1944 -1.381709,-4.1697 -2.964348,-6.2295 -1.369439,-1.782 -2.931506,-3.642 -4.105515,-5.6669 1.180292,-0.1152 2.537559,-0.3865 3.749632,-0.7504 0.815809,-0.245 1.557524,-0.5282 2.145734,-0.868 0.294257,-0.1692 0.552573,-0.352 0.767991,-0.5862 0.215426,-0.2344 0.406506,-0.55363 0.406506,-0.94553 0,-0.9208 -0.542908,-1.70131 -1.278532,-2.39441 -0.735631,-0.6934 -1.713054,-1.3384 -2.834036,-1.9797 -2.136942,-1.2224 -4.791196,-2.4184 -7.187327,-3.6043 -0.06379,-1.2775 -0.390375,-2.7364 -1.175363,-3.9938 -0.877924,-1.40614 -2.397966,-2.5257 -4.51154,-2.5257 z"
       inkscape:connector-curvature="0"
       style="fill:#800000;fill-opacity:1;stroke:none;stroke-width:0.99999994;stroke-opacity:1" />
    <path
       transform="matrix(2.6274656,0,0,2.6325319,-982.2188,-1952.3843)"
       sodipodi:type="star"
       style="font-style:normal;font-weight:normal;font-size:medium;line-height:125%;font-family:sans-serif;letter-spacing:0px;word-spacing:0px;fill:#d8c586;fill-opacity:1;stroke:none;stroke-width:0.09605665;stroke-linecap:butt;stroke-linejoin:round;stroke-miterlimit:4;stroke-dasharray:none;stroke-dashoffset:0;stroke-opacity:1"
       id="path13336"
       sodipodi:sides="6"
       sodipodi:cx="407.40814"
       sodipodi:cy="1113.0243"
       sodipodi:r1="11.162703"
       sodipodi:r2="9.6671848"
       sodipodi:arg1="-1.0471976"
       sodipodi:arg2="-0.52359878"
       inkscape:flatsided="true"
       inkscape:rounded="0"
       inkscape:randomized="0"
       d="m 412.98949,1103.3571 5.58135,9.6672 -5.58135,9.6672 -11.1627,0 -5.58135,-9.6672 5.58135,-9.6672 z" />
    <path
       transform="matrix(2.6274656,0,0,2.6325319,-937.37036,-1925.5433)"
       sodipodi:type="star"
       style="font-style:normal;font-weight:normal;font-size:medium;line-height:125%;font-family:sans-serif;letter-spacing:0px;word-spacing:0px;fill:#d8c586;fill-opacity:1;stroke:none;stroke-width:0.09605665;stroke-linecap:butt;stroke-linejoin:round;stroke-miterlimit:4;stroke-dasharray:none;stroke-dashoffset:0;stroke-opacity:1"
       id="path13394"
       sodipodi:sides="6"
       sodipodi:cx="407.40814"
       sodipodi:cy="1113.0243"
       sodipodi:r1="11.162703"
       sodipodi:r2="9.6671848"
       sodipodi:arg1="-1.0471976"
       sodipodi:arg2="-0.52359878"
       inkscape:flatsided="true"
       inkscape:rounded="0"
       inkscape:randomized="0"
       d="m 412.98949,1103.3571 5.58135,9.6672 -5.58135,9.6672 -11.1627,0 -5.58135,-9.6672 5.58135,-9.6672 z" />
    <path
       style="fill:#008000;fill-opacity:1;stroke:none;stroke-width:0.99999994;stroke-opacity:1"
       inkscape:connector-curvature="0"
       d="m 134.22087,985.66227 c -2.11347,0 -3.63361,1.11977 -4.51154,2.52593 -0.78509,1.2576 -1.1117,2.7163 -1.17536,3.9938 -2.39604,1.1861 -5.05029,2.3819 -7.18724,3.6043 -1.12107,0.6415 -2.0984,1.2865 -2.83403,1.9797 -0.73563,0.6931 -1.27854,1.47371 -1.27854,2.3945 0,0.3918 0.19118,0.7112 0.40641,0.9454 0.21562,0.2345 0.47374,0.4163 0.76799,0.5862 0.58831,0.3398 1.33003,0.6232 2.14575,0.868 1.21216,0.3641 2.56942,0.6349 3.74962,0.7506 -1.17372,2.0249 -2.73608,3.885 -4.10542,5.6672 -1.58264,2.0595 -2.96435,4.0348 -2.96435,6.229 0,0.3136 -0.01,0.5582 0.0241,0.8042 0.029,0.2457 0.0981,0.5528 0.34516,0.7957 0.24702,0.2435 0.54928,0.3087 0.79553,0.3355 0.24633,0.027 0.49441,0.022 0.81262,0.022 l 8.73133,0 c 0.63391,0 1.09808,0.038 1.57549,-0.2687 0.47751,-0.3073 0.65168,-0.7269 0.99182,-1.3539 l 0.01,-0.022 0.01,-0.022 c 0,0 0.76104,-1.5492 1.66911,-3.0866 0.45403,-0.7686 0.947,-1.5342 1.37581,-2.0766 0.21455,-0.2713 0.41511,-0.4862 0.55962,-0.6076 0.0444,-0.036 0.0648,-0.043 0.0927,-0.058 0.029,0.022 0.0483,0.022 0.0927,0.058 0.14452,0.1218 0.34516,0.3363 0.55962,0.6076 0.42882,0.5424 0.92168,1.308 1.37572,2.0766 0.90806,1.5374 1.66929,3.0866 1.66929,3.0866 l 0.01,0.022 0.01,0.022 c 0.34023,0.627 0.51267,1.0442 0.98708,1.3522 0.47413,0.3079 0.93734,0.2702 1.56216,0.2702 l 8.76998,0 c 0.31309,0 0.5573,0 0.80189,-0.024 0.2445,-0.027 0.54784,-0.095 0.79224,-0.3393 0.24421,-0.2449 0.31183,-0.5485 0.33888,-0.7931 0.028,-0.2448 0.0241,-0.4894 0.0241,-0.8028 0,-2.1944 -1.38171,-4.1697 -2.96435,-6.2295 -1.36943,-1.782 -2.9315,-3.642 -4.10551,-5.6669 1.18029,-0.1152 2.53756,-0.3865 3.74963,-0.7504 0.81581,-0.245 1.55753,-0.5282 2.14574,-0.868 0.29425,-0.1692 0.55257,-0.352 0.76799,-0.5862 0.21542,-0.2344 0.4065,-0.5536 0.4065,-0.9455 0,-0.92079 -0.54291,-1.7013 -1.27853,-2.3944 -0.73563,-0.6934 -1.71305,-1.3384 -2.83404,-1.9797 -2.13694,-1.2224 -4.79119,-2.4184 -7.18732,-3.6043 -0.0638,-1.2775 -0.39038,-2.7364 -1.17537,-3.9938 -0.87792,-1.40614 -2.39796,-2.5257 -4.51154,-2.5257 z"
       id="path13396" />
    <g
       transform="matrix(0.65419828,0,0,0.65419828,65.793925,309.0123)"
       style="font-style:normal;font-weight:normal;font-size:48.97977448px;line-height:125%;font-family:sans-serif;letter-spacing:0px;word-spacing:0px;fill:#42290d;fill-opacity:1;stroke:none;stroke-width:1px;stroke-linecap:butt;stroke-linejoin:miter;stroke-opacity:1"
       id="g13398">
      <path
         inkscape:connector-curvature="0"
         d="m 44.955218,1014.453 q 0.669646,0 1.291459,0.2631 0.621814,0.263 1.076216,0.7174 0.478318,0.4305 0.741393,1.0284 0.286991,0.574 0.286991,1.2197 l 0,18.0087 q 0,0.6936 -0.263075,1.2915 -0.239159,0.5979 -0.693561,1.0523 -0.454402,0.4783 -1.0523,0.7414 -0.597898,0.263 -1.267543,0.263 l -22.887522,0 q -0.693561,0 -1.315374,-0.263 -0.597898,-0.2631 -1.0523,-0.7414 -0.454402,-0.4544 -0.717477,-1.0523 -0.263075,-0.5979 -0.263075,-1.2915 l 0,-18.0087 q 0,-0.6457 0.263075,-1.2197 0.28699,-0.5979 0.741393,-1.0284 0.478318,-0.4544 1.076215,-0.7174 0.597898,-0.2631 1.267543,-0.2631 l 0,-3.8744 q 0,-2.4394 0.406571,-4.544 0.40657,-2.1046 1.626281,-3.6352 1.243627,-1.5546 3.467807,-2.41555 2.248095,-0.88489 5.907228,-0.88489 3.68305,0 5.907229,0.88489 2.248095,0.86095 3.44389,2.41555 1.219712,1.5306 1.602366,3.6352 0.40657,2.1046 0.40657,4.544 l 0,3.8744 z m -17.889097,-3.8744 0,3.7548 13.058085,0 0,-3.7548 q 0,-1.8176 -0.143496,-3.0612 -0.143495,-1.2676 -0.789225,-2.0329 -0.621813,-0.7653 -1.937188,-1.1001 -1.315375,-0.3348 -3.659134,-0.3348 -2.319842,0 -3.635217,0.3348 -1.291459,0.3348 -1.937189,1.1001 -0.645729,0.7653 -0.81314,2.0329 -0.143496,1.2436 -0.143496,3.0612 z"
         id="path13400"
         style="fill:#42290d;fill-opacity:1" />
    </g>
    <path
       d="m 412.98949,1103.3571 5.58135,9.6672 -5.58135,9.6672 -11.1627,0 -5.58135,-9.6672 5.58135,-9.6672 z"
       inkscape:randomized="0"
       inkscape:rounded="0"
       inkscape:flatsided="true"
       sodipodi:arg2="-0.52359878"
       sodipodi:arg1="-1.0471976"
       sodipodi:r2="9.6671848"
       sodipodi:r1="11.162703"
       sodipodi:cy="1113.0243"
       sodipodi:cx="407.40814"
       sodipodi:sides="6"
       id="path13469"
       style="font-style:normal;font-weight:normal;font-size:medium;line-height:125%;font-family:sans-serif;letter-spacing:0px;word-spacing:0px;fill:#d8c586;fill-opacity:1;stroke:none;stroke-width:0.09605665;stroke-linecap:butt;stroke-linejoin:round;stroke-miterlimit:4;stroke-dasharray:none;stroke-dashoffset:0;stroke-opacity:1"
       sodipodi:type="star"
       transform="matrix(2.6274656,0,0,2.6325319,-936.50451,-1977.7414)" />
    <path
       style="fill:#42290d;fill-opacity:1;stroke:none;stroke-width:10;stroke-linecap:round;stroke-linejoin:round;stroke-miterlimit:4;stroke-dasharray:none;stroke-dashoffset:0;stroke-opacity:1"
       d="m 132.52392,932.14392 c -0.52306,0.0136 -1.32762,0.23719 -1.24313,0.56205 0.27268,0.29021 0.4384,0.70437 0.63246,1.07654 0.43277,0.82983 0.76555,1.76405 1.0322,2.87117 0.24591,0.1729 0.33449,0.14721 0.69541,0.0666 0.24096,-0.0544 0.44879,-0.0856 0.52492,-0.27307 0.1082,-0.30556 0.18073,-0.60515 0.26582,-0.91329 0.0943,-0.34185 0.20433,-0.69295 0.39589,-1.04514 0.39508,-0.72652 0.7986,-1.32922 1.01538,-1.89712 0.0799,-0.23407 -0.54216,-0.33152 -0.79308,-0.33261 -0.5372,0 -1.22072,0.0163 -2.223,-0.0897 -0.0763,-0.0204 -0.18217,-0.0285 -0.30287,-0.0245 z m -1.86181,0.32282 c -0.0609,0 -0.12152,0 -0.17593,0.034 -0.72619,0.39364 -1.43844,0.0951 -1.97842,0.60324 -0.18016,0.1695 -0.22871,0.45073 -0.057,0.62879 1.04468,1.08333 1.10907,1.43525 2.04993,3.18339 0.68924,0.48594 1.45668,0.11418 1.66932,0.0231 0.22633,-0.0992 0.39213,-0.30692 0.32075,-0.5437 -0.13849,-1.53013 -0.76731,-2.28098 -1.46075,-3.57418 -0.003,-0.18554 -0.18535,-0.33941 -0.36793,-0.35504 z m 5.64996,0.17154 c -0.18256,0.0163 -0.36465,0.16977 -0.3679,0.35518 -0.69344,1.29334 -1.32226,2.04406 -1.46075,3.57418 -0.0714,0.23692 0.0943,0.44407 0.32075,0.54384 1.14601,0.50524 0.75578,0.15319 1.26307,0.23502 0.24422,0.0394 0.41779,-0.0408 0.53502,-0.25826 0.94084,-1.74829 1.00523,-2.1002 2.04993,-3.18353 0.17172,-0.17807 0.12315,-0.45957 -0.057,-0.62907 -0.53997,-0.50796 -1.38101,-0.20933 -2.10717,-0.60283 -0.0542,-0.0299 -0.11513,-0.0394 -0.17592,-0.034 z m -8.66061,0.81325 c -0.0609,0 -0.1192,0.0258 -0.16762,0.0639 -0.64772,0.51258 -1.52758,0.36279 -1.97221,0.95611 -0.14834,0.19791 -0.15235,0.48961 0.0519,0.62934 1.26008,0.86204 1.56897,1.09203 2.56681,2.78363 0.7625,0.36021 1.58137,-0.16012 1.77528,-0.28571 0.20582,-0.13729 0.3336,-0.37 0.22256,-0.59101 -0.39942,-1.4835 -1.14787,-2.11515 -2.05329,-3.26998 -0.0351,-0.18214 -0.24083,-0.30257 -0.42335,-0.28667 z m 11.63264,0.30678 c -0.18274,-0.0136 -0.38676,0.11011 -0.41921,0.29279 -0.8884,1.16801 -1.62769,1.8104 -2.00535,3.29961 -0.10779,0.22265 0.0232,0.45331 0.23112,0.58761 0.19573,0.12233 1.02227,0.6311 1.77942,0.25989 1.20436,-1.57838 1.32338,-1.91574 2.52561,-2.82101 0.19762,-0.14884 0.19399,-0.43415 0.0427,-0.62989 -0.45325,-0.58679 -1.33076,-0.42436 -1.98593,-0.92728 -0.0489,-0.0381 -0.10751,-0.0571 -0.16841,-0.0612 z m -14.42046,1.15823 c -0.0934,0 -0.18366,0.0381 -0.24484,0.10738 -0.54466,0.62092 -1.43666,0.63247 -1.76699,1.2962 -0.11023,0.22142 -0.0601,0.50551 0.16426,0.60963 1.38124,0.64102 1.93128,0.79911 3.14069,2.25229 0.81496,0.21667 1.41263,-0.42028 1.58072,-0.57877 0.17769,-0.17208 0.26128,-0.42395 0.11214,-0.62132 -0.66044,-1.38713 -1.51043,-1.87333 -2.6093,-2.84589 -0.0561,-0.14408 -0.22104,-0.22455 -0.37672,-0.21925 z m 17.17278,0.41213 c -0.15565,0 -0.32083,0.0748 -0.37698,0.21898 -1.09886,0.97255 -1.94884,1.45876 -2.6093,2.84589 -0.14908,0.19736 -0.0655,0.44937 0.11214,0.62159 0.16809,0.15849 0.87976,0.818 1.6947,0.6012 1.48867,-1.31346 1.67118,-1.87837 3.0267,-2.53231 0.22281,-0.10738 0.27474,-0.38847 0.16454,-0.6099 -0.33031,-0.66373 -1.2226,-0.41743 -1.76727,-1.03834 -0.0613,-0.0693 -0.15118,-0.1033 -0.24459,-0.10738 z m -19.55174,1.5955 c -0.15574,-0.0136 -0.32284,0.0639 -0.38242,0.20648 -0.31823,0.76227 -0.98464,0.99865 -1.26333,1.68562 -0.093,0.2293 -0.0215,0.51013 0.21064,0.59549 0.424,0.15577 2.40353,0.9421 2.79533,1.157 0.41047,0.22523 0.26472,0.25622 0.95915,0.54357 0.22507,0.0938 0.42519,0.0829 0.5498,-0.0299 0.42376,-0.38413 0.73162,-0.74991 0.9708,-1.10726 0.1135,-0.21979 -0.0852,-0.40791 -0.28939,-0.54751 -1.06827,-1.10399 -1.95674,-1.81787 -3.30834,-2.38931 -0.0595,-0.0707 -0.1488,-0.10874 -0.24224,-0.11418 z m 22.49631,0.0245 c -0.0934,0 -0.18276,0.0435 -0.24226,0.11418 -1.35164,0.57143 -2.5149,1.56016 -3.58321,2.66429 -0.42781,0.31358 0.50676,1.80388 1.3224,1.7351 1.17728,-0.8301 2.46911,-1.35043 4.02937,-1.92404 0.23219,-0.0856 0.30337,-0.36618 0.21039,-0.59536 -0.27871,-0.6871 -1.03603,-1.0261 -1.35428,-1.78824 -0.0595,-0.14272 -0.22667,-0.2168 -0.38241,-0.2062 z m -12.11171,0.56409 c -0.63393,0.0381 -1.24666,0.12506 -1.83124,0.26085 l 0,2.09503 -1.95484,0 0,-1.42546 c -0.67035,0.31086 -1.28485,0.68887 -1.83099,1.12384 l 0,0.30162 -0.35548,0 c -0.60855,0.54275 -1.11999,1.15931 -1.51438,1.83106 l 1.86986,0 0,1.97215 -2.64662,0 c -0.0165,0.0748 -0.0333,0.14993 -0.0472,0.22564 l -0.2907,1.60556 2.98446,0 0,2.39502 0.91537,2.8728 0.91562,-2.8728 0,-2.39502 1.95484,0 0,2.39502 0.91563,2.8728 0.91561,-2.8728 0,-2.39502 1.95511,0 0,2.39502 0.91564,2.8728 0.9151,-2.8728 0,-2.39502 1.95509,0 0,2.39502 0.91563,2.8728 0.91564,-2.8728 0,-2.39502 2.95101,0 -0.32126,-1.29646 c 0,-0.17317 -0.0245,-0.35191 -0.0701,-0.53474 l -2.55956,0 0,-1.97215 1.39727,0 c -0.81747,-0.92647 -1.96813,-1.83487 -3.22851,-2.56901 l 0,0.73795 -1.95511,0 0,-1.6931 c -0.61967,-0.24548 -1.23718,-0.43265 -1.83073,-0.54928 l 0,2.24238 -1.9551,0 0,-2.35588 z m 14.36424,2.04964 c -0.0613,0 -0.12071,0.019 -0.17126,0.0557 -1.26234,0.45059 -2.5959,1.16448 -4.15063,1.6462 -0.2334,0.0815 -0.30306,0.33805 -0.25028,0.57959 0.26734,1.22361 0.62235,1.08496 0.69332,1.57633 0.0353,0.24481 0.3772,0.39283 0.57959,0.25052 1.17629,-0.8263 2.33142,-1.49913 4.15063,-1.64593 0.24656,-0.0204 0.32775,-0.34485 0.25055,-0.57987 -0.23141,-0.70437 -0.58349,-0.75765 -0.6936,-1.57633 -0.0247,-0.18377 -0.22457,-0.31277 -0.40832,-0.3057 z m -27.01821,0.0245 c -0.18376,0 -0.38386,0.12234 -0.40859,0.30597 -0.1101,0.81855 -0.43912,0.78103 -0.67052,1.4854 -0.0772,0.23502 0.0122,0.51014 0.25027,0.57959 1.59562,0.46637 2.97671,0.78389 4.20764,1.5323 0.21137,0.12913 0.54423,0 0.57957,-0.25065 0.071,-0.49137 0.34645,-0.14775 0.61379,-1.37136 0.0527,-0.24167 -0.017,-0.49789 -0.25054,-0.57972 -1.31768,-0.79001 -2.69688,-1.44395 -4.15036,-1.64607 -0.0504,-0.0353 -0.10996,-0.053 -0.17126,-0.0557 z m 8.86789,2.11311 1.95484,0 0,1.97229 -1.95484,0 0,-1.97229 z m 3.78608,0 1.95511,0 0,1.97229 -1.95511,0 0,-1.97229 z m 3.78584,0 1.9551,0 0,1.97229 -1.9551,0 0,-1.97229 z m 11.76737,0.44435 c -0.0614,8.1e-4 -0.12138,0.0163 -0.17282,0.0516 -1.4581,0.16542 -2.85358,0.78443 -4.19079,1.54086 -0.2354,0.0761 -0.28875,0.3269 -0.26479,0.57306 0.0676,0.69336 0.01,1.0359 -0.0738,1.52537 -0.0416,0.24371 0.18843,0.23474 0.42907,0.17738 1.40133,-0.3337 2.83947,-0.0979 4.50117,-0.0516 0.24728,0 0.41743,-0.22727 0.41638,-0.47466 -0.004,-0.74134 -0.15441,-2.20431 -0.24382,-3.02531 -0.0201,-0.18445 -0.21667,-0.31847 -0.40055,-0.31616 z m -29.58866,0.14231 c -0.18363,0.0136 -0.37101,0.15604 -0.37904,0.34145 -0.0359,0.8252 -0.0913,2.1127 -0.0466,2.85282 0.0148,0.24697 0.20036,0.46949 0.44665,0.44638 1.65515,-0.15469 3.04483,-0.24181 4.4649,0 0.24387,0.0421 0.50406,-0.20579 0.44669,-0.44638 -0.11527,-0.48295 -0.19532,-0.63886 -0.17309,-1.33507 0.008,-0.24725 -0.0619,-0.49423 -0.30183,-0.55472 -1.3836,-0.6678 -2.81646,-1.19479 -4.28223,-1.26493 -0.0537,-0.0313 -0.11418,-0.0435 -0.17543,-0.0394 z m 2.33285,3.75605 c -0.75018,-0.0136 -1.48102,0.0394 -2.17453,0.17534 -0.24057,-0.0571 -0.39308,0.20498 -0.44669,0.44639 -0.16774,0.75561 -0.16901,1.40914 0,2.16476 0.0541,0.2414 0.20126,0.47737 0.44669,0.44638 1.65798,-0.20946 3.01239,-0.15999 4.46489,0 0.24589,0.0272 0.50407,-0.20579 0.44666,-0.44638 -0.11512,-0.48295 0.20259,-0.92879 0,-2.16476 -0.0401,-0.24413 -0.19948,-0.45631 -0.44666,-0.44639 -0.77087,-0.0992 -1.5402,-0.16623 -2.29036,-0.17534 z m 25.24993,0 c -0.75017,0.0136 -1.51976,0.0761 -2.29063,0.17534 -0.24715,-0.0136 -0.40639,0.20226 -0.44641,0.44639 -0.20255,1.23597 0.11513,1.78403 0,2.26711 -0.0574,0.24059 0.19987,0.4665 0.44641,0.44638 1.46846,-0.11961 2.82155,-0.29863 4.46518,0 0.24338,0.0435 0.39242,-0.20497 0.44641,-0.44638 0.169,-0.75561 0.16775,-1.5115 0,-2.26711 -0.0537,-0.24141 -0.20585,-0.50402 -0.44641,-0.44639 -0.69352,-0.13592 -1.42437,-0.18458 -2.17455,-0.17534 z m -0.0245,3.35126 c -0.75015,0.0136 -1.51974,0.0775 -2.29061,0.17562 -0.24716,-0.0136 -0.35871,0.21517 -0.4464,0.44652 -0.43366,1.14341 0.04,1.60189 0,2.11487 -0.0192,0.24671 0.19981,0.42708 0.4464,0.44638 1.49177,0.11826 2.86214,0.30326 4.46517,0 0.24305,-0.0462 0.3924,-0.20497 0.44642,-0.44638 0.169,-0.75561 0.16773,-1.35926 0,-2.11487 -0.0537,-0.24154 -0.20586,-0.50415 -0.44642,-0.44652 -0.69351,-0.13593 -1.42439,-0.18473 -2.17456,-0.17562 z m -25.15588,0.0571 c -0.75009,-0.0136 -1.49585,0.0217 -2.21986,0.11826 -0.24055,-0.0571 -0.39307,0.20497 -0.44668,0.44638 -0.16775,0.75561 -0.16901,1.5115 0,2.26711 0.054,0.24141 0.20016,0.42572 0.44668,0.44638 1.60314,0.13457 2.97318,0.0911 4.46489,0 0.24691,-0.0149 0.46589,-0.19981 0.44668,-0.44638 -0.04,-0.51312 0.43363,-1.12356 0,-2.26711 -0.0877,-0.23121 -0.19951,-0.45631 -0.44668,-0.44638 -0.74066,-0.0612 -1.49492,-0.1101 -2.24503,-0.11826 z m 27.41982,3.34148 c -0.0294,0 -0.0594,1.3e-4 -0.0894,0.0136 -1.58356,0.3795 -2.95048,0.0612 -4.46516,0 -0.24717,-0.0136 -0.46116,0.19981 -0.44641,0.44665 0.0681,1.14355 0.12465,1.75372 0,2.26684 -0.0583,0.24032 0.19915,0.43973 0.44641,0.44639 1.32437,0.0353 2.77525,0.20266 4.46516,0 0.24561,-0.0299 0.40293,-0.20281 0.44643,-0.44639 0.13497,-0.75561 -0.0886,-1.51122 0,-2.26684 0.0251,-0.2149 -0.15134,-0.43972 -0.35703,-0.45386 z m -29.72934,0.1366 c -0.20568,0.0136 -0.38221,0.23896 -0.35702,0.45386 0.0886,0.75561 -0.13498,1.37462 0,2.13024 0.0435,0.24358 0.19955,0.43537 0.44668,0.44651 1.68992,0.0761 3.14053,-0.22183 4.46489,0 0.24397,0.0408 0.50505,-0.20606 0.44668,-0.44651 -0.12464,-0.51299 -0.0681,-0.98669 0,-2.13024 0.0147,-0.24684 -0.19951,-0.45658 -0.44668,-0.44665 -1.51468,0.0612 -2.88131,0.3795 -4.46489,0 -0.03,-0.0136 -0.0602,-0.0136 -0.0896,-0.0136 z m 3.42181,3.15104 c -1.10959,0 -2.16718,0.17426 -3.33215,0.0707 -0.24642,-0.0217 -0.41063,0.20198 -0.44668,0.44665 -0.11133,0.75561 -0.32368,1.51123 0,2.26684 0.0973,0.22741 0.1994,0.37393 0.44668,0.36687 1.68992,-0.0476 3.52482,-0.19859 4.57863,0.0231 0.24209,0.0503 0.44175,-0.1994 0.44667,-0.44665 0.0109,-0.51312 0.12206,-1.06634 -0.11377,-2.20989 -0.05,-0.24222 -0.20166,-0.41267 -0.44668,-0.44665 -0.38727,-0.0544 -0.76287,-0.072 -1.13274,-0.072 z m 21.75298,0.0707 c -0.24693,-0.015 -0.39645,0.20443 -0.4464,0.44665 -0.23584,1.14355 -0.0109,1.75372 0,2.26684 0.005,0.24725 0.19964,0.46378 0.4464,0.44638 1.32437,-0.0938 2.77525,-0.0476 4.46517,0 0.24726,0 0.34902,-0.21897 0.44642,-0.44638 0.32367,-0.75561 0.11132,-1.51123 0,-2.26684 -0.0362,-0.24467 -0.20082,-0.47615 -0.44642,-0.44665 -1.5533,0.18621 -2.91607,0.0924 -4.46517,0 z m -21.75298,3.19182 c -1.10959,0 -2.16718,0.17412 -3.33215,0.0707 -0.24642,-0.0217 -0.41063,0.20158 -0.44668,0.44638 -0.11133,0.75561 -0.32368,1.37489 0,2.13051 0.0973,0.2274 0.20231,0.40791 0.44668,0.44638 1.68992,0.26574 3.14053,0.0326 4.46489,0 0.24729,-0.0136 0.44175,-0.19913 0.44668,-0.44638 0.0109,-0.51312 0.23582,-0.98696 0,-2.13051 -0.05,-0.24222 -0.20166,-0.4124 -0.44668,-0.44638 -0.38727,-0.053 -0.76287,-0.072 -1.13274,-0.0707 z m 21.75298,0.0707 c -0.24655,-0.0204 -0.39645,0.20416 -0.4464,0.44638 -0.23584,1.14355 -0.0109,1.75399 0,2.26698 0.005,0.24738 0.19911,0.44026 0.4464,0.44652 1.32437,0.0326 2.77525,0.26573 4.46517,0 0.24437,-0.0381 0.34902,-0.21912 0.44642,-0.44652 0.32367,-0.75562 0.11132,-1.51137 0,-2.26698 -0.0362,-0.2448 -0.20067,-0.47465 -0.44642,-0.44638 -0.77224,0.0883 -1.45666,0.0408 -2.18233,0.034 -0.73669,0 -1.51462,0.0285 -2.28284,-0.034 z m -25.17297,3.25951 c -0.19557,0.0204 -0.32729,0.2357 -0.35884,0.44978 -0.11133,0.75575 -0.32368,1.5115 0,2.26711 0.0973,0.22741 0.2056,0.39093 0.44668,0.44639 1.29459,0.29781 2.83853,0.0272 4.46489,0 0.24735,0 0.44175,-0.19914 0.44668,-0.44639 0.0109,-0.51312 0.23582,-1.12356 0,-2.26711 -0.05,-0.24222 -0.20091,-0.47438 -0.44668,-0.44638 -1.42327,0.1627 -2.86146,0.28762 -4.46489,0 -0.0304,-0.0136 -0.0599,-0.0136 -0.0878,0 z m 29.7257,0.0911 c -0.028,0 -0.0571,0 -0.0875,0 -1.60342,0.28776 -3.04188,0.1627 -4.46516,0 -0.24578,-0.0285 -0.39646,0.20443 -0.44642,0.44665 -0.23583,1.14355 -0.0109,1.75372 0,2.26685 0.005,0.24738 0.20153,0.48131 0.44642,0.44638 1.48836,-0.21191 2.9768,-0.0381 4.46516,0 0.2473,0 0.34903,-0.21898 0.44642,-0.44638 0.32367,-0.75562 0.11132,-1.5111 0,-2.26685 -0.0315,-0.21408 -0.16328,-0.42884 -0.35885,-0.44991 z m -32.38216,3.13582 c -0.35969,0 -0.64384,0.34974 -0.64384,0.72204 l 0,0.62703 c 0,0.39717 0.32104,0.68235 0.71666,0.71687 2.29322,0.20049 4.54393,0.367 6.76639,0.40343 6.58214,0.12777 14.60215,0.0992 22.12452,-0.0285 2.35242,-0.0489 3.76166,-0.3246 6.15185,-0.37434 0.397,-0.0136 0.71663,-0.31984 0.71663,-0.71688 l 0,-0.62703 c 0,-0.39717 -0.32039,-0.74311 -0.71663,-0.71687 -1.49798,0.0992 -2.99994,0.28653 -4.50818,0.24738 -5.95922,-0.15482 -12.23445,0.47656 -18.61177,-0.0408 -3.90322,-0.31671 -7.8382,0.35449 -11.92281,-0.20648 -0.0246,0 -0.0489,0 -0.0729,0 z"
       id="path9375"
       inkscape:connector-curvature="0" />
    <text
       xml:space="preserve"
       style="font-style:normal;font-weight:normal;font-size:17.04800224px;line-height:125%;font-family:sans-serif;letter-spacing:0px;word-spacing:0px;fill:#42290d;fill-opacity:1;stroke:none;stroke-width:1px;stroke-linecap:butt;stroke-linejoin:miter;stroke-opacity:1"
       x="127.00163"
       y="963.96466"
       id="text13502"
       sodipodi:linespacing="125%"><tspan
         sodipodi:role="line"
         id="tspan13504"
         x="127.00163"
         y="963.96466"
         style="font-style:normal;font-variant:normal;font-weight:normal;font-stretch:normal;font-family:'Archivo Black';-inkscape-font-specification:'Archivo Black, ';fill:#42290d;fill-opacity:1">D</tspan></text>
  </g>
</svg>
