<?xml version="1.0" encoding="UTF-8" standalone="no"?>
<!-- Created with Inkscape (http://www.inkscape.org/) -->

<svg
   xmlns:dc="http://purl.org/dc/elements/1.1/"
   xmlns:cc="http://creativecommons.org/ns#"
   xmlns:rdf="http://www.w3.org/1999/02/22-rdf-syntax-ns#"
   xmlns:svg="http://www.w3.org/2000/svg"
   xmlns="http://www.w3.org/2000/svg"
   xmlns:sodipodi="http://sodipodi.sourceforge.net/DTD/sodipodi-0.dtd"
   xmlns:inkscape="http://www.inkscape.org/namespaces/inkscape"
   width="450"
   height="325"
   viewBox="0 0 450.00001 325"
   id="svg5199"
   version="1.1"
   inkscape:version="0.91 r13725"
   sodipodi:docname="figure_alerts_lockdown.svg">
  <defs
     id="defs5201" />
  <sodipodi:namedview
     id="base"
     pagecolor="#ffffff"
     bordercolor="#666666"
     borderopacity="1.0"
     inkscape:pageopacity="0.0"
     inkscape:pageshadow="2"
     inkscape:zoom="0.98994949"
     inkscape:cx="103.05981"
     inkscape:cy="113.91674"
     inkscape:document-units="px"
     inkscape:current-layer="layer1"
     showgrid="false"
     units="px"
     borderlayer="true"
     inkscape:window-width="1920"
     inkscape:window-height="1017"
     inkscape:window-x="-8"
     inkscape:window-y="-8"
     inkscape:window-maximized="1" />
  <metadata
     id="metadata5204">
    <rdf:RDF>
      <cc:Work
         rdf:about="">
        <dc:format>image/svg+xml</dc:format>
        <dc:type
           rdf:resource="http://purl.org/dc/dcmitype/StillImage" />
        <dc:title />
      </cc:Work>
    </rdf:RDF>
  </metadata>
  <g
     inkscape:label="Layer 1"
     inkscape:groupmode="layer"
     id="layer1"
     transform="translate(0,-727.36216)">
    <path
       style="fill:#000000;fill-opacity:1;stroke:none;stroke-width:10;stroke-linecap:round;stroke-linejoin:round;stroke-miterlimit:4;stroke-dasharray:none;stroke-dashoffset:0;stroke-opacity:1"
       d="m 104.81795,786.72062 c -2.96731,0.0803 -7.531161,1.34711 -7.051931,3.19279 1.54692,1.64938 2.487571,4.00036 3.588321,6.11482 2.45508,4.71541 4.34208,10.0271 5.85468,16.31784 1.39503,0.9824 1.89844,0.83596 3.94587,0.37493 1.36691,-0.30723 2.54566,-0.48702 2.97745,-1.55125 0.6139,-1.73662 1.02366,-3.44063 1.50624,-5.19168 0.53538,-1.94235 1.15884,-3.93641 2.24543,-5.93788 2.24127,-4.12781 4.53107,-7.55234 5.76086,-10.77908 0.45345,-1.33016 -3.07435,-1.88466 -4.49775,-1.89131 -3.04747,-0.017 -6.92562,0.0905 -12.61149,-0.51036 -0.43242,-0.11544 -1.03306,-0.1576 -1.71768,-0.13882 z m -10.564022,1.83236 c -0.345364,-0.0342 -0.687476,0.0284 -0.995951,0.19459 -4.11961,2.2361 -8.160135,0.54221 -11.223219,3.42873 -1.022064,0.96319 -1.297317,2.56268 -0.322585,3.57457 5.926438,6.15582 6.292098,8.15383 11.62938,18.08767 3.910116,2.76078 8.260917,0.64513 9.467197,0.13195 1.28396,-0.56667 2.22711,-1.74287 1.82202,-3.08862 -0.78555,-8.69444 -4.35363,-12.95993 -8.287362,-20.3088 -0.01708,-1.05393 -1.050112,-1.92744 -2.085673,-2.01627 l 0,-0.003 z m 32.052612,0.97519 c -1.03555,0.0887 -2.06717,0.96573 -2.08565,2.01979 -3.93375,7.34881 -7.50164,11.61436 -8.28737,20.30874 -0.4051,1.34575 0.53425,2.5216 1.8186,3.08868 6.50113,2.87087 4.28876,0.87151 7.16635,1.33607 1.38563,0.22359 2.36804,-0.23043 3.03309,-1.46795 5.33728,-9.93392 5.70277,-11.9319 11.62926,-18.08773 0.97406,-1.01177 0.69903,-2.61133 -0.32259,-3.57451 -3.06311,-2.88675 -7.83271,-1.19259 -11.95209,-3.42874 -0.3078,-0.16785 -0.6544,-0.22417 -0.99949,-0.19458 z m -49.130399,4.62257 c -0.344792,0.0341 -0.675915,0.14679 -0.950776,0.36414 -3.674519,2.91212 -8.666396,2.05995 -11.188623,5.43116 -0.841538,1.12475 -0.863394,2.78417 0.294707,3.57796 7.148445,4.89862 8.9011,6.20575 14.561784,15.81807 4.325513,2.04641 8.971066,-0.91043 10.07114,-1.62414 1.167538,-0.77967 1.893064,-2.1033 1.26314,-3.35937 -2.265798,-8.42971 -6.513729,-12.01833 -11.650059,-18.58051 -0.198558,-1.03508 -1.366006,-1.71824 -2.40155,-1.62758 z m 65.989659,1.74219 c -1.03681,-0.0757 -2.19337,0.62432 -2.37725,1.66231 -5.03984,6.63676 -9.23353,10.28854 -11.37603,18.75056 -0.61163,1.26506 0.13139,2.57593 1.31182,3.33849 1.11055,0.69754 5.79678,3.58453 10.09191,1.47491 6.83216,-8.96834 7.50931,-10.88184 14.32936,-16.02632 1.121,-0.84556 1.10074,-2.46907 0.24293,-3.58143 -2.57125,-3.33394 -7.54834,-2.41009 -11.26496,-5.26806 -0.27766,-0.21448 -0.61231,-0.32543 -0.95773,-0.35046 z m -81.804263,6.57981 c -0.529697,0.0171 -1.041068,0.21167 -1.388074,0.60737 -3.089753,3.52824 -8.152174,3.59595 -10.026021,7.36764 -0.625103,1.25846 -0.339089,2.87174 0.933536,3.46345 7.835546,3.64242 10.956207,4.54159 17.816973,12.79879 4.623129,1.23151 8.013873,-2.38919 8.967549,-3.28989 1.00801,-0.97792 1.4808,-2.40781 0.634998,-3.52944 -3.746427,-7.88204 -8.567567,-10.64549 -14.801236,-16.17203 -0.31805,-0.81849 -1.254658,-1.27621 -2.137726,-1.24589 z m 97.417573,2.34256 c -0.88296,-0.0342 -1.81934,0.42727 -2.13773,1.24583 -6.23372,5.52658 -11.05464,8.28644 -14.80131,16.16861 -0.84573,1.12168 -0.37322,2.55504 0.63507,3.53285 0.95347,0.90077 4.98989,4.64981 9.61308,3.41838 8.44496,-7.46381 9.48159,-10.67616 17.1714,-14.39176 1.26385,-0.61077 1.55879,-2.20509 0.93358,-3.46345 -1.87373,-3.7717 -6.93627,-2.37497 -10.02602,-5.90316 -0.34763,-0.396 -0.85805,-0.5891 -1.38807,-0.6073 z m -110.913974,9.06814 c -0.883419,-0.061 -1.831001,0.36241 -2.168954,1.17301 -1.805305,4.33096 -5.585353,5.67433 -7.166347,9.57831 -0.527442,1.3025 -0.12236,2.89846 1.193822,3.38361 2.4053,0.88563 13.637104,5.35179 15.859762,6.57295 2.328564,1.27933 1.502158,1.45542 5.441586,3.0886 1.276678,0.52969 2.409402,0.47565 3.116372,-0.1667 2.403887,-2.18268 4.150732,-4.26066 5.507513,-6.29182 0.644116,-1.24885 -0.483035,-2.32007 -1.641422,-3.11297 -6.060136,-6.27332 -11.100481,-10.3295 -18.767927,-13.57617 -0.337946,-0.40452 -0.844193,-0.61276 -1.374405,-0.64895 z m 127.620334,0.1388 c -0.53026,0.0398 -1.03674,0.24466 -1.37418,0.64896 -7.66778,3.2469 -14.2691,8.86411 -20.32959,15.13788 -2.4268,1.78207 2.87601,10.24998 7.50308,9.85945 6.67847,-4.71713 14.00491,-7.67257 22.85589,-10.93181 1.31719,-0.48531 1.72141,-2.08104 1.19389,-3.38362 -1.58107,-3.90391 -5.87478,-5.83038 -7.68005,-10.16132 -0.33797,-0.81069 -1.28555,-1.22989 -2.16903,-1.16954 z m -68.71033,3.20322 c -3.59618,0.21392 -7.07077,0.71085 -10.386891,1.48183 l 0,11.90693 -11.09139,0 0,-8.0999 c -3.802827,1.76636 -7.288634,3.91355 -10.386917,6.38553 l 0,1.71437 -2.016191,0 c -3.452414,3.08422 -6.351845,6.58749 -8.589243,10.40426 l 10.605434,0 0,13.42351 -20.041574,0 c -0.429568,3.61303 0.923642,7.50501 1.610358,11.29269 l 18.431216,0 0,11.46615 -17.966212,0 c -0.747153,3.98779 -0.159871,7.64285 0.444357,11.29269 l 17.522019,0 0,10.66449 -16.251886,0 c -0.735657,3.91098 -0.474505,7.62339 0,11.29256 l 16.251886,0 0,9.06797 -16.435843,0 c -0.825654,3.76419 1.02458,7.52895 1.558313,11.29314 l 14.87753,0 0,10.2548 -15.012938,0 c 0,0 -2.388911,0.85002 -2.467486,1.28071 l 0.551872,9.12372 16.928495,0 0,13.61048 4.640099,14.57938 c -21.773991,-1.5862 -43.734349,2.034 -66.51367,-1.1003 -0.138815,0 -0.277639,-0.057 -0.413056,-0.057 -2.040303,0 -3.6508515,1.9902 -3.6508515,4.1056 l 0,3.5611 c 0,2.2564 1.8196215,3.8773 4.0639735,4.0737 13.008977,1.1395 25.778439,2.0868 38.386028,2.2939 37.33949,0.7272 82.833608,0.5633 125.506798,-0.165 13.34482,-0.2787 21.33918,-1.8444 34.89845,-2.1272 2.25214,-0.057 4.06722,-1.8179 4.06722,-4.0743 l 0,-3.5611 c 0,-2.2565 -1.81952,-4.2228 -4.06722,-4.0743 -8.49793,0.5633 -17.01736,1.6284 -25.57338,1.4059 -13.51573,-0.3527 -27.37673,0 -41.38804,0.3926 l 4.86556,-15.27979 0,-13.61105 15.36684,0 -0.44776,-7.36794 c 0,-0.98428 -0.14054,-1.99702 -0.39884,-3.03649 l -14.52018,0 0,-10.2548 16.35244,0 c 0.84135,-4.84521 1.58908,-9.55669 0.27423,-11.29256 l -16.62661,0 0,-9.06854 15.71048,0 c 0.70932,-3.70502 2.07604,-7.35542 0,-11.29257 l -15.71048,0 0,-10.66444 15.89442,0 c 0.69669,-3.77147 1.36088,-7.42415 1.00636,-11.29268 l -16.90078,0 0,-11.46616 16.99443,0 c 0.44662,-3.72373 1.22763,-7.40537 0.3647,-11.29268 l -17.35885,0 0,-13.42351 7.92631,0 c -4.63737,-5.2643 -11.16336,-10.42844 -18.31323,-14.59996 l 0,4.1957 -11.09137,0 0,-9.62338 c -3.5155,-1.39478 -7.0198,-2.45714 -10.3869,-3.11991 l 0,12.74329 -11.09145,0 0,-13.38876 z m 81.48833,11.64661 c -0.34763,0.0107 -0.68462,0.11093 -0.97155,0.31237 -7.16123,2.56018 -14.72722,6.61834 -23.54671,9.35618 -1.32414,0.46541 -1.71877,1.92017 -1.41938,3.2934 1.51656,6.95271 3.52956,6.16464 3.93199,8.95712 0.20083,1.39109 2.14164,2.23081 3.28985,1.42285 6.67272,-4.69557 13.22291,-8.51808 23.54314,-9.35274 1.39853,-0.11331 1.86069,-1.95798 1.42289,-3.29337 -1.31269,-4.00252 -3.31079,-4.30572 -3.93533,-8.95714 -0.14053,-1.04476 -1.27241,-1.77854 -2.3149,-1.73867 z m -153.269975,0.13885 c -1.042432,-0.0398 -2.177819,0.69388 -2.318195,1.73865 -0.624597,4.6514 -2.490812,4.43748 -3.803554,8.44001 -0.438099,1.33544 0.0728,2.89915 1.419358,3.29343 9.051746,2.64978 16.886556,4.45523 23.869435,8.70719 1.199182,0.73015 3.085995,-0.0398 3.286432,-1.4263 0.402827,-2.79247 1.967667,-0.83841 3.484213,-7.79107 0.299266,-1.37316 -0.09775,-2.8278 -1.422733,-3.29338 -7.475,-4.48892 -15.297922,-8.20777 -23.54319,-9.3562 -0.286177,-0.20197 -0.624188,-0.29926 -0.971766,-0.31233 z m 50.303364,12.00756 11.09139,0 0,13.42351 -11.09139,0 0,-13.42351 z m 21.478281,0 11.09139,0 0,13.42351 -11.09139,0 0,-13.42351 z m 21.47831,0 11.09144,0 0,13.42351 -11.09144,0 0,-13.42351 z m 66.75319,2.52296 c -0.3482,0.006 -0.6868,0.0967 -0.97871,0.29129 -8.27171,0.93957 -16.18989,4.4573 -23.7758,8.75584 -1.33526,0.43127 -1.63857,1.85627 -1.50264,3.25521 0.38348,3.93971 0.0569,5.88433 -0.41647,8.6656 -0.23556,1.38551 1.0677,1.3355 2.43284,1.00989 7.94962,-1.89639 16.10851,-0.55985 25.5352,-0.29471 1.40265,0.0398 2.3657,-1.29085 2.35984,-2.6965 -0.0228,-4.21281 -0.87402,-12.52322 -1.38113,-17.18885 -0.11377,-1.04801 -1.22996,-1.8112 -2.27313,-1.79771 z m -167.852735,0.80865 c -1.040667,0.0569 -2.10252,0.88779 -2.148193,1.93995 -0.203689,4.68885 -0.517188,12.00489 -0.263986,16.2102 0.08362,1.40309 1.136138,2.6677 2.533428,2.53683 9.389185,-0.87937 17.271048,-1.37395 25.326909,0 1.383458,0.23556 2.858988,-1.16964 2.533429,-2.53683 -0.653495,-2.74434 -1.108196,-3.63003 -0.982069,-7.5863 0.04551,-1.40492 -0.349899,-2.80721 -1.710904,-3.15108 -7.849034,-3.79481 -15.977718,-6.78897 -24.292843,-7.18724 -0.303237,-0.17522 -0.646215,-0.24237 -0.992527,-0.22531 l 0,0 z m 13.23605,21.34294 c -4.255542,-0.0569 -8.403193,0.22645 -12.337327,0.99595 -1.364576,-0.32772 -2.229391,1.1647 -2.53338,2.5369 -0.951691,4.29365 -0.958808,8.00891 0,12.30258 0.306661,1.3718 1.141025,2.70946 2.53338,2.53337 9.405574,-1.18997 17.090751,-0.90925 25.330495,0 1.394839,0.15362 2.85898,-1.16607 2.533429,-2.53337 -0.653512,-2.74447 1.149277,-5.27967 0,-12.30258 -0.227587,-1.38715 -1.131147,-2.59299 -2.533429,-2.5369 -4.372967,-0.56099 -8.737642,-0.94383 -12.993168,-0.99595 z m 143.237235,0 c -4.25554,0.0569 -8.62019,0.43524 -12.99316,0.99595 -1.40212,-0.0569 -2.30636,1.14975 -2.53343,2.5369 -1.14912,7.02291 0.65349,10.13766 0,12.8821 -0.32546,1.3672 1.13467,2.65092 2.53343,2.53685 8.33018,-0.67967 16.00633,-1.69695 25.33033,0 1.38056,0.25091 2.22704,-1.1651 2.53336,-2.53685 0.95881,-4.29364 0.95171,-8.58845 0,-12.8821 -0.30437,-1.3722 -1.1688,-2.86438 -2.53336,-2.5369 -3.93432,-0.76929 -8.08147,-1.04818 -12.33716,-0.99595 z m -98.330331,0.0398 11.09139,0 0,11.46614 -11.09139,0 0,-11.46614 z m 21.478281,0 11.09139,0 0,11.46614 -11.09139,0 0,-11.46614 z m 21.47831,0 11.09144,0 0,11.46614 -11.09144,0 0,-11.46614 z m 55.2348,19.00039 c -4.25558,0.0569 -8.6202,0.43922 -12.99317,0.99948 -1.40213,-0.0569 -2.03559,1.22261 -2.53325,2.53684 -2.46004,6.49784 0.22702,9.10249 0,12.01781 -0.10808,1.40133 1.13431,2.42658 2.53325,2.53695 8.46237,0.66853 16.23659,1.72279 25.33051,0 1.3788,-0.26172 2.22704,-1.1652 2.53338,-2.53695 0.9588,-4.29331 0.95167,-7.72411 0,-12.01781 -0.3044,-1.37214 -1.1688,-2.86445 -2.53338,-2.53684 -3.93431,-0.7694 -8.08181,-1.05172 -12.33734,-0.99948 z m -142.702764,0.32601 c -4.255183,-0.0569 -8.48672,0.12056 -12.593863,0.67323 -1.364649,-0.32771 -2.229456,1.1647 -2.533437,2.53685 -0.951683,4.29393 -0.9588,8.5884 0,12.88227 0.306097,1.37175 1.134831,2.41976 2.533437,2.53695 9.094191,0.76241 16.8647,0.51776 25.326909,0 1.400705,-0.0853 2.645731,-1.13561 2.53677,-2.53695 -0.226999,-2.91531 2.460042,-6.3842 0,-12.88227 -0.49668,-1.31428 -1.134472,-2.59317 -2.53677,-2.53685 -4.201552,-0.34648 -8.477839,-0.62163 -12.733046,-0.67323 z m 44.511373,3.4322 11.09139,0 0,10.66484 -11.09139,0 0,-10.66484 z m 21.478281,0 11.09139,0 0,10.66484 -11.09139,0 0,-10.66484 z m 21.47831,0 11.09144,0 0,10.66484 -11.09144,0 0,-10.66484 z m 68.07883,15.55442 c -0.16725,0 -0.33623,5.6e-4 -0.50693,0.0569 -8.98334,2.1569 -16.73801,0.34706 -25.33048,0 -1.40209,-0.0569 -2.61691,1.13392 -2.53322,2.53696 0.38632,6.49801 0.70681,9.9635 0,12.87879 -0.33056,1.36607 1.13058,2.49885 2.53322,2.53698 7.51301,0.20482 15.74393,1.15097 25.33048,0 1.39326,-0.165 2.28662,-1.15328 2.53344,-2.53698 0.76547,-4.29387 -0.50239,-8.58492 0,-12.87879 0.14223,-1.22154 -0.8598,-2.4977 -2.02667,-2.57849 l 0,0 z m -168.651023,0.76693 0,0 c -1.166859,0.0797 -2.165939,1.36038 -2.023071,2.58192 0.502383,4.29332 -0.765651,7.80772 0,12.10104 0.246927,1.38371 1.131473,2.47438 2.533363,2.53696 9.586632,0.43241 17.814137,-1.25965 25.326983,0 1.384135,0.23328 2.867967,-1.17089 2.53677,-2.53696 -0.706791,-2.9153 -0.386869,-5.6036 0,-12.10104 0.08362,-1.40303 -1.134472,-2.5967 -2.53677,-2.54037 -8.592437,0.34138 -16.343566,2.15633 -25.326983,0 -0.17068,-0.0569 -0.343068,-0.0569 -0.510341,-0.0569 z m 57.615602,5.63605 11.09139,0 0,9.06797 -11.09139,0 0,-9.06797 z m 21.478281,0 11.09139,0 0,9.06797 -11.09139,0 0,-9.06797 z m 21.47831,0 11.09144,0 0,9.06797 -11.09144,0 0,-9.06797 z m -81.158736,12.27458 0,0.003 c -6.294669,0 -12.294499,0.98771 -18.903165,0.40396 -1.397796,-0.12522 -2.328882,1.14984 -2.533363,2.54037 -0.631713,4.29389 -1.836181,8.58493 0,12.87881 0.552443,1.29209 1.130566,2.1256 2.533363,2.08578 9.586632,-0.27309 19.994137,-1.12937 25.97234,0.13084 1.373114,0.29018 2.509081,-1.13163 2.536967,-2.53639 0.0603,-2.91588 0.692247,-6.0582 -0.645554,-12.55621 -0.283898,-1.3763 -1.146768,-2.3475 -2.53677,-2.54037 -2.196897,-0.30724 -4.325743,-0.40965 -6.423818,-0.40396 z m 123.400306,0.40396 c -1.40081,-0.0853 -2.2498,1.16352 -2.53319,2.54038 -1.33779,6.49743 -0.0603,9.96292 0,12.8788 0.0283,1.4053 1.1334,2.63539 2.53319,2.53638 7.51286,-0.52912 15.74394,-0.27309 25.3305,0 1.40265,0.0569 1.98105,-1.24429 2.53345,-2.53638 1.83618,-4.29389 0.6317,-8.58492 0,-12.8788 -0.20484,-1.39053 -1.1402,-2.70765 -2.53345,-2.54038 -8.81154,1.05769 -16.54274,0.52344 -25.3305,0 z m -85.198161,7.67973 11.09139,0 0,10.25536 -11.09139,0 0,-10.25536 z m 21.478281,0 11.09139,0 0,10.25536 -11.09139,0 0,-10.25536 z m 21.47831,0 11.09144,0 0,10.25536 -11.09144,0 0,-10.25536 z m -81.158736,10.45676 c -6.294669,0 -12.294499,0.99113 -18.903165,0.40397 -1.397796,-0.12522 -2.328882,1.14643 -2.533363,2.53695 -0.631713,4.29389 -1.836181,7.81114 0,12.10503 0.552443,1.29209 1.14712,2.31848 2.533363,2.53638 9.586632,1.51001 17.814137,0.18776 25.326983,0 1.402805,-0.0569 2.508909,-1.13108 2.53677,-2.53638 0.06038,-2.91588 1.337801,-5.60703 0,-12.10503 -0.283898,-1.3763 -1.146768,-2.34351 -2.53677,-2.53695 -2.196897,-0.30724 -4.325743,-0.40964 -6.423818,-0.40397 z m 123.400306,0.40397 c -1.39871,-0.1139 -2.2498,1.16065 -2.53319,2.53695 -1.33779,6.498 -0.0603,9.96691 0,12.88223 0.0283,1.40531 1.1304,2.50167 2.53319,2.53695 7.51286,0.18775 15.74394,1.51 25.3305,0 1.38615,-0.2162 1.98105,-1.24487 2.53345,-2.53695 1.83618,-4.29389 0.6317,-8.58834 0,-12.88223 -0.20484,-1.39052 -1.13929,-2.69739 -2.53345,-2.53695 -4.38076,0.50636 -8.26226,0.22756 -12.37886,0.19344 -4.17919,-0.0569 -8.59374,0.15929 -12.95164,-0.19344 z m -85.198161,9.79736 11.09139,0 0,13.61047 4.997381,15.69692 c -6.878181,-0.1594 -13.782077,-0.4837 -20.711231,-1.0447 -0.01699,-8e-4 -0.0228,-8e-4 -0.03979,0 l 4.660648,-14.64886 0,-13.61103 z m 21.478281,0 11.09139,0 0,13.61047 5.0148,15.75202 c -6.99702,0.097 -14.03048,0.1137 -21.1,-0.057 l 4.99381,-15.70365 0,-13.61048 z m 21.47831,0 11.09144,0 0,13.61047 4.8655,15.29742 c -6.95669,0.1878 -13.91538,0.3471 -20.96482,0.4495 l 5.00788,-15.74521 0,-13.61049 z m -100.56171,8.7209 0,0.002 c -1.109462,0.11946 -1.854679,1.3376 -2.033554,2.55402 -0.631713,4.29389 -1.836181,8.58833 0,12.88222 0.552443,1.29209 1.165781,2.22229 2.533363,2.53699 7.344111,1.6921 16.100904,0.1536 25.326983,0 1.403148,0 2.508909,-1.1317 2.53677,-2.53699 0.06038,-2.91531 1.337801,-6.38422 0,-12.88222 -0.283898,-1.3763 -1.142503,-2.69286 -2.53677,-2.53298 -8.074008,0.92456 -16.230912,1.63459 -25.326983,0 -0.172387,-0.0569 -0.341368,-0.0569 -0.500103,0 z m 168.63008,0.51773 c -0.15817,0 -0.3243,0 -0.49612,0 -9.09601,1.63462 -17.2565,0.92456 -25.3305,0 -1.39428,-0.15931 -2.24987,1.16011 -2.53326,2.5364 -1.33777,6.49801 -0.0603,9.9669 0,12.88223 0.0283,1.40533 1.14393,2.73493 2.53326,2.53693 8.44319,-1.2039 16.8873,-0.2162 25.3305,0 1.40281,0.057 1.98098,-1.2449 2.53344,-2.53693 1.83616,-4.29333 0.63164,-8.58836 0,-12.88223 -0.17866,-1.21642 -0.92793,-2.43795 -2.03721,-2.55743 l 0,-0.002 z"
       id="path15171"
       inkscape:connector-curvature="0" />
    <path
       inkscape:connector-curvature="0"
       id="path3399"
       d="m 329.95034,786.72062 c -2.96731,0.0803 -7.53116,1.34711 -7.05193,3.19279 1.54692,1.64938 2.48757,4.00036 3.58832,6.11482 2.45508,4.71541 4.34207,10.0271 5.85468,16.31784 1.39503,0.9824 1.89843,0.83596 3.94587,0.37493 1.3669,-0.30723 2.54566,-0.48702 2.97745,-1.55125 0.61389,-1.73662 1.02366,-3.44063 1.50624,-5.19168 0.53538,-1.94235 1.15884,-3.93641 2.24543,-5.93788 2.24127,-4.12781 4.53107,-7.55234 5.76085,-10.77908 0.45346,-1.33016 -3.07434,-1.88466 -4.49774,-1.89131 -3.04747,-0.017 -6.92562,0.0905 -12.6115,-0.51036 -0.43241,-0.11544 -1.03305,-0.1576 -1.71767,-0.13882 z m -10.56402,1.83236 c -0.34537,-0.0342 -0.68748,0.0284 -0.99595,0.19459 -4.11961,2.2361 -8.16014,0.54221 -11.22323,3.42873 -1.02206,0.96319 -1.29731,2.56268 -0.32258,3.57457 5.92644,6.15582 6.2921,8.15383 11.62938,18.08767 3.91012,2.76078 8.26092,0.64513 9.4672,0.13195 1.28396,-0.56667 2.22711,-1.74287 1.82202,-3.08862 -0.78555,-8.69444 -4.35363,-12.95993 -8.28736,-20.3088 -0.0171,-1.05393 -1.05011,-1.92744 -2.08567,-2.01627 l 0,-0.003 z m 32.05261,0.97519 c -1.03555,0.0887 -2.06717,0.96573 -2.08565,2.01979 -3.93375,7.34881 -7.50165,11.61436 -8.28737,20.30874 -0.4051,1.34575 0.53425,2.5216 1.8186,3.08868 6.50113,2.87087 4.28876,0.87151 7.16634,1.33607 1.38563,0.22359 2.36805,-0.23043 3.0331,-1.46795 5.33728,-9.93392 5.70276,-11.9319 11.62926,-18.08773 0.97406,-1.01177 0.69903,-2.61133 -0.32259,-3.57451 -3.06312,-2.88675 -7.83272,-1.19259 -11.95209,-3.42874 -0.30781,-0.16785 -0.6544,-0.22417 -0.99949,-0.19458 z m -49.1304,4.62257 c -0.3448,0.0341 -0.67592,0.14679 -0.95078,0.36414 -3.67452,2.91212 -8.6664,2.05995 -11.18862,5.43116 -0.84154,1.12475 -0.8634,2.78417 0.2947,3.57796 7.14845,4.89862 8.9011,6.20575 14.56179,15.81807 4.32551,2.04641 8.97107,-0.91043 10.07114,-1.62414 1.16754,-0.77967 1.89307,-2.1033 1.26314,-3.35937 -2.2658,-8.42971 -6.51373,-12.01833 -11.65006,-18.58051 -0.19856,-1.03508 -1.36601,-1.71824 -2.40155,-1.62758 z m 65.98966,1.74219 c -1.03681,-0.0757 -2.19337,0.62432 -2.37725,1.66231 -5.03984,6.63676 -9.23353,10.28854 -11.37603,18.75056 -0.61163,1.26506 0.13138,2.57593 1.31182,3.33849 1.11054,0.69754 5.79678,3.58453 10.09191,1.47491 6.83216,-8.96834 7.50931,-10.88184 14.32936,-16.02632 1.121,-0.84556 1.10074,-2.46907 0.24293,-3.58143 -2.57126,-3.33394 -7.54835,-2.41009 -11.26497,-5.26806 -0.27765,-0.21448 -0.6123,-0.32543 -0.95773,-0.35046 z m -81.80427,6.57981 c -0.5297,0.0171 -1.04107,0.21167 -1.38807,0.60737 -3.08976,3.52824 -8.15218,3.59595 -10.02602,7.36764 -0.62511,1.25846 -0.33909,2.87174 0.93353,3.46345 7.83555,3.64242 10.95621,4.54159 17.81698,12.79879 4.62313,1.23151 8.01387,-2.38919 8.96755,-3.28989 1.00801,-0.97792 1.4808,-2.40781 0.63499,-3.52944 -3.74642,-7.88204 -8.56756,-10.64549 -14.80123,-16.17203 -0.31805,-0.81849 -1.25466,-1.27621 -2.13773,-1.24589 z m 97.41757,2.34256 c -0.88296,-0.0342 -1.81933,0.42727 -2.13772,1.24583 -6.23373,5.52658 -11.05464,8.28644 -14.80131,16.16861 -0.84573,1.12168 -0.37323,2.55504 0.63507,3.53285 0.95347,0.90077 4.98988,4.64981 9.61308,3.41838 8.44496,-7.46381 9.48158,-10.67616 17.17139,-14.39176 1.26386,-0.61077 1.5588,-2.20509 0.93359,-3.46345 -1.87373,-3.7717 -6.93627,-2.37497 -10.02602,-5.90316 -0.34764,-0.396 -0.85805,-0.5891 -1.38808,-0.6073 z m -110.91397,9.06814 c -0.88342,-0.061 -1.831,0.36241 -2.16895,1.17301 -1.80531,4.33096 -5.58536,5.67433 -7.16635,9.57831 -0.52744,1.3025 -0.12236,2.89846 1.19382,3.38361 2.4053,0.88563 13.63711,5.35179 15.85976,6.57295 2.32857,1.27933 1.50216,1.45542 5.44159,3.0886 1.27668,0.52969 2.4094,0.47565 3.11637,-0.1667 2.40389,-2.18268 4.15073,-4.26066 5.50752,-6.29182 0.64411,-1.24885 -0.48304,-2.32007 -1.64143,-3.11297 -6.06013,-6.27332 -11.10048,-10.3295 -18.76792,-13.57617 -0.33795,-0.40452 -0.8442,-0.61276 -1.37441,-0.64895 z m 127.62034,0.1388 c -0.53026,0.0398 -1.03675,0.24466 -1.37418,0.64896 -7.66778,3.2469 -14.2691,8.86411 -20.32959,15.13788 -2.4268,1.78207 2.87601,10.24998 7.50308,9.85945 6.67846,-4.71713 14.00491,-7.67257 22.85588,-10.93181 1.3172,-0.48531 1.72142,-2.08104 1.1939,-3.38362 -1.58107,-3.90391 -5.87478,-5.83038 -7.68005,-10.16132 -0.33797,-0.81069 -1.28556,-1.22989 -2.16903,-1.16954 z m -68.71033,3.20322 c -3.59618,0.21392 -7.07077,0.71085 -10.38689,1.48183 l 0,11.90693 -11.0914,0 0,-8.0999 c -3.80282,1.76636 -7.28863,3.91355 -10.38691,6.38553 l 0,1.71437 -2.01619,0 c -3.45242,3.08422 -6.35185,6.58749 -8.58925,10.40426 l 10.60544,0 0,13.42351 -20.04158,0 c -0.42957,3.61303 0.92364,7.50501 1.61036,11.29269 l 18.43122,0 0,11.46615 -17.96622,0 c -0.74715,3.98779 -0.15987,7.64285 0.44436,11.29269 l 17.52202,0 0,10.66449 -16.25188,0 c -0.73566,3.91098 -0.47451,7.62339 0,11.29256 l 16.25188,0 0,9.06797 -16.43584,0 c -0.82566,3.76419 1.02458,7.52895 1.55831,11.29314 l 14.87753,0 0,10.2548 -15.01294,0 c 0,0 -2.38891,0.85002 -2.46748,1.28071 l 0.55187,9.12372 16.92849,0 0,13.61048 4.6401,14.57938 c -21.77399,-1.5862 -43.73435,2.034 -66.51367,-1.1003 -0.13881,0 -0.27764,-0.057 -0.41305,-0.057 -2.04031,0 -3.65085,1.9902 -3.65085,4.1056 l 0,3.5611 c 0,2.2564 1.81962,3.8773 4.06397,4.0737 13.00898,1.1395 25.77844,2.0868 38.38603,2.2939 37.33949,0.7272 82.83361,0.5633 125.5068,-0.165 13.34482,-0.2787 21.33918,-1.8444 34.89845,-2.1272 2.25214,-0.057 4.06722,-1.8179 4.06722,-4.0743 l 0,-3.5611 c 0,-2.2565 -1.81952,-4.2228 -4.06722,-4.0743 -8.49793,0.5633 -17.01736,1.6284 -25.57338,1.4059 -13.51574,-0.3527 -27.37673,0 -41.38804,0.3926 l 4.86556,-15.27979 0,-13.61105 15.36684,0 -0.44777,-7.36794 c 0,-0.98428 -0.14053,-1.99702 -0.39883,-3.03649 l -14.52018,0 0,-10.2548 16.35243,0 c 0.84136,-4.84521 1.58909,-9.55669 0.27424,-11.29256 l -16.62662,0 0,-9.06854 15.71048,0 c 0.70933,-3.70502 2.07605,-7.35542 0,-11.29257 l -15.71048,0 0,-10.66444 15.89442,0 c 0.6967,-3.77147 1.36089,-7.42415 1.00637,-11.29268 l -16.90079,0 0,-11.46616 16.99444,0 c 0.44662,-3.72373 1.22763,-7.40537 0.3647,-11.29268 l -17.35885,0 0,-13.42351 7.92631,0 c -4.63737,-5.2643 -11.16336,-10.42844 -18.31323,-14.59996 l 0,4.1957 -11.09137,0 0,-9.62338 c -3.5155,-1.39478 -7.0198,-2.45714 -10.38691,-3.11991 l 0,12.74329 -11.09144,0 0,-13.38876 z m 81.48833,11.64661 c -0.34764,0.0107 -0.68462,0.11093 -0.97155,0.31237 -7.16124,2.56018 -14.72722,6.61834 -23.54671,9.35618 -1.32414,0.46541 -1.71877,1.92017 -1.41938,3.2934 1.51655,6.95271 3.52956,6.16464 3.93198,8.95712 0.20084,1.39109 2.14165,2.23081 3.28986,1.42285 6.67272,-4.69557 13.2229,-8.51808 23.54313,-9.35274 1.39853,-0.11331 1.86069,-1.95798 1.4229,-3.29337 -1.31269,-4.00252 -3.3108,-4.30572 -3.93534,-8.95714 -0.14052,-1.04476 -1.2724,-1.77854 -2.31489,-1.73867 z m -153.26998,0.13885 c -1.04243,-0.0398 -2.17782,0.69388 -2.3182,1.73865 -0.62459,4.6514 -2.49081,4.43748 -3.80355,8.44001 -0.4381,1.33544 0.0728,2.89915 1.41936,3.29343 9.05174,2.64978 16.88655,4.45523 23.86943,8.70719 1.19919,0.73015 3.086,-0.0398 3.28644,-1.4263 0.40282,-2.79247 1.96766,-0.83841 3.48421,-7.79107 0.29927,-1.37316 -0.0977,-2.8278 -1.42273,-3.29338 -7.475,-4.48892 -15.29793,-8.20777 -23.54319,-9.3562 -0.28618,-0.20197 -0.62419,-0.29926 -0.97177,-0.31233 z m 50.30336,12.00756 11.0914,0 0,13.42351 -11.0914,0 0,-13.42351 z m 21.47829,0 11.09139,0 0,13.42351 -11.09139,0 0,-13.42351 z m 21.4783,0 11.09145,0 0,13.42351 -11.09145,0 0,-13.42351 z m 66.7532,2.52296 c -0.3482,0.006 -0.6868,0.0967 -0.97871,0.29129 -8.27171,0.93957 -16.18989,4.4573 -23.77581,8.75584 -1.33526,0.43127 -1.63857,1.85627 -1.50264,3.25521 0.38348,3.93971 0.0569,5.88433 -0.41647,8.6656 -0.23555,1.38551 1.06771,1.3355 2.43285,1.00989 7.94962,-1.89639 16.10851,-0.55985 25.5352,-0.29471 1.40264,0.0398 2.3657,-1.29085 2.35983,-2.6965 -0.0228,-4.21281 -0.87401,-12.52322 -1.38112,-17.18885 -0.11377,-1.04801 -1.22997,-1.8112 -2.27313,-1.79771 z m -167.85274,0.80865 c -1.04067,0.0569 -2.10252,0.88779 -2.14819,1.93995 -0.20369,4.68885 -0.51719,12.00489 -0.26399,16.2102 0.0836,1.40309 1.13614,2.6677 2.53343,2.53683 9.38918,-0.87937 17.27105,-1.37395 25.32691,0 1.38346,0.23556 2.85899,-1.16964 2.53343,-2.53683 -0.6535,-2.74434 -1.1082,-3.63003 -0.98207,-7.5863 0.0455,-1.40492 -0.3499,-2.80721 -1.71091,-3.15108 -7.84903,-3.79481 -15.97771,-6.78897 -24.29284,-7.18724 -0.30324,-0.17522 -0.64621,-0.24237 -0.99253,-0.22531 l 0,0 z m 13.23605,21.34294 c -4.25554,-0.0569 -8.40319,0.22645 -12.33733,0.99595 -1.36457,-0.32772 -2.22939,1.1647 -2.53338,2.5369 -0.95169,4.29365 -0.95881,8.00891 0,12.30258 0.30666,1.3718 1.14103,2.70946 2.53338,2.53337 9.40558,-1.18997 17.09075,-0.90925 25.3305,0 1.39484,0.15362 2.85898,-1.16607 2.53343,-2.53337 -0.65351,-2.74447 1.14927,-5.27967 0,-12.30258 -0.22759,-1.38715 -1.13115,-2.59299 -2.53343,-2.5369 -4.37297,-0.56099 -8.73764,-0.94383 -12.99317,-0.99595 z m 143.23724,0 c -4.25554,0.0569 -8.6202,0.43524 -12.99316,0.99595 -1.40212,-0.0569 -2.30636,1.14975 -2.53343,2.5369 -1.14912,7.02291 0.65349,10.13766 0,12.8821 -0.32546,1.3672 1.13467,2.65092 2.53343,2.53685 8.33018,-0.67967 16.00633,-1.69695 25.33033,0 1.38056,0.25091 2.22704,-1.1651 2.53336,-2.53685 0.95881,-4.29364 0.95171,-8.58845 0,-12.8821 -0.30437,-1.3722 -1.1688,-2.86438 -2.53336,-2.5369 -3.93432,-0.76929 -8.08147,-1.04818 -12.33717,-0.99595 z m -98.33034,0.0398 11.0914,0 0,11.46614 -11.0914,0 0,-11.46614 z m 21.47829,0 11.09139,0 0,11.46614 -11.09139,0 0,-11.46614 z m 21.4783,0 11.09145,0 0,11.46614 -11.09145,0 0,-11.46614 z m 55.23481,19.00039 c -4.25559,0.0569 -8.6202,0.43922 -12.99317,0.99948 -1.40214,-0.0569 -2.03559,1.22261 -2.53325,2.53684 -2.46004,6.49784 0.22702,9.10249 0,12.01781 -0.10808,1.40133 1.13431,2.42658 2.53325,2.53695 8.46237,0.66853 16.23659,1.72279 25.3305,0 1.3788,-0.26172 2.22705,-1.1652 2.53338,-2.53695 0.9588,-4.29331 0.95168,-7.72411 0,-12.01781 -0.30439,-1.37214 -1.16879,-2.86445 -2.53338,-2.53684 -3.9343,-0.7694 -8.0818,-1.05172 -12.33733,-0.99948 z m -142.70277,0.32601 c -4.25518,-0.0569 -8.48672,0.12056 -12.59386,0.67323 -1.36465,-0.32771 -2.22946,1.1647 -2.53344,2.53685 -0.95168,4.29393 -0.9588,8.5884 0,12.88227 0.3061,1.37175 1.13483,2.41976 2.53344,2.53695 9.09419,0.76241 16.8647,0.51776 25.32691,0 1.4007,-0.0853 2.64573,-1.13561 2.53677,-2.53695 -0.227,-2.91531 2.46004,-6.3842 0,-12.88227 -0.49668,-1.31428 -1.13447,-2.59317 -2.53677,-2.53685 -4.20156,-0.34648 -8.47784,-0.62163 -12.73305,-0.67323 z m 44.51137,3.4322 11.0914,0 0,10.66484 -11.0914,0 0,-10.66484 z m 21.47829,0 11.09139,0 0,10.66484 -11.09139,0 0,-10.66484 z m 21.4783,0 11.09145,0 0,10.66484 -11.09145,0 0,-10.66484 z m 68.07884,15.55442 c -0.16726,0 -0.33624,5.6e-4 -0.50693,0.0569 -8.98335,2.1569 -16.73801,0.34706 -25.33048,0 -1.40209,-0.0569 -2.61692,1.13392 -2.53322,2.53696 0.38632,6.49801 0.70681,9.9635 0,12.87879 -0.33057,1.36607 1.13058,2.49885 2.53322,2.53698 7.51301,0.20482 15.74393,1.15097 25.33048,0 1.39326,-0.165 2.28661,-1.15328 2.53344,-2.53698 0.76546,-4.29387 -0.50239,-8.58492 0,-12.87879 0.14223,-1.22154 -0.85981,-2.4977 -2.02667,-2.57849 l 0,0 z m -168.65103,0.76693 0,0 c -1.16686,0.0797 -2.16594,1.36038 -2.02307,2.58192 0.50238,4.29332 -0.76565,7.80772 0,12.10104 0.24693,1.38371 1.13147,2.47438 2.53336,2.53696 9.58664,0.43241 17.81414,-1.25965 25.32699,0 1.38413,0.23328 2.86796,-1.17089 2.53677,-2.53696 -0.70679,-2.9153 -0.38687,-5.6036 0,-12.10104 0.0836,-1.40303 -1.13447,-2.5967 -2.53677,-2.54037 -8.59244,0.34138 -16.34357,2.15633 -25.32699,0 -0.17068,-0.0569 -0.34306,-0.0569 -0.51034,-0.0569 z m 57.6156,5.63605 11.0914,0 0,9.06797 -11.0914,0 0,-9.06797 z m 21.47829,0 11.09139,0 0,9.06797 -11.09139,0 0,-9.06797 z m 21.4783,0 11.09145,0 0,9.06797 -11.09145,0 0,-9.06797 z m -81.15873,12.27458 0,0.003 c -6.29467,0 -12.2945,0.98771 -18.90317,0.40396 -1.39779,-0.12522 -2.32888,1.14984 -2.53336,2.54037 -0.63171,4.29389 -1.83618,8.58493 0,12.87881 0.55244,1.29209 1.13057,2.1256 2.53336,2.08578 9.58664,-0.27309 19.99414,-1.12937 25.97234,0.13084 1.37312,0.29018 2.50908,-1.13163 2.53697,-2.53639 0.0603,-2.91588 0.69225,-6.0582 -0.64555,-12.55621 -0.2839,-1.3763 -1.14677,-2.3475 -2.53677,-2.54037 -2.1969,-0.30724 -4.32575,-0.40965 -6.42382,-0.40396 z m 123.40031,0.40396 c -1.40082,-0.0853 -2.2498,1.16352 -2.53319,2.54038 -1.33779,6.49743 -0.0603,9.96292 0,12.8788 0.0283,1.4053 1.13339,2.63539 2.53319,2.53638 7.51286,-0.52912 15.74394,-0.27309 25.3305,0 1.40265,0.0569 1.98105,-1.24429 2.53344,-2.53638 1.83618,-4.29389 0.63171,-8.58492 0,-12.8788 -0.20483,-1.39053 -1.14019,-2.70765 -2.53344,-2.54038 -8.81155,1.05769 -16.54274,0.52344 -25.3305,0 z m -85.19817,7.67973 11.0914,0 0,10.25536 -11.0914,0 0,-10.25536 z m 21.47829,0 11.09139,0 0,10.25536 -11.09139,0 0,-10.25536 z m 21.4783,0 11.09145,0 0,10.25536 -11.09145,0 0,-10.25536 z m -81.15873,10.45676 c -6.29467,0 -12.2945,0.99113 -18.90317,0.40397 -1.39779,-0.12522 -2.32888,1.14643 -2.53336,2.53695 -0.63171,4.29389 -1.83618,7.81114 0,12.10503 0.55244,1.29209 1.14712,2.31848 2.53336,2.53638 9.58664,1.51001 17.81414,0.18776 25.32699,0 1.4028,-0.0569 2.50891,-1.13108 2.53677,-2.53638 0.0604,-2.91588 1.3378,-5.60703 0,-12.10503 -0.2839,-1.3763 -1.14677,-2.34351 -2.53677,-2.53695 -2.1969,-0.30724 -4.32575,-0.40964 -6.42382,-0.40397 z m 123.40031,0.40397 c -1.39871,-0.1139 -2.2498,1.16065 -2.53319,2.53695 -1.33779,6.498 -0.0603,9.96691 0,12.88223 0.0283,1.40531 1.1304,2.50167 2.53319,2.53695 7.51286,0.18775 15.74394,1.51 25.3305,0 1.38615,-0.2162 1.98105,-1.24487 2.53344,-2.53695 1.83618,-4.29389 0.63171,-8.58834 0,-12.88223 -0.20483,-1.39052 -1.13928,-2.69739 -2.53344,-2.53695 -4.38076,0.50636 -8.26226,0.22756 -12.37886,0.19344 -4.17919,-0.0569 -8.59374,0.15929 -12.95164,-0.19344 z m -85.19817,9.79736 11.0914,0 0,13.61047 4.99738,15.69692 c -6.87818,-0.1594 -13.78208,-0.4837 -20.71124,-1.0447 -0.017,-8e-4 -0.0228,-8e-4 -0.0398,0 l 4.66065,-14.64886 0,-13.61103 z m 21.47829,0 11.09139,0 0,13.61047 5.0148,15.75202 c -6.99702,0.097 -14.03048,0.1137 -21.1,-0.057 l 4.99381,-15.70365 0,-13.61048 z m 21.4783,0 11.09145,0 0,13.61047 4.8655,15.29742 c -6.95669,0.1878 -13.91539,0.3471 -20.96482,0.4495 l 5.00787,-15.74521 0,-13.61049 z m -100.56171,8.7209 0,0.002 c -1.10946,0.11946 -1.85467,1.3376 -2.03355,2.55402 -0.63171,4.29389 -1.83618,8.58833 0,12.88222 0.55244,1.29209 1.16578,2.22229 2.53336,2.53699 7.34411,1.6921 16.10091,0.1536 25.32699,0 1.40314,0 2.50891,-1.1317 2.53677,-2.53699 0.0604,-2.91531 1.3378,-6.38422 0,-12.88222 -0.2839,-1.3763 -1.14251,-2.69286 -2.53677,-2.53298 -8.07401,0.92456 -16.23092,1.63459 -25.32699,0 -0.17238,-0.0569 -0.34136,-0.0569 -0.5001,0 z m 168.63009,0.51773 c -0.15818,0 -0.32431,0 -0.49612,0 -9.09602,1.63462 -17.2565,0.92456 -25.33051,0 -1.39427,-0.15931 -2.24986,1.16011 -2.53325,2.5364 -1.33777,6.49801 -0.0603,9.9669 0,12.88223 0.0284,1.40533 1.14393,2.73493 2.53325,2.53693 8.4432,-1.2039 16.88731,-0.2162 25.33051,0 1.4028,0.057 1.98098,-1.2449 2.53343,-2.53693 1.83617,-4.29333 0.63164,-8.58836 0,-12.88223 -0.17865,-1.21642 -0.92792,-2.43795 -2.0372,-2.55743 l 0,-0.002 z"
       style="fill:#000000;fill-opacity:1;stroke:none;stroke-width:10;stroke-linecap:round;stroke-linejoin:round;stroke-miterlimit:4;stroke-dasharray:none;stroke-dashoffset:0;stroke-opacity:1" />
  </g>
</svg>
