<?xml version="1.0" encoding="UTF-8" standalone="no"?>
<!-- Created with Inkscape (http://www.inkscape.org/) -->

<svg
   xmlns:dc="http://purl.org/dc/elements/1.1/"
   xmlns:cc="http://creativecommons.org/ns#"
   xmlns:rdf="http://www.w3.org/1999/02/22-rdf-syntax-ns#"
   xmlns:svg="http://www.w3.org/2000/svg"
   xmlns="http://www.w3.org/2000/svg"
   xmlns:sodipodi="http://sodipodi.sourceforge.net/DTD/sodipodi-0.dtd"
   xmlns:inkscape="http://www.inkscape.org/namespaces/inkscape"
   width="150"
   height="225"
   viewBox="0 0 150 225"
   id="svg20279"
   version="1.1"
   inkscape:version="0.91 r13725"
   sodipodi:docname="figure_trackers.svg">
  <defs
     id="defs20281">
    <filter
       inkscape:label="Linen Canvas"
       inkscape:menu="Bumps"
       inkscape:menu-tooltip="Painting canvas emboss effect"
       style="color-interpolation-filters:sRGB"
       id="filter5738-7">
      <feTurbulence
         numOctaves="5"
         baseFrequency="0.4"
         id="feTurbulence5740-2" />
      <feConvolveMatrix
         order="5 5"
         kernelMatrix="-4 0 0 0 -4 0 -2 0 -2 0 0 0 -10 0 0 0 -2 0 -2 0 -4 0 0 0 -4 "
         targetX="2"
         targetY="2"
         id="feConvolveMatrix5742-7" />
      <feConvolveMatrix
         order="3 3"
         kernelMatrix="2 0 2 0 -5 0 2 0 2 "
         targetX="1"
         targetY="1"
         id="feConvolveMatrix5744-6" />
      <feColorMatrix
         type="saturate"
         result="result1"
         id="feColorMatrix5746-7" />
      <feComposite
         k4="0"
         in2="SourceGraphic"
         operator="arithmetic"
         k1="1.5"
         k2="0.5"
         k3="0.5"
         result="result2"
         id="feComposite5748-0" />
      <feBlend
         mode="normal"
         in2="result1"
         result="result4"
         id="feBlend5750-0" />
      <feColorMatrix
         type="luminanceToAlpha"
         id="feColorMatrix5752-6" />
      <feDiffuseLighting
         surfaceScale="10"
         diffuseConstant="1"
         result="result3"
         id="feDiffuseLighting5754-4">
        <feDistantLight
           azimuth="180"
           elevation="35"
           id="feDistantLight5756-8" />
      </feDiffuseLighting>
      <feComposite
         k4="0"
         k2="0"
         in2="result4"
         operator="arithmetic"
         k1="1.5"
         k3="0.5"
         result="result5"
         id="feComposite5758-6" />
      <feBlend
         mode="normal"
         in2="result3"
         result="result6"
         id="feBlend5760-9" />
      <feComposite
         in2="SourceGraphic"
         operator="in"
         id="feComposite5762-2" />
    </filter>
  </defs>
  <sodipodi:namedview
     id="base"
     pagecolor="#ffffff"
     bordercolor="#666666"
     borderopacity="1.0"
     inkscape:pageopacity="0.0"
     inkscape:pageshadow="2"
     inkscape:zoom="1.4"
     inkscape:cx="19.072753"
     inkscape:cy="122.55175"
     inkscape:document-units="px"
     inkscape:current-layer="layer1"
     showgrid="false"
     units="px"
     inkscape:window-width="1920"
     inkscape:window-height="1017"
     inkscape:window-x="-8"
     inkscape:window-y="-8"
     inkscape:window-maximized="1" />
  <metadata
     id="metadata20284">
    <rdf:RDF>
      <cc:Work
         rdf:about="">
        <dc:format>image/svg+xml</dc:format>
        <dc:type
           rdf:resource="http://purl.org/dc/dcmitype/StillImage" />
        <dc:title />
      </cc:Work>
    </rdf:RDF>
  </metadata>
  <g
     inkscape:label="Layer 1"
     inkscape:groupmode="layer"
     id="layer1"
     transform="translate(0,-827.36216)">
    <rect
       ry="4.3913217"
       y="980.01404"
       x="29.736383"
       height="62.244427"
       width="16.138412"
       id="rect21014"
       style="fill:#d8c586;fill-opacity:1;stroke:#42290d;stroke-width:1.25048602;stroke-miterlimit:4;stroke-dasharray:none;stroke-opacity:1" />
    <rect
       style="opacity:1;fill:#42290d;fill-opacity:1;stroke:none;stroke-width:3;stroke-linecap:round;stroke-linejoin:round;stroke-miterlimit:4;stroke-dasharray:none;stroke-dashoffset:0;stroke-opacity:1"
       id="rect8877"
       width="41.724632"
       height="41.724632"
       x="7.7537036"
       y="860.34271"
       ry="7.6453495" />
    <rect
       ry="7.6453495"
       y="860.34271"
       x="51.465214"
       height="41.724632"
       width="41.724632"
       id="rect8928"
       style="opacity:1;fill:#42290d;fill-opacity:1;stroke:none;stroke-width:3;stroke-linecap:round;stroke-linejoin:round;stroke-miterlimit:4;stroke-dasharray:none;stroke-dashoffset:0;stroke-opacity:1" />
    <rect
       style="opacity:1;fill:#42290d;fill-opacity:1;stroke:none;stroke-width:3;stroke-linecap:round;stroke-linejoin:round;stroke-miterlimit:4;stroke-dasharray:none;stroke-dashoffset:0;stroke-opacity:1"
       id="rect8930"
       width="41.724632"
       height="41.724632"
       x="95.176712"
       y="860.34271"
       ry="7.6453495" />
    <g
       transform="matrix(1.1360587,0,0,1.1360587,-177.87016,897.14611)"
       id="g11216"
       style="font-style:normal;font-weight:normal;font-size:40px;line-height:125%;font-family:sans-serif;letter-spacing:0px;word-spacing:0px;fill:#42290d;fill-opacity:1;stroke:none;stroke-width:1px;stroke-linecap:butt;stroke-linejoin:miter;stroke-opacity:1">
      <g
         transform="translate(301.32214,-340.94806)"
         id="g11218">
        <path
           inkscape:connector-curvature="0"
           id="path11220"
           style="fill:#d8c586;fill-opacity:1"
           d="m -27.005527,341.9378 -31.214185,0 c -0.217564,0 -0.415933,-0.064 -0.595106,-0.19197 -0.166375,-0.12798 -0.300755,-0.28155 -0.403139,-0.46072 -0.102384,-0.17917 -0.153575,-0.37115 -0.153575,-0.57591 0,-0.19198 0.05119,-0.39036 0.153575,-0.59511 l 15.587902,-27.68195 c 0.102384,-0.17917 0.243158,-0.31356 0.422325,-0.40315 0.179172,-0.0896 0.371143,-0.13438 0.57591,-0.13438 0.204767,0 0.396737,0.0448 0.57591,0.13438 0.179172,0.0895 0.319951,0.22398 0.422334,0.40315 l 15.626284,27.68195 c 0.102384,0.20476 0.153575,0.40314 0.153575,0.59511 0,0.20476 -0.05119,0.39674 -0.153575,0.57591 -0.102384,0.17917 -0.243159,0.33274 -0.422325,0.46072 -0.166376,0.12797 -0.358346,0.19197 -0.57591,0.19197 z"
           sodipodi:nodetypes="ssccscccssccsccs" />
        <path
           d="m -26.733715,342.19941 -31.75781,0 q -0.33203,0 -0.60547,-0.19531 -0.25391,-0.19532 -0.41016,-0.46875 -0.15625,-0.27344 -0.15625,-0.58594 0,-0.29297 0.15625,-0.60547 l 15.85938,-28.16406 q 0.15625,-0.27344 0.42968,-0.41016 0.27344,-0.13672 0.58594,-0.13672 0.3125,0 0.58594,0.13672 0.27344,0.13672 0.42969,0.41016 l 15.89843,28.16406 q 0.15625,0.3125 0.15625,0.60547 0,0.3125 -0.15625,0.58594 -0.15625,0.27343 -0.42968,0.46875 -0.25391,0.19531 -0.58594,0.19531 z m -29.72656,-2.5 27.65625,0 -13.82813,-24.49219 -13.82812,24.49219 z m 15.64453,-7.10938 -3.63281,0 0,-10.83984 3.63281,0 0,10.83984 z m 0.54687,3.55469 q 0,0.50781 -0.19531,0.9375 -0.17578,0.42969 -0.50781,0.76172 -0.3125,0.3125 -0.74219,0.50781 -0.42969,0.17578 -0.91797,0.17578 -0.48828,0 -0.91797,-0.17578 -0.42968,-0.19531 -0.74218,-0.50781 -0.3125,-0.33203 -0.48829,-0.76172 -0.17578,-0.42969 -0.17578,-0.9375 0,-0.48828 0.17578,-0.9375 0.17579,-0.44922 0.48829,-0.76172 0.3125,-0.33203 0.74218,-0.52734 0.42969,-0.19531 0.91797,-0.19531 0.48828,0 0.91797,0.19531 0.42969,0.19531 0.74219,0.52734 0.33203,0.3125 0.50781,0.76172 0.19531,0.44922 0.19531,0.9375 z"
           style="fill:#42290d;fill-opacity:1"
           id="path11222"
           inkscape:connector-curvature="0" />
      </g>
    </g>
    <g
       id="g8888"
       transform="matrix(0.18926461,0,0,0.18948377,-33.031654,773.78074)">
      <path
         id="path8879"
         d="m 325.26367,502.29492 a 49.532406,16.510801 0 0 0 -49.5332,16.50977 49.532406,16.510801 0 0 0 0.11133,1.05078 c -0.0658,0.44052 -0.11133,0.88826 -0.11133,1.34765 l 0,71.1543 c 0,0.60159 0.0604,1.18791 0.17187,1.75586 a 49.532406,16.510801 0 0 0 -0.17187,1.14649 49.532406,16.510801 0 0 0 49.5332,16.50976 49.532406,16.510801 0 0 0 49.53125,-16.50976 49.532406,16.510801 0 0 0 -0.15625,-1.25782 c 0.0979,-0.53371 0.15625,-1.08168 0.15625,-1.64453 l 0,-71.1543 c 0,-0.5145 -0.0526,-1.01539 -0.13476,-1.50585 a 49.532406,16.510801 0 0 0 0.13476,-0.89258 49.532406,16.510801 0 0 0 -49.53125,-16.50977 z"
         style="opacity:1;fill:#ffffff;fill-opacity:1;stroke:#42290d;stroke-width:3.69297123;stroke-linecap:round;stroke-linejoin:round;stroke-miterlimit:4;stroke-dasharray:none;stroke-dashoffset:0;stroke-opacity:1"
         inkscape:connector-curvature="0" />
      <ellipse
         ry="16.510801"
         rx="49.532406"
         cy="518.22156"
         cx="325.26279"
         id="ellipse8885"
         style="opacity:1;fill:#ffffff;fill-opacity:1;stroke:#42290d;stroke-width:3.69297123;stroke-linecap:round;stroke-linejoin:round;stroke-miterlimit:4;stroke-dasharray:none;stroke-dashoffset:0;stroke-opacity:1" />
    </g>
    <path
       style="fill:#2c9087;fill-opacity:1;stroke:none;stroke-width:0.99999994;stroke-opacity:1"
       id="path5102"
       d="m 43.930563,849.97228 c 7.934761,0.36415 16.159241,8.16727 16.346481,15.22149 l 6.392129,-2.03349 -8.282569,20.47037 -12.126303,-13.98181 6.943176,-2.20703 c 1.174803,-6.87665 -8.229652,-9.38298 -14.062702,-9.38298 -7.279195,0 -14.666655,0.54945 -14.666655,20.38987 -1.47e-4,-27.06161 9.545419,-28.93129 19.456443,-28.47642 z"
       inkscape:connector-curvature="0"
       sodipodi:nodetypes="scccccscs" />
    <g
       transform="matrix(0.96646589,0,0,0.96646589,-181.89531,422.7018)"
       id="g8858"
       style="font-style:normal;font-weight:normal;font-size:28.71495247px;line-height:125%;font-family:sans-serif;letter-spacing:0px;word-spacing:0px;fill:#000000;fill-opacity:1;stroke:none;stroke-width:1px;stroke-linecap:butt;stroke-linejoin:miter;stroke-opacity:1">
      <path
         id="path8860"
         d="m 245.93736,427.65294 q 1.21982,1.23385 1.82273,2.74812 0.6029,1.51426 0.6029,3.11265 0,1.59839 -0.6029,3.11266 -0.60291,1.51426 -1.82273,2.72007 -0.25238,0.23835 -0.58888,0.23835 -0.15423,0 -0.30846,-0.0561 -0.14021,-0.0561 -0.23836,-0.18227 -0.2664,-0.22434 -0.2664,-0.57486 0,-0.35053 0.2664,-0.57486 0.96745,-0.98147 1.44416,-2.2013 0.49073,-1.21982 0.49073,-2.49573 0,-1.27591 -0.49073,-2.48171 -0.47671,-1.21983 -1.45818,-2.20129 -0.25238,-0.25238 -0.25238,-0.58889 0,-0.35052 0.2664,-0.57486 0.23836,-0.23835 0.56084,-0.23835 0.3365,0 0.57486,0.23835 z m -2.79017,2.10315 q 0.75713,0.75713 1.14972,1.72458 0.39258,0.96745 0.39258,2.03304 0,1.03755 -0.39258,2.005 -0.39259,0.95343 -1.14972,1.71056 -0.14021,0.11217 -0.29444,0.18227 -0.14021,0.0701 -0.29445,0.0701 -0.15423,0 -0.30846,-0.0701 -0.15423,-0.0701 -0.28042,-0.18227 -0.23835,-0.23836 -0.23835,-0.57486 0,-0.32248 0.23835,-0.58888 0.51878,-0.51878 0.81322,-1.16374 0.29444,-0.65899 0.29444,-1.38808 0,-0.72909 -0.29444,-1.4021 -0.29444,-0.673 -0.81322,-1.19178 -0.23835,-0.23836 -0.23835,-0.57486 0,-0.32248 0.23835,-0.58888 0.2664,-0.23836 0.58888,-0.23836 0.32249,0 0.58889,0.23836 z m 5.5523,-4.15021 q 1.58437,1.58437 2.41161,3.61741 0.82724,2.03304 0.82724,4.29042 0,2.22934 -0.82724,4.26238 -0.82724,2.01902 -2.41161,3.60339 -0.25238,0.23835 -0.58888,0.23835 -0.35052,0 -0.58888,-0.23835 -0.23836,-0.23836 -0.23836,-0.57486 0,-0.32249 0.25238,-0.57486 1.34601,-1.34602 2.06108,-3.08462 0.71507,-1.7386 0.71507,-3.63143 0,-1.92087 -0.71507,-3.64545 -0.71507,-1.72458 -2.0751,-3.08462 -0.23836,-0.26639 -0.23836,-0.6029 0,-0.30846 0.23836,-0.57486 0.22433,-0.22433 0.57486,-0.22433 0.3365,0 0.6029,0.22433 z m -9.4922,-1.09363 q 0.33651,-0.25238 0.63095,-0.25238 0.26639,0 0.42063,0.22433 0.15423,0.21032 0.15423,0.61693 l 0,16.79712 q 0,0.40661 -0.16826,0.63095 -0.16825,0.21031 -0.43465,0.21031 -0.30846,0 -0.63094,-0.2664 -1.44416,-1.12167 -2.57986,-2.005 -0.49073,-0.37856 -0.95342,-0.72909 -0.4627,-0.36454 -0.84126,-0.64496 -0.36455,-0.28042 -0.60291,-0.46269 -0.22433,-0.18228 -0.23835,-0.18228 l -5.4822,0 q -0.12619,0 -0.22434,-0.11216 -0.0841,-0.12619 -0.0841,-0.28042 l 0,-9.16972 q 0,-0.15423 0.0841,-0.23836 0.0982,-0.0981 0.22434,-0.0981 l 5.5523,0 q 0,-0.014 0.22434,-0.1963 0.23836,-0.18227 0.6029,-0.46269 0.36455,-0.29444 0.82724,-0.64496 0.46269,-0.36455 0.95342,-0.74312 1.1357,-0.8693 2.56584,-1.99097 z"
         inkscape:connector-curvature="0"
         style="fill:#000000;fill-opacity:1" />
    </g>
    <path
       sodipodi:nodetypes="scccccscs"
       inkscape:connector-curvature="0"
       d="m 88.43415,852.03263 c 7.934763,0.36415 16.15924,8.16728 16.34648,15.22149 l 6.39214,-2.03349 -8.28258,20.47037 -12.126299,-13.98181 6.943178,-2.20703 c 1.174799,-6.87665 -8.229652,-9.38298 -14.062707,-9.38298 -7.279195,0 -14.666655,0.54945 -14.666655,20.38987 -1.46e-4,-27.06161 9.54542,-28.9313 19.456443,-28.47642 z"
       id="path20961"
       style="fill:#2c9087;fill-opacity:1;stroke:none;stroke-width:0.99999994;stroke-opacity:1" />
    <g
       style="font-style:normal;font-weight:normal;font-size:28.71495247px;line-height:125%;font-family:sans-serif;letter-spacing:0px;word-spacing:0px;fill:#000000;fill-opacity:1;stroke:none;stroke-width:1px;stroke-linecap:butt;stroke-linejoin:miter;stroke-opacity:1"
       id="g20963"
       transform="matrix(0.96646589,0,0,0.96646589,-137.39173,422.7018)">
      <path
         style="fill:#000000;fill-opacity:1"
         inkscape:connector-curvature="0"
         d="m 245.93736,427.65294 q 1.21982,1.23385 1.82273,2.74812 0.6029,1.51426 0.6029,3.11265 0,1.59839 -0.6029,3.11266 -0.60291,1.51426 -1.82273,2.72007 -0.25238,0.23835 -0.58888,0.23835 -0.15423,0 -0.30846,-0.0561 -0.14021,-0.0561 -0.23836,-0.18227 -0.2664,-0.22434 -0.2664,-0.57486 0,-0.35053 0.2664,-0.57486 0.96745,-0.98147 1.44416,-2.2013 0.49073,-1.21982 0.49073,-2.49573 0,-1.27591 -0.49073,-2.48171 -0.47671,-1.21983 -1.45818,-2.20129 -0.25238,-0.25238 -0.25238,-0.58889 0,-0.35052 0.2664,-0.57486 0.23836,-0.23835 0.56084,-0.23835 0.3365,0 0.57486,0.23835 z m -2.79017,2.10315 q 0.75713,0.75713 1.14972,1.72458 0.39258,0.96745 0.39258,2.03304 0,1.03755 -0.39258,2.005 -0.39259,0.95343 -1.14972,1.71056 -0.14021,0.11217 -0.29444,0.18227 -0.14021,0.0701 -0.29445,0.0701 -0.15423,0 -0.30846,-0.0701 -0.15423,-0.0701 -0.28042,-0.18227 -0.23835,-0.23836 -0.23835,-0.57486 0,-0.32248 0.23835,-0.58888 0.51878,-0.51878 0.81322,-1.16374 0.29444,-0.65899 0.29444,-1.38808 0,-0.72909 -0.29444,-1.4021 -0.29444,-0.673 -0.81322,-1.19178 -0.23835,-0.23836 -0.23835,-0.57486 0,-0.32248 0.23835,-0.58888 0.2664,-0.23836 0.58888,-0.23836 0.32249,0 0.58889,0.23836 z m 5.5523,-4.15021 q 1.58437,1.58437 2.41161,3.61741 0.82724,2.03304 0.82724,4.29042 0,2.22934 -0.82724,4.26238 -0.82724,2.01902 -2.41161,3.60339 -0.25238,0.23835 -0.58888,0.23835 -0.35052,0 -0.58888,-0.23835 -0.23836,-0.23836 -0.23836,-0.57486 0,-0.32249 0.25238,-0.57486 1.34601,-1.34602 2.06108,-3.08462 0.71507,-1.7386 0.71507,-3.63143 0,-1.92087 -0.71507,-3.64545 -0.71507,-1.72458 -2.0751,-3.08462 -0.23836,-0.26639 -0.23836,-0.6029 0,-0.30846 0.23836,-0.57486 0.22433,-0.22433 0.57486,-0.22433 0.3365,0 0.6029,0.22433 z m -9.4922,-1.09363 q 0.33651,-0.25238 0.63095,-0.25238 0.26639,0 0.42063,0.22433 0.15423,0.21032 0.15423,0.61693 l 0,16.79712 q 0,0.40661 -0.16826,0.63095 -0.16825,0.21031 -0.43465,0.21031 -0.30846,0 -0.63094,-0.2664 -1.44416,-1.12167 -2.57986,-2.005 -0.49073,-0.37856 -0.95342,-0.72909 -0.4627,-0.36454 -0.84126,-0.64496 -0.36455,-0.28042 -0.60291,-0.46269 -0.22433,-0.18228 -0.23835,-0.18228 l -5.4822,0 q -0.12619,0 -0.22434,-0.11216 -0.0841,-0.12619 -0.0841,-0.28042 l 0,-9.16972 q 0,-0.15423 0.0841,-0.23836 0.0982,-0.0981 0.22434,-0.0981 l 5.5523,0 q 0,-0.014 0.22434,-0.1963 0.23836,-0.18227 0.6029,-0.46269 0.36455,-0.29444 0.82724,-0.64496 0.46269,-0.36455 0.95342,-0.74312 1.1357,-0.8693 2.56584,-1.99097 z"
         id="path20965" />
    </g>
    <path
       style="fill:#d8c586;fill-opacity:1;stroke:none;stroke-width:1.10099995;stroke-linecap:round;stroke-linejoin:round;stroke-miterlimit:4;stroke-dasharray:none;stroke-dashoffset:0;stroke-opacity:1"
       d="m 116.03872,967.39107 39.30095,-32.37674 -21.51374,7e-5 1.7e-4,-28.96955 -37.380915,-1.5e-4 2.9e-5,28.9697 -19.705699,-9e-5 z"
       id="path5066"
       inkscape:connector-curvature="0"
       sodipodi:nodetypes="cccccccc"
       inkscape:transform-center-x="-6.7829594"
       inkscape:transform-center-y="-4.3206828" />
    <g
       style="font-style:normal;font-weight:normal;font-size:medium;line-height:125%;font-family:sans-serif;letter-spacing:0px;word-spacing:0px;fill:#42290d;fill-opacity:1;stroke:none;stroke-width:1px;stroke-linecap:butt;stroke-linejoin:miter;stroke-opacity:1"
       transform="matrix(0.85295456,0,0,0.85295456,152.31045,646.65798)"
       id="g22010">
      <path
         inkscape:connector-curvature="0"
         id="path20979"
         style="fill:#ffffff;fill-opacity:1"
         d="m -27.005527,341.9378 -31.214185,0 c -0.217564,0 -0.415933,-0.064 -0.595106,-0.19197 -0.166375,-0.12798 -0.300755,-0.28155 -0.403139,-0.46072 -0.102384,-0.17917 -0.153575,-0.37115 -0.153575,-0.57591 0,-0.19198 0.05119,-0.39036 0.153575,-0.59511 l 15.587902,-27.68195 c 0.102384,-0.17917 0.243158,-0.31356 0.422325,-0.40315 0.179172,-0.0896 0.371143,-0.13438 0.57591,-0.13438 0.204767,0 0.396737,0.0448 0.57591,0.13438 0.179172,0.0895 0.319951,0.22398 0.422334,0.40315 l 15.626284,27.68195 c 0.102384,0.20476 0.153575,0.40314 0.153575,0.59511 0,0.20476 -0.05119,0.39674 -0.153575,0.57591 -0.102384,0.17917 -0.243159,0.33274 -0.422325,0.46072 -0.166376,0.12797 -0.358346,0.19197 -0.57591,0.19197 z"
         sodipodi:nodetypes="ssccscccssccsccs" />
      <path
         d="m -26.733715,342.19941 -31.75781,0 q -0.33203,0 -0.60547,-0.19531 -0.25391,-0.19532 -0.41016,-0.46875 -0.15625,-0.27344 -0.15625,-0.58594 0,-0.29297 0.15625,-0.60547 l 15.85938,-28.16406 q 0.15625,-0.27344 0.42968,-0.41016 0.27344,-0.13672 0.58594,-0.13672 0.3125,0 0.58594,0.13672 0.27344,0.13672 0.42969,0.41016 l 15.89843,28.16406 q 0.15625,0.3125 0.15625,0.60547 0,0.3125 -0.15625,0.58594 -0.15625,0.27343 -0.42968,0.46875 -0.25391,0.19531 -0.58594,0.19531 z m -29.72656,-2.5 27.65625,0 -13.82813,-24.49219 -13.82812,24.49219 z m 15.64453,-7.10938 -3.63281,0 0,-10.83984 3.63281,0 0,10.83984 z m 0.54687,3.55469 q 0,0.50781 -0.19531,0.9375 -0.17578,0.42969 -0.50781,0.76172 -0.3125,0.3125 -0.74219,0.50781 -0.42969,0.17578 -0.91797,0.17578 -0.48828,0 -0.91797,-0.17578 -0.42968,-0.19531 -0.74218,-0.50781 -0.3125,-0.33203 -0.48829,-0.76172 -0.17578,-0.42969 -0.17578,-0.9375 0,-0.48828 0.17578,-0.9375 0.17579,-0.44922 0.48829,-0.76172 0.3125,-0.33203 0.74218,-0.52734 0.42969,-0.19531 0.91797,-0.19531 0.48828,0 0.91797,0.19531 0.42969,0.19531 0.74219,0.52734 0.33203,0.3125 0.50781,0.76172 0.19531,0.44922 0.19531,0.9375 z"
         style="fill:#000000;fill-opacity:1"
         id="path20981"
         inkscape:connector-curvature="0" />
    </g>
    <text
       sodipodi:linespacing="125%"
       id="text16726"
       y="916.63251"
       x="12.492021"
       style="font-style:normal;font-variant:normal;font-weight:normal;font-stretch:normal;font-size:15px;line-height:125%;font-family:'Archivo Narrow';-inkscape-font-specification:'Archivo Narrow, Normal';text-align:start;letter-spacing:0px;word-spacing:0px;writing-mode:lr-tb;text-anchor:start;fill:#000000;fill-opacity:1;stroke:none;stroke-width:1px;stroke-linecap:butt;stroke-linejoin:miter;stroke-opacity:1;"
       xml:space="preserve"><tspan
         y="916.63251"
         x="12.492021"
         id="tspan16728"
         sodipodi:role="line">Noise tracker</tspan><tspan
         id="tspan10860"
         y="933.13257"
         x="12.492021"
         sodipodi:role="line" /><tspan
         id="tspan10862"
         y="949.63257"
         x="12.492021"
         sodipodi:role="line" /><tspan
         id="tspan10864"
         y="966.13263"
         x="12.492021"
         sodipodi:role="line" /></text>
    <text
       xml:space="preserve"
       style="font-style:normal;font-variant:normal;font-weight:normal;font-stretch:normal;font-size:15px;line-height:125%;font-family:'Archivo Narrow';-inkscape-font-specification:'Archivo Narrow, Normal';text-align:start;letter-spacing:0px;word-spacing:0px;writing-mode:lr-tb;text-anchor:start;fill:#000000;fill-opacity:1;stroke:none;stroke-width:1px;stroke-linecap:butt;stroke-linejoin:miter;stroke-opacity:1;"
       x="15.116641"
       y="966.44574"
       id="text10854"
       sodipodi:linespacing="125%"><tspan
         sodipodi:role="line"
         id="tspan10856"
         x="15.116641"
         y="966.44574">Alert tracker</tspan></text>
    <g
       style="stroke:#42290d;stroke-width:0.26289994;stroke-miterlimit:4;stroke-dasharray:none;stroke-opacity:1"
       transform="matrix(1.1966236,0,0,1.181678,-84.853124,525.55252)"
       id="g20998">
      <g
         transform="matrix(0.99930595,-0.03772187,0.03678548,0.99930595,-15.085366,4.1748595)"
         id="g21000">
        <path
           d="m 102.74197,426.24556 2.63342,3.85329 -4.91482,0.45865 -2.485251,-3.86711 z"
           style="fill:none;fill-opacity:1;fill-rule:evenodd;stroke:#42290d;stroke-width:0.26289994;stroke-linecap:butt;stroke-linejoin:round;stroke-miterlimit:4;stroke-dasharray:none;stroke-dashoffset:0;stroke-opacity:1"
           id="path21002"
           inkscape:connector-curvature="0" />
        <path
           d="m 105.33267,393.51324 -5.04796,0.47109 -2.309391,32.70606 4.766651,-0.44483 z"
           style="fill:none;fill-opacity:1;fill-rule:evenodd;stroke:#42290d;stroke-width:0.26289994;stroke-linecap:butt;stroke-linejoin:round;stroke-miterlimit:4;stroke-dasharray:none;stroke-dashoffset:0;stroke-opacity:1"
           id="path21004"
           inkscape:connector-curvature="0" />
        <path
           d="m 105.33267,393.51324 2.87938,3.0088 -2.83666,33.57681 -2.63342,-3.85329 z"
           style="fill:none;fill-opacity:1;fill-rule:evenodd;stroke:#42290d;stroke-width:0.26289994;stroke-linecap:butt;stroke-linejoin:round;stroke-miterlimit:4;stroke-dasharray:none;stroke-dashoffset:0;stroke-opacity:1"
           id="path21006"
           inkscape:connector-curvature="0" />
        <path
           d="m 100.28471,393.98433 2.71291,3.02433 -2.53705,33.54884 -2.485251,-3.86711 z"
           style="fill:#ffffff;fill-opacity:1;fill-rule:evenodd;stroke:#42290d;stroke-width:0.26289994;stroke-linecap:butt;stroke-linejoin:round;stroke-miterlimit:4;stroke-dasharray:none;stroke-dashoffset:0;stroke-opacity:1"
           id="path21008"
           inkscape:connector-curvature="0" />
        <path
           d="m 108.21205,396.52204 -5.21443,0.48662 -2.53705,33.54884 4.91482,-0.45865 z"
           style="fill:#ffffff;fill-opacity:1;fill-rule:evenodd;stroke:#42290d;stroke-width:0.26289994;stroke-linecap:butt;stroke-linejoin:round;stroke-miterlimit:4;stroke-dasharray:none;stroke-dashoffset:0;stroke-opacity:1"
           id="path21010"
           inkscape:connector-curvature="0" />
        <path
           d="m 105.33267,393.51324 2.87938,3.0088 -5.21443,0.48662 -2.71291,-3.02433 z"
           style="fill:#ffffff;fill-opacity:1;fill-rule:evenodd;stroke:#42290d;stroke-width:0.26289994;stroke-linecap:butt;stroke-linejoin:round;stroke-miterlimit:4;stroke-dasharray:none;stroke-dashoffset:0;stroke-opacity:1"
           id="path21012"
           inkscape:connector-curvature="0" />
      </g>
    </g>
    <rect
       style="fill:#42290d;fill-opacity:1;stroke:none;stroke-width:1.74198794;stroke-miterlimit:4;stroke-dasharray:none;stroke-opacity:1"
       id="rect21016"
       width="62.141262"
       height="62.244427"
       x="47.589989"
       y="980.01404"
       ry="4.3913217" />
    <rect
       style="fill:#d8c586;fill-opacity:1;stroke:#42290d;stroke-width:1.25048602;stroke-miterlimit:4;stroke-dasharray:none;stroke-opacity:1"
       id="rect21018"
       width="16.138412"
       height="62.244427"
       x="111.71207"
       y="980.01404"
       ry="4.3913217" />
    <path
       style="fill:#2c9087;fill-opacity:1;stroke:none;stroke-width:0.99999994;stroke-opacity:1"
       id="path21402"
       d="m 77.846084,972.03751 c 14.29138,0.15142 43.552086,11.2298 43.889066,27.15537 l 11.50424,-3.33082 -14.90656,33.53044 -21.824311,-22.9023 12.495961,-3.615 c -3.20903,-8.64159 -22.959108,-16.17342 -33.439093,-17.03627 -13.496976,-1.11124 -37.094606,2.56685 -37.094606,35.06557 -2.61e-4,-44.32705 24.059536,-49.02932 39.375303,-48.86699 z"
       inkscape:connector-curvature="0"
       sodipodi:nodetypes="scccccscs" />
  </g>
</svg>
