<?xml version="1.0" encoding="UTF-8" standalone="no"?>
<!-- Created with Inkscape (http://www.inkscape.org/) -->

<svg
   xmlns:dc="http://purl.org/dc/elements/1.1/"
   xmlns:cc="http://creativecommons.org/ns#"
   xmlns:rdf="http://www.w3.org/1999/02/22-rdf-syntax-ns#"
   xmlns:svg="http://www.w3.org/2000/svg"
   xmlns="http://www.w3.org/2000/svg"
   xmlns:sodipodi="http://sodipodi.sourceforge.net/DTD/sodipodi-0.dtd"
   xmlns:inkscape="http://www.inkscape.org/namespaces/inkscape"
   width="75"
   height="75"
   viewBox="0 0 75.000001 75.000001"
   id="svg5199"
   version="1.1"
   inkscape:version="0.91 r13725"
   sodipodi:docname="figure_alerts_call_it_in.svg">
  <defs
     id="defs5201" />
  <sodipodi:namedview
     id="base"
     pagecolor="#ffffff"
     bordercolor="#666666"
     borderopacity="1.0"
     inkscape:pageopacity="0.0"
     inkscape:pageshadow="2"
     inkscape:zoom="5.6"
     inkscape:cx="54.714405"
     inkscape:cy="25.577315"
     inkscape:document-units="px"
     inkscape:current-layer="layer1"
     showgrid="false"
     units="px"
     borderlayer="true"
     inkscape:window-width="1280"
     inkscape:window-height="961"
     inkscape:window-x="1912"
     inkscape:window-y="-8"
     inkscape:window-maximized="1" />
  <metadata
     id="metadata5204">
    <rdf:RDF>
      <cc:Work
         rdf:about="">
        <dc:format>image/svg+xml</dc:format>
        <dc:type
           rdf:resource="http://purl.org/dc/dcmitype/StillImage" />
        <dc:title />
      </cc:Work>
    </rdf:RDF>
  </metadata>
  <g
     inkscape:label="Layer 1"
     inkscape:groupmode="layer"
     id="layer1"
     transform="translate(0,-977.36216)">
    <rect
       ry="5.2912221"
       y="977.36218"
       x="6.3343717e-009"
       height="75"
       width="75"
       id="rect5149"
       style="fill:#42290d;fill-opacity:1;stroke:none;stroke-width:1.74198794;stroke-miterlimit:4;stroke-dasharray:none;stroke-opacity:1" />
    <g
       id="g5246"
       transform="matrix(0.25205377,0,0,0.25205376,141.56696,810.26329)"
       style="fill:#42290d;fill-opacity:1">
      <path
         id="path5238"
         d="m -361.34368,894.60352 c -1.5875,0 -2.72928,0.83893 -3.38869,1.89253 -0.58973,0.9421 -0.83508,2.03513 -0.88294,2.9924 -1.79963,0.88864 -3.79332,1.78454 -5.39841,2.70058 -0.84204,0.4806 -1.57611,0.96388 -2.12868,1.48324 -0.55257,0.51934 -0.96029,1.10419 -0.96029,1.79411 0,0.29359 0.1436,0.53281 0.3051,0.70834 0.16225,0.17616 0.35598,0.31224 0.57695,0.43936 0.44187,0.2546 0.99893,0.46672 1.61176,0.65031 0.91035,0.27285 1.92989,0.47562 2.81637,0.56227 -0.88172,1.51742 -2.05515,2.9109 -3.08373,4.24619 -1.18873,1.54333 -2.22649,3.02327 -2.22649,4.66753 0,0.23488 -0.003,0.41821 0.0179,0.60247 0.0215,0.1844 0.0737,0.41405 0.25928,0.59623 0.18549,0.18226 0.41257,0.2313 0.59754,0.25136 0.18478,0.0215 0.37132,0.0215 0.61036,0.0215 l 6.55832,0 c 0.47611,0 0.82468,0.0287 1.18328,-0.20123 0.35869,-0.23022 0.48947,-0.54463 0.74496,-1.01448 l 0.003,0 0.003,-0.0215 c 0,0 0.57168,-1.16076 1.25378,-2.31284 0.3409,-0.57568 0.71126,-1.14934 1.03331,-1.55574 0.16119,-0.20301 0.31191,-0.36436 0.42042,-0.45533 0.0322,-0.0285 0.0484,-0.0322 0.0695,-0.0456 0.0215,0.0215 0.0361,0.0215 0.0695,0.0456 0.1084,0.0913 0.25928,0.25206 0.42038,0.45533 0.32195,0.4064 0.69227,0.98006 1.03334,1.55574 0.68203,1.15208 1.25374,2.31284 1.25374,2.31284 l 0.003,0.0215 0.003,0 c 0.25569,0.46985 0.38513,0.78236 0.74147,1.01324 0.3563,0.23059 0.70403,0.20302 1.17339,0.20302 l 6.58723,0 c 0.2353,0 0.41862,0 0.60231,-0.0215 0.18371,-0.0215 0.41151,-0.0705 0.59507,-0.25458 0.18334,-0.1844 0.2342,-0.41076 0.25461,-0.59416 0.0215,-0.18225 0.0179,-0.36663 0.0179,-0.60161 0,-1.64405 -1.03778,-3.12399 -2.22649,-4.66735 -1.02852,-1.33527 -2.20195,-2.72877 -3.08372,-4.24619 0.88648,-0.0871 1.90603,-0.28967 2.81637,-0.56225 0.61282,-0.18441 1.16988,-0.39584 1.61176,-0.65032 0.22094,-0.12634 0.415,-0.26354 0.5768,-0.43915 0.1619,-0.17617 0.30546,-0.41493 0.30546,-0.70858 0,-0.6899 -0.4077,-1.27475 -0.96026,-1.79408 -0.55259,-0.51937 -1.28668,-1.00263 -2.12866,-1.48326 -1.60517,-0.916 -3.59878,-1.81192 -5.39848,-2.70056 -0.0481,-0.95723 -0.29329,-2.05024 -0.88293,-2.99238 -0.65941,-1.05362 -1.80116,-1.89256 -3.38869,-1.89256 z"
         inkscape:connector-curvature="0"
         style="fill:#42290d;fill-opacity:1;stroke:none;stroke-opacity:1" />
      <path
         style="fill:#42290d;fill-opacity:1;stroke:none;stroke-opacity:1"
         inkscape:connector-curvature="0"
         d="m -333.11578,894.60352 c -1.5875,0 -2.72925,0.8389 -3.38866,1.89253 -0.58974,0.94212 -0.8351,2.03509 -0.88296,2.99237 -1.79966,0.88867 -3.7933,1.78457 -5.39845,2.70059 -0.84197,0.48061 -1.5761,0.96386 -2.12864,1.48323 -0.55258,0.51937 -0.96027,1.10422 -0.96027,1.79409 0,0.29363 0.14359,0.53283 0.3051,0.70839 0.16225,0.17616 0.35596,0.31224 0.57695,0.43933 0.44183,0.25459 0.99893,0.46671 1.61174,0.65034 0.91036,0.27285 1.9299,0.47562 2.81638,0.56223 -0.88173,1.51746 -2.05516,2.91095 -3.08376,4.24624 -1.1887,1.54332 -2.22645,3.02323 -2.22645,4.66749 0,0.23487 -0.003,0.41824 0.0179,0.6025 0.0215,0.1844 0.0737,0.41406 0.25928,0.59623 0.1855,0.18226 0.4126,0.2313 0.59757,0.25136 0.18479,0.0215 0.37132,0.0215 0.61031,0.0215 l 6.55838,0 c 0.47606,0 0.82468,0.0287 1.18328,-0.2012 0.35865,-0.23025 0.48944,-0.54464 0.74496,-1.01448 l 0.003,0 0.003,-0.0216 c 0,0 0.57169,-1.16075 1.25382,-2.31285 0.34091,-0.5757 0.71123,-1.14934 1.03331,-1.55576 0.16119,-0.20302 0.3119,-0.36434 0.42039,-0.45532 0.0322,-0.0287 0.0484,-0.0322 0.0695,-0.0455 0.0215,0.0215 0.0366,0.0215 0.0695,0.0455 0.1084,0.091 0.25927,0.25209 0.42038,0.45532 0.32193,0.40642 0.69226,0.98006 1.03328,1.55576 0.68206,1.1521 1.2538,2.31285 1.2538,2.31285 l 0.003,0.0216 0.003,0 c 0.25569,0.46984 0.38512,0.78236 0.74142,1.01321 0.35632,0.23059 0.70404,0.20302 1.17341,0.20302 l 6.58726,0 c 0.23527,0 0.41862,0 0.6023,-0.0215 0.1837,-0.0215 0.41146,-0.0705 0.59502,-0.2546 0.18337,-0.18438 0.2342,-0.41076 0.25461,-0.59416 0.0215,-0.18223 0.018,-0.36662 0.018,-0.60159 0,-1.64408 -1.03775,-3.12401 -2.22645,-4.66737 -1.02856,-1.33525 -2.20195,-2.72877 -3.08377,-4.24617 0.8865,-0.0871 1.90602,-0.28969 2.81642,-0.56227 0.61277,-0.1844 1.16987,-0.39583 1.6117,-0.65031 0.22097,-0.12635 0.41502,-0.26353 0.57683,-0.43916 0.16189,-0.17617 0.30545,-0.41491 0.30545,-0.70856 0,-0.68992 -0.40771,-1.27477 -0.96027,-1.79413 -0.55259,-0.51934 -1.28666,-1.00263 -2.12865,-1.48323 -1.60514,-0.916 -3.59877,-1.81192 -5.39844,-2.70059 -0.0479,-0.95725 -0.29329,-2.05021 -0.88294,-2.99235 -0.65943,-1.05363 -1.80114,-1.89256 -3.38871,-1.89256 z"
         id="path5240" />
      <text
         transform="scale(1.0000655,0.99993451)"
         sodipodi:linespacing="125%"
         id="text5242"
         y="915.44635"
         x="-319.87796"
         style="font-style:normal;font-weight:normal;font-size:31.57863808px;line-height:125%;font-family:sans-serif;letter-spacing:0px;word-spacing:0px;fill:#42290d;fill-opacity:1;stroke:none;stroke-width:1px;stroke-linecap:butt;stroke-linejoin:miter;stroke-opacity:1"
         xml:space="preserve"><tspan
           style="font-style:normal;font-variant:normal;font-weight:normal;font-stretch:normal;font-family:'Archivo Black';-inkscape-font-specification:'Archivo Black, ';fill:#42290d;fill-opacity:1"
           y="915.44635"
           x="-319.87796"
           id="tspan5244"
           sodipodi:role="line">+</tspan></text>
    </g>
    <path
       style="fill:#d8c586;fill-opacity:1;stroke:none;stroke-width:1.10099995;stroke-linecap:round;stroke-linejoin:round;stroke-miterlimit:4;stroke-dasharray:none;stroke-dashoffset:0;stroke-opacity:1"
       d="m 47.849745,1017.0794 -1.085055,-9.7772 -2.37907,2.3791 -5.954408,-5.9545 -4.133762,4.1337 5.954457,5.9545 -2.179148,2.1791 z"
       id="path5066"
       inkscape:connector-curvature="0"
       sodipodi:nodetypes="cccccccc"
       inkscape:transform-center-x="1.0581627"
       inkscape:transform-center-y="-2.4582554" />
    <g
       id="g15585"
       transform="matrix(0.3321254,0,0,0.3321254,-647.63368,660.74382)">
      <path
         transform="matrix(4.4465186,0,0,4.4590276,382.21568,-3793.3573)"
         d="m 395.48223,1093.1241 5.58135,9.6672 -5.58135,9.6671 -11.1627,0 -5.58135,-9.6671 5.58135,-9.6672 z"
         inkscape:randomized="0"
         inkscape:rounded="0"
         inkscape:flatsided="true"
         sodipodi:arg2="-0.52359878"
         sodipodi:arg1="-1.0471976"
         sodipodi:r2="9.6671848"
         sodipodi:r1="11.162703"
         sodipodi:cy="1102.7913"
         sodipodi:cx="389.90088"
         sodipodi:sides="6"
         id="path5070"
         style="font-style:normal;font-weight:normal;font-size:medium;line-height:125%;font-family:sans-serif;letter-spacing:0px;word-spacing:0px;fill:#d8c586;fill-opacity:1;stroke:none;stroke-width:0.11729921;stroke-linecap:butt;stroke-linejoin:round;stroke-miterlimit:4;stroke-dasharray:none;stroke-dashoffset:0;stroke-opacity:1"
         sodipodi:type="star" />
      <g
         inkscape:label="Layer 1"
         id="g5072"
         transform="matrix(1.3283503,0,0,1.3316441,2072.3039,-232.46208)"
         style="fill:#42290d;fill-opacity:1">
        <path
           inkscape:connector-curvature="0"
           style="fill:#42290d;fill-opacity:1"
           d="m 32.579912,995.13399 c 2.124847,0 3.534937,1.0606 5.426456,2.1113 1.792663,0.996 4.046316,1.8501 7.224481,1.2011 1.508237,1.5076 3.040556,3.01551 4.674665,4.03681 1.337237,0.8358 2.839909,1.3336 4.338736,1.0984 -0.430029,3.3835 -2.484655,6.6932 -4.632572,8.4257 -5.664236,-1.8772 -11.342639,-2.8162 -17.021041,-2.8162 -5.683664,0 -11.367226,0.9408 -17.036623,2.8213 -2.150144,-1.731 -4.20821,-5.044 -4.638543,-8.4308 1.498524,0.2354 3.001499,-0.2626 4.338736,-1.0983 1.634109,-1.0213 3.166226,-2.52911 4.674665,-4.03671 3.177862,0.6489 5.431819,-0.2053 7.224482,-1.2011 1.891721,-1.0512 3.30171,-2.1115 5.426558,-2.1115 z m 0.01063,1.977 c -2.004945,0 -5.379912,2.7095 -5.379912,2.7095 0,0 2.147108,8.12861 5.379912,8.12861 3.233006,0 5.380114,-8.12861 5.380114,-8.12861 0,0 -3.375168,-2.7095 -5.380114,-2.7095 z m 0,13.89451 c 5.341462,0 10.683329,0.8733 16.037945,2.6039 0.220579,1.363 -0.152787,2.3758 -0.955979,3.3124 -0.896483,1.0454 -2.401281,1.9329 -4.184938,2.6013 -3.56772,1.3375 -8.194121,1.8108 -10.897129,1.8108 -2.702907,0 -7.329105,-0.4733 -10.896724,-1.8107 -1.783861,-0.6684 -3.288455,-1.5558 -4.184939,-2.6014 -0.803394,-0.9366 -1.176963,-1.9492 -0.956181,-3.3123 5.354616,-1.7307 10.696381,-2.604 16.037844,-2.604 z m 17.527665,5.7823 c 0.993619,0.241 2.725066,0.7866 3.036104,1.7195 0.850142,2.5495 -1.71202,6.455 -3.649679,8.9193 0.533843,-2.2265 0.821608,-4.5948 0.821608,-7.0505 0,-1.22 -0.07144,-2.4182 -0.208033,-3.5883 z m -35.054926,0 a 30.949923,30.949923 0 0 0 -0.208033,3.5882 c 0,2.4557 0.287665,4.824 0.821608,7.0505 -1.937658,-2.4643 -4.499921,-6.3698 -3.649678,-8.9193 0.310936,-0.9329 2.042484,-1.4785 3.036002,-1.7195 z m 33.393498,1.9398 c 0.03086,0.5441 0.04806,1.0934 0.04806,1.6483 0,6.0077 -1.834452,11.4294 -4.745796,15.3096 -2.911244,3.88 -6.850408,6.2038 -11.168604,6.2038 -4.317892,0 -8.257158,-2.3238 -11.1683,-6.2038 -2.911244,-3.8802 -4.745494,-9.3018 -4.745494,-15.3095 0,-0.5551 0.0172,-1.1044 0.04796,-1.6485 0.829701,0.7747 1.843152,1.4032 2.958091,1.9255 -0.432053,1.8416 0.02691,4.1322 1.224114,5.3289 2.203164,2.2022 7.144041,2.2022 9.347306,0 0.68238,-0.6823 0.975103,-1.7694 0.936451,-2.8602 0.499238,0.022 0.971359,0.033 1.400072,0.033 0.428815,0 0.901036,-0.012 1.400376,-0.033 -0.03875,1.0907 0.25397,2.1779 0.936552,2.8602 2.203265,2.2022 7.14394,2.2022 9.347103,0 1.1972,-1.1967 1.656166,-3.487 1.224114,-5.3285 1.11504,-0.5223 2.128693,-1.1511 2.958193,-1.9258 z m -15.866237,11.926 c -2.336725,3.7373 -7.010176,4.2044 -9.346901,4.2044 2.336624,1.8688 9.3468,1.8688 9.3468,0 0,1.8688 7.010479,1.8688 9.347305,0 -2.336826,0 -7.010479,-0.4671 -9.347305,-4.2044 z"
           id="path5074" />
      </g>
    </g>
    <g
       id="g15578"
       transform="matrix(0.3321254,0,0,0.3321254,-628.19033,653.30959)">
      <path
         sodipodi:type="star"
         style="font-style:normal;font-weight:normal;font-size:medium;line-height:125%;font-family:sans-serif;letter-spacing:0px;word-spacing:0px;fill:#d8c586;fill-opacity:1;stroke:none;stroke-width:0.11580213;stroke-linecap:butt;stroke-linejoin:round;stroke-miterlimit:4;stroke-dasharray:none;stroke-dashoffset:0;stroke-opacity:1"
         id="path5078"
         sodipodi:sides="6"
         sodipodi:cx="919.35248"
         sodipodi:cy="843.09918"
         sodipodi:r1="11.162703"
         sodipodi:r2="9.6671848"
         sodipodi:arg1="-1.0471976"
         sodipodi:arg2="-0.52359878"
         inkscape:flatsided="true"
         inkscape:rounded="0"
         inkscape:randomized="0"
         d="m 924.93383,833.432 5.58135,9.66718 -5.58135,9.66719 -11.1627,0 -5.58135,-9.66719 5.58135,-9.66718 z"
         transform="matrix(4.5001842,0,0,4.5205068,-2181.2566,-2782.3665)" />
      <path
         sodipodi:nodetypes="ccccccccscccccccccsccccccsccccccccccccccccscccscccssccccccccc"
         d="m 1932.3505,1022.7572 3.4225,17.5782 -12.6136,2.7444 c -0.4684,0.1011 -0.8051,0.5128 -0.8118,0.9927 l -0.1149,8.2908 c -0.011,0.7028 0.6707,1.2088 1.3395,0.996 l 15.8536,-5.0754 2.6111,-0.5072 c 0.019,4e-4 0.038,0 0.057,0 1.0777,0 2.0925,-0.5142 2.8013,-1.3522 0.7082,-0.8375 1.0787,-1.9287 1.0776,-3.053 l 0,0 c 6e-4,-0.7128 -0.1485,-1.4135 -0.4378,-2.0442 l -2.7356,-14.1563 z m 2.2853,0.9625 1.7333,0.732 3.2182,15.1304 c -0.3253,-0.1003 -0.6649,-0.1531 -1.0112,-0.1531 -0.2948,0 -0.5845,0.04 -0.8646,0.1126 l -3.0757,-15.8221 z m 4.043,1.7073 1.842,0.7778 2.4895,12.8835 c -0.2957,-0.081 -0.6023,-0.125 -0.9143,-0.125 -0.1779,0 -0.3535,0.018 -0.5266,0.042 l -2.8904,-13.5784 z m 3.4171,15.6032 c 0.4181,0 0.8938,0.2144 1.2417,0.6258 0.348,0.4114 0.588,1.0722 0.5871,1.7125 0,0.6402 -0.2392,1.301 -0.587,1.7124 -0.1652,0.1952 -0.3589,0.3444 -0.5616,0.4491 l -0.6649,0.1285 c 0.228,-0.5718 0.3447,-1.1928 0.344,-1.8244 l 0,0 c 4e-4,-0.4092 -0.049,-0.8143 -0.1453,-1.2042 0,-0.082 0,-0.1637 -0.021,-0.2438 l -0.2875,-1.3506 0.094,0 z m -3.5198,0.4662 c 0.4183,0 0.8941,0.2143 1.2421,0.6258 0.3479,0.4114 0.5877,1.0724 0.5868,1.7126 0,0.6402 -0.2392,1.301 -0.5869,1.7125 -0.348,0.4114 -0.8237,0.6259 -1.2421,0.6259 -0.4181,0 -0.8911,-0.2147 -1.239,-0.6259 -0.3479,-0.4115 -0.5908,-1.0723 -0.5899,-1.7125 0,-0.6402 0.242,-1.3012 0.5899,-1.7126 0.3479,-0.4115 0.8209,-0.6258 1.239,-0.6258 z m -3.7338,1.1481 c -0.094,0.3859 -0.1425,0.7861 -0.142,1.1903 l 0,0 c 0,1.1242 0.3691,2.2156 1.0774,3.0531 0.091,0.1073 0.1864,0.2092 0.2866,0.3053 l -11.7532,3.7626 0.085,-6.041 10.4466,-2.2731 z"
         id="path5114"
         inkscape:connector-curvature="0"
         style="fill:#42290d;fill-opacity:1;stroke-linecap:round;stroke-linejoin:round" />
      <path
         sodipodi:nodetypes="cccccccccccccccccccccccccccccccccccccccccccccccccccccccccccccccccccccccccccccccccccccccc"
         style="fill:#42290d;fill-opacity:1;stroke-linecap:round;stroke-linejoin:round"
         inkscape:connector-curvature="0"
         id="path5116"
         d="m 1988.4302,1019.5644 c 0.6373,-1.4745 1.0938,-3.1188 1.3232,-4.9576 l 0.01,-0.014 c 0,-0.019 0,-0.038 0,-0.057 7e-4,-0.016 0,-0.03 6e-4,-0.046 5e-4,-0.019 -9e-4,-0.038 0,-0.057 -9e-4,-0.016 0,-0.031 0,-0.047 0,-0.02 -0.01,-0.039 -0.01,-0.058 0,-0.014 -0.01,-0.029 -0.01,-0.044 0,-0.019 -0.01,-0.038 -0.014,-0.057 0,-0.014 -0.01,-0.029 -0.012,-0.043 -0.01,-0.018 -0.012,-0.037 -0.018,-0.055 -0.01,-0.014 -0.011,-0.028 -0.016,-0.042 -0.01,-0.019 -0.016,-0.036 -0.024,-0.054 -0.01,-0.012 -0.012,-0.025 -0.018,-0.037 -0.01,-0.018 -0.021,-0.037 -0.032,-0.054 -0.01,-0.012 -0.014,-0.023 -0.021,-0.035 -0.012,-0.016 -0.023,-0.033 -0.035,-0.048 -0.01,-0.01 -0.018,-0.023 -0.027,-0.035 -0.012,-0.016 -0.026,-0.03 -0.04,-0.045 -0.011,-0.011 -0.02,-0.022 -0.03,-0.032 -0.014,-0.014 -0.029,-0.028 -0.044,-0.04 -0.01,-0.01 -0.021,-0.021 -0.033,-0.03 -0.02,-0.016 -0.039,-0.032 -0.061,-0.046 l -10.1605,-7.0472 c -0.4016,-0.2785 -0.9434,-0.2354 -1.2963,0.1028 l -6.9596,6.6737 -8.1939,7.8537 -10.6717,10.2336 -0.01,0.016 c -0.014,0.016 -0.028,0.03 -0.043,0.046 -0.011,0.01 -0.021,0.018 -0.031,0.028 -0.014,0.016 -0.027,0.031 -0.04,0.047 -0.012,0.011 -0.023,0.023 -0.034,0.034 -0.01,0.016 -0.014,0.032 -0.021,0.048 -0.01,0.016 -0.014,0.032 -0.021,0.048 -0.01,0.014 -0.012,0.028 -0.018,0.043 -0.01,0.018 -0.016,0.035 -0.024,0.053 -0.01,0.011 -0.011,0.024 -0.014,0.037 l -3.0595,8.5269 c -0.1254,0.353 -0.05,0.7463 0.1978,1.0272 l 8.4543,9.6308 8e-4,0 2e-4,10e-5 0,0 c 0.4041,0.4692 1.1275,0.477 1.5419,0.018 0.7587,-0.5912 1.4001,-1.26 1.9382,-1.9901 l 25.0993,-25.494 c 0.021,-0.022 0.041,-0.045 0.06,-0.069 0.9541,-1.1597 1.7729,-2.4643 2.4106,-3.9387 z m -0.2313,-3.2125 c -0.053,0.1262 -0.1314,0.2405 -0.2293,0.3362 l -24.0701,23.9167 c -0.3549,0.353 -0.9118,0.3993 -1.3199,0.1098 -0.034,-0.048 -0.073,-0.092 -0.1147,-0.1332 l -0.1698,-0.1723 c -0.2474,-0.4071 -0.1839,-0.9311 0.1536,-1.2671 l 24.0733,-23.9152 c 0.7966,-0.8039 2.1164,0.082 1.6773,1.1256 z m -28.106,30.0304 c -0.1891,0.4378 -0.426,0.8491 -0.7018,1.2396 l -1.2017,1.2206 -3.9615,-4.5124 c 0.364,0.2654 0.7437,0.485 1.1204,0.6432 0.8716,0.3661 1.7108,0.3939 2.2805,0.061 0.5697,-0.3326 0.848,-1.0133 0.7654,-1.839 -0.021,-0.204 -0.063,-0.4176 -0.1244,-0.6334 0.056,0.097 0.1198,0.1925 0.1945,0.2836 0.213,0.2596 0.4946,0.4798 0.7768,0.5988 0.283,0.1188 0.5615,0.1316 0.7529,0.023 0.096,-0.054 0.1667,-0.1334 0.2085,-0.2346 0.042,-0.101 0.056,-0.2238 0.042,-0.3545 -0.03,-0.2621 -0.1745,-0.5576 -0.3878,-0.8177 -0.2137,-0.26 -0.4943,-0.4799 -0.7772,-0.5986 -0.2828,-0.1186 -0.5613,-0.1317 -0.7528,-0.024 -0.1904,0.1084 -0.2777,0.3283 -0.2538,0.5877 -0.2072,-0.4933 -0.5036,-0.9914 -0.8731,-1.4523 -0.6679,-0.8337 -1.5569,-1.5281 -2.4288,-1.8939 -0.8715,-0.3661 -1.7164,-0.3893 -2.2861,-0.057 -0.5699,0.3324 -0.8423,1.0082 -0.7594,1.8339 0.052,0.5162 0.2415,1.084 0.5394,1.6406 l -1.4069,-1.603 2.2989,-6.4164 7.5778,7.6837 c 0.1405,1.7897 -0.071,3.3088 -0.6492,4.6166 z" />
      <path
         sodipodi:nodetypes="cccccccc"
         id="path5118"
         d="m 1932.9967,991.96651 1.9798,12.57629 -5.1276,-1.3119 7.9408,17.3747 -1.9816,-12.5738 5.1295,1.3095 -7.9413,-17.37501 z"
         inkscape:connector-curvature="0"
         style="fill:#42290d;fill-opacity:1" />
      <path
         style="fill:#42290d;fill-opacity:1"
         inkscape:connector-curvature="0"
         d="m 1962.3292,995.8773 -7.0788,10.5745 -2.8719,-4.4524 -5.9604,18.1521 7.0757,-10.5739 2.8752,4.4521 5.9601,-18.15278 z"
         id="path5120"
         sodipodi:nodetypes="cccccccc" />
    </g>
  </g>
</svg>
