<?xml version="1.0" encoding="UTF-8" standalone="no"?>
<!-- Created with Inkscape (http://www.inkscape.org/) -->

<svg
   xmlns:dc="http://purl.org/dc/elements/1.1/"
   xmlns:cc="http://creativecommons.org/ns#"
   xmlns:rdf="http://www.w3.org/1999/02/22-rdf-syntax-ns#"
   xmlns:svg="http://www.w3.org/2000/svg"
   xmlns="http://www.w3.org/2000/svg"
   xmlns:sodipodi="http://sodipodi.sourceforge.net/DTD/sodipodi-0.dtd"
   xmlns:inkscape="http://www.inkscape.org/namespaces/inkscape"
   width="30"
   height="75"
   viewBox="0 0 30 75"
   id="svg11217"
   version="1.1"
   inkscape:version="0.92.0 r15299"
   sodipodi:docname="figure_reinforcements.svg">
  <defs
     id="defs11219" />
  <sodipodi:namedview
     id="base"
     pagecolor="#ffffff"
     bordercolor="#666666"
     borderopacity="1.0"
     inkscape:pageopacity="0.0"
     inkscape:pageshadow="2"
     inkscape:zoom="3.959798"
     inkscape:cx="-5.4651192"
     inkscape:cy="45.636557"
     inkscape:document-units="px"
     inkscape:current-layer="layer1"
     showgrid="false"
     inkscape:window-width="1920"
     inkscape:window-height="1017"
     inkscape:window-x="-8"
     inkscape:window-y="-8"
     inkscape:window-maximized="1"
     units="px" />
  <metadata
     id="metadata11222">
    <rdf:RDF>
      <cc:Work
         rdf:about="">
        <dc:format>image/svg+xml</dc:format>
        <dc:type
           rdf:resource="http://purl.org/dc/dcmitype/StillImage" />
        <dc:title></dc:title>
      </cc:Work>
    </rdf:RDF>
  </metadata>
  <g
     inkscape:label="Layer 1"
     inkscape:groupmode="layer"
     id="layer1"
     transform="translate(0,-977.36216)">
    <g
       id="g11773"
       transform="matrix(0.59154178,0,0,0.59154178,4.2146473,429.46245)">
      <rect
         ry="8.5091991"
         y="929.59869"
         x="2.5966625"
         height="120.61295"
         width="31.271902"
         id="rect5548"
         style="fill:none;stroke:#42290d;stroke-width:2.42310548;stroke-miterlimit:4;stroke-dasharray:none;stroke-opacity:1" />
      <path
         inkscape:connector-curvature="0"
         style="fill:#42290d;fill-opacity:1"
         d="m 9.7930057,955.54074 0,17.78527 2.3678513,0 0,-17.78527 z m 6.3143493,12.59534 0,5.18993 2.367851,0 0,-5.18993 z m -8.15603,6.15857 0,13.07818 2.104766,2.10754 0,24.60083 14.470381,0 0,-24.60083 2.104835,-2.10754 0,-13.07818 z m 19.707851,0.92178 0,10.53987 2.161701,0 0,-10.53987 z m -16.682216,0.92215 12.628712,0 0,2.37176 -12.628712,0 z m 0,4.2165 12.628712,0 0,2.37106 -12.628712,0 z m 0,4.21584 12.628712,0 0,2.37105 -12.628712,0 z m 4.209516,5.40089 c 1.743682,0 3.15718,1.41564 3.15718,3.16221 0,1.74612 -1.413498,3.1612 -3.15718,3.1612 -1.743602,0 -3.15717,-1.41508 -3.15717,-3.1612 0,-1.74657 1.413568,-3.16221 3.15717,-3.16221 z"
         id="path6846"
         sodipodi:nodetypes="cccccccccccccccccccccccccccccccccccccccsssss" />
    </g>
  </g>
</svg>
