<?xml version="1.0" encoding="UTF-8" standalone="no"?>
<!-- Created with Inkscape (http://www.inkscape.org/) -->

<svg
   xmlns:dc="http://purl.org/dc/elements/1.1/"
   xmlns:cc="http://creativecommons.org/ns#"
   xmlns:rdf="http://www.w3.org/1999/02/22-rdf-syntax-ns#"
   xmlns:svg="http://www.w3.org/2000/svg"
   xmlns="http://www.w3.org/2000/svg"
   xmlns:sodipodi="http://sodipodi.sourceforge.net/DTD/sodipodi-0.dtd"
   xmlns:inkscape="http://www.inkscape.org/namespaces/inkscape"
   width="450"
   height="325"
   viewBox="0 0 450.00001 325"
   id="svg5199"
   version="1.1"
   inkscape:version="0.91 r13725"
   sodipodi:docname="figure_alerts_lockdown_two_alerts.svg">
  <defs
     id="defs5201" />
  <sodipodi:namedview
     id="base"
     pagecolor="#ffffff"
     bordercolor="#666666"
     borderopacity="1.0"
     inkscape:pageopacity="0.0"
     inkscape:pageshadow="2"
     inkscape:zoom="0.98994949"
     inkscape:cx="69.219696"
     inkscape:cy="139.17055"
     inkscape:document-units="px"
     inkscape:current-layer="layer1"
     showgrid="false"
     units="px"
     borderlayer="true"
     inkscape:window-width="1920"
     inkscape:window-height="1017"
     inkscape:window-x="-8"
     inkscape:window-y="-8"
     inkscape:window-maximized="1" />
  <metadata
     id="metadata5204">
    <rdf:RDF>
      <cc:Work
         rdf:about="">
        <dc:format>image/svg+xml</dc:format>
        <dc:type
           rdf:resource="http://purl.org/dc/dcmitype/StillImage" />
        <dc:title></dc:title>
      </cc:Work>
    </rdf:RDF>
  </metadata>
  <g
     inkscape:label="Layer 1"
     inkscape:groupmode="layer"
     id="layer1"
     transform="translate(0,-727.36216)">
    <path
       style="fill:#000000;fill-opacity:1;stroke:none;stroke-width:10;stroke-linecap:round;stroke-linejoin:round;stroke-miterlimit:4;stroke-dasharray:none;stroke-dashoffset:0;stroke-opacity:1"
       d="m 218.58758,750.4858 c -2.49842,0.0676 -6.3411,1.13425 -5.9376,2.68827 1.30248,1.38876 2.09449,3.36824 3.0213,5.14857 2.06714,3.9703 3.65595,8.44265 4.92954,13.73934 1.17459,0.82716 1.59845,0.70386 3.32235,0.31568 1.15091,-0.25868 2.1434,-0.41006 2.50696,-1.30612 0.51689,-1.4622 0.8619,-2.89695 1.26823,-4.37131 0.45078,-1.63542 0.97572,-3.31438 1.89061,-4.99958 1.88711,-3.47555 3.81508,-6.35894 4.85054,-9.0758 0.3818,-1.11997 -2.58854,-1.58685 -3.78702,-1.59245 -2.56592,-0.0143 -5.83125,0.0762 -10.61866,-0.42971 -0.36408,-0.0972 -0.86981,-0.1327 -1.44625,-0.11689 z m -8.89472,1.54282 c -0.29079,-0.0288 -0.57884,0.0239 -0.83857,0.16384 -3.46864,1.88275 -6.87069,0.45653 -9.44975,2.88693 -0.86056,0.81099 -1.09232,2.15773 -0.27161,3.00972 4.98995,5.1831 5.29783,6.86538 9.79173,15.2295 3.29225,2.32453 6.95554,0.54319 7.97121,0.1111 1.08107,-0.47712 1.87519,-1.46747 1.53411,-2.60056 -0.66142,-7.32057 -3.66568,-10.91204 -6.97781,-17.09965 -0.0144,-0.88739 -0.88418,-1.62287 -1.7561,-1.69766 l 0,-0.003 z m 26.98773,0.82109 c -0.87191,0.0747 -1.74052,0.81313 -1.75608,1.70063 -3.31215,6.18757 -6.31625,9.77908 -6.97782,17.0996 -0.34108,1.13309 0.44983,2.12314 1.53123,2.60061 5.47384,2.41722 3.61106,0.7338 6.03394,1.12495 1.16667,0.18826 1.99385,-0.19402 2.55381,-1.23599 4.49389,-8.36418 4.80163,-10.04645 9.79163,-15.22955 0.82014,-0.85189 0.58857,-2.19869 -0.27161,-3.00967 -2.57909,-2.43059 -6.59501,-1.00414 -10.06345,-2.88694 -0.25917,-0.14132 -0.551,-0.18875 -0.84155,-0.16383 z m -41.36692,3.89212 c -0.29031,0.0287 -0.56911,0.1236 -0.80054,0.3066 -3.09388,2.45195 -7.29695,1.73444 -9.42062,4.57294 -0.70856,0.94702 -0.72696,2.34422 0.24814,3.01258 6.01886,4.12455 7.49457,5.22513 12.26076,13.31854 3.64201,1.72304 7.55348,-0.76657 8.47972,-1.3675 0.98305,-0.65647 1.59393,-1.77094 1.06354,-2.82853 -1.90776,-7.09767 -5.48444,-10.11922 -9.80914,-15.64446 -0.16718,-0.87152 -1.15015,-1.44673 -2.02206,-1.3704 z m 55.56212,1.4669 c -0.87297,-0.0638 -1.84678,0.52566 -2.0016,1.39963 -4.24346,5.58804 -7.77447,8.66277 -9.57842,15.78764 -0.51498,1.06516 0.11063,2.16889 1.10453,2.81095 0.93506,0.58732 4.88079,3.01811 8.49721,1.24185 5.75256,-7.55119 6.32271,-9.16232 12.06507,-13.49388 0.94386,-0.71195 0.9268,-2.07891 0.20454,-3.0155 -2.16495,-2.80712 -6.35557,-2.02925 -9.4849,-4.43561 -0.23378,-0.18059 -0.51555,-0.27401 -0.80639,-0.29508 z m -68.87774,5.54008 c -0.44599,0.0144 -0.87656,0.17822 -1.16873,0.51139 -2.60152,2.97072 -6.86399,3.02773 -8.44173,6.20343 -0.52633,1.0596 -0.28551,2.41795 0.78602,2.91616 6.59739,3.06686 9.22493,3.82394 15.00157,10.77636 3.8926,1.03691 6.74754,-2.01166 7.55052,-2.77004 0.84873,-0.82339 1.24681,-2.02733 0.53466,-2.97172 -3.15443,-6.63654 -7.21374,-8.96332 -12.46238,-13.61656 -0.26779,-0.68916 -1.0564,-1.07455 -1.79993,-1.04902 z m 82.02387,1.97239 c -0.74344,-0.0288 -1.53185,0.35976 -1.79993,1.04897 -5.24869,4.65328 -9.30781,6.97704 -12.46244,13.61368 -0.71209,0.94444 -0.31425,2.1513 0.53472,2.9746 0.8028,0.75843 4.20139,3.91506 8.09404,2.87821 7.11051,-6.28439 7.98333,-8.98913 14.45801,-12.1176 1.06415,-0.51426 1.31248,-1.85665 0.78606,-2.91617 -1.57765,-3.1757 -5.84021,-1.99968 -8.44173,-4.97035 -0.2927,-0.33342 -0.72246,-0.49601 -1.16873,-0.51134 z m -93.3876,7.63521 c -0.74382,-0.0513 -1.54167,0.30515 -1.82622,0.98766 -1.52003,3.64659 -4.70277,4.77768 -6.03394,8.06477 -0.44409,1.09668 -0.10302,2.44045 1.00518,2.84894 2.02522,0.74569 11.4822,4.50611 13.35364,5.5343 1.96061,1.07718 1.26479,1.22544 4.58172,2.60055 1.07494,0.44599 2.02867,0.40049 2.62393,-0.14036 2.02403,-1.83777 3.49484,-3.5874 4.63723,-5.2976 0.54233,-1.05151 -0.40671,-1.95345 -1.38205,-2.62106 -5.10253,-5.28203 -9.34641,-8.69726 -15.80226,-11.4309 -0.28455,-0.3406 -0.7108,-0.51593 -1.15723,-0.5464 z m 107.45406,0.11688 c -0.44647,0.0335 -0.87292,0.20599 -1.15704,0.5464 -6.45613,2.73384 -12.01432,7.46343 -17.11715,12.74584 -2.04332,1.50047 2.42155,8.63029 6.31746,8.30147 5.62315,-3.97173 11.79189,-6.46016 19.24425,-9.20438 1.10906,-0.40863 1.4494,-1.75221 1.00524,-2.84895 -1.33123,-3.28703 -4.94646,-4.90908 -6.46647,-8.55565 -0.28456,-0.68259 -1.08241,-1.03555 -1.82628,-0.98473 z m -57.85288,2.69705 c -3.02792,0.18012 -5.95346,0.59852 -8.74558,1.24767 l 0,10.02543 -9.33875,0 0,-6.81997 c -3.20191,1.48724 -6.1369,3.29513 -8.7456,5.3765 l 0,1.44347 -1.6976,0 c -2.90687,2.59686 -5.34814,5.54655 -7.23199,8.7602 l 8.92959,0 0,11.30236 -16.87465,0 c -0.36169,3.0421 0.77769,6.31908 1.35589,9.50824 l 15.51876,0 0,9.6543 -15.12723,0 c -0.62909,3.35765 -0.13461,6.43514 0.37414,9.50824 l 14.75323,0 0,8.97932 -13.6838,0 c -0.61941,3.29297 -0.39953,6.41875 0,9.50813 l 13.6838,0 0,7.63507 -13.83869,0 c -0.69519,3.16938 0.86268,6.33924 1.31207,9.50862 l 12.52662,0 0,8.63436 -12.64063,0 c 0,0 -2.01142,0.7157 -2.07758,1.07834 l 0.46467,7.68201 14.25349,0 0,11.45978 3.90688,12.2756 c -18.33331,-1.33559 -36.82355,1.7126 -56.00333,-0.92648 -0.11688,0 -0.23377,-0.0479 -0.34779,-0.0479 -1.7179,0 -3.07395,1.67572 -3.07395,3.45681 l 0,2.99836 c 0,1.8999 1.53209,3.26471 3.42179,3.42998 10.95333,0.95954 21.70499,1.75715 32.32036,1.93153 31.43919,0.61221 69.74443,0.47426 105.6745,-0.13893 11.2361,-0.23473 17.96721,-1.55307 29.38388,-1.79115 1.89626,-0.0479 3.42452,-1.53057 3.42452,-3.43047 l 0,-2.99836 c 0,-1.8999 -1.532,-3.55549 -3.42452,-3.43046 -7.15511,0.47426 -14.32832,1.37104 -21.53234,1.18372 -11.38001,-0.297 -23.05072,0 -34.848,0.33055 l 4.09672,-12.86531 0,-11.46026 12.93861,0 -0.37701,-6.20368 c 0,-0.82874 -0.11833,-1.68145 -0.33582,-2.55667 l -12.22573,0 0,-8.63436 13.76846,0 c 0.70841,-4.07957 1.33798,-8.04656 0.2309,-9.50813 l -13.99931,0 0,-7.63555 13.22794,0 c 0.59724,-3.11956 1.748,-6.19313 0,-9.50814 l -13.22794,0 0,-8.97927 13.38282,0 c 0.5866,-3.17552 1.14584,-6.25101 0.84734,-9.50824 l -14.23016,0 0,-9.6543 14.30901,0 c 0.37605,-3.13532 1.03365,-6.23519 0.30707,-9.50824 l -14.61584,0 0,-11.30236 6.67381,0 c -3.90458,-4.43245 -9.39935,-8.78056 -15.41941,-12.2929 l 0,3.5327 -9.33874,0 0,-8.10272 c -2.95999,-1.17438 -5.91055,-2.06886 -8.74559,-2.6269 l 0,10.72962 -9.3388,0 0,-11.2731 z m 68.61173,9.80624 c -0.2927,0.009 -0.57644,0.0934 -0.81803,0.26301 -6.02963,2.15562 -12.40006,5.57252 -19.82591,7.87774 -1.1149,0.39187 -1.44717,1.61674 -1.19509,2.77298 1.27691,5.85406 2.97182,5.19052 3.31066,7.54174 0.1691,1.17127 1.80322,1.8783 2.77,1.19801 5.61831,-3.95359 11.13345,-7.17207 19.8229,-7.87484 1.17754,-0.0954 1.56667,-1.64859 1.19805,-2.77296 -1.10526,-3.37005 -2.78763,-3.62534 -3.31348,-7.54175 -0.11832,-0.87967 -1.07134,-1.4975 -1.9491,-1.46393 z m -129.0506,0.1169 c -0.87771,-0.0335 -1.83369,0.58424 -1.95188,1.46392 -0.5259,3.9164 -2.09722,3.73628 -3.20253,7.10634 -0.36887,1.12442 0.0613,2.44103 1.19508,2.77301 7.62141,2.23107 14.21818,3.75123 20.09764,7.3313 1.00969,0.61477 2.59835,-0.0335 2.76712,-1.20092 0.33917,-2.35121 1.65674,-0.70593 2.93364,-6.55994 0.25198,-1.15618 -0.0823,-2.38096 -1.19791,-2.77297 -6.29382,-3.77959 -12.88058,-6.9108 -19.82295,-7.87775 -0.24096,-0.17006 -0.52556,-0.25198 -0.81821,-0.26299 z m 42.35454,10.11016 9.33875,0 0,11.30236 -9.33875,0 0,-11.30236 z m 18.08433,0 9.33875,0 0,11.30236 -9.33875,0 0,-11.30236 z m 18.08435,0 9.3388,0 0,11.30236 -9.3388,0 0,-11.30236 z m 56.20501,2.12429 c -0.29318,0.005 -0.57827,0.0814 -0.82406,0.24526 -6.96463,0.7911 -13.6316,3.75296 -20.0188,7.37226 -1.12427,0.36312 -1.37965,1.56295 -1.2652,2.74083 0.32288,3.31717 0.0479,4.9545 -0.35066,7.29628 -0.19833,1.16658 0.89899,1.12447 2.04841,0.85031 6.69344,-1.59672 13.56308,-0.47138 21.50019,-0.24814 1.181,0.0335 1.99188,-1.08687 1.98694,-2.2704 -0.0192,-3.54711 -0.73591,-10.54433 -1.16288,-14.47271 -0.0958,-0.88241 -1.03561,-1.525 -1.91394,-1.51364 z m -141.32903,0.68087 c -0.87622,0.0479 -1.77028,0.7475 -1.80874,1.6334 -0.1715,3.94793 -0.43546,10.10791 -0.22227,13.6487 0.0704,1.18138 0.95661,2.24616 2.1331,2.13597 7.90553,-0.74041 14.54192,-1.15684 21.32481,0 1.16485,0.19834 2.40722,-0.98482 2.1331,-2.13597 -0.55023,-2.31069 -0.93308,-3.05642 -0.82688,-6.38753 0.0383,-1.18292 -0.29461,-2.36362 -1.44055,-2.65315 -6.60875,-3.19516 -13.45296,-5.7162 -20.45415,-6.05153 -0.25532,-0.14754 -0.5441,-0.20407 -0.83569,-0.18971 l 0,0 z m 11.14452,17.97038 c -3.58309,-0.0479 -7.07534,0.19066 -10.38781,0.83857 -1.14895,-0.27594 -1.87711,0.98065 -2.13306,2.13602 -0.80131,3.61518 -0.8073,6.74336 0,10.35855 0.2582,1.15504 0.96072,2.28133 2.13306,2.13306 7.91933,-1.00193 14.39011,-0.76557 21.32783,0 1.17443,0.12934 2.40721,-0.98181 2.1331,-2.13306 -0.55024,-2.31079 0.96767,-4.44538 0,-10.35855 -0.19162,-1.16796 -0.9524,-2.18325 -2.1331,-2.13602 -3.68196,-0.47234 -7.35694,-0.79469 -10.94002,-0.83857 z m 120.60321,0 c -3.58308,0.0479 -7.25805,0.36646 -10.94001,0.83857 -1.18056,-0.0479 -1.94191,0.96806 -2.1331,2.13602 -0.96754,5.91317 0.55023,8.53573 0,10.8465 -0.27403,1.15116 0.95537,2.23203 2.1331,2.13598 7.01387,-0.57227 13.47705,-1.4288 21.32769,0 1.16241,0.21127 1.87513,-0.98099 2.13305,-2.13598 0.8073,-3.61517 0.80132,-7.23132 0,-10.8465 -0.25628,-1.15537 -0.98411,-2.41176 -2.13305,-2.13602 -3.31263,-0.64773 -6.80445,-0.88255 -10.38767,-0.83857 z m -82.79239,0.0335 9.33875,0 0,9.65429 -9.33875,0 0,-9.65429 z m 18.08433,0 9.33875,0 0,9.65429 -9.33875,0 0,-9.65429 z m 18.08435,0 9.3388,0 0,9.65429 -9.3388,0 0,-9.65429 z m 46.50673,15.99799 c -3.58313,0.0479 -7.25806,0.36982 -10.94002,0.84154 -1.18057,-0.0479 -1.71393,1.02942 -2.13295,2.13598 -2.07131,5.47106 0.19114,7.66413 0,10.11878 -0.091,1.1799 0.95507,2.04314 2.13295,2.13607 7.12517,0.56289 13.67092,1.45056 21.32784,0 1.16092,-0.22036 1.87513,-0.98108 2.13306,-2.13607 0.80729,-3.61489 0.80129,-6.50356 0,-10.11878 -0.2563,-1.15532 -0.98411,-2.41182 -2.13306,-2.13598 -3.31262,-0.64782 -6.80474,-0.88552 -10.38782,-0.84154 z m -120.1532,0.27449 c -3.58279,-0.0479 -7.14567,0.10151 -10.60381,0.56685 -1.14901,-0.27592 -1.87716,0.98066 -2.13311,2.13598 -0.8013,3.61542 -0.80729,7.23128 0,10.84665 0.25773,1.15499 0.95551,2.03739 2.13311,2.13607 7.65715,0.64193 14.19978,0.43594 21.32481,0 1.17937,-0.0718 2.22766,-0.95617 2.13592,-2.13607 -0.19113,-2.45464 2.07131,-5.37539 0,-10.84665 -0.4182,-1.1066 -0.95521,-2.1834 -2.13592,-2.13598 -3.53763,-0.29173 -7.13819,-0.5234 -10.721,-0.56685 z m 37.47779,2.88986 9.33875,0 0,8.9796 -9.33875,0 0,-8.9796 z m 18.08433,0 9.33875,0 0,8.9796 -9.33875,0 0,-8.9796 z m 18.08435,0 9.3388,0 0,8.9796 -9.3388,0 0,-8.9796 z m 57.32118,13.09654 c -0.14083,0 -0.28311,4.7e-4 -0.42683,0.0479 -7.56382,1.81607 -14.09311,0.29222 -21.32782,0 -1.18053,-0.0479 -2.20339,0.95474 -2.13292,2.13607 0.32527,5.47121 0.59512,8.38909 0,10.84372 -0.27833,1.1502 0.95192,2.10398 2.13292,2.13609 6.32582,0.17245 13.25611,0.9691 21.32782,0 1.1731,-0.13893 1.92529,-0.97104 2.13311,-2.13609 0.64451,-3.61537 -0.423,-7.22835 0,-10.84372 0.11976,-1.02851 -0.72394,-2.10302 -1.70642,-2.17104 l 0,0 z m -142.00118,0.64575 0,0 c -0.98247,0.0671 -1.82368,1.14541 -1.70339,2.17393 0.423,3.61489 -0.64466,6.57396 0,10.18886 0.20791,1.16505 0.95268,2.08338 2.13305,2.13607 8.07177,0.36408 14.99919,-1.0606 21.32487,0 1.16542,0.19642 2.41478,-0.98587 2.13592,-2.13607 -0.59511,-2.45464 -0.32574,-4.71814 0,-10.18886 0.0704,-1.18133 -0.95521,-2.18638 -2.13592,-2.13895 -7.23468,0.28743 -13.76099,1.81559 -21.32487,0 -0.14371,-0.0479 -0.28886,-0.0479 -0.4297,-0.0479 z m 48.51132,4.74545 9.33875,0 0,7.63507 -9.33875,0 0,-7.63507 z m 18.08433,0 9.33875,0 0,7.63507 -9.33875,0 0,-7.63507 z m 18.08435,0 9.3388,0 0,7.63507 -9.3388,0 0,-7.63507 z m -68.33421,10.33498 0,0.003 c -5.3,0 -10.35175,0.83163 -15.91613,0.34013 -1.17692,-0.10544 -1.96088,0.96814 -2.13305,2.13894 -0.53189,3.61538 -1.54603,7.22836 0,10.84373 0.46515,1.08792 0.95192,1.78972 2.13305,1.75619 8.07177,-0.22994 16.83471,-0.95091 21.86825,0.11017 1.15614,0.24432 2.1126,-0.95282 2.13608,-2.1356 0.0508,-2.45512 0.58286,-5.1009 -0.54354,-10.57211 -0.23904,-1.15881 -0.96556,-1.97655 -2.13592,-2.13894 -1.84975,-0.25869 -3.6422,-0.34492 -5.40874,-0.34013 z m 103.90087,0.34012 c -1.17946,-0.0718 -1.89429,0.97966 -2.1329,2.13896 -1.1264,5.47072 -0.0508,8.3886 0,10.84372 0.0239,1.18324 0.9543,2.21895 2.1329,2.13559 6.32569,-0.44551 13.25612,-0.22994 21.32783,0 1.18101,0.0479 1.66801,-1.04767 2.13312,-2.13559 1.54603,-3.61538 0.53188,-7.22835 0,-10.84372 -0.17247,-1.1708 -0.96002,-2.27979 -2.13312,-2.13896 -7.41916,0.89056 -13.92869,0.44073 -21.32783,0 z m -71.73534,6.4662 9.33875,0 0,8.63483 -9.33875,0 0,-8.63483 z m 18.08433,0 9.33875,0 0,8.63483 -9.33875,0 0,-8.63483 z m 18.08435,0 9.3388,0 0,8.63483 -9.3388,0 0,-8.63483 z m -68.33421,8.80441 c -5.3,0 -10.35175,0.83451 -15.91613,0.34013 -1.17692,-0.10543 -1.96088,0.96527 -2.13305,2.13607 -0.53189,3.61538 -1.54603,6.57684 0,10.19222 0.46515,1.08792 0.96586,1.95212 2.13305,2.13559 8.07177,1.2714 14.99919,0.15809 21.32487,0 1.18114,-0.0479 2.11246,-0.95235 2.13592,-2.13559 0.0508,-2.45512 1.1264,-4.72102 0,-10.19222 -0.23904,-1.15882 -0.96556,-1.9732 -2.13592,-2.13607 -1.84975,-0.25869 -3.6422,-0.34491 -5.40874,-0.34013 z m 103.90087,0.34013 c -1.17769,-0.0959 -1.89429,0.97725 -2.1329,2.13607 -1.1264,5.4712 -0.0508,8.39196 0,10.84661 0.0239,1.18324 0.95177,2.10636 2.1329,2.13607 6.32569,0.15808 13.25612,1.27139 21.32783,0 1.16712,-0.18204 1.66801,-1.04816 2.13312,-2.13607 1.54603,-3.61538 0.53188,-7.23123 0,-10.84661 -0.17247,-1.1708 -0.95926,-2.27116 -2.13312,-2.13607 -3.68852,0.42635 -6.95668,0.19161 -10.42278,0.16287 -3.5188,-0.0479 -7.23578,0.13413 -10.90505,-0.16287 z m -71.73534,8.2492 9.33875,0 0,11.45978 4.20771,13.21646 c -5.79131,-0.13414 -11.60427,-0.4072 -17.43849,-0.87954 -0.0143,-9.6e-4 -0.0192,-10e-4 -0.0335,-0.002 l 3.92418,-12.33405 0,-11.46025 z m 18.08433,0 9.33875,0 0,11.45978 4.22238,13.26292 c -5.89137,0.0814 -11.81342,0.0958 -17.76583,-0.0479 l 4.2047,-13.2222 0,-11.45978 z m 18.08435,0 9.3388,0 0,11.45978 4.09667,12.88016 c -5.85741,0.15808 -11.71651,0.29222 -17.65201,0.37845 l 4.21654,-13.25717 0,-11.45979 z m -84.67117,7.34285 0,0.002 c -0.93415,0.10058 -1.56161,1.12624 -1.71222,2.15044 -0.53189,3.61538 -1.54603,7.23122 0,10.8466 0.46515,1.08792 0.98157,1.87116 2.13305,2.13608 6.18361,1.42469 13.55668,0.12934 21.32487,0 1.18143,0 2.11246,-0.95284 2.13592,-2.13608 0.0508,-2.45464 1.1264,-5.3754 0,-10.8466 -0.23904,-1.15882 -0.96197,-2.26734 -2.13592,-2.13272 -6.79817,0.77846 -13.66614,1.3763 -21.32487,0 -0.14515,-0.0479 -0.28743,-0.0479 -0.42108,0 z m 141.98354,0.43592 c -0.13318,0 -0.27306,0 -0.41773,0 -7.65868,1.37632 -14.52966,0.77846 -21.32783,0 -1.17396,-0.13413 -1.89435,0.97679 -2.13296,2.1356 -1.12638,5.47121 -0.0508,8.39196 0,10.84661 0.0239,1.18324 0.96317,2.30278 2.13296,2.13607 7.10902,-1.01366 14.21881,-0.18204 21.32783,0 1.18114,0.0479 1.66795,-1.04816 2.13311,-2.13607 1.54602,-3.6149 0.53183,-7.23124 0,-10.84661 -0.15042,-1.0242 -0.78129,-2.05271 -1.71529,-2.15331 l 0,-0.002 z"
       id="path15171"
       inkscape:connector-curvature="0" />
    <path
       inkscape:connector-curvature="0"
       id="path14021"
       style="font-style:normal;font-weight:normal;font-size:medium;line-height:125%;font-family:sans-serif;letter-spacing:0px;word-spacing:0px;fill:#000000;fill-opacity:1;stroke:none;stroke-width:1px;stroke-linecap:butt;stroke-linejoin:miter;stroke-opacity:1"
       d="m 213.17758,1029.2421 -100.01086,0 q -1.04561,0 -1.90672,-0.614 -0.79961,-0.6141 -1.29167,-1.4737 -0.49205,-0.8596 -0.49205,-1.8421 0,-0.9212 0.49205,-1.9035 l 49.94394,-88.54661 q 0.49205,-0.85966 1.35313,-1.28948 0.8611,-0.43006 1.84523,-0.43006 0.98412,0 1.84524,0.43006 0.86109,0.43003 1.35317,1.28948 l 50.06687,88.54661 q 0.49209,0.9823 0.49209,1.9035 0,0.9825 -0.49209,1.8421 -0.49204,0.8596 -1.35313,1.4737 -0.79958,0.614 -1.8452,0.614 z m -93.61411,-7.8597 87.09434,0 -43.54718,-77.00241 -43.54716,77.00241 z m 49.26734,-22.35158 -11.44034,0 0,-34.07998 11.44034,0 0,34.07998 z m 1.72221,11.17568 q 0,1.5966 -0.61505,2.9475 -0.5536,1.351 -1.5992,2.3948 -0.98413,0.9826 -2.33729,1.5965 -1.35318,0.5528 -2.89085,0.5528 -1.53768,0 -2.89086,-0.5528 -1.35312,-0.6139 -2.33725,-1.5965 -0.98412,-1.0438 -1.5377,-2.3948 -0.55357,-1.3509 -0.55357,-2.9475 0,-1.5351 0.55357,-2.9473 0.55358,-1.4125 1.5377,-2.3949 0.98413,-1.0439 2.33725,-1.6579 1.35318,-0.6141 2.89086,-0.6141 1.53767,0 2.89085,0.6141 1.35316,0.614 2.33729,1.6579 1.0456,0.9824 1.5992,2.3949 0.61505,1.4122 0.61505,2.9473 z" />
    <path
       d="m 336.8333,1029.2421 -100.01086,0 q -1.04562,0 -1.90673,-0.614 -0.79961,-0.6141 -1.29167,-1.4737 -0.49205,-0.8596 -0.49205,-1.8421 0,-0.9212 0.49205,-1.9035 l 49.94395,-88.54661 q 0.49204,-0.85966 1.35312,-1.28948 0.86111,-0.43006 1.84523,-0.43006 0.98413,0 1.84524,0.43006 0.8611,0.43003 1.35318,1.28948 l 50.06687,88.54661 q 0.49209,0.9823 0.49209,1.9035 0,0.9825 -0.49209,1.8421 -0.49204,0.8596 -1.35314,1.4737 -0.79958,0.614 -1.84519,0.614 z m -93.61412,-7.8597 87.09435,0 -43.54719,-77.00241 -43.54716,77.00241 z m 49.26735,-22.35158 -11.44034,0 0,-34.07998 11.44034,0 0,34.07998 z m 1.72221,11.17568 q 0,1.5966 -0.61505,2.9475 -0.55361,1.351 -1.5992,2.3948 -0.98414,0.9826 -2.3373,1.5965 -1.35317,0.5528 -2.89085,0.5528 -1.53768,0 -2.89085,-0.5528 -1.35312,-0.6139 -2.33725,-1.5965 -0.98412,-1.0438 -1.5377,-2.3948 -0.55357,-1.3509 -0.55357,-2.9475 0,-1.5351 0.55357,-2.9473 0.55358,-1.4125 1.5377,-2.3949 0.98413,-1.0439 2.33725,-1.6579 1.35318,-0.6141 2.89085,-0.6141 1.53768,0 2.89085,0.6141 1.35316,0.614 2.3373,1.6579 1.04559,0.9824 1.5992,2.3949 0.61505,1.4122 0.61505,2.9473 z"
       style="font-style:normal;font-weight:normal;font-size:medium;line-height:125%;font-family:sans-serif;letter-spacing:0px;word-spacing:0px;fill:#000000;fill-opacity:1;stroke:none;stroke-width:1px;stroke-linecap:butt;stroke-linejoin:miter;stroke-opacity:1"
       id="path3383"
       inkscape:connector-curvature="0" />
  </g>
</svg>
