<?xml version="1.0" encoding="UTF-8" standalone="no"?>
<!-- Created with Inkscape (http://www.inkscape.org/) -->

<svg
   xmlns:dc="http://purl.org/dc/elements/1.1/"
   xmlns:cc="http://creativecommons.org/ns#"
   xmlns:rdf="http://www.w3.org/1999/02/22-rdf-syntax-ns#"
   xmlns:svg="http://www.w3.org/2000/svg"
   xmlns="http://www.w3.org/2000/svg"
   xmlns:sodipodi="http://sodipodi.sourceforge.net/DTD/sodipodi-0.dtd"
   xmlns:inkscape="http://www.inkscape.org/namespaces/inkscape"
   width="450"
   height="325"
   viewBox="0 0 450.00001 325"
   id="svg5199"
   version="1.1"
   inkscape:version="0.92.0 r15299"
   sodipodi:docname="figure_alerts_lockdown_double.svg">
  <defs
     id="defs5201" />
  <sodipodi:namedview
     id="base"
     pagecolor="#ffffff"
     bordercolor="#666666"
     borderopacity="1.0"
     inkscape:pageopacity="0.0"
     inkscape:pageshadow="2"
     inkscape:zoom="0.98994949"
     inkscape:cx="-225.23977"
     inkscape:cy="113.91674"
     inkscape:document-units="px"
     inkscape:current-layer="layer1"
     showgrid="false"
     units="px"
     borderlayer="true"
     inkscape:window-width="1920"
     inkscape:window-height="1017"
     inkscape:window-x="-8"
     inkscape:window-y="-8"
     inkscape:window-maximized="1" />
  <metadata
     id="metadata5204">
    <rdf:RDF>
      <cc:Work
         rdf:about="">
        <dc:format>image/svg+xml</dc:format>
        <dc:type
           rdf:resource="http://purl.org/dc/dcmitype/StillImage" />
        <dc:title />
      </cc:Work>
    </rdf:RDF>
  </metadata>
  <g
     inkscape:label="Layer 1"
     inkscape:groupmode="layer"
     id="layer1"
     transform="translate(0,-727.36216)">
    <path
       style="fill:#000000;fill-opacity:1;stroke:none;stroke-width:10;stroke-linecap:round;stroke-linejoin:round;stroke-miterlimit:4;stroke-dasharray:none;stroke-dashoffset:0;stroke-opacity:1"
       d="m 326.52927,789.8433 c -2.87747,0.0779 -7.30314,1.30632 -6.83842,3.09612 1.50008,1.59944 2.41225,3.87925 3.47968,5.92969 2.38075,4.57264 4.21062,9.72351 5.67742,15.82379 1.3528,0.95266 1.84096,0.81065 3.82641,0.36358 1.32552,-0.29793 2.46858,-0.47228 2.88729,-1.50429 0.59532,-1.68404 0.99267,-3.33645 1.46064,-5.03449 0.51918,-1.88354 1.12376,-3.81723 2.17745,-5.7581 2.17341,-4.00283 4.39389,-7.32369 5.58644,-10.45273 0.43972,-1.28989 -2.98127,-1.8276 -4.36157,-1.83405 -2.95521,-0.0165 -6.71594,0.0878 -12.22966,-0.49491 -0.41933,-0.11194 -1.00178,-0.15282 -1.66568,-0.13461 z m -10.24418,1.77688 c -0.3349,-0.0331 -0.66666,0.0275 -0.96579,0.1887 -3.99489,2.1684 -7.91308,0.52579 -10.88343,3.32492 -0.99111,0.93403 -1.25803,2.48509 -0.3128,3.46635 5.74699,5.96943 6.10158,7.90696 11.27728,17.54003 3.79172,2.6772 8.0108,0.62561 9.18056,0.12796 1.24508,-0.54951 2.15968,-1.6901 1.76685,-2.99511 -0.76177,-8.43121 -4.22182,-12.56755 -8.03645,-19.69392 -0.0166,-1.02202 -1.01831,-1.86909 -2.02253,-1.95523 v -0.003 z m 31.08218,0.94566 c -1.0042,0.086 -2.00459,0.93649 -2.0225,1.95864 -3.81466,7.12632 -7.27452,11.26272 -8.03647,19.69387 -0.39283,1.30501 0.51808,2.44525 1.76354,2.99516 6.3043,2.78395 4.15891,0.84513 6.94938,1.29562 1.34368,0.21682 2.29635,-0.22345 2.94126,-1.4235 5.17569,-9.63316 5.53011,-11.57065 11.27717,-17.54011 0.94457,-0.98113 0.67786,-2.53226 -0.31283,-3.46628 -2.97036,-2.79935 -7.59555,-1.15649 -11.59022,-3.32493 -0.29848,-0.16277 -0.63458,-0.21738 -0.96923,-0.18869 z m -47.64291,4.48262 c -0.33436,0.0331 -0.65545,0.14234 -0.92199,0.35312 -3.56327,2.82395 -8.40401,1.99758 -10.84988,5.26672 -0.81605,1.09069 -0.83725,2.69988 0.28579,3.46963 6.93202,4.75031 8.63161,6.01787 14.12091,15.33916 4.19455,1.98445 8.69945,-0.88286 9.76623,-1.57497 1.13217,-0.75607 1.83574,-2.03962 1.22489,-3.25766 -2.1972,-8.17449 -6.31652,-11.65446 -11.29734,-18.01796 -0.19255,-1.00374 -1.32465,-1.66622 -2.32883,-1.5783 z m 63.99173,1.68944 c -1.00542,-0.0734 -2.12696,0.60542 -2.30527,1.61198 -4.88726,6.43583 -8.95398,9.97704 -11.03161,18.18286 -0.59311,1.22677 0.12741,2.49794 1.2721,3.23742 1.07693,0.67642 5.62127,3.476 9.78637,1.43025 6.6253,-8.69681 7.28195,-10.55237 13.89552,-15.5411 1.08706,-0.81996 1.06741,-2.39432 0.23557,-3.47299 -2.4934,-3.23301 -7.3198,-2.33713 -10.9239,-5.10857 -0.26925,-0.20798 -0.59377,-0.31558 -0.92873,-0.33985 z m -79.32753,6.3806 c -0.51366,0.0166 -1.00955,0.20526 -1.34604,0.58898 -2.99621,3.42142 -7.90536,3.48708 -9.72248,7.14457 -0.60617,1.22037 -0.32881,2.7848 0.90528,3.35859 7.59832,3.53215 10.62449,4.40409 17.27754,12.4113 4.48315,1.19421 7.77125,-2.31686 8.69604,-3.19029 0.97749,-0.94831 1.43597,-2.33491 0.61578,-3.42258 -3.63301,-7.64341 -8.30818,-10.32318 -14.35312,-15.6824 -0.30841,-0.79371 -1.21666,-1.23757 -2.073,-1.20817 z m 94.46813,2.27164 c -0.85623,-0.0331 -1.76426,0.41433 -2.07301,1.20811 -6.04498,5.35925 -10.71995,8.03555 -14.35318,15.67908 -0.82013,1.08772 -0.36192,2.47768 0.61584,3.42589 0.9246,0.8735 4.83882,4.50903 9.32203,3.31488 8.18928,-7.23783 9.19452,-10.35292 16.65152,-13.95603 1.22558,-0.59228 1.51159,-2.13833 0.90531,-3.35859 -1.817,-3.6575 -6.72627,-2.30306 -9.72247,-5.72443 -0.33711,-0.38401 -0.83207,-0.57126 -1.34604,-0.58891 z m -107.55591,8.79358 c -0.85667,-0.0592 -1.77556,0.35145 -2.10328,1.1375 -1.75065,4.19984 -5.41625,5.50253 -6.94938,9.28832 -0.51147,1.26306 -0.11865,2.8107 1.15768,3.28116 2.33247,0.85882 13.22422,5.18976 15.37959,6.37395 2.25806,1.24059 1.45668,1.41135 5.27684,2.99508 1.23802,0.51366 2.33645,0.46125 3.02201,-0.16165 2.33111,-2.11659 4.02507,-4.13166 5.34077,-6.10133 0.62461,-1.21104 -0.46841,-2.24982 -1.59173,-3.01872 -5.87666,-6.08338 -10.7644,-10.01676 -18.1997,-13.16513 -0.32771,-0.39227 -0.81863,-0.5942 -1.3328,-0.6293 z m 123.75646,0.1346 c -0.51421,0.0386 -1.00535,0.23725 -1.33258,0.62931 -7.43562,3.1486 -13.83708,8.59574 -19.71408,14.67956 -2.35333,1.72812 2.78893,9.93965 7.27592,9.56095 6.47626,-4.57431 13.58089,-7.44027 22.16389,-10.60084 1.27731,-0.47061 1.66929,-2.01803 1.15774,-3.28118 -1.5332,-3.78571 -5.69691,-5.65385 -7.44753,-9.85366 -0.32773,-0.78615 -1.24662,-1.19266 -2.10335,-1.13414 z m -66.63004,3.10624 c -3.48729,0.20745 -6.85669,0.68933 -10.0724,1.43697 v 11.54642 h -10.75559 v -7.85466 c -3.68769,1.71288 -7.06796,3.79506 -10.07244,6.1922 v 1.66246 h -1.95515 c -3.34789,2.99085 -6.15953,6.38805 -8.32919,10.08926 h 10.28434 v 13.0171 h -19.43479 c -0.41656,3.50364 0.89568,7.27778 1.56161,10.95079 h 17.87318 v 11.11899 h -17.42226 c -0.72453,3.86706 -0.15503,7.41146 0.43091,10.9508 h 16.99152 v 10.3416 h -15.75985 c -0.71338,3.79257 -0.46013,7.39258 0,10.95066 h 15.75985 v 8.79343 h -15.93823 c -0.80066,3.65023 0.99356,7.301 1.51113,10.95122 h 14.4271 v 9.94433 h -14.55841 c 0,0 -2.31658,0.82428 -2.39278,1.24193 l 0.53517,8.84749 h 16.41596 v 13.1984 l 4.49961,14.13796 c -21.11475,-1.53817 -42.41023,1.97244 -64.49988,-1.067 -0.1346,0 -0.26924,-0.0555 -0.40055,-0.0555 -1.97853,0 -3.54032,1.92998 -3.54032,3.98133 v 3.4533 c 0,2.18807 1.76453,3.75992 3.94094,3.95035 12.6151,1.10502 24.99796,2.02359 37.22383,2.22445 36.20899,0.70518 80.32571,0.54625 121.70691,-0.15998 12.94079,-0.27032 20.69311,-1.78861 33.84185,-2.06282 2.18396,-0.0555 3.94408,-1.76288 3.94408,-3.95095 v -3.4533 c 0,-2.18815 -1.76443,-4.09496 -3.94408,-3.95095 -8.24064,0.54624 -16.50213,1.57912 -24.79911,1.36333 -13.10652,-0.34201 -26.54786,0 -40.13496,0.38072 l 4.71825,-14.81716 v -13.19896 h 14.90159 l -0.4342,-7.14486 c 0,-0.95448 -0.13629,-1.93656 -0.38677,-2.94456 h -14.08056 v -9.94432 h 15.85735 c 0.81588,-4.69852 1.54096,-9.26735 0.26592,-10.95066 h -16.12322 v -8.79398 h 15.23483 c 0.68785,-3.59284 2.01319,-7.13272 0,-10.95067 h -15.23483 v -10.34156 h 15.4132 c 0.67559,-3.65729 1.31968,-7.19938 0.97589,-10.95078 h -16.38909 v -11.11901 h 16.47991 c 0.4331,-3.61099 1.19046,-7.18116 0.35365,-10.95078 H 370.08384 V 842.4705 h 7.68633 c -4.49697,-5.10492 -10.82538,-10.11271 -17.75877,-14.15793 v 4.06867 h -10.75557 v -9.33202 c -3.40906,-1.35255 -6.80726,-2.38274 -10.07242,-3.02545 v 12.35747 h -10.75564 v -12.9834 z m 79.02117,11.294 c -0.33711,0.0104 -0.66389,0.10757 -0.94214,0.30291 -6.94442,2.48267 -14.28133,6.41796 -22.8338,9.07291 -1.28405,0.45132 -1.66674,1.86203 -1.3764,3.19368 1.47064,6.74221 3.42269,5.978 3.81294,8.68594 0.19475,1.34897 2.0768,2.16327 3.19024,1.37977 6.4707,-4.55341 12.82257,-8.26019 22.83034,-9.06958 1.35619,-0.10988 1.80436,-1.8987 1.37981,-3.19366 -1.27294,-3.88133 -3.21055,-4.17536 -3.81618,-8.68594 -0.13627,-1.01313 -1.23389,-1.7247 -2.24481,-1.68603 z m -148.62952,0.13464 c -1.01086,-0.0386 -2.11188,0.67287 -2.24801,1.68601 -0.60568,4.51057 -2.4154,4.30313 -3.68839,8.18448 -0.42484,1.295 0.0706,2.81137 1.37639,3.19371 8.77768,2.56956 16.37528,4.32034 23.14674,8.44357 1.16288,0.70805 2.99258,-0.0385 3.18693,-1.38311 0.39064,-2.70793 1.9081,-0.81303 3.37874,-7.55519 0.29019,-1.33158 -0.0947,-2.74219 -1.37967,-3.19367 -7.24869,-4.35301 -14.83476,-7.95927 -22.83039,-9.07293 -0.2775,-0.19585 -0.60528,-0.2902 -0.94234,-0.30287 z m 48.78036,11.64401 h 10.75559 v 13.0171 h -10.75559 z m 20.82799,0 h 10.75559 v 13.0171 H 328.4272 Z m 20.82803,0 h 10.75563 v 13.0171 h -10.75563 z m 64.73215,2.44658 c -0.33766,0.006 -0.66601,0.0938 -0.94908,0.28247 -8.02128,0.91112 -15.69972,4.32235 -23.05596,8.49075 -1.29483,0.41821 -1.58896,1.80006 -1.45714,3.15665 0.37187,3.82043 0.0552,5.70618 -0.40386,8.40324 -0.22843,1.34356 1.03537,1.29506 2.35918,0.97931 7.70894,-1.83897 15.6208,-0.5429 24.76209,-0.28579 1.36018,0.0386 2.29407,-1.25177 2.28839,-2.61486 -0.0221,-4.08526 -0.84755,-12.14406 -1.33931,-16.66843 -0.11033,-1.01628 -1.19273,-1.75636 -2.20431,-1.74328 z m -162.77076,0.78416 c -1.00916,0.0552 -2.03887,0.86091 -2.08317,1.88122 -0.1975,4.54689 -0.50151,11.64143 -0.25598,15.71942 0.0811,1.3606 1.10174,2.58693 2.45672,2.46002 9.10491,-0.85275 16.74814,-1.33235 24.56011,0 1.34157,0.22843 2.77242,-1.13423 2.45671,-2.46002 -0.6337,-2.66126 -1.07463,-3.52013 -0.95232,-7.35662 0.0441,-1.36239 -0.33931,-2.72222 -1.65911,-3.05568 -7.61139,-3.67991 -15.49397,-6.58342 -23.55734,-6.96963 -0.29406,-0.16992 -0.62666,-0.23504 -0.96248,-0.21849 v 0 z m 12.83531,20.69676 c -4.1267,-0.0552 -8.14878,0.21959 -11.9638,0.96579 -1.32327,-0.31779 -2.16189,1.12944 -2.45668,2.4601 -0.92288,4.16365 -0.92978,7.76643 0,11.9301 0.29738,1.33027 1.10648,2.62743 2.45668,2.45667 9.1208,-1.15394 16.5733,-0.88173 24.56358,0 1.3526,0.14897 2.77242,-1.13077 2.45672,-2.45667 -0.63373,-2.66138 1.11448,-5.11982 0,-11.9301 -0.22069,-1.34516 -1.0969,-2.51449 -2.45672,-2.4601 -4.24057,-0.544 -8.4731,-0.91525 -12.59978,-0.96579 z m 138.90053,0 c -4.1267,0.0552 -8.3592,0.42206 -12.59978,0.96579 -1.35967,-0.0552 -2.23653,1.11494 -2.45673,2.4601 -1.11432,6.81028 0.63371,9.83073 0,12.49207 -0.3156,1.32581 1.10032,2.57067 2.45673,2.46005 8.07797,-0.65909 15.52172,-1.64557 24.56342,0 1.33876,0.24331 2.15961,-1.12983 2.45666,-2.46005 0.92978,-4.16364 0.9229,-8.32842 0,-12.49207 -0.29516,-1.33066 -1.13341,-2.77766 -2.45666,-2.4601 -3.8152,-0.74599 -7.83679,-1.01644 -11.96363,-0.96579 z m -95.35325,0.0386 h 10.75559 v 11.11898 h -10.75559 z m 20.82799,0 h 10.75559 v 11.11898 H 328.4272 Z m 20.82803,0 h 10.75563 v 11.11898 h -10.75563 z m 53.56249,18.42513 c -4.12673,0.0552 -8.35921,0.42592 -12.59978,0.96921 -1.35968,-0.0552 -1.97396,1.18559 -2.45656,2.46003 -2.38555,6.30112 0.22015,8.82691 0,11.65396 -0.1048,1.3589 1.09997,2.35311 2.45656,2.46014 8.20616,0.64829 15.745,1.67063 24.56359,0 1.33706,-0.2538 2.15962,-1.12992 2.45668,-2.46014 0.92977,-4.16333 0.92286,-7.49025 0,-11.65396 -0.29519,-1.33059 -1.13342,-2.77772 -2.45668,-2.46003 -3.81519,-0.7461 -7.83712,-1.01988 -11.96381,-0.96921 z m -138.38224,0.31613 c -4.12634,-0.0552 -8.22977,0.11691 -12.21256,0.65285 -1.32333,-0.31779 -2.16196,1.12944 -2.45674,2.46004 -0.92286,4.16393 -0.92977,8.32838 0,12.49225 0.29683,1.33021 1.10047,2.34649 2.45674,2.46014 8.81885,0.73932 16.3541,0.50208 24.56009,0 1.3583,-0.0827 2.56564,-1.10123 2.45997,-2.46014 -0.22012,-2.82705 2.38557,-6.19091 0,-12.49225 -0.48164,-1.27449 -1.10012,-2.51466 -2.45997,-2.46004 -4.07434,-0.33599 -8.22115,-0.60281 -12.34753,-0.65285 z m 43.16373,3.32828 h 10.75559 v 10.34196 h -10.75559 z m 20.82799,0 h 10.75559 v 10.34196 H 328.4272 Z m 20.82803,0 h 10.75563 v 10.34196 h -10.75563 z m 66.01765,15.0835 c -0.16219,0 -0.32605,5.4e-4 -0.49158,0.0552 -8.71136,2.09159 -16.23124,0.33655 -24.56357,0 -1.35963,-0.0552 -2.53767,1.09958 -2.45652,2.46014 0.37463,6.30128 0.68541,9.66184 0,12.48888 -0.32055,1.32471 1.09635,2.42319 2.45652,2.46017 7.28555,0.19861 15.26727,1.11611 24.56357,0 1.35107,-0.16001 2.21739,-1.11837 2.45674,-2.46017 0.74229,-4.16387 -0.48718,-8.32501 0,-12.48888 0.13792,-1.18455 -0.83377,-2.42207 -1.96531,-2.50042 v 0 z M 251.728,904.36009 v 0 c -1.13153,0.0773 -2.10036,1.31918 -1.96182,2.50374 0.48717,4.16334 -0.74246,7.57133 0,11.73467 0.23946,1.34182 1.09722,2.39946 2.45666,2.46015 9.29639,0.41932 17.2748,-1.22151 24.56017,0 1.34224,0.22621 2.78114,-1.13544 2.45997,-2.46015 -0.68539,-2.82703 -0.37515,-5.43395 0,-11.73467 0.0811,-1.36054 -1.10012,-2.51808 -2.45997,-2.46345 -8.33228,0.33104 -15.84874,2.09104 -24.56017,0 -0.16551,-0.0552 -0.33268,-0.0552 -0.49489,-0.0552 z m 55.87121,5.46541 h 10.75559 v 8.79342 h -10.75559 z m 20.82799,0 h 10.75559 v 8.79342 H 328.4272 Z m 20.82803,0 h 10.75563 v 8.79342 h -10.75563 z m -78.70154,11.90295 v 0.003 c -6.10408,0 -11.92227,0.9578 -18.33085,0.39173 -1.35547,-0.12143 -2.25837,1.11503 -2.45666,2.46345 -0.61258,4.16389 -1.78058,8.32501 0,12.48889 0.53571,1.25297 1.09633,2.06125 2.45666,2.02263 9.29639,-0.26482 19.38879,-1.09518 25.18599,0.12688 1.33155,0.28139 2.43312,-1.09737 2.46016,-2.4596 0.0585,-2.82759 0.6713,-5.87478 -0.62601,-12.17605 -0.2753,-1.33464 -1.11204,-2.27643 -2.45997,-2.46346 -2.13037,-0.29794 -4.19477,-0.39725 -6.22932,-0.39173 z m 119.66419,0.39173 c -1.3584,-0.0827 -2.18169,1.12829 -2.4565,2.46347 -1.29728,6.3007 -0.0585,9.66127 0,12.48887 0.0275,1.36276 1.09909,2.5556 2.4565,2.45959 7.2854,-0.5131 15.26727,-0.26482 24.56359,0 1.36017,0.0552 1.92106,-1.20662 2.45674,-2.45959 1.78059,-4.16389 0.61257,-8.325 0,-12.48887 -0.19863,-1.34844 -1.10568,-2.62568 -2.45674,-2.46347 -8.54477,1.02567 -16.04189,0.50759 -24.56359,0 z m -82.61867,7.44721 h 10.75559 v 9.94487 h -10.75559 z m 20.82799,0 h 10.75559 v 9.94487 H 328.4272 Z m 20.82803,0 h 10.75563 v 9.94487 h -10.75563 z m -78.70154,10.14017 c -6.10408,0 -11.92227,0.96112 -18.33085,0.39174 -1.35547,-0.12143 -2.25837,1.11172 -2.45666,2.46014 -0.61258,4.16388 -1.78058,7.57464 0,11.73854 0.53571,1.25296 1.11239,2.24828 2.45666,2.45958 9.29639,1.46429 17.2748,0.18208 24.56017,0 1.36034,-0.0552 2.43295,-1.09683 2.45997,-2.45958 0.0586,-2.82761 1.29731,-5.43728 0,-11.73854 -0.2753,-1.33463 -1.11204,-2.27256 -2.45997,-2.46014 -2.13037,-0.29794 -4.19477,-0.39724 -6.22932,-0.39174 z m 119.66419,0.39174 c -1.35636,-0.11045 -2.18169,1.12551 -2.4565,2.46014 -1.29728,6.30126 -0.0585,9.66514 0,12.4922 0.0275,1.36277 1.09618,2.42593 2.4565,2.46015 7.2854,0.18206 15.26727,1.46428 24.56359,0 1.34418,-0.20966 1.92106,-1.20719 2.45674,-2.46015 1.78059,-4.16388 0.61257,-8.32832 0,-12.4922 -0.19863,-1.34842 -1.10479,-2.61572 -2.45674,-2.46014 -4.24813,0.49103 -8.01211,0.22067 -12.00408,0.18758 -4.05266,-0.0552 -8.33355,0.15447 -12.55951,-0.18758 z m -82.61867,9.50073 h 10.75559 v 13.1984 l 4.84607,15.22165 c -6.66993,-0.15458 -13.3648,-0.46907 -20.08417,-1.01307 -0.0165,0 -0.0221,0 -0.0386,0 l 4.51955,-14.20533 v -13.19893 z m 20.82799,0 h 10.75559 v 13.1984 l 4.86297,15.27505 c -6.78517,0.0941 -13.60568,0.11026 -20.46117,-0.0555 l 4.84261,-15.22815 v -13.1984 z m 20.82803,0 h 10.75563 v 13.1984 l 4.71819,14.83426 c -6.74607,0.18211 -13.49407,0.33654 -20.33008,0.43584 l 4.85626,-15.26845 v -13.19841 z m -97.51707,8.45687 v 0.002 c -1.07587,0.11584 -1.79853,1.2971 -1.97198,2.47669 -0.61258,4.16389 -1.78058,8.32831 0,12.49224 0.53571,1.25294 1.13049,2.155 2.45666,2.46019 7.12176,1.64085 15.61344,0.14896 24.56017,0 1.36067,0 2.43295,-1.09745 2.45997,-2.46019 0.0586,-2.82709 1.29731,-6.19097 0,-12.49224 -0.2753,-1.33463 -1.10791,-2.61133 -2.45997,-2.45629 -7.82954,0.89657 -15.73949,1.5851 -24.56017,0 -0.16717,-0.0552 -0.33103,-0.0552 -0.48496,0 z m 163.52458,0.50205 c -0.15338,0 -0.31448,0 -0.4811,0 -8.82062,1.58513 -16.73404,0.89656 -24.56358,0 -1.35207,-0.15449 -2.18176,1.12499 -2.45656,2.4596 -1.29728,6.30128 -0.0585,9.66514 0,12.49218 0.0274,1.36281 1.10929,2.65212 2.45656,2.46011 8.18755,-1.16743 16.37601,-0.20963 24.56358,0 1.36033,0.0555 1.921,-1.20718 2.45673,-2.46011 1.78057,-4.16331 0.61252,-8.32831 0,-12.49218 -0.17325,-1.17958 -0.89983,-2.36413 -1.97552,-2.48 v -0.002 z"
       id="path15171"
       inkscape:connector-curvature="0" />
    <path
       inkscape:connector-curvature="0"
       id="path4483"
       d="m 109.84194,789.8433 c -2.87747,0.0779 -7.30314,1.30632 -6.83842,3.09612 1.50008,1.59944 2.41225,3.87925 3.47967,5.92969 2.38075,4.57264 4.21062,9.72351 5.67742,15.82379 1.3528,0.95266 1.84097,0.81065 3.82641,0.36358 1.32552,-0.29793 2.46859,-0.47228 2.8873,-1.50429 0.59532,-1.68404 0.99267,-3.33645 1.46064,-5.03449 0.51917,-1.88354 1.12376,-3.81723 2.17745,-5.7581 2.17341,-4.00283 4.39388,-7.32369 5.58643,-10.45273 0.43973,-1.28989 -2.98127,-1.8276 -4.36157,-1.83405 -2.9552,-0.0165 -6.71594,0.0878 -12.22966,-0.49491 -0.41933,-0.11194 -1.00178,-0.15282 -1.66567,-0.13461 z m -10.244181,1.77688 c -0.334905,-0.0331 -0.666667,0.0275 -0.965796,0.1887 -3.994887,2.1684 -7.913084,0.52579 -10.883426,3.32492 -0.991116,0.93403 -1.258038,2.48509 -0.312808,3.46635 5.746995,5.96943 6.101588,7.90696 11.277283,17.54003 3.791728,2.6772 8.010798,0.62561 9.180558,0.12796 1.24508,-0.54951 2.15968,-1.6901 1.76685,-2.99511 -0.76176,-8.43121 -4.22181,-12.56755 -8.03645,-19.69392 -0.0166,-1.02202 -1.01831,-1.86909 -2.022521,-1.95523 v -0.003 z m 31.082171,0.94566 c -1.00419,0.086 -2.00458,0.93649 -2.0225,1.95864 -3.81465,7.12632 -7.27452,11.26272 -8.03646,19.69387 -0.39283,1.30501 0.51807,2.44525 1.76353,2.99516 6.3043,2.78395 4.15892,0.84513 6.94939,1.29562 1.34367,0.21682 2.29634,-0.22345 2.94126,-1.4235 5.17569,-9.63316 5.53011,-11.57065 11.27716,-17.54011 0.94457,-0.98113 0.67787,-2.53226 -0.31282,-3.46628 -2.97037,-2.79935 -7.59556,-1.15649 -11.59022,-3.32493 -0.29849,-0.16277 -0.63459,-0.21738 -0.96923,-0.18869 z m -47.642907,4.48262 c -0.334357,0.0331 -0.655446,0.14234 -0.921985,0.35312 -3.563273,2.82395 -8.404018,1.99758 -10.849884,5.26672 -0.816051,1.09069 -0.837247,2.69988 0.285792,3.46963 6.932018,4.75031 8.631608,6.01787 14.120907,15.33916 4.194553,1.98445 8.699449,-0.88286 9.766229,-1.57497 1.132175,-0.75607 1.835744,-2.03962 1.224894,-3.25766 -2.1972,-8.17449 -6.316518,-11.65446 -11.297339,-18.01796 -0.192549,-1.00374 -1.324649,-1.66622 -2.328839,-1.5783 z m 63.991727,1.68944 c -1.00542,-0.0734 -2.12696,0.60542 -2.30527,1.61198 -4.88725,6.43583 -8.95397,9.97704 -11.03161,18.18286 -0.59311,1.22677 0.12742,2.49794 1.2721,3.23742 1.07693,0.67642 5.62128,3.476 9.78637,1.43025 6.62531,-8.69681 7.28195,-10.55237 13.89552,-15.5411 1.08706,-0.81996 1.06741,-2.39432 0.23557,-3.47299 -2.49339,-3.23301 -7.3198,-2.33713 -10.92389,-5.10857 -0.26926,-0.20798 -0.59378,-0.31558 -0.92873,-0.33985 z m -79.327522,6.3806 c -0.51366,0.0166 -1.009552,0.20526 -1.346047,0.58898 -2.99621,3.42142 -7.905358,3.48708 -9.722479,7.14457 -0.606169,1.22037 -0.328807,2.7848 0.905283,3.35859 7.598317,3.53215 10.624491,4.40409 17.277534,12.4113 4.483159,1.19421 7.771252,-2.31686 8.696043,-3.19029 0.977496,-0.94831 1.435969,-2.33491 0.615777,-3.42258 -3.633003,-7.64341 -8.308178,-10.32318 -14.353116,-15.6824 -0.308414,-0.79371 -1.216659,-1.23757 -2.072995,-1.20817 z m 94.468122,2.27164 c -0.85623,-0.0331 -1.76425,0.41433 -2.07301,1.20811 -6.04498,5.35925 -10.71994,8.03555 -14.35317,15.67908 -0.82013,1.08772 -0.36192,2.47768 0.61583,3.42589 0.92461,0.8735 4.83882,4.50903 9.32204,3.31488 8.18928,-7.23783 9.19452,-10.35292 16.65151,-13.95603 1.22559,-0.59228 1.5116,-2.13833 0.90531,-3.35859 -1.817,-3.6575 -6.72626,-2.30306 -9.72247,-5.72443 -0.3371,-0.38401 -0.83207,-0.57126 -1.34604,-0.58891 z m -107.555902,8.79358 c -0.856673,-0.0592 -1.775562,0.35145 -2.103289,1.1375 -1.750645,4.19984 -5.416245,5.50253 -6.949373,9.28832 -0.51147,1.26306 -0.118655,2.8107 1.157676,3.28116 2.332476,0.85882 13.22422,5.18976 15.37959,6.37395 2.258065,1.24059 1.456677,1.41135 5.276837,2.99508 1.238027,0.51366 2.336451,0.46125 3.022019,-0.16165 2.331103,-2.11659 4.025061,-4.13166 5.340762,-6.10133 0.624612,-1.21104 -0.468411,-2.24982 -1.591728,-3.01872 -5.876661,-6.08338 -10.764395,-10.01676 -18.1997,-13.16513 -0.327712,-0.39227 -0.818631,-0.5942 -1.332794,-0.6293 z m 123.756462,0.1346 c -0.51421,0.0386 -1.00536,0.23725 -1.33258,0.62931 -7.43563,3.1486 -13.83709,8.59574 -19.71408,14.67956 -2.35333,1.72812 2.78893,9.93965 7.27591,9.56095 6.47627,-4.57431 13.58089,-7.44027 22.1639,-10.60084 1.2773,-0.47061 1.66929,-2.01803 1.15774,-3.28118 -1.5332,-3.78571 -5.69691,-5.65385 -7.44753,-9.85366 -0.32773,-0.78615 -1.24662,-1.19266 -2.10336,-1.13414 z m -66.63004,3.10624 c -3.4873,0.20745 -6.85669,0.68933 -10.07241,1.43697 v 11.54642 H 90.91187 v -7.85466 c -3.687688,1.71288 -7.067953,3.79506 -10.072437,6.1922 v 1.66246 h -1.955149 c -3.347886,2.99085 -6.159528,6.38805 -8.329187,10.08926 h 10.284336 v 13.0171 H 61.404646 c -0.416561,3.50364 0.895675,7.27778 1.561607,10.95079 h 17.87318 v 11.11899 h -17.42226 c -0.724532,3.86706 -0.155032,7.41146 0.430909,10.9508 h 16.991516 v 10.3416 H 65.079757 c -0.713379,3.79257 -0.460138,7.39258 0,10.95066 h 15.759841 v 8.79343 H 64.901377 c -0.800661,3.65023 0.993554,7.301 1.511129,10.95122 h 14.427092 v 9.94433 h -14.5584 c 0,0 -2.316583,0.82428 -2.392786,1.24193 l 0.535171,8.84749 h 16.415955 v 13.1984 l 4.499615,14.13796 c -21.114749,-1.53817 -42.410234,1.97244 -64.499876,-1.067 -0.134608,0 -0.269232,-0.0555 -0.400555,-0.0555 -1.978528,0 -3.540315,1.92998 -3.540315,3.98133 v 3.4533 c 0,2.18807 1.764528,3.75992 3.940938,3.95035 12.615102,1.10502 24.997963,2.02359 37.223828,2.22445 36.20899,0.70518 80.325717,0.54625 121.706907,-0.15998 12.94079,-0.27032 20.69311,-1.78861 33.84186,-2.06282 2.18395,-0.0555 3.94408,-1.76288 3.94408,-3.95095 v -3.4533 c 0,-2.18815 -1.76443,-4.09496 -3.94408,-3.95095 -8.24065,0.54624 -16.50214,1.57912 -24.79911,1.36333 -13.10652,-0.34201 -26.54786,0 -40.13496,0.38072 l 4.71825,-14.81716 v -13.19896 h 14.90158 l -0.4342,-7.14486 c 0,-0.95448 -0.13629,-1.93656 -0.38676,-2.94456 h -14.08056 v -9.94432 h 15.85734 c 0.81588,-4.69852 1.54097,-9.26735 0.26593,-10.95066 h -16.12322 v -8.79398 h 15.23483 c 0.68784,-3.59284 2.01318,-7.13272 0,-10.95067 h -15.23483 v -10.34156 h 15.4132 c 0.67559,-3.65729 1.31967,-7.19938 0.97589,-10.95078 h -16.38909 v -11.11901 h 16.4799 c 0.4331,-3.61099 1.19046,-7.18116 0.35366,-10.95078 H 153.39651 V 842.4705 h 7.68632 c -4.49696,-5.10492 -10.82537,-10.11271 -17.75877,-14.15793 v 4.06867 H 132.5685 v -9.33202 c -3.40906,-1.35255 -6.80727,-2.38274 -10.07243,-3.02545 v 12.35747 h -10.75564 v -12.9834 z m 79.02116,11.294 c -0.33711,0.0104 -0.66389,0.10757 -0.94214,0.30291 -6.94441,2.48267 -14.28133,6.41796 -22.8338,9.07291 -1.28405,0.45132 -1.66673,1.86203 -1.3764,3.19368 1.47064,6.74221 3.4227,5.978 3.81295,8.68594 0.19474,1.34897 2.07679,2.16327 3.19024,1.37977 6.47069,-4.55341 12.82257,-8.26019 22.83034,-9.06958 1.35618,-0.10988 1.80435,-1.8987 1.37981,-3.19366 -1.27295,-3.88133 -3.21055,-4.17536 -3.81618,-8.68594 -0.13628,-1.01313 -1.23389,-1.7247 -2.24482,-1.68603 z M 42.131514,830.8532 c -1.010865,-0.0386 -2.111884,0.67287 -2.248007,1.68601 -0.605682,4.51057 -2.4154,4.30313 -3.688394,8.18448 -0.424841,1.295 0.07058,2.81137 1.376386,3.19371 8.777685,2.56956 16.375289,4.32034 23.146747,8.44357 1.162874,0.70805 2.992573,-0.0385 3.186929,-1.38311 0.39064,-2.70793 1.908099,-0.81303 3.378735,-7.55519 0.290195,-1.33158 -0.09475,-2.74219 -1.379664,-3.19367 -7.248689,-4.35301 -14.834758,-7.95927 -22.83039,-9.07293 -0.277505,-0.19585 -0.605285,-0.2902 -0.942342,-0.30287 z m 48.780356,11.64401 h 10.75559 v 13.0171 H 90.91187 Z m 20.828,0 h 10.75559 v 13.0171 h -10.75559 z m 20.82803,0 h 10.75563 v 13.0171 H 132.5679 Z m 64.73214,2.44658 c -0.33766,0.006 -0.66601,0.0938 -0.94908,0.28247 -8.02127,0.91112 -15.69971,4.32235 -23.05595,8.49075 -1.29484,0.41821 -1.58896,1.80006 -1.45714,3.15665 0.37186,3.82043 0.0552,5.70618 -0.40387,8.40324 -0.22843,1.34356 1.03538,1.29506 2.35919,0.97931 7.70893,-1.83897 15.6208,-0.5429 24.76208,-0.28579 1.36018,0.0386 2.29408,-1.25177 2.28839,-2.61486 -0.0221,-4.08526 -0.84755,-12.14406 -1.33931,-16.66843 -0.11033,-1.01628 -1.19272,-1.75636 -2.20431,-1.74328 z m -162.770758,0.78416 c -1.009163,0.0552 -2.038868,0.86091 -2.083165,1.88122 -0.197506,4.54689 -0.501517,11.64143 -0.255986,15.71942 0.08107,1.3606 1.101746,2.58693 2.456726,2.46002 9.104909,-0.85275 16.748138,-1.33235 24.560109,0 1.341563,0.22843 2.772416,-1.13423 2.456712,-2.46002 -0.633703,-2.66126 -1.074633,-3.52013 -0.952325,-7.35662 0.0441,-1.36239 -0.339307,-2.72222 -1.659111,-3.05568 -7.61139,-3.67991 -15.49397,-6.58342 -23.557337,-6.96963 -0.294058,-0.16992 -0.626661,-0.23504 -0.962481,-0.21849 v 0 z m 12.835312,20.69676 c -4.126698,-0.0552 -8.148782,0.21959 -11.963804,0.96579 -1.323268,-0.31779 -2.161888,1.12944 -2.456681,2.4601 -0.922871,4.16365 -0.929779,7.76643 0,11.9301 0.297381,1.33027 1.106487,2.62743 2.456681,2.45667 9.120803,-1.15394 16.573306,-0.88173 24.563583,0 1.352602,0.14897 2.772423,-1.13077 2.456719,-2.45667 -0.633726,-2.66138 1.114482,-5.11982 0,-11.9301 -0.22069,-1.34516 -1.096894,-2.51449 -2.456719,-2.4601 -4.240568,-0.544 -8.473104,-0.91525 -12.599779,-0.96579 z m 138.900526,0 c -4.12669,0.0552 -8.3592,0.42206 -12.59977,0.96579 -1.35967,-0.0552 -2.23654,1.11494 -2.45673,2.4601 -1.11433,6.81028 0.6337,9.83073 0,12.49207 -0.31561,1.32581 1.10031,2.57067 2.45673,2.46005 8.07797,-0.65909 15.52172,-1.64557 24.56342,0 1.33876,0.24331 2.15961,-1.12983 2.45666,-2.46005 0.92978,-4.16364 0.92289,-8.32842 0,-12.49207 -0.29516,-1.33066 -1.13341,-2.77766 -2.45666,-2.4601 -3.81521,-0.74599 -7.8368,-1.01644 -11.96364,-0.96579 z m -95.35325,0.0386 h 10.75559 v 11.11898 H 90.91187 Z m 20.828,0 h 10.75559 v 11.11898 h -10.75559 z m 20.82803,0 h 10.75563 v 11.11898 H 132.5679 Z m 53.56249,18.42513 c -4.12674,0.0552 -8.35921,0.42592 -12.59979,0.96921 -1.35967,-0.0552 -1.97396,1.18559 -2.45655,2.46003 -2.38556,6.30112 0.22015,8.82691 0,11.65396 -0.1048,1.3589 1.09997,2.35311 2.45655,2.46014 8.20616,0.64829 15.74501,1.67063 24.5636,0 1.33705,-0.2538 2.15962,-1.12992 2.45667,-2.46014 0.92977,-4.16333 0.92287,-7.49025 0,-11.65396 -0.29518,-1.33059 -1.13341,-2.77772 -2.45667,-2.46003 -3.81519,-0.7461 -7.83712,-1.01988 -11.96381,-0.96921 z M 47.748146,885.2046 c -4.126346,-0.0552 -8.22977,0.11691 -12.212567,0.65285 -1.323329,-0.31779 -2.161956,1.12944 -2.456734,2.46004 -0.922864,4.16393 -0.929771,8.32838 0,12.49225 0.296833,1.33021 1.100471,2.34649 2.456734,2.46014 8.818854,0.73932 16.3541,0.50208 24.560094,0 1.358303,-0.0827 2.565639,-1.10123 2.459967,-2.46014 -0.220112,-2.82705 2.385571,-6.19091 0,-12.49225 -0.481641,-1.27449 -1.100119,-2.51466 -2.459967,-2.46004 -4.074338,-0.33599 -8.221152,-0.60281 -12.347527,-0.65285 z m 43.163724,3.32828 h 10.75559 v 10.34196 H 90.91187 Z m 20.828,0 h 10.75559 v 10.34196 h -10.75559 z m 20.82803,0 h 10.75563 v 10.34196 H 132.5679 Z m 66.01765,15.0835 c -0.16219,0 -0.32605,5.4e-4 -0.49158,0.0552 -8.71136,2.09159 -16.23125,0.33655 -24.56357,0 -1.35964,-0.0552 -2.53768,1.09958 -2.45652,2.46014 0.37462,6.30128 0.68541,9.66184 0,12.48888 -0.32055,1.32471 1.09635,2.42319 2.45652,2.46017 7.28555,0.19861 15.26726,1.11611 24.56357,0 1.35107,-0.16001 2.21739,-1.11837 2.45673,-2.46017 0.74229,-4.16387 -0.48718,-8.32501 0,-12.48888 0.13792,-1.18455 -0.83377,-2.42207 -1.9653,-2.50042 v 0 z m -163.544888,0.74371 v 0 c -1.13153,0.0773 -2.100363,1.31918 -1.961817,2.50374 0.487169,4.16334 -0.742466,7.57133 0,11.73467 0.239456,1.34182 1.097216,2.39946 2.456659,2.46015 9.296385,0.41932 17.274796,-1.22151 24.560169,0 1.342237,0.22621 2.781139,-1.13544 2.459967,-2.46015 -0.685388,-2.82703 -0.375144,-5.43395 0,-11.73467 0.08107,-1.36054 -1.100119,-2.51808 -2.459967,-2.46345 -8.332277,0.33104 -15.848735,2.09104 -24.560169,0 -0.16551,-0.0552 -0.332685,-0.0552 -0.494887,-0.0552 z m 55.871208,5.46541 h 10.75559 v 8.79342 H 90.91187 Z m 20.828,0 h 10.75559 v 8.79342 h -10.75559 z m 20.82803,0 h 10.75563 v 8.79342 H 132.5679 Z m -78.701545,11.90295 v 0.003 c -6.104086,0 -11.922267,0.9578 -18.330851,0.39173 -1.355468,-0.12143 -2.258373,1.11503 -2.456659,2.46345 -0.612582,4.16389 -1.780587,8.32501 0,12.48889 0.535711,1.25297 1.096331,2.06125 2.456659,2.02263 9.296385,-0.26482 19.388788,-1.09518 25.18599,0.12688 1.331549,0.28139 2.433115,-1.09737 2.460161,-2.4596 0.0585,-2.82759 0.671295,-5.87478 -0.626015,-12.17605 -0.275292,-1.33464 -1.112037,-2.27643 -2.459967,-2.46346 -2.130372,-0.29794 -4.194771,-0.39725 -6.229318,-0.39173 z m 119.664185,0.39173 c -1.35839,-0.0827 -2.18168,1.12829 -2.45649,2.46347 -1.29728,6.3007 -0.0585,9.66127 0,12.48887 0.0274,1.36276 1.09909,2.5556 2.45649,2.45959 7.28541,-0.5131 15.26727,-0.26482 24.56359,0 1.36018,0.0552 1.92107,-1.20662 2.45674,-2.45959 1.7806,-4.16389 0.61258,-8.325 0,-12.48887 -0.19863,-1.34844 -1.10567,-2.62568 -2.45674,-2.46347 -8.54476,1.02567 -16.04188,0.50759 -24.56359,0 z m -82.61867,7.44721 h 10.75559 v 9.94487 H 90.91187 Z m 20.828,0 h 10.75559 v 9.94487 h -10.75559 z m 20.82803,0 h 10.75563 v 9.94487 H 132.5679 Z m -78.701545,10.14017 c -6.104086,0 -11.922267,0.96112 -18.330851,0.39174 -1.355468,-0.12143 -2.258373,1.11172 -2.456659,2.46014 -0.612582,4.16388 -1.780587,7.57464 0,11.73854 0.535711,1.25296 1.112389,2.24828 2.456659,2.45958 9.296385,1.46429 17.274796,0.18208 24.560169,0 1.360343,-0.0552 2.432951,-1.09683 2.459967,-2.45958 0.05858,-2.82761 1.29731,-5.43728 0,-11.73854 -0.275292,-1.33463 -1.112037,-2.27256 -2.459967,-2.46014 -2.130372,-0.29794 -4.194771,-0.39724 -6.229318,-0.39174 z m 119.664185,0.39174 c -1.35636,-0.11045 -2.18168,1.12551 -2.45649,2.46014 -1.29728,6.30126 -0.0585,9.66514 0,12.4922 0.0274,1.36277 1.09618,2.42593 2.45649,2.46015 7.28541,0.18206 15.26727,1.46428 24.56359,0 1.34418,-0.20966 1.92107,-1.20719 2.45674,-2.46015 1.7806,-4.16388 0.61258,-8.32832 0,-12.4922 -0.19863,-1.34842 -1.10479,-2.61572 -2.45674,-2.46014 -4.24813,0.49103 -8.01211,0.22067 -12.00407,0.18758 -4.05266,-0.0552 -8.33355,0.15447 -12.55952,-0.18758 z m -82.61867,9.50073 h 10.75559 v 13.1984 l 4.84608,15.22165 c -6.669935,-0.15458 -13.364808,-0.46907 -20.084176,-1.01307 -0.0165,0 -0.02213,0 -0.03863,0 l 4.519543,-14.20533 v -13.19893 z m 20.828,0 h 10.75559 v 13.1984 l 4.86297,15.27505 c -6.78518,0.0941 -13.60569,0.11026 -20.46117,-0.0555 l 4.84261,-15.22815 v -13.1984 z m 20.82803,0 h 10.75563 v 13.1984 l 4.71819,14.83426 c -6.74607,0.18211 -13.49407,0.33654 -20.33008,0.43584 l 4.85626,-15.26845 v -13.19841 z m -97.517075,8.45687 v 0.002 c -1.07587,0.11584 -1.798527,1.2971 -1.97198,2.47669 -0.612582,4.16389 -1.780587,8.32831 0,12.49224 0.535711,1.25294 1.130488,2.155 2.456659,2.46019 7.121761,1.64085 15.613435,0.14896 24.560169,0 1.360673,0 2.432951,-1.09745 2.459967,-2.46019 0.05858,-2.82709 1.29731,-6.19097 0,-12.49224 -0.275292,-1.33463 -1.107904,-2.61133 -2.459967,-2.45629 -7.829544,0.89657 -15.739493,1.5851 -24.560169,0 -0.167168,-0.0552 -0.331035,-0.0552 -0.484957,0 z m 163.524585,0.50205 c -0.15339,0 -0.31449,0 -0.48111,0 -8.82061,1.58513 -16.73403,0.89656 -24.56358,0 -1.35207,-0.15449 -2.18175,1.12499 -2.45656,2.4596 -1.29727,6.30128 -0.0585,9.66514 0,12.49218 0.0274,1.36281 1.10929,2.65212 2.45656,2.46011 8.18756,-1.16743 16.37601,-0.20963 24.56358,0 1.36034,0.0555 1.921,-1.20718 2.45674,-2.46011 1.78057,-4.16331 0.61252,-8.32831 0,-12.49218 -0.17325,-1.17958 -0.89983,-2.36413 -1.97553,-2.48 v -0.002 z"
       style="fill:#000000;fill-opacity:1;stroke:none;stroke-width:10;stroke-linecap:round;stroke-linejoin:round;stroke-miterlimit:4;stroke-dasharray:none;stroke-dashoffset:0;stroke-opacity:1" />
  </g>
</svg>
