<?xml version="1.0" encoding="UTF-8" standalone="no"?>
<!-- Created with Inkscape (http://www.inkscape.org/) -->

<svg
   xmlns:dc="http://purl.org/dc/elements/1.1/"
   xmlns:cc="http://creativecommons.org/ns#"
   xmlns:rdf="http://www.w3.org/1999/02/22-rdf-syntax-ns#"
   xmlns:svg="http://www.w3.org/2000/svg"
   xmlns="http://www.w3.org/2000/svg"
   xmlns:sodipodi="http://sodipodi.sourceforge.net/DTD/sodipodi-0.dtd"
   xmlns:inkscape="http://www.inkscape.org/namespaces/inkscape"
   width="450"
   height="325"
   viewBox="0 0 450.00001 325"
   id="svg5199"
   version="1.1"
   inkscape:version="0.92.0 r15299"
   sodipodi:docname="figure_alerts_sick_him.svg">
  <defs
     id="defs5201" />
  <sodipodi:namedview
     id="base"
     pagecolor="#ffffff"
     bordercolor="#666666"
     borderopacity="1.0"
     inkscape:pageopacity="0.0"
     inkscape:pageshadow="2"
     inkscape:zoom="0.98994949"
     inkscape:cx="466.28894"
     inkscape:cy="168.83682"
     inkscape:document-units="px"
     inkscape:current-layer="layer1"
     showgrid="false"
     units="px"
     borderlayer="true"
     inkscape:window-width="1920"
     inkscape:window-height="1017"
     inkscape:window-x="1672"
     inkscape:window-y="134"
     inkscape:window-maximized="1"
     inkscape:snap-global="false" />
  <metadata
     id="metadata5204">
    <rdf:RDF>
      <cc:Work
         rdf:about="">
        <dc:format>image/svg+xml</dc:format>
        <dc:type
           rdf:resource="http://purl.org/dc/dcmitype/StillImage" />
        <dc:title />
      </cc:Work>
    </rdf:RDF>
  </metadata>
  <g
     inkscape:label="Layer 1"
     inkscape:groupmode="layer"
     id="layer1"
     transform="translate(0,-727.36216)">
    <path
       transform="matrix(0,-6.0505132,6.0298175,0,-7110.6659,3282.6206)"
       sodipodi:type="star"
       style="font-style:normal;font-variant:normal;font-weight:normal;font-stretch:normal;font-size:medium;line-height:125%;font-family:sans-serif;-inkscape-font-specification:'Archivo Narrow Italic';text-align:center;letter-spacing:0px;word-spacing:0px;writing-mode:lr-tb;text-anchor:middle;fill:#b3b3b3;fill-opacity:1;stroke:#000000;stroke-width:0.31629431;stroke-linecap:butt;stroke-linejoin:round;stroke-miterlimit:4;stroke-dasharray:none;stroke-dashoffset:0;stroke-opacity:1"
       id="path5201"
       sodipodi:sides="6"
       sodipodi:cx="407.40814"
       sodipodi:cy="1113.0243"
       sodipodi:r1="11.162703"
       sodipodi:r2="9.6671848"
       sodipodi:arg1="-1.0471976"
       sodipodi:arg2="-0.52359878"
       inkscape:flatsided="true"
       inkscape:rounded="0"
       inkscape:randomized="0"
       d="m 412.98949,1103.3571 5.58135,9.6672 -5.58135,9.6672 -11.1627,0 -5.58135,-9.6672 5.58135,-9.6672 z" />
    <path
       id="path5123"
       style="font-style:italic;font-variant:normal;font-weight:normal;font-stretch:normal;font-size:medium;line-height:30.54940224px;font-family:'Archivo Narrow';-inkscape-font-specification:'Archivo Narrow Italic';text-align:center;letter-spacing:0px;word-spacing:0px;writing-mode:lr-tb;text-anchor:middle;display:inline;fill:#000000;fill-opacity:1;stroke:none;stroke-width:0.62827611;stroke-linecap:butt;stroke-linejoin:miter;stroke-miterlimit:4;stroke-dasharray:none;stroke-opacity:1"
       d="m -416.58615,786.08095 c -0.29492,3.04748 -0.51013,6.08889 -0.38999,9.18926 l 6.7435,6.74349 c -1.95263,-7.0325 -2.58433,-14.97525 1.07355,-23.29687 l -0.0566,-0.008 z m 8.53929,-5.30926 c -3.33321,8.64197 -1.90895,16.78578 0.56737,23.99518 l 4.67255,4.67254 c 0.8687,-0.73928 1.76117,-1.37282 2.68857,-1.90276 -0.87188,-0.17702 -1.71152,-0.42568 -2.41409,-0.79255 -0.98276,-0.5133 -1.825,-1.44723 -2.52684,-2.27045 -0.70176,-0.82318 -1.21396,-1.54742 -1.21396,-1.54742 l 1.49759,-1.05934 c 0,0 0.47049,0.6624 1.11359,1.4168 0.64342,0.75427 1.50892,1.58907 1.97884,1.8343 0.86792,0.45336 2.7134,0.79612 4.26613,0.94861 0.21159,0.0214 0.42365,0.0385 0.63562,0.0548 0.83587,-0.2415 1.70244,-0.41578 2.60908,-0.5241 4.37366,-0.52203 9.58255,0.39882 16.59358,2.26906 1.66877,-0.73143 3.66417,-2.24455 5.39357,-3.89402 -0.1731,-0.0321 -0.34443,-0.0777 -0.51085,-0.135 -1.011,-0.35191 -1.8994,-1.28185 -1.99511,-2.52926 -0.0908,-1.181 -0.0474,-2.63807 0.452,-3.96198 0.21835,-0.57913 0.55591,-1.13919 1.01147,-1.60388 l 0.0142,-0.0142 -5.82502,-3.19586 c -0.93778,-0.36203 -1.63145,-1.02212 -2.10486,-1.7689 -0.48641,-0.76749 -0.77712,-1.62176 -1.02714,-2.47352 -0.49884,-1.70119 -0.86963,-3.39717 -1.69146,-4.42345 -1.73404,-2.10177 -4.34607,-2.50276 -7.0788,-3.58633 l -0.25896,-0.10258 -0.156,-0.22868 c -2.40256,-3.47567 -2.98201,-7.80251 -3.51316,-12.21745 -3.9274,3.21417 -6.90324,9.11667 -9.26612,13.52 l -0.38501,0.71391 -0.75455,-0.29279 c -0.9587,-0.36983 -1.88305,-0.66792 -2.77441,-0.89873 z m 29.01068,11.7582 c 0.0285,0.008 0.052,0.0214 0.0801,0.0285 l -0.12859,-0.058 z m -12.88341,-24.36627 c -0.31844,0.31737 -0.62593,0.6461 -0.91573,0.99032 0.4924,3.62778 1.15619,6.93024 2.84994,9.51293 0.18379,0.0691 0.37122,0.13606 0.56088,0.2016 -0.61242,-4.19701 -0.88976,-8.6194 0.63559,-13.26202 -1.2369,0.84445 -2.26988,1.69959 -3.13079,2.55707 z m 20.0938,28.53918 c 3.09694,2.20377 1.85332,3.75472 0.60676,5.47564 0.81852,-0.46796 3.16334,-2.26788 2.7927,-3.79321 -0.29849,-1.22868 -2.37682,-1.55994 -3.39946,-1.68243 z m -17.13345,-10.39645 c 1.40074,0.5575 2.54634,1.54692 3.6897,2.56249 -0.90653,1.11366 -1.80883,1.18047 -2.92751,0.9771 -1.28451,-0.95883 -1.97776,-2.37831 -2.00426,-3.89617 0.43758,0.0798 0.85022,0.20053 1.24225,0.35662 z"
       inkscape:connector-curvature="0" />
    <path
       inkscape:connector-curvature="0"
       d="m -398.59775,828.53358 c -0.29492,3.04747 -0.51013,6.08889 -0.39,9.18926 l 6.7435,6.74349 c -1.95262,-7.0325 -2.58432,-14.97525 1.07356,-23.29687 l -0.0566,-0.008 z m 8.53929,-5.30927 c -3.33321,8.64198 -1.90896,16.78579 0.56737,23.99518 l 4.67254,4.67255 c 0.86871,-0.73928 1.76118,-1.37283 2.68858,-1.90277 -0.87188,-0.17702 -1.71152,-0.42568 -2.4141,-0.79255 -0.98276,-0.5133 -1.82499,-1.44722 -2.52683,-2.27044 -0.70176,-0.82319 -1.21396,-1.54742 -1.21396,-1.54742 l 1.49759,-1.05934 c 0,0 0.47049,0.6624 1.11359,1.4168 0.64342,0.75426 1.50892,1.58906 1.97884,1.8343 0.86792,0.45336 2.7134,0.79611 4.26613,0.9486 0.21158,0.0214 0.42365,0.0385 0.63562,0.0549 0.83587,-0.2415 1.70243,-0.41578 2.60908,-0.5241 4.37366,-0.52204 9.58255,0.39882 16.59358,2.26906 1.66877,-0.73144 3.66417,-2.24456 5.39357,-3.89403 -0.17311,-0.032 -0.34444,-0.0777 -0.51085,-0.13499 -1.011,-0.35192 -1.8994,-1.28185 -1.99511,-2.52926 -0.0908,-1.18101 -0.0474,-2.63808 0.452,-3.96199 0.21835,-0.57912 0.5559,-1.13919 1.01147,-1.60387 l 0.0142,-0.0143 -5.82502,-3.19586 c -0.93778,-0.36203 -1.63145,-1.02212 -2.10486,-1.7689 -0.48641,-0.76748 -0.77713,-1.62176 -1.02715,-2.47352 -0.49883,-1.70119 -0.86963,-3.39717 -1.69145,-4.42345 -1.73404,-2.10176 -4.34607,-2.50276 -7.07881,-3.58632 l -0.25895,-0.10258 -0.15601,-0.22868 c -2.40256,-3.47568 -2.982,-7.80251 -3.51315,-12.21746 -3.9274,3.21417 -6.90324,9.11667 -9.26612,13.52001 l -0.38501,0.7139 -0.75455,-0.29278 c -0.9587,-0.36984 -1.88305,-0.66792 -2.77442,-0.89874 z m 29.01068,11.7582 c 0.0285,0.008 0.052,0.0214 0.0801,0.0285 l -0.12858,-0.0581 z m -12.88342,-24.36626 c -0.31843,0.31736 -0.62593,0.64609 -0.91572,0.99031 0.4924,3.62778 1.15618,6.93025 2.84994,9.51293 0.18379,0.0691 0.37121,0.13607 0.56088,0.2016 -0.61243,-4.197 -0.88976,-8.61939 0.63559,-13.26202 -1.2369,0.84446 -2.26989,1.69959 -3.13079,2.55708 z m 20.0938,28.53917 c 3.09695,2.20377 1.85333,3.75472 0.60677,5.47564 0.81852,-0.46795 3.16334,-2.26787 2.7927,-3.79321 -0.29849,-1.22867 -2.37682,-1.55993 -3.39947,-1.68243 z m -17.13344,-10.39645 c 1.40074,0.55751 2.54633,1.54693 3.6897,2.5625 -0.90653,1.11365 -1.80883,1.18047 -2.92751,0.97709 -1.28451,-0.95882 -1.97776,-2.3783 -2.00426,-3.89617 0.43758,0.0798 0.85022,0.20054 1.24224,0.35662 z"
       style="font-style:italic;font-variant:normal;font-weight:normal;font-stretch:normal;font-size:medium;line-height:30.54940224px;font-family:'Archivo Narrow';-inkscape-font-specification:'Archivo Narrow Italic';text-align:center;letter-spacing:0px;word-spacing:0px;writing-mode:lr-tb;text-anchor:middle;display:inline;fill:#000000;fill-opacity:1;stroke:none;stroke-width:0.62827611;stroke-linecap:butt;stroke-linejoin:miter;stroke-miterlimit:4;stroke-dasharray:none;stroke-opacity:1"
       id="path5125" />
    <path
       id="path5127"
       style="font-style:italic;font-variant:normal;font-weight:normal;font-stretch:normal;font-size:medium;line-height:30.54940224px;font-family:'Archivo Narrow';-inkscape-font-specification:'Archivo Narrow Italic';text-align:center;letter-spacing:0px;word-spacing:0px;writing-mode:lr-tb;text-anchor:middle;display:inline;fill:#000000;fill-opacity:1;stroke:none;stroke-width:0.62827611;stroke-linecap:butt;stroke-linejoin:miter;stroke-miterlimit:4;stroke-dasharray:none;stroke-opacity:1"
       d="m -448.96527,824.57613 c -0.29493,3.04747 -0.51013,6.08889 -0.39,9.18926 l 6.7435,6.74349 c -1.95262,-7.0325 -2.58432,-14.97525 1.07356,-23.29687 l -0.0566,-0.008 z m 8.53929,-5.30927 c -3.33321,8.64198 -1.90896,16.78579 0.56737,23.99518 l 4.67254,4.67255 c 0.86871,-0.73928 1.76117,-1.37283 2.68857,-1.90277 -0.87187,-0.17702 -1.71151,-0.42568 -2.41409,-0.79255 -0.98276,-0.5133 -1.82499,-1.44722 -2.52683,-2.27044 -0.70177,-0.82319 -1.21396,-1.54742 -1.21396,-1.54742 l 1.49759,-1.05934 c 0,0 0.47049,0.6624 1.11359,1.4168 0.64341,0.75427 1.50891,1.58906 1.97884,1.8343 0.86792,0.45336 2.7134,0.79611 4.26613,0.9486 0.21158,0.0214 0.42365,0.0385 0.63562,0.0548 0.83586,-0.2415 1.70243,-0.41578 2.60907,-0.5241 4.37367,-0.52203 9.58256,0.39882 16.59359,2.26906 1.66876,-0.73144 3.66417,-2.24456 5.39357,-3.89403 -0.17311,-0.032 -0.34444,-0.0777 -0.51085,-0.13499 -1.01101,-0.35192 -1.89941,-1.28185 -1.99511,-2.52926 -0.0908,-1.18101 -0.0474,-2.63808 0.452,-3.96199 0.21835,-0.57912 0.5559,-1.13918 1.01146,-1.60387 l 0.0143,-0.0143 -5.82503,-3.19586 c -0.93777,-0.36202 -1.63144,-1.02212 -2.10485,-1.7689 -0.48642,-0.76748 -0.77713,-1.62176 -1.02715,-2.47352 -0.49883,-1.70119 -0.86963,-3.39717 -1.69146,-4.42345 -1.73403,-2.10176 -4.34606,-2.50276 -7.0788,-3.58632 l -0.25895,-0.10258 -0.15601,-0.22868 c -2.40256,-3.47567 -2.982,-7.80251 -3.51315,-12.21746 -3.9274,3.21418 -6.90324,9.11667 -9.26612,13.52001 l -0.38501,0.7139 -0.75455,-0.29278 c -0.95871,-0.36984 -1.88306,-0.66792 -2.77442,-0.89874 z m 29.01068,11.7582 c 0.0285,0.008 0.052,0.0214 0.0801,0.0285 l -0.12858,-0.058 z m -12.88342,-24.36626 c -0.31843,0.31737 -0.62593,0.64609 -0.91572,0.99031 0.49239,3.62778 1.15618,6.93025 2.84994,9.51294 0.18378,0.0691 0.37121,0.13606 0.56088,0.20159 -0.61243,-4.197 -0.88976,-8.61939 0.63559,-13.26201 -1.2369,0.84445 -2.26989,1.69958 -3.13079,2.55707 z m 20.0938,28.53918 c 3.09695,2.20376 1.85332,3.75471 0.60677,5.47564 0.81852,-0.46796 3.16334,-2.26788 2.7927,-3.79322 -0.29849,-1.22867 -2.37682,-1.55993 -3.39947,-1.68242 z m -17.13345,-10.39646 c 1.40074,0.55751 2.54634,1.54693 3.6897,2.5625 -0.90652,1.11366 -1.80882,1.18047 -2.9275,0.97709 -1.28451,-0.95882 -1.97776,-2.3783 -2.00426,-3.89617 0.43758,0.0798 0.85022,0.20054 1.24224,0.35663 z"
       inkscape:connector-curvature="0" />
    <g
       id="g5217"
       transform="matrix(0.99783128,0,0,0.99783128,-371.7749,601.24372)">
      <circle
         r="46.601688"
         cy="180.0994"
         cx="-659.98737"
         id="circle5213"
         style="font-style:italic;font-variant:normal;font-weight:normal;font-stretch:normal;font-size:medium;line-height:30.54940224px;font-family:'Archivo Narrow';-inkscape-font-specification:'Archivo Narrow Italic';text-align:center;letter-spacing:0px;word-spacing:0px;writing-mode:lr-tb;text-anchor:middle;fill:#000000;fill-opacity:1;stroke:none;stroke-width:3.10677958;stroke-linecap:butt;stroke-linejoin:miter;stroke-miterlimit:4;stroke-dasharray:none;stroke-opacity:1"
         transform="scale(-1,1)" />
      <path
         id="path5215"
         style="font-style:italic;font-variant:normal;font-weight:normal;font-stretch:normal;font-size:medium;line-height:30.54940224px;font-family:'Archivo Narrow';-inkscape-font-specification:'Archivo Narrow Italic';text-align:center;letter-spacing:0px;word-spacing:0px;writing-mode:lr-tb;text-anchor:middle;display:inline;fill:#ffffff;fill-opacity:1;stroke:none;stroke-width:0.88203329;stroke-linecap:butt;stroke-linejoin:miter;stroke-miterlimit:4;stroke-dasharray:none;stroke-opacity:1"
         d="m 626.45167,178.07501 c -0.41404,4.27833 -0.71617,8.54816 -0.54751,12.90075 l 9.46716,9.46715 c -2.74128,-9.87289 -3.62812,-21.02367 1.50716,-32.70635 l -0.0795,-0.0106 z m 11.98826,-7.45365 c -4.67947,12.13242 -2.67997,23.56547 0.79653,33.6867 l 6.55976,6.55976 c 1.21957,-1.03787 2.4725,-1.9273 3.77447,-2.67128 -1.22402,-0.24852 -2.40279,-0.59761 -3.38913,-1.11266 -1.37969,-0.72062 -2.5621,-2.03175 -3.54741,-3.18746 -0.9852,-1.15567 -1.70427,-2.17242 -1.70427,-2.17242 l 2.10246,-1.4872 c 0,0 0.66052,0.92994 1.56336,1.98904 0.90329,1.05891 2.11836,2.23088 2.77808,2.57516 1.21847,0.63647 3.80933,1.11766 5.9892,1.33174 0.29704,0.03 0.59476,0.054 0.89234,0.077 1.17347,-0.33904 2.39004,-0.58371 3.66287,-0.73578 6.14016,-0.73288 13.45289,0.5599 23.29564,3.18552 2.34277,-1.02686 5.14411,-3.15112 7.572,-5.4668 -0.24302,-0.045 -0.48355,-0.10902 -0.71718,-0.18952 -1.41934,-0.49405 -2.66656,-1.79958 -2.80092,-3.55081 -0.12754,-1.65801 -0.0666,-3.70358 0.63456,-5.56221 0.30654,-0.81303 0.78043,-1.5993 1.41999,-2.25167 l 0.02,-0.02 -8.17772,-4.48665 c -1.31654,-0.50825 -2.29038,-1.43495 -2.955,-2.48335 -0.68287,-1.07747 -1.091,-2.27678 -1.442,-3.47256 -0.70031,-2.38829 -1.22087,-4.76927 -2.37463,-6.21006 -2.4344,-2.95065 -6.10142,-3.51361 -9.93789,-5.03482 l -0.36354,-0.14401 -0.21902,-0.32104 c -3.37294,-4.87948 -4.18642,-10.9539 -4.9321,-17.15202 -5.51365,4.51236 -9.69142,12.79884 -13.00865,18.98066 l -0.54051,1.00225 -1.05931,-0.41104 c -1.34592,-0.51921 -2.64361,-0.93769 -3.89499,-1.26173 z m 40.72793,16.50727 c 0.04,0.0106 0.073,0.03 0.11246,0.04 l -0.18052,-0.0815 z m -18.08695,-34.20766 c -0.44705,0.44555 -0.87874,0.90705 -1.28558,1.3903 0.69127,5.09302 1.62316,9.72933 4.00101,13.35515 0.25802,0.097 0.52115,0.19102 0.78742,0.28302 -0.85978,-5.89215 -1.24913,-12.10072 0.8923,-18.61847 -1.73648,1.18552 -3.18668,2.38604 -4.3953,3.58986 z m 28.20957,40.06599 c 4.34779,3.09386 2.60187,5.27123 0.85184,7.68722 1.14911,-0.65696 4.44099,-3.18386 3.92065,-5.32527 -0.41905,-1.72493 -3.3368,-2.18998 -4.77249,-2.36195 z m -24.05355,-14.59552 c 1.96649,0.78268 3.57479,2.17172 5.17995,3.59747 -1.27267,1.56346 -2.5394,1.65726 -4.10991,1.37174 -1.80332,-1.34609 -2.77657,-3.33889 -2.81377,-5.46981 0.61432,0.11206 1.19362,0.28153 1.74398,0.50066 z"
         inkscape:connector-curvature="0" />
    </g>
    <path
       d="m 412.98949,1103.3571 5.58135,9.6672 -5.58135,9.6672 -11.1627,0 -5.58135,-9.6672 5.58135,-9.6672 z"
       inkscape:randomized="0"
       inkscape:rounded="0"
       inkscape:flatsided="true"
       sodipodi:arg2="-0.52359878"
       sodipodi:arg1="-1.0471976"
       sodipodi:r2="9.6671848"
       sodipodi:r1="11.162703"
       sodipodi:cy="1113.0243"
       sodipodi:cx="407.40814"
       sodipodi:sides="6"
       id="path5092"
       style="font-style:normal;font-weight:normal;font-size:medium;line-height:125%;font-family:sans-serif;letter-spacing:0px;word-spacing:0px;fill:#b3b3b3;fill-opacity:1;stroke:#000000;stroke-width:0.84378105;stroke-linecap:butt;stroke-linejoin:round;stroke-miterlimit:4;stroke-dasharray:none;stroke-dashoffset:0;stroke-opacity:1"
       sodipodi:type="star"
       transform="matrix(6.6661662,0,0,6.6710722,-2626.8344,-6625.7236)" />
    <path
       style="fill:#4d4d4d;fill-opacity:1;stroke:none;stroke-width:0.84660983;stroke-opacity:1"
       inkscape:connector-curvature="0"
       d="m 116.31677,771.7568 c -3.33101,0 -5.72669,1.76361 -7.11031,3.97915 -1.23742,1.981 -1.75225,4.2791 -1.85268,6.29204 -3.7761,1.86807 -7.959331,3.75206 -11.327292,5.67811 -1.766736,1.01057 -3.307052,2.02662 -4.466478,3.1186 -1.159426,1.092 -2.014892,2.3219 -2.014892,3.77229 0,0.61748 0.301533,1.12043 0.640307,1.48971 0.340105,0.3701 0.746896,0.65609 1.2105,0.92373 0.927152,0.5349 2.096039,0.98095 3.381877,1.36742 1.910181,0.57346 4.049443,1.00005 5.909518,1.18198 -1.850102,3.19065 -4.312237,6.12067 -6.470502,8.92797 -2.494198,3.24518 -4.6717,6.35714 -4.6717,9.81422 0,0.49363 -0.01196,0.87927 0.0393,1.26691 0.04371,0.38962 0.155047,0.87031 0.54404,1.25373 0.389183,0.38173 0.865691,0.48619 1.253786,0.52823 0.388022,0.0426 0.779102,0.0426 1.280657,0.0426 H 106.424 c 0.99892,0 1.7304,0.0625 2.48287,-0.42274 0.75254,-0.48384 1.02696,-1.14494 1.56311,-2.13291 h 0.012 l 0.012,-0.0429 c 0,0 1.19952,-2.44071 2.63074,-4.86311 0.71554,-1.21042 1.49244,-2.41655 2.16816,-3.27089 0.33855,-0.42738 0.65437,-0.76631 0.88209,-0.9576 0.0697,-0.0545 0.10166,-0.0701 0.14609,-0.0974 0.0448,0.0429 0.0763,0.0429 0.14609,0.0974 0.22752,0.1909 0.54409,0.52983 0.88208,0.9576 0.67572,0.85434 1.45258,2.06047 2.16816,3.27089 1.43107,2.4224 2.63074,4.86311 2.63074,4.86311 l 0.012,0.0429 h 0.012 c 0.53618,0.98797 0.80807,1.64517 1.55566,2.13019 0.74741,0.48501 1.47732,0.42738 2.46218,0.42738 h 13.8217 c 0.49347,0 0.87838,0 1.26379,-0.0427 0.38529,-0.0426 0.86338,-0.14797 1.2486,-0.53522 0.38489,-0.38959 0.49148,-0.86372 0.53415,-1.2494 0.0437,-0.38179 0.0389,-0.77059 0.0389,-1.26495 0,-3.45674 -2.17751,-6.5683 -4.67175,-9.81349 -2.15811,-2.80769 -4.62024,-5.7377 -6.47046,-8.92836 1.86011,-0.1831 3.99937,-0.60852 5.9095,-1.18198 1.2858,-0.38957 2.45474,-0.83213 3.38187,-1.36741 0.46362,-0.26492 0.87077,-0.55437 1.21029,-0.9233 0.33971,-0.3701 0.64055,-0.87266 0.64055,-1.49014 0,-1.45039 -0.85548,-2.67991 -2.01486,-3.77229 -1.15949,-1.09158 -2.69978,-2.108 -4.46644,-3.11856 -3.36807,-1.92609 -7.55124,-3.8097 -11.32742,-5.67812 -0.10046,-2.01294 -0.61533,-4.31107 -1.85262,-6.29208 -1.38365,-2.21553 -3.77928,-3.97915 -7.11034,-3.97915 z"
       id="path5096" />
    <path
       style="fill:#000000;fill-opacity:1;stroke:none;stroke-width:0.9413631;stroke-opacity:1"
       id="path5102"
       d="m 184.99855,732.06211 c -17.08278,0.78396 -34.78928,17.5834 -35.1924,32.77033 l -13.76162,-4.37793 17.83155,44.07088 26.10678,-30.1016 -14.948,-4.75151 c -2.52923,-14.80478 27.23635,-20.11609 30.27565,-20.20061 3.2352,-0.09 20.878,-1.90766 42.03598,13.94343 -17.94832,-29.37681 -31.01046,-32.33231 -52.34794,-31.35299 z"
       inkscape:connector-curvature="0"
       sodipodi:nodetypes="scccccscs" />
    <g
       transform="matrix(0.6938205,0,0,0.6938205,-220.24975,157.67894)"
       id="g5633">
      <circle
         style="fill:#000000;stroke:none;stroke-width:3;stroke-miterlimit:4;stroke-dasharray:none;stroke-opacity:1"
         id="circle5629"
         cx="400.71429"
         cy="928.07642"
         r="45" />
      <path
         id="path5631"
         d="m 400.71429,896.83247 c 2.83886,0 4.7227,1.41745 7.24972,2.82167 2.39517,1.33142 5.40596,2.47258 9.65199,1.60564 2.01501,2.01471 4.06221,4.02984 6.24535,5.39477 1.78649,1.11717 3.79413,1.78267 5.79661,1.46791 -0.57456,4.52203 -3.31964,8.94522 -6.18917,11.26062 -7.56742,-2.50856 -15.1538,-3.76346 -22.74019,-3.76346 -7.59333,0 -15.18652,1.25738 -22.7609,3.7705 -2.87253,-2.31334 -5.62208,-6.74108 -6.19708,-11.26766 2.00206,0.31435 4.00999,-0.35158 5.79662,-1.4675 2.18314,-1.36534 4.23006,-3.38047 6.24535,-5.39518 4.2456,0.86694 7.25695,-0.27299 9.65185,-1.60524 2.52742,-1.40504 4.41113,-2.82207 7.24985,-2.82207 z m 0.0149,2.64257 c -2.67865,0 -7.18755,3.62078 -7.18755,3.62078 0,0 2.86859,10.86397 7.18755,10.86397 4.31925,0 7.18795,-10.86397 7.18795,-10.86397 0,0 -4.50931,-3.62078 -7.18795,-3.62078 z m 0,18.56919 c 7.13628,0 14.27297,1.16721 21.42669,3.48055 0.29478,1.82156 -0.20407,3.17531 -1.27708,4.42689 -1.19771,1.3972 -3.20823,2.58344 -5.59112,3.47685 -4.76648,1.78723 -10.94734,2.42006 -14.55863,2.42006 -3.61115,0 -9.79173,-0.63283 -14.55794,-2.42006 -2.3833,-0.89341 -4.39341,-2.07924 -5.59113,-3.47685 -1.07338,-1.25158 -1.57242,-2.60493 -1.27749,-4.42689 7.15374,-2.31334 14.29043,-3.48055 21.42656,-3.48055 z m 23.41689,7.72835 c 1.32767,0.32263 3.64075,1.05141 4.05621,2.29805 1.13596,3.40734 -2.28717,8.62757 -4.87596,11.92075 0.71326,-2.97594 1.09777,-6.14133 1.09777,-9.42295 0,-1.63046 -0.0954,-3.23197 -0.27806,-4.79585 z m -46.83325,0 a 41.349104,41.364178 0 0 0 -0.27798,4.79544 c 0,3.28203 0.3844,6.44742 1.09777,9.42336 -2.58879,-3.29318 -6.01192,-8.51341 -4.87596,-11.92075 0.41534,-1.24664 2.72868,-1.97625 4.05594,-2.29805 z m 44.61372,2.59253 c 0.0409,0.72715 0.0641,1.46131 0.0641,2.20291 0,8.02908 -2.45081,15.27558 -6.34039,20.46106 -3.88946,5.18588 -9.15212,8.29129 -14.92119,8.29129 -5.7688,0 -11.03159,-3.10541 -14.92091,-8.29129 -3.88931,-5.18548 -6.33998,-12.43157 -6.33998,-20.46106 0,-0.7416 0.0235,-1.47576 0.0641,-2.20332 1.10856,1.03528 2.46239,1.87575 3.95205,2.57392 -0.57717,2.46142 0.0359,5.52258 1.63542,7.12159 2.94344,2.94328 9.54439,2.94328 12.48797,0 0.91165,-0.91201 1.30271,-2.36462 1.25116,-3.82261 0.66691,0 1.29766,0.0579 1.87048,0.0579 0.57297,0 1.20387,0 1.8709,-0.0579 -0.0517,1.45799 0.33937,2.9106 1.25117,3.82261 2.94358,2.94328 9.5444,2.94328 12.48785,0 1.59941,-1.59901 2.21258,-4.66017 1.6354,-7.12117 1.48965,-0.69818 2.8439,-1.53824 3.95205,-2.57393 z m -21.19736,15.93861 c -3.12193,4.99479 -9.3655,5.61935 -12.48742,5.61935 3.12178,2.49741 12.48728,2.49741 12.48728,0 0,2.49741 9.36605,2.49741 12.48798,0 -3.12193,0 -9.36591,-0.62456 -12.48798,-5.61935 z"
         style="fill:#ffffff;fill-opacity:1"
         inkscape:connector-curvature="0" />
    </g>
    <g
       transform="matrix(0.99783128,0,0,0.99783128,-327.8839,759.42653)"
       id="g5641">
      <circle
         transform="scale(-1,1)"
         style="font-style:italic;font-variant:normal;font-weight:normal;font-stretch:normal;font-size:medium;line-height:30.54940224px;font-family:'Archivo Narrow';-inkscape-font-specification:'Archivo Narrow Italic';text-align:center;letter-spacing:0px;word-spacing:0px;writing-mode:lr-tb;text-anchor:middle;fill:#000000;fill-opacity:1;stroke:none;stroke-width:3.10677958;stroke-linecap:butt;stroke-linejoin:miter;stroke-miterlimit:4;stroke-dasharray:none;stroke-opacity:1"
         id="circle5637"
         cx="-659.98737"
         cy="180.0994"
         r="46.601688" />
      <path
         inkscape:connector-curvature="0"
         d="m 626.45167,178.07501 c -0.41404,4.27833 -0.71617,8.54816 -0.54751,12.90075 l 9.46716,9.46715 c -2.74128,-9.87289 -3.62812,-21.02367 1.50716,-32.70635 l -0.0795,-0.0106 z m 11.98826,-7.45365 c -4.67947,12.13242 -2.67997,23.56547 0.79653,33.6867 l 6.55976,6.55976 c 1.21957,-1.03787 2.4725,-1.9273 3.77447,-2.67128 -1.22402,-0.24852 -2.40279,-0.59761 -3.38913,-1.11266 -1.37969,-0.72062 -2.5621,-2.03175 -3.54741,-3.18746 -0.9852,-1.15567 -1.70427,-2.17242 -1.70427,-2.17242 l 2.10246,-1.4872 c 0,0 0.66052,0.92994 1.56336,1.98904 0.90329,1.05891 2.11836,2.23088 2.77808,2.57516 1.21847,0.63647 3.80933,1.11766 5.9892,1.33174 0.29704,0.03 0.59476,0.054 0.89234,0.077 1.17347,-0.33904 2.39004,-0.58371 3.66287,-0.73578 6.14016,-0.73288 13.45289,0.5599 23.29564,3.18552 2.34277,-1.02686 5.14411,-3.15112 7.572,-5.4668 -0.24302,-0.045 -0.48355,-0.10902 -0.71718,-0.18952 -1.41934,-0.49405 -2.66656,-1.79958 -2.80092,-3.55081 -0.12754,-1.65801 -0.0666,-3.70358 0.63456,-5.56221 0.30654,-0.81303 0.78043,-1.5993 1.41999,-2.25167 l 0.02,-0.02 -8.17772,-4.48665 c -1.31654,-0.50825 -2.29038,-1.43495 -2.955,-2.48335 -0.68287,-1.07747 -1.091,-2.27678 -1.442,-3.47256 -0.70031,-2.38829 -1.22087,-4.76927 -2.37463,-6.21006 -2.4344,-2.95065 -6.10142,-3.51361 -9.93789,-5.03482 l -0.36354,-0.14401 -0.21902,-0.32104 c -3.37294,-4.87948 -4.18642,-10.9539 -4.9321,-17.15202 -5.51365,4.51236 -9.69142,12.79884 -13.00865,18.98066 l -0.54051,1.00225 -1.05931,-0.41104 c -1.34592,-0.51921 -2.64361,-0.93769 -3.89499,-1.26173 z m 40.72793,16.50727 c 0.04,0.0106 0.073,0.03 0.11246,0.04 l -0.18052,-0.0815 z m -18.08695,-34.20766 c -0.44705,0.44555 -0.87874,0.90705 -1.28558,1.3903 0.69127,5.09302 1.62316,9.72933 4.00101,13.35515 0.25802,0.097 0.52115,0.19102 0.78742,0.28302 -0.85978,-5.89215 -1.24913,-12.10072 0.8923,-18.61847 -1.73648,1.18552 -3.18668,2.38604 -4.3953,3.58986 z m 28.20957,40.06599 c 4.34779,3.09386 2.60187,5.27123 0.85184,7.68722 1.14911,-0.65696 4.44099,-3.18386 3.92065,-5.32527 -0.41905,-1.72493 -3.3368,-2.18998 -4.77249,-2.36195 z m -24.05355,-14.59552 c 1.96649,0.78268 3.57479,2.17172 5.17995,3.59747 -1.27267,1.56346 -2.5394,1.65726 -4.10991,1.37174 -1.80332,-1.34609 -2.77657,-3.33889 -2.81377,-5.46981 0.61432,0.11206 1.19362,0.28153 1.74398,0.50066 z"
         style="font-style:italic;font-variant:normal;font-weight:normal;font-stretch:normal;font-size:medium;line-height:30.54940224px;font-family:'Archivo Narrow';-inkscape-font-specification:'Archivo Narrow Italic';text-align:center;letter-spacing:0px;word-spacing:0px;writing-mode:lr-tb;text-anchor:middle;display:inline;fill:#ffffff;fill-opacity:1;stroke:none;stroke-width:0.88203329;stroke-linecap:butt;stroke-linejoin:miter;stroke-miterlimit:4;stroke-dasharray:none;stroke-opacity:1"
         id="path5639" />
    </g>
    <path
       sodipodi:nodetypes="scccccscs"
       inkscape:connector-curvature="0"
       d="m 274.35862,1035.4304 c -15.7614,6.6343 -38.96947,-0.924 -45.86077,-14.4634 l -10.54406,9.8677 -2.84115,-47.45674 36.51012,15.95876 -11.45472,10.71498 c 4.0794,14.4547 33.23825,6.4571 36.01883,5.2272 2.95985,-1.3094 19.67116,-7.251 31.96242,-30.65708 -3.5798,34.23918 -14.10367,42.52208 -33.79067,50.80858 z"
       id="path5651"
       style="fill:#000000;fill-opacity:1;stroke:none;stroke-width:0.9413631;stroke-opacity:1" />
    <g
       id="g4532"
       transform="translate(133.84521,10.101525)">
      <path
         d="m 412.98949,1103.3571 5.58135,9.6672 -5.58135,9.6672 -11.1627,0 -5.58135,-9.6672 5.58135,-9.6672 z"
         inkscape:randomized="0"
         inkscape:rounded="0"
         inkscape:flatsided="true"
         sodipodi:arg2="-0.52359878"
         sodipodi:arg1="-1.0471976"
         sodipodi:r2="9.6671848"
         sodipodi:r1="11.162703"
         sodipodi:cy="1113.0243"
         sodipodi:cx="407.40814"
         sodipodi:sides="6"
         id="path4517"
         style="font-style:normal;font-weight:normal;font-size:medium;line-height:125%;font-family:sans-serif;letter-spacing:0px;word-spacing:0px;fill:#b3b3b3;fill-opacity:1;stroke:#000000;stroke-width:0.84378105;stroke-linecap:butt;stroke-linejoin:round;stroke-miterlimit:4;stroke-dasharray:none;stroke-dashoffset:0;stroke-opacity:1"
         sodipodi:type="star"
         transform="matrix(6.6661662,0,0,6.6710722,-2703.606,-6477.7363)" />
      <path
         style="fill:#4d4d4d;fill-opacity:1;stroke:none;stroke-width:0.84660983;stroke-opacity:1"
         inkscape:connector-curvature="0"
         d="m 39.545176,919.74415 c -3.33101,0 -5.72669,1.76361 -7.11031,3.97915 -1.23742,1.981 -1.75225,4.2791 -1.85268,6.29204 -3.7761,1.86807 -7.959331,3.75206 -11.327292,5.67811 -1.766736,1.01057 -3.307052,2.02662 -4.466478,3.1186 -1.159426,1.092 -2.014892,2.3219 -2.014892,3.77229 0,0.61748 0.301533,1.12043 0.640307,1.48971 0.340105,0.3701 0.746896,0.65609 1.2105,0.92373 0.927152,0.5349 2.096039,0.98095 3.381877,1.36742 1.910181,0.57346 4.049443,1.00005 5.909518,1.18198 -1.850102,3.19065 -4.312237,6.12067 -6.470502,8.92797 -2.494198,3.24518 -4.6717,6.35714 -4.6717,9.81422 0,0.49363 -0.01196,0.87927 0.0393,1.26691 0.04371,0.38962 0.155047,0.87031 0.54404,1.25373 0.389183,0.38173 0.865691,0.48619 1.253786,0.52823 0.388022,0.0426 0.779102,0.0426 1.280657,0.0426 h 13.761099 c 0.99892,0 1.7304,0.0625 2.48287,-0.42274 0.75254,-0.48384 1.02696,-1.14494 1.56311,-2.13291 h 0.012 l 0.012,-0.0429 c 0,0 1.19952,-2.44071 2.63074,-4.86311 0.71554,-1.21042 1.49244,-2.41655 2.16816,-3.27089 0.33855,-0.42738 0.65437,-0.76631 0.88209,-0.9576 0.0697,-0.0545 0.10166,-0.0701 0.14609,-0.0974 0.0448,0.0429 0.0763,0.0429 0.14609,0.0974 0.22752,0.1909 0.54409,0.52983 0.88208,0.9576 0.67572,0.85434 1.45258,2.06047 2.16816,3.27089 1.43107,2.4224 2.63074,4.86311 2.63074,4.86311 l 0.012,0.0429 h 0.012 c 0.53618,0.98797 0.80807,1.64517 1.55566,2.13019 0.74741,0.48501 1.47732,0.42738 2.46218,0.42738 h 13.8217 c 0.49347,0 0.87838,0 1.26379,-0.0427 0.38529,-0.0426 0.86338,-0.14797 1.2486,-0.53522 0.38489,-0.38959 0.49148,-0.86372 0.53415,-1.2494 0.0437,-0.38179 0.0389,-0.77059 0.0389,-1.26495 0,-3.45674 -2.17751,-6.5683 -4.67175,-9.81349 -2.15811,-2.80769 -4.62024,-5.7377 -6.47046,-8.92836 1.86011,-0.1831 3.99937,-0.60852 5.9095,-1.18198 1.2858,-0.38957 2.45474,-0.83213 3.38187,-1.36741 0.46362,-0.26492 0.87077,-0.55437 1.21029,-0.9233 0.33971,-0.3701 0.64055,-0.87266 0.64055,-1.49014 0,-1.45039 -0.85548,-2.67991 -2.01486,-3.77229 -1.15949,-1.09158 -2.69978,-2.108 -4.46644,-3.11856 -3.36807,-1.92609 -7.55124,-3.8097 -11.32742,-5.67812 -0.10046,-2.01294 -0.61533,-4.31107 -1.85262,-6.29208 -1.38365,-2.21553 -3.77928,-3.97915 -7.11034,-3.97915 z"
         id="path4519" />
      <g
         transform="matrix(0.61812462,0,0,0.61812462,-51.246714,372.99669)"
         id="g4159">
        <circle
           r="45"
           cy="928.07642"
           cx="53.57143"
           id="circle4153"
           style="fill:#000000;stroke:none;stroke-width:3;stroke-miterlimit:4;stroke-dasharray:none;stroke-opacity:1" />
        <path
           id="path15143"
           d="m 68.153056,931.9504 c -3.255924,0.43694 -7.397249,0.74381 -12.620705,0.92218 -3.314393,0.11307 -7.03157,0.16963 -11.050373,0.16963 -5.060116,0 -9.569507,-0.0874 -12.360777,-0.15421 a 29.687347,29.685409 0 0 0 1.266172,8.32264 c 3.189489,10.65119 11.563824,17.85892 19.898836,17.85892 a 14.083316,14.082398 0 0 0 4.051343,-0.58703 c 9.246686,-2.76855 13.953988,-14.50436 10.815504,-26.52648 z m -23.099335,12.41484 -1.931632,-1.17301 -0.853714,1.49789 -2.239183,-1.28046 0.89201,-1.55391 -1.991608,-1.21003 1.340048,-2.20467 1.931789,1.17353 0.853722,-1.49788 2.239193,1.28045 -0.892019,1.55441 1.991441,1.20952 z m 13.983976,-3.67222 -1.931974,-1.17354 -0.853529,1.49687 -2.239192,-1.27891 0.887612,-1.56112 -1.991608,-1.20745 1.344455,-2.20621 1.931789,1.17353 0.853547,-1.49788 2.239017,1.28044 -0.89201,1.55441 1.991784,1.20953 z m 17.324966,-32.32833 3.129843,2.60717 3.459602,-2.14453 -1.513739,3.77914 3.109836,2.6272 -4.061333,-0.27243 -1.54222,3.76885 -0.99554,-3.94722 -4.060158,-0.29814 3.43842,-2.16612 z m -0.03245,-11.21455 0.296027,2.5429 2.506404,0.52585 -2.327289,1.06661 0.284513,2.54496 -1.736917,-1.88341 -2.334248,1.05171 1.254649,-2.22884 -1.721337,-1.89677 2.510823,0.50889 z m -50.226122,-0.0669 2.621816,3.11039 3.782584,-1.50508 -2.152254,3.45993 2.600297,3.12941 -3.951875,-0.97768 -2.179366,3.44091 -0.28436,-4.05929 -3.946277,-1.00595 3.772587,-1.53027 z m 50.226122,29.20405 c -0.648491,1.80116 -3.635853,3.7195 -20.871668,4.30602 -3.681586,0.12337 -7.464182,0.16449 -10.973604,0.16449 -5.96196,0 -17.241263,-0.17478 -17.241263,-0.17478 v -2.27611 c 0,0 11.305059,0.17477 17.242612,0.17477 3.434198,0 7.129851,-0.0615 10.730448,-0.15935 5.51525,-0.18506 9.947871,-0.52585 13.175674,-1.0111 4.846596,-0.7325 5.663196,-1.59761 5.779951,-1.76981 -0.03391,-0.0822 -0.173701,-0.33412 -0.691547,-0.74379 -1.442405,-1.13807 -4.058468,-2.27611 -7.582131,-3.33451 a 28.793977,28.792101 0 0 0 -2.355772,-3.01785 c 0.284464,0.0719 0.569055,0.14392 0.836433,0.21588 5.003191,1.33133 8.535475,2.79323 10.509987,4.34663 0.926063,0.73713 1.931768,1.90088 1.44086,3.27693 z m -43.360972,-0.2159 c 0.213528,-1.04246 1.25787,-3.76938 1.765557,-4.54042 8.01611,0.55001 21.459348,-2.23603 25.091115,-3.57918 2.163442,1.88496 4.652917,5.09814 5.776921,7.42361 -8.152514,0.92782 -22.67977,0.94632 -32.637653,0.69752 z m 2.759756,-10.25435 c -1.433931,-0.0874 -4.798137,-0.29815 -6.067023,0.28271 1.688456,1.59452 10.668925,1.77237 18.241389,0.7001 8.117093,-1.14936 15.64821,-3.05283 20.067949,-6.064 1.840965,-1.25475 2.813809,-3.08879 2.637577,-3.90148 -0.896428,-4.14872 -24.769493,-5.61319 -24.769493,-5.61319 0,0 25.362573,0.52532 25.550339,5.61114 0.202007,5.45694 -11.684985,9.64472 -23.107976,11.42686 -10.849734,1.6927 -21.251592,1.81092 -20.712392,-2.66472 0.31294,-2.59996 7.301839,-2.11472 10.326285,-1.77084 -0.600391,0.41637 -1.699984,1.50251 -2.170727,1.99289 z m 10.794498,-2.72128 a 15.11894,15.117955 0 0 1 6.057357,0.65384 c -1.810968,0.44722 -8.292141,1.32466 -12.114724,1.42231 3.01733,-1.83866 5.518163,-2.01087 6.053124,-2.07512 z"
           style="fill:#ffffff;fill-opacity:1"
           inkscape:connector-curvature="0" />
      </g>
    </g>
  </g>
</svg>
