<?xml version="1.0" encoding="UTF-8" standalone="no"?>
<svg
   xmlns:dc="http://purl.org/dc/elements/1.1/"
   xmlns:cc="http://creativecommons.org/ns#"
   xmlns:rdf="http://www.w3.org/1999/02/22-rdf-syntax-ns#"
   xmlns:svg="http://www.w3.org/2000/svg"
   xmlns="http://www.w3.org/2000/svg"
   xmlns:sodipodi="http://sodipodi.sourceforge.net/DTD/sodipodi-0.dtd"
   xmlns:inkscape="http://www.inkscape.org/namespaces/inkscape"
   sodipodi:docname="figure_escape.svg"
   inkscape:version="1.0 (4035a4fb49, 2020-05-01)"
   version="1.1"
   id="svg11777"
   viewBox="0 0 250 200"
   height="200"
   width="250">
  <defs
     id="defs11779">
    <filter
       id="filter5738-7"
       style="color-interpolation-filters:sRGB"
       inkscape:menu-tooltip="Painting canvas emboss effect"
       inkscape:menu="Bumps"
       inkscape:label="Linen Canvas">
      <feTurbulence
         id="feTurbulence5740-2"
         baseFrequency="0.4"
         numOctaves="5" />
      <feConvolveMatrix
         id="feConvolveMatrix5742-7"
         targetY="2"
         targetX="2"
         kernelMatrix="-4 0 0 0 -4 0 -2 0 -2 0 0 0 -10 0 0 0 -2 0 -2 0 -4 0 0 0 -4 "
         order="5 5" />
      <feConvolveMatrix
         id="feConvolveMatrix5744-6"
         targetY="1"
         targetX="1"
         kernelMatrix="2 0 2 0 -5 0 2 0 2 "
         order="3 3" />
      <feColorMatrix
         id="feColorMatrix5746-7"
         result="result1"
         type="saturate" />
      <feComposite
         id="feComposite5748-0"
         result="result2"
         k3="0.5"
         k2="0.5"
         k1="1.5"
         operator="arithmetic"
         in2="SourceGraphic"
         k4="0" />
      <feBlend
         id="feBlend5750-0"
         result="result4"
         in2="result1"
         mode="normal" />
      <feColorMatrix
         id="feColorMatrix5752-6"
         type="luminanceToAlpha" />
      <feDiffuseLighting
         id="feDiffuseLighting5754-4"
         result="result3"
         diffuseConstant="1"
         surfaceScale="10">
        <feDistantLight
           id="feDistantLight5756-8"
           elevation="35"
           azimuth="180" />
      </feDiffuseLighting>
      <feComposite
         id="feComposite5758-6"
         result="result5"
         k3="0.5"
         k1="1.5"
         operator="arithmetic"
         in2="result4"
         k2="0"
         k4="0" />
      <feBlend
         id="feBlend5760-9"
         result="result6"
         in2="result3"
         mode="normal" />
      <feComposite
         id="feComposite5762-2"
         operator="in"
         in2="SourceGraphic" />
    </filter>
    <filter
       height="1.1777717"
       y="-0.088885866"
       width="1.1539548"
       x="-0.07697742"
       id="filter10726"
       style="color-interpolation-filters:sRGB"
       inkscape:collect="always">
      <feGaussianBlur
         id="feGaussianBlur10728"
         stdDeviation="0.71606337"
         inkscape:collect="always" />
    </filter>
    <filter
       height="1.1777717"
       y="-0.088885866"
       width="1.1539548"
       x="-0.07697742"
       id="filter10730"
       style="color-interpolation-filters:sRGB"
       inkscape:collect="always">
      <feGaussianBlur
         id="feGaussianBlur10732"
         stdDeviation="0.71606337"
         inkscape:collect="always" />
    </filter>
    <filter
       height="1.1777717"
       y="-0.088885866"
       width="1.1539548"
       x="-0.07697742"
       id="filter10734"
       style="color-interpolation-filters:sRGB"
       inkscape:collect="always">
      <feGaussianBlur
         id="feGaussianBlur10736"
         stdDeviation="0.71606337"
         inkscape:collect="always" />
    </filter>
    <filter
       height="1.1777717"
       y="-0.088885866"
       width="1.1539548"
       x="-0.07697742"
       id="filter10738"
       style="color-interpolation-filters:sRGB"
       inkscape:collect="always">
      <feGaussianBlur
         id="feGaussianBlur10740"
         stdDeviation="0.71606337"
         inkscape:collect="always" />
    </filter>
    <filter
       height="1.2364322"
       y="-0.11821608"
       width="1.2364244"
       x="-0.11821222"
       id="filter10742"
       style="color-interpolation-filters:sRGB"
       inkscape:collect="always">
      <feGaussianBlur
         id="feGaussianBlur10744"
         stdDeviation="1.8832449"
         inkscape:collect="always" />
    </filter>
    <filter
       height="1.1777717"
       y="-0.088885866"
       width="1.1539548"
       x="-0.07697742"
       id="filter10746"
       style="color-interpolation-filters:sRGB"
       inkscape:collect="always">
      <feGaussianBlur
         id="feGaussianBlur10748"
         stdDeviation="0.71606337"
         inkscape:collect="always" />
    </filter>
    <filter
       height="1.1777717"
       y="-0.088885866"
       width="1.1539548"
       x="-0.07697742"
       id="filter10750"
       style="color-interpolation-filters:sRGB"
       inkscape:collect="always">
      <feGaussianBlur
         id="feGaussianBlur10752"
         stdDeviation="0.71606337"
         inkscape:collect="always" />
    </filter>
    <filter
       height="1.1777717"
       y="-0.088885866"
       width="1.1539548"
       x="-0.07697742"
       id="filter10754"
       style="color-interpolation-filters:sRGB"
       inkscape:collect="always">
      <feGaussianBlur
         id="feGaussianBlur10756"
         stdDeviation="0.71606337"
         inkscape:collect="always" />
    </filter>
    <filter
       height="1.1777717"
       y="-0.088885866"
       width="1.1539548"
       x="-0.07697742"
       id="filter10758"
       style="color-interpolation-filters:sRGB"
       inkscape:collect="always">
      <feGaussianBlur
         id="feGaussianBlur10760"
         stdDeviation="0.71606337"
         inkscape:collect="always" />
    </filter>
  </defs>
  <sodipodi:namedview
     inkscape:snap-global="false"
     inkscape:document-rotation="0"
     inkscape:window-maximized="1"
     inkscape:window-y="-8"
     inkscape:window-x="-8"
     inkscape:window-height="1017"
     inkscape:window-width="1920"
     units="px"
     showgrid="false"
     inkscape:current-layer="layer1"
     inkscape:document-units="px"
     inkscape:cy="124.07803"
     inkscape:cx="98.604947"
     inkscape:zoom="3.959798"
     inkscape:pageshadow="2"
     inkscape:pageopacity="0.0"
     borderopacity="1.0"
     bordercolor="#666666"
     pagecolor="#ffffff"
     id="base" />
  <metadata
     id="metadata11782">
    <rdf:RDF>
      <cc:Work
         rdf:about="">
        <dc:format>image/svg+xml</dc:format>
        <dc:type
           rdf:resource="http://purl.org/dc/dcmitype/StillImage" />
        <dc:title />
      </cc:Work>
    </rdf:RDF>
  </metadata>
  <g
     transform="translate(0,-852.36216)"
     id="layer1"
     inkscape:groupmode="layer"
     inkscape:label="Layer 1">
    <path
       transform="matrix(2.6274656,0,0,2.6325319,-1024.636,-2028.4769)"
       sodipodi:type="star"
       style="font-style:normal;font-weight:normal;font-size:medium;line-height:125%;font-family:sans-serif;letter-spacing:0px;word-spacing:0px;fill:#000000;fill-opacity:1;stroke:none;stroke-width:0.09605665;stroke-linecap:butt;stroke-linejoin:round;stroke-miterlimit:4;stroke-dasharray:none;stroke-dashoffset:0;stroke-opacity:1;filter:url(#filter10758)"
       id="path10456"
       sodipodi:sides="6"
       sodipodi:cx="407.40814"
       sodipodi:cy="1113.0243"
       sodipodi:r1="11.162703"
       sodipodi:r2="9.6671848"
       sodipodi:arg1="-1.0471976"
       sodipodi:arg2="-0.52359878"
       inkscape:flatsided="true"
       inkscape:rounded="0"
       inkscape:randomized="0"
       d="m 412.98949,1103.3571 5.58135,9.6672 -5.58135,9.6672 -11.1627,0 -5.58135,-9.6672 5.58135,-9.6672 z" />
    <path
       d="m 412.98949,1103.3571 5.58135,9.6672 -5.58135,9.6672 -11.1627,0 -5.58135,-9.6672 5.58135,-9.6672 z"
       inkscape:randomized="0"
       inkscape:rounded="0"
       inkscape:flatsided="true"
       sodipodi:arg2="-0.52359878"
       sodipodi:arg1="-1.0471976"
       sodipodi:r2="9.6671848"
       sodipodi:r1="11.162703"
       sodipodi:cy="1113.0243"
       sodipodi:cx="407.40814"
       sodipodi:sides="6"
       id="path10458"
       style="font-style:normal;font-weight:normal;font-size:medium;line-height:125%;font-family:sans-serif;letter-spacing:0px;word-spacing:0px;fill:#000000;fill-opacity:1;stroke:none;stroke-width:0.09605665;stroke-linecap:butt;stroke-linejoin:round;stroke-miterlimit:4;stroke-dasharray:none;stroke-dashoffset:0;stroke-opacity:1;filter:url(#filter10746)"
       sodipodi:type="star"
       transform="matrix(2.6274656,0,0,2.6325319,-979.50451,-2002.5271)" />
    <path
       transform="matrix(2.6274656,0,0,2.6325319,-934.07665,-2027.5863)"
       sodipodi:type="star"
       style="font-style:normal;font-weight:normal;font-size:medium;line-height:125%;font-family:sans-serif;letter-spacing:0px;word-spacing:0px;fill:#000000;fill-opacity:1;stroke:none;stroke-width:0.09605665;stroke-linecap:butt;stroke-linejoin:round;stroke-miterlimit:4;stroke-dasharray:none;stroke-dashoffset:0;stroke-opacity:1;filter:url(#filter10754)"
       id="path10460"
       sodipodi:sides="6"
       sodipodi:cx="407.40814"
       sodipodi:cy="1113.0243"
       sodipodi:r1="11.162703"
       sodipodi:r2="9.6671848"
       sodipodi:arg1="-1.0471976"
       sodipodi:arg2="-0.52359878"
       inkscape:flatsided="true"
       inkscape:rounded="0"
       inkscape:randomized="0"
       d="m 412.98949,1103.3571 5.58135,9.6672 -5.58135,9.6672 -11.1627,0 -5.58135,-9.6672 5.58135,-9.6672 z" />
    <path
       d="m 412.98949,1103.3571 5.58135,9.6672 -5.58135,9.6672 -11.1627,0 -5.58135,-9.6672 5.58135,-9.6672 z"
       inkscape:randomized="0"
       inkscape:rounded="0"
       inkscape:flatsided="true"
       sodipodi:arg2="-0.52359878"
       sodipodi:arg1="-1.0471976"
       sodipodi:r2="9.6671848"
       sodipodi:r1="11.162703"
       sodipodi:cy="1113.0243"
       sodipodi:cx="407.40814"
       sodipodi:sides="6"
       id="path10462"
       style="font-style:normal;font-weight:normal;font-size:medium;line-height:125%;font-family:sans-serif;letter-spacing:0px;word-spacing:0px;fill:#000000;fill-opacity:1;stroke:none;stroke-width:0.09605665;stroke-linecap:butt;stroke-linejoin:round;stroke-miterlimit:4;stroke-dasharray:none;stroke-dashoffset:0;stroke-opacity:1;filter:url(#filter10750)"
       sodipodi:type="star"
       transform="matrix(2.6274656,0,0,2.6325319,-889.10022,-2001.4908)" />
    <rect
       ry="1.5654925"
       y="881.95221"
       x="-280.30649"
       height="28.824398"
       width="28.827805"
       id="rect10464"
       style="fill:#000000;fill-opacity:1;stroke:none;stroke-width:3;stroke-linecap:round;stroke-linejoin:round;stroke-miterlimit:4;stroke-dasharray:none;stroke-dashoffset:0;stroke-opacity:1;filter:url(#filter10742)"
       transform="matrix(0.86602542,-0.49999997,0.49999997,0.86602542,0,0)" />
    <path
       d="m 412.98949,1103.3571 5.58135,9.6672 -5.58135,9.6672 -11.1627,0 -5.58135,-9.6672 5.58135,-9.6672 z"
       inkscape:randomized="0"
       inkscape:rounded="0"
       inkscape:flatsided="true"
       sodipodi:arg2="-0.52359878"
       sodipodi:arg1="-1.0471976"
       sodipodi:r2="9.6671848"
       sodipodi:r1="11.162703"
       sodipodi:cy="1113.0243"
       sodipodi:cx="407.40814"
       sodipodi:sides="6"
       id="path10466"
       style="font-style:normal;font-weight:normal;font-size:medium;line-height:125%;font-family:sans-serif;letter-spacing:0px;word-spacing:0px;fill:#000000;fill-opacity:1;stroke:none;stroke-width:0.09605665;stroke-linecap:butt;stroke-linejoin:round;stroke-miterlimit:4;stroke-dasharray:none;stroke-dashoffset:0;stroke-opacity:1;filter:url(#filter10726)"
       sodipodi:type="star"
       transform="matrix(2.6274656,0,0,2.6325319,-1024.9086,-1924.2396)" />
    <path
       transform="matrix(2.6274656,0,0,2.6325319,-980.2188,-1950.3843)"
       sodipodi:type="star"
       style="font-style:normal;font-weight:normal;font-size:medium;line-height:125%;font-family:sans-serif;letter-spacing:0px;word-spacing:0px;fill:#000000;fill-opacity:1;stroke:none;stroke-width:0.09605665;stroke-linecap:butt;stroke-linejoin:round;stroke-miterlimit:4;stroke-dasharray:none;stroke-dashoffset:0;stroke-opacity:1;filter:url(#filter10730)"
       id="path10468"
       sodipodi:sides="6"
       sodipodi:cx="407.40814"
       sodipodi:cy="1113.0243"
       sodipodi:r1="11.162703"
       sodipodi:r2="9.6671848"
       sodipodi:arg1="-1.0471976"
       sodipodi:arg2="-0.52359878"
       inkscape:flatsided="true"
       inkscape:rounded="0"
       inkscape:randomized="0"
       d="m 412.98949,1103.3571 5.58135,9.6672 -5.58135,9.6672 -11.1627,0 -5.58135,-9.6672 5.58135,-9.6672 z" />
    <path
       transform="matrix(2.6274656,0,0,2.6325319,-935.37036,-1923.5433)"
       sodipodi:type="star"
       style="font-style:normal;font-weight:normal;font-size:medium;line-height:125%;font-family:sans-serif;letter-spacing:0px;word-spacing:0px;fill:#000000;fill-opacity:1;stroke:none;stroke-width:0.09605665;stroke-linecap:butt;stroke-linejoin:round;stroke-miterlimit:4;stroke-dasharray:none;stroke-dashoffset:0;stroke-opacity:1;filter:url(#filter10734)"
       id="path10470"
       sodipodi:sides="6"
       sodipodi:cx="407.40814"
       sodipodi:cy="1113.0243"
       sodipodi:r1="11.162703"
       sodipodi:r2="9.6671848"
       sodipodi:arg1="-1.0471976"
       sodipodi:arg2="-0.52359878"
       inkscape:flatsided="true"
       inkscape:rounded="0"
       inkscape:randomized="0"
       d="m 412.98949,1103.3571 5.58135,9.6672 -5.58135,9.6672 -11.1627,0 -5.58135,-9.6672 5.58135,-9.6672 z" />
    <path
       d="m 412.98949,1103.3571 5.58135,9.6672 -5.58135,9.6672 -11.1627,0 -5.58135,-9.6672 5.58135,-9.6672 z"
       inkscape:randomized="0"
       inkscape:rounded="0"
       inkscape:flatsided="true"
       sodipodi:arg2="-0.52359878"
       sodipodi:arg1="-1.0471976"
       sodipodi:r2="9.6671848"
       sodipodi:r1="11.162703"
       sodipodi:cy="1113.0243"
       sodipodi:cx="407.40814"
       sodipodi:sides="6"
       id="path10472"
       style="font-style:normal;font-weight:normal;font-size:medium;line-height:125%;font-family:sans-serif;letter-spacing:0px;word-spacing:0px;fill:#000000;fill-opacity:1;stroke:none;stroke-width:0.09605665;stroke-linecap:butt;stroke-linejoin:round;stroke-miterlimit:4;stroke-dasharray:none;stroke-dashoffset:0;stroke-opacity:1;filter:url(#filter10738)"
       sodipodi:type="star"
       transform="matrix(2.6274656,0,0,2.6325319,-934.50451,-1975.7414)" />
    <path
       d="m 412.98949,1103.3571 5.58135,9.6672 -5.58135,9.6672 -11.1627,0 -5.58135,-9.6672 5.58135,-9.6672 z"
       inkscape:randomized="0"
       inkscape:rounded="0"
       inkscape:flatsided="true"
       sodipodi:arg2="-0.52359878"
       sodipodi:arg1="-1.0471976"
       sodipodi:r2="9.6671848"
       sodipodi:r1="11.162703"
       sodipodi:cy="1113.0243"
       sodipodi:cx="407.40814"
       sodipodi:sides="6"
       id="path13290"
       style="font-style:normal;font-weight:normal;font-size:medium;line-height:125%;font-family:sans-serif;letter-spacing:0px;word-spacing:0px;fill:#d8c586;fill-opacity:1;stroke:none;stroke-width:0.09605665;stroke-linecap:butt;stroke-linejoin:round;stroke-miterlimit:4;stroke-dasharray:none;stroke-dashoffset:0;stroke-opacity:1"
       sodipodi:type="star"
       transform="matrix(2.6274656,0,0,2.6325319,-1026.636,-2030.4769)" />
    <path
       id="path13292"
       d="m 44.955462,881.80005 c -2.113471,0 -3.63361,1.11977 -4.511533,2.52587 -0.785093,1.2576 -1.111703,2.71628 -1.175364,3.99378 -2.396034,1.18611 -5.050288,2.38191 -7.187238,3.60433 -1.12107,0.64148 -2.098396,1.28652 -2.834027,1.97968 -0.735631,0.69314 -1.27854,1.47376 -1.27854,2.39453 0,0.39174 0.191177,0.7112 0.406409,0.94541 0.215619,0.23443 0.473742,0.41632 0.767991,0.58614 0.588307,0.3398 1.330029,0.62322 2.145742,0.86801 1.212162,0.36415 2.569429,0.63491 3.749624,0.75065 -1.17372,2.02491 -2.736075,3.88494 -4.105419,5.66713 -1.582638,2.05954 -2.964347,4.03488 -2.964347,6.22909 0,0.3136 -0.0096,0.55817 0.02412,0.80414 0.02901,0.24568 0.09814,0.55278 0.34516,0.79571 0.247016,0.24346 0.54928,0.30873 0.795526,0.33552 0.246335,0.0266 0.494409,0.0222 0.81262,0.0222 l 8.731332,0 c 0.633905,0 1.098078,0.0384 1.57549,-0.26869 0.477507,-0.30732 0.651679,-0.72697 0.991823,-1.35396 l 0.0096,-0.0222 0.0097,-0.0222 c 0,0 0.761036,-1.54918 1.669107,-3.08658 0.454027,-0.76863 0.946994,-1.53422 1.375811,-2.07663 0.214552,-0.27121 0.415104,-0.48617 0.559617,-0.6076 0.0444,-0.0362 0.06475,-0.043 0.09274,-0.0585 0.02901,0.0222 0.04833,0.0222 0.09274,0.0585 0.14452,0.12187 0.34516,0.33639 0.559617,0.6076 0.428824,0.54241 0.921686,1.308 1.375722,2.07663 0.908064,1.5374 1.669291,3.08658 1.669291,3.08658 l 0.0097,0.0222 0.0096,0.0222 c 0.340232,0.62699 0.512672,1.0442 0.98708,1.35219 0.474126,0.30798 0.937338,0.27024 1.562163,0.27024 l 8.769974,0 c 0.313089,0 0.557301,0 0.801897,-0.0244 0.2445,-0.0266 0.547837,-0.0947 0.792241,-0.33929 0.24421,-0.24486 0.31183,-0.54855 0.338878,-0.79312 0.02805,-0.24479 0.02412,-0.48935 0.02412,-0.80274 0,-2.19443 -1.381709,-4.16977 -2.964348,-6.22953 -1.369439,-1.78197 -2.931506,-3.642 -4.105515,-5.66691 1.180292,-0.11517 2.537559,-0.3865 3.749632,-0.75042 0.815809,-0.24502 1.557524,-0.52821 2.145734,-0.86801 0.294257,-0.16917 0.552573,-0.35194 0.767991,-0.58615 0.215426,-0.23443 0.406506,-0.55366 0.406506,-0.94556 0,-0.92077 -0.542908,-1.70124 -1.278532,-2.39438 -0.735631,-0.69338 -1.713054,-1.33842 -2.834036,-1.97964 -2.136942,-1.22246 -4.791196,-2.41849 -7.187327,-3.60435 -0.06379,-1.2775 -0.390375,-2.73638 -1.175363,-3.99379 -0.877924,-1.40609 -2.397966,-2.52565 -4.51154,-2.52565 z"
       inkscape:connector-curvature="0"
       style="fill:#000080;fill-opacity:1;stroke:none;stroke-width:0.99999994;stroke-opacity:1" />
    <path
       transform="matrix(2.6274656,0,0,2.6325319,-981.50451,-2004.5271)"
       sodipodi:type="star"
       style="font-style:normal;font-weight:normal;font-size:medium;line-height:125%;font-family:sans-serif;letter-spacing:0px;word-spacing:0px;fill:#d8c586;fill-opacity:1;stroke:none;stroke-width:0.09605665;stroke-linecap:butt;stroke-linejoin:round;stroke-miterlimit:4;stroke-dasharray:none;stroke-dashoffset:0;stroke-opacity:1"
       id="path13294"
       sodipodi:sides="6"
       sodipodi:cx="407.40814"
       sodipodi:cy="1113.0243"
       sodipodi:r1="11.162703"
       sodipodi:r2="9.6671848"
       sodipodi:arg1="-1.0471976"
       sodipodi:arg2="-0.52359878"
       inkscape:flatsided="true"
       inkscape:rounded="0"
       inkscape:randomized="0"
       d="m 412.98949,1103.3571 5.58135,9.6672 -5.58135,9.6672 -11.1627,0 -5.58135,-9.6672 5.58135,-9.6672 z" />
    <path
       d="m 412.98949,1103.3571 5.58135,9.6672 -5.58135,9.6672 -11.1627,0 -5.58135,-9.6672 5.58135,-9.6672 z"
       inkscape:randomized="0"
       inkscape:rounded="0"
       inkscape:flatsided="true"
       sodipodi:arg2="-0.52359878"
       sodipodi:arg1="-1.0471976"
       sodipodi:r2="9.6671848"
       sodipodi:r1="11.162703"
       sodipodi:cy="1113.0243"
       sodipodi:cx="407.40814"
       sodipodi:sides="6"
       id="path13298"
       style="font-style:normal;font-weight:normal;font-size:medium;line-height:125%;font-family:sans-serif;letter-spacing:0px;word-spacing:0px;fill:#d8c586;fill-opacity:1;stroke:none;stroke-width:0.09605665;stroke-linecap:butt;stroke-linejoin:round;stroke-miterlimit:4;stroke-dasharray:none;stroke-dashoffset:0;stroke-opacity:1"
       sodipodi:type="star"
       transform="matrix(2.6274656,0,0,2.6325319,-936.07665,-2029.5863)" />
    <path
       transform="matrix(2.6274656,0,0,2.6325319,-891.10022,-2003.4908)"
       sodipodi:type="star"
       style="font-style:normal;font-weight:normal;font-size:medium;line-height:125%;font-family:sans-serif;letter-spacing:0px;word-spacing:0px;fill:#d8c586;fill-opacity:1;stroke:none;stroke-width:0.09605665;stroke-linecap:butt;stroke-linejoin:round;stroke-miterlimit:4;stroke-dasharray:none;stroke-dashoffset:0;stroke-opacity:1"
       id="path13300"
       sodipodi:sides="6"
       sodipodi:cx="407.40814"
       sodipodi:cy="1113.0243"
       sodipodi:r1="11.162703"
       sodipodi:r2="9.6671848"
       sodipodi:arg1="-1.0471976"
       sodipodi:arg2="-0.52359878"
       inkscape:flatsided="true"
       inkscape:rounded="0"
       inkscape:randomized="0"
       d="m 412.98949,1103.3571 5.58135,9.6672 -5.58135,9.6672 -11.1627,0 -5.58135,-9.6672 5.58135,-9.6672 z" />
    <rect
       transform="matrix(0.86602542,-0.49999997,0.49999997,0.86602542,0,0)"
       style="fill:#d8c586;fill-opacity:1;stroke:none;stroke-width:3;stroke-linecap:round;stroke-linejoin:round;stroke-miterlimit:4;stroke-dasharray:none;stroke-dashoffset:0;stroke-opacity:1"
       id="rect13304"
       width="28.827805"
       height="28.824398"
       x="-281.03854"
       y="879.22015"
       ry="1.5654925" />
    <path
       inkscape:connector-curvature="0"
       style="fill:#42290d;fill-opacity:1"
       d="m 209.85402,899.08896 10.07336,17.44763 4.49482,-4.76926 -8.19053,-14.18639 z m 6.71694,-2.50628 0.0544,0.0878 0.65628,1.13669 0.6125,-0.35367 -0.70714,-1.2248 z m -9.87431,5.702 2.5918,4.48908 0.68906,-0.39788 -2.19386,-3.79993 2.37359,-1.37038 -0.39785,-0.68909 z m 10.98221,-3.78853 0.35364,0.61247 0.61258,-0.35362 -0.35363,-0.61248 z m 0.75145,1.30145 5.21571,9.03392 0.6125,-0.35369 -5.21572,-9.03389 z m -7.89009,7.55283 0.77953,1.35021 -3.67523,2.12188 1.01661,1.7608 3.67523,-2.12189 0.77953,1.35021 0.94298,-3.51869 z m 4.85367,-1.05321 c 0.25373,-0.14647 0.69691,0.14613 0.98988,0.65349 0.29292,0.50744 0.32467,1.03745 0.071,1.18391 -0.25373,0.14647 -0.69686,-0.14601 -0.98979,-0.65344 -0.29288,-0.50731 -0.32476,-1.03749 -0.071,-1.18395 z m -1.71537,6.48892 -0.68915,0.39784 2.39285,4.14447 0.68905,-0.39788 z m 10.36522,-3.26569 0.30947,0.53598 0.61258,-0.35363 -0.30947,-0.53597 z m 0.70728,1.22496 0.50828,0.88043 0.61257,-0.35361 -0.50836,-0.88049 z m -12.19127,9.38629 0.39786,0.68909 6.39334,-3.69119 -0.39786,-0.68909 z m 11.1272,-6.42427 -1.89918,2.01528 8.3209,-4.80402 -0.39786,-0.6891 z"
       id="path13306" />
    <g
       transform="translate(114.89215,-205.05915)"
       id="g205">
      <circle
         r="11.879407"
         cy="1105.9868"
         cx="19.868847"
         id="circle177"
         style="font-variation-settings:normal;vector-effect:none;fill:#000000;fill-opacity:1;stroke:none;stroke-width:0.654201px;stroke-linecap:butt;stroke-linejoin:miter;stroke-miterlimit:4;stroke-dasharray:none;stroke-dashoffset:0;stroke-opacity:1;paint-order:markers fill stroke;stop-color:#000000" />
      <circle
         style="font-variation-settings:normal;vector-effect:none;fill:#42290d;fill-opacity:1;stroke:none;stroke-width:0.654201px;stroke-linecap:butt;stroke-linejoin:miter;stroke-miterlimit:4;stroke-dasharray:none;stroke-dashoffset:0;stroke-opacity:1;paint-order:markers fill stroke;stop-color:#000000"
         id="circle179"
         cx="19.095318"
         cy="1105.1028"
         r="11.879407" />
      <path
         id="path13308"
         d="m 22.824837,1106.0935 c -0.832773,0.1129 -1.892008,0.1903 -3.228026,0.2358 -0.847726,0.029 -1.798476,0.043 -2.826374,0.043 -1.294235,0 -2.447609,-0.023 -3.161538,-0.04 a 7.593191,7.5926956 0 0 0 0.323852,2.1288 c 0.815782,2.7243 2.9577,4.5678 5.089562,4.5678 a 3.6021175,3.6018827 0 0 0 1.036222,-0.1514 c 2.365042,-0.708 3.569039,-3.7095 2.766302,-6.7846 z m -5.908164,3.1755 -0.494055,-0.3001 -0.218357,0.3831 -0.572721,-0.3275 0.228152,-0.3976 -0.509398,-0.3093 0.342748,-0.5639 0.494099,0.3002 0.218357,-0.3832 0.57272,0.3275 -0.228152,0.3977 0.509355,0.3092 z m 3.576712,-0.9394 -0.494142,-0.3001 -0.218315,0.3831 -0.572721,-0.3274 0.227025,-0.3992 -0.509398,-0.3089 0.343875,-0.5643 0.494099,0.3002 0.218315,-0.3831 0.572677,0.3274 -0.228152,0.3977 0.509442,0.3093 z m 4.431241,-8.2687 0.800526,0.6669 0.88487,-0.5486 -0.387174,0.9667 0.795412,0.672 -1.038777,-0.069 -0.394455,0.9641 -0.254635,-1.0096 -1.038473,-0.076 0.879452,-0.5541 z m -0.0082,-2.8683 0.07572,0.6505 0.641072,0.1335 -0.595259,0.2729 0.07277,0.6509 -0.444255,-0.4817 -0.597036,0.2689 0.320904,-0.5702 -0.440268,-0.485 0.642198,0.1292 z m -12.846436,-0.016 0.670588,0.7957 0.967479,-0.3849 -0.550486,0.8848 0.665083,0.8003 -1.010779,-0.2499 -0.557421,0.8801 -0.07273,-1.0383 -1.009348,-0.2572 0.964923,-0.3915 z m 12.846436,7.4696 c -0.16587,0.4607 -0.929946,0.9514 -5.33839,1.1014 -0.941648,0.032 -1.909128,0.043 -2.80674,0.043 -1.524902,0 -4.409831,-0.044 -4.409831,-0.044 v -0.5821 c 0,0 2.891517,0.044 4.410177,0.044 0.878369,0 1.823614,-0.01 2.744545,-0.042 1.410653,-0.047 2.544392,-0.1342 3.36997,-0.2587 1.239624,-0.1873 1.448489,-0.4086 1.478352,-0.4526 -0.0087,-0.021 -0.04443,-0.086 -0.176879,-0.1903 -0.368927,-0.291 -1.03804,-0.5821 -1.939293,-0.8528 a 7.3646925,7.3642127 0 0 0 -0.602541,-0.772 c 0.07277,0.018 0.145543,0.036 0.213936,0.056 1.279672,0.3405 2.183136,0.7146 2.688157,1.1118 0.236864,0.1885 0.494099,0.4861 0.368537,0.8383 z m -11.090522,-0.055 c 0.05461,-0.2667 0.321728,-0.9641 0.45158,-1.1613 2.050293,0.1404 5.488699,-0.572 6.417606,-0.9154 0.553347,0.4821 1.190084,1.304 1.477572,1.8988 -2.085183,0.2373 -5.80085,0.242 -8.347798,0.1783 z m 0.705868,-2.6228 c -0.36676,-0.022 -1.227228,-0.075 -1.551773,0.073 0.431859,0.4079 2.728811,0.4533 4.665634,0.179 2.076125,-0.294 4.002374,-0.7808 5.132819,-1.551 0.470868,-0.3209 0.719694,-0.7899 0.674618,-0.998 -0.229279,-1.0609 -6.335342,-1.4356 -6.335342,-1.4356 0,0 6.487039,0.1342 6.535062,1.4352 0.05166,1.3957 -2.98869,2.4668 -5.910374,2.9227 -2.775057,0.433 -5.435562,0.4631 -5.297647,-0.6815 0.08005,-0.665 1.867606,-0.541 2.641173,-0.453 -0.15356,0.1059 -0.434806,0.3842 -0.55521,0.5097 z m 2.760928,-0.696 a 3.867001,3.8667488 0 0 1 1.549302,0.1674 c -0.463196,0.1135 -2.120897,0.3387 -3.098605,0.3638 0.771747,-0.4704 1.411388,-0.5144 1.548219,-0.5308 z"
         style="font-variation-settings:normal;opacity:1;vector-effect:none;fill:#d8c586;fill-opacity:1;stroke:none;stroke-width:0.252628;stroke-linecap:butt;stroke-linejoin:round;stroke-miterlimit:4;stroke-dasharray:none;stroke-dashoffset:0;stroke-opacity:1;stop-color:#000000;stop-opacity:1"
         inkscape:connector-curvature="0" />
    </g>
    <g
       transform="translate(90.404293,-161.10659)"
       id="g235">
      <circle
         r="11.879407"
         cy="1088.1298"
         cx="89.33313"
         id="circle207"
         style="font-variation-settings:normal;vector-effect:none;fill:#000000;fill-opacity:1;stroke:none;stroke-width:0.654201px;stroke-linecap:butt;stroke-linejoin:miter;stroke-miterlimit:4;stroke-dasharray:none;stroke-dashoffset:0;stroke-opacity:1;paint-order:markers fill stroke;stop-color:#000000" />
      <circle
         style="font-variation-settings:normal;vector-effect:none;fill:#42290d;fill-opacity:1;stroke:none;stroke-width:0.654201px;stroke-linecap:butt;stroke-linejoin:miter;stroke-miterlimit:4;stroke-dasharray:none;stroke-dashoffset:0;stroke-opacity:1;paint-order:markers fill stroke;stop-color:#000000"
         id="circle209"
         cx="88.559601"
         cy="1087.2457"
         r="11.879407" />
      <path
         inkscape:connector-curvature="0"
         style="font-variation-settings:normal;opacity:1;vector-effect:none;fill:#d8c586;fill-opacity:1;stroke:none;stroke-width:0.252628;stroke-linecap:butt;stroke-linejoin:round;stroke-miterlimit:4;stroke-dasharray:none;stroke-dashoffset:0;stroke-opacity:1;stop-color:#000000;stop-opacity:1"
         d="m 84.681904,1081.1926 c -0.423451,-2e-4 -0.869008,0.061 -1.337791,0.198 a 0.27143592,0.27140386 0 0 0 -0.0038,0 0.27143592,0.27140386 0 0 0 -0.01393,0.01 0.27143592,0.27140386 0 0 0 -0.01106,0 0.27143592,0.27140386 0 0 0 -0.01347,0.01 0.27143592,0.27140386 0 0 0 -0.0111,0.01 0.27143592,0.27140386 0 0 0 -0.01309,0.01 0.27143592,0.27140386 0 0 0 -0.0098,0.01 0.27143592,0.27140386 0 0 0 -0.01232,0.01 0.27143592,0.27140386 0 0 0 -0.0095,0.01 0.27143592,0.27140386 0 0 0 -0.01148,0.011 0.27143592,0.27140386 0 0 0 -0.0086,0.01 0.27143592,0.27140386 0 0 0 -0.0106,0.012 0.27143592,0.27140386 0 0 0 -0.0067,0.01 0.27143592,0.27140386 0 0 0 -0.0098,0.014 0.27143592,0.27140386 0 0 0 -0.0058,0.01 0.27143592,0.27140386 0 0 0 -0.0077,0.014 0.27143592,0.27140386 0 0 0 -0.0058,0.01 0.27143592,0.27140386 0 0 0 -0.0067,0.015 0.27143592,0.27140386 0 0 0 -0.0048,0.011 0.27143592,0.27140386 0 0 0 -0.0058,0.015 0.27143592,0.27140386 0 0 0 -0.0038,0.012 0.27143592,0.27140386 0 0 0 -0.0048,0.02 l -0.639807,3.1987 a 0.27143592,0.27140386 0 0 0 0.160731,0.3031 l 2.343564,0.9878 0.903469,4.632 -3.329617,0.7232 a 0.27143592,0.27140386 0 0 0 -0.214307,0.2615 l -0.03039,2.1847 a 0.27143592,0.27140386 0 0 0 0.353583,0.2625 l 4.184876,-1.3374 0.689289,-0.1337 c 0.0058,0 0.0098,0 0.0152,0 0.284467,0 0.552394,-0.1354 0.739455,-0.3563 0.186951,-0.2206 0.28475,-0.5082 0.284462,-0.8044 v 0 c 1.61e-4,-0.1878 -0.03934,-0.3725 -0.115567,-0.5388 l -0.722099,-3.7301 3.593645,1.5148 a 0.27143592,0.27140386 0 0 0 0.0048,0 0.27143592,0.27140386 0 0 0 0.01558,0.01 0.27143592,0.27140386 0 0 0 0.0098,0 0.27143592,0.27140386 0 0 0 0.01558,0 0.27143592,0.27140386 0 0 0 0.01195,0 0.27143592,0.27140386 0 0 0 0.01393,0 0.27143592,0.27140386 0 0 0 0.01393,0 0.27143592,0.27140386 0 0 0 0.01232,0 0.27143592,0.27140386 0 0 0 0.01558,0 0.27143592,0.27140386 0 0 0 0.01021,0 l 2.383062,-0.1508 a 0.27143592,0.27140386 0 0 0 0.227766,-0.1554 l 1.443506,-3.0555 h 2.49e-4 a 0.27143592,0.27140386 0 0 0 -0.157455,-0.3753 c -0.222471,-0.122 -0.451508,-0.2074 -0.68448,-0.2614 l -8.796603,-3.4134 a 0.27143592,0.27140386 0 0 0 -0.023,-0.01 c -0.380531,-0.1098 -0.781874,-0.1717 -1.205321,-0.172 z m -0.752786,0.3921 a 0.27143592,0.27140386 0 0 1 0.105356,0.02 l 8.307391,3.3291 a 0.27166451,0.27163243 0 0 1 0.164829,0.3083 0.27143592,0.27140386 0 0 0 -0.02018,0.042 l -0.02376,0.059 a 0.27166451,0.27163243 0 0 1 -0.322614,0.095 l -8.307315,-3.33 a 0.27143592,0.27140386 0 0 1 0.09644,-0.5242 z m 10.209093,3.6672 c 0.1257,0 0.25001,0.015 0.373367,0.04 l 0.421146,0.1634 -0.676315,1.4317 c 0.02626,-0.116 0.03935,-0.2309 0.03812,-0.3387 -0.0038,-0.2495 -0.08398,-0.4557 -0.224152,-0.5589 -0.140171,-0.1031 -0.333961,-0.099 -0.525012,0.01 -0.0472,0.027 -0.0944,0.059 -0.140179,0.096 0.01769,-0.023 0.03411,-0.048 0.04815,-0.077 0.04061,-0.078 0.06421,-0.17 0.06344,-0.2509 0,-0.081 -0.02706,-0.1497 -0.07319,-0.1848 -0.02305,-0.018 -0.04968,-0.027 -0.07863,-0.026 -0.02875,0 -0.0601,0.01 -0.0901,0.027 -0.06029,0.034 -0.116593,0.1005 -0.157159,0.1795 -0.04061,0.079 -0.06421,0.1698 -0.06344,0.2508 0,0.081 0.02702,0.1498 0.07319,0.1848 0.04624,0.035 0.108516,0.032 0.16873,0 -0.09755,0.1019 -0.187014,0.2258 -0.259754,0.3634 -0.131647,0.249 -0.206442,0.5371 -0.203563,0.7866 0.0038,0.2494 0.0857,0.4564 0.225884,0.5598 0.140086,0.1033 0.332124,0.098 0.523166,-0.01 0.119342,-0.067 0.236881,-0.172 0.340294,-0.3024 l -0.240316,0.5086 -1.792902,0.1142 1.064402,-2.6394 c 0.418154,-0.2213 0.807798,-0.3288 1.18469,-0.3258 z m -8.516772,1.0898 0.457576,0.1929 0.849525,3.9869 c -0.08589,-0.026 -0.175553,-0.04 -0.266952,-0.04 -0.07787,0 -0.154292,0.011 -0.228213,0.03 l -0.811936,-4.1691 z m 1.067265,0.4499 0.486211,0.2049 0.657166,3.3949 c -0.07806,-0.022 -0.158966,-0.033 -0.241351,-0.033 -0.04701,0 -0.09334,0 -0.139028,0.012 l -0.762951,-3.5778 z m 0.901997,4.1115 c 0.110391,0 0.235926,0.056 0.327772,0.165 0.09182,0.1084 0.155238,0.2825 0.154989,0.4512 2.87e-4,0.1686 -0.06315,0.3428 -0.154943,0.4511 -0.04357,0.052 -0.09478,0.091 -0.148218,0.1184 l -0.175539,0.035 c 0.06019,-0.1507 0.09096,-0.3144 0.09076,-0.4807 v 0 c 1.14e-4,-0.1079 -0.01271,-0.2146 -0.03812,-0.3174 a 0.27143592,0.27140386 0 0 0 -0.0058,-0.064 l -0.07586,-0.3559 c 0.0086,0 0.0168,0 0.02503,0 z m -0.929113,0.1228 c 0.110392,0 0.236011,0.056 0.32787,0.165 0.09182,0.1085 0.155149,0.2825 0.154905,0.4512 2.44e-4,0.1688 -0.06316,0.3429 -0.154955,0.4513 -0.09182,0.1084 -0.217428,0.1649 -0.327857,0.1649 -0.110362,0 -0.235188,-0.056 -0.327043,-0.1649 -0.09182,-0.1084 -0.155977,-0.2825 -0.155728,-0.4513 -2.49e-4,-0.1687 0.06392,-0.3427 0.155728,-0.4512 0.09182,-0.1085 0.216681,-0.165 0.327043,-0.165 z m -0.985635,0.3026 c -0.02503,0.1017 -0.03774,0.2071 -0.03736,0.3136 v 0 c 0,0.2964 0.0974,0.5839 0.284386,0.8045 0.02419,0.028 0.04921,0.055 0.07567,0.08 l -3.102502,0.9915 0.02216,-1.5919 2.757665,-0.599 z"
         id="path13310" />
    </g>
    <path
       style="fill:none;fill-rule:evenodd;stroke:#000080;stroke-width:1;stroke-linecap:butt;stroke-linejoin:miter;stroke-miterlimit:4;stroke-dasharray:1, 1;stroke-dashoffset:0;stroke-opacity:1"
       d="m 46.603088,896.78899 41.668793,11.86928 43.689089,-7.3236 52.2754,22.22328 22.90174,-11.58034"
       id="path13312"
       inkscape:connector-curvature="0"
       sodipodi:nodetypes="ccccc" />
    <text
       inkscape:transform-center-y="-1.4285714"
       inkscape:transform-center-x="1.6071428"
       xml:space="preserve"
       style="font-style:normal;font-variant:normal;font-weight:normal;font-stretch:normal;font-size:13.2502px;line-height:125%;font-family:'Archivo Narrow';-inkscape-font-specification:'Archivo Narrow, Normal';text-align:start;letter-spacing:0px;word-spacing:0px;writing-mode:lr-tb;text-anchor:start;fill:#000000;fill-opacity:1;stroke:none;stroke-width:1px;stroke-linecap:butt;stroke-linejoin:miter;stroke-opacity:1"
       x="358.43991"
       y="843.95856"
       id="text13314"
       transform="rotate(18.688821)"><tspan
         sodipodi:role="line"
         id="tspan13316"
         x="358.43991"
         y="843.95856">1</tspan></text>
    <text
       transform="rotate(-15.902214)"
       id="text13318"
       y="912.44611"
       x="-140.81694"
       style="font-style:normal;font-variant:normal;font-weight:normal;font-stretch:normal;font-size:13.2502px;line-height:125%;font-family:'Archivo Narrow';-inkscape-font-specification:'Archivo Narrow, Normal';text-align:start;letter-spacing:0px;word-spacing:0px;writing-mode:lr-tb;text-anchor:start;fill:#000000;fill-opacity:1;stroke:none;stroke-width:1px;stroke-linecap:butt;stroke-linejoin:miter;stroke-opacity:1"
       xml:space="preserve"><tspan
         y="912.44611"
         x="-140.81694"
         id="tspan13320"
         sodipodi:role="line">2</tspan></text>
    <text
       xml:space="preserve"
       style="font-style:normal;font-variant:normal;font-weight:normal;font-stretch:normal;font-size:13.2502px;line-height:125%;font-family:'Archivo Narrow';-inkscape-font-specification:'Archivo Narrow, Normal';text-align:start;letter-spacing:0px;word-spacing:0px;writing-mode:lr-tb;text-anchor:start;fill:#000000;fill-opacity:1;stroke:none;stroke-width:1px;stroke-linecap:butt;stroke-linejoin:miter;stroke-opacity:1"
       x="489.02902"
       y="798.33362"
       id="text13322"
       transform="rotate(21.911073)"><tspan
         sodipodi:role="line"
         id="tspan13324"
         x="489.02902"
         y="798.33362">1</tspan></text>
    <text
       transform="rotate(-28.930471)"
       id="text13326"
       y="895.99939"
       x="-263.95294"
       style="font-style:normal;font-variant:normal;font-weight:normal;font-stretch:normal;font-size:13.2502px;line-height:125%;font-family:'Archivo Narrow';-inkscape-font-specification:'Archivo Narrow, Normal';text-align:start;letter-spacing:0px;word-spacing:0px;writing-mode:lr-tb;text-anchor:start;fill:#000000;fill-opacity:1;stroke:none;stroke-width:1px;stroke-linecap:butt;stroke-linejoin:miter;stroke-opacity:1"
       xml:space="preserve"><tspan
         y="895.99939"
         x="-263.95294"
         id="tspan13328"
         sodipodi:role="line">1</tspan></text>
    <path
       transform="matrix(2.6274656,0,0,2.6325319,-1026.9086,-1926.2396)"
       sodipodi:type="star"
       style="font-style:normal;font-weight:normal;font-size:medium;line-height:125%;font-family:sans-serif;letter-spacing:0px;word-spacing:0px;fill:#d8c586;fill-opacity:1;stroke:none;stroke-width:0.09605665;stroke-linecap:butt;stroke-linejoin:round;stroke-miterlimit:4;stroke-dasharray:none;stroke-dashoffset:0;stroke-opacity:1"
       id="path13332"
       sodipodi:sides="6"
       sodipodi:cx="407.40814"
       sodipodi:cy="1113.0243"
       sodipodi:r1="11.162703"
       sodipodi:r2="9.6671848"
       sodipodi:arg1="-1.0471976"
       sodipodi:arg2="-0.52359878"
       inkscape:flatsided="true"
       inkscape:rounded="0"
       inkscape:randomized="0"
       d="m 412.98949,1103.3571 5.58135,9.6672 -5.58135,9.6672 -11.1627,0 -5.58135,-9.6672 5.58135,-9.6672 z" />
    <path
       style="fill:#800000;fill-opacity:1;stroke:none;stroke-width:0.99999994;stroke-opacity:1"
       inkscape:connector-curvature="0"
       d="m 44.68262,984.96593 c -2.11347,0 -3.633609,1.11977 -4.511533,2.52593 -0.785092,1.2576 -1.111702,2.7163 -1.175363,3.9938 -2.396035,1.1861 -5.050289,2.3819 -7.187239,3.6043 -1.12107,0.6415 -2.098396,1.2865 -2.834027,1.9797 -0.735631,0.6931 -1.27854,1.47371 -1.27854,2.39451 0,0.3918 0.191177,0.71123 0.406409,0.94543 0.215619,0.2345 0.473742,0.4163 0.767991,0.5862 0.588307,0.3398 1.330029,0.6232 2.145742,0.868 1.212162,0.3641 2.569429,0.6349 3.749624,0.7506 -1.17372,2.0249 -2.736075,3.885 -4.105419,5.6672 -1.582638,2.0595 -2.964347,4.0348 -2.964347,6.229 0,0.3136 -0.0096,0.5582 0.02412,0.8042 0.02901,0.2457 0.09814,0.5528 0.34516,0.7957 0.247016,0.2435 0.54928,0.3087 0.795526,0.3355 0.246335,0.027 0.494409,0.022 0.81262,0.022 l 8.731332,0 c 0.633905,0 1.098078,0.038 1.57549,-0.2687 0.477507,-0.3073 0.651679,-0.7269 0.991823,-1.3539 l 0.0096,-0.022 0.0097,-0.022 c 0,0 0.761036,-1.5492 1.669107,-3.0866 0.454027,-0.7686 0.946994,-1.5342 1.375811,-2.0766 0.214552,-0.2713 0.415104,-0.4862 0.559617,-0.6076 0.0444,-0.036 0.06475,-0.043 0.09274,-0.058 0.02901,0.022 0.04833,0.022 0.09274,0.058 0.14452,0.1218 0.34516,0.3363 0.559617,0.6076 0.428824,0.5424 0.921686,1.308 1.375722,2.0766 0.908064,1.5374 1.669291,3.0866 1.669291,3.0866 l 0.0097,0.022 0.0096,0.022 c 0.340232,0.627 0.512672,1.0442 0.98708,1.3522 0.474126,0.3079 0.937338,0.2702 1.562163,0.2702 l 8.769974,0 c 0.313089,0 0.557301,0 0.801897,-0.024 0.2445,-0.027 0.547837,-0.095 0.792241,-0.3393 0.24421,-0.2449 0.31183,-0.5485 0.338878,-0.7931 0.02805,-0.2448 0.02412,-0.4894 0.02412,-0.8028 0,-2.1944 -1.381709,-4.1697 -2.964348,-6.2295 -1.369439,-1.782 -2.931506,-3.642 -4.105515,-5.6669 1.180292,-0.1152 2.537559,-0.3865 3.749632,-0.7504 0.815809,-0.245 1.557524,-0.5282 2.145734,-0.868 0.294257,-0.1692 0.552573,-0.352 0.767991,-0.5862 0.215426,-0.2344 0.406506,-0.55363 0.406506,-0.94553 0,-0.9208 -0.542908,-1.70131 -1.278532,-2.39441 -0.735631,-0.6934 -1.713054,-1.3384 -2.834036,-1.9797 -2.136942,-1.2224 -4.791196,-2.4184 -7.187327,-3.6043 -0.06379,-1.2775 -0.390375,-2.7364 -1.175363,-3.9938 -0.877924,-1.40614 -2.397966,-2.5257 -4.51154,-2.5257 z"
       id="path13334" />
    <path
       d="m 412.98949,1103.3571 5.58135,9.6672 -5.58135,9.6672 -11.1627,0 -5.58135,-9.6672 5.58135,-9.6672 z"
       inkscape:randomized="0"
       inkscape:rounded="0"
       inkscape:flatsided="true"
       sodipodi:arg2="-0.52359878"
       sodipodi:arg1="-1.0471976"
       sodipodi:r2="9.6671848"
       sodipodi:r1="11.162703"
       sodipodi:cy="1113.0243"
       sodipodi:cx="407.40814"
       sodipodi:sides="6"
       id="path13336"
       style="font-style:normal;font-weight:normal;font-size:medium;line-height:125%;font-family:sans-serif;letter-spacing:0px;word-spacing:0px;fill:#d8c586;fill-opacity:1;stroke:none;stroke-width:0.09605665;stroke-linecap:butt;stroke-linejoin:round;stroke-miterlimit:4;stroke-dasharray:none;stroke-dashoffset:0;stroke-opacity:1"
       sodipodi:type="star"
       transform="matrix(2.6274656,0,0,2.6325319,-982.2188,-1952.3843)" />
    <path
       d="m 412.98949,1103.3571 5.58135,9.6672 -5.58135,9.6672 -11.1627,0 -5.58135,-9.6672 5.58135,-9.6672 z"
       inkscape:randomized="0"
       inkscape:rounded="0"
       inkscape:flatsided="true"
       sodipodi:arg2="-0.52359878"
       sodipodi:arg1="-1.0471976"
       sodipodi:r2="9.6671848"
       sodipodi:r1="11.162703"
       sodipodi:cy="1113.0243"
       sodipodi:cx="407.40814"
       sodipodi:sides="6"
       id="path13394"
       style="font-style:normal;font-weight:normal;font-size:medium;line-height:125%;font-family:sans-serif;letter-spacing:0px;word-spacing:0px;fill:#d8c586;fill-opacity:1;stroke:none;stroke-width:0.09605665;stroke-linecap:butt;stroke-linejoin:round;stroke-miterlimit:4;stroke-dasharray:none;stroke-dashoffset:0;stroke-opacity:1"
       sodipodi:type="star"
       transform="matrix(2.6274656,0,0,2.6325319,-937.37036,-1925.5433)" />
    <path
       id="path13396"
       d="m 134.22087,985.66227 c -2.11347,0 -3.63361,1.11977 -4.51154,2.52593 -0.78509,1.2576 -1.1117,2.7163 -1.17536,3.9938 -2.39604,1.1861 -5.05029,2.3819 -7.18724,3.6043 -1.12107,0.6415 -2.0984,1.2865 -2.83403,1.9797 -0.73563,0.6931 -1.27854,1.47371 -1.27854,2.3945 0,0.3918 0.19118,0.7112 0.40641,0.9454 0.21562,0.2345 0.47374,0.4163 0.76799,0.5862 0.58831,0.3398 1.33003,0.6232 2.14575,0.868 1.21216,0.3641 2.56942,0.6349 3.74962,0.7506 -1.17372,2.0249 -2.73608,3.885 -4.10542,5.6672 -1.58264,2.0595 -2.96435,4.0348 -2.96435,6.229 0,0.3136 -0.01,0.5582 0.0241,0.8042 0.029,0.2457 0.0981,0.5528 0.34516,0.7957 0.24702,0.2435 0.54928,0.3087 0.79553,0.3355 0.24633,0.027 0.49441,0.022 0.81262,0.022 l 8.73133,0 c 0.63391,0 1.09808,0.038 1.57549,-0.2687 0.47751,-0.3073 0.65168,-0.7269 0.99182,-1.3539 l 0.01,-0.022 0.01,-0.022 c 0,0 0.76104,-1.5492 1.66911,-3.0866 0.45403,-0.7686 0.947,-1.5342 1.37581,-2.0766 0.21455,-0.2713 0.41511,-0.4862 0.55962,-0.6076 0.0444,-0.036 0.0648,-0.043 0.0927,-0.058 0.029,0.022 0.0483,0.022 0.0927,0.058 0.14452,0.1218 0.34516,0.3363 0.55962,0.6076 0.42882,0.5424 0.92168,1.308 1.37572,2.0766 0.90806,1.5374 1.66929,3.0866 1.66929,3.0866 l 0.01,0.022 0.01,0.022 c 0.34023,0.627 0.51267,1.0442 0.98708,1.3522 0.47413,0.3079 0.93734,0.2702 1.56216,0.2702 l 8.76998,0 c 0.31309,0 0.5573,0 0.80189,-0.024 0.2445,-0.027 0.54784,-0.095 0.79224,-0.3393 0.24421,-0.2449 0.31183,-0.5485 0.33888,-0.7931 0.028,-0.2448 0.0241,-0.4894 0.0241,-0.8028 0,-2.1944 -1.38171,-4.1697 -2.96435,-6.2295 -1.36943,-1.782 -2.9315,-3.642 -4.10551,-5.6669 1.18029,-0.1152 2.53756,-0.3865 3.74963,-0.7504 0.81581,-0.245 1.55753,-0.5282 2.14574,-0.868 0.29425,-0.1692 0.55257,-0.352 0.76799,-0.5862 0.21542,-0.2344 0.4065,-0.5536 0.4065,-0.9455 0,-0.92079 -0.54291,-1.7013 -1.27853,-2.3944 -0.73563,-0.6934 -1.71305,-1.3384 -2.83404,-1.9797 -2.13694,-1.2224 -4.79119,-2.4184 -7.18732,-3.6043 -0.0638,-1.2775 -0.39038,-2.7364 -1.17537,-3.9938 -0.87792,-1.40614 -2.39796,-2.5257 -4.51154,-2.5257 z"
       inkscape:connector-curvature="0"
       style="fill:#008000;fill-opacity:1;stroke:none;stroke-width:0.99999994;stroke-opacity:1" />
    <path
       transform="matrix(2.6274656,0,0,2.6325319,-936.50451,-1977.7414)"
       sodipodi:type="star"
       style="font-style:normal;font-weight:normal;font-size:medium;line-height:125%;font-family:sans-serif;letter-spacing:0px;word-spacing:0px;fill:#d8c586;fill-opacity:1;stroke:none;stroke-width:0.09605665;stroke-linecap:butt;stroke-linejoin:round;stroke-miterlimit:4;stroke-dasharray:none;stroke-dashoffset:0;stroke-opacity:1"
       id="path13469"
       sodipodi:sides="6"
       sodipodi:cx="407.40814"
       sodipodi:cy="1113.0243"
       sodipodi:r1="11.162703"
       sodipodi:r2="9.6671848"
       sodipodi:arg1="-1.0471976"
       sodipodi:arg2="-0.52359878"
       inkscape:flatsided="true"
       inkscape:rounded="0"
       inkscape:randomized="0"
       d="m 412.98949,1103.3571 5.58135,9.6672 -5.58135,9.6672 -11.1627,0 -5.58135,-9.6672 5.58135,-9.6672 z" />
    <g
       style="stroke-width:1.61594"
       transform="matrix(0.61883424,0,0,0.61883424,34.968133,319.54328)"
       id="g134">
      <circle
         r="19.196428"
         cy="1064.2372"
         cx="86.696419"
         id="circle118"
         style="font-variation-settings:normal;vector-effect:none;fill:#000000;fill-opacity:1;stroke:none;stroke-width:1.05715px;stroke-linecap:butt;stroke-linejoin:miter;stroke-miterlimit:4;stroke-dasharray:none;stroke-dashoffset:0;stroke-opacity:1;paint-order:markers fill stroke;stop-color:#000000" />
      <g
         style="stroke-width:1.61594"
         id="g116">
        <circle
           r="19.196428"
           cy="1062.8086"
           cx="85.446434"
           id="path81"
           style="font-variation-settings:normal;opacity:1;vector-effect:none;fill:#42290d;fill-opacity:1;stroke:none;stroke-width:1.05715px;stroke-linecap:butt;stroke-linejoin:miter;stroke-miterlimit:4;stroke-dasharray:none;stroke-dashoffset:0;stroke-opacity:1;paint-order:markers fill stroke;stop-color:#000000;stop-opacity:1" />
        <g
           transform="matrix(0.65419828,0,0,0.65419828,63.468536,396.13558)"
           style="font-style:normal;font-weight:normal;font-size:48.9798px;line-height:125%;font-family:sans-serif;font-variation-settings:normal;letter-spacing:0px;word-spacing:0px;opacity:1;vector-effect:none;fill:#d8c586;fill-opacity:1;stroke:none;stroke-width:0.62402;stroke-linecap:butt;stroke-linejoin:round;stroke-miterlimit:4;stroke-dasharray:none;stroke-dashoffset:0;stroke-opacity:1;stop-color:#000000;stop-opacity:1"
           id="g79">
          <path
             inkscape:connector-curvature="0"
             d="m 44.955218,1014.453 q 0.669646,0 1.291459,0.2631 0.621814,0.263 1.076216,0.7174 0.478318,0.4305 0.741393,1.0284 0.286991,0.574 0.286991,1.2197 v 18.0087 q 0,0.6936 -0.263075,1.2915 -0.239159,0.5979 -0.693561,1.0523 -0.454402,0.4783 -1.0523,0.7414 -0.597898,0.263 -1.267543,0.263 H 22.187276 q -0.693561,0 -1.315374,-0.263 -0.597898,-0.2631 -1.0523,-0.7414 -0.454402,-0.4544 -0.717477,-1.0523 -0.263075,-0.5979 -0.263075,-1.2915 v -18.0087 q 0,-0.6457 0.263075,-1.2197 0.28699,-0.5979 0.741393,-1.0284 0.478318,-0.4544 1.076215,-0.7174 0.597898,-0.2631 1.267543,-0.2631 v -3.8744 q 0,-2.4394 0.406571,-4.544 0.40657,-2.1046 1.626281,-3.6352 1.243627,-1.5546 3.467807,-2.41555 2.248095,-0.88489 5.907228,-0.88489 3.68305,0 5.907229,0.88489 2.248095,0.86095 3.44389,2.41555 1.219712,1.5306 1.602366,3.6352 0.40657,2.1046 0.40657,4.544 z m -17.889097,-3.8744 v 3.7548 h 13.058085 v -3.7548 q 0,-1.8176 -0.143496,-3.0612 -0.143495,-1.2676 -0.789225,-2.0329 -0.621813,-0.7653 -1.937188,-1.1001 -1.315375,-0.3348 -3.659134,-0.3348 -2.319842,0 -3.635217,0.3348 -1.291459,0.3348 -1.937189,1.1001 -0.645729,0.7653 -0.81314,2.0329 -0.143496,1.2436 -0.143496,3.0612 z"
             id="path77"
             style="font-variation-settings:normal;vector-effect:none;fill:#d8c586;fill-opacity:1;stroke:none;stroke-width:0.62402;stroke-linecap:butt;stroke-linejoin:round;stroke-miterlimit:4;stroke-dasharray:none;stroke-dashoffset:0;stroke-opacity:1;stop-color:#000000;stop-opacity:1" />
        </g>
      </g>
    </g>
    <g
       transform="translate(1.9642899,-131.07136)"
       id="g175">
      <circle
         style="font-variation-settings:normal;vector-effect:none;fill:#000000;fill-opacity:1;stroke:none;stroke-width:0.654201px;stroke-linecap:butt;stroke-linejoin:miter;stroke-miterlimit:4;stroke-dasharray:none;stroke-dashoffset:0;stroke-opacity:1;paint-order:markers fill stroke;stop-color:#000000"
         id="circle136"
         cx="87.368843"
         cy="1057.0582"
         r="11.879407" />
      <circle
         r="11.879407"
         cy="1056.1742"
         cx="86.595314"
         id="circle138"
         style="font-variation-settings:normal;vector-effect:none;fill:#42290d;fill-opacity:1;stroke:none;stroke-width:0.654201px;stroke-linecap:butt;stroke-linejoin:miter;stroke-miterlimit:4;stroke-dasharray:none;stroke-dashoffset:0;stroke-opacity:1;paint-order:markers fill stroke;stop-color:#000000" />
      <path
         id="path13296"
         d="m 86.595319,1048.704 c 0.679059,0 1.129729,0.3389 1.734199,0.6747 0.572888,0.3182 1.293172,0.5911 2.308795,0.3837 0.481992,0.4817 0.97168,0.9637 1.49397,1.2899 0.42736,0.2671 0.907558,0.4262 1.386596,0.3511 -0.137413,1.0811 -0.794095,2.1387 -1.480549,2.6923 -1.810149,-0.5998 -3.624886,-0.8999 -5.439566,-0.8999 -1.816424,0 -3.632805,0.3007 -5.444663,0.9016 -0.687093,-0.5531 -1.34479,-1.6118 -1.482351,-2.694 0.478898,0.075 0.959235,-0.084 1.386595,-0.351 0.522244,-0.3263 1.011884,-0.8082 1.493934,-1.2899 1.015578,0.2074 1.735852,-0.066 2.308796,-0.3838 0.604561,-0.3359 1.055185,-0.6747 1.734244,-0.6747 z m 0.0068,0.6318 c -0.640712,0 -1.719355,0.8657 -1.719355,0.8657 0,0 0.68621,2.5975 1.719355,2.5975 1.033233,0 1.71941,-2.5975 1.71941,-2.5975 0,0 -1.07869,-0.8657 -1.71941,-0.8657 z m 0,4.4399 c 1.707,0 3.414195,0.2789 5.125375,0.8319 0.07061,0.4355 -0.04881,0.7592 -0.305514,1.0585 -0.2864,0.3341 -0.767324,0.6178 -1.3374,0.8313 -1.140144,0.4273 -2.618643,0.5786 -3.482507,0.5786 -0.863762,0 -2.342228,-0.1513 -3.48237,-0.5786 -0.570111,-0.2135 -1.050936,-0.4971 -1.337436,-0.8313 -0.256776,-0.2993 -0.376127,-0.6228 -0.305619,-1.0585 1.711286,-0.553 3.418378,-0.8319 5.125425,-0.8319 z m 5.601487,1.8475 c 0.317588,0.077 0.870927,0.2514 0.970333,0.5495 0.271656,0.8147 -0.547155,2.0628 -1.166368,2.8502 0.170593,-0.7115 0.262555,-1.4683 0.262555,-2.2529 0,-0.3898 -0.02291,-0.7728 -0.06652,-1.1468 z m -11.20292,0 a 9.8910304,9.889863 0 0 0 -0.06652,1.1467 c 0,0.7847 0.0919,1.5415 0.262613,2.2529 -0.619316,-0.7873 -1.438122,-2.0354 -1.166366,-2.8501 0.09927,-0.2981 0.652745,-0.4724 0.970229,-0.5495 z m 10.671973,0.6199 c 0.0102,0.174 0.01554,0.3495 0.01554,0.5268 0,1.9198 -0.586269,3.6523 -1.516699,4.8921 -0.930372,1.2398 -2.189241,1.9823 -3.569264,1.9823 -1.37992,0 -2.638836,-0.7425 -3.569163,-1.9823 -0.930418,-1.2398 -1.516553,-2.9723 -1.516553,-4.8921 0,-0.1773 0.0068,-0.3529 0.01553,-0.5268 0.265139,0.2476 0.589048,0.4485 0.945365,0.6152 -0.138037,0.5886 0.0091,1.3205 0.39121,1.703 0.704125,0.7036 2.283096,0.7036 2.987267,0 0.218087,-0.2181 0.311601,-0.5653 0.299237,-0.914 0.159557,0.011 0.310445,0.011 0.447463,0.011 0.137017,0 0.287951,0 0.447553,-0.011 -0.01258,0.3484 0.08114,0.6959 0.299238,0.914 0.704171,0.7036 2.283107,0.7036 2.987173,0 0.382644,-0.3825 0.529307,-1.1144 0.39121,-1.7027 0.356413,-0.1669 0.680276,-0.3678 0.945357,-0.6155 z m -5.07054,3.8109 c -0.746792,1.1942 -2.240329,1.3436 -2.987075,1.3436 0.746746,0.5971 2.987029,0.5971 2.987029,0 0,0.5971 2.240475,0.5971 2.987221,0 -0.746746,0 -2.240385,-0.1494 -2.987221,-1.3436 z"
         style="font-variation-settings:normal;opacity:1;vector-effect:none;fill:#d8c586;fill-opacity:1;stroke:none;stroke-width:0.252628;stroke-linecap:butt;stroke-linejoin:round;stroke-miterlimit:4;stroke-dasharray:none;stroke-dashoffset:0;stroke-opacity:1;stop-color:#000000;stop-opacity:1"
         inkscape:connector-curvature="0" />
    </g>
    <g
       transform="translate(5.0302435,-146.98209)"
       id="g288">
      <path
         d="m 412.98949,1103.3571 5.58135,9.6672 -5.58135,9.6672 -11.1627,0 -5.58135,-9.6672 5.58135,-9.6672 z"
         inkscape:randomized="0"
         inkscape:rounded="0"
         inkscape:flatsided="true"
         sodipodi:arg2="-0.52359878"
         sodipodi:arg1="-1.0471976"
         sodipodi:r2="9.6671848"
         sodipodi:r1="11.162703"
         sodipodi:cy="1113.0243"
         sodipodi:cx="407.40814"
         sodipodi:sides="6"
         id="path280"
         style="font-style:normal;font-weight:normal;font-size:medium;line-height:125%;font-family:sans-serif;font-variation-settings:normal;letter-spacing:0px;word-spacing:0px;opacity:1;vector-effect:none;fill:#000000;fill-opacity:1;stroke:none;stroke-width:0.473198px;stroke-linecap:butt;stroke-linejoin:miter;stroke-miterlimit:4;stroke-dasharray:none;stroke-dashoffset:0;stroke-opacity:1;stop-color:#000000;stop-opacity:1"
         sodipodi:type="star"
         transform="matrix(2.1112473,0,0,2.1153182,-730.49107,-1254.5344)" />
      <path
         transform="matrix(2.1112473,0,0,2.1153182,-731.95536,-1255.6414)"
         sodipodi:type="star"
         style="font-style:normal;font-weight:normal;font-size:medium;line-height:125%;font-family:sans-serif;font-variation-settings:normal;letter-spacing:0px;word-spacing:0px;opacity:1;vector-effect:none;fill:#42290d;fill-opacity:1;stroke:none;stroke-width:0.473198px;stroke-linecap:butt;stroke-linejoin:miter;stroke-miterlimit:4;stroke-dasharray:none;stroke-dashoffset:0;stroke-opacity:1;stop-color:#000000;stop-opacity:1"
         id="path244"
         sodipodi:sides="6"
         sodipodi:cx="407.40814"
         sodipodi:cy="1113.0243"
         sodipodi:r1="11.162703"
         sodipodi:r2="9.6671848"
         sodipodi:arg1="-1.0471976"
         sodipodi:arg2="-0.52359878"
         inkscape:flatsided="true"
         inkscape:rounded="0"
         inkscape:randomized="0"
         d="m 412.98949,1103.3571 5.58135,9.6672 -5.58135,9.6672 -11.1627,0 -5.58135,-9.6672 5.58135,-9.6672 z" />
      <g
         id="g242"
         transform="matrix(0.79438563,0,0,0.79438563,21.842551,342.24901)"
         style="font-variation-settings:normal;opacity:1;vector-effect:none;fill:#d8c586;fill-opacity:1;stroke:none;stroke-width:0.318018;stroke-linecap:butt;stroke-linejoin:round;stroke-miterlimit:4;stroke-dasharray:none;stroke-dashoffset:0;stroke-opacity:1;stop-color:#000000;stop-opacity:1">
        <path
           inkscape:connector-curvature="0"
           id="path9375"
           d="m 132.52392,932.14392 c -0.52306,0.0136 -1.32762,0.23719 -1.24313,0.56205 0.27268,0.29021 0.4384,0.70437 0.63246,1.07654 0.43277,0.82983 0.76555,1.76405 1.0322,2.87117 0.24591,0.1729 0.33449,0.14721 0.69541,0.0666 0.24096,-0.0544 0.44879,-0.0856 0.52492,-0.27307 0.1082,-0.30556 0.18073,-0.60515 0.26582,-0.91329 0.0943,-0.34185 0.20433,-0.69295 0.39589,-1.04514 0.39508,-0.72652 0.7986,-1.32922 1.01538,-1.89712 0.0799,-0.23407 -0.54216,-0.33152 -0.79308,-0.33261 -0.5372,0 -1.22072,0.0163 -2.223,-0.0897 -0.0763,-0.0204 -0.18217,-0.0285 -0.30287,-0.0245 z m -1.86181,0.32282 c -0.0609,0 -0.12152,0 -0.17593,0.034 -0.72619,0.39364 -1.43844,0.0951 -1.97842,0.60324 -0.18016,0.1695 -0.22871,0.45073 -0.057,0.62879 1.04468,1.08333 1.10907,1.43525 2.04993,3.18339 0.68924,0.48594 1.45668,0.11418 1.66932,0.0231 0.22633,-0.0992 0.39213,-0.30692 0.32075,-0.5437 -0.13849,-1.53013 -0.76731,-2.28098 -1.46075,-3.57418 -0.003,-0.18554 -0.18535,-0.33941 -0.36793,-0.35504 z m 5.64996,0.17154 c -0.18256,0.0163 -0.36465,0.16977 -0.3679,0.35518 -0.69344,1.29334 -1.32226,2.04406 -1.46075,3.57418 -0.0714,0.23692 0.0943,0.44407 0.32075,0.54384 1.14601,0.50524 0.75578,0.15319 1.26307,0.23502 0.24422,0.0394 0.41779,-0.0408 0.53502,-0.25826 0.94084,-1.74829 1.00523,-2.1002 2.04993,-3.18353 0.17172,-0.17807 0.12315,-0.45957 -0.057,-0.62907 -0.53997,-0.50796 -1.38101,-0.20933 -2.10717,-0.60283 -0.0542,-0.0299 -0.11513,-0.0394 -0.17592,-0.034 z m -8.66061,0.81325 c -0.0609,0 -0.1192,0.0258 -0.16762,0.0639 -0.64772,0.51258 -1.52758,0.36279 -1.97221,0.95611 -0.14834,0.19791 -0.15235,0.48961 0.0519,0.62934 1.26008,0.86204 1.56897,1.09203 2.56681,2.78363 0.7625,0.36021 1.58137,-0.16012 1.77528,-0.28571 0.20582,-0.13729 0.3336,-0.37 0.22256,-0.59101 -0.39942,-1.4835 -1.14787,-2.11515 -2.05329,-3.26998 -0.0351,-0.18214 -0.24083,-0.30257 -0.42335,-0.28667 z m 11.63264,0.30678 c -0.18274,-0.0136 -0.38676,0.11011 -0.41921,0.29279 -0.8884,1.16801 -1.62769,1.8104 -2.00535,3.29961 -0.10779,0.22265 0.0232,0.45331 0.23112,0.58761 0.19573,0.12233 1.02227,0.6311 1.77942,0.25989 1.20436,-1.57838 1.32338,-1.91574 2.52561,-2.82101 0.19762,-0.14884 0.19399,-0.43415 0.0427,-0.62989 -0.45325,-0.58679 -1.33076,-0.42436 -1.98593,-0.92728 -0.0489,-0.0381 -0.10751,-0.0571 -0.16841,-0.0612 z m -14.42046,1.15823 c -0.0934,0 -0.18366,0.0381 -0.24484,0.10738 -0.54466,0.62092 -1.43666,0.63247 -1.76699,1.2962 -0.11023,0.22142 -0.0601,0.50551 0.16426,0.60963 1.38124,0.64102 1.93128,0.79911 3.14069,2.25229 0.81496,0.21667 1.41263,-0.42028 1.58072,-0.57877 0.17769,-0.17208 0.26128,-0.42395 0.11214,-0.62132 -0.66044,-1.38713 -1.51043,-1.87333 -2.6093,-2.84589 -0.0561,-0.14408 -0.22104,-0.22455 -0.37672,-0.21925 z m 17.17278,0.41213 c -0.15565,0 -0.32083,0.0748 -0.37698,0.21898 -1.09886,0.97255 -1.94884,1.45876 -2.6093,2.84589 -0.14908,0.19736 -0.0655,0.44937 0.11214,0.62159 0.16809,0.15849 0.87976,0.818 1.6947,0.6012 1.48867,-1.31346 1.67118,-1.87837 3.0267,-2.53231 0.22281,-0.10738 0.27474,-0.38847 0.16454,-0.6099 -0.33031,-0.66373 -1.2226,-0.41743 -1.76727,-1.03834 -0.0613,-0.0693 -0.15118,-0.1033 -0.24459,-0.10738 z m -19.55174,1.5955 c -0.15574,-0.0136 -0.32284,0.0639 -0.38242,0.20648 -0.31823,0.76227 -0.98464,0.99865 -1.26333,1.68562 -0.093,0.2293 -0.0215,0.51013 0.21064,0.59549 0.424,0.15577 2.40353,0.9421 2.79533,1.157 0.41047,0.22523 0.26472,0.25622 0.95915,0.54357 0.22507,0.0938 0.42519,0.0829 0.5498,-0.0299 0.42376,-0.38413 0.73162,-0.74991 0.9708,-1.10726 0.1135,-0.21979 -0.0852,-0.40791 -0.28939,-0.54751 -1.06827,-1.10399 -1.95674,-1.81787 -3.30834,-2.38931 -0.0595,-0.0707 -0.1488,-0.10874 -0.24224,-0.11418 z m 22.49631,0.0245 c -0.0934,0 -0.18276,0.0435 -0.24226,0.11418 -1.35164,0.57143 -2.5149,1.56016 -3.58321,2.66429 -0.42781,0.31358 0.50676,1.80388 1.3224,1.7351 1.17728,-0.8301 2.46911,-1.35043 4.02937,-1.92404 0.23219,-0.0856 0.30337,-0.36618 0.21039,-0.59536 -0.27871,-0.6871 -1.03603,-1.0261 -1.35428,-1.78824 -0.0595,-0.14272 -0.22667,-0.2168 -0.38241,-0.2062 z m -12.11171,0.56409 c -0.63393,0.0381 -1.24666,0.12506 -1.83124,0.26085 v 2.09503 h -1.95484 v -1.42546 c -0.67035,0.31086 -1.28485,0.68887 -1.83099,1.12384 v 0.30162 h -0.35548 c -0.60855,0.54275 -1.11999,1.15931 -1.51438,1.83106 h 1.86986 v 1.97215 h -2.64662 c -0.0165,0.0748 -0.0333,0.14993 -0.0472,0.22564 l -0.2907,1.60556 h 2.98446 v 2.39502 l 0.91537,2.8728 0.91562,-2.8728 v -2.39502 h 1.95484 v 2.39502 l 0.91563,2.8728 0.91561,-2.8728 v -2.39502 h 1.95511 v 2.39502 l 0.91564,2.8728 0.9151,-2.8728 v -2.39502 h 1.95509 v 2.39502 l 0.91563,2.8728 0.91564,-2.8728 v -2.39502 h 2.95101 l -0.32126,-1.29646 c 0,-0.17317 -0.0245,-0.35191 -0.0701,-0.53474 h -2.55956 v -1.97215 h 1.39727 c -0.81747,-0.92647 -1.96813,-1.83487 -3.22851,-2.56901 v 0.73795 h -1.95511 v -1.6931 c -0.61967,-0.24548 -1.23718,-0.43265 -1.83073,-0.54928 v 2.24238 h -1.9551 v -2.35588 z m 14.36424,2.04964 c -0.0613,0 -0.12071,0.019 -0.17126,0.0557 -1.26234,0.45059 -2.5959,1.16448 -4.15063,1.6462 -0.2334,0.0815 -0.30306,0.33805 -0.25028,0.57959 0.26734,1.22361 0.62235,1.08496 0.69332,1.57633 0.0353,0.24481 0.3772,0.39283 0.57959,0.25052 1.17629,-0.8263 2.33142,-1.49913 4.15063,-1.64593 0.24656,-0.0204 0.32775,-0.34485 0.25055,-0.57987 -0.23141,-0.70437 -0.58349,-0.75765 -0.6936,-1.57633 -0.0247,-0.18377 -0.22457,-0.31277 -0.40832,-0.3057 z m -27.01821,0.0245 c -0.18376,0 -0.38386,0.12234 -0.40859,0.30597 -0.1101,0.81855 -0.43912,0.78103 -0.67052,1.4854 -0.0772,0.23502 0.0122,0.51014 0.25027,0.57959 1.59562,0.46637 2.97671,0.78389 4.20764,1.5323 0.21137,0.12913 0.54423,0 0.57957,-0.25065 0.071,-0.49137 0.34645,-0.14775 0.61379,-1.37136 0.0527,-0.24167 -0.017,-0.49789 -0.25054,-0.57972 -1.31768,-0.79001 -2.69688,-1.44395 -4.15036,-1.64607 -0.0504,-0.0353 -0.10996,-0.053 -0.17126,-0.0557 z m 8.86789,2.11311 h 1.95484 v 1.97229 h -1.95484 z m 3.78608,0 h 1.95511 v 1.97229 h -1.95511 z m 3.78584,0 h 1.9551 v 1.97229 h -1.9551 z m 11.76737,0.44435 c -0.0614,8.1e-4 -0.12138,0.0163 -0.17282,0.0516 -1.4581,0.16542 -2.85358,0.78443 -4.19079,1.54086 -0.2354,0.0761 -0.28875,0.3269 -0.26479,0.57306 0.0676,0.69336 0.01,1.0359 -0.0738,1.52537 -0.0416,0.24371 0.18843,0.23474 0.42907,0.17738 1.40133,-0.3337 2.83947,-0.0979 4.50117,-0.0516 0.24728,0 0.41743,-0.22727 0.41638,-0.47466 -0.004,-0.74134 -0.15441,-2.20431 -0.24382,-3.02531 -0.0201,-0.18445 -0.21667,-0.31847 -0.40055,-0.31616 z m -29.58866,0.14231 c -0.18363,0.0136 -0.37101,0.15604 -0.37904,0.34145 -0.0359,0.8252 -0.0913,2.1127 -0.0466,2.85282 0.0148,0.24697 0.20036,0.46949 0.44665,0.44638 1.65515,-0.15469 3.04483,-0.24181 4.4649,0 0.24387,0.0421 0.50406,-0.20579 0.44669,-0.44638 -0.11527,-0.48295 -0.19532,-0.63886 -0.17309,-1.33507 0.008,-0.24725 -0.0619,-0.49423 -0.30183,-0.55472 -1.3836,-0.6678 -2.81646,-1.19479 -4.28223,-1.26493 -0.0537,-0.0313 -0.11418,-0.0435 -0.17543,-0.0394 z m 2.33285,3.75605 c -0.75018,-0.0136 -1.48102,0.0394 -2.17453,0.17534 -0.24057,-0.0571 -0.39308,0.20498 -0.44669,0.44639 -0.16774,0.75561 -0.16901,1.40914 0,2.16476 0.0541,0.2414 0.20126,0.47737 0.44669,0.44638 1.65798,-0.20946 3.01239,-0.15999 4.46489,0 0.24589,0.0272 0.50407,-0.20579 0.44666,-0.44638 -0.11512,-0.48295 0.20259,-0.92879 0,-2.16476 -0.0401,-0.24413 -0.19948,-0.45631 -0.44666,-0.44639 -0.77087,-0.0992 -1.5402,-0.16623 -2.29036,-0.17534 z m 25.24993,0 c -0.75017,0.0136 -1.51976,0.0761 -2.29063,0.17534 -0.24715,-0.0136 -0.40639,0.20226 -0.44641,0.44639 -0.20255,1.23597 0.11513,1.78403 0,2.26711 -0.0574,0.24059 0.19987,0.4665 0.44641,0.44638 1.46846,-0.11961 2.82155,-0.29863 4.46518,0 0.24338,0.0435 0.39242,-0.20497 0.44641,-0.44638 0.169,-0.75561 0.16775,-1.5115 0,-2.26711 -0.0537,-0.24141 -0.20585,-0.50402 -0.44641,-0.44639 -0.69352,-0.13592 -1.42437,-0.18458 -2.17455,-0.17534 z m -0.0245,3.35126 c -0.75015,0.0136 -1.51974,0.0775 -2.29061,0.17562 -0.24716,-0.0136 -0.35871,0.21517 -0.4464,0.44652 -0.43366,1.14341 0.04,1.60189 0,2.11487 -0.0192,0.24671 0.19981,0.42708 0.4464,0.44638 1.49177,0.11826 2.86214,0.30326 4.46517,0 0.24305,-0.0462 0.3924,-0.20497 0.44642,-0.44638 0.169,-0.75561 0.16773,-1.35926 0,-2.11487 -0.0537,-0.24154 -0.20586,-0.50415 -0.44642,-0.44652 -0.69351,-0.13593 -1.42439,-0.18473 -2.17456,-0.17562 z m -25.15588,0.0571 c -0.75009,-0.0136 -1.49585,0.0217 -2.21986,0.11826 -0.24055,-0.0571 -0.39307,0.20497 -0.44668,0.44638 -0.16775,0.75561 -0.16901,1.5115 0,2.26711 0.054,0.24141 0.20016,0.42572 0.44668,0.44638 1.60314,0.13457 2.97318,0.0911 4.46489,0 0.24691,-0.0149 0.46589,-0.19981 0.44668,-0.44638 -0.04,-0.51312 0.43363,-1.12356 0,-2.26711 -0.0877,-0.23121 -0.19951,-0.45631 -0.44668,-0.44638 -0.74066,-0.0612 -1.49492,-0.1101 -2.24503,-0.11826 z m 27.41982,3.34148 c -0.0294,0 -0.0594,1.3e-4 -0.0894,0.0136 -1.58356,0.3795 -2.95048,0.0612 -4.46516,0 -0.24717,-0.0136 -0.46116,0.19981 -0.44641,0.44665 0.0681,1.14355 0.12465,1.75372 0,2.26684 -0.0583,0.24032 0.19915,0.43973 0.44641,0.44639 1.32437,0.0353 2.77525,0.20266 4.46516,0 0.24561,-0.0299 0.40293,-0.20281 0.44643,-0.44639 0.13497,-0.75561 -0.0886,-1.51122 0,-2.26684 0.0251,-0.2149 -0.15134,-0.43972 -0.35703,-0.45386 z m -29.72934,0.1366 c -0.20568,0.0136 -0.38221,0.23896 -0.35702,0.45386 0.0886,0.75561 -0.13498,1.37462 0,2.13024 0.0435,0.24358 0.19955,0.43537 0.44668,0.44651 1.68992,0.0761 3.14053,-0.22183 4.46489,0 0.24397,0.0408 0.50505,-0.20606 0.44668,-0.44651 -0.12464,-0.51299 -0.0681,-0.98669 0,-2.13024 0.0147,-0.24684 -0.19951,-0.45658 -0.44668,-0.44665 -1.51468,0.0612 -2.88131,0.3795 -4.46489,0 -0.03,-0.0136 -0.0602,-0.0136 -0.0896,-0.0136 z m 3.42181,3.15104 c -1.10959,0 -2.16718,0.17426 -3.33215,0.0707 -0.24642,-0.0217 -0.41063,0.20198 -0.44668,0.44665 -0.11133,0.75561 -0.32368,1.51123 0,2.26684 0.0973,0.22741 0.1994,0.37393 0.44668,0.36687 1.68992,-0.0476 3.52482,-0.19859 4.57863,0.0231 0.24209,0.0503 0.44175,-0.1994 0.44667,-0.44665 0.0109,-0.51312 0.12206,-1.06634 -0.11377,-2.20989 -0.05,-0.24222 -0.20166,-0.41267 -0.44668,-0.44665 -0.38727,-0.0544 -0.76287,-0.072 -1.13274,-0.072 z m 21.75298,0.0707 c -0.24693,-0.015 -0.39645,0.20443 -0.4464,0.44665 -0.23584,1.14355 -0.0109,1.75372 0,2.26684 0.005,0.24725 0.19964,0.46378 0.4464,0.44638 1.32437,-0.0938 2.77525,-0.0476 4.46517,0 0.24726,0 0.34902,-0.21897 0.44642,-0.44638 0.32367,-0.75561 0.11132,-1.51123 0,-2.26684 -0.0362,-0.24467 -0.20082,-0.47615 -0.44642,-0.44665 -1.5533,0.18621 -2.91607,0.0924 -4.46517,0 z m -21.75298,3.19182 c -1.10959,0 -2.16718,0.17412 -3.33215,0.0707 -0.24642,-0.0217 -0.41063,0.20158 -0.44668,0.44638 -0.11133,0.75561 -0.32368,1.37489 0,2.13051 0.0973,0.2274 0.20231,0.40791 0.44668,0.44638 1.68992,0.26574 3.14053,0.0326 4.46489,0 0.24729,-0.0136 0.44175,-0.19913 0.44668,-0.44638 0.0109,-0.51312 0.23582,-0.98696 0,-2.13051 -0.05,-0.24222 -0.20166,-0.4124 -0.44668,-0.44638 -0.38727,-0.053 -0.76287,-0.072 -1.13274,-0.0707 z m 21.75298,0.0707 c -0.24655,-0.0204 -0.39645,0.20416 -0.4464,0.44638 -0.23584,1.14355 -0.0109,1.75399 0,2.26698 0.005,0.24738 0.19911,0.44026 0.4464,0.44652 1.32437,0.0326 2.77525,0.26573 4.46517,0 0.24437,-0.0381 0.34902,-0.21912 0.44642,-0.44652 0.32367,-0.75562 0.11132,-1.51137 0,-2.26698 -0.0362,-0.2448 -0.20067,-0.47465 -0.44642,-0.44638 -0.77224,0.0883 -1.45666,0.0408 -2.18233,0.034 -0.73669,0 -1.51462,0.0285 -2.28284,-0.034 z m -25.17297,3.25951 c -0.19557,0.0204 -0.32729,0.2357 -0.35884,0.44978 -0.11133,0.75575 -0.32368,1.5115 0,2.26711 0.0973,0.22741 0.2056,0.39093 0.44668,0.44639 1.29459,0.29781 2.83853,0.0272 4.46489,0 0.24735,0 0.44175,-0.19914 0.44668,-0.44639 0.0109,-0.51312 0.23582,-1.12356 0,-2.26711 -0.05,-0.24222 -0.20091,-0.47438 -0.44668,-0.44638 -1.42327,0.1627 -2.86146,0.28762 -4.46489,0 -0.0304,-0.0136 -0.0599,-0.0136 -0.0878,0 z m 29.7257,0.0911 c -0.028,0 -0.0571,0 -0.0875,0 -1.60342,0.28776 -3.04188,0.1627 -4.46516,0 -0.24578,-0.0285 -0.39646,0.20443 -0.44642,0.44665 -0.23583,1.14355 -0.0109,1.75372 0,2.26685 0.005,0.24738 0.20153,0.48131 0.44642,0.44638 1.48836,-0.21191 2.9768,-0.0381 4.46516,0 0.2473,0 0.34903,-0.21898 0.44642,-0.44638 0.32367,-0.75562 0.11132,-1.5111 0,-2.26685 -0.0315,-0.21408 -0.16328,-0.42884 -0.35885,-0.44991 z m -32.38216,3.13582 c -0.35969,0 -0.64384,0.34974 -0.64384,0.72204 v 0.62703 c 0,0.39717 0.32104,0.68235 0.71666,0.71687 2.29322,0.20049 4.54393,0.367 6.76639,0.40343 6.58214,0.12777 14.60215,0.0992 22.12452,-0.0285 2.35242,-0.0489 3.76166,-0.3246 6.15185,-0.37434 0.397,-0.0136 0.71663,-0.31984 0.71663,-0.71688 v -0.62703 c 0,-0.39717 -0.32039,-0.74311 -0.71663,-0.71687 -1.49798,0.0992 -2.99994,0.28653 -4.50818,0.24738 -5.95922,-0.15482 -12.23445,0.47656 -18.61177,-0.0408 -3.90322,-0.31671 -7.8382,0.35449 -11.92281,-0.20648 -0.0246,0 -0.0489,0 -0.0729,0 z"
           style="font-variation-settings:normal;vector-effect:none;fill:#d8c586;fill-opacity:1;stroke:none;stroke-width:0.318018;stroke-linecap:butt;stroke-linejoin:round;stroke-miterlimit:4;stroke-dasharray:none;stroke-dashoffset:0;stroke-opacity:1;stop-color:#000000;stop-opacity:1" />
        <text
           id="text13502"
           y="963.96466"
           x="127.00163"
           style="font-style:normal;font-weight:normal;font-size:17.048px;line-height:125%;font-family:sans-serif;font-variation-settings:normal;letter-spacing:0px;word-spacing:0px;vector-effect:none;fill:#d8c586;fill-opacity:1;stroke:none;stroke-width:0.318018;stroke-linecap:butt;stroke-linejoin:round;stroke-miterlimit:4;stroke-dasharray:none;stroke-dashoffset:0;stroke-opacity:1;stop-color:#000000;stop-opacity:1"
           xml:space="preserve"><tspan
             style="font-style:normal;font-variant:normal;font-weight:normal;font-stretch:normal;font-family:'Archivo Black';-inkscape-font-specification:'Archivo Black, ';font-variation-settings:normal;vector-effect:none;fill:#d8c586;fill-opacity:1;stroke:none;stroke-width:0.318018;stroke-linecap:butt;stroke-linejoin:round;stroke-miterlimit:4;stroke-dasharray:none;stroke-dashoffset:0;stroke-opacity:1;stop-color:#000000;stop-opacity:1"
             y="963.96466"
             x="127.00163"
             id="tspan13504"
             sodipodi:role="line">D</tspan></text>
      </g>
    </g>
    <text
       id="text296"
       y="1026.8167"
       x="118.63624"
       style="font-style:normal;font-variant:normal;font-weight:normal;font-stretch:normal;font-size:12.318px;line-height:1.25;font-family:'Archivo Narrow';-inkscape-font-specification:'Archivo Narrow';letter-spacing:0px;word-spacing:0px;stroke-width:0.999998"
       xml:space="preserve"><tspan
         style="stroke-width:0.999998"
         y="1026.8167"
         x="118.63624"
         id="tspan294"
         sodipodi:role="line">busted</tspan></text>
    <text
       xml:space="preserve"
       style="font-style:normal;font-variant:normal;font-weight:normal;font-stretch:normal;font-size:12.318px;line-height:1.25;font-family:'Archivo Narrow';-inkscape-font-specification:'Archivo Narrow';letter-spacing:0px;word-spacing:0px;stroke-width:0.999998"
       x="28.732662"
       y="1026.8167"
       id="text300"><tspan
         sodipodi:role="line"
         id="tspan298"
         x="28.732662"
         y="1026.8167"
         style="stroke-width:0.999998">busted</tspan></text>
  </g>
</svg>
