<?xml version="1.0" encoding="UTF-8" standalone="no"?>
<!-- Created with Inkscape (http://www.inkscape.org/) -->

<svg
   xmlns:dc="http://purl.org/dc/elements/1.1/"
   xmlns:cc="http://creativecommons.org/ns#"
   xmlns:rdf="http://www.w3.org/1999/02/22-rdf-syntax-ns#"
   xmlns:svg="http://www.w3.org/2000/svg"
   xmlns="http://www.w3.org/2000/svg"
   xmlns:sodipodi="http://sodipodi.sourceforge.net/DTD/sodipodi-0.dtd"
   xmlns:inkscape="http://www.inkscape.org/namespaces/inkscape"
   width="75"
   height="75"
   viewBox="0 0 75.000001 75.000001"
   id="svg5199"
   version="1.1"
   inkscape:version="0.91 r13725"
   sodipodi:docname="figure_alerts_adj_camera.svg">
  <defs
     id="defs5201" />
  <sodipodi:namedview
     id="base"
     pagecolor="#ffffff"
     bordercolor="#666666"
     borderopacity="1.0"
     inkscape:pageopacity="0.0"
     inkscape:pageshadow="2"
     inkscape:zoom="1.979899"
     inkscape:cx="31.825589"
     inkscape:cy="-32.261588"
     inkscape:document-units="px"
     inkscape:current-layer="layer1"
     showgrid="false"
     units="px"
     borderlayer="true"
     inkscape:window-width="1920"
     inkscape:window-height="1017"
     inkscape:window-x="-8"
     inkscape:window-y="-8"
     inkscape:window-maximized="1" />
  <metadata
     id="metadata5204">
    <rdf:RDF>
      <cc:Work
         rdf:about="">
        <dc:format>image/svg+xml</dc:format>
        <dc:type
           rdf:resource="http://purl.org/dc/dcmitype/StillImage" />
        <dc:title />
      </cc:Work>
    </rdf:RDF>
  </metadata>
  <g
     inkscape:label="Layer 1"
     inkscape:groupmode="layer"
     id="layer1"
     transform="translate(0,-977.36216)">
    <rect
       ry="5.2912221"
       y="977.36218"
       x="6.3343717e-009"
       height="75"
       width="75"
       id="rect5149"
       style="fill:#42290d;fill-opacity:1;stroke:none;stroke-width:1.74198794;stroke-miterlimit:4;stroke-dasharray:none;stroke-opacity:1" />
    <g
       id="g5246"
       transform="matrix(0.25205377,0,0,0.25205376,141.56696,810.26329)"
       style="fill:#42290d;fill-opacity:1">
      <path
         id="path5238"
         d="m -361.34368,894.60352 c -1.5875,0 -2.72928,0.83893 -3.38869,1.89253 -0.58973,0.9421 -0.83508,2.03513 -0.88294,2.9924 -1.79963,0.88864 -3.79332,1.78454 -5.39841,2.70058 -0.84204,0.4806 -1.57611,0.96388 -2.12868,1.48324 -0.55257,0.51934 -0.96029,1.10419 -0.96029,1.79411 0,0.29359 0.1436,0.53281 0.3051,0.70834 0.16225,0.17616 0.35598,0.31224 0.57695,0.43936 0.44187,0.2546 0.99893,0.46672 1.61176,0.65031 0.91035,0.27285 1.92989,0.47562 2.81637,0.56227 -0.88172,1.51742 -2.05515,2.9109 -3.08373,4.24619 -1.18873,1.54333 -2.22649,3.02327 -2.22649,4.66753 0,0.23488 -0.003,0.41821 0.0179,0.60247 0.0215,0.1844 0.0737,0.41405 0.25928,0.59623 0.18549,0.18226 0.41257,0.2313 0.59754,0.25136 0.18478,0.0215 0.37132,0.0215 0.61036,0.0215 l 6.55832,0 c 0.47611,0 0.82468,0.0287 1.18328,-0.20123 0.35869,-0.23022 0.48947,-0.54463 0.74496,-1.01448 l 0.003,0 0.003,-0.0215 c 0,0 0.57168,-1.16076 1.25378,-2.31284 0.3409,-0.57568 0.71126,-1.14934 1.03331,-1.55574 0.16119,-0.20301 0.31191,-0.36436 0.42042,-0.45533 0.0322,-0.0285 0.0484,-0.0322 0.0695,-0.0456 0.0215,0.0215 0.0361,0.0215 0.0695,0.0456 0.1084,0.0913 0.25928,0.25206 0.42038,0.45533 0.32195,0.4064 0.69227,0.98006 1.03334,1.55574 0.68203,1.15208 1.25374,2.31284 1.25374,2.31284 l 0.003,0.0215 0.003,0 c 0.25569,0.46985 0.38513,0.78236 0.74147,1.01324 0.3563,0.23059 0.70403,0.20302 1.17339,0.20302 l 6.58723,0 c 0.2353,0 0.41862,0 0.60231,-0.0215 0.18371,-0.0215 0.41151,-0.0705 0.59507,-0.25458 0.18334,-0.1844 0.2342,-0.41076 0.25461,-0.59416 0.0215,-0.18225 0.0179,-0.36663 0.0179,-0.60161 0,-1.64405 -1.03778,-3.12399 -2.22649,-4.66735 -1.02852,-1.33527 -2.20195,-2.72877 -3.08372,-4.24619 0.88648,-0.0871 1.90603,-0.28967 2.81637,-0.56225 0.61282,-0.18441 1.16988,-0.39584 1.61176,-0.65032 0.22094,-0.12634 0.415,-0.26354 0.5768,-0.43915 0.1619,-0.17617 0.30546,-0.41493 0.30546,-0.70858 0,-0.6899 -0.4077,-1.27475 -0.96026,-1.79408 -0.55259,-0.51937 -1.28668,-1.00263 -2.12866,-1.48326 -1.60517,-0.916 -3.59878,-1.81192 -5.39848,-2.70056 -0.0481,-0.95723 -0.29329,-2.05024 -0.88293,-2.99238 -0.65941,-1.05362 -1.80116,-1.89256 -3.38869,-1.89256 z"
         inkscape:connector-curvature="0"
         style="fill:#42290d;fill-opacity:1;stroke:none;stroke-opacity:1" />
      <path
         style="fill:#42290d;fill-opacity:1;stroke:none;stroke-opacity:1"
         inkscape:connector-curvature="0"
         d="m -333.11578,894.60352 c -1.5875,0 -2.72925,0.8389 -3.38866,1.89253 -0.58974,0.94212 -0.8351,2.03509 -0.88296,2.99237 -1.79966,0.88867 -3.7933,1.78457 -5.39845,2.70059 -0.84197,0.48061 -1.5761,0.96386 -2.12864,1.48323 -0.55258,0.51937 -0.96027,1.10422 -0.96027,1.79409 0,0.29363 0.14359,0.53283 0.3051,0.70839 0.16225,0.17616 0.35596,0.31224 0.57695,0.43933 0.44183,0.25459 0.99893,0.46671 1.61174,0.65034 0.91036,0.27285 1.9299,0.47562 2.81638,0.56223 -0.88173,1.51746 -2.05516,2.91095 -3.08376,4.24624 -1.1887,1.54332 -2.22645,3.02323 -2.22645,4.66749 0,0.23487 -0.003,0.41824 0.0179,0.6025 0.0215,0.1844 0.0737,0.41406 0.25928,0.59623 0.1855,0.18226 0.4126,0.2313 0.59757,0.25136 0.18479,0.0215 0.37132,0.0215 0.61031,0.0215 l 6.55838,0 c 0.47606,0 0.82468,0.0287 1.18328,-0.2012 0.35865,-0.23025 0.48944,-0.54464 0.74496,-1.01448 l 0.003,0 0.003,-0.0216 c 0,0 0.57169,-1.16075 1.25382,-2.31285 0.34091,-0.5757 0.71123,-1.14934 1.03331,-1.55576 0.16119,-0.20302 0.3119,-0.36434 0.42039,-0.45532 0.0322,-0.0287 0.0484,-0.0322 0.0695,-0.0455 0.0215,0.0215 0.0366,0.0215 0.0695,0.0455 0.1084,0.091 0.25927,0.25209 0.42038,0.45532 0.32193,0.40642 0.69226,0.98006 1.03328,1.55576 0.68206,1.1521 1.2538,2.31285 1.2538,2.31285 l 0.003,0.0216 0.003,0 c 0.25569,0.46984 0.38512,0.78236 0.74142,1.01321 0.35632,0.23059 0.70404,0.20302 1.17341,0.20302 l 6.58726,0 c 0.23527,0 0.41862,0 0.6023,-0.0215 0.1837,-0.0215 0.41146,-0.0705 0.59502,-0.2546 0.18337,-0.18438 0.2342,-0.41076 0.25461,-0.59416 0.0215,-0.18223 0.018,-0.36662 0.018,-0.60159 0,-1.64408 -1.03775,-3.12401 -2.22645,-4.66737 -1.02856,-1.33525 -2.20195,-2.72877 -3.08377,-4.24617 0.8865,-0.0871 1.90602,-0.28969 2.81642,-0.56227 0.61277,-0.1844 1.16987,-0.39583 1.6117,-0.65031 0.22097,-0.12635 0.41502,-0.26353 0.57683,-0.43916 0.16189,-0.17617 0.30545,-0.41491 0.30545,-0.70856 0,-0.68992 -0.40771,-1.27477 -0.96027,-1.79413 -0.55259,-0.51934 -1.28666,-1.00263 -2.12865,-1.48323 -1.60514,-0.916 -3.59877,-1.81192 -5.39844,-2.70059 -0.0479,-0.95725 -0.29329,-2.05021 -0.88294,-2.99235 -0.65943,-1.05363 -1.80114,-1.89256 -3.38871,-1.89256 z"
         id="path5240" />
      <text
         transform="scale(1.0000655,0.99993451)"
         sodipodi:linespacing="125%"
         id="text5242"
         y="915.44635"
         x="-319.87796"
         style="font-style:normal;font-weight:normal;font-size:31.57863808px;line-height:125%;font-family:sans-serif;letter-spacing:0px;word-spacing:0px;fill:#42290d;fill-opacity:1;stroke:none;stroke-width:1px;stroke-linecap:butt;stroke-linejoin:miter;stroke-opacity:1"
         xml:space="preserve"><tspan
           style="font-style:normal;font-variant:normal;font-weight:normal;font-stretch:normal;font-family:'Archivo Black';-inkscape-font-specification:'Archivo Black, ';fill:#42290d;fill-opacity:1"
           y="915.44635"
           x="-319.87796"
           id="tspan5244"
           sodipodi:role="line">+</tspan></text>
    </g>
    <path
       d="m 412.98949,1103.3571 5.58135,9.6672 -5.58135,9.6672 -11.1627,0 -5.58135,-9.6672 5.58135,-9.6672 z"
       inkscape:randomized="0"
       inkscape:rounded="0"
       inkscape:flatsided="true"
       sodipodi:arg2="-0.52359878"
       sodipodi:arg1="-1.0471976"
       sodipodi:r2="9.6671848"
       sodipodi:r1="11.162703"
       sodipodi:cy="1113.0243"
       sodipodi:cx="407.40814"
       sodipodi:sides="6"
       id="path6215"
       style="font-style:normal;font-weight:normal;font-size:medium;line-height:125%;font-family:sans-serif;letter-spacing:0px;word-spacing:0px;fill:#d8c586;fill-opacity:1;stroke:none;stroke-width:0.08647964;stroke-linecap:butt;stroke-linejoin:round;stroke-miterlimit:4;stroke-dasharray:none;stroke-dashoffset:0;stroke-opacity:1"
       sodipodi:type="star"
       transform="matrix(1.596969,0,0,1.6001526,-598.16842,-746.72109)" />
    <path
       sodipodi:type="star"
       style="font-style:normal;font-weight:normal;font-size:medium;line-height:125%;font-family:sans-serif;letter-spacing:0px;word-spacing:0px;fill:#d8c586;fill-opacity:1;stroke:none;stroke-width:0.08647964;stroke-linecap:butt;stroke-linejoin:round;stroke-miterlimit:4;stroke-dasharray:none;stroke-dashoffset:0;stroke-opacity:1"
       id="path6213"
       sodipodi:sides="6"
       sodipodi:cx="389.90088"
       sodipodi:cy="1102.7913"
       sodipodi:r1="11.162703"
       sodipodi:r2="9.6671848"
       sodipodi:arg1="-1.0471976"
       sodipodi:arg2="-0.52359878"
       inkscape:flatsided="true"
       inkscape:rounded="0"
       inkscape:randomized="0"
       d="m 395.48223,1093.1241 5.58135,9.6672 -5.58135,9.6671 -11.1627,0 -5.58135,-9.6671 5.58135,-9.6672 z"
       transform="matrix(1.596969,0,0,1.6001526,-598.16842,-746.72109)" />
    <path
       style="fill:#42290d;fill-opacity:1;stroke:none;stroke-opacity:1"
       inkscape:connector-curvature="0"
       d="m 52.612416,1023.7133 c -1.221674,0 -2.100272,0.6478 -2.607738,1.4613 -0.453817,0.7274 -0.642638,1.5713 -0.679481,2.3105 -1.384901,0.6861 -2.919106,1.3778 -4.154331,2.0851 -0.647958,0.3711 -1.21286,0.7442 -1.638091,1.1452 -0.425232,0.401 -0.738981,0.8526 -0.738981,1.3853 0,0.2267 0.110503,0.4114 0.234849,0.5469 0.124716,0.136 0.273915,0.241 0.443944,0.3393 0.340032,0.1965 0.768757,0.3603 1.240333,0.5021 0.700576,0.2106 1.485134,0.3672 2.167315,0.4341 -0.678528,1.1716 -1.58153,2.2476 -2.373075,3.2785 -0.914753,1.1917 -1.713366,2.3344 -1.713366,3.6039 0,0.1813 -0.0037,0.3229 0.01429,0.4652 0.01615,0.1424 0.05688,0.3197 0.199541,0.4603 0.14274,0.1409 0.317507,0.1786 0.459824,0.1941 0.142291,0.016 0.285747,0.016 0.469698,0.016 l 5.046956,0 c 0.366341,0 0.634618,0.023 0.910598,-0.1552 0.275979,-0.1778 0.376636,-0.4205 0.573266,-0.7833 l 0.0037,0 0.0037,-0.016 c 0,0 0.439921,-0.8962 0.96483,-1.7857 0.262428,-0.4445 0.547354,-0.8875 0.795198,-1.2013 0.124081,-0.1568 0.239983,-0.2813 0.323516,-0.3515 0.02567,-0.021 0.03719,-0.026 0.05346,-0.035 0.01641,0.016 0.02798,0.016 0.05347,0.035 0.08351,0.07 0.199515,0.1946 0.32349,0.3515 0.247844,0.3138 0.532743,0.7568 0.795198,1.2013 0.524856,0.8895 0.96483,1.7857 0.96483,1.7857 l 0.0037,0.016 0.0037,0 c 0.196656,0.3628 0.296386,0.6041 0.570566,0.7823 0.274127,0.1781 0.541795,0.1568 0.903001,0.1568 l 5.06919,0 c 0.18096,0 0.322139,0 0.463504,-0.016 0.141311,-0.016 0.316634,-0.054 0.457892,-0.1965 0.141179,-0.1424 0.180272,-0.3172 0.195915,-0.4588 0.01615,-0.1408 0.01429,-0.2831 0.01429,-0.4645 0,-1.2694 -0.798612,-2.4121 -1.713365,-3.6037 -0.791519,-1.031 -1.694521,-2.1069 -2.373102,-3.2786 0.682207,-0.067 1.466792,-0.2235 2.167341,-0.4341 0.471577,-0.1424 0.900302,-0.3056 1.240334,-0.5021 0.170029,-0.098 0.319333,-0.2036 0.443864,-0.3391 0.124558,-0.136 0.234928,-0.3204 0.234928,-0.5471 0,-0.5327 -0.313749,-0.9842 -0.738954,-1.3852 -0.425258,-0.401 -0.990159,-0.7742 -1.638117,-1.1453 -1.235225,-0.7072 -2.76943,-1.399 -4.154357,-2.0851 -0.03684,-0.7391 -0.225691,-1.583 -0.679455,-2.3105 -0.507467,-0.8135 -1.386065,-1.4612 -2.607738,-1.4612 z"
       id="path6221" />
    <path
       style="fill:#42290d;fill-opacity:1;stroke:none;stroke-linecap:round;stroke-linejoin:round"
       inkscape:connector-curvature="0"
       id="path6223"
       d="m 18.835846,1006.1574 c -0.691365,-2e-4 -1.418806,0.1009 -2.184228,0.3241 a 0.44316589,0.44404933 0 0 0 -0.0064,0 0.44316589,0.44404933 0 0 0 -0.02329,0 0.44316589,0.44404933 0 0 0 -0.01826,0 0.44316589,0.44404933 0 0 0 -0.02197,0.016 0.44316589,0.44404933 0 0 0 -0.018,0.016 0.44316589,0.44404933 0 0 0 -0.02144,0.016 0.44316589,0.44404933 0 0 0 -0.01588,0.016 0.44316589,0.44404933 0 0 0 -0.02038,0.016 0.44316589,0.44404933 0 0 0 -0.01429,0.016 0.44316589,0.44404933 0 0 0 -0.01853,0.016 0.44316589,0.44404933 0 0 0 -0.01429,0.016 0.44316589,0.44404933 0 0 0 -0.0172,0.019 0.44316589,0.44404933 0 0 0 -0.01112,0.016 0.44316589,0.44404933 0 0 0 -0.01615,0.023 0.44316589,0.44404933 0 0 0 -0.0095,0.016 0.44316589,0.44404933 0 0 0 -0.0127,0.023 0.44316589,0.44404933 0 0 0 -0.0095,0.016 0.44316589,0.44404933 0 0 0 -0.01112,0.022 0.44316589,0.44404933 0 0 0 -0.0079,0.018 0.44316589,0.44404933 0 0 0 -0.0079,0.024 0.44316589,0.44404933 0 0 0 -0.0064,0.018 0.44316589,0.44404933 0 0 0 -0.0079,0.032 l -1.044551,5.2333 a 0.44316589,0.44404933 0 0 0 0.262401,0.496 l 3.826315,1.6163 1.475024,7.5785 -5.436219,1.1832 a 0.44316589,0.44404933 0 0 0 -0.349851,0.4278 l -0.04955,3.5745 a 0.44316589,0.44404933 0 0 0 0.577289,0.4293 l 6.832606,-2.1881 1.125304,-0.2185 c 0.0079,0 0.01641,0 0.02488,0 0.46443,0 0.90181,-0.2217 1.207275,-0.583 0.305226,-0.361 0.464907,-0.8316 0.46443,-1.3163 l 0,-0 c 2.65e-4,-0.3074 -0.064,-0.6095 -0.188689,-0.8814 l -1.178954,-6.1031 5.867218,2.4783 a 0.44316589,0.44404933 0 0 0 0.0079,0 0.44316589,0.44404933 0 0 0 0.02541,0.016 0.44316589,0.44404933 0 0 0 0.01641,0 0.44316589,0.44404933 0 0 0 0.02541,0 0.44316589,0.44404933 0 0 0 0.01959,0 0.44316589,0.44404933 0 0 0 0.0225,0 0.44316589,0.44404933 0 0 0 0.0225,0 0.44316589,0.44404933 0 0 0 0.02012,0 0.44316589,0.44404933 0 0 0 0.02514,0 0.44316589,0.44404933 0 0 0 0.01694,0 l 3.890791,-0.2467 a 0.44316589,0.44404933 0 0 0 0.371793,-0.2541 l 2.356824,-4.9994 0,0 a 0.44316589,0.44404933 0 0 0 0,-1e-4 0.44316589,0.44404933 0 0 0 0.0026,-0 0.44316589,0.44404933 0 0 0 -0.257003,-0.614 c -0.36327,-0.1997 -0.737154,-0.3394 -1.117549,-0.4277 l -14.362159,-5.5844 a 0.44316589,0.44404933 0 0 0 -0.03737,-0.016 c -0.621225,-0.1796 -1.276515,-0.2809 -1.967906,-0.2812 z m -1.229085,0.6414 a 0.44316589,0.44404933 0 0 1 0.172014,0.034 l 13.563177,5.4469 a 0.44353906,0.44442327 0 0 1 0.269177,0.5043 0.44316589,0.44404933 0 0 0 -0.0329,0.069 l -0.03899,0.096 a 0.44353906,0.44442327 0 0 1 -0.526656,0.1553 l -13.563177,-5.4484 a 0.44316589,0.44404933 0 0 1 0.157457,-0.8574 z m 16.668086,6.0002 c 0.205258,0 0.40816,0.024 0.609606,0.066 l 0.687606,0.2672 -1.104183,2.3424 c 0.04246,-0.1896 0.06437,-0.3777 0.06231,-0.5541 -0.0045,-0.408 -0.137183,-0.7455 -0.365944,-0.9143 -0.228814,-0.169 -0.545263,-0.1627 -0.857186,0.016 -0.07699,0.043 -0.154095,0.096 -0.228867,0.1584 0.02861,-0.038 0.05561,-0.08 0.07877,-0.1248 0.06609,-0.1296 0.104918,-0.2782 0.103489,-0.4104 -0.0026,-0.1328 -0.04407,-0.2452 -0.119608,-0.3024 -0.03764,-0.029 -0.0811,-0.043 -0.128237,-0.042 -0.04711,0 -0.09806,0.016 -0.14724,0.043 -0.09838,0.056 -0.19033,0.1645 -0.256579,0.2936 -0.06606,0.1296 -0.104918,0.2781 -0.103462,0.4104 0.0026,0.1329 0.04407,0.2452 0.119449,0.3025 0.07538,0.058 0.177149,0.054 0.275503,0 -0.159389,0.1666 -0.305359,0.3693 -0.424146,0.5946 -0.214945,0.4074 -0.337094,0.8786 -0.332356,1.2868 0.0045,0.4081 0.139908,0.747 0.368802,0.9158 0.228761,0.169 0.542245,0.1613 0.854142,-0.016 0.194908,-0.1088 0.386721,-0.2813 0.555585,-0.4946 l -0.392306,0.8321 -2.927231,0.1869 1.737822,-4.3185 c 0.68271,-0.3619 1.318863,-0.5381 1.934213,-0.5328 z m -13.905061,1.7829 0.747053,0.3157 1.386965,6.523 c -0.140226,-0.043 -0.286567,-0.066 -0.435819,-0.066 -0.127098,0 -0.251893,0.017 -0.372613,0.048 l -1.325586,-6.8213 z m 1.74248,0.7361 0.793848,0.3354 1.072898,5.5542 c -0.127415,-0.035 -0.259543,-0.054 -0.394025,-0.054 -0.07665,0 -0.152376,0 -0.226962,0.017 l -1.245706,-5.8539 z m 1.472668,6.7269 c 0.180192,0 0.385238,0.093 0.535152,0.2698 0.149966,0.1774 0.253455,0.4622 0.253032,0.7382 a 0.4417664,0.4455451 0 0 0 0,0 c 0,0.276 -0.103145,0.5608 -0.252979,0.7383 -0.07128,0.085 -0.154757,0.1488 -0.242022,0.1936 l -0.286566,0.056 c 0.09822,-0.2466 0.14851,-0.5143 0.148193,-0.7866 l 0,-0 c 2.11e-4,-0.1763 -0.02118,-0.3511 -0.06257,-0.5192 a 0.44316589,0.44404933 0 0 0 -0.0095,-0.1056 l -0.123922,-0.5823 c 0.01271,-0 0.02729,-0 0.0406,-0 z m -1.516949,0.2009 c 0.180273,0 0.385318,0.093 0.535311,0.27 0.149967,0.1773 0.253324,0.4623 0.252927,0.7383 a 0.4417664,0.4455451 0 0 0 0,0 c 0,0.2761 -0.103145,0.561 -0.252953,0.7383 -0.149967,0.1775 -0.355012,0.27 -0.535311,0.27 -0.180219,0 -0.384074,-0.093 -0.534014,-0.27 -0.14994,-0.1773 -0.254594,-0.4622 -0.254223,-0.7383 a 0.4417664,0.4455451 0 0 0 0,-0 c 0,-0.276 0.104283,-0.561 0.254223,-0.7383 0.149966,-0.1775 0.353795,-0.27 0.534014,-0.27 z m -1.609188,0.4951 c -0.0406,0.1664 -0.06133,0.3389 -0.06117,0.5132 l 0,0 c 0,0.4847 0.159071,0.9553 0.464324,1.3163 0.03915,0.046 0.08028,0.09 0.123446,0.1312 l -5.065378,1.6223 0.03655,-2.6046 4.502276,-0.9799 z" />
    <g
       id="g13977"
       transform="matrix(0.26467784,0,0,0.26467784,-190.86608,942.75583)"
       style="stroke:none">
      <g
         style="font-style:normal;font-weight:normal;font-size:40px;line-height:125%;font-family:sans-serif;letter-spacing:0px;word-spacing:0px;fill:#42290d;fill-opacity:1;stroke:none;stroke-width:1px;stroke-linecap:butt;stroke-linejoin:miter;stroke-opacity:1"
         id="g13937"
         transform="matrix(2.5502364,0,0,2.5502364,115.61037,213.89339)">
        <g
           id="g13939"
           transform="translate(301.32214,-340.94806)"
           style="stroke:none">
          <path
             sodipodi:nodetypes="ssccscccssccsccs"
             d="m -27.005527,341.9378 -31.214185,0 c -0.217564,0 -0.415933,-0.064 -0.595106,-0.19197 -0.166375,-0.12798 -0.300755,-0.28155 -0.403139,-0.46072 -0.102384,-0.17917 -0.153575,-0.37115 -0.153575,-0.57591 0,-0.19198 0.05119,-0.39036 0.153575,-0.59511 l 15.587902,-27.68195 c 0.102384,-0.17917 0.243158,-0.31356 0.422325,-0.40315 0.179172,-0.0896 0.371143,-0.13438 0.57591,-0.13438 0.204767,0 0.396737,0.0448 0.57591,0.13438 0.179172,0.0895 0.319951,0.22398 0.422334,0.40315 l 15.626284,27.68195 c 0.102384,0.20476 0.153575,0.40314 0.153575,0.59511 0,0.20476 -0.05119,0.39674 -0.153575,0.57591 -0.102384,0.17917 -0.243159,0.33274 -0.422325,0.46072 -0.166376,0.12797 -0.358346,0.19197 -0.57591,0.19197 z"
             style="fill:#d8c586;fill-opacity:1;stroke:none"
             id="path13941"
             inkscape:connector-curvature="0" />
          <path
             inkscape:connector-curvature="0"
             id="path13943"
             style="fill:#42290d;fill-opacity:1;stroke:none"
             d="m -26.733715,342.19941 -31.75781,0 q -0.33203,0 -0.60547,-0.19531 -0.25391,-0.19532 -0.41016,-0.46875 -0.15625,-0.27344 -0.15625,-0.58594 0,-0.29297 0.15625,-0.60547 l 15.85938,-28.16406 q 0.15625,-0.27344 0.42968,-0.41016 0.27344,-0.13672 0.58594,-0.13672 0.3125,0 0.58594,0.13672 0.27344,0.13672 0.42969,0.41016 l 15.89843,28.16406 q 0.15625,0.3125 0.15625,0.60547 0,0.3125 -0.15625,0.58594 -0.15625,0.27343 -0.42968,0.46875 -0.25391,0.19531 -0.58594,0.19531 z m -29.72656,-2.5 27.65625,0 -13.82813,-24.49219 -13.82812,24.49219 z m 15.64453,-7.10938 -3.63281,0 0,-10.83984 3.63281,0 0,10.83984 z m 0.54687,3.55469 q 0,0.50781 -0.19531,0.9375 -0.17578,0.42969 -0.50781,0.76172 -0.3125,0.3125 -0.74219,0.50781 -0.42969,0.17578 -0.91797,0.17578 -0.48828,0 -0.91797,-0.17578 -0.42968,-0.19531 -0.74218,-0.50781 -0.3125,-0.33203 -0.48829,-0.76172 -0.17578,-0.42969 -0.17578,-0.9375 0,-0.48828 0.17578,-0.9375 0.17579,-0.44922 0.48829,-0.76172 0.3125,-0.33203 0.74218,-0.52734 0.42969,-0.19531 0.91797,-0.19531 0.48828,0 0.91797,0.19531 0.42969,0.19531 0.74219,0.52734 0.33203,0.3125 0.50781,0.76172 0.19531,0.44922 0.19531,0.9375 z" />
        </g>
      </g>
      <text
         xml:space="preserve"
         style="font-style:normal;font-weight:normal;font-size:100.95265961px;line-height:125%;font-family:sans-serif;letter-spacing:0px;word-spacing:0px;fill:#d8c586;fill-opacity:1;stroke:none;stroke-width:1px;stroke-linecap:butt;stroke-linejoin:miter;stroke-opacity:1"
         x="812.49805"
         y="205.49388"
         id="text13945"
         sodipodi:linespacing="125%"
         transform="scale(0.99918447,1.0008162)"><tspan
           sodipodi:role="line"
           id="tspan13947"
           x="812.49805"
           y="205.49388">:</tspan></text>
    </g>
  </g>
</svg>
