<?xml version="1.0" encoding="UTF-8" standalone="no"?>
<!-- Created with Inkscape (http://www.inkscape.org/) -->

<svg
   xmlns:dc="http://purl.org/dc/elements/1.1/"
   xmlns:cc="http://creativecommons.org/ns#"
   xmlns:rdf="http://www.w3.org/1999/02/22-rdf-syntax-ns#"
   xmlns:svg="http://www.w3.org/2000/svg"
   xmlns="http://www.w3.org/2000/svg"
   xmlns:sodipodi="http://sodipodi.sourceforge.net/DTD/sodipodi-0.dtd"
   xmlns:inkscape="http://www.inkscape.org/namespaces/inkscape"
   width="100"
   height="100"
   viewBox="0 0 100 100"
   id="svg4770"
   version="1.1"
   inkscape:version="0.92.0 r15299"
   sodipodi:docname="figure_loot.svg">
  <defs
     id="defs4772">
    <filter
       inkscape:collect="always"
       style="color-interpolation-filters:sRGB"
       id="filter7648"
       x="-0.048"
       width="1.096"
       y="-0.048"
       height="1.096">
      <feGaussianBlur
         inkscape:collect="always"
         stdDeviation="0.95738914"
         id="feGaussianBlur7650" />
    </filter>
    <filter
       inkscape:collect="always"
       style="color-interpolation-filters:sRGB"
       id="filter7692"
       x="-0.044"
       width="1.088"
       y="-0.094285715"
       height="1.1885714">
      <feGaussianBlur
         inkscape:collect="always"
         stdDeviation="0.76392787"
         id="feGaussianBlur7694" />
    </filter>
    <filter
       inkscape:collect="always"
       style="color-interpolation-filters:sRGB"
       id="filter7729"
       x="-0.036252904"
       width="1.0725058"
       y="-0.0357506"
       height="1.0715012">
      <feGaussianBlur
         inkscape:collect="always"
         stdDeviation="1.1598771"
         id="feGaussianBlur7731" />
    </filter>
  </defs>
  <sodipodi:namedview
     id="base"
     pagecolor="#ffffff"
     bordercolor="#666666"
     borderopacity="1.0"
     inkscape:pageopacity="0.0"
     inkscape:pageshadow="2"
     inkscape:zoom="3.959798"
     inkscape:cx="102.14005"
     inkscape:cy="28.834122"
     inkscape:document-units="px"
     inkscape:current-layer="layer1"
     showgrid="false"
     units="px"
     inkscape:window-width="1920"
     inkscape:window-height="1017"
     inkscape:window-x="-8"
     inkscape:window-y="-8"
     inkscape:window-maximized="1" />
  <metadata
     id="metadata4775">
    <rdf:RDF>
      <cc:Work
         rdf:about="">
        <dc:format>image/svg+xml</dc:format>
        <dc:type
           rdf:resource="http://purl.org/dc/dcmitype/StillImage" />
        <dc:title></dc:title>
      </cc:Work>
    </rdf:RDF>
  </metadata>
  <g
     inkscape:label="Layer 1"
     inkscape:groupmode="layer"
     id="layer1"
     transform="translate(0,-952.36216)">
    <circle
       r="23.934729"
       cy="980.48932"
       cx="30.84446"
       id="circle7634"
       style="opacity:1;fill:#000000;fill-opacity:1;stroke:none;stroke-width:1;stroke-linecap:round;stroke-linejoin:round;stroke-miterlimit:4;stroke-dasharray:none;stroke-dashoffset:0;stroke-opacity:1;filter:url(#filter7648)"
       transform="matrix(0.56840557,0,0,0.56840557,2.2430503,413.41482)" />
    <circle
       style="opacity:1;fill:#d8c586;fill-opacity:1;stroke:none;stroke-width:1;stroke-linecap:round;stroke-linejoin:round;stroke-miterlimit:4;stroke-dasharray:none;stroke-dashoffset:0;stroke-opacity:1"
       id="path7628"
       cx="18.638403"
       cy="969.59357"
       r="13.604632" />
    <path
       style="fill:#42290d;fill-opacity:1"
       inkscape:connector-curvature="0"
       d="m 20.667441,960.49051 -6.449105,2.58749 2.160089,1.91491 3.453905,-1.38573 0.8351,-3.11663 z m 0.690719,0.18507 -0.835112,3.11668 2.298279,2.92702 2.828323,-0.57833 -4.29149,-5.46537 z m 0.126628,0.95138 1.13381,1.3911 c -0.920894,-0.41978 -1.235815,0.0472 -1.729293,0.72113 l 0.595553,-2.11221 z m -1.490473,-0.23793 -0.353537,1.27738 c -0.858365,-0.18137 -2.327429,-0.0304 -4.592554,0.57873 l 4.946113,-1.85605 z m 0.02148,2.91494 -3.410092,1.36814 -1.613793,6.02275 2.269159,2.88989 3.410094,-1.36814 1.613766,-6.02265 -2.26916,-2.88989 z m -0.01997,0.72147 c -1.787041,0.91292 -4.021856,5.70163 -4.489578,6.98549 l 1.540091,-5.80178 2.949417,-1.18377 z m -6.252019,-1.41257 -2.260014,8.43449 2.828335,-0.57836 1.591934,-5.94118 -2.160255,-1.91495 z m 12.049222,3.22858 -2.828285,0.57827 -1.591948,5.94123 2.160203,1.91504 2.260019,-8.43451 z m -11.80354,-2.20405 1.338894,1.21545 c -2.174389,1.01136 -2.443057,4.39158 -3.278489,5.80788 l 1.939617,-7.02332 z m 0.465901,7.53217 -2.828086,0.57831 4.291346,5.46537 0.835122,-3.11671 -2.298301,-2.92694 z m 6.443014,1.72641 -3.453913,1.38563 -0.835107,3.11667 6.449111,-2.58742 -2.160091,-1.91488 z m -6.677584,-1.08299 c -0.919293,0.42328 -0.893069,0.76273 -0.38763,2.13386 l -1.307013,-1.91368 1.694671,-0.22018 z"
       id="path4924" />
    <g
       id="g7696"
       transform="matrix(0.71386905,-0.13667872,0.13667872,0.71386905,-134.63701,305.28662)">
      <rect
         style="opacity:1;fill:#000000;fill-opacity:1;stroke:none;stroke-width:1;stroke-linecap:round;stroke-linejoin:round;stroke-miterlimit:4;stroke-dasharray:none;stroke-dashoffset:0;stroke-opacity:1;filter:url(#filter7692)"
         id="rect7662"
         width="41.668793"
         height="19.445436"
         x="85.842667"
         y="972.28717"
         ry="4.7982202" />
      <rect
         ry="4.7982202"
         y="970.79224"
         x="84.34774"
         height="19.445436"
         width="41.668793"
         id="rect7660"
         style="opacity:1;fill:#d8c586;fill-opacity:1;stroke:none;stroke-width:1;stroke-linecap:round;stroke-linejoin:round;stroke-miterlimit:4;stroke-dasharray:none;stroke-dashoffset:0;stroke-opacity:1" />
      <text
         sodipodi:linespacing="125%"
         id="text4139"
         y="985.41528"
         x="90.460091"
         style="font-style:normal;font-weight:normal;font-size:14.2246294px;line-height:125%;font-family:sans-serif;letter-spacing:0px;word-spacing:0px;fill:#42290d;fill-opacity:1;stroke:none;stroke-width:1px;stroke-linecap:butt;stroke-linejoin:miter;stroke-opacity:1"
         xml:space="preserve"><tspan
           style="font-style:normal;font-variant:normal;font-weight:normal;font-stretch:normal;font-family:'Archivo Black';-inkscape-font-specification:'Archivo Black, ';fill:#42290d;fill-opacity:1"
           y="985.41528"
           x="90.460091"
           id="tspan4141"
           sodipodi:role="line">$1k</tspan></text>
    </g>
    <g
       id="g7733"
       transform="matrix(0.38879286,-0.04795343,0.04795343,0.38879286,-39.776762,622.01981)">
      <rect
         style="opacity:1;fill:#000000;fill-opacity:1;stroke:none;stroke-width:1;stroke-linecap:round;stroke-linejoin:round;stroke-miterlimit:4;stroke-dasharray:none;stroke-dashoffset:0;stroke-opacity:1;filter:url(#filter7729)"
         id="rect7719"
         width="76.785713"
         height="77.864571"
         x="44.857143"
         y="1025.5562"
         ry="4.4577951" />
      <rect
         ry="4.4577951"
         y="1023.5561"
         x="42.857143"
         height="77.864571"
         width="76.785713"
         id="rect7707"
         style="opacity:1;fill:#d8c586;fill-opacity:1;stroke:none;stroke-width:1;stroke-linecap:round;stroke-linejoin:round;stroke-miterlimit:4;stroke-dasharray:none;stroke-dashoffset:0;stroke-opacity:1" />
      <path
         id="path4772"
         d="m 68.890016,1032.2755 -8.846547,22.0795 17.693094,0 -8.846547,-22.0795 z m -9.514791,24.1556 0,36.375 5.362577,0 0,-9.3425 c 2.599548,-2.8667 5.340788,-3.3231 8.304429,0 l 0,9.3425 5.190263,0 0,-36.375 -18.857269,0 z m 4.324528,2.1191 2.076107,0 0,4.1522 -2.076107,0 0,-4.1522 z m 4.152205,0 2.076117,0 0,4.1522 -2.076117,0 0,-4.1522 z m 4.152214,0 2.076108,0 0,4.1522 -2.076108,0 0,-4.1522 z m 8.30442,6.1913 0,28.0646 6.228322,0 0,-21.4077 c -0.336723,-0.3869 -1.750419,-2.0073 -3.456721,-3.8356 -0.9602,-1.0289 -1.954393,-2.0565 -2.753434,-2.8055 -0.0074,-0.01 -0.01087,-0.01 -0.0182,-0.016 z m -23.009474,0.1645 c -0.772051,0.7341 -1.697739,1.6908 -2.599408,2.6568 -1.706303,1.8283 -3.119998,3.449 -3.456721,3.8357 l 0,21.4076 6.055999,0 0,-27.9003 z m 11.590898,0.9537 c 4.013755,0 7.2905,3.1297 7.2905,6.964 0,3.8339 -3.276745,6.964 -7.2905,6.964 -4.013764,0 -7.290499,-3.1301 -7.290499,-6.964 0,-3.8343 3.276735,-6.964 7.290499,-6.964 z m -1.167806,2.1558 c -0.620496,0.1357 -1.197657,0.376 -1.709163,0.7027 l 1.709163,1.6812 0,-2.3837 z m 2.335613,0 0,2.5753 1.964516,-1.6984 c -0.571838,-0.4155 -1.238392,-0.7183 -1.964516,-0.8771 z m -5.528927,2.1546 c -0.347747,0.5225 -0.595327,1.1121 -0.717552,1.7453 l 2.491328,0 -1.773776,-1.7453 z m 8.886381,0.2628 -1.714995,1.4827 2.268147,0 c -0.101857,-0.5292 -0.290656,-1.0282 -0.553152,-1.4827 z m 15.197744,1.7419 0,3.8927 20.277059,0 -3.89269,-3.8927 -16.384369,0 z m -24.67127,2.076 c 0.128847,0.4119 0.311934,0.8006 0.541858,1.159 l 1.340389,-1.159 -1.882117,0 z m 7.695858,0 1.463394,1.4398 c 0.322577,-0.4327 0.573789,-0.9173 0.737279,-1.4398 l -2.200673,0 z m -3.915399,1.1034 -1.772736,1.5328 c 0.527332,0.3478 1.126281,0.6034 1.772736,0.7446 l 0,-2.2772 z m 2.335613,0.2551 0,2.0222 c 0.529923,-0.1157 1.028194,-0.3078 1.48104,-0.5653 l -1.48104,-1.4569 z m 18.555198,2.7937 0,14.2732 21.928859,0 0,-14.2732 -21.928859,0 z m 3.243913,2.9844 2.335624,0 0,4.1522 -2.335624,0 0,-4.1522 z m 4.152207,0 2.335623,0 0,4.1522 -2.335623,0 0,-4.1522 z m 4.152219,0 2.33562,0 0,4.1522 -2.33562,0 0,-4.1522 z m 4.15221,0 2.33561,0 0,4.1522 -2.33561,0 0,-4.1522 z"
         inkscape:connector-curvature="0"
         style="fill:#42290d;fill-opacity:1" />
      <path
         style="opacity:1;fill:#000000;fill-opacity:1;stroke:none;stroke-width:1;stroke-linecap:round;stroke-linejoin:round;stroke-miterlimit:4;stroke-dasharray:none;stroke-dashoffset:0;stroke-opacity:1"
         d="m 46.227399,1023.077 c -2.658214,0 -4.798828,2.1387 -4.798828,4.7969 l 0,69.332 c 0,2.6582 2.140614,4.7988 4.798828,4.7988 l 69.332031,0 c 2.65821,0 4.79687,-2.1406 4.79687,-4.7988 l 0,-69.332 c 0,-2.6582 -2.13866,-4.7969 -4.79687,-4.7969 l -69.332031,0 z m 4.234375,4.8203 60.861326,0 c 2.33346,0 4.21289,1.8795 4.21289,4.2129 l 0,60.8613 c 0,2.3335 -1.87943,4.2129 -4.21289,4.2129 l -60.861326,0 c -2.333455,0 -4.210937,-1.8794 -4.210937,-4.2129 l 0,-60.8613 c 0,-2.3334 1.877482,-4.2129 4.210937,-4.2129 z"
         id="path7717"
         inkscape:connector-curvature="0" />
      <path
         inkscape:connector-curvature="0"
         id="rect7702"
         d="m 46.227399,1023.077 c -2.658214,0 -4.798828,2.1387 -4.798828,4.7969 l 0,69.332 c 0,2.6582 2.140614,4.7988 4.798828,4.7988 l 69.332031,0 c 2.65821,0 4.79687,-2.1406 4.79687,-4.7988 l 0,-69.332 c 0,-2.6582 -2.13866,-4.7969 -4.79687,-4.7969 l -69.332031,0 z m 4.234375,4.8203 60.861326,0 c 2.33346,0 4.21289,1.8795 4.21289,4.2129 l 0,60.8613 c 0,2.3335 -1.87943,4.2129 -4.21289,4.2129 l -60.861326,0 c -2.333455,0 -4.210937,-1.8794 -4.210937,-4.2129 l 0,-60.8613 c 0,-2.3334 1.877482,-4.2129 4.210937,-4.2129 z"
         style="opacity:1;fill:#42290d;fill-opacity:1;stroke:none;stroke-width:1;stroke-linecap:round;stroke-linejoin:round;stroke-miterlimit:4;stroke-dasharray:none;stroke-dashoffset:0;stroke-opacity:1" />
    </g>
    <g
       transform="matrix(0.72214325,0.08245733,-0.08245733,0.72214325,80.684228,250.55097)"
       id="g7740">
      <rect
         ry="4.7982202"
         y="972.28717"
         x="85.842667"
         height="19.445436"
         width="41.668793"
         id="rect7742"
         style="opacity:1;fill:#000000;fill-opacity:1;stroke:none;stroke-width:1;stroke-linecap:round;stroke-linejoin:round;stroke-miterlimit:4;stroke-dasharray:none;stroke-dashoffset:0;stroke-opacity:1;filter:url(#filter7692)" />
      <rect
         style="opacity:1;fill:#d8c586;fill-opacity:1;stroke:none;stroke-width:1;stroke-linecap:round;stroke-linejoin:round;stroke-miterlimit:4;stroke-dasharray:none;stroke-dashoffset:0;stroke-opacity:1"
         id="rect7744"
         width="41.668793"
         height="19.445436"
         x="84.34774"
         y="970.79224"
         ry="4.7982202" />
      <text
         xml:space="preserve"
         style="font-style:normal;font-weight:normal;font-size:14.2246294px;line-height:125%;font-family:sans-serif;letter-spacing:0px;word-spacing:0px;fill:#42290d;fill-opacity:1;stroke:none;stroke-width:1px;stroke-linecap:butt;stroke-linejoin:miter;stroke-opacity:1"
         x="90.460091"
         y="985.41528"
         id="text7746"
         sodipodi:linespacing="125%"><tspan
           sodipodi:role="line"
           id="tspan7748"
           x="90.460091"
           y="985.41528"
           style="font-style:normal;font-variant:normal;font-weight:normal;font-stretch:normal;font-family:'Archivo Black';-inkscape-font-specification:'Archivo Black, ';fill:#42290d;fill-opacity:1">$3k</tspan></text>
    </g>
    <g
       id="g8999"
       transform="translate(0.25253814,-12.121831)">
      <circle
         r="23.934729"
         cy="980.48932"
         cx="30.84446"
         id="circle8337"
         style="opacity:1;fill:#000000;fill-opacity:1;stroke:none;stroke-width:1;stroke-linecap:round;stroke-linejoin:round;stroke-miterlimit:4;stroke-dasharray:none;stroke-dashoffset:0;stroke-opacity:1;filter:url(#filter7648)"
         transform="matrix(0.56840557,0,0,0.56840557,-1.3508041,459.74933)" />
      <circle
         style="opacity:1;fill:#d8c586;fill-opacity:1;stroke:none;stroke-width:1;stroke-linecap:round;stroke-linejoin:round;stroke-miterlimit:4;stroke-dasharray:none;stroke-dashoffset:0;stroke-opacity:1"
         id="circle8339"
         cx="15.04455"
         cy="1015.9281"
         r="13.604632" />
      <text
         transform="matrix(0.98939413,-0.14525582,0.14525582,0.98939413,0,0)"
         sodipodi:linespacing="125%"
         id="text8333"
         y="1049.6488"
         x="-144.56525"
         style="font-style:normal;font-variant:normal;font-weight:normal;font-stretch:normal;font-size:76.35138702px;line-height:125%;font-family:'Archivo Narrow';-inkscape-font-specification:'Archivo Narrow, Normal';text-align:start;letter-spacing:0px;word-spacing:0px;writing-mode:lr-tb;text-anchor:start;fill:#42290d;fill-opacity:1;stroke:none;stroke-width:1px;stroke-linecap:butt;stroke-linejoin:miter;stroke-opacity:1"
         xml:space="preserve"><tspan
           y="1049.6488"
           x="-144.56525"
           id="tspan8335"
           sodipodi:role="line">*</tspan></text>
    </g>
    <g
       id="g8351"
       transform="matrix(0.83409451,0.22349495,-0.22349495,0.83409451,151.38384,123.7972)">
      <circle
         transform="matrix(0.6582439,0,0,0.6582439,120.01656,356.68022)"
         style="opacity:1;fill:#000000;fill-opacity:1;stroke:none;stroke-width:1;stroke-linecap:round;stroke-linejoin:round;stroke-miterlimit:4;stroke-dasharray:none;stroke-dashoffset:0;stroke-opacity:1;filter:url(#filter7648)"
         id="circle8343"
         cx="30.84446"
         cy="980.48932"
         r="23.934729" />
      <circle
         r="15.754889"
         cy="1000.7649"
         cx="139.00325"
         id="circle8345"
         style="opacity:1;fill:#d8c586;fill-opacity:1;stroke:none;stroke-width:1;stroke-linecap:round;stroke-linejoin:round;stroke-miterlimit:4;stroke-dasharray:none;stroke-dashoffset:0;stroke-opacity:1" />
      <path
         inkscape:transform-center-y="2.4266085"
         inkscape:transform-center-x="3.2616109"
         inkscape:connector-curvature="0"
         id="path6451"
         d="m 133.3016,990.49132 c -0.0454,2.1e-4 -0.0907,10e-4 -0.1359,0.004 -0.10336,0.004 -0.20626,0.0135 -0.30857,0.0275 -0.81846,0.11149 -1.58925,0.55478 -2.12357,1.36659 -0.9989,1.51785 0.0891,3.97817 2.29812,3.97817 0.0218,0 0.0428,0 0.0641,-7.1e-4 l 0,0.0285 2.45816,0 c -0.43661,1.29845 -1.22973,2.7028 -2.12867,4.11653 -0.0877,0.1379 -0.17259,0.279 -0.25522,0.4222 l 1.4154,1.4503 -2.28323,0.3824 c -1.32824,3.4889 -1.11288,7.3892 1.95921,7.3892 l 0.37775,0 c 0.96711,-0.023 1.89663,-0.1745 2.48888,-0.5231 0.16939,-0.1 0.30972,-0.2125 0.42486,-0.3417 l -1.31682,0 c -0.82507,0.2415 -1.65589,-0.2816 -1.92358,-1.052 -0.36348,-1.0459 0.30515,-2.1251 1.29326,-2.4535 0.23551,-0.078 0.47579,-0.115 0.71288,-0.115 l 0,-0.016 7.23743,0 c -0.0231,-1.802 0.66362,-3.6576 1.99616,-5.1136 0.97219,-1.06226 1.7057,-2.46034 2.08192,-3.84921 l -1.67308,-1.01184 1.55319,-0.28029 -1.76015,-1.04727 2.11547,-0.35927 c -0.21234,-1.58822 -1.1704,-2.76427 -3.13994,-2.76427 -1.78091,0.34601 -6.61166,0.46893 -9.56496,0.1932 -0.60422,-0.27447 -1.23967,-0.4351 -1.86308,-0.43222 l 0,-2.1e-4 z m 0.0189,0.75907 c 0.53315,10e-4 1.11214,0.15443 1.67383,0.43146 l 0.001,-0.003 c 0.1894,0.19217 0.3467,0.3951 0.47406,0.60809 l -3.00064,0 0.4292,0.59979 c 0.43051,0.60186 0.80372,1.29828 0.85595,1.70549 0.0261,0.20362 -0.004,0.29097 -0.0737,0.35871 -0.0692,0.0678 -0.25281,0.15721 -0.64899,0.15721 -1.64719,0 -2.30831,-1.82432 -1.6644,-2.80273 0.42491,-0.64557 0.96659,-0.94659 1.5924,-1.03182 0.11729,-0.016 0.23796,-0.0237 0.36096,-0.0234 z m 0.59263,1.79521 1.87815,0 c 0.1735,0.63856 0.1484,1.34204 -0.0221,2.09041 l -1.32775,0 c 0.0771,-0.20401 0.0921,-0.42907 0.065,-0.63994 -0.062,-0.48348 -0.30056,-0.97664 -0.59337,-1.45047 z m 5.40488,0.68122 a 0.14477818,0.14477818 0 0 1 0.14118,0.12328 c 0.0235,0.15584 0.0333,0.34546 0.0567,0.50404 0.0118,0.0793 0.0272,0.15022 0.0449,0.19904 0.0177,0.0489 0.0384,0.0692 0.0369,0.0682 a 0.14477818,0.14477818 0 0 1 0.0538,0.0633 c 0.0187,0.0428 0.002,0.0223 0.0126,0.0226 0.0105,0 0.0626,-0.0128 0.12573,-0.0464 0.12366,-0.0656 0.27037,-0.19187 0.46011,-0.22563 0.10377,-0.0321 0.20796,-0.0253 0.28991,0.006 0.0858,0.0321 0.15073,0.0806 0.20697,0.12139 0.0562,0.0408 0.10392,0.074 0.14287,0.0901 0.0389,0.0161 0.0649,0.0206 0.11141,0.007 a 0.14477818,0.14477818 0 0 1 0.0398,-0.006 c 0.26738,0 0.53588,0 0.80336,0 a 0.14477818,0.14477818 0 0 1 0.12534,0.0728 c 0.0236,0.0412 0.0307,0.0403 0.0483,0.0437 0.0175,0.004 0.0569,0 0.11008,-0.0175 0.10629,-0.0355 0.24205,-0.12325 0.40338,-0.15267 a 0.14477818,0.14477818 0 0 1 0.0179,-0.002 c 0.24749,-0.0136 0.49336,0.0166 0.72476,0.11686 0.13112,-0.002 0.24855,0.0369 0.34739,0.0848 0.1115,0.0541 0.20972,0.11226 0.29952,0.14213 a 0.14477818,0.14477818 0 0 1 0.001,0 c 0.0656,0.0227 0.12969,0.004 0.23091,-0.0438 0.10122,-0.0473 0.22183,-0.12502 0.3834,-0.13232 a 0.14477818,0.14477818 0 1 1 0.0132,0.28914 c -0.062,0.003 -0.15658,0.0504 -0.27407,0.10538 -0.1174,0.0548 -0.27543,0.11467 -0.44768,0.0552 -0.1309,-0.0437 -0.23879,-0.11007 -0.33325,-0.15588 -0.0948,-0.0459 -0.1692,-0.0693 -0.23712,-0.0616 a 0.14477818,0.14477818 0 0 1 -0.0769,-0.0124 c -0.18239,-0.0842 -0.38361,-0.10962 -0.60431,-0.0988 -0.0702,0.0146 -0.20665,0.0898 -0.35701,0.14005 -0.0765,0.0256 -0.1624,0.0457 -0.25749,0.0272 -0.0666,-0.013 -0.12716,-0.0566 -0.17963,-0.1112 -0.24324,0 -0.48743,0 -0.73136,0 -0.0994,0.0211 -0.19583,0.008 -0.27199,-0.0235 -0.0837,-0.0345 -0.1473,-0.0833 -0.20245,-0.12327 -0.0552,-0.04 -0.10161,-0.0711 -0.13835,-0.0848 -0.0367,-0.0138 -0.0606,-0.0172 -0.10801,-7.1e-4 a 0.14477818,0.14477818 0 0 1 -0.0252,0.006 c -0.0543,0.008 -0.22003,0.11457 -0.37963,0.19924 -0.0798,0.0423 -0.16357,0.0832 -0.26992,0.0801 -0.0862,-0.003 -0.16905,-0.0637 -0.22657,-0.14344 -0.0735,-0.0533 -0.11327,-0.12653 -0.14043,-0.2015 -0.0288,-0.0795 -0.0457,-0.16584 -0.059,-0.25523 -0.0141,-0.095 -0.0213,-0.17577 -0.0301,-0.26746 -0.0194,0.0198 -0.0342,0.033 -0.0555,0.0552 -0.10568,0.11038 -0.21876,0.25196 -0.40846,0.28406 -0.27317,0.0525 -0.51964,0.0165 -0.74286,0.0262 a 0.14477818,0.14477818 0 0 1 -0.004,0 c -0.39947,0.006 -0.75063,-0.12836 -1.06481,-0.23166 a 0.14477818,0.14477818 0 1 1 0.0905,-0.27501 c 0.32244,0.10602 0.63959,0.22275 0.96962,0.21734 0.2577,-0.0108 0.486,0.0201 0.69893,-0.0213 a 0.14477818,0.14477818 0 0 1 0.004,0 c 0.0313,-0.005 0.14472,-0.0913 0.24806,-0.19925 0.0517,-0.054 0.10328,-0.10977 0.15965,-0.15777 0.0564,-0.048 0.11822,-0.10098 0.22336,-0.0995 z m 1.73321,1.21674 c 0.01,-0.002 0.0194,-0.003 0.0292,-0.006 l -0.0398,0.006 c 0.004,0 0.007,-1e-5 0.0106,0 z m -4.24791,0.21375 a 0.14477818,0.14477818 0 0 1 0.13571,0.20244 c -0.0932,0.22327 -0.0692,0.37299 -0.0201,0.45145 0.049,0.0784 0.12045,0.10732 0.21959,0.082 a 0.14477818,0.14477818 0 0 1 0.0533,-0.004 c 0.14025,0.0172 0.31902,-0.0371 0.5276,-0.0565 a 0.14477818,0.14477818 0 0 1 0.0452,0.003 c 0.0335,0.008 0.0799,0.002 0.14457,-0.0135 0.0647,-0.0158 0.14348,-0.0421 0.23976,-0.046 a 0.14477818,0.14477818 0 0 1 0.12705,0.0654 c 0.0189,0.0288 0.033,0.0367 0.0632,0.0422 0.0302,0.006 0.0788,0.001 0.13723,-0.0204 0.1169,-0.0438 0.2646,-0.15733 0.3719,-0.30744 a 0.14477818,0.14477818 0 0 1 0.0782,-0.055 c 0.1388,-0.0393 0.25483,0.006 0.34212,0.0334 0.0873,0.0267 0.14746,0.041 0.21375,0.0226 a 0.14477818,0.14477818 0 0 1 0.0456,-0.005 c 0.0402,0.002 0.15133,-0.009 0.25654,10e-4 0.0526,0.005 0.11109,0.009 0.1751,0.0648 0.0201,0.0175 0.0291,0.0494 0.0417,0.0778 0.0574,0.0127 0.11601,0.0197 0.20546,0.0598 0.0966,0.0433 0.18186,0.14634 0.23939,0.28162 0.16289,0.0294 0.36626,0.0131 0.5881,0.02 0.0271,-0.0196 0.0595,-0.0352 0.10726,-0.036 0.0413,-7.1e-4 0.085,0.0168 0.11215,0.0384 0.0272,0.0216 0.0417,0.0442 0.0522,0.0635 0.0291,0.0533 0.0308,0.0884 0.0377,0.12648 0.0875,-0.0997 0.19199,-0.16239 0.29085,-0.18151 0.11215,-0.0217 0.20795,-0.0101 0.28708,-0.0113 a 0.14477818,0.14477818 0 0 1 0.0863,0.027 c 0.0858,0.0613 0.19178,0.0537 0.34136,0.0128 0.14959,-0.0408 0.31426,-0.11837 0.49631,-0.12591 a 0.14477818,0.14477818 0 0 1 0.1506,0.14194 c 0.0103,-10e-4 0.0141,-0.002 0.0255,-0.004 0.0366,-0.005 0.0803,-0.0141 0.13704,0.003 0.1086,-0.007 0.20343,0.006 0.28274,0.007 0.0881,0.002 0.1537,-0.005 0.22638,-0.0475 a 0.14477818,0.14477818 0 0 1 0.0788,-0.0194 c 0.19923,0.008 0.40547,0.004 0.61505,0.005 a 0.14477818,0.14477818 0 1 1 -0.001,0.28953 c -0.19559,-10e-4 -0.39678,0.002 -0.59961,-0.005 -0.11435,0.0522 -0.22887,0.0693 -0.32553,0.0671 -0.1117,-0.003 -0.2045,-0.015 -0.28161,-0.007 a 0.14477818,0.14477818 0 0 1 -0.0805,-0.0149 c 0.0327,0.0165 0.0178,0.005 -0.013,0.009 -0.0308,0.004 -0.0738,0.0138 -0.12686,0.0164 -0.0265,10e-4 -0.0565,10e-4 -0.0933,-0.009 -0.0368,-0.0101 -0.0833,-0.0357 -0.11309,-0.0786 -0.006,-0.009 -0.004,-0.0184 -0.008,-0.0275 -0.0893,0.0235 -0.17267,0.0457 -0.29254,0.0784 -0.16009,0.0438 -0.35455,0.0656 -0.52986,-0.0289 -0.0834,-5e-5 -0.15777,-0.004 -0.2064,0.005 -0.0557,0.0108 -0.0926,0.0257 -0.14891,0.10291 a 0.14477818,0.14477818 0 0 1 -0.005,0.006 c -0.041,0.0503 -0.0771,0.0879 -0.1263,0.1167 -0.0491,0.0287 -0.13215,0.0435 -0.19546,0.0117 -0.0633,-0.0319 -0.0875,-0.0801 -0.10349,-0.11649 -0.016,-0.0364 -0.0243,-0.0693 -0.0315,-0.1001 -0.004,-0.0149 -0.003,-0.0132 -0.006,-0.0269 -0.21651,-0.0126 -0.48442,0.0406 -0.75756,-0.0339 a 0.14477818,0.14477818 0 0 1 -0.10348,-0.10971 c -0.0286,-0.13577 -0.0645,-0.15652 -0.12309,-0.18283 -0.0586,-0.0263 -0.15443,-0.0319 -0.2686,-0.0765 a 0.14477818,0.14477818 0 0 1 -0.088,-0.10215 c -0.0521,-0.002 -0.12427,0.002 -0.19566,0 -0.14041,0.0316 -0.26365,-0.003 -0.35192,-0.0298 -0.0812,-0.0248 -0.12241,-0.0308 -0.15551,-0.0275 -0.12993,0.16018 -0.28449,0.2886 -0.45049,0.35079 -0.0941,0.0352 -0.19259,0.052 -0.29085,0.0341 -0.0648,-0.0118 -0.12406,-0.0474 -0.177,-0.0925 -0.0389,0.007 -0.077,0.0138 -0.13213,0.0273 -0.0679,0.0166 -0.1508,0.0324 -0.24316,0.0192 -0.15451,0.0162 -0.34029,0.0713 -0.54966,0.0532 -0.19847,0.0401 -0.40446,-0.0395 -0.51194,-0.2115 -0.11198,-0.17917 -0.11976,-0.43319 -0.001,-0.71647 a 0.14477818,0.14477818 0 0 1 0.13157,-0.0909 z m 0.93154,0.96565 c 0.004,0 0.008,-0.001 0.0115,-0.001 l -0.045,-0.003 c 0.0116,0.003 0.0223,0.003 0.0335,0.004 z m 1.80106,-0.2816 c 0.008,-0.002 0.0157,-0.003 0.0238,-0.005 l -0.0458,0.005 c 0.007,0 0.0146,0 0.0221,0 z m 3.62268,0.27049 c -0.0121,7.1e-4 -0.0235,7.1e-4 -0.036,0.002 l 0.0807,0.0149 c -0.016,-0.008 -0.0305,-0.0128 -0.0447,-0.0169 z m -6.46706,0.78545 a 0.14477818,0.14477818 0 0 1 0.1131,0.0556 c 0.0707,0.0879 0.1264,0.17849 0.17549,0.23129 0.0491,0.0528 0.0622,0.0608 0.10084,0.0538 a 0.14477818,0.14477818 0 0 1 0.12875,0.0401 c 0.17735,0.1777 0.44315,0.26 0.6863,0.1082 0.15295,-0.12157 0.35667,-0.19208 0.53005,-0.24296 0.17795,-0.0523 0.32477,-0.0784 0.32477,-0.0784 a 0.14477818,0.14477818 0 0 1 0.16964,0.12988 c 0.0119,0.13483 0.0218,0.27854 0.045,0.34947 0.009,0.0261 0.0151,0.0347 0.017,0.0375 0.003,-10e-4 0.006,-10e-4 0.0196,-0.006 a 0.14477818,0.14477818 0 0 1 0.0837,-0.004 c 0.0827,0.0216 0.1386,0.0443 0.18265,0.0722 0.0289,0.0183 0.0367,0.0302 0.0496,0.0439 0.006,0 0.0343,-10e-4 0.0577,-0.002 0.082,-0.0801 0.17438,-0.13696 0.2671,-0.15834 0.11471,-0.0264 0.22204,-0.0188 0.31535,-0.0117 a 0.14477818,0.14477818 0 0 1 0.01,10e-4 c 0.20469,0.0295 0.38062,0.0712 0.55965,0.0552 a 0.14477818,0.14477818 0 0 1 0.0371,10e-4 c 0.09,0.0153 0.15208,0.0666 0.1968,0.11027 0.0447,0.0437 0.0779,0.0847 0.1048,0.11008 0.0269,0.0253 0.0408,0.0307 0.0473,0.0317 0.006,10e-4 0.0236,0.004 0.0758,-0.0317 a 0.14477818,0.14477818 0 0 1 0.0266,-0.0143 c 0.17688,-0.072 0.34394,-0.0548 0.47671,-0.0194 0.13125,0.035 0.23626,0.0795 0.3276,0.092 0.29604,-0.0126 0.5651,0.0248 0.81279,-0.0224 0.0749,-0.0396 0.15289,-0.0579 0.22355,-0.0498 0.0802,0.009 0.13988,0.0449 0.18303,0.0728 0.0431,0.0279 0.0737,0.0491 0.0929,0.0573 0.0193,0.008 0.0226,0.01 0.0469,0.004 a 0.14477818,0.14477818 0 0 1 0.0845,0.002 c 0.0248,0.008 0.0699,-0.005 0.1572,-0.0467 0.0874,-0.042 0.21435,-0.11331 0.36983,-0.0669 l -0.0189,-0.004 c 0.016,0.002 0.0896,-0.0185 0.19943,-0.004 0.055,0.007 0.13509,0.0423 0.17568,0.11102 0.0199,0.0337 0.0118,0.0725 0.0164,0.10838 0.009,0.005 0.0171,0.0102 0.0262,0.0157 0.0247,0.0148 0.0486,0.0262 0.0718,0.0373 a 0.14477818,0.14477818 0 0 1 0.28349,0.0411 c 6.4e-4,0.0479 -0.005,0.0937 -0.0249,0.1393 -0.0201,0.0457 -0.0606,0.0896 -0.10707,0.111 -0.0929,0.0433 -0.16764,0.0163 -0.22544,-0.007 -0.0578,-0.022 -0.10712,-0.051 -0.14589,-0.074 -0.0194,-0.0116 -0.0362,-0.0216 -0.0469,-0.0279 -0.009,-0.006 -0.0172,-0.006 0.001,-10e-4 a 0.14477818,0.14477818 0 0 1 -0.10311,-0.15533 c 0.001,-0.0131 0.001,-0.004 0.001,-0.0113 -0.0292,0.004 -0.0754,0.0168 -0.16701,0.002 a 0.14477818,0.14477818 0 0 1 -0.019,-0.004 c -0.024,-0.007 -0.0729,0.008 -0.16173,0.0505 -0.0725,0.0348 -0.17807,0.0723 -0.29688,0.0622 -0.0844,0.0212 -0.16947,0.0101 -0.23034,-0.0158 -0.0625,-0.0266 -0.10488,-0.06 -0.13666,-0.0805 -0.0318,-0.0206 -0.0492,-0.0271 -0.0593,-0.0283 -0.0101,-10e-4 -0.0238,-0.003 -0.0681,0.0243 a 0.14477818,0.14477818 0 0 1 -0.0467,0.0186 c -0.32541,0.0674 -0.62489,0.0167 -0.89554,0.0307 a 0.14477818,0.14477818 0 0 1 -0.026,-7.1e-4 c -0.14763,-0.0191 -0.26554,-0.0729 -0.36889,-0.10046 -0.1021,-0.0272 -0.18223,-0.0357 -0.28896,0.007 -0.0842,0.0516 -0.17313,0.0776 -0.25673,0.0656 -0.0911,-0.0131 -0.15762,-0.0634 -0.2047,-0.10781 -0.0471,-0.0444 -0.0812,-0.0869 -0.10839,-0.11347 -0.0269,-0.0263 -0.0408,-0.0313 -0.0426,-0.0317 -0.21757,0.0125 -0.40842,-0.0293 -0.58244,-0.0549 -0.0879,-0.006 -0.16535,-0.009 -0.2262,0.005 -0.0614,0.0142 -0.10875,0.038 -0.16304,0.10783 a 0.14477818,0.14477818 0 0 1 -0.10236,0.0554 c -0.0792,0.006 -0.12725,0.009 -0.17736,0.002 -0.0501,-0.007 -0.11447,-0.0467 -0.13459,-0.0688 -0.0201,-0.0221 -0.009,-0.0128 -0.0172,-0.0179 -0.006,-0.004 -0.0397,-0.0171 -0.0839,-0.0303 -0.0716,0.0106 -0.14502,0.007 -0.20338,-0.0311 -0.0767,-0.0498 -0.11285,-0.12377 -0.13554,-0.19283 -0.0273,-0.083 -0.0277,-0.16533 -0.035,-0.24938 -0.0533,0.0118 -0.0664,0.0118 -0.14777,0.0356 -0.16172,0.0474 -0.35153,0.12486 -0.43957,0.19774 a 0.14477818,0.14477818 0 0 1 -0.0151,0.0107 c -0.35101,0.22161 -0.7528,0.11447 -1.01052,-0.11874 -0.11157,-0.0118 -0.2118,-0.062 -0.27444,-0.12932 -0.08,-0.086 -0.13629,-0.18149 -0.18906,-0.24711 a 0.14477818,0.14477818 0 0 1 0.11253,-0.23693 z m 4.43735,1.1502 c 0.008,-0.005 0.0153,-0.008 0.0228,-0.0132 l -0.0266,0.0143 c 0.001,0 0.002,0 0.004,-10e-4 z m 1.504,-0.21696 c -0.0101,0.005 -0.0202,0.01 -0.0301,0.0158 l 0.0467,-0.0185 c -0.006,10e-4 -0.0111,10e-4 -0.0166,0.003 z m -3.65039,-0.24881 c -0.004,7.1e-4 -0.002,7.1e-4 10e-4,0.003 0.001,7.1e-4 -6.4e-4,-0.002 -10e-4,-0.003 z m -1.08648,-0.19547 c -0.004,0.003 -0.009,0.006 -0.0124,0.009 l 0.0149,-0.0107 c -7.1e-4,0 -10e-4,7.1e-4 -0.002,0.001 z m -0.7323,1.6297 c 0.15974,0 0.30196,0.0383 0.42392,0.0603 0.11447,0 0.20383,0.0411 0.27106,0.0589 0.0721,0.0184 0.10188,0.022 0.14646,-0.007 a 0.14477818,0.14477818 0 0 1 0.0997,-0.0184 c 0.24785,0.0433 0.49798,0.0875 0.74738,0.14104 0.21236,-0.0721 0.41754,-0.0603 0.60149,-0.0121 0.25758,0.0503 0.50404,0.13771 0.73889,0.25032 0.27922,0.039 0.51131,0.12374 0.73438,0.0842 0.14871,-0.0397 0.30913,-0.0932 0.47783,-0.10707 0.17264,-0.0142 0.36769,0.0248 0.51139,0.17607 a 0.14477818,0.14477818 0 0 1 0.0335,0.0581 c 0.0242,0.0797 0.0496,0.11233 0.0652,0.1314 0.0103,-0.0113 0.0223,-0.0191 0.0418,-0.0666 0.0269,-0.0652 0.0513,-0.16416 0.0624,-0.28975 a 0.14477818,0.14477818 0 0 1 0.16984,-0.12969 c 0.38662,0.0695 0.77974,0.1421 1.16848,0.21223 a 0.14477818,0.14477818 0 0 1 0.023,0.007 c 0.20775,0.0741 0.45755,0.0248 0.73324,-0.0805 a 0.14479069,0.14479069 0 1 1 0.1033,0.27053 c -0.29372,0.11204 -0.60844,0.18862 -0.91307,0.0884 -0.34356,-0.0617 -0.68885,-0.12537 -1.0305,-0.18713 -0.0148,0.0756 -0.0242,0.16004 -0.0488,0.21975 -0.0418,0.10162 -0.0949,0.18554 -0.18642,0.23574 -0.0915,0.05 -0.22533,0.03 -0.3031,-0.038 -0.0663,-0.058 -0.10821,-0.14058 -0.14307,-0.23936 -0.0731,-0.0695 -0.14788,-0.0873 -0.26351,-0.0778 -0.12283,0.01 -0.27663,0.0581 -0.43882,0.10084 a 0.14477818,0.14477818 0 0 1 -0.0115,0 c -0.32787,0.0582 -0.60403,-0.0553 -0.84465,-0.0862 a 0.14477818,0.14477818 0 0 1 -0.0452,-0.0135 c -0.22373,-0.10913 -0.45632,-0.19082 -0.69687,-0.23748 a 0.14477818,0.14477818 0 0 1 -0.01,0 c -0.17531,-0.0468 -0.315,-0.0596 -0.47896,0.0106 a 0.14477818,0.14477818 0 0 1 -0.088,0.009 c -0.24238,-0.0525 -0.48967,-0.0956 -0.73833,-0.13912 -0.10572,0.0354 -0.2122,0.0347 -0.29104,0.0142 -0.0984,-0.0255 -0.17207,-0.0518 -0.21752,-0.0511 a 0.14477818,0.14477818 0 0 1 -0.0277,0 c -0.13761,-0.0248 -0.26486,-0.056 -0.37849,-0.0567 -0.11364,0 -0.21085,0.0213 -0.32252,0.11183 l 0.0109,-0.01 c -0.11748,0.11708 -0.27016,0.11991 -0.34004,0.12062 -0.014,7e-5 -0.007,0 -0.0145,0 a 0.14477818,0.14477818 0 0 1 -0.17211,0.0835 c -0.0998,-0.0277 -0.21682,-0.0411 -0.34286,-0.0667 a 0.14477818,0.14477818 0 1 1 0.0581,-0.2835 c 0.0777,0.0163 0.16959,0.0326 0.25975,0.0511 0.0183,-0.0184 0.0357,-0.039 0.0571,-0.0489 0.065,-0.0291 0.11433,-0.0248 0.15174,-0.0255 0.0748,-7.1e-4 0.0978,0.007 0.13854,-0.0362 a 0.14477818,0.14477818 0 0 1 0.0109,-0.01 c 0.16421,-0.13353 0.34567,-0.17771 0.50687,-0.17664 z m 6.24029,0.82902 c 6.4e-4,7e-5 0.001,0 0.002,0 l -0.0228,-0.007 c 0.007,0 0.0138,0.007 0.0207,0.007 z m -5.81637,-0.76846 c -0.008,0 -0.0155,0 -0.024,0 l 0.0275,0 c -0.001,0 -0.002,0 -0.004,-7.1e-4 z m -1.09873,2.09618 c 0.0761,0 0.15655,0.029 0.21809,0.082 l 3.2e-4,0 c 0.3219,0.2657 0.59431,0.5937 0.89346,0.6422 0.26871,0.015 0.59312,-0.1192 0.95585,-0.1164 a 0.14477818,0.14477818 0 0 1 0.004,0 c 0.10703,0 0.25046,-0.03 0.40375,-0.044 0.1533,-0.013 0.34257,0 0.47576,0.1476 a 0.14477818,0.14477818 0 0 1 0.0192,0.026 c 0.0486,0.085 0.10257,0.1115 0.19472,0.1302 0.0921,0.019 0.21492,0.015 0.34438,0.021 a 0.14477818,0.14477818 0 0 1 0.006,0 c 0.22438,0.02 0.43847,0 0.62788,-0.095 0.11027,-0.075 0.23274,-0.085 0.32477,-0.08 0.0964,0.01 0.16874,0.016 0.21771,0.01 a 0.14477818,0.14477818 0 0 1 0.0307,0 c 0.1288,0.01 0.29151,-0.017 0.4603,0.012 a 0.14477818,0.14477818 0 0 1 0.10895,0.088 c 0.0102,0 0.025,0 0.0662,0.033 0.008,0.01 0.0118,0.023 0.0198,0.033 0.025,0.017 0.0447,0.025 0.0816,0.023 0.0433,0 0.10399,-0.022 0.17172,-0.046 0.0677,-0.024 0.1415,-0.054 0.23167,-0.06 0.0631,-0.01 0.13517,0.021 0.20017,0.061 0.0832,-0.011 0.16471,-0.01 0.23034,0.022 0.0871,0.037 0.15327,0.091 0.21074,0.1389 0.0575,0.048 0.10717,0.089 0.14326,0.1089 0.0127,0.01 0.0155,0 0.0234,0.01 0.0121,-0.022 0.0184,-0.041 0.0349,-0.063 0.0395,-0.055 0.10207,-0.1208 0.20396,-0.1308 a 0.14479587,0.14479587 0 0 1 0.0432,0.2857 c -6.4e-4,0 -0.005,0.01 -0.0126,0.015 -0.0164,0.023 -0.0368,0.063 -0.0549,0.1029 a 0.14477818,0.14477818 0 0 1 -0.0922,0.079 c -0.10602,0.031 -0.21131,0 -0.2867,-0.041 -0.0754,-0.042 -0.13333,-0.095 -0.1868,-0.1389 -0.0535,-0.044 -0.10166,-0.079 -0.1393,-0.095 -0.0377,-0.016 -0.0591,-0.02 -0.10141,-0.01 a 0.14477818,0.14477818 0 0 1 -0.16078,-0.045 c -0.0153,-0.018 -0.004,-0.014 -0.034,-0.011 -0.0295,0 -0.0878,0.02 -0.15683,0.045 -0.0691,0.024 -0.14975,0.054 -0.24485,0.062 -0.0951,0.01 -0.21037,-0.016 -0.30291,-0.092 a 0.14477818,0.14477818 0 0 1 -0.0358,-0.044 c -0.02,-0.012 -0.0351,-0.024 -0.0569,-0.045 -0.10055,-0.01 -0.22607,0 -0.36795,-0.01 -0.10627,0.014 -0.19477,0 -0.2603,-0.01 -0.0701,-0.01 -0.10545,0 -0.15193,0.034 a 0.14477818,0.14477818 0 0 1 -0.0194,0.012 c -0.25708,0.1344 -0.53477,0.1518 -0.79243,0.128 l 0.006,0 c -0.11069,-0.01 -0.24688,0 -0.38867,-0.027 -0.13461,-0.028 -0.28028,-0.1021 -0.37341,-0.2477 -0.0518,-0.054 -0.1147,-0.062 -0.23279,-0.052 -0.12092,0.011 -0.27338,0.05 -0.43863,0.045 l 0.004,0 c -0.28053,0 -0.61201,0.14 -0.97866,0.1168 a 0.14477818,0.14477818 0 0 1 -0.0124,0 c -0.46148,-0.069 -0.75648,-0.4733 -1.04238,-0.7088 a 0.14477818,0.14477818 0 0 1 -0.002,0 c -0.026,-0.022 -0.0187,-0.016 -0.0317,-0.013 -0.013,0 -0.0487,0.023 -0.089,0.065 -0.0805,0.083 -0.17232,0.2347 -0.24598,0.3603 a 0.14477818,0.14477818 0 1 1 -0.24976,-0.1464 c 0.0734,-0.1252 0.16652,-0.2905 0.28802,-0.4156 0.0608,-0.062 0.13039,-0.1192 0.2245,-0.1434 l 0,0 c 0.0235,-0.01 0.0484,-0.01 0.0737,-0.01 z m 2.73355,0.9041 c 0.001,0 0.003,0 0.004,0 l -0.019,-0.026 c 0.005,0.01 0.0101,0.015 0.0151,0.023 z m 1.97956,0.1063 c 0.007,0 0.0142,0 0.0218,0 l -0.0307,0 c 0.003,0 0.006,0 0.009,0 z m 2.23385,0.2213 c 7.1e-4,0 -0.003,0 -0.0149,0 a 0.14479587,0.14479587 0 0 0 0.0149,0 z m -2.80329,-0.4366 c -0.005,0.01 -0.0106,0.01 -0.0158,0.011 l 0.0194,-0.012 c -0.001,0 -0.002,0 -0.004,0 z m -2.59801,3.9467 c 0.26136,0.2776 0.45427,0.6215 0.54267,1.0112 0.1541,0.6793 0.12538,1.2666 -0.0718,1.7534 -0.18368,0.4536 -0.51034,0.8032 -0.90458,1.0552 l 9.62622,0 c 0.58636,0 1.00985,-0.2305 1.30664,-0.5811 0.29675,-0.3507 0.45457,-0.8327 0.43448,-1.3131 -0.008,-0.1815 -0.0396,-0.3616 -0.0976,-0.5347 l -2.83721,-0.3331 1.70531,-0.8331 c -0.33767,-0.1397 -0.75664,-0.2247 -1.27347,-0.2247 l -8.4306,0 z m -1.73171,0.02 c -0.0467,0 -0.0935,0 -0.14024,0.01 -0.10685,0.01 -0.21339,0.031 -0.31761,0.066 -0.61322,0.2037 -1.02816,0.8742 -0.81599,1.4848 0.14907,0.4289 0.62275,0.7187 1.04106,0.5656 l 0.0632,-0.023 1.75941,0 c 0.0384,-0.2581 0.0307,-0.5633 -0.055,-0.9411 -0.15057,-0.6639 -0.83376,-1.156 -1.53473,-1.1583 l 0,0 z"
         style="fill:#42290d;fill-opacity:1;fill-rule:evenodd" />
    </g>
    <g
       id="g8986"
       transform="matrix(0.84382266,0,0,0.84382266,-23.703586,161.69149)">
      <g
         id="g8960"
         transform="matrix(0.4597605,0.06435895,-0.06435895,0.4597605,157.56766,536.49688)">
        <rect
           style="opacity:1;fill:#000000;fill-opacity:1;stroke:none;stroke-width:1;stroke-linecap:round;stroke-linejoin:round;stroke-miterlimit:4;stroke-dasharray:none;stroke-dashoffset:0;stroke-opacity:1;filter:url(#filter7729)"
           id="rect8962"
           width="76.785713"
           height="77.864571"
           x="44.857143"
           y="1025.5562"
           ry="4.4577951" />
        <rect
           ry="4.4577951"
           y="1023.5561"
           x="42.857143"
           height="77.864571"
           width="76.785713"
           id="rect8964"
           style="opacity:1;fill:#d8c586;fill-opacity:1;stroke:none;stroke-width:1;stroke-linecap:round;stroke-linejoin:round;stroke-miterlimit:4;stroke-dasharray:none;stroke-dashoffset:0;stroke-opacity:1" />
        <path
           id="path8966"
           d="m 68.890016,1032.2755 -8.846547,22.0795 17.693094,0 -8.846547,-22.0795 z m -9.514791,24.1556 0,36.375 5.362577,0 0,-9.3425 c 2.599548,-2.8667 5.340788,-3.3231 8.304429,0 l 0,9.3425 5.190263,0 0,-36.375 -18.857269,0 z m 4.324528,2.1191 2.076107,0 0,4.1522 -2.076107,0 0,-4.1522 z m 4.152205,0 2.076117,0 0,4.1522 -2.076117,0 0,-4.1522 z m 4.152214,0 2.076108,0 0,4.1522 -2.076108,0 0,-4.1522 z m 8.30442,6.1913 0,28.0646 6.228322,0 0,-21.4077 c -0.336723,-0.3869 -1.750419,-2.0073 -3.456721,-3.8356 -0.9602,-1.0289 -1.954393,-2.0565 -2.753434,-2.8055 -0.0074,-0.01 -0.01087,-0.01 -0.0182,-0.016 z m -23.009474,0.1645 c -0.772051,0.7341 -1.697739,1.6908 -2.599408,2.6568 -1.706303,1.8283 -3.119998,3.449 -3.456721,3.8357 l 0,21.4076 6.055999,0 0,-27.9003 z m 11.590898,0.9537 c 4.013755,0 7.2905,3.1297 7.2905,6.964 0,3.8339 -3.276745,6.964 -7.2905,6.964 -4.013764,0 -7.290499,-3.1301 -7.290499,-6.964 0,-3.8343 3.276735,-6.964 7.290499,-6.964 z m -1.167806,2.1558 c -0.620496,0.1357 -1.197657,0.376 -1.709163,0.7027 l 1.709163,1.6812 0,-2.3837 z m 2.335613,0 0,2.5753 1.964516,-1.6984 c -0.571838,-0.4155 -1.238392,-0.7183 -1.964516,-0.8771 z m -5.528927,2.1546 c -0.347747,0.5225 -0.595327,1.1121 -0.717552,1.7453 l 2.491328,0 -1.773776,-1.7453 z m 8.886381,0.2628 -1.714995,1.4827 2.268147,0 c -0.101857,-0.5292 -0.290656,-1.0282 -0.553152,-1.4827 z m 15.197744,1.7419 0,3.8927 20.277059,0 -3.89269,-3.8927 -16.384369,0 z m -24.67127,2.076 c 0.128847,0.4119 0.311934,0.8006 0.541858,1.159 l 1.340389,-1.159 -1.882117,0 z m 7.695858,0 1.463394,1.4398 c 0.322577,-0.4327 0.573789,-0.9173 0.737279,-1.4398 l -2.200673,0 z m -3.915399,1.1034 -1.772736,1.5328 c 0.527332,0.3478 1.126281,0.6034 1.772736,0.7446 l 0,-2.2772 z m 2.335613,0.2551 0,2.0222 c 0.529923,-0.1157 1.028194,-0.3078 1.48104,-0.5653 l -1.48104,-1.4569 z m 18.555198,2.7937 0,14.2732 21.928859,0 0,-14.2732 -21.928859,0 z m 3.243913,2.9844 2.335624,0 0,4.1522 -2.335624,0 0,-4.1522 z m 4.152207,0 2.335623,0 0,4.1522 -2.335623,0 0,-4.1522 z m 4.152219,0 2.33562,0 0,4.1522 -2.33562,0 0,-4.1522 z m 4.15221,0 2.33561,0 0,4.1522 -2.33561,0 0,-4.1522 z"
           inkscape:connector-curvature="0"
           style="fill:#42290d;fill-opacity:1" />
        <path
           style="opacity:1;fill:#000000;fill-opacity:1;stroke:none;stroke-width:1;stroke-linecap:round;stroke-linejoin:round;stroke-miterlimit:4;stroke-dasharray:none;stroke-dashoffset:0;stroke-opacity:1"
           d="m 46.227399,1023.077 c -2.658214,0 -4.798828,2.1387 -4.798828,4.7969 l 0,69.332 c 0,2.6582 2.140614,4.7988 4.798828,4.7988 l 69.332031,0 c 2.65821,0 4.79687,-2.1406 4.79687,-4.7988 l 0,-69.332 c 0,-2.6582 -2.13866,-4.7969 -4.79687,-4.7969 l -69.332031,0 z m 4.234375,4.8203 60.861326,0 c 2.33346,0 4.21289,1.8795 4.21289,4.2129 l 0,60.8613 c 0,2.3335 -1.87943,4.2129 -4.21289,4.2129 l -60.861326,0 c -2.333455,0 -4.210937,-1.8794 -4.210937,-4.2129 l 0,-60.8613 c 0,-2.3334 1.877482,-4.2129 4.210937,-4.2129 z"
           id="path8968"
           inkscape:connector-curvature="0" />
        <path
           inkscape:connector-curvature="0"
           id="path8970"
           d="m 46.227399,1023.077 c -2.658214,0 -4.798828,2.1387 -4.798828,4.7969 l 0,69.332 c 0,2.6582 2.140614,4.7988 4.798828,4.7988 l 69.332031,0 c 2.65821,0 4.79687,-2.1406 4.79687,-4.7988 l 0,-69.332 c 0,-2.6582 -2.13866,-4.7969 -4.79687,-4.7969 l -69.332031,0 z m 4.234375,4.8203 60.861326,0 c 2.33346,0 4.21289,1.8795 4.21289,4.2129 l 0,60.8613 c 0,2.3335 -1.87943,4.2129 -4.21289,4.2129 l -60.861326,0 c -2.333455,0 -4.210937,-1.8794 -4.210937,-4.2129 l 0,-60.8613 c 0,-2.3334 1.877482,-4.2129 4.210937,-4.2129 z"
           style="opacity:1;fill:#42290d;fill-opacity:1;stroke:none;stroke-width:1;stroke-linecap:round;stroke-linejoin:round;stroke-miterlimit:4;stroke-dasharray:none;stroke-dashoffset:0;stroke-opacity:1" />
      </g>
      <g
         transform="matrix(0.27688801,-0.16316065,0.16316065,0.27688801,37.900957,759.80974)"
         id="text8048"
         style="font-style:normal;font-variant:normal;font-weight:normal;font-stretch:normal;font-size:40px;line-height:125%;font-family:'Archivo Black';-inkscape-font-specification:'Archivo Black, ';text-align:start;letter-spacing:0px;word-spacing:0px;writing-mode:lr-tb;text-anchor:start;fill:#ff0000;fill-opacity:1;stroke:none;stroke-width:1px;stroke-linecap:butt;stroke-linejoin:miter;stroke-opacity:1">
        <path
           inkscape:connector-curvature="0"
           id="path8053"
           style="fill:#ff0000"
           d="m -248.56797,882.65649 8.84,0 0,-9.88 11.52,0 0,-6.32 -11.52,0 0,-4.72 13.4,0 0,-6.6 -22.24,0 0,27.52 z" />
        <path
           inkscape:connector-curvature="0"
           id="path8055"
           style="fill:#ff0000"
           d="m -197.79922,882.65649 -10.04,-27.52 -10.28,0 -10.04,27.52 9.04,0 1.16,-3.88 9.64,0 1.16,3.88 9.36,0 z m -15.4,-19.84 0.16,0 2.88,9.8 -5.96,0 2.92,-9.8 z" />
        <path
           inkscape:connector-curvature="0"
           id="path8057"
           style="fill:#ff0000"
           d="m -185.66547,866.89649 0,-11.76 -8.84,0 0,27.52 8.84,0 0,-6.16 4.8,-3.92 5.72,10.08 10.44,0 -10.08,-16.2 9.88,-11.32 -10.96,0 -9.8,11.76 z" />
        <path
           inkscape:connector-curvature="0"
           id="path8059"
           style="fill:#ff0000"
           d="m -161.14609,882.65649 24.08,0 0,-6.6 -15.24,0 0,-4.2 12.8,0 0,-6.32 -12.8,0 0,-3.8 14.96,0 0,-6.6 -23.8,0 0,27.52 z" />
      </g>
    </g>
  </g>
</svg>
