<?xml version="1.0" encoding="UTF-8" standalone="no"?>
<!-- Created with Inkscape (http://www.inkscape.org/) -->

<svg
   xmlns:dc="http://purl.org/dc/elements/1.1/"
   xmlns:cc="http://creativecommons.org/ns#"
   xmlns:rdf="http://www.w3.org/1999/02/22-rdf-syntax-ns#"
   xmlns:svg="http://www.w3.org/2000/svg"
   xmlns="http://www.w3.org/2000/svg"
   xmlns:sodipodi="http://sodipodi.sourceforge.net/DTD/sodipodi-0.dtd"
   xmlns:inkscape="http://www.inkscape.org/namespaces/inkscape"
   width="75"
   height="75"
   viewBox="0 0 75.000001 75.000001"
   id="svg5199"
   version="1.1"
   inkscape:version="0.91 r13725"
   sodipodi:docname="figure_alerts_power_on.svg">
  <defs
     id="defs5201" />
  <sodipodi:namedview
     id="base"
     pagecolor="#ffffff"
     bordercolor="#666666"
     borderopacity="1.0"
     inkscape:pageopacity="0.0"
     inkscape:pageshadow="2"
     inkscape:zoom="3.959798"
     inkscape:cx="66.727395"
     inkscape:cy="6.543951"
     inkscape:document-units="px"
     inkscape:current-layer="layer1"
     showgrid="false"
     units="px"
     borderlayer="true"
     inkscape:window-width="1280"
     inkscape:window-height="961"
     inkscape:window-x="1912"
     inkscape:window-y="-8"
     inkscape:window-maximized="1" />
  <metadata
     id="metadata5204">
    <rdf:RDF>
      <cc:Work
         rdf:about="">
        <dc:format>image/svg+xml</dc:format>
        <dc:type
           rdf:resource="http://purl.org/dc/dcmitype/StillImage" />
        <dc:title />
      </cc:Work>
    </rdf:RDF>
  </metadata>
  <g
     inkscape:label="Layer 1"
     inkscape:groupmode="layer"
     id="layer1"
     transform="translate(0,-977.36216)">
    <rect
       ry="5.2912221"
       y="977.36218"
       x="6.3343717e-009"
       height="75"
       width="75"
       id="rect5149"
       style="fill:#42290d;fill-opacity:1;stroke:none;stroke-width:1.74198794;stroke-miterlimit:4;stroke-dasharray:none;stroke-opacity:1" />
    <g
       id="g4171"
       transform="translate(4.6314497,0)">
      <g
         style="opacity:1;fill:#d8c586;fill-opacity:1"
         transform="matrix(0.59413673,0,0,0.59512313,-307.57873,647.79227)"
         id="g6324">
        <path
           style="fill:#d8c586;fill-opacity:1;stroke-linecap:round;stroke-linejoin:round"
           inkscape:connector-curvature="0"
           id="path6300"
           d="m 525.65901,625.00231 1.94807,9.9888 -7.17953,1.5595 c -0.26665,0.0574 -0.4583,0.29137 -0.46207,0.5641 l -0.0654,4.7112 c -0.006,0.3994 0.38172,0.68693 0.76242,0.566 l 9.02373,-2.8841 1.48619,-0.2882 c 0.0109,2e-4 0.0217,8e-4 0.0326,8e-4 0.61338,0 1.19103,-0.2922 1.59444,-0.7684 0.40311,-0.4759 0.61399,-1.096 0.61338,-1.7349 l 0,0 c 3.2e-4,-0.405 -0.0845,-0.8032 -0.24921,-1.1616 l -1.55704,-8.0443 z m 1.30079,0.5469 0.9866,0.416 1.83175,8.5978 c -0.18513,-0.057 -0.37846,-0.087 -0.57555,-0.087 -0.16782,0 -0.33269,0.023 -0.49212,0.064 l -1.75068,-8.9909 z m 2.30127,0.9702 1.0484,0.442 1.417,7.321 c -0.16831,-0.046 -0.34278,-0.071 -0.52041,-0.071 -0.10122,0 -0.20121,0.01 -0.29973,0.024 l -1.6452,-7.7159 z m 1.94493,8.8665 c 0.23799,0 0.50876,0.1218 0.70678,0.3556 0.19807,0.2338 0.33472,0.6093 0.33417,0.9731 6.2e-4,0.3638 -0.13616,0.7393 -0.33411,0.9731 -0.094,0.1109 -0.20429,0.1957 -0.31963,0.2552 l -0.37846,0.073 c 0.12974,-0.3249 0.19616,-0.6778 0.19579,-1.0367 l 0,0 c 2.5e-4,-0.2325 -0.0278,-0.4627 -0.0827,-0.6843 0.002,-0.0465 -0.002,-0.093 -0.0119,-0.1385 l -0.16363,-0.7675 0.0536,0 z m -2.0034,0.2649 c 0.23806,0 0.50889,0.1218 0.70696,0.3556 0.19802,0.2338 0.33455,0.6094 0.33405,0.9732 6.4e-4,0.3638 -0.13616,0.7393 -0.33411,0.9731 -0.19807,0.2338 -0.46884,0.3557 -0.70696,0.3557 -0.23799,0 -0.50723,-0.122 -0.70524,-0.3557 -0.198,-0.2338 -0.33626,-0.6093 -0.33576,-0.9731 -6.4e-4,-0.3638 0.13776,-0.7394 0.33576,-0.9732 0.19801,-0.2338 0.46725,-0.3556 0.70524,-0.3556 z m -2.12526,0.6524 c -0.0536,0.2193 -0.0811,0.4467 -0.0808,0.6764 l 0,0 c -6.3e-4,0.6388 0.21009,1.259 0.6132,1.7349 0.0516,0.061 0.10614,0.1189 0.16313,0.1735 l -6.68979,2.1381 0.0482,-3.4328 5.94611,-1.2917 z"
           sodipodi:nodetypes="ccccccccscccccccccsccccccsccccccccccccccccscccscccssccccccccc" />
        <path
           d="m 557.57911,623.18801 c 0.36275,-0.83791 0.62263,-1.77224 0.75319,-2.81716 l 0.004,-0.008 c 10e-4,-0.0107 0.002,-0.0215 0.002,-0.0324 4.3e-4,-0.009 8.9e-4,-0.0172 3.5e-4,-0.026 3e-4,-0.0108 -5.1e-4,-0.0215 -10e-4,-0.0322 -5e-4,-0.009 -0.001,-0.0178 -0.002,-0.0265 -6.2e-4,-0.0112 -0.003,-0.022 -0.004,-0.0329 -0.002,-0.008 -0.003,-0.0166 -0.004,-0.0249 -0.002,-0.0106 -0.005,-0.0218 -0.008,-0.0325 -0.002,-0.008 -0.004,-0.0165 -0.007,-0.0246 -0.003,-0.0101 -0.007,-0.0209 -0.0105,-0.0311 -0.003,-0.008 -0.006,-0.016 -0.009,-0.0239 -0.004,-0.0105 -0.009,-0.0206 -0.0139,-0.0309 -0.004,-0.007 -0.007,-0.0142 -0.0105,-0.0211 -0.005,-0.01 -0.0118,-0.0208 -0.0182,-0.0309 -0.004,-0.007 -0.008,-0.0133 -0.0122,-0.0197 -0.007,-0.009 -0.0129,-0.0186 -0.0197,-0.0275 -0.005,-0.006 -0.0102,-0.0131 -0.0155,-0.0197 -0.007,-0.009 -0.0148,-0.0173 -0.0228,-0.0254 -0.006,-0.006 -0.0113,-0.0125 -0.0171,-0.0183 -0.008,-0.008 -0.0163,-0.0158 -0.025,-0.0228 -0.006,-0.006 -0.0122,-0.0118 -0.0188,-0.0169 -0.0112,-0.009 -0.0224,-0.0184 -0.0344,-0.0263 l -5.78328,-4.00456 c -0.2286,-0.15826 -0.537,-0.13378 -0.73783,0.0584 l -3.96138,3.79236 -4.66387,4.4628 -6.07429,5.81523 -0.004,0.009 c -0.008,0.009 -0.0162,0.0173 -0.0244,0.0261 -0.006,0.005 -0.0121,0.0103 -0.0177,0.0159 -0.008,0.009 -0.0152,0.0176 -0.0225,0.0268 -0.007,0.006 -0.0132,0.0129 -0.0194,0.0196 -0.004,0.009 -0.008,0.0182 -0.0118,0.0274 -0.004,0.009 -0.008,0.0181 -0.0118,0.0273 -0.004,0.008 -0.007,0.0162 -0.0105,0.0243 -0.005,0.01 -0.009,0.0201 -0.0135,0.0303 -0.003,0.006 -0.006,0.0138 -0.008,0.0208 l -1.7414,4.84541 c -0.0714,0.20056 -0.0283,0.42406 0.11254,0.58366 l 4.81212,5.47273 4.8e-4,9e-4 9e-5,4e-5 -7.9e-4,0.002 c 0.23004,0.26662 0.64179,0.27106 0.87765,0.01 0.43184,-0.33592 0.79694,-0.71601 1.10321,-1.13088 l 14.28632,-14.48689 c 0.0119,-0.0125 0.0234,-0.0255 0.0343,-0.039 0.54305,-0.65902 1.00914,-1.40032 1.3721,-2.23819 z m -0.13161,-1.82549 c -0.0304,0.0717 -0.0748,0.13666 -0.13056,0.19102 l -13.70048,13.59064 c -0.202,0.20058 -0.51898,0.2269 -0.75129,0.0624 -0.0196,-0.027 -0.0414,-0.0523 -0.0653,-0.0757 l -0.0966,-0.0979 c -0.14082,-0.23136 -0.10467,-0.52909 0.0874,-0.72002 l 13.70231,-13.58979 c 0.45343,-0.45681 1.20468,0.0465 0.95474,0.63959 z m -15.99774,17.0647 c -0.10761,0.24881 -0.24246,0.48248 -0.39947,0.70441 l -0.68395,0.69358 -2.25485,-2.56415 c 0.20714,0.15083 0.42328,0.27558 0.6377,0.3655 0.49608,0.20803 0.97377,0.22383 1.29804,0.0349 0.32428,-0.18899 0.48265,-0.5758 0.43565,-1.04499 -0.012,-0.11593 -0.0358,-0.23734 -0.0708,-0.35995 0.0318,0.0549 0.0682,0.10936 0.11073,0.16113 0.12119,0.14754 0.28149,0.27267 0.44215,0.34027 0.16105,0.0675 0.31957,0.0748 0.42853,0.0133 0.0547,-0.0306 0.0949,-0.0758 0.11866,-0.13328 0.024,-0.0574 0.0321,-0.12719 0.024,-0.20148 -0.0173,-0.14891 -0.0993,-0.31681 -0.22068,-0.46464 -0.12165,-0.14773 -0.28135,-0.27272 -0.44241,-0.34017 -0.16095,-0.0674 -0.31947,-0.0748 -0.4285,-0.0134 -0.10838,0.0616 -0.15806,0.18657 -0.14445,0.33396 -0.11792,-0.28031 -0.28661,-0.56337 -0.49693,-0.82524 -0.38016,-0.47375 -0.88619,-0.86836 -1.38245,-1.07623 -0.49608,-0.20803 -0.97697,-0.22121 -1.30126,-0.0322 -0.32435,0.1889 -0.47944,0.5729 -0.43224,1.04212 0.0297,0.2933 0.13748,0.61593 0.30703,0.93226 l -0.80078,-0.9109 1.30851,-3.64611 4.31319,4.36623 c 0.08,1.01699 -0.0405,1.88025 -0.36953,2.62337 z"
           id="path6302"
           inkscape:connector-curvature="0"
           style="fill:#d8c586;fill-opacity:1;stroke-linecap:round;stroke-linejoin:round"
           sodipodi:nodetypes="cccccccccccccccccccccccccccccccccccccccccccccccccccccccccccccccccccccccccccccccccccccccc" />
        <path
           style="fill:#d8c586;fill-opacity:1"
           inkscape:connector-curvature="0"
           d="m 526.02681,607.50554 1.12689,7.14648 -2.91854,-0.74553 4.51983,9.87315 -1.12792,-7.14503 2.91969,0.7441 -4.52014,-9.8733 z"
           id="path6308"
           sodipodi:nodetypes="cccccccc" />
        <path
           sodipodi:nodetypes="cccccccc"
           id="path6322"
           d="m 542.72268,609.72784 -4.0292,6.00895 -1.6347,-2.5301 -3.39261,10.31495 4.02745,-6.00861 1.63652,2.52986 3.39248,-10.31527 z"
           inkscape:connector-curvature="0"
           style="fill:#d8c586;fill-opacity:1" />
      </g>
      <path
         inkscape:transform-center-y="-1.2912422"
         inkscape:transform-center-x="1.2464544"
         sodipodi:nodetypes="cccccccc"
         inkscape:connector-curvature="0"
         id="rect4808"
         d="m 45.202467,1022.2317 -9.340278,-7.4818 0,4.0955 -10.24033,0 0,7.1166 10.24033,0 0,3.7515 z"
         style="opacity:1;fill:#d8c586;fill-opacity:1;stroke:none;stroke-width:1.10099995;stroke-linecap:round;stroke-linejoin:round;stroke-miterlimit:4;stroke-dasharray:none;stroke-dashoffset:0;stroke-opacity:1" />
      <path
         style="opacity:1;fill:#d8c586;fill-opacity:1;stroke-linecap:round;stroke-linejoin:round"
         inkscape:connector-curvature="0"
         id="path4833"
         d="m 48.543076,1012.0591 c -0.617228,0 -1.266688,0.09 -1.950031,0.2893 a 0.39564976,0.39643846 0 0 0 -0.0056,0 0.39564976,0.39643846 0 0 0 -0.0208,0 0.39564976,0.39643846 0 0 0 -0.01631,0 0.39564976,0.39643846 0 0 0 -0.01961,0.014 0.39564976,0.39643846 0 0 0 -0.01583,0.014 0.39564976,0.39643846 0 0 0 -0.01938,0.014 0.39564976,0.39643846 0 0 0 -0.01418,0.014 0.39564976,0.39643846 0 0 0 -0.0182,0.014 0.39564976,0.39643846 0 0 0 -0.01276,0.014 0.39564976,0.39643846 0 0 0 -0.01654,0.014 0.39564976,0.39643846 0 0 0 -0.01276,0.014 0.39564976,0.39643846 0 0 0 -0.0156,0.017 0.39564976,0.39643846 0 0 0 -0.0099,0.014 0.39564976,0.39643846 0 0 0 -0.01442,0.02 0.39564976,0.39643846 0 0 0 -0.0085,0.014 0.39564976,0.39643846 0 0 0 -0.01134,0.02 0.39564976,0.39643846 0 0 0 -0.0085,0.014 0.39564976,0.39643846 0 0 0 -0.0099,0.02 0.39564976,0.39643846 0 0 0 -0.0071,0.016 0.39564976,0.39643846 0 0 0 -0.0071,0.022 0.39564976,0.39643846 0 0 0 -0.0056,0.016 0.39564976,0.39643846 0 0 0 -0.0071,0.029 l -0.932566,4.6722 a 0.39564976,0.39643846 0 0 0 0.234288,0.4429 l 3.416035,1.443 1.316876,6.766 -4.853327,1.0562 a 0.39564976,0.39643846 0 0 0 -0.31236,0.382 l -0.04421,3.1912 a 0.39564976,0.39643846 0 0 0 0.515384,0.3833 l 6.100002,-1.9534 1.004659,-0.1952 c 0.0071,0 0.01465,2e-4 0.02221,2e-4 0.414629,0 0.805107,-0.1978 1.077816,-0.5204 0.272497,-0.3224 0.415054,-0.7425 0.414653,-1.1751 l 0,0 c 2.12e-4,-0.2745 -0.05716,-0.5443 -0.168455,-0.7869 l -1.052557,-5.4488 5.238136,2.2125 a 0.39564976,0.39643846 0 0 0 0.0071,0 0.39564976,0.39643846 0 0 0 0.02269,0.014 0.39564976,0.39643846 0 0 0 0.01442,0 0.39564976,0.39643846 0 0 0 0.02269,0 0.39564976,0.39643846 0 0 0 0.01748,0 0.39564976,0.39643846 0 0 0 0.02009,0 0.39564976,0.39643846 0 0 0 0.02009,0 0.39564976,0.39643846 0 0 0 0.01796,0 0.39564976,0.39643846 0 0 0 0.02245,3e-4 0.39564976,0.39643846 0 0 0 0.01512,0 l 3.473619,-0.2203 a 0.39564976,0.39643846 0 0 0 0.331949,-0.2268 l 2.104096,-4.4634 0,0 a 0.39564976,0.39643846 0 0 0 0,-10e-5 0.39564976,0.39643846 0 0 0 0.0023,0 0.39564976,0.39643846 0 0 0 -0.229466,-0.5482 c -0.324293,-0.1783 -0.658108,-0.303 -0.997712,-0.3819 l -12.822358,-4.9861 a 0.39564976,0.39643846 0 0 0 -0.03337,-0.014 c -0.55461,-0.1603 -1.139655,-0.2508 -1.756907,-0.251 z m -1.097311,0.5727 a 0.39564976,0.39643846 0 0 1 0.153569,0.029 l 12.108934,4.8629 a 0.39598291,0.3967723 0 0 1 0.240313,0.4504 0.39564976,0.39643846 0 0 0 -0.02937,0.062 l -0.03481,0.086 a 0.39598291,0.3967723 0 0 1 -0.470182,0.1385 l -12.108933,-4.8641 a 0.39564976,0.39643846 0 0 1 0.140573,-0.7655 z m 14.880945,5.3568 c 0.183247,0 0.364391,0.021 0.544236,0.058 l 0.613896,0.2386 -0.985826,2.0913 c 0.03793,-0.1692 0.05749,-0.3373 0.05565,-0.4947 -0.004,-0.3643 -0.122471,-0.6656 -0.326702,-0.8164 -0.204301,-0.1508 -0.486793,-0.1452 -0.765291,0.014 -0.06872,0.038 -0.137572,0.086 -0.204326,0.1415 0.02555,-0.034 0.04967,-0.072 0.07035,-0.1116 0.05898,-0.1157 0.09367,-0.2483 0.09239,-0.3663 -0.0023,-0.1186 -0.03936,-0.2189 -0.106805,-0.27 -0.0336,-0.026 -0.0724,-0.039 -0.114486,-0.037 -0.04206,0 -0.08752,0.014 -0.131451,0.038 -0.08783,0.049 -0.169921,0.1469 -0.229066,0.2622 -0.05898,0.1157 -0.09367,0.2483 -0.09237,0.3664 0.0023,0.1186 0.03934,0.2188 0.10664,0.2701 0.06727,0.051 0.158177,0.048 0.245961,0 -0.142274,0.1486 -0.272615,0.3296 -0.378664,0.5308 -0.191919,0.3637 -0.300947,0.7844 -0.296716,1.1489 0.004,0.3642 0.124882,0.6668 0.329231,0.8175 0.204253,0.1509 0.484146,0.1441 0.762573,-0.014 0.174009,-0.097 0.345276,-0.2511 0.496009,-0.4414 l -0.350214,0.7428 -2.613385,0.1668 1.551495,-3.8555 c 0.609501,-0.3231 1.177438,-0.4803 1.726803,-0.4757 z m -12.414158,1.5918 0.666922,0.2817 1.238261,5.8237 c -0.12519,-0.038 -0.255838,-0.058 -0.389061,-0.058 -0.113493,0 -0.224906,0.016 -0.332658,0.043 l -1.183464,-6.09 z m 1.55563,0.6572 0.708723,0.2993 0.957896,4.9588 c -0.113776,-0.031 -0.231735,-0.048 -0.351798,-0.048 -0.06841,0 -0.136035,0 -0.202624,0.016 l -1.112149,-5.2263 z m 1.314774,6.0055 c 0.160894,0 0.343929,0.083 0.47779,0.2409 0.133862,0.1584 0.226278,0.4127 0.225899,0.6591 0,0.2465 -0.09211,0.5008 -0.225875,0.6591 -0.06361,0.076 -0.138138,0.133 -0.216069,0.173 l -0.255838,0.049 c 0.08769,-0.2202 0.132587,-0.4592 0.132327,-0.7023 l 0,0 c 1.65e-4,-0.1575 -0.01891,-0.3135 -0.05589,-0.4636 a 0.39564976,0.39643846 0 0 0 -0.0085,-0.094 l -0.110658,-0.5199 c 0.01134,0 0.02436,0 0.03625,0 z m -1.354282,0.1794 c 0.160918,0 0.343999,0.083 0.477908,0.2411 0.133862,0.1583 0.226135,0.4127 0.225805,0.6592 0,0.2464 -0.09211,0.5009 -0.225853,0.6592 -0.133884,0.1583 -0.316942,0.2409 -0.477908,0.2409 -0.16087,0 -0.342889,-0.082 -0.476727,-0.2409 -0.133884,-0.1583 -0.227316,-0.4128 -0.226986,-0.6592 0,-0.2465 0.09313,-0.5009 0.226986,-0.6592 0.133863,-0.1584 0.315857,-0.2411 0.476727,-0.2411 z m -1.436655,0.4421 c -0.03624,0.1485 -0.05477,0.3025 -0.05461,0.4582 l 0,0 c 0,0.4327 0.142014,0.8528 0.41451,1.1751 0.03497,0.041 0.07169,0.08 0.110208,0.1172 l -4.522253,1.4483 0.03263,-2.3253 4.019558,-0.8749 z" />
    </g>
    <g
       id="g14031"
       transform="matrix(0.22932937,0,0,0.22932937,-165.95297,947.40641)">
      <g
         style="font-style:normal;font-weight:normal;font-size:40px;line-height:125%;font-family:sans-serif;letter-spacing:0px;word-spacing:0px;fill:#42290d;fill-opacity:1;stroke:none;stroke-width:1px;stroke-linecap:butt;stroke-linejoin:miter;stroke-opacity:1"
         id="g14033"
         transform="matrix(2.5502364,0,0,2.5502364,115.61037,213.89339)">
        <g
           id="g14035"
           transform="translate(301.32214,-340.94806)">
          <path
             sodipodi:nodetypes="ssccscccssccsccs"
             d="m -27.005527,341.9378 -31.214185,0 c -0.217564,0 -0.415933,-0.064 -0.595106,-0.19197 -0.166375,-0.12798 -0.300755,-0.28155 -0.403139,-0.46072 -0.102384,-0.17917 -0.153575,-0.37115 -0.153575,-0.57591 0,-0.19198 0.05119,-0.39036 0.153575,-0.59511 l 15.587902,-27.68195 c 0.102384,-0.17917 0.243158,-0.31356 0.422325,-0.40315 0.179172,-0.0896 0.371143,-0.13438 0.57591,-0.13438 0.204767,0 0.396737,0.0448 0.57591,0.13438 0.179172,0.0895 0.319951,0.22398 0.422334,0.40315 l 15.626284,27.68195 c 0.102384,0.20476 0.153575,0.40314 0.153575,0.59511 0,0.20476 -0.05119,0.39674 -0.153575,0.57591 -0.102384,0.17917 -0.243159,0.33274 -0.422325,0.46072 -0.166376,0.12797 -0.358346,0.19197 -0.57591,0.19197 z"
             style="fill:#d8c586;fill-opacity:1"
             id="path14037"
             inkscape:connector-curvature="0" />
          <path
             inkscape:connector-curvature="0"
             id="path14039"
             style="fill:#42290d;fill-opacity:1"
             d="m -26.733715,342.19941 -31.75781,0 q -0.33203,0 -0.60547,-0.19531 -0.25391,-0.19532 -0.41016,-0.46875 -0.15625,-0.27344 -0.15625,-0.58594 0,-0.29297 0.15625,-0.60547 l 15.85938,-28.16406 q 0.15625,-0.27344 0.42968,-0.41016 0.27344,-0.13672 0.58594,-0.13672 0.3125,0 0.58594,0.13672 0.27344,0.13672 0.42969,0.41016 l 15.89843,28.16406 q 0.15625,0.3125 0.15625,0.60547 0,0.3125 -0.15625,0.58594 -0.15625,0.27343 -0.42968,0.46875 -0.25391,0.19531 -0.58594,0.19531 z m -29.72656,-2.5 27.65625,0 -13.82813,-24.49219 -13.82812,24.49219 z m 15.64453,-7.10938 -3.63281,0 0,-10.83984 3.63281,0 0,10.83984 z m 0.54687,3.55469 q 0,0.50781 -0.19531,0.9375 -0.17578,0.42969 -0.50781,0.76172 -0.3125,0.3125 -0.74219,0.50781 -0.42969,0.17578 -0.91797,0.17578 -0.48828,0 -0.91797,-0.17578 -0.42968,-0.19531 -0.74218,-0.50781 -0.3125,-0.33203 -0.48829,-0.76172 -0.17578,-0.42969 -0.17578,-0.9375 0,-0.48828 0.17578,-0.9375 0.17579,-0.44922 0.48829,-0.76172 0.3125,-0.33203 0.74218,-0.52734 0.42969,-0.19531 0.91797,-0.19531 0.48828,0 0.91797,0.19531 0.42969,0.19531 0.74219,0.52734 0.33203,0.3125 0.50781,0.76172 0.19531,0.44922 0.19531,0.9375 z" />
        </g>
      </g>
      <text
         xml:space="preserve"
         style="font-style:normal;font-weight:normal;font-size:100.95265961px;line-height:125%;font-family:sans-serif;letter-spacing:0px;word-spacing:0px;fill:#d8c586;fill-opacity:1;stroke:none;stroke-width:1px;stroke-linecap:butt;stroke-linejoin:miter;stroke-opacity:1"
         x="812.49805"
         y="205.49388"
         id="text14041"
         sodipodi:linespacing="125%"
         transform="scale(0.99918447,1.0008162)"><tspan
           sodipodi:role="line"
           id="tspan14043"
           x="812.49805"
           y="205.49388">:</tspan></text>
    </g>
  </g>
</svg>
