<?xml version="1.0" encoding="UTF-8" standalone="no"?>
<!-- Created with Inkscape (http://www.inkscape.org/) -->

<svg
   xmlns:dc="http://purl.org/dc/elements/1.1/"
   xmlns:cc="http://creativecommons.org/ns#"
   xmlns:rdf="http://www.w3.org/1999/02/22-rdf-syntax-ns#"
   xmlns:svg="http://www.w3.org/2000/svg"
   xmlns="http://www.w3.org/2000/svg"
   xmlns:sodipodi="http://sodipodi.sourceforge.net/DTD/sodipodi-0.dtd"
   xmlns:inkscape="http://www.inkscape.org/namespaces/inkscape"
   width="75"
   height="75"
   viewBox="0 0 75.000001 75.000001"
   id="svg5199"
   version="1.1"
   inkscape:version="0.91 r13725"
   sodipodi:docname="figure_alerts_unsubdue.svg">
  <defs
     id="defs5201" />
  <sodipodi:namedview
     id="base"
     pagecolor="#ffffff"
     bordercolor="#666666"
     borderopacity="1.0"
     inkscape:pageopacity="0.0"
     inkscape:pageshadow="2"
     inkscape:zoom="1.979899"
     inkscape:cx="17.034361"
     inkscape:cy="38.932874"
     inkscape:document-units="px"
     inkscape:current-layer="layer1"
     showgrid="false"
     units="px"
     borderlayer="true"
     inkscape:window-width="1280"
     inkscape:window-height="961"
     inkscape:window-x="1912"
     inkscape:window-y="-8"
     inkscape:window-maximized="1" />
  <metadata
     id="metadata5204">
    <rdf:RDF>
      <cc:Work
         rdf:about="">
        <dc:format>image/svg+xml</dc:format>
        <dc:type
           rdf:resource="http://purl.org/dc/dcmitype/StillImage" />
        <dc:title />
      </cc:Work>
    </rdf:RDF>
  </metadata>
  <g
     inkscape:label="Layer 1"
     inkscape:groupmode="layer"
     id="layer1"
     transform="translate(0,-977.36216)">
    <rect
       ry="5.2912221"
       y="977.36218"
       x="6.3343717e-009"
       height="75"
       width="75"
       id="rect5149"
       style="fill:#42290d;fill-opacity:1;stroke:none;stroke-width:1.74198794;stroke-miterlimit:4;stroke-dasharray:none;stroke-opacity:1" />
    <g
       id="g5246"
       transform="matrix(0.25205377,0,0,0.25205376,142.28125,804.01329)"
       style="fill:#42290d;fill-opacity:1">
      <path
         id="path5238"
         d="m -361.34368,894.60352 c -1.5875,0 -2.72928,0.83893 -3.38869,1.89253 -0.58973,0.9421 -0.83508,2.03513 -0.88294,2.9924 -1.79963,0.88864 -3.79332,1.78454 -5.39841,2.70058 -0.84204,0.4806 -1.57611,0.96388 -2.12868,1.48324 -0.55257,0.51934 -0.96029,1.10419 -0.96029,1.79411 0,0.29359 0.1436,0.53281 0.3051,0.70834 0.16225,0.17616 0.35598,0.31224 0.57695,0.43936 0.44187,0.2546 0.99893,0.46672 1.61176,0.65031 0.91035,0.27285 1.92989,0.47562 2.81637,0.56227 -0.88172,1.51742 -2.05515,2.9109 -3.08373,4.24619 -1.18873,1.54333 -2.22649,3.02327 -2.22649,4.66753 0,0.23488 -0.003,0.41821 0.0179,0.60247 0.0215,0.1844 0.0737,0.41405 0.25928,0.59623 0.18549,0.18226 0.41257,0.2313 0.59754,0.25136 0.18478,0.0215 0.37132,0.0215 0.61036,0.0215 l 6.55832,0 c 0.47611,0 0.82468,0.0287 1.18328,-0.20123 0.35869,-0.23022 0.48947,-0.54463 0.74496,-1.01448 l 0.003,0 0.003,-0.0215 c 0,0 0.57168,-1.16076 1.25378,-2.31284 0.3409,-0.57568 0.71126,-1.14934 1.03331,-1.55574 0.16119,-0.20301 0.31191,-0.36436 0.42042,-0.45533 0.0322,-0.0285 0.0484,-0.0322 0.0695,-0.0456 0.0215,0.0215 0.0361,0.0215 0.0695,0.0456 0.1084,0.0913 0.25928,0.25206 0.42038,0.45533 0.32195,0.4064 0.69227,0.98006 1.03334,1.55574 0.68203,1.15208 1.25374,2.31284 1.25374,2.31284 l 0.003,0.0215 0.003,0 c 0.25569,0.46985 0.38513,0.78236 0.74147,1.01324 0.3563,0.23059 0.70403,0.20302 1.17339,0.20302 l 6.58723,0 c 0.2353,0 0.41862,0 0.60231,-0.0215 0.18371,-0.0215 0.41151,-0.0705 0.59507,-0.25458 0.18334,-0.1844 0.2342,-0.41076 0.25461,-0.59416 0.0215,-0.18225 0.0179,-0.36663 0.0179,-0.60161 0,-1.64405 -1.03778,-3.12399 -2.22649,-4.66735 -1.02852,-1.33527 -2.20195,-2.72877 -3.08372,-4.24619 0.88648,-0.0871 1.90603,-0.28967 2.81637,-0.56225 0.61282,-0.18441 1.16988,-0.39584 1.61176,-0.65032 0.22094,-0.12634 0.415,-0.26354 0.5768,-0.43915 0.1619,-0.17617 0.30546,-0.41493 0.30546,-0.70858 0,-0.6899 -0.4077,-1.27475 -0.96026,-1.79408 -0.55259,-0.51937 -1.28668,-1.00263 -2.12866,-1.48326 -1.60517,-0.916 -3.59878,-1.81192 -5.39848,-2.70056 -0.0481,-0.95723 -0.29329,-2.05024 -0.88293,-2.99238 -0.65941,-1.05362 -1.80116,-1.89256 -3.38869,-1.89256 z"
         inkscape:connector-curvature="0"
         style="fill:#42290d;fill-opacity:1;stroke:none;stroke-opacity:1" />
      <path
         style="fill:#42290d;fill-opacity:1;stroke:none;stroke-opacity:1"
         inkscape:connector-curvature="0"
         d="m -333.11578,894.60352 c -1.5875,0 -2.72925,0.8389 -3.38866,1.89253 -0.58974,0.94212 -0.8351,2.03509 -0.88296,2.99237 -1.79966,0.88867 -3.7933,1.78457 -5.39845,2.70059 -0.84197,0.48061 -1.5761,0.96386 -2.12864,1.48323 -0.55258,0.51937 -0.96027,1.10422 -0.96027,1.79409 0,0.29363 0.14359,0.53283 0.3051,0.70839 0.16225,0.17616 0.35596,0.31224 0.57695,0.43933 0.44183,0.25459 0.99893,0.46671 1.61174,0.65034 0.91036,0.27285 1.9299,0.47562 2.81638,0.56223 -0.88173,1.51746 -2.05516,2.91095 -3.08376,4.24624 -1.1887,1.54332 -2.22645,3.02323 -2.22645,4.66749 0,0.23487 -0.003,0.41824 0.0179,0.6025 0.0215,0.1844 0.0737,0.41406 0.25928,0.59623 0.1855,0.18226 0.4126,0.2313 0.59757,0.25136 0.18479,0.0215 0.37132,0.0215 0.61031,0.0215 l 6.55838,0 c 0.47606,0 0.82468,0.0287 1.18328,-0.2012 0.35865,-0.23025 0.48944,-0.54464 0.74496,-1.01448 l 0.003,0 0.003,-0.0216 c 0,0 0.57169,-1.16075 1.25382,-2.31285 0.34091,-0.5757 0.71123,-1.14934 1.03331,-1.55576 0.16119,-0.20302 0.3119,-0.36434 0.42039,-0.45532 0.0322,-0.0287 0.0484,-0.0322 0.0695,-0.0455 0.0215,0.0215 0.0366,0.0215 0.0695,0.0455 0.1084,0.091 0.25927,0.25209 0.42038,0.45532 0.32193,0.40642 0.69226,0.98006 1.03328,1.55576 0.68206,1.1521 1.2538,2.31285 1.2538,2.31285 l 0.003,0.0216 0.003,0 c 0.25569,0.46984 0.38512,0.78236 0.74142,1.01321 0.35632,0.23059 0.70404,0.20302 1.17341,0.20302 l 6.58726,0 c 0.23527,0 0.41862,0 0.6023,-0.0215 0.1837,-0.0215 0.41146,-0.0705 0.59502,-0.2546 0.18337,-0.18438 0.2342,-0.41076 0.25461,-0.59416 0.0215,-0.18223 0.018,-0.36662 0.018,-0.60159 0,-1.64408 -1.03775,-3.12401 -2.22645,-4.66737 -1.02856,-1.33525 -2.20195,-2.72877 -3.08377,-4.24617 0.8865,-0.0871 1.90602,-0.28969 2.81642,-0.56227 0.61277,-0.1844 1.16987,-0.39583 1.6117,-0.65031 0.22097,-0.12635 0.41502,-0.26353 0.57683,-0.43916 0.16189,-0.17617 0.30545,-0.41491 0.30545,-0.70856 0,-0.68992 -0.40771,-1.27477 -0.96027,-1.79413 -0.55259,-0.51934 -1.28666,-1.00263 -2.12865,-1.48323 -1.60514,-0.916 -3.59877,-1.81192 -5.39844,-2.70059 -0.0479,-0.95725 -0.29329,-2.05021 -0.88294,-2.99235 -0.65943,-1.05363 -1.80114,-1.89256 -3.38871,-1.89256 z"
         id="path5240" />
      <text
         transform="scale(1.0000655,0.99993451)"
         sodipodi:linespacing="125%"
         id="text5242"
         y="915.44635"
         x="-319.87796"
         style="font-style:normal;font-weight:normal;font-size:31.57863808px;line-height:125%;font-family:sans-serif;letter-spacing:0px;word-spacing:0px;fill:#42290d;fill-opacity:1;stroke:none;stroke-width:1px;stroke-linecap:butt;stroke-linejoin:miter;stroke-opacity:1"
         xml:space="preserve"><tspan
           style="font-style:normal;font-variant:normal;font-weight:normal;font-stretch:normal;font-family:'Archivo Black';-inkscape-font-specification:'Archivo Black, ';fill:#42290d;fill-opacity:1"
           y="915.44635"
           x="-319.87796"
           id="tspan5244"
           sodipodi:role="line">+</tspan></text>
    </g>
    <g
       transform="matrix(0.53321432,0,0,0.53321432,-126.1074,1049.4247)"
       id="g14186"
       style="font-style:normal;font-weight:normal;font-size:40px;line-height:125%;font-family:sans-serif;letter-spacing:0px;word-spacing:0px;fill:#42290d;fill-opacity:1;stroke:none;stroke-width:1px;stroke-linecap:butt;stroke-linejoin:miter;stroke-opacity:1">
      <g
         transform="translate(301.32214,-340.94806)"
         id="g14188">
        <path
           inkscape:connector-curvature="0"
           id="path14190"
           style="fill:#d8c586;fill-opacity:1"
           d="m -27.005527,341.9378 -31.214185,0 c -0.217564,0 -0.415933,-0.064 -0.595106,-0.19197 -0.166375,-0.12798 -0.300755,-0.28155 -0.403139,-0.46072 -0.102384,-0.17917 -0.153575,-0.37115 -0.153575,-0.57591 0,-0.19198 0.05119,-0.39036 0.153575,-0.59511 l 15.587902,-27.68195 c 0.102384,-0.17917 0.243158,-0.31356 0.422325,-0.40315 0.179172,-0.0896 0.371143,-0.13438 0.57591,-0.13438 0.204767,0 0.396737,0.0448 0.57591,0.13438 0.179172,0.0895 0.319951,0.22398 0.422334,0.40315 l 15.626284,27.68195 c 0.102384,0.20476 0.153575,0.40314 0.153575,0.59511 0,0.20476 -0.05119,0.39674 -0.153575,0.57591 -0.102384,0.17917 -0.243159,0.33274 -0.422325,0.46072 -0.166376,0.12797 -0.358346,0.19197 -0.57591,0.19197 z"
           sodipodi:nodetypes="ssccscccssccsccs" />
        <path
           d="m -26.733715,342.19941 -31.75781,0 q -0.33203,0 -0.60547,-0.19531 -0.25391,-0.19532 -0.41016,-0.46875 -0.15625,-0.27344 -0.15625,-0.58594 0,-0.29297 0.15625,-0.60547 l 15.85938,-28.16406 q 0.15625,-0.27344 0.42968,-0.41016 0.27344,-0.13672 0.58594,-0.13672 0.3125,0 0.58594,0.13672 0.27344,0.13672 0.42969,0.41016 l 15.89843,28.16406 q 0.15625,0.3125 0.15625,0.60547 0,0.3125 -0.15625,0.58594 -0.15625,0.27343 -0.42968,0.46875 -0.25391,0.19531 -0.58594,0.19531 z m -29.72656,-2.5 27.65625,0 -13.82813,-24.49219 -13.82812,24.49219 z m 15.64453,-7.10938 -3.63281,0 0,-10.83984 3.63281,0 0,10.83984 z m 0.54687,3.55469 q 0,0.50781 -0.19531,0.9375 -0.17578,0.42969 -0.50781,0.76172 -0.3125,0.3125 -0.74219,0.50781 -0.42969,0.17578 -0.91797,0.17578 -0.48828,0 -0.91797,-0.17578 -0.42968,-0.19531 -0.74218,-0.50781 -0.3125,-0.33203 -0.48829,-0.76172 -0.17578,-0.42969 -0.17578,-0.9375 0,-0.48828 0.17578,-0.9375 0.17579,-0.44922 0.48829,-0.76172 0.3125,-0.33203 0.74218,-0.52734 0.42969,-0.19531 0.91797,-0.19531 0.48828,0 0.91797,0.19531 0.42969,0.19531 0.74219,0.52734 0.33203,0.3125 0.50781,0.76172 0.19531,0.44922 0.19531,0.9375 z"
           style="fill:#42290d;fill-opacity:1"
           id="path14192"
           inkscape:connector-curvature="0" />
      </g>
    </g>
    <g
       style="font-style:normal;font-weight:normal;font-size:40px;line-height:125%;font-family:sans-serif;letter-spacing:0px;word-spacing:0px;fill:#42290d;fill-opacity:1;stroke:none;stroke-width:1px;stroke-linecap:butt;stroke-linejoin:miter;stroke-opacity:1"
       id="g14194"
       transform="matrix(0.53321432,0,0,0.53321432,-109.02961,1049.4247)">
      <g
         id="g14196"
         transform="translate(301.32214,-340.94806)">
        <path
           sodipodi:nodetypes="ssccscccssccsccs"
           d="m -27.005527,341.9378 -31.214185,0 c -0.217564,0 -0.415933,-0.064 -0.595106,-0.19197 -0.166375,-0.12798 -0.300755,-0.28155 -0.403139,-0.46072 -0.102384,-0.17917 -0.153575,-0.37115 -0.153575,-0.57591 0,-0.19198 0.05119,-0.39036 0.153575,-0.59511 l 15.587902,-27.68195 c 0.102384,-0.17917 0.243158,-0.31356 0.422325,-0.40315 0.179172,-0.0896 0.371143,-0.13438 0.57591,-0.13438 0.204767,0 0.396737,0.0448 0.57591,0.13438 0.179172,0.0895 0.319951,0.22398 0.422334,0.40315 l 15.626284,27.68195 c 0.102384,0.20476 0.153575,0.40314 0.153575,0.59511 0,0.20476 -0.05119,0.39674 -0.153575,0.57591 -0.102384,0.17917 -0.243159,0.33274 -0.422325,0.46072 -0.166376,0.12797 -0.358346,0.19197 -0.57591,0.19197 z"
           style="fill:#d8c586;fill-opacity:1"
           id="path14198"
           inkscape:connector-curvature="0" />
        <path
           inkscape:connector-curvature="0"
           id="path14200"
           style="fill:#42290d;fill-opacity:1"
           d="m -26.733715,342.19941 -31.75781,0 q -0.33203,0 -0.60547,-0.19531 -0.25391,-0.19532 -0.41016,-0.46875 -0.15625,-0.27344 -0.15625,-0.58594 0,-0.29297 0.15625,-0.60547 l 15.85938,-28.16406 q 0.15625,-0.27344 0.42968,-0.41016 0.27344,-0.13672 0.58594,-0.13672 0.3125,0 0.58594,0.13672 0.27344,0.13672 0.42969,0.41016 l 15.89843,28.16406 q 0.15625,0.3125 0.15625,0.60547 0,0.3125 -0.15625,0.58594 -0.15625,0.27343 -0.42968,0.46875 -0.25391,0.19531 -0.58594,0.19531 z m -29.72656,-2.5 27.65625,0 -13.82813,-24.49219 -13.82812,24.49219 z m 15.64453,-7.10938 -3.63281,0 0,-10.83984 3.63281,0 0,10.83984 z m 0.54687,3.55469 q 0,0.50781 -0.19531,0.9375 -0.17578,0.42969 -0.50781,0.76172 -0.3125,0.3125 -0.74219,0.50781 -0.42969,0.17578 -0.91797,0.17578 -0.48828,0 -0.91797,-0.17578 -0.42968,-0.19531 -0.74218,-0.50781 -0.3125,-0.33203 -0.48829,-0.76172 -0.17578,-0.42969 -0.17578,-0.9375 0,-0.48828 0.17578,-0.9375 0.17579,-0.44922 0.48829,-0.76172 0.3125,-0.33203 0.74218,-0.52734 0.42969,-0.19531 0.91797,-0.19531 0.48828,0 0.91797,0.19531 0.42969,0.19531 0.74219,0.52734 0.33203,0.3125 0.50781,0.76172 0.19531,0.44922 0.19531,0.9375 z" />
      </g>
    </g>
    <path
       d="m 412.98949,1103.3571 5.58135,9.6672 -5.58135,9.6672 -11.1627,0 -5.58135,-9.6672 5.58135,-9.6672 z"
       inkscape:randomized="0"
       inkscape:rounded="0"
       inkscape:flatsided="true"
       sodipodi:arg2="-0.52359878"
       sodipodi:arg1="-1.0471976"
       sodipodi:r2="9.6671848"
       sodipodi:r1="11.162703"
       sodipodi:cy="1113.0243"
       sodipodi:cx="407.40814"
       sodipodi:sides="6"
       id="path15141"
       style="font-style:normal;font-weight:normal;font-size:medium;line-height:125%;font-family:sans-serif;letter-spacing:0px;word-spacing:0px;fill:#d8c586;fill-opacity:1;stroke:none;stroke-width:0.09605665;stroke-linecap:butt;stroke-linejoin:round;stroke-miterlimit:4;stroke-dasharray:none;stroke-dashoffset:0;stroke-opacity:1"
       sodipodi:type="star"
       transform="matrix(1.4717599,0,0,1.4745976,-579.11283,-643.92924)" />
    <path
       id="path15143"
       d="m 29.815062,996.29564 c -0.633413,0.085 -1.439072,0.1447 -2.455253,0.1794 -0.644786,0.022 -1.367932,0.033 -2.149756,0.033 -0.984403,0 -1.861665,-0.017 -2.404683,-0.03 a 5.7754222,5.7750454 0 0 0 0.246323,1.6191 c 0.620488,2.07206 2.249642,3.47426 3.871148,3.47426 a 2.7397901,2.7396116 0 0 0 0.788155,-0.1142 c 1.798864,-0.5386 2.714631,-2.82166 2.104066,-5.16046 z m -4.493782,2.4152 -0.375781,-0.2282 -0.166083,0.2914 -0.435615,-0.2491 0.173534,-0.3023 -0.387451,-0.2354 0.260695,-0.4289 0.375814,0.2283 0.166084,-0.2914 0.435615,0.2491 -0.173533,0.3024 0.387417,0.2353 z m 2.720465,-0.7144 -0.375847,-0.2283 -0.16605,0.2912 -0.435614,-0.2488 0.172676,-0.3037 -0.38745,-0.2349 0.261553,-0.4292 0.375812,0.2283 0.166052,-0.2914 0.435581,0.2491 -0.173533,0.3024 0.387485,0.2353 z m 3.370426,-6.2892 0.608885,0.5072 0.673036,-0.4172 -0.294485,0.7352 0.604994,0.5111 -0.790099,-0.053 -0.300026,0.7332 -0.193675,-0.7679 -0.789869,-0.058 0.668915,-0.4214 z m -0.0063,-2.1817 0.05759,0.4947 0.487601,0.1023 -0.452757,0.2075 0.05535,0.4951 -0.337903,-0.3664 -0.454108,0.2046 0.244081,-0.4336 -0.33487,-0.369 0.488459,0.099 z m -9.771067,-0.013 0.510052,0.6051 0.73587,-0.2928 -0.418703,0.6731 0.505866,0.6088 -0.768804,-0.1902 -0.423977,0.6694 -0.05532,-0.7897 -0.767715,-0.1957 0.733925,-0.2977 z m 9.771067,5.6814 c -0.126157,0.3504 -0.707323,0.7236 -4.060407,0.8377 -0.716223,0.024 -1.452094,0.032 -2.134823,0.032 -1.159848,0 -3.35414,-0.034 -3.35414,-0.034 l 0,-0.4428 c 0,0 2.199303,0.034 3.354403,0.034 0.668093,0 1.387052,-0.012 2.087517,-0.031 1.072948,-0.036 1.935276,-0.1023 2.563217,-0.1967 0.942864,-0.1425 1.101728,-0.3108 1.124441,-0.3443 -0.0066,-0.016 -0.03379,-0.065 -0.134535,-0.1447 -0.280608,-0.2214 -0.78954,-0.4428 -1.475038,-0.6487 a 5.601625,5.60126 0 0 0 -0.458296,-0.5871 c 0.05534,0.014 0.110703,0.028 0.162721,0.042 0.973327,0.259 1.660505,0.5434 2.044628,0.8456 0.180158,0.1434 0.375812,0.3698 0.28031,0.6375 z m -8.43551,-0.042 c 0.04154,-0.2028 0.244708,-0.7333 0.343474,-0.8833 1.559464,0.107 4.174734,-0.435 4.881265,-0.6963 0.420877,0.3667 0.905185,0.9918 1.123849,1.4442 -1.586003,0.1805 -4.412157,0.1841 -6.349378,0.1357 z m 0.536887,-1.9949 c -0.278959,-0.017 -0.933437,-0.058 -1.180288,0.055 0.328475,0.3102 2.075549,0.3448 3.548708,0.1362 1.57911,-0.2236 3.044225,-0.5939 3.904049,-1.1797 0.358143,-0.2441 0.547403,-0.6009 0.513118,-0.759 -0.174392,-0.8071 -4.818695,-1.092 -4.818695,-1.092 0,0 4.934075,0.1022 4.970603,1.0916 0.0393,1.0616 -2.273214,1.8763 -4.495462,2.223 -2.110724,0.3293 -4.134317,0.3523 -4.02942,-0.5184 0.06088,-0.5058 1.420511,-0.4114 2.008892,-0.3445 -0.116801,0.081 -0.330718,0.2923 -0.422297,0.3877 z m 2.099977,-0.5294 a 2.941262,2.9410702 0 0 1 1.178407,0.1272 c -0.352309,0.087 -1.613165,0.2577 -2.356816,0.2767 0.586996,-0.3577 1.07351,-0.3912 1.177585,-0.4037 z"
       style="fill:#42290d;fill-opacity:1"
       inkscape:connector-curvature="0" />
    <path
       id="path15145"
       d="m 14.246799,990.79134 c -0.721234,0 -1.23999,0.382 -1.539586,0.8619 -0.267915,0.4292 -0.379374,0.9269 -0.4011,1.3629 -0.817658,0.4047 -1.723437,0.8129 -2.4526798,1.23 -0.382573,0.2188 -0.716092,0.4391 -0.967129,0.6756 -0.251037,0.2365 -0.436306,0.5029 -0.436306,0.8171 0,0.1338 0.06524,0.2426 0.138688,0.3226 0.07358,0.081 0.161666,0.1421 0.262081,0.2001 0.200764,0.1155 0.453878,0.2126 0.732244,0.2961 0.41366,0.1243 0.8768338,0.2168 1.2795808,0.2562 -0.400538,0.691 -0.9336998,1.3258 -1.4009948,1.9341 -0.540085,0.7027 -1.011599,1.37686 -1.011599,2.12556 0,0.1083 -0.0033,0.1904 0.0082,0.2744 0.0099,0.083 0.03349,0.1886 0.117787,0.2716 0.08429,0.083 0.187446,0.1047 0.271476,0.1143 0.08406,0.014 0.168721,0 0.277312,0 l 2.9796108,0 c 0.216324,0 0.374727,0.014 0.537645,-0.091 0.162952,-0.1047 0.22239,-0.2482 0.338464,-0.4621 l 0.0033,0 0.0033,-0.014 c 0,0 0.259707,-0.5287 0.56959,-1.05336 0.15494,-0.2623 0.323165,-0.5236 0.469503,-0.7087 0.07322,-0.092 0.141653,-0.1659 0.190973,-0.2073 0.01517,-0.014 0.02209,-0.014 0.03164,-0.02 0.0099,0 0.01649,0 0.03165,0.02 0.04932,0.042 0.117788,0.1143 0.190972,0.2073 0.146337,0.1851 0.31453,0.4464 0.469471,0.7087 0.309881,0.52466 0.569655,1.05336 0.569655,1.05336 l 0.0032,0.014 0.0032,0 c 0.116116,0.2139 0.174952,0.3563 0.336849,0.4615 0.161797,0.1046 0.31987,0.091 0.533095,0.091 l 2.992798,0 c 0.106841,0 0.190182,0 0.273653,-0.014 0.08343,-0.014 0.18695,-0.031 0.270355,-0.1166 0.08334,-0.083 0.106409,-0.1873 0.115635,-0.2708 0.0096,-0.083 0.0082,-0.1668 0.0082,-0.2739 0,-0.7488 -0.471515,-1.42296 -1.011599,-2.12576 -0.467329,-0.6082 -1.000391,-1.2429 -1.401028,-1.9339 0.40278,-0.04 0.865955,-0.1318 1.279581,-0.2561 0.278399,-0.084 0.531514,-0.1803 0.732245,-0.2962 0.100418,-0.058 0.188565,-0.1203 0.262079,-0.2001 0.07351,-0.081 0.138727,-0.1888 0.138727,-0.3226 0,-0.3143 -0.185271,-0.5806 -0.436307,-0.8171 -0.251038,-0.2366 -0.58459,-0.4568 -0.967128,-0.6756 -0.729244,-0.4171 -1.635023,-0.8253 -2.452714,-1.2299 -0.02175,-0.436 -0.133217,-0.9339 -0.4011,-1.3629 -0.299596,-0.4799 -0.818318,-0.8619 -1.539584,-0.8619 z"
       inkscape:connector-curvature="0"
       style="fill:#42290d;fill-opacity:1;stroke:none;stroke-width:0.99999994;stroke-opacity:1" />
    <path
       style="fill:#d8c586;fill-opacity:1;stroke:none;stroke-width:1.10099995;stroke-linecap:round;stroke-linejoin:round;stroke-miterlimit:4;stroke-dasharray:none;stroke-dashoffset:0;stroke-opacity:1"
       d="m 44.656164,1019.8657 -1.050041,-9.5048 -2.314083,2.314 -5.786021,-5.786 -4.021069,4.0211 5.786022,5.786 -2.119624,2.1196 z"
       id="path15147"
       inkscape:connector-curvature="0"
       sodipodi:nodetypes="cccccccc"
       inkscape:transform-center-x="1.0285621"
       inkscape:transform-center-y="-2.3905006" />
    <path
       transform="matrix(1.4717599,0,0,1.4745976,-541.85154,-611.69986)"
       sodipodi:type="star"
       style="font-style:normal;font-weight:normal;font-size:medium;line-height:125%;font-family:sans-serif;letter-spacing:0px;word-spacing:0px;fill:#d8c586;fill-opacity:1;stroke:none;stroke-width:0.09605665;stroke-linecap:butt;stroke-linejoin:round;stroke-miterlimit:4;stroke-dasharray:none;stroke-dashoffset:0;stroke-opacity:1"
       id="path15151"
       sodipodi:sides="6"
       sodipodi:cx="407.40814"
       sodipodi:cy="1113.0243"
       sodipodi:r1="11.162703"
       sodipodi:r2="9.6671848"
       sodipodi:arg1="-1.0471976"
       sodipodi:arg2="-0.52359878"
       inkscape:flatsided="true"
       inkscape:rounded="0"
       inkscape:randomized="0"
       d="m 412.98949,1103.3571 5.58135,9.6672 -5.58135,9.6672 -11.1627,0 -5.58135,-9.6672 5.58135,-9.6672 z" />
    <path
       id="path15149"
       d="m 63.787778,1021.3829 c 0.686355,0 1.141815,0.3427 1.752777,0.6822 0.579083,0.3219 1.307008,0.5978 2.333575,0.3882 0.487173,0.4871 0.982127,0.9743 1.50995,1.3043 0.431921,0.2701 0.917314,0.431 1.401455,0.3549 -0.138912,1.0933 -0.802594,2.1627 -1.496365,2.7225 -1.829589,-0.6065 -3.66376,-0.9099 -5.49793,-0.9099 -1.835853,0 -3.671671,0.304 -5.502941,0.9116 -0.694498,-0.5593 -1.35926,-1.6298 -1.498278,-2.7242 0.484042,0.076 0.969501,-0.085 1.401457,-0.3548 0.527821,-0.3301 1.022709,-0.8173 1.509949,-1.3044 1.026466,0.2096 1.754524,-0.066 2.333541,-0.3881 0.611061,-0.3397 1.066488,-0.6823 1.75281,-0.6823 z m 0.0036,0.6389 c -0.64762,0 -1.737745,0.8754 -1.737745,0.8754 0,0 0.693543,2.6266 1.737745,2.6266 1.04427,0 1.737843,-2.6266 1.737843,-2.6266 0,0 -1.090223,-0.8754 -1.737843,-0.8754 z m 0,4.4895 c 1.72535,0 3.450798,0.2822 5.180367,0.8415 0.07127,0.4404 -0.04934,0.7677 -0.308762,1.0703 -0.289573,0.3378 -0.77566,0.6246 -1.351776,0.8406 -1.152397,0.4321 -2.646753,0.5851 -3.519862,0.5851 -0.873074,0 -2.367364,-0.153 -3.519697,-0.5851 -0.576216,-0.216 -1.062201,-0.5027 -1.351776,-0.8406 -0.25951,-0.3026 -0.380165,-0.6298 -0.30886,-1.0703 1.729568,-0.5593 3.455017,-0.8415 5.180333,-0.8415 z m 5.66154,1.8685 c 0.320993,0.078 0.88023,0.2542 0.980678,0.5556 0.274641,0.8238 -0.552975,2.0859 -1.178871,2.8821 0.172447,-0.7195 0.265411,-1.4848 0.265411,-2.2782 0,-0.3942 -0.02307,-0.7814 -0.06723,-1.1595 z m -11.322949,0 a 9.9970384,10.000683 0 0 0 -0.06721,1.1594 c 0,0.7935 0.09294,1.5588 0.265411,2.2783 -0.625894,-0.7962 -1.45351,-2.0583 -1.178869,-2.8821 0.100418,-0.3014 0.659718,-0.4778 0.98061,-0.5556 z m 10.786327,0.6268 c 0.0099,0.1758 0.01549,0.3533 0.01549,0.5326 0,1.9412 -0.592534,3.6932 -1.532926,4.9469 -0.940358,1.2538 -2.212721,2.0046 -3.607519,2.0046 -1.394732,0 -2.667126,-0.7508 -3.607452,-2.0046 -0.940327,-1.2537 -1.532827,-3.0056 -1.532827,-4.9469 0,-0.1793 0.0057,-0.3568 0.01549,-0.5327 0.268016,0.2503 0.595335,0.4535 0.955491,0.6223 -0.139544,0.5951 0.0087,1.3352 0.395397,1.7218 0.711639,0.7116 2.307563,0.7116 3.019237,0 0.220412,-0.2205 0.314958,-0.5717 0.302497,-0.9242 0.161237,0 0.313738,0.014 0.452229,0.014 0.138526,0 0.291059,0 0.45233,-0.014 -0.01249,0.3525 0.08205,0.7037 0.302496,0.9242 0.711675,0.7116 2.307565,0.7116 3.019206,0 0.386692,-0.3866 0.534941,-1.1267 0.395396,-1.7217 0.360154,-0.1688 0.687575,-0.3719 0.95549,-0.6223 z m -5.124918,3.8535 c -0.754793,1.2076 -2.264312,1.3586 -3.019105,1.3586 0.75476,0.6038 3.019072,0.6038 3.019072,0 0,0.6038 2.264446,0.6038 3.019238,0 -0.754792,0 -2.26441,-0.151 -3.019238,-1.3586 z"
       style="fill:#42290d;fill-opacity:1"
       inkscape:connector-curvature="0" />
    <path
       style="fill:#42290d;fill-opacity:1;stroke:none;stroke-width:0.99999994;stroke-opacity:1"
       inkscape:connector-curvature="0"
       d="m 50.559122,1023.0207 c -0.721232,0 -1.239988,0.3821 -1.539585,0.862 -0.267917,0.4291 -0.379374,0.9269 -0.401099,1.3628 -0.81766,0.4048 -1.723437,0.8128 -2.452681,1.23 -0.382573,0.2189 -0.716092,0.4391 -0.967128,0.6757 -0.251038,0.2365 -0.436307,0.5029 -0.436307,0.8171 0,0.1336 0.06524,0.2426 0.138683,0.3226 0.07358,0.081 0.161665,0.142 0.262082,0.1999 0.200763,0.1155 0.453876,0.2127 0.732242,0.2963 0.41366,0.1243 0.876834,0.2167 1.279581,0.2562 -0.400538,0.691 -0.933699,1.3257 -1.400995,1.9339 -0.540084,0.7029 -1.011599,1.377 -1.011599,2.1258 0,0.1071 -0.0032,0.1904 0.0082,0.2743 0.0099,0.083 0.03349,0.1887 0.117788,0.2716 0.0843,0.083 0.187445,0.1046 0.271476,0.1154 0.08406,0.014 0.168721,0 0.277312,0 l 2.979612,0 c 0.216323,0 0.374727,0.014 0.537645,-0.091 0.162951,-0.1046 0.22239,-0.248 0.338463,-0.462 l 0.0032,0 0.0032,-0.014 c 0,0 0.259708,-0.5286 0.569589,-1.0534 0.154941,-0.2623 0.323167,-0.5236 0.469504,-0.7086 0.07322,-0.091 0.141653,-0.1659 0.190974,-0.2074 0.01517,-0.014 0.02209,-0.014 0.03165,-0.021 0.0099,0 0.01649,0 0.03165,0.021 0.04932,0.042 0.117788,0.1142 0.190972,0.2074 0.146336,0.185 0.314529,0.4463 0.469472,0.7086 0.30988,0.5248 0.569654,1.0534 0.569654,1.0534 l 0.0032,0.014 0.0032,0 c 0.116116,0.214 0.174952,0.3563 0.336849,0.4615 0.161797,0.1047 0.31987,0.091 0.533094,0.091 l 2.9928,0 c 0.106841,0 0.190181,0 0.273651,-0.014 0.08344,-0.014 0.186951,-0.031 0.270356,-0.1167 0.08334,-0.083 0.106409,-0.1872 0.115635,-0.2707 0.0096,-0.083 0.0082,-0.167 0.0082,-0.274 0,-0.7487 -0.471515,-1.423 -1.0116,-2.1258 -0.467327,-0.6081 -1.000389,-1.243 -1.401028,-1.9339 0.402781,-0.04 0.865955,-0.1318 1.279581,-0.2561 0.278399,-0.083 0.531514,-0.1802 0.732246,-0.2962 0.100418,-0.058 0.188565,-0.1202 0.262079,-0.2 0.07351,-0.081 0.138726,-0.189 0.138726,-0.3227 0,-0.3142 -0.18527,-0.5806 -0.436307,-0.817 -0.251036,-0.2367 -0.584589,-0.4568 -0.967128,-0.6756 -0.729244,-0.4172 -1.635023,-0.8253 -2.452713,-1.2301 -0.02175,-0.4359 -0.133217,-0.9338 -0.4011,-1.3629 -0.299596,-0.4798 -0.81832,-0.8618 -1.539586,-0.8618 z"
       id="path15153" />
  </g>
</svg>
