<?xml version="1.0" encoding="UTF-8" standalone="no"?>
<!-- Created with Inkscape (http://www.inkscape.org/) -->

<svg
   xmlns:dc="http://purl.org/dc/elements/1.1/"
   xmlns:cc="http://creativecommons.org/ns#"
   xmlns:rdf="http://www.w3.org/1999/02/22-rdf-syntax-ns#"
   xmlns:svg="http://www.w3.org/2000/svg"
   xmlns="http://www.w3.org/2000/svg"
   xmlns:sodipodi="http://sodipodi.sourceforge.net/DTD/sodipodi-0.dtd"
   xmlns:inkscape="http://www.inkscape.org/namespaces/inkscape"
   width="75"
   height="75"
   viewBox="0 0 75.000001 75.000001"
   id="svg5199"
   version="1.1"
   inkscape:version="0.91 r13725"
   sodipodi:docname="figure_alerts_hey_you.svg">
  <defs
     id="defs5201" />
  <sodipodi:namedview
     id="base"
     pagecolor="#ffffff"
     bordercolor="#666666"
     borderopacity="1.0"
     inkscape:pageopacity="0.0"
     inkscape:pageshadow="2"
     inkscape:zoom="1.979899"
     inkscape:cx="-2.7789355"
     inkscape:cy="14.574889"
     inkscape:document-units="px"
     inkscape:current-layer="layer1"
     showgrid="false"
     units="px"
     borderlayer="true"
     inkscape:window-width="1280"
     inkscape:window-height="961"
     inkscape:window-x="1912"
     inkscape:window-y="-8"
     inkscape:window-maximized="1" />
  <metadata
     id="metadata5204">
    <rdf:RDF>
      <cc:Work
         rdf:about="">
        <dc:format>image/svg+xml</dc:format>
        <dc:type
           rdf:resource="http://purl.org/dc/dcmitype/StillImage" />
        <dc:title />
      </cc:Work>
    </rdf:RDF>
  </metadata>
  <g
     inkscape:label="Layer 1"
     inkscape:groupmode="layer"
     id="layer1"
     transform="translate(0,-977.36216)">
    <rect
       ry="5.2912221"
       y="977.36218"
       x="6.3343717e-009"
       height="75"
       width="75"
       id="rect5149"
       style="fill:#42290d;fill-opacity:1;stroke:none;stroke-width:1.74198794;stroke-miterlimit:4;stroke-dasharray:none;stroke-opacity:1" />
    <g
       id="g4161"
       transform="translate(0,11.101796)">
      <path
         sodipodi:type="star"
         style="font-style:normal;font-weight:normal;font-size:medium;line-height:125%;font-family:sans-serif;letter-spacing:0px;word-spacing:0px;fill:#d8c586;fill-opacity:1;stroke:none;stroke-width:0.11840353;stroke-linecap:butt;stroke-linejoin:round;stroke-miterlimit:4;stroke-dasharray:none;stroke-dashoffset:0;stroke-opacity:1"
         id="path5084"
         sodipodi:sides="6"
         sodipodi:cx="389.90088"
         sodipodi:cy="1102.7913"
         sodipodi:r1="11.162703"
         sodipodi:r2="9.6671848"
         sodipodi:arg1="-1.0471976"
         sodipodi:arg2="-0.52359878"
         inkscape:flatsided="true"
         inkscape:rounded="0"
         inkscape:randomized="0"
         d="m 395.48223,1093.1241 5.58135,9.6672 -5.58135,9.6671 -11.1627,0 -5.58135,-9.6671 5.58135,-9.6672 z"
         transform="matrix(1.1177032,0,0,1.1185258,-419.50773,-229.23936)" />
      <path
         style="fill:#ffffff;stroke:none;stroke-opacity:1"
         inkscape:connector-curvature="0"
         d="m 35.967468,1008.3155 c -0.855027,0 -1.469966,0.4527 -1.825123,1.0214 -0.31763,0.5085 -0.449781,1.0984 -0.475564,1.6151 -0.969278,0.4795 -2.043058,0.9631 -2.907581,1.4575 -0.453498,0.2594 -0.848875,0.5202 -1.146486,0.8005 -0.297616,0.2803 -0.517208,0.596 -0.517208,0.9683 0,0.1585 0.07738,0.2876 0.164363,0.3824 0.08731,0.095 0.19172,0.1684 0.310726,0.2371 0.237985,0.1373 0.53803,0.2518 0.868087,0.351 0.490319,0.1472 1.039438,0.2567 1.516896,0.3034 -0.474895,0.819 -1.106899,1.5711 -1.660894,2.2917 -0.640231,0.833 -1.199178,1.6318 -1.199178,2.5192 0,0.1267 -0.0027,0.2257 0.01011,0.3252 0.01123,0.1 0.03983,0.2234 0.139653,0.3218 0.09991,0.098 0.222214,0.1248 0.32183,0.1356 0.0996,0.011 0.199993,0.011 0.32873,0.011 l 3.532315,0 c 0.25641,0 0.444165,0.016 0.637316,-0.1085 0.193169,-0.1242 0.263611,-0.2939 0.401229,-0.5475 l 0.0027,0 0.0027,-0.011 c 0,0 0.307902,-0.6265 0.675283,-1.2483 0.183672,-0.3107 0.383084,-0.6203 0.556538,-0.8396 0.08686,-0.1097 0.167969,-0.1967 0.226424,-0.2458 0.01787,-0.014 0.02606,-0.018 0.03746,-0.025 0.01148,0.011 0.01959,0.011 0.03746,0.025 0.05842,0.049 0.139652,0.136 0.226415,0.2458 0.173456,0.2193 0.372858,0.5289 0.55654,0.8396 0.367343,0.6218 0.675283,1.2483 0.675283,1.2483 l 0.0027,0.011 0.0027,0 c 0.137626,0.2536 0.207419,0.4223 0.399323,0.5468 0.191846,0.1245 0.379201,0.1097 0.632001,0.1097 l 3.547868,0 c 0.126664,0 0.225466,0 0.324398,-0.011 0.09892,-0.011 0.221621,-0.038 0.320497,-0.1374 0.0988,-0.1 0.126157,-0.2217 0.137112,-0.3207 0.01123,-0.098 0.01004,-0.1978 0.01004,-0.3247 0,-0.8873 -0.558936,-1.686 -1.199177,-2.519 -0.55396,-0.7207 -1.185968,-1.4728 -1.660894,-2.2918 0.477468,-0.047 1.026587,-0.1562 1.516903,-0.3034 0.33005,-0.1 0.6301,-0.2136 0.86808,-0.351 0.119009,-0.068 0.223519,-0.1423 0.310665,-0.237 0.08722,-0.095 0.164423,-0.224 0.164423,-0.3825 0,-0.3723 -0.219591,-0.6879 -0.517194,-0.9683 -0.297624,-0.2802 -0.693001,-0.5411 -1.146478,-0.8005 -0.864537,-0.4944 -1.938312,-0.9779 -2.907609,-1.4575 -0.02579,-0.5167 -0.157953,-1.1066 -0.475545,-1.6151 -0.355166,-0.5687 -0.970091,-1.0214 -1.825135,-1.0214 z"
         id="path5086" />
      <path
         transform="matrix(1.1177032,0,0,1.1185258,-419.50773,-229.23936)"
         sodipodi:type="star"
         style="font-style:normal;font-weight:normal;font-size:medium;line-height:125%;font-family:sans-serif;letter-spacing:0px;word-spacing:0px;fill:#d8c586;fill-opacity:1;stroke:none;stroke-width:0.11840353;stroke-linecap:butt;stroke-linejoin:round;stroke-miterlimit:4;stroke-dasharray:none;stroke-dashoffset:0;stroke-opacity:1"
         id="path5092"
         sodipodi:sides="6"
         sodipodi:cx="407.40814"
         sodipodi:cy="1113.0243"
         sodipodi:r1="11.162703"
         sodipodi:r2="9.6671848"
         sodipodi:arg1="-1.0471976"
         sodipodi:arg2="-0.52359878"
         inkscape:flatsided="true"
         inkscape:rounded="0"
         inkscape:randomized="0"
         d="m 412.98949,1103.3571 5.58135,9.6672 -5.58135,9.6672 -11.1627,0 -5.58135,-9.6672 5.58135,-9.6672 z" />
      <path
         id="path5096"
         d="m 35.967468,1008.3155 c -0.855027,0 -1.469966,0.4527 -1.825123,1.0214 -0.31763,0.5085 -0.449781,1.0984 -0.475564,1.6151 -0.969278,0.4795 -2.043058,0.9631 -2.907581,1.4575 -0.453498,0.2594 -0.848875,0.5202 -1.146486,0.8005 -0.297616,0.2803 -0.517208,0.596 -0.517208,0.9683 0,0.1585 0.07738,0.2876 0.164363,0.3824 0.08731,0.095 0.19172,0.1684 0.310726,0.2371 0.237985,0.1373 0.53803,0.2518 0.868087,0.351 0.490319,0.1472 1.039438,0.2567 1.516896,0.3034 -0.474895,0.819 -1.106899,1.5711 -1.660894,2.2917 -0.640231,0.833 -1.199178,1.6318 -1.199178,2.5192 0,0.1267 -0.0027,0.2257 0.01011,0.3252 0.01123,0.1 0.03983,0.2234 0.139653,0.3218 0.09991,0.098 0.222214,0.1248 0.32183,0.1356 0.0996,0.011 0.199993,0.011 0.32873,0.011 l 3.532315,0 c 0.25641,0 0.444165,0.016 0.637316,-0.1085 0.193169,-0.1242 0.263611,-0.2939 0.401229,-0.5475 l 0.0027,0 0.0027,-0.011 c 0,0 0.307902,-0.6265 0.675283,-1.2483 0.183672,-0.3107 0.383084,-0.6203 0.556538,-0.8396 0.08686,-0.1097 0.167969,-0.1967 0.226424,-0.2458 0.01787,-0.014 0.02606,-0.018 0.03746,-0.025 0.01148,0.011 0.01959,0.011 0.03746,0.025 0.05842,0.049 0.139652,0.136 0.226415,0.2458 0.173456,0.2193 0.372858,0.5289 0.55654,0.8396 0.367343,0.6218 0.675283,1.2483 0.675283,1.2483 l 0.0027,0.011 0.0027,0 c 0.137626,0.2536 0.207419,0.4223 0.399323,0.5468 0.191846,0.1245 0.379201,0.1097 0.632001,0.1097 l 3.547868,0 c 0.126664,0 0.225466,0 0.324398,-0.011 0.09892,-0.011 0.221621,-0.038 0.320497,-0.1374 0.0988,-0.1 0.126157,-0.2217 0.137112,-0.3207 0.01123,-0.098 0.01004,-0.1978 0.01004,-0.3247 0,-0.8873 -0.558936,-1.686 -1.199177,-2.519 -0.55396,-0.7207 -1.185968,-1.4728 -1.660894,-2.2918 0.477468,-0.047 1.026587,-0.1562 1.516903,-0.3034 0.33005,-0.1 0.6301,-0.2136 0.86808,-0.351 0.119009,-0.068 0.223519,-0.1423 0.310665,-0.237 0.08722,-0.095 0.164423,-0.224 0.164423,-0.3825 0,-0.3723 -0.219591,-0.6879 -0.517194,-0.9683 -0.297624,-0.2802 -0.693001,-0.5411 -1.146478,-0.8005 -0.864537,-0.4944 -1.938312,-0.9779 -2.907609,-1.4575 -0.02579,-0.5167 -0.157953,-1.1066 -0.475545,-1.6151 -0.355166,-0.5687 -0.970091,-1.0214 -1.825135,-1.0214 z"
         inkscape:connector-curvature="0"
         style="fill:#42290d;fill-opacity:1;stroke:none;stroke-opacity:1" />
      <path
         sodipodi:nodetypes="scccccscs"
         inkscape:connector-curvature="0"
         d="m 49.425254,981.03768 c -5.477044,0.25136 -11.154068,5.63755 -11.28331,10.50675 l -4.412227,-1.40364 5.717113,14.12991 8.3703,-9.65111 -4.792593,-1.52342 c -0.810915,-4.74668 5.680585,-6.47668 9.70691,-6.47668 5.024525,0 10.123784,0.37924 10.123784,14.07431 9.8e-5,-18.67953 -6.588803,-19.9701 -13.429977,-19.65612 z"
         id="path5102"
         style="fill:#d8c586;fill-opacity:1;stroke:none;stroke-width:0.99999994;stroke-opacity:1" />
      <g
         style="fill:#d8c586;fill-opacity:1"
         transform="matrix(0.33390198,0,0,0.33403655,52.577383,664.9428)"
         id="g5104"
         inkscape:label="Layer 1">
        <path
           id="path5106"
           d="m 32.579912,995.13399 c 2.124847,0 3.534937,1.0606 5.426456,2.1113 1.792663,0.996 4.046316,1.8501 7.224481,1.2011 1.508237,1.5076 3.040556,3.01551 4.674665,4.03681 1.337237,0.8358 2.839909,1.3336 4.338736,1.0984 -0.430029,3.3835 -2.484655,6.6932 -4.632572,8.4257 -5.664236,-1.8772 -11.342639,-2.8162 -17.021041,-2.8162 -5.683664,0 -11.367226,0.9408 -17.036623,2.8213 -2.150144,-1.731 -4.20821,-5.044 -4.638543,-8.4308 1.498524,0.2354 3.001499,-0.2626 4.338736,-1.0983 1.634109,-1.0213 3.166226,-2.52911 4.674665,-4.03671 3.177862,0.6489 5.431819,-0.2053 7.224482,-1.2011 1.891721,-1.0512 3.30171,-2.1115 5.426558,-2.1115 z m 0.01063,1.977 c -2.004945,0 -5.379912,2.7095 -5.379912,2.7095 0,0 2.147108,8.12861 5.379912,8.12861 3.233006,0 5.380114,-8.12861 5.380114,-8.12861 0,0 -3.375168,-2.7095 -5.380114,-2.7095 z m 0,13.89451 c 5.341462,0 10.683329,0.8733 16.037945,2.6039 0.220579,1.363 -0.152787,2.3758 -0.955979,3.3124 -0.896483,1.0454 -2.401281,1.9329 -4.184938,2.6013 -3.56772,1.3375 -8.194121,1.8108 -10.897129,1.8108 -2.702907,0 -7.329105,-0.4733 -10.896724,-1.8107 -1.783861,-0.6684 -3.288455,-1.5558 -4.184939,-2.6014 -0.803394,-0.9366 -1.176963,-1.9492 -0.956181,-3.3123 5.354616,-1.7307 10.696381,-2.604 16.037844,-2.604 z m 17.527665,5.7823 c 0.993619,0.241 2.725066,0.7866 3.036104,1.7195 0.850142,2.5495 -1.71202,6.455 -3.649679,8.9193 0.533843,-2.2265 0.821608,-4.5948 0.821608,-7.0505 0,-1.22 -0.07144,-2.4182 -0.208033,-3.5883 z m -35.054926,0 a 30.949923,30.949923 0 0 0 -0.208033,3.5882 c 0,2.4557 0.287665,4.824 0.821608,7.0505 -1.937658,-2.4643 -4.499921,-6.3698 -3.649678,-8.9193 0.310936,-0.9329 2.042484,-1.4785 3.036002,-1.7195 z m 33.393498,1.9398 c 0.03086,0.5441 0.04806,1.0934 0.04806,1.6483 0,6.0077 -1.834452,11.4294 -4.745796,15.3096 -2.911244,3.88 -6.850408,6.2038 -11.168604,6.2038 -4.317892,0 -8.257158,-2.3238 -11.1683,-6.2038 -2.911244,-3.8802 -4.745494,-9.3018 -4.745494,-15.3095 0,-0.5551 0.0172,-1.1044 0.04796,-1.6485 0.829701,0.7747 1.843152,1.4032 2.958091,1.9255 -0.432053,1.8416 0.02691,4.1322 1.224114,5.3289 2.203164,2.2022 7.144041,2.2022 9.347306,0 0.68238,-0.6823 0.975103,-1.7694 0.936451,-2.8602 0.499238,0.022 0.971359,0.033 1.400072,0.033 0.428815,0 0.901036,-0.012 1.400376,-0.033 -0.03875,1.0907 0.25397,2.1779 0.936552,2.8602 2.203265,2.2022 7.14394,2.2022 9.347103,0 1.1972,-1.1967 1.656166,-3.487 1.224114,-5.3285 1.11504,-0.5223 2.128693,-1.1511 2.958193,-1.9258 z m -15.866237,11.926 c -2.336725,3.7373 -7.010176,4.2044 -9.346901,4.2044 2.336624,1.8688 9.3468,1.8688 9.3468,0 0,1.8688 7.010479,1.8688 9.347305,0 -2.336826,0 -7.010479,-0.4671 -9.347305,-4.2044 z"
           style="fill:#d8c586;fill-opacity:1"
           inkscape:connector-curvature="0" />
      </g>
      <path
         d="m 12.236648,996.6872 c -0.460103,-1.8e-4 -0.944225,0.0673 -1.453627,0.21613 a 0.2949311,0.29616666 0 0 0 -0.0037,0 0.2949311,0.29616666 0 0 0 -0.01541,0 0.2949311,0.29616666 0 0 0 -0.01212,0 0.2949311,0.29616666 0 0 0 -0.0146,0.0101 0.2949311,0.29616666 0 0 0 -0.01184,0.0112 0.2949311,0.29616666 0 0 0 -0.0143,0.0112 0.2949311,0.29616666 0 0 0 -0.01065,0.0101 0.2949311,0.29616666 0 0 0 -0.01349,0.0111 0.2949311,0.29616666 0 0 0 -0.0091,0.0101 0.2949311,0.29616666 0 0 0 -0.01229,0.0112 0.2949311,0.29616666 0 0 0 -0.0091,0.0112 0.2949311,0.29616666 0 0 0 -0.01148,0.0132 0.2949311,0.29616666 0 0 0 -0.0073,0.0101 0.2949311,0.29616666 0 0 0 -0.01065,0.0155 0.2949311,0.29616666 0 0 0 -0.0064,0.0112 0.2949311,0.29616666 0 0 0 -0.0082,0.0152 0.2949311,0.29616666 0 0 0 -0.0064,0.0111 0.2949311,0.29616666 0 0 0 -0.0073,0.0152 0.2949311,0.29616666 0 0 0 -0.0055,0.0122 0.2949311,0.29616666 0 0 0 -0.0055,0.0162 0.2949311,0.29616666 0 0 0 -0.0036,0.0122 0.2949311,0.29616666 0 0 0 -0.0055,0.0215 l -0.6951628,3.49037 a 0.2949311,0.29616666 0 0 0 0.1746328,0.3308 l 2.546436,1.0781 0.981651,5.0546 -3.6178506,0.7892 a 0.2949311,0.29616666 0 0 0 -0.232832,0.2853 l -0.032992,2.3841 a 0.2949311,0.29616666 0 0 0 0.3841866,0.2863 l 4.547166,-1.4594 0.748896,-0.1458 c 0.0055,0 0.01093,0 0.01648,0 0.309096,0 0.600175,-0.1478 0.80346,-0.3887 0.203128,-0.2407 0.309395,-0.5546 0.309096,-0.8779 l 0,0 c 1.54e-4,-0.205 -0.04265,-0.4066 -0.125582,-0.5879 l -0.784602,-4.0705 3.904695,1.6529 a 0.2949311,0.29616666 0 0 0 0.0055,0 0.2949311,0.29616666 0 0 0 0.01686,0.01 0.2949311,0.29616666 0 0 0 0.01085,0 0.2949311,0.29616666 0 0 0 0.01686,0 0.2949311,0.29616666 0 0 0 0.01303,0 0.2949311,0.29616666 0 0 0 0.01503,0 0.2949311,0.29616666 0 0 0 0.01503,0 0.2949311,0.29616666 0 0 0 0.01341,0 0.2949311,0.29616666 0 0 0 0.01668,2e-4 0.2949311,0.29616666 0 0 0 0.0113,0 l 2.589373,-0.1646 a 0.2949311,0.29616666 0 0 0 0.247442,-0.1695 l 1.56847,-3.3343 2.53e-4,0 a 0.2949311,0.29616666 0 0 0 0,-1e-4 0.2949311,0.29616666 0 0 0 7.6e-4,0 0.2949311,0.29616666 0 0 0 -0.171048,-0.4095 c -0.241762,-0.1333 -0.490588,-0.2264 -0.743736,-0.2852 l -9.558118,-3.7246 a 0.2949311,0.29616666 0 0 0 -0.02487,-0.0101 c -0.413422,-0.11966 -0.849521,-0.18726 -1.309652,-0.18744 z m -0.817959,0.42772 a 0.2949311,0.29616666 0 0 1 0.11446,0.0226 l 9.026443,3.63288 a 0.29517945,0.29641608 0 0 1 0.179124,0.3364 0.2949311,0.29616666 0 0 0 -0.02195,0.046 l -0.02598,0.064 a 0.29517945,0.29641608 0 0 1 -0.350493,0.1035 l -9.026423,-3.63384 a 0.2949311,0.29616666 0 0 1 0.1048,-0.57175 z m 11.092757,4.00198 c 0.1366,0 0.271638,0.016 0.405706,0.044 l 0.457606,0.1783 -0.734851,1.5623 c 0.02825,-0.1264 0.04283,-0.252 0.04156,-0.3695 -0.0027,-0.2722 -0.09129,-0.4973 -0.243541,-0.6099 -0.152295,-0.1127 -0.36288,-0.1086 -0.570476,0.011 -0.05122,0.029 -0.102559,0.064 -0.1523,0.1057 0.01904,-0.025 0.03709,-0.053 0.05241,-0.084 0.04393,-0.087 0.0699,-0.1856 0.06881,-0.2738 -7.6e-4,-0.089 -0.02935,-0.1635 -0.07965,-0.2016 -0.02507,-0.019 -0.05395,-0.029 -0.0854,-0.028 -0.03135,0 -0.06526,0.01 -0.09799,0.029 -0.06553,0.038 -0.126658,0.1098 -0.170749,0.1959 -0.04393,0.087 -0.0699,0.1854 -0.06881,0.2737 7.61e-4,0.089 0.02935,0.1635 0.07947,0.2018 0.05012,0.039 0.117906,0.037 0.183352,0 -0.106067,0.1111 -0.203214,0.2462 -0.282266,0.3966 -0.143061,0.2716 -0.224338,0.5859 -0.221185,0.8582 0.0027,0.2722 0.09312,0.4983 0.245427,0.6108 0.152249,0.1127 0.360885,0.1075 0.568453,-0.011 0.129698,-0.072 0.257366,-0.1876 0.369749,-0.3299 l -0.261086,0.555 -1.948106,0.1246 1.156541,-2.8803 c 0.454344,-0.2414 0.877699,-0.3589 1.287224,-0.3553 z m -9.253942,1.1891 0.49716,0.2106 0.923037,4.3507 c -0.09332,-0.028 -0.190708,-0.044 -0.290025,-0.044 -0.08458,0 -0.16765,0.011 -0.247987,0.032 l -0.882185,-4.5495 z m 1.15963,0.491 0.528304,0.2237 0.714044,3.7045 c -0.08476,-0.024 -0.172734,-0.036 -0.262245,-0.036 -0.05094,0 -0.101436,0 -0.151034,0.012 l -0.829033,-3.9044 z m 0.980078,4.4866 c 0.119929,0 0.256374,0.062 0.356153,0.1799 0.09982,0.1183 0.168678,0.3083 0.168395,0.4925 2.53e-4,0.1841 -0.06863,0.3741 -0.168368,0.4925 -0.04739,0.056 -0.102987,0.099 -0.161062,0.1291 l -0.190708,0.038 c 0.06535,-0.1646 0.09881,-0.343 0.09859,-0.5247 l 0,0 c 1.34e-4,-0.1177 -0.01402,-0.2342 -0.04165,-0.3464 a 0.2949311,0.29616666 0 0 0 -0.0064,-0.07 l -0.08248,-0.3884 c 0.0082,0 0.01812,0 0.02698,0 z m -1.009536,0.134 c 0.119957,0 0.25643,0.062 0.356254,0.18 0.09982,0.1183 0.168577,0.3085 0.168324,0.4925 2.53e-4,0.1841 -0.06863,0.3742 -0.168349,0.4925 -0.09983,0.1184 -0.236272,0.18 -0.356254,0.18 -0.119929,0 -0.255609,-0.062 -0.355387,-0.18 -0.09981,-0.1183 -0.169434,-0.3084 -0.169191,-0.4925 -2.54e-4,-0.184 0.06945,-0.3742 0.169191,-0.4925 0.09982,-0.1183 0.235458,-0.18 0.355387,-0.18 z m -1.070944,0.3302 c -0.02698,0.111 -0.04083,0.2261 -0.04074,0.3423 l 0,0 c -2.53e-4,0.3233 0.10587,0.6372 0.308998,0.8779 0.02606,0.031 0.05341,0.06 0.08212,0.088 l -3.371065,1.082 0.02433,-1.7372 2.99631,-0.6536 z"
         id="path5110"
         inkscape:connector-curvature="0"
         style="fill:#42290d;fill-opacity:1;stroke-linecap:round;stroke-linejoin:round" />
    </g>
  </g>
</svg>
