<?xml version="1.0" encoding="UTF-8" standalone="no"?>
<!-- Created with Inkscape (http://www.inkscape.org/) -->

<svg
   xmlns:dc="http://purl.org/dc/elements/1.1/"
   xmlns:cc="http://creativecommons.org/ns#"
   xmlns:rdf="http://www.w3.org/1999/02/22-rdf-syntax-ns#"
   xmlns:svg="http://www.w3.org/2000/svg"
   xmlns="http://www.w3.org/2000/svg"
   xmlns:sodipodi="http://sodipodi.sourceforge.net/DTD/sodipodi-0.dtd"
   xmlns:inkscape="http://www.inkscape.org/namespaces/inkscape"
   width="450"
   height="325"
   viewBox="0 0 450.00001 325"
   id="svg5199"
   version="1.1"
   inkscape:version="0.91 r13725"
   sodipodi:docname="figure_alerts_adj_guard.svg">
  <defs
     id="defs5201" />
  <sodipodi:namedview
     id="base"
     pagecolor="#ffffff"
     bordercolor="#666666"
     borderopacity="1.0"
     inkscape:pageopacity="0.0"
     inkscape:pageshadow="2"
     inkscape:zoom="1.979899"
     inkscape:cx="113.83148"
     inkscape:cy="211.17041"
     inkscape:document-units="px"
     inkscape:current-layer="layer1"
     showgrid="false"
     units="px"
     borderlayer="true"
     inkscape:window-width="1920"
     inkscape:window-height="1017"
     inkscape:window-x="-8"
     inkscape:window-y="-8"
     inkscape:window-maximized="1" />
  <metadata
     id="metadata5204">
    <rdf:RDF>
      <cc:Work
         rdf:about="">
        <dc:format>image/svg+xml</dc:format>
        <dc:type
           rdf:resource="http://purl.org/dc/dcmitype/StillImage" />
        <dc:title></dc:title>
      </cc:Work>
    </rdf:RDF>
  </metadata>
  <g
     inkscape:label="Layer 1"
     inkscape:groupmode="layer"
     id="layer1"
     transform="translate(0,-727.36216)">
    <path
       inkscape:connector-curvature="0"
       id="path14021"
       style="font-style:normal;font-weight:normal;font-size:medium;line-height:125%;font-family:sans-serif;letter-spacing:0px;word-spacing:0px;fill:#000000;fill-opacity:1;stroke:none;stroke-width:1px;stroke-linecap:butt;stroke-linejoin:miter;stroke-opacity:1"
       d="m 132.56332,917.74512 -95.01171,0 q -0.993345,0 -1.811409,-0.58336 -0.759647,-0.58336 -1.227104,-1.40004 -0.467471,-0.81668 -0.467471,-1.75007 0,-0.87508 0.467471,-1.80844 L 81.960544,828.0828 q 0.467453,-0.8167 1.285486,-1.22504 0.818057,-0.40856 1.752988,-0.40856 0.93493,0 1.753,0.40856 0.818058,0.40854 1.285535,1.22504 l 47.564247,84.12041 q 0.46748,0.93336 0.46748,1.80844 0,0.93339 -0.46748,1.75007 -0.46745,0.81668 -1.2855,1.40004 -0.75963,0.58336 -1.75298,0.58336 z m -88.9347,-7.46697 82.74083,0 -41.370432,-73.15331 -41.370398,73.15331 z m 46.804657,-21.23433 -10.868481,0 0,-32.37642 10.868481,0 0,32.37642 z m 1.636115,10.61718 q 0,1.51671 -0.584313,2.80011 -0.525913,1.2834 -1.519255,2.27513 -0.93493,0.93337 -2.220452,1.51671 -1.285535,0.52502 -2.746354,0.52502 -1.46082,0 -2.746342,-0.52502 -1.285498,-0.58334 -2.220428,-1.51671 -0.93493,-0.99173 -1.460831,-2.27513 -0.525901,-1.2834 -0.525901,-2.80011 0,-1.4584 0.525901,-2.80014 0.525901,-1.34175 1.460831,-2.27512 0.93493,-0.99169 2.220428,-1.57504 1.285522,-0.58335 2.746342,-0.58335 1.460819,0 2.746354,0.58335 1.285522,0.58335 2.220452,1.57504 0.993342,0.93337 1.519255,2.27512 0.584313,1.34174 0.584313,2.80014 z" />
    <text
       xml:space="preserve"
       style="font-style:normal;font-weight:normal;font-size:118.33239746px;line-height:125%;font-family:sans-serif;letter-spacing:0px;word-spacing:0px;fill:#000000;fill-opacity:1;stroke:none;stroke-width:1px;stroke-linecap:butt;stroke-linejoin:miter;stroke-opacity:1"
       x="136.6815"
       y="904.37891"
       id="text14023"
       sodipodi:linespacing="125%"
       transform="scale(1.0000136,0.99998641)"><tspan
         sodipodi:role="line"
         id="tspan14025"
         x="136.6815"
         y="904.37891">:</tspan></text>
    <path
       transform="matrix(5.9235285,0,0,5.927888,-2055.1221,-5678.7113)"
       d="m 395.48223,1093.1241 5.58135,9.6672 -5.58135,9.6671 -11.1627,0 -5.58135,-9.6671 5.58135,-9.6672 z"
       inkscape:randomized="0"
       inkscape:rounded="0"
       inkscape:flatsided="true"
       sodipodi:arg2="-0.52359878"
       sodipodi:arg1="-1.0471976"
       sodipodi:r2="9.6671848"
       sodipodi:r1="11.162703"
       sodipodi:cy="1102.7913"
       sodipodi:cx="389.90088"
       sodipodi:sides="6"
       id="path5084"
       style="font-style:normal;font-weight:normal;font-size:medium;line-height:125%;font-family:sans-serif;letter-spacing:0px;word-spacing:0px;fill:#b3b3b3;fill-opacity:1;stroke:#000000;stroke-width:0.84378105;stroke-linecap:butt;stroke-linejoin:round;stroke-miterlimit:4;stroke-dasharray:none;stroke-dashoffset:0;stroke-opacity:1"
       sodipodi:type="star" />
    <path
       id="path5086"
       d="m 358.77467,879.99888 c -4.53144,0 -7.79045,2.39918 -9.6727,5.41314 -1.68336,2.69491 -2.38372,5.82118 -2.52034,8.55954 -5.13694,2.54128 -10.8277,5.10423 -15.4094,7.72437 -2.40344,1.37475 -4.49884,2.75697 -6.07609,4.24248 -1.57726,1.48552 -2.74103,3.15865 -2.74103,5.13174 0,0.84 0.41021,1.52419 0.87107,2.02656 0.46267,0.50348 1.01606,0.89253 1.64673,1.25663 1.26128,0.7276 2.85141,1.3345 4.60064,1.8602 2.59856,0.7801 5.50876,1.3604 8.03916,1.6079 -2.51684,4.3405 -5.86627,8.3264 -8.80232,12.1454 -3.39305,4.4147 -6.35528,8.6481 -6.35528,13.3511 0,0.6715 -0.0162,1.1961 0.0535,1.7234 0.0594,0.5301 0.21092,1.184 0.7401,1.7056 0.52943,0.5193 1.17766,0.6614 1.70561,0.7186 0.52786,0.058 1.05989,0.058 1.74218,0.058 l 18.72031,0 c 1.35889,0 2.35398,0.085 3.37762,-0.5751 1.02375,-0.6582 1.39706,-1.5576 2.12642,-2.9016 l 0.0162,0 0.0162,-0.058 c 0,0 1.6318,-3.3202 3.57881,-6.6156 0.97339,-1.6467 2.03026,-3.2874 2.9495,-4.4497 0.46056,-0.5814 0.8902,-1.0424 1.19998,-1.3027 0.0948,-0.074 0.13829,-0.095 0.19873,-0.1325 0.0609,0.058 0.10381,0.058 0.19875,0.1325 0.30951,0.2597 0.74016,0.7208 1.19996,1.3027 0.91924,1.1623 1.97605,2.803 2.94951,4.4497 1.9468,3.2954 3.57881,6.6156 3.57881,6.6156 l 0.0162,0.058 0.0162,0 c 0.7294,1.344 1.09928,2.2381 2.11629,2.8979 1.01675,0.6598 2.00972,0.5814 3.34948,0.5814 l 18.80273,0 c 0.6713,0 1.19493,0 1.71922,-0.058 0.52415,-0.058 1.17453,-0.2013 1.69857,-0.7281 0.52361,-0.53 0.66861,-1.175 0.72664,-1.6997 0.0594,-0.5194 0.053,-1.0483 0.053,-1.7208 0,-4.7024 -2.96223,-8.9353 -6.35534,-13.35 -2.93583,-3.8195 -6.28527,-7.8055 -8.80227,-12.146 2.53047,-0.249 5.44066,-0.8278 8.03916,-1.6079 1.74918,-0.53 3.33937,-1.132 4.60061,-1.8602 0.6307,-0.36038 1.18458,-0.75414 1.64646,-1.25602 0.46214,-0.50348 0.87138,-1.18715 0.87138,-2.02715 0,-1.97309 -1.16377,-3.6457 -2.74096,-5.13174 -1.57736,-1.48497 -3.67273,-2.86768 -6.07604,-4.24242 -4.58184,-2.62021 -10.27253,-5.18263 -15.40956,-7.72438 -0.13667,-2.73836 -0.83709,-5.86468 -2.52028,-8.55959 -1.88227,-3.01396 -5.14123,-5.41314 -9.67272,-5.41314 z"
       inkscape:connector-curvature="0"
       style="fill:#ffffff;stroke:none;stroke-opacity:1" />
    <path
       d="m 412.98949,1103.3571 5.58135,9.6672 -5.58135,9.6672 -11.1627,0 -5.58135,-9.6672 5.58135,-9.6672 z"
       inkscape:randomized="0"
       inkscape:rounded="0"
       inkscape:flatsided="true"
       sodipodi:arg2="-0.52359878"
       sodipodi:arg1="-1.0471976"
       sodipodi:r2="9.6671848"
       sodipodi:r1="11.162703"
       sodipodi:cy="1113.0243"
       sodipodi:cx="407.40814"
       sodipodi:sides="6"
       id="path5092"
       style="font-style:normal;font-weight:normal;font-size:medium;line-height:125%;font-family:sans-serif;letter-spacing:0px;word-spacing:0px;fill:#b3b3b3;fill-opacity:1;stroke:#000000;stroke-width:0.84378105;stroke-linecap:butt;stroke-linejoin:round;stroke-miterlimit:4;stroke-dasharray:none;stroke-dashoffset:0;stroke-opacity:1"
       sodipodi:type="star"
       transform="matrix(5.9235285,0,0,5.927888,-2054.0916,-5676.6707)" />
    <path
       style="fill:#4d4d4d;fill-opacity:1;stroke:none;stroke-opacity:1"
       inkscape:connector-curvature="0"
       d="m 254.4625,829.19457 c -3.93453,0 -6.76425,2.08315 -8.39856,4.7001 -1.46162,2.33992 -2.06973,5.05439 -2.18835,7.43204 -4.46027,2.20653 -9.40143,4.43187 -13.37961,6.70688 -2.08684,1.19366 -3.90623,2.39381 -5.27572,3.68364 -1.36949,1.28984 -2.37996,2.74258 -2.37996,4.45576 0,0.72935 0.35617,1.32338 0.75632,1.75958 0.40173,0.4372 0.88222,0.775 1.42982,1.0911 1.09514,0.6318 2.47581,1.1587 3.99462,1.6152 2.25627,0.6773 4.78312,1.1812 6.98021,1.3961 -2.18531,3.7688 -5.09354,7.2296 -7.64284,10.5456 -2.9461,3.8331 -5.51813,7.5089 -5.51813,11.5924 0,0.583 -0.0141,1.0385 0.0464,1.4964 0.0516,0.4602 0.18313,1.028 0.64261,1.4809 0.45969,0.4509 1.02253,0.5743 1.48094,0.6239 0.45833,0.05 0.92027,0.05 1.51269,0.05 l 16.25438,0 c 1.1799,0 2.04391,0.074 2.93271,-0.4993 0.8889,-0.5715 1.21303,-1.3524 1.84632,-2.5194 l 0.0141,0 0.0141,-0.051 c 0,0 1.41685,-2.8829 3.10739,-5.7442 0.84517,-1.4297 1.76283,-2.8544 2.56098,-3.8635 0.39989,-0.5048 0.77294,-0.9051 1.04191,-1.1311 0.0823,-0.064 0.12008,-0.083 0.17256,-0.1151 0.0529,0.051 0.0901,0.051 0.17256,0.1151 0.26874,0.2255 0.64267,0.6258 1.0419,1.1311 0.79815,1.0091 1.71576,2.4338 2.56099,3.8635 1.69036,2.8613 3.10739,5.7442 3.10739,5.7442 l 0.0141,0.051 0.0141,0 c 0.63332,1.167 0.95448,1.9433 1.83752,2.5162 0.88282,0.5729 1.74499,0.5048 2.90828,0.5048 l 16.32594,0 c 0.58288,0 1.03753,0 1.49276,-0.05 0.45511,-0.05 1.01981,-0.1748 1.47483,-0.6322 0.45463,-0.4602 0.58053,-1.0202 0.63092,-1.4758 0.0516,-0.4509 0.046,-0.9102 0.046,-1.4941 0,-4.083 -2.57203,-7.7584 -5.51819,-11.5915 -2.54911,-3.3164 -5.45734,-6.7773 -7.64279,-10.546 2.19714,-0.2163 4.72399,-0.7188 6.9802,-1.3962 1.51877,-0.4601 2.8995,-0.9829 3.9946,-1.6151 0.54762,-0.313 1.02854,-0.6548 1.42958,-1.0906 0.40126,-0.4372 0.7566,-1.03079 0.7566,-1.76014 0,-1.71318 -1.01048,-3.16547 -2.37991,-4.45576 -1.36958,-1.28936 -3.18894,-2.48994 -5.27568,-3.68359 -3.9783,-2.27506 -8.91938,-4.49995 -13.37974,-6.70689 -0.11866,-2.37765 -0.72682,-5.09216 -2.18829,-7.43208 -1.63433,-2.61695 -4.46401,-4.7001 -8.39859,-4.7001 z"
       id="path5096" />
    <g
       id="g4163"
       transform="matrix(0.70897832,0,0,0.70897832,75.104394,263.22659)">
      <circle
         r="45"
         cy="928.07642"
         cx="400.71429"
         id="path4151"
         style="fill:#000000;stroke:none;stroke-width:3;stroke-miterlimit:4;stroke-dasharray:none;stroke-opacity:1" />
      <path
         inkscape:connector-curvature="0"
         style="fill:#ffffff;fill-opacity:1"
         d="m 400.71429,896.83247 c 2.83886,0 4.7227,1.41745 7.24972,2.82167 2.39517,1.33142 5.40596,2.47258 9.65199,1.60564 2.01501,2.01471 4.06221,4.02984 6.24535,5.39477 1.78649,1.11717 3.79413,1.78267 5.79661,1.46791 -0.57456,4.52203 -3.31964,8.94522 -6.18917,11.26062 -7.56742,-2.50856 -15.1538,-3.76346 -22.74019,-3.76346 -7.59333,0 -15.18652,1.25738 -22.7609,3.7705 -2.87253,-2.31334 -5.62208,-6.74108 -6.19708,-11.26766 2.00206,0.31435 4.00999,-0.35158 5.79662,-1.4675 2.18314,-1.36534 4.23006,-3.38047 6.24535,-5.39518 4.2456,0.86694 7.25695,-0.27299 9.65185,-1.60524 2.52742,-1.40504 4.41113,-2.82207 7.24985,-2.82207 z m 0.0149,2.64257 c -2.67865,0 -7.18755,3.62078 -7.18755,3.62078 0,0 2.86859,10.86397 7.18755,10.86397 4.31925,0 7.18795,-10.86397 7.18795,-10.86397 0,0 -4.50931,-3.62078 -7.18795,-3.62078 z m 0,18.56919 c 7.13628,0 14.27297,1.16721 21.42669,3.48055 0.29478,1.82156 -0.20407,3.17531 -1.27708,4.42689 -1.19771,1.3972 -3.20823,2.58344 -5.59112,3.47685 -4.76648,1.78723 -10.94734,2.42006 -14.55863,2.42006 -3.61115,0 -9.79173,-0.63283 -14.55794,-2.42006 -2.3833,-0.89341 -4.39341,-2.07924 -5.59113,-3.47685 -1.07338,-1.25158 -1.57242,-2.60493 -1.27749,-4.42689 7.15374,-2.31334 14.29043,-3.48055 21.42656,-3.48055 z m 23.41689,7.72835 c 1.32767,0.32263 3.64075,1.05141 4.05621,2.29805 1.13596,3.40734 -2.28717,8.62757 -4.87596,11.92075 0.71326,-2.97594 1.09777,-6.14133 1.09777,-9.42295 0,-1.63046 -0.0954,-3.23197 -0.27806,-4.79585 z m -46.83325,0 a 41.349104,41.364178 0 0 0 -0.27798,4.79544 c 0,3.28203 0.3844,6.44742 1.09777,9.42336 -2.58879,-3.29318 -6.01192,-8.51341 -4.87596,-11.92075 0.41534,-1.24664 2.72868,-1.97625 4.05594,-2.29805 z m 44.61372,2.59253 c 0.0409,0.72715 0.0641,1.46131 0.0641,2.20291 0,8.02908 -2.45081,15.27558 -6.34039,20.46106 -3.88946,5.18588 -9.15212,8.29129 -14.92119,8.29129 -5.7688,0 -11.03159,-3.10541 -14.92091,-8.29129 -3.88931,-5.18548 -6.33998,-12.43157 -6.33998,-20.46106 0,-0.7416 0.0235,-1.47576 0.0641,-2.20332 1.10856,1.03528 2.46239,1.87575 3.95205,2.57392 -0.57717,2.46142 0.0359,5.52258 1.63542,7.12159 2.94344,2.94328 9.54439,2.94328 12.48797,0 0.91165,-0.91201 1.30271,-2.36462 1.25116,-3.82261 0.66691,0 1.29766,0.0579 1.87048,0.0579 0.57297,0 1.20387,0 1.8709,-0.0579 -0.0517,1.45799 0.33937,2.9106 1.25117,3.82261 2.94358,2.94328 9.5444,2.94328 12.48785,0 1.59941,-1.59901 2.21258,-4.66017 1.6354,-7.12117 1.48965,-0.69818 2.8439,-1.53824 3.95205,-2.57393 z m -21.19736,15.93861 c -3.12193,4.99479 -9.3655,5.61935 -12.48742,5.61935 3.12178,2.49741 12.48728,2.49741 12.48728,0 0,2.49741 9.36605,2.49741 12.48798,0 -3.12193,0 -9.36591,-0.62456 -12.48798,-5.61935 z"
         id="path15149" />
    </g>
  </g>
</svg>
