<?xml version="1.0" encoding="UTF-8" standalone="no"?>
<!-- Created with Inkscape (http://www.inkscape.org/) -->

<svg
   xmlns:dc="http://purl.org/dc/elements/1.1/"
   xmlns:cc="http://creativecommons.org/ns#"
   xmlns:rdf="http://www.w3.org/1999/02/22-rdf-syntax-ns#"
   xmlns:svg="http://www.w3.org/2000/svg"
   xmlns="http://www.w3.org/2000/svg"
   xmlns:sodipodi="http://sodipodi.sourceforge.net/DTD/sodipodi-0.dtd"
   xmlns:inkscape="http://www.inkscape.org/namespaces/inkscape"
   width="450"
   height="325"
   viewBox="0 0 450.00001 325"
   id="svg5199"
   version="1.1"
   inkscape:version="0.92.0 r15299"
   sodipodi:docname="figure_alerts_neighboring.svg">
  <defs
     id="defs5201" />
  <sodipodi:namedview
     id="base"
     pagecolor="#ffffff"
     bordercolor="#666666"
     borderopacity="1.0"
     inkscape:pageopacity="0.0"
     inkscape:pageshadow="2"
     inkscape:zoom="1.4"
     inkscape:cx="113.19629"
     inkscape:cy="101.40374"
     inkscape:document-units="px"
     inkscape:current-layer="layer1"
     showgrid="false"
     units="px"
     borderlayer="true"
     inkscape:window-width="1920"
     inkscape:window-height="1017"
     inkscape:window-x="-8"
     inkscape:window-y="-8"
     inkscape:window-maximized="1" />
  <metadata
     id="metadata5204">
    <rdf:RDF>
      <cc:Work
         rdf:about="">
        <dc:format>image/svg+xml</dc:format>
        <dc:type
           rdf:resource="http://purl.org/dc/dcmitype/StillImage" />
        <dc:title></dc:title>
      </cc:Work>
    </rdf:RDF>
  </metadata>
  <g
     inkscape:label="Layer 1"
     inkscape:groupmode="layer"
     id="layer1"
     transform="translate(0,-727.36216)">
    <g
       id="g4270"
       transform="translate(30.714286,0)">
      <path
         d="m 102.79809,862.49888 -95.0117029,0 q -0.993345,0 -1.811409,-0.58336 -0.759647,-0.58336 -1.227104,-1.40004 -0.467471,-0.81668 -0.467471,-1.75007 0,-0.87508 0.467471,-1.80844 L 52.195321,772.83656 q 0.467453,-0.8167 1.285486,-1.22504 0.818057,-0.40856 1.752988,-0.40856 0.93493,0 1.753,0.40856 0.818058,0.40854 1.285535,1.22504 l 47.56424,84.12041 q 0.46748,0.93336 0.46748,1.80844 0,0.93339 -0.46748,1.75007 -0.46745,0.81668 -1.2855,1.40004 -0.75963,0.58336 -1.75298,0.58336 z m -88.934693,-7.46697 82.740827,0 -41.370429,-73.15331 -41.370398,73.15331 z m 46.804657,-21.23433 -10.868481,0 0,-32.37642 10.868481,0 0,32.37642 z m 1.636115,10.61718 q 0,1.51671 -0.584313,2.80011 -0.525913,1.2834 -1.519255,2.27513 -0.93493,0.93337 -2.220452,1.51671 -1.285535,0.52502 -2.746354,0.52502 -1.46082,0 -2.746342,-0.52502 -1.285498,-0.58334 -2.220428,-1.51671 -0.93493,-0.99173 -1.460831,-2.27513 -0.525901,-1.2834 -0.525901,-2.80011 0,-1.4584 0.525901,-2.80014 0.525901,-1.34175 1.460831,-2.27512 0.93493,-0.99169 2.220428,-1.57504 1.285522,-0.58335 2.746342,-0.58335 1.460819,0 2.746354,0.58335 1.285522,0.58335 2.220452,1.57504 0.993342,0.93337 1.519255,2.27512 0.584313,1.34174 0.584313,2.80014 z"
         style="font-style:normal;font-weight:normal;font-size:medium;line-height:125%;font-family:sans-serif;letter-spacing:0px;word-spacing:0px;fill:#000000;fill-opacity:1;stroke:none;stroke-width:1px;stroke-linecap:butt;stroke-linejoin:miter;stroke-opacity:1"
         id="path14021"
         inkscape:connector-curvature="0" />
      <text
         transform="scale(1.0000136,0.99998641)"
         sodipodi:linespacing="125%"
         id="text14023"
         y="849.1319"
         x="106.91669"
         style="font-style:normal;font-weight:normal;font-size:118.33239746px;line-height:125%;font-family:sans-serif;letter-spacing:0px;word-spacing:0px;fill:#000000;fill-opacity:1;stroke:none;stroke-width:1px;stroke-linecap:butt;stroke-linejoin:miter;stroke-opacity:1"
         xml:space="preserve"><tspan
           y="849.1319"
           x="106.91669"
           id="tspan14025"
           sodipodi:role="line">:</tspan></text>
      <path
         sodipodi:type="star"
         style="font-style:normal;font-weight:normal;font-size:medium;line-height:125%;font-family:sans-serif;letter-spacing:0px;word-spacing:0px;fill:#b3b3b3;fill-opacity:1;stroke:#000000;stroke-width:0.84378105;stroke-linecap:butt;stroke-linejoin:round;stroke-miterlimit:4;stroke-dasharray:none;stroke-dashoffset:0;stroke-opacity:1"
         id="path5084"
         sodipodi:sides="6"
         sodipodi:cx="389.90088"
         sodipodi:cy="1102.7913"
         sodipodi:r1="11.162703"
         sodipodi:r2="9.6671848"
         sodipodi:arg1="-1.0471976"
         sodipodi:arg2="-0.52359878"
         inkscape:flatsided="true"
         inkscape:rounded="0"
         inkscape:randomized="0"
         d="m 395.48223,1093.1241 5.58135,9.6672 -5.58135,9.6671 -11.1627,0 -5.58135,-9.6671 5.58135,-9.6672 z"
         transform="matrix(5.9235285,0,0,5.927888,-2088.8706,-5721.7417)" />
      <g
         transform="translate(1.3921812,-2.2775431)"
         id="g3438">
        <path
           style="fill:#4d4d4d;fill-opacity:1;stroke:none;stroke-opacity:1"
           inkscape:connector-curvature="0"
           d="m 188.13842,795.76065 c -2.20666,0 -3.79369,1.16832 -4.71029,2.63603 -0.81974,1.31233 -1.1608,2.83472 -1.22732,4.16822 -2.50152,1.23752 -5.27275,2.48559 -7.50389,3.76152 -1.17039,0.66945 -2.19079,1.34255 -2.95886,2.06595 -0.76807,0.7234 -1.33479,1.53816 -1.33479,2.49899 0,0.40905 0.19976,0.74221 0.42418,0.98685 0.22531,0.2452 0.49479,0.43465 0.80191,0.61194 0.6142,0.35434 1.38854,0.64985 2.24036,0.90587 1.26542,0.37986 2.68259,0.66247 3.91482,0.783 -1.22562,2.11371 -2.85669,4.05468 -4.28645,5.91444 -1.65231,2.14978 -3.09482,4.21133 -3.09482,6.50154 0,0.32697 -0.008,0.58244 0.026,0.83925 0.0289,0.2581 0.1027,0.57655 0.3604,0.83055 0.25782,0.25289 0.57348,0.3221 0.83058,0.34991 0.25705,0.0281 0.51613,0.0281 0.84838,0.0281 l 9.11619,0 c 0.66174,0 1.14631,0.0415 1.64479,-0.28003 0.49854,-0.32053 0.68032,-0.75849 1.0355,-1.413 l 0.008,0 0.008,-0.0286 c 0,0 0.79463,-1.61686 1.74276,-3.2216 0.47401,-0.80184 0.98868,-1.60088 1.43631,-2.16683 0.22428,-0.28311 0.4335,-0.50762 0.58435,-0.63437 0.0462,-0.0359 0.0674,-0.0466 0.0968,-0.0645 0.0297,0.0286 0.0505,0.0286 0.0968,0.0645 0.15072,0.12647 0.36044,0.35098 0.58435,0.63437 0.44763,0.56595 0.96227,1.36499 1.43631,2.16683 0.94803,1.60474 1.74277,3.2216 1.74277,3.2216 l 0.008,0.0286 0.008,0 c 0.3552,0.65451 0.53532,1.08989 1.03057,1.4112 0.49512,0.32131 0.97867,0.28312 1.63109,0.28312 l 9.15632,0 c 0.3269,0 0.58189,0 0.83721,-0.0281 0.25524,-0.028 0.57195,-0.098 0.82715,-0.35456 0.25497,-0.2581 0.32558,-0.57218 0.35384,-0.8277 0.0289,-0.25288 0.0258,-0.51048 0.0258,-0.83796 0,-2.28993 -1.44251,-4.35125 -3.09484,-6.50103 -1.42966,-1.85998 -3.06073,-3.80101 -4.28642,-5.91467 1.23225,-0.12131 2.64942,-0.40313 3.9148,-0.78305 0.8518,-0.25804 1.62617,-0.55125 2.24036,-0.90582 0.30713,-0.17554 0.57685,-0.36724 0.80177,-0.61166 0.22504,-0.2452 0.42433,-0.57811 0.42433,-0.98716 0,-0.96083 -0.56672,-1.77534 -1.33476,-2.49899 -0.76812,-0.72313 -1.7885,-1.39647 -2.95883,-2.06592 -2.23121,-1.27596 -5.00239,-2.52378 -7.50396,-3.76153 -0.0666,-1.33349 -0.40764,-2.85591 -1.22729,-4.16824 -0.91661,-1.4677 -2.50362,-2.63603 -4.71031,-2.63603 z"
           id="path5096" />
        <text
           xml:space="preserve"
           style="font-style:normal;font-weight:normal;font-size:43.27939606px;line-height:125%;font-family:sans-serif;letter-spacing:0px;word-spacing:0px;fill:#4d4d4d;fill-opacity:1;stroke:none;stroke-width:1px;stroke-linecap:butt;stroke-linejoin:miter;stroke-opacity:1"
           x="246.45645"
           y="824.00525"
           id="text4841-5"
           sodipodi:linespacing="125%"
           transform="scale(1.0004634,0.99953681)"><tspan
             sodipodi:role="line"
             id="tspan4843-7"
             x="246.45645"
             y="824.00525"
             style="font-style:normal;font-variant:normal;font-weight:normal;font-stretch:normal;font-family:'Archivo Black';-inkscape-font-specification:'Archivo Black, ';fill:#4d4d4d;fill-opacity:1">+</tspan></text>
        <path
           id="path3434"
           d="m 228.54452,795.76065 c -2.20666,0 -3.79369,1.16832 -4.71029,2.63603 -0.81974,1.31233 -1.1608,2.83472 -1.22732,4.16822 -2.50152,1.23752 -5.27275,2.48559 -7.50389,3.76152 -1.17039,0.66945 -2.19079,1.34255 -2.95886,2.06595 -0.76807,0.7234 -1.33479,1.53816 -1.33479,2.49899 0,0.40905 0.19976,0.74221 0.42418,0.98685 0.22531,0.2452 0.49479,0.43465 0.80191,0.61194 0.6142,0.35434 1.38854,0.64985 2.24036,0.90587 1.26542,0.37986 2.68259,0.66247 3.91482,0.783 -1.22562,2.11371 -2.85669,4.05468 -4.28645,5.91444 -1.65231,2.14978 -3.09482,4.21133 -3.09482,6.50154 0,0.32697 -0.008,0.58244 0.026,0.83925 0.0289,0.2581 0.1027,0.57655 0.3604,0.83055 0.25782,0.25289 0.57348,0.3221 0.83058,0.34991 0.25705,0.0281 0.51613,0.0281 0.84838,0.0281 l 9.11619,0 c 0.66174,0 1.14631,0.0415 1.64479,-0.28003 0.49854,-0.32053 0.68032,-0.75849 1.0355,-1.413 l 0.008,0 0.008,-0.0286 c 0,0 0.79463,-1.61686 1.74276,-3.2216 0.47401,-0.80184 0.98868,-1.60088 1.43631,-2.16683 0.22428,-0.28311 0.4335,-0.50762 0.58435,-0.63437 0.0462,-0.0359 0.0674,-0.0466 0.0968,-0.0645 0.0297,0.0286 0.0505,0.0286 0.0968,0.0645 0.15072,0.12647 0.36044,0.35098 0.58435,0.63437 0.44763,0.56595 0.96227,1.36499 1.43631,2.16683 0.94803,1.60474 1.74277,3.2216 1.74277,3.2216 l 0.008,0.0286 0.008,0 c 0.3552,0.65451 0.53532,1.08989 1.03057,1.4112 0.49512,0.32131 0.97867,0.28312 1.63109,0.28312 l 9.15632,0 c 0.3269,0 0.58189,0 0.83721,-0.0281 0.25524,-0.028 0.57195,-0.098 0.82715,-0.35456 0.25497,-0.2581 0.32558,-0.57218 0.35384,-0.8277 0.0289,-0.25288 0.0258,-0.51048 0.0258,-0.83796 0,-2.28993 -1.44251,-4.35125 -3.09484,-6.50103 -1.42966,-1.85998 -3.06073,-3.80101 -4.28642,-5.91467 1.23225,-0.12131 2.64942,-0.40313 3.9148,-0.78305 0.8518,-0.25804 1.62617,-0.55125 2.24036,-0.90582 0.30713,-0.17554 0.57685,-0.36724 0.80177,-0.61166 0.22504,-0.2452 0.42433,-0.57811 0.42433,-0.98716 0,-0.96083 -0.56672,-1.77534 -1.33476,-2.49899 -0.76812,-0.72313 -1.7885,-1.39647 -2.95883,-2.06592 -2.23121,-1.27596 -5.00239,-2.52378 -7.50396,-3.76153 -0.0666,-1.33349 -0.40764,-2.85591 -1.22729,-4.16824 -0.91661,-1.4677 -2.50362,-2.63603 -4.71031,-2.63603 z"
           inkscape:connector-curvature="0"
           style="fill:#4d4d4d;fill-opacity:1;stroke:none;stroke-opacity:1" />
      </g>
    </g>
    <g
       id="g4256"
       transform="translate(30.714286,0)">
      <g
         transform="matrix(0.73031105,0,0,0.73031105,67.240526,272.60257)"
         id="g4252">
        <rect
           style="fill:#b3b3b3;fill-opacity:1;stroke:#000000;stroke-width:5;stroke-linecap:round;stroke-linejoin:round;stroke-miterlimit:4;stroke-dasharray:none;stroke-dashoffset:0.60000002;stroke-opacity:1"
           id="rect5229"
           width="119.48205"
           height="119.48203"
           x="296.20898"
           y="884.43329"
           ry="13.115295" />
        <path
           style="fill:#000000;fill-opacity:1"
           d="m 349.04357,894.25658 0,94.69231 30.34921,-8.84956 0,-76.99319 -30.34921,-8.84956 z m 34.18312,5.58532 0.0126,0.48022 0,6.1699 3.41977,0 0,-6.64755 -3.43321,0 z m -55.12948,0 0,24.36203 3.84742,0 0,-20.62269 13.25147,0 0,-3.73934 -17.09889,0 z m 55.14299,10.38691 0,3.32442 3.41854,0 0,-3.32442 -3.41854,0 z m 0,7.06376 0,49.02757 3.41854,0 0,-49.02757 -3.41854,0 z m -60.36762,6.05528 -12.45385,12.10483 12.45385,12.10674 0,-7.3282 20.51871,0 0,-9.5558 -20.51871,0 0,-7.32757 z m 31.94084,13.26504 c 1.41641,0 2.56459,2.23208 2.56459,4.986 0,2.75329 -1.14818,4.986 -2.56459,4.986 -1.41633,0 -2.56451,-2.23271 -2.56451,-4.986 0,-2.75392 1.14818,-4.986 2.56451,-4.986 z m -22.86879,6.31526 0,7.32949 -20.51749,0 0,9.55579 20.51749,0 0,7.32756 12.45506,-12.1061 -12.45506,-12.10674 z m -3.84742,25.83599 0,12.72208 3.84742,0 0,-12.72208 -3.84742,0 z m 55.14299,1.29533 0,2.90823 3.41854,0 0,-2.90823 -3.41854,0 z m 0,6.64821 0,4.77854 3.41854,0 0,-4.77854 -3.41854,0 z m -73.73678,9.5558 0,3.73997 35.69268,0 0,-3.73997 -35.69268,0 z m 62.12102,0 -12.82388,3.73997 46.45325,0 0,-3.73997 -33.62937,0 z"
           id="path11026"
           inkscape:connector-curvature="0" />
      </g>
      <g
         style="fill:#4d4d4d;fill-opacity:1;stroke:none;stroke-width:0.86475652;stroke-miterlimit:4;stroke-dasharray:none;stroke-opacity:1"
         transform="matrix(1.1563949,0,0,1.1563948,727.57201,-146.88764)"
         id="g5246">
        <path
           style="fill:#4d4d4d;fill-opacity:1;stroke:none;stroke-width:0.86475652;stroke-miterlimit:4;stroke-dasharray:none;stroke-opacity:1"
           inkscape:connector-curvature="0"
           d="m -361.34368,894.60352 c -1.5875,0 -2.72928,0.83893 -3.38869,1.89253 -0.58973,0.9421 -0.83508,2.03513 -0.88294,2.9924 -1.79963,0.88864 -3.79332,1.78454 -5.39841,2.70058 -0.84204,0.4806 -1.57611,0.96388 -2.12868,1.48324 -0.55257,0.51934 -0.96029,1.10419 -0.96029,1.79411 0,0.29359 0.1436,0.53281 0.3051,0.70834 0.16225,0.17616 0.35598,0.31224 0.57695,0.43936 0.44187,0.2546 0.99893,0.46672 1.61176,0.65031 0.91035,0.27285 1.92989,0.47562 2.81637,0.56227 -0.88172,1.51742 -2.05515,2.9109 -3.08373,4.24619 -1.18873,1.54333 -2.22649,3.02327 -2.22649,4.66753 0,0.23488 -0.003,0.41821 0.0179,0.60247 0.0215,0.1844 0.0737,0.41405 0.25928,0.59623 0.18549,0.18226 0.41257,0.2313 0.59754,0.25136 0.18478,0.0215 0.37132,0.0215 0.61036,0.0215 l 6.55832,0 c 0.47611,0 0.82468,0.0287 1.18328,-0.20123 0.35869,-0.23022 0.48947,-0.54463 0.74496,-1.01448 l 0.003,0 0.003,-0.0215 c 0,0 0.57168,-1.16076 1.25378,-2.31284 0.3409,-0.57568 0.71126,-1.14934 1.03331,-1.55574 0.16119,-0.20301 0.31191,-0.36436 0.42042,-0.45533 0.0322,-0.0285 0.0484,-0.0322 0.0695,-0.0456 0.0215,0.0215 0.0361,0.0215 0.0695,0.0456 0.1084,0.0913 0.25928,0.25206 0.42038,0.45533 0.32195,0.4064 0.69227,0.98006 1.03334,1.55574 0.68203,1.15208 1.25374,2.31284 1.25374,2.31284 l 0.003,0.0215 0.003,0 c 0.25569,0.46985 0.38513,0.78236 0.74147,1.01324 0.3563,0.23059 0.70403,0.20302 1.17339,0.20302 l 6.58723,0 c 0.2353,0 0.41862,0 0.60231,-0.0215 0.18371,-0.0215 0.41151,-0.0705 0.59507,-0.25458 0.18334,-0.1844 0.2342,-0.41076 0.25461,-0.59416 0.0215,-0.18225 0.0179,-0.36663 0.0179,-0.60161 0,-1.64405 -1.03778,-3.12399 -2.22649,-4.66735 -1.02852,-1.33527 -2.20195,-2.72877 -3.08372,-4.24619 0.88648,-0.0871 1.90603,-0.28967 2.81637,-0.56225 0.61282,-0.18441 1.16988,-0.39584 1.61176,-0.65032 0.22094,-0.12634 0.415,-0.26354 0.5768,-0.43915 0.1619,-0.17617 0.30546,-0.41493 0.30546,-0.70858 0,-0.6899 -0.4077,-1.27475 -0.96026,-1.79408 -0.55259,-0.51937 -1.28668,-1.00263 -2.12866,-1.48326 -1.60517,-0.916 -3.59878,-1.81192 -5.39848,-2.70056 -0.0481,-0.95723 -0.29329,-2.05024 -0.88293,-2.99238 -0.65941,-1.05362 -1.80116,-1.89256 -3.38869,-1.89256 z"
           id="path5238" />
        <path
           id="path5240"
           d="m -333.11578,894.60352 c -1.5875,0 -2.72925,0.8389 -3.38866,1.89253 -0.58974,0.94212 -0.8351,2.03509 -0.88296,2.99237 -1.79966,0.88867 -3.7933,1.78457 -5.39845,2.70059 -0.84197,0.48061 -1.5761,0.96386 -2.12864,1.48323 -0.55258,0.51937 -0.96027,1.10422 -0.96027,1.79409 0,0.29363 0.14359,0.53283 0.3051,0.70839 0.16225,0.17616 0.35596,0.31224 0.57695,0.43933 0.44183,0.25459 0.99893,0.46671 1.61174,0.65034 0.91036,0.27285 1.9299,0.47562 2.81638,0.56223 -0.88173,1.51746 -2.05516,2.91095 -3.08376,4.24624 -1.1887,1.54332 -2.22645,3.02323 -2.22645,4.66749 0,0.23487 -0.003,0.41824 0.0179,0.6025 0.0215,0.1844 0.0737,0.41406 0.25928,0.59623 0.1855,0.18226 0.4126,0.2313 0.59757,0.25136 0.18479,0.0215 0.37132,0.0215 0.61031,0.0215 l 6.55838,0 c 0.47606,0 0.82468,0.0287 1.18328,-0.2012 0.35865,-0.23025 0.48944,-0.54464 0.74496,-1.01448 l 0.003,0 0.003,-0.0216 c 0,0 0.57169,-1.16075 1.25382,-2.31285 0.34091,-0.5757 0.71123,-1.14934 1.03331,-1.55576 0.16119,-0.20302 0.3119,-0.36434 0.42039,-0.45532 0.0322,-0.0287 0.0484,-0.0322 0.0695,-0.0455 0.0215,0.0215 0.0366,0.0215 0.0695,0.0455 0.1084,0.091 0.25927,0.25209 0.42038,0.45532 0.32193,0.40642 0.69226,0.98006 1.03328,1.55576 0.68206,1.1521 1.2538,2.31285 1.2538,2.31285 l 0.003,0.0216 0.003,0 c 0.25569,0.46984 0.38512,0.78236 0.74142,1.01321 0.35632,0.23059 0.70404,0.20302 1.17341,0.20302 l 6.58726,0 c 0.23527,0 0.41862,0 0.6023,-0.0215 0.1837,-0.0215 0.41146,-0.0705 0.59502,-0.2546 0.18337,-0.18438 0.2342,-0.41076 0.25461,-0.59416 0.0215,-0.18223 0.018,-0.36662 0.018,-0.60159 0,-1.64408 -1.03775,-3.12401 -2.22645,-4.66737 -1.02856,-1.33525 -2.20195,-2.72877 -3.08377,-4.24617 0.8865,-0.0871 1.90602,-0.28969 2.81642,-0.56227 0.61277,-0.1844 1.16987,-0.39583 1.6117,-0.65031 0.22097,-0.12635 0.41502,-0.26353 0.57683,-0.43916 0.16189,-0.17617 0.30545,-0.41491 0.30545,-0.70856 0,-0.68992 -0.40771,-1.27477 -0.96027,-1.79413 -0.55259,-0.51934 -1.28666,-1.00263 -2.12865,-1.48323 -1.60514,-0.916 -3.59877,-1.81192 -5.39844,-2.70059 -0.0479,-0.95725 -0.29329,-2.05021 -0.88294,-2.99235 -0.65943,-1.05363 -1.80114,-1.89256 -3.38871,-1.89256 z"
           inkscape:connector-curvature="0"
           style="fill:#4d4d4d;fill-opacity:1;stroke:none;stroke-width:0.86475652;stroke-miterlimit:4;stroke-dasharray:none;stroke-opacity:1" />
        <text
           xml:space="preserve"
           style="font-style:normal;font-weight:normal;font-size:31.57863808px;line-height:125%;font-family:sans-serif;letter-spacing:0px;word-spacing:0px;fill:#4d4d4d;fill-opacity:1;stroke:none;stroke-width:0.86475652;stroke-linecap:butt;stroke-linejoin:miter;stroke-miterlimit:4;stroke-dasharray:none;stroke-opacity:1"
           x="-319.87796"
           y="915.44635"
           id="text5242"
           sodipodi:linespacing="125%"
           transform="scale(1.0000655,0.99993451)"><tspan
             sodipodi:role="line"
             id="tspan5244"
             x="-319.87796"
             y="915.44635"
             style="font-style:normal;font-variant:normal;font-weight:normal;font-stretch:normal;font-family:'Archivo Black';-inkscape-font-specification:'Archivo Black, ';fill:#4d4d4d;fill-opacity:1;stroke:none;stroke-width:0.86475652;stroke-miterlimit:4;stroke-dasharray:none;stroke-opacity:1">+</tspan></text>
      </g>
      <path
         inkscape:connector-curvature="0"
         id="path3444"
         style="font-style:normal;font-weight:normal;font-size:medium;line-height:125%;font-family:sans-serif;letter-spacing:0px;word-spacing:0px;fill:#000000;fill-opacity:1;stroke:none;stroke-width:1px;stroke-linecap:butt;stroke-linejoin:miter;stroke-opacity:1"
         d="m 102.79809,997.17222 -95.0117029,0 q -0.993345,0 -1.811409,-0.58336 -0.759647,-0.58336 -1.227104,-1.40004 -0.467471,-0.81668 -0.467471,-1.75007 0,-0.87508 0.467471,-1.80844 L 52.195321,907.5099 q 0.467453,-0.8167 1.285486,-1.22504 0.818057,-0.40856 1.752988,-0.40856 0.93493,0 1.753,0.40856 0.818058,0.40854 1.285535,1.22504 l 47.56424,84.12041 q 0.46748,0.93336 0.46748,1.80844 0,0.93339 -0.46748,1.75007 -0.46745,0.81668 -1.2855,1.40004 -0.75963,0.58336 -1.75298,0.58336 z m -88.934693,-7.46697 82.740827,0 -41.370429,-73.15331 -41.370398,73.15331 z m 46.804657,-21.23433 -10.868481,0 0,-32.37642 10.868481,0 0,32.37642 z m 1.636115,10.61718 q 0,1.51671 -0.584313,2.80011 -0.525913,1.2834 -1.519255,2.27513 -0.93493,0.93337 -2.220452,1.51671 -1.285535,0.52502 -2.746354,0.52502 -1.46082,0 -2.746342,-0.52502 -1.285498,-0.58334 -2.220428,-1.51671 -0.93493,-0.99173 -1.460831,-2.27513 -0.525901,-1.2834 -0.525901,-2.80011 0,-1.4584 0.525901,-2.80014 0.525901,-1.34175 1.460831,-2.27512 0.93493,-0.99169 2.220428,-1.57504 1.285522,-0.58335 2.746342,-0.58335 1.460819,0 2.746354,0.58335 1.285522,0.58335 2.220452,1.57504 0.993342,0.93337 1.519255,2.27512 0.584313,1.34174 0.584313,2.80014 z" />
      <text
         xml:space="preserve"
         style="font-style:normal;font-weight:normal;font-size:118.33239746px;line-height:125%;font-family:sans-serif;letter-spacing:0px;word-spacing:0px;fill:#000000;fill-opacity:1;stroke:none;stroke-width:1px;stroke-linecap:butt;stroke-linejoin:miter;stroke-opacity:1"
         x="208.43564"
         y="983.80707"
         id="text3446"
         sodipodi:linespacing="125%"
         transform="scale(1.0000136,0.99998641)"><tspan
           sodipodi:role="line"
           id="tspan3448"
           x="208.43564"
           y="983.80707">:</tspan></text>
      <path
         d="m 217.06323,997.17222 -95.0117,0 q -0.99335,0 -1.81141,-0.58336 -0.75965,-0.58336 -1.22711,-1.40004 -0.46747,-0.81668 -0.46747,-1.75007 0,-0.87508 0.46747,-1.80844 l 47.44745,-84.12041 q 0.46745,-0.8167 1.28549,-1.22504 0.81805,-0.40856 1.75299,-0.40856 0.93493,0 1.753,0.40856 0.81805,0.40854 1.28553,1.22504 l 47.56424,84.12041 q 0.46748,0.93336 0.46748,1.80844 0,0.93339 -0.46748,1.75007 -0.46745,0.81668 -1.2855,1.40004 -0.75963,0.58336 -1.75298,0.58336 z m -88.93469,-7.46697 82.74082,0 -41.37042,-73.15331 -41.3704,73.15331 z m 46.80465,-21.23433 -10.86848,0 0,-32.37642 10.86848,0 0,32.37642 z m 1.63612,10.61718 q 0,1.51671 -0.58431,2.80011 -0.52592,1.2834 -1.51926,2.27513 -0.93493,0.93337 -2.22045,1.51671 -1.28554,0.52502 -2.74635,0.52502 -1.46082,0 -2.74635,-0.52502 -1.28549,-0.58334 -2.22042,-1.51671 -0.93493,-0.99173 -1.46084,-2.27513 -0.5259,-1.2834 -0.5259,-2.80011 0,-1.4584 0.5259,-2.80014 0.52591,-1.34175 1.46084,-2.27512 0.93493,-0.99169 2.22042,-1.57504 1.28553,-0.58335 2.74635,-0.58335 1.46081,0 2.74635,0.58335 1.28552,0.58335 2.22045,1.57504 0.99334,0.93337 1.51926,2.27512 0.58431,1.34174 0.58431,2.80014 z"
         style="font-style:normal;font-weight:normal;font-size:medium;line-height:125%;font-family:sans-serif;letter-spacing:0px;word-spacing:0px;fill:#000000;fill-opacity:1;stroke:none;stroke-width:1px;stroke-linecap:butt;stroke-linejoin:miter;stroke-opacity:1"
         id="path3450"
         inkscape:connector-curvature="0" />
    </g>
  </g>
</svg>
