<?xml version="1.0" encoding="UTF-8" standalone="no"?>
<!-- Created with Inkscape (http://www.inkscape.org/) -->

<svg
   xmlns:dc="http://purl.org/dc/elements/1.1/"
   xmlns:cc="http://creativecommons.org/ns#"
   xmlns:rdf="http://www.w3.org/1999/02/22-rdf-syntax-ns#"
   xmlns:svg="http://www.w3.org/2000/svg"
   xmlns="http://www.w3.org/2000/svg"
   xmlns:sodipodi="http://sodipodi.sourceforge.net/DTD/sodipodi-0.dtd"
   xmlns:inkscape="http://www.inkscape.org/namespaces/inkscape"
   width="75"
   height="75"
   viewBox="0 0 75.000001 75.000001"
   id="svg5199"
   version="1.1"
   inkscape:version="0.91 r13725"
   sodipodi:docname="figure_alerts_lockdown.svg">
  <defs
     id="defs5201" />
  <sodipodi:namedview
     id="base"
     pagecolor="#ffffff"
     bordercolor="#666666"
     borderopacity="1.0"
     inkscape:pageopacity="0.0"
     inkscape:pageshadow="2"
     inkscape:zoom="2.8"
     inkscape:cx="74.192505"
     inkscape:cy="20.95413"
     inkscape:document-units="px"
     inkscape:current-layer="layer1"
     showgrid="false"
     units="px"
     borderlayer="true"
     inkscape:window-width="1280"
     inkscape:window-height="961"
     inkscape:window-x="1912"
     inkscape:window-y="-8"
     inkscape:window-maximized="1" />
  <metadata
     id="metadata5204">
    <rdf:RDF>
      <cc:Work
         rdf:about="">
        <dc:format>image/svg+xml</dc:format>
        <dc:type
           rdf:resource="http://purl.org/dc/dcmitype/StillImage" />
        <dc:title />
      </cc:Work>
    </rdf:RDF>
  </metadata>
  <g
     inkscape:label="Layer 1"
     inkscape:groupmode="layer"
     id="layer1"
     transform="translate(0,-977.36216)">
    <rect
       ry="5.2912221"
       y="977.36218"
       x="6.3343717e-009"
       height="75"
       width="75"
       id="rect5149"
       style="fill:#42290d;fill-opacity:1;stroke:none;stroke-width:1.74198794;stroke-miterlimit:4;stroke-dasharray:none;stroke-opacity:1" />
    <path
       d="m 412.98949,1103.3571 5.58135,9.6672 -5.58135,9.6672 -11.1627,0 -5.58135,-9.6672 5.58135,-9.6672 z"
       inkscape:randomized="0"
       inkscape:rounded="0"
       inkscape:flatsided="true"
       sodipodi:arg2="-0.52359878"
       sodipodi:arg1="-1.0471976"
       sodipodi:r2="9.6671848"
       sodipodi:r1="11.162703"
       sodipodi:cy="1113.0243"
       sodipodi:cx="407.40814"
       sodipodi:sides="6"
       id="path6377"
       style="font-style:normal;font-weight:normal;font-size:medium;line-height:125%;font-family:sans-serif;letter-spacing:0px;word-spacing:0px;fill:#d8c586;fill-opacity:1;stroke:none;stroke-width:0.06688002;stroke-linecap:butt;stroke-linejoin:round;stroke-miterlimit:4;stroke-dasharray:none;stroke-dashoffset:0;stroke-opacity:1"
       sodipodi:type="star"
       transform="matrix(2.4359675,0,0,2.4419266,-954.93299,-1714.5415)" />
    <path
       style="fill:#42290d;fill-opacity:1;stroke:none;stroke-width:10;stroke-linecap:round;stroke-linejoin:round;stroke-miterlimit:4;stroke-dasharray:none;stroke-dashoffset:0;stroke-opacity:1"
       d="m 36.161468,982.01202 c -0.521541,0.0141 -1.323687,0.23677 -1.23946,0.56117 0.27189,0.2899 0.437222,0.70311 0.630692,1.07475 0.431506,0.82879 0.763171,1.76238 1.029032,2.86805 0.245188,0.17267 0.333663,0.14693 0.693527,0.0659 0.240253,-0.054 0.447433,-0.0856 0.523323,-0.27265 0.1079,-0.30523 0.179916,-0.60473 0.264736,-0.9125 0.09413,-0.34139 0.203683,-0.69187 0.394656,-1.04365 0.393935,-0.72551 0.796398,-1.32741 1.01254,-1.89455 0.07967,-0.23379 -0.540342,-0.33125 -0.790526,-0.33242 -0.535627,-0.003 -1.217255,0.0159 -2.216618,-0.0897 -0.07605,-0.0203 -0.181571,-0.0277 -0.301901,-0.0244 z m -1.856753,0.32206 c -0.06068,-0.006 -0.120829,0.005 -0.175044,0.0342 -0.72407,0.39302 -1.434242,0.0953 -1.972617,0.60264 -0.179636,0.16929 -0.228011,0.45042 -0.05674,0.62827 1.041648,1.08196 1.105919,1.43313 2.044009,3.17912 0.687249,0.48524 1.451949,0.11339 1.66397,0.0232 0.225669,-0.0996 0.391438,-0.30633 0.320233,-0.54286 -0.138068,-1.52815 -0.765199,-2.27786 -1.456602,-3.56951 -0.0031,-0.18524 -0.18457,-0.33877 -0.366579,-0.35438 l 0,-6.3e-4 z m 5.633626,0.1714 c -0.182009,0.0156 -0.363331,0.16974 -0.366579,0.355 -0.691401,1.29164 -1.318503,2.04136 -1.456601,3.5695 -0.0712,0.23653 0.09394,0.4432 0.31964,0.54287 1.142645,0.50459 0.753801,0.15318 1.259571,0.23483 0.243533,0.0393 0.416204,-0.0405 0.533097,-0.25801 0.93809,-1.746 1.00233,-2.09717 2.043978,-3.17913 0.171205,-0.17783 0.122859,-0.45897 -0.05671,-0.62826 -0.538375,-0.50738 -1.376684,-0.20961 -2.100723,-0.60264 -0.05412,-0.0295 -0.11502,-0.0394 -0.175669,-0.0342 z m -8.635244,0.81247 c -0.06065,0.006 -0.118799,0.0258 -0.167112,0.064 -0.645838,0.51184 -1.523216,0.36206 -1.966527,0.95459 -0.147906,0.19769 -0.151747,0.48935 0.05184,0.62887 1.256417,0.86099 1.564471,1.09073 2.559399,2.78021 0.760265,0.35968 1.576776,-0.16002 1.770121,-0.28546 0.205213,-0.13704 0.332726,-0.36968 0.222015,-0.59045 -0.398246,-1.48162 -1.144864,-2.11236 -2.047632,-3.26574 -0.03492,-0.18193 -0.240097,-0.302 -0.422106,-0.28607 z m 11.59845,0.30621 c -0.182229,-0.0133 -0.385506,0.10973 -0.417828,0.29217 -0.88581,1.16649 -1.622903,1.80833 -1.999475,3.29563 -0.107494,0.22235 0.02311,0.45275 0.230572,0.58678 0.195188,0.1226 1.01885,0.63002 1.773775,0.25923 1.200828,-1.57629 1.319846,-1.91261 2.51855,-2.81681 0.197031,-0.14862 0.193471,-0.43397 0.04269,-0.62948 -0.451931,-0.58598 -1.326717,-0.4236 -1.979956,-0.92592 -0.04884,-0.0377 -0.107619,-0.0572 -0.16833,-0.0616 z m -14.378051,1.15648 c -0.09307,0.003 -0.182978,0.0372 -0.24397,0.10675 -0.54306,0.62013 -1.432836,0.63203 -1.762189,1.29495 -0.109867,0.22119 -0.05962,0.50474 0.164083,0.60874 1.377184,0.6402 1.925679,0.79824 3.131535,2.24954 0.812575,0.21645 1.408538,-0.41993 1.576151,-0.57824 0.177168,-0.17188 0.260271,-0.4232 0.111616,-0.62034 -0.658487,-1.38536 -1.505852,-1.87107 -2.601497,-2.84242 -0.0559,-0.14386 -0.220517,-0.22431 -0.375729,-0.21898 z m 17.12227,0.41173 c -0.155183,-0.006 -0.319765,0.0751 -0.37573,0.21897 -1.095645,0.97136 -1.94298,1.45644 -2.601497,2.84182 -0.148655,0.19715 -0.06555,0.44908 0.111616,0.62094 0.16758,0.15832 0.877034,0.81726 1.68961,0.60082 1.484304,-1.31185 1.6665,-1.87646 3.018076,-2.52952 0.22214,-0.10735 0.273981,-0.38757 0.164083,-0.60874 -0.329321,-0.66292 -1.21913,-0.41743 -1.762189,-1.03755 -0.06109,-0.0696 -0.15081,-0.10354 -0.243969,-0.10674 z m -19.494414,1.59383 c -0.155276,-0.0107 -0.321826,0.0637 -0.381226,0.20617 -0.317298,0.76122 -0.981686,0.99733 -1.259572,1.6835 -0.09272,0.22893 -0.02155,0.50944 0.209835,0.59471 0.422762,0.15566 2.396878,0.94064 2.787535,1.15527 0.40927,0.22486 0.26402,0.25581 0.956422,0.54286 0.224388,0.0931 0.42348,0.0836 0.547744,-0.0293 0.422512,-0.38363 0.729535,-0.74886 0.968008,-1.10586 0.113209,-0.2195 -0.08492,-0.40778 -0.288503,-0.54714 -1.065134,-1.10261 -1.951038,-1.81553 -3.298678,-2.38617 -0.0594,-0.0711 -0.148375,-0.1077 -0.241565,-0.11406 z m 22.43076,0.0244 c -0.09316,0.007 -0.182228,0.043 -0.241534,0.11406 -1.347704,0.57068 -2.507963,1.55797 -3.573159,2.66066 -0.42654,0.31322 0.505491,1.80155 1.318753,1.73291 1.173814,-0.82909 2.461524,-1.34854 4.017189,-1.92139 0.231508,-0.0853 0.302557,-0.36577 0.209835,-0.59471 -0.277886,-0.68616 -1.032561,-1.02476 -1.349858,-1.78597 -0.0594,-0.14249 -0.22595,-0.21617 -0.381226,-0.20556 z m -12.076643,0.563 c -0.632066,0.0376 -1.242771,0.12494 -1.825618,0.26045 l 0,2.09278 -1.949444,0 0,-1.42365 c -0.668386,0.31046 -1.281058,0.68785 -1.825617,1.12233 l 0,0.30132 -0.354368,0 c -0.606801,0.54209 -1.116413,1.15783 -1.509663,1.82867 l 1.86403,0 0,2.35934 -3.522536,0 c -0.07554,0.63503 0.162334,1.31909 0.283039,1.98482 l 3.239497,0 0,2.01531 -3.157767,0 c -0.131324,0.7009 -0.02811,1.34332 0.07807,1.98482 l 3.079693,0 0,1.87441 -2.85646,0 c -0.129292,0.6874 -0.08342,1.3399 0,1.9848 l 2.85646,0 0,1.5938 -2.888782,0 c -0.145128,0.6616 0.180072,1.3233 0.273887,1.9849 l 2.614895,0 0,1.8024 -2.638692,0 c 0,0 -0.419888,0.1494 -0.433693,0.2251 l 0.097,1.6036 2.975383,0 0,2.3922 0.815543,2.5625 c -3.827028,-0.2788 -7.686817,0.3575 -11.690546,-0.1934 -0.02436,0 -0.04878,-0.01 -0.07261,-0.01 -0.358615,0 -0.641685,0.3498 -0.641685,0.7216 l 0,0.6259 c 0,0.3966 0.319828,0.6815 0.714294,0.716 2.28648,0.2003 4.530861,0.3668 6.746793,0.4032 6.562846,0.1278 14.558967,0.099 22.059278,-0.029 2.345505,-0.049 3.750608,-0.3242 6.133807,-0.3739 0.395841,-0.01 0.714857,-0.3195 0.714857,-0.7161 l 0,-0.6259 c 0,-0.3966 -0.319796,-0.7422 -0.714857,-0.7161 -1.49361,0.099 -2.990999,0.2862 -4.494821,0.2471 -2.375548,-0.062 -4.811776,0 -7.274425,0.069 l 0.855174,-2.6856 0,-2.3923 2.700903,0 -0.07867,-1.295 c 0,-0.173 -0.02467,-0.351 -0.07014,-0.5337 l -2.552091,0 0,-1.8024 2.874136,0 c 0.147875,-0.8516 0.279291,-1.6797 0.04819,-1.9848 l -2.922324,0 0,-1.5939 2.761302,0 c 0.12467,-0.6512 0.364892,-1.2928 0,-1.9848 l -2.761302,0 0,-1.8744 2.793625,0 c 0.122453,-0.66288 0.239191,-1.30488 0.176887,-1.98482 l -2.970512,0 0,-2.01531 2.98697,0 c 0.07851,-0.65449 0.215769,-1.30158 0.06405,-1.98482 l -3.051023,0 0,-2.35934 1.393143,0 c -0.815074,-0.92526 -1.962093,-1.83292 -3.21876,-2.56611 l 0,0.73744 -1.949445,0 0,-1.69142 c -0.617887,-0.24515 -1.233807,-0.43187 -1.825617,-0.54836 l 0,2.23978 -1.949444,0 0,-2.35323 z m 14.322523,2.04703 c -0.06109,0.002 -0.120329,0.0195 -0.170766,0.0549 -1.258666,0.44998 -2.588474,1.16325 -4.138611,1.64446 -0.232726,0.0818 -0.302088,0.33749 -0.249466,0.57885 0.266549,1.22202 0.620355,1.08351 0.691091,1.57432 0.03526,0.2445 0.376416,0.39209 0.578225,0.25008 1.172815,-0.8253 2.324081,-1.49715 4.137986,-1.64385 0.245812,-0.0199 0.327042,-0.34414 0.250091,-0.57885 -0.230728,-0.70349 -0.58191,-0.75678 -0.691684,-1.57432 -0.02467,-0.18363 -0.223639,-0.3126 -0.406866,-0.30559 z m -26.938979,0.0244 c -0.183227,-0.007 -0.382787,0.12196 -0.407459,0.30559 -0.109774,0.81754 -0.437784,0.77994 -0.668511,1.48343 -0.07701,0.23472 0.0128,0.50956 0.249466,0.57886 1.590954,0.46573 2.968014,0.78306 4.195325,1.53039 0.210772,0.12833 0.542404,-0.007 0.577632,-0.25069 0.0708,-0.49081 0.345841,-0.14736 0.61239,-1.36937 0.05265,-0.24135 -0.01718,-0.49702 -0.250059,-0.57885 -1.31382,-0.78898 -2.688786,-1.44261 -4.137988,-1.64446 -0.05031,-0.0355 -0.10971,-0.0526 -0.170797,-0.0549 z m 8.841394,2.11047 1.949444,0 0,2.35934 -1.949444,0 0,-2.35934 z m 3.775062,0 1.949444,0 0,2.35934 -1.949444,0 0,-2.35934 z m 3.775061,0 1.949445,0 0,2.35934 -1.949445,0 0,-2.35934 z m 11.732644,0.44344 c -0.06118,9.4e-4 -0.120704,0.017 -0.172015,0.0512 -1.453854,0.16514 -2.845561,0.78342 -4.178867,1.53894 -0.234694,0.0758 -0.288004,0.32626 -0.264113,0.57214 0.06743,0.69245 0.0097,1.03424 -0.0732,1.52308 -0.04144,0.24352 0.187662,0.23473 0.427602,0.1775 1.397235,-0.33331 2.831258,-0.0984 4.488107,-0.0518 0.246531,0.007 0.415798,-0.22688 0.414767,-0.47394 -0.0044,-0.74045 -0.153621,-2.2011 -0.242751,-3.02114 -0.01999,-0.1842 -0.216175,-0.31834 -0.399527,-0.31597 z m -29.502064,0.14213 c -0.182914,0.01 -0.369545,0.15604 -0.377571,0.34097 -0.03576,0.82412 -0.09091,2.11 -0.04638,2.84913 0.01468,0.24661 0.199685,0.46888 0.445279,0.44588 1.65026,-0.15456 3.035595,-0.24149 4.451505,0 0.243157,0.0414 0.502492,-0.20558 0.445279,-0.44588 -0.114865,-0.48235 -0.194783,-0.63802 -0.172609,-1.33338 0.0084,-0.24693 -0.06149,-0.4934 -0.300715,-0.55384 -1.379558,-0.66698 -2.808272,-1.19324 -4.269746,-1.26324 -0.05331,-0.0308 -0.113584,-0.0426 -0.174451,-0.0396 l 0,0 z m 2.326392,3.75127 c -0.747961,-0.01 -1.476964,0.0398 -2.16843,0.17505 -0.239847,-0.0576 -0.391844,0.20471 -0.445278,0.44589 -0.167269,0.75466 -0.168518,1.40766 0,2.16232 0.0539,0.24111 0.200559,0.47622 0.445278,0.44527 1.653134,-0.20915 3.003897,-0.15981 4.45213,0 0.245156,0.027 0.502492,-0.20495 0.445279,-0.44527 -0.114864,-0.48237 0.201996,-0.92796 0,-2.16232 -0.04001,-0.24381 -0.198811,-0.45575 -0.445279,-0.44589 -0.768603,-0.0986 -1.535739,-0.16589 -2.2837,-0.17505 z m 25.175604,0 c -0.747961,0.01 -1.515097,0.0765 -2.2837,0.17505 -0.246437,-0.01 -0.405367,0.20208 -0.445279,0.44589 -0.201965,1.23436 0.114864,1.78181 0,2.26418 -0.05718,0.2403 0.199435,0.46593 0.445279,0.44588 1.464129,-0.11946 2.8133,-0.29826 4.452098,0 0.242658,0.0441 0.391438,-0.20478 0.445279,-0.44588 0.168518,-0.75466 0.167268,-1.50952 0,-2.26418 -0.05347,-0.24118 -0.205431,-0.50345 -0.445279,-0.44589 -0.691496,-0.13521 -1.420406,-0.18423 -2.168398,-0.17505 z m -17.282699,0.007 1.949444,0 0,2.01531 -1.949444,0 0,-2.01531 z m 3.775062,0 1.949444,0 0,2.01531 -1.949444,0 0,-2.01531 z m 3.775061,0 1.949445,0 0,2.01531 -1.949445,0 0,-2.01531 z m 9.708154,3.33954 c -0.747961,0.01 -1.515097,0.0772 -2.2837,0.17567 -0.246437,-0.01 -0.357772,0.21489 -0.445248,0.44588 -0.43238,1.14207 0.03988,1.59987 0,2.11227 -0.01905,0.2463 0.199373,0.4265 0.445248,0.4459 1.487364,0.1175 2.853774,0.3028 4.45213,0 0.242345,-0.046 0.391438,-0.2048 0.445278,-0.4459 0.168518,-0.7546 0.167269,-1.3576 0,-2.11227 -0.05347,-0.24117 -0.205431,-0.50346 -0.445278,-0.44588 -0.691497,-0.13523 -1.42047,-0.18485 -2.16843,-0.17567 z m -25.081664,0.0573 c -0.747898,-0.01 -1.491642,0.0212 -2.213526,0.11833 -0.239847,-0.0576 -0.391844,0.20471 -0.445278,0.44588 -0.167269,0.75471 -0.168518,1.50951 0,2.26421 0.05381,0.2411 0.199466,0.4253 0.445278,0.4459 1.598418,0.134 2.964173,0.091 4.451506,0 0.246186,-0.015 0.465016,-0.1996 0.44587,-0.4459 -0.03988,-0.5124 0.432381,-1.1221 0,-2.26421 -0.08735,-0.231 -0.199404,-0.45578 -0.44587,-0.44588 -0.738467,-0.0609 -1.490082,-0.10926 -2.23798,-0.11833 z m 7.823386,0.60325 1.949444,0 0,1.87447 -1.949444,0 0,-1.87447 z m 3.775062,0 1.949444,0 0,1.87447 -1.949444,0 0,-1.87447 z m 3.775061,0 1.949445,0 0,1.87447 -1.949445,0 0,-1.87447 z m 11.965652,2.73387 c -0.02936,0 -0.05912,1e-4 -0.08907,0.01 -1.57893,0.3791 -2.941906,0.061 -4.452129,0 -0.246437,-0.01 -0.459958,0.1993 -0.445248,0.4459 0.06793,1.1421 0.124234,1.7512 0,2.2636 -0.05815,0.2401 0.198717,0.4392 0.445248,0.4459 1.320501,0.036 2.767173,0.2023 4.452129,0 0.244875,-0.029 0.4019,-0.2027 0.445278,-0.4459 0.134541,-0.7547 -0.08832,-1.5089 0,-2.2636 0.02498,-0.2147 -0.151122,-0.439 -0.356209,-0.4532 l 0,0 z m -29.642381,0.1348 0,0 c -0.205088,0.014 -0.380694,0.2391 -0.355585,0.4538 0.08832,0.7546 -0.134571,1.3723 0,2.1269 0.04338,0.2432 0.198873,0.4349 0.445278,0.4459 1.684957,0.076 3.131035,-0.2214 4.451506,0 0.243282,0.041 0.504084,-0.2058 0.445871,-0.4459 -0.124233,-0.5124 -0.06796,-0.9849 0,-2.1269 0.01468,-0.2466 -0.199404,-0.4564 -0.445871,-0.4465 -1.510225,0.06 -2.872575,0.379 -4.451506,0 -0.02998,-0.01 -0.06034,-0.01 -0.08969,-0.01 z m 10.126606,0.9906 1.949444,0 0,1.5938 -1.949444,0 0,-1.5938 z m 3.775062,0 1.949444,0 0,1.5938 -1.949444,0 0,-1.5938 z m 3.775061,0 1.949445,0 0,1.5938 -1.949445,0 0,-1.5938 z m -14.264592,2.1574 0,7e-4 c -1.106357,0 -2.160902,0.1736 -3.322444,0.071 -0.245687,-0.022 -0.409333,0.2021 -0.445278,0.4465 -0.111023,0.7547 -0.322731,1.5089 0,2.2636 0.09706,0.2271 0.198717,0.3736 0.445278,0.3666 1.684957,-0.048 3.514197,-0.1985 4.564933,0.023 0.241346,0.051 0.441001,-0.1989 0.445903,-0.4458 0.01062,-0.5125 0.121674,-1.0648 -0.113459,-2.2069 -0.0499,-0.2419 -0.201559,-0.4126 -0.44587,-0.4465 -0.386129,-0.054 -0.760297,-0.072 -1.129062,-0.071 z m 21.689046,0.071 c -0.246218,-0.015 -0.395436,0.2045 -0.445248,0.4465 -0.235131,1.142 -0.01062,1.7511 0,2.2636 0.0053,0.247 0.199217,0.4632 0.445248,0.4458 1.32047,-0.093 2.767173,-0.048 4.45213,0 0.24653,0.01 0.348184,-0.2187 0.445278,-0.4458 0.322732,-0.7547 0.111023,-1.5089 0,-2.2636 -0.03598,-0.2444 -0.200403,-0.4759 -0.445278,-0.4465 -1.548732,0.1859 -2.907584,0.092 -4.45213,0 z m -14.974577,1.3498 1.949444,0 0,1.8025 -1.949444,0 0,-1.8025 z m 3.775062,0 1.949444,0 0,1.8025 -1.949444,0 0,-1.8025 z m 3.775061,0 1.949445,0 0,1.8025 -1.949445,0 0,-1.8025 z m -14.264592,1.8379 c -1.106357,0 -2.160902,0.1742 -3.322444,0.071 -0.245687,-0.022 -0.409333,0.2015 -0.445278,0.4459 -0.111023,0.7547 -0.322731,1.3729 0,2.1276 0.09706,0.2271 0.201621,0.4075 0.445278,0.4458 1.684957,0.2654 3.131035,0.033 4.451506,0 0.246561,-0.01 0.440968,-0.1988 0.445871,-0.4458 0.01062,-0.5125 0.235132,-0.9855 0,-2.1276 -0.0499,-0.2419 -0.201559,-0.4119 -0.445871,-0.4459 -0.386129,-0.054 -0.760297,-0.072 -1.129062,-0.071 z m 21.689046,0.071 c -0.245843,-0.02 -0.395436,0.204 -0.445248,0.4459 -0.235131,1.1421 -0.01062,1.7518 0,2.2642 0.0053,0.247 0.198686,0.4397 0.445248,0.4459 1.32047,0.033 2.767173,0.2654 4.45213,0 0.243626,-0.038 0.348184,-0.2188 0.445278,-0.4459 0.322732,-0.7547 0.111023,-1.5095 0,-2.2642 -0.03598,-0.2444 -0.200247,-0.4741 -0.445278,-0.4459 -0.769978,0.089 -1.452199,0.04 -2.175738,0.034 -0.734532,-0.01 -1.510443,0.028 -2.276392,-0.034 z m -14.974577,1.722 1.949444,0 0,2.3922 0.878347,2.7589 c -1.208917,-0.028 -2.422362,-0.085 -3.640242,-0.1836 -0.0031,-2e-4 -0.0044,-3e-4 -0.0066,-6e-4 l 0.819165,-2.5747 0,-2.3923 z m 3.775062,0 1.949444,0 0,2.3922 0.881408,2.7686 c -1.22981,0.017 -2.466023,0.02 -3.708574,-0.01 l 0.877722,-2.7601 0,-2.3922 z m 3.775061,0 1.949445,0 0,2.3922 0.855173,2.6887 c -1.22272,0.033 -2.445784,0.061 -3.684807,0.079 l 0.880189,-2.7674 0,-2.3922 z m -17.674886,1.5328 0,6e-4 c -0.195001,0.021 -0.32598,0.2351 -0.357428,0.4489 -0.111023,0.7547 -0.322731,1.5095 0,2.2642 0.09706,0.2271 0.2049,0.3906 0.445278,0.4459 1.290803,0.2974 2.829914,0.027 4.451506,0 0.246624,0 0.440968,-0.1989 0.445871,-0.4459 0.01062,-0.5124 0.235132,-1.1221 0,-2.2642 -0.0499,-0.2419 -0.200809,-0.4733 -0.445871,-0.4452 -1.419096,0.1625 -2.852775,0.2873 -4.451506,0 -0.03029,-0.01 -0.05999,-0.01 -0.08785,0 z m 29.638695,0.091 c -0.02779,0 -0.05696,0 -0.08723,0 -1.598731,0.2873 -3.033034,0.1625 -4.45213,0 -0.245063,-0.028 -0.395436,0.2039 -0.445248,0.4458 -0.235131,1.1421 -0.01062,1.7518 0,2.2642 0.0053,0.247 0.20106,0.4807 0.445248,0.4459 1.483991,-0.2116 2.968138,-0.038 4.45213,0 0.246561,0.01 0.348184,-0.2188 0.445278,-0.4459 0.322732,-0.7546 0.111023,-1.5095 0,-2.2642 -0.03142,-0.2138 -0.163083,-0.4285 -0.358053,-0.4495 l 0,-6e-4 z"
       id="path15171"
       inkscape:connector-curvature="0" />
    <g
       id="g4169"
       transform="translate(-1.7955116,0)">
      <g
         style="fill:#42290d;fill-opacity:1"
         transform="matrix(0.25205377,0,0,0.25205376,141.56696,810.26329)"
         id="g5246">
        <path
           style="fill:#42290d;fill-opacity:1;stroke:none;stroke-opacity:1"
           inkscape:connector-curvature="0"
           d="m -361.34368,894.60352 c -1.5875,0 -2.72928,0.83893 -3.38869,1.89253 -0.58973,0.9421 -0.83508,2.03513 -0.88294,2.9924 -1.79963,0.88864 -3.79332,1.78454 -5.39841,2.70058 -0.84204,0.4806 -1.57611,0.96388 -2.12868,1.48324 -0.55257,0.51934 -0.96029,1.10419 -0.96029,1.79411 0,0.29359 0.1436,0.53281 0.3051,0.70834 0.16225,0.17616 0.35598,0.31224 0.57695,0.43936 0.44187,0.2546 0.99893,0.46672 1.61176,0.65031 0.91035,0.27285 1.92989,0.47562 2.81637,0.56227 -0.88172,1.51742 -2.05515,2.9109 -3.08373,4.24619 -1.18873,1.54333 -2.22649,3.02327 -2.22649,4.66753 0,0.23488 -0.003,0.41821 0.0179,0.60247 0.0215,0.1844 0.0737,0.41405 0.25928,0.59623 0.18549,0.18226 0.41257,0.2313 0.59754,0.25136 0.18478,0.0215 0.37132,0.0215 0.61036,0.0215 l 6.55832,0 c 0.47611,0 0.82468,0.0287 1.18328,-0.20123 0.35869,-0.23022 0.48947,-0.54463 0.74496,-1.01448 l 0.003,0 0.003,-0.0215 c 0,0 0.57168,-1.16076 1.25378,-2.31284 0.3409,-0.57568 0.71126,-1.14934 1.03331,-1.55574 0.16119,-0.20301 0.31191,-0.36436 0.42042,-0.45533 0.0322,-0.0285 0.0484,-0.0322 0.0695,-0.0456 0.0215,0.0215 0.0361,0.0215 0.0695,0.0456 0.1084,0.0913 0.25928,0.25206 0.42038,0.45533 0.32195,0.4064 0.69227,0.98006 1.03334,1.55574 0.68203,1.15208 1.25374,2.31284 1.25374,2.31284 l 0.003,0.0215 0.003,0 c 0.25569,0.46985 0.38513,0.78236 0.74147,1.01324 0.3563,0.23059 0.70403,0.20302 1.17339,0.20302 l 6.58723,0 c 0.2353,0 0.41862,0 0.60231,-0.0215 0.18371,-0.0215 0.41151,-0.0705 0.59507,-0.25458 0.18334,-0.1844 0.2342,-0.41076 0.25461,-0.59416 0.0215,-0.18225 0.0179,-0.36663 0.0179,-0.60161 0,-1.64405 -1.03778,-3.12399 -2.22649,-4.66735 -1.02852,-1.33527 -2.20195,-2.72877 -3.08372,-4.24619 0.88648,-0.0871 1.90603,-0.28967 2.81637,-0.56225 0.61282,-0.18441 1.16988,-0.39584 1.61176,-0.65032 0.22094,-0.12634 0.415,-0.26354 0.5768,-0.43915 0.1619,-0.17617 0.30546,-0.41493 0.30546,-0.70858 0,-0.6899 -0.4077,-1.27475 -0.96026,-1.79408 -0.55259,-0.51937 -1.28668,-1.00263 -2.12866,-1.48326 -1.60517,-0.916 -3.59878,-1.81192 -5.39848,-2.70056 -0.0481,-0.95723 -0.29329,-2.05024 -0.88293,-2.99238 -0.65941,-1.05362 -1.80116,-1.89256 -3.38869,-1.89256 z"
           id="path5238" />
        <path
           id="path5240"
           d="m -333.11578,894.60352 c -1.5875,0 -2.72925,0.8389 -3.38866,1.89253 -0.58974,0.94212 -0.8351,2.03509 -0.88296,2.99237 -1.79966,0.88867 -3.7933,1.78457 -5.39845,2.70059 -0.84197,0.48061 -1.5761,0.96386 -2.12864,1.48323 -0.55258,0.51937 -0.96027,1.10422 -0.96027,1.79409 0,0.29363 0.14359,0.53283 0.3051,0.70839 0.16225,0.17616 0.35596,0.31224 0.57695,0.43933 0.44183,0.25459 0.99893,0.46671 1.61174,0.65034 0.91036,0.27285 1.9299,0.47562 2.81638,0.56223 -0.88173,1.51746 -2.05516,2.91095 -3.08376,4.24624 -1.1887,1.54332 -2.22645,3.02323 -2.22645,4.66749 0,0.23487 -0.003,0.41824 0.0179,0.6025 0.0215,0.1844 0.0737,0.41406 0.25928,0.59623 0.1855,0.18226 0.4126,0.2313 0.59757,0.25136 0.18479,0.0215 0.37132,0.0215 0.61031,0.0215 l 6.55838,0 c 0.47606,0 0.82468,0.0287 1.18328,-0.2012 0.35865,-0.23025 0.48944,-0.54464 0.74496,-1.01448 l 0.003,0 0.003,-0.0216 c 0,0 0.57169,-1.16075 1.25382,-2.31285 0.34091,-0.5757 0.71123,-1.14934 1.03331,-1.55576 0.16119,-0.20302 0.3119,-0.36434 0.42039,-0.45532 0.0322,-0.0287 0.0484,-0.0322 0.0695,-0.0455 0.0215,0.0215 0.0366,0.0215 0.0695,0.0455 0.1084,0.091 0.25927,0.25209 0.42038,0.45532 0.32193,0.40642 0.69226,0.98006 1.03328,1.55576 0.68206,1.1521 1.2538,2.31285 1.2538,2.31285 l 0.003,0.0216 0.003,0 c 0.25569,0.46984 0.38512,0.78236 0.74142,1.01321 0.35632,0.23059 0.70404,0.20302 1.17341,0.20302 l 6.58726,0 c 0.23527,0 0.41862,0 0.6023,-0.0215 0.1837,-0.0215 0.41146,-0.0705 0.59502,-0.2546 0.18337,-0.18438 0.2342,-0.41076 0.25461,-0.59416 0.0215,-0.18223 0.018,-0.36662 0.018,-0.60159 0,-1.64408 -1.03775,-3.12401 -2.22645,-4.66737 -1.02856,-1.33525 -2.20195,-2.72877 -3.08377,-4.24617 0.8865,-0.0871 1.90602,-0.28969 2.81642,-0.56227 0.61277,-0.1844 1.16987,-0.39583 1.6117,-0.65031 0.22097,-0.12635 0.41502,-0.26353 0.57683,-0.43916 0.16189,-0.17617 0.30545,-0.41491 0.30545,-0.70856 0,-0.68992 -0.40771,-1.27477 -0.96027,-1.79413 -0.55259,-0.51934 -1.28666,-1.00263 -2.12865,-1.48323 -1.60514,-0.916 -3.59877,-1.81192 -5.39844,-2.70059 -0.0479,-0.95725 -0.29329,-2.05021 -0.88294,-2.99235 -0.65943,-1.05363 -1.80114,-1.89256 -3.38871,-1.89256 z"
           inkscape:connector-curvature="0"
           style="fill:#42290d;fill-opacity:1;stroke:none;stroke-opacity:1" />
        <text
           xml:space="preserve"
           style="font-style:normal;font-weight:normal;font-size:31.57863808px;line-height:125%;font-family:sans-serif;letter-spacing:0px;word-spacing:0px;fill:#42290d;fill-opacity:1;stroke:none;stroke-width:1px;stroke-linecap:butt;stroke-linejoin:miter;stroke-opacity:1"
           x="-319.87796"
           y="915.44635"
           id="text5242"
           sodipodi:linespacing="125%"
           transform="scale(1.0000655,0.99993451)"><tspan
             sodipodi:role="line"
             id="tspan5244"
             x="-319.87796"
             y="915.44635"
             style="font-style:normal;font-variant:normal;font-weight:normal;font-stretch:normal;font-family:'Archivo Black';-inkscape-font-specification:'Archivo Black, ';fill:#42290d;fill-opacity:1">+</tspan></text>
      </g>
      <g
         style="font-style:normal;font-weight:normal;font-size:40px;line-height:125%;font-family:sans-serif;letter-spacing:0px;word-spacing:0px;fill:#42290d;fill-opacity:1;stroke:none;stroke-width:1px;stroke-linecap:butt;stroke-linejoin:miter;stroke-opacity:1"
         id="g14045"
         transform="matrix(0.72404831,0,0,0.72404831,-134.98555,1049.8434)">
        <g
           id="g14047"
           transform="translate(301.32214,-340.94806)">
          <path
             sodipodi:nodetypes="ssccscccssccsccs"
             d="m -27.005527,341.9378 -31.214185,0 c -0.217564,0 -0.415933,-0.064 -0.595106,-0.19197 -0.166375,-0.12798 -0.300755,-0.28155 -0.403139,-0.46072 -0.102384,-0.17917 -0.153575,-0.37115 -0.153575,-0.57591 0,-0.19198 0.05119,-0.39036 0.153575,-0.59511 l 15.587902,-27.68195 c 0.102384,-0.17917 0.243158,-0.31356 0.422325,-0.40315 0.179172,-0.0896 0.371143,-0.13438 0.57591,-0.13438 0.204767,0 0.396737,0.0448 0.57591,0.13438 0.179172,0.0895 0.319951,0.22398 0.422334,0.40315 l 15.626284,27.68195 c 0.102384,0.20476 0.153575,0.40314 0.153575,0.59511 0,0.20476 -0.05119,0.39674 -0.153575,0.57591 -0.102384,0.17917 -0.243159,0.33274 -0.422325,0.46072 -0.166376,0.12797 -0.358346,0.19197 -0.57591,0.19197 z"
             style="fill:#d8c586;fill-opacity:1"
             id="path14049"
             inkscape:connector-curvature="0" />
          <path
             inkscape:connector-curvature="0"
             id="path14051"
             style="fill:#42290d;fill-opacity:1"
             d="m -26.733715,342.19941 -31.75781,0 q -0.33203,0 -0.60547,-0.19531 -0.25391,-0.19532 -0.41016,-0.46875 -0.15625,-0.27344 -0.15625,-0.58594 0,-0.29297 0.15625,-0.60547 l 15.85938,-28.16406 q 0.15625,-0.27344 0.42968,-0.41016 0.27344,-0.13672 0.58594,-0.13672 0.3125,0 0.58594,0.13672 0.27344,0.13672 0.42969,0.41016 l 15.89843,28.16406 q 0.15625,0.3125 0.15625,0.60547 0,0.3125 -0.15625,0.58594 -0.15625,0.27343 -0.42968,0.46875 -0.25391,0.19531 -0.58594,0.19531 z m -29.72656,-2.5 27.65625,0 -13.82813,-24.49219 -13.82812,24.49219 z m 15.64453,-7.10938 -3.63281,0 0,-10.83984 3.63281,0 0,10.83984 z m 0.54687,3.55469 q 0,0.50781 -0.19531,0.9375 -0.17578,0.42969 -0.50781,0.76172 -0.3125,0.3125 -0.74219,0.50781 -0.42969,0.17578 -0.91797,0.17578 -0.48828,0 -0.91797,-0.17578 -0.42968,-0.19531 -0.74218,-0.50781 -0.3125,-0.33203 -0.48829,-0.76172 -0.17578,-0.42969 -0.17578,-0.9375 0,-0.48828 0.17578,-0.9375 0.17579,-0.44922 0.48829,-0.76172 0.3125,-0.33203 0.74218,-0.52734 0.42969,-0.19531 0.91797,-0.19531 0.48828,0 0.91797,0.19531 0.42969,0.19531 0.74219,0.52734 0.33203,0.3125 0.50781,0.76172 0.19531,0.44922 0.19531,0.9375 z" />
        </g>
      </g>
      <g
         transform="matrix(0.72404831,0,0,0.72404831,-162.04507,1049.8434)"
         id="g14053"
         style="font-style:normal;font-weight:normal;font-size:40px;line-height:125%;font-family:sans-serif;letter-spacing:0px;word-spacing:0px;fill:#42290d;fill-opacity:1;stroke:none;stroke-width:1px;stroke-linecap:butt;stroke-linejoin:miter;stroke-opacity:1">
        <g
           transform="translate(301.32214,-340.94806)"
           id="g14055">
          <path
             inkscape:connector-curvature="0"
             id="path14057"
             style="fill:#d8c586;fill-opacity:1"
             d="m -27.005527,341.9378 -31.214185,0 c -0.217564,0 -0.415933,-0.064 -0.595106,-0.19197 -0.166375,-0.12798 -0.300755,-0.28155 -0.403139,-0.46072 -0.102384,-0.17917 -0.153575,-0.37115 -0.153575,-0.57591 0,-0.19198 0.05119,-0.39036 0.153575,-0.59511 l 15.587902,-27.68195 c 0.102384,-0.17917 0.243158,-0.31356 0.422325,-0.40315 0.179172,-0.0896 0.371143,-0.13438 0.57591,-0.13438 0.204767,0 0.396737,0.0448 0.57591,0.13438 0.179172,0.0895 0.319951,0.22398 0.422334,0.40315 l 15.626284,27.68195 c 0.102384,0.20476 0.153575,0.40314 0.153575,0.59511 0,0.20476 -0.05119,0.39674 -0.153575,0.57591 -0.102384,0.17917 -0.243159,0.33274 -0.422325,0.46072 -0.166376,0.12797 -0.358346,0.19197 -0.57591,0.19197 z"
             sodipodi:nodetypes="ssccscccssccsccs" />
          <path
             d="m -26.733715,342.19941 -31.75781,0 q -0.33203,0 -0.60547,-0.19531 -0.25391,-0.19532 -0.41016,-0.46875 -0.15625,-0.27344 -0.15625,-0.58594 0,-0.29297 0.15625,-0.60547 l 15.85938,-28.16406 q 0.15625,-0.27344 0.42968,-0.41016 0.27344,-0.13672 0.58594,-0.13672 0.3125,0 0.58594,0.13672 0.27344,0.13672 0.42969,0.41016 l 15.89843,28.16406 q 0.15625,0.3125 0.15625,0.60547 0,0.3125 -0.15625,0.58594 -0.15625,0.27343 -0.42968,0.46875 -0.25391,0.19531 -0.58594,0.19531 z m -29.72656,-2.5 27.65625,0 -13.82813,-24.49219 -13.82812,24.49219 z m 15.64453,-7.10938 -3.63281,0 0,-10.83984 3.63281,0 0,10.83984 z m 0.54687,3.55469 q 0,0.50781 -0.19531,0.9375 -0.17578,0.42969 -0.50781,0.76172 -0.3125,0.3125 -0.74219,0.50781 -0.42969,0.17578 -0.91797,0.17578 -0.48828,0 -0.91797,-0.17578 -0.42968,-0.19531 -0.74218,-0.50781 -0.3125,-0.33203 -0.48829,-0.76172 -0.17578,-0.42969 -0.17578,-0.9375 0,-0.48828 0.17578,-0.9375 0.17579,-0.44922 0.48829,-0.76172 0.3125,-0.33203 0.74218,-0.52734 0.42969,-0.19531 0.91797,-0.19531 0.48828,0 0.91797,0.19531 0.42969,0.19531 0.74219,0.52734 0.33203,0.3125 0.50781,0.76172 0.19531,0.44922 0.19531,0.9375 z"
             style="fill:#42290d;fill-opacity:1"
             id="path14059"
             inkscape:connector-curvature="0" />
        </g>
      </g>
    </g>
  </g>
</svg>
