<?xml version="1.0" encoding="UTF-8" standalone="no"?>
<!-- Created with Inkscape (http://www.inkscape.org/) -->

<svg
   xmlns:dc="http://purl.org/dc/elements/1.1/"
   xmlns:cc="http://creativecommons.org/ns#"
   xmlns:rdf="http://www.w3.org/1999/02/22-rdf-syntax-ns#"
   xmlns:svg="http://www.w3.org/2000/svg"
   xmlns="http://www.w3.org/2000/svg"
   xmlns:sodipodi="http://sodipodi.sourceforge.net/DTD/sodipodi-0.dtd"
   xmlns:inkscape="http://www.inkscape.org/namespaces/inkscape"
   width="450"
   height="325"
   viewBox="0 0 450.00001 325"
   id="svg5199"
   version="1.1"
   inkscape:version="0.91 r13725"
   sodipodi:docname="figure_alerts_alarm.svg">
  <defs
     id="defs5201" />
  <sodipodi:namedview
     id="base"
     pagecolor="#ffffff"
     bordercolor="#666666"
     borderopacity="1.0"
     inkscape:pageopacity="0.0"
     inkscape:pageshadow="2"
     inkscape:zoom="1.979899"
     inkscape:cx="206.67695"
     inkscape:cy="155.71195"
     inkscape:document-units="px"
     inkscape:current-layer="layer1"
     showgrid="false"
     units="px"
     borderlayer="true"
     inkscape:window-width="1920"
     inkscape:window-height="1017"
     inkscape:window-x="-8"
     inkscape:window-y="-8"
     inkscape:window-maximized="1" />
  <metadata
     id="metadata5204">
    <rdf:RDF>
      <cc:Work
         rdf:about="">
        <dc:format>image/svg+xml</dc:format>
        <dc:type
           rdf:resource="http://purl.org/dc/dcmitype/StillImage" />
        <dc:title></dc:title>
      </cc:Work>
    </rdf:RDF>
  </metadata>
  <g
     inkscape:label="Layer 1"
     inkscape:groupmode="layer"
     id="layer1"
     transform="translate(0,-727.36216)">
    <path
       inkscape:connector-curvature="0"
       style="fill:#000000;fill-opacity:1"
       d="M 225.41149,734.76942 C 171.81162,734.67392 119.63923,762.49911 90.916032,812.332 61.821478,862.8094 64.29793,922.86014 92.176587,969.57111 74.984738,925.97394 78.937887,870.73638 107.17898,821.73929 c 28.25866,-49.02716 74.08936,-80.08923 120.40776,-86.94905 -0.72497,0 -1.45053,0 -2.17525,0 z m -0.10237,34.82182 c -41.56508,-0.0866 -82.01258,21.5061 -104.28718,60.14925 -22.558725,39.14019 -20.65667,85.68937 0.9563,121.91168 -13.32073,-33.80508 -10.24572,-76.63492 11.6482,-114.62042 21.90703,-38.0086 57.42296,-62.09128 93.33046,-67.42136 -0.54849,-0.0148 -1.09942,0 -1.64714,0 z m -0.85399,28.32342 c -31.47615,0.24242 -62.02737,16.68812 -78.87593,45.91708 -25.29614,43.88906 -10.23259,100.17642 33.58399,125.51576 43.81588,25.34035 100.00999,10.26999 125.30682,-33.61807 25.29871,-43.88906 10.23275,-100.1972 -33.5825,-125.53564 -13.69221,-7.91714 -28.59056,-11.87959 -43.38141,-12.25661 -1.01755,0 -2.03495,0 -3.05097,0 z m -0.28398,12.11547 -0.40666,19.18347 c -9.94778,0.10389 -19.74591,2.66063 -28.46025,7.45156 l -9.73837,-16.14635 c 11.76145,-6.72119 25.06851,-10.33956 38.60459,-10.48788 z m 133.64133,0.0866 c 17.21921,43.60657 13.27254,98.8748 -14.98167,147.89465 -28.22476,48.96792 -73.98265,80.01792 -120.24514,86.92712 54.29599,0.7976 107.40909,-27.0895 136.48816,-77.54118 29.10172,-50.48968 26.63888,-110.56169 -1.26204,-157.27979 z m -111.19771,2.932 c 6.21899,1.76627 12.33394,4.30831 18.19525,7.69816 6.09917,3.52642 11.54846,7.74196 16.32286,12.48093 l -14.18932,13.62277 c -3.63766,-3.63327 -7.80175,-6.85443 -12.46128,-9.54919 -4.02226,-2.32621 -8.20324,-4.14431 -12.46218,-5.45731 l 4.59536,-18.79536 z m 81.35558,14.96766 c 13.35719,33.81694 10.30429,76.68587 -11.60798,114.70156 -21.87705,37.95432 -57.33054,62.02625 -93.18719,67.40035 42.09008,0.6071 83.24925,-21.02135 105.79115,-60.12987 22.57179,-39.16147 20.64884,-85.74232 -0.99529,-121.97352 z m -160.25224,6.41363 12.96878,13.54062 c -3.20899,3.3859 -6.08419,7.20172 -8.51799,11.42272 -2.63258,4.5673 -4.57952,9.33447 -5.91582,14.19316 l -18.11249,-4.45944 c 1.76954,-6.56947 4.40667,-13.02365 7.96894,-19.20228 3.30926,-5.74375 7.22092,-10.92452 11.60734,-15.49578 z m 127.01442,16.83994 c 6.48388,11.78188 9.92048,25.05784 9.92048,38.52623 l -20.0438,-0.42546 c -0.0445,-9.68325 -2.40372,-19.22552 -6.87153,-27.79465 l 16.99485,-10.30314 z m -149.31559,40.19543 18.72203,0.40568 c 0.38341,9.78567 3.14071,19.37493 8.02993,27.8753 l -16.16148,9.79556 c -6.65485,-11.59587 -10.30429,-24.72092 -10.59048,-38.07802 z m 136.56875,15.78125 19.47397,4.78399 c -1.75643,6.0213 -4.24801,11.93525 -7.52136,17.6137 -3.51938,6.1059 -7.71514,11.57311 -12.44134,16.35216 l -13.8443,-14.45835 c 3.35988,-3.48138 6.35757,-7.42631 8.88407,-11.81007 2.32506,-4.033 4.1375,-8.21046 5.44827,-12.48192 z m -98.47352,26.71566 c 3.20507,2.95203 6.78491,5.58792 10.71406,7.85822 4.55821,2.63738 9.31884,4.61033 14.16838,5.94659 l -4.61475,18.83567 c -6.3387,-1.77061 -12.57066,-4.34615 -18.53986,-7.79835 -5.73511,-3.31663 -10.90538,-7.23337 -15.46958,-11.62752 l 13.74175,-13.21461 z m 69.89008,8.48998 10.28741,17.04377 c -11.57078,6.4349 -24.59358,9.88017 -37.83183,10.01868 l 0.40666,-19.6297 c 9.49115,-0.31168 18.80915,-2.85209 27.13854,-7.43177 z"
       id="path3559" />
  </g>
</svg>
