<?xml version="1.0" encoding="UTF-8" standalone="no"?>
<!-- Created with Inkscape (http://www.inkscape.org/) -->

<svg
   xmlns:dc="http://purl.org/dc/elements/1.1/"
   xmlns:cc="http://creativecommons.org/ns#"
   xmlns:rdf="http://www.w3.org/1999/02/22-rdf-syntax-ns#"
   xmlns:svg="http://www.w3.org/2000/svg"
   xmlns="http://www.w3.org/2000/svg"
   xmlns:sodipodi="http://sodipodi.sourceforge.net/DTD/sodipodi-0.dtd"
   xmlns:inkscape="http://www.inkscape.org/namespaces/inkscape"
   width="150"
   height="300"
   viewBox="0 0 150 300"
   id="svg24096"
   version="1.1"
   inkscape:version="0.92.0 r15299"
   sodipodi:docname="figure_security.svg">
  <defs
     id="defs24098">
    <filter
       inkscape:collect="always"
       style="color-interpolation-filters:sRGB"
       id="filter27124"
       x="-0.06"
       width="1.12"
       y="-0.06"
       height="1.12">
      <feGaussianBlur
         inkscape:collect="always"
         stdDeviation="1.2946429"
         id="feGaussianBlur27126" />
    </filter>
    <filter
       inkscape:collect="always"
       style="color-interpolation-filters:sRGB"
       id="filter27146"
       x="-0.033585537"
       width="1.0671711"
       y="-0.038781236"
       height="1.0775625">
      <feGaussianBlur
         inkscape:collect="always"
         stdDeviation="0.31242113"
         id="feGaussianBlur27148" />
    </filter>
    <filter
       inkscape:collect="always"
       style="color-interpolation-filters:sRGB"
       id="filter28409"
       x="-0.036"
       width="1.072"
       y="-0.036"
       height="1.072">
      <feGaussianBlur
         inkscape:collect="always"
         stdDeviation="3.1708472"
         id="feGaussianBlur28411" />
    </filter>
    <filter
       inkscape:collect="always"
       style="color-interpolation-filters:sRGB"
       id="filter28441"
       x="-0.051266087"
       width="1.1025322"
       y="-0.051266559"
       height="1.1025331">
      <feGaussianBlur
         inkscape:collect="always"
         stdDeviation="4.5154876"
         id="feGaussianBlur28443" />
    </filter>
  </defs>
  <sodipodi:namedview
     id="base"
     pagecolor="#ffffff"
     bordercolor="#666666"
     borderopacity="1.0"
     inkscape:pageopacity="0.0"
     inkscape:pageshadow="2"
     inkscape:zoom="2.8"
     inkscape:cx="105.43846"
     inkscape:cy="118.01407"
     inkscape:document-units="px"
     inkscape:current-layer="layer1"
     showgrid="false"
     units="px"
     inkscape:window-width="1920"
     inkscape:window-height="1017"
     inkscape:window-x="-8"
     inkscape:window-y="-8"
     inkscape:window-maximized="1" />
  <metadata
     id="metadata24101">
    <rdf:RDF>
      <cc:Work
         rdf:about="">
        <dc:format>image/svg+xml</dc:format>
        <dc:type
           rdf:resource="http://purl.org/dc/dcmitype/StillImage" />
        <dc:title />
      </cc:Work>
    </rdf:RDF>
  </metadata>
  <g
     inkscape:label="Layer 1"
     inkscape:groupmode="layer"
     id="layer1"
     transform="translate(0,-752.36216)">
    <path
       inkscape:connector-curvature="0"
       id="path28413"
       d="m -184.66345,1109.0541 a 105.69491,105.69491 0 0 0 -105.69532,105.6953 105.69491,105.69491 0 0 0 105.69532,105.6934 105.69491,105.69491 0 0 0 105.695308,-105.6934 105.69491,105.69491 0 0 0 -105.695308,-105.6953 z m 0,17.4804 a 88.214287,88.214287 0 0 1 88.214838,88.2149 88.214287,88.214287 0 0 1 -88.214838,88.2129 88.214287,88.214287 0 0 1 -88.21485,-88.2129 88.214287,88.214287 0 0 1 88.21485,-88.2149 z"
       style="opacity:1;fill:#000000;fill-opacity:1;stroke:none;stroke-width:1;stroke-linecap:round;stroke-linejoin:round;stroke-miterlimit:4;stroke-dasharray:none;stroke-dashoffset:0;stroke-opacity:1;filter:url(#filter28441)"
       transform="matrix(0,0.27273076,-0.27273076,0,426.61801,926.60413)" />
    <circle
       style="opacity:1;fill:#000000;fill-opacity:1;stroke:none;stroke-width:1;stroke-linecap:round;stroke-linejoin:round;stroke-miterlimit:4;stroke-dasharray:none;stroke-dashoffset:0;stroke-opacity:1;filter:url(#filter28409)"
       id="circle28391"
       cx="-406.82556"
       cy="1215.4838"
       r="105.69491"
       transform="matrix(0.05317116,0.26749747,-0.26749747,0.05317116,466.53126,978.06068)" />
    <path
       d="m 412.98949,1103.3571 5.58135,9.6672 -5.58135,9.6672 -11.1627,0 -5.58135,-9.6672 5.58135,-9.6672 z"
       inkscape:randomized="0"
       inkscape:rounded="0"
       inkscape:flatsided="true"
       sodipodi:arg2="-0.52359878"
       sodipodi:arg1="-1.0471976"
       sodipodi:r2="9.6671848"
       sodipodi:r1="11.162703"
       sodipodi:cy="1113.0243"
       sodipodi:cx="407.40814"
       sodipodi:sides="6"
       id="path27128"
       style="font-style:normal;font-weight:normal;font-size:medium;line-height:125%;font-family:sans-serif;letter-spacing:0px;word-spacing:0px;fill:#000000;fill-opacity:1;stroke:none;stroke-width:0.06688002;stroke-linecap:butt;stroke-linejoin:round;stroke-miterlimit:4;stroke-dasharray:none;stroke-dashoffset:0;stroke-opacity:1;filter:url(#filter27146)"
       sodipodi:type="star"
       transform="matrix(3.7554431,-0.43931359,0.44038831,3.7646302,-1966.0674,-3214.6833)" />
    <circle
       r="25.892859"
       cy="987.18353"
       cx="67.678574"
       id="circle27090"
       style="opacity:1;fill:#000000;fill-opacity:1;stroke:none;stroke-width:1;stroke-linecap:round;stroke-linejoin:round;stroke-miterlimit:4;stroke-dasharray:none;stroke-dashoffset:0;stroke-opacity:1;filter:url(#filter27124)"
       transform="matrix(0.96994245,0.24333444,-0.24333444,0.96994245,242.25,13.203794)" />
    <path
       transform="matrix(3.7554431,-0.43931359,0.44038831,3.7646302,-1967.8656,-3216.1049)"
       sodipodi:type="star"
       style="font-style:normal;font-weight:normal;font-size:medium;line-height:125%;font-family:sans-serif;letter-spacing:0px;word-spacing:0px;fill:#d8c586;fill-opacity:1;stroke:none;stroke-width:0.06688002;stroke-linecap:butt;stroke-linejoin:round;stroke-miterlimit:4;stroke-dasharray:none;stroke-dashoffset:0;stroke-opacity:1"
       id="path15325"
       sodipodi:sides="6"
       sodipodi:cx="407.40814"
       sodipodi:cy="1113.0243"
       sodipodi:r1="11.162703"
       sodipodi:r2="9.6671848"
       sodipodi:arg1="-1.0471976"
       sodipodi:arg2="-0.52359878"
       inkscape:flatsided="true"
       inkscape:rounded="0"
       inkscape:randomized="0"
       d="m 412.98949,1103.3571 5.58135,9.6672 -5.58135,9.6672 -11.1627,0 -5.58135,-9.6672 5.58135,-9.6672 z" />
    <path
       style="fill:#42290d;fill-opacity:1;stroke:none;stroke-width:10;stroke-linecap:round;stroke-linejoin:round;stroke-miterlimit:4;stroke-dasharray:none;stroke-dashoffset:0;stroke-opacity:1"
       d="m 47.115123,766.74105 c -0.716434,0.10355 -1.785942,0.54076 -1.617396,0.97554 0.421557,0.35686 0.716133,0.90189 1.042881,1.38436 0.728648,1.0759 1.336785,2.31211 1.881922,3.79741 0.365813,0.19913 0.483387,0.14941 0.966222,-0.0206 0.322348,-0.11332 0.602811,-0.19046 0.677155,-0.46132 0.09926,-0.43925 0.15062,-0.86436 0.217775,-1.3034 0.07446,-0.48702 0.16886,-0.98933 0.375206,-1.50636 0.425566,-1.06626 0.882687,-1.96316 1.088869,-2.78185 0.07193,-0.33597 -0.798496,-0.37044 -1.143461,-0.33174 -0.738616,0.0824 -1.674767,0.21827 -3.069011,0.23363 -0.108019,-0.0157 -0.254841,-0.01 -0.420176,0.0142 z m -2.506093,0.74489 c -0.08486,-1.4e-4 -0.166069,0.0275 -0.236215,0.0756 -0.934269,0.65997 -1.961126,0.36263 -2.621063,1.1506 -0.220169,0.26296 -0.241479,0.65896 0.02321,0.87718 1.610382,1.32748 1.755678,1.80281 3.33075,4.06477 1.025522,0.55988 2.019934,-0.0771 2.297538,-0.23594 0.294877,-0.17413 0.489236,-0.4868 0.352903,-0.80226 -0.43743,-2.08979 -1.422612,-3.02508 -2.584278,-4.69884 -0.03392,-0.25556 -0.309475,-0.43855 -0.562857,-0.43079 z m 7.791036,-0.67143 c -0.248316,0.0509 -0.473639,0.29289 -0.448148,0.54947 -0.743993,1.89668 -1.486793,3.03408 -1.430026,5.16842 -0.05981,0.3384 0.201362,0.5978 0.528556,0.69914 1.656262,0.5132 1.063214,0.09 1.773469,0.12132 0.341949,0.0152 0.567512,-0.12317 0.693439,-0.44251 1.010479,-2.56442 1.042136,-3.06049 2.302669,-4.72383 0.207186,-0.27339 0.09509,-0.65417 -0.179907,-0.8592 -0.823996,-0.61448 -1.931401,-0.067 -2.992729,-0.49352 -0.07928,-0.0321 -0.164601,-0.0363 -0.247278,-0.0192 z m -11.768812,2.51471 c -0.08253,0.0197 -0.159557,0.0549 -0.219952,0.11564 -0.80724,0.81155 -2.040413,0.74628 -2.55554,1.6367 -0.171857,0.29707 -0.130277,0.70035 0.173054,0.86035 1.870615,0.98744 2.332184,1.25518 3.976424,3.42988 1.105879,0.37456 2.14703,-0.47528 2.393195,-0.67982 0.260631,-0.22258 0.398636,-0.56428 0.210368,-0.85156 -0.788374,-1.98357 -1.918766,-2.73515 -3.349341,-4.18372 -0.07768,-0.24581 -0.379778,-0.37889 -0.628002,-0.32752 z m 16.033415,-1.44635 c -0.253357,0.0101 -0.513657,0.21416 -0.528742,0.47153 -1.032106,1.75506 -1.944213,2.7605 -2.222667,4.87687 -0.112087,0.32466 0.105167,0.62213 0.412443,0.77397 0.288779,0.13803 1.506589,0.70689 2.486989,0.0727 1.4,-2.37224 1.50908,-2.85699 3.014798,-4.29994 0.247511,-0.2372 0.196468,-0.63037 -0.0431,-0.87629 -0.71753,-0.73707 -1.897058,-0.3718 -2.878515,-0.96076 -0.07332,-0.0443 -0.1569,-0.0618 -0.241368,-0.0582 z m -19.627493,3.91656 c -0.127851,0.019 -0.246339,0.0811 -0.319138,0.18711 -0.648136,0.94465 -1.871926,1.10394 -2.218639,2.07326 -0.115717,0.32345 -9.07e-4,0.70747 0.324143,0.81516 2.00141,0.66282 2.782726,0.79262 4.679167,2.60409 1.154804,0.16818 1.873167,-0.80718 2.078534,-1.053 0.216382,-0.26612 0.290549,-0.62718 0.05384,-0.87566 -1.131469,-1.80862 -2.377902,-2.343 -4.044859,-3.50891 -0.100434,-0.1898 -0.339967,-0.2744 -0.55302,-0.24199 z m 23.662895,-2.1913 c -0.215037,0.0151 -0.428747,0.15488 -0.48264,0.36281 -1.352838,1.51917 -2.442276,2.3268 -3.125766,4.34773 -0.172981,0.29645 -0.01743,0.63095 0.254532,0.83994 0.25658,0.1918 1.340935,0.9878 2.425725,0.55766 1.833403,-2.05241 1.99296,-2.86157 3.749944,-3.98206 0.288792,-0.18414 0.314755,-0.58037 0.12759,-0.86833 -0.561058,-0.86315 -1.747347,-0.37979 -2.596003,-1.14933 -0.09551,-0.0863 -0.2245,-0.11903 -0.353361,-0.10845 z m -26.607537,5.34505 c -0.215771,0.01 -0.433309,0.1398 -0.492117,0.34649 -0.314177,1.10326 -1.191681,1.53671 -1.463683,2.52987 -0.09072,0.33135 0.05285,0.70748 0.38555,0.78801 0.607795,0.14698 3.45474,0.91422 4.027788,1.14788 0.600371,0.2448 0.405115,0.31103 1.405719,0.59617 0.324304,0.0925 0.597718,0.0469 0.750669,-0.12919 0.52024,-0.59832 0.884191,-1.15273 1.155119,-1.68459 0.120405,-0.32159 -0.182878,-0.5494 -0.486045,-0.70918 -1.646129,-1.35223 -2.982214,-2.1949 -4.931654,-2.76635 -0.09327,-0.0888 -0.221916,-0.12537 -0.351357,-0.1192 z m 30.915129,-3.58213 c -0.127149,0.0249 -0.244111,0.0892 -0.314406,0.19688 -1.764954,1.00602 -3.203673,2.55779 -4.493318,4.25357 -0.53719,0.50168 0.987603,2.40852 2.097234,2.18253 1.483599,-1.33513 3.17464,-2.26096 5.225902,-3.30348 0.305239,-0.15526 0.357733,-0.55419 0.192936,-0.85568 -0.493895,-0.90356 -1.589237,-1.2498 -2.149604,-2.25075 -0.104807,-0.18735 -0.346467,-0.2629 -0.558757,-0.22318 z m -16.551073,2.72538 c -0.86498,0.15384 -1.692777,0.37316 -2.474097,0.65448 l 0.338292,2.89187 -2.686042,0.31422 -0.230185,-1.96773 c -0.870899,0.53685 -1.654235,1.15745 -2.334412,1.84577 l 0.0487,0.41627 -0.488445,0.0571 c -0.74853,0.84706 -1.351721,1.78027 -1.785165,2.77088 l 2.569274,-0.30056 0.318459,2.72233 -3.636588,0.42541 c -0.0105,0.10615 -0.02157,0.2123 -0.0283,0.31909 l -0.140186,2.263 4.100807,-0.47971 0.386739,3.30601 1.721659,3.81837 0.794245,-4.11269 -0.386739,-3.306 2.686038,-0.31422 0.386739,3.30601 1.722016,3.81833 0.794214,-4.11268 -0.386739,-3.30601 2.686421,-0.31426 0.386738,3.30601 1.722037,3.81833 0.793499,-4.1126 -0.386739,-3.306 2.6864,-0.31426 0.386738,3.30601 1.722019,3.81833 0.794249,-4.11269 -0.386738,-3.306 4.054865,-0.47434 -0.650796,-1.73798 c -0.02797,-0.23912 -0.09035,-0.48181 -0.182686,-0.72691 l -3.516973,0.41142 -0.318459,-2.72233 1.91993,-0.22459 c -1.272852,-1.14743 -3.000597,-2.21629 -4.850968,-3.02706 l 0.119149,1.01854 -2.686424,0.31426 -0.273404,-2.33718 c -0.891099,-0.23921 -1.769815,-0.39829 -2.604226,-0.46389 l 0.362095,3.09535 -2.686402,0.31426 -0.380423,-3.25202 z m 20.068219,0.5204 c -0.0838,0.0138 -0.162671,0.0465 -0.226397,0.10371 -1.661771,0.82484 -3.378887,2.02462 -5.437358,2.93961 -0.307471,0.15063 -0.361854,0.51517 -0.25032,0.84026 0.564924,1.64602 1.030336,1.39747 1.207191,2.06445 0.08817,0.33224 0.581713,0.48147 0.83684,0.25267 1.482858,-1.32976 2.961444,-2.44409 5.437405,-2.93926 0.335603,-0.0669 0.394675,-0.52864 0.250644,-0.84065 -0.431702,-0.93514 -0.924096,-0.95213 -1.207574,-2.06439 -0.06379,-0.24982 -0.359057,-0.39562 -0.610431,-0.3564 z m -37.120612,4.37612 c -0.253662,0.0196 -0.507689,0.23042 -0.511992,0.48804 -0.01911,1.14764 -0.477276,1.14862 -0.681494,2.15817 -0.06815,0.33679 0.09961,0.70224 0.437481,0.75979 2.267762,0.38722 4.216748,0.60369 6.028943,1.43874 0.31119,0.1434 0.746636,-0.0974 0.755914,-0.43897 0.01812,-0.68978 0.452161,-0.25972 0.621935,-1.99167 0.03337,-0.34205 -0.103753,-0.68459 -0.437882,-0.76013 -1.938142,-0.87866 -3.938822,-1.55959 -5.968621,-1.60495 -0.07509,-0.0412 -0.159677,-0.0556 -0.244288,-0.049 z m 12.52621,1.49151 2.686042,-0.31421 0.318463,2.72235 -2.686042,0.31422 -0.318463,-2.72236 z m 5.202268,-0.60856 2.686423,-0.31426 0.318463,2.72236 -2.686423,0.31425 -0.318463,-2.72235 z m 5.201959,-0.60853 2.686403,-0.31426 0.318462,2.72236 -2.686402,0.31426 -0.318463,-2.72236 z m 16.240764,-1.27808 c -0.08422,0.0119 -0.164095,0.0426 -0.229231,0.0982 -1.976807,0.46259 -3.794315,1.54135 -5.509564,2.80051 -0.311216,0.14251 -0.343979,0.49766 -0.271291,0.83363 0.204844,0.9462 0.180667,1.42823 0.144797,2.11731 -0.0177,0.34325 0.29681,0.2938 0.618218,0.17603 1.87161,-0.68591 3.885731,-0.59205 6.176503,-0.79492 0.340938,-0.0298 0.536871,-0.38081 0.495485,-0.72212 -0.125478,-1.02273 -0.568115,-3.01793 -0.823547,-4.13695 -0.05736,-0.25131 -0.349148,-0.40478 -0.601418,-0.37195 z m -40.633471,4.95231 c -0.250759,0.0429 -0.484577,0.27518 -0.465677,0.53232 0.08383,1.14482 0.215718,2.93105 0.39651,3.94544 0.06018,0.33848 0.351129,0.6158 0.685806,0.54443 2.249288,-0.47967 4.144723,-0.82321 6.13503,-0.71768 0.341785,0.0181 0.659374,-0.36511 0.541678,-0.68802 -0.236365,-0.64815 -0.371513,-0.85043 -0.453418,-1.81507 -0.02844,-0.34262 -0.164833,-0.67224 -0.504282,-0.71719 -2.009,-0.69947 -4.062914,-1.19656 -6.088282,-1.05768 -0.07871,-0.0339 -0.163761,-0.0408 -0.247446,-0.0266 z m 3.811957,4.80972 c -1.032345,0.10717 -2.028541,0.29328 -2.959609,0.59165 -0.339837,-0.0408 -0.507,0.34606 -0.541681,0.68803 -0.108461,1.06999 -0.0047,1.97218 0.349544,2.98805 0.113297,0.32456 0.353634,0.62665 0.685857,0.54445 2.244366,-0.55558 4.113359,-0.7051 6.135011,-0.71768 0.342244,-0.002 0.659398,-0.36509 0.541658,-0.68804 -0.236177,-0.64819 0.128405,-1.31456 -0.349544,-2.98806 -0.09457,-0.33054 -0.347795,-0.5978 -0.685834,-0.54443 -1.07513,-0.0123 -2.143146,0.0181 -3.175402,0.12603 z m 34.694795,-4.05861 c -1.029207,0.13399 -2.075869,0.35009 -3.119134,0.61031 -0.341169,0.0263 -0.525739,0.34455 -0.541292,0.68798 -0.07875,1.73861 0.446266,2.44414 0.366072,3.12934 -0.04005,0.34134 0.349948,0.61179 0.685461,0.54443 1.998442,-0.4011 3.828748,-0.86575 6.13541,-0.71772 0.341547,0.0219 0.506114,-0.34602 0.541297,-0.68794 0.110211,-1.07019 -0.01355,-2.11328 -0.366072,-3.12934 -0.112723,-0.32472 -0.364231,-0.66271 -0.685465,-0.54448 -0.974802,-0.0753 -1.986966,-0.0258 -3.016277,0.10742 z m 0.507628,4.62998 c -1.029175,0.13409 -2.075758,0.35068 -3.119055,0.61066 -0.341189,0.0263 -0.458149,0.35461 -0.541298,0.68796 -0.411229,1.64818 0.313633,2.20477 0.341515,2.91941 0.01339,0.3435 0.343488,0.55727 0.685468,0.54447 2.068765,-0.0774 3.981674,-0.0416 6.135369,-0.71772 0.326524,-0.10274 0.506093,-0.34604 0.541334,-0.68798 0.110193,-1.07017 0.01098,-1.90332 -0.341514,-2.91941 -0.11273,-0.3247 -0.364252,-0.6627 -0.685504,-0.54445 -0.974763,-0.0753 -1.987025,-0.0262 -3.016315,0.10706 z m -34.556334,4.12226 c -1.032248,0.10716 -2.051952,0.26994 -3.031081,0.52054 -0.339839,-0.041 -0.507001,0.34604 -0.541682,0.68799 -0.108464,1.06999 0.01184,2.11348 0.366072,3.12934 0.113104,0.32455 0.343798,0.55556 0.685846,0.54439 2.224482,-0.0724 4.10006,-0.35188 6.135014,-0.71768 0.336843,-0.0604 0.607885,-0.35068 0.54168,-0.68798 -0.137817,-0.70182 0.414413,-1.6206 -0.366073,-3.12935 -0.15781,-0.30518 -0.347829,-0.5978 -0.685847,-0.54441 -1.027544,0.035 -2.071791,0.0891 -3.103933,0.19713 z m 38.215901,0.20507 c -0.04087,7.6e-4 -0.08158,0.01 -0.121587,0.026 -2.114638,0.77841 -4.044357,0.55788 -6.135393,0.71772 -0.341186,0.0263 -0.601412,0.34982 -0.541261,0.68828 0.278304,1.56753 0.454391,2.40073 0.366031,3.12898 -0.04124,0.34118 0.344632,0.57497 0.685471,0.5445 1.825556,-0.16322 3.846068,-0.16643 6.135393,-0.71773 0.332675,-0.0803 0.520866,-0.34485 0.541311,-0.688 0.06337,-1.06469 -0.365813,-2.07167 -0.36603,-3.12898 -2.36e-4,-0.30076 -0.27896,-0.58261 -0.563863,-0.56915 z m -40.827704,4.96717 c -0.280329,0.0525 -0.486586,0.39128 -0.417273,0.68397 0.243813,1.02877 0.03659,1.91912 0.343978,2.94047 0.09909,0.32916 0.344508,0.56892 0.68585,0.54442 2.334242,-0.16736 4.279476,-0.81086 6.135014,-0.71768 0.341851,0.0174 0.660701,-0.36557 0.541676,-0.68802 -0.254055,-0.68817 -0.252978,-1.35103 -0.343978,-2.94047 -0.01978,-0.34319 -0.347871,-0.59816 -0.685889,-0.54477 -2.071464,0.32719 -3.897785,0.98703 -6.135013,0.71767 -0.04253,-0.007 -0.08429,-0.004 -0.124498,0.003 z m 5.210577,3.79958 c -1.524172,0.18232 -2.94969,0.58881 -4.567062,0.63393 -0.342095,0.01 -0.531605,0.34478 -0.54164,0.68836 -0.031,1.06097 -0.200742,2.138 0.366029,3.12897 0.170397,0.29828 0.334374,0.48412 0.673009,0.43465 2.314305,-0.33779 4.811248,-0.84063 6.294972,-0.70458 0.340863,0.0313 0.574793,-0.34618 0.541619,-0.68835 -0.06752,-0.71003 -0.0044,-1.49147 -0.513096,-3.03203 -0.107871,-0.32636 -0.343736,-0.53727 -0.685888,-0.54477 -0.540797,-0.0118 -1.059832,0.0234 -1.567975,0.0836 z m 29.9013,-3.39819 c -0.341687,0.0194 -0.51174,0.34587 -0.541257,0.6883 -0.139396,1.6164 0.267847,2.42257 0.366028,3.12898 0.04769,0.3405 0.349214,0.60818 0.685472,0.54449 1.804667,-0.34178 3.805591,-0.51223 6.135369,-0.71772 0.340916,-0.0298 0.444209,-0.35843 0.541331,-0.688 0.322729,-1.09503 -0.09099,-2.1038 -0.366029,-3.12898 -0.08912,-0.33197 -0.352826,-0.62493 -0.685545,-0.54479 -2.104242,0.50667 -3.99189,0.59646 -6.135369,0.71772 z m -29.374409,7.90229 c -1.524171,0.18232 -2.949684,0.58885 -4.567062,0.63393 -0.342095,0.01 -0.531648,0.34441 -0.541679,0.68801 -0.031,1.06093 -0.222748,1.94989 0.344025,2.94088 0.170392,0.29824 0.343881,0.53066 0.685849,0.54441 2.364949,0.0951 4.320611,-0.45921 6.135014,-0.71768 0.338628,-0.0497 0.57483,-0.34584 0.541677,-0.688 -0.06751,-0.71 0.164658,-1.40032 -0.344025,-2.94088 -0.10787,-0.32636 -0.343693,-0.5369 -0.685847,-0.54442 -0.540797,-0.0118 -1.059844,0.0233 -1.567952,0.0838 z m 29.9013,-3.3982 c -0.341996,0.0121 -0.511778,0.34554 -0.541297,0.68797 -0.139397,1.61638 0.26789,2.42293 0.366072,3.12934 0.04768,0.34048 0.344682,0.57573 0.685468,0.54447 1.825084,-0.16729 3.85624,-0.0793 6.135369,-0.71772 0.329579,-0.0924 0.444214,-0.35839 0.541335,-0.68798 0.322729,-1.09505 -0.09104,-2.10421 -0.366072,-3.12934 -0.08912,-0.332 -0.352372,-0.6229 -0.685506,-0.54446 -1.046756,0.24666 -1.995,0.28976 -2.993119,0.39776 -1.013418,0.10848 -2.07659,0.28269 -3.14225,0.31996 z m -34.062697,8.54571 c -0.265331,0.0604 -0.411671,0.37787 -0.42045,0.67855 -0.031,1.06097 -0.200707,2.1383 0.366071,3.12934 0.170394,0.29825 0.345646,0.50664 0.68585,0.54441 1.826927,0.20292 3.904665,-0.41911 6.135013,-0.71767 0.339166,-0.0457 0.574831,-0.34585 0.541678,-0.68801 -0.06751,-0.71003 0.142612,-1.58877 -0.366072,-3.12934 -0.107872,-0.32638 -0.352682,-0.6227 -0.685846,-0.54441 -1.929373,0.45337 -3.885357,0.85698 -6.135014,0.71767 -0.04291,-0.005 -0.08351,-2.9e-4 -0.121346,0.008 z m 40.85944,-4.6524 c -0.03894,5.3e-4 -0.07899,0.005 -0.11957,0.02 -2.156723,0.65481 -4.153434,0.71352 -6.135351,0.71771 -0.342248,8.7e-4 -0.511761,0.34589 -0.541298,0.68831 -0.139379,1.61638 0.267848,2.42256 0.366034,3.12901 0.04758,0.34048 0.35463,0.63192 0.685503,0.54443 2.010865,-0.53172 4.084195,-0.53043 6.135351,-0.71772 0.340976,-0.0298 0.444225,-0.35844 0.541335,-0.68794 0.322721,-1.09509 -0.091,-2.10388 -0.366033,-3.12901 -0.07786,-0.29051 -0.293621,-0.56589 -0.565742,-0.56353 z m -43.988527,9.53352 c -0.49469,0.0538 -0.828187,0.58634 -0.768072,1.10023 l 0.101249,0.86552 c 0.06412,0.54814 0.551313,0.89017 1.100497,0.87436 3.183395,-0.0919 6.302858,-0.22389 9.362541,-0.53077 9.064873,-0.88139 20.080205,-2.20994 30.3956,-3.59627 3.224374,-0.44635 5.116322,-1.05267 8.392553,-1.5056 0.544133,-0.0754 0.933039,-0.55664 0.868916,-1.10479 l -0.101246,-0.86549 c -0.06412,-0.54816 -0.560234,-0.97425 -1.100441,-0.87439 -2.042331,0.37757 -4.075822,0.87785 -6.154558,1.06618 -8.213272,0.74423 -16.733838,2.62437 -25.580203,2.93499 -5.414369,0.19022 -10.712874,1.74926 -16.415941,1.6314 -0.03459,-0.002 -0.06815,-8e-5 -0.10109,0.004 z"
       id="path9065"
       inkscape:connector-curvature="0" />
    <text
       transform="matrix(0.99095535,-0.11592245,0.11645458,0.99550428,0,0)"
       sodipodi:linespacing="125%"
       id="text9067"
       y="809.39032"
       x="-49.694183"
       style="font-style:normal;font-weight:normal;font-size:23.63869286px;line-height:125%;font-family:sans-serif;letter-spacing:0px;word-spacing:0px;fill:#42290d;fill-opacity:1;stroke:none;stroke-width:1px;stroke-linecap:butt;stroke-linejoin:miter;stroke-opacity:1"
       xml:space="preserve"><tspan
         style="font-style:normal;font-variant:normal;font-weight:normal;font-stretch:normal;font-family:'Archivo Black';-inkscape-font-specification:'Archivo Black, ';fill:#42290d;fill-opacity:1"
         y="809.39032"
         x="-49.694183"
         id="tspan9069"
         sodipodi:role="line">D</tspan></text>
    <text
       xml:space="preserve"
       style="font-style:normal;font-variant:normal;font-weight:normal;font-stretch:normal;font-size:13.18730831px;line-height:125%;font-family:'Archivo Narrow';-inkscape-font-specification:'Archivo Narrow, Normal';text-align:start;letter-spacing:0px;word-spacing:0px;writing-mode:lr-tb;text-anchor:start;fill:#000000;fill-opacity:1;stroke:none;stroke-width:1px;stroke-linecap:butt;stroke-linejoin:miter;stroke-opacity:1"
       x="31.371431"
       y="846.61804"
       id="text25895"
       sodipodi:linespacing="125%"><tspan
         sodipodi:role="line"
         id="tspan25897"
         x="31.371431"
         y="846.61804">&quot;D&quot; Gate</tspan></text>
    <g
       id="g27080"
       transform="matrix(0.58116387,0.14579956,-0.14579956,0.58116387,265.62505,478.67906)">
      <circle
         r="43.214287"
         cy="900.57642"
         cx="-117.5"
         id="path27070"
         style="opacity:1;fill:#d8c586;fill-opacity:1;stroke:none;stroke-width:1;stroke-linecap:round;stroke-linejoin:round;stroke-miterlimit:4;stroke-dasharray:none;stroke-dashoffset:0;stroke-opacity:1" />
      <path
         inkscape:connector-curvature="0"
         style="fill:#42290d;fill-opacity:1"
         d="m -126.13592,866.65809 0,18.114 2.41561,0 0,-18.114 z m 6.44173,12.82815 0,5.28585 2.41562,0 0,-5.28585 z m -8.32057,6.27239 0,13.3199 2.14723,2.14652 0,25.05545 14.7623,0 0,-25.05545 2.1473,-2.14652 0,-13.3199 z m 20.10545,0.93881 0,10.73467 2.20529,0 0,-10.73467 z m -17.01876,0.93922 12.88347,0 0,2.41556 -12.88347,0 z m 0,4.29442 12.88347,0 0,2.41487 -12.88347,0 z m 0,4.29373 12.88347,0 0,2.41487 -12.88347,0 z m 4.29443,5.50075 c 1.77885,0 3.22087,1.44182 3.22087,3.22075 0,1.77823 -1.44202,3.21963 -3.22087,3.21963 -1.77877,0 -3.22087,-1.4414 -3.22087,-3.21963 0,-1.77893 1.4421,-3.22075 3.22087,-3.22075 z"
         id="path6846"
         sodipodi:nodetypes="cccccccccccccccccccccccccccccccccccccccsssss" />
    </g>
    <text
       sodipodi:linespacing="100%"
       id="text27084"
       y="1025.8025"
       x="62.874157"
       style="font-style:normal;font-variant:normal;font-weight:normal;font-stretch:normal;font-size:16.27544594px;line-height:100%;font-family:'Archivo Narrow';-inkscape-font-specification:'Archivo Narrow, Normal';text-align:center;letter-spacing:0px;word-spacing:0px;writing-mode:lr-tb;text-anchor:middle;fill:#000000;fill-opacity:1;stroke:none;stroke-width:1px;stroke-linecap:butt;stroke-linejoin:miter;stroke-opacity:1"
       xml:space="preserve"><tspan
         y="1025.8025"
         x="62.874157"
         id="tspan27086"
         sodipodi:role="line">Reinforcements</tspan><tspan
         y="1042.0779"
         x="62.874157"
         sodipodi:role="line"
         id="tspan27150">chit</tspan></text>
    <circle
       r="28.826254"
       cy="65.510811"
       cx="938.20258"
       id="circle28358"
       style="opacity:1;fill:#800080;fill-opacity:1;stroke:none;stroke-width:1;stroke-linecap:round;stroke-linejoin:round;stroke-miterlimit:4;stroke-dasharray:none;stroke-dashoffset:0;stroke-opacity:1"
       transform="matrix(0.19495842,0.98081151,-0.98081151,0.19495842,0,0)" />
    <g
       id="g4239"
       transform="matrix(0.064372,0.32384752,-0.32384752,0.064372,371.79758,817.70351)">
      <path
         transform="translate(0,152.36215)"
         sodipodi:nodetypes="ssccccssccccccsssccccccsccccccsccccccscccccccccccccccccccccccccssscccccccccccccccsscccccccccssscccccccccsssccccccccccsssccccccccccccc"
         inkscape:connector-curvature="0"
         id="path4540"
         d="m 210.05664,602.98242 c -3.97887,0 -7.20117,3.23061 -7.20117,7.20899 0,3.11044 1.97078,5.75837 4.73242,6.76562 l 0,23.94531 4.5293,0 0,-23.80859 c 2.97538,-0.88562 5.14844,-3.64077 5.14843,-6.90234 0,-3.97861 -3.23011,-7.20899 -7.20898,-7.20899 z m -21.81055,8.61719 0,29.30273 4.53907,0 0,-29.30273 -4.53711,0 z m -27.77539,0.16016 c -3.97888,0 -7.20703,3.22864 -7.20703,7.20703 0,3.97838 3.22815,7.19922 7.20703,7.19922 3.24709,0 5.98963,-2.14658 6.88868,-5.09766 l 11.52929,0 0,19.83398 4.53906,0 0,-24.37304 -16.17382,0 c -0.99762,-2.78026 -3.65954,-4.76953 -6.78321,-4.76953 z m 37.3418,13.11132 0,16.03125 4.53125,0 0,-16.03125 z m 48.375,3.22657 c -3.97889,0 -7.20898,3.2306 -7.20898,7.20898 0,3.35647 2.29576,6.17577 5.40429,6.97461 l 0,7.04687 -23.8457,0 0,4.53126 28.38281,0 0,-11.89063 c 2.62309,-1.07553 4.4668,-3.65086 4.4668,-6.66211 0,-3.97838 -3.22229,-7.20703 -7.20117,-7.20703 z m -113.30273,6.96093 0,4.53711 21.46875,0 0,14.26368 16.11718,0 0,-4.53126 -11.57812,0 0,-14.26953 -26.00586,0 z M 175,645.43945 l 0,0.002 0,40.97656 41.00586,0 0,-40.97852 z m 5.31309,5.30469 30.05078,0 0,30.05274 -30.05078,0 z m -37.15293,8.35938 0,23.08007 c -2.94817,0.90101 -5.0918,3.64235 -5.0918,6.88672 0,3.97791 3.2223,7.20899 7.20117,7.20899 3.97887,0 7.20703,-3.22911 7.20703,-7.20703 0,-3.12871 -1.99905,-5.78933 -4.78711,-6.78321 l 0,-18.65625 22.78125,0 0,-4.52929 z m 77.37695,0 0,4.52929 13.84766,0 0,-4.52929 z m 25.64844,5.63476 c -2.79543,7.5e-4 -5.21917,1.59347 -6.41407,3.91992 l -19.23632,0 0,4.53907 18.55468,0 c 0.59657,3.3783 3.54661,5.94921 7.09571,5.94921 3.97887,0 7.20117,-3.23095 7.20117,-7.20898 0,-3.97786 -3.22124,-7.19815 -7.19922,-7.19922 z m -89.5625,3.91992 0,4.53907 13.84765,0 0,-4.53907 z m 4.40234,9.35742 0,34.77149 c -2.95022,0.90137 -5.10156,3.6427 -5.10156,6.88672 0,3.97803 3.23009,7.20703 7.20898,7.20703 3.97862,0 7.20117,-3.229 7.20117,-7.20703 0,-3.12848 -1.9933,-5.78956 -4.77929,-6.78321 l 0,-30.33789 4.91406,0 0,-4.53711 z m 59.51172,0 0,4.53711 11.58594,0 0,24.44532 c -2.90532,0.92977 -5.01172,3.65895 -5.01172,6.87109 0,3.97815 3.23011,7.19922 7.20898,7.19922 3.97887,0 7.19922,-3.2213 7.19922,-7.19922 0,-3.1608 -2.03577,-5.84349 -4.86719,-6.81445 l 0,-29.03907 z m -41.64844,12.93946 0,13.86133 4.53906,0 0,-13.86133 z m 9.35938,0 0,22.20898 c -2.82579,0.97347 -4.86133,3.65169 -4.86133,6.80664 0,3.97805 3.2301,7.20703 7.20898,7.20703 3.97887,0 7.20118,-3.22922 7.20118,-7.20703 0,-3.21464 -2.10486,-5.93721 -5.01172,-6.86328 l 0,-22.15234 z m 9.56445,0 0,13.86133 4.53906,0 -0.008,-13.86133 z m 9.77539,0 0,40.32226 4.5293,0 0,-40.32226 z"
         style="fill:#000000" />
      <g
         id="g4236">
        <path
           inkscape:connector-curvature="0"
           id="path4542"
           d="m 192.93692,745.41842 a 74.607757,74.598951 0 0 0 -74.60776,74.59896 74.607757,74.598951 0 0 0 74.60776,74.59895 74.607757,74.598951 0 0 0 74.60776,-74.59895 74.607757,74.598951 0 0 0 -74.60776,-74.59896 z m 0,10.65698 a 63.949506,63.941958 0 0 1 63.94952,63.94198 63.949506,63.941958 0 0 1 -63.94952,63.94197 63.949506,63.941958 0 0 1 -63.94952,-63.94197 63.949506,63.941958 0 0 1 63.94952,-63.94198 z"
           style="fill:#000000;fill-opacity:1;stroke:none;stroke-width:2.5;stroke-linecap:round;stroke-linejoin:round;stroke-miterlimit:4;stroke-dasharray:none;stroke-dashoffset:0;stroke-opacity:1" />
      </g>
    </g>
    <path
       style="opacity:1;fill:#800080;fill-opacity:1;stroke:none;stroke-width:1;stroke-linecap:round;stroke-linejoin:round;stroke-miterlimit:4;stroke-dasharray:none;stroke-dashoffset:0;stroke-opacity:1"
       d="M 122.73576,874.79267 A 28.826253,28.826253 0 0 0 93.909384,845.9663 28.826253,28.826253 0 0 0 65.083559,874.79267 28.826253,28.826253 0 0 0 93.909384,903.61902 28.826253,28.826253 0 0 0 122.73576,874.79267 Z m -4.76742,0 a 24.05875,24.05875 0 0 1 -24.058956,24.05889 24.05875,24.05875 0 0 1 -24.058355,-24.05889 24.05875,24.05875 0 0 1 24.058355,-24.05891 24.05875,24.05875 0 0 1 24.058956,24.05891 z"
       id="circle28364"
       inkscape:connector-curvature="0" />
    <text
       sodipodi:linespacing="100%"
       id="text28449"
       y="930.17578"
       x="66.058777"
       style="font-style:normal;font-variant:normal;font-weight:normal;font-stretch:normal;font-size:16.27194595px;line-height:100%;font-family:'Archivo Narrow';-inkscape-font-specification:'Archivo Narrow, Normal';text-align:center;letter-spacing:0px;word-spacing:0px;writing-mode:lr-tb;text-anchor:middle;fill:#000000;fill-opacity:1;stroke:none;stroke-width:1px;stroke-linecap:butt;stroke-linejoin:miter;stroke-opacity:1"
       xml:space="preserve"><tspan
         y="930.17578"
         x="66.058777"
         id="tspan28451"
         sodipodi:role="line">Control</tspan><tspan
         y="946.44775"
         x="66.058777"
         sodipodi:role="line"
         id="tspan28469">Panel</tspan></text>
    <text
       xml:space="preserve"
       style="font-style:normal;font-variant:normal;font-weight:normal;font-stretch:normal;font-size:12.36107445px;line-height:100%;font-family:'Archivo Narrow';-inkscape-font-specification:'Archivo Narrow, Normal';text-align:center;letter-spacing:0px;word-spacing:0px;writing-mode:lr-tb;text-anchor:middle;fill:#000000;fill-opacity:1;stroke:none;stroke-width:1px;stroke-linecap:butt;stroke-linejoin:miter;stroke-opacity:1"
       x="95.802513"
       y="874.57141"
       id="text28453"
       sodipodi:linespacing="100%"><tspan
         sodipodi:role="line"
         x="95.802513"
         y="874.57141"
         id="tspan28457">Pressure</tspan><tspan
         sodipodi:role="line"
         x="95.802513"
         y="886.9325"
         id="tspan28461">Sensor</tspan></text>
  </g>
</svg>
