<?xml version="1.0" encoding="UTF-8" standalone="no"?>
<!-- Created with Inkscape (http://www.inkscape.org/) -->

<svg
   xmlns:dc="http://purl.org/dc/elements/1.1/"
   xmlns:cc="http://creativecommons.org/ns#"
   xmlns:rdf="http://www.w3.org/1999/02/22-rdf-syntax-ns#"
   xmlns:svg="http://www.w3.org/2000/svg"
   xmlns="http://www.w3.org/2000/svg"
   xmlns:sodipodi="http://sodipodi.sourceforge.net/DTD/sodipodi-0.dtd"
   xmlns:inkscape="http://www.inkscape.org/namespaces/inkscape"
   width="75"
   height="75"
   viewBox="0 0 75.000001 75.000001"
   id="svg5199"
   version="1.1"
   inkscape:version="0.91 r13725"
   sodipodi:docname="figure_alerts_on_disabled.svg">
  <defs
     id="defs5201" />
  <sodipodi:namedview
     id="base"
     pagecolor="#ffffff"
     bordercolor="#666666"
     borderopacity="1.0"
     inkscape:pageopacity="0.0"
     inkscape:pageshadow="2"
     inkscape:zoom="7.9195959"
     inkscape:cx="45.367917"
     inkscape:cy="54.870609"
     inkscape:document-units="px"
     inkscape:current-layer="layer1"
     showgrid="false"
     units="px"
     borderlayer="true"
     inkscape:window-width="1280"
     inkscape:window-height="961"
     inkscape:window-x="1912"
     inkscape:window-y="-8"
     inkscape:window-maximized="1" />
  <metadata
     id="metadata5204">
    <rdf:RDF>
      <cc:Work
         rdf:about="">
        <dc:format>image/svg+xml</dc:format>
        <dc:type
           rdf:resource="http://purl.org/dc/dcmitype/StillImage" />
        <dc:title />
      </cc:Work>
    </rdf:RDF>
  </metadata>
  <g
     inkscape:label="Layer 1"
     inkscape:groupmode="layer"
     id="layer1"
     transform="translate(0,-977.36216)">
    <rect
       ry="5.2912221"
       y="977.36218"
       x="6.3343717e-009"
       height="75"
       width="75"
       id="rect5149"
       style="fill:#42290d;fill-opacity:1;stroke:none;stroke-width:1.74198794;stroke-miterlimit:4;stroke-dasharray:none;stroke-opacity:1" />
    <path
       id="path11408"
       d="m 55.060759,1024.3603 c -0.937622,0 -1.611958,0.496 -2.001398,1.1187 -0.348314,0.557 -0.493246,1.203 -0.521524,1.7688 -1.062898,0.5253 -2.240417,1.0549 -3.188445,1.5963 -0.497309,0.2841 -0.930869,0.5697 -1.25722,0.8767 -0.326378,0.307 -0.567181,0.6527 -0.567181,1.0605 0,0.1735 0.08478,0.315 0.180239,0.4187 0.09568,0.1038 0.210245,0.1844 0.340736,0.2596 0.260982,0.1505 0.590023,0.276 0.951954,0.3844 0.537668,0.1613 1.139852,0.2812 1.663408,0.3324 -0.520755,0.8969 -1.213814,1.7206 -1.821325,2.51 -0.702064,0.9121 -1.315012,1.7869 -1.315012,2.7587 0,0.1389 -0.0027,0.2472 0.01071,0.3561 0.01235,0.1088 0.04354,0.2448 0.15314,0.3525 0.109571,0.1078 0.243686,0.1367 0.352927,0.1485 0.109241,0.012 0.219306,0.01 0.360476,0.01 l 3.873515,0 c 0.281188,0 0.487096,0.017 0.698879,-0.119 0.211839,-0.1361 0.289095,-0.3219 0.440012,-0.5996 l 0.0033,-0.01 0.0033,-0.01 c 0,0 0.337635,-0.6861 0.7405,-1.367 0.201406,-0.3404 0.42008,-0.6795 0.610284,-0.9197 0.09519,-0.1201 0.18422,-0.2153 0.248326,-0.2691 0.01949,-0.016 0.02847,-0.019 0.0411,-0.026 0.01263,0.01 0.02141,0.01 0.0411,0.026 0.06408,0.054 0.153141,0.149 0.248298,0.2691 0.190204,0.2402 0.408878,0.5793 0.610311,0.9197 0.402811,0.6809 0.7405,1.367 0.7405,1.367 l 0.003,0.01 0.0033,0.01 c 0.150944,0.2777 0.22746,0.4624 0.437898,0.5988 0.210383,0.1364 0.415824,0.1197 0.693059,0.1197 l 3.890564,0 c 0.138919,0 0.247254,0 0.355754,-0.011 0.108445,-0.012 0.243026,-0.042 0.351444,-0.1502 0.108335,-0.1085 0.138343,-0.243 0.150368,-0.3513 0.01208,-0.1084 0.01071,-0.2167 0.01071,-0.3555 0,-0.9719 -0.61292,-1.8467 -1.315011,-2.759 -0.607484,-0.7892 -1.300516,-1.6129 -1.821326,-2.5097 0.523583,-0.051 1.125741,-0.1712 1.663435,-0.3324 0.361904,-0.1085 0.690945,-0.2339 0.951927,-0.3844 0.130491,-0.075 0.245086,-0.1559 0.340682,-0.2596 0.09557,-0.1038 0.180293,-0.2452 0.180293,-0.4188 0,-0.4078 -0.240803,-0.7534 -0.567153,-1.0604 -0.326378,-0.3071 -0.759938,-0.5927 -1.257247,-0.8767 -0.948029,-0.5414 -2.125521,-1.0711 -3.188445,-1.5963 -0.02825,-0.5658 -0.173238,-1.2119 -0.521497,-1.7688 -0.389468,-0.6227 -1.063803,-1.1186 -2.001426,-1.1186 z"
       inkscape:connector-curvature="0"
       style="fill:#000000;stroke:#ffffff;stroke-width:0.99000001;stroke-miterlimit:4;stroke-dasharray:none;stroke-opacity:0" />
    <g
       transform="matrix(0.27454407,0,0,0.27454407,-626.07569,840.06385)"
       id="g15452">
      <g
         transform="matrix(1.0912511,0,0,1.0912511,1487.83,521.65638)"
         id="g14148">
        <g
           transform="matrix(2.5502364,0,0,2.5502364,115.61037,213.89339)"
           id="g14150"
           style="font-style:normal;font-weight:normal;font-size:40px;line-height:125%;font-family:sans-serif;letter-spacing:0px;word-spacing:0px;fill:#42290d;fill-opacity:1;stroke:none;stroke-width:1px;stroke-linecap:butt;stroke-linejoin:miter;stroke-opacity:1">
          <g
             transform="translate(301.32214,-340.94806)"
             id="g14152">
            <path
               inkscape:connector-curvature="0"
               id="path14154"
               style="fill:#d8c586;fill-opacity:1"
               d="m -27.005527,341.9378 -31.214185,0 c -0.217564,0 -0.415933,-0.064 -0.595106,-0.19197 -0.166375,-0.12798 -0.300755,-0.28155 -0.403139,-0.46072 -0.102384,-0.17917 -0.153575,-0.37115 -0.153575,-0.57591 0,-0.19198 0.05119,-0.39036 0.153575,-0.59511 l 15.587902,-27.68195 c 0.102384,-0.17917 0.243158,-0.31356 0.422325,-0.40315 0.179172,-0.0896 0.371143,-0.13438 0.57591,-0.13438 0.204767,0 0.396737,0.0448 0.57591,0.13438 0.179172,0.0895 0.319951,0.22398 0.422334,0.40315 l 15.626284,27.68195 c 0.102384,0.20476 0.153575,0.40314 0.153575,0.59511 0,0.20476 -0.05119,0.39674 -0.153575,0.57591 -0.102384,0.17917 -0.243159,0.33274 -0.422325,0.46072 -0.166376,0.12797 -0.358346,0.19197 -0.57591,0.19197 z"
               sodipodi:nodetypes="ssccscccssccsccs" />
            <path
               d="m -26.733715,342.19941 -31.75781,0 q -0.33203,0 -0.60547,-0.19531 -0.25391,-0.19532 -0.41016,-0.46875 -0.15625,-0.27344 -0.15625,-0.58594 0,-0.29297 0.15625,-0.60547 l 15.85938,-28.16406 q 0.15625,-0.27344 0.42968,-0.41016 0.27344,-0.13672 0.58594,-0.13672 0.3125,0 0.58594,0.13672 0.27344,0.13672 0.42969,0.41016 l 15.89843,28.16406 q 0.15625,0.3125 0.15625,0.60547 0,0.3125 -0.15625,0.58594 -0.15625,0.27343 -0.42968,0.46875 -0.25391,0.19531 -0.58594,0.19531 z m -29.72656,-2.5 27.65625,0 -13.82813,-24.49219 -13.82812,24.49219 z m 15.64453,-7.10938 -3.63281,0 0,-10.83984 3.63281,0 0,10.83984 z m 0.54687,3.55469 q 0,0.50781 -0.19531,0.9375 -0.17578,0.42969 -0.50781,0.76172 -0.3125,0.3125 -0.74219,0.50781 -0.42969,0.17578 -0.91797,0.17578 -0.48828,0 -0.91797,-0.17578 -0.42968,-0.19531 -0.74218,-0.50781 -0.3125,-0.33203 -0.48829,-0.76172 -0.17578,-0.42969 -0.17578,-0.9375 0,-0.48828 0.17578,-0.9375 0.17579,-0.44922 0.48829,-0.76172 0.3125,-0.33203 0.74218,-0.52734 0.42969,-0.19531 0.91797,-0.19531 0.48828,0 0.91797,0.19531 0.42969,0.19531 0.74219,0.52734 0.33203,0.3125 0.50781,0.76172 0.19531,0.44922 0.19531,0.9375 z"
               style="fill:#42290d;fill-opacity:1"
               id="path14156"
               inkscape:connector-curvature="0" />
          </g>
        </g>
        <text
           transform="scale(0.99918447,1.0008162)"
           sodipodi:linespacing="125%"
           id="text14158"
           y="205.49388"
           x="812.49805"
           style="font-style:normal;font-weight:normal;font-size:100.95265961px;line-height:125%;font-family:sans-serif;letter-spacing:0px;word-spacing:0px;fill:#d8c586;fill-opacity:1;stroke:none;stroke-width:1px;stroke-linecap:butt;stroke-linejoin:miter;stroke-opacity:1"
           xml:space="preserve"><tspan
             y="205.49388"
             x="812.49805"
             id="tspan14160"
             sodipodi:role="line">:</tspan></text>
      </g>
      <path
         transform="matrix(5.4322471,0,0,5.4427216,265.46098,-5351.2854)"
         sodipodi:type="star"
         style="font-style:normal;font-weight:normal;font-size:medium;line-height:125%;font-family:sans-serif;letter-spacing:0px;word-spacing:0px;fill:#d8c586;fill-opacity:1;stroke:none;stroke-width:0.09605665;stroke-linecap:butt;stroke-linejoin:round;stroke-miterlimit:4;stroke-dasharray:none;stroke-dashoffset:0;stroke-opacity:1"
         id="path14892"
         sodipodi:sides="6"
         sodipodi:cx="407.40814"
         sodipodi:cy="1113.0243"
         sodipodi:r1="11.162703"
         sodipodi:r2="9.6671848"
         sodipodi:arg1="-1.0471976"
         sodipodi:arg2="-0.52359878"
         inkscape:flatsided="true"
         inkscape:rounded="0"
         inkscape:randomized="0"
         d="m 412.98949,1103.3571 5.58135,9.6672 -5.58135,9.6672 -11.1627,0 -5.58135,-9.6672 5.58135,-9.6672 z" />
      <path
         style="fill:#42290d;fill-opacity:1;stroke:none;stroke-width:0.99999994;stroke-opacity:1"
         inkscape:connector-curvature="0"
         d="m 2448.241,681.0489 c -2.6621,0 -4.5767,1.41044 -5.6825,3.18151 -0.989,1.58406 -1.4003,3.42135 -1.4806,5.03045 -3.0179,1.49398 -6.3611,3.00018 -9.0528,4.53991 -1.412,0.80797 -2.643,1.62048 -3.5696,2.4935 -0.9266,0.87303 -1.6103,1.85632 -1.6103,3.0161 0,0.49337 0.2407,0.89575 0.5117,1.19075 0.2716,0.29527 0.5969,0.52435 0.9675,0.73833 0.7409,0.42799 1.6751,0.78492 2.7027,1.09328 1.5267,0.45868 3.2363,0.79971 4.7229,0.9455 -1.4785,2.55061 -3.4464,4.89346 -5.1712,7.13829 -1.9933,2.59406 -3.7336,5.08214 -3.7336,7.8459 0,0.39502 -0.01,0.70307 0.03,1.01284 0.036,0.30949 0.1237,0.69626 0.4348,1.00235 0.3111,0.30663 0.6918,0.38877 1.002,0.42259 0.3103,0.034 0.6227,0.0284 1.0235,0.0284 l 10.9979,0 c 0.7984,0 1.383,0.0483 1.9843,-0.33846 0.6014,-0.38707 0.8208,-0.91566 1.2493,-1.70542 l 0.01,-0.0283 0.01,-0.0284 c 0,0 0.9586,-1.95124 2.1025,-3.8877 0.5719,-0.96824 1.1927,-1.93251 1.7328,-2.61569 0.2702,-0.34161 0.5229,-0.61244 0.7049,-0.76532 0.056,-0.0454 0.081,-0.0541 0.1167,-0.0739 0.036,0.0283 0.061,0.0283 0.1167,0.0739 0.182,0.15345 0.4348,0.42371 0.7049,0.76532 0.5401,0.68318 1.161,1.64745 1.7328,2.61569 1.1438,1.93646 2.1025,3.8877 2.1025,3.8877 l 0.01,0.0284 0.01,0.0283 c 0.4285,0.78976 0.6458,1.31523 1.2433,1.70316 0.5973,0.3879 1.1806,0.34044 1.9677,0.34044 l 11.0464,0 c 0.3943,0 0.7019,0 1.01,-0.0311 0.3079,-0.034 0.69,-0.11931 0.9978,-0.42742 0.3077,-0.30835 0.3928,-0.69088 0.427,-0.99895 0.035,-0.30833 0.03,-0.61639 0.03,-1.01114 0,-2.76401 -1.7403,-5.25209 -3.7337,-7.84647 -1.7249,-2.24452 -3.6925,-4.58739 -5.1712,-7.13799 1.4867,-0.14499 3.1963,-0.48681 4.7229,-0.94522 1.0276,-0.30863 1.9618,-0.66528 2.7027,-1.09327 0.3706,-0.21315 0.696,-0.44333 0.9673,-0.73834 0.2714,-0.29526 0.512,-0.6974 0.512,-1.19103 0,-1.15977 -0.6837,-2.1428 -1.6104,-3.01582 -0.9265,-0.87332 -2.1576,-1.68581 -3.5696,-2.49347 -2.6916,-1.53976 -6.0348,-3.04625 -9.0528,-4.53994 -0.08,-1.60908 -0.4918,-3.44665 -1.4806,-5.03044 -1.1058,-1.77107 -3.0203,-3.18122 -5.6825,-3.18122 z"
         id="path14894" />
      <g
         style="fill:#42290d;fill-opacity:1"
         id="g11398"
         transform="matrix(1.4207352,0,0,1.4230939,1734.251,-186.84832)">
        <path
           sodipodi:nodetypes="ccccccccscccccccccsccccccsccccccccccccccccscccscccssccccccccc"
           d="m 525.65901,625.00231 1.94807,9.9888 -7.17953,1.5595 c -0.26665,0.0574 -0.4583,0.29137 -0.46207,0.5641 l -0.0654,4.7112 c -0.006,0.3994 0.38172,0.68693 0.76242,0.566 l 9.02373,-2.8841 1.48619,-0.2882 c 0.0109,2e-4 0.0217,8e-4 0.0326,8e-4 0.61338,0 1.19103,-0.2922 1.59444,-0.7684 0.40311,-0.4759 0.61399,-1.096 0.61338,-1.7349 l 0,0 c 3.2e-4,-0.405 -0.0845,-0.8032 -0.24921,-1.1616 l -1.55704,-8.0443 z m 1.30079,0.5469 0.9866,0.416 1.83175,8.5978 c -0.18513,-0.057 -0.37846,-0.087 -0.57555,-0.087 -0.16782,0 -0.33269,0.023 -0.49212,0.064 l -1.75068,-8.9909 z m 2.30127,0.9702 1.0484,0.442 1.417,7.321 c -0.16831,-0.046 -0.34278,-0.071 -0.52041,-0.071 -0.10122,0 -0.20121,0.01 -0.29973,0.024 l -1.6452,-7.7159 z m 1.94493,8.8665 c 0.23799,0 0.50876,0.1218 0.70678,0.3556 0.19807,0.2338 0.33472,0.6093 0.33417,0.9731 6.2e-4,0.3638 -0.13616,0.7393 -0.33411,0.9731 -0.094,0.1109 -0.20429,0.1957 -0.31963,0.2552 l -0.37846,0.073 c 0.12974,-0.3249 0.19616,-0.6778 0.19579,-1.0367 l 0,0 c 2.5e-4,-0.2325 -0.0278,-0.4627 -0.0827,-0.6843 0.002,-0.0465 -0.002,-0.093 -0.0119,-0.1385 l -0.16363,-0.7675 0.0536,0 z m -2.0034,0.2649 c 0.23806,0 0.50889,0.1218 0.70696,0.3556 0.19802,0.2338 0.33455,0.6094 0.33405,0.9732 6.4e-4,0.3638 -0.13616,0.7393 -0.33411,0.9731 -0.19807,0.2338 -0.46884,0.3557 -0.70696,0.3557 -0.23799,0 -0.50723,-0.122 -0.70524,-0.3557 -0.198,-0.2338 -0.33626,-0.6093 -0.33576,-0.9731 -6.4e-4,-0.3638 0.13776,-0.7394 0.33576,-0.9732 0.19801,-0.2338 0.46725,-0.3556 0.70524,-0.3556 z m -2.12526,0.6524 c -0.0536,0.2193 -0.0811,0.4467 -0.0808,0.6764 l 0,0 c -6.3e-4,0.6388 0.21009,1.259 0.6132,1.7349 0.0516,0.061 0.10614,0.1189 0.16313,0.1735 l -6.68979,2.1381 0.0482,-3.4328 5.94611,-1.2917 z"
           id="path11400"
           inkscape:connector-curvature="0"
           style="fill:#42290d;fill-opacity:1;stroke-linecap:round;stroke-linejoin:round" />
        <path
           sodipodi:nodetypes="cccccccccccccccccccccccccccccccccccccccccccccccccccccccccccccccccccccccccccccccccccccccc"
           style="fill:#42290d;fill-opacity:1;stroke-linecap:round;stroke-linejoin:round"
           inkscape:connector-curvature="0"
           id="path11402"
           d="m 557.57911,623.18801 c 0.36275,-0.83791 0.62263,-1.77224 0.75319,-2.81716 l 0.004,-0.008 c 10e-4,-0.0107 0.002,-0.0215 0.002,-0.0324 4.3e-4,-0.009 8.9e-4,-0.0172 3.5e-4,-0.026 3e-4,-0.0108 -5.1e-4,-0.0215 -10e-4,-0.0322 -5e-4,-0.009 -0.001,-0.0178 -0.002,-0.0265 -6.2e-4,-0.0112 -0.003,-0.022 -0.004,-0.0329 -0.002,-0.008 -0.003,-0.0166 -0.004,-0.0249 -0.002,-0.0106 -0.005,-0.0218 -0.008,-0.0325 -0.002,-0.008 -0.004,-0.0165 -0.007,-0.0246 -0.003,-0.0101 -0.007,-0.0209 -0.0105,-0.0311 -0.003,-0.008 -0.006,-0.016 -0.009,-0.0239 -0.004,-0.0105 -0.009,-0.0206 -0.0139,-0.0309 -0.004,-0.007 -0.007,-0.0142 -0.0105,-0.0211 -0.005,-0.01 -0.0118,-0.0208 -0.0182,-0.0309 -0.004,-0.007 -0.008,-0.0133 -0.0122,-0.0197 -0.007,-0.009 -0.0129,-0.0186 -0.0197,-0.0275 -0.005,-0.006 -0.0102,-0.0131 -0.0155,-0.0197 -0.007,-0.009 -0.0148,-0.0173 -0.0228,-0.0254 -0.006,-0.006 -0.0113,-0.0125 -0.0171,-0.0183 -0.008,-0.008 -0.0163,-0.0158 -0.025,-0.0228 -0.006,-0.006 -0.0122,-0.0118 -0.0188,-0.0169 -0.0112,-0.009 -0.0224,-0.0184 -0.0344,-0.0263 l -5.78328,-4.00456 c -0.2286,-0.15826 -0.537,-0.13378 -0.73783,0.0584 l -3.96138,3.79236 -4.66387,4.4628 -6.07429,5.81523 -0.004,0.009 c -0.008,0.009 -0.0162,0.0173 -0.0244,0.0261 -0.006,0.005 -0.0121,0.0103 -0.0177,0.0159 -0.008,0.009 -0.0152,0.0176 -0.0225,0.0268 -0.007,0.006 -0.0132,0.0129 -0.0194,0.0196 -0.004,0.009 -0.008,0.0182 -0.0118,0.0274 -0.004,0.009 -0.008,0.0181 -0.0118,0.0273 -0.004,0.008 -0.007,0.0162 -0.0105,0.0243 -0.005,0.01 -0.009,0.0201 -0.0135,0.0303 -0.003,0.006 -0.006,0.0138 -0.008,0.0208 l -1.7414,4.84541 c -0.0714,0.20056 -0.0283,0.42406 0.11254,0.58366 l 4.81212,5.47273 4.8e-4,9e-4 9e-5,4e-5 -7.9e-4,0.002 c 0.23004,0.26662 0.64179,0.27106 0.87765,0.01 0.43184,-0.33592 0.79694,-0.71601 1.10321,-1.13088 l 14.28632,-14.48689 c 0.0119,-0.0125 0.0234,-0.0255 0.0343,-0.039 0.54305,-0.65902 1.00914,-1.40032 1.3721,-2.23819 z m -0.13161,-1.82549 c -0.0304,0.0717 -0.0748,0.13666 -0.13056,0.19102 l -13.70048,13.59064 c -0.202,0.20058 -0.51898,0.2269 -0.75129,0.0624 -0.0196,-0.027 -0.0414,-0.0523 -0.0653,-0.0757 l -0.0966,-0.0979 c -0.14082,-0.23136 -0.10467,-0.52909 0.0874,-0.72002 l 13.70231,-13.58979 c 0.45343,-0.45681 1.20468,0.0465 0.95474,0.63959 z m -15.99774,17.0647 c -0.10761,0.24881 -0.24246,0.48248 -0.39947,0.70441 l -0.68395,0.69358 -2.25485,-2.56415 c 0.20714,0.15083 0.42328,0.27558 0.6377,0.3655 0.49608,0.20803 0.97377,0.22383 1.29804,0.0349 0.32428,-0.18899 0.48265,-0.5758 0.43565,-1.04499 -0.012,-0.11593 -0.0358,-0.23734 -0.0708,-0.35995 0.0318,0.0549 0.0682,0.10936 0.11073,0.16113 0.12119,0.14754 0.28149,0.27267 0.44215,0.34027 0.16105,0.0675 0.31957,0.0748 0.42853,0.0133 0.0547,-0.0306 0.0949,-0.0758 0.11866,-0.13328 0.024,-0.0574 0.0321,-0.12719 0.024,-0.20148 -0.0173,-0.14891 -0.0993,-0.31681 -0.22068,-0.46464 -0.12165,-0.14773 -0.28135,-0.27272 -0.44241,-0.34017 -0.16095,-0.0674 -0.31947,-0.0748 -0.4285,-0.0134 -0.10838,0.0616 -0.15806,0.18657 -0.14445,0.33396 -0.11792,-0.28031 -0.28661,-0.56337 -0.49693,-0.82524 -0.38016,-0.47375 -0.88619,-0.86836 -1.38245,-1.07623 -0.49608,-0.20803 -0.97697,-0.22121 -1.30126,-0.0322 -0.32435,0.1889 -0.47944,0.5729 -0.43224,1.04212 0.0297,0.2933 0.13748,0.61593 0.30703,0.93226 l -0.80078,-0.9109 1.30851,-3.64611 4.31319,4.36623 c 0.08,1.01699 -0.0405,1.88025 -0.36953,2.62337 z" />
        <path
           sodipodi:nodetypes="cccccccc"
           id="path11404"
           d="m 526.02681,607.50554 1.12689,7.14648 -2.91854,-0.74553 4.51983,9.87315 -1.12792,-7.14503 2.91969,0.7441 -4.52014,-9.8733 z"
           inkscape:connector-curvature="0"
           style="fill:#42290d;fill-opacity:1" />
        <path
           style="fill:#42290d;fill-opacity:1"
           inkscape:connector-curvature="0"
           d="m 542.72268,609.72784 -4.0292,6.00895 -1.6347,-2.5301 -3.39261,10.31495 4.02745,-6.00861 1.63652,2.52986 3.39248,-10.31527 z"
           id="path11406"
           sodipodi:nodetypes="cccccccc" />
      </g>
    </g>
    <path
       style="fill:#000000;stroke:#ffffff;stroke-width:0.99000001;stroke-miterlimit:4;stroke-dasharray:none;stroke-opacity:0"
       inkscape:connector-curvature="0"
       d="m 55.060759,987.32382 c -0.937622,0 -1.611958,0.496 -2.001398,1.1187 -0.348314,0.557 -0.493246,1.203 -0.521524,1.7688 -1.062898,0.5253 -2.240417,1.0549 -3.188445,1.5963 -0.497309,0.2841 -0.930869,0.5697 -1.25722,0.8767 -0.326378,0.307 -0.567181,0.6527 -0.567181,1.0605 0,0.1735 0.08478,0.315 0.180239,0.4187 0.09568,0.1038 0.210245,0.1844 0.340736,0.2596 0.260982,0.1505 0.590023,0.276 0.951954,0.3844 0.537668,0.1613 1.139852,0.2812 1.663408,0.3324 -0.520755,0.8969 -1.213814,1.7206 -1.821325,2.51 -0.702064,0.9121 -1.315012,1.7869 -1.315012,2.75868 0,0.1389 -0.0027,0.2472 0.01071,0.3561 0.01235,0.1088 0.04354,0.2448 0.15314,0.3525 0.109571,0.1078 0.243686,0.1367 0.352927,0.1485 0.109241,0.012 0.219306,0.01 0.360476,0.01 l 3.873515,0 c 0.281188,0 0.487096,0.017 0.698879,-0.119 0.211839,-0.1361 0.289095,-0.3219 0.440012,-0.5996 l 0.0033,-0.01 0.0033,-0.01 c 0,0 0.337635,-0.68608 0.7405,-1.36698 0.201406,-0.3404 0.42008,-0.6795 0.610284,-0.9197 0.09519,-0.1201 0.18422,-0.2153 0.248326,-0.2691 0.01949,-0.016 0.02847,-0.019 0.0411,-0.026 0.01263,0.01 0.02141,0.01 0.0411,0.026 0.06408,0.054 0.153141,0.149 0.248298,0.2691 0.190204,0.2402 0.408878,0.5793 0.610311,0.9197 0.402811,0.6809 0.7405,1.36698 0.7405,1.36698 l 0.003,0.01 0.0033,0.01 c 0.150944,0.2777 0.22746,0.4624 0.437898,0.5988 0.210383,0.1364 0.415824,0.1197 0.693059,0.1197 l 3.890564,0 c 0.138919,0 0.247254,0 0.355754,-0.011 0.108445,-0.012 0.243026,-0.042 0.351444,-0.1502 0.108335,-0.1085 0.138343,-0.243 0.150368,-0.3513 0.01208,-0.1084 0.01071,-0.2167 0.01071,-0.3555 0,-0.97188 -0.61292,-1.84668 -1.315011,-2.75898 -0.607484,-0.7892 -1.300516,-1.6129 -1.821326,-2.5097 0.523583,-0.051 1.125741,-0.1712 1.663435,-0.3324 0.361904,-0.1085 0.690945,-0.2339 0.951927,-0.3844 0.130491,-0.075 0.245086,-0.1559 0.340682,-0.2596 0.09557,-0.1038 0.180293,-0.2452 0.180293,-0.4188 0,-0.4078 -0.240803,-0.7534 -0.567153,-1.0604 -0.326378,-0.3071 -0.759938,-0.5927 -1.257247,-0.8767 -0.948029,-0.5414 -2.125521,-1.0711 -3.188445,-1.5963 -0.02825,-0.5658 -0.173238,-1.2119 -0.521497,-1.7688 -0.389468,-0.6227 -1.063803,-1.1186 -2.001426,-1.1186 z"
       id="path4231" />
    <g
       transform="matrix(0.29959652,0,0,0.29959652,-217.60079,946.24507)"
       id="g4235">
      <g
         transform="matrix(2.5502364,0,0,2.5502364,115.61037,213.89339)"
         id="g4237"
         style="font-style:normal;font-weight:normal;font-size:40px;line-height:125%;font-family:sans-serif;letter-spacing:0px;word-spacing:0px;fill:#42290d;fill-opacity:1;stroke:none;stroke-width:1px;stroke-linecap:butt;stroke-linejoin:miter;stroke-opacity:1">
        <g
           transform="translate(301.32214,-340.94806)"
           id="g4239">
          <path
             inkscape:connector-curvature="0"
             id="path4241"
             style="fill:#d8c586;fill-opacity:1"
             d="m -27.005527,341.9378 -31.214185,0 c -0.217564,0 -0.415933,-0.064 -0.595106,-0.19197 -0.166375,-0.12798 -0.300755,-0.28155 -0.403139,-0.46072 -0.102384,-0.17917 -0.153575,-0.37115 -0.153575,-0.57591 0,-0.19198 0.05119,-0.39036 0.153575,-0.59511 l 15.587902,-27.68195 c 0.102384,-0.17917 0.243158,-0.31356 0.422325,-0.40315 0.179172,-0.0896 0.371143,-0.13438 0.57591,-0.13438 0.204767,0 0.396737,0.0448 0.57591,0.13438 0.179172,0.0895 0.319951,0.22398 0.422334,0.40315 l 15.626284,27.68195 c 0.102384,0.20476 0.153575,0.40314 0.153575,0.59511 0,0.20476 -0.05119,0.39674 -0.153575,0.57591 -0.102384,0.17917 -0.243159,0.33274 -0.422325,0.46072 -0.166376,0.12797 -0.358346,0.19197 -0.57591,0.19197 z"
             sodipodi:nodetypes="ssccscccssccsccs" />
          <path
             d="m -26.733715,342.19941 -31.75781,0 q -0.33203,0 -0.60547,-0.19531 -0.25391,-0.19532 -0.41016,-0.46875 -0.15625,-0.27344 -0.15625,-0.58594 0,-0.29297 0.15625,-0.60547 l 15.85938,-28.16406 q 0.15625,-0.27344 0.42968,-0.41016 0.27344,-0.13672 0.58594,-0.13672 0.3125,0 0.58594,0.13672 0.27344,0.13672 0.42969,0.41016 l 15.89843,28.16406 q 0.15625,0.3125 0.15625,0.60547 0,0.3125 -0.15625,0.58594 -0.15625,0.27343 -0.42968,0.46875 -0.25391,0.19531 -0.58594,0.19531 z m -29.72656,-2.5 27.65625,0 -13.82813,-24.49219 -13.82812,24.49219 z m 15.64453,-7.10938 -3.63281,0 0,-10.83984 3.63281,0 0,10.83984 z m 0.54687,3.55469 q 0,0.50781 -0.19531,0.9375 -0.17578,0.42969 -0.50781,0.76172 -0.3125,0.3125 -0.74219,0.50781 -0.42969,0.17578 -0.91797,0.17578 -0.48828,0 -0.91797,-0.17578 -0.42968,-0.19531 -0.74218,-0.50781 -0.3125,-0.33203 -0.48829,-0.76172 -0.17578,-0.42969 -0.17578,-0.9375 0,-0.48828 0.17578,-0.9375 0.17579,-0.44922 0.48829,-0.76172 0.3125,-0.33203 0.74218,-0.52734 0.42969,-0.19531 0.91797,-0.19531 0.48828,0 0.91797,0.19531 0.42969,0.19531 0.74219,0.52734 0.33203,0.3125 0.50781,0.76172 0.19531,0.44922 0.19531,0.9375 z"
             style="fill:#42290d;fill-opacity:1"
             id="path4243"
             inkscape:connector-curvature="0" />
        </g>
      </g>
      <text
         transform="scale(0.99918447,1.0008162)"
         sodipodi:linespacing="125%"
         id="text4245"
         y="205.49388"
         x="812.49805"
         style="font-style:normal;font-weight:normal;font-size:100.95265961px;line-height:125%;font-family:sans-serif;letter-spacing:0px;word-spacing:0px;fill:#d8c586;fill-opacity:1;stroke:none;stroke-width:1px;stroke-linecap:butt;stroke-linejoin:miter;stroke-opacity:1"
         xml:space="preserve"><tspan
           y="205.49388"
           x="812.49805"
           id="tspan4247"
           sodipodi:role="line">:</tspan></text>
    </g>
    <path
       transform="matrix(1.4913912,0,0,1.4942669,-553.19495,-666.13627)"
       sodipodi:type="star"
       style="font-style:normal;font-weight:normal;font-size:medium;line-height:125%;font-family:sans-serif;letter-spacing:0px;word-spacing:0px;fill:#d8c586;fill-opacity:1;stroke:none;stroke-width:0.09605665;stroke-linecap:butt;stroke-linejoin:round;stroke-miterlimit:4;stroke-dasharray:none;stroke-dashoffset:0;stroke-opacity:1"
       id="path4249"
       sodipodi:sides="6"
       sodipodi:cx="407.40814"
       sodipodi:cy="1113.0243"
       sodipodi:r1="11.162703"
       sodipodi:r2="9.6671848"
       sodipodi:arg1="-1.0471976"
       sodipodi:arg2="-0.52359878"
       inkscape:flatsided="true"
       inkscape:rounded="0"
       inkscape:randomized="0"
       d="m 412.98949,1103.3571 5.58135,9.6672 -5.58135,9.6672 -11.1627,0 -5.58135,-9.6672 5.58135,-9.6672 z" />
    <path
       style="fill:#42290d;fill-opacity:1;stroke:none;stroke-width:0.99999994;stroke-opacity:1"
       inkscape:connector-curvature="0"
       d="m 46.074358,990.00534 c -0.730863,0 -1.256505,0.38722 -1.560096,0.87346 -0.271524,0.4349 -0.384444,0.93931 -0.40649,1.38108 -0.828547,0.41017 -1.746402,0.82368 -2.485393,1.24641 -0.387656,0.22182 -0.72562,0.44489 -0.980012,0.68457 -0.254393,0.23969 -0.442099,0.50964 -0.442099,0.82806 0,0.13545 0.06608,0.24592 0.140485,0.32691 0.07457,0.0811 0.163875,0.14396 0.265621,0.2027 0.20341,0.1175 0.459889,0.2155 0.74201,0.30016 0.419147,0.12592 0.888507,0.21955 1.296645,0.25958 -0.405914,0.70025 -0.946189,1.34347 -1.419723,1.95977 -0.547248,0.71219 -1.025038,1.39527 -1.025038,2.15406 0,0.1084 -0.0027,0.193 0.0082,0.2781 0.0099,0.085 0.03396,0.1911 0.119372,0.2751 0.08541,0.084 0.189929,0.1068 0.275093,0.1161 0.08519,0.01 0.170958,0.01 0.280996,0.01 l 3.019408,0 c 0.219196,0 0.379694,0.013 0.544778,-0.093 0.16511,-0.1062 0.225345,-0.2513 0.342987,-0.4682 l 0.0027,-0.01 0.0027,-0.01 c 0,0 0.263178,-0.53574 0.577229,-1.06738 0.157012,-0.26583 0.327449,-0.53056 0.47573,-0.71813 0.07418,-0.0938 0.143559,-0.16814 0.193526,-0.21011 0.01537,-0.0125 0.02224,-0.0148 0.03204,-0.0203 0.0099,0.008 0.01675,0.008 0.03204,0.0203 0.04997,0.0421 0.119372,0.11633 0.193526,0.21011 0.148281,0.18757 0.318746,0.4523 0.47573,0.71813 0.314024,0.53164 0.577229,1.06738 0.577229,1.06738 l 0.0027,0.01 0.0027,0.01 c 0.117642,0.2169 0.1773,0.3611 0.34134,0.4676 0.163986,0.1065 0.324127,0.093 0.540221,0.093 l 3.032723,0 c 0.108253,0 0.192703,0 0.27729,-0.01 0.08453,-0.01 0.189435,-0.033 0.27394,-0.1173 0.08448,-0.085 0.107841,-0.1897 0.11723,-0.2743 0.0096,-0.085 0.0082,-0.1692 0.0082,-0.2776 0,-0.7588 -0.477789,-1.44189 -1.025066,-2.15416 -0.473561,-0.61622 -1.013754,-1.25944 -1.419722,-1.95969 0.408165,-0.0398 0.877525,-0.13365 1.296644,-0.25951 0.282122,-0.0847 0.538601,-0.18264 0.742011,-0.30015 0.101746,-0.0585 0.191082,-0.12171 0.265566,-0.2027 0.07451,-0.0811 0.140567,-0.19147 0.140567,-0.32699 0,-0.31841 -0.187706,-0.5883 -0.442126,-0.82798 -0.254365,-0.23976 -0.592356,-0.46283 -0.980013,-0.68457 -0.738962,-0.42273 -1.656818,-0.83633 -2.485392,-1.24641 -0.02196,-0.44176 -0.135021,-0.94626 -0.40649,-1.38108 -0.303591,-0.48623 -0.829206,-0.87338 -1.560097,-0.87338 z"
       id="path4251" />
    <path
       id="path14957"
       d="m 62.266866,995.70943 c -0.802068,0.10871 -1.822182,0.18327 -3.10892,0.22707 -0.81644,0.0281 -1.732094,0.0413 -2.722053,0.0413 -1.246463,0 -2.357281,-0.0225 -3.044836,-0.0385 a 7.3129482,7.3124714 0 0 0 0.311872,2.0502 c 0.78567,2.62379 2.848574,4.39919 4.901735,4.39919 a 3.4691738,3.4689477 0 0 0 0.997988,-0.1458 c 2.277725,-0.6818 3.437293,-3.57256 2.664214,-6.53413 z m -5.690148,3.05827 -0.47582,-0.28907 -0.210259,0.36898 -0.551602,-0.31542 0.219728,-0.38286 -0.490606,-0.29788 0.330124,-0.54315 0.475854,0.28907 0.210294,-0.36898 0.551567,0.31542 -0.219728,0.38295 0.490572,0.29789 z m 3.444703,-0.90472 -0.475889,-0.28906 -0.210259,0.36897 -0.551567,-0.31532 0.21863,-0.38446 -0.490572,-0.2975 0.331154,-0.54343 0.475854,0.28906 0.210293,-0.36888 0.551534,0.31533 -0.219728,0.38295 0.49064,0.29788 z m 4.267731,-7.96351 0.770951,0.64233 0.852223,-0.5284 -0.372869,0.93102 0.766046,0.64714 -1.000457,-0.0669 -0.379867,0.92852 -0.245251,-0.97233 -1.000148,-0.0736 0.847007,-0.53363 z m -0.0079,-2.76253 0.07291,0.62656 0.617433,0.12857 -0.573316,0.26275 0.07012,0.6269 -0.42786,-0.46395 -0.575033,0.25897 0.309061,-0.54906 -0.424018,-0.46714 0.618496,0.12442 z m -12.372313,-0.0158 0.645839,0.76632 0.931742,-0.37071 -0.530159,0.8522 0.640554,0.77084 -0.973491,-0.24072 -0.53685,0.84762 -0.07005,-1.00001 -0.972086,-0.24776 0.929307,-0.37705 z m 12.372313,7.19401 c -0.159762,0.44369 -0.895653,0.91631 -5.141394,1.06065 -0.906871,0.0309 -1.838648,0.0413 -2.703117,0.0413 -1.468626,0 -4.247112,-0.0422 -4.247112,-0.0422 l 0,-0.56059 c 0,0 2.784798,0.0422 4.24742,0.0422 0.845945,0 1.756315,-0.0103 2.643254,-0.0403 1.358574,-0.045 2.450491,-0.12932 3.245593,-0.24915 1.193872,-0.18045 1.395042,-0.39349 1.42379,-0.43589 -0.0083,-0.0203 -0.04278,-0.0824 -0.170328,-0.18326 -0.355339,-0.28032 -0.999737,-0.56066 -1.86774,-0.82135 a 7.0928831,7.092421 0 0 0 -0.580281,-0.74351 c 0.07005,0.0175 0.140139,0.0352 0.206041,0.0537 1.232431,0.32796 2.102527,0.68818 2.588913,1.07075 0.228132,0.18155 0.475889,0.4682 0.354961,0.80732 z m -10.681214,-0.0529 c 0.05259,-0.25685 0.309848,-0.92859 0.434892,-1.11848 1.974636,0.13524 5.28613,-0.55087 6.180755,-0.88161 0.532939,0.46429 1.146187,1.25582 1.423069,1.82873 -2.008256,0.22848 -5.586785,0.23304 -8.039711,0.1717 z m 0.679835,-2.526 c -0.353246,-0.0213 -1.181933,-0.0726 -1.494527,0.0701 0.415922,0.39277 2.628125,0.43655 4.493462,0.17235 1.999473,-0.28308 3.854623,-0.75193 4.943382,-1.49376 0.453452,-0.30903 0.693112,-0.7607 0.649682,-0.96111 -0.220792,-1.02176 -6.101508,-1.38269 -6.101508,-1.38269 0,0 6.247615,0.12926 6.293893,1.38231 0.04975,1.34413 -2.878384,2.37574 -5.69224,2.81479 -2.672653,0.41698 -5.234979,0.44603 -5.102147,-0.65631 0.07709,-0.64052 1.79868,-0.52107 2.543697,-0.43627 -0.147892,0.10196 -0.418735,0.37002 -0.534723,0.49088 z m 2.659,-0.67037 a 3.7242812,3.7240384 0 0 1 1.492127,0.16116 c -0.446111,0.10938 -2.04263,0.32629 -2.984218,0.35044 0.743232,-0.45307 1.359294,-0.49544 1.491062,-0.51126 z"
       style="fill:#42290d;fill-opacity:1"
       inkscape:connector-curvature="0" />
  </g>
</svg>
