<?xml version="1.0" encoding="UTF-8" standalone="no"?>
<!-- Created with Inkscape (http://www.inkscape.org/) -->

<svg
   xmlns:dc="http://purl.org/dc/elements/1.1/"
   xmlns:cc="http://creativecommons.org/ns#"
   xmlns:rdf="http://www.w3.org/1999/02/22-rdf-syntax-ns#"
   xmlns:svg="http://www.w3.org/2000/svg"
   xmlns="http://www.w3.org/2000/svg"
   xmlns:sodipodi="http://sodipodi.sourceforge.net/DTD/sodipodi-0.dtd"
   xmlns:inkscape="http://www.inkscape.org/namespaces/inkscape"
   width="450"
   height="325"
   viewBox="0 0 450.00001 325"
   id="svg5199"
   version="1.1"
   inkscape:version="0.91 r13725"
   sodipodi:docname="figure_alerts_adj_camera_guard.svg">
  <defs
     id="defs5201" />
  <sodipodi:namedview
     id="base"
     pagecolor="#ffffff"
     bordercolor="#666666"
     borderopacity="1.0"
     inkscape:pageopacity="0.0"
     inkscape:pageshadow="2"
     inkscape:zoom="0.9899495"
     inkscape:cx="311.37046"
     inkscape:cy="65.343448"
     inkscape:document-units="px"
     inkscape:current-layer="layer1"
     showgrid="false"
     units="px"
     borderlayer="true"
     inkscape:window-width="1920"
     inkscape:window-height="1017"
     inkscape:window-x="-8"
     inkscape:window-y="-8"
     inkscape:window-maximized="1" />
  <metadata
     id="metadata5204">
    <rdf:RDF>
      <cc:Work
         rdf:about="">
        <dc:format>image/svg+xml</dc:format>
        <dc:type
           rdf:resource="http://purl.org/dc/dcmitype/StillImage" />
        <dc:title></dc:title>
      </cc:Work>
    </rdf:RDF>
  </metadata>
  <g
     inkscape:label="Layer 1"
     inkscape:groupmode="layer"
     id="layer1"
     transform="translate(0,-727.36216)">
    <path
       transform="matrix(4.8024859,0,0,4.8060203,-1635.3666,-4513.384)"
       d="m 395.48223,1093.1241 5.58135,9.6672 -5.58135,9.6671 -11.1627,0 -5.58135,-9.6671 5.58135,-9.6672 z"
       inkscape:randomized="0"
       inkscape:rounded="0"
       inkscape:flatsided="true"
       sodipodi:arg2="-0.52359878"
       sodipodi:arg1="-1.0471976"
       sodipodi:r2="9.6671848"
       sodipodi:r1="11.162703"
       sodipodi:cy="1102.7913"
       sodipodi:cx="389.90088"
       sodipodi:sides="6"
       id="path5084"
       style="font-style:normal;font-weight:normal;font-size:medium;line-height:125%;font-family:sans-serif;letter-spacing:0px;word-spacing:0px;fill:#b3b3b3;fill-opacity:1;stroke:#000000;stroke-width:0.84378105;stroke-linecap:butt;stroke-linejoin:round;stroke-miterlimit:4;stroke-dasharray:none;stroke-dashoffset:0;stroke-opacity:1"
       sodipodi:type="star" />
    <path
       id="path5086"
       d="m 321.69428,804.07386 c -3.67386,0 -6.31609,1.94513 -7.84212,4.38869 -1.36478,2.18489 -1.93259,4.71951 -2.04335,6.93963 -4.16476,2.06033 -8.77853,4.13824 -12.49313,6.26251 -1.94859,1.11458 -3.64742,2.23521 -4.92618,3.43958 -1.27876,1.20438 -2.22228,2.56087 -2.22228,4.16055 0,0.68103 0.33258,1.23573 0.70622,1.64303 0.37511,0.40819 0.82377,0.72361 1.33508,1.0188 1.02258,0.58995 2.31178,1.08192 3.72996,1.50815 2.10678,0.63248 4.46621,1.10298 6.51773,1.30363 -2.04052,3.51905 -4.75607,6.75063 -7.13646,9.84687 -2.7509,3.57917 -5.15253,7.01142 -5.15253,10.82431 0,0.54444 -0.0132,0.96977 0.0434,1.3973 0.0481,0.42972 0.17101,0.95988 0.60004,1.38277 0.42923,0.42102 0.95478,0.53623 1.38282,0.5826 0.42796,0.047 0.8593,0.047 1.41246,0.047 l 15.17744,0 c 1.10172,0 1.90848,0.0689 2.7384,-0.46627 0.83,-0.53363 1.13266,-1.26276 1.72399,-2.35243 l 0.0131,0 0.0132,-0.0473 c 0,0 1.32298,-2.69191 2.9015,-5.36363 0.78918,-1.33499 1.64603,-2.66526 2.39131,-3.60754 0.3734,-0.47136 0.72172,-0.84517 0.97288,-1.05615 0.0769,-0.0602 0.11212,-0.0774 0.16112,-0.10746 0.0494,0.0473 0.0842,0.0473 0.16114,0.10746 0.25093,0.21054 0.60008,0.58437 0.97286,1.05615 0.74527,0.94228 1.60207,2.27255 2.39131,3.60754 1.57836,2.67172 2.90151,5.36363 2.90151,5.36363 l 0.0132,0.0473 0.0131,0 c 0.59135,1.08967 0.89123,1.8145 1.71577,2.34944 0.82433,0.53493 1.62938,0.47137 2.71558,0.47137 l 15.24427,0 c 0.54426,0 0.96879,0 1.39386,-0.047 0.42495,-0.047 0.95224,-0.16321 1.37711,-0.5903 0.42452,-0.4297 0.54207,-0.95261 0.58912,-1.37801 0.0481,-0.42108 0.043,-0.84989 0.043,-1.39513 0,-3.81251 -2.40163,-7.24432 -5.15258,-10.82352 -2.38021,-3.09665 -5.09576,-6.32823 -7.13642,-9.84727 2.05158,-0.20196 4.41101,-0.67116 6.51773,-1.30364 1.41815,-0.42967 2.70739,-0.91778 3.72994,-1.50815 0.51133,-0.29219 0.96039,-0.61143 1.33486,-1.01832 0.37468,-0.4082 0.70647,-0.96248 0.70647,-1.64351 0,-1.59968 -0.94352,-2.95574 -2.22223,-4.16055 -1.27884,-1.20393 -2.97765,-2.32496 -4.92614,-3.43953 -3.71471,-2.12433 -8.32842,-4.2018 -12.49325,-6.26252 -0.11081,-2.22012 -0.67867,-4.75478 -2.04332,-6.93967 -1.52604,-2.44356 -4.16823,-4.38869 -7.84213,-4.38869 z"
       inkscape:connector-curvature="0"
       style="fill:#ffffff;stroke:none;stroke-opacity:1" />
    <path
       d="m 412.98949,1103.3571 5.58135,9.6672 -5.58135,9.6672 -11.1627,0 -5.58135,-9.6672 5.58135,-9.6672 z"
       inkscape:randomized="0"
       inkscape:rounded="0"
       inkscape:flatsided="true"
       sodipodi:arg2="-0.52359878"
       sodipodi:arg1="-1.0471976"
       sodipodi:r2="9.6671848"
       sodipodi:r1="11.162703"
       sodipodi:cy="1113.0243"
       sodipodi:cx="407.40814"
       sodipodi:sides="6"
       id="path5092"
       style="font-style:normal;font-weight:normal;font-size:medium;line-height:125%;font-family:sans-serif;letter-spacing:0px;word-spacing:0px;fill:#b3b3b3;fill-opacity:1;stroke:#000000;stroke-width:0.84378105;stroke-linecap:butt;stroke-linejoin:round;stroke-miterlimit:4;stroke-dasharray:none;stroke-dashoffset:0;stroke-opacity:1"
       sodipodi:type="star"
       transform="matrix(4.8024859,0,0,4.8060203,-1634.5311,-4511.7295)" />
    <path
       style="fill:#4d4d4d;fill-opacity:1;stroke:none;stroke-opacity:1"
       inkscape:connector-curvature="0"
       d="m 237.55036,761.34412 c -3.18991,0 -5.4841,1.68891 -6.80911,3.8106 -1.18501,1.89708 -1.67803,4.09783 -1.7742,6.02551 -3.61616,1.78894 -7.62218,3.59312 -10.84748,5.43759 -1.6919,0.96775 -3.16697,1.94077 -4.27728,2.9865 -1.1103,1.04573 -1.92954,2.22353 -1.92954,3.6125 0,0.59131 0.28876,1.07295 0.61319,1.42659 0.32569,0.35443 0.71525,0.62831 1.15922,0.88461 0.88787,0.51224 2.00725,0.9394 3.23862,1.30949 1.82927,0.54916 3.87791,0.95769 5.65919,1.13191 -1.77174,3.0555 -4.12957,5.8614 -6.19641,8.54979 -2.38855,3.10771 -4.47381,6.08784 -4.47381,9.39848 0,0.47273 -0.0114,0.84203 0.0376,1.21325 0.0419,0.37311 0.14848,0.83344 0.521,1.20062 0.37269,0.36557 0.82901,0.46559 1.20067,0.50586 0.37159,0.0409 0.74611,0.0409 1.22641,0.0409 l 13.17819,0 c 0.9566,0 1.65709,0.0598 2.37768,-0.40484 0.72067,-0.46335 0.98347,-1.09644 1.49691,-2.04256 l 0.0114,0 0.0114,-0.0411 c 0,0 1.14871,-2.33731 2.51931,-4.6571 0.68522,-1.15915 1.4292,-2.31417 2.0763,-3.13233 0.32422,-0.40928 0.62666,-0.73385 0.84473,-0.91703 0.0667,-0.0522 0.0974,-0.0671 0.1399,-0.0933 0.0429,0.0411 0.0731,0.0411 0.1399,0.0933 0.21788,0.18281 0.52105,0.50739 0.84472,0.91703 0.6471,0.81816 1.39105,1.97318 2.07632,3.13233 1.37046,2.31979 2.51931,4.6571 2.51931,4.6571 l 0.0114,0.0411 0.0114,0 c 0.51346,0.94612 0.77384,1.57549 1.48976,2.03995 0.71575,0.46447 1.41475,0.40928 2.35788,0.40928 l 13.23622,0 c 0.47257,0 0.84117,0 1.21025,-0.0409 0.36898,-0.0409 0.82681,-0.14171 1.19572,-0.51255 0.36858,-0.3731 0.47066,-0.82713 0.51152,-1.19648 0.0419,-0.36562 0.0373,-0.73795 0.0373,-1.21136 0,-3.31031 -2.08527,-6.29007 -4.47386,-9.3978 -2.06669,-2.68875 -4.42452,-5.49465 -6.19638,-8.55015 1.78134,-0.17535 3.82997,-0.58275 5.65919,-1.13191 1.23134,-0.37307 2.35076,-0.79689 3.23861,-1.30949 0.44398,-0.2537 0.83389,-0.53089 1.15903,-0.88418 0.32532,-0.35443 0.61341,-0.8357 0.61341,-1.42702 0,-1.38896 -0.81925,-2.5664 -1.92951,-3.6125 -1.11038,-1.04535 -2.58543,-2.01871 -4.27724,-2.98647 -3.2254,-1.8445 -7.23137,-3.64832 -10.84759,-5.43759 -0.0962,-1.92767 -0.58927,-4.12846 -1.77415,-6.02554 -1.32503,-2.12169 -3.61919,-3.81059 -6.80914,-3.81059 z"
       id="path5096" />
    <g
       id="g4169"
       transform="matrix(2.1646483,0,0,2.1646483,88.955596,-1191.8165)">
      <circle
         style="fill:#000000;stroke:none;stroke-width:3;stroke-miterlimit:4;stroke-dasharray:none;stroke-opacity:1"
         id="circle4163"
         cx="107.85714"
         cy="938.52289"
         r="11.785715" />
      <path
         d="m 103.20329,931.43859 c -0.46011,-1.8e-4 -0.94423,0.0673 -1.45363,0.21613 a 0.2949311,0.29616666 0 0 0 -0.004,0 0.2949311,0.29616666 0 0 0 -0.0154,0 0.2949311,0.29616666 0 0 0 -0.0121,0 0.2949311,0.29616666 0 0 0 -0.0146,0.0101 0.2949311,0.29616666 0 0 0 -0.0118,0.0112 0.2949311,0.29616666 0 0 0 -0.0143,0.0112 0.2949311,0.29616666 0 0 0 -0.0106,0.0101 0.2949311,0.29616666 0 0 0 -0.0135,0.0111 0.2949311,0.29616666 0 0 0 -0.009,0.0101 0.2949311,0.29616666 0 0 0 -0.0123,0.0112 0.2949311,0.29616666 0 0 0 -0.009,0.0112 0.2949311,0.29616666 0 0 0 -0.0115,0.0132 0.2949311,0.29616666 0 0 0 -0.007,0.0101 0.2949311,0.29616666 0 0 0 -0.0106,0.0155 0.2949311,0.29616666 0 0 0 -0.006,0.0112 0.2949311,0.29616666 0 0 0 -0.008,0.0152 0.2949311,0.29616666 0 0 0 -0.006,0.0111 0.2949311,0.29616666 0 0 0 -0.007,0.0152 0.2949311,0.29616666 0 0 0 -0.006,0.0122 0.2949311,0.29616666 0 0 0 -0.005,0.0162 0.2949311,0.29616666 0 0 0 -0.004,0.0122 0.2949311,0.29616666 0 0 0 -0.006,0.0215 l -0.69516,3.49037 a 0.2949311,0.29616666 0 0 0 0.17463,0.3308 l 2.54644,1.0781 0.98165,5.0546 -3.61785,0.7892 a 0.2949311,0.29616666 0 0 0 -0.23283,0.2853 l -0.033,2.3841 a 0.2949311,0.29616666 0 0 0 0.38419,0.2863 l 4.54717,-1.4594 0.74889,-0.1458 c 0.005,0 0.0109,0 0.0165,0 0.3091,0 0.60018,-0.1478 0.80346,-0.3887 0.20313,-0.2407 0.3094,-0.5546 0.3091,-0.8779 l 0,0 c 1.5e-4,-0.205 -0.0427,-0.4066 -0.12558,-0.5879 l -0.78461,-4.0705 3.9047,1.6529 a 0.2949311,0.29616666 0 0 0 0.006,0 0.2949311,0.29616666 0 0 0 0.0169,0.01 0.2949311,0.29616666 0 0 0 0.0109,0 0.2949311,0.29616666 0 0 0 0.0169,0 0.2949311,0.29616666 0 0 0 0.013,0 0.2949311,0.29616666 0 0 0 0.015,0 0.2949311,0.29616666 0 0 0 0.015,0 0.2949311,0.29616666 0 0 0 0.0134,0 0.2949311,0.29616666 0 0 0 0.0167,2e-4 0.2949311,0.29616666 0 0 0 0.0113,0 l 2.58937,-0.1646 a 0.2949311,0.29616666 0 0 0 0.24744,-0.1695 l 1.56847,-3.3343 2.6e-4,0 a 0.2949311,0.29616666 0 0 0 0,-10e-5 0.2949311,0.29616666 0 0 0 7.6e-4,0 0.2949311,0.29616666 0 0 0 -0.17105,-0.4095 c -0.24176,-0.1333 -0.49059,-0.2264 -0.74374,-0.2852 l -9.55812,-3.7246 a 0.2949311,0.29616666 0 0 0 -0.0249,-0.0101 c -0.41343,-0.11966 -0.84953,-0.18726 -1.30966,-0.18744 z m -0.81796,0.42772 a 0.2949311,0.29616666 0 0 1 0.11446,0.0226 l 9.02644,3.63288 a 0.29517945,0.29641608 0 0 1 0.17913,0.33641 0.2949311,0.29616666 0 0 0 -0.022,0.046 l -0.026,0.064 a 0.29517945,0.29641608 0 0 1 -0.3505,0.1035 l -9.02642,-3.63384 a 0.2949311,0.29616666 0 0 1 0.1048,-0.57175 z m 11.09276,4.00198 c 0.1366,0 0.27163,0.016 0.4057,0.044 l 0.45761,0.1783 -0.73485,1.56231 c 0.0283,-0.1264 0.0428,-0.252 0.0416,-0.3695 -0.003,-0.2722 -0.0913,-0.4973 -0.24354,-0.60991 -0.1523,-0.1127 -0.36288,-0.1086 -0.57048,0.011 -0.0512,0.029 -0.10256,0.064 -0.1523,0.1057 0.019,-0.025 0.0371,-0.053 0.0524,-0.084 0.0439,-0.087 0.0699,-0.1856 0.0688,-0.2738 -7.6e-4,-0.089 -0.0293,-0.1635 -0.0796,-0.2016 -0.0251,-0.019 -0.054,-0.029 -0.0854,-0.028 -0.0314,0 -0.0653,0.01 -0.098,0.029 -0.0655,0.038 -0.12666,0.1098 -0.17075,0.1959 -0.0439,0.087 -0.0699,0.1854 -0.0688,0.2737 7.6e-4,0.089 0.0294,0.1635 0.0795,0.2018 0.0501,0.039 0.11791,0.037 0.18335,0 -0.10606,0.1111 -0.20321,0.24621 -0.28226,0.39661 -0.14306,0.2716 -0.22434,0.5859 -0.22119,0.8582 0.003,0.2722 0.0931,0.49829 0.24543,0.6108 0.15225,0.1127 0.36088,0.1075 0.56845,-0.011 0.1297,-0.072 0.25737,-0.1876 0.36975,-0.3299 l -0.26109,0.555 -1.9481,0.1246 1.15654,-2.8803 c 0.45434,-0.2414 0.8777,-0.3589 1.28722,-0.35531 z m -9.25395,1.18911 0.49716,0.2106 0.92304,4.35069 c -0.0933,-0.028 -0.19071,-0.044 -0.29002,-0.044 -0.0846,0 -0.16765,0.011 -0.24799,0.032 l -0.88219,-4.5495 z m 1.15963,0.491 0.52831,0.2237 0.71404,3.7045 c -0.0848,-0.024 -0.17273,-0.036 -0.26224,-0.036 -0.0509,0 -0.10144,0 -0.15104,0.012 l -0.82903,-3.9044 z m 0.98008,4.48659 c 0.11993,0 0.25638,0.062 0.35615,0.1799 0.0998,0.1183 0.16868,0.3083 0.1684,0.4925 2.5e-4,0.1841 -0.0686,0.3741 -0.16837,0.4925 -0.0474,0.056 -0.10299,0.099 -0.16106,0.1291 l -0.19071,0.038 c 0.0653,-0.1646 0.0988,-0.343 0.0986,-0.5247 l 0,0 c 1.4e-4,-0.1177 -0.014,-0.2342 -0.0417,-0.3464 a 0.2949311,0.29616666 0 0 0 -0.006,-0.07 l -0.0825,-0.3884 c 0.008,0 0.0181,0 0.027,0 z m -1.00953,0.134 c 0.11995,0 0.25643,0.062 0.35625,0.18 0.0998,0.1183 0.16858,0.3085 0.16832,0.4925 2.6e-4,0.1841 -0.0686,0.3742 -0.16835,0.4925 -0.0998,0.1184 -0.23627,0.18 -0.35625,0.18 -0.11993,0 -0.25561,-0.062 -0.35539,-0.18 -0.0998,-0.1183 -0.16943,-0.3084 -0.16919,-0.4925 -2.5e-4,-0.184 0.0695,-0.3742 0.16919,-0.4925 0.0998,-0.1183 0.23546,-0.18 0.35539,-0.18 z m -1.07095,0.3302 c -0.027,0.111 -0.0408,0.2261 -0.0407,0.3423 l 0,0 c -2.5e-4,0.32331 0.10587,0.63721 0.309,0.8779 0.0261,0.031 0.0534,0.06 0.0821,0.088 l -3.37107,1.082 0.0243,-1.7372 2.9963,-0.6536 z"
         id="path5110"
         inkscape:connector-curvature="0"
         style="fill:#ffffff;fill-opacity:1;stroke-linecap:round;stroke-linejoin:round" />
    </g>
    <path
       inkscape:connector-curvature="0"
       id="path14021"
       style="font-style:normal;font-weight:normal;font-size:medium;line-height:125%;font-family:sans-serif;letter-spacing:0px;word-spacing:0px;fill:#000000;fill-opacity:1;stroke:none;stroke-width:1px;stroke-linecap:butt;stroke-linejoin:miter;stroke-opacity:1"
       d="m 139.94274,826.55754 -77.030496,0 q -0.805352,0 -1.468595,-0.47296 -0.615883,-0.47295 -0.994872,-1.13508 -0.379001,-0.66212 -0.379001,-1.41886 0,-0.70947 0.379001,-1.46618 l 38.467898,-68.20042 q 0.378986,-0.66213 1.042204,-0.99319 0.663241,-0.33124 1.421231,-0.33124 0.75799,0 1.42124,0.33124 0.66324,0.33122 1.04224,0.99319 l 38.56259,68.20042 q 0.37901,0.75671 0.37901,1.46618 0,0.75674 -0.37901,1.41886 -0.37898,0.66213 -1.04221,1.13508 -0.61587,0.47296 -1.42123,0.47296 z m -72.103575,-6.05382 67.081915,0 -33.54097,-59.30887 -33.540945,59.30887 z m 37.946755,-17.21568 -8.811592,0 0,-26.2491 8.811592,0 0,26.2491 z m 1.32648,8.60785 q 0,1.22967 -0.47374,2.27018 -0.42638,1.04052 -1.23172,1.84456 -0.758,0.75673 -1.80023,1.22966 -1.04225,0.42566 -2.2266,0.42566 -1.18436,0 -2.22659,-0.42566 -1.042214,-0.47293 -1.800206,-1.22966 -0.757993,-0.80404 -1.184365,-1.84456 -0.426374,-1.04051 -0.426374,-2.27018 0,-1.18239 0.426374,-2.2702 0.426372,-1.08783 1.184365,-1.84456 0.757992,-0.80401 1.800206,-1.27695 1.04223,-0.47295 2.22659,-0.47295 1.18435,0 2.2266,0.47295 1.04223,0.47294 1.80023,1.27695 0.80534,0.75673 1.23172,1.84456 0.47374,1.08781 0.47374,2.2702 z" />
    <text
       xml:space="preserve"
       style="font-style:normal;font-weight:normal;font-size:95.93769073px;line-height:125%;font-family:sans-serif;letter-spacing:0px;word-spacing:0px;fill:#000000;fill-opacity:1;stroke:none;stroke-width:1px;stroke-linecap:butt;stroke-linejoin:miter;stroke-opacity:1"
       x="143.28111"
       y="815.72211"
       id="text14023"
       sodipodi:linespacing="125%"
       transform="scale(1.0000136,0.99998641)"><tspan
         sodipodi:role="line"
         id="tspan14025"
         x="143.28111"
         y="815.72211">:</tspan></text>
    <path
       transform="matrix(4.8296034,0,0,4.8331578,-1651.5994,-4386.3335)"
       d="m 395.48223,1093.1241 5.58135,9.6672 -5.58135,9.6671 -11.1627,0 -5.58135,-9.6671 5.58135,-9.6672 z"
       inkscape:randomized="0"
       inkscape:rounded="0"
       inkscape:flatsided="true"
       sodipodi:arg2="-0.52359878"
       sodipodi:arg1="-1.0471976"
       sodipodi:r2="9.6671848"
       sodipodi:r1="11.162703"
       sodipodi:cy="1102.7913"
       sodipodi:cx="389.90088"
       sodipodi:sides="6"
       id="path5084-7"
       style="font-style:normal;font-weight:normal;font-size:medium;line-height:125%;font-family:sans-serif;letter-spacing:0px;word-spacing:0px;fill:#b3b3b3;fill-opacity:1;stroke:#000000;stroke-width:0.84378105;stroke-linecap:butt;stroke-linejoin:round;stroke-miterlimit:4;stroke-dasharray:none;stroke-dashoffset:0;stroke-opacity:1"
       sodipodi:type="star" />
    <path
       id="path5086-9"
       d="m 316.51198,961.14964 c -3.6946,0 -6.35176,1.9561 -7.8864,4.41353 -1.37248,2.19722 -1.94351,4.74618 -2.05489,6.97876 -4.18828,2.072 -8.82811,4.16157 -12.56368,6.29793 -1.95959,1.12083 -3.66802,2.24787 -4.95399,3.45902 -1.28598,1.21115 -2.23483,2.5753 -2.23483,4.18398 0,0.68484 0.33445,1.24272 0.7102,1.65237 0.37723,0.4104 0.82842,0.72769 1.34263,1.02453 1.02834,0.59324 2.32482,1.08805 3.75102,1.51663 2.11867,0.63608 4.49142,1.10917 6.55453,1.311 -2.05205,3.53889 -4.78292,6.78874 -7.17676,9.90251 -2.76644,3.5993 -5.18162,7.0509 -5.18162,10.8854 0,0.5475 -0.0132,0.9752 0.0436,1.4052 0.0485,0.4322 0.17197,0.9653 0.60343,1.3905 0.43165,0.4235 0.96017,0.5393 1.39062,0.5859 0.43038,0.047 0.86415,0.047 1.42044,0.047 l 15.26315,0 c 1.10794,0 1.91926,0.069 2.75386,-0.469 0.83469,-0.5366 1.13906,-1.2699 1.73372,-2.3657 l 0.0132,0 0.0132,-0.047 c 0,0 1.33045,-2.7071 2.91789,-5.3939 0.79363,-1.3426 1.65532,-2.6803 2.4048,-3.628 0.37551,-0.474 0.7258,-0.8499 0.97837,-1.0621 0.0773,-0.06 0.11276,-0.077 0.16204,-0.108 0.0497,0.047 0.0846,0.047 0.16204,0.108 0.25235,0.2117 0.60347,0.5877 0.97836,1.0621 0.74948,0.9477 1.61112,2.2854 2.40481,3.628 1.58727,2.6868 2.91789,5.3939 2.91789,5.3939 l 0.0132,0.047 0.0132,0 c 0.5947,1.0958 0.89627,1.8248 1.72547,2.3628 0.82898,0.5379 1.63857,0.474 2.73091,0.474 l 15.33035,0 c 0.54732,0 0.97425,0 1.40172,-0.047 0.42736,-0.047 0.95763,-0.1642 1.38489,-0.5937 0.42691,-0.4321 0.54513,-0.958 0.59245,-1.3858 0.0485,-0.4235 0.0432,-0.8547 0.0432,-1.403 0,-3.8339 -2.41519,-7.2852 -5.18168,-10.8846 -2.39366,-3.11413 -5.12453,-6.36398 -7.17671,-9.90294 2.06315,-0.20297 4.43591,-0.67492 6.55453,-1.31093 1.42615,-0.43213 2.72268,-0.92294 3.751,-1.5167 0.51422,-0.29382 0.96581,-0.61481 1.3424,-1.02401 0.37679,-0.41055 0.71046,-0.96798 0.71046,-1.65282 0,-1.60876 -0.94885,-2.97245 -2.23478,-4.18406 -1.28606,-1.21069 -2.99447,-2.33811 -4.95395,-3.45894 -3.73569,-2.13628 -8.37545,-4.22555 -12.5638,-6.29786 -0.11144,-2.23273 -0.6825,-4.78161 -2.05486,-6.97883 -1.53466,-2.45743 -4.19177,-4.41345 -7.88641,-4.41345 z"
       inkscape:connector-curvature="0"
       style="fill:#ffffff;stroke:none;stroke-opacity:1" />
    <path
       d="m 412.98949,1103.3571 5.58135,9.6672 -5.58135,9.6672 -11.1627,0 -5.58135,-9.6672 5.58135,-9.6672 z"
       inkscape:randomized="0"
       inkscape:rounded="0"
       inkscape:flatsided="true"
       sodipodi:arg2="-0.52359878"
       sodipodi:arg1="-1.0471976"
       sodipodi:r2="9.6671848"
       sodipodi:r1="11.162703"
       sodipodi:cy="1113.0243"
       sodipodi:cx="407.40814"
       sodipodi:sides="6"
       id="path5092-2"
       style="font-style:normal;font-weight:normal;font-size:medium;line-height:125%;font-family:sans-serif;letter-spacing:0px;word-spacing:0px;fill:#b3b3b3;fill-opacity:1;stroke:#000000;stroke-width:0.84378105;stroke-linecap:butt;stroke-linejoin:round;stroke-miterlimit:4;stroke-dasharray:none;stroke-dashoffset:0;stroke-opacity:1"
       sodipodi:type="star"
       transform="matrix(4.8296034,0,0,4.8331578,-1650.7592,-4384.6698)" />
    <path
       style="fill:#4d4d4d;fill-opacity:1;stroke:none;stroke-opacity:1"
       inkscape:connector-curvature="0"
       d="m 231.46362,919.72762 c -3.20793,0 -5.51507,1.69847 -6.84756,3.8321 -1.1917,1.9078 -1.6875,4.121 -1.78422,6.05961 -3.63657,1.79901 -7.66522,3.61331 -10.90874,5.46819 -1.70145,0.97328 -3.18485,1.95179 -4.30143,3.00342 -1.11657,1.05164 -1.94044,2.23614 -1.94044,3.63284 0,0.59468 0.2904,1.07897 0.61665,1.43464 0.32754,0.3565 0.71929,0.63192 1.16577,0.88962 0.89289,0.51511 2.01859,0.94474 3.25691,1.31691 1.8396,0.55221 3.89981,0.96306 5.69115,1.13825 -1.78174,3.07284 -4.1529,5.89449 -6.2314,8.59811 -2.40204,3.12524 -4.49908,6.12222 -4.49908,9.45156 0,0.47536 -0.0115,0.84677 0.0378,1.22008 0.0421,0.3752 0.14932,0.83814 0.52394,1.20744 0.3748,0.36763 0.8337,0.46824 1.20745,0.50867 0.37369,0.0409 0.75032,0.0409 1.23333,0.0409 l 13.25262,0 c 0.962,0 1.66645,0.0606 2.39111,-0.40707 0.72474,-0.46597 0.98902,-1.10266 1.50535,-2.05414 l 0.0115,0 0.0115,-0.0416 c 0,0 1.1552,-2.35053 2.53354,-4.68342 0.68909,-1.16565 1.43728,-2.32721 2.08803,-3.14999 0.32604,-0.41161 0.6302,-0.73798 0.8495,-0.92225 0.0671,-0.0522 0.0979,-0.0674 0.14069,-0.0938 0.0431,0.0416 0.0734,0.0416 0.14069,0.0938 0.21911,0.18389 0.52398,0.51026 0.84949,0.92225 0.65075,0.82278 1.3989,1.98434 2.08804,3.14999 1.3782,2.33289 2.53353,4.68342 2.53353,4.68342 l 0.0115,0.0416 0.0115,0 c 0.51636,0.95148 0.77821,1.58446 1.49817,2.05156 0.71979,0.46704 1.42274,0.41154 2.3712,0.41154 l 13.31095,0 c 0.47524,0 0.84592,0 1.21709,-0.0409 0.37106,-0.0409 0.83147,-0.14255 1.20247,-0.51548 0.37067,-0.3752 0.47332,-0.83179 0.5144,-1.20328 0.0421,-0.36763 0.0375,-0.74207 0.0375,-1.21819 0,-3.32895 -2.09704,-6.32556 -4.49912,-9.45079 -2.07835,-2.70393 -4.44951,-5.52573 -6.23136,-8.59842 1.79138,-0.1764 3.8516,-0.58604 5.69114,-1.1384 1.23829,-0.37512 2.36403,-0.80135 3.2569,-1.31683 0.44648,-0.25521 0.83859,-0.53388 1.16557,-0.88917 0.32716,-0.35643 0.61687,-0.84042 0.61687,-1.43509 0,-1.39678 -0.82386,-2.58091 -1.9404,-3.63292 -1.11665,-1.05118 -2.60002,-2.03006 -4.30139,-3.00334 -3.24361,-1.85481 -7.2722,-3.66888 -10.90884,-5.46827 -0.0968,-1.93854 -0.5926,-4.15173 -1.78417,-6.05953 -1.33252,-2.13371 -3.63962,-3.8321 -6.84758,-3.8321 z"
       id="path5096-9" />
    <g
       id="g4163"
       transform="matrix(0.57804805,0,0,0.57804805,85.228396,458.27957)">
      <circle
         r="45"
         cy="928.07642"
         cx="400.71429"
         id="path4151"
         style="fill:#000000;stroke:none;stroke-width:3;stroke-miterlimit:4;stroke-dasharray:none;stroke-opacity:1" />
      <path
         inkscape:connector-curvature="0"
         style="fill:#ffffff;fill-opacity:1"
         d="m 400.71429,896.83247 c 2.83886,0 4.7227,1.41745 7.24972,2.82167 2.39517,1.33142 5.40596,2.47258 9.65199,1.60564 2.01501,2.01471 4.06221,4.02984 6.24535,5.39477 1.78649,1.11717 3.79413,1.78267 5.79661,1.46791 -0.57456,4.52203 -3.31964,8.94522 -6.18917,11.26062 -7.56742,-2.50856 -15.1538,-3.76346 -22.74019,-3.76346 -7.59333,0 -15.18652,1.25738 -22.7609,3.7705 -2.87253,-2.31334 -5.62208,-6.74108 -6.19708,-11.26766 2.00206,0.31435 4.00999,-0.35158 5.79662,-1.4675 2.18314,-1.36534 4.23006,-3.38047 6.24535,-5.39518 4.2456,0.86694 7.25695,-0.27299 9.65185,-1.60524 2.52742,-1.40504 4.41113,-2.82207 7.24985,-2.82207 z m 0.0149,2.64257 c -2.67865,0 -7.18755,3.62078 -7.18755,3.62078 0,0 2.86859,10.86397 7.18755,10.86397 4.31925,0 7.18795,-10.86397 7.18795,-10.86397 0,0 -4.50931,-3.62078 -7.18795,-3.62078 z m 0,18.56919 c 7.13628,0 14.27297,1.16721 21.42669,3.48055 0.29478,1.82156 -0.20407,3.17531 -1.27708,4.42689 -1.19771,1.3972 -3.20823,2.58344 -5.59112,3.47685 -4.76648,1.78723 -10.94734,2.42006 -14.55863,2.42006 -3.61115,0 -9.79173,-0.63283 -14.55794,-2.42006 -2.3833,-0.89341 -4.39341,-2.07924 -5.59113,-3.47685 -1.07338,-1.25158 -1.57242,-2.60493 -1.27749,-4.42689 7.15374,-2.31334 14.29043,-3.48055 21.42656,-3.48055 z m 23.41689,7.72835 c 1.32767,0.32263 3.64075,1.05141 4.05621,2.29805 1.13596,3.40734 -2.28717,8.62757 -4.87596,11.92075 0.71326,-2.97594 1.09777,-6.14133 1.09777,-9.42295 0,-1.63046 -0.0954,-3.23197 -0.27806,-4.79585 z m -46.83325,0 a 41.349104,41.364178 0 0 0 -0.27798,4.79544 c 0,3.28203 0.3844,6.44742 1.09777,9.42336 -2.58879,-3.29318 -6.01192,-8.51341 -4.87596,-11.92075 0.41534,-1.24664 2.72868,-1.97625 4.05594,-2.29805 z m 44.61372,2.59253 c 0.0409,0.72715 0.0641,1.46131 0.0641,2.20291 0,8.02908 -2.45081,15.27558 -6.34039,20.46106 -3.88946,5.18588 -9.15212,8.29129 -14.92119,8.29129 -5.7688,0 -11.03159,-3.10541 -14.92091,-8.29129 -3.88931,-5.18548 -6.33998,-12.43157 -6.33998,-20.46106 0,-0.7416 0.0235,-1.47576 0.0641,-2.20332 1.10856,1.03528 2.46239,1.87575 3.95205,2.57392 -0.57717,2.46142 0.0359,5.52258 1.63542,7.12159 2.94344,2.94328 9.54439,2.94328 12.48797,0 0.91165,-0.91201 1.30271,-2.36462 1.25116,-3.82261 0.66691,0 1.29766,0.0579 1.87048,0.0579 0.57297,0 1.20387,0 1.8709,-0.0579 -0.0517,1.45799 0.33937,2.9106 1.25117,3.82261 2.94358,2.94328 9.5444,2.94328 12.48785,0 1.59941,-1.59901 2.21258,-4.66017 1.6354,-7.12117 1.48965,-0.69818 2.8439,-1.53824 3.95205,-2.57393 z m -21.19736,15.93861 c -3.12193,4.99479 -9.3655,5.61935 -12.48742,5.61935 3.12178,2.49741 12.48728,2.49741 12.48728,0 0,2.49741 9.36605,2.49741 12.48798,0 -3.12193,0 -9.36591,-0.62456 -12.48798,-5.61935 z"
         id="path15149" />
    </g>
    <path
       d="m 139.94274,979.50736 -77.030496,0 q -0.805352,0 -1.468595,-0.47294 -0.615883,-0.47293 -0.994872,-1.13506 -0.379001,-0.66213 -0.379001,-1.41889 0,-0.70944 0.379001,-1.4662 l 38.467898,-68.2004 q 0.378986,-0.66213 1.042204,-0.99319 0.663241,-0.33122 1.421231,-0.33122 0.75799,0 1.42124,0.33122 0.66324,0.33121 1.04224,0.99319 l 38.56259,68.2004 q 0.37901,0.75676 0.37901,1.4662 0,0.75676 -0.37901,1.41889 -0.37898,0.66213 -1.04221,1.13506 -0.61587,0.47294 -1.42123,0.47294 z m -72.103575,-6.05385 67.081915,0 -33.54097,-59.30885 -33.540945,59.30885 z m 37.946755,-17.21562 -8.811592,0 0,-26.24911 8.811592,0 0,26.24911 z m 1.32648,8.60781 q 0,1.2297 -0.47374,2.2702 -0.42638,1.04051 -1.23172,1.84451 -0.758,0.75676 -1.80023,1.2297 -1.04225,0.4257 -2.2266,0.4257 -1.18436,0 -2.22659,-0.4257 -1.042214,-0.47294 -1.800206,-1.2297 -0.757993,-0.804 -1.184365,-1.84451 -0.426374,-1.0405 -0.426374,-2.2702 0,-1.18238 0.426374,-2.27021 0.426372,-1.08782 1.184365,-1.8445 0.757992,-0.80408 1.800206,-1.27702 1.04223,-0.47294 2.22659,-0.47294 1.18435,0 2.2266,0.47294 1.04223,0.47294 1.80023,1.27702 0.80534,0.75668 1.23172,1.8445 0.47374,1.08783 0.47374,2.27021 z"
       style="font-style:normal;font-weight:normal;font-size:medium;line-height:125%;font-family:sans-serif;letter-spacing:0px;word-spacing:0px;fill:#000000;fill-opacity:1;stroke:none;stroke-width:1px;stroke-linecap:butt;stroke-linejoin:miter;stroke-opacity:1"
       id="path3510"
       inkscape:connector-curvature="0" />
    <text
       transform="scale(1.0000136,0.99998641)"
       sodipodi:linespacing="125%"
       id="text3512"
       y="968.67401"
       x="143.28111"
       style="font-style:normal;font-weight:normal;font-size:95.93769073px;line-height:125%;font-family:sans-serif;letter-spacing:0px;word-spacing:0px;fill:#000000;fill-opacity:1;stroke:none;stroke-width:1px;stroke-linecap:butt;stroke-linejoin:miter;stroke-opacity:1"
       xml:space="preserve"><tspan
         y="968.67401"
         x="143.28111"
         id="tspan3514"
         sodipodi:role="line">:</tspan></text>
  </g>
</svg>
