<?xml version="1.0" encoding="UTF-8" standalone="no"?>
<svg
   xmlns:dc="http://purl.org/dc/elements/1.1/"
   xmlns:cc="http://creativecommons.org/ns#"
   xmlns:rdf="http://www.w3.org/1999/02/22-rdf-syntax-ns#"
   xmlns:svg="http://www.w3.org/2000/svg"
   xmlns="http://www.w3.org/2000/svg"
   xmlns:sodipodi="http://sodipodi.sourceforge.net/DTD/sodipodi-0.dtd"
   xmlns:inkscape="http://www.inkscape.org/namespaces/inkscape"
   sodipodi:docname="figure_board.svg"
   inkscape:version="1.0 (4035a4fb49, 2020-05-01)"
   version="1.1"
   id="svg16062"
   viewBox="0 0 300 200"
   height="200"
   width="300">
  <defs
     id="defs16064">
    <marker
       inkscape:isstock="true"
       style="overflow:visible"
       id="marker23727"
       refX="0"
       refY="0"
       orient="auto"
       inkscape:stockid="Arrow2Lend">
      <path
         transform="matrix(-1.1,0,0,-1.1,-1.1,0)"
         d="M 8.7185878,4.0337352 -2.2072895,0.01601326 8.7185884,-4.0017078 c -1.7454984,2.3720609 -1.7354408,5.6174519 -6e-7,8.035443 z"
         style="fill:#000000;fill-opacity:1;fill-rule:evenodd;stroke:#000000;stroke-width:0.625;stroke-linejoin:round;stroke-opacity:1"
         id="path23729"
         inkscape:connector-curvature="0" />
    </marker>
    <marker
       inkscape:collect="always"
       inkscape:stockid="Arrow2Lend"
       orient="auto"
       refY="0"
       refX="0"
       id="marker18498"
       style="overflow:visible"
       inkscape:isstock="true">
      <path
         inkscape:connector-curvature="0"
         id="path18500"
         style="fill:#000000;fill-opacity:1;fill-rule:evenodd;stroke:#000000;stroke-width:0.625;stroke-linejoin:round;stroke-opacity:1"
         d="M 8.7185878,4.0337352 -2.2072895,0.01601326 8.7185884,-4.0017078 c -1.7454984,2.3720609 -1.7354408,5.6174519 -6e-7,8.035443 z"
         transform="matrix(-1.1,0,0,-1.1,-1.1,0)" />
    </marker>
    <marker
       inkscape:collect="always"
       inkscape:isstock="true"
       style="overflow:visible"
       id="marker18350"
       refX="0"
       refY="0"
       orient="auto"
       inkscape:stockid="Arrow2Lend">
      <path
         inkscape:connector-curvature="0"
         transform="matrix(-1.1,0,0,-1.1,-1.1,0)"
         d="M 8.7185878,4.0337352 -2.2072895,0.01601326 8.7185884,-4.0017078 c -1.7454984,2.3720609 -1.7354408,5.6174519 -6e-7,8.035443 z"
         style="fill:#000000;fill-opacity:1;fill-rule:evenodd;stroke:#000000;stroke-width:0.625;stroke-linejoin:round;stroke-opacity:1"
         id="path18352" />
    </marker>
    <marker
       inkscape:collect="always"
       inkscape:stockid="Arrow2Lend"
       orient="auto"
       refY="0"
       refX="0"
       id="marker17914"
       style="overflow:visible"
       inkscape:isstock="true">
      <path
         inkscape:connector-curvature="0"
         id="path17916"
         style="fill:#000000;fill-opacity:1;fill-rule:evenodd;stroke:#000000;stroke-width:0.625;stroke-linejoin:round;stroke-opacity:1"
         d="M 8.7185878,4.0337352 -2.2072895,0.01601326 8.7185884,-4.0017078 c -1.7454984,2.3720609 -1.7354408,5.6174519 -6e-7,8.035443 z"
         transform="matrix(-1.1,0,0,-1.1,-1.1,0)" />
    </marker>
    <marker
       inkscape:stockid="Arrow2Lend"
       orient="auto"
       refY="0"
       refX="0"
       id="marker17866"
       style="overflow:visible"
       inkscape:isstock="true">
      <path
         inkscape:connector-curvature="0"
         id="path17868"
         style="fill:#000000;fill-opacity:1;fill-rule:evenodd;stroke:#000000;stroke-width:0.625;stroke-linejoin:round;stroke-opacity:1"
         d="M 8.7185878,4.0337352 -2.2072895,0.01601326 8.7185884,-4.0017078 c -1.7454984,2.3720609 -1.7354408,5.6174519 -6e-7,8.035443 z"
         transform="matrix(-1.1,0,0,-1.1,-1.1,0)" />
    </marker>
    <marker
       inkscape:collect="always"
       inkscape:isstock="true"
       style="overflow:visible"
       id="Arrow2Lend"
       refX="0"
       refY="0"
       orient="auto"
       inkscape:stockid="Arrow2Lend">
      <path
         inkscape:connector-curvature="0"
         transform="matrix(-1.1,0,0,-1.1,-1.1,0)"
         d="M 8.7185878,4.0337352 -2.2072895,0.01601326 8.7185884,-4.0017078 c -1.7454984,2.3720609 -1.7354408,5.6174519 -6e-7,8.035443 z"
         style="fill:#000000;fill-opacity:1;fill-rule:evenodd;stroke:#000000;stroke-width:0.625;stroke-linejoin:round;stroke-opacity:1"
         id="path16757" />
    </marker>
    <marker
       inkscape:stockid="Arrow1Lend"
       orient="auto"
       refY="0"
       refX="0"
       id="marker17104"
       style="overflow:visible"
       inkscape:isstock="true">
      <path
         inkscape:connector-curvature="0"
         id="path17106"
         d="M 0,0 5,-5 -12.5,0 5,5 0,0 Z"
         style="fill:#000000;fill-opacity:1;fill-rule:evenodd;stroke:#000000;stroke-width:1pt;stroke-opacity:1"
         transform="matrix(-0.8,0,0,-0.8,-10,0)" />
    </marker>
    <filter
       height="1.1779425"
       y="-0.088971249"
       width="1.1541027"
       x="-0.077051364"
       id="filter9822"
       style="color-interpolation-filters:sRGB"
       inkscape:collect="always">
      <feGaussianBlur
         id="feGaussianBlur9824"
         stdDeviation="0.71675121"
         inkscape:collect="always" />
    </filter>
    <filter
       height="1.1779425"
       y="-0.088971249"
       width="1.1541027"
       x="-0.077051364"
       id="filter9826"
       style="color-interpolation-filters:sRGB"
       inkscape:collect="always">
      <feGaussianBlur
         id="feGaussianBlur9828"
         stdDeviation="0.71675121"
         inkscape:collect="always" />
    </filter>
    <filter
       height="1.1779425"
       y="-0.088971249"
       width="1.1541027"
       x="-0.077051364"
       id="filter9830"
       style="color-interpolation-filters:sRGB"
       inkscape:collect="always">
      <feGaussianBlur
         id="feGaussianBlur9832"
         stdDeviation="0.71675121"
         inkscape:collect="always" />
    </filter>
    <filter
       height="1.1779425"
       y="-0.088971249"
       width="1.1541027"
       x="-0.077051364"
       id="filter9834"
       style="color-interpolation-filters:sRGB"
       inkscape:collect="always">
      <feGaussianBlur
         id="feGaussianBlur9836"
         stdDeviation="0.71675121"
         inkscape:collect="always" />
    </filter>
    <filter
       height="1.1779425"
       y="-0.088971249"
       width="1.1541027"
       x="-0.077051364"
       id="filter9838"
       style="color-interpolation-filters:sRGB"
       inkscape:collect="always">
      <feGaussianBlur
         id="feGaussianBlur9840"
         stdDeviation="0.71675121"
         inkscape:collect="always" />
    </filter>
    <filter
       height="1.1779425"
       y="-0.088971249"
       width="1.1541027"
       x="-0.077051364"
       id="filter9842"
       style="color-interpolation-filters:sRGB"
       inkscape:collect="always">
      <feGaussianBlur
         id="feGaussianBlur9844"
         stdDeviation="0.71675121"
         inkscape:collect="always" />
    </filter>
    <filter
       height="1.1779425"
       y="-0.088971249"
       width="1.1541027"
       x="-0.077051364"
       id="filter9846"
       style="color-interpolation-filters:sRGB"
       inkscape:collect="always">
      <feGaussianBlur
         id="feGaussianBlur9848"
         stdDeviation="0.71675121"
         inkscape:collect="always" />
    </filter>
    <filter
       height="1.2243172"
       y="-0.11215858"
       width="1.2244203"
       x="-0.11221013"
       id="filter9850"
       style="color-interpolation-filters:sRGB"
       inkscape:collect="always">
      <feGaussianBlur
         id="feGaussianBlur9852"
         stdDeviation="2.2428078"
         inkscape:collect="always" />
    </filter>
  </defs>
  <sodipodi:namedview
     inkscape:document-rotation="0"
     inkscape:window-maximized="1"
     inkscape:window-y="-8"
     inkscape:window-x="-8"
     inkscape:window-height="1017"
     inkscape:window-width="1920"
     units="px"
     showgrid="false"
     inkscape:current-layer="layer1"
     inkscape:document-units="px"
     inkscape:cy="83.025639"
     inkscape:cx="170.50972"
     inkscape:zoom="7.919596"
     inkscape:pageshadow="2"
     inkscape:pageopacity="0.0"
     borderopacity="1.0"
     bordercolor="#666666"
     pagecolor="#ffffff"
     id="base" />
  <metadata
     id="metadata16067">
    <rdf:RDF>
      <cc:Work
         rdf:about="">
        <dc:format>image/svg+xml</dc:format>
        <dc:type
           rdf:resource="http://purl.org/dc/dcmitype/StillImage" />
        <dc:title />
      </cc:Work>
    </rdf:RDF>
  </metadata>
  <g
     transform="translate(0,-852.36216)"
     id="layer1"
     inkscape:groupmode="layer"
     inkscape:label="Layer 1">
    <path
       transform="matrix(3.1261177,0,0,3.1321455,-1229.6275,-2561.346)"
       sodipodi:type="star"
       style="font-style:normal;font-weight:normal;font-size:medium;line-height:125%;font-family:sans-serif;letter-spacing:0px;word-spacing:0px;fill:#000000;fill-opacity:1;stroke:none;stroke-width:0.09605665;stroke-linecap:butt;stroke-linejoin:round;stroke-miterlimit:4;stroke-dasharray:none;stroke-dashoffset:0;stroke-opacity:1;filter:url(#filter9822)"
       id="path9668"
       sodipodi:sides="6"
       sodipodi:cx="407.40814"
       sodipodi:cy="1113.0243"
       sodipodi:r1="11.162703"
       sodipodi:r2="9.6671848"
       sodipodi:arg1="-1.0471976"
       sodipodi:arg2="-0.52359878"
       inkscape:flatsided="true"
       inkscape:rounded="0"
       inkscape:randomized="0"
       d="m 412.98949,1103.3571 5.58135,9.6672 -5.58135,9.6672 -11.1627,0 -5.58135,-9.6672 5.58135,-9.6672 z" />
    <path
       d="m 412.98949,1103.3571 5.58135,9.6672 -5.58135,9.6672 -11.1627,0 -5.58135,-9.6672 5.58135,-9.6672 z"
       inkscape:randomized="0"
       inkscape:rounded="0"
       inkscape:flatsided="true"
       sodipodi:arg2="-0.52359878"
       sodipodi:arg1="-1.0471976"
       sodipodi:r2="9.6671848"
       sodipodi:r1="11.162703"
       sodipodi:cy="1113.0243"
       sodipodi:cx="407.40814"
       sodipodi:sides="6"
       id="path9670"
       style="font-style:normal;font-weight:normal;font-size:medium;line-height:125%;font-family:sans-serif;letter-spacing:0px;word-spacing:0px;fill:#000000;fill-opacity:1;stroke:none;stroke-width:0.09605665;stroke-linecap:butt;stroke-linejoin:round;stroke-miterlimit:4;stroke-dasharray:none;stroke-dashoffset:0;stroke-opacity:1;filter:url(#filter9826)"
       sodipodi:type="star"
       transform="matrix(3.1261177,0,0,3.1321455,-1176.4107,-2592.8727)" />
    <path
       transform="matrix(3.1261177,0,0,3.1321455,-1122.1849,-2561.8505)"
       sodipodi:type="star"
       style="font-style:normal;font-weight:normal;font-size:medium;line-height:125%;font-family:sans-serif;letter-spacing:0px;word-spacing:0px;fill:#000000;fill-opacity:1;stroke:none;stroke-width:0.09605665;stroke-linecap:butt;stroke-linejoin:round;stroke-miterlimit:4;stroke-dasharray:none;stroke-dashoffset:0;stroke-opacity:1;filter:url(#filter9830)"
       id="path9672"
       sodipodi:sides="6"
       sodipodi:cx="407.40814"
       sodipodi:cy="1113.0243"
       sodipodi:r1="11.162703"
       sodipodi:r2="9.6671848"
       sodipodi:arg1="-1.0471976"
       sodipodi:arg2="-0.52359878"
       inkscape:flatsided="true"
       inkscape:rounded="0"
       inkscape:randomized="0"
       d="m 412.98949,1103.3571 5.58135,9.6672 -5.58135,9.6672 -11.1627,0 -5.58135,-9.6672 5.58135,-9.6672 z" />
    <path
       d="m 412.98949,1103.3571 5.58135,9.6672 -5.58135,9.6672 -11.1627,0 -5.58135,-9.6672 5.58135,-9.6672 z"
       inkscape:randomized="0"
       inkscape:rounded="0"
       inkscape:flatsided="true"
       sodipodi:arg2="-0.52359878"
       sodipodi:arg1="-1.0471976"
       sodipodi:r2="9.6671848"
       sodipodi:r1="11.162703"
       sodipodi:cy="1113.0243"
       sodipodi:cx="407.40814"
       sodipodi:sides="6"
       id="path9674"
       style="font-style:normal;font-weight:normal;font-size:medium;line-height:125%;font-family:sans-serif;letter-spacing:0px;word-spacing:0px;fill:#000000;fill-opacity:1;stroke:none;stroke-width:0.09605665;stroke-linecap:butt;stroke-linejoin:round;stroke-miterlimit:4;stroke-dasharray:none;stroke-dashoffset:0;stroke-opacity:1;filter:url(#filter9834)"
       sodipodi:type="star"
       transform="matrix(3.1261177,0,0,3.1321455,-1120.0448,-2499.0743)" />
    <path
       transform="matrix(3.1261177,0,0,3.1321455,-1174.6173,-2467.6862)"
       sodipodi:type="star"
       style="font-style:normal;font-weight:normal;font-size:medium;line-height:125%;font-family:sans-serif;letter-spacing:0px;word-spacing:0px;fill:#000000;fill-opacity:1;stroke:none;stroke-width:0.09605665;stroke-linecap:butt;stroke-linejoin:round;stroke-miterlimit:4;stroke-dasharray:none;stroke-dashoffset:0;stroke-opacity:1;filter:url(#filter9838)"
       id="path9676"
       sodipodi:sides="6"
       sodipodi:cx="407.40814"
       sodipodi:cy="1113.0243"
       sodipodi:r1="11.162703"
       sodipodi:r2="9.6671848"
       sodipodi:arg1="-1.0471976"
       sodipodi:arg2="-0.52359878"
       inkscape:flatsided="true"
       inkscape:rounded="0"
       inkscape:randomized="0"
       d="m 412.98949,1103.3571 5.58135,9.6672 -5.58135,9.6672 -11.1627,0 -5.58135,-9.6672 5.58135,-9.6672 z" />
    <path
       d="m 412.98949,1103.3571 5.58135,9.6672 -5.58135,9.6672 -11.1627,0 -5.58135,-9.6672 5.58135,-9.6672 z"
       inkscape:randomized="0"
       inkscape:rounded="0"
       inkscape:flatsided="true"
       sodipodi:arg2="-0.52359878"
       sodipodi:arg1="-1.0471976"
       sodipodi:r2="9.6671848"
       sodipodi:r1="11.162703"
       sodipodi:cy="1113.0243"
       sodipodi:cx="407.40814"
       sodipodi:sides="6"
       id="path9678"
       style="font-style:normal;font-weight:normal;font-size:medium;line-height:125%;font-family:sans-serif;letter-spacing:0px;word-spacing:0px;fill:#000000;fill-opacity:1;stroke:none;stroke-width:0.09605665;stroke-linecap:butt;stroke-linejoin:round;stroke-miterlimit:4;stroke-dasharray:none;stroke-dashoffset:0;stroke-opacity:1;filter:url(#filter9842)"
       sodipodi:type="star"
       transform="matrix(3.1261177,0,0,3.1321455,-1229.5464,-2499.7877)" />
    <path
       d="m 412.98949,1103.3571 5.58135,9.6672 -5.58135,9.6672 -11.1627,0 -5.58135,-9.6672 5.58135,-9.6672 z"
       inkscape:randomized="0"
       inkscape:rounded="0"
       inkscape:flatsided="true"
       sodipodi:arg2="-0.52359878"
       sodipodi:arg1="-1.0471976"
       sodipodi:r2="9.6671848"
       sodipodi:r1="11.162703"
       sodipodi:cy="1113.0243"
       sodipodi:cx="407.40814"
       sodipodi:sides="6"
       id="path9680"
       style="font-style:normal;font-weight:normal;font-size:medium;line-height:125%;font-family:sans-serif;letter-spacing:0px;word-spacing:0px;fill:#000000;fill-opacity:1;stroke:none;stroke-width:0.09605665;stroke-linecap:butt;stroke-linejoin:round;stroke-miterlimit:4;stroke-dasharray:none;stroke-dashoffset:0;stroke-opacity:1;filter:url(#filter9846)"
       sodipodi:type="star"
       transform="matrix(3.1261177,0,0,3.1321455,-1068.6468,-2592.4076)" />
    <rect
       style="fill:#000000;fill-opacity:1;stroke:none;stroke-width:2;stroke-linecap:round;stroke-linejoin:round;stroke-miterlimit:4;stroke-dasharray:none;stroke-dashoffset:0.60000002;stroke-opacity:1;filter:url(#filter9850)"
       id="rect9682"
       width="36.290802"
       height="36.351048"
       x="655.51459"
       y="652.8092"
       ry="2.2375751"
       transform="matrix(0.86602541,0.49999999,-0.49999999,0.86602541,0,0)" />
    <path
       d="m 412.98949,1103.3571 5.58135,9.6672 -5.58135,9.6672 -11.1627,0 -5.58135,-9.6672 5.58135,-9.6672 z"
       inkscape:randomized="0"
       inkscape:rounded="0"
       inkscape:flatsided="true"
       sodipodi:arg2="-0.52359878"
       sodipodi:arg1="-1.0471976"
       sodipodi:r2="9.6671848"
       sodipodi:r1="11.162703"
       sodipodi:cy="1113.0243"
       sodipodi:cx="407.40814"
       sodipodi:sides="6"
       id="path13290"
       style="font-style:normal;font-weight:normal;font-size:medium;line-height:125%;font-family:sans-serif;letter-spacing:0px;word-spacing:0px;fill:#d8c586;fill-opacity:1;stroke:none;stroke-width:0.09605665;stroke-linecap:butt;stroke-linejoin:round;stroke-miterlimit:4;stroke-dasharray:none;stroke-dashoffset:0;stroke-opacity:1"
       sodipodi:type="star"
       transform="matrix(3.1261177,0,0,3.1321455,-1231.6275,-2563.346)" />
    <path
       transform="matrix(3.1261177,0,0,3.1321455,-1178.4107,-2594.8727)"
       sodipodi:type="star"
       style="font-style:normal;font-weight:normal;font-size:medium;line-height:125%;font-family:sans-serif;letter-spacing:0px;word-spacing:0px;fill:#d8c586;fill-opacity:1;stroke:none;stroke-width:0.09605665;stroke-linecap:butt;stroke-linejoin:round;stroke-miterlimit:4;stroke-dasharray:none;stroke-dashoffset:0;stroke-opacity:1"
       id="path16616"
       sodipodi:sides="6"
       sodipodi:cx="407.40814"
       sodipodi:cy="1113.0243"
       sodipodi:r1="11.162703"
       sodipodi:r2="9.6671848"
       sodipodi:arg1="-1.0471976"
       sodipodi:arg2="-0.52359878"
       inkscape:flatsided="true"
       inkscape:rounded="0"
       inkscape:randomized="0"
       d="m 412.98949,1103.3571 5.58135,9.6672 -5.58135,9.6672 -11.1627,0 -5.58135,-9.6672 5.58135,-9.6672 z" />
    <path
       d="m 412.98949,1103.3571 5.58135,9.6672 -5.58135,9.6672 -11.1627,0 -5.58135,-9.6672 5.58135,-9.6672 z"
       inkscape:randomized="0"
       inkscape:rounded="0"
       inkscape:flatsided="true"
       sodipodi:arg2="-0.52359878"
       sodipodi:arg1="-1.0471976"
       sodipodi:r2="9.6671848"
       sodipodi:r1="11.162703"
       sodipodi:cy="1113.0243"
       sodipodi:cx="407.40814"
       sodipodi:sides="6"
       id="path16648"
       style="font-style:normal;font-weight:normal;font-size:medium;line-height:125%;font-family:sans-serif;letter-spacing:0px;word-spacing:0px;fill:#d8c586;fill-opacity:1;stroke:none;stroke-width:0.09605665;stroke-linecap:butt;stroke-linejoin:round;stroke-miterlimit:4;stroke-dasharray:none;stroke-dashoffset:0;stroke-opacity:1"
       sodipodi:type="star"
       transform="matrix(3.1261177,0,0,3.1321455,-1124.1849,-2563.8505)" />
    <path
       transform="matrix(3.1261177,0,0,3.1321455,-1177.1928,-2532.115)"
       sodipodi:type="star"
       style="font-style:normal;font-weight:normal;font-size:medium;line-height:125%;font-family:sans-serif;letter-spacing:0px;word-spacing:0px;fill:none;fill-opacity:1;stroke:#a700a7;stroke-width:0.67705333;stroke-linecap:butt;stroke-linejoin:round;stroke-miterlimit:4;stroke-dasharray:0.67705335, 0.67705335;stroke-dashoffset:0;stroke-opacity:1"
       id="path16650"
       sodipodi:sides="6"
       sodipodi:cx="407.40814"
       sodipodi:cy="1113.0243"
       sodipodi:r1="11.162703"
       sodipodi:r2="9.6671848"
       sodipodi:arg1="-1.0471976"
       sodipodi:arg2="-0.52359878"
       inkscape:flatsided="true"
       inkscape:rounded="0"
       inkscape:randomized="0"
       d="m 412.98949,1103.3571 5.58135,9.6672 -5.58135,9.6672 -11.1627,0 -5.58135,-9.6672 5.58135,-9.6672 z" />
    <text
       id="text16667"
       y="954.71124"
       x="68.671013"
       style="font-style:normal;font-variant:normal;font-weight:normal;font-stretch:normal;font-size:10.9028px;line-height:125%;font-family:'Archivo Narrow';-inkscape-font-specification:'Archivo Narrow, Normal';text-align:start;letter-spacing:0px;word-spacing:0px;writing-mode:lr-tb;text-anchor:start;fill:#000000;fill-opacity:1;stroke:none;stroke-width:1px;stroke-linecap:butt;stroke-linejoin:miter;stroke-opacity:1"
       xml:space="preserve"><tspan
         y="954.71124"
         x="68.671013"
         id="tspan16669"
         sodipodi:role="line">non-tiled gap</tspan></text>
    <path
       transform="matrix(3.1261177,0,0,3.1321455,-1122.0448,-2501.0743)"
       sodipodi:type="star"
       style="font-style:normal;font-weight:normal;font-size:medium;line-height:125%;font-family:sans-serif;letter-spacing:0px;word-spacing:0px;fill:#d8c586;fill-opacity:1;stroke:none;stroke-width:0.09605665;stroke-linecap:butt;stroke-linejoin:round;stroke-miterlimit:4;stroke-dasharray:none;stroke-dashoffset:0;stroke-opacity:1"
       id="path16671"
       sodipodi:sides="6"
       sodipodi:cx="407.40814"
       sodipodi:cy="1113.0243"
       sodipodi:r1="11.162703"
       sodipodi:r2="9.6671848"
       sodipodi:arg1="-1.0471976"
       sodipodi:arg2="-0.52359878"
       inkscape:flatsided="true"
       inkscape:rounded="0"
       inkscape:randomized="0"
       d="m 412.98949,1103.3571 5.58135,9.6672 -5.58135,9.6672 -11.1627,0 -5.58135,-9.6672 5.58135,-9.6672 z" />
    <path
       d="m 412.98949,1103.3571 5.58135,9.6672 -5.58135,9.6672 -11.1627,0 -5.58135,-9.6672 5.58135,-9.6672 z"
       inkscape:randomized="0"
       inkscape:rounded="0"
       inkscape:flatsided="true"
       sodipodi:arg2="-0.52359878"
       sodipodi:arg1="-1.0471976"
       sodipodi:r2="9.6671848"
       sodipodi:r1="11.162703"
       sodipodi:cy="1113.0243"
       sodipodi:cx="407.40814"
       sodipodi:sides="6"
       id="path16673"
       style="font-style:normal;font-weight:normal;font-size:medium;line-height:125%;font-family:sans-serif;letter-spacing:0px;word-spacing:0px;fill:#d8c586;fill-opacity:1;stroke:none;stroke-width:0.09605665;stroke-linecap:butt;stroke-linejoin:round;stroke-miterlimit:4;stroke-dasharray:none;stroke-dashoffset:0;stroke-opacity:1"
       sodipodi:type="star"
       transform="matrix(3.1261177,0,0,3.1321455,-1176.6173,-2469.6862)" />
    <path
       transform="matrix(3.1261177,0,0,3.1321455,-1231.5464,-2501.7877)"
       sodipodi:type="star"
       style="font-style:normal;font-weight:normal;font-size:medium;line-height:125%;font-family:sans-serif;letter-spacing:0px;word-spacing:0px;fill:#d8c586;fill-opacity:1;stroke:none;stroke-width:0.09605665;stroke-linecap:butt;stroke-linejoin:round;stroke-miterlimit:4;stroke-dasharray:none;stroke-dashoffset:0;stroke-opacity:1"
       id="path16675"
       sodipodi:sides="6"
       sodipodi:cx="407.40814"
       sodipodi:cy="1113.0243"
       sodipodi:r1="11.162703"
       sodipodi:r2="9.6671848"
       sodipodi:arg1="-1.0471976"
       sodipodi:arg2="-0.52359878"
       inkscape:flatsided="true"
       inkscape:rounded="0"
       inkscape:randomized="0"
       d="m 412.98949,1103.3571 5.58135,9.6672 -5.58135,9.6672 -11.1627,0 -5.58135,-9.6672 5.58135,-9.6672 z" />
    <circle
       r="14.642857"
       cy="1014.3663"
       cx="97.416527"
       id="path16696"
       style="fill:#42290d;fill-opacity:1;stroke:none;stroke-width:1.79562;stroke-linecap:round;stroke-linejoin:round;stroke-miterlimit:4;stroke-dasharray:1.79562, 1.79562;stroke-dashoffset:0;stroke-opacity:1" />
    <path
       id="path9407"
       d="m 97.40426,1006.2499 v 0.014 c -2.825675,1.7562 -7.736593,1.9864 -8.171451,2.1665 0.538115,12.0003 3.155663,13.704 8.171451,16.4333 v 0.014 c 0.0039,0 0.0082,0 0.01226,-0.014 0.0039,0 0.0081,0 0.01226,0.014 v -0.014 c 5.01578,-2.7293 7.63333,-4.433 8.17145,-16.4333 -0.43485,-0.1801 -5.34577,-0.4103 -8.17145,-2.1665 v -0.014 c -0.0026,0 -0.0081,0 -0.01226,0 -0.0039,0 -0.0081,0 -0.01226,0 z"
       style="fill:#d8c586;fill-opacity:1;stroke:none;stroke-width:0.406227;stroke-linecap:round;stroke-linejoin:round;stroke-miterlimit:4;stroke-dasharray:none;stroke-opacity:1"
       inkscape:connector-curvature="0" />
    <path
       transform="matrix(3.1261177,0,0,3.1321455,-1070.6468,-2594.4076)"
       sodipodi:type="star"
       style="font-style:normal;font-weight:normal;font-size:medium;line-height:125%;font-family:sans-serif;letter-spacing:0px;word-spacing:0px;fill:#d8c586;fill-opacity:1;stroke:none;stroke-width:0.09605665;stroke-linecap:butt;stroke-linejoin:round;stroke-miterlimit:4;stroke-dasharray:none;stroke-dashoffset:0;stroke-opacity:1"
       id="path16714"
       sodipodi:sides="6"
       sodipodi:cx="407.40814"
       sodipodi:cy="1113.0243"
       sodipodi:r1="11.162703"
       sodipodi:r2="9.6671848"
       sodipodi:arg1="-1.0471976"
       sodipodi:arg2="-0.52359878"
       inkscape:flatsided="true"
       inkscape:rounded="0"
       inkscape:randomized="0"
       d="m 412.98949,1103.3571 5.58135,9.6672 -5.58135,9.6672 -11.1627,0 -5.58135,-9.6672 5.58135,-9.6672 z" />
    <path
       style="fill:none;fill-rule:evenodd;stroke:#009ba7;stroke-width:3;stroke-linecap:butt;stroke-linejoin:miter;stroke-miterlimit:4;stroke-dasharray:3, 3;stroke-dashoffset:0;stroke-opacity:1"
       d="m 185.12172,986.39175 -17.67767,29.41035"
       id="path16722"
       inkscape:connector-curvature="0"
       sodipodi:nodetypes="cc" />
    <path
       sodipodi:nodetypes="cc"
       inkscape:connector-curvature="0"
       id="path16724"
       d="M 186.44424,986.46565 169.81295,956.45121"
       style="fill:none;fill-rule:evenodd;stroke:#009ba7;stroke-width:3;stroke-linecap:butt;stroke-linejoin:miter;stroke-miterlimit:4;stroke-dasharray:3, 3;stroke-dashoffset:0;stroke-opacity:1" />
    <text
       id="text16726"
       y="995.62628"
       x="207.0408"
       style="font-style:normal;font-variant:normal;font-weight:normal;font-stretch:normal;font-size:13.2px;line-height:125%;font-family:'Archivo Narrow';-inkscape-font-specification:'Archivo Narrow, Normal';text-align:start;letter-spacing:0px;word-spacing:0px;writing-mode:lr-tb;text-anchor:start;fill:#000000;fill-opacity:1;stroke:none;stroke-width:1px;stroke-linecap:butt;stroke-linejoin:miter;stroke-opacity:1"
       xml:space="preserve"><tspan
         y="995.62628"
         x="207.0408"
         id="tspan16728"
         sodipodi:role="line">external sides</tspan></text>
    <path
       sodipodi:nodetypes="cc"
       inkscape:connector-curvature="0"
       id="path16730"
       d="M 205.94497,989.44543 183.35224,975.39219"
       style="fill:none;fill-rule:evenodd;stroke:#000000;stroke-width:1px;stroke-linecap:butt;stroke-linejoin:miter;stroke-opacity:1;marker-end:url(#Arrow2Lend)" />
    <path
       style="fill:none;fill-rule:evenodd;stroke:#000000;stroke-width:1px;stroke-linecap:butt;stroke-linejoin:miter;stroke-opacity:1;marker-end:url(#marker17866)"
       d="m 204.5046,996.3327 -24.55917,6.6474"
       id="path17102"
       inkscape:connector-curvature="0"
       sodipodi:nodetypes="cc" />
    <path
       sodipodi:nodetypes="cc"
       inkscape:connector-curvature="0"
       id="path17900"
       d="m 119.51089,985.59318 17.6777,-29.41037"
       style="fill:none;fill-rule:evenodd;stroke:#a7000c;stroke-width:3;stroke-linecap:butt;stroke-linejoin:miter;stroke-miterlimit:4;stroke-dasharray:3, 3;stroke-dashoffset:0;stroke-opacity:1" />
    <text
       xml:space="preserve"
       style="font-style:normal;font-variant:normal;font-weight:normal;font-stretch:normal;font-size:13.2px;line-height:125%;font-family:'Archivo Narrow';-inkscape-font-specification:'Archivo Narrow, Normal';text-align:start;letter-spacing:0px;word-spacing:0px;writing-mode:lr-tb;text-anchor:start;fill:#000000;fill-opacity:1;stroke:none;stroke-width:1px;stroke-linecap:butt;stroke-linejoin:miter;stroke-opacity:1"
       x="176.87268"
       y="951.26501"
       id="text17902"><tspan
         sodipodi:role="line"
         id="tspan17904"
         x="176.87268"
         y="951.26501">NOT external side</tspan></text>
    <path
       style="fill:none;fill-rule:evenodd;stroke:#000000;stroke-width:1px;stroke-linecap:butt;stroke-linejoin:miter;stroke-opacity:1;marker-end:url(#marker17914)"
       d="M 175.71195,946.52008 140.0703,958.83236"
       id="path17912"
       inkscape:connector-curvature="0"
       sodipodi:nodetypes="cc" />
    <text
       id="text18344"
       y="1038.7434"
       x="159.56395"
       style="font-style:normal;font-variant:normal;font-weight:normal;font-stretch:normal;font-size:13.2px;line-height:125%;font-family:'Archivo Narrow';-inkscape-font-specification:'Archivo Narrow, Normal';text-align:start;letter-spacing:0px;word-spacing:0px;writing-mode:lr-tb;text-anchor:start;fill:#000000;fill-opacity:1;stroke:none;stroke-width:1px;stroke-linecap:butt;stroke-linejoin:miter;stroke-opacity:1"
       xml:space="preserve"><tspan
         y="1038.7434"
         x="159.56395"
         id="tspan18346"
         sodipodi:role="line">Security Tile</tspan></text>
    <path
       sodipodi:nodetypes="cc"
       inkscape:connector-curvature="0"
       id="path18348"
       d="m 152.8684,1036.358 -28.50496,0.165"
       style="fill:none;fill-rule:evenodd;stroke:#000000;stroke-width:1px;stroke-linecap:butt;stroke-linejoin:miter;stroke-opacity:1;marker-end:url(#marker18350)" />
    <text
       xml:space="preserve"
       style="font-style:normal;font-variant:normal;font-weight:normal;font-stretch:normal;font-size:13.2px;line-height:125%;font-family:'Archivo Narrow';-inkscape-font-specification:'Archivo Narrow, Normal';text-align:start;letter-spacing:0px;word-spacing:0px;writing-mode:lr-tb;text-anchor:start;fill:#000000;fill-opacity:1;stroke:none;stroke-width:1px;stroke-linecap:butt;stroke-linejoin:miter;stroke-opacity:1"
       x="125.99252"
       y="870.0661"
       id="text18486"><tspan
         sodipodi:role="line"
         id="tspan18488"
         x="125.99252"
         y="870.0661">Blank tile</tspan></text>
    <path
       style="fill:none;fill-rule:evenodd;stroke:#000000;stroke-width:1px;stroke-linecap:butt;stroke-linejoin:miter;stroke-opacity:1;marker-end:url(#marker18498)"
       d="m 151.35933,871.04818 17.62428,13.26729"
       id="path18496"
       inkscape:connector-curvature="0"
       sodipodi:nodetypes="cc" />
    <g
       transform="translate(13.646612,62.790907)"
       id="g146">
      <circle
         r="14.642857"
         cy="860.30713"
         cx="28.53257"
         id="circle118"
         style="fill:#000000;fill-opacity:1;stroke:none;stroke-width:1.79562;stroke-linecap:round;stroke-linejoin:round;stroke-miterlimit:4;stroke-dasharray:1.79562, 1.79562;stroke-dashoffset:0;stroke-opacity:1" />
      <circle
         style="fill:#42290d;fill-opacity:1;stroke:none;stroke-width:1.79562;stroke-linecap:round;stroke-linejoin:round;stroke-miterlimit:4;stroke-dasharray:1.79562, 1.79562;stroke-dashoffset:0;stroke-opacity:1"
         id="circle120"
         cx="28.130814"
         cy="859.72711"
         r="14.642857" />
      <path
         inkscape:connector-curvature="0"
         style="font-variation-settings:normal;opacity:1;vector-effect:none;fill:#d8c586;fill-opacity:1;stroke:none;stroke-width:0.300574;stroke-linecap:butt;stroke-linejoin:round;stroke-miterlimit:4;stroke-dasharray:none;stroke-dashoffset:0;stroke-opacity:1;stop-color:#000000;stop-opacity:1"
         d="m 28.130825,849.7535 c 0.906628,0 1.50833,0.45254 2.315376,0.90084 0.764876,0.42484 1.726546,0.78913 3.082532,0.51225 0.643524,0.64317 1.297319,1.28665 1.994643,1.72224 0.570577,0.35661 1.211702,0.56904 1.851279,0.46873 -0.183463,1.44338 -1.060221,2.8555 -1.976716,3.59461 -2.416787,-0.80086 -4.839688,-1.2015 -7.262519,-1.2015 -2.425154,0 -4.850252,0.40142 -7.269318,1.20371 -0.917353,-0.73847 -1.795463,-2.15194 -1.979129,-3.59682 0.639396,0.0999 1.280703,-0.11198 1.851286,-0.46858 0.697262,-0.43574 1.350987,-1.07906 1.994587,-1.72223 1.355931,0.27687 2.317587,-0.0877 3.082539,-0.51241 0.807165,-0.44845 1.408811,-0.90084 2.31544,-0.90084 z m 0.0091,0.8435 c -0.855429,0 -2.29556,1.15588 -2.29556,1.15588 0,0 0.916174,3.46795 2.29556,3.46795 1.379498,0 2.29563,-3.46795 2.29563,-3.46795 0,0 -1.440187,-1.15588 -2.29563,-1.15588 z m 0,5.92786 c 2.279063,0 4.558384,0.37247 6.843026,1.1108 0.09427,0.58146 -0.06519,1.01354 -0.407899,1.41319 -0.382378,0.44606 -1.024472,0.82481 -1.785597,1.10987 -1.522234,0.57055 -3.496224,0.77247 -4.649593,0.77247 -1.153229,0 -3.12717,-0.20192 -4.649405,-0.7724 -0.761173,-0.28513 -1.403135,-0.66381 -1.785652,-1.10994 -0.342823,-0.39965 -0.502168,-0.83152 -0.408031,-1.41319 2.284774,-0.73833 4.563962,-1.1108 6.843088,-1.1108 z m 7.478698,2.46673 c 0.424019,0.10296 1.162796,0.33569 1.29552,0.73369 0.362695,1.08769 -0.730521,2.754 -1.557251,3.80527 0.227768,-0.94988 0.350542,-1.96029 0.350542,-3.00785 0,-0.52049 -0.03054,-1.03179 -0.08881,-1.53111 z m -14.95732,0 a 13.205787,13.204228 0 0 0 -0.08882,1.53091 c 0,1.04776 0.122704,2.05817 0.350618,3.00797 -0.826869,-1.05119 -1.920078,-2.7175 -1.557243,-3.80519 0.132542,-0.398 0.871493,-0.63073 1.295373,-0.73369 z m 14.248435,0.82766 c 0.01367,0.2323 0.02071,0.46652 0.02071,0.70325 0,2.5632 -0.782746,4.87628 -2.024988,6.5316 -1.242165,1.65532 -2.922915,2.64663 -4.765422,2.64663 -1.842368,0 -3.523188,-0.99131 -4.765297,-2.64663 -1.242221,-1.65532 -2.024779,-3.9684 -2.024779,-6.5316 0,-0.23673 0.0091,-0.47116 0.02071,-0.70325 0.354,0.33056 0.786448,0.59872 1.262183,0.82139 -0.184293,0.78574 0.01213,1.76299 0.522312,2.27364 0.940097,0.93947 3.048227,0.93947 3.98838,0 0.291176,-0.29111 0.416028,-0.75478 0.399524,-1.22024 0.213027,0.015 0.41448,0.015 0.597414,0.015 0.18294,0 0.384456,0 0.597546,-0.015 -0.0168,0.46517 0.108327,0.92913 0.399524,1.22024 0.940153,0.93947 3.048234,0.93947 3.988255,0 0.510876,-0.51065 0.706695,-1.48783 0.522311,-2.27328 0.475861,-0.22289 0.908261,-0.49113 1.262177,-0.82175 z m -6.769813,5.08805 c -0.997064,1.59436 -2.991128,1.79379 -3.988122,1.79379 0.996994,0.79722 3.988059,0.79722 3.988059,0 0,0.79722 2.991323,0.79722 3.988324,0 -0.997001,0 -2.991197,-0.19943 -3.988324,-1.79379 z"
         id="path18804" />
    </g>
    <path
       style="fill:#000000;fill-opacity:1;stroke:none;stroke-width:0.99999994;stroke-opacity:1"
       inkscape:connector-curvature="0"
       d="m 33.618716,898.28774 c -1.86252,0 -3.20214,0.9868 -3.97583,2.22594 -0.69186,1.10827 -0.97969,2.39374 -1.03579,3.51955 -2.11153,1.04527 -4.45061,2.09908 -6.33381,3.17634 -0.98795,0.56531 -1.849236,1.13376 -2.497515,1.74461 -0.648279,0.61083 -1.12672,1.29876 -1.12672,2.1102 0,0.34523 0.168478,0.62675 0.35815,0.83315 0.190016,0.20659 0.417491,0.36689 0.676797,0.51655 0.51845,0.29944 1.172098,0.5492 1.890958,0.76493 1.06822,0.32091 2.26432,0.55952 3.30438,0.66151 -1.03435,1.78447 -2.41119,3.42364 -3.61793,4.99421 -1.394716,1.81498 -2.612355,3.55576 -2.612355,5.48943 0,0.27637 -0.0089,0.4919 0.02124,0.70866 0.02559,0.21651 0.08646,0.48714 0.30418,0.70123 0.217689,0.21454 0.484058,0.27206 0.701067,0.29567 0.217075,0.0235 0.4357,0.0196 0.716127,0.0196 l 7.694551,0 c 0.55864,0 0.96769,0.0338 1.38841,-0.23678 0.42082,-0.27083 0.5743,-0.64064 0.87405,-1.19319 l 0.009,-0.0196 0.009,-0.0196 c 0,0 0.67067,-1.36522 1.47091,-2.72007 0.40012,-0.67736 0.83456,-1.35204 1.21245,-1.83004 0.18907,-0.23901 0.36582,-0.42845 0.49317,-0.53546 0.0391,-0.0319 0.0571,-0.0379 0.0817,-0.0516 0.0255,0.0196 0.0426,0.0196 0.0817,0.0516 0.12735,0.1074 0.30417,0.29645 0.49316,0.53546 0.37791,0.478 0.81224,1.15268 1.21236,1.83004 0.80024,1.35485 1.47109,2.72007 1.47109,2.72007 l 0.009,0.0196 0.009,0.0196 c 0.29982,0.55255 0.45179,0.92021 0.86986,1.19163 0.41784,0.27141 0.82605,0.23815 1.37667,0.23815 l 7.72862,0 c 0.27591,0 0.49112,0 0.70667,-0.0215 0.21546,-0.0235 0.48279,-0.0835 0.69817,-0.29901 0.21521,-0.21578 0.2748,-0.48341 0.29863,-0.69894 0.0248,-0.21572 0.0212,-0.43124 0.0212,-0.70743 0,-1.93385 -1.21764,-3.67463 -2.61236,-5.48981 -1.20682,-1.57039 -2.58341,-3.20954 -3.61801,-4.99401 1.04014,-0.1015 2.23625,-0.34061 3.30439,-0.66132 0.71894,-0.21592 1.37258,-0.46549 1.89095,-0.76493 0.25931,-0.14909 0.48695,-0.31015 0.6768,-0.51656 0.18984,-0.20659 0.35823,-0.48792 0.35823,-0.83327 0,-0.81144 -0.47844,-1.49924 -1.12671,-2.11007 -0.64828,-0.61105 -1.50964,-1.1795 -2.49753,-1.74458 -1.88319,-1.0773 -4.22227,-2.13131 -6.33388,-3.17635 -0.0563,-1.12581 -0.34403,-2.41146 -1.0358,-3.51957 -0.77367,-1.23913 -2.11323,-2.22575 -3.97583,-2.22575 z"
       id="path18806" />
    <path
       id="path13292"
       d="m 31.997526,896.91909 c -1.86252,0 -3.20214,0.9868 -3.97583,2.22594 -0.69186,1.10827 -0.97969,2.39374 -1.03579,3.51955 -2.11153,1.04527 -4.45061,2.09908 -6.333815,3.17634 -0.987948,0.56531 -1.849234,1.13376 -2.497513,1.74461 -0.648279,0.61083 -1.12672,1.29876 -1.12672,2.1102 0,0.34523 0.168478,0.62675 0.35815,0.83315 0.190016,0.20659 0.417491,0.36689 0.676797,0.51655 0.51845,0.29944 1.172102,0.5492 1.890959,0.76493 1.068222,0.32091 2.264322,0.55952 3.304382,0.66151 -1.03435,1.78447 -2.41119,3.42364 -3.617937,4.99421 -1.394712,1.81498 -2.612351,3.55576 -2.612351,5.48943 0,0.27637 -0.0089,0.4919 0.02124,0.70866 0.02559,0.21651 0.08646,0.48714 0.30418,0.70123 0.217689,0.21454 0.484058,0.27206 0.701067,0.29567 0.217075,0.0235 0.4357,0.0196 0.716127,0.0196 l 7.694554,0 c 0.55864,0 0.96769,0.0338 1.38841,-0.23678 0.42082,-0.27083 0.5743,-0.64064 0.87405,-1.19319 l 0.009,-0.0196 0.009,-0.0196 c 0,0 0.67067,-1.36522 1.47091,-2.72007 0.40012,-0.67736 0.83456,-1.35204 1.21245,-1.83004 0.18907,-0.23901 0.36582,-0.42845 0.49317,-0.53546 0.0391,-0.0319 0.0571,-0.0379 0.0817,-0.0516 0.0255,0.0196 0.0426,0.0196 0.0817,0.0516 0.12735,0.1074 0.30417,0.29645 0.49316,0.53546 0.37791,0.478 0.81224,1.15268 1.21236,1.83004 0.80024,1.35485 1.47109,2.72007 1.47109,2.72007 l 0.009,0.0196 0.009,0.0196 c 0.29982,0.55255 0.45179,0.92021 0.86986,1.19163 0.41784,0.27141 0.82605,0.23815 1.37667,0.23815 l 7.72862,0 c 0.27591,0 0.49112,0 0.70667,-0.0215 0.21546,-0.0235 0.48279,-0.0835 0.69817,-0.29901 0.21521,-0.21578 0.2748,-0.48341 0.29863,-0.69894 0.0248,-0.21572 0.0212,-0.43124 0.0212,-0.70743 0,-1.93385 -1.21764,-3.67463 -2.61236,-5.48981 -1.20682,-1.57039 -2.58341,-3.20954 -3.61801,-4.99401 1.04014,-0.1015 2.23625,-0.34061 3.30439,-0.66132 0.71894,-0.21592 1.37258,-0.46549 1.89095,-0.76493 0.25931,-0.14909 0.48695,-0.31015 0.6768,-0.51656 0.18984,-0.20659 0.35823,-0.48792 0.35823,-0.83327 0,-0.81144 -0.47844,-1.49924 -1.12671,-2.11007 -0.64828,-0.61105 -1.50964,-1.1795 -2.49753,-1.74458 -1.88319,-1.0773 -4.22227,-2.13131 -6.33388,-3.17635 -0.0563,-1.12581 -0.34403,-2.41146 -1.0358,-3.51957 -0.77367,-1.23913 -2.11323,-2.22575 -3.97583,-2.22575 z"
       inkscape:connector-curvature="0"
       style="fill:#000080;fill-opacity:1;stroke:none;stroke-width:0.99999994;stroke-opacity:1" />
    <rect
       transform="matrix(0.86602541,0.49999999,-0.49999999,0.86602541,0,0)"
       ry="2.2375751"
       y="652.07715"
       x="652.78253"
       height="36.351048"
       width="36.290802"
       id="rect13923"
       style="fill:#d8c586;fill-opacity:1;stroke:none;stroke-width:2;stroke-linecap:round;stroke-linejoin:round;stroke-miterlimit:4;stroke-dasharray:none;stroke-dashoffset:0.60000002;stroke-opacity:1" />
    <path
       inkscape:connector-curvature="0"
       id="path13925"
       d="m 250.7448,902.74827 -13.66944,23.67618 8.85324,2.16109 11.1144,-19.2507 -6.2982,-6.58657 z m 7.72652,6.32279 -0.0661,0.12287 -0.8906,1.54257 0.85364,0.49284 0.95965,-1.66216 -0.8563,-0.496 z m -13.76185,-7.9442 -3.51693,6.0915 0.96039,0.55448 2.9771,-5.15648 3.30781,1.90976 0.53983,-0.93501 -4.2682,-2.46425 z m 12.26521,10.54422 -0.47991,0.83123 0.85333,0.49268 0.47992,-0.83124 -0.85334,-0.49267 z m -1.01974,1.76626 -7.07744,12.25847 0.85333,0.49267 7.07744,-12.25847 -0.85333,-0.49267 z m -15.94294,-7.18607 -4.85615,1.23185 1.36111,4.82174 1.05779,-1.83214 5.12185,2.9571 1.37945,-2.38928 -5.12185,-2.9571 1.0578,-1.83217 z m 6.05823,7.91976 c 0.35356,0.20412 0.31788,0.92778 -0.0796,1.61632 -0.3975,0.68848 -1.00637,1.0812 -1.35992,0.87707 -0.35356,-0.20412 -0.31789,-0.92778 0.0796,-1.61626 0.39753,-0.68854 1.00641,-1.08126 1.35996,-0.87713 z m -6.62027,-1.71651 -1.05796,1.83245 -5.12155,-2.95693 -1.37947,2.38931 5.12155,2.95693 -1.05779,1.83214 4.85661,-1.23194 -1.36139,-4.82196 z m -4.68997,5.90534 -1.83649,3.1809 0.96039,0.55448 1.83649,-3.1809 -0.96039,-0.55448 z m 13.57769,8.27095 -0.41982,0.72715 0.85333,0.49267 0.41982,-0.72715 -0.85333,-0.49267 z m -0.95966,1.66218 -0.68983,1.19482 0.85333,0.49267 0.68983,-1.19482 -0.85333,-0.49267 z m -19.78549,-8.23746 -0.53982,0.935 8.90955,5.14393 0.53982,-0.935 -8.90955,-5.14393 z m 15.50654,8.9527 -3.7409,-0.91314 11.59557,6.6947 0.53983,-0.93499 -8.3945,-4.84657 z"
       style="fill:#42290d;fill-opacity:1" />
    <text
       id="text23721"
       y="871.07623"
       x="232.05855"
       style="font-style:normal;font-variant:normal;font-weight:normal;font-stretch:normal;font-size:13.2px;line-height:125%;font-family:'Archivo Narrow';-inkscape-font-specification:'Archivo Narrow, Normal';text-align:start;letter-spacing:0px;word-spacing:0px;writing-mode:lr-tb;text-anchor:start;fill:#000000;fill-opacity:1;stroke:none;stroke-width:1px;stroke-linecap:butt;stroke-linejoin:miter;stroke-opacity:1"
       xml:space="preserve"><tspan
         y="871.07623"
         x="232.05855"
         id="tspan23723"
         sodipodi:role="line">Entrance/Exit</tspan></text>
    <path
       sodipodi:nodetypes="cc"
       inkscape:connector-curvature="0"
       id="path23725"
       d="m 268.28449,873.06848 -14.7006,22.6112"
       style="fill:none;fill-rule:evenodd;stroke:#000000;stroke-width:1px;stroke-linecap:butt;stroke-linejoin:miter;stroke-opacity:1;marker-end:url(#marker23727)" />
    <g
       transform="translate(-2.4223008)"
       id="g116">
      <circle
         style="fill:#000000;fill-opacity:1;stroke:none;stroke-width:1.79562;stroke-linecap:round;stroke-linejoin:round;stroke-miterlimit:4;stroke-dasharray:1.79562, 1.79562;stroke-dashoffset:0;stroke-opacity:1"
         id="circle111"
         cx="97.818283"
         cy="892.71783"
         r="14.642857" />
      <circle
         r="14.642857"
         cy="892.13782"
         cx="97.416527"
         id="circle95"
         style="fill:#42290d;fill-opacity:1;stroke:none;stroke-width:1.79562;stroke-linecap:round;stroke-linejoin:round;stroke-miterlimit:4;stroke-dasharray:1.79562, 1.79562;stroke-dashoffset:0;stroke-opacity:1" />
      <path
         inkscape:connector-curvature="0"
         style="font-variation-settings:normal;opacity:1;vector-effect:none;fill:#d8c586;fill-opacity:1;stroke:none;stroke-width:0.300574;stroke-linecap:butt;stroke-linejoin:round;stroke-miterlimit:4;stroke-dasharray:none;stroke-dashoffset:0;stroke-opacity:1;stop-color:#000000;stop-opacity:1"
         d="m 91.222607,882.73832 c -0.612866,-2.8e-4 -1.257729,0.0885 -1.936211,0.28665 a 0.39285494,0.39280853 0 0 0 -0.0057,0 0.39285494,0.39280853 0 0 0 -0.02017,0.0138 0.39285494,0.39280853 0 0 0 -0.01603,0 0.39285494,0.39280853 0 0 0 -0.01948,0.0138 0.39285494,0.39280853 0 0 0 -0.01609,0.0138 0.39285494,0.39280853 0 0 0 -0.01898,0.0138 0.39285494,0.39280853 0 0 0 -0.01427,0.0138 0.39285494,0.39280853 0 0 0 -0.01785,0.0138 0.39285494,0.39280853 0 0 0 -0.01383,0.0138 0.39285494,0.39280853 0 0 0 -0.01659,0.0152 0.39285494,0.39280853 0 0 0 -0.01244,0.0138 0.39285494,0.39280853 0 0 0 -0.01534,0.0167 0.39285494,0.39280853 0 0 0 -0.0096,0.0138 0.39285494,0.39280853 0 0 0 -0.01427,0.0194 0.39285494,0.39280853 0 0 0 -0.0083,0.0138 0.39285494,0.39280853 0 0 0 -0.01106,0.0194 0.39285494,0.39280853 0 0 0 -0.0083,0.0138 0.39285494,0.39280853 0 0 0 -0.0096,0.0207 0.39285494,0.39280853 0 0 0 -0.0069,0.0152 0.39285494,0.39280853 0 0 0 -0.0083,0.0208 0.39285494,0.39280853 0 0 0 -0.0057,0.0167 0.39285494,0.39280853 0 0 0 -0.0069,0.029 l -0.926007,4.62953 a 0.39285494,0.39280853 0 0 0 0.232636,0.43876 l 3.391882,1.4297 1.307613,6.70403 -4.819025,1.04665 a 0.39285494,0.39280853 0 0 0 -0.310176,0.37852 l -0.04399,3.16196 a 0.39285494,0.39280853 0 0 0 0.511751,0.37987 l 6.056855,-1.93568 0.997626,-0.1935 c 0.0083,0 0.01427,0 0.022,0 0.411716,0 0.799487,-0.19595 1.07023,-0.51563 0.270573,-0.31931 0.41212,-0.73553 0.411705,-1.16433 v 0 c 2.33e-4,-0.27172 -0.05694,-0.53904 -0.167259,-0.77966 l -1.045109,-5.39879 5.201152,2.19236 a 0.39285494,0.39280853 0 0 0 0.007,0 0.39285494,0.39280853 0 0 0 0.0226,0.0141 0.39285494,0.39280853 0 0 0 0.0143,0 0.39285494,0.39280853 0 0 0 0.0226,0 0.39285494,0.39280853 0 0 0 0.0173,0 0.39285494,0.39280853 0 0 0 0.0202,0 0.39285494,0.39280853 0 0 0 0.0202,0 0.39285494,0.39280853 0 0 0 0.0178,0 0.39285494,0.39280853 0 0 0 0.0226,0 0.39285494,0.39280853 0 0 0 0.0148,0 l 3.44905,-0.21838 a 0.39285494,0.39280853 0 0 0 0.32966,-0.22485 l 2.08921,-4.42234 h 3.6e-4 a 0.39285494,0.39280853 0 0 0 -0.22789,-0.54319 c -0.32199,-0.17658 -0.65348,-0.30018 -0.99066,-0.37833 l -12.731466,-4.94025 a 0.39285494,0.39280853 0 0 0 -0.03331,-0.0138 c -0.55075,-0.15888 -1.131619,-0.2485 -1.74449,-0.2489 z m -1.089521,0.56751 a 0.39285494,0.39280853 0 0 1 0.152483,0.029 l 12.023471,4.8183 a 0.3931858,0.39313934 0 0 1 0.23856,0.44621 0.39285494,0.39280853 0 0 0 -0.0292,0.0611 l -0.0344,0.0857 a 0.3931858,0.39313934 0 0 1 -0.46693,0.13827 l -12.023352,-4.81965 a 0.39285494,0.39280853 0 0 1 0.139586,-0.75862 z m 14.775844,5.30771 c 0.18192,0 0.36184,0.0208 0.54038,0.0581 l 0.60952,0.23664 -0.97884,2.07211 c 0.038,-0.16784 0.057,-0.33422 0.0552,-0.49021 -0.006,-0.36104 -0.12154,-0.65958 -0.32442,-0.80891 -0.20287,-0.14933 -0.48335,-0.14395 -0.75986,0.0141 -0.0683,0.0385 -0.13662,0.0857 -0.20288,0.13955 0.0256,-0.033 0.0493,-0.0706 0.0697,-0.11065 0.0588,-0.11341 0.0929,-0.24599 0.0918,-0.363 0,-0.1175 -0.0392,-0.21667 -0.10593,-0.26744 -0.0333,-0.025 -0.0719,-0.0385 -0.1138,-0.0373 -0.0416,0 -0.087,0.0141 -0.1304,0.0385 -0.0873,0.0495 -0.16875,0.14548 -0.22746,0.25968 -0.0588,0.11481 -0.0929,0.24587 -0.0918,0.36312 0,0.11756 0.0391,0.21673 0.10592,0.26744 0.0669,0.0513 0.15706,0.0471 0.24421,0 -0.14119,0.14744 -0.27068,0.32677 -0.37595,0.52602 -0.19053,0.36037 -0.29879,0.77732 -0.29462,1.13837 0.006,0.36104 0.12403,0.66068 0.32693,0.81019 0.20275,0.14945 0.48069,0.14255 0.75718,-0.0141 0.17273,-0.0968 0.34285,-0.24892 0.49252,-0.43766 l -0.34781,0.73608 -2.59491,0.16534 1.54053,-3.82014 c 0.6052,-0.3203 1.16915,-0.47598 1.71463,-0.47145 z m -12.326512,1.57725 0.66226,0.27917 1.229533,5.77035 c -0.124312,-0.0373 -0.254081,-0.058 -0.386363,-0.058 -0.112698,0 -0.223309,0.0153 -0.330294,0.0428 l -1.175136,-6.03408 z m 1.544674,0.65116 0.703704,0.29658 0.951129,4.91348 c -0.112974,-0.0306 -0.230072,-0.0483 -0.349313,-0.0483 -0.06804,0 -0.135098,0 -0.201217,0.0165 l -1.104234,-5.17835 z m 1.305476,5.95065 c 0.15978,0 0.341469,0.0816 0.474398,0.23872 0.132886,0.15692 0.224673,0.40889 0.224315,0.65311 3.89e-4,0.24403 -0.0914,0.49614 -0.224252,0.65292 -0.06305,0.0747 -0.137177,0.13137 -0.214515,0.17133 l -0.254063,0.0501 c 0.08712,-0.21807 0.131648,-0.45495 0.131365,-0.69569 v 0 c 1.63e-4,-0.15611 -0.01841,-0.31058 -0.05518,-0.45935 a 0.39285494,0.39280853 0 0 0 -0.0083,-0.0926 L 95.396541,896.796 c 0.01244,0 0.02432,0 0.0362,0 z m -1.34472,0.17775 c 0.159773,0 0.341588,0.0816 0.474531,0.23878 0.132892,0.15696 0.224553,0.40889 0.224201,0.65311 3.52e-4,0.24422 -0.09141,0.49613 -0.22427,0.6531 -0.132892,0.15696 -0.314689,0.23866 -0.474519,0.23866 -0.159729,0 -0.340388,-0.0816 -0.47333,-0.23866 -0.132898,-0.15697 -0.225754,-0.40888 -0.22539,-0.6531 -3.64e-4,-0.24422 0.09252,-0.49615 0.22539,-0.65311 0.132886,-0.15697 0.313601,-0.23878 0.47333,-0.23878 z m -1.426527,0.4379 c -0.0362,0.14726 -0.05462,0.29983 -0.05405,0.45399 v 0 c 0,0.4288 0.140968,0.84502 0.411598,1.16433 0.03501,0.0403 0.07122,0.0802 0.109518,0.11615 l -4.490315,1.43507 0.03205,-2.30404 3.991228,-0.8669 z"
         id="path13310" />
    </g>
    <g
       id="g154"
       transform="translate(121.08921,62.286407)">
      <circle
         style="fill:#000000;fill-opacity:1;stroke:none;stroke-width:1.79562;stroke-linecap:round;stroke-linejoin:round;stroke-miterlimit:4;stroke-dasharray:1.79562, 1.79562;stroke-dashoffset:0;stroke-opacity:1"
         id="circle148"
         cx="28.53257"
         cy="860.30713"
         r="14.642857" />
      <circle
         r="14.642857"
         cy="859.72711"
         cx="28.130814"
         id="circle150"
         style="fill:#42290d;fill-opacity:1;stroke:none;stroke-width:1.79562;stroke-linecap:round;stroke-linejoin:round;stroke-miterlimit:4;stroke-dasharray:1.79562, 1.79562;stroke-dashoffset:0;stroke-opacity:1" />
      <path
         id="path152"
         d="m 28.130825,849.7535 c 0.906628,0 1.50833,0.45254 2.315376,0.90084 0.764876,0.42484 1.726546,0.78913 3.082532,0.51225 0.643524,0.64317 1.297319,1.28665 1.994643,1.72224 0.570577,0.35661 1.211702,0.56904 1.851279,0.46873 -0.183463,1.44338 -1.060221,2.8555 -1.976716,3.59461 -2.416787,-0.80086 -4.839688,-1.2015 -7.262519,-1.2015 -2.425154,0 -4.850252,0.40142 -7.269318,1.20371 -0.917353,-0.73847 -1.795463,-2.15194 -1.979129,-3.59682 0.639396,0.0999 1.280703,-0.11198 1.851286,-0.46858 0.697262,-0.43574 1.350987,-1.07906 1.994587,-1.72223 1.355931,0.27687 2.317587,-0.0877 3.082539,-0.51241 0.807165,-0.44845 1.408811,-0.90084 2.31544,-0.90084 z m 0.0091,0.8435 c -0.855429,0 -2.29556,1.15588 -2.29556,1.15588 0,0 0.916174,3.46795 2.29556,3.46795 1.379498,0 2.29563,-3.46795 2.29563,-3.46795 0,0 -1.440187,-1.15588 -2.29563,-1.15588 z m 0,5.92786 c 2.279063,0 4.558384,0.37247 6.843026,1.1108 0.09427,0.58146 -0.06519,1.01354 -0.407899,1.41319 -0.382378,0.44606 -1.024472,0.82481 -1.785597,1.10987 -1.522234,0.57055 -3.496224,0.77247 -4.649593,0.77247 -1.153229,0 -3.12717,-0.20192 -4.649405,-0.7724 -0.761173,-0.28513 -1.403135,-0.66381 -1.785652,-1.10994 -0.342823,-0.39965 -0.502168,-0.83152 -0.408031,-1.41319 2.284774,-0.73833 4.563962,-1.1108 6.843088,-1.1108 z m 7.478698,2.46673 c 0.424019,0.10296 1.162796,0.33569 1.29552,0.73369 0.362695,1.08769 -0.730521,2.754 -1.557251,3.80527 0.227768,-0.94988 0.350542,-1.96029 0.350542,-3.00785 0,-0.52049 -0.03054,-1.03179 -0.08881,-1.53111 z m -14.95732,0 a 13.205787,13.204228 0 0 0 -0.08882,1.53091 c 0,1.04776 0.122704,2.05817 0.350618,3.00797 -0.826869,-1.05119 -1.920078,-2.7175 -1.557243,-3.80519 0.132542,-0.398 0.871493,-0.63073 1.295373,-0.73369 z m 14.248435,0.82766 c 0.01367,0.2323 0.02071,0.46652 0.02071,0.70325 0,2.5632 -0.782746,4.87628 -2.024988,6.5316 -1.242165,1.65532 -2.922915,2.64663 -4.765422,2.64663 -1.842368,0 -3.523188,-0.99131 -4.765297,-2.64663 -1.242221,-1.65532 -2.024779,-3.9684 -2.024779,-6.5316 0,-0.23673 0.0091,-0.47116 0.02071,-0.70325 0.354,0.33056 0.786448,0.59872 1.262183,0.82139 -0.184293,0.78574 0.01213,1.76299 0.522312,2.27364 0.940097,0.93947 3.048227,0.93947 3.98838,0 0.291176,-0.29111 0.416028,-0.75478 0.399524,-1.22024 0.213027,0.015 0.41448,0.015 0.597414,0.015 0.18294,0 0.384456,0 0.597546,-0.015 -0.0168,0.46517 0.108327,0.92913 0.399524,1.22024 0.940153,0.93947 3.048234,0.93947 3.988255,0 0.510876,-0.51065 0.706695,-1.48783 0.522311,-2.27328 0.475861,-0.22289 0.908261,-0.49113 1.262177,-0.82175 z m -6.769813,5.08805 c -0.997064,1.59436 -2.991128,1.79379 -3.988122,1.79379 0.996994,0.79722 3.988059,0.79722 3.988059,0 0,0.79722 2.991323,0.79722 3.988324,0 -0.997001,0 -2.991197,-0.19943 -3.988324,-1.79379 z"
         style="font-variation-settings:normal;opacity:1;vector-effect:none;fill:#d8c586;fill-opacity:1;stroke:none;stroke-width:0.300574;stroke-linecap:butt;stroke-linejoin:round;stroke-miterlimit:4;stroke-dasharray:none;stroke-dashoffset:0;stroke-opacity:1;stop-color:#000000;stop-opacity:1"
         inkscape:connector-curvature="0" />
    </g>
  </g>
</svg>
