<?xml version="1.0" encoding="UTF-8" standalone="no"?>
<!-- Created with Inkscape (http://www.inkscape.org/) -->

<svg
   xmlns:dc="http://purl.org/dc/elements/1.1/"
   xmlns:cc="http://creativecommons.org/ns#"
   xmlns:rdf="http://www.w3.org/1999/02/22-rdf-syntax-ns#"
   xmlns:svg="http://www.w3.org/2000/svg"
   xmlns="http://www.w3.org/2000/svg"
   xmlns:sodipodi="http://sodipodi.sourceforge.net/DTD/sodipodi-0.dtd"
   xmlns:inkscape="http://www.inkscape.org/namespaces/inkscape"
   width="150"
   height="300"
   viewBox="0 0 150 300"
   id="svg24096"
   version="1.1"
   inkscape:version="0.91 r13725"
   sodipodi:docname="figure_security.svg">
  <defs
     id="defs24098">
    <filter
       inkscape:collect="always"
       style="color-interpolation-filters:sRGB"
       id="filter27124"
       x="-0.06"
       width="1.12"
       y="-0.06"
       height="1.12">
      <feGaussianBlur
         inkscape:collect="always"
         stdDeviation="1.2946429"
         id="feGaussianBlur27126" />
    </filter>
    <filter
       inkscape:collect="always"
       style="color-interpolation-filters:sRGB"
       id="filter27146"
       x="-0.033585537"
       width="1.0671711"
       y="-0.038781236"
       height="1.0775625">
      <feGaussianBlur
         inkscape:collect="always"
         stdDeviation="0.31242113"
         id="feGaussianBlur27148" />
    </filter>
    <filter
       inkscape:collect="always"
       style="color-interpolation-filters:sRGB"
       id="filter28409"
       x="-0.036"
       width="1.072"
       y="-0.036"
       height="1.072">
      <feGaussianBlur
         inkscape:collect="always"
         stdDeviation="3.1708472"
         id="feGaussianBlur28411" />
    </filter>
    <filter
       inkscape:collect="always"
       style="color-interpolation-filters:sRGB"
       id="filter28441"
       x="-0.051266087"
       width="1.1025322"
       y="-0.051266559"
       height="1.1025331">
      <feGaussianBlur
         inkscape:collect="always"
         stdDeviation="4.5154876"
         id="feGaussianBlur28443" />
    </filter>
  </defs>
  <sodipodi:namedview
     id="base"
     pagecolor="#ffffff"
     bordercolor="#666666"
     borderopacity="1.0"
     inkscape:pageopacity="0.0"
     inkscape:pageshadow="2"
     inkscape:zoom="2.8"
     inkscape:cx="36.694076"
     inkscape:cy="105.84909"
     inkscape:document-units="px"
     inkscape:current-layer="layer1"
     showgrid="false"
     units="px"
     inkscape:window-width="1920"
     inkscape:window-height="1017"
     inkscape:window-x="-8"
     inkscape:window-y="-8"
     inkscape:window-maximized="1" />
  <metadata
     id="metadata24101">
    <rdf:RDF>
      <cc:Work
         rdf:about="">
        <dc:format>image/svg+xml</dc:format>
        <dc:type
           rdf:resource="http://purl.org/dc/dcmitype/StillImage" />
        <dc:title></dc:title>
      </cc:Work>
    </rdf:RDF>
  </metadata>
  <g
     inkscape:label="Layer 1"
     inkscape:groupmode="layer"
     id="layer1"
     transform="translate(0,-752.36216)">
    <path
       inkscape:connector-curvature="0"
       id="path28413"
       d="m -184.66345,1109.0541 a 105.69491,105.69491 0 0 0 -105.69532,105.6953 105.69491,105.69491 0 0 0 105.69532,105.6934 105.69491,105.69491 0 0 0 105.695308,-105.6934 105.69491,105.69491 0 0 0 -105.695308,-105.6953 z m 0,17.4804 a 88.214287,88.214287 0 0 1 88.214838,88.2149 88.214287,88.214287 0 0 1 -88.214838,88.2129 88.214287,88.214287 0 0 1 -88.21485,-88.2129 88.214287,88.214287 0 0 1 88.21485,-88.2149 z"
       style="opacity:1;fill:#000000;fill-opacity:1;stroke:none;stroke-width:1;stroke-linecap:round;stroke-linejoin:round;stroke-miterlimit:4;stroke-dasharray:none;stroke-dashoffset:0;stroke-opacity:1;filter:url(#filter28441)"
       transform="matrix(0,0.27273076,-0.27273076,0,371.26086,955.5327)" />
    <circle
       style="opacity:1;fill:#000000;fill-opacity:1;stroke:none;stroke-width:1;stroke-linecap:round;stroke-linejoin:round;stroke-miterlimit:4;stroke-dasharray:none;stroke-dashoffset:0;stroke-opacity:1;filter:url(#filter28409)"
       id="circle28391"
       cx="-406.82556"
       cy="1215.4838"
       r="105.69491"
       transform="matrix(0,0.27273076,-0.27273076,0,449.47515,1058.0327)" />
    <path
       d="m 412.98949,1103.3571 5.58135,9.6672 -5.58135,9.6672 -11.1627,0 -5.58135,-9.6672 5.58135,-9.6672 z"
       inkscape:randomized="0"
       inkscape:rounded="0"
       inkscape:flatsided="true"
       sodipodi:arg2="-0.52359878"
       sodipodi:arg1="-1.0471976"
       sodipodi:r2="9.6671848"
       sodipodi:r1="11.162703"
       sodipodi:cy="1113.0243"
       sodipodi:cx="407.40814"
       sodipodi:sides="6"
       id="path27128"
       style="font-style:normal;font-weight:normal;font-size:medium;line-height:125%;font-family:sans-serif;letter-spacing:0px;word-spacing:0px;fill:#000000;fill-opacity:1;stroke:none;stroke-width:0.06688002;stroke-linecap:butt;stroke-linejoin:round;stroke-miterlimit:4;stroke-dasharray:none;stroke-dashoffset:0;stroke-opacity:1;filter:url(#filter27146)"
       sodipodi:type="star"
       transform="matrix(4.6654754,0,0,4.6768888,-1836.1234,-4399.7937)" />
    <circle
       r="25.892859"
       cy="993.61212"
       cx="53.392857"
       id="circle27090"
       style="opacity:1;fill:#000000;fill-opacity:1;stroke:none;stroke-width:1;stroke-linecap:round;stroke-linejoin:round;stroke-miterlimit:4;stroke-dasharray:none;stroke-dashoffset:0;stroke-opacity:1;filter:url(#filter27124)" />
    <path
       transform="matrix(4.6654754,0,0,4.6768888,-1838.1234,-4401.7937)"
       sodipodi:type="star"
       style="font-style:normal;font-weight:normal;font-size:medium;line-height:125%;font-family:sans-serif;letter-spacing:0px;word-spacing:0px;fill:#d8c586;fill-opacity:1;stroke:none;stroke-width:0.06688002;stroke-linecap:butt;stroke-linejoin:round;stroke-miterlimit:4;stroke-dasharray:none;stroke-dashoffset:0;stroke-opacity:1"
       id="path15325"
       sodipodi:sides="6"
       sodipodi:cx="407.40814"
       sodipodi:cy="1113.0243"
       sodipodi:r1="11.162703"
       sodipodi:r2="9.6671848"
       sodipodi:arg1="-1.0471976"
       sodipodi:arg2="-0.52359878"
       inkscape:flatsided="true"
       inkscape:rounded="0"
       inkscape:randomized="0"
       d="m 412.98949,1103.3571 5.58135,9.6672 -5.58135,9.6672 -11.1627,0 -5.58135,-9.6672 5.58135,-9.6672 z" />
    <path
       style="fill:#42290d;fill-opacity:1;stroke:none;stroke-width:10;stroke-linecap:round;stroke-linejoin:round;stroke-miterlimit:4;stroke-dasharray:none;stroke-dashoffset:0;stroke-opacity:1"
       d="m 60.337742,768.27262 c -0.892871,0.0242 -2.26629,0.40669 -2.122062,0.9637 0.46548,0.49778 0.74836,1.20797 1.079637,1.84611 0.738749,1.42304 1.306823,3.02527 1.761975,4.92373 0.419776,0.29649 0.570996,0.25241 1.18711,0.11329 0.4113,-0.0927 0.766081,-0.14699 0.896027,-0.46829 0.184623,-0.5241 0.308512,-1.03772 0.453757,-1.56617 0.16107,-0.58619 0.348784,-1.18827 0.675794,-1.79232 0.67442,-1.24575 1.36323,-2.27941 1.733288,-3.25319 0.136322,-0.40144 -0.92549,-0.56848 -1.353811,-0.5705 -0.917023,-0.005 -2.083807,0.0274 -3.794729,-0.15367 -0.130138,-0.0347 -0.310951,-0.0483 -0.516986,-0.0428 z m -3.178138,0.55361 c -0.103976,-0.0119 -0.207466,0.01 -0.300327,0.0588 -1.239611,0.67487 -2.455452,0.16325 -3.377206,1.03434 -0.307528,0.2907 -0.390418,0.77297 -0.09731,1.07835 1.783293,1.85778 1.893214,2.46115 3.49926,5.45912 1.176564,0.83318 2.486597,0.19503 2.849579,0.0402 0.386352,-0.17113 0.669376,-0.52646 0.547518,-0.93261 -0.236489,-2.62387 -1.309794,-3.91135 -2.493516,-6.12918 -0.0049,-0.31807 -0.316404,-0.58184 -0.62805,-0.60865 z m 9.644582,0.2941 c -0.31162,0.0268 -0.622458,0.29104 -0.628003,0.60916 -1.183721,2.21782 -2.257126,3.50526 -2.493546,6.12915 -0.12181,0.40615 0.161075,0.76151 0.54754,0.93261 1.956261,0.8664 1.29012,0.26274 2.156086,0.40294 0.416901,0.0676 0.713175,-0.0696 0.913287,-0.4429 1.606046,-2.99797 1.715963,-3.60139 3.499278,-5.45919 0.293112,-0.30534 0.210322,-0.78808 -0.09731,-1.07878 -0.921754,-0.87122 -2.357424,-0.35905 -3.596992,-1.03389 -0.09255,-0.0507 -0.19652,-0.0681 -0.3003,-0.059 z m -14.78382,1.39466 c -0.103968,0.012 -0.203418,0.0444 -0.286142,0.11017 -1.105663,0.87886 -2.607624,0.62208 -3.366595,1.63948 -0.25321,0.33944 -0.260068,0.83964 0.08874,1.07922 2.150971,1.47835 2.678264,1.87264 4.381589,4.77357 1.301614,0.6176 2.699438,-0.27466 3.030449,-0.49004 0.351328,-0.23542 0.569448,-0.6344 0.379903,-1.01348 -0.681818,-2.544 -1.959423,-3.62715 -3.504992,-5.60755 -0.05996,-0.31238 -0.411118,-0.51879 -0.722694,-0.49142 z m 19.85715,0.52607 c -0.311951,-0.0239 -0.660217,0.18882 -0.715602,0.50208 -1.516515,2.00294 -2.778496,3.1044 -3.423171,5.6582 -0.183914,0.38182 0.0397,0.77754 0.39451,1.00768 0.334125,0.21056 1.74506,1.08232 3.037511,0.44566 2.055871,-2.7066 2.259053,-3.28505 4.311258,-4.83759 0.337343,-0.25521 0.331155,-0.74439 0.07281,-1.08012 -0.7737,-1.00618 -2.271639,-0.72764 -3.390031,-1.59014 -0.08351,-0.0648 -0.18343,-0.0982 -0.287472,-0.10589 z m -24.616025,1.98604 c -0.159409,0.005 -0.313525,0.064 -0.417945,0.18356 -0.929756,1.0648 -2.452412,1.08456 -3.016294,2.22281 -0.188188,0.37981 -0.102541,0.86691 0.280389,1.04549 2.357807,1.09925 3.296743,1.37035 5.361228,3.86229 1.391162,0.37166 2.411387,-0.72071 2.698316,-0.99252 0.303341,-0.29513 0.445998,-0.72699 0.191519,-1.06545 -1.12738,-2.37878 -2.578336,-3.21238 -4.454129,-4.88025 -0.09588,-0.24701 -0.377307,-0.38504 -0.643062,-0.37586 z m 29.31428,0.70689 c -0.265703,-0.012 -0.547657,0.12834 -0.643515,0.37545 -1.875771,1.66787 -3.326722,2.50148 -4.454107,4.88024 -0.254497,0.33851 -0.111822,0.77076 0.191523,1.06589 0.286955,0.27185 1.50177,1.40285 2.892905,1.0312 2.541177,-2.25248 2.852728,-3.22128 5.166644,-4.3426 0.380329,-0.18428 0.468955,-0.66615 0.280858,-1.0459 -0.56386,-1.13827 -2.087016,-0.71597 -3.016763,-1.78075 -0.104686,-0.1195 -0.258072,-0.17806 -0.417515,-0.18356 z m -33.375234,2.73604 c -0.26582,-0.0191 -0.551084,0.10922 -0.65279,0.35408 -0.543208,1.30706 -1.680778,1.71247 -2.156516,2.89064 -0.158692,0.39309 -0.03666,0.87464 0.359538,1.02103 0.723812,0.26728 4.102897,1.61572 4.771699,1.98424 0.70069,0.38609 0.451899,0.43925 1.637312,0.93216 0.384187,0.15989 0.725813,0.14316 0.938506,-0.0507 0.72336,-0.65868 1.248886,-1.28596 1.657173,-1.89895 0.193667,-0.37686 -0.145363,-0.69952 -0.494003,-0.93881 -1.823553,-1.89323 -3.340186,-3.11752 -5.647401,-4.09734 -0.101589,-0.12213 -0.253996,-0.18546 -0.413518,-0.19646 z m 38.401672,0.0421 c -0.159404,0.012 -0.311955,0.0743 -0.413548,0.19622 -2.307272,0.97989 -4.292968,2.67539 -6.116613,4.56878 -0.730278,0.53781 0.865061,3.09335 2.257371,2.97547 2.00964,-1.42357 4.214831,-2.31579 6.878223,-3.29937 0.396345,-0.14651 0.517873,-0.6279 0.359129,-1.02102 -0.475756,-1.17816 -1.768516,-1.75953 -2.311772,-3.06659 -0.101589,-0.24464 -0.386922,-0.37187 -0.65279,-0.35363 z m -20.674937,0.96724 c -1.082133,0.0645 -2.128085,0.21463 -3.125967,0.4474 l 0,3.59264 -3.336933,0 0,-2.44455 c -1.144297,0.53307 -2.193289,1.18135 -3.125563,1.92741 l 0,0.51714 -0.606807,0 c -1.038803,0.93081 -1.911835,1.98802 -2.585063,3.13993 l 3.19187,0 0,3.38201 -4.517819,0 c -0.02809,0.12859 -0.05687,0.2571 -0.08042,0.387 l -0.496243,2.75334 5.09453,0 0,4.10713 1.56256,4.92644 1.563007,-4.92644 0,-4.10713 3.336929,0 0,4.10713 1.563003,4.92644 1.562968,-4.92644 0,-4.10713 3.337403,0 0,4.10713 1.563029,4.92644 1.562081,-4.92644 0,-4.10713 3.337377,0 0,4.10713 1.563007,4.92644 1.563012,-4.92644 0,-4.10713 5.037454,0 -0.548418,-2.22329 c 0,-0.29706 -0.04166,-0.60343 -0.119675,-0.91705 l -4.369218,0 0,-3.38201 2.385174,0 c -1.395445,-1.58872 -3.359651,-3.14636 -5.51114,-4.40528 l 0,1.26535 -3.337408,0 0,-2.90353 c -1.057793,-0.42092 -2.111899,-0.74186 -3.12511,-0.94188 l 0,3.84543 -3.337381,0 0,-4.04006 z m 24.52005,3.51487 c -0.104681,0.005 -0.20603,0.0337 -0.29233,0.0947 -2.154842,0.77264 -4.431264,1.99686 -7.085206,2.82311 -0.398419,0.14053 -0.517329,0.57949 -0.427246,0.9939 0.456361,2.09827 1.062381,1.86039 1.183504,2.70316 0.06043,0.41981 0.643893,0.67347 0.989367,0.42964 2.007962,-1.4171 3.979804,-2.57079 7.085215,-2.82268 0.420898,-0.0339 0.559485,-0.5913 0.427699,-0.99434 -0.395006,-1.20795 -0.996025,-1.29937 -1.183983,-2.70313 -0.04236,-0.31532 -0.383325,-0.53634 -0.69702,-0.52431 z m -46.120647,0.0413 c -0.313686,-0.0119 -0.655234,0.20961 -0.697442,0.52472 -0.187958,1.40376 -0.7496,1.33928 -1.144614,2.54725 -0.131804,0.40298 0.02139,0.87491 0.427229,0.99388 2.723747,0.79968 5.081297,1.34439 7.18252,2.6276 0.360821,0.22036 0.929008,-0.012 0.989346,-0.42961 0.121097,-0.84277 0.591382,-0.25347 1.047752,-2.35174 0.08993,-0.41441 -0.02901,-0.85386 -0.427673,-0.99434 -2.249325,-1.35472 -4.60364,-2.47607 -7.084762,-2.82266 -0.08613,-0.0612 -0.187719,-0.0911 -0.292356,-0.0951 z m 15.137697,3.62376 3.336933,0 0,3.38205 -3.336933,0 0,-3.38205 z m 6.4629,0 3.337407,0 0,3.38205 -3.337407,0 0,-3.38205 z m 6.462517,0 3.337381,0 0,3.38205 -3.337381,0 0,-3.38205 z m 20.087143,0.76201 c -0.104925,0.002 -0.207222,0.0287 -0.295013,0.0875 -2.489002,0.28353 -4.871109,1.34504 -7.153758,2.6423 -0.401842,0.13002 -0.492912,0.56059 -0.451995,0.98275 0.115391,1.18899 0.01666,1.77628 -0.126094,2.61565 -0.0709,0.41812 0.321635,0.40261 0.732422,0.30435 2.392092,-0.57228 4.847048,-0.1685 7.683595,-0.0887 0.422111,0.012 0.712558,-0.38973 0.71077,-0.81396 -0.0071,-1.2714 -0.263589,-3.78008 -0.416205,-5.18811 -0.03427,-0.31623 -0.369867,-0.54614 -0.683744,-0.54207 z m -50.508447,0.24388 c -0.313473,0.0167 -0.633325,0.26776 -0.647028,0.58562 -0.06139,1.41506 -0.155838,3.62308 -0.0797,4.89219 0.02522,0.42345 0.342044,0.80503 0.762441,0.76554 2.825388,-0.26539 5.197594,-0.41466 7.621692,0 0.416279,0.0712 0.860442,-0.35292 0.762493,-0.76554 -0.196755,-0.82823 -0.333385,-1.09551 -0.295469,-2.28947 0.01426,-0.42398 -0.105634,-0.8475 -0.515203,-0.95126 -2.361856,-1.14525 -4.807771,-2.04891 -7.309875,-2.16908 -0.0916,-0.0528 -0.194855,-0.0734 -0.29944,-0.0681 z m 3.982205,6.44106 c -1.280558,-0.0167 -2.528131,0.0686 -3.711979,0.30079 -0.41064,-0.0987 -0.670968,0.35144 -0.762498,0.76556 -0.286324,1.29578 -0.288494,2.41634 0,3.71213 0.09232,0.414 0.343557,0.81869 0.762498,0.76558 2.830241,-0.35913 5.142226,-0.27442 7.621669,0 0.41975,0.0464 0.860469,-0.35291 0.762472,-0.76558 -0.19652,-0.82825 0.345831,-1.59266 0,-3.71213 -0.06852,-0.41865 -0.340535,-0.78251 -0.762472,-0.76556 -1.315864,-0.16922 -2.629137,-0.28504 -3.90969,-0.30079 z m 43.102161,0 c -1.280557,0.0167 -2.594278,0.13145 -3.91016,0.30079 -0.421893,-0.0167 -0.693719,0.34691 -0.762015,0.76556 -0.345766,2.11947 0.196516,3.0594 0,3.88765 -0.09802,0.4126 0.34117,0.79996 0.762015,0.76551 2.506701,-0.20506 4.816451,-0.51211 7.622165,0 0.415449,0.0758 0.669876,-0.3515 0.762015,-0.76551 0.288499,-1.29578 0.28636,-2.59187 0,-3.88765 -0.09159,-0.41412 -0.351375,-0.86441 -0.762015,-0.76556 -1.183869,-0.23208 -2.431425,-0.31654 -3.712005,-0.30079 z m -0.04166,5.74707 c -1.280531,0.0168 -2.594226,0.13218 -3.910112,0.30122 -0.42192,-0.0167 -0.612326,0.36892 -0.76202,0.76554 -0.740276,1.96097 0.06828,2.74702 0,3.62685 -0.03283,0.4229 0.34107,0.7322 0.76202,0.76554 2.546478,0.20172 4.885707,0.51992 7.622113,0 0.414901,-0.0791 0.669854,-0.35153 0.762067,-0.76554 0.288473,-1.29575 0.286329,-2.33104 0,-3.62685 -0.0916,-0.4141 -0.351402,-0.86439 -0.762067,-0.76554 -1.183822,-0.23207 -2.431447,-0.31697 -3.712001,-0.30122 z m -42.941596,0.0978 c -1.280436,-0.0167 -2.553475,0.0366 -3.789376,0.2034 -0.410614,-0.099 -0.670968,0.35141 -0.762494,0.76551 -0.286328,1.29578 -0.288494,2.59187 0,3.88765 0.09208,0.41397 0.341696,0.73016 0.762494,0.76551 2.736601,0.23017 5.075287,0.15656 7.621673,0 0.421485,-0.0258 0.79527,-0.34264 0.76249,-0.76551 -0.06828,-0.87988 0.740224,-1.92671 0,-3.88767 -0.149651,-0.39664 -0.340579,-0.78249 -0.76249,-0.76552 -1.264332,-0.10445 -2.551861,-0.18786 -3.832297,-0.2034 z m 46.806196,5.73018 c -0.0502,-0.005 -0.101355,7e-5 -0.152738,0.0144 -2.703199,0.65082 -5.036554,0.10396 -7.622144,0 -0.421915,-0.0167 -0.787215,0.34251 -0.762019,0.76593 0.116344,1.96099 0.212697,3.00737 0,3.88721 -0.09945,0.41222 0.339934,0.75406 0.762019,0.76558 2.260715,0.0617 4.737419,0.34743 7.622144,0 0.419223,-0.0507 0.687788,-0.34797 0.762041,-0.76558 0.2303,-1.29576 -0.151316,-2.59139 0,-3.88721 0.04283,-0.36863 -0.258354,-0.75401 -0.609447,-0.77837 z m -50.748619,0.23423 c -0.351089,0.0242 -0.652433,0.40977 -0.609447,0.77842 0.151316,1.29576 -0.2303,2.35723 0,3.65301 0.07424,0.41762 0.340648,0.74664 0.762494,0.76554 2.884729,0.12955 5.360972,-0.38021 7.621673,0 0.416463,0.0703 0.862135,-0.3533 0.76249,-0.76554 -0.212698,-0.87982 -0.11634,-1.69204 0,-3.65301 0.02496,-0.42344 -0.340579,-0.78296 -0.76249,-0.76599 -2.585598,0.10397 -4.918448,0.65085 -7.621673,0 -0.05115,-0.0144 -0.102776,-0.0167 -0.152977,-0.0144 z m 5.841107,5.4036 c -1.894092,0.005 -3.699415,0.29873 -5.68806,0.12213 -0.420633,-0.0373 -0.700939,0.34634 -0.762494,0.76597 -0.190093,1.29583 -0.552536,2.59145 0,3.88719 0.166067,0.38999 0.340387,0.64125 0.762494,0.62917 2.884729,-0.0822 6.016954,-0.34045 7.815832,0.039 0.413257,0.0872 0.75407,-0.34187 0.762468,-0.76597 0.01905,-0.87986 0.208418,-1.8285 -0.194137,-3.78947 -0.08541,-0.41544 -0.34424,-0.70773 -0.76249,-0.76597 -0.661078,-0.092 -1.302235,-0.12332 -1.933613,-0.12238 z m 37.1328,0.12213 c -0.421541,-0.0251 -0.676751,0.35052 -0.76202,0.76597 -0.402572,1.96099 -0.01905,3.00738 0,3.88719 0.0096,0.42415 0.340787,0.79543 0.76202,0.76558 2.260714,-0.16014 4.737388,-0.0822 7.622113,0 0.422085,0.0119 0.595788,-0.37559 0.762067,-0.76558 0.55251,-1.29574 0.190097,-2.59136 0,-3.88719 -0.06162,-0.41963 -0.342813,-0.81648 -0.762067,-0.76597 -2.651498,0.31928 -4.977782,0.1587 -7.622113,0 z m -37.1328,5.47339 c -1.894092,0.005 -3.699415,0.29879 -5.68806,0.12215 -0.420633,-0.0373 -0.700939,0.34587 -0.762494,0.76554 -0.190093,1.29578 -0.552536,2.35775 0,3.65352 0.166067,0.38994 0.345366,0.69965 0.762494,0.76553 2.884729,0.45566 5.360972,0.0566 7.621673,0 0.422129,-0.0119 0.754066,-0.34143 0.76249,-0.76553 0.01905,-0.87982 0.402555,-1.69255 0,-3.65352 -0.08541,-0.41543 -0.34424,-0.70728 -0.76249,-0.76554 -0.661078,-0.092 -1.302235,-0.12334 -1.933613,-0.12215 z m 37.1328,0.12215 c -0.420872,-0.0342 -0.676751,0.35011 -0.76202,0.76554 -0.402572,1.96097 -0.01905,3.00783 0,3.88766 0.0096,0.4241 0.339887,0.75499 0.76202,0.76554 2.260719,0.0566 4.737388,0.4557 7.622113,0 0.417166,-0.066 0.595788,-0.37554 0.762067,-0.76554 0.552514,-1.29578 0.190097,-2.59188 0,-3.88766 -0.06162,-0.41967 -0.342548,-0.81393 -0.762067,-0.76554 -1.318217,0.15223 -2.486519,0.0691 -3.725251,0.0583 -1.257549,-0.0119 -2.585498,0.0488 -3.896862,-0.0583 z m -42.970789,5.58979 c -0.333842,0.0361 -0.558698,0.40409 -0.612565,0.77132 -0.190093,1.29583 -0.552536,2.59183 0,3.88766 0.166067,0.38995 0.350972,0.67046 0.762494,0.76552 2.209905,0.51061 4.84546,0.0461 7.621673,0 0.42222,-0.007 0.754066,-0.34143 0.76249,-0.76552 0.01905,-0.87986 0.402555,-1.92668 0,-3.88766 -0.08541,-0.41546 -0.342957,-0.81371 -0.76249,-0.76553 -2.429546,0.27902 -4.884572,0.49326 -7.621673,0 -0.05186,-0.0119 -0.102298,-0.0119 -0.149885,-0.007 z m 50.742387,0.15608 c -0.0478,-0.005 -0.09755,-0.005 -0.149411,0.007 -2.737054,0.4933 -5.192545,0.279 -7.622091,0 -0.419568,-0.048 -0.676778,0.35053 -0.762068,0.76595 -0.402551,1.96098 -0.01905,3.00738 0,3.88724 0.0095,0.4241 0.344023,0.82529 0.762068,0.76551 2.54065,-0.36336 5.08144,-0.0645 7.622091,0 0.422159,0.0119 0.595809,-0.3756 0.762063,-0.76551 0.55251,-1.29583 0.190097,-2.59145 0,-3.88724 -0.05377,-0.36719 -0.278719,-0.73562 -0.612556,-0.77174 z m -55.277032,5.37738 c -0.613987,-0.005 -1.099049,0.59986 -1.099049,1.23828 l 0,1.07525 c 0,0.68097 0.548044,1.16999 1.223364,1.22935 3.914588,0.34381 7.756583,0.62922 11.550381,0.69179 11.235838,0.2194 24.926176,0.17041 37.766986,-0.0497 4.015633,-0.0848 6.42124,-0.5566 10.501368,-0.64199 0.677677,-0.0144 1.22329,-0.54842 1.22329,-1.2294 l 0,-1.07522 c 0,-0.68099 -0.546922,-1.27432 -1.22329,-1.22938 -2.557115,0.16993 -5.120988,0.49152 -7.695588,0.42431 -10.172496,-0.26541 -20.884443,0.81724 -31.770662,-0.0703 -6.662864,-0.54312 -13.379974,0.60795 -20.352485,-0.35412 -0.0421,-0.007 -0.08351,-0.01 -0.124432,-0.01 z"
       id="path9065"
       inkscape:connector-curvature="0" />
    <text
       transform="scale(0.99771265,1.0022926)"
       sodipodi:linespacing="125%"
       id="text9067"
       y="820.95844"
       x="51.459923"
       style="font-style:normal;font-weight:normal;font-size:29.1680088px;line-height:125%;font-family:sans-serif;letter-spacing:0px;word-spacing:0px;fill:#42290d;fill-opacity:1;stroke:none;stroke-width:1px;stroke-linecap:butt;stroke-linejoin:miter;stroke-opacity:1"
       xml:space="preserve"><tspan
         style="font-style:normal;font-variant:normal;font-weight:normal;font-stretch:normal;font-family:'Archivo Black';-inkscape-font-specification:'Archivo Black, ';fill:#42290d;fill-opacity:1"
         y="820.95844"
         x="51.459923"
         id="tspan9069"
         sodipodi:role="line">D</tspan></text>
    <text
       xml:space="preserve"
       style="font-style:normal;font-variant:normal;font-weight:normal;font-stretch:normal;font-size:16.27194595px;line-height:125%;font-family:'Archivo Narrow';-inkscape-font-specification:'Archivo Narrow, Normal';text-align:start;letter-spacing:0px;word-spacing:0px;writing-mode:lr-tb;text-anchor:start;fill:#000000;fill-opacity:1;stroke:none;stroke-width:1px;stroke-linecap:butt;stroke-linejoin:miter;stroke-opacity:1"
       x="36.592224"
       y="867.58569"
       id="text25895"
       sodipodi:linespacing="125%"><tspan
         sodipodi:role="line"
         id="tspan25897"
         x="36.592224"
         y="867.58569">&quot;D&quot; Gate</tspan></text>
    <g
       id="g27080"
       transform="matrix(0.59917356,0,0,0.59917356,121.6529,452.22484)">
      <circle
         r="43.214287"
         cy="900.57642"
         cx="-117.5"
         id="path27070"
         style="opacity:1;fill:#d8c586;fill-opacity:1;stroke:none;stroke-width:1;stroke-linecap:round;stroke-linejoin:round;stroke-miterlimit:4;stroke-dasharray:none;stroke-dashoffset:0;stroke-opacity:1" />
      <path
         inkscape:connector-curvature="0"
         style="fill:#42290d;fill-opacity:1"
         d="m -126.13592,866.65809 0,18.114 2.41561,0 0,-18.114 z m 6.44173,12.82815 0,5.28585 2.41562,0 0,-5.28585 z m -8.32057,6.27239 0,13.3199 2.14723,2.14652 0,25.05545 14.7623,0 0,-25.05545 2.1473,-2.14652 0,-13.3199 z m 20.10545,0.93881 0,10.73467 2.20529,0 0,-10.73467 z m -17.01876,0.93922 12.88347,0 0,2.41556 -12.88347,0 z m 0,4.29442 12.88347,0 0,2.41487 -12.88347,0 z m 0,4.29373 12.88347,0 0,2.41487 -12.88347,0 z m 4.29443,5.50075 c 1.77885,0 3.22087,1.44182 3.22087,3.22075 0,1.77823 -1.44202,3.21963 -3.22087,3.21963 -1.77877,0 -3.22087,-1.4414 -3.22087,-3.21963 0,-1.77893 1.4421,-3.22075 3.22087,-3.22075 z"
         id="path6846"
         sodipodi:nodetypes="cccccccccccccccccccccccccccccccccccccccsssss" />
    </g>
    <text
       sodipodi:linespacing="100%"
       id="text27084"
       y="1032.2311"
       x="48.588444"
       style="font-style:normal;font-variant:normal;font-weight:normal;font-stretch:normal;font-size:16.27544594px;line-height:100%;font-family:'Archivo Narrow';-inkscape-font-specification:'Archivo Narrow, Normal';text-align:center;letter-spacing:0px;word-spacing:0px;writing-mode:lr-tb;text-anchor:middle;fill:#000000;fill-opacity:1;stroke:none;stroke-width:1px;stroke-linecap:butt;stroke-linejoin:miter;stroke-opacity:1"
       xml:space="preserve"><tspan
         y="1032.2311"
         x="48.588444"
         id="tspan27086"
         sodipodi:role="line">Reinforcements</tspan><tspan
         y="1045.1433"
         x="48.588444"
         sodipodi:role="line"
         id="tspan27150">chit</tspan></text>
    <circle
       r="28.826254"
       cy="-117.06627"
       cx="945.98792"
       id="circle28358"
       style="opacity:1;fill:#800080;fill-opacity:1;stroke:none;stroke-width:1;stroke-linecap:round;stroke-linejoin:round;stroke-miterlimit:4;stroke-dasharray:none;stroke-dashoffset:0;stroke-opacity:1"
       transform="matrix(0,1,-1,0,0,0)" />
    <g
       id="g4239"
       transform="matrix(0,0.33018324,-0.33018324,0,387.82224,882.2834)">
      <path
         transform="translate(0,152.36215)"
         sodipodi:nodetypes="ssccccssccccccsssccccccsccccccsccccccscccccccccccccccccccccccccssscccccccccccccccsscccccccccssscccccccccsssccccccccccsssccccccccccccc"
         inkscape:connector-curvature="0"
         id="path4540"
         d="m 210.05664,602.98242 c -3.97887,0 -7.20117,3.23061 -7.20117,7.20899 0,3.11044 1.97078,5.75837 4.73242,6.76562 l 0,23.94531 4.5293,0 0,-23.80859 c 2.97538,-0.88562 5.14844,-3.64077 5.14843,-6.90234 0,-3.97861 -3.23011,-7.20899 -7.20898,-7.20899 z m -21.81055,8.61719 0,29.30273 4.53907,0 0,-29.30273 -4.53711,0 z m -27.77539,0.16016 c -3.97888,0 -7.20703,3.22864 -7.20703,7.20703 0,3.97838 3.22815,7.19922 7.20703,7.19922 3.24709,0 5.98963,-2.14658 6.88868,-5.09766 l 11.52929,0 0,19.83398 4.53906,0 0,-24.37304 -16.17382,0 c -0.99762,-2.78026 -3.65954,-4.76953 -6.78321,-4.76953 z m 37.3418,13.11132 0,16.03125 4.53125,0 0,-16.03125 z m 48.375,3.22657 c -3.97889,0 -7.20898,3.2306 -7.20898,7.20898 0,3.35647 2.29576,6.17577 5.40429,6.97461 l 0,7.04687 -23.8457,0 0,4.53126 28.38281,0 0,-11.89063 c 2.62309,-1.07553 4.4668,-3.65086 4.4668,-6.66211 0,-3.97838 -3.22229,-7.20703 -7.20117,-7.20703 z m -113.30273,6.96093 0,4.53711 21.46875,0 0,14.26368 16.11718,0 0,-4.53126 -11.57812,0 0,-14.26953 -26.00586,0 z M 175,645.43945 l 0,0.002 0,40.97656 41.00586,0 0,-40.97852 z m 5.31309,5.30469 30.05078,0 0,30.05274 -30.05078,0 z m -37.15293,8.35938 0,23.08007 c -2.94817,0.90101 -5.0918,3.64235 -5.0918,6.88672 0,3.97791 3.2223,7.20899 7.20117,7.20899 3.97887,0 7.20703,-3.22911 7.20703,-7.20703 0,-3.12871 -1.99905,-5.78933 -4.78711,-6.78321 l 0,-18.65625 22.78125,0 0,-4.52929 z m 77.37695,0 0,4.52929 13.84766,0 0,-4.52929 z m 25.64844,5.63476 c -2.79543,7.5e-4 -5.21917,1.59347 -6.41407,3.91992 l -19.23632,0 0,4.53907 18.55468,0 c 0.59657,3.3783 3.54661,5.94921 7.09571,5.94921 3.97887,0 7.20117,-3.23095 7.20117,-7.20898 0,-3.97786 -3.22124,-7.19815 -7.19922,-7.19922 z m -89.5625,3.91992 0,4.53907 13.84765,0 0,-4.53907 z m 4.40234,9.35742 0,34.77149 c -2.95022,0.90137 -5.10156,3.6427 -5.10156,6.88672 0,3.97803 3.23009,7.20703 7.20898,7.20703 3.97862,0 7.20117,-3.229 7.20117,-7.20703 0,-3.12848 -1.9933,-5.78956 -4.77929,-6.78321 l 0,-30.33789 4.91406,0 0,-4.53711 z m 59.51172,0 0,4.53711 11.58594,0 0,24.44532 c -2.90532,0.92977 -5.01172,3.65895 -5.01172,6.87109 0,3.97815 3.23011,7.19922 7.20898,7.19922 3.97887,0 7.19922,-3.2213 7.19922,-7.19922 0,-3.1608 -2.03577,-5.84349 -4.86719,-6.81445 l 0,-29.03907 z m -41.64844,12.93946 0,13.86133 4.53906,0 0,-13.86133 z m 9.35938,0 0,22.20898 c -2.82579,0.97347 -4.86133,3.65169 -4.86133,6.80664 0,3.97805 3.2301,7.20703 7.20898,7.20703 3.97887,0 7.20118,-3.22922 7.20118,-7.20703 0,-3.21464 -2.10486,-5.93721 -5.01172,-6.86328 l 0,-22.15234 z m 9.56445,0 0,13.86133 4.53906,0 -0.008,-13.86133 z m 9.77539,0 0,40.32226 4.5293,0 0,-40.32226 z"
         style="fill:#000000" />
      <g
         id="g4236">
        <path
           inkscape:connector-curvature="0"
           id="path4542"
           d="m 192.93692,745.41842 a 74.607757,74.598951 0 0 0 -74.60776,74.59896 74.607757,74.598951 0 0 0 74.60776,74.59895 74.607757,74.598951 0 0 0 74.60776,-74.59895 74.607757,74.598951 0 0 0 -74.60776,-74.59896 z m 0,10.65698 a 63.949506,63.941958 0 0 1 63.94952,63.94198 63.949506,63.941958 0 0 1 -63.94952,63.94197 63.949506,63.941958 0 0 1 -63.94952,-63.94197 63.949506,63.941958 0 0 1 63.94952,-63.94198 z"
           style="fill:#000000;fill-opacity:1;stroke:none;stroke-width:2.5;stroke-linecap:round;stroke-linejoin:round;stroke-miterlimit:4;stroke-dasharray:none;stroke-dashoffset:0;stroke-opacity:1" />
      </g>
    </g>
    <path
       style="opacity:1;fill:#800080;fill-opacity:1;stroke:none;stroke-width:1;stroke-linecap:round;stroke-linejoin:round;stroke-miterlimit:4;stroke-dasharray:none;stroke-dashoffset:0;stroke-opacity:1"
       d="m 69.878611,904.07838 a 28.826253,28.826253 0 0 0 -28.82637,-28.82637 28.826253,28.826253 0 0 0 -28.825825,28.82637 28.826253,28.826253 0 0 0 28.825825,28.82635 28.826253,28.826253 0 0 0 28.82637,-28.82635 z m -4.76742,0 a 24.05875,24.05875 0 0 1 -24.05895,24.05889 24.05875,24.05875 0 0 1 -24.058355,-24.05889 24.05875,24.05875 0 0 1 24.058355,-24.05891 24.05875,24.05875 0 0 1 24.05895,24.05891 z"
       id="circle28364"
       inkscape:connector-curvature="0" />
    <text
       sodipodi:linespacing="100%"
       id="text28449"
       y="989.10437"
       x="117.48734"
       style="font-style:normal;font-variant:normal;font-weight:normal;font-stretch:normal;font-size:16.27194595px;line-height:100%;font-family:'Archivo Narrow';-inkscape-font-specification:'Archivo Narrow, Normal';text-align:center;letter-spacing:0px;word-spacing:0px;writing-mode:lr-tb;text-anchor:middle;fill:#000000;fill-opacity:1;stroke:none;stroke-width:1px;stroke-linecap:butt;stroke-linejoin:miter;stroke-opacity:1"
       xml:space="preserve"><tspan
         y="989.10437"
         x="117.48734"
         id="tspan28451"
         sodipodi:role="line">Control</tspan><tspan
         y="1005.3763"
         x="117.48734"
         sodipodi:role="line"
         id="tspan28469">Panel</tspan></text>
    <text
       xml:space="preserve"
       style="font-style:normal;font-variant:normal;font-weight:normal;font-stretch:normal;font-size:12.36107445px;line-height:100%;font-family:'Archivo Narrow';-inkscape-font-specification:'Archivo Narrow, Normal';text-align:center;letter-spacing:0px;word-spacing:0px;writing-mode:lr-tb;text-anchor:middle;fill:#000000;fill-opacity:1;stroke:none;stroke-width:1px;stroke-linecap:butt;stroke-linejoin:miter;stroke-opacity:1"
       x="40.44537"
       y="903.49994"
       id="text28453"
       sodipodi:linespacing="100%"><tspan
         sodipodi:role="line"
         x="40.44537"
         y="903.49994"
         id="tspan28457">Pressure</tspan><tspan
         sodipodi:role="line"
         x="40.44537"
         y="915.86102"
         id="tspan28461">Sensor</tspan></text>
  </g>
</svg>
