<?xml version="1.0" encoding="UTF-8" standalone="no"?>
<!-- Created with Inkscape (http://www.inkscape.org/) -->

<svg
   xmlns:dc="http://purl.org/dc/elements/1.1/"
   xmlns:cc="http://creativecommons.org/ns#"
   xmlns:rdf="http://www.w3.org/1999/02/22-rdf-syntax-ns#"
   xmlns:svg="http://www.w3.org/2000/svg"
   xmlns="http://www.w3.org/2000/svg"
   xmlns:sodipodi="http://sodipodi.sourceforge.net/DTD/sodipodi-0.dtd"
   xmlns:inkscape="http://www.inkscape.org/namespaces/inkscape"
   width="75"
   height="75"
   viewBox="0 0 75.000001 75.000001"
   id="svg5199"
   version="1.1"
   inkscape:version="0.91 r13725"
   sodipodi:docname="figure_alerts_neighboring.svg">
  <defs
     id="defs5201" />
  <sodipodi:namedview
     id="base"
     pagecolor="#ffffff"
     bordercolor="#666666"
     borderopacity="1.0"
     inkscape:pageopacity="0.0"
     inkscape:pageshadow="2"
     inkscape:zoom="7.9195959"
     inkscape:cx="45.253939"
     inkscape:cy="33.716896"
     inkscape:document-units="px"
     inkscape:current-layer="layer1"
     showgrid="false"
     units="px"
     borderlayer="true"
     inkscape:window-width="1920"
     inkscape:window-height="1017"
     inkscape:window-x="-8"
     inkscape:window-y="-8"
     inkscape:window-maximized="1" />
  <metadata
     id="metadata5204">
    <rdf:RDF>
      <cc:Work
         rdf:about="">
        <dc:format>image/svg+xml</dc:format>
        <dc:type
           rdf:resource="http://purl.org/dc/dcmitype/StillImage" />
        <dc:title></dc:title>
      </cc:Work>
    </rdf:RDF>
  </metadata>
  <g
     inkscape:label="Layer 1"
     inkscape:groupmode="layer"
     id="layer1"
     transform="translate(0,-977.36216)">
    <g
       id="g5883"
       transform="matrix(0.99438544,0,0,0.99273726,0.83486317,6.9401639)">
      <rect
         style="fill:#42290d;fill-opacity:1;stroke:none;stroke-width:1.74198794;stroke-miterlimit:4;stroke-dasharray:none;stroke-opacity:1"
         id="rect5149"
         width="75.42347"
         height="75.548691"
         x="-0.83957702"
         y="977.52148"
         ry="5.3299322" />
      <path
         transform="matrix(1.3754373,0,0,1.3778146,-505.30496,-534.32199)"
         sodipodi:type="star"
         style="font-style:normal;font-weight:normal;font-size:medium;line-height:125%;font-family:sans-serif;letter-spacing:0px;word-spacing:0px;fill:#d8c586;fill-opacity:1;stroke:none;stroke-width:0.37941056;stroke-linecap:butt;stroke-linejoin:round;stroke-miterlimit:4;stroke-dasharray:none;stroke-dashoffset:0;stroke-opacity:1"
         id="path3968"
         sodipodi:sides="6"
         sodipodi:cx="407.40814"
         sodipodi:cy="1113.0243"
         sodipodi:r1="11.162703"
         sodipodi:r2="9.6671848"
         sodipodi:arg1="-1.0471976"
         sodipodi:arg2="-0.52359878"
         inkscape:flatsided="true"
         inkscape:rounded="0"
         inkscape:randomized="0"
         d="m 412.98949,1103.3571 5.58135,9.6672 -5.58135,9.6672 -11.1627,0 -5.58135,-9.6672 5.58135,-9.6672 z" />
      <path
         id="path3972"
         d="m 46.603983,995.54247 c -0.493998,0 -0.849289,0.26129 -1.054481,0.58943 -0.183511,0.29341 -0.25986,0.63382 -0.274752,0.93196 -0.560003,0.27676 -1.180396,0.55578 -1.679865,0.8411 -0.262017,0.14967 -0.490444,0.30018 -0.662395,0.46193 -0.171947,0.16177 -0.29882,0.3439 -0.29882,0.55879 0,0.0914 0.04466,0.16594 0.09494,0.22061 0.05047,0.0548 0.110772,0.0972 0.179534,0.13682 0.137497,0.0793 0.310839,0.14535 0.501536,0.20252 0.283281,0.085 0.600538,0.14814 0.876392,0.17513 -0.274364,0.47264 -0.639509,0.90654 -0.959581,1.32244 -0.369912,0.4807 -0.69283,0.9416 -0.69283,1.4537 0,0.073 -0.0013,0.1303 0.0059,0.1877 0.0067,0.057 0.02292,0.1289 0.08069,0.1856 0.05772,0.057 0.12838,0.072 0.185937,0.078 0.05753,0.01 0.115545,0.01 0.189928,0.01 l 2.040803,0 c 0.148152,0 0.256619,0.01 0.368206,-0.063 0.111614,-0.072 0.152313,-0.1696 0.231821,-0.3159 l 0.0013,0 0.0013,-0.01 c 0,0 0.177892,-0.3615 0.390144,-0.7203 0.106085,-0.1793 0.221334,-0.358 0.321547,-0.4846 0.05015,-0.063 0.09706,-0.1134 0.130824,-0.1418 0.01007,-0.01 0.01508,-0.01 0.0216,-0.014 0.0067,0.01 0.01123,0.01 0.0216,0.014 0.03376,0.029 0.08068,0.079 0.130816,0.1418 0.10018,0.1266 0.215412,0.3053 0.321547,0.4846 0.212234,0.3588 0.390134,0.7203 0.390134,0.7203 l 0.0013,0.01 0.0013,0 c 0.07956,0.1463 0.119848,0.2436 0.230724,0.3155 0.110875,0.072 0.219082,0.063 0.365131,0.063 l 2.049801,0 c 0.07321,0 0.130263,0 0.187419,-0.01 0.0572,-0.01 0.128057,-0.022 0.185176,-0.079 0.05707,-0.058 0.07288,-0.128 0.07923,-0.1851 0.0067,-0.057 0.0059,-0.1142 0.0059,-0.1873 0,-0.5121 -0.322938,-0.973 -0.692828,-1.4537 -0.320059,-0.4159 -0.685204,-0.8498 -0.959591,-1.32244 0.275854,-0.0271 0.593113,-0.0902 0.876392,-0.1751 0.190697,-0.0575 0.364041,-0.12329 0.501544,-0.20255 0.06875,-0.0393 0.129139,-0.0821 0.179488,-0.13677 0.0504,-0.0548 0.09505,-0.12921 0.09505,-0.22068 0,-0.21487 -0.126868,-0.397 -0.298805,-0.55875 -0.171953,-0.16176 -0.40039,-0.31228 -0.66239,-0.46195 -0.499495,-0.28529 -1.119862,-0.56431 -1.679883,-0.8411 -0.01495,-0.29811 -0.09127,-0.63852 -0.274751,-0.93196 -0.205195,-0.32814 -0.560479,-0.58943 -1.054482,-0.58943 z"
         inkscape:connector-curvature="0"
         style="fill:#42290d;fill-opacity:1;stroke:none;stroke-opacity:1" />
      <path
         style="fill:#42290d;fill-opacity:1;stroke:none;stroke-opacity:1"
         inkscape:connector-curvature="0"
         d="m 55.387859,995.54247 c -0.493995,0 -0.849279,0.26126 -1.054474,0.58943 -0.183508,0.29341 -0.259865,0.63382 -0.274759,0.93196 -0.560013,0.27676 -1.180388,0.55578 -1.679868,0.8411 -0.262007,0.14967 -0.490451,0.30018 -0.662392,0.46193 -0.171945,0.16177 -0.29881,0.3439 -0.29881,0.55876 0,0.0915 0.04466,0.16595 0.09494,0.22064 0.05047,0.0548 0.110764,0.0972 0.179532,0.13682 0.137484,0.0793 0.310841,0.14535 0.501531,0.20252 0.283286,0.085 0.600545,0.14814 0.876399,0.17513 -0.274372,0.47264 -0.639519,0.90654 -0.959596,1.32244 -0.369897,0.4807 -0.692823,0.9416 -0.692823,1.4537 0,0.073 -0.0013,0.1303 0.0059,0.1877 0.0067,0.057 0.02292,0.1289 0.08068,0.1856 0.05772,0.057 0.128388,0.072 0.185947,0.078 0.05752,0.01 0.11555,0.01 0.189913,0.01 l 2.040816,0 c 0.148139,0 0.256626,0.01 0.368213,-0.063 0.111601,-0.072 0.1523,-0.1696 0.231816,-0.3159 l 0.0013,0 0.0013,-0.01 c 0,0 0.177895,-0.3615 0.390152,-0.7203 0.106089,-0.1793 0.221321,-0.358 0.321549,-0.4845 0.05015,-0.063 0.09705,-0.1135 0.130809,-0.1419 0.01004,-0.01 0.01508,-0.01 0.0216,-0.014 0.0067,0.01 0.01136,0.01 0.0216,0.014 0.03375,0.028 0.08068,0.079 0.130809,0.1419 0.100175,0.1265 0.215419,0.3052 0.321536,0.4845 0.212237,0.3588 0.390153,0.7203 0.390153,0.7203 l 0.0013,0.01 0.0013,0 c 0.07957,0.1463 0.11984,0.2436 0.230718,0.3155 0.110875,0.072 0.21908,0.063 0.365137,0.063 l 2.049801,0 c 0.07321,0 0.130267,0 0.187426,-0.01 0.05713,-0.01 0.128034,-0.022 0.185156,-0.079 0.05707,-0.058 0.07288,-0.128 0.07923,-0.1851 0.0067,-0.057 0.0059,-0.1142 0.0059,-0.1874 0,-0.512 -0.322926,-0.9729 -0.692823,-1.4536 -0.320067,-0.4159 -0.685199,-0.8499 -0.959596,-1.32244 0.275854,-0.0271 0.593105,-0.0902 0.876404,-0.17512 0.190677,-0.0575 0.364034,-0.12327 0.501524,-0.20253 0.06876,-0.0394 0.129147,-0.0821 0.179494,-0.13677 0.05041,-0.0548 0.09505,-0.12924 0.09505,-0.22068 0,-0.21487 -0.126868,-0.39703 -0.298813,-0.55877 -0.171953,-0.16177 -0.400377,-0.31228 -0.662384,-0.46196 -0.499488,-0.28529 -1.11986,-0.56431 -1.679876,-0.8411 -0.0149,-0.29811 -0.09127,-0.63852 -0.274751,-0.93193 -0.2052,-0.32817 -0.560472,-0.58945 -1.05449,-0.58945 z"
         id="path3974" />
      <text
         transform="scale(0.99963394,1.0003662)"
         sodipodi:linespacing="125%"
         id="text4841"
         y="1001.6484"
         x="59.522442"
         style="font-style:normal;font-weight:normal;font-size:9.83079052px;line-height:125%;font-family:sans-serif;letter-spacing:0px;word-spacing:0px;fill:#42290d;fill-opacity:1;stroke:none;stroke-width:1px;stroke-linecap:butt;stroke-linejoin:miter;stroke-opacity:1"
         xml:space="preserve"><tspan
           style="font-style:normal;font-variant:normal;font-weight:normal;font-stretch:normal;font-family:'Archivo Black';-inkscape-font-specification:'Archivo Black, ';fill:#42290d;fill-opacity:1"
           y="1001.6484"
           x="59.522442"
           id="tspan4843"
           sodipodi:role="line">+</tspan></text>
      <rect
         ry="2.879591"
         y="1018.59"
         x="42.852486"
         height="26.233444"
         width="26.189966"
         id="rect5229"
         style="fill:#d8c586;fill-opacity:1;stroke:none;stroke-width:2;stroke-linecap:round;stroke-linejoin:round;stroke-miterlimit:4;stroke-dasharray:none;stroke-dashoffset:0.60000002;stroke-opacity:1" />
      <path
         inkscape:connector-curvature="0"
         id="path11026"
         d="m 54.638373,1019.4921 0,14.897 4.766626,-1.3922 0,-12.1125 -4.766626,-1.3923 z m 5.368782,0.8787 0.0023,0.076 0,0.9706 0.537105,0 0,-1.0458 -0.539225,0 z m -8.658599,0 0,3.8327 0.604274,0 0,-3.2444 2.081269,0 0,-0.5883 -2.685543,0 z m 8.660717,1.6341 0,0.523 0.536915,0 0,-0.523 -0.536915,0 z m 0,1.1113 0,7.713 0.536915,0 0,-7.713 -0.536915,0 z m -9.481296,0.9526 -1.955995,1.9043 1.955995,1.9046 0,-1.1528 3.222656,0 0,-1.5033 -3.222656,0 0,-1.1528 z m 5.016609,2.0868 c 0.22246,0 0.402788,0.3512 0.402788,0.7844 0,0.4332 -0.180328,0.7844 -0.402788,0.7844 -0.222454,0 -0.402782,-0.3512 -0.402782,-0.7844 0,-0.4332 0.180328,-0.7844 0.402782,-0.7844 z m -3.591756,0.9936 0,1.153 -3.222467,0 0,1.5033 3.222467,0 0,1.1528 1.956185,-1.9045 -1.956185,-1.9046 z m -0.604274,4.0645 0,2.0014 0.604274,0 0,-2.0014 -0.604274,0 z m 8.660717,0.2038 0,0.4575 0.536915,0 0,-0.4575 -0.536915,0 z m 0,1.0458 0,0.7518 0.536915,0 0,-0.7518 -0.536915,0 z m -11.581047,1.5034 0,0.5883 5.605873,0 0,-0.5883 -5.605873,0 z m 9.756685,0 -2.014111,0.5883 7.29591,0 0,-0.5883 -5.281799,0 z"
         style="fill:#42290d;fill-opacity:1" />
      <g
         style="fill:#42290d;fill-opacity:1"
         transform="matrix(0.25347693,0,0,0.25389775,141.52671,809.20014)"
         id="g5246">
        <path
           style="fill:#42290d;fill-opacity:1;stroke:none;stroke-opacity:1"
           inkscape:connector-curvature="0"
           d="m -361.34368,894.60352 c -1.5875,0 -2.72928,0.83893 -3.38869,1.89253 -0.58973,0.9421 -0.83508,2.03513 -0.88294,2.9924 -1.79963,0.88864 -3.79332,1.78454 -5.39841,2.70058 -0.84204,0.4806 -1.57611,0.96388 -2.12868,1.48324 -0.55257,0.51934 -0.96029,1.10419 -0.96029,1.79411 0,0.29359 0.1436,0.53281 0.3051,0.70834 0.16225,0.17616 0.35598,0.31224 0.57695,0.43936 0.44187,0.2546 0.99893,0.46672 1.61176,0.65031 0.91035,0.27285 1.92989,0.47562 2.81637,0.56227 -0.88172,1.51742 -2.05515,2.9109 -3.08373,4.24619 -1.18873,1.54333 -2.22649,3.02327 -2.22649,4.66753 0,0.23488 -0.003,0.41821 0.0179,0.60247 0.0215,0.1844 0.0737,0.41405 0.25928,0.59623 0.18549,0.18226 0.41257,0.2313 0.59754,0.25136 0.18478,0.0215 0.37132,0.0215 0.61036,0.0215 l 6.55832,0 c 0.47611,0 0.82468,0.0287 1.18328,-0.20123 0.35869,-0.23022 0.48947,-0.54463 0.74496,-1.01448 l 0.003,0 0.003,-0.0215 c 0,0 0.57168,-1.16076 1.25378,-2.31284 0.3409,-0.57568 0.71126,-1.14934 1.03331,-1.55574 0.16119,-0.20301 0.31191,-0.36436 0.42042,-0.45533 0.0322,-0.0285 0.0484,-0.0322 0.0695,-0.0456 0.0215,0.0215 0.0361,0.0215 0.0695,0.0456 0.1084,0.0913 0.25928,0.25206 0.42038,0.45533 0.32195,0.4064 0.69227,0.98006 1.03334,1.55574 0.68203,1.15208 1.25374,2.31284 1.25374,2.31284 l 0.003,0.0215 0.003,0 c 0.25569,0.46985 0.38513,0.78236 0.74147,1.01324 0.3563,0.23059 0.70403,0.20302 1.17339,0.20302 l 6.58723,0 c 0.2353,0 0.41862,0 0.60231,-0.0215 0.18371,-0.0215 0.41151,-0.0705 0.59507,-0.25458 0.18334,-0.1844 0.2342,-0.41076 0.25461,-0.59416 0.0215,-0.18225 0.0179,-0.36663 0.0179,-0.60161 0,-1.64405 -1.03778,-3.12399 -2.22649,-4.66735 -1.02852,-1.33527 -2.20195,-2.72877 -3.08372,-4.24619 0.88648,-0.0871 1.90603,-0.28967 2.81637,-0.56225 0.61282,-0.18441 1.16988,-0.39584 1.61176,-0.65032 0.22094,-0.12634 0.415,-0.26354 0.5768,-0.43915 0.1619,-0.17617 0.30546,-0.41493 0.30546,-0.70858 0,-0.6899 -0.4077,-1.27475 -0.96026,-1.79408 -0.55259,-0.51937 -1.28668,-1.00263 -2.12866,-1.48326 -1.60517,-0.916 -3.59878,-1.81192 -5.39848,-2.70056 -0.0481,-0.95723 -0.29329,-2.05024 -0.88293,-2.99238 -0.65941,-1.05362 -1.80116,-1.89256 -3.38869,-1.89256 z"
           id="path5238" />
        <path
           id="path5240"
           d="m -333.11578,894.60352 c -1.5875,0 -2.72925,0.8389 -3.38866,1.89253 -0.58974,0.94212 -0.8351,2.03509 -0.88296,2.99237 -1.79966,0.88867 -3.7933,1.78457 -5.39845,2.70059 -0.84197,0.48061 -1.5761,0.96386 -2.12864,1.48323 -0.55258,0.51937 -0.96027,1.10422 -0.96027,1.79409 0,0.29363 0.14359,0.53283 0.3051,0.70839 0.16225,0.17616 0.35596,0.31224 0.57695,0.43933 0.44183,0.25459 0.99893,0.46671 1.61174,0.65034 0.91036,0.27285 1.9299,0.47562 2.81638,0.56223 -0.88173,1.51746 -2.05516,2.91095 -3.08376,4.24624 -1.1887,1.54332 -2.22645,3.02323 -2.22645,4.66749 0,0.23487 -0.003,0.41824 0.0179,0.6025 0.0215,0.1844 0.0737,0.41406 0.25928,0.59623 0.1855,0.18226 0.4126,0.2313 0.59757,0.25136 0.18479,0.0215 0.37132,0.0215 0.61031,0.0215 l 6.55838,0 c 0.47606,0 0.82468,0.0287 1.18328,-0.2012 0.35865,-0.23025 0.48944,-0.54464 0.74496,-1.01448 l 0.003,0 0.003,-0.0216 c 0,0 0.57169,-1.16075 1.25382,-2.31285 0.34091,-0.5757 0.71123,-1.14934 1.03331,-1.55576 0.16119,-0.20302 0.3119,-0.36434 0.42039,-0.45532 0.0322,-0.0287 0.0484,-0.0322 0.0695,-0.0455 0.0215,0.0215 0.0366,0.0215 0.0695,0.0455 0.1084,0.091 0.25927,0.25209 0.42038,0.45532 0.32193,0.40642 0.69226,0.98006 1.03328,1.55576 0.68206,1.1521 1.2538,2.31285 1.2538,2.31285 l 0.003,0.0216 0.003,0 c 0.25569,0.46984 0.38512,0.78236 0.74142,1.01321 0.35632,0.23059 0.70404,0.20302 1.17341,0.20302 l 6.58726,0 c 0.23527,0 0.41862,0 0.6023,-0.0215 0.1837,-0.0215 0.41146,-0.0705 0.59502,-0.2546 0.18337,-0.18438 0.2342,-0.41076 0.25461,-0.59416 0.0215,-0.18223 0.018,-0.36662 0.018,-0.60159 0,-1.64408 -1.03775,-3.12401 -2.22645,-4.66737 -1.02856,-1.33525 -2.20195,-2.72877 -3.08377,-4.24617 0.8865,-0.0871 1.90602,-0.28969 2.81642,-0.56227 0.61277,-0.1844 1.16987,-0.39583 1.6117,-0.65031 0.22097,-0.12635 0.41502,-0.26353 0.57683,-0.43916 0.16189,-0.17617 0.30545,-0.41491 0.30545,-0.70856 0,-0.68992 -0.40771,-1.27477 -0.96027,-1.79413 -0.55259,-0.51934 -1.28666,-1.00263 -2.12865,-1.48323 -1.60514,-0.916 -3.59877,-1.81192 -5.39844,-2.70059 -0.0479,-0.95725 -0.29329,-2.05021 -0.88294,-2.99235 -0.65943,-1.05363 -1.80114,-1.89256 -3.38871,-1.89256 z"
           inkscape:connector-curvature="0"
           style="fill:#42290d;fill-opacity:1;stroke:none;stroke-opacity:1" />
        <text
           xml:space="preserve"
           style="font-style:normal;font-weight:normal;font-size:31.57863808px;line-height:125%;font-family:sans-serif;letter-spacing:0px;word-spacing:0px;fill:#42290d;fill-opacity:1;stroke:none;stroke-width:1px;stroke-linecap:butt;stroke-linejoin:miter;stroke-opacity:1"
           x="-319.87796"
           y="915.44635"
           id="text5242"
           sodipodi:linespacing="125%"
           transform="scale(1.0000655,0.99993451)"><tspan
             sodipodi:role="line"
             id="tspan5244"
             x="-319.87796"
             y="915.44635"
             style="font-style:normal;font-variant:normal;font-weight:normal;font-stretch:normal;font-family:'Archivo Black';-inkscape-font-specification:'Archivo Black, ';fill:#42290d;fill-opacity:1">+</tspan></text>
      </g>
      <g
         id="g14225"
         transform="matrix(0.25296129,0,0,0.25296129,-79.927853,955.69631)">
        <g
           transform="matrix(2.5502364,0,0,2.5502364,-276.66626,213.89339)"
           id="g13745"
           style="font-style:normal;font-weight:normal;font-size:40px;line-height:125%;font-family:sans-serif;letter-spacing:0px;word-spacing:0px;fill:#42290d;fill-opacity:1;stroke:none;stroke-width:1px;stroke-linecap:butt;stroke-linejoin:miter;stroke-opacity:1">
          <g
             transform="translate(301.32214,-340.94806)"
             id="g13747">
            <path
               inkscape:connector-curvature="0"
               id="path13749"
               style="fill:#d8c586;fill-opacity:1"
               d="m -27.005527,341.9378 -31.214185,0 c -0.217564,0 -0.415933,-0.064 -0.595106,-0.19197 -0.166375,-0.12798 -0.300755,-0.28155 -0.403139,-0.46072 -0.102384,-0.17917 -0.153575,-0.37115 -0.153575,-0.57591 0,-0.19198 0.05119,-0.39036 0.153575,-0.59511 l 15.587902,-27.68195 c 0.102384,-0.17917 0.243158,-0.31356 0.422325,-0.40315 0.179172,-0.0896 0.371143,-0.13438 0.57591,-0.13438 0.204767,0 0.396737,0.0448 0.57591,0.13438 0.179172,0.0895 0.319951,0.22398 0.422334,0.40315 l 15.626284,27.68195 c 0.102384,0.20476 0.153575,0.40314 0.153575,0.59511 0,0.20476 -0.05119,0.39674 -0.153575,0.57591 -0.102384,0.17917 -0.243159,0.33274 -0.422325,0.46072 -0.166376,0.12797 -0.358346,0.19197 -0.57591,0.19197 z"
               sodipodi:nodetypes="ssccscccssccsccs" />
            <path
               d="m -26.733715,342.19941 -31.75781,0 q -0.33203,0 -0.60547,-0.19531 -0.25391,-0.19532 -0.41016,-0.46875 -0.15625,-0.27344 -0.15625,-0.58594 0,-0.29297 0.15625,-0.60547 l 15.85938,-28.16406 q 0.15625,-0.27344 0.42968,-0.41016 0.27344,-0.13672 0.58594,-0.13672 0.3125,0 0.58594,0.13672 0.27344,0.13672 0.42969,0.41016 l 15.89843,28.16406 q 0.15625,0.3125 0.15625,0.60547 0,0.3125 -0.15625,0.58594 -0.15625,0.27343 -0.42968,0.46875 -0.25391,0.19531 -0.58594,0.19531 z m -29.72656,-2.5 27.65625,0 -13.82813,-24.49219 -13.82812,24.49219 z m 15.64453,-7.10938 -3.63281,0 0,-10.83984 3.63281,0 0,10.83984 z m 0.54687,3.55469 q 0,0.50781 -0.19531,0.9375 -0.17578,0.42969 -0.50781,0.76172 -0.3125,0.3125 -0.74219,0.50781 -0.42969,0.17578 -0.91797,0.17578 -0.48828,0 -0.91797,-0.17578 -0.42968,-0.19531 -0.74218,-0.50781 -0.3125,-0.33203 -0.48829,-0.76172 -0.17578,-0.42969 -0.17578,-0.9375 0,-0.48828 0.17578,-0.9375 0.17579,-0.44922 0.48829,-0.76172 0.3125,-0.33203 0.74218,-0.52734 0.42969,-0.19531 0.91797,-0.19531 0.48828,0 0.91797,0.19531 0.42969,0.19531 0.74219,0.52734 0.33203,0.3125 0.50781,0.76172 0.19531,0.44922 0.19531,0.9375 z"
               style="fill:#42290d;fill-opacity:1"
               id="path13751"
               inkscape:connector-curvature="0" />
          </g>
        </g>
        <text
           transform="scale(0.99918447,1.0008162)"
           sodipodi:linespacing="125%"
           id="text13753"
           y="205.49388"
           x="419.90125"
           style="font-style:normal;font-weight:normal;font-size:100.95265961px;line-height:125%;font-family:sans-serif;letter-spacing:0px;word-spacing:0px;fill:#d8c586;fill-opacity:1;stroke:none;stroke-width:1px;stroke-linecap:butt;stroke-linejoin:miter;stroke-opacity:1"
           xml:space="preserve"><tspan
             y="205.49388"
             x="419.90125"
             id="tspan13755"
             sodipodi:role="line">:</tspan></text>
        <g
           style="font-style:normal;font-weight:normal;font-size:40px;line-height:125%;font-family:sans-serif;letter-spacing:0px;word-spacing:0px;fill:#42290d;fill-opacity:1;stroke:none;stroke-width:1px;stroke-linecap:butt;stroke-linejoin:miter;stroke-opacity:1"
           id="g13770"
           transform="matrix(1.816997,0,0,1.816997,-46.707729,332.50232)">
          <g
             id="g13772"
             transform="translate(301.32214,-340.94806)">
            <path
               sodipodi:nodetypes="ssccscccssccsccs"
               d="m -27.005527,341.9378 -31.214185,0 c -0.217564,0 -0.415933,-0.064 -0.595106,-0.19197 -0.166375,-0.12798 -0.300755,-0.28155 -0.403139,-0.46072 -0.102384,-0.17917 -0.153575,-0.37115 -0.153575,-0.57591 0,-0.19198 0.05119,-0.39036 0.153575,-0.59511 l 15.587902,-27.68195 c 0.102384,-0.17917 0.243158,-0.31356 0.422325,-0.40315 0.179172,-0.0896 0.371143,-0.13438 0.57591,-0.13438 0.204767,0 0.396737,0.0448 0.57591,0.13438 0.179172,0.0895 0.319951,0.22398 0.422334,0.40315 l 15.626284,27.68195 c 0.102384,0.20476 0.153575,0.40314 0.153575,0.59511 0,0.20476 -0.05119,0.39674 -0.153575,0.57591 -0.102384,0.17917 -0.243159,0.33274 -0.422325,0.46072 -0.166376,0.12797 -0.358346,0.19197 -0.57591,0.19197 z"
               style="fill:#d8c586;fill-opacity:1"
               id="path13774"
               inkscape:connector-curvature="0" />
            <path
               inkscape:connector-curvature="0"
               id="path13776"
               style="fill:#42290d;fill-opacity:1"
               d="m -26.733715,342.19941 -31.75781,0 q -0.33203,0 -0.60547,-0.19531 -0.25391,-0.19532 -0.41016,-0.46875 -0.15625,-0.27344 -0.15625,-0.58594 0,-0.29297 0.15625,-0.60547 l 15.85938,-28.16406 q 0.15625,-0.27344 0.42968,-0.41016 0.27344,-0.13672 0.58594,-0.13672 0.3125,0 0.58594,0.13672 0.27344,0.13672 0.42969,0.41016 l 15.89843,28.16406 q 0.15625,0.3125 0.15625,0.60547 0,0.3125 -0.15625,0.58594 -0.15625,0.27343 -0.42968,0.46875 -0.25391,0.19531 -0.58594,0.19531 z m -29.72656,-2.5 27.65625,0 -13.82813,-24.49219 -13.82812,24.49219 z m 15.64453,-7.10938 -3.63281,0 0,-10.83984 3.63281,0 0,10.83984 z m 0.54687,3.55469 q 0,0.50781 -0.19531,0.9375 -0.17578,0.42969 -0.50781,0.76172 -0.3125,0.3125 -0.74219,0.50781 -0.42969,0.17578 -0.91797,0.17578 -0.48828,0 -0.91797,-0.17578 -0.42968,-0.19531 -0.74218,-0.50781 -0.3125,-0.33203 -0.48829,-0.76172 -0.17578,-0.42969 -0.17578,-0.9375 0,-0.48828 0.17578,-0.9375 0.17579,-0.44922 0.48829,-0.76172 0.3125,-0.33203 0.74218,-0.52734 0.42969,-0.19531 0.91797,-0.19531 0.48828,0 0.91797,0.19531 0.42969,0.19531 0.74219,0.52734 0.33203,0.3125 0.50781,0.76172 0.19531,0.44922 0.19531,0.9375 z" />
          </g>
        </g>
        <text
           xml:space="preserve"
           style="font-style:normal;font-weight:normal;font-size:77.97485352px;line-height:125%;font-family:sans-serif;letter-spacing:0px;word-spacing:0px;fill:#42290d;fill-opacity:1;stroke:none;stroke-width:1px;stroke-linecap:butt;stroke-linejoin:miter;stroke-opacity:1"
           x="460.21405"
           y="325.68719"
           id="text13778"
           sodipodi:linespacing="125%"
           transform="scale(0.99918447,1.0008162)"><tspan
             sodipodi:role="line"
             id="tspan13780"
             x="460.21405"
             y="325.68719">:</tspan></text>
        <text
           transform="scale(0.99918447,1.0008162)"
           sodipodi:linespacing="125%"
           id="text13790"
           y="326.37097"
           x="449.7067"
           style="font-style:normal;font-weight:normal;font-size:71.92693329px;line-height:125%;font-family:sans-serif;letter-spacing:0px;word-spacing:0px;fill:#d8c586;fill-opacity:1;stroke:none;stroke-width:1px;stroke-linecap:butt;stroke-linejoin:miter;stroke-opacity:1"
           xml:space="preserve"><tspan
             y="326.37097"
             x="449.7067"
             id="tspan13792"
             sodipodi:role="line">:</tspan></text>
        <g
           style="font-style:normal;font-weight:normal;font-size:40px;line-height:125%;font-family:sans-serif;letter-spacing:0px;word-spacing:0px;fill:#42290d;fill-opacity:1;stroke:none;stroke-width:1px;stroke-linecap:butt;stroke-linejoin:miter;stroke-opacity:1"
           id="g13794"
           transform="matrix(1.816997,0,0,1.816997,-114.61349,332.50232)">
          <g
             id="g13796"
             transform="translate(301.32214,-340.94806)">
            <path
               sodipodi:nodetypes="ssccscccssccsccs"
               d="m -27.005527,341.9378 -31.214185,0 c -0.217564,0 -0.415933,-0.064 -0.595106,-0.19197 -0.166375,-0.12798 -0.300755,-0.28155 -0.403139,-0.46072 -0.102384,-0.17917 -0.153575,-0.37115 -0.153575,-0.57591 0,-0.19198 0.05119,-0.39036 0.153575,-0.59511 l 15.587902,-27.68195 c 0.102384,-0.17917 0.243158,-0.31356 0.422325,-0.40315 0.179172,-0.0896 0.371143,-0.13438 0.57591,-0.13438 0.204767,0 0.396737,0.0448 0.57591,0.13438 0.179172,0.0895 0.319951,0.22398 0.422334,0.40315 l 15.626284,27.68195 c 0.102384,0.20476 0.153575,0.40314 0.153575,0.59511 0,0.20476 -0.05119,0.39674 -0.153575,0.57591 -0.102384,0.17917 -0.243159,0.33274 -0.422325,0.46072 -0.166376,0.12797 -0.358346,0.19197 -0.57591,0.19197 z"
               style="fill:#d8c586;fill-opacity:1"
               id="path13798"
               inkscape:connector-curvature="0" />
            <path
               inkscape:connector-curvature="0"
               id="path13800"
               style="fill:#42290d;fill-opacity:1"
               d="m -26.733715,342.19941 -31.75781,0 q -0.33203,0 -0.60547,-0.19531 -0.25391,-0.19532 -0.41016,-0.46875 -0.15625,-0.27344 -0.15625,-0.58594 0,-0.29297 0.15625,-0.60547 l 15.85938,-28.16406 q 0.15625,-0.27344 0.42968,-0.41016 0.27344,-0.13672 0.58594,-0.13672 0.3125,0 0.58594,0.13672 0.27344,0.13672 0.42969,0.41016 l 15.89843,28.16406 q 0.15625,0.3125 0.15625,0.60547 0,0.3125 -0.15625,0.58594 -0.15625,0.27343 -0.42968,0.46875 -0.25391,0.19531 -0.58594,0.19531 z m -29.72656,-2.5 27.65625,0 -13.82813,-24.49219 -13.82812,24.49219 z m 15.64453,-7.10938 -3.63281,0 0,-10.83984 3.63281,0 0,10.83984 z m 0.54687,3.55469 q 0,0.50781 -0.19531,0.9375 -0.17578,0.42969 -0.50781,0.76172 -0.3125,0.3125 -0.74219,0.50781 -0.42969,0.17578 -0.91797,0.17578 -0.48828,0 -0.91797,-0.17578 -0.42968,-0.19531 -0.74218,-0.50781 -0.3125,-0.33203 -0.48829,-0.76172 -0.17578,-0.42969 -0.17578,-0.9375 0,-0.48828 0.17578,-0.9375 0.17579,-0.44922 0.48829,-0.76172 0.3125,-0.33203 0.74218,-0.52734 0.42969,-0.19531 0.91797,-0.19531 0.48828,0 0.91797,0.19531 0.42969,0.19531 0.74219,0.52734 0.33203,0.3125 0.50781,0.76172 0.19531,0.44922 0.19531,0.9375 z" />
          </g>
        </g>
      </g>
    </g>
  </g>
</svg>
