<?xml version="1.0" encoding="UTF-8" standalone="no"?>
<!-- Created with Inkscape (http://www.inkscape.org/) -->

<svg
   xmlns:dc="http://purl.org/dc/elements/1.1/"
   xmlns:cc="http://creativecommons.org/ns#"
   xmlns:rdf="http://www.w3.org/1999/02/22-rdf-syntax-ns#"
   xmlns:svg="http://www.w3.org/2000/svg"
   xmlns="http://www.w3.org/2000/svg"
   xmlns:sodipodi="http://sodipodi.sourceforge.net/DTD/sodipodi-0.dtd"
   xmlns:inkscape="http://www.inkscape.org/namespaces/inkscape"
   width="75"
   height="75"
   viewBox="0 0 75.000001 75.000001"
   id="svg5199"
   version="1.1"
   inkscape:version="0.91 r13725"
   sodipodi:docname="figure_alerts_alarm.svg">
  <defs
     id="defs5201" />
  <sodipodi:namedview
     id="base"
     pagecolor="#ffffff"
     bordercolor="#666666"
     borderopacity="1.0"
     inkscape:pageopacity="0.0"
     inkscape:pageshadow="2"
     inkscape:zoom="1.979899"
     inkscape:cx="113.99545"
     inkscape:cy="-12.47845"
     inkscape:document-units="px"
     inkscape:current-layer="layer1"
     showgrid="false"
     units="px"
     borderlayer="true"
     inkscape:window-width="1280"
     inkscape:window-height="961"
     inkscape:window-x="1912"
     inkscape:window-y="-8"
     inkscape:window-maximized="1" />
  <metadata
     id="metadata5204">
    <rdf:RDF>
      <cc:Work
         rdf:about="">
        <dc:format>image/svg+xml</dc:format>
        <dc:type
           rdf:resource="http://purl.org/dc/dcmitype/StillImage" />
        <dc:title />
      </cc:Work>
    </rdf:RDF>
  </metadata>
  <g
     inkscape:label="Layer 1"
     inkscape:groupmode="layer"
     id="layer1"
     transform="translate(0,-977.36216)">
    <rect
       ry="5.2912221"
       y="977.36218"
       x="6.3343717e-009"
       height="75"
       width="75"
       id="rect5149"
       style="fill:#42290d;fill-opacity:1;stroke:none;stroke-width:1.74198794;stroke-miterlimit:4;stroke-dasharray:none;stroke-opacity:1" />
    <g
       id="g5246"
       transform="matrix(0.25205377,0,0,0.25205376,141.56696,810.26329)"
       style="fill:#42290d;fill-opacity:1">
      <path
         id="path5238"
         d="m -361.34368,894.60352 c -1.5875,0 -2.72928,0.83893 -3.38869,1.89253 -0.58973,0.9421 -0.83508,2.03513 -0.88294,2.9924 -1.79963,0.88864 -3.79332,1.78454 -5.39841,2.70058 -0.84204,0.4806 -1.57611,0.96388 -2.12868,1.48324 -0.55257,0.51934 -0.96029,1.10419 -0.96029,1.79411 0,0.29359 0.1436,0.53281 0.3051,0.70834 0.16225,0.17616 0.35598,0.31224 0.57695,0.43936 0.44187,0.2546 0.99893,0.46672 1.61176,0.65031 0.91035,0.27285 1.92989,0.47562 2.81637,0.56227 -0.88172,1.51742 -2.05515,2.9109 -3.08373,4.24619 -1.18873,1.54333 -2.22649,3.02327 -2.22649,4.66753 0,0.23488 -0.003,0.41821 0.0179,0.60247 0.0215,0.1844 0.0737,0.41405 0.25928,0.59623 0.18549,0.18226 0.41257,0.2313 0.59754,0.25136 0.18478,0.0215 0.37132,0.0215 0.61036,0.0215 l 6.55832,0 c 0.47611,0 0.82468,0.0287 1.18328,-0.20123 0.35869,-0.23022 0.48947,-0.54463 0.74496,-1.01448 l 0.003,0 0.003,-0.0215 c 0,0 0.57168,-1.16076 1.25378,-2.31284 0.3409,-0.57568 0.71126,-1.14934 1.03331,-1.55574 0.16119,-0.20301 0.31191,-0.36436 0.42042,-0.45533 0.0322,-0.0285 0.0484,-0.0322 0.0695,-0.0456 0.0215,0.0215 0.0361,0.0215 0.0695,0.0456 0.1084,0.0913 0.25928,0.25206 0.42038,0.45533 0.32195,0.4064 0.69227,0.98006 1.03334,1.55574 0.68203,1.15208 1.25374,2.31284 1.25374,2.31284 l 0.003,0.0215 0.003,0 c 0.25569,0.46985 0.38513,0.78236 0.74147,1.01324 0.3563,0.23059 0.70403,0.20302 1.17339,0.20302 l 6.58723,0 c 0.2353,0 0.41862,0 0.60231,-0.0215 0.18371,-0.0215 0.41151,-0.0705 0.59507,-0.25458 0.18334,-0.1844 0.2342,-0.41076 0.25461,-0.59416 0.0215,-0.18225 0.0179,-0.36663 0.0179,-0.60161 0,-1.64405 -1.03778,-3.12399 -2.22649,-4.66735 -1.02852,-1.33527 -2.20195,-2.72877 -3.08372,-4.24619 0.88648,-0.0871 1.90603,-0.28967 2.81637,-0.56225 0.61282,-0.18441 1.16988,-0.39584 1.61176,-0.65032 0.22094,-0.12634 0.415,-0.26354 0.5768,-0.43915 0.1619,-0.17617 0.30546,-0.41493 0.30546,-0.70858 0,-0.6899 -0.4077,-1.27475 -0.96026,-1.79408 -0.55259,-0.51937 -1.28668,-1.00263 -2.12866,-1.48326 -1.60517,-0.916 -3.59878,-1.81192 -5.39848,-2.70056 -0.0481,-0.95723 -0.29329,-2.05024 -0.88293,-2.99238 -0.65941,-1.05362 -1.80116,-1.89256 -3.38869,-1.89256 z"
         inkscape:connector-curvature="0"
         style="fill:#42290d;fill-opacity:1;stroke:none;stroke-opacity:1" />
      <path
         style="fill:#42290d;fill-opacity:1;stroke:none;stroke-opacity:1"
         inkscape:connector-curvature="0"
         d="m -333.11578,894.60352 c -1.5875,0 -2.72925,0.8389 -3.38866,1.89253 -0.58974,0.94212 -0.8351,2.03509 -0.88296,2.99237 -1.79966,0.88867 -3.7933,1.78457 -5.39845,2.70059 -0.84197,0.48061 -1.5761,0.96386 -2.12864,1.48323 -0.55258,0.51937 -0.96027,1.10422 -0.96027,1.79409 0,0.29363 0.14359,0.53283 0.3051,0.70839 0.16225,0.17616 0.35596,0.31224 0.57695,0.43933 0.44183,0.25459 0.99893,0.46671 1.61174,0.65034 0.91036,0.27285 1.9299,0.47562 2.81638,0.56223 -0.88173,1.51746 -2.05516,2.91095 -3.08376,4.24624 -1.1887,1.54332 -2.22645,3.02323 -2.22645,4.66749 0,0.23487 -0.003,0.41824 0.0179,0.6025 0.0215,0.1844 0.0737,0.41406 0.25928,0.59623 0.1855,0.18226 0.4126,0.2313 0.59757,0.25136 0.18479,0.0215 0.37132,0.0215 0.61031,0.0215 l 6.55838,0 c 0.47606,0 0.82468,0.0287 1.18328,-0.2012 0.35865,-0.23025 0.48944,-0.54464 0.74496,-1.01448 l 0.003,0 0.003,-0.0216 c 0,0 0.57169,-1.16075 1.25382,-2.31285 0.34091,-0.5757 0.71123,-1.14934 1.03331,-1.55576 0.16119,-0.20302 0.3119,-0.36434 0.42039,-0.45532 0.0322,-0.0287 0.0484,-0.0322 0.0695,-0.0455 0.0215,0.0215 0.0366,0.0215 0.0695,0.0455 0.1084,0.091 0.25927,0.25209 0.42038,0.45532 0.32193,0.40642 0.69226,0.98006 1.03328,1.55576 0.68206,1.1521 1.2538,2.31285 1.2538,2.31285 l 0.003,0.0216 0.003,0 c 0.25569,0.46984 0.38512,0.78236 0.74142,1.01321 0.35632,0.23059 0.70404,0.20302 1.17341,0.20302 l 6.58726,0 c 0.23527,0 0.41862,0 0.6023,-0.0215 0.1837,-0.0215 0.41146,-0.0705 0.59502,-0.2546 0.18337,-0.18438 0.2342,-0.41076 0.25461,-0.59416 0.0215,-0.18223 0.018,-0.36662 0.018,-0.60159 0,-1.64408 -1.03775,-3.12401 -2.22645,-4.66737 -1.02856,-1.33525 -2.20195,-2.72877 -3.08377,-4.24617 0.8865,-0.0871 1.90602,-0.28969 2.81642,-0.56227 0.61277,-0.1844 1.16987,-0.39583 1.6117,-0.65031 0.22097,-0.12635 0.41502,-0.26353 0.57683,-0.43916 0.16189,-0.17617 0.30545,-0.41491 0.30545,-0.70856 0,-0.68992 -0.40771,-1.27477 -0.96027,-1.79413 -0.55259,-0.51934 -1.28666,-1.00263 -2.12865,-1.48323 -1.60514,-0.916 -3.59877,-1.81192 -5.39844,-2.70059 -0.0479,-0.95725 -0.29329,-2.05021 -0.88294,-2.99235 -0.65943,-1.05363 -1.80114,-1.89256 -3.38871,-1.89256 z"
         id="path5240" />
      <text
         transform="scale(1.0000655,0.99993451)"
         sodipodi:linespacing="125%"
         id="text5242"
         y="915.44635"
         x="-319.87796"
         style="font-style:normal;font-weight:normal;font-size:31.57863808px;line-height:125%;font-family:sans-serif;letter-spacing:0px;word-spacing:0px;fill:#42290d;fill-opacity:1;stroke:none;stroke-width:1px;stroke-linecap:butt;stroke-linejoin:miter;stroke-opacity:1"
         xml:space="preserve"><tspan
           style="font-style:normal;font-variant:normal;font-weight:normal;font-stretch:normal;font-family:'Archivo Black';-inkscape-font-specification:'Archivo Black, ';fill:#42290d;fill-opacity:1"
           y="915.44635"
           x="-319.87796"
           id="tspan5244"
           sodipodi:role="line">+</tspan></text>
    </g>
    <path
       inkscape:connector-curvature="0"
       style="fill:#d8c586;fill-opacity:1"
       d="m 36.457825,982.87969 c -10.834268,-0.0193 -21.379997,5.60507 -27.1858892,15.67791 -5.8809521,10.2031 -5.3803811,22.3413 0.2547995,31.7831 -3.4750312,-8.8124 -2.6759668,-19.9777 3.0324737,-29.8816 5.711985,-9.90996 14.975862,-16.18861 24.33831,-17.5752 -0.146546,0 -0.293202,0 -0.439694,0 z m -0.02073,7.03862 c -8.401646,-0.0175 -16.577402,4.34708 -21.079813,12.15809 -4.559852,7.9115 -4.175389,17.3206 0.193295,24.6423 -2.69255,-6.8331 -2.070988,-15.4904 2.354481,-23.1685 4.428115,-7.68275 11.607039,-12.55064 18.865114,-13.62802 -0.110871,-0.003 -0.222233,0 -0.332941,0 z m -0.172622,5.72508 c -6.362349,0.049 -12.537731,3.37321 -15.943375,9.28131 -5.113172,8.8714 -2.068343,20.2489 6.788405,25.3708 8.856613,5.1221 20.215263,2.0759 25.328571,-6.7953 5.11369,-8.8714 2.06837,-20.2531 -6.788106,-25.3748 -2.767637,-1.60031 -5.779081,-2.40125 -8.768788,-2.47746 -0.205678,0 -0.411329,0 -0.616707,0 z m -0.05738,2.44893 -0.08221,3.87758 c -2.010766,0.021 -3.991285,0.5378 -5.752735,1.5062 l -1.968436,-3.2637 c 2.377365,-1.35855 5.06716,-2.08994 7.80324,-2.11992 z m 27.013241,0.0175 c 3.480568,8.81428 2.682813,19.98578 -3.028273,29.89428 -5.70514,9.898 -14.954289,16.1742 -24.305445,17.5708 10.974977,0.1612 21.710865,-5.4757 27.588681,-15.6736 5.882398,-10.2056 5.384581,-22.3481 -0.2551,-31.79132 z m -22.476655,0.59265 c 1.25706,0.35702 2.493091,0.87085 3.677845,1.55603 1.23284,0.7128 2.334326,1.5649 3.299383,2.5228 l -2.868116,2.7536 c -0.735297,-0.7344 -1.576991,-1.3855 -2.518838,-1.9302 -0.813029,-0.4702 -1.658133,-0.8377 -2.519002,-1.1031 l 0.928865,-3.79913 z m 16.444601,3.02543 c 2.699914,6.8355 2.082826,15.5007 -2.346353,23.1849 -4.42206,7.6718 -11.588356,12.5375 -18.836148,13.6238 8.50777,0.1227 16.827373,-4.2491 21.383815,-12.1542 4.562497,-7.9158 4.173807,-17.3313 -0.201177,-24.6548 z m -32.392177,1.2964 2.621418,2.737 c -0.648645,0.6844 -1.229813,1.4557 -1.721765,2.3089 -0.532128,0.9232 -0.925673,1.8868 -1.195774,2.8689 l -3.661125,-0.9014 c 0.357679,-1.3279 0.890734,-2.6325 1.610784,-3.8814 0.66891,-1.161 1.459573,-2.2082 2.346216,-3.1322 z m 25.673731,3.4039 c 1.310599,2.3815 2.005257,5.065 2.005257,7.7874 l -4.051508,-0.086 c -0.0093,-1.9573 -0.48587,-3.8861 -1.38896,-5.6182 l 3.435211,-2.0826 z m -30.181516,8.1248 3.784326,0.082 c 0.07749,1.978 0.634844,3.9163 1.623112,5.6345 l -3.266762,1.98 c -1.345157,-2.3439 -2.082826,-4.9969 -2.140676,-7.6968 z m 27.604965,3.1899 3.936327,0.967 c -0.355034,1.2171 -0.85866,2.4125 -1.520315,3.5603 -0.711376,1.2342 -1.55948,2.3393 -2.514801,3.3053 l -2.798375,-2.9225 c 0.679138,-0.7037 1.28507,-1.5011 1.79576,-2.3872 0.469969,-0.8152 0.836322,-1.6596 1.101267,-2.523 z m -19.904687,5.4001 c 0.647854,0.5967 1.37145,1.1295 2.165659,1.5884 0.921364,0.5331 1.88364,0.9319 2.86389,1.202 l -0.932792,3.8073 c -1.281253,-0.3579 -2.540931,-0.8785 -3.747505,-1.5763 -1.159253,-0.6704 -2.204334,-1.4621 -3.126898,-2.3503 l 2.777646,-2.6711 z m 14.127051,1.7161 2.079416,3.4451 c -2.338825,1.3007 -4.971153,1.9971 -7.647038,2.0251 l 0.08221,-3.9678 c 1.918469,-0.063 3.801945,-0.5765 5.485579,-1.5022 z"
       id="path3559" />
  </g>
</svg>
