<?xml version="1.0" encoding="UTF-8" standalone="no"?>
<!-- Created with Inkscape (http://www.inkscape.org/) -->

<svg
   xmlns:dc="http://purl.org/dc/elements/1.1/"
   xmlns:cc="http://creativecommons.org/ns#"
   xmlns:rdf="http://www.w3.org/1999/02/22-rdf-syntax-ns#"
   xmlns:svg="http://www.w3.org/2000/svg"
   xmlns="http://www.w3.org/2000/svg"
   xmlns:sodipodi="http://sodipodi.sourceforge.net/DTD/sodipodi-0.dtd"
   xmlns:inkscape="http://www.inkscape.org/namespaces/inkscape"
   width="75"
   height="75"
   viewBox="0 0 75.000001 75.000001"
   id="svg5199"
   version="1.1"
   inkscape:version="0.91 r13725"
   sodipodi:docname="figure_alerts_adj_guard.svg">
  <defs
     id="defs5201" />
  <sodipodi:namedview
     id="base"
     pagecolor="#ffffff"
     bordercolor="#666666"
     borderopacity="1.0"
     inkscape:pageopacity="0.0"
     inkscape:pageshadow="2"
     inkscape:zoom="3.959798"
     inkscape:cx="75.799726"
     inkscape:cy="40.736412"
     inkscape:document-units="px"
     inkscape:current-layer="layer1"
     showgrid="false"
     units="px"
     borderlayer="true"
     inkscape:window-width="1280"
     inkscape:window-height="961"
     inkscape:window-x="1912"
     inkscape:window-y="-8"
     inkscape:window-maximized="1" />
  <metadata
     id="metadata5204">
    <rdf:RDF>
      <cc:Work
         rdf:about="">
        <dc:format>image/svg+xml</dc:format>
        <dc:type
           rdf:resource="http://purl.org/dc/dcmitype/StillImage" />
        <dc:title />
      </cc:Work>
    </rdf:RDF>
  </metadata>
  <g
     inkscape:label="Layer 1"
     inkscape:groupmode="layer"
     id="layer1"
     transform="translate(0,-977.36216)">
    <rect
       ry="5.291132"
       y="977.3634"
       x="-1.3642023e-006"
       height="74.998726"
       width="74.998726"
       id="rect5171"
       style="fill:#42290d;fill-opacity:1;stroke:none;stroke-width:1.74198794;stroke-miterlimit:4;stroke-dasharray:none;stroke-opacity:1" />
    <path
       transform="matrix(1.5176804,0,0,1.5181853,-564.56128,-657.39499)"
       sodipodi:type="star"
       style="font-style:normal;font-weight:normal;font-size:medium;line-height:125%;font-family:sans-serif;letter-spacing:0px;word-spacing:0px;fill:#000000;fill-opacity:1;stroke:#000000;stroke-width:0.34409046;stroke-linecap:butt;stroke-linejoin:round;stroke-miterlimit:4;stroke-dasharray:none;stroke-dashoffset:0;stroke-opacity:1"
       id="path6226"
       sodipodi:sides="6"
       sodipodi:cx="407.40814"
       sodipodi:cy="1113.0243"
       sodipodi:r1="11.162703"
       sodipodi:r2="9.6671848"
       sodipodi:arg1="-1.0471976"
       sodipodi:arg2="-0.52359878"
       inkscape:flatsided="true"
       inkscape:rounded="0"
       inkscape:randomized="0"
       d="m 412.98949,1103.3571 5.58135,9.6672 -5.58135,9.6672 -11.1627,0 -5.58135,-9.6672 5.58135,-9.6672 z" />
    <path
       transform="matrix(1.5176804,0,0,1.5181853,-564.56128,-657.39499)"
       d="m 395.48223,1093.1241 5.58135,9.6672 -5.58135,9.6671 -11.1627,0 -5.58135,-9.6671 5.58135,-9.6672 z"
       inkscape:randomized="0"
       inkscape:rounded="0"
       inkscape:flatsided="true"
       sodipodi:arg2="-0.52359878"
       sodipodi:arg1="-1.0471976"
       sodipodi:r2="9.6671848"
       sodipodi:r1="11.162703"
       sodipodi:cy="1102.7913"
       sodipodi:cx="389.90088"
       sodipodi:sides="6"
       id="path6228"
       style="font-style:normal;font-weight:normal;font-size:medium;line-height:125%;font-family:sans-serif;letter-spacing:0px;word-spacing:0px;fill:#000000;fill-opacity:1;stroke:#000000;stroke-width:0.34409046;stroke-linecap:butt;stroke-linejoin:round;stroke-miterlimit:4;stroke-dasharray:none;stroke-dashoffset:0;stroke-opacity:1"
       sodipodi:type="star" />
    <path
       id="path6230"
       d="m 53.908662,1022.3495 c -1.161019,0 -1.995995,0.6146 -2.478266,1.3864 -0.431285,0.6902 -0.610731,1.4909 -0.645745,2.1921 -1.316141,0.651 -2.774174,1.3073 -3.948071,1.9784 -0.615787,0.352 -1.152642,0.7061 -1.556761,1.0865 -0.404118,0.3805 -0.70229,0.8089 -0.70229,1.3143 0,0.2152 0.105016,0.3903 0.223163,0.5189 0.11855,0.1291 0.260341,0.2287 0.421928,0.3219 0.323149,0.1864 0.730588,0.3419 1.178751,0.4764 0.665768,0.1998 1.411398,0.3484 2.059709,0.4119 -0.64484,1.1116 -1.503007,2.1324 -2.255253,3.1106 -0.869336,1.1306 -1.628298,2.2147 -1.628298,3.4193 0,0.1719 -0.0035,0.3063 0.01358,0.4413 0.01509,0.1351 0.05403,0.3033 0.189633,0.4368 0.135654,0.1336 0.301744,0.1694 0.436995,0.1841 0.135226,0.015 0.271559,0.015 0.446377,0.015 l 4.796353,0 c 0.348177,0 0.603135,0.021 0.865387,-0.1473 0.262303,-0.1687 0.357937,-0.399 0.544829,-0.7432 l 0.0035,0 0.0035,-0.015 c 0,0 0.418079,-0.8503 0.916927,-1.6943 0.249398,-0.4217 0.520178,-0.842 0.755691,-1.1397 0.117946,-0.1488 0.228094,-0.2669 0.307454,-0.3335 0.0244,-0.02 0.03537,-0.024 0.05083,-0.033 0.0156,0.015 0.02659,0.015 0.05081,0.033 0.07936,0.067 0.189608,0.1846 0.307428,0.3335 0.235539,0.2977 0.506293,0.718 0.755692,1.1397 0.498822,0.844 0.916952,1.6943 0.916952,1.6943 l 0.0035,0.015 0.0035,0 c 0.186892,0.3442 0.281671,0.5731 0.542238,0.7423 0.260491,0.169 0.514895,0.1488 0.858168,0.1488 l 4.817507,0 c 0.171975,0 0.306145,0 0.440466,-0.015 0.13432,-0.015 0.300938,-0.052 0.435183,-0.1864 0.13417,-0.1351 0.171322,-0.3009 0.186188,-0.4353 0.01509,-0.1336 0.01358,-0.2685 0.01358,-0.4407 0,-1.2044 -0.758962,-2.2885 -1.628323,-3.4191 -0.752196,-0.9782 -1.610364,-1.999 -2.255254,-3.1106 0.648336,-0.064 1.393967,-0.2121 2.059734,-0.4119 0.448163,-0.1351 0.855577,-0.29 1.178727,-0.4764 0.161612,-0.093 0.303504,-0.1931 0.421852,-0.3217 0.118373,-0.129 0.223264,-0.3039 0.223264,-0.5191 0,-0.5054 -0.298172,-0.9338 -0.702291,-1.3143 -0.404119,-0.3804 -0.940974,-0.7345 -1.556761,-1.0865 -1.173896,-0.671 -2.631929,-1.3274 -3.948095,-1.9784 -0.03501,-0.7012 -0.214486,-1.5019 -0.64572,-2.1921 -0.482271,-0.7718 -1.317248,-1.3864 -2.478266,-1.3864 z"
       inkscape:connector-curvature="0"
       style="fill:#ffffff;stroke:none;stroke-opacity:1" />
    <g
       inkscape:label="Layer 1"
       id="g6192"
       transform="matrix(0.45339092,0,0,0.45339089,12.297593,554.99904)"
       style="fill:#ffffff">
      <path
         inkscape:connector-curvature="0"
         style="fill:#ffffff"
         d="m 32.579912,995.13399 c 2.124847,0 3.534937,1.0606 5.426456,2.1113 1.792663,0.996 4.046316,1.8501 7.224481,1.2011 1.508237,1.5076 3.040556,3.01551 4.674665,4.03681 1.337237,0.8358 2.839909,1.3336 4.338736,1.0984 -0.430029,3.3835 -2.484655,6.6932 -4.632572,8.4257 -5.664236,-1.8772 -11.342639,-2.8162 -17.021041,-2.8162 -5.683664,0 -11.367226,0.9408 -17.036623,2.8213 -2.150144,-1.731 -4.20821,-5.044 -4.638543,-8.4308 1.498524,0.2354 3.001499,-0.2626 4.338736,-1.0983 1.634109,-1.0213 3.166226,-2.52911 4.674665,-4.03671 3.177862,0.6489 5.431819,-0.2053 7.224482,-1.2011 1.891721,-1.0512 3.30171,-2.1115 5.426558,-2.1115 z m 0.01063,1.977 c -2.004945,0 -5.379912,2.7095 -5.379912,2.7095 0,0 2.147108,8.12861 5.379912,8.12861 3.233006,0 5.380114,-8.12861 5.380114,-8.12861 0,0 -3.375168,-2.7095 -5.380114,-2.7095 z m 0,13.89451 c 5.341462,0 10.683329,0.8733 16.037945,2.6039 0.220579,1.363 -0.152787,2.3758 -0.955979,3.3124 -0.896483,1.0454 -2.401281,1.9329 -4.184938,2.6013 -3.56772,1.3375 -8.194121,1.8108 -10.897129,1.8108 -2.702907,0 -7.329105,-0.4733 -10.896724,-1.8107 -1.783861,-0.6684 -3.288455,-1.5558 -4.184939,-2.6014 -0.803394,-0.9366 -1.176963,-1.9492 -0.956181,-3.3123 5.354616,-1.7307 10.696381,-2.604 16.037844,-2.604 z m 17.527665,5.7823 c 0.993619,0.241 2.725066,0.7866 3.036104,1.7195 0.850142,2.5495 -1.71202,6.455 -3.649679,8.9193 0.533843,-2.2265 0.821608,-4.5948 0.821608,-7.0505 0,-1.22 -0.07144,-2.4182 -0.208033,-3.5883 z m -35.054926,0 a 30.949923,30.949923 0 0 0 -0.208033,3.5882 c 0,2.4557 0.287665,4.824 0.821608,7.0505 -1.937658,-2.4643 -4.499921,-6.3698 -3.649678,-8.9193 0.310936,-0.9329 2.042484,-1.4785 3.036002,-1.7195 z m 33.393498,1.9398 c 0.03086,0.5441 0.04806,1.0934 0.04806,1.6483 0,6.0077 -1.834452,11.4294 -4.745796,15.3096 -2.911244,3.88 -6.850408,6.2038 -11.168604,6.2038 -4.317892,0 -8.257158,-2.3238 -11.1683,-6.2038 -2.911244,-3.8802 -4.745494,-9.3018 -4.745494,-15.3095 0,-0.5551 0.0172,-1.1044 0.04796,-1.6485 0.829701,0.7747 1.843152,1.4032 2.958091,1.9255 -0.432053,1.8416 0.02691,4.1322 1.224114,5.3289 2.203164,2.2022 7.144041,2.2022 9.347306,0 0.68238,-0.6823 0.975103,-1.7694 0.936451,-2.8602 0.499238,0.022 0.971359,0.033 1.400072,0.033 0.428815,0 0.901036,-0.012 1.400376,-0.033 -0.03875,1.0907 0.25397,2.1779 0.936552,2.8602 2.203265,2.2022 7.14394,2.2022 9.347103,0 1.1972,-1.1967 1.656166,-3.487 1.224114,-5.3285 1.11504,-0.5223 2.128693,-1.1511 2.958193,-1.9258 z m -15.866237,11.926 c -2.336725,3.7373 -7.010176,4.2044 -9.346901,4.2044 2.336624,1.8688 9.3468,1.8688 9.3468,0 0,1.8688 7.010479,1.8688 9.347305,0 -2.336826,0 -7.010479,-0.4671 -9.347305,-4.2044 z"
         id="path6194" />
    </g>
    <path
       d="m 412.98949,1103.3571 5.58135,9.6672 -5.58135,9.6672 -11.1627,0 -5.58135,-9.6672 5.58135,-9.6672 z"
       inkscape:randomized="0"
       inkscape:rounded="0"
       inkscape:flatsided="true"
       sodipodi:arg2="-0.52359878"
       sodipodi:arg1="-1.0471976"
       sodipodi:r2="9.6671848"
       sodipodi:r1="11.162703"
       sodipodi:cy="1113.0243"
       sodipodi:cx="407.40814"
       sodipodi:sides="6"
       id="path6667"
       style="font-style:normal;font-weight:normal;font-size:medium;line-height:125%;font-family:sans-serif;letter-spacing:0px;word-spacing:0px;fill:#d8c586;fill-opacity:1;stroke:none;stroke-width:0.34409046;stroke-linecap:butt;stroke-linejoin:round;stroke-miterlimit:4;stroke-dasharray:none;stroke-dashoffset:0;stroke-opacity:1"
       sodipodi:type="star"
       transform="matrix(1.5176804,0,0,1.5181853,-564.56128,-657.39499)" />
    <path
       sodipodi:type="star"
       style="font-style:normal;font-weight:normal;font-size:medium;line-height:125%;font-family:sans-serif;letter-spacing:0px;word-spacing:0px;fill:#d8c586;fill-opacity:1;stroke:none;stroke-width:0.34409046;stroke-linecap:butt;stroke-linejoin:round;stroke-miterlimit:4;stroke-dasharray:none;stroke-dashoffset:0;stroke-opacity:1"
       id="path6669"
       sodipodi:sides="6"
       sodipodi:cx="389.90088"
       sodipodi:cy="1102.7913"
       sodipodi:r1="11.162703"
       sodipodi:r2="9.6671848"
       sodipodi:arg1="-1.0471976"
       sodipodi:arg2="-0.52359878"
       inkscape:flatsided="true"
       inkscape:rounded="0"
       inkscape:randomized="0"
       d="m 395.48223,1093.1241 5.58135,9.6672 -5.58135,9.6671 -11.1627,0 -5.58135,-9.6671 5.58135,-9.6672 z"
       transform="matrix(1.5176804,0,0,1.5181853,-564.56128,-657.39499)" />
    <path
       style="fill:#42290d;fill-opacity:1;stroke:none;stroke-opacity:1"
       inkscape:connector-curvature="0"
       d="m 53.908662,1022.3495 c -1.161019,0 -1.995995,0.6146 -2.478266,1.3864 -0.431285,0.6902 -0.610731,1.4909 -0.645745,2.1921 -1.316141,0.651 -2.774174,1.3073 -3.948071,1.9784 -0.615787,0.352 -1.152642,0.7061 -1.556761,1.0865 -0.404118,0.3805 -0.70229,0.8089 -0.70229,1.3143 0,0.2152 0.105016,0.3903 0.223163,0.5189 0.11855,0.1291 0.260341,0.2287 0.421928,0.3219 0.323149,0.1864 0.730588,0.3419 1.178751,0.4764 0.665768,0.1998 1.411398,0.3484 2.059709,0.4119 -0.64484,1.1116 -1.503007,2.1324 -2.255253,3.1106 -0.869336,1.1306 -1.628298,2.2147 -1.628298,3.4193 0,0.1719 -0.0035,0.3063 0.01358,0.4413 0.01509,0.1351 0.05403,0.3033 0.189633,0.4368 0.135654,0.1336 0.301744,0.1694 0.436995,0.1841 0.135226,0.015 0.271559,0.015 0.446377,0.015 l 4.796353,0 c 0.348177,0 0.603135,0.021 0.865387,-0.1473 0.262303,-0.1687 0.357937,-0.399 0.544829,-0.7432 l 0.0035,0 0.0035,-0.015 c 0,0 0.418079,-0.8503 0.916927,-1.6943 0.249398,-0.4217 0.520178,-0.842 0.755691,-1.1397 0.117946,-0.1488 0.228094,-0.2669 0.307454,-0.3335 0.0244,-0.02 0.03537,-0.024 0.05083,-0.033 0.0156,0.015 0.02659,0.015 0.05081,0.033 0.07936,0.067 0.189608,0.1846 0.307428,0.3335 0.235539,0.2977 0.506293,0.718 0.755692,1.1397 0.498822,0.844 0.916952,1.6943 0.916952,1.6943 l 0.0035,0.015 0.0035,0 c 0.186892,0.3442 0.281671,0.5731 0.542238,0.7423 0.260491,0.169 0.514895,0.1488 0.858168,0.1488 l 4.817507,0 c 0.171975,0 0.306145,0 0.440466,-0.015 0.13432,-0.015 0.300938,-0.052 0.435183,-0.1864 0.13417,-0.1351 0.171322,-0.3009 0.186188,-0.4353 0.01509,-0.1336 0.01358,-0.2685 0.01358,-0.4407 0,-1.2044 -0.758962,-2.2885 -1.628323,-3.4191 -0.752196,-0.9782 -1.610364,-1.999 -2.255254,-3.1106 0.648336,-0.064 1.393967,-0.2121 2.059734,-0.4119 0.448163,-0.1351 0.855577,-0.29 1.178727,-0.4764 0.161612,-0.093 0.303504,-0.1931 0.421852,-0.3217 0.118373,-0.129 0.223264,-0.3039 0.223264,-0.5191 0,-0.5054 -0.298172,-0.9338 -0.702291,-1.3143 -0.404119,-0.3804 -0.940974,-0.7345 -1.556761,-1.0865 -1.173896,-0.671 -2.631929,-1.3274 -3.948095,-1.9784 -0.03501,-0.7012 -0.214486,-1.5019 -0.64572,-2.1921 -0.482271,-0.7718 -1.317248,-1.3864 -2.478266,-1.3864 z"
       id="path6671" />
    <g
       style="fill:#42290d;fill-opacity:1"
       transform="matrix(0.45339092,0,0,0.45339089,12.297593,554.99904)"
       id="g6673"
       inkscape:label="Layer 1">
      <path
         id="path6675"
         d="m 32.579912,995.13399 c 2.124847,0 3.534937,1.0606 5.426456,2.1113 1.792663,0.996 4.046316,1.8501 7.224481,1.2011 1.508237,1.5076 3.040556,3.01551 4.674665,4.03681 1.337237,0.8358 2.839909,1.3336 4.338736,1.0984 -0.430029,3.3835 -2.484655,6.6932 -4.632572,8.4257 -5.664236,-1.8772 -11.342639,-2.8162 -17.021041,-2.8162 -5.683664,0 -11.367226,0.9408 -17.036623,2.8213 -2.150144,-1.731 -4.20821,-5.044 -4.638543,-8.4308 1.498524,0.2354 3.001499,-0.2626 4.338736,-1.0983 1.634109,-1.0213 3.166226,-2.52911 4.674665,-4.03671 3.177862,0.6489 5.431819,-0.2053 7.224482,-1.2011 1.891721,-1.0512 3.30171,-2.1115 5.426558,-2.1115 z m 0.01063,1.977 c -2.004945,0 -5.379912,2.7095 -5.379912,2.7095 0,0 2.147108,8.12861 5.379912,8.12861 3.233006,0 5.380114,-8.12861 5.380114,-8.12861 0,0 -3.375168,-2.7095 -5.380114,-2.7095 z m 0,13.89451 c 5.341462,0 10.683329,0.8733 16.037945,2.6039 0.220579,1.363 -0.152787,2.3758 -0.955979,3.3124 -0.896483,1.0454 -2.401281,1.9329 -4.184938,2.6013 -3.56772,1.3375 -8.194121,1.8108 -10.897129,1.8108 -2.702907,0 -7.329105,-0.4733 -10.896724,-1.8107 -1.783861,-0.6684 -3.288455,-1.5558 -4.184939,-2.6014 -0.803394,-0.9366 -1.176963,-1.9492 -0.956181,-3.3123 5.354616,-1.7307 10.696381,-2.604 16.037844,-2.604 z m 17.527665,5.7823 c 0.993619,0.241 2.725066,0.7866 3.036104,1.7195 0.850142,2.5495 -1.71202,6.455 -3.649679,8.9193 0.533843,-2.2265 0.821608,-4.5948 0.821608,-7.0505 0,-1.22 -0.07144,-2.4182 -0.208033,-3.5883 z m -35.054926,0 a 30.949923,30.949923 0 0 0 -0.208033,3.5882 c 0,2.4557 0.287665,4.824 0.821608,7.0505 -1.937658,-2.4643 -4.499921,-6.3698 -3.649678,-8.9193 0.310936,-0.9329 2.042484,-1.4785 3.036002,-1.7195 z m 33.393498,1.9398 c 0.03086,0.5441 0.04806,1.0934 0.04806,1.6483 0,6.0077 -1.834452,11.4294 -4.745796,15.3096 -2.911244,3.88 -6.850408,6.2038 -11.168604,6.2038 -4.317892,0 -8.257158,-2.3238 -11.1683,-6.2038 -2.911244,-3.8802 -4.745494,-9.3018 -4.745494,-15.3095 0,-0.5551 0.0172,-1.1044 0.04796,-1.6485 0.829701,0.7747 1.843152,1.4032 2.958091,1.9255 -0.432053,1.8416 0.02691,4.1322 1.224114,5.3289 2.203164,2.2022 7.144041,2.2022 9.347306,0 0.68238,-0.6823 0.975103,-1.7694 0.936451,-2.8602 0.499238,0.022 0.971359,0.033 1.400072,0.033 0.428815,0 0.901036,-0.012 1.400376,-0.033 -0.03875,1.0907 0.25397,2.1779 0.936552,2.8602 2.203265,2.2022 7.14394,2.2022 9.347103,0 1.1972,-1.1967 1.656166,-3.487 1.224114,-5.3285 1.11504,-0.5223 2.128693,-1.1511 2.958193,-1.9258 z m -15.866237,11.926 c -2.336725,3.7373 -7.010176,4.2044 -9.346901,4.2044 2.336624,1.8688 9.3468,1.8688 9.3468,0 0,1.8688 7.010479,1.8688 9.347305,0 -2.336826,0 -7.010479,-0.4671 -9.347305,-4.2044 z"
         style="fill:#42290d;fill-opacity:1"
         inkscape:connector-curvature="0" />
    </g>
    <g
       transform="matrix(0.25153674,0,0,0.25111981,-179.9564,945.539)"
       id="g14013">
      <g
         transform="matrix(2.5502364,0,0,2.5502364,115.61037,213.89339)"
         id="g14015"
         style="font-style:normal;font-weight:normal;font-size:40px;line-height:125%;font-family:sans-serif;letter-spacing:0px;word-spacing:0px;fill:#42290d;fill-opacity:1;stroke:none;stroke-width:1px;stroke-linecap:butt;stroke-linejoin:miter;stroke-opacity:1">
        <g
           transform="translate(301.32214,-340.94806)"
           id="g14017">
          <path
             inkscape:connector-curvature="0"
             id="path14019"
             style="fill:#d8c586;fill-opacity:1"
             d="m -27.005527,341.9378 -31.214185,0 c -0.217564,0 -0.415933,-0.064 -0.595106,-0.19197 -0.166375,-0.12798 -0.300755,-0.28155 -0.403139,-0.46072 -0.102384,-0.17917 -0.153575,-0.37115 -0.153575,-0.57591 0,-0.19198 0.05119,-0.39036 0.153575,-0.59511 l 15.587902,-27.68195 c 0.102384,-0.17917 0.243158,-0.31356 0.422325,-0.40315 0.179172,-0.0896 0.371143,-0.13438 0.57591,-0.13438 0.204767,0 0.396737,0.0448 0.57591,0.13438 0.179172,0.0895 0.319951,0.22398 0.422334,0.40315 l 15.626284,27.68195 c 0.102384,0.20476 0.153575,0.40314 0.153575,0.59511 0,0.20476 -0.05119,0.39674 -0.153575,0.57591 -0.102384,0.17917 -0.243159,0.33274 -0.422325,0.46072 -0.166376,0.12797 -0.358346,0.19197 -0.57591,0.19197 z"
             sodipodi:nodetypes="ssccscccssccsccs" />
          <path
             d="m -26.733715,342.19941 -31.75781,0 q -0.33203,0 -0.60547,-0.19531 -0.25391,-0.19532 -0.41016,-0.46875 -0.15625,-0.27344 -0.15625,-0.58594 0,-0.29297 0.15625,-0.60547 l 15.85938,-28.16406 q 0.15625,-0.27344 0.42968,-0.41016 0.27344,-0.13672 0.58594,-0.13672 0.3125,0 0.58594,0.13672 0.27344,0.13672 0.42969,0.41016 l 15.89843,28.16406 q 0.15625,0.3125 0.15625,0.60547 0,0.3125 -0.15625,0.58594 -0.15625,0.27343 -0.42968,0.46875 -0.25391,0.19531 -0.58594,0.19531 z m -29.72656,-2.5 27.65625,0 -13.82813,-24.49219 -13.82812,24.49219 z m 15.64453,-7.10938 -3.63281,0 0,-10.83984 3.63281,0 0,10.83984 z m 0.54687,3.55469 q 0,0.50781 -0.19531,0.9375 -0.17578,0.42969 -0.50781,0.76172 -0.3125,0.3125 -0.74219,0.50781 -0.42969,0.17578 -0.91797,0.17578 -0.48828,0 -0.91797,-0.17578 -0.42968,-0.19531 -0.74218,-0.50781 -0.3125,-0.33203 -0.48829,-0.76172 -0.17578,-0.42969 -0.17578,-0.9375 0,-0.48828 0.17578,-0.9375 0.17579,-0.44922 0.48829,-0.76172 0.3125,-0.33203 0.74218,-0.52734 0.42969,-0.19531 0.91797,-0.19531 0.48828,0 0.91797,0.19531 0.42969,0.19531 0.74219,0.52734 0.33203,0.3125 0.50781,0.76172 0.19531,0.44922 0.19531,0.9375 z"
             style="fill:#42290d;fill-opacity:1"
             id="path14021"
             inkscape:connector-curvature="0" />
        </g>
      </g>
      <text
         transform="scale(0.99918447,1.0008162)"
         sodipodi:linespacing="125%"
         id="text14023"
         y="205.49388"
         x="812.49805"
         style="font-style:normal;font-weight:normal;font-size:100.95265961px;line-height:125%;font-family:sans-serif;letter-spacing:0px;word-spacing:0px;fill:#d8c586;fill-opacity:1;stroke:none;stroke-width:1px;stroke-linecap:butt;stroke-linejoin:miter;stroke-opacity:1"
         xml:space="preserve"><tspan
           y="205.49388"
           x="812.49805"
           id="tspan14025"
           sodipodi:role="line">:</tspan></text>
    </g>
  </g>
</svg>
