<?xml version="1.0" encoding="UTF-8" standalone="no"?>
<!-- Created with Inkscape (http://www.inkscape.org/) -->

<svg
   xmlns:dc="http://purl.org/dc/elements/1.1/"
   xmlns:cc="http://creativecommons.org/ns#"
   xmlns:rdf="http://www.w3.org/1999/02/22-rdf-syntax-ns#"
   xmlns:svg="http://www.w3.org/2000/svg"
   xmlns="http://www.w3.org/2000/svg"
   xmlns:xlink="http://www.w3.org/1999/xlink"
   xmlns:sodipodi="http://sodipodi.sourceforge.net/DTD/sodipodi-0.dtd"
   xmlns:inkscape="http://www.inkscape.org/namespaces/inkscape"
   width="825"
   height="1125"
   viewBox="0 0 825.00007 1125"
   id="svg2"
   version="1.1"
   inkscape:version="0.92.0 r15299"
   sodipodi:docname="fixer-color.svg"
   inkscape:export-filename="C:\code\project-timber-wolf\img\fixer shadows.png"
   inkscape:export-xdpi="96"
   inkscape:export-ydpi="96">
  <defs
     id="defs4">
    <linearGradient
       id="linearGradient2457"
       inkscape:collect="always">
      <stop
         id="stop2453"
         offset="0"
         style="stop-color:#666666;stop-opacity:1;" />
      <stop
         id="stop2455"
         offset="1"
         style="stop-color:#818181;stop-opacity:0" />
    </linearGradient>
    <linearGradient
       inkscape:collect="always"
       id="linearGradient2424">
      <stop
         style="stop-color:#666666;stop-opacity:1;"
         offset="0"
         id="stop2420" />
      <stop
         style="stop-color:#666666;stop-opacity:0;"
         offset="1"
         id="stop2422" />
    </linearGradient>
    <inkscape:path-effect
       effect="perspective-envelope"
       up_left_point="207.24647,-168.19412"
       up_right_point="232.2141,-159.96475"
       down_left_point="129.71275,-53.986354"
       down_right_point="189.35666,-56.304737"
       id="path-effect2386"
       is_visible="true"
       deform_type="perspective"
       horizontal_mirror="false"
       vertical_mirror="false"
       overflow_perspective="false" />
    <marker
       inkscape:stockid="Arrow1Lstart"
       orient="auto"
       refY="0"
       refX="0"
       id="Arrow1Lstart"
       style="overflow:visible"
       inkscape:isstock="true">
      <path
         id="path6203"
         d="M 0,0 5,-5 -12.5,0 5,5 0,0 Z"
         style="fill-rule:evenodd;stroke:#000000;stroke-width:1pt"
         transform="matrix(0.8,0,0,0.8,10,0)"
         inkscape:connector-curvature="0" />
    </marker>
    <linearGradient
       id="linearGradient6162">
      <stop
         style="stop-color:#000000;stop-opacity:1;"
         offset="0"
         id="stop6164" />
      <stop
         style="stop-color:#000000;stop-opacity:0;"
         offset="1"
         id="stop6166" />
    </linearGradient>
    <linearGradient
       id="linearGradient6453-9">
      <stop
         style="stop-color:#ffb6b6;stop-opacity:1;"
         offset="0"
         id="stop5160" />
      <stop
         style="stop-color:#fa2424;stop-opacity:1;"
         offset="1"
         id="stop5162" />
    </linearGradient>
    <linearGradient
       id="linearGradient6453">
      <stop
         id="stop6455"
         offset="0.00000000"
         style="stop-color:#ffffff;stop-opacity:1.0000000" />
      <stop
         id="stop6457"
         offset="1.0000000"
         style="stop-color:#000000;stop-opacity:1.0000000" />
    </linearGradient>
    <radialGradient
       gradientTransform="matrix(0.05945241,0.04549877,-0.04654385,0.06081801,-283.54417,231.93065)"
       gradientUnits="userSpaceOnUse"
       xlink:href="#linearGradient6453-9"
       id="radialGradient6459"
       fy="196.85463"
       fx="171.2081"
       r="200"
       cy="196.85463"
       cx="171.2081" />
    <filter
       inkscape:collect="always"
       style="color-interpolation-filters:sRGB"
       id="filter5473"
       x="-0.025556045"
       width="1.0511121"
       y="-0.060879581"
       height="1.1217592">
      <feGaussianBlur
         inkscape:collect="always"
         stdDeviation="1.7303572"
         id="feGaussianBlur5475" />
    </filter>
    <filter
       inkscape:collect="always"
       style="color-interpolation-filters:sRGB"
       id="filter5504"
       x="-0.021572215"
       width="1.0431443"
       y="-0.1087"
       height="1.2174">
      <feGaussianBlur
         inkscape:collect="always"
         stdDeviation="4.7251539"
         id="feGaussianBlur5506" />
    </filter>
    <marker
       inkscape:isstock="true"
       style="overflow:visible;"
       id="Arrow1Lend"
       refX="0.0"
       refY="0.0"
       orient="auto"
       inkscape:stockid="Arrow1Lend">
      <path
         transform="scale(0.8) rotate(180) translate(12.5,0)"
         style="fill-rule:evenodd;stroke:#000000;stroke-width:1.0pt;"
         d="M 0.0,0.0 L 5.0,-5.0 L -12.5,0.0 L 5.0,5.0 L 0.0,0.0 z "
         id="path5387" />
    </marker>
    <marker
       inkscape:isstock="true"
       style="overflow:visible"
       id="Arrow1Lstart-8"
       refX="0.0"
       refY="0.0"
       orient="auto"
       inkscape:stockid="Arrow1Lstart">
      <path
         transform="scale(0.8) translate(12.5,0)"
         style="fill-rule:evenodd;stroke:#000000;stroke-width:1.0pt"
         d="M 0.0,0.0 L 5.0,-5.0 L -12.5,0.0 L 5.0,5.0 L 0.0,0.0 z "
         id="path5384" />
    </marker>
    <inkscape:perspective
       id="perspective10399"
       inkscape:persp3d-origin="412.5 : 375 : 1"
       inkscape:vp_z="825.00001 : 562.5 : 1"
       inkscape:vp_y="0 : 1000 : 0"
       inkscape:vp_x="0 : 562.5 : 1"
       sodipodi:type="inkscape:persp3d" />
    <filter
       inkscape:collect="always"
       style="color-interpolation-filters:sRGB"
       id="filter4898"
       x="-0.036946723"
       width="1.0738934"
       y="-0.035100583"
       height="1.0702012">
      <feGaussianBlur
         inkscape:collect="always"
         stdDeviation="4.7314361"
         id="feGaussianBlur4900" />
    </filter>
    <filter
       inkscape:collect="always"
       style="color-interpolation-filters:sRGB"
       id="filter5058"
       x="-0.035367131"
       width="1.0707343"
       y="-0.036655931"
       height="1.0733119">
      <feGaussianBlur
         inkscape:collect="always"
         stdDeviation="7.3862705"
         id="feGaussianBlur5060" />
    </filter>
    <linearGradient
       inkscape:collect="always"
       xlink:href="#linearGradient2424"
       id="linearGradient2426"
       x1="-241.40161"
       y1="122.24019"
       x2="-241.40161"
       y2="137.01984"
       gradientUnits="userSpaceOnUse"
       spreadMethod="reflect"
       gradientTransform="translate(239.80857,143.63933)" />
    <linearGradient
       inkscape:collect="always"
       xlink:href="#linearGradient2457"
       id="linearGradient2451"
       gradientUnits="userSpaceOnUse"
       gradientTransform="rotate(-30,-366.15815,173.51788)"
       x1="-241.40161"
       y1="122.24019"
       x2="-241.40161"
       y2="137.01984"
       spreadMethod="reflect" />
  </defs>
  <sodipodi:namedview
     id="base"
     pagecolor="#ffffff"
     bordercolor="#666666"
     borderopacity="1.0"
     inkscape:pageopacity="0.0"
     inkscape:pageshadow="2"
     inkscape:zoom="0.46249998"
     inkscape:cx="-266.87293"
     inkscape:cy="528.32663"
     inkscape:document-units="px"
     inkscape:current-layer="layer2"
     showgrid="false"
     units="px"
     inkscape:window-width="1920"
     inkscape:window-height="1017"
     inkscape:window-x="1912"
     inkscape:window-y="137"
     inkscape:window-maximized="1"
     showguides="true"
     inkscape:guide-bbox="true"
     inkscape:snap-global="false">
    <sodipodi:guide
       position="75.000007,587.90879"
       orientation="1,0"
       id="guide5098"
       inkscape:label=""
       inkscape:color="rgb(0,0,255)"
       inkscape:locked="false" />
    <sodipodi:guide
       position="891.80335,1050"
       orientation="0,1"
       id="guide4596"
       inkscape:label=""
       inkscape:color="rgb(0,0,255)"
       inkscape:locked="false" />
    <sodipodi:guide
       position="904.1694,75"
       orientation="0,1"
       id="guide4902"
       inkscape:label=""
       inkscape:color="rgb(0,0,255)"
       inkscape:locked="false" />
    <sodipodi:guide
       position="750.00003,438.52459"
       orientation="1,0"
       id="guide4447"
       inkscape:locked="false"
       inkscape:label=""
       inkscape:color="rgb(0,0,255)" />
    <sodipodi:guide
       position="731.14758,196.72131"
       orientation="0,1"
       id="guide5178"
       inkscape:locked="false" />
  </sodipodi:namedview>
  <metadata
     id="metadata7">
    <rdf:RDF>
      <cc:Work
         rdf:about="">
        <dc:format>image/svg+xml</dc:format>
        <dc:type
           rdf:resource="http://purl.org/dc/dcmitype/StillImage" />
        <dc:title />
      </cc:Work>
    </rdf:RDF>
  </metadata>
  <g
     inkscape:groupmode="layer"
     id="layer3"
     inkscape:label="shadows"
     style="display:none">
    <path
       transform="matrix(1.2075066,0.02589228,-0.02364033,1.1024853,20.516799,247.94006)"
       style="opacity:1;fill:#000000;fill-opacity:1;fill-rule:nonzero;stroke:none;stroke-width:1.2997514;stroke-linecap:round;stroke-linejoin:round;stroke-miterlimit:4;stroke-dasharray:none;stroke-dashoffset:0;stroke-opacity:1;filter:url(#filter5058)"
       d="m 89.697285,108.69531 490.056955,-6.56109 -2.4865,475.79001 -496.140102,1.26723 z"
       id="rect5044"
       inkscape:connector-curvature="0"
       sodipodi:nodetypes="ccccc" />
    <path
       style="opacity:1;fill:#000000;fill-opacity:1;fill-rule:nonzero;stroke:none;stroke-width:1.1164254;stroke-linecap:round;stroke-linejoin:round;stroke-miterlimit:4;stroke-dasharray:none;stroke-dashoffset:0;stroke-opacity:1;filter:url(#filter4898)"
       d="m 428.31189,-55.601383 231.52231,-17.44575 32.31194,39.06793 29.09171,258.801223 -282.34199,25.64247 -25.00454,-275.317793 z"
       id="rect4839"
       inkscape:connector-curvature="0"
       sodipodi:nodetypes="ccccccc"
       transform="matrix(0.73708979,0,0,0.73696728,-228.84058,131.29933)" />
    <path
       style="opacity:1;fill:#000000;fill-opacity:1;fill-rule:nonzero;stroke:none;stroke-width:1.23583353;stroke-linecap:round;stroke-linejoin:round;stroke-miterlimit:4;stroke-dasharray:none;stroke-dashoffset:0;stroke-opacity:1;filter:url(#filter5473)"
       d="m 542.88699,-105.7517 184.65522,0.29389 12.6697,-0.40983 -0.4099,54.484764 -14.84707,5.87351 -181.46439,8.26584 z"
       id="path5483"
       inkscape:connector-curvature="0"
       sodipodi:nodetypes="ccccccc"
       transform="matrix(0.83605752,0.01916315,-0.0159681,0.99158789,109.89445,290.71909)" />
    <path
       style="opacity:1;fill:#000000;fill-opacity:1;fill-rule:nonzero;stroke:none;stroke-width:1.72120798;stroke-linecap:round;stroke-linejoin:round;stroke-miterlimit:4;stroke-dasharray:none;stroke-dashoffset:0;stroke-opacity:1;filter:url(#filter5504)"
       d="m 228.32392,-216.19739 h 478.7461 l 30.71849,1.15919 5.21636,84.04138 -47.2405,13.79879 -467.44045,5.32787 z"
       id="path4598"
       inkscape:connector-curvature="0"
       sodipodi:nodetypes="ccccccc"
       transform="matrix(0.82482636,0,0,0.81517542,126.597,262.32787)" />
    <path
       transform="matrix(1.222256,0,0,0.81517542,-175.60962,1120.7063)"
       sodipodi:nodetypes="ccccccc"
       inkscape:connector-curvature="0"
       id="path4636"
       d="m 228.32392,-216.19739 h 478.7461 l 30.71849,1.15919 5.21636,84.04138 -47.2405,13.79879 -467.44045,5.32787 z"
       style="opacity:1;fill:#000000;fill-opacity:1;fill-rule:nonzero;stroke:none;stroke-width:1.4139483;stroke-linecap:round;stroke-linejoin:round;stroke-miterlimit:4;stroke-dasharray:none;stroke-dashoffset:0;stroke-opacity:1;filter:url(#filter5504)" />
  </g>
  <g
     inkscape:groupmode="layer"
     id="layer2"
     inkscape:label="character"
     transform="translate(0,300.00002)"
     style="display:inline">
    <path
       style="opacity:1;vector-effect:none;fill:#6ef0f9;fill-opacity:1;fill-rule:nonzero;stroke:none;stroke-width:1.5;stroke-linecap:round;stroke-linejoin:round;stroke-miterlimit:4;stroke-dasharray:none;stroke-dashoffset:0;stroke-opacity:1"
       d="M 119.69064,19.173158 724.92859,32.151133 723.8934,80.427814 698.02725,595.55319 93.801709,578.53164 C 102.60049,425.61762 112.68928,311.98432 118.64303,68.029302 Z"
       id="rect5040"
       inkscape:connector-curvature="0"
       sodipodi:nodetypes="ccccccc" />
    <rect
       style="opacity:1;fill:#f3eed7;fill-opacity:1;fill-rule:nonzero;stroke:none;stroke-width:0.56369799;stroke-linecap:round;stroke-linejoin:round;stroke-miterlimit:4;stroke-dasharray:none;stroke-dashoffset:0;stroke-opacity:1"
       id="rect4716"
       width="208.96762"
       height="226.48918"
       x="89.712242"
       y="-205.76643"
       ry="0"
       transform="matrix(0.9959025,-0.09043345,0.09046328,0.99589979,0,0)" />
    <path
       sodipodi:nodetypes="ccccccccccc"
       inkscape:connector-curvature="0"
       id="path4600"
       d="m 306.93325,-226.15194 69.57246,2.6727 103.10329,2.33862 225.24905,2.33861 h 38.72327 v 85.045 h -38.24521 l -227.56392,-1.08178 -100.86769,-1.03081 -69.57525,-3.41869 z"
       style="opacity:1;fill:#b7d8c4;fill-opacity:1;fill-rule:nonzero;stroke:none;stroke-width:1.5;stroke-linecap:round;stroke-linejoin:round;stroke-miterlimit:4;stroke-dasharray:none;stroke-dashoffset:0;stroke-opacity:1" />
    <rect
       style="opacity:1;vector-effect:none;fill:#c5c2ba;fill-opacity:1;fill-rule:nonzero;stroke:none;stroke-width:0.56369799;stroke-linecap:round;stroke-linejoin:round;stroke-miterlimit:4;stroke-dasharray:none;stroke-dashoffset:0;stroke-opacity:1"
       id="rect4720"
       width="177.94307"
       height="177.91399"
       x="106.8427"
       y="-194.63461"
       transform="matrix(0.9959025,-0.09043345,0.09046328,0.99589979,0,0)" />
    <path
       style="opacity:0.594;fill:#866239;fill-opacity:1;fill-rule:nonzero;stroke:none;stroke-width:1.5;stroke-linecap:round;stroke-linejoin:round;stroke-miterlimit:4;stroke-dasharray:none;stroke-dashoffset:0;stroke-opacity:1"
       d="m 230.93717,-249.03774 -0.33449,1.24845 0.87023,0.13998 c -0.14757,-0.009 -0.31086,0.0261 -0.40722,0.1348 -0.0273,0.0311 0,0.0994 -0.0322,0.12035 -0.0359,0.0208 -0.0804,-0.0214 -0.11999,-0.0322 -0.0483,-0.013 -0.21993,-0.0533 -0.38234,-0.0946 l -0.0186,0.0707 c 0.0433,0.0256 0.0878,0.0503 0.12742,0.0803 0.0742,0.0557 0.13952,0.1232 0.20917,0.18498 0.0693,0.0618 0.16242,0.10514 0.20892,0.18578 0.021,0.036 -0.021,0.0802 -0.0322,0.12036 -0.0124,0.0402 0.0124,0.13106 -0.0322,0.12036 -0.0903,-0.0241 -0.12778,-0.1398 -0.20918,-0.18497 -0.073,-0.0405 -0.16105,-0.0432 -0.24134,-0.0647 -0.0457,-0.0124 -0.0928,-0.0228 -0.13978,-0.0346 l -0.22538,0.84123 c 1.8289,0.48253 -0.26855,-0.11591 1.79476,0.61071 0.23552,0.083 0.4969,0.0907 0.72413,0.19405 0.0383,0.0172 -0.021,0.08 -0.0322,0.12036 -0.0124,0.0402 0,0.0899 -0.0322,0.12109 -0.0396,0.044 -0.0952,0.0761 -0.15339,0.0878 -0.31048,0.0635 -0.62814,0.0819 -0.94049,0.13563 -0.43121,0.0742 -0.52151,0.0949 -0.65758,0.12258 0.0346,0.0256 -0.39968,0.0816 0,0 -0.021,-0.0152 -0.26249,-0.01 -1.07199,0.0604 -0.0124,6.8e-4 -0.0149,0.004 -0.021,0.005 l -0.20992,0.78355 c 0.0507,0.0419 0.0347,0.054 -0.0136,0.0512 l -0.0149,0.0529 c 0.15945,0.059 0.297,0.10922 0.72401,0.2663 0.27338,0.10057 0.56309,0.15087 0.8445,0.22628 0.0804,0.0215 0.1712,0.0185 0.24059,0.0645 0.0495,0.0325 0.0446,0.11367 0.0891,0.15274 0.031,0.0276 0.099,-0.004 0.12,0.0322 0.021,0.0359 0,0.10032 -0.0322,0.1211 -0.0359,0.0208 -0.0804,-0.0214 -0.11998,-0.0322 -0.16081,-0.0431 -0.31668,-0.11863 -0.4828,-0.12938 -0.0928,-0.006 -0.18048,0.0679 -0.27289,0.0558 -0.5277,-0.0687 -0.90078,-0.13739 -1.25444,-0.21768 l -0.63024,2.35224 c 0.0396,0.036 0.0779,0.0739 0.11998,0.10712 0.59884,0.47119 0.0705,-0.0835 0.74752,0.58798 0.19137,0.18965 0.40389,0.37834 0.26484,0.4586 -0.33399,0.19281 -0.20311,-0.027 -0.51533,-0.009 -0.0594,0.004 -0.0952,0.0763 -0.15252,0.0881 -0.0408,0.009 -0.0804,-0.0214 -0.11999,-0.0322 l -0.12122,-0.0324 -0.50061,-0.13416 -0.25705,0.95911 c 0.10762,0.19165 0.13211,0.0629 0.073,0.28433 -0.0124,0.0403 0,0.0892 -0.0322,0.12036 -0.0396,0.044 -0.10144,0.0595 -0.15277,0.0888 -0.0124,0.005 -0.0149,0.009 -0.0236,0.0144 l -0.38236,1.42727 0.13892,0.0373 c 0.0408,0.0112 0.13186,-0.008 0.12122,0.0325 -0.0124,0.0402 -0.0803,-0.0217 -0.12122,-0.0325 -0.0457,-0.0124 -0.094,-0.019 -0.14114,-0.0291 l -0.0829,0.30726 c 0.042,0.0287 0.0829,0.0575 0.12667,0.0837 0.14708,0.0882 0.32187,0.13663 0.45027,0.25046 0.0618,0.0552 -0.16093,-0.0432 -0.24133,-0.0647 l -0.38039,-0.10192 -0.20805,0.77621 c 0.74145,0.66195 -0.0977,-0.0396 0.29761,0.41078 0.0618,0.0699 0.1315,0.13371 0.20918,0.18498 0.0346,0.0229 0.13112,-0.008 0.11999,0.0322 -0.0149,0.0569 -0.0953,0.0771 -0.15277,0.0888 -0.12889,0.0264 -0.26249,0.0155 -0.39386,0.0233 -0.0952,0.005 -0.18988,0.014 -0.28475,0.0222 l -0.38112,1.42238 c 0.0198,0.008 0.0532,0.0274 0.12468,0.0909 0.0273,0.0241 0.1618,0.21296 0.0569,0.27384 -0.0359,0.0208 -0.0805,-0.0217 -0.12123,-0.0325 -0.0124,-0.003 -0.0754,-0.0196 -0.13904,-0.0372 l -0.10762,0.40315 c 0.0829,0.0517 0.17566,0.0924 0.23899,0.14853 0.11257,0.0996 0.19792,0.2256 0.29701,0.33831 0.17948,0.13425 0.37072,0.2543 0.53846,0.403 0.031,0.0276 -0.0804,-0.0216 -0.12122,-0.0324 -0.0804,-0.0215 -0.17195,-0.0187 -0.24147,-0.0647 -0.0779,-0.0513 -0.12692,-0.13958 -0.20831,-0.18476 -0.073,-0.0403 -0.16105,-0.0432 -0.24146,-0.0647 -0.0804,-0.0215 -0.15834,-0.0696 -0.24133,-0.0647 -0.0581,0.004 -0.10144,0.0586 -0.15253,0.0881 l -0.0236,0.0138 -0.28117,1.04932 c 0,0.008 0.0124,0.0172 0.0136,0.022 0.0693,0.046 0.17912,0.01 0.24133,0.0647 0.031,0.0276 -0.0532,0.0851 -0.0322,0.12111 0.021,0.0362 0.0854,0.01 0.11999,0.0322 0.0779,0.0513 0.1279,0.13982 0.20917,0.18499 0.073,0.0405 0.17838,0.009 0.2406,0.0645 0.0693,0.0618 -0.0915,0.21071 -0.18493,0.20915 -0.12444,-0.003 -0.69408,-0.21076 -0.7234,-0.19381 -0.0149,0.009 -0.10514,0.34639 -0.0965,0.36168 0.047,0.0806 0.19049,0.0939 0.20917,0.18498 0.0161,0.0774 -0.21177,0.69344 -0.19408,0.72419 0.021,0.0362 0.0804,0.0214 0.11998,0.0322 0.0297,0.008 0.35886,0.0919 0.3617,0.0969 0.021,0.0362 -0.021,0.0802 -0.0322,0.12023 -0.0124,0.0402 0,0.0892 -0.0322,0.12024 -0.20744,0.2339 -0.54044,-0.0429 -0.7558,-0.0727 0,-7.3e-4 -0.0136,7.3e-4 -0.0198,6.8e-4 l -0.0643,0.23977 c 0.11257,0.047 0.21228,0.10441 0.22898,0.18592 0.0124,0.0577 -0.0953,0.0761 -0.15339,0.0878 -0.0408,0.009 -0.0804,-0.0214 -0.11999,-0.0322 -0.0124,-7.3e-4 -0.0124,-0.004 -0.0185,-0.005 l -0.31271,1.16717 71.97364,19.28528 0.21524,-0.80303 c -0.0718,-0.008 -0.26731,-0.073 -0.31012,-0.0845 l -0.0693,-0.0187 c -0.0161,-0.004 -0.0322,-0.0171 -0.0483,-0.0201 l -0.0532,0.12234 c 0.0124,-0.0402 0.0124,-0.0971 0.0322,-0.1211 0.0124,-0.008 0.0149,-0.003 0.021,-7.3e-4 l 0.45323,-1.03192 c -0.0149,-0.005 -0.0297,-0.0112 -0.0433,-0.0146 l 0.0446,0.0124 0.35551,-0.80985 -0.17392,-0.0466 c -0.0693,-0.0187 -0.15352,-2.7e-4 -0.20967,-0.0562 -0.0186,-0.0187 0.021,-0.08 0.0322,-0.12036 0.021,-0.0791 0.1138,-0.45664 0.12939,-0.4828 0.0198,-0.0331 0.0457,0.0428 0.0693,0.0187 0.0247,-0.024 0.021,-0.0802 0.0322,-0.12023 0.0222,-0.082 0.14584,-0.58158 0.16155,-0.6031 0.0494,-0.067 0.11628,-0.0819 0.17207,-0.0829 0.099,-0.003 0.18628,0.05 0.27956,0.075 0.0124,-0.006 0.026,-0.0144 0.0396,-0.0218 l 0.0556,-0.20646 c -0.25272,-0.0532 0.0236,0.0653 -0.13719,-0.1709 -0.016,-0.0236 -0.094,0.005 -0.0705,-0.0187 0.0457,-0.0452 0.18109,-0.0882 0.28919,-0.11678 l 0.17925,-0.66893 c -0.10638,-0.0185 -0.22315,-0.008 -0.31209,-0.0773 -0.0446,-0.0354 -0.0618,-0.24494 0,-0.26011 0.0767,-0.0204 0.13669,0.0508 0.20966,0.0562 0.0606,0.004 0.12247,-0.003 0.18383,-0.003 l 0.1895,-0.70713 c -0.12246,-0.0548 -0.2448,-0.10836 -0.35687,-0.1897 -0.0284,-0.021 -0.0149,-0.10651 -0.0371,-0.13983 -0.0161,-0.0236 -0.094,0.005 -0.0693,-0.0187 0.0532,-0.0538 0.11504,-0.0676 0.17193,-0.0829 0.21029,-0.0559 0.30691,-0.0483 0.41328,-0.0208 l 0.0965,-0.36007 -0.38037,-0.10193 c -0.0236,-0.006 -0.0606,0.0141 -0.0693,-0.0187 -0.0124,-0.0328 0.0124,-0.10786 0.0322,-0.12036 0.052,-0.0248 0.0915,0.031 0.13978,0.0375 0.10762,0.014 0.21573,0.0233 0.3236,0.0344 l 0.0878,-0.32756 c -0.24133,-0.0702 -0.50086,-0.0813 -0.73378,-0.18095 -0.1138,-0.0488 -0.21128,-0.14334 -0.31703,-0.21476 -0.0124,-0.0464 -0.0124,-0.11269 -0.0371,-0.13902 -0.0371,-0.0372 -0.10761,0.01 -0.13978,-0.0375 -0.0161,-0.0236 0,-0.10786 0.0322,-0.12037 0.0507,-0.0247 0.0915,0.0317 0.13978,0.0375 0.24245,0.029 0.48614,0.0511 0.73144,0.0661 0.15882,0.01 0.32211,-0.004 0.48006,0.009 l 0.0854,-0.31861 c -0.0273,-0.0297 -0.0557,-0.0579 -0.0866,-0.0791 -0.0804,-0.0547 -0.35934,-0.0526 -0.41933,-0.11231 -0.0173,-0.0173 -0.073,-0.19223 0,-0.26014 0.0236,-0.0239 0.047,0.0125 0.0693,0.0187 0.0693,0.0187 0.13632,0.0526 0.20968,0.0562 0.11133,0.005 0.22488,-0.009 0.33857,-0.0217 l 0.11998,-0.44622 c -0.0273,-0.0297 -0.0557,-0.0578 -0.0866,-0.0791 -0.0359,-0.0238 -0.27597,-0.0613 -0.27955,-0.075 -0.0124,-0.0327 0,-0.11343 0.0322,-0.12036 0.0767,-0.0204 0.13669,0.0508 0.20966,0.0562 0.0606,0.004 0.12246,-0.003 0.18407,-0.004 l 0.41117,-1.53455 c -0.19012,-0.0791 -0.37579,-0.17183 -0.5622,-0.26215 -0.32138,-0.15562 -0.48627,-0.22938 -0.57669,-0.26689 -0.0693,-0.0136 -0.1545,-0.0641 0,0 0.0581,0.0112 0.0977,-0.008 -0.0581,-0.16181 -0.0185,-0.0187 -0.0606,0.0141 -0.0693,-0.0187 0,-0.0129 0.094,-0.36031 0.0965,-0.36169 0.18691,-0.0734 0.36936,-0.0736 0.55404,-0.11034 0.11628,-0.0233 0.10886,-0.0236 0.17615,-0.04 -0.35452,-0.14607 -0.72698,-0.30329 -0.95026,-0.42626 -0.0643,-0.0357 0.13978,0.0374 0.20967,0.0562 l 0.41934,0.11244 c -0.0457,-0.033 -0.31469,-0.20584 -0.35464,-0.35379 -0.0346,-0.1285 0.1138,-0.17526 0.20422,-0.20312 0.24271,-0.0746 0.48998,-0.18194 0.726,-0.19312 0.26187,-0.0124 0.51843,0.008 0.77324,0.0338 l 0.37902,-1.41426 c -0.19038,-0.078 -0.37419,-0.15477 -0.69965,-0.30855 -0.42911,-0.20271 -0.52845,-0.18868 -0.81183,-0.60519 -0.0223,-0.0333 -0.0149,-0.10564 -0.0371,-0.13902 -0.0236,-0.006 -0.0804,0.0214 -0.0705,-0.0187 0.0124,-0.0402 0.0532,-0.005 0.0705,0.0187 l 0.20967,0.0562 1.32817,0.35585 c 0.0569,0.0153 0.11256,0.0338 0.16909,0.0517 l 0.12246,-0.45842 c -0.068,-0.0218 -0.17627,-0.0862 -0.40994,-0.27101 -0.0223,-0.0175 -0.35687,-0.46182 -0.35997,-0.61391 -7.3e-4,-0.0387 0.0124,-0.10316 0.0322,-0.12036 0.0804,-0.054 0.16242,-0.0548 0.24195,-0.0641 0.25631,-0.0302 0.50853,-0.0329 0.7636,-0.054 0.0124,-7.3e-4 0.0223,-0.003 0.0334,-0.004 l 0.45064,-1.68168 c -0.0334,-0.008 -0.068,-0.0135 -0.10143,-0.0224 -0.0928,-0.025 -0.19334,-0.0274 -0.27956,-0.075 -0.0681,-0.0375 -0.10885,-0.13975 -0.17726,-0.17729 -0.0866,-0.0475 -0.18642,-0.05 -0.27968,-0.075 -0.0236,-0.006 -0.0606,0.0141 -0.0693,-0.0187 -0.0124,-0.0329 0,-0.10787 0.0322,-0.12036 0.0247,-0.0124 0.37482,0.10044 0.41947,0.11232 l 0.52015,0.13939 0.28624,-1.06802 c -0.0322,-0.0149 -0.0643,-0.0306 -0.0965,-0.0448 -0.10638,-0.0713 -0.20397,-0.16365 -0.31729,-0.21394 -0.13347,-0.0592 -0.2876,-0.0485 -0.41946,-0.11232 -0.15784,-0.0765 -0.27895,-0.32616 -0.39238,-0.4928 -0.0557,-0.082 -0.17603,-0.17829 -0.0754,-0.27886 0.0247,-0.024 0.047,0.0125 0.0693,0.0187 0.13991,0.0375 0.27536,0.0922 0.41947,0.11233 0.19359,0.0271 0.39694,0.006 0.5914,0.0296 0.0965,0.0112 0.18642,0.05 0.27956,0.075 l 0.17071,0.0457 0.17838,-0.66566 -71.97365,-19.28532 z m 68.45402,28.10344 c 0.26113,0.18953 0.29007,0.20478 0.41303,0.23699 0.12123,-0.0311 0.24555,-0.0581 0.32088,-0.0403 z m 0.41303,0.23699 c -0.026,0.006 -0.0569,0.0124 -0.0915,0.0206 0.22637,0.0933 0.46128,0.18871 0.59265,0.24591 0.0322,0.0142 0.0643,0.0293 0.0965,0.044 l 0.0136,-0.0495 c -0.0247,-0.0402 -0.0446,-0.0893 -0.0767,-0.1148 -0.0396,-0.0316 -0.0928,-0.025 -0.13978,-0.0375 l -0.27957,-0.075 c -0.0693,-0.0185 -0.0779,-0.0244 -0.1138,-0.034 z m -2.05539,9.66351 0.0359,0.01 c 0.0235,0.006 0.052,-0.003 0.0693,0.0187 0.0124,0.01 0.0149,0.0252 0.0236,0.0368 l 0.24702,-0.92171 -0.37591,0.85667 z m -0.35551,0.80987 -6.2e-4,0.003 c 0.0878,0.0271 0.17504,0.0567 0.26595,0.0707 l 3.7e-4,-7.3e-4 -0.26583,-0.0712 z m -70.59476,-23.36828 c -0.0346,-0.0127 -0.0198,0.0244 -0.0124,0.0399 z"
       id="rect4768"
       inkscape:connector-curvature="0" />
    <path
       inkscape:connector-curvature="0"
       id="path4777"
       d="m 34.323421,-216.63423 0.334517,1.24845 0.823628,-0.3139 c -0.132149,0.0661 -0.256142,0.17797 -0.285265,0.32035 -0.0086,0.0408 0.05328,0.0842 0.03218,0.12036 -0.02076,0.036 -0.08001,0.0214 -0.120239,0.0322 -0.04861,0.013 -0.217029,0.0638 -0.378414,0.10923 l 0.01894,0.0707 c 0.05051,5.2e-4 0.100699,-1.6e-4 0.15053,0.006 0.0924,0.0111 0.182473,0.037 0.273623,0.0556 0.09117,0.0187 0.193268,0.01 0.273864,0.0564 0.03598,0.0208 0.02136,0.08 0.03227,0.12036 0.01116,0.0402 0.0724,0.10947 0.03227,0.12023 -0.08993,0.0241 -0.180579,-0.0572 -0.273641,-0.0556 -0.08321,7.3e-4 -0.161004,0.0432 -0.241385,0.0647 -0.04636,0.0124 -0.09203,0.0268 -0.138282,0.04 l 0.225418,0.84124 c 1.825102,-0.49655 -0.290524,0.0339 1.859614,-0.36848 0.245451,-0.046 0.475653,-0.16996 0.724192,-0.19406 0.04143,-0.004 0.02136,0.0802 0.03227,0.12036 0.01116,0.0402 0.04083,0.0803 0.03243,0.1211 -0.01237,0.0576 -0.04489,0.11368 -0.08882,0.15274 -0.237173,0.21027 -0.503176,0.38499 -0.746767,0.58775 -0.336264,0.27992 -0.404198,0.34291 -0.50808,0.43495 0.04307,0.005 -0.305342,0.27059 0,0 -0.02561,-0.003 -0.232416,0.12247 -0.898223,0.58824 -0.0061,0.004 -0.0099,0.0112 -0.01609,0.0149 l 0.209945,0.78354 c 0.0647,0.0112 0.05656,0.0296 0.01375,0.0512 l 0.0141,0.0529 c 0.167561,-0.0285 0.311768,-0.054 0.760148,-0.13137 0.287074,-0.0497 0.563102,-0.15088 0.8445,-0.22629 0.08044,-0.0215 0.157502,-0.0695 0.240573,-0.0645 0.05873,0.004 0.09574,0.0761 0.15335,0.0878 0.04083,0.009 0.08407,-0.0533 0.120239,-0.0322 0.03598,0.0208 0.05311,0.0852 0.03243,0.1211 -0.02076,0.036 -0.08001,0.0214 -0.120238,0.0322 -0.160806,0.0431 -0.333566,0.0555 -0.482807,0.12938 -0.08347,0.0411 -0.122462,0.14903 -0.208335,0.18475 -0.491378,0.20449 -0.848842,0.33144 -1.19527,0.43876 l 0.630283,2.35223 c 0.05259,0.0112 0.104523,0.025 0.157701,0.0326 0.754189,0.10873 0.01903,-0.10737 0.941402,0.13542 0.260553,0.0685 0.53889,0.12575 0.458621,0.26476 -0.1928,0.33394 -0.189358,0.0782 -0.45037,0.25047 -0.04921,0.0322 -0.04403,0.11343 -0.08807,0.15253 -0.03114,0.0276 -0.08001,0.0214 -0.120359,0.0322 l -0.121104,0.0324 -0.500685,0.13415 0.256998,0.95911 c 0.189445,0.1117 0.145868,-0.0112 0.205196,0.20984 0.01116,0.0402 0.04048,0.0796 0.03227,0.12024 -0.01237,0.0576 -0.05839,0.10242 -0.08783,0.15334 -0.0052,0.01 -0.0086,0.0155 -0.01349,0.0245 l 0.382435,1.42728 0.138991,-0.0372 c 0.04022,-0.0112 0.110344,-0.0726 0.121104,-0.0325 0.01116,0.0402 -0.08087,0.0217 -0.121104,0.0325 -0.04593,0.0124 -0.09105,0.0307 -0.136802,0.0454 l 0.08226,0.30723 c 0.05051,0.004 0.100812,0.009 0.151378,0.009 0.171574,0.003 0.347154,-0.0426 0.51526,-0.009 0.08148,0.0166 -0.161005,0.0431 -0.241395,0.0647 l -0.380394,0.10193 0.20799,0.77621 c 0.973068,0.20255 -0.104774,0.0149 0.463154,0.20692 0.08808,0.0298 0.180743,0.0501 0.27364,0.0556 0.04152,0.003 0.10947,-0.0724 0.12023,-0.0322 0.01522,0.0569 -0.04377,0.1143 -0.08782,0.15334 -0.09847,0.0872 -0.219641,0.14468 -0.329491,0.21718 -0.0794,0.0521 -0.157415,0.10713 -0.235496,0.16151 l 0.38113,1.42239 c 0.02128,-0.004 0.0596,-0.003 0.153349,0.0163 0.03563,0.008 0.24668,0.10353 0.185761,0.20895 -0.02076,0.0362 -0.08087,0.0217 -0.121104,0.0325 -0.01116,0.004 -0.07456,0.0205 -0.138974,0.0372 l 0.107991,0.40314 c 0.09722,0.004 0.198241,-0.008 0.281217,0.009 0.147001,0.0302 0.284236,0.0964 0.426367,0.1445 0.222547,0.0265 0.448208,0.0349 0.667787,0.0797 0.04074,0.009 -0.08087,0.0216 -0.121103,0.0325 -0.08035,0.0215 -0.158297,0.0696 -0.241395,0.0647 -0.0929,-0.005 -0.179748,-0.0573 -0.27281,-0.0559 -0.08321,7.3e-4 -0.160995,0.0431 -0.241385,0.0647 -0.08044,0.0215 -0.171938,0.0187 -0.241395,0.0647 -0.04921,0.0322 -0.05864,0.10155 -0.08808,0.15251 l -0.01358,0.0236 0.281157,1.04932 c 0.0086,0.004 0.01445,0.0112 0.02326,0.0124 0.08312,0.005 0.159863,-0.0813 0.241386,-0.0647 0.04083,0.009 -0.0034,0.10032 0.03243,0.12111 0.03615,0.0208 0.0788,-0.0348 0.120359,-0.0322 0.0929,0.005 0.18057,0.0572 0.273623,0.0555 0.08321,-7.3e-4 0.159041,-0.0811 0.240582,-0.0644 0.09117,0.0187 0.02569,0.22848 -0.05571,0.27362 -0.108725,0.0605 -0.706434,0.16451 -0.72337,0.19384 -0.0086,0.0152 0.08165,0.35287 0.09686,0.36169 0.08062,0.0465 0.211899,-0.014 0.273641,0.0557 0.05242,0.0591 0.163278,0.70645 0.194028,0.72421 0.03616,0.0208 0.08018,-0.0214 0.12036,-0.0322 0.02915,-0.008 0.356755,-0.0998 0.361686,-0.0968 0.03615,0.0208 0.02136,0.0802 0.03226,0.12023 0.01116,0.0402 0.04048,0.0797 0.03227,0.12023 -0.06271,0.30628 -0.489502,0.23302 -0.690935,0.31496 -0.0078,0.003 -0.01116,0.009 -0.01721,0.0112 l 0.06435,0.23977 c 0.120974,-0.0157 0.23604,-0.0157 0.291233,0.0465 0.0391,0.044 -0.0448,0.11369 -0.08881,0.15276 -0.03114,0.0276 -0.08001,0.0214 -0.12023,0.0322 -0.0061,0.003 -0.01271,0.003 -0.01869,0.005 l 0.312737,1.16719 71.973708,-19.28531 -0.21517,-0.80304 c -0.0656,0.0294 -0.26792,0.0704 -0.31085,0.0819 l -0.0699,0.0187 c -0.0162,0.005 -0.0365,7.3e-4 -0.0522,0.008 l 0.0146,0.13283 c -0.0112,-0.0403 -0.0414,-0.0883 -0.0325,-0.1211 0.003,-0.01 0.0112,-0.01 0.0178,-0.0124 l -0.12333,-1.12034 c -0.015,0.004 -0.0306,0.005 -0.0454,0.01 l 0.0446,-0.0124 -0.097,-0.87912 -0.17395,0.0466 c -0.0699,0.0187 -0.13313,0.0765 -0.20969,0.0562 -0.0255,-0.006 -0.0214,-0.0802 -0.0322,-0.12036 -0.0213,-0.0793 -0.13003,-0.4522 -0.12937,-0.4828 6.7e-4,-0.0388 0.061,0.0141 0.0699,-0.0187 0.009,-0.0328 -0.0214,-0.0802 -0.0322,-0.12024 -0.022,-0.082 -0.16447,-0.57658 -0.1616,-0.60309 0.009,-0.0825 0.0601,-0.1292 0.10762,-0.15773 0.0848,-0.0513 0.18638,-0.05 0.27959,-0.075 0.009,-0.0112 0.0155,-0.0255 0.0229,-0.0383 l -0.0554,-0.20644 c -0.24555,0.0803 0.0531,0.0446 -0.20423,-0.0794 -0.0256,-0.0124 -0.0787,0.0517 -0.0699,0.0187 0.0166,-0.0618 0.11269,-0.16686 0.19201,-0.24573 l -0.17925,-0.66893 c -0.1018,0.0375 -0.19691,0.10527 -0.30891,0.0891 -0.0564,-0.009 -0.17642,-0.18098 -0.13476,-0.22256 0.0562,-0.0559 0.14379,-0.0242 0.20971,-0.0562 0.0541,-0.0268 0.10477,-0.0637 0.15778,-0.0943 l -0.18947,-0.70712 c -0.13318,0.0136 -0.26616,0.0284 -0.40392,0.0141 -0.0355,-0.004 -0.0661,-0.0849 -0.10242,-0.1023 -0.0256,-0.0124 -0.0787,0.0517 -0.0699,0.0187 0.0198,-0.0734 0.0656,-0.11615 0.10762,-0.15774 0.15414,-0.15352 0.24162,-0.19522 0.34749,-0.22469 l -0.0965,-0.36006 -0.3804,0.10193 c -0.0233,0.006 -0.0457,0.0428 -0.0699,0.0187 -0.0241,-0.024 -0.048,-0.0969 -0.0322,-0.12024 0.0319,-0.0473 0.0949,-0.0192 0.1398,-0.0375 0.0998,-0.0415 0.1984,-0.0878 0.2974,-0.13198 l -0.0877,-0.32755 c -0.2442,0.0599 -0.47442,0.18009 -0.72597,0.21018 -0.12297,0.0147 -0.25465,-0.0185 -0.38196,-0.0275 -0.034,-0.0339 -0.0661,-0.092 -0.10218,-0.10156 -0.051,-0.0135 -0.0884,0.0624 -0.1398,0.0375 -0.0256,-0.0124 -0.048,-0.0969 -0.0322,-0.12037 0.0319,-0.0471 0.0951,-0.0183 0.1398,-0.0374 0.22444,-0.0961 0.44659,-0.19882 0.66657,-0.30837 0.14247,-0.0708 0.27688,-0.16454 0.42046,-0.23201 l -0.0854,-0.31861 c -0.0387,-0.0124 -0.0771,-0.0222 -0.11479,-0.025 -0.0973,-0.008 -0.33761,0.13412 -0.41939,0.11231 -0.0236,-0.008 -0.15966,-0.12976 -0.13478,-0.22256 0.009,-0.0329 0.0466,-0.0125 0.0699,-0.0187 0.0699,-0.0187 0.14431,-0.0227 0.20971,-0.0562 0.0986,-0.0506 0.19026,-0.12012 0.2824,-0.18805 l -0.11961,-0.44622 c -0.0387,-0.0124 -0.0771,-0.0224 -0.11481,-0.025 -0.0426,-0.003 -0.26965,0.0848 -0.27958,0.075 -0.0241,-0.0239 -0.0508,-0.10168 -0.0322,-0.12023 0.0562,-0.0559 0.14377,-0.0242 0.20968,-0.0562 0.0543,-0.0268 0.10515,-0.0631 0.15732,-0.0955 l -0.41119,-1.53454 c -0.20417,0.0265 -0.41135,0.0391 -0.61798,0.054 -0.35603,0.0259 -0.53578,0.0444 -0.63281,0.0572 -0.0668,0.0228 -0.16583,0.0218 0,0 0.0563,-0.0193 0.0809,-0.0549 -0.13086,-0.11133 -0.0255,-0.006 -0.0457,0.0428 -0.0699,0.0187 -0.01,-0.01 -0.099,-0.3589 -0.097,-0.3617 0.12508,-0.15707 0.28303,-0.24839 0.42462,-0.37252 0.0897,-0.0785 0.0825,-0.0748 0.13264,-0.1227 -0.38007,0.0507 -0.78126,0.10082 -1.03613,0.10601 -0.0739,7.3e-4 0.13977,-0.0374 0.2097,-0.0562 l 0.41939,-0.11232 c -0.0561,-0.006 -0.37552,-0.0208 -0.48407,-0.12902 -0.0943,-0.0939 0.0112,-0.20864 0.0753,-0.27803 0.1729,-0.186 0.33339,-0.40256 0.53219,-0.53027 0.22054,-0.14165 0.45237,-0.25326 0.68654,-0.35735 l -0.37894,-1.41425 c -0.20387,0.0274 -0.40141,0.0531 -0.76017,0.0826 -0.47291,0.039 -0.55201,0.10082 -1.00563,-0.11826 -0.0362,-0.0177 -0.0659,-0.084 -0.10217,-0.10155 -0.0233,0.006 -0.0592,0.0589 -0.0699,0.0187 -0.0112,-0.0403 0.0443,-0.0311 0.0699,-0.0187 l 0.20969,-0.0562 1.32811,-0.35586 c 0.0567,-0.0152 0.11467,-0.0273 0.17228,-0.0399 l -0.12284,-0.45843 c -0.0698,0.0152 -0.19572,0.0135 -0.49057,-0.0297 -0.0279,-0.004 -0.53995,-0.22153 -0.61867,-0.3517 -0.0199,-0.0331 -0.0456,-0.0928 -0.0322,-0.12036 0.0424,-0.087 0.1133,-0.12866 0.17745,-0.17651 0.20688,-0.15424 0.42402,-0.28273 0.63431,-0.42867 0.01,-0.008 0.0185,-0.013 0.0276,-0.0199 l -0.45059,-1.68168 c -0.0333,0.01 -0.0661,0.0227 -0.0996,0.0317 -0.0933,0.025 -0.18119,0.073 -0.27961,0.075 -0.0778,7.3e-4 -0.16437,-0.0664 -0.24215,-0.065 -0.0983,0.003 -0.18638,0.05 -0.27959,0.075 -0.0233,0.006 -0.0457,0.0428 -0.0699,0.0187 -0.0241,-0.0239 -0.048,-0.0969 -0.0322,-0.12036 0.0156,-0.0228 0.37471,-0.10044 0.4194,-0.11233 l 0.5202,-0.13938 -0.28619,-1.06802 c -0.0352,0.004 -0.0706,0.005 -0.10563,0.009 -0.12731,-0.009 -0.25841,-0.0399 -0.38174,-0.0268 -0.14512,0.0155 -0.27328,0.1018 -0.41939,0.11244 -0.17495,0.0126 -0.40474,-0.14296 -0.58622,-0.23058 -0.0893,-0.0431 -0.2416,-0.0665 -0.20449,-0.20394 0.009,-0.0329 0.0466,-0.0125 0.0699,-0.0187 0.13985,-0.0375 0.28451,-0.0578 0.4194,-0.11244 0.18124,-0.0734 0.34684,-0.19319 0.52696,-0.27015 0.0893,-0.0382 0.18636,-0.05 0.2796,-0.075 l 0.1707,-0.0457 -0.17837,-0.66567 -71.973705,19.28529 z m 73.334609,-9.88873 c 0.32094,0.0336 0.35365,0.0322 0.47618,-7.3e-4 0.0892,-0.0872 0.18366,-0.17292 0.25779,-0.19535 l -0.73395,0.19665 z m 0.47618,-7.3e-4 c -0.0187,0.0186 -0.0431,0.039 -0.0691,0.0638 0.24271,-0.0325 0.49384,-0.0672 0.63625,-0.0834 0.035,-0.004 0.0702,-0.008 0.10539,-0.01 l -0.0132,-0.0495 c -0.0415,-0.0225 -0.0837,-0.0546 -0.12432,-0.0607 -0.0504,-0.008 -0.0931,0.025 -0.13979,0.0375 l -0.2796,0.075 c -0.0689,0.0185 -0.0796,0.0178 -0.11553,0.0274 z m 3.0518,9.39651 0.0357,-0.01 c 0.0233,-0.006 0.0443,-0.0279 0.0699,-0.0187 0.0129,0.004 0.0257,0.0143 0.0386,0.0199 l -0.24698,-0.9217 0.10279,0.92984 z m 0.0971,0.87912 6.8e-4,0.003 c 0.0897,-0.0205 0.1799,-0.0385 0.2656,-0.0719 l -2.4e-4,-6.6e-4 -0.2658,0.0713 z m -72.821031,15.05998 c -0.03615,0.006 -0.0052,0.0313 0.01116,0.0398 z"
       style="opacity:0.594;fill:#866239;fill-opacity:1;fill-rule:nonzero;stroke:none;stroke-width:1.5;stroke-linecap:round;stroke-linejoin:round;stroke-miterlimit:4;stroke-dasharray:none;stroke-dashoffset:0;stroke-opacity:1" />
    <path
       inkscape:connector-curvature="0"
       style="fill:none;fill-opacity:1;stroke:none;stroke-width:1.90770805;stroke-miterlimit:4;stroke-dasharray:none;stroke-dashoffset:0;stroke-opacity:1"
       d="m 74.87796,575.39564 326.99051,-7.537 3.9957,173.3507 -326.99058,7.537 z"
       id="path4801" />
    <path
       style="opacity:1;fill:#b7d8c4;fill-opacity:1;fill-rule:nonzero;stroke:none;stroke-width:1.5;stroke-linecap:round;stroke-linejoin:round;stroke-miterlimit:4;stroke-dasharray:none;stroke-dashoffset:0;stroke-opacity:1"
       d="m 555.17101,-109.97122 92.7201,4.28893 71.41398,1.7611 16.92699,0.37237 -1.13489,67.640461 -16.3404,-0.359475 -70.06662,-1.715243 -95.62044,-4.572226 z"
       id="path4744"
       inkscape:connector-curvature="0"
       sodipodi:nodetypes="ccccccccc" />
    <g
       aria-label="Non-player Character"
       transform="rotate(1.5572485,108.96292,5090.4962)"
       style="font-style:normal;font-variant:normal;font-weight:normal;font-stretch:normal;font-size:37.33333206px;line-height:25px;font-family:'Archivo Narrow';-inkscape-font-specification:'Archivo Narrow, Normal';text-align:center;letter-spacing:0px;word-spacing:0px;writing-mode:lr-tb;text-anchor:middle;fill:#000000;fill-opacity:1;stroke:none;stroke-width:1px;stroke-linecap:butt;stroke-linejoin:miter;stroke-opacity:1"
       id="text4585">
      <text
         xml:space="preserve"
         style="font-style:normal;font-variant:normal;font-weight:normal;font-stretch:normal;font-size:61.53364944px;line-height:52.44345093px;font-family:'Archivo Narrow';-inkscape-font-specification:'Archivo Narrow';text-align:start;letter-spacing:0px;word-spacing:0px;writing-mode:lr-tb;text-anchor:start;fill:#000000;fill-opacity:1;stroke:none;stroke-width:1px;stroke-linecap:butt;stroke-linejoin:miter;stroke-opacity:1"
         x="444.23251"
         y="-52.2015"
         id="text4614"
         transform="rotate(-1.5572485)"><tspan
           sodipodi:role="line"
           id="tspan4612"
           x="444.23251"
           y="-52.2015"
           style="stroke-width:1px">Fixer</tspan></text>
    </g>
    <path
       style="opacity:1;fill:#b7d8c4;fill-opacity:1;fill-rule:nonzero;stroke:none;stroke-width:1.5;stroke-linecap:round;stroke-linejoin:round;stroke-miterlimit:4;stroke-dasharray:none;stroke-dashoffset:0;stroke-opacity:1"
       d="m 91.618806,632.22647 103.094864,2.6727 152.78199,2.33862 333.78177,2.33861 h 57.38147 v 85.045 h -56.67307 l -337.21202,-1.08178 -149.4692,-1.03081 -103.098998,-3.41869 z"
       id="path4638"
       inkscape:connector-curvature="0"
       sodipodi:nodetypes="ccccccccccc" />
  </g>
</svg>
