<?xml version="1.0" encoding="UTF-8" standalone="no"?>
<!-- Created with Inkscape (http://www.inkscape.org/) -->

<svg
   xmlns:dc="http://purl.org/dc/elements/1.1/"
   xmlns:cc="http://creativecommons.org/ns#"
   xmlns:rdf="http://www.w3.org/1999/02/22-rdf-syntax-ns#"
   xmlns:svg="http://www.w3.org/2000/svg"
   xmlns="http://www.w3.org/2000/svg"
   xmlns:sodipodi="http://sodipodi.sourceforge.net/DTD/sodipodi-0.dtd"
   xmlns:inkscape="http://www.inkscape.org/namespaces/inkscape"
   width="0.75in"
   height="0.75in"
   viewBox="0 0 67.500001 67.500002"
   id="svg2"
   version="1.1"
   inkscape:version="0.92.0 r15299"
   sodipodi:docname="gate-b.svg">
  <defs
     id="defs4" />
  <sodipodi:namedview
     id="base"
     pagecolor="#ffffff"
     bordercolor="#666666"
     borderopacity="1.0"
     inkscape:pageopacity="0.0"
     inkscape:pageshadow="2"
     inkscape:zoom="5.6"
     inkscape:cx="48.378239"
     inkscape:cy="50.502281"
     inkscape:document-units="px"
     inkscape:current-layer="layer1"
     showgrid="false"
     units="in"
     inkscape:window-width="1920"
     inkscape:window-height="1017"
     inkscape:window-x="-8"
     inkscape:window-y="-8"
     inkscape:window-maximized="1" />
  <metadata
     id="metadata7">
    <rdf:RDF>
      <cc:Work
         rdf:about="">
        <dc:format>image/svg+xml</dc:format>
        <dc:type
           rdf:resource="http://purl.org/dc/dcmitype/StillImage" />
        <dc:title></dc:title>
      </cc:Work>
    </rdf:RDF>
  </metadata>
  <g
     inkscape:label="Layer 1"
     inkscape:groupmode="layer"
     id="layer1"
     transform="translate(0,-984.86215)">
    <g
       id="g4164"
       transform="matrix(1.1631686,0,0,1.1631686,-100.63751,-171.18385)">
      <g
         inkscape:transform-center-y="-10.892857"
         inkscape:transform-center-x="37.500001"
         style="fill:#000000"
         transform="matrix(1.6087965,0,0,1.6100112,-1392.2021,-314.2634)"
         id="g6387">
        <path
           id="path6381"
           d="m 936.64235,817.61044 c -1.75701,0.15769 -4.28919,1.03072 -6.39781,2.29591 -1.16649,0.69993 -2.20781,1.51511 -2.93697,2.35643 -0.72898,0.84129 -1.13076,1.69043 -1.13076,2.47235 l 0,15.81858 10.46554,0 0,-4.69143 -2.76675,0 0,0.96233 -3.96969,0 0,-0.96233 -1.9247,0 0,-3.9697 1.9247,0 0,-0.96233 3.96969,0 0,0.96233 2.76675,0 0,-14.28214 z m 1.08264,0 0,14.28214 2.76675,0 0,-0.96233 3.96969,0 0,0.96233 1.92471,0 0,3.9697 -1.92471,0 0,0.96233 -3.96969,0 0,-0.96233 -2.76675,0 0,4.69143 10.46554,0 0,-15.81858 c 0,-0.78192 -0.40166,-1.63106 -1.13076,-2.47235 -0.72916,-0.84132 -1.77048,-1.65646 -2.93696,-2.35643 -2.10875,-1.26519 -4.64093,-2.13822 -6.39782,-2.29591 z m -6.73644,14.40245 0,3.72908 1.8044,0 0,-3.72908 -1.8044,0 z m 10.58584,0 0,3.72908 1.8044,0 0,-3.72908 -1.8044,0 z m -12.51054,0.96234 0,1.8044 0.84206,0 0,-1.8044 -0.84206,0 z m 4.81175,0 0,1.8044 6.61614,0 0,-1.8044 -6.61614,0 z m 10.58583,0 0,1.8044 0.84206,0 0,-1.8044 -0.84206,0 z m -18.28462,8.66113 0,1.80441 10.46554,0 0,-1.80441 -10.46554,0 z m 11.54818,0 0,1.80441 10.46554,0 0,-1.80441 -10.46554,0 z"
           inkscape:connector-curvature="0"
           style="fill:#000000" />
        <text
           sodipodi:linespacing="125%"
           id="text6383"
           y="828.60797"
           x="939.08246"
           style="font-style:normal;font-weight:normal;font-size:9.22179794px;line-height:125%;font-family:sans-serif;letter-spacing:0px;word-spacing:0px;fill:#000000;fill-opacity:1;stroke:none;stroke-width:1px;stroke-linecap:butt;stroke-linejoin:miter;stroke-opacity:1"
           xml:space="preserve"><tspan
             style="font-style:normal;font-variant:normal;font-weight:normal;font-stretch:normal;font-family:'Archivo Black';-inkscape-font-specification:'Archivo Black, ';fill:#000000"
             y="828.60797"
             x="939.08246"
             id="tspan6385"
             sodipodi:role="line">A</tspan></text>
      </g>
      <text
         transform="scale(0.99962272,1.0003774)"
         sodipodi:linespacing="125%"
         id="text6373"
         y="1017.7939"
         x="117.65855"
         style="font-style:normal;font-weight:normal;font-size:14.84159565px;line-height:125%;font-family:sans-serif;letter-spacing:0px;word-spacing:0px;fill:#ffffff;fill-opacity:1;stroke:none;stroke-width:1px;stroke-linecap:butt;stroke-linejoin:miter;stroke-opacity:1"
         xml:space="preserve"><tspan
           style="font-style:normal;font-variant:normal;font-weight:normal;font-stretch:normal;font-family:'Archivo Black';-inkscape-font-specification:'Archivo Black, ';fill:#ffffff"
           y="1017.7939"
           x="117.65855"
           id="tspan6375"
           sodipodi:role="line">B</tspan></text>
    </g>
  </g>
</svg>
