<?xml version="1.0" encoding="UTF-8" standalone="no"?>
<!-- Created with Inkscape (http://www.inkscape.org/) -->

<svg
   xmlns:dc="http://purl.org/dc/elements/1.1/"
   xmlns:cc="http://creativecommons.org/ns#"
   xmlns:rdf="http://www.w3.org/1999/02/22-rdf-syntax-ns#"
   xmlns:svg="http://www.w3.org/2000/svg"
   xmlns="http://www.w3.org/2000/svg"
   xmlns:sodipodi="http://sodipodi.sourceforge.net/DTD/sodipodi-0.dtd"
   xmlns:inkscape="http://www.inkscape.org/namespaces/inkscape"
   width="675"
   height="600"
   viewBox="0 0 675.00001 600.00001"
   id="svg4372"
   version="1.1"
   inkscape:version="0.92.0 r15299"
   sodipodi:docname="gate[all].svg"
   inkscape:export-filename="G:\code\timber-wolf\_output\gate-d[all].png"
   inkscape:export-xdpi="90"
   inkscape:export-ydpi="90">
  <defs
     id="defs4374">
    <filter
       inkscape:label="Linen Canvas"
       inkscape:menu="Bumps"
       inkscape:menu-tooltip="Painting canvas emboss effect"
       style="color-interpolation-filters:sRGB;"
       id="filter5738">
      <feTurbulence
         numOctaves="5"
         baseFrequency="0.4"
         id="feTurbulence5740" />
      <feConvolveMatrix
         order="5 5"
         kernelMatrix="-4 0 0 0 -4 0 -2 0 -2 0 0 0 -10 0 0 0 -2 0 -2 0 -4 0 0 0 -4 "
         targetX="2"
         targetY="2"
         id="feConvolveMatrix5742" />
      <feConvolveMatrix
         order="3 3"
         kernelMatrix="2 0 2 0 -5 0 2 0 2 "
         targetX="1"
         targetY="1"
         id="feConvolveMatrix5744" />
      <feColorMatrix
         type="saturate"
         result="result1"
         id="feColorMatrix5746" />
      <feComposite
         in2="SourceGraphic"
         operator="arithmetic"
         k1="1.5"
         k2="0.5"
         k3="0.5"
         result="result2"
         id="feComposite5748" />
      <feBlend
         mode="normal"
         in2="result1"
         result="result4"
         id="feBlend5750" />
      <feColorMatrix
         type="luminanceToAlpha"
         id="feColorMatrix5752" />
      <feDiffuseLighting
         surfaceScale="10"
         diffuseConstant="1"
         result="result3"
         id="feDiffuseLighting5754">
        <feDistantLight
           azimuth="180"
           elevation="35"
           id="feDistantLight5756" />
      </feDiffuseLighting>
      <feComposite
         in2="result4"
         operator="arithmetic"
         k1="1.5"
         k3="0.5"
         result="result5"
         id="feComposite5758" />
      <feBlend
         mode="normal"
         in2="result3"
         result="result6"
         id="feBlend5760" />
      <feComposite
         in2="SourceGraphic"
         operator="in"
         id="feComposite5762" />
    </filter>
  </defs>
  <sodipodi:namedview
     id="base"
     pagecolor="#ffffff"
     bordercolor="#666666"
     borderopacity="1.0"
     inkscape:pageopacity="0.0"
     inkscape:pageshadow="2"
     inkscape:zoom="0.7"
     inkscape:cx="185.60286"
     inkscape:cy="239.11557"
     inkscape:document-units="px"
     inkscape:current-layer="layer1"
     showgrid="false"
     units="px"
     inkscape:window-width="1920"
     inkscape:window-height="1017"
     inkscape:window-x="-8"
     inkscape:window-y="-8"
     inkscape:window-maximized="1"
     showguides="true"
     inkscape:guide-bbox="true">
    <sodipodi:guide
       position="398.21429,599.64287"
       orientation="0,1"
       id="guide5702" />
    <sodipodi:guide
       position="0,563.57144"
       orientation="1,0"
       id="guide5704" />
    <sodipodi:guide
       position="675.00001,518.20826"
       orientation="1,0"
       id="guide5706"
       inkscape:label=""
       inkscape:color="rgb(0,0,255)" />
    <sodipodi:guide
       position="39.285715,0"
       orientation="0,1"
       id="guide5708"
       inkscape:label=""
       inkscape:color="rgb(0,0,255)" />
    <sodipodi:guide
       position="38.571429,250"
       orientation="-0.8660254,0.5"
       id="guide20978"
       inkscape:label=""
       inkscape:color="rgb(0,0,255)" />
    <sodipodi:guide
       position="480.00001,82.857144"
       orientation="-0.8660254,0.5"
       id="guide20980"
       inkscape:label=""
       inkscape:color="rgb(0,0,255)" />
    <sodipodi:guide
       position="432.85715,599.64287"
       orientation="-0.8660254,-0.5"
       id="guide20982"
       inkscape:label=""
       inkscape:color="rgb(0,0,255)" />
    <sodipodi:guide
       position="451.42858,532.85715"
       orientation="0,1"
       id="guide20984" />
    <sodipodi:guide
       position="198.57143,68.57143"
       orientation="0,1"
       id="guide20986" />
    <sodipodi:guide
       position="137.14286,175.71429"
       orientation="-0.8660254,-0.5"
       id="guide20988"
       inkscape:label=""
       inkscape:color="rgb(0,0,255)" />
  </sodipodi:namedview>
  <metadata
     id="metadata4377">
    <rdf:RDF>
      <cc:Work
         rdf:about="">
        <dc:format>image/svg+xml</dc:format>
        <dc:type
           rdf:resource="http://purl.org/dc/dcmitype/StillImage" />
        <dc:title />
      </cc:Work>
    </rdf:RDF>
  </metadata>
  <g
     inkscape:label="Layer 1"
     inkscape:groupmode="layer"
     id="layer1"
     transform="translate(0,-452.36216)">
    <rect
       style="opacity:1;fill:#d8c586;fill-opacity:1;stroke:none;stroke-width:0.625;stroke-linecap:round;stroke-linejoin:round;stroke-miterlimit:4;stroke-dasharray:none;stroke-dashoffset:0;stroke-opacity:1"
       id="rect5700"
       width="682.85712"
       height="621.42859"
       x="1.4285774"
       y="452.36215"
       ry="4.7982202" />
    <g
       id="g20990"
       transform="matrix(0.8660254,-0.5,0.5,0.8660254,-331.39322,266.59998)">
      <path
         style="fill:#42290d;fill-opacity:1;stroke:none;stroke-width:10;stroke-linecap:round;stroke-linejoin:round;stroke-miterlimit:4;stroke-dasharray:none;stroke-dashoffset:0;stroke-opacity:1"
         d="m 324.61889,555.36928 c -5.01891,0.13578 -12.73901,2.28606 -11.92831,5.41706 2.61651,2.79807 4.20661,6.7901 6.06875,10.37722 4.15259,7.99897 7.34578,17.00531 9.90423,27.67674 2.35962,1.66659 3.20963,1.41883 6.67285,0.63679 2.31198,-0.52126 4.30623,-0.82625 5.03669,-2.63228 1.03778,-2.94599 1.73415,-5.83314 2.55061,-8.80359 0.90538,-3.29504 1.96054,-6.6794 3.7987,-10.07478 3.79098,-7.00252 7.66287,-12.81284 9.74298,-18.28659 0.76628,-2.25653 -5.20227,-3.19547 -7.60989,-3.20678 -5.1547,-0.0278 -11.7133,0.15439 -21.33056,-0.86385 -0.73153,-0.19465 -1.74788,-0.27129 -2.90605,-0.24047 z m -17.86464,3.11192 c -0.58444,-0.0672 -1.16616,0.0539 -1.68814,0.33048 -6.96798,3.79347 -13.80235,0.91762 -18.98362,5.81409 -1.72866,1.63408 -2.19458,4.34494 -0.54699,6.06151 10.02408,10.44277 10.64194,13.83441 19.66969,30.68628 6.61358,4.68339 13.97741,1.09627 16.01779,0.22574 2.17172,-0.96194 3.76262,-2.95931 3.07763,-5.24229 -1.32932,-14.74905 -7.36247,-21.98612 -14.01629,-34.45272 -0.0276,-1.78792 -1.77855,-3.2706 -3.53035,-3.42132 z m 54.21319,1.65316 c -1.75165,0.1505 -3.49892,1.63597 -3.53006,3.42412 -6.65384,12.46661 -12.68754,19.70342 -14.01648,34.4526 -0.68471,2.28298 0.9054,4.2805 3.07778,5.2423 10.99633,4.87011 7.25189,1.47689 12.11956,2.26495 2.34345,0.38021 4.00885,-0.39095 5.13369,-2.48958 9.02776,-16.85187 9.6456,-20.24379 19.6698,-30.68667 1.64761,-1.71633 1.18223,-4.42988 -0.54696,-6.06396 -5.18129,-4.89716 -13.25135,-2.01821 -20.21909,-5.81153 -0.52023,-0.28481 -1.10464,-0.38288 -1.68799,-0.33185 z m -83.10135,7.83951 c -0.58441,0.0672 -1.14342,0.2499 -1.60843,0.61932 -6.21505,4.94015 -14.6577,3.49671 -18.92397,9.21564 -1.42332,1.90803 -1.46186,4.71968 0.49883,6.06638 12.09083,8.30998 15.05478,10.52635 24.62936,26.83275 7.31651,3.47158 15.17382,-1.54392 17.03445,-2.75454 1.97487,-1.32335 3.20093,-3.56601 2.13548,-5.69691 -3.83258,-14.30006 -11.01412,-20.38859 -19.70191,-31.52058 -0.33701,-1.75595 -2.31094,-2.91617 -4.06232,-2.76234 z m 111.61903,2.95711 c -1.7535,-0.13439 -3.71113,1.06138 -4.02246,2.82226 -8.52449,11.2587 -15.61818,17.45013 -19.242,31.80527 -1.03377,2.14624 0.22332,4.37063 2.21758,5.66426 1.87817,1.18363 9.80918,6.08384 17.07416,2.50509 11.55627,-15.21404 12.69837,-18.46554 24.23404,-27.19255 1.89623,-1.43458 1.86144,-4.18428 0.40924,-6.07148 -4.34904,-5.65579 -12.76911,-4.0901 -19.0557,-8.93834 -0.46943,-0.36407 -1.03109,-0.55216 -1.61591,-0.59517 z m -138.36913,11.16371 c -0.89605,0.0278 -1.76238,0.36004 -2.34933,1.0318 -5.22623,5.98535 -13.78524,6.09647 -16.95489,12.49468 -1.05782,2.13493 -0.57639,4.87295 1.5761,5.87678 13.25347,6.17897 18.53132,7.70291 30.13599,21.71033 7.81989,2.08911 13.55467,-4.05115 15.16752,-5.57907 1.7051,-1.65897 2.50699,-4.0865 1.07655,-5.98899 -6.33712,-13.37133 -14.49308,-18.05713 -25.03711,-27.43237 -0.53894,-1.38849 -2.12089,-2.16437 -3.61473,-2.11278 z m 164.77852,3.97348 c -1.49356,-0.0672 -3.07844,0.72145 -3.61726,2.1105 -10.54391,9.37524 -18.69985,14.06104 -25.03699,27.43233 -1.43056,1.90278 -0.62855,4.33248 1.07657,5.99141 1.61299,1.5281 8.4416,7.8856 16.26131,5.79648 14.28419,-12.66142 16.03545,-18.1071 29.04222,-24.41018 2.13787,-1.03583 2.63603,-3.74444 1.57873,-5.87909 -3.16951,-6.39835 -11.73134,-4.02455 -16.95754,-10.00979 -0.58844,-0.67172 -1.45063,-1.0009 -2.3469,-1.0318 z m -187.60556,15.37956 c -1.49422,-0.10745 -3.0977,0.61397 -3.66942,1.99038 -3.05342,7.34709 -9.4478,9.62591 -12.12197,16.2485 -0.89201,2.20962 -0.20592,4.91649 2.021,5.73937 4.06862,1.50241 23.0628,9.08208 26.82221,11.15359 3.93863,2.17028 2.54015,2.46908 9.20349,5.23975 2.15954,0.89879 4.07985,0.80474 5.27542,-0.28483 4.06608,-3.70251 7.02012,-7.22848 9.31515,-10.67413 1.08861,-2.11841 -0.8171,-3.93211 -2.77686,-5.27719 -10.25036,-10.64203 -18.77552,-17.52387 -31.74459,-23.03151 -0.57104,-0.68652 -1.42774,-1.04254 -2.32443,-1.10435 z m 215.85966,0.23656 c -0.89602,0.0672 -1.75353,0.41783 -2.32459,1.10299 -12.96942,5.50802 -24.13121,15.03857 -34.38209,25.68153 -4.10498,3.02309 4.86258,17.38804 12.68888,16.72545 11.29641,-8.00208 23.69201,-13.0173 38.6632,-18.54615 2.22789,-0.82355 2.911,-3.52947 2.01871,-5.73923 -2.67428,-6.62256 -9.94101,-9.89047 -12.99471,-17.23757 -0.57103,-1.37521 -2.17492,-2.09034 -3.6694,-1.98782 z m -116.2159,5.43694 c -6.08279,0.36275 -11.96216,1.20645 -17.57138,2.51489 l 0,20.19458 -18.75723,0 0,-13.74104 c -6.43223,2.99639 -12.32871,6.64045 -17.56911,10.83415 l 0,2.90689 -3.4109,0 c -5.83924,5.23218 -10.74663,11.17483 -14.53093,17.6499 l 17.94183,0 0,19.01057 -25.39512,0 c -0.15783,0.72282 -0.31964,1.44518 -0.45203,2.17539 l -2.78943,15.47679 28.63686,0 0,23.08659 8.78329,27.69204 8.78582,-27.69204 0,-23.08659 18.75721,0 0,23.08659 8.78582,27.69204 8.78558,-27.69204 0,-23.08659 18.75988,0 0,23.08659 8.78596,27.69204 8.78061,-27.69204 0,-23.08659 18.75973,0 0,23.08659 8.78583,27.69204 8.78583,-27.69204 0,-23.08659 28.31605,0 -3.08272,-12.49735 c 0,-1.66981 -0.2341,-3.39192 -0.67269,-5.15483 l -24.55984,0 0,-19.01057 13.4073,0 c -7.84393,-8.93042 -18.88492,-17.68606 -30.97867,-24.76257 l 0,7.11267 -18.75989,0 0,-16.32106 c -5.94597,-2.366 -11.87122,-4.17004 -17.56657,-5.29441 l 0,21.61561 -18.75976,0 0,-22.70961 z m 137.82967,19.75743 c -0.58842,0.0278 -1.15812,0.18937 -1.6432,0.53203 -12.1126,4.34308 -24.90859,11.22454 -39.82669,15.86897 -2.23952,0.78995 -2.90793,3.25741 -2.40159,5.58687 2.56528,11.79458 5.97176,10.45741 6.6526,15.19469 0.3397,2.35984 3.6194,3.78567 5.56135,2.41504 11.28696,-7.96565 22.37087,-14.45066 39.82672,-15.86655 2.36589,-0.19075 3.14491,-3.32378 2.40414,-5.58929 -2.22039,-6.79 -5.5988,-7.30387 -6.6553,-15.19455 -0.23796,-1.77247 -2.15474,-3.0148 -3.91803,-2.94721 z m -259.24878,0.23241 c -1.76329,-0.0672 -3.68317,1.17824 -3.92042,2.94948 -1.0565,7.89068 -4.21356,7.52822 -6.43398,14.31833 -0.74088,2.26523 0.12022,4.91795 2.40149,5.58673 15.31045,4.49504 28.56247,7.55696 40.37366,14.77 2.02822,1.23869 5.22207,-0.0672 5.56121,-2.4149 0.68072,-4.73728 3.32423,-1.42477 5.88955,-13.21935 0.50552,-2.32947 -0.16308,-4.79962 -2.404,-5.5893 -12.64367,-7.61501 -25.87753,-13.91823 -39.82418,-15.86644 -0.48411,-0.34394 -1.05517,-0.51187 -1.64333,-0.53469 z m 85.0905,20.36951 18.75723,0 0,19.01084 -18.75723,0 0,-19.01084 z m 36.32861,0 18.75988,0 0,19.01084 -18.75988,0 0,-19.01084 z m 36.32645,0 18.75977,0 0,19.01084 -18.75977,0 0,-19.01084 z m 112.91185,4.2833 c -0.58978,0.008 -1.16482,0.16131 -1.65829,0.49171 -13.99094,1.59376 -27.38098,7.5606 -40.21199,14.85263 -2.25879,0.73084 -2.77072,3.15113 -2.54071,5.52413 0.64862,6.68345 0.0937,9.98465 -0.70879,14.70284 -0.39853,2.35028 1.80796,2.2631 4.11702,1.71078 13.44621,-3.21683 27.24576,-0.94715 43.19026,-0.49843 2.37271,0.0672 4.00536,-2.19069 3.99532,-4.57536 -0.0401,-7.14667 -1.48165,-21.24816 -2.33954,-29.16289 -0.19266,-1.77757 -2.07905,-3.06988 -3.84339,-3.04702 z m -283.91305,1.37088 c -1.76206,0.0942 -3.55999,1.5051 -3.63702,3.29182 -0.34506,7.95423 -0.87598,20.36573 -0.44801,27.49952 0.14178,2.38025 1.92268,4.52512 4.28577,4.30318 15.88178,-1.4918 29.21619,-2.33082 42.84229,0 2.33996,0.40035 4.83663,-1.9838 4.28605,-4.30318 -1.10598,-4.65559 -1.87401,-6.158 -1.66087,-12.86938 0.0802,-2.38322 -0.59377,-4.76386 -2.89601,-5.34707 -13.27622,-6.43757 -27.02494,-11.51716 -41.08954,-12.19266 -0.51489,-0.29691 -1.0953,-0.41247 -1.68318,-0.3829 z m 22.38437,36.20584 c -7.19814,-0.0941 -14.21089,0.38558 -20.8654,1.69078 -2.30826,-0.55485 -3.77158,1.97547 -4.28607,4.30332 -1.60947,7.28371 -1.62166,13.58249 0,20.8662 0.51891,2.32718 1.93115,4.60197 4.28607,4.30346 15.90907,-2.01873 28.90498,-1.54259 42.84216,0 2.35947,0.26073 4.83677,-1.9838 4.28592,-4.30346 -1.10465,-4.6556 1.94396,-8.95244 0,-20.8662 -0.38516,-2.35326 -1.91416,-4.39857 -4.28592,-4.30332 -7.39661,-0.95119 -14.77864,-1.60225 -21.97676,-1.69078 z m 242.28159,0 c -7.19813,0.0942 -14.58269,0.73892 -21.97941,1.69078 -2.3715,-0.0942 -3.89944,1.95006 -4.28337,4.30332 -1.94357,11.91376 1.10463,17.19715 0,21.85285 -0.551,2.31927 1.91776,4.49666 4.28337,4.30304 14.09044,-1.15269 27.07376,-2.87868 42.84496,0 2.33528,0.42588 3.76544,-1.97586 4.28337,-4.30304 1.62166,-7.28371 1.60965,-14.56914 0,-21.85285 -0.51487,-2.32785 -1.97512,-4.85898 -4.28337,-4.30332 -6.65464,-1.30452 -13.66728,-1.77931 -20.86555,-1.69078 z m -0.2341,32.3049 c -7.198,0.0942 -14.58242,0.74294 -21.97914,1.69319 -2.37167,-0.0942 -3.44194,2.07368 -4.2834,4.30318 -4.16116,11.02277 0.38382,15.44124 0,20.38688 -0.18464,2.37716 1.9172,4.11575 4.2834,4.30318 14.31401,1.13389 27.46307,2.92246 42.84467,0 2.3322,-0.44471 3.76531,-1.976 4.28366,-4.30318 1.62153,-7.28357 1.60948,-13.10302 0,-20.38688 -0.51489,-2.32771 -1.97526,-4.85884 -4.28366,-4.30318 -6.65438,-1.30452 -13.66741,-1.78171 -20.86553,-1.69319 z m -241.37905,0.5495 c -7.19746,-0.0942 -14.35333,0.20547 -21.30044,1.14331 -2.30812,-0.55622 -3.77157,1.97533 -4.28606,4.30304 -1.60948,7.28371 -1.62167,14.56914 0,21.85285 0.51758,2.32694 1.9207,4.10434 4.28606,4.30304 15.38269,1.29381 28.52868,0.88 42.84216,0 2.36923,-0.14522 4.47033,-1.92602 4.28605,-4.30304 -0.38382,-4.94589 4.16089,-10.83023 0,-21.85299 -0.8412,-2.2295 -1.91441,-4.39845 -4.28605,-4.30304 -7.10692,-0.58713 -14.34425,-1.05599 -21.54172,-1.14331 z m 263.10235,32.20991 c -0.28217,-0.0278 -0.56971,4.2e-4 -0.85856,0.0805 -15.19494,3.6583 -28.31097,0.58443 -42.84482,0 -2.37166,-0.0941 -4.42503,1.92535 -4.28341,4.30547 0.65398,11.02288 1.1956,16.90467 0,21.85031 -0.55901,2.3171 1.9108,4.23869 4.28341,4.30344 12.7077,0.34662 26.62948,1.9529 42.84482,0 2.35651,-0.28481 3.86612,-1.95597 4.28351,-4.30344 1.29455,-7.28357 -0.85055,-14.56648 0,-21.85031 0.24074,-2.07219 -1.45223,-4.23841 -3.42576,-4.37533 z m -285.2631,1.31663 c -1.97351,0.13577 -3.6674,2.30338 -3.42575,4.37559 0.85056,7.28357 -1.29455,13.25023 0,20.53394 0.41728,2.34749 1.91481,4.19692 4.28606,4.30318 16.21533,0.72818 30.13456,-2.1372 42.84216,0 2.34101,0.395 4.84615,-1.98593 4.28605,-4.30318 -1.1956,-4.9455 -0.65397,-9.51118 0,-20.53394 0.14041,-2.38024 -1.91441,-4.40114 -4.28605,-4.30573 -14.53388,0.58439 -27.64708,3.65858 -42.84216,0 -0.28751,-0.0805 -0.57772,-0.0942 -0.85989,-0.0805 z m 32.83345,30.37415 c -10.64688,0.0278 -20.79478,1.67923 -31.97314,0.68653 -2.36442,-0.20964 -3.94006,1.94684 -4.28606,4.30561 -1.06852,7.28397 -3.10586,14.56673 0,21.8503 0.93347,2.19216 1.91334,3.60444 4.28606,3.53658 16.21533,-0.46215 33.82189,-1.91377 43.93357,0.21908 2.32296,0.49037 4.23871,-1.92171 4.28591,-4.3056 0.10698,-4.94578 1.17153,-10.2782 -1.09127,-21.30096 -0.48011,-2.33524 -1.93501,-3.97817 -4.28605,-4.3056 -3.71597,-0.51723 -7.31997,-0.69324 -10.86902,-0.68785 z m 208.72721,0.68653 c -2.36953,-0.14105 -3.80408,1.97036 -4.2834,4.30561 -2.2629,11.02288 -0.10699,16.9048 0,21.8503 0.0537,2.38416 1.91561,4.47112 4.2834,4.30332 12.70771,-0.90013 26.62934,-0.46217 42.84467,0 2.37258,0.0672 3.34898,-2.11116 4.28366,-4.30332 3.10572,-7.28357 1.06854,-14.56633 0,-21.8503 -0.34638,-2.35877 -1.927,-4.58948 -4.28366,-4.30561 -14.90433,1.79476 -27.98061,0.89208 -42.84467,0 z m -208.72721,30.76649 c -10.64688,0.0278 -20.79478,1.67948 -31.97314,0.68653 -2.36442,-0.20964 -3.94006,1.94428 -4.28606,4.30329 -1.06852,7.2837 -3.10586,13.25309 0,20.5368 0.93347,2.19188 1.94132,3.93278 4.28606,4.30304 16.21533,2.56134 30.13456,0.3184 42.84216,0 2.37285,-0.0672 4.23871,-1.91919 4.28605,-4.30304 0.10699,-4.94564 2.2628,-9.51405 0,-20.5368 -0.48011,-2.33524 -1.93501,-3.97576 -4.28605,-4.30329 -3.71597,-0.51726 -7.31997,-0.69325 -10.86902,-0.68653 z m 208.72721,0.68653 c -2.36577,-0.19214 -3.80407,1.96805 -4.28339,4.30329 -2.2629,11.02275 -0.10699,16.90723 0,21.85287 0.0537,2.38389 1.91054,4.24393 4.2834,4.30318 12.70771,0.3184 26.62934,2.56148 42.84467,0 2.34492,-0.37079 3.34898,-2.11102 4.28366,-4.30318 3.10572,-7.28371 1.06854,-14.56917 0,-21.85287 -0.34638,-2.35901 -1.92551,-4.57523 -4.28366,-4.30329 -7.40985,0.85578 -13.97699,0.38825 -20.94002,0.32781 -7.06881,-0.0672 -14.53336,0.27405 -21.90465,-0.32781 z M 194.16755,849.6561 c -1.87657,0.20298 -3.14048,2.27143 -3.44328,4.33556 -1.06852,7.28399 -3.10586,14.56903 0,21.85302 0.93347,2.19187 1.97285,3.76873 4.28606,4.30304 12.42209,2.87021 27.2368,0.25934 42.84216,0 2.37337,-0.0403 4.23871,-1.91919 4.28605,-4.30304 0.10699,-4.94578 2.2628,-10.83012 0,-21.85302 -0.48011,-2.33524 -1.9278,-4.57387 -4.28605,-4.30304 -13.65671,1.56838 -27.45665,2.7727 -42.84216,0 -0.29154,-0.0672 -0.57504,-0.0672 -0.84251,-0.0403 z m 285.22806,0.87731 c -0.26866,-0.0278 -0.54831,-0.0278 -0.83985,0.0403 -15.38525,2.77284 -29.18783,1.56827 -42.84454,0 -2.35843,-0.26988 -3.80422,1.97036 -4.28366,4.30549 -2.26279,11.02287 -0.10699,16.90479 0,21.85056 0.0533,2.38389 1.93379,4.63905 4.28366,4.30305 14.28125,-2.0425 28.5633,-0.36274 42.84454,0 2.37299,0.0672 3.34912,-2.11128 4.28365,-4.30305 3.10571,-7.28398 1.06854,-14.56674 0,-21.85056 -0.30224,-2.06402 -1.5667,-4.135 -3.44326,-4.338 z m -310.71774,30.22681 c -3.45129,-0.0278 -6.17787,3.37186 -6.17787,6.96045 l 0,6.04408 c 0,3.82798 3.08059,6.57674 6.87666,6.91047 22.00428,1.93259 43.60052,3.53685 64.92585,3.88859 63.15776,1.23331 140.11253,0.95789 212.29202,-0.27946 22.57227,-0.47692 36.09444,-3.12869 59.02923,-3.60871 3.8093,-0.0805 6.87625,-3.08263 6.87625,-6.91065 l 0,-6.0439 c 0,-3.82788 -3.07429,-7.16307 -6.87625,-6.91051 -14.37379,0.95522 -28.78557,2.7629 -43.25765,2.38511 -57.18062,-1.49194 -117.39356,4.59375 -178.58609,-0.39501 -37.45265,-3.05291 -75.21019,3.41744 -114.40337,-1.99048 -0.2366,-0.0403 -0.46944,-0.0539 -0.69946,-0.0539 z"
         id="path8070"
         inkscape:connector-curvature="0" />
      <text
         transform="scale(0.99771264,1.0022926)"
         sodipodi:linespacing="125%"
         id="text8072"
         y="860.12891"
         x="274.68243"
         style="font-style:normal;font-weight:normal;font-size:163.95631409px;line-height:125%;font-family:sans-serif;letter-spacing:0px;word-spacing:0px;fill:#42290d;fill-opacity:1;stroke:none;stroke-width:1px;stroke-linecap:butt;stroke-linejoin:miter;stroke-opacity:1"
         xml:space="preserve"><tspan
           style="font-style:normal;font-variant:normal;font-weight:normal;font-stretch:normal;font-family:'Archivo Black';-inkscape-font-specification:'Archivo Black, ';fill:#42290d;fill-opacity:1"
           y="860.12891"
           x="274.68243"
           id="tspan8074"
           sodipodi:role="line">D</tspan></text>
    </g>
    <text
       xml:space="preserve"
       style="font-style:normal;font-variant:normal;font-weight:normal;font-stretch:normal;font-size:40px;line-height:125%;font-family:'Archivo Narrow';-inkscape-font-specification:'Archivo Narrow, Normal';text-align:start;letter-spacing:0px;word-spacing:0px;writing-mode:lr-tb;text-anchor:start;fill:#000000;fill-opacity:1;stroke:none;stroke-width:1px;stroke-linecap:butt;stroke-linejoin:miter;stroke-opacity:1"
       x="350"
       y="793.79071"
       id="text9053"
       sodipodi:linespacing="125%"><tspan
         sodipodi:role="line"
         id="tspan9055"
         x="350"
         y="793.79071" /></text>
    <path
       style="fill:#42290d;fill-opacity:1;stroke:none;stroke-width:10;stroke-linecap:round;stroke-linejoin:round;stroke-miterlimit:4;stroke-dasharray:none;stroke-dashoffset:0;stroke-opacity:1"
       d="m -463.95254,555.36928 c -5.01891,0.13578 -12.73901,2.28606 -11.92831,5.41706 2.61651,2.79807 4.20661,6.7901 6.06875,10.37722 4.15259,7.99897 7.34578,17.00531 9.90423,27.67674 2.35962,1.66659 3.20963,1.41883 6.67285,0.63679 2.31198,-0.52126 4.30623,-0.82625 5.03669,-2.63228 1.03778,-2.94599 1.73415,-5.83314 2.55061,-8.80359 0.90538,-3.29504 1.96054,-6.6794 3.7987,-10.07478 3.79098,-7.00252 7.66287,-12.81284 9.74298,-18.28659 0.76628,-2.25653 -5.20227,-3.19547 -7.60989,-3.20678 -5.1547,-0.0278 -11.7133,0.15439 -21.33056,-0.86385 -0.73153,-0.19465 -1.74788,-0.27129 -2.90605,-0.24047 z m -17.86464,3.11192 c -0.58444,-0.0672 -1.16616,0.0539 -1.68814,0.33048 -6.96798,3.79347 -13.80235,0.91762 -18.98362,5.81409 -1.72866,1.63408 -2.19458,4.34494 -0.54699,6.06151 10.02408,10.44277 10.64194,13.83441 19.66969,30.68628 6.61358,4.68339 13.97741,1.09627 16.01779,0.22574 2.17172,-0.96194 3.76262,-2.95931 3.07763,-5.24229 -1.32932,-14.74905 -7.36247,-21.98612 -14.01629,-34.45272 -0.0276,-1.78792 -1.77855,-3.2706 -3.53035,-3.42132 z m 54.21319,1.65316 c -1.75165,0.1505 -3.49892,1.63597 -3.53006,3.42412 -6.65384,12.46661 -12.68754,19.70342 -14.01648,34.4526 -0.68471,2.28298 0.9054,4.2805 3.07778,5.2423 10.99633,4.87011 7.25189,1.47689 12.11956,2.26495 2.34345,0.38021 4.00885,-0.39095 5.13369,-2.48958 9.02776,-16.85187 9.6456,-20.24379 19.6698,-30.68667 1.64761,-1.71633 1.18223,-4.42988 -0.54696,-6.06396 -5.18129,-4.89716 -13.25135,-2.01821 -20.21909,-5.81153 -0.52023,-0.28481 -1.10464,-0.38288 -1.68799,-0.33185 z m -83.10135,7.83951 c -0.58441,0.0672 -1.14342,0.2499 -1.60843,0.61932 -6.21505,4.94015 -14.6577,3.49671 -18.92397,9.21564 -1.42332,1.90803 -1.46186,4.71968 0.49883,6.06638 12.09083,8.30998 15.05478,10.52635 24.62936,26.83275 7.31651,3.47158 15.17382,-1.54392 17.03445,-2.75454 1.97487,-1.32335 3.20093,-3.56601 2.13548,-5.69691 -3.83258,-14.30006 -11.01412,-20.38859 -19.70191,-31.52058 -0.33701,-1.75595 -2.31094,-2.91617 -4.06232,-2.76234 z m 111.61903,2.95711 c -1.7535,-0.13439 -3.71113,1.06138 -4.02246,2.82226 -8.52449,11.2587 -15.61818,17.45013 -19.242,31.80527 -1.03377,2.14624 0.22332,4.37063 2.21758,5.66426 1.87817,1.18363 9.80918,6.08384 17.07416,2.50509 11.55627,-15.21404 12.69837,-18.46554 24.23404,-27.19255 1.89623,-1.43458 1.86144,-4.18428 0.40924,-6.07148 -4.34904,-5.65579 -12.76911,-4.0901 -19.0557,-8.93834 -0.46943,-0.36407 -1.03109,-0.55216 -1.61591,-0.59517 z m -138.36913,11.16371 c -0.89605,0.0278 -1.76238,0.36004 -2.34933,1.0318 -5.22623,5.98535 -13.78524,6.09647 -16.95489,12.49468 -1.05782,2.13493 -0.57639,4.87295 1.5761,5.87678 13.25347,6.17897 18.53132,7.70291 30.13599,21.71033 7.81989,2.08911 13.55467,-4.05115 15.16752,-5.57907 1.7051,-1.65897 2.50699,-4.0865 1.07655,-5.98899 -6.33712,-13.37133 -14.49308,-18.05713 -25.03711,-27.43237 -0.53894,-1.38849 -2.12089,-2.16437 -3.61473,-2.11278 z m 164.77852,3.97348 c -1.49356,-0.0672 -3.07844,0.72145 -3.61726,2.1105 -10.54391,9.37524 -18.69985,14.06104 -25.03699,27.43233 -1.43056,1.90278 -0.62855,4.33248 1.07657,5.99141 1.61299,1.5281 8.4416,7.8856 16.26131,5.79648 14.28419,-12.66142 16.03545,-18.1071 29.04222,-24.41018 2.13787,-1.03583 2.63603,-3.74444 1.57873,-5.87909 -3.16951,-6.39835 -11.73134,-4.02455 -16.95754,-10.00979 -0.58844,-0.67172 -1.45063,-1.0009 -2.3469,-1.0318 z m -187.60556,15.37956 c -1.49422,-0.10745 -3.0977,0.61397 -3.66942,1.99038 -3.05342,7.34709 -9.4478,9.62591 -12.12197,16.2485 -0.89201,2.20962 -0.20592,4.91649 2.021,5.73937 4.06862,1.50241 23.0628,9.08208 26.82221,11.15359 3.93863,2.17028 2.54015,2.46908 9.20349,5.23975 2.15954,0.89879 4.07985,0.80474 5.27542,-0.28483 4.06608,-3.70251 7.02012,-7.22848 9.31515,-10.67413 1.08861,-2.11841 -0.8171,-3.93211 -2.77686,-5.27719 -10.25036,-10.64203 -18.77552,-17.52387 -31.74459,-23.03151 -0.57104,-0.68652 -1.42774,-1.04254 -2.32443,-1.10435 z m 215.85966,0.23656 c -0.89602,0.0672 -1.75353,0.41783 -2.32459,1.10299 -12.96942,5.50802 -24.13121,15.03857 -34.38209,25.68153 -4.10498,3.02309 4.86258,17.38804 12.68888,16.72545 11.29641,-8.00208 23.69201,-13.0173 38.6632,-18.54615 2.22789,-0.82355 2.911,-3.52947 2.01871,-5.73923 -2.67428,-6.62256 -9.94101,-9.89047 -12.99471,-17.23757 -0.57103,-1.37521 -2.17492,-2.09034 -3.6694,-1.98782 z m -116.2159,5.43694 c -6.08279,0.36275 -11.96216,1.20645 -17.57138,2.51489 l 0,20.19458 -18.75723,0 0,-13.74104 c -6.43223,2.99639 -12.32871,6.64045 -17.56911,10.83415 l 0,2.90689 -3.4109,0 c -5.83924,5.23218 -10.74663,11.17483 -14.53093,17.6499 l 17.94183,0 0,19.01057 -25.39512,0 c -0.15783,0.72282 -0.31964,1.44518 -0.45203,2.17539 l -2.78943,15.47679 28.63686,0 0,23.08659 8.78329,27.69204 8.78582,-27.69204 0,-23.08659 18.75721,0 0,23.08659 8.78582,27.69204 8.78558,-27.69204 0,-23.08659 18.75988,0 0,23.08659 8.78596,27.69204 8.78061,-27.69204 0,-23.08659 18.75973,0 0,23.08659 8.78583,27.69204 8.78583,-27.69204 0,-23.08659 28.31605,0 -3.08272,-12.49735 c 0,-1.66981 -0.2341,-3.39192 -0.67269,-5.15483 l -24.55984,0 0,-19.01057 13.4073,0 c -7.84393,-8.93042 -18.88492,-17.68606 -30.97867,-24.76257 l 0,7.11267 -18.75989,0 0,-16.32106 c -5.94597,-2.366 -11.87122,-4.17004 -17.56657,-5.29441 l 0,21.61561 -18.75976,0 0,-22.70961 z m 137.82967,19.75743 c -0.58842,0.0278 -1.15812,0.18937 -1.6432,0.53203 -12.1126,4.34308 -24.90859,11.22454 -39.82669,15.86897 -2.23952,0.78995 -2.90793,3.25741 -2.40159,5.58687 2.56528,11.79458 5.97176,10.45741 6.6526,15.19469 0.3397,2.35984 3.6194,3.78567 5.56135,2.41504 11.28696,-7.96565 22.37087,-14.45066 39.82672,-15.86655 2.36589,-0.19075 3.14491,-3.32378 2.40414,-5.58929 -2.22039,-6.79 -5.5988,-7.30387 -6.6553,-15.19455 -0.23796,-1.77247 -2.15474,-3.0148 -3.91803,-2.94721 z m -259.24878,0.23241 c -1.76329,-0.0672 -3.68317,1.17824 -3.92042,2.94948 -1.0565,7.89068 -4.21356,7.52822 -6.43398,14.31833 -0.74088,2.26523 0.12022,4.91795 2.40149,5.58673 15.31045,4.49504 28.56247,7.55696 40.37366,14.77 2.02822,1.23869 5.22207,-0.0672 5.56121,-2.4149 0.68072,-4.73728 3.32423,-1.42477 5.88955,-13.21935 0.50552,-2.32947 -0.16308,-4.79962 -2.404,-5.5893 -12.64367,-7.61501 -25.87753,-13.91823 -39.82418,-15.86644 -0.48411,-0.34394 -1.05517,-0.51187 -1.64333,-0.53469 z m 85.0905,20.36951 18.75723,0 0,19.01084 -18.75723,0 0,-19.01084 z m 36.32861,0 18.75988,0 0,19.01084 -18.75988,0 0,-19.01084 z m 36.32645,0 18.75977,0 0,19.01084 -18.75977,0 0,-19.01084 z m 112.91185,4.2833 c -0.58978,0.008 -1.16482,0.16131 -1.65829,0.49171 -13.99094,1.59376 -27.38098,7.5606 -40.21199,14.85263 -2.25879,0.73084 -2.77072,3.15113 -2.54071,5.52413 0.64862,6.68345 0.0937,9.98465 -0.70879,14.70284 -0.39853,2.35028 1.80796,2.2631 4.11702,1.71078 13.44621,-3.21683 27.24576,-0.94715 43.19026,-0.49843 2.37271,0.0672 4.00536,-2.19069 3.99532,-4.57536 -0.0401,-7.14667 -1.48165,-21.24816 -2.33954,-29.16289 -0.19266,-1.77757 -2.07905,-3.06988 -3.84339,-3.04702 z m -283.91305,1.37088 c -1.76206,0.0942 -3.55999,1.5051 -3.63702,3.29182 -0.34506,7.95423 -0.87598,20.36573 -0.44801,27.49952 0.14178,2.38025 1.92268,4.52512 4.28577,4.30318 15.88178,-1.4918 29.21619,-2.33082 42.84229,0 2.33996,0.40035 4.83663,-1.9838 4.28605,-4.30318 -1.10598,-4.65559 -1.87401,-6.158 -1.66087,-12.86938 0.0802,-2.38322 -0.59377,-4.76386 -2.89601,-5.34707 -13.27622,-6.43757 -27.02494,-11.51716 -41.08954,-12.19266 -0.51489,-0.29691 -1.0953,-0.41247 -1.68318,-0.3829 z m 22.38437,36.20584 c -7.19814,-0.0941 -14.21089,0.38558 -20.8654,1.69078 -2.30826,-0.55485 -3.77158,1.97547 -4.28607,4.30332 -1.60947,7.28371 -1.62166,13.58249 0,20.8662 0.51891,2.32718 1.93115,4.60197 4.28607,4.30346 15.90907,-2.01873 28.90498,-1.54259 42.84216,0 2.35947,0.26073 4.83677,-1.9838 4.28592,-4.30346 -1.10465,-4.6556 1.94396,-8.95244 0,-20.8662 -0.38516,-2.35326 -1.91416,-4.39857 -4.28592,-4.30332 -7.39661,-0.95119 -14.77864,-1.60225 -21.97676,-1.69078 z m 242.28159,0 c -7.19813,0.0942 -14.58269,0.73892 -21.97941,1.69078 -2.3715,-0.0942 -3.89944,1.95006 -4.28337,4.30332 -1.94357,11.91376 1.10463,17.19715 0,21.85285 -0.551,2.31927 1.91776,4.49666 4.28337,4.30304 14.09044,-1.15269 27.07376,-2.87868 42.84496,0 2.33528,0.42588 3.76544,-1.97586 4.28337,-4.30304 1.62166,-7.28371 1.60965,-14.56914 0,-21.85285 -0.51487,-2.32785 -1.97512,-4.85898 -4.28337,-4.30332 -6.65464,-1.30452 -13.66728,-1.77931 -20.86555,-1.69078 z m -0.2341,32.3049 c -7.198,0.0942 -14.58242,0.74294 -21.97914,1.69319 -2.37167,-0.0942 -3.44194,2.07368 -4.2834,4.30318 -4.16116,11.02277 0.38382,15.44124 0,20.38688 -0.18464,2.37716 1.9172,4.11575 4.2834,4.30318 14.31401,1.13389 27.46307,2.92246 42.84467,0 2.3322,-0.44471 3.76531,-1.976 4.28366,-4.30318 1.62153,-7.28357 1.60948,-13.10302 0,-20.38688 -0.51489,-2.32771 -1.97526,-4.85884 -4.28366,-4.30318 -6.65438,-1.30452 -13.66741,-1.78171 -20.86553,-1.69319 z m -241.37905,0.5495 c -7.19746,-0.0942 -14.35333,0.20547 -21.30044,1.14331 -2.30812,-0.55622 -3.77157,1.97533 -4.28606,4.30304 -1.60948,7.28371 -1.62167,14.56914 0,21.85285 0.51758,2.32694 1.9207,4.10434 4.28606,4.30304 15.38269,1.29381 28.52868,0.88 42.84216,0 2.36923,-0.14522 4.47033,-1.92602 4.28605,-4.30304 -0.38382,-4.94589 4.16089,-10.83023 0,-21.85299 -0.8412,-2.2295 -1.91441,-4.39845 -4.28605,-4.30304 -7.10692,-0.58713 -14.34425,-1.05599 -21.54172,-1.14331 z m 263.10235,32.20991 c -0.28217,-0.0278 -0.56971,4.2e-4 -0.85856,0.0805 -15.19494,3.6583 -28.31097,0.58443 -42.84482,0 -2.37166,-0.0941 -4.42503,1.92535 -4.28341,4.30547 0.65398,11.02288 1.1956,16.90467 0,21.85031 -0.55901,2.3171 1.9108,4.23869 4.28341,4.30344 12.7077,0.34662 26.62948,1.9529 42.84482,0 2.35651,-0.28481 3.86612,-1.95597 4.28351,-4.30344 1.29455,-7.28357 -0.85055,-14.56648 0,-21.85031 0.24074,-2.07219 -1.45223,-4.23841 -3.42576,-4.37533 z m -285.2631,1.31663 c -1.97351,0.13577 -3.6674,2.30338 -3.42575,4.37559 0.85056,7.28357 -1.29455,13.25023 0,20.53394 0.41728,2.34749 1.91481,4.19692 4.28606,4.30318 16.21533,0.72818 30.13456,-2.1372 42.84216,0 2.34101,0.395 4.84615,-1.98593 4.28605,-4.30318 -1.1956,-4.9455 -0.65397,-9.51118 0,-20.53394 0.14041,-2.38024 -1.91441,-4.40114 -4.28605,-4.30573 -14.53388,0.58439 -27.64708,3.65858 -42.84216,0 -0.28751,-0.0805 -0.57772,-0.0942 -0.85989,-0.0805 z m 32.83345,30.37415 c -10.64688,0.0278 -20.79478,1.67923 -31.97314,0.68653 -2.36442,-0.20964 -3.94006,1.94684 -4.28606,4.30561 -1.06852,7.28397 -3.10586,14.56673 0,21.8503 0.93347,2.19216 1.91334,3.60444 4.28606,3.53658 16.21533,-0.46215 33.82189,-1.91377 43.93357,0.21908 2.32296,0.49037 4.23871,-1.92171 4.28591,-4.3056 0.10698,-4.94578 1.17153,-10.2782 -1.09127,-21.30096 -0.48011,-2.33524 -1.93501,-3.97817 -4.28605,-4.3056 -3.71597,-0.51723 -7.31997,-0.69324 -10.86902,-0.68785 z m 208.72721,0.68653 c -2.36953,-0.14105 -3.80408,1.97036 -4.2834,4.30561 -2.2629,11.02288 -0.10699,16.9048 0,21.8503 0.0537,2.38416 1.91561,4.47112 4.2834,4.30332 12.70771,-0.90013 26.62934,-0.46217 42.84467,0 2.37258,0.0672 3.34898,-2.11116 4.28366,-4.30332 3.10572,-7.28357 1.06854,-14.56633 0,-21.8503 -0.34638,-2.35877 -1.927,-4.58948 -4.28366,-4.30561 -14.90433,1.79476 -27.98061,0.89208 -42.84467,0 z m -208.72721,30.76649 c -10.64688,0.0278 -20.79478,1.67948 -31.97314,0.68653 -2.36442,-0.20964 -3.94006,1.94428 -4.28606,4.30329 -1.06852,7.2837 -3.10586,13.25309 0,20.5368 0.93347,2.19188 1.94132,3.93278 4.28606,4.30304 16.21533,2.56134 30.13456,0.3184 42.84216,0 2.37285,-0.0672 4.23871,-1.91919 4.28605,-4.30304 0.10699,-4.94564 2.2628,-9.51405 0,-20.5368 -0.48011,-2.33524 -1.93501,-3.97576 -4.28605,-4.30329 -3.71597,-0.51726 -7.31997,-0.69325 -10.86902,-0.68653 z m 208.72721,0.68653 c -2.36577,-0.19214 -3.80407,1.96805 -4.28339,4.30329 -2.2629,11.02275 -0.10699,16.90723 0,21.85287 0.0537,2.38389 1.91054,4.24393 4.2834,4.30318 12.70771,0.3184 26.62934,2.56148 42.84467,0 2.34492,-0.37079 3.34898,-2.11102 4.28366,-4.30318 3.10572,-7.28371 1.06854,-14.56917 0,-21.85287 -0.34638,-2.35901 -1.92551,-4.57523 -4.28366,-4.30329 -7.40985,0.85578 -13.97699,0.38825 -20.94002,0.32781 -7.06881,-0.0672 -14.53336,0.27405 -21.90465,-0.32781 z m -241.54313,31.42086 c -1.87657,0.20298 -3.14048,2.27143 -3.44328,4.33556 -1.06852,7.28399 -3.10586,14.56903 0,21.85302 0.93347,2.19187 1.97285,3.76873 4.28606,4.30304 12.42209,2.87021 27.2368,0.25934 42.84216,0 2.37337,-0.0403 4.23871,-1.91919 4.28605,-4.30304 0.10699,-4.94578 2.2628,-10.83012 0,-21.85302 -0.48011,-2.33524 -1.9278,-4.57387 -4.28605,-4.30304 -13.65671,1.56838 -27.45665,2.7727 -42.84216,0 -0.29154,-0.0672 -0.57504,-0.0672 -0.84251,-0.0403 z m 285.22806,0.87731 c -0.26866,-0.0278 -0.54831,-0.0278 -0.83985,0.0403 -15.38525,2.77284 -29.18783,1.56827 -42.84454,0 -2.35843,-0.26988 -3.80422,1.97036 -4.28366,4.30549 -2.26279,11.02287 -0.10699,16.90479 0,21.85056 0.0533,2.38389 1.93379,4.63905 4.28366,4.30305 14.28125,-2.0425 28.5633,-0.36274 42.84454,0 2.37299,0.0672 3.34912,-2.11128 4.28365,-4.30305 3.10571,-7.28398 1.06854,-14.56674 0,-21.85056 -0.30224,-2.06402 -1.5667,-4.135 -3.44326,-4.338 z m -310.71774,30.22681 c -3.45129,-0.0278 -6.17787,3.37186 -6.17787,6.96045 l 0,6.04408 c 0,3.82798 3.08059,6.57674 6.87666,6.91047 22.00428,1.93259 43.60052,3.53685 64.92585,3.88859 63.15776,1.23331 140.11253,0.95789 212.29202,-0.27946 22.57227,-0.47692 36.09444,-3.12869 59.02923,-3.60871 3.8093,-0.0805 6.87625,-3.08263 6.87625,-6.91065 l 0,-6.0439 c 0,-3.82788 -3.07429,-7.16307 -6.87625,-6.91051 -14.37379,0.95522 -28.78557,2.7629 -43.25765,2.38511 -57.18062,-1.49194 -117.39356,4.59375 -178.58609,-0.39501 -37.45265,-3.05291 -75.21019,3.41744 -114.40337,-1.99048 -0.2366,-0.0403 -0.46944,-0.0539 -0.69946,-0.0539 z"
       id="path9065"
       inkscape:connector-curvature="0" />
    <text
       transform="scale(0.99771264,1.0022926)"
       sodipodi:linespacing="125%"
       id="text9067"
       y="860.12891"
       x="-515.6969"
       style="font-style:normal;font-weight:normal;font-size:163.95631409px;line-height:125%;font-family:sans-serif;letter-spacing:0px;word-spacing:0px;fill:#42290d;fill-opacity:1;stroke:none;stroke-width:1px;stroke-linecap:butt;stroke-linejoin:miter;stroke-opacity:1"
       xml:space="preserve"><tspan
         style="font-style:normal;font-variant:normal;font-weight:normal;font-stretch:normal;font-family:'Archivo Black';-inkscape-font-specification:'Archivo Black, ';fill:#42290d;fill-opacity:1"
         y="860.12891"
         x="-515.6969"
         id="tspan9069"
         sodipodi:role="line">D</tspan></text>
  </g>
</svg>
