<?xml version="1.0" encoding="UTF-8" standalone="no"?>
<svg
   xmlns:dc="http://purl.org/dc/elements/1.1/"
   xmlns:cc="http://creativecommons.org/ns#"
   xmlns:rdf="http://www.w3.org/1999/02/22-rdf-syntax-ns#"
   xmlns:svg="http://www.w3.org/2000/svg"
   xmlns="http://www.w3.org/2000/svg"
   xmlns:sodipodi="http://sodipodi.sourceforge.net/DTD/sodipodi-0.dtd"
   xmlns:inkscape="http://www.inkscape.org/namespaces/inkscape"
   sodipodi:docname="guard-dog-subdued.svg"
   inkscape:version="1.0 (4035a4fb49, 2020-05-01)"
   id="svg364"
   version="1.1"
   viewBox="0 0 19.05 19.050001"
   height="0.75in"
   width="0.75in">
  <defs
     id="defs358" />
  <sodipodi:namedview
     units="in"
     showgrid="false"
     inkscape:document-rotation="0"
     inkscape:current-layer="layer1"
     inkscape:document-units="mm"
     inkscape:cy="36.90547"
     inkscape:cx="25.913057"
     inkscape:zoom="5.6"
     inkscape:pageshadow="2"
     inkscape:pageopacity="0.0"
     borderopacity="1.0"
     bordercolor="#666666"
     pagecolor="#ffffff"
     id="base" />
  <metadata
     id="metadata361">
    <rdf:RDF>
      <cc:Work
         rdf:about="">
        <dc:format>image/svg+xml</dc:format>
        <dc:type
           rdf:resource="http://purl.org/dc/dcmitype/StillImage" />
        <dc:title></dc:title>
      </cc:Work>
    </rdf:RDF>
  </metadata>
  <g
     id="layer1"
     inkscape:groupmode="layer"
     inkscape:label="Layer 1">
    <path
       id="path4714"
       d="m 3.0692192,3.9590945 0.15606,0.8381899 -0.74517,0.41082 0.84491,0.11111 0.16278,0.83664 0.36484,-0.76895 0.84594,0.10543 -0.61908,-0.58601 0.3607,-0.7710199 -0.74828,0.40566 z m 3.88762,0.0775 -0.44752,0.52813 -0.64182,-0.2583801 0.3638,0.5886 -0.44338,0.53123 0.67179,-0.16485 0.36742,0.58653 0.0517,-0.68988 0.67076,-0.16847 -0.63924,-0.26303 z m 4.3971498,0.5694699 -1.14825,0.11834 z m -0.0238,0.004 c -0.28082,0.0785 0.120659,1.54394 -0.44855,2.06086 -0.64762,-0.39726 -0.59503,-2.3328599 -0.68213,-1.88309 -0.14341,0.74044 -0.4123703,1.4166 -0.8319902,2.0236499 l -0.0439,0.0641 -0.0724,0.0289 c -0.767221,0.3041999 -1.5006406,0.4165801 -1.9874706,1.0066502 -0.23073,0.2881299 -0.33486,0.7641799 -0.47491,1.2417898 -0.0702,0.2391299 -0.15178,0.4790601 -0.28835,0.6945301 -0.1329,0.2096596 -0.3279,0.3949796 -0.591179,0.4966096 l -1.635041,0.8971 0.004,0.004 c 0.12791,0.13045 0.22291,0.28802 0.28422,0.45061 0.14021,0.371701 0.1521,0.780521 0.1266,1.112081 -0.0269,0.35024 -0.27581,0.61123 -0.55965,0.71004 -0.0467,0.016 -0.0951,0.0292 -0.14366,0.0382 0.48554,0.46308 1.045621,0.8876 1.51412,1.09295 1.96836,-0.52507 3.4307196,-0.78374 4.6586298,-0.63717 0.12727,0.0152 0.25164,0.0354 0.37362,0.06 0.12197,0.0245 0.24181,0.0534 0.35915,0.0873 0.0595,-0.005 0.11888,-0.01 0.17828,-0.0155 0.43593,-0.0428 0.95417,-0.13886 1.197861,-0.266141 0.13192,-0.0688 0.37489,-0.303449 0.55552,-0.515209 0.18055,-0.21179 0.312649,-0.39739 0.312649,-0.39739 l 0.420641,0.297139 c 0,0 -0.144031,0.203491 -0.34106,0.434601 -0.19705,0.231129 -0.43361,0.49307 -0.70952,0.63717 -0.197231,0.103 -0.432681,0.173019 -0.677481,0.22272 0.26039,0.148769 0.51059,0.32679 0.75448,0.53434 l 1.31206,-1.31207 c 0.69517,-2.023852 1.09517,-4.3100226 0.159681,-6.7360223 h -5.3e-4 c -0.25009,0.0648 -0.50924,0.1484201 -0.77824,0.2521802 l -0.21187,0.0822 -0.10801,-0.2005099 c -0.412031,-0.76786 -0.65403,-1.9319101 -1.458301,-2.50889 -0.0728,-0.0522 -0.1268,-0.0691 -0.16691,-0.0579 z m 3.05149,1.8536299 -0.016,0.00201 c 1.02695,2.3363 0.84998,4.5657897 0.30179,6.5401707 l 1.89291,-1.892911 c 0.0337,-0.87043 -0.0267,-1.7246195 -0.10955,-2.5801997 z m -9.4619498,0.62787 -0.19276,0.83044 -0.84801,0.0775 0.72967,0.4408001 -0.18603,0.8314701 0.64234,-0.5581 0.73328,0.4356299 -0.33227,-0.78496 0.63923,-0.56173 -0.84801,0.0718 z m 3.9356696,1.6092101 c 0.0542,0.26034 0.12914,0.5053899 0.22014,0.7394898 0.24424,-0.0982 0.43245,-0.2423298 0.51315,-0.3865398 l 0.4490702,0.25166 c -0.1568603,0.28022 -0.4273602,0.47937 -0.7467302,0.6072 0.1019,0.2025296 0.21069,0.4003696 0.3297,0.5906596 l -0.6444,0.25477 c -0.16533,-0.21654 -0.30538,-0.44439 -0.42168,-0.68317 -0.414,0.0255 -0.8498596,-0.0519 -1.2304196,-0.2764596 l 0.26148,-0.4433901 c 0.22621,0.1335501 0.4959896,0.1992601 0.7653296,0.2082601 -0.0308,-0.0978 -0.0581,-0.1970301 -0.0816,-0.2981801 -0.0235,-0.1011399 -0.0434,-0.20448 -0.0584,-0.30954 z m -2.9331496,1.6345196 -0.0357,0.016 c 0.008,-0.002 0.0142,-0.006 0.0222,-0.008 z m -2.0376,1.17978 c -0.28711,0.0344 -0.87067,0.12738 -0.95447,0.472321 -0.10405,0.42824 0.55414,0.93368 0.78393,1.06505 -0.0437,-0.0604 -0.0873,-0.11996 -0.12867,-0.17932 -0.2894,-0.41547 -0.46159,-0.81669 0.29921,-1.358051 z"
       style="display:inline;fill:#000000;fill-opacity:1;stroke:none;stroke-width:0.176389;stroke-miterlimit:4;stroke-dasharray:none;stroke-opacity:1"
       inkscape:connector-curvature="0" />
  </g>
</svg>
