<?xml version="1.0" encoding="UTF-8" standalone="no"?>
<!-- Created with Inkscape (http://www.inkscape.org/) -->

<svg
   xmlns:dc="http://purl.org/dc/elements/1.1/"
   xmlns:cc="http://creativecommons.org/ns#"
   xmlns:rdf="http://www.w3.org/1999/02/22-rdf-syntax-ns#"
   xmlns:svg="http://www.w3.org/2000/svg"
   xmlns="http://www.w3.org/2000/svg"
   xmlns:sodipodi="http://sodipodi.sourceforge.net/DTD/sodipodi-0.dtd"
   xmlns:inkscape="http://www.inkscape.org/namespaces/inkscape"
   width="210mm"
   height="297mm"
   viewBox="0 0 210 297"
   version="1.1"
   id="svg1244"
   inkscape:version="0.92.4 (5da689c313, 2019-01-14)"
   sodipodi:docname="guard-dog-triple.svg">
  <defs
     id="defs1238" />
  <sodipodi:namedview
     id="base"
     pagecolor="#ffffff"
     bordercolor="#666666"
     borderopacity="1.0"
     inkscape:pageopacity="0.0"
     inkscape:pageshadow="2"
     inkscape:zoom="5.6"
     inkscape:cx="549.46979"
     inkscape:cy="534.23663"
     inkscape:document-units="mm"
     inkscape:current-layer="layer1"
     showgrid="false" />
  <metadata
     id="metadata1241">
    <rdf:RDF>
      <cc:Work
         rdf:about="">
        <dc:format>image/svg+xml</dc:format>
        <dc:type
           rdf:resource="http://purl.org/dc/dcmitype/StillImage" />
        <dc:title></dc:title>
      </cc:Work>
    </rdf:RDF>
  </metadata>
  <g
     inkscape:label="Layer 1"
     inkscape:groupmode="layer"
     id="layer1">
    <g
       id="g865">
      <path
         inkscape:connector-curvature="0"
         id="path5457-4"
         d="m 105.91869,150.85637 15.78682,9.11623 15.78683,-9.11623 0,-18.23247 -15.78683,-9.11623 -15.78682,9.11623 z"
         style="display:inline;opacity:1;fill:none;fill-opacity:1;stroke:none;stroke-width:0.17638889;stroke-linecap:round;stroke-linejoin:round;stroke-miterlimit:4;stroke-dasharray:none;stroke-opacity:1" />
      <path
         inkscape:connector-curvature="0"
         id="path5461-9"
         d="m 107.18869,150.12354 14.51683,8.38341 14.51682,-8.38341 v -16.76682 l -14.51682,-8.3834 -14.51683,8.3834 z"
         style="display:inline;opacity:1;fill:#000000;fill-opacity:1;stroke:none;stroke-width:0.17638889;stroke-linecap:round;stroke-linejoin:round;stroke-miterlimit:4;stroke-dasharray:none;stroke-opacity:1" />
      <path
         id="path6344-7"
         style="display:inline;fill:#ffffff;stroke:none;stroke-width:0.13320343;stroke-miterlimit:4;stroke-dasharray:none;stroke-opacity:1"
         d="m 125.66931,133.9995 c 0.0625,0.64611 0.10815,1.29094 0.0827,1.94826 l -1.42972,1.42971 c 0.41398,-1.49099 0.54791,-3.17496 -0.22761,-4.93926 l 0.012,-0.002 z m -1.81046,-1.12564 c 0.70669,1.83223 0.40473,3.55883 -0.12029,5.08732 l -0.99065,0.99065 c -0.18417,-0.15674 -0.37339,-0.29106 -0.57,-0.40341 0.18484,-0.0375 0.36286,-0.0902 0.51181,-0.16803 0.20836,-0.10883 0.38693,-0.30684 0.53573,-0.48137 0.14879,-0.17452 0.25737,-0.32808 0.25737,-0.32808 l -0.31751,-0.22459 c 0,0 -0.0998,0.14043 -0.23609,0.30038 -0.13641,0.15991 -0.31991,0.3369 -0.41954,0.3889 -0.18401,0.0961 -0.57528,0.16878 -0.90449,0.20111 -0.0449,0.005 -0.0898,0.008 -0.13476,0.0116 -0.17721,-0.0512 -0.36094,-0.0881 -0.55315,-0.11112 -0.92729,-0.11068 -2.03164,0.0846 -3.51808,0.48108 -0.3538,-0.15507 -0.77686,-0.47588 -1.14351,-0.82559 0.0367,-0.007 0.073,-0.0165 0.10831,-0.0286 0.21434,-0.0746 0.4027,-0.27177 0.42298,-0.53624 0.0193,-0.25039 0.01,-0.55931 -0.0958,-0.83999 -0.0463,-0.12278 -0.11786,-0.24152 -0.21444,-0.34004 l -0.003,-0.003 1.23499,-0.67758 c 0.19882,-0.0768 0.34589,-0.21669 0.44626,-0.37502 0.10313,-0.16273 0.16476,-0.34385 0.21777,-0.52442 0.10576,-0.36068 0.18437,-0.72026 0.35861,-0.93784 0.36764,-0.4456 0.92143,-0.53063 1.50081,-0.76036 l 0.0549,-0.0217 0.0331,-0.0485 c 0.50938,-0.73689 0.63223,-1.65424 0.74484,-2.59027 0.83266,0.68145 1.46358,1.93286 1.96455,2.86643 l 0.0816,0.15136 0.15997,-0.0621 c 0.20326,-0.0784 0.39924,-0.14161 0.58822,-0.19054 z m -6.15067,2.49291 c -0.006,0.002 -0.011,0.005 -0.017,0.006 l 0.0273,-0.0123 z m 2.73146,-5.16599 c 0.0675,0.0673 0.13271,0.13698 0.19415,0.20996 -0.1044,0.76914 -0.24512,1.46931 -0.60422,2.01687 -0.039,0.0146 -0.0787,0.0288 -0.11892,0.0427 0.12985,-0.88984 0.18864,-1.82745 -0.13475,-2.81174 0.26223,0.17903 0.48125,0.36033 0.66377,0.54213 z m -4.26016,6.05071 c -0.65661,0.46723 -0.39294,0.79605 -0.12865,1.16091 -0.17353,-0.0992 -0.67067,-0.48082 -0.59209,-0.80422 0.0633,-0.26049 0.50392,-0.33072 0.72074,-0.35669 z m 3.63253,-2.2042 c -0.29697,0.1182 -0.53986,0.32797 -0.78227,0.54329 0.1922,0.23611 0.3835,0.25027 0.62067,0.20716 0.27233,-0.20329 0.41931,-0.50424 0.42493,-0.82605 -0.0928,0.0169 -0.18025,0.0425 -0.26337,0.0756 z"
         inkscape:connector-curvature="0" />
      <path
         inkscape:connector-curvature="0"
         d="m 120.70272,144.48657 c 0.0625,0.64611 0.10815,1.29093 0.0827,1.94826 l -1.42972,1.42971 c 0.41398,-1.49099 0.54791,-3.17496 -0.22761,-4.93926 l 0.012,-0.002 z m -1.81046,-1.12564 c 0.70669,1.83223 0.40473,3.55883 -0.12029,5.08732 l -0.99065,0.99065 c -0.18417,-0.15674 -0.37339,-0.29106 -0.57,-0.40342 0.18484,-0.0375 0.36286,-0.0902 0.51181,-0.16802 0.20836,-0.10884 0.38693,-0.30684 0.53573,-0.48138 0.14879,-0.17451 0.25737,-0.32807 0.25737,-0.32807 l -0.31751,-0.2246 c 0,0 -0.0998,0.14044 -0.23609,0.30039 -0.13641,0.15991 -0.31991,0.3369 -0.41954,0.3889 -0.18401,0.0961 -0.57528,0.16878 -0.90449,0.20111 -0.0449,0.005 -0.0898,0.008 -0.13476,0.0116 -0.17721,-0.0512 -0.36094,-0.0882 -0.55315,-0.11111 -0.92729,-0.11068 -2.03164,0.0845 -3.51808,0.48107 -0.3538,-0.15508 -0.77686,-0.47588 -1.14351,-0.82559 0.0367,-0.007 0.073,-0.0165 0.10831,-0.0286 0.21434,-0.0746 0.4027,-0.27177 0.42298,-0.53624 0.0193,-0.25039 0.01,-0.55931 -0.0958,-0.84 -0.0463,-0.12278 -0.11786,-0.24152 -0.21444,-0.34004 l -0.003,-0.003 1.23499,-0.67757 c 0.19882,-0.0768 0.34589,-0.2167 0.44626,-0.37503 0.10313,-0.16272 0.16476,-0.34384 0.21777,-0.52442 0.10576,-0.36068 0.18437,-0.72025 0.35861,-0.93784 0.36764,-0.4456 0.92143,-0.53062 1.50081,-0.76035 l 0.0549,-0.0217 0.0331,-0.0485 c 0.50938,-0.73689 0.63223,-1.65424 0.74484,-2.59027 0.83266,0.68145 1.46358,1.93286 1.96455,2.86643 l 0.0816,0.15136 0.15997,-0.0621 c 0.20326,-0.0784 0.39924,-0.14161 0.58822,-0.19054 z m -6.15067,2.49291 c -0.006,0.002 -0.011,0.005 -0.017,0.006 l 0.0273,-0.0123 z m 2.73146,-5.16599 c 0.0675,0.0673 0.13271,0.13698 0.19415,0.20996 -0.1044,0.76914 -0.24512,1.46931 -0.60422,2.01687 -0.039,0.0146 -0.0787,0.0289 -0.11892,0.0427 0.12985,-0.88983 0.18864,-1.82744 -0.13475,-2.81173 0.26223,0.17903 0.48125,0.36033 0.66377,0.54213 z m -4.26016,6.05071 c -0.65661,0.46723 -0.39294,0.79605 -0.12865,1.16091 -0.17353,-0.0992 -0.67067,-0.48082 -0.59209,-0.80422 0.0633,-0.26049 0.50392,-0.33072 0.72074,-0.35669 z m 3.63253,-2.2042 c -0.29697,0.1182 -0.53986,0.32797 -0.78227,0.54329 0.1922,0.23611 0.3835,0.25027 0.62067,0.20716 0.27233,-0.20329 0.41931,-0.50424 0.42493,-0.82605 -0.0928,0.0169 -0.18025,0.0425 -0.26337,0.0756 z"
         style="display:inline;fill:#ffffff;stroke:none;stroke-width:0.13320343;stroke-miterlimit:4;stroke-dasharray:none;stroke-opacity:1"
         id="path6346-5" />
      <path
         id="path6348-8"
         style="display:inline;fill:#ffffff;stroke:none;stroke-width:0.13320343;stroke-miterlimit:4;stroke-dasharray:none;stroke-opacity:1"
         d="m 133.70994,141.78901 c 0.0625,0.64611 0.10814,1.29093 0.0827,1.94825 l -1.42972,1.42972 c 0.41398,-1.49099 0.54791,-3.17497 -0.22761,-4.93927 l 0.012,-0.002 z m -1.81046,-1.12564 c 0.70669,1.83222 0.40472,3.55882 -0.12029,5.08732 l -0.99065,0.99064 c -0.18418,-0.15673 -0.37339,-0.29106 -0.57001,-0.40341 0.18485,-0.0375 0.36287,-0.0902 0.51182,-0.16802 0.20836,-0.10884 0.38693,-0.30684 0.53573,-0.48138 0.14878,-0.17452 0.25737,-0.32808 0.25737,-0.32808 l -0.31751,-0.22459 c 0,0 -0.0998,0.14044 -0.2361,0.30038 -0.1364,0.15992 -0.3199,0.33691 -0.41953,0.3889 -0.18401,0.0961 -0.57528,0.16879 -0.90449,0.20112 -0.0449,0.005 -0.0898,0.008 -0.13476,0.0116 -0.17721,-0.0512 -0.36094,-0.0882 -0.55315,-0.11112 -0.92729,-0.11068 -2.03164,0.0846 -3.51808,0.48107 -0.3538,-0.15507 -0.77686,-0.47587 -1.14351,-0.82558 0.0367,-0.007 0.073,-0.0165 0.1083,-0.0286 0.21435,-0.0746 0.4027,-0.27177 0.42299,-0.53623 0.0193,-0.25039 0.01,-0.55931 -0.0958,-0.84 -0.0463,-0.12278 -0.11786,-0.24153 -0.21444,-0.34005 l -0.003,-0.003 1.23499,-0.67756 c 0.19882,-0.0768 0.34589,-0.21671 0.44626,-0.37504 0.10312,-0.16271 0.16476,-0.34383 0.21777,-0.52442 0.10576,-0.36067 0.18437,-0.72025 0.35861,-0.93783 0.36764,-0.4456 0.92143,-0.53062 1.50081,-0.76035 l 0.0549,-0.0217 0.0331,-0.0485 c 0.50938,-0.7369 0.63223,-1.65425 0.74484,-2.59028 0.83266,0.68145 1.46358,1.93288 1.96455,2.86644 l 0.0816,0.15135 0.15997,-0.0621 c 0.20326,-0.0784 0.39924,-0.14161 0.58822,-0.19055 z m -6.15067,2.4929 c -0.006,0.002 -0.011,0.005 -0.017,0.006 l 0.0273,-0.0123 z m 2.73146,-5.16599 c 0.0675,0.0673 0.13271,0.13698 0.19415,0.20996 -0.1044,0.76914 -0.24512,1.46931 -0.60422,2.01688 -0.039,0.0147 -0.0787,0.0288 -0.11892,0.0427 0.12985,-0.88983 0.18864,-1.82744 -0.13475,-2.81174 0.26223,0.17904 0.48125,0.36033 0.66377,0.54213 z m -4.26016,6.05071 c -0.65661,0.46723 -0.39294,0.79605 -0.12866,1.16091 -0.17353,-0.0992 -0.67066,-0.48082 -0.59208,-0.80421 0.0633,-0.2605 0.50392,-0.33073 0.72074,-0.3567 z m 3.63252,-2.20419 c -0.29697,0.1182 -0.53985,0.32797 -0.78226,0.54329 0.1922,0.2361 0.3835,0.25027 0.62067,0.20716 0.27233,-0.2033 0.41931,-0.50425 0.42493,-0.82605 -0.0928,0.0169 -0.18025,0.0425 -0.26337,0.0756 z"
         inkscape:connector-curvature="0" />
    </g>
  </g>
</svg>
