<?xml version="1.0" encoding="UTF-8" standalone="no"?>
<!-- Created with Inkscape (http://www.inkscape.org/) -->

<svg
   xmlns:dc="http://purl.org/dc/elements/1.1/"
   xmlns:cc="http://creativecommons.org/ns#"
   xmlns:rdf="http://www.w3.org/1999/02/22-rdf-syntax-ns#"
   xmlns:svg="http://www.w3.org/2000/svg"
   xmlns="http://www.w3.org/2000/svg"
   xmlns:sodipodi="http://sodipodi.sourceforge.net/DTD/sodipodi-0.dtd"
   xmlns:inkscape="http://www.inkscape.org/namespaces/inkscape"
   width="0.75in"
   height="0.75in"
   viewBox="0 0 67.500001 67.500002"
   id="svg2"
   version="1.1"
   inkscape:version="0.91 r13725"
   sodipodi:docname="guard-suspicious.svg">
  <defs
     id="defs4" />
  <sodipodi:namedview
     id="base"
     pagecolor="#ffffff"
     bordercolor="#666666"
     borderopacity="1.0"
     inkscape:pageopacity="0.0"
     inkscape:pageshadow="2"
     inkscape:zoom="3.959798"
     inkscape:cx="36.653377"
     inkscape:cy="10.151086"
     inkscape:document-units="px"
     inkscape:current-layer="layer1"
     showgrid="false"
     units="in"
     inkscape:window-width="1280"
     inkscape:window-height="961"
     inkscape:window-x="1912"
     inkscape:window-y="-8"
     inkscape:window-maximized="1" />
  <metadata
     id="metadata7">
    <rdf:RDF>
      <cc:Work
         rdf:about="">
        <dc:format>image/svg+xml</dc:format>
        <dc:type
           rdf:resource="http://purl.org/dc/dcmitype/StillImage" />
        <dc:title />
      </cc:Work>
    </rdf:RDF>
  </metadata>
  <g
     inkscape:label="Layer 1"
     inkscape:groupmode="layer"
     id="layer1"
     transform="translate(0,-984.86215)">
    <g
       id="g4206"
       transform="translate(0.64414,1.297495)">
      <path
         id="path3353"
         d="m 26.266446,999.93221 c 1.579929,0 2.628401,0.78859 4.03484,1.56989 1.332934,0.7405 3.008637,1.3756 5.37176,0.893 1.12145,1.121 2.260805,2.2422 3.475846,3.0016 0.994302,0.6215 2.111614,0.9916 3.226066,0.8167 -0.319748,2.5158 -1.847464,4.9767 -3.444548,6.2649 -4.211641,-1.3958 -8.433815,-2.0939 -12.65599,-2.0939 -4.226086,0 -8.452097,0.6995 -12.667576,2.0977 -1.598739,-1.2871 -3.129013,-3.7504 -3.448987,-6.2687 1.114227,0.175 2.231764,-0.1952 3.226066,-0.8166 1.215041,-0.7594 2.354246,-1.8805 3.475846,-3.0015 2.362898,0.4825 4.038827,-0.1527 5.371761,-0.8931 1.406589,-0.7816 2.454986,-1.56999 4.034916,-1.56999 z m 0.0079,1.46999 c -1.490777,0 -4.000232,2.0147 -4.000232,2.0147 0,0 1.596481,6.044 4.000232,6.044 2.4039,0 4.000382,-6.044 4.000382,-6.044 0,0 -2.509605,-2.0147 -4.000382,-2.0147 z m 0,10.3312 c 3.971642,0 7.943586,0.6494 11.925009,1.9362 0.164012,1.0134 -0.113605,1.7665 -0.710818,2.4629 -0.66658,0.7773 -1.785472,1.4372 -3.111709,1.9342 -2.652777,0.9945 -6.092737,1.3464 -8.102557,1.3464 -2.009746,0 -5.449554,-0.3519 -8.102256,-1.3463 -1.32639,-0.497 -2.44513,-1.1568 -3.11171,-1.9343 -0.597364,-0.6964 -0.875131,-1.4493 -0.710969,-2.4628 3.981424,-1.2869 7.953291,-1.9363 11.924935,-1.9363 z m 13.03269,4.2995 c 0.738805,0.1792 2.026222,0.5849 2.257494,1.2785 0.632123,1.8957 -1.272972,4.7996 -2.713718,6.632 0.396939,-1.6556 0.610907,-3.4165 0.610907,-5.2424 0,-0.9072 -0.05312,-1.7981 -0.154683,-2.6681 z m -26.06508,0 a 23.012806,23.012806 0 0 0 -0.154683,2.668 c 0,1.8259 0.213893,3.5869 0.610906,5.2424 -1.440745,-1.8324 -3.345915,-4.7363 -2.713717,-6.632 0.231197,-0.6936 1.518689,-1.0993 2.257419,-1.2785 z m 24.829726,1.4423 c 0.02295,0.4046 0.03573,0.813 0.03573,1.2256 0,4.467 -1.364007,8.4983 -3.528736,11.3835 -2.164654,2.8849 -5.093618,4.6128 -8.304412,4.6128 -3.210567,0 -6.139607,-1.7279 -8.304186,-4.6128 -2.164655,-2.8852 -3.528511,-6.9164 -3.528511,-11.3834 0,-0.4128 0.01279,-0.8212 0.03566,-1.2258 0.616924,0.5761 1.370475,1.0434 2.199488,1.4317 -0.321253,1.3694 0.02001,3.0725 0.910189,3.9623 1.638162,1.6375 5.31195,1.6375 6.950187,0 0.507383,-0.5073 0.725037,-1.3156 0.696298,-2.1267 0.371208,0.016 0.722253,0.025 1.041023,0.025 0.318845,0 0.669965,-0.01 1.041249,-0.025 -0.02881,0.811 0.188839,1.6194 0.696373,2.1267 1.638237,1.6375 5.311874,1.6375 6.950036,0 0.890177,-0.8898 1.231441,-2.5927 0.910189,-3.962 0.829088,-0.3883 1.582789,-0.8559 2.199564,-1.4319 z m -11.797336,8.8676 c -1.737471,2.7789 -5.212415,3.1262 -6.949886,3.1262 1.737396,1.3895 6.949811,1.3895 6.949811,0 0,1.3895 5.212639,1.3895 6.950186,0 -1.737547,0 -5.21264,-0.3473 -6.950186,-3.1262 z"
         style="fill:#000000"
         inkscape:connector-curvature="0" />
      <path
         inkscape:connector-curvature="0"
         style="fill:#000000"
         d="m 44.990781,1002.7903 0,9.1929 1.22594,0 0,-9.1929 z m 3.269222,6.5103 0,2.6826 1.22594,0 0,-2.6826 z m -4.222739,3.9086 0,6.7599 1.089729,1.0894 0,12.7158 7.49196,0 0,-12.7158 1.089767,-1.0894 0,-6.7599 z m 10.897394,0.4764 0,5.4479 1.119205,0 0,-5.4479 z m -9.330887,0.4767 6.538442,0 0,1.2259 -6.538442,0 z m 0,2.1794 6.538442,0 0,1.2256 -6.538442,0 z m 0,2.1791 6.538442,0 0,1.2256 -6.538442,0 z m 2.179454,2.7917 c 0.902779,0 1.634611,0.7317 1.634611,1.6345 0,0.9025 -0.731832,1.634 -1.634611,1.634 -0.90274,0 -1.634609,-0.7315 -1.634609,-1.634 0,-0.9028 0.731869,-1.6345 1.634609,-1.6345 z"
         id="path6846"
         sodipodi:nodetypes="cccccccccccccccccccccccccccccccccccccccsssss" />
    </g>
  </g>
</svg>
