<?xml version="1.0" encoding="UTF-8" standalone="no"?>
<!-- Created with Inkscape (http://www.inkscape.org/) -->

<svg
   xmlns:dc="http://purl.org/dc/elements/1.1/"
   xmlns:cc="http://creativecommons.org/ns#"
   xmlns:rdf="http://www.w3.org/1999/02/22-rdf-syntax-ns#"
   xmlns:svg="http://www.w3.org/2000/svg"
   xmlns="http://www.w3.org/2000/svg"
   xmlns:sodipodi="http://sodipodi.sourceforge.net/DTD/sodipodi-0.dtd"
   xmlns:inkscape="http://www.inkscape.org/namespaces/inkscape"
   width="210mm"
   height="297mm"
   viewBox="0 0 210 297"
   version="1.1"
   id="svg4565"
   inkscape:version="0.92.0 r15299"
   sodipodi:docname="guard_dog.svg">
  <defs
     id="defs4559" />
  <sodipodi:namedview
     id="base"
     pagecolor="#ffffff"
     bordercolor="#666666"
     borderopacity="1.0"
     inkscape:pageopacity="0.0"
     inkscape:pageshadow="2"
     inkscape:zoom="0.35"
     inkscape:cx="-64.285714"
     inkscape:cy="560"
     inkscape:document-units="mm"
     inkscape:current-layer="layer1"
     showgrid="false"
     inkscape:window-width="1920"
     inkscape:window-height="1017"
     inkscape:window-x="1672"
     inkscape:window-y="134"
     inkscape:window-maximized="1" />
  <metadata
     id="metadata4562">
    <rdf:RDF>
      <cc:Work
         rdf:about="">
        <dc:format>image/svg+xml</dc:format>
        <dc:type
           rdf:resource="http://purl.org/dc/dcmitype/StillImage" />
        <dc:title></dc:title>
      </cc:Work>
    </rdf:RDF>
  </metadata>
  <g
     inkscape:label="Layer 1"
     inkscape:groupmode="layer"
     id="layer1">
    <path
       inkscape:connector-curvature="0"
       d="m 49.040103,70.615136 c 0.0828,0.85558 0.14322,1.70946 0.10949,2.57989 l -1.89324,1.89324 c 0.5482,-1.97438 0.72555,-4.20431 -0.3014,-6.54061 l 0.0159,-0.002 z m -2.39741,-1.490579 c 0.9358,2.426239 0.53594,4.712619 -0.15929,6.736659 l -1.31182,1.31182 c -0.24389,-0.20755 -0.49445,-0.38542 -0.75482,-0.5342 0.24478,-0.0497 0.48051,-0.11951 0.67776,-0.22251 0.27591,-0.14411 0.51237,-0.40631 0.70941,-0.63743 0.19702,-0.23111 0.34082,-0.43444 0.34082,-0.43444 l -0.42045,-0.29741 c 0,0 -0.13209,0.18597 -0.31264,0.39777 -0.18064,0.21176 -0.42363,0.44613 -0.55556,0.51498 -0.24367,0.12728 -0.76179,0.22351 -1.19772,0.26632 -0.0594,0.006 -0.11894,0.0108 -0.17845,0.0154 -0.23467,-0.0678 -0.47796,-0.116732 -0.7325,-0.147142 -1.22791,-0.14656 -2.690307,0.11197 -4.658657,0.63704 -0.46851,-0.20535 -1.02872,-0.63016 -1.51425,-1.09325 0.0486,-0.009 0.0967,-0.0218 0.14342,-0.0379 0.28384,-0.0988 0.53326,-0.35988 0.56013,-0.71009 0.0255,-0.33157 0.0133,-0.74064 -0.1269,-1.11233 -0.0613,-0.16259 -0.15607,-0.31983 -0.28397,-0.45029 l -0.004,-0.004 1.63538,-0.89724 c 0.26328,-0.10164 0.45803,-0.28696 0.59094,-0.49662 0.13656,-0.21547 0.21818,-0.45531 0.28837,-0.69444 0.14005,-0.47761 0.24415,-0.95376 0.47488,-1.24189 0.48683,-0.59007 1.22016,-0.70265 1.987377,-1.00686 l 0.0727,-0.0288 0.0438,-0.0642 c 0.67452,-0.975798 0.8372,-2.190558 0.98632,-3.430057 1.10262,0.902379 1.93809,2.559509 2.60147,3.795749 l 0.10809,0.20043 0.21184,-0.0822 c 0.26916,-0.10383 0.52867,-0.18752 0.77892,-0.25232 z m -8.144767,3.301119 c -0.008,0.002 -0.0146,0.006 -0.0225,0.008 l 0.0361,-0.0163 z m 3.617027,-6.840839 c 0.0894,0.0891 0.17573,0.181389 0.25709,0.278029 -0.13824,1.0185 -0.3246,1.94567 -0.80012,2.67076 -0.0516,0.0194 -0.10422,0.0382 -0.15747,0.0566 0.17194,-1.17831 0.2498,-2.4199 -0.17844,-3.72332 0.34726,0.23708 0.63727,0.47716 0.87897,0.7179 z m -5.641347,8.012389 c -0.86947,0.61871 -0.52032,1.05414 -0.17035,1.53729 -0.2298,-0.13138 -0.88811,-0.63671 -0.78405,-1.06495 0.0838,-0.34495 0.66729,-0.43795 0.9544,-0.47234 z m 4.810227,-2.91881 c -0.393257,0.15652 -0.714887,0.4343 -1.035887,0.71942 0.25451,0.31266 0.50783,0.33142 0.8219,0.27432 0.360627,-0.26919 0.555257,-0.667709 0.562697,-1.09385 -0.12285,0.0224 -0.2387,0.0563 -0.34876,0.10012 z"
       style="display:inline;fill:none;stroke:#0000ff;stroke-width:0.17638889;stroke-miterlimit:4;stroke-dasharray:none;stroke-opacity:1"
       id="path25834" />
  </g>
</svg>
