<?xml version="1.0" encoding="UTF-8" standalone="no"?>
<svg
   xmlns:dc="http://purl.org/dc/elements/1.1/"
   xmlns:cc="http://creativecommons.org/ns#"
   xmlns:rdf="http://www.w3.org/1999/02/22-rdf-syntax-ns#"
   xmlns:svg="http://www.w3.org/2000/svg"
   xmlns="http://www.w3.org/2000/svg"
   xmlns:sodipodi="http://sodipodi.sourceforge.net/DTD/sodipodi-0.dtd"
   xmlns:inkscape="http://www.inkscape.org/namespaces/inkscape"
   sodipodi:docname="guard_dog.svg"
   inkscape:version="1.0 (4035a4fb49, 2020-05-01)"
   id="svg4565"
   version="1.1"
   viewBox="0 0 19.05 19.050001"
   height="0.75in"
   width="0.75in">
  <defs
     id="defs4559" />
  <sodipodi:namedview
     units="in"
     inkscape:document-rotation="0"
     inkscape:window-maximized="1"
     inkscape:window-y="134"
     inkscape:window-x="1672"
     inkscape:window-height="1017"
     inkscape:window-width="1920"
     showgrid="false"
     inkscape:current-layer="layer1"
     inkscape:document-units="mm"
     inkscape:cy="122.63082"
     inkscape:cx="169.93871"
     inkscape:zoom="3.959798"
     inkscape:pageshadow="2"
     inkscape:pageopacity="0.0"
     borderopacity="1.0"
     bordercolor="#666666"
     pagecolor="#ffffff"
     id="base" />
  <metadata
     id="metadata4562">
    <rdf:RDF>
      <cc:Work
         rdf:about="">
        <dc:format>image/svg+xml</dc:format>
        <dc:type
           rdf:resource="http://purl.org/dc/dcmitype/StillImage" />
        <dc:title></dc:title>
      </cc:Work>
    </rdf:RDF>
  </metadata>
  <g
     id="layer1"
     inkscape:groupmode="layer"
     inkscape:label="Layer 1">
    <path
       id="path25834"
       style="display:inline;fill:#000000;fill-opacity:1;stroke:none;stroke-width:0.176389;stroke-miterlimit:4;stroke-dasharray:none;stroke-opacity:1"
       d="m 15.175775,9.1839997 c 0.06977,0.720671 0.120675,1.4399113 0.09225,2.1730903 l -1.595216,1.594712 c 0.461905,-1.663057 0.611338,-3.5413703 -0.253955,-5.5092796 l 0.0134,-0.00168 z M 13.155754,7.928457 c 0.788491,2.0436668 0.451575,3.969528 -0.134216,5.674415 l -1.105319,1.104971 c -0.205498,-0.174823 -0.416617,-0.324646 -0.636,-0.449967 0.206248,-0.04186 0.40487,-0.100665 0.57107,-0.187424 0.232478,-0.121386 0.431715,-0.342242 0.597738,-0.536919 0.166006,-0.194669 0.28717,-0.365937 0.28717,-0.365937 l -0.354265,-0.250514 c 0,0 -0.111297,0.156646 -0.263426,0.335049 -0.152204,0.178369 -0.356944,0.375784 -0.468106,0.433777 -0.205313,0.107211 -0.641873,0.188267 -1.009181,0.224327 -0.05005,0.0051 -0.100217,0.0091 -0.150359,0.01297 -0.19773,-0.05711 -0.402722,-0.09833 -0.6171941,-0.12394 -1.0346185,-0.12345 -2.2668121,0.09431 -3.9253141,0.536591 -0.3947595,-0.172971 -0.866784,-0.530796 -1.2758842,-0.920865 0.04095,-0.0076 0.081478,-0.01836 0.1208435,-0.03192 0.2391593,-0.08322 0.4493168,-0.303134 0.4719571,-0.598123 0.021486,-0.27929 0.011206,-0.623858 -0.106924,-0.936939 C 5.1066932,11.711056 5.0268419,11.57861 4.9190753,11.468721 l -0.00337,-0.0034 1.3779465,-0.755762 C 6.5154873,10.623976 6.6795807,10.467878 6.7915686,10.291277 6.906632,10.109783 6.9754038,9.9077608 7.0345448,9.7063367 7.1525489,9.3040367 7.2402619,8.9029669 7.4346716,8.6602696 7.8448672,8.1632425 8.46276,8.0684142 9.1092054,7.8121724 l 0.061256,-0.024259 0.036905,-0.054077 c 0.5683405,-0.8219328 0.7054123,-1.845148 0.8310586,-2.8892015 0.929051,0.7600909 1.633006,2.1559228 2.19196,3.1972312 l 0.09108,0.1688259 0.178493,-0.069239 c 0.22679,-0.087458 0.445449,-0.1579516 0.656306,-0.2125339 z m -6.8626586,2.780595 c -0.00674,0.0017 -0.012302,0.0051 -0.018958,0.0067 l 0.030417,-0.01373 z M 9.3407478,4.946884 C 9.4160749,5.0219346 9.4888153,5.0996714 9.557368,5.1810731 9.4408891,6.0389749 9.2838649,6.8199477 8.8831989,7.4307047 8.8397215,7.4470457 8.7953847,7.4628813 8.750517,7.4783799 8.8953911,6.4858672 8.9609947,5.4400525 8.6001662,4.3421572 8.8927622,4.5418542 9.1371203,4.7440781 9.3407731,4.9468579 Z M 4.5874339,11.695871 C 3.8548316,12.217022 4.1490201,12.583793 4.4438996,12.990759 4.2502736,12.880095 3.6955915,12.454446 3.7832709,12.093732 3.8538799,11.803174 4.3455194,11.724838 4.5874339,11.695871 Z M 8.6404586,9.2373017 c -0.3313524,0.13184 -0.602353,0.365819 -0.8728228,0.605981 0.2144463,0.2633603 0.4278899,0.2791623 0.6925206,0.2310653 0.3038588,-0.2267443 0.4678511,-0.5624243 0.47412,-0.9213703 -0.1035116,0.01887 -0.201125,0.04742 -0.2938599,0.08433 z"
       inkscape:connector-curvature="0" />
  </g>
</svg>
