<?xml version="1.0" encoding="UTF-8" standalone="no"?>
<!-- Created with Inkscape (http://www.inkscape.org/) -->

<svg
   xmlns:dc="http://purl.org/dc/elements/1.1/"
   xmlns:cc="http://creativecommons.org/ns#"
   xmlns:rdf="http://www.w3.org/1999/02/22-rdf-syntax-ns#"
   xmlns:svg="http://www.w3.org/2000/svg"
   xmlns="http://www.w3.org/2000/svg"
   xmlns:sodipodi="http://sodipodi.sourceforge.net/DTD/sodipodi-0.dtd"
   xmlns:inkscape="http://www.inkscape.org/namespaces/inkscape"
   width="0.75in"
   height="0.75in"
   viewBox="0 0 67.500001 67.500002"
   id="svg2"
   version="1.1"
   inkscape:version="0.92.0 r15299"
   sodipodi:docname="guard.svg">
  <defs
     id="defs4" />
  <sodipodi:namedview
     id="base"
     pagecolor="#ffffff"
     bordercolor="#666666"
     borderopacity="1.0"
     inkscape:pageopacity="0.0"
     inkscape:pageshadow="2"
     inkscape:zoom="5.6"
     inkscape:cx="48.378239"
     inkscape:cy="50.502281"
     inkscape:document-units="px"
     inkscape:current-layer="layer1"
     showgrid="false"
     units="in"
     inkscape:window-width="1920"
     inkscape:window-height="1017"
     inkscape:window-x="-8"
     inkscape:window-y="-8"
     inkscape:window-maximized="1" />
  <metadata
     id="metadata7">
    <rdf:RDF>
      <cc:Work
         rdf:about="">
        <dc:format>image/svg+xml</dc:format>
        <dc:type
           rdf:resource="http://purl.org/dc/dcmitype/StillImage" />
        <dc:title />
      </cc:Work>
    </rdf:RDF>
  </metadata>
  <g
     inkscape:label="Layer 1"
     inkscape:groupmode="layer"
     id="layer1"
     transform="translate(0,-984.86215)">
    <path
       inkscape:connector-curvature="0"
       style="fill:#000000"
       d="m 33.750047,997.06092 c 1.949704,0 3.243565,0.97318 4.979173,1.93728 1.644901,0.9139 3.712794,1.6976 6.628995,1.1021 1.383919,1.3833 2.789935,2.7669 4.28935,3.7041 1.227013,0.7669 2.605826,1.2236 3.98111,1.0078 -0.394584,3.1046 -2.279854,6.1415 -4.250726,7.7312 -5.197354,-1.7224 -10.407708,-2.584 -15.61806,-2.584 -5.215182,0 -10.430269,0.8632 -15.632358,2.5887 -1.972917,-1.5883 -3.861343,-4.6282 -4.256206,-7.7359 1.375007,0.216 2.754097,-0.2409 3.981111,-1.0077 1.499414,-0.9372 2.905245,-2.3207 4.289348,-3.704 2.915923,0.5954 4.984095,-0.1884 6.628996,-1.10212 1.735794,-0.96455 3.029562,-1.93746 4.979267,-1.93746 z m 0.0098,1.81405 c -1.839685,0 -4.936466,2.48613 -4.936466,2.48613 0,0 1.970129,7.4586 4.936466,7.4586 2.966521,0 4.936651,-7.4586 4.936651,-7.4586 0,0 -3.096966,-2.48613 -4.936651,-2.48613 z m 0,12.74923 c 4.901185,0 9.802742,0.8013 14.715997,2.3893 0.202397,1.2506 -0.140193,2.1799 -0.877181,3.0393 -0.82259,0.9593 -2.203353,1.7736 -3.83999,2.3869 -3.273646,1.2273 -7.51871,1.6616 -9.998919,1.6616 -2.480117,0 -6.724995,-0.4343 -9.998548,-1.6615 -1.636824,-0.6133 -3.0174,-1.4275 -3.83999,-2.387 -0.737174,-0.8594 -1.079951,-1.7885 -0.877367,-3.0392 4.913255,-1.5881 9.814719,-2.3894 14.715905,-2.3894 z m 16.082925,5.3057 c 0.911719,0.2211 2.500449,0.7218 2.785849,1.5778 0.780068,2.3393 -1.570904,5.9229 -3.348849,8.1841 0.48984,-2.043 0.753886,-4.2161 0.753886,-6.4694 0,-1.1194 -0.06555,-2.2189 -0.190886,-3.2925 z m -32.16548,0 a 28.398837,28.398837 0 0 0 -0.190886,3.2924 c 0,2.2533 0.263954,4.4264 0.753886,6.4694 -1.777944,-2.2612 -4.129009,-5.8448 -3.348849,-8.1841 0.285307,-0.856 1.87413,-1.3567 2.785756,-1.5778 z m 30.640997,1.7799 c 0.02832,0.4993 0.0441,1.0033 0.0441,1.5124 0,5.5125 -1.683245,10.4874 -4.354618,14.0477 -2.671281,3.5602 -6.285755,5.6925 -10.248018,5.6925 -3.961984,0 -7.576551,-2.1323 -10.247739,-5.6925 -2.671281,-3.5603 -4.354341,-8.5351 -4.354341,-14.0476 0,-0.5093 0.01578,-1.0133 0.04401,-1.5126 0.761312,0.7109 1.691228,1.2875 2.714267,1.7668 -0.396441,1.6898 0.02469,3.7916 1.123215,4.8897 2.021565,2.0206 6.555184,2.0206 8.576842,0 0.626134,-0.6261 0.894729,-1.6236 0.859263,-2.6245 0.458088,0.02 0.891294,0.03 1.28467,0.03 0.393469,0 0.826767,-0.011 1.284948,-0.03 -0.03556,1.0008 0.233036,1.9984 0.859355,2.6245 2.021659,2.0206 6.555092,2.0206 8.576657,0 1.098519,-1.0981 1.519654,-3.1996 1.123215,-4.8893 1.023131,-0.4793 1.953232,-1.0563 2.71436,-1.7671 z m -14.558442,10.943 c -2.144118,3.4292 -6.432354,3.8578 -8.576471,3.8578 2.144024,1.7148 8.576378,1.7148 8.576378,0 0,1.7148 6.432631,1.7148 8.576842,0 -2.144211,0 -6.432632,-0.4286 -8.576842,-3.8578 z"
       id="path3353" />
  </g>
</svg>
