<?xml version="1.0" encoding="UTF-8" standalone="no"?>
<!-- Created with Inkscape (http://www.inkscape.org/) -->

<svg
   xmlns:dc="http://purl.org/dc/elements/1.1/"
   xmlns:cc="http://creativecommons.org/ns#"
   xmlns:rdf="http://www.w3.org/1999/02/22-rdf-syntax-ns#"
   xmlns:svg="http://www.w3.org/2000/svg"
   xmlns="http://www.w3.org/2000/svg"
   xmlns:sodipodi="http://sodipodi.sourceforge.net/DTD/sodipodi-0.dtd"
   xmlns:inkscape="http://www.inkscape.org/namespaces/inkscape"
   width="375"
   height="900"
   viewBox="0 0 375.00001 900.00003"
   id="svg2"
   version="1.1"
   inkscape:version="0.91 r13725"
   sodipodi:docname="jewel-chit.svg">
  <defs
     id="defs4">
    <marker
       inkscape:isstock="true"
       style="overflow:visible;"
       id="marker4976"
       refX="0.0"
       refY="0.0"
       orient="auto"
       inkscape:stockid="Arrow1Lend">
      <path
         transform="scale(0.8) rotate(180) translate(12.5,0)"
         style="fill-rule:evenodd;stroke:#000000;stroke-width:1pt;stroke-opacity:1;fill:#000000;fill-opacity:1"
         d="M 0.0,0.0 L 5.0,-5.0 L -12.5,0.0 L 5.0,5.0 L 0.0,0.0 z "
         id="path4978" />
    </marker>
    <marker
       inkscape:stockid="Arrow1Lend"
       orient="auto"
       refY="0.0"
       refX="0.0"
       id="Arrow1Lend"
       style="overflow:visible;"
       inkscape:isstock="true"
       inkscape:collect="always">
      <path
         id="path4257"
         d="M 0.0,0.0 L 5.0,-5.0 L -12.5,0.0 L 5.0,5.0 L 0.0,0.0 z "
         style="fill-rule:evenodd;stroke:#000000;stroke-width:1pt;stroke-opacity:1;fill:#000000;fill-opacity:1"
         transform="scale(0.8) rotate(180) translate(12.5,0)" />
    </marker>
  </defs>
  <sodipodi:namedview
     id="base"
     pagecolor="#ffffff"
     bordercolor="#666666"
     borderopacity="1.0"
     inkscape:pageopacity="0.0"
     inkscape:pageshadow="2"
     inkscape:zoom="0.98994949"
     inkscape:cx="130.76283"
     inkscape:cy="330.20893"
     inkscape:document-units="px"
     inkscape:current-layer="layer1"
     showgrid="false"
     units="px"
     inkscape:window-width="1920"
     inkscape:window-height="1017"
     inkscape:window-x="-8"
     inkscape:window-y="-8"
     inkscape:window-maximized="1" />
  <metadata
     id="metadata7">
    <rdf:RDF>
      <cc:Work
         rdf:about="">
        <dc:format>image/svg+xml</dc:format>
        <dc:type
           rdf:resource="http://purl.org/dc/dcmitype/StillImage" />
        <dc:title />
      </cc:Work>
    </rdf:RDF>
  </metadata>
  <g
     inkscape:label="Layer 1"
     inkscape:groupmode="layer"
     id="layer1"
     transform="translate(0,-152.36215)">
    <path
       style="fill:#d8c58f;fill-opacity:0.94117647"
       inkscape:connector-curvature="0"
       d="m 187.03205,228.30136 -23.18185,17.38109 10.76645,5.38129 12.4154,-9.30851 0,-13.45366 z m 2.98163,0 0,13.45387 12.41527,9.30851 10.76718,-5.3815 -23.18245,-17.38088 z m 1.53675,3.69508 6.06772,4.37913 c -4.16196,-0.69683 -4.92634,1.52397 -6.18662,4.77065 l 0.11911,-9.14978 z m -6.25976,0.65023 -0.0454,5.52624 c -3.65286,0.19586 -9.40673,2.38924 -17.8723,7.28709 l 17.91781,-12.81311 z m 3.23225,11.71694 -12.25791,9.19039 0,25.99854 12.25791,9.19019 12.25794,-9.19019 0,-25.99813 -12.25794,-9.19037 z m 0.69817,2.92733 c -6.21223,5.6054 -10.04521,27.30418 -10.54347,32.97947 l -0.0584,-25.02895 10.60148,-7.95072 z m -26.70489,1.05783 0,36.40922 10.76717,-5.38151 0,-25.64641 -10.76717,-5.3813 z m 52.01334,0 -10.76705,5.3813 0,25.64662 10.76705,5.38151 0,-36.40922 z m -49.91817,3.86125 6.70418,3.45037 c -7.66606,6.41995 -5.10027,20.32407 -6.93657,26.92978 l 0.23249,-30.38015 z m 10.00504,29.8334 -10.76621,5.3811 23.18185,17.38128 0,-13.45406 -12.41527,-9.30832 z m 27.81278,0 -12.41551,9.30832 0,13.45387 23.18197,-17.38109 -10.76646,-5.3811 z m -28.06316,2.84445 c -3.2457,2.69704 -2.77379,4.03587 0.74163,9.01288 l -7.32931,-6.29728 6.58779,-2.7156 z"
       id="path4924" />
    <text
       xml:space="preserve"
       style="font-style:normal;font-variant:normal;font-weight:normal;font-stretch:normal;font-size:23.56685257px;line-height:125%;font-family:'Archivo Narrow';-inkscape-font-specification:'Archivo Narrow, Normal';text-align:start;letter-spacing:0px;word-spacing:0px;writing-mode:lr-tb;text-anchor:start;fill:#000000;fill-opacity:1;stroke:none;stroke-width:1px;stroke-linecap:butt;stroke-linejoin:miter;stroke-opacity:1"
       x="174.51828"
       y="695.96729"
       id="text4138"
       sodipodi:linespacing="125%"><tspan
         sodipodi:role="line"
         id="tspan4140"
         x="174.51828"
         y="695.96729">keep just the ring</tspan></text>
    <text
       xml:space="preserve"
       style="font-style:normal;font-variant:normal;font-weight:normal;font-stretch:normal;font-size:40px;line-height:125%;font-family:'Archivo Narrow';-inkscape-font-specification:'Archivo Narrow, Normal';text-align:start;letter-spacing:0px;word-spacing:0px;writing-mode:lr-tb;text-anchor:start;fill:#000000;fill-opacity:1;stroke:none;stroke-width:1px;stroke-linecap:butt;stroke-linejoin:miter;stroke-opacity:1"
       x="195.96959"
       y="745.27576"
       id="text4142"
       sodipodi:linespacing="125%"><tspan
         sodipodi:role="line"
         id="tspan4144"
         x="195.96959"
         y="745.27576" /></text>
    <g
       style="font-style:normal;font-variant:normal;font-weight:normal;font-stretch:normal;font-size:21.6108532px;line-height:100%;font-family:'Archivo Narrow';-inkscape-font-specification:'Archivo Narrow, Normal';text-align:center;letter-spacing:0px;word-spacing:0px;writing-mode:lr-tb;text-anchor:middle;fill:#000000;fill-opacity:1;stroke:none;stroke-width:1px;stroke-linecap:butt;stroke-linejoin:miter;stroke-opacity:1"
       id="text4146"
       transform="translate(12.121831,0)">
      <path
         d="m 134.84783,489.75638 -1.38309,0 -0.389,3.15518 -0.97249,0 0,1.57759 0.97249,0 0,7.39091 c 0,1.29666 0.47544,2.61492 2.03142,2.61492 0.43222,0 0.97249,-0.12967 1.27504,-0.30255 l 0,-1.23182 -0.51866,0 c -0.66994,0 -1.01571,-0.36739 -1.01571,-1.03732 l 0,-7.43414 1.53437,0 0,-1.57759 -1.53437,0 0,-3.15518 z"
         id="path4157"
         inkscape:connector-curvature="0" />
      <path
         d="m 139.80786,488.65422 -1.77209,0 0,15.62465 1.77209,0 0,-6.93708 c 0,-1.96659 0.9941,-3.11197 2.11786,-3.11197 0.95088,0 1.59921,0.41061 1.59921,1.9882 l 0,8.06085 1.77209,0 0,-8.19051 c 0,-2.52847 -1.10216,-3.43613 -2.80942,-3.43613 -1.12376,0 -1.96658,0.43222 -2.55008,1.44793 l -0.12966,0 0,-5.44594 z"
         id="path4159"
         inkscape:connector-curvature="0" />
      <path
         d="m 151.50102,492.65223 c -1.08054,0 -1.64243,0.88605 -1.92337,1.75048 l -0.12966,0 -0.23772,-1.49115 -1.33987,0 0,11.36731 1.77209,0 0,-6.93708 c 0,-2.00981 0.99409,-2.67975 2.11786,-2.67975 l 0.58349,0 0,-1.83692 c 0,0 -0.36738,-0.17289 -0.84282,-0.17289 z"
         id="path4161"
         inkscape:connector-curvature="0" />
      <path
         d="m 157.41024,492.65223 c -2.65814,0 -4.06284,1.85853 -4.06284,5.94299 0,4.08445 1.4047,5.94298 4.06284,5.94298 2.65813,0 4.06284,-1.85853 4.06284,-5.94298 0,-4.08446 -1.40471,-5.94299 -4.06284,-5.94299 z m 0,1.57759 c 1.46954,0 2.2043,1.33988 2.2043,3.95479 l 0,0.82121 c 0,2.61491 -0.73476,3.95479 -2.2043,3.95479 -1.46954,0 -2.20431,-1.33988 -2.20431,-3.95479 l 0,-0.82121 c 0,-2.61491 0.73477,-3.95479 2.20431,-3.95479 z"
         id="path4163"
         inkscape:connector-curvature="0" />
      <path
         d="m 175.06799,492.91156 -1.7937,0 -1.42632,6.39681 c -0.28094,1.29665 -0.45382,2.70136 -0.45382,2.70136 l -0.0864,0 c 0,0 -0.15127,-1.55598 -0.34577,-2.70136 l -1.16699,-6.39681 -2.05303,0 -1.14537,6.39681 c -0.1945,1.16699 -0.34578,2.70136 -0.34578,2.70136 l -0.0864,0 c 0,0 -0.23772,-1.77209 -0.45383,-2.70136 l -1.42631,-6.39681 -1.94498,0 2.83102,11.36731 1.96659,0 1.16698,-6.48326 c 0.21611,-1.18859 0.34578,-2.61491 0.34578,-2.61491 l 0.0864,0 c 0,0 0.12967,1.44793 0.34578,2.61491 l 1.18859,6.48326 1.96659,0 2.83102,-11.36731 z"
         id="path4165"
         inkscape:connector-curvature="0" />
      <path
         d="m 190.82906,492.65223 c -1.08055,0 -2.16109,0.56188 -2.76619,1.64243 -0.41061,-1.16699 -1.29665,-1.64243 -2.42042,-1.64243 -1.08054,0 -1.9882,0.45383 -2.5933,1.57759 l -0.12966,0 -0.23772,-1.31826 -1.33988,0 0,11.36731 1.77209,0 0,-6.93708 c 0,-1.96659 0.90766,-3.11197 1.96659,-3.11197 0.84282,0 1.46954,0.41061 1.46954,1.9882 l 0,8.06085 1.77209,0 0,-6.93708 c 0,-1.96659 0.88604,-3.11197 1.94498,-3.11197 0.84282,0 1.46953,0.41061 1.46953,1.9882 l 0,8.06085 1.77209,0 0,-8.19051 c 0,-2.52847 -1.08054,-3.43613 -2.67974,-3.43613 z"
         id="path4167"
         inkscape:connector-curvature="0" />
      <path
         d="m 200.00489,492.65223 c -2.85263,0 -4.27895,1.85853 -4.27895,5.94299 0,4.21411 1.46954,5.94298 4.30056,5.94298 2.20431,0 3.71707,-1.57759 3.71707,-4.12767 l -1.75048,0 c 0,1.57759 -0.7996,2.55008 -1.92337,2.55008 -1.68564,0 -2.46363,-1.1886 -2.48524,-3.84673 l 6.15909,0 0,-1.12377 c 0,-3.80351 -1.25343,-5.33788 -3.73868,-5.33788 z m 0,1.57759 c 1.23182,0 1.88015,1.14538 1.88015,3.30646 l -4.27895,0 c 0.15127,-2.18269 0.82121,-3.30646 2.3988,-3.30646 z"
         id="path4169"
         inkscape:connector-curvature="0" />
      <path
         d="m 132.18801,514.26308 c -2.13948,0 -3.65224,1.08055 -3.65224,3.15519 0,0.1945 0,0.34577 0.0216,0.47544 l 1.75048,0 0,-0.25933 c 0,-0.86444 0.41061,-1.7937 1.75048,-1.7937 1.44793,0 1.7937,0.75638 1.7937,1.83692 l 0,1.46954 c -3.30646,0 -5.74848,0.66993 -5.74848,3.80351 0,2.74458 1.85853,3.1984 2.98229,3.1984 1.1886,0 2.1827,-0.56188 2.76619,-1.49115 l 0.10806,0 c 0.21611,0.84283 0.86443,1.40471 1.7937,1.40471 0.56188,0 0.97249,-0.15128 1.16698,-0.25933 l 0,-1.23182 -0.69154,0 c -0.30255,0 -0.60511,-0.21611 -0.60511,-0.75638 l 0,-6.3752 c 0,-2.00981 -1.14537,-3.1768 -3.43612,-3.1768 z m 1.66403,7.49897 c 0,1.88014 -1.23182,2.80941 -2.35558,2.80941 -0.9941,0 -1.53437,-0.43222 -1.53437,-1.72887 0,-1.77209 1.57759,-2.11786 3.88995,-2.11786 l 0,1.03732 z"
         id="path4171"
         inkscape:connector-curvature="0" />
      <path
         d="m 149.95382,514.52241 -1.7937,0 -1.42632,6.39682 c -0.28094,1.29665 -0.45383,2.70135 -0.45383,2.70135 l -0.0864,0 c 0,0 -0.15128,-1.55598 -0.34578,-2.70135 l -1.16698,-6.39682 -2.05303,0 -1.14538,6.39682 c -0.1945,1.16698 -0.34577,2.70135 -0.34577,2.70135 l -0.0864,0 c 0,0 -0.23772,-1.77209 -0.45383,-2.70135 l -1.42632,-6.39682 -1.94498,0 2.83103,11.36731 1.96658,0 1.16699,-6.48325 c 0.21611,-1.1886 0.34577,-2.61492 0.34577,-2.61492 l 0.0864,0 c 0,0 0.12966,1.44793 0.34577,2.61492 l 1.1886,6.48325 1.96659,0 2.83102,-11.36731 z"
         id="path4173"
         inkscape:connector-curvature="0" />
      <path
         d="m 154.81187,514.26308 c -2.13948,0 -3.65224,1.08055 -3.65224,3.15519 0,0.1945 0,0.34577 0.0216,0.47544 l 1.75047,0 0,-0.25933 c 0,-0.86444 0.41061,-1.7937 1.75048,-1.7937 1.44793,0 1.7937,0.75638 1.7937,1.83692 l 0,1.46954 c -3.30646,0 -5.74848,0.66993 -5.74848,3.80351 0,2.74458 1.85853,3.1984 2.9823,3.1984 1.18859,0 2.18269,-0.56188 2.76618,-1.49115 l 0.10806,0 c 0.21611,0.84283 0.86443,1.40471 1.7937,1.40471 0.56188,0 0.97249,-0.15128 1.16699,-0.25933 l 0,-1.23182 -0.69155,0 c -0.30255,0 -0.60511,-0.21611 -0.60511,-0.75638 l 0,-6.3752 c 0,-2.00981 -1.14537,-3.1768 -3.43612,-3.1768 z m 1.66403,7.49897 c 0,1.88014 -1.23181,2.80941 -2.35558,2.80941 -0.9941,0 -1.53437,-0.43222 -1.53437,-1.72887 0,-1.77209 1.57759,-2.11786 3.88995,-2.11786 l 0,1.03732 z"
         id="path4175"
         inkscape:connector-curvature="0" />
      <path
         d="m 168.49323,514.52241 -1.7937,0 -2.11787,8.81723 -0.0864,0 -2.50686,-8.81723 -1.94498,0 3.47935,11.36731 c -0.4106,1.94498 -1.29665,2.52847 -2.24753,2.52847 l -0.62671,0 0,1.23182 c 0.36738,0.12967 0.77799,0.17289 1.27504,0.17289 1.9882,0 3.00391,-2.03142 3.67384,-4.51667 l 2.89586,-10.78382 z"
         id="path4177"
         inkscape:connector-curvature="0" />
      <path
         d="m 178.44874,514.26308 c -2.13948,0 -3.65224,1.08055 -3.65224,3.15519 0,0.1945 0,0.34577 0.0216,0.47544 l 1.75048,0 0,-0.25933 c 0,-0.86444 0.41061,-1.7937 1.75048,-1.7937 1.44793,0 1.7937,0.75638 1.7937,1.83692 l 0,1.46954 c -3.30646,0 -5.74848,0.66993 -5.74848,3.80351 0,2.74458 1.85853,3.1984 2.98229,3.1984 1.1886,0 2.1827,-0.56188 2.76619,-1.49115 l 0.10806,0 c 0.21611,0.84283 0.86443,1.40471 1.7937,1.40471 0.56188,0 0.97249,-0.15128 1.16699,-0.25933 l 0,-1.23182 -0.69155,0 c -0.30255,0 -0.60511,-0.21611 -0.60511,-0.75638 l 0,-6.3752 c 0,-2.00981 -1.14537,-3.1768 -3.43612,-3.1768 z m 1.66403,7.49897 c 0,1.88014 -1.23181,2.80941 -2.35558,2.80941 -0.9941,0 -1.53437,-0.43222 -1.53437,-1.72887 0,-1.77209 1.57759,-2.11786 3.88995,-2.11786 l 0,1.03732 z"
         id="path4179"
         inkscape:connector-curvature="0" />
      <path
         d="m 186.90027,510.09219 c -1.72887,0 -2.24753,1.31826 -2.24753,2.61491 l 0,1.81531 -0.9941,0 0,1.5776 0.9941,0 0,9.78971 1.77209,0 0,-9.78971 1.96659,0 0,-1.5776 -1.96659,0 0,-1.90175 c 0,-0.66994 0.34578,-1.03732 1.01571,-1.03732 l 0.95088,0 0,-1.23182 c -0.36738,-0.12967 -0.97249,-0.25933 -1.49115,-0.25933 z"
         id="path4181"
         inkscape:connector-curvature="0" />
      <path
         d="m 191.44969,511.36723 -1.38309,0 -0.389,3.15518 -0.97249,0 0,1.5776 0.97249,0 0,7.39091 c 0,1.29665 0.47544,2.61491 2.03142,2.61491 0.43222,0 0.97249,-0.12966 1.27504,-0.30255 l 0,-1.23182 -0.51866,0 c -0.66993,0 -1.01571,-0.36738 -1.01571,-1.03732 l 0,-7.43413 1.53437,0 0,-1.5776 -1.53437,0 0,-3.15518 z"
         id="path4183"
         inkscape:connector-curvature="0" />
      <path
         d="m 198.52758,514.26308 c -2.85263,0 -4.27895,1.85854 -4.27895,5.94299 0,4.21411 1.46954,5.94298 4.30056,5.94298 2.20431,0 3.71707,-1.57759 3.71707,-4.12767 l -1.75048,0 c 0,1.57759 -0.7996,2.55008 -1.92336,2.55008 -1.68565,0 -2.46364,-1.1886 -2.48525,-3.84673 l 6.15909,0 0,-1.12377 c 0,-3.80351 -1.25343,-5.33788 -3.73868,-5.33788 z m 0,1.5776 c 1.23182,0 1.88015,1.14537 1.88015,3.30646 l -4.27895,0 c 0.15127,-2.1827 0.82121,-3.30646 2.3988,-3.30646 z"
         id="path4185"
         inkscape:connector-curvature="0" />
      <path
         d="m 208.10288,514.26308 c -1.08054,0 -1.64243,0.88605 -1.92337,1.75048 l -0.12966,0 -0.23772,-1.49115 -1.33988,0 0,11.36731 1.77209,0 0,-6.93708 c 0,-2.00981 0.9941,-2.67975 2.11787,-2.67975 l 0.58349,0 0,-1.83692 c 0,0 -0.36738,-0.17289 -0.84282,-0.17289 z"
         id="path4187"
         inkscape:connector-curvature="0" />
      <path
         d="m 137.79586,535.87394 c -1.03733,0 -1.94498,0.54027 -2.48525,1.57759 l -0.10806,0 -0.23772,-1.31826 -1.33987,0 0,15.10598 1.77209,0 0,-4.73277 0.10805,0 c 0.389,0.77799 1.31827,1.25343 2.42042,1.25343 1.88014,0 3.3929,-1.7937 3.3929,-5.92138 0,-4.17089 -1.36148,-5.96459 -3.52256,-5.96459 z m -0.36739,1.57759 c 1.36148,0 2.03142,1.12376 2.03142,3.95479 l 0,0.82121 c 0,2.83102 -0.66994,3.95478 -2.03142,3.95478 -1.36148,0 -2.03142,-1.33987 -2.03142,-3.95478 l 0,-0.82121 c 0,-2.61492 0.66994,-3.95479 2.03142,-3.95479 z"
         id="path4189"
         inkscape:connector-curvature="0" />
      <path
         d="m 150.72083,536.13327 -1.77209,0 0,6.93708 c 0,1.96659 -0.9941,3.11196 -2.11786,3.11196 -0.95088,0 -1.5992,-0.4106 -1.5992,-1.98819 l 0,-8.06085 -1.77209,0 0,8.19051 c 0,2.52847 1.10215,3.43613 2.80941,3.43613 1.12376,0 2.11786,-0.45383 2.74458,-1.5776 l 0.12966,0 0.23772,1.31827 1.33987,0 0,-11.36731 z"
         id="path4191"
         inkscape:connector-curvature="0" />
      <path
         d="m 157.74605,535.87394 c -1.12377,0 -2.11786,0.45382 -2.74458,1.57759 l -0.12966,0 -0.23772,-1.31826 -1.33988,0 0,11.36731 1.77209,0 0,-6.93709 c 0,-1.96659 0.9941,-3.11196 2.11787,-3.11196 0.95087,0 1.5992,0.41061 1.5992,1.9882 l 0,8.06085 1.77209,0 0,-8.19052 c 0,-2.52847 -1.10215,-3.43612 -2.80941,-3.43612 z"
         id="path4193"
         inkscape:connector-curvature="0" />
      <path
         d="m 166.50013,535.87394 c -2.65813,0 -3.88995,1.85853 -3.88995,5.94298 0,4.08445 1.21021,5.94299 3.88995,5.94299 2.50686,0 3.47935,-2.09626 3.47935,-4.47345 l -1.75048,0 c 0,1.88014 -0.45383,2.89585 -1.72887,2.89585 -1.42631,0 -2.03142,-1.33987 -2.03142,-3.95478 l 0,-0.82121 c 0,-2.61492 0.62672,-3.95479 2.03142,-3.95479 1.27504,0 1.64243,0.92927 1.64243,2.89585 l 1.83692,0 c 0,-2.89585 -1.01571,-4.47344 -3.47935,-4.47344 z"
         id="path4195"
         inkscape:connector-curvature="0" />
      <path
         d="m 173.76476,531.87593 -1.77209,0 0,15.62465 1.77209,0 0,-6.93709 c 0,-1.96659 0.9941,-3.11196 2.11786,-3.11196 0.95088,0 1.5992,0.41061 1.5992,1.9882 l 0,8.06085 1.77209,0 0,-8.19052 c 0,-2.52847 -1.10215,-3.43612 -2.80941,-3.43612 -1.12376,0 -1.96659,0.43221 -2.55008,1.44792 l -0.12966,0 0,-5.44593 z"
         id="path4197"
         inkscape:connector-curvature="0" />
      <path
         d="m 183.38327,536.13327 -1.77209,0 0,11.36731 1.77209,0 0,-11.36731 z m 0,-4.25734 -1.77209,0 0,2.11786 1.77209,0 0,-2.11786 z"
         id="path4199"
         inkscape:connector-curvature="0" />
      <path
         d="m 190.20454,535.87394 c -1.12377,0 -2.11787,0.45382 -2.74458,1.57759 l -0.12967,0 -0.23772,-1.31826 -1.33987,0 0,11.36731 1.77209,0 0,-6.93709 c 0,-1.96659 0.9941,-3.11196 2.11786,-3.11196 0.95088,0 1.59921,0.41061 1.59921,1.9882 l 0,8.06085 1.77209,0 0,-8.19052 c 0,-2.52847 -1.10216,-3.43612 -2.80941,-3.43612 z"
         id="path4201"
         inkscape:connector-curvature="0" />
      <path
         d="m 202.15703,534.29634 c -0.10806,0.71316 -0.389,1.44793 -1.40471,1.9882 -0.47544,-0.25933 -1.05893,-0.4106 -1.64242,-0.4106 -2.31236,0 -3.71707,1.44792 -3.71707,3.82512 0,1.27504 0.49705,2.26914 1.31826,2.93907 -0.95087,0.34578 -1.5992,1.03733 -1.5992,1.96659 0,0.66994 0.34577,1.33987 0.92927,1.70726 -0.90766,0.34577 -1.46954,1.31826 -1.46954,2.42041 0,1.49115 0.95088,2.70136 2.80941,2.70136 l 3.22002,0 c 2.16108,0 3.32807,-1.42632 3.32807,-3.22002 0,-1.44792 -1.03732,-2.65813 -2.67975,-2.65813 l -3.24163,0 c -0.56188,0 -1.03732,-0.45383 -1.03732,-1.01571 0,-0.56188 0.45383,-1.01571 1.03732,-1.01571 l 1.1886,0 c 2.20431,-0.0216 3.63062,-1.46954 3.63062,-3.82512 0,-1.12377 -0.38899,-2.03142 -1.01571,-2.67975 1.1886,-0.30255 1.90176,-1.36148 1.90176,-2.72297 l -1.55598,0 z m -1.36149,12.94491 c 0.90766,0 1.33988,0.58349 1.33988,1.31826 0,0.73477 -0.5835,1.33987 -1.33988,1.33987 l -3.13357,0 c -0.88604,0 -1.31826,-0.6051 -1.31826,-1.33987 0,-0.73477 0.4106,-1.31826 1.31826,-1.31826 l 3.13357,0 z m -1.70725,-9.89777 c 1.25343,0 1.94497,0.84282 1.94497,2.35558 0,1.44793 -0.69154,2.35558 -1.94497,2.35558 -1.25343,0 -1.92337,-0.84282 -1.92337,-2.35558 0,-1.44793 0.66994,-2.35558 1.92337,-2.35558 z"
         id="path4203"
         inkscape:connector-curvature="0" />
      <path
         d="m 151.93374,557.48479 c -1.08054,0 -2.16108,0.56188 -2.76619,1.64243 -0.4106,-1.16699 -1.29665,-1.64243 -2.42041,-1.64243 -1.08054,0 -1.9882,0.45383 -2.5933,1.57759 l -0.12967,0 -0.23772,-1.31826 -1.33987,0 0,11.36731 1.77209,0 0,-6.93708 c 0,-1.96659 0.90765,-3.11197 1.96659,-3.11197 0.84282,0 1.46953,0.41061 1.46953,1.9882 l 0,8.06085 1.77209,0 0,-6.93708 c 0,-1.96659 0.88605,-3.11197 1.94498,-3.11197 0.84282,0 1.46954,0.41061 1.46954,1.9882 l 0,8.06085 1.77209,0 0,-8.19051 c 0,-2.52847 -1.08054,-3.43613 -2.67975,-3.43613 z"
         id="path4205"
         inkscape:connector-curvature="0" />
      <path
         d="m 161.10958,557.48479 c -2.85264,0 -4.27895,1.85853 -4.27895,5.94298 0,4.21412 1.46954,5.94299 4.30056,5.94299 2.2043,0 3.71706,-1.57759 3.71706,-4.12767 l -1.75048,0 c 0,1.57759 -0.7996,2.55008 -1.92336,2.55008 -1.68565,0 -2.46364,-1.1886 -2.48525,-3.84673 l 6.15909,0 0,-1.12377 c 0,-3.80351 -1.25343,-5.33788 -3.73867,-5.33788 z m 0,1.57759 c 1.23182,0 1.88014,1.14538 1.88014,3.30646 l -4.27895,0 c 0.15128,-2.18269 0.82121,-3.30646 2.39881,-3.30646 z"
         id="path4207"
         inkscape:connector-curvature="0" />
      <path
         d="m 175.62329,557.48479 c -2.65813,0 -4.06284,1.85853 -4.06284,5.94298 0,4.08446 1.40471,5.94299 4.06284,5.94299 2.65814,0 4.06284,-1.85853 4.06284,-5.94299 0,-4.08445 -1.4047,-5.94298 -4.06284,-5.94298 z m 0,1.57759 c 1.46954,0 2.20431,1.33988 2.20431,3.95479 l 0,0.82121 c 0,2.61491 -0.73477,3.95479 -2.20431,3.95479 -1.46954,0 -2.20431,-1.33988 -2.20431,-3.95479 l 0,-0.82121 c 0,-2.61491 0.73477,-3.95479 2.20431,-3.95479 z"
         id="path4209"
         inkscape:connector-curvature="0" />
      <path
         d="m 189.08854,557.74412 -1.77209,0 0,6.93708 c 0,1.96659 -0.9941,3.11197 -2.11786,3.11197 -0.95088,0 -1.59921,-0.41061 -1.59921,-1.9882 l 0,-8.06085 -1.77209,0 0,8.19051 c 0,2.52847 1.10216,3.43613 2.80941,3.43613 1.12377,0 2.11787,-0.45383 2.74458,-1.57759 l 0.12967,0 0.23772,1.31826 1.33987,0 0,-11.36731 z"
         id="path4211"
         inkscape:connector-curvature="0" />
      <path
         d="m 193.4124,554.58894 -1.3831,0 -0.38899,3.15518 -0.97249,0 0,1.57759 0.97249,0 0,7.39091 c 0,1.29666 0.47544,2.61492 2.03142,2.61492 0.43221,0 0.97249,-0.12967 1.27504,-0.30255 l 0,-1.23182 -0.51866,0 c -0.66994,0 -1.01571,-0.36739 -1.01571,-1.03732 l 0,-7.43414 1.53437,0 0,-1.57759 -1.53437,0 0,-3.15518 z"
         id="path4213"
         inkscape:connector-curvature="0" />
    </g>
    <text
       sodipodi:linespacing="125%"
       id="text4244"
       y="341.85764"
       x="-583.34375"
       style="font-style:normal;font-variant:normal;font-weight:normal;font-stretch:normal;font-size:23.56685257px;line-height:125%;font-family:'Archivo Narrow';-inkscape-font-specification:'Archivo Narrow, Normal';text-align:start;letter-spacing:0px;word-spacing:0px;writing-mode:lr-tb;text-anchor:start;fill:#000000;fill-opacity:1;stroke:none;stroke-width:1px;stroke-linecap:butt;stroke-linejoin:miter;stroke-opacity:1"
       xml:space="preserve"
       transform="matrix(0,-1,1,0,0,0)"><tspan
         y="341.85764"
         x="-583.34375"
         id="tspan4246"
         sodipodi:role="line"> keep only the ring</tspan></text>
    <path
       style="fill:none;fill-rule:evenodd;stroke:#000000;stroke-width:1px;stroke-linecap:butt;stroke-linejoin:miter;stroke-opacity:1;marker-end:url(#Arrow1Lend)"
       d="m 331.86621,668.4277 0.59091,36.176"
       id="path4248"
       inkscape:connector-curvature="0"
       sodipodi:nodetypes="cc"
       inkscape:transform-center-x="11.663024"
       inkscape:transform-center-y="146.94667" />
    <path
       inkscape:connector-curvature="0"
       id="path4974"
       d="m 345.18698,595.61908 -25.10391,-0.42867"
       style="fill:none;fill-rule:evenodd;stroke:#000000;stroke-width:1px;stroke-linecap:butt;stroke-linejoin:miter;stroke-opacity:1;marker-end:url(#marker4976)"
       sodipodi:nodetypes="cc" />
    <text
       transform="matrix(0,-1,1,0,0,0)"
       xml:space="preserve"
       style="font-style:normal;font-variant:normal;font-weight:normal;font-stretch:normal;font-size:23.56685257px;line-height:125%;font-family:'Archivo Narrow';-inkscape-font-specification:'Archivo Narrow, Normal';text-align:start;letter-spacing:0px;word-spacing:0px;writing-mode:lr-tb;text-anchor:start;fill:#000000;fill-opacity:1;stroke:none;stroke-width:1px;stroke-linecap:butt;stroke-linejoin:miter;stroke-opacity:1"
       x="-338.88684"
       y="341.85764"
       id="text6462"
       sodipodi:linespacing="125%"><tspan
         sodipodi:role="line"
         id="tspan6464"
         x="-338.88684"
         y="341.85764" /></text>
    <g
       transform="translate(12.121831,302.03561)"
       id="g7236"
       style="font-style:normal;font-variant:normal;font-weight:normal;font-stretch:normal;font-size:21.6108532px;line-height:100%;font-family:'Archivo Narrow';-inkscape-font-specification:'Archivo Narrow, Normal';text-align:center;letter-spacing:0px;word-spacing:0px;writing-mode:lr-tb;text-anchor:middle;fill:#000000;fill-opacity:1;stroke:none;stroke-width:1px;stroke-linecap:butt;stroke-linejoin:miter;stroke-opacity:1">
      <path
         inkscape:connector-curvature="0"
         id="path7238"
         d="m 134.84783,489.75638 -1.38309,0 -0.389,3.15518 -0.97249,0 0,1.57759 0.97249,0 0,7.39091 c 0,1.29666 0.47544,2.61492 2.03142,2.61492 0.43222,0 0.97249,-0.12967 1.27504,-0.30255 l 0,-1.23182 -0.51866,0 c -0.66994,0 -1.01571,-0.36739 -1.01571,-1.03732 l 0,-7.43414 1.53437,0 0,-1.57759 -1.53437,0 0,-3.15518 z" />
      <path
         inkscape:connector-curvature="0"
         id="path7240"
         d="m 139.80786,488.65422 -1.77209,0 0,15.62465 1.77209,0 0,-6.93708 c 0,-1.96659 0.9941,-3.11197 2.11786,-3.11197 0.95088,0 1.59921,0.41061 1.59921,1.9882 l 0,8.06085 1.77209,0 0,-8.19051 c 0,-2.52847 -1.10216,-3.43613 -2.80942,-3.43613 -1.12376,0 -1.96658,0.43222 -2.55008,1.44793 l -0.12966,0 0,-5.44594 z" />
      <path
         inkscape:connector-curvature="0"
         id="path7242"
         d="m 151.50102,492.65223 c -1.08054,0 -1.64243,0.88605 -1.92337,1.75048 l -0.12966,0 -0.23772,-1.49115 -1.33987,0 0,11.36731 1.77209,0 0,-6.93708 c 0,-2.00981 0.99409,-2.67975 2.11786,-2.67975 l 0.58349,0 0,-1.83692 c 0,0 -0.36738,-0.17289 -0.84282,-0.17289 z" />
      <path
         inkscape:connector-curvature="0"
         id="path7244"
         d="m 157.41024,492.65223 c -2.65814,0 -4.06284,1.85853 -4.06284,5.94299 0,4.08445 1.4047,5.94298 4.06284,5.94298 2.65813,0 4.06284,-1.85853 4.06284,-5.94298 0,-4.08446 -1.40471,-5.94299 -4.06284,-5.94299 z m 0,1.57759 c 1.46954,0 2.2043,1.33988 2.2043,3.95479 l 0,0.82121 c 0,2.61491 -0.73476,3.95479 -2.2043,3.95479 -1.46954,0 -2.20431,-1.33988 -2.20431,-3.95479 l 0,-0.82121 c 0,-2.61491 0.73477,-3.95479 2.20431,-3.95479 z" />
      <path
         inkscape:connector-curvature="0"
         id="path7246"
         d="m 175.06799,492.91156 -1.7937,0 -1.42632,6.39681 c -0.28094,1.29665 -0.45382,2.70136 -0.45382,2.70136 l -0.0864,0 c 0,0 -0.15127,-1.55598 -0.34577,-2.70136 l -1.16699,-6.39681 -2.05303,0 -1.14537,6.39681 c -0.1945,1.16699 -0.34578,2.70136 -0.34578,2.70136 l -0.0864,0 c 0,0 -0.23772,-1.77209 -0.45383,-2.70136 l -1.42631,-6.39681 -1.94498,0 2.83102,11.36731 1.96659,0 1.16698,-6.48326 c 0.21611,-1.18859 0.34578,-2.61491 0.34578,-2.61491 l 0.0864,0 c 0,0 0.12967,1.44793 0.34578,2.61491 l 1.18859,6.48326 1.96659,0 2.83102,-11.36731 z" />
      <path
         inkscape:connector-curvature="0"
         id="path7248"
         d="m 190.82906,492.65223 c -1.08055,0 -2.16109,0.56188 -2.76619,1.64243 -0.41061,-1.16699 -1.29665,-1.64243 -2.42042,-1.64243 -1.08054,0 -1.9882,0.45383 -2.5933,1.57759 l -0.12966,0 -0.23772,-1.31826 -1.33988,0 0,11.36731 1.77209,0 0,-6.93708 c 0,-1.96659 0.90766,-3.11197 1.96659,-3.11197 0.84282,0 1.46954,0.41061 1.46954,1.9882 l 0,8.06085 1.77209,0 0,-6.93708 c 0,-1.96659 0.88604,-3.11197 1.94498,-3.11197 0.84282,0 1.46953,0.41061 1.46953,1.9882 l 0,8.06085 1.77209,0 0,-8.19051 c 0,-2.52847 -1.08054,-3.43613 -2.67974,-3.43613 z" />
      <path
         inkscape:connector-curvature="0"
         id="path7250"
         d="m 200.00489,492.65223 c -2.85263,0 -4.27895,1.85853 -4.27895,5.94299 0,4.21411 1.46954,5.94298 4.30056,5.94298 2.20431,0 3.71707,-1.57759 3.71707,-4.12767 l -1.75048,0 c 0,1.57759 -0.7996,2.55008 -1.92337,2.55008 -1.68564,0 -2.46363,-1.1886 -2.48524,-3.84673 l 6.15909,0 0,-1.12377 c 0,-3.80351 -1.25343,-5.33788 -3.73868,-5.33788 z m 0,1.57759 c 1.23182,0 1.88015,1.14538 1.88015,3.30646 l -4.27895,0 c 0.15127,-2.18269 0.82121,-3.30646 2.3988,-3.30646 z" />
      <path
         inkscape:connector-curvature="0"
         id="path7252"
         d="m 132.18801,514.26308 c -2.13948,0 -3.65224,1.08055 -3.65224,3.15519 0,0.1945 0,0.34577 0.0216,0.47544 l 1.75048,0 0,-0.25933 c 0,-0.86444 0.41061,-1.7937 1.75048,-1.7937 1.44793,0 1.7937,0.75638 1.7937,1.83692 l 0,1.46954 c -3.30646,0 -5.74848,0.66993 -5.74848,3.80351 0,2.74458 1.85853,3.1984 2.98229,3.1984 1.1886,0 2.1827,-0.56188 2.76619,-1.49115 l 0.10806,0 c 0.21611,0.84283 0.86443,1.40471 1.7937,1.40471 0.56188,0 0.97249,-0.15128 1.16698,-0.25933 l 0,-1.23182 -0.69154,0 c -0.30255,0 -0.60511,-0.21611 -0.60511,-0.75638 l 0,-6.3752 c 0,-2.00981 -1.14537,-3.1768 -3.43612,-3.1768 z m 1.66403,7.49897 c 0,1.88014 -1.23182,2.80941 -2.35558,2.80941 -0.9941,0 -1.53437,-0.43222 -1.53437,-1.72887 0,-1.77209 1.57759,-2.11786 3.88995,-2.11786 l 0,1.03732 z" />
      <path
         inkscape:connector-curvature="0"
         id="path7254"
         d="m 149.95382,514.52241 -1.7937,0 -1.42632,6.39682 c -0.28094,1.29665 -0.45383,2.70135 -0.45383,2.70135 l -0.0864,0 c 0,0 -0.15128,-1.55598 -0.34578,-2.70135 l -1.16698,-6.39682 -2.05303,0 -1.14538,6.39682 c -0.1945,1.16698 -0.34577,2.70135 -0.34577,2.70135 l -0.0864,0 c 0,0 -0.23772,-1.77209 -0.45383,-2.70135 l -1.42632,-6.39682 -1.94498,0 2.83103,11.36731 1.96658,0 1.16699,-6.48325 c 0.21611,-1.1886 0.34577,-2.61492 0.34577,-2.61492 l 0.0864,0 c 0,0 0.12966,1.44793 0.34577,2.61492 l 1.1886,6.48325 1.96659,0 2.83102,-11.36731 z" />
      <path
         inkscape:connector-curvature="0"
         id="path7256"
         d="m 154.81187,514.26308 c -2.13948,0 -3.65224,1.08055 -3.65224,3.15519 0,0.1945 0,0.34577 0.0216,0.47544 l 1.75047,0 0,-0.25933 c 0,-0.86444 0.41061,-1.7937 1.75048,-1.7937 1.44793,0 1.7937,0.75638 1.7937,1.83692 l 0,1.46954 c -3.30646,0 -5.74848,0.66993 -5.74848,3.80351 0,2.74458 1.85853,3.1984 2.9823,3.1984 1.18859,0 2.18269,-0.56188 2.76618,-1.49115 l 0.10806,0 c 0.21611,0.84283 0.86443,1.40471 1.7937,1.40471 0.56188,0 0.97249,-0.15128 1.16699,-0.25933 l 0,-1.23182 -0.69155,0 c -0.30255,0 -0.60511,-0.21611 -0.60511,-0.75638 l 0,-6.3752 c 0,-2.00981 -1.14537,-3.1768 -3.43612,-3.1768 z m 1.66403,7.49897 c 0,1.88014 -1.23181,2.80941 -2.35558,2.80941 -0.9941,0 -1.53437,-0.43222 -1.53437,-1.72887 0,-1.77209 1.57759,-2.11786 3.88995,-2.11786 l 0,1.03732 z" />
      <path
         inkscape:connector-curvature="0"
         id="path7258"
         d="m 168.49323,514.52241 -1.7937,0 -2.11787,8.81723 -0.0864,0 -2.50686,-8.81723 -1.94498,0 3.47935,11.36731 c -0.4106,1.94498 -1.29665,2.52847 -2.24753,2.52847 l -0.62671,0 0,1.23182 c 0.36738,0.12967 0.77799,0.17289 1.27504,0.17289 1.9882,0 3.00391,-2.03142 3.67384,-4.51667 l 2.89586,-10.78382 z" />
      <path
         inkscape:connector-curvature="0"
         id="path7260"
         d="m 178.44874,514.26308 c -2.13948,0 -3.65224,1.08055 -3.65224,3.15519 0,0.1945 0,0.34577 0.0216,0.47544 l 1.75048,0 0,-0.25933 c 0,-0.86444 0.41061,-1.7937 1.75048,-1.7937 1.44793,0 1.7937,0.75638 1.7937,1.83692 l 0,1.46954 c -3.30646,0 -5.74848,0.66993 -5.74848,3.80351 0,2.74458 1.85853,3.1984 2.98229,3.1984 1.1886,0 2.1827,-0.56188 2.76619,-1.49115 l 0.10806,0 c 0.21611,0.84283 0.86443,1.40471 1.7937,1.40471 0.56188,0 0.97249,-0.15128 1.16699,-0.25933 l 0,-1.23182 -0.69155,0 c -0.30255,0 -0.60511,-0.21611 -0.60511,-0.75638 l 0,-6.3752 c 0,-2.00981 -1.14537,-3.1768 -3.43612,-3.1768 z m 1.66403,7.49897 c 0,1.88014 -1.23181,2.80941 -2.35558,2.80941 -0.9941,0 -1.53437,-0.43222 -1.53437,-1.72887 0,-1.77209 1.57759,-2.11786 3.88995,-2.11786 l 0,1.03732 z" />
      <path
         inkscape:connector-curvature="0"
         id="path7262"
         d="m 186.90027,510.09219 c -1.72887,0 -2.24753,1.31826 -2.24753,2.61491 l 0,1.81531 -0.9941,0 0,1.5776 0.9941,0 0,9.78971 1.77209,0 0,-9.78971 1.96659,0 0,-1.5776 -1.96659,0 0,-1.90175 c 0,-0.66994 0.34578,-1.03732 1.01571,-1.03732 l 0.95088,0 0,-1.23182 c -0.36738,-0.12967 -0.97249,-0.25933 -1.49115,-0.25933 z" />
      <path
         inkscape:connector-curvature="0"
         id="path7264"
         d="m 191.44969,511.36723 -1.38309,0 -0.389,3.15518 -0.97249,0 0,1.5776 0.97249,0 0,7.39091 c 0,1.29665 0.47544,2.61491 2.03142,2.61491 0.43222,0 0.97249,-0.12966 1.27504,-0.30255 l 0,-1.23182 -0.51866,0 c -0.66993,0 -1.01571,-0.36738 -1.01571,-1.03732 l 0,-7.43413 1.53437,0 0,-1.5776 -1.53437,0 0,-3.15518 z" />
      <path
         inkscape:connector-curvature="0"
         id="path7266"
         d="m 198.52758,514.26308 c -2.85263,0 -4.27895,1.85854 -4.27895,5.94299 0,4.21411 1.46954,5.94298 4.30056,5.94298 2.20431,0 3.71707,-1.57759 3.71707,-4.12767 l -1.75048,0 c 0,1.57759 -0.7996,2.55008 -1.92336,2.55008 -1.68565,0 -2.46364,-1.1886 -2.48525,-3.84673 l 6.15909,0 0,-1.12377 c 0,-3.80351 -1.25343,-5.33788 -3.73868,-5.33788 z m 0,1.5776 c 1.23182,0 1.88015,1.14537 1.88015,3.30646 l -4.27895,0 c 0.15127,-2.1827 0.82121,-3.30646 2.3988,-3.30646 z" />
      <path
         inkscape:connector-curvature="0"
         id="path7268"
         d="m 208.10288,514.26308 c -1.08054,0 -1.64243,0.88605 -1.92337,1.75048 l -0.12966,0 -0.23772,-1.49115 -1.33988,0 0,11.36731 1.77209,0 0,-6.93708 c 0,-2.00981 0.9941,-2.67975 2.11787,-2.67975 l 0.58349,0 0,-1.83692 c 0,0 -0.36738,-0.17289 -0.84282,-0.17289 z" />
      <path
         inkscape:connector-curvature="0"
         id="path7270"
         d="m 137.79586,535.87394 c -1.03733,0 -1.94498,0.54027 -2.48525,1.57759 l -0.10806,0 -0.23772,-1.31826 -1.33987,0 0,15.10598 1.77209,0 0,-4.73277 0.10805,0 c 0.389,0.77799 1.31827,1.25343 2.42042,1.25343 1.88014,0 3.3929,-1.7937 3.3929,-5.92138 0,-4.17089 -1.36148,-5.96459 -3.52256,-5.96459 z m -0.36739,1.57759 c 1.36148,0 2.03142,1.12376 2.03142,3.95479 l 0,0.82121 c 0,2.83102 -0.66994,3.95478 -2.03142,3.95478 -1.36148,0 -2.03142,-1.33987 -2.03142,-3.95478 l 0,-0.82121 c 0,-2.61492 0.66994,-3.95479 2.03142,-3.95479 z" />
      <path
         inkscape:connector-curvature="0"
         id="path7272"
         d="m 150.72083,536.13327 -1.77209,0 0,6.93708 c 0,1.96659 -0.9941,3.11196 -2.11786,3.11196 -0.95088,0 -1.5992,-0.4106 -1.5992,-1.98819 l 0,-8.06085 -1.77209,0 0,8.19051 c 0,2.52847 1.10215,3.43613 2.80941,3.43613 1.12376,0 2.11786,-0.45383 2.74458,-1.5776 l 0.12966,0 0.23772,1.31827 1.33987,0 0,-11.36731 z" />
      <path
         inkscape:connector-curvature="0"
         id="path7274"
         d="m 157.74605,535.87394 c -1.12377,0 -2.11786,0.45382 -2.74458,1.57759 l -0.12966,0 -0.23772,-1.31826 -1.33988,0 0,11.36731 1.77209,0 0,-6.93709 c 0,-1.96659 0.9941,-3.11196 2.11787,-3.11196 0.95087,0 1.5992,0.41061 1.5992,1.9882 l 0,8.06085 1.77209,0 0,-8.19052 c 0,-2.52847 -1.10215,-3.43612 -2.80941,-3.43612 z" />
      <path
         inkscape:connector-curvature="0"
         id="path7276"
         d="m 166.50013,535.87394 c -2.65813,0 -3.88995,1.85853 -3.88995,5.94298 0,4.08445 1.21021,5.94299 3.88995,5.94299 2.50686,0 3.47935,-2.09626 3.47935,-4.47345 l -1.75048,0 c 0,1.88014 -0.45383,2.89585 -1.72887,2.89585 -1.42631,0 -2.03142,-1.33987 -2.03142,-3.95478 l 0,-0.82121 c 0,-2.61492 0.62672,-3.95479 2.03142,-3.95479 1.27504,0 1.64243,0.92927 1.64243,2.89585 l 1.83692,0 c 0,-2.89585 -1.01571,-4.47344 -3.47935,-4.47344 z" />
      <path
         inkscape:connector-curvature="0"
         id="path7278"
         d="m 173.76476,531.87593 -1.77209,0 0,15.62465 1.77209,0 0,-6.93709 c 0,-1.96659 0.9941,-3.11196 2.11786,-3.11196 0.95088,0 1.5992,0.41061 1.5992,1.9882 l 0,8.06085 1.77209,0 0,-8.19052 c 0,-2.52847 -1.10215,-3.43612 -2.80941,-3.43612 -1.12376,0 -1.96659,0.43221 -2.55008,1.44792 l -0.12966,0 0,-5.44593 z" />
      <path
         inkscape:connector-curvature="0"
         id="path7280"
         d="m 183.38327,536.13327 -1.77209,0 0,11.36731 1.77209,0 0,-11.36731 z m 0,-4.25734 -1.77209,0 0,2.11786 1.77209,0 0,-2.11786 z" />
      <path
         inkscape:connector-curvature="0"
         id="path7282"
         d="m 190.20454,535.87394 c -1.12377,0 -2.11787,0.45382 -2.74458,1.57759 l -0.12967,0 -0.23772,-1.31826 -1.33987,0 0,11.36731 1.77209,0 0,-6.93709 c 0,-1.96659 0.9941,-3.11196 2.11786,-3.11196 0.95088,0 1.59921,0.41061 1.59921,1.9882 l 0,8.06085 1.77209,0 0,-8.19052 c 0,-2.52847 -1.10216,-3.43612 -2.80941,-3.43612 z" />
      <path
         inkscape:connector-curvature="0"
         id="path7284"
         d="m 202.15703,534.29634 c -0.10806,0.71316 -0.389,1.44793 -1.40471,1.9882 -0.47544,-0.25933 -1.05893,-0.4106 -1.64242,-0.4106 -2.31236,0 -3.71707,1.44792 -3.71707,3.82512 0,1.27504 0.49705,2.26914 1.31826,2.93907 -0.95087,0.34578 -1.5992,1.03733 -1.5992,1.96659 0,0.66994 0.34577,1.33987 0.92927,1.70726 -0.90766,0.34577 -1.46954,1.31826 -1.46954,2.42041 0,1.49115 0.95088,2.70136 2.80941,2.70136 l 3.22002,0 c 2.16108,0 3.32807,-1.42632 3.32807,-3.22002 0,-1.44792 -1.03732,-2.65813 -2.67975,-2.65813 l -3.24163,0 c -0.56188,0 -1.03732,-0.45383 -1.03732,-1.01571 0,-0.56188 0.45383,-1.01571 1.03732,-1.01571 l 1.1886,0 c 2.20431,-0.0216 3.63062,-1.46954 3.63062,-3.82512 0,-1.12377 -0.38899,-2.03142 -1.01571,-2.67975 1.1886,-0.30255 1.90176,-1.36148 1.90176,-2.72297 l -1.55598,0 z m -1.36149,12.94491 c 0.90766,0 1.33988,0.58349 1.33988,1.31826 0,0.73477 -0.5835,1.33987 -1.33988,1.33987 l -3.13357,0 c -0.88604,0 -1.31826,-0.6051 -1.31826,-1.33987 0,-0.73477 0.4106,-1.31826 1.31826,-1.31826 l 3.13357,0 z m -1.70725,-9.89777 c 1.25343,0 1.94497,0.84282 1.94497,2.35558 0,1.44793 -0.69154,2.35558 -1.94497,2.35558 -1.25343,0 -1.92337,-0.84282 -1.92337,-2.35558 0,-1.44793 0.66994,-2.35558 1.92337,-2.35558 z" />
      <path
         inkscape:connector-curvature="0"
         id="path7286"
         d="m 151.93374,557.48479 c -1.08054,0 -2.16108,0.56188 -2.76619,1.64243 -0.4106,-1.16699 -1.29665,-1.64243 -2.42041,-1.64243 -1.08054,0 -1.9882,0.45383 -2.5933,1.57759 l -0.12967,0 -0.23772,-1.31826 -1.33987,0 0,11.36731 1.77209,0 0,-6.93708 c 0,-1.96659 0.90765,-3.11197 1.96659,-3.11197 0.84282,0 1.46953,0.41061 1.46953,1.9882 l 0,8.06085 1.77209,0 0,-6.93708 c 0,-1.96659 0.88605,-3.11197 1.94498,-3.11197 0.84282,0 1.46954,0.41061 1.46954,1.9882 l 0,8.06085 1.77209,0 0,-8.19051 c 0,-2.52847 -1.08054,-3.43613 -2.67975,-3.43613 z" />
      <path
         inkscape:connector-curvature="0"
         id="path7288"
         d="m 161.10958,557.48479 c -2.85264,0 -4.27895,1.85853 -4.27895,5.94298 0,4.21412 1.46954,5.94299 4.30056,5.94299 2.2043,0 3.71706,-1.57759 3.71706,-4.12767 l -1.75048,0 c 0,1.57759 -0.7996,2.55008 -1.92336,2.55008 -1.68565,0 -2.46364,-1.1886 -2.48525,-3.84673 l 6.15909,0 0,-1.12377 c 0,-3.80351 -1.25343,-5.33788 -3.73867,-5.33788 z m 0,1.57759 c 1.23182,0 1.88014,1.14538 1.88014,3.30646 l -4.27895,0 c 0.15128,-2.18269 0.82121,-3.30646 2.39881,-3.30646 z" />
      <path
         inkscape:connector-curvature="0"
         id="path7290"
         d="m 175.62329,557.48479 c -2.65813,0 -4.06284,1.85853 -4.06284,5.94298 0,4.08446 1.40471,5.94299 4.06284,5.94299 2.65814,0 4.06284,-1.85853 4.06284,-5.94299 0,-4.08445 -1.4047,-5.94298 -4.06284,-5.94298 z m 0,1.57759 c 1.46954,0 2.20431,1.33988 2.20431,3.95479 l 0,0.82121 c 0,2.61491 -0.73477,3.95479 -2.20431,3.95479 -1.46954,0 -2.20431,-1.33988 -2.20431,-3.95479 l 0,-0.82121 c 0,-2.61491 0.73477,-3.95479 2.20431,-3.95479 z" />
      <path
         inkscape:connector-curvature="0"
         id="path7292"
         d="m 189.08854,557.74412 -1.77209,0 0,6.93708 c 0,1.96659 -0.9941,3.11197 -2.11786,3.11197 -0.95088,0 -1.59921,-0.41061 -1.59921,-1.9882 l 0,-8.06085 -1.77209,0 0,8.19051 c 0,2.52847 1.10216,3.43613 2.80941,3.43613 1.12377,0 2.11787,-0.45383 2.74458,-1.57759 l 0.12967,0 0.23772,1.31826 1.33987,0 0,-11.36731 z" />
      <path
         inkscape:connector-curvature="0"
         id="path7294"
         d="m 193.4124,554.58894 -1.3831,0 -0.38899,3.15518 -0.97249,0 0,1.57759 0.97249,0 0,7.39091 c 0,1.29666 0.47544,2.61492 2.03142,2.61492 0.43221,0 0.97249,-0.12967 1.27504,-0.30255 l 0,-1.23182 -0.51866,0 c -0.66994,0 -1.01571,-0.36739 -1.01571,-1.03732 l 0,-7.43414 1.53437,0 0,-1.57759 -1.53437,0 0,-3.15518 z" />
    </g>
  </g>
</svg>
