<?xml version="1.0" encoding="UTF-8" standalone="no"?>
<svg
   xmlns:dc="http://purl.org/dc/elements/1.1/"
   xmlns:cc="http://creativecommons.org/ns#"
   xmlns:rdf="http://www.w3.org/1999/02/22-rdf-syntax-ns#"
   xmlns:svg="http://www.w3.org/2000/svg"
   xmlns="http://www.w3.org/2000/svg"
   xmlns:sodipodi="http://sodipodi.sourceforge.net/DTD/sodipodi-0.dtd"
   xmlns:inkscape="http://www.inkscape.org/namespaces/inkscape"
   sodipodi:docname="kennel.svg"
   inkscape:version="1.0.1 (3bc2e813f5, 2020-09-07)"
   id="svg4565"
   version="1.1"
   viewBox="0 0 76.2 76.200004"
   height="3in"
   width="3in">
  <defs
     id="defs4559" />
  <sodipodi:namedview
     inkscape:snap-object-midpoints="true"
     units="in"
     inkscape:document-rotation="0"
     inkscape:window-maximized="1"
     inkscape:window-y="134"
     inkscape:window-x="1672"
     inkscape:window-height="1017"
     inkscape:window-width="1920"
     showgrid="false"
     inkscape:current-layer="layer1"
     inkscape:document-units="mm"
     inkscape:cy="106.60631"
     inkscape:cx="186.73974"
     inkscape:zoom="1.4"
     inkscape:pageshadow="2"
     inkscape:pageopacity="0.0"
     borderopacity="1.0"
     bordercolor="#666666"
     pagecolor="#ffffff"
     id="base"
     inkscape:snap-bbox="true"
     inkscape:bbox-paths="true"
     inkscape:bbox-nodes="true"
     inkscape:snap-bbox-edge-midpoints="true" />
  <metadata
     id="metadata4562">
    <rdf:RDF>
      <cc:Work
         rdf:about="">
        <dc:format>image/svg+xml</dc:format>
        <dc:type
           rdf:resource="http://purl.org/dc/dcmitype/StillImage" />
        <dc:title />
      </cc:Work>
    </rdf:RDF>
  </metadata>
  <g
     id="layer1"
     inkscape:groupmode="layer"
     inkscape:label="Layer 1">
    <g
       id="g21"
       transform="matrix(0.47075406,-0.27178998,0.27178998,0.47075406,-29.803114,66.056713)">
      <path
         inkscape:connector-curvature="0"
         d="m 150.17453,27.451513 c 0.16879,1.743758 0.29199,3.484046 0.22317,5.258065 l -3.85982,3.858603 c 1.11763,-4.023976 1.4792,-8.568785 -0.61449,-13.330396 l 0.032,-0.0041 z m -4.88769,-3.037946 c 1.90785,4.944914 1.09264,9.604769 -0.32478,13.729957 l -2.67446,2.673617 c -0.49721,-0.422971 -1.00805,-0.785527 -1.53887,-1.088747 0.49903,-0.101272 0.97963,-0.243578 1.38178,-0.453491 0.56251,-0.293679 1.04458,-0.8281 1.44629,-1.299149 0.40165,-0.471037 0.69483,-0.885423 0.69483,-0.885423 l -0.8572,-0.606181 c 0,0 -0.26929,0.379039 -0.63743,0.810696 -0.36823,0.431594 -0.86366,0.909254 -1.13263,1.049571 -0.49677,0.259405 -1.55309,0.455509 -2.44183,0.542766 -0.12114,0.01275 -0.24248,0.02241 -0.36386,0.03172 -0.4784,-0.138136 -0.97444,-0.237855 -1.49337,-0.299852 -2.50339,-0.298609 -5.48483,0.228232 -9.49779,1.29835 -0.95517,-0.418568 -2.09729,-1.28433 -3.08715,-2.228151 0.0991,-0.01794 0.19713,-0.04479 0.29243,-0.07724 0.57869,-0.20134 1.08717,-0.73347 1.14196,-1.447237 0.0522,-0.675738 0.0272,-1.509493 -0.25878,-2.267034 -0.12496,-0.331404 -0.31816,-0.651878 -0.57901,-0.917729 l -0.008,-0.0079 3.33411,-1.82866 c 0.53672,-0.207063 0.93381,-0.584729 1.20477,-1.012079 0.27843,-0.439193 0.44481,-0.927963 0.58794,-1.415336 0.28551,-0.973415 0.49778,-1.943854 0.96815,-2.531091 0.99252,-1.202621 2.48759,-1.432071 4.05174,-2.052077 l 0.1482,-0.05851 0.0893,-0.1309 c 1.37517,-1.988772 1.70684,-4.464569 2.01085,-6.990784 2.24796,1.839135 3.95126,5.216525 5.30372,7.736105 l 0.2204,0.408437 0.43187,-0.16751 c 0.54874,-0.211649 1.07783,-0.382207 1.58801,-0.51426 z m -16.60506,6.728005 c -0.0159,0.0041 -0.029,0.01275 -0.046,0.01656 l 0.0736,-0.03379 z m 7.37418,-13.94229 c 0.18231,0.181581 0.35826,0.369678 0.52408,0.566674 -0.28185,2.075794 -0.66179,3.965458 -1.63124,5.44326 -0.10513,0.03979 -0.21247,0.07786 -0.32099,0.115374 0.35051,-2.401509 0.50924,-4.931995 -0.36385,-7.588483 0.70797,0.483187 1.29922,0.972502 1.79199,1.463146 z m -11.50124,16.330022 c -1.77262,1.260986 -1.0608,2.148428 -0.34729,3.133135 -0.46836,-0.267964 -1.81061,-1.297672 -1.59847,-2.170467 0.17086,-0.703066 1.36044,-0.892582 1.94578,-0.962665 z m 9.80681,-5.948825 c -0.80176,0.319024 -1.45748,0.885142 -2.11191,1.466249 0.51892,0.63722 1.03533,0.675468 1.67564,0.55912 0.73522,-0.548616 1.13202,-1.360852 1.1472,-2.229371 -0.25047,0.04593 -0.48664,0.114755 -0.71105,0.204026 z"
         style="font-variation-settings:normal;display:inline;vector-effect:none;fill:#000000;fill-opacity:1;stroke:none;stroke-width:0.47321;stroke-linecap:round;stroke-linejoin:round;stroke-miterlimit:4;stroke-dasharray:none;stroke-dashoffset:0;stroke-opacity:1;paint-order:markers fill stroke;stop-color:#000000"
         id="path25834-6-8" />
      <path
         id="rect8-6-4"
         style="font-variation-settings:normal;display:inline;vector-effect:none;fill:#000000;fill-opacity:1;stroke-width:0.47321;stroke-linecap:round;stroke-linejoin:round;stroke-miterlimit:4;stroke-dasharray:none;stroke-dashoffset:0;stroke-opacity:1;paint-order:markers fill stroke;stop-color:#000000"
         d="M 133.04917,-30.62242 86.551233,15.873968 h 6.993371 l 39.505076,-39.503533 39.50199,39.503533 h 6.99234 z m 5.3e-4,14.628048 -32.87965,32.878096 V 46.49742 h 15.52722 V 27.180254 a 17.350431,17.350431 0 0 1 0,-0.162264 17.350431,17.350431 0 0 1 17.19688,-17.3503644 17.350431,17.350431 0 0 1 0.15348,0 17.350431,17.350431 0 0 1 17.35191,17.3503644 17.350431,17.350431 0 0 1 -0.002,0.162264 h 0.002 V 46.49742 h 15.52567 V 16.882692 Z" />
    </g>
  </g>
</svg>
