<?xml version="1.0" encoding="UTF-8" standalone="no"?>
<svg
   xmlns:dc="http://purl.org/dc/elements/1.1/"
   xmlns:cc="http://creativecommons.org/ns#"
   xmlns:rdf="http://www.w3.org/1999/02/22-rdf-syntax-ns#"
   xmlns:svg="http://www.w3.org/2000/svg"
   xmlns="http://www.w3.org/2000/svg"
   xmlns:sodipodi="http://sodipodi.sourceforge.net/DTD/sodipodi-0.dtd"
   xmlns:inkscape="http://www.inkscape.org/namespaces/inkscape"
   sodipodi:docname="kennel.svg"
   inkscape:version="1.0 (4035a4fb49, 2020-05-01)"
   id="svg4565"
   version="1.1"
   viewBox="0 0 76.2 76.200004"
   height="3in"
   width="3in">
  <defs
     id="defs4559" />
  <sodipodi:namedview
     inkscape:snap-object-midpoints="true"
     units="in"
     inkscape:document-rotation="0"
     inkscape:window-maximized="1"
     inkscape:window-y="134"
     inkscape:window-x="1672"
     inkscape:window-height="1017"
     inkscape:window-width="1920"
     showgrid="false"
     inkscape:current-layer="layer1"
     inkscape:document-units="mm"
     inkscape:cy="121.40083"
     inkscape:cx="248.37083"
     inkscape:zoom="2.8"
     inkscape:pageshadow="2"
     inkscape:pageopacity="0.0"
     borderopacity="1.0"
     bordercolor="#666666"
     pagecolor="#ffffff"
     id="base"
     inkscape:snap-bbox="true"
     inkscape:bbox-paths="true"
     inkscape:bbox-nodes="true"
     inkscape:snap-bbox-edge-midpoints="true" />
  <metadata
     id="metadata4562">
    <rdf:RDF>
      <cc:Work
         rdf:about="">
        <dc:format>image/svg+xml</dc:format>
        <dc:type
           rdf:resource="http://purl.org/dc/dcmitype/StillImage" />
        <dc:title />
      </cc:Work>
    </rdf:RDF>
  </metadata>
  <g
     id="layer1"
     inkscape:groupmode="layer"
     inkscape:label="Layer 1">
    <g
       style="fill:#000000;stroke-width:0.599902"
       transform="matrix(1.4436132,-0.83347047,0.83347047,1.4436132,75.172085,-8.6568336)"
       id="g15">
      <path
         id="path25834-0"
         style="font-variation-settings:normal;display:inline;vector-effect:none;fill:#000000;fill-opacity:1;stroke:none;stroke-width:0.159681;stroke-linecap:round;stroke-linejoin:round;stroke-miterlimit:4;stroke-dasharray:none;stroke-dashoffset:0;stroke-opacity:1;paint-order:markers fill stroke;stop-color:#000000"
         d="m -27.764325,11.261504 c 0.06734,0.69577 0.116502,1.390156 0.08904,2.097999 l -1.540092,1.539608 c 0.445943,-1.60559 0.590212,-3.418997 -0.245185,-5.3189099 l 0.01284,-0.0016 z m -1.95022,-1.212159 c 0.761244,1.973052 0.435971,3.832363 -0.129586,5.478338 l -1.067124,1.066788 c -0.19839,-0.168765 -0.402218,-0.313428 -0.614022,-0.434416 0.199118,-0.04042 0.390881,-0.09719 0.55134,-0.180945 0.224448,-0.117187 0.416795,-0.330416 0.57708,-0.518368 0.160262,-0.187949 0.277243,-0.35329 0.277243,-0.35329 l -0.342025,-0.241869 c 0,0 -0.107458,0.151239 -0.254339,0.323472 -0.146928,0.172209 -0.34461,0.362798 -0.45193,0.418786 -0.198216,0.103506 -0.619691,0.181749 -0.974308,0.216567 -0.04833,0.0051 -0.09674,0.0089 -0.145179,0.01269 -0.190887,-0.05512 -0.388807,-0.09491 -0.595866,-0.119638 -0.998867,-0.119157 -2.18848,0.09106 -3.789674,0.518049 -0.38112,-0.16701 -0.836834,-0.512454 -1.231795,-0.889045 0.03954,-0.0071 0.07865,-0.01787 0.116677,-0.03082 0.2309,-0.08034 0.433789,-0.292659 0.455649,-0.577456 0.02084,-0.269623 0.01094,-0.602298 -0.103257,-0.904561 -0.04986,-0.132226 -0.126946,-0.260102 -0.231027,-0.36618 l -0.0032,-0.0032 1.330331,-0.729646 c 0.214156,-0.08262 0.372593,-0.233309 0.48071,-0.403826 0.11109,-0.175239 0.177481,-0.370263 0.234591,-0.564728 0.11392,-0.388397 0.198618,-0.775609 0.3863,-1.009921 0.39602,-0.479853 0.99256,-0.571405 1.616668,-0.8187909 l 0.05913,-0.02335 0.03562,-0.05223 c 0.548702,-0.793532 0.681039,-1.781391 0.802343,-2.789367 0.896947,0.733827 1.576576,2.081427 2.116214,3.0867529 l 0.08794,0.16297 0.172318,-0.06684 c 0.21895,-0.08445 0.430058,-0.152502 0.633626,-0.205193 z m -6.62552,2.684515 c -0.0064,0.0016 -0.01167,0.0051 -0.01834,0.0066 l 0.02938,-0.01342 z m 2.942342,-5.5630589 c 0.07273,0.07245 0.142947,0.147504 0.20911,0.226106 -0.112462,0.828254 -0.26406,1.582243 -0.650875,2.171894 -0.04196,0.01588 -0.08478,0.03107 -0.128069,0.04603 0.139855,-0.958216 0.203186,-1.967896 -0.145179,-3.0278523 0.282484,0.1927953 0.518398,0.3880342 0.715014,0.5838053 z m -4.589065,6.5157779 c -0.707287,0.503143 -0.423264,0.857237 -0.138571,1.250142 -0.186905,-0.106875 -0.722447,-0.51778 -0.637798,-0.86603 0.06818,-0.280529 0.542822,-0.356147 0.776375,-0.384112 z m 3.912973,-2.373616 c -0.319903,0.127296 -0.58154,0.353177 -0.842662,0.585042 0.207053,0.254255 0.413105,0.269515 0.668591,0.223092 0.293359,-0.2189 0.451685,-0.542989 0.457738,-0.889532 -0.09993,0.01832 -0.194173,0.04579 -0.283709,0.08141 z"
         inkscape:connector-curvature="0" />
      <path
         id="rect8-8"
         style="fill:#000000;stroke-width:0.159682;stroke-linecap:round;stroke-linejoin:round;paint-order:markers fill stroke;stop-color:#000000"
         d="M -33.56166,-2.6717439 -48.738594,12.504257 h 4.445369 v 9.995457 h 3.912901 V 12.110569 l 0.01676,-10e-7 c 0.123708,-3.6705357 3.134859,-6.582266 6.807476,-6.582733 3.762221,3.8e-5 6.812097,3.0499143 6.812134,6.812135 0,0.134998 -0.0031,0.269954 -0.01123,0.404718 v 9.755026 h 3.92409 v -9.995457 h 4.445372 z"
         sodipodi:nodetypes="ccccccccscccccc" />
    </g>
  </g>
</svg>
