<?xml version="1.0" encoding="UTF-8" standalone="no"?>
<svg
   xmlns:dc="http://purl.org/dc/elements/1.1/"
   xmlns:cc="http://creativecommons.org/ns#"
   xmlns:rdf="http://www.w3.org/1999/02/22-rdf-syntax-ns#"
   xmlns:svg="http://www.w3.org/2000/svg"
   xmlns="http://www.w3.org/2000/svg"
   xmlns:sodipodi="http://sodipodi.sourceforge.net/DTD/sodipodi-0.dtd"
   xmlns:inkscape="http://www.inkscape.org/namespaces/inkscape"
   sodipodi:docname="kennel.svg"
   inkscape:version="1.0 (4035a4fb49, 2020-05-01)"
   id="svg4565"
   version="1.1"
   viewBox="0 0 76.2 76.200004"
   height="3in"
   width="3in">
  <defs
     id="defs4559" />
  <sodipodi:namedview
     inkscape:snap-object-midpoints="true"
     units="in"
     inkscape:document-rotation="0"
     inkscape:window-maximized="1"
     inkscape:window-y="134"
     inkscape:window-x="1672"
     inkscape:window-height="1017"
     inkscape:window-width="1920"
     showgrid="false"
     inkscape:current-layer="layer1"
     inkscape:document-units="mm"
     inkscape:cy="121.40083"
     inkscape:cx="248.37083"
     inkscape:zoom="2.8"
     inkscape:pageshadow="2"
     inkscape:pageopacity="0.0"
     borderopacity="1.0"
     bordercolor="#666666"
     pagecolor="#ffffff"
     id="base"
     inkscape:snap-bbox="true"
     inkscape:bbox-paths="true"
     inkscape:bbox-nodes="true"
     inkscape:snap-bbox-edge-midpoints="true" />
  <metadata
     id="metadata4562">
    <rdf:RDF>
      <cc:Work
         rdf:about="">
        <dc:format>image/svg+xml</dc:format>
        <dc:type
           rdf:resource="http://purl.org/dc/dcmitype/StillImage" />
        <dc:title />
      </cc:Work>
    </rdf:RDF>
  </metadata>
  <g
     id="layer1"
     inkscape:groupmode="layer"
     inkscape:label="Layer 1">
    <g
       style="stroke-width:0.515574"
       transform="matrix(1.6797294,-0.96979223,0.96979223,1.6797294,-157.67318,28.037129)"
       id="g52">
      <path
         inkscape:connector-curvature="0"
         d="m 89.539187,57.725483 c 0.04895,0.505708 0.08468,1.01041 0.06472,1.524894 l -1.119388,1.119036 c 0.324126,-1.166995 0.428984,-2.485038 -0.178209,-3.865956 l 0.0093,-0.0012 z m -1.417482,-0.881037 c 0.553297,1.434078 0.316877,2.785485 -0.09419,3.981833 l -0.775621,0.775377 c -0.144196,-0.122665 -0.292345,-0.22781 -0.44629,-0.315748 0.144724,-0.02937 0.284104,-0.07064 0.400731,-0.131517 0.163136,-0.08517 0.30294,-0.240157 0.41944,-0.376767 0.116484,-0.136606 0.201509,-0.256782 0.201509,-0.256782 l -0.248596,-0.175798 c 0,0 -0.0781,0.109925 -0.184862,0.23511 -0.106791,0.125167 -0.250472,0.263693 -0.328477,0.304387 -0.144068,0.07523 -0.45041,0.132102 -0.708157,0.157407 -0.03513,0.0037 -0.07032,0.0065 -0.105521,0.0092 -0.138743,-0.04006 -0.282597,-0.06898 -0.433095,-0.08696 -0.726009,-0.0866 -1.590658,0.06619 -2.754458,0.376535 -0.27701,-0.121389 -0.608238,-0.372469 -0.895308,-0.646187 0.02873,-0.0052 0.05717,-0.01299 0.08481,-0.0224 0.167826,-0.05839 0.315292,-0.212714 0.33118,-0.419714 0.01515,-0.195971 0.0079,-0.437769 -0.07505,-0.657464 -0.03624,-0.09611 -0.09227,-0.189051 -0.167917,-0.266151 l -0.0023,-0.0023 0.966927,-0.530331 c 0.155655,-0.06005 0.270813,-0.169577 0.349395,-0.293513 0.08075,-0.12737 0.129,-0.26912 0.170509,-0.410463 0.0828,-0.2823 0.144362,-0.563738 0.280775,-0.734043 0.28784,-0.348773 0.721425,-0.415316 1.175047,-0.595124 l 0.04298,-0.01697 0.02589,-0.03796 c 0.398814,-0.576765 0.495,-1.294772 0.583168,-2.027402 0.651931,0.533369 1.145907,1.512848 1.538134,2.243552 l 0.06392,0.118452 0.125246,-0.04858 c 0.15914,-0.06138 0.31258,-0.110844 0.46054,-0.149141 z m -4.815642,1.951193 c -0.0046,0.0012 -0.0084,0.0037 -0.01333,0.0048 l 0.02135,-0.0098 z m 2.138589,-4.043411 c 0.05287,0.05266 0.103899,0.10721 0.151989,0.164341 -0.08174,0.602002 -0.191927,1.150025 -0.473077,1.578603 -0.03049,0.01154 -0.06162,0.02258 -0.09309,0.03346 0.101652,-0.696463 0.147683,-1.430331 -0.10552,-2.200741 0.205319,0.14013 0.376788,0.282036 0.519694,0.424328 z m -3.33548,4.735879 c -0.51408,0.365699 -0.307643,0.623067 -0.100719,0.908642 -0.135849,-0.07768 -0.525096,-0.376339 -0.463572,-0.629458 0.04955,-0.203897 0.394541,-0.258859 0.564296,-0.279184 z m 2.844076,-1.725222 c -0.232518,0.09252 -0.422683,0.2567 -0.612475,0.425227 0.150493,0.184801 0.300258,0.195893 0.485954,0.162151 0.213222,-0.159104 0.328299,-0.394662 0.332699,-0.646541 -0.07264,0.01332 -0.141131,0.03328 -0.20621,0.05917 z"
         style="font-variation-settings:normal;display:inline;opacity:1;vector-effect:none;fill:#000000;fill-opacity:1;stroke:none;stroke-width:0.137236;stroke-linecap:round;stroke-linejoin:round;stroke-miterlimit:4;stroke-dasharray:none;stroke-dashoffset:0;stroke-opacity:1;paint-order:markers fill stroke;stop-color:#000000;stop-opacity:1"
         id="path25834-6" />
      <g
         style="stroke-width:0.515574"
         id="g47">
        <path
           d="M 84.57269,40.883441 71.087725,54.367889 h 3.94963 V 63.249 h 4.503085 v -5.602241 a 5.0318085,5.0318085 0 0 1 0,-0.04703 5.0318085,5.0318085 0 0 1 4.987292,-5.031734 5.0318085,5.0318085 0 0 1 0.04444,0 5.0318085,5.0318085 0 0 1 5.032252,5.031734 5.0318085,5.0318085 0 0 1 -5.3e-4,0.04703 h 5.3e-4 V 63.249 h 4.502567 v -8.881111 h 3.949629 z"
           style="font-variation-settings:normal;opacity:1;vector-effect:none;fill:#000000;fill-opacity:1;stroke-width:0.137236;stroke-linecap:round;stroke-linejoin:round;stroke-miterlimit:4;stroke-dasharray:none;stroke-dashoffset:0;stroke-opacity:1;paint-order:markers fill stroke;stop-color:#000000;stop-opacity:1"
           id="rect8-6" />
      </g>
    </g>
  </g>
</svg>
