<?xml version="1.0" encoding="UTF-8" standalone="no"?>
<svg
   xmlns:dc="http://purl.org/dc/elements/1.1/"
   xmlns:cc="http://creativecommons.org/ns#"
   xmlns:rdf="http://www.w3.org/1999/02/22-rdf-syntax-ns#"
   xmlns:svg="http://www.w3.org/2000/svg"
   xmlns="http://www.w3.org/2000/svg"
   xmlns:sodipodi="http://sodipodi.sourceforge.net/DTD/sodipodi-0.dtd"
   xmlns:inkscape="http://www.inkscape.org/namespaces/inkscape"
   sodipodi:docname="keycard-lock.svg"
   inkscape:version="1.0 (4035a4fb49, 2020-05-01)"
   id="svg8"
   version="1.1"
   viewBox="0 0 76.2 76.200003"
   height="3in"
   width="3in">
  <defs
     id="defs2">
    <inkscape:perspective
       id="perspective5044"
       inkscape:persp3d-origin="75 : 50 : 1"
       inkscape:vp_z="150 : 75 : 1"
       inkscape:vp_y="0 : 1000 : 0"
       inkscape:vp_x="0 : 75 : 1"
       sodipodi:type="inkscape:persp3d" />
    <pattern
       id="EMFhbasepattern"
       patternUnits="userSpaceOnUse"
       width="6"
       height="6"
       x="0"
       y="0" />
  </defs>
  <sodipodi:namedview
     units="in"
     showgrid="false"
     inkscape:document-rotation="0"
     inkscape:current-layer="layer1"
     inkscape:document-units="mm"
     inkscape:cy="233.65085"
     inkscape:cx="605.31855"
     inkscape:zoom="1.979899"
     inkscape:pageshadow="2"
     inkscape:pageopacity="0.0"
     borderopacity="1.0"
     bordercolor="#666666"
     pagecolor="#ffffff"
     id="base" />
  <metadata
     id="metadata5">
    <rdf:RDF>
      <cc:Work
         rdf:about="">
        <dc:format>image/svg+xml</dc:format>
        <dc:type
           rdf:resource="http://purl.org/dc/dcmitype/StillImage" />
        <dc:title />
      </cc:Work>
    </rdf:RDF>
  </metadata>
  <g
     id="layer1"
     inkscape:groupmode="layer"
     inkscape:label="Layer 1">
    <g
       id="g864"
       transform="matrix(0.10481673,-0.06051596,0.06051596,0.10481673,-84.001825,108.85497)"
       style="font-variation-settings:normal;opacity:1;vector-effect:none;fill:#000000;fill-opacity:1;stroke:none;stroke-width:2.18606;stroke-linecap:butt;stroke-linejoin:miter;stroke-miterlimit:4;stroke-dasharray:none;stroke-dashoffset:0;stroke-opacity:1;stop-color:#000000;stop-opacity:1">
      <path
         inkscape:connector-curvature="0"
         id="rect824"
         d="m 1051.0322,-78.745747 c -7.0892,-3.163825 -15.3444,-0.0046 -18.5082,7.084505 l -36.60653,82.023931 c -3.1638,7.089175 0,15.343481 7.08703,18.507306 l 28.0643,12.52484 48.0277,-107.615752 z m 45.8833,20.477209 -48.0278,107.615748 0.6861,0.306267 c 7.0892,3.163826 15.3429,0.004 18.5067,-7.085207 l 36.6065,-82.023942 c 3.1638,-7.089175 0,-15.342765 -7.0852,-18.506587 z"
         style="font-variation-settings:normal;opacity:1;vector-effect:none;fill:#000000;fill-opacity:1;stroke:none;stroke-width:2.18606;stroke-linecap:butt;stroke-linejoin:miter;stroke-miterlimit:4;stroke-dasharray:none;stroke-dashoffset:0;stroke-opacity:1;stop-color:#000000;stop-opacity:1" />
      <g
         transform="matrix(0.63066298,0,0,0.63066298,1074.913,-163.30652)"
         id="g843"
         class=""
         style="font-variation-settings:normal;vector-effect:none;fill:#000000;fill-opacity:1;stroke:none;stroke-width:3.46629;stroke-linecap:butt;stroke-linejoin:miter;stroke-miterlimit:4;stroke-dasharray:none;stroke-dashoffset:0;stroke-opacity:1;stop-color:#000000;stop-opacity:1">
        <path
           id="path841"
           d="m 380.384,169.214 v -68.276 h 17.01 V 29.548 H 96 v 452.905 h 301.395 v -78.11 h -17.01 v -85.287 h 17.01 v -132.83 h -17.01 V 169.214 Z M 326.036,47.61 a 8.505,8.505 0 1 1 -8.506,8.506 8.505,8.505 0 0 1 8.506,-8.506 z m -40.315,0 a 8.505,8.505 0 1 1 -8.505,8.506 8.505,8.505 0 0 1 8.506,-8.506 z m -41.367,0 a 8.505,8.505 0 1 1 -8.505,8.506 8.505,8.505 0 0 1 8.505,-8.506 z m -41.378,0 a 8.505,8.505 0 1 1 -8.505,8.506 8.505,8.505 0 0 1 8.505,-8.506 z m -41.367,0 a 8.505,8.505 0 1 1 -8.506,8.506 8.505,8.505 0 0 1 8.506,-8.506 z m -47.385,6.89 a 8.835,8.835 0 0 1 0.52,-1.68 8.57,8.57 0 0 1 1.776,-2.7 8.697,8.697 0 0 1 1.296,-1.064 8.388,8.388 0 0 1 1.5,-0.797 8.91,8.91 0 0 1 1.498,-0.47 8.6,8.6 0 0 1 7.73,2.32 8.048,8.048 0 0 1 1.062,1.328 8.197,8.197 0 0 1 0.777,1.456 8.42,8.42 0 0 1 0.467,1.5 9.005,9.005 0 0 1 0.18,1.71 8.77,8.77 0 0 1 -0.158,1.628 9.175,9.175 0 0 1 -0.5,1.648 8.208,8.208 0 0 1 -0.776,1.445 8.718,8.718 0 0 1 -1.063,1.297 8.505,8.505 0 0 1 -14.523,-6.017 8.792,8.792 0 0 1 0.213,-1.605 z m 8.356,37.508 a 8.505,8.505 0 1 1 -8.506,8.505 8.505,8.505 0 0 1 8.505,-8.505 z m 0,44.408 a 8.505,8.505 0 1 1 -8.506,8.505 8.505,8.505 0 0 1 8.505,-8.483 z m 0,44.42 a 8.505,8.505 0 1 1 -8.506,8.504 8.505,8.505 0 0 1 8.505,-8.484 z m 8.345,276.61 a 8.92,8.92 0 0 1 -0.49,1.617 8.06,8.06 0 0 1 -0.786,1.49 8.505,8.505 0 0 1 -1.064,1.296 7.984,7.984 0 0 1 -1.34,1.062 8.388,8.388 0 0 1 -3.05,1.244 7.75,7.75 0 0 1 -1.628,0.16 8.505,8.505 0 0 1 -8.505,-8.506 9.026,9.026 0 0 1 0.15,-1.605 v -0.14 a 8.707,8.707 0 0 1 0.488,-1.55 7.995,7.995 0 0 1 0.766,-1.415 7.857,7.857 0 0 1 1.064,-1.297 9.42,9.42 0 0 1 1.222,-1.063 l 0.15,-0.096 a 10.11,10.11 0 0 1 1.34,-0.712 l 0.126,-0.053 a 8.697,8.697 0 0 1 1.563,-0.458 8.4,8.4 0 0 1 3.286,0 8.505,8.505 0 0 1 1.542,0.457 10.313,10.313 0 0 1 1.435,0.754 l 0.096,0.063 a 8.814,8.814 0 0 1 1.264,1.064 7.974,7.974 0 0 1 1.063,1.34 8.112,8.112 0 0 1 0.766,1.457 8.505,8.505 0 0 1 0.457,1.467 v 0.138 a 8.973,8.973 0 0 1 0.16,1.605 8.782,8.782 0 0 1 -0.075,1.7 z m -8.346,-37.528 a 8.505,8.505 0 1 1 8.504,-8.506 8.505,8.505 0 0 1 -8.505,8.527 z m 0,-44.42 a 8.505,8.505 0 1 1 8.504,-8.504 8.505,8.505 0 0 1 -8.505,8.526 z m 0,-44.407 a 8.505,8.505 0 1 1 8.504,-8.504 8.505,8.505 0 0 1 -8.505,8.526 z m -13.822,-75.133 a 32.267,32.267 0 1 1 32.267,32.267 32.3,32.3 0 0 1 -32.267,-32.235 z m 53.062,208.38 a 8.505,8.505 0 1 1 8.505,-8.506 8.505,8.505 0 0 1 -8.505,8.517 z m 41.378,0 a 8.505,8.505 0 1 1 8.506,-8.506 8.505,8.505 0 0 1 -8.506,8.517 z m 41.368,0 a 8.505,8.505 0 1 1 8.505,-8.506 8.505,8.505 0 0 1 -8.504,8.517 z m 41.367,0 a 8.505,8.505 0 1 1 8.505,-8.506 8.505,8.505 0 0 1 -8.505,8.517 z m 40.315,0 a 8.505,8.505 0 1 1 8.505,-8.506 8.505,8.505 0 0 1 -8.505,8.517 z m 19.977,-34.32 H 147.17 V 294.72 H 346.225 V 430.028 Z M 194.47,255.99 a 8.505,8.505 0 1 1 8.505,8.505 8.505,8.505 0 0 1 -8.505,-8.506 z m 41.378,0 a 8.505,8.505 0 1 1 8.505,8.505 8.505,8.505 0 0 1 -8.505,-8.506 z m 41.367,0 a 8.505,8.505 0 1 1 8.506,8.505 8.505,8.505 0 0 1 -8.505,-8.506 z m 40.315,0 a 8.505,8.505 0 1 1 8.506,8.505 8.505,8.505 0 0 1 -8.506,-8.506 z m 28.706,-49.778 H 147.17 V 81.568 h 199.055 v 124.644 z m 25.292,255.658 a 8.57,8.57 0 0 1 -6.017,2.488 8.037,8.037 0 0 1 -1.71,-0.18 8.388,8.388 0 0 1 -1.5,-0.458 9.164,9.164 0 0 1 -1.49,-0.798 7.804,7.804 0 0 1 -1.306,-1.063 8.505,8.505 0 0 1 -1.063,-1.287 8.048,8.048 0 0 1 -0.786,-1.478 7.793,7.793 0 0 1 -0.49,-1.616 8.803,8.803 0 0 1 -0.16,-1.628 8.973,8.973 0 0 1 0.16,-1.605 8.665,8.665 0 0 1 1.287,-3.104 7.772,7.772 0 0 1 1.064,-1.297 8.686,8.686 0 0 1 1.266,-1.064 l 0.095,-0.063 a 10.11,10.11 0 0 1 1.34,-0.714 8.835,8.835 0 0 1 1.69,-0.51 8.356,8.356 0 0 1 3.285,0 8.697,8.697 0 0 1 1.52,0.447 l 0.14,0.053 a 10.026,10.026 0 0 1 1.34,0.712 l 0.137,0.085 a 9.345,9.345 0 0 1 1.233,1.063 7.92,7.92 0 0 1 1.063,1.34 8.675,8.675 0 0 1 0.734,1.37 9.93,9.93 0 0 1 0.49,1.564 v 0.117 a 8.994,8.994 0 0 1 0.148,1.616 8.57,8.57 0 0 1 -2.488,5.996 z m 2.307,-404 a 8.314,8.314 0 0 1 -0.436,1.467 v 0.117 a 8.92,8.92 0 0 1 -0.766,1.414 8.325,8.325 0 0 1 -2.35,2.35 8.303,8.303 0 0 1 -1.5,0.797 7.91,7.91 0 0 1 -1.604,0.468 7.793,7.793 0 0 1 -1.627,0.16 8.08,8.08 0 0 1 -1.712,-0.182 7.602,7.602 0 0 1 -1.583,-0.488 8.1,8.1 0 0 1 -1.414,-0.754 7.9,7.9 0 0 1 -1.297,-1.064 8.505,8.505 0 0 1 0,-12.024 7.974,7.974 0 0 1 1.34,-1.063 8.208,8.208 0 0 1 1.456,-0.766 8.388,8.388 0 0 1 1.5,-0.456 8.505,8.505 0 0 1 3.39,0 9.11,9.11 0 0 1 1.596,0.49 8.112,8.112 0 0 1 1.456,0.775 8.633,8.633 0 0 1 1.287,1.063 8.165,8.165 0 0 1 1.064,1.34 8.378,8.378 0 0 1 1.17,2.997 7.697,7.697 0 0 1 0.16,1.616 8.06,8.06 0 0 1 -0.16,1.723 z M 164.18,98.578 h 165.034 v 90.624 H 164.18 Z m 0,213.153 H 329.214 V 413.02 H 164.18 V 311.73 Z M 416,169.215 H 397.395 V 117.95 H 416 v 51.264 z M 397.395,387.333 V 336.067 H 416 v 51.266 z M 125.768,255.99 a 15.256,15.256 0 1 1 15.257,15.256 15.256,15.256 0 0 1 -15.257,-15.257 z"
           inkscape:connector-curvature="0"
           style="font-variation-settings:normal;vector-effect:none;fill:#000000;fill-opacity:1;stroke:none;stroke-width:3.46629;stroke-linecap:butt;stroke-linejoin:miter;stroke-miterlimit:4;stroke-dasharray:none;stroke-dashoffset:0;stroke-opacity:1;stop-color:#000000;stop-opacity:1" />
      </g>
    </g>
  </g>
</svg>
