<?xml version="1.0" encoding="UTF-8" standalone="no"?>
<!-- Created with Inkscape (http://www.inkscape.org/) -->

<svg
   xmlns:dc="http://purl.org/dc/elements/1.1/"
   xmlns:cc="http://creativecommons.org/ns#"
   xmlns:rdf="http://www.w3.org/1999/02/22-rdf-syntax-ns#"
   xmlns:svg="http://www.w3.org/2000/svg"
   xmlns="http://www.w3.org/2000/svg"
   xmlns:sodipodi="http://sodipodi.sourceforge.net/DTD/sodipodi-0.dtd"
   xmlns:inkscape="http://www.inkscape.org/namespaces/inkscape"
   width="0.85000002in"
   height="0.85000002in"
   viewBox="0 0 76.500006 76.500004"
   id="svg5569"
   version="1.1"
   inkscape:version="0.91 r13725"
   sodipodi:docname="laser-system.svg">
  <defs
     id="defs5571" />
  <sodipodi:namedview
     id="base"
     pagecolor="#ffffff"
     bordercolor="#666666"
     borderopacity="1.0"
     inkscape:pageopacity="0.0"
     inkscape:pageshadow="2"
     inkscape:zoom="5.6"
     inkscape:cx="30.138676"
     inkscape:cy="35.208975"
     inkscape:document-units="px"
     inkscape:current-layer="g6175"
     showgrid="false"
     inkscape:window-width="1920"
     inkscape:window-height="1017"
     inkscape:window-x="1672"
     inkscape:window-y="185"
     inkscape:window-maximized="1"
     units="in" />
  <metadata
     id="metadata5574">
    <rdf:RDF>
      <cc:Work
         rdf:about="">
        <dc:format>image/svg+xml</dc:format>
        <dc:type
           rdf:resource="http://purl.org/dc/dcmitype/StillImage" />
        <dc:title></dc:title>
      </cc:Work>
    </rdf:RDF>
  </metadata>
  <g
     inkscape:label="Layer 1"
     inkscape:groupmode="layer"
     id="layer1"
     transform="translate(0,-975.86226)">
    <g
       id="g6175"
       transform="matrix(1.1748825,0,0,1.1748825,0.49424217,-171.09874)">
      <path
         sodipodi:nodetypes="ccccccccccccccccsssccccccccccccccccccccccc"
         id="path6"
         d="m 28.071274,1002.2414 c -1.492403,0.026 -2.826095,0.7305 -3.855171,1.8145 -1.219518,1.2849 -2.004958,3.093 -2.004958,4.9462 0.285118,3.6468 2.918959,7.1936 6.705134,6.7023 l 0.353482,-0.05 16.403816,-2.3282 0,-3.4879 1.614431,0 0,3.0157 1.651297,-0.2346 0,-2.7811 1.327047,0 4.18e-4,2.35 1.651385,-0.232 0,-2.1183 1.754545,0 c 0.353481,1.3385 1.571762,2.3254 3.021127,2.3254 1.726062,0 3.126115,-1.4001 3.126115,-3.1262 0,-1.726 -1.400053,-3.1234 -3.126115,-3.1234 -1.430719,0 -2.633798,0.9608 -3.004602,2.273 l -1.77107,0 0,-1.809 -1.651473,-0.2625 0,2.0715 -1.327047,0 0,-2.5545 -1.651473,-0.2626 0,2.817 -1.614523,0 0,-3.3471 -1.079712,-0.1712 -15.677853,-2.3723 c -0.286319,-0.044 -0.568662,-0.061 -0.845,-0.055 z m 10.599012,3.952 -0.441856,1.9277 5.498252,1.0466 -7.28502,2.4357 0.441852,-1.9276 -5.498426,-1.0439 7.285106,-2.4385 z"
         style="fill:#000000"
         inkscape:connector-curvature="0" />
      <path
         inkscape:connector-curvature="0"
         style="fill:#000000"
         d="m 115.74033,1000.1668 c -1.4924,0.026 -2.82609,0.7305 -3.85517,1.8145 -1.21952,1.2849 -2.00496,3.093 -2.00496,4.9462 0.28512,3.6468 2.91896,7.1936 6.70514,6.7023 l 0.35348,-0.05 16.40382,-2.3282 0,-3.4879 1.61443,0 0,3.0157 1.65129,-0.2346 0,-2.7811 1.32705,0 4.2e-4,2.35 1.65138,-0.232 0,-2.1183 1.75455,0 c 0.35348,1.3385 1.57176,2.3254 3.02113,2.3254 1.72606,0 3.12611,-1.4001 3.12611,-3.1262 0,-1.726 -1.40005,-3.1234 -3.12611,-3.1234 -1.43072,0 -2.6338,0.9608 -3.00461,2.273 l -1.77107,0 0,-1.809 -1.65147,-0.2625 0,2.0715 -1.32705,0 0,-2.5545 -1.65147,-0.2626 0,2.817 -1.61452,0 0,-3.3471 -1.07971,-0.1712 -15.67786,-2.3723 c -0.28632,-0.044 -0.56866,-0.061 -0.845,-0.055 z m 10.59901,3.952 -0.44185,1.9277 5.49825,1.0466 -7.28502,2.4357 0.44185,-1.9276 -5.49842,-1.0439 7.2851,-2.4385 z"
         id="path6191"
         sodipodi:nodetypes="ccccccccccccccccsssccccccccccccccccccccccc" />
      <g
         id="g6193"
         transform="matrix(0.28302046,0,0,0.28302046,76.874482,632.09074)">
        <path
           style="fill:#000000"
           inkscape:connector-curvature="0"
           d="m 140.26067,1275.8667 0,29.3442 3.80135,0 0,-29.3446 -3.80113,0 z m -23.26543,4.9302 c -3.33282,0 -6.03806,2.7051 -6.03806,6.0379 0,3.3328 2.70524,6.0314 6.03806,6.0314 2.71985,0 5.01631,-1.7994 5.76939,-4.2716 l 9.65801,0 0,16.6163 3.80156,0 0,-20.4177 -13.54725,0 c -0.83563,-2.3291 -3.06524,-3.996 -5.68171,-3.996 z m 41.5339,0 c -3.33281,0 -6.03139,2.7051 -6.03139,6.0379 0,2.6057 1.64997,4.825 3.96319,5.6688 l 0,12.7071 3.79447,0 0,-12.593 c 2.49225,-0.7419 4.312,-3.0504 4.312,-5.7827 0,-3.333 -2.70524,-6.0381 -6.03805,-6.0381 z m -10.25613,12.8215 0,11.5925 3.7949,0 0,-11.5925 -3.79447,0 z m -56.355338,6.6964 0,3.8015 19.952938,0 0,11.9485 13.50018,0 0,-3.7954 -9.69862,0 0,-11.9549 -23.754278,0 z m 10.576698,20.1424 0,26.5924 c -2.46947,0.7548 -4.264945,3.0514 -4.264945,5.7693 0,3.3324 2.698795,6.0379 6.031605,6.0379 3.33282,0 6.03784,-2.7052 6.03784,-6.0376 0,-2.621 -1.67425,-4.8496 -4.0096,-5.6822 l 0,-22.8851 19.08131,0 0,-3.7944 -22.87621,0 z m 6.84534,8.0059 0,3.8016 16.03087,0 0,-3.8016 z m 8.11869,7.8383 0,20.1507 c -2.47119,0.7551 -4.2716,3.0519 -4.2716,5.7695 0,3.3325 2.70523,6.038 6.03805,6.038 3.3326,0 6.03074,-2.7055 6.03074,-6.038 0,-2.6208 -1.66909,-4.8496 -4.00272,-5.682 l 0,-16.4375 18.25032,0 0,-3.8012 -22.04458,0 z m 14.96424,-3.2937 0,25.7462 3.80156,0 0,-25.7462 z m 7.83825,14.1333 0,22.2326 3.80113,-0.047 0,-22.1854 z m 8.01233,-6.0148 0,17.6277 3.80156,0 -0.007,-17.6275 -3.79447,0 z m 8.18729,6.0148 0,19.2822 3.79447,0 0,-26.3488 -3.79426,1.0518 z"
           id="path6195"
           sodipodi:nodetypes="cccccccssccccccccssccccsssccccccccccccccccccssscccccccccccccssscccccccccccccccccccccccccccc" />
      </g>
      <path
         style="fill:none;fill-opacity:1;stroke:#000000;stroke-width:1.37027073;stroke-linecap:round;stroke-linejoin:round;stroke-miterlimit:4;stroke-dasharray:none;stroke-opacity:1"
         d="m 128.58809,1010.7596 c -1.76299,5.5636 -6.9682,9.5956 -13.11514,9.5956 -7.59684,0 -13.7553,-6.1585 -13.75531,-13.7553 0,-7.59692 6.15846,-13.75536 13.75531,-13.75536 6.16186,0 11.37742,4.05162 13.12792,9.63616"
         id="path6197"
         inkscape:connector-curvature="0"
         sodipodi:nodetypes="csssc" />
      <rect
         y="1008.0793"
         x="107.82302"
         height="2.3938568"
         width="1.0781854"
         id="rect6199"
         style="fill:#000000;fill-opacity:1;stroke:none;stroke-width:3.40459609;stroke-linecap:round;stroke-linejoin:round;stroke-miterlimit:4;stroke-dasharray:none;stroke-opacity:1" />
      <path
         sodipodi:nodetypes="cccccccsscccccccsssccccssccccccccsccccccsccccccccccccccssscccccccccccccccccsscccccccccsssccccccccccssscccccccccccssscccccccccccccc"
         id="path6250-2"
         d="m 23.300623,991.15357 0,12.26073 1.371422,0 0,-12.26098 -1.371343,0 z m -6.691226,3.4534 c -1.202389,0 -2.178365,0.97581 -2.178365,2.17828 0,1.20235 0.975976,2.17591 2.178365,2.17591 0.981247,0 1.809746,-0.64912 2.081436,-1.54104 l 1.782045,0 0,5.99458 1.371498,0 0,-7.36608 -3.185175,0 c -0.301473,-0.84029 -1.105854,-1.44165 -2.049804,-1.44165 z m 13.281984,-3.4046 c -1.202384,0 -2.175958,0.97581 -2.175958,2.17828 0,0.94006 0.595264,1.74071 1.429809,2.04514 l 0,7.98891 1.36894,0 0,-7.94778 c 0.899135,-0.26767 1.555651,-1.10046 1.555651,-2.08627 0,-1.20247 -0.975976,-2.17828 -2.178362,-2.17828 z m -3.700127,4.62562 0,7.58671 1.369095,0 0,-7.58671 -1.36894,0 z m 14.618459,0.31243 c -1.202389,0 -2.178365,0.97606 -2.178365,2.17838 0,1.0145 0.693817,1.8668 1.633192,2.1082 l 0,2.1297 -7.206259,0 0,1.3691 8.577601,0 0,-3.5932 c 0.792674,-0.3251 1.349711,-1.1036 1.349711,-2.0136 0,-1.20239 -0.973649,-2.17845 -2.176035,-2.17845 z m -31.21033,2.1034 -0.9672642,1.37148 4.4261552,0 0,4.3107 11.679684,0 0,-1.3693 -10.308186,0 0,-4.31301 -4.8303102,0 z m 0.076204,7.26678 0,6.9761 c -0.8909174,0.2723 -1.5386753,1.1008 -1.5386753,2.0814 0,1.2022 0.9736516,2.1783 2.1760363,2.1783 1.20239,0 2.178287,-0.976 2.178287,-2.1782 0,-0.9456 -0.604023,-1.7496 -1.446553,-2.05 l 0,-5.6386 13.693202,0 0,-1.3689 -15.062297,0 z m 23.382694,0 0,1.369 4.184591,0 0,-1.3689 -4.184746,0 z m 7.751352,1.7035 c -0.845011,0 -1.577281,0.4816 -1.938457,1.1848 l -5.81305,0 0,1.3715 5.607031,0 c 0.180278,1.0211 1.071891,1.7979 2.144402,1.7979 1.202385,0 2.175955,-0.9761 2.175955,-2.1783 0,-1.2025 -0.973645,-2.1759 -2.176035,-2.1759 z m -27.065689,1.1848 0,1.3715 10.99394,0 0,-1.3715 z m 1.330251,2.8278 0,6.5301 c -0.891537,0.2724 -1.541075,1.1009 -1.541075,2.0814 0,1.2023 0.975973,2.1784 2.178361,2.1784 1.202311,0 2.175725,-0.9761 2.175725,-2.1784 0,-0.9454 -0.602162,-1.7496 -1.444071,-2.0499 l 0,-5.1904 8.294514,0 0,-1.3713 -9.663377,0 z m 17.984086,0 0,1.3714 3.501323,0 0,7.388 c -0.877966,0.281 -1.514325,1.1057 -1.514325,2.0765 0,1.2024 0.975821,2.176 2.17821,2.176 1.202385,0 2.175958,-0.9736 2.175958,-2.1759 0,-0.9553 -0.615268,-1.7662 -1.470905,-2.0596 l 0,-8.7764 -4.870492,0 z m -12.585402,2.2084 0,5.8919 1.371498,0 0,-5.8919 z m 2.827824,0 0,8.4143 c -0.85393,0.2942 -1.468578,1.1036 -1.468578,2.0572 0,1.2022 0.976052,2.1784 2.178441,2.1784 1.202386,0 2.175958,-0.9763 2.175958,-2.1784 0,-0.9716 -0.636049,-1.7944 -1.514479,-2.0743 l 0,-8.3972 z m 2.890628,0 0,5.8919 1.371498,0 -0.0025,-5.8919 -1.368941,0 z m 2.953746,0 0,12.5626 1.36894,0 0,-12.5626 -1.368863,0 z"
         inkscape:connector-curvature="0"
         style="fill:#000000" />
      <path
         sodipodi:type="star"
         style="fill:none;fill-opacity:1;stroke:#000000;stroke-width:1.12644517;stroke-linecap:round;stroke-linejoin:round;stroke-miterlimit:4;stroke-dasharray:none;stroke-opacity:1"
         id="path6227"
         sodipodi:sides="6"
         sodipodi:cx="25.80293"
         sodipodi:cy="1009.8685"
         sodipodi:r1="20.712198"
         sodipodi:r2="17.93729"
         sodipodi:arg1="0.52359878"
         sodipodi:arg2="1.0471976"
         inkscape:flatsided="true"
         inkscape:rounded="0"
         inkscape:randomized="0"
         d="m 43.740221,1020.2246 -17.93729,10.3561 -17.9372901,-10.3561 1e-7,-20.71217 17.93729,-10.3561 17.93729,10.3561 z" />
    </g>
  </g>
</svg>
