<?xml version="1.0" encoding="UTF-8" standalone="no"?>
<!-- Created with Inkscape (http://www.inkscape.org/) -->

<svg
   xmlns:dc="http://purl.org/dc/elements/1.1/"
   xmlns:cc="http://creativecommons.org/ns#"
   xmlns:rdf="http://www.w3.org/1999/02/22-rdf-syntax-ns#"
   xmlns:svg="http://www.w3.org/2000/svg"
   xmlns="http://www.w3.org/2000/svg"
   xmlns:sodipodi="http://sodipodi.sourceforge.net/DTD/sodipodi-0.dtd"
   xmlns:inkscape="http://www.inkscape.org/namespaces/inkscape"
   width="0.85000002in"
   height="0.85000002in"
   viewBox="0 0 76.500006 76.500004"
   id="svg5569"
   version="1.1"
   inkscape:version="0.92.0 r15299"
   sodipodi:docname="laser-system.svg">
  <defs
     id="defs5571" />
  <sodipodi:namedview
     id="base"
     pagecolor="#ffffff"
     bordercolor="#666666"
     borderopacity="1.0"
     inkscape:pageopacity="0.0"
     inkscape:pageshadow="2"
     inkscape:zoom="11.2"
     inkscape:cx="22.929763"
     inkscape:cy="38.391949"
     inkscape:document-units="px"
     inkscape:current-layer="g6175"
     showgrid="false"
     inkscape:window-width="1920"
     inkscape:window-height="1017"
     inkscape:window-x="1672"
     inkscape:window-y="185"
     inkscape:window-maximized="1"
     units="in" />
  <metadata
     id="metadata5574">
    <rdf:RDF>
      <cc:Work
         rdf:about="">
        <dc:format>image/svg+xml</dc:format>
        <dc:type
           rdf:resource="http://purl.org/dc/dcmitype/StillImage" />
        <dc:title />
      </cc:Work>
    </rdf:RDF>
  </metadata>
  <g
     inkscape:label="Layer 1"
     inkscape:groupmode="layer"
     id="layer1"
     transform="translate(0,-975.86226)">
    <g
       id="g6175"
       transform="matrix(1.1748825,0,0,1.1748825,0.49424217,-171.09874)">
      <path
         inkscape:connector-curvature="0"
         style="fill:#000000"
         d="m 115.74033,1000.1668 c -1.4924,0.026 -2.82609,0.7305 -3.85517,1.8145 -1.21952,1.2849 -2.00496,3.093 -2.00496,4.9462 0.28512,3.6468 2.91896,7.1936 6.70514,6.7023 l 0.35348,-0.05 16.40382,-2.3282 0,-3.4879 1.61443,0 0,3.0157 1.65129,-0.2346 0,-2.7811 1.32705,0 4.2e-4,2.35 1.65138,-0.232 0,-2.1183 1.75455,0 c 0.35348,1.3385 1.57176,2.3254 3.02113,2.3254 1.72606,0 3.12611,-1.4001 3.12611,-3.1262 0,-1.726 -1.40005,-3.1234 -3.12611,-3.1234 -1.43072,0 -2.6338,0.9608 -3.00461,2.273 l -1.77107,0 0,-1.809 -1.65147,-0.2625 0,2.0715 -1.32705,0 0,-2.5545 -1.65147,-0.2626 0,2.817 -1.61452,0 0,-3.3471 -1.07971,-0.1712 -15.67786,-2.3723 c -0.28632,-0.044 -0.56866,-0.061 -0.845,-0.055 z m 10.59901,3.952 -0.44185,1.9277 5.49825,1.0466 -7.28502,2.4357 0.44185,-1.9276 -5.49842,-1.0439 7.2851,-2.4385 z"
         id="path6191"
         sodipodi:nodetypes="ccccccccccccccccsssccccccccccccccccccccccc" />
      <g
         id="g6193"
         transform="matrix(0.28302046,0,0,0.28302046,76.874482,632.09074)">
        <path
           style="fill:#000000"
           inkscape:connector-curvature="0"
           d="m 140.26067,1275.8667 0,29.3442 3.80135,0 0,-29.3446 -3.80113,0 z m -23.26543,4.9302 c -3.33282,0 -6.03806,2.7051 -6.03806,6.0379 0,3.3328 2.70524,6.0314 6.03806,6.0314 2.71985,0 5.01631,-1.7994 5.76939,-4.2716 l 9.65801,0 0,16.6163 3.80156,0 0,-20.4177 -13.54725,0 c -0.83563,-2.3291 -3.06524,-3.996 -5.68171,-3.996 z m 41.5339,0 c -3.33281,0 -6.03139,2.7051 -6.03139,6.0379 0,2.6057 1.64997,4.825 3.96319,5.6688 l 0,12.7071 3.79447,0 0,-12.593 c 2.49225,-0.7419 4.312,-3.0504 4.312,-5.7827 0,-3.333 -2.70524,-6.0381 -6.03805,-6.0381 z m -10.25613,12.8215 0,11.5925 3.7949,0 0,-11.5925 -3.79447,0 z m -56.355338,6.6964 0,3.8015 19.952938,0 0,11.9485 13.50018,0 0,-3.7954 -9.69862,0 0,-11.9549 -23.754278,0 z m 10.576698,20.1424 0,26.5924 c -2.46947,0.7548 -4.264945,3.0514 -4.264945,5.7693 0,3.3324 2.698795,6.0379 6.031605,6.0379 3.33282,0 6.03784,-2.7052 6.03784,-6.0376 0,-2.621 -1.67425,-4.8496 -4.0096,-5.6822 l 0,-22.8851 19.08131,0 0,-3.7944 -22.87621,0 z m 6.84534,8.0059 0,3.8016 16.03087,0 0,-3.8016 z m 8.11869,7.8383 0,20.1507 c -2.47119,0.7551 -4.2716,3.0519 -4.2716,5.7695 0,3.3325 2.70523,6.038 6.03805,6.038 3.3326,0 6.03074,-2.7055 6.03074,-6.038 0,-2.6208 -1.66909,-4.8496 -4.00272,-5.682 l 0,-16.4375 18.25032,0 0,-3.8012 -22.04458,0 z m 14.96424,-3.2937 0,25.7462 3.80156,0 0,-25.7462 z m 7.83825,14.1333 0,22.2326 3.80113,-0.047 0,-22.1854 z m 8.01233,-6.0148 0,17.6277 3.80156,0 -0.007,-17.6275 -3.79447,0 z m 8.18729,6.0148 0,19.2822 3.79447,0 0,-26.3488 -3.79426,1.0518 z"
           id="path6195"
           sodipodi:nodetypes="cccccccssccccccccssccccsssccccccccccccccccccssscccccccccccccssscccccccccccccccccccccccccccc" />
      </g>
      <path
         style="fill:none;fill-opacity:1;stroke:#000000;stroke-width:1.37027073;stroke-linecap:round;stroke-linejoin:round;stroke-miterlimit:4;stroke-dasharray:none;stroke-opacity:1"
         d="m 128.58809,1010.7596 c -1.76299,5.5636 -6.9682,9.5956 -13.11514,9.5956 -7.59684,0 -13.7553,-6.1585 -13.75531,-13.7553 0,-7.59692 6.15846,-13.75536 13.75531,-13.75536 6.16186,0 11.37742,4.05162 13.12792,9.63616"
         id="path6197"
         inkscape:connector-curvature="0"
         sodipodi:nodetypes="csssc" />
      <rect
         y="1008.0793"
         x="107.82302"
         height="2.3938568"
         width="1.0781854"
         id="rect6199"
         style="fill:#000000;fill-opacity:1;stroke:none;stroke-width:3.40459609;stroke-linecap:round;stroke-linejoin:round;stroke-miterlimit:4;stroke-dasharray:none;stroke-opacity:1" />
      <g
         id="g5136">
        <path
           inkscape:connector-curvature="0"
           style="fill:#000000"
           d="m 27.372694,1002.2414 c -1.492403,0.026 -2.826095,0.7305 -3.855171,1.8145 -1.219518,1.2849 -2.004958,3.093 -2.004958,4.9462 0.285118,3.6468 2.918959,7.1936 6.705134,6.7023 l 0.353482,-0.05 16.403816,-2.3282 0,-3.4879 1.614431,0 0,3.0157 1.651297,-0.2346 0,-2.7811 1.327047,0 4.18e-4,2.35 1.651385,-0.232 0,-2.1183 1.754545,0 c 0.353481,1.3385 1.571762,2.3254 3.021127,2.3254 1.726062,0 3.126115,-1.4001 3.126115,-3.1262 0,-1.726 -1.400053,-3.1234 -3.126115,-3.1234 -1.430719,0 -2.633798,0.9608 -3.004602,2.273 l -1.77107,0 0,-1.809 -1.651473,-0.2625 0,2.0715 -1.327047,0 0,-2.5545 -1.651473,-0.2626 0,2.817 -1.614523,0 0,-3.3471 -1.079712,-0.1712 -15.677853,-2.3723 c -0.286319,-0.044 -0.568662,-0.061 -0.845,-0.055 z m 10.599012,3.952 -0.441856,1.9277 5.498252,1.0466 -7.28502,2.4357 0.441852,-1.9276 -5.498426,-1.0439 7.285106,-2.4385 z"
           id="path6"
           sodipodi:nodetypes="ccccccccccccccccsssccccccccccccccccccccccc" />
        <path
           sodipodi:nodetypes="cccccssscccccccccccccccssccccsscccccssccccccccssccsssccccccccccccssscccccccsssccccccccccsssccccccccccccc"
           inkscape:connector-curvature="0"
           id="path6250-2"
           transform="matrix(0.85114905,0,0,0.85114905,-0.4206737,976.23464)"
           d="m 27.869141,17.527344 0,13.398437 -1.710938,0 0,-7.646484 -3.742187,0 c -0.354196,-0.987242 -1.299173,-1.693359 -2.408204,-1.693359 -1.412665,0 -2.558593,1.145832 -2.558593,2.558593 0,1.41262 1.145928,2.556641 2.558593,2.556641 1.15285,0 2.126109,-0.762646 2.445313,-1.810547 l 2.09375,0 0,6.035156 -7.099609,0 0,-5.068359 -5.673828,0 -0.002,0 -1.134765,1.611328 5.199219,0 0,5.064453 13.722656,0 0,-1.607422 -0.07813,0 0,-13.398437 z m 7.74414,0.05859 c -1.41266,0 -2.55664,1.145832 -2.55664,2.558593 0,1.10446 0.699195,2.044675 1.679687,2.402344 l 0,9.386719 1.609375,0 0,-9.337891 c 1.056378,-0.314481 1.826172,-1.292961 1.826172,-2.451172 0,-1.412761 -1.145932,-2.558593 -2.558594,-2.558593 z m -4.347656,5.433593 0,8.914063 1.609375,0 0,-8.914063 z m 17.175781,0.367188 c -1.412665,0 -2.560547,1.146009 -2.560547,2.558593 0,1.191919 0.816267,2.1949 1.919922,2.478516 l 0,0.691406 -8.466797,0 0,3.122651 1.782381,0.17362 -0.01578,-1.688849 8.311527,0 0,-2.410156 c 0.931299,-0.381954 1.585938,-1.296091 1.585938,-2.365234 0,-1.412667 -1.143979,-2.560547 -2.556641,-2.560547 z m -36.580078,11.009765 0,8.195313 c -1.046723,0.31992 -1.80664,1.293223 -1.80664,2.445312 0,1.412444 1.14398,2.558594 2.55664,2.558594 1.412667,0 2.558594,-1.14615 2.558594,-2.558594 0,-1.110968 -0.709345,-2.055268 -1.699219,-2.408203 l 0,-6.625 16.087891,0 0,-1.607422 z m 4.78125,3.392578 0,1.611329 12.916016,0 0,-1.611329 z m 1.5625,3.322266 0,7.671875 c -1.047451,0.320038 -1.810547,1.29334 -1.810547,2.445313 0,1.412561 1.14593,2.560546 2.558594,2.560546 1.412574,0 2.556641,-1.147985 2.556641,-2.560546 0,-1.110734 -0.708122,-2.055386 -1.697266,-2.408204 l 0,-6.097656 9.746094,0 0,-1.611328 z m 25.242188,1.835938 0,8.455078 c -1.031507,0.330142 -1.779297,1.298877 -1.779297,2.439453 0,1.412678 1.145928,2.556641 2.558593,2.556641 1.412661,0 2.556641,-1.14408 2.556641,-2.556641 0,-1.122365 -0.72129,-2.075212 -1.726562,-2.419922 l 0,-8.474609 z m -18.900391,0.759765 0,6.921875 1.611328,0 0,-6.921875 z m 3.322266,0 0,9.884766 c -1.003268,0.34565 -1.72461,1.297601 -1.72461,2.417969 0,1.412443 1.145928,2.558593 2.558594,2.558593 1.412662,0 2.556641,-1.146267 2.556641,-2.558593 0,-1.141516 -0.747245,-2.108651 -1.779297,-2.4375 l 0,-9.865235 z m 3.396484,0 0,6.921875 1.611328,0 -0.002,-6.921875 z m 3.470703,0 0,14.757813 1.607422,0 0,-14.757813 z"
           style="fill:#000000" />
        <path
           d="m 44.707485,1019.1499 -17.93729,10.3561 -17.9372899,-10.3561 1e-7,-20.71218 17.9372898,-10.3561 17.93729,10.3561 z"
           inkscape:randomized="0"
           inkscape:rounded="0"
           inkscape:flatsided="true"
           sodipodi:arg2="1.0471976"
           sodipodi:arg1="0.52359878"
           sodipodi:r2="17.93729"
           sodipodi:r1="20.712198"
           sodipodi:cy="1008.7938"
           sodipodi:cx="26.770195"
           sodipodi:sides="6"
           id="path6227"
           style="fill:none;fill-opacity:1;stroke:#000000;stroke-width:1.12644517;stroke-linecap:round;stroke-linejoin:round;stroke-miterlimit:4;stroke-dasharray:none;stroke-opacity:1"
           sodipodi:type="star" />
      </g>
    </g>
  </g>
</svg>
