<?xml version="1.0" encoding="UTF-8" standalone="no"?>
<svg
   xmlns:dc="http://purl.org/dc/elements/1.1/"
   xmlns:cc="http://creativecommons.org/ns#"
   xmlns:rdf="http://www.w3.org/1999/02/22-rdf-syntax-ns#"
   xmlns:svg="http://www.w3.org/2000/svg"
   xmlns="http://www.w3.org/2000/svg"
   xmlns:sodipodi="http://sodipodi.sourceforge.net/DTD/sodipodi-0.dtd"
   xmlns:inkscape="http://www.inkscape.org/namespaces/inkscape"
   width="675"
   height="600"
   viewBox="0 0 675.00001 600.00001"
   id="svg4372"
   version="1.1"
   inkscape:version="1.0.1 (3bc2e813f5, 2020-09-07)"
   sodipodi:docname="lockdown.svg"
   inkscape:export-filename="G:\code\timber-wolf\_output\gate-a[face].png"
   inkscape:export-xdpi="90"
   inkscape:export-ydpi="90">
  <defs
     id="defs4374">
    <filter
       inkscape:label="Linen Canvas"
       inkscape:menu="Bumps"
       inkscape:menu-tooltip="Painting canvas emboss effect"
       style="color-interpolation-filters:sRGB;"
       id="filter5738">
      <feTurbulence
         numOctaves="5"
         baseFrequency="0.4"
         id="feTurbulence5740" />
      <feConvolveMatrix
         order="5 5"
         kernelMatrix="-4 0 0 0 -4 0 -2 0 -2 0 0 0 -10 0 0 0 -2 0 -2 0 -4 0 0 0 -4 "
         targetX="2"
         targetY="2"
         id="feConvolveMatrix5742" />
      <feConvolveMatrix
         order="3 3"
         kernelMatrix="2 0 2 0 -5 0 2 0 2 "
         targetX="1"
         targetY="1"
         id="feConvolveMatrix5744" />
      <feColorMatrix
         type="saturate"
         result="result1"
         id="feColorMatrix5746" />
      <feComposite
         in2="SourceGraphic"
         operator="arithmetic"
         k1="1.5"
         k2="0.5"
         k3="0.5"
         result="result2"
         id="feComposite5748" />
      <feBlend
         mode="normal"
         in2="result1"
         result="result4"
         id="feBlend5750" />
      <feColorMatrix
         type="luminanceToAlpha"
         id="feColorMatrix5752" />
      <feDiffuseLighting
         surfaceScale="10"
         diffuseConstant="1"
         result="result3"
         id="feDiffuseLighting5754">
        <feDistantLight
           azimuth="180"
           elevation="35"
           id="feDistantLight5756" />
      </feDiffuseLighting>
      <feComposite
         in2="result4"
         operator="arithmetic"
         k1="1.5"
         k3="0.5"
         result="result5"
         id="feComposite5758" />
      <feBlend
         mode="normal"
         in2="result3"
         result="result6"
         id="feBlend5760" />
      <feComposite
         in2="SourceGraphic"
         operator="in"
         id="feComposite5762" />
    </filter>
  </defs>
  <sodipodi:namedview
     id="base"
     pagecolor="#ffffff"
     bordercolor="#666666"
     borderopacity="1.0"
     inkscape:pageopacity="0.0"
     inkscape:pageshadow="2"
     inkscape:zoom="0.7"
     inkscape:cx="578.89336"
     inkscape:cy="240.548"
     inkscape:document-units="px"
     inkscape:current-layer="layer1"
     showgrid="false"
     units="px"
     inkscape:window-width="1920"
     inkscape:window-height="1017"
     inkscape:window-x="-8"
     inkscape:window-y="-8"
     inkscape:window-maximized="1"
     showguides="true"
     inkscape:guide-bbox="true"
     inkscape:document-rotation="0">
    <sodipodi:guide
       position="398.21429,599.64287"
       orientation="0,1"
       id="guide5702" />
    <sodipodi:guide
       position="0,563.57144"
       orientation="1,0"
       id="guide5704" />
    <sodipodi:guide
       position="675.00001,518.20826"
       orientation="1,0"
       id="guide5706"
       inkscape:label=""
       inkscape:color="rgb(0,0,255)" />
    <sodipodi:guide
       position="39.285715,0"
       orientation="0,1"
       id="guide5708"
       inkscape:label=""
       inkscape:color="rgb(0,0,255)" />
  </sodipodi:namedview>
  <metadata
     id="metadata4377">
    <rdf:RDF>
      <cc:Work
         rdf:about="">
        <dc:format>image/svg+xml</dc:format>
        <dc:type
           rdf:resource="http://purl.org/dc/dcmitype/StillImage" />
        <dc:title />
      </cc:Work>
    </rdf:RDF>
  </metadata>
  <g
     inkscape:label="Layer 1"
     inkscape:groupmode="layer"
     id="layer1"
     transform="translate(0,-452.36216)">
    <path
       inkscape:connector-curvature="0"
       id="path8070"
       d="m 225.021,561.48321 c -4.53378,2.157 -10.72131,7.24996 -8.71191,9.78426 3.52561,1.49848 6.59636,4.50433 9.75185,7.0298 7.03661,5.63147 13.60407,12.57259 20.26562,21.29319 2.83244,0.56802 3.50925,-0.003 6.3589,-2.12056 1.90272,-1.41303 3.60252,-2.49964 3.53886,-4.44675 -0.2444,-3.11387 -0.77712,-6.03564 -1.23379,-9.08221 -0.50683,-3.37937 -0.9129,-6.90107 -0.60754,-10.74999 0.62979,-7.9379 1.81643,-14.81854 1.50119,-20.66571 -0.21338,-2.37351 -6.05073,-0.81448 -8.25659,0.15036 -4.72419,2.06245 -10.64692,4.88552 -19.8524,7.84992 -0.74768,0.11833 -1.70797,0.45992 -2.7544,0.95721 z m -15.07316,10.08113 c -0.56157,0.17527 -1.04438,0.52162 -1.4096,0.98592 -4.83431,6.29067 -12.24781,6.42949 -15.00176,13.00494 -0.91865,2.19422 -0.24664,4.86147 1.95503,5.76359 13.39476,5.48765 15.33342,8.33837 30.41317,20.08941 7.94375,1.60325 13.22356,-4.65909 14.73648,-6.28146 1.59597,-1.75913 2.24152,-4.2297 0.69057,-6.03958 -7.18936,-12.94661 -15.63677,-17.11978 -26.76982,-25.82291 -0.74942,-1.62352 -2.95085,-2.26992 -4.61357,-1.69818 z m 50.23665,-20.44706 c -1.54057,0.84709 -2.53642,2.91297 -1.84062,4.56049 -1.03412,14.09328 -3.61952,23.15378 1.13944,37.17721 0.29868,2.36467 2.56158,3.54694 4.93736,3.54641 12.02652,-0.001 7.22859,-1.58699 11.99829,-2.83808 2.29661,-0.60156 3.50694,-1.98118 3.68534,-4.35557 1.42839,-19.06425 0.61941,-22.41573 5.55475,-36.02385 0.81121,-2.23659 -0.71338,-4.52908 -2.95625,-5.32273 -6.72078,-2.37883 -12.93315,3.52209 -20.84019,2.87608 -0.591,-0.0497 -1.16505,0.0974 -1.67773,0.3803 z m -72.80414,40.82706 c -0.50711,0.29815 -0.94422,0.69162 -1.21974,1.21772 -3.68145,7.03413 -11.98521,9.134 -13.56945,16.09083 -0.52852,2.32101 0.57508,4.90731 2.9132,5.34443 14.42051,2.70054 18.02816,3.52644 33.38694,14.55728 8.09561,0.21057 13.24805,-7.55763 14.45888,-9.41812 1.26961,-2.00984 1.48223,-4.55691 -0.35501,-6.07364 -9.29623,-11.52218 -18.3284,-14.1801 -30.78054,-20.83916 -1.01936,-1.46895 -3.29406,-1.73023 -4.83303,-0.88019 z m 103.25089,-42.50653 c -1.65765,0.58737 -2.96318,2.47358 -2.53461,4.20965 -3.23369,13.74657 -7.21166,22.28062 -4.71051,36.8733 -0.0759,2.38102 1.97446,3.90562 4.32179,4.28062 2.19662,0.32149 11.43272,1.58933 16.62554,-4.62532 4.40358,-18.59093 4.13082,-22.02638 11.14307,-34.67788 1.15266,-2.07969 0.007,-4.57965 -2.08503,-5.71691 -6.26714,-3.40955 -13.33143,1.43244 -21.04299,-0.45398 -0.57665,-0.14276 -1.16637,-0.0872 -1.71849,0.11034 z m -121.98897,66.25205 c -0.808,0.38836 -1.46552,1.04303 -1.73007,1.89495 -2.35403,7.58923 -10.13451,11.15758 -10.44099,18.29129 -0.10243,2.38042 1.44675,4.68879 3.82136,4.73475 14.62036,0.28123 20.06316,-0.46318 36.34686,7.64343 7.99589,-1.2573 10.75214,-9.19414 11.6079,-11.2444 0.88702,-2.20743 0.63693,-4.7517 -1.4415,-5.91177 -11.20995,-9.6586 -20.56487,-10.63932 -34.00262,-14.94033 -1.05515,-1.05121 -2.81578,-1.11985 -4.16069,-0.46765 z m 152.26621,-63.109 c -1.39278,0.54351 -2.52239,1.90651 -2.45242,3.39476 -5.84293,12.84247 -11.40195,20.43019 -11.78008,35.22233 -0.53726,2.31915 1.18015,4.21578 3.41107,5.04189 2.09369,0.74382 10.91213,3.79061 17.2155,-1.28678 7.93163,-17.36198 7.32709,-23.0503 16.66616,-34.08146 1.53509,-1.81298 0.89347,-4.49124 -0.93783,-6.0147 -5.48948,-4.56622 -12.35606,1.07203 -19.55863,-2.28345 -0.81008,-0.37581 -1.73172,-0.32755 -2.5637,0.007 z M 155.61029,642.6302 c -1.40968,0.50698 -2.58354,1.81605 -2.54876,3.30607 0.18413,7.95419 -4.73923,12.62769 -4.5018,19.76586 0.0794,2.38156 1.8031,4.57855 4.17247,4.42891 4.32847,-0.2743 24.7649,-1.03762 29.04117,-0.66636 4.48013,0.38898 3.32253,1.22861 10.53705,1.0629 2.33851,-0.0529 4.05616,-0.91673 4.70794,-2.39718 2.21795,-5.03212 3.49067,-9.45241 4.19338,-13.53235 0.13727,-2.37779 -2.33974,-3.26417 -4.67635,-3.70019 -13.68235,-5.57818 -24.26431,-8.41721 -38.35274,-8.19984 -0.80016,-0.39639 -1.72765,-0.37489 -2.57253,-0.0682 z m 197.45604,-87.2156 c -0.792,0.42437 -1.434,1.09228 -1.67861,1.95002 -9.62695,10.28911 -15.9719,23.52386 -21.03345,37.40673 -2.5287,4.42668 11.48871,13.92832 18.37591,10.15254 7.08713,-11.89179 16.38904,-21.49792 27.83778,-32.61687 1.70338,-1.65536 1.23195,-4.40607 -0.47891,-6.06504 -5.1275,-4.9718 -13.0951,-5.01633 -18.86296,-10.49691 -1.07912,-1.02606 -2.8352,-1.03025 -4.16008,-0.3312 z m -104.05387,52.04312 c -5.41457,2.79545 -10.44833,5.94822 -15.04686,9.41648 l 8.17962,18.46389 -17.14971,7.59743 -5.56567,-12.56342 c -4.66733,5.34491 -8.58248,11.06499 -11.67515,17.02186 l 1.1774,2.65776 -3.11859,1.38155 c -3.21956,7.14891 -5.29937,14.56995 -6.13668,22.0229 l 16.40419,-7.26717 7.70006,17.38135 -23.21873,10.28605 c 0.14846,0.72479 0.29311,1.45079 0.46782,2.17204 l 3.71836,15.28024 26.18265,-11.59909 9.35099,21.10805 19.24696,21.76121 -3.18354,-28.87741 -9.351,-21.10804 17.14969,-7.59743 9.35101,21.10804 19.24925,21.76019 -3.18374,-28.87731 -9.35101,-21.10805 17.15215,-7.59851 9.35099,21.10805 19.24938,21.76013 -3.18828,-28.87531 -9.35101,-21.10804 17.152,-7.59845 9.351,21.10805 19.24927,21.76018 -3.18352,-28.87741 -9.351,-21.10805 25.88933,-11.46914 -7.88046,-10.17768 c -0.67634,-1.52671 -1.5879,-3.00641 -2.70295,-4.44059 l -22.45504,9.94772 -7.70004,-17.38134 12.25828,-5.4305 c -10.78888,-4.98796 -24.43003,-8.52119 -38.35361,-10.09277 l 2.88092,6.5031 -17.15215,7.59852 -6.61068,-14.92233 c -6.39472,0.24513 -12.54288,0.99567 -18.20555,2.2745 l 8.7552,19.76313 -17.15202,7.59846 -9.19832,-20.76337 z m 134.02006,-37.76239 c -0.52674,0.26376 -0.98217,0.64223 -1.28689,1.152 -9.31541,8.87696 -18.2275,20.35157 -29.98592,30.6404 -1.72762,1.62935 -1.33933,4.15607 0.0671,6.08081 7.12272,9.74472 9.69565,7.14239 12.23693,11.19791 1.26641,2.02001 4.84256,1.99523 6.06293,-0.0445 7.09323,-11.85466 14.60055,-22.27333 29.98692,-30.6382 2.08587,-1.13268 1.52912,-4.31274 -0.0658,-6.08406 -4.78032,-5.30874 -8.07733,-4.41017 -12.23933,-11.19668 -0.9355,-1.52419 -3.1912,-1.88368 -4.77599,-1.10768 z M 146.09581,674.91406 c -1.6394,0.65276 -2.89029,2.5691 -2.38978,4.28463 2.23009,7.64237 -0.80322,8.58971 -0.0831,15.69726 0.24012,2.37117 2.10189,4.44778 4.45853,4.13523 15.819,-2.09153 29.17551,-4.65963 42.89604,-2.84876 2.35611,0.31099 4.74731,-2.17659 4.10647,-4.46046 -1.2964,-4.60701 2.46225,-2.64911 0.0304,-14.47194 -0.48133,-2.33459 -2.09315,-4.32223 -4.46186,-4.13658 -14.64449,-1.84119 -29.29724,-2.24397 -42.83775,1.62374 -0.58193,-0.11838 -1.17207,-0.0406 -1.71907,0.17674 z m 86.04862,-15.84127 17.1497,-7.59745 7.70016,17.38159 -17.14971,7.59744 z m 33.2152,-14.71456 17.15213,-7.59851 7.70016,17.38158 -17.15213,7.59851 z m 33.21322,-14.71368 17.15204,-7.59847 7.70016,17.38159 -17.15204,7.59847 z M 403.54293,587.8269 c -0.53599,0.24621 -0.99965,0.61929 -1.31701,1.12125 -12.14636,7.12407 -21.97205,18.00305 -30.74985,29.86722 -1.76919,1.58311 -1.25694,4.00333 -0.0855,6.0798 3.3001,5.84795 4.12986,9.091 5.3072,13.72988 0.58759,2.31028 2.56966,1.33685 4.45712,-0.1034 10.99091,-8.3874 24.52713,-11.90161 39.28691,-17.94952 2.19659,-0.89959 2.77478,-3.62527 1.79972,-5.8015 -2.93135,-6.51796 -9.96103,-18.82705 -13.95118,-25.716 -0.89615,-1.54719 -3.1443,-1.96469 -4.74818,-1.22915 z M 144.51684,704.07655 c -1.5729,0.79984 -2.64527,2.81805 -1.99201,4.48285 2.9063,7.41231 7.44804,18.97517 10.7288,25.32424 1.09373,2.11884 3.59077,3.35855 5.66144,2.19849 13.91645,-7.79672 25.76825,-13.96481 39.17066,-17.35287 2.30158,-0.58173 3.6186,-3.77281 2.17577,-5.67041 -2.89691,-3.80863 -4.20765,-4.8712 -6.73116,-11.09374 -0.89197,-2.21146 -2.47244,-4.11509 -4.81359,-3.71581 -14.74591,-0.50846 -29.37379,0.41606 -42.50664,5.49518 -0.59102,-0.0629 -1.1685,0.0665 -1.69402,0.33167 z m 35.13082,24.03638 c -6.61936,2.82951 -12.83682,6.10852 -18.39237,9.99721 -2.33518,0.42765 -2.6482,3.33382 -2.17573,5.67055 1.47866,7.31139 4.01878,13.07529 8.45165,19.07795 1.41705,1.91755 3.62964,3.42538 5.66183,2.19861 13.72797,-8.28953 25.80298,-13.11807 39.17054,-17.3528 2.26286,-0.71729 3.61873,-3.77287 2.17553,-5.67062 -2.89568,-3.80919 -1.84874,-8.97258 -8.45166,-19.07794 -1.30531,-1.99558 -3.5317,-3.2463 -5.66162,-2.19855 -7.14798,2.12625 -14.16108,4.52101 -20.77817,7.35559 z M 401.16544,629.9791 c -6.5431,3.00166 -13.03365,6.58218 -19.41092,10.44843 -2.20642,0.87442 -2.77541,3.36236 -2.17327,5.66946 3.04856,11.67996 7.9755,15.27592 8.8513,19.98004 0.43561,2.34367 3.57472,3.33452 5.65917,2.19932 12.416,-6.7611 23.58754,-13.59794 39.17311,-17.35394 2.30764,-0.5565 2.64242,-3.33168 2.17336,-5.6692 -1.46751,-7.31633 -4.42938,-13.97253 -8.85128,-19.98004 -1.41362,-1.9198 -3.77394,-3.64256 -5.6593,-2.19958 -6.61272,1.50268 -13.21666,3.90898 -19.76217,6.90551 z m 12.87074,29.63115 c -6.54296,3.00161 -13.03177,6.58574 -19.40969,10.45053 -2.20657,0.87449 -2.30704,3.29008 -2.17334,5.66934 0.66012,11.76354 6.60524,13.96244 8.25751,18.6397 0.79402,2.24822 3.41994,2.98648 5.65927,2.19944 13.54655,-4.76104 26.29317,-8.45165 39.17282,-17.35382 1.95221,-1.35123 2.64227,-3.33175 2.17359,-5.66945 -1.46758,-7.31615 -3.83571,-12.63199 -8.25751,-18.6397 -1.41358,-1.91967 -3.774,-3.64237 -5.65951,-2.19934 -6.61247,1.50258 -13.21776,3.90684 -19.76314,6.9033 z m -220.47,98.27068 c -6.61878,2.82913 -13.04,6.00154 -19.01188,9.67286 -2.3356,0.42633 -2.64826,3.33369 -2.17583,5.6703 1.47865,7.31138 4.4184,13.97739 8.85128,19.98003 1.41573,1.91788 3.41853,2.97463 5.66165,2.19824 14.58842,-5.04768 26.44017,-10.75069 39.17054,-17.35281 2.10736,-1.09241 3.3071,-3.57162 2.17581,-5.67029 -2.35421,-4.36655 -0.58237,-11.58739 -8.85134,-19.98016 -1.67214,-1.6977 -3.53189,-3.24608 -5.66163,-2.19824 -6.73566,2.34177 -13.54265,4.84451 -20.15866,7.67994 z m 253.60047,-77.11761 c -0.26924,0.0889 -0.52071,0.23114 -0.75237,0.42136 -12.41096,9.49934 -25.64797,12.00143 -39.17296,17.35388 -2.20653,0.87459 -3.26597,3.55267 -2.17243,5.67144 5.06264,9.81333 7.9402,14.97165 8.85025,19.97771 0.42742,2.34495 3.46389,3.10149 5.65939,2.19968 11.75903,-4.83021 25.1383,-9.00048 39.17297,-17.35388 2.03919,-1.21488 2.74253,-3.35428 2.17334,-5.66963 -1.76653,-7.1837 -6.67767,-12.9736 -8.85026,-19.97771 -0.61922,-1.99211 -3.0445,-3.28695 -4.90436,-2.61279 z M 186.88424,797.5102 c -1.74939,0.92348 -2.42014,3.59143 -1.35987,5.38817 3.72781,6.31484 4.18327,12.63901 8.31708,18.77415 1.33234,1.9773 3.45063,3.06166 5.66169,2.19836 15.1206,-5.90208 26.68635,-14.15975 39.17054,-17.3528 2.30038,-0.58705 3.62645,-3.77862 2.17577,-5.67041 -3.09626,-4.0374 -4.45034,-8.43118 -8.31708,-18.77416 -0.83571,-2.23312 -3.53298,-3.24854 -5.66272,-2.2007 -13.05161,6.42111 -23.79582,14.54322 -39.17053,17.35281 -0.29548,0.0428 -0.56637,0.14787 -0.81881,0.27469 z m 42.32233,14.47218 c -9.72316,4.33784 -18.33248,9.95805 -28.95492,13.5781 -2.2467,0.76602 -2.81384,3.37589 -2.17479,5.67265 1.97335,7.09251 3.06043,14.57634 8.85025,19.9777 1.74138,1.6262 3.20931,2.52055 5.35119,1.49746 14.63848,-6.99041 30.14816,-15.44899 40.25715,-17.59456 2.3225,-0.49255 3.09708,-3.47387 2.17467,-5.67258 -1.90544,-4.56525 -3.09197,-9.87185 -9.6255,-19.03342 -1.38484,-1.94066 -3.3805,-2.85349 -5.66268,-2.20059 -3.607,1.03221 -6.97343,2.33105 -10.21613,3.7735 z m 191.11712,-83.91526 c -2.22359,0.83079 -2.67999,3.3423 -2.17236,5.67157 2.39574,10.99476 6.7493,15.49937 8.85025,19.97769 1.01478,2.15808 3.56242,3.31205 5.65932,2.19957 11.25405,-5.97012 24.15998,-11.20852 39.17283,-17.35382 2.19647,-0.89954 2.20686,-3.2867 2.17353,-5.66957 -0.11058,-7.9173 -4.92299,-13.75079 -8.85025,-19.97771 -1.2721,-2.01631 -3.62078,-3.41564 -5.66049,-2.20156 -12.90007,7.67781 -25.22131,12.14891 -39.17283,17.35383 z M 241.94632,840.73983 c -9.72316,4.33784 -18.33238,9.95828 -28.95493,13.57812 -2.2467,0.766 -2.81487,3.37353 -2.17573,5.67052 1.97324,7.09226 2.52835,13.37528 8.31824,18.77677 1.74126,1.62593 3.36788,2.80941 5.66163,2.19823 15.86311,-4.22603 27.68097,-11.9146 39.17054,-17.3528 2.14228,-1.02254 3.0981,-3.47156 2.17583,-5.67029 -1.90536,-4.56513 -1.7847,-9.61521 -8.31824,-18.77677 -1.38483,-1.94065 -3.37952,-2.85128 -5.66173,-2.19847 -3.60702,1.03218 -6.97344,2.33104 -10.21561,3.77469 z m 191.11711,-83.91526 c -2.24084,0.78257 -2.68092,3.3402 -2.17329,5.66945 2.39569,10.99465 6.75028,15.50159 8.85129,19.98005 1.01467,2.15784 3.46577,3.10637 5.65927,2.19944 11.74761,-4.85602 25.38468,-8.444 39.17284,-17.35383 1.99376,-1.28879 2.20691,-3.28657 2.17357,-5.66944 -0.11064,-7.91743 -4.92414,-13.75338 -8.85129,-19.98005 -1.27219,-2.01654 -3.61365,-3.40322 -5.65955,-2.19944 -6.42819,3.78372 -12.62189,6.01622 -19.01266,8.78127 -6.49023,2.80171 -13.17683,6.13716 -20.16018,8.57255 z M 224.94756,883.38736 c -1.63354,0.94567 -1.95132,3.34879 -1.39211,5.35866 1.97336,7.09254 3.06136,14.57845 8.85135,19.9802 1.74126,1.62593 3.33026,2.64666 5.66165,2.19823 12.52005,-2.40722 25.00762,-10.79489 39.17054,-17.3528 2.15364,-0.99817 3.09809,-3.47157 2.17581,-5.6703 -1.90541,-4.56526 -2.31775,-10.81849 -8.85135,-19.98019 -1.38483,-1.94064 -3.61518,-3.40104 -5.66163,-2.19824 -11.85106,6.96549 -23.98053,13.65614 -39.17054,17.35281 -0.29377,0.0567 -0.55297,0.17148 -0.78663,0.30441 z M 486.08657,768.66059 c -0.2569,0.0834 -0.51258,0.19667 -0.75155,0.37702 -12.9436,8.76685 -26.05119,13.25612 -39.17271,17.35377 -2.26562,0.70851 -2.68012,3.34236 -2.17265,5.67156 2.39585,10.99472 6.7493,15.49936 8.85036,19.97794 1.01431,2.158 3.64707,3.45821 5.65946,2.19922 12.23003,-7.65194 25.96846,-11.90095 39.17271,-17.35377 2.19684,-0.89972 2.20694,-3.28687 2.17362,-5.66932 -0.11075,-7.91768 -4.92314,-13.75116 -8.85036,-19.97794 -1.11234,-1.76472 -3.10727,-3.14606 -4.90523,-2.57157 z M 214.2408,922.15017 c -3.16678,1.37249 -4.28268,5.58517 -2.82916,8.86621 l 2.4481,5.5261 c 1.55049,3.49991 5.48042,4.76535 9.08634,3.53291 20.90127,-7.14566 41.29647,-14.42624 60.93666,-22.74226 58.24461,-24.45383 128.4927,-55.87544 193.98515,-86.24236 20.44462,-9.57873 31.73386,-17.48026 52.50868,-27.20866 3.45023,-1.61652 5.03835,-5.6036 3.48785,-9.10356 l -2.44802,-5.52593 c -1.55045,-3.49982 -5.71216,-5.30397 -9.08598,-3.5331 -12.75504,6.69532 -25.19953,14.18542 -38.58436,19.70179 -52.88446,21.79638 -105.47213,51.74919 -163.44104,71.97342 -35.47946,12.37857 -67.38038,33.58773 -105.40508,44.5181 -0.23265,0.059 -0.45105,0.14086 -0.66135,0.23402 z"
       style="fill:#000000;fill-opacity:1;stroke:none;stroke-width:10;stroke-linecap:round;stroke-linejoin:round;stroke-miterlimit:4;stroke-dasharray:none;stroke-dashoffset:0;stroke-opacity:1" />
  </g>
</svg>
