<?xml version="1.0" encoding="UTF-8" standalone="no"?>
<svg
   xmlns:dc="http://purl.org/dc/elements/1.1/"
   xmlns:cc="http://creativecommons.org/ns#"
   xmlns:rdf="http://www.w3.org/1999/02/22-rdf-syntax-ns#"
   xmlns:svg="http://www.w3.org/2000/svg"
   xmlns="http://www.w3.org/2000/svg"
   xmlns:sodipodi="http://sodipodi.sourceforge.net/DTD/sodipodi-0.dtd"
   xmlns:inkscape="http://www.inkscape.org/namespaces/inkscape"
   width="675"
   height="600"
   viewBox="0 0 675.00001 600.00001"
   id="svg4372"
   version="1.1"
   inkscape:version="1.0 (4035a4fb49, 2020-05-01)"
   sodipodi:docname="lockdown.svg"
   inkscape:export-filename="G:\code\timber-wolf\_output\gate-a[face].png"
   inkscape:export-xdpi="90"
   inkscape:export-ydpi="90">
  <defs
     id="defs4374">
    <filter
       inkscape:label="Linen Canvas"
       inkscape:menu="Bumps"
       inkscape:menu-tooltip="Painting canvas emboss effect"
       style="color-interpolation-filters:sRGB;"
       id="filter5738">
      <feTurbulence
         numOctaves="5"
         baseFrequency="0.4"
         id="feTurbulence5740" />
      <feConvolveMatrix
         order="5 5"
         kernelMatrix="-4 0 0 0 -4 0 -2 0 -2 0 0 0 -10 0 0 0 -2 0 -2 0 -4 0 0 0 -4 "
         targetX="2"
         targetY="2"
         id="feConvolveMatrix5742" />
      <feConvolveMatrix
         order="3 3"
         kernelMatrix="2 0 2 0 -5 0 2 0 2 "
         targetX="1"
         targetY="1"
         id="feConvolveMatrix5744" />
      <feColorMatrix
         type="saturate"
         result="result1"
         id="feColorMatrix5746" />
      <feComposite
         in2="SourceGraphic"
         operator="arithmetic"
         k1="1.5"
         k2="0.5"
         k3="0.5"
         result="result2"
         id="feComposite5748" />
      <feBlend
         mode="normal"
         in2="result1"
         result="result4"
         id="feBlend5750" />
      <feColorMatrix
         type="luminanceToAlpha"
         id="feColorMatrix5752" />
      <feDiffuseLighting
         surfaceScale="10"
         diffuseConstant="1"
         result="result3"
         id="feDiffuseLighting5754">
        <feDistantLight
           azimuth="180"
           elevation="35"
           id="feDistantLight5756" />
      </feDiffuseLighting>
      <feComposite
         in2="result4"
         operator="arithmetic"
         k1="1.5"
         k3="0.5"
         result="result5"
         id="feComposite5758" />
      <feBlend
         mode="normal"
         in2="result3"
         result="result6"
         id="feBlend5760" />
      <feComposite
         in2="SourceGraphic"
         operator="in"
         id="feComposite5762" />
    </filter>
  </defs>
  <sodipodi:namedview
     id="base"
     pagecolor="#ffffff"
     bordercolor="#666666"
     borderopacity="1.0"
     inkscape:pageopacity="0.0"
     inkscape:pageshadow="2"
     inkscape:zoom="0.7"
     inkscape:cx="578.89336"
     inkscape:cy="240.548"
     inkscape:document-units="px"
     inkscape:current-layer="layer1"
     showgrid="false"
     units="px"
     inkscape:window-width="1920"
     inkscape:window-height="1017"
     inkscape:window-x="-8"
     inkscape:window-y="-8"
     inkscape:window-maximized="1"
     showguides="true"
     inkscape:guide-bbox="true"
     inkscape:document-rotation="0">
    <sodipodi:guide
       position="398.21429,599.64287"
       orientation="0,1"
       id="guide5702" />
    <sodipodi:guide
       position="0,563.57144"
       orientation="1,0"
       id="guide5704" />
    <sodipodi:guide
       position="675.00001,518.20826"
       orientation="1,0"
       id="guide5706"
       inkscape:label=""
       inkscape:color="rgb(0,0,255)" />
    <sodipodi:guide
       position="39.285715,0"
       orientation="0,1"
       id="guide5708"
       inkscape:label=""
       inkscape:color="rgb(0,0,255)" />
  </sodipodi:namedview>
  <metadata
     id="metadata4377">
    <rdf:RDF>
      <cc:Work
         rdf:about="">
        <dc:format>image/svg+xml</dc:format>
        <dc:type
           rdf:resource="http://purl.org/dc/dcmitype/StillImage" />
        <dc:title />
      </cc:Work>
    </rdf:RDF>
  </metadata>
  <g
     inkscape:label="Layer 1"
     inkscape:groupmode="layer"
     id="layer1"
     transform="translate(0,-452.36216)">
    <path
       inkscape:connector-curvature="0"
       id="path8070"
       d="m 205.35461,574.53108 c -4.27861,2.62704 -9.88927,8.34929 -7.62169,10.65546 3.665,1.11495 7.03808,3.7771 10.44431,5.95257 7.59573,4.85101 14.86428,11.05414 22.41568,19.01664 2.87679,0.2635 3.48904,-0.37607 6.09725,-2.78495 1.74161,-1.60741 3.31618,-2.86867 3.04576,-4.79796 -0.57425,-3.0702 -1.41475,-5.91873 -2.1929,-8.89944 -0.86344,-3.30628 -1.64182,-6.7648 -1.74762,-10.62437 -0.21817,-7.95985 0.22982,-14.92768 -0.70562,-20.70814 -0.46465,-2.33735 -6.10304,-0.16622 -8.19375,1.02779 -4.478,2.55328 -10.06682,5.99036 -18.90473,9.91717 -0.73085,0.19719 -1.64936,0.63899 -2.63695,1.24477 z m -13.91527,11.62732 c -0.53974,0.23402 -0.98297,0.62976 -1.29673,1.13027 -4.13771,6.76923 -11.49438,7.69586 -13.53325,14.52696 -0.68003,2.27949 0.2719,4.86012 2.55704,5.52292 13.9025,4.03166 16.1334,6.65998 32.3776,16.74025 8.06922,0.74915 12.65292,-6.0393 13.98468,-7.8134 1.39979,-1.91892 1.77887,-4.44414 0.0442,-6.07877 -8.52575,-12.10839 -17.36915,-15.3593 -29.36482,-22.82878 -0.91787,-1.53459 -3.17557,-1.94315 -4.76804,-1.19778 z m 47.77658,-25.67492 c -1.44172,1.00616 -2.21217,3.16625 -1.34506,4.73041 0.47091,14.12332 -1.13602,23.40743 5.08767,36.84506 0.54852,2.31948 2.92435,3.25433 5.28659,3.00108 11.95815,-1.28053 7.01876,-2.34692 11.62832,-4.09828 2.21959,-0.84245 3.27629,-2.34299 3.20111,-4.72288 -0.60766,-19.10803 -1.76856,-22.35444 1.69122,-36.41034 0.5687,-2.31019 -1.1911,-4.4275 -3.50567,-4.97806 -6.9357,-1.65042 -12.48511,4.87785 -20.41601,5.07661 -0.59293,0.0135 -1.14808,0.22074 -1.62776,0.55661 z m -68.04812,48.33989 c -0.47252,0.3504 -0.86529,0.78813 -1.08329,1.34056 -2.91231,7.38583 -10.94558,10.35709 -11.78081,17.44297 -0.27862,2.36406 1.09383,4.81829 3.46518,5.00422 14.62596,1.15124 18.301,1.5887 34.74603,10.92317 8.07207,-0.65178 12.36895,-8.92399 13.375,-10.90273 1.04861,-2.13349 0.98908,-4.68872 -0.99908,-6.00141 -10.46914,-10.46793 -19.7328,-12.14998 -32.82264,-17.44667 -1.16984,-1.35219 -3.45942,-1.37001 -4.89924,-0.36109 z m 98.14347,-53.24858 c -1.58577,0.76037 -2.68325,2.77475 -2.07243,4.45538 -1.75307,14.01256 -4.80067,22.92134 -0.76142,37.16517 0.17785,2.37558 2.37871,3.67342 4.75261,3.7966 2.21836,0.086 11.53692,0.36417 16.0392,-6.3676 2.401,-18.95388 1.76434,-22.34082 7.39102,-35.66646 0.92489,-2.1905 -0.48009,-4.55442 -2.68133,-5.46268 -6.59427,-2.72354 -13.10342,2.84243 -20.97189,1.78702 -0.58857,-0.0806 -1.16903,0.0374 -1.697,0.29252 z m -114.24933,78.85262 c -0.7621,0.4721 -1.34625,1.193 -1.51868,2.06823 -1.53337,7.79658 -8.89013,12.17232 -8.43603,19.29816 0.15137,2.37781 1.93731,4.50829 4.30334,4.30139 14.56732,-1.27559 19.90005,-2.59475 36.95369,3.7337 7.81678,-2.10072 9.71312,-10.28573 10.34593,-12.41538 0.64717,-2.28926 0.12786,-4.7925 -2.06218,-5.72489 -12.17377,-8.41135 -21.57994,-8.39139 -35.39896,-11.23857 -1.16098,-0.933 -2.91893,-0.81396 -4.18683,-0.0224 z m 144.68912,-78.94812 c -1.32706,0.68858 -2.30528,2.16401 -2.07739,3.63637 -4.44367,13.39115 -9.16402,21.52715 -7.9665,36.27559 -0.28751,2.36314 1.6219,4.06632 3.92804,4.65043 2.16094,0.51688 11.25344,2.60833 16.98095,-3.11076 6.03976,-18.1072 4.83356,-23.69893 12.94621,-35.66094 1.33353,-1.96599 0.41065,-4.5608 -1.57232,-5.88081 -5.94406,-3.95638 -12.17192,2.38031 -19.69056,-0.18996 -0.84546,-0.28751 -1.75673,-0.14149 -2.54838,0.27989 z m -154.7814,107.12187 c -1.34775,0.65405 -2.3757,2.08056 -2.18262,3.55843 1.02921,7.88947 -3.36908,13.06018 -2.37368,20.13259 0.3323,2.3596 2.27991,4.36077 4.61992,3.95994 4.27473,-0.73318 24.51401,-3.66608 28.80551,-3.75181 4.49609,-0.0898 3.43437,0.86821 10.59033,-0.064 2.31961,-0.30139 3.93563,-1.343 4.42623,-2.88438 1.67008,-5.2395 2.46537,-9.7701 2.7301,-13.90164 -0.11645,-2.3789 -2.67369,-2.99676 -5.04343,-3.18175 -14.19809,-4.09109 -25.02201,-5.78836 -39.00738,-4.07358 -0.83779,-0.30902 -1.75773,-0.18899 -2.56519,0.20582 z M 332.02789,554.87619 c -0.74237,0.50621 -1.30968,1.23862 -1.46166,2.11752 -8.47783,11.25479 -13.37895,25.08938 -16.935,39.4319 -2.04347,4.67056 12.90514,12.62719 19.35162,8.14022 5.78194,-12.57821 14.00923,-23.11932 24.21024,-35.39303 1.51763,-1.82716 0.75627,-4.51212 -1.12136,-5.97968 -5.62727,-4.39816 -13.5544,-3.59489 -19.87253,-8.43082 -1.18214,-0.90545 -2.92871,-0.72282 -4.17171,0.1132 z m -97.92745,62.81648 c -5.08648,3.35555 -9.75631,7.0259 -13.95982,10.96365 l 10.09729,17.48902 -16.24423,9.37861 -6.87052,-11.90009 c -4.07228,5.81107 -7.35675,11.91516 -9.79822,18.16721 l 1.45344,2.51744 -2.95393,1.70545 c -2.44084,7.45082 -3.71944,15.051 -3.7592,22.55073 l 15.53808,-8.97092 9.50529,16.46364 -21.99282,12.69756 c 0.22472,0.70489 0.44577,1.41138 0.69622,2.10996 l 5.32268,14.798 24.80025,-14.31843 11.54329,19.99358 21.45258,19.59036 -6.23728,-28.37492 -11.5433,-19.99357 16.24422,-9.37861 11.5433,19.99358 21.45476,19.5891 -6.23748,-28.3748 -11.5433,-19.99358 16.24654,-9.37994 11.54329,19.99358 21.45488,19.58903 -6.24178,-28.37232 -11.5433,-19.99357 16.2464,-9.37987 11.5433,19.99358 21.45477,19.58909 -6.23727,-28.37492 -11.54329,-19.99358 24.52242,-14.15802 -8.91839,-9.28166 c -0.83491,-1.4461 -1.8987,-2.82044 -3.15998,-4.12787 l -21.26945,12.27992 -9.50528,-16.46364 11.61106,-6.70365 c -11.25825,-3.812 -25.19785,-5.87412 -39.2096,-5.95568 l 3.55633,6.15975 -16.24654,9.37995 -8.16053,-14.13445 c -6.33236,0.92397 -12.3658,2.32425 -17.8603,4.19819 l 10.80781,18.71967 -16.24643,9.37988 -11.35481,-19.6671 z m 129.24271,-51.8044 c -0.49569,0.31829 -0.90828,0.74306 -1.15704,1.28235 -8.31828,9.81752 -15.9592,22.17504 -26.55644,33.65628 -1.5445,1.80388 -0.88963,4.27496 0.7136,6.03917 8.11889,8.93176 10.4004,6.0705 13.35867,9.83268 1.4741,1.87384 5.02732,1.46879 6.02379,-0.68919 5.79196,-12.54193 12.14841,-23.70007 26.55767,-33.65419 1.95355,-1.34814 1.06168,-4.45093 -0.7126,-6.04254 -5.31791,-4.77012 -8.50063,-3.52593 -13.36093,-9.83121 -1.09232,-1.41603 -3.37346,-1.53353 -4.86672,-0.59335 z M 138.94333,695.71394 c -1.56066,0.82344 -2.6006,2.86197 -1.92045,4.51453 3.03039,7.36178 0.11506,8.62641 1.58718,15.61703 0.49099,2.33218 2.56309,4.19896 4.87311,3.6375 15.50676,-3.7624 28.51431,-7.73671 42.34962,-7.39563 2.37583,0.0586 4.48884,-2.66923 3.6087,-4.87197 -1.77912,-4.44297 2.16648,-2.896 -1.50918,-14.39307 -0.72694,-2.27014 -2.54104,-4.07505 -4.87657,-3.63848 -14.75725,-0.27295 -29.36971,0.88523 -42.42197,6.17135 -0.59122,-0.0558 -1.16974,0.0843 -1.69051,0.35861 z m 83.87529,-24.90474 16.24423,-9.37862 9.50542,16.46387 -16.24423,9.37862 z m 31.4615,-18.16431 16.24653,-9.37994 9.50542,16.46387 -16.24653,9.37994 z m 31.45962,-18.16322 16.24644,-9.37989 9.50542,16.46387 -16.24644,9.37989 z m 99.92618,-52.74648 c -0.50676,0.30182 -0.9281,0.72211 -1.19026,1.25498 -11.31963,8.37571 -19.93233,20.23816 -27.39829,32.96875 -1.59075,1.76232 -0.82395,4.11432 0.56174,6.05439 3.90345,5.46373 5.07348,8.60011 6.73759,13.08743 0.83001,2.23467 2.69729,1.05592 4.42084,-0.57693 10.03634,-9.50896 23.12194,-14.44314 37.15464,-22.02679 2.08843,-1.12815 2.3734,-3.89987 1.17237,-5.96003 -3.60806,-6.16915 -11.90722,-17.66063 -16.60754,-24.08604 -1.05564,-1.44309 -3.33545,-1.61907 -4.85199,-0.7171 z M 140.47545,724.87893 c -1.47889,0.96261 -2.33049,3.08345 -1.50384,4.66931 3.67828,7.0611 9.42424,18.07523 13.36177,24.03929 1.31291,1.99047 3.92765,2.95753 5.86318,1.58378 13.00812,-9.23283 24.13655,-16.62665 37.10251,-21.42115 2.22664,-0.82326 3.19674,-4.13633 1.56024,-5.86969 -3.28561,-3.47886 -4.70194,-4.39597 -7.87305,-10.31477 -1.12215,-2.10403 -2.89615,-3.82874 -5.18155,-3.18269 -14.71633,1.06301 -29.16287,3.53831 -41.68092,9.98561 -0.59436,3.2e-4 -1.15479,0.19044 -1.64912,0.50999 z m 37.48835,20.16299 c -6.28082,3.51758 -12.1142,7.43937 -17.22457,11.89696 -2.27644,0.67362 -2.27855,3.5966 -1.56019,5.86982 2.24801,7.11261 5.38685,12.57361 10.4331,18.07066 1.61298,1.75594 3.97341,3.01985 5.86358,1.58387 12.76829,-9.7028 24.26115,-15.78841 37.1024,-21.42108 2.17372,-0.95393 3.19686,-4.1364 1.55998,-5.86986 -3.28445,-3.47955 -2.7927,-8.72502 -10.4331,-18.07066 -1.51019,-1.84541 -3.85699,-2.8522 -5.86337,-1.58383 -6.88125,2.87455 -13.59981,6.00173 -19.87783,9.52412 z M 387.78582,623.90113 c -6.18667,3.68064 -12.25952,7.93127 -18.18934,12.45396 -2.10088,1.10417 -2.40199,3.63852 -1.55785,5.86847 4.2737,11.28941 9.55521,14.34086 10.92643,18.92513 0.68245,2.28404 3.90915,2.93534 5.86102,1.58485 11.62634,-8.04348 22.00723,-16.02989 37.10483,-21.42248 2.23535,-0.79881 2.27303,-3.59386 1.55798,-5.86822 -2.23745,-7.11871 -5.89057,-13.42208 -10.92642,-18.92513 -1.60982,-1.75854 -4.14,-3.22044 -5.86117,-1.5851 -6.41535,2.19758 -12.72586,5.29271 -18.91548,8.96852 z m 15.94971,28.09391 c -6.18655,3.68058 -12.25728,7.93462 -18.1879,12.45592 -2.10103,1.10425 -1.94397,3.51683 -1.55794,5.86836 1.90771,11.62658 8.05301,13.1806 10.19344,17.65556 1.02867,2.151 3.71822,2.60574 5.86112,1.58496 12.96324,-6.17503 25.24495,-11.20061 37.10457,-21.42233 1.79739,-1.55123 2.27286,-3.59392 1.55817,-5.8685 -2.2375,-7.11852 -5.15766,-12.15229 -10.19344,-17.65555 -1.60976,-1.75841 -4.14004,-3.22025 -5.86135,-1.58484 -6.41512,2.19745 -12.72718,5.2907 -18.91667,8.96642 z M 194.96989,773.16045 c -6.28028,3.51715 -12.32761,7.35461 -17.87507,11.64035 -2.277,0.67236 -2.27861,3.59648 -1.56031,5.86958 2.248,7.11261 5.88016,13.42808 10.92642,18.92512 1.61171,1.7564 3.71555,2.59411 5.86336,1.58351 13.9687,-6.57087 25.14656,-13.50224 37.1024,-21.42108 1.9792,-1.31038 2.90841,-3.90315 1.5603,-5.86957 -2.80534,-4.09135 -1.81167,-11.45969 -10.92649,-18.92524 -1.84325,-1.5102 -3.85715,-2.85196 -5.86335,-1.58352 -6.44834,3.04499 -12.95048,6.25761 -19.22733,9.78073 z M 438.92816,669.50387 c -0.25826,0.11701 -0.49317,0.28522 -0.70328,0.499 -11.33006,10.76565 -24.22581,14.66162 -37.1047,21.42241 -2.10097,1.10434 -2.86952,3.87992 -1.55681,5.87035 6.0778,9.21911 9.48775,14.04207 10.92515,18.92292 0.67444,2.28618 3.77415,2.71542 5.86127,1.58519 11.1785,-6.05367 24.03825,-11.62348 37.1047,-21.42241 1.89839,-1.42491 2.37017,-3.62698 1.55791,-5.86865 -2.52067,-6.95503 -8.01984,-12.18966 -10.92516,-18.92292 -0.82761,-1.91494 -3.37687,-2.94445 -5.15446,-2.07627 z M 192.54139,813.27566 c -1.64123,1.10433 -2.02437,3.82849 -0.77899,5.50225 4.37839,5.88247 5.504,12.12231 10.26697,17.78291 1.53512,1.82435 3.75673,2.67723 5.86342,1.58363 14.40698,-7.47704 25.0287,-16.91815 37.1024,-21.42108 2.22488,-0.82842 3.20393,-4.14294 1.56024,-5.86968 -3.50817,-3.68513 -5.32195,-7.90994 -10.26697,-17.78292 -1.06852,-2.13155 -3.8585,-2.85429 -5.86469,-1.58584 -12.29452,7.77303 -22.11379,16.99196 -37.1024,21.42108 -0.28924,0.074 -0.54742,0.20728 -0.78494,0.36023 z m 43.62167,9.88806 c -9.20656,5.34752 -17.16919,11.85165 -27.34628,16.58112 -2.15247,1.00066 -2.43877,3.65605 -1.55903,5.8718 2.71662,6.84236 4.59361,14.16809 10.92515,18.92292 1.90448,1.43173 3.45922,2.16486 5.48012,0.91973 13.81182,-8.5079 28.33373,-18.56832 38.15713,-21.77705 2.25693,-0.73681 2.70998,-3.78361 1.55891,-5.87172 -2.38025,-4.33666 -4.12453,-9.48694 -11.59555,-17.90153 -1.58341,-1.78233 -3.66485,-2.4777 -5.86463,-1.58574 -3.47674,1.41005 -6.6859,3.05962 -9.75677,4.83882 z M 417.2694,719.39467 c -2.1226,1.06261 -2.30925,3.60842 -1.55673,5.87047 3.55171,10.67754 8.35974,14.69348 10.92515,18.92291 1.23858,2.03789 3.89452,2.9143 5.86119,1.58508 10.55513,-7.13339 22.8306,-13.71492 37.10457,-21.42233 2.08832,-1.12809 1.84472,-3.50281 1.5581,-5.86861 -0.95215,-7.86062 -6.35778,-13.14909 -10.92515,-18.92292 -1.47936,-1.86956 -3.96357,-3.01111 -5.86256,-1.58694 -12.01015,9.00648 -23.78588,14.76287 -37.10457,21.42234 z M 251.88957,850.40283 c -9.20656,5.34752 -17.16906,11.85187 -27.34628,16.58113 -2.15247,1.00065 -2.44005,3.65382 -1.56019,5.86979 2.71648,6.84212 3.93679,13.03044 10.2684,17.78539 1.90434,1.43148 3.64762,2.43522 5.86335,1.58351 15.32356,-5.88948 26.2565,-14.79154 37.1024,-21.42108 2.02135,-1.24462 2.71124,-3.78142 1.56031,-5.86957 -2.38016,-4.33654 -2.79738,-9.37081 -10.2684,-17.78539 -1.58341,-1.78232 -3.66365,-2.4756 -5.86347,-1.58373 -3.47676,1.41002 -6.68591,3.05961 -9.75612,4.83995 z M 432.99591,746.63378 c -2.14489,1.01649 -2.3104,3.60642 -1.55788,5.86846 3.55164,10.67743 8.36095,14.69558 10.92643,18.92514 1.23845,2.03766 3.77654,2.72008 5.86112,1.58496 11.1644,-6.07811 24.34243,-11.09636 37.10458,-21.42234 1.84536,-1.49357 1.84479,-3.50268 1.55816,-5.86849 -0.95222,-7.86074 -6.3592,-13.15154 -10.92643,-18.92514 -1.47948,-1.86977 -3.95516,-2.99951 -5.8614,-1.58493 -5.98923,4.44605 -11.91031,7.32473 -17.97069,10.7539 -6.15537,3.47621 -12.44923,7.50402 -19.13389,10.66844 z M 239.52385,894.61661 c -1.52367,1.11407 -1.58402,3.53736 -0.81419,5.47634 2.71663,6.84239 4.59476,14.17009 10.92651,18.92528 1.90434,1.43148 3.5929,2.27739 5.86336,1.58351 12.19295,-3.72537 23.71743,-13.39381 37.1024,-21.42108 2.03525,-1.22159 2.71123,-3.78142 1.5603,-5.86957 -2.38023,-4.33667 -3.45541,-10.51056 -10.92651,-18.92527 -1.5834,-1.78232 -3.95645,-2.99719 -5.86334,-1.58352 -11.04287,8.18661 -22.39181,16.12956 -37.1024,21.42108 -0.28608,0.0876 -0.5316,0.22933 -0.74979,0.38636 z m 247.4534,-141.85426 c -0.24657,0.11026 -0.48875,0.25008 -0.70718,0.45483 -11.9376,10.09397 -24.49327,15.95208 -37.10446,21.42227 -2.1774,0.94549 -2.30937,3.60849 -1.55702,5.87049 3.55181,10.67748 8.35974,14.69347 10.92528,18.92314 1.23811,2.03786 3.99424,3.05064 5.86129,1.58472 11.34667,-8.90948 24.55517,-14.59579 37.10446,-21.42227 2.08867,-1.1283 1.84478,-3.50298 1.55822,-5.86837 -0.95236,-7.86097 -6.35798,-13.14944 -10.92528,-18.92314 -1.29375,-1.63638 -3.4243,-2.79767 -5.15095,-2.03519 z M 233.0012,934.29841 c -3.00281,1.70157 -3.66426,6.00905 -1.86997,9.11686 l 3.02204,5.23433 c 1.91399,3.31512 5.95624,4.15533 9.4106,2.54631 20.02256,-9.32847 39.52758,-18.73726 58.17173,-29.09531 55.31288,-30.5108 121.81995,-69.22671 183.71055,-106.38803 19.3097,-11.69916 29.69436,-20.75674 49.31646,-32.63985 3.2587,-1.97436 4.41369,-6.10776 2.49968,-9.42292 l -3.02195,-5.23417 c -1.91394,-3.31504 -6.24395,-4.66626 -9.41026,-2.54655 -11.97046,8.01414 -23.54759,16.78552 -36.26967,23.69439 -50.26584,27.29825 -99.36893,62.67508 -154.8576,88.95095 -33.9614,16.08243 -63.42521,40.56469 -100.07146,55.47788 -0.22505,0.0834 -0.4335,0.18804 -0.6327,0.30305 z"
       style="fill:#000000;fill-opacity:1;stroke:none;stroke-width:10;stroke-linecap:round;stroke-linejoin:round;stroke-miterlimit:4;stroke-dasharray:none;stroke-dashoffset:0;stroke-opacity:1" />
  </g>
</svg>
