<?xml version="1.0" encoding="UTF-8" standalone="no"?>
<svg
   xmlns:dc="http://purl.org/dc/elements/1.1/"
   xmlns:cc="http://creativecommons.org/ns#"
   xmlns:rdf="http://www.w3.org/1999/02/22-rdf-syntax-ns#"
   xmlns:svg="http://www.w3.org/2000/svg"
   xmlns="http://www.w3.org/2000/svg"
   xmlns:sodipodi="http://sodipodi.sourceforge.net/DTD/sodipodi-0.dtd"
   xmlns:inkscape="http://www.inkscape.org/namespaces/inkscape"
   inkscape:export-ydpi="557.59998"
   inkscape:export-xdpi="557.59998"
   inkscape:export-filename="C:\code\timber-wolf\img\noise event tracker.png"
   width="1009.9125"
   height="195.99997"
   viewBox="0 0 267.20603 51.858325"
   version="1.1"
   id="svg8"
   inkscape:version="1.0 (4035a4fb49, 2020-05-01)"
   sodipodi:docname="noise tracker 3p.svg">
  <defs
     id="defs2">
    <inkscape:path-effect
       effect="roughen"
       id="path-effect3566"
       is_visible="true"
       lpeversion="1"
       method="segments"
       max_segment_size="0.25"
       segments="4"
       displace_x="3.19;518287754"
       displace_y="2.6;397654316"
       global_randomize="1.3;902735802"
       handles="along"
       shift_nodes="true"
       fixed_displacement="true"
       spray_tool_friendly="true" />
    <inkscape:path-effect
       effect="roughen"
       id="path-effect3153"
       is_visible="true"
       lpeversion="1"
       method="segments"
       max_segment_size="0.208081"
       segments="2"
       displace_x="10;1"
       displace_y="10;1"
       global_randomize="1;1"
       handles="along"
       shift_nodes="true"
       fixed_displacement="true"
       spray_tool_friendly="true" />
    <marker
       inkscape:isstock="true"
       style="overflow:visible"
       id="marker15102"
       refX="0"
       refY="0"
       orient="auto"
       inkscape:stockid="Arrow2Lend">
      <path
         transform="matrix(-1.1,0,0,-1.1,-1.1,0)"
         d="M 8.7185878,4.0337352 -2.2072895,0.01601326 8.7185884,-4.0017078 c -1.7454984,2.3720609 -1.7354408,5.6174519 -6e-7,8.035443 z"
         style="fill:#000000;fill-opacity:1;fill-rule:evenodd;stroke:#000000;stroke-width:0.625;stroke-linejoin:round;stroke-opacity:1"
         id="path15104"
         inkscape:connector-curvature="0" />
    </marker>
    <inkscape:perspective
       sodipodi:type="inkscape:persp3d"
       inkscape:vp_x="18.016193 : -391.33288 : 1"
       inkscape:vp_y="506.34563 : 47.252994 : 0"
       inkscape:vp_z="58.84304 : -1069.9507 : 1"
       inkscape:persp3d-origin="-41.513536 : -621.2305 : 1"
       id="perspective4718" />
    <marker
       inkscape:stockid="Arrow2Lend"
       orient="auto"
       refY="0"
       refX="0"
       id="Arrow2Lend"
       style="overflow:visible"
       inkscape:isstock="true">
      <path
         id="path5089"
         style="fill:#ffffff;fill-opacity:1;fill-rule:evenodd;stroke:#ffffff;stroke-width:0.625;stroke-linejoin:round;stroke-opacity:1"
         d="M 8.7185878,4.0337352 -2.2072895,0.01601326 8.7185884,-4.0017078 c -1.7454984,2.3720609 -1.7354408,5.6174519 -6e-7,8.035443 z"
         transform="matrix(-1.1,0,0,-1.1,-1.1,0)"
         inkscape:connector-curvature="0" />
    </marker>
    <marker
       inkscape:stockid="Arrow1Mend"
       orient="auto"
       refY="0"
       refX="0"
       id="Arrow1Mend"
       style="overflow:visible"
       inkscape:isstock="true">
      <path
         id="path5077"
         d="M 0,0 5,-5 -12.5,0 5,5 Z"
         style="fill:#000000;fill-opacity:1;fill-rule:evenodd;stroke:#000000;stroke-width:1pt;stroke-opacity:1"
         transform="matrix(-0.4,0,0,-0.4,-4,0)"
         inkscape:connector-curvature="0" />
    </marker>
    <filter
       inkscape:label="Linen Canvas"
       inkscape:menu="Bumps"
       inkscape:menu-tooltip="Painting canvas emboss effect"
       style="color-interpolation-filters:sRGB"
       id="filter5738">
      <feTurbulence
         numOctaves="5"
         baseFrequency="0.4"
         id="feTurbulence5740" />
      <feConvolveMatrix
         order="5 5"
         kernelMatrix="-4 0 0 0 -4 0 -2 0 -2 0 0 0 -10 0 0 0 -2 0 -2 0 -4 0 0 0 -4 "
         targetX="2"
         targetY="2"
         id="feConvolveMatrix5742" />
      <feConvolveMatrix
         order="3 3"
         kernelMatrix="2 0 2 0 -5 0 2 0 2 "
         targetX="1"
         targetY="1"
         id="feConvolveMatrix5744" />
      <feColorMatrix
         type="saturate"
         result="result1"
         id="feColorMatrix5746" />
      <feComposite
         k4="0"
         in2="SourceGraphic"
         operator="arithmetic"
         k1="1.5"
         k2="0.5"
         k3="0.5"
         result="result2"
         id="feComposite5748" />
      <feBlend
         mode="normal"
         in2="result1"
         result="result4"
         id="feBlend5750" />
      <feColorMatrix
         type="luminanceToAlpha"
         id="feColorMatrix5752" />
      <feDiffuseLighting
         surfaceScale="10"
         diffuseConstant="1"
         result="result3"
         id="feDiffuseLighting5754">
        <feDistantLight
           azimuth="180"
           elevation="35"
           id="feDistantLight5756" />
      </feDiffuseLighting>
      <feComposite
         k4="0"
         k2="0"
         in2="result4"
         operator="arithmetic"
         k1="1.5"
         k3="0.5"
         result="result5"
         id="feComposite5758" />
      <feBlend
         mode="normal"
         in2="result3"
         result="result6"
         id="feBlend5760" />
      <feComposite
         in2="SourceGraphic"
         operator="in"
         id="feComposite5762" />
    </filter>
    <filter
       inkscape:label="Linen Canvas"
       inkscape:menu="Bumps"
       inkscape:menu-tooltip="Painting canvas emboss effect"
       style="color-interpolation-filters:sRGB"
       id="filter5738-7">
      <feTurbulence
         numOctaves="5"
         baseFrequency="0.4"
         id="feTurbulence5740-2" />
      <feConvolveMatrix
         order="5 5"
         kernelMatrix="-4 0 0 0 -4 0 -2 0 -2 0 0 0 -10 0 0 0 -2 0 -2 0 -4 0 0 0 -4 "
         targetX="2"
         targetY="2"
         id="feConvolveMatrix5742-7" />
      <feConvolveMatrix
         order="3 3"
         kernelMatrix="2 0 2 0 -5 0 2 0 2 "
         targetX="1"
         targetY="1"
         id="feConvolveMatrix5744-6" />
      <feColorMatrix
         type="saturate"
         result="result1"
         id="feColorMatrix5746-7" />
      <feComposite
         k4="0"
         in2="SourceGraphic"
         operator="arithmetic"
         k1="1.5"
         k2="0.5"
         k3="0.5"
         result="result2"
         id="feComposite5748-0" />
      <feBlend
         mode="normal"
         in2="result1"
         result="result4"
         id="feBlend5750-0" />
      <feColorMatrix
         type="luminanceToAlpha"
         id="feColorMatrix5752-6" />
      <feDiffuseLighting
         surfaceScale="10"
         diffuseConstant="1"
         result="result3"
         id="feDiffuseLighting5754-4">
        <feDistantLight
           azimuth="180"
           elevation="35"
           id="feDistantLight5756-8" />
      </feDiffuseLighting>
      <feComposite
         k4="0"
         k2="0"
         in2="result4"
         operator="arithmetic"
         k1="1.5"
         k3="0.5"
         result="result5"
         id="feComposite5758-6" />
      <feBlend
         mode="normal"
         in2="result3"
         result="result6"
         id="feBlend5760-9" />
      <feComposite
         in2="SourceGraphic"
         operator="in"
         id="feComposite5762-2" />
    </filter>
    <marker
       inkscape:isstock="true"
       style="overflow:visible"
       id="marker15102-9"
       refX="0"
       refY="0"
       orient="auto"
       inkscape:stockid="Arrow2Lend">
      <path
         transform="matrix(-1.1,0,0,-1.1,-1.1,0)"
         d="M 8.7185878,4.0337352 -2.2072895,0.01601326 8.7185884,-4.0017078 c -1.7454984,2.3720609 -1.7354408,5.6174519 -6e-7,8.035443 z"
         style="fill:#000000;fill-opacity:1;fill-rule:evenodd;stroke:#000000;stroke-width:0.625;stroke-linejoin:round;stroke-opacity:1"
         id="path15104-2"
         inkscape:connector-curvature="0" />
    </marker>
    <symbol
       id="DownArrow">
      <title
         id="title5233">Down Arrow</title>
      <path
         d="M 0.375,0.65625 0.14583333,0.42708333 v -0.15625 L 0.3125,0.4375 V 0.10416667 h 0.125 V 0.4375 L 0.60416667,0.27083333 v 0.15625 z"
         style="stroke:none;stroke-width:1"
         id="path5235" />
    </symbol>
  </defs>
  <sodipodi:namedview
     inkscape:snap-nodes="false"
     inkscape:snap-to-guides="false"
     inkscape:snap-grids="false"
     inkscape:snap-object-midpoints="true"
     inkscape:snap-center="false"
     inkscape:guide-bbox="true"
     showguides="false"
     id="base"
     pagecolor="#ffffff"
     bordercolor="#666666"
     borderopacity="1.0"
     inkscape:pageopacity="0.0"
     inkscape:pageshadow="2"
     inkscape:zoom="0.7071068"
     inkscape:cx="1029.322"
     inkscape:cy="-111.58007"
     inkscape:document-units="in"
     inkscape:current-layer="layer2"
     inkscape:document-rotation="0"
     showgrid="false"
     units="px"
     inkscape:snap-global="true"
     inkscape:snap-page="false">
    <sodipodi:guide
       id="guide11773"
       orientation="0,-1"
       position="44.013749,203.66303" />
    <sodipodi:guide
       id="guide11775"
       orientation="1,0"
       position="-0.5107527,197.33777" />
    <sodipodi:guide
       id="guide11777"
       orientation="0,-1"
       position="287.95956,197.31303" />
  </sodipodi:namedview>
  <metadata
     id="metadata5">
    <rdf:RDF>
      <cc:Work
         rdf:about="">
        <dc:format>image/svg+xml</dc:format>
        <dc:type
           rdf:resource="http://purl.org/dc/dcmitype/StillImage" />
        <dc:title></dc:title>
      </cc:Work>
    </rdf:RDF>
  </metadata>
  <g
     inkscape:groupmode="layer"
     id="layer2"
     inkscape:label="3p"
     style="display:inline"
     transform="translate(-6.9185394,-158.15469)">
    <g
       id="g12759">
      <g
         id="g12281"
         transform="matrix(0.40908418,0,0,0.40908418,37.870791,86.536146)"
         style="font-variation-settings:normal;opacity:1;vector-effect:none;fill:#000000;fill-opacity:1;stroke:none;stroke-width:0.646769;stroke-linecap:butt;stroke-linejoin:miter;stroke-miterlimit:4;stroke-dasharray:none;stroke-dashoffset:0;stroke-opacity:1;stop-color:#000000;stop-opacity:1">
        <path
           id="path8860"
           d="m 24.297756,234.05228 q 3.443158,3.48275 5.144981,7.75705 1.70179,4.27426 1.70179,8.78599 0,4.51177 -1.70179,8.78607 -1.701823,4.27425 -5.144981,7.67787 -0.712392,0.67277 -1.662222,0.67277 -0.435339,0 -0.870679,-0.15821 -0.395771,-0.15821 -0.672823,-0.51449 -0.751958,-0.63323 -0.751958,-1.62264 0,-0.98944 0.751958,-1.62264 2.730802,-2.77039 4.076403,-6.21358 1.385169,-3.44315 1.385169,-7.04462 0,-3.60149 -1.385169,-7.00508 -1.345601,-3.44322 -4.115972,-6.21354 -0.712389,-0.71237 -0.712389,-1.66225 0,-0.98941 0.751958,-1.62264 0.672823,-0.67279 1.583071,-0.67279 0.949843,0 1.622653,0.67279 z m -7.875755,5.9365 q 2.137133,2.13713 3.245293,4.86792 1.10813,2.73082 1.10813,5.73862 0,2.92867 -1.10813,5.65949 -1.10816,2.69122 -3.245293,4.82835 -0.395768,0.31675 -0.831107,0.51449 -0.395771,0.19784 -0.831144,0.19784 -0.43534,0 -0.870679,-0.19784 -0.43534,-0.19784 -0.791539,-0.51449 -0.672781,-0.6728 -0.672781,-1.62264 0,-0.91027 0.672781,-1.66221 1.464349,-1.46436 2.29546,-3.28488 0.83111,-1.86011 0.83111,-3.91811 0,-2.05799 -0.83111,-3.95768 -0.831111,-1.89965 -2.29546,-3.36401 -0.672781,-0.6728 -0.672781,-1.62264 0,-0.91024 0.672781,-1.66221 0.751957,-0.67283 1.662218,-0.67283 0.910291,0 1.662251,0.67283 z m 15.672356,-11.7147 q 4.472171,4.47214 6.807203,10.21076 2.335031,5.73863 2.335031,12.11048 0,6.29272 -2.335031,12.03134 -2.335032,5.69903 -6.807203,10.17123 -0.712392,0.67276 -1.662222,0.67276 -0.989398,0 -1.662218,-0.67276 -0.67281,-0.67283 -0.67281,-1.62267 0,-0.91028 0.712389,-1.62264 3.79935,-3.79937 5.817761,-8.7069 2.018421,-4.90748 2.018421,-10.25036 0,-5.42201 -2.018421,-10.28993 -2.018411,-4.86792 -5.85734,-8.70689 -0.67281,-0.75193 -0.67281,-1.70178 0,-0.8707 0.67281,-1.62264 0.633218,-0.63322 1.62265,-0.63322 0.949829,0 1.70179,0.63322 z M 5.3009269,225.18711 q 0.9498626,-0.7124 1.7809733,-0.7124 0.7519275,0 1.1873002,0.63323 0.4353396,0.59366 0.4353396,1.74138 v 47.41287 q 0,1.14775 -0.4749412,1.78098 -0.4749115,0.59363 -1.2268819,0.59363 -0.8706792,0 -1.7809402,-0.75197 -4.0764003,-3.16611 -7.2821113,-5.65946 -1.3851691,-1.06854 -2.6912013,-2.05799 -1.3060519,-1.02898 -2.3746002,-1.82051 -1.0290096,-0.79154 -1.7018198,-1.30603 -0.6332124,-0.51452 -0.6727904,-0.51452 H -24.975233 q -0.356189,0 -0.633241,-0.31675 -0.237379,-0.35618 -0.237379,-0.79153 v -25.88317 q 0,-0.43535 0.237379,-0.67283 0.277177,-0.27678 0.633241,-0.27678 h 15.6723557 q 0,-0.0396 0.6332417,-0.55409 0.6728103,-0.51449 1.7017901,-1.30603 1.0290095,-0.8311 2.3350416,-1.82051 1.3060189,-1.02898 2.6911881,-2.09757 3.2057209,-2.45377 7.2425427,-5.61988 z"
           inkscape:connector-curvature="0"
           style="font-style:normal;font-weight:normal;font-size:28.715px;line-height:125%;font-family:sans-serif;font-variation-settings:normal;letter-spacing:0px;word-spacing:0px;display:inline;vector-effect:none;fill:#000000;fill-opacity:1;stroke:none;stroke-width:0.646769;stroke-linecap:butt;stroke-linejoin:miter;stroke-miterlimit:4;stroke-dasharray:none;stroke-dashoffset:0;stroke-opacity:1;stop-color:#000000;stop-opacity:1" />
        <g
           transform="translate(-13.844562,436.59478)"
           id="g12266"
           style="font-variation-settings:normal;vector-effect:none;fill:#000000;fill-opacity:1;stroke:none;stroke-width:0.646769;stroke-linecap:butt;stroke-linejoin:miter;stroke-miterlimit:4;stroke-dasharray:none;stroke-dashoffset:0;stroke-opacity:1;stop-color:#000000;stop-opacity:1">
          <path
             d="m -59.094602,-171.10655 c -1.49056,0 -2.55115,1.06059 -2.55115,2.69447 v 0.25798 h 1.20391 v -0.12899 c 0,-1.21825 0.57329,-1.77721 1.36157,-1.77721 0.71662,0 1.34724,0.50164 1.34724,1.71988 0,1.16092 -0.65929,1.71988 -1.4189,1.71988 h -0.84561 v 1.04625 h 0.81694 c 0.83128,0 1.61955,0.35831 1.61955,1.74855 0,1.2899 -0.64495,1.84886 -1.57655,1.84886 -0.96026,0 -1.47623,-0.64495 -1.47623,-1.8632 v -0.15765 h -1.20391 v 0.11466 c 0,1.79153 0.9746,2.95245 2.76613,2.95245 1.57656,0 2.69448,-1.06059 2.69448,-2.80913 0,-1.30424 -0.61629,-2.09252 -1.44756,-2.40783 v -0.0573 c 0.73094,-0.41563 1.27557,-1.04625 1.27557,-2.20717 0,-1.74854 -1.03193,-2.69447 -2.56548,-2.69447 z"
             style="font-style:normal;font-variant:normal;font-weight:normal;font-stretch:normal;font-size:14.3323px;line-height:125%;font-family:'Archivo Narrow';-inkscape-font-specification:'Archivo Narrow, Normal';font-variation-settings:normal;text-align:start;letter-spacing:0px;word-spacing:0px;writing-mode:lr-tb;text-anchor:start;display:inline;opacity:1;vector-effect:none;fill:#000000;fill-opacity:1;stroke:none;stroke-width:0.646769;stroke-linecap:butt;stroke-linejoin:miter;stroke-miterlimit:4;stroke-dasharray:none;stroke-dashoffset:0;stroke-opacity:1;stop-color:#000000;stop-opacity:1"
             id="path6383" />
          <path
             d="m -48.895832,-168.81338 c -0.68795,0 -1.2899,0.3583 -1.64821,1.04625 h -0.0717 l -0.15766,-0.87427 h -0.8886 v 10.01828 h 1.17525 v -3.13877 h 0.0717 c 0.25798,0.51596 0.87427,0.83127 1.60522,0.83127 1.24691,0 2.25017,-1.18958 2.25017,-3.92705 0,-2.76613 -0.90294,-3.95571 -2.33617,-3.95571 z m -0.24365,1.04625 c 0.90294,0 1.34724,0.74528 1.34724,2.62281 v 0.54463 c 0,1.87753 -0.4443,2.62281 -1.34724,2.62281 -0.90293,0 -1.34723,-0.8886 -1.34723,-2.62281 v -0.54463 c 0,-1.7342 0.4443,-2.62281 1.34723,-2.62281 z"
             style="font-style:normal;font-variant:normal;font-weight:normal;font-stretch:normal;font-size:14.3323px;line-height:125%;font-family:'Archivo Narrow';-inkscape-font-specification:'Archivo Narrow, Normal';font-variation-settings:normal;text-align:start;letter-spacing:0px;word-spacing:0px;writing-mode:lr-tb;text-anchor:start;display:inline;opacity:1;vector-effect:none;fill:#000000;fill-opacity:1;stroke:none;stroke-width:0.646769;stroke-linecap:butt;stroke-linejoin:miter;stroke-miterlimit:4;stroke-dasharray:none;stroke-dashoffset:0;stroke-opacity:1;stop-color:#000000;stop-opacity:1"
             id="path6385" />
          <path
             d="m -44.107722,-171.46486 h -1.17525 v 10.36225 h 1.17525 z"
             style="font-style:normal;font-variant:normal;font-weight:normal;font-stretch:normal;font-size:14.3323px;line-height:125%;font-family:'Archivo Narrow';-inkscape-font-specification:'Archivo Narrow, Normal';font-variation-settings:normal;text-align:start;letter-spacing:0px;word-spacing:0px;writing-mode:lr-tb;text-anchor:start;display:inline;opacity:1;vector-effect:none;fill:#000000;fill-opacity:1;stroke:none;stroke-width:0.646769;stroke-linecap:butt;stroke-linejoin:miter;stroke-miterlimit:4;stroke-dasharray:none;stroke-dashoffset:0;stroke-opacity:1;stop-color:#000000;stop-opacity:1"
             id="path6387" />
          <path
             d="m -40.200152,-168.81338 c -1.4189,0 -2.42216,0.71661 -2.42216,2.09251 0,0.12899 0,0.22932 0.0143,0.31531 h 1.16091 v -0.17199 c 0,-0.57329 0.27232,-1.18958 1.16092,-1.18958 0.96026,0 1.18958,0.50163 1.18958,1.21825 v 0.97459 c -2.19284,0 -3.81239,0.44431 -3.81239,2.52249 0,1.8202 1.23258,2.12118 1.97786,2.12118 0.78827,0 1.44756,-0.37264 1.83453,-0.98893 h 0.0717 c 0.14333,0.55896 0.5733,0.9316 1.18959,0.9316 0.37264,0 0.64495,-0.10033 0.77394,-0.17199 v -0.81694 h -0.45863 c -0.20065,0 -0.4013,-0.14332 -0.4013,-0.50163 v -4.22803 c 0,-1.3329 -0.75962,-2.10684 -2.27885,-2.10684 z m 1.10358,4.9733 c 0,1.24691 -0.81694,1.8632 -1.56222,1.8632 -0.65928,0 -1.01759,-0.28664 -1.01759,-1.14658 0,-1.17525 1.04626,-1.40457 2.57981,-1.40457 z"
             style="font-style:normal;font-variant:normal;font-weight:normal;font-stretch:normal;font-size:14.3323px;line-height:125%;font-family:'Archivo Narrow';-inkscape-font-specification:'Archivo Narrow, Normal';font-variation-settings:normal;text-align:start;letter-spacing:0px;word-spacing:0px;writing-mode:lr-tb;text-anchor:start;display:inline;opacity:1;vector-effect:none;fill:#000000;fill-opacity:1;stroke:none;stroke-width:0.646769;stroke-linecap:butt;stroke-linejoin:miter;stroke-miterlimit:4;stroke-dasharray:none;stroke-dashoffset:0;stroke-opacity:1;stop-color:#000000;stop-opacity:1"
             id="path6389" />
          <path
             d="m -31.126682,-168.6414 h -1.18958 l -1.40457,5.84758 h -0.0573 l -1.66255,-5.84758 h -1.2899 l 2.3075,7.53879 c -0.27232,1.28991 -0.85994,1.67688 -1.49056,1.67688 h -0.41564 v 0.81694 c 0.24365,0.086 0.51596,0.11466 0.84561,0.11466 1.31857,0 1.99219,-1.34723 2.43649,-2.99545 z"
             style="font-style:normal;font-variant:normal;font-weight:normal;font-stretch:normal;font-size:14.3323px;line-height:125%;font-family:'Archivo Narrow';-inkscape-font-specification:'Archivo Narrow, Normal';font-variation-settings:normal;text-align:start;letter-spacing:0px;word-spacing:0px;writing-mode:lr-tb;text-anchor:start;display:inline;opacity:1;vector-effect:none;fill:#000000;fill-opacity:1;stroke:none;stroke-width:0.646769;stroke-linecap:butt;stroke-linejoin:miter;stroke-miterlimit:4;stroke-dasharray:none;stroke-dashoffset:0;stroke-opacity:1;stop-color:#000000;stop-opacity:1"
             id="path6391" />
          <path
             d="m -27.555702,-168.81338 c -1.89187,0 -2.8378,1.23257 -2.8378,3.94138 0,2.7948 0.9746,3.94138 2.85213,3.94138 1.46189,0 2.46516,-1.04626 2.46516,-2.73747 h -1.16092 c 0,1.04626 -0.5303,1.69121 -1.27558,1.69121 -1.11791,0 -1.63388,-0.78827 -1.64821,-2.55115 h 4.08471 v -0.74528 c 0,-2.52248 -0.83128,-3.54007 -2.47949,-3.54007 z m 0,1.04625 c 0.81694,0 1.24691,0.75961 1.24691,2.19284 h -2.8378 c 0.10033,-1.44756 0.54463,-2.19284 1.59089,-2.19284 z"
             style="font-style:normal;font-variant:normal;font-weight:normal;font-stretch:normal;font-size:14.3323px;line-height:125%;font-family:'Archivo Narrow';-inkscape-font-specification:'Archivo Narrow, Normal';font-variation-settings:normal;text-align:start;letter-spacing:0px;word-spacing:0px;writing-mode:lr-tb;text-anchor:start;display:inline;opacity:1;vector-effect:none;fill:#000000;fill-opacity:1;stroke:none;stroke-width:0.646769;stroke-linecap:butt;stroke-linejoin:miter;stroke-miterlimit:4;stroke-dasharray:none;stroke-dashoffset:0;stroke-opacity:1;stop-color:#000000;stop-opacity:1"
             id="path6393" />
          <path
             d="m -21.205372,-168.81338 c -0.71662,0 -1.08926,0.58762 -1.27558,1.16091 h -0.086 l -0.15766,-0.98893 h -0.8886 v 7.53879 h 1.17525 v -4.60067 c 0,-1.3329 0.65928,-1.7772 1.40456,-1.7772 h 0.38698 v -1.21825 c 0,0 -0.24365,-0.11465 -0.55896,-0.11465 z"
             style="font-style:normal;font-variant:normal;font-weight:normal;font-stretch:normal;font-size:14.3323px;line-height:125%;font-family:'Archivo Narrow';-inkscape-font-specification:'Archivo Narrow, Normal';font-variation-settings:normal;text-align:start;letter-spacing:0px;word-spacing:0px;writing-mode:lr-tb;text-anchor:start;display:inline;opacity:1;vector-effect:none;fill:#000000;fill-opacity:1;stroke:none;stroke-width:0.646769;stroke-linecap:butt;stroke-linejoin:miter;stroke-miterlimit:4;stroke-dasharray:none;stroke-dashoffset:0;stroke-opacity:1;stop-color:#000000;stop-opacity:1"
             id="path6395" />
          <path
             d="m -17.558702,-168.81338 c -1.43323,0 -2.35049,0.81694 -2.35049,2.14984 0,2.7088 3.43975,1.69121 3.43975,3.58308 0,0.73094 -0.51596,1.11791 -1.13225,1.11791 -0.68795,0 -1.23258,-0.4013 -1.23258,-1.34723 v -0.14332 h -1.23258 c 0,0.0287 -0.0143,0.11465 -0.0143,0.31531 0,1.11792 0.68795,2.20717 2.42216,2.20717 1.39023,0 2.40782,-0.70228 2.40782,-2.32183 0,-2.80913 -3.43975,-1.84887 -3.43975,-3.49708 0,-0.41564 0.18632,-1.03193 1.01759,-1.03193 0.80261,0 1.04626,0.58763 1.04626,1.17525 v 0.12899 h 1.21825 c 0,-0.0287 0.0143,-0.17199 0.0143,-0.27231 0,-1.11792 -0.75961,-2.06385 -2.16418,-2.06385 z"
             style="font-style:normal;font-variant:normal;font-weight:normal;font-stretch:normal;font-size:14.3323px;line-height:125%;font-family:'Archivo Narrow';-inkscape-font-specification:'Archivo Narrow, Normal';font-variation-settings:normal;text-align:start;letter-spacing:0px;word-spacing:0px;writing-mode:lr-tb;text-anchor:start;display:inline;opacity:1;vector-effect:none;fill:#000000;fill-opacity:1;stroke:none;stroke-width:0.646769;stroke-linecap:butt;stroke-linejoin:miter;stroke-miterlimit:4;stroke-dasharray:none;stroke-dashoffset:0;stroke-opacity:1;stop-color:#000000;stop-opacity:1"
             id="path6397" />
          <path
             style="font-variation-settings:normal;display:inline;opacity:1;vector-effect:none;fill:#000000;fill-opacity:1;stroke:none;stroke-width:0.646769;stroke-linecap:butt;stroke-linejoin:miter;stroke-miterlimit:4;stroke-dasharray:none;stroke-dashoffset:0;stroke-opacity:1;stop-color:#000000;stop-opacity:1"
             inkscape:connector-curvature="0"
             d="m -25.748912,-192.76146 c -1.37855,0 -2.37004,0.7297 -2.94263,1.64621 -0.51212,0.81949 -0.72518,1.77019 -0.76676,2.60286 -1.56277,0.77295 -3.29401,1.55226 -4.68785,2.34906 -0.73117,0.41801 -1.36864,0.83838 -1.84844,1.29014 -0.47985,0.45173 -0.83391,0.96045 -0.83391,1.56053 0,0.25548 0.12471,0.46347 0.26498,0.61617 0.14077,0.15323 0.30913,0.27146 0.50098,0.38218 0.38374,0.22134 0.8675,0.40591 1.39964,0.56565 0.79053,0.23723 1.67584,0.41374 2.44564,0.48907 -0.76565,1.31991 -1.78461,2.532 -2.67784,3.69345 -1.03223,1.34248 -1.9334,2.6297 -1.9334,4.05997 0,0.20424 -0.004,0.36377 0.0164,0.52403 0.0179,0.16045 0.0642,0.36013 0.22517,0.51859 0.16109,0.15865 0.35829,0.2012 0.51891,0.21869 0.16057,0.018 0.32242,0.018 0.52997,0.018 h 5.69512 c 0.41342,0 0.71611,0.0252 1.02755,-0.17488 0.31144,-0.20027 0.425,-0.47373 0.64689,-0.88239 h 0.004 l 0.004,-0.018 c 0,0 0.49642,-1.00966 1.08875,-2.01173 0.2961,-0.50078 0.61761,-0.9998 0.89729,-1.35326 0.14001,-0.17667 0.27079,-0.31691 0.36506,-0.39608 0.0288,-0.0236 0.042,-0.0288 0.0603,-0.0395 0.0188,0.018 0.0316,0.018 0.0603,0.0395 0.0942,0.0793 0.22516,0.21925 0.36505,0.39608 0.27968,0.35351 0.60115,0.85248 0.8973,1.35326 0.59228,1.00207 1.08874,2.01173 1.08874,2.01173 l 0.004,0.018 h 0.004 c 0.22193,0.40866 0.33445,0.68052 0.64386,0.88128 0.30928,0.20068 0.61134,0.17671 1.01897,0.17671 h 5.72015 c 0.20423,0 0.36353,0 0.52302,-0.018 0.1595,-0.018 0.35734,-0.0614 0.51672,-0.22138 0.15933,-0.16045 0.20343,-0.35729 0.22109,-0.51683 0.018,-0.15865 0.0164,-0.31891 0.0164,-0.5233 0,-1.43007 -0.90117,-2.71739 -1.93344,-4.05981 -0.89315,-1.16141 -1.91212,-2.37355 -2.67784,-3.69342 0.7698,-0.0757 1.65516,-0.25184 2.44569,-0.48911 0.53213,-0.16041 1.01588,-0.34427 1.39959,-0.56564 0.19189,-0.10997 0.36037,-0.22932 0.5009,-0.38198 0.14056,-0.15323 0.2651,-0.3609 0.2651,-0.61634 0,-0.60007 -0.35406,-1.1088 -0.83386,-1.56057 -0.47985,-0.45172 -1.11732,-0.87213 -1.84849,-1.29014 -1.39388,-0.7968 -3.12509,-1.57607 -4.68789,-2.34906 -0.0416,-0.83267 -0.25464,-1.78337 -0.76672,-2.60282 -0.5726,-0.91647 -1.56404,-1.64621 -2.94262,-1.64621 z"
             id="path2228-5" />
          <path
             id="path2230-9"
             d="m -50.719012,-192.76146 c -1.37855,0 -2.37003,0.7297 -2.94263,1.64621 -0.51212,0.81949 -0.72518,1.77019 -0.76672,2.60286 -1.5628,0.77295 -3.29401,1.55226 -4.68789,2.34906 -0.73113,0.41801 -1.3686,0.83838 -1.84844,1.29014 -0.47984,0.45173 -0.83391,0.96045 -0.83391,1.56053 0,0.25548 0.12471,0.46347 0.26503,0.61617 0.14072,0.15323 0.30908,0.27146 0.50098,0.38218 0.38369,0.22134 0.86745,0.40591 1.39959,0.56565 0.79053,0.23723 1.67588,0.41374 2.44568,0.48907 -0.76568,1.31991 -1.78465,2.532 -2.67784,3.69345 -1.03222,1.34248 -1.93344,2.6297 -1.93344,4.05997 0,0.20424 -0.004,0.36377 0.0164,0.52403 0.018,0.16045 0.0642,0.36013 0.22513,0.51859 0.16109,0.15865 0.35829,0.2012 0.51891,0.21869 0.16057,0.018 0.32242,0.018 0.53002,0.018 h 5.69507 c 0.41342,0 0.71611,0.0252 1.02755,-0.17488 0.31144,-0.20027 0.425,-0.47373 0.64689,-0.88239 h 0.004 l 0.004,-0.018 c 0,0 0.49643,-1.00966 1.08876,-2.01173 0.29614,-0.50078 0.61761,-0.9998 0.8973,-1.35326 0.14,-0.17667 0.27081,-0.31691 0.36504,-0.39608 0.0288,-0.0236 0.042,-0.0288 0.0604,-0.0395 0.0184,0.018 0.0316,0.018 0.0603,0.0395 0.0943,0.0793 0.22517,0.21925 0.36505,0.39608 0.27969,0.35351 0.60116,0.85248 0.8973,1.35326 0.59229,1.00207 1.08875,2.01173 1.08875,2.01173 l 0.004,0.018 h 0.004 c 0.22193,0.40866 0.33445,0.68052 0.64385,0.88128 0.30933,0.20068 0.61138,0.17671 1.01897,0.17671 h 5.7202 c 0.20419,0 0.36349,0 0.52298,-0.018 0.1595,-0.018 0.35734,-0.0614 0.51676,-0.22138 0.15929,-0.16045 0.20339,-0.35729 0.22105,-0.51683 0.0179,-0.15865 0.0164,-0.31891 0.0164,-0.5233 0,-1.43007 -0.90117,-2.71739 -1.93341,-4.05981 -0.89314,-1.16141 -1.91211,-2.37355 -2.67783,-3.69342 0.7698,-0.0757 1.65511,-0.25184 2.44568,-0.48911 0.53213,-0.16041 1.01589,-0.34427 1.39959,-0.56564 0.19189,-0.10997 0.36038,-0.22932 0.50086,-0.38198 0.14056,-0.15323 0.26511,-0.3609 0.26511,-0.61634 0,-0.60007 -0.35407,-1.1088 -0.83387,-1.56057 -0.47985,-0.45172 -1.11731,-0.87213 -1.84845,-1.29014 -1.39387,-0.7968 -3.12512,-1.57607 -4.68792,-2.34906 -0.0415,-0.83267 -0.25464,-1.78337 -0.76668,-2.60282 -0.57264,-0.91647 -1.56408,-1.64621 -2.94267,-1.64621 z"
             inkscape:connector-curvature="0"
             style="font-variation-settings:normal;display:inline;opacity:1;vector-effect:none;fill:#000000;fill-opacity:1;stroke:none;stroke-width:0.646769;stroke-linecap:butt;stroke-linejoin:miter;stroke-miterlimit:4;stroke-dasharray:none;stroke-dashoffset:0;stroke-opacity:1;stop-color:#000000;stop-opacity:1" />
          <path
             style="font-variation-settings:normal;display:inline;opacity:1;vector-effect:none;fill:#000000;fill-opacity:1;stroke:none;stroke-width:0.646769;stroke-linecap:butt;stroke-linejoin:miter;stroke-miterlimit:4;stroke-dasharray:none;stroke-dashoffset:0;stroke-opacity:1;stop-color:#000000;stop-opacity:1"
             inkscape:connector-curvature="0"
             d="m -38.233752,-213.58392 c -1.37854,0 -2.37003,0.7297 -2.94262,1.6462 -0.51212,0.81949 -0.72518,1.7702 -0.76673,2.60286 -1.5628,0.77296 -3.294,1.55227 -4.68788,2.34907 -0.73113,0.41801 -1.3686,0.83837 -1.84844,1.29014 -0.47985,0.45172 -0.83391,0.96045 -0.83391,1.56053 0,0.25548 0.1247,0.46346 0.26503,0.61617 0.14072,0.15322 0.30908,0.27146 0.50097,0.38218 0.3837,0.22133 0.86746,0.40591 1.39959,0.56565 0.79053,0.23723 1.67589,0.41374 2.44569,0.48907 -0.76569,1.31991 -1.78466,2.532 -2.67784,3.69346 -1.03223,1.34247 -1.93344,2.62968 -1.93344,4.05996 0,0.20423 -0.004,0.36376 0.0164,0.52402 0.018,0.16045 0.0641,0.36013 0.22513,0.51859 0.16108,0.15866 0.35829,0.2012 0.5189,0.21869 0.16058,0.018 0.32243,0.018 0.53002,0.018 h 5.69507 c 0.41342,0 0.71612,0.0252 1.02756,-0.17487 0.31144,-0.20028 0.425,-0.47374 0.64689,-0.8824 h 0.004 l 0.004,-0.018 c 0,0 0.49643,-1.00966 1.08875,-2.01173 0.29614,-0.50078 0.61762,-0.99979 0.89731,-1.35325 0.13999,-0.17667 0.27081,-0.31691 0.36504,-0.39608 0.0288,-0.0236 0.042,-0.0288 0.0603,-0.0395 0.0184,0.018 0.0316,0.018 0.0603,0.0395 0.0943,0.0793 0.22517,0.21925 0.36505,0.39608 0.27969,0.35351 0.60115,0.85247 0.8973,1.35325 0.59229,1.00207 1.08875,2.01173 1.08875,2.01173 l 0.004,0.018 h 0.004 c 0.22193,0.40866 0.33444,0.68052 0.64385,0.88128 0.30933,0.20068 0.61138,0.17671 1.01897,0.17671 h 5.7202 c 0.20419,0 0.36349,0 0.52298,-0.018 0.1595,-0.018 0.35734,-0.0614 0.51676,-0.22137 0.15929,-0.16046 0.20339,-0.3573 0.22105,-0.51684 0.0179,-0.15865 0.0164,-0.31891 0.0164,-0.5233 0,-1.43007 -0.90117,-2.71737 -1.9334,-4.0598 -0.89315,-1.16141 -1.91212,-2.37355 -2.67784,-3.69342 0.7698,-0.0757 1.65511,-0.25184 2.44568,-0.48911 0.53213,-0.16042 1.01589,-0.34427 1.39959,-0.56565 0.1919,-0.10996 0.36038,-0.22931 0.50086,-0.38198 0.14056,-0.15322 0.26511,-0.36089 0.26511,-0.61633 0,-0.60008 -0.35407,-1.1088 -0.83387,-1.56057 -0.47966,-0.45172 -1.11713,-0.87213 -1.84826,-1.29014 -1.39388,-0.7968 -3.12513,-1.57607 -4.68793,-2.34906 -0.0415,-0.83267 -0.25464,-1.78337 -0.76668,-2.60282 -0.57264,-0.91647 -1.56408,-1.64621 -2.94266,-1.64621 z"
             id="path1390" />
        </g>
      </g>
      <rect
         y="196.78384"
         x="57.695431"
         height="12.7"
         width="12.7"
         id="rect12213"
         style="font-variation-settings:normal;opacity:0.75;vector-effect:none;fill:#f9f6f1;fill-opacity:1;stroke:#080808;stroke-width:1.05833;stroke-linecap:round;stroke-linejoin:miter;stroke-miterlimit:4;stroke-dasharray:none;stroke-dashoffset:0;stroke-opacity:1;paint-order:markers fill stroke;stop-color:#000000;stop-opacity:1" />
      <rect
         style="font-variation-settings:normal;opacity:0.75;vector-effect:none;fill:#f9f6f1;fill-opacity:1;stroke:#080808;stroke-width:1.05833;stroke-linecap:round;stroke-linejoin:miter;stroke-miterlimit:4;stroke-dasharray:none;stroke-dashoffset:0;stroke-opacity:1;paint-order:markers fill stroke;stop-color:#000000;stop-opacity:1"
         id="rect12215"
         width="12.7"
         height="12.7"
         x="70.395432"
         y="196.78384" />
      <rect
         style="font-variation-settings:normal;opacity:0.75;vector-effect:none;fill:#f9f6f1;fill-opacity:1;stroke:#080808;stroke-width:1.05833;stroke-linecap:round;stroke-linejoin:miter;stroke-miterlimit:4;stroke-dasharray:none;stroke-dashoffset:0;stroke-opacity:1;paint-order:markers fill stroke;stop-color:#000000;stop-opacity:1"
         id="rect12427"
         width="12.7"
         height="12.7"
         x="83.095428"
         y="196.78384" />
      <rect
         y="196.78384"
         x="95.795425"
         height="12.7"
         width="12.7"
         id="rect12429"
         style="font-variation-settings:normal;opacity:0.75;vector-effect:none;fill:#f9f6f1;fill-opacity:1;stroke:#080808;stroke-width:1.05833;stroke-linecap:round;stroke-linejoin:miter;stroke-miterlimit:4;stroke-dasharray:none;stroke-dashoffset:0;stroke-opacity:1;paint-order:markers fill stroke;stop-color:#000000;stop-opacity:1" />
      <rect
         y="196.78384"
         x="108.49542"
         height="12.7"
         width="12.7"
         id="rect12431"
         style="font-variation-settings:normal;opacity:0.75;vector-effect:none;fill:#f9f6f1;fill-opacity:1;stroke:#080808;stroke-width:1.05833;stroke-linecap:round;stroke-linejoin:miter;stroke-miterlimit:4;stroke-dasharray:none;stroke-dashoffset:0;stroke-opacity:1;paint-order:markers fill stroke;stop-color:#000000;stop-opacity:1" />
      <rect
         style="font-variation-settings:normal;opacity:0.75;vector-effect:none;fill:#f9f6f1;fill-opacity:1;stroke:#080808;stroke-width:1.05833;stroke-linecap:round;stroke-linejoin:miter;stroke-miterlimit:4;stroke-dasharray:none;stroke-dashoffset:0;stroke-opacity:1;paint-order:markers fill stroke;stop-color:#000000;stop-opacity:1"
         id="rect12433"
         width="12.7"
         height="12.7"
         x="121.19542"
         y="196.78384" />
      <rect
         style="font-variation-settings:normal;opacity:0.75;vector-effect:none;fill:#f9f6f1;fill-opacity:1;stroke:#080808;stroke-width:1.05833;stroke-linecap:round;stroke-linejoin:miter;stroke-miterlimit:4;stroke-dasharray:none;stroke-dashoffset:0;stroke-opacity:1;paint-order:markers fill stroke;stop-color:#000000;stop-opacity:1"
         id="rect12435"
         width="12.7"
         height="12.7"
         x="133.89542"
         y="196.78384" />
      <rect
         y="196.78384"
         x="146.59541"
         height="12.7"
         width="12.7"
         id="rect12437"
         style="font-variation-settings:normal;opacity:0.75;vector-effect:none;fill:#f9f6f1;fill-opacity:1;stroke:#080808;stroke-width:1.05833;stroke-linecap:round;stroke-linejoin:miter;stroke-miterlimit:4;stroke-dasharray:none;stroke-dashoffset:0;stroke-opacity:1;paint-order:markers fill stroke;stop-color:#000000;stop-opacity:1" />
      <rect
         y="196.78384"
         x="159.29541"
         height="12.7"
         width="12.7"
         id="rect12439"
         style="font-variation-settings:normal;opacity:0.75;vector-effect:none;fill:#f9f6f1;fill-opacity:1;stroke:#080808;stroke-width:1.05833;stroke-linecap:round;stroke-linejoin:miter;stroke-miterlimit:4;stroke-dasharray:none;stroke-dashoffset:0;stroke-opacity:1;paint-order:markers fill stroke;stop-color:#000000;stop-opacity:1" />
      <rect
         style="font-variation-settings:normal;opacity:0.75;vector-effect:none;fill:#f9f6f1;fill-opacity:1;stroke:#080808;stroke-width:1.05833;stroke-linecap:round;stroke-linejoin:miter;stroke-miterlimit:4;stroke-dasharray:none;stroke-dashoffset:0;stroke-opacity:1;paint-order:markers fill stroke;stop-color:#000000;stop-opacity:1"
         id="rect12441"
         width="12.7"
         height="12.7"
         x="171.99541"
         y="196.78384" />
      <rect
         style="font-variation-settings:normal;opacity:0.75;vector-effect:none;fill:#f9f6f1;fill-opacity:1;stroke:#080808;stroke-width:1.05833;stroke-linecap:round;stroke-linejoin:miter;stroke-miterlimit:4;stroke-dasharray:none;stroke-dashoffset:0;stroke-opacity:1;paint-order:markers fill stroke;stop-color:#000000;stop-opacity:1"
         id="rect12443"
         width="12.7"
         height="12.7"
         x="184.6954"
         y="196.78384" />
      <rect
         y="196.78384"
         x="197.3954"
         height="12.7"
         width="12.7"
         id="rect12445"
         style="font-variation-settings:normal;opacity:0.75;vector-effect:none;fill:#f9f6f1;fill-opacity:1;stroke:#080808;stroke-width:1.05833;stroke-linecap:round;stroke-linejoin:miter;stroke-miterlimit:4;stroke-dasharray:none;stroke-dashoffset:0;stroke-opacity:1;paint-order:markers fill stroke;stop-color:#000000;stop-opacity:1" />
      <rect
         y="196.78384"
         x="210.0954"
         height="12.7"
         width="12.7"
         id="rect12447"
         style="font-variation-settings:normal;opacity:0.75;vector-effect:none;fill:#f9f6f1;fill-opacity:1;stroke:#080808;stroke-width:1.05833;stroke-linecap:round;stroke-linejoin:miter;stroke-miterlimit:4;stroke-dasharray:none;stroke-dashoffset:0;stroke-opacity:1;paint-order:markers fill stroke;stop-color:#000000;stop-opacity:1" />
      <rect
         style="font-variation-settings:normal;opacity:0.75;vector-effect:none;fill:#f9f6f1;fill-opacity:1;stroke:#080808;stroke-width:1.05833;stroke-linecap:round;stroke-linejoin:miter;stroke-miterlimit:4;stroke-dasharray:none;stroke-dashoffset:0;stroke-opacity:1;paint-order:markers fill stroke;stop-color:#000000;stop-opacity:1"
         id="rect12449"
         width="12.7"
         height="12.7"
         x="222.79539"
         y="196.78384" />
      <rect
         style="font-variation-settings:normal;opacity:0.75;vector-effect:none;fill:#f9f6f1;fill-opacity:1;stroke:#080808;stroke-width:1.05833;stroke-linecap:round;stroke-linejoin:miter;stroke-miterlimit:4;stroke-dasharray:none;stroke-dashoffset:0;stroke-opacity:1;paint-order:markers fill stroke;stop-color:#000000;stop-opacity:1"
         id="rect12451"
         width="12.7"
         height="12.7"
         x="235.49539"
         y="196.78384" />
      <rect
         y="196.78384"
         x="248.19539"
         height="12.7"
         width="12.7"
         id="rect12453"
         style="font-variation-settings:normal;opacity:0.75;vector-effect:none;fill:#f9f6f1;fill-opacity:1;stroke:#080808;stroke-width:1.05833;stroke-linecap:round;stroke-linejoin:miter;stroke-miterlimit:4;stroke-dasharray:none;stroke-dashoffset:0;stroke-opacity:1;paint-order:markers fill stroke;stop-color:#000000;stop-opacity:1" />
      <rect
         y="196.78384"
         x="260.89539"
         height="12.7"
         width="12.7"
         id="rect12455"
         style="font-variation-settings:normal;opacity:0.75;vector-effect:none;fill:#f9f6f1;fill-opacity:1;stroke:#080808;stroke-width:1.05833;stroke-linecap:round;stroke-linejoin:miter;stroke-miterlimit:4;stroke-dasharray:none;stroke-dashoffset:0;stroke-opacity:1;paint-order:markers fill stroke;stop-color:#000000;stop-opacity:1" />
      <rect
         style="font-variation-settings:normal;opacity:0.75;vector-effect:none;fill:#f9f6f1;fill-opacity:1;stroke:#080808;stroke-width:1.05833;stroke-linecap:round;stroke-linejoin:miter;stroke-miterlimit:4;stroke-dasharray:none;stroke-dashoffset:0;stroke-opacity:1;paint-order:markers fill stroke;stop-color:#000000;stop-opacity:1"
         id="rect12457"
         width="12.7"
         height="12.7"
         x="260.89539"
         y="184.08385" />
      <rect
         y="171.38385"
         x="260.89539"
         height="12.7"
         width="12.7"
         id="rect12459"
         style="font-variation-settings:normal;opacity:0.75;vector-effect:none;fill:#f9f6f1;fill-opacity:1;stroke:#080808;stroke-width:1.05833;stroke-linecap:round;stroke-linejoin:miter;stroke-miterlimit:4;stroke-dasharray:none;stroke-dashoffset:0;stroke-opacity:1;paint-order:markers fill stroke;stop-color:#000000;stop-opacity:1" />
      <rect
         style="font-variation-settings:normal;opacity:0.75;vector-effect:none;fill:#f9f6f1;fill-opacity:1;stroke:#080808;stroke-width:1.05833;stroke-linecap:round;stroke-linejoin:miter;stroke-miterlimit:4;stroke-dasharray:none;stroke-dashoffset:0;stroke-opacity:1;paint-order:markers fill stroke;stop-color:#000000;stop-opacity:1"
         id="rect12461"
         width="12.7"
         height="12.7"
         x="70.395432"
         y="171.38385" />
      <rect
         y="171.38385"
         x="83.095428"
         height="12.7"
         width="12.7"
         id="rect12463"
         style="font-variation-settings:normal;opacity:0.75;vector-effect:none;fill:#f9f6f1;fill-opacity:1;stroke:#080808;stroke-width:1.05833;stroke-linecap:round;stroke-linejoin:miter;stroke-miterlimit:4;stroke-dasharray:none;stroke-dashoffset:0;stroke-opacity:1;paint-order:markers fill stroke;stop-color:#000000;stop-opacity:1" />
      <rect
         y="171.38385"
         x="95.795425"
         height="12.7"
         width="12.7"
         id="rect12465"
         style="font-variation-settings:normal;opacity:0.75;vector-effect:none;fill:#f9f6f1;fill-opacity:1;stroke:#080808;stroke-width:1.05833;stroke-linecap:round;stroke-linejoin:miter;stroke-miterlimit:4;stroke-dasharray:none;stroke-dashoffset:0;stroke-opacity:1;paint-order:markers fill stroke;stop-color:#000000;stop-opacity:1" />
      <rect
         style="font-variation-settings:normal;opacity:0.75;vector-effect:none;fill:#f9f6f1;fill-opacity:1;stroke:#080808;stroke-width:1.05833;stroke-linecap:round;stroke-linejoin:miter;stroke-miterlimit:4;stroke-dasharray:none;stroke-dashoffset:0;stroke-opacity:1;paint-order:markers fill stroke;stop-color:#000000;stop-opacity:1"
         id="rect12467"
         width="12.7"
         height="12.7"
         x="108.49542"
         y="171.38385" />
      <rect
         style="font-variation-settings:normal;opacity:0.75;vector-effect:none;fill:#f9f6f1;fill-opacity:1;stroke:#080808;stroke-width:1.05833;stroke-linecap:round;stroke-linejoin:miter;stroke-miterlimit:4;stroke-dasharray:none;stroke-dashoffset:0;stroke-opacity:1;paint-order:markers fill stroke;stop-color:#000000;stop-opacity:1"
         id="rect12469"
         width="12.7"
         height="12.7"
         x="121.19542"
         y="171.38385" />
      <rect
         y="171.38385"
         x="133.89542"
         height="12.7"
         width="12.7"
         id="rect12471"
         style="font-variation-settings:normal;opacity:0.75;vector-effect:none;fill:#f9f6f1;fill-opacity:1;stroke:#080808;stroke-width:1.05833;stroke-linecap:round;stroke-linejoin:miter;stroke-miterlimit:4;stroke-dasharray:none;stroke-dashoffset:0;stroke-opacity:1;paint-order:markers fill stroke;stop-color:#000000;stop-opacity:1" />
      <rect
         y="171.38385"
         x="146.59541"
         height="12.7"
         width="12.7"
         id="rect12473"
         style="font-variation-settings:normal;opacity:0.75;vector-effect:none;fill:#f9f6f1;fill-opacity:1;stroke:#080808;stroke-width:1.05833;stroke-linecap:round;stroke-linejoin:miter;stroke-miterlimit:4;stroke-dasharray:none;stroke-dashoffset:0;stroke-opacity:1;paint-order:markers fill stroke;stop-color:#000000;stop-opacity:1" />
      <rect
         style="font-variation-settings:normal;opacity:0.75;vector-effect:none;fill:#f9f6f1;fill-opacity:1;stroke:#080808;stroke-width:1.05833;stroke-linecap:round;stroke-linejoin:miter;stroke-miterlimit:4;stroke-dasharray:none;stroke-dashoffset:0;stroke-opacity:1;paint-order:markers fill stroke;stop-color:#000000;stop-opacity:1"
         id="rect12475"
         width="12.7"
         height="12.7"
         x="159.29541"
         y="171.38385" />
      <rect
         style="font-variation-settings:normal;opacity:0.75;vector-effect:none;fill:#f9f6f1;fill-opacity:1;stroke:#080808;stroke-width:1.05833;stroke-linecap:round;stroke-linejoin:miter;stroke-miterlimit:4;stroke-dasharray:none;stroke-dashoffset:0;stroke-opacity:1;paint-order:markers fill stroke;stop-color:#000000;stop-opacity:1"
         id="rect12477"
         width="12.7"
         height="12.7"
         x="171.99541"
         y="171.38385" />
      <rect
         y="171.38385"
         x="184.6954"
         height="12.7"
         width="12.7"
         id="rect12479"
         style="font-variation-settings:normal;opacity:0.75;vector-effect:none;fill:#f9f6f1;fill-opacity:1;stroke:#080808;stroke-width:1.05833;stroke-linecap:round;stroke-linejoin:miter;stroke-miterlimit:4;stroke-dasharray:none;stroke-dashoffset:0;stroke-opacity:1;paint-order:markers fill stroke;stop-color:#000000;stop-opacity:1" />
      <rect
         y="171.38385"
         x="197.3954"
         height="12.7"
         width="12.7"
         id="rect12481"
         style="font-variation-settings:normal;opacity:0.75;vector-effect:none;fill:#f9f6f1;fill-opacity:1;stroke:#080808;stroke-width:1.05833;stroke-linecap:round;stroke-linejoin:miter;stroke-miterlimit:4;stroke-dasharray:none;stroke-dashoffset:0;stroke-opacity:1;paint-order:markers fill stroke;stop-color:#000000;stop-opacity:1" />
      <rect
         style="font-variation-settings:normal;opacity:0.75;vector-effect:none;fill:#f9f6f1;fill-opacity:1;stroke:#080808;stroke-width:1.05833;stroke-linecap:round;stroke-linejoin:miter;stroke-miterlimit:4;stroke-dasharray:none;stroke-dashoffset:0;stroke-opacity:1;paint-order:markers fill stroke;stop-color:#000000;stop-opacity:1"
         id="rect12483"
         width="12.7"
         height="12.7"
         x="210.0954"
         y="171.38385" />
      <rect
         style="font-variation-settings:normal;opacity:0.75;vector-effect:none;fill:#f9f6f1;fill-opacity:1;stroke:#080808;stroke-width:1.05833;stroke-linecap:round;stroke-linejoin:miter;stroke-miterlimit:4;stroke-dasharray:none;stroke-dashoffset:0;stroke-opacity:1;paint-order:markers fill stroke;stop-color:#000000;stop-opacity:1"
         id="rect12485"
         width="12.7"
         height="12.7"
         x="222.79539"
         y="171.38385" />
      <rect
         y="171.38385"
         x="235.49539"
         height="12.7"
         width="12.7"
         id="rect12487"
         style="font-variation-settings:normal;opacity:0.75;vector-effect:none;fill:#f9f6f1;fill-opacity:1;stroke:#080808;stroke-width:1.05833;stroke-linecap:round;stroke-linejoin:miter;stroke-miterlimit:4;stroke-dasharray:none;stroke-dashoffset:0;stroke-opacity:1;paint-order:markers fill stroke;stop-color:#000000;stop-opacity:1" />
      <rect
         y="171.38385"
         x="248.19539"
         height="12.7"
         width="12.7"
         id="rect12489"
         style="font-variation-settings:normal;opacity:0.75;vector-effect:none;fill:#f9f6f1;fill-opacity:1;stroke:#080808;stroke-width:1.05833;stroke-linecap:round;stroke-linejoin:miter;stroke-miterlimit:4;stroke-dasharray:none;stroke-dashoffset:0;stroke-opacity:1;paint-order:markers fill stroke;stop-color:#000000;stop-opacity:1" />
      <rect
         y="158.68385"
         x="70.395416"
         height="12.7"
         width="12.7"
         id="rect12491"
         style="font-variation-settings:normal;opacity:0.75;vector-effect:none;fill:#f9f6f1;fill-opacity:1;stroke:#080808;stroke-width:1.05833;stroke-linecap:round;stroke-linejoin:miter;stroke-miterlimit:4;stroke-dasharray:none;stroke-dashoffset:0;stroke-opacity:1;paint-order:markers fill stroke;stop-color:#000000;stop-opacity:1" />
      <rect
         style="font-variation-settings:normal;opacity:0.75;vector-effect:none;fill:#f9f6f1;fill-opacity:1;stroke:#080808;stroke-width:1.05833;stroke-linecap:round;stroke-linejoin:miter;stroke-miterlimit:4;stroke-dasharray:none;stroke-dashoffset:0;stroke-opacity:1;paint-order:markers fill stroke;stop-color:#000000;stop-opacity:1"
         id="rect12493"
         width="12.7"
         height="12.7"
         x="57.695419"
         y="158.68385" />
      <rect
         y="158.68385"
         x="44.995422"
         height="12.7"
         width="12.7"
         id="rect12495"
         style="font-variation-settings:normal;opacity:0.75;vector-effect:none;fill:#f9f6f1;fill-opacity:1;stroke:#080808;stroke-width:1.05833;stroke-linecap:round;stroke-linejoin:miter;stroke-miterlimit:4;stroke-dasharray:none;stroke-dashoffset:0;stroke-opacity:1;paint-order:markers fill stroke;stop-color:#000000;stop-opacity:1" />
      <rect
         style="font-variation-settings:normal;opacity:0.75;vector-effect:none;fill:#f9f6f1;fill-opacity:1;stroke:#080808;stroke-width:1.05833;stroke-linecap:round;stroke-linejoin:miter;stroke-miterlimit:4;stroke-dasharray:none;stroke-dashoffset:0;stroke-opacity:1;paint-order:markers fill stroke;stop-color:#000000;stop-opacity:1"
         id="rect12497"
         width="12.7"
         height="12.7"
         x="32.295422"
         y="158.68385" />
      <path
         d="m 119.30406,207.42517 h -8.91737 q -0.0932,0 -0.17,-0.0548 -0.0713,-0.0548 -0.11516,-0.13165 -0.0439,-0.0767 -0.0439,-0.16444 0,-0.0823 0.0439,-0.17 l 4.4532,-7.90825 q 0.0439,-0.0768 0.12065,-0.11512 0.0767,-0.0384 0.16451,-0.0384 0.0877,0 0.16452,0.0384 0.0767,0.0384 0.12065,0.11512 l 4.46416,7.90825 q 0.044,0.0877 0.044,0.17 0,0.0877 -0.044,0.16444 -0.044,0.0767 -0.12064,0.13165 -0.0713,0.0548 -0.16453,0.0548 z m -8.347,-0.70198 h 7.76566 l -3.88283,-6.87726 z m 4.39287,-1.99629 h -1.02008 v -3.04373 h 1.02008 z m 0.15354,0.99813 q 0,0.14249 -0.0548,0.26323 -0.0493,0.12067 -0.14258,0.21387 -0.0877,0.0877 -0.2084,0.14268 -0.12065,0.0492 -0.25776,0.0492 -0.13709,0 -0.25777,-0.0492 -0.12064,-0.0548 -0.20839,-0.14268 -0.0877,-0.0932 -0.13711,-0.21387 -0.0494,-0.12067 -0.0494,-0.26323 0,-0.13712 0.0494,-0.26324 0.0493,-0.12609 0.13711,-0.21387 0.0877,-0.0932 0.20839,-0.14801 0.12067,-0.0548 0.25777,-0.0548 0.13711,0 0.25776,0.0548 0.12064,0.0548 0.2084,0.14801 0.0932,0.0876 0.14258,0.21387 0.0548,0.1261 0.0548,0.26324 z"
         style="font-style:normal;font-variant:normal;font-weight:normal;font-stretch:normal;font-size:medium;line-height:1.25;font-family:'Archivo Narrow';-inkscape-font-specification:'Archivo Narrow';font-variation-settings:normal;letter-spacing:0px;word-spacing:0px;display:inline;opacity:1;vector-effect:none;fill:#000000;fill-opacity:1;stroke:none;stroke-width:0.264583;stroke-linecap:butt;stroke-linejoin:miter;stroke-miterlimit:4;stroke-dasharray:none;stroke-dashoffset:0;stroke-opacity:1;paint-order:markers fill stroke;stop-color:#000000;stop-opacity:1"
         id="path12499"
         inkscape:connector-curvature="0" />
      <g
         style="stroke-width:1.3992"
         transform="matrix(0.71469656,0,0,0.71469656,69.177664,259.90037)"
         id="g12519">
        <text
           xml:space="preserve"
           style="font-size:8.70408px;line-height:1.25;font-family:'Archivo Narrow';-inkscape-font-specification:'Archivo Narrow';letter-spacing:0px;word-spacing:0px;stroke-width:0.370203"
           x="43.576641"
           y="-58.339306"
           id="text12513"
           transform="rotate(-45)"><tspan
             sodipodi:role="line"
             x="43.576641"
             y="-58.339306"
             style="stroke-width:0.370203"
             id="tspan12511">Start</tspan></text>
      </g>
      <path
         inkscape:connector-curvature="0"
         id="path12613"
         style="font-style:normal;font-variant:normal;font-weight:normal;font-stretch:normal;font-size:medium;line-height:1.25;font-family:'Archivo Narrow';-inkscape-font-specification:'Archivo Narrow';font-variation-settings:normal;letter-spacing:0px;word-spacing:0px;display:inline;opacity:1;vector-effect:none;fill:#000000;fill-opacity:1;stroke:none;stroke-width:0.264583;stroke-linecap:butt;stroke-linejoin:miter;stroke-miterlimit:4;stroke-dasharray:none;stroke-dashoffset:0;stroke-opacity:1;paint-order:markers fill stroke;stop-color:#000000;stop-opacity:1"
         d="m 170.10404,207.42517 h -8.91737 q -0.0932,0 -0.17,-0.0548 -0.0713,-0.0548 -0.11516,-0.13165 -0.0439,-0.0767 -0.0439,-0.16444 0,-0.0823 0.0439,-0.17 l 4.4532,-7.90825 q 0.0439,-0.0768 0.12065,-0.11512 0.0767,-0.0384 0.16451,-0.0384 0.0877,0 0.16452,0.0384 0.0767,0.0384 0.12065,0.11512 l 4.46416,7.90825 q 0.044,0.0877 0.044,0.17 0,0.0877 -0.044,0.16444 -0.044,0.0767 -0.12064,0.13165 -0.0713,0.0548 -0.16453,0.0548 z m -8.347,-0.70198 h 7.76566 l -3.88283,-6.87726 z m 4.39287,-1.99629 h -1.02008 v -3.04373 h 1.02008 z m 0.15354,0.99813 q 0,0.14249 -0.0548,0.26323 -0.0493,0.12067 -0.14258,0.21387 -0.0877,0.0877 -0.2084,0.14268 -0.12065,0.0492 -0.25776,0.0492 -0.13709,0 -0.25777,-0.0492 -0.12064,-0.0548 -0.20839,-0.14268 -0.0877,-0.0932 -0.13711,-0.21387 -0.0494,-0.12067 -0.0494,-0.26323 0,-0.13712 0.0494,-0.26324 0.0493,-0.12609 0.13711,-0.21387 0.0877,-0.0932 0.20839,-0.14801 0.12067,-0.0548 0.25777,-0.0548 0.13711,0 0.25776,0.0548 0.12064,0.0548 0.2084,0.14801 0.0932,0.0876 0.14258,0.21387 0.0548,0.1261 0.0548,0.26324 z" />
      <path
         d="m 208.20403,207.42517 h -8.91737 q -0.0932,0 -0.17,-0.0548 -0.0713,-0.0548 -0.11516,-0.13165 -0.0439,-0.0767 -0.0439,-0.16444 0,-0.0823 0.0439,-0.17 l 4.4532,-7.90825 q 0.0439,-0.0768 0.12065,-0.11512 0.0767,-0.0384 0.16451,-0.0384 0.0877,0 0.16452,0.0384 0.0767,0.0384 0.12065,0.11512 l 4.46416,7.90825 q 0.044,0.0877 0.044,0.17 0,0.0877 -0.044,0.16444 -0.044,0.0767 -0.12064,0.13165 -0.0713,0.0548 -0.16453,0.0548 z m -8.347,-0.70198 h 7.76566 l -3.88283,-6.87726 z m 4.39287,-1.99629 h -1.02008 v -3.04373 h 1.02008 z m 0.15354,0.99813 q 0,0.14249 -0.0548,0.26323 -0.0493,0.12067 -0.14258,0.21387 -0.0877,0.0877 -0.2084,0.14268 -0.12065,0.0492 -0.25776,0.0492 -0.13709,0 -0.25777,-0.0492 -0.12064,-0.0548 -0.20839,-0.14268 -0.0877,-0.0932 -0.13711,-0.21387 -0.0494,-0.12067 -0.0494,-0.26323 0,-0.13712 0.0494,-0.26324 0.0493,-0.12609 0.13711,-0.21387 0.0877,-0.0932 0.20839,-0.14801 0.12067,-0.0548 0.25777,-0.0548 0.13711,0 0.25776,0.0548 0.12064,0.0548 0.2084,0.14801 0.0932,0.0876 0.14258,0.21387 0.0548,0.1261 0.0548,0.26324 z"
         style="font-style:normal;font-variant:normal;font-weight:normal;font-stretch:normal;font-size:medium;line-height:1.25;font-family:'Archivo Narrow';-inkscape-font-specification:'Archivo Narrow';font-variation-settings:normal;letter-spacing:0px;word-spacing:0px;display:inline;opacity:1;vector-effect:none;fill:#000000;fill-opacity:1;stroke:none;stroke-width:0.264583;stroke-linecap:butt;stroke-linejoin:miter;stroke-miterlimit:4;stroke-dasharray:none;stroke-dashoffset:0;stroke-opacity:1;paint-order:markers fill stroke;stop-color:#000000;stop-opacity:1"
         id="path12615"
         inkscape:connector-curvature="0" />
      <path
         inkscape:connector-curvature="0"
         id="path12617"
         style="font-style:normal;font-variant:normal;font-weight:normal;font-stretch:normal;font-size:medium;line-height:1.25;font-family:'Archivo Narrow';-inkscape-font-specification:'Archivo Narrow';font-variation-settings:normal;letter-spacing:0px;word-spacing:0px;display:inline;opacity:1;vector-effect:none;fill:#000000;fill-opacity:1;stroke:none;stroke-width:0.264583;stroke-linecap:butt;stroke-linejoin:miter;stroke-miterlimit:4;stroke-dasharray:none;stroke-dashoffset:0;stroke-opacity:1;paint-order:markers fill stroke;stop-color:#000000;stop-opacity:1"
         d="m 246.30403,207.42517 h -8.91737 q -0.0932,0 -0.17,-0.0548 -0.0713,-0.0548 -0.11516,-0.13165 -0.0439,-0.0767 -0.0439,-0.16444 0,-0.0823 0.0439,-0.17 l 4.4532,-7.90825 q 0.0439,-0.0768 0.12065,-0.11512 0.0767,-0.0384 0.16451,-0.0384 0.0877,0 0.16452,0.0384 0.0767,0.0384 0.12065,0.11512 l 4.46416,7.90825 q 0.044,0.0877 0.044,0.17 0,0.0877 -0.044,0.16444 -0.044,0.0767 -0.12064,0.13165 -0.0713,0.0548 -0.16453,0.0548 z m -8.347,-0.70198 h 7.76566 l -3.88283,-6.87726 z m 4.39287,-1.99629 h -1.02008 v -3.04373 h 1.02008 z m 0.15354,0.99813 q 0,0.14249 -0.0548,0.26323 -0.0493,0.12067 -0.14258,0.21387 -0.0877,0.0877 -0.2084,0.14268 -0.12065,0.0492 -0.25776,0.0492 -0.13709,0 -0.25777,-0.0492 -0.12064,-0.0548 -0.20839,-0.14268 -0.0877,-0.0932 -0.13711,-0.21387 -0.0494,-0.12067 -0.0494,-0.26323 0,-0.13712 0.0494,-0.26324 0.0493,-0.12609 0.13711,-0.21387 0.0877,-0.0932 0.20839,-0.14801 0.12067,-0.0548 0.25777,-0.0548 0.13711,0 0.25776,0.0548 0.12064,0.0548 0.2084,0.14801 0.0932,0.0876 0.14258,0.21387 0.0548,0.1261 0.0548,0.26324 z" />
      <path
         d="m 271.70403,194.72518 h -8.91737 q -0.0932,0 -0.17,-0.0548 -0.0713,-0.0548 -0.11516,-0.13165 -0.0439,-0.0767 -0.0439,-0.16444 0,-0.0823 0.0439,-0.17 l 4.4532,-7.90825 q 0.0439,-0.0768 0.12065,-0.11512 0.0767,-0.0384 0.16451,-0.0384 0.0877,0 0.16452,0.0384 0.0767,0.0384 0.12065,0.11512 l 4.46416,7.90825 q 0.044,0.0877 0.044,0.17 0,0.0877 -0.044,0.16444 -0.044,0.0767 -0.12064,0.13165 -0.0713,0.0548 -0.16453,0.0548 z m -8.347,-0.70198 h 7.76566 l -3.88283,-6.87726 z m 4.39287,-1.99629 h -1.02008 v -3.04373 h 1.02008 z m 0.15354,0.99813 q 0,0.14249 -0.0548,0.26323 -0.0493,0.12067 -0.14258,0.21387 -0.0877,0.0877 -0.2084,0.14268 -0.12065,0.0492 -0.25776,0.0492 -0.13709,0 -0.25777,-0.0492 -0.12064,-0.0548 -0.20839,-0.14268 -0.0877,-0.0932 -0.13711,-0.21387 -0.0494,-0.12067 -0.0494,-0.26323 0,-0.13712 0.0494,-0.26324 0.0493,-0.12609 0.13711,-0.21387 0.0877,-0.0932 0.20839,-0.14801 0.12067,-0.0548 0.25777,-0.0548 0.13711,0 0.25776,0.0548 0.12064,0.0548 0.2084,0.14801 0.0932,0.0876 0.14258,0.21387 0.0548,0.1261 0.0548,0.26324 z"
         style="font-style:normal;font-variant:normal;font-weight:normal;font-stretch:normal;font-size:medium;line-height:1.25;font-family:'Archivo Narrow';-inkscape-font-specification:'Archivo Narrow';font-variation-settings:normal;letter-spacing:0px;word-spacing:0px;display:inline;opacity:1;vector-effect:none;fill:#000000;fill-opacity:1;stroke:none;stroke-width:0.264583;stroke-linecap:butt;stroke-linejoin:miter;stroke-miterlimit:4;stroke-dasharray:none;stroke-dashoffset:0;stroke-opacity:1;paint-order:markers fill stroke;stop-color:#000000;stop-opacity:1"
         id="path12619"
         inkscape:connector-curvature="0" />
      <path
         inkscape:connector-curvature="0"
         id="path12621"
         style="font-style:normal;font-variant:normal;font-weight:normal;font-stretch:normal;font-size:medium;line-height:1.25;font-family:'Archivo Narrow';-inkscape-font-specification:'Archivo Narrow';font-variation-settings:normal;letter-spacing:0px;word-spacing:0px;display:inline;opacity:1;vector-effect:none;fill:#000000;fill-opacity:1;stroke:none;stroke-width:0.264583;stroke-linecap:butt;stroke-linejoin:miter;stroke-miterlimit:4;stroke-dasharray:none;stroke-dashoffset:0;stroke-opacity:1;paint-order:markers fill stroke;stop-color:#000000;stop-opacity:1"
         d="m 259.00402,182.02518 h -8.91737 q -0.0932,0 -0.17,-0.0548 -0.0713,-0.0548 -0.11516,-0.13165 -0.0439,-0.0767 -0.0439,-0.16444 0,-0.0823 0.0439,-0.17 l 4.4532,-7.90825 q 0.0439,-0.0768 0.12065,-0.11512 0.0767,-0.0384 0.16451,-0.0384 0.0877,0 0.16452,0.0384 0.0767,0.0384 0.12065,0.11512 l 4.46416,7.90825 q 0.044,0.0877 0.044,0.17 0,0.0877 -0.044,0.16444 -0.044,0.0767 -0.12064,0.13165 -0.0713,0.0548 -0.16453,0.0548 z m -8.347,-0.70198 h 7.76566 l -3.88283,-6.87726 z m 4.39287,-1.99629 h -1.02008 v -3.04373 h 1.02008 z m 0.15354,0.99813 q 0,0.14249 -0.0548,0.26323 -0.0493,0.12067 -0.14258,0.21387 -0.0877,0.0877 -0.2084,0.14268 -0.12065,0.0492 -0.25776,0.0492 -0.13709,0 -0.25777,-0.0492 -0.12064,-0.0548 -0.20839,-0.14268 -0.0877,-0.0932 -0.13711,-0.21387 -0.0494,-0.12067 -0.0494,-0.26323 0,-0.13712 0.0494,-0.26324 0.0493,-0.12609 0.13711,-0.21387 0.0877,-0.0932 0.20839,-0.14801 0.12067,-0.0548 0.25777,-0.0548 0.13711,0 0.25776,0.0548 0.12064,0.0548 0.2084,0.14801 0.0932,0.0876 0.14258,0.21387 0.0548,0.1261 0.0548,0.26324 z" />
      <path
         d="m 233.60403,182.02518 h -8.91737 q -0.0932,0 -0.17,-0.0548 -0.0713,-0.0548 -0.11516,-0.13165 -0.0439,-0.0767 -0.0439,-0.16444 0,-0.0823 0.0439,-0.17 l 4.4532,-7.90825 q 0.0439,-0.0768 0.12065,-0.11512 0.0767,-0.0384 0.16451,-0.0384 0.0877,0 0.16452,0.0384 0.0767,0.0384 0.12065,0.11512 l 4.46416,7.90825 q 0.044,0.0877 0.044,0.17 0,0.0877 -0.044,0.16444 -0.044,0.0767 -0.12064,0.13165 -0.0713,0.0548 -0.16453,0.0548 z m -8.347,-0.70198 h 7.76566 l -3.88283,-6.87726 z m 4.39287,-1.99629 h -1.02008 v -3.04373 h 1.02008 z m 0.15354,0.99813 q 0,0.14249 -0.0548,0.26323 -0.0493,0.12067 -0.14258,0.21387 -0.0877,0.0877 -0.2084,0.14268 -0.12065,0.0492 -0.25776,0.0492 -0.13709,0 -0.25777,-0.0492 -0.12064,-0.0548 -0.20839,-0.14268 -0.0877,-0.0932 -0.13711,-0.21387 -0.0494,-0.12067 -0.0494,-0.26323 0,-0.13712 0.0494,-0.26324 0.0493,-0.12609 0.13711,-0.21387 0.0877,-0.0932 0.20839,-0.14801 0.12067,-0.0548 0.25777,-0.0548 0.13711,0 0.25776,0.0548 0.12064,0.0548 0.2084,0.14801 0.0932,0.0876 0.14258,0.21387 0.0548,0.1261 0.0548,0.26324 z"
         style="font-style:normal;font-variant:normal;font-weight:normal;font-stretch:normal;font-size:medium;line-height:1.25;font-family:'Archivo Narrow';-inkscape-font-specification:'Archivo Narrow';font-variation-settings:normal;letter-spacing:0px;word-spacing:0px;display:inline;opacity:1;vector-effect:none;fill:#000000;fill-opacity:1;stroke:none;stroke-width:0.264583;stroke-linecap:butt;stroke-linejoin:miter;stroke-miterlimit:4;stroke-dasharray:none;stroke-dashoffset:0;stroke-opacity:1;paint-order:markers fill stroke;stop-color:#000000;stop-opacity:1"
         id="path12623"
         inkscape:connector-curvature="0" />
      <path
         inkscape:connector-curvature="0"
         id="path12625"
         style="font-style:normal;font-variant:normal;font-weight:normal;font-stretch:normal;font-size:medium;line-height:1.25;font-family:'Archivo Narrow';-inkscape-font-specification:'Archivo Narrow';font-variation-settings:normal;letter-spacing:0px;word-spacing:0px;display:inline;opacity:1;vector-effect:none;fill:#000000;fill-opacity:1;stroke:none;stroke-width:0.264583;stroke-linecap:butt;stroke-linejoin:miter;stroke-miterlimit:4;stroke-dasharray:none;stroke-dashoffset:0;stroke-opacity:1;paint-order:markers fill stroke;stop-color:#000000;stop-opacity:1"
         d="m 208.20403,182.02518 h -8.91737 q -0.0932,0 -0.17,-0.0548 -0.0713,-0.0548 -0.11516,-0.13165 -0.0439,-0.0767 -0.0439,-0.16444 0,-0.0823 0.0439,-0.17 l 4.4532,-7.90825 q 0.0439,-0.0768 0.12065,-0.11512 0.0767,-0.0384 0.16451,-0.0384 0.0877,0 0.16452,0.0384 0.0767,0.0384 0.12065,0.11512 l 4.46416,7.90825 q 0.044,0.0877 0.044,0.17 0,0.0877 -0.044,0.16444 -0.044,0.0767 -0.12064,0.13165 -0.0713,0.0548 -0.16453,0.0548 z m -8.347,-0.70198 h 7.76566 l -3.88283,-6.87726 z m 4.39287,-1.99629 h -1.02008 v -3.04373 h 1.02008 z m 0.15354,0.99813 q 0,0.14249 -0.0548,0.26323 -0.0493,0.12067 -0.14258,0.21387 -0.0877,0.0877 -0.2084,0.14268 -0.12065,0.0492 -0.25776,0.0492 -0.13709,0 -0.25777,-0.0492 -0.12064,-0.0548 -0.20839,-0.14268 -0.0877,-0.0932 -0.13711,-0.21387 -0.0494,-0.12067 -0.0494,-0.26323 0,-0.13712 0.0494,-0.26324 0.0493,-0.12609 0.13711,-0.21387 0.0877,-0.0932 0.20839,-0.14801 0.12067,-0.0548 0.25777,-0.0548 0.13711,0 0.25776,0.0548 0.12064,0.0548 0.2084,0.14801 0.0932,0.0876 0.14258,0.21387 0.0548,0.1261 0.0548,0.26324 z" />
      <path
         d="m 182.80404,182.02518 h -8.91737 q -0.0932,0 -0.17,-0.0548 -0.0713,-0.0548 -0.11516,-0.13165 -0.0439,-0.0767 -0.0439,-0.16444 0,-0.0823 0.0439,-0.17 l 4.4532,-7.90825 q 0.0439,-0.0768 0.12065,-0.11512 0.0767,-0.0384 0.16451,-0.0384 0.0877,0 0.16452,0.0384 0.0767,0.0384 0.12065,0.11512 l 4.46416,7.90825 q 0.044,0.0877 0.044,0.17 0,0.0877 -0.044,0.16444 -0.044,0.0767 -0.12064,0.13165 -0.0713,0.0548 -0.16453,0.0548 z m -8.347,-0.70198 h 7.76566 l -3.88283,-6.87726 z m 4.39287,-1.99629 h -1.02008 v -3.04373 h 1.02008 z m 0.15354,0.99813 q 0,0.14249 -0.0548,0.26323 -0.0493,0.12067 -0.14258,0.21387 -0.0877,0.0877 -0.2084,0.14268 -0.12065,0.0492 -0.25776,0.0492 -0.13709,0 -0.25777,-0.0492 -0.12064,-0.0548 -0.20839,-0.14268 -0.0877,-0.0932 -0.13711,-0.21387 -0.0494,-0.12067 -0.0494,-0.26323 0,-0.13712 0.0494,-0.26324 0.0493,-0.12609 0.13711,-0.21387 0.0877,-0.0932 0.20839,-0.14801 0.12067,-0.0548 0.25777,-0.0548 0.13711,0 0.25776,0.0548 0.12064,0.0548 0.2084,0.14801 0.0932,0.0876 0.14258,0.21387 0.0548,0.1261 0.0548,0.26324 z"
         style="font-style:normal;font-variant:normal;font-weight:normal;font-stretch:normal;font-size:medium;line-height:1.25;font-family:'Archivo Narrow';-inkscape-font-specification:'Archivo Narrow';font-variation-settings:normal;letter-spacing:0px;word-spacing:0px;display:inline;opacity:1;vector-effect:none;fill:#000000;fill-opacity:1;stroke:none;stroke-width:0.264583;stroke-linecap:butt;stroke-linejoin:miter;stroke-miterlimit:4;stroke-dasharray:none;stroke-dashoffset:0;stroke-opacity:1;paint-order:markers fill stroke;stop-color:#000000;stop-opacity:1"
         id="path12627"
         inkscape:connector-curvature="0" />
      <path
         inkscape:connector-curvature="0"
         id="path12629"
         style="font-style:normal;font-variant:normal;font-weight:normal;font-stretch:normal;font-size:medium;line-height:1.25;font-family:'Archivo Narrow';-inkscape-font-specification:'Archivo Narrow';font-variation-settings:normal;letter-spacing:0px;word-spacing:0px;display:inline;opacity:1;vector-effect:none;fill:#000000;fill-opacity:1;stroke:none;stroke-width:0.264583;stroke-linecap:butt;stroke-linejoin:miter;stroke-miterlimit:4;stroke-dasharray:none;stroke-dashoffset:0;stroke-opacity:1;paint-order:markers fill stroke;stop-color:#000000;stop-opacity:1"
         d="m 157.40405,182.02518 h -8.91737 q -0.0932,0 -0.17,-0.0548 -0.0713,-0.0548 -0.11516,-0.13165 -0.0439,-0.0767 -0.0439,-0.16444 0,-0.0823 0.0439,-0.17 l 4.4532,-7.90825 q 0.0439,-0.0768 0.12065,-0.11512 0.0767,-0.0384 0.16451,-0.0384 0.0877,0 0.16452,0.0384 0.0767,0.0384 0.12065,0.11512 l 4.46416,7.90825 q 0.044,0.0877 0.044,0.17 0,0.0877 -0.044,0.16444 -0.044,0.0767 -0.12064,0.13165 -0.0713,0.0548 -0.16453,0.0548 z m -8.347,-0.70198 h 7.76566 l -3.88283,-6.87726 z m 4.39287,-1.99629 h -1.02008 v -3.04373 h 1.02008 z m 0.15354,0.99813 q 0,0.14249 -0.0548,0.26323 -0.0493,0.12067 -0.14258,0.21387 -0.0877,0.0877 -0.2084,0.14268 -0.12065,0.0492 -0.25776,0.0492 -0.13709,0 -0.25777,-0.0492 -0.12064,-0.0548 -0.20839,-0.14268 -0.0877,-0.0932 -0.13711,-0.21387 -0.0494,-0.12067 -0.0494,-0.26323 0,-0.13712 0.0494,-0.26324 0.0493,-0.12609 0.13711,-0.21387 0.0877,-0.0932 0.20839,-0.14801 0.12067,-0.0548 0.25777,-0.0548 0.13711,0 0.25776,0.0548 0.12064,0.0548 0.2084,0.14801 0.0932,0.0876 0.14258,0.21387 0.0548,0.1261 0.0548,0.26324 z" />
      <path
         d="m 144.70405,182.02518 h -8.91737 q -0.0932,0 -0.17,-0.0548 -0.0713,-0.0548 -0.11516,-0.13165 -0.0439,-0.0767 -0.0439,-0.16444 0,-0.0823 0.0439,-0.17 l 4.4532,-7.90825 q 0.0439,-0.0768 0.12065,-0.11512 0.0767,-0.0384 0.16451,-0.0384 0.0877,0 0.16452,0.0384 0.0767,0.0384 0.12065,0.11512 l 4.46416,7.90825 q 0.044,0.0877 0.044,0.17 0,0.0877 -0.044,0.16444 -0.044,0.0767 -0.12064,0.13165 -0.0713,0.0548 -0.16453,0.0548 z m -8.347,-0.70198 h 7.76566 l -3.88283,-6.87726 z m 4.39287,-1.99629 h -1.02008 v -3.04373 h 1.02008 z m 0.15354,0.99813 q 0,0.14249 -0.0548,0.26323 -0.0493,0.12067 -0.14258,0.21387 -0.0877,0.0877 -0.2084,0.14268 -0.12065,0.0492 -0.25776,0.0492 -0.13709,0 -0.25777,-0.0492 -0.12064,-0.0548 -0.20839,-0.14268 -0.0877,-0.0932 -0.13711,-0.21387 -0.0494,-0.12067 -0.0494,-0.26323 0,-0.13712 0.0494,-0.26324 0.0493,-0.12609 0.13711,-0.21387 0.0877,-0.0932 0.20839,-0.14801 0.12067,-0.0548 0.25777,-0.0548 0.13711,0 0.25776,0.0548 0.12064,0.0548 0.2084,0.14801 0.0932,0.0876 0.14258,0.21387 0.0548,0.1261 0.0548,0.26324 z"
         style="font-style:normal;font-variant:normal;font-weight:normal;font-stretch:normal;font-size:medium;line-height:1.25;font-family:'Archivo Narrow';-inkscape-font-specification:'Archivo Narrow';font-variation-settings:normal;letter-spacing:0px;word-spacing:0px;display:inline;opacity:1;vector-effect:none;fill:#000000;fill-opacity:1;stroke:none;stroke-width:0.264583;stroke-linecap:butt;stroke-linejoin:miter;stroke-miterlimit:4;stroke-dasharray:none;stroke-dashoffset:0;stroke-opacity:1;paint-order:markers fill stroke;stop-color:#000000;stop-opacity:1"
         id="path12631"
         inkscape:connector-curvature="0" />
      <path
         inkscape:connector-curvature="0"
         id="path12633"
         style="font-style:normal;font-variant:normal;font-weight:normal;font-stretch:normal;font-size:medium;line-height:1.25;font-family:'Archivo Narrow';-inkscape-font-specification:'Archivo Narrow';font-variation-settings:normal;letter-spacing:0px;word-spacing:0px;display:inline;opacity:1;vector-effect:none;fill:#000000;fill-opacity:1;stroke:none;stroke-width:0.264583;stroke-linecap:butt;stroke-linejoin:miter;stroke-miterlimit:4;stroke-dasharray:none;stroke-dashoffset:0;stroke-opacity:1;paint-order:markers fill stroke;stop-color:#000000;stop-opacity:1"
         d="m 119.30406,182.02518 h -8.91737 q -0.0932,0 -0.17,-0.0548 -0.0713,-0.0548 -0.11516,-0.13165 -0.0439,-0.0767 -0.0439,-0.16444 0,-0.0823 0.0439,-0.17 l 4.4532,-7.90825 q 0.0439,-0.0768 0.12065,-0.11512 0.0767,-0.0384 0.16451,-0.0384 0.0877,0 0.16452,0.0384 0.0767,0.0384 0.12065,0.11512 l 4.46416,7.90825 q 0.044,0.0877 0.044,0.17 0,0.0877 -0.044,0.16444 -0.044,0.0767 -0.12064,0.13165 -0.0713,0.0548 -0.16453,0.0548 z m -8.347,-0.70198 h 7.76566 l -3.88283,-6.87726 z m 4.39287,-1.99629 h -1.02008 v -3.04373 h 1.02008 z m 0.15354,0.99813 q 0,0.14249 -0.0548,0.26323 -0.0493,0.12067 -0.14258,0.21387 -0.0877,0.0877 -0.2084,0.14268 -0.12065,0.0492 -0.25776,0.0492 -0.13709,0 -0.25777,-0.0492 -0.12064,-0.0548 -0.20839,-0.14268 -0.0877,-0.0932 -0.13711,-0.21387 -0.0494,-0.12067 -0.0494,-0.26323 0,-0.13712 0.0494,-0.26324 0.0493,-0.12609 0.13711,-0.21387 0.0877,-0.0932 0.20839,-0.14801 0.12067,-0.0548 0.25777,-0.0548 0.13711,0 0.25776,0.0548 0.12064,0.0548 0.2084,0.14801 0.0932,0.0876 0.14258,0.21387 0.0548,0.1261 0.0548,0.26324 z" />
      <path
         d="m 106.60406,182.02518 h -8.917371 q -0.0932,0 -0.17,-0.0548 -0.0713,-0.0548 -0.11516,-0.13165 -0.0439,-0.0767 -0.0439,-0.16444 0,-0.0823 0.0439,-0.17 l 4.453201,-7.90825 q 0.0439,-0.0768 0.12065,-0.11512 0.0767,-0.0384 0.16451,-0.0384 0.0877,0 0.16452,0.0384 0.0767,0.0384 0.12065,0.11512 l 4.46416,7.90825 q 0.044,0.0877 0.044,0.17 0,0.0877 -0.044,0.16444 -0.044,0.0767 -0.12064,0.13165 -0.0713,0.0548 -0.16453,0.0548 z m -8.347001,-0.70198 h 7.765661 l -3.88283,-6.87726 z m 4.392871,-1.99629 h -1.02008 v -3.04373 h 1.02008 z m 0.15354,0.99813 q 0,0.14249 -0.0548,0.26323 -0.0493,0.12067 -0.14258,0.21387 -0.0877,0.0877 -0.2084,0.14268 -0.12065,0.0492 -0.25776,0.0492 -0.13709,0 -0.25777,-0.0492 -0.12064,-0.0548 -0.20839,-0.14268 -0.0877,-0.0932 -0.13711,-0.21387 -0.0494,-0.12067 -0.0494,-0.26323 0,-0.13712 0.0494,-0.26324 0.0493,-0.12609 0.13711,-0.21387 0.0877,-0.0932 0.20839,-0.14801 0.12067,-0.0548 0.25777,-0.0548 0.13711,0 0.25776,0.0548 0.12064,0.0548 0.2084,0.14801 0.0932,0.0876 0.14258,0.21387 0.0548,0.1261 0.0548,0.26324 z"
         style="font-style:normal;font-variant:normal;font-weight:normal;font-stretch:normal;font-size:medium;line-height:1.25;font-family:'Archivo Narrow';-inkscape-font-specification:'Archivo Narrow';font-variation-settings:normal;letter-spacing:0px;word-spacing:0px;display:inline;opacity:1;vector-effect:none;fill:#000000;fill-opacity:1;stroke:none;stroke-width:0.264583;stroke-linecap:butt;stroke-linejoin:miter;stroke-miterlimit:4;stroke-dasharray:none;stroke-dashoffset:0;stroke-opacity:1;paint-order:markers fill stroke;stop-color:#000000;stop-opacity:1"
         id="path12635"
         inkscape:connector-curvature="0" />
      <path
         inkscape:connector-curvature="0"
         id="path12637"
         style="font-style:normal;font-variant:normal;font-weight:normal;font-stretch:normal;font-size:medium;line-height:1.25;font-family:'Archivo Narrow';-inkscape-font-specification:'Archivo Narrow';font-variation-settings:normal;letter-spacing:0px;word-spacing:0px;display:inline;opacity:1;vector-effect:none;fill:#000000;fill-opacity:1;stroke:none;stroke-width:0.264583;stroke-linecap:butt;stroke-linejoin:miter;stroke-miterlimit:4;stroke-dasharray:none;stroke-dashoffset:0;stroke-opacity:1;paint-order:markers fill stroke;stop-color:#000000;stop-opacity:1"
         d="m 81.204065,182.02518 h -8.917371 q -0.0932,0 -0.17,-0.0548 -0.0713,-0.0548 -0.11516,-0.13165 -0.0439,-0.0767 -0.0439,-0.16444 0,-0.0823 0.0439,-0.17 l 4.453201,-7.90825 q 0.0439,-0.0768 0.12065,-0.11512 0.0767,-0.0384 0.16451,-0.0384 0.0877,0 0.16452,0.0384 0.0767,0.0384 0.12065,0.11512 l 4.46416,7.90825 q 0.044,0.0877 0.044,0.17 0,0.0877 -0.044,0.16444 -0.044,0.0767 -0.12064,0.13165 -0.0713,0.0548 -0.16453,0.0548 z m -8.347001,-0.70198 h 7.765661 l -3.88283,-6.87726 z m 4.392871,-1.99629 h -1.02008 v -3.04373 h 1.02008 z m 0.15354,0.99813 q 0,0.14249 -0.0548,0.26323 -0.0493,0.12067 -0.14258,0.21387 -0.0877,0.0877 -0.2084,0.14268 -0.12065,0.0492 -0.25776,0.0492 -0.13709,0 -0.25777,-0.0492 -0.12064,-0.0548 -0.20839,-0.14268 -0.0877,-0.0932 -0.13711,-0.21387 -0.0494,-0.12067 -0.0494,-0.26323 0,-0.13712 0.0494,-0.26324 0.0493,-0.12609 0.13711,-0.21387 0.0877,-0.0932 0.20839,-0.14801 0.12067,-0.0548 0.25777,-0.0548 0.13711,0 0.25776,0.0548 0.12064,0.0548 0.2084,0.14801 0.0932,0.0876 0.14258,0.21387 0.0548,0.1261 0.0548,0.26324 z" />
      <path
         inkscape:connector-curvature="0"
         style="font-variation-settings:normal;display:inline;opacity:1;vector-effect:none;fill:#000000;fill-opacity:1;stroke:none;stroke-width:0.16238;stroke-linecap:butt;stroke-linejoin:miter;stroke-miterlimit:4;stroke-dasharray:none;stroke-dashoffset:0;stroke-opacity:1;stop-color:#000000;stop-opacity:1"
         d="m 38.659333,159.87344 c -1.783409,-0.004 -3.519326,0.92264 -4.475021,2.5807 -0.96806,1.67953 -0.885657,3.67758 0.04192,5.23177 -0.572017,-1.45059 -0.440484,-3.2885 0.499174,-4.91875 0.940246,-1.63126 2.465145,-2.66478 4.006277,-2.89302 -0.02405,0 -0.04825,0 -0.07238,0 z m -0.0038,1.15862 c -1.382984,-0.003 -2.728783,0.71556 -3.469909,2.00132 -0.750597,1.3023 -0.687308,2.85111 0.03182,4.05632 -0.443214,-1.12478 -0.340914,-2.54984 0.387562,-3.81371 0.728904,-1.26465 1.910613,-2.06595 3.105351,-2.24329 -0.01825,0 -0.03649,0 -0.05481,0 z m -0.02842,0.94239 c -1.047297,0.008 -2.063816,0.55525 -2.624416,1.52778 -0.841663,1.46031 -0.340454,3.33313 1.117431,4.17624 1.45787,0.84314 3.327588,0.34171 4.169289,-1.11854 0.841753,-1.46033 0.340468,-3.33385 -1.117387,-4.17692 -0.455571,-0.26342 -0.951277,-0.39526 -1.443408,-0.40781 -0.03393,0 -0.06771,0 -0.101509,0 z m -0.0095,0.40311 -0.01357,0.63828 c -0.330998,0.004 -0.656998,0.0885 -0.946956,0.24794 l -0.324047,-0.53723 c 0.391332,-0.22364 0.834085,-0.34402 1.284469,-0.34896 z m 4.446588,0.003 c 0.572928,1.4509 0.441615,3.28982 -0.498466,4.92085 -0.939122,1.62928 -2.461608,2.6624 -4.000886,2.89228 1.806579,0.0265 3.573786,-0.90133 4.541318,-2.57997 0.968295,-1.67994 0.886344,-3.67869 -0.04192,-5.23314 z m -3.699829,0.0975 c 0.206915,0.0587 0.410377,0.14335 0.605402,0.25615 0.202927,0.11732 0.384245,0.25758 0.543101,0.41527 l -0.472121,0.45325 c -0.121006,-0.12089 -0.259558,-0.22807 -0.414599,-0.31774 -0.133825,-0.0774 -0.272942,-0.1379 -0.414646,-0.18157 l 0.152901,-0.62539 z m 2.706909,0.49801 c 0.444428,1.12518 0.342844,2.55153 -0.386227,3.81643 -0.72791,1.26284 -1.907538,2.06378 -3.100586,2.24257 1.400454,0.0201 2.76992,-0.69943 3.519951,-2.00067 0.751019,-1.30301 0.687036,-2.85287 -0.0331,-4.05838 z m -5.332012,0.2134 0.431512,0.45054 c -0.106779,0.11266 -0.202444,0.23961 -0.283422,0.38006 -0.0876,0.15197 -0.152372,0.31058 -0.196842,0.47224 l -0.602636,-0.1484 c 0.05881,-0.21858 0.146635,-0.43335 0.265146,-0.63891 0.110119,-0.19111 0.240264,-0.3635 0.38622,-0.51559 z m 4.226101,0.5603 c 0.215737,0.39203 0.330079,0.83375 0.330079,1.28188 l -0.666905,-0.0141 c -0.0015,-0.32218 -0.08,-0.6397 -0.22863,-0.9248 l 0.565456,-0.34283 z m -4.96811,1.33741 0.622925,0.0136 c 0.01274,0.32558 0.104487,0.64464 0.267174,0.92748 l -0.53774,0.32594 c -0.221415,-0.38584 -0.342843,-0.82255 -0.352359,-1.26697 z m 4.543988,0.52509 0.64795,0.15918 c -0.05851,0.20034 -0.14135,0.39712 -0.250255,0.58606 -0.117101,0.20314 -0.256701,0.38507 -0.413959,0.54407 l -0.460623,-0.48105 c 0.111786,-0.11585 0.211523,-0.24711 0.295584,-0.39297 0.07739,-0.13419 0.137677,-0.27318 0.18128,-0.4153 z m -3.276468,0.8889 c 0.106651,0.0982 0.225757,0.18593 0.356483,0.26148 0.151663,0.0878 0.31006,0.15339 0.47142,0.19784 l -0.153571,0.62674 c -0.210904,-0.059 -0.418265,-0.14461 -0.616879,-0.25947 -0.190817,-0.11036 -0.362838,-0.24068 -0.514706,-0.38687 z m 2.325425,0.28249 0.342285,0.56708 c -0.384983,0.21411 -0.818297,0.32874 -1.258758,0.33336 l 0.01357,-0.65314 c 0.315791,-0.0104 0.625828,-0.0949 0.90297,-0.24727 z"
         id="path6839" />
      <path
         d="m 81.204065,182.02518 h -8.917371 q -0.0932,0 -0.17,-0.0548 -0.0713,-0.0548 -0.11516,-0.13165 -0.0439,-0.0767 -0.0439,-0.16444 0,-0.0823 0.0439,-0.17 l 4.453201,-7.90825 q 0.0439,-0.0768 0.12065,-0.11512 0.0767,-0.0384 0.16451,-0.0384 0.0877,0 0.16452,0.0384 0.0767,0.0384 0.12065,0.11512 l 4.46416,7.90825 q 0.044,0.0877 0.044,0.17 0,0.0877 -0.044,0.16444 -0.044,0.0767 -0.12064,0.13165 -0.0713,0.0548 -0.16453,0.0548 z m -8.347001,-0.70198 h 7.765661 l -3.88283,-6.87726 z m 4.392871,-1.99629 h -1.02008 v -3.04373 h 1.02008 z m 0.15354,0.99813 q 0,0.14249 -0.0548,0.26323 -0.0493,0.12067 -0.14258,0.21387 -0.0877,0.0877 -0.2084,0.14268 -0.12065,0.0492 -0.25776,0.0492 -0.13709,0 -0.25777,-0.0492 -0.12064,-0.0548 -0.20839,-0.14268 -0.0877,-0.0932 -0.13711,-0.21387 -0.0494,-0.12067 -0.0494,-0.26323 0,-0.13712 0.0494,-0.26324 0.0493,-0.12609 0.13711,-0.21387 0.0877,-0.0932 0.20839,-0.14801 0.12067,-0.0548 0.25777,-0.0548 0.13711,0 0.25776,0.0548 0.12064,0.0548 0.2084,0.14801 0.0932,0.0876 0.14258,0.21387 0.0548,0.1261 0.0548,0.26324 z"
         style="font-style:normal;font-variant:normal;font-weight:normal;font-stretch:normal;font-size:medium;line-height:1.25;font-family:'Archivo Narrow';-inkscape-font-specification:'Archivo Narrow';font-variation-settings:normal;letter-spacing:0px;word-spacing:0px;display:inline;opacity:1;vector-effect:none;fill:#000000;fill-opacity:1;stroke:none;stroke-width:0.264583;stroke-linecap:butt;stroke-linejoin:miter;stroke-miterlimit:4;stroke-dasharray:none;stroke-dashoffset:0;stroke-opacity:1;paint-order:markers fill stroke;stop-color:#000000;stop-opacity:1"
         id="path12639"
         inkscape:connector-curvature="0" />
      <path
         inkscape:connector-curvature="0"
         id="path12641"
         style="font-style:normal;font-variant:normal;font-weight:normal;font-stretch:normal;font-size:medium;line-height:1.25;font-family:'Archivo Narrow';-inkscape-font-specification:'Archivo Narrow';font-variation-settings:normal;letter-spacing:0px;word-spacing:0px;display:inline;opacity:1;vector-effect:none;fill:#000000;fill-opacity:1;stroke:none;stroke-width:0.264583;stroke-linecap:butt;stroke-linejoin:miter;stroke-miterlimit:4;stroke-dasharray:none;stroke-dashoffset:0;stroke-opacity:1;paint-order:markers fill stroke;stop-color:#000000;stop-opacity:1"
         d="m 81.20405,169.32518 h -8.917371 q -0.0932,0 -0.17,-0.0548 -0.0713,-0.0548 -0.11516,-0.13165 -0.0439,-0.0767 -0.0439,-0.16444 0,-0.0823 0.0439,-0.17 l 4.453201,-7.90825 q 0.0439,-0.0768 0.12065,-0.11512 0.0767,-0.0384 0.16451,-0.0384 0.0877,0 0.16452,0.0384 0.0767,0.0384 0.12065,0.11512 l 4.46416,7.90825 q 0.044,0.0877 0.044,0.17 0,0.0877 -0.044,0.16444 -0.044,0.0767 -0.12064,0.13165 -0.0713,0.0548 -0.16453,0.0548 z m -8.347001,-0.70198 h 7.765661 l -3.88283,-6.87726 z m 4.392871,-1.99629 h -1.02008 v -3.04373 h 1.02008 z m 0.15354,0.99813 q 0,0.14249 -0.0548,0.26323 -0.0493,0.12067 -0.14258,0.21387 -0.0877,0.0877 -0.2084,0.14268 -0.12065,0.0492 -0.25776,0.0492 -0.13709,0 -0.25777,-0.0492 -0.12064,-0.0548 -0.20839,-0.14268 -0.0877,-0.0932 -0.13711,-0.21387 -0.0494,-0.12067 -0.0494,-0.26323 0,-0.13712 0.0494,-0.26324 0.0493,-0.12609 0.13711,-0.21387 0.0877,-0.0932 0.20839,-0.14801 0.12067,-0.0548 0.25777,-0.0548 0.13711,0 0.25776,0.0548 0.12064,0.0548 0.2084,0.14801 0.0932,0.0876 0.14258,0.21387 0.0548,0.1261 0.0548,0.26324 z" />
      <path
         sodipodi:nodetypes="cccccccc"
         d="m 62.105071,194.9645 h 3.86402 v 0.80372 l 1.48933,-1.42233 -1.48933,-1.42234 v 0.80372 h -3.86402 z"
         style="font-variation-settings:normal;opacity:1;vector-effect:none;fill:#000000;fill-opacity:1;stroke:none;stroke-width:0.264583;stroke-linecap:butt;stroke-linejoin:miter;stroke-miterlimit:4;stroke-dasharray:none;stroke-dashoffset:0;stroke-opacity:1;paint-order:markers fill stroke;stop-color:#000000;stop-opacity:1"
         id="path12643" />
    </g>
  </g>
</svg>
