<?xml version="1.0" encoding="UTF-8" standalone="no"?>
<svg
   xmlns:dc="http://purl.org/dc/elements/1.1/"
   xmlns:cc="http://creativecommons.org/ns#"
   xmlns:rdf="http://www.w3.org/1999/02/22-rdf-syntax-ns#"
   xmlns:svg="http://www.w3.org/2000/svg"
   xmlns="http://www.w3.org/2000/svg"
   xmlns:sodipodi="http://sodipodi.sourceforge.net/DTD/sodipodi-0.dtd"
   xmlns:inkscape="http://www.inkscape.org/namespaces/inkscape"
   inkscape:export-ydpi="557.59998"
   inkscape:export-xdpi="557.59998"
   inkscape:export-filename="C:\code\timber-wolf\img\noise event tracker.png"
   width="1012.3328"
   height="222.62939"
   viewBox="0 0 267.84641 58.904027"
   version="1.1"
   id="svg8"
   inkscape:version="1.0 (4035a4fb49, 2020-05-01)"
   sodipodi:docname="noise tracker 3p.svg">
  <defs
     id="defs2">
    <inkscape:path-effect
       effect="roughen"
       id="path-effect3566"
       is_visible="true"
       lpeversion="1"
       method="segments"
       max_segment_size="0.25"
       segments="4"
       displace_x="3.19;518287754"
       displace_y="2.6;397654316"
       global_randomize="1.3;902735802"
       handles="along"
       shift_nodes="true"
       fixed_displacement="true"
       spray_tool_friendly="true" />
    <inkscape:path-effect
       effect="roughen"
       id="path-effect3153"
       is_visible="true"
       lpeversion="1"
       method="segments"
       max_segment_size="0.208081"
       segments="2"
       displace_x="10;1"
       displace_y="10;1"
       global_randomize="1;1"
       handles="along"
       shift_nodes="true"
       fixed_displacement="true"
       spray_tool_friendly="true" />
    <marker
       inkscape:isstock="true"
       style="overflow:visible"
       id="marker15102"
       refX="0"
       refY="0"
       orient="auto"
       inkscape:stockid="Arrow2Lend">
      <path
         transform="matrix(-1.1,0,0,-1.1,-1.1,0)"
         d="M 8.7185878,4.0337352 -2.2072895,0.01601326 8.7185884,-4.0017078 c -1.7454984,2.3720609 -1.7354408,5.6174519 -6e-7,8.035443 z"
         style="fill:#000000;fill-opacity:1;fill-rule:evenodd;stroke:#000000;stroke-width:0.625;stroke-linejoin:round;stroke-opacity:1"
         id="path15104"
         inkscape:connector-curvature="0" />
    </marker>
    <inkscape:perspective
       sodipodi:type="inkscape:persp3d"
       inkscape:vp_x="18.016193 : -384.28718 : 1"
       inkscape:vp_y="506.34562 : 47.252994 : 0"
       inkscape:vp_z="58.843039 : -1062.905 : 1"
       inkscape:persp3d-origin="-41.513535 : -614.1848 : 1"
       id="perspective4718" />
    <marker
       inkscape:stockid="Arrow2Lend"
       orient="auto"
       refY="0"
       refX="0"
       id="Arrow2Lend"
       style="overflow:visible"
       inkscape:isstock="true">
      <path
         id="path5089"
         style="fill:#ffffff;fill-opacity:1;fill-rule:evenodd;stroke:#ffffff;stroke-width:0.625;stroke-linejoin:round;stroke-opacity:1"
         d="M 8.7185878,4.0337352 -2.2072895,0.01601326 8.7185884,-4.0017078 c -1.7454984,2.3720609 -1.7354408,5.6174519 -6e-7,8.035443 z"
         transform="matrix(-1.1,0,0,-1.1,-1.1,0)"
         inkscape:connector-curvature="0" />
    </marker>
    <marker
       inkscape:stockid="Arrow1Mend"
       orient="auto"
       refY="0"
       refX="0"
       id="Arrow1Mend"
       style="overflow:visible"
       inkscape:isstock="true">
      <path
         id="path5077"
         d="M 0,0 5,-5 -12.5,0 5,5 Z"
         style="fill:#000000;fill-opacity:1;fill-rule:evenodd;stroke:#000000;stroke-width:1pt;stroke-opacity:1"
         transform="matrix(-0.4,0,0,-0.4,-4,0)"
         inkscape:connector-curvature="0" />
    </marker>
    <filter
       inkscape:label="Linen Canvas"
       inkscape:menu="Bumps"
       inkscape:menu-tooltip="Painting canvas emboss effect"
       style="color-interpolation-filters:sRGB"
       id="filter5738">
      <feTurbulence
         numOctaves="5"
         baseFrequency="0.4"
         id="feTurbulence5740" />
      <feConvolveMatrix
         order="5 5"
         kernelMatrix="-4 0 0 0 -4 0 -2 0 -2 0 0 0 -10 0 0 0 -2 0 -2 0 -4 0 0 0 -4 "
         targetX="2"
         targetY="2"
         id="feConvolveMatrix5742" />
      <feConvolveMatrix
         order="3 3"
         kernelMatrix="2 0 2 0 -5 0 2 0 2 "
         targetX="1"
         targetY="1"
         id="feConvolveMatrix5744" />
      <feColorMatrix
         type="saturate"
         result="result1"
         id="feColorMatrix5746" />
      <feComposite
         k4="0"
         in2="SourceGraphic"
         operator="arithmetic"
         k1="1.5"
         k2="0.5"
         k3="0.5"
         result="result2"
         id="feComposite5748" />
      <feBlend
         mode="normal"
         in2="result1"
         result="result4"
         id="feBlend5750" />
      <feColorMatrix
         type="luminanceToAlpha"
         id="feColorMatrix5752" />
      <feDiffuseLighting
         surfaceScale="10"
         diffuseConstant="1"
         result="result3"
         id="feDiffuseLighting5754">
        <feDistantLight
           azimuth="180"
           elevation="35"
           id="feDistantLight5756" />
      </feDiffuseLighting>
      <feComposite
         k4="0"
         k2="0"
         in2="result4"
         operator="arithmetic"
         k1="1.5"
         k3="0.5"
         result="result5"
         id="feComposite5758" />
      <feBlend
         mode="normal"
         in2="result3"
         result="result6"
         id="feBlend5760" />
      <feComposite
         in2="SourceGraphic"
         operator="in"
         id="feComposite5762" />
    </filter>
    <filter
       inkscape:label="Linen Canvas"
       inkscape:menu="Bumps"
       inkscape:menu-tooltip="Painting canvas emboss effect"
       style="color-interpolation-filters:sRGB"
       id="filter5738-7">
      <feTurbulence
         numOctaves="5"
         baseFrequency="0.4"
         id="feTurbulence5740-2" />
      <feConvolveMatrix
         order="5 5"
         kernelMatrix="-4 0 0 0 -4 0 -2 0 -2 0 0 0 -10 0 0 0 -2 0 -2 0 -4 0 0 0 -4 "
         targetX="2"
         targetY="2"
         id="feConvolveMatrix5742-7" />
      <feConvolveMatrix
         order="3 3"
         kernelMatrix="2 0 2 0 -5 0 2 0 2 "
         targetX="1"
         targetY="1"
         id="feConvolveMatrix5744-6" />
      <feColorMatrix
         type="saturate"
         result="result1"
         id="feColorMatrix5746-7" />
      <feComposite
         k4="0"
         in2="SourceGraphic"
         operator="arithmetic"
         k1="1.5"
         k2="0.5"
         k3="0.5"
         result="result2"
         id="feComposite5748-0" />
      <feBlend
         mode="normal"
         in2="result1"
         result="result4"
         id="feBlend5750-0" />
      <feColorMatrix
         type="luminanceToAlpha"
         id="feColorMatrix5752-6" />
      <feDiffuseLighting
         surfaceScale="10"
         diffuseConstant="1"
         result="result3"
         id="feDiffuseLighting5754-4">
        <feDistantLight
           azimuth="180"
           elevation="35"
           id="feDistantLight5756-8" />
      </feDiffuseLighting>
      <feComposite
         k4="0"
         k2="0"
         in2="result4"
         operator="arithmetic"
         k1="1.5"
         k3="0.5"
         result="result5"
         id="feComposite5758-6" />
      <feBlend
         mode="normal"
         in2="result3"
         result="result6"
         id="feBlend5760-9" />
      <feComposite
         in2="SourceGraphic"
         operator="in"
         id="feComposite5762-2" />
    </filter>
    <marker
       inkscape:isstock="true"
       style="overflow:visible"
       id="marker15102-9"
       refX="0"
       refY="0"
       orient="auto"
       inkscape:stockid="Arrow2Lend">
      <path
         transform="matrix(-1.1,0,0,-1.1,-1.1,0)"
         d="M 8.7185878,4.0337352 -2.2072895,0.01601326 8.7185884,-4.0017078 c -1.7454984,2.3720609 -1.7354408,5.6174519 -6e-7,8.035443 z"
         style="fill:#000000;fill-opacity:1;fill-rule:evenodd;stroke:#000000;stroke-width:0.625;stroke-linejoin:round;stroke-opacity:1"
         id="path15104-2"
         inkscape:connector-curvature="0" />
    </marker>
    <symbol
       id="DownArrow">
      <title
         id="title5233">Down Arrow</title>
      <path
         d="M 0.375,0.65625 0.14583333,0.42708333 v -0.15625 L 0.3125,0.4375 V 0.10416667 h 0.125 V 0.4375 L 0.60416667,0.27083333 v 0.15625 z"
         style="stroke:none;stroke-width:1"
         id="path5235" />
    </symbol>
  </defs>
  <sodipodi:namedview
     inkscape:snap-nodes="false"
     inkscape:snap-to-guides="false"
     inkscape:snap-grids="false"
     inkscape:snap-object-midpoints="true"
     inkscape:snap-center="false"
     inkscape:guide-bbox="true"
     showguides="false"
     id="base"
     pagecolor="#ffffff"
     bordercolor="#666666"
     borderopacity="1.0"
     inkscape:pageopacity="0.0"
     inkscape:pageshadow="2"
     inkscape:zoom="5.6568545"
     inkscape:cx="141.71823"
     inkscape:cy="103.93092"
     inkscape:document-units="in"
     inkscape:current-layer="layer2"
     inkscape:document-rotation="0"
     showgrid="false"
     units="px"
     inkscape:snap-global="true"
     inkscape:snap-page="false">
    <sodipodi:guide
       id="guide11773"
       orientation="0,-1"
       position="44.654141,203.66302" />
    <sodipodi:guide
       id="guide11775"
       orientation="1,0"
       position="0.12963972,197.33776" />
    <sodipodi:guide
       id="guide11777"
       orientation="0,-1"
       position="288.59995,197.31302" />
  </sodipodi:namedview>
  <metadata
     id="metadata5">
    <rdf:RDF>
      <cc:Work
         rdf:about="">
        <dc:format>image/svg+xml</dc:format>
        <dc:type
           rdf:resource="http://purl.org/dc/dcmitype/StillImage" />
        <dc:title />
      </cc:Work>
    </rdf:RDF>
  </metadata>
  <g
     inkscape:groupmode="layer"
     id="layer2"
     inkscape:label="3p"
     style="display:inline"
     transform="translate(-6.278147,-151.10898)">
    <path
       id="path6383"
       style="font-style:normal;font-variant:normal;font-weight:normal;font-stretch:normal;font-size:14.3323px;line-height:125%;font-family:'Archivo Narrow';-inkscape-font-specification:'Archivo Narrow, Normal';font-variation-settings:normal;text-align:start;letter-spacing:0px;word-spacing:0px;writing-mode:lr-tb;text-anchor:start;display:inline;vector-effect:none;fill:#000000;fill-opacity:1;stroke:none;stroke-width:0.264583;stroke-linecap:butt;stroke-linejoin:miter;stroke-miterlimit:4;stroke-dasharray:none;stroke-dashoffset:0;stroke-opacity:1;stop-color:#000000"
       d="m 8.8226662,166.62434 c -0.534597,0 -0.914983,0.38038 -0.914983,0.96638 v 0.0925 h 0.4317885 v -0.0463 c 0,-0.43693 0.2056134,-0.6374 0.4883341,-0.6374 0.2570194,0 0.4831945,0.17992 0.4831945,0.61684 0,0.41637 -0.2364577,0.61685 -0.5088958,0.61685 H 8.4988222 v 0.37524 h 0.2929997 c 0.2981428,0 0.5808599,0.12851 0.5808599,0.62713 0,0.46263 -0.2313146,0.6631 -0.5654377,0.6631 -0.3444022,0 -0.5294575,-0.23132 -0.5294575,-0.66825 v -0.0565 H 7.8459981 v 0.0411 c 0,0.64255 0.3495453,1.05892 0.9920867,1.05892 0.5654414,0 0.9663891,-0.38039 0.9663891,-1.00751 0,-0.46778 -0.2210355,-0.7505 -0.5191748,-0.86358 v -0.0205 c 0.2621554,-0.14907 0.4574897,-0.37525 0.4574897,-0.79162 0,-0.62712 -0.370107,-0.96638 -0.9201226,-0.96638 z" />
    <path
       id="path6385"
       style="font-style:normal;font-variant:normal;font-weight:normal;font-stretch:normal;font-size:14.3323px;line-height:125%;font-family:'Archivo Narrow';-inkscape-font-specification:'Archivo Narrow, Normal';font-variation-settings:normal;text-align:start;letter-spacing:0px;word-spacing:0px;writing-mode:lr-tb;text-anchor:start;display:inline;vector-effect:none;fill:#000000;fill-opacity:1;stroke:none;stroke-width:0.264583;stroke-linecap:butt;stroke-linejoin:miter;stroke-miterlimit:4;stroke-dasharray:none;stroke-dashoffset:0;stroke-opacity:1;stop-color:#000000"
       d="m 12.480508,167.44679 c -0.246737,0 -0.46263,0.12851 -0.591139,0.37525 h -0.02572 l -0.05655,-0.31356 h -0.318701 v 3.5931 h 0.42151 v -1.12573 h 0.02571 c 0.09253,0.18505 0.313562,0.29814 0.575721,0.29814 0.447211,0 0.807035,-0.42665 0.807035,-1.40846 0,-0.99209 -0.323844,-1.41874 -0.837879,-1.41874 z m -0.08739,0.37525 c 0.323844,0 0.483195,0.2673 0.483195,0.94068 v 0.19534 c 0,0.67338 -0.159351,0.94068 -0.483195,0.94068 -0.32384,0 -0.483191,-0.3187 -0.483191,-0.94068 v -0.19534 c 0,-0.62198 0.159351,-0.94068 0.483191,-0.94068 z" />
    <path
       id="path6387"
       style="font-style:normal;font-variant:normal;font-weight:normal;font-stretch:normal;font-size:14.3323px;line-height:125%;font-family:'Archivo Narrow';-inkscape-font-specification:'Archivo Narrow, Normal';font-variation-settings:normal;text-align:start;letter-spacing:0px;word-spacing:0px;writing-mode:lr-tb;text-anchor:start;display:inline;vector-effect:none;fill:#000000;fill-opacity:1;stroke:none;stroke-width:0.264583;stroke-linecap:butt;stroke-linejoin:miter;stroke-miterlimit:4;stroke-dasharray:none;stroke-dashoffset:0;stroke-opacity:1;stop-color:#000000"
       d="m 14.197788,166.49583 h -0.42151 v 3.71647 h 0.42151 z" />
    <path
       id="path6389"
       style="font-style:normal;font-variant:normal;font-weight:normal;font-stretch:normal;font-size:14.3323px;line-height:125%;font-family:'Archivo Narrow';-inkscape-font-specification:'Archivo Narrow, Normal';font-variation-settings:normal;text-align:start;letter-spacing:0px;word-spacing:0px;writing-mode:lr-tb;text-anchor:start;display:inline;vector-effect:none;fill:#000000;fill-opacity:1;stroke:none;stroke-width:0.264583;stroke-linecap:butt;stroke-linejoin:miter;stroke-miterlimit:4;stroke-dasharray:none;stroke-dashoffset:0;stroke-opacity:1;stop-color:#000000"
       d="m 15.599258,167.44679 c -0.508896,0 -0.86872,0.25702 -0.86872,0.75049 0,0.0463 0,0.0822 0.0051,0.11309 h 0.416367 v -0.0617 c 0,-0.20562 0.09767,-0.42665 0.41637,-0.42665 0.344402,0 0.426649,0.17991 0.426649,0.43693 v 0.34954 c -0.786474,0 -1.367334,0.15935 -1.367334,0.9047 0,0.65283 0.442072,0.76078 0.70937,0.76078 0.282717,0 0.519175,-0.13365 0.657964,-0.35469 h 0.02571 c 0.05141,0.20048 0.205617,0.33412 0.426653,0.33412 0.133649,0 0.231315,-0.036 0.277577,-0.0617 v -0.293 h -0.16449 c -0.07196,0 -0.143928,-0.0514 -0.143928,-0.17991 v -1.51641 c 0,-0.47805 -0.272441,-0.75563 -0.817321,-0.75563 z m 0.395804,1.7837 c 0,0.44721 -0.292999,0.66825 -0.560298,0.66825 -0.236454,0 -0.364964,-0.10281 -0.364964,-0.41123 0,-0.42151 0.375247,-0.50375 0.925262,-0.50375 z" />
    <path
       id="path6391"
       style="font-style:normal;font-variant:normal;font-weight:normal;font-stretch:normal;font-size:14.3323px;line-height:125%;font-family:'Archivo Narrow';-inkscape-font-specification:'Archivo Narrow, Normal';font-variation-settings:normal;text-align:start;letter-spacing:0px;word-spacing:0px;writing-mode:lr-tb;text-anchor:start;display:inline;vector-effect:none;fill:#000000;fill-opacity:1;stroke:none;stroke-width:0.264583;stroke-linecap:butt;stroke-linejoin:miter;stroke-miterlimit:4;stroke-dasharray:none;stroke-dashoffset:0;stroke-opacity:1;stop-color:#000000"
       d="m 18.853505,167.22785 h -0.426649 l -0.503757,2.09726 h -0.02055 l -0.596282,-2.09726 h -0.462629 l 0.827597,2.70382 c -0.09767,0.46263 -0.308422,0.60142 -0.534597,0.60142 h -0.149072 v 0.293 c 0.08739,0.0309 0.185052,0.0411 0.303283,0.0411 0.472912,0 0.714509,-0.4832 0.873859,-1.07434 z" />
    <path
       id="path6393"
       style="font-style:normal;font-variant:normal;font-weight:normal;font-stretch:normal;font-size:14.3323px;line-height:125%;font-family:'Archivo Narrow';-inkscape-font-specification:'Archivo Narrow, Normal';font-variation-settings:normal;text-align:start;letter-spacing:0px;word-spacing:0px;writing-mode:lr-tb;text-anchor:start;display:inline;vector-effect:none;fill:#000000;fill-opacity:1;stroke:none;stroke-width:0.264583;stroke-linecap:butt;stroke-linejoin:miter;stroke-miterlimit:4;stroke-dasharray:none;stroke-dashoffset:0;stroke-opacity:1;stop-color:#000000"
       d="m 20.134255,167.44679 c -0.678529,0 -1.017792,0.44207 -1.017792,1.4136 0,1.00237 0.349546,1.4136 1.022931,1.4136 0.524315,0 0.884143,-0.37525 0.884143,-0.98181 h -0.41637 c 0,0.37524 -0.190195,0.60656 -0.457494,0.60656 -0.400944,0 -0.585999,-0.28272 -0.591139,-0.91498 h 1.465003 v -0.2673 c 0,-0.9047 -0.298143,-1.26967 -0.889282,-1.26967 z m 0,0.37525 c 0.293,0 0.447211,0.27243 0.447211,0.78647 h -1.017792 c 0.03598,-0.51917 0.195334,-0.78647 0.570581,-0.78647 z" />
    <path
       id="path6395"
       style="font-style:normal;font-variant:normal;font-weight:normal;font-stretch:normal;font-size:14.3323px;line-height:125%;font-family:'Archivo Narrow';-inkscape-font-specification:'Archivo Narrow, Normal';font-variation-settings:normal;text-align:start;letter-spacing:0px;word-spacing:0px;writing-mode:lr-tb;text-anchor:start;display:inline;vector-effect:none;fill:#000000;fill-opacity:1;stroke:none;stroke-width:0.264583;stroke-linecap:butt;stroke-linejoin:miter;stroke-miterlimit:4;stroke-dasharray:none;stroke-dashoffset:0;stroke-opacity:1;stop-color:#000000"
       d="m 22.411833,167.44679 c -0.257019,0 -0.390668,0.21076 -0.457493,0.41637 H 21.9235 l -0.05655,-0.35468 h -0.318701 v 2.70382 h 0.42151 v -1.65005 c 0,-0.47805 0.236454,-0.63741 0.503752,-0.63741 h 0.138793 v -0.43693 c 0,0 -0.08739,-0.0411 -0.200474,-0.0411 z" />
    <path
       id="path6397"
       style="font-style:normal;font-variant:normal;font-weight:normal;font-stretch:normal;font-size:14.3323px;line-height:125%;font-family:'Archivo Narrow';-inkscape-font-specification:'Archivo Narrow, Normal';font-variation-settings:normal;text-align:start;letter-spacing:0px;word-spacing:0px;writing-mode:lr-tb;text-anchor:start;display:inline;vector-effect:none;fill:#000000;fill-opacity:1;stroke:none;stroke-width:0.264583;stroke-linecap:butt;stroke-linejoin:miter;stroke-miterlimit:4;stroke-dasharray:none;stroke-dashoffset:0;stroke-opacity:1;stop-color:#000000"
       d="m 23.71973,167.44679 c -0.514035,0 -0.843015,0.293 -0.843015,0.77105 0,0.97153 1.233684,0.60657 1.233684,1.28509 0,0.26216 -0.185052,0.40095 -0.406087,0.40095 -0.246737,0 -0.442071,-0.14393 -0.442071,-0.48319 v -0.0514 h -0.442072 c 0,0.0103 -0.0051,0.0411 -0.0051,0.11308 0,0.40095 0.246736,0.79162 0.86872,0.79162 0.498613,0 0.863577,-0.25188 0.863577,-0.83274 0,-1.00751 -1.233684,-0.66311 -1.233684,-1.25425 0,-0.14907 0.06682,-0.3701 0.364964,-0.3701 0.28786,0 0.375246,0.21075 0.375246,0.42151 v 0.0463 h 0.436932 c 0,-0.0103 0.0051,-0.0617 0.0051,-0.0977 0,-0.40094 -0.272438,-0.74021 -0.776195,-0.74021 z" />
    <path
       id="path2228-5"
       d="m 20.782269,158.85769 c -0.494424,0 -0.850027,0.26171 -1.055389,0.59042 -0.183674,0.29392 -0.26009,0.63489 -0.275002,0.93353 -0.560496,0.27722 -1.181414,0.55673 -1.681322,0.8425 -0.262238,0.14993 -0.49087,0.30069 -0.662952,0.46272 -0.172101,0.16202 -0.299087,0.34447 -0.299087,0.55969 0,0.0916 0.04473,0.16623 0.09504,0.22099 0.05049,0.055 0.110871,0.0974 0.179679,0.13708 0.13763,0.0794 0.311133,0.14558 0.501988,0.20287 0.283528,0.0851 0.601049,0.14839 0.877141,0.17541 -0.274604,0.47339 -0.640059,0.90811 -0.960421,1.32467 -0.370214,0.48149 -0.693424,0.94316 -0.693424,1.45613 0,0.0733 -0.0014,0.13047 0.0059,0.18795 0.0064,0.0575 0.02303,0.12916 0.08076,0.18599 0.05778,0.0569 0.128502,0.0722 0.18611,0.0784 0.05759,0.006 0.115637,0.006 0.190076,0.006 h 2.042584 c 0.148275,0 0.256837,0.009 0.368536,-0.0627 0.1117,-0.0718 0.152429,-0.16991 0.232011,-0.31647 h 0.0014 l 0.0014,-0.006 c 0,0 0.178043,-0.36212 0.390486,-0.72152 0.106197,-0.1796 0.221509,-0.35858 0.321817,-0.48535 0.05022,-0.0634 0.09712,-0.11366 0.130931,-0.14206 0.01033,-0.008 0.01506,-0.0103 0.02163,-0.0142 0.0067,0.006 0.01133,0.006 0.02163,0.0142 0.03379,0.0284 0.08075,0.0786 0.130927,0.14206 0.100308,0.12679 0.215605,0.30575 0.321821,0.48535 0.212424,0.3594 0.390482,0.72152 0.390482,0.72152 l 0.0014,0.006 h 0.0014 c 0.0796,0.14656 0.119953,0.24407 0.230924,0.31607 0.110925,0.072 0.21926,0.0634 0.365459,0.0634 h 2.051561 c 0.07325,0 0.130382,0 0.187584,-0.006 0.0572,-0.006 0.128162,-0.022 0.185324,-0.0794 0.05714,-0.0575 0.07296,-0.12814 0.07929,-0.18536 0.0065,-0.0569 0.0059,-0.11438 0.0059,-0.18768 0,-0.51291 -0.323209,-0.97461 -0.693438,-1.45607 -0.320333,-0.41655 -0.685792,-0.85129 -0.960421,-1.32467 0.276093,-0.0272 0.593632,-0.0903 0.877159,-0.17542 0.190851,-0.0575 0.364351,-0.12348 0.50197,-0.20287 0.06882,-0.0394 0.129249,-0.0822 0.179651,-0.137 0.05041,-0.055 0.09508,-0.12944 0.09508,-0.22105 0,-0.21522 -0.126985,-0.39768 -0.299068,-0.55971 -0.172101,-0.16201 -0.400732,-0.31279 -0.66297,-0.46271 -0.499923,-0.28578 -1.12083,-0.56527 -1.681336,-0.84251 -0.01492,-0.29864 -0.09133,-0.63961 -0.274988,-0.93351 -0.205366,-0.3287 -0.560951,-0.59042 -1.055386,-0.59042 z"
       inkscape:connector-curvature="0"
       style="font-variation-settings:normal;display:inline;vector-effect:none;fill:#000000;fill-opacity:1;stroke:none;stroke-width:0.264583;stroke-linecap:butt;stroke-linejoin:miter;stroke-miterlimit:4;stroke-dasharray:none;stroke-dashoffset:0;stroke-opacity:1;stop-color:#000000" />
    <path
       style="font-variation-settings:normal;display:inline;vector-effect:none;fill:#000000;fill-opacity:1;stroke:none;stroke-width:0.264583;stroke-linecap:butt;stroke-linejoin:miter;stroke-miterlimit:4;stroke-dasharray:none;stroke-dashoffset:0;stroke-opacity:1;stop-color:#000000"
       inkscape:connector-curvature="0"
       d="m 11.826615,158.85769 c -0.494424,0 -0.850024,0.26171 -1.05539,0.59042 -0.183674,0.29392 -0.260089,0.63489 -0.274988,0.93353 -0.560506,0.27722 -1.1814134,0.55673 -1.6813356,0.8425 -0.2622236,0.14993 -0.4908555,0.30069 -0.6629525,0.46272 -0.1720971,0.16202 -0.2990862,0.34447 -0.2990862,0.55969 0,0.0916 0.044728,0.16623 0.095054,0.22099 0.05047,0.055 0.1108532,0.0974 0.1796791,0.13708 0.1376124,0.0794 0.3111154,0.14558 0.5019701,0.20287 0.2835277,0.0851 0.601063,0.14839 0.8771557,0.17541 -0.274615,0.47339 -0.6400739,0.90811 -0.9604211,1.32467 -0.370211,0.48149 -0.6934382,0.94316 -0.6934382,1.45613 0,0.0733 -0.00143,0.13047 0.00588,0.18795 0.00646,0.0575 0.023026,0.12916 0.080744,0.18599 0.057776,0.0569 0.1285026,0.0722 0.1861098,0.0784 0.057589,0.006 0.1156376,0.006 0.1900944,0.006 h 2.0425665 c 0.148275,0 0.256837,0.009 0.368536,-0.0627 0.1117,-0.0718 0.152429,-0.16991 0.232011,-0.31647 h 0.0014 l 0.0014,-0.006 c 0,0 0.178047,-0.36212 0.390489,-0.72152 0.106212,-0.1796 0.221509,-0.35858 0.321821,-0.48535 0.05021,-0.0634 0.09713,-0.11366 0.130924,-0.14206 0.01033,-0.008 0.01506,-0.0103 0.02166,-0.0142 0.0066,0.006 0.01133,0.006 0.02163,0.0142 0.03382,0.0284 0.08076,0.0786 0.130927,0.14206 0.100312,0.12679 0.215609,0.30575 0.321821,0.48535 0.212428,0.3594 0.390486,0.72152 0.390486,0.72152 l 0.0014,0.006 h 0.0014 c 0.0796,0.14656 0.119952,0.24407 0.23092,0.31607 0.110943,0.072 0.219275,0.0634 0.365459,0.0634 h 2.051579 c 0.07323,0 0.130367,0 0.187569,-0.006 0.05721,-0.006 0.128162,-0.022 0.185339,-0.0794 0.05713,-0.0575 0.07295,-0.12814 0.07928,-0.18536 0.0064,-0.0569 0.0059,-0.11438 0.0059,-0.18768 0,-0.51291 -0.32321,-0.97461 -0.693428,-1.45607 -0.320329,-0.41655 -0.685788,-0.85129 -0.960417,-1.32467 0.276092,-0.0272 0.593613,-0.0903 0.877155,-0.17542 0.190852,-0.0575 0.364355,-0.12348 0.501971,-0.20287 0.06882,-0.0394 0.129252,-0.0822 0.179636,-0.137 0.05041,-0.055 0.09508,-0.12944 0.09508,-0.22105 0,-0.21522 -0.126989,-0.39768 -0.299072,-0.55971 -0.172101,-0.16201 -0.400729,-0.31279 -0.662956,-0.46271 -0.499919,-0.28578 -1.120841,-0.56527 -1.681347,-0.84251 -0.01488,-0.29864 -0.09133,-0.63961 -0.274973,-0.93351 -0.205381,-0.3287 -0.560966,-0.59042 -1.055404,-0.59042 z"
       id="path2230-9" />
    <path
       id="path1390"
       d="m 16.304517,151.38961 c -0.49442,0 -0.850023,0.26171 -1.055385,0.59042 -0.183675,0.29391 -0.26009,0.63489 -0.274992,0.93353 -0.560506,0.27722 -1.18141,0.55673 -1.681332,0.8425 -0.262224,0.14992 -0.490856,0.30069 -0.662953,0.46272 -0.172101,0.16201 -0.299086,0.34447 -0.299086,0.55969 0,0.0916 0.04472,0.16622 0.09505,0.22099 0.05047,0.055 0.110854,0.0974 0.179676,0.13707 0.137616,0.0794 0.311119,0.14559 0.50197,0.20288 0.283528,0.0851 0.601067,0.14839 0.877159,0.1754 -0.274618,0.4734 -0.640077,0.90812 -0.960421,1.32468 -0.370214,0.48149 -0.693438,0.94315 -0.693438,1.45613 0,0.0733 -0.0014,0.13046 0.0059,0.18794 0.0065,0.0575 0.02299,0.12916 0.08074,0.186 0.05777,0.0569 0.128503,0.0722 0.186106,0.0784 0.05759,0.006 0.115641,0.006 0.190095,0.006 h 2.042566 c 0.148275,0 0.25684,0.009 0.368539,-0.0627 0.1117,-0.0718 0.152429,-0.16991 0.232011,-0.31648 h 0.0014 l 0.0014,-0.006 c 0,0 0.178047,-0.36212 0.390486,-0.72151 0.106212,-0.17961 0.221512,-0.35858 0.321825,-0.48535 0.05021,-0.0634 0.09713,-0.11366 0.130923,-0.14206 0.01033,-0.008 0.01506,-0.0103 0.02163,-0.0142 0.0066,0.006 0.01133,0.006 0.02163,0.0142 0.03382,0.0284 0.08076,0.0786 0.130927,0.14206 0.100312,0.12679 0.215606,0.30574 0.321821,0.48535 0.212428,0.35939 0.390486,0.72151 0.390486,0.72151 l 0.0014,0.006 h 0.0014 c 0.0796,0.14657 0.119949,0.24407 0.23092,0.31608 0.110943,0.072 0.219275,0.0634 0.365459,0.0634 h 2.051579 c 0.07323,0 0.130368,0 0.18757,-0.006 0.0572,-0.006 0.128162,-0.022 0.185338,-0.0794 0.05713,-0.0575 0.07295,-0.12815 0.07928,-0.18536 0.0064,-0.0569 0.0059,-0.11438 0.0059,-0.18769 0,-0.5129 -0.323209,-0.9746 -0.693424,-1.45607 -0.320333,-0.41654 -0.685791,-0.85128 -0.960421,-1.32466 0.276093,-0.0272 0.593614,-0.0903 0.877156,-0.17542 0.190851,-0.0575 0.364354,-0.12348 0.50197,-0.20288 0.06883,-0.0394 0.129252,-0.0822 0.179636,-0.137 0.05041,-0.055 0.09508,-0.12943 0.09508,-0.22105 0,-0.21522 -0.126989,-0.39767 -0.299072,-0.5597 -0.172032,-0.16201 -0.400664,-0.3128 -0.662888,-0.46272 -0.499922,-0.28577 -1.120844,-0.56526 -1.68135,-0.8425 -0.01488,-0.29864 -0.09133,-0.63961 -0.274974,-0.93351 -0.20538,-0.3287 -0.560965,-0.59043 -1.0554,-0.59043 z"
       inkscape:connector-curvature="0"
       style="font-variation-settings:normal;display:inline;vector-effect:none;fill:#000000;fill-opacity:1;stroke:none;stroke-width:0.264583;stroke-linecap:butt;stroke-linejoin:miter;stroke-miterlimit:4;stroke-dasharray:none;stroke-dashoffset:0;stroke-opacity:1;stop-color:#000000" />
    <rect
       style="font-variation-settings:normal;opacity:0.75;vector-effect:none;fill:#f9f6f1;fill-opacity:1;stroke:#080808;stroke-width:1.05833;stroke-linecap:round;stroke-linejoin:miter;stroke-miterlimit:4;stroke-dasharray:none;stroke-dashoffset:0;stroke-opacity:1;paint-order:markers fill stroke;stop-color:#000000"
       id="rect12213"
       width="12.7"
       height="12.7"
       x="57.695431"
       y="196.78384" />
    <rect
       y="196.78384"
       x="70.395432"
       height="12.7"
       width="12.7"
       id="rect12215"
       style="font-variation-settings:normal;opacity:0.75;vector-effect:none;fill:#f9f6f1;fill-opacity:1;stroke:#080808;stroke-width:1.05833;stroke-linecap:round;stroke-linejoin:miter;stroke-miterlimit:4;stroke-dasharray:none;stroke-dashoffset:0;stroke-opacity:1;paint-order:markers fill stroke;stop-color:#000000" />
    <rect
       y="196.78384"
       x="83.095428"
       height="12.7"
       width="12.7"
       id="rect12427"
       style="font-variation-settings:normal;opacity:0.75;vector-effect:none;fill:#f9f6f1;fill-opacity:1;stroke:#080808;stroke-width:1.05833;stroke-linecap:round;stroke-linejoin:miter;stroke-miterlimit:4;stroke-dasharray:none;stroke-dashoffset:0;stroke-opacity:1;paint-order:markers fill stroke;stop-color:#000000" />
    <rect
       style="font-variation-settings:normal;opacity:0.75;vector-effect:none;fill:#f9f6f1;fill-opacity:1;stroke:#080808;stroke-width:1.05833;stroke-linecap:round;stroke-linejoin:miter;stroke-miterlimit:4;stroke-dasharray:none;stroke-dashoffset:0;stroke-opacity:1;paint-order:markers fill stroke;stop-color:#000000"
       id="rect12429"
       width="12.7"
       height="12.7"
       x="95.795425"
       y="196.78384" />
    <rect
       style="font-variation-settings:normal;opacity:0.75;vector-effect:none;fill:#f9f6f1;fill-opacity:1;stroke:#080808;stroke-width:1.05833;stroke-linecap:round;stroke-linejoin:miter;stroke-miterlimit:4;stroke-dasharray:none;stroke-dashoffset:0;stroke-opacity:1;paint-order:markers fill stroke;stop-color:#000000"
       id="rect12431"
       width="12.7"
       height="12.7"
       x="108.49542"
       y="196.78384" />
    <rect
       y="196.78384"
       x="121.19542"
       height="12.7"
       width="12.7"
       id="rect12433"
       style="font-variation-settings:normal;opacity:0.75;vector-effect:none;fill:#f9f6f1;fill-opacity:1;stroke:#080808;stroke-width:1.05833;stroke-linecap:round;stroke-linejoin:miter;stroke-miterlimit:4;stroke-dasharray:none;stroke-dashoffset:0;stroke-opacity:1;paint-order:markers fill stroke;stop-color:#000000" />
    <rect
       y="196.78384"
       x="133.89542"
       height="12.7"
       width="12.7"
       id="rect12435"
       style="font-variation-settings:normal;opacity:0.75;vector-effect:none;fill:#f9f6f1;fill-opacity:1;stroke:#080808;stroke-width:1.05833;stroke-linecap:round;stroke-linejoin:miter;stroke-miterlimit:4;stroke-dasharray:none;stroke-dashoffset:0;stroke-opacity:1;paint-order:markers fill stroke;stop-color:#000000" />
    <rect
       style="font-variation-settings:normal;opacity:0.75;vector-effect:none;fill:#f9f6f1;fill-opacity:1;stroke:#080808;stroke-width:1.05833;stroke-linecap:round;stroke-linejoin:miter;stroke-miterlimit:4;stroke-dasharray:none;stroke-dashoffset:0;stroke-opacity:1;paint-order:markers fill stroke;stop-color:#000000"
       id="rect12437"
       width="12.7"
       height="12.7"
       x="146.59541"
       y="196.78384" />
    <rect
       style="font-variation-settings:normal;opacity:0.75;vector-effect:none;fill:#f9f6f1;fill-opacity:1;stroke:#080808;stroke-width:1.05833;stroke-linecap:round;stroke-linejoin:miter;stroke-miterlimit:4;stroke-dasharray:none;stroke-dashoffset:0;stroke-opacity:1;paint-order:markers fill stroke;stop-color:#000000"
       id="rect12439"
       width="12.7"
       height="12.7"
       x="159.29541"
       y="196.78384" />
    <rect
       y="196.78384"
       x="171.99541"
       height="12.7"
       width="12.7"
       id="rect12441"
       style="font-variation-settings:normal;opacity:0.75;vector-effect:none;fill:#f9f6f1;fill-opacity:1;stroke:#080808;stroke-width:1.05833;stroke-linecap:round;stroke-linejoin:miter;stroke-miterlimit:4;stroke-dasharray:none;stroke-dashoffset:0;stroke-opacity:1;paint-order:markers fill stroke;stop-color:#000000" />
    <rect
       y="196.78384"
       x="184.6954"
       height="12.7"
       width="12.7"
       id="rect12443"
       style="font-variation-settings:normal;opacity:0.75;vector-effect:none;fill:#f9f6f1;fill-opacity:1;stroke:#080808;stroke-width:1.05833;stroke-linecap:round;stroke-linejoin:miter;stroke-miterlimit:4;stroke-dasharray:none;stroke-dashoffset:0;stroke-opacity:1;paint-order:markers fill stroke;stop-color:#000000" />
    <rect
       style="font-variation-settings:normal;opacity:0.75;vector-effect:none;fill:#f9f6f1;fill-opacity:1;stroke:#080808;stroke-width:1.05833;stroke-linecap:round;stroke-linejoin:miter;stroke-miterlimit:4;stroke-dasharray:none;stroke-dashoffset:0;stroke-opacity:1;paint-order:markers fill stroke;stop-color:#000000"
       id="rect12445"
       width="12.7"
       height="12.7"
       x="197.3954"
       y="196.78384" />
    <rect
       style="font-variation-settings:normal;opacity:0.75;vector-effect:none;fill:#f9f6f1;fill-opacity:1;stroke:#080808;stroke-width:1.05833;stroke-linecap:round;stroke-linejoin:miter;stroke-miterlimit:4;stroke-dasharray:none;stroke-dashoffset:0;stroke-opacity:1;paint-order:markers fill stroke;stop-color:#000000"
       id="rect12447"
       width="12.7"
       height="12.7"
       x="210.0954"
       y="196.78384" />
    <rect
       y="196.78384"
       x="222.79539"
       height="12.7"
       width="12.7"
       id="rect12449"
       style="font-variation-settings:normal;opacity:0.75;vector-effect:none;fill:#f9f6f1;fill-opacity:1;stroke:#080808;stroke-width:1.05833;stroke-linecap:round;stroke-linejoin:miter;stroke-miterlimit:4;stroke-dasharray:none;stroke-dashoffset:0;stroke-opacity:1;paint-order:markers fill stroke;stop-color:#000000" />
    <rect
       y="196.78384"
       x="235.49539"
       height="12.7"
       width="12.7"
       id="rect12451"
       style="font-variation-settings:normal;opacity:0.75;vector-effect:none;fill:#f9f6f1;fill-opacity:1;stroke:#080808;stroke-width:1.05833;stroke-linecap:round;stroke-linejoin:miter;stroke-miterlimit:4;stroke-dasharray:none;stroke-dashoffset:0;stroke-opacity:1;paint-order:markers fill stroke;stop-color:#000000" />
    <rect
       style="font-variation-settings:normal;opacity:0.75;vector-effect:none;fill:#f9f6f1;fill-opacity:1;stroke:#080808;stroke-width:1.05833;stroke-linecap:round;stroke-linejoin:miter;stroke-miterlimit:4;stroke-dasharray:none;stroke-dashoffset:0;stroke-opacity:1;paint-order:markers fill stroke;stop-color:#000000"
       id="rect12453"
       width="12.7"
       height="12.7"
       x="248.19539"
       y="196.78384" />
    <rect
       style="font-variation-settings:normal;opacity:0.75;vector-effect:none;fill:#f9f6f1;fill-opacity:1;stroke:#080808;stroke-width:1.05833;stroke-linecap:round;stroke-linejoin:miter;stroke-miterlimit:4;stroke-dasharray:none;stroke-dashoffset:0;stroke-opacity:1;paint-order:markers fill stroke;stop-color:#000000"
       id="rect12455"
       width="12.7"
       height="12.7"
       x="260.89539"
       y="196.78384" />
    <rect
       y="184.08385"
       x="260.89539"
       height="12.7"
       width="12.7"
       id="rect12457"
       style="font-variation-settings:normal;opacity:0.75;vector-effect:none;fill:#f9f6f1;fill-opacity:1;stroke:#080808;stroke-width:1.05833;stroke-linecap:round;stroke-linejoin:miter;stroke-miterlimit:4;stroke-dasharray:none;stroke-dashoffset:0;stroke-opacity:1;paint-order:markers fill stroke;stop-color:#000000" />
    <rect
       style="font-variation-settings:normal;opacity:0.75;vector-effect:none;fill:#f9f6f1;fill-opacity:1;stroke:#080808;stroke-width:1.05833;stroke-linecap:round;stroke-linejoin:miter;stroke-miterlimit:4;stroke-dasharray:none;stroke-dashoffset:0;stroke-opacity:1;paint-order:markers fill stroke;stop-color:#000000"
       id="rect12459"
       width="12.7"
       height="12.7"
       x="260.89539"
       y="171.38385" />
    <rect
       y="171.38385"
       x="70.395432"
       height="12.7"
       width="12.7"
       id="rect12461"
       style="font-variation-settings:normal;opacity:0.75;vector-effect:none;fill:#f9f6f1;fill-opacity:1;stroke:#080808;stroke-width:1.05833;stroke-linecap:round;stroke-linejoin:miter;stroke-miterlimit:4;stroke-dasharray:none;stroke-dashoffset:0;stroke-opacity:1;paint-order:markers fill stroke;stop-color:#000000" />
    <rect
       style="font-variation-settings:normal;opacity:0.75;vector-effect:none;fill:#f9f6f1;fill-opacity:1;stroke:#080808;stroke-width:1.05833;stroke-linecap:round;stroke-linejoin:miter;stroke-miterlimit:4;stroke-dasharray:none;stroke-dashoffset:0;stroke-opacity:1;paint-order:markers fill stroke;stop-color:#000000"
       id="rect12463"
       width="12.7"
       height="12.7"
       x="83.095428"
       y="171.38385" />
    <rect
       style="font-variation-settings:normal;opacity:0.75;vector-effect:none;fill:#f9f6f1;fill-opacity:1;stroke:#080808;stroke-width:1.05833;stroke-linecap:round;stroke-linejoin:miter;stroke-miterlimit:4;stroke-dasharray:none;stroke-dashoffset:0;stroke-opacity:1;paint-order:markers fill stroke;stop-color:#000000"
       id="rect12465"
       width="12.7"
       height="12.7"
       x="95.795425"
       y="171.38385" />
    <rect
       y="171.38385"
       x="108.49542"
       height="12.7"
       width="12.7"
       id="rect12467"
       style="font-variation-settings:normal;opacity:0.75;vector-effect:none;fill:#f9f6f1;fill-opacity:1;stroke:#080808;stroke-width:1.05833;stroke-linecap:round;stroke-linejoin:miter;stroke-miterlimit:4;stroke-dasharray:none;stroke-dashoffset:0;stroke-opacity:1;paint-order:markers fill stroke;stop-color:#000000" />
    <rect
       y="171.38385"
       x="121.19542"
       height="12.7"
       width="12.7"
       id="rect12469"
       style="font-variation-settings:normal;opacity:0.75;vector-effect:none;fill:#f9f6f1;fill-opacity:1;stroke:#080808;stroke-width:1.05833;stroke-linecap:round;stroke-linejoin:miter;stroke-miterlimit:4;stroke-dasharray:none;stroke-dashoffset:0;stroke-opacity:1;paint-order:markers fill stroke;stop-color:#000000" />
    <rect
       style="font-variation-settings:normal;opacity:0.75;vector-effect:none;fill:#f9f6f1;fill-opacity:1;stroke:#080808;stroke-width:1.05833;stroke-linecap:round;stroke-linejoin:miter;stroke-miterlimit:4;stroke-dasharray:none;stroke-dashoffset:0;stroke-opacity:1;paint-order:markers fill stroke;stop-color:#000000"
       id="rect12471"
       width="12.7"
       height="12.7"
       x="133.89542"
       y="171.38385" />
    <rect
       style="font-variation-settings:normal;opacity:0.75;vector-effect:none;fill:#f9f6f1;fill-opacity:1;stroke:#080808;stroke-width:1.05833;stroke-linecap:round;stroke-linejoin:miter;stroke-miterlimit:4;stroke-dasharray:none;stroke-dashoffset:0;stroke-opacity:1;paint-order:markers fill stroke;stop-color:#000000"
       id="rect12473"
       width="12.7"
       height="12.7"
       x="146.59541"
       y="171.38385" />
    <rect
       y="171.38385"
       x="159.29541"
       height="12.7"
       width="12.7"
       id="rect12475"
       style="font-variation-settings:normal;opacity:0.75;vector-effect:none;fill:#f9f6f1;fill-opacity:1;stroke:#080808;stroke-width:1.05833;stroke-linecap:round;stroke-linejoin:miter;stroke-miterlimit:4;stroke-dasharray:none;stroke-dashoffset:0;stroke-opacity:1;paint-order:markers fill stroke;stop-color:#000000" />
    <rect
       y="171.38385"
       x="171.99541"
       height="12.7"
       width="12.7"
       id="rect12477"
       style="font-variation-settings:normal;opacity:0.75;vector-effect:none;fill:#f9f6f1;fill-opacity:1;stroke:#080808;stroke-width:1.05833;stroke-linecap:round;stroke-linejoin:miter;stroke-miterlimit:4;stroke-dasharray:none;stroke-dashoffset:0;stroke-opacity:1;paint-order:markers fill stroke;stop-color:#000000" />
    <rect
       style="font-variation-settings:normal;opacity:0.75;vector-effect:none;fill:#f9f6f1;fill-opacity:1;stroke:#080808;stroke-width:1.05833;stroke-linecap:round;stroke-linejoin:miter;stroke-miterlimit:4;stroke-dasharray:none;stroke-dashoffset:0;stroke-opacity:1;paint-order:markers fill stroke;stop-color:#000000"
       id="rect12479"
       width="12.7"
       height="12.7"
       x="184.6954"
       y="171.38385" />
    <rect
       style="font-variation-settings:normal;opacity:0.75;vector-effect:none;fill:#f9f6f1;fill-opacity:1;stroke:#080808;stroke-width:1.05833;stroke-linecap:round;stroke-linejoin:miter;stroke-miterlimit:4;stroke-dasharray:none;stroke-dashoffset:0;stroke-opacity:1;paint-order:markers fill stroke;stop-color:#000000"
       id="rect12481"
       width="12.7"
       height="12.7"
       x="197.3954"
       y="171.38385" />
    <rect
       y="171.38385"
       x="210.0954"
       height="12.7"
       width="12.7"
       id="rect12483"
       style="font-variation-settings:normal;opacity:0.75;vector-effect:none;fill:#f9f6f1;fill-opacity:1;stroke:#080808;stroke-width:1.05833;stroke-linecap:round;stroke-linejoin:miter;stroke-miterlimit:4;stroke-dasharray:none;stroke-dashoffset:0;stroke-opacity:1;paint-order:markers fill stroke;stop-color:#000000" />
    <rect
       y="171.38385"
       x="222.79539"
       height="12.7"
       width="12.7"
       id="rect12485"
       style="font-variation-settings:normal;opacity:0.75;vector-effect:none;fill:#f9f6f1;fill-opacity:1;stroke:#080808;stroke-width:1.05833;stroke-linecap:round;stroke-linejoin:miter;stroke-miterlimit:4;stroke-dasharray:none;stroke-dashoffset:0;stroke-opacity:1;paint-order:markers fill stroke;stop-color:#000000" />
    <rect
       style="font-variation-settings:normal;opacity:0.75;vector-effect:none;fill:#f9f6f1;fill-opacity:1;stroke:#080808;stroke-width:1.05833;stroke-linecap:round;stroke-linejoin:miter;stroke-miterlimit:4;stroke-dasharray:none;stroke-dashoffset:0;stroke-opacity:1;paint-order:markers fill stroke;stop-color:#000000"
       id="rect12487"
       width="12.7"
       height="12.7"
       x="235.49539"
       y="171.38385" />
    <rect
       style="font-variation-settings:normal;opacity:0.75;vector-effect:none;fill:#f9f6f1;fill-opacity:1;stroke:#080808;stroke-width:1.05833;stroke-linecap:round;stroke-linejoin:miter;stroke-miterlimit:4;stroke-dasharray:none;stroke-dashoffset:0;stroke-opacity:1;paint-order:markers fill stroke;stop-color:#000000"
       id="rect12489"
       width="12.7"
       height="12.7"
       x="248.19539"
       y="171.38385" />
    <rect
       style="font-variation-settings:normal;opacity:0.75;vector-effect:none;fill:#f9f6f1;fill-opacity:1;stroke:#080808;stroke-width:1.05833;stroke-linecap:round;stroke-linejoin:miter;stroke-miterlimit:4;stroke-dasharray:none;stroke-dashoffset:0;stroke-opacity:1;paint-order:markers fill stroke;stop-color:#000000"
       id="rect12491"
       width="12.7"
       height="12.7"
       x="57.662346"
       y="171.38382" />
    <rect
       y="171.38382"
       x="44.962349"
       height="12.7"
       width="12.7"
       id="rect12493"
       style="font-variation-settings:normal;opacity:0.75;vector-effect:none;fill:#f9f6f1;fill-opacity:1;stroke:#080808;stroke-width:1.05833;stroke-linecap:round;stroke-linejoin:miter;stroke-miterlimit:4;stroke-dasharray:none;stroke-dashoffset:0;stroke-opacity:1;paint-order:markers fill stroke;stop-color:#000000" />
    <rect
       style="font-variation-settings:normal;opacity:0.75;vector-effect:none;fill:#f9f6f1;fill-opacity:1;stroke:#080808;stroke-width:1.05833;stroke-linecap:round;stroke-linejoin:miter;stroke-miterlimit:4;stroke-dasharray:none;stroke-dashoffset:0;stroke-opacity:1;paint-order:markers fill stroke;stop-color:#000000"
       id="rect12495"
       width="12.7"
       height="12.7"
       x="32.262352"
       y="171.38382" />
    <rect
       y="171.38382"
       x="19.562349"
       height="12.7"
       width="12.7"
       id="rect12497"
       style="font-variation-settings:normal;opacity:0.75;vector-effect:none;fill:#f9f6f1;fill-opacity:1;stroke:#080808;stroke-width:1.05833;stroke-linecap:round;stroke-linejoin:miter;stroke-miterlimit:4;stroke-dasharray:none;stroke-dashoffset:0;stroke-opacity:1;paint-order:markers fill stroke;stop-color:#000000" />
    <path
       inkscape:connector-curvature="0"
       id="path12499"
       style="font-style:normal;font-variant:normal;font-weight:normal;font-stretch:normal;font-size:medium;line-height:1.25;font-family:'Archivo Narrow';-inkscape-font-specification:'Archivo Narrow';font-variation-settings:normal;letter-spacing:0px;word-spacing:0px;display:inline;vector-effect:none;fill:#000000;fill-opacity:1;stroke:none;stroke-width:0.264583;stroke-linecap:butt;stroke-linejoin:miter;stroke-miterlimit:4;stroke-dasharray:none;stroke-dashoffset:0;stroke-opacity:1;paint-order:markers fill stroke;stop-color:#000000"
       d="m 68.504063,207.42517 h -8.91737 q -0.0932,0 -0.17,-0.0548 -0.0713,-0.0548 -0.11516,-0.13165 -0.0439,-0.0767 -0.0439,-0.16444 0,-0.0823 0.0439,-0.17 l 4.4532,-7.90825 q 0.0439,-0.0768 0.12065,-0.11512 0.0767,-0.0384 0.16451,-0.0384 0.0877,0 0.16452,0.0384 0.0767,0.0384 0.12065,0.11512 l 4.46416,7.90825 q 0.044,0.0877 0.044,0.17 0,0.0877 -0.044,0.16444 -0.044,0.0767 -0.12064,0.13165 -0.0713,0.0548 -0.16453,0.0548 z m -8.347,-0.70198 h 7.76566 l -3.88283,-6.87726 z m 4.39287,-1.99629 h -1.02008 v -3.04373 h 1.02008 z m 0.15354,0.99813 q 0,0.14249 -0.0548,0.26323 -0.0493,0.12067 -0.14258,0.21387 -0.0877,0.0877 -0.2084,0.14268 -0.12065,0.0492 -0.25776,0.0492 -0.13709,0 -0.25777,-0.0492 -0.12064,-0.0548 -0.20839,-0.14268 -0.0877,-0.0932 -0.13711,-0.21387 -0.0494,-0.12067 -0.0494,-0.26323 0,-0.13712 0.0494,-0.26324 0.0493,-0.12609 0.13711,-0.21387 0.0877,-0.0932 0.20839,-0.14801 0.12067,-0.0548 0.25777,-0.0548 0.13711,0 0.25776,0.0548 0.12064,0.0548 0.2084,0.14801 0.0932,0.0876 0.14258,0.21387 0.0548,0.1261 0.0548,0.26324 z" />
    <path
       d="m 119.30405,207.42517 h -8.91737 q -0.0932,0 -0.17,-0.0548 -0.0713,-0.0548 -0.11516,-0.13165 -0.0439,-0.0767 -0.0439,-0.16444 0,-0.0823 0.0439,-0.17 l 4.4532,-7.90825 q 0.0439,-0.0768 0.12065,-0.11512 0.0767,-0.0384 0.16451,-0.0384 0.0877,0 0.16452,0.0384 0.0767,0.0384 0.12065,0.11512 l 4.46416,7.90825 q 0.044,0.0877 0.044,0.17 0,0.0877 -0.044,0.16444 -0.044,0.0767 -0.12064,0.13165 -0.0713,0.0548 -0.16453,0.0548 z m -8.347,-0.70198 h 7.76566 l -3.88283,-6.87726 z m 4.39287,-1.99629 h -1.02008 v -3.04373 h 1.02008 z m 0.15354,0.99813 q 0,0.14249 -0.0548,0.26323 -0.0493,0.12067 -0.14258,0.21387 -0.0877,0.0877 -0.2084,0.14268 -0.12065,0.0492 -0.25776,0.0492 -0.13709,0 -0.25777,-0.0492 -0.12064,-0.0548 -0.20839,-0.14268 -0.0877,-0.0932 -0.13711,-0.21387 -0.0494,-0.12067 -0.0494,-0.26323 0,-0.13712 0.0494,-0.26324 0.0493,-0.12609 0.13711,-0.21387 0.0877,-0.0932 0.20839,-0.14801 0.12067,-0.0548 0.25777,-0.0548 0.13711,0 0.25776,0.0548 0.12064,0.0548 0.2084,0.14801 0.0932,0.0876 0.14258,0.21387 0.0548,0.1261 0.0548,0.26324 z"
       style="font-style:normal;font-variant:normal;font-weight:normal;font-stretch:normal;font-size:medium;line-height:1.25;font-family:'Archivo Narrow';-inkscape-font-specification:'Archivo Narrow';font-variation-settings:normal;letter-spacing:0px;word-spacing:0px;display:inline;vector-effect:none;fill:#000000;fill-opacity:1;stroke:none;stroke-width:0.264583;stroke-linecap:butt;stroke-linejoin:miter;stroke-miterlimit:4;stroke-dasharray:none;stroke-dashoffset:0;stroke-opacity:1;paint-order:markers fill stroke;stop-color:#000000"
       id="path12613"
       inkscape:connector-curvature="0" />
    <path
       inkscape:connector-curvature="0"
       id="path12615"
       style="font-style:normal;font-variant:normal;font-weight:normal;font-stretch:normal;font-size:medium;line-height:1.25;font-family:'Archivo Narrow';-inkscape-font-specification:'Archivo Narrow';font-variation-settings:normal;letter-spacing:0px;word-spacing:0px;display:inline;vector-effect:none;fill:#000000;fill-opacity:1;stroke:none;stroke-width:0.264583;stroke-linecap:butt;stroke-linejoin:miter;stroke-miterlimit:4;stroke-dasharray:none;stroke-dashoffset:0;stroke-opacity:1;paint-order:markers fill stroke;stop-color:#000000"
       d="m 157.40404,207.42517 h -8.91737 q -0.0932,0 -0.17,-0.0548 -0.0713,-0.0548 -0.11516,-0.13165 -0.0439,-0.0767 -0.0439,-0.16444 0,-0.0823 0.0439,-0.17 l 4.4532,-7.90825 q 0.0439,-0.0768 0.12065,-0.11512 0.0767,-0.0384 0.16451,-0.0384 0.0877,0 0.16452,0.0384 0.0767,0.0384 0.12065,0.11512 l 4.46416,7.90825 q 0.044,0.0877 0.044,0.17 0,0.0877 -0.044,0.16444 -0.044,0.0767 -0.12064,0.13165 -0.0713,0.0548 -0.16453,0.0548 z m -8.347,-0.70198 h 7.76566 l -3.88283,-6.87726 z m 4.39287,-1.99629 h -1.02008 v -3.04373 h 1.02008 z m 0.15354,0.99813 q 0,0.14249 -0.0548,0.26323 -0.0493,0.12067 -0.14258,0.21387 -0.0877,0.0877 -0.2084,0.14268 -0.12065,0.0492 -0.25776,0.0492 -0.13709,0 -0.25777,-0.0492 -0.12064,-0.0548 -0.20839,-0.14268 -0.0877,-0.0932 -0.13711,-0.21387 -0.0494,-0.12067 -0.0494,-0.26323 0,-0.13712 0.0494,-0.26324 0.0493,-0.12609 0.13711,-0.21387 0.0877,-0.0932 0.20839,-0.14801 0.12067,-0.0548 0.25777,-0.0548 0.13711,0 0.25776,0.0548 0.12064,0.0548 0.2084,0.14801 0.0932,0.0876 0.14258,0.21387 0.0548,0.1261 0.0548,0.26324 z" />
    <path
       d="m 195.50404,207.42517 h -8.91737 q -0.0932,0 -0.17,-0.0548 -0.0713,-0.0548 -0.11516,-0.13165 -0.0439,-0.0767 -0.0439,-0.16444 0,-0.0823 0.0439,-0.17 l 4.4532,-7.90825 q 0.0439,-0.0768 0.12065,-0.11512 0.0767,-0.0384 0.16451,-0.0384 0.0877,0 0.16452,0.0384 0.0767,0.0384 0.12065,0.11512 l 4.46416,7.90825 q 0.044,0.0877 0.044,0.17 0,0.0877 -0.044,0.16444 -0.044,0.0767 -0.12064,0.13165 -0.0713,0.0548 -0.16453,0.0548 z m -8.347,-0.70198 h 7.76566 l -3.88283,-6.87726 z m 4.39287,-1.99629 h -1.02008 v -3.04373 h 1.02008 z m 0.15354,0.99813 q 0,0.14249 -0.0548,0.26323 -0.0493,0.12067 -0.14258,0.21387 -0.0877,0.0877 -0.2084,0.14268 -0.12065,0.0492 -0.25776,0.0492 -0.13709,0 -0.25777,-0.0492 -0.12064,-0.0548 -0.20839,-0.14268 -0.0877,-0.0932 -0.13711,-0.21387 -0.0494,-0.12067 -0.0494,-0.26323 0,-0.13712 0.0494,-0.26324 0.0493,-0.12609 0.13711,-0.21387 0.0877,-0.0932 0.20839,-0.14801 0.12067,-0.0548 0.25777,-0.0548 0.13711,0 0.25776,0.0548 0.12064,0.0548 0.2084,0.14801 0.0932,0.0876 0.14258,0.21387 0.0548,0.1261 0.0548,0.26324 z"
       style="font-style:normal;font-variant:normal;font-weight:normal;font-stretch:normal;font-size:medium;line-height:1.25;font-family:'Archivo Narrow';-inkscape-font-specification:'Archivo Narrow';font-variation-settings:normal;letter-spacing:0px;word-spacing:0px;display:inline;vector-effect:none;fill:#000000;fill-opacity:1;stroke:none;stroke-width:0.264583;stroke-linecap:butt;stroke-linejoin:miter;stroke-miterlimit:4;stroke-dasharray:none;stroke-dashoffset:0;stroke-opacity:1;paint-order:markers fill stroke;stop-color:#000000"
       id="path12617"
       inkscape:connector-curvature="0" />
    <path
       inkscape:connector-curvature="0"
       id="path12619"
       style="font-style:normal;font-variant:normal;font-weight:normal;font-stretch:normal;font-size:medium;line-height:1.25;font-family:'Archivo Narrow';-inkscape-font-specification:'Archivo Narrow';font-variation-settings:normal;letter-spacing:0px;word-spacing:0px;display:inline;vector-effect:none;fill:#000000;fill-opacity:1;stroke:none;stroke-width:0.264583;stroke-linecap:butt;stroke-linejoin:miter;stroke-miterlimit:4;stroke-dasharray:none;stroke-dashoffset:0;stroke-opacity:1;paint-order:markers fill stroke;stop-color:#000000"
       d="m 233.60403,207.42517 h -8.91737 q -0.0932,0 -0.17,-0.0548 -0.0713,-0.0548 -0.11516,-0.13165 -0.0439,-0.0767 -0.0439,-0.16444 0,-0.0823 0.0439,-0.17 l 4.4532,-7.90825 q 0.0439,-0.0768 0.12065,-0.11512 0.0767,-0.0384 0.16451,-0.0384 0.0877,0 0.16452,0.0384 0.0767,0.0384 0.12065,0.11512 l 4.46416,7.90825 q 0.044,0.0877 0.044,0.17 0,0.0877 -0.044,0.16444 -0.044,0.0767 -0.12064,0.13165 -0.0713,0.0548 -0.16453,0.0548 z m -8.347,-0.70198 h 7.76566 l -3.88283,-6.87726 z m 4.39287,-1.99629 h -1.02008 v -3.04373 h 1.02008 z m 0.15354,0.99813 q 0,0.14249 -0.0548,0.26323 -0.0493,0.12067 -0.14258,0.21387 -0.0877,0.0877 -0.2084,0.14268 -0.12065,0.0492 -0.25776,0.0492 -0.13709,0 -0.25777,-0.0492 -0.12064,-0.0548 -0.20839,-0.14268 -0.0877,-0.0932 -0.13711,-0.21387 -0.0494,-0.12067 -0.0494,-0.26323 0,-0.13712 0.0494,-0.26324 0.0493,-0.12609 0.13711,-0.21387 0.0877,-0.0932 0.20839,-0.14801 0.12067,-0.0548 0.25777,-0.0548 0.13711,0 0.25776,0.0548 0.12064,0.0548 0.2084,0.14801 0.0932,0.0876 0.14258,0.21387 0.0548,0.1261 0.0548,0.26324 z" />
    <path
       d="m 259.00402,207.42517 h -8.91737 q -0.0932,0 -0.17,-0.0548 -0.0713,-0.0548 -0.11516,-0.13165 -0.0439,-0.0767 -0.0439,-0.16444 0,-0.0823 0.0439,-0.17 l 4.4532,-7.90825 q 0.0439,-0.0768 0.12065,-0.11512 0.0767,-0.0384 0.16451,-0.0384 0.0877,0 0.16452,0.0384 0.0767,0.0384 0.12065,0.11512 l 4.46416,7.90825 q 0.044,0.0877 0.044,0.17 0,0.0877 -0.044,0.16444 -0.044,0.0767 -0.12064,0.13165 -0.0713,0.0548 -0.16453,0.0548 z m -8.347,-0.70198 h 7.76566 l -3.88283,-6.87726 z m 4.39287,-1.99629 h -1.02008 v -3.04373 h 1.02008 z m 0.15354,0.99813 q 0,0.14249 -0.0548,0.26323 -0.0493,0.12067 -0.14258,0.21387 -0.0877,0.0877 -0.2084,0.14268 -0.12065,0.0492 -0.25776,0.0492 -0.13709,0 -0.25777,-0.0492 -0.12064,-0.0548 -0.20839,-0.14268 -0.0877,-0.0932 -0.13711,-0.21387 -0.0494,-0.12067 -0.0494,-0.26323 0,-0.13712 0.0494,-0.26324 0.0493,-0.12609 0.13711,-0.21387 0.0877,-0.0932 0.20839,-0.14801 0.12067,-0.0548 0.25777,-0.0548 0.13711,0 0.25776,0.0548 0.12064,0.0548 0.2084,0.14801 0.0932,0.0876 0.14258,0.21387 0.0548,0.1261 0.0548,0.26324 z"
       style="font-style:normal;font-variant:normal;font-weight:normal;font-stretch:normal;font-size:medium;line-height:1.25;font-family:'Archivo Narrow';-inkscape-font-specification:'Archivo Narrow';font-variation-settings:normal;letter-spacing:0px;word-spacing:0px;display:inline;vector-effect:none;fill:#000000;fill-opacity:1;stroke:none;stroke-width:0.264583;stroke-linecap:butt;stroke-linejoin:miter;stroke-miterlimit:4;stroke-dasharray:none;stroke-dashoffset:0;stroke-opacity:1;paint-order:markers fill stroke;stop-color:#000000"
       id="path12621"
       inkscape:connector-curvature="0" />
    <path
       inkscape:connector-curvature="0"
       id="path12623"
       style="font-style:normal;font-variant:normal;font-weight:normal;font-stretch:normal;font-size:medium;line-height:1.25;font-family:'Archivo Narrow';-inkscape-font-specification:'Archivo Narrow';font-variation-settings:normal;letter-spacing:0px;word-spacing:0px;display:inline;vector-effect:none;fill:#000000;fill-opacity:1;stroke:none;stroke-width:0.264583;stroke-linecap:butt;stroke-linejoin:miter;stroke-miterlimit:4;stroke-dasharray:none;stroke-dashoffset:0;stroke-opacity:1;paint-order:markers fill stroke;stop-color:#000000"
       d="m 271.70403,194.72518 h -8.91737 q -0.0932,0 -0.17,-0.0548 -0.0713,-0.0548 -0.11516,-0.13165 -0.0439,-0.0767 -0.0439,-0.16444 0,-0.0823 0.0439,-0.17 l 4.4532,-7.90825 q 0.0439,-0.0768 0.12065,-0.11512 0.0767,-0.0384 0.16451,-0.0384 0.0877,0 0.16452,0.0384 0.0767,0.0384 0.12065,0.11512 l 4.46416,7.90825 q 0.044,0.0877 0.044,0.17 0,0.0877 -0.044,0.16444 -0.044,0.0767 -0.12064,0.13165 -0.0713,0.0548 -0.16453,0.0548 z m -8.347,-0.70198 h 7.76566 l -3.88283,-6.87726 z m 4.39287,-1.99629 h -1.02008 v -3.04373 h 1.02008 z m 0.15354,0.99813 q 0,0.14249 -0.0548,0.26323 -0.0493,0.12067 -0.14258,0.21387 -0.0877,0.0877 -0.2084,0.14268 -0.12065,0.0492 -0.25776,0.0492 -0.13709,0 -0.25777,-0.0492 -0.12064,-0.0548 -0.20839,-0.14268 -0.0877,-0.0932 -0.13711,-0.21387 -0.0494,-0.12067 -0.0494,-0.26323 0,-0.13712 0.0494,-0.26324 0.0493,-0.12609 0.13711,-0.21387 0.0877,-0.0932 0.20839,-0.14801 0.12067,-0.0548 0.25777,-0.0548 0.13711,0 0.25776,0.0548 0.12064,0.0548 0.2084,0.14801 0.0932,0.0876 0.14258,0.21387 0.0548,0.1261 0.0548,0.26324 z" />
    <path
       d="m 259.00402,182.02518 h -8.91737 q -0.0932,0 -0.17,-0.0548 -0.0713,-0.0548 -0.11516,-0.13165 -0.0439,-0.0767 -0.0439,-0.16444 0,-0.0823 0.0439,-0.17 l 4.4532,-7.90825 q 0.0439,-0.0768 0.12065,-0.11512 0.0767,-0.0384 0.16451,-0.0384 0.0877,0 0.16452,0.0384 0.0767,0.0384 0.12065,0.11512 l 4.46416,7.90825 q 0.044,0.0877 0.044,0.17 0,0.0877 -0.044,0.16444 -0.044,0.0767 -0.12064,0.13165 -0.0713,0.0548 -0.16453,0.0548 z m -8.347,-0.70198 h 7.76566 l -3.88283,-6.87726 z m 4.39287,-1.99629 h -1.02008 v -3.04373 h 1.02008 z m 0.15354,0.99813 q 0,0.14249 -0.0548,0.26323 -0.0493,0.12067 -0.14258,0.21387 -0.0877,0.0877 -0.2084,0.14268 -0.12065,0.0492 -0.25776,0.0492 -0.13709,0 -0.25777,-0.0492 -0.12064,-0.0548 -0.20839,-0.14268 -0.0877,-0.0932 -0.13711,-0.21387 -0.0494,-0.12067 -0.0494,-0.26323 0,-0.13712 0.0494,-0.26324 0.0493,-0.12609 0.13711,-0.21387 0.0877,-0.0932 0.20839,-0.14801 0.12067,-0.0548 0.25777,-0.0548 0.13711,0 0.25776,0.0548 0.12064,0.0548 0.2084,0.14801 0.0932,0.0876 0.14258,0.21387 0.0548,0.1261 0.0548,0.26324 z"
       style="font-style:normal;font-variant:normal;font-weight:normal;font-stretch:normal;font-size:medium;line-height:1.25;font-family:'Archivo Narrow';-inkscape-font-specification:'Archivo Narrow';font-variation-settings:normal;letter-spacing:0px;word-spacing:0px;display:inline;vector-effect:none;fill:#000000;fill-opacity:1;stroke:none;stroke-width:0.264583;stroke-linecap:butt;stroke-linejoin:miter;stroke-miterlimit:4;stroke-dasharray:none;stroke-dashoffset:0;stroke-opacity:1;paint-order:markers fill stroke;stop-color:#000000"
       id="path12625"
       inkscape:connector-curvature="0" />
    <path
       inkscape:connector-curvature="0"
       id="path12627"
       style="font-style:normal;font-variant:normal;font-weight:normal;font-stretch:normal;font-size:medium;line-height:1.25;font-family:'Archivo Narrow';-inkscape-font-specification:'Archivo Narrow';font-variation-settings:normal;letter-spacing:0px;word-spacing:0px;display:inline;vector-effect:none;fill:#000000;fill-opacity:1;stroke:none;stroke-width:0.264583;stroke-linecap:butt;stroke-linejoin:miter;stroke-miterlimit:4;stroke-dasharray:none;stroke-dashoffset:0;stroke-opacity:1;paint-order:markers fill stroke;stop-color:#000000"
       d="m 233.60403,182.02518 h -8.91737 q -0.0932,0 -0.17,-0.0548 -0.0713,-0.0548 -0.11516,-0.13165 -0.0439,-0.0767 -0.0439,-0.16444 0,-0.0823 0.0439,-0.17 l 4.4532,-7.90825 q 0.0439,-0.0768 0.12065,-0.11512 0.0767,-0.0384 0.16451,-0.0384 0.0877,0 0.16452,0.0384 0.0767,0.0384 0.12065,0.11512 l 4.46416,7.90825 q 0.044,0.0877 0.044,0.17 0,0.0877 -0.044,0.16444 -0.044,0.0767 -0.12064,0.13165 -0.0713,0.0548 -0.16453,0.0548 z m -8.347,-0.70198 h 7.76566 l -3.88283,-6.87726 z m 4.39287,-1.99629 h -1.02008 v -3.04373 h 1.02008 z m 0.15354,0.99813 q 0,0.14249 -0.0548,0.26323 -0.0493,0.12067 -0.14258,0.21387 -0.0877,0.0877 -0.2084,0.14268 -0.12065,0.0492 -0.25776,0.0492 -0.13709,0 -0.25777,-0.0492 -0.12064,-0.0548 -0.20839,-0.14268 -0.0877,-0.0932 -0.13711,-0.21387 -0.0494,-0.12067 -0.0494,-0.26323 0,-0.13712 0.0494,-0.26324 0.0493,-0.12609 0.13711,-0.21387 0.0877,-0.0932 0.20839,-0.14801 0.12067,-0.0548 0.25777,-0.0548 0.13711,0 0.25776,0.0548 0.12064,0.0548 0.2084,0.14801 0.0932,0.0876 0.14258,0.21387 0.0548,0.1261 0.0548,0.26324 z" />
    <path
       d="m 208.20403,182.02518 h -8.91737 q -0.0932,0 -0.17,-0.0548 -0.0713,-0.0548 -0.11516,-0.13165 -0.0439,-0.0767 -0.0439,-0.16444 0,-0.0823 0.0439,-0.17 l 4.4532,-7.90825 q 0.0439,-0.0768 0.12065,-0.11512 0.0767,-0.0384 0.16451,-0.0384 0.0877,0 0.16452,0.0384 0.0767,0.0384 0.12065,0.11512 l 4.46416,7.90825 q 0.044,0.0877 0.044,0.17 0,0.0877 -0.044,0.16444 -0.044,0.0767 -0.12064,0.13165 -0.0713,0.0548 -0.16453,0.0548 z m -8.347,-0.70198 h 7.76566 l -3.88283,-6.87726 z m 4.39287,-1.99629 h -1.02008 v -3.04373 h 1.02008 z m 0.15354,0.99813 q 0,0.14249 -0.0548,0.26323 -0.0493,0.12067 -0.14258,0.21387 -0.0877,0.0877 -0.2084,0.14268 -0.12065,0.0492 -0.25776,0.0492 -0.13709,0 -0.25777,-0.0492 -0.12064,-0.0548 -0.20839,-0.14268 -0.0877,-0.0932 -0.13711,-0.21387 -0.0494,-0.12067 -0.0494,-0.26323 0,-0.13712 0.0494,-0.26324 0.0493,-0.12609 0.13711,-0.21387 0.0877,-0.0932 0.20839,-0.14801 0.12067,-0.0548 0.25777,-0.0548 0.13711,0 0.25776,0.0548 0.12064,0.0548 0.2084,0.14801 0.0932,0.0876 0.14258,0.21387 0.0548,0.1261 0.0548,0.26324 z"
       style="font-style:normal;font-variant:normal;font-weight:normal;font-stretch:normal;font-size:medium;line-height:1.25;font-family:'Archivo Narrow';-inkscape-font-specification:'Archivo Narrow';font-variation-settings:normal;letter-spacing:0px;word-spacing:0px;display:inline;vector-effect:none;fill:#000000;fill-opacity:1;stroke:none;stroke-width:0.264583;stroke-linecap:butt;stroke-linejoin:miter;stroke-miterlimit:4;stroke-dasharray:none;stroke-dashoffset:0;stroke-opacity:1;paint-order:markers fill stroke;stop-color:#000000"
       id="path12629"
       inkscape:connector-curvature="0" />
    <path
       inkscape:connector-curvature="0"
       id="path12631"
       style="font-style:normal;font-variant:normal;font-weight:normal;font-stretch:normal;font-size:medium;line-height:1.25;font-family:'Archivo Narrow';-inkscape-font-specification:'Archivo Narrow';font-variation-settings:normal;letter-spacing:0px;word-spacing:0px;display:inline;vector-effect:none;fill:#000000;fill-opacity:1;stroke:none;stroke-width:0.264583;stroke-linecap:butt;stroke-linejoin:miter;stroke-miterlimit:4;stroke-dasharray:none;stroke-dashoffset:0;stroke-opacity:1;paint-order:markers fill stroke;stop-color:#000000"
       d="m 195.50403,182.02518 h -8.91737 q -0.0932,0 -0.17,-0.0548 -0.0713,-0.0548 -0.11516,-0.13165 -0.0439,-0.0767 -0.0439,-0.16444 0,-0.0823 0.0439,-0.17 l 4.4532,-7.90825 q 0.0439,-0.0768 0.12065,-0.11512 0.0767,-0.0384 0.16451,-0.0384 0.0877,0 0.16452,0.0384 0.0767,0.0384 0.12065,0.11512 l 4.46416,7.90825 q 0.044,0.0877 0.044,0.17 0,0.0877 -0.044,0.16444 -0.044,0.0767 -0.12064,0.13165 -0.0713,0.0548 -0.16453,0.0548 z m -8.347,-0.70198 h 7.76566 l -3.88283,-6.87726 z m 4.39287,-1.99629 h -1.02008 v -3.04373 h 1.02008 z m 0.15354,0.99813 q 0,0.14249 -0.0548,0.26323 -0.0493,0.12067 -0.14258,0.21387 -0.0877,0.0877 -0.2084,0.14268 -0.12065,0.0492 -0.25776,0.0492 -0.13709,0 -0.25777,-0.0492 -0.12064,-0.0548 -0.20839,-0.14268 -0.0877,-0.0932 -0.13711,-0.21387 -0.0494,-0.12067 -0.0494,-0.26323 0,-0.13712 0.0494,-0.26324 0.0493,-0.12609 0.13711,-0.21387 0.0877,-0.0932 0.20839,-0.14801 0.12067,-0.0548 0.25777,-0.0548 0.13711,0 0.25776,0.0548 0.12064,0.0548 0.2084,0.14801 0.0932,0.0876 0.14258,0.21387 0.0548,0.1261 0.0548,0.26324 z" />
    <path
       d="m 144.70405,182.02518 h -8.91737 q -0.0932,0 -0.17,-0.0548 -0.0713,-0.0548 -0.11516,-0.13165 -0.0439,-0.0767 -0.0439,-0.16444 0,-0.0823 0.0439,-0.17 l 4.4532,-7.90825 q 0.0439,-0.0768 0.12065,-0.11512 0.0767,-0.0384 0.16451,-0.0384 0.0877,0 0.16452,0.0384 0.0767,0.0384 0.12065,0.11512 l 4.46416,7.90825 q 0.044,0.0877 0.044,0.17 0,0.0877 -0.044,0.16444 -0.044,0.0767 -0.12064,0.13165 -0.0713,0.0548 -0.16453,0.0548 z m -8.347,-0.70198 h 7.76566 l -3.88283,-6.87726 z m 4.39287,-1.99629 h -1.02008 v -3.04373 h 1.02008 z m 0.15354,0.99813 q 0,0.14249 -0.0548,0.26323 -0.0493,0.12067 -0.14258,0.21387 -0.0877,0.0877 -0.2084,0.14268 -0.12065,0.0492 -0.25776,0.0492 -0.13709,0 -0.25777,-0.0492 -0.12064,-0.0548 -0.20839,-0.14268 -0.0877,-0.0932 -0.13711,-0.21387 -0.0494,-0.12067 -0.0494,-0.26323 0,-0.13712 0.0494,-0.26324 0.0493,-0.12609 0.13711,-0.21387 0.0877,-0.0932 0.20839,-0.14801 0.12067,-0.0548 0.25777,-0.0548 0.13711,0 0.25776,0.0548 0.12064,0.0548 0.2084,0.14801 0.0932,0.0876 0.14258,0.21387 0.0548,0.1261 0.0548,0.26324 z"
       style="font-style:normal;font-variant:normal;font-weight:normal;font-stretch:normal;font-size:medium;line-height:1.25;font-family:'Archivo Narrow';-inkscape-font-specification:'Archivo Narrow';font-variation-settings:normal;letter-spacing:0px;word-spacing:0px;display:inline;vector-effect:none;fill:#000000;fill-opacity:1;stroke:none;stroke-width:0.264583;stroke-linecap:butt;stroke-linejoin:miter;stroke-miterlimit:4;stroke-dasharray:none;stroke-dashoffset:0;stroke-opacity:1;paint-order:markers fill stroke;stop-color:#000000"
       id="path12633"
       inkscape:connector-curvature="0" />
    <path
       inkscape:connector-curvature="0"
       id="path12635"
       style="font-style:normal;font-variant:normal;font-weight:normal;font-stretch:normal;font-size:medium;line-height:1.25;font-family:'Archivo Narrow';-inkscape-font-specification:'Archivo Narrow';font-variation-settings:normal;letter-spacing:0px;word-spacing:0px;display:inline;vector-effect:none;fill:#000000;fill-opacity:1;stroke:none;stroke-width:0.264583;stroke-linecap:butt;stroke-linejoin:miter;stroke-miterlimit:4;stroke-dasharray:none;stroke-dashoffset:0;stroke-opacity:1;paint-order:markers fill stroke;stop-color:#000000"
       d="m 157.40404,182.02518 h -8.91737 q -0.0932,0 -0.17,-0.0548 -0.0713,-0.0548 -0.11516,-0.13165 -0.0439,-0.0767 -0.0439,-0.16444 0,-0.0823 0.0439,-0.17 l 4.4532,-7.90825 q 0.0439,-0.0768 0.12065,-0.11512 0.0767,-0.0384 0.16451,-0.0384 0.0877,0 0.16452,0.0384 0.0767,0.0384 0.12065,0.11512 l 4.46416,7.90825 q 0.044,0.0877 0.044,0.17 0,0.0877 -0.044,0.16444 -0.044,0.0767 -0.12064,0.13165 -0.0713,0.0548 -0.16453,0.0548 z m -8.347,-0.70198 h 7.76566 l -3.88283,-6.87726 z m 4.39287,-1.99629 h -1.02008 v -3.04373 h 1.02008 z m 0.15354,0.99813 q 0,0.14249 -0.0548,0.26323 -0.0493,0.12067 -0.14258,0.21387 -0.0877,0.0877 -0.2084,0.14268 -0.12065,0.0492 -0.25776,0.0492 -0.13709,0 -0.25777,-0.0492 -0.12064,-0.0548 -0.20839,-0.14268 -0.0877,-0.0932 -0.13711,-0.21387 -0.0494,-0.12067 -0.0494,-0.26323 0,-0.13712 0.0494,-0.26324 0.0493,-0.12609 0.13711,-0.21387 0.0877,-0.0932 0.20839,-0.14801 0.12067,-0.0548 0.25777,-0.0548 0.13711,0 0.25776,0.0548 0.12064,0.0548 0.2084,0.14801 0.0932,0.0876 0.14258,0.21387 0.0548,0.1261 0.0548,0.26324 z" />
    <path
       d="m 106.60406,182.02518 h -8.917371 q -0.0932,0 -0.17,-0.0548 -0.0713,-0.0548 -0.11516,-0.13165 -0.0439,-0.0767 -0.0439,-0.16444 0,-0.0823 0.0439,-0.17 l 4.453201,-7.90825 q 0.0439,-0.0768 0.12065,-0.11512 0.0767,-0.0384 0.16451,-0.0384 0.0877,0 0.16452,0.0384 0.0767,0.0384 0.12065,0.11512 l 4.46416,7.90825 q 0.044,0.0877 0.044,0.17 0,0.0877 -0.044,0.16444 -0.044,0.0767 -0.12064,0.13165 -0.0713,0.0548 -0.16453,0.0548 z m -8.347001,-0.70198 h 7.765661 l -3.88283,-6.87726 z m 4.392871,-1.99629 h -1.02008 v -3.04373 h 1.02008 z m 0.15354,0.99813 q 0,0.14249 -0.0548,0.26323 -0.0493,0.12067 -0.14258,0.21387 -0.0877,0.0877 -0.2084,0.14268 -0.12065,0.0492 -0.25776,0.0492 -0.13709,0 -0.25777,-0.0492 -0.12064,-0.0548 -0.20839,-0.14268 -0.0877,-0.0932 -0.13711,-0.21387 -0.0494,-0.12067 -0.0494,-0.26323 0,-0.13712 0.0494,-0.26324 0.0493,-0.12609 0.13711,-0.21387 0.0877,-0.0932 0.20839,-0.14801 0.12067,-0.0548 0.25777,-0.0548 0.13711,0 0.25776,0.0548 0.12064,0.0548 0.2084,0.14801 0.0932,0.0876 0.14258,0.21387 0.0548,0.1261 0.0548,0.26324 z"
       style="font-style:normal;font-variant:normal;font-weight:normal;font-stretch:normal;font-size:medium;line-height:1.25;font-family:'Archivo Narrow';-inkscape-font-specification:'Archivo Narrow';font-variation-settings:normal;letter-spacing:0px;word-spacing:0px;display:inline;vector-effect:none;fill:#000000;fill-opacity:1;stroke:none;stroke-width:0.264583;stroke-linecap:butt;stroke-linejoin:miter;stroke-miterlimit:4;stroke-dasharray:none;stroke-dashoffset:0;stroke-opacity:1;paint-order:markers fill stroke;stop-color:#000000"
       id="path12637"
       inkscape:connector-curvature="0" />
    <path
       id="path6839"
       d="m 25.92626,172.57343 c -1.783409,-0.004 -3.519326,0.92264 -4.475021,2.5807 -0.96806,1.67953 -0.885657,3.67758 0.04192,5.23177 -0.572017,-1.45059 -0.440484,-3.2885 0.499174,-4.91875 0.940246,-1.63126 2.465145,-2.66478 4.006277,-2.89302 -0.02405,0 -0.04825,0 -0.07238,0 z m -0.0038,1.15862 c -1.382984,-0.003 -2.728783,0.71556 -3.469909,2.00132 -0.750597,1.3023 -0.687308,2.85111 0.03182,4.05632 -0.443214,-1.12478 -0.340914,-2.54984 0.387562,-3.81371 0.728904,-1.26465 1.910613,-2.06595 3.105351,-2.24329 -0.01825,0 -0.03649,0 -0.05481,0 z m -0.02842,0.94239 c -1.047297,0.008 -2.063816,0.55525 -2.624416,1.52778 -0.841663,1.46031 -0.340454,3.33313 1.117431,4.17624 1.45787,0.84314 3.327588,0.34171 4.169289,-1.11854 0.841753,-1.46033 0.340468,-3.33385 -1.117387,-4.17692 -0.455571,-0.26342 -0.951277,-0.39526 -1.443408,-0.40781 -0.03393,0 -0.06771,0 -0.101509,0 z m -0.0095,0.40311 -0.01357,0.63828 c -0.330998,0.004 -0.656998,0.0885 -0.946956,0.24794 l -0.324047,-0.53723 c 0.391332,-0.22364 0.834085,-0.34402 1.284469,-0.34896 z m 4.446588,0.003 c 0.572928,1.4509 0.441615,3.28982 -0.498466,4.92085 -0.939122,1.62928 -2.461608,2.6624 -4.000886,2.89228 1.806579,0.0265 3.573786,-0.90133 4.541318,-2.57997 0.968295,-1.67994 0.886344,-3.67869 -0.04192,-5.23314 z m -3.699829,0.0975 c 0.206915,0.0587 0.410377,0.14335 0.605402,0.25615 0.202927,0.11732 0.384245,0.25758 0.543101,0.41527 l -0.472121,0.45325 c -0.121006,-0.12089 -0.259558,-0.22807 -0.414599,-0.31774 -0.133825,-0.0774 -0.272942,-0.1379 -0.414646,-0.18157 l 0.152901,-0.62539 z m 2.706909,0.49801 c 0.444428,1.12518 0.342844,2.55153 -0.386227,3.81643 -0.72791,1.26284 -1.907538,2.06378 -3.100586,2.24257 1.400454,0.0201 2.76992,-0.69943 3.519951,-2.00067 0.751019,-1.30301 0.687036,-2.85287 -0.0331,-4.05838 z m -5.332012,0.2134 0.431512,0.45054 c -0.106779,0.11266 -0.202444,0.23961 -0.283422,0.38006 -0.0876,0.15197 -0.152372,0.31058 -0.196842,0.47224 l -0.602636,-0.1484 c 0.05881,-0.21858 0.146635,-0.43335 0.265146,-0.63891 0.110119,-0.19111 0.240264,-0.3635 0.38622,-0.51559 z m 4.226101,0.5603 c 0.215737,0.39203 0.330079,0.83375 0.330079,1.28188 l -0.666905,-0.0141 c -0.0015,-0.32218 -0.08,-0.6397 -0.22863,-0.9248 l 0.565456,-0.34283 z m -4.96811,1.33741 0.622925,0.0136 c 0.01274,0.32558 0.104487,0.64464 0.267174,0.92748 l -0.53774,0.32594 c -0.221415,-0.38584 -0.342843,-0.82255 -0.352359,-1.26697 z m 4.543988,0.52509 0.64795,0.15918 c -0.05851,0.20034 -0.14135,0.39712 -0.250255,0.58606 -0.117101,0.20314 -0.256701,0.38507 -0.413959,0.54407 l -0.460623,-0.48105 c 0.111786,-0.11585 0.211523,-0.24711 0.295584,-0.39297 0.07739,-0.13419 0.137677,-0.27318 0.18128,-0.4153 z m -3.276468,0.8889 c 0.106651,0.0982 0.225757,0.18593 0.356483,0.26148 0.151663,0.0878 0.31006,0.15339 0.47142,0.19784 l -0.153571,0.62674 c -0.210904,-0.059 -0.418265,-0.14461 -0.616879,-0.25947 -0.190817,-0.11036 -0.362838,-0.24068 -0.514706,-0.38687 z m 2.325425,0.28249 0.342285,0.56708 c -0.384983,0.21411 -0.818297,0.32874 -1.258758,0.33336 l 0.01357,-0.65314 c 0.315791,-0.0104 0.625828,-0.0949 0.90297,-0.24727 z"
       style="font-variation-settings:normal;display:inline;vector-effect:none;fill:#000000;fill-opacity:1;stroke:none;stroke-width:0.16238;stroke-linecap:butt;stroke-linejoin:miter;stroke-miterlimit:4;stroke-dasharray:none;stroke-dashoffset:0;stroke-opacity:1;stop-color:#000000"
       inkscape:connector-curvature="0" />
    <path
       inkscape:connector-curvature="0"
       id="path12639"
       style="font-style:normal;font-variant:normal;font-weight:normal;font-stretch:normal;font-size:medium;line-height:1.25;font-family:'Archivo Narrow';-inkscape-font-specification:'Archivo Narrow';font-variation-settings:normal;letter-spacing:0px;word-spacing:0px;display:inline;vector-effect:none;fill:#000000;fill-opacity:1;stroke:none;stroke-width:0.264583;stroke-linecap:butt;stroke-linejoin:miter;stroke-miterlimit:4;stroke-dasharray:none;stroke-dashoffset:0;stroke-opacity:1;paint-order:markers fill stroke;stop-color:#000000"
       d="m 119.30405,182.02518 h -8.91737 q -0.0932,0 -0.17,-0.0548 -0.0713,-0.0548 -0.11516,-0.13165 -0.0439,-0.0767 -0.0439,-0.16444 0,-0.0823 0.0439,-0.17 l 4.4532,-7.90825 q 0.0439,-0.0768 0.12065,-0.11512 0.0767,-0.0384 0.16451,-0.0384 0.0877,0 0.16452,0.0384 0.0767,0.0384 0.12065,0.11512 l 4.46416,7.90825 q 0.044,0.0877 0.044,0.17 0,0.0877 -0.044,0.16444 -0.044,0.0767 -0.12064,0.13165 -0.0713,0.0548 -0.16453,0.0548 z m -8.347,-0.70198 h 7.76566 l -3.88283,-6.87726 z m 4.39287,-1.99629 h -1.02008 v -3.04373 h 1.02008 z m 0.15354,0.99813 q 0,0.14249 -0.0548,0.26323 -0.0493,0.12067 -0.14258,0.21387 -0.0877,0.0877 -0.2084,0.14268 -0.12065,0.0492 -0.25776,0.0492 -0.13709,0 -0.25777,-0.0492 -0.12064,-0.0548 -0.20839,-0.14268 -0.0877,-0.0932 -0.13711,-0.21387 -0.0494,-0.12067 -0.0494,-0.26323 0,-0.13712 0.0494,-0.26324 0.0493,-0.12609 0.13711,-0.21387 0.0877,-0.0932 0.20839,-0.14801 0.12067,-0.0548 0.25777,-0.0548 0.13711,0 0.25776,0.0548 0.12064,0.0548 0.2084,0.14801 0.0932,0.0876 0.14258,0.21387 0.0548,0.1261 0.0548,0.26324 z" />
    <path
       d="m 93.904059,182.02518 h -8.917372 q -0.0932,0 -0.17,-0.0548 -0.0713,-0.0548 -0.11516,-0.13165 -0.0439,-0.0767 -0.0439,-0.16444 0,-0.0823 0.0439,-0.17 l 4.453202,-7.90825 q 0.0439,-0.0768 0.12065,-0.11512 0.0767,-0.0384 0.16451,-0.0384 0.0877,0 0.16452,0.0384 0.0767,0.0384 0.12065,0.11512 l 4.46416,7.90825 q 0.044,0.0877 0.044,0.17 0,0.0877 -0.044,0.16444 -0.044,0.0767 -0.12064,0.13165 -0.0713,0.0548 -0.16453,0.0548 z m -8.347002,-0.70198 h 7.765662 l -3.88283,-6.87726 z m 4.392872,-1.99629 h -1.02008 v -3.04373 h 1.02008 z m 0.15354,0.99813 q 0,0.14249 -0.0548,0.26323 -0.0493,0.12067 -0.14258,0.21387 -0.0877,0.0877 -0.2084,0.14268 -0.12065,0.0492 -0.25776,0.0492 -0.13709,0 -0.25777,-0.0492 -0.12064,-0.0548 -0.20839,-0.14268 -0.0877,-0.0932 -0.13711,-0.21387 -0.0494,-0.12067 -0.0494,-0.26323 0,-0.13712 0.0494,-0.26324 0.0493,-0.12609 0.13711,-0.21387 0.0877,-0.0932 0.20839,-0.14801 0.12067,-0.0548 0.25777,-0.0548 0.13711,0 0.25776,0.0548 0.12064,0.0548 0.2084,0.14801 0.0932,0.0876 0.14258,0.21387 0.0548,0.1261 0.0548,0.26324 z"
       style="font-style:normal;font-variant:normal;font-weight:normal;font-stretch:normal;font-size:medium;line-height:1.25;font-family:'Archivo Narrow';-inkscape-font-specification:'Archivo Narrow';font-variation-settings:normal;letter-spacing:0px;word-spacing:0px;display:inline;vector-effect:none;fill:#000000;fill-opacity:1;stroke:none;stroke-width:0.264583;stroke-linecap:butt;stroke-linejoin:miter;stroke-miterlimit:4;stroke-dasharray:none;stroke-dashoffset:0;stroke-opacity:1;paint-order:markers fill stroke;stop-color:#000000"
       id="path12641"
       inkscape:connector-curvature="0" />
    <path
       id="path12643"
       style="font-variation-settings:normal;vector-effect:none;fill:#000000;fill-opacity:1;stroke:none;stroke-width:0.264583;stroke-linecap:butt;stroke-linejoin:miter;stroke-miterlimit:4;stroke-dasharray:none;stroke-dashoffset:0;stroke-opacity:1;paint-order:markers fill stroke;stop-color:#000000"
       d="m 11.569654,194.9645 h 3.86402 v 0.80372 l 1.48933,-1.42233 -1.48933,-1.42234 v 0.80372 h -3.86402 z"
       sodipodi:nodetypes="cccccccc" />
    <path
       style="font-style:normal;font-weight:normal;font-size:28.715px;line-height:125%;font-family:sans-serif;font-variation-settings:normal;letter-spacing:0px;word-spacing:0px;display:inline;vector-effect:none;fill:#000000;fill-opacity:1;stroke:none;stroke-width:0.264583;stroke-linecap:butt;stroke-linejoin:miter;stroke-miterlimit:4;stroke-dasharray:none;stroke-dashoffset:0;stroke-opacity:1;stop-color:#000000"
       inkscape:connector-curvature="0"
       d="m 16.666237,187.12531 q 0.435215,0.44022 0.650325,0.9805 0.215106,0.54026 0.215106,1.11054 0,0.57028 -0.215106,1.11055 -0.21511,0.54027 -0.650325,0.97049 -0.09004,0.085 -0.210104,0.085 -0.05503,0 -0.110053,-0.02 -0.05002,-0.02 -0.08505,-0.065 -0.09505,-0.08 -0.09505,-0.2051 0,-0.12506 0.09505,-0.2051 0.345172,-0.35018 0.515256,-0.7854 0.175085,-0.43521 0.175085,-0.89043 0,-0.45523 -0.175085,-0.88544 -0.170084,-0.43523 -0.520258,-0.78539 -0.09005,-0.09 -0.09005,-0.21011 0,-0.12506 0.09505,-0.2051 0.08505,-0.085 0.2001,-0.085 0.12006,0 0.205102,0.085 z m -0.995493,0.75037 q 0.270133,0.27014 0.410204,0.61531 0.140068,0.34518 0.140068,0.72536 0,0.37018 -0.140068,0.71536 -0.140071,0.34016 -0.410204,0.6103 -0.05002,0.04 -0.105052,0.065 -0.05002,0.025 -0.105057,0.025 -0.05502,0 -0.110053,-0.025 -0.05502,-0.025 -0.10005,-0.065 -0.08504,-0.085 -0.08504,-0.2051 0,-0.11506 0.08504,-0.2101 0.185093,-0.1851 0.290145,-0.41521 0.105052,-0.23512 0.105052,-0.49525 0,-0.26013 -0.105052,-0.50025 -0.105052,-0.24012 -0.290145,-0.42521 -0.08504,-0.085 -0.08504,-0.2051 0,-0.11506 0.08504,-0.21011 0.09505,-0.085 0.210103,-0.085 0.115061,0 0.210109,0.085 z m 1.980982,-1.48073 q 0.565281,0.56528 0.860429,1.29063 0.295147,0.72537 0.295147,1.53077 0,0.7954 -0.295147,1.52076 -0.295148,0.72035 -0.860429,1.28564 -0.09005,0.085 -0.210105,0.085 -0.125059,0 -0.210104,-0.085 -0.08504,-0.085 -0.08504,-0.20511 0,-0.11506 0.09005,-0.20509 0.480236,-0.48025 0.735363,-1.10055 0.255128,-0.62031 0.255128,-1.29565 0,-0.68534 -0.255128,-1.30065 -0.255127,-0.6153 -0.740367,-1.10054 -0.08504,-0.095 -0.08504,-0.21511 0,-0.11005 0.08504,-0.2051 0.08004,-0.08 0.205103,-0.08 0.120058,0 0.215106,0.08 z m -3.386684,-0.39019 q 0.120063,-0.09 0.225116,-0.09 0.09504,0 0.150074,0.08 0.05503,0.0751 0.05503,0.22012 v 5.99296 q 0,0.14509 -0.06003,0.22512 -0.06003,0.0751 -0.155078,0.0751 -0.110053,0 -0.22511,-0.095 -0.515256,-0.4002 -0.920458,-0.71536 -0.175085,-0.13507 -0.340167,-0.26013 -0.165084,-0.13006 -0.300149,-0.23011 -0.130066,-0.10005 -0.21511,-0.16508 -0.08004,-0.065 -0.08504,-0.065 h -1.955977 q -0.04502,0 -0.08004,-0.04 -0.03001,-0.045 -0.03001,-0.10004 v -3.27163 q 0,-0.055 0.03001,-0.085 0.03504,-0.035 0.08004,-0.035 h 1.980982 q 0,-0.005 0.08005,-0.07 0.08504,-0.065 0.215106,-0.16508 0.130067,-0.10506 0.295149,-0.23011 0.16508,-0.13007 0.340165,-0.26514 0.405202,-0.31015 0.915455,-0.71035 z"
       id="path8860-7" />
    <rect
       y="196.78384"
       x="6.807312"
       height="12.7"
       width="12.7"
       id="rect338"
       style="font-variation-settings:normal;opacity:0.75;vector-effect:none;fill:#f9f6f1;fill-opacity:1;stroke:#080808;stroke-width:1.05833;stroke-linecap:round;stroke-linejoin:miter;stroke-miterlimit:4;stroke-dasharray:none;stroke-dashoffset:0;stroke-opacity:1;paint-order:markers fill stroke;stop-color:#000000" />
    <rect
       style="font-variation-settings:normal;opacity:0.75;vector-effect:none;fill:#f9f6f1;fill-opacity:1;stroke:#080808;stroke-width:1.05833;stroke-linecap:round;stroke-linejoin:miter;stroke-miterlimit:4;stroke-dasharray:none;stroke-dashoffset:0;stroke-opacity:1;paint-order:markers fill stroke;stop-color:#000000"
       id="rect340"
       width="12.7"
       height="12.7"
       x="19.507313"
       y="196.78384" />
    <rect
       style="font-variation-settings:normal;opacity:0.75;vector-effect:none;fill:#f9f6f1;fill-opacity:1;stroke:#080808;stroke-width:1.05833;stroke-linecap:round;stroke-linejoin:miter;stroke-miterlimit:4;stroke-dasharray:none;stroke-dashoffset:0;stroke-opacity:1;paint-order:markers fill stroke;stop-color:#000000"
       id="rect342"
       width="12.7"
       height="12.7"
       x="32.20731"
       y="196.78384" />
    <rect
       y="196.78384"
       x="44.907307"
       height="12.7"
       width="12.7"
       id="rect344"
       style="font-variation-settings:normal;opacity:0.75;vector-effect:none;fill:#f9f6f1;fill-opacity:1;stroke:#080808;stroke-width:1.05833;stroke-linecap:round;stroke-linejoin:miter;stroke-miterlimit:4;stroke-dasharray:none;stroke-dashoffset:0;stroke-opacity:1;paint-order:markers fill stroke;stop-color:#000000" />
    <text
       xml:space="preserve"
       style="font-size:6.22078px;line-height:1.25;font-family:'Archivo Narrow';-inkscape-font-specification:'Archivo Narrow';letter-spacing:0px;word-spacing:0px;stroke-width:0.264583"
       x="-139.82536"
       y="154.89029"
       id="text12513"
       transform="rotate(-45)"><tspan
         sodipodi:role="line"
         x="-139.82536"
         y="154.89029"
         style="stroke-width:0.264583"
         id="tspan12511">Start</tspan></text>
    <path
       inkscape:connector-curvature="0"
       id="path346"
       style="font-style:normal;font-variant:normal;font-weight:normal;font-stretch:normal;font-size:medium;line-height:1.25;font-family:'Archivo Narrow';-inkscape-font-specification:'Archivo Narrow';font-variation-settings:normal;letter-spacing:0px;word-spacing:0px;display:inline;vector-effect:none;fill:#000000;fill-opacity:1;stroke:none;stroke-width:0.264583;stroke-linecap:butt;stroke-linejoin:miter;stroke-miterlimit:4;stroke-dasharray:none;stroke-dashoffset:0;stroke-opacity:1;paint-order:markers fill stroke;stop-color:#000000"
       d="m 68.470977,182.02517 h -8.917371 q -0.0932,0 -0.17,-0.0548 -0.0713,-0.0548 -0.11516,-0.13165 -0.0439,-0.0767 -0.0439,-0.16444 0,-0.0823 0.0439,-0.17 l 4.453201,-7.90825 q 0.0439,-0.0768 0.12065,-0.11512 0.0767,-0.0384 0.16451,-0.0384 0.0877,0 0.16452,0.0384 0.0767,0.0384 0.12065,0.11512 l 4.46416,7.90825 q 0.044,0.0877 0.044,0.17 0,0.0877 -0.044,0.16444 -0.044,0.0767 -0.12064,0.13165 -0.0713,0.0548 -0.16453,0.0548 z m -8.347001,-0.70198 h 7.765661 l -3.88283,-6.87726 z m 4.392871,-1.99629 h -1.02008 v -3.04373 h 1.02008 z m 0.15354,0.99813 q 0,0.14249 -0.0548,0.26323 -0.0493,0.12067 -0.14258,0.21387 -0.0877,0.0877 -0.2084,0.14268 -0.12065,0.0492 -0.25776,0.0492 -0.13709,0 -0.25777,-0.0492 -0.12064,-0.0548 -0.20839,-0.14268 -0.0877,-0.0932 -0.13711,-0.21387 -0.0494,-0.12067 -0.0494,-0.26323 0,-0.13712 0.0494,-0.26324 0.0493,-0.12609 0.13711,-0.21387 0.0877,-0.0932 0.20839,-0.14801 0.12067,-0.0548 0.25777,-0.0548 0.13711,0 0.25776,0.0548 0.12064,0.0548 0.2084,0.14801 0.0932,0.0876 0.14258,0.21387 0.0548,0.1261 0.0548,0.26324 z" />
  </g>
</svg>
