<?xml version="1.0" encoding="UTF-8" standalone="no"?>
<svg
   xmlns:dc="http://purl.org/dc/elements/1.1/"
   xmlns:cc="http://creativecommons.org/ns#"
   xmlns:rdf="http://www.w3.org/1999/02/22-rdf-syntax-ns#"
   xmlns:svg="http://www.w3.org/2000/svg"
   xmlns="http://www.w3.org/2000/svg"
   xmlns:xlink="http://www.w3.org/1999/xlink"
   xmlns:sodipodi="http://sodipodi.sourceforge.net/DTD/sodipodi-0.dtd"
   xmlns:inkscape="http://www.inkscape.org/namespaces/inkscape"
   inkscape:export-ydpi="96"
   inkscape:export-xdpi="96"
   inkscape:export-filename="C:\code\timber-wolf\img\npc shadows.png"
   sodipodi:docname="npc-color.svg"
   inkscape:version="1.0.1 (3bc2e813f5, 2020-09-07)"
   version="1.1"
   id="svg2"
   viewBox="0 0 825.00007 1125"
   height="1125"
   width="825">
  <defs
     id="defs4">
    <linearGradient
       inkscape:collect="always"
       id="linearGradient2457">
      <stop
         style="stop-color:#666666;stop-opacity:1;"
         offset="0"
         id="stop2453" />
      <stop
         style="stop-color:#818181;stop-opacity:0"
         offset="1"
         id="stop2455" />
    </linearGradient>
    <linearGradient
       id="linearGradient2424"
       inkscape:collect="always">
      <stop
         id="stop2420"
         offset="0"
         style="stop-color:#666666;stop-opacity:1;" />
      <stop
         id="stop2422"
         offset="1"
         style="stop-color:#666666;stop-opacity:0;" />
    </linearGradient>
    <inkscape:path-effect
       overflow_perspective="false"
       vertical_mirror="false"
       horizontal_mirror="false"
       deform_type="perspective"
       is_visible="true"
       id="path-effect2386"
       down_right_point="189.35666,-56.304737"
       down_left_point="129.71275,-53.986354"
       up_right_point="232.2141,-159.96475"
       up_left_point="207.24647,-168.19412"
       effect="perspective-envelope" />
    <marker
       inkscape:isstock="true"
       style="overflow:visible"
       id="Arrow1Lstart"
       refX="0"
       refY="0"
       orient="auto"
       inkscape:stockid="Arrow1Lstart">
      <path
         inkscape:connector-curvature="0"
         transform="matrix(0.8,0,0,0.8,10,0)"
         style="fill-rule:evenodd;stroke:#000000;stroke-width:1pt"
         d="M 0,0 5,-5 -12.5,0 5,5 0,0 Z"
         id="path6203" />
    </marker>
    <linearGradient
       id="linearGradient6162">
      <stop
         id="stop6164"
         offset="0"
         style="stop-color:#000000;stop-opacity:1;" />
      <stop
         id="stop6166"
         offset="1"
         style="stop-color:#000000;stop-opacity:0;" />
    </linearGradient>
    <linearGradient
       id="linearGradient6453-9">
      <stop
         id="stop5160"
         offset="0"
         style="stop-color:#ffb6b6;stop-opacity:1;" />
      <stop
         id="stop5162"
         offset="1"
         style="stop-color:#fa2424;stop-opacity:1;" />
    </linearGradient>
    <linearGradient
       id="linearGradient6453">
      <stop
         style="stop-color:#ffffff;stop-opacity:1.0000000"
         offset="0.00000000"
         id="stop6455" />
      <stop
         style="stop-color:#000000;stop-opacity:1.0000000"
         offset="1.0000000"
         id="stop6457" />
    </linearGradient>
    <radialGradient
       cx="171.2081"
       cy="196.85463"
       r="200"
       fx="171.2081"
       fy="196.85463"
       id="radialGradient6459"
       xlink:href="#linearGradient6453-9"
       gradientUnits="userSpaceOnUse"
       gradientTransform="matrix(0.05945241,0.04549877,-0.04654385,0.06081801,-283.54417,231.93065)" />
    <filter
       height="1.1217592"
       y="-0.060879581"
       width="1.0511121"
       x="-0.025556045"
       id="filter5473"
       style="color-interpolation-filters:sRGB"
       inkscape:collect="always">
      <feGaussianBlur
         id="feGaussianBlur5475"
         stdDeviation="1.7303572"
         inkscape:collect="always" />
    </filter>
    <filter
       height="1.2174"
       y="-0.1087"
       width="1.0431443"
       x="-0.021572215"
       id="filter5504"
       style="color-interpolation-filters:sRGB"
       inkscape:collect="always">
      <feGaussianBlur
         id="feGaussianBlur5506"
         stdDeviation="4.7251539"
         inkscape:collect="always" />
    </filter>
    <marker
       inkscape:stockid="Arrow1Lend"
       orient="auto"
       refY="0.0"
       refX="0.0"
       id="Arrow1Lend"
       style="overflow:visible;"
       inkscape:isstock="true">
      <path
         id="path5387"
         d="M 0.0,0.0 L 5.0,-5.0 L -12.5,0.0 L 5.0,5.0 L 0.0,0.0 z "
         style="fill-rule:evenodd;stroke:#000000;stroke-width:1.0pt;"
         transform="scale(0.8) rotate(180) translate(12.5,0)" />
    </marker>
    <marker
       inkscape:stockid="Arrow1Lstart"
       orient="auto"
       refY="0.0"
       refX="0.0"
       id="Arrow1Lstart-8"
       style="overflow:visible"
       inkscape:isstock="true">
      <path
         id="path5384"
         d="M 0.0,0.0 L 5.0,-5.0 L -12.5,0.0 L 5.0,5.0 L 0.0,0.0 z "
         style="fill-rule:evenodd;stroke:#000000;stroke-width:1.0pt"
         transform="scale(0.8) translate(12.5,0)" />
    </marker>
    <inkscape:perspective
       sodipodi:type="inkscape:persp3d"
       inkscape:vp_x="0 : 562.5 : 1"
       inkscape:vp_y="0 : 1000 : 0"
       inkscape:vp_z="825.00001 : 562.5 : 1"
       inkscape:persp3d-origin="412.5 : 375 : 1"
       id="perspective10399" />
    <filter
       height="1.0733119"
       y="-0.036655931"
       width="1.0707343"
       x="-0.035367131"
       id="filter5058"
       style="color-interpolation-filters:sRGB"
       inkscape:collect="always">
      <feGaussianBlur
         id="feGaussianBlur5060"
         stdDeviation="7.3862705"
         inkscape:collect="always" />
    </filter>
    <linearGradient
       gradientTransform="translate(239.80857,143.63933)"
       spreadMethod="reflect"
       gradientUnits="userSpaceOnUse"
       y2="137.01984"
       x2="-241.40161"
       y1="122.24019"
       x1="-241.40161"
       id="linearGradient2426"
       xlink:href="#linearGradient2424"
       inkscape:collect="always" />
    <linearGradient
       spreadMethod="reflect"
       y2="137.01984"
       x2="-241.40161"
       y1="122.24019"
       x1="-241.40161"
       gradientTransform="rotate(-30,-366.15815,173.51788)"
       gradientUnits="userSpaceOnUse"
       id="linearGradient2451"
       xlink:href="#linearGradient2457"
       inkscape:collect="always" />
    <filter
       height="1.0894026"
       y="-0.044701304"
       width="1.0602685"
       x="-0.030134239"
       id="filter5204"
       style="color-interpolation-filters:sRGB"
       inkscape:collect="always">
      <feGaussianBlur
         id="feGaussianBlur5206"
         stdDeviation="2.7198112"
         inkscape:collect="always" />
    </filter>
    <filter
       height="1.0996753"
       y="-0.049837645"
       width="1.0563533"
       x="-0.028176632"
       id="filter5222"
       style="color-interpolation-filters:sRGB"
       inkscape:collect="always">
      <feGaussianBlur
         id="feGaussianBlur5224"
         stdDeviation="2.5599283"
         inkscape:collect="always" />
    </filter>
  </defs>
  <sodipodi:namedview
     inkscape:document-rotation="0"
     inkscape:snap-global="false"
     inkscape:guide-bbox="true"
     showguides="true"
     inkscape:window-maximized="1"
     inkscape:window-y="-8"
     inkscape:window-x="-8"
     inkscape:window-height="1017"
     inkscape:window-width="1920"
     units="px"
     showgrid="false"
     inkscape:current-layer="layer3"
     inkscape:document-units="px"
     inkscape:cy="362.02759"
     inkscape:cx="513.15001"
     inkscape:zoom="1.3081475"
     inkscape:pageshadow="2"
     inkscape:pageopacity="0.0"
     borderopacity="1.0"
     bordercolor="#666666"
     pagecolor="#ffffff"
     id="base">
    <sodipodi:guide
       inkscape:locked="false"
       inkscape:color="rgb(0,0,255)"
       inkscape:label=""
       id="guide5098"
       orientation="1,0"
       position="75.000007,587.90879" />
    <sodipodi:guide
       inkscape:locked="false"
       inkscape:color="rgb(0,0,255)"
       inkscape:label=""
       id="guide4596"
       orientation="0,1"
       position="471.65937,1049.3205" />
    <sodipodi:guide
       inkscape:locked="false"
       inkscape:color="rgb(0,0,255)"
       inkscape:label=""
       id="guide4902"
       orientation="0,1"
       position="904.1694,75" />
    <sodipodi:guide
       inkscape:color="rgb(0,0,255)"
       inkscape:label=""
       inkscape:locked="false"
       id="guide4447"
       orientation="1,0"
       position="750.00003,438.52459" />
    <sodipodi:guide
       inkscape:locked="false"
       id="guide5178"
       orientation="0,1"
       position="731.14758,196.72131" />
  </sodipodi:namedview>
  <metadata
     id="metadata7">
    <rdf:RDF>
      <cc:Work
         rdf:about="">
        <dc:format>image/svg+xml</dc:format>
        <dc:type
           rdf:resource="http://purl.org/dc/dcmitype/StillImage" />
        <dc:title />
      </cc:Work>
    </rdf:RDF>
  </metadata>
  <g
     style="display:none"
     inkscape:label="shadows"
     id="layer3"
     inkscape:groupmode="layer">
    <path
       sodipodi:nodetypes="ccccc"
       inkscape:connector-curvature="0"
       id="rect5044"
       d="m 89.697285,108.69531 490.056955,-6.56109 -2.4865,475.79001 -496.140102,1.26723 z"
       style="opacity:1;fill:#000000;fill-opacity:1;fill-rule:nonzero;stroke:none;stroke-width:1.29975;stroke-linecap:round;stroke-linejoin:round;stroke-miterlimit:4;stroke-dasharray:none;stroke-dashoffset:0;stroke-opacity:1;filter:url(#filter5058)"
       transform="matrix(1.2075066,0.02589228,-0.02364033,1.1024853,20.516799,247.94006)" />
    <path
       transform="matrix(1.6474453,0.01916315,-0.03146503,0.99158789,-544.7328,331.2344)"
       sodipodi:nodetypes="ccccccc"
       inkscape:connector-curvature="0"
       id="path5483"
       d="m 542.88699,-105.7517 184.65522,0.29389 12.6697,-0.40983 -0.4099,54.484764 -14.84707,5.87351 -181.46439,8.26584 z"
       style="opacity:1;fill:#000000;fill-opacity:1;fill-rule:nonzero;stroke:none;stroke-width:0.880385;stroke-linecap:round;stroke-linejoin:round;stroke-miterlimit:4;stroke-dasharray:none;stroke-dashoffset:0;stroke-opacity:1;filter:url(#filter5473)" />
    <path
       transform="matrix(1.2403199,0,0,1.2496442,-184.82454,360.76715)"
       sodipodi:nodetypes="ccccccc"
       inkscape:connector-curvature="0"
       id="path4598"
       d="m 228.32392,-216.19739 h 478.7461 l 30.71849,1.15919 5.21636,84.04138 -47.2405,13.79879 -467.44045,5.32787 z"
       style="opacity:1;fill:#000000;fill-opacity:1;fill-rule:nonzero;stroke:none;stroke-width:1.13365;stroke-linecap:round;stroke-linejoin:round;stroke-miterlimit:4;stroke-dasharray:none;stroke-dashoffset:0;stroke-opacity:1;filter:url(#filter5504)" />
    <path
       transform="rotate(0.57144309,-29893.621,832.73243)"
       sodipodi:nodetypes="ccccc"
       inkscape:connector-curvature="0"
       id="path5208"
       d="m 85.500426,630.94482 -7.434298,123.27685 215.171002,-0.0516 -0.097,-121.10098 z"
       style="display:inline;fill:#000000;fill-opacity:1;stroke:none;stroke-width:1.91184;stroke-miterlimit:4;stroke-dasharray:none;stroke-dashoffset:0;stroke-opacity:1;filter:url(#filter5222)" />
    <path
       transform="rotate(0.91854214,-18067.407,831.57984)"
       sodipodi:nodetypes="ccccccc"
       inkscape:connector-curvature="0"
       id="path5182"
       d="m 749.08999,610.48981 -204.4593,-1.92291 0.0677,21.6753 -7.75312,122.14939 216.61562,2.20118 -4.56487,-123.07783 z"
       style="display:inline;fill:#000000;fill-opacity:1;stroke:none;stroke-width:1.91184;stroke-miterlimit:4;stroke-dasharray:none;stroke-dashoffset:0;stroke-opacity:1;filter:url(#filter5204)" />
    <path
       style="display:inline;fill:#000000;fill-opacity:1;stroke:none;stroke-width:1.91184;stroke-miterlimit:4;stroke-dasharray:none;stroke-dashoffset:0;stroke-opacity:1;filter:url(#filter5204)"
       d="m 749.08999,610.48981 -204.4593,-1.92291 0.0677,21.6753 -7.75312,122.14939 216.61562,2.20118 -4.56487,-123.07783 z"
       id="path4644"
       inkscape:connector-curvature="0"
       sodipodi:nodetypes="ccccccc"
       transform="rotate(0.91854214,-18180.915,-13328.67)" />
  </g>
  <g
     style="display:inline"
     transform="translate(0,300.00002)"
     inkscape:label="character"
     id="layer2"
     inkscape:groupmode="layer">
    <path
       sodipodi:nodetypes="ccccccc"
       inkscape:connector-curvature="0"
       id="rect5040"
       d="M 119.69064,19.173158 724.92859,32.151133 723.8934,80.427814 698.02725,595.55319 93.801709,578.53164 C 102.60049,425.61762 112.68928,311.98432 118.64303,68.029302 Z"
       style="opacity:1;vector-effect:none;fill:#fdd1e8;fill-opacity:1;fill-rule:nonzero;stroke:none;stroke-width:1.5;stroke-linecap:round;stroke-linejoin:round;stroke-miterlimit:4;stroke-dasharray:none;stroke-dashoffset:0;stroke-opacity:1" />
    <path
       style="opacity:1;fill:#96e1b0;fill-opacity:1;fill-rule:nonzero;stroke:none;stroke-width:1.5;stroke-linecap:round;stroke-linejoin:round;stroke-miterlimit:4;stroke-dasharray:none;stroke-dashoffset:0;stroke-opacity:1"
       d="m 342.98973,-69.455911 175.35679,4.28893 135.06161,1.7611 32.01314,0.37237 -2.14635,67.6404609 -30.90377,-0.359475 -132.51343,-1.715243 -180.84205,-4.572226 z"
       id="path5485"
       inkscape:connector-curvature="0"
       sodipodi:nodetypes="ccccccccc" />
    <text
       transform="matrix(1.2887235,0.01499049,-0.02461369,0.77567533,0,0)"
       xml:space="preserve"
       style="font-style:normal;font-weight:normal;font-size:44.573px;line-height:125%;font-family:sans-serif;letter-spacing:0px;word-spacing:0px;fill:#000000;fill-opacity:1;stroke:none;stroke-width:1px;stroke-linecap:butt;stroke-linejoin:miter;stroke-opacity:1"
       x="326.10925"
       y="-36.140614"
       id="text5479"><tspan
         sodipodi:role="line"
         id="tspan5481"
         x="326.10925"
         y="-36.140614"
         style="font-style:normal;font-variant:normal;font-weight:normal;font-stretch:normal;font-family:'Archivo Narrow';-inkscape-font-specification:'Archivo Narrow';stroke-width:1px">Amateur</tspan></text>
    <path
       style="opacity:1;fill:#b7d8c4;fill-opacity:1;fill-rule:nonzero;stroke:none;stroke-width:1.5;stroke-linecap:round;stroke-linejoin:round;stroke-miterlimit:4;stroke-dasharray:none;stroke-dashoffset:0;stroke-opacity:1"
       d="m 86.353297,-228.16783 104.618513,4.09718 155.03997,3.58505 338.71477,3.58503 h 58.22951 V -86.528639 H 685.44542 L 343.24971,-88.186982 191.57148,-89.767189 86.948776,-95.007958 Z"
       id="path4600"
       inkscape:connector-curvature="0"
       sodipodi:nodetypes="ccccccccccc" />
    <path
       id="path4801"
       d="m 74.87796,575.39564 326.99051,-7.537 3.9957,173.3507 -326.99058,7.537 z"
       style="fill:none;fill-opacity:1;stroke:none;stroke-width:1.90771;stroke-miterlimit:4;stroke-dasharray:none;stroke-dashoffset:0;stroke-opacity:1"
       inkscape:connector-curvature="0" />
    <path
       style="fill:#f1feae;fill-opacity:1;stroke:none;stroke-width:1.91184;stroke-miterlimit:4;stroke-dasharray:none;stroke-dashoffset:0;stroke-opacity:1"
       d="m 754.24783,610.22792 -212.40117,-5.32857 -0.27978,21.6736 -7.38399,118.53274 216.22594,9.18216 3.40799,-123.039 z"
       id="path1180"
       inkscape:connector-curvature="0"
       sodipodi:nodetypes="ccccccc" />
    <path
       sodipodi:nodetypes="ccccccccc"
       inkscape:connector-curvature="0"
       id="path4744"
       d="m 342.98973,-69.455911 175.35679,4.28893 135.06161,1.7611 32.01314,0.37237 -2.14635,67.6404609 -30.90377,-0.359475 -132.51343,-1.715243 -180.84205,-4.572226 z"
       style="opacity:1;fill:#b7d8c4;fill-opacity:1;fill-rule:nonzero;stroke:none;stroke-width:1.5;stroke-linecap:round;stroke-linejoin:round;stroke-miterlimit:4;stroke-dasharray:none;stroke-dashoffset:0;stroke-opacity:1" />
    <path
       style="fill:#f1feae;fill-opacity:1;stroke:none;stroke-width:1.91184;stroke-miterlimit:4;stroke-dasharray:none;stroke-dashoffset:0;stroke-opacity:1"
       d="m 296.17371,606.33027 -212.165279,-1.25817 -0.27973,24.85358 -6.316844,117.86863 212.307843,3.99637 6.88317,-117.61741 z"
       id="path4584"
       inkscape:connector-curvature="0"
       sodipodi:nodetypes="ccccccc" />
    <g
       style="display:inline;stroke-width:1.38033"
       id="g3504"
       transform="matrix(0.72085148,-0.07243378,0.07243679,0.72081628,151.05915,332.98376)">
      <g
         id="g3502"
         style="stroke-width:1.38033">
        <path
           style="opacity:1;vector-effect:none;fill:#1a1a1a;fill-opacity:1;fill-rule:nonzero;stroke:none;stroke-width:0.690165;stroke-linecap:round;stroke-linejoin:round;stroke-miterlimit:4;stroke-dasharray:none;stroke-dashoffset:0;stroke-opacity:1"
           d="m 517.34444,445.04666 24.91899,-8.53959 c 0,0 4.87889,10.55304 5.17885,13.17987 0.29996,2.62683 -0.41656,26.69933 -0.41656,26.69933 0.005,1.58956 -1.27317,2.7797 -2.85971,2.87894 0,0 -24.08366,0.33346 -27.12797,-0.0524 -3.0443,-0.38588 -12.53284,-3.04049 -12.53284,-3.04049 l 8.1879,-26.44306 z"
           id="path3494"
           inkscape:connector-curvature="0"
           sodipodi:nodetypes="cczsszccc" />
        <rect
           transform="matrix(0.99999843,-0.00176943,0.0017624,0.99999845,0,0)"
           ry="4.5731845"
           y="435.26782"
           x="500.46609"
           height="41.977966"
           width="41.979279"
           id="rect3496"
           style="opacity:1;vector-effect:none;fill:#ffffff;fill-opacity:1;fill-rule:nonzero;stroke:#000000;stroke-width:0.345083;stroke-linecap:round;stroke-linejoin:round;stroke-miterlimit:4;stroke-dasharray:none;stroke-dashoffset:0;stroke-opacity:1" />
        <text
           transform="rotate(-0.14324406)"
           id="text3500"
           y="470.01593"
           x="521.38367"
           style="font-style:normal;font-variant:normal;font-weight:normal;font-stretch:normal;font-size:37.3333px;line-height:25px;font-family:'Archivo Narrow';-inkscape-font-specification:'Archivo Narrow, Normal';text-align:center;letter-spacing:0px;word-spacing:0px;writing-mode:lr-tb;text-anchor:middle;fill:#000000;fill-opacity:1;stroke:none;stroke-width:1.38033px;stroke-linecap:butt;stroke-linejoin:miter;stroke-opacity:1"
           xml:space="preserve"><tspan
             style="font-style:normal;font-variant:normal;font-weight:normal;font-stretch:normal;font-family:'Archivo Black';-inkscape-font-specification:'Archivo Black, ';stroke-width:1.38033px"
             y="470.01593"
             x="521.38367"
             id="tspan3498"
             sodipodi:role="line">?</tspan></text>
      </g>
    </g>
    <g
       style="display:inline;stroke-width:1.38033"
       id="g4478"
       transform="matrix(0.72085148,-0.07243378,0.07243679,0.72081628,-305.11118,332.99476)">
      <g
         id="g4476"
         style="stroke-width:1.38033">
        <path
           style="opacity:1;vector-effect:none;fill:#1a1a1a;fill-opacity:1;fill-rule:nonzero;stroke:none;stroke-width:0.690165;stroke-linecap:round;stroke-linejoin:round;stroke-miterlimit:4;stroke-dasharray:none;stroke-dashoffset:0;stroke-opacity:1"
           d="m 517.34444,445.04666 24.91899,-8.53959 c 0,0 4.87889,10.55304 5.17885,13.17987 0.29996,2.62683 -0.41656,26.69933 -0.41656,26.69933 0.005,1.58956 -1.27317,2.7797 -2.85971,2.87894 0,0 -24.08366,0.33346 -27.12797,-0.0524 -3.0443,-0.38588 -12.53284,-3.04049 -12.53284,-3.04049 l 8.1879,-26.44306 z"
           id="path4468"
           inkscape:connector-curvature="0"
           sodipodi:nodetypes="cczsszccc" />
        <rect
           transform="matrix(0.99999843,-0.00176943,0.0017624,0.99999845,0,0)"
           ry="4.5731845"
           y="435.26782"
           x="500.46609"
           height="41.977966"
           width="41.979279"
           id="rect4470"
           style="opacity:1;vector-effect:none;fill:#ffffff;fill-opacity:1;fill-rule:nonzero;stroke:#000000;stroke-width:0.345083;stroke-linecap:round;stroke-linejoin:round;stroke-miterlimit:4;stroke-dasharray:none;stroke-dashoffset:0;stroke-opacity:1" />
        <text
           transform="rotate(-0.14324406)"
           id="text4474"
           y="470.01593"
           x="521.38367"
           style="font-style:normal;font-variant:normal;font-weight:normal;font-stretch:normal;font-size:37.3333px;line-height:25px;font-family:'Archivo Narrow';-inkscape-font-specification:'Archivo Narrow, Normal';text-align:center;letter-spacing:0px;word-spacing:0px;writing-mode:lr-tb;text-anchor:middle;fill:#000000;fill-opacity:1;stroke:none;stroke-width:1.38033px;stroke-linecap:butt;stroke-linejoin:miter;stroke-opacity:1"
           xml:space="preserve"><tspan
             style="font-style:normal;font-variant:normal;font-weight:normal;font-stretch:normal;font-family:'Archivo Black';-inkscape-font-specification:'Archivo Black, ';stroke-width:1.38033px"
             y="470.01593"
             x="521.38367"
             id="tspan4472"
             sodipodi:role="line">?</tspan></text>
      </g>
    </g>
    <g
       id="text4585"
       style="font-style:normal;font-variant:normal;font-weight:normal;font-stretch:normal;font-size:37.3333px;line-height:25px;font-family:'Archivo Narrow';-inkscape-font-specification:'Archivo Narrow, Normal';text-align:center;letter-spacing:0px;word-spacing:0px;writing-mode:lr-tb;text-anchor:middle;fill:#000000;fill-opacity:1;stroke:none;stroke-width:1px;stroke-linecap:butt;stroke-linejoin:miter;stroke-opacity:1"
       transform="rotate(1.5572485,-1490.5863,20.257654)"
       aria-label="Non-player Character">
      <path
         inkscape:connector-curvature="0"
         id="path4605"
         d="m 387.88079,-102.22695 h -2.94934 v 16.090671 c 0,0.821333 0.112,3.397333 0.112,3.397333 l -0.112,0.03733 c 0,0 -1.008,-2.464 -1.568,-3.434666 l -9.52,-16.090668 h -2.83733 v 25.610667 h 2.94933 v -16.314666 c 0,-1.045333 -0.14933,-3.397333 -0.14933,-3.397333 l 0.112,-0.03733 c 0,0 1.008,2.352 1.64267,3.434666 l 9.59466,16.314666 h 2.72534 z" />
      <path
         inkscape:connector-curvature="0"
         id="path4607"
         d="m 398.99854,-96.701612 c -4.592,0 -7.01867,3.210666 -7.01867,10.266666 0,7.056 2.42667,10.266666 7.01867,10.266666 4.592,0 7.01866,-3.210666 7.01866,-10.266666 0,-7.056 -2.42666,-10.266666 -7.01866,-10.266666 z m 0,2.725333 c 2.53866,0 3.808,2.314667 3.808,6.832 v 1.418666 c 0,4.517334 -1.26934,6.832 -3.808,6.832 -2.53867,0 -3.808,-2.314666 -3.808,-6.832 v -1.418666 c 0,-4.517333 1.26933,-6.832 3.808,-6.832 z" />
      <path
         inkscape:connector-curvature="0"
         id="path4609"
         d="m 417.40678,-96.701612 c -1.94133,0 -3.65866,0.784 -4.74133,2.725333 h -0.224 l -0.41066,-2.277333 h -2.31467 v 19.637332 h 3.06133 v -11.983999 c 0,-3.397333 1.71734,-5.376 3.65867,-5.376 1.64266,0 2.76266,0.709333 2.76266,3.434667 v 13.925332 h 3.06134 v -14.149332 c 0,-4.368 -1.904,-5.936 -4.85334,-5.936 z" />
      <path
         inkscape:connector-curvature="0"
         id="path4611"
         d="m 434.24703,-88.525613 h -9.408 v 3.658667 h 9.408 z" />
      <path
         inkscape:connector-curvature="0"
         id="path4613"
         d="m 444.11937,-96.701612 c -1.792,0 -3.36,0.933333 -4.29333,2.725333 h -0.18667 l -0.41067,-2.277333 h -2.31466 v 26.095999 h 3.06133 v -8.176 h 0.18667 c 0.672,1.344 2.27733,2.165333 4.18133,2.165333 3.248,0 5.86133,-3.098666 5.86133,-10.229333 0,-7.205333 -2.352,-10.303999 -6.08533,-10.303999 z m -0.63467,2.725333 c 2.352,0 3.50934,1.941333 3.50934,6.832 v 1.418666 c 0,4.890667 -1.15734,6.832 -3.50934,6.832 -2.352,0 -3.50933,-2.314666 -3.50933,-6.832 v -1.418666 c 0,-4.517333 1.15733,-6.832 3.50933,-6.832 z" />
      <path
         inkscape:connector-curvature="0"
         id="path4615"
         d="m 456.59161,-103.60828 h -3.06133 v 26.992 h 3.06133 z" />
      <path
         inkscape:connector-curvature="0"
         id="path4617"
         d="m 466.7702,-96.701612 c -3.696,0 -6.30934,1.866666 -6.30934,5.450666 0,0.336 0,0.597334 0.0373,0.821334 h 3.024 v -0.448 c 0,-1.493334 0.70933,-3.098667 3.024,-3.098667 2.50133,0 3.09866,1.306667 3.09866,3.173333 v 2.538667 c -5.712,0 -9.93066,1.157333 -9.93066,6.570666 0,4.741333 3.21066,5.525333 5.152,5.525333 2.05333,0 3.77066,-0.970666 4.77866,-2.576 h 0.18667 c 0.37333,1.456 1.49333,2.426667 3.09867,2.426667 0.97066,0 1.68,-0.261333 2.016,-0.448 v -2.128 h -1.19467 c -0.52267,0 -1.04533,-0.373333 -1.04533,-1.306666 v -11.013333 c 0,-3.472 -1.97867,-5.488 -5.936,-5.488 z m 2.87466,12.954666 c 0,3.248 -2.128,4.853333 -4.06933,4.853333 -1.71733,0 -2.65067,-0.746666 -2.65067,-2.986666 0,-3.061334 2.72534,-3.658667 6.72,-3.658667 z" />
      <path
         inkscape:connector-curvature="0"
         id="path4619"
         d="m 490.40512,-96.253612 h -3.09867 l -3.65867,15.231999 h -0.14933 l -4.33067,-15.231999 h -3.36 l 6.01067,19.637332 c -0.70933,3.36 -2.24,4.368 -3.88267,4.368 h -1.08266 v 2.128 c 0.63466,0.224 1.344,0.298667 2.20266,0.298667 3.43467,0 5.18934,-3.509333 6.34667,-7.802667 z" />
      <path
         inkscape:connector-curvature="0"
         id="path4621"
         d="m 499.70694,-96.701612 c -4.928,0 -7.392,3.210666 -7.392,10.266666 0,7.28 2.53867,10.266666 7.42934,10.266666 3.808,0 6.42133,-2.725333 6.42133,-7.130666 h -3.024 c 0,2.725333 -1.38133,4.405333 -3.32267,4.405333 -2.912,0 -4.256,-2.053333 -4.29333,-6.645333 h 10.64 v -1.941333 c 0,-6.570667 -2.16533,-9.221333 -6.45867,-9.221333 z m 0,2.725333 c 2.128,0 3.248,1.978667 3.248,5.712 h -7.392 c 0.26134,-3.770667 1.41867,-5.712 4.144,-5.712 z" />
      <path
         inkscape:connector-curvature="0"
         id="path4623"
         d="m 516.24854,-96.701612 c -1.86667,0 -2.83734,1.530666 -3.32267,3.024 h -0.224 l -0.41067,-2.576 h -2.31466 v 19.637332 h 3.06133 v -11.983999 c 0,-3.472 1.71733,-4.629333 3.65867,-4.629333 h 1.008 v -3.173334 c 0,0 -0.63467,-0.298666 -1.456,-0.298666 z" />
      <path
         inkscape:connector-curvature="0"
         id="path4625"
         d="m 538.12411,-102.67495 c -6.64533,0 -10.08,4.368004 -10.08,13.253338 0,8.885333 3.43467,13.253332 10.08,13.253332 5.22667,0 8.92267,-3.024 8.92267,-9.631999 h -3.248 c 0,4.442666 -2.24,6.607999 -5.67467,6.607999 -4.48,0 -6.64533,-3.061333 -6.64533,-9.295999 v -1.866667 c 0,-6.234666 2.16533,-9.295999 6.64533,-9.295999 3.36,0 5.56267,2.202666 5.56267,6.682666 h 3.36 c 0,-6.533333 -3.696,-9.706671 -8.92267,-9.706671 z" />
      <path
         inkscape:connector-curvature="0"
         id="path4627"
         d="m 553.8712,-103.60828 h -3.06134 v 26.992 h 3.06134 v -11.983999 c 0,-3.397333 1.71733,-5.376 3.65866,-5.376 1.64267,0 2.76267,0.709333 2.76267,3.434667 v 13.925332 h 3.06133 v -14.149332 c 0,-4.368 -1.904,-5.936 -4.85333,-5.936 -1.94133,0 -3.39733,0.746666 -4.40533,2.501333 h -0.224 z" />
      <path
         inkscape:connector-curvature="0"
         id="path4629"
         d="m 573.88478,-96.701612 c -3.696,0 -6.30934,1.866666 -6.30934,5.450666 0,0.336 0,0.597334 0.0373,0.821334 h 3.024 v -0.448 c 0,-1.493334 0.70933,-3.098667 3.024,-3.098667 2.50133,0 3.09866,1.306667 3.09866,3.173333 v 2.538667 c -5.712,0 -9.93066,1.157333 -9.93066,6.570666 0,4.741333 3.21066,5.525333 5.152,5.525333 2.05333,0 3.77066,-0.970666 4.77866,-2.576 h 0.18667 c 0.37333,1.456 1.49333,2.426667 3.09867,2.426667 0.97066,0 1.68,-0.261333 2.016,-0.448 v -2.128 h -1.19467 c -0.52267,0 -1.04533,-0.373333 -1.04533,-1.306666 v -11.013333 c 0,-3.472 -1.97867,-5.488 -5.936,-5.488 z m 2.87466,12.954666 c 0,3.248 -2.128,4.853333 -4.06933,4.853333 -1.71733,0 -2.65067,-0.746666 -2.65067,-2.986666 0,-3.061334 2.72534,-3.658667 6.72,-3.658667 z" />
      <path
         inkscape:connector-curvature="0"
         id="path4631"
         d="m 591.06102,-96.701612 c -1.86667,0 -2.83733,1.530666 -3.32267,3.024 h -0.224 l -0.41066,-2.576 h -2.31467 v 19.637332 h 3.06133 v -11.983999 c 0,-3.472 1.71734,-4.629333 3.65867,-4.629333 h 1.008 v -3.173334 c 0,0 -0.63467,-0.298666 -1.456,-0.298666 z" />
      <path
         inkscape:connector-curvature="0"
         id="path4633"
         d="m 601.0827,-96.701612 c -3.696,0 -6.30934,1.866666 -6.30934,5.450666 0,0.336 0,0.597334 0.0373,0.821334 h 3.024 v -0.448 c 0,-1.493334 0.70933,-3.098667 3.024,-3.098667 2.50133,0 3.09866,1.306667 3.09866,3.173333 v 2.538667 c -5.712,0 -9.93066,1.157333 -9.93066,6.570666 0,4.741333 3.21066,5.525333 5.152,5.525333 2.05333,0 3.77066,-0.970666 4.77866,-2.576 h 0.18667 c 0.37333,1.456 1.49333,2.426667 3.09867,2.426667 0.97066,0 1.68,-0.261333 2.016,-0.448 v -2.128 h -1.19467 c -0.52267,0 -1.04533,-0.373333 -1.04533,-1.306666 v -11.013333 c 0,-3.472 -1.97867,-5.488 -5.936,-5.488 z m 2.87466,12.954666 c 0,3.248 -2.128,4.853333 -4.06933,4.853333 -1.71733,0 -2.65067,-0.746666 -2.65067,-2.986666 0,-3.061334 2.72534,-3.658667 6.72,-3.658667 z" />
      <path
         inkscape:connector-curvature="0"
         id="path4635"
         d="m 617.81094,-96.701612 c -4.592,0 -6.72,3.210666 -6.72,10.266666 0,7.056 2.09067,10.266666 6.72,10.266666 4.33067,0 6.01067,-3.621333 6.01067,-7.727999 h -3.024 c 0,3.248 -0.784,5.002666 -2.98667,5.002666 -2.464,0 -3.50933,-2.314666 -3.50933,-6.832 v -1.418666 c 0,-4.517333 1.08267,-6.832 3.50933,-6.832 2.20267,0 2.83734,1.605333 2.83734,5.002666 h 3.17333 c 0,-5.002666 -1.75467,-7.727999 -6.01067,-7.727999 z" />
      <path
         inkscape:connector-curvature="0"
         id="path4637"
         d="m 630.32344,-101.70428 h -2.38933 l -0.672,5.450668 h -1.68 v 2.725333 h 1.68 v 12.768 c 0,2.239999 0.82133,4.517333 3.50933,4.517333 0.74667,0 1.68,-0.224 2.20267,-0.522667 v -2.128 h -0.896 c -1.15733,0 -1.75467,-0.634667 -1.75467,-1.792 v -12.842666 h 2.65067 v -2.725333 h -2.65067 z" />
      <path
         inkscape:connector-curvature="0"
         id="path4639"
         d="m 642.55069,-96.701612 c -4.928,0 -7.392,3.210666 -7.392,10.266666 0,7.28 2.53867,10.266666 7.42934,10.266666 3.808,0 6.42133,-2.725333 6.42133,-7.130666 h -3.024 c 0,2.725333 -1.38133,4.405333 -3.32267,4.405333 -2.912,0 -4.256,-2.053333 -4.29333,-6.645333 h 10.64 v -1.941333 c 0,-6.570667 -2.16533,-9.221333 -6.45867,-9.221333 z m 0,2.725333 c 2.128,0 3.248,1.978667 3.248,5.712 h -7.392 c 0.26134,-3.770667 1.41867,-5.712 4.144,-5.712 z" />
      <path
         inkscape:connector-curvature="0"
         id="path4641"
         d="m 659.09229,-96.701612 c -1.86667,0 -2.83734,1.530666 -3.32267,3.024 h -0.224 l -0.41067,-2.576 h -2.31466 v 19.637332 h 3.06133 v -11.983999 c 0,-3.472 1.71733,-4.629333 3.65867,-4.629333 h 1.008 v -3.173334 c 0,0 -0.63467,-0.298666 -1.456,-0.298666 z" />
    </g>
    <path
       sodipodi:nodetypes="ccccccc"
       inkscape:connector-curvature="0"
       id="path4646"
       d="m 527.23172,610.22792 -212.40117,-5.32857 -0.27978,21.6736 -7.38399,118.53274 216.22594,9.18216 3.40799,-123.039 z"
       style="fill:#f1feae;fill-opacity:1;stroke:none;stroke-width:1.91184;stroke-miterlimit:4;stroke-dasharray:none;stroke-dashoffset:0;stroke-opacity:1" />
    <g
       style="stroke-width:1.32501"
       transform="matrix(0.75472689,0,0,0.75469544,40.422751,128.02004)"
       id="g5607">
      <g
         style="display:inline;stroke-width:1.32501"
         id="g5174"
         transform="rotate(-5.3112827,2625.3714,1988.861)">
        <path
           sodipodi:nodetypes="cczsszccc"
           inkscape:connector-curvature="0"
           id="path5094"
           d="m 517.34444,445.04666 24.91899,-8.53959 c 0,0 4.87889,10.55304 5.17885,13.17987 0.29996,2.62683 -0.41656,26.69933 -0.41656,26.69933 0.005,1.58956 -1.27317,2.7797 -2.85971,2.87894 0,0 -24.08366,0.33346 -27.12797,-0.0524 -3.0443,-0.38588 -12.53284,-3.04049 -12.53284,-3.04049 l 8.1879,-26.44306 z"
           style="opacity:1;vector-effect:none;fill:#1a1a1a;fill-opacity:1;fill-rule:nonzero;stroke:none;stroke-width:0.662505;stroke-linecap:round;stroke-linejoin:round;stroke-miterlimit:4;stroke-dasharray:none;stroke-dashoffset:0;stroke-opacity:1" />
        <rect
           style="opacity:1;vector-effect:none;fill:#ffffff;fill-opacity:1;fill-rule:nonzero;stroke:#000000;stroke-width:0.331253;stroke-linecap:round;stroke-linejoin:round;stroke-miterlimit:4;stroke-dasharray:none;stroke-dashoffset:0;stroke-opacity:1"
           id="rect5058"
           width="41.979279"
           height="41.977966"
           x="500.46609"
           y="435.26782"
           ry="4.5731845"
           transform="matrix(0.99999843,-0.00176943,0.0017624,0.99999845,0,0)" />
        <g
           style="stroke-width:1.32501"
           transform="translate(9.7848188,-9.094478)"
           id="g5066" />
      </g>
      <path
         inkscape:connector-curvature="0"
         style="display:inline;fill:#000000;fill-opacity:1;stroke:none;stroke-width:0.722602;stroke-miterlimit:4;stroke-dasharray:none;stroke-dashoffset:0;stroke-opacity:1"
         d="m 378.85024,640.5391 a 4.8705405,4.8705405 0 0 1 5.30018,4.39986 4.8705405,4.8705405 0 0 1 -4.39842,5.30002 4.8705405,4.8705405 0 0 1 -5.30149,-4.39826 4.8705405,4.8705405 0 0 1 4.39973,-5.30162 z"
         id="path5014" />
      <path
         inkscape:connector-curvature="0"
         style="display:inline;fill:#000000;fill-opacity:1;stroke:none;stroke-width:0.722602;stroke-miterlimit:4;stroke-dasharray:none;stroke-dashoffset:0;stroke-opacity:1"
         d="m 396.68213,638.88134 a 4.8705405,4.8705405 0 0 1 5.30018,4.39986 4.8705405,4.8705405 0 0 1 -4.39842,5.30003 4.8705405,4.8705405 0 0 1 -5.30148,-4.39827 4.8705405,4.8705405 0 0 1 4.39972,-5.30162 z"
         id="path5012" />
      <path
         inkscape:connector-curvature="0"
         style="display:inline;fill:#000000;fill-opacity:1;stroke:none;stroke-width:0.722602;stroke-miterlimit:4;stroke-dasharray:none;stroke-dashoffset:0;stroke-opacity:1"
         d="m 379.96011,652.47752 a 4.8705405,4.8705405 0 0 1 5.30004,4.3984 4.8705405,4.8705405 0 0 1 -4.39842,5.30003 4.8705405,4.8705405 0 0 1 -5.30149,-4.39827 4.8705405,4.8705405 0 0 1 4.39987,-5.30016 z"
         id="path5010" />
      <path
         inkscape:connector-curvature="0"
         style="display:inline;fill:#000000;fill-opacity:1;stroke:none;stroke-width:0.722602;stroke-miterlimit:4;stroke-dasharray:none;stroke-dashoffset:0;stroke-opacity:1"
         d="m 397.792,650.81976 a 4.8705405,4.8705405 0 0 1 5.30004,4.3984 4.8705405,4.8705405 0 0 1 -4.39842,5.30003 4.8705405,4.8705405 0 0 1 -5.30149,-4.39827 4.8705405,4.8705405 0 0 1 4.39987,-5.30016 z"
         id="path5008" />
      <path
         inkscape:connector-curvature="0"
         style="display:inline;fill:#000000;fill-opacity:1;stroke:none;stroke-width:0.722602;stroke-miterlimit:4;stroke-dasharray:none;stroke-dashoffset:0;stroke-opacity:1"
         d="m 381.08816,664.61157 a 4.8705405,4.8705405 0 0 1 5.30004,4.39838 4.8705405,4.8705405 0 0 1 -4.39842,5.30004 4.8705405,4.8705405 0 0 1 -5.30149,-4.39828 4.8705405,4.8705405 0 0 1 4.39987,-5.30014 z"
         id="path5006" />
      <path
         inkscape:connector-curvature="0"
         style="display:inline;fill:#000000;fill-opacity:1;stroke:none;stroke-width:0.722602;stroke-miterlimit:4;stroke-dasharray:none;stroke-dashoffset:0;stroke-opacity:1"
         d="m 398.92005,662.95381 a 4.8705405,4.8705405 0 0 1 5.30004,4.39839 4.8705405,4.8705405 0 0 1 -4.39842,5.30003 4.8705405,4.8705405 0 0 1 -5.30148,-4.39827 4.8705405,4.8705405 0 0 1 4.39986,-5.30015 z"
         id="path4992" />
    </g>
  </g>
</svg>
