<?xml version="1.0" encoding="UTF-8" standalone="no"?>
<svg
   xmlns:dc="http://purl.org/dc/elements/1.1/"
   xmlns:cc="http://creativecommons.org/ns#"
   xmlns:rdf="http://www.w3.org/1999/02/22-rdf-syntax-ns#"
   xmlns:svg="http://www.w3.org/2000/svg"
   xmlns="http://www.w3.org/2000/svg"
   xmlns:xlink="http://www.w3.org/1999/xlink"
   xmlns:sodipodi="http://sodipodi.sourceforge.net/DTD/sodipodi-0.dtd"
   xmlns:inkscape="http://www.inkscape.org/namespaces/inkscape"
   inkscape:export-ydpi="96"
   inkscape:export-xdpi="96"
   inkscape:export-filename="G:\code\timber-wolf\img\npc shadows.png"
   sodipodi:docname="npc-color.svg"
   inkscape:version="1.0 (4035a4fb49, 2020-05-01)"
   version="1.1"
   id="svg2"
   viewBox="0 0 825.00007 1125"
   height="1125"
   width="825">
  <defs
     id="defs4">
    <linearGradient
       inkscape:collect="always"
       id="linearGradient2457">
      <stop
         style="stop-color:#666666;stop-opacity:1;"
         offset="0"
         id="stop2453" />
      <stop
         style="stop-color:#818181;stop-opacity:0"
         offset="1"
         id="stop2455" />
    </linearGradient>
    <linearGradient
       id="linearGradient2424"
       inkscape:collect="always">
      <stop
         id="stop2420"
         offset="0"
         style="stop-color:#666666;stop-opacity:1;" />
      <stop
         id="stop2422"
         offset="1"
         style="stop-color:#666666;stop-opacity:0;" />
    </linearGradient>
    <inkscape:path-effect
       overflow_perspective="false"
       vertical_mirror="false"
       horizontal_mirror="false"
       deform_type="perspective"
       is_visible="true"
       id="path-effect2386"
       down_right_point="189.35666,-56.304737"
       down_left_point="129.71275,-53.986354"
       up_right_point="232.2141,-159.96475"
       up_left_point="207.24647,-168.19412"
       effect="perspective-envelope" />
    <marker
       inkscape:isstock="true"
       style="overflow:visible"
       id="Arrow1Lstart"
       refX="0"
       refY="0"
       orient="auto"
       inkscape:stockid="Arrow1Lstart">
      <path
         inkscape:connector-curvature="0"
         transform="matrix(0.8,0,0,0.8,10,0)"
         style="fill-rule:evenodd;stroke:#000000;stroke-width:1pt"
         d="M 0,0 5,-5 -12.5,0 5,5 0,0 Z"
         id="path6203" />
    </marker>
    <linearGradient
       id="linearGradient6162">
      <stop
         id="stop6164"
         offset="0"
         style="stop-color:#000000;stop-opacity:1;" />
      <stop
         id="stop6166"
         offset="1"
         style="stop-color:#000000;stop-opacity:0;" />
    </linearGradient>
    <linearGradient
       id="linearGradient6453-9">
      <stop
         id="stop5160"
         offset="0"
         style="stop-color:#ffb6b6;stop-opacity:1;" />
      <stop
         id="stop5162"
         offset="1"
         style="stop-color:#fa2424;stop-opacity:1;" />
    </linearGradient>
    <linearGradient
       id="linearGradient6453">
      <stop
         style="stop-color:#ffffff;stop-opacity:1.0000000"
         offset="0.00000000"
         id="stop6455" />
      <stop
         style="stop-color:#000000;stop-opacity:1.0000000"
         offset="1.0000000"
         id="stop6457" />
    </linearGradient>
    <radialGradient
       cx="171.2081"
       cy="196.85463"
       r="200"
       fx="171.2081"
       fy="196.85463"
       id="radialGradient6459"
       xlink:href="#linearGradient6453-9"
       gradientUnits="userSpaceOnUse"
       gradientTransform="matrix(0.05945241,0.04549877,-0.04654385,0.06081801,-283.54417,231.93065)" />
    <filter
       height="1.1217592"
       y="-0.060879581"
       width="1.0511121"
       x="-0.025556045"
       id="filter5473"
       style="color-interpolation-filters:sRGB"
       inkscape:collect="always">
      <feGaussianBlur
         id="feGaussianBlur5475"
         stdDeviation="1.7303572"
         inkscape:collect="always" />
    </filter>
    <filter
       height="1.2174"
       y="-0.1087"
       width="1.0431443"
       x="-0.021572215"
       id="filter5504"
       style="color-interpolation-filters:sRGB"
       inkscape:collect="always">
      <feGaussianBlur
         id="feGaussianBlur5506"
         stdDeviation="4.7251539"
         inkscape:collect="always" />
    </filter>
    <marker
       inkscape:stockid="Arrow1Lend"
       orient="auto"
       refY="0.0"
       refX="0.0"
       id="Arrow1Lend"
       style="overflow:visible;"
       inkscape:isstock="true">
      <path
         id="path5387"
         d="M 0.0,0.0 L 5.0,-5.0 L -12.5,0.0 L 5.0,5.0 L 0.0,0.0 z "
         style="fill-rule:evenodd;stroke:#000000;stroke-width:1.0pt;"
         transform="scale(0.8) rotate(180) translate(12.5,0)" />
    </marker>
    <marker
       inkscape:stockid="Arrow1Lstart"
       orient="auto"
       refY="0.0"
       refX="0.0"
       id="Arrow1Lstart-8"
       style="overflow:visible"
       inkscape:isstock="true">
      <path
         id="path5384"
         d="M 0.0,0.0 L 5.0,-5.0 L -12.5,0.0 L 5.0,5.0 L 0.0,0.0 z "
         style="fill-rule:evenodd;stroke:#000000;stroke-width:1.0pt"
         transform="scale(0.8) translate(12.5,0)" />
    </marker>
    <inkscape:perspective
       sodipodi:type="inkscape:persp3d"
       inkscape:vp_x="0 : 562.5 : 1"
       inkscape:vp_y="0 : 1000 : 0"
       inkscape:vp_z="825.00001 : 562.5 : 1"
       inkscape:persp3d-origin="412.5 : 375 : 1"
       id="perspective10399" />
    <filter
       height="1.0702012"
       y="-0.035100583"
       width="1.0738934"
       x="-0.036946723"
       id="filter4898"
       style="color-interpolation-filters:sRGB"
       inkscape:collect="always">
      <feGaussianBlur
         id="feGaussianBlur4900"
         stdDeviation="4.7314361"
         inkscape:collect="always" />
    </filter>
    <filter
       height="1.0733119"
       y="-0.036655931"
       width="1.0707343"
       x="-0.035367131"
       id="filter5058"
       style="color-interpolation-filters:sRGB"
       inkscape:collect="always">
      <feGaussianBlur
         id="feGaussianBlur5060"
         stdDeviation="7.3862705"
         inkscape:collect="always" />
    </filter>
    <linearGradient
       gradientTransform="translate(239.80857,143.63933)"
       spreadMethod="reflect"
       gradientUnits="userSpaceOnUse"
       y2="137.01984"
       x2="-241.40161"
       y1="122.24019"
       x1="-241.40161"
       id="linearGradient2426"
       xlink:href="#linearGradient2424"
       inkscape:collect="always" />
    <linearGradient
       spreadMethod="reflect"
       y2="137.01984"
       x2="-241.40161"
       y1="122.24019"
       x1="-241.40161"
       gradientTransform="rotate(-30,-366.15815,173.51788)"
       gradientUnits="userSpaceOnUse"
       id="linearGradient2451"
       xlink:href="#linearGradient2457"
       inkscape:collect="always" />
    <filter
       height="1.0894026"
       y="-0.044701304"
       width="1.0602685"
       x="-0.030134239"
       id="filter5204"
       style="color-interpolation-filters:sRGB"
       inkscape:collect="always">
      <feGaussianBlur
         id="feGaussianBlur5206"
         stdDeviation="2.7198112"
         inkscape:collect="always" />
    </filter>
    <filter
       height="1.0996753"
       y="-0.049837645"
       width="1.0563533"
       x="-0.028176632"
       id="filter5222"
       style="color-interpolation-filters:sRGB"
       inkscape:collect="always">
      <feGaussianBlur
         id="feGaussianBlur5224"
         stdDeviation="2.5599283"
         inkscape:collect="always" />
    </filter>
  </defs>
  <sodipodi:namedview
     inkscape:document-rotation="0"
     inkscape:snap-global="false"
     inkscape:guide-bbox="true"
     showguides="true"
     inkscape:window-maximized="1"
     inkscape:window-y="-8"
     inkscape:window-x="-8"
     inkscape:window-height="1017"
     inkscape:window-width="1920"
     units="px"
     showgrid="false"
     inkscape:current-layer="layer2"
     inkscape:document-units="px"
     inkscape:cy="640.28367"
     inkscape:cx="150.80555"
     inkscape:zoom="1.3081475"
     inkscape:pageshadow="2"
     inkscape:pageopacity="0.0"
     borderopacity="1.0"
     bordercolor="#666666"
     pagecolor="#ffffff"
     id="base">
    <sodipodi:guide
       inkscape:locked="false"
       inkscape:color="rgb(0,0,255)"
       inkscape:label=""
       id="guide5098"
       orientation="1,0"
       position="75.000007,587.90879" />
    <sodipodi:guide
       inkscape:locked="false"
       inkscape:color="rgb(0,0,255)"
       inkscape:label=""
       id="guide4596"
       orientation="0,1"
       position="891.80335,1050" />
    <sodipodi:guide
       inkscape:locked="false"
       inkscape:color="rgb(0,0,255)"
       inkscape:label=""
       id="guide4902"
       orientation="0,1"
       position="904.1694,75" />
    <sodipodi:guide
       inkscape:color="rgb(0,0,255)"
       inkscape:label=""
       inkscape:locked="false"
       id="guide4447"
       orientation="1,0"
       position="750.00003,438.52459" />
    <sodipodi:guide
       inkscape:locked="false"
       id="guide5178"
       orientation="0,1"
       position="731.14758,196.72131" />
  </sodipodi:namedview>
  <metadata
     id="metadata7">
    <rdf:RDF>
      <cc:Work
         rdf:about="">
        <dc:format>image/svg+xml</dc:format>
        <dc:type
           rdf:resource="http://purl.org/dc/dcmitype/StillImage" />
        <dc:title />
      </cc:Work>
    </rdf:RDF>
  </metadata>
  <g
     style="display:none"
     inkscape:label="shadows"
     id="layer3"
     inkscape:groupmode="layer">
    <path
       sodipodi:nodetypes="ccccc"
       inkscape:connector-curvature="0"
       id="rect5044"
       d="m 89.697285,108.69531 490.056955,-6.56109 -2.4865,475.79001 -496.140102,1.26723 z"
       style="opacity:1;fill:#000000;fill-opacity:1;fill-rule:nonzero;stroke:none;stroke-width:1.29975;stroke-linecap:round;stroke-linejoin:round;stroke-miterlimit:4;stroke-dasharray:none;stroke-dashoffset:0;stroke-opacity:1;filter:url(#filter5058)"
       transform="matrix(1.2075066,0.02589228,-0.02364033,1.1024853,20.516799,247.94006)" />
    <path
       transform="matrix(0.73708979,0,0,0.73696728,-228.84058,131.29933)"
       sodipodi:nodetypes="ccccccc"
       inkscape:connector-curvature="0"
       id="rect4839"
       d="m 428.31189,-55.601383 231.52231,-17.44575 32.31194,39.06793 29.09171,258.801223 -282.34199,25.64247 -25.00454,-275.317793 z"
       style="opacity:1;fill:#000000;fill-opacity:1;fill-rule:nonzero;stroke:none;stroke-width:1.11643;stroke-linecap:round;stroke-linejoin:round;stroke-miterlimit:4;stroke-dasharray:none;stroke-dashoffset:0;stroke-opacity:1;filter:url(#filter4898)" />
    <path
       transform="matrix(1.6474453,0.01916315,-0.03146503,0.99158789,-544.7328,290.71909)"
       sodipodi:nodetypes="ccccccc"
       inkscape:connector-curvature="0"
       id="path5483"
       d="m 542.88699,-105.7517 184.65522,0.29389 12.6697,-0.40983 -0.4099,54.484764 -14.84707,5.87351 -181.46439,8.26584 z"
       style="opacity:1;fill:#000000;fill-opacity:1;fill-rule:nonzero;stroke:none;stroke-width:0.880385;stroke-linecap:round;stroke-linejoin:round;stroke-miterlimit:4;stroke-dasharray:none;stroke-dashoffset:0;stroke-opacity:1;filter:url(#filter5473)" />
    <path
       transform="matrix(0.82482636,0,0,0.81517542,126.597,262.32787)"
       sodipodi:nodetypes="ccccccc"
       inkscape:connector-curvature="0"
       id="path4598"
       d="m 228.32392,-216.19739 h 478.7461 l 30.71849,1.15919 5.21636,84.04138 -47.2405,13.79879 -467.44045,5.32787 z"
       style="opacity:1;fill:#000000;fill-opacity:1;fill-rule:nonzero;stroke:none;stroke-width:1.72121;stroke-linecap:round;stroke-linejoin:round;stroke-miterlimit:4;stroke-dasharray:none;stroke-dashoffset:0;stroke-opacity:1;filter:url(#filter5504)" />
    <path
       transform="rotate(0.57144309,-29893.621,832.73243)"
       sodipodi:nodetypes="ccccc"
       inkscape:connector-curvature="0"
       id="path5208"
       d="m 85.500426,630.94482 -7.434298,123.27685 215.171002,-0.0516 -0.097,-121.10098 z"
       style="display:inline;fill:#000000;fill-opacity:1;stroke:none;stroke-width:1.91184;stroke-miterlimit:4;stroke-dasharray:none;stroke-dashoffset:0;stroke-opacity:1;filter:url(#filter5222)" />
    <path
       transform="rotate(0.91854214,-18067.407,831.57984)"
       sodipodi:nodetypes="ccccccc"
       inkscape:connector-curvature="0"
       id="path5182"
       d="m 749.08999,610.48981 -204.4593,-1.92291 0.0677,21.6753 -7.75312,122.14939 216.61562,2.20118 -4.56487,-123.07783 z"
       style="display:inline;fill:#000000;fill-opacity:1;stroke:none;stroke-width:1.91184;stroke-miterlimit:4;stroke-dasharray:none;stroke-dashoffset:0;stroke-opacity:1;filter:url(#filter5204)" />
    <path
       style="display:inline;fill:#000000;fill-opacity:1;stroke:none;stroke-width:1.91184;stroke-miterlimit:4;stroke-dasharray:none;stroke-dashoffset:0;stroke-opacity:1;filter:url(#filter5204)"
       d="m 749.08999,610.48981 -204.4593,-1.92291 0.0677,21.6753 -7.75312,122.14939 216.61562,2.20118 -4.56487,-123.07783 z"
       id="path4644"
       inkscape:connector-curvature="0"
       sodipodi:nodetypes="ccccccc"
       transform="rotate(0.91854214,-18180.915,-13328.67)" />
  </g>
  <g
     style="display:inline"
     transform="translate(0,300.00002)"
     inkscape:label="character"
     id="layer2"
     inkscape:groupmode="layer">
    <path
       sodipodi:nodetypes="ccccccc"
       inkscape:connector-curvature="0"
       id="rect5040"
       d="M 119.69064,19.173158 724.92859,32.151133 723.8934,80.427814 698.02725,595.55319 93.801709,578.53164 C 102.60049,425.61762 112.68928,311.98432 118.64303,68.029302 Z"
       style="opacity:1;vector-effect:none;fill:#fdd1e8;fill-opacity:1;fill-rule:nonzero;stroke:none;stroke-width:1.5;stroke-linecap:round;stroke-linejoin:round;stroke-miterlimit:4;stroke-dasharray:none;stroke-dashoffset:0;stroke-opacity:1" />
    <rect
       transform="matrix(0.9959025,-0.09043345,0.09046328,0.99589979,0,0)"
       ry="0"
       y="-205.76643"
       x="89.712242"
       height="226.48918"
       width="208.96762"
       id="rect4716"
       style="opacity:1;fill:#f3eed7;fill-opacity:1;fill-rule:nonzero;stroke:none;stroke-width:0.563698;stroke-linecap:round;stroke-linejoin:round;stroke-miterlimit:4;stroke-dasharray:none;stroke-dashoffset:0;stroke-opacity:1" />
    <path
       style="opacity:1;fill:#96e1b0;fill-opacity:1;fill-rule:nonzero;stroke:none;stroke-width:1.5;stroke-linecap:round;stroke-linejoin:round;stroke-miterlimit:4;stroke-dasharray:none;stroke-dashoffset:0;stroke-opacity:1"
       d="m 342.98973,-109.97122 175.35679,4.28893 135.06161,1.7611 32.01314,0.37237 -2.14635,67.640461 -30.90377,-0.359475 -132.51343,-1.715243 -180.84205,-4.572226 z"
       id="path5485"
       inkscape:connector-curvature="0"
       sodipodi:nodetypes="ccccccccc" />
    <text
       transform="matrix(1.2887235,0.01499049,-0.02461369,0.77567533,0,0)"
       xml:space="preserve"
       style="font-style:normal;font-weight:normal;font-size:44.573px;line-height:125%;font-family:sans-serif;letter-spacing:0px;word-spacing:0px;fill:#000000;fill-opacity:1;stroke:none;stroke-width:1px;stroke-linecap:butt;stroke-linejoin:miter;stroke-opacity:1"
       x="325.11203"
       y="-88.353645"
       id="text5479"><tspan
         sodipodi:role="line"
         id="tspan5481"
         x="325.11203"
         y="-88.353645"
         style="font-style:normal;font-variant:normal;font-weight:normal;font-stretch:normal;font-family:'Archivo Narrow';-inkscape-font-specification:'Archivo Narrow';stroke-width:1px">Amateur</tspan></text>
    <path
       style="opacity:1;fill:#b7d8c4;fill-opacity:1;fill-rule:nonzero;stroke:none;stroke-width:1.5;stroke-linecap:round;stroke-linejoin:round;stroke-miterlimit:4;stroke-dasharray:none;stroke-dashoffset:0;stroke-opacity:1"
       d="m 306.93325,-226.15194 69.57246,2.6727 103.10329,2.33862 225.24905,2.33861 h 38.72327 v 85.045 h -38.24521 l -227.56392,-1.08178 -100.86769,-1.03081 -69.57525,-3.41869 z"
       id="path4600"
       inkscape:connector-curvature="0"
       sodipodi:nodetypes="ccccccccccc" />
    <rect
       transform="matrix(0.9959025,-0.09043345,0.09046328,0.99589979,0,0)"
       y="-194.63461"
       x="106.8427"
       height="177.91399"
       width="177.94307"
       id="rect4720"
       style="opacity:1;vector-effect:none;fill:#c5c2ba;fill-opacity:1;fill-rule:nonzero;stroke:none;stroke-width:0.563698;stroke-linecap:round;stroke-linejoin:round;stroke-miterlimit:4;stroke-dasharray:none;stroke-dashoffset:0;stroke-opacity:1" />
    <path
       inkscape:connector-curvature="0"
       id="rect4768"
       d="m 230.93717,-249.03774 -0.33449,1.24845 0.87023,0.13998 c -0.14757,-0.009 -0.31086,0.0261 -0.40722,0.1348 -0.0273,0.0311 0,0.0994 -0.0322,0.12035 -0.0359,0.0208 -0.0804,-0.0214 -0.11999,-0.0322 -0.0483,-0.013 -0.21993,-0.0533 -0.38234,-0.0946 l -0.0186,0.0707 c 0.0433,0.0256 0.0878,0.0503 0.12742,0.0803 0.0742,0.0557 0.13952,0.1232 0.20917,0.18498 0.0693,0.0618 0.16242,0.10514 0.20892,0.18578 0.021,0.036 -0.021,0.0802 -0.0322,0.12036 -0.0124,0.0402 0.0124,0.13106 -0.0322,0.12036 -0.0903,-0.0241 -0.12778,-0.1398 -0.20918,-0.18497 -0.073,-0.0405 -0.16105,-0.0432 -0.24134,-0.0647 -0.0457,-0.0124 -0.0928,-0.0228 -0.13978,-0.0346 l -0.22538,0.84123 c 1.8289,0.48253 -0.26855,-0.11591 1.79476,0.61071 0.23552,0.083 0.4969,0.0907 0.72413,0.19405 0.0383,0.0172 -0.021,0.08 -0.0322,0.12036 -0.0124,0.0402 0,0.0899 -0.0322,0.12109 -0.0396,0.044 -0.0952,0.0761 -0.15339,0.0878 -0.31048,0.0635 -0.62814,0.0819 -0.94049,0.13563 -0.43121,0.0742 -0.52151,0.0949 -0.65758,0.12258 0.0346,0.0256 -0.39968,0.0816 0,0 -0.021,-0.0152 -0.26249,-0.01 -1.07199,0.0604 -0.0124,6.8e-4 -0.0149,0.004 -0.021,0.005 l -0.20992,0.78355 c 0.0507,0.0419 0.0347,0.054 -0.0136,0.0512 l -0.0149,0.0529 c 0.15945,0.059 0.297,0.10922 0.72401,0.2663 0.27338,0.10057 0.56309,0.15087 0.8445,0.22628 0.0804,0.0215 0.1712,0.0185 0.24059,0.0645 0.0495,0.0325 0.0446,0.11367 0.0891,0.15274 0.031,0.0276 0.099,-0.004 0.12,0.0322 0.021,0.0359 0,0.10032 -0.0322,0.1211 -0.0359,0.0208 -0.0804,-0.0214 -0.11998,-0.0322 -0.16081,-0.0431 -0.31668,-0.11863 -0.4828,-0.12938 -0.0928,-0.006 -0.18048,0.0679 -0.27289,0.0558 -0.5277,-0.0687 -0.90078,-0.13739 -1.25444,-0.21768 l -0.63024,2.35224 c 0.0396,0.036 0.0779,0.0739 0.11998,0.10712 0.59884,0.47119 0.0705,-0.0835 0.74752,0.58798 0.19137,0.18965 0.40389,0.37834 0.26484,0.4586 -0.33399,0.19281 -0.20311,-0.027 -0.51533,-0.009 -0.0594,0.004 -0.0952,0.0763 -0.15252,0.0881 -0.0408,0.009 -0.0804,-0.0214 -0.11999,-0.0322 l -0.12122,-0.0324 -0.50061,-0.13416 -0.25705,0.95911 c 0.10762,0.19165 0.13211,0.0629 0.073,0.28433 -0.0124,0.0403 0,0.0892 -0.0322,0.12036 -0.0396,0.044 -0.10144,0.0595 -0.15277,0.0888 -0.0124,0.005 -0.0149,0.009 -0.0236,0.0144 l -0.38236,1.42727 0.13892,0.0373 c 0.0408,0.0112 0.13186,-0.008 0.12122,0.0325 -0.0124,0.0402 -0.0803,-0.0217 -0.12122,-0.0325 -0.0457,-0.0124 -0.094,-0.019 -0.14114,-0.0291 l -0.0829,0.30726 c 0.042,0.0287 0.0829,0.0575 0.12667,0.0837 0.14708,0.0882 0.32187,0.13663 0.45027,0.25046 0.0618,0.0552 -0.16093,-0.0432 -0.24133,-0.0647 l -0.38039,-0.10192 -0.20805,0.77621 c 0.74145,0.66195 -0.0977,-0.0396 0.29761,0.41078 0.0618,0.0699 0.1315,0.13371 0.20918,0.18498 0.0346,0.0229 0.13112,-0.008 0.11999,0.0322 -0.0149,0.0569 -0.0953,0.0771 -0.15277,0.0888 -0.12889,0.0264 -0.26249,0.0155 -0.39386,0.0233 -0.0952,0.005 -0.18988,0.014 -0.28475,0.0222 l -0.38112,1.42238 c 0.0198,0.008 0.0532,0.0274 0.12468,0.0909 0.0273,0.0241 0.1618,0.21296 0.0569,0.27384 -0.0359,0.0208 -0.0805,-0.0217 -0.12123,-0.0325 -0.0124,-0.003 -0.0754,-0.0196 -0.13904,-0.0372 l -0.10762,0.40315 c 0.0829,0.0517 0.17566,0.0924 0.23899,0.14853 0.11257,0.0996 0.19792,0.2256 0.29701,0.33831 0.17948,0.13425 0.37072,0.2543 0.53846,0.403 0.031,0.0276 -0.0804,-0.0216 -0.12122,-0.0324 -0.0804,-0.0215 -0.17195,-0.0187 -0.24147,-0.0647 -0.0779,-0.0513 -0.12692,-0.13958 -0.20831,-0.18476 -0.073,-0.0403 -0.16105,-0.0432 -0.24146,-0.0647 -0.0804,-0.0215 -0.15834,-0.0696 -0.24133,-0.0647 -0.0581,0.004 -0.10144,0.0586 -0.15253,0.0881 l -0.0236,0.0138 -0.28117,1.04932 c 0,0.008 0.0124,0.0172 0.0136,0.022 0.0693,0.046 0.17912,0.01 0.24133,0.0647 0.031,0.0276 -0.0532,0.0851 -0.0322,0.12111 0.021,0.0362 0.0854,0.01 0.11999,0.0322 0.0779,0.0513 0.1279,0.13982 0.20917,0.18499 0.073,0.0405 0.17838,0.009 0.2406,0.0645 0.0693,0.0618 -0.0915,0.21071 -0.18493,0.20915 -0.12444,-0.003 -0.69408,-0.21076 -0.7234,-0.19381 -0.0149,0.009 -0.10514,0.34639 -0.0965,0.36168 0.047,0.0806 0.19049,0.0939 0.20917,0.18498 0.0161,0.0774 -0.21177,0.69344 -0.19408,0.72419 0.021,0.0362 0.0804,0.0214 0.11998,0.0322 0.0297,0.008 0.35886,0.0919 0.3617,0.0969 0.021,0.0362 -0.021,0.0802 -0.0322,0.12023 -0.0124,0.0402 0,0.0892 -0.0322,0.12024 -0.20744,0.2339 -0.54044,-0.0429 -0.7558,-0.0727 0,-7.3e-4 -0.0136,7.3e-4 -0.0198,6.8e-4 l -0.0643,0.23977 c 0.11257,0.047 0.21228,0.10441 0.22898,0.18592 0.0124,0.0577 -0.0953,0.0761 -0.15339,0.0878 -0.0408,0.009 -0.0804,-0.0214 -0.11999,-0.0322 -0.0124,-7.3e-4 -0.0124,-0.004 -0.0185,-0.005 l -0.31271,1.16717 71.97364,19.28528 0.21524,-0.80303 c -0.0718,-0.008 -0.26731,-0.073 -0.31012,-0.0845 l -0.0693,-0.0187 c -0.0161,-0.004 -0.0322,-0.0171 -0.0483,-0.0201 l -0.0532,0.12234 c 0.0124,-0.0402 0.0124,-0.0971 0.0322,-0.1211 0.0124,-0.008 0.0149,-0.003 0.021,-7.3e-4 l 0.45323,-1.03192 c -0.0149,-0.005 -0.0297,-0.0112 -0.0433,-0.0146 l 0.0446,0.0124 0.35551,-0.80985 -0.17392,-0.0466 c -0.0693,-0.0187 -0.15352,-2.7e-4 -0.20967,-0.0562 -0.0186,-0.0187 0.021,-0.08 0.0322,-0.12036 0.021,-0.0791 0.1138,-0.45664 0.12939,-0.4828 0.0198,-0.0331 0.0457,0.0428 0.0693,0.0187 0.0247,-0.024 0.021,-0.0802 0.0322,-0.12023 0.0222,-0.082 0.14584,-0.58158 0.16155,-0.6031 0.0494,-0.067 0.11628,-0.0819 0.17207,-0.0829 0.099,-0.003 0.18628,0.05 0.27956,0.075 0.0124,-0.006 0.026,-0.0144 0.0396,-0.0218 l 0.0556,-0.20646 c -0.25272,-0.0532 0.0236,0.0653 -0.13719,-0.1709 -0.016,-0.0236 -0.094,0.005 -0.0705,-0.0187 0.0457,-0.0452 0.18109,-0.0882 0.28919,-0.11678 l 0.17925,-0.66893 c -0.10638,-0.0185 -0.22315,-0.008 -0.31209,-0.0773 -0.0446,-0.0354 -0.0618,-0.24494 0,-0.26011 0.0767,-0.0204 0.13669,0.0508 0.20966,0.0562 0.0606,0.004 0.12247,-0.003 0.18383,-0.003 l 0.1895,-0.70713 c -0.12246,-0.0548 -0.2448,-0.10836 -0.35687,-0.1897 -0.0284,-0.021 -0.0149,-0.10651 -0.0371,-0.13983 -0.0161,-0.0236 -0.094,0.005 -0.0693,-0.0187 0.0532,-0.0538 0.11504,-0.0676 0.17193,-0.0829 0.21029,-0.0559 0.30691,-0.0483 0.41328,-0.0208 l 0.0965,-0.36007 -0.38037,-0.10193 c -0.0236,-0.006 -0.0606,0.0141 -0.0693,-0.0187 -0.0124,-0.0328 0.0124,-0.10786 0.0322,-0.12036 0.052,-0.0248 0.0915,0.031 0.13978,0.0375 0.10762,0.014 0.21573,0.0233 0.3236,0.0344 l 0.0878,-0.32756 c -0.24133,-0.0702 -0.50086,-0.0813 -0.73378,-0.18095 -0.1138,-0.0488 -0.21128,-0.14334 -0.31703,-0.21476 -0.0124,-0.0464 -0.0124,-0.11269 -0.0371,-0.13902 -0.0371,-0.0372 -0.10761,0.01 -0.13978,-0.0375 -0.0161,-0.0236 0,-0.10786 0.0322,-0.12037 0.0507,-0.0247 0.0915,0.0317 0.13978,0.0375 0.24245,0.029 0.48614,0.0511 0.73144,0.0661 0.15882,0.01 0.32211,-0.004 0.48006,0.009 l 0.0854,-0.31861 c -0.0273,-0.0297 -0.0557,-0.0579 -0.0866,-0.0791 -0.0804,-0.0547 -0.35934,-0.0526 -0.41933,-0.11231 -0.0173,-0.0173 -0.073,-0.19223 0,-0.26014 0.0236,-0.0239 0.047,0.0125 0.0693,0.0187 0.0693,0.0187 0.13632,0.0526 0.20968,0.0562 0.11133,0.005 0.22488,-0.009 0.33857,-0.0217 l 0.11998,-0.44622 c -0.0273,-0.0297 -0.0557,-0.0578 -0.0866,-0.0791 -0.0359,-0.0238 -0.27597,-0.0613 -0.27955,-0.075 -0.0124,-0.0327 0,-0.11343 0.0322,-0.12036 0.0767,-0.0204 0.13669,0.0508 0.20966,0.0562 0.0606,0.004 0.12246,-0.003 0.18407,-0.004 l 0.41117,-1.53455 c -0.19012,-0.0791 -0.37579,-0.17183 -0.5622,-0.26215 -0.32138,-0.15562 -0.48627,-0.22938 -0.57669,-0.26689 -0.0693,-0.0136 -0.1545,-0.0641 0,0 0.0581,0.0112 0.0977,-0.008 -0.0581,-0.16181 -0.0185,-0.0187 -0.0606,0.0141 -0.0693,-0.0187 0,-0.0129 0.094,-0.36031 0.0965,-0.36169 0.18691,-0.0734 0.36936,-0.0736 0.55404,-0.11034 0.11628,-0.0233 0.10886,-0.0236 0.17615,-0.04 -0.35452,-0.14607 -0.72698,-0.30329 -0.95026,-0.42626 -0.0643,-0.0357 0.13978,0.0374 0.20967,0.0562 l 0.41934,0.11244 c -0.0457,-0.033 -0.31469,-0.20584 -0.35464,-0.35379 -0.0346,-0.1285 0.1138,-0.17526 0.20422,-0.20312 0.24271,-0.0746 0.48998,-0.18194 0.726,-0.19312 0.26187,-0.0124 0.51843,0.008 0.77324,0.0338 l 0.37902,-1.41426 c -0.19038,-0.078 -0.37419,-0.15477 -0.69965,-0.30855 -0.42911,-0.20271 -0.52845,-0.18868 -0.81183,-0.60519 -0.0223,-0.0333 -0.0149,-0.10564 -0.0371,-0.13902 -0.0236,-0.006 -0.0804,0.0214 -0.0705,-0.0187 0.0124,-0.0402 0.0532,-0.005 0.0705,0.0187 l 0.20967,0.0562 1.32817,0.35585 c 0.0569,0.0153 0.11256,0.0338 0.16909,0.0517 l 0.12246,-0.45842 c -0.068,-0.0218 -0.17627,-0.0862 -0.40994,-0.27101 -0.0223,-0.0175 -0.35687,-0.46182 -0.35997,-0.61391 -7.3e-4,-0.0387 0.0124,-0.10316 0.0322,-0.12036 0.0804,-0.054 0.16242,-0.0548 0.24195,-0.0641 0.25631,-0.0302 0.50853,-0.0329 0.7636,-0.054 0.0124,-7.3e-4 0.0223,-0.003 0.0334,-0.004 l 0.45064,-1.68168 c -0.0334,-0.008 -0.068,-0.0135 -0.10143,-0.0224 -0.0928,-0.025 -0.19334,-0.0274 -0.27956,-0.075 -0.0681,-0.0375 -0.10885,-0.13975 -0.17726,-0.17729 -0.0866,-0.0475 -0.18642,-0.05 -0.27968,-0.075 -0.0236,-0.006 -0.0606,0.0141 -0.0693,-0.0187 -0.0124,-0.0329 0,-0.10787 0.0322,-0.12036 0.0247,-0.0124 0.37482,0.10044 0.41947,0.11232 l 0.52015,0.13939 0.28624,-1.06802 c -0.0322,-0.0149 -0.0643,-0.0306 -0.0965,-0.0448 -0.10638,-0.0713 -0.20397,-0.16365 -0.31729,-0.21394 -0.13347,-0.0592 -0.2876,-0.0485 -0.41946,-0.11232 -0.15784,-0.0765 -0.27895,-0.32616 -0.39238,-0.4928 -0.0557,-0.082 -0.17603,-0.17829 -0.0754,-0.27886 0.0247,-0.024 0.047,0.0125 0.0693,0.0187 0.13991,0.0375 0.27536,0.0922 0.41947,0.11233 0.19359,0.0271 0.39694,0.006 0.5914,0.0296 0.0965,0.0112 0.18642,0.05 0.27956,0.075 l 0.17071,0.0457 0.17838,-0.66566 -71.97365,-19.28532 z m 68.45402,28.10344 c 0.26113,0.18953 0.29007,0.20478 0.41303,0.23699 0.12123,-0.0311 0.24555,-0.0581 0.32088,-0.0403 z m 0.41303,0.23699 c -0.026,0.006 -0.0569,0.0124 -0.0915,0.0206 0.22637,0.0933 0.46128,0.18871 0.59265,0.24591 0.0322,0.0142 0.0643,0.0293 0.0965,0.044 l 0.0136,-0.0495 c -0.0247,-0.0402 -0.0446,-0.0893 -0.0767,-0.1148 -0.0396,-0.0316 -0.0928,-0.025 -0.13978,-0.0375 l -0.27957,-0.075 c -0.0693,-0.0185 -0.0779,-0.0244 -0.1138,-0.034 z m -2.05539,9.66351 0.0359,0.01 c 0.0235,0.006 0.052,-0.003 0.0693,0.0187 0.0124,0.01 0.0149,0.0252 0.0236,0.0368 l 0.24702,-0.92171 -0.37591,0.85667 z m -0.35551,0.80987 -6.2e-4,0.003 c 0.0878,0.0271 0.17504,0.0567 0.26595,0.0707 l 3.7e-4,-7.3e-4 -0.26583,-0.0712 z m -70.59476,-23.36828 c -0.0346,-0.0127 -0.0198,0.0244 -0.0124,0.0399 z"
       style="opacity:0.594;fill:#866239;fill-opacity:1;fill-rule:nonzero;stroke:none;stroke-width:1.5;stroke-linecap:round;stroke-linejoin:round;stroke-miterlimit:4;stroke-dasharray:none;stroke-dashoffset:0;stroke-opacity:1" />
    <path
       style="opacity:0.594;fill:#866239;fill-opacity:1;fill-rule:nonzero;stroke:none;stroke-width:1.5;stroke-linecap:round;stroke-linejoin:round;stroke-miterlimit:4;stroke-dasharray:none;stroke-dashoffset:0;stroke-opacity:1"
       d="m 34.323421,-216.63423 0.334517,1.24845 0.823628,-0.3139 c -0.132149,0.0661 -0.256142,0.17797 -0.285265,0.32035 -0.0086,0.0408 0.05328,0.0842 0.03218,0.12036 -0.02076,0.036 -0.08001,0.0214 -0.120239,0.0322 -0.04861,0.013 -0.217029,0.0638 -0.378414,0.10923 l 0.01894,0.0707 c 0.05051,5.2e-4 0.100699,-1.6e-4 0.15053,0.006 0.0924,0.0111 0.182473,0.037 0.273623,0.0556 0.09117,0.0187 0.193268,0.01 0.273864,0.0564 0.03598,0.0208 0.02136,0.08 0.03227,0.12036 0.01116,0.0402 0.0724,0.10947 0.03227,0.12023 -0.08993,0.0241 -0.180579,-0.0572 -0.273641,-0.0556 -0.08321,7.3e-4 -0.161004,0.0432 -0.241385,0.0647 -0.04636,0.0124 -0.09203,0.0268 -0.138282,0.04 l 0.225418,0.84124 c 1.825102,-0.49655 -0.290524,0.0339 1.859614,-0.36848 0.245451,-0.046 0.475653,-0.16996 0.724192,-0.19406 0.04143,-0.004 0.02136,0.0802 0.03227,0.12036 0.01116,0.0402 0.04083,0.0803 0.03243,0.1211 -0.01237,0.0576 -0.04489,0.11368 -0.08882,0.15274 -0.237173,0.21027 -0.503176,0.38499 -0.746767,0.58775 -0.336264,0.27992 -0.404198,0.34291 -0.50808,0.43495 0.04307,0.005 -0.305342,0.27059 0,0 -0.02561,-0.003 -0.232416,0.12247 -0.898223,0.58824 -0.0061,0.004 -0.0099,0.0112 -0.01609,0.0149 l 0.209945,0.78354 c 0.0647,0.0112 0.05656,0.0296 0.01375,0.0512 l 0.0141,0.0529 c 0.167561,-0.0285 0.311768,-0.054 0.760148,-0.13137 0.287074,-0.0497 0.563102,-0.15088 0.8445,-0.22629 0.08044,-0.0215 0.157502,-0.0695 0.240573,-0.0645 0.05873,0.004 0.09574,0.0761 0.15335,0.0878 0.04083,0.009 0.08407,-0.0533 0.120239,-0.0322 0.03598,0.0208 0.05311,0.0852 0.03243,0.1211 -0.02076,0.036 -0.08001,0.0214 -0.120238,0.0322 -0.160806,0.0431 -0.333566,0.0555 -0.482807,0.12938 -0.08347,0.0411 -0.122462,0.14903 -0.208335,0.18475 -0.491378,0.20449 -0.848842,0.33144 -1.19527,0.43876 l 0.630283,2.35223 c 0.05259,0.0112 0.104523,0.025 0.157701,0.0326 0.754189,0.10873 0.01903,-0.10737 0.941402,0.13542 0.260553,0.0685 0.53889,0.12575 0.458621,0.26476 -0.1928,0.33394 -0.189358,0.0782 -0.45037,0.25047 -0.04921,0.0322 -0.04403,0.11343 -0.08807,0.15253 -0.03114,0.0276 -0.08001,0.0214 -0.120359,0.0322 l -0.121104,0.0324 -0.500685,0.13415 0.256998,0.95911 c 0.189445,0.1117 0.145868,-0.0112 0.205196,0.20984 0.01116,0.0402 0.04048,0.0796 0.03227,0.12024 -0.01237,0.0576 -0.05839,0.10242 -0.08783,0.15334 -0.0052,0.01 -0.0086,0.0155 -0.01349,0.0245 l 0.382435,1.42728 0.138991,-0.0372 c 0.04022,-0.0112 0.110344,-0.0726 0.121104,-0.0325 0.01116,0.0402 -0.08087,0.0217 -0.121104,0.0325 -0.04593,0.0124 -0.09105,0.0307 -0.136802,0.0454 l 0.08226,0.30723 c 0.05051,0.004 0.100812,0.009 0.151378,0.009 0.171574,0.003 0.347154,-0.0426 0.51526,-0.009 0.08148,0.0166 -0.161005,0.0431 -0.241395,0.0647 l -0.380394,0.10193 0.20799,0.77621 c 0.973068,0.20255 -0.104774,0.0149 0.463154,0.20692 0.08808,0.0298 0.180743,0.0501 0.27364,0.0556 0.04152,0.003 0.10947,-0.0724 0.12023,-0.0322 0.01522,0.0569 -0.04377,0.1143 -0.08782,0.15334 -0.09847,0.0872 -0.219641,0.14468 -0.329491,0.21718 -0.0794,0.0521 -0.157415,0.10713 -0.235496,0.16151 l 0.38113,1.42239 c 0.02128,-0.004 0.0596,-0.003 0.153349,0.0163 0.03563,0.008 0.24668,0.10353 0.185761,0.20895 -0.02076,0.0362 -0.08087,0.0217 -0.121104,0.0325 -0.01116,0.004 -0.07456,0.0205 -0.138974,0.0372 l 0.107991,0.40314 c 0.09722,0.004 0.198241,-0.008 0.281217,0.009 0.147001,0.0302 0.284236,0.0964 0.426367,0.1445 0.222547,0.0265 0.448208,0.0349 0.667787,0.0797 0.04074,0.009 -0.08087,0.0216 -0.121103,0.0325 -0.08035,0.0215 -0.158297,0.0696 -0.241395,0.0647 -0.0929,-0.005 -0.179748,-0.0573 -0.27281,-0.0559 -0.08321,7.3e-4 -0.160995,0.0431 -0.241385,0.0647 -0.08044,0.0215 -0.171938,0.0187 -0.241395,0.0647 -0.04921,0.0322 -0.05864,0.10155 -0.08808,0.15251 l -0.01358,0.0236 0.281157,1.04932 c 0.0086,0.004 0.01445,0.0112 0.02326,0.0124 0.08312,0.005 0.159863,-0.0813 0.241386,-0.0647 0.04083,0.009 -0.0034,0.10032 0.03243,0.12111 0.03615,0.0208 0.0788,-0.0348 0.120359,-0.0322 0.0929,0.005 0.18057,0.0572 0.273623,0.0555 0.08321,-7.3e-4 0.159041,-0.0811 0.240582,-0.0644 0.09117,0.0187 0.02569,0.22848 -0.05571,0.27362 -0.108725,0.0605 -0.706434,0.16451 -0.72337,0.19384 -0.0086,0.0152 0.08165,0.35287 0.09686,0.36169 0.08062,0.0465 0.211899,-0.014 0.273641,0.0557 0.05242,0.0591 0.163278,0.70645 0.194028,0.72421 0.03616,0.0208 0.08018,-0.0214 0.12036,-0.0322 0.02915,-0.008 0.356755,-0.0998 0.361686,-0.0968 0.03615,0.0208 0.02136,0.0802 0.03226,0.12023 0.01116,0.0402 0.04048,0.0797 0.03227,0.12023 -0.06271,0.30628 -0.489502,0.23302 -0.690935,0.31496 -0.0078,0.003 -0.01116,0.009 -0.01721,0.0112 l 0.06435,0.23977 c 0.120974,-0.0157 0.23604,-0.0157 0.291233,0.0465 0.0391,0.044 -0.0448,0.11369 -0.08881,0.15276 -0.03114,0.0276 -0.08001,0.0214 -0.12023,0.0322 -0.0061,0.003 -0.01271,0.003 -0.01869,0.005 l 0.312737,1.16719 71.973708,-19.28531 -0.21517,-0.80304 c -0.0656,0.0294 -0.26792,0.0704 -0.31085,0.0819 l -0.0699,0.0187 c -0.0162,0.005 -0.0365,7.3e-4 -0.0522,0.008 l 0.0146,0.13283 c -0.0112,-0.0403 -0.0414,-0.0883 -0.0325,-0.1211 0.003,-0.01 0.0112,-0.01 0.0178,-0.0124 l -0.12333,-1.12034 c -0.015,0.004 -0.0306,0.005 -0.0454,0.01 l 0.0446,-0.0124 -0.097,-0.87912 -0.17395,0.0466 c -0.0699,0.0187 -0.13313,0.0765 -0.20969,0.0562 -0.0255,-0.006 -0.0214,-0.0802 -0.0322,-0.12036 -0.0213,-0.0793 -0.13003,-0.4522 -0.12937,-0.4828 6.7e-4,-0.0388 0.061,0.0141 0.0699,-0.0187 0.009,-0.0328 -0.0214,-0.0802 -0.0322,-0.12024 -0.022,-0.082 -0.16447,-0.57658 -0.1616,-0.60309 0.009,-0.0825 0.0601,-0.1292 0.10762,-0.15773 0.0848,-0.0513 0.18638,-0.05 0.27959,-0.075 0.009,-0.0112 0.0155,-0.0255 0.0229,-0.0383 l -0.0554,-0.20644 c -0.24555,0.0803 0.0531,0.0446 -0.20423,-0.0794 -0.0256,-0.0124 -0.0787,0.0517 -0.0699,0.0187 0.0166,-0.0618 0.11269,-0.16686 0.19201,-0.24573 l -0.17925,-0.66893 c -0.1018,0.0375 -0.19691,0.10527 -0.30891,0.0891 -0.0564,-0.009 -0.17642,-0.18098 -0.13476,-0.22256 0.0562,-0.0559 0.14379,-0.0242 0.20971,-0.0562 0.0541,-0.0268 0.10477,-0.0637 0.15778,-0.0943 l -0.18947,-0.70712 c -0.13318,0.0136 -0.26616,0.0284 -0.40392,0.0141 -0.0355,-0.004 -0.0661,-0.0849 -0.10242,-0.1023 -0.0256,-0.0124 -0.0787,0.0517 -0.0699,0.0187 0.0198,-0.0734 0.0656,-0.11615 0.10762,-0.15774 0.15414,-0.15352 0.24162,-0.19522 0.34749,-0.22469 l -0.0965,-0.36006 -0.3804,0.10193 c -0.0233,0.006 -0.0457,0.0428 -0.0699,0.0187 -0.0241,-0.024 -0.048,-0.0969 -0.0322,-0.12024 0.0319,-0.0473 0.0949,-0.0192 0.1398,-0.0375 0.0998,-0.0415 0.1984,-0.0878 0.2974,-0.13198 l -0.0877,-0.32755 c -0.2442,0.0599 -0.47442,0.18009 -0.72597,0.21018 -0.12297,0.0147 -0.25465,-0.0185 -0.38196,-0.0275 -0.034,-0.0339 -0.0661,-0.092 -0.10218,-0.10156 -0.051,-0.0135 -0.0884,0.0624 -0.1398,0.0375 -0.0256,-0.0124 -0.048,-0.0969 -0.0322,-0.12037 0.0319,-0.0471 0.0951,-0.0183 0.1398,-0.0374 0.22444,-0.0961 0.44659,-0.19882 0.66657,-0.30837 0.14247,-0.0708 0.27688,-0.16454 0.42046,-0.23201 l -0.0854,-0.31861 c -0.0387,-0.0124 -0.0771,-0.0222 -0.11479,-0.025 -0.0973,-0.008 -0.33761,0.13412 -0.41939,0.11231 -0.0236,-0.008 -0.15966,-0.12976 -0.13478,-0.22256 0.009,-0.0329 0.0466,-0.0125 0.0699,-0.0187 0.0699,-0.0187 0.14431,-0.0227 0.20971,-0.0562 0.0986,-0.0506 0.19026,-0.12012 0.2824,-0.18805 l -0.11961,-0.44622 c -0.0387,-0.0124 -0.0771,-0.0224 -0.11481,-0.025 -0.0426,-0.003 -0.26965,0.0848 -0.27958,0.075 -0.0241,-0.0239 -0.0508,-0.10168 -0.0322,-0.12023 0.0562,-0.0559 0.14377,-0.0242 0.20968,-0.0562 0.0543,-0.0268 0.10515,-0.0631 0.15732,-0.0955 l -0.41119,-1.53454 c -0.20417,0.0265 -0.41135,0.0391 -0.61798,0.054 -0.35603,0.0259 -0.53578,0.0444 -0.63281,0.0572 -0.0668,0.0228 -0.16583,0.0218 0,0 0.0563,-0.0193 0.0809,-0.0549 -0.13086,-0.11133 -0.0255,-0.006 -0.0457,0.0428 -0.0699,0.0187 -0.01,-0.01 -0.099,-0.3589 -0.097,-0.3617 0.12508,-0.15707 0.28303,-0.24839 0.42462,-0.37252 0.0897,-0.0785 0.0825,-0.0748 0.13264,-0.1227 -0.38007,0.0507 -0.78126,0.10082 -1.03613,0.10601 -0.0739,7.3e-4 0.13977,-0.0374 0.2097,-0.0562 l 0.41939,-0.11232 c -0.0561,-0.006 -0.37552,-0.0208 -0.48407,-0.12902 -0.0943,-0.0939 0.0112,-0.20864 0.0753,-0.27803 0.1729,-0.186 0.33339,-0.40256 0.53219,-0.53027 0.22054,-0.14165 0.45237,-0.25326 0.68654,-0.35735 l -0.37894,-1.41425 c -0.20387,0.0274 -0.40141,0.0531 -0.76017,0.0826 -0.47291,0.039 -0.55201,0.10082 -1.00563,-0.11826 -0.0362,-0.0177 -0.0659,-0.084 -0.10217,-0.10155 -0.0233,0.006 -0.0592,0.0589 -0.0699,0.0187 -0.0112,-0.0403 0.0443,-0.0311 0.0699,-0.0187 l 0.20969,-0.0562 1.32811,-0.35586 c 0.0567,-0.0152 0.11467,-0.0273 0.17228,-0.0399 l -0.12284,-0.45843 c -0.0698,0.0152 -0.19572,0.0135 -0.49057,-0.0297 -0.0279,-0.004 -0.53995,-0.22153 -0.61867,-0.3517 -0.0199,-0.0331 -0.0456,-0.0928 -0.0322,-0.12036 0.0424,-0.087 0.1133,-0.12866 0.17745,-0.17651 0.20688,-0.15424 0.42402,-0.28273 0.63431,-0.42867 0.01,-0.008 0.0185,-0.013 0.0276,-0.0199 l -0.45059,-1.68168 c -0.0333,0.01 -0.0661,0.0227 -0.0996,0.0317 -0.0933,0.025 -0.18119,0.073 -0.27961,0.075 -0.0778,7.3e-4 -0.16437,-0.0664 -0.24215,-0.065 -0.0983,0.003 -0.18638,0.05 -0.27959,0.075 -0.0233,0.006 -0.0457,0.0428 -0.0699,0.0187 -0.0241,-0.0239 -0.048,-0.0969 -0.0322,-0.12036 0.0156,-0.0228 0.37471,-0.10044 0.4194,-0.11233 l 0.5202,-0.13938 -0.28619,-1.06802 c -0.0352,0.004 -0.0706,0.005 -0.10563,0.009 -0.12731,-0.009 -0.25841,-0.0399 -0.38174,-0.0268 -0.14512,0.0155 -0.27328,0.1018 -0.41939,0.11244 -0.17495,0.0126 -0.40474,-0.14296 -0.58622,-0.23058 -0.0893,-0.0431 -0.2416,-0.0665 -0.20449,-0.20394 0.009,-0.0329 0.0466,-0.0125 0.0699,-0.0187 0.13985,-0.0375 0.28451,-0.0578 0.4194,-0.11244 0.18124,-0.0734 0.34684,-0.19319 0.52696,-0.27015 0.0893,-0.0382 0.18636,-0.05 0.2796,-0.075 l 0.1707,-0.0457 -0.17837,-0.66567 -71.973705,19.28529 z m 73.334609,-9.88873 c 0.32094,0.0336 0.35365,0.0322 0.47618,-7.3e-4 0.0892,-0.0872 0.18366,-0.17292 0.25779,-0.19535 l -0.73395,0.19665 z m 0.47618,-7.3e-4 c -0.0187,0.0186 -0.0431,0.039 -0.0691,0.0638 0.24271,-0.0325 0.49384,-0.0672 0.63625,-0.0834 0.035,-0.004 0.0702,-0.008 0.10539,-0.01 l -0.0132,-0.0495 c -0.0415,-0.0225 -0.0837,-0.0546 -0.12432,-0.0607 -0.0504,-0.008 -0.0931,0.025 -0.13979,0.0375 l -0.2796,0.075 c -0.0689,0.0185 -0.0796,0.0178 -0.11553,0.0274 z m 3.0518,9.39651 0.0357,-0.01 c 0.0233,-0.006 0.0443,-0.0279 0.0699,-0.0187 0.0129,0.004 0.0257,0.0143 0.0386,0.0199 l -0.24698,-0.9217 0.10279,0.92984 z m 0.0971,0.87912 6.8e-4,0.003 c 0.0897,-0.0205 0.1799,-0.0385 0.2656,-0.0719 l -2.4e-4,-6.6e-4 -0.2658,0.0713 z m -72.821031,15.05998 c -0.03615,0.006 -0.0052,0.0313 0.01116,0.0398 z"
       id="path4777"
       inkscape:connector-curvature="0" />
    <path
       id="path4801"
       d="m 74.87796,575.39564 326.99051,-7.537 3.9957,173.3507 -326.99058,7.537 z"
       style="fill:none;fill-opacity:1;stroke:none;stroke-width:1.90771;stroke-miterlimit:4;stroke-dasharray:none;stroke-dashoffset:0;stroke-opacity:1"
       inkscape:connector-curvature="0" />
    <path
       style="fill:#f1feae;fill-opacity:1;stroke:none;stroke-width:1.91184;stroke-miterlimit:4;stroke-dasharray:none;stroke-dashoffset:0;stroke-opacity:1"
       d="m 754.24783,610.22792 -212.40117,-5.32857 -0.27978,21.6736 -7.38399,118.53274 216.22594,9.18216 3.40799,-123.039 z"
       id="path1180"
       inkscape:connector-curvature="0"
       sodipodi:nodetypes="ccccccc" />
    <path
       sodipodi:nodetypes="ccccccccc"
       inkscape:connector-curvature="0"
       id="path4744"
       d="m 342.98973,-109.97122 175.35679,4.28893 135.06161,1.7611 32.01314,0.37237 -2.14635,67.640461 -30.90377,-0.359475 -132.51343,-1.715243 -180.84205,-4.572226 z"
       style="opacity:1;fill:#b7d8c4;fill-opacity:1;fill-rule:nonzero;stroke:none;stroke-width:1.5;stroke-linecap:round;stroke-linejoin:round;stroke-miterlimit:4;stroke-dasharray:none;stroke-dashoffset:0;stroke-opacity:1" />
    <path
       style="fill:#f1feae;fill-opacity:1;stroke:none;stroke-width:1.91184;stroke-miterlimit:4;stroke-dasharray:none;stroke-dashoffset:0;stroke-opacity:1"
       d="m 296.17371,606.33027 -212.165279,-1.25817 -0.27973,24.85358 -6.316844,117.86863 212.307843,3.99637 6.88317,-117.61741 z"
       id="path4584"
       inkscape:connector-curvature="0"
       sodipodi:nodetypes="ccccccc" />
    <g
       style="display:inline;stroke-width:1.38033"
       id="g3504"
       transform="matrix(0.72085148,-0.07243378,0.07243679,0.72081628,151.05915,332.98376)">
      <g
         id="g3502"
         style="stroke-width:1.38033">
        <path
           style="opacity:1;vector-effect:none;fill:#1a1a1a;fill-opacity:1;fill-rule:nonzero;stroke:none;stroke-width:0.690165;stroke-linecap:round;stroke-linejoin:round;stroke-miterlimit:4;stroke-dasharray:none;stroke-dashoffset:0;stroke-opacity:1"
           d="m 517.34444,445.04666 24.91899,-8.53959 c 0,0 4.87889,10.55304 5.17885,13.17987 0.29996,2.62683 -0.41656,26.69933 -0.41656,26.69933 0.005,1.58956 -1.27317,2.7797 -2.85971,2.87894 0,0 -24.08366,0.33346 -27.12797,-0.0524 -3.0443,-0.38588 -12.53284,-3.04049 -12.53284,-3.04049 l 8.1879,-26.44306 z"
           id="path3494"
           inkscape:connector-curvature="0"
           sodipodi:nodetypes="cczsszccc" />
        <rect
           transform="matrix(0.99999843,-0.00176943,0.0017624,0.99999845,0,0)"
           ry="4.5731845"
           y="435.26782"
           x="500.46609"
           height="41.977966"
           width="41.979279"
           id="rect3496"
           style="opacity:1;vector-effect:none;fill:#ffffff;fill-opacity:1;fill-rule:nonzero;stroke:#000000;stroke-width:0.345083;stroke-linecap:round;stroke-linejoin:round;stroke-miterlimit:4;stroke-dasharray:none;stroke-dashoffset:0;stroke-opacity:1" />
        <text
           transform="rotate(-0.14324406)"
           id="text3500"
           y="470.01593"
           x="521.38367"
           style="font-style:normal;font-variant:normal;font-weight:normal;font-stretch:normal;font-size:37.3333px;line-height:25px;font-family:'Archivo Narrow';-inkscape-font-specification:'Archivo Narrow, Normal';text-align:center;letter-spacing:0px;word-spacing:0px;writing-mode:lr-tb;text-anchor:middle;fill:#000000;fill-opacity:1;stroke:none;stroke-width:1.38033px;stroke-linecap:butt;stroke-linejoin:miter;stroke-opacity:1"
           xml:space="preserve"><tspan
             style="font-style:normal;font-variant:normal;font-weight:normal;font-stretch:normal;font-family:'Archivo Black';-inkscape-font-specification:'Archivo Black, ';stroke-width:1.38033px"
             y="470.01593"
             x="521.38367"
             id="tspan3498"
             sodipodi:role="line">?</tspan></text>
      </g>
    </g>
    <g
       style="display:inline;stroke-width:1.38033"
       id="g4478"
       transform="matrix(0.72085148,-0.07243378,0.07243679,0.72081628,-305.11118,332.99476)">
      <g
         id="g4476"
         style="stroke-width:1.38033">
        <path
           style="opacity:1;vector-effect:none;fill:#1a1a1a;fill-opacity:1;fill-rule:nonzero;stroke:none;stroke-width:0.690165;stroke-linecap:round;stroke-linejoin:round;stroke-miterlimit:4;stroke-dasharray:none;stroke-dashoffset:0;stroke-opacity:1"
           d="m 517.34444,445.04666 24.91899,-8.53959 c 0,0 4.87889,10.55304 5.17885,13.17987 0.29996,2.62683 -0.41656,26.69933 -0.41656,26.69933 0.005,1.58956 -1.27317,2.7797 -2.85971,2.87894 0,0 -24.08366,0.33346 -27.12797,-0.0524 -3.0443,-0.38588 -12.53284,-3.04049 -12.53284,-3.04049 l 8.1879,-26.44306 z"
           id="path4468"
           inkscape:connector-curvature="0"
           sodipodi:nodetypes="cczsszccc" />
        <rect
           transform="matrix(0.99999843,-0.00176943,0.0017624,0.99999845,0,0)"
           ry="4.5731845"
           y="435.26782"
           x="500.46609"
           height="41.977966"
           width="41.979279"
           id="rect4470"
           style="opacity:1;vector-effect:none;fill:#ffffff;fill-opacity:1;fill-rule:nonzero;stroke:#000000;stroke-width:0.345083;stroke-linecap:round;stroke-linejoin:round;stroke-miterlimit:4;stroke-dasharray:none;stroke-dashoffset:0;stroke-opacity:1" />
        <text
           transform="rotate(-0.14324406)"
           id="text4474"
           y="470.01593"
           x="521.38367"
           style="font-style:normal;font-variant:normal;font-weight:normal;font-stretch:normal;font-size:37.3333px;line-height:25px;font-family:'Archivo Narrow';-inkscape-font-specification:'Archivo Narrow, Normal';text-align:center;letter-spacing:0px;word-spacing:0px;writing-mode:lr-tb;text-anchor:middle;fill:#000000;fill-opacity:1;stroke:none;stroke-width:1.38033px;stroke-linecap:butt;stroke-linejoin:miter;stroke-opacity:1"
           xml:space="preserve"><tspan
             style="font-style:normal;font-variant:normal;font-weight:normal;font-stretch:normal;font-family:'Archivo Black';-inkscape-font-specification:'Archivo Black, ';stroke-width:1.38033px"
             y="470.01593"
             x="521.38367"
             id="tspan4472"
             sodipodi:role="line">?</tspan></text>
      </g>
    </g>
    <g
       id="text4585"
       style="font-style:normal;font-variant:normal;font-weight:normal;font-stretch:normal;font-size:37.3333px;line-height:25px;font-family:'Archivo Narrow';-inkscape-font-specification:'Archivo Narrow, Normal';text-align:center;letter-spacing:0px;word-spacing:0px;writing-mode:lr-tb;text-anchor:middle;fill:#000000;fill-opacity:1;stroke:none;stroke-width:1px;stroke-linecap:butt;stroke-linejoin:miter;stroke-opacity:1"
       transform="rotate(1.5572485)"
       aria-label="Non-player Character">
      <path
         inkscape:connector-curvature="0"
         id="path4605"
         d="m 387.88079,-102.22695 h -2.94934 v 16.090671 c 0,0.821333 0.112,3.397333 0.112,3.397333 l -0.112,0.03733 c 0,0 -1.008,-2.464 -1.568,-3.434666 l -9.52,-16.090668 h -2.83733 v 25.610667 h 2.94933 v -16.314666 c 0,-1.045333 -0.14933,-3.397333 -0.14933,-3.397333 l 0.112,-0.03733 c 0,0 1.008,2.352 1.64267,3.434666 l 9.59466,16.314666 h 2.72534 z" />
      <path
         inkscape:connector-curvature="0"
         id="path4607"
         d="m 398.99854,-96.701612 c -4.592,0 -7.01867,3.210666 -7.01867,10.266666 0,7.056 2.42667,10.266666 7.01867,10.266666 4.592,0 7.01866,-3.210666 7.01866,-10.266666 0,-7.056 -2.42666,-10.266666 -7.01866,-10.266666 z m 0,2.725333 c 2.53866,0 3.808,2.314667 3.808,6.832 v 1.418666 c 0,4.517334 -1.26934,6.832 -3.808,6.832 -2.53867,0 -3.808,-2.314666 -3.808,-6.832 v -1.418666 c 0,-4.517333 1.26933,-6.832 3.808,-6.832 z" />
      <path
         inkscape:connector-curvature="0"
         id="path4609"
         d="m 417.40678,-96.701612 c -1.94133,0 -3.65866,0.784 -4.74133,2.725333 h -0.224 l -0.41066,-2.277333 h -2.31467 v 19.637332 h 3.06133 v -11.983999 c 0,-3.397333 1.71734,-5.376 3.65867,-5.376 1.64266,0 2.76266,0.709333 2.76266,3.434667 v 13.925332 h 3.06134 v -14.149332 c 0,-4.368 -1.904,-5.936 -4.85334,-5.936 z" />
      <path
         inkscape:connector-curvature="0"
         id="path4611"
         d="m 434.24703,-88.525613 h -9.408 v 3.658667 h 9.408 z" />
      <path
         inkscape:connector-curvature="0"
         id="path4613"
         d="m 444.11937,-96.701612 c -1.792,0 -3.36,0.933333 -4.29333,2.725333 h -0.18667 l -0.41067,-2.277333 h -2.31466 v 26.095999 h 3.06133 v -8.176 h 0.18667 c 0.672,1.344 2.27733,2.165333 4.18133,2.165333 3.248,0 5.86133,-3.098666 5.86133,-10.229333 0,-7.205333 -2.352,-10.303999 -6.08533,-10.303999 z m -0.63467,2.725333 c 2.352,0 3.50934,1.941333 3.50934,6.832 v 1.418666 c 0,4.890667 -1.15734,6.832 -3.50934,6.832 -2.352,0 -3.50933,-2.314666 -3.50933,-6.832 v -1.418666 c 0,-4.517333 1.15733,-6.832 3.50933,-6.832 z" />
      <path
         inkscape:connector-curvature="0"
         id="path4615"
         d="m 456.59161,-103.60828 h -3.06133 v 26.992 h 3.06133 z" />
      <path
         inkscape:connector-curvature="0"
         id="path4617"
         d="m 466.7702,-96.701612 c -3.696,0 -6.30934,1.866666 -6.30934,5.450666 0,0.336 0,0.597334 0.0373,0.821334 h 3.024 v -0.448 c 0,-1.493334 0.70933,-3.098667 3.024,-3.098667 2.50133,0 3.09866,1.306667 3.09866,3.173333 v 2.538667 c -5.712,0 -9.93066,1.157333 -9.93066,6.570666 0,4.741333 3.21066,5.525333 5.152,5.525333 2.05333,0 3.77066,-0.970666 4.77866,-2.576 h 0.18667 c 0.37333,1.456 1.49333,2.426667 3.09867,2.426667 0.97066,0 1.68,-0.261333 2.016,-0.448 v -2.128 h -1.19467 c -0.52267,0 -1.04533,-0.373333 -1.04533,-1.306666 v -11.013333 c 0,-3.472 -1.97867,-5.488 -5.936,-5.488 z m 2.87466,12.954666 c 0,3.248 -2.128,4.853333 -4.06933,4.853333 -1.71733,0 -2.65067,-0.746666 -2.65067,-2.986666 0,-3.061334 2.72534,-3.658667 6.72,-3.658667 z" />
      <path
         inkscape:connector-curvature="0"
         id="path4619"
         d="m 490.40512,-96.253612 h -3.09867 l -3.65867,15.231999 h -0.14933 l -4.33067,-15.231999 h -3.36 l 6.01067,19.637332 c -0.70933,3.36 -2.24,4.368 -3.88267,4.368 h -1.08266 v 2.128 c 0.63466,0.224 1.344,0.298667 2.20266,0.298667 3.43467,0 5.18934,-3.509333 6.34667,-7.802667 z" />
      <path
         inkscape:connector-curvature="0"
         id="path4621"
         d="m 499.70694,-96.701612 c -4.928,0 -7.392,3.210666 -7.392,10.266666 0,7.28 2.53867,10.266666 7.42934,10.266666 3.808,0 6.42133,-2.725333 6.42133,-7.130666 h -3.024 c 0,2.725333 -1.38133,4.405333 -3.32267,4.405333 -2.912,0 -4.256,-2.053333 -4.29333,-6.645333 h 10.64 v -1.941333 c 0,-6.570667 -2.16533,-9.221333 -6.45867,-9.221333 z m 0,2.725333 c 2.128,0 3.248,1.978667 3.248,5.712 h -7.392 c 0.26134,-3.770667 1.41867,-5.712 4.144,-5.712 z" />
      <path
         inkscape:connector-curvature="0"
         id="path4623"
         d="m 516.24854,-96.701612 c -1.86667,0 -2.83734,1.530666 -3.32267,3.024 h -0.224 l -0.41067,-2.576 h -2.31466 v 19.637332 h 3.06133 v -11.983999 c 0,-3.472 1.71733,-4.629333 3.65867,-4.629333 h 1.008 v -3.173334 c 0,0 -0.63467,-0.298666 -1.456,-0.298666 z" />
      <path
         inkscape:connector-curvature="0"
         id="path4625"
         d="m 538.12411,-102.67495 c -6.64533,0 -10.08,4.368004 -10.08,13.253338 0,8.885333 3.43467,13.253332 10.08,13.253332 5.22667,0 8.92267,-3.024 8.92267,-9.631999 h -3.248 c 0,4.442666 -2.24,6.607999 -5.67467,6.607999 -4.48,0 -6.64533,-3.061333 -6.64533,-9.295999 v -1.866667 c 0,-6.234666 2.16533,-9.295999 6.64533,-9.295999 3.36,0 5.56267,2.202666 5.56267,6.682666 h 3.36 c 0,-6.533333 -3.696,-9.706671 -8.92267,-9.706671 z" />
      <path
         inkscape:connector-curvature="0"
         id="path4627"
         d="m 553.8712,-103.60828 h -3.06134 v 26.992 h 3.06134 v -11.983999 c 0,-3.397333 1.71733,-5.376 3.65866,-5.376 1.64267,0 2.76267,0.709333 2.76267,3.434667 v 13.925332 h 3.06133 v -14.149332 c 0,-4.368 -1.904,-5.936 -4.85333,-5.936 -1.94133,0 -3.39733,0.746666 -4.40533,2.501333 h -0.224 z" />
      <path
         inkscape:connector-curvature="0"
         id="path4629"
         d="m 573.88478,-96.701612 c -3.696,0 -6.30934,1.866666 -6.30934,5.450666 0,0.336 0,0.597334 0.0373,0.821334 h 3.024 v -0.448 c 0,-1.493334 0.70933,-3.098667 3.024,-3.098667 2.50133,0 3.09866,1.306667 3.09866,3.173333 v 2.538667 c -5.712,0 -9.93066,1.157333 -9.93066,6.570666 0,4.741333 3.21066,5.525333 5.152,5.525333 2.05333,0 3.77066,-0.970666 4.77866,-2.576 h 0.18667 c 0.37333,1.456 1.49333,2.426667 3.09867,2.426667 0.97066,0 1.68,-0.261333 2.016,-0.448 v -2.128 h -1.19467 c -0.52267,0 -1.04533,-0.373333 -1.04533,-1.306666 v -11.013333 c 0,-3.472 -1.97867,-5.488 -5.936,-5.488 z m 2.87466,12.954666 c 0,3.248 -2.128,4.853333 -4.06933,4.853333 -1.71733,0 -2.65067,-0.746666 -2.65067,-2.986666 0,-3.061334 2.72534,-3.658667 6.72,-3.658667 z" />
      <path
         inkscape:connector-curvature="0"
         id="path4631"
         d="m 591.06102,-96.701612 c -1.86667,0 -2.83733,1.530666 -3.32267,3.024 h -0.224 l -0.41066,-2.576 h -2.31467 v 19.637332 h 3.06133 v -11.983999 c 0,-3.472 1.71734,-4.629333 3.65867,-4.629333 h 1.008 v -3.173334 c 0,0 -0.63467,-0.298666 -1.456,-0.298666 z" />
      <path
         inkscape:connector-curvature="0"
         id="path4633"
         d="m 601.0827,-96.701612 c -3.696,0 -6.30934,1.866666 -6.30934,5.450666 0,0.336 0,0.597334 0.0373,0.821334 h 3.024 v -0.448 c 0,-1.493334 0.70933,-3.098667 3.024,-3.098667 2.50133,0 3.09866,1.306667 3.09866,3.173333 v 2.538667 c -5.712,0 -9.93066,1.157333 -9.93066,6.570666 0,4.741333 3.21066,5.525333 5.152,5.525333 2.05333,0 3.77066,-0.970666 4.77866,-2.576 h 0.18667 c 0.37333,1.456 1.49333,2.426667 3.09867,2.426667 0.97066,0 1.68,-0.261333 2.016,-0.448 v -2.128 h -1.19467 c -0.52267,0 -1.04533,-0.373333 -1.04533,-1.306666 v -11.013333 c 0,-3.472 -1.97867,-5.488 -5.936,-5.488 z m 2.87466,12.954666 c 0,3.248 -2.128,4.853333 -4.06933,4.853333 -1.71733,0 -2.65067,-0.746666 -2.65067,-2.986666 0,-3.061334 2.72534,-3.658667 6.72,-3.658667 z" />
      <path
         inkscape:connector-curvature="0"
         id="path4635"
         d="m 617.81094,-96.701612 c -4.592,0 -6.72,3.210666 -6.72,10.266666 0,7.056 2.09067,10.266666 6.72,10.266666 4.33067,0 6.01067,-3.621333 6.01067,-7.727999 h -3.024 c 0,3.248 -0.784,5.002666 -2.98667,5.002666 -2.464,0 -3.50933,-2.314666 -3.50933,-6.832 v -1.418666 c 0,-4.517333 1.08267,-6.832 3.50933,-6.832 2.20267,0 2.83734,1.605333 2.83734,5.002666 h 3.17333 c 0,-5.002666 -1.75467,-7.727999 -6.01067,-7.727999 z" />
      <path
         inkscape:connector-curvature="0"
         id="path4637"
         d="m 630.32344,-101.70428 h -2.38933 l -0.672,5.450668 h -1.68 v 2.725333 h 1.68 v 12.768 c 0,2.239999 0.82133,4.517333 3.50933,4.517333 0.74667,0 1.68,-0.224 2.20267,-0.522667 v -2.128 h -0.896 c -1.15733,0 -1.75467,-0.634667 -1.75467,-1.792 v -12.842666 h 2.65067 v -2.725333 h -2.65067 z" />
      <path
         inkscape:connector-curvature="0"
         id="path4639"
         d="m 642.55069,-96.701612 c -4.928,0 -7.392,3.210666 -7.392,10.266666 0,7.28 2.53867,10.266666 7.42934,10.266666 3.808,0 6.42133,-2.725333 6.42133,-7.130666 h -3.024 c 0,2.725333 -1.38133,4.405333 -3.32267,4.405333 -2.912,0 -4.256,-2.053333 -4.29333,-6.645333 h 10.64 v -1.941333 c 0,-6.570667 -2.16533,-9.221333 -6.45867,-9.221333 z m 0,2.725333 c 2.128,0 3.248,1.978667 3.248,5.712 h -7.392 c 0.26134,-3.770667 1.41867,-5.712 4.144,-5.712 z" />
      <path
         inkscape:connector-curvature="0"
         id="path4641"
         d="m 659.09229,-96.701612 c -1.86667,0 -2.83734,1.530666 -3.32267,3.024 h -0.224 l -0.41067,-2.576 h -2.31466 v 19.637332 h 3.06133 v -11.983999 c 0,-3.472 1.71733,-4.629333 3.65867,-4.629333 h 1.008 v -3.173334 c 0,0 -0.63467,-0.298666 -1.456,-0.298666 z" />
    </g>
    <path
       sodipodi:nodetypes="ccccccc"
       inkscape:connector-curvature="0"
       id="path4646"
       d="m 527.23172,610.22792 -212.40117,-5.32857 -0.27978,21.6736 -7.38399,118.53274 216.22594,9.18216 3.40799,-123.039 z"
       style="fill:#f1feae;fill-opacity:1;stroke:none;stroke-width:1.91184;stroke-miterlimit:4;stroke-dasharray:none;stroke-dashoffset:0;stroke-opacity:1" />
    <g
       style="stroke-width:1.32501"
       transform="matrix(0.75472689,0,0,0.75469544,40.422751,128.02004)"
       id="g5607">
      <g
         style="display:inline;stroke-width:1.32501"
         id="g5174"
         transform="rotate(-5.3112827,2625.3714,1988.861)">
        <path
           sodipodi:nodetypes="cczsszccc"
           inkscape:connector-curvature="0"
           id="path5094"
           d="m 517.34444,445.04666 24.91899,-8.53959 c 0,0 4.87889,10.55304 5.17885,13.17987 0.29996,2.62683 -0.41656,26.69933 -0.41656,26.69933 0.005,1.58956 -1.27317,2.7797 -2.85971,2.87894 0,0 -24.08366,0.33346 -27.12797,-0.0524 -3.0443,-0.38588 -12.53284,-3.04049 -12.53284,-3.04049 l 8.1879,-26.44306 z"
           style="opacity:1;vector-effect:none;fill:#1a1a1a;fill-opacity:1;fill-rule:nonzero;stroke:none;stroke-width:0.662505;stroke-linecap:round;stroke-linejoin:round;stroke-miterlimit:4;stroke-dasharray:none;stroke-dashoffset:0;stroke-opacity:1" />
        <rect
           style="opacity:1;vector-effect:none;fill:#ffffff;fill-opacity:1;fill-rule:nonzero;stroke:#000000;stroke-width:0.331253;stroke-linecap:round;stroke-linejoin:round;stroke-miterlimit:4;stroke-dasharray:none;stroke-dashoffset:0;stroke-opacity:1"
           id="rect5058"
           width="41.979279"
           height="41.977966"
           x="500.46609"
           y="435.26782"
           ry="4.5731845"
           transform="matrix(0.99999843,-0.00176943,0.0017624,0.99999845,0,0)" />
        <g
           style="stroke-width:1.32501"
           transform="translate(9.7848188,-9.094478)"
           id="g5066" />
      </g>
      <path
         inkscape:connector-curvature="0"
         style="display:inline;fill:#000000;fill-opacity:1;stroke:none;stroke-width:0.722602;stroke-miterlimit:4;stroke-dasharray:none;stroke-dashoffset:0;stroke-opacity:1"
         d="m 378.85024,640.5391 a 4.8705405,4.8705405 0 0 1 5.30018,4.39986 4.8705405,4.8705405 0 0 1 -4.39842,5.30002 4.8705405,4.8705405 0 0 1 -5.30149,-4.39826 4.8705405,4.8705405 0 0 1 4.39973,-5.30162 z"
         id="path5014" />
      <path
         inkscape:connector-curvature="0"
         style="display:inline;fill:#000000;fill-opacity:1;stroke:none;stroke-width:0.722602;stroke-miterlimit:4;stroke-dasharray:none;stroke-dashoffset:0;stroke-opacity:1"
         d="m 396.68213,638.88134 a 4.8705405,4.8705405 0 0 1 5.30018,4.39986 4.8705405,4.8705405 0 0 1 -4.39842,5.30003 4.8705405,4.8705405 0 0 1 -5.30148,-4.39827 4.8705405,4.8705405 0 0 1 4.39972,-5.30162 z"
         id="path5012" />
      <path
         inkscape:connector-curvature="0"
         style="display:inline;fill:#000000;fill-opacity:1;stroke:none;stroke-width:0.722602;stroke-miterlimit:4;stroke-dasharray:none;stroke-dashoffset:0;stroke-opacity:1"
         d="m 379.96011,652.47752 a 4.8705405,4.8705405 0 0 1 5.30004,4.3984 4.8705405,4.8705405 0 0 1 -4.39842,5.30003 4.8705405,4.8705405 0 0 1 -5.30149,-4.39827 4.8705405,4.8705405 0 0 1 4.39987,-5.30016 z"
         id="path5010" />
      <path
         inkscape:connector-curvature="0"
         style="display:inline;fill:#000000;fill-opacity:1;stroke:none;stroke-width:0.722602;stroke-miterlimit:4;stroke-dasharray:none;stroke-dashoffset:0;stroke-opacity:1"
         d="m 397.792,650.81976 a 4.8705405,4.8705405 0 0 1 5.30004,4.3984 4.8705405,4.8705405 0 0 1 -4.39842,5.30003 4.8705405,4.8705405 0 0 1 -5.30149,-4.39827 4.8705405,4.8705405 0 0 1 4.39987,-5.30016 z"
         id="path5008" />
      <path
         inkscape:connector-curvature="0"
         style="display:inline;fill:#000000;fill-opacity:1;stroke:none;stroke-width:0.722602;stroke-miterlimit:4;stroke-dasharray:none;stroke-dashoffset:0;stroke-opacity:1"
         d="m 381.08816,664.61157 a 4.8705405,4.8705405 0 0 1 5.30004,4.39838 4.8705405,4.8705405 0 0 1 -4.39842,5.30004 4.8705405,4.8705405 0 0 1 -5.30149,-4.39828 4.8705405,4.8705405 0 0 1 4.39987,-5.30014 z"
         id="path5006" />
      <path
         inkscape:connector-curvature="0"
         style="display:inline;fill:#000000;fill-opacity:1;stroke:none;stroke-width:0.722602;stroke-miterlimit:4;stroke-dasharray:none;stroke-dashoffset:0;stroke-opacity:1"
         d="m 398.92005,662.95381 a 4.8705405,4.8705405 0 0 1 5.30004,4.39839 4.8705405,4.8705405 0 0 1 -4.39842,5.30003 4.8705405,4.8705405 0 0 1 -5.30148,-4.39827 4.8705405,4.8705405 0 0 1 4.39986,-5.30015 z"
         id="path4992" />
    </g>
  </g>
</svg>
