<?xml version="1.0" encoding="UTF-8" standalone="no"?>
<!-- Created with Inkscape (http://www.inkscape.org/) -->

<svg
   xmlns:dc="http://purl.org/dc/elements/1.1/"
   xmlns:cc="http://creativecommons.org/ns#"
   xmlns:rdf="http://www.w3.org/1999/02/22-rdf-syntax-ns#"
   xmlns:svg="http://www.w3.org/2000/svg"
   xmlns="http://www.w3.org/2000/svg"
   xmlns:sodipodi="http://sodipodi.sourceforge.net/DTD/sodipodi-0.dtd"
   xmlns:inkscape="http://www.inkscape.org/namespaces/inkscape"
   width="0.75in"
   height="0.75in"
   viewBox="0 0 67.500001 67.500002"
   id="svg2"
   version="1.1"
   inkscape:version="0.92.0 r15299"
   sodipodi:docname="painting-i.svg">
  <defs
     id="defs4">
    <pattern
       y="0"
       x="0"
       height="6"
       width="6"
       patternUnits="userSpaceOnUse"
       id="EMFhbasepattern" />
  </defs>
  <sodipodi:namedview
     id="base"
     pagecolor="#ffffff"
     bordercolor="#666666"
     borderopacity="1.0"
     inkscape:pageopacity="0.0"
     inkscape:pageshadow="2"
     inkscape:zoom="5.6"
     inkscape:cx="-3.7648653"
     inkscape:cy="15.579081"
     inkscape:document-units="px"
     inkscape:current-layer="layer1"
     showgrid="false"
     units="in"
     inkscape:window-width="1920"
     inkscape:window-height="1017"
     inkscape:window-x="-8"
     inkscape:window-y="-8"
     inkscape:window-maximized="1" />
  <metadata
     id="metadata7">
    <rdf:RDF>
      <cc:Work
         rdf:about="">
        <dc:format>image/svg+xml</dc:format>
        <dc:type
           rdf:resource="http://purl.org/dc/dcmitype/StillImage" />
        <dc:title />
      </cc:Work>
    </rdf:RDF>
  </metadata>
  <g
     inkscape:label="Layer 1"
     inkscape:groupmode="layer"
     id="layer1"
     transform="translate(0,-984.86215)">
    <g
       id="g4153"
       transform="matrix(1.26113,0,0,1.26113,-3.8586975,-258.10811)">
      <path
         style="fill:#000000;fill-opacity:1;fill-rule:nonzero;stroke:#000000;stroke-width:0.08466604px;stroke-linecap:butt;stroke-linejoin:miter;stroke-miterlimit:4;stroke-dasharray:1.69333333, 1.69333333;stroke-dashoffset:0;stroke-opacity:1"
         d="m 19.576833,999.06957 20.510358,0 c 1.672138,0 3.026805,1.35473 3.026805,3.04803 l 0,20.5103 c 0,1.6722 -1.354667,3.0268 -3.026805,3.0268 l -20.510358,0 c -1.693317,0 -3.047973,-1.3546 -3.047973,-3.0268 l 0,-20.5103 c 0,-1.6933 1.354656,-3.04803 3.047973,-3.04803 z"
         id="path4139"
         inkscape:connector-curvature="0" />
      <path
         style="fill:#ffffff;fill-opacity:1;fill-rule:evenodd;stroke:none"
         d="m 30.477581,1000.1703 c -0.148167,0 -0.296334,0 -0.4445,0 -5.206943,0.254 -9.567248,4.6778 -11.747401,10.3504 -2.18015,5.6514 0.0635,12.9327 4.868291,12.8057 4.825971,-0.1482 0.973667,-5.3763 3.534805,-7.8739 1.312333,-1.2912 3.174971,-0.8467 5.079971,-0.3175 l -0.9525,-1.2277 -0.232833,-0.2963 c -0.0635,0 -0.148167,0 -0.211667,0 -0.4445,0 -0.973638,-0.021 -1.375805,-0.4022 -0.740833,-0.6773 -0.762,-1.6721 -0.762,-2.5823 0.02117,-0.889 0.0635,-1.7356 -0.211666,-2.2859 l -0.296334,-0.6139 0.677334,-0.021 c 0.04233,0 0.105833,0 0.169333,0 0.846667,0 1.735638,0.1482 2.518805,0.4869 0.846667,0.3598 1.5875,0.9524 1.947333,1.7779 0.232834,0.508 0.1905,1.1007 0.04233,1.6087 -0.04233,0.1058 -0.08467,0.2117 -0.127,0.3175 l 2.963305,3.8735 c 0.338667,-0.064 0.656167,-0.1694 0.9525,-0.3175 2.497638,-1.3124 5.249277,-4.191 4.762443,-6.9638 -0.804301,-4.5296 -6.476939,-8.3185 -11.154744,-8.3185 z m 3.280805,2.1378 c 0.359833,0.021 0.677333,0.1482 0.973667,0.381 0.783166,0.6773 0.889,1.9897 0.232833,2.9633 -0.656167,0.9525 -1.820305,1.1853 -2.624639,0.5292 -0.783166,-0.6774 -0.910166,-2.0108 -0.254,-2.9633 0.423334,-0.5927 1.037167,-0.9314 1.672139,-0.9102 z m -6.455777,0.2328 c 0.846667,0.042 1.651,0.8679 1.862667,1.9262 0.211666,1.143 -0.338667,2.1378 -1.248834,2.2225 -0.910166,0.085 -1.820333,-0.762 -2.031971,-1.905 -0.211667,-1.143 0.338638,-2.1378 1.248805,-2.2225 0.04233,-0.021 0.105833,-0.021 0.169333,-0.021 z m -4.762471,4.2968 c 1.016,0 1.926166,0.8044 2.053166,1.778 0.127,0.9948 -0.613833,1.778 -1.629833,1.778 -1.015972,0 -1.947305,-0.7832 -2.053138,-1.778 -0.127,-0.9736 0.613833,-1.778 1.629805,-1.778 z m 15.874886,0.2329 c 0.423334,0.021 0.804334,0.2116 1.100667,0.5291 0.6985,0.762 0.613833,2.0955 -0.169333,2.9845 -0.783167,0.889 -1.989639,0.9948 -2.688139,0.2117 -0.719666,-0.762 -0.635,-2.0955 0.148167,-2.9845 0.4445,-0.4868 1.015972,-0.762 1.608638,-0.7408 z m -9.397915,1.5239 c 0.169333,0.6774 0.105833,1.397 0.08467,2.0532 -0.02117,0.8678 0.04233,1.524 0.486833,1.9261 0.0635,0.063 0.423305,0.1694 0.783138,0.1694 0.169334,0 0.338667,0 0.465667,-0.021 0.0635,0 0.105833,-0.021 0.127,-0.021 l 0.6985,-0.508 0,0 c 0.254,-0.1693 0.486833,-0.508 0.592667,-0.8678 0.105833,-0.3599 0.105833,-0.7409 0,-0.9949 -0.254003,-0.5926 -0.804337,-1.0371 -1.502837,-1.3335 -0.529166,-0.2328 -1.121805,-0.3598 -1.735638,-0.4021 z m 3.640638,4.5085 -0.783166,0.5927 7.492943,9.7577 0.762,-0.5927 -7.471777,-9.7577 z m -10.794914,3.2384 c 1.227638,0 2.349471,1.1642 2.497638,2.5824 0.148167,1.4181 -0.740833,2.5823 -1.989667,2.5823 -1.227638,0 -2.349471,-1.1642 -2.497638,-2.5823 -0.148167,-1.4182 0.740833,-2.5824 1.989667,-2.5824 z"
         id="path4141"
         inkscape:connector-curvature="0" />
      <path
         style="fill:#ffffff;fill-opacity:1;fill-rule:nonzero;stroke:none"
         d="m 27.958776,1023.7074 0,-1.1007 c 0.1905,0.063 0.338666,0.085 0.465666,0.085 0.232834,0 0.402167,-0.063 0.508,-0.2117 0.105834,-0.127 0.148167,-0.3598 0.148167,-0.6985 l 0,-4.8048 -0.889,0 0,-1.0159 3.280805,0 0,1.0159 -0.8255,0 0,4.8683 c 0,0.6774 -0.148167,1.1642 -0.486833,1.4817 -0.3175,0.3175 -0.740805,0.4868 -1.291139,0.4868 -0.275166,0 -0.5715,-0.042 -0.910166,-0.1058 z"
         id="path4143"
         inkscape:connector-curvature="0" />
    </g>
  </g>
</svg>
