<?xml version="1.0" encoding="UTF-8" standalone="no"?>
<!-- Created with Inkscape (http://www.inkscape.org/) -->

<svg
   xmlns:dc="http://purl.org/dc/elements/1.1/"
   xmlns:cc="http://creativecommons.org/ns#"
   xmlns:rdf="http://www.w3.org/1999/02/22-rdf-syntax-ns#"
   xmlns:svg="http://www.w3.org/2000/svg"
   xmlns="http://www.w3.org/2000/svg"
   xmlns:sodipodi="http://sodipodi.sourceforge.net/DTD/sodipodi-0.dtd"
   xmlns:inkscape="http://www.inkscape.org/namespaces/inkscape"
   width="375"
   height="375"
   viewBox="0 0 375 375.00001"
   id="svg5899"
   version="1.1"
   inkscape:version="0.91 r13725"
   sodipodi:docname="records.svg">
  <defs
     id="defs5901" />
  <sodipodi:namedview
     id="base"
     pagecolor="#ffffff"
     bordercolor="#666666"
     borderopacity="1.0"
     inkscape:pageopacity="0.0"
     inkscape:pageshadow="2"
     inkscape:zoom="0.49497475"
     inkscape:cx="177.58201"
     inkscape:cy="240.7204"
     inkscape:document-units="px"
     inkscape:current-layer="layer1"
     showgrid="false"
     units="px"
     inkscape:window-width="1280"
     inkscape:window-height="961"
     inkscape:window-x="1912"
     inkscape:window-y="-8"
     inkscape:window-maximized="1" />
  <metadata
     id="metadata5904">
    <rdf:RDF>
      <cc:Work
         rdf:about="">
        <dc:format>image/svg+xml</dc:format>
        <dc:type
           rdf:resource="http://purl.org/dc/dcmitype/StillImage" />
        <dc:title></dc:title>
      </cc:Work>
    </rdf:RDF>
  </metadata>
  <g
     inkscape:label="Layer 1"
     inkscape:groupmode="layer"
     id="layer1"
     transform="translate(0,-677.36216)">
    <path
       style="fill:#000000;fill-rule:evenodd"
       d="m 127.57561,774.25826 c -0.42727,0.002 -0.85404,0.0119 -1.27978,0.0302 -0.97339,0.042 -1.94225,0.12769 -2.90571,0.25916 -7.70728,1.04982 -14.96563,5.22425 -19.99733,12.86886 -9.406426,14.29326 0.83894,37.46172 21.641,37.46172 0.20485,0 0.40288,-0.003 0.60351,-0.007 l 0,0.26803 23.14798,0 c -4.11141,12.22724 -11.58013,25.45196 -20.04526,38.76457 -0.82626,1.29939 -1.62526,2.62773 -2.40336,3.97604 l 13.32858,13.65697 -21.50076,3.60151 c -12.50776,32.85389 -10.47983,69.5824 18.44951,69.5824 l 3.55714,0.0267 c 9.10718,-0.21784 17.86027,-1.64316 23.43732,-4.92567 1.59518,-0.93934 2.91666,-2.00158 4.00088,-3.21811 l -12.40026,0 c -7.76958,2.27394 -15.59323,-2.65195 -18.11404,-9.90636 -3.42275,-9.84859 2.87362,-20.01107 12.17838,-23.10362 2.21775,-0.73758 4.48046,-1.08275 6.71312,-1.08275 l 0,-0.15442 68.15352,0 c -0.21784,-16.96962 6.24915,-34.44397 18.79741,-48.15442 9.15495,-10.00375 16.06232,-23.1689 19.60506,-36.2476 l -15.75504,-9.52829 14.62613,-2.63945 -16.5751,-9.86199 19.92101,-3.38319 c -1.99954,-14.95594 -11.02137,-26.0306 -29.56822,-26.0306 -16.77052,3.2584 -62.2607,4.41587 -90.07143,1.81939 -5.68979,-2.58463 -11.6737,-4.09724 -17.54426,-4.07011 l 0,-0.002 z m 0.17751,7.14798 c 5.0206,0.0164 10.47286,1.45432 15.76213,4.06302 l 0.0124,-0.0266 c 1.78361,1.80958 3.26491,3.72056 4.46417,5.7262 l -28.25647,0 4.04171,5.64809 c 4.05408,5.66763 7.56849,12.22564 8.06035,16.06036 0.24574,1.91736 -0.0429,2.74 -0.69403,3.37785 -0.65162,0.63823 -2.38061,1.48036 -6.11138,1.48036 -15.51126,0 -21.73696,-17.17928 -15.67339,-26.39271 4.00135,-6.07923 9.10223,-8.91387 14.99533,-9.71644 1.10449,-0.15095 2.24078,-0.22393 3.39916,-0.2201 z m 5.58065,16.90525 17.68626,0 c 1.6338,6.01311 1.39745,12.63767 -0.20768,19.68494 l -12.50321,0 c 0.72613,-1.92119 0.86768,-4.04042 0.61238,-6.02619 -0.58359,-4.55282 -2.83038,-9.19688 -5.58775,-13.65875 z m 50.8968,6.41491 a 1.3633486,1.3633486 0 0 1 1.3295,1.16087 c 0.22094,1.46749 0.31281,3.25307 0.53427,4.7464 0.11074,0.74664 0.25592,1.41465 0.42246,1.87441 0.16654,0.45976 0.36226,0.65192 0.3479,0.64256 a 1.3633486,1.3633486 0 0 1 0.50588,0.5964 c 0.17609,0.40325 0.02,0.21027 0.11893,0.213 0.0989,0.003 0.58928,-0.12118 1.18394,-0.43664 1.16449,-0.61777 2.54603,-1.80682 4.33281,-2.12471 0.97714,-0.30172 1.95824,-0.23745 2.72997,0.0515 0.80778,0.30243 1.4194,0.75907 1.94898,1.14311 0.52956,0.38404 0.97867,0.69698 1.34546,0.84845 0.36678,0.1515 0.61115,0.19419 1.04903,0.0693 a 1.3633486,1.3633486 0 0 1 0.37453,-0.0533 c 2.51795,0.002 5.04638,-0.003 7.56512,0 a 1.3633486,1.3633486 0 0 1 1.18038,0.68516 c 0.22255,0.38791 0.2894,0.37963 0.45441,0.4118 0.16501,0.0322 0.53617,0.002 1.0366,-0.16508 1.00089,-0.33463 2.2793,-1.16071 3.79855,-1.43777 a 1.3633486,1.3633486 0 0 1 0.16861,-0.0195 c 2.33054,-0.12842 4.64586,0.15645 6.82494,1.1005 1.23468,-0.0197 2.34054,0.34733 3.27136,0.79877 1.04999,0.50923 1.9748,1.05701 2.8205,1.33835 a 1.3633486,1.3633486 0 0 1 0.016,0.005 c 0.61762,0.21379 1.22121,0.0338 2.17439,-0.41179 0.95317,-0.44559 2.08893,-1.17726 3.61038,-1.24605 a 1.3633486,1.3633486 0 1 1 0.12425,2.72286 c -0.58445,0.0264 -1.47448,0.47502 -2.58087,0.99225 -1.10555,0.51644 -2.59363,1.07983 -4.21567,0.52007 -1.23269,-0.41207 -2.24874,-1.03654 -3.13823,-1.46793 -0.89251,-0.43287 -1.59331,-0.65251 -2.23297,-0.58043 a 1.3633486,1.3633486 0 0 1 -0.7242,-0.11715 c -1.71753,-0.79269 -3.61241,-1.03234 -5.6907,-0.93012 -0.66093,0.13748 -1.94593,0.84542 -3.36188,1.31884 -0.72064,0.24096 -1.5292,0.43029 -2.42467,0.2556 -0.62727,-0.12236 -1.19749,-0.53319 -1.6916,-1.04725 -2.29058,-0.002 -4.59,0.002 -6.88705,0 -0.93605,0.19933 -1.84411,0.0743 -2.56135,-0.22189 -0.78774,-0.32533 -1.387,-0.78418 -1.90638,-1.16085 -0.51937,-0.37666 -0.95678,-0.66919 -1.30285,-0.79876 -0.34608,-0.12973 -0.56988,-0.16212 -1.01708,-0.007 a 1.3633486,1.3633486 0 0 1 -0.23786,0.0586 c -0.5116,0.0792 -2.07201,1.0789 -3.57487,1.87618 -0.75144,0.39864 -1.54042,0.78365 -2.54184,0.75439 -0.81175,-0.0237 -1.5919,-0.5996 -2.13357,-1.35079 -0.69178,-0.50186 -1.06664,-1.19149 -1.32238,-1.8975 -0.27117,-0.74857 -0.43073,-1.56156 -0.55558,-2.40337 -0.13265,-0.89445 -0.20093,-1.6552 -0.284,-2.51875 -0.18221,0.18647 -0.32186,0.31119 -0.52186,0.52009 -0.99519,1.03943 -2.06002,2.37268 -3.84646,2.67494 -2.57241,0.49483 -4.89333,0.15553 -6.99534,0.24674 a 1.3633486,1.3633486 0 0 1 -0.0373,0 c -3.76171,0.0616 -7.06852,-1.20874 -10.02708,-2.1815 a 1.3633486,1.3633486 0 1 1 0.85202,-2.58975 c 3.03637,0.99835 6.02289,2.09758 9.13068,2.0466 2.42675,-0.10114 4.5766,0.1893 6.58177,-0.20057 a 1.3633486,1.3633486 0 0 1 0.0373,-0.005 c 0.29428,-0.0489 1.36281,-0.85982 2.33592,-1.8762 0.48656,-0.50819 0.97261,-1.03367 1.50345,-1.48568 0.53083,-0.45204 1.11322,-0.95093 2.10338,-0.93722 z m 16.32129,11.45774 c 0.092,-0.0196 0.1827,-0.0251 0.27512,-0.0515 l -0.37453,0.0515 c 0.0331,2e-5 0.0663,-3e-5 0.0994,0 z m -40.00177,2.01286 a 1.3633486,1.3633486 0 0 1 1.27801,1.90637 c -0.8776,2.10235 -0.65166,3.5124 -0.18993,4.25116 0.46173,0.73878 1.13436,1.01061 2.0679,0.77213 a 1.3633486,1.3633486 0 0 1 0.50232,-0.032 c 1.32066,0.16186 3.00414,-0.34903 4.96828,-0.53251 a 1.3633486,1.3633486 0 0 1 0.42601,0.0266 c 0.3154,0.0705 0.75235,0.0212 1.36143,-0.12781 0.60907,-0.149 1.35112,-0.39675 2.25782,-0.4331 a 1.3633486,1.3633486 0 0 1 1.19636,0.61592 c 0.17742,0.27104 0.3103,0.34581 0.59463,0.39761 0.28432,0.0519 0.74176,0.0145 1.29222,-0.1917 1.10091,-0.41248 2.49173,-1.48148 3.5021,-2.89505 a 1.3633486,1.3633486 0 0 1 0.73663,-0.51831 c 1.30703,-0.3699 2.39971,0.0629 3.22165,0.31418 0.82196,0.25126 1.38867,0.38603 2.01288,0.21301 a 1.3633486,1.3633486 0 0 1 0.42954,-0.048 c 0.37828,0.0188 1.42506,-0.0875 2.4158,0.0107 0.49538,0.049 1.04615,0.0848 1.649,0.6106 0.1892,0.16501 0.27379,0.46514 0.39227,0.73309 0.54079,0.11925 1.09243,0.18475 1.93478,0.56267 0.90946,0.40807 1.71252,1.37805 2.25426,2.65187 1.5339,0.2774 3.44907,0.12274 5.53805,0.18816 0.25476,-0.18427 0.56004,-0.33175 1.01,-0.33903 0.38941,-0.006 0.80068,0.15845 1.05612,0.36211 0.25545,0.20367 0.39236,0.41603 0.49168,0.59818 0.27366,0.50182 0.28994,0.83249 0.355,1.19104 0.82351,-0.93856 1.80797,-1.52921 2.73886,-1.70935 1.0561,-0.20435 1.95819,-0.0953 2.70335,-0.10649 a 1.3633486,1.3633486 0 0 1 0.81295,0.25383 c 0.80789,0.57697 1.80597,0.50551 3.21456,0.12069 1.40858,-0.38483 2.95935,-1.11474 4.6736,-1.18571 a 1.3633486,1.3633486 0 0 1 1.41825,1.33658 c 0.0971,-0.0144 0.13307,-0.0196 0.23962,-0.0337 0.34452,-0.0457 0.75597,-0.13264 1.29045,0.0249 1.02273,-0.0651 1.91573,0.0522 2.66252,0.0693 0.82987,0.0189 1.4474,-0.0489 2.1318,-0.4473 a 1.3633486,1.3633486 0 0 1 0.74195,-0.18283 c 1.87605,0.0778 3.81827,0.0328 5.79188,0.0444 a 1.3633486,1.3633486 0 1 1 -0.016,2.72643 c -1.8418,-0.0107 -3.7363,0.0233 -5.64633,-0.0462 -1.0769,0.49152 -2.15521,0.65262 -3.06545,0.63191 -1.05188,-0.0239 -1.9258,-0.14087 -2.65187,-0.0639 a 1.3633486,1.3633486 0 0 1 -0.75793,-0.14023 c 0.30791,0.15558 0.1675,0.0468 -0.12247,0.0852 -0.29001,0.0385 -0.69508,0.12998 -1.19459,0.15443 -0.24977,0.0123 -0.53234,0.0138 -0.87864,-0.0816 -0.34629,-0.0954 -0.78482,-0.33631 -1.06501,-0.74018 -0.0598,-0.0863 -0.0344,-0.17273 -0.078,-0.25916 -0.84077,0.22078 -1.626,0.43001 -2.75483,0.73842 -1.5075,0.41183 -3.33869,0.6176 -4.98957,-0.27158 -0.78548,-4.6e-4 -1.48573,-0.0389 -1.94364,0.0497 -0.52483,0.10156 -0.87218,0.24239 -1.40227,0.96916 a 1.3633486,1.3633486 0 0 1 -0.0444,0.0586 c -0.38577,0.47339 -0.72629,0.82797 -1.18926,1.09874 -0.46299,0.27075 -1.24452,0.41025 -1.84069,0.11005 -0.59619,-0.3002 -0.82397,-0.75426 -0.97449,-1.09696 -0.15052,-0.34269 -0.22817,-0.65296 -0.29642,-0.94253 -0.0329,-0.13994 -0.0284,-0.12409 -0.0622,-0.25383 -2.03884,-0.11851 -4.56167,0.38254 -7.1338,-0.3195 a 1.3633486,1.3633486 0 0 1 -0.97448,-1.03307 c -0.27003,-1.27851 -0.60702,-1.47405 -1.15908,-1.72176 -0.55207,-0.2477 -1.4543,-0.30052 -2.5294,-0.72065 a 1.3633486,1.3633486 0 0 1 -0.82893,-0.96207 c -0.49085,-0.0211 -1.1702,0.0179 -1.84247,0 -1.32222,0.29784 -2.48279,-0.0264 -3.31396,-0.28045 -0.76498,-0.2338 -1.15269,-0.2897 -1.46439,-0.25915 -1.22358,1.50837 -2.67906,2.71759 -4.24228,3.3033 -0.88619,0.332 -1.81356,0.49 -2.73886,0.32128 -0.61036,-0.11128 -1.16825,-0.44662 -1.66673,-0.87153 -0.36669,0.0636 -0.72512,0.13036 -1.24428,0.25737 -0.63986,0.15653 -1.42006,0.30535 -2.28978,0.18106 -1.45501,0.15278 -3.20445,0.67175 -5.17595,0.50055 -1.86909,0.37794 -3.80878,-0.37209 -4.82094,-1.99156 -1.05449,-1.68725 -1.12773,-4.0793 -0.0142,-6.74685 a 1.3633486,1.3633486 0 0 1 1.23896,-0.85556 z m 8.77213,9.09341 c 0.0345,-0.003 0.074,-0.011 0.10828,-0.0142 l -0.42423,-0.0266 c 0.1086,0.0244 0.21009,0.0257 0.31595,0.0408 z m 16.96028,-2.65188 c 0.0748,-0.0168 0.14785,-0.0269 0.22365,-0.048 l -0.43133,0.048 c 0.0699,0.003 0.13752,-0.002 0.20768,0 z m 34.11404,2.54715 c -0.11379,0.007 -0.22187,0.007 -0.33903,0.0195 l 0.75971,0.14023 c -0.15112,-0.0764 -0.28685,-0.12032 -0.42068,-0.15976 z m -60.89903,7.39649 a 1.3633486,1.3633486 0 0 1 1.06501,0.52363 c 0.66575,0.82781 1.19026,1.6808 1.65253,2.17795 0.46228,0.49681 0.58554,0.57313 0.94964,0.50589 a 1.3633486,1.3633486 0 0 1 1.21233,0.37807 c 1.67015,1.6734 4.17313,2.4484 6.46284,1.01887 1.44029,-1.14481 3.35864,-1.8088 4.99135,-2.28801 1.67569,-0.49181 3.05835,-0.7384 3.05835,-0.7384 a 1.3633486,1.3633486 0 0 1 1.59751,1.22299 c 0.11123,1.26973 0.20485,2.62305 0.42423,3.29088 0.0808,0.24586 0.14243,0.32648 0.15975,0.35323 0.0241,-0.006 0.0529,-0.0115 0.18461,-0.0568 a 1.3633486,1.3633486 0 0 1 0.7881,-0.0302 c 0.77916,0.20361 1.30519,0.41648 1.71999,0.67984 0.27176,0.17254 0.34614,0.28449 0.46682,0.41358 0.0544,0.003 0.32215,-0.0123 0.54316,-0.0195 0.77248,-0.75473 1.64209,-1.28975 2.5152,-1.49102 1.08028,-0.24901 2.09093,-0.17685 2.9696,-0.11004 a 1.3633486,1.3633486 0 0 1 0.0906,0.0107 c 1.92743,0.27761 3.58413,0.67036 5.27002,0.52007 a 1.3633486,1.3633486 0 0 1 0.34968,0.0142 c 0.84708,0.14338 1.43202,0.62729 1.85312,1.03837 0.42109,0.41109 0.73387,0.79812 0.98691,1.03662 0.25305,0.23849 0.38427,0.28911 0.44553,0.2982 0.0613,0.008 0.22209,0.0351 0.71356,-0.2982 a 1.3633486,1.3633486 0 0 1 0.25027,-0.1349 c 1.66561,-0.67854 3.23876,-0.51601 4.48902,-0.18284 1.23596,0.32938 2.22486,0.74837 3.08497,0.86621 2.78776,-0.11841 5.32149,0.23376 7.65388,-0.21122 0.70546,-0.37291 1.43974,-0.54568 2.10516,-0.46861 0.75481,0.0875 1.31721,0.42256 1.72354,0.68516 0.40634,0.2626 0.69366,0.46245 0.87508,0.53959 0.18143,0.0772 0.21281,0.093 0.44198,0.0302 a 1.3633486,1.3633486 0 0 1 0.79521,0.0231 c 0.23357,0.0787 0.65763,-0.0449 1.48038,-0.44021 0.82272,-0.39531 2.01847,-1.06705 3.48257,-0.63013 l -0.1775,-0.0409 c 0.14996,0.0234 0.84339,-0.17432 1.87797,-0.0391 0.51728,0.0677 1.27205,0.39816 1.65431,1.04549 0.18742,0.31734 0.11126,0.6824 0.15443,1.02063 0.0818,0.0491 0.16112,0.0964 0.24673,0.14732 0.23311,0.13881 0.45759,0.24634 0.67628,0.35147 a 1.3633486,1.3633486 0 0 1 2.66962,0.38695 c 0.006,0.45083 -0.0444,0.88184 -0.2343,1.31173 -0.18993,0.42988 -0.57079,0.84334 -1.00822,1.04548 -0.87483,0.40424 -1.57864,0.15251 -2.12291,-0.0551 -0.54427,-0.20754 -1.00874,-0.48019 -1.37386,-0.69759 -0.18256,-0.1087 -0.34022,-0.20389 -0.44198,-0.2627 -0.0894,-0.0517 -0.16135,-0.0629 0.0107,-0.016 a 1.3633486,1.3633486 0 0 1 -0.97093,-1.46263 c 0.0143,-0.12377 0.0143,-0.035 0.0124,-0.10649 -0.27499,0.0413 -0.70962,0.15813 -1.57266,0.0231 a 1.3633486,1.3633486 0 0 1 -0.17929,-0.0391 c -0.22562,-0.0674 -0.68676,0.0739 -1.52296,0.47569 -0.68247,0.32792 -1.67688,0.68114 -2.79565,0.58577 -0.79444,0.19944 -1.5959,0.0946 -2.16907,-0.1491 -0.58909,-0.25049 -0.98768,-0.56458 -1.28688,-0.75794 -0.29921,-0.19335 -0.46343,-0.25516 -0.55914,-0.26625 -0.0957,-0.0111 -0.22422,-0.0284 -0.64078,0.22898 a 1.3633486,1.3633486 0 0 1 -0.4402,0.17572 c -3.06434,0.63468 -5.8844,0.15772 -8.43311,0.28932 a 1.3633486,1.3633486 0 0 1 -0.24494,-0.008 c -1.39019,-0.17953 -2.50045,-0.68671 -3.4737,-0.94608 -0.96141,-0.25622 -1.71608,-0.3361 -2.7211,0.0639 -0.79278,0.48618 -1.63036,0.73079 -2.41758,0.6177 -0.85796,-0.12324 -1.48425,-0.59738 -1.92766,-1.01531 -0.44343,-0.41793 -0.76463,-0.81864 -1.02065,-1.06855 -0.25348,-0.2475 -0.38488,-0.29457 -0.40115,-0.29822 -2.04885,0.11783 -3.84607,-0.27568 -5.48479,-0.51652 -0.82805,-0.0624 -1.55706,-0.0842 -2.13002,0.048 -0.57821,0.13327 -1.0241,0.35796 -1.5354,1.01531 a 1.3633486,1.3633486 0 0 1 -0.96383,0.52184 c -0.74554,0.0615 -1.19836,0.0855 -1.67028,0.0195 -0.47194,-0.066 -1.07785,-0.44036 -1.26737,-0.64789 -0.18951,-0.20753 -0.0867,-0.1211 -0.16152,-0.16863 -0.0624,-0.0396 -0.37395,-0.16082 -0.78989,-0.28577 -0.6739,0.0999 -1.3656,0.0644 -1.91524,-0.29289 -0.72244,-0.46958 -1.06265,-1.16562 -1.27624,-1.81583 -0.2569,-0.78197 -0.26108,-1.55688 -0.33015,-2.34835 -0.50231,0.11128 -0.62583,0.11072 -1.39162,0.33548 -1.5228,0.44695 -3.31024,1.17583 -4.13934,1.86199 a 1.3633486,1.3633486 0 0 1 -0.14199,0.10114 c -3.30538,2.08673 -7.08903,1.07783 -9.51587,-1.11826 -1.05071,-0.11135 -1.99452,-0.58325 -2.58442,-1.21766 -0.75316,-0.80998 -1.28337,-1.7091 -1.78034,-2.32705 a 1.3633486,1.3633486 0 0 1 1.05969,-2.2312 z m 41.78566,10.83115 c 0.0713,-0.0437 0.14436,-0.0766 0.21477,-0.12426 l -0.25028,0.1349 c 0.0125,-0.005 0.0231,-0.005 0.0355,-0.0106 z m 14.16285,-2.04305 c -0.0948,0.0501 -0.19061,0.0914 -0.28401,0.1491 l 0.44021,-0.17394 c -0.0515,0.0107 -0.10453,0.0149 -0.1562,0.0249 z m -34.37497,-2.34301 c -0.0363,0.01 -0.0201,0.007 0.0124,0.0284 0.0143,0.01 -0.006,-0.0189 -0.0124,-0.0284 z m -10.23119,-1.84069 c -0.0379,0.0302 -0.0799,0.0561 -0.11716,0.087 l 0.14023,-0.10114 c -0.007,0.005 -0.0152,0.01 -0.0231,0.0142 z m -6.89593,15.34678 c 1.50425,0.0106 2.84346,0.36233 3.992,0.56978 1.07791,0.0338 1.91939,0.3906 2.55247,0.55558 0.67853,0.17685 0.95936,0.20828 1.37919,-0.0444 a 1.3633486,1.3633486 0 0 1 0.93899,-0.17396 c 2.33393,0.40836 4.68937,0.82411 7.03793,1.32772 1.99977,-0.67817 3.93188,-0.56972 5.66408,-0.11184 2.42559,0.47702 4.74648,1.29705 6.95807,2.35723 2.6293,0.36584 4.81481,1.16524 6.91546,0.79344 1.40039,-0.37447 2.91096,-0.87746 4.49967,-1.00822 1.62564,-0.13379 3.46241,0.23402 4.81561,1.65786 a 1.3633486,1.3633486 0 0 1 0.31596,0.54494 c 0.22735,0.75078 0.46651,1.05746 0.61415,1.23719 0.0976,-0.10601 0.21067,-0.18208 0.39405,-0.62836 0.25341,-0.61665 0.48268,-1.54574 0.58753,-2.72821 a 1.3633486,1.3633486 0 0 1 1.5993,-1.2212 c 3.64076,0.65517 7.34274,1.33836 11.00332,1.99866 a 1.3633486,1.3633486 0 0 1 0.21655,0.0586 c 1.95637,0.69752 4.30862,0.23279 6.90481,-0.75793 a 1.3633486,1.3633486 0 1 1 0.97271,2.54715 c -2.76586,1.05547 -5.7295,1.777 -8.59818,0.83248 -3.2352,-0.58362 -6.4867,-1.18056 -9.70401,-1.76259 -0.13931,0.71218 -0.22867,1.50739 -0.45973,2.06966 -0.39331,0.95713 -0.89407,1.74779 -1.75549,2.22055 -0.86141,0.47277 -2.12189,0.28021 -2.85422,-0.36387 -0.62443,-0.5492 -1.01896,-1.32429 -1.34725,-2.25428 -0.6886,-0.65591 -1.39251,-0.82268 -2.48147,-0.73308 -1.15668,0.0952 -2.60492,0.54631 -4.13223,0.94963 a 1.3633486,1.3633486 0 0 1 -0.10827,0.0249 c -3.0875,0.54934 -5.68807,-0.52197 -7.95385,-0.81118 a 1.3633486,1.3633486 0 0 1 -0.426,-0.1278 c -2.10682,-1.02819 -4.29708,-1.79717 -6.56225,-2.23653 a 1.3633486,1.3633486 0 0 1 -0.0905,-0.0213 c -1.65081,-0.43886 -2.96628,-0.56398 -4.51032,0.10114 a 1.3633486,1.3633486 0 0 1 -0.82893,0.0798 c -2.28246,-0.49555 -4.61112,-0.90033 -6.95274,-1.30997 -0.99557,0.33282 -1.9982,0.3266 -2.74062,0.13313 -0.92642,-0.24142 -1.62036,-0.48917 -2.04837,-0.48281 a 1.3633486,1.3633486 0 0 1 -0.26094,-0.0213 c -1.29588,-0.23172 -2.49412,-0.52701 -3.56421,-0.53429 -1.07011,-0.007 -1.98549,0.19785 -3.03707,1.05259 l 0.10294,-0.0924 c -1.10632,1.10293 -2.54401,1.12964 -3.20212,1.13601 -0.13214,9.1e-4 -0.0702,-0.007 -0.13668,0 a 1.3633486,1.3633486 0 0 1 -1.62059,0.78632 c -0.93997,-0.2607 -2.04181,-0.38686 -3.22875,-0.63012 a 1.3633486,1.3633486 0 1 1 0.54671,-2.66963 c 0.73185,0.14999 1.59689,0.3094 2.44596,0.4828 0.17225,-0.1726 0.33566,-0.36735 0.53783,-0.45796 0.61199,-0.27419 1.0766,-0.2342 1.42889,-0.23784 0.70459,-0.006 0.92144,0.0412 1.30463,-0.3408 a 1.3633486,1.3633486 0 0 1 0.10294,-0.0924 c 1.54632,-1.25685 3.25509,-1.67336 4.77303,-1.66319 z m 58.76367,7.80652 c 0.006,10e-4 0.013,0.002 0.0195,0.003 l -0.21477,-0.0586 c 0.0648,0.0231 0.13029,0.0337 0.19525,0.0551 z m -54.77167,-7.23674 c -0.0774,-0.002 -0.14549,-0.0155 -0.22542,-0.0142 l 0.25915,0.0213 c -0.0106,-0.002 -0.0233,-0.005 -0.0337,-0.007 z m -10.34657,19.73995 c 0.71615,0.007 1.47416,0.27356 2.0537,0.76858 l 0.003,0.002 c 3.0313,2.50123 5.59654,5.59066 8.41359,6.04747 2.53031,0.13913 5.5853,-1.1224 9.0011,-1.09697 a 1.3633486,1.3633486 0 0 1 0.0338,0 c 1.00792,0.0321 2.35853,-0.28363 3.80209,-0.41179 1.44354,-0.12817 3.22588,0.0225 4.48013,1.38983 a 1.3633486,1.3633486 0 0 1 0.18105,0.24673 c 0.45755,0.80387 0.96587,1.04967 1.83359,1.22654 0.86773,0.17689 2.02384,0.14118 3.24296,0.1988 a 1.3633486,1.3633486 0 0 1 0.0622,0.007 c 2.11296,0.19529 4.12895,0.0304 5.91258,-0.89106 1.03841,-0.70481 2.19176,-0.80266 3.05835,-0.75616 0.90779,0.0486 1.5889,0.15352 2.05014,0.0746 a 1.3633486,1.3633486 0 0 1 0.28933,-0.0178 c 1.21292,0.0531 2.74517,-0.15853 4.33458,0.11715 a 1.3633486,1.3633486 0 0 1 1.02597,0.82538 c 0.0962,0.0212 0.23538,0.005 0.62304,0.31417 0.0726,0.0578 0.11085,0.21896 0.18637,0.31419 0.23589,0.16101 0.42075,0.24063 0.76858,0.213 0.40812,-0.0325 0.97922,-0.21023 1.61703,-0.43487 0.63783,-0.22466 1.33242,-0.50389 2.1815,-0.56624 0.59461,-0.0436 1.27293,0.19125 1.88507,0.57157 0.78295,-0.10814 1.55103,-0.0531 2.16907,0.20944 0.82001,0.3483 1.44322,0.86037 1.98448,1.30819 0.54124,0.44781 1.00917,0.83648 1.349,1.02595 0.11973,0.0667 0.14631,0.0243 0.22011,0.0515 0.1134,-0.20716 0.17388,-0.38488 0.32837,-0.59819 0.37195,-0.51357 0.96111,-1.13773 1.92058,-1.23187 a 1.3635152,1.3635152 0 0 1 0.40647,2.69093 c -0.006,0.008 -0.0459,0.0393 -0.11893,0.14024 -0.15417,0.21287 -0.34666,0.5951 -0.51653,0.96914 a 1.3633486,1.3633486 0 0 1 -0.86797,0.74729 c -0.99834,0.28394 -1.98983,0.008 -2.69982,-0.38695 -0.70998,-0.39588 -1.25553,-0.89158 -1.75902,-1.30819 -0.50352,-0.41659 -0.95731,-0.74761 -1.31175,-0.89817 -0.35443,-0.15056 -0.55638,-0.18425 -0.95496,-0.0426 a 1.3633486,1.3633486 0 0 1 -1.51408,-0.42423 c -0.14329,-0.17634 -0.0419,-0.12508 -0.31951,-0.10474 -0.27757,0.0203 -0.82675,0.18994 -1.47681,0.41889 -0.65006,0.22898 -1.41019,0.50919 -2.30575,0.58044 -0.89556,0.0713 -1.98105,-0.14657 -2.85245,-0.86444 a 1.3633486,1.3633486 0 0 1 -0.33726,-0.41179 c -0.18836,-0.11022 -0.33028,-0.2259 -0.53605,-0.42956 -0.94688,-0.0917 -2.12879,-0.0163 -3.46483,-0.0693 -1.0008,0.13114 -1.83416,-0.0272 -2.4513,-0.0604 -0.66047,-0.0354 -0.99301,-0.008 -1.43066,0.31773 a 1.3633486,1.3633486 0 0 1 -0.18283,0.11537 c -2.42085,1.26548 -5.0358,1.42951 -7.46217,1.20523 l 0.0622,0.005 c -1.0424,-0.0493 -2.32484,0.0201 -3.66008,-0.25204 -1.26765,-0.25838 -2.63932,-0.96127 -3.51631,-2.33238 -0.48812,-0.50595 -1.08009,-0.58508 -2.19214,-0.48635 -1.13871,0.10114 -2.57444,0.47198 -4.13046,0.42245 l 0.0337,0 c -2.64164,-0.0197 -5.7631,1.31822 -9.21589,1.09874 a 1.3633486,1.3633486 0 0 1 -0.11714,-0.0124 c -4.34556,-0.65152 -7.12357,-4.45645 -9.81584,-6.67407 a 1.3633486,1.3633486 0 0 1 -0.0196,-0.0178 c -0.2443,-0.20927 -0.17607,-0.15402 -0.29819,-0.12248 -0.12213,0.0314 -0.45863,0.22023 -0.83781,0.61061 -0.75839,0.78076 -1.62272,2.20996 -2.3164,3.39383 a 1.3633486,1.3633486 0 1 1 -2.3519,-1.37919 c 0.69107,-1.17942 1.5681,-2.73605 2.71223,-3.91392 0.57206,-0.58893 1.22782,-1.12219 2.11404,-1.35078 l 0,-0.002 c 0.22127,-0.0571 0.45531,-0.0822 0.69403,-0.0799 z m 25.74129,8.51298 c 0.0118,0.0122 0.0257,0.0176 0.0373,0.0302 l -0.17926,-0.24672 c 0.0438,0.077 0.0952,0.14345 0.142,0.21655 z m 18.64122,1.00111 c 0.0703,-0.01 0.13388,-0.008 0.2059,-0.0213 l -0.28933,0.0195 c 0.0298,10e-4 0.0538,5.9e-4 0.0834,0.002 z m 21.03571,2.08386 c 0.007,-0.008 -0.0288,0.0122 -0.14022,0.0231 a 1.3635152,1.3635152 0 0 0 0.14022,-0.0231 z m -26.39804,-4.11093 c -0.0494,0.0336 -0.10029,0.0613 -0.1491,0.0976 l 0.18283,-0.1136 c -0.0111,0.005 -0.0227,0.0106 -0.0338,0.016 z m -24.46504,37.16529 c 2.4612,2.61405 4.27788,5.85256 5.11026,9.52296 1.45112,6.39605 1.1807,11.92661 -0.67628,16.5112 -1.72971,4.27077 -4.80587,7.56328 -8.51829,9.93654 l 90.6483,0 c 5.52164,0 9.50957,-2.1704 12.3044,-5.47237 2.79445,-3.30198 4.2806,-7.84061 4.09141,-12.36477 -0.0711,-1.70945 -0.37333,-3.40499 -0.91946,-5.03572 l -26.71753,-3.13645 16.05857,-7.84556 c -3.17969,-1.31543 -7.12504,-2.11582 -11.99202,-2.11582 l -79.38936,0 z m -16.30707,0.19348 c -0.44027,-9e-4 -0.88074,0.0185 -1.32062,0.0586 -1.00627,0.0925 -2.00948,0.29628 -2.9909,0.62303 -5.77463,1.91852 -9.68204,8.23277 -7.68405,13.9818 1.40373,4.03957 5.86436,6.76838 9.80342,5.32683 l 0.59462,-0.21833 16.568,0 c 0.36155,-2.43062 0.28885,-5.30462 -0.5183,-8.86265 -1.41786,-6.25159 -7.85129,-10.88569 -14.45217,-10.90747 l 0,-0.002 z"
       id="path6451"
       inkscape:connector-curvature="0" />
  </g>
</svg>
