<?xml version="1.0" encoding="UTF-8" standalone="no"?>
<!-- Created with Inkscape (http://www.inkscape.org/) -->

<svg
   xmlns:dc="http://purl.org/dc/elements/1.1/"
   xmlns:cc="http://creativecommons.org/ns#"
   xmlns:rdf="http://www.w3.org/1999/02/22-rdf-syntax-ns#"
   xmlns:svg="http://www.w3.org/2000/svg"
   xmlns="http://www.w3.org/2000/svg"
   xmlns:sodipodi="http://sodipodi.sourceforge.net/DTD/sodipodi-0.dtd"
   xmlns:inkscape="http://www.inkscape.org/namespaces/inkscape"
   width="375"
   height="375"
   viewBox="0 0 375.00002 375.00001"
   id="svg4596"
   version="1.1"
   inkscape:version="0.92.0 r15299"
   sodipodi:docname="reinforcements.svg">
  <defs
     id="defs4598" />
  <sodipodi:namedview
     id="base"
     pagecolor="#ffffff"
     bordercolor="#666666"
     borderopacity="1.0"
     inkscape:pageopacity="0.0"
     inkscape:pageshadow="2"
     inkscape:zoom="0.98994949"
     inkscape:cx="183.06075"
     inkscape:cy="190.05218"
     inkscape:document-units="px"
     inkscape:current-layer="g5186"
     showgrid="false"
     units="px"
     showguides="true"
     inkscape:guide-bbox="true"
     inkscape:window-width="1280"
     inkscape:window-height="961"
     inkscape:window-x="1912"
     inkscape:window-y="-8"
     inkscape:window-maximized="1" />
  <metadata
     id="metadata4601">
    <rdf:RDF>
      <cc:Work
         rdf:about="">
        <dc:format>image/svg+xml</dc:format>
        <dc:type
           rdf:resource="http://purl.org/dc/dcmitype/StillImage" />
        <dc:title />
      </cc:Work>
    </rdf:RDF>
  </metadata>
  <g
     inkscape:label="Layer 1"
     inkscape:groupmode="layer"
     id="layer1"
     transform="translate(0,-677.36216)">
    <g
       id="g5186">
      <path
         sodipodi:nodetypes="cccccccccccccccccccccccccccccccccccccccsssss"
         id="path6846"
         d="m 156.49271,752.36215 0,68.35776 9.11593,0 0,-68.35776 z m 24.30947,48.4103 0,19.94746 9.11593,0 0,-19.94746 z m -31.39973,23.67043 0,50.2659 8.10309,8.10043 0,94.55295 55.70922,0 0,-94.55295 8.10335,-8.10043 0,-50.2659 z m 75.87284,3.54281 0,40.50993 8.32228,0 0,-40.50993 z m -64.22446,3.54439 48.61896,0 0,9.11571 -48.61896,0 z m 0,16.20606 48.61896,0 0,9.11309 -48.61896,0 z m 0,16.20344 48.61896,0 0,9.11308 -48.61896,0 z m 16.20607,20.75843 c 6.71296,0 12.15477,5.44106 12.15477,12.15429 0,6.71061 -5.44181,12.1501 -12.15477,12.1501 -6.71265,0 -12.15471,-5.43949 -12.15471,-12.1501 0,-6.71323 5.44206,-12.15429 12.15471,-12.15429 z"
         style="fill:#000000"
         inkscape:connector-curvature="0" />
    </g>
  </g>
</svg>
