<?xml version="1.0" encoding="UTF-8" standalone="no"?>
<svg
   xmlns:dc="http://purl.org/dc/elements/1.1/"
   xmlns:cc="http://creativecommons.org/ns#"
   xmlns:rdf="http://www.w3.org/1999/02/22-rdf-syntax-ns#"
   xmlns:svg="http://www.w3.org/2000/svg"
   xmlns="http://www.w3.org/2000/svg"
   xmlns:sodipodi="http://sodipodi.sourceforge.net/DTD/sodipodi-0.dtd"
   xmlns:inkscape="http://www.inkscape.org/namespaces/inkscape"
   sodipodi:docname="security_bag.svg"
   inkscape:version="1.0 (4035a4fb49, 2020-05-01)"
   id="svg8"
   version="1.1"
   viewBox="0 0 79.374998 79.375002"
   height="300"
   width="300">
  <defs
     id="defs2" />
  <sodipodi:namedview
     units="px"
     showgrid="false"
     inkscape:document-rotation="0"
     inkscape:current-layer="layer1"
     inkscape:document-units="mm"
     inkscape:cy="134.62446"
     inkscape:cx="343.57276"
     inkscape:zoom="1.979899"
     inkscape:pageshadow="2"
     inkscape:pageopacity="0.0"
     borderopacity="1.0"
     bordercolor="#666666"
     pagecolor="#ffffff"
     id="base" />
  <metadata
     id="metadata5">
    <rdf:RDF>
      <cc:Work
         rdf:about="">
        <dc:format>image/svg+xml</dc:format>
        <dc:type
           rdf:resource="http://purl.org/dc/dcmitype/StillImage" />
        <dc:title></dc:title>
      </cc:Work>
    </rdf:RDF>
  </metadata>
  <g
     id="layer1"
     inkscape:groupmode="layer"
     inkscape:label="Layer 1">
    <text
       id="text12"
       y="105.83333"
       x="19.654762"
       style="font-style:normal;font-variant:normal;font-weight:normal;font-stretch:normal;font-size:6.35px;line-height:1.25;font-family:'Archivo Narrow';-inkscape-font-specification:'Archivo Narrow';letter-spacing:0px;word-spacing:0px;fill:#000000;fill-opacity:1;stroke:none;stroke-width:0.264583"
       xml:space="preserve"><tspan
         style="stroke-width:0.264583"
         y="105.83333"
         x="19.654762"
         id="tspan10"
         sodipodi:role="line"></tspan></text>
    <path
       transform="scale(0.26458333)"
       d="M 158.80078 38.177734 C 156.82369 38.220417 154.56837 38.582241 151.74219 39.291016 C 146.08225 40.710493 142.90117 41.157758 140.15625 39.738281 C 134.98991 37.066686 131.86482 37.752354 124.41016 43.199219 C 115.80611 49.485858 111.37765 50.954546 105.69531 49.404297 C 100.67875 48.035654 99.584202 49.000001 98.583984 55.669922 C 97.088354 65.64349 101.32056 75.50587 111.43945 85.626953 C 120.77215 94.96163 125.39874 97.947721 133.13086 99.625 C 141.96234 101.54073 158.58613 101.52559 167.08203 99.591797 L 167.08203 99.59375 C 178.52426 96.991281 192.76551 85.123945 198.1875 73.673828 C 201.30024 67.100323 202.0575 57.414902 199.93359 51.322266 C 198.69652 47.773516 198.63464 45.976458 190.11523 48.425781 L 182.80664 48.841797 L 176.99609 45.648438 C 168.16 40.792519 164.73204 38.049687 158.80078 38.177734 z M 175.45117 103.74023 C 174.53992 103.83283 173.51141 104.20489 171.90039 104.80469 C 168.88989 105.92551 163.02258 106.5679 153.03125 106.87109 C 140.87068 107.24035 137.3212 106.99572 131.03125 105.35352 C 123.74808 103.45185 123.42721 103.44702 119.95898 105.21289 C 103.42574 113.63133 86.130736 139.33739 75.578125 171.17383 C 70.070987 187.78844 68.03125 197.23949 68.03125 206.14844 C 68.03125 228.38903 83.926204 246.6384 111.53125 256.0918 C 125.90293 261.01342 134.36524 262.17911 152.53125 261.74023 C 165.64434 261.42351 170.33557 260.8878 178.53125 258.76367 C 224.23337 246.91882 241.98122 214.49298 226.48047 171.1582 C 222.96762 161.33744 214.87557 138.7752 208.24609 128.74414 C 201.46891 118.48964 187.48555 109.28258 181.18164 105.85156 C 178.16299 104.2086 176.96992 103.58591 175.45117 103.74023 z M 149.93945 142.61914 C 149.96561 142.63124 149.98261 142.64296 150 142.6543 C 150.02615 142.6422 150.04316 142.63048 150.06055 142.61914 L 150.06055 142.6875 C 163.94632 151.31756 188.07983 152.44824 190.2168 153.33398 C 187.57242 212.30468 174.70873 220.67769 150.06055 234.08984 L 150.06055 234.15234 C 150.03439 234.14101 150.01739 234.12972 150 234.11914 C 149.97385 234.13048 149.95684 234.14176 149.93945 234.15234 L 149.93945 234.08984 C 125.29115 220.67769 112.42758 212.30468 109.7832 153.33398 C 111.92017 152.44824 136.05368 151.31745 149.93945 142.6875 L 149.93945 142.61914 z "
       style="fill:#000000;stroke-width:3.77953"
       id="path32" />
  </g>
</svg>
