<?xml version="1.0" encoding="UTF-8" standalone="no"?>
<!-- Created with Inkscape (http://www.inkscape.org/) -->

<svg
   xmlns:dc="http://purl.org/dc/elements/1.1/"
   xmlns:cc="http://creativecommons.org/ns#"
   xmlns:rdf="http://www.w3.org/1999/02/22-rdf-syntax-ns#"
   xmlns:svg="http://www.w3.org/2000/svg"
   xmlns="http://www.w3.org/2000/svg"
   xmlns:sodipodi="http://sodipodi.sourceforge.net/DTD/sodipodi-0.dtd"
   xmlns:inkscape="http://www.inkscape.org/namespaces/inkscape"
   width="0.75in"
   height="0.75in"
   viewBox="0 0 67.500001 67.500002"
   id="svg2"
   version="1.1"
   inkscape:version="0.92.0 r15299"
   sodipodi:docname="security.svg">
  <defs
     id="defs4" />
  <sodipodi:namedview
     id="base"
     pagecolor="#ffffff"
     bordercolor="#666666"
     borderopacity="1.0"
     inkscape:pageopacity="0.0"
     inkscape:pageshadow="2"
     inkscape:zoom="16"
     inkscape:cx="39.028303"
     inkscape:cy="39.054754"
     inkscape:document-units="px"
     inkscape:current-layer="layer1"
     showgrid="false"
     units="in"
     inkscape:window-width="1920"
     inkscape:window-height="1017"
     inkscape:window-x="1672"
     inkscape:window-y="185"
     inkscape:window-maximized="1" />
  <metadata
     id="metadata7">
    <rdf:RDF>
      <cc:Work
         rdf:about="">
        <dc:format>image/svg+xml</dc:format>
        <dc:type
           rdf:resource="http://purl.org/dc/dcmitype/StillImage" />
        <dc:title />
      </cc:Work>
    </rdf:RDF>
  </metadata>
  <g
     inkscape:label="Layer 1"
     inkscape:groupmode="layer"
     id="layer1"
     transform="translate(0,-984.86215)">
    <path
       style="fill:#000000;fill-opacity:1;stroke:none;stroke-width:0.67869741;stroke-linecap:round;stroke-linejoin:round;stroke-miterlimit:4;stroke-dasharray:none;stroke-opacity:1"
       d="M 32.607422 13.195312 L 32.607422 13.222656 C 26.988198 16.714997 17.222203 17.172814 16.357422 17.53125 C 17.427548 41.395223 22.632866 44.783376 32.607422 50.210938 L 32.607422 50.236328 C 32.615586 50.231887 32.622702 50.227094 32.630859 50.222656 C 32.639017 50.227094 32.646133 50.231887 32.654297 50.236328 L 32.654297 50.210938 C 42.628853 44.783376 47.834171 41.395223 48.904297 17.53125 C 48.039516 17.172814 38.273521 16.715026 32.654297 13.222656 L 32.654297 13.195312 C 32.646773 13.200029 32.638398 13.204279 32.630859 13.208984 C 32.62332 13.204279 32.614946 13.200029 32.607422 13.195312 z "
       transform="translate(0,984.86215)"
       id="path5544" />
  </g>
</svg>
