<?xml version="1.0" encoding="UTF-8" standalone="no"?>
<svg
   xmlns:dc="http://purl.org/dc/elements/1.1/"
   xmlns:cc="http://creativecommons.org/ns#"
   xmlns:rdf="http://www.w3.org/1999/02/22-rdf-syntax-ns#"
   xmlns:svg="http://www.w3.org/2000/svg"
   xmlns="http://www.w3.org/2000/svg"
   xmlns:sodipodi="http://sodipodi.sourceforge.net/DTD/sodipodi-0.dtd"
   xmlns:inkscape="http://www.inkscape.org/namespaces/inkscape"
   sodipodi:docname="server-y.svg"
   inkscape:version="1.0 (4035a4fb49, 2020-05-01)"
   version="1.1"
   id="svg2"
   viewBox="0 0 67.500001 67.500002"
   height="0.75in"
   width="0.75in">
  <defs
     id="defs4">
    <pattern
       id="EMFhbasepattern"
       patternUnits="userSpaceOnUse"
       width="6"
       height="6"
       x="0"
       y="0" />
  </defs>
  <sodipodi:namedview
     inkscape:document-rotation="0"
     inkscape:window-maximized="1"
     inkscape:window-y="-8"
     inkscape:window-x="-8"
     inkscape:window-height="1017"
     inkscape:window-width="1920"
     units="in"
     showgrid="false"
     inkscape:current-layer="layer1"
     inkscape:document-units="px"
     inkscape:cy="42.048029"
     inkscape:cx="66.327629"
     inkscape:zoom="15.839192"
     inkscape:pageshadow="2"
     inkscape:pageopacity="0.0"
     borderopacity="1.0"
     bordercolor="#666666"
     pagecolor="#ffffff"
     id="base" />
  <metadata
     id="metadata7">
    <rdf:RDF>
      <cc:Work
         rdf:about="">
        <dc:format>image/svg+xml</dc:format>
        <dc:type
           rdf:resource="http://purl.org/dc/dcmitype/StillImage" />
        <dc:title />
      </cc:Work>
    </rdf:RDF>
  </metadata>
  <g
     transform="translate(0,-984.86215)"
     id="layer1"
     inkscape:groupmode="layer"
     inkscape:label="Layer 1">
    <path
       d="m 31.576539,1000.7998 v 9.0326 h 1.391602 v -9.0326 z m -8.521729,0.051 c -1.220772,0 -2.211914,0.9948 -2.211914,2.2211 0,1.2262 0.991142,2.2193 2.211914,2.2193 0.996251,0 1.837194,-0.6615 2.113038,-1.5711 h 3.537597 v 6.1121 h 1.393433 v -7.511 h -4.962159 c -0.30608,-0.8571 -1.123525,-1.4704 -2.081909,-1.4704 z m 15.212403,0 c -1.220769,0 -2.208252,0.9948 -2.208252,2.2211 0,0.9587 0.60472,1.7751 1.452026,2.0856 v 4.6747 h 1.389771 v -4.6326 c 0.912882,-0.2729 1.578369,-1.1224 1.578369,-2.1277 0,-1.2264 -0.989312,-2.2211 -2.210083,-2.2211 z m -3.755493,4.7168 v 4.2646 h 1.38977 v -4.2646 z m 14.840699,0.3186 c -1.220774,0 -2.210083,0.9948 -2.210083,2.2211 0,1.0345 0.703365,1.9053 1.657104,2.1515 v 2.1716 h -7.316895 v 1.3953 h 8.710328 v -3.6639 c 0.804793,-0.3314 1.369629,-1.1263 1.369628,-2.0545 0,-1.2262 -0.989313,-2.2211 -2.210082,-2.2211 z m -33.414919,2.146 v 1.399 h 5.240479 v 4.3945 h 4.943848 v -1.3953 h -3.552246 v -4.3982 z m 11.574098,3.1989 v 12.6306 h 12.581177 v -12.6306 z m 1.71936,1.7139 h 2.711792 l 2.003174,3.598 1.933594,-3.598 h 2.623901 l -3.414917,5.7037 v 3.598 h -2.387695 v -3.4863 z m -11.488037,2.4975 v 7.1155 c -0.904538,0.2777 -1.56189,1.1222 -1.56189,2.1222 0,1.2261 0.989313,2.2211 2.210083,2.2211 1.220774,0 2.210083,-0.9951 2.210083,-2.2211 0,-0.9644 -0.613094,-1.7847 -1.468505,-2.0911 v -5.7495 h 6.989135 v -1.3971 z m 23.739624,0 v 1.3971 h 4.249878 v -1.3971 z m 7.869874,1.7377 c -0.857932,0 -1.599855,0.4912 -1.966554,1.2085 h -5.90332 v 1.3989 h 5.692749 c 0.183034,1.0412 1.088216,1.8329 2.177125,1.8329 1.220769,0 2.210082,-0.995 2.210082,-2.2211 0,-1.2262 -0.989308,-2.2192 -2.210082,-2.2192 z m -27.478639,1.2085 v 1.3989 h 4.248047 v -1.3989 z m 1.351319,2.8839 v 6.6595 c -0.905169,0.2778 -1.565552,1.1222 -1.565552,2.1222 0,1.2261 0.991141,2.2211 2.211914,2.2211 1.220693,0 2.208252,-0.995 2.208252,-2.2211 0,-0.9643 -0.610063,-1.7847 -1.464844,-2.091 v -5.2936 h 1.506958 v -1.3971 z m 18.257446,0 v 1.3989 h 3.555908 v 7.5348 c -0.891389,0.2866 -1.538085,1.1266 -1.538085,2.1167 0,1.2262 0.99114,2.2193 2.211914,2.2193 1.220769,0 2.210083,-0.9932 2.210083,-2.2193 0,-0.9743 -0.625421,-1.8009 -1.494141,-2.1002 v -8.9502 z m -12.7771,3.988 v 4.2719 h 1.393433 v -4.2719 z m 2.871094,0 v 6.8445 c -0.866987,0.3001 -1.490479,1.1259 -1.490479,2.0984 0,1.2261 0.991142,2.2211 2.211914,2.2211 1.220771,0 2.208253,-0.9951 2.208253,-2.2211 0,-0.9908 -0.646224,-1.8295 -1.538086,-2.1149 v -6.828 z m 2.935181,0 v 4.2719 h 1.391602 l -0.0018,-4.2719 z m 2.999267,0 v 11.0761 h 1.389771 v -11.0761 z"
       style="fill:#000000;stroke-width:0.339028"
       id="path6250" />
    <g
       style="font-style:normal;font-weight:normal;font-size:12.7654px;line-height:125%;font-family:sans-serif;letter-spacing:0px;word-spacing:0px;fill:#ffffff;fill-opacity:1;stroke:none;stroke-width:0.339028px;stroke-linecap:butt;stroke-linejoin:miter;stroke-opacity:1"
       id="text4669"
       transform="matrix(0.99776388,0,0,1.0022411,0.43945314,0.12555804)"
       aria-label="Y" />
  </g>
</svg>
