<?xml version="1.0" encoding="UTF-8" standalone="no"?>
<svg
   xmlns:dc="http://purl.org/dc/elements/1.1/"
   xmlns:cc="http://creativecommons.org/ns#"
   xmlns:rdf="http://www.w3.org/1999/02/22-rdf-syntax-ns#"
   xmlns:svg="http://www.w3.org/2000/svg"
   xmlns="http://www.w3.org/2000/svg"
   xmlns:sodipodi="http://sodipodi.sourceforge.net/DTD/sodipodi-0.dtd"
   xmlns:inkscape="http://www.inkscape.org/namespaces/inkscape"
   width="0.75in"
   height="0.75in"
   viewBox="0 0 67.500001 67.500002"
   id="svg2"
   version="1.1"
   inkscape:version="1.0 (4035a4fb49, 2020-05-01)"
   sodipodi:docname="server-y.svg">
  <defs
     id="defs4">
    <pattern
       y="0"
       x="0"
       height="6"
       width="6"
       patternUnits="userSpaceOnUse"
       id="EMFhbasepattern" />
  </defs>
  <sodipodi:namedview
     id="base"
     pagecolor="#ffffff"
     bordercolor="#666666"
     borderopacity="1.0"
     inkscape:pageopacity="0.0"
     inkscape:pageshadow="2"
     inkscape:zoom="15.839192"
     inkscape:cx="66.327629"
     inkscape:cy="42.048029"
     inkscape:document-units="px"
     inkscape:current-layer="layer1"
     showgrid="false"
     units="in"
     inkscape:window-width="1920"
     inkscape:window-height="1017"
     inkscape:window-x="-8"
     inkscape:window-y="-8"
     inkscape:window-maximized="1"
     inkscape:document-rotation="0" />
  <metadata
     id="metadata7">
    <rdf:RDF>
      <cc:Work
         rdf:about="">
        <dc:format>image/svg+xml</dc:format>
        <dc:type
           rdf:resource="http://purl.org/dc/dcmitype/StillImage" />
        <dc:title />
      </cc:Work>
    </rdf:RDF>
  </metadata>
  <g
     inkscape:label="Layer 1"
     inkscape:groupmode="layer"
     id="layer1"
     transform="translate(0,-984.86215)">
    <path
       id="path6250"
       style="fill:#000000;stroke-width:0.339028"
       d="m 22.961528,1004.2729 4.5163,7.8225 1.205162,-0.6958 -4.5163,-7.8225 z m -7.354534,4.3051 c -1.05722,0.6104 -1.418174,1.9675 -0.805024,3.0295 0.6131,1.0619 1.968004,1.4264 3.025224,0.816 0.862779,-0.4982 1.260307,-1.4915 1.044394,-2.4172 l 3.063649,-1.7688 3.05605,5.2933 1.206749,-0.6967 -3.7555,-6.5048 -4.297356,2.4811 c -0.693623,-0.5892 -1.708201,-0.7116 -2.538186,-0.2324 z m 13.174327,-7.6062 c -1.057217,0.6104 -1.415002,1.9656 -0.801852,3.0276 0.47935,0.8303 1.411253,1.2349 2.300291,1.0802 l 2.33735,4.0484 1.203577,-0.6949 -2.3163,-4.0119 c 0.654129,-0.6928 0.805708,-1.7612 0.303058,-2.6319 -0.6132,-1.0621 -1.967319,-1.4288 -3.024538,-0.8184 z m -0.893952,5.9626 2.1323,3.6932 1.203576,-0.6948 -2.1323,-3.6933 z m 13.011722,-7.14445 c -1.057221,0.61035 -1.416588,1.96655 -0.803438,3.02855 0.51725,0.8959 1.561782,1.2984 2.510844,1.0347 l 1.0858,1.8807 -6.336617,3.6584 0.69765,1.2084 7.543366,-4.3552 -1.83195,-3.173 c 0.531271,-0.6894 0.622983,-1.6602 0.158882,-2.4641 -0.6131,-1.06188 -1.96732,-1.42883 -3.024537,-0.81845 z m -27.865168,18.56595 0.6995,1.2116 4.538388,-2.6203 2.19725,3.8058 4.281497,-2.4719 -0.69765,-1.2084 -3.076335,1.7761 -2.1991,-3.8089 z m 11.622912,-3.0167 6.3153,10.9384 10.895619,-6.2906 -6.3153,-10.9384 z m 2.34596,0.6246 2.348481,-1.3559 3.533799,2.1144 -0.124458,-4.0828 2.272365,-1.3119 -0.105555,6.647 1.799,3.1159 -2.067805,1.1939 -1.74315,-3.0193 z m -8.700182,7.9069 3.55775,6.1622 c -0.644503,0.6928 -0.791536,1.7528 -0.291536,2.6188 0.61305,1.0619 1.96732,1.4289 3.024538,0.8185 1.057221,-0.6104 1.416438,-1.9668 0.803438,-3.0286 -0.4822,-0.8352 -1.423305,-1.239 -2.317313,-1.0766 l -2.87475,-4.9793 6.052768,-3.4945 -0.69855,-1.21 z m 20.559117,-11.8698 0.69855,1.2099 3.680503,-2.1249 -0.69855,-1.21 z m 7.684361,-2.4301 c -0.742991,0.429 -1.139915,1.2254 -1.098835,2.0299 l -5.112426,2.9517 0.69945,1.2115 4.930066,-2.8464 c 0.679112,0.8102 1.858872,1.0432 2.801895,0.4988 1.057217,-0.6104 1.416487,-1.9668 0.803437,-3.0286 -0.6131,-1.0619 -1.966365,-1.4272 -3.023587,-0.8169 z m -23.192949,14.786 0.69945,1.2114 3.678916,-2.124 -0.69945,-1.2115 z m 2.612226,1.8218 3.32975,5.7673 c -0.644999,0.6932 -0.794707,1.7547 -0.294707,2.6207 0.61305,1.0618 1.968903,1.4279 3.026123,0.8175 1.057151,-0.6103 1.414903,-1.9658 0.801853,-3.0276 -0.48215,-0.8351 -1.42068,-1.2406 -2.314092,-1.0784 l -2.6468,-4.5844 1.305063,-0.7535 -0.69855,-1.2099 z m 15.811412,-9.1287 0.69945,1.2115 3.079507,-1.778 3.7674,6.5254 c -0.628665,0.6939 -0.768721,1.7447 -0.273671,2.6021 0.6131,1.0619 1.968003,1.4264 3.025224,0.816 1.057217,-0.6104 1.417388,-1.9651 0.804338,-3.027 -0.48715,-0.8437 -1.44208,-1.2469 -2.344064,-1.0717 l -4.4751,-7.7511 z m -9.071293,9.8423 2.13595,3.6995 1.206749,-0.6967 -2.13595,-3.6996 z m 2.486441,-1.4356 3.42225,5.9275 c -0.600783,0.6934 -0.727843,1.7203 -0.241593,2.5625 0.61305,1.0619 1.968904,1.428 3.026124,0.8176 1.057218,-0.6104 1.414853,-1.9659 0.801853,-3.0277 -0.4954,-0.858 -1.474397,-1.2612 -2.389472,-1.0625 l -3.414,-5.9132 z m 2.541941,-1.4676 2.13595,3.6996 1.205163,-0.6958 -2.137509,-3.6987 z m 2.597441,-1.4996 5.53805,9.5922 1.203577,-0.6949 -5.53805,-9.5922 z" />
    <g
       aria-label="Y"
       transform="matrix(0.99776388,0,0,1.0022411,0.43945314,0.12555804)"
       id="text4669"
       style="font-style:normal;font-weight:normal;font-size:12.7654px;line-height:125%;font-family:sans-serif;letter-spacing:0px;word-spacing:0px;fill:#ffffff;fill-opacity:1;stroke:none;stroke-width:0.339028px;stroke-linecap:butt;stroke-linejoin:miter;stroke-opacity:1" />
  </g>
</svg>
