<?xml version="1.0" encoding="UTF-8" standalone="no"?>
<svg
   xmlns:dc="http://purl.org/dc/elements/1.1/"
   xmlns:cc="http://creativecommons.org/ns#"
   xmlns:rdf="http://www.w3.org/1999/02/22-rdf-syntax-ns#"
   xmlns:svg="http://www.w3.org/2000/svg"
   xmlns="http://www.w3.org/2000/svg"
   xmlns:sodipodi="http://sodipodi.sourceforge.net/DTD/sodipodi-0.dtd"
   xmlns:inkscape="http://www.inkscape.org/namespaces/inkscape"
   width="0.75in"
   height="0.75in"
   viewBox="0 0 67.500001 67.500002"
   id="svg2"
   version="1.1"
   inkscape:version="1.0 (4035a4fb49, 2020-05-01)"
   sodipodi:docname="server-x.svg">
  <defs
     id="defs4">
    <pattern
       y="0"
       x="0"
       height="6"
       width="6"
       patternUnits="userSpaceOnUse"
       id="EMFhbasepattern" />
  </defs>
  <sodipodi:namedview
     id="base"
     pagecolor="#ffffff"
     bordercolor="#666666"
     borderopacity="1.0"
     inkscape:pageopacity="0.0"
     inkscape:pageshadow="2"
     inkscape:zoom="22.4"
     inkscape:cx="63.029417"
     inkscape:cy="32.313624"
     inkscape:document-units="px"
     inkscape:current-layer="g6259"
     showgrid="false"
     units="in"
     inkscape:window-width="1920"
     inkscape:window-height="1017"
     inkscape:window-x="-8"
     inkscape:window-y="-8"
     inkscape:window-maximized="1"
     inkscape:document-rotation="0" />
  <metadata
     id="metadata7">
    <rdf:RDF>
      <cc:Work
         rdf:about="">
        <dc:format>image/svg+xml</dc:format>
        <dc:type
           rdf:resource="http://purl.org/dc/dcmitype/StillImage" />
        <dc:title />
      </cc:Work>
    </rdf:RDF>
  </metadata>
  <g
     inkscape:label="Layer 1"
     inkscape:groupmode="layer"
     id="layer1"
     transform="translate(0,-984.86215)">
    <g
       id="g6259"
       transform="matrix(0.33902836,0,0,0.33902836,-15.814038,568.01834)">
      <path
         id="path6250"
         style="fill:#000000;stroke-width:1"
         d="m 114.10793,1286.4779 13.4221,23.2478 3.60018,-2.0786 -13.4221,-23.2477 z m -21.951748,12.8443 c -3.155718,1.822 -4.238335,5.8626 -2.416435,9.0182 1.82195,3.1557 5.859567,4.2333 9.015285,2.4113 2.575328,-1.4868 3.764628,-4.4458 3.126238,-7.1983 l 9.14365,-5.279 9.08485,15.7354 3.60018,-2.0786 -11.16345,-19.3357 -12.825649,7.4049 c -2.064476,-1.7485 -5.08723,-2.1085 -7.564669,-0.6782 z m 39.325848,-22.7048 c -3.15571,1.822 -4.23321,5.8597 -2.41131,9.0153 1.4245,2.4673 4.20214,3.668 6.85374,3.2025 l 6.94725,12.033 3.58995,-2.0727 -6.88525,-11.9256 c 1.95427,-2.0649 2.41756,-5.2489 0.92386,-7.8361 -1.82205,-3.1558 -5.86253,-4.2383 -9.01824,-2.4164 z m -2.70203,17.7472 6.33905,10.9796 3.59506,-2.0757 -6.33905,-10.9795 z m 38.83978,-21.3264 c -3.15571,1.822 -4.23833,5.8626 -2.41638,9.0183 1.5371,2.6624 4.65388,3.8458 7.48516,3.0561 l 3.2271,5.5895 -18.91629,10.9213 2.07265,3.59 22.51136,-12.997 -5.44445,-9.4301 c 1.58785,-2.0542 1.87303,-4.9401 0.49403,-7.3286 -1.82195,-3.1557 -5.85747,-4.2414 -9.01318,-2.4195 z m -83.19299,55.3888 2.07855,3.6002 13.54671,-7.8212 6.53095,11.3119 12.77962,-7.3783 -2.07265,-3.59 -9.17943,5.2998 -6.53685,-11.3222 z m 34.6749,-9.0418 0.005,0.01 18.7632,32.4989 32.51926,-18.775 -18.76625,-32.5041 z m 6.63606,1.9087 7.12366,-4.1129 9.28567,4.5803 0.8245,-10.4174 6.83216,-3.9445 -1.63621,16.4636 15.58982,7.3977 -7.13899,4.1217 -9.70973,-4.9014 -0.70729,10.9156 -6.81681,3.9357 1.52706,-16.9597 z m -25.62912,23.5123 10.56995,18.3077 c -1.9256,2.0647 -2.37248,5.2206 -0.88668,7.7941 1.8217,3.1553 5.85741,4.2414 9.01313,2.4194 3.15571,-1.822 4.23812,-5.863 2.41642,-9.0182 -1.43285,-2.4818 -4.23926,-3.6745 -6.90567,-3.1861 l -8.54455,-14.7996 18.06739,-10.4313 -2.07265,-3.5899 z m 61.36674,-35.4301 2.07265,3.5899 10.98464,-6.342 -2.07265,-3.5899 z m 22.92356,-7.2755 c -2.21776,1.2804 -3.41099,3.6538 -3.29322,6.0469 l -15.25474,8.8073 2.07855,3.6002 14.71778,-8.4973 c 2.0203,2.4065 5.53268,3.0924 8.34753,1.4673 3.15571,-1.822 4.23308,-5.8599 2.41133,-9.0153 -1.822,-3.1558 -5.85151,-4.2311 -9.00723,-2.4091 z m -69.23689,44.1195 2.07855,3.6002 10.97953,-6.3391 -2.07855,-3.6001 z m 7.77178,5.4067 9.89385,17.1366 c -1.92707,2.0659 -2.3745,5.229 -0.88885,7.8022 1.82175,3.1554 5.86252,4.2384 9.01824,2.4165 3.15551,-1.8219 4.23307,-5.8599 2.41132,-9.0153 -1.43275,-2.4816 -4.23077,-3.6796 -6.89544,-3.192 l -7.8655,-13.6235 3.89678,-2.2498 -2.07855,-3.6002 z m 47.20125,-27.2517 2.07855,3.6002 9.18966,-5.3057 11.1959,19.3919 c -1.87845,2.0678 -2.3001,5.1925 -0.82905,7.7404 1.82185,3.1556 5.85957,4.2333 9.01529,2.4113 3.15571,-1.8219 4.23597,-5.8548 2.41427,-9.0101 -1.44755,-2.5073 -4.29149,-3.7026 -6.98179,-3.1763 l -13.2981,-23.033 z m -27.10495,29.3339 6.34785,10.9948 3.60018,-2.0786 -6.34785,-10.9948 z m 7.42026,-4.2841 10.17135,17.6173 c -1.79532,2.0662 -2.17777,5.121 -0.73292,7.6235 1.8218,3.1555 5.86252,4.2384 9.01824,2.4164 3.15571,-1.8219 4.22791,-5.857 2.40621,-9.0123 -1.47215,-2.5498 -4.38832,-3.7487 -7.1179,-3.1522 l -10.1448,-17.5713 z m 7.58902,-4.3815 6.34785,10.9948 3.60018,-2.0786 -6.35807,-10.9889 z m 7.75266,-4.476 16.45725,28.5048 3.58995,-2.0727 -16.45725,-28.5048 z"
         sodipodi:nodetypes="cccccsssccccccsssccccsscccccssccccccssccccccccccccccccccccccccccccccsssccccccccccsccccssscccccccssscccccccccsssccccccccccsssccccccccccccc" />
      <g
         aria-label="X"
         id="text4669"
         style="font-style:normal;font-weight:normal;font-size:34.7726px;line-height:125%;font-family:sans-serif;letter-spacing:0px;word-spacing:0px;fill:#ffffff;fill-opacity:1;stroke:none;stroke-width:1px;stroke-linecap:butt;stroke-linejoin:miter;stroke-opacity:1" />
    </g>
  </g>
</svg>
