<?xml version="1.0" encoding="UTF-8" standalone="no"?>
<svg
   xmlns:dc="http://purl.org/dc/elements/1.1/"
   xmlns:cc="http://creativecommons.org/ns#"
   xmlns:rdf="http://www.w3.org/1999/02/22-rdf-syntax-ns#"
   xmlns:svg="http://www.w3.org/2000/svg"
   xmlns="http://www.w3.org/2000/svg"
   xmlns:sodipodi="http://sodipodi.sourceforge.net/DTD/sodipodi-0.dtd"
   xmlns:inkscape="http://www.inkscape.org/namespaces/inkscape"
   sodipodi:docname="server-x.svg"
   inkscape:version="1.0 (4035a4fb49, 2020-05-01)"
   version="1.1"
   id="svg2"
   viewBox="0 0 67.500001 67.500002"
   height="0.75in"
   width="0.75in">
  <defs
     id="defs4">
    <pattern
       id="EMFhbasepattern"
       patternUnits="userSpaceOnUse"
       width="6"
       height="6"
       x="0"
       y="0" />
  </defs>
  <sodipodi:namedview
     inkscape:document-rotation="0"
     inkscape:window-maximized="1"
     inkscape:window-y="-8"
     inkscape:window-x="-8"
     inkscape:window-height="1017"
     inkscape:window-width="1920"
     units="in"
     showgrid="false"
     inkscape:current-layer="g6259"
     inkscape:document-units="px"
     inkscape:cy="32.313624"
     inkscape:cx="63.029417"
     inkscape:zoom="22.4"
     inkscape:pageshadow="2"
     inkscape:pageopacity="0.0"
     borderopacity="1.0"
     bordercolor="#666666"
     pagecolor="#ffffff"
     id="base" />
  <metadata
     id="metadata7">
    <rdf:RDF>
      <cc:Work
         rdf:about="">
        <dc:format>image/svg+xml</dc:format>
        <dc:type
           rdf:resource="http://purl.org/dc/dcmitype/StillImage" />
        <dc:title />
      </cc:Work>
    </rdf:RDF>
  </metadata>
  <g
     transform="translate(0,-984.86215)"
     id="layer1"
     inkscape:groupmode="layer"
     inkscape:label="Layer 1">
    <g
       transform="matrix(0.33902836,0,0,0.33902836,-15.814038,568.01834)"
       id="g6259">
      <path
         sodipodi:nodetypes="cccccsssccccccsssccccsscccccssccccccssccccccccccccccccccccccccccccccsssccccccccccsccccssscccccccssscccccccccsssccccccccccsssccccccccccccc"
         d="m 139.70476,1276.1415 v 26.8442 h 4.15713 v -26.8442 z m -25.43291,0.1476 c -3.64391,0 -6.60181,2.958 -6.60181,6.6018 0,3.6439 2.9579,6.5959 6.60181,6.5959 2.97373,0 5.48319,-1.9679 6.30656,-4.6708 h 10.55817 v 18.1697 h 4.15713 v -22.3269 h -14.80978 c -0.91363,-2.5465 -3.35138,-4.3697 -6.21208,-4.3697 z m 45.40958,0 c -3.6439,0 -6.5959,2.958 -6.5959,6.6018 0,2.849 1.80514,5.2777 4.33428,6.2003 v 13.8945 h 4.14532 v -13.7705 c 2.72488,-0.8111 4.71811,-3.3369 4.71811,-6.3243 0,-3.6441 -2.95791,-6.6018 -6.60181,-6.6018 z m -11.21362,14.0185 v 12.6781 h 4.15122 v -12.6781 z m 44.29943,0.9507 c -3.64391,0 -6.60181,2.958 -6.60181,6.6019 0,3.0742 2.10748,5.6575 4.95431,6.3892 v 6.4542 h -21.84265 v 4.1453 h 25.99388 V 1303.96 c 2.40224,-0.9851 4.09218,-3.3418 4.09218,-6.0998 0,-3.6439 -2.95201,-6.6019 -6.59591,-6.6019 z m -99.74164,6.3716 v 4.1571 h 15.64239 v 13.0619 h 14.75664 v -4.1453 h -10.5995 v -13.0737 z m 34.55026,9.507 v 0.01 37.5264 h 37.55 v -37.5325 z m 4.79265,4.971 h 8.22569 l 5.75148,8.6095 5.92274,-8.6095 h 7.8891 l -9.6488,13.4398 9.80233,14.2015 h -8.2434 l -5.95817,-9.0996 -6.07036,9.0996 h -7.87138 l 9.80233,-13.924 z m -33.951627,7.5477 v 21.1399 c -2.699974,0.8253 -4.664964,3.335 -4.664964,6.3066 0,3.6434 2.952005,6.6018 6.595911,6.6018 3.6439,0 6.6018,-2.9584 6.6018,-6.6018 0,-2.8657 -1.83409,-5.3018 -4.38743,-6.2121 v -17.0891 h 20.86243 v -4.1453 z m 70.860207,0 v 4.1453 h 12.68397 v -4.1453 z m 23.49015,5.161 c -2.56085,0 -4.78092,1.4588 -5.87549,3.5902 h -17.61466 v 4.1571 h 16.99463 c 0.54635,3.0943 3.24521,5.4445 6.49552,5.4445 3.6439,0 6.59591,-2.9583 6.59591,-6.6018 0,-3.644 -2.952,-6.59 -6.59591,-6.59 z m -82.02068,3.5902 v 4.1571 h 12.67807 v -4.1571 z m 4.02722,8.5682 v 19.7877 c -2.70185,0.8256 -4.67087,3.3412 -4.67087,6.3125 0,3.6435 2.9579,6.6018 6.60181,6.6018 3.64367,0 6.5959,-2.9583 6.5959,-6.6018 0,-2.8655 -1.82416,-5.302 -4.37561,-6.2121 v -15.731 h 4.49962 v -4.1571 z m 54.50331,0 v 4.1571 h 10.61131 v 22.3918 c -2.66072,0.8516 -4.5882,3.3468 -4.5882,6.2889 0,3.6437 2.9579,6.5959 6.60181,6.5959 3.6439,0 6.5959,-2.9525 6.59591,-6.5959 0,-2.8951 -1.86524,-5.3523 -4.45829,-6.2416 v -26.5962 z m -38.14051,11.8514 v 12.6957 h 4.15713 v -12.6957 z m 8.56818,0 v 20.3427 c -2.58788,0.8917 -4.44648,3.346 -4.44648,6.2357 0,3.6436 2.9579,6.6018 6.60181,6.6018 3.6439,0 6.59,-2.9584 6.59,-6.6018 0,-2.9443 -1.92606,-5.4406 -4.5882,-6.2888 v -20.2896 z m 8.76305,0 v 12.6957 h 4.15713 l -0.0118,-12.6957 z m 8.952,0 v 32.9145 h 4.14532 v -32.9145 z"
         style="fill:#000000;stroke-width:1"
         id="path6250" />
      <g
         style="font-style:normal;font-weight:normal;font-size:34.7726px;line-height:125%;font-family:sans-serif;letter-spacing:0px;word-spacing:0px;fill:#ffffff;fill-opacity:1;stroke:none;stroke-width:1px;stroke-linecap:butt;stroke-linejoin:miter;stroke-opacity:1"
         id="text4669"
         aria-label="X" />
    </g>
  </g>
</svg>
