<?xml version="1.0" encoding="UTF-8" standalone="no"?>
<svg
   xmlns:dc="http://purl.org/dc/elements/1.1/"
   xmlns:cc="http://creativecommons.org/ns#"
   xmlns:rdf="http://www.w3.org/1999/02/22-rdf-syntax-ns#"
   xmlns:svg="http://www.w3.org/2000/svg"
   xmlns="http://www.w3.org/2000/svg"
   xmlns:sodipodi="http://sodipodi.sourceforge.net/DTD/sodipodi-0.dtd"
   xmlns:inkscape="http://www.inkscape.org/namespaces/inkscape"
   viewBox="0 0 512 512"
   style="height: 512px; width: 512px;"
   version="1.1"
   id="svg8"
   sodipodi:docname="shopping-cart.svg"
   inkscape:version="1.0 (4035a4fb49, 2020-05-01)">
  <metadata
     id="metadata14">
    <rdf:RDF>
      <cc:Work
         rdf:about="">
        <dc:format>image/svg+xml</dc:format>
        <dc:type
           rdf:resource="http://purl.org/dc/dcmitype/StillImage" />
      </cc:Work>
    </rdf:RDF>
  </metadata>
  <defs
     id="defs12" />
  <sodipodi:namedview
     inkscape:document-rotation="0"
     pagecolor="#ffffff"
     bordercolor="#666666"
     borderopacity="1"
     objecttolerance="10"
     gridtolerance="10"
     guidetolerance="10"
     inkscape:pageopacity="0"
     inkscape:pageshadow="2"
     inkscape:window-width="640"
     inkscape:window-height="480"
     id="namedview10"
     showgrid="false"
     inkscape:zoom="0.85557159"
     inkscape:cx="-278.07266"
     inkscape:cy="228.58321"
     inkscape:current-layer="g6" />
  <g
     class=""
     transform="translate(-1127.3091,-26.447135)"
     id="g6">
    <path
       id="path20"
       style="fill:#000000;stroke:none;stroke-width:2.51339;paint-order:markers fill stroke;stop-color:#000000"
       d="m 1158.5491,75.413932 c -7.0957,-0.247034 -12.826,5.289609 -12.8457,12.412109 l -0.094,33.892579 c -0.02,7.12248 5.6778,13.05569 12.7734,13.30273 l 24.5899,0.85547 78.0293,305.26758 c 0.9413,3.68228 3.375,6.5675 6.4824,8.20507 2.3288,2.65611 5.7247,4.35617 9.5449,4.40039 l 15.6914,0.18165 c -7.3811,6.54665 -11.6055,15.94058 -11.6054,25.80664 0,19.05059 15.4435,34.49415 34.4941,34.49415 19.0506,0 34.4941,-15.44356 34.4941,-34.49415 -3e-4,-9.58807 -3.9913,-18.7434 -11.0156,-25.26954 l 130.1113,0.97461 c -6.4112,6.46055 -10.0091,15.19317 -10.0097,24.29493 -10e-5,19.05059 15.4435,34.49415 34.4941,34.49415 19.0506,0 34.4942,-15.44356 34.4942,-34.49415 -10e-5,-8.82571 -3.3833,-17.31563 -9.4532,-23.72266 l 31.0176,0.35937 c 7.122,0.0825 12.9037,-5.58657 12.9629,-12.70898 l 0.2813,-33.89258 c 0.059,-7.12241 -5.6261,-12.92341 -12.7481,-13.00586 l -239.627,-2.24218 -11.1016,-43.43165 h 263.2422 c 8.9095,0 13.7275,-7.48924 16.0821,-16.08202 l 47.9218,-174.88477 c 3.2513,-11.86549 -9.906,-22.20703 -22.2089,-22.20703 h -359.3008 c -0.854,-4.26743 -9.7268,-37.17343 -12.3848,-47.572264 -0.9239,-3.614694 -3.2849,-6.462429 -6.3105,-8.115235 -2.3376,-2.806033 -5.7969,-4.651859 -9.6817,-4.787109 z m 96.8731,84.861328 h 100.8769 v 59.60937 h -89.416 l -11.4609,-43.13281 z m 112.7519,0 h 100.877 v 59.60937 h -100.877 z m 116.6699,0 h 100.8789 v 16.24024 l -11.5234,43.36913 h -89.3555 z m -213.9238,74.80468 h 85.3789 v 59.60938 H 1286.76 Z m 97.2539,0 h 100.877 v 59.60938 h -100.877 z m 116.6699,0 h 85.3164 l -15.8379,59.60938 h -69.4785 z" />
  </g>
</svg>
