<?xml version="1.0" encoding="UTF-8" standalone="no"?>
<svg
   xmlns:dc="http://purl.org/dc/elements/1.1/"
   xmlns:cc="http://creativecommons.org/ns#"
   xmlns:rdf="http://www.w3.org/1999/02/22-rdf-syntax-ns#"
   xmlns:svg="http://www.w3.org/2000/svg"
   xmlns="http://www.w3.org/2000/svg"
   xmlns:sodipodi="http://sodipodi.sourceforge.net/DTD/sodipodi-0.dtd"
   xmlns:inkscape="http://www.inkscape.org/namespaces/inkscape"
   width="1125"
   height="825"
   viewBox="0 0 1125 825.00001"
   id="svg2"
   version="1.1"
   inkscape:version="1.0.1 (3bc2e813f5, 2020-09-07)"
   sodipodi:docname="skill-back-color.svg">
  <defs
     id="defs4">
    <inkscape:path-effect
       spray_tool_friendly="false"
       fixed_displacement="false"
       shift_nodes="true"
       handles="smooth"
       global_randomize="1.3;-498268898"
       displace_y="1.2;1157117219"
       displace_x="1.2;-905606432"
       segments="5"
       max_segment_size="9"
       method="size"
       is_visible="true"
       id="path-effect6889"
       effect="roughen" />
    <inkscape:path-effect
       effect="roughen"
       id="path-effect6869"
       is_visible="true"
       method="size"
       max_segment_size="9"
       segments="5"
       displace_x="1.2;-1352952533"
       displace_y="1.2;-1927569444"
       global_randomize="1;-439687928"
       handles="smooth"
       shift_nodes="true"
       fixed_displacement="false"
       spray_tool_friendly="false" />
    <inkscape:path-effect
       effect="roughen"
       id="path-effect6867"
       is_visible="true"
       method="size"
       max_segment_size="13"
       segments="2"
       displace_x="10;1"
       displace_y="10;1"
       global_randomize="1;1"
       handles="along"
       shift_nodes="true"
       fixed_displacement="false"
       spray_tool_friendly="false" />
    <inkscape:path-effect
       effect="roughen"
       id="path-effect6863"
       is_visible="true"
       method="segments"
       max_segment_size="10"
       segments="2"
       displace_x="10;1"
       displace_y="10;1"
       global_randomize="1;1"
       handles="along"
       shift_nodes="true"
       fixed_displacement="false"
       spray_tool_friendly="false" />
    <inkscape:path-effect
       effect="bspline"
       id="path-effect5914"
       is_visible="true"
       weight="33.333333"
       steps="2"
       helper_size="0"
       apply_no_weight="true"
       apply_with_weight="true"
       only_selected="false" />
  </defs>
  <sodipodi:namedview
     id="base"
     pagecolor="#ffffff"
     bordercolor="#666666"
     borderopacity="1.0"
     inkscape:pageopacity="0.0"
     inkscape:pageshadow="2"
     inkscape:zoom="0.92234878"
     inkscape:cx="600.5355"
     inkscape:cy="404.65278"
     inkscape:document-units="px"
     inkscape:current-layer="layer2"
     showgrid="false"
     units="px"
     inkscape:window-width="1920"
     inkscape:window-height="1017"
     inkscape:window-x="1672"
     inkscape:window-y="134"
     inkscape:window-maximized="1"
     showguides="false"
     inkscape:guide-bbox="true"
     inkscape:snap-global="false"
     inkscape:document-rotation="0">
    <sodipodi:guide
       position="676.53366,75"
       orientation="0,1"
       id="guide4576"
       inkscape:locked="false"
       inkscape:label=""
       inkscape:color="rgb(0,0,255)" />
    <sodipodi:guide
       position="185.66729,749.71639"
       orientation="0,1"
       id="guide4578"
       inkscape:locked="false"
       inkscape:label=""
       inkscape:color="rgb(0,0,255)" />
    <sodipodi:guide
       position="75,611.48236"
       orientation="1,0"
       id="guide4614"
       inkscape:locked="false"
       inkscape:label=""
       inkscape:color="rgb(0,0,255)" />
    <sodipodi:guide
       position="1050,586.54602"
       orientation="1,0"
       id="guide4616"
       inkscape:locked="false"
       inkscape:label=""
       inkscape:color="rgb(0,0,255)" />
    <sodipodi:guide
       position="269.42086,497.10046"
       orientation="0,1"
       id="guide5929"
       inkscape:locked="false" />
    <sodipodi:guide
       position="1034.9601,706.8394"
       orientation="0,1"
       id="guide6060"
       inkscape:locked="false" />
  </sodipodi:namedview>
  <metadata
     id="metadata7">
    <rdf:RDF>
      <cc:Work
         rdf:about="">
        <dc:format>image/svg+xml</dc:format>
        <dc:type
           rdf:resource="http://purl.org/dc/dcmitype/StillImage" />
        <dc:title />
      </cc:Work>
    </rdf:RDF>
  </metadata>
  <g
     inkscape:groupmode="layer"
     id="layer2"
     inkscape:label="post its"
     style="display:inline">
    <path
       id="path6065"
       d="m 281.87139,85.782493 764.35281,43.698317 v 275.6322 l -756.55491,0.0977 z"
       style="opacity:1;vector-effect:none;fill:#4d4d4d;fill-opacity:1;stroke:none;stroke-width:1.5;stroke-linecap:round;stroke-linejoin:round;stroke-miterlimit:4;stroke-dasharray:none;stroke-dashoffset:0;stroke-opacity:1"
       inkscape:connector-curvature="0"
       sodipodi:nodetypes="ccccc" />
    <path
       style="opacity:1;vector-effect:none;fill:#4d4d4d;fill-opacity:1;stroke:none;stroke-width:1.5;stroke-linecap:round;stroke-linejoin:round;stroke-miterlimit:4;stroke-dasharray:none;stroke-dashoffset:0;stroke-opacity:1"
       d="m 78.435295,310.38416 192.578995,4.74332 2.03285,168.72684 H 78.435295 Z"
       id="rect5925"
       inkscape:connector-curvature="0"
       sodipodi:nodetypes="ccccc" />
    <path
       style="opacity:1;vector-effect:none;fill:#fdd1e8;fill-opacity:1;stroke:none;stroke-width:1.45506465;stroke-linecap:round;stroke-linejoin:round;stroke-miterlimit:4;stroke-dasharray:none;stroke-dashoffset:0;stroke-opacity:1"
       d="m 280.80484,76.909897 765.97916,0.271047 0.01,40.971676 c -0.5983,143.42869 -4.3745,236.57619 -5.6011,278.98754 -270.60563,-3.87498 -518.76399,7.29457 -760.38817,0.89816 4.11718,-104.41463 -0.32633,-199.70272 -0.13365,-279.17038 z"
       id="rect5846"
       inkscape:connector-curvature="0"
       sodipodi:nodetypes="ccccccc" />
    <path
       style="opacity:1;vector-effect:none;fill:#b7d8c4;fill-opacity:1;stroke:none;stroke-width:1.5;stroke-linecap:round;stroke-linejoin:round;stroke-miterlimit:4;stroke-dasharray:none;stroke-dashoffset:0;stroke-opacity:1"
       d="M 76.435295,308.38416 H 271.04714 v 19.78643 c -0.49005,51.68039 -0.53302,104.14315 -3.79466,150.97326 -64.41887,3.41926 -128.83774,2.88645 -193.256609,0.54209 2.26865,-49.20307 5.053603,-97.81609 2.439424,-152.59954 z"
       id="rect5877"
       inkscape:connector-curvature="0"
       sodipodi:nodetypes="ccccccc" />
    <path
       sodipodi:nodetypes="ccccc"
       inkscape:connector-curvature="0"
       style="opacity:1;vector-effect:none;fill:#4d4d4d;fill-opacity:1;stroke:none;stroke-width:1.5;stroke-linecap:round;stroke-linejoin:round;stroke-miterlimit:4;stroke-dasharray:none;stroke-dashoffset:0;stroke-opacity:1"
       d="m 281.87139,443.03538 764.35281,43.69831 v 281.6322 l -756.55491,0.0977 z"
       id="path6081" />
    <path
       sodipodi:nodetypes="ccccccc"
       inkscape:connector-curvature="0"
       id="path6083"
       d="m 280.80484,434.16278 765.97916,0.27105 0.01,40.97167 c -0.5983,143.42869 -4.3745,236.57619 -5.6011,278.98754 -281.70589,15.55048 -518.80121,7.35971 -760.38817,0.89816 4.11718,-104.41463 -0.32633,-199.70272 -0.13365,-279.17038 z"
       style="opacity:1;vector-effect:none;fill:#fdd1e8;fill-opacity:1;stroke:none;stroke-width:1.45506465;stroke-linecap:round;stroke-linejoin:round;stroke-miterlimit:4;stroke-dasharray:none;stroke-dashoffset:0;stroke-opacity:1" />
    <rect
       style="opacity:1;vector-effect:none;fill:#4d4d4d;fill-opacity:1;stroke:none;stroke-width:1.5;stroke-linecap:round;stroke-linejoin:round;stroke-miterlimit:4;stroke-dasharray:none;stroke-dashoffset:0;stroke-opacity:1"
       id="rect6823"
       width="108.09583"
       height="60.564331"
       x="-113.5968"
       y="272.54691"
       transform="matrix(-0.8660254,0.5,0.5,0.8660254,0,0)" />
    <path
       style="display:inline;opacity:1;fill:#b7d8c4;fill-opacity:1;fill-rule:nonzero;stroke:none;stroke-width:1.5;stroke-linecap:round;stroke-linejoin:round;stroke-miterlimit:4;stroke-dasharray:none;stroke-dashoffset:0;stroke-opacity:1"
       d="m 235.08794,164.20305 -57.12374,37.93284 -38.10678,24.03449 -16.51032,9.96222 34.93967,57.93206 15.93818,-9.617 37.07809,-23.38764 58.83604,-39.24856 z"
       id="path4744"
       inkscape:connector-curvature="0"
       sodipodi:nodetypes="ccccccccc" />
    <g
       id="g6853"
       transform="matrix(1.4036859,0,0,0.73650232,743.39543,-43.460875)">
      <rect
         style="opacity:1;vector-effect:none;fill:#4d4d4d;fill-opacity:1;stroke:none;stroke-width:1.5;stroke-linecap:round;stroke-linejoin:round;stroke-miterlimit:4;stroke-dasharray:none;stroke-dashoffset:0;stroke-opacity:1"
         id="rect6849"
         width="108.09583"
         height="60.564331"
         x="91.396637"
         y="169.05856" />
      <path
         style="display:inline;opacity:1;fill:#b7d8c4;fill-opacity:1;fill-rule:nonzero;stroke:none;stroke-width:1.5;stroke-linecap:round;stroke-linejoin:round;stroke-miterlimit:4;stroke-dasharray:none;stroke-dashoffset:0;stroke-opacity:1"
         d="m 83.502834,156.25961 68.437026,4.28893 45.01868,1.7611 19.27947,0.37237 -1.29261,67.64047 -18.61137,-0.35948 -43.80439,-1.71524 -70.577776,-4.57223 z"
         id="path6851"
         inkscape:connector-curvature="0"
         sodipodi:nodetypes="ccccccccc" />
    </g>
    <path
       style="color:#000000;font-style:normal;font-variant:normal;font-weight:normal;font-stretch:normal;font-size:medium;line-height:normal;font-family:sans-serif;font-variant-ligatures:normal;font-variant-position:normal;font-variant-caps:normal;font-variant-numeric:normal;font-variant-alternates:normal;font-feature-settings:normal;text-indent:0;text-align:start;text-decoration:none;text-decoration-line:none;text-decoration-style:solid;text-decoration-color:#000000;letter-spacing:normal;word-spacing:normal;text-transform:none;writing-mode:lr-tb;direction:ltr;text-orientation:mixed;dominant-baseline:auto;baseline-shift:baseline;text-anchor:start;white-space:normal;shape-padding:0;clip-rule:nonzero;display:inline;overflow:visible;visibility:visible;opacity:1;isolation:auto;mix-blend-mode:normal;color-interpolation:sRGB;color-interpolation-filters:linearRGB;solid-color:#000000;solid-opacity:1;vector-effect:none;fill:#000000;fill-opacity:1;fill-rule:nonzero;stroke:none;stroke-width:6;stroke-linecap:round;stroke-linejoin:round;stroke-miterlimit:4;stroke-dasharray:none;stroke-dashoffset:0;stroke-opacity:1;color-rendering:auto;image-rendering:auto;shape-rendering:auto;text-rendering:auto;enable-background:accumulate"
       d="m 198.53279,196.86053 c -0.37417,0.29769 0.11835,3.18425 0.0328,4.62007 1.04382,1.5693 1.20967,3.5492 2.05642,5.23303 0.87469,1.73939 1.9334,3.71187 1.88743,5.71873 -0.0604,2.63676 -4.35417,2.54624 -6.63398,3.87237 -2.37382,1.38081 -4.76622,1.89995 -7.14143,3.27837 -2.45479,1.4246 -4.63554,2.78417 -7.07242,4.23919 -2.41218,1.44027 -5.77003,2.16959 -8.17482,3.62216 -2.23092,1.34756 -4.31222,2.43167 -6.4905,3.86276 -2.37694,1.56162 -4.81616,3.38787 -7.15839,5.00108 -2.20937,1.52171 -4.56472,2.68014 -6.81876,4.13485 -2.32263,1.49897 -4.69338,3.38456 -7.1389,4.92711 -1.11192,0.70136 -1.38209,2.24236 -0.20595,4.09642 1.52004,1.71971 1.57996,3.7465 2.66817,5.76733 1.21374,2.25394 1.92008,4.36871 3.23878,6.5629 1.26253,2.10073 2.59649,3.77864 4.26205,5.3269 1.13504,1.05511 3.21834,2.61834 4.10889,1.39673 1.10479,-2.49921 4.55882,-2.51315 6.95436,-3.82769 2.47828,-1.35995 5.14482,-2.42945 7.61564,-3.80292 2.3955,-1.33161 4.24345,-2.41512 6.62494,-3.77164 2.56624,-1.46176 5.46824,-2.76609 8.02473,-4.24482 2.32798,-1.34655 4.51606,-2.7659 6.82496,-4.14492 2.3943,-1.43002 5.29847,-2.51082 7.6941,-3.93861 2.30543,-1.37403 4.50821,-2.67673 6.74639,-4.15779 2.30079,-1.52249 5.11809,-3.56092 7.66317,-5.36122 1.72972,-1.22354 1.57549,3.98902 2.53013,5.88048 0.92274,1.82825 1.91069,3.69394 2.70372,5.61346 0.69881,1.69145 3.50696,0.53892 5.49338,-1.00042 1.75712,-1.72131 1.80728,-4.4588 2.86695,-6.6786 1.08483,-2.27252 2.23309,-4.56733 3.32954,-6.83427 1.07891,-2.23066 2.0147,-4.40483 3.09418,-6.63521 1.10787,-2.28905 1.64669,-5.24348 2.76424,-7.52782 1.06019,-2.16709 2.40316,-4.21996 3.63173,-6.29623 1.26805,-2.14298 2.2545,-4.11033 3.72497,-5.91938 1.18654,-1.45972 -0.6252,-4.04534 -2.47336,-4.63891 -2.51735,-0.4131 -5.89664,-0.93179 -8.43505,-1.18503 -2.24388,-0.22386 -5.06611,-0.21224 -7.31254,-0.40877 -2.33676,-0.20444 -4.608,-0.85558 -6.94455,-1.06229 -2.52608,-0.22347 -5.06376,0.0962 -7.59493,-0.0592 -2.52528,-0.15512 -4.59001,-0.50585 -7.10467,-0.78431 -2.45866,-0.27226 -5.60002,-0.47508 -8.40599,-0.45278 -0.43227,0.003 -1.06128,-0.71876 -1.43546,-0.42107 z m 8.02362,7.13662 c 0.16637,-0.89784 5.7397,0.24621 8.67383,0.40239 2.6584,0.1415 5.99363,0.31361 8.64636,0.53756 2.70419,0.2283 5.2636,0.52894 7.96468,0.79151 2.41832,0.23508 6.19875,0.57206 9.2946,0.89333 2.93639,0.30472 -3.23993,5.8664 -4.54124,8.51628 -1.18296,2.40888 -1.73181,4.78693 -2.85848,7.22264 -1.27712,2.76094 -2.31603,5.25349 -3.69237,7.96632 -1.31877,2.59939 -2.88025,5.16323 -3.94432,7.91098 -0.55523,1.43376 -1.76055,-2.68223 -2.56828,-3.99047 -0.809,-1.31029 -1.5908,-2.4856 -2.35186,-3.7495 -0.73411,-1.21915 -2.75574,-2.68176 -4.01809,-2.13155 -2.66718,-0.94068 -4.87562,3.34605 -7.28608,4.82537 -2.32687,1.42802 -5.14132,2.79669 -7.48254,4.20105 -2.2894,1.37328 -4.46132,3.46652 -6.75555,4.83173 -2.32236,1.38194 -4.18962,3.24938 -6.53767,4.5872 -2.46977,1.40718 -5.39045,1.61159 -7.9078,2.93177 -2.50712,1.31482 -5.05191,2.25135 -7.48251,3.70276 -2.43132,1.45184 -4.53884,3.0357 -6.8908,4.61286 -2.30672,1.54682 -4.84183,3.08169 -7.34952,4.4733 -2.29425,1.27315 -2.44714,-4.71499 -3.74627,-6.99463 -1.30303,-2.28647 -2.4868,-4.13748 -3.95017,-6.05062 -1.69808,-2.21998 5.03445,-2.8942 7.4241,-4.34381 2.32161,-1.40835 5.48826,-2.05265 7.8149,-3.45268 2.29333,-1.37999 4.00467,-2.41141 6.2781,-3.82394 2.55154,-1.58533 5.11722,-3.23994 7.65527,-4.84678 2.3265,-1.47291 4.96586,-2.56121 7.29343,-4.03243 2.32594,-1.47019 4.67388,-3.21162 6.97062,-4.72701 2.25802,-1.48983 4.7349,-2.75525 7.03399,-4.18089 2.34087,-1.45154 4.4525,-3.02465 6.62435,-4.61318 1.12409,-0.82218 1.08889,-2.15807 1.14778,-3.9106 -0.16094,-1.50812 -1.41643,-3.82479 -2.15053,-5.15197 -0.7413,-1.34019 -1.47431,-1.50914 -1.30793,-2.40699 z"
       id="rect6855"
       inkscape:connector-curvature="0"
       sodipodi:nodetypes="cccccccccccccccccccccccc"
       inkscape:path-effect="#path-effect6869"
       inkscape:original-d="m 198.6784,197.41631 c -1.45156,0.82074 -1.95543,2.66758 -1.12176,4.11175 2.00163,3.46692 4.00326,6.93384 6.00488,10.40076 -19.15912,11.06152 -38.31824,22.12304 -57.47736,33.18457 -1.43473,0.82853 -1.92632,2.66317 -1.09808,4.09807 3.6377,6.30068 7.2754,12.60136 10.91309,18.90203 0.82855,1.43474 2.66318,1.92632 4.09808,1.09808 19.15912,-11.06153 38.31824,-22.12305 57.47736,-33.18457 2.00196,3.46748 4.00391,6.93496 6.00586,10.40245 1.21246,2.10028 4.28651,1.9689 5.31534,-0.22717 6.40624,-13.67749 12.8125,-27.35497 19.21875,-41.03247 0.88398,-1.88923 -0.38185,-4.08171 -2.45996,-4.26077 -15.04786,-1.29021 -30.09571,-2.58041 -45.14356,-3.87062 -0.60243,-0.0515 -1.20636,0.0802 -1.73264,0.37789 z m 6.94939,6.0914 c 11.71021,1.00402 23.42042,2.00804 35.13062,3.01206 -4.98592,10.64278 -9.97185,21.28556 -14.95777,31.92834 -1.54329,-2.67307 -3.08658,-5.34613 -4.62988,-8.01919 -0.82854,-1.43474 -2.66316,-1.92632 -4.09807,-1.09808 -19.15913,11.06153 -38.31824,22.12305 -57.47736,33.18457 -2.6377,-4.56862 -5.2754,-9.13725 -7.91309,-13.70587 19.15912,-11.06153 38.31823,-22.12305 57.47736,-33.18457 1.43474,-0.82854 1.92632,-2.66317 1.09807,-4.09808 -1.54329,-2.67306 -3.08658,-5.34612 -4.62988,-8.01918 z" />
    <rect
       transform="matrix(-0.70710678,-0.70710678,-0.70710678,0.70710678,0,0)"
       y="234.35699"
       x="-610.44708"
       height="60.564331"
       width="108.09583"
       id="rect6883"
       style="opacity:1;vector-effect:none;fill:#4d4d4d;fill-opacity:1;stroke:none;stroke-width:1.5;stroke-linecap:round;stroke-linejoin:round;stroke-miterlimit:4;stroke-dasharray:none;stroke-dashoffset:0;stroke-opacity:1" />
    <path
       sodipodi:nodetypes="ccccccccc"
       inkscape:connector-curvature="0"
       id="path6885"
       d="m 268.30162,585.46526 -51.42502,-45.35956 -33.0783,-30.58774 -13.89595,-13.36933 -46.91502,48.74305 13.41441,12.90604 32.18725,29.76152 53.13908,46.67297 z"
       style="display:inline;opacity:1;fill:#b7d8c4;fill-opacity:1;fill-rule:nonzero;stroke:none;stroke-width:1.5;stroke-linecap:round;stroke-linejoin:round;stroke-miterlimit:4;stroke-dasharray:none;stroke-dashoffset:0;stroke-opacity:1" />
    <path
       inkscape:original-d="m 226.79659,558.89257 c -1.16846,-1.18968 -3.08279,-1.19838 -4.26198,-0.0193 -2.83073,2.83073 -5.66145,5.66146 -8.49218,8.49218 -15.64336,-15.64335 -31.28671,-31.28671 -46.93007,-46.93007 -1.17164,-1.1714 -3.07099,-1.1714 -4.24264,0 -5.14448,5.14448 -10.28896,10.28897 -15.43344,15.43344 -1.17141,1.17166 -1.1714,3.071 0,4.24265 15.64336,15.64335 31.28671,31.28671 46.93007,46.93006 -2.83119,2.8312 -5.66237,5.66238 -8.49357,8.49357 -1.71491,1.71474 -0.79238,4.65004 1.59514,5.07543 14.8695,2.64796 29.73899,5.29594 44.6085,7.9439 2.05365,0.36489 3.8438,-1.42526 3.47891,-3.47891 -2.64843,-14.86904 -5.29686,-29.73808 -7.94529,-44.60712 -0.10617,-0.59523 -0.38969,-1.14449 -0.81345,-1.57579 z m -4.08521,8.28916 c 2.06102,11.57106 4.12204,23.14211 6.18305,34.71315 -11.57059,-2.06147 -23.14117,-4.12296 -34.71176,-6.18443 2.18255,-2.18255 4.3651,-4.36509 6.54764,-6.54764 1.17141,-1.17165 1.17141,-3.07098 0,-4.24264 -15.64336,-15.64336 -31.28671,-31.28671 -46.93006,-46.93006 3.73026,-3.73027 7.46053,-7.46054 11.19079,-11.1908 15.64336,15.64335 31.28671,31.2867 46.93007,46.93007 1.17165,1.17141 3.07099,1.1714 4.24264,-10e-6 2.18255,-2.18254 4.36509,-4.36509 6.54763,-6.54764 z"
       inkscape:path-effect="#path-effect6889"
       sodipodi:nodetypes="cccccccccccccccccccccccc"
       inkscape:connector-curvature="0"
       id="path6887"
       d="m 226.81201,559.27952 c 0.20527,1.44769 -2.71795,-0.71985 -4.17457,-0.71786 -2.035,-0.46543 -3.49367,2.94078 -4.95637,4.4302 -1.42821,1.45432 -2.42921,3.18388 -3.77727,4.66102 -1.87208,2.05132 -3.75901,-4.72691 -5.70225,-6.71095 -1.8369,-1.87547 -4.16409,-4.30312 -6.01971,-6.16007 -1.78658,-1.78786 -2.98059,-4.28362 -4.78185,-6.05668 -1.96448,-1.93373 -3.96447,-4.34861 -5.98138,-6.22759 -1.94565,-1.81257 -3.52025,-3.69998 -5.51228,-5.46145 -2.13108,-1.88442 -4.78421,-2.80042 -6.95596,-4.63783 -2.17327,-1.8387 -4.19009,-3.88642 -6.14455,-5.9562 -1.89721,-2.00915 -3.53827,-3.92817 -5.73431,-5.34373 -1.19178,-0.76822 -3.22766,-2.07963 -3.83695,-0.6203 -0.39828,2.44729 -4.23849,3.02982 -6.02192,4.75238 -1.72161,1.66284 -3.4148,3.41945 -4.98821,5.22315 -1.58825,1.8207 -3.16927,3.78222 -5.01947,5.3995 -1.0703,0.93555 -1.05886,2.72604 0.0836,3.82799 2.32931,1.57254 3.90791,4.23575 5.88159,6.23654 1.93343,1.95999 4.23681,4.0503 6.17816,6.00245 1.88405,1.89453 3.34282,3.98731 5.22757,5.88115 2.00067,2.01033 4.03876,4.72219 6.06088,6.71094 1.85911,1.82843 3.05968,2.72855 4.95824,4.51599 2.28696,2.15311 5.25542,4.82883 7.53477,6.98998 1.80076,1.70737 3.56453,3.44971 5.33392,5.18957 1.95235,1.91977 4.03756,3.86825 6.59733,4.76812 2.23233,0.78475 -2.9854,4.63656 -4.63298,6.33499 -1.50242,1.5488 -3.63109,2.13493 -5.38484,3.29925 -1.54328,1.0246 -0.25615,3.73108 2.65029,4.90904 2.35091,0.81558 4.23138,-0.0516 6.67854,0.3994 2.73176,0.50344 5.62862,0.63139 8.34986,1.18895 2.43297,0.49849 4.83438,1.14346 7.25496,1.69899 2.44411,0.56094 4.71029,0.63988 7.15573,1.19496 2.54457,0.57758 5.93874,2.23655 8.46736,2.88037 2.47657,0.63057 4.65818,0.49417 6.78239,1.39746 1.61559,0.68701 3.01866,-0.83095 3.27248,-4.19916 0.26308,-2.50462 -2.21149,-5.984 -1.94149,-8.48788 0.22955,-2.12864 -0.43831,-3.95394 -0.7957,-6.06488 -0.43728,-2.58278 -0.78038,-5.48382 -1.23118,-8.06427 -0.41641,-2.38366 -0.94349,-4.66565 -1.3921,-7.04345 -0.47183,-2.50092 -0.3751,-5.08524 -0.81922,-7.59122 -0.40484,-2.28433 -1.37067,-4.63439 -1.93632,-6.98258 -0.16311,-0.67712 -0.76512,-2.10545 -0.8553,-2.55208 -0.0388,-0.1994 -0.0768,-0.4619 0.12849,0.98579 z m -4.94571,8.37614 c 0.54733,-1.37248 2.38844,4.62091 2.9037,7.51367 0.55066,3.09157 0.99183,6.25801 1.44534,9.36532 0.42142,2.88741 0.74187,6.77873 1.17609,9.66424 0.44186,2.93633 1.0239,5.13708 1.2802,7.73931 0.284,2.88349 -5.6678,0.22346 -8.51829,-0.29603 -2.97507,-0.5422 -6.31515,-1.33391 -9.25166,-2.05636 -2.70826,-0.66629 -5.56026,-0.85803 -8.27043,-1.51652 -2.83384,-0.68855 -5.94567,-1.82765 -9.00344,-1.76672 -1.77952,0.0355 2.12572,-2.07211 3.38175,-3.33318 1.16063,-1.16529 2.41769,-2.29228 3.14865,-3.75231 0.64687,-1.29206 1.33361,-3.19414 0.44927,-4.27949 -1.89522,-2.00955 -4.07506,-3.64066 -5.91217,-5.70347 -1.85368,-2.08141 -3.78928,-4.07009 -5.74978,-6.05121 -1.94664,-1.96711 -2.68429,-3.6271 -4.64074,-5.58445 -2.20868,-2.20968 -4.13729,-5.31726 -6.39817,-7.4735 -1.90844,-1.8201 -3.53291,-3.00825 -5.51015,-4.75337 -2.22361,-1.96258 -4.66876,-3.17347 -6.85774,-5.17461 -2.12913,-1.94643 -4.02545,-4.33009 -5.98385,-6.44821 -1.828,-1.97707 -3.55462,-3.61025 -5.57763,-5.11865 -2.1953,-1.63687 4.2632,-4.2095 6.14663,-6.19731 1.84301,-1.94513 2.75616,-3.61896 4.6555,-4.77314 2.32122,-1.41054 4.61959,3.84068 6.59072,5.70945 1.8447,1.74891 3.68447,2.75645 5.50959,4.52578 2.09445,2.03043 3.94816,4.56926 6.00289,6.6399 1.89019,1.90482 4.11148,4.56322 6.00175,6.46797 1.76017,1.77366 3.35007,2.27763 5.1281,4.03337 2.20821,2.18054 3.50415,4.61733 5.63177,6.87657 1.99958,2.12328 4.34196,3.80451 6.47636,5.79223 2.06868,1.92652 3.32652,3.4936 4.95314,5.27434 1.15665,1.26625 3.11138,3.46608 4.96237,2.29186 1.86798,0.3984 2.01602,-2.55506 3.26335,-4.00152 1.10724,-1.28399 2.01955,-2.24147 2.56688,-3.61396 z"
       style="color:#000000;font-style:normal;font-variant:normal;font-weight:normal;font-stretch:normal;font-size:medium;line-height:normal;font-family:sans-serif;font-variant-ligatures:normal;font-variant-position:normal;font-variant-caps:normal;font-variant-numeric:normal;font-variant-alternates:normal;font-feature-settings:normal;text-indent:0;text-align:start;text-decoration:none;text-decoration-line:none;text-decoration-style:solid;text-decoration-color:#000000;letter-spacing:normal;word-spacing:normal;text-transform:none;writing-mode:lr-tb;direction:ltr;text-orientation:mixed;dominant-baseline:auto;baseline-shift:baseline;text-anchor:start;white-space:normal;shape-padding:0;clip-rule:nonzero;display:inline;overflow:visible;visibility:visible;opacity:1;isolation:auto;mix-blend-mode:normal;color-interpolation:sRGB;color-interpolation-filters:linearRGB;solid-color:#000000;solid-opacity:1;vector-effect:none;fill:#000000;fill-opacity:1;fill-rule:nonzero;stroke:none;stroke-width:6;stroke-linecap:round;stroke-linejoin:round;stroke-miterlimit:4;stroke-dasharray:none;stroke-dashoffset:0;stroke-opacity:1;color-rendering:auto;image-rendering:auto;shape-rendering:auto;text-rendering:auto;enable-background:accumulate" />
    <g
       id="g55"
       transform="matrix(1.4036859,0,0,0.73650232,743.39543,315.40554)">
      <rect
         style="opacity:1;vector-effect:none;fill:#4d4d4d;fill-opacity:1;stroke:none;stroke-width:1.5;stroke-linecap:round;stroke-linejoin:round;stroke-miterlimit:4;stroke-dasharray:none;stroke-dashoffset:0;stroke-opacity:1"
         id="rect51"
         width="108.09583"
         height="60.564331"
         x="91.396637"
         y="169.05856" />
      <path
         style="display:inline;opacity:1;fill:#b7d8c4;fill-opacity:1;fill-rule:nonzero;stroke:none;stroke-width:1.5;stroke-linecap:round;stroke-linejoin:round;stroke-miterlimit:4;stroke-dasharray:none;stroke-dashoffset:0;stroke-opacity:1"
         d="m 83.502834,156.25961 68.437026,4.28893 45.01868,1.7611 19.27947,0.37237 -1.29261,67.64047 -18.61137,-0.35948 -43.80439,-1.71524 -70.577776,-4.57223 z"
         id="path53"
         inkscape:connector-curvature="0"
         sodipodi:nodetypes="ccccccccc" />
    </g>
  </g>
  <g
     inkscape:groupmode="layer"
     id="layer3"
     inkscape:label="thumbtacks"
     style="display:none">
    <path
       style="fill:none;fill-rule:evenodd;stroke:#4476ee;stroke-width:8;stroke-linecap:round;stroke-linejoin:miter;stroke-miterlimit:4;stroke-dasharray:none;stroke-opacity:1"
       d="m 158.36606,312.23969 c 14.85758,-27.90241 33.88396,-44.64788 41.90618,-72.15906 6.77791,-23.24398 24.91916,-42.52439 38.00353,-67.76805 24.84348,-47.93053 32.24538,-41.42737 48.18715,-65.33527"
       id="path5967"
       inkscape:connector-curvature="0"
       sodipodi:nodetypes="cssc" />
    <path
       style="fill:none;fill-rule:evenodd;stroke:#4d4d4d;stroke-width:3.85424042;stroke-linecap:butt;stroke-linejoin:miter;stroke-miterlimit:4;stroke-dasharray:none;stroke-opacity:1"
       d="m 288.09211,106.33188 c -7.914,-15.521881 -8.77506,-14.981271 -12.40354,-20.176313"
       id="path5996"
       inkscape:connector-curvature="0"
       sodipodi:nodetypes="cc" />
    <path
       sodipodi:nodetypes="cc"
       inkscape:connector-curvature="0"
       id="path6151"
       d="m 288.09211,106.33188 c -7.914,-15.521881 -8.77506,-14.981271 -12.40354,-20.176313"
       style="fill:#808080;fill-rule:evenodd;stroke:#7d7d7d;stroke-width:2.5;stroke-linecap:butt;stroke-linejoin:miter;stroke-miterlimit:4;stroke-dasharray:none;stroke-opacity:1" />
    <path
       style="fill:none;fill-rule:evenodd;stroke:#cecece;stroke-width:1;stroke-linecap:butt;stroke-linejoin:miter;stroke-miterlimit:4;stroke-dasharray:none;stroke-opacity:1"
       d="m 287.95493,106.31262 c -7.914,-15.521881 -8.77506,-14.981271 -12.40354,-20.176316"
       id="path6005"
       inkscape:connector-curvature="0"
       sodipodi:nodetypes="cc" />
    <circle
       style="opacity:1;vector-effect:none;fill:#ff2a2a;fill-opacity:1;stroke:none;stroke-width:3.15789461;stroke-linecap:round;stroke-linejoin:round;stroke-miterlimit:4;stroke-dasharray:none;stroke-dashoffset:0;stroke-opacity:1"
       id="path5987"
       cx="272.29001"
       cy="77.091827"
       r="16.262827" />
    <path
       style="opacity:1;vector-effect:none;fill:#ff9090;fill-opacity:1;stroke:none;stroke-width:2.8607862;stroke-linecap:round;stroke-linejoin:round;stroke-miterlimit:4;stroke-dasharray:none;stroke-dashoffset:0;stroke-opacity:1"
       d="m 257.68495,77.164282 c 0,-8.136673 6.59608,-14.732748 14.73276,-14.732748 8.13666,0 -14.73276,22.869419 -14.73276,14.732748 z"
       id="circle5989"
       inkscape:connector-curvature="0"
       sodipodi:nodetypes="sss" />
    <path
       sodipodi:nodetypes="sss"
       inkscape:connector-curvature="0"
       id="path5992"
       d="m 259.72986,75.263928 c 0,-6.143433 4.98024,-11.123668 11.12367,-11.123668 6.14343,0 -11.12367,17.2671 -11.12367,11.123668 z"
       style="opacity:1;vector-effect:none;fill:#ffc6c6;fill-opacity:1;stroke:none;stroke-width:2.1599791;stroke-linecap:round;stroke-linejoin:round;stroke-miterlimit:4;stroke-dasharray:none;stroke-dashoffset:0;stroke-opacity:1" />
    <path
       sodipodi:nodetypes="cssc"
       inkscape:connector-curvature="0"
       id="path6153"
       d="m 158.36606,312.23969 c 14.85758,-27.90241 33.88396,-44.64788 41.90618,-72.15906 6.77791,-23.24398 24.91916,-42.52439 38.00353,-67.76805 24.84348,-47.93053 32.24538,-41.42737 48.18715,-65.33527"
       style="fill:none;fill-rule:evenodd;stroke:#1450e0;stroke-width:3;stroke-linecap:round;stroke-linejoin:miter;stroke-miterlimit:4;stroke-dasharray:none;stroke-opacity:1" />
    <path
       sodipodi:nodetypes="cc"
       inkscape:connector-curvature="0"
       id="path6094"
       d="m 157.95546,314.09053 c -7.914,-15.52188 -8.77506,-14.98127 -12.40354,-20.17631"
       style="fill:none;fill-rule:evenodd;stroke:#4d4d4d;stroke-width:3.85424042;stroke-linecap:butt;stroke-linejoin:miter;stroke-miterlimit:4;stroke-dasharray:none;stroke-opacity:1" />
    <path
       style="fill:none;fill-rule:evenodd;stroke:#838383;stroke-width:2;stroke-linecap:butt;stroke-linejoin:miter;stroke-miterlimit:4;stroke-dasharray:none;stroke-opacity:1"
       d="m 157.88288,313.99471 c -7.914,-15.52189 -8.77506,-14.98128 -12.40354,-20.17632"
       id="path6096"
       inkscape:connector-curvature="0"
       sodipodi:nodetypes="cc" />
    <path
       sodipodi:nodetypes="cc"
       inkscape:connector-curvature="0"
       id="path6098"
       d="m 157.81828,314.07127 c -7.914,-15.52188 -8.77506,-14.98127 -12.40354,-20.17632"
       style="fill:none;fill-rule:evenodd;stroke:#cecece;stroke-width:1;stroke-linecap:butt;stroke-linejoin:miter;stroke-miterlimit:4;stroke-dasharray:none;stroke-opacity:1" />
    <circle
       r="16.262827"
       cy="284.85046"
       cx="142.15335"
       id="circle6100"
       style="opacity:1;vector-effect:none;fill:#ff2a2a;fill-opacity:1;stroke:none;stroke-width:3.15789461;stroke-linecap:round;stroke-linejoin:round;stroke-miterlimit:4;stroke-dasharray:none;stroke-dashoffset:0;stroke-opacity:1" />
    <path
       sodipodi:nodetypes="sss"
       inkscape:connector-curvature="0"
       id="path6102"
       d="m 127.5483,284.92293 c 0,-8.13667 6.59608,-14.73275 14.73276,-14.73275 8.13666,0 -14.73276,22.86942 -14.73276,14.73275 z"
       style="opacity:1;vector-effect:none;fill:#ff9090;fill-opacity:1;stroke:none;stroke-width:2.8607862;stroke-linecap:round;stroke-linejoin:round;stroke-miterlimit:4;stroke-dasharray:none;stroke-dashoffset:0;stroke-opacity:1" />
    <path
       style="opacity:1;vector-effect:none;fill:#ffc6c6;fill-opacity:1;stroke:none;stroke-width:2.1599791;stroke-linecap:round;stroke-linejoin:round;stroke-miterlimit:4;stroke-dasharray:none;stroke-dashoffset:0;stroke-opacity:1"
       d="m 129.59321,283.02258 c 0,-6.14344 4.98024,-11.12367 11.12367,-11.12367 6.14343,0 -11.12367,17.2671 -11.12367,11.12367 z"
       id="path6104"
       inkscape:connector-curvature="0"
       sodipodi:nodetypes="sss" />
  </g>
</svg>
