<?xml version="1.0" encoding="UTF-8" standalone="no"?>
<!-- Created with Inkscape (http://www.inkscape.org/) -->

<svg
   xmlns:dc="http://purl.org/dc/elements/1.1/"
   xmlns:cc="http://creativecommons.org/ns#"
   xmlns:rdf="http://www.w3.org/1999/02/22-rdf-syntax-ns#"
   xmlns:svg="http://www.w3.org/2000/svg"
   xmlns="http://www.w3.org/2000/svg"
   xmlns:sodipodi="http://sodipodi.sourceforge.net/DTD/sodipodi-0.dtd"
   xmlns:inkscape="http://www.inkscape.org/namespaces/inkscape"
   width="1125"
   height="825"
   viewBox="0 0 1125 825.00001"
   id="svg4228"
   version="1.1"
   inkscape:version="0.91 r13725"
   sodipodi:docname="skill-color.svg">
  <defs
     id="defs4230">
    <filter
       inkscape:collect="always"
       style="color-interpolation-filters:sRGB"
       id="filter5446"
       x="-0.028470321"
       width="1.0569406"
       y="-0.061572256"
       height="1.1231445">
      <feGaussianBlur
         inkscape:collect="always"
         stdDeviation="4.4484877"
         id="feGaussianBlur5448" />
    </filter>
    <filter
       inkscape:collect="always"
       style="color-interpolation-filters:sRGB"
       id="filter5450"
       x="-0.028470321"
       width="1.0569406"
       y="-0.061572256"
       height="1.1231445">
      <feGaussianBlur
         inkscape:collect="always"
         stdDeviation="4.4484877"
         id="feGaussianBlur5452" />
    </filter>
    <filter
       inkscape:collect="always"
       style="color-interpolation-filters:sRGB"
       id="filter5454"
       x="-0.032500572"
       width="1.0650011"
       y="-0.061572256"
       height="1.1231445">
      <feGaussianBlur
         inkscape:collect="always"
         stdDeviation="4.4484877"
         id="feGaussianBlur5456" />
    </filter>
    <filter
       inkscape:collect="always"
       style="color-interpolation-filters:sRGB"
       id="filter5458"
       x="-0.028470321"
       width="1.0569406"
       y="-0.06157192"
       height="1.1231438">
      <feGaussianBlur
         inkscape:collect="always"
         stdDeviation="4.4484877"
         id="feGaussianBlur5460" />
    </filter>
    <filter
       inkscape:collect="always"
       style="color-interpolation-filters:sRGB"
       id="filter5462"
       x="-0.028470321"
       width="1.0569406"
       y="-0.06157192"
       height="1.1231438">
      <feGaussianBlur
         inkscape:collect="always"
         stdDeviation="4.4484877"
         id="feGaussianBlur5464" />
    </filter>
    <filter
       inkscape:collect="always"
       style="color-interpolation-filters:sRGB"
       id="filter5466"
       x="-0.028470321"
       width="1.0569406"
       y="-0.06157192"
       height="1.1231438">
      <feGaussianBlur
         inkscape:collect="always"
         stdDeviation="4.4484877"
         id="feGaussianBlur5468" />
    </filter>
    <filter
       inkscape:collect="always"
       style="color-interpolation-filters:sRGB"
       id="filter6226"
       x="-0.041460374"
       width="1.0829207"
       y="-0.031810521"
       height="1.063621">
      <feGaussianBlur
         inkscape:collect="always"
         stdDeviation="3.2822796"
         id="feGaussianBlur6228" />
    </filter>
    <filter
       inkscape:collect="always"
       style="color-interpolation-filters:sRGB"
       id="filter6248"
       x="-0.025871721"
       width="1.0517434"
       y="-0.059159997"
       height="1.11832">
      <feGaussianBlur
         inkscape:collect="always"
         stdDeviation="6.0367348"
         id="feGaussianBlur6250" />
    </filter>
  </defs>
  <sodipodi:namedview
     id="base"
     pagecolor="#ffffff"
     bordercolor="#666666"
     borderopacity="1.0"
     inkscape:pageopacity="0.0"
     inkscape:pageshadow="2"
     inkscape:zoom="1.4"
     inkscape:cx="325.84142"
     inkscape:cy="288.69094"
     inkscape:document-units="px"
     inkscape:current-layer="layer1"
     showgrid="false"
     inkscape:window-width="1920"
     inkscape:window-height="1017"
     inkscape:window-x="-8"
     inkscape:window-y="-8"
     inkscape:window-maximized="1"
     units="px"
     showguides="true"
     inkscape:guide-bbox="true">
    <sodipodi:guide
       position="55.892857,787.85715"
       orientation="0,1"
       id="guide4857" />
    <sodipodi:guide
       position="74.285714,750.00001"
       orientation="0,1"
       id="guide4859" />
    <sodipodi:guide
       position="35.860415,802.31367"
       orientation="1,0"
       id="guide4861" />
    <sodipodi:guide
       position="73.362329,798.5256"
       orientation="1,0"
       id="guide4863" />
    <sodipodi:guide
       position="1087.3029,717.08205"
       orientation="1,0"
       id="guide4865" />
    <sodipodi:guide
       position="1049.9273,724.02685"
       orientation="1,0"
       id="guide4867" />
    <sodipodi:guide
       position="1010.1525,38.00699"
       orientation="0,1"
       id="guide4869" />
    <sodipodi:guide
       position="1022.1481,75.761442"
       orientation="0,1"
       id="guide4871" />
    <sodipodi:guide
       position="584.87832,652.55855"
       orientation="0,1"
       id="guide5476" />
    <sodipodi:guide
       position="526.42857,427.85715"
       orientation="1,0"
       id="guide6252" />
    <sodipodi:guide
       position="150.71428,441.42857"
       orientation="1,0"
       id="guide6254" />
  </sodipodi:namedview>
  <metadata
     id="metadata4233">
    <rdf:RDF>
      <cc:Work
         rdf:about="">
        <dc:format>image/svg+xml</dc:format>
        <dc:type
           rdf:resource="http://purl.org/dc/dcmitype/StillImage" />
        <dc:title />
      </cc:Work>
    </rdf:RDF>
  </metadata>
  <g
     inkscape:label="Layer 1"
     inkscape:groupmode="layer"
     id="layer1"
     transform="translate(0,-227.36216)">
    <rect
       ry="48.558155"
       y="170.05814"
       x="286.5"
       height="244.89798"
       width="560"
       id="rect6230"
       style="display:inline;opacity:1;fill:#000000;fill-opacity:1;fill-rule:nonzero;stroke:none;stroke-width:0.542;stroke-linecap:square;stroke-linejoin:round;stroke-miterlimit:4;stroke-dasharray:none;stroke-dashoffset:0;stroke-opacity:1;filter:url(#filter6248)" />
    <rect
       ry="15.170032"
       y="142.29146"
       x="863.74182"
       height="247.63728"
       width="190"
       id="rect6204"
       style="display:inline;opacity:1;fill:#000000;fill-opacity:1;fill-rule:nonzero;stroke:none;stroke-width:0.542;stroke-linecap:square;stroke-linejoin:round;stroke-miterlimit:4;stroke-dasharray:none;stroke-dashoffset:0;stroke-opacity:1;filter:url(#filter6226)" />
    <rect
       style="fill:#000000;fill-opacity:1;stroke:none;stroke-width:1.90770805;stroke-miterlimit:4;stroke-dasharray:none;stroke-dashoffset:0;stroke-opacity:1;filter:url(#filter5466)"
       id="rect5322"
       width="375"
       height="173.39674"
       x="586.1228"
       y="432.83374"
       ry="12.424081" />
    <rect
       ry="12.424013"
       y="428.79709"
       x="157.66783"
       height="173.3958"
       width="375"
       id="rect5324"
       style="fill:#000000;fill-opacity:1;stroke:none;stroke-width:1.91184115;stroke-miterlimit:4;stroke-dasharray:none;stroke-dashoffset:0;stroke-opacity:1;filter:url(#filter5446)" />
    <rect
       ry="12.424081"
       y="807.48236"
       x="584.72614"
       height="173.39674"
       width="375"
       id="rect5326"
       style="fill:#000000;fill-opacity:1;stroke:none;stroke-width:1.90770805;stroke-miterlimit:4;stroke-dasharray:none;stroke-dashoffset:0;stroke-opacity:1;filter:url(#filter5458)" />
    <rect
       ry="12.424081"
       y="617.19751"
       x="664.51489"
       height="173.39674"
       width="375"
       id="rect5328"
       style="fill:#000000;fill-opacity:1;stroke:none;stroke-width:1.90770805;stroke-miterlimit:4;stroke-dasharray:none;stroke-dashoffset:0;stroke-opacity:1;filter:url(#filter5462)" />
    <rect
       style="fill:#000000;fill-opacity:1;stroke:none;stroke-width:1.91184115;stroke-miterlimit:4;stroke-dasharray:none;stroke-dashoffset:0;stroke-opacity:1;filter:url(#filter5450)"
       id="rect5330"
       width="375"
       height="173.3958"
       x="78.940781"
       y="617.19696"
       ry="12.424013" />
    <rect
       style="fill:#000000;fill-opacity:1;stroke:none;stroke-width:1.91184115;stroke-miterlimit:4;stroke-dasharray:none;stroke-dashoffset:0;stroke-opacity:1;filter:url(#filter5454)"
       id="rect5332"
       width="328.49792"
       height="173.3958"
       x="203.76341"
       y="806.54834"
       ry="12.424013"
       transform="matrix(1.1222338,0,0,1,-65.060348,0)" />
    <rect
       style="display:inline;opacity:1;fill:#d9c787;fill-opacity:1;fill-rule:nonzero;stroke:none;stroke-width:0.542;stroke-linecap:square;stroke-linejoin:round;stroke-miterlimit:4;stroke-dasharray:none;stroke-dashoffset:0;stroke-opacity:1"
       id="rect4160-8"
       width="560"
       height="244.89798"
       x="282.5"
       y="166.05814"
       ry="48.558155" />
    <rect
       ry="12.424081"
       y="426.83374"
       x="580.1228"
       height="173.39674"
       width="375"
       id="rect4231"
       style="fill:#d9c787;fill-opacity:1;stroke:none;stroke-width:1.90770805;stroke-miterlimit:4;stroke-dasharray:none;stroke-dashoffset:0;stroke-opacity:1" />
    <rect
       style="fill:#d9c787;fill-opacity:1;stroke:none;stroke-width:1.91184115;stroke-miterlimit:4;stroke-dasharray:none;stroke-dashoffset:0;stroke-opacity:1"
       id="rect4244"
       width="375"
       height="173.3958"
       x="151.66783"
       y="422.79709"
       ry="12.424013" />
    <rect
       style="fill:#d9c787;fill-opacity:1;stroke:none;stroke-width:1.90770805;stroke-miterlimit:4;stroke-dasharray:none;stroke-dashoffset:0;stroke-opacity:1"
       id="rect4303"
       width="375"
       height="173.39674"
       x="578.72614"
       y="801.48236"
       ry="12.424081" />
    <rect
       style="fill:#d9c787;fill-opacity:1;stroke:none;stroke-width:1.90770805;stroke-miterlimit:4;stroke-dasharray:none;stroke-dashoffset:0;stroke-opacity:1"
       id="rect4305"
       width="375"
       height="173.39674"
       x="658.51489"
       y="611.19751"
       ry="12.424081" />
    <rect
       ry="12.424013"
       y="611.19696"
       x="72.940781"
       height="173.3958"
       width="375"
       id="rect4307"
       style="fill:#d9c787;fill-opacity:1;stroke:none;stroke-width:1.91184115;stroke-miterlimit:4;stroke-dasharray:none;stroke-dashoffset:0;stroke-opacity:1" />
    <rect
       ry="12.424013"
       y="800.54834"
       x="150.62056"
       height="173.3958"
       width="375.64078"
       id="rect4309"
       style="fill:#d9c787;fill-opacity:1;stroke:none;stroke-width:1.91184115;stroke-miterlimit:4;stroke-dasharray:none;stroke-dashoffset:0;stroke-opacity:1" />
    <path
       style="fill:#2c9087;fill-opacity:1;stroke:none;stroke-width:0.54535615;stroke-miterlimit:4;stroke-dasharray:none;stroke-dashoffset:0;stroke-opacity:1"
       d="m 482.19946,540.03592 c -6.90766,0 -12.4689,5.56124 -12.4689,12.46889 l 0,32.28713 c 0,6.90766 5.56124,12.4689 12.4689,12.4689 l 32.28918,0 c 6.90765,0 12.46888,-5.56124 12.46888,-12.4689 l 0,-32.28713 c 0,-6.90765 -5.56123,-12.46889 -12.46888,-12.46889 l -32.28918,0 z m 4.19318,5.00888 a 6.7576457,6.7576457 0 0 1 6.75705,6.7591 6.7576457,6.7576457 0 0 1 -6.75705,6.75706 6.7576457,6.7576457 0 0 1 -6.75911,-6.75706 6.7576457,6.7576457 0 0 1 6.75911,-6.7591 z m 24.84761,0 a 6.7576457,6.7576457 0 0 1 6.75705,6.7591 6.7576457,6.7576457 0 0 1 -6.75705,6.75706 6.7576457,6.7576457 0 0 1 -6.75911,-6.75706 6.7576457,6.7576457 0 0 1 6.75911,-6.7591 z m -24.84761,16.63543 a 6.7576457,6.7576457 0 0 1 6.75705,6.75705 6.7576457,6.7576457 0 0 1 -6.75705,6.75707 6.7576457,6.7576457 0 0 1 -6.75911,-6.75707 6.7576457,6.7576457 0 0 1 6.75911,-6.75705 z m 24.84761,0 a 6.7576457,6.7576457 0 0 1 6.75705,6.75705 6.7576457,6.7576457 0 0 1 -6.75705,6.75707 6.7576457,6.7576457 0 0 1 -6.75911,-6.75707 6.7576457,6.7576457 0 0 1 6.75911,-6.75705 z m -24.84761,16.90801 a 6.7576457,6.7576457 0 0 1 6.75705,6.75706 6.7576457,6.7576457 0 0 1 -6.75705,6.75706 6.7576457,6.7576457 0 0 1 -6.75911,-6.75706 6.7576457,6.7576457 0 0 1 6.75911,-6.75706 z m 24.84761,0 a 6.7576457,6.7576457 0 0 1 6.75705,6.75706 6.7576457,6.7576457 0 0 1 -6.75705,6.75706 6.7576457,6.7576457 0 0 1 -6.75911,-6.75706 6.7576457,6.7576457 0 0 1 6.75911,-6.75706 z"
       id="rect4162-4"
       inkscape:connector-curvature="0" />
    <path
       style="fill:#2c9087;fill-opacity:1;stroke:none;stroke-width:0.54535615;stroke-miterlimit:4;stroke-dasharray:none;stroke-dashoffset:0;stroke-opacity:1"
       d="m 403.14509,665.27 c -6.90765,0 -12.4689,5.55919 -12.4689,12.46683 l 0,32.28919 c 0,6.90766 5.56125,12.46889 12.4689,12.46889 l 32.28713,0 c 6.90766,0 12.46889,-5.56123 12.46889,-12.46889 l 0,-32.28919 c 0,-6.90764 -5.56123,-12.46683 -12.46889,-12.46683 l -32.28713,0 z m 3.62754,7.38009 a 6.7576452,6.7576452 0 0 1 6.75705,6.75705 6.7576452,6.7576452 0 0 1 -6.75705,6.75911 6.7576452,6.7576452 0 0 1 -6.75707,-6.75911 6.7576452,6.7576452 0 0 1 6.75707,-6.75705 z m 25.03,0 a 6.7576452,6.7576452 0 0 1 6.75911,6.75705 6.7576452,6.7576452 0 0 1 -6.75911,6.75911 6.7576452,6.7576452 0 0 1 -6.75705,-6.75911 6.7576452,6.7576452 0 0 1 6.75705,-6.75705 z m -12.51398,14.61262 a 6.7576452,6.7576452 0 0 1 6.75706,6.75706 6.7576452,6.7576452 0 0 1 -6.75706,6.75706 6.7576452,6.7576452 0 0 1 -6.75911,-6.75706 6.7576452,6.7576452 0 0 1 6.75911,-6.75706 z m 12.51398,13.78465 a 6.7576452,6.7576452 0 0 1 6.75911,6.75705 6.7576452,6.7576452 0 0 1 -6.75911,6.75705 6.7576452,6.7576452 0 0 1 -6.75705,-6.75705 6.7576452,6.7576452 0 0 1 6.75705,-6.75705 z m -25.03,0.5513 a 6.7576452,6.7576452 0 0 1 6.75705,6.75705 6.7576452,6.7576452 0 0 1 -6.75705,6.75707 6.7576452,6.7576452 0 0 1 -6.75707,-6.75707 6.7576452,6.7576452 0 0 1 6.75707,-6.75705 z"
       id="rect4218"
       inkscape:connector-curvature="0" />
    <path
       style="fill:#2c9087;fill-opacity:1;stroke:none;stroke-width:0.54535615;stroke-miterlimit:4;stroke-dasharray:none;stroke-dashoffset:0;stroke-opacity:1"
       d="m 482.31277,800.06774 c -6.90765,0 -12.46889,5.55919 -12.46889,12.46685 l 0,32.28918 c 0,6.90766 5.56124,12.46889 12.46889,12.46889 l 32.28918,0 c 6.90765,0 12.4689,-5.56123 12.4689,-12.46889 l 0,-32.28918 c 0,-6.90766 -5.56125,-12.46685 -12.4689,-12.46685 l -32.28918,0 z m 3.62958,7.3801 a 6.7576457,6.7576457 0 0 1 6.75707,6.75706 6.7576457,6.7576457 0 0 1 -6.75707,6.75911 6.7576457,6.7576457 0 0 1 -6.7591,-6.75911 6.7576457,6.7576457 0 0 1 6.7591,-6.75706 z m 25.03002,0 a 6.7576457,6.7576457 0 0 1 6.75911,6.75706 6.7576457,6.7576457 0 0 1 -6.75911,6.75911 6.7576457,6.7576457 0 0 1 -6.75706,-6.75911 6.7576457,6.7576457 0 0 1 6.75706,-6.75706 z m 0,28.39727 a 6.7576457,6.7576457 0 0 1 6.75911,6.75705 6.7576457,6.7576457 0 0 1 -6.75911,6.75706 6.7576457,6.7576457 0 0 1 -6.75706,-6.75706 6.7576457,6.7576457 0 0 1 6.75706,-6.75705 z m -25.03002,0.5513 a 6.7576457,6.7576457 0 0 1 6.75707,6.75705 6.7576457,6.7576457 0 0 1 -6.75707,6.75706 6.7576457,6.7576457 0 0 1 -6.7591,-6.75706 6.7576457,6.7576457 0 0 1 6.7591,-6.75705 z"
       id="rect4237"
       inkscape:connector-curvature="0" />
    <path
       style="fill:#2c9087;fill-opacity:1;stroke:none;stroke-width:0.54535615;stroke-miterlimit:4;stroke-dasharray:none;stroke-dashoffset:0;stroke-opacity:1"
       d="m 590.91802,801.24504 c -6.90765,0 -12.46889,5.56124 -12.46889,12.46889 l 0,32.28713 c 0,6.90765 5.56124,12.46889 12.46889,12.46889 l 32.28713,0 c 6.90765,0 12.4689,-5.56124 12.4689,-12.46889 l 0,-32.28713 c 0,-6.90765 -5.56125,-12.46889 -12.4689,-12.46889 l -32.28713,0 z m 28.31734,6.70787 a 6.7576457,6.7576457 0 0 1 6.75705,6.75706 6.7576457,6.7576457 0 0 1 -6.75705,6.75911 6.7576457,6.7576457 0 0 1 -6.75706,-6.75911 6.7576457,6.7576457 0 0 1 6.75706,-6.75706 z m -12.51603,14.61262 a 6.7576457,6.7576457 0 0 1 6.7591,6.75706 6.7576457,6.7576457 0 0 1 -6.7591,6.75911 6.7576457,6.7576457 0 0 1 -6.75706,-6.75911 6.7576457,6.7576457 0 0 1 6.75706,-6.75706 z m -12.51399,14.33595 a 6.7576457,6.7576457 0 0 1 6.75707,6.75705 6.7576457,6.7576457 0 0 1 -6.75707,6.75706 6.7576457,6.7576457 0 0 1 -6.7591,-6.75706 6.7576457,6.7576457 0 0 1 6.7591,-6.75705 z"
       id="rect4256"
       inkscape:connector-curvature="0" />
    <path
       style="fill:#2c9087;fill-opacity:1;stroke:none;stroke-width:0.54535615;stroke-miterlimit:4;stroke-dasharray:none;stroke-dashoffset:0;stroke-opacity:1"
       d="m 670.22034,668.45895 c -6.90765,0 -12.46889,5.56124 -12.46889,12.46889 l 0,32.28713 c 0,6.90766 5.56124,12.46889 12.46889,12.46889 l 32.28714,0 c 6.90764,0 12.46889,-5.56123 12.46889,-12.46889 l 0,-32.28713 c 0,-6.90765 -5.56125,-12.46889 -12.46889,-12.46889 l -32.28714,0 z m 28.37062,7.22024 a 6.7576457,6.7576457 0 0 1 6.75706,6.7591 6.7576457,6.7576457 0 0 1 -6.75706,6.75706 6.7576457,6.7576457 0 0 1 -6.75705,-6.75706 6.7576457,6.7576457 0 0 1 6.75705,-6.7591 z m -25.03206,28.94857 a 6.7576457,6.7576457 0 0 1 6.75911,6.75705 6.7576457,6.7576457 0 0 1 -6.75911,6.75705 6.7576457,6.7576457 0 0 1 -6.75705,-6.75705 6.7576457,6.7576457 0 0 1 6.75705,-6.75705 z"
       id="rect4270"
       inkscape:connector-curvature="0" />
    <path
       style="fill:#2c9087;fill-opacity:1;stroke:none;stroke-width:0.54535615;stroke-miterlimit:4;stroke-dasharray:none;stroke-dashoffset:0;stroke-opacity:1"
       d="m 592.13606,543.15725 c -6.90766,0 -12.46889,5.56123 -12.46889,12.46888 l 0,32.28714 c 0,6.90765 5.56123,12.46889 12.46889,12.46889 l 32.28713,0 c 6.90765,0 12.4689,-5.56124 12.4689,-12.46889 l 0,-32.28714 c 0,-6.90765 -5.56125,-12.46888 -12.4689,-12.46888 l -32.28713,0 z m 16.14357,21.85539 a 6.7576457,6.7576457 0 0 1 6.75705,6.75707 6.7576457,6.7576457 0 0 1 -6.75705,6.7591 6.7576457,6.7576457 0 0 1 -6.75707,-6.7591 6.7576457,6.7576457 0 0 1 6.75707,-6.75707 z"
       id="rect4136"
       inkscape:connector-curvature="0" />
    <rect
       style="display:inline;opacity:1;fill:#d9c787;fill-opacity:1;fill-rule:nonzero;stroke:none;stroke-width:0.542;stroke-linecap:square;stroke-linejoin:round;stroke-miterlimit:4;stroke-dasharray:none;stroke-dashoffset:0;stroke-opacity:1"
       id="rect11917"
       width="190"
       height="247.63728"
       x="859.74182"
       y="138.29146"
       ry="15.170032" />
  </g>
</svg>
