<?xml version="1.0" encoding="UTF-8" standalone="no"?>
<!-- Created with Inkscape (http://www.inkscape.org/) -->

<svg
   xmlns:dc="http://purl.org/dc/elements/1.1/"
   xmlns:cc="http://creativecommons.org/ns#"
   xmlns:rdf="http://www.w3.org/1999/02/22-rdf-syntax-ns#"
   xmlns:svg="http://www.w3.org/2000/svg"
   xmlns="http://www.w3.org/2000/svg"
   xmlns:sodipodi="http://sodipodi.sourceforge.net/DTD/sodipodi-0.dtd"
   xmlns:inkscape="http://www.inkscape.org/namespaces/inkscape"
   width="825"
   height="1125"
   viewBox="0 0 825 1125"
   version="1.1"
   id="svg24"
   inkscape:version="0.92.0 r15299"
   sodipodi:docname="special_events_hounds.svg">
  <defs
     id="defs18" />
  <sodipodi:namedview
     id="base"
     pagecolor="#ffffff"
     bordercolor="#666666"
     borderopacity="1.0"
     inkscape:pageopacity="0.0"
     inkscape:pageshadow="2"
     inkscape:zoom="0.9899495"
     inkscape:cx="442.27172"
     inkscape:cy="624.56507"
     inkscape:document-units="px"
     inkscape:current-layer="layer1"
     showgrid="false"
     units="px"
     showguides="false"
     inkscape:guide-bbox="true"
     inkscape:window-width="1920"
     inkscape:window-height="1017"
     inkscape:window-x="1672"
     inkscape:window-y="134"
     inkscape:window-maximized="1"
     inkscape:snap-global="false" />
  <metadata
     id="metadata21">
    <rdf:RDF>
      <cc:Work
         rdf:about="">
        <dc:format>image/svg+xml</dc:format>
        <dc:type
           rdf:resource="http://purl.org/dc/dcmitype/StillImage" />
        <dc:title></dc:title>
      </cc:Work>
    </rdf:RDF>
  </metadata>
  <g
     inkscape:label="Layer 1"
     inkscape:groupmode="layer"
     id="layer1"
     transform="translate(0,221.28127)">
    <g
       class=""
       id="g4535"
       transform="matrix(0.16510497,-0.03544699,0.03544699,0.16510497,613.76225,-11.501768)"
       style="fill:#f40000;fill-opacity:1;stroke-width:5.92181206">
      <path
         style="fill:#f40000;fill-opacity:1;stroke-width:5.92181206"
         inkscape:connector-curvature="0"
         d="m 425.344,22.22 c -9.027,0.085 -18.7,5.826 -24.344,19.405 -11.143,26.803 -31.93,59.156 -58.563,93.47 10.57,8.694 19.85,18.92 27.5,30.31 35.1,-26.57 68.882,-46.81 98.125,-56.75 44.6,-15.16 12.02,-69.72 -35.343,-35.343 26.91,-27.842 11.107,-51.27 -7.376,-51.093 z M 84.124,22.25 C 65.624,22.628 46.52,46.212 67.781,72.125 31.523,38.635 -0.802,85.48 37.095,102.813 c 28.085,12.844 62.54,35.66 99.062,64.343 8.125,-12.5 18.207,-23.61 29.78,-32.937 -26.782,-35.743 -48.44,-69.835 -61.78,-98.47 -4.515,-9.69 -12.22,-13.66 -20.03,-13.5 z m 169.5,99.688 c -67.104,0 -121.31,54.21 -121.31,121.312 0,44.676 24.04,83.613 59.905,104.656 v 56.406 h 18.718 v -47.468 c 5.203,1.95 10.576,3.552 16.093,4.78 v 42.688 h 18.69 v -40.03 c 2.614,0.167 5.247,0.25 7.905,0.25 2.637,0 5.25,-0.086 7.844,-0.25 v 40.03 h 18.686 v -42.687 c 5.52,-1.226 10.89,-2.834 16.094,-4.78 v 47.467 h 18.688 V 347.97 c 35.92,-21.03 60,-60.003 60,-104.72 0,-67.105 -54.208,-121.313 -121.313,-121.313 z m -66.874,88.218 c 19.88,0 36,16.12 36,36 0,19.88 -16.12,36 -36,36 -19.88,0 -36,-16.12 -36,-36 0,-19.88 16.12,-36 36,-36 z m 133.563,0 c 19.878,0 36,16.12 36,36 0,19.88 -16.122,36 -36,36 -19.88,0 -36,-16.12 -36,-36 0,-19.88 16.12,-36 36,-36 z m -66.72,52.344 29.938,48.188 H 223.657 L 253.595,262.5 Z m -107.28,70.563 c -40.263,32.472 -78.546,58.41 -109.22,72.437 -37.896,17.334 -5.57,64.146 30.688,30.656 -30.237,36.854 21.167,69.05 36.376,36.406 15.072,-32.352 40.727,-71.7 72.438,-112.5 -11.352,-7.506 -21.564,-16.603 -30.28,-27 z m 213.156,1.718 c -8.155,9.415 -17.542,17.72 -27.908,24.69 31.846,39.39 56.82,76.862 69.438,107.217 17.203,41.383 71.774,9.722 31.72,-31.718 47.363,34.376 79.94,-20.185 35.342,-35.345 -32.146,-10.926 -69.758,-34.3 -108.593,-64.844 z"
         id="path4533" />
    </g>
    <g
       style="fill:#f40000;fill-opacity:1;stroke-width:3.2077558"
       transform="matrix(0.30128948,0.08005774,-0.08005774,0.30128948,-1.2372475,-67.963531)"
       id="g4537"
       class="">
      <path
         id="path4535"
         d="m 676.18894,41.118869 c -4.88979,0.04604 -10.1295,3.155856 -13.18677,10.511394 -6.036,14.518779 -17.296,32.043908 -31.72269,50.631277 5.72561,4.70941 10.75244,10.24868 14.89633,16.41847 19.01314,-14.39256 37.31234,-25.356266 53.15282,-30.740613 24.15915,-8.211942 6.51106,-37.766266 -19.14476,-19.144767 14.57674,-15.081589 6.01649,-27.772181 -3.99547,-27.676303 z m -184.8337,0.01625 c -10.02116,0.204757 -20.36951,12.979852 -8.85275,27.016531 -19.64041,-18.141025 -37.15037,7.234201 -16.62214,16.623224 15.21322,6.9574 33.87697,19.316486 53.66038,34.853626 4.40119,-6.77106 9.86246,-12.78918 16.13138,-17.84147 -14.50741,-19.361443 -26.23922,-37.828562 -33.46529,-53.339707 -2.44571,-5.248926 -6.61939,-7.399415 -10.84995,-7.312745 z m 91.81558,53.999478 c -36.34922,0 -65.71178,29.364733 -65.71178,65.712873 0,24.20031 13.0221,45.29189 32.44963,56.69056 v 30.55428 h 10.13925 v -25.7127 c 2.81839,1.05629 5.72886,1.92407 8.71734,2.58926 v 23.12344 h 10.12409 v -21.68364 c 1.41596,0.0905 2.84222,0.13542 4.28202,0.13542 1.42842,0 2.84384,-0.0466 4.24897,-0.13542 v 21.68364 h 10.12192 v -23.1229 c 2.9901,-0.66411 5.89895,-1.53514 8.71788,-2.58925 v 25.71215 h 10.12301 V 217.5727 c 19.45731,-11.39163 32.50109,-32.50271 32.50109,-56.72523 0,-36.34976 -29.36366,-65.713415 -65.71342,-65.713415 z m -36.22463,47.786353 c 10.7687,0 19.50066,8.73196 19.50066,19.50065 0,10.7687 -8.73196,19.50066 -19.50066,19.50066 -10.76869,0 -19.50065,-8.73196 -19.50065,-19.50066 0,-10.76869 8.73196,-19.50065 19.50065,-19.50065 z m 72.34905,0 c 10.76761,0 19.50066,8.73196 19.50066,19.50065 0,10.7687 -8.73305,19.50066 -19.50066,19.50066 -10.76869,0 -19.50065,-8.73196 -19.50065,-19.50066 0,-10.76869 8.73196,-19.50065 19.50065,-19.50065 z m -36.14121,28.35395 16.21696,26.10271 h -32.43284 l 16.21696,-26.10271 z m -58.11195,38.22291 c -21.80985,17.58959 -42.54717,31.63981 -59.16281,39.23802 -20.52769,9.38957 -3.01719,34.74692 16.62322,16.60589 -16.37892,19.96325 11.46584,37.40334 19.70433,19.72058 8.16427,-17.52459 22.06119,-38.8388 39.23856,-60.93954 -6.1492,-4.06589 -11.68089,-8.9936 -16.40221,-14.6255 z m 115.46337,0.93061 c -4.41744,5.09996 -9.50223,9.59866 -15.11734,13.3742 17.2505,21.33696 30.77854,41.63498 37.61352,58.07782 9.3186,22.41655 38.87888,5.26626 17.18224,-17.18116 25.65582,18.62096 43.30228,-10.93391 19.14422,-19.14585 -17.413,-5.91845 -37.78685,-18.57979 -58.82318,-35.12501 z"
         inkscape:connector-curvature="0"
         style="fill:#f40000;fill-opacity:1;stroke-width:3.2077558" />
    </g>
    <path
       inkscape:connector-curvature="0"
       id="path4600"
       style="font-style:italic;font-variant:normal;font-weight:normal;font-stretch:normal;font-size:32px;line-height:30.54940224px;font-family:'Archivo Narrow';-inkscape-font-specification:'Archivo Narrow Italic';text-align:center;letter-spacing:0px;word-spacing:0px;writing-mode:lr-tb;text-anchor:middle;fill:#000000;fill-opacity:1;stroke:none;stroke-width:1px;stroke-linecap:butt;stroke-linejoin:miter;stroke-opacity:1"
       d="m 342.72677,-16.113772 c -4.288,0 -6.816,2.24 -6.816,6.2720001 0,6.464 9.504,5.152 9.504,9.98399995 0,3.10400005 -2.816,3.87200005 -4.544,3.87200005 -2.624,0 -4.288,-1.152 -4.288,-3.77600005 0,-0.448 0.064,-0.96 0.16,-1.50399995 h -2.912 c -0.096,0.51199995 -0.096,0.99199995 -0.096,1.47199995 0,4.09600005 2.72,6.40000005 6.912,6.40000005 6.176,0 7.712,-3.936 7.712,-6.88000005 0,-6.81599995 -9.536,-5.31199995 -9.536,-9.88800005 0,-3.04 2.624,-3.36 3.744,-3.36 1.792,0 4.032,0.576 4.032,4.2240001 h 2.912 c 0,-3.8720001 -1.728,-6.8160001 -6.784,-6.8160001 z" />
    <path
       inkscape:connector-curvature="0"
       id="path4602"
       style="font-style:italic;font-variant:normal;font-weight:normal;font-stretch:normal;font-size:32px;line-height:30.54940224px;font-family:'Archivo Narrow';-inkscape-font-specification:'Archivo Narrow Italic';text-align:center;letter-spacing:0px;word-spacing:0px;writing-mode:lr-tb;text-anchor:middle;fill:#000000;fill-opacity:1;stroke:none;stroke-width:1px;stroke-linecap:butt;stroke-linejoin:miter;stroke-opacity:1"
       d="m 359.45877,-10.993772 c -1.536,0 -2.944,0.832 -4.064,2.6560001 v -2.2720001 h -2.08 l -3.168,22.656 h 2.624 l 1.088,-7.6799999 c 0.736,1.6 1.952,2.24 3.36,2.24 3.136,0 6.496,-3.648 6.496,-11.36 0,-4.32 -1.792,-6.2400001 -4.256,-6.2400001 z m -0.8,2.3360001 c 1.568,0 2.368,1.216 2.368,3.648 0,2.752 -0.768,9.28 -4.192,9.28 -1.568,0 -2.336,-1.216 -2.336,-3.61600005 0,-2.55999995 0.832,-9.31199995 4.16,-9.31199995 z" />
    <path
       inkscape:connector-curvature="0"
       id="path4604"
       style="font-style:italic;font-variant:normal;font-weight:normal;font-stretch:normal;font-size:32px;line-height:30.54940224px;font-family:'Archivo Narrow';-inkscape-font-specification:'Archivo Narrow Italic';text-align:center;letter-spacing:0px;word-spacing:0px;writing-mode:lr-tb;text-anchor:middle;fill:#000000;fill-opacity:1;stroke:none;stroke-width:1px;stroke-linecap:butt;stroke-linejoin:miter;stroke-opacity:1"
       d="m 372.99727,-10.993772 c -5.824,0 -7.136,6.6880001 -7.136,11.48800005 0,4.19200005 1.984,6.11200005 5.44,6.11200005 3.584,0 5.696,-2.816 6.208,-6.08000005 h -2.656 c -0.288,2.01600005 -1.664,3.74400005 -3.552,3.74400005 -1.824,0 -2.72,-1.312 -2.72,-4.00000005 0,-0.416 0.032,-1.024 0.096,-1.69599995 h 9.248 c 0.192,-1.216 0.256,-2.432 0.256,-3.52 0,-4.128 -1.824,-6.0480001 -5.184,-6.0480001 z m 0,2.3360001 c 1.632,0 2.464,1.28 2.464,3.744 0,0.288 0,0.736 -0.032,1.152 h -6.432 c 0.512,-2.432 1.664,-4.896 4,-4.896 z" />
    <path
       inkscape:connector-curvature="0"
       id="path4606"
       style="font-style:italic;font-variant:normal;font-weight:normal;font-stretch:normal;font-size:32px;line-height:30.54940224px;font-family:'Archivo Narrow';-inkscape-font-specification:'Archivo Narrow Italic';text-align:center;letter-spacing:0px;word-spacing:0px;writing-mode:lr-tb;text-anchor:middle;fill:#000000;fill-opacity:1;stroke:none;stroke-width:1px;stroke-linecap:butt;stroke-linejoin:miter;stroke-opacity:1"
       d="m 386.98377,-10.993772 c -5.472,0 -6.688,6.5280001 -6.688,11.48800005 0,4.19200005 1.984,6.11200005 5.152,6.11200005 3.424,0 5.408,-3.104 5.824,-6.52800005 h -2.624 c -0.256,2.20800005 -1.472,4.19200005 -3.264,4.19200005 -1.536,0 -2.368,-1.472 -2.368,-4.00000005 0,-1.79199995 0.448,-8.92799995 3.968,-8.92799995 1.408,0 2.08,1.28 2.08,3.744 v 0.544 h 2.72 v -0.576 c 0,-4.128 -1.664,-6.0480001 -4.8,-6.0480001 z" />
    <path
       inkscape:connector-curvature="0"
       id="path4608"
       style="font-style:italic;font-variant:normal;font-weight:normal;font-stretch:normal;font-size:32px;line-height:30.54940224px;font-family:'Archivo Narrow';-inkscape-font-specification:'Archivo Narrow Italic';text-align:center;letter-spacing:0px;word-spacing:0px;writing-mode:lr-tb;text-anchor:middle;fill:#000000;fill-opacity:1;stroke:none;stroke-width:1px;stroke-linecap:butt;stroke-linejoin:miter;stroke-opacity:1"
       d="m 397.90077,-10.609772 h -2.624 l -2.336,16.8320001 h 2.592 z m 0.864,-6.304 h -2.624 l -0.416,3.136 h 2.624 z" />
    <path
       inkscape:connector-curvature="0"
       id="path4610"
       style="font-style:italic;font-variant:normal;font-weight:normal;font-stretch:normal;font-size:32px;line-height:30.54940224px;font-family:'Archivo Narrow';-inkscape-font-specification:'Archivo Narrow Italic';text-align:center;letter-spacing:0px;word-spacing:0px;writing-mode:lr-tb;text-anchor:middle;fill:#000000;fill-opacity:1;stroke:none;stroke-width:1px;stroke-linecap:butt;stroke-linejoin:miter;stroke-opacity:1"
       d="m 405.79327,-10.993772 c -3.136,0 -6.496,3.6480001 -6.496,11.36000005 0,4.32000005 1.792,6.24000005 4.256,6.24000005 1.504,0 2.656,-0.832 3.872,-2.656 0.032,1.888 0.96,2.656 2.304,2.656 0.832,0 1.472,-0.288 1.792,-0.512 l 0.256,-1.824 h -1.024 c -0.416,0 -0.768,-0.256 -0.768,-0.896 0,-0.384 1.952,-13.9840001 1.952,-13.9840001 h -2.08 l -0.576,2.3360001 c -0.64,-2.0800001 -1.952,-2.7200001 -3.488,-2.7200001 z m 0.384,2.3360001 c 1.472,0 2.208,1.216 2.208,3.616 0,2.56 -0.992,9.312 -4.032,9.312 -1.568,0 -2.368,-1.216 -2.368,-3.64800005 0,-2.75199995 0.768,-9.27999995 4.192,-9.27999995 z" />
    <path
       inkscape:connector-curvature="0"
       id="path4612"
       style="font-style:italic;font-variant:normal;font-weight:normal;font-stretch:normal;font-size:32px;line-height:30.54940224px;font-family:'Archivo Narrow';-inkscape-font-specification:'Archivo Narrow Italic';text-align:center;letter-spacing:0px;word-spacing:0px;writing-mode:lr-tb;text-anchor:middle;fill:#000000;fill-opacity:1;stroke:none;stroke-width:1px;stroke-linecap:butt;stroke-linejoin:miter;stroke-opacity:1"
       d="m 419.13977,-16.913772 h -2.624 l -3.2,23.1360001 h 2.592 z" />
    <path
       inkscape:connector-curvature="0"
       id="path4614"
       style="font-style:italic;font-variant:normal;font-weight:normal;font-stretch:normal;font-size:32px;line-height:30.54940224px;font-family:'Archivo Narrow';-inkscape-font-specification:'Archivo Narrow Italic';text-align:center;letter-spacing:0px;word-spacing:0px;writing-mode:lr-tb;text-anchor:middle;fill:#000000;fill-opacity:1;stroke:none;stroke-width:1px;stroke-linecap:butt;stroke-linejoin:miter;stroke-opacity:1"
       d="m 440.74477,6.2222281 0.384,-2.56 h -10.912 l 1.024,-7.392 h 9.312 l 0.352,-2.56 h -9.312 l 0.96,-6.8800001 h 10.72 l 0.384,-2.56 h -13.536 l -3.104,21.9520001 z" />
    <path
       inkscape:connector-curvature="0"
       id="path4616"
       style="font-style:italic;font-variant:normal;font-weight:normal;font-stretch:normal;font-size:32px;line-height:30.54940224px;font-family:'Archivo Narrow';-inkscape-font-specification:'Archivo Narrow Italic';text-align:center;letter-spacing:0px;word-spacing:0px;writing-mode:lr-tb;text-anchor:middle;fill:#000000;fill-opacity:1;stroke:none;stroke-width:1px;stroke-linecap:butt;stroke-linejoin:miter;stroke-opacity:1"
       d="m 457.73277,-10.609772 h -2.816 l -5.376,13.0240001 h -0.128 l -1.728,-13.0240001 h -2.784 l 2.496,16.8320001 h 2.848 z" />
    <path
       inkscape:connector-curvature="0"
       id="path4618"
       style="font-style:italic;font-variant:normal;font-weight:normal;font-stretch:normal;font-size:32px;line-height:30.54940224px;font-family:'Archivo Narrow';-inkscape-font-specification:'Archivo Narrow Italic';text-align:center;letter-spacing:0px;word-spacing:0px;writing-mode:lr-tb;text-anchor:middle;fill:#000000;fill-opacity:1;stroke:none;stroke-width:1px;stroke-linecap:butt;stroke-linejoin:miter;stroke-opacity:1"
       d="m 464.80977,-10.993772 c -5.824,0 -7.136,6.6880001 -7.136,11.48800005 0,4.19200005 1.984,6.11200005 5.44,6.11200005 3.584,0 5.696,-2.816 6.208,-6.08000005 h -2.656 c -0.288,2.01600005 -1.664,3.74400005 -3.552,3.74400005 -1.824,0 -2.72,-1.312 -2.72,-4.00000005 0,-0.416 0.032,-1.024 0.096,-1.69599995 h 9.248 c 0.192,-1.216 0.256,-2.432 0.256,-3.52 0,-4.128 -1.824,-6.0480001 -5.184,-6.0480001 z m 0,2.3360001 c 1.632,0 2.464,1.28 2.464,3.744 0,0.288 0,0.736 -0.032,1.152 h -6.432 c 0.512,-2.432 1.664,-4.896 4,-4.896 z" />
    <path
       inkscape:connector-curvature="0"
       id="path4620"
       style="font-style:italic;font-variant:normal;font-weight:normal;font-stretch:normal;font-size:32px;line-height:30.54940224px;font-family:'Archivo Narrow';-inkscape-font-specification:'Archivo Narrow Italic';text-align:center;letter-spacing:0px;word-spacing:0px;writing-mode:lr-tb;text-anchor:middle;fill:#000000;fill-opacity:1;stroke:none;stroke-width:1px;stroke-linecap:butt;stroke-linejoin:miter;stroke-opacity:1"
       d="m 480.71627,-10.993772 c -2.688,0 -4,1.9200001 -4.48,2.8800001 v -2.4960001 h -2.048 l -2.368,16.8320001 h 2.624 l 1.312,-9.408 c 0.448,-3.232 1.856,-5.472 4,-5.472 1.248,0 1.92,0.608 1.92,2.048 0,1.024 -1.728,12.832 -1.728,12.832 h 2.624 c 0,0 1.792,-12.416 1.792,-13.44 0,-1.92 -0.864,-3.7760001 -3.648,-3.7760001 z" />
    <path
       inkscape:connector-curvature="0"
       id="path4622"
       style="font-style:italic;font-variant:normal;font-weight:normal;font-stretch:normal;font-size:32px;line-height:30.54940224px;font-family:'Archivo Narrow';-inkscape-font-specification:'Archivo Narrow Italic';text-align:center;letter-spacing:0px;word-spacing:0px;writing-mode:lr-tb;text-anchor:middle;fill:#000000;fill-opacity:1;stroke:none;stroke-width:1px;stroke-linecap:butt;stroke-linejoin:miter;stroke-opacity:1"
       d="m 492.17477,-15.281772 h -2.752 l -0.672,4.672 h -1.44 l -0.32,2.3360001 h 1.44 c 0,0 -1.664,11.264 -1.664,12.096 0,1.44 0.64,2.72 2.592,2.72 0.64,0 1.44,-0.192 1.952,-0.448 l 0.256,-1.824 h -0.928 c -0.8,0 -1.184,-0.416 -1.184,-1.184 0,-0.384 1.6,-11.36 1.6,-11.36 h 2.272 l 0.32,-2.3360001 h -2.272 z" />
    <path
       inkscape:connector-curvature="0"
       id="path4624"
       style="font-style:italic;font-variant:normal;font-weight:normal;font-stretch:normal;font-size:32px;line-height:30.54940224px;font-family:'Archivo Narrow';-inkscape-font-specification:'Archivo Narrow Italic';text-align:center;letter-spacing:0px;word-spacing:0px;writing-mode:lr-tb;text-anchor:middle;fill:#000000;fill-opacity:1;stroke:none;stroke-width:1px;stroke-linecap:butt;stroke-linejoin:miter;stroke-opacity:1"
       d="m 497.08727,-15.729772 c -0.448,5.472 -1.024,11.0080001 -1.536,16.48000005 h 1.984 c 1.12,-5.79199995 2.752,-14.65600005 3.168,-16.48000005 z m 0.8,18.4960001 h -3.2 l -0.48,3.456 h 3.2 z" />
    <path
       inkscape:connector-curvature="0"
       id="path4626"
       style="font-style:italic;font-variant:normal;font-weight:normal;font-stretch:normal;font-size:32px;line-height:30.54940224px;font-family:'Archivo Narrow';-inkscape-font-specification:'Archivo Narrow Italic';text-align:center;letter-spacing:0px;word-spacing:0px;writing-mode:lr-tb;text-anchor:middle;fill:#000000;fill-opacity:1;stroke:none;stroke-width:1px;stroke-linecap:butt;stroke-linejoin:miter;stroke-opacity:1"
       d="m 271.19002,36.77163 c 7.008,0 9.536,-8.032 9.536,-13.728 0,-5.472 -2.688,-8.224 -7.328,-8.224 h -6.496 l -3.104,21.952 z m 1.888,-19.392 c 2.976,0 4.736,1.856 4.736,5.696 0,4.48 -1.44,11.136 -6.944,11.136 h -3.872 l 2.336,-16.832 z" />
    <path
       inkscape:connector-curvature="0"
       id="path4628"
       style="font-style:italic;font-variant:normal;font-weight:normal;font-stretch:normal;font-size:32px;line-height:30.54940224px;font-family:'Archivo Narrow';-inkscape-font-specification:'Archivo Narrow Italic';text-align:center;letter-spacing:0px;word-spacing:0px;writing-mode:lr-tb;text-anchor:middle;fill:#000000;fill-opacity:1;stroke:none;stroke-width:1px;stroke-linecap:butt;stroke-linejoin:miter;stroke-opacity:1"
       d="m 289.83952,19.55563 c -5.824,0 -7.136,7.008 -7.136,11.616 0,4.096 1.856,5.984 5.312,5.984 5.824,0 7.136,-6.944 7.136,-11.552 0,-4.128 -1.856,-6.048 -5.312,-6.048 z m 0,2.336 c 1.728,0 2.592,1.28 2.592,3.744 0,2.272 -0.512,9.184 -4.416,9.184 -1.824,0 -2.592,-1.312 -2.592,-4 0,-2.208 0.544,-8.928 4.416,-8.928 z" />
    <path
       inkscape:connector-curvature="0"
       id="path4630"
       style="font-style:italic;font-variant:normal;font-weight:normal;font-stretch:normal;font-size:32px;line-height:30.54940224px;font-family:'Archivo Narrow';-inkscape-font-specification:'Archivo Narrow Italic';text-align:center;letter-spacing:0px;word-spacing:0px;writing-mode:lr-tb;text-anchor:middle;fill:#000000;fill-opacity:1;stroke:none;stroke-width:1px;stroke-linecap:butt;stroke-linejoin:miter;stroke-opacity:1"
       d="m 311.07452,19.55563 c -3.136,0 -6.496,3.648 -6.496,11.36 0,4.32 1.792,6.24 4.256,6.24 1.504,0 2.656,-0.832 3.872,-2.656 0.032,1.888 0.96,2.656 2.304,2.656 0.832,0 1.472,-0.288 1.792,-0.512 l 0.256,-1.824 h -1.024 c -0.416,0 -0.768,-0.256 -0.768,-0.896 0,-0.384 1.952,-13.984 1.952,-13.984 h -2.08 l -0.576,2.336 c -0.64,-2.08 -1.952,-2.72 -3.488,-2.72 z m 0.384,2.336 c 1.472,0 2.208,1.216 2.208,3.616 0,2.56 -0.992,9.312 -4.032,9.312 -1.568,0 -2.368,-1.216 -2.368,-3.648 0,-2.752 0.768,-9.28 4.192,-9.28 z" />
    <path
       inkscape:connector-curvature="0"
       id="path4632"
       style="font-style:italic;font-variant:normal;font-weight:normal;font-stretch:normal;font-size:32px;line-height:30.54940224px;font-family:'Archivo Narrow';-inkscape-font-specification:'Archivo Narrow Italic';text-align:center;letter-spacing:0px;word-spacing:0px;writing-mode:lr-tb;text-anchor:middle;fill:#000000;fill-opacity:1;stroke:none;stroke-width:1px;stroke-linecap:butt;stroke-linejoin:miter;stroke-opacity:1"
       d="m 324.42102,13.63563 h -2.624 l -3.2,23.136 h 2.592 z" />
    <path
       inkscape:connector-curvature="0"
       id="path4634"
       style="font-style:italic;font-variant:normal;font-weight:normal;font-stretch:normal;font-size:32px;line-height:30.54940224px;font-family:'Archivo Narrow';-inkscape-font-specification:'Archivo Narrow Italic';text-align:center;letter-spacing:0px;word-spacing:0px;writing-mode:lr-tb;text-anchor:middle;fill:#000000;fill-opacity:1;stroke:none;stroke-width:1px;stroke-linecap:butt;stroke-linejoin:miter;stroke-opacity:1"
       d="m 330.23352,13.63563 h -2.624 l -3.2,23.136 h 2.592 z" />
    <path
       inkscape:connector-curvature="0"
       id="path4636"
       style="font-style:italic;font-variant:normal;font-weight:normal;font-stretch:normal;font-size:32px;line-height:30.54940224px;font-family:'Archivo Narrow';-inkscape-font-specification:'Archivo Narrow Italic';text-align:center;letter-spacing:0px;word-spacing:0px;writing-mode:lr-tb;text-anchor:middle;fill:#000000;fill-opacity:1;stroke:none;stroke-width:1px;stroke-linecap:butt;stroke-linejoin:miter;stroke-opacity:1"
       d="m 347.07052,14.43563 c -4.288,0 -6.816,2.24 -6.816,6.272 0,6.464 9.504,5.152 9.504,9.984 0,3.104 -2.816,3.872 -4.544,3.872 -2.624,0 -4.288,-1.152 -4.288,-3.776 0,-0.448 0.064,-0.96 0.16,-1.504 h -2.912 c -0.096,0.512 -0.096,0.992 -0.096,1.472 0,4.096 2.72,6.4 6.912,6.4 6.176,0 7.712,-3.936 7.712,-6.88 0,-6.816 -9.536,-5.312 -9.536,-9.888 0,-3.04 2.624,-3.36 3.744,-3.36 1.792,0 4.032,0.576 4.032,4.224 h 2.912 c 0,-3.872 -1.728,-6.816 -6.784,-6.816 z" />
    <path
       inkscape:connector-curvature="0"
       id="path4638"
       style="font-style:italic;font-variant:normal;font-weight:normal;font-stretch:normal;font-size:32px;line-height:30.54940224px;font-family:'Archivo Narrow';-inkscape-font-specification:'Archivo Narrow Italic';text-align:center;letter-spacing:0px;word-spacing:0px;writing-mode:lr-tb;text-anchor:middle;fill:#000000;fill-opacity:1;stroke:none;stroke-width:1px;stroke-linecap:butt;stroke-linejoin:miter;stroke-opacity:1"
       d="m 363.80252,19.55563 c -1.536,0 -2.944,0.832 -4.064,2.656 v -2.272 h -2.08 l -3.168,22.656 h 2.624 l 1.088,-7.68 c 0.736,1.6 1.952,2.24 3.36,2.24 3.136,0 6.496,-3.648 6.496,-11.36 0,-4.32 -1.792,-6.24 -4.256,-6.24 z m -0.8,2.336 c 1.568,0 2.368,1.216 2.368,3.648 0,2.752 -0.768,9.28 -4.192,9.28 -1.568,0 -2.336,-1.216 -2.336,-3.616 0,-2.56 0.832,-9.312 4.16,-9.312 z" />
    <path
       inkscape:connector-curvature="0"
       id="path4640"
       style="font-style:italic;font-variant:normal;font-weight:normal;font-stretch:normal;font-size:32px;line-height:30.54940224px;font-family:'Archivo Narrow';-inkscape-font-specification:'Archivo Narrow Italic';text-align:center;letter-spacing:0px;word-spacing:0px;writing-mode:lr-tb;text-anchor:middle;fill:#000000;fill-opacity:1;stroke:none;stroke-width:1px;stroke-linecap:butt;stroke-linejoin:miter;stroke-opacity:1"
       d="m 377.34102,19.55563 c -5.824,0 -7.136,6.688 -7.136,11.488 0,4.192 1.984,6.112 5.44,6.112 3.584,0 5.696,-2.816 6.208,-6.08 h -2.656 c -0.288,2.016 -1.664,3.744 -3.552,3.744 -1.824,0 -2.72,-1.312 -2.72,-4 0,-0.416 0.032,-1.024 0.096,-1.696 h 9.248 c 0.192,-1.216 0.256,-2.432 0.256,-3.52 0,-4.128 -1.824,-6.048 -5.184,-6.048 z m 0,2.336 c 1.632,0 2.464,1.28 2.464,3.744 0,0.288 0,0.736 -0.032,1.152 h -6.432 c 0.512,-2.432 1.664,-4.896 4,-4.896 z" />
    <path
       inkscape:connector-curvature="0"
       id="path4642"
       style="font-style:italic;font-variant:normal;font-weight:normal;font-stretch:normal;font-size:32px;line-height:30.54940224px;font-family:'Archivo Narrow';-inkscape-font-specification:'Archivo Narrow Italic';text-align:center;letter-spacing:0px;word-spacing:0px;writing-mode:lr-tb;text-anchor:middle;fill:#000000;fill-opacity:1;stroke:none;stroke-width:1px;stroke-linecap:butt;stroke-linejoin:miter;stroke-opacity:1"
       d="m 391.32752,19.55563 c -5.472,0 -6.688,6.528 -6.688,11.488 0,4.192 1.984,6.112 5.152,6.112 3.424,0 5.408,-3.104 5.824,-6.528 h -2.624 c -0.256,2.208 -1.472,4.192 -3.264,4.192 -1.536,0 -2.368,-1.472 -2.368,-4 0,-1.792 0.448,-8.928 3.968,-8.928 1.408,0 2.08,1.28 2.08,3.744 v 0.544 h 2.72 v -0.576 c 0,-4.128 -1.664,-6.048 -4.8,-6.048 z" />
    <path
       inkscape:connector-curvature="0"
       id="path4644"
       style="font-style:italic;font-variant:normal;font-weight:normal;font-stretch:normal;font-size:32px;line-height:30.54940224px;font-family:'Archivo Narrow';-inkscape-font-specification:'Archivo Narrow Italic';text-align:center;letter-spacing:0px;word-spacing:0px;writing-mode:lr-tb;text-anchor:middle;fill:#000000;fill-opacity:1;stroke:none;stroke-width:1px;stroke-linecap:butt;stroke-linejoin:miter;stroke-opacity:1"
       d="m 402.24452,19.93963 h -2.624 l -2.336,16.832 h 2.592 z m 0.864,-6.304 h -2.624 l -0.416,3.136 h 2.624 z" />
    <path
       inkscape:connector-curvature="0"
       id="path4646"
       style="font-style:italic;font-variant:normal;font-weight:normal;font-stretch:normal;font-size:32px;line-height:30.54940224px;font-family:'Archivo Narrow';-inkscape-font-specification:'Archivo Narrow Italic';text-align:center;letter-spacing:0px;word-spacing:0px;writing-mode:lr-tb;text-anchor:middle;fill:#000000;fill-opacity:1;stroke:none;stroke-width:1px;stroke-linecap:butt;stroke-linejoin:miter;stroke-opacity:1"
       d="m 410.13702,19.55563 c -3.136,0 -6.496,3.648 -6.496,11.36 0,4.32 1.792,6.24 4.256,6.24 1.504,0 2.656,-0.832 3.872,-2.656 0.032,1.888 0.96,2.656 2.304,2.656 0.832,0 1.472,-0.288 1.792,-0.512 l 0.256,-1.824 h -1.024 c -0.416,0 -0.768,-0.256 -0.768,-0.896 0,-0.384 1.952,-13.984 1.952,-13.984 h -2.08 l -0.576,2.336 c -0.64,-2.08 -1.952,-2.72 -3.488,-2.72 z m 0.384,2.336 c 1.472,0 2.208,1.216 2.208,3.616 0,2.56 -0.992,9.312 -4.032,9.312 -1.568,0 -2.368,-1.216 -2.368,-3.648 0,-2.752 0.768,-9.28 4.192,-9.28 z" />
    <path
       inkscape:connector-curvature="0"
       id="path4648"
       style="font-style:italic;font-variant:normal;font-weight:normal;font-stretch:normal;font-size:32px;line-height:30.54940224px;font-family:'Archivo Narrow';-inkscape-font-specification:'Archivo Narrow Italic';text-align:center;letter-spacing:0px;word-spacing:0px;writing-mode:lr-tb;text-anchor:middle;fill:#000000;fill-opacity:1;stroke:none;stroke-width:1px;stroke-linecap:butt;stroke-linejoin:miter;stroke-opacity:1"
       d="m 423.48352,13.63563 h -2.624 l -3.2,23.136 h 2.592 z" />
    <path
       inkscape:connector-curvature="0"
       id="path4650"
       style="font-style:italic;font-variant:normal;font-weight:normal;font-stretch:normal;font-size:32px;line-height:30.54940224px;font-family:'Archivo Narrow';-inkscape-font-specification:'Archivo Narrow Italic';text-align:center;letter-spacing:0px;word-spacing:0px;writing-mode:lr-tb;text-anchor:middle;fill:#000000;fill-opacity:1;stroke:none;stroke-width:1px;stroke-linecap:butt;stroke-linejoin:miter;stroke-opacity:1"
       d="m 445.08852,36.77163 0.384,-2.56 h -10.912 l 1.024,-7.392 h 9.312 l 0.352,-2.56 h -9.312 l 0.96,-6.88 h 10.72 l 0.384,-2.56 h -13.536 l -3.104,21.952 z" />
    <path
       inkscape:connector-curvature="0"
       id="path4652"
       style="font-style:italic;font-variant:normal;font-weight:normal;font-stretch:normal;font-size:32px;line-height:30.54940224px;font-family:'Archivo Narrow';-inkscape-font-specification:'Archivo Narrow Italic';text-align:center;letter-spacing:0px;word-spacing:0px;writing-mode:lr-tb;text-anchor:middle;fill:#000000;fill-opacity:1;stroke:none;stroke-width:1px;stroke-linecap:butt;stroke-linejoin:miter;stroke-opacity:1"
       d="m 462.07652,19.93963 h -2.816 l -5.376,13.024 h -0.128 l -1.728,-13.024 h -2.784 l 2.496,16.832 h 2.848 z" />
    <path
       inkscape:connector-curvature="0"
       id="path4654"
       style="font-style:italic;font-variant:normal;font-weight:normal;font-stretch:normal;font-size:32px;line-height:30.54940224px;font-family:'Archivo Narrow';-inkscape-font-specification:'Archivo Narrow Italic';text-align:center;letter-spacing:0px;word-spacing:0px;writing-mode:lr-tb;text-anchor:middle;fill:#000000;fill-opacity:1;stroke:none;stroke-width:1px;stroke-linecap:butt;stroke-linejoin:miter;stroke-opacity:1"
       d="m 469.15352,19.55563 c -5.824,0 -7.136,6.688 -7.136,11.488 0,4.192 1.984,6.112 5.44,6.112 3.584,0 5.696,-2.816 6.208,-6.08 h -2.656 c -0.288,2.016 -1.664,3.744 -3.552,3.744 -1.824,0 -2.72,-1.312 -2.72,-4 0,-0.416 0.032,-1.024 0.096,-1.696 h 9.248 c 0.192,-1.216 0.256,-2.432 0.256,-3.52 0,-4.128 -1.824,-6.048 -5.184,-6.048 z m 0,2.336 c 1.632,0 2.464,1.28 2.464,3.744 0,0.288 0,0.736 -0.032,1.152 h -6.432 c 0.512,-2.432 1.664,-4.896 4,-4.896 z" />
    <path
       inkscape:connector-curvature="0"
       id="path4656"
       style="font-style:italic;font-variant:normal;font-weight:normal;font-stretch:normal;font-size:32px;line-height:30.54940224px;font-family:'Archivo Narrow';-inkscape-font-specification:'Archivo Narrow Italic';text-align:center;letter-spacing:0px;word-spacing:0px;writing-mode:lr-tb;text-anchor:middle;fill:#000000;fill-opacity:1;stroke:none;stroke-width:1px;stroke-linecap:butt;stroke-linejoin:miter;stroke-opacity:1"
       d="m 485.06002,19.55563 c -2.688,0 -4,1.92 -4.48,2.88 v -2.496 h -2.048 l -2.368,16.832 h 2.624 l 1.312,-9.408 c 0.448,-3.232 1.856,-5.472 4,-5.472 1.248,0 1.92,0.608 1.92,2.048 0,1.024 -1.728,12.832 -1.728,12.832 h 2.624 c 0,0 1.792,-12.416 1.792,-13.44 0,-1.92 -0.864,-3.776 -3.648,-3.776 z" />
    <path
       inkscape:connector-curvature="0"
       id="path4658"
       style="font-style:italic;font-variant:normal;font-weight:normal;font-stretch:normal;font-size:32px;line-height:30.54940224px;font-family:'Archivo Narrow';-inkscape-font-specification:'Archivo Narrow Italic';text-align:center;letter-spacing:0px;word-spacing:0px;writing-mode:lr-tb;text-anchor:middle;fill:#000000;fill-opacity:1;stroke:none;stroke-width:1px;stroke-linecap:butt;stroke-linejoin:miter;stroke-opacity:1"
       d="m 496.51852,15.26763 h -2.752 l -0.672,4.672 h -1.44 l -0.32,2.336 h 1.44 c 0,0 -1.664,11.264 -1.664,12.096 0,1.44 0.64,2.72 2.592,2.72 0.64,0 1.44,-0.192 1.952,-0.448 l 0.256,-1.824 h -0.928 c -0.8,0 -1.184,-0.416 -1.184,-1.184 0,-0.384 1.6,-11.36 1.6,-11.36 h 2.272 l 0.32,-2.336 h -2.272 z" />
    <path
       inkscape:connector-curvature="0"
       id="path4660"
       style="font-style:italic;font-variant:normal;font-weight:normal;font-stretch:normal;font-size:32px;line-height:30.54940224px;font-family:'Archivo Narrow';-inkscape-font-specification:'Archivo Narrow Italic';text-align:center;letter-spacing:0px;word-spacing:0px;writing-mode:lr-tb;text-anchor:middle;fill:#000000;fill-opacity:1;stroke:none;stroke-width:1px;stroke-linecap:butt;stroke-linejoin:miter;stroke-opacity:1"
       d="m 504.75902,19.55563 c -3.424,0 -5.184,2.08 -5.184,4.736 0,5.024 6.4,4.384 6.4,8.16 0,1.312 -0.96,2.4 -2.432,2.4 -1.536,0 -2.848,-0.896 -2.848,-2.88 0,-0.32 0.032,-0.672 0.096,-1.024 h -2.72 c -0.064,0.352 -0.064,0.704 -0.064,1.024 0,3.168 2.368,5.184 5.28,5.184 3.296,0 5.408,-1.888 5.408,-5.12 0,-5.44 -6.4,-4.288 -6.4,-8.128 0,-1.344 1.248,-2.048 2.176,-2.048 1.184,0 2.368,0.672 2.368,2.976 h 2.72 c 0,-2.72 -1.376,-5.28 -4.8,-5.28 z" />
    <path
       inkscape:connector-curvature="0"
       id="path4662"
       style="font-style:italic;font-variant:normal;font-weight:normal;font-stretch:normal;font-size:32px;line-height:30.54940224px;font-family:'Archivo Narrow';-inkscape-font-specification:'Archivo Narrow Italic';text-align:center;letter-spacing:0px;word-spacing:0px;writing-mode:lr-tb;text-anchor:middle;fill:#000000;fill-opacity:1;stroke:none;stroke-width:1px;stroke-linecap:butt;stroke-linejoin:miter;stroke-opacity:1"
       d="m 525.32452,19.55563 c -3.136,0 -6.496,3.648 -6.496,11.36 0,4.32 1.792,6.24 4.256,6.24 1.504,0 2.656,-0.832 3.872,-2.656 0.032,1.888 0.96,2.656 2.304,2.656 0.832,0 1.472,-0.288 1.792,-0.512 l 0.256,-1.824 h -1.024 c -0.416,0 -0.768,-0.256 -0.768,-0.896 0,-0.384 1.952,-13.984 1.952,-13.984 h -2.08 l -0.576,2.336 c -0.64,-2.08 -1.952,-2.72 -3.488,-2.72 z m 0.384,2.336 c 1.472,0 2.208,1.216 2.208,3.616 0,2.56 -0.992,9.312 -4.032,9.312 -1.568,0 -2.368,-1.216 -2.368,-3.648 0,-2.752 0.768,-9.28 4.192,-9.28 z" />
    <path
       inkscape:connector-curvature="0"
       id="path4664"
       style="font-style:italic;font-variant:normal;font-weight:normal;font-stretch:normal;font-size:32px;line-height:30.54940224px;font-family:'Archivo Narrow';-inkscape-font-specification:'Archivo Narrow Italic';text-align:center;letter-spacing:0px;word-spacing:0px;writing-mode:lr-tb;text-anchor:middle;fill:#000000;fill-opacity:1;stroke:none;stroke-width:1px;stroke-linecap:butt;stroke-linejoin:miter;stroke-opacity:1"
       d="m 539.59902,13.37963 c -2.56,0 -3.616,1.952 -3.872,3.872 l -0.384,2.688 h -1.472 l -0.32,2.336 h 1.472 l -2.176,16.576 c -0.128,0.992 -0.704,1.536 -1.696,1.536 h -1.408 l -0.256,1.824 c 0.512,0.192 1.376,0.384 2.144,0.384 2.528,0 3.584,-1.952 3.84,-3.872 l 2.176,-16.448 h 2.912 l 0.32,-2.336 h -2.912 l 0.384,-2.816 c 0.128,-0.992 0.736,-1.536 1.728,-1.536 h 1.408 l 0.256,-1.824 c -0.512,-0.192 -1.376,-0.384 -2.144,-0.384 z" />
    <path
       inkscape:connector-curvature="0"
       id="path4666"
       style="font-style:italic;font-variant:normal;font-weight:normal;font-stretch:normal;font-size:32px;line-height:30.54940224px;font-family:'Archivo Narrow';-inkscape-font-specification:'Archivo Narrow Italic';text-align:center;letter-spacing:0px;word-spacing:0px;writing-mode:lr-tb;text-anchor:middle;fill:#000000;fill-opacity:1;stroke:none;stroke-width:1px;stroke-linecap:butt;stroke-linejoin:miter;stroke-opacity:1"
       d="m 546.14352,15.26763 h -2.752 l -0.672,4.672 h -1.44 l -0.32,2.336 h 1.44 c 0,0 -1.664,11.264 -1.664,12.096 0,1.44 0.64,2.72 2.592,2.72 0.64,0 1.44,-0.192 1.952,-0.448 l 0.256,-1.824 h -0.928 c -0.8,0 -1.184,-0.416 -1.184,-1.184 0,-0.384 1.6,-11.36 1.6,-11.36 h 2.272 l 0.32,-2.336 h -2.272 z" />
    <path
       inkscape:connector-curvature="0"
       id="path4668"
       style="font-style:italic;font-variant:normal;font-weight:normal;font-stretch:normal;font-size:32px;line-height:30.54940224px;font-family:'Archivo Narrow';-inkscape-font-specification:'Archivo Narrow Italic';text-align:center;letter-spacing:0px;word-spacing:0px;writing-mode:lr-tb;text-anchor:middle;fill:#000000;fill-opacity:1;stroke:none;stroke-width:1px;stroke-linecap:butt;stroke-linejoin:miter;stroke-opacity:1"
       d="m 555.21602,19.55563 c -5.824,0 -7.136,6.688 -7.136,11.488 0,4.192 1.984,6.112 5.44,6.112 3.584,0 5.696,-2.816 6.208,-6.08 h -2.656 c -0.288,2.016 -1.664,3.744 -3.552,3.744 -1.824,0 -2.72,-1.312 -2.72,-4 0,-0.416 0.032,-1.024 0.096,-1.696 h 9.248 c 0.192,-1.216 0.256,-2.432 0.256,-3.52 0,-4.128 -1.824,-6.048 -5.184,-6.048 z m 0,2.336 c 1.632,0 2.464,1.28 2.464,3.744 0,0.288 0,0.736 -0.032,1.152 h -6.432 c 0.512,-2.432 1.664,-4.896 4,-4.896 z" />
    <path
       inkscape:connector-curvature="0"
       id="path4670"
       style="font-style:italic;font-variant:normal;font-weight:normal;font-stretch:normal;font-size:32px;line-height:30.54940224px;font-family:'Archivo Narrow';-inkscape-font-specification:'Archivo Narrow Italic';text-align:center;letter-spacing:0px;word-spacing:0px;writing-mode:lr-tb;text-anchor:middle;fill:#000000;fill-opacity:1;stroke:none;stroke-width:1px;stroke-linecap:butt;stroke-linejoin:miter;stroke-opacity:1"
       d="m 569.81052,19.55563 c -1.92,0 -2.752,1.792 -3.36,3.072 v -2.688 h -2.048 l -2.368,16.832 h 2.624 l 1.376,-9.728 c 0.416,-2.976 2.08,-4.512 3.744,-4.512 h 0.864 l 0.384,-2.72 c 0,0 -0.512,-0.256 -1.216,-0.256 z" />
    <path
       inkscape:connector-curvature="0"
       id="path4672"
       style="font-style:italic;font-variant:normal;font-weight:normal;font-stretch:normal;font-size:32px;line-height:30.54940224px;font-family:'Archivo Narrow';-inkscape-font-specification:'Archivo Narrow Italic';text-align:center;letter-spacing:0px;word-spacing:0px;writing-mode:lr-tb;text-anchor:middle;fill:#000000;fill-opacity:1;stroke:none;stroke-width:1px;stroke-linecap:butt;stroke-linejoin:miter;stroke-opacity:1"
       d="m 319.48727,45.817033 h -2.752 l -0.672,4.672 h -1.44 l -0.32,2.336 h 1.44 c 0,0 -1.664,11.264 -1.664,12.096 0,1.44 0.64,2.72 2.592,2.72 0.64,0 1.44,-0.192 1.952,-0.448 l 0.256,-1.824 h -0.928 c -0.8,0 -1.184,-0.416 -1.184,-1.184 0,-0.384 1.6,-11.36 1.6,-11.36 h 2.272 l 0.32,-2.336 h -2.272 z" />
    <path
       inkscape:connector-curvature="0"
       id="path4674"
       style="font-style:italic;font-variant:normal;font-weight:normal;font-stretch:normal;font-size:32px;line-height:30.54940224px;font-family:'Archivo Narrow';-inkscape-font-specification:'Archivo Narrow Italic';text-align:center;letter-spacing:0px;word-spacing:0px;writing-mode:lr-tb;text-anchor:middle;fill:#000000;fill-opacity:1;stroke:none;stroke-width:1px;stroke-linecap:butt;stroke-linejoin:miter;stroke-opacity:1"
       d="m 326.86377,44.185033 h -2.624 l -3.232,23.136 h 2.592 l 1.312,-9.408 c 0.448,-3.232 1.856,-5.472 4,-5.472 1.248,0 1.92,0.608 1.92,2.048 0,1.024 -1.728,12.832 -1.728,12.832 h 2.624 c 0,0 1.792,-12.416 1.792,-13.44 0,-1.92 -0.864,-3.776 -3.648,-3.776 -2.24,0 -3.52,1.344 -4.16,2.336 z" />
    <path
       inkscape:connector-curvature="0"
       id="path4676"
       style="font-style:italic;font-variant:normal;font-weight:normal;font-stretch:normal;font-size:32px;line-height:30.54940224px;font-family:'Archivo Narrow';-inkscape-font-specification:'Archivo Narrow Italic';text-align:center;letter-spacing:0px;word-spacing:0px;writing-mode:lr-tb;text-anchor:middle;fill:#000000;fill-opacity:1;stroke:none;stroke-width:1px;stroke-linecap:butt;stroke-linejoin:miter;stroke-opacity:1"
       d="m 343.12227,50.105033 c -5.824,0 -7.136,6.688 -7.136,11.488 0,4.192 1.984,6.112 5.44,6.112 3.584,0 5.696,-2.816 6.208,-6.08 h -2.656 c -0.288,2.016 -1.664,3.744 -3.552,3.744 -1.824,0 -2.72,-1.312 -2.72,-4 0,-0.416 0.032,-1.024 0.096,-1.696 h 9.248 c 0.192,-1.216 0.256,-2.432 0.256,-3.52 0,-4.128 -1.824,-6.048 -5.184,-6.048 z m 0,2.336 c 1.632,0 2.464,1.28 2.464,3.744 0,0.288 0,0.736 -0.032,1.152 h -6.432 c 0.512,-2.432 1.664,-4.896 4,-4.896 z" />
    <path
       inkscape:connector-curvature="0"
       id="path4678"
       style="font-style:italic;font-variant:normal;font-weight:normal;font-stretch:normal;font-size:32px;line-height:30.54940224px;font-family:'Archivo Narrow';-inkscape-font-specification:'Archivo Narrow Italic';text-align:center;letter-spacing:0px;word-spacing:0px;writing-mode:lr-tb;text-anchor:middle;fill:#000000;fill-opacity:1;stroke:none;stroke-width:1px;stroke-linecap:butt;stroke-linejoin:miter;stroke-opacity:1"
       d="m 365.02927,50.105033 c -1.92,0 -2.752,1.792 -3.36,3.072 v -2.688 h -2.048 l -2.368,16.832 h 2.624 l 1.376,-9.728 c 0.416,-2.976 2.08,-4.512 3.744,-4.512 h 0.864 l 0.384,-2.72 c 0,0 -0.512,-0.256 -1.216,-0.256 z" />
    <path
       inkscape:connector-curvature="0"
       id="path4680"
       style="font-style:italic;font-variant:normal;font-weight:normal;font-stretch:normal;font-size:32px;line-height:30.54940224px;font-family:'Archivo Narrow';-inkscape-font-specification:'Archivo Narrow Italic';text-align:center;letter-spacing:0px;word-spacing:0px;writing-mode:lr-tb;text-anchor:middle;fill:#000000;fill-opacity:1;stroke:none;stroke-width:1px;stroke-linecap:butt;stroke-linejoin:miter;stroke-opacity:1"
       d="m 373.74727,50.105033 c -5.824,0 -7.136,6.688 -7.136,11.488 0,4.192 1.984,6.112 5.44,6.112 3.584,0 5.696,-2.816 6.208,-6.08 h -2.656 c -0.288,2.016 -1.664,3.744 -3.552,3.744 -1.824,0 -2.72,-1.312 -2.72,-4 0,-0.416 0.032,-1.024 0.096,-1.696 h 9.248 c 0.192,-1.216 0.256,-2.432 0.256,-3.52 0,-4.128 -1.824,-6.048 -5.184,-6.048 z m 0,2.336 c 1.632,0 2.464,1.28 2.464,3.744 0,0.288 0,0.736 -0.032,1.152 h -6.432 c 0.512,-2.432 1.664,-4.896 4,-4.896 z" />
    <path
       inkscape:connector-curvature="0"
       id="path4682"
       style="font-style:italic;font-variant:normal;font-weight:normal;font-stretch:normal;font-size:32px;line-height:30.54940224px;font-family:'Archivo Narrow';-inkscape-font-specification:'Archivo Narrow Italic';text-align:center;letter-spacing:0px;word-spacing:0px;writing-mode:lr-tb;text-anchor:middle;fill:#000000;fill-opacity:1;stroke:none;stroke-width:1px;stroke-linecap:butt;stroke-linejoin:miter;stroke-opacity:1"
       d="m 388.05377,52.441033 c 1.568,0 2.336,1.216 2.368,3.616 0,2.368 -0.928,8.672 -4.064,8.672 -1.568,0 -2.432,-1.024 -2.432,-3.232 0,-2.656 0.64,-9.056 4.128,-9.056 z m 1.024,14.08 c -0.48,2.944 -1.568,4.32 -3.648,4.32 -1.696,0 -2.528,-0.928 -2.528,-2.752 h -2.624 c 0,2.688 1.6,5.056 5.056,5.056 3.616,0 5.728,-2.144 6.464,-7.392 l 2.144,-15.264 h -2.08 l -0.544,2.336 c -0.672,-2.08 -2.016,-2.72 -3.616,-2.72 -3.136,0 -6.464,3.456 -6.464,11.136 0,2.848 1.12,5.824 4.288,5.824 1.568,0 2.752,-0.832 3.904,-2.656 z" />
    <path
       inkscape:connector-curvature="0"
       id="path4684"
       style="font-style:italic;font-variant:normal;font-weight:normal;font-stretch:normal;font-size:32px;line-height:30.54940224px;font-family:'Archivo Narrow';-inkscape-font-specification:'Archivo Narrow Italic';text-align:center;letter-spacing:0px;word-spacing:0px;writing-mode:lr-tb;text-anchor:middle;fill:#000000;fill-opacity:1;stroke:none;stroke-width:1px;stroke-linecap:butt;stroke-linejoin:miter;stroke-opacity:1"
       d="m 408.50427,50.489033 h -2.624 l -1.312,9.408 c -0.448,3.232 -1.856,5.472 -4,5.472 -1.248,0 -1.92,-0.608 -1.92,-2.048 0,-1.024 1.728,-12.832 1.728,-12.832 h -2.624 c 0,0 -1.792,12.416 -1.792,13.44 0,1.92 0.864,3.776 3.648,3.776 2.688,0 4,-1.888 4.48,-2.848 v 2.464 h 2.048 z" />
    <path
       inkscape:connector-curvature="0"
       id="path4686"
       style="font-style:italic;font-variant:normal;font-weight:normal;font-stretch:normal;font-size:32px;line-height:30.54940224px;font-family:'Archivo Narrow';-inkscape-font-specification:'Archivo Narrow Italic';text-align:center;letter-spacing:0px;word-spacing:0px;writing-mode:lr-tb;text-anchor:middle;fill:#000000;fill-opacity:1;stroke:none;stroke-width:1px;stroke-linecap:butt;stroke-linejoin:miter;stroke-opacity:1"
       d="m 415.51477,44.185033 h -2.624 l -3.2,23.136 h 2.592 z" />
    <path
       inkscape:connector-curvature="0"
       id="path4688"
       style="font-style:italic;font-variant:normal;font-weight:normal;font-stretch:normal;font-size:32px;line-height:30.54940224px;font-family:'Archivo Narrow';-inkscape-font-specification:'Archivo Narrow Italic';text-align:center;letter-spacing:0px;word-spacing:0px;writing-mode:lr-tb;text-anchor:middle;fill:#000000;fill-opacity:1;stroke:none;stroke-width:1px;stroke-linecap:butt;stroke-linejoin:miter;stroke-opacity:1"
       d="m 422.54327,50.105033 c -3.136,0 -6.496,3.648 -6.496,11.36 0,4.32 1.792,6.24 4.256,6.24 1.504,0 2.656,-0.832 3.872,-2.656 0.032,1.888 0.96,2.656 2.304,2.656 0.832,0 1.472,-0.288 1.792,-0.512 l 0.256,-1.824 h -1.024 c -0.416,0 -0.768,-0.256 -0.768,-0.896 0,-0.384 1.952,-13.984 1.952,-13.984 h -2.08 l -0.576,2.336 c -0.64,-2.08 -1.952,-2.72 -3.488,-2.72 z m 0.384,2.336 c 1.472,0 2.208,1.216 2.208,3.616 0,2.56 -0.992,9.312 -4.032,9.312 -1.568,0 -2.368,-1.216 -2.368,-3.648 0,-2.752 0.768,-9.28 4.192,-9.28 z" />
    <path
       inkscape:connector-curvature="0"
       id="path4690"
       style="font-style:italic;font-variant:normal;font-weight:normal;font-stretch:normal;font-size:32px;line-height:30.54940224px;font-family:'Archivo Narrow';-inkscape-font-specification:'Archivo Narrow Italic';text-align:center;letter-spacing:0px;word-spacing:0px;writing-mode:lr-tb;text-anchor:middle;fill:#000000;fill-opacity:1;stroke:none;stroke-width:1px;stroke-linecap:butt;stroke-linejoin:miter;stroke-opacity:1"
       d="m 437.84177,50.105033 c -1.92,0 -2.752,1.792 -3.36,3.072 v -2.688 h -2.048 l -2.368,16.832 h 2.624 l 1.376,-9.728 c 0.416,-2.976 2.08,-4.512 3.744,-4.512 h 0.864 l 0.384,-2.72 c 0,0 -0.512,-0.256 -1.216,-0.256 z" />
    <path
       inkscape:connector-curvature="0"
       id="path4692"
       style="font-style:italic;font-variant:normal;font-weight:normal;font-stretch:normal;font-size:32px;line-height:30.54940224px;font-family:'Archivo Narrow';-inkscape-font-specification:'Archivo Narrow Italic';text-align:center;letter-spacing:0px;word-spacing:0px;writing-mode:lr-tb;text-anchor:middle;fill:#000000;fill-opacity:1;stroke:none;stroke-width:1px;stroke-linecap:butt;stroke-linejoin:miter;stroke-opacity:1"
       d="m 460.43227,67.321033 0.384,-2.56 h -10.912 l 1.024,-7.392 h 9.312 l 0.352,-2.56 h -9.312 l 0.96,-6.88 h 10.72 l 0.384,-2.56 h -13.536 l -3.104,21.952 z" />
    <path
       inkscape:connector-curvature="0"
       id="path4694"
       style="font-style:italic;font-variant:normal;font-weight:normal;font-stretch:normal;font-size:32px;line-height:30.54940224px;font-family:'Archivo Narrow';-inkscape-font-specification:'Archivo Narrow Italic';text-align:center;letter-spacing:0px;word-spacing:0px;writing-mode:lr-tb;text-anchor:middle;fill:#000000;fill-opacity:1;stroke:none;stroke-width:1px;stroke-linecap:butt;stroke-linejoin:miter;stroke-opacity:1"
       d="m 477.42027,50.489033 h -2.816 l -5.376,13.024 h -0.128 l -1.728,-13.024 h -2.784 l 2.496,16.832 h 2.848 z" />
    <path
       inkscape:connector-curvature="0"
       id="path4696"
       style="font-style:italic;font-variant:normal;font-weight:normal;font-stretch:normal;font-size:32px;line-height:30.54940224px;font-family:'Archivo Narrow';-inkscape-font-specification:'Archivo Narrow Italic';text-align:center;letter-spacing:0px;word-spacing:0px;writing-mode:lr-tb;text-anchor:middle;fill:#000000;fill-opacity:1;stroke:none;stroke-width:1px;stroke-linecap:butt;stroke-linejoin:miter;stroke-opacity:1"
       d="m 484.49727,50.105033 c -5.824,0 -7.136,6.688 -7.136,11.488 0,4.192 1.984,6.112 5.44,6.112 3.584,0 5.696,-2.816 6.208,-6.08 h -2.656 c -0.288,2.016 -1.664,3.744 -3.552,3.744 -1.824,0 -2.72,-1.312 -2.72,-4 0,-0.416 0.032,-1.024 0.096,-1.696 h 9.248 c 0.192,-1.216 0.256,-2.432 0.256,-3.52 0,-4.128 -1.824,-6.048 -5.184,-6.048 z m 0,2.336 c 1.632,0 2.464,1.28 2.464,3.744 0,0.288 0,0.736 -0.032,1.152 h -6.432 c 0.512,-2.432 1.664,-4.896 4,-4.896 z" />
    <path
       inkscape:connector-curvature="0"
       id="path4698"
       style="font-style:italic;font-variant:normal;font-weight:normal;font-stretch:normal;font-size:32px;line-height:30.54940224px;font-family:'Archivo Narrow';-inkscape-font-specification:'Archivo Narrow Italic';text-align:center;letter-spacing:0px;word-spacing:0px;writing-mode:lr-tb;text-anchor:middle;fill:#000000;fill-opacity:1;stroke:none;stroke-width:1px;stroke-linecap:butt;stroke-linejoin:miter;stroke-opacity:1"
       d="m 500.40377,50.105033 c -2.688,0 -4,1.92 -4.48,2.88 v -2.496 h -2.048 l -2.368,16.832 h 2.624 l 1.312,-9.408 c 0.448,-3.232 1.856,-5.472 4,-5.472 1.248,0 1.92,0.608 1.92,2.048 0,1.024 -1.728,12.832 -1.728,12.832 h 2.624 c 0,0 1.792,-12.416 1.792,-13.44 0,-1.92 -0.864,-3.776 -3.648,-3.776 z" />
    <path
       inkscape:connector-curvature="0"
       id="path4700"
       style="font-style:italic;font-variant:normal;font-weight:normal;font-stretch:normal;font-size:32px;line-height:30.54940224px;font-family:'Archivo Narrow';-inkscape-font-specification:'Archivo Narrow Italic';text-align:center;letter-spacing:0px;word-spacing:0px;writing-mode:lr-tb;text-anchor:middle;fill:#000000;fill-opacity:1;stroke:none;stroke-width:1px;stroke-linecap:butt;stroke-linejoin:miter;stroke-opacity:1"
       d="m 511.86227,45.817033 h -2.752 l -0.672,4.672 h -1.44 l -0.32,2.336 h 1.44 c 0,0 -1.664,11.264 -1.664,12.096 0,1.44 0.64,2.72 2.592,2.72 0.64,0 1.44,-0.192 1.952,-0.448 l 0.256,-1.824 h -0.928 c -0.8,0 -1.184,-0.416 -1.184,-1.184 0,-0.384 1.6,-11.36 1.6,-11.36 h 2.272 l 0.32,-2.336 h -2.272 z" />
    <path
       transform="matrix(0,-6.0505132,6.0298175,0,-6484.8574,2690.0836)"
       sodipodi:type="star"
       style="font-style:normal;font-variant:normal;font-weight:normal;font-stretch:normal;font-size:medium;line-height:125%;font-family:sans-serif;-inkscape-font-specification:'Archivo Narrow Italic';text-align:center;letter-spacing:0px;word-spacing:0px;writing-mode:lr-tb;text-anchor:middle;fill:#b3b3b3;fill-opacity:1;stroke:#000000;stroke-width:0.31629431;stroke-linecap:butt;stroke-linejoin:round;stroke-miterlimit:4;stroke-dasharray:none;stroke-dashoffset:0;stroke-opacity:1"
       id="path5201"
       sodipodi:sides="6"
       sodipodi:cx="407.40814"
       sodipodi:cy="1113.0243"
       sodipodi:r1="11.162703"
       sodipodi:r2="9.6671848"
       sodipodi:arg1="-1.0471976"
       sodipodi:arg2="-0.52359878"
       inkscape:flatsided="true"
       inkscape:rounded="0"
       inkscape:randomized="0"
       d="m 412.98949,1103.3571 5.58135,9.6672 -5.58135,9.6672 -11.1627,0 -5.58135,-9.6672 5.58135,-9.6672 z" />
    <g
       id="g5205"
       transform="translate(-162.12948,-8.0812203)">
      <circle
         r="46.601688"
         cy="180.0994"
         cx="-659.98737"
         id="circle5119"
         style="font-style:italic;font-variant:normal;font-weight:normal;font-stretch:normal;font-size:medium;line-height:30.54940224px;font-family:'Archivo Narrow';-inkscape-font-specification:'Archivo Narrow Italic';text-align:center;letter-spacing:0px;word-spacing:0px;writing-mode:lr-tb;text-anchor:middle;fill:#000000;fill-opacity:1;stroke:none;stroke-width:3.10677958;stroke-linecap:butt;stroke-linejoin:miter;stroke-miterlimit:4;stroke-dasharray:none;stroke-opacity:1"
         transform="scale(-1,1)" />
      <path
         id="path5121"
         style="font-style:italic;font-variant:normal;font-weight:normal;font-stretch:normal;font-size:medium;line-height:30.54940224px;font-family:'Archivo Narrow';-inkscape-font-specification:'Archivo Narrow Italic';text-align:center;letter-spacing:0px;word-spacing:0px;writing-mode:lr-tb;text-anchor:middle;display:inline;fill:#ffffff;fill-opacity:1;stroke:none;stroke-width:0.88203329;stroke-linecap:butt;stroke-linejoin:miter;stroke-miterlimit:4;stroke-dasharray:none;stroke-opacity:1"
         d="m 626.45167,178.07501 c -0.41404,4.27833 -0.71617,8.54816 -0.54751,12.90075 l 9.46716,9.46715 c -2.74128,-9.87289 -3.62812,-21.02367 1.50716,-32.70635 l -0.0795,-0.0106 z m 11.98826,-7.45365 c -4.67947,12.13242 -2.67997,23.56547 0.79653,33.6867 l 6.55976,6.55976 c 1.21957,-1.03787 2.4725,-1.9273 3.77447,-2.67128 -1.22402,-0.24852 -2.40279,-0.59761 -3.38913,-1.11266 -1.37969,-0.72062 -2.5621,-2.03175 -3.54741,-3.18746 -0.9852,-1.15567 -1.70427,-2.17242 -1.70427,-2.17242 l 2.10246,-1.4872 c 0,0 0.66052,0.92994 1.56336,1.98904 0.90329,1.05891 2.11836,2.23088 2.77808,2.57516 1.21847,0.63647 3.80933,1.11766 5.9892,1.33174 0.29704,0.03 0.59476,0.054 0.89234,0.077 1.17347,-0.33904 2.39004,-0.58371 3.66287,-0.73578 6.14016,-0.73288 13.45289,0.5599 23.29564,3.18552 2.34277,-1.02686 5.14411,-3.15112 7.572,-5.4668 -0.24302,-0.045 -0.48355,-0.10902 -0.71718,-0.18952 -1.41934,-0.49405 -2.66656,-1.79958 -2.80092,-3.55081 -0.12754,-1.65801 -0.0666,-3.70358 0.63456,-5.56221 0.30654,-0.81303 0.78043,-1.5993 1.41999,-2.25167 l 0.02,-0.02 -8.17772,-4.48665 c -1.31654,-0.50825 -2.29038,-1.43495 -2.955,-2.48335 -0.68287,-1.07747 -1.091,-2.27678 -1.442,-3.47256 -0.70031,-2.38829 -1.22087,-4.76927 -2.37463,-6.21006 -2.4344,-2.95065 -6.10142,-3.51361 -9.93789,-5.03482 l -0.36354,-0.14401 -0.21902,-0.32104 c -3.37294,-4.87948 -4.18642,-10.9539 -4.9321,-17.15202 -5.51365,4.51236 -9.69142,12.79884 -13.00865,18.98066 l -0.54051,1.00225 -1.05931,-0.41104 c -1.34592,-0.51921 -2.64361,-0.93769 -3.89499,-1.26173 z m 40.72793,16.50727 c 0.04,0.0106 0.073,0.03 0.11246,0.04 l -0.18052,-0.0815 z m -18.08695,-34.20766 c -0.44705,0.44555 -0.87874,0.90705 -1.28558,1.3903 0.69127,5.09302 1.62316,9.72933 4.00101,13.35515 0.25802,0.097 0.52115,0.19102 0.78742,0.28302 -0.85978,-5.89215 -1.24913,-12.10072 0.8923,-18.61847 -1.73648,1.18552 -3.18668,2.38604 -4.3953,3.58986 z m 28.20957,40.06599 c 4.34779,3.09386 2.60187,5.27123 0.85184,7.68722 1.14911,-0.65696 4.44099,-3.18386 3.92065,-5.32527 -0.41905,-1.72493 -3.3368,-2.18998 -4.77249,-2.36195 z m -24.05355,-14.59552 c 1.96649,0.78268 3.57479,2.17172 5.17995,3.59747 -1.27267,1.56346 -2.5394,1.65726 -4.10991,1.37174 -1.80332,-1.34609 -2.77657,-3.33889 -2.81377,-5.46981 0.61432,0.11206 1.19362,0.28153 1.74398,0.50066 z"
         inkscape:connector-curvature="0" />
    </g>
    <path
       id="path5123"
       style="font-style:italic;font-variant:normal;font-weight:normal;font-stretch:normal;font-size:medium;line-height:30.54940224px;font-family:'Archivo Narrow';-inkscape-font-specification:'Archivo Narrow Italic';text-align:center;letter-spacing:0px;word-spacing:0px;writing-mode:lr-tb;text-anchor:middle;display:inline;fill:#000000;fill-opacity:1;stroke:none;stroke-width:0.62827611;stroke-linecap:butt;stroke-linejoin:miter;stroke-miterlimit:4;stroke-dasharray:none;stroke-opacity:1"
       d="m 209.2224,193.54405 c -0.29492,3.04748 -0.51013,6.08889 -0.38999,9.18926 l 6.7435,6.74349 c -1.95263,-7.0325 -2.58433,-14.97525 1.07355,-23.29687 l -0.0566,-0.008 z m 8.53929,-5.30926 c -3.33321,8.64197 -1.90895,16.78578 0.56737,23.99518 l 4.67255,4.67254 c 0.8687,-0.73928 1.76117,-1.37282 2.68857,-1.90276 -0.87188,-0.17702 -1.71152,-0.42568 -2.41409,-0.79255 -0.98276,-0.5133 -1.825,-1.44723 -2.52684,-2.27045 -0.70176,-0.82318 -1.21396,-1.54742 -1.21396,-1.54742 l 1.49759,-1.05934 c 0,0 0.47049,0.6624 1.11359,1.4168 0.64342,0.75427 1.50892,1.58907 1.97884,1.8343 0.86792,0.45336 2.7134,0.79612 4.26613,0.94861 0.21159,0.0214 0.42365,0.0385 0.63562,0.0548 0.83587,-0.2415 1.70244,-0.41578 2.60908,-0.5241 4.37366,-0.52203 9.58255,0.39882 16.59358,2.26906 1.66877,-0.73143 3.66417,-2.24455 5.39357,-3.89402 -0.1731,-0.0321 -0.34443,-0.0777 -0.51085,-0.135 -1.011,-0.35191 -1.8994,-1.28185 -1.99511,-2.52926 -0.0908,-1.181 -0.0474,-2.63807 0.452,-3.96198 0.21835,-0.57913 0.55591,-1.13919 1.01147,-1.60388 l 0.0142,-0.0142 -5.82502,-3.19586 c -0.93778,-0.36203 -1.63145,-1.02212 -2.10486,-1.7689 -0.48641,-0.76749 -0.77712,-1.62176 -1.02714,-2.47352 -0.49884,-1.70119 -0.86963,-3.39717 -1.69146,-4.42345 -1.73404,-2.10177 -4.34607,-2.50276 -7.0788,-3.58633 l -0.25896,-0.10258 -0.156,-0.22868 c -2.40256,-3.47567 -2.98201,-7.80251 -3.51316,-12.21745 -3.9274,3.21417 -6.90324,9.11667 -9.26612,13.52 l -0.38501,0.71391 -0.75455,-0.29279 c -0.9587,-0.36983 -1.88305,-0.66792 -2.77441,-0.89873 z m 29.01068,11.7582 c 0.0285,0.008 0.052,0.0214 0.0801,0.0285 l -0.12859,-0.058 z m -12.88341,-24.36627 c -0.31844,0.31737 -0.62593,0.6461 -0.91573,0.99032 0.4924,3.62778 1.15619,6.93024 2.84994,9.51293 0.18379,0.0691 0.37122,0.13606 0.56088,0.2016 -0.61242,-4.19701 -0.88976,-8.6194 0.63559,-13.26202 -1.2369,0.84445 -2.26988,1.69959 -3.13079,2.55707 z m 20.0938,28.53918 c 3.09694,2.20377 1.85332,3.75472 0.60676,5.47564 0.81852,-0.46796 3.16334,-2.26788 2.7927,-3.79321 -0.29849,-1.22868 -2.37682,-1.55994 -3.39946,-1.68243 z m -17.13345,-10.39645 c 1.40074,0.5575 2.54634,1.54692 3.6897,2.56249 -0.90653,1.11366 -1.80883,1.18047 -2.92751,0.9771 -1.28451,-0.95883 -1.97776,-2.37831 -2.00426,-3.89617 0.43758,0.0798 0.85022,0.20053 1.24225,0.35662 z"
       inkscape:connector-curvature="0" />
    <path
       inkscape:connector-curvature="0"
       d="m 227.2108,235.99668 c -0.29492,3.04747 -0.51013,6.08889 -0.39,9.18926 l 6.7435,6.74349 c -1.95262,-7.0325 -2.58432,-14.97525 1.07356,-23.29687 l -0.0566,-0.008 z m 8.53929,-5.30927 c -3.33321,8.64198 -1.90896,16.78579 0.56737,23.99518 l 4.67254,4.67255 c 0.86871,-0.73928 1.76118,-1.37283 2.68858,-1.90277 -0.87188,-0.17702 -1.71152,-0.42568 -2.4141,-0.79255 -0.98276,-0.5133 -1.82499,-1.44722 -2.52683,-2.27044 -0.70176,-0.82319 -1.21396,-1.54742 -1.21396,-1.54742 l 1.49759,-1.05934 c 0,0 0.47049,0.6624 1.11359,1.4168 0.64342,0.75426 1.50892,1.58906 1.97884,1.8343 0.86792,0.45336 2.7134,0.79611 4.26613,0.9486 0.21158,0.0214 0.42365,0.0385 0.63562,0.0549 0.83587,-0.2415 1.70243,-0.41578 2.60908,-0.5241 4.37366,-0.52204 9.58255,0.39882 16.59358,2.26906 1.66877,-0.73144 3.66417,-2.24456 5.39357,-3.89403 -0.17311,-0.032 -0.34444,-0.0777 -0.51085,-0.13499 -1.011,-0.35192 -1.8994,-1.28185 -1.99511,-2.52926 -0.0908,-1.18101 -0.0474,-2.63808 0.452,-3.96199 0.21835,-0.57912 0.5559,-1.13919 1.01147,-1.60387 l 0.0142,-0.0143 -5.82502,-3.19586 c -0.93778,-0.36203 -1.63145,-1.02212 -2.10486,-1.7689 -0.48641,-0.76748 -0.77713,-1.62176 -1.02715,-2.47352 -0.49883,-1.70119 -0.86963,-3.39717 -1.69145,-4.42345 -1.73404,-2.10176 -4.34607,-2.50276 -7.07881,-3.58632 l -0.25895,-0.10258 -0.15601,-0.22868 c -2.40256,-3.47568 -2.982,-7.80251 -3.51315,-12.21746 -3.9274,3.21417 -6.90324,9.11667 -9.26612,13.52001 l -0.38501,0.7139 -0.75455,-0.29278 c -0.9587,-0.36984 -1.88305,-0.66792 -2.77442,-0.89874 z m 29.01068,11.7582 c 0.0285,0.008 0.052,0.0214 0.0801,0.0285 l -0.12858,-0.0581 z m -12.88342,-24.36626 c -0.31843,0.31736 -0.62593,0.64609 -0.91572,0.99031 0.4924,3.62778 1.15618,6.93025 2.84994,9.51293 0.18379,0.0691 0.37121,0.13607 0.56088,0.2016 -0.61243,-4.197 -0.88976,-8.61939 0.63559,-13.26202 -1.2369,0.84446 -2.26989,1.69959 -3.13079,2.55708 z m 20.0938,28.53917 c 3.09695,2.20377 1.85333,3.75472 0.60677,5.47564 0.81852,-0.46795 3.16334,-2.26787 2.7927,-3.79321 -0.29849,-1.22867 -2.37682,-1.55993 -3.39947,-1.68243 z m -17.13344,-10.39645 c 1.40074,0.55751 2.54633,1.54693 3.6897,2.5625 -0.90653,1.11365 -1.80883,1.18047 -2.92751,0.97709 -1.28451,-0.95882 -1.97776,-2.3783 -2.00426,-3.89617 0.43758,0.0798 0.85022,0.20054 1.24224,0.35662 z"
       style="font-style:italic;font-variant:normal;font-weight:normal;font-stretch:normal;font-size:medium;line-height:30.54940224px;font-family:'Archivo Narrow';-inkscape-font-specification:'Archivo Narrow Italic';text-align:center;letter-spacing:0px;word-spacing:0px;writing-mode:lr-tb;text-anchor:middle;display:inline;fill:#000000;fill-opacity:1;stroke:none;stroke-width:0.62827611;stroke-linecap:butt;stroke-linejoin:miter;stroke-miterlimit:4;stroke-dasharray:none;stroke-opacity:1"
       id="path5125" />
    <path
       id="path5127"
       style="font-style:italic;font-variant:normal;font-weight:normal;font-stretch:normal;font-size:medium;line-height:30.54940224px;font-family:'Archivo Narrow';-inkscape-font-specification:'Archivo Narrow Italic';text-align:center;letter-spacing:0px;word-spacing:0px;writing-mode:lr-tb;text-anchor:middle;display:inline;fill:#000000;fill-opacity:1;stroke:none;stroke-width:0.62827611;stroke-linecap:butt;stroke-linejoin:miter;stroke-miterlimit:4;stroke-dasharray:none;stroke-opacity:1"
       d="m 176.84328,232.03923 c -0.29493,3.04747 -0.51013,6.08889 -0.39,9.18926 l 6.7435,6.74349 c -1.95262,-7.0325 -2.58432,-14.97525 1.07356,-23.29687 l -0.0566,-0.008 z m 8.53929,-5.30927 c -3.33321,8.64198 -1.90896,16.78579 0.56737,23.99518 l 4.67254,4.67255 c 0.86871,-0.73928 1.76117,-1.37283 2.68857,-1.90277 -0.87187,-0.17702 -1.71151,-0.42568 -2.41409,-0.79255 -0.98276,-0.5133 -1.82499,-1.44722 -2.52683,-2.27044 -0.70177,-0.82319 -1.21396,-1.54742 -1.21396,-1.54742 l 1.49759,-1.05934 c 0,0 0.47049,0.6624 1.11359,1.4168 0.64341,0.75427 1.50891,1.58906 1.97884,1.8343 0.86792,0.45336 2.7134,0.79611 4.26613,0.9486 0.21158,0.0214 0.42365,0.0385 0.63562,0.0548 0.83586,-0.2415 1.70243,-0.41578 2.60907,-0.5241 4.37367,-0.52203 9.58256,0.39882 16.59359,2.26906 1.66876,-0.73144 3.66417,-2.24456 5.39357,-3.89403 -0.17311,-0.032 -0.34444,-0.0777 -0.51085,-0.13499 -1.01101,-0.35192 -1.89941,-1.28185 -1.99511,-2.52926 -0.0908,-1.18101 -0.0474,-2.63808 0.452,-3.96199 0.21835,-0.57912 0.5559,-1.13918 1.01146,-1.60387 l 0.0143,-0.0143 -5.82503,-3.19586 c -0.93777,-0.36202 -1.63144,-1.02212 -2.10485,-1.7689 -0.48642,-0.76748 -0.77713,-1.62176 -1.02715,-2.47352 -0.49883,-1.70119 -0.86963,-3.39717 -1.69146,-4.42345 -1.73403,-2.10176 -4.34606,-2.50276 -7.0788,-3.58632 l -0.25895,-0.10258 -0.15601,-0.22868 c -2.40256,-3.47567 -2.982,-7.80251 -3.51315,-12.21746 -3.9274,3.21418 -6.90324,9.11667 -9.26612,13.52001 l -0.38501,0.7139 -0.75455,-0.29278 c -0.95871,-0.36984 -1.88306,-0.66792 -2.77442,-0.89874 z m 29.01068,11.7582 c 0.0285,0.008 0.052,0.0214 0.0801,0.0285 l -0.12858,-0.058 z M 201.50983,214.1219 c -0.31843,0.31737 -0.62593,0.64609 -0.91572,0.99031 0.49239,3.62778 1.15618,6.93025 2.84994,9.51294 0.18378,0.0691 0.37121,0.13606 0.56088,0.20159 -0.61243,-4.197 -0.88976,-8.61939 0.63559,-13.26201 -1.2369,0.84445 -2.26989,1.69958 -3.13079,2.55707 z m 20.0938,28.53918 c 3.09695,2.20376 1.85332,3.75471 0.60677,5.47564 0.81852,-0.46796 3.16334,-2.26788 2.7927,-3.79322 -0.29849,-1.22867 -2.37682,-1.55993 -3.39947,-1.68242 z m -17.13345,-10.39646 c 1.40074,0.55751 2.54634,1.54693 3.6897,2.5625 -0.90652,1.11366 -1.80882,1.18047 -2.9275,0.97709 -1.28451,-0.95882 -1.97776,-2.3783 -2.00426,-3.89617 0.43758,0.0798 0.85022,0.20054 1.24224,0.35663 z"
       inkscape:connector-curvature="0" />
    <g
       id="g5201"
       transform="translate(-150.00765,-33.84011)">
      <rect
         style="font-style:italic;font-variant:normal;font-weight:normal;font-stretch:normal;font-size:medium;line-height:30.54940224px;font-family:'Archivo Narrow';-inkscape-font-specification:'Archivo Narrow Italic';text-align:center;letter-spacing:0px;word-spacing:0px;writing-mode:lr-tb;text-anchor:middle;opacity:1;vector-effect:none;fill:#000000;fill-opacity:1;stroke:none;stroke-width:0.77152652;stroke-linecap:butt;stroke-linejoin:miter;stroke-miterlimit:4;stroke-dasharray:none;stroke-dashoffset:0;stroke-opacity:1"
         id="rect5129"
         width="90.600525"
         height="35.801823"
         x="461.63974"
         y="230.73392"
         ry="1.2286005" />
      <path
         style="font-style:italic;font-variant:normal;font-weight:normal;font-stretch:normal;font-size:medium;line-height:30.54940224px;font-family:'Archivo Narrow';-inkscape-font-specification:'Archivo Narrow Italic';text-align:center;letter-spacing:0px;word-spacing:0px;writing-mode:lr-tb;text-anchor:middle;opacity:1;vector-effect:none;fill:#000000;fill-opacity:1;stroke:none;stroke-width:0.77152652;stroke-linecap:butt;stroke-linejoin:miter;stroke-miterlimit:4;stroke-dasharray:none;stroke-dashoffset:0;stroke-opacity:1"
         d="m 537.99258,212.98617 35.64865,35.64866 -35.64865,35.64865 z"
         id="rect5136"
         inkscape:connector-curvature="0"
         sodipodi:nodetypes="cccc" />
    </g>
    <g
       transform="translate(-59.093924,8.0812203)"
       id="g5211">
      <circle
         transform="scale(-1,1)"
         style="font-style:italic;font-variant:normal;font-weight:normal;font-stretch:normal;font-size:medium;line-height:30.54940224px;font-family:'Archivo Narrow';-inkscape-font-specification:'Archivo Narrow Italic';text-align:center;letter-spacing:0px;word-spacing:0px;writing-mode:lr-tb;text-anchor:middle;fill:#000000;fill-opacity:1;stroke:none;stroke-width:3.10677958;stroke-linecap:butt;stroke-linejoin:miter;stroke-miterlimit:4;stroke-dasharray:none;stroke-opacity:1"
         id="circle5207"
         cx="-659.98737"
         cy="180.0994"
         r="46.601688" />
      <path
         inkscape:connector-curvature="0"
         d="m 626.45167,178.07501 c -0.41404,4.27833 -0.71617,8.54816 -0.54751,12.90075 l 9.46716,9.46715 c -2.74128,-9.87289 -3.62812,-21.02367 1.50716,-32.70635 l -0.0795,-0.0106 z m 11.98826,-7.45365 c -4.67947,12.13242 -2.67997,23.56547 0.79653,33.6867 l 6.55976,6.55976 c 1.21957,-1.03787 2.4725,-1.9273 3.77447,-2.67128 -1.22402,-0.24852 -2.40279,-0.59761 -3.38913,-1.11266 -1.37969,-0.72062 -2.5621,-2.03175 -3.54741,-3.18746 -0.9852,-1.15567 -1.70427,-2.17242 -1.70427,-2.17242 l 2.10246,-1.4872 c 0,0 0.66052,0.92994 1.56336,1.98904 0.90329,1.05891 2.11836,2.23088 2.77808,2.57516 1.21847,0.63647 3.80933,1.11766 5.9892,1.33174 0.29704,0.03 0.59476,0.054 0.89234,0.077 1.17347,-0.33904 2.39004,-0.58371 3.66287,-0.73578 6.14016,-0.73288 13.45289,0.5599 23.29564,3.18552 2.34277,-1.02686 5.14411,-3.15112 7.572,-5.4668 -0.24302,-0.045 -0.48355,-0.10902 -0.71718,-0.18952 -1.41934,-0.49405 -2.66656,-1.79958 -2.80092,-3.55081 -0.12754,-1.65801 -0.0666,-3.70358 0.63456,-5.56221 0.30654,-0.81303 0.78043,-1.5993 1.41999,-2.25167 l 0.02,-0.02 -8.17772,-4.48665 c -1.31654,-0.50825 -2.29038,-1.43495 -2.955,-2.48335 -0.68287,-1.07747 -1.091,-2.27678 -1.442,-3.47256 -0.70031,-2.38829 -1.22087,-4.76927 -2.37463,-6.21006 -2.4344,-2.95065 -6.10142,-3.51361 -9.93789,-5.03482 l -0.36354,-0.14401 -0.21902,-0.32104 c -3.37294,-4.87948 -4.18642,-10.9539 -4.9321,-17.15202 -5.51365,4.51236 -9.69142,12.79884 -13.00865,18.98066 l -0.54051,1.00225 -1.05931,-0.41104 c -1.34592,-0.51921 -2.64361,-0.93769 -3.89499,-1.26173 z m 40.72793,16.50727 c 0.04,0.0106 0.073,0.03 0.11246,0.04 l -0.18052,-0.0815 z m -18.08695,-34.20766 c -0.44705,0.44555 -0.87874,0.90705 -1.28558,1.3903 0.69127,5.09302 1.62316,9.72933 4.00101,13.35515 0.25802,0.097 0.52115,0.19102 0.78742,0.28302 -0.85978,-5.89215 -1.24913,-12.10072 0.8923,-18.61847 -1.73648,1.18552 -3.18668,2.38604 -4.3953,3.58986 z m 28.20957,40.06599 c 4.34779,3.09386 2.60187,5.27123 0.85184,7.68722 1.14911,-0.65696 4.44099,-3.18386 3.92065,-5.32527 -0.41905,-1.72493 -3.3368,-2.18998 -4.77249,-2.36195 z m -24.05355,-14.59552 c 1.96649,0.78268 3.57479,2.17172 5.17995,3.59747 -1.27267,1.56346 -2.5394,1.65726 -4.10991,1.37174 -1.80332,-1.34609 -2.77657,-3.33889 -2.81377,-5.46981 0.61432,0.11206 1.19362,0.28153 1.74398,0.50066 z"
         style="font-style:italic;font-variant:normal;font-weight:normal;font-stretch:normal;font-size:medium;line-height:30.54940224px;font-family:'Archivo Narrow';-inkscape-font-specification:'Archivo Narrow Italic';text-align:center;letter-spacing:0px;word-spacing:0px;writing-mode:lr-tb;text-anchor:middle;display:inline;fill:#ffffff;fill-opacity:1;stroke:none;stroke-width:0.88203329;stroke-linecap:butt;stroke-linejoin:miter;stroke-miterlimit:4;stroke-dasharray:none;stroke-opacity:1"
         id="path5209" />
    </g>
    <g
       id="g5217"
       transform="translate(-123.23861,85.862966)">
      <circle
         r="46.601688"
         cy="180.0994"
         cx="-659.98737"
         id="circle5213"
         style="font-style:italic;font-variant:normal;font-weight:normal;font-stretch:normal;font-size:medium;line-height:30.54940224px;font-family:'Archivo Narrow';-inkscape-font-specification:'Archivo Narrow Italic';text-align:center;letter-spacing:0px;word-spacing:0px;writing-mode:lr-tb;text-anchor:middle;fill:#000000;fill-opacity:1;stroke:none;stroke-width:3.10677958;stroke-linecap:butt;stroke-linejoin:miter;stroke-miterlimit:4;stroke-dasharray:none;stroke-opacity:1"
         transform="scale(-1,1)" />
      <path
         id="path5215"
         style="font-style:italic;font-variant:normal;font-weight:normal;font-stretch:normal;font-size:medium;line-height:30.54940224px;font-family:'Archivo Narrow';-inkscape-font-specification:'Archivo Narrow Italic';text-align:center;letter-spacing:0px;word-spacing:0px;writing-mode:lr-tb;text-anchor:middle;display:inline;fill:#ffffff;fill-opacity:1;stroke:none;stroke-width:0.88203329;stroke-linecap:butt;stroke-linejoin:miter;stroke-miterlimit:4;stroke-dasharray:none;stroke-opacity:1"
         d="m 626.45167,178.07501 c -0.41404,4.27833 -0.71617,8.54816 -0.54751,12.90075 l 9.46716,9.46715 c -2.74128,-9.87289 -3.62812,-21.02367 1.50716,-32.70635 l -0.0795,-0.0106 z m 11.98826,-7.45365 c -4.67947,12.13242 -2.67997,23.56547 0.79653,33.6867 l 6.55976,6.55976 c 1.21957,-1.03787 2.4725,-1.9273 3.77447,-2.67128 -1.22402,-0.24852 -2.40279,-0.59761 -3.38913,-1.11266 -1.37969,-0.72062 -2.5621,-2.03175 -3.54741,-3.18746 -0.9852,-1.15567 -1.70427,-2.17242 -1.70427,-2.17242 l 2.10246,-1.4872 c 0,0 0.66052,0.92994 1.56336,1.98904 0.90329,1.05891 2.11836,2.23088 2.77808,2.57516 1.21847,0.63647 3.80933,1.11766 5.9892,1.33174 0.29704,0.03 0.59476,0.054 0.89234,0.077 1.17347,-0.33904 2.39004,-0.58371 3.66287,-0.73578 6.14016,-0.73288 13.45289,0.5599 23.29564,3.18552 2.34277,-1.02686 5.14411,-3.15112 7.572,-5.4668 -0.24302,-0.045 -0.48355,-0.10902 -0.71718,-0.18952 -1.41934,-0.49405 -2.66656,-1.79958 -2.80092,-3.55081 -0.12754,-1.65801 -0.0666,-3.70358 0.63456,-5.56221 0.30654,-0.81303 0.78043,-1.5993 1.41999,-2.25167 l 0.02,-0.02 -8.17772,-4.48665 c -1.31654,-0.50825 -2.29038,-1.43495 -2.955,-2.48335 -0.68287,-1.07747 -1.091,-2.27678 -1.442,-3.47256 -0.70031,-2.38829 -1.22087,-4.76927 -2.37463,-6.21006 -2.4344,-2.95065 -6.10142,-3.51361 -9.93789,-5.03482 l -0.36354,-0.14401 -0.21902,-0.32104 c -3.37294,-4.87948 -4.18642,-10.9539 -4.9321,-17.15202 -5.51365,4.51236 -9.69142,12.79884 -13.00865,18.98066 l -0.54051,1.00225 -1.05931,-0.41104 c -1.34592,-0.51921 -2.64361,-0.93769 -3.89499,-1.26173 z m 40.72793,16.50727 c 0.04,0.0106 0.073,0.03 0.11246,0.04 l -0.18052,-0.0815 z m -18.08695,-34.20766 c -0.44705,0.44555 -0.87874,0.90705 -1.28558,1.3903 0.69127,5.09302 1.62316,9.72933 4.00101,13.35515 0.25802,0.097 0.52115,0.19102 0.78742,0.28302 -0.85978,-5.89215 -1.24913,-12.10072 0.8923,-18.61847 -1.73648,1.18552 -3.18668,2.38604 -4.3953,3.58986 z m 28.20957,40.06599 c 4.34779,3.09386 2.60187,5.27123 0.85184,7.68722 1.14911,-0.65696 4.44099,-3.18386 3.92065,-5.32527 -0.41905,-1.72493 -3.3368,-2.18998 -4.77249,-2.36195 z m -24.05355,-14.59552 c 1.96649,0.78268 3.57479,2.17172 5.17995,3.59747 -1.27267,1.56346 -2.5394,1.65726 -4.10991,1.37174 -1.80332,-1.34609 -2.77657,-3.33889 -2.81377,-5.46981 0.61432,0.11206 1.19362,0.28153 1.74398,0.50066 z"
         inkscape:connector-curvature="0" />
    </g>
  </g>
</svg>
