<?xml version="1.0" encoding="UTF-8" standalone="no"?>
<!-- Created with Inkscape (http://www.inkscape.org/) -->

<svg
   xmlns:dc="http://purl.org/dc/elements/1.1/"
   xmlns:cc="http://creativecommons.org/ns#"
   xmlns:rdf="http://www.w3.org/1999/02/22-rdf-syntax-ns#"
   xmlns:svg="http://www.w3.org/2000/svg"
   xmlns="http://www.w3.org/2000/svg"
   xmlns:sodipodi="http://sodipodi.sourceforge.net/DTD/sodipodi-0.dtd"
   xmlns:inkscape="http://www.inkscape.org/namespaces/inkscape"
   width="825"
   height="1125"
   viewBox="0 0 825 1125"
   version="1.1"
   id="svg24"
   inkscape:version="0.92.0 r15299"
   sodipodi:docname="special_events_gates.svg">
  <defs
     id="defs18">
    <inkscape:path-effect
       effect="roughen"
       id="path-effect4747"
       is_visible="true"
       method="segments"
       max_segment_size="8"
       segments="2"
       displace_x="1;-694004061"
       displace_y="1;1"
       global_randomize="1;1"
       handles="along"
       shift_nodes="true"
       fixed_displacement="false"
       spray_tool_friendly="false" />
    <inkscape:path-effect
       effect="roughen"
       id="path-effect4745"
       is_visible="false"
       method="size"
       max_segment_size="4"
       segments="2"
       displace_x="1;1"
       displace_y="1;1826965067"
       global_randomize="1;1"
       handles="along"
       shift_nodes="true"
       fixed_displacement="false"
       spray_tool_friendly="false" />
  </defs>
  <sodipodi:namedview
     id="base"
     pagecolor="#ffffff"
     bordercolor="#666666"
     borderopacity="1.0"
     inkscape:pageopacity="0.0"
     inkscape:pageshadow="2"
     inkscape:zoom="0.7"
     inkscape:cx="250.83799"
     inkscape:cy="858.12663"
     inkscape:document-units="px"
     inkscape:current-layer="layer1"
     showgrid="false"
     units="px"
     showguides="true"
     inkscape:guide-bbox="true"
     inkscape:window-width="1920"
     inkscape:window-height="1017"
     inkscape:window-x="1672"
     inkscape:window-y="134"
     inkscape:window-maximized="1"
     inkscape:snap-global="false" />
  <metadata
     id="metadata21">
    <rdf:RDF>
      <cc:Work
         rdf:about="">
        <dc:format>image/svg+xml</dc:format>
        <dc:type
           rdf:resource="http://purl.org/dc/dcmitype/StillImage" />
        <dc:title></dc:title>
      </cc:Work>
    </rdf:RDF>
  </metadata>
  <g
     inkscape:label="Layer 1"
     inkscape:groupmode="layer"
     id="layer1"
     transform="translate(0,221.28127)">
    <path
       d="m 412.98949,1103.3571 5.58135,9.6672 -5.58135,9.6672 -11.1627,0 -5.58135,-9.6672 5.58135,-9.6672 z"
       inkscape:randomized="0"
       inkscape:rounded="0"
       inkscape:flatsided="true"
       sodipodi:arg2="-0.52359878"
       sodipodi:arg1="-1.0471976"
       sodipodi:r2="9.6671848"
       sodipodi:r1="11.162703"
       sodipodi:cy="1113.0243"
       sodipodi:cx="407.40814"
       sodipodi:sides="6"
       id="path5139"
       style="font-style:normal;font-weight:normal;font-size:medium;line-height:125%;font-family:sans-serif;letter-spacing:0px;word-spacing:0px;fill:none;fill-opacity:1;stroke:#000000;stroke-width:0.30441818;stroke-linecap:butt;stroke-linejoin:round;stroke-miterlimit:4;stroke-dasharray:1.21767266, 1.21767266;stroke-dashoffset:0;stroke-opacity:1"
       sodipodi:type="star"
       transform="matrix(0,-5.0009879,4.9836522,0,-5125.8965,2336.7346)" />
    <path
       sodipodi:nodetypes="scccccscs"
       inkscape:connector-curvature="0"
       d="m 400.90179,208.78612 c 2.59618,-13.84988 18.33195,-26.37435 30.7702,-24.96384 l -1.99612,-11.73103 33.91822,19.59838 -27.55201,17.85559 -2.16509,-12.74189 c -11.7906,-3.75957 -19.53351,19.92104 -19.9506,22.39145 -0.44401,2.62963 -3.94775,16.81809 6.56302,35.89868 -21.91496,-18.01066 -22.83054,-29.00795 -19.58762,-46.30734 z"
       id="path5141"
       style="fill:#000000;fill-opacity:1;stroke:none;stroke-width:0.59363818;stroke-opacity:1" />
    <path
       transform="matrix(0,-5.0009879,4.9836522,0,-5031.307,2206.4605)"
       sodipodi:type="star"
       style="font-style:normal;font-weight:normal;font-size:medium;line-height:125%;font-family:sans-serif;letter-spacing:0px;word-spacing:0px;fill:#b3b3b3;fill-opacity:1;stroke:#000000;stroke-width:0.30448636;stroke-linecap:butt;stroke-linejoin:round;stroke-miterlimit:4;stroke-dasharray:none;stroke-dashoffset:0;stroke-opacity:1"
       id="path5143"
       sodipodi:sides="6"
       sodipodi:cx="407.40814"
       sodipodi:cy="1113.0243"
       sodipodi:r1="11.162703"
       sodipodi:r2="9.6671848"
       sodipodi:arg1="-1.0471976"
       sodipodi:arg2="-0.52359878"
       inkscape:flatsided="true"
       inkscape:rounded="0"
       inkscape:randomized="0"
       d="m 412.98949,1103.3571 5.58135,9.6672 -5.58135,9.6672 -11.1627,0 -5.58135,-9.6672 5.58135,-9.6672 z" />
    <path
       style="fill:#000000;fill-opacity:1;stroke:none;stroke-width:11.18285942;stroke-linecap:round;stroke-linejoin:round;stroke-miterlimit:4;stroke-dasharray:none;stroke-dashoffset:0;stroke-opacity:1"
       d="m 513.02024,129.17384 c -1.01254,0.0274 -2.56987,0.4597 -2.40635,1.08953 0.52786,0.56284 0.84883,1.36511 1.22445,2.08666 0.83774,1.60912 1.48164,3.4217 1.99779,5.5684 0.47603,0.33524 0.64781,0.28526 1.34644,0.12789 0.46643,-0.10478 0.86866,-0.1662 1.01599,-0.52935 0.20949,-0.59261 0.34931,-1.17412 0.51398,-1.77164 0.1827,-0.66283 0.39545,-1.3433 0.76621,-2.02629 0.7648,-1.40859 1.54613,-2.5772 1.96578,-3.67832 0.15473,-0.45389 -1.04906,-0.64312 -1.53476,-0.64539 -1.03989,-0.006 -2.36322,0.0309 -4.30343,-0.17416 -0.14757,-0.0394 -0.35249,-0.0538 -0.5861,-0.0473 z m -3.60476,0.62529 c -0.11786,-0.0121 -0.2346,0.009 -0.33986,0.0663 -1.40573,0.76307 -2.7845,0.18504 -3.8297,1.17005 -0.34876,0.32869 -0.4427,0.87451 -0.11004,1.2198 2.02227,2.10066 2.14705,2.78247 3.9683,6.17236 1.33424,0.9421 2.81887,0.22015 3.23049,0.0451 0.43812,-0.19338 0.75996,-0.59474 0.62171,-1.05398 -0.26803,-2.96695 -1.48556,-4.42253 -2.82789,-6.93029 -0.006,-0.35966 -0.35832,-0.65774 -0.71167,-0.68804 v -8.5e-4 z m 10.9373,0.33278 c -0.35335,0.0303 -0.70538,0.32955 -0.71169,0.68924 -1.34232,2.50774 -2.5598,3.96336 -2.82792,6.93027 -0.13824,0.45925 0.18232,0.86049 0.62058,1.054 2.21838,0.97967 1.46346,0.2974 2.44537,0.45594 0.47282,0.0762 0.80804,-0.0787 1.03499,-0.50093 1.82126,-3.38992 1.94595,-4.07171 3.96827,-6.17236 0.33235,-0.34527 0.23852,-0.89112 -0.11004,-1.2198 -1.04523,-0.98509 -2.67276,-0.40696 -4.07841,-1.17003 -0.10512,-0.0574 -0.22331,-0.0766 -0.34106,-0.0663 z m -16.76477,1.57743 c -0.1177,0.012 -0.23065,0.0502 -0.32443,0.12432 -1.25387,0.99375 -2.95724,0.70295 -3.8179,1.85335 -0.28716,0.38381 -0.29463,0.95007 0.10064,1.22097 2.43925,1.67163 3.03732,2.11767 4.96892,5.39783 1.47598,0.69836 3.06119,-0.31068 3.43657,-0.55421 0.3984,-0.26606 0.64596,-0.71774 0.43102,-1.14638 -0.77316,-2.87661 -2.22266,-4.1012 -3.97534,-6.34052 -0.0678,-0.35323 -0.46612,-0.58633 -0.81949,-0.5554 z m 22.51767,0.59452 c -0.35381,-0.0258 -0.74845,0.21303 -0.81119,0.56726 -1.71977,2.26476 -3.15076,3.51092 -3.88186,6.39854 -0.2087,0.43171 0.0448,0.87903 0.44764,1.13926 0.37895,0.23802 1.97803,1.2232 3.44364,0.5033 2.33136,-3.06041 2.56241,-3.71339 4.88964,-5.46891 0.38252,-0.28855 0.37558,-0.84256 0.0829,-1.22216 -0.87736,-1.1377 -2.57572,-0.82242 -3.84393,-1.7977 -0.0947,-0.0734 -0.20894,-0.11105 -0.32682,-0.11965 z m -27.91408,2.24534 c -0.18075,0.006 -0.35526,0.0722 -0.47366,0.20724 -1.05434,1.204 -2.78176,1.22712 -3.42119,2.5142 -0.21329,0.42944 -0.1157,0.97996 0.31856,1.18186 2.67372,1.24297 3.73858,1.54981 6.07968,4.36755 1.57756,0.42025 2.73457,-0.8153 3.06001,-1.12266 0.34397,-0.3337 0.5053,-0.82166 0.21667,-1.2044 -1.27839,-2.68971 -2.92349,-3.63274 -5.05061,-5.51864 -0.10848,-0.27932 -0.42813,-0.43552 -0.72946,-0.42515 z m 33.2418,0.79937 c -0.30128,-0.012 -0.62081,0.14577 -0.72947,0.42515 -2.12714,1.88592 -3.77215,2.82771 -5.05066,5.51746 -0.28855,0.38276 -0.12731,0.8719 0.21674,1.20559 0.32531,0.30735 1.70269,1.58671 3.28024,1.16649 2.88172,-2.54699 3.23543,-3.64319 5.8594,-4.91112 0.43129,-0.20842 0.53193,-0.75248 0.31858,-1.1819 -0.63938,-1.28707 -2.36687,-0.81046 -3.42117,-2.01442 -0.11859,-0.13511 -0.29281,-0.20103 -0.47366,-0.20725 z m -37.84718,3.09447 c -0.30145,-0.0208 -0.62481,0.12371 -0.74013,0.40028 -0.61601,1.47793 -1.90587,1.93634 -2.44537,3.26856 -0.17997,0.44448 -0.0416,0.9891 0.40736,1.15464 0.82077,0.30224 4.65341,1.82628 5.41183,2.243 0.79459,0.43657 0.51259,0.49666 1.85683,1.05397 0.43566,0.18075 0.82217,0.16231 1.06341,-0.057 0.82028,-0.74481 1.41635,-1.45394 1.87934,-2.14706 0.21978,-0.42615 -0.16484,-0.79172 -0.56011,-1.0623 -2.06791,-2.14073 -3.78782,-3.52489 -6.40418,-4.63279 -0.11534,-0.13812 -0.28807,-0.20911 -0.46898,-0.22146 z m 43.54787,0.0474 c -0.18095,0.0135 -0.35378,0.0834 -0.46892,0.22144 -2.61642,1.10801 -4.869,3.02486 -6.93706,5.16577 -0.82807,0.6081 0.98143,3.49774 2.56032,3.36449 2.27888,-1.6097 4.77886,-2.61824 7.79909,-3.73044 0.44948,-0.16563 0.58738,-0.71014 0.40739,-1.15465 -0.5395,-1.33219 -2.00465,-1.9896 -2.62067,-3.4675 -0.11535,-0.27664 -0.43863,-0.41972 -0.74009,-0.39911 z m -23.44601,1.09308 c -1.22712,0.0729 -2.41275,0.24258 -3.54433,0.50567 v 4.06319 h -3.78471 v -2.76406 c -1.29763,0.60278 -2.4871,1.33549 -3.54433,2.17904 v 0.58502 h -0.68799 c -1.17807,1.05249 -2.16744,2.24797 -2.93089,3.5504 h 3.61888 v 4.58073 h -6.83877 c -0.14653,1.23294 0.31516,2.56106 0.54949,3.8536 h 6.28928 v 3.91277 h -6.13061 c -0.25493,1.36081 -0.0545,2.60809 0.15164,3.85357 h 5.97903 v 3.63922 h -5.54564 c -0.25104,1.33459 -0.16191,2.60145 0,3.85354 h 5.54564 v 3.0944 h -5.60839 c -0.28174,1.2845 0.34961,2.56922 0.53174,3.85373 h 5.07665 v 3.4994 h -5.12286 c 0,0 -0.81517,0.29007 -0.842,0.43705 l 0.18833,3.11344 h 5.77652 v 4.6445 l 1.58332,4.97517 c -7.42992,-0.54128 -14.92347,0.69411 -22.69646,-0.37547 -0.0473,0 -0.0947,-0.0195 -0.14097,-0.0195 -0.6962,0 -1.24576,0.67912 -1.24576,1.40099 v 1.21521 c 0,0.77 0.6209,1.32314 1.38673,1.39013 4.43905,0.38889 8.79638,0.71215 13.09848,0.78282 12.74137,0.24814 28.26532,0.19223 42.8267,-0.0564 4.55364,-0.0952 7.28156,-0.62945 11.90841,-0.72593 0.76851,-0.0195 1.38786,-0.62033 1.38786,-1.39034 v -1.21519 c 0,-0.77001 -0.6209,-1.44098 -1.38786,-1.39033 -2.89976,0.1922 -5.80685,0.55566 -8.72643,0.47975 -4.61199,-0.12041 -9.34175,0 -14.12285,0.1339 l 1.66029,-5.21417 v -4.6447 h 5.24361 l -0.15279,-2.51428 c 0,-0.3359 -0.0479,-0.68149 -0.13601,-1.03619 h -4.9547 v -3.49943 h 5.57995 c 0.28711,-1.65339 0.54223,-3.26118 0.0935,-3.85353 h -5.67351 v -3.0946 h 5.36087 c 0.24206,-1.26432 0.70841,-2.51 0,-3.85354 h -5.36087 v -3.63918 h 5.42366 c 0.23772,-1.28702 0.46436,-2.53347 0.34337,-3.85361 h -5.76703 v -3.91277 h 5.799 c 0.1524,-1.27071 0.41895,-2.52704 0.12445,-3.85359 h -5.92336 v -4.5807 h 2.70472 c -1.58243,-1.79642 -3.80932,-3.55866 -6.24905,-4.98219 v 1.43178 h -3.78471 v -3.28396 c -1.19959,-0.47594 -2.39537,-0.83846 -3.54432,-1.06463 v 4.34859 h -3.78473 v -4.56887 z m 27.80627,3.97437 c -0.11859,0.003 -0.2336,0.0379 -0.33152,0.10646 -2.44361,0.87367 -5.0254,2.25849 -8.03485,3.19277 -0.45181,0.15882 -0.58648,0.65525 -0.48433,1.12387 0.51746,2.37259 1.20439,2.10364 1.3417,3.05658 0.0687,0.4747 0.73082,0.76126 1.12261,0.48553 2.27693,-1.60233 4.51207,-2.90676 8.03362,-3.19159 0.47721,-0.0387 0.63491,-0.66814 0.48551,-1.12384 -0.44789,-1.36584 -1.1297,-1.4693 -1.34284,-3.05658 -0.0479,-0.35653 -0.43416,-0.60692 -0.7899,-0.59331 z m -52.30032,0.0474 c -0.35572,-0.0135 -0.74315,0.23678 -0.79106,0.59332 -0.21311,1.58725 -0.84993,1.51427 -1.29788,2.88011 -0.14953,0.45573 0.0247,0.98932 0.48432,1.12386 3.08873,0.90423 5.76221,1.52034 8.14498,2.97131 0.40921,0.24916 1.05303,-0.0135 1.12143,-0.48673 0.1375,-0.95292 0.67144,-0.28609 1.18891,-2.65867 0.1021,-0.46858 -0.0333,-0.96497 -0.48547,-1.12385 -2.55068,-1.53182 -5.22011,-2.80087 -8.03365,-3.19277 -0.0976,-0.0689 -0.21297,-0.1021 -0.33158,-0.10658 z m 17.16501,4.09753 h 3.78471 v 4.58073 h -3.78471 z m 7.32904,0 h 3.7847 v 4.58073 h -3.7847 z m 7.32903,0 h 3.78475 v 4.58073 h -3.78475 z m 22.77821,0.86095 c -0.11875,8.5e-4 -0.23435,0.033 -0.33399,0.0993 -2.82255,0.32063 -5.52444,1.52103 -8.113,2.9879 -0.45561,0.14713 -0.55912,0.63343 -0.51275,1.11083 0.13092,1.3444 0.0197,2.008 -0.14216,2.9571 -0.0802,0.47279 0.3643,0.45573 0.83016,0.3446 2.71265,-0.64712 5.49668,-0.19103 8.71335,-0.10064 0.47864,0.0135 0.80729,-0.44051 0.80528,-0.92016 -0.007,-1.43761 -0.29825,-4.27351 -0.4713,-5.86562 -0.0387,-0.35764 -0.41972,-0.61807 -0.77566,-0.61349 z m -57.2764,0.27603 c -0.3551,0.0195 -0.71744,0.30294 -0.73303,0.66198 -0.0694,1.60007 -0.17647,4.09664 -0.09,5.53167 0.0286,0.47881 0.3877,0.91035 0.86448,0.86569 3.20388,-0.30009 5.89341,-0.46886 8.6423,0 0.47209,0.0803 0.97559,-0.39913 0.86449,-0.86569 -0.22299,-0.93649 -0.37814,-1.23874 -0.33511,-2.58879 0.0154,-0.47943 -0.11935,-0.95796 -0.58381,-1.07531 -2.67833,-1.29493 -5.45207,-2.31669 -8.28946,-2.4526 -0.10333,-0.0598 -0.2205,-0.0828 -0.33868,-0.0769 v 0 z m 4.51655,7.28317 c -1.45215,-0.0195 -2.86744,0.0773 -4.20989,0.33986 -0.46562,-0.11186 -0.76072,0.39746 -0.86446,0.86571 -0.32474,1.4652 -0.32718,2.73301 0,4.19821 0.10467,0.46812 0.38936,0.9246 0.86446,0.86451 3.20947,-0.40607 5.83188,-0.31027 8.64353,0 0.47597,0.0523 0.97557,-0.39791 0.86449,-0.86451 -0.223,-0.93652 0.39217,-1.80167 0,-4.19821 -0.0776,-0.47336 -0.38599,-0.88484 -0.86449,-0.86571 -1.49218,-0.19143 -2.98152,-0.32206 -4.43364,-0.33986 z m 48.87685,0 c -1.45212,0.0195 -2.94147,0.14849 -4.43368,0.33986 -0.47844,-0.0195 -0.78696,0.39235 -0.86445,0.86571 -0.39212,2.39654 0.223,3.45945 0,4.39596 -0.11104,0.46656 0.38715,0.90463 0.86445,0.8657 2.84253,-0.23192 5.46184,-0.57908 8.6435,0 0.47107,0.0856 0.75994,-0.39759 0.86446,-0.8657 0.32719,-1.46518 0.32473,-2.93076 0,-4.39596 -0.10389,-0.46825 -0.39884,-0.97744 -0.86446,-0.86571 -1.34254,-0.26251 -2.75766,-0.35767 -4.20982,-0.33986 z m -33.55328,0.0135 h 3.78472 v 3.91279 h -3.78472 z m 7.32904,0 h 3.7847 v 3.91279 h -3.7847 z m 7.32903,0 h 3.78475 v 3.91279 h -3.78475 z m 18.84779,6.4838 c -1.4521,0.0195 -2.94149,0.14982 -4.43366,0.34107 -0.47845,-0.0195 -0.69461,0.4172 -0.86443,0.8657 -0.83942,2.21735 0.0775,3.10616 0,4.10101 -0.0369,0.47821 0.38706,0.82807 0.86443,0.86573 2.8876,0.22812 5.54044,0.5879 8.64352,0 0.47051,-0.0894 0.75994,-0.39763 0.8645,-0.86573 0.32714,-1.46508 0.32474,-2.63581 0,-4.10101 -0.10389,-0.46824 -0.39888,-0.97751 -0.8645,-0.8657 -1.34248,-0.26256 -2.75775,-0.35889 -4.20986,-0.34107 z m -48.69447,0.11127 c -1.452,-0.0195 -2.89594,0.0412 -4.2974,0.22973 -0.46567,-0.11187 -0.76077,0.39746 -0.8645,0.8657 -0.32474,1.46529 -0.32716,2.93076 0,4.39602 0.10445,0.46811 0.38724,0.82574 0.8645,0.86572 3.10319,0.26019 5.75473,0.1767 8.6423,0 0.47795,-0.0293 0.9028,-0.38752 0.86561,-0.86572 -0.0775,-0.99483 0.83945,-2.17858 0,-4.39602 -0.16948,-0.44849 -0.38711,-0.88491 -0.86561,-0.8657 -1.4337,-0.11829 -2.8929,-0.21211 -4.3449,-0.22973 z m 15.18861,1.17124 h 3.78472 v 3.6393 h -3.78472 z m 7.32904,0 h 3.7847 v 3.6393 h -3.7847 z m 7.32903,0 h 3.78475 v 3.6393 h -3.78475 z m 23.23057,5.30788 c -0.0571,0 -0.11466,1.9e-4 -0.17297,0.0195 -3.06541,0.73603 -5.71154,0.11845 -8.64353,0 -0.47845,-0.0195 -0.89295,0.38694 -0.8644,0.86574 0.13179,2.2174 0.24118,3.39999 0,4.39483 -0.11292,0.46615 0.38577,0.85271 0.8644,0.86573 2.56367,0.0699 5.37227,0.39276 8.64353,0 0.4754,-0.0564 0.78024,-0.39354 0.86446,-0.86573 0.2612,-1.46527 -0.17141,-2.92957 0,-4.39483 0.0487,-0.41686 -0.29339,-0.85234 -0.69155,-0.87992 v 0 z m -57.54882,0.2617 v 0 c -0.39818,0.0272 -0.73907,0.46423 -0.69033,0.88107 0.17143,1.46508 -0.26126,2.66435 0,4.12943 0.0842,0.47219 0.38609,0.84437 0.86446,0.86573 3.27124,0.14758 6.07872,-0.42986 8.64234,0 0.47232,0.0795 0.97864,-0.39957 0.86561,-0.86573 -0.24117,-0.99484 -0.13196,-1.9122 0,-4.12943 0.0284,-0.47878 -0.38711,-0.88612 -0.86561,-0.86688 -2.93202,0.1165 -5.57693,0.73582 -8.64234,0 -0.0582,-0.0195 -0.1171,-0.0195 -0.17414,-0.0195 z m 19.66018,1.92328 h 3.78472 v 3.09441 h -3.78472 z m 7.32904,0 h 3.7847 v 3.09441 h -3.7847 z m 7.32903,0 h 3.78475 v 3.09441 h -3.78475 z m -27.69379,4.18864 v 8.5e-4 c -2.14793,0 -4.19525,0.33706 -6.45033,0.13782 -0.47696,-0.0427 -0.79468,0.39238 -0.86446,0.8669 -0.21556,1.46526 -0.62657,2.92956 0,4.39484 0.18852,0.44091 0.38578,0.72535 0.86446,0.71175 3.27124,-0.0933 6.82261,-0.38538 8.86255,0.0446 0.46854,0.0991 0.85617,-0.38616 0.86569,-0.86553 0.0206,-0.99503 0.23621,-2.06733 -0.22029,-4.28475 -0.0969,-0.46968 -0.39131,-0.80107 -0.86561,-0.86689 -0.74966,-0.10478 -1.47609,-0.13978 -2.19201,-0.13783 z m 42.10792,0.13783 c -0.47802,-0.0293 -0.76771,0.39703 -0.86443,0.86689 -0.45649,2.21721 -0.0206,3.3998 0,4.39484 0.009,0.47956 0.38675,0.89932 0.86443,0.86553 2.56361,-0.18056 5.3723,-0.0933 8.64352,0 0.47864,0.0195 0.67599,-0.42462 0.8645,-0.86553 0.62654,-1.46527 0.21556,-2.92955 0,-4.39484 -0.0699,-0.4745 -0.38912,-0.92396 -0.8645,-0.86689 -3.00678,0.36093 -5.64487,0.17862 -8.64352,0 z m -29.0722,2.62067 h 3.78472 v 3.49961 h -3.78472 z m 7.32904,0 h 3.7847 v 3.49961 h -3.7847 z m 7.32903,0 h 3.78475 v 3.49961 h -3.78475 z m -27.69379,3.56833 c -2.14793,0 -4.19525,0.33821 -6.45033,0.13783 -0.47696,-0.0427 -0.79468,0.39122 -0.86446,0.86573 -0.21556,1.46527 -0.62657,2.6655 0,4.13077 0.18852,0.44093 0.39145,0.79119 0.86446,0.86554 3.27124,0.51528 6.07872,0.0641 8.64234,0 0.47867,-0.0195 0.85611,-0.38598 0.86561,-0.86554 0.0206,-0.99502 0.4565,-1.91337 0,-4.13077 -0.0969,-0.46967 -0.39131,-0.79972 -0.86561,-0.86573 -0.74966,-0.10479 -1.47609,-0.13978 -2.19201,-0.13783 z m 42.10792,0.13783 c -0.47731,-0.0388 -0.76771,0.39606 -0.86443,0.86573 -0.45649,2.2174 -0.0206,3.40117 0,4.39598 0.009,0.47956 0.38574,0.8537 0.86443,0.86573 2.56361,0.0642 5.3723,0.51528 8.64352,0 0.47297,-0.0737 0.67599,-0.4248 0.8645,-0.86573 0.62654,-1.46527 0.21556,-2.93071 0,-4.39598 -0.0699,-0.47451 -0.38878,-0.92051 -0.8645,-0.86573 -1.49484,0.17277 -2.81935,0.0776 -4.22405,0.0661 -1.42606,-0.0195 -2.93244,0.0543 -4.41947,-0.0661 z m -29.0722,3.34329 h 3.78472 v 4.64452 l 1.70526,5.35648 c -2.34706,-0.0543 -4.70287,-0.16502 -7.06729,-0.35646 -0.006,-2.5e-4 -0.007,-5.6e-4 -0.0135,-8.5e-4 l 1.59034,-4.99885 v -4.64472 z m 7.32904,0 h 3.7847 v 4.64452 l 1.71121,5.37532 c -2.3876,0.033 -4.78761,0.0387 -7.19996,-0.0194 l 1.70405,-5.35881 v -4.64452 z m 7.32903,0 h 3.78475 v 4.64452 l 1.66024,5.2202 c -2.37382,0.0642 -4.74835,0.11844 -7.15381,0.15336 l 1.70882,-5.37296 v -4.64455 z m -34.31466,2.97597 v 8.5e-4 c -0.37861,0.0409 -0.63289,0.45646 -0.69392,0.87154 -0.21556,1.46528 -0.62657,2.93075 0,4.39601 0.18852,0.44092 0.39781,0.75837 0.86446,0.86574 2.50604,0.57741 5.4941,0.0523 8.64234,0 0.47879,0 0.85611,-0.38618 0.86561,-0.86574 0.0206,-0.99483 0.4565,-2.17858 0,-4.39601 -0.0969,-0.46964 -0.38985,-0.91891 -0.86561,-0.86436 -2.75511,0.31549 -5.53849,0.5578 -8.64234,0 -0.0589,-0.0195 -0.1165,-0.0195 -0.17064,0 z m 57.54167,0.17669 c -0.054,0 -0.11071,0 -0.16931,0 -3.10383,0.5578 -5.88843,0.3155 -8.64353,0 -0.47577,-0.0543 -0.76769,0.39589 -0.86443,0.86553 -0.45649,2.21741 -0.0206,3.40116 0,4.39601 0.009,0.47954 0.39037,0.93329 0.86443,0.86572 2.8811,-0.41083 5.76247,-0.0738 8.64353,0 0.47865,0.0195 0.676,-0.42482 0.8645,-0.86572 0.62656,-1.46508 0.21551,-2.93074 0,-4.39601 -0.0609,-0.41509 -0.31666,-0.83193 -0.69519,-0.87271 v -8.6e-4 z"
       id="path5145"
       inkscape:connector-curvature="0" />
    <path
       d="m 412.98949,1103.3571 5.58135,9.6672 -5.58135,9.6672 -11.1627,0 -5.58135,-9.6672 5.58135,-9.6672 z"
       inkscape:randomized="0"
       inkscape:rounded="0"
       inkscape:flatsided="true"
       sodipodi:arg2="-0.52359878"
       sodipodi:arg1="-1.0471976"
       sodipodi:r2="9.6671848"
       sodipodi:r1="11.162703"
       sodipodi:cy="1113.0243"
       sodipodi:cx="407.40814"
       sodipodi:sides="6"
       id="path5147"
       style="font-style:normal;font-weight:normal;font-size:medium;line-height:125%;font-family:sans-serif;letter-spacing:0px;word-spacing:0px;fill:#b3b3b3;fill-opacity:1;stroke:#000000;stroke-width:0.30448636;stroke-linecap:butt;stroke-linejoin:round;stroke-miterlimit:4;stroke-dasharray:none;stroke-dashoffset:0;stroke-opacity:1"
       sodipodi:type="star"
       transform="matrix(0,-5.0009879,4.9836522,0,-5024.6689,2336.7346)" />
    <path
       transform="matrix(0,-5.0009879,4.9836522,0,-5227.1239,2336.7346)"
       sodipodi:type="star"
       style="font-style:normal;font-weight:normal;font-size:medium;line-height:125%;font-family:sans-serif;letter-spacing:0px;word-spacing:0px;fill:#b3b3b3;fill-opacity:1;stroke:#000000;stroke-width:0.30448636;stroke-linecap:butt;stroke-linejoin:round;stroke-miterlimit:4;stroke-dasharray:none;stroke-dashoffset:0;stroke-opacity:1"
       id="path5149"
       sodipodi:sides="6"
       sodipodi:cx="407.40814"
       sodipodi:cy="1113.0243"
       sodipodi:r1="11.162703"
       sodipodi:r2="9.6671848"
       sodipodi:arg1="-1.0471976"
       sodipodi:arg2="-0.52359878"
       inkscape:flatsided="true"
       inkscape:rounded="0"
       inkscape:randomized="0"
       d="m 412.98949,1103.3571 5.58135,9.6672 -5.58135,9.6672 -11.1627,0 -5.58135,-9.6672 5.58135,-9.6672 z" />
    <g
       class=""
       id="g4535"
       transform="matrix(0.16510497,-0.03544699,0.03544699,0.16510497,613.40448,-11.392754)"
       style="fill:#f40000;fill-opacity:1;stroke-width:5.92181206">
      <path
         style="fill:#f40000;fill-opacity:1;stroke-width:5.92181206"
         inkscape:connector-curvature="0"
         d="m 425.344,22.22 c -9.027,0.085 -18.7,5.826 -24.344,19.405 -11.143,26.803 -31.93,59.156 -58.563,93.47 10.57,8.694 19.85,18.92 27.5,30.31 35.1,-26.57 68.882,-46.81 98.125,-56.75 44.6,-15.16 12.02,-69.72 -35.343,-35.343 26.91,-27.842 11.107,-51.27 -7.376,-51.093 z M 84.124,22.25 C 65.624,22.628 46.52,46.212 67.781,72.125 31.523,38.635 -0.802,85.48 37.095,102.813 c 28.085,12.844 62.54,35.66 99.062,64.343 8.125,-12.5 18.207,-23.61 29.78,-32.937 -26.782,-35.743 -48.44,-69.835 -61.78,-98.47 -4.515,-9.69 -12.22,-13.66 -20.03,-13.5 z m 169.5,99.688 c -67.104,0 -121.31,54.21 -121.31,121.312 0,44.676 24.04,83.613 59.905,104.656 v 56.406 h 18.718 v -47.468 c 5.203,1.95 10.576,3.552 16.093,4.78 v 42.688 h 18.69 v -40.03 c 2.614,0.167 5.247,0.25 7.905,0.25 2.637,0 5.25,-0.086 7.844,-0.25 v 40.03 h 18.686 v -42.687 c 5.52,-1.226 10.89,-2.834 16.094,-4.78 v 47.467 h 18.688 V 347.97 c 35.92,-21.03 60,-60.003 60,-104.72 0,-67.105 -54.208,-121.313 -121.313,-121.313 z m -66.874,88.218 c 19.88,0 36,16.12 36,36 0,19.88 -16.12,36 -36,36 -19.88,0 -36,-16.12 -36,-36 0,-19.88 16.12,-36 36,-36 z m 133.563,0 c 19.878,0 36,16.12 36,36 0,19.88 -16.122,36 -36,36 -19.88,0 -36,-16.12 -36,-36 0,-19.88 16.12,-36 36,-36 z m -66.72,52.344 29.938,48.188 H 223.657 L 253.595,262.5 Z m -107.28,70.563 c -40.263,32.472 -78.546,58.41 -109.22,72.437 -37.896,17.334 -5.57,64.146 30.688,30.656 -30.237,36.854 21.167,69.05 36.376,36.406 15.072,-32.352 40.727,-71.7 72.438,-112.5 -11.352,-7.506 -21.564,-16.603 -30.28,-27 z m 213.156,1.718 c -8.155,9.415 -17.542,17.72 -27.908,24.69 31.846,39.39 56.82,76.862 69.438,107.217 17.203,41.383 71.774,9.722 31.72,-31.718 47.363,34.376 79.94,-20.185 35.342,-35.345 -32.146,-10.926 -69.758,-34.3 -108.593,-64.844 z"
         id="path4533" />
    </g>
    <g
       style="fill:#f40000;fill-opacity:1;stroke-width:3.2077558"
       transform="matrix(0.30128948,0.08005774,-0.08005774,0.30128948,-1.5950165,-67.854516)"
       id="g4537"
       class="">
      <path
         id="path4535"
         d="m 676.18894,41.118869 c -4.88979,0.04604 -10.1295,3.155856 -13.18677,10.511394 -6.036,14.518779 -17.296,32.043908 -31.72269,50.631277 5.72561,4.70941 10.75244,10.24868 14.89633,16.41847 19.01314,-14.39256 37.31234,-25.356266 53.15282,-30.740613 24.15915,-8.211942 6.51106,-37.766266 -19.14476,-19.144767 14.57674,-15.081589 6.01649,-27.772181 -3.99547,-27.676303 z m -184.8337,0.01625 c -10.02116,0.204757 -20.36951,12.979852 -8.85275,27.016531 -19.64041,-18.141025 -37.15037,7.234201 -16.62214,16.623224 15.21322,6.9574 33.87697,19.316486 53.66038,34.853626 4.40119,-6.77106 9.86246,-12.78918 16.13138,-17.84147 -14.50741,-19.361443 -26.23922,-37.828562 -33.46529,-53.339707 -2.44571,-5.248926 -6.61939,-7.399415 -10.84995,-7.312745 z m 91.81558,53.999478 c -36.34922,0 -65.71178,29.364733 -65.71178,65.712873 0,24.20031 13.0221,45.29189 32.44963,56.69056 v 30.55428 h 10.13925 v -25.7127 c 2.81839,1.05629 5.72886,1.92407 8.71734,2.58926 v 23.12344 h 10.12409 v -21.68364 c 1.41596,0.0905 2.84222,0.13542 4.28202,0.13542 1.42842,0 2.84384,-0.0466 4.24897,-0.13542 v 21.68364 h 10.12192 v -23.1229 c 2.9901,-0.66411 5.89895,-1.53514 8.71788,-2.58925 v 25.71215 h 10.12301 V 217.5727 c 19.45731,-11.39163 32.50109,-32.50271 32.50109,-56.72523 0,-36.34976 -29.36366,-65.713415 -65.71342,-65.713415 z m -36.22463,47.786353 c 10.7687,0 19.50066,8.73196 19.50066,19.50065 0,10.7687 -8.73196,19.50066 -19.50066,19.50066 -10.76869,0 -19.50065,-8.73196 -19.50065,-19.50066 0,-10.76869 8.73196,-19.50065 19.50065,-19.50065 z m 72.34905,0 c 10.76761,0 19.50066,8.73196 19.50066,19.50065 0,10.7687 -8.73305,19.50066 -19.50066,19.50066 -10.76869,0 -19.50065,-8.73196 -19.50065,-19.50066 0,-10.76869 8.73196,-19.50065 19.50065,-19.50065 z m -36.14121,28.35395 16.21696,26.10271 h -32.43284 l 16.21696,-26.10271 z m -58.11195,38.22291 c -21.80985,17.58959 -42.54717,31.63981 -59.16281,39.23802 -20.52769,9.38957 -3.01719,34.74692 16.62322,16.60589 -16.37892,19.96325 11.46584,37.40334 19.70433,19.72058 8.16427,-17.52459 22.06119,-38.8388 39.23856,-60.93954 -6.1492,-4.06589 -11.68089,-8.9936 -16.40221,-14.6255 z m 115.46337,0.93061 c -4.41744,5.09996 -9.50223,9.59866 -15.11734,13.3742 17.2505,21.33696 30.77854,41.63498 37.61352,58.07782 9.3186,22.41655 38.87888,5.26626 17.18224,-17.18116 25.65582,18.62096 43.30228,-10.93391 19.14422,-19.14585 -17.413,-5.91845 -37.78685,-18.57979 -58.82318,-35.12501 z"
         inkscape:connector-curvature="0"
         style="fill:#f40000;fill-opacity:1;stroke-width:3.2077558" />
    </g>
    <path
       inkscape:connector-curvature="0"
       d="m 342.369,-16.004764 c -4.288,0 -6.816,2.24 -6.816,6.272 0,6.464 9.504,5.152 9.504,9.98401 0,3.104 -2.816,3.872 -4.544,3.872 -2.624,0 -4.288,-1.152 -4.288,-3.776 0,-0.448 0.064,-0.96 0.16,-1.504 h -2.912 c -0.096,0.512 -0.096,0.992 -0.096,1.472 0,4.096 2.72,6.4000002 6.912,6.4000002 6.176,0 7.712,-3.9360002 7.712,-6.8800002 0,-6.81601 -9.536,-5.31201 -9.536,-9.88801 0,-3.04 2.624,-3.36 3.744,-3.36 1.792,0 4.032,0.576 4.032,4.224 h 2.912 c 0,-3.872 -1.728,-6.816 -6.784,-6.816 z"
       style="font-style:italic;font-variant:normal;font-weight:normal;font-stretch:normal;font-size:32px;line-height:30.54940224px;font-family:'Archivo Narrow';-inkscape-font-specification:'Archivo Narrow Italic';text-align:center;letter-spacing:0px;word-spacing:0px;writing-mode:lr-tb;text-anchor:middle;fill:#000000;fill-opacity:1;stroke:none;stroke-width:1px;stroke-linecap:butt;stroke-linejoin:miter;stroke-opacity:1"
       id="path4600" />
    <path
       inkscape:connector-curvature="0"
       d="m 359.101,-10.884764 c -1.536,0 -2.944,0.832 -4.064,2.656 v -2.272 h -2.08 l -3.168,22.65601 h 2.624 l 1.088,-7.68 c 0.736,1.6000002 1.952,2.2400002 3.36,2.2400002 3.136,0 6.496,-3.6480002 6.496,-11.3600102 0,-4.32 -1.792,-6.24 -4.256,-6.24 z m -0.8,2.336 c 1.568,0 2.368,1.216 2.368,3.648 0,2.752 -0.768,9.28001 -4.192,9.28001 -1.568,0 -2.336,-1.216 -2.336,-3.616 0,-2.56001 0.832,-9.31201 4.16,-9.31201 z"
       style="font-style:italic;font-variant:normal;font-weight:normal;font-stretch:normal;font-size:32px;line-height:30.54940224px;font-family:'Archivo Narrow';-inkscape-font-specification:'Archivo Narrow Italic';text-align:center;letter-spacing:0px;word-spacing:0px;writing-mode:lr-tb;text-anchor:middle;fill:#000000;fill-opacity:1;stroke:none;stroke-width:1px;stroke-linecap:butt;stroke-linejoin:miter;stroke-opacity:1"
       id="path4602" />
    <path
       inkscape:connector-curvature="0"
       d="m 372.6395,-10.884764 c -5.824,0 -7.136,6.688 -7.136,11.48801 0,4.192 1.984,6.1120002 5.44,6.1120002 3.584,0 5.696,-2.8160002 6.208,-6.0800002 h -2.656 c -0.288,2.016 -1.664,3.744 -3.552,3.744 -1.824,0 -2.72,-1.312 -2.72,-4 0,-0.416 0.032,-1.024 0.096,-1.696 h 9.248 c 0.192,-1.21601 0.256,-2.43201 0.256,-3.52001 0,-4.128 -1.824,-6.048 -5.184,-6.048 z m 0,2.336 c 1.632,0 2.464,1.28 2.464,3.744 0,0.288 0,0.736 -0.032,1.152 h -6.432 c 0.512,-2.432 1.664,-4.896 4,-4.896 z"
       style="font-style:italic;font-variant:normal;font-weight:normal;font-stretch:normal;font-size:32px;line-height:30.54940224px;font-family:'Archivo Narrow';-inkscape-font-specification:'Archivo Narrow Italic';text-align:center;letter-spacing:0px;word-spacing:0px;writing-mode:lr-tb;text-anchor:middle;fill:#000000;fill-opacity:1;stroke:none;stroke-width:1px;stroke-linecap:butt;stroke-linejoin:miter;stroke-opacity:1"
       id="path4604" />
    <path
       inkscape:connector-curvature="0"
       d="m 386.626,-10.884764 c -5.472,0 -6.688,6.528 -6.688,11.48801 0,4.192 1.984,6.1120002 5.152,6.1120002 3.424,0 5.408,-3.1040002 5.824,-6.5280002 h -2.624 c -0.256,2.208 -1.472,4.192 -3.264,4.192 -1.536,0 -2.368,-1.472 -2.368,-4 0,-1.792 0.448,-8.92801 3.968,-8.92801 1.408,0 2.08,1.28 2.08,3.744 v 0.544 h 2.72 v -0.576 c 0,-4.128 -1.664,-6.048 -4.8,-6.048 z"
       style="font-style:italic;font-variant:normal;font-weight:normal;font-stretch:normal;font-size:32px;line-height:30.54940224px;font-family:'Archivo Narrow';-inkscape-font-specification:'Archivo Narrow Italic';text-align:center;letter-spacing:0px;word-spacing:0px;writing-mode:lr-tb;text-anchor:middle;fill:#000000;fill-opacity:1;stroke:none;stroke-width:1px;stroke-linecap:butt;stroke-linejoin:miter;stroke-opacity:1"
       id="path4606" />
    <path
       inkscape:connector-curvature="0"
       d="M 397.54301,-10.500764 H 394.919 l -2.336,16.8320102 h 2.59201 z m 0.864,-6.304 h -2.624 l -0.416,3.136 h 2.624 z"
       style="font-style:italic;font-variant:normal;font-weight:normal;font-stretch:normal;font-size:32px;line-height:30.54940224px;font-family:'Archivo Narrow';-inkscape-font-specification:'Archivo Narrow Italic';text-align:center;letter-spacing:0px;word-spacing:0px;writing-mode:lr-tb;text-anchor:middle;fill:#000000;fill-opacity:1;stroke:none;stroke-width:1px;stroke-linecap:butt;stroke-linejoin:miter;stroke-opacity:1"
       id="path4608" />
    <path
       inkscape:connector-curvature="0"
       d="m 405.43551,-10.884764 c -3.136,0 -6.496,3.648 -6.496,11.36001 0,4.32 1.792,6.2400002 4.256,6.2400002 1.504,0 2.656,-0.8320002 3.872,-2.6560002 0.032,1.888 0.96,2.6560002 2.304,2.6560002 0.832,0 1.472,-0.288 1.792,-0.512 l 0.256,-1.8240002 h -1.024 c -0.416,0 -0.768,-0.256 -0.768,-0.896 0,-0.384 1.952,-13.98401 1.952,-13.98401 h -2.08 l -0.576,2.336 c -0.64,-2.08 -1.952,-2.72 -3.488,-2.72 z m 0.384,2.336 c 1.472,0 2.208,1.216 2.208,3.616 0,2.56 -0.992,9.31201 -4.032,9.31201 -1.568,0 -2.368,-1.216 -2.368,-3.648 0,-2.75201 0.768,-9.28001 4.192,-9.28001 z"
       style="font-style:italic;font-variant:normal;font-weight:normal;font-stretch:normal;font-size:32px;line-height:30.54940224px;font-family:'Archivo Narrow';-inkscape-font-specification:'Archivo Narrow Italic';text-align:center;letter-spacing:0px;word-spacing:0px;writing-mode:lr-tb;text-anchor:middle;fill:#000000;fill-opacity:1;stroke:none;stroke-width:1px;stroke-linecap:butt;stroke-linejoin:miter;stroke-opacity:1"
       id="path4610" />
    <path
       inkscape:connector-curvature="0"
       d="m 418.78201,-16.804764 h -2.624 l -3.2,23.1360102 h 2.592 z"
       style="font-style:italic;font-variant:normal;font-weight:normal;font-stretch:normal;font-size:32px;line-height:30.54940224px;font-family:'Archivo Narrow';-inkscape-font-specification:'Archivo Narrow Italic';text-align:center;letter-spacing:0px;word-spacing:0px;writing-mode:lr-tb;text-anchor:middle;fill:#000000;fill-opacity:1;stroke:none;stroke-width:1px;stroke-linecap:butt;stroke-linejoin:miter;stroke-opacity:1"
       id="path4612" />
    <path
       inkscape:connector-curvature="0"
       d="m 440.38701,6.3312462 0.384,-2.5600002 h -10.912 l 1.024,-7.39201 h 9.312 l 0.352,-2.56 h -9.312 l 0.96,-6.88 h 10.72 l 0.384,-2.56 h -13.536 l -3.104,21.9520102 z"
       style="font-style:italic;font-variant:normal;font-weight:normal;font-stretch:normal;font-size:32px;line-height:30.54940224px;font-family:'Archivo Narrow';-inkscape-font-specification:'Archivo Narrow Italic';text-align:center;letter-spacing:0px;word-spacing:0px;writing-mode:lr-tb;text-anchor:middle;fill:#000000;fill-opacity:1;stroke:none;stroke-width:1px;stroke-linecap:butt;stroke-linejoin:miter;stroke-opacity:1"
       id="path4614" />
    <path
       inkscape:connector-curvature="0"
       d="m 457.37501,-10.500764 h -2.816 l -5.376,13.02401 h -0.128 l -1.728,-13.02401 h -2.784 l 2.496,16.8320102 h 2.848 z"
       style="font-style:italic;font-variant:normal;font-weight:normal;font-stretch:normal;font-size:32px;line-height:30.54940224px;font-family:'Archivo Narrow';-inkscape-font-specification:'Archivo Narrow Italic';text-align:center;letter-spacing:0px;word-spacing:0px;writing-mode:lr-tb;text-anchor:middle;fill:#000000;fill-opacity:1;stroke:none;stroke-width:1px;stroke-linecap:butt;stroke-linejoin:miter;stroke-opacity:1"
       id="path4616" />
    <path
       inkscape:connector-curvature="0"
       d="m 464.45201,-10.884764 c -5.824,0 -7.136,6.688 -7.136,11.48801 0,4.192 1.984,6.1120002 5.44,6.1120002 3.584,0 5.696,-2.8160002 6.208,-6.0800002 h -2.656 c -0.288,2.016 -1.664,3.744 -3.552,3.744 -1.824,0 -2.72,-1.312 -2.72,-4 0,-0.416 0.032,-1.024 0.096,-1.696 h 9.248 c 0.192,-1.21601 0.256,-2.43201 0.256,-3.52001 0,-4.128 -1.824,-6.048 -5.184,-6.048 z m 0,2.336 c 1.632,0 2.464,1.28 2.464,3.744 0,0.288 0,0.736 -0.032,1.152 h -6.432 c 0.512,-2.432 1.664,-4.896 4,-4.896 z"
       style="font-style:italic;font-variant:normal;font-weight:normal;font-stretch:normal;font-size:32px;line-height:30.54940224px;font-family:'Archivo Narrow';-inkscape-font-specification:'Archivo Narrow Italic';text-align:center;letter-spacing:0px;word-spacing:0px;writing-mode:lr-tb;text-anchor:middle;fill:#000000;fill-opacity:1;stroke:none;stroke-width:1px;stroke-linecap:butt;stroke-linejoin:miter;stroke-opacity:1"
       id="path4618" />
    <path
       inkscape:connector-curvature="0"
       d="m 480.35851,-10.884764 c -2.688,0 -4,1.92 -4.48,2.88 v -2.496 h -2.048 l -2.368,16.8320102 h 2.624 l 1.312,-9.4080102 c 0.448,-3.232 1.856,-5.472 4,-5.472 1.248,0 1.92,0.608 1.92,2.048 0,1.024 -1.728,12.8320102 -1.728,12.8320102 h 2.624 c 0,0 1.792,-12.4160102 1.792,-13.4400102 0,-1.92 -0.864,-3.776 -3.648,-3.776 z"
       style="font-style:italic;font-variant:normal;font-weight:normal;font-stretch:normal;font-size:32px;line-height:30.54940224px;font-family:'Archivo Narrow';-inkscape-font-specification:'Archivo Narrow Italic';text-align:center;letter-spacing:0px;word-spacing:0px;writing-mode:lr-tb;text-anchor:middle;fill:#000000;fill-opacity:1;stroke:none;stroke-width:1px;stroke-linecap:butt;stroke-linejoin:miter;stroke-opacity:1"
       id="path4620" />
    <path
       inkscape:connector-curvature="0"
       d="m 491.81701,-15.172764 h -2.752 l -0.672,4.672 h -1.44 l -0.32,2.336 h 1.44 c 0,0 -1.664,11.26401 -1.664,12.09601 0,1.44 0.64,2.7200002 2.592,2.7200002 0.64,0 1.44,-0.192 1.952,-0.448 l 0.256,-1.8240002 h -0.928 c -0.8,0 -1.184,-0.416 -1.184,-1.184 0,-0.384 1.6,-11.36001 1.6,-11.36001 h 2.272 l 0.32,-2.336 h -2.272 z"
       style="font-style:italic;font-variant:normal;font-weight:normal;font-stretch:normal;font-size:32px;line-height:30.54940224px;font-family:'Archivo Narrow';-inkscape-font-specification:'Archivo Narrow Italic';text-align:center;letter-spacing:0px;word-spacing:0px;writing-mode:lr-tb;text-anchor:middle;fill:#000000;fill-opacity:1;stroke:none;stroke-width:1px;stroke-linecap:butt;stroke-linejoin:miter;stroke-opacity:1"
       id="path4622" />
    <path
       inkscape:connector-curvature="0"
       d="m 496.72951,-15.620764 c -0.448,5.472 -1.024,11.008 -1.536,16.48001 h 1.984 c 1.12,-5.79201 2.752,-14.65601 3.168,-16.48001 z m 0.8,18.49601 h -3.2 l -0.48,3.4560002 h 3.2 z"
       style="font-style:italic;font-variant:normal;font-weight:normal;font-stretch:normal;font-size:32px;line-height:30.54940224px;font-family:'Archivo Narrow';-inkscape-font-specification:'Archivo Narrow Italic';text-align:center;letter-spacing:0px;word-spacing:0px;writing-mode:lr-tb;text-anchor:middle;fill:#000000;fill-opacity:1;stroke:none;stroke-width:1px;stroke-linecap:butt;stroke-linejoin:miter;stroke-opacity:1"
       id="path4624" />
    <path
       inkscape:connector-curvature="0"
       d="m 270.83225,36.880641 c 7.008,0 9.536,-8.032 9.536,-13.728 0,-5.471995 -2.688,-8.223994 -7.328,-8.223994 h -6.496 l -3.104,21.951994 z m 1.888,-19.391995 c 2.976,0 4.736,1.855995 4.736,5.695995 0,4.48 -1.44,11.136 -6.944,11.136 h -3.872 l 2.336,-16.831995 z"
       style="font-style:italic;font-variant:normal;font-weight:normal;font-stretch:normal;font-size:32px;line-height:30.54940224px;font-family:'Archivo Narrow';-inkscape-font-specification:'Archivo Narrow Italic';text-align:center;letter-spacing:0px;word-spacing:0px;writing-mode:lr-tb;text-anchor:middle;fill:#000000;fill-opacity:1;stroke:none;stroke-width:1px;stroke-linecap:butt;stroke-linejoin:miter;stroke-opacity:1"
       id="path4626" />
    <path
       inkscape:connector-curvature="0"
       d="m 289.48175,19.664641 c -5.824,0 -7.136,7.008 -7.136,11.616 0,4.096 1.856,5.984 5.312,5.984 5.824,0 7.136,-6.944 7.136,-11.552 0,-4.128 -1.856,-6.048 -5.312,-6.048 z m 0,2.336 c 1.728,0 2.592,1.28 2.592,3.744 0,2.272 -0.512,9.184 -4.416,9.184 -1.824,0 -2.592,-1.312 -2.592,-4 0,-2.208 0.544,-8.928 4.416,-8.928 z"
       style="font-style:italic;font-variant:normal;font-weight:normal;font-stretch:normal;font-size:32px;line-height:30.54940224px;font-family:'Archivo Narrow';-inkscape-font-specification:'Archivo Narrow Italic';text-align:center;letter-spacing:0px;word-spacing:0px;writing-mode:lr-tb;text-anchor:middle;fill:#000000;fill-opacity:1;stroke:none;stroke-width:1px;stroke-linecap:butt;stroke-linejoin:miter;stroke-opacity:1"
       id="path4628" />
    <path
       inkscape:connector-curvature="0"
       d="m 310.71675,19.664641 c -3.136,0 -6.496,3.648 -6.496,11.36 0,4.32 1.792,6.24 4.256,6.24 1.504,0 2.656,-0.832 3.872,-2.656 0.032,1.888 0.96,2.656 2.304,2.656 0.832,0 1.472,-0.288 1.792,-0.512 l 0.256,-1.824 h -1.024 c -0.416,0 -0.768,-0.256 -0.768,-0.896 0,-0.384 1.952,-13.984 1.952,-13.984 h -2.08 l -0.576,2.336 c -0.64,-2.08 -1.952,-2.72 -3.488,-2.72 z m 0.384,2.336 c 1.472,0 2.208,1.216 2.208,3.616 0,2.56 -0.992,9.312 -4.032,9.312 -1.568,0 -2.368,-1.216 -2.368,-3.648 0,-2.752 0.768,-9.28 4.192,-9.28 z"
       style="font-style:italic;font-variant:normal;font-weight:normal;font-stretch:normal;font-size:32px;line-height:30.54940224px;font-family:'Archivo Narrow';-inkscape-font-specification:'Archivo Narrow Italic';text-align:center;letter-spacing:0px;word-spacing:0px;writing-mode:lr-tb;text-anchor:middle;fill:#000000;fill-opacity:1;stroke:none;stroke-width:1px;stroke-linecap:butt;stroke-linejoin:miter;stroke-opacity:1"
       id="path4630" />
    <path
       inkscape:connector-curvature="0"
       d="m 324.06325,13.744647 h -2.624 l -3.2,23.135994 h 2.592 z"
       style="font-style:italic;font-variant:normal;font-weight:normal;font-stretch:normal;font-size:32px;line-height:30.54940224px;font-family:'Archivo Narrow';-inkscape-font-specification:'Archivo Narrow Italic';text-align:center;letter-spacing:0px;word-spacing:0px;writing-mode:lr-tb;text-anchor:middle;fill:#000000;fill-opacity:1;stroke:none;stroke-width:1px;stroke-linecap:butt;stroke-linejoin:miter;stroke-opacity:1"
       id="path4632" />
    <path
       inkscape:connector-curvature="0"
       d="m 329.87575,13.744647 h -2.624 l -3.2,23.135994 h 2.592 z"
       style="font-style:italic;font-variant:normal;font-weight:normal;font-stretch:normal;font-size:32px;line-height:30.54940224px;font-family:'Archivo Narrow';-inkscape-font-specification:'Archivo Narrow Italic';text-align:center;letter-spacing:0px;word-spacing:0px;writing-mode:lr-tb;text-anchor:middle;fill:#000000;fill-opacity:1;stroke:none;stroke-width:1px;stroke-linecap:butt;stroke-linejoin:miter;stroke-opacity:1"
       id="path4634" />
    <path
       inkscape:connector-curvature="0"
       d="m 346.71275,14.544647 c -4.288,0 -6.816,2.24 -6.816,6.271994 0,6.464 9.504,5.152 9.504,9.984 0,3.104 -2.816,3.872 -4.544,3.872 -2.624,0 -4.288,-1.152 -4.288,-3.776 0,-0.448 0.064,-0.96 0.16,-1.504 h -2.912 c -0.096,0.512 -0.096,0.992 -0.096,1.472 0,4.096 2.72,6.4 6.912,6.4 6.176,0 7.712,-3.936 7.712,-6.88 0,-6.816 -9.536,-5.312 -9.536,-9.888 0,-3.039995 2.624,-3.359995 3.744,-3.359995 1.792,0 4.032,0.576 4.032,4.223995 h 2.912 c 0,-3.871995 -1.728,-6.815994 -6.784,-6.815994 z"
       style="font-style:italic;font-variant:normal;font-weight:normal;font-stretch:normal;font-size:32px;line-height:30.54940224px;font-family:'Archivo Narrow';-inkscape-font-specification:'Archivo Narrow Italic';text-align:center;letter-spacing:0px;word-spacing:0px;writing-mode:lr-tb;text-anchor:middle;fill:#000000;fill-opacity:1;stroke:none;stroke-width:1px;stroke-linecap:butt;stroke-linejoin:miter;stroke-opacity:1"
       id="path4636" />
    <path
       inkscape:connector-curvature="0"
       d="m 363.44475,19.664641 c -1.536,0 -2.944,0.832 -4.064,2.656 v -2.272 h -2.08 l -3.168,22.656 h 2.624 l 1.088,-7.68 c 0.736,1.6 1.952,2.24 3.36,2.24 3.136,0 6.496,-3.648 6.496,-11.36 0,-4.32 -1.792,-6.24 -4.256,-6.24 z m -0.8,2.336 c 1.568,0 2.368,1.216 2.368,3.648 0,2.752 -0.768,9.28 -4.192,9.28 -1.568,0 -2.336,-1.216 -2.336,-3.616 0,-2.56 0.832,-9.312 4.16,-9.312 z"
       style="font-style:italic;font-variant:normal;font-weight:normal;font-stretch:normal;font-size:32px;line-height:30.54940224px;font-family:'Archivo Narrow';-inkscape-font-specification:'Archivo Narrow Italic';text-align:center;letter-spacing:0px;word-spacing:0px;writing-mode:lr-tb;text-anchor:middle;fill:#000000;fill-opacity:1;stroke:none;stroke-width:1px;stroke-linecap:butt;stroke-linejoin:miter;stroke-opacity:1"
       id="path4638" />
    <path
       inkscape:connector-curvature="0"
       d="m 376.98325,19.664641 c -5.824,0 -7.136,6.688 -7.136,11.488 0,4.192 1.984,6.112 5.44,6.112 3.584,0 5.696,-2.816 6.208,-6.08 h -2.656 c -0.288,2.016 -1.664,3.744 -3.552,3.744 -1.824,0 -2.72,-1.312 -2.72,-4 0,-0.416 0.032,-1.024 0.096,-1.696 h 9.248 c 0.192,-1.216 0.256,-2.432 0.256,-3.52 0,-4.128 -1.824,-6.048 -5.184,-6.048 z m 0,2.336 c 1.632,0 2.464,1.28 2.464,3.744 0,0.288 0,0.736 -0.032,1.152 h -6.432 c 0.512,-2.432 1.664,-4.896 4,-4.896 z"
       style="font-style:italic;font-variant:normal;font-weight:normal;font-stretch:normal;font-size:32px;line-height:30.54940224px;font-family:'Archivo Narrow';-inkscape-font-specification:'Archivo Narrow Italic';text-align:center;letter-spacing:0px;word-spacing:0px;writing-mode:lr-tb;text-anchor:middle;fill:#000000;fill-opacity:1;stroke:none;stroke-width:1px;stroke-linecap:butt;stroke-linejoin:miter;stroke-opacity:1"
       id="path4640" />
    <path
       inkscape:connector-curvature="0"
       d="m 390.96975,19.664641 c -5.472,0 -6.688,6.528 -6.688,11.488 0,4.192 1.984,6.112 5.152,6.112 3.424,0 5.408,-3.104 5.82401,-6.528 h -2.62401 c -0.256,2.208 -1.472,4.192 -3.264,4.192 -1.536,0 -2.368,-1.472 -2.368,-4 0,-1.792 0.448,-8.928 3.968,-8.928 1.408,0 2.08,1.28 2.08,3.744 v 0.544 h 2.72001 v -0.576 c 0,-4.128 -1.66401,-6.048 -4.80001,-6.048 z"
       style="font-style:italic;font-variant:normal;font-weight:normal;font-stretch:normal;font-size:32px;line-height:30.54940224px;font-family:'Archivo Narrow';-inkscape-font-specification:'Archivo Narrow Italic';text-align:center;letter-spacing:0px;word-spacing:0px;writing-mode:lr-tb;text-anchor:middle;fill:#000000;fill-opacity:1;stroke:none;stroke-width:1px;stroke-linecap:butt;stroke-linejoin:miter;stroke-opacity:1"
       id="path4642" />
    <path
       inkscape:connector-curvature="0"
       d="m 401.88676,20.048641 h -2.624 l -2.336,16.832 h 2.592 z m 0.864,-6.303994 h -2.624 l -0.416,3.136 h 2.624 z"
       style="font-style:italic;font-variant:normal;font-weight:normal;font-stretch:normal;font-size:32px;line-height:30.54940224px;font-family:'Archivo Narrow';-inkscape-font-specification:'Archivo Narrow Italic';text-align:center;letter-spacing:0px;word-spacing:0px;writing-mode:lr-tb;text-anchor:middle;fill:#000000;fill-opacity:1;stroke:none;stroke-width:1px;stroke-linecap:butt;stroke-linejoin:miter;stroke-opacity:1"
       id="path4644" />
    <path
       inkscape:connector-curvature="0"
       d="m 409.77926,19.664641 c -3.136,0 -6.496,3.648 -6.496,11.36 0,4.32 1.792,6.24 4.256,6.24 1.504,0 2.656,-0.832 3.872,-2.656 0.032,1.888 0.96,2.656 2.304,2.656 0.832,0 1.472,-0.288 1.792,-0.512 l 0.256,-1.824 h -1.024 c -0.416,0 -0.768,-0.256 -0.768,-0.896 0,-0.384 1.952,-13.984 1.952,-13.984 h -2.08 l -0.576,2.336 c -0.64,-2.08 -1.952,-2.72 -3.488,-2.72 z m 0.384,2.336 c 1.472,0 2.208,1.216 2.208,3.616 0,2.56 -0.992,9.312 -4.032,9.312 -1.568,0 -2.368,-1.216 -2.368,-3.648 0,-2.752 0.768,-9.28 4.192,-9.28 z"
       style="font-style:italic;font-variant:normal;font-weight:normal;font-stretch:normal;font-size:32px;line-height:30.54940224px;font-family:'Archivo Narrow';-inkscape-font-specification:'Archivo Narrow Italic';text-align:center;letter-spacing:0px;word-spacing:0px;writing-mode:lr-tb;text-anchor:middle;fill:#000000;fill-opacity:1;stroke:none;stroke-width:1px;stroke-linecap:butt;stroke-linejoin:miter;stroke-opacity:1"
       id="path4646" />
    <path
       inkscape:connector-curvature="0"
       d="m 423.12576,13.744647 h -2.624 l -3.2,23.135994 h 2.592 z"
       style="font-style:italic;font-variant:normal;font-weight:normal;font-stretch:normal;font-size:32px;line-height:30.54940224px;font-family:'Archivo Narrow';-inkscape-font-specification:'Archivo Narrow Italic';text-align:center;letter-spacing:0px;word-spacing:0px;writing-mode:lr-tb;text-anchor:middle;fill:#000000;fill-opacity:1;stroke:none;stroke-width:1px;stroke-linecap:butt;stroke-linejoin:miter;stroke-opacity:1"
       id="path4648" />
    <path
       inkscape:connector-curvature="0"
       d="m 444.73076,36.880641 0.384,-2.56 h -10.912 l 1.024,-7.392 h 9.312 l 0.352,-2.56 h -9.312 l 0.96,-6.879995 h 10.72 l 0.384,-2.559999 h -13.536 l -3.104,21.951994 z"
       style="font-style:italic;font-variant:normal;font-weight:normal;font-stretch:normal;font-size:32px;line-height:30.54940224px;font-family:'Archivo Narrow';-inkscape-font-specification:'Archivo Narrow Italic';text-align:center;letter-spacing:0px;word-spacing:0px;writing-mode:lr-tb;text-anchor:middle;fill:#000000;fill-opacity:1;stroke:none;stroke-width:1px;stroke-linecap:butt;stroke-linejoin:miter;stroke-opacity:1"
       id="path4650" />
    <path
       inkscape:connector-curvature="0"
       d="m 461.71876,20.048641 h -2.816 l -5.376,13.024 h -0.128 l -1.728,-13.024 h -2.784 l 2.496,16.832 h 2.848 z"
       style="font-style:italic;font-variant:normal;font-weight:normal;font-stretch:normal;font-size:32px;line-height:30.54940224px;font-family:'Archivo Narrow';-inkscape-font-specification:'Archivo Narrow Italic';text-align:center;letter-spacing:0px;word-spacing:0px;writing-mode:lr-tb;text-anchor:middle;fill:#000000;fill-opacity:1;stroke:none;stroke-width:1px;stroke-linecap:butt;stroke-linejoin:miter;stroke-opacity:1"
       id="path4652" />
    <path
       inkscape:connector-curvature="0"
       d="m 468.79576,19.664641 c -5.824,0 -7.136,6.688 -7.136,11.488 0,4.192 1.984,6.112 5.44,6.112 3.584,0 5.696,-2.816 6.208,-6.08 h -2.656 c -0.288,2.016 -1.664,3.744 -3.552,3.744 -1.824,0 -2.72,-1.312 -2.72,-4 0,-0.416 0.032,-1.024 0.096,-1.696 h 9.248 c 0.192,-1.216 0.256,-2.432 0.256,-3.52 0,-4.128 -1.824,-6.048 -5.184,-6.048 z m 0,2.336 c 1.632,0 2.464,1.28 2.464,3.744 0,0.288 0,0.736 -0.032,1.152 h -6.432 c 0.512,-2.432 1.664,-4.896 4,-4.896 z"
       style="font-style:italic;font-variant:normal;font-weight:normal;font-stretch:normal;font-size:32px;line-height:30.54940224px;font-family:'Archivo Narrow';-inkscape-font-specification:'Archivo Narrow Italic';text-align:center;letter-spacing:0px;word-spacing:0px;writing-mode:lr-tb;text-anchor:middle;fill:#000000;fill-opacity:1;stroke:none;stroke-width:1px;stroke-linecap:butt;stroke-linejoin:miter;stroke-opacity:1"
       id="path4654" />
    <path
       inkscape:connector-curvature="0"
       d="m 484.70226,19.664641 c -2.688,0 -4,1.92 -4.48,2.88 v -2.496 h -2.048 l -2.368,16.832 h 2.624 l 1.312,-9.408 c 0.448,-3.232 1.856,-5.472 4,-5.472 1.248,0 1.92,0.608 1.92,2.048 0,1.024 -1.728,12.832 -1.728,12.832 h 2.624 c 0,0 1.792,-12.416 1.792,-13.44 0,-1.92 -0.864,-3.776 -3.648,-3.776 z"
       style="font-style:italic;font-variant:normal;font-weight:normal;font-stretch:normal;font-size:32px;line-height:30.54940224px;font-family:'Archivo Narrow';-inkscape-font-specification:'Archivo Narrow Italic';text-align:center;letter-spacing:0px;word-spacing:0px;writing-mode:lr-tb;text-anchor:middle;fill:#000000;fill-opacity:1;stroke:none;stroke-width:1px;stroke-linecap:butt;stroke-linejoin:miter;stroke-opacity:1"
       id="path4656" />
    <path
       inkscape:connector-curvature="0"
       d="m 496.16076,15.376647 h -2.752 l -0.672,4.671994 h -1.44 l -0.32,2.336 h 1.44 c 0,0 -1.664,11.264 -1.664,12.096 0,1.44 0.64,2.72 2.592,2.72 0.64,0 1.44,-0.192 1.952,-0.448 l 0.256,-1.824 h -0.928 c -0.8,0 -1.184,-0.416 -1.184,-1.184 0,-0.384 1.6,-11.36 1.6,-11.36 h 2.272 l 0.32,-2.336 h -2.272 z"
       style="font-style:italic;font-variant:normal;font-weight:normal;font-stretch:normal;font-size:32px;line-height:30.54940224px;font-family:'Archivo Narrow';-inkscape-font-specification:'Archivo Narrow Italic';text-align:center;letter-spacing:0px;word-spacing:0px;writing-mode:lr-tb;text-anchor:middle;fill:#000000;fill-opacity:1;stroke:none;stroke-width:1px;stroke-linecap:butt;stroke-linejoin:miter;stroke-opacity:1"
       id="path4658" />
    <path
       inkscape:connector-curvature="0"
       d="m 504.40126,19.664641 c -3.424,0 -5.184,2.08 -5.184,4.736 0,5.024 6.4,4.384 6.4,8.16 0,1.312 -0.96,2.4 -2.432,2.4 -1.536,0 -2.848,-0.896 -2.848,-2.88 0,-0.32 0.032,-0.672 0.096,-1.024 h -2.72 c -0.064,0.352 -0.064,0.704 -0.064,1.024 0,3.168 2.368,5.184 5.28,5.184 3.296,0 5.408,-1.888 5.408,-5.12 0,-5.44 -6.4,-4.288 -6.4,-8.128 0,-1.344 1.248,-2.048 2.176,-2.048 1.184,0 2.368,0.672 2.368,2.976 h 2.72 c 0,-2.72 -1.376,-5.28 -4.8,-5.28 z"
       style="font-style:italic;font-variant:normal;font-weight:normal;font-stretch:normal;font-size:32px;line-height:30.54940224px;font-family:'Archivo Narrow';-inkscape-font-specification:'Archivo Narrow Italic';text-align:center;letter-spacing:0px;word-spacing:0px;writing-mode:lr-tb;text-anchor:middle;fill:#000000;fill-opacity:1;stroke:none;stroke-width:1px;stroke-linecap:butt;stroke-linejoin:miter;stroke-opacity:1"
       id="path4660" />
    <path
       inkscape:connector-curvature="0"
       d="m 524.96676,19.664641 c -3.136,0 -6.496,3.648 -6.496,11.36 0,4.32 1.792,6.24 4.256,6.24 1.504,0 2.656,-0.832 3.872,-2.656 0.032,1.888 0.96,2.656 2.304,2.656 0.832,0 1.472,-0.288 1.792,-0.512 l 0.256,-1.824 h -1.024 c -0.416,0 -0.768,-0.256 -0.768,-0.896 0,-0.384 1.952,-13.984 1.952,-13.984 h -2.08 l -0.576,2.336 c -0.64,-2.08 -1.952,-2.72 -3.488,-2.72 z m 0.384,2.336 c 1.472,0 2.208,1.216 2.208,3.616 0,2.56 -0.992,9.312 -4.032,9.312 -1.568,0 -2.368,-1.216 -2.368,-3.648 0,-2.752 0.768,-9.28 4.192,-9.28 z"
       style="font-style:italic;font-variant:normal;font-weight:normal;font-stretch:normal;font-size:32px;line-height:30.54940224px;font-family:'Archivo Narrow';-inkscape-font-specification:'Archivo Narrow Italic';text-align:center;letter-spacing:0px;word-spacing:0px;writing-mode:lr-tb;text-anchor:middle;fill:#000000;fill-opacity:1;stroke:none;stroke-width:1px;stroke-linecap:butt;stroke-linejoin:miter;stroke-opacity:1"
       id="path4662" />
    <path
       inkscape:connector-curvature="0"
       d="m 539.24126,13.488647 c -2.56,0 -3.616,1.952 -3.872,3.871999 l -0.384,2.687995 h -1.472 l -0.32,2.336 h 1.472 l -2.176,16.576 c -0.128,0.992 -0.704,1.536 -1.696,1.536 h -1.408 l -0.256,1.824 c 0.512,0.192 1.376,0.384 2.144,0.384 2.528,0 3.584,-1.952 3.84,-3.872 l 2.176,-16.448 h 2.912 l 0.32,-2.336 h -2.912 l 0.384,-2.815995 c 0.128,-0.991999 0.736,-1.535999 1.728,-1.535999 h 1.408 l 0.256,-1.824 c -0.512,-0.192 -1.376,-0.384 -2.144,-0.384 z"
       style="font-style:italic;font-variant:normal;font-weight:normal;font-stretch:normal;font-size:32px;line-height:30.54940224px;font-family:'Archivo Narrow';-inkscape-font-specification:'Archivo Narrow Italic';text-align:center;letter-spacing:0px;word-spacing:0px;writing-mode:lr-tb;text-anchor:middle;fill:#000000;fill-opacity:1;stroke:none;stroke-width:1px;stroke-linecap:butt;stroke-linejoin:miter;stroke-opacity:1"
       id="path4664" />
    <path
       inkscape:connector-curvature="0"
       d="m 545.78576,15.376647 h -2.752 l -0.672,4.671994 h -1.44 l -0.32,2.336 h 1.44 c 0,0 -1.664,11.264 -1.664,12.096 0,1.44 0.64,2.72 2.592,2.72 0.64,0 1.44,-0.192 1.952,-0.448 l 0.256,-1.824 h -0.928 c -0.8,0 -1.184,-0.416 -1.184,-1.184 0,-0.384 1.6,-11.36 1.6,-11.36 h 2.272 l 0.32,-2.336 h -2.272 z"
       style="font-style:italic;font-variant:normal;font-weight:normal;font-stretch:normal;font-size:32px;line-height:30.54940224px;font-family:'Archivo Narrow';-inkscape-font-specification:'Archivo Narrow Italic';text-align:center;letter-spacing:0px;word-spacing:0px;writing-mode:lr-tb;text-anchor:middle;fill:#000000;fill-opacity:1;stroke:none;stroke-width:1px;stroke-linecap:butt;stroke-linejoin:miter;stroke-opacity:1"
       id="path4666" />
    <path
       inkscape:connector-curvature="0"
       d="m 554.85826,19.664641 c -5.824,0 -7.136,6.688 -7.136,11.488 0,4.192 1.984,6.112 5.44,6.112 3.584,0 5.696,-2.816 6.208,-6.08 h -2.656 c -0.288,2.016 -1.664,3.744 -3.552,3.744 -1.824,0 -2.72,-1.312 -2.72,-4 0,-0.416 0.032,-1.024 0.096,-1.696 h 9.248 c 0.192,-1.216 0.256,-2.432 0.256,-3.52 0,-4.128 -1.824,-6.048 -5.184,-6.048 z m 0,2.336 c 1.632,0 2.464,1.28 2.464,3.744 0,0.288 0,0.736 -0.032,1.152 h -6.432 c 0.512,-2.432 1.664,-4.896 4,-4.896 z"
       style="font-style:italic;font-variant:normal;font-weight:normal;font-stretch:normal;font-size:32px;line-height:30.54940224px;font-family:'Archivo Narrow';-inkscape-font-specification:'Archivo Narrow Italic';text-align:center;letter-spacing:0px;word-spacing:0px;writing-mode:lr-tb;text-anchor:middle;fill:#000000;fill-opacity:1;stroke:none;stroke-width:1px;stroke-linecap:butt;stroke-linejoin:miter;stroke-opacity:1"
       id="path4668" />
    <path
       inkscape:connector-curvature="0"
       d="m 569.45276,19.664641 c -1.92,0 -2.752,1.792 -3.36,3.072 v -2.688 h -2.048 l -2.368,16.832 h 2.624 l 1.376,-9.728 c 0.416,-2.976 2.08,-4.512 3.744,-4.512 h 0.864 l 0.384,-2.72 c 0,0 -0.512,-0.256 -1.216,-0.256 z"
       style="font-style:italic;font-variant:normal;font-weight:normal;font-stretch:normal;font-size:32px;line-height:30.54940224px;font-family:'Archivo Narrow';-inkscape-font-specification:'Archivo Narrow Italic';text-align:center;letter-spacing:0px;word-spacing:0px;writing-mode:lr-tb;text-anchor:middle;fill:#000000;fill-opacity:1;stroke:none;stroke-width:1px;stroke-linecap:butt;stroke-linejoin:miter;stroke-opacity:1"
       id="path4670" />
    <path
       inkscape:connector-curvature="0"
       d="m 319.1295,45.926041 h -2.752 l -0.672,4.672 h -1.44 l -0.32,2.336 h 1.44 c 0,0 -1.664,11.264 -1.664,12.096 0,1.44 0.64,2.72 2.592,2.72 0.64,0 1.44,-0.192 1.952,-0.448 l 0.256,-1.824 h -0.928 c -0.8,0 -1.184,-0.416 -1.184,-1.184 0,-0.384 1.6,-11.36 1.6,-11.36 h 2.272 l 0.32,-2.336 h -2.272 z"
       style="font-style:italic;font-variant:normal;font-weight:normal;font-stretch:normal;font-size:32px;line-height:30.54940224px;font-family:'Archivo Narrow';-inkscape-font-specification:'Archivo Narrow Italic';text-align:center;letter-spacing:0px;word-spacing:0px;writing-mode:lr-tb;text-anchor:middle;fill:#000000;fill-opacity:1;stroke:none;stroke-width:1px;stroke-linecap:butt;stroke-linejoin:miter;stroke-opacity:1"
       id="path4672" />
    <path
       inkscape:connector-curvature="0"
       d="m 326.506,44.294041 h -2.624 l -3.232,23.136 h 2.592 l 1.312,-9.408 c 0.448,-3.232 1.856,-5.472 4,-5.472 1.248,0 1.92,0.608 1.92,2.048 0,1.024 -1.728,12.832 -1.728,12.832 h 2.624 c 0,0 1.792,-12.416 1.792,-13.44 0,-1.92 -0.864,-3.776 -3.648,-3.776 -2.24,0 -3.52,1.344 -4.16,2.336 z"
       style="font-style:italic;font-variant:normal;font-weight:normal;font-stretch:normal;font-size:32px;line-height:30.54940224px;font-family:'Archivo Narrow';-inkscape-font-specification:'Archivo Narrow Italic';text-align:center;letter-spacing:0px;word-spacing:0px;writing-mode:lr-tb;text-anchor:middle;fill:#000000;fill-opacity:1;stroke:none;stroke-width:1px;stroke-linecap:butt;stroke-linejoin:miter;stroke-opacity:1"
       id="path4674" />
    <path
       inkscape:connector-curvature="0"
       d="m 342.7645,50.214041 c -5.824,0 -7.136,6.688 -7.136,11.488 0,4.192 1.984,6.112 5.44,6.112 3.584,0 5.696,-2.816 6.208,-6.08 h -2.656 c -0.288,2.016 -1.664,3.744 -3.552,3.744 -1.824,0 -2.72,-1.312 -2.72,-4 0,-0.416 0.032,-1.024 0.096,-1.696 h 9.248 c 0.192,-1.216 0.256,-2.432 0.256,-3.52 0,-4.128 -1.824,-6.048 -5.184,-6.048 z m 0,2.336 c 1.632,0 2.464,1.28 2.464,3.744 0,0.288 0,0.736 -0.032,1.152 h -6.432 c 0.512,-2.432 1.664,-4.896 4,-4.896 z"
       style="font-style:italic;font-variant:normal;font-weight:normal;font-stretch:normal;font-size:32px;line-height:30.54940224px;font-family:'Archivo Narrow';-inkscape-font-specification:'Archivo Narrow Italic';text-align:center;letter-spacing:0px;word-spacing:0px;writing-mode:lr-tb;text-anchor:middle;fill:#000000;fill-opacity:1;stroke:none;stroke-width:1px;stroke-linecap:butt;stroke-linejoin:miter;stroke-opacity:1"
       id="path4676" />
    <path
       inkscape:connector-curvature="0"
       d="m 364.6715,50.214041 c -1.92,0 -2.752,1.792 -3.36,3.072 v -2.688 h -2.048 l -2.368,16.832 h 2.624 l 1.376,-9.728 c 0.416,-2.976 2.08,-4.512 3.744,-4.512 h 0.864 l 0.384,-2.72 c 0,0 -0.512,-0.256 -1.216,-0.256 z"
       style="font-style:italic;font-variant:normal;font-weight:normal;font-stretch:normal;font-size:32px;line-height:30.54940224px;font-family:'Archivo Narrow';-inkscape-font-specification:'Archivo Narrow Italic';text-align:center;letter-spacing:0px;word-spacing:0px;writing-mode:lr-tb;text-anchor:middle;fill:#000000;fill-opacity:1;stroke:none;stroke-width:1px;stroke-linecap:butt;stroke-linejoin:miter;stroke-opacity:1"
       id="path4678" />
    <path
       inkscape:connector-curvature="0"
       d="m 373.3895,50.214041 c -5.824,0 -7.136,6.688 -7.136,11.488 0,4.192 1.984,6.112 5.44,6.112 3.584,0 5.696,-2.816 6.208,-6.08 h -2.656 c -0.288,2.016 -1.664,3.744 -3.552,3.744 -1.824,0 -2.72,-1.312 -2.72,-4 0,-0.416 0.032,-1.024 0.096,-1.696 h 9.248 c 0.192,-1.216 0.256,-2.432 0.256,-3.52 0,-4.128 -1.824,-6.048 -5.184,-6.048 z m 0,2.336 c 1.632,0 2.464,1.28 2.464,3.744 0,0.288 0,0.736 -0.032,1.152 h -6.432 c 0.512,-2.432 1.664,-4.896 4,-4.896 z"
       style="font-style:italic;font-variant:normal;font-weight:normal;font-stretch:normal;font-size:32px;line-height:30.54940224px;font-family:'Archivo Narrow';-inkscape-font-specification:'Archivo Narrow Italic';text-align:center;letter-spacing:0px;word-spacing:0px;writing-mode:lr-tb;text-anchor:middle;fill:#000000;fill-opacity:1;stroke:none;stroke-width:1px;stroke-linecap:butt;stroke-linejoin:miter;stroke-opacity:1"
       id="path4680" />
    <path
       inkscape:connector-curvature="0"
       d="m 387.696,52.550041 c 1.568,0 2.336,1.216 2.368,3.616 0,2.368 -0.928,8.672 -4.064,8.672 -1.568,0 -2.432,-1.024 -2.432,-3.232 0,-2.656 0.64,-9.056 4.128,-9.056 z m 1.024,14.08 c -0.48,2.944 -1.568,4.32 -3.648,4.32 -1.696,0 -2.528,-0.928 -2.528,-2.752 h -2.624 c 0,2.688 1.6,5.056 5.056,5.056 3.616,0 5.728,-2.144 6.464,-7.392 l 2.144,-15.264 h -2.08 l -0.544,2.336 c -0.672,-2.08 -2.016,-2.72 -3.616,-2.72 -3.136,0 -6.464,3.456 -6.464,11.136 0,2.848 1.12,5.824 4.288,5.824 1.568,0 2.752,-0.832 3.904,-2.656 z"
       style="font-style:italic;font-variant:normal;font-weight:normal;font-stretch:normal;font-size:32px;line-height:30.54940224px;font-family:'Archivo Narrow';-inkscape-font-specification:'Archivo Narrow Italic';text-align:center;letter-spacing:0px;word-spacing:0px;writing-mode:lr-tb;text-anchor:middle;fill:#000000;fill-opacity:1;stroke:none;stroke-width:1px;stroke-linecap:butt;stroke-linejoin:miter;stroke-opacity:1"
       id="path4682" />
    <path
       inkscape:connector-curvature="0"
       d="m 408.14651,50.598041 h -2.624 l -1.312,9.408 c -0.448,3.232 -1.856,5.472 -4,5.472 -1.248,0 -1.92,-0.608 -1.92,-2.048 0,-1.024 1.728,-12.832 1.728,-12.832 h -2.624 c 0,0 -1.792,12.416 -1.792,13.44 0,1.92 0.864,3.776 3.648,3.776 2.688,0 4,-1.888 4.48,-2.848 v 2.464 h 2.048 z"
       style="font-style:italic;font-variant:normal;font-weight:normal;font-stretch:normal;font-size:32px;line-height:30.54940224px;font-family:'Archivo Narrow';-inkscape-font-specification:'Archivo Narrow Italic';text-align:center;letter-spacing:0px;word-spacing:0px;writing-mode:lr-tb;text-anchor:middle;fill:#000000;fill-opacity:1;stroke:none;stroke-width:1px;stroke-linecap:butt;stroke-linejoin:miter;stroke-opacity:1"
       id="path4684" />
    <path
       inkscape:connector-curvature="0"
       d="m 415.15701,44.294041 h -2.624 l -3.2,23.136 h 2.592 z"
       style="font-style:italic;font-variant:normal;font-weight:normal;font-stretch:normal;font-size:32px;line-height:30.54940224px;font-family:'Archivo Narrow';-inkscape-font-specification:'Archivo Narrow Italic';text-align:center;letter-spacing:0px;word-spacing:0px;writing-mode:lr-tb;text-anchor:middle;fill:#000000;fill-opacity:1;stroke:none;stroke-width:1px;stroke-linecap:butt;stroke-linejoin:miter;stroke-opacity:1"
       id="path4686" />
    <path
       inkscape:connector-curvature="0"
       d="m 422.18551,50.214041 c -3.136,0 -6.496,3.648 -6.496,11.36 0,4.32 1.792,6.24 4.256,6.24 1.504,0 2.656,-0.832 3.872,-2.656 0.032,1.888 0.96,2.656 2.304,2.656 0.832,0 1.472,-0.288 1.792,-0.512 l 0.256,-1.824 h -1.024 c -0.416,0 -0.768,-0.256 -0.768,-0.896 0,-0.384 1.952,-13.984 1.952,-13.984 h -2.08 l -0.576,2.336 c -0.64,-2.08 -1.952,-2.72 -3.488,-2.72 z m 0.384,2.336 c 1.472,0 2.208,1.216 2.208,3.616 0,2.56 -0.992,9.312 -4.032,9.312 -1.568,0 -2.368,-1.216 -2.368,-3.648 0,-2.752 0.768,-9.28 4.192,-9.28 z"
       style="font-style:italic;font-variant:normal;font-weight:normal;font-stretch:normal;font-size:32px;line-height:30.54940224px;font-family:'Archivo Narrow';-inkscape-font-specification:'Archivo Narrow Italic';text-align:center;letter-spacing:0px;word-spacing:0px;writing-mode:lr-tb;text-anchor:middle;fill:#000000;fill-opacity:1;stroke:none;stroke-width:1px;stroke-linecap:butt;stroke-linejoin:miter;stroke-opacity:1"
       id="path4688" />
    <path
       inkscape:connector-curvature="0"
       d="m 437.48401,50.214041 c -1.92,0 -2.752,1.792 -3.36,3.072 v -2.688 h -2.048 l -2.368,16.832 h 2.624 l 1.376,-9.728 c 0.416,-2.976 2.08,-4.512 3.744,-4.512 h 0.864 l 0.384,-2.72 c 0,0 -0.512,-0.256 -1.216,-0.256 z"
       style="font-style:italic;font-variant:normal;font-weight:normal;font-stretch:normal;font-size:32px;line-height:30.54940224px;font-family:'Archivo Narrow';-inkscape-font-specification:'Archivo Narrow Italic';text-align:center;letter-spacing:0px;word-spacing:0px;writing-mode:lr-tb;text-anchor:middle;fill:#000000;fill-opacity:1;stroke:none;stroke-width:1px;stroke-linecap:butt;stroke-linejoin:miter;stroke-opacity:1"
       id="path4690" />
    <path
       inkscape:connector-curvature="0"
       d="m 460.07451,67.430041 0.384,-2.56 h -10.912 l 1.024,-7.392 h 9.312 l 0.352,-2.56 h -9.312 l 0.96,-6.88 h 10.72 l 0.384,-2.56 h -13.536 l -3.104,21.952 z"
       style="font-style:italic;font-variant:normal;font-weight:normal;font-stretch:normal;font-size:32px;line-height:30.54940224px;font-family:'Archivo Narrow';-inkscape-font-specification:'Archivo Narrow Italic';text-align:center;letter-spacing:0px;word-spacing:0px;writing-mode:lr-tb;text-anchor:middle;fill:#000000;fill-opacity:1;stroke:none;stroke-width:1px;stroke-linecap:butt;stroke-linejoin:miter;stroke-opacity:1"
       id="path4692" />
    <path
       inkscape:connector-curvature="0"
       d="m 477.06251,50.598041 h -2.816 l -5.376,13.024 h -0.128 l -1.728,-13.024 h -2.784 l 2.496,16.832 h 2.848 z"
       style="font-style:italic;font-variant:normal;font-weight:normal;font-stretch:normal;font-size:32px;line-height:30.54940224px;font-family:'Archivo Narrow';-inkscape-font-specification:'Archivo Narrow Italic';text-align:center;letter-spacing:0px;word-spacing:0px;writing-mode:lr-tb;text-anchor:middle;fill:#000000;fill-opacity:1;stroke:none;stroke-width:1px;stroke-linecap:butt;stroke-linejoin:miter;stroke-opacity:1"
       id="path4694" />
    <path
       inkscape:connector-curvature="0"
       d="m 484.13951,50.214041 c -5.824,0 -7.136,6.688 -7.136,11.488 0,4.192 1.984,6.112 5.44,6.112 3.584,0 5.696,-2.816 6.208,-6.08 h -2.656 c -0.288,2.016 -1.664,3.744 -3.552,3.744 -1.824,0 -2.72,-1.312 -2.72,-4 0,-0.416 0.032,-1.024 0.096,-1.696 h 9.248 c 0.192,-1.216 0.256,-2.432 0.256,-3.52 0,-4.128 -1.824,-6.048 -5.184,-6.048 z m 0,2.336 c 1.632,0 2.464,1.28 2.464,3.744 0,0.288 0,0.736 -0.032,1.152 h -6.432 c 0.512,-2.432 1.664,-4.896 4,-4.896 z"
       style="font-style:italic;font-variant:normal;font-weight:normal;font-stretch:normal;font-size:32px;line-height:30.54940224px;font-family:'Archivo Narrow';-inkscape-font-specification:'Archivo Narrow Italic';text-align:center;letter-spacing:0px;word-spacing:0px;writing-mode:lr-tb;text-anchor:middle;fill:#000000;fill-opacity:1;stroke:none;stroke-width:1px;stroke-linecap:butt;stroke-linejoin:miter;stroke-opacity:1"
       id="path4696" />
    <path
       inkscape:connector-curvature="0"
       d="m 500.04601,50.214041 c -2.688,0 -4,1.92 -4.48,2.88 v -2.496 h -2.048 l -2.368,16.832 h 2.624 l 1.312,-9.408 c 0.448,-3.232 1.856,-5.472 4,-5.472 1.248,0 1.92,0.608 1.92,2.048 0,1.024 -1.728,12.832 -1.728,12.832 h 2.624 c 0,0 1.792,-12.416 1.792,-13.44 0,-1.92 -0.864,-3.776 -3.648,-3.776 z"
       style="font-style:italic;font-variant:normal;font-weight:normal;font-stretch:normal;font-size:32px;line-height:30.54940224px;font-family:'Archivo Narrow';-inkscape-font-specification:'Archivo Narrow Italic';text-align:center;letter-spacing:0px;word-spacing:0px;writing-mode:lr-tb;text-anchor:middle;fill:#000000;fill-opacity:1;stroke:none;stroke-width:1px;stroke-linecap:butt;stroke-linejoin:miter;stroke-opacity:1"
       id="path4698" />
    <path
       inkscape:connector-curvature="0"
       d="m 511.50451,45.926041 h -2.752 l -0.672,4.672 h -1.44 l -0.32,2.336 h 1.44 c 0,0 -1.664,11.264 -1.664,12.096 0,1.44 0.64,2.72 2.592,2.72 0.64,0 1.44,-0.192 1.952,-0.448 l 0.256,-1.824 h -0.928 c -0.8,0 -1.184,-0.416 -1.184,-1.184 0,-0.384 1.6,-11.36 1.6,-11.36 h 2.272 l 0.32,-2.336 h -2.272 z"
       style="font-style:italic;font-variant:normal;font-weight:normal;font-stretch:normal;font-size:32px;line-height:30.54940224px;font-family:'Archivo Narrow';-inkscape-font-specification:'Archivo Narrow Italic';text-align:center;letter-spacing:0px;word-spacing:0px;writing-mode:lr-tb;text-anchor:middle;fill:#000000;fill-opacity:1;stroke:none;stroke-width:1px;stroke-linecap:butt;stroke-linejoin:miter;stroke-opacity:1"
       id="path4700" />
    <g
       aria-label="2x"
       style="font-style:normal;font-variant:normal;font-weight:normal;font-stretch:normal;font-size:206.4261322px;line-height:412.8522644px;font-family:'Archivo Narrow';-inkscape-font-specification:'Archivo Narrow, Normal';text-align:start;letter-spacing:0px;word-spacing:0px;writing-mode:lr-tb;text-anchor:start;fill:#000000;fill-opacity:1;stroke:none;stroke-width:16.51409149px;stroke-linecap:butt;stroke-linejoin:miter;stroke-opacity:1"
       id="text4738"
       inkscape:path-effect="#path-effect4745"
       transform="matrix(0.32360674,0,0,0.32360674,262.34346,68.74186)">
      <path
         d="m 284.37179,286.88188 c -20.43618,0 -38.18883,12.59199 -38.18883,42.93663 0,4.95423 0.61928,8.25705 0.61928,8.25705 h 17.54622 v -8.46348 c 0,-14.65625 5.16065,-27.04182 19.81691,-27.04182 15.06911,0 19.19763,11.35344 19.19763,20.84904 0,28.89966 -31.5832,49.33585 -48.51014,74.10698 -6.39921,9.28918 -9.90846,19.61048 -9.90846,30.7575 v 2.68354 h 76.99695 v -17.3398 h -56.14791 c 0.82571,-2.27069 2.06426,-4.7478 3.71567,-7.22491 15.89481,-24.35829 51.81296,-47.27159 51.81296,-82.77688 0,-26.0097 -16.51409,-36.74385 -36.95028,-36.74385 z"
         style="stroke-width:16.51409149px"
         id="path4740"
         inkscape:original-d="m 284.37179,286.88188 c -20.43618,0 -38.18883,12.59199 -38.18883,42.93663 0,4.95423 0.61928,8.25705 0.61928,8.25705 h 17.54622 v -8.46348 c 0,-14.65625 5.16065,-27.04182 19.81691,-27.04182 15.06911,0 19.19763,11.35344 19.19763,20.84904 0,28.89966 -31.5832,49.33585 -48.51014,74.10698 -6.39921,9.28918 -9.90846,19.61048 -9.90846,30.7575 v 2.68354 h 76.99695 v -17.3398 h -56.14791 c 0.82571,-2.27069 2.06426,-4.7478 3.71567,-7.22491 15.89481,-24.35829 51.81296,-47.27159 51.81296,-82.77688 0,-26.0097 -16.51409,-36.74385 -36.95028,-36.74385 z"
         inkscape:connector-curvature="0" />
      <path
         d="m 412.78498,322.38717 h -18.99121 l -20.22976,37.1567 -19.61048,-37.1567 h -20.43619 l 30.13822,53.67079 -31.5832,54.90936 h 18.57835 l 21.88117,-39.63382 21.26189,39.63382 h 20.43619 l -31.78963,-56.35434 z"
         style="stroke-width:16.51409149px"
         id="path4742"
         inkscape:original-d="m 412.78498,322.38717 h -18.99121 l -20.22976,37.1567 -19.61048,-37.1567 h -20.43619 l 30.13822,53.67079 -31.5832,54.90936 h 18.57835 l 21.88117,-39.63382 21.26189,39.63382 h 20.43619 l -31.78963,-56.35434 z"
         inkscape:connector-curvature="0" />
    </g>
  </g>
</svg>
