<?xml version="1.0" encoding="UTF-8" standalone="no"?>
<!-- Created with Inkscape (http://www.inkscape.org/) -->

<svg
   xmlns:dc="http://purl.org/dc/elements/1.1/"
   xmlns:cc="http://creativecommons.org/ns#"
   xmlns:rdf="http://www.w3.org/1999/02/22-rdf-syntax-ns#"
   xmlns:svg="http://www.w3.org/2000/svg"
   xmlns="http://www.w3.org/2000/svg"
   xmlns:sodipodi="http://sodipodi.sourceforge.net/DTD/sodipodi-0.dtd"
   xmlns:inkscape="http://www.inkscape.org/namespaces/inkscape"
   width="1125"
   height="825"
   viewBox="0 0 1125 825"
   version="1.1"
   id="svg24"
   inkscape:version="0.92.0 r15299"
   sodipodi:docname="special_events_reinforcements.svg">
  <defs
     id="defs18" />
  <sodipodi:namedview
     id="base"
     pagecolor="#ffffff"
     bordercolor="#666666"
     borderopacity="1.0"
     inkscape:pageopacity="0.0"
     inkscape:pageshadow="2"
     inkscape:zoom="0.7"
     inkscape:cx="256.51825"
     inkscape:cy="311.05486"
     inkscape:document-units="px"
     inkscape:current-layer="layer1"
     showgrid="false"
     units="px"
     showguides="true"
     inkscape:guide-bbox="true"
     inkscape:window-width="1920"
     inkscape:window-height="1017"
     inkscape:window-x="-8"
     inkscape:window-y="-8"
     inkscape:window-maximized="1">
    <sodipodi:guide
       position="87.690473,19.84375"
       orientation="0,1"
       id="guide32"
       inkscape:locked="false"
       inkscape:label=""
       inkscape:color="rgb(0,0,255)" />
    <sodipodi:guide
       position="1022.8571,750"
       orientation="0,1"
       id="guide36"
       inkscape:locked="false"
       inkscape:label=""
       inkscape:color="rgb(0,0,255)" />
    <sodipodi:guide
       position="75,545.71429"
       orientation="1,0"
       id="guide38"
       inkscape:locked="false"
       inkscape:label=""
       inkscape:color="rgb(0,0,255)" />
    <sodipodi:guide
       position="1050,285.71429"
       orientation="1,0"
       id="guide40"
       inkscape:locked="false"
       inkscape:label=""
       inkscape:color="rgb(0,0,255)" />
    <sodipodi:guide
       position="225,547.14286"
       orientation="1,0"
       id="guide42"
       inkscape:locked="false"
       inkscape:label=""
       inkscape:color="rgb(0,0,255)" />
    <sodipodi:guide
       position="900,604.28571"
       orientation="1,0"
       id="guide44"
       inkscape:locked="false"
       inkscape:label=""
       inkscape:color="rgb(0,0,255)" />
  </sodipodi:namedview>
  <metadata
     id="metadata21">
    <rdf:RDF>
      <cc:Work
         rdf:about="">
        <dc:format>image/svg+xml</dc:format>
        <dc:type
           rdf:resource="http://purl.org/dc/dcmitype/StillImage" />
        <dc:title></dc:title>
      </cc:Work>
    </rdf:RDF>
  </metadata>
  <g
     inkscape:label="Layer 1"
     inkscape:groupmode="layer"
     id="layer1"
     transform="translate(0,-78.718733)">
    <path
       sodipodi:nodetypes="cccccccccccccccccccccccccccccccccccccccsssss"
       id="path6846"
       d="m 107.45863,334.31025 v 95.34141 h 12.71435 v -95.34141 z m 33.90543,67.51988 v 27.82153 h 12.71436 v -27.82153 z m -43.79454,33.01413 v 70.10796 l 11.30171,11.29802 v 131.87698 h 77.70002 V 516.25024 l 11.30208,-11.29802 v -70.10796 z m 105.82303,4.94132 v 56.50088 H 215 v -56.50088 z m -89.57653,4.94352 h 67.81092 v 12.71404 h -67.81092 z m 0,22.60326 h 67.81092 v 12.7104 h -67.81092 z m 0,22.59961 h 67.81092 v 12.7104 h -67.81092 z m 22.60325,28.95268 c 9.36286,0 16.95277,7.58886 16.95277,16.95209 0,9.35954 -7.58991,16.94623 -16.95277,16.94623 -9.36239,0 -16.95266,-7.58669 -16.95266,-16.94623 0,-9.36323 7.59027,-16.95209 16.95266,-16.95209 z"
       style="fill:#000000;stroke-width:1.39474177"
       inkscape:connector-curvature="0" />
    <path
       inkscape:connector-curvature="0"
       style="fill:#000000;stroke-width:1.39474177"
       d="m 928.17293,334.31025 v 95.34141 h 12.71435 v -95.34141 z m 33.90543,67.51988 v 27.82153 h 12.71436 v -27.82153 z m -43.79454,33.01413 v 70.10796 l 11.30171,11.29802 v 131.87698 h 77.69967 V 516.25024 l 11.3021,-11.29802 v -70.10796 z m 105.82278,4.94132 v 56.50088 h 11.6074 v -56.50088 z m -89.57628,4.94352 h 67.81058 v 12.71404 h -67.81058 z m 0,22.60326 h 67.81058 v 12.7104 h -67.81058 z m 0,22.59961 h 67.81058 v 12.7104 h -67.81058 z m 22.60325,28.95268 c 9.36286,0 16.95277,7.58886 16.95277,16.95209 0,9.35954 -7.58991,16.94623 -16.95277,16.94623 -9.36239,0 -16.95266,-7.58669 -16.95266,-16.94623 0,-9.36323 7.59027,-16.95209 16.95266,-16.95209 z"
       id="path46"
       sodipodi:nodetypes="cccccccccccccccccccccccccccccccccccccccsssss" />
    <text
       transform="scale(1.0017146,0.99828834)"
       id="text5289"
       y="447.95575"
       x="446.87524"
       style="font-style:normal;font-weight:normal;font-size:105.47490692px;line-height:125%;font-family:sans-serif;letter-spacing:0px;word-spacing:0px;fill:#000000;fill-opacity:1;stroke:none;stroke-width:0.63553095px;stroke-linecap:butt;stroke-linejoin:miter;stroke-opacity:1"
       xml:space="preserve"><tspan
         y="447.95575"
         x="446.87524"
         id="tspan5291"
         sodipodi:role="line"
         style="stroke-width:0.63553095px">:</tspan></text>
    <path
       d="m 412.98949,1103.3571 5.58135,9.6672 -5.58135,9.6672 -11.1627,0 -5.58135,-9.6672 5.58135,-9.6672 z"
       inkscape:randomized="0"
       inkscape:rounded="0"
       inkscape:flatsided="true"
       sodipodi:arg2="-0.52359878"
       sodipodi:arg1="-1.0471976"
       sodipodi:r2="9.6671848"
       sodipodi:r1="11.162703"
       sodipodi:cy="1113.0243"
       sodipodi:cx="407.40814"
       sodipodi:sides="6"
       id="path5342"
       style="font-style:normal;font-weight:normal;font-size:medium;line-height:125%;font-family:sans-serif;letter-spacing:0px;word-spacing:0px;fill:#b3b3b3;fill-opacity:1;stroke:#000000;stroke-width:0.24782416;stroke-linecap:butt;stroke-linejoin:round;stroke-miterlimit:4;stroke-dasharray:none;stroke-dashoffset:0;stroke-opacity:1"
       sodipodi:type="star"
       transform="matrix(2.9081301,0,0,2.8981828,-623.87801,-2742.2714)" />
    <path
       inkscape:connector-curvature="0"
       style="fill:#000000;fill-opacity:1;stroke-width:1.07920682"
       d="m 552.86233,456.97072 v 13.79436 h 1.84684 v -13.79436 z m 4.92399,9.76901 v 4.02535 h 1.84641 v -4.02535 z m -6.36031,4.77662 v 10.14351 l 1.64158,1.6346 v 19.08044 h 11.28408 v -19.08044 l 1.64158,-1.6346 v -10.14351 z m 15.36845,0.71492 v 8.17476 h 1.68615 v -8.17476 z m -13.00887,0.71525 h 9.84819 v 1.83949 h -9.84819 z m 0,3.27033 h 9.84819 v 1.83897 h -9.84819 z m 0,3.26981 h 9.84819 v 1.83898 h -9.84819 z m 3.28273,4.18893 c 1.35959,0 2.46178,1.09804 2.46178,2.45273 0,1.35416 -1.10219,2.45183 -2.46178,2.45183 -1.35969,0 -2.46178,-1.09767 -2.46178,-2.45183 0,-1.35469 1.10209,-2.45273 2.46178,-2.45273 z"
       id="path5344"
       sodipodi:nodetypes="cccccccccccccccccccccccccccccccccccccccsssss" />
    <path
       sodipodi:type="star"
       style="font-style:normal;font-weight:normal;font-size:medium;line-height:125%;font-family:sans-serif;letter-spacing:0px;word-spacing:0px;fill:#b3b3b3;fill-opacity:1;stroke:#000000;stroke-width:0.23699656;stroke-linecap:butt;stroke-linejoin:round;stroke-miterlimit:4;stroke-dasharray:none;stroke-dashoffset:0;stroke-opacity:1"
       id="path5356"
       sodipodi:sides="6"
       sodipodi:cx="389.90088"
       sodipodi:cy="1102.7913"
       sodipodi:r1="11.162703"
       sodipodi:r2="9.6671848"
       sodipodi:arg1="-1.0471976"
       sodipodi:arg2="-0.52359878"
       inkscape:flatsided="true"
       inkscape:rounded="0"
       inkscape:randomized="0"
       d="m 395.48223,1093.1241 5.58135,9.6672 -5.58135,9.6671 -11.1627,0 -5.58135,-9.6671 5.58135,-9.6672 z"
       transform="matrix(3.0407438,0,0,3.0308398,-483.68666,-2858.4056)" />
    <g
       style="fill:#000000;fill-opacity:1"
       transform="matrix(0.56624352,0,0,0.56421148,673.67651,-97.92672)"
       id="g5358"
       inkscape:label="Layer 1">
      <path
         id="path5360"
         d="m 32.579912,995.13399 c 2.124847,0 3.534937,1.0606 5.426456,2.1113 1.792663,0.996 4.046316,1.8501 7.224481,1.2011 1.508237,1.5076 3.040556,3.01551 4.674665,4.03681 1.337237,0.8358 2.839909,1.3336 4.338736,1.0984 -0.430029,3.3835 -2.484655,6.6932 -4.632572,8.4257 -5.664236,-1.8772 -11.342639,-2.8162 -17.021041,-2.8162 -5.683664,0 -11.367226,0.9408 -17.036623,2.8213 -2.150144,-1.731 -4.20821,-5.044 -4.638543,-8.4308 1.498524,0.2354 3.001499,-0.2626 4.338736,-1.0983 1.634109,-1.0213 3.166226,-2.52911 4.674665,-4.03671 3.177862,0.6489 5.431819,-0.2053 7.224482,-1.2011 1.891721,-1.0512 3.30171,-2.1115 5.426558,-2.1115 z m 0.01063,1.977 c -2.004945,0 -5.379912,2.7095 -5.379912,2.7095 0,0 2.147108,8.12861 5.379912,8.12861 3.233006,0 5.380114,-8.12861 5.380114,-8.12861 0,0 -3.375168,-2.7095 -5.380114,-2.7095 z m 0,13.89451 c 5.341462,0 10.683329,0.8733 16.037945,2.6039 0.220579,1.363 -0.152787,2.3758 -0.955979,3.3124 -0.896483,1.0454 -2.401281,1.9329 -4.184938,2.6013 -3.56772,1.3375 -8.194121,1.8108 -10.897129,1.8108 -2.702907,0 -7.329105,-0.4733 -10.896724,-1.8107 -1.783861,-0.6684 -3.288455,-1.5558 -4.184939,-2.6014 -0.803394,-0.9366 -1.176963,-1.9492 -0.956181,-3.3123 5.354616,-1.7307 10.696381,-2.604 16.037844,-2.604 z m 17.527665,5.7823 c 0.993619,0.241 2.725066,0.7866 3.036104,1.7195 0.850142,2.5495 -1.71202,6.455 -3.649679,8.9193 0.533843,-2.2265 0.821608,-4.5948 0.821608,-7.0505 0,-1.22 -0.07144,-2.4182 -0.208033,-3.5883 z m -35.054926,0 a 30.949923,30.949923 0 0 0 -0.208033,3.5882 c 0,2.4557 0.287665,4.824 0.821608,7.0505 -1.937658,-2.4643 -4.499921,-6.3698 -3.649678,-8.9193 0.310936,-0.9329 2.042484,-1.4785 3.036002,-1.7195 z m 33.393498,1.9398 c 0.03086,0.5441 0.04806,1.0934 0.04806,1.6483 0,6.0077 -1.834452,11.4294 -4.745796,15.3096 -2.911244,3.88 -6.850408,6.2038 -11.168604,6.2038 -4.317892,0 -8.257158,-2.3238 -11.1683,-6.2038 -2.911244,-3.8802 -4.745494,-9.3018 -4.745494,-15.3095 0,-0.5551 0.0172,-1.1044 0.04796,-1.6485 0.829701,0.7747 1.843152,1.4032 2.958091,1.9255 -0.432053,1.8416 0.02691,4.1322 1.224114,5.3289 2.203164,2.2022 7.144041,2.2022 9.347306,0 0.68238,-0.6823 0.975103,-1.7694 0.936451,-2.8602 0.499238,0.022 0.971359,0.033 1.400072,0.033 0.428815,0 0.901036,-0.012 1.400376,-0.033 -0.03875,1.0907 0.25397,2.1779 0.936552,2.8602 2.203265,2.2022 7.14394,2.2022 9.347103,0 1.1972,-1.1967 1.656166,-3.487 1.224114,-5.3285 1.11504,-0.5223 2.128693,-1.1511 2.958193,-1.9258 z m -15.866237,11.926 c -2.336725,3.7373 -7.010176,4.2044 -9.346901,4.2044 2.336624,1.8688 9.3468,1.8688 9.3468,0 0,1.8688 7.010479,1.8688 9.347305,0 -2.336826,0 -7.010479,-0.4671 -9.347305,-4.2044 z"
         style="fill:#000000;fill-opacity:1"
         inkscape:connector-curvature="0" />
    </g>
    <path
       inkscape:transform-center-y="-4.4367585"
       inkscape:transform-center-x="-4.596416"
       sodipodi:nodetypes="cccccccc"
       inkscape:connector-curvature="0"
       id="path5392"
       d="m 661.21059,483.78832 -29.75783,-23.70824 v 12.978 l -32.62529,-3e-5 v 22.55057 l 32.62529,3e-5 v 11.8873 z"
       style="fill:#000000;fill-opacity:1;stroke:none;stroke-width:1.18820667;stroke-linecap:round;stroke-linejoin:round;stroke-miterlimit:4;stroke-dasharray:none;stroke-dashoffset:0;stroke-opacity:1" />
    <g
       inkscape:label="Layer 1"
       id="g4852"
       transform="matrix(0.56624352,0,0,0.56421148,696.25611,-85.329787)"
       style="fill:#000000;fill-opacity:1">
      <path
         inkscape:connector-curvature="0"
         style="fill:#000000;fill-opacity:1"
         d="m 32.579912,995.13399 c 2.124847,0 3.534937,1.0606 5.426456,2.1113 1.792663,0.996 4.046316,1.8501 7.224481,1.2011 1.508237,1.5076 3.040556,3.01551 4.674665,4.03681 1.337237,0.8358 2.839909,1.3336 4.338736,1.0984 -0.430029,3.3835 -2.484655,6.6932 -4.632572,8.4257 -5.664236,-1.8772 -11.342639,-2.8162 -17.021041,-2.8162 -5.683664,0 -11.367226,0.9408 -17.036623,2.8213 -2.150144,-1.731 -4.20821,-5.044 -4.638543,-8.4308 1.498524,0.2354 3.001499,-0.2626 4.338736,-1.0983 1.634109,-1.0213 3.166226,-2.52911 4.674665,-4.03671 3.177862,0.6489 5.431819,-0.2053 7.224482,-1.2011 1.891721,-1.0512 3.30171,-2.1115 5.426558,-2.1115 z m 0.01063,1.977 c -2.004945,0 -5.379912,2.7095 -5.379912,2.7095 0,0 2.147108,8.12861 5.379912,8.12861 3.233006,0 5.380114,-8.12861 5.380114,-8.12861 0,0 -3.375168,-2.7095 -5.380114,-2.7095 z m 0,13.89451 c 5.341462,0 10.683329,0.8733 16.037945,2.6039 0.220579,1.363 -0.152787,2.3758 -0.955979,3.3124 -0.896483,1.0454 -2.401281,1.9329 -4.184938,2.6013 -3.56772,1.3375 -8.194121,1.8108 -10.897129,1.8108 -2.702907,0 -7.329105,-0.4733 -10.896724,-1.8107 -1.783861,-0.6684 -3.288455,-1.5558 -4.184939,-2.6014 -0.803394,-0.9366 -1.176963,-1.9492 -0.956181,-3.3123 5.354616,-1.7307 10.696381,-2.604 16.037844,-2.604 z m 17.527665,5.7823 c 0.993619,0.241 2.725066,0.7866 3.036104,1.7195 0.850142,2.5495 -1.71202,6.455 -3.649679,8.9193 0.533843,-2.2265 0.821608,-4.5948 0.821608,-7.0505 0,-1.22 -0.07144,-2.4182 -0.208033,-3.5883 z m -35.054926,0 a 30.949923,30.949923 0 0 0 -0.208033,3.5882 c 0,2.4557 0.287665,4.824 0.821608,7.0505 -1.937658,-2.4643 -4.499921,-6.3698 -3.649678,-8.9193 0.310936,-0.9329 2.042484,-1.4785 3.036002,-1.7195 z m 33.393498,1.9398 c 0.03086,0.5441 0.04806,1.0934 0.04806,1.6483 0,6.0077 -1.834452,11.4294 -4.745796,15.3096 -2.911244,3.88 -6.850408,6.2038 -11.168604,6.2038 -4.317892,0 -8.257158,-2.3238 -11.1683,-6.2038 -2.911244,-3.8802 -4.745494,-9.3018 -4.745494,-15.3095 0,-0.5551 0.0172,-1.1044 0.04796,-1.6485 0.829701,0.7747 1.843152,1.4032 2.958091,1.9255 -0.432053,1.8416 0.02691,4.1322 1.224114,5.3289 2.203164,2.2022 7.144041,2.2022 9.347306,0 0.68238,-0.6823 0.975103,-1.7694 0.936451,-2.8602 0.499238,0.022 0.971359,0.033 1.400072,0.033 0.428815,0 0.901036,-0.012 1.400376,-0.033 -0.03875,1.0907 0.25397,2.1779 0.936552,2.8602 2.203265,2.2022 7.14394,2.2022 9.347103,0 1.1972,-1.1967 1.656166,-3.487 1.224114,-5.3285 1.11504,-0.5223 2.128693,-1.1511 2.958193,-1.9258 z m -15.866237,11.926 c -2.336725,3.7373 -7.010176,4.2044 -9.346901,4.2044 2.336624,1.8688 9.3468,1.8688 9.3468,0 0,1.8688 7.010479,1.8688 9.347305,0 -2.336826,0 -7.010479,-0.4671 -9.347305,-4.2044 z"
         id="path4854" />
    </g>
    <path
       transform="matrix(2.2785895,0,0,2.2707956,-378.25916,-2131.8414)"
       sodipodi:type="star"
       style="font-style:normal;font-weight:normal;font-size:medium;line-height:125%;font-family:sans-serif;letter-spacing:0px;word-spacing:0px;fill:#b3b3b3;fill-opacity:1;stroke:#000000;stroke-width:0.31629431;stroke-linecap:butt;stroke-linejoin:round;stroke-miterlimit:4;stroke-dasharray:none;stroke-dashoffset:0;stroke-opacity:1"
       id="path4856"
       sodipodi:sides="6"
       sodipodi:cx="407.40814"
       sodipodi:cy="1113.0243"
       sodipodi:r1="11.162703"
       sodipodi:r2="9.6671848"
       sodipodi:arg1="-1.0471976"
       sodipodi:arg2="-0.52359878"
       inkscape:flatsided="true"
       inkscape:rounded="0"
       inkscape:randomized="0"
       d="m 412.98949,1103.3571 5.58135,9.6672 -5.58135,9.6672 -11.1627,0 -5.58135,-9.6672 5.58135,-9.6672 z" />
    <path
       sodipodi:nodetypes="cccccccccccccccccccccccccccccccccccccccsssss"
       id="path4859"
       d="m 544.50074,377.8217 v 10.80823 h 1.44689 V 377.8217 Z m 3.85795,7.65425 v 3.15398 h 1.44689 v -3.15398 z m -4.98345,3.74261 v 7.94767 l 1.28619,1.28076 v 14.94999 h 8.84141 v -14.94999 l 1.2862,-1.28076 v -7.94767 z m 12.04189,0.56015 v 6.40513 h 1.32095 v -6.40513 z m -10.19289,0.56041 h 7.71611 v 1.44129 h -7.71611 z m 0,2.56241 h 7.71611 v 1.44089 h -7.71611 z m 0,2.56192 h 7.71611 v 1.44093 h -7.71611 z m 2.57164,3.28217 c 1.06561,0 1.9293,0.86032 1.9293,1.92175 0,1.06102 -0.86369,1.92108 -1.9293,1.92108 -1.06528,0 -1.92854,-0.86006 -1.92854,-1.92108 0,-1.06143 0.86326,-1.92175 1.92854,-1.92175 z"
       style="fill:#000000;fill-opacity:1;stroke-width:1.07920682"
       inkscape:connector-curvature="0" />
    <path
       inkscape:transform-center-y="-4.4367572"
       inkscape:transform-center-x="-4.5964128"
       sodipodi:nodetypes="cccccccc"
       inkscape:connector-curvature="0"
       id="path6027"
       d="m 683.59442,392.15126 -29.75783,-23.70821 v 12.97797 l -32.62529,-4e-5 v 22.55056 l 32.62529,4e-5 v 11.8873 z"
       style="fill:#000000;fill-opacity:1;stroke:none;stroke-width:1.18820667;stroke-linecap:round;stroke-linejoin:round;stroke-miterlimit:4;stroke-dasharray:none;stroke-dashoffset:0;stroke-opacity:1" />
    <path
       transform="matrix(2.2785895,0,0,2.2707956,-376.66032,-2178.1311)"
       sodipodi:type="star"
       style="font-style:normal;font-weight:normal;font-size:medium;line-height:125%;font-family:sans-serif;letter-spacing:0px;word-spacing:0px;fill:#b3b3b3;fill-opacity:1;stroke:#000000;stroke-width:0.31629431;stroke-linecap:butt;stroke-linejoin:round;stroke-miterlimit:4;stroke-dasharray:none;stroke-dashoffset:0;stroke-opacity:1"
       id="path6037"
       sodipodi:sides="6"
       sodipodi:cx="407.40814"
       sodipodi:cy="1113.0243"
       sodipodi:r1="11.162703"
       sodipodi:r2="9.6671848"
       sodipodi:arg1="-1.0471976"
       sodipodi:arg2="-0.52359878"
       inkscape:flatsided="true"
       inkscape:rounded="0"
       inkscape:randomized="0"
       d="m 412.98949,1103.3571 5.58135,9.6672 -5.58135,9.6672 -11.1627,0 -5.58135,-9.6672 5.58135,-9.6672 z" />
    <g
       id="g4861"
       transform="matrix(0.92564041,0,0,0.9241062,53.659116,-232.16995)"
       style="fill:#000000;fill-opacity:1">
      <path
         sodipodi:nodetypes="ccccccccscccccccccsccccccsccccccccccccccccscccscccssccccccccc"
         d="m 525.65901,625.00231 1.94807,9.9888 -7.17953,1.5595 c -0.26665,0.0574 -0.4583,0.29137 -0.46207,0.5641 l -0.0654,4.7112 c -0.006,0.3994 0.38172,0.68693 0.76242,0.566 l 9.02373,-2.8841 1.48619,-0.2882 c 0.0109,2e-4 0.0217,8e-4 0.0326,8e-4 0.61338,0 1.19103,-0.2922 1.59444,-0.7684 0.40311,-0.4759 0.61399,-1.096 0.61338,-1.7349 v 0 c 3.2e-4,-0.405 -0.0845,-0.8032 -0.24921,-1.1616 l -1.55704,-8.0443 z m 1.30079,0.5469 0.9866,0.416 1.83175,8.5978 c -0.18513,-0.057 -0.37846,-0.087 -0.57555,-0.087 -0.16782,0 -0.33269,0.023 -0.49212,0.064 l -1.75068,-8.9909 z m 2.30127,0.9702 1.0484,0.442 1.417,7.321 c -0.16831,-0.046 -0.34278,-0.071 -0.52041,-0.071 -0.10122,0 -0.20121,0.01 -0.29973,0.024 l -1.6452,-7.7159 z m 1.94493,8.8665 c 0.23799,0 0.50876,0.1218 0.70678,0.3556 0.19807,0.2338 0.33472,0.6093 0.33417,0.9731 6.2e-4,0.3638 -0.13616,0.7393 -0.33411,0.9731 -0.094,0.1109 -0.20429,0.1957 -0.31963,0.2552 l -0.37846,0.073 c 0.12974,-0.3249 0.19616,-0.6778 0.19579,-1.0367 v 0 c 2.5e-4,-0.2325 -0.0278,-0.4627 -0.0827,-0.6843 0.002,-0.0465 -0.002,-0.093 -0.0119,-0.1385 l -0.16363,-0.7675 h 0.0536 z m -2.0034,0.2649 c 0.23806,0 0.50889,0.1218 0.70696,0.3556 0.19802,0.2338 0.33455,0.6094 0.33405,0.9732 6.4e-4,0.3638 -0.13616,0.7393 -0.33411,0.9731 -0.19807,0.2338 -0.46884,0.3557 -0.70696,0.3557 -0.23799,0 -0.50723,-0.122 -0.70524,-0.3557 -0.198,-0.2338 -0.33626,-0.6093 -0.33576,-0.9731 -6.4e-4,-0.3638 0.13776,-0.7394 0.33576,-0.9732 0.19801,-0.2338 0.46725,-0.3556 0.70524,-0.3556 z m -2.12526,0.6524 c -0.0536,0.2193 -0.0811,0.4467 -0.0808,0.6764 v 0 c -6.3e-4,0.6388 0.21009,1.259 0.6132,1.7349 0.0516,0.061 0.10614,0.1189 0.16313,0.1735 l -6.68979,2.1381 0.0482,-3.4328 5.94611,-1.2917 z"
         id="path4863"
         inkscape:connector-curvature="0"
         style="fill:#000000;fill-opacity:1;stroke-linecap:round;stroke-linejoin:round" />
      <path
         sodipodi:nodetypes="cccccccccccccccccccccccccccccccccccccccccccccccccccccccccccccccccccccccccccccccccccccccc"
         style="fill:#000000;fill-opacity:1;stroke-linecap:round;stroke-linejoin:round"
         inkscape:connector-curvature="0"
         id="path4865"
         d="m 557.57911,623.18801 c 0.36275,-0.83791 0.62263,-1.77224 0.75319,-2.81716 l 0.004,-0.008 c 10e-4,-0.0107 0.002,-0.0215 0.002,-0.0324 4.3e-4,-0.009 8.9e-4,-0.0172 3.5e-4,-0.026 3e-4,-0.0108 -5.1e-4,-0.0215 -10e-4,-0.0322 -5e-4,-0.009 -0.001,-0.0178 -0.002,-0.0265 -6.2e-4,-0.0112 -0.003,-0.022 -0.004,-0.0329 -0.002,-0.008 -0.003,-0.0166 -0.004,-0.0249 -0.002,-0.0106 -0.005,-0.0218 -0.008,-0.0325 -0.002,-0.008 -0.004,-0.0165 -0.007,-0.0246 -0.003,-0.0101 -0.007,-0.0209 -0.0105,-0.0311 -0.003,-0.008 -0.006,-0.016 -0.009,-0.0239 -0.004,-0.0105 -0.009,-0.0206 -0.0139,-0.0309 -0.004,-0.007 -0.007,-0.0142 -0.0105,-0.0211 -0.005,-0.01 -0.0118,-0.0208 -0.0182,-0.0309 -0.004,-0.007 -0.008,-0.0133 -0.0122,-0.0197 -0.007,-0.009 -0.0129,-0.0186 -0.0197,-0.0275 -0.005,-0.006 -0.0102,-0.0131 -0.0155,-0.0197 -0.007,-0.009 -0.0148,-0.0173 -0.0228,-0.0254 -0.006,-0.006 -0.0113,-0.0125 -0.0171,-0.0183 -0.008,-0.008 -0.0163,-0.0158 -0.025,-0.0228 -0.006,-0.006 -0.0122,-0.0118 -0.0188,-0.0169 -0.0112,-0.009 -0.0224,-0.0184 -0.0344,-0.0263 l -5.78328,-4.00456 c -0.2286,-0.15826 -0.537,-0.13378 -0.73783,0.0584 l -3.96138,3.79236 -4.66387,4.4628 -6.07429,5.81523 -0.004,0.009 c -0.008,0.009 -0.0162,0.0173 -0.0244,0.0261 -0.006,0.005 -0.0121,0.0103 -0.0177,0.0159 -0.008,0.009 -0.0152,0.0176 -0.0225,0.0268 -0.007,0.006 -0.0132,0.0129 -0.0194,0.0196 -0.004,0.009 -0.008,0.0182 -0.0118,0.0274 -0.004,0.009 -0.008,0.0181 -0.0118,0.0273 -0.004,0.008 -0.007,0.0162 -0.0105,0.0243 -0.005,0.01 -0.009,0.0201 -0.0135,0.0303 -0.003,0.006 -0.006,0.0138 -0.008,0.0208 l -1.7414,4.84541 c -0.0714,0.20056 -0.0283,0.42406 0.11254,0.58366 l 4.81212,5.47273 4.8e-4,9e-4 9e-5,4e-5 -7.9e-4,0.002 c 0.23004,0.26662 0.64179,0.27106 0.87765,0.01 0.43184,-0.33592 0.79694,-0.71601 1.10321,-1.13088 l 14.28632,-14.48689 c 0.0119,-0.0125 0.0234,-0.0255 0.0343,-0.039 0.54305,-0.65902 1.00914,-1.40032 1.3721,-2.23819 z m -0.13161,-1.82549 c -0.0304,0.0717 -0.0748,0.13666 -0.13056,0.19102 l -13.70048,13.59064 c -0.202,0.20058 -0.51898,0.2269 -0.75129,0.0624 -0.0196,-0.027 -0.0414,-0.0523 -0.0653,-0.0757 l -0.0966,-0.0979 c -0.14082,-0.23136 -0.10467,-0.52909 0.0874,-0.72002 l 13.70231,-13.58979 c 0.45343,-0.45681 1.20468,0.0465 0.95474,0.63959 z m -15.99774,17.0647 c -0.10761,0.24881 -0.24246,0.48248 -0.39947,0.70441 l -0.68395,0.69358 -2.25485,-2.56415 c 0.20714,0.15083 0.42328,0.27558 0.6377,0.3655 0.49608,0.20803 0.97377,0.22383 1.29804,0.0349 0.32428,-0.18899 0.48265,-0.5758 0.43565,-1.04499 -0.012,-0.11593 -0.0358,-0.23734 -0.0708,-0.35995 0.0318,0.0549 0.0682,0.10936 0.11073,0.16113 0.12119,0.14754 0.28149,0.27267 0.44215,0.34027 0.16105,0.0675 0.31957,0.0748 0.42853,0.0133 0.0547,-0.0306 0.0949,-0.0758 0.11866,-0.13328 0.024,-0.0574 0.0321,-0.12719 0.024,-0.20148 -0.0173,-0.14891 -0.0993,-0.31681 -0.22068,-0.46464 -0.12165,-0.14773 -0.28135,-0.27272 -0.44241,-0.34017 -0.16095,-0.0674 -0.31947,-0.0748 -0.4285,-0.0134 -0.10838,0.0616 -0.15806,0.18657 -0.14445,0.33396 -0.11792,-0.28031 -0.28661,-0.56337 -0.49693,-0.82524 -0.38016,-0.47375 -0.88619,-0.86836 -1.38245,-1.07623 -0.49608,-0.20803 -0.97697,-0.22121 -1.30126,-0.0322 -0.32435,0.1889 -0.47944,0.5729 -0.43224,1.04212 0.0297,0.2933 0.13748,0.61593 0.30703,0.93226 l -0.80078,-0.9109 1.30851,-3.64611 4.31319,4.36623 c 0.08,1.01699 -0.0405,1.88025 -0.36953,2.62337 z" />
      <path
         sodipodi:nodetypes="cccccccc"
         id="path4867"
         d="m 526.02681,607.50554 1.12689,7.14648 -2.91854,-0.74553 4.51983,9.87315 -1.12792,-7.14503 2.91969,0.7441 -4.52014,-9.8733 z"
         inkscape:connector-curvature="0"
         style="fill:#000000;fill-opacity:1" />
      <path
         style="fill:#000000;fill-opacity:1"
         inkscape:connector-curvature="0"
         d="m 542.72268,609.72784 -4.0292,6.00895 -1.6347,-2.5301 -3.39261,10.31495 4.02745,-6.00861 1.63652,2.52986 3.39248,-10.31527 z"
         id="path4869"
         sodipodi:nodetypes="cccccccc" />
    </g>
    <path
       d="m 412.98949,1103.3571 5.58135,9.6672 -5.58135,9.6672 -11.1627,0 -5.58135,-9.6672 5.58135,-9.6672 z"
       inkscape:randomized="0"
       inkscape:rounded="0"
       inkscape:flatsided="true"
       sodipodi:arg2="-0.52359878"
       sodipodi:arg1="-1.0471976"
       sodipodi:r2="9.6671848"
       sodipodi:r1="11.162703"
       sodipodi:cy="1113.0243"
       sodipodi:cx="407.40814"
       sodipodi:sides="6"
       id="path6021"
       style="font-style:normal;font-weight:normal;font-size:medium;line-height:125%;font-family:sans-serif;letter-spacing:0px;word-spacing:0px;fill:#b3b3b3;fill-opacity:1;stroke:#000000;stroke-width:0.31629431;stroke-linecap:butt;stroke-linejoin:round;stroke-miterlimit:4;stroke-dasharray:none;stroke-dashoffset:0;stroke-opacity:1"
       sodipodi:type="star"
       transform="matrix(2.2785895,0,0,2.2707956,-337.222,-2152.5919)" />
    <path
       transform="matrix(2.2785895,0,0,2.2707956,-338.28793,-2106.3021)"
       sodipodi:type="star"
       style="font-style:normal;font-weight:normal;font-size:medium;line-height:125%;font-family:sans-serif;letter-spacing:0px;word-spacing:0px;fill:#b3b3b3;fill-opacity:1;stroke:#000000;stroke-width:0.31629431;stroke-linecap:butt;stroke-linejoin:round;stroke-miterlimit:4;stroke-dasharray:none;stroke-dashoffset:0;stroke-opacity:1"
       id="path6047"
       sodipodi:sides="6"
       sodipodi:cx="407.40814"
       sodipodi:cy="1113.0243"
       sodipodi:r1="11.162703"
       sodipodi:r2="9.6671848"
       sodipodi:arg1="-1.0471976"
       sodipodi:arg2="-0.52359878"
       inkscape:flatsided="true"
       inkscape:rounded="0"
       inkscape:randomized="0"
       d="m 412.98949,1103.3571 5.58135,9.6672 -5.58135,9.6672 -11.1627,0 -5.58135,-9.6672 5.58135,-9.6672 z" />
    <path
       d="m 412.98949,1103.3571 5.58135,9.6672 -5.58135,9.6672 -11.1627,0 -5.58135,-9.6672 5.58135,-9.6672 z"
       inkscape:randomized="0"
       inkscape:rounded="0"
       inkscape:flatsided="true"
       sodipodi:arg2="-0.52359878"
       sodipodi:arg1="-1.0471976"
       sodipodi:r2="9.6671848"
       sodipodi:r1="11.162703"
       sodipodi:cy="1113.0243"
       sodipodi:cx="407.40814"
       sodipodi:sides="6"
       id="path6039"
       style="font-style:normal;font-weight:normal;font-size:medium;line-height:125%;font-family:sans-serif;letter-spacing:0px;word-spacing:0px;fill:#b3b3b3;fill-opacity:1;stroke:#000000;stroke-width:0.31629431;stroke-linecap:butt;stroke-linejoin:round;stroke-miterlimit:4;stroke-dasharray:none;stroke-dashoffset:0;stroke-opacity:1"
       sodipodi:type="star"
       transform="matrix(2.2785895,0,0,2.2707956,-418.2305,-2155.2523)" />
    <path
       inkscape:connector-curvature="0"
       style="font-style:normal;font-weight:normal;font-size:medium;line-height:125%;font-family:sans-serif;letter-spacing:0px;word-spacing:0px;fill:#000000;fill-opacity:1;stroke:none;stroke-width:1.07920682px;stroke-linecap:butt;stroke-linejoin:miter;stroke-opacity:1"
       d="m 502.55057,357.1713 c -1.15983,0 -2.1623,0.0955 -3.00667,0.28657 -0.8447,0.18011 -1.5655,0.44406 -2.16263,0.79264 -0.59669,0.33726 -1.08093,0.74767 -1.45272,1.23118 -0.37146,0.48341 -0.65885,1.02315 -0.86185,1.61907 -0.21552,0.59592 -0.3543,1.24241 -0.42186,1.93954 -0.0799,0.6971 -0.11688,1.42799 -0.11688,2.1926 v 1.16359 h 3.36205 v -1.16359 c 0,-0.8546 0.0367,-1.57419 0.11688,-2.15884 0.0691,-0.58469 0.25189,-1.05687 0.55719,-1.41675 0.30315,-0.35985 0.77175,-0.61838 1.40243,-0.77588 0.61936,-0.16845 1.48078,-0.25304 2.58449,-0.25304 1.09259,0 1.94861,0.0842 2.56765,0.25304 0.60835,0.1575 1.06453,0.41614 1.36876,0.77588 0.30304,0.35984 0.49557,0.83206 0.57446,1.41675 0.0658,0.58465 0.0982,1.30424 0.0982,2.15884 v 0 4.5536 c -0.31416,0 -0.61397,0.0678 -0.89553,0.20234 -0.28113,0.12397 -0.53464,0.29787 -0.75998,0.5229 -0.21541,0.21365 -0.38894,0.46664 -0.52363,0.75896 -0.12422,0.2811 -0.18627,0.57908 -0.18627,0.89387 v 12.68279 c 0,0.32594 0.0626,0.63537 0.18627,0.9277 0.12411,0.28109 0.29214,0.52843 0.50647,0.74208 0.21552,0.22495 0.46201,0.39912 0.74358,0.52286 0.29214,0.12359 0.60219,0.18557 0.92909,0.18557 h 16.16705 c 0.31405,0 0.61353,-0.0616 0.89553,-0.18557 0.28113,-0.12396 0.52913,-0.29787 0.74314,-0.52286 0.21541,-0.21365 0.37762,-0.46102 0.49007,-0.74208 0.12422,-0.2924 0.18627,-0.60157 0.18627,-0.9277 v -12.68279 c 0,-0.31465 -0.0626,-0.61277 -0.18627,-0.89387 -0.11321,-0.2924 -0.27757,-0.54542 -0.49007,-0.75896 -0.21552,-0.22495 -0.46158,-0.39919 -0.74314,-0.5229 -0.28124,-0.13489 -0.58029,-0.20234 -0.89553,-0.20234 h -12.71381 v -4.5536 c 0,-0.76461 -0.0367,-1.4955 -0.11688,-2.1926 -0.0799,-0.69713 -0.22274,-1.34362 -0.43934,-1.93954 -0.21541,-0.59592 -0.50647,-1.13566 -0.87826,-1.61907 -0.38312,-0.48351 -0.87286,-0.89397 -1.46956,-1.23118 -0.59712,-0.34854 -1.31803,-0.61276 -2.16273,-0.79264 -0.84469,-0.19105 -1.84123,-0.28657 -2.99016,-0.28657 z"
       id="path3353" />
    <g
       transform="matrix(3.6519383,0,0,3.6458854,-3215.4551,-1470.8979)"
       id="g6069"
       style="fill:#b3b3b3;fill-opacity:1;stroke:#000000;stroke-width:0.19717427;stroke-miterlimit:4;stroke-dasharray:none;stroke-opacity:1">
      <path
         transform="matrix(0.62393976,0,0,0.62283792,831.04373,-181.28477)"
         sodipodi:type="star"
         style="font-style:normal;font-weight:normal;font-size:medium;line-height:125%;font-family:sans-serif;letter-spacing:0px;word-spacing:0px;fill:#b3b3b3;fill-opacity:1;stroke:#000000;stroke-width:0.31629431;stroke-linecap:butt;stroke-linejoin:round;stroke-miterlimit:4;stroke-dasharray:none;stroke-dashoffset:0;stroke-opacity:1"
         id="path6071"
         sodipodi:sides="6"
         sodipodi:cx="407.40814"
         sodipodi:cy="1113.0243"
         sodipodi:r1="11.162703"
         sodipodi:r2="9.6671848"
         sodipodi:arg1="-1.0471976"
         sodipodi:arg2="-0.52359878"
         inkscape:flatsided="true"
         inkscape:rounded="0"
         inkscape:randomized="0"
         d="m 412.98949,1103.3571 5.58135,9.6672 -5.58135,9.6672 -11.1627,0 -5.58135,-9.6672 5.58135,-9.6672 z" />
      <path
         sodipodi:nodetypes="cccccccccccccccccccccccccccccccccccccccsssss"
         id="path6073"
         d="m 1083.7205,507.07014 v 2.9645 h 0.3962 v -2.9645 z m 1.0564,2.09942 v 0.86508 h 0.3962 v -0.86508 z m -1.3646,1.02653 v 2.1799 l 0.3522,0.35129 v 4.10051 h 2.421 v -4.10051 l 0.3522,-0.35129 v -2.1799 z m 3.2974,0.15364 v 1.75681 h 0.3617 v -1.75681 z m -2.7911,0.15371 h 2.1129 v 0.39532 h -2.1129 z m 0,0.70282 h 2.1129 v 0.39521 h -2.1129 z m 0,0.70269 h 2.1129 v 0.39522 h -2.1129 z m 0.7042,0.90024 c 0.2918,0 0.5283,0.23597 0.5283,0.5271 0,0.29102 -0.2365,0.52692 -0.5283,0.52692 -0.2917,0 -0.5281,-0.2359 -0.5281,-0.52692 0,-0.29113 0.2364,-0.5271 0.5281,-0.5271 z"
         style="fill:#000000;fill-opacity:1;stroke:#000000;stroke-width:0.19717427;stroke-miterlimit:4;stroke-dasharray:none;stroke-opacity:1"
         inkscape:connector-curvature="0" />
    </g>
    <path
       d="m 412.98949,1103.3571 5.58135,9.6672 -5.58135,9.6672 -11.1627,0 -5.58135,-9.6672 5.58135,-9.6672 z"
       inkscape:randomized="0"
       inkscape:rounded="0"
       inkscape:flatsided="true"
       sodipodi:arg2="-0.52359878"
       sodipodi:arg1="-1.0471976"
       sodipodi:r2="9.6671848"
       sodipodi:r1="11.162703"
       sodipodi:cy="1113.0243"
       sodipodi:cx="407.40814"
       sodipodi:sides="6"
       id="path6077"
       style="font-style:normal;font-weight:normal;font-size:medium;line-height:125%;font-family:sans-serif;letter-spacing:0px;word-spacing:0px;fill:#b3b3b3;fill-opacity:1;stroke:#000000;stroke-width:0.31629431;stroke-linecap:butt;stroke-linejoin:round;stroke-miterlimit:4;stroke-dasharray:none;stroke-dashoffset:0;stroke-opacity:1"
       sodipodi:type="star"
       transform="matrix(2.2785895,0,0,2.2707956,-179.46886,-2178.1311)" />
    <path
       d="m 412.98949,1103.3571 5.58135,9.6672 -5.58135,9.6672 -11.1627,0 -5.58135,-9.6672 5.58135,-9.6672 z"
       inkscape:randomized="0"
       inkscape:rounded="0"
       inkscape:flatsided="true"
       sodipodi:arg2="-0.52359878"
       sodipodi:arg1="-1.0471976"
       sodipodi:r2="9.6671848"
       sodipodi:r1="11.162703"
       sodipodi:cy="1113.0243"
       sodipodi:cx="407.40814"
       sodipodi:sides="6"
       id="path6095"
       style="font-style:normal;font-weight:normal;font-size:medium;line-height:125%;font-family:sans-serif;letter-spacing:0px;word-spacing:0px;fill:#b3b3b3;fill-opacity:1;stroke:#000000;stroke-width:0.31629431;stroke-linecap:butt;stroke-linejoin:round;stroke-miterlimit:4;stroke-dasharray:none;stroke-dashoffset:0;stroke-opacity:1"
       sodipodi:type="star"
       transform="matrix(2.2785895,0,0,2.2707956,-141.09648,-2107.3663)" />
    <path
       transform="matrix(2.2785895,0,0,2.2707956,-220.50592,-2155.2522)"
       sodipodi:type="star"
       style="font-style:normal;font-weight:normal;font-size:medium;line-height:125%;font-family:sans-serif;letter-spacing:0px;word-spacing:0px;fill:#b3b3b3;fill-opacity:1;stroke:#000000;stroke-width:0.31629431;stroke-linecap:butt;stroke-linejoin:round;stroke-miterlimit:4;stroke-dasharray:none;stroke-dashoffset:0;stroke-opacity:1"
       id="path6099"
       sodipodi:sides="6"
       sodipodi:cx="407.40814"
       sodipodi:cy="1113.0243"
       sodipodi:r1="11.162703"
       sodipodi:r2="9.6671848"
       sodipodi:arg1="-1.0471976"
       sodipodi:arg2="-0.52359878"
       inkscape:flatsided="true"
       inkscape:rounded="0"
       inkscape:randomized="0"
       d="m 412.98949,1103.3571 5.58135,9.6672 -5.58135,9.6672 -11.1627,0 -5.58135,-9.6672 5.58135,-9.6672 z" />
    <g
       transform="matrix(0.88974609,0,0,0.88827138,678.15123,-534.38123)"
       style="font-style:normal;font-weight:normal;font-size:48.97977448px;line-height:125%;font-family:sans-serif;letter-spacing:0px;word-spacing:0px;fill:#000000;fill-opacity:1;stroke:none;stroke-width:1px;stroke-linecap:butt;stroke-linejoin:miter;stroke-opacity:1"
       id="text3340">
      <path
         inkscape:connector-curvature="0"
         d="m 44.955218,1014.453 q 0.669646,0 1.291459,0.2631 0.621814,0.263 1.076216,0.7174 0.478318,0.4305 0.741393,1.0284 0.286991,0.574 0.286991,1.2197 v 18.0087 q 0,0.6936 -0.263075,1.2915 -0.239159,0.5979 -0.693561,1.0523 -0.454402,0.4783 -1.0523,0.7414 -0.597898,0.263 -1.267543,0.263 H 22.187276 q -0.693561,0 -1.315374,-0.263 -0.597898,-0.2631 -1.0523,-0.7414 -0.454402,-0.4544 -0.717477,-1.0523 -0.263075,-0.5979 -0.263075,-1.2915 v -18.0087 q 0,-0.6457 0.263075,-1.2197 0.28699,-0.5979 0.741393,-1.0284 0.478318,-0.4544 1.076215,-0.7174 0.597898,-0.2631 1.267543,-0.2631 v -3.8744 q 0,-2.4394 0.406571,-4.544 0.40657,-2.1046 1.626281,-3.6352 1.243627,-1.5546 3.467807,-2.41555 2.248095,-0.88489 5.907228,-0.88489 3.68305,0 5.907229,0.88489 2.248095,0.86095 3.44389,2.41555 1.219712,1.5306 1.602366,3.6352 0.40657,2.1046 0.40657,4.544 z m -17.889097,-3.8744 v 3.7548 h 13.058085 v -3.7548 q 0,-1.8176 -0.143496,-3.0612 -0.143495,-1.2676 -0.789225,-2.0329 -0.621813,-0.7653 -1.937188,-1.1001 -1.315375,-0.3348 -3.659134,-0.3348 -2.319842,0 -3.635217,0.3348 -1.291459,0.3348 -1.937189,1.1001 -0.645729,0.7653 -0.81314,2.0329 -0.143496,1.2436 -0.143496,3.0612 z"
         id="path3583"
         style="fill:#000000;fill-opacity:1" />
    </g>
    <path
       d="m 742.70906,332.91488 c -0.95165,-3.7e-4 -1.95261,0.13854 -3.00624,0.4445 a 0.60992778,0.60911946 0 0 0 -0.0367,0 0.60992778,0.60911946 0 0 0 -0.0367,0 0.60992778,0.60911946 0 0 0 -0.0367,0.0219 0.60992778,0.60911946 0 0 0 -0.0367,0.0219 0.60992778,0.60911946 0 0 0 -0.0367,0.0219 0.60992778,0.60911946 0 0 0 -0.0367,0.0219 0.60992778,0.60911946 0 0 0 -0.0367,0.0219 0.60992778,0.60911946 0 0 0 -0.0367,0.0219 0.60992778,0.60911946 0 0 0 -0.0367,0.0219 0.60992778,0.60911946 0 0 0 -0.0367,0.0219 0.60992778,0.60911946 0 0 0 -0.0367,0.0256 0.60992778,0.60911946 0 0 0 -0.0367,0.0219 0.60992778,0.60911946 0 0 0 -0.0367,0.0291 0.60992778,0.60911946 0 0 0 0,0.0219 0.60992778,0.60911946 0 0 0 -0.0367,0.0291 0.60992778,0.60911946 0 0 0 0,0.0219 0.60992778,0.60911946 0 0 0 -0.0367,0.0291 0.60992778,0.60911946 0 0 0 0,0.0255 0.60992778,0.60911946 0 0 0 0,0.0328 0.60992778,0.60911946 0 0 0 0,0.0255 0.60992778,0.60911946 0 0 0 0,0.0445 l -1.43771,7.17865 a 0.60992778,0.60911946 0 0 0 0.36153,0.68054 l 5.2661,2.21713 2.03009,10.3957 -7.48171,1.623 a 0.60992778,0.60911946 0 0 0 -0.48175,0.58688 l -0.0658,4.9032 a 0.60992778,0.60911946 0 0 0 0.7943,0.58899 l 9.4041,-3.00147 1.54845,-0.30006 c 0,0 0.0367,5.2e-4 0.0367,5.2e-4 0.63911,0 1.2413,-0.30407 1.66165,-0.79969 0.42036,-0.49522 0.63987,-1.14073 0.63911,-1.80552 v 0 c 3.3e-4,-0.42169 -0.0874,-0.83618 -0.25933,-1.20909 l -1.62259,-8.37183 8.07515,3.39951 a 0.60992778,0.60911946 0 0 0 0.0367,0.0219 0.60992778,0.60911946 0 0 0 0.0367,0 0.60992778,0.60911946 0 0 0 0.0367,0 0.60992778,0.60911946 0 0 0 0.0367,0 0.60992778,0.60911946 0 0 0 0.0367,0 0.60992778,0.60911946 0 0 0 0.0367,0 0.60992778,0.60911946 0 0 0 0.0367,0 0.60992778,0.60911946 0 0 0 0.0367,5.1e-4 0.60992778,0.60911946 0 0 0 0.0367,-6.9e-4 l 5.35524,-0.33834 a 0.60992778,0.60911946 0 0 0 0.51165,-0.34854 l 3.24367,-6.85792 3.2e-4,-4.7e-4 a 0.60992778,0.60911946 0 0 0 0,-2.5e-4 0.60992778,0.60911946 0 0 0 -0.35419,-0.8422 c -0.49957,-0.27418 -1.01413,-0.46551 -1.53787,-0.58681 l -19.76685,-7.66099 a 0.60992778,0.60911946 0 0 0 -0.0507,-0.0219 c -0.85527,-0.24646 -1.75694,-0.3853 -2.70859,-0.38566 z m -1.69155,0.87979 a 0.60992778,0.60911946 0 0 1 0.23743,0.0455 l 18.66724,7.4717 a 0.61044136,0.60963236 0 0 1 0.37028,0.69194 0.60992778,0.60911946 0 0 0 -0.0443,0.0948 l -0.055,0.13162 a 0.61044136,0.60963236 0 0 1 -0.72533,0.21291 l -18.6665,-7.47367 a 0.60992778,0.60911946 0 0 1 0.21919,-1.17611 z m 22.94004,8.23073 c 0.28114,0 0.56205,0.0328 0.83887,0.0897 l 0.94657,0.36656 -1.51963,3.2133 c 0.0583,-0.26032 0.0874,-0.51823 0.0842,-0.76013 0,-0.55976 -0.18983,-1.02271 -0.50356,-1.2543 -0.31405,-0.23188 -0.75048,-0.22313 -1.18,0.0219 -0.10577,0.059 -0.21174,0.13162 -0.31405,0.2173 0.0399,-0.0529 0.0766,-0.10938 0.10954,-0.17136 0.0917,-0.17792 0.14245,-0.38162 0.14245,-0.56296 0,-0.1823 -0.0626,-0.33615 -0.16436,-0.41487 -0.0507,-0.0394 -0.11321,-0.059 -0.17527,-0.0565 -0.0658,6.5e-4 -0.13511,0.0219 -0.20084,0.059 -0.13511,0.0762 -0.26289,0.22568 -0.35419,0.40283 -0.0917,0.17792 -0.14246,0.38151 -0.14246,0.56297 0,0.18229 0.0615,0.33615 0.16437,0.41486 0.10252,0.0788 0.24098,0.0748 0.37901,0 -0.21907,0.22859 -0.42035,0.50656 -0.58395,0.81569 -0.29582,0.55873 -0.46374,1.20522 -0.45716,1.76523 0,0.55961 0.19351,1.02449 0.50755,1.25612 0.31405,0.23188 0.74617,0.2213 1.17558,-0.0219 0.26657,-0.14911 0.53205,-0.38592 0.76473,-0.67843 l -0.54014,1.14138 -4.02847,0.25631 2.39163,-5.9239 c 0.93967,-0.49646 1.81512,-0.73815 2.66198,-0.7309 z m -19.13767,2.44574 1.02805,0.43294 1.9089,8.94799 c -0.19361,-0.059 -0.39445,-0.0897 -0.59971,-0.0897 -0.1716,0 -0.34686,0.0255 -0.51273,0.0664 l -1.82451,-9.3571 z m 2.39832,1.00965 1.09259,0.45997 1.47646,7.61913 c -0.17526,-0.0478 -0.35786,-0.0748 -0.5423,-0.0748 -0.10576,0 -0.20818,0 -0.31038,0.0256 l -1.71464,-8.03017 z m 2.02675,9.22748 c 0.24833,0 0.53032,0.1276 0.73667,0.37016 0.20807,0.24355 0.34685,0.63406 0.34685,1.01272 4.4e-4,0.37863 -0.14234,0.76936 -0.34685,1.01272 -0.0982,0.11667 -0.21185,0.20417 -0.3324,0.26578 l -0.39434,0.0762 c 0.13512,-0.33835 0.20451,-0.70548 0.20451,-1.07911 v 0 c 3.2e-4,-0.24209 -0.0367,-0.48159 -0.0842,-0.71219 a 0.60992778,0.60911946 0 0 0 0,-0.14511 l -0.1717,-0.7987 c 0.0367,0 0.0399,0 0.055,0 z m -2.08783,0.27562 c 0.24832,0 0.53064,0.12761 0.73699,0.37032 0.20818,0.24355 0.34696,0.6342 0.34696,1.01283 3.3e-4,0.37866 -0.14245,0.7696 -0.34696,1.01286 -0.20818,0.24354 -0.48899,0.37032 -0.73699,0.37032 -0.24833,0 -0.52838,-0.12724 -0.73473,-0.37032 -0.20818,-0.24318 -0.35063,-0.6342 -0.35063,-1.01286 0,-0.37863 0.14245,-0.76957 0.35063,-1.01283 0.20818,-0.24354 0.48683,-0.37032 0.73473,-0.37032 z m -2.21486,0.6792 c -0.055,0.22823 -0.0842,0.46488 -0.0842,0.70395 v 0 c -7.5e-4,0.66493 0.21908,1.31044 0.63911,1.80566 0.055,0.0638 0.10954,0.12286 0.17159,0.1801 l -6.97156,2.22524 0.0507,-3.57276 6.1967,-1.34424 z"
       id="path4873"
       inkscape:connector-curvature="0"
       style="fill:#000000;fill-opacity:1;stroke-width:1.07920682;stroke-linecap:round;stroke-linejoin:round" />
    <path
       transform="matrix(2.2785895,0,0,2.2707956,-139.49763,-2153.656)"
       sodipodi:type="star"
       style="font-style:normal;font-weight:normal;font-size:medium;line-height:125%;font-family:sans-serif;letter-spacing:0px;word-spacing:0px;fill:#b3b3b3;fill-opacity:1;stroke:#000000;stroke-width:0.31629431;stroke-linecap:butt;stroke-linejoin:round;stroke-miterlimit:4;stroke-dasharray:none;stroke-dashoffset:0;stroke-opacity:1"
       id="path6091"
       sodipodi:sides="6"
       sodipodi:cx="407.40814"
       sodipodi:cy="1113.0243"
       sodipodi:r1="11.162703"
       sodipodi:r2="9.6671848"
       sodipodi:arg1="-1.0471976"
       sodipodi:arg2="-0.52359878"
       inkscape:flatsided="true"
       inkscape:rounded="0"
       inkscape:randomized="0"
       d="m 412.98949,1103.3571 5.58135,9.6672 -5.58135,9.6672 -11.1627,0 -5.58135,-9.6672 5.58135,-9.6672 z" />
    <g
       style="fill:#000000;fill-opacity:1"
       transform="matrix(0.56624352,0,0,0.56421148,768.73714,-201.32039)"
       id="g6113"
       inkscape:label="Layer 1">
      <path
         id="path6115"
         d="m 32.579912,995.13399 c 2.124847,0 3.534937,1.0606 5.426456,2.1113 1.792663,0.996 4.046316,1.8501 7.224481,1.2011 1.508237,1.5076 3.040556,3.01551 4.674665,4.03681 1.337237,0.8358 2.839909,1.3336 4.338736,1.0984 -0.430029,3.3835 -2.484655,6.6932 -4.632572,8.4257 -5.664236,-1.8772 -11.342639,-2.8162 -17.021041,-2.8162 -5.683664,0 -11.367226,0.9408 -17.036623,2.8213 -2.150144,-1.731 -4.20821,-5.044 -4.638543,-8.4308 1.498524,0.2354 3.001499,-0.2626 4.338736,-1.0983 1.634109,-1.0213 3.166226,-2.52911 4.674665,-4.03671 3.177862,0.6489 5.431819,-0.2053 7.224482,-1.2011 1.891721,-1.0512 3.30171,-2.1115 5.426558,-2.1115 z m 0.01063,1.977 c -2.004945,0 -5.379912,2.7095 -5.379912,2.7095 0,0 2.147108,8.12861 5.379912,8.12861 3.233006,0 5.380114,-8.12861 5.380114,-8.12861 0,0 -3.375168,-2.7095 -5.380114,-2.7095 z m 0,13.89451 c 5.341462,0 10.683329,0.8733 16.037945,2.6039 0.220579,1.363 -0.152787,2.3758 -0.955979,3.3124 -0.896483,1.0454 -2.401281,1.9329 -4.184938,2.6013 -3.56772,1.3375 -8.194121,1.8108 -10.897129,1.8108 -2.702907,0 -7.329105,-0.4733 -10.896724,-1.8107 -1.783861,-0.6684 -3.288455,-1.5558 -4.184939,-2.6014 -0.803394,-0.9366 -1.176963,-1.9492 -0.956181,-3.3123 5.354616,-1.7307 10.696381,-2.604 16.037844,-2.604 z m 17.527665,5.7823 c 0.993619,0.241 2.725066,0.7866 3.036104,1.7195 0.850142,2.5495 -1.71202,6.455 -3.649679,8.9193 0.533843,-2.2265 0.821608,-4.5948 0.821608,-7.0505 0,-1.22 -0.07144,-2.4182 -0.208033,-3.5883 z m -35.054926,0 a 30.949923,30.949923 0 0 0 -0.208033,3.5882 c 0,2.4557 0.287665,4.824 0.821608,7.0505 -1.937658,-2.4643 -4.499921,-6.3698 -3.649678,-8.9193 0.310936,-0.9329 2.042484,-1.4785 3.036002,-1.7195 z m 33.393498,1.9398 c 0.03086,0.5441 0.04806,1.0934 0.04806,1.6483 0,6.0077 -1.834452,11.4294 -4.745796,15.3096 -2.911244,3.88 -6.850408,6.2038 -11.168604,6.2038 -4.317892,0 -8.257158,-2.3238 -11.1683,-6.2038 -2.911244,-3.8802 -4.745494,-9.3018 -4.745494,-15.3095 0,-0.5551 0.0172,-1.1044 0.04796,-1.6485 0.829701,0.7747 1.843152,1.4032 2.958091,1.9255 -0.432053,1.8416 0.02691,4.1322 1.224114,5.3289 2.203164,2.2022 7.144041,2.2022 9.347306,0 0.68238,-0.6823 0.975103,-1.7694 0.936451,-2.8602 0.499238,0.022 0.971359,0.033 1.400072,0.033 0.428815,0 0.901036,-0.012 1.400376,-0.033 -0.03875,1.0907 0.25397,2.1779 0.936552,2.8602 2.203265,2.2022 7.14394,2.2022 9.347103,0 1.1972,-1.1967 1.656166,-3.487 1.224114,-5.3285 1.11504,-0.5223 2.128693,-1.1511 2.958193,-1.9258 z m -15.866237,11.926 c -2.336725,3.7373 -7.010176,4.2044 -9.346901,4.2044 2.336624,1.8688 9.3468,1.8688 9.3468,0 0,1.8688 7.010479,1.8688 9.347305,0 -2.336826,0 -7.010479,-0.4671 -9.347305,-4.2044 z"
         style="fill:#000000;fill-opacity:1"
         inkscape:connector-curvature="0" />
    </g>
    <g
       inkscape:label="Layer 1"
       id="g6125"
       transform="matrix(0.56624352,0,0,0.56421148,768.73714,-156.0947)"
       style="fill:#000000;fill-opacity:1">
      <path
         inkscape:connector-curvature="0"
         style="fill:#000000;fill-opacity:1"
         d="m 32.579912,995.13399 c 2.124847,0 3.534937,1.0606 5.426456,2.1113 1.792663,0.996 4.046316,1.8501 7.224481,1.2011 1.508237,1.5076 3.040556,3.01551 4.674665,4.03681 1.337237,0.8358 2.839909,1.3336 4.338736,1.0984 -0.430029,3.3835 -2.484655,6.6932 -4.632572,8.4257 -5.664236,-1.8772 -11.342639,-2.8162 -17.021041,-2.8162 -5.683664,0 -11.367226,0.9408 -17.036623,2.8213 -2.150144,-1.731 -4.20821,-5.044 -4.638543,-8.4308 1.498524,0.2354 3.001499,-0.2626 4.338736,-1.0983 1.634109,-1.0213 3.166226,-2.52911 4.674665,-4.03671 3.177862,0.6489 5.431819,-0.2053 7.224482,-1.2011 1.891721,-1.0512 3.30171,-2.1115 5.426558,-2.1115 z m 0.01063,1.977 c -2.004945,0 -5.379912,2.7095 -5.379912,2.7095 0,0 2.147108,8.12861 5.379912,8.12861 3.233006,0 5.380114,-8.12861 5.380114,-8.12861 0,0 -3.375168,-2.7095 -5.380114,-2.7095 z m 0,13.89451 c 5.341462,0 10.683329,0.8733 16.037945,2.6039 0.220579,1.363 -0.152787,2.3758 -0.955979,3.3124 -0.896483,1.0454 -2.401281,1.9329 -4.184938,2.6013 -3.56772,1.3375 -8.194121,1.8108 -10.897129,1.8108 -2.702907,0 -7.329105,-0.4733 -10.896724,-1.8107 -1.783861,-0.6684 -3.288455,-1.5558 -4.184939,-2.6014 -0.803394,-0.9366 -1.176963,-1.9492 -0.956181,-3.3123 5.354616,-1.7307 10.696381,-2.604 16.037844,-2.604 z m 17.527665,5.7823 c 0.993619,0.241 2.725066,0.7866 3.036104,1.7195 0.850142,2.5495 -1.71202,6.455 -3.649679,8.9193 0.533843,-2.2265 0.821608,-4.5948 0.821608,-7.0505 0,-1.22 -0.07144,-2.4182 -0.208033,-3.5883 z m -35.054926,0 a 30.949923,30.949923 0 0 0 -0.208033,3.5882 c 0,2.4557 0.287665,4.824 0.821608,7.0505 -1.937658,-2.4643 -4.499921,-6.3698 -3.649678,-8.9193 0.310936,-0.9329 2.042484,-1.4785 3.036002,-1.7195 z m 33.393498,1.9398 c 0.03086,0.5441 0.04806,1.0934 0.04806,1.6483 0,6.0077 -1.834452,11.4294 -4.745796,15.3096 -2.911244,3.88 -6.850408,6.2038 -11.168604,6.2038 -4.317892,0 -8.257158,-2.3238 -11.1683,-6.2038 -2.911244,-3.8802 -4.745494,-9.3018 -4.745494,-15.3095 0,-0.5551 0.0172,-1.1044 0.04796,-1.6485 0.829701,0.7747 1.843152,1.4032 2.958091,1.9255 -0.432053,1.8416 0.02691,4.1322 1.224114,5.3289 2.203164,2.2022 7.144041,2.2022 9.347306,0 0.68238,-0.6823 0.975103,-1.7694 0.936451,-2.8602 0.499238,0.022 0.971359,0.033 1.400072,0.033 0.428815,0 0.901036,-0.012 1.400376,-0.033 -0.03875,1.0907 0.25397,2.1779 0.936552,2.8602 2.203265,2.2022 7.14394,2.2022 9.347103,0 1.1972,-1.1967 1.656166,-3.487 1.224114,-5.3285 1.11504,-0.5223 2.128693,-1.1511 2.958193,-1.9258 z m -15.866237,11.926 c -2.336725,3.7373 -7.010176,4.2044 -9.346901,4.2044 2.336624,1.8688 9.3468,1.8688 9.3468,0 0,1.8688 7.010479,1.8688 9.347305,0 -2.336826,0 -7.010479,-0.4671 -9.347305,-4.2044 z"
         id="path6127" />
    </g>
    <path
       id="path15650"
       d="m 597.6452,381.5277 c -1.84609,-0.236 -4.15645,-0.67743 -7.04053,-1.34594 -1.83012,-0.42406 -3.87219,-0.93835 -6.07107,-1.52755 -2.7686,-0.74185 -5.22283,-1.45183 -6.74052,-1.89683 a 16.81646,16.815363 15 0 0 -0.5274,4.73947 c 0.18357,6.29556 3.70891,11.46691 8.26942,12.6889 a 7.9775243,7.9770044 15 0 0 2.30346,0.27012 c 5.4651,-0.15884 9.76121,-5.88972 9.80664,-12.92811 z m -14.45899,3.40648 -0.88485,-0.92524 -0.6867,0.69433 -1.03744,-1.02882 0.71595,-0.71982 -0.91247,-0.95353 1.05654,-1.00991 0.88484,0.92528 0.68681,-0.6944 1.03744,1.02881 -0.71605,0.71991 0.91236,0.95348 z m 8.18988,0.0405 -0.88506,-0.92523 -0.6867,0.69437 -1.03744,-1.02874 0.71444,-0.72364 -0.91269,-0.9528 1.05914,-1.01007 0.88494,0.92537 0.6866,-0.69436 1.03733,1.02862 -0.71595,0.71992 0.91247,0.9537 z m 14.21887,-15.14843 1.33023,1.88559 2.20741,-0.66651 -1.38235,1.84604 1.31641,1.89339 -2.18237,-0.74404 -1.39638,1.83634 0.0345,-2.3057 -2.17773,-0.75877 2.19888,-0.68117 z m 1.62658,-6.14084 -0.21087,1.43508 1.29483,0.65306 -1.42973,0.24244 -0.21746,1.43413 -0.67429,-1.28512 -1.43125,0.23299 1.01327,-1.03561 -0.66382,-1.28998 1.2998,0.64447 z m -27.47175,-7.39888 0.97841,2.08647 2.2903,-0.26882 -1.68475,1.57729 0.96394,2.09344 -2.01908,-1.11403 -1.69684,1.5632 0.43956,-2.26291 -2.01175,-1.12885 2.28857,-0.28441 z m 23.19961,23.34284 c -0.61893,0.89039 -2.53474,1.50219 -12.05129,-0.70397 -2.03269,-0.47137 -4.10854,-1.00253 -6.02877,-1.51705 -3.26212,-0.87407 -9.40831,-2.62184 -9.40831,-2.62184 l 0.33369,-1.2453 c 0,0 6.16033,1.75165 9.40906,2.62214 1.87901,0.50348 3.90695,1.02336 5.89495,1.48444 3.04455,0.70817 5.51993,1.17123 7.35728,1.37827 2.75921,0.30977 3.33281,-0.0437 3.42195,-0.12079 -0.0108,-0.0498 -0.0464,-0.20836 -0.26926,-0.50846 -0.62238,-0.83408 -1.887,-1.8403 -3.65981,-2.93593 a 16.31041,16.309347 15 0 0 -0.84642,-1.99685 c 0.14515,0.0808 0.29041,0.16159 0.42575,0.24167 2.54228,1.46198 4.2606,2.77998 5.11328,3.91924 0.39866,0.53901 0.77832,1.32314 0.3079,2.00448 z m -23.69356,-6.47458 c 0.2697,-0.5392 1.24098,-1.87811 1.63176,-2.22549 4.3055,1.47562 12.06931,1.92259 14.2533,1.72038 0.9074,1.34847 1.79839,3.47159 2.07251,4.90887 -4.59666,-0.68768 -12.54804,-2.80741 -17.95994,-4.40354 z m 3.01347,-5.2061 c -0.77196,-0.25747 -2.58211,-0.86461 -3.3613,-0.73379 0.69005,1.11996 5.57767,2.53382 9.8782,3.05714 4.60972,0.56124 9.00943,0.62397 11.86922,-0.37579 1.19123,-0.41654 1.99233,-1.27712 2.01521,-1.74813 0.11763,-2.40092 -12.72979,-6.70258 -12.72979,-6.70258 0,0 13.80025,4.00548 13.15726,6.81624 -0.6895,3.01522 -7.80741,3.5638 -14.31881,2.86431 -6.18461,-0.66442 -11.89329,-2.12492 -10.94218,-4.49436 0.55244,-1.37684 4.30528,-0.0869 5.90963,0.54491 -0.38917,0.13844 -1.15033,0.57264 -1.47992,0.77209 z m 6.30516,0.0936 a 8.5641554,8.5635973 15 0 1 3.2183,1.2461 c -1.05589,-0.0226 -4.73113,-0.49099 -6.8371,-0.99775 1.92056,-0.564 3.31414,-0.29149 3.61632,-0.24816 z"
       style="fill:#000000;fill-opacity:1;stroke-width:1.07920682"
       inkscape:connector-curvature="0" />
    <g
       id="g2106"
       transform="matrix(0.65749073,0,0,0.65749073,157.92055,-28.046688)">
      <circle
         r="79.369705"
         cy="676.07666"
         cx="372.59131"
         id="path2102"
         style="opacity:1;fill:#000000;fill-opacity:1;fill-rule:nonzero;stroke:#000000;stroke-width:0.52120733;stroke-linecap:round;stroke-linejoin:round;stroke-miterlimit:4;stroke-dasharray:none;stroke-dashoffset:0;stroke-opacity:1" />
      <path
         sodipodi:nodetypes="cccccccccccccccccccccccccccccccccccccccsssss"
         id="path5287"
         d="m 352.43812,611.55535 v 39.20468 h 5.2481 v -39.20468 z m 13.9945,27.76436 v 11.44032 h 5.2481 v -11.44032 z m -18.0762,13.57554 v 28.82866 l 4.6647,4.64577 v 54.22828 h 32.0711 v -54.22828 l 4.665,-4.64577 v -28.82866 z m 43.6789,2.03188 v 23.23338 h 4.7909 v -23.23338 z m -36.973,2.03279 h 27.989 v 5.22805 h -27.989 z m 0,9.29455 h 27.989 v 5.22657 h -27.989 z m 0,9.29306 h 27.989 v 5.22657 h -27.989 z m 9.3295,11.90544 c 3.8644,0 6.9972,3.12057 6.9972,6.97075 0,3.84869 -3.1328,6.96835 -6.9972,6.96835 -3.8645,0 -6.9973,-3.11966 -6.9973,-6.96835 0,-3.85018 3.1328,-6.97075 6.9973,-6.97075 z"
         style="fill:#ffffff;fill-opacity:1"
         inkscape:connector-curvature="0" />
    </g>
  </g>
</svg>
