<?xml version="1.0" encoding="UTF-8" standalone="no"?>
<!-- Created with Inkscape (http://www.inkscape.org/) -->

<svg
   xmlns:dc="http://purl.org/dc/elements/1.1/"
   xmlns:cc="http://creativecommons.org/ns#"
   xmlns:rdf="http://www.w3.org/1999/02/22-rdf-syntax-ns#"
   xmlns:svg="http://www.w3.org/2000/svg"
   xmlns="http://www.w3.org/2000/svg"
   xmlns:sodipodi="http://sodipodi.sourceforge.net/DTD/sodipodi-0.dtd"
   xmlns:inkscape="http://www.inkscape.org/namespaces/inkscape"
   width="825"
   height="1125"
   viewBox="0 0 825 1125"
   version="1.1"
   id="svg24"
   inkscape:version="0.92.0 r15299"
   sodipodi:docname="special_events_watchtower.svg">
  <defs
     id="defs18" />
  <sodipodi:namedview
     id="base"
     pagecolor="#ffffff"
     bordercolor="#666666"
     borderopacity="1.0"
     inkscape:pageopacity="0.0"
     inkscape:pageshadow="2"
     inkscape:zoom="1.4"
     inkscape:cx="451.68248"
     inkscape:cy="739.00545"
     inkscape:document-units="px"
     inkscape:current-layer="text4560"
     showgrid="false"
     units="px"
     showguides="true"
     inkscape:guide-bbox="true"
     inkscape:window-width="1920"
     inkscape:window-height="1017"
     inkscape:window-x="-8"
     inkscape:window-y="-8"
     inkscape:window-maximized="1"
     inkscape:snap-global="false">
    <sodipodi:guide
       position="87.690473,19.84375"
       orientation="0,1"
       id="guide32"
       inkscape:locked="false"
       inkscape:label=""
       inkscape:color="rgb(0,0,255)" />
    <sodipodi:guide
       position="75,545.71429"
       orientation="1,0"
       id="guide38"
       inkscape:locked="false"
       inkscape:label=""
       inkscape:color="rgb(0,0,255)" />
  </sodipodi:namedview>
  <metadata
     id="metadata21">
    <rdf:RDF>
      <cc:Work
         rdf:about="">
        <dc:format>image/svg+xml</dc:format>
        <dc:type
           rdf:resource="http://purl.org/dc/dcmitype/StillImage" />
        <dc:title></dc:title>
      </cc:Work>
    </rdf:RDF>
  </metadata>
  <g
     inkscape:label="Layer 1"
     inkscape:groupmode="layer"
     id="layer1"
     transform="translate(0,221.28127)">
    <g
       class=""
       id="g4535"
       transform="matrix(0.16510497,-0.03544699,0.03544699,0.16510497,613.76225,-11.501768)"
       style="fill:#f40000;fill-opacity:1;stroke-width:5.92181206">
      <path
         style="fill:#f40000;fill-opacity:1;stroke-width:5.92181206"
         inkscape:connector-curvature="0"
         d="m 425.344,22.22 c -9.027,0.085 -18.7,5.826 -24.344,19.405 -11.143,26.803 -31.93,59.156 -58.563,93.47 10.57,8.694 19.85,18.92 27.5,30.31 35.1,-26.57 68.882,-46.81 98.125,-56.75 44.6,-15.16 12.02,-69.72 -35.343,-35.343 26.91,-27.842 11.107,-51.27 -7.376,-51.093 z M 84.124,22.25 C 65.624,22.628 46.52,46.212 67.781,72.125 31.523,38.635 -0.802,85.48 37.095,102.813 c 28.085,12.844 62.54,35.66 99.062,64.343 8.125,-12.5 18.207,-23.61 29.78,-32.937 -26.782,-35.743 -48.44,-69.835 -61.78,-98.47 -4.515,-9.69 -12.22,-13.66 -20.03,-13.5 z m 169.5,99.688 c -67.104,0 -121.31,54.21 -121.31,121.312 0,44.676 24.04,83.613 59.905,104.656 v 56.406 h 18.718 v -47.468 c 5.203,1.95 10.576,3.552 16.093,4.78 v 42.688 h 18.69 v -40.03 c 2.614,0.167 5.247,0.25 7.905,0.25 2.637,0 5.25,-0.086 7.844,-0.25 v 40.03 h 18.686 v -42.687 c 5.52,-1.226 10.89,-2.834 16.094,-4.78 v 47.467 h 18.688 V 347.97 c 35.92,-21.03 60,-60.003 60,-104.72 0,-67.105 -54.208,-121.313 -121.313,-121.313 z m -66.874,88.218 c 19.88,0 36,16.12 36,36 0,19.88 -16.12,36 -36,36 -19.88,0 -36,-16.12 -36,-36 0,-19.88 16.12,-36 36,-36 z m 133.563,0 c 19.878,0 36,16.12 36,36 0,19.88 -16.122,36 -36,36 -19.88,0 -36,-16.12 -36,-36 0,-19.88 16.12,-36 36,-36 z m -66.72,52.344 29.938,48.188 H 223.657 L 253.595,262.5 Z m -107.28,70.563 c -40.263,32.472 -78.546,58.41 -109.22,72.437 -37.896,17.334 -5.57,64.146 30.688,30.656 -30.237,36.854 21.167,69.05 36.376,36.406 15.072,-32.352 40.727,-71.7 72.438,-112.5 -11.352,-7.506 -21.564,-16.603 -30.28,-27 z m 213.156,1.718 c -8.155,9.415 -17.542,17.72 -27.908,24.69 31.846,39.39 56.82,76.862 69.438,107.217 17.203,41.383 71.774,9.722 31.72,-31.718 47.363,34.376 79.94,-20.185 35.342,-35.345 -32.146,-10.926 -69.758,-34.3 -108.593,-64.844 z"
         id="path4533" />
    </g>
    <g
       style="fill:#f40000;fill-opacity:1;stroke-width:3.2077558"
       transform="matrix(0.30128948,0.08005774,-0.08005774,0.30128948,-1.2372475,-67.963531)"
       id="g4537"
       class="">
      <path
         id="path4535"
         d="m 676.18894,41.118869 c -4.88979,0.04604 -10.1295,3.155856 -13.18677,10.511394 -6.036,14.518779 -17.296,32.043908 -31.72269,50.631277 5.72561,4.70941 10.75244,10.24868 14.89633,16.41847 19.01314,-14.39256 37.31234,-25.356266 53.15282,-30.740613 24.15915,-8.211942 6.51106,-37.766266 -19.14476,-19.144767 14.57674,-15.081589 6.01649,-27.772181 -3.99547,-27.676303 z m -184.8337,0.01625 c -10.02116,0.204757 -20.36951,12.979852 -8.85275,27.016531 -19.64041,-18.141025 -37.15037,7.234201 -16.62214,16.623224 15.21322,6.9574 33.87697,19.316486 53.66038,34.853626 4.40119,-6.77106 9.86246,-12.78918 16.13138,-17.84147 -14.50741,-19.361443 -26.23922,-37.828562 -33.46529,-53.339707 -2.44571,-5.248926 -6.61939,-7.399415 -10.84995,-7.312745 z m 91.81558,53.999478 c -36.34922,0 -65.71178,29.364733 -65.71178,65.712873 0,24.20031 13.0221,45.29189 32.44963,56.69056 v 30.55428 h 10.13925 v -25.7127 c 2.81839,1.05629 5.72886,1.92407 8.71734,2.58926 v 23.12344 h 10.12409 v -21.68364 c 1.41596,0.0905 2.84222,0.13542 4.28202,0.13542 1.42842,0 2.84384,-0.0466 4.24897,-0.13542 v 21.68364 h 10.12192 v -23.1229 c 2.9901,-0.66411 5.89895,-1.53514 8.71788,-2.58925 v 25.71215 h 10.12301 V 217.5727 c 19.45731,-11.39163 32.50109,-32.50271 32.50109,-56.72523 0,-36.34976 -29.36366,-65.713415 -65.71342,-65.713415 z m -36.22463,47.786353 c 10.7687,0 19.50066,8.73196 19.50066,19.50065 0,10.7687 -8.73196,19.50066 -19.50066,19.50066 -10.76869,0 -19.50065,-8.73196 -19.50065,-19.50066 0,-10.76869 8.73196,-19.50065 19.50065,-19.50065 z m 72.34905,0 c 10.76761,0 19.50066,8.73196 19.50066,19.50065 0,10.7687 -8.73305,19.50066 -19.50066,19.50066 -10.76869,0 -19.50065,-8.73196 -19.50065,-19.50066 0,-10.76869 8.73196,-19.50065 19.50065,-19.50065 z m -36.14121,28.35395 16.21696,26.10271 h -32.43284 l 16.21696,-26.10271 z m -58.11195,38.22291 c -21.80985,17.58959 -42.54717,31.63981 -59.16281,39.23802 -20.52769,9.38957 -3.01719,34.74692 16.62322,16.60589 -16.37892,19.96325 11.46584,37.40334 19.70433,19.72058 8.16427,-17.52459 22.06119,-38.8388 39.23856,-60.93954 -6.1492,-4.06589 -11.68089,-8.9936 -16.40221,-14.6255 z m 115.46337,0.93061 c -4.41744,5.09996 -9.50223,9.59866 -15.11734,13.3742 17.2505,21.33696 30.77854,41.63498 37.61352,58.07782 9.3186,22.41655 38.87888,5.26626 17.18224,-17.18116 25.65582,18.62096 43.30228,-10.93391 19.14422,-19.14585 -17.413,-5.91845 -37.78685,-18.57979 -58.82318,-35.12501 z"
         inkscape:connector-curvature="0"
         style="fill:#f40000;fill-opacity:1;stroke-width:3.2077558" />
    </g>
    <g
       aria-label="Special Event!
Do all Special Events after 
the regular Event.
"
       style="font-style:italic;font-variant:normal;font-weight:normal;font-stretch:normal;font-size:32px;line-height:30.54940224px;font-family:'Archivo Narrow';-inkscape-font-specification:'Archivo Narrow Italic';text-align:center;letter-spacing:0px;word-spacing:0px;writing-mode:lr-tb;text-anchor:middle;fill:#000000;fill-opacity:1;stroke:none;stroke-width:1px;stroke-linecap:butt;stroke-linejoin:miter;stroke-opacity:1"
       id="text4560">
      <path
         d="m 342.72677,-16.113772 c -4.288,0 -6.816,2.24 -6.816,6.2720001 0,6.464 9.504,5.152 9.504,9.98399995 0,3.10400005 -2.816,3.87200005 -4.544,3.87200005 -2.624,0 -4.288,-1.152 -4.288,-3.77600005 0,-0.448 0.064,-0.96 0.16,-1.50399995 h -2.912 c -0.096,0.51199995 -0.096,0.99199995 -0.096,1.47199995 0,4.09600005 2.72,6.40000005 6.912,6.40000005 6.176,0 7.712,-3.936 7.712,-6.88000005 0,-6.81599995 -9.536,-5.31199995 -9.536,-9.88800005 0,-3.04 2.624,-3.36 3.744,-3.36 1.792,0 4.032,0.576 4.032,4.2240001 h 2.912 c 0,-3.8720001 -1.728,-6.8160001 -6.784,-6.8160001 z"
         style="font-size:32px;stroke-width:1px"
         id="path4600" />
      <path
         d="m 359.45877,-10.993772 c -1.536,0 -2.944,0.832 -4.064,2.6560001 v -2.2720001 h -2.08 l -3.168,22.656 h 2.624 l 1.088,-7.6799999 c 0.736,1.6 1.952,2.24 3.36,2.24 3.136,0 6.496,-3.648 6.496,-11.36 0,-4.32 -1.792,-6.2400001 -4.256,-6.2400001 z m -0.8,2.3360001 c 1.568,0 2.368,1.216 2.368,3.648 0,2.752 -0.768,9.28 -4.192,9.28 -1.568,0 -2.336,-1.216 -2.336,-3.61600005 0,-2.55999995 0.832,-9.31199995 4.16,-9.31199995 z"
         style="font-size:32px;stroke-width:1px"
         id="path4602" />
      <path
         d="m 372.99727,-10.993772 c -5.824,0 -7.136,6.6880001 -7.136,11.48800005 0,4.19200005 1.984,6.11200005 5.44,6.11200005 3.584,0 5.696,-2.816 6.208,-6.08000005 h -2.656 c -0.288,2.01600005 -1.664,3.74400005 -3.552,3.74400005 -1.824,0 -2.72,-1.312 -2.72,-4.00000005 0,-0.416 0.032,-1.024 0.096,-1.69599995 h 9.248 c 0.192,-1.216 0.256,-2.432 0.256,-3.52 0,-4.128 -1.824,-6.0480001 -5.184,-6.0480001 z m 0,2.3360001 c 1.632,0 2.464,1.28 2.464,3.744 0,0.288 0,0.736 -0.032,1.152 h -6.432 c 0.512,-2.432 1.664,-4.896 4,-4.896 z"
         style="font-size:32px;stroke-width:1px"
         id="path4604" />
      <path
         d="m 386.98377,-10.993772 c -5.472,0 -6.688,6.5280001 -6.688,11.48800005 0,4.19200005 1.984,6.11200005 5.152,6.11200005 3.424,0 5.408,-3.104 5.824,-6.52800005 h -2.624 c -0.256,2.20800005 -1.472,4.19200005 -3.264,4.19200005 -1.536,0 -2.368,-1.472 -2.368,-4.00000005 0,-1.79199995 0.448,-8.92799995 3.968,-8.92799995 1.408,0 2.08,1.28 2.08,3.744 v 0.544 h 2.72 v -0.576 c 0,-4.128 -1.664,-6.0480001 -4.8,-6.0480001 z"
         style="font-size:32px;stroke-width:1px"
         id="path4606" />
      <path
         d="m 397.90077,-10.609772 h -2.624 l -2.336,16.8320001 h 2.592 z m 0.864,-6.304 h -2.624 l -0.416,3.136 h 2.624 z"
         style="font-size:32px;stroke-width:1px"
         id="path4608" />
      <path
         d="m 405.79327,-10.993772 c -3.136,0 -6.496,3.6480001 -6.496,11.36000005 0,4.32000005 1.792,6.24000005 4.256,6.24000005 1.504,0 2.656,-0.832 3.872,-2.656 0.032,1.888 0.96,2.656 2.304,2.656 0.832,0 1.472,-0.288 1.792,-0.512 l 0.256,-1.824 h -1.024 c -0.416,0 -0.768,-0.256 -0.768,-0.896 0,-0.384 1.952,-13.9840001 1.952,-13.9840001 h -2.08 l -0.576,2.3360001 c -0.64,-2.0800001 -1.952,-2.7200001 -3.488,-2.7200001 z m 0.384,2.3360001 c 1.472,0 2.208,1.216 2.208,3.616 0,2.56 -0.992,9.312 -4.032,9.312 -1.568,0 -2.368,-1.216 -2.368,-3.64800005 0,-2.75199995 0.768,-9.27999995 4.192,-9.27999995 z"
         style="font-size:32px;stroke-width:1px"
         id="path4610" />
      <path
         d="m 419.13977,-16.913772 h -2.624 l -3.2,23.1360001 h 2.592 z"
         style="font-size:32px;stroke-width:1px"
         id="path4612" />
      <path
         d="m 440.74477,6.2222281 0.384,-2.56 h -10.912 l 1.024,-7.392 h 9.312 l 0.352,-2.56 h -9.312 l 0.96,-6.8800001 h 10.72 l 0.384,-2.56 h -13.536 l -3.104,21.9520001 z"
         style="font-size:32px;stroke-width:1px"
         id="path4614" />
      <path
         d="m 457.73277,-10.609772 h -2.816 l -5.376,13.0240001 h -0.128 l -1.728,-13.0240001 h -2.784 l 2.496,16.8320001 h 2.848 z"
         style="font-size:32px;stroke-width:1px"
         id="path4616" />
      <path
         d="m 464.80977,-10.993772 c -5.824,0 -7.136,6.6880001 -7.136,11.48800005 0,4.19200005 1.984,6.11200005 5.44,6.11200005 3.584,0 5.696,-2.816 6.208,-6.08000005 h -2.656 c -0.288,2.01600005 -1.664,3.74400005 -3.552,3.74400005 -1.824,0 -2.72,-1.312 -2.72,-4.00000005 0,-0.416 0.032,-1.024 0.096,-1.69599995 h 9.248 c 0.192,-1.216 0.256,-2.432 0.256,-3.52 0,-4.128 -1.824,-6.0480001 -5.184,-6.0480001 z m 0,2.3360001 c 1.632,0 2.464,1.28 2.464,3.744 0,0.288 0,0.736 -0.032,1.152 h -6.432 c 0.512,-2.432 1.664,-4.896 4,-4.896 z"
         style="font-size:32px;stroke-width:1px"
         id="path4618" />
      <path
         d="m 480.71627,-10.993772 c -2.688,0 -4,1.9200001 -4.48,2.8800001 v -2.4960001 h -2.048 l -2.368,16.8320001 h 2.624 l 1.312,-9.408 c 0.448,-3.232 1.856,-5.472 4,-5.472 1.248,0 1.92,0.608 1.92,2.048 0,1.024 -1.728,12.832 -1.728,12.832 h 2.624 c 0,0 1.792,-12.416 1.792,-13.44 0,-1.92 -0.864,-3.7760001 -3.648,-3.7760001 z"
         style="font-size:32px;stroke-width:1px"
         id="path4620" />
      <path
         d="m 492.17477,-15.281772 h -2.752 l -0.672,4.672 h -1.44 l -0.32,2.3360001 h 1.44 c 0,0 -1.664,11.264 -1.664,12.096 0,1.44 0.64,2.72 2.592,2.72 0.64,0 1.44,-0.192 1.952,-0.448 l 0.256,-1.824 h -0.928 c -0.8,0 -1.184,-0.416 -1.184,-1.184 0,-0.384 1.6,-11.36 1.6,-11.36 h 2.272 l 0.32,-2.3360001 h -2.272 z"
         style="font-size:32px;stroke-width:1px"
         id="path4622" />
      <path
         d="m 497.08727,-15.729772 c -0.448,5.472 -1.024,11.0080001 -1.536,16.48000005 h 1.984 c 1.12,-5.79199995 2.752,-14.65600005 3.168,-16.48000005 z m 0.8,18.4960001 h -3.2 l -0.48,3.456 h 3.2 z"
         style="font-size:32px;stroke-width:1px"
         id="path4624" />
      <path
         d="m 271.19002,36.77163 c 7.008,0 9.536,-8.032 9.536,-13.728 0,-5.472 -2.688,-8.224 -7.328,-8.224 h -6.496 l -3.104,21.952 z m 1.888,-19.392 c 2.976,0 4.736,1.856 4.736,5.696 0,4.48 -1.44,11.136 -6.944,11.136 h -3.872 l 2.336,-16.832 z"
         style="font-size:32px;stroke-width:1px"
         id="path4626" />
      <path
         d="m 289.83952,19.55563 c -5.824,0 -7.136,7.008 -7.136,11.616 0,4.096 1.856,5.984 5.312,5.984 5.824,0 7.136,-6.944 7.136,-11.552 0,-4.128 -1.856,-6.048 -5.312,-6.048 z m 0,2.336 c 1.728,0 2.592,1.28 2.592,3.744 0,2.272 -0.512,9.184 -4.416,9.184 -1.824,0 -2.592,-1.312 -2.592,-4 0,-2.208 0.544,-8.928 4.416,-8.928 z"
         style="font-size:32px;stroke-width:1px"
         id="path4628" />
      <path
         d="m 311.07452,19.55563 c -3.136,0 -6.496,3.648 -6.496,11.36 0,4.32 1.792,6.24 4.256,6.24 1.504,0 2.656,-0.832 3.872,-2.656 0.032,1.888 0.96,2.656 2.304,2.656 0.832,0 1.472,-0.288 1.792,-0.512 l 0.256,-1.824 h -1.024 c -0.416,0 -0.768,-0.256 -0.768,-0.896 0,-0.384 1.952,-13.984 1.952,-13.984 h -2.08 l -0.576,2.336 c -0.64,-2.08 -1.952,-2.72 -3.488,-2.72 z m 0.384,2.336 c 1.472,0 2.208,1.216 2.208,3.616 0,2.56 -0.992,9.312 -4.032,9.312 -1.568,0 -2.368,-1.216 -2.368,-3.648 0,-2.752 0.768,-9.28 4.192,-9.28 z"
         style="font-size:32px;stroke-width:1px"
         id="path4630" />
      <path
         d="m 324.42102,13.63563 h -2.624 l -3.2,23.136 h 2.592 z"
         style="font-size:32px;stroke-width:1px"
         id="path4632" />
      <path
         d="m 330.23352,13.63563 h -2.624 l -3.2,23.136 h 2.592 z"
         style="font-size:32px;stroke-width:1px"
         id="path4634" />
      <path
         d="m 347.07052,14.43563 c -4.288,0 -6.816,2.24 -6.816,6.272 0,6.464 9.504,5.152 9.504,9.984 0,3.104 -2.816,3.872 -4.544,3.872 -2.624,0 -4.288,-1.152 -4.288,-3.776 0,-0.448 0.064,-0.96 0.16,-1.504 h -2.912 c -0.096,0.512 -0.096,0.992 -0.096,1.472 0,4.096 2.72,6.4 6.912,6.4 6.176,0 7.712,-3.936 7.712,-6.88 0,-6.816 -9.536,-5.312 -9.536,-9.888 0,-3.04 2.624,-3.36 3.744,-3.36 1.792,0 4.032,0.576 4.032,4.224 h 2.912 c 0,-3.872 -1.728,-6.816 -6.784,-6.816 z"
         style="font-size:32px;stroke-width:1px"
         id="path4636" />
      <path
         d="m 363.80252,19.55563 c -1.536,0 -2.944,0.832 -4.064,2.656 v -2.272 h -2.08 l -3.168,22.656 h 2.624 l 1.088,-7.68 c 0.736,1.6 1.952,2.24 3.36,2.24 3.136,0 6.496,-3.648 6.496,-11.36 0,-4.32 -1.792,-6.24 -4.256,-6.24 z m -0.8,2.336 c 1.568,0 2.368,1.216 2.368,3.648 0,2.752 -0.768,9.28 -4.192,9.28 -1.568,0 -2.336,-1.216 -2.336,-3.616 0,-2.56 0.832,-9.312 4.16,-9.312 z"
         style="font-size:32px;stroke-width:1px"
         id="path4638" />
      <path
         d="m 377.34102,19.55563 c -5.824,0 -7.136,6.688 -7.136,11.488 0,4.192 1.984,6.112 5.44,6.112 3.584,0 5.696,-2.816 6.208,-6.08 h -2.656 c -0.288,2.016 -1.664,3.744 -3.552,3.744 -1.824,0 -2.72,-1.312 -2.72,-4 0,-0.416 0.032,-1.024 0.096,-1.696 h 9.248 c 0.192,-1.216 0.256,-2.432 0.256,-3.52 0,-4.128 -1.824,-6.048 -5.184,-6.048 z m 0,2.336 c 1.632,0 2.464,1.28 2.464,3.744 0,0.288 0,0.736 -0.032,1.152 h -6.432 c 0.512,-2.432 1.664,-4.896 4,-4.896 z"
         style="font-size:32px;stroke-width:1px"
         id="path4640" />
      <path
         d="m 391.32752,19.55563 c -5.472,0 -6.688,6.528 -6.688,11.488 0,4.192 1.984,6.112 5.152,6.112 3.424,0 5.408,-3.104 5.824,-6.528 h -2.624 c -0.256,2.208 -1.472,4.192 -3.264,4.192 -1.536,0 -2.368,-1.472 -2.368,-4 0,-1.792 0.448,-8.928 3.968,-8.928 1.408,0 2.08,1.28 2.08,3.744 v 0.544 h 2.72 v -0.576 c 0,-4.128 -1.664,-6.048 -4.8,-6.048 z"
         style="font-size:32px;stroke-width:1px"
         id="path4642" />
      <path
         d="m 402.24452,19.93963 h -2.624 l -2.336,16.832 h 2.592 z m 0.864,-6.304 h -2.624 l -0.416,3.136 h 2.624 z"
         style="font-size:32px;stroke-width:1px"
         id="path4644" />
      <path
         d="m 410.13702,19.55563 c -3.136,0 -6.496,3.648 -6.496,11.36 0,4.32 1.792,6.24 4.256,6.24 1.504,0 2.656,-0.832 3.872,-2.656 0.032,1.888 0.96,2.656 2.304,2.656 0.832,0 1.472,-0.288 1.792,-0.512 l 0.256,-1.824 h -1.024 c -0.416,0 -0.768,-0.256 -0.768,-0.896 0,-0.384 1.952,-13.984 1.952,-13.984 h -2.08 l -0.576,2.336 c -0.64,-2.08 -1.952,-2.72 -3.488,-2.72 z m 0.384,2.336 c 1.472,0 2.208,1.216 2.208,3.616 0,2.56 -0.992,9.312 -4.032,9.312 -1.568,0 -2.368,-1.216 -2.368,-3.648 0,-2.752 0.768,-9.28 4.192,-9.28 z"
         style="font-size:32px;stroke-width:1px"
         id="path4646" />
      <path
         d="m 423.48352,13.63563 h -2.624 l -3.2,23.136 h 2.592 z"
         style="font-size:32px;stroke-width:1px"
         id="path4648" />
      <path
         d="m 445.08852,36.77163 0.384,-2.56 h -10.912 l 1.024,-7.392 h 9.312 l 0.352,-2.56 h -9.312 l 0.96,-6.88 h 10.72 l 0.384,-2.56 h -13.536 l -3.104,21.952 z"
         style="font-size:32px;stroke-width:1px"
         id="path4650" />
      <path
         d="m 462.07652,19.93963 h -2.816 l -5.376,13.024 h -0.128 l -1.728,-13.024 h -2.784 l 2.496,16.832 h 2.848 z"
         style="font-size:32px;stroke-width:1px"
         id="path4652" />
      <path
         d="m 469.15352,19.55563 c -5.824,0 -7.136,6.688 -7.136,11.488 0,4.192 1.984,6.112 5.44,6.112 3.584,0 5.696,-2.816 6.208,-6.08 h -2.656 c -0.288,2.016 -1.664,3.744 -3.552,3.744 -1.824,0 -2.72,-1.312 -2.72,-4 0,-0.416 0.032,-1.024 0.096,-1.696 h 9.248 c 0.192,-1.216 0.256,-2.432 0.256,-3.52 0,-4.128 -1.824,-6.048 -5.184,-6.048 z m 0,2.336 c 1.632,0 2.464,1.28 2.464,3.744 0,0.288 0,0.736 -0.032,1.152 h -6.432 c 0.512,-2.432 1.664,-4.896 4,-4.896 z"
         style="font-size:32px;stroke-width:1px"
         id="path4654" />
      <path
         d="m 485.06002,19.55563 c -2.688,0 -4,1.92 -4.48,2.88 v -2.496 h -2.048 l -2.368,16.832 h 2.624 l 1.312,-9.408 c 0.448,-3.232 1.856,-5.472 4,-5.472 1.248,0 1.92,0.608 1.92,2.048 0,1.024 -1.728,12.832 -1.728,12.832 h 2.624 c 0,0 1.792,-12.416 1.792,-13.44 0,-1.92 -0.864,-3.776 -3.648,-3.776 z"
         style="font-size:32px;stroke-width:1px"
         id="path4656" />
      <path
         d="m 496.51852,15.26763 h -2.752 l -0.672,4.672 h -1.44 l -0.32,2.336 h 1.44 c 0,0 -1.664,11.264 -1.664,12.096 0,1.44 0.64,2.72 2.592,2.72 0.64,0 1.44,-0.192 1.952,-0.448 l 0.256,-1.824 h -0.928 c -0.8,0 -1.184,-0.416 -1.184,-1.184 0,-0.384 1.6,-11.36 1.6,-11.36 h 2.272 l 0.32,-2.336 h -2.272 z"
         style="font-size:32px;stroke-width:1px"
         id="path4658" />
      <path
         d="m 504.75902,19.55563 c -3.424,0 -5.184,2.08 -5.184,4.736 0,5.024 6.4,4.384 6.4,8.16 0,1.312 -0.96,2.4 -2.432,2.4 -1.536,0 -2.848,-0.896 -2.848,-2.88 0,-0.32 0.032,-0.672 0.096,-1.024 h -2.72 c -0.064,0.352 -0.064,0.704 -0.064,1.024 0,3.168 2.368,5.184 5.28,5.184 3.296,0 5.408,-1.888 5.408,-5.12 0,-5.44 -6.4,-4.288 -6.4,-8.128 0,-1.344 1.248,-2.048 2.176,-2.048 1.184,0 2.368,0.672 2.368,2.976 h 2.72 c 0,-2.72 -1.376,-5.28 -4.8,-5.28 z"
         style="font-size:32px;stroke-width:1px"
         id="path4660" />
      <path
         d="m 525.32452,19.55563 c -3.136,0 -6.496,3.648 -6.496,11.36 0,4.32 1.792,6.24 4.256,6.24 1.504,0 2.656,-0.832 3.872,-2.656 0.032,1.888 0.96,2.656 2.304,2.656 0.832,0 1.472,-0.288 1.792,-0.512 l 0.256,-1.824 h -1.024 c -0.416,0 -0.768,-0.256 -0.768,-0.896 0,-0.384 1.952,-13.984 1.952,-13.984 h -2.08 l -0.576,2.336 c -0.64,-2.08 -1.952,-2.72 -3.488,-2.72 z m 0.384,2.336 c 1.472,0 2.208,1.216 2.208,3.616 0,2.56 -0.992,9.312 -4.032,9.312 -1.568,0 -2.368,-1.216 -2.368,-3.648 0,-2.752 0.768,-9.28 4.192,-9.28 z"
         style="font-size:32px;stroke-width:1px"
         id="path4662" />
      <path
         d="m 539.59902,13.37963 c -2.56,0 -3.616,1.952 -3.872,3.872 l -0.384,2.688 h -1.472 l -0.32,2.336 h 1.472 l -2.176,16.576 c -0.128,0.992 -0.704,1.536 -1.696,1.536 h -1.408 l -0.256,1.824 c 0.512,0.192 1.376,0.384 2.144,0.384 2.528,0 3.584,-1.952 3.84,-3.872 l 2.176,-16.448 h 2.912 l 0.32,-2.336 h -2.912 l 0.384,-2.816 c 0.128,-0.992 0.736,-1.536 1.728,-1.536 h 1.408 l 0.256,-1.824 c -0.512,-0.192 -1.376,-0.384 -2.144,-0.384 z"
         style="font-size:32px;stroke-width:1px"
         id="path4664" />
      <path
         d="m 546.14352,15.26763 h -2.752 l -0.672,4.672 h -1.44 l -0.32,2.336 h 1.44 c 0,0 -1.664,11.264 -1.664,12.096 0,1.44 0.64,2.72 2.592,2.72 0.64,0 1.44,-0.192 1.952,-0.448 l 0.256,-1.824 h -0.928 c -0.8,0 -1.184,-0.416 -1.184,-1.184 0,-0.384 1.6,-11.36 1.6,-11.36 h 2.272 l 0.32,-2.336 h -2.272 z"
         style="font-size:32px;stroke-width:1px"
         id="path4666" />
      <path
         d="m 555.21602,19.55563 c -5.824,0 -7.136,6.688 -7.136,11.488 0,4.192 1.984,6.112 5.44,6.112 3.584,0 5.696,-2.816 6.208,-6.08 h -2.656 c -0.288,2.016 -1.664,3.744 -3.552,3.744 -1.824,0 -2.72,-1.312 -2.72,-4 0,-0.416 0.032,-1.024 0.096,-1.696 h 9.248 c 0.192,-1.216 0.256,-2.432 0.256,-3.52 0,-4.128 -1.824,-6.048 -5.184,-6.048 z m 0,2.336 c 1.632,0 2.464,1.28 2.464,3.744 0,0.288 0,0.736 -0.032,1.152 h -6.432 c 0.512,-2.432 1.664,-4.896 4,-4.896 z"
         style="font-size:32px;stroke-width:1px"
         id="path4668" />
      <path
         d="m 569.81052,19.55563 c -1.92,0 -2.752,1.792 -3.36,3.072 v -2.688 h -2.048 l -2.368,16.832 h 2.624 l 1.376,-9.728 c 0.416,-2.976 2.08,-4.512 3.744,-4.512 h 0.864 l 0.384,-2.72 c 0,0 -0.512,-0.256 -1.216,-0.256 z"
         style="font-size:32px;stroke-width:1px"
         id="path4670" />
      <path
         d="m 319.48727,45.817033 h -2.752 l -0.672,4.672 h -1.44 l -0.32,2.336 h 1.44 c 0,0 -1.664,11.264 -1.664,12.096 0,1.44 0.64,2.72 2.592,2.72 0.64,0 1.44,-0.192 1.952,-0.448 l 0.256,-1.824 h -0.928 c -0.8,0 -1.184,-0.416 -1.184,-1.184 0,-0.384 1.6,-11.36 1.6,-11.36 h 2.272 l 0.32,-2.336 h -2.272 z"
         style="font-size:32px;stroke-width:1px"
         id="path4672" />
      <path
         d="m 326.86377,44.185033 h -2.624 l -3.232,23.136 h 2.592 l 1.312,-9.408 c 0.448,-3.232 1.856,-5.472 4,-5.472 1.248,0 1.92,0.608 1.92,2.048 0,1.024 -1.728,12.832 -1.728,12.832 h 2.624 c 0,0 1.792,-12.416 1.792,-13.44 0,-1.92 -0.864,-3.776 -3.648,-3.776 -2.24,0 -3.52,1.344 -4.16,2.336 z"
         style="font-size:32px;stroke-width:1px"
         id="path4674" />
      <path
         d="m 343.12227,50.105033 c -5.824,0 -7.136,6.688 -7.136,11.488 0,4.192 1.984,6.112 5.44,6.112 3.584,0 5.696,-2.816 6.208,-6.08 h -2.656 c -0.288,2.016 -1.664,3.744 -3.552,3.744 -1.824,0 -2.72,-1.312 -2.72,-4 0,-0.416 0.032,-1.024 0.096,-1.696 h 9.248 c 0.192,-1.216 0.256,-2.432 0.256,-3.52 0,-4.128 -1.824,-6.048 -5.184,-6.048 z m 0,2.336 c 1.632,0 2.464,1.28 2.464,3.744 0,0.288 0,0.736 -0.032,1.152 h -6.432 c 0.512,-2.432 1.664,-4.896 4,-4.896 z"
         style="font-size:32px;stroke-width:1px"
         id="path4676" />
      <path
         d="m 365.02927,50.105033 c -1.92,0 -2.752,1.792 -3.36,3.072 v -2.688 h -2.048 l -2.368,16.832 h 2.624 l 1.376,-9.728 c 0.416,-2.976 2.08,-4.512 3.744,-4.512 h 0.864 l 0.384,-2.72 c 0,0 -0.512,-0.256 -1.216,-0.256 z"
         style="font-size:32px;stroke-width:1px"
         id="path4678" />
      <path
         d="m 373.74727,50.105033 c -5.824,0 -7.136,6.688 -7.136,11.488 0,4.192 1.984,6.112 5.44,6.112 3.584,0 5.696,-2.816 6.208,-6.08 h -2.656 c -0.288,2.016 -1.664,3.744 -3.552,3.744 -1.824,0 -2.72,-1.312 -2.72,-4 0,-0.416 0.032,-1.024 0.096,-1.696 h 9.248 c 0.192,-1.216 0.256,-2.432 0.256,-3.52 0,-4.128 -1.824,-6.048 -5.184,-6.048 z m 0,2.336 c 1.632,0 2.464,1.28 2.464,3.744 0,0.288 0,0.736 -0.032,1.152 h -6.432 c 0.512,-2.432 1.664,-4.896 4,-4.896 z"
         style="font-size:32px;stroke-width:1px"
         id="path4680" />
      <path
         d="m 388.05377,52.441033 c 1.568,0 2.336,1.216 2.368,3.616 0,2.368 -0.928,8.672 -4.064,8.672 -1.568,0 -2.432,-1.024 -2.432,-3.232 0,-2.656 0.64,-9.056 4.128,-9.056 z m 1.024,14.08 c -0.48,2.944 -1.568,4.32 -3.648,4.32 -1.696,0 -2.528,-0.928 -2.528,-2.752 h -2.624 c 0,2.688 1.6,5.056 5.056,5.056 3.616,0 5.728,-2.144 6.464,-7.392 l 2.144,-15.264 h -2.08 l -0.544,2.336 c -0.672,-2.08 -2.016,-2.72 -3.616,-2.72 -3.136,0 -6.464,3.456 -6.464,11.136 0,2.848 1.12,5.824 4.288,5.824 1.568,0 2.752,-0.832 3.904,-2.656 z"
         style="font-size:32px;stroke-width:1px"
         id="path4682" />
      <path
         d="m 408.50427,50.489033 h -2.624 l -1.312,9.408 c -0.448,3.232 -1.856,5.472 -4,5.472 -1.248,0 -1.92,-0.608 -1.92,-2.048 0,-1.024 1.728,-12.832 1.728,-12.832 h -2.624 c 0,0 -1.792,12.416 -1.792,13.44 0,1.92 0.864,3.776 3.648,3.776 2.688,0 4,-1.888 4.48,-2.848 v 2.464 h 2.048 z"
         style="font-size:32px;stroke-width:1px"
         id="path4684" />
      <path
         d="m 415.51477,44.185033 h -2.624 l -3.2,23.136 h 2.592 z"
         style="font-size:32px;stroke-width:1px"
         id="path4686" />
      <path
         d="m 422.54327,50.105033 c -3.136,0 -6.496,3.648 -6.496,11.36 0,4.32 1.792,6.24 4.256,6.24 1.504,0 2.656,-0.832 3.872,-2.656 0.032,1.888 0.96,2.656 2.304,2.656 0.832,0 1.472,-0.288 1.792,-0.512 l 0.256,-1.824 h -1.024 c -0.416,0 -0.768,-0.256 -0.768,-0.896 0,-0.384 1.952,-13.984 1.952,-13.984 h -2.08 l -0.576,2.336 c -0.64,-2.08 -1.952,-2.72 -3.488,-2.72 z m 0.384,2.336 c 1.472,0 2.208,1.216 2.208,3.616 0,2.56 -0.992,9.312 -4.032,9.312 -1.568,0 -2.368,-1.216 -2.368,-3.648 0,-2.752 0.768,-9.28 4.192,-9.28 z"
         style="font-size:32px;stroke-width:1px"
         id="path4688" />
      <path
         d="m 437.84177,50.105033 c -1.92,0 -2.752,1.792 -3.36,3.072 v -2.688 h -2.048 l -2.368,16.832 h 2.624 l 1.376,-9.728 c 0.416,-2.976 2.08,-4.512 3.744,-4.512 h 0.864 l 0.384,-2.72 c 0,0 -0.512,-0.256 -1.216,-0.256 z"
         style="font-size:32px;stroke-width:1px"
         id="path4690" />
      <path
         d="m 460.43227,67.321033 0.384,-2.56 h -10.912 l 1.024,-7.392 h 9.312 l 0.352,-2.56 h -9.312 l 0.96,-6.88 h 10.72 l 0.384,-2.56 h -13.536 l -3.104,21.952 z"
         style="font-size:32px;stroke-width:1px"
         id="path4692" />
      <path
         d="m 477.42027,50.489033 h -2.816 l -5.376,13.024 h -0.128 l -1.728,-13.024 h -2.784 l 2.496,16.832 h 2.848 z"
         style="font-size:32px;stroke-width:1px"
         id="path4694" />
      <path
         d="m 484.49727,50.105033 c -5.824,0 -7.136,6.688 -7.136,11.488 0,4.192 1.984,6.112 5.44,6.112 3.584,0 5.696,-2.816 6.208,-6.08 h -2.656 c -0.288,2.016 -1.664,3.744 -3.552,3.744 -1.824,0 -2.72,-1.312 -2.72,-4 0,-0.416 0.032,-1.024 0.096,-1.696 h 9.248 c 0.192,-1.216 0.256,-2.432 0.256,-3.52 0,-4.128 -1.824,-6.048 -5.184,-6.048 z m 0,2.336 c 1.632,0 2.464,1.28 2.464,3.744 0,0.288 0,0.736 -0.032,1.152 h -6.432 c 0.512,-2.432 1.664,-4.896 4,-4.896 z"
         style="font-size:32px;stroke-width:1px"
         id="path4696" />
      <path
         d="m 500.40377,50.105033 c -2.688,0 -4,1.92 -4.48,2.88 v -2.496 h -2.048 l -2.368,16.832 h 2.624 l 1.312,-9.408 c 0.448,-3.232 1.856,-5.472 4,-5.472 1.248,0 1.92,0.608 1.92,2.048 0,1.024 -1.728,12.832 -1.728,12.832 h 2.624 c 0,0 1.792,-12.416 1.792,-13.44 0,-1.92 -0.864,-3.776 -3.648,-3.776 z"
         style="font-size:32px;stroke-width:1px"
         id="path4698" />
      <path
         d="m 511.86227,45.817033 h -2.752 l -0.672,4.672 h -1.44 l -0.32,2.336 h 1.44 c 0,0 -1.664,11.264 -1.664,12.096 0,1.44 0.64,2.72 2.592,2.72 0.64,0 1.44,-0.192 1.952,-0.448 l 0.256,-1.824 h -0.928 c -0.8,0 -1.184,-0.416 -1.184,-1.184 0,-0.384 1.6,-11.36 1.6,-11.36 h 2.272 l 0.32,-2.336 h -2.272 z"
         style="font-size:32px;stroke-width:1px"
         id="path4700" />
      <path
         id="path21"
         d="m 202.09726,119.05332 -48.9298,24.46471 h 11.72255 v 36.18775 h -16.30999 v 25.48427 h 15.77237 l -13.55004,121.93947 -0.33265,0.24162 0.26636,0.36703 -2.12802,19.1473 -0.50744,4.55783 9.11802,1.01432 0.50746,-4.55977 1.35832,-12.23001 h 86.02463 l 1.35843,12.22914 0.50743,4.55929 9.1182,-1.0143 -0.50743,-4.55889 -2.12744,-19.14731 0.26635,-0.36703 -0.33261,-0.2416 -13.54999,-121.93861 h 15.7727 v -25.48379 h -16.30985 v -36.1871 h 11.72269 z m -24.46492,32.61996 h 16.30992 v 24.4647 h -16.30992 z m 32.61978,0 h 16.31002 v 24.4647 h -16.31002 z m -52.49763,37.20661 h 7.13552 v 7.13559 h -7.13552 z m 16.30991,0 h 7.13554 v 7.13559 h -7.13554 z m 16.30987,0 h 7.13574 v 7.13559 h -7.13574 z m 16.31,0 h 7.13562 v 7.13559 h -7.13562 z m 16.30993,0 h 7.13571 v 7.13559 h -7.13571 z m 16.31002,0 h 7.13561 v 7.13559 h -7.13561 z m -57.76163,16.31016 h 41.10919 l -20.55452,18.27124 z m -8.48638,4.73111 21.05425,18.7142 h -23.13215 l 2.07959,-18.7142 z m 58.08145,0 2.07933,18.7142 h -23.13215 z m -61.17874,27.88875 h 15.99539 l -17.74821,15.77642 1.75329,-15.77642 z m 29.80489,0 h 4.66668 l 26.3762,23.44538 h -57.4191 z m 18.47599,0 h 15.99571 l 1.75322,15.77642 -17.7498,-15.77642 z m -42.81049,32.61993 h 53.33566 l -26.66771,19.39517 z m -9.58207,4.37629 26.22079,19.0695 h -28.3386 l 2.11885,-19.0695 z m 72.49916,0 2.11903,19.0695 H 212.1268 l 26.22021,-19.0695 z m -75.63588,28.24359 h 21.20318 l -23.06842,16.77594 z m 36.80197,0 h 5.17038 l 32.23762,23.44579 h -69.64611 l 32.23766,-23.44579 z m 20.76981,0 h 21.20276 l 1.86448,16.77594 -23.06776,-16.77594 z"
         inkscape:connector-curvature="0"
         style="fill:#000000;fill-opacity:0.58823529;stroke-width:0.58689177" />
      <path
         d="m 412.98949,1103.3571 5.58135,9.6672 -5.58135,9.6672 -11.1627,0 -5.58135,-9.6672 5.58135,-9.6672 z"
         inkscape:randomized="0"
         inkscape:rounded="0"
         inkscape:flatsided="true"
         sodipodi:arg2="-0.52359878"
         sodipodi:arg1="-1.0471976"
         sodipodi:r2="9.6671848"
         sodipodi:r1="11.162703"
         sodipodi:cy="1113.0243"
         sodipodi:cx="407.40814"
         sodipodi:sides="6"
         id="path6077"
         style="font-style:normal;font-weight:normal;font-size:medium;line-height:125%;font-family:sans-serif;letter-spacing:0px;word-spacing:0px;fill:#b3b3b3;fill-opacity:1;stroke:#000000;stroke-width:0.31629431;stroke-linecap:butt;stroke-linejoin:round;stroke-miterlimit:4;stroke-dasharray:none;stroke-dashoffset:0;stroke-opacity:1"
         sodipodi:type="star"
         transform="matrix(0,-4.3049629,4.2902378,0,-4354.0327,2056.6847)" />
      <path
         transform="matrix(0,-4.3049629,4.2902378,0,-4268.6763,2056.6847)"
         sodipodi:type="star"
         style="font-style:normal;font-weight:normal;font-size:medium;line-height:125%;font-family:sans-serif;letter-spacing:0px;word-spacing:0px;fill:#b3b3b3;fill-opacity:1;stroke:#000000;stroke-width:0.31629431;stroke-linecap:butt;stroke-linejoin:round;stroke-miterlimit:4;stroke-dasharray:none;stroke-dashoffset:0;stroke-opacity:1"
         id="path55"
         sodipodi:sides="6"
         sodipodi:cx="407.40814"
         sodipodi:cy="1113.0243"
         sodipodi:r1="11.162703"
         sodipodi:r2="9.6671848"
         sodipodi:arg1="-1.0471976"
         sodipodi:arg2="-0.52359878"
         inkscape:flatsided="true"
         inkscape:rounded="0"
         inkscape:randomized="0"
         d="m 412.98949,1103.3571 5.58135,9.6672 -5.58135,9.6672 -11.1627,0 -5.58135,-9.6672 5.58135,-9.6672 z" />
      <path
         d="m 412.98949,1103.3571 5.58135,9.6672 -5.58135,9.6672 -11.1627,0 -5.58135,-9.6672 5.58135,-9.6672 z"
         inkscape:randomized="0"
         inkscape:rounded="0"
         inkscape:flatsided="true"
         sodipodi:arg2="-0.52359878"
         sodipodi:arg1="-1.0471976"
         sodipodi:r2="9.6671848"
         sodipodi:r1="11.162703"
         sodipodi:cy="1113.0243"
         sodipodi:cx="407.40814"
         sodipodi:sides="6"
         id="path57"
         style="font-style:normal;font-weight:normal;font-size:medium;line-height:125%;font-family:sans-serif;letter-spacing:0px;word-spacing:0px;fill:#b3b3b3;fill-opacity:1;stroke:#000000;stroke-width:0.31629431;stroke-linecap:butt;stroke-linejoin:round;stroke-miterlimit:4;stroke-dasharray:none;stroke-dashoffset:0;stroke-opacity:1"
         sodipodi:type="star"
         transform="matrix(0,-4.3049629,4.2902378,0,-4183.3199,2056.6847)" />
      <path
         id="path53"
         d="m 591.57952,268.42392 -13.6283,6.81408 h 3.26507 v 10.0793 h -4.54277 v 7.09806 h 4.39304 l -3.77407,33.96351 -0.0926,0.0673 0.0743,0.1023 -0.59271,5.33306 -0.14132,1.26949 2.5396,0.28251 0.14133,-1.27002 0.37834,-3.40641 h 23.96017 l 0.37836,3.40616 0.14132,1.26989 2.53968,-0.28252 -0.14133,-1.26979 -0.59253,-5.33303 0.0743,-0.10231 -0.0926,-0.0673 -3.77404,-33.96325 h 4.39312 v -7.09792 h -4.54273 V 275.2379 h 3.26508 z m -6.81416,9.08555 h 4.54278 v 6.81409 h -4.54278 z m 9.08553,0 h 4.54279 v 6.81409 h -4.54279 z m -14.62203,10.36306 h 1.98743 v 1.98746 h -1.98743 z m 4.54275,0 h 1.98745 v 1.98746 h -1.98745 z m 4.54274,0 h 1.9875 v 1.98746 h -1.9875 z m 4.54279,0 h 1.98748 v 1.98746 h -1.98748 z m 4.54276,0 h 1.98751 v 1.98746 h -1.98751 z m 4.54279,0 h 1.98747 v 1.98746 h -1.98747 z m -16.08821,4.54283 h 11.45006 l -5.72502,5.08905 z m -2.36368,1.31774 5.86419,5.21244 h -6.44294 l 0.57921,-5.21244 z m 16.17728,0 0.57917,5.21244 h -6.44297 z m -17.03996,7.76781 h 4.45515 l -4.94335,4.39413 0.48832,-4.39413 z m 8.30148,0 h 1.29981 l 7.34649,6.53017 h -15.99279 z m 5.14608,0 h 4.45526 l 0.48829,4.39413 -4.94379,-4.39413 z m -11.92393,9.08554 h 14.85548 l -7.42771,5.40207 z m -2.66884,1.2189 7.3032,5.31138 h -7.89306 l 0.59015,-5.31138 z m 20.19301,0 0.59021,5.31138 h -7.89309 l 7.30303,-5.31138 z m -21.06669,7.86662 h 5.90568 l -6.4252,4.67257 z m 10.25035,0 h 1.44011 l 8.97907,6.5303 h -19.39837 l 8.97911,-6.5303 z m 5.785,0 h 5.90556 l 0.51932,4.67257 -6.42504,-4.67257 z"
         inkscape:connector-curvature="0"
         style="fill:#000000;stroke-width:0.14196162" />
      <path
         style="fill:#000000;fill-opacity:1;stroke:none;stroke-width:0.53084648;stroke-opacity:1"
         id="path5102"
         d="m 369.86125,242.54086 c 9.636,-0.37654 20.38839,8.21589 21.34125,16.72986 l 7.52299,-3.11806 -7.9114,25.61542 -16.10855,-15.66491 8.17171,-3.38471 c 0.71308,-8.4395 -16.26566,-10.0002 -17.97742,-9.90234 -1.82212,0.10412 -11.8222,-0.0733 -22.95234,9.84502 8.67981,-17.3647 15.8778,-19.65006 27.91376,-20.12028 z"
         inkscape:connector-curvature="0"
         sodipodi:nodetypes="scccccscs" />
      <g
         id="g4163"
         transform="matrix(-0.73682838,0,0,0.73682838,597.27758,-402.5193)">
        <circle
           r="45"
           cy="928.07642"
           cx="400.71429"
           id="path4151"
           style="fill:#000000;stroke:none;stroke-width:3;stroke-miterlimit:4;stroke-dasharray:none;stroke-opacity:1" />
        <path
           inkscape:connector-curvature="0"
           style="fill:#ffffff;fill-opacity:1"
           d="m 400.71429,896.83247 c 2.83886,0 4.7227,1.41745 7.24972,2.82167 2.39517,1.33142 5.40596,2.47258 9.65199,1.60564 2.01501,2.01471 4.06221,4.02984 6.24535,5.39477 1.78649,1.11717 3.79413,1.78267 5.79661,1.46791 -0.57456,4.52203 -3.31964,8.94522 -6.18917,11.26062 -7.56742,-2.50856 -15.1538,-3.76346 -22.74019,-3.76346 -7.59333,0 -15.18652,1.25738 -22.7609,3.7705 -2.87253,-2.31334 -5.62208,-6.74108 -6.19708,-11.26766 2.00206,0.31435 4.00999,-0.35158 5.79662,-1.4675 2.18314,-1.36534 4.23006,-3.38047 6.24535,-5.39518 4.2456,0.86694 7.25695,-0.27299 9.65185,-1.60524 2.52742,-1.40504 4.41113,-2.82207 7.24985,-2.82207 z m 0.0149,2.64257 c -2.67865,0 -7.18755,3.62078 -7.18755,3.62078 0,0 2.86859,10.86397 7.18755,10.86397 4.31925,0 7.18795,-10.86397 7.18795,-10.86397 0,0 -4.50931,-3.62078 -7.18795,-3.62078 z m 0,18.56919 c 7.13628,0 14.27297,1.16721 21.42669,3.48055 0.29478,1.82156 -0.20407,3.17531 -1.27708,4.42689 -1.19771,1.3972 -3.20823,2.58344 -5.59112,3.47685 -4.76648,1.78723 -10.94734,2.42006 -14.55863,2.42006 -3.61115,0 -9.79173,-0.63283 -14.55794,-2.42006 -2.3833,-0.89341 -4.39341,-2.07924 -5.59113,-3.47685 -1.07338,-1.25158 -1.57242,-2.60493 -1.27749,-4.42689 7.15374,-2.31334 14.29043,-3.48055 21.42656,-3.48055 z m 23.41689,7.72835 c 1.32767,0.32263 3.64075,1.05141 4.05621,2.29805 1.13596,3.40734 -2.28717,8.62757 -4.87596,11.92075 0.71326,-2.97594 1.09777,-6.14133 1.09777,-9.42295 0,-1.63046 -0.0954,-3.23197 -0.27806,-4.79585 z m -46.83325,0 a 41.349104,41.364178 0 0 0 -0.27798,4.79544 c 0,3.28203 0.3844,6.44742 1.09777,9.42336 -2.58879,-3.29318 -6.01192,-8.51341 -4.87596,-11.92075 0.41534,-1.24664 2.72868,-1.97625 4.05594,-2.29805 z m 44.61372,2.59253 c 0.0409,0.72715 0.0641,1.46131 0.0641,2.20291 0,8.02908 -2.45081,15.27558 -6.34039,20.46106 -3.88946,5.18588 -9.15212,8.29129 -14.92119,8.29129 -5.7688,0 -11.03159,-3.10541 -14.92091,-8.29129 -3.88931,-5.18548 -6.33998,-12.43157 -6.33998,-20.46106 0,-0.7416 0.0235,-1.47576 0.0641,-2.20332 1.10856,1.03528 2.46239,1.87575 3.95205,2.57392 -0.57717,2.46142 0.0359,5.52258 1.63542,7.12159 2.94344,2.94328 9.54439,2.94328 12.48797,0 0.91165,-0.91201 1.30271,-2.36462 1.25116,-3.82261 0.66691,0 1.29766,0.0579 1.87048,0.0579 0.57297,0 1.20387,0 1.8709,-0.0579 -0.0517,1.45799 0.33937,2.9106 1.25117,3.82261 2.94358,2.94328 9.5444,2.94328 12.48785,0 1.59941,-1.59901 2.21258,-4.66017 1.6354,-7.12117 1.48965,-0.69818 2.8439,-1.53824 3.95205,-2.57393 z m -21.19736,15.93861 c -3.12193,4.99479 -9.3655,5.61935 -12.48742,5.61935 3.12178,2.49741 12.48728,2.49741 12.48728,0 0,2.49741 9.36605,2.49741 12.48798,0 -3.12193,0 -9.36591,-0.62456 -12.48798,-5.61935 z"
           id="path15149" />
      </g>
      <path
         transform="matrix(0,-4.3049629,4.2902378,0,-4311.1054,1980.8236)"
         sodipodi:type="star"
         style="font-style:normal;font-weight:normal;font-size:medium;line-height:125%;font-family:sans-serif;letter-spacing:0px;word-spacing:0px;fill:#b3b3b3;fill-opacity:1;stroke:#000000;stroke-width:0.31629431;stroke-linecap:butt;stroke-linejoin:round;stroke-miterlimit:4;stroke-dasharray:none;stroke-dashoffset:0;stroke-opacity:1"
         id="path117"
         sodipodi:sides="6"
         sodipodi:cx="407.40814"
         sodipodi:cy="1113.0243"
         sodipodi:r1="11.162703"
         sodipodi:r2="9.6671848"
         sodipodi:arg1="-1.0471976"
         sodipodi:arg2="-0.52359878"
         inkscape:flatsided="true"
         inkscape:rounded="0"
         inkscape:randomized="0"
         d="m 412.98949,1103.3571 5.58135,9.6672 -5.58135,9.6672 -11.1627,0 -5.58135,-9.6672 5.58135,-9.6672 z" />
      <path
         transform="matrix(0,-4.3049629,4.2902378,0,-4140.3925,1980.8236)"
         sodipodi:type="star"
         style="font-style:normal;font-weight:normal;font-size:medium;line-height:125%;font-family:sans-serif;letter-spacing:0px;word-spacing:0px;fill:#b3b3b3;fill-opacity:1;stroke:#000000;stroke-width:0.31629431;stroke-linecap:butt;stroke-linejoin:round;stroke-miterlimit:4;stroke-dasharray:none;stroke-dashoffset:0;stroke-opacity:1"
         id="path121"
         sodipodi:sides="6"
         sodipodi:cx="407.40814"
         sodipodi:cy="1113.0243"
         sodipodi:r1="11.162703"
         sodipodi:r2="9.6671848"
         sodipodi:arg1="-1.0471976"
         sodipodi:arg2="-0.52359878"
         inkscape:flatsided="true"
         inkscape:rounded="0"
         inkscape:randomized="0"
         d="m 412.98949,1103.3571 5.58135,9.6672 -5.58135,9.6672 -11.1627,0 -5.58135,-9.6672 5.58135,-9.6672 z" />
      <path
         style="fill:#4d4d4d;fill-opacity:1;stroke:none;stroke-width:1.88931036;stroke-miterlimit:4;stroke-dasharray:none;stroke-opacity:1"
         inkscape:connector-curvature="0"
         d="m 463.44685,196.3754 c -3.46836,0 -5.96284,1.83282 -7.4035,4.13477 -1.28846,2.05833 -1.82451,4.44626 -1.92908,6.5377 -3.93189,1.94156 -8.28757,3.89891 -11.79448,5.90022 -1.83953,1.05003 -3.44344,2.10584 -4.65064,3.24056 -1.20726,1.13472 -2.09799,2.41248 -2.09799,3.91971 0,0.64152 0.31374,1.16412 0.6666,1.54767 0.35447,0.38485 0.7777,0.68219 1.26051,0.95984 0.96531,0.55624 2.18246,1.01967 3.52132,1.42086 1.98892,0.59613 4.21641,1.03914 6.15319,1.22836 -1.92639,3.31533 -4.49009,6.35982 -6.73737,9.27714 -2.59706,3.37182 -4.86431,6.60513 -4.86431,10.19746 0,0.51317 -0.006,0.91378 0.0391,1.31634 0.047,0.40289 0.16096,0.90465 0.56647,1.30264 0.40529,0.3982 0.90144,0.50534 1.30557,0.54917 0.40373,0.0471 0.81125,0.0471 1.3334,0.0471 h 14.32868 c 1.04008,0 1.80173,0.0627 2.58522,-0.43956 0.78356,-0.50304 1.06931,-1.18992 1.62758,-2.21643 h 0.006 l 0.006,-0.0473 c 0,0 1.24902,-2.53599 2.73932,-5.05309 0.74483,-1.25779 1.55391,-2.51105 2.25758,-3.399 0.35216,-0.44356 0.68144,-0.79601 0.91847,-0.99477 0.0702,-0.0627 0.1058,-0.0702 0.1519,-0.0993 0.0471,0.0471 0.0799,0.0471 0.15191,0.0993 0.23683,0.19881 0.56644,0.55074 0.91844,0.99477 0.70335,0.88795 1.51245,2.14121 2.25752,3.399 1.49014,2.5171 2.73927,5.05309 2.73927,5.05309 l 0.006,0.0473 h 0.006 c 0.55861,1.02651 0.84141,1.70929 1.61983,2.21365 0.7785,0.50379 1.5382,0.44356 2.56367,0.44356 h 14.39177 c 0.514,0 0.9146,0 1.31589,-0.0471 0.40135,-0.0471 0.89895,-0.15398 1.29999,-0.55626 0.40062,-0.40284 0.51168,-0.89742 0.55626,-1.29812 0.0471,-0.39813 0.0394,-0.80097 0.0394,-1.31435 0,-3.59196 -2.26725,-6.8253 -4.86433,-10.19721 -2.24718,-2.91723 -4.81079,-5.96179 -6.73737,-9.27697 1.9368,-0.1903 4.16424,-0.63293 6.15328,-1.22846 1.33878,-0.40288 2.55591,-0.86478 3.52121,-1.42077 0.48277,-0.27606 0.90674,-0.57578 1.26026,-0.95951 0.3537,-0.38489 0.66736,-0.9065 0.66736,-1.54804 0,-1.50733 -0.89079,-2.7851 -2.098,-3.91978 -1.20731,-1.13467 -2.81109,-2.19054 -4.65063,-3.24055 -3.50691,-2.00128 -7.86257,-3.95867 -11.79447,-5.90022 -0.10464,-2.09139 -0.64079,-4.47926 -1.92906,-6.53766 -1.44071,-2.30196 -3.93509,-4.13485 -7.4036,-4.13485 z"
         id="path123" />
      <path
         transform="matrix(0,-4.3049629,4.2902378,0,-4268.5732,1905.6372)"
         sodipodi:type="star"
         style="font-style:normal;font-weight:normal;font-size:medium;line-height:125%;font-family:sans-serif;letter-spacing:0px;word-spacing:0px;fill:#b3b3b3;fill-opacity:1;stroke:#000000;stroke-width:0.31629431;stroke-linecap:butt;stroke-linejoin:round;stroke-miterlimit:4;stroke-dasharray:none;stroke-dashoffset:0;stroke-opacity:1"
         id="path127"
         sodipodi:sides="6"
         sodipodi:cx="407.40814"
         sodipodi:cy="1113.0243"
         sodipodi:r1="11.162703"
         sodipodi:r2="9.6671848"
         sodipodi:arg1="-1.0471976"
         sodipodi:arg2="-0.52359878"
         inkscape:flatsided="true"
         inkscape:rounded="0"
         inkscape:randomized="0"
         d="m 412.98949,1103.3571 5.58135,9.6672 -5.58135,9.6672 -11.1627,0 -5.58135,-9.6672 5.58135,-9.6672 z" />
      <path
         d="m 412.98949,1103.3571 5.58135,9.6672 -5.58135,9.6672 -11.1627,0 -5.58135,-9.6672 5.58135,-9.6672 z"
         inkscape:randomized="0"
         inkscape:rounded="0"
         inkscape:flatsided="true"
         sodipodi:arg2="-0.52359878"
         sodipodi:arg1="-1.0471976"
         sodipodi:r2="9.6671848"
         sodipodi:r1="11.162703"
         sodipodi:cy="1113.0243"
         sodipodi:cx="407.40814"
         sodipodi:sides="6"
         id="path129"
         style="font-style:normal;font-weight:normal;font-size:medium;line-height:125%;font-family:sans-serif;letter-spacing:0px;word-spacing:0px;fill:#b3b3b3;fill-opacity:1;stroke:#000000;stroke-width:0.31629431;stroke-linecap:butt;stroke-linejoin:round;stroke-miterlimit:4;stroke-dasharray:none;stroke-dashoffset:0;stroke-opacity:1"
         sodipodi:type="star"
         transform="matrix(0,-4.3049629,4.2902378,0,-4183.2167,1905.6372)" />
      <g
         transform="matrix(-1.0599736,0,0,-1.0599736,965.26927,716.2562)"
         id="g955">
        <path
           style="opacity:1;fill:#ff2a2a;fill-opacity:1;fill-rule:nonzero;stroke:none;stroke-width:0.4890618;stroke-linecap:round;stroke-linejoin:round;stroke-miterlimit:4;stroke-dasharray:none;stroke-dashoffset:0;stroke-opacity:1"
           d="m 540.79102,312.60156 -7.5918,7.58594 h 4.42578 v 54.16797 h 6.02148 V 320.1875 h 4.72266 z"
           transform="matrix(0,1.7824127,-1.7824127,0,1047.156,-571.3072)"
           id="rect951"
           inkscape:connector-curvature="0"
           sodipodi:nodetypes="cccccccc" />
      </g>
      <path
         id="path959"
         d="m 422.08779,271.02894 c -3.46836,0 -5.96284,1.83281 -7.4035,4.13477 -1.28846,2.05834 -1.82452,4.44626 -1.92909,6.53771 -3.93187,1.94154 -8.28755,3.89891 -11.79446,5.90021 -1.83953,1.05002 -3.44344,2.10583 -4.65064,3.24055 -1.20727,1.13472 -2.09799,2.41249 -2.09799,3.91972 0,0.64151 0.31373,1.16412 0.6666,1.54766 0.35447,0.38488 0.77769,0.68219 1.2605,0.95985 0.9653,0.55623 2.18246,1.01966 3.52132,1.42085 1.98892,0.59615 4.21641,1.03915 6.1532,1.22836 -1.9264,3.31534 -4.4901,6.35981 -6.73738,9.27713 -2.59707,3.37184 -4.86432,6.60514 -4.86432,10.19749 0,0.51315 -0.006,0.91375 0.0391,1.31633 0.0471,0.40288 0.16097,0.90463 0.56647,1.30265 0.4053,0.39819 0.90145,0.50532 1.30557,0.54916 0.40374,0.047 0.81125,0.047 1.3334,0.047 h 14.32868 c 1.04008,0 1.80174,0.0627 2.58522,-0.43956 0.78357,-0.50306 1.06931,-1.18993 1.62758,-2.21643 h 0.006 l 0.006,-0.0473 c 0,0 1.24902,-2.53601 2.73932,-5.05309 0.74483,-1.25779 1.55391,-2.51107 2.25759,-3.39901 0.35215,-0.44354 0.68144,-0.796 0.91847,-0.99477 0.0702,-0.0627 0.1058,-0.0704 0.1519,-0.0993 0.0471,0.047 0.0799,0.047 0.1519,0.0993 0.23685,0.19881 0.56645,0.55075 0.91845,0.99477 0.70334,0.88794 1.51244,2.14122 2.2575,3.39901 1.49015,2.51708 2.7393,5.05309 2.7393,5.05309 l 0.006,0.0473 h 0.006 c 0.5586,1.0265 0.8414,1.70926 1.61985,2.21364 0.77848,0.50379 1.53816,0.44356 2.56365,0.44356 h 14.39176 c 0.51401,0 0.91459,0 1.31589,-0.0471 0.40137,-0.047 0.89897,-0.15398 1.3,-0.55624 0.40063,-0.40284 0.51166,-0.89743 0.55627,-1.29813 0.0471,-0.39813 0.0394,-0.80097 0.0394,-1.31433 0,-3.59199 -2.26726,-6.82531 -4.86433,-10.19722 -2.24719,-2.91725 -4.81079,-5.96179 -6.73738,-9.27699 1.9368,-0.19029 4.16425,-0.63292 6.15327,-1.22844 1.33878,-0.40287 2.55592,-0.86481 3.52123,-1.42079 0.48277,-0.27605 0.90674,-0.57577 1.26028,-0.95949 0.3537,-0.38487 0.66732,-0.90648 0.66732,-1.54804 0,-1.50732 -0.89076,-2.78511 -2.09798,-3.91978 -1.20732,-1.13466 -2.81108,-2.19055 -4.65065,-3.24056 -3.5069,-2.00127 -7.86255,-3.95866 -11.79445,-5.90021 -0.10464,-2.0914 -0.64078,-4.47928 -1.92904,-6.53766 -1.44071,-2.30194 -3.93511,-4.13485 -7.40363,-4.13485 z"
         inkscape:connector-curvature="0"
         style="fill:#4d4d4d;fill-opacity:1;stroke:none;stroke-width:1.88931036;stroke-miterlimit:4;stroke-dasharray:none;stroke-opacity:1" />
      <g
         id="g963"
         transform="matrix(-1.0599736,0,0,-1.0599736,1106.3524,646.702)">
        <path
           sodipodi:nodetypes="cccccccc"
           inkscape:connector-curvature="0"
           id="path961"
           d="m 438.78372,401.02925 18.47945,-4.94391 -6.8317,-3.94429 23.32106,-40.39325 -9.29485,-5.36638 -23.32105,40.39325 -7.28997,-4.20886 z"
           style="opacity:1;fill:#ff2a2a;fill-opacity:1;fill-rule:nonzero;stroke:none;stroke-width:0.87170994;stroke-linecap:round;stroke-linejoin:round;stroke-miterlimit:4;stroke-dasharray:none;stroke-dashoffset:0;stroke-opacity:1" />
      </g>
      <path
         id="path5240"
         d="m 505.94324,125.34737 c -3.46836,0 -5.96284,1.83282 -7.40351,4.13478 -1.28845,2.05834 -1.8245,4.44625 -1.92909,6.5377 -3.93187,1.94155 -8.28754,3.89891 -11.79446,5.90022 -1.83953,1.05003 -3.44344,2.10583 -4.65065,3.24054 -1.20726,1.13472 -2.09796,2.41249 -2.09796,3.91973 0,0.64151 0.31371,1.1641 0.66657,1.54766 0.35448,0.38487 0.7777,0.68219 1.26053,0.95984 0.96528,0.55624 2.18244,1.01966 3.52131,1.42086 1.98892,0.59613 4.2164,1.03913 6.15319,1.22835 -1.9264,3.31535 -4.4901,6.35982 -6.73737,9.27714 -2.59706,3.37183 -4.86431,6.60512 -4.86431,10.19748 0,0.51316 -0.006,0.91377 0.0391,1.31634 0.047,0.40288 0.16096,0.90465 0.56646,1.30264 0.4053,0.3982 0.90146,0.50533 1.30557,0.54917 0.40374,0.047 0.81125,0.047 1.33341,0.047 h 14.32867 c 1.0401,0 1.80175,0.0627 2.58523,-0.43957 0.78357,-0.50304 1.06931,-1.18991 1.62758,-2.21643 h 0.006 l 0.006,-0.0473 c 0,0 1.24902,-2.53601 2.73934,-5.0531 0.74482,-1.25778 1.55389,-2.51105 2.25757,-3.39899 0.35217,-0.44356 0.68144,-0.79601 0.91847,-0.99478 0.0702,-0.0627 0.10581,-0.0702 0.15189,-0.0993 0.0471,0.047 0.0799,0.047 0.15191,0.0993 0.23684,0.19881 0.56646,0.55075 0.91845,0.99478 0.70336,0.88794 1.51245,2.14121 2.2575,3.39899 1.49016,2.51709 2.73929,5.0531 2.73929,5.0531 l 0.006,0.0473 h 0.006 c 0.5586,1.02652 0.84139,1.70929 1.61984,2.21366 0.77849,0.50379 1.53818,0.44355 2.56366,0.44355 h 14.39176 c 0.51401,0 0.91459,0 1.31591,-0.047 0.40134,-0.047 0.89895,-0.15398 1.29998,-0.55625 0.40063,-0.40285 0.51168,-0.89742 0.55627,-1.29814 0.0471,-0.39812 0.0394,-0.80096 0.0394,-1.31434 0,-3.59196 -2.26726,-6.82529 -4.86434,-10.19719 -2.24718,-2.91725 -4.81078,-5.96181 -6.73736,-9.27699 1.9368,-0.1903 4.16425,-0.63293 6.15326,-1.22845 1.3388,-0.40289 2.55592,-0.86479 3.52124,-1.42077 0.48278,-0.27607 0.90673,-0.57578 1.26026,-0.95951 0.3537,-0.38489 0.66733,-0.90648 0.66733,-1.54804 0,-1.50733 -0.89075,-2.7851 -2.09798,-3.91978 -1.20731,-1.13467 -2.81108,-2.19055 -4.65065,-3.24055 -3.5069,-2.00127 -7.86256,-3.95867 -11.79445,-5.90022 -0.10464,-2.09139 -0.64077,-4.47927 -1.92904,-6.53766 -1.44071,-2.30196 -3.93512,-4.13485 -7.40362,-4.13485 z"
         inkscape:connector-curvature="0"
         style="fill:#4d4d4d;fill-opacity:1;stroke:none;stroke-width:1.88931036;stroke-miterlimit:4;stroke-dasharray:none;stroke-opacity:1" />
    </g>
  </g>
</svg>
