<?xml version="1.0" encoding="UTF-8" standalone="no"?>
<!-- Created with Inkscape (http://www.inkscape.org/) -->

<svg
   xmlns:dc="http://purl.org/dc/elements/1.1/"
   xmlns:cc="http://creativecommons.org/ns#"
   xmlns:rdf="http://www.w3.org/1999/02/22-rdf-syntax-ns#"
   xmlns:svg="http://www.w3.org/2000/svg"
   xmlns="http://www.w3.org/2000/svg"
   xmlns:sodipodi="http://sodipodi.sourceforge.net/DTD/sodipodi-0.dtd"
   xmlns:inkscape="http://www.inkscape.org/namespaces/inkscape"
   width="1125"
   height="825"
   viewBox="0 0 1125 825"
   version="1.1"
   id="svg24"
   inkscape:version="0.92.0 r15299"
   sodipodi:docname="special_events_panic.svg">
  <defs
     id="defs18" />
  <sodipodi:namedview
     id="base"
     pagecolor="#ffffff"
     bordercolor="#666666"
     borderopacity="1.0"
     inkscape:pageopacity="0.0"
     inkscape:pageshadow="2"
     inkscape:zoom="0.7"
     inkscape:cx="293.38785"
     inkscape:cy="566.3643"
     inkscape:document-units="px"
     inkscape:current-layer="layer1"
     showgrid="false"
     units="px"
     showguides="true"
     inkscape:guide-bbox="true"
     inkscape:window-width="1920"
     inkscape:window-height="1017"
     inkscape:window-x="-8"
     inkscape:window-y="-8"
     inkscape:window-maximized="1"
     inkscape:snap-global="false">
    <sodipodi:guide
       position="87.690473,19.84375"
       orientation="0,1"
       id="guide32"
       inkscape:locked="false"
       inkscape:label=""
       inkscape:color="rgb(0,0,255)" />
    <sodipodi:guide
       position="1022.8571,750"
       orientation="0,1"
       id="guide36"
       inkscape:locked="false"
       inkscape:label=""
       inkscape:color="rgb(0,0,255)" />
    <sodipodi:guide
       position="75,545.71429"
       orientation="1,0"
       id="guide38"
       inkscape:locked="false"
       inkscape:label=""
       inkscape:color="rgb(0,0,255)" />
    <sodipodi:guide
       position="1050,285.71429"
       orientation="1,0"
       id="guide40"
       inkscape:locked="false"
       inkscape:label=""
       inkscape:color="rgb(0,0,255)" />
    <sodipodi:guide
       position="225,547.14286"
       orientation="1,0"
       id="guide42"
       inkscape:locked="false"
       inkscape:label=""
       inkscape:color="rgb(0,0,255)" />
    <sodipodi:guide
       position="900,604.28571"
       orientation="1,0"
       id="guide44"
       inkscape:locked="false"
       inkscape:label=""
       inkscape:color="rgb(0,0,255)" />
  </sodipodi:namedview>
  <metadata
     id="metadata21">
    <rdf:RDF>
      <cc:Work
         rdf:about="">
        <dc:format>image/svg+xml</dc:format>
        <dc:type
           rdf:resource="http://purl.org/dc/dcmitype/StillImage" />
        <dc:title />
      </cc:Work>
    </rdf:RDF>
  </metadata>
  <g
     inkscape:label="Layer 1"
     inkscape:groupmode="layer"
     id="layer1"
     transform="translate(0,-78.718733)">
    <g
       id="g4252"
       transform="matrix(0.73031105,0,0,0.73031105,-427.06788,-196.82087)">
      <rect
         ry="13.115295"
         y="884.43329"
         x="296.20898"
         height="119.48203"
         width="119.48205"
         id="rect5229"
         style="fill:#b3b3b3;fill-opacity:1;stroke:#000000;stroke-width:5;stroke-linecap:round;stroke-linejoin:round;stroke-miterlimit:4;stroke-dasharray:none;stroke-dashoffset:0.60000002;stroke-opacity:1" />
      <path
         inkscape:connector-curvature="0"
         id="path11026"
         d="m 349.04357,894.25658 v 94.69231 l 30.34921,-8.84956 v -76.99319 z m 34.18312,5.58532 0.0126,0.48022 v 6.1699 h 3.41977 v -6.64755 h -3.43321 z m -55.12948,0 v 24.36203 h 3.84742 v -20.62269 h 13.25147 v -3.73934 z m 55.14299,10.38691 v 3.32442 h 3.41854 v -3.32442 z m 0,7.06376 v 49.02757 h 3.41854 v -49.02757 z m -60.36762,6.05528 -12.45385,12.10483 12.45385,12.10674 v -7.3282 h 20.51871 v -9.5558 h -20.51871 z m 31.94084,13.26504 c 1.41641,0 2.56459,2.23208 2.56459,4.986 0,2.75329 -1.14818,4.986 -2.56459,4.986 -1.41633,0 -2.56451,-2.23271 -2.56451,-4.986 0,-2.75392 1.14818,-4.986 2.56451,-4.986 z m -22.86879,6.31526 v 7.32949 h -20.51749 v 9.55579 h 20.51749 v 7.32756 l 12.45506,-12.1061 z m -3.84742,25.83599 v 12.72208 h 3.84742 v -12.72208 z m 55.14299,1.29533 v 2.90823 h 3.41854 v -2.90823 z m 0,6.64821 v 4.77854 h 3.41854 v -4.77854 z m -73.73678,9.5558 v 3.73997 h 35.69268 v -3.73997 z m 62.12102,0 -12.82388,3.73997 h 46.45325 v -3.73997 z"
         style="fill:#000000;fill-opacity:1" />
    </g>
    <text
       xml:space="preserve"
       style="font-style:normal;font-weight:normal;font-size:36.51737595px;line-height:125%;font-family:sans-serif;letter-spacing:0px;word-spacing:0px;fill:#4d4d4d;fill-opacity:1;stroke:none;stroke-width:1;stroke-linecap:butt;stroke-linejoin:miter;stroke-miterlimit:4;stroke-dasharray:none;stroke-opacity:1"
       x="-136.65691"
       y="442.26599"
       id="text5242"
       transform="scale(1.0000655,0.9999345)"><tspan
         sodipodi:role="line"
         id="tspan5244"
         x="-136.65691"
         y="442.26599"
         style="font-style:normal;font-variant:normal;font-weight:normal;font-stretch:normal;font-family:'Archivo Black';-inkscape-font-specification:'Archivo Black, ';fill:#4d4d4d;fill-opacity:1;stroke:none;stroke-width:1;stroke-miterlimit:4;stroke-dasharray:none;stroke-opacity:1">+</tspan></text>
    <path
       d="m -391.51032,527.74878 h -95.0117 q -0.99335,0 -1.81141,-0.58336 -0.75965,-0.58336 -1.22711,-1.40004 -0.46747,-0.81668 -0.46747,-1.75007 0,-0.87508 0.46747,-1.80844 l 47.44745,-84.12041 q 0.46745,-0.8167 1.28549,-1.22504 0.81805,-0.40856 1.75299,-0.40856 0.93493,0 1.753,0.40856 0.81805,0.40854 1.28553,1.22504 l 47.56424,84.12041 q 0.46748,0.93336 0.46748,1.80844 0,0.93339 -0.46748,1.75007 -0.46745,0.81668 -1.2855,1.40004 -0.75963,0.58336 -1.75298,0.58336 z m -88.93469,-7.46697 h 82.74082 l -41.37042,-73.15331 z m 46.80465,-21.23433 h -10.86848 v -32.37642 h 10.86848 z m 1.63612,10.61718 q 0,1.51671 -0.58431,2.80011 -0.52592,1.2834 -1.51926,2.27513 -0.93493,0.93337 -2.22045,1.51671 -1.28554,0.52502 -2.74635,0.52502 -1.46082,0 -2.74635,-0.52502 -1.28549,-0.58334 -2.22042,-1.51671 -0.93493,-0.99173 -1.46084,-2.27513 -0.5259,-1.2834 -0.5259,-2.80011 0,-1.4584 0.5259,-2.80014 0.52591,-1.34175 1.46084,-2.27512 0.93493,-0.99169 2.22042,-1.57504 1.28553,-0.58335 2.74635,-0.58335 1.46081,0 2.74635,0.58335 1.28552,0.58335 2.22045,1.57504 0.99334,0.93337 1.51926,2.27512 0.58431,1.34174 0.58431,2.80014 z"
       style="font-style:normal;font-weight:normal;font-size:medium;line-height:125%;font-family:sans-serif;letter-spacing:0px;word-spacing:0px;fill:#000000;fill-opacity:1;stroke:none;stroke-width:1px;stroke-linecap:butt;stroke-linejoin:miter;stroke-opacity:1"
       id="path3444"
       inkscape:connector-curvature="0" />
    <text
       transform="scale(1.0000136,0.99998641)"
       id="text3446"
       y="514.37726"
       x="-285.86606"
       style="font-style:normal;font-weight:normal;font-size:118.33239746px;line-height:125%;font-family:sans-serif;letter-spacing:0px;word-spacing:0px;fill:#000000;fill-opacity:1;stroke:none;stroke-width:1px;stroke-linecap:butt;stroke-linejoin:miter;stroke-opacity:1"
       xml:space="preserve"><tspan
         y="514.37726"
         x="-285.86606"
         id="tspan3448"
         sodipodi:role="line">:</tspan></text>
    <path
       inkscape:connector-curvature="0"
       id="path3450"
       style="font-style:normal;font-weight:normal;font-size:medium;line-height:125%;font-family:sans-serif;letter-spacing:0px;word-spacing:0px;fill:#000000;fill-opacity:1;stroke:none;stroke-width:1px;stroke-linecap:butt;stroke-linejoin:miter;stroke-opacity:1"
       d="m -277.24518,527.74878 h -95.0117 q -0.99335,0 -1.81141,-0.58336 -0.75965,-0.58336 -1.22711,-1.40004 -0.46747,-0.81668 -0.46747,-1.75007 0,-0.87508 0.46747,-1.80844 l 47.44745,-84.12041 q 0.46745,-0.8167 1.28549,-1.22504 0.81805,-0.40856 1.75299,-0.40856 0.93493,0 1.753,0.40856 0.81805,0.40854 1.28553,1.22504 l 47.56424,84.12041 q 0.46748,0.93336 0.46748,1.80844 0,0.93339 -0.46748,1.75007 -0.46745,0.81668 -1.2855,1.40004 -0.75963,0.58336 -1.75298,0.58336 z m -88.93469,-7.46697 h 82.74082 l -41.37042,-73.15331 z m 46.80465,-21.23433 h -10.86848 v -32.37642 h 10.86848 z m 1.63612,10.61718 q 0,1.51671 -0.58431,2.80011 -0.52592,1.2834 -1.51926,2.27513 -0.93493,0.93337 -2.22045,1.51671 -1.28554,0.52502 -2.74635,0.52502 -1.46082,0 -2.74635,-0.52502 -1.28549,-0.58334 -2.22042,-1.51671 -0.93493,-0.99173 -1.46084,-2.27513 -0.5259,-1.2834 -0.5259,-2.80011 0,-1.4584 0.5259,-2.80014 0.52591,-1.34175 1.46084,-2.27512 0.93493,-0.99169 2.22042,-1.57504 1.28553,-0.58335 2.74635,-0.58335 1.46081,0 2.74635,0.58335 1.28552,0.58335 2.22045,1.57504 0.99334,0.93337 1.51926,2.27512 0.58431,1.34174 0.58431,2.80014 z" />
    <g
       id="g4585"
       transform="translate(0,-30)">
      <path
         id="path5238"
         d="m 555.6182,402.48948 c -12.8821,0 -22.14724,6.80763 -27.49817,15.35729 -4.78547,7.64486 -6.7764,16.51444 -7.1648,24.28245 -14.60344,7.21098 -30.78168,14.48098 -43.80644,21.91434 -6.83289,3.89997 -12.78969,7.82162 -17.27363,12.03603 -4.48394,4.21434 -7.79243,8.96017 -7.79243,14.55866 0,2.38243 1.16528,4.3236 2.47575,5.74796 1.31664,1.42948 2.88872,2.53379 4.68183,3.56532 3.5856,2.06602 8.10596,3.78727 13.07894,5.27703 7.38718,2.21415 15.66044,3.85955 22.85395,4.56268 -7.15485,12.31343 -16.67689,23.62107 -25.02354,34.45653 -9.64618,12.52366 -18.06728,24.53289 -18.06728,37.87561 0,1.90595 -0.0211,3.3936 0.14526,4.88883 0.17472,1.49636 0.59786,3.35993 2.10397,4.83825 1.5052,1.47895 3.34786,1.8769 4.84884,2.0397 1.49945,0.17473 3.01321,0.17473 4.95291,0.17473 h 53.2188 c 3.86348,0 6.69198,0.23297 9.60196,-1.63291 2.91061,-1.86813 3.9719,-4.41953 6.04507,-8.2322 h 0.0211 l 0.021,-0.17473 c 0,0 4.63903,-9.41924 10.17408,-18.76802 2.76627,-4.67145 5.77168,-9.32654 8.38497,-12.62436 1.30801,-1.64737 2.53105,-2.95665 3.41157,-3.69486 0.26104,-0.23087 0.39297,-0.26104 0.56419,-0.36981 0.17473,0.17473 0.29262,0.17473 0.56418,0.36981 0.87968,0.74088 2.10398,2.04538 3.41129,3.69486 2.61252,3.29782 5.61758,7.95291 8.38525,12.62436 5.53442,9.34878 10.17373,18.76802 10.17373,18.76802 l 0.0211,0.17473 h 0.021 c 2.07486,3.81267 3.12527,6.34863 6.01686,8.22216 2.89124,1.87115 5.71295,1.64744 9.52169,1.64744 h 53.45338 c 1.90939,0 3.39698,0 4.88758,-0.17473 1.49074,-0.17473 3.33922,-0.5719 4.82877,-2.06587 1.48772,-1.49636 1.90048,-3.33319 2.06608,-4.82141 0.17473,-1.47895 0.14526,-2.9751 0.14526,-4.88189 0,-13.34096 -8.42124,-25.35026 -18.06728,-37.87413 -8.34616,-10.83532 -17.86813,-22.14317 -25.02347,-34.45653 7.19351,-0.70678 15.46684,-2.35063 22.85402,-4.56254 4.97284,-1.49642 9.4932,-3.21207 13.07894,-5.2771 1.79283,-1.02522 3.36757,-2.13857 4.68057,-3.56356 1.31376,-1.42955 2.4787,-3.36708 2.4787,-5.74993 0,-5.59835 -3.30835,-10.34425 -7.79223,-14.55845 -4.48408,-4.21448 -10.44101,-8.13599 -17.27342,-12.03617 -13.02546,-7.43308 -29.203,-14.70315 -43.80706,-21.9142 -0.39016,-7.76766 -2.37997,-16.6371 -7.16467,-24.28231 -5.35092,-8.5498 -14.61592,-15.3575 -27.49824,-15.3575 z"
         inkscape:connector-curvature="0"
         style="fill:#4d4d4d;fill-opacity:1;stroke:none;stroke-width:0.99999994;stroke-miterlimit:4;stroke-dasharray:none;stroke-opacity:1" />
      <path
         sodipodi:nodetypes="cc"
         inkscape:connector-curvature="0"
         id="path4531"
         d="M 491.14214,425.29693 420.82377,404.23336"
         style="fill:none;fill-rule:evenodd;stroke:#000000;stroke-width:5;stroke-linecap:round;stroke-linejoin:miter;stroke-miterlimit:4;stroke-dasharray:none;stroke-opacity:1" />
      <path
         sodipodi:nodetypes="cc"
         inkscape:connector-curvature="0"
         id="path4543"
         d="m 620.26512,424.04386 67.43302,2.53596"
         style="fill:none;fill-rule:evenodd;stroke:#000000;stroke-width:5;stroke-linecap:round;stroke-linejoin:miter;stroke-miterlimit:4;stroke-dasharray:none;stroke-opacity:1" />
      <path
         sodipodi:nodetypes="cc"
         inkscape:connector-curvature="0"
         id="path4545"
         d="m 587.08884,372.04477 26.78404,-68.12438"
         style="fill:none;fill-rule:evenodd;stroke:#000000;stroke-width:5;stroke-linecap:round;stroke-linejoin:miter;stroke-miterlimit:4;stroke-dasharray:none;stroke-opacity:1" />
      <path
         inkscape:connector-curvature="0"
         id="path4547"
         d="M 543.28917,373.0239 527.99022,310.58517"
         style="fill:none;fill-rule:evenodd;stroke:#000000;stroke-width:5;stroke-linecap:round;stroke-linejoin:miter;stroke-miterlimit:4;stroke-dasharray:none;stroke-opacity:1" />
      <path
         sodipodi:nodetypes="cc"
         inkscape:connector-curvature="0"
         id="path4549"
         d="M 504.59252,394.21192 456.33055,349.26533"
         style="fill:none;fill-rule:evenodd;stroke:#000000;stroke-width:5;stroke-linecap:round;stroke-linejoin:miter;stroke-miterlimit:4;stroke-dasharray:none;stroke-opacity:1" />
      <path
         sodipodi:nodetypes="cc"
         inkscape:connector-curvature="0"
         id="path4551"
         d="m 614.33423,402.97642 53.4563,-43.1538"
         style="fill:none;fill-rule:evenodd;stroke:#000000;stroke-width:5;stroke-linecap:round;stroke-linejoin:miter;stroke-miterlimit:4;stroke-dasharray:none;stroke-opacity:1" />
    </g>
    <g
       id="g4601"
       transform="matrix(0.54751689,0,0,0.54794477,-154.20595,204.19653)"
       style="stroke-width:5.47714327;stroke-miterlimit:4;stroke-dasharray:none">
      <path
         style="fill:#4d4d4d;fill-opacity:1;stroke:none;stroke-width:5.47714327;stroke-miterlimit:4;stroke-dasharray:none;stroke-opacity:1"
         inkscape:connector-curvature="0"
         d="m 555.6182,402.48948 c -12.8821,0 -22.14724,6.80763 -27.49817,15.35729 -4.78547,7.64486 -6.7764,16.51444 -7.1648,24.28245 -14.60344,7.21098 -30.78168,14.48098 -43.80644,21.91434 -6.83289,3.89997 -12.78969,7.82162 -17.27363,12.03603 -4.48394,4.21434 -7.79243,8.96017 -7.79243,14.55866 0,2.38243 1.16528,4.3236 2.47575,5.74796 1.31664,1.42948 2.88872,2.53379 4.68183,3.56532 3.5856,2.06602 8.10596,3.78727 13.07894,5.27703 7.38718,2.21415 15.66044,3.85955 22.85395,4.56268 -7.15485,12.31343 -16.67689,23.62107 -25.02354,34.45653 -9.64618,12.52366 -18.06728,24.53289 -18.06728,37.87561 0,1.90595 -0.0211,3.3936 0.14526,4.88883 0.17472,1.49636 0.59786,3.35993 2.10397,4.83825 1.5052,1.47895 3.34786,1.8769 4.84884,2.0397 1.49945,0.17473 3.01321,0.17473 4.95291,0.17473 h 53.2188 c 3.86348,0 6.69198,0.23297 9.60196,-1.63291 2.91061,-1.86813 3.9719,-4.41953 6.04507,-8.2322 h 0.0211 l 0.021,-0.17473 c 0,0 4.63903,-9.41924 10.17408,-18.76802 2.76627,-4.67145 5.77168,-9.32654 8.38497,-12.62436 1.30801,-1.64737 2.53105,-2.95665 3.41157,-3.69486 0.26104,-0.23087 0.39297,-0.26104 0.56419,-0.36981 0.17473,0.17473 0.29262,0.17473 0.56418,0.36981 0.87968,0.74088 2.10398,2.04538 3.41129,3.69486 2.61252,3.29782 5.61758,7.95291 8.38525,12.62436 5.53442,9.34878 10.17373,18.76802 10.17373,18.76802 l 0.0211,0.17473 h 0.021 c 2.07486,3.81267 3.12527,6.34863 6.01686,8.22216 2.89124,1.87115 5.71295,1.64744 9.52169,1.64744 h 53.45338 c 1.90939,0 3.39698,0 4.88758,-0.17473 1.49074,-0.17473 3.33922,-0.5719 4.82877,-2.06587 1.48772,-1.49636 1.90048,-3.33319 2.06608,-4.82141 0.17473,-1.47895 0.14526,-2.9751 0.14526,-4.88189 0,-13.34096 -8.42124,-25.35026 -18.06728,-37.87413 -8.34616,-10.83532 -17.86813,-22.14317 -25.02347,-34.45653 7.19351,-0.70678 15.46684,-2.35063 22.85402,-4.56254 4.97284,-1.49642 9.4932,-3.21207 13.07894,-5.2771 1.79283,-1.02522 3.36757,-2.13857 4.68057,-3.56356 1.31376,-1.42955 2.4787,-3.36708 2.4787,-5.74993 0,-5.59835 -3.30835,-10.34425 -7.79223,-14.55845 -4.48408,-4.21448 -10.44101,-8.13599 -17.27342,-12.03617 -13.02546,-7.43308 -29.203,-14.70315 -43.80706,-21.9142 -0.39016,-7.76766 -2.37997,-16.6371 -7.16467,-24.28231 -5.35092,-8.5498 -14.61592,-15.3575 -27.49824,-15.3575 z"
         id="path4587" />
      <path
         style="fill:none;fill-rule:evenodd;stroke:#000000;stroke-width:5.47714327;stroke-linecap:round;stroke-linejoin:miter;stroke-miterlimit:4;stroke-dasharray:none;stroke-opacity:1"
         d="M 491.14214,425.29693 420.82377,404.23336"
         id="path4589"
         inkscape:connector-curvature="0"
         sodipodi:nodetypes="cc" />
      <path
         style="fill:none;fill-rule:evenodd;stroke:#000000;stroke-width:5.47714327;stroke-linecap:round;stroke-linejoin:miter;stroke-miterlimit:4;stroke-dasharray:none;stroke-opacity:1"
         d="m 620.26512,424.04386 67.43302,2.53596"
         id="path4591"
         inkscape:connector-curvature="0"
         sodipodi:nodetypes="cc" />
      <path
         style="fill:none;fill-rule:evenodd;stroke:#000000;stroke-width:5.47714327;stroke-linecap:round;stroke-linejoin:miter;stroke-miterlimit:4;stroke-dasharray:none;stroke-opacity:1"
         d="m 587.08884,372.04477 26.78404,-68.12438"
         id="path4593"
         inkscape:connector-curvature="0"
         sodipodi:nodetypes="cc" />
      <path
         style="fill:none;fill-rule:evenodd;stroke:#000000;stroke-width:5.47714327;stroke-linecap:round;stroke-linejoin:miter;stroke-miterlimit:4;stroke-dasharray:none;stroke-opacity:1"
         d="M 543.28917,373.0239 527.99022,310.58517"
         id="path4595"
         inkscape:connector-curvature="0" />
      <path
         style="fill:none;fill-rule:evenodd;stroke:#000000;stroke-width:5.47714327;stroke-linecap:round;stroke-linejoin:miter;stroke-miterlimit:4;stroke-dasharray:none;stroke-opacity:1"
         d="M 504.59252,394.21192 456.33055,349.26533"
         id="path4597"
         inkscape:connector-curvature="0"
         sodipodi:nodetypes="cc" />
      <path
         style="fill:none;fill-rule:evenodd;stroke:#000000;stroke-width:5.47714327;stroke-linecap:round;stroke-linejoin:miter;stroke-miterlimit:4;stroke-dasharray:none;stroke-opacity:1"
         d="m 614.33423,402.97642 53.4563,-43.1538"
         id="path4599"
         inkscape:connector-curvature="0"
         sodipodi:nodetypes="cc" />
    </g>
    <g
       style="stroke-width:5.47714329;stroke-miterlimit:4;stroke-dasharray:none"
       transform="matrix(0.54751689,0,0,0.54794477,670.07977,204.19653)"
       id="g4617">
      <path
         id="path4603"
         d="m 555.6182,402.48948 c -12.8821,0 -22.14724,6.80763 -27.49817,15.35729 -4.78547,7.64486 -6.7764,16.51444 -7.1648,24.28245 -14.60344,7.21098 -30.78168,14.48098 -43.80644,21.91434 -6.83289,3.89997 -12.78969,7.82162 -17.27363,12.03603 -4.48394,4.21434 -7.79243,8.96017 -7.79243,14.55866 0,2.38243 1.16528,4.3236 2.47575,5.74796 1.31664,1.42948 2.88872,2.53379 4.68183,3.56532 3.5856,2.06602 8.10596,3.78727 13.07894,5.27703 7.38718,2.21415 15.66044,3.85955 22.85395,4.56268 -7.15485,12.31343 -16.67689,23.62107 -25.02354,34.45653 -9.64618,12.52366 -18.06728,24.53289 -18.06728,37.87561 0,1.90595 -0.0211,3.3936 0.14526,4.88883 0.17472,1.49636 0.59786,3.35993 2.10397,4.83825 1.5052,1.47895 3.34786,1.8769 4.84884,2.0397 1.49945,0.17473 3.01321,0.17473 4.95291,0.17473 h 53.2188 c 3.86348,0 6.69198,0.23297 9.60196,-1.63291 2.91061,-1.86813 3.9719,-4.41953 6.04507,-8.2322 h 0.0211 l 0.021,-0.17473 c 0,0 4.63903,-9.41924 10.17408,-18.76802 2.76627,-4.67145 5.77168,-9.32654 8.38497,-12.62436 1.30801,-1.64737 2.53105,-2.95665 3.41157,-3.69486 0.26104,-0.23087 0.39297,-0.26104 0.56419,-0.36981 0.17473,0.17473 0.29262,0.17473 0.56418,0.36981 0.87968,0.74088 2.10398,2.04538 3.41129,3.69486 2.61252,3.29782 5.61758,7.95291 8.38525,12.62436 5.53442,9.34878 10.17373,18.76802 10.17373,18.76802 l 0.0211,0.17473 h 0.021 c 2.07486,3.81267 3.12527,6.34863 6.01686,8.22216 2.89124,1.87115 5.71295,1.64744 9.52169,1.64744 h 53.45338 c 1.90939,0 3.39698,0 4.88758,-0.17473 1.49074,-0.17473 3.33922,-0.5719 4.82877,-2.06587 1.48772,-1.49636 1.90048,-3.33319 2.06608,-4.82141 0.17473,-1.47895 0.14526,-2.9751 0.14526,-4.88189 0,-13.34096 -8.42124,-25.35026 -18.06728,-37.87413 -8.34616,-10.83532 -17.86813,-22.14317 -25.02347,-34.45653 7.19351,-0.70678 15.46684,-2.35063 22.85402,-4.56254 4.97284,-1.49642 9.4932,-3.21207 13.07894,-5.2771 1.79283,-1.02522 3.36757,-2.13857 4.68057,-3.56356 1.31376,-1.42955 2.4787,-3.36708 2.4787,-5.74993 0,-5.59835 -3.30835,-10.34425 -7.79223,-14.55845 -4.48408,-4.21448 -10.44101,-8.13599 -17.27342,-12.03617 -13.02546,-7.43308 -29.203,-14.70315 -43.80706,-21.9142 -0.39016,-7.76766 -2.37997,-16.6371 -7.16467,-24.28231 -5.35092,-8.5498 -14.61592,-15.3575 -27.49824,-15.3575 z"
         inkscape:connector-curvature="0"
         style="fill:#4d4d4d;fill-opacity:1;stroke:none;stroke-width:5.47714329;stroke-miterlimit:4;stroke-dasharray:none;stroke-opacity:1" />
      <path
         sodipodi:nodetypes="cc"
         inkscape:connector-curvature="0"
         id="path4605"
         d="M 491.14214,425.29693 420.82377,404.23336"
         style="fill:none;fill-rule:evenodd;stroke:#000000;stroke-width:5.47714329;stroke-linecap:round;stroke-linejoin:miter;stroke-miterlimit:4;stroke-dasharray:none;stroke-opacity:1" />
      <path
         sodipodi:nodetypes="cc"
         inkscape:connector-curvature="0"
         id="path4607"
         d="m 620.26512,424.04386 67.43302,2.53596"
         style="fill:none;fill-rule:evenodd;stroke:#000000;stroke-width:5.47714329;stroke-linecap:round;stroke-linejoin:miter;stroke-miterlimit:4;stroke-dasharray:none;stroke-opacity:1" />
      <path
         sodipodi:nodetypes="cc"
         inkscape:connector-curvature="0"
         id="path4609"
         d="m 587.08884,372.04477 26.78404,-68.12438"
         style="fill:none;fill-rule:evenodd;stroke:#000000;stroke-width:5.47714329;stroke-linecap:round;stroke-linejoin:miter;stroke-miterlimit:4;stroke-dasharray:none;stroke-opacity:1" />
      <path
         inkscape:connector-curvature="0"
         id="path4611"
         d="M 543.28917,373.0239 527.99022,310.58517"
         style="fill:none;fill-rule:evenodd;stroke:#000000;stroke-width:5.47714329;stroke-linecap:round;stroke-linejoin:miter;stroke-miterlimit:4;stroke-dasharray:none;stroke-opacity:1" />
      <path
         sodipodi:nodetypes="cc"
         inkscape:connector-curvature="0"
         id="path4613"
         d="M 504.59252,394.21192 456.33055,349.26533"
         style="fill:none;fill-rule:evenodd;stroke:#000000;stroke-width:5.47714329;stroke-linecap:round;stroke-linejoin:miter;stroke-miterlimit:4;stroke-dasharray:none;stroke-opacity:1" />
      <path
         sodipodi:nodetypes="cc"
         inkscape:connector-curvature="0"
         id="path4615"
         d="m 614.33423,402.97642 53.4563,-43.1538"
         style="fill:none;fill-rule:evenodd;stroke:#000000;stroke-width:5.47714329;stroke-linecap:round;stroke-linejoin:miter;stroke-miterlimit:4;stroke-dasharray:none;stroke-opacity:1" />
    </g>
  </g>
</svg>
