<?xml version="1.0" encoding="UTF-8" standalone="no"?>
<!-- Created with Inkscape (http://www.inkscape.org/) -->

<svg
   xmlns:dc="http://purl.org/dc/elements/1.1/"
   xmlns:cc="http://creativecommons.org/ns#"
   xmlns:rdf="http://www.w3.org/1999/02/22-rdf-syntax-ns#"
   xmlns:svg="http://www.w3.org/2000/svg"
   xmlns="http://www.w3.org/2000/svg"
   xmlns:sodipodi="http://sodipodi.sourceforge.net/DTD/sodipodi-0.dtd"
   xmlns:inkscape="http://www.inkscape.org/namespaces/inkscape"
   width="1125"
   height="825"
   viewBox="0 0 1125 825"
   version="1.1"
   id="svg24"
   inkscape:version="0.92.0 r15299"
   sodipodi:docname="special_events_watchtower.svg">
  <defs
     id="defs18" />
  <sodipodi:namedview
     id="base"
     pagecolor="#ffffff"
     bordercolor="#666666"
     borderopacity="1.0"
     inkscape:pageopacity="0.0"
     inkscape:pageshadow="2"
     inkscape:zoom="0.7"
     inkscape:cx="774.61688"
     inkscape:cy="544.78802"
     inkscape:document-units="px"
     inkscape:current-layer="layer1"
     showgrid="false"
     units="px"
     showguides="true"
     inkscape:guide-bbox="true"
     inkscape:window-width="1920"
     inkscape:window-height="1017"
     inkscape:window-x="-8"
     inkscape:window-y="-8"
     inkscape:window-maximized="1">
    <sodipodi:guide
       position="87.690473,19.84375"
       orientation="0,1"
       id="guide32"
       inkscape:locked="false"
       inkscape:label=""
       inkscape:color="rgb(0,0,255)" />
    <sodipodi:guide
       position="1022.8571,750"
       orientation="0,1"
       id="guide36"
       inkscape:locked="false"
       inkscape:label=""
       inkscape:color="rgb(0,0,255)" />
    <sodipodi:guide
       position="75,545.71429"
       orientation="1,0"
       id="guide38"
       inkscape:locked="false"
       inkscape:label=""
       inkscape:color="rgb(0,0,255)" />
    <sodipodi:guide
       position="1050,285.71429"
       orientation="1,0"
       id="guide40"
       inkscape:locked="false"
       inkscape:label=""
       inkscape:color="rgb(0,0,255)" />
    <sodipodi:guide
       position="225,547.14286"
       orientation="1,0"
       id="guide42"
       inkscape:locked="false"
       inkscape:label=""
       inkscape:color="rgb(0,0,255)" />
    <sodipodi:guide
       position="900,604.28571"
       orientation="1,0"
       id="guide44"
       inkscape:locked="false"
       inkscape:label=""
       inkscape:color="rgb(0,0,255)" />
  </sodipodi:namedview>
  <metadata
     id="metadata21">
    <rdf:RDF>
      <cc:Work
         rdf:about="">
        <dc:format>image/svg+xml</dc:format>
        <dc:type
           rdf:resource="http://purl.org/dc/dcmitype/StillImage" />
        <dc:title />
      </cc:Work>
    </rdf:RDF>
  </metadata>
  <g
     inkscape:label="Layer 1"
     inkscape:groupmode="layer"
     id="layer1"
     transform="translate(0,-78.718733)">
    <path
       style="fill:#000000;stroke-width:0.58689177"
       inkscape:connector-curvature="0"
       d="m 976.14114,356.83893 -56.34152,28.17054 h 13.49825 v 41.66937 h -18.78059 v 29.34453 h 18.16153 l -15.60256,140.41046 -0.38303,0.27821 0.30671,0.42263 -2.45038,22.04768 -0.58429,5.24824 10.49917,1.16795 0.58434,-5.25046 1.56407,-14.08259 h 99.05536 l 1.5642,14.08158 0.5843,5.24992 10.4994,-1.16795 -0.5843,-5.24944 -2.4497,-22.04769 0.3067,-0.42263 -0.383,-0.2782 -15.6025,-140.40945 h 18.1619 v -29.344 h -18.7804 v -41.6686 h 13.4984 z m -28.17078,37.56113 h 18.78049 v 28.17053 h -18.78049 z m 37.56092,0 h 18.78062 v 28.17053 h -18.78062 z m -60.4498,42.84254 h 8.21639 v 8.21648 h -8.21639 z m 18.78048,0 h 8.2164 v 8.21648 h -8.2164 z m 18.78044,0 h 8.21664 v 8.21648 h -8.21664 z m 18.78059,0 h 8.21649 v 8.21648 h -8.21649 z m 18.78051,0 h 8.2166 v 8.21648 h -8.2166 z m 18.7806,0 h 8.2165 v 8.21648 h -8.2165 z m -66.51117,18.78077 h 47.33627 l -23.66806,21.03892 z m -9.77187,5.44776 24.24347,21.54898 H 940.3084 l 2.3946,-21.54898 z m 66.87944,0 2.3943,21.54898 h -26.63614 z m -70.4459,32.11326 h 18.41833 l -20.43667,18.16616 2.01887,-18.16616 z m 34.31963,0 h 5.37358 l 30.37159,26.99679 h -66.11677 z m 21.27467,0 h 18.4187 l 2.0188,18.16616 -20.4385,-18.16616 z m -49.29528,37.56108 h 61.41478 l -30.70726,22.33308 z m -11.03353,5.03919 30.19264,21.95808 h -32.63124 l 2.4398,-21.95808 z m 83.48111,0 2.44,21.95808 h -32.63127 l 30.19197,-21.95808 z m -87.09297,32.52183 h 24.41498 l -26.56276,19.31712 z m 42.37662,0 h 5.95358 l 37.12087,26.99728 h -80.19589 l 37.12092,-26.99728 z m 23.91595,0 h 24.4145 l 2.1469,19.31712 -26.562,-19.31712 z"
       id="path1063" />
    <path
       id="path21"
       d="m 148.62386,356.83893 -56.34152,28.17054 h 13.49825 v 41.66937 H 87 v 29.34453 h 18.16153 l -15.60256,140.41046 -0.38303,0.27821 0.30671,0.42263 -2.45038,22.04768 -0.58429,5.24824 10.49917,1.16795 0.58434,-5.25046 1.56407,-14.08259 h 99.05536 l 1.5642,14.08158 0.5843,5.24992 10.4994,-1.16795 -0.5843,-5.24944 -2.4497,-22.04769 0.3067,-0.42263 -0.383,-0.2782 -15.6025,-140.40945 h 18.1619 v -29.344 h -18.7804 v -41.6686 h 13.4984 z m -28.17078,37.56113 h 18.78049 v 28.17053 h -18.78049 z m 37.56092,0 h 18.78062 v 28.17053 H 158.014 Z M 97.5642,437.2426 h 8.21639 v 8.21648 H 97.5642 Z m 18.78048,0 h 8.2164 v 8.21648 h -8.2164 z m 18.78044,0 h 8.21664 v 8.21648 h -8.21664 z m 18.78059,0 h 8.21649 v 8.21648 h -8.21649 z m 18.78051,0 h 8.2166 v 8.21648 h -8.2166 z m 18.7806,0 h 8.2165 v 8.21648 h -8.2165 z m -66.51117,18.78077 h 47.33627 l -23.66806,21.03892 z m -9.77187,5.44776 24.24347,21.54898 h -26.63613 l 2.3946,-21.54898 z m 66.87944,0 2.3943,21.54898 h -26.63614 z m -70.4459,32.11326 h 18.41833 l -20.43667,18.16616 2.01887,-18.16616 z m 34.31963,0 h 5.37358 l 30.37159,26.99679 h -66.11677 z m 21.27467,0 h 18.4187 l 2.0188,18.16616 -20.4385,-18.16616 z m -49.29528,37.56108 h 61.41478 l -30.70726,22.33308 z m -11.03353,5.03919 30.19264,21.95808 h -32.63124 l 2.4398,-21.95808 z m 83.48111,0 2.44,21.95808 h -32.63127 l 30.19197,-21.95808 z m -87.09297,32.52183 h 24.41498 l -26.56276,19.31712 z m 42.37662,0 h 5.95358 l 37.12087,26.99728 h -80.19589 l 37.12092,-26.99728 z m 23.91595,0 h 24.4145 l 2.1469,19.31712 -26.562,-19.31712 z"
       inkscape:connector-curvature="0"
       style="fill:#000000;stroke-width:0.58689177" />
    <g
       id="g4252"
       transform="matrix(0.73031105,0,0,0.73031105,-427.06788,-196.82087)">
      <rect
         ry="13.115295"
         y="884.43329"
         x="296.20898"
         height="119.48203"
         width="119.48205"
         id="rect5229"
         style="fill:#b3b3b3;fill-opacity:1;stroke:#000000;stroke-width:5;stroke-linecap:round;stroke-linejoin:round;stroke-miterlimit:4;stroke-dasharray:none;stroke-dashoffset:0.60000002;stroke-opacity:1" />
      <path
         inkscape:connector-curvature="0"
         id="path11026"
         d="m 349.04357,894.25658 v 94.69231 l 30.34921,-8.84956 v -76.99319 z m 34.18312,5.58532 0.0126,0.48022 v 6.1699 h 3.41977 v -6.64755 h -3.43321 z m -55.12948,0 v 24.36203 h 3.84742 v -20.62269 h 13.25147 v -3.73934 z m 55.14299,10.38691 v 3.32442 h 3.41854 v -3.32442 z m 0,7.06376 v 49.02757 h 3.41854 v -49.02757 z m -60.36762,6.05528 -12.45385,12.10483 12.45385,12.10674 v -7.3282 h 20.51871 v -9.5558 h -20.51871 z m 31.94084,13.26504 c 1.41641,0 2.56459,2.23208 2.56459,4.986 0,2.75329 -1.14818,4.986 -2.56459,4.986 -1.41633,0 -2.56451,-2.23271 -2.56451,-4.986 0,-2.75392 1.14818,-4.986 2.56451,-4.986 z m -22.86879,6.31526 v 7.32949 h -20.51749 v 9.55579 h 20.51749 v 7.32756 l 12.45506,-12.1061 z m -3.84742,25.83599 v 12.72208 h 3.84742 v -12.72208 z m 55.14299,1.29533 v 2.90823 h 3.41854 v -2.90823 z m 0,6.64821 v 4.77854 h 3.41854 v -4.77854 z m -73.73678,9.5558 v 3.73997 h 35.69268 v -3.73997 z m 62.12102,0 -12.82388,3.73997 h 46.45325 v -3.73997 z"
         style="fill:#000000;fill-opacity:1" />
    </g>
    <path
       style="fill:#4d4d4d;fill-opacity:1;stroke:none;stroke-width:1;stroke-miterlimit:4;stroke-dasharray:none;stroke-opacity:1"
       inkscape:connector-curvature="0"
       d="m -184.59239,418.20378 c -1.83578,0 -3.15612,0.97013 -3.91866,2.18851 -0.68196,1.08944 -0.96568,2.35341 -1.02103,3.4604 -2.08108,1.02761 -4.38658,2.06363 -6.24269,3.12293 -0.97373,0.55577 -1.82261,1.11463 -2.4616,1.71521 -0.63899,0.60057 -1.11047,1.27688 -1.11047,2.0747 0,0.33951 0.16606,0.61614 0.35281,0.81912 0.18763,0.20371 0.41166,0.36108 0.66719,0.50808 0.51097,0.29442 1.15515,0.53971 1.86383,0.75201 1.05272,0.31553 2.23171,0.55001 3.25683,0.65021 -1.01961,1.75474 -2.37656,3.36615 -3.56601,4.91027 -1.37464,1.7847 -2.5747,3.49609 -2.5747,5.39751 0,0.27161 -0.003,0.48361 0.0207,0.69669 0.0249,0.21324 0.0852,0.47881 0.29983,0.68948 0.2145,0.21076 0.47709,0.26747 0.69099,0.29067 0.21368,0.0249 0.4294,0.0249 0.70582,0.0249 h 7.58401 c 0.55057,0 0.95365,0.0332 1.36834,-0.2327 0.41478,-0.26622 0.56602,-0.62981 0.86146,-1.17314 h 0.003 l 0.003,-0.0249 c 0,0 0.66109,-1.3423 1.44987,-2.67456 0.39421,-0.66571 0.8225,-1.32909 1.19491,-1.79905 0.1864,-0.23476 0.36069,-0.42134 0.48617,-0.52654 0.0372,-0.0329 0.056,-0.0372 0.0804,-0.0527 0.0249,0.0249 0.0417,0.0249 0.0804,0.0527 0.12536,0.10558 0.29983,0.29148 0.48613,0.52654 0.3723,0.46996 0.80054,1.13334 1.19495,1.79905 0.78869,1.33226 1.44982,2.67456 1.44982,2.67456 l 0.003,0.0249 h 0.003 c 0.29568,0.54333 0.44537,0.90472 0.85744,1.17171 0.41202,0.26665 0.81413,0.23477 1.3569,0.23477 h 7.61744 c 0.2721,0 0.48409,0 0.69651,-0.0249 0.21244,-0.0249 0.47586,-0.0815 0.68813,-0.2944 0.21201,-0.21324 0.27083,-0.475 0.29443,-0.68708 0.0249,-0.21076 0.0207,-0.42397 0.0207,-0.6957 0,-1.90117 -1.20008,-3.61257 -2.5747,-5.3973 -1.18938,-1.5441 -2.54632,-3.15554 -3.566,-4.91027 1.02512,-0.10072 2.20412,-0.33498 3.25684,-0.65019 0.70866,-0.21325 1.35284,-0.45774 1.86383,-0.75202 0.25549,-0.1461 0.4799,-0.30476 0.66701,-0.50783 0.18722,-0.20372 0.35323,-0.47983 0.35323,-0.8194 0,-0.7978 -0.47146,-1.47412 -1.11044,-2.07467 -0.63901,-0.60059 -1.48791,-1.15943 -2.46157,-1.71523 -1.85621,-1.05926 -4.16161,-2.09529 -6.24278,-3.12291 -0.0556,-1.10694 -0.33916,-2.37089 -1.02101,-3.46038 -0.76254,-1.2184 -2.08286,-2.18854 -3.91867,-2.18854 z"
       id="path5238" />
    <text
       xml:space="preserve"
       style="font-style:normal;font-weight:normal;font-size:36.51737595px;line-height:125%;font-family:sans-serif;letter-spacing:0px;word-spacing:0px;fill:#4d4d4d;fill-opacity:1;stroke:none;stroke-width:1;stroke-linecap:butt;stroke-linejoin:miter;stroke-miterlimit:4;stroke-dasharray:none;stroke-opacity:1"
       x="-136.65691"
       y="442.26599"
       id="text5242"
       transform="scale(1.0000655,0.9999345)"><tspan
         sodipodi:role="line"
         id="tspan5244"
         x="-136.65691"
         y="442.26599"
         style="font-style:normal;font-variant:normal;font-weight:normal;font-stretch:normal;font-family:'Archivo Black';-inkscape-font-specification:'Archivo Black, ';fill:#4d4d4d;fill-opacity:1;stroke:none;stroke-width:1;stroke-miterlimit:4;stroke-dasharray:none;stroke-opacity:1">+</tspan></text>
    <path
       d="m -391.51032,527.74878 h -95.0117 q -0.99335,0 -1.81141,-0.58336 -0.75965,-0.58336 -1.22711,-1.40004 -0.46747,-0.81668 -0.46747,-1.75007 0,-0.87508 0.46747,-1.80844 l 47.44745,-84.12041 q 0.46745,-0.8167 1.28549,-1.22504 0.81805,-0.40856 1.75299,-0.40856 0.93493,0 1.753,0.40856 0.81805,0.40854 1.28553,1.22504 l 47.56424,84.12041 q 0.46748,0.93336 0.46748,1.80844 0,0.93339 -0.46748,1.75007 -0.46745,0.81668 -1.2855,1.40004 -0.75963,0.58336 -1.75298,0.58336 z m -88.93469,-7.46697 h 82.74082 l -41.37042,-73.15331 z m 46.80465,-21.23433 h -10.86848 v -32.37642 h 10.86848 z m 1.63612,10.61718 q 0,1.51671 -0.58431,2.80011 -0.52592,1.2834 -1.51926,2.27513 -0.93493,0.93337 -2.22045,1.51671 -1.28554,0.52502 -2.74635,0.52502 -1.46082,0 -2.74635,-0.52502 -1.28549,-0.58334 -2.22042,-1.51671 -0.93493,-0.99173 -1.46084,-2.27513 -0.5259,-1.2834 -0.5259,-2.80011 0,-1.4584 0.5259,-2.80014 0.52591,-1.34175 1.46084,-2.27512 0.93493,-0.99169 2.22042,-1.57504 1.28553,-0.58335 2.74635,-0.58335 1.46081,0 2.74635,0.58335 1.28552,0.58335 2.22045,1.57504 0.99334,0.93337 1.51926,2.27512 0.58431,1.34174 0.58431,2.80014 z"
       style="font-style:normal;font-weight:normal;font-size:medium;line-height:125%;font-family:sans-serif;letter-spacing:0px;word-spacing:0px;fill:#000000;fill-opacity:1;stroke:none;stroke-width:1px;stroke-linecap:butt;stroke-linejoin:miter;stroke-opacity:1"
       id="path3444"
       inkscape:connector-curvature="0" />
    <text
       transform="scale(1.0000136,0.99998641)"
       id="text3446"
       y="514.37726"
       x="-285.86606"
       style="font-style:normal;font-weight:normal;font-size:118.33239746px;line-height:125%;font-family:sans-serif;letter-spacing:0px;word-spacing:0px;fill:#000000;fill-opacity:1;stroke:none;stroke-width:1px;stroke-linecap:butt;stroke-linejoin:miter;stroke-opacity:1"
       xml:space="preserve"><tspan
         y="514.37726"
         x="-285.86606"
         id="tspan3448"
         sodipodi:role="line">:</tspan></text>
    <path
       inkscape:connector-curvature="0"
       id="path3450"
       style="font-style:normal;font-weight:normal;font-size:medium;line-height:125%;font-family:sans-serif;letter-spacing:0px;word-spacing:0px;fill:#000000;fill-opacity:1;stroke:none;stroke-width:1px;stroke-linecap:butt;stroke-linejoin:miter;stroke-opacity:1"
       d="m -277.24518,527.74878 h -95.0117 q -0.99335,0 -1.81141,-0.58336 -0.75965,-0.58336 -1.22711,-1.40004 -0.46747,-0.81668 -0.46747,-1.75007 0,-0.87508 0.46747,-1.80844 l 47.44745,-84.12041 q 0.46745,-0.8167 1.28549,-1.22504 0.81805,-0.40856 1.75299,-0.40856 0.93493,0 1.753,0.40856 0.81805,0.40854 1.28553,1.22504 l 47.56424,84.12041 q 0.46748,0.93336 0.46748,1.80844 0,0.93339 -0.46748,1.75007 -0.46745,0.81668 -1.2855,1.40004 -0.75963,0.58336 -1.75298,0.58336 z m -88.93469,-7.46697 h 82.74082 l -41.37042,-73.15331 z m 46.80465,-21.23433 h -10.86848 v -32.37642 h 10.86848 z m 1.63612,10.61718 q 0,1.51671 -0.58431,2.80011 -0.52592,1.2834 -1.51926,2.27513 -0.93493,0.93337 -2.22045,1.51671 -1.28554,0.52502 -2.74635,0.52502 -1.46082,0 -2.74635,-0.52502 -1.28549,-0.58334 -2.22042,-1.51671 -0.93493,-0.99173 -1.46084,-2.27513 -0.5259,-1.2834 -0.5259,-2.80011 0,-1.4584 0.5259,-2.80014 0.52591,-1.34175 1.46084,-2.27512 0.93493,-0.99169 2.22042,-1.57504 1.28553,-0.58335 2.74635,-0.58335 1.46081,0 2.74635,0.58335 1.28552,0.58335 2.22045,1.57504 0.99334,0.93337 1.51926,2.27512 0.58431,1.34174 0.58431,2.80014 z" />
    <g
       id="g1024"
       transform="translate(-34.198523)">
      <path
         transform="matrix(0,-4.3049629,4.2902378,0,-4235.1768,2251.9908)"
         sodipodi:type="star"
         style="font-style:normal;font-weight:normal;font-size:medium;line-height:125%;font-family:sans-serif;letter-spacing:0px;word-spacing:0px;fill:#b3b3b3;fill-opacity:1;stroke:#000000;stroke-width:0.31629431;stroke-linecap:butt;stroke-linejoin:round;stroke-miterlimit:4;stroke-dasharray:none;stroke-dashoffset:0;stroke-opacity:1"
         id="path6077"
         sodipodi:sides="6"
         sodipodi:cx="407.40814"
         sodipodi:cy="1113.0243"
         sodipodi:r1="11.162703"
         sodipodi:r2="9.6671848"
         sodipodi:arg1="-1.0471976"
         sodipodi:arg2="-0.52359878"
         inkscape:flatsided="true"
         inkscape:rounded="0"
         inkscape:randomized="0"
         d="m 412.98949,1103.3571 5.58135,9.6672 -5.58135,9.6672 -11.1627,0 -5.58135,-9.6672 5.58135,-9.6672 z" />
      <path
         d="m 412.98949,1103.3571 5.58135,9.6672 -5.58135,9.6672 -11.1627,0 -5.58135,-9.6672 5.58135,-9.6672 z"
         inkscape:randomized="0"
         inkscape:rounded="0"
         inkscape:flatsided="true"
         sodipodi:arg2="-0.52359878"
         sodipodi:arg1="-1.0471976"
         sodipodi:r2="9.6671848"
         sodipodi:r1="11.162703"
         sodipodi:cy="1113.0243"
         sodipodi:cx="407.40814"
         sodipodi:sides="6"
         id="path55"
         style="font-style:normal;font-weight:normal;font-size:medium;line-height:125%;font-family:sans-serif;letter-spacing:0px;word-spacing:0px;fill:#b3b3b3;fill-opacity:1;stroke:#000000;stroke-width:0.31629431;stroke-linecap:butt;stroke-linejoin:round;stroke-miterlimit:4;stroke-dasharray:none;stroke-dashoffset:0;stroke-opacity:1"
         sodipodi:type="star"
         transform="matrix(0,-4.3049629,4.2902378,0,-4149.8204,2251.9908)" />
      <path
         transform="matrix(0,-4.3049629,4.2902378,0,-4064.464,2251.9908)"
         sodipodi:type="star"
         style="font-style:normal;font-weight:normal;font-size:medium;line-height:125%;font-family:sans-serif;letter-spacing:0px;word-spacing:0px;fill:#b3b3b3;fill-opacity:1;stroke:#000000;stroke-width:0.31629431;stroke-linecap:butt;stroke-linejoin:round;stroke-miterlimit:4;stroke-dasharray:none;stroke-dashoffset:0;stroke-opacity:1"
         id="path57"
         sodipodi:sides="6"
         sodipodi:cx="407.40814"
         sodipodi:cy="1113.0243"
         sodipodi:r1="11.162703"
         sodipodi:r2="9.6671848"
         sodipodi:arg1="-1.0471976"
         sodipodi:arg2="-0.52359878"
         inkscape:flatsided="true"
         inkscape:rounded="0"
         inkscape:randomized="0"
         d="m 412.98949,1103.3571 5.58135,9.6672 -5.58135,9.6672 -11.1627,0 -5.58135,-9.6672 5.58135,-9.6672 z" />
      <path
         style="fill:#000000;stroke-width:0.14196162"
         inkscape:connector-curvature="0"
         d="m 710.43535,463.73 -13.6283,6.81408 h 3.26507 v 10.0793 h -4.54277 v 7.09806 h 4.39304 l -3.77407,33.96351 -0.0926,0.0673 0.0743,0.1023 -0.59271,5.33306 -0.14132,1.26949 2.5396,0.28251 0.14133,-1.27002 0.37834,-3.40641 h 23.96017 l 0.37836,3.40616 0.14132,1.26989 2.53968,-0.28252 -0.14133,-1.26979 -0.59253,-5.33303 0.0743,-0.10231 -0.0926,-0.0673 -3.77404,-33.96325 h 4.39312 v -7.09792 h -4.54273 v -10.07913 h 3.26508 z m -6.81416,9.08555 h 4.54278 v 6.81409 h -4.54278 z m 9.08553,0 h 4.54279 v 6.81409 h -4.54279 z m -14.62203,10.36306 h 1.98743 v 1.98746 h -1.98743 z m 4.54275,0 h 1.98745 v 1.98746 h -1.98745 z m 4.54274,0 h 1.9875 v 1.98746 h -1.9875 z m 4.54279,0 h 1.98748 v 1.98746 h -1.98748 z m 4.54276,0 h 1.98751 v 1.98746 h -1.98751 z m 4.54279,0 h 1.98747 v 1.98746 h -1.98747 z m -16.08821,4.54283 h 11.45006 l -5.72502,5.08905 z m -2.36368,1.31774 5.86419,5.21244 h -6.44294 l 0.57921,-5.21244 z m 16.17728,0 0.57917,5.21244 h -6.44297 z m -17.03996,7.76781 h 4.45515 l -4.94335,4.39413 0.48832,-4.39413 z m 8.30148,0 h 1.29981 l 7.34649,6.53017 h -15.99279 z m 5.14608,0 h 4.45526 l 0.48829,4.39413 -4.94379,-4.39413 z m -11.92393,9.08554 h 14.85548 l -7.42771,5.40207 z m -2.66884,1.2189 7.3032,5.31138 h -7.89306 l 0.59015,-5.31138 z m 20.19301,0 0.59021,5.31138 h -7.89309 l 7.30303,-5.31138 z m -21.06669,7.86662 h 5.90568 l -6.4252,4.67257 z m 10.25035,0 h 1.44011 l 8.97907,6.5303 h -19.39837 l 8.97911,-6.5303 z m 5.785,0 h 5.90556 l 0.51932,4.67257 -6.42504,-4.67257 z"
         id="path53" />
      <path
         sodipodi:nodetypes="scccccscs"
         inkscape:connector-curvature="0"
         d="m 488.65216,443.1911 c 9.6332,0.44209 19.61811,9.9155 19.84543,18.47961 l 7.76035,-2.46877 -10.05543,24.85212 -14.72193,-16.97467 8.42936,-2.67944 c 1.42627,-8.34862 -15.35892,-11.34372 -17.07282,-11.39139 -1.82437,-0.0508 -11.77336,-1.07575 -23.70461,7.86289 10.12128,-16.56596 17.48717,-18.2326 29.51965,-17.68035 z"
         id="path5102"
         style="fill:#000000;fill-opacity:1;stroke:none;stroke-width:0.53084648;stroke-opacity:1" />
      <g
         transform="matrix(-0.73682838,0,0,0.73682838,726.05669,-203.58765)"
         id="g4163">
        <circle
           style="fill:#000000;stroke:none;stroke-width:3;stroke-miterlimit:4;stroke-dasharray:none;stroke-opacity:1"
           id="path4151"
           cx="400.71429"
           cy="928.07642"
           r="45" />
        <path
           id="path15149"
           d="m 400.71429,896.83247 c 2.83886,0 4.7227,1.41745 7.24972,2.82167 2.39517,1.33142 5.40596,2.47258 9.65199,1.60564 2.01501,2.01471 4.06221,4.02984 6.24535,5.39477 1.78649,1.11717 3.79413,1.78267 5.79661,1.46791 -0.57456,4.52203 -3.31964,8.94522 -6.18917,11.26062 -7.56742,-2.50856 -15.1538,-3.76346 -22.74019,-3.76346 -7.59333,0 -15.18652,1.25738 -22.7609,3.7705 -2.87253,-2.31334 -5.62208,-6.74108 -6.19708,-11.26766 2.00206,0.31435 4.00999,-0.35158 5.79662,-1.4675 2.18314,-1.36534 4.23006,-3.38047 6.24535,-5.39518 4.2456,0.86694 7.25695,-0.27299 9.65185,-1.60524 2.52742,-1.40504 4.41113,-2.82207 7.24985,-2.82207 z m 0.0149,2.64257 c -2.67865,0 -7.18755,3.62078 -7.18755,3.62078 0,0 2.86859,10.86397 7.18755,10.86397 4.31925,0 7.18795,-10.86397 7.18795,-10.86397 0,0 -4.50931,-3.62078 -7.18795,-3.62078 z m 0,18.56919 c 7.13628,0 14.27297,1.16721 21.42669,3.48055 0.29478,1.82156 -0.20407,3.17531 -1.27708,4.42689 -1.19771,1.3972 -3.20823,2.58344 -5.59112,3.47685 -4.76648,1.78723 -10.94734,2.42006 -14.55863,2.42006 -3.61115,0 -9.79173,-0.63283 -14.55794,-2.42006 -2.3833,-0.89341 -4.39341,-2.07924 -5.59113,-3.47685 -1.07338,-1.25158 -1.57242,-2.60493 -1.27749,-4.42689 7.15374,-2.31334 14.29043,-3.48055 21.42656,-3.48055 z m 23.41689,7.72835 c 1.32767,0.32263 3.64075,1.05141 4.05621,2.29805 1.13596,3.40734 -2.28717,8.62757 -4.87596,11.92075 0.71326,-2.97594 1.09777,-6.14133 1.09777,-9.42295 0,-1.63046 -0.0954,-3.23197 -0.27806,-4.79585 z m -46.83325,0 a 41.349104,41.364178 0 0 0 -0.27798,4.79544 c 0,3.28203 0.3844,6.44742 1.09777,9.42336 -2.58879,-3.29318 -6.01192,-8.51341 -4.87596,-11.92075 0.41534,-1.24664 2.72868,-1.97625 4.05594,-2.29805 z m 44.61372,2.59253 c 0.0409,0.72715 0.0641,1.46131 0.0641,2.20291 0,8.02908 -2.45081,15.27558 -6.34039,20.46106 -3.88946,5.18588 -9.15212,8.29129 -14.92119,8.29129 -5.7688,0 -11.03159,-3.10541 -14.92091,-8.29129 -3.88931,-5.18548 -6.33998,-12.43157 -6.33998,-20.46106 0,-0.7416 0.0235,-1.47576 0.0641,-2.20332 1.10856,1.03528 2.46239,1.87575 3.95205,2.57392 -0.57717,2.46142 0.0359,5.52258 1.63542,7.12159 2.94344,2.94328 9.54439,2.94328 12.48797,0 0.91165,-0.91201 1.30271,-2.36462 1.25116,-3.82261 0.66691,0 1.29766,0.0579 1.87048,0.0579 0.57297,0 1.20387,0 1.8709,-0.0579 -0.0517,1.45799 0.33937,2.9106 1.25117,3.82261 2.94358,2.94328 9.5444,2.94328 12.48785,0 1.59941,-1.59901 2.21258,-4.66017 1.6354,-7.12117 1.48965,-0.69818 2.8439,-1.53824 3.95205,-2.57393 z m -21.19736,15.93861 c -3.12193,4.99479 -9.3655,5.61935 -12.48742,5.61935 3.12178,2.49741 12.48728,2.49741 12.48728,0 0,2.49741 9.36605,2.49741 12.48798,0 -3.12193,0 -9.36591,-0.62456 -12.48798,-5.61935 z"
           style="fill:#ffffff;fill-opacity:1"
           inkscape:connector-curvature="0" />
      </g>
      <path
         d="m 412.98949,1103.3571 5.58135,9.6672 -5.58135,9.6672 -11.1627,0 -5.58135,-9.6672 5.58135,-9.6672 z"
         inkscape:randomized="0"
         inkscape:rounded="0"
         inkscape:flatsided="true"
         sodipodi:arg2="-0.52359878"
         sodipodi:arg1="-1.0471976"
         sodipodi:r2="9.6671848"
         sodipodi:r1="11.162703"
         sodipodi:cy="1113.0243"
         sodipodi:cx="407.40814"
         sodipodi:sides="6"
         id="path117"
         style="font-style:normal;font-weight:normal;font-size:medium;line-height:125%;font-family:sans-serif;letter-spacing:0px;word-spacing:0px;fill:#b3b3b3;fill-opacity:1;stroke:#000000;stroke-width:0.31629431;stroke-linecap:butt;stroke-linejoin:round;stroke-miterlimit:4;stroke-dasharray:none;stroke-dashoffset:0;stroke-opacity:1"
         sodipodi:type="star"
         transform="matrix(0,-4.3049629,4.2902378,0,-4192.2495,2176.1297)" />
      <path
         d="m 412.98949,1103.3571 5.58135,9.6672 -5.58135,9.6672 -11.1627,0 -5.58135,-9.6672 5.58135,-9.6672 z"
         inkscape:randomized="0"
         inkscape:rounded="0"
         inkscape:flatsided="true"
         sodipodi:arg2="-0.52359878"
         sodipodi:arg1="-1.0471976"
         sodipodi:r2="9.6671848"
         sodipodi:r1="11.162703"
         sodipodi:cy="1113.0243"
         sodipodi:cx="407.40814"
         sodipodi:sides="6"
         id="path121"
         style="font-style:normal;font-weight:normal;font-size:medium;line-height:125%;font-family:sans-serif;letter-spacing:0px;word-spacing:0px;fill:#b3b3b3;fill-opacity:1;stroke:#000000;stroke-width:0.31629431;stroke-linecap:butt;stroke-linejoin:round;stroke-miterlimit:4;stroke-dasharray:none;stroke-dashoffset:0;stroke-opacity:1"
         sodipodi:type="star"
         transform="matrix(0,-4.3049629,4.2902378,0,-4021.5366,2176.1297)" />
      <path
         id="path123"
         d="m 582.30268,391.68148 c -3.46836,0 -5.96284,1.83282 -7.4035,4.13477 -1.28846,2.05833 -1.82451,4.44626 -1.92908,6.5377 -3.93189,1.94156 -8.28757,3.89891 -11.79448,5.90022 -1.83953,1.05003 -3.44344,2.10584 -4.65064,3.24056 -1.20726,1.13472 -2.09799,2.41248 -2.09799,3.91971 0,0.64152 0.31374,1.16412 0.6666,1.54767 0.35447,0.38485 0.7777,0.68218 1.26051,0.95983 0.96531,0.55624 2.18246,1.01967 3.52132,1.42086 1.98892,0.59613 4.21641,1.03914 6.15319,1.22836 -1.92639,3.31533 -4.49009,6.35982 -6.73737,9.27714 -2.59706,3.37182 -4.86431,6.60513 -4.86431,10.19746 0,0.51317 -0.006,0.91378 0.0391,1.31634 0.047,0.40289 0.16096,0.90465 0.56647,1.30264 0.40529,0.3982 0.90144,0.50534 1.30557,0.54917 0.40373,0.0471 0.81125,0.0471 1.3334,0.0471 h 14.32868 c 1.04008,0 1.80173,0.0627 2.58522,-0.43956 0.78356,-0.50304 1.06931,-1.18992 1.62758,-2.21643 h 0.006 l 0.006,-0.0473 c 0,0 1.24902,-2.53599 2.73932,-5.05309 0.74483,-1.25779 1.55391,-2.51105 2.25758,-3.399 0.35216,-0.44356 0.68144,-0.79601 0.91847,-0.99477 0.0702,-0.0627 0.1058,-0.0702 0.1519,-0.0993 0.0471,0.0471 0.0799,0.0471 0.15191,0.0993 0.23683,0.19881 0.56644,0.55074 0.91844,0.99477 0.70335,0.88795 1.51245,2.14121 2.25752,3.399 1.49014,2.5171 2.73927,5.05309 2.73927,5.05309 l 0.006,0.0473 h 0.006 c 0.55861,1.02651 0.84141,1.70929 1.61983,2.21365 0.7785,0.50379 1.5382,0.44356 2.56367,0.44356 h 14.39177 c 0.514,0 0.9146,0 1.31589,-0.0471 0.40135,-0.0471 0.89895,-0.15398 1.29999,-0.55626 0.40062,-0.40284 0.51168,-0.89742 0.55626,-1.29812 0.0471,-0.39813 0.0394,-0.80097 0.0394,-1.31435 0,-3.59196 -2.26725,-6.8253 -4.86433,-10.19721 -2.24718,-2.91723 -4.81079,-5.96179 -6.73737,-9.27697 1.9368,-0.1903 4.16424,-0.63293 6.15328,-1.22846 1.33878,-0.40288 2.55591,-0.86478 3.52121,-1.42077 0.48277,-0.27606 0.90674,-0.57577 1.26026,-0.9595 0.3537,-0.38489 0.66736,-0.9065 0.66736,-1.54804 0,-1.50733 -0.89079,-2.7851 -2.098,-3.91978 -1.20731,-1.13467 -2.81109,-2.19054 -4.65063,-3.24055 -3.50691,-2.00128 -7.86257,-3.95867 -11.79447,-5.90022 -0.10464,-2.09139 -0.64079,-4.47926 -1.92906,-6.53766 -1.44071,-2.30196 -3.93509,-4.13485 -7.4036,-4.13485 z"
         inkscape:connector-curvature="0"
         style="fill:#4d4d4d;fill-opacity:1;stroke:none;stroke-width:1.88931036;stroke-miterlimit:4;stroke-dasharray:none;stroke-opacity:1" />
      <path
         d="m 412.98949,1103.3571 5.58135,9.6672 -5.58135,9.6672 -11.1627,0 -5.58135,-9.6672 5.58135,-9.6672 z"
         inkscape:randomized="0"
         inkscape:rounded="0"
         inkscape:flatsided="true"
         sodipodi:arg2="-0.52359878"
         sodipodi:arg1="-1.0471976"
         sodipodi:r2="9.6671848"
         sodipodi:r1="11.162703"
         sodipodi:cy="1113.0243"
         sodipodi:cx="407.40814"
         sodipodi:sides="6"
         id="path127"
         style="font-style:normal;font-weight:normal;font-size:medium;line-height:125%;font-family:sans-serif;letter-spacing:0px;word-spacing:0px;fill:#b3b3b3;fill-opacity:1;stroke:#000000;stroke-width:0.31629431;stroke-linecap:butt;stroke-linejoin:round;stroke-miterlimit:4;stroke-dasharray:none;stroke-dashoffset:0;stroke-opacity:1"
         sodipodi:type="star"
         transform="matrix(0,-4.3049629,4.2902378,0,-4149.7173,2100.9433)" />
      <path
         transform="matrix(0,-4.3049629,4.2902378,0,-4064.3608,2100.9433)"
         sodipodi:type="star"
         style="font-style:normal;font-weight:normal;font-size:medium;line-height:125%;font-family:sans-serif;letter-spacing:0px;word-spacing:0px;fill:#b3b3b3;fill-opacity:1;stroke:#000000;stroke-width:0.31629431;stroke-linecap:butt;stroke-linejoin:round;stroke-miterlimit:4;stroke-dasharray:none;stroke-dashoffset:0;stroke-opacity:1"
         id="path129"
         sodipodi:sides="6"
         sodipodi:cx="407.40814"
         sodipodi:cy="1113.0243"
         sodipodi:r1="11.162703"
         sodipodi:r2="9.6671848"
         sodipodi:arg1="-1.0471976"
         sodipodi:arg2="-0.52359878"
         inkscape:flatsided="true"
         inkscape:rounded="0"
         inkscape:randomized="0"
         d="m 412.98949,1103.3571 5.58135,9.6672 -5.58135,9.6672 -11.1627,0 -5.58135,-9.6672 5.58135,-9.6672 z" />
      <g
         id="g955"
         transform="matrix(-1.0599736,0,0,-1.0599736,1084.1251,911.56228)">
        <path
           sodipodi:nodetypes="cccccccc"
           inkscape:connector-curvature="0"
           id="rect951"
           transform="matrix(0,1.7824127,-1.7824127,0,1047.156,-571.3072)"
           d="m 540.79102,312.60156 -7.5918,7.58594 h 4.42578 v 54.16797 h 6.02148 V 320.1875 h 4.72266 z"
           style="opacity:1;fill:#ff2a2a;fill-opacity:1;fill-rule:nonzero;stroke:none;stroke-width:0.4890618;stroke-linecap:round;stroke-linejoin:round;stroke-miterlimit:4;stroke-dasharray:none;stroke-dashoffset:0;stroke-opacity:1" />
      </g>
      <path
         style="fill:#4d4d4d;fill-opacity:1;stroke:none;stroke-width:1.88931036;stroke-miterlimit:4;stroke-dasharray:none;stroke-opacity:1"
         inkscape:connector-curvature="0"
         d="m 540.94362,466.33502 c -3.46836,0 -5.96284,1.83281 -7.4035,4.13477 -1.28846,2.05834 -1.82452,4.44626 -1.92909,6.53771 -3.93187,1.94154 -8.28755,3.89891 -11.79446,5.90021 -1.83953,1.05002 -3.44344,2.10583 -4.65064,3.24055 -1.20727,1.13472 -2.09799,2.41249 -2.09799,3.91972 0,0.64151 0.31373,1.16412 0.6666,1.54766 0.35447,0.38488 0.77769,0.68219 1.2605,0.95985 0.9653,0.55623 2.18246,1.01966 3.52132,1.42085 1.98892,0.59615 4.21641,1.03915 6.1532,1.22836 -1.9264,3.31534 -4.4901,6.35981 -6.73738,9.27713 -2.59707,3.37184 -4.86432,6.60514 -4.86432,10.19749 0,0.51315 -0.006,0.91375 0.0391,1.31633 0.0471,0.40288 0.16097,0.90463 0.56647,1.30265 0.4053,0.39819 0.90145,0.50532 1.30557,0.54916 0.40374,0.047 0.81125,0.047 1.3334,0.047 h 14.32868 c 1.04008,0 1.80174,0.0627 2.58522,-0.43956 0.78357,-0.50306 1.06931,-1.18993 1.62758,-2.21643 h 0.006 l 0.006,-0.0473 c 0,0 1.24902,-2.53601 2.73932,-5.05309 0.74483,-1.25779 1.55391,-2.51107 2.25759,-3.39901 0.35215,-0.44354 0.68144,-0.796 0.91847,-0.99477 0.0702,-0.0627 0.1058,-0.0704 0.1519,-0.0993 0.0471,0.047 0.0799,0.047 0.1519,0.0993 0.23685,0.19881 0.56645,0.55075 0.91845,0.99477 0.70334,0.88794 1.51244,2.14122 2.2575,3.39901 1.49015,2.51708 2.7393,5.05309 2.7393,5.05309 l 0.006,0.0473 h 0.006 c 0.5586,1.0265 0.8414,1.70926 1.61985,2.21364 0.77848,0.50379 1.53816,0.44356 2.56365,0.44356 h 14.39176 c 0.51401,0 0.91459,0 1.31589,-0.0471 0.40137,-0.047 0.89897,-0.15398 1.3,-0.55624 0.40063,-0.40284 0.51166,-0.89743 0.55627,-1.29813 0.0471,-0.39813 0.0394,-0.80097 0.0394,-1.31433 0,-3.59199 -2.26726,-6.82531 -4.86433,-10.19722 -2.24719,-2.91725 -4.81079,-5.96179 -6.73738,-9.27699 1.9368,-0.19029 4.16425,-0.63292 6.15327,-1.22844 1.33878,-0.40287 2.55592,-0.86481 3.52123,-1.42079 0.48277,-0.27605 0.90674,-0.57577 1.26028,-0.95949 0.3537,-0.38487 0.66732,-0.90648 0.66732,-1.54804 0,-1.50732 -0.89076,-2.78511 -2.09798,-3.91978 -1.20732,-1.13466 -2.81108,-2.19055 -4.65065,-3.24056 -3.5069,-2.00127 -7.86255,-3.95866 -11.79445,-5.90021 -0.10464,-2.0914 -0.64078,-4.47928 -1.92904,-6.53766 -1.44071,-2.30194 -3.93511,-4.13485 -7.40363,-4.13485 z"
         id="path959" />
      <g
         transform="matrix(-1.0599736,0,0,-1.0599736,1225.2083,842.00808)"
         id="g963">
        <path
           style="opacity:1;fill:#ff2a2a;fill-opacity:1;fill-rule:nonzero;stroke:none;stroke-width:0.87170994;stroke-linecap:round;stroke-linejoin:round;stroke-miterlimit:4;stroke-dasharray:none;stroke-dashoffset:0;stroke-opacity:1"
           d="m 438.78372,401.02925 18.47945,-4.94391 -6.8317,-3.94429 23.32106,-40.39325 -9.29485,-5.36638 -23.32105,40.39325 -7.28997,-4.20886 z"
           id="path961"
           inkscape:connector-curvature="0"
           sodipodi:nodetypes="cccccccc" />
      </g>
      <path
         style="fill:#4d4d4d;fill-opacity:1;stroke:none;stroke-width:1.88931036;stroke-miterlimit:4;stroke-dasharray:none;stroke-opacity:1"
         inkscape:connector-curvature="0"
         d="m 624.79907,320.65345 c -3.46836,0 -5.96284,1.83282 -7.40351,4.13478 -1.28845,2.05834 -1.8245,4.44625 -1.92909,6.5377 -3.93187,1.94155 -8.28754,3.89891 -11.79446,5.90022 -1.83953,1.05003 -3.44344,2.10583 -4.65065,3.24054 -1.20726,1.13472 -2.09796,2.41249 -2.09796,3.91973 0,0.64151 0.31371,1.1641 0.66657,1.54766 0.35448,0.38487 0.7777,0.68219 1.26053,0.95984 0.96528,0.55624 2.18244,1.01966 3.52131,1.42086 1.98892,0.59613 4.2164,1.03913 6.15319,1.22835 -1.9264,3.31535 -4.4901,6.35982 -6.73737,9.27714 -2.59706,3.37183 -4.86431,6.60512 -4.86431,10.19748 0,0.51316 -0.006,0.91377 0.0391,1.31634 0.047,0.40288 0.16096,0.90465 0.56646,1.30264 0.4053,0.3982 0.90146,0.50533 1.30557,0.54917 0.40374,0.047 0.81125,0.047 1.33341,0.047 h 14.32867 c 1.0401,0 1.80175,0.0627 2.58523,-0.43957 0.78357,-0.50304 1.06931,-1.18991 1.62758,-2.21643 h 0.006 l 0.006,-0.0473 c 0,0 1.24902,-2.53601 2.73934,-5.0531 0.74482,-1.25778 1.55389,-2.51105 2.25757,-3.39899 0.35217,-0.44356 0.68144,-0.79601 0.91847,-0.99478 0.0702,-0.0627 0.10581,-0.0702 0.15189,-0.0993 0.0471,0.047 0.0799,0.047 0.15191,0.0993 0.23684,0.19881 0.56646,0.55075 0.91845,0.99478 0.70336,0.88794 1.51245,2.14121 2.2575,3.39899 1.49016,2.51709 2.73929,5.0531 2.73929,5.0531 l 0.006,0.0473 h 0.006 c 0.5586,1.02652 0.84139,1.70929 1.61984,2.21366 0.77849,0.50379 1.53818,0.44355 2.56366,0.44355 h 14.39176 c 0.51401,0 0.91459,0 1.31591,-0.047 0.40134,-0.047 0.89895,-0.15398 1.29998,-0.55625 0.40063,-0.40285 0.51168,-0.89742 0.55627,-1.29814 0.0471,-0.39812 0.0394,-0.80096 0.0394,-1.31434 0,-3.59196 -2.26726,-6.82529 -4.86434,-10.19719 -2.24718,-2.91725 -4.81078,-5.96181 -6.73736,-9.27699 1.9368,-0.1903 4.16425,-0.63293 6.15326,-1.22845 1.3388,-0.40289 2.55592,-0.86479 3.52124,-1.42077 0.48278,-0.27607 0.90673,-0.57578 1.26026,-0.95951 0.3537,-0.38489 0.66733,-0.90648 0.66733,-1.54804 0,-1.50733 -0.89075,-2.7851 -2.09798,-3.91978 -1.20731,-1.13467 -2.81108,-2.19055 -4.65065,-3.24055 -3.5069,-2.00127 -7.86256,-3.95867 -11.79445,-5.90022 -0.10464,-2.09139 -0.64077,-4.47927 -1.92904,-6.53766 -1.44071,-2.30196 -3.93512,-4.13485 -7.40362,-4.13485 z"
         id="path5240" />
    </g>
  </g>
</svg>
