<?xml version="1.0" encoding="UTF-8" standalone="no"?>
<!-- Created with Inkscape (http://www.inkscape.org/) -->

<svg
   xmlns:dc="http://purl.org/dc/elements/1.1/"
   xmlns:cc="http://creativecommons.org/ns#"
   xmlns:rdf="http://www.w3.org/1999/02/22-rdf-syntax-ns#"
   xmlns:svg="http://www.w3.org/2000/svg"
   xmlns="http://www.w3.org/2000/svg"
   xmlns:sodipodi="http://sodipodi.sourceforge.net/DTD/sodipodi-0.dtd"
   xmlns:inkscape="http://www.inkscape.org/namespaces/inkscape"
   width="1125"
   height="825"
   viewBox="0 0 1125 825"
   version="1.1"
   id="svg24"
   inkscape:version="0.92.0 r15299"
   sodipodi:docname="special_events_gates.svg">
  <defs
     id="defs18" />
  <sodipodi:namedview
     id="base"
     pagecolor="#ffffff"
     bordercolor="#666666"
     borderopacity="1.0"
     inkscape:pageopacity="0.0"
     inkscape:pageshadow="2"
     inkscape:zoom="0.98994949"
     inkscape:cx="375.43398"
     inkscape:cy="457.80445"
     inkscape:document-units="px"
     inkscape:current-layer="layer1"
     showgrid="false"
     units="px"
     showguides="true"
     inkscape:guide-bbox="true"
     inkscape:window-width="1920"
     inkscape:window-height="1017"
     inkscape:window-x="1672"
     inkscape:window-y="156"
     inkscape:window-maximized="1"
     inkscape:snap-global="false">
    <sodipodi:guide
       position="87.690473,19.84375"
       orientation="0,1"
       id="guide32"
       inkscape:locked="false"
       inkscape:label=""
       inkscape:color="rgb(0,0,255)" />
    <sodipodi:guide
       position="1022.8571,750"
       orientation="0,1"
       id="guide36"
       inkscape:locked="false"
       inkscape:label=""
       inkscape:color="rgb(0,0,255)" />
    <sodipodi:guide
       position="75,545.71429"
       orientation="1,0"
       id="guide38"
       inkscape:locked="false"
       inkscape:label=""
       inkscape:color="rgb(0,0,255)" />
    <sodipodi:guide
       position="1050,285.71429"
       orientation="1,0"
       id="guide40"
       inkscape:locked="false"
       inkscape:label=""
       inkscape:color="rgb(0,0,255)" />
    <sodipodi:guide
       position="225,547.14286"
       orientation="1,0"
       id="guide42"
       inkscape:locked="false"
       inkscape:label=""
       inkscape:color="rgb(0,0,255)" />
    <sodipodi:guide
       position="900,604.28571"
       orientation="1,0"
       id="guide44"
       inkscape:locked="false"
       inkscape:label=""
       inkscape:color="rgb(0,0,255)" />
  </sodipodi:namedview>
  <metadata
     id="metadata21">
    <rdf:RDF>
      <cc:Work
         rdf:about="">
        <dc:format>image/svg+xml</dc:format>
        <dc:type
           rdf:resource="http://purl.org/dc/dcmitype/StillImage" />
        <dc:title />
      </cc:Work>
    </rdf:RDF>
  </metadata>
  <g
     inkscape:label="Layer 1"
     inkscape:groupmode="layer"
     id="layer1"
     transform="translate(0,-78.718733)">
    <g
       id="g4252"
       transform="matrix(0.73031105,0,0,0.73031105,-427.06788,-196.82087)">
      <rect
         ry="13.115295"
         y="884.43329"
         x="296.20898"
         height="119.48203"
         width="119.48205"
         id="rect5229"
         style="fill:#b3b3b3;fill-opacity:1;stroke:#000000;stroke-width:5;stroke-linecap:round;stroke-linejoin:round;stroke-miterlimit:4;stroke-dasharray:none;stroke-dashoffset:0.60000002;stroke-opacity:1" />
      <path
         inkscape:connector-curvature="0"
         id="path11026"
         d="m 349.04357,894.25658 v 94.69231 l 30.34921,-8.84956 v -76.99319 z m 34.18312,5.58532 0.0126,0.48022 v 6.1699 h 3.41977 v -6.64755 h -3.43321 z m -55.12948,0 v 24.36203 h 3.84742 v -20.62269 h 13.25147 v -3.73934 z m 55.14299,10.38691 v 3.32442 h 3.41854 v -3.32442 z m 0,7.06376 v 49.02757 h 3.41854 v -49.02757 z m -60.36762,6.05528 -12.45385,12.10483 12.45385,12.10674 v -7.3282 h 20.51871 v -9.5558 h -20.51871 z m 31.94084,13.26504 c 1.41641,0 2.56459,2.23208 2.56459,4.986 0,2.75329 -1.14818,4.986 -2.56459,4.986 -1.41633,0 -2.56451,-2.23271 -2.56451,-4.986 0,-2.75392 1.14818,-4.986 2.56451,-4.986 z m -22.86879,6.31526 v 7.32949 h -20.51749 v 9.55579 h 20.51749 v 7.32756 l 12.45506,-12.1061 z m -3.84742,25.83599 v 12.72208 h 3.84742 v -12.72208 z m 55.14299,1.29533 v 2.90823 h 3.41854 v -2.90823 z m 0,6.64821 v 4.77854 h 3.41854 v -4.77854 z m -73.73678,9.5558 v 3.73997 h 35.69268 v -3.73997 z m 62.12102,0 -12.82388,3.73997 h 46.45325 v -3.73997 z"
         style="fill:#000000;fill-opacity:1" />
    </g>
    <path
       style="fill:#4d4d4d;fill-opacity:1;stroke:none;stroke-width:1;stroke-miterlimit:4;stroke-dasharray:none;stroke-opacity:1"
       inkscape:connector-curvature="0"
       d="m -184.59239,418.20378 c -1.83578,0 -3.15612,0.97013 -3.91866,2.18851 -0.68196,1.08944 -0.96568,2.35341 -1.02103,3.4604 -2.08108,1.02761 -4.38658,2.06363 -6.24269,3.12293 -0.97373,0.55577 -1.82261,1.11463 -2.4616,1.71521 -0.63899,0.60057 -1.11047,1.27688 -1.11047,2.0747 0,0.33951 0.16606,0.61614 0.35281,0.81912 0.18763,0.20371 0.41166,0.36108 0.66719,0.50808 0.51097,0.29442 1.15515,0.53971 1.86383,0.75201 1.05272,0.31553 2.23171,0.55001 3.25683,0.65021 -1.01961,1.75474 -2.37656,3.36615 -3.56601,4.91027 -1.37464,1.7847 -2.5747,3.49609 -2.5747,5.39751 0,0.27161 -0.003,0.48361 0.0207,0.69669 0.0249,0.21324 0.0852,0.47881 0.29983,0.68948 0.2145,0.21076 0.47709,0.26747 0.69099,0.29067 0.21368,0.0249 0.4294,0.0249 0.70582,0.0249 h 7.58401 c 0.55057,0 0.95365,0.0332 1.36834,-0.2327 0.41478,-0.26622 0.56602,-0.62981 0.86146,-1.17314 h 0.003 l 0.003,-0.0249 c 0,0 0.66109,-1.3423 1.44987,-2.67456 0.39421,-0.66571 0.8225,-1.32909 1.19491,-1.79905 0.1864,-0.23476 0.36069,-0.42134 0.48617,-0.52654 0.0372,-0.0329 0.056,-0.0372 0.0804,-0.0527 0.0249,0.0249 0.0417,0.0249 0.0804,0.0527 0.12536,0.10558 0.29983,0.29148 0.48613,0.52654 0.3723,0.46996 0.80054,1.13334 1.19495,1.79905 0.78869,1.33226 1.44982,2.67456 1.44982,2.67456 l 0.003,0.0249 h 0.003 c 0.29568,0.54333 0.44537,0.90472 0.85744,1.17171 0.41202,0.26665 0.81413,0.23477 1.3569,0.23477 h 7.61744 c 0.2721,0 0.48409,0 0.69651,-0.0249 0.21244,-0.0249 0.47586,-0.0815 0.68813,-0.2944 0.21201,-0.21324 0.27083,-0.475 0.29443,-0.68708 0.0249,-0.21076 0.0207,-0.42397 0.0207,-0.6957 0,-1.90117 -1.20008,-3.61257 -2.5747,-5.3973 -1.18938,-1.5441 -2.54632,-3.15554 -3.566,-4.91027 1.02512,-0.10072 2.20412,-0.33498 3.25684,-0.65019 0.70866,-0.21325 1.35284,-0.45774 1.86383,-0.75202 0.25549,-0.1461 0.4799,-0.30476 0.66701,-0.50783 0.18722,-0.20372 0.35323,-0.47983 0.35323,-0.8194 0,-0.7978 -0.47146,-1.47412 -1.11044,-2.07467 -0.63901,-0.60059 -1.48791,-1.15943 -2.46157,-1.71523 -1.85621,-1.05926 -4.16161,-2.09529 -6.24278,-3.12291 -0.0556,-1.10694 -0.33916,-2.37089 -1.02101,-3.46038 -0.76254,-1.2184 -2.08286,-2.18854 -3.91867,-2.18854 z"
       id="path5238" />
    <text
       xml:space="preserve"
       style="font-style:normal;font-weight:normal;font-size:36.51737595px;line-height:125%;font-family:sans-serif;letter-spacing:0px;word-spacing:0px;fill:#4d4d4d;fill-opacity:1;stroke:none;stroke-width:1;stroke-linecap:butt;stroke-linejoin:miter;stroke-miterlimit:4;stroke-dasharray:none;stroke-opacity:1"
       x="-136.65691"
       y="442.26599"
       id="text5242"
       transform="scale(1.0000655,0.9999345)"><tspan
         sodipodi:role="line"
         id="tspan5244"
         x="-136.65691"
         y="442.26599"
         style="font-style:normal;font-variant:normal;font-weight:normal;font-stretch:normal;font-family:'Archivo Black';-inkscape-font-specification:'Archivo Black, ';fill:#4d4d4d;fill-opacity:1;stroke:none;stroke-width:1;stroke-miterlimit:4;stroke-dasharray:none;stroke-opacity:1">+</tspan></text>
    <path
       d="m -391.51032,527.74878 h -95.0117 q -0.99335,0 -1.81141,-0.58336 -0.75965,-0.58336 -1.22711,-1.40004 -0.46747,-0.81668 -0.46747,-1.75007 0,-0.87508 0.46747,-1.80844 l 47.44745,-84.12041 q 0.46745,-0.8167 1.28549,-1.22504 0.81805,-0.40856 1.75299,-0.40856 0.93493,0 1.753,0.40856 0.81805,0.40854 1.28553,1.22504 l 47.56424,84.12041 q 0.46748,0.93336 0.46748,1.80844 0,0.93339 -0.46748,1.75007 -0.46745,0.81668 -1.2855,1.40004 -0.75963,0.58336 -1.75298,0.58336 z m -88.93469,-7.46697 h 82.74082 l -41.37042,-73.15331 z m 46.80465,-21.23433 h -10.86848 v -32.37642 h 10.86848 z m 1.63612,10.61718 q 0,1.51671 -0.58431,2.80011 -0.52592,1.2834 -1.51926,2.27513 -0.93493,0.93337 -2.22045,1.51671 -1.28554,0.52502 -2.74635,0.52502 -1.46082,0 -2.74635,-0.52502 -1.28549,-0.58334 -2.22042,-1.51671 -0.93493,-0.99173 -1.46084,-2.27513 -0.5259,-1.2834 -0.5259,-2.80011 0,-1.4584 0.5259,-2.80014 0.52591,-1.34175 1.46084,-2.27512 0.93493,-0.99169 2.22042,-1.57504 1.28553,-0.58335 2.74635,-0.58335 1.46081,0 2.74635,0.58335 1.28552,0.58335 2.22045,1.57504 0.99334,0.93337 1.51926,2.27512 0.58431,1.34174 0.58431,2.80014 z"
       style="font-style:normal;font-weight:normal;font-size:medium;line-height:125%;font-family:sans-serif;letter-spacing:0px;word-spacing:0px;fill:#000000;fill-opacity:1;stroke:none;stroke-width:1px;stroke-linecap:butt;stroke-linejoin:miter;stroke-opacity:1"
       id="path3444"
       inkscape:connector-curvature="0" />
    <text
       transform="scale(1.0000136,0.99998641)"
       id="text3446"
       y="514.37726"
       x="-285.86606"
       style="font-style:normal;font-weight:normal;font-size:118.33239746px;line-height:125%;font-family:sans-serif;letter-spacing:0px;word-spacing:0px;fill:#000000;fill-opacity:1;stroke:none;stroke-width:1px;stroke-linecap:butt;stroke-linejoin:miter;stroke-opacity:1"
       xml:space="preserve"><tspan
         y="514.37726"
         x="-285.86606"
         id="tspan3448"
         sodipodi:role="line">:</tspan></text>
    <path
       inkscape:connector-curvature="0"
       id="path3450"
       style="font-style:normal;font-weight:normal;font-size:medium;line-height:125%;font-family:sans-serif;letter-spacing:0px;word-spacing:0px;fill:#000000;fill-opacity:1;stroke:none;stroke-width:1px;stroke-linecap:butt;stroke-linejoin:miter;stroke-opacity:1"
       d="m -277.24518,527.74878 h -95.0117 q -0.99335,0 -1.81141,-0.58336 -0.75965,-0.58336 -1.22711,-1.40004 -0.46747,-0.81668 -0.46747,-1.75007 0,-0.87508 0.46747,-1.80844 l 47.44745,-84.12041 q 0.46745,-0.8167 1.28549,-1.22504 0.81805,-0.40856 1.75299,-0.40856 0.93493,0 1.753,0.40856 0.81805,0.40854 1.28553,1.22504 l 47.56424,84.12041 q 0.46748,0.93336 0.46748,1.80844 0,0.93339 -0.46748,1.75007 -0.46745,0.81668 -1.2855,1.40004 -0.75963,0.58336 -1.75298,0.58336 z m -88.93469,-7.46697 h 82.74082 l -41.37042,-73.15331 z m 46.80465,-21.23433 h -10.86848 v -32.37642 h 10.86848 z m 1.63612,10.61718 q 0,1.51671 -0.58431,2.80011 -0.52592,1.2834 -1.51926,2.27513 -0.93493,0.93337 -2.22045,1.51671 -1.28554,0.52502 -2.74635,0.52502 -1.46082,0 -2.74635,-0.52502 -1.28549,-0.58334 -2.22042,-1.51671 -0.93493,-0.99173 -1.46084,-2.27513 -0.5259,-1.2834 -0.5259,-2.80011 0,-1.4584 0.5259,-2.80014 0.52591,-1.34175 1.46084,-2.27512 0.93493,-0.99169 2.22042,-1.57504 1.28553,-0.58335 2.74635,-0.58335 1.46081,0 2.74635,0.58335 1.28552,0.58335 2.22045,1.57504 0.99334,0.93337 1.51926,2.27512 0.58431,1.34174 0.58431,2.80014 z" />
    <path
       style="fill:#000000;fill-opacity:1;stroke:none;stroke-width:10;stroke-linecap:round;stroke-linejoin:round;stroke-miterlimit:4;stroke-dasharray:none;stroke-dashoffset:0;stroke-opacity:1"
       d="m 142.23435,320.73084 c -2.22043,0.0601 -5.63556,1.00804 -5.27695,2.38916 1.15756,1.23423 1.86144,2.99347 2.68513,4.57571 1.83714,3.52854 3.24917,7.50327 4.38105,12.21062 1.0439,0.73513 1.4206,0.62555 2.95269,0.28056 1.02285,-0.2299 1.90492,-0.36443 2.22802,-1.16079 0.45938,-1.29951 0.766,-2.57462 1.12712,-3.88494 0.40063,-1.45345 0.86716,-2.9456 1.68025,-4.4433 1.67714,-3.08884 3.3906,-5.65141 4.31085,-8.06598 0.33932,-0.99535 -2.30053,-1.41028 -3.36566,-1.41526 -2.28042,-0.0127 -5.18243,0.0677 -9.43717,-0.3819 -0.32357,-0.0864 -0.77303,-0.11793 -1.28533,-0.10388 z m -7.90505,1.37115 c -0.25843,-0.0256 -0.51443,0.0213 -0.74526,0.14561 -3.0827,1.67327 -6.10622,0.40574 -8.39832,2.56572 -0.76481,0.72075 -0.97079,1.91765 -0.24139,2.67484 4.43474,4.6064 4.70836,6.1015 8.70225,13.53498 2.92593,2.06589 6.18163,0.48276 7.08429,0.0987 0.96078,-0.42403 1.66654,-1.30419 1.36341,-2.3112 -0.58782,-6.50605 -3.25781,-9.69791 -6.20142,-15.19705 -0.0128,-0.78866 -0.7858,-1.44231 -1.5607,-1.50877 v -0.003 z m 23.98493,0.72974 c -0.77489,0.0664 -1.54686,0.72265 -1.56069,1.5114 -2.94362,5.49911 -5.61347,8.69101 -6.20143,15.19701 -0.30313,1.00702 0.39978,1.88691 1.36086,2.31125 4.86479,2.14827 3.20927,0.65216 5.36257,0.99978 1.03686,0.16732 1.772,-0.17243 2.26966,-1.09846 3.99388,-7.43354 4.26737,-8.92863 8.70216,-13.53503 0.72889,-0.75711 0.52308,-1.95405 -0.24139,-2.6748 -2.29213,-2.16015 -5.86121,-0.89241 -8.94373,-2.56572 -0.23034,-0.1256 -0.4897,-0.16775 -0.74792,-0.1456 z m -36.76421,3.45906 c -0.25801,0.0255 -0.50579,0.10984 -0.71147,0.27248 -2.74964,2.17914 -6.48505,1.54146 -8.37243,4.06413 -0.62972,0.84165 -0.64607,2.08339 0.22053,2.67739 5.34917,3.66563 6.66069,4.64375 10.89656,11.83664 3.23678,1.53133 6.71304,-0.68127 7.53622,-1.21534 0.87367,-0.58343 1.41658,-1.5739 0.94521,-2.51381 -1.69549,-6.30795 -4.87421,-8.9933 -8.71772,-13.90378 -0.14858,-0.77455 -1.02218,-1.28575 -1.79708,-1.21792 z m 49.37998,1.30368 c -0.77584,-0.0567 -1.6413,0.46717 -1.77889,1.2439 -3.77131,4.96629 -6.90944,7.6989 -8.51268,14.03102 -0.45768,0.94665 0.0983,1.92757 0.98164,2.49819 0.83102,0.52197 4.33772,2.6823 7.55176,1.10368 5.1125,-6.71101 5.61921,-8.14287 10.72265,-11.99248 0.83884,-0.63274 0.82368,-1.8476 0.18178,-2.67998 -1.92407,-2.49479 -5.64842,-1.80347 -8.42956,-3.94208 -0.20777,-0.1605 -0.45819,-0.24352 -0.71667,-0.26225 z m -61.21403,4.92366 c -0.39637,0.0128 -0.77903,0.15839 -1.03869,0.45449 -2.31206,2.64018 -6.10027,2.69085 -7.50246,5.51321 -0.46777,0.9417 -0.25374,2.14891 0.69856,2.59169 5.86333,2.72562 8.19852,3.39847 13.33242,9.57732 3.45948,0.92154 5.99677,-1.78783 6.7104,-2.46183 0.7543,-0.73177 1.10809,-1.80176 0.47518,-2.64107 -2.80346,-5.89812 -6.4111,-7.96601 -11.07575,-12.10151 -0.238,-0.61248 -0.93886,-0.95499 -1.59966,-0.9323 z m 72.89745,1.75293 c -0.66072,-0.0256 -1.36141,0.31973 -1.59966,0.93226 -4.6647,4.13553 -8.27218,6.20074 -11.0758,12.09895 -0.63286,0.83935 -0.27929,1.91193 0.47522,2.64363 0.71348,0.67404 3.73392,3.47945 7.19345,2.55796 6.31936,-5.58515 7.09506,-7.98895 12.84934,-10.76933 0.94574,-0.45704 1.16644,-1.65007 0.6986,-2.5917 -1.40212,-2.82235 -5.1904,-1.77718 -7.50246,-4.41732 -0.26013,-0.29632 -0.64208,-0.44082 -1.03869,-0.45445 z m -82.996791,6.78568 c -0.66106,-0.0456 -1.370143,0.2712 -1.623033,0.87777 -1.3509,3.24085 -4.17951,4.24609 -5.36257,7.16744 -0.39468,0.97465 -0.0916,2.16891 0.89334,2.53195 1.79988,0.66272 10.204634,4.00473 11.867844,4.91852 1.74246,0.95733 1.12406,1.08909 4.07193,2.3112 0.95534,0.39637 1.80295,0.35593 2.33198,-0.12474 1.79883,-1.63329 3.10599,-3.18825 4.12127,-4.70816 0.48199,-0.93452 -0.36146,-1.7361 -1.22828,-2.32943 -4.53479,-4.69432 -8.30647,-7.72956 -14.04401,-10.15904 -0.25289,-0.3027 -0.63171,-0.45852 -1.028471,-0.4856 z m 95.498141,0.10387 c -0.3968,0.0298 -0.7758,0.18307 -1.0283,0.48561 -5.73779,2.42966 -10.67755,6.63301 -15.21261,11.32767 -1.81597,1.33352 2.15212,7.67003 5.61455,7.3778 4.99749,-3.52981 10.47986,-5.74137 17.10303,-8.18025 0.98566,-0.36316 1.28813,-1.55725 0.89339,-2.53196 -1.18311,-2.9213 -4.39609,-4.36287 -5.74698,-7.6037 -0.25289,-0.60664 -0.96197,-0.92033 -1.62307,-0.87517 z m -51.41586,2.39697 c -2.69102,0.16007 -5.29104,0.53192 -7.7725,1.10884 v 8.90995 h -8.29967 v -6.06114 c -2.84565,1.32176 -5.45407,2.92849 -7.77251,4.77828 v 1.28286 h -1.50872 c -2.58344,2.30792 -4.75308,4.92941 -6.42732,7.78549 h 7.93604 v 10.0448 h -14.99709 c -0.32145,2.70362 0.69116,5.61599 1.20503,8.4503 h 13.79206 v 8.58011 h -13.4441 c -0.55909,2.98406 -0.11963,5.71913 0.33251,8.4503 h 13.11171 v 7.98024 h -12.16127 c -0.55049,2.92657 -0.35507,5.70456 0,8.4502 h 12.16127 v 6.78555 h -12.29892 c -0.61784,2.81674 0.76669,5.6339 1.16608,8.45064 h 11.13284 v 7.67365 h -11.23417 c 0,0 -1.78761,0.63607 -1.84641,0.95836 l 0.41297,6.82727 h 12.66757 v 10.1847 l 3.47217,10.90975 c -16.29344,-1.18698 -32.726364,1.52205 -49.772096,-0.82339 -0.103875,0 -0.207759,-0.0426 -0.309093,-0.0426 -1.526757,0 -2.731925,1.48927 -2.731925,3.07218 v 2.66475 c 0,1.68851 1.361621,2.90146 3.041063,3.04834 9.734603,0.85278 19.289977,1.56164 28.724221,1.71662 27.9411,0.54409 61.98429,0.42149 93.91659,-0.12347 9.98591,-0.20861 15.96808,-1.38027 26.11447,-1.59186 1.68527,-0.0426 3.04349,-1.36027 3.04349,-3.04878 v -2.66474 c 0,-1.68851 -1.36154,-3.15989 -3.04349,-3.04877 -6.359,0.42149 -12.73408,1.21849 -19.13654,1.05201 -10.11381,-0.26395 -20.48597,0 -30.97062,0.29377 l 3.6409,-11.43384 v -10.18513 h 11.49899 l -0.33507,-5.51343 c 0,-0.73653 -0.10516,-1.49436 -0.29845,-2.2722 h -10.86543 v -7.67365 H 188.08 c 0.62959,-3.62566 1.18911,-7.15126 0.20521,-8.45021 h -12.44168 v -6.78597 h 11.75613 c 0.53079,-2.77246 1.55351,-5.50405 0,-8.45022 h -11.75613 v -7.98018 h 11.89378 c 0.52133,-2.8222 1.01835,-5.55549 0.75306,-8.45031 h -12.64684 v -8.58011 h 12.71692 c 0.33421,-2.78646 0.91864,-5.54142 0.2729,-8.4503 h -12.9896 v -10.0448 h 5.93124 c -3.47013,-3.93927 -8.35352,-7.80358 -13.70376,-10.92512 v 3.13963 h -8.29966 v -7.20117 c -2.63065,-1.04371 -5.25291,-1.83866 -7.77251,-2.33461 v 9.53578 h -8.29971 v -10.01879 z m 60.97762,8.71514 c -0.26013,0.008 -0.5123,0.083 -0.72701,0.23375 -5.35874,1.91577 -11.02037,4.95249 -17.61997,7.00122 -0.99085,0.34826 -1.28615,1.43685 -1.06212,2.46444 1.13483,5.20271 2.64116,4.61299 2.9423,6.7026 0.15028,1.04095 1.60258,1.66931 2.46179,1.06472 4.99319,-3.51369 9.89468,-6.37407 17.6173,-6.99865 1.04652,-0.0848 1.39235,-1.46515 1.06475,-2.46442 -0.98229,-2.99508 -2.47747,-3.22197 -2.94481,-6.70261 -0.10515,-0.7818 -0.95214,-1.33088 -1.73223,-1.30105 z m -114.691734,0.10389 c -0.78005,-0.0298 -1.62967,0.51924 -1.73471,1.30104 -0.46738,3.48064 -1.86387,3.32056 -2.846195,6.31565 -0.327827,0.99931 0.05448,2.16943 1.062105,2.46447 6.77341,1.98283 12.636193,3.33385 17.861474,6.51558 0.89735,0.54637 2.30925,-0.0298 2.45924,-1.0673 0.30143,-2.0896 1.4724,-0.62738 2.60722,-5.83005 0.22395,-1.02753 -0.0731,-2.11604 -1.06462,-2.46443 -5.59353,-3.35905 -11.447424,-6.14187 -17.617344,-7.00123 -0.21415,-0.15114 -0.46708,-0.22394 -0.72717,-0.23373 z m 37.641944,8.98525 h 8.29967 v 10.0448 h -8.29967 z m 16.07217,0 h 8.29967 v 10.0448 h -8.29967 z m 16.07219,0 h 8.29971 v 10.0448 h -8.29971 z m 49.95133,1.88793 c -0.26055,0.004 -0.51392,0.0724 -0.73237,0.21797 -6.1897,0.70308 -12.11487,3.33539 -17.7914,6.55199 -0.99917,0.32271 -1.22614,1.38904 -1.12442,2.43587 0.28695,2.94808 0.0426,4.40323 -0.31165,6.48445 -0.17626,1.03678 0.79897,0.99936 1.8205,0.7557 5.94869,-1.41906 12.05397,-0.41893 19.10796,-0.22053 1.04959,0.0298 1.77025,-0.96594 1.76586,-2.01778 -0.0171,-3.15244 -0.65403,-9.37111 -1.03349,-12.8624 -0.0851,-0.78423 -0.92038,-1.35532 -1.70099,-1.34522 z M 84.118435,363.8549 c -0.778727,0.0426 -1.573309,0.66433 -1.60749,1.45166 -0.152418,3.50867 -0.387009,8.98325 -0.197539,12.13008 0.06257,1.04993 0.850172,1.99624 1.89576,1.89831 7.02592,-0.65803 12.92391,-1.02813 18.952104,0 1.03524,0.17627 2.13938,-0.87525 1.89576,-1.89831 -0.48901,-2.05359 -0.82927,-2.71635 -0.73488,-5.67682 0.034,-1.05131 -0.26183,-2.10063 -1.28027,-2.35795 -5.873424,-2.83965 -11.956114,-5.08018 -18.178313,-5.3782 -0.226911,-0.13113 -0.48356,-0.18137 -0.742706,-0.16861 v 0 z m 9.904521,15.9709 c -3.18442,-0.0426 -6.2881,0.16945 -9.232007,0.74527 -1.021112,-0.24524 -1.668253,0.87154 -1.895724,1.89835 -0.712152,3.21294 -0.717476,5.99306 0,9.20601 0.229471,1.02652 0.853825,2.02749 1.895724,1.89572 7.038187,-0.89045 12.788987,-0.68039 18.954781,0 1.04376,0.11495 2.13937,-0.87257 1.89576,-1.89572 -0.48901,-2.05368 0.86,-3.95077 0,-9.20601 -0.1703,-1.038 -0.84643,-1.94033 -1.89576,-1.89835 -3.27228,-0.41979 -6.538364,-0.70627 -9.722774,-0.74527 z m 107.184244,0 c -3.1844,0.0426 -6.45048,0.32569 -9.72276,0.74527 -1.04921,-0.0426 -1.72585,0.86035 -1.89576,1.89835 -0.85989,5.25524 0.48901,7.586 0,9.63966 -0.24354,1.02308 0.84907,1.98369 1.89576,1.89832 6.23347,-0.50859 11.97752,-1.26982 18.95465,0 1.03308,0.18777 1.6665,-0.87184 1.89572,-1.89832 0.71747,-3.21292 0.71216,-6.42672 0,-9.63966 -0.22777,-1.02681 -0.87461,-2.14341 -1.89572,-1.89835 -2.94405,-0.57566 -6.04735,-0.78435 -9.23188,-0.74527 z m -73.58046,0.0298 h 8.29967 v 8.5801 h -8.29967 z m 16.07217,0 h 8.29967 v 8.5801 h -8.29967 z m 16.07219,0 h 8.29971 v 8.5801 h -8.29971 z m 41.33214,14.21796 c -3.18445,0.0426 -6.45049,0.32867 -9.72278,0.74791 -1.04921,-0.0426 -1.52322,0.91488 -1.89562,1.89832 -1.84085,4.86232 0.16987,6.81137 0,8.99291 -0.0809,1.04862 0.8488,1.81581 1.89562,1.8984 6.33239,0.50026 12.14982,1.28916 18.95479,0 1.03175,-0.19585 1.6665,-0.87192 1.89573,-1.8984 0.71746,-3.21268 0.71213,-5.77994 0,-8.99291 -0.22779,-1.02678 -0.87462,-2.14347 -1.89573,-1.89832 -2.94404,-0.57574 -6.0476,-0.78699 -9.23201,-0.74791 z m -106.784314,0.24395 c -3.18415,-0.0426 -6.3506,0.0902 -9.423968,0.50378 -1.021165,-0.24522 -1.668297,0.87155 -1.895769,1.89832 -0.712143,3.21315 -0.717467,6.42669 0,9.63979 0.229054,1.02648 0.849195,1.8107 1.895769,1.8984 6.805178,0.57051 12.619838,0.38744 18.952102,0 1.04814,-0.0638 1.9798,-0.84978 1.89826,-1.8984 -0.16986,-2.18152 1.84085,-4.77729 0,-9.63979 -0.37167,-0.98347 -0.84892,-1.94046 -1.89826,-1.89832 -3.14402,-0.25927 -6.343964,-0.46516 -9.528134,-0.50378 z m 33.307814,2.56832 h 8.29967 v 7.98048 h -8.29967 z m 16.07217,0 h 8.29967 v 7.98048 h -8.29967 z m 16.07219,0 h 8.29971 v 7.98048 h -8.29971 z m 50.94331,11.63935 c -0.12516,0 -0.25161,4.2e-4 -0.37933,0.0426 -6.72223,1.614 -12.52504,0.2597 -18.95478,0 -1.04917,-0.0426 -1.95822,0.84851 -1.8956,1.8984 0.28908,4.86245 0.52891,7.45567 0,9.63719 -0.24736,1.02222 0.84601,1.86988 1.8956,1.89841 5.62198,0.15327 11.78117,0.86128 18.95478,0 1.04257,-0.12347 1.71107,-0.86299 1.89576,-1.89841 0.5728,-3.21311 -0.37593,-6.42409 0,-9.63719 0.10644,-0.91408 -0.64339,-1.86903 -1.51655,-1.92948 v 0 z m -126.201359,0.5739 v 0 c -0.873155,0.0596 -1.620768,1.01796 -1.513862,1.93204 0.375935,3.21268 -0.572932,5.84251 0,9.0552 0.184777,1.03542 0.84668,1.85157 1.895715,1.8984 7.173662,0.32357 13.330302,-0.9426 18.952156,0 1.03575,0.17456 2.1461,-0.87618 1.89826,-1.8984 -0.52889,-2.18153 -0.28949,-4.19318 0,-9.0552 0.0626,-1.04988 -0.84892,-1.94311 -1.89826,-1.90095 -6.429714,0.25544 -12.229874,1.61357 -18.952156,0 -0.12772,-0.0426 -0.25672,-0.0426 -0.381889,-0.0426 z m 43.113689,4.21744 h 8.29967 v 6.78555 h -8.29967 z m 16.07217,0 h 8.29967 v 6.78555 h -8.29967 z m 16.07219,0 h 8.29971 v 6.78555 h -8.29971 z m -60.730981,9.18506 v 0.003 c -4.710293,0 -9.199953,0.7391 -14.145215,0.30229 -1.045969,-0.0937 -1.742702,0.86042 -1.895715,1.90095 -0.472709,3.21311 -1.37401,6.42409 0,9.6372 0.413395,0.96687 0.846004,1.59058 1.895715,1.56078 7.173662,-0.20435 14.961595,-0.8451 19.435076,0.0979 1.0275,0.21713 1.87754,-0.84681 1.89841,-1.89799 0.0451,-2.18195 0.518,-4.53334 -0.48307,-9.3958 -0.21244,-1.02987 -0.85812,-1.75662 -1.89826,-1.90095 -1.64394,-0.2299 -3.23695,-0.30654 -4.806941,-0.30228 z m 92.340301,0.30227 c -1.04823,-0.0638 -1.68352,0.87066 -1.89558,1.90097 -1.00107,4.86202 -0.0451,7.45524 0,9.63719 0.0212,1.05159 0.84812,1.97206 1.89558,1.89797 5.62186,-0.39594 11.78117,-0.20435 18.95478,0 1.0496,0.0426 1.48242,-0.9311 1.89578,-1.89797 1.37401,-3.21311 0.4727,-6.42408 0,-9.63719 -0.15328,-1.04053 -0.85321,-2.02613 -1.89578,-1.90097 -6.59366,0.79148 -12.37891,0.3917 -18.95478,0 z m -63.75368,5.74674 h 8.29967 v 7.67407 h -8.29967 z m 16.07217,0 h 8.29967 v 7.67407 h -8.29967 z m 16.07219,0 h 8.29971 v 7.67407 h -8.29971 z m -60.730981,7.82478 c -4.710293,0 -9.199953,0.74166 -14.145215,0.30229 -1.045969,-0.0937 -1.742702,0.85787 -1.895715,1.8984 -0.472709,3.21311 -1.37401,5.84506 0,9.05818 0.413395,0.96687 0.858393,1.73491 1.895715,1.89797 7.173662,1.12994 13.330302,0.1405 18.952156,0 1.04972,-0.0426 1.87741,-0.84639 1.89826,-1.89797 0.0451,-2.18195 1.00107,-4.19574 0,-9.05818 -0.21244,-1.02989 -0.85812,-1.75365 -1.89826,-1.8984 -1.64394,-0.22991 -3.23695,-0.30653 -4.806941,-0.30229 z m 92.340301,0.30229 c -1.04665,-0.0852 -1.68352,0.86851 -1.89558,1.8984 -1.00107,4.86244 -0.0451,7.45822 0,9.63976 0.0212,1.05158 0.84587,1.87199 1.89558,1.89839 5.62186,0.1405 11.78117,1.12993 18.95478,0 1.03726,-0.16178 1.48242,-0.93153 1.89578,-1.89839 1.37401,-3.21312 0.4727,-6.42665 0,-9.63976 -0.15328,-1.04053 -0.85253,-2.01846 -1.89578,-1.8984 -3.27812,0.37891 -6.18264,0.17029 -9.26309,0.14475 -3.12727,-0.0426 -6.43068,0.1192 -9.69169,-0.14475 z m -63.75368,7.33135 h 8.29967 v 10.1847 l 3.73954,11.74593 c -5.14694,-0.11922 -10.31312,-0.3619 -15.49819,-0.78168 -0.0127,-8.6e-4 -0.0171,-8.9e-4 -0.0298,-0.002 l 3.48755,-10.9617 v -10.18512 z m 16.07217,0 h 8.29967 v 10.1847 l 3.75258,11.78722 c -5.23587,0.0723 -10.499,0.0851 -15.78911,-0.0426 l 3.73686,-11.75103 v -10.1847 z m 16.07219,0 h 8.29971 v 10.1847 l 3.64086,11.44704 c -5.20569,0.1405 -10.41287,0.25971 -15.68796,0.33635 l 3.74739,-11.78211 v -10.18473 z m -75.250202,6.52584 v 0.002 c -0.830211,0.0894 -1.387857,1.00093 -1.521709,1.91117 -0.472709,3.21311 -1.37401,6.42664 0,9.63975 0.413395,0.96687 0.872355,1.66296 1.895715,1.89841 5.495592,1.26617 12.048292,0.11495 18.952156,0 1.04998,0 1.87741,-0.84682 1.89826,-1.89841 0.0451,-2.18152 1.00107,-4.7773 0,-9.63975 -0.21244,-1.02988 -0.85493,-2.01506 -1.89826,-1.89542 -6.041774,0.69184 -12.145574,1.22316 -18.952156,0 -0.129,-0.0426 -0.255449,-0.0426 -0.374228,0 z m 126.185682,0.38742 c -0.11836,0 -0.24267,0 -0.37125,0 -6.80653,1.22318 -12.91301,0.69184 -18.95478,0 -1.04334,-0.11921 -1.68357,0.86811 -1.89563,1.89798 -1.00106,4.86245 -0.0452,7.45823 0,9.63976 0.0212,1.05158 0.856,2.04656 1.89563,1.8984 6.31803,-0.90088 12.63675,-0.16179 18.95478,0 1.04972,0.0426 1.48237,-0.93154 1.89577,-1.8984 1.374,-3.21269 0.47266,-6.42665 0,-9.63976 -0.13368,-0.91024 -0.69436,-1.82431 -1.52444,-1.91372 v -0.002 z"
       id="path15171"
       inkscape:connector-curvature="0" />
    <path
       inkscape:connector-curvature="0"
       id="path5105"
       d="m 973.66292,320.73084 c -2.22043,0.0601 -5.63556,1.00804 -5.27695,2.38916 1.15756,1.23423 1.86144,2.99347 2.68513,4.57571 1.83714,3.52854 3.24917,7.50327 4.38105,12.21062 1.0439,0.73513 1.4206,0.62555 2.95269,0.28056 1.02285,-0.2299 1.90492,-0.36443 2.22802,-1.16079 0.45938,-1.29951 0.766,-2.57462 1.12712,-3.88494 0.40063,-1.45345 0.86716,-2.9456 1.68025,-4.4433 1.67714,-3.08884 3.3906,-5.65141 4.31085,-8.06598 0.33932,-0.99535 -2.30053,-1.41028 -3.36566,-1.41526 -2.28042,-0.0127 -5.18243,0.0677 -9.43717,-0.3819 -0.32357,-0.0864 -0.77303,-0.11793 -1.28533,-0.10388 z m -7.90505,1.37115 c -0.25843,-0.0256 -0.51443,0.0213 -0.74526,0.14561 -3.0827,1.67327 -6.10622,0.40574 -8.39832,2.56572 -0.76481,0.72075 -0.97079,1.91765 -0.24139,2.67484 4.43474,4.6064 4.70836,6.1015 8.70225,13.53498 2.92593,2.06589 6.18163,0.48276 7.08429,0.0987 0.96078,-0.42403 1.66654,-1.30419 1.36341,-2.3112 -0.58782,-6.50605 -3.25781,-9.69791 -6.20142,-15.19705 -0.0128,-0.78866 -0.7858,-1.44231 -1.5607,-1.50877 v -0.003 z m 23.98493,0.72974 c -0.77489,0.0664 -1.54686,0.72265 -1.56069,1.5114 -2.94362,5.49911 -5.61347,8.69101 -6.20143,15.19701 -0.30313,1.00702 0.39978,1.88691 1.36086,2.31125 4.86479,2.14827 3.20927,0.65216 5.36257,0.99978 1.03686,0.16732 1.772,-0.17243 2.26966,-1.09846 3.99388,-7.43354 4.26737,-8.92863 8.70216,-13.53503 0.72887,-0.75711 0.52307,-1.95405 -0.24139,-2.6748 -2.29213,-2.16015 -5.86121,-0.89241 -8.94373,-2.56572 -0.23034,-0.1256 -0.4897,-0.16775 -0.74792,-0.1456 z m -36.76421,3.45906 c -0.25801,0.0255 -0.50579,0.10984 -0.71147,0.27248 -2.74964,2.17914 -6.48505,1.54146 -8.37243,4.06413 -0.62972,0.84165 -0.64607,2.08339 0.22053,2.67739 5.34917,3.66563 6.66069,4.64375 10.89656,11.83664 3.23678,1.53133 6.71304,-0.68127 7.53622,-1.21534 0.87367,-0.58343 1.41658,-1.5739 0.94521,-2.51381 -1.69549,-6.30795 -4.87421,-8.9933 -8.71772,-13.90378 -0.14858,-0.77455 -1.02218,-1.28575 -1.79708,-1.21792 z m 49.38001,1.30368 c -0.7759,-0.0567 -1.6413,0.46717 -1.7789,1.2439 -3.77133,4.96629 -6.90946,7.6989 -8.5127,14.03102 -0.45768,0.94665 0.0983,1.92757 0.98164,2.49819 0.83102,0.52197 4.33772,2.6823 7.55176,1.10368 5.1125,-6.71101 5.6192,-8.14287 10.7227,-11.99248 0.8388,-0.63274 0.8236,-1.8476 0.1817,-2.67998 -1.924,-2.49479 -5.6484,-1.80347 -8.4295,-3.94208 -0.2078,-0.1605 -0.4582,-0.24352 -0.7167,-0.26225 z m -61.21406,4.92366 c -0.39637,0.0128 -0.77903,0.15839 -1.03869,0.45449 -2.31206,2.64018 -6.10027,2.69085 -7.50246,5.51321 -0.46777,0.9417 -0.25374,2.14891 0.69856,2.59169 5.86333,2.72562 8.19852,3.39847 13.33242,9.57732 3.45948,0.92154 5.99677,-1.78783 6.7104,-2.46183 0.7543,-0.73177 1.10809,-1.80176 0.47518,-2.64107 -2.80346,-5.89812 -6.4111,-7.96601 -11.07575,-12.10151 -0.238,-0.61248 -0.93886,-0.95499 -1.59966,-0.9323 z m 72.89746,1.75293 c -0.6607,-0.0256 -1.3614,0.31973 -1.5997,0.93226 -4.6647,4.13553 -8.2721,6.20074 -11.0758,12.09895 -0.6328,0.83935 -0.2793,1.91193 0.4753,2.64363 0.7134,0.67404 3.7339,3.47945 7.1934,2.55796 6.3194,-5.58515 7.0951,-7.98895 12.8493,-10.76933 0.9458,-0.45704 1.1665,-1.65007 0.6986,-2.5917 -1.4021,-2.82235 -5.1904,-1.77718 -7.5024,-4.41732 -0.2601,-0.29632 -0.6421,-0.44082 -1.0387,-0.45445 z m -82.9968,6.78568 c -0.66106,-0.0456 -1.37014,0.2712 -1.62303,0.87777 -1.3509,3.24085 -4.17951,4.24609 -5.36257,7.16744 -0.39468,0.97465 -0.0916,2.16891 0.89334,2.53195 1.79988,0.66272 10.20463,4.00473 11.86784,4.91852 1.74246,0.95733 1.12406,1.08909 4.07193,2.3112 0.95534,0.39637 1.80295,0.35593 2.33198,-0.12474 1.79883,-1.63329 3.10599,-3.18825 4.12127,-4.70816 0.48199,-0.93452 -0.36146,-1.7361 -1.22828,-2.32943 -4.53479,-4.69432 -8.30647,-7.72956 -14.04401,-10.15904 -0.25289,-0.3027 -0.63171,-0.45852 -1.02847,-0.4856 z m 95.4981,0.10387 c -0.3968,0.0298 -0.7758,0.18307 -1.0283,0.48561 -5.7377,2.42966 -10.6775,6.63301 -15.2126,11.32767 -1.8159,1.33352 2.1522,7.67003 5.6146,7.3778 4.9975,-3.52981 10.4798,-5.74137 17.103,-8.18025 0.9857,-0.36316 1.2881,-1.55725 0.8934,-2.53196 -1.1831,-2.9213 -4.3961,-4.36287 -5.747,-7.6037 -0.2529,-0.60664 -0.9619,-0.92033 -1.623,-0.87517 z m -51.41582,2.39697 c -2.69102,0.16007 -5.29104,0.53192 -7.7725,1.10884 v 8.90995 h -8.29967 v -6.06114 c -2.84565,1.32176 -5.45407,2.92849 -7.77251,4.77828 v 1.28286 h -1.50872 c -2.58344,2.30792 -4.75308,4.92941 -6.42732,7.78549 h 7.93604 v 10.0448 h -14.99709 c -0.32145,2.70362 0.69116,5.61599 1.20503,8.4503 h 13.79206 v 8.58011 h -13.4441 c -0.55909,2.98406 -0.11963,5.71913 0.33251,8.4503 h 13.11171 v 7.98024 h -12.16127 c -0.55049,2.92657 -0.35507,5.70456 0,8.4502 h 12.16127 v 6.78555 H 938.984 c -0.61784,2.81674 0.76669,5.6339 1.16608,8.45064 h 11.13284 v 7.67365 h -11.23417 c 0,0 -1.78761,0.63607 -1.84641,0.95836 l 0.41297,6.82727 h 12.66757 v 10.1847 l 3.47217,10.90975 c -16.29344,-1.18698 -32.72636,1.52205 -49.77209,-0.82339 -0.10388,0 -0.20776,-0.0426 -0.3091,-0.0426 -1.52675,0 -2.73192,1.48927 -2.73192,3.07218 v 2.66475 c 0,1.68851 1.36162,2.90146 3.04106,3.04834 9.7346,0.85278 19.28998,1.56164 28.72422,1.71662 27.9411,0.54409 61.98429,0.42149 93.91658,-0.12347 9.9859,-0.20861 15.9681,-1.38027 26.1145,-1.59186 1.6853,-0.0426 3.0435,-1.36027 3.0435,-3.04878 v -2.66474 c 0,-1.68851 -1.3616,-3.15989 -3.0435,-3.04877 -6.359,0.42149 -12.7341,1.21849 -19.1366,1.05201 -10.1138,-0.26395 -20.4859,0 -30.9706,0.29377 l 3.6409,-11.43384 v -10.18513 h 11.499 l -0.3351,-5.51343 c 0,-0.73653 -0.1051,-1.49436 -0.2984,-2.2722 h -10.8654 v -7.67365 h 12.2365 c 0.6296,-3.62566 1.1891,-7.15126 0.2052,-8.45021 h -12.4417 v -6.78597 h 11.7561 c 0.5308,-2.77246 1.5535,-5.50405 0,-8.45022 h -11.7561 v -7.98018 h 11.8938 c 0.5213,-2.8222 1.0183,-5.55549 0.753,-8.45031 h -12.6468 v -8.58011 h 12.7169 c 0.3342,-2.78646 0.9187,-5.54142 0.2729,-8.4503 h -12.9896 v -10.0448 h 5.9313 c -3.4702,-3.93927 -8.3536,-7.80358 -13.7038,-10.92512 v 3.13963 h -8.29966 v -7.20117 c -2.63065,-1.04371 -5.25291,-1.83866 -7.77251,-2.33461 v 9.53578 h -8.29971 v -10.01879 z m 60.97762,8.71514 c -0.2601,0.008 -0.5123,0.083 -0.727,0.23375 -5.3587,1.91577 -11.0204,4.95249 -17.62,7.00122 -0.9908,0.34826 -1.2861,1.43685 -1.0621,2.46444 1.1348,5.20271 2.6412,4.61299 2.9423,6.7026 0.1503,1.04095 1.6026,1.66931 2.4618,1.06472 4.9932,-3.51369 9.8947,-6.37407 17.6173,-6.99865 1.0465,-0.0848 1.3923,-1.46515 1.0647,-2.46442 -0.9822,-2.99508 -2.4774,-3.22197 -2.9448,-6.70261 -0.1051,-0.7818 -0.9521,-1.33088 -1.7322,-1.30105 z m -114.69173,0.10389 c -0.78005,-0.0298 -1.62967,0.51924 -1.73471,1.30104 -0.46738,3.48064 -1.86387,3.32056 -2.8462,6.31565 -0.32782,0.99931 0.0545,2.16943 1.06211,2.46447 6.77341,1.98283 12.63619,3.33385 17.86147,6.51558 0.89735,0.54637 2.30925,-0.0298 2.45924,-1.0673 0.30143,-2.0896 1.4724,-0.62738 2.60722,-5.83005 0.22395,-1.02753 -0.0731,-2.11604 -1.06462,-2.46443 -5.59353,-3.35905 -11.44742,-6.14187 -17.61734,-7.00123 -0.21415,-0.15114 -0.46708,-0.22394 -0.72717,-0.23373 z m 37.64194,8.98525 h 8.29967 v 10.0448 h -8.29967 z m 16.07217,0 h 8.29967 v 10.0448 h -8.29967 z m 16.07219,0 h 8.29971 v 10.0448 h -8.29971 z m 49.95133,1.88793 c -0.2605,0.004 -0.5139,0.0724 -0.7324,0.21797 -6.1897,0.70308 -12.1148,3.33539 -17.7914,6.55199 -0.9991,0.32271 -1.2261,1.38904 -1.1244,2.43587 0.287,2.94808 0.043,4.40323 -0.3116,6.48445 -0.1763,1.03678 0.7989,0.99936 1.8205,0.7557 5.9487,-1.41906 12.0539,-0.41893 19.1079,-0.22053 1.0496,0.0298 1.7703,-0.96594 1.7659,-2.01778 -0.017,-3.15244 -0.654,-9.37111 -1.0335,-12.8624 -0.085,-0.78423 -0.9204,-1.35532 -1.701,-1.34522 z m -125.60399,0.60511 c -0.77873,0.0426 -1.57331,0.66433 -1.60749,1.45166 -0.15242,3.50867 -0.38701,8.98325 -0.19754,12.13008 0.0626,1.04993 0.85017,1.99624 1.89576,1.89831 7.02592,-0.65803 12.92391,-1.02813 18.9521,0 1.03524,0.17627 2.13938,-0.87525 1.89576,-1.89831 -0.48901,-2.05359 -0.82927,-2.71635 -0.73488,-5.67682 0.034,-1.05131 -0.26183,-2.10063 -1.28027,-2.35795 -5.87342,-2.83965 -11.95611,-5.08018 -18.17831,-5.3782 -0.22691,-0.13113 -0.48356,-0.18137 -0.74271,-0.16861 v 0 z m 9.90452,15.9709 c -3.18442,-0.0426 -6.2881,0.16945 -9.23201,0.74527 -1.02111,-0.24524 -1.66825,0.87154 -1.89572,1.89835 -0.71216,3.21294 -0.71748,5.99306 0,9.20601 0.22947,1.02652 0.85382,2.02749 1.89572,1.89572 7.03819,-0.89045 12.78899,-0.68039 18.95478,0 1.04376,0.11495 2.13937,-0.87257 1.89576,-1.89572 -0.48901,-2.05368 0.86,-3.95077 0,-9.20601 -0.1703,-1.038 -0.84643,-1.94033 -1.89576,-1.89835 -3.27228,-0.41979 -6.53836,-0.70627 -9.72277,-0.74527 z m 107.18427,0 c -3.1844,0.0426 -6.4505,0.32569 -9.7228,0.74527 -1.0492,-0.0426 -1.7258,0.86035 -1.8957,1.89835 -0.8599,5.25524 0.489,7.586 0,9.63966 -0.2436,1.02308 0.849,1.98369 1.8957,1.89832 6.2335,-0.50859 11.9775,-1.26982 18.9547,0 1.033,0.18777 1.6665,-0.87184 1.8957,-1.89832 0.7175,-3.21292 0.7121,-6.42672 0,-9.63966 -0.2278,-1.02681 -0.8746,-2.14341 -1.8957,-1.89835 -2.9441,-0.57566 -6.0474,-0.78435 -9.2319,-0.74527 z m -73.58049,0.0298 h 8.29967 v 8.5801 h -8.29967 z m 16.07217,0 h 8.29967 v 8.5801 h -8.29967 z m 16.07219,0 h 8.29971 v 8.5801 h -8.29971 z m 41.33213,14.21796 c -3.1844,0.0426 -6.4505,0.32867 -9.7228,0.74791 -1.0492,-0.0426 -1.5232,0.91488 -1.8956,1.89832 -1.8408,4.86232 0.1699,6.81137 0,8.99291 -0.081,1.04862 0.8488,1.81581 1.8956,1.8984 6.3324,0.50026 12.1499,1.28916 18.9548,0 1.0318,-0.19585 1.6665,-0.87192 1.8958,-1.8984 0.7174,-3.21268 0.7121,-5.77994 0,-8.99291 -0.2278,-1.02678 -0.8747,-2.14347 -1.8958,-1.89832 -2.944,-0.57574 -6.0476,-0.78699 -9.232,-0.74791 z m -106.7843,0.24395 c -3.18415,-0.0426 -6.3506,0.0902 -9.42397,0.50378 -1.02117,-0.24522 -1.6683,0.87155 -1.89577,1.89832 -0.71214,3.21315 -0.71747,6.42669 0,9.63979 0.22905,1.02648 0.8492,1.8107 1.89577,1.8984 6.80518,0.57051 12.61984,0.38744 18.9521,0 1.04814,-0.0638 1.9798,-0.84978 1.89826,-1.8984 -0.16986,-2.18152 1.84085,-4.77729 0,-9.63979 -0.37167,-0.98347 -0.84892,-1.94046 -1.89826,-1.89832 -3.14402,-0.25927 -6.34396,-0.46516 -9.52813,-0.50378 z m 33.30781,2.56832 h 8.29967 v 7.98048 h -8.29967 z m 16.07217,0 h 8.29967 v 7.98048 h -8.29967 z m 16.07219,0 h 8.29971 v 7.98048 h -8.29971 z m 50.94333,11.63935 c -0.1252,0 -0.2516,4.2e-4 -0.3793,0.0426 -6.7223,1.614 -12.5251,0.2597 -18.9548,0 -1.0492,-0.0426 -1.9582,0.84851 -1.8956,1.8984 0.2891,4.86245 0.5289,7.45567 0,9.63719 -0.2474,1.02222 0.846,1.86988 1.8956,1.89841 5.622,0.15327 11.7811,0.86128 18.9548,0 1.0425,-0.12347 1.711,-0.86299 1.8957,-1.89841 0.5728,-3.21311 -0.3759,-6.42409 0,-9.63719 0.1065,-0.91408 -0.6434,-1.86903 -1.5165,-1.92948 v 0 z m -126.20138,0.5739 v 0 c -0.87315,0.0596 -1.62077,1.01796 -1.51386,1.93204 0.37594,3.21268 -0.57293,5.84251 0,9.0552 0.18478,1.03542 0.84668,1.85157 1.89572,1.8984 7.17366,0.32357 13.3303,-0.9426 18.95215,0 1.03575,0.17456 2.1461,-0.87618 1.89826,-1.8984 -0.52889,-2.18153 -0.28949,-4.19318 0,-9.0552 0.0626,-1.04988 -0.84892,-1.94311 -1.89826,-1.90095 -6.42971,0.25544 -12.22987,1.61357 -18.95215,0 -0.12772,-0.0426 -0.25672,-0.0426 -0.38189,-0.0426 z m 43.11369,4.21744 h 8.29967 v 6.78555 h -8.29967 z m 16.07217,0 h 8.29967 v 6.78555 h -8.29967 z m 16.07219,0 h 8.29971 v 6.78555 h -8.29971 z m -60.73098,9.18506 v 0.003 c -4.71029,0 -9.19995,0.7391 -14.14521,0.30229 -1.04597,-0.0937 -1.74271,0.86042 -1.89572,1.90095 -0.47271,3.21311 -1.37401,6.42409 0,9.6372 0.4134,0.96687 0.846,1.59058 1.89572,1.56078 7.17366,-0.20435 14.96159,-0.8451 19.43507,0.0979 1.0275,0.21713 1.87754,-0.84681 1.89841,-1.89799 0.0451,-2.18195 0.518,-4.53334 -0.48307,-9.3958 -0.21244,-1.02987 -0.85812,-1.75662 -1.89826,-1.90095 -1.64394,-0.2299 -3.23695,-0.30654 -4.80694,-0.30228 z m 92.34031,0.30227 c -1.0482,-0.0638 -1.6835,0.87066 -1.8956,1.90097 -1.0011,4.86202 -0.045,7.45524 0,9.63719 0.021,1.05159 0.8481,1.97206 1.8956,1.89797 5.6219,-0.39594 11.7812,-0.20435 18.9548,0 1.0496,0.0426 1.4824,-0.9311 1.8958,-1.89797 1.374,-3.21311 0.4727,-6.42408 0,-9.63719 -0.1533,-1.04053 -0.8533,-2.02613 -1.8958,-1.90097 -6.5937,0.79148 -12.3789,0.3917 -18.9548,0 z m -63.75369,5.74674 h 8.29967 v 7.67407 h -8.29967 z m 16.07217,0 h 8.29967 v 7.67407 h -8.29967 z m 16.07219,0 h 8.29971 v 7.67407 h -8.29971 z m -60.73098,7.82478 c -4.71029,0 -9.19995,0.74166 -14.14521,0.30229 -1.04597,-0.0937 -1.74271,0.85787 -1.89572,1.8984 -0.47271,3.21311 -1.37401,5.84506 0,9.05818 0.4134,0.96687 0.85839,1.73491 1.89572,1.89797 7.17366,1.12994 13.3303,0.1405 18.95215,0 1.04972,-0.0426 1.87741,-0.84639 1.89826,-1.89797 0.0451,-2.18195 1.00107,-4.19574 0,-9.05818 -0.21244,-1.02989 -0.85812,-1.75365 -1.89826,-1.8984 -1.64394,-0.22991 -3.23695,-0.30653 -4.80694,-0.30229 z m 92.34031,0.30229 c -1.0467,-0.0852 -1.6835,0.86851 -1.8956,1.8984 -1.0011,4.86244 -0.045,7.45822 0,9.63976 0.021,1.05158 0.8459,1.87199 1.8956,1.89839 5.6219,0.1405 11.7812,1.12993 18.9548,0 1.0372,-0.16178 1.4824,-0.93153 1.8958,-1.89839 1.374,-3.21312 0.4727,-6.42665 0,-9.63976 -0.1533,-1.04053 -0.8526,-2.01846 -1.8958,-1.8984 -3.2781,0.37891 -6.1827,0.17029 -9.2631,0.14475 -3.1273,-0.0426 -6.4307,0.1192 -9.6917,-0.14475 z m -63.75369,7.33135 h 8.29967 v 10.1847 l 3.73954,11.74593 c -5.14694,-0.11922 -10.31312,-0.3619 -15.49819,-0.78168 -0.0127,-8.6e-4 -0.0171,-8.9e-4 -0.0298,-0.002 l 3.48755,-10.9617 v -10.18512 z m 16.07217,0 h 8.29967 v 10.1847 l 3.75258,11.78722 c -5.23587,0.0723 -10.499,0.0851 -15.78911,-0.0426 l 3.73686,-11.75103 v -10.1847 z m 16.07219,0 h 8.29971 v 10.1847 l 3.64082,11.44704 c -5.20565,0.1405 -10.41283,0.25971 -15.68792,0.33635 l 3.74739,-11.78211 v -10.18473 z m -75.2502,6.52584 v 0.002 c -0.83021,0.0894 -1.38786,1.00093 -1.52171,1.91117 -0.47271,3.21311 -1.37401,6.42664 0,9.63975 0.4134,0.96687 0.87236,1.66296 1.89572,1.89841 5.49559,1.26617 12.04829,0.11495 18.95215,0 1.04998,0 1.87741,-0.84682 1.89826,-1.89841 0.0451,-2.18152 1.00107,-4.7773 0,-9.63975 -0.21244,-1.02988 -0.85493,-2.01506 -1.89826,-1.89542 -6.04177,0.69184 -12.14557,1.22316 -18.95215,0 -0.129,-0.0426 -0.25545,-0.0426 -0.37423,0 z m 126.18573,0.38742 c -0.1184,0 -0.2427,0 -0.3713,0 -6.8065,1.22318 -12.913,0.69184 -18.9548,0 -1.0433,-0.11921 -1.6835,0.86811 -1.8956,1.89798 -1.0011,4.86245 -0.045,7.45823 0,9.63976 0.021,1.05158 0.856,2.04656 1.8956,1.8984 6.3181,-0.90088 12.6368,-0.16179 18.9548,0 1.0497,0.0426 1.4824,-0.93154 1.8958,-1.8984 1.374,-3.21269 0.4726,-6.42665 0,-9.63976 -0.1337,-0.91024 -0.6944,-1.82431 -1.5245,-1.91372 v -0.002 z"
       style="fill:#000000;fill-opacity:1;stroke:none;stroke-width:10;stroke-linecap:round;stroke-linejoin:round;stroke-miterlimit:4;stroke-dasharray:none;stroke-dashoffset:0;stroke-opacity:1" />
    <path
       inkscape:connector-curvature="0"
       id="path5129"
       d="m 142.23435,486.44513 c -2.22043,0.0601 -5.63556,1.00804 -5.27695,2.38916 1.15756,1.23423 1.86144,2.99347 2.68513,4.57571 1.83714,3.52854 3.24917,7.50327 4.38105,12.21062 1.0439,0.73513 1.4206,0.62555 2.95269,0.28056 1.02285,-0.2299 1.90492,-0.36443 2.22802,-1.16079 0.45938,-1.29951 0.766,-2.57462 1.12712,-3.88494 0.40063,-1.45345 0.86716,-2.9456 1.68025,-4.4433 1.67714,-3.08884 3.3906,-5.65141 4.31085,-8.06598 0.33932,-0.99535 -2.30053,-1.41028 -3.36566,-1.41526 -2.28042,-0.0127 -5.18243,0.0677 -9.43717,-0.3819 -0.32357,-0.0864 -0.77303,-0.11793 -1.28533,-0.10388 z m -7.90505,1.37115 c -0.25843,-0.0256 -0.51443,0.0213 -0.74526,0.14561 -3.0827,1.67327 -6.10622,0.40574 -8.39832,2.56572 -0.76481,0.72075 -0.97079,1.91765 -0.24139,2.67484 4.43474,4.6064 4.70836,6.1015 8.70225,13.53498 2.92593,2.06589 6.18163,0.48276 7.08429,0.0987 0.96078,-0.42403 1.66654,-1.30419 1.36341,-2.3112 -0.58782,-6.50605 -3.25781,-9.69791 -6.20142,-15.19705 -0.0128,-0.78866 -0.7858,-1.44231 -1.5607,-1.50877 v -0.003 z m 23.98493,0.72974 c -0.77489,0.0664 -1.54686,0.72265 -1.56069,1.5114 -2.94362,5.49911 -5.61347,8.69101 -6.20143,15.19701 -0.30313,1.00702 0.39978,1.88691 1.36086,2.31125 4.86479,2.14827 3.20927,0.65216 5.36257,0.99978 1.03686,0.16732 1.772,-0.17243 2.26966,-1.09846 3.99388,-7.43354 4.26737,-8.92863 8.70216,-13.53503 0.72889,-0.75711 0.52308,-1.95405 -0.24139,-2.6748 -2.29213,-2.16015 -5.86121,-0.89241 -8.94373,-2.56572 -0.23034,-0.1256 -0.4897,-0.16775 -0.74792,-0.1456 z m -36.76421,3.45906 c -0.25801,0.0255 -0.50579,0.10984 -0.71147,0.27248 -2.74964,2.17914 -6.48505,1.54146 -8.37243,4.06413 -0.62972,0.84165 -0.64607,2.08339 0.22053,2.67739 5.34917,3.66563 6.66069,4.64375 10.89656,11.83664 3.23678,1.53133 6.71304,-0.68127 7.53622,-1.21534 0.87367,-0.58343 1.41658,-1.5739 0.94521,-2.51381 -1.69549,-6.30795 -4.87421,-8.9933 -8.71772,-13.90378 -0.14858,-0.77455 -1.02218,-1.28575 -1.79708,-1.21792 z m 49.37998,1.30368 c -0.77584,-0.0567 -1.6413,0.46717 -1.77889,1.2439 -3.77131,4.96629 -6.90944,7.6989 -8.51268,14.03102 -0.45768,0.94665 0.0983,1.92757 0.98164,2.49819 0.83102,0.52197 4.33772,2.6823 7.55176,1.10368 5.1125,-6.71101 5.61921,-8.14287 10.72265,-11.99248 0.83884,-0.63274 0.82368,-1.8476 0.18178,-2.67998 -1.92407,-2.49479 -5.64842,-1.80347 -8.42956,-3.94208 -0.20777,-0.1605 -0.45819,-0.24352 -0.71667,-0.26225 z m -61.21403,4.92366 c -0.39637,0.0128 -0.77903,0.15839 -1.03869,0.45449 -2.31206,2.64018 -6.10027,2.69085 -7.50246,5.51321 -0.46777,0.9417 -0.25374,2.14891 0.69856,2.59169 5.86333,2.72562 8.19852,3.39847 13.33242,9.57732 3.45948,0.92154 5.99677,-1.78783 6.7104,-2.46183 0.7543,-0.73177 1.10809,-1.80176 0.47518,-2.64107 -2.80346,-5.89812 -6.4111,-7.96601 -11.07575,-12.10151 -0.238,-0.61248 -0.93886,-0.95499 -1.59966,-0.9323 z m 72.89745,1.75293 c -0.66072,-0.0256 -1.36141,0.31973 -1.59966,0.93226 -4.6647,4.13553 -8.27218,6.20074 -11.0758,12.09895 -0.63286,0.83935 -0.27929,1.91193 0.47522,2.64363 0.71348,0.67404 3.73392,3.47945 7.19345,2.55796 6.31936,-5.58515 7.09506,-7.98895 12.84934,-10.76933 0.94574,-0.45704 1.16644,-1.65007 0.6986,-2.5917 -1.40212,-2.82235 -5.1904,-1.77718 -7.50246,-4.41732 -0.26013,-0.29632 -0.64208,-0.44082 -1.03869,-0.45445 z m -82.996791,6.78568 c -0.66106,-0.0456 -1.370143,0.2712 -1.623033,0.87777 -1.3509,3.24085 -4.17951,4.24609 -5.36257,7.16744 -0.39468,0.97465 -0.0916,2.16891 0.89334,2.53195 1.79988,0.66272 10.204634,4.00473 11.867844,4.91852 1.74246,0.95733 1.12406,1.08909 4.07193,2.3112 0.95534,0.39637 1.80295,0.35593 2.33198,-0.12474 1.79883,-1.63329 3.10599,-3.18825 4.12127,-4.70816 0.48199,-0.93452 -0.36146,-1.7361 -1.22828,-2.32943 -4.53479,-4.69432 -8.30647,-7.72956 -14.04401,-10.15904 -0.25289,-0.3027 -0.63171,-0.45852 -1.028471,-0.4856 z m 95.498141,0.10387 c -0.3968,0.0298 -0.7758,0.18307 -1.0283,0.48561 -5.73779,2.42966 -10.67755,6.63301 -15.21261,11.32767 -1.81597,1.33352 2.15212,7.67003 5.61455,7.3778 4.99749,-3.52981 10.47986,-5.74137 17.10303,-8.18025 0.98566,-0.36316 1.28813,-1.55725 0.89339,-2.53196 -1.18311,-2.9213 -4.39609,-4.36287 -5.74698,-7.6037 -0.25289,-0.60664 -0.96197,-0.92033 -1.62307,-0.87517 z m -51.41586,2.39697 c -2.69102,0.16007 -5.29104,0.53192 -7.7725,1.10884 v 8.90995 h -8.29967 v -6.06114 c -2.84565,1.32176 -5.45407,2.92849 -7.77251,4.77828 v 1.28286 h -1.50872 c -2.58344,2.30792 -4.75308,4.92941 -6.42732,7.78549 h 7.93604 v 10.0448 h -14.99709 c -0.32145,2.70362 0.69116,5.61599 1.20503,8.4503 h 13.79206 v 8.58011 h -13.4441 c -0.55909,2.98406 -0.11963,5.71913 0.33251,8.4503 h 13.11171 v 7.98024 h -12.16127 c -0.55049,2.92657 -0.35507,5.70456 0,8.4502 h 12.16127 v 6.78555 h -12.29892 c -0.61784,2.81674 0.76669,5.6339 1.16608,8.45064 h 11.13284 v 7.67365 h -11.23417 c 0,0 -1.78761,0.63607 -1.84641,0.95836 l 0.41297,6.82727 h 12.66757 v 10.1847 l 3.47217,10.90975 c -16.29344,-1.18698 -32.726364,1.52205 -49.772096,-0.82339 -0.103875,0 -0.207759,-0.0426 -0.309093,-0.0426 -1.526757,0 -2.731925,1.48927 -2.731925,3.07218 v 2.66475 c 0,1.68851 1.361621,2.90146 3.041063,3.04834 9.734603,0.85278 19.289977,1.56164 28.724221,1.71662 27.9411,0.54409 61.98429,0.42149 93.91659,-0.12347 9.98591,-0.20861 15.96808,-1.38027 26.11447,-1.59186 1.68527,-0.0426 3.04349,-1.36027 3.04349,-3.04878 v -2.66474 c 0,-1.68851 -1.36154,-3.15989 -3.04349,-3.04877 -6.359,0.42149 -12.73408,1.21849 -19.13654,1.05201 -10.11381,-0.26395 -20.48597,0 -30.97062,0.29377 l 3.6409,-11.43384 v -10.18513 h 11.49899 l -0.33507,-5.51343 c 0,-0.73653 -0.10516,-1.49436 -0.29845,-2.2722 h -10.86543 v -7.67365 H 188.08 c 0.62959,-3.62566 1.18911,-7.15126 0.20521,-8.45021 h -12.44168 v -6.78597 h 11.75613 c 0.53079,-2.77246 1.55351,-5.50405 0,-8.45022 h -11.75613 v -7.98018 h 11.89378 c 0.52133,-2.8222 1.01835,-5.55549 0.75306,-8.45031 h -12.64684 v -8.58011 h 12.71692 c 0.33421,-2.78646 0.91864,-5.54142 0.2729,-8.4503 h -12.9896 v -10.0448 h 5.93124 c -3.47013,-3.93927 -8.35352,-7.80358 -13.70376,-10.92512 v 3.13963 h -8.29966 v -7.20117 c -2.63065,-1.04371 -5.25291,-1.83866 -7.77251,-2.33461 v 9.53578 h -8.29971 v -10.01879 z m 60.97762,8.71514 c -0.26013,0.008 -0.5123,0.083 -0.72701,0.23375 -5.35874,1.91577 -11.02037,4.95249 -17.61997,7.00122 -0.99085,0.34826 -1.28615,1.43685 -1.06212,2.46444 1.13483,5.20271 2.64116,4.61299 2.9423,6.7026 0.15028,1.04095 1.60258,1.66931 2.46179,1.06472 4.99319,-3.51369 9.89468,-6.37407 17.6173,-6.99865 1.04652,-0.0848 1.39235,-1.46515 1.06475,-2.46442 -0.98229,-2.99508 -2.47747,-3.22197 -2.94481,-6.70261 -0.10515,-0.7818 -0.95214,-1.33088 -1.73223,-1.30105 z M 89.984796,518.0909 c -0.78005,-0.0298 -1.62967,0.51924 -1.73471,1.30104 -0.46738,3.48064 -1.86387,3.32056 -2.846195,6.31565 -0.327827,0.99931 0.05448,2.16943 1.062105,2.46447 6.77341,1.98283 12.636193,3.33385 17.861474,6.51558 0.89735,0.54637 2.30925,-0.0298 2.45924,-1.0673 0.30143,-2.0896 1.4724,-0.62738 2.60722,-5.83005 0.22395,-1.02753 -0.0731,-2.11604 -1.06462,-2.46443 -5.59353,-3.35905 -11.447424,-6.14187 -17.617344,-7.00123 -0.21415,-0.15114 -0.46708,-0.22394 -0.72717,-0.23373 z m 37.641944,8.98525 h 8.29967 v 10.0448 h -8.29967 z m 16.07217,0 h 8.29967 v 10.0448 h -8.29967 z m 16.07219,0 h 8.29971 v 10.0448 h -8.29971 z m 49.95133,1.88793 c -0.26055,0.004 -0.51392,0.0724 -0.73237,0.21797 -6.1897,0.70308 -12.11487,3.33539 -17.7914,6.55199 -0.99917,0.32271 -1.22614,1.38904 -1.12442,2.43587 0.28695,2.94808 0.0426,4.40323 -0.31165,6.48445 -0.17626,1.03678 0.79897,0.99936 1.8205,0.7557 5.94869,-1.41906 12.05397,-0.41893 19.10796,-0.22053 1.04959,0.0298 1.77025,-0.96594 1.76586,-2.01778 -0.0171,-3.15244 -0.65403,-9.37111 -1.03349,-12.8624 -0.0851,-0.78423 -0.92038,-1.35532 -1.70099,-1.34522 z m -125.603995,0.60511 c -0.778727,0.0426 -1.573309,0.66433 -1.60749,1.45166 -0.152418,3.50867 -0.387009,8.98325 -0.197539,12.13008 0.06257,1.04993 0.850172,1.99624 1.89576,1.89831 7.02592,-0.65803 12.92391,-1.02813 18.952104,0 1.03524,0.17627 2.13938,-0.87525 1.89576,-1.89831 -0.48901,-2.05359 -0.82927,-2.71635 -0.73488,-5.67682 0.034,-1.05131 -0.26183,-2.10063 -1.28027,-2.35795 -5.873424,-2.83965 -11.956114,-5.08018 -18.178313,-5.3782 -0.226911,-0.13113 -0.48356,-0.18137 -0.742706,-0.16861 v 0 z m 9.904521,15.9709 c -3.18442,-0.0426 -6.2881,0.16945 -9.232007,0.74527 -1.021112,-0.24524 -1.668253,0.87154 -1.895724,1.89835 -0.712152,3.21294 -0.717476,5.99306 0,9.20601 0.229471,1.02652 0.853825,2.02749 1.895724,1.89572 7.038187,-0.89045 12.788987,-0.68039 18.954781,0 1.04376,0.11495 2.13937,-0.87257 1.89576,-1.89572 -0.48901,-2.05368 0.86,-3.95077 0,-9.20601 -0.1703,-1.038 -0.84643,-1.94033 -1.89576,-1.89835 -3.27228,-0.41979 -6.538364,-0.70627 -9.722774,-0.74527 z m 107.184244,0 c -3.1844,0.0426 -6.45048,0.32569 -9.72276,0.74527 -1.04921,-0.0426 -1.72585,0.86035 -1.89576,1.89835 -0.85989,5.25524 0.48901,7.586 0,9.63966 -0.24354,1.02308 0.84907,1.98369 1.89576,1.89832 6.23347,-0.50859 11.97752,-1.26982 18.95465,0 1.03308,0.18777 1.6665,-0.87184 1.89572,-1.89832 0.71747,-3.21292 0.71216,-6.42672 0,-9.63966 -0.22777,-1.02681 -0.87461,-2.14341 -1.89572,-1.89835 -2.94405,-0.57566 -6.04735,-0.78435 -9.23188,-0.74527 z m -73.58046,0.0298 h 8.29967 v 8.5801 h -8.29967 z m 16.07217,0 h 8.29967 v 8.5801 h -8.29967 z m 16.07219,0 h 8.29971 v 8.5801 h -8.29971 z m 41.33214,14.21796 c -3.18445,0.0426 -6.45049,0.32867 -9.72278,0.74791 -1.04921,-0.0426 -1.52322,0.91488 -1.89562,1.89832 -1.84085,4.86232 0.16987,6.81137 0,8.99291 -0.0809,1.04862 0.8488,1.81581 1.89562,1.8984 6.33239,0.50026 12.14982,1.28916 18.95479,0 1.03175,-0.19585 1.6665,-0.87192 1.89573,-1.8984 0.71746,-3.21268 0.71213,-5.77994 0,-8.99291 -0.22779,-1.02678 -0.87462,-2.14347 -1.89573,-1.89832 -2.94404,-0.57574 -6.0476,-0.78699 -9.23201,-0.74791 z M 94.318926,560.0318 c -3.18415,-0.0426 -6.3506,0.0902 -9.423968,0.50378 -1.021165,-0.24522 -1.668297,0.87155 -1.895769,1.89832 -0.712143,3.21315 -0.717467,6.42669 0,9.63979 0.229054,1.02648 0.849195,1.8107 1.895769,1.8984 6.805178,0.57051 12.619838,0.38744 18.952102,0 1.04814,-0.0638 1.9798,-0.84978 1.89826,-1.8984 -0.16986,-2.18152 1.84085,-4.77729 0,-9.63979 -0.37167,-0.98347 -0.84892,-1.94046 -1.89826,-1.89832 -3.14402,-0.25927 -6.343964,-0.46516 -9.528134,-0.50378 z m 33.307814,2.56832 h 8.29967 v 7.98048 h -8.29967 z m 16.07217,0 h 8.29967 v 7.98048 h -8.29967 z m 16.07219,0 h 8.29971 v 7.98048 h -8.29971 z m 50.94331,11.63935 c -0.12516,0 -0.25161,4.2e-4 -0.37933,0.0426 -6.72223,1.614 -12.52504,0.2597 -18.95478,0 -1.04917,-0.0426 -1.95822,0.84851 -1.8956,1.8984 0.28908,4.86245 0.52891,7.45567 0,9.63719 -0.24736,1.02222 0.84601,1.86988 1.8956,1.89841 5.62198,0.15327 11.78117,0.86128 18.95478,0 1.04257,-0.12347 1.71107,-0.86299 1.89576,-1.89841 0.5728,-3.21311 -0.37593,-6.42409 0,-9.63719 0.10644,-0.91408 -0.64339,-1.86903 -1.51655,-1.92948 v 0 z m -126.201359,0.5739 v 0 c -0.873155,0.0596 -1.620768,1.01796 -1.513862,1.93204 0.375935,3.21268 -0.572932,5.84251 0,9.0552 0.184777,1.03542 0.84668,1.85157 1.895715,1.8984 7.173662,0.32357 13.330302,-0.9426 18.952156,0 1.03575,0.17456 2.1461,-0.87618 1.89826,-1.8984 -0.52889,-2.18153 -0.28949,-4.19318 0,-9.0552 0.0626,-1.04988 -0.84892,-1.94311 -1.89826,-1.90095 -6.429714,0.25544 -12.229874,1.61357 -18.952156,0 -0.12772,-0.0426 -0.25672,-0.0426 -0.381889,-0.0426 z m 43.113689,4.21744 h 8.29967 v 6.78555 h -8.29967 z m 16.07217,0 h 8.29967 v 6.78555 h -8.29967 z m 16.07219,0 h 8.29971 v 6.78555 h -8.29971 z m -60.730981,9.18506 v 0.003 c -4.710293,0 -9.199953,0.7391 -14.145215,0.30229 -1.045969,-0.0937 -1.742702,0.86042 -1.895715,1.90095 -0.472709,3.21311 -1.37401,6.42409 0,9.6372 0.413395,0.96687 0.846004,1.59058 1.895715,1.56078 7.173662,-0.20435 14.961595,-0.8451 19.435076,0.0979 1.0275,0.21713 1.87754,-0.84681 1.89841,-1.89799 0.0451,-2.18195 0.518,-4.53334 -0.48307,-9.3958 -0.21244,-1.02987 -0.85812,-1.75662 -1.89826,-1.90095 -1.64394,-0.2299 -3.23695,-0.30654 -4.806941,-0.30228 z m 92.340301,0.30227 c -1.04823,-0.0638 -1.68352,0.87066 -1.89558,1.90097 -1.00107,4.86202 -0.0451,7.45524 0,9.63719 0.0212,1.05159 0.84812,1.97206 1.89558,1.89797 5.62186,-0.39594 11.78117,-0.20435 18.95478,0 1.0496,0.0426 1.48242,-0.9311 1.89578,-1.89797 1.37401,-3.21311 0.4727,-6.42408 0,-9.63719 -0.15328,-1.04053 -0.85321,-2.02613 -1.89578,-1.90097 -6.59366,0.79148 -12.37891,0.3917 -18.95478,0 z m -63.75368,5.74674 h 8.29967 v 7.67407 h -8.29967 z m 16.07217,0 h 8.29967 v 7.67407 h -8.29967 z m 16.07219,0 h 8.29971 v 7.67407 h -8.29971 z m -60.730981,7.82478 c -4.710293,0 -9.199953,0.74166 -14.145215,0.30229 -1.045969,-0.0937 -1.742702,0.85787 -1.895715,1.8984 -0.472709,3.21311 -1.37401,5.84506 0,9.05818 0.413395,0.96687 0.858393,1.73491 1.895715,1.89797 7.173662,1.12994 13.330302,0.1405 18.952156,0 1.04972,-0.0426 1.87741,-0.84639 1.89826,-1.89797 0.0451,-2.18195 1.00107,-4.19574 0,-9.05818 -0.21244,-1.02989 -0.85812,-1.75365 -1.89826,-1.8984 -1.64394,-0.22991 -3.23695,-0.30653 -4.806941,-0.30229 z m 92.340301,0.30229 c -1.04665,-0.0852 -1.68352,0.86851 -1.89558,1.8984 -1.00107,4.86244 -0.0451,7.45822 0,9.63976 0.0212,1.05158 0.84587,1.87199 1.89558,1.89839 5.62186,0.1405 11.78117,1.12993 18.95478,0 1.03726,-0.16178 1.48242,-0.93153 1.89578,-1.89839 1.37401,-3.21312 0.4727,-6.42665 0,-9.63976 -0.15328,-1.04053 -0.85253,-2.01846 -1.89578,-1.8984 -3.27812,0.37891 -6.18264,0.17029 -9.26309,0.14475 -3.12727,-0.0426 -6.43068,0.1192 -9.69169,-0.14475 z m -63.75368,7.33135 h 8.29967 v 10.1847 l 3.73954,11.74593 c -5.14694,-0.11922 -10.31312,-0.3619 -15.49819,-0.78168 -0.0127,-8.6e-4 -0.0171,-8.9e-4 -0.0298,-0.002 l 3.48755,-10.9617 v -10.18512 z m 16.07217,0 h 8.29967 v 10.1847 l 3.75258,11.78722 c -5.23587,0.0723 -10.499,0.0851 -15.78911,-0.0426 l 3.73686,-11.75103 v -10.1847 z m 16.07219,0 h 8.29971 v 10.1847 l 3.64086,11.44704 c -5.20569,0.1405 -10.41287,0.25971 -15.68796,0.33635 l 3.74739,-11.78211 v -10.18473 z m -75.250202,6.52584 v 0.002 c -0.830211,0.0894 -1.387857,1.00093 -1.521709,1.91117 -0.472709,3.21311 -1.37401,6.42664 0,9.63975 0.413395,0.96687 0.872355,1.66296 1.895715,1.89841 5.495592,1.26617 12.048292,0.11495 18.952156,0 1.04998,0 1.87741,-0.84682 1.89826,-1.89841 0.0451,-2.18152 1.00107,-4.7773 0,-9.63975 -0.21244,-1.02988 -0.85493,-2.01506 -1.89826,-1.89542 -6.041774,0.69184 -12.145574,1.22316 -18.952156,0 -0.129,-0.0426 -0.255449,-0.0426 -0.374228,0 z m 126.185682,0.38742 c -0.11836,0 -0.24267,0 -0.37125,0 -6.80653,1.22318 -12.91301,0.69184 -18.95478,0 -1.04334,-0.11921 -1.68357,0.86811 -1.89563,1.89798 -1.00106,4.86245 -0.0452,7.45823 0,9.63976 0.0212,1.05158 0.856,2.04656 1.89563,1.8984 6.31803,-0.90088 12.63675,-0.16179 18.95478,0 1.04972,0.0426 1.48237,-0.93154 1.89577,-1.8984 1.374,-3.21269 0.47266,-6.42665 0,-9.63976 -0.13368,-0.91024 -0.69436,-1.82431 -1.52444,-1.91372 v -0.002 z"
       style="fill:#000000;fill-opacity:1;stroke:none;stroke-width:10;stroke-linecap:round;stroke-linejoin:round;stroke-miterlimit:4;stroke-dasharray:none;stroke-dashoffset:0;stroke-opacity:1" />
    <path
       style="fill:#000000;fill-opacity:1;stroke:none;stroke-width:10;stroke-linecap:round;stroke-linejoin:round;stroke-miterlimit:4;stroke-dasharray:none;stroke-dashoffset:0;stroke-opacity:1"
       d="m 970.80578,486.44513 c -2.22043,0.0601 -5.63556,1.00804 -5.27695,2.38916 1.15756,1.23423 1.86144,2.99347 2.68513,4.57571 1.83714,3.52854 3.24917,7.50327 4.38105,12.21062 1.0439,0.73513 1.4206,0.62555 2.95269,0.28056 1.02285,-0.2299 1.90492,-0.36443 2.22802,-1.16079 0.45938,-1.29951 0.766,-2.57462 1.12712,-3.88494 0.40063,-1.45345 0.86716,-2.9456 1.68025,-4.4433 1.67714,-3.08884 3.3906,-5.65141 4.31085,-8.06598 0.33932,-0.99535 -2.30053,-1.41028 -3.36566,-1.41526 -2.28042,-0.0127 -5.18243,0.0677 -9.43717,-0.3819 -0.32357,-0.0864 -0.77303,-0.11793 -1.28533,-0.10388 z m -7.90505,1.37115 c -0.25843,-0.0256 -0.51443,0.0213 -0.74526,0.14561 -3.0827,1.67327 -6.10622,0.40574 -8.39832,2.56572 -0.76481,0.72075 -0.97079,1.91765 -0.24139,2.67484 4.43474,4.6064 4.70836,6.1015 8.70225,13.53498 2.92593,2.06589 6.18163,0.48276 7.08429,0.0987 0.96078,-0.42403 1.66654,-1.30419 1.36341,-2.3112 -0.58782,-6.50605 -3.25781,-9.69791 -6.20142,-15.19705 -0.0128,-0.78866 -0.7858,-1.44231 -1.5607,-1.50877 v -0.003 z m 23.98493,0.72974 c -0.77489,0.0664 -1.54686,0.72265 -1.56069,1.5114 -2.94362,5.49911 -5.61347,8.69101 -6.20143,15.19701 -0.30313,1.00702 0.39978,1.88691 1.36086,2.31125 4.86479,2.14827 3.20927,0.65216 5.36257,0.99978 1.03686,0.16732 1.772,-0.17243 2.26966,-1.09846 3.99388,-7.43354 4.26737,-8.92863 8.70216,-13.53503 0.72889,-0.75711 0.52308,-1.95405 -0.24139,-2.6748 -2.29213,-2.16015 -5.86121,-0.89241 -8.94373,-2.56572 -0.23034,-0.1256 -0.4897,-0.16775 -0.74792,-0.1456 z m -36.76421,3.45906 c -0.25801,0.0255 -0.50579,0.10984 -0.71147,0.27248 -2.74964,2.17914 -6.48505,1.54146 -8.37243,4.06413 -0.62972,0.84165 -0.64607,2.08339 0.22053,2.67739 5.34917,3.66563 6.66069,4.64375 10.89656,11.83664 3.23678,1.53133 6.71304,-0.68127 7.53622,-1.21534 0.87367,-0.58343 1.41658,-1.5739 0.94521,-2.51381 -1.69549,-6.30795 -4.87421,-8.9933 -8.71772,-13.90378 -0.14858,-0.77455 -1.02218,-1.28575 -1.79708,-1.21792 z m 49.37998,1.30368 c -0.77584,-0.0567 -1.6413,0.46717 -1.77889,1.2439 -3.77131,4.96629 -6.90944,7.6989 -8.51268,14.03102 -0.45768,0.94665 0.0983,1.92757 0.98164,2.49819 0.83102,0.52197 4.33772,2.6823 7.55176,1.10368 5.11254,-6.71101 5.61924,-8.14287 10.72264,-11.99248 0.8388,-0.63274 0.8237,-1.8476 0.1818,-2.67998 -1.9241,-2.49479 -5.6484,-1.80347 -8.4296,-3.94208 -0.2077,-0.1605 -0.45816,-0.24352 -0.71664,-0.26225 z m -61.21403,4.92366 c -0.39637,0.0128 -0.77903,0.15839 -1.03869,0.45449 -2.31206,2.64018 -6.10027,2.69085 -7.50246,5.51321 -0.46777,0.9417 -0.25374,2.14891 0.69856,2.59169 5.86333,2.72562 8.19852,3.39847 13.33242,9.57732 3.45948,0.92154 5.99677,-1.78783 6.7104,-2.46183 0.7543,-0.73177 1.10809,-1.80176 0.47518,-2.64107 -2.80346,-5.89812 -6.4111,-7.96601 -11.07575,-12.10151 -0.238,-0.61248 -0.93886,-0.95499 -1.59966,-0.9323 z m 72.8974,1.75293 c -0.6607,-0.0256 -1.3614,0.31973 -1.5996,0.93226 -4.6647,4.13553 -8.2722,6.20074 -11.07581,12.09895 -0.63286,0.83935 -0.27929,1.91193 0.47522,2.64363 0.71348,0.67404 3.73389,3.47945 7.19349,2.55796 6.3193,-5.58515 7.095,-7.98895 12.8493,-10.76933 0.9457,-0.45704 1.1664,-1.65007 0.6986,-2.5917 -1.4021,-2.82235 -5.1904,-1.77718 -7.5025,-4.41732 -0.2601,-0.29632 -0.642,-0.44082 -1.0387,-0.45445 z m -82.99674,6.78568 c -0.66106,-0.0456 -1.37015,0.2712 -1.62304,0.87777 -1.3509,3.24085 -4.17951,4.24609 -5.36257,7.16744 -0.39468,0.97465 -0.0916,2.16891 0.89334,2.53195 1.79988,0.66272 10.20464,4.00473 11.86785,4.91852 1.74246,0.95733 1.12406,1.08909 4.07193,2.3112 0.95534,0.39637 1.80295,0.35593 2.33198,-0.12474 1.79883,-1.63329 3.10599,-3.18825 4.12127,-4.70816 0.48199,-0.93452 -0.36146,-1.7361 -1.22828,-2.32943 -4.53479,-4.69432 -8.30647,-7.72956 -14.04401,-10.15904 -0.25289,-0.3027 -0.63171,-0.45852 -1.02847,-0.4856 z m 95.49814,0.10387 c -0.3968,0.0298 -0.7758,0.18307 -1.0283,0.48561 -5.7378,2.42966 -10.6776,6.63301 -15.2126,11.32767 -1.816,1.33352 2.1521,7.67003 5.6145,7.3778 4.9975,-3.52981 10.4799,-5.74137 17.1031,-8.18025 0.9856,-0.36316 1.2881,-1.55725 0.8934,-2.53196 -1.1832,-2.9213 -4.3961,-4.36287 -5.747,-7.6037 -0.2529,-0.60664 -0.962,-0.92033 -1.6231,-0.87517 z m -51.41586,2.39697 c -2.69102,0.16007 -5.29104,0.53192 -7.7725,1.10884 v 8.90995 h -8.29967 v -6.06114 c -2.84565,1.32176 -5.45407,2.92849 -7.77251,4.77828 v 1.28286 h -1.50872 c -2.58344,2.30792 -4.75308,4.92941 -6.42732,7.78549 h 7.93604 v 10.0448 h -14.99709 c -0.32145,2.70362 0.69116,5.61599 1.20503,8.4503 h 13.79206 v 8.58011 h -13.4441 c -0.55909,2.98406 -0.11963,5.71913 0.33251,8.4503 h 13.11171 v 7.98024 h -12.16127 c -0.55049,2.92657 -0.35507,5.70456 0,8.4502 h 12.16127 v 6.78555 h -12.29892 c -0.61784,2.81674 0.76669,5.6339 1.16608,8.45064 h 11.13284 v 7.67365 h -11.23417 c 0,0 -1.78761,0.63607 -1.84641,0.95836 l 0.41297,6.82727 h 12.66757 v 10.1847 l 3.47217,10.90975 c -16.29344,-1.18698 -32.72637,1.52205 -49.7721,-0.82339 -0.10387,0 -0.20776,-0.0426 -0.30909,-0.0426 -1.52676,0 -2.73193,1.48927 -2.73193,3.07218 v 2.66475 c 0,1.68851 1.36163,2.90146 3.04107,3.04834 9.7346,0.85278 19.28997,1.56164 28.72422,1.71662 27.9411,0.54409 61.98429,0.42149 93.91662,-0.12347 9.9859,-0.20861 15.968,-1.38027 26.1144,-1.59186 1.6853,-0.0426 3.0435,-1.36027 3.0435,-3.04878 v -2.66474 c 0,-1.68851 -1.3615,-3.15989 -3.0435,-3.04877 -6.359,0.42149 -12.734,1.21849 -19.1365,1.05201 -10.1138,-0.26395 -20.486,0 -30.9706,0.29377 l 3.6409,-11.43384 v -10.18513 h 11.499 l -0.3351,-5.51343 c 0,-0.73653 -0.1052,-1.49436 -0.2985,-2.2722 h -10.8654 v -7.67365 h 12.2365 c 0.6296,-3.62566 1.1891,-7.15126 0.2052,-8.45021 h -12.4416 v -6.78597 h 11.7561 c 0.5308,-2.77246 1.5535,-5.50405 0,-8.45022 h -11.7561 v -7.98018 h 11.8937 c 0.5214,-2.8222 1.0184,-5.55549 0.7531,-8.45031 h -12.6468 v -8.58011 h 12.7169 c 0.3342,-2.78646 0.9186,-5.54142 0.2729,-8.4503 h -12.9896 v -10.0448 h 5.9312 c -3.4701,-3.93927 -8.3535,-7.80358 -13.70374,-10.92512 v 3.13963 H 988.343 v -7.20117 c -2.63065,-1.04371 -5.25291,-1.83866 -7.77251,-2.33461 v 9.53578 h -8.29971 v -10.01879 z m 60.97766,8.71514 c -0.2602,0.008 -0.5123,0.083 -0.7271,0.23375 -5.3587,1.91577 -11.0203,4.95249 -17.6199,7.00122 -0.9909,0.34826 -1.2862,1.43685 -1.0621,2.46444 1.1348,5.20271 2.6411,4.61299 2.9423,6.7026 0.1502,1.04095 1.6025,1.66931 2.4617,1.06472 4.9932,-3.51369 9.8947,-6.37407 17.6173,-6.99865 1.0466,-0.0848 1.3924,-1.46515 1.0648,-2.46442 -0.9823,-2.99508 -2.4775,-3.22197 -2.9448,-6.70261 -0.1052,-0.7818 -0.9522,-1.33088 -1.7322,-1.30105 z m -114.69178,0.10389 c -0.78005,-0.0298 -1.62967,0.51924 -1.73471,1.30104 -0.46738,3.48064 -1.86387,3.32056 -2.84619,6.31565 -0.32783,0.99931 0.0545,2.16943 1.0621,2.46447 6.77341,1.98283 12.6362,3.33385 17.86148,6.51558 0.89735,0.54637 2.30925,-0.0298 2.45924,-1.0673 0.30143,-2.0896 1.4724,-0.62738 2.60722,-5.83005 0.22395,-1.02753 -0.0731,-2.11604 -1.06462,-2.46443 -5.59353,-3.35905 -11.44743,-6.14187 -17.61735,-7.00123 -0.21415,-0.15114 -0.46708,-0.22394 -0.72717,-0.23373 z m 37.64195,8.98525 h 8.29967 v 10.0448 h -8.29967 z m 16.07217,0 h 8.29967 v 10.0448 h -8.29967 z m 16.07219,0 h 8.29971 v 10.0448 h -8.29971 z m 49.95137,1.88793 c -0.2606,0.004 -0.514,0.0724 -0.7324,0.21797 -6.1897,0.70308 -12.1149,3.33539 -17.7914,6.55199 -0.9992,0.32271 -1.2262,1.38904 -1.1244,2.43587 0.2869,2.94808 0.043,4.40323 -0.3117,6.48445 -0.1762,1.03678 0.799,0.99936 1.8205,0.7557 5.9487,-1.41906 12.054,-0.41893 19.108,-0.22053 1.0496,0.0298 1.7702,-0.96594 1.7658,-2.01778 -0.017,-3.15244 -0.654,-9.37111 -1.0335,-12.8624 -0.085,-0.78423 -0.9203,-1.35532 -1.7009,-1.34522 z m -125.60404,0.60511 c -0.77872,0.0426 -1.57331,0.66433 -1.60749,1.45166 -0.15241,3.50867 -0.38701,8.98325 -0.19754,12.13008 0.0626,1.04993 0.85018,1.99624 1.89576,1.89831 7.02592,-0.65803 12.92391,-1.02813 18.95211,0 1.03524,0.17627 2.13938,-0.87525 1.89576,-1.89831 -0.48901,-2.05359 -0.82927,-2.71635 -0.73488,-5.67682 0.034,-1.05131 -0.26183,-2.10063 -1.28027,-2.35795 -5.87343,-2.83965 -11.95612,-5.08018 -18.17831,-5.3782 -0.22692,-0.13113 -0.48356,-0.18137 -0.74271,-0.16861 v 0 z m 9.90452,15.9709 c -3.18442,-0.0426 -6.2881,0.16945 -9.232,0.74527 -1.02111,-0.24524 -1.66826,0.87154 -1.89573,1.89835 -0.71215,3.21294 -0.71747,5.99306 0,9.20601 0.22947,1.02652 0.85383,2.02749 1.89573,1.89572 7.03818,-0.89045 12.78898,-0.68039 18.95478,0 1.04376,0.11495 2.13937,-0.87257 1.89576,-1.89572 -0.48901,-2.05368 0.86,-3.95077 0,-9.20601 -0.1703,-1.038 -0.84643,-1.94033 -1.89576,-1.89835 -3.27228,-0.41979 -6.53837,-0.70627 -9.72278,-0.74527 z m 107.18422,0 c -3.1844,0.0426 -6.4505,0.32569 -9.7227,0.74527 -1.0492,-0.0426 -1.7259,0.86035 -1.8958,1.89835 -0.8599,5.25524 0.489,7.586 0,9.63966 -0.2435,1.02308 0.8491,1.98369 1.8958,1.89832 6.2334,-0.50859 11.9775,-1.26982 18.9546,0 1.0331,0.18777 1.6665,-0.87184 1.8957,-1.89832 0.7175,-3.21292 0.7122,-6.42672 0,-9.63966 -0.2277,-1.02681 -0.8746,-2.14341 -1.8957,-1.89835 -2.944,-0.57566 -6.0473,-0.78435 -9.2319,-0.74527 z m -73.58043,0.0298 h 8.29967 v 8.5801 h -8.29967 z m 16.07217,0 h 8.29967 v 8.5801 h -8.29967 z m 16.07219,0 h 8.29971 v 8.5801 h -8.29971 z m 41.33217,14.21796 c -3.1845,0.0426 -6.4505,0.32867 -9.7228,0.74791 -1.0492,-0.0426 -1.5232,0.91488 -1.8956,1.89832 -1.8409,4.86232 0.1698,6.81137 0,8.99291 -0.081,1.04862 0.8488,1.81581 1.8956,1.8984 6.3324,0.50026 12.1498,1.28916 18.9548,0 1.0317,-0.19585 1.6665,-0.87192 1.8957,-1.8984 0.7175,-3.21268 0.7121,-5.77994 0,-8.99291 -0.2278,-1.02678 -0.8746,-2.14347 -1.8957,-1.89832 -2.9441,-0.57574 -6.0476,-0.78699 -9.232,-0.74791 z m -106.78435,0.24395 c -3.18415,-0.0426 -6.3506,0.0902 -9.42396,0.50378 -1.02117,-0.24522 -1.6683,0.87155 -1.89577,1.89832 -0.71215,3.21315 -0.71747,6.42669 0,9.63979 0.22905,1.02648 0.84919,1.8107 1.89577,1.8984 6.80517,0.57051 12.61983,0.38744 18.9521,0 1.04814,-0.0638 1.9798,-0.84978 1.89826,-1.8984 -0.16986,-2.18152 1.84085,-4.77729 0,-9.63979 -0.37167,-0.98347 -0.84892,-1.94046 -1.89826,-1.89832 -3.14402,-0.25927 -6.34397,-0.46516 -9.52814,-0.50378 z m 33.30782,2.56832 h 8.29967 v 7.98048 h -8.29967 z m 16.07217,0 h 8.29967 v 7.98048 h -8.29967 z m 16.07219,0 h 8.29971 v 7.98048 h -8.29971 z m 50.94327,11.63935 c -0.1251,0 -0.2516,4.2e-4 -0.3793,0.0426 -6.7222,1.614 -12.525,0.2597 -18.9548,0 -1.0491,-0.0426 -1.9582,0.84851 -1.8956,1.8984 0.2891,4.86245 0.5289,7.45567 0,9.63719 -0.2473,1.02222 0.846,1.86988 1.8956,1.89841 5.622,0.15327 11.7812,0.86128 18.9548,0 1.0426,-0.12347 1.7111,-0.86299 1.8958,-1.89841 0.5728,-3.21311 -0.376,-6.42409 0,-9.63719 0.1064,-0.91408 -0.6434,-1.86903 -1.5166,-1.92948 v 0 z m -126.20132,0.5739 v 0 c -0.87316,0.0596 -1.62077,1.01796 -1.51386,1.93204 0.37593,3.21268 -0.57293,5.84251 0,9.0552 0.18477,1.03542 0.84668,1.85157 1.89571,1.8984 7.17366,0.32357 13.3303,-0.9426 18.95216,0 1.03575,0.17456 2.1461,-0.87618 1.89826,-1.8984 -0.52889,-2.18153 -0.28949,-4.19318 0,-9.0552 0.0626,-1.04988 -0.84892,-1.94311 -1.89826,-1.90095 -6.42972,0.25544 -12.22988,1.61357 -18.95216,0 -0.12772,-0.0426 -0.25672,-0.0426 -0.38189,-0.0426 z m 43.11369,4.21744 h 8.29967 v 6.78555 h -8.29967 z m 16.07217,0 h 8.29967 v 6.78555 h -8.29967 z m 16.07219,0 h 8.29971 v 6.78555 h -8.29971 z m -60.73098,9.18506 v 0.003 c -4.7103,0 -9.19996,0.7391 -14.14522,0.30229 -1.04597,-0.0937 -1.7427,0.86042 -1.89571,1.90095 -0.47271,3.21311 -1.37401,6.42409 0,9.6372 0.41339,0.96687 0.846,1.59058 1.89571,1.56078 7.17366,-0.20435 14.9616,-0.8451 19.43508,0.0979 1.0275,0.21713 1.87754,-0.84681 1.89841,-1.89799 0.0451,-2.18195 0.518,-4.53334 -0.48307,-9.3958 -0.21244,-1.02987 -0.85812,-1.75662 -1.89826,-1.90095 -1.64394,-0.2299 -3.23695,-0.30654 -4.80694,-0.30228 z m 92.34025,0.30227 c -1.0482,-0.0638 -1.6835,0.87066 -1.8955,1.90097 -1.0011,4.86202 -0.045,7.45524 0,9.63719 0.021,1.05159 0.8481,1.97206 1.8955,1.89797 5.6219,-0.39594 11.7812,-0.20435 18.9548,0 1.0496,0.0426 1.4824,-0.9311 1.8958,-1.89797 1.374,-3.21311 0.4727,-6.42408 0,-9.63719 -0.1533,-1.04053 -0.8532,-2.02613 -1.8958,-1.90097 -6.5936,0.79148 -12.3789,0.3917 -18.9548,0 z m -63.75363,5.74674 h 8.29967 v 7.67407 h -8.29967 z m 16.07217,0 h 8.29967 v 7.67407 h -8.29967 z m 16.07219,0 h 8.29971 v 7.67407 h -8.29971 z m -60.73098,7.82478 c -4.7103,0 -9.19996,0.74166 -14.14522,0.30229 -1.04597,-0.0937 -1.7427,0.85787 -1.89571,1.8984 -0.47271,3.21311 -1.37401,5.84506 0,9.05818 0.41339,0.96687 0.85839,1.73491 1.89571,1.89797 7.17366,1.12994 13.3303,0.1405 18.95216,0 1.04972,-0.0426 1.87741,-0.84639 1.89826,-1.89797 0.0451,-2.18195 1.00107,-4.19574 0,-9.05818 -0.21244,-1.02989 -0.85812,-1.75365 -1.89826,-1.8984 -1.64394,-0.22991 -3.23695,-0.30653 -4.80694,-0.30229 z m 92.34025,0.30229 c -1.0466,-0.0852 -1.6835,0.86851 -1.8955,1.8984 -1.0011,4.86244 -0.045,7.45822 0,9.63976 0.021,1.05158 0.8458,1.87199 1.8955,1.89839 5.6219,0.1405 11.7812,1.12993 18.9548,0 1.0373,-0.16178 1.4824,-0.93153 1.8958,-1.89839 1.374,-3.21312 0.4727,-6.42665 0,-9.63976 -0.1533,-1.04053 -0.8525,-2.01846 -1.8958,-1.8984 -3.2781,0.37891 -6.1826,0.17029 -9.2631,0.14475 -3.1272,-0.0426 -6.4306,0.1192 -9.6917,-0.14475 z m -63.75363,7.33135 h 8.29967 v 10.1847 l 3.73954,11.74593 c -5.14694,-0.11922 -10.31312,-0.3619 -15.49819,-0.78168 -0.0127,-8.6e-4 -0.0171,-8.9e-4 -0.0298,-0.002 l 3.48755,-10.9617 v -10.18512 z m 16.07217,0 h 8.29967 v 10.1847 l 3.75258,11.78722 c -5.23587,0.0723 -10.499,0.0851 -15.78911,-0.0426 l 3.73686,-11.75103 v -10.1847 z m 16.07219,0 h 8.29971 v 10.1847 l 3.64086,11.44704 c -5.20569,0.1405 -10.41287,0.25971 -15.68796,0.33635 l 3.74739,-11.78211 v -10.18473 z m -75.2502,6.52584 v 0.002 c -0.83021,0.0894 -1.38786,1.00093 -1.52171,1.91117 -0.47271,3.21311 -1.37401,6.42664 0,9.63975 0.41339,0.96687 0.87235,1.66296 1.89571,1.89841 5.49559,1.26617 12.04829,0.11495 18.95216,0 1.04998,0 1.87741,-0.84682 1.89826,-1.89841 0.0451,-2.18152 1.00107,-4.7773 0,-9.63975 -0.21244,-1.02988 -0.85493,-2.01506 -1.89826,-1.89542 -6.04178,0.69184 -12.14558,1.22316 -18.95216,0 -0.129,-0.0426 -0.25545,-0.0426 -0.37423,0 z m 126.18567,0.38742 c -0.1184,0 -0.2427,0 -0.3712,0 -6.8066,1.22318 -12.9131,0.69184 -18.9548,0 -1.0434,-0.11921 -1.6836,0.86811 -1.8957,1.89798 -1.001,4.86245 -0.045,7.45823 0,9.63976 0.021,1.05158 0.856,2.04656 1.8957,1.8984 6.318,-0.90088 12.6367,-0.16179 18.9548,0 1.0497,0.0426 1.4823,-0.93154 1.8957,-1.8984 1.374,-3.21269 0.4727,-6.42665 0,-9.63976 -0.1337,-0.91024 -0.6943,-1.82431 -1.5244,-1.91372 v -0.002 z"
       id="path5131"
       inkscape:connector-curvature="0" />
    <path
       d="m 412.98949,1103.3571 5.58135,9.6672 -5.58135,9.6672 -11.1627,0 -5.58135,-9.6672 5.58135,-9.6672 z"
       inkscape:randomized="0"
       inkscape:rounded="0"
       inkscape:flatsided="true"
       sodipodi:arg2="-0.52359878"
       sodipodi:arg1="-1.0471976"
       sodipodi:r2="9.6671848"
       sodipodi:r1="11.162703"
       sodipodi:cy="1113.0243"
       sodipodi:cx="407.40814"
       sodipodi:sides="6"
       id="path5139"
       style="font-style:normal;font-weight:normal;font-size:medium;line-height:125%;font-family:sans-serif;letter-spacing:0px;word-spacing:0px;fill:none;fill-opacity:1;stroke:#000000;stroke-width:0.30441818;stroke-linecap:butt;stroke-linejoin:round;stroke-miterlimit:4;stroke-dasharray:1.21767266, 1.21767266;stroke-dashoffset:0;stroke-opacity:1"
       sodipodi:type="star"
       transform="matrix(0,-4.4720117,4.4565097,0,-4424.9778,2315.8416)" />
    <path
       sodipodi:nodetypes="scccccscs"
       inkscape:connector-curvature="0"
       d="m 517.22705,412.97549 c 2.32157,-12.38492 16.3929,-23.58462 27.5155,-22.32331 l -1.78498,-10.49018 30.33054,17.52537 -24.63771,15.96693 -1.93608,-11.39413 c -10.54346,-3.3619 -17.46737,17.81391 -17.84034,20.02301 -0.39705,2.35148 -3.53018,15.03917 5.86882,32.10152 -19.59692,-16.10559 -20.41565,-25.93965 -17.51575,-41.40921 z"
       id="path5141"
       style="fill:#000000;fill-opacity:1;stroke:none;stroke-width:0.53084648;stroke-opacity:1" />
    <path
       transform="matrix(0,-4.4720117,4.4565097,0,-4340.3934,2199.3472)"
       sodipodi:type="star"
       style="font-style:normal;font-weight:normal;font-size:medium;line-height:125%;font-family:sans-serif;letter-spacing:0px;word-spacing:0px;fill:#b3b3b3;fill-opacity:1;stroke:#000000;stroke-width:0.30448636;stroke-linecap:butt;stroke-linejoin:round;stroke-miterlimit:4;stroke-dasharray:none;stroke-dashoffset:0;stroke-opacity:1"
       id="path5143"
       sodipodi:sides="6"
       sodipodi:cx="407.40814"
       sodipodi:cy="1113.0243"
       sodipodi:r1="11.162703"
       sodipodi:r2="9.6671848"
       sodipodi:arg1="-1.0471976"
       sodipodi:arg2="-0.52359878"
       inkscape:flatsided="true"
       inkscape:rounded="0"
       inkscape:randomized="0"
       d="m 412.98949,1103.3571 5.58135,9.6672 -5.58135,9.6672 -11.1627,0 -5.58135,-9.6672 5.58135,-9.6672 z" />
    <path
       style="fill:#000000;fill-opacity:1;stroke:none;stroke-width:10;stroke-linecap:round;stroke-linejoin:round;stroke-miterlimit:4;stroke-dasharray:none;stroke-dashoffset:0;stroke-opacity:1"
       d="m 617.48624,341.78415 c -0.90544,0.0245 -2.29804,0.41107 -2.15182,0.97428 0.47203,0.50331 0.75905,1.22072 1.09494,1.86595 0.74913,1.43891 1.32492,3.05977 1.78647,4.9794 0.42568,0.29978 0.57929,0.25509 1.20402,0.11437 0.4171,-0.0937 0.77678,-0.14862 0.90853,-0.47336 0.18733,-0.52993 0.31236,-1.04993 0.45961,-1.58425 0.16338,-0.59272 0.35362,-1.20121 0.68517,-1.81196 0.6839,-1.2596 1.38259,-2.3046 1.75785,-3.28925 0.13836,-0.40588 -0.9381,-0.57509 -1.37242,-0.57712 -0.9299,-0.005 -2.11326,0.0276 -3.84824,-0.15574 -0.13196,-0.0352 -0.31521,-0.0481 -0.52411,-0.0423 z m -3.22347,0.55915 c -0.10539,-0.0108 -0.20978,0.008 -0.30391,0.0593 -1.25704,0.68236 -2.48997,0.16547 -3.42461,1.04629 -0.31187,0.29392 -0.39588,0.78201 -0.0984,1.09078 1.80836,1.87846 1.91994,2.48815 3.54855,5.51948 1.19311,0.84245 2.52071,0.19686 2.88879,0.0403 0.39178,-0.17292 0.67957,-0.53183 0.55595,-0.94249 -0.23968,-2.65313 -1.32843,-3.95474 -2.52877,-6.19725 -0.005,-0.32161 -0.32042,-0.58816 -0.6364,-0.61526 v -7.6e-4 z m 9.78042,0.29758 c -0.31598,0.0271 -0.63077,0.29469 -0.63641,0.61633 -1.20034,2.24249 -2.28904,3.54414 -2.5288,6.19723 -0.12362,0.41067 0.16303,0.76947 0.55494,0.94251 1.98373,0.87605 1.30866,0.26595 2.18671,0.40772 0.42281,0.0681 0.72257,-0.0704 0.92551,-0.44795 1.62862,-3.03135 1.74012,-3.64103 3.54853,-5.51948 0.2972,-0.30875 0.21329,-0.79686 -0.0984,-1.09078 -0.93467,-0.88089 -2.39005,-0.36391 -3.64702,-1.04627 -0.094,-0.0513 -0.19969,-0.0685 -0.30498,-0.0593 z m -14.99149,1.41058 c -0.10525,0.0107 -0.20625,0.0449 -0.29011,0.11117 -1.12125,0.88863 -2.64444,0.62859 -3.41407,1.65731 -0.25678,0.34321 -0.26346,0.84958 0.09,1.09182 2.18124,1.49482 2.71605,1.89368 4.44333,4.82688 1.31986,0.62449 2.7374,-0.27782 3.07307,-0.49559 0.35626,-0.23792 0.57764,-0.64182 0.38543,-1.02512 -0.69138,-2.57234 -1.98756,-3.6674 -3.55485,-5.66986 -0.0606,-0.31586 -0.41682,-0.52431 -0.73281,-0.49665 z m 20.13588,0.53163 c -0.31639,-0.0231 -0.66928,0.1905 -0.72539,0.50726 -1.53786,2.02521 -2.81749,3.13955 -3.47126,5.72174 -0.18662,0.38604 0.0401,0.78605 0.40029,1.01875 0.33887,0.21285 1.76881,1.09382 3.0794,0.45007 2.08476,-2.7367 2.29137,-3.32061 4.37244,-4.89044 0.34206,-0.25803 0.33585,-0.75344 0.0741,-1.09289 -0.78456,-1.01736 -2.30327,-0.73543 -3.43734,-1.60755 -0.0847,-0.0656 -0.18684,-0.0993 -0.29225,-0.10699 z m -24.96149,2.00784 c -0.16163,0.005 -0.31768,0.0646 -0.42356,0.18532 -0.94281,1.07665 -2.48752,1.09732 -3.05931,2.24826 -0.19073,0.38402 -0.10346,0.87631 0.28486,1.05685 2.39091,1.1115 3.34314,1.38588 5.43661,3.90558 1.41069,0.3758 2.44532,-0.72906 2.73634,-1.00391 0.30758,-0.29841 0.45185,-0.73475 0.19375,-1.07701 -1.14317,-2.40521 -2.61426,-3.24849 -4.51639,-4.93491 -0.097,-0.24977 -0.38284,-0.38945 -0.6523,-0.38018 z m 29.72567,0.71482 c -0.26941,-0.0107 -0.55514,0.13035 -0.65231,0.38018 -1.90214,1.68644 -3.37315,2.52861 -4.51643,4.93385 -0.25803,0.34228 -0.11384,0.77968 0.19382,1.07807 0.2909,0.27484 1.52259,1.41888 2.93327,1.04311 2.57691,-2.27759 2.89321,-3.25784 5.23963,-4.39165 0.38567,-0.18638 0.47566,-0.67289 0.28488,-1.05689 -0.57175,-1.15093 -2.11652,-0.72473 -3.0593,-1.80134 -0.10604,-0.12082 -0.26184,-0.17977 -0.42356,-0.18533 z m -33.84392,2.76715 c -0.26956,-0.0186 -0.55872,0.11063 -0.66184,0.35794 -0.55085,1.32161 -1.70428,1.73153 -2.18671,2.92283 -0.16094,0.39747 -0.0372,0.88448 0.36427,1.03251 0.73395,0.27027 4.1612,1.63311 4.8394,2.00575 0.71054,0.39039 0.45837,0.44413 1.66042,0.94249 0.38958,0.16163 0.73521,0.14514 0.95093,-0.051 0.73352,-0.66603 1.26654,-1.30015 1.68055,-1.91996 0.19654,-0.38107 -0.1474,-0.70797 -0.50086,-0.94993 -1.84918,-1.9143 -3.38717,-3.15205 -5.72678,-4.14276 -0.10314,-0.12351 -0.2576,-0.18699 -0.41938,-0.19804 z m 38.94163,0.0424 c -0.16181,0.0121 -0.31636,0.0746 -0.41932,0.19802 -2.33967,0.99081 -4.35399,2.7049 -6.2033,4.61936 -0.74048,0.54378 0.87762,3.12777 2.2895,3.00861 2.03784,-1.43943 4.27338,-2.34129 6.97415,-3.33585 0.40194,-0.14811 0.52525,-0.63503 0.3643,-1.03252 -0.48244,-1.19128 -1.79261,-1.77915 -2.34347,-3.10073 -0.10315,-0.24738 -0.39224,-0.37532 -0.66181,-0.35689 z m -20.96603,0.97746 c -1.09732,0.0652 -2.15754,0.21692 -3.16943,0.45218 v 3.63341 h -3.38438 v -2.47169 c -1.16038,0.53902 -2.22403,1.19423 -3.16943,1.94855 v 0.52314 h -0.61522 c -1.05346,0.94116 -1.93818,2.01019 -2.62088,3.17486 h 3.2361 v 4.09621 h -6.11541 c -0.13103,1.10252 0.28183,2.29016 0.49137,3.44598 h 5.62404 v 3.4989 h -5.48215 c -0.22797,1.21687 -0.0487,2.33222 0.1356,3.44596 h 5.3466 v 3.25429 h -4.95905 c -0.22449,1.19342 -0.14479,2.32628 0,3.44593 h 4.95905 v 2.76709 h -5.01517 c -0.25194,1.14864 0.31263,2.29747 0.4755,3.44611 h 4.53967 v 3.12925 h -4.58099 c 0,0 -0.72895,0.25939 -0.75294,0.39082 l 0.16841,2.78412 h 5.16551 v 4.15323 l 1.41585,4.44893 c -6.64403,-0.48403 -13.34495,0.62069 -20.29576,-0.33576 -0.0423,0 -0.0847,-0.0174 -0.12606,-0.0174 -0.62256,0 -1.11399,0.60729 -1.11399,1.2528 v 1.08667 c 0,0.68856 0.55522,1.18319 1.24005,1.24309 3.96951,0.34776 7.86595,0.63683 11.713,0.70002 11.39366,0.22189 25.27557,0.1719 38.29673,-0.0504 4.07198,-0.0851 6.51136,-0.56287 10.64881,-0.64914 0.68722,-0.0174 1.24106,-0.55472 1.24106,-1.24328 v -1.08665 c 0,-0.68857 -0.55523,-1.28857 -1.24106,-1.24327 -2.59304,0.17187 -5.19264,0.49688 -7.8034,0.429 -4.12416,-0.10767 -8.35363,0 -12.62902,0.11974 l 1.48468,-4.66265 v -4.15341 h 4.68897 l -0.13663,-2.24833 c 0,-0.30037 -0.0428,-0.60941 -0.12162,-0.92659 h -4.43062 v -3.12928 h 4.98973 c 0.25674,-1.4785 0.48488,-2.91623 0.0836,-3.44592 h -5.0734 V 379.532 h 4.79383 c 0.21646,-1.13059 0.63348,-2.24451 0,-3.44594 h -4.79383 v -3.25425 h 4.84998 c 0.21257,-1.15088 0.41524,-2.26549 0.30705,-3.44599 h -5.15703 v -3.4989 h 5.18562 c 0.13628,-1.1363 0.37463,-2.25975 0.11128,-3.44598 h -5.29682 v -4.09618 h 2.41863 c -1.41505,-1.60641 -3.40639,-3.18225 -5.58806,-4.4552 v 1.28033 h -3.38438 v -2.9366 c -1.07271,-0.4256 -2.142,-0.74977 -3.16942,-0.95202 v 3.88862 h -3.38441 v -4.0856 z m 24.86508,3.55398 c -0.10604,0.003 -0.20889,0.0339 -0.29645,0.0952 -2.18514,0.78126 -4.49384,2.0196 -7.18497,2.85506 -0.40402,0.14202 -0.52445,0.58594 -0.4331,1.00499 0.46273,2.12163 1.077,1.88113 1.19978,2.73327 0.0614,0.42449 0.65352,0.68074 1.00387,0.43418 2.03609,-1.43285 4.03481,-2.5993 7.18387,-2.854 0.42673,-0.0346 0.56775,-0.59747 0.43415,-1.00497 -0.40051,-1.22137 -1.0102,-1.31389 -1.2008,-2.73327 -0.0428,-0.31882 -0.38824,-0.54273 -0.70635,-0.53056 z m -46.76829,0.0424 c -0.31809,-0.0121 -0.66454,0.21173 -0.70738,0.53056 -0.19057,1.41936 -0.76003,1.3541 -1.1606,2.57547 -0.13371,0.40752 0.0221,0.88467 0.43309,1.00498 2.76202,0.80859 5.15272,1.35953 7.28345,2.65702 0.36593,0.22281 0.94165,-0.0121 1.00281,-0.43524 0.12296,-0.85213 0.60042,-0.25583 1.06316,-2.37745 0.0913,-0.41902 -0.0298,-0.8629 -0.43412,-1.00498 -2.28089,-1.36979 -4.66796,-2.50461 -7.1839,-2.85506 -0.0873,-0.0616 -0.19044,-0.0913 -0.29651,-0.0953 z m 15.3494,3.66411 h 3.38438 v 4.09621 h -3.38438 z m 6.55381,0 h 3.38438 v 4.09621 h -3.38438 z m 6.55381,0 h 3.38442 v 4.09621 h -3.38442 z m 20.36886,0.76989 c -0.10619,7.6e-4 -0.20956,0.0295 -0.29866,0.0888 -2.524,0.28672 -4.9401,1.36015 -7.25486,2.67186 -0.40741,0.13157 -0.49998,0.56643 -0.45851,0.99333 0.11707,1.2022 0.0176,1.79561 -0.12712,2.64432 -0.0717,0.42278 0.32576,0.40752 0.74235,0.30815 2.42572,-0.57867 4.91527,-0.17083 7.7917,-0.09 0.42801,0.0121 0.7219,-0.39391 0.7201,-0.82283 -0.006,-1.28555 -0.2667,-3.82148 -0.42145,-5.24519 -0.0346,-0.31981 -0.37532,-0.55269 -0.69361,-0.54859 z m -51.21803,0.24683 c -0.31754,0.0174 -0.64155,0.2709 -0.65549,0.59196 -0.0621,1.43082 -0.15781,3.66332 -0.0805,4.94656 0.0256,0.42817 0.34669,0.81406 0.77304,0.77412 2.86499,-0.26834 5.27004,-0.41926 7.72817,0 0.42215,0.0718 0.87239,-0.35691 0.77305,-0.77412 -0.19941,-0.83743 -0.33815,-1.10771 -0.29967,-2.31496 0.0138,-0.42872 -0.10672,-0.85663 -0.52206,-0.96157 -2.39503,-1.15796 -4.87538,-2.07164 -7.41264,-2.19318 -0.0924,-0.0535 -0.19718,-0.074 -0.30286,-0.0688 v 0 z m 4.03882,6.5128 c -1.29855,-0.0174 -2.56414,0.0691 -3.76459,0.30391 -0.41637,-0.10003 -0.68026,0.35542 -0.77303,0.77414 -0.29039,1.31022 -0.29257,2.44393 0,3.75415 0.0936,0.4186 0.34818,0.8268 0.77303,0.77306 2.86999,-0.36311 5.21501,-0.27745 7.72926,0 0.42563,0.0468 0.87238,-0.35582 0.77305,-0.77306 -0.19941,-0.83746 0.35069,-1.6111 0,-3.75415 -0.0694,-0.42329 -0.34516,-0.79125 -0.77305,-0.77414 -1.33434,-0.17118 -2.66615,-0.28799 -3.96467,-0.30391 z m 43.70693,0 c -1.29852,0.0174 -2.63034,0.13278 -3.96471,0.30391 -0.42783,-0.0174 -0.70372,0.35085 -0.77301,0.77414 -0.35065,2.14305 0.19941,3.09353 0,3.93098 -0.0993,0.41721 0.3462,0.80894 0.77301,0.77413 2.54186,-0.20739 4.88412,-0.51783 7.72924,0 0.42124,0.0765 0.67956,-0.35553 0.77302,-0.77413 0.29258,-1.3102 0.29038,-2.62076 0,-3.93098 -0.0929,-0.41872 -0.35665,-0.87405 -0.77302,-0.77414 -1.20053,-0.23474 -2.46597,-0.31984 -3.76453,-0.30391 z m -30.0042,0.0121 h 3.38439 v 3.49891 h -3.38439 z m 6.55381,0 h 3.38438 v 3.49891 h -3.38438 z m 6.55381,0 h 3.38442 v 3.49891 h -3.38442 z m 16.85418,5.79798 c -1.29851,0.0174 -2.63036,0.13397 -3.9647,0.30499 -0.42784,-0.0174 -0.62113,0.37307 -0.77299,0.77413 -0.75063,1.98281 0.0693,2.77761 0,3.66723 -0.033,0.42763 0.34612,0.74048 0.77299,0.77416 2.58217,0.20399 4.95441,0.52571 7.72926,0 0.42074,-0.0799 0.67956,-0.35557 0.77306,-0.77416 0.29254,-1.31011 0.29039,-2.35701 0,-3.66723 -0.0929,-0.41871 -0.35669,-0.87411 -0.77306,-0.77413 -1.20048,-0.23479 -2.46605,-0.32093 -3.76456,-0.30499 z m -43.54385,0.0995 c -1.29841,-0.0174 -2.58962,0.0368 -3.84284,0.20543 -0.41642,-0.10004 -0.6803,0.35542 -0.77306,0.77413 -0.29039,1.3103 -0.29256,2.62076 0,3.93103 0.0934,0.4186 0.34628,0.7384 0.77306,0.77415 2.77495,0.23267 5.14602,0.15801 7.72816,0 0.4274,-0.0262 0.80731,-0.34653 0.77405,-0.77415 -0.0693,-0.8896 0.75066,-1.94814 0,-3.93103 -0.15155,-0.40105 -0.34616,-0.79131 -0.77405,-0.77413 -1.28205,-0.10578 -2.5869,-0.18968 -3.88532,-0.20543 z m 13.58205,1.04735 h 3.38439 v 3.25436 h -3.38439 z m 6.55381,0 h 3.38438 v 3.25436 h -3.38438 z m 6.55381,0 h 3.38442 v 3.25436 h -3.38442 z m 20.77337,4.74644 c -0.0511,0 -0.10253,1.7e-4 -0.15467,0.0174 -2.74117,0.65817 -5.10741,0.10592 -7.72927,0 -0.42784,-0.0174 -0.7985,0.34601 -0.77297,0.77416 0.11785,1.98286 0.21567,3.04036 0,3.92997 -0.10097,0.41685 0.34497,0.76252 0.77297,0.77416 2.2925,0.0625 4.80402,0.35122 7.72927,0 0.42511,-0.0504 0.69771,-0.35191 0.77302,-0.77416 0.23357,-1.31028 -0.15328,-2.61969 0,-3.92997 0.0435,-0.37276 -0.26236,-0.76218 -0.6184,-0.78684 v 0 z m -51.46163,0.23402 v 0 c -0.35606,0.0243 -0.6609,0.41513 -0.61731,0.78788 0.1533,1.31011 -0.23363,2.38253 0,3.69264 0.0753,0.42224 0.34525,0.75506 0.77302,0.77416 2.92523,0.13197 5.43575,-0.38439 7.7282,0 0.42236,0.0711 0.87513,-0.35731 0.77405,-0.77416 -0.21566,-0.88961 -0.118,-1.70994 0,-3.69264 0.0254,-0.42814 -0.34616,-0.79239 -0.77405,-0.77519 -2.62188,0.10418 -4.98703,0.65799 -7.7282,0 -0.052,-0.0174 -0.10471,-0.0174 -0.15572,-0.0174 z m 17.58064,1.71985 h 3.38439 v 2.7671 h -3.38439 z m 6.55381,0 h 3.38438 v 2.7671 h -3.38438 z m 6.55381,0 h 3.38442 v 2.7671 h -3.38442 z m -24.7645,3.74559 v 7.6e-4 c -1.92073,0 -3.7515,0.30141 -5.76805,0.12324 -0.42651,-0.0382 -0.71062,0.35088 -0.77302,0.7752 -0.19276,1.31028 -0.5603,2.61969 0,3.92998 0.16858,0.39428 0.34497,0.64863 0.77302,0.63647 2.92523,-0.0834 6.10095,-0.34462 7.92512,0.0399 0.41898,0.0886 0.76561,-0.34532 0.77412,-0.77398 0.0184,-0.88978 0.21123,-1.84866 -0.19699,-3.83153 -0.0866,-0.42 -0.34992,-0.71634 -0.77405,-0.7752 -0.67036,-0.0937 -1.31995,-0.12499 -1.96015,-0.12325 z m 37.65398,0.12325 c -0.42745,-0.0262 -0.6865,0.35503 -0.77299,0.77519 -0.40821,1.98269 -0.0184,3.04019 0,3.92998 0.008,0.42884 0.34584,0.8042 0.77299,0.77398 2.29245,-0.16146 4.80405,-0.0834 7.72926,0 0.42801,0.0174 0.60449,-0.3797 0.77306,-0.77398 0.56027,-1.31028 0.19276,-2.61968 0,-3.92998 -0.0625,-0.42431 -0.34796,-0.82622 -0.77306,-0.77519 -2.68874,0.32275 -5.04779,0.15973 -7.72926,0 z m -25.9971,2.34347 h 3.38439 v 3.12944 h -3.38439 z m 6.55381,0 h 3.38438 v 3.12944 h -3.38438 z m 6.55381,0 h 3.38442 v 3.12944 h -3.38442 z m -24.7645,3.19089 c -1.92073,0 -3.7515,0.30244 -5.76805,0.12325 -0.42651,-0.0382 -0.71062,0.34984 -0.77302,0.77416 -0.19276,1.31028 -0.5603,2.38356 0,3.69384 0.16858,0.39429 0.35004,0.7075 0.77302,0.77399 2.92523,0.46078 5.43575,0.0573 7.7282,0 0.42804,-0.0174 0.76556,-0.34515 0.77405,-0.77399 0.0184,-0.88977 0.40822,-1.71098 0,-3.69384 -0.0866,-0.41999 -0.34992,-0.71513 -0.77405,-0.77416 -0.67036,-0.0937 -1.31995,-0.12499 -1.96015,-0.12325 z m 37.65398,0.12325 c -0.42682,-0.0347 -0.6865,0.35417 -0.77299,0.77416 -0.40821,1.98286 -0.0184,3.04141 0,3.931 0.008,0.42883 0.34494,0.7634 0.77299,0.77416 2.29245,0.0574 4.80405,0.46077 7.72926,0 0.42294,-0.0659 0.60449,-0.37987 0.77306,-0.77416 0.56027,-1.31028 0.19276,-2.62072 0,-3.931 -0.0625,-0.42432 -0.34766,-0.82314 -0.77306,-0.77416 -1.33672,0.1545 -2.52113,0.0694 -3.77725,0.0591 -1.27522,-0.0174 -2.62227,0.0486 -3.95201,-0.0591 z m -25.9971,2.98966 h 3.38439 v 4.15325 l 1.52489,4.7899 c -2.0988,-0.0486 -4.20543,-0.14757 -6.31975,-0.31876 -0.005,-2.2e-4 -0.006,-5e-4 -0.0121,-7.6e-4 l 1.42212,-4.4701 v -4.15342 z m 6.55381,0 h 3.38438 v 4.15325 l 1.53021,4.80675 c -2.13506,0.0295 -4.28121,0.0346 -6.43839,-0.0174 l 1.5238,-4.79198 v -4.15325 z m 6.55381,0 h 3.38442 v 4.15325 l 1.48463,4.66803 c -2.12273,0.0574 -4.2461,0.10592 -6.39712,0.13714 l 1.52807,-4.80464 v -4.15327 z m -30.68505,2.66119 v 7.6e-4 c -0.33856,0.0366 -0.56595,0.40818 -0.62052,0.77935 -0.19276,1.31029 -0.5603,2.62075 0,3.93103 0.16858,0.39428 0.35573,0.67815 0.77302,0.77416 2.24097,0.51634 4.91297,0.0468 7.7282,0 0.42815,0 0.76556,-0.34533 0.77405,-0.77416 0.0184,-0.88961 0.40822,-1.94815 0,-3.93103 -0.0866,-0.41996 -0.34861,-0.82171 -0.77405,-0.77293 -2.46369,0.28212 -4.95266,0.4988 -7.7282,0 -0.0527,-0.0174 -0.10418,-0.0174 -0.15259,0 z m 51.45524,0.158 c -0.0483,0 -0.099,0 -0.1514,0 -2.77553,0.4988 -5.26559,0.28213 -7.72927,0 -0.42545,-0.0486 -0.68649,0.35401 -0.773,0.77398 -0.4082,1.98286 -0.0184,3.0414 0,3.93102 0.008,0.42882 0.34908,0.83457 0.773,0.77415 2.57635,-0.36737 5.15295,-0.066 7.72927,0 0.42802,0.0174 0.60449,-0.37988 0.77305,-0.77415 0.56029,-1.31011 0.19272,-2.62074 0,-3.93102 -0.0545,-0.37119 -0.28316,-0.74394 -0.62165,-0.7804 v -7.7e-4 z"
       id="path5145"
       inkscape:connector-curvature="0" />
    <path
       d="m 412.98949,1103.3571 5.58135,9.6672 -5.58135,9.6672 -11.1627,0 -5.58135,-9.6672 5.58135,-9.6672 z"
       inkscape:randomized="0"
       inkscape:rounded="0"
       inkscape:flatsided="true"
       sodipodi:arg2="-0.52359878"
       sodipodi:arg1="-1.0471976"
       sodipodi:r2="9.6671848"
       sodipodi:r1="11.162703"
       sodipodi:cy="1113.0243"
       sodipodi:cx="407.40814"
       sodipodi:sides="6"
       id="path5147"
       style="font-style:normal;font-weight:normal;font-size:medium;line-height:125%;font-family:sans-serif;letter-spacing:0px;word-spacing:0px;fill:#b3b3b3;fill-opacity:1;stroke:#000000;stroke-width:0.30448636;stroke-linecap:butt;stroke-linejoin:round;stroke-miterlimit:4;stroke-dasharray:none;stroke-dashoffset:0;stroke-opacity:1"
       sodipodi:type="star"
       transform="matrix(0,-4.4720117,4.4565097,0,-4334.4575,2315.8416)" />
    <path
       transform="matrix(0,-4.4720117,4.4565097,0,-4515.4979,2315.8416)"
       sodipodi:type="star"
       style="font-style:normal;font-weight:normal;font-size:medium;line-height:125%;font-family:sans-serif;letter-spacing:0px;word-spacing:0px;fill:#b3b3b3;fill-opacity:1;stroke:#000000;stroke-width:0.30448636;stroke-linecap:butt;stroke-linejoin:round;stroke-miterlimit:4;stroke-dasharray:none;stroke-dashoffset:0;stroke-opacity:1"
       id="path5149"
       sodipodi:sides="6"
       sodipodi:cx="407.40814"
       sodipodi:cy="1113.0243"
       sodipodi:r1="11.162703"
       sodipodi:r2="9.6671848"
       sodipodi:arg1="-1.0471976"
       sodipodi:arg2="-0.52359878"
       inkscape:flatsided="true"
       inkscape:rounded="0"
       inkscape:randomized="0"
       d="m 412.98949,1103.3571 5.58135,9.6672 -5.58135,9.6672 -11.1627,0 -5.58135,-9.6672 5.58135,-9.6672 z" />
  </g>
</svg>
