<?xml version="1.0" encoding="UTF-8" standalone="no"?>
<!-- Created with Inkscape (http://www.inkscape.org/) -->

<svg
   xmlns:dc="http://purl.org/dc/elements/1.1/"
   xmlns:cc="http://creativecommons.org/ns#"
   xmlns:rdf="http://www.w3.org/1999/02/22-rdf-syntax-ns#"
   xmlns:svg="http://www.w3.org/2000/svg"
   xmlns="http://www.w3.org/2000/svg"
   xmlns:sodipodi="http://sodipodi.sourceforge.net/DTD/sodipodi-0.dtd"
   xmlns:inkscape="http://www.inkscape.org/namespaces/inkscape"
   width="825"
   height="1125"
   viewBox="0 0 825 1125"
   version="1.1"
   id="svg24"
   inkscape:version="0.92.0 r15299"
   sodipodi:docname="special_events_panic.svg">
  <defs
     id="defs18">
    <inkscape:path-effect
       effect="roughen"
       id="path-effect4547"
       is_visible="true"
       method="size"
       max_segment_size="5"
       segments="2"
       displace_x="1;1"
       displace_y="1;1"
       global_randomize="1;1"
       handles="along"
       shift_nodes="true"
       fixed_displacement="false"
       spray_tool_friendly="false" />
  </defs>
  <sodipodi:namedview
     id="base"
     pagecolor="#ffffff"
     bordercolor="#666666"
     borderopacity="1.0"
     inkscape:pageopacity="0.0"
     inkscape:pageshadow="2"
     inkscape:zoom="1.979899"
     inkscape:cx="300.68959"
     inkscape:cy="616.41918"
     inkscape:document-units="px"
     inkscape:current-layer="layer1"
     showgrid="false"
     units="px"
     showguides="true"
     inkscape:guide-bbox="true"
     inkscape:window-width="1920"
     inkscape:window-height="1017"
     inkscape:window-x="1672"
     inkscape:window-y="134"
     inkscape:window-maximized="1"
     inkscape:snap-global="false" />
  <metadata
     id="metadata21">
    <rdf:RDF>
      <cc:Work
         rdf:about="">
        <dc:format>image/svg+xml</dc:format>
        <dc:type
           rdf:resource="http://purl.org/dc/dcmitype/StillImage" />
        <dc:title />
      </cc:Work>
    </rdf:RDF>
  </metadata>
  <g
     inkscape:label="Layer 1"
     inkscape:groupmode="layer"
     id="layer1"
     transform="translate(0,221.28127)">
    <path
       style="fill:#ffffff;fill-opacity:1;stroke:none;stroke-width:4.32276201;stroke-miterlimit:4;stroke-dasharray:none;stroke-opacity:0.98994978"
       inkscape:connector-curvature="0"
       d="m 413.72351,182.88826 c -10.88743,0 -18.71796,6.0206 -23.24035,13.58184 -4.04448,6.76104 -5.72713,14.60521 -6.05539,21.47517 -12.34223,6.37731 -26.01543,12.80684 -37.02342,19.38083 -5.77488,3.4491 -10.80933,6.91736 -14.59897,10.64455 -3.78965,3.72712 -6.58585,7.92428 -6.58585,12.87553 0,2.10701 0.98485,3.82376 2.09241,5.08345 1.11277,1.26422 2.44142,2.24086 3.95688,3.15313 3.0304,1.82717 6.85084,3.34943 11.0538,4.66696 6.24334,1.95817 13.23557,3.41335 19.31522,4.03519 -6.04698,10.88988 -14.09463,20.89025 -21.14887,30.47303 -8.15257,11.0758 -15.26973,21.69665 -15.26973,33.49682 0,1.68561 -0.0179,3.00127 0.12276,4.32364 0.14767,1.32337 0.50528,2.97149 1.77819,4.2789 1.27213,1.30797 2.82948,1.65991 4.09804,1.8039 1.26728,0.15452 2.54665,0.15452 4.186,0.15452 h 44.97837 c 3.26526,0 5.65579,0.20604 8.11519,-1.44412 2.45993,-1.65217 3.35688,-3.9086 5.10905,-7.28048 h 0.0179 l 0.0178,-0.15454 c 0,0 3.92072,-8.33028 8.59872,-16.59825 2.33794,-4.13139 4.87799,-8.24831 7.08664,-11.16487 1.10547,-1.45691 2.13914,-2.61483 2.88331,-3.2677 0.22062,-0.20417 0.33213,-0.23086 0.47684,-0.32705 0.14767,0.15453 0.2473,0.15453 0.47682,0.32705 0.74347,0.65523 1.77819,1.80892 2.88308,3.2677 2.208,2.91656 4.74776,7.03348 7.08687,11.16487 4.67747,8.26797 8.59843,16.59825 8.59843,16.59825 l 0.0179,0.15454 h 0.0178 c 1.75359,3.37188 2.64135,5.61466 5.08521,7.27159 2.44356,1.65484 4.82835,1.45698 8.04734,1.45698 h 45.17663 c 1.61374,0 2.87099,0 4.13078,-0.15452 1.25991,-0.15454 2.82218,-0.50579 4.08108,-1.82704 1.25737,-1.32337 1.60621,-2.94784 1.74617,-4.26401 0.14768,-1.30797 0.12277,-2.63115 0.12277,-4.3175 0,-11.79862 -7.11729,-22.41953 -15.26973,-33.49552 -7.05384,-9.58265 -15.10142,-19.58321 -21.14882,-30.47302 6.07966,-0.62507 13.07194,-2.07888 19.31528,-4.03507 4.20285,-1.32342 8.02327,-2.84072 11.05379,-4.66702 1.51523,-0.9067 2.84614,-1.89133 3.95583,-3.15157 1.11034,-1.26429 2.0949,-2.97782 2.0949,-5.08519 0,-4.95113 -2.79609,-9.14836 -6.58568,-12.87535 -3.78977,-3.72725 -8.82431,-7.19539 -14.59879,-10.64468 -11.00859,-6.57374 -24.68119,-13.00332 -37.02395,-19.3807 -0.32974,-6.86965 -2.01145,-14.7137 -6.05529,-21.47505 -4.52238,-7.56137 -12.35278,-13.58203 -23.24039,-13.58203 z"
       id="path4549" />
    <path
       style="color:#000000;font-style:normal;font-variant:normal;font-weight:normal;font-stretch:normal;font-size:medium;line-height:normal;font-family:sans-serif;font-variant-ligatures:normal;font-variant-position:normal;font-variant-caps:normal;font-variant-numeric:normal;font-variant-alternates:normal;font-feature-settings:normal;text-indent:0;text-align:start;text-decoration:none;text-decoration-line:none;text-decoration-style:solid;text-decoration-color:#000000;letter-spacing:normal;word-spacing:normal;text-transform:none;writing-mode:lr-tb;direction:ltr;text-orientation:mixed;dominant-baseline:auto;baseline-shift:baseline;text-anchor:start;white-space:normal;shape-padding:0;clip-rule:nonzero;display:inline;overflow:visible;visibility:visible;opacity:1;isolation:auto;mix-blend-mode:normal;color-interpolation:sRGB;color-interpolation-filters:linearRGB;solid-color:#000000;solid-opacity:1;vector-effect:none;fill:#000000;fill-opacity:1;fill-rule:evenodd;stroke:none;stroke-width:4.28906059;stroke-linecap:round;stroke-linejoin:miter;stroke-miterlimit:4;stroke-dasharray:none;stroke-dashoffset:0;stroke-opacity:1;color-rendering:auto;image-rendering:auto;shape-rendering:auto;text-rendering:auto;enable-background:accumulate"
       d="m 462.89173,95.09957 c -0.93847,-0.04313 -1.37984,-0.07358 -1.69939,0.809868 l -2.56327,4.478642 -2.08863,5.19714 -1.28768,4.10318 -1.53447,4.70626 -2.15257,4.29613 -2.15415,5.50319 -0.66088,4.15011 -1.76502,4.6244 -1.92006,4.51717 -1.82273,4.72546 -1.59165,4.59069 -1.52007,5.20404 -2.25645,3.39575 c -0.32082,1.70671 0.89352,2.91993 1.94293,3.39116 1.04941,0.47123 1.76814,0.0423 2.27345,-1.29541 l 1.7199,-4.55579 1.73027,-4.58035 2.32048,-4.56563 1.68424,-4.72774 1.5342,-4.3503 1.65526,-4.62918 1.8741,-4.48775 1.69591,-4.60475 1.69584,-4.5163 1.49828,-5.13885 1.88304,-3.9014 1.79802,-5.32544 1.27392,-4.44792 c 0.863,-0.994654 -0.0938,-2.498369 -1.56282,-2.56638 z m -72.97772,6.00156 c -1.35406,0.0628 -1.87353,0.71936 -1.54331,2.03403 l 0.57006,4.75302 0.86327,4.7646 0.93362,4.29679 0.92437,4.77644 1.08337,4.3807 0.70896,5.08959 1.30249,4.48167 1.17224,4.35153 0.82287,4.68758 1.26294,4.26467 1.91132,4.97238 0.72791,5.06743 c 0.64236,1.0437 2.70182,2.00796 3.84652,1.66153 1.14471,-0.34643 1.04558,-2.90764 0.67787,-4.32351 l -1.20448,-4.7666 -0.97991,-4.21217 -1.06289,-4.63655 -0.99111,-4.28953 -1.04069,-4.59616 -1.108,-4.44556 -0.50354,-4.48326 -1.4576,-4.53874 -1.09313,-3.63013 -1.11162,-5.12975 -1.57018,-4.96933 -0.10533,-4.37839 c -0.53127,-0.67945 -1.99294,-1.23031 -3.03602,-1.18228 z m -60.05067,33.7555 c -0.96264,0.0153 -1.25019,0.57277 -1.54382,1.33046 -0.29364,0.75768 -0.51433,1.72509 0.18661,2.38507 l 3.45051,3.32645 2.98158,3.83993 3.94717,3.40033 3.20236,3.00047 4.01405,2.40235 3.99317,3.7987 1.85474,2.43433 3.72171,4.442 3.76643,2.62057 3.25566,3.24365 3.80514,3.46638 3.73626,3.62742 c 0.60406,0.83973 1.65937,0.14659 2.30348,-0.66936 0.64411,-0.81596 1.01801,-1.93213 -0.0227,-2.927 l -3.26234,-3.27513 -3.65754,-3.68404 -3.14951,-3.78489 -2.70337,-3.06529 -3.1536,-3.4345 -3.64578,-3.21339 -3.23812,-3.64305 -4.47924,-3.34623 -2.54689,-2.92495 -3.97994,-2.40058 -3.30129,-3.36434 -3.76216,-3.01157 c -0.2544,-0.41649 -1.19334,-0.58267 -1.77253,-0.57379 z m 178.24158,9.36783 c -0.48275,0.0207 -1.35599,0.81993 -1.72166,1.13579 l -3.7085,2.89284 -2.89415,3.48751 -4.17206,3.6903 -3.58016,3.11215 -3.78933,2.80235 -2.91244,2.63909 -4.44225,3.42654 -3.25172,2.69604 -4.35446,3.34467 -3.94395,2.16018 -3.96077,3.48568 -4.09084,3.17056 c -0.88695,0.94329 -0.96118,2.12731 -0.19985,2.96667 0.76134,0.83937 2.59803,1.15056 3.69618,0.18969 l 4.27058,-3.34569 3.46884,-2.93993 3.11132,-2.58805 4.06408,-3.55005 3.68326,-3.19926 3.02739,-3.15089 4.41726,-3.41031 3.36418,-2.79314 4.68312,-3.81869 2.5525,-3.18326 3.9939,-3.08699 3.54562,-2.12336 c 1.06271,-0.84759 1.76446,-1.59381 1.52639,-2.44151 -0.23806,-0.84769 -1.35221,-1.61277 -2.38248,-1.56893 z m -94.25312,37.10592 c -0.0201,0 -0.0882,0.10124 -0.10834,0.10124 -0.003,-1e-5 -0.0146,-0.0433 -0.0176,-0.0433 l -0.23763,0.525 c 0.22055,-0.51267 0.28662,-0.58657 0.27582,-0.58657 l 0.0569,-0.0277 0.0779,0.41544 0.11394,-0.0127 c -1.70327,-0.0328 -2.5917,-0.52742 -4.15379,-0.30256 -1.10293,-0.3322 -4.2536,1.12924 -5.94779,1.74679 -1.80152,0.8319 -2.4681,0.73618 -3.52688,1.28499 -1.45403,0.47692 -1.74328,1.50253 -2.84165,2.33131 -0.49942,1.0027 -2.8777,1.55705 -4.01661,2.61442 -1.46295,0.57664 -1.33723,2.59469 -2.0869,3.69516 -0.76937,1.12939 -2.2574,2.03589 -2.92435,3.1449 -0.80312,1.33522 -1.60298,2.8373 -2.21041,4.20594 -0.6886,1.46955 -1.68277,2.10855 -2.10301,3.43617 -1.07396,0.95813 -0.57816,3.37023 -0.78134,4.95798 0.0236,1.65187 -0.2953,2.53126 -0.4227,3.80252 -0.13865,1.38349 -0.20027,2.63138 -0.29669,3.99947 -1.32936,0.67955 -2.4957,1.43365 -3.85138,2.12026 -1.21287,0.77562 -2.23445,1.9942 -3.64802,2.70349 -0.88154,1.30704 -3.03425,1.74781 -4.50998,2.45452 -1.44929,0.94363 -2.99426,0.89066 -4.3229,1.50318 -1.69665,0.26106 -2.10618,1.16973 -3.43302,1.8055 -0.93275,0.64508 -3.00172,1.79097 -4.54746,2.54634 -1.2592,0.96654 -2.55572,1.19649 -3.87635,1.81666 -1.24532,0.5585 -3.12125,2.11117 -4.449,2.78163 -1.30794,0.66047 -1.81433,0.38837 -2.97966,1.08051 -1.45445,0.86393 -2.88965,1.73885 -4.28643,2.62599 -1.39677,0.88713 -2.75728,1.806 -4.058,2.71884 -1.30087,0.93093 -2.43505,1.81128 -3.59921,2.74595 -1.16777,0.93756 -2.39744,1.8386 -3.39241,2.81182 -0.99219,0.9705 -1.40836,2.46083 -2.26594,3.54154 -0.31367,1.52561 -1.63192,2.10207 -2.34753,3.20395 -0.70951,1.10744 -1.37305,2.5013 -1.82606,3.75234 -0.45639,1.26035 -0.64291,2.47003 -0.64291,3.9167 0,1.37839 0.31953,2.57579 0.78838,3.63937 0.46886,1.06357 1.74972,1.42577 2.41197,2.17487 l -0.94756,0.41551 c 0.79594,0.81328 1.81186,1.23779 2.59304,1.83639 0.78118,0.59861 1.41853,1.05685 2.22459,1.53948 1.08208,0.64887 2.19603,1.08127 3.40534,1.69451 1.19044,0.41459 2.61993,1.39871 3.97164,2.00229 1.31633,0.58779 2.22724,1.08646 3.63407,1.52506 1.32239,0.41249 2.59947,0.82415 3.99475,1.16929 1.32219,0.38478 3.41326,1.09602 4.87081,1.37926 1.86159,0.68819 3.38656,0.61159 4.5636,0.72387 1.37654,0.13131 1.64411,0.30362 3.08208,0.50467 -0.81292,1.36326 -1.68396,2.77343 -2.54197,4.10484 -0.87911,1.37686 -1.48777,2.66066 -2.36662,3.94442 -0.68617,1.37898 -2.21624,2.77299 -3.1655,4.07292 -1.24788,1.33038 -2.40499,2.32886 -3.26757,3.49774 -1.55297,1.15687 -1.54538,2.33544 -2.33743,3.53124 -0.71677,1.25848 -1.60679,2.76805 -2.5252,4.11141 -0.86744,1.26882 -1.77289,2.36548 -2.70759,3.62828 -1.01826,1.37583 -2.02228,2.75805 -3.01012,4.13513 -0.98136,1.38375 -2.26674,2.71622 -3.19622,4.10007 -1.22162,1.31254 -1.79894,2.64747 -2.61133,4.01367 -0.87211,1.3613 -1.42124,2.54998 -2.13963,3.99857 -0.54492,1.2198 -1.13996,3.08362 -1.75251,4.67613 -0.25468,1.46714 -1.08174,2.97197 -1.53738,4.48847 -0.42592,1.4725 -0.92105,3.16644 -1.18716,4.66608 -0.27188,1.5321 -1.0745,3.54644 -1.0745,5.08933 0,1.65267 0.80482,2.04172 0.96275,3.51879 l -0.0645,0.30362 0.76554,0.6941 c -0.30684,0.41072 -0.32234,1.14526 -0.0684,2.02368 0.25389,0.87843 0.57073,2.1705 1.44838,3.06739 0.87061,0.89024 1.70321,1.54792 2.6965,1.84088 0.99328,0.29297 1.9977,0.37819 2.72508,0.46052 1.42737,0.17208 3.67509,-0.47577 5.30123,-0.47577 l 4.65255,0.0589 4.92203,0.4967 4.78819,0.19876 4.33324,0.60882 6.00493,-0.16869 3.99931,-0.52523 5.43245,0.26601 4.99422,-0.27816 4.90017,-0.78628 c 1.5704,0.30868 3.6716,1.0976 5.20913,0.98163 1.53753,-0.11596 3.04927,-1.35912 4.57385,-2.37647 l -0.12907,0.45525 c 1.10216,-0.98853 1.95095,-2.15417 2.69401,-3.33677 0.74305,-1.1826 1.81927,-2.13935 2.51018,-3.49746 l 0.22116,-0.20061 0.43389,-1.15315 c -0.008,-0.25844 0.25719,-1.2075 0.66418,-2.19401 0.43405,-1.22289 0.58829,-2.5021 1.27444,-3.89908 0.37082,-1.83386 1.84505,-3.25574 2.91347,-4.99828 1.06783,-1.74159 1.39107,-4.26535 2.53001,-6.26734 0.7661,-1.34638 1.48553,-2.68081 2.37794,-3.85721 0.74943,-1.26154 2.02017,-2.32015 2.92989,-3.33681 0.90107,-1.00699 1.7303,-1.86356 2.42298,-2.77336 l -0.40687,-0.12788 c 0.92979,-0.77173 1.57139,-1.32038 2.09013,-1.87504 0.51987,0.55541 0.76475,0.67022 1.42485,1.53699 0.69591,0.91422 1.30839,2.15996 2.07792,3.37664 0.63274,1.35101 1.92419,2.24405 2.74617,3.56243 0.83066,1.3323 1.3166,2.96021 2.08732,4.31404 1.11672,1.96315 2.6697,4.41205 3.64385,6.24126 1.36103,2.13915 1.69597,3.08637 2.33154,4.39024 0.80706,1.468 1.53338,3.34897 1.92368,4.27015 0.39372,0.92924 0.14529,0.81358 0.20307,0.93524 l 0.51012,1.74842 0.85134,0.45088 c 0.54877,1.16232 1.33851,2.57766 2.092,3.67925 0.75348,1.1016 2.24855,1.16765 3.5444,2.04144 l -0.81671,0.76698 c 1.53697,0.99884 2.86384,1.4202 4.40128,1.61124 1.53745,0.19103 4.03138,0.21451 5.58901,0.21451 l 4.40607,0.0722 5.92959,0.26788 4.58008,0.0807 4.74793,0.0767 5.65814,-0.36585 4.16193,-0.14113 5.15409,-0.18802 4.56932,0.0693 5.10571,-0.0204 c 1.49499,0.0858 2.69443,0.11153 4.11808,-0.0618 0.71486,-0.0872 1.45341,-0.0662 2.4303,-0.43669 0.97689,-0.37044 2.20075,-1.43057 3.0679,-2.33569 l -0.44113,0.30836 c 1.07598,-0.9049 1.95651,-1.5305 2.35562,-2.48738 0.39911,-0.95687 0.63136,-2.05803 0.71135,-2.80367 0.16742,-1.47967 0.17918,-2.58574 0.17918,-4.2307 0,-1.56772 -0.58752,-3.604 -0.81738,-5.13569 -0.66736,-1.83415 -0.91789,-2.94294 -1.26355,-4.25086 -0.80449,-1.65769 -0.97768,-2.80599 -1.46977,-4.14613 -0.71285,-1.51338 -0.32802,-2.89925 -0.98331,-4.30947 0.0761,-1.58185 -1.31058,-3.64519 -2.25819,-5.17563 -0.56348,-1.88977 -1.63001,-2.85898 -2.62185,-4.12508 -0.88272,-1.53155 -2.17809,-2.27429 -3.30794,-3.53869 -1.11418,-1.24687 -2.11267,-2.49054 -3.15107,-3.89362 -0.92204,-1.24576 -1.92145,-2.72085 -2.86797,-3.98942 -0.96965,-1.43419 -2.10551,-2.49108 -3.02119,-3.71768 -1.20817,-1.29212 -1.76415,-2.56165 -2.66915,-3.80938 -0.8743,-1.39104 -2.27036,-2.66436 -3.2029,-3.98119 -1.28004,-1.31873 -2.21151,-2.43438 -3.03774,-3.71921 -1.32008,-1.22872 -1.65033,-2.5071 -2.3669,-3.91018 -0.71259,-1.39532 -1.14307,-2.65559 -1.9809,-4.06058 1.34313,-0.18817 3.07534,-0.50464 4.42698,-0.7808 1.63676,-0.33521 2.10632,-0.44018 3.30973,-0.74404 1.04706,-0.25905 2.82466,-0.81567 4.32216,-1.25268 1.34788,-0.39335 2.9167,-0.7442 4.21462,-1.14865 l -0.60267,0.57604 -0.23363,-0.0873 c 1.6592,-0.61441 3.01381,-1.00975 4.45442,-1.58284 1.29376,-0.40451 3.15973,-1.24718 4.48747,-1.89735 1.25272,-0.61343 2.14097,-1.21481 3.19173,-1.8443 l -0.32502,0.12706 c 0.98662,-0.54795 1.9856,-1.3047 2.77538,-1.90161 0.78978,-0.59691 1.96033,-1.68041 2.60999,-2.41418 l -0.77518,0.72208 0.23046,-0.0517 c 0.64073,-0.76306 1.25349,-2.32706 1.73793,-3.41124 0.48444,-1.08418 0.60618,-2.24518 0.60618,-3.6236 0,-1.42773 -0.18259,-2.87342 -0.52535,-4.12372 -0.33148,-1.34304 -0.66075,-2.22534 -1.26684,-3.30384 -0.48114,-1.0047 -0.84312,-2.40805 -1.76106,-3.48632 -0.86556,-1.01674 -2.80583,-1.30578 -3.77829,-2.25695 -0.99347,-0.97174 -1.85119,-2.68269 -2.94802,-3.66263 -0.86342,-1.66634 -2.14002,-1.90423 -3.31616,-2.72691 -1.24016,-0.99115 -2.56217,-1.70281 -3.96125,-2.51803 -1.37918,-0.80363 -2.78162,-1.49516 -4.25709,-2.3717 -1.19896,-0.71204 -3.39704,-0.8506 -4.65129,-1.55997 -2.06982,-0.0504 -2.24639,-1.78165 -3.36172,-2.4143 -1.24653,-1.21671 -2.12335,-1.57242 -3.34659,-2.25001 -1.06616,-0.96319 -3.49066,-1.32372 -4.88947,-2.06276 -1.93659,-0.45267 -3.31523,-1.78452 -4.49357,-2.41842 -2.01037,-1.09823 -1.93244,-1.36872 -2.94596,-1.91721 -1.208,-0.98071 -2.93105,-1.40706 -4.31345,-2.0996 -1.49304,-0.61354 -2.59325,-1.26591 -3.93458,-1.96089 -1.27936,-0.66286 -2.63471,-1.42012 -4.0541,-2.14567 -0.0955,-1.3521 -0.25683,-2.71592 -0.45974,-4.11663 -0.21984,-1.38566 -0.25553,-2.64682 -0.58267,-4.07608 -0.12961,-1.29645 -0.76683,-2.98065 -1.28998,-4.48374 -0.48578,-1.40929 -1.05404,-2.84298 -1.69802,-4.22662 -0.65074,-1.39818 -1.31412,-2.79592 -2.10512,-4.11126 -0.68487,-1.13883 -1.80004,-2.32304 -2.63737,-3.38473 -1.13245,-1.06527 -2.25366,-1.73811 -3.1471,-2.63281 -1.52917,-0.69514 -2.04896,-1.69285 -3.01997,-2.48127 -1.26976,-0.79683 -2.21154,-1.8049 -3.3418,-2.5021 -1.26824,-0.9051 -2.40047,-1.3217 -3.69331,-1.82284 -1.36917,-0.51086 -2.44577,-1.63966 -3.9951,-1.91078 -1.48115,-0.25918 -3.4891,0.33475 -5.20161,0.33088 z m -113.26269,1.49652 c -1.24786,-0.0212 -2.23233,0.60005 -2.38099,1.56689 -0.14866,0.96683 0.76888,1.76976 1.96547,2.12439 l 5.1858,1.76266 3.52016,1.70204 4.4508,1.50059 4.57968,1.12392 5.4713,1.69685 3.52846,2.0831 4.51586,1.38589 4.40044,1.57374 4.74657,1.18491 4.72029,1.46072 4.4732,0.8363 4.78446,1.33267 4.80626,0.88029 c 1.16817,0.7062 1.96403,0.15766 2.23377,-0.81385 0.26973,-0.97152 0.14931,-2.29957 -1.24396,-2.71013 l -4.59665,-1.45321 -3.89923,-0.78106 -5.88258,-1.94843 -4.46188,-2.15878 -3.74838,-1.18047 -4.71688,-0.9012 -3.96994,-2.02835 -4.97044,-1.44074 -4.47033,-1.13882 -5.00622,-1.17816 -4.45885,-1.31551 -4.82867,-1.19906 -4.1384,-1.86853 c -0.32089,0.0255 -0.39468,-0.095 -0.60912,-0.0987 z m 113.15377,3.03881 c 1.67343,5e-4 3.21657,-0.0171 4.7241,0.26659 1.48236,0.29464 3.25573,1.33976 4.60781,1.87467 1.48445,1.10172 2.07606,0.87319 3.10753,1.45592 1.06417,0.59988 1.76002,1.55217 2.86003,2.46856 0.4055,0.93273 2.46049,2.11566 3.56687,3.21547 0.97895,0.97313 2.00781,2.0589 2.67639,3.17066 0.75623,1.25752 1.34366,2.89958 1.9162,4.21763 0.46533,1.58332 0.44803,2.89226 0.84846,4.1299 -0.13579,1.71042 0.30099,2.22919 0.66376,3.46082 -0.10986,1.08451 1.12037,2.54382 1.52313,4.01437 0.35582,1.29916 0.46682,2.9004 0.52842,4.17677 l 0.34392,1.16201 1.17509,0.43299 c 1.32609,0.72928 2.35008,1.44752 3.71069,2.17206 1.11858,0.75883 3.21945,1.99239 4.69496,2.7555 1.56211,1.10457 2.19219,1.35609 3.44247,1.98482 1.16721,0.81598 2.95518,1.46478 4.43578,2.18571 1.40845,0.68096 3.4853,1.77439 4.88209,2.44957 1.85873,0.98449 2.34519,1.1745 3.46445,1.71599 1.40008,0.72115 2.65875,1.39422 3.9712,2.04504 1.26862,0.73752 2.52785,1.02221 3.8402,1.69427 1.26129,0.64592 3.0653,1.23096 4.30035,1.96442 1.41826,0.84255 3.43269,1.45389 4.70453,2.33258 1.86888,0.57295 2.45472,1.50335 3.43978,2.38024 1.28183,0.78499 1.53253,2.94011 2.4345,3.96003 0.87719,0.99188 2.1078,1.25978 3.01303,2.14521 1.19065,1.16459 2.01135,2.13173 2.90294,3.30471 0.67511,1.0231 0.96101,2.59128 1.51987,3.92108 0.52435,1.24767 1.28952,1.83942 1.28952,3.15843 0,1.41361 -0.61091,3.27351 -1.49558,4.27534 -0.90718,1.02417 -1.80183,2.47425 -3.19653,3.30427 l -0.21664,-0.91222 -0.31675,0.30501 c -0.7434,0.53535 -1.78531,1.13691 -2.80987,1.63905 -1.14252,0.57376 -1.57295,1.41262 -2.74089,1.84958 -1.21758,0.45554 -2.73211,0.26303 -4.12352,0.69877 -1.51618,0.4724 -3.50781,0.56288 -5.12383,0.98584 -1.94887,0.0412 -2.38333,0.30815 -3.89389,0.69827 -1.05923,-0.0572 -3.66142,1.03942 -5.53336,1.51567 -1.59837,0.40664 -2.8202,0.69577 -4.205,0.83737 l -3.59349,0.37101 1.28932,3.1031 c 0.80521,1.34132 1.31226,2.03566 2.16311,3.35337 0.64591,0.8666 2.37203,2.88698 3.40041,4.38735 1.25813,1.13669 1.70183,2.49866 2.57158,3.75152 0.87045,1.27734 2.38736,1.98232 3.28806,3.26195 1.51979,0.72351 1.85384,2.96825 2.72125,4.32382 0.82805,1.53747 1.98391,2.48754 2.74523,3.6737 1.22885,1.29414 1.4403,2.41792 2.1422,3.60534 0.7476,1.26475 1.28826,2.40843 2.18823,3.62436 1.00947,1.364 2.25163,2.32096 3.21507,3.66765 1.2502,1.00085 2.00888,2.68746 2.92496,4.08672 0.93935,1.25682 1.56743,2.60544 2.35844,3.97781 0.63079,1.26689 1.56693,2.79378 2.25635,4.20427 0.66119,1.32861 1.1372,2.49847 1.66209,3.84288 0.42796,1.20055 1.02369,2.78159 1.4197,4.19241 0.37957,1.32711 0.68446,2.94042 0.89149,4.26992 0.21194,1.36112 0.008,3.20944 0.008,4.52784 0,1.68986 1.21421,1.27728 1.08862,2.38358 l -0.62662,0.84132 -0.15252,0.19225 c -0.22963,0.97527 -0.22442,1.60308 -1.00543,2.4217 -3.5e-4,3.6e-4 -0.40856,0.42728 -0.40856,0.42766 -3.5e-4,3.5e-4 0.12071,-0.0433 0.12036,-0.0433 -0.77039,0.80301 -0.94623,0.27233 -2.02272,0.40364 -1.08316,0.13213 -2.50213,0.37302 -4.10768,0.37302 l -5.1444,-0.15613 -4.98257,0.0873 -5.06719,0.0989 -5.25039,-0.0941 -4.13754,-0.11593 -5.69272,0.23447 -5.04226,-0.29548 -5.61445,0.11273 -5.08592,0.10544 c -1.34159,0.28354 -2.79297,0.96953 -3.77909,0.92544 -0.98612,-0.0441 -1.47274,-0.51009 -2.38737,-1.12611 -0.94365,-0.63631 -1.87597,-1.23604 -2.51434,-2.3293 -0.63836,-1.09327 -1.29147,-1.95737 -2.18543,-3.66692 l -0.31539,-1.83442 0.16564,-0.0694 c -0.19168,-0.35762 -0.34527,-1.08013 -0.81756,-2.01755 -0.28708,-0.98606 -1.17999,-2.14708 -1.92586,-3.53591 -0.80711,-1.36541 -1.75527,-2.73332 -2.65975,-4.39682 -0.91356,-1.68017 -1.74894,-3.67876 -2.80409,-5.53368 -0.7848,-1.37856 -1.73933,-2.95687 -2.54526,-4.28907 -0.9339,-1.49538 -1.44087,-2.46436 -2.18061,-3.59213 -0.78626,-1.19869 -2.3217,-1.50021 -3.11375,-2.54071 l 0.28685,-1.16529 c -0.77877,-1.20029 -1.84192,-2.43192 -2.77828,-3.25263 l 0.45558,0.36854 -1.0155,-0.47156 c 0.28035,-0.0846 0.81045,0.24603 0.71396,0.18959 l -1.88351,-1.78428 -1.50696,1.06371 c 0.28693,0.0825 -0.17729,0.2154 -0.58103,0.57551 -0.94156,0.82469 -1.36698,1.36387 -2.51891,2.87372 l -0.20304,0.80336 c -0.90146,0.99555 -2.30035,2.4491 -3.16584,3.65517 -1.32552,1.46199 -1.40508,2.43979 -2.06175,3.60668 -0.74514,1.32409 -1.15579,2.1289 -1.98977,3.59458 -1.05452,1.85361 -1.8367,3.64388 -2.77585,5.366 -0.72761,1.72212 -1.45344,3.34159 -2.25457,4.80053 -0.39361,1.39968 -1.74458,2.56847 -2.38558,3.57165 -0.58919,0.92209 -0.77697,1.6264 -0.94246,1.97244 l -0.12174,0.10788 -0.59834,1.18146 c -0.86229,1.7251 -1.53234,2.74938 -2.15756,3.77074 -0.62522,1.02136 -0.66706,2.01493 -1.61591,2.64873 -0.92205,0.61496 -1.85608,0.8072 -3.06359,0.92699 -1.2075,0.1198 -2.66587,0.31355 -4.33464,0.31355 l -4.22938,0.59592 -5.3923,-0.82337 -5.45793,-0.0887 -4.78916,-0.0465 -5.30169,0.16639 -4.65814,0.049 -5.01969,0.28076 -4.96298,-0.17785 -4.56112,-0.16983 c -2.03189,0.0677 -3.19599,0.17282 -4.2856,0.041 l -0.20957,-0.14969 -0.0565,0.0489 c -0.84252,-0.13298 -1.66296,-0.57065 -2.45138,-1.37685 l 0.16776,0.0251 -0.31113,0.19161 c -0.73864,-0.7986 -0.7961,-1.48085 -0.9228,-2.60062 l -0.93717,-0.45643 c 0.60491,-1.05515 0.38969,-2.30985 0.38969,-3.99091 0,-1.35114 0.0854,-2.67493 0.29048,-4.00738 0.18338,-1.3227 1.16664,-3.30075 1.55784,-4.62758 0.97357,-1.70656 0.95241,-1.80865 1.35696,-2.8604 0.80448,-1.05306 1.26223,-2.83352 1.91475,-4.2146 0.7512,-1.37057 1.91049,-3.3632 2.61585,-4.66295 1.2477,-1.89027 1.17969,-2.17248 1.78852,-3.21703 0.78303,-1.36901 1.78159,-2.63228 2.71693,-4.03869 0.86503,-1.30069 1.5702,-2.81162 2.64967,-4.27014 0.87236,-1.17858 1.32805,-2.09549 2.23158,-3.29005 0.55639,-1.04221 1.98155,-2.69441 3.01299,-4.03913 0.89151,-1.25341 2.12501,-2.66834 3.05939,-3.89018 1.14292,-1.39515 1.94255,-2.2603 2.79434,-3.40168 1.12949,-1.21692 1.79851,-2.46136 2.66907,-3.70624 0.8923,-1.28986 1.96647,-2.15423 2.82588,-3.47259 1.06689,-0.91639 1.4481,-2.25268 2.24182,-3.76082 0.7402,-1.40645 1.70691,-3.41615 2.45513,-4.75626 l 1.64063,-2.97631 -2.60833,-0.93537 c -1.63992,0.0317 -2.62261,0.16891 -4.28219,0.0243 -1.14588,0.0433 -3.74859,-0.42076 -5.66572,-0.78383 -1.64968,-0.29013 -2.94682,-0.3842 -4.52975,-0.79122 -1.63283,-0.41985 -3.64406,-1.61551 -5.10889,-2.07244 -1.36202,-0.42463 -2.6303,-0.84283 -3.86525,-1.24534 -1.20456,-0.42503 -2.19707,-1.07581 -3.29919,-1.51874 -1.09463,-0.43991 -1.95477,-0.74368 -2.87954,-1.29822 -1.40298,-0.83995 -3.12625,-1.31575 -4.03517,-2.34274 -0.87862,-0.99438 -1.24848,-2.26023 -1.24848,-3.67234 0,-1.36246 0.27308,-2.68759 0.74069,-3.98954 0.48893,-1.29274 1.34288,-2.74424 2.20125,-3.98166 0.85939,-1.23889 1.71705,-2.26044 2.90844,-3.42577 0.89178,-0.87229 1.82673,-1.70238 2.87304,-2.56214 1.01743,-0.83209 2.18694,-1.06092 3.38958,-1.92409 1.23203,-0.21431 2.60207,-1.93261 3.96994,-2.98703 1.26252,-0.97321 2.53466,-2.092 3.89033,-2.89726 l 0.009,0.15823 c 1.19808,-0.71561 2.80025,-1.68371 4.06185,-2.39736 1.51002,-0.89863 2.19951,-1.18322 3.37488,-1.82112 1.25381,-0.63195 3.04713,-1.2396 4.44268,-1.97103 1.62456,-0.45787 2.52375,-1.48198 3.8465,-2.17596 1.28877,-0.83481 2.70857,-1.65587 4.11738,-2.38413 1.30894,-0.91723 2.61026,-1.42951 4.02152,-2.12966 1.26171,-0.72166 2.94081,-1.39637 4.42567,-2.10758 1.42918,-0.64384 3.23939,-1.01918 4.64539,-1.71138 1.40582,-0.69211 2.85862,-2.02287 4.22227,-2.72363 l 0.88241,-0.50966 -0.12917,-1.01136 c 0.0517,-1.30432 -0.71579,-2.7715 -0.54846,-4.13236 -0.70282,-1.51742 0.60623,-2.9205 0.99643,-4.32355 0.51427,-1.4594 0.79406,-2.68148 1.30295,-3.98442 0.50427,-1.374 1.4367,-2.79156 2.09483,-4.09167 0.65715,-1.29816 1.02389,-2.48107 1.78198,-3.74142 0.69778,-1.16029 1.83179,-2.63092 2.68972,-3.68599 1.11806,-1.29097 1.12976,-2.18655 1.99978,-2.99594 0.60826,-1.35309 2.05144,-1.88545 3.32312,-2.61448 1.083,-0.76754 1.89875,-1.12096 3.3732,-1.5845 0.7465,-0.27722 3.23763,-0.90494 5.08409,-1.16937 1.59749,-0.22877 3.16415,-0.85166 4.69466,-0.85497 z m 54.46282,14.26904 c -1.38425,0.0586 -1.86356,1.539 -1.85218,2.58896 0.0114,1.04997 0.3951,1.84837 1.7803,1.87698 l 4.44636,0.61151 4.89037,-0.45819 3.96487,0.97593 4.98532,-0.2514 5.78818,-0.28564 3.95908,-0.1846 5.72562,0.76095 4.04497,0.2003 4.65803,-0.0659 4.75122,0.27716 4.82684,0.71483 4.77608,0.17439 c 1.33701,-0.0965 1.83787,-0.82049 1.85673,-1.93044 0.0189,-1.10994 -1.21236,-1.93935 -2.64163,-1.9955 l -4.58462,-0.62308 -5.46306,-0.65876 -3.13223,-0.98923 -5.48292,-0.19095 -5.11631,0.36361 -4.48201,0.1477 -4.32087,-0.12221 -5.21264,0.16448 -4.25322,-0.0704 -4.27981,-0.75285 -4.94133,-0.0627 -4.44816,-0.14696 c -0.28812,0.0524 -0.12452,-0.0393 -0.19591,-0.0364 z"
       id="path4551"
       inkscape:connector-curvature="0"
       inkscape:path-effect="#path-effect4547"
       inkscape:original-d="m 462.88212,95.110572 a 2.1447447,2.1447447 0 0 0 -2.11533,1.412986 L 438.2437,156.13958 a 2.1449619,2.1449619 0 1 0 4.01315,1.51594 l 22.52143,-59.616035 a 2.1447447,2.1447447 0 0 0 -1.89616,-2.928913 z m -72.43253,5.831258 a 2.1447447,2.1447447 0 0 0 -1.98084,2.66492 l 12.86465,54.63986 a 2.1447447,2.1447447 0 1 0 4.1742,-0.98295 L 392.64296,102.6238 a 2.1447447,2.1447447 0 0 0 -2.19337,-1.68197 z m -60.20547,33.8552 a 2.1447447,2.1447447 0 0 0 -1.43623,3.70598 l 40.58141,39.33279 a 2.1447447,2.1447447 0 1 0 2.98536,-3.08001 L 331.7916,135.423 a 2.1447447,2.1447447 0 0 0 -1.54748,-0.62597 z m 177.79708,9.24335 a 2.1447447,2.1447447 0 0 0 -1.31004,0.5197 l -44.94987,37.76374 a 2.1447447,2.1447447 0 1 0 2.75789,3.28423 l 44.94988,-37.76373 a 2.1447447,2.1447447 0 0 0 -1.44786,-3.80394 z m -94.25327,37.35528 c -0.0201,0 -0.0381,0.003 -0.0582,0.003 -0.003,-1e-5 -0.007,0 -0.01,0 v 0.002 c -0.0109,3e-5 -0.0207,0.002 -0.0315,0.002 v -0.005 l -0.0681,0.003 v 0.007 c -11.53008,0.0642 -20.01296,6.51883 -24.79283,14.46692 -4.0156,6.67609 -5.72837,14.20606 -6.20485,20.96731 -11.96428,6.11591 -25.12228,12.31211 -35.91241,18.72081 -5.81777,3.45573 -10.95478,6.95541 -14.9285,10.8423 -3.96877,3.88197 -7.19775,8.56325 -7.19775,14.27431 0,2.75679 1.29392,4.95238 2.61841,6.45058 h 0.002 c 1.30501,1.47452 2.82775,2.57303 4.43986,3.53828 3.24625,1.94662 7.18444,3.49159 11.46163,4.82507 5.28957,1.64997 10.98297,2.81358 16.35642,3.56484 -5.69043,9.54283 -12.81104,18.53849 -19.26542,27.2585 -8.14613,11.00662 -15.61257,21.87653 -15.61257,34.41972 0,1.65267 -0.0251,3.02921 0.13283,4.50628 l 0.002,0.007 v 0.005 c 0.16766,1.49434 0.6124,3.70042 2.36771,5.49421 1.74121,1.78048 3.90993,2.24953 5.36469,2.41419 1.42737,0.17208 2.78384,0.16936 4.40998,0.16936 h 44.75063 c 3.15896,0 6.2141,0.24482 9.26327,-1.78989 h 0.002 c 2.61112,-1.74413 3.79026,-4.12788 5.17209,-6.8441 h 0.64921 l 0.1926,-1.68197 c 0.21978,-0.46277 3.86506,-8.12637 8.3318,-15.97786 2.29829,-4.03914 4.80423,-8.06493 6.89226,-10.80743 l 0.002,-0.002 c 0.66191,-0.8674 1.11674,-1.30165 1.63548,-1.85631 0.51987,0.55541 0.97703,0.98954 1.63713,1.85631 2.08773,2.74265 4.59382,6.76881 6.89391,10.80909 4.46689,7.85262 8.11295,15.5187 8.3318,15.97953 l 0.19426,1.6803 h 0.64755 c 1.37952,2.7113 2.54885,5.08158 5.14055,6.82915 h 0.002 c 3.03306,2.04285 6.08824,1.80816 9.2035,1.80816 h 44.94822 c 1.60554,0 2.94481,0.004 4.36846,-0.16936 1.42972,-0.17441 3.61545,-0.64214 5.34975,-2.45239 l 0.002,-0.002 c 1.71745,-1.79773 2.15792,-3.9747 2.3179,-5.46598 0.16742,-1.47967 0.13615,-2.86131 0.13615,-4.50627 0,-12.5418 -7.46659,-23.41295 -15.61258,-34.41973 -6.45428,-8.72028 -13.57454,-17.71685 -19.26541,-27.26016 5.37249,-0.7527 11.06552,-1.91499 16.35477,-3.56318 h 0.002 0.002 c 4.27179,-1.33779 8.20667,-2.87672 11.45332,-4.82175 l 0.005,-0.003 c 1.6177,-0.96315 3.14054,-2.06907 4.43986,-3.5366 v -0.002 h 0.002 c 1.32473,-1.50015 2.62174,-3.6954 2.62174,-6.45224 0,-5.71092 -3.22899,-10.39076 -7.19775,-14.27264 -3.97386,-3.88696 -9.11122,-7.38809 -14.9285,-10.84396 -10.79062,-6.4084 -23.94929,-12.60316 -35.91407,-18.71915 -0.47763,-6.76051 -2.1899,-14.29091 -6.20485,-20.96732 -4.79406,-7.97182 -13.30974,-14.44739 -24.89245,-14.47355 z m -113.33771,1.51593 a 2.1447447,2.1447447 0 0 0 -0.64589,4.20077 l 59.12954,18.43356 a 2.1447447,2.1447447 0 1 0 1.27684,-4.09449 l -59.12955,-18.43358 a 2.1447447,2.1447447 0 0 0 -0.63094,-0.10626 z m 113.2796,2.77616 c 10.04058,0.003 17.08248,5.42628 21.27613,12.39973 3.78113,6.28757 5.40509,13.72143 5.72002,20.24671 l 0.0598,1.23864 1.10249,0.5662 c 12.33113,6.33658 25.90927,12.69282 36.71936,19.11266 5.67306,3.3702 10.55435,6.73378 14.12155,10.22297 3.57196,3.49377 5.90764,7.11865 5.90764,11.20592 0,1.41361 -0.6628,2.61117 -1.54747,3.613 -0.90718,1.02417 -2.03067,1.86478 -3.42537,2.6948 l -0.003,0.002 -0.003,0.002 c -2.78271,1.66779 -6.44602,3.13105 -10.53513,4.41163 -6.06475,1.88959 -12.91704,3.30414 -18.79553,3.90522 l -3.24273,0.33208 1.58898,2.84756 c 6.13906,10.99449 14.21133,20.95483 21.1898,30.38333 8.07576,10.91197 14.77243,21.06064 14.77243,31.86772 0,1.68986 0.016,2.92345 -0.10959,4.02975 v 0.007 0.007 c -0.11894,1.11245 -0.37295,2.14517 -1.15396,2.96379 -3.5e-4,3.6e-4 -0.002,-3.8e-4 -0.002,0 -3.5e-4,3.5e-4 3.5e-4,0.002 0,0.002 -0.77039,0.80301 -1.69303,1.02929 -2.76952,1.1606 -1.08316,0.13213 -2.24488,0.13781 -3.85043,0.13781 h -44.948 c -3.29004,0 -4.97832,0.15612 -6.80757,-1.07592 -1.8873,-1.27261 -2.56893,-2.99164 -4.35684,-6.41074 l -0.60272,-1.15064 h 0.0763 c -0.69873,-1.46099 -3.88343,-8.07869 -8.10101,-15.49303 -2.3544,-4.13566 -4.90188,-8.25645 -7.20772,-11.28562 h -0.002 c -1.16009,-1.52329 -2.22336,-2.72587 -3.15972,-3.54658 l -0.0631,-0.0548 -0.0664,-0.0498 c -0.14995,-0.1121 -0.22396,-0.14779 -0.32045,-0.20423 l -1.13072,-1.17721 -1.49103,0.98627 c 0.12232,-0.0808 -0.3152,0.15626 -0.71894,0.51637 -0.94156,0.82469 -1.99449,2.01847 -3.14642,3.52832 v 0.002 c -2.30661,3.02928 -4.85598,7.1496 -7.20939,11.28562 -4.21809,7.41441 -7.4023,14.03203 -8.101,15.49303 h 0.0764 l -0.60272,1.1523 c -1.78601,3.41825 -2.47574,5.14479 -4.37345,6.41239 -1.8441,1.22991 -3.54474,1.06929 -6.88228,1.06929 h -44.75063 c -1.63104,0 -2.81727,-0.006 -3.90688,-0.13781 l -0.008,-0.002 h -0.009 c -1.06948,-0.12071 -1.99604,-0.34776 -2.78446,-1.15396 h -0.002 v -0.002 c -0.77389,-0.79054 -1.0422,-1.84069 -1.1689,-2.96046 v -0.005 c -0.12141,-1.13868 -0.10958,-2.3653 -0.10958,-4.04636 0,-10.80912 6.69452,-20.95553 14.77076,-31.86772 6.97888,-9.42864 15.05113,-19.3887 21.1898,-30.38334 l 1.59064,-2.84921 -3.24605,-0.33042 c -5.87838,-0.59797 -12.73007,-2.01489 -18.79552,-3.90688 -4.08607,-1.27389 -7.74968,-2.74066 -10.53347,-4.40998 -1.40298,-0.83995 -2.52475,-1.67445 -3.43367,-2.70144 -0.87862,-0.99438 -1.54249,-2.1959 -1.54249,-3.60801 0,-4.08737 2.33559,-7.71365 5.90764,-11.20758 3.56709,-3.48915 8.44652,-6.85301 14.11989,-10.22298 v 0.002 c 10.80958,-6.42025 24.38992,-12.77755 36.72101,-19.11433 l 1.1025,-0.56618 0.0598,-1.23865 c 0.3135,-6.52503 1.93828,-13.95941 5.72003,-20.2467 4.18668,-6.96174 11.21254,-12.37476 21.22632,-12.39642 z m 54.28786,14.56986 a 2.1447447,2.1447447 0 0 0 0.0465,4.28711 l 56.70206,2.21993 a 2.1451942,2.1451942 0 1 0 0.16769,-4.28711 l -56.70205,-2.21827 a 2.1447447,2.1447447 0 0 0 -0.2142,-0.002 z" />
    <path
       id="path4528"
       d="m -228.61533,134.50247 c -12.74199,0 -21.90636,7.00767 -27.19909,15.80856 -4.73342,7.8695 -6.70269,16.99971 -7.08687,24.99598 -14.4446,7.42287 -30.44688,14.9065 -43.32997,22.55829 -6.75857,4.01457 -12.65058,8.05145 -17.08575,12.3897 -4.43517,4.33818 -7.70768,9.22346 -7.70768,14.98646 0,2.45244 1.15261,4.45065 2.44883,5.91687 1.30232,1.47148 2.8573,2.60824 4.6309,3.67008 3.5466,2.12673 8.0178,3.89856 12.93669,5.4321 7.30683,2.27921 15.49011,3.97296 22.60537,4.69675 -7.07702,12.67526 -16.4955,24.31517 -24.75136,35.46903 -9.54127,12.89166 -17.87077,25.25378 -17.87077,38.98857 0,1.96196 -0.0209,3.49332 0.14368,5.03249 0.17282,1.54033 0.59135,3.45866 2.08108,4.98042 1.48883,1.52241 3.31145,1.93205 4.7961,2.09964 1.48315,0.17986 2.98044,0.17986 4.89904,0.17986 h 52.63996 c 3.82146,0 6.6192,0.23982 9.49753,-1.68089 2.87895,-1.92303 3.92869,-4.5494 5.97932,-8.4741 h 0.0209 l 0.0208,-0.17987 c 0,0 4.58857,-9.69602 10.06342,-19.31951 2.73618,-4.80872 5.7089,-9.6006 8.29377,-12.99533 1.29378,-1.69577 2.50352,-3.04353 3.37446,-3.80343 0.2582,-0.23765 0.3887,-0.26871 0.55806,-0.38067 0.17282,0.17986 0.28943,0.17986 0.55804,0.38067 0.87011,0.76265 2.08109,2.10549 3.37419,3.80343 2.5841,3.39473 5.55648,8.18661 8.29404,12.99533 5.47423,9.62349 10.06308,19.31951 10.06308,19.31951 l 0.0209,0.17987 h 0.0208 c 2.05229,3.9247 3.09128,6.53518 5.95142,8.46376 2.85979,1.92614 5.65081,1.69585 9.41812,1.69585 h 52.87199 c 1.88862,0 3.36003,0 4.83442,-0.17986 1.47452,-0.17987 3.3029,-0.58871 4.77625,-2.12658 1.47154,-1.54033 1.87981,-3.43113 2.04361,-4.96308 0.17283,-1.52241 0.14368,-3.06253 0.14368,-5.02535 0,-13.73298 -8.32965,-26.09517 -17.87077,-38.98705 -8.25539,-11.15371 -17.67379,-22.79384 -24.7513,-35.46902 7.11527,-0.72755 15.29861,-2.41971 22.60544,-4.69661 4.91876,-1.5404 9.38995,-3.30646 12.93669,-5.43217 1.77333,-1.05535 3.33094,-2.20141 4.62966,-3.66827 1.29947,-1.47156 2.45174,-3.46602 2.45174,-5.91889 0,-5.76286 -3.27237,-10.64822 -7.70748,-14.98625 -4.43531,-4.33832 -10.32744,-8.37506 -17.08554,-12.38985 -12.88379,-7.6515 -28.88537,-15.1352 -43.33059,-22.55814 -0.38591,-7.99591 -2.35408,-17.12598 -7.08674,-24.99584 -5.29272,-8.80104 -14.45695,-15.80878 -27.19915,-15.80878 z"
       inkscape:connector-curvature="0"
       style="fill:#ffffff;fill-opacity:1;stroke:#000000;stroke-width:5.04526615;stroke-miterlimit:4;stroke-dasharray:none;stroke-opacity:0.98994978" />
    <path
       sodipodi:nodetypes="cc"
       inkscape:connector-curvature="0"
       id="path4530"
       d="m -292.39011,157.98011 -69.55354,-21.68252"
       style="fill:none;fill-rule:evenodd;stroke:#000000;stroke-width:5.04526615;stroke-linecap:round;stroke-linejoin:miter;stroke-miterlimit:4;stroke-dasharray:none;stroke-opacity:1" />
    <path
       sodipodi:nodetypes="cc"
       inkscape:connector-curvature="0"
       id="path4532"
       d="m -164.67155,156.69022 66.699572,2.61047"
       style="fill:none;fill-rule:evenodd;stroke:#000000;stroke-width:5.04526615;stroke-linecap:round;stroke-linejoin:miter;stroke-miterlimit:4;stroke-dasharray:none;stroke-opacity:1" />
    <path
       sodipodi:nodetypes="cc"
       inkscape:connector-curvature="0"
       id="path4534"
       d="m -197.48699,103.16315 26.49272,-70.126203"
       style="fill:none;fill-rule:evenodd;stroke:#000000;stroke-width:5.04526615;stroke-linecap:round;stroke-linejoin:miter;stroke-miterlimit:4;stroke-dasharray:none;stroke-opacity:1" />
    <path
       inkscape:connector-curvature="0"
       id="path4536"
       d="M -240.81026,104.17105 -255.94281,39.89757"
       style="fill:none;fill-rule:evenodd;stroke:#000000;stroke-width:5.04526615;stroke-linecap:round;stroke-linejoin:miter;stroke-miterlimit:4;stroke-dasharray:none;stroke-opacity:1" />
    <path
       sodipodi:nodetypes="cc"
       inkscape:connector-curvature="0"
       id="path4538"
       d="M -279.08603,125.98167 -326.82307,79.714337"
       style="fill:none;fill-rule:evenodd;stroke:#000000;stroke-width:5.04526615;stroke-linecap:round;stroke-linejoin:miter;stroke-miterlimit:4;stroke-dasharray:none;stroke-opacity:1" />
    <path
       sodipodi:nodetypes="cc"
       inkscape:connector-curvature="0"
       id="path4540"
       d="m -170.53794,135.00371 52.87488,-44.42186"
       style="fill:none;fill-rule:evenodd;stroke:#000000;stroke-width:5.04526615;stroke-linecap:round;stroke-linejoin:miter;stroke-miterlimit:4;stroke-dasharray:none;stroke-opacity:1" />
    <g
       class=""
       id="g4535"
       transform="matrix(0.16510497,-0.03544699,0.03544699,0.16510497,613.76225,-11.175602)"
       style="fill:#f40000;fill-opacity:1;stroke-width:5.92181206">
      <path
         style="fill:#f40000;fill-opacity:1;stroke-width:5.92181206"
         inkscape:connector-curvature="0"
         d="m 425.344,22.22 c -9.027,0.085 -18.7,5.826 -24.344,19.405 -11.143,26.803 -31.93,59.156 -58.563,93.47 10.57,8.694 19.85,18.92 27.5,30.31 35.1,-26.57 68.882,-46.81 98.125,-56.75 44.6,-15.16 12.02,-69.72 -35.343,-35.343 26.91,-27.842 11.107,-51.27 -7.376,-51.093 z M 84.124,22.25 C 65.624,22.628 46.52,46.212 67.781,72.125 31.523,38.635 -0.802,85.48 37.095,102.813 c 28.085,12.844 62.54,35.66 99.062,64.343 8.125,-12.5 18.207,-23.61 29.78,-32.937 -26.782,-35.743 -48.44,-69.835 -61.78,-98.47 -4.515,-9.69 -12.22,-13.66 -20.03,-13.5 z m 169.5,99.688 c -67.104,0 -121.31,54.21 -121.31,121.312 0,44.676 24.04,83.613 59.905,104.656 v 56.406 h 18.718 v -47.468 c 5.203,1.95 10.576,3.552 16.093,4.78 v 42.688 h 18.69 v -40.03 c 2.614,0.167 5.247,0.25 7.905,0.25 2.637,0 5.25,-0.086 7.844,-0.25 v 40.03 h 18.686 v -42.687 c 5.52,-1.226 10.89,-2.834 16.094,-4.78 v 47.467 h 18.688 V 347.97 c 35.92,-21.03 60,-60.003 60,-104.72 0,-67.105 -54.208,-121.313 -121.313,-121.313 z m -66.874,88.218 c 19.88,0 36,16.12 36,36 0,19.88 -16.12,36 -36,36 -19.88,0 -36,-16.12 -36,-36 0,-19.88 16.12,-36 36,-36 z m 133.563,0 c 19.878,0 36,16.12 36,36 0,19.88 -16.122,36 -36,36 -19.88,0 -36,-16.12 -36,-36 0,-19.88 16.12,-36 36,-36 z m -66.72,52.344 29.938,48.188 H 223.657 L 253.595,262.5 Z m -107.28,70.563 c -40.263,32.472 -78.546,58.41 -109.22,72.437 -37.896,17.334 -5.57,64.146 30.688,30.656 -30.237,36.854 21.167,69.05 36.376,36.406 15.072,-32.352 40.727,-71.7 72.438,-112.5 -11.352,-7.506 -21.564,-16.603 -30.28,-27 z m 213.156,1.718 c -8.155,9.415 -17.542,17.72 -27.908,24.69 31.846,39.39 56.82,76.862 69.438,107.217 17.203,41.383 71.774,9.722 31.72,-31.718 47.363,34.376 79.94,-20.185 35.342,-35.345 -32.146,-10.926 -69.758,-34.3 -108.593,-64.844 z"
         id="path4533" />
    </g>
    <g
       style="fill:#f40000;fill-opacity:1;stroke-width:3.2077558"
       transform="matrix(0.30128948,0.08005774,-0.08005774,0.30128948,-1.237247,-67.637367)"
       id="g4537"
       class="">
      <path
         id="path4535"
         d="m 676.18894,41.118869 c -4.88979,0.04604 -10.1295,3.155856 -13.18677,10.511394 -6.036,14.518779 -17.296,32.043908 -31.72269,50.631277 5.72561,4.70941 10.75244,10.24868 14.89633,16.41847 19.01314,-14.39256 37.31234,-25.356266 53.15282,-30.740613 24.15915,-8.211942 6.51106,-37.766266 -19.14476,-19.144767 14.57674,-15.081589 6.01649,-27.772181 -3.99547,-27.676303 z m -184.8337,0.01625 c -10.02116,0.204757 -20.36951,12.979852 -8.85275,27.016531 -19.64041,-18.141025 -37.15037,7.234201 -16.62214,16.623224 15.21322,6.9574 33.87697,19.316486 53.66038,34.853626 4.40119,-6.77106 9.86246,-12.78918 16.13138,-17.84147 -14.50741,-19.361443 -26.23922,-37.828562 -33.46529,-53.339707 -2.44571,-5.248926 -6.61939,-7.399415 -10.84995,-7.312745 z m 91.81558,53.999478 c -36.34922,0 -65.71178,29.364733 -65.71178,65.712873 0,24.20031 13.0221,45.29189 32.44963,56.69056 v 30.55428 h 10.13925 v -25.7127 c 2.81839,1.05629 5.72886,1.92407 8.71734,2.58926 v 23.12344 h 10.12409 v -21.68364 c 1.41596,0.0905 2.84222,0.13542 4.28202,0.13542 1.42842,0 2.84384,-0.0466 4.24897,-0.13542 v 21.68364 h 10.12192 v -23.1229 c 2.9901,-0.66411 5.89895,-1.53514 8.71788,-2.58925 v 25.71215 h 10.12301 V 217.5727 c 19.45731,-11.39163 32.50109,-32.50271 32.50109,-56.72523 0,-36.34976 -29.36366,-65.713415 -65.71342,-65.713415 z m -36.22463,47.786353 c 10.7687,0 19.50066,8.73196 19.50066,19.50065 0,10.7687 -8.73196,19.50066 -19.50066,19.50066 -10.76869,0 -19.50065,-8.73196 -19.50065,-19.50066 0,-10.76869 8.73196,-19.50065 19.50065,-19.50065 z m 72.34905,0 c 10.76761,0 19.50066,8.73196 19.50066,19.50065 0,10.7687 -8.73305,19.50066 -19.50066,19.50066 -10.76869,0 -19.50065,-8.73196 -19.50065,-19.50066 0,-10.76869 8.73196,-19.50065 19.50065,-19.50065 z m -36.14121,28.35395 16.21696,26.10271 h -32.43284 l 16.21696,-26.10271 z m -58.11195,38.22291 c -21.80985,17.58959 -42.54717,31.63981 -59.16281,39.23802 -20.52769,9.38957 -3.01719,34.74692 16.62322,16.60589 -16.37892,19.96325 11.46584,37.40334 19.70433,19.72058 8.16427,-17.52459 22.06119,-38.8388 39.23856,-60.93954 -6.1492,-4.06589 -11.68089,-8.9936 -16.40221,-14.6255 z m 115.46337,0.93061 c -4.41744,5.09996 -9.50223,9.59866 -15.11734,13.3742 17.2505,21.33696 30.77854,41.63498 37.61352,58.07782 9.3186,22.41655 38.87888,5.26626 17.18224,-17.18116 25.65582,18.62096 43.30228,-10.93391 19.14422,-19.14585 -17.413,-5.91845 -37.78685,-18.57979 -58.82318,-35.12501 z"
         inkscape:connector-curvature="0"
         style="fill:#f40000;fill-opacity:1;stroke-width:3.2077558" />
    </g>
    <path
       inkscape:connector-curvature="0"
       d="m 342.72677,-15.787622 c -4.288,0 -6.816,2.24 -6.816,6.2719997 0,6.464 9.504,5.152 9.504,9.98401 0,3.104 -2.816,3.872 -4.544,3.872 -2.624,0 -4.288,-1.152 -4.288,-3.776 0,-0.448 0.064,-0.96 0.16,-1.504 h -2.912 c -0.096,0.512 -0.096,0.992 -0.096,1.472 0,4.096 2.72,6.4 6.912,6.4 6.176,0 7.712,-3.936 7.712,-6.88 0,-6.81601 -9.536,-5.31201 -9.536,-9.88801 0,-3.0399997 2.624,-3.3599997 3.744,-3.3599997 1.792,0 4.032,0.576 4.032,4.2239997 h 2.912 c 0,-3.8719997 -1.728,-6.8159997 -6.784,-6.8159997 z"
       style="font-style:italic;font-variant:normal;font-weight:normal;font-stretch:normal;font-size:32px;line-height:30.54940224px;font-family:'Archivo Narrow';-inkscape-font-specification:'Archivo Narrow Italic';text-align:center;letter-spacing:0px;word-spacing:0px;writing-mode:lr-tb;text-anchor:middle;fill:#000000;fill-opacity:1;stroke:none;stroke-width:1px;stroke-linecap:butt;stroke-linejoin:miter;stroke-opacity:1"
       id="path4600" />
    <path
       inkscape:connector-curvature="0"
       d="m 359.45877,-10.667622 c -1.536,0 -2.944,0.8319997 -4.064,2.6559997 v -2.2719997 h -2.08 l -3.168,22.65601 h 2.624 l 1.088,-7.6800003 c 0.736,1.6 1.952,2.24 3.36,2.24 3.136,0 6.496,-3.648 6.496,-11.36001 0,-4.32 -1.792,-6.2399997 -4.256,-6.2399997 z m -0.8,2.3359997 c 1.568,0 2.368,1.216 2.368,3.648 0,2.752 -0.768,9.28001 -4.192,9.28001 -1.568,0 -2.336,-1.216 -2.336,-3.616 0,-2.56001 0.832,-9.31201 4.16,-9.31201 z"
       style="font-style:italic;font-variant:normal;font-weight:normal;font-stretch:normal;font-size:32px;line-height:30.54940224px;font-family:'Archivo Narrow';-inkscape-font-specification:'Archivo Narrow Italic';text-align:center;letter-spacing:0px;word-spacing:0px;writing-mode:lr-tb;text-anchor:middle;fill:#000000;fill-opacity:1;stroke:none;stroke-width:1px;stroke-linecap:butt;stroke-linejoin:miter;stroke-opacity:1"
       id="path4602" />
    <path
       inkscape:connector-curvature="0"
       d="m 372.99727,-10.667622 c -5.824,0 -7.136,6.6879997 -7.136,11.4880097 0,4.192 1.984,6.112 5.44,6.112 3.584,0 5.696,-2.816 6.208,-6.08 h -2.656 c -0.288,2.016 -1.664,3.744 -3.552,3.744 -1.824,0 -2.72,-1.312 -2.72,-4 0,-0.416 0.032,-1.024 0.096,-1.696 h 9.248 c 0.192,-1.21601 0.256,-2.43201 0.256,-3.52001 0,-4.128 -1.824,-6.0479997 -5.184,-6.0479997 z m 0,2.3359997 c 1.632,0 2.464,1.28 2.464,3.744 0,0.288 0,0.736 -0.032,1.152 h -6.432 c 0.512,-2.432 1.664,-4.896 4,-4.896 z"
       style="font-style:italic;font-variant:normal;font-weight:normal;font-stretch:normal;font-size:32px;line-height:30.54940224px;font-family:'Archivo Narrow';-inkscape-font-specification:'Archivo Narrow Italic';text-align:center;letter-spacing:0px;word-spacing:0px;writing-mode:lr-tb;text-anchor:middle;fill:#000000;fill-opacity:1;stroke:none;stroke-width:1px;stroke-linecap:butt;stroke-linejoin:miter;stroke-opacity:1"
       id="path4604" />
    <path
       inkscape:connector-curvature="0"
       d="m 386.98377,-10.667622 c -5.472,0 -6.688,6.5279997 -6.688,11.4880097 0,4.192 1.984,6.112 5.152,6.112 3.424,0 5.408,-3.104 5.824,-6.528 h -2.624 c -0.256,2.208 -1.472,4.192 -3.264,4.192 -1.536,0 -2.368,-1.472 -2.368,-4 0,-1.792 0.448,-8.92801 3.968,-8.92801 1.408,0 2.08,1.28 2.08,3.744 v 0.544 h 2.72 v -0.576 c 0,-4.128 -1.664,-6.0479997 -4.8,-6.0479997 z"
       style="font-style:italic;font-variant:normal;font-weight:normal;font-stretch:normal;font-size:32px;line-height:30.54940224px;font-family:'Archivo Narrow';-inkscape-font-specification:'Archivo Narrow Italic';text-align:center;letter-spacing:0px;word-spacing:0px;writing-mode:lr-tb;text-anchor:middle;fill:#000000;fill-opacity:1;stroke:none;stroke-width:1px;stroke-linecap:butt;stroke-linejoin:miter;stroke-opacity:1"
       id="path4606" />
    <path
       inkscape:connector-curvature="0"
       d="m 397.90078,-10.283622 h -2.62401 l -2.336,16.8320097 h 2.59201 z m 0.864,-6.304 h -2.624 l -0.416,3.136 h 2.624 z"
       style="font-style:italic;font-variant:normal;font-weight:normal;font-stretch:normal;font-size:32px;line-height:30.54940224px;font-family:'Archivo Narrow';-inkscape-font-specification:'Archivo Narrow Italic';text-align:center;letter-spacing:0px;word-spacing:0px;writing-mode:lr-tb;text-anchor:middle;fill:#000000;fill-opacity:1;stroke:none;stroke-width:1px;stroke-linecap:butt;stroke-linejoin:miter;stroke-opacity:1"
       id="path4608" />
    <path
       inkscape:connector-curvature="0"
       d="m 405.79328,-10.667622 c -3.136,0 -6.496,3.6479997 -6.496,11.3600097 0,4.32 1.792,6.24 4.256,6.24 1.504,0 2.656,-0.832 3.872,-2.656 0.032,1.888 0.96,2.656 2.304,2.656 0.832,0 1.472,-0.288 1.792,-0.512 l 0.256,-1.824 h -1.024 c -0.416,0 -0.768,-0.256 -0.768,-0.896 0,-0.384 1.952,-13.9840097 1.952,-13.9840097 h -2.08 l -0.576,2.3359997 c -0.64,-2.0799997 -1.952,-2.7199997 -3.488,-2.7199997 z m 0.384,2.3359997 c 1.472,0 2.208,1.216 2.208,3.616 0,2.56 -0.992,9.31201 -4.032,9.31201 -1.568,0 -2.368,-1.216 -2.368,-3.648 0,-2.75201 0.768,-9.28001 4.192,-9.28001 z"
       style="font-style:italic;font-variant:normal;font-weight:normal;font-stretch:normal;font-size:32px;line-height:30.54940224px;font-family:'Archivo Narrow';-inkscape-font-specification:'Archivo Narrow Italic';text-align:center;letter-spacing:0px;word-spacing:0px;writing-mode:lr-tb;text-anchor:middle;fill:#000000;fill-opacity:1;stroke:none;stroke-width:1px;stroke-linecap:butt;stroke-linejoin:miter;stroke-opacity:1"
       id="path4610" />
    <path
       inkscape:connector-curvature="0"
       d="m 419.13978,-16.587622 h -2.624 l -3.2,23.1360097 h 2.592 z"
       style="font-style:italic;font-variant:normal;font-weight:normal;font-stretch:normal;font-size:32px;line-height:30.54940224px;font-family:'Archivo Narrow';-inkscape-font-specification:'Archivo Narrow Italic';text-align:center;letter-spacing:0px;word-spacing:0px;writing-mode:lr-tb;text-anchor:middle;fill:#000000;fill-opacity:1;stroke:none;stroke-width:1px;stroke-linecap:butt;stroke-linejoin:miter;stroke-opacity:1"
       id="path4612" />
    <path
       inkscape:connector-curvature="0"
       d="m 440.74478,6.5483877 0.384,-2.56 h -10.912 l 1.024,-7.39201 h 9.312 l 0.352,-2.56 h -9.312 l 0.96,-6.8799997 h 10.72 l 0.384,-2.56 h -13.536 l -3.104,21.9520097 z"
       style="font-style:italic;font-variant:normal;font-weight:normal;font-stretch:normal;font-size:32px;line-height:30.54940224px;font-family:'Archivo Narrow';-inkscape-font-specification:'Archivo Narrow Italic';text-align:center;letter-spacing:0px;word-spacing:0px;writing-mode:lr-tb;text-anchor:middle;fill:#000000;fill-opacity:1;stroke:none;stroke-width:1px;stroke-linecap:butt;stroke-linejoin:miter;stroke-opacity:1"
       id="path4614" />
    <path
       inkscape:connector-curvature="0"
       d="m 457.73278,-10.283622 h -2.816 l -5.376,13.0240097 h -0.128 l -1.728,-13.0240097 h -2.784 l 2.496,16.8320097 h 2.848 z"
       style="font-style:italic;font-variant:normal;font-weight:normal;font-stretch:normal;font-size:32px;line-height:30.54940224px;font-family:'Archivo Narrow';-inkscape-font-specification:'Archivo Narrow Italic';text-align:center;letter-spacing:0px;word-spacing:0px;writing-mode:lr-tb;text-anchor:middle;fill:#000000;fill-opacity:1;stroke:none;stroke-width:1px;stroke-linecap:butt;stroke-linejoin:miter;stroke-opacity:1"
       id="path4616" />
    <path
       inkscape:connector-curvature="0"
       d="m 464.80978,-10.667622 c -5.824,0 -7.136,6.6879997 -7.136,11.4880097 0,4.192 1.984,6.112 5.44,6.112 3.584,0 5.696,-2.816 6.208,-6.08 h -2.656 c -0.288,2.016 -1.664,3.744 -3.552,3.744 -1.824,0 -2.72,-1.312 -2.72,-4 0,-0.416 0.032,-1.024 0.096,-1.696 h 9.248 c 0.192,-1.21601 0.256,-2.43201 0.256,-3.52001 0,-4.128 -1.824,-6.0479997 -5.184,-6.0479997 z m 0,2.3359997 c 1.632,0 2.464,1.28 2.464,3.744 0,0.288 0,0.736 -0.032,1.152 h -6.432 c 0.512,-2.432 1.664,-4.896 4,-4.896 z"
       style="font-style:italic;font-variant:normal;font-weight:normal;font-stretch:normal;font-size:32px;line-height:30.54940224px;font-family:'Archivo Narrow';-inkscape-font-specification:'Archivo Narrow Italic';text-align:center;letter-spacing:0px;word-spacing:0px;writing-mode:lr-tb;text-anchor:middle;fill:#000000;fill-opacity:1;stroke:none;stroke-width:1px;stroke-linecap:butt;stroke-linejoin:miter;stroke-opacity:1"
       id="path4618" />
    <path
       inkscape:connector-curvature="0"
       d="m 480.71628,-10.667622 c -2.688,0 -4,1.9199997 -4.48,2.8799997 v -2.4959997 h -2.048 l -2.368,16.8320097 h 2.624 l 1.312,-9.40801 c 0.448,-3.232 1.856,-5.472 4,-5.472 1.248,0 1.92,0.608 1.92,2.048 0,1.024 -1.728,12.83201 -1.728,12.83201 h 2.624 c 0,0 1.792,-12.41601 1.792,-13.44001 0,-1.92 -0.864,-3.7759997 -3.648,-3.7759997 z"
       style="font-style:italic;font-variant:normal;font-weight:normal;font-stretch:normal;font-size:32px;line-height:30.54940224px;font-family:'Archivo Narrow';-inkscape-font-specification:'Archivo Narrow Italic';text-align:center;letter-spacing:0px;word-spacing:0px;writing-mode:lr-tb;text-anchor:middle;fill:#000000;fill-opacity:1;stroke:none;stroke-width:1px;stroke-linecap:butt;stroke-linejoin:miter;stroke-opacity:1"
       id="path4620" />
    <path
       inkscape:connector-curvature="0"
       d="m 492.17478,-14.955622 h -2.752 l -0.672,4.672 h -1.44 l -0.32,2.3359997 h 1.44 c 0,0 -1.664,11.26401 -1.664,12.09601 0,1.44 0.64,2.72 2.592,2.72 0.64,0 1.44,-0.192 1.952,-0.448 l 0.256,-1.824 h -0.928 c -0.8,0 -1.184,-0.416 -1.184,-1.184 0,-0.384 1.6,-11.36001 1.6,-11.36001 h 2.272 l 0.32,-2.3359997 h -2.272 z"
       style="font-style:italic;font-variant:normal;font-weight:normal;font-stretch:normal;font-size:32px;line-height:30.54940224px;font-family:'Archivo Narrow';-inkscape-font-specification:'Archivo Narrow Italic';text-align:center;letter-spacing:0px;word-spacing:0px;writing-mode:lr-tb;text-anchor:middle;fill:#000000;fill-opacity:1;stroke:none;stroke-width:1px;stroke-linecap:butt;stroke-linejoin:miter;stroke-opacity:1"
       id="path4622" />
    <path
       inkscape:connector-curvature="0"
       d="m 497.08728,-15.403622 c -0.448,5.4719997 -1.024,11.0079997 -1.536,16.4800097 h 1.984 c 1.12,-5.79201 2.752,-14.6560097 3.168,-16.4800097 z m 0.8,18.4960097 h -3.2 l -0.48,3.456 h 3.2 z"
       style="font-style:italic;font-variant:normal;font-weight:normal;font-stretch:normal;font-size:32px;line-height:30.54940224px;font-family:'Archivo Narrow';-inkscape-font-specification:'Archivo Narrow Italic';text-align:center;letter-spacing:0px;word-spacing:0px;writing-mode:lr-tb;text-anchor:middle;fill:#000000;fill-opacity:1;stroke:none;stroke-width:1px;stroke-linecap:butt;stroke-linejoin:miter;stroke-opacity:1"
       id="path4624" />
    <path
       inkscape:connector-curvature="0"
       d="m 271.19002,37.097788 c 7.008,0 9.536,-8.032 9.536,-13.728 0,-5.472 -2.688,-8.22399 -7.328,-8.22399 h -6.496 l -3.104,21.95199 z m 1.888,-19.392 c 2.976,0 4.736,1.856 4.736,5.696 0,4.48 -1.44,11.136 -6.944,11.136 h -3.872 l 2.336,-16.832 z"
       style="font-style:italic;font-variant:normal;font-weight:normal;font-stretch:normal;font-size:32px;line-height:30.54940224px;font-family:'Archivo Narrow';-inkscape-font-specification:'Archivo Narrow Italic';text-align:center;letter-spacing:0px;word-spacing:0px;writing-mode:lr-tb;text-anchor:middle;fill:#000000;fill-opacity:1;stroke:none;stroke-width:1px;stroke-linecap:butt;stroke-linejoin:miter;stroke-opacity:1"
       id="path4626" />
    <path
       inkscape:connector-curvature="0"
       d="m 289.83952,19.881788 c -5.824,0 -7.136,7.008 -7.136,11.616 0,4.096 1.856,5.984 5.312,5.984 5.824,0 7.136,-6.944 7.136,-11.552 0,-4.128 -1.856,-6.048 -5.312,-6.048 z m 0,2.336 c 1.728,0 2.592,1.28 2.592,3.744 0,2.272 -0.512,9.184 -4.416,9.184 -1.824,0 -2.592,-1.312 -2.592,-4 0,-2.208 0.544,-8.928 4.416,-8.928 z"
       style="font-style:italic;font-variant:normal;font-weight:normal;font-stretch:normal;font-size:32px;line-height:30.54940224px;font-family:'Archivo Narrow';-inkscape-font-specification:'Archivo Narrow Italic';text-align:center;letter-spacing:0px;word-spacing:0px;writing-mode:lr-tb;text-anchor:middle;fill:#000000;fill-opacity:1;stroke:none;stroke-width:1px;stroke-linecap:butt;stroke-linejoin:miter;stroke-opacity:1"
       id="path4628" />
    <path
       inkscape:connector-curvature="0"
       d="m 311.07452,19.881788 c -3.136,0 -6.496,3.648 -6.496,11.36 0,4.32 1.792,6.24 4.256,6.24 1.504,0 2.656,-0.832 3.872,-2.656 0.032,1.888 0.96,2.656 2.304,2.656 0.832,0 1.472,-0.288 1.792,-0.512 l 0.256,-1.824 h -1.024 c -0.416,0 -0.768,-0.256 -0.768,-0.896 0,-0.384 1.952,-13.984 1.952,-13.984 h -2.08 l -0.576,2.336 c -0.64,-2.08 -1.952,-2.72 -3.488,-2.72 z m 0.384,2.336 c 1.472,0 2.208,1.216 2.208,3.616 0,2.56 -0.992,9.312 -4.032,9.312 -1.568,0 -2.368,-1.216 -2.368,-3.648 0,-2.752 0.768,-9.28 4.192,-9.28 z"
       style="font-style:italic;font-variant:normal;font-weight:normal;font-stretch:normal;font-size:32px;line-height:30.54940224px;font-family:'Archivo Narrow';-inkscape-font-specification:'Archivo Narrow Italic';text-align:center;letter-spacing:0px;word-spacing:0px;writing-mode:lr-tb;text-anchor:middle;fill:#000000;fill-opacity:1;stroke:none;stroke-width:1px;stroke-linecap:butt;stroke-linejoin:miter;stroke-opacity:1"
       id="path4630" />
    <path
       inkscape:connector-curvature="0"
       d="m 324.42102,13.961798 h -2.624 l -3.2,23.13599 h 2.592 z"
       style="font-style:italic;font-variant:normal;font-weight:normal;font-stretch:normal;font-size:32px;line-height:30.54940224px;font-family:'Archivo Narrow';-inkscape-font-specification:'Archivo Narrow Italic';text-align:center;letter-spacing:0px;word-spacing:0px;writing-mode:lr-tb;text-anchor:middle;fill:#000000;fill-opacity:1;stroke:none;stroke-width:1px;stroke-linecap:butt;stroke-linejoin:miter;stroke-opacity:1"
       id="path4632" />
    <path
       inkscape:connector-curvature="0"
       d="m 330.23352,13.961798 h -2.624 l -3.2,23.13599 h 2.592 z"
       style="font-style:italic;font-variant:normal;font-weight:normal;font-stretch:normal;font-size:32px;line-height:30.54940224px;font-family:'Archivo Narrow';-inkscape-font-specification:'Archivo Narrow Italic';text-align:center;letter-spacing:0px;word-spacing:0px;writing-mode:lr-tb;text-anchor:middle;fill:#000000;fill-opacity:1;stroke:none;stroke-width:1px;stroke-linecap:butt;stroke-linejoin:miter;stroke-opacity:1"
       id="path4634" />
    <path
       inkscape:connector-curvature="0"
       d="m 347.07052,14.761798 c -4.288,0 -6.816,2.24 -6.816,6.27199 0,6.464 9.504,5.152 9.504,9.984 0,3.104 -2.816,3.872 -4.544,3.872 -2.624,0 -4.288,-1.152 -4.288,-3.776 0,-0.448 0.064,-0.96 0.16,-1.504 h -2.912 c -0.096,0.512 -0.096,0.992 -0.096,1.472 0,4.096 2.72,6.4 6.912,6.4 6.176,0 7.712,-3.936 7.712,-6.88 0,-6.816 -9.536,-5.312 -9.536,-9.888 0,-3.04 2.624,-3.36 3.744,-3.36 1.792,0 4.032,0.576 4.032,4.224 h 2.912 c 0,-3.872 -1.728,-6.81599 -6.784,-6.81599 z"
       style="font-style:italic;font-variant:normal;font-weight:normal;font-stretch:normal;font-size:32px;line-height:30.54940224px;font-family:'Archivo Narrow';-inkscape-font-specification:'Archivo Narrow Italic';text-align:center;letter-spacing:0px;word-spacing:0px;writing-mode:lr-tb;text-anchor:middle;fill:#000000;fill-opacity:1;stroke:none;stroke-width:1px;stroke-linecap:butt;stroke-linejoin:miter;stroke-opacity:1"
       id="path4636" />
    <path
       inkscape:connector-curvature="0"
       d="m 363.80252,19.881788 c -1.536,0 -2.944,0.832 -4.064,2.656 v -2.272 h -2.08 l -3.168,22.656 h 2.624 l 1.088,-7.68 c 0.736,1.6 1.952,2.24 3.36,2.24 3.136,0 6.496,-3.648 6.496,-11.36 0,-4.32 -1.792,-6.24 -4.256,-6.24 z m -0.8,2.336 c 1.568,0 2.368,1.216 2.368,3.648 0,2.752 -0.768,9.28 -4.192,9.28 -1.568,0 -2.336,-1.216 -2.336,-3.616 0,-2.56 0.832,-9.312 4.16,-9.312 z"
       style="font-style:italic;font-variant:normal;font-weight:normal;font-stretch:normal;font-size:32px;line-height:30.54940224px;font-family:'Archivo Narrow';-inkscape-font-specification:'Archivo Narrow Italic';text-align:center;letter-spacing:0px;word-spacing:0px;writing-mode:lr-tb;text-anchor:middle;fill:#000000;fill-opacity:1;stroke:none;stroke-width:1px;stroke-linecap:butt;stroke-linejoin:miter;stroke-opacity:1"
       id="path4638" />
    <path
       inkscape:connector-curvature="0"
       d="m 377.34102,19.881788 c -5.824,0 -7.136,6.688 -7.136,11.488 0,4.192 1.984,6.112 5.44,6.112 3.584,0 5.696,-2.816 6.208,-6.08 h -2.656 c -0.288,2.016 -1.664,3.744 -3.552,3.744 -1.824,0 -2.72,-1.312 -2.72,-4 0,-0.416 0.032,-1.024 0.096,-1.696 h 9.248 c 0.192,-1.216 0.256,-2.432 0.256,-3.52 0,-4.128 -1.824,-6.048 -5.184,-6.048 z m 0,2.336 c 1.632,0 2.464,1.28 2.464,3.744 0,0.288 0,0.736 -0.032,1.152 h -6.432 c 0.512,-2.432 1.664,-4.896 4,-4.896 z"
       style="font-style:italic;font-variant:normal;font-weight:normal;font-stretch:normal;font-size:32px;line-height:30.54940224px;font-family:'Archivo Narrow';-inkscape-font-specification:'Archivo Narrow Italic';text-align:center;letter-spacing:0px;word-spacing:0px;writing-mode:lr-tb;text-anchor:middle;fill:#000000;fill-opacity:1;stroke:none;stroke-width:1px;stroke-linecap:butt;stroke-linejoin:miter;stroke-opacity:1"
       id="path4640" />
    <path
       inkscape:connector-curvature="0"
       d="m 391.32752,19.881788 c -5.472,0 -6.688,6.528 -6.688,11.488 0,4.192 1.984,6.112 5.152,6.112 3.424,0 5.408,-3.104 5.82401,-6.528 h -2.62401 c -0.256,2.208 -1.472,4.192 -3.264,4.192 -1.536,0 -2.368,-1.472 -2.368,-4 0,-1.792 0.448,-8.928 3.968,-8.928 1.408,0 2.08,1.28 2.08,3.744 v 0.544 h 2.72001 v -0.576 c 0,-4.128 -1.66401,-6.048 -4.80001,-6.048 z"
       style="font-style:italic;font-variant:normal;font-weight:normal;font-stretch:normal;font-size:32px;line-height:30.54940224px;font-family:'Archivo Narrow';-inkscape-font-specification:'Archivo Narrow Italic';text-align:center;letter-spacing:0px;word-spacing:0px;writing-mode:lr-tb;text-anchor:middle;fill:#000000;fill-opacity:1;stroke:none;stroke-width:1px;stroke-linecap:butt;stroke-linejoin:miter;stroke-opacity:1"
       id="path4642" />
    <path
       inkscape:connector-curvature="0"
       d="m 402.24453,20.265788 h -2.624 l -2.336,16.832 h 2.592 z m 0.864,-6.30399 h -2.624 l -0.416,3.136 h 2.624 z"
       style="font-style:italic;font-variant:normal;font-weight:normal;font-stretch:normal;font-size:32px;line-height:30.54940224px;font-family:'Archivo Narrow';-inkscape-font-specification:'Archivo Narrow Italic';text-align:center;letter-spacing:0px;word-spacing:0px;writing-mode:lr-tb;text-anchor:middle;fill:#000000;fill-opacity:1;stroke:none;stroke-width:1px;stroke-linecap:butt;stroke-linejoin:miter;stroke-opacity:1"
       id="path4644" />
    <path
       inkscape:connector-curvature="0"
       d="m 410.13703,19.881788 c -3.136,0 -6.496,3.648 -6.496,11.36 0,4.32 1.792,6.24 4.256,6.24 1.504,0 2.656,-0.832 3.872,-2.656 0.032,1.888 0.96,2.656 2.304,2.656 0.832,0 1.472,-0.288 1.792,-0.512 l 0.256,-1.824 h -1.024 c -0.416,0 -0.768,-0.256 -0.768,-0.896 0,-0.384 1.952,-13.984 1.952,-13.984 h -2.08 l -0.576,2.336 c -0.64,-2.08 -1.952,-2.72 -3.488,-2.72 z m 0.384,2.336 c 1.472,0 2.208,1.216 2.208,3.616 0,2.56 -0.992,9.312 -4.032,9.312 -1.568,0 -2.368,-1.216 -2.368,-3.648 0,-2.752 0.768,-9.28 4.192,-9.28 z"
       style="font-style:italic;font-variant:normal;font-weight:normal;font-stretch:normal;font-size:32px;line-height:30.54940224px;font-family:'Archivo Narrow';-inkscape-font-specification:'Archivo Narrow Italic';text-align:center;letter-spacing:0px;word-spacing:0px;writing-mode:lr-tb;text-anchor:middle;fill:#000000;fill-opacity:1;stroke:none;stroke-width:1px;stroke-linecap:butt;stroke-linejoin:miter;stroke-opacity:1"
       id="path4646" />
    <path
       inkscape:connector-curvature="0"
       d="m 423.48353,13.961798 h -2.624 l -3.2,23.13599 h 2.592 z"
       style="font-style:italic;font-variant:normal;font-weight:normal;font-stretch:normal;font-size:32px;line-height:30.54940224px;font-family:'Archivo Narrow';-inkscape-font-specification:'Archivo Narrow Italic';text-align:center;letter-spacing:0px;word-spacing:0px;writing-mode:lr-tb;text-anchor:middle;fill:#000000;fill-opacity:1;stroke:none;stroke-width:1px;stroke-linecap:butt;stroke-linejoin:miter;stroke-opacity:1"
       id="path4648" />
    <path
       inkscape:connector-curvature="0"
       d="m 445.08853,37.097788 0.384,-2.56 h -10.912 l 1.024,-7.392 h 9.312 l 0.352,-2.56 h -9.312 l 0.96,-6.88 h 10.72 l 0.384,-2.55999 h -13.536 l -3.104,21.95199 z"
       style="font-style:italic;font-variant:normal;font-weight:normal;font-stretch:normal;font-size:32px;line-height:30.54940224px;font-family:'Archivo Narrow';-inkscape-font-specification:'Archivo Narrow Italic';text-align:center;letter-spacing:0px;word-spacing:0px;writing-mode:lr-tb;text-anchor:middle;fill:#000000;fill-opacity:1;stroke:none;stroke-width:1px;stroke-linecap:butt;stroke-linejoin:miter;stroke-opacity:1"
       id="path4650" />
    <path
       inkscape:connector-curvature="0"
       d="m 462.07653,20.265788 h -2.816 l -5.376,13.024 h -0.128 l -1.728,-13.024 h -2.784 l 2.496,16.832 h 2.848 z"
       style="font-style:italic;font-variant:normal;font-weight:normal;font-stretch:normal;font-size:32px;line-height:30.54940224px;font-family:'Archivo Narrow';-inkscape-font-specification:'Archivo Narrow Italic';text-align:center;letter-spacing:0px;word-spacing:0px;writing-mode:lr-tb;text-anchor:middle;fill:#000000;fill-opacity:1;stroke:none;stroke-width:1px;stroke-linecap:butt;stroke-linejoin:miter;stroke-opacity:1"
       id="path4652" />
    <path
       inkscape:connector-curvature="0"
       d="m 469.15353,19.881788 c -5.824,0 -7.136,6.688 -7.136,11.488 0,4.192 1.984,6.112 5.44,6.112 3.584,0 5.696,-2.816 6.208,-6.08 h -2.656 c -0.288,2.016 -1.664,3.744 -3.552,3.744 -1.824,0 -2.72,-1.312 -2.72,-4 0,-0.416 0.032,-1.024 0.096,-1.696 h 9.248 c 0.192,-1.216 0.256,-2.432 0.256,-3.52 0,-4.128 -1.824,-6.048 -5.184,-6.048 z m 0,2.336 c 1.632,0 2.464,1.28 2.464,3.744 0,0.288 0,0.736 -0.032,1.152 h -6.432 c 0.512,-2.432 1.664,-4.896 4,-4.896 z"
       style="font-style:italic;font-variant:normal;font-weight:normal;font-stretch:normal;font-size:32px;line-height:30.54940224px;font-family:'Archivo Narrow';-inkscape-font-specification:'Archivo Narrow Italic';text-align:center;letter-spacing:0px;word-spacing:0px;writing-mode:lr-tb;text-anchor:middle;fill:#000000;fill-opacity:1;stroke:none;stroke-width:1px;stroke-linecap:butt;stroke-linejoin:miter;stroke-opacity:1"
       id="path4654" />
    <path
       inkscape:connector-curvature="0"
       d="m 485.06003,19.881788 c -2.688,0 -4,1.92 -4.48,2.88 v -2.496 h -2.048 l -2.368,16.832 h 2.624 l 1.312,-9.408 c 0.448,-3.232 1.856,-5.472 4,-5.472 1.248,0 1.92,0.608 1.92,2.048 0,1.024 -1.728,12.832 -1.728,12.832 h 2.624 c 0,0 1.792,-12.416 1.792,-13.44 0,-1.92 -0.864,-3.776 -3.648,-3.776 z"
       style="font-style:italic;font-variant:normal;font-weight:normal;font-stretch:normal;font-size:32px;line-height:30.54940224px;font-family:'Archivo Narrow';-inkscape-font-specification:'Archivo Narrow Italic';text-align:center;letter-spacing:0px;word-spacing:0px;writing-mode:lr-tb;text-anchor:middle;fill:#000000;fill-opacity:1;stroke:none;stroke-width:1px;stroke-linecap:butt;stroke-linejoin:miter;stroke-opacity:1"
       id="path4656" />
    <path
       inkscape:connector-curvature="0"
       d="m 496.51853,15.593798 h -2.752 l -0.672,4.67199 h -1.44 l -0.32,2.336 h 1.44 c 0,0 -1.664,11.264 -1.664,12.096 0,1.44 0.64,2.72 2.592,2.72 0.64,0 1.44,-0.192 1.952,-0.448 l 0.256,-1.824 h -0.928 c -0.8,0 -1.184,-0.416 -1.184,-1.184 0,-0.384 1.6,-11.36 1.6,-11.36 h 2.272 l 0.32,-2.336 h -2.272 z"
       style="font-style:italic;font-variant:normal;font-weight:normal;font-stretch:normal;font-size:32px;line-height:30.54940224px;font-family:'Archivo Narrow';-inkscape-font-specification:'Archivo Narrow Italic';text-align:center;letter-spacing:0px;word-spacing:0px;writing-mode:lr-tb;text-anchor:middle;fill:#000000;fill-opacity:1;stroke:none;stroke-width:1px;stroke-linecap:butt;stroke-linejoin:miter;stroke-opacity:1"
       id="path4658" />
    <path
       inkscape:connector-curvature="0"
       d="m 504.75903,19.881788 c -3.424,0 -5.184,2.08 -5.184,4.736 0,5.024 6.4,4.384 6.4,8.16 0,1.312 -0.96,2.4 -2.432,2.4 -1.536,0 -2.848,-0.896 -2.848,-2.88 0,-0.32 0.032,-0.672 0.096,-1.024 h -2.72 c -0.064,0.352 -0.064,0.704 -0.064,1.024 0,3.168 2.368,5.184 5.28,5.184 3.296,0 5.408,-1.888 5.408,-5.12 0,-5.44 -6.4,-4.288 -6.4,-8.128 0,-1.344 1.248,-2.048 2.176,-2.048 1.184,0 2.368,0.672 2.368,2.976 h 2.72 c 0,-2.72 -1.376,-5.28 -4.8,-5.28 z"
       style="font-style:italic;font-variant:normal;font-weight:normal;font-stretch:normal;font-size:32px;line-height:30.54940224px;font-family:'Archivo Narrow';-inkscape-font-specification:'Archivo Narrow Italic';text-align:center;letter-spacing:0px;word-spacing:0px;writing-mode:lr-tb;text-anchor:middle;fill:#000000;fill-opacity:1;stroke:none;stroke-width:1px;stroke-linecap:butt;stroke-linejoin:miter;stroke-opacity:1"
       id="path4660" />
    <path
       inkscape:connector-curvature="0"
       d="m 525.32453,19.881788 c -3.136,0 -6.496,3.648 -6.496,11.36 0,4.32 1.792,6.24 4.256,6.24 1.504,0 2.656,-0.832 3.872,-2.656 0.032,1.888 0.96,2.656 2.304,2.656 0.832,0 1.472,-0.288 1.792,-0.512 l 0.256,-1.824 h -1.024 c -0.416,0 -0.768,-0.256 -0.768,-0.896 0,-0.384 1.952,-13.984 1.952,-13.984 h -2.08 l -0.576,2.336 c -0.64,-2.08 -1.952,-2.72 -3.488,-2.72 z m 0.384,2.336 c 1.472,0 2.208,1.216 2.208,3.616 0,2.56 -0.992,9.312 -4.032,9.312 -1.568,0 -2.368,-1.216 -2.368,-3.648 0,-2.752 0.768,-9.28 4.192,-9.28 z"
       style="font-style:italic;font-variant:normal;font-weight:normal;font-stretch:normal;font-size:32px;line-height:30.54940224px;font-family:'Archivo Narrow';-inkscape-font-specification:'Archivo Narrow Italic';text-align:center;letter-spacing:0px;word-spacing:0px;writing-mode:lr-tb;text-anchor:middle;fill:#000000;fill-opacity:1;stroke:none;stroke-width:1px;stroke-linecap:butt;stroke-linejoin:miter;stroke-opacity:1"
       id="path4662" />
    <path
       inkscape:connector-curvature="0"
       d="m 539.59903,13.705798 c -2.56,0 -3.616,1.952 -3.872,3.87199 l -0.384,2.688 h -1.472 l -0.32,2.336 h 1.472 l -2.176,16.576 c -0.128,0.992 -0.704,1.536 -1.696,1.536 h -1.408 l -0.256,1.824 c 0.512,0.192 1.376,0.384 2.144,0.384 2.528,0 3.584,-1.952 3.84,-3.872 l 2.176,-16.448 h 2.912 l 0.32,-2.336 h -2.912 l 0.384,-2.816 c 0.128,-0.99199 0.736,-1.53599 1.728,-1.53599 h 1.408 l 0.256,-1.824 c -0.512,-0.192 -1.376,-0.384 -2.144,-0.384 z"
       style="font-style:italic;font-variant:normal;font-weight:normal;font-stretch:normal;font-size:32px;line-height:30.54940224px;font-family:'Archivo Narrow';-inkscape-font-specification:'Archivo Narrow Italic';text-align:center;letter-spacing:0px;word-spacing:0px;writing-mode:lr-tb;text-anchor:middle;fill:#000000;fill-opacity:1;stroke:none;stroke-width:1px;stroke-linecap:butt;stroke-linejoin:miter;stroke-opacity:1"
       id="path4664" />
    <path
       inkscape:connector-curvature="0"
       d="m 546.14353,15.593798 h -2.752 l -0.672,4.67199 h -1.44 l -0.32,2.336 h 1.44 c 0,0 -1.664,11.264 -1.664,12.096 0,1.44 0.64,2.72 2.592,2.72 0.64,0 1.44,-0.192 1.952,-0.448 l 0.256,-1.824 h -0.928 c -0.8,0 -1.184,-0.416 -1.184,-1.184 0,-0.384 1.6,-11.36 1.6,-11.36 h 2.272 l 0.32,-2.336 h -2.272 z"
       style="font-style:italic;font-variant:normal;font-weight:normal;font-stretch:normal;font-size:32px;line-height:30.54940224px;font-family:'Archivo Narrow';-inkscape-font-specification:'Archivo Narrow Italic';text-align:center;letter-spacing:0px;word-spacing:0px;writing-mode:lr-tb;text-anchor:middle;fill:#000000;fill-opacity:1;stroke:none;stroke-width:1px;stroke-linecap:butt;stroke-linejoin:miter;stroke-opacity:1"
       id="path4666" />
    <path
       inkscape:connector-curvature="0"
       d="m 555.21603,19.881788 c -5.824,0 -7.136,6.688 -7.136,11.488 0,4.192 1.984,6.112 5.44,6.112 3.584,0 5.696,-2.816 6.208,-6.08 h -2.656 c -0.288,2.016 -1.664,3.744 -3.552,3.744 -1.824,0 -2.72,-1.312 -2.72,-4 0,-0.416 0.032,-1.024 0.096,-1.696 h 9.248 c 0.192,-1.216 0.256,-2.432 0.256,-3.52 0,-4.128 -1.824,-6.048 -5.184,-6.048 z m 0,2.336 c 1.632,0 2.464,1.28 2.464,3.744 0,0.288 0,0.736 -0.032,1.152 h -6.432 c 0.512,-2.432 1.664,-4.896 4,-4.896 z"
       style="font-style:italic;font-variant:normal;font-weight:normal;font-stretch:normal;font-size:32px;line-height:30.54940224px;font-family:'Archivo Narrow';-inkscape-font-specification:'Archivo Narrow Italic';text-align:center;letter-spacing:0px;word-spacing:0px;writing-mode:lr-tb;text-anchor:middle;fill:#000000;fill-opacity:1;stroke:none;stroke-width:1px;stroke-linecap:butt;stroke-linejoin:miter;stroke-opacity:1"
       id="path4668" />
    <path
       inkscape:connector-curvature="0"
       d="m 569.81053,19.881788 c -1.92,0 -2.752,1.792 -3.36,3.072 v -2.688 h -2.048 l -2.368,16.832 h 2.624 l 1.376,-9.728 c 0.416,-2.976 2.08,-4.512 3.744,-4.512 h 0.864 l 0.384,-2.72 c 0,0 -0.512,-0.256 -1.216,-0.256 z"
       style="font-style:italic;font-variant:normal;font-weight:normal;font-stretch:normal;font-size:32px;line-height:30.54940224px;font-family:'Archivo Narrow';-inkscape-font-specification:'Archivo Narrow Italic';text-align:center;letter-spacing:0px;word-spacing:0px;writing-mode:lr-tb;text-anchor:middle;fill:#000000;fill-opacity:1;stroke:none;stroke-width:1px;stroke-linecap:butt;stroke-linejoin:miter;stroke-opacity:1"
       id="path4670" />
    <path
       inkscape:connector-curvature="0"
       d="m 319.48727,46.143188 h -2.752 l -0.672,4.672 h -1.44 l -0.32,2.336 h 1.44 c 0,0 -1.664,11.264 -1.664,12.096 0,1.44 0.64,2.72 2.592,2.72 0.64,0 1.44,-0.192 1.952,-0.448 l 0.256,-1.824 h -0.928 c -0.8,0 -1.184,-0.416 -1.184,-1.184 0,-0.384 1.6,-11.36 1.6,-11.36 h 2.272 l 0.32,-2.336 h -2.272 z"
       style="font-style:italic;font-variant:normal;font-weight:normal;font-stretch:normal;font-size:32px;line-height:30.54940224px;font-family:'Archivo Narrow';-inkscape-font-specification:'Archivo Narrow Italic';text-align:center;letter-spacing:0px;word-spacing:0px;writing-mode:lr-tb;text-anchor:middle;fill:#000000;fill-opacity:1;stroke:none;stroke-width:1px;stroke-linecap:butt;stroke-linejoin:miter;stroke-opacity:1"
       id="path4672" />
    <path
       inkscape:connector-curvature="0"
       d="m 326.86377,44.511188 h -2.624 l -3.232,23.136 h 2.592 l 1.312,-9.408 c 0.448,-3.232 1.856,-5.472 4,-5.472 1.248,0 1.92,0.608 1.92,2.048 0,1.024 -1.728,12.832 -1.728,12.832 h 2.624 c 0,0 1.792,-12.416 1.792,-13.44 0,-1.92 -0.864,-3.776 -3.648,-3.776 -2.24,0 -3.52,1.344 -4.16,2.336 z"
       style="font-style:italic;font-variant:normal;font-weight:normal;font-stretch:normal;font-size:32px;line-height:30.54940224px;font-family:'Archivo Narrow';-inkscape-font-specification:'Archivo Narrow Italic';text-align:center;letter-spacing:0px;word-spacing:0px;writing-mode:lr-tb;text-anchor:middle;fill:#000000;fill-opacity:1;stroke:none;stroke-width:1px;stroke-linecap:butt;stroke-linejoin:miter;stroke-opacity:1"
       id="path4674" />
    <path
       inkscape:connector-curvature="0"
       d="m 343.12227,50.431188 c -5.824,0 -7.136,6.688 -7.136,11.488 0,4.192 1.984,6.112 5.44,6.112 3.584,0 5.696,-2.816 6.208,-6.08 h -2.656 c -0.288,2.016 -1.664,3.744 -3.552,3.744 -1.824,0 -2.72,-1.312 -2.72,-4 0,-0.416 0.032,-1.024 0.096,-1.696 h 9.248 c 0.192,-1.216 0.256,-2.432 0.256,-3.52 0,-4.128 -1.824,-6.048 -5.184,-6.048 z m 0,2.336 c 1.632,0 2.464,1.28 2.464,3.744 0,0.288 0,0.736 -0.032,1.152 h -6.432 c 0.512,-2.432 1.664,-4.896 4,-4.896 z"
       style="font-style:italic;font-variant:normal;font-weight:normal;font-stretch:normal;font-size:32px;line-height:30.54940224px;font-family:'Archivo Narrow';-inkscape-font-specification:'Archivo Narrow Italic';text-align:center;letter-spacing:0px;word-spacing:0px;writing-mode:lr-tb;text-anchor:middle;fill:#000000;fill-opacity:1;stroke:none;stroke-width:1px;stroke-linecap:butt;stroke-linejoin:miter;stroke-opacity:1"
       id="path4676" />
    <path
       inkscape:connector-curvature="0"
       d="m 365.02927,50.431188 c -1.92,0 -2.752,1.792 -3.36,3.072 v -2.688 h -2.048 l -2.368,16.832 h 2.624 l 1.376,-9.728 c 0.416,-2.976 2.08,-4.512 3.744,-4.512 h 0.864 l 0.384,-2.72 c 0,0 -0.512,-0.256 -1.216,-0.256 z"
       style="font-style:italic;font-variant:normal;font-weight:normal;font-stretch:normal;font-size:32px;line-height:30.54940224px;font-family:'Archivo Narrow';-inkscape-font-specification:'Archivo Narrow Italic';text-align:center;letter-spacing:0px;word-spacing:0px;writing-mode:lr-tb;text-anchor:middle;fill:#000000;fill-opacity:1;stroke:none;stroke-width:1px;stroke-linecap:butt;stroke-linejoin:miter;stroke-opacity:1"
       id="path4678" />
    <path
       inkscape:connector-curvature="0"
       d="m 373.74727,50.431188 c -5.824,0 -7.136,6.688 -7.136,11.488 0,4.192 1.984,6.112 5.44,6.112 3.584,0 5.696,-2.816 6.208,-6.08 h -2.656 c -0.288,2.016 -1.664,3.744 -3.552,3.744 -1.824,0 -2.72,-1.312 -2.72,-4 0,-0.416 0.032,-1.024 0.096,-1.696 h 9.248 c 0.192,-1.216 0.256,-2.432 0.256,-3.52 0,-4.128 -1.824,-6.048 -5.184,-6.048 z m 0,2.336 c 1.632,0 2.464,1.28 2.464,3.744 0,0.288 0,0.736 -0.032,1.152 h -6.432 c 0.512,-2.432 1.664,-4.896 4,-4.896 z"
       style="font-style:italic;font-variant:normal;font-weight:normal;font-stretch:normal;font-size:32px;line-height:30.54940224px;font-family:'Archivo Narrow';-inkscape-font-specification:'Archivo Narrow Italic';text-align:center;letter-spacing:0px;word-spacing:0px;writing-mode:lr-tb;text-anchor:middle;fill:#000000;fill-opacity:1;stroke:none;stroke-width:1px;stroke-linecap:butt;stroke-linejoin:miter;stroke-opacity:1"
       id="path4680" />
    <path
       inkscape:connector-curvature="0"
       d="m 388.05377,52.767188 c 1.568,0 2.336,1.216 2.368,3.616 0,2.368 -0.928,8.672 -4.064,8.672 -1.568,0 -2.432,-1.024 -2.432,-3.232 0,-2.656 0.64,-9.056 4.128,-9.056 z m 1.024,14.08 c -0.48,2.944 -1.568,4.32 -3.648,4.32 -1.696,0 -2.528,-0.928 -2.528,-2.752 h -2.624 c 0,2.688 1.6,5.056 5.056,5.056 3.616,0 5.728,-2.144 6.464,-7.392 l 2.144,-15.264 h -2.08 l -0.544,2.336 c -0.672,-2.08 -2.016,-2.72 -3.616,-2.72 -3.136,0 -6.464,3.456 -6.464,11.136 0,2.848 1.12,5.824 4.288,5.824 1.568,0 2.752,-0.832 3.904,-2.656 z"
       style="font-style:italic;font-variant:normal;font-weight:normal;font-stretch:normal;font-size:32px;line-height:30.54940224px;font-family:'Archivo Narrow';-inkscape-font-specification:'Archivo Narrow Italic';text-align:center;letter-spacing:0px;word-spacing:0px;writing-mode:lr-tb;text-anchor:middle;fill:#000000;fill-opacity:1;stroke:none;stroke-width:1px;stroke-linecap:butt;stroke-linejoin:miter;stroke-opacity:1"
       id="path4682" />
    <path
       inkscape:connector-curvature="0"
       d="m 408.50428,50.815188 h -2.624 l -1.312,9.408 c -0.448,3.232 -1.856,5.472 -4,5.472 -1.248,0 -1.92,-0.608 -1.92,-2.048 0,-1.024 1.728,-12.832 1.728,-12.832 h -2.624 c 0,0 -1.792,12.416 -1.792,13.44 0,1.92 0.864,3.776 3.648,3.776 2.688,0 4,-1.888 4.48,-2.848 v 2.464 h 2.048 z"
       style="font-style:italic;font-variant:normal;font-weight:normal;font-stretch:normal;font-size:32px;line-height:30.54940224px;font-family:'Archivo Narrow';-inkscape-font-specification:'Archivo Narrow Italic';text-align:center;letter-spacing:0px;word-spacing:0px;writing-mode:lr-tb;text-anchor:middle;fill:#000000;fill-opacity:1;stroke:none;stroke-width:1px;stroke-linecap:butt;stroke-linejoin:miter;stroke-opacity:1"
       id="path4684" />
    <path
       inkscape:connector-curvature="0"
       d="m 415.51478,44.511188 h -2.624 l -3.2,23.136 h 2.592 z"
       style="font-style:italic;font-variant:normal;font-weight:normal;font-stretch:normal;font-size:32px;line-height:30.54940224px;font-family:'Archivo Narrow';-inkscape-font-specification:'Archivo Narrow Italic';text-align:center;letter-spacing:0px;word-spacing:0px;writing-mode:lr-tb;text-anchor:middle;fill:#000000;fill-opacity:1;stroke:none;stroke-width:1px;stroke-linecap:butt;stroke-linejoin:miter;stroke-opacity:1"
       id="path4686" />
    <path
       inkscape:connector-curvature="0"
       d="m 422.54328,50.431188 c -3.136,0 -6.496,3.648 -6.496,11.36 0,4.32 1.792,6.24 4.256,6.24 1.504,0 2.656,-0.832 3.872,-2.656 0.032,1.888 0.96,2.656 2.304,2.656 0.832,0 1.472,-0.288 1.792,-0.512 l 0.256,-1.824 h -1.024 c -0.416,0 -0.768,-0.256 -0.768,-0.896 0,-0.384 1.952,-13.984 1.952,-13.984 h -2.08 l -0.576,2.336 c -0.64,-2.08 -1.952,-2.72 -3.488,-2.72 z m 0.384,2.336 c 1.472,0 2.208,1.216 2.208,3.616 0,2.56 -0.992,9.312 -4.032,9.312 -1.568,0 -2.368,-1.216 -2.368,-3.648 0,-2.752 0.768,-9.28 4.192,-9.28 z"
       style="font-style:italic;font-variant:normal;font-weight:normal;font-stretch:normal;font-size:32px;line-height:30.54940224px;font-family:'Archivo Narrow';-inkscape-font-specification:'Archivo Narrow Italic';text-align:center;letter-spacing:0px;word-spacing:0px;writing-mode:lr-tb;text-anchor:middle;fill:#000000;fill-opacity:1;stroke:none;stroke-width:1px;stroke-linecap:butt;stroke-linejoin:miter;stroke-opacity:1"
       id="path4688" />
    <path
       inkscape:connector-curvature="0"
       d="m 437.84178,50.431188 c -1.92,0 -2.752,1.792 -3.36,3.072 v -2.688 h -2.048 l -2.368,16.832 h 2.624 l 1.376,-9.728 c 0.416,-2.976 2.08,-4.512 3.744,-4.512 h 0.864 l 0.384,-2.72 c 0,0 -0.512,-0.256 -1.216,-0.256 z"
       style="font-style:italic;font-variant:normal;font-weight:normal;font-stretch:normal;font-size:32px;line-height:30.54940224px;font-family:'Archivo Narrow';-inkscape-font-specification:'Archivo Narrow Italic';text-align:center;letter-spacing:0px;word-spacing:0px;writing-mode:lr-tb;text-anchor:middle;fill:#000000;fill-opacity:1;stroke:none;stroke-width:1px;stroke-linecap:butt;stroke-linejoin:miter;stroke-opacity:1"
       id="path4690" />
    <path
       inkscape:connector-curvature="0"
       d="m 460.43228,67.647188 0.384,-2.56 h -10.912 l 1.024,-7.392 h 9.312 l 0.352,-2.56 h -9.312 l 0.96,-6.88 h 10.72 l 0.384,-2.56 h -13.536 l -3.104,21.952 z"
       style="font-style:italic;font-variant:normal;font-weight:normal;font-stretch:normal;font-size:32px;line-height:30.54940224px;font-family:'Archivo Narrow';-inkscape-font-specification:'Archivo Narrow Italic';text-align:center;letter-spacing:0px;word-spacing:0px;writing-mode:lr-tb;text-anchor:middle;fill:#000000;fill-opacity:1;stroke:none;stroke-width:1px;stroke-linecap:butt;stroke-linejoin:miter;stroke-opacity:1"
       id="path4692" />
    <path
       inkscape:connector-curvature="0"
       d="m 477.42028,50.815188 h -2.816 l -5.376,13.024 h -0.128 l -1.728,-13.024 h -2.784 l 2.496,16.832 h 2.848 z"
       style="font-style:italic;font-variant:normal;font-weight:normal;font-stretch:normal;font-size:32px;line-height:30.54940224px;font-family:'Archivo Narrow';-inkscape-font-specification:'Archivo Narrow Italic';text-align:center;letter-spacing:0px;word-spacing:0px;writing-mode:lr-tb;text-anchor:middle;fill:#000000;fill-opacity:1;stroke:none;stroke-width:1px;stroke-linecap:butt;stroke-linejoin:miter;stroke-opacity:1"
       id="path4694" />
    <path
       inkscape:connector-curvature="0"
       d="m 484.49728,50.431188 c -5.824,0 -7.136,6.688 -7.136,11.488 0,4.192 1.984,6.112 5.44,6.112 3.584,0 5.696,-2.816 6.208,-6.08 h -2.656 c -0.288,2.016 -1.664,3.744 -3.552,3.744 -1.824,0 -2.72,-1.312 -2.72,-4 0,-0.416 0.032,-1.024 0.096,-1.696 h 9.248 c 0.192,-1.216 0.256,-2.432 0.256,-3.52 0,-4.128 -1.824,-6.048 -5.184,-6.048 z m 0,2.336 c 1.632,0 2.464,1.28 2.464,3.744 0,0.288 0,0.736 -0.032,1.152 h -6.432 c 0.512,-2.432 1.664,-4.896 4,-4.896 z"
       style="font-style:italic;font-variant:normal;font-weight:normal;font-stretch:normal;font-size:32px;line-height:30.54940224px;font-family:'Archivo Narrow';-inkscape-font-specification:'Archivo Narrow Italic';text-align:center;letter-spacing:0px;word-spacing:0px;writing-mode:lr-tb;text-anchor:middle;fill:#000000;fill-opacity:1;stroke:none;stroke-width:1px;stroke-linecap:butt;stroke-linejoin:miter;stroke-opacity:1"
       id="path4696" />
    <path
       inkscape:connector-curvature="0"
       d="m 500.40378,50.431188 c -2.688,0 -4,1.92 -4.48,2.88 v -2.496 h -2.048 l -2.368,16.832 h 2.624 l 1.312,-9.408 c 0.448,-3.232 1.856,-5.472 4,-5.472 1.248,0 1.92,0.608 1.92,2.048 0,1.024 -1.728,12.832 -1.728,12.832 h 2.624 c 0,0 1.792,-12.416 1.792,-13.44 0,-1.92 -0.864,-3.776 -3.648,-3.776 z"
       style="font-style:italic;font-variant:normal;font-weight:normal;font-stretch:normal;font-size:32px;line-height:30.54940224px;font-family:'Archivo Narrow';-inkscape-font-specification:'Archivo Narrow Italic';text-align:center;letter-spacing:0px;word-spacing:0px;writing-mode:lr-tb;text-anchor:middle;fill:#000000;fill-opacity:1;stroke:none;stroke-width:1px;stroke-linecap:butt;stroke-linejoin:miter;stroke-opacity:1"
       id="path4698" />
    <path
       inkscape:connector-curvature="0"
       d="m 511.86228,46.143188 h -2.752 l -0.672,4.672 h -1.44 l -0.32,2.336 h 1.44 c 0,0 -1.664,11.264 -1.664,12.096 0,1.44 0.64,2.72 2.592,2.72 0.64,0 1.44,-0.192 1.952,-0.448 l 0.256,-1.824 h -0.928 c -0.8,0 -1.184,-0.416 -1.184,-1.184 0,-0.384 1.6,-11.36 1.6,-11.36 h 2.272 l 0.32,-2.336 h -2.272 z"
       style="font-style:italic;font-variant:normal;font-weight:normal;font-stretch:normal;font-size:32px;line-height:30.54940224px;font-family:'Archivo Narrow';-inkscape-font-specification:'Archivo Narrow Italic';text-align:center;letter-spacing:0px;word-spacing:0px;writing-mode:lr-tb;text-anchor:middle;fill:#000000;fill-opacity:1;stroke:none;stroke-width:1px;stroke-linecap:butt;stroke-linejoin:miter;stroke-opacity:1"
       id="path4700" />
  </g>
</svg>
