<?xml version="1.0" encoding="UTF-8" standalone="no"?>
<!-- Created with Inkscape (http://www.inkscape.org/) -->

<svg
   xmlns:dc="http://purl.org/dc/elements/1.1/"
   xmlns:cc="http://creativecommons.org/ns#"
   xmlns:rdf="http://www.w3.org/1999/02/22-rdf-syntax-ns#"
   xmlns:svg="http://www.w3.org/2000/svg"
   xmlns="http://www.w3.org/2000/svg"
   xmlns:sodipodi="http://sodipodi.sourceforge.net/DTD/sodipodi-0.dtd"
   xmlns:inkscape="http://www.inkscape.org/namespaces/inkscape"
   width="825"
   height="1125"
   viewBox="0 0 825 1125"
   version="1.1"
   id="svg24"
   inkscape:version="0.92.0 r15299"
   sodipodi:docname="special_events_locks.svg">
  <defs
     id="defs18" />
  <sodipodi:namedview
     id="base"
     pagecolor="#ffffff"
     bordercolor="#666666"
     borderopacity="1.0"
     inkscape:pageopacity="0.0"
     inkscape:pageshadow="2"
     inkscape:zoom="0.9899495"
     inkscape:cx="373.08507"
     inkscape:cy="619.7681"
     inkscape:document-units="px"
     inkscape:current-layer="text4560"
     showgrid="false"
     units="px"
     showguides="true"
     inkscape:guide-bbox="true"
     inkscape:window-width="1920"
     inkscape:window-height="1017"
     inkscape:window-x="1672"
     inkscape:window-y="134"
     inkscape:window-maximized="1"
     inkscape:snap-global="false" />
  <metadata
     id="metadata21">
    <rdf:RDF>
      <cc:Work
         rdf:about="">
        <dc:format>image/svg+xml</dc:format>
        <dc:type
           rdf:resource="http://purl.org/dc/dcmitype/StillImage" />
        <dc:title />
      </cc:Work>
    </rdf:RDF>
  </metadata>
  <g
     inkscape:label="Layer 1"
     inkscape:groupmode="layer"
     id="layer1"
     transform="translate(0,221.28127)">
    <g
       class=""
       id="g4535"
       transform="matrix(0.16510497,-0.03544699,0.03544699,0.16510497,613.76225,-11.501768)"
       style="fill:#f40000;fill-opacity:1;stroke-width:5.92181206">
      <path
         style="fill:#f40000;fill-opacity:1;stroke-width:5.92181206"
         inkscape:connector-curvature="0"
         d="m 425.344,22.22 c -9.027,0.085 -18.7,5.826 -24.344,19.405 -11.143,26.803 -31.93,59.156 -58.563,93.47 10.57,8.694 19.85,18.92 27.5,30.31 35.1,-26.57 68.882,-46.81 98.125,-56.75 44.6,-15.16 12.02,-69.72 -35.343,-35.343 26.91,-27.842 11.107,-51.27 -7.376,-51.093 z M 84.124,22.25 C 65.624,22.628 46.52,46.212 67.781,72.125 31.523,38.635 -0.802,85.48 37.095,102.813 c 28.085,12.844 62.54,35.66 99.062,64.343 8.125,-12.5 18.207,-23.61 29.78,-32.937 -26.782,-35.743 -48.44,-69.835 -61.78,-98.47 -4.515,-9.69 -12.22,-13.66 -20.03,-13.5 z m 169.5,99.688 c -67.104,0 -121.31,54.21 -121.31,121.312 0,44.676 24.04,83.613 59.905,104.656 v 56.406 h 18.718 v -47.468 c 5.203,1.95 10.576,3.552 16.093,4.78 v 42.688 h 18.69 v -40.03 c 2.614,0.167 5.247,0.25 7.905,0.25 2.637,0 5.25,-0.086 7.844,-0.25 v 40.03 h 18.686 v -42.687 c 5.52,-1.226 10.89,-2.834 16.094,-4.78 v 47.467 h 18.688 V 347.97 c 35.92,-21.03 60,-60.003 60,-104.72 0,-67.105 -54.208,-121.313 -121.313,-121.313 z m -66.874,88.218 c 19.88,0 36,16.12 36,36 0,19.88 -16.12,36 -36,36 -19.88,0 -36,-16.12 -36,-36 0,-19.88 16.12,-36 36,-36 z m 133.563,0 c 19.878,0 36,16.12 36,36 0,19.88 -16.122,36 -36,36 -19.88,0 -36,-16.12 -36,-36 0,-19.88 16.12,-36 36,-36 z m -66.72,52.344 29.938,48.188 H 223.657 L 253.595,262.5 Z m -107.28,70.563 c -40.263,32.472 -78.546,58.41 -109.22,72.437 -37.896,17.334 -5.57,64.146 30.688,30.656 -30.237,36.854 21.167,69.05 36.376,36.406 15.072,-32.352 40.727,-71.7 72.438,-112.5 -11.352,-7.506 -21.564,-16.603 -30.28,-27 z m 213.156,1.718 c -8.155,9.415 -17.542,17.72 -27.908,24.69 31.846,39.39 56.82,76.862 69.438,107.217 17.203,41.383 71.774,9.722 31.72,-31.718 47.363,34.376 79.94,-20.185 35.342,-35.345 -32.146,-10.926 -69.758,-34.3 -108.593,-64.844 z"
         id="path4533" />
    </g>
    <g
       style="fill:#f40000;fill-opacity:1;stroke-width:3.2077558"
       transform="matrix(0.30128948,0.08005774,-0.08005774,0.30128948,-1.2372475,-67.963531)"
       id="g4537"
       class="">
      <path
         id="path4535"
         d="m 676.18894,41.118869 c -4.88979,0.04604 -10.1295,3.155856 -13.18677,10.511394 -6.036,14.518779 -17.296,32.043908 -31.72269,50.631277 5.72561,4.70941 10.75244,10.24868 14.89633,16.41847 19.01314,-14.39256 37.31234,-25.356266 53.15282,-30.740613 24.15915,-8.211942 6.51106,-37.766266 -19.14476,-19.144767 14.57674,-15.081589 6.01649,-27.772181 -3.99547,-27.676303 z m -184.8337,0.01625 c -10.02116,0.204757 -20.36951,12.979852 -8.85275,27.016531 -19.64041,-18.141025 -37.15037,7.234201 -16.62214,16.623224 15.21322,6.9574 33.87697,19.316486 53.66038,34.853626 4.40119,-6.77106 9.86246,-12.78918 16.13138,-17.84147 -14.50741,-19.361443 -26.23922,-37.828562 -33.46529,-53.339707 -2.44571,-5.248926 -6.61939,-7.399415 -10.84995,-7.312745 z m 91.81558,53.999478 c -36.34922,0 -65.71178,29.364733 -65.71178,65.712873 0,24.20031 13.0221,45.29189 32.44963,56.69056 v 30.55428 h 10.13925 v -25.7127 c 2.81839,1.05629 5.72886,1.92407 8.71734,2.58926 v 23.12344 h 10.12409 v -21.68364 c 1.41596,0.0905 2.84222,0.13542 4.28202,0.13542 1.42842,0 2.84384,-0.0466 4.24897,-0.13542 v 21.68364 h 10.12192 v -23.1229 c 2.9901,-0.66411 5.89895,-1.53514 8.71788,-2.58925 v 25.71215 h 10.12301 V 217.5727 c 19.45731,-11.39163 32.50109,-32.50271 32.50109,-56.72523 0,-36.34976 -29.36366,-65.713415 -65.71342,-65.713415 z m -36.22463,47.786353 c 10.7687,0 19.50066,8.73196 19.50066,19.50065 0,10.7687 -8.73196,19.50066 -19.50066,19.50066 -10.76869,0 -19.50065,-8.73196 -19.50065,-19.50066 0,-10.76869 8.73196,-19.50065 19.50065,-19.50065 z m 72.34905,0 c 10.76761,0 19.50066,8.73196 19.50066,19.50065 0,10.7687 -8.73305,19.50066 -19.50066,19.50066 -10.76869,0 -19.50065,-8.73196 -19.50065,-19.50066 0,-10.76869 8.73196,-19.50065 19.50065,-19.50065 z m -36.14121,28.35395 16.21696,26.10271 h -32.43284 l 16.21696,-26.10271 z m -58.11195,38.22291 c -21.80985,17.58959 -42.54717,31.63981 -59.16281,39.23802 -20.52769,9.38957 -3.01719,34.74692 16.62322,16.60589 -16.37892,19.96325 11.46584,37.40334 19.70433,19.72058 8.16427,-17.52459 22.06119,-38.8388 39.23856,-60.93954 -6.1492,-4.06589 -11.68089,-8.9936 -16.40221,-14.6255 z m 115.46337,0.93061 c -4.41744,5.09996 -9.50223,9.59866 -15.11734,13.3742 17.2505,21.33696 30.77854,41.63498 37.61352,58.07782 9.3186,22.41655 38.87888,5.26626 17.18224,-17.18116 25.65582,18.62096 43.30228,-10.93391 19.14422,-19.14585 -17.413,-5.91845 -37.78685,-18.57979 -58.82318,-35.12501 z"
         inkscape:connector-curvature="0"
         style="fill:#f40000;fill-opacity:1;stroke-width:3.2077558" />
    </g>
    <g
       aria-label="Special Event! Do all Special Events after  the regular Event. "
       style="font-style:italic;font-variant:normal;font-weight:normal;font-stretch:normal;font-size:32px;line-height:30.54940224px;font-family:'Archivo Narrow';-inkscape-font-specification:'Archivo Narrow Italic';text-align:center;letter-spacing:0px;word-spacing:0px;writing-mode:lr-tb;text-anchor:middle;fill:#000000;fill-opacity:1;stroke:none;stroke-width:1px;stroke-linecap:butt;stroke-linejoin:miter;stroke-opacity:1"
       id="text4560">
      <path
         d="m 342.72677,-16.113772 c -4.288,0 -6.816,2.24 -6.816,6.2720001 0,6.464 9.504,5.152 9.504,9.98399995 0,3.10400005 -2.816,3.87200005 -4.544,3.87200005 -2.624,0 -4.288,-1.152 -4.288,-3.77600005 0,-0.448 0.064,-0.96 0.16,-1.50399995 h -2.912 c -0.096,0.51199995 -0.096,0.99199995 -0.096,1.47199995 0,4.09600005 2.72,6.40000005 6.912,6.40000005 6.176,0 7.712,-3.936 7.712,-6.88000005 0,-6.81599995 -9.536,-5.31199995 -9.536,-9.88800005 0,-3.04 2.624,-3.36 3.744,-3.36 1.792,0 4.032,0.576 4.032,4.2240001 h 2.912 c 0,-3.8720001 -1.728,-6.8160001 -6.784,-6.8160001 z"
         style="font-size:32px;stroke-width:1px"
         id="path4600" />
      <path
         d="m 359.45877,-10.993772 c -1.536,0 -2.944,0.832 -4.064,2.6560001 v -2.2720001 h -2.08 l -3.168,22.656 h 2.624 l 1.088,-7.6799999 c 0.736,1.6 1.952,2.24 3.36,2.24 3.136,0 6.496,-3.648 6.496,-11.36 0,-4.32 -1.792,-6.2400001 -4.256,-6.2400001 z m -0.8,2.3360001 c 1.568,0 2.368,1.216 2.368,3.648 0,2.752 -0.768,9.28 -4.192,9.28 -1.568,0 -2.336,-1.216 -2.336,-3.61600005 0,-2.55999995 0.832,-9.31199995 4.16,-9.31199995 z"
         style="font-size:32px;stroke-width:1px"
         id="path4602" />
      <path
         d="m 372.99727,-10.993772 c -5.824,0 -7.136,6.6880001 -7.136,11.48800005 0,4.19200005 1.984,6.11200005 5.44,6.11200005 3.584,0 5.696,-2.816 6.208,-6.08000005 h -2.656 c -0.288,2.01600005 -1.664,3.74400005 -3.552,3.74400005 -1.824,0 -2.72,-1.312 -2.72,-4.00000005 0,-0.416 0.032,-1.024 0.096,-1.69599995 h 9.248 c 0.192,-1.216 0.256,-2.432 0.256,-3.52 0,-4.128 -1.824,-6.0480001 -5.184,-6.0480001 z m 0,2.3360001 c 1.632,0 2.464,1.28 2.464,3.744 0,0.288 0,0.736 -0.032,1.152 h -6.432 c 0.512,-2.432 1.664,-4.896 4,-4.896 z"
         style="font-size:32px;stroke-width:1px"
         id="path4604" />
      <path
         d="m 386.98377,-10.993772 c -5.472,0 -6.688,6.5280001 -6.688,11.48800005 0,4.19200005 1.984,6.11200005 5.152,6.11200005 3.424,0 5.408,-3.104 5.824,-6.52800005 h -2.624 c -0.256,2.20800005 -1.472,4.19200005 -3.264,4.19200005 -1.536,0 -2.368,-1.472 -2.368,-4.00000005 0,-1.79199995 0.448,-8.92799995 3.968,-8.92799995 1.408,0 2.08,1.28 2.08,3.744 v 0.544 h 2.72 v -0.576 c 0,-4.128 -1.664,-6.0480001 -4.8,-6.0480001 z"
         style="font-size:32px;stroke-width:1px"
         id="path4606" />
      <path
         d="m 397.90077,-10.609772 h -2.624 l -2.336,16.8320001 h 2.592 z m 0.864,-6.304 h -2.624 l -0.416,3.136 h 2.624 z"
         style="font-size:32px;stroke-width:1px"
         id="path4608" />
      <path
         d="m 405.79327,-10.993772 c -3.136,0 -6.496,3.6480001 -6.496,11.36000005 0,4.32000005 1.792,6.24000005 4.256,6.24000005 1.504,0 2.656,-0.832 3.872,-2.656 0.032,1.888 0.96,2.656 2.304,2.656 0.832,0 1.472,-0.288 1.792,-0.512 l 0.256,-1.824 h -1.024 c -0.416,0 -0.768,-0.256 -0.768,-0.896 0,-0.384 1.952,-13.9840001 1.952,-13.9840001 h -2.08 l -0.576,2.3360001 c -0.64,-2.0800001 -1.952,-2.7200001 -3.488,-2.7200001 z m 0.384,2.3360001 c 1.472,0 2.208,1.216 2.208,3.616 0,2.56 -0.992,9.312 -4.032,9.312 -1.568,0 -2.368,-1.216 -2.368,-3.64800005 0,-2.75199995 0.768,-9.27999995 4.192,-9.27999995 z"
         style="font-size:32px;stroke-width:1px"
         id="path4610" />
      <path
         d="m 419.13977,-16.913772 h -2.624 l -3.2,23.1360001 h 2.592 z"
         style="font-size:32px;stroke-width:1px"
         id="path4612" />
      <path
         d="m 440.74477,6.2222281 0.384,-2.56 h -10.912 l 1.024,-7.392 h 9.312 l 0.352,-2.56 h -9.312 l 0.96,-6.8800001 h 10.72 l 0.384,-2.56 h -13.536 l -3.104,21.9520001 z"
         style="font-size:32px;stroke-width:1px"
         id="path4614" />
      <path
         d="m 457.73277,-10.609772 h -2.816 l -5.376,13.0240001 h -0.128 l -1.728,-13.0240001 h -2.784 l 2.496,16.8320001 h 2.848 z"
         style="font-size:32px;stroke-width:1px"
         id="path4616" />
      <path
         d="m 464.80977,-10.993772 c -5.824,0 -7.136,6.6880001 -7.136,11.48800005 0,4.19200005 1.984,6.11200005 5.44,6.11200005 3.584,0 5.696,-2.816 6.208,-6.08000005 h -2.656 c -0.288,2.01600005 -1.664,3.74400005 -3.552,3.74400005 -1.824,0 -2.72,-1.312 -2.72,-4.00000005 0,-0.416 0.032,-1.024 0.096,-1.69599995 h 9.248 c 0.192,-1.216 0.256,-2.432 0.256,-3.52 0,-4.128 -1.824,-6.0480001 -5.184,-6.0480001 z m 0,2.3360001 c 1.632,0 2.464,1.28 2.464,3.744 0,0.288 0,0.736 -0.032,1.152 h -6.432 c 0.512,-2.432 1.664,-4.896 4,-4.896 z"
         style="font-size:32px;stroke-width:1px"
         id="path4618" />
      <path
         d="m 480.71627,-10.993772 c -2.688,0 -4,1.9200001 -4.48,2.8800001 v -2.4960001 h -2.048 l -2.368,16.8320001 h 2.624 l 1.312,-9.408 c 0.448,-3.232 1.856,-5.472 4,-5.472 1.248,0 1.92,0.608 1.92,2.048 0,1.024 -1.728,12.832 -1.728,12.832 h 2.624 c 0,0 1.792,-12.416 1.792,-13.44 0,-1.92 -0.864,-3.7760001 -3.648,-3.7760001 z"
         style="font-size:32px;stroke-width:1px"
         id="path4620" />
      <path
         d="m 492.17477,-15.281772 h -2.752 l -0.672,4.672 h -1.44 l -0.32,2.3360001 h 1.44 c 0,0 -1.664,11.264 -1.664,12.096 0,1.44 0.64,2.72 2.592,2.72 0.64,0 1.44,-0.192 1.952,-0.448 l 0.256,-1.824 h -0.928 c -0.8,0 -1.184,-0.416 -1.184,-1.184 0,-0.384 1.6,-11.36 1.6,-11.36 h 2.272 l 0.32,-2.3360001 h -2.272 z"
         style="font-size:32px;stroke-width:1px"
         id="path4622" />
      <path
         d="m 497.08727,-15.729772 c -0.448,5.472 -1.024,11.0080001 -1.536,16.48000005 h 1.984 c 1.12,-5.79199995 2.752,-14.65600005 3.168,-16.48000005 z m 0.8,18.4960001 h -3.2 l -0.48,3.456 h 3.2 z"
         style="font-size:32px;stroke-width:1px"
         id="path4624" />
      <path
         d="m 271.19002,36.77163 c 7.008,0 9.536,-8.032 9.536,-13.728 0,-5.472 -2.688,-8.224 -7.328,-8.224 h -6.496 l -3.104,21.952 z m 1.888,-19.392 c 2.976,0 4.736,1.856 4.736,5.696 0,4.48 -1.44,11.136 -6.944,11.136 h -3.872 l 2.336,-16.832 z"
         style="font-size:32px;stroke-width:1px"
         id="path4626" />
      <path
         d="m 289.83952,19.55563 c -5.824,0 -7.136,7.008 -7.136,11.616 0,4.096 1.856,5.984 5.312,5.984 5.824,0 7.136,-6.944 7.136,-11.552 0,-4.128 -1.856,-6.048 -5.312,-6.048 z m 0,2.336 c 1.728,0 2.592,1.28 2.592,3.744 0,2.272 -0.512,9.184 -4.416,9.184 -1.824,0 -2.592,-1.312 -2.592,-4 0,-2.208 0.544,-8.928 4.416,-8.928 z"
         style="font-size:32px;stroke-width:1px"
         id="path4628" />
      <path
         d="m 311.07452,19.55563 c -3.136,0 -6.496,3.648 -6.496,11.36 0,4.32 1.792,6.24 4.256,6.24 1.504,0 2.656,-0.832 3.872,-2.656 0.032,1.888 0.96,2.656 2.304,2.656 0.832,0 1.472,-0.288 1.792,-0.512 l 0.256,-1.824 h -1.024 c -0.416,0 -0.768,-0.256 -0.768,-0.896 0,-0.384 1.952,-13.984 1.952,-13.984 h -2.08 l -0.576,2.336 c -0.64,-2.08 -1.952,-2.72 -3.488,-2.72 z m 0.384,2.336 c 1.472,0 2.208,1.216 2.208,3.616 0,2.56 -0.992,9.312 -4.032,9.312 -1.568,0 -2.368,-1.216 -2.368,-3.648 0,-2.752 0.768,-9.28 4.192,-9.28 z"
         style="font-size:32px;stroke-width:1px"
         id="path4630" />
      <path
         d="m 324.42102,13.63563 h -2.624 l -3.2,23.136 h 2.592 z"
         style="font-size:32px;stroke-width:1px"
         id="path4632" />
      <path
         d="m 330.23352,13.63563 h -2.624 l -3.2,23.136 h 2.592 z"
         style="font-size:32px;stroke-width:1px"
         id="path4634" />
      <path
         d="m 347.07052,14.43563 c -4.288,0 -6.816,2.24 -6.816,6.272 0,6.464 9.504,5.152 9.504,9.984 0,3.104 -2.816,3.872 -4.544,3.872 -2.624,0 -4.288,-1.152 -4.288,-3.776 0,-0.448 0.064,-0.96 0.16,-1.504 h -2.912 c -0.096,0.512 -0.096,0.992 -0.096,1.472 0,4.096 2.72,6.4 6.912,6.4 6.176,0 7.712,-3.936 7.712,-6.88 0,-6.816 -9.536,-5.312 -9.536,-9.888 0,-3.04 2.624,-3.36 3.744,-3.36 1.792,0 4.032,0.576 4.032,4.224 h 2.912 c 0,-3.872 -1.728,-6.816 -6.784,-6.816 z"
         style="font-size:32px;stroke-width:1px"
         id="path4636" />
      <path
         d="m 363.80252,19.55563 c -1.536,0 -2.944,0.832 -4.064,2.656 v -2.272 h -2.08 l -3.168,22.656 h 2.624 l 1.088,-7.68 c 0.736,1.6 1.952,2.24 3.36,2.24 3.136,0 6.496,-3.648 6.496,-11.36 0,-4.32 -1.792,-6.24 -4.256,-6.24 z m -0.8,2.336 c 1.568,0 2.368,1.216 2.368,3.648 0,2.752 -0.768,9.28 -4.192,9.28 -1.568,0 -2.336,-1.216 -2.336,-3.616 0,-2.56 0.832,-9.312 4.16,-9.312 z"
         style="font-size:32px;stroke-width:1px"
         id="path4638" />
      <path
         d="m 377.34102,19.55563 c -5.824,0 -7.136,6.688 -7.136,11.488 0,4.192 1.984,6.112 5.44,6.112 3.584,0 5.696,-2.816 6.208,-6.08 h -2.656 c -0.288,2.016 -1.664,3.744 -3.552,3.744 -1.824,0 -2.72,-1.312 -2.72,-4 0,-0.416 0.032,-1.024 0.096,-1.696 h 9.248 c 0.192,-1.216 0.256,-2.432 0.256,-3.52 0,-4.128 -1.824,-6.048 -5.184,-6.048 z m 0,2.336 c 1.632,0 2.464,1.28 2.464,3.744 0,0.288 0,0.736 -0.032,1.152 h -6.432 c 0.512,-2.432 1.664,-4.896 4,-4.896 z"
         style="font-size:32px;stroke-width:1px"
         id="path4640" />
      <path
         d="m 391.32752,19.55563 c -5.472,0 -6.688,6.528 -6.688,11.488 0,4.192 1.984,6.112 5.152,6.112 3.424,0 5.408,-3.104 5.824,-6.528 h -2.624 c -0.256,2.208 -1.472,4.192 -3.264,4.192 -1.536,0 -2.368,-1.472 -2.368,-4 0,-1.792 0.448,-8.928 3.968,-8.928 1.408,0 2.08,1.28 2.08,3.744 v 0.544 h 2.72 v -0.576 c 0,-4.128 -1.664,-6.048 -4.8,-6.048 z"
         style="font-size:32px;stroke-width:1px"
         id="path4642" />
      <path
         d="m 402.24452,19.93963 h -2.624 l -2.336,16.832 h 2.592 z m 0.864,-6.304 h -2.624 l -0.416,3.136 h 2.624 z"
         style="font-size:32px;stroke-width:1px"
         id="path4644" />
      <path
         d="m 410.13702,19.55563 c -3.136,0 -6.496,3.648 -6.496,11.36 0,4.32 1.792,6.24 4.256,6.24 1.504,0 2.656,-0.832 3.872,-2.656 0.032,1.888 0.96,2.656 2.304,2.656 0.832,0 1.472,-0.288 1.792,-0.512 l 0.256,-1.824 h -1.024 c -0.416,0 -0.768,-0.256 -0.768,-0.896 0,-0.384 1.952,-13.984 1.952,-13.984 h -2.08 l -0.576,2.336 c -0.64,-2.08 -1.952,-2.72 -3.488,-2.72 z m 0.384,2.336 c 1.472,0 2.208,1.216 2.208,3.616 0,2.56 -0.992,9.312 -4.032,9.312 -1.568,0 -2.368,-1.216 -2.368,-3.648 0,-2.752 0.768,-9.28 4.192,-9.28 z"
         style="font-size:32px;stroke-width:1px"
         id="path4646" />
      <path
         d="m 423.48352,13.63563 h -2.624 l -3.2,23.136 h 2.592 z"
         style="font-size:32px;stroke-width:1px"
         id="path4648" />
      <path
         d="m 445.08852,36.77163 0.384,-2.56 h -10.912 l 1.024,-7.392 h 9.312 l 0.352,-2.56 h -9.312 l 0.96,-6.88 h 10.72 l 0.384,-2.56 h -13.536 l -3.104,21.952 z"
         style="font-size:32px;stroke-width:1px"
         id="path4650" />
      <path
         d="m 462.07652,19.93963 h -2.816 l -5.376,13.024 h -0.128 l -1.728,-13.024 h -2.784 l 2.496,16.832 h 2.848 z"
         style="font-size:32px;stroke-width:1px"
         id="path4652" />
      <path
         d="m 469.15352,19.55563 c -5.824,0 -7.136,6.688 -7.136,11.488 0,4.192 1.984,6.112 5.44,6.112 3.584,0 5.696,-2.816 6.208,-6.08 h -2.656 c -0.288,2.016 -1.664,3.744 -3.552,3.744 -1.824,0 -2.72,-1.312 -2.72,-4 0,-0.416 0.032,-1.024 0.096,-1.696 h 9.248 c 0.192,-1.216 0.256,-2.432 0.256,-3.52 0,-4.128 -1.824,-6.048 -5.184,-6.048 z m 0,2.336 c 1.632,0 2.464,1.28 2.464,3.744 0,0.288 0,0.736 -0.032,1.152 h -6.432 c 0.512,-2.432 1.664,-4.896 4,-4.896 z"
         style="font-size:32px;stroke-width:1px"
         id="path4654" />
      <path
         d="m 485.06002,19.55563 c -2.688,0 -4,1.92 -4.48,2.88 v -2.496 h -2.048 l -2.368,16.832 h 2.624 l 1.312,-9.408 c 0.448,-3.232 1.856,-5.472 4,-5.472 1.248,0 1.92,0.608 1.92,2.048 0,1.024 -1.728,12.832 -1.728,12.832 h 2.624 c 0,0 1.792,-12.416 1.792,-13.44 0,-1.92 -0.864,-3.776 -3.648,-3.776 z"
         style="font-size:32px;stroke-width:1px"
         id="path4656" />
      <path
         d="m 496.51852,15.26763 h -2.752 l -0.672,4.672 h -1.44 l -0.32,2.336 h 1.44 c 0,0 -1.664,11.264 -1.664,12.096 0,1.44 0.64,2.72 2.592,2.72 0.64,0 1.44,-0.192 1.952,-0.448 l 0.256,-1.824 h -0.928 c -0.8,0 -1.184,-0.416 -1.184,-1.184 0,-0.384 1.6,-11.36 1.6,-11.36 h 2.272 l 0.32,-2.336 h -2.272 z"
         style="font-size:32px;stroke-width:1px"
         id="path4658" />
      <path
         d="m 504.75902,19.55563 c -3.424,0 -5.184,2.08 -5.184,4.736 0,5.024 6.4,4.384 6.4,8.16 0,1.312 -0.96,2.4 -2.432,2.4 -1.536,0 -2.848,-0.896 -2.848,-2.88 0,-0.32 0.032,-0.672 0.096,-1.024 h -2.72 c -0.064,0.352 -0.064,0.704 -0.064,1.024 0,3.168 2.368,5.184 5.28,5.184 3.296,0 5.408,-1.888 5.408,-5.12 0,-5.44 -6.4,-4.288 -6.4,-8.128 0,-1.344 1.248,-2.048 2.176,-2.048 1.184,0 2.368,0.672 2.368,2.976 h 2.72 c 0,-2.72 -1.376,-5.28 -4.8,-5.28 z"
         style="font-size:32px;stroke-width:1px"
         id="path4660" />
      <path
         d="m 525.32452,19.55563 c -3.136,0 -6.496,3.648 -6.496,11.36 0,4.32 1.792,6.24 4.256,6.24 1.504,0 2.656,-0.832 3.872,-2.656 0.032,1.888 0.96,2.656 2.304,2.656 0.832,0 1.472,-0.288 1.792,-0.512 l 0.256,-1.824 h -1.024 c -0.416,0 -0.768,-0.256 -0.768,-0.896 0,-0.384 1.952,-13.984 1.952,-13.984 h -2.08 l -0.576,2.336 c -0.64,-2.08 -1.952,-2.72 -3.488,-2.72 z m 0.384,2.336 c 1.472,0 2.208,1.216 2.208,3.616 0,2.56 -0.992,9.312 -4.032,9.312 -1.568,0 -2.368,-1.216 -2.368,-3.648 0,-2.752 0.768,-9.28 4.192,-9.28 z"
         style="font-size:32px;stroke-width:1px"
         id="path4662" />
      <path
         d="m 539.59902,13.37963 c -2.56,0 -3.616,1.952 -3.872,3.872 l -0.384,2.688 h -1.472 l -0.32,2.336 h 1.472 l -2.176,16.576 c -0.128,0.992 -0.704,1.536 -1.696,1.536 h -1.408 l -0.256,1.824 c 0.512,0.192 1.376,0.384 2.144,0.384 2.528,0 3.584,-1.952 3.84,-3.872 l 2.176,-16.448 h 2.912 l 0.32,-2.336 h -2.912 l 0.384,-2.816 c 0.128,-0.992 0.736,-1.536 1.728,-1.536 h 1.408 l 0.256,-1.824 c -0.512,-0.192 -1.376,-0.384 -2.144,-0.384 z"
         style="font-size:32px;stroke-width:1px"
         id="path4664" />
      <path
         d="m 546.14352,15.26763 h -2.752 l -0.672,4.672 h -1.44 l -0.32,2.336 h 1.44 c 0,0 -1.664,11.264 -1.664,12.096 0,1.44 0.64,2.72 2.592,2.72 0.64,0 1.44,-0.192 1.952,-0.448 l 0.256,-1.824 h -0.928 c -0.8,0 -1.184,-0.416 -1.184,-1.184 0,-0.384 1.6,-11.36 1.6,-11.36 h 2.272 l 0.32,-2.336 h -2.272 z"
         style="font-size:32px;stroke-width:1px"
         id="path4666" />
      <path
         d="m 555.21602,19.55563 c -5.824,0 -7.136,6.688 -7.136,11.488 0,4.192 1.984,6.112 5.44,6.112 3.584,0 5.696,-2.816 6.208,-6.08 h -2.656 c -0.288,2.016 -1.664,3.744 -3.552,3.744 -1.824,0 -2.72,-1.312 -2.72,-4 0,-0.416 0.032,-1.024 0.096,-1.696 h 9.248 c 0.192,-1.216 0.256,-2.432 0.256,-3.52 0,-4.128 -1.824,-6.048 -5.184,-6.048 z m 0,2.336 c 1.632,0 2.464,1.28 2.464,3.744 0,0.288 0,0.736 -0.032,1.152 h -6.432 c 0.512,-2.432 1.664,-4.896 4,-4.896 z"
         style="font-size:32px;stroke-width:1px"
         id="path4668" />
      <path
         d="m 569.81052,19.55563 c -1.92,0 -2.752,1.792 -3.36,3.072 v -2.688 h -2.048 l -2.368,16.832 h 2.624 l 1.376,-9.728 c 0.416,-2.976 2.08,-4.512 3.744,-4.512 h 0.864 l 0.384,-2.72 c 0,0 -0.512,-0.256 -1.216,-0.256 z"
         style="font-size:32px;stroke-width:1px"
         id="path4670" />
      <path
         d="m 319.48727,45.817033 h -2.752 l -0.672,4.672 h -1.44 l -0.32,2.336 h 1.44 c 0,0 -1.664,11.264 -1.664,12.096 0,1.44 0.64,2.72 2.592,2.72 0.64,0 1.44,-0.192 1.952,-0.448 l 0.256,-1.824 h -0.928 c -0.8,0 -1.184,-0.416 -1.184,-1.184 0,-0.384 1.6,-11.36 1.6,-11.36 h 2.272 l 0.32,-2.336 h -2.272 z"
         style="font-size:32px;stroke-width:1px"
         id="path4672" />
      <path
         d="m 326.86377,44.185033 h -2.624 l -3.232,23.136 h 2.592 l 1.312,-9.408 c 0.448,-3.232 1.856,-5.472 4,-5.472 1.248,0 1.92,0.608 1.92,2.048 0,1.024 -1.728,12.832 -1.728,12.832 h 2.624 c 0,0 1.792,-12.416 1.792,-13.44 0,-1.92 -0.864,-3.776 -3.648,-3.776 -2.24,0 -3.52,1.344 -4.16,2.336 z"
         style="font-size:32px;stroke-width:1px"
         id="path4674" />
      <path
         d="m 343.12227,50.105033 c -5.824,0 -7.136,6.688 -7.136,11.488 0,4.192 1.984,6.112 5.44,6.112 3.584,0 5.696,-2.816 6.208,-6.08 h -2.656 c -0.288,2.016 -1.664,3.744 -3.552,3.744 -1.824,0 -2.72,-1.312 -2.72,-4 0,-0.416 0.032,-1.024 0.096,-1.696 h 9.248 c 0.192,-1.216 0.256,-2.432 0.256,-3.52 0,-4.128 -1.824,-6.048 -5.184,-6.048 z m 0,2.336 c 1.632,0 2.464,1.28 2.464,3.744 0,0.288 0,0.736 -0.032,1.152 h -6.432 c 0.512,-2.432 1.664,-4.896 4,-4.896 z"
         style="font-size:32px;stroke-width:1px"
         id="path4676" />
      <path
         d="m 365.02927,50.105033 c -1.92,0 -2.752,1.792 -3.36,3.072 v -2.688 h -2.048 l -2.368,16.832 h 2.624 l 1.376,-9.728 c 0.416,-2.976 2.08,-4.512 3.744,-4.512 h 0.864 l 0.384,-2.72 c 0,0 -0.512,-0.256 -1.216,-0.256 z"
         style="font-size:32px;stroke-width:1px"
         id="path4678" />
      <path
         d="m 373.74727,50.105033 c -5.824,0 -7.136,6.688 -7.136,11.488 0,4.192 1.984,6.112 5.44,6.112 3.584,0 5.696,-2.816 6.208,-6.08 h -2.656 c -0.288,2.016 -1.664,3.744 -3.552,3.744 -1.824,0 -2.72,-1.312 -2.72,-4 0,-0.416 0.032,-1.024 0.096,-1.696 h 9.248 c 0.192,-1.216 0.256,-2.432 0.256,-3.52 0,-4.128 -1.824,-6.048 -5.184,-6.048 z m 0,2.336 c 1.632,0 2.464,1.28 2.464,3.744 0,0.288 0,0.736 -0.032,1.152 h -6.432 c 0.512,-2.432 1.664,-4.896 4,-4.896 z"
         style="font-size:32px;stroke-width:1px"
         id="path4680" />
      <path
         d="m 388.05377,52.441033 c 1.568,0 2.336,1.216 2.368,3.616 0,2.368 -0.928,8.672 -4.064,8.672 -1.568,0 -2.432,-1.024 -2.432,-3.232 0,-2.656 0.64,-9.056 4.128,-9.056 z m 1.024,14.08 c -0.48,2.944 -1.568,4.32 -3.648,4.32 -1.696,0 -2.528,-0.928 -2.528,-2.752 h -2.624 c 0,2.688 1.6,5.056 5.056,5.056 3.616,0 5.728,-2.144 6.464,-7.392 l 2.144,-15.264 h -2.08 l -0.544,2.336 c -0.672,-2.08 -2.016,-2.72 -3.616,-2.72 -3.136,0 -6.464,3.456 -6.464,11.136 0,2.848 1.12,5.824 4.288,5.824 1.568,0 2.752,-0.832 3.904,-2.656 z"
         style="font-size:32px;stroke-width:1px"
         id="path4682" />
      <path
         d="m 408.50427,50.489033 h -2.624 l -1.312,9.408 c -0.448,3.232 -1.856,5.472 -4,5.472 -1.248,0 -1.92,-0.608 -1.92,-2.048 0,-1.024 1.728,-12.832 1.728,-12.832 h -2.624 c 0,0 -1.792,12.416 -1.792,13.44 0,1.92 0.864,3.776 3.648,3.776 2.688,0 4,-1.888 4.48,-2.848 v 2.464 h 2.048 z"
         style="font-size:32px;stroke-width:1px"
         id="path4684" />
      <path
         d="m 415.51477,44.185033 h -2.624 l -3.2,23.136 h 2.592 z"
         style="font-size:32px;stroke-width:1px"
         id="path4686" />
      <path
         d="m 422.54327,50.105033 c -3.136,0 -6.496,3.648 -6.496,11.36 0,4.32 1.792,6.24 4.256,6.24 1.504,0 2.656,-0.832 3.872,-2.656 0.032,1.888 0.96,2.656 2.304,2.656 0.832,0 1.472,-0.288 1.792,-0.512 l 0.256,-1.824 h -1.024 c -0.416,0 -0.768,-0.256 -0.768,-0.896 0,-0.384 1.952,-13.984 1.952,-13.984 h -2.08 l -0.576,2.336 c -0.64,-2.08 -1.952,-2.72 -3.488,-2.72 z m 0.384,2.336 c 1.472,0 2.208,1.216 2.208,3.616 0,2.56 -0.992,9.312 -4.032,9.312 -1.568,0 -2.368,-1.216 -2.368,-3.648 0,-2.752 0.768,-9.28 4.192,-9.28 z"
         style="font-size:32px;stroke-width:1px"
         id="path4688" />
      <path
         d="m 437.84177,50.105033 c -1.92,0 -2.752,1.792 -3.36,3.072 v -2.688 h -2.048 l -2.368,16.832 h 2.624 l 1.376,-9.728 c 0.416,-2.976 2.08,-4.512 3.744,-4.512 h 0.864 l 0.384,-2.72 c 0,0 -0.512,-0.256 -1.216,-0.256 z"
         style="font-size:32px;stroke-width:1px"
         id="path4690" />
      <path
         d="m 460.43227,67.321033 0.384,-2.56 h -10.912 l 1.024,-7.392 h 9.312 l 0.352,-2.56 h -9.312 l 0.96,-6.88 h 10.72 l 0.384,-2.56 h -13.536 l -3.104,21.952 z"
         style="font-size:32px;stroke-width:1px"
         id="path4692" />
      <path
         d="m 477.42027,50.489033 h -2.816 l -5.376,13.024 h -0.128 l -1.728,-13.024 h -2.784 l 2.496,16.832 h 2.848 z"
         style="font-size:32px;stroke-width:1px"
         id="path4694" />
      <path
         d="m 484.49727,50.105033 c -5.824,0 -7.136,6.688 -7.136,11.488 0,4.192 1.984,6.112 5.44,6.112 3.584,0 5.696,-2.816 6.208,-6.08 h -2.656 c -0.288,2.016 -1.664,3.744 -3.552,3.744 -1.824,0 -2.72,-1.312 -2.72,-4 0,-0.416 0.032,-1.024 0.096,-1.696 h 9.248 c 0.192,-1.216 0.256,-2.432 0.256,-3.52 0,-4.128 -1.824,-6.048 -5.184,-6.048 z m 0,2.336 c 1.632,0 2.464,1.28 2.464,3.744 0,0.288 0,0.736 -0.032,1.152 h -6.432 c 0.512,-2.432 1.664,-4.896 4,-4.896 z"
         style="font-size:32px;stroke-width:1px"
         id="path4696" />
      <path
         d="m 500.40377,50.105033 c -2.688,0 -4,1.92 -4.48,2.88 v -2.496 h -2.048 l -2.368,16.832 h 2.624 l 1.312,-9.408 c 0.448,-3.232 1.856,-5.472 4,-5.472 1.248,0 1.92,0.608 1.92,2.048 0,1.024 -1.728,12.832 -1.728,12.832 h 2.624 c 0,0 1.792,-12.416 1.792,-13.44 0,-1.92 -0.864,-3.776 -3.648,-3.776 z"
         style="font-size:32px;stroke-width:1px"
         id="path4698" />
      <path
         d="m 511.86227,45.817033 h -2.752 l -0.672,4.672 h -1.44 l -0.32,2.336 h 1.44 c 0,0 -1.664,11.264 -1.664,12.096 0,1.44 0.64,2.72 2.592,2.72 0.64,0 1.44,-0.192 1.952,-0.448 l 0.256,-1.824 h -0.928 c -0.8,0 -1.184,-0.416 -1.184,-1.184 0,-0.384 1.6,-11.36 1.6,-11.36 h 2.272 l 0.32,-2.336 h -2.272 z"
         style="font-size:32px;stroke-width:1px"
         id="path4700" />
      <path
         transform="matrix(0,-6.0505132,6.0298175,0,-6393.238,2695.0665)"
         sodipodi:type="star"
         style="font-style:normal;font-variant:normal;font-weight:normal;font-stretch:normal;font-size:medium;line-height:125%;font-family:sans-serif;-inkscape-font-specification:'Archivo Narrow Italic';text-align:center;letter-spacing:0px;word-spacing:0px;writing-mode:lr-tb;text-anchor:middle;fill:#b3b3b3;fill-opacity:1;stroke:#000000;stroke-width:0.31629431;stroke-linecap:butt;stroke-linejoin:round;stroke-miterlimit:4;stroke-dasharray:none;stroke-dashoffset:0;stroke-opacity:1"
         id="path6077-3"
         sodipodi:sides="6"
         sodipodi:cx="407.40814"
         sodipodi:cy="1113.0243"
         sodipodi:r1="11.162703"
         sodipodi:r2="9.6671848"
         sodipodi:arg1="-1.0471976"
         sodipodi:arg2="-0.52359878"
         inkscape:flatsided="true"
         inkscape:rounded="0"
         inkscape:randomized="0"
         d="m 412.98949,1103.3571 5.58135,9.6672 -5.58135,9.6672 -11.1627,0 -5.58135,-9.6672 5.58135,-9.6672 z" />
      <path
         sodipodi:nodetypes="scccccscs"
         inkscape:connector-curvature="0"
         d="m 267.71741,142.59601 c 13.54315,-0.52922 28.65535,11.54722 29.99457,23.51338 l 10.57337,-4.38235 -11.11927,36.00181 -22.64015,-22.01663 11.48513,-4.75712 c 1.00221,-11.8615 -22.86096,-14.05502 -25.2668,-13.91748 -2.56094,0.14634 -16.61579,-0.10302 -32.25891,13.83692 12.19924,-24.40563 22.31583,-27.61765 39.23206,-28.27853 z"
         id="path5102-0"
         style="font-style:italic;font-variant:normal;font-weight:normal;font-stretch:normal;font-size:medium;line-height:30.54940224px;font-family:'Archivo Narrow';-inkscape-font-specification:'Archivo Narrow Italic';text-align:center;letter-spacing:0px;word-spacing:0px;writing-mode:lr-tb;text-anchor:middle;fill:#000000;fill-opacity:1;stroke:none;stroke-width:0.74609089;stroke-linecap:butt;stroke-linejoin:miter;stroke-opacity:1" />
      <g
         style="font-style:italic;font-variant:normal;font-weight:normal;font-stretch:normal;font-size:medium;line-height:30.54940224px;font-family:'Archivo Narrow';-inkscape-font-specification:'Archivo Narrow Italic';text-align:center;letter-spacing:0px;word-spacing:0px;writing-mode:lr-tb;text-anchor:middle;fill:#000000;fill-opacity:1;stroke:none;stroke-width:1px;stroke-linecap:butt;stroke-linejoin:miter;stroke-opacity:1"
         transform="matrix(1.405474,0,0,1.405474,-242.83417,-194.27322)"
         id="g5199">
        <circle
           style="fill:#000000;stroke:none;stroke-width:2.21048522;stroke-miterlimit:4;stroke-dasharray:none;stroke-opacity:1"
           id="path4151-9"
           cx="-302.01993"
           cy="281.31375"
           r="33.157276"
           transform="scale(-1,1)" />
        <g
           style="font-style:normal;font-weight:normal;font-size:48.97977448px;line-height:125%;font-family:sans-serif;letter-spacing:0px;word-spacing:0px;fill:#ffffff;fill-opacity:1;stroke:none;stroke-width:1px;stroke-linecap:butt;stroke-linejoin:miter;stroke-opacity:1"
           id="text3340"
           transform="matrix(1.0666666,0,0,1.0666666,266.18509,-805.69283)">
          <path
             d="m 44.955218,1014.453 q 0.669646,0 1.291459,0.2631 0.621814,0.263 1.076216,0.7174 0.478318,0.4305 0.741393,1.0284 0.286991,0.574 0.286991,1.2197 v 18.0087 q 0,0.6936 -0.263075,1.2915 -0.239159,0.5979 -0.693561,1.0523 -0.454402,0.4783 -1.0523,0.7414 -0.597898,0.263 -1.267543,0.263 H 22.187276 q -0.693561,0 -1.315374,-0.263 -0.597898,-0.2631 -1.0523,-0.7414 -0.454402,-0.4544 -0.717477,-1.0523 -0.263075,-0.5979 -0.263075,-1.2915 v -18.0087 q 0,-0.6457 0.263075,-1.2197 0.28699,-0.5979 0.741393,-1.0284 0.478318,-0.4544 1.076215,-0.7174 0.597898,-0.2631 1.267543,-0.2631 v -3.8744 q 0,-2.4394 0.406571,-4.544 0.40657,-2.1046 1.626281,-3.6352 1.243627,-1.5546 3.467807,-2.41555 2.248095,-0.88489 5.907228,-0.88489 3.68305,0 5.907229,0.88489 2.248095,0.86095 3.44389,2.41555 1.219712,1.5306 1.602366,3.6352 0.40657,2.1046 0.40657,4.544 z m -17.889097,-3.8744 v 3.7548 h 13.058085 v -3.7548 q 0,-1.8176 -0.143496,-3.0612 -0.143495,-1.2676 -0.789225,-2.0329 -0.621813,-0.7653 -1.937188,-1.1001 -1.315375,-0.3348 -3.659134,-0.3348 -2.319842,0 -3.635217,0.3348 -1.291459,0.3348 -1.937189,1.1001 -0.645729,0.7653 -0.81314,2.0329 -0.143496,1.2436 -0.143496,3.0612 z"
             id="path3583"
             inkscape:connector-curvature="0"
             style="fill:#ffffff" />
        </g>
      </g>
      <path
         d="m 412.98949,1103.3571 5.58135,9.6672 -5.58135,9.6672 -11.1627,0 -5.58135,-9.6672 5.58135,-9.6672 z"
         inkscape:randomized="0"
         inkscape:rounded="0"
         inkscape:flatsided="true"
         sodipodi:arg2="-0.52359878"
         sodipodi:arg1="-1.0471976"
         sodipodi:r2="9.6671848"
         sodipodi:r1="11.162703"
         sodipodi:cy="1113.0243"
         sodipodi:cx="407.40814"
         sodipodi:sides="6"
         id="path5201"
         style="font-style:normal;font-variant:normal;font-weight:normal;font-stretch:normal;font-size:medium;line-height:125%;font-family:sans-serif;-inkscape-font-specification:'Archivo Narrow Italic';text-align:center;letter-spacing:0px;word-spacing:0px;writing-mode:lr-tb;text-anchor:middle;fill:#b3b3b3;fill-opacity:1;stroke:#000000;stroke-width:0.31629431;stroke-linecap:butt;stroke-linejoin:round;stroke-miterlimit:4;stroke-dasharray:none;stroke-dashoffset:0;stroke-opacity:1"
         sodipodi:type="star"
         transform="matrix(0,-6.0505132,6.0298175,0,-6202.5198,2722.9136)" />
      <path
         style="font-style:italic;font-variant:normal;font-weight:normal;font-stretch:normal;font-size:medium;line-height:30.54940224px;font-family:'Archivo Narrow';-inkscape-font-specification:'Archivo Narrow Italic';text-align:center;letter-spacing:0px;word-spacing:0px;writing-mode:lr-tb;text-anchor:middle;fill:#000000;fill-opacity:1;stroke:none;stroke-width:0.74609089;stroke-linecap:butt;stroke-linejoin:miter;stroke-opacity:1"
         id="path5203"
         d="m 559.29041,162.28857 c -13.54315,-0.52922 -28.65535,11.54722 -29.99457,23.51338 l -10.57337,-4.38235 11.11927,36.00181 22.64014,-22.01663 -11.48512,-4.75712 c -1.00222,-11.86149 22.86096,-14.05502 25.26679,-13.91748 2.56095,0.14634 16.6158,-0.10302 32.25892,13.83692 -12.19925,-24.40563 -22.31583,-27.61765 -39.23206,-28.27853 z"
         inkscape:connector-curvature="0"
         sodipodi:nodetypes="scccccscs" />
      <g
         style="font-style:italic;font-variant:normal;font-weight:normal;font-stretch:normal;font-size:medium;line-height:30.54940224px;font-family:'Archivo Narrow';-inkscape-font-specification:'Archivo Narrow Italic';text-align:center;letter-spacing:0px;word-spacing:0px;writing-mode:lr-tb;text-anchor:middle;fill:#000000;fill-opacity:1;stroke:none;stroke-width:1px;stroke-linecap:butt;stroke-linejoin:miter;stroke-opacity:1"
         id="g5211"
         transform="matrix(-1.405474,0,0,1.405474,1067.8342,-176.58849)">
        <circle
           transform="scale(-1,1)"
           r="33.157276"
           cy="281.31375"
           cx="-302.01993"
           id="circle5205"
           style="fill:#000000;stroke:none;stroke-width:2.21048522;stroke-miterlimit:4;stroke-dasharray:none;stroke-opacity:1" />
        <g
           transform="matrix(1.0666666,0,0,1.0666666,266.18509,-805.69283)"
           id="g5209"
           style="font-style:normal;font-weight:normal;font-size:48.97977448px;line-height:125%;font-family:sans-serif;letter-spacing:0px;word-spacing:0px;fill:#ffffff;fill-opacity:1;stroke:none;stroke-width:1px;stroke-linecap:butt;stroke-linejoin:miter;stroke-opacity:1">
          <path
             style="fill:#ffffff"
             inkscape:connector-curvature="0"
             id="path5207"
             d="m 44.955218,1014.453 q 0.669646,0 1.291459,0.2631 0.621814,0.263 1.076216,0.7174 0.478318,0.4305 0.741393,1.0284 0.286991,0.574 0.286991,1.2197 v 18.0087 q 0,0.6936 -0.263075,1.2915 -0.239159,0.5979 -0.693561,1.0523 -0.454402,0.4783 -1.0523,0.7414 -0.597898,0.263 -1.267543,0.263 H 22.187276 q -0.693561,0 -1.315374,-0.263 -0.597898,-0.2631 -1.0523,-0.7414 -0.454402,-0.4544 -0.717477,-1.0523 -0.263075,-0.5979 -0.263075,-1.2915 v -18.0087 q 0,-0.6457 0.263075,-1.2197 0.28699,-0.5979 0.741393,-1.0284 0.478318,-0.4544 1.076215,-0.7174 0.597898,-0.2631 1.267543,-0.2631 v -3.8744 q 0,-2.4394 0.406571,-4.544 0.40657,-2.1046 1.626281,-3.6352 1.243627,-1.5546 3.467807,-2.41555 2.248095,-0.88489 5.907228,-0.88489 3.68305,0 5.907229,0.88489 2.248095,0.86095 3.44389,2.41555 1.219712,1.5306 1.602366,3.6352 0.40657,2.1046 0.40657,4.544 z m -17.889097,-3.8744 v 3.7548 h 13.058085 v -3.7548 q 0,-1.8176 -0.143496,-3.0612 -0.143495,-1.2676 -0.789225,-2.0329 -0.621813,-0.7653 -1.937188,-1.1001 -1.315375,-0.3348 -3.659134,-0.3348 -2.319842,0 -3.635217,0.3348 -1.291459,0.3348 -1.937189,1.1001 -0.645729,0.7653 -0.81314,2.0329 -0.143496,1.2436 -0.143496,3.0612 z" />
        </g>
      </g>
      <path
         style="font-style:italic;font-variant:normal;font-weight:normal;font-stretch:normal;font-size:medium;line-height:30.54940224px;font-family:'Archivo Narrow';-inkscape-font-specification:'Archivo Narrow Italic';text-align:center;letter-spacing:0px;word-spacing:0px;writing-mode:lr-tb;text-anchor:middle;fill:#000000;fill-opacity:1;stroke:none;stroke-width:3.05845284;stroke-linecap:butt;stroke-linejoin:miter;stroke-opacity:1"
         inkscape:connector-curvature="0"
         d="m 316.76204,195.83829 -20.72855,15.53984 9.62714,4.81127 11.10141,-8.32231 v -12.02861 z m 2.66609,0 v 12.02869 l 11.10154,8.32242 9.6276,-4.81146 z m 1.37423,3.30377 5.42548,3.9153 c -3.72147,-0.62314 -4.40485,1.3625 -5.53185,4.26531 l 0.10668,-8.18061 z m -5.59733,0.58124 -0.0408,4.94104 c -3.26635,0.17523 -8.41121,2.13601 -15.98101,6.51499 l 16.02166,-11.45572 z m 2.89016,10.47585 -10.96074,8.2168 v 23.24392 l 10.96074,8.21699 10.96074,-8.21699 v -23.24352 l -10.96074,-8.21699 z m 0.62435,2.61704 c -5.55489,5.01159 -8.98224,24.41179 -9.42776,29.48577 l -0.052,-22.37721 9.47955,-7.10867 z m -23.87877,0.94581 v 32.55223 l 9.6277,-4.81136 v -22.9294 z m 46.50883,0 -9.62759,4.81147 v 22.9294 l 9.62759,4.81136 z m -44.63545,3.45222 5.99471,3.0848 c -6.85489,5.74005 -4.56054,18.17095 -6.20261,24.07707 l 0.20808,-27.16187 z m 8.94625,26.67281 -9.62691,4.81116 20.72855,15.53986 v -12.02872 l -11.10134,-8.3223 z m 24.86947,0 -11.10174,8.3223 v 12.02861 l 20.72883,-15.53975 z m -25.09336,2.54312 c -2.90229,2.41148 -2.48031,3.60851 0.66313,8.05845 l -6.55364,-5.63035 5.89063,-2.4281 z"
         id="path5055" />
      <text
         id="text6440"
         y="274.76163"
         x="474.40564"
         style="font-style:normal;font-variant:normal;font-weight:normal;font-stretch:normal;font-size:50.07846451px;line-height:100.15692902px;font-family:'Archivo Narrow';-inkscape-font-specification:'Archivo Narrow, Normal';text-align:start;letter-spacing:0px;word-spacing:0px;writing-mode:lr-tb;text-anchor:start;fill:#000000;fill-opacity:1;stroke:none;stroke-width:4.00627708px;stroke-linecap:butt;stroke-linejoin:miter;stroke-opacity:1"
         xml:space="preserve"><tspan
           style="stroke-width:4.00627708px"
           y="274.76163"
           x="474.40564"
           id="tspan6438"
           sodipodi:role="line">$2k</tspan></text>
    </g>
  </g>
</svg>
