<?xml version="1.0" encoding="UTF-8" standalone="no"?>
<!-- Created with Inkscape (http://www.inkscape.org/) -->

<svg
   xmlns:dc="http://purl.org/dc/elements/1.1/"
   xmlns:cc="http://creativecommons.org/ns#"
   xmlns:rdf="http://www.w3.org/1999/02/22-rdf-syntax-ns#"
   xmlns:svg="http://www.w3.org/2000/svg"
   xmlns="http://www.w3.org/2000/svg"
   xmlns:sodipodi="http://sodipodi.sourceforge.net/DTD/sodipodi-0.dtd"
   xmlns:inkscape="http://www.inkscape.org/namespaces/inkscape"
   width="0.75in"
   height="0.75in"
   viewBox="0 0 67.500001 67.500002"
   id="svg2"
   version="1.1"
   inkscape:version="0.91 r13725"
   sodipodi:docname="subdued.svg">
  <defs
     id="defs4" />
  <sodipodi:namedview
     id="base"
     pagecolor="#ffffff"
     bordercolor="#666666"
     borderopacity="1.0"
     inkscape:pageopacity="0.0"
     inkscape:pageshadow="2"
     inkscape:zoom="3.959798"
     inkscape:cx="24.153705"
     inkscape:cy="-16.417193"
     inkscape:document-units="px"
     inkscape:current-layer="layer1"
     showgrid="false"
     units="in"
     inkscape:window-width="1280"
     inkscape:window-height="961"
     inkscape:window-x="1912"
     inkscape:window-y="-8"
     inkscape:window-maximized="1" />
  <metadata
     id="metadata7">
    <rdf:RDF>
      <cc:Work
         rdf:about="">
        <dc:format>image/svg+xml</dc:format>
        <dc:type
           rdf:resource="http://purl.org/dc/dcmitype/StillImage" />
        <dc:title />
      </cc:Work>
    </rdf:RDF>
  </metadata>
  <g
     inkscape:label="Layer 1"
     inkscape:groupmode="layer"
     id="layer1"
     transform="translate(0,-984.86215)">
    <path
       inkscape:connector-curvature="0"
       style="fill:#000000"
       d="m 26.154987,999.15796 c -2.693185,-0.002 -5.243588,0.67582 -7.317533,1.98934 -2.369953,1.501 -4.100022,3.8722 -4.592847,6.9215 -0.492825,3.0494 0.232759,6.734 2.570224,10.9389 1.631208,2.9344 3.639438,5.248 4.906539,7.6926 0.577375,1.114 1.013285,2.244 1.215614,3.4929 -0.0204,0.03 -0.04137,0.058 -0.06169,0.088 l 0.08488,0.059 c 0.115968,0.7925 0.138998,1.6349 0.04113,2.5497 -1.203935,0.2326 -2.112685,1.2906 -2.112685,2.5625 0,1.4423 1.169062,2.6139 2.611349,2.6139 1.442287,0 2.611348,-1.1716 2.611348,-2.6139 0,-1.0816 -0.6588,-2.0093 -1.596088,-2.4057 0.08348,-0.8387 0.08183,-1.6352 0.0076,-2.3929 0.756016,-0.8896 1.640831,-1.3406 2.734718,-1.4959 1.207389,-0.1713 2.691539,0.064 4.384763,0.6682 0.41946,0.8015 0.798126,1.6499 1.123168,2.56 -0.75174,0.4448 -1.256738,1.2635 -1.256738,2.2001 0,1.41 1.142413,2.5523 2.55213,2.5523 1.409964,0 2.552377,-1.1424 2.552377,-2.5521 0,-1.3383 -1.028666,-2.4389 -2.338945,-2.5472 -0.331703,-0.953 -0.717442,-1.8433 -1.14373,-2.6833 0.833987,-0.8077 2.258508,-1.3672 3.914391,-1.6914 1.806148,-0.3536 3.837078,-0.4462 5.543953,-0.4934 0.577623,0.5269 1.143401,1.0816 1.696267,1.6655 -0.04557,0.1859 -0.06942,0.3807 -0.06942,0.5809 0,1.345 1.091421,2.4365 2.436574,2.4365 1.34507,0 2.434023,-1.0915 2.434023,-2.4367 0,-1.345 -1.088953,-2.434 -2.434105,-2.434 -0.569975,0 -1.09356,0.1965 -1.508743,0.5243 -0.531811,-0.5498 -1.073984,-1.0714 -1.624383,-1.5704 -0.08142,-4.0412 1.093889,-7.2036 3.110096,-9.8029 0.729121,-0.1853 1.480203,-0.449 2.254066,-0.7993 0.471935,0.4686 1.120454,0.7583 1.837732,0.7583 1.442286,0 2.611348,-1.1718 2.611348,-2.614 0,-1.4423 -1.169062,-2.6114 -2.611348,-2.6114 -1.442287,0 -2.611348,1.1691 -2.611348,2.6114 0,0.172 0.01702,0.3408 0.04886,0.5037 -0.642102,0.2882 -1.257229,0.506 -1.848094,0.6605 -1.274256,-1.6367 -1.390141,-2.9216 -1.035739,-4.3437 0.37768,-1.5149 1.426495,-3.1722 2.464948,-5.0889 0.517747,-0.3306 0.979976,-0.7306 1.372378,-1.2028 0.449069,0.3427 1.010982,0.545 1.619446,0.545 1.474692,0 2.670319,-1.1957 2.670319,-2.6706 0,-1.4747 -1.195709,-2.67032 -2.670401,-2.67032 -1.474692,0 -2.670566,1.19562 -2.670566,2.67042 0,0.2793 0.04376,0.5487 0.12337,0.8019 -0.92528,1.3842 -2.696473,2.1569 -4.842303,2.1949 -2.183498,0.039 -4.692202,-0.7044 -6.800855,-2.2412 -3.223678,-2.3496 -6.923568,-3.47742 -10.386176,-3.48014 z m 3.847524,2.05624 c 1.528152,0.3931 3.051042,1.0243 4.498099,1.9095 l 0.0076,1.2132 c -0.120903,-0.094 -0.240573,-0.1889 -0.362546,-0.2826 -1.293254,-0.994 -2.650662,-1.9496 -4.104628,-2.6912 l -0.03865,-0.1489 z m -5.500198,0.2595 c 0.140395,0 0.277584,0 0.416416,0.01 l 0.377844,1.298 c -0.919195,-0.4277 -1.883049,-0.7695 -2.901845,-0.9946 0.725584,-0.1985 1.426659,-0.2976 2.107502,-0.3085 z m 2.081922,0.2286 c 0.276186,0.063 0.549659,0.1371 0.822473,0.2237 0.448657,0.1424 0.891394,0.3189 1.331416,0.5191 l 0.804377,3.0381 c -0.752232,-0.5978 -1.530372,-1.1622 -2.341412,-1.6681 l -0.616854,-2.1128 z m -5.166193,1.4624 c 1.519353,0.2495 2.918707,0.7965 4.240912,1.5396 l -0.886624,1.5319 c -1.082373,-1.0614 -2.191641,-2.0964 -3.354205,-3.0714 z m 9.173194,0.2751 c 0.887036,0.5464 1.758445,1.1731 2.616447,1.8325 0.440516,0.3386 0.876756,0.6853 1.310856,1.0333 l 0.02303,3.6265 c -0.963444,-0.8762 -1.938567,-1.8016 -2.947987,-2.7065 l -1.002264,-3.7858 z m 5.453976,0.7274 c 1.042482,0.7019 2.155369,1.2405 3.284788,1.614 l 0.05395,2.3234 c -1.065924,-0.7174 -2.177247,-1.6112 -3.331011,-2.5392 l -0.0077,-1.3983 z m -15.812023,0.015 c 1.284701,1.071 2.513474,2.2442 3.729417,3.4596 l -1.136081,1.966 c -1.042647,-1.5545 -1.919896,-3.332 -2.593253,-5.4258 z m -1.380108,0.7173 c 0.0066,0.02 0.01382,0.039 0.02056,0.059 l -0.02582,0 c 0.0016,-0.019 0.0034,-0.038 0.0052,-0.057 z m 8.114097,0.6168 c 1.127609,0.7608 2.206117,1.6449 3.266858,2.5778 l 0.03866,0.144 -1.359711,2.1717 c -1.006705,-1.0084 -2.003541,-2.0332 -3.012302,-3.0483 l 1.066581,-1.8455 z m 18.480121,0.645 c -0.67418,1.2014 -1.298354,2.3836 -1.632195,3.6395 -0.921169,0.017 -1.87499,-0.2655 -2.873553,-0.7687 l -0.06415,-2.8452 c 0.841634,0.1665 1.678829,0.2432 2.490444,0.2288 0.714564,-0.012 1.415146,-0.096 2.079374,-0.2544 z m -28.200752,0.6607 c 0.02451,1.7954 0.305794,3.3956 0.773617,4.8475 l -1.336434,-0.2828 c -0.05165,-1.3167 0.11679,-2.8168 0.562899,-4.5647 z m 2.662753,0.7146 c 0.531646,1.1234 1.132955,2.1525 1.788876,3.1048 l -1.115601,0.4703 c -0.399885,-1.0671 -0.641199,-2.2445 -0.673357,-3.5753 z m 16.156309,0.011 c 0.872807,0.6935 1.741173,1.3587 2.613815,1.9354 0.248058,0.1637 0.49735,0.3188 0.748038,0.4677 l 0.08751,3.7579 c -1.163304,-0.6304 -2.295189,-1.4668 -3.426088,-2.4161 l -0.02319,-3.7447 z m -10.982468,1.2286 c 0.979811,0.9996 1.961843,2.015 2.965834,3.0175 l -1.35165,2.164 c -1.035163,-0.9105 -2.000087,-1.8951 -2.876184,-2.9942 l 1.262083,-2.1873 z m 6.39472,0.4342 c 0.93186,0.8514 1.858457,1.7188 2.801339,2.5496 0.06415,0.057 0.128799,0.1113 0.19287,0.1672 l -1.410951,2.3544 c -1.043552,-0.8749 -2.044665,-1.8039 -3.027766,-2.7604 l 1.444508,-2.3107 z m 9.504485,1.532 c 0.849778,0.3534 1.718719,0.5745 2.611512,0.5938 -0.02139,1.1576 0.290991,2.3648 1.058933,3.5879 -0.9011,0.066 -1.751865,-0.015 -2.570225,-0.208 -0.342394,-0.081 -0.68076,-0.1824 -1.015259,-0.3035 l -0.08496,-3.6702 z m -18.34359,1.1668 c 0.817043,1.0246 1.701117,1.9555 2.637091,2.817 l -1.871124,0.658 c -0.770244,-0.7862 -1.453307,-1.6319 -2.002308,-2.5625 -0.06086,-0.1032 -0.119587,-0.2082 -0.177325,-0.3136 l 1.413501,-0.5988 z m 6.533551,0.9871 c 0.986309,0.9507 2.002473,1.8783 3.068808,2.7553 l -1.017727,1.6963 c -0.110211,-0.073 -0.221903,-0.1448 -0.331456,-0.2185 -1.041497,-0.7001 -2.04738,-1.4167 -3.00449,-2.1771 l 1.28503,-2.0561 z m 6.492347,0.036 c 1.150638,0.93 2.339932,1.7629 3.613941,2.3879 l -1.339231,2.3466 c -1.298354,-0.708 -2.511582,-1.5239 -3.667649,-2.4134 l 1.393021,-2.3211 z m -18.798418,0.065 1.817087,0.3831 c 0.438213,0.9606 0.958838,1.856 1.539503,2.7038 l -2.264266,-0.1569 c -0.496525,-0.8797 -0.879221,-1.8382 -1.092242,-2.93 z m 9.74876,2.8889 c 0.939015,0.7702 1.916359,1.4873 2.917307,2.1745 l -1.992027,0.6708 c -0.368467,-0.2527 -0.734796,-0.5082 -1.094957,-0.7709 -0.61159,-0.4464 -1.205414,-0.9072 -1.7707,-1.3907 l 1.940459,-0.6838 z m 14.092561,0.031 c 0.333924,0.1144 0.673605,0.2136 1.020359,0.2956 0.897153,0.2121 1.833701,0.3035 2.811868,0.2491 -0.632153,0.9946 -1.159933,2.0653 -1.567879,3.2156 -1.296709,-0.342 -2.511253,-0.7877 -3.657532,-1.3186 l 1.393267,-2.4417 z m -7.250582,0.694 c 1.165442,0.8797 2.393393,1.6926 3.711404,2.4057 l -0.889257,1.5575 c -1.274173,-0.8159 -2.53897,-1.5979 -3.767991,-2.3852 l 0.945844,-1.5781 z m -10.440294,0.5397 c 0.800019,0.7389 1.653745,1.4164 2.524002,2.051 0.06317,0.046 0.126825,0.091 0.190155,0.1363 l -0.5527,0.185 c -0.26204,-0.2681 -0.521859,-0.5343 -0.776085,-0.8019 -0.491674,-0.5173 -0.965747,-1.0341 -1.418764,-1.5575 l 0.03339,-0.013 z m -3.968428,0.3931 2.228406,0.1544 0.159313,0.011 0.0078,0 c 0.585272,0.7158 1.205087,1.4029 1.842831,2.074 0.0052,0.01 0.01053,0.011 0.01563,0.016 l -2.120497,0.077 c -0.569973,-0.5546 -1.114615,-1.1111 -1.611552,-1.6911 -0.179957,-0.2101 -0.353169,-0.422 -0.521776,-0.6374 z m 12.100619,1.5963 c 1.23815,0.8047 2.498423,1.5872 3.760342,2.3902 l -1.979197,0.8893 c -0.133487,-0.1027 -0.269277,-0.2043 -0.405973,-0.3059 -1.054655,-0.7828 -2.207513,-1.535 -3.372134,-2.303 l 1.996962,-0.6706 z m 7.394516,0.5679 c 1.242754,0.578 2.565042,1.0679 3.981421,1.4446 -0.275774,1.0984 -0.448658,2.2631 -0.506395,3.4955 -1.457256,-1.1906 -2.95325,-2.2477 -4.448916,-3.2361 l 0.974054,-1.7041 z m -11.236941,0.7222 c 1.409389,0.9476 2.799201,1.827 4.017282,2.7092 l -1.886586,0.8481 c -0.998233,-1.1516 -2.039319,-2.2152 -3.058526,-3.2462 l 0.927748,-0.311 z m -2.565042,0.8483 c 0.948556,0.9622 1.907723,1.923 2.829714,2.9326 l -2.040799,0 c -0.880374,-1.0332 -1.84094,-1.9613 -2.791224,-2.8581 l 1.93281,-0.071 0.06942,0 z m -4.184409,0.1568 c 0.964184,0.9329 1.946627,1.8314 2.85809,2.7758 l -1.364727,0 c -0.590206,-0.9317 -1.227128,-1.8393 -1.863393,-2.763 l 0.370112,-0.012 z m 15.891802,1.0897 c 1.497886,0.9832 2.983682,2.019 4.420623,3.1768 -1.325003,0.067 -2.750347,0.1894 -4.120009,0.4576 -0.12625,0.025 -0.252745,0.05 -0.377926,0.077 -0.501543,-1.0142 -1.246868,-1.9014 -2.133327,-2.7192 l 2.210393,-0.9921 z m -3.752692,1.6835 c 0.92561,0.7869 1.667973,1.5903 2.15389,2.4444 -0.929805,0.3145 -1.782626,0.7392 -2.480247,1.3288 -0.591358,-0.9886 -1.238067,-1.9037 -1.917511,-2.7657 l 2.243703,-1.0075 z m -9.743495,1.5394 1.827368,0 c 0.520624,0.6496 0.994368,1.335 1.39557,2.0768 -0.713248,0.2099 -1.378874,0.5499 -1.9764,1.0229 -0.263191,-1.0108 -0.648355,-1.9563 -1.112969,-2.8528 -0.0431,-0.083 -0.0894,-0.1643 -0.133651,-0.2468 z m 3.757545,0 2.195013,0 c 0.557224,0.6802 1.089775,1.3901 1.588358,2.1409 -0.947077,-0.2311 -1.856567,-0.3481 -2.721889,-0.3161 -0.315418,-0.6479 -0.672782,-1.2544 -1.061482,-1.8247 z"
       id="path6-7" />
  </g>
</svg>
