<?xml version="1.0" encoding="UTF-8" standalone="no"?>
<!-- Created with Inkscape (http://www.inkscape.org/) -->

<svg
   xmlns:dc="http://purl.org/dc/elements/1.1/"
   xmlns:cc="http://creativecommons.org/ns#"
   xmlns:rdf="http://www.w3.org/1999/02/22-rdf-syntax-ns#"
   xmlns:svg="http://www.w3.org/2000/svg"
   xmlns="http://www.w3.org/2000/svg"
   xmlns:sodipodi="http://sodipodi.sourceforge.net/DTD/sodipodi-0.dtd"
   xmlns:inkscape="http://www.inkscape.org/namespaces/inkscape"
   width="0.75in"
   height="0.75in"
   viewBox="0 0 67.500001 67.500002"
   id="svg2"
   version="1.1"
   inkscape:version="0.91 r13725"
   sodipodi:docname="subdued.svg">
  <defs
     id="defs4" />
  <sodipodi:namedview
     id="base"
     pagecolor="#ffffff"
     bordercolor="#666666"
     borderopacity="1.0"
     inkscape:pageopacity="0.0"
     inkscape:pageshadow="2"
     inkscape:zoom="5.6"
     inkscape:cx="68.125109"
     inkscape:cy="-5.123216"
     inkscape:document-units="px"
     inkscape:current-layer="layer1"
     showgrid="false"
     units="in"
     inkscape:window-width="1920"
     inkscape:window-height="1017"
     inkscape:window-x="-8"
     inkscape:window-y="-8"
     inkscape:window-maximized="1" />
  <metadata
     id="metadata7">
    <rdf:RDF>
      <cc:Work
         rdf:about="">
        <dc:format>image/svg+xml</dc:format>
        <dc:type
           rdf:resource="http://purl.org/dc/dcmitype/StillImage" />
        <dc:title></dc:title>
      </cc:Work>
    </rdf:RDF>
  </metadata>
  <g
     inkscape:label="Layer 1"
     inkscape:groupmode="layer"
     id="layer1"
     transform="translate(0,-984.86215)">
    <path
       inkscape:connector-curvature="0"
       style="fill:#000000"
       d="m 24.472011,993.78807 c -3.28154,-0.003 -6.389106,0.82346 -8.916127,2.42392 -2.887694,1.82888 -4.995716,4.71811 -5.5962039,8.43371 -0.6004881,3.7155 0.2836079,8.205 3.1317179,13.3286 1.987563,3.5754 4.434512,6.3944 5.978424,9.3731 0.703509,1.3573 1.234649,2.7342 1.481178,4.256 -0.02485,0.036 -0.05041,0.071 -0.07516,0.1066 l 0.103423,0.072 c 0.141302,0.9656 0.169363,1.9921 0.05011,3.1067 -1.466948,0.2834 -2.574223,1.5725 -2.574223,3.1223 0,1.7574 1.424456,3.1849 3.181826,3.1849 1.75737,0 3.181825,-1.4275 3.181825,-3.1849 0,-1.3179 -0.802722,-2.4482 -1.944771,-2.9312 0.101718,-1.022 0.09971,-1.9925 0.0093,-2.9157 0.921176,-1.084 1.999288,-1.6335 3.332147,-1.8227 1.471156,-0.2087 3.279535,0.078 5.342661,0.8142 0.511096,0.9766 0.972486,2.0103 1.368536,3.1192 -0.915965,0.542 -1.531285,1.5395 -1.531285,2.6808 0,1.718 1.391985,3.1099 3.10967,3.1099 1.717986,0 3.109971,-1.392 3.109971,-3.1097 0,-1.6307 -1.253389,-2.9717 -2.849913,-3.1036 -0.404167,-1.1612 -0.874175,-2.246 -1.39359,-3.2696 1.01618,-0.9841 2.751904,-1.6658 4.769532,-2.0608 2.20072,-0.4309 4.675329,-0.5437 6.755089,-0.6013 0.703811,0.6421 1.393189,1.3179 2.066834,2.0294 -0.05552,0.2265 -0.08458,0.4639 -0.08458,0.7078 0,1.6388 1.329853,2.9688 2.968869,2.9688 1.638916,0 2.965762,-1.3299 2.965762,-2.969 0,-1.6389 -1.326846,-2.9658 -2.965862,-2.9658 -0.694491,0 -1.332459,0.2395 -1.838344,0.6389 -0.64799,-0.6699 -1.308607,-1.3055 -1.979246,-1.9135 -0.09921,-4.924 1.33286,-8.7773 3.789529,-11.9444 0.888406,-0.2258 1.803569,-0.5471 2.746491,-0.974 0.575035,0.571 1.36523,0.924 2.239204,0.924 1.757369,0 3.181826,-1.4278 3.181826,-3.1851 0,-1.7574 -1.424457,-3.1818 -3.181826,-3.1818 -1.75737,0 -3.181825,1.4244 -3.181825,3.1818 0,0.2096 0.02074,0.4153 0.05953,0.6138 -0.782377,0.3511 -1.531885,0.6165 -2.25183,0.8048 -1.552631,-1.9943 -1.693833,-3.5599 -1.262007,-5.2926 0.460188,-1.8459 1.738128,-3.8653 3.003442,-6.2007 0.630854,-0.4028 1.194062,-0.8903 1.672188,-1.46562 0.547173,0.41762 1.231842,0.66412 1.973232,0.66412 1.796854,0 3.253679,-1.45701 3.253679,-3.25408 0,-1.79685 -1.456925,-3.25367 -3.253779,-3.25367 -1.796854,0 -3.25398,1.45682 -3.25398,3.25376 0,0.34038 0.05332,0.66862 0.150322,0.97711 -1.127418,1.68665 -3.285547,2.62808 -5.900156,2.67448 -2.660507,0.047 -5.717264,-0.85829 -8.286575,-2.73085 -3.927925,-2.86288 -8.436096,-4.23713 -12.655147,-4.24044 z m 4.688056,2.5054 c 1.861994,0.47904 3.717575,1.24817 5.480757,2.32677 l 0.0093,1.47816 c -0.147316,-0.11475 -0.293129,-0.23017 -0.441748,-0.34435 -1.57578,-1.21118 -3.229728,-2.37546 -5.001328,-3.27904 l -0.0471,-0.18154 z m -6.701775,0.31626 c 0.171066,0 0.338225,0 0.507387,0.009 l 0.460388,1.58158 c -1.120003,-0.52112 -2.294421,-0.93762 -3.535784,-1.21189 0.884096,-0.24185 1.738328,-0.36264 2.567908,-0.37586 z m 2.53674,0.27856 c 0.336522,0.0768 0.669738,0.16698 1.002151,0.27258 0.546672,0.17341 1.086129,0.38854 1.622279,0.63244 l 0.980102,3.70189 c -0.916566,-0.7284 -1.864699,-1.4162 -2.852919,-2.03258 l -0.751613,-2.57433 z m -6.294803,1.78189 c 1.851272,0.30402 3.55633,0.9705 5.167385,1.87592 l -1.080317,1.8666 c -1.318829,-1.2933 -2.670428,-2.55448 -4.086967,-3.74243 z m 11.177177,0.3352 c 1.080818,0.66567 2.142596,1.42932 3.188038,2.23282 0.536751,0.4126 1.068292,0.835 1.597226,1.2591 l 0.02806,4.4187 c -1.173919,-1.0676 -2.362068,-2.1952 -3.592006,-3.2978 l -1.221219,-4.61282 z m 6.645455,0.88625 c 1.270224,0.85527 2.626233,1.51157 4.002385,1.96667 l 0.06574,2.831 c -1.298786,-0.8742 -2.65289,-1.9632 -4.058706,-3.094 l -0.0094,-1.70376 z m -19.266328,0.0188 c 1.565357,1.30497 3.062569,2.73447 4.544148,4.21537 l -1.38427,2.3956 c -1.270425,-1.8942 -2.339318,-4.06 -3.159778,-6.61114 z m -1.681608,0.87397 c 0.008,0.024 0.01684,0.048 0.02505,0.072 l -0.03146,0 c 0.002,-0.023 0.0042,-0.046 0.0063,-0.069 z m 9.886708,0.7516 c 1.373948,0.927 2.688067,2.0043 3.980539,3.141 l 0.0471,0.1754 -1.656754,2.6462 c -1.226631,-1.2288 -2.441236,-2.4774 -3.670372,-3.7143 l 1.299587,-2.2486 z m 22.517302,0.7859 c -0.821462,1.4639 -1.581994,2.9043 -1.988766,4.4346 -1.122408,0.021 -2.284601,-0.3235 -3.501311,-0.9366 l -0.07816,-3.4668 c 1.025499,0.2029 2.045588,0.2963 3.034509,0.2788 0.870668,-0.015 1.724299,-0.1169 2.533635,-0.31 z m -34.361509,0.8051 c 0.02987,2.1876 0.372599,4.1373 0.942623,5.9064 l -1.628393,-0.3445 c -0.06293,-1.6044 0.142304,-3.4322 0.685871,-5.5619 z m 3.24446,0.8707 c 0.64779,1.3688 1.380461,2.6227 2.179676,3.7831 l -1.359316,0.573 c -0.487245,-1.3002 -0.781276,-2.7349 -0.82046,-4.3564 z m 19.685828,0.013 c 1.063481,0.845 2.121551,1.6555 3.184831,2.3582 0.302249,0.1995 0.606001,0.3885 0.911455,0.5699 l 0.106629,4.5788 c -1.41744,-0.7681 -2.796598,-1.7872 -4.174554,-2.9439 l -0.02826,-4.5627 z m -13.381705,1.497 c 1.193861,1.218 2.390428,2.4552 3.613752,3.6767 l -1.646933,2.6368 c -1.261305,-1.1094 -2.437027,-2.3091 -3.504517,-3.6484 l 1.537799,-2.6651 z m 7.791714,0.5291 c 1.135435,1.0373 2.264457,2.0942 3.413322,3.1066 0.07816,0.069 0.156936,0.1356 0.235004,0.2037 l -1.719188,2.8687 c -1.271527,-1.066 -2.491344,-2.198 -3.689214,-3.3634 l 1.760076,-2.8155 z m 11.580842,1.8666 c 1.035421,0.4307 2.094192,0.7 3.182025,0.7236 -0.02606,1.4104 0.354561,2.8814 1.290268,4.3717 -1.097955,0.08 -2.134578,-0.018 -3.131718,-0.2535 -0.417194,-0.099 -0.829479,-0.2222 -1.237053,-0.3698 l -0.103522,-4.472 z m -22.350944,1.4218 c 0.995535,1.2484 2.072745,2.3826 3.213192,3.4324 l -2.279891,0.8017 c -0.938512,-0.958 -1.770798,-1.9884 -2.439733,-3.1223 -0.07416,-0.1258 -0.145713,-0.2537 -0.216064,-0.3821 l 1.722295,-0.7296 z m 7.960876,1.2027 c 1.201778,1.1584 2.439934,2.2886 3.739221,3.3572 l -1.24006,2.0669 c -0.134288,-0.089 -0.27038,-0.1765 -0.403866,-0.2662 -1.269023,-0.8531 -2.494652,-1.7262 -3.660853,-2.6527 l 1.565758,-2.5053 z m 7.910669,0.044 c 1.402007,1.1332 2.851116,2.148 4.403446,2.9095 l -1.631801,2.8593 c -1.581993,-0.8627 -3.060264,-1.8568 -4.468886,-2.9407 l 1.697341,-2.8281 z m -22.905134,0.079 2.21405,0.4668 c 0.533945,1.1705 1.168306,2.2615 1.875824,3.2945 l -2.758919,-0.1911 c -0.604997,-1.0719 -1.071297,-2.2398 -1.330855,-3.5702 z m 11.878481,3.5201 c 1.144154,0.9384 2.335009,1.8122 3.554625,2.6495 l -2.427207,0.8174 c -0.448963,-0.308 -0.89532,-0.6193 -1.334162,-0.9394 -0.745198,-0.5439 -1.46875,-1.1053 -2.157528,-1.6945 l 2.364372,-0.8331 z m 17.171233,0.038 c 0.406873,0.1394 0.820761,0.2602 1.243267,0.3601 1.093145,0.2585 2.234293,0.3698 3.42615,0.3036 -0.770253,1.2119 -1.413332,2.5164 -1.910398,3.918 -1.57999,-0.4167 -3.059864,-0.9597 -4.45656,-1.6066 l 1.697642,-2.9751 z m -8.83455,0.8456 c 1.420046,1.0719 2.916256,2.0624 4.5222,2.9312 l -1.083524,1.8978 c -1.55253,-0.9941 -3.093636,-1.947 -4.591149,-2.9063 l 1.152473,-1.9228 z m -12.721088,0.6576 c 0.974792,0.9003 2.015023,1.7258 3.075397,2.4991 0.07697,0.056 0.154532,0.1102 0.231697,0.166 l -0.673444,0.2254 c -0.319285,-0.3266 -0.635864,-0.651 -0.945629,-0.977 -0.599085,-0.6304 -1.176724,-1.26 -1.728708,-1.8978 l 0.04068,-0.016 z m -4.835373,0.479 2.715225,0.1881 0.194116,0.013 0.0095,0 c 0.71313,0.8722 1.468351,1.7094 2.245417,2.5271 0.0063,0.01 0.01283,0.013 0.01904,0.019 l -2.583742,0.094 c -0.69449,-0.6758 -1.358114,-1.3539 -1.963613,-2.0606 -0.21927,-0.256 -0.430322,-0.5141 -0.635763,-0.7766 z m 14.744128,1.945 c 1.508637,0.9805 3.044231,1.9339 4.581829,2.9124 l -2.411574,1.0836 c -0.162648,-0.1252 -0.328103,-0.249 -0.494661,-0.3728 -1.285056,-0.9538 -2.689769,-1.8703 -4.108813,-2.8061 l 2.433219,-0.8171 z m 9.009927,0.692 c 1.514248,0.7042 3.125404,1.3012 4.851206,1.7601 -0.33602,1.3384 -0.546673,2.7576 -0.617023,4.2592 -1.775609,-1.4507 -3.598419,-2.7387 -5.420829,-3.9431 l 1.186846,-2.0764 z m -13.69177,0.8799 c 1.717284,1.1547 3.410716,2.2262 4.8949,3.3011 l -2.298731,1.0334 c -1.216308,-1.4032 -2.48483,-2.6992 -3.726694,-3.9554 l 1.130425,-0.3789 z m -3.125404,1.0336 c 1.155779,1.1725 2.324486,2.3431 3.447896,3.5733 l -2.486634,0 c -1.072701,-1.2589 -2.243112,-2.3898 -3.400996,-3.4825 l 2.355053,-0.087 0.08458,0 z m -5.098537,0.1911 c 1.17482,1.1367 2.371888,2.2315 3.48247,3.3822 l -1.662866,0 c -0.719143,-1.1352 -1.495208,-2.2411 -2.270471,-3.3666 l 0.450967,-0.015 z m 19.363536,1.3278 c 1.825115,1.198 3.635499,2.46 5.386355,3.8708 -1.614464,0.081 -3.351189,0.2308 -5.020069,0.5576 -0.15383,0.03 -0.30796,0.061 -0.460488,0.094 -0.61111,-1.2358 -1.519259,-2.3168 -2.599375,-3.3132 l 2.693277,-1.2089 z m -4.572508,2.0513 c 1.12782,0.9588 2.03236,1.9377 2.62443,2.9783 -1.13293,0.3832 -2.172059,0.9007 -3.022083,1.6191 -0.720546,-1.2045 -1.508536,-2.3195 -2.336412,-3.3698 l 2.733864,-1.2276 z m -11.872066,1.8757 2.226576,0 c 0.63436,0.7914 1.211599,1.6266 1.700448,2.5304 -0.869065,0.2558 -1.680104,0.6701 -2.408166,1.2464 -0.320688,-1.2316 -0.789995,-2.3837 -1.356109,-3.476 -0.05251,-0.1014 -0.108933,-0.2002 -0.162849,-0.3007 z m 4.578421,0 2.674537,0 c 0.678956,0.8288 1.327849,1.6937 1.935352,2.6086 -1.153976,-0.2816 -2.262154,-0.4242 -3.316515,-0.3852 -0.384324,-0.7895 -0.819758,-1.5285 -1.293374,-2.2233 z"
       id="path6-7" />
  </g>
</svg>
