<?xml version="1.0" encoding="UTF-8" standalone="no"?>
<!-- Created with Inkscape (http://www.inkscape.org/) -->

<svg
   xmlns:dc="http://purl.org/dc/elements/1.1/"
   xmlns:cc="http://creativecommons.org/ns#"
   xmlns:rdf="http://www.w3.org/1999/02/22-rdf-syntax-ns#"
   xmlns:svg="http://www.w3.org/2000/svg"
   xmlns="http://www.w3.org/2000/svg"
   xmlns:sodipodi="http://sodipodi.sourceforge.net/DTD/sodipodi-0.dtd"
   xmlns:inkscape="http://www.inkscape.org/namespaces/inkscape"
   width="0.75in"
   height="0.75in"
   viewBox="0 0 67.500001 67.500002"
   id="svg2"
   version="1.1"
   inkscape:version="0.92.0 r15299"
   sodipodi:docname="subdued.svg">
  <defs
     id="defs4" />
  <sodipodi:namedview
     id="base"
     pagecolor="#ffffff"
     bordercolor="#666666"
     borderopacity="1.0"
     inkscape:pageopacity="0.0"
     inkscape:pageshadow="2"
     inkscape:zoom="3.959798"
     inkscape:cx="38.882936"
     inkscape:cy="34.665277"
     inkscape:document-units="px"
     inkscape:current-layer="layer1"
     showgrid="false"
     units="in"
     inkscape:window-width="1920"
     inkscape:window-height="1017"
     inkscape:window-x="-8"
     inkscape:window-y="-8"
     inkscape:window-maximized="1"
     showguides="true"
     inkscape:guide-bbox="true" />
  <metadata
     id="metadata7">
    <rdf:RDF>
      <cc:Work
         rdf:about="">
        <dc:format>image/svg+xml</dc:format>
        <dc:type
           rdf:resource="http://purl.org/dc/dcmitype/StillImage" />
        <dc:title />
      </cc:Work>
    </rdf:RDF>
  </metadata>
  <g
     inkscape:label="Layer 1"
     inkscape:groupmode="layer"
     id="layer1"
     transform="translate(0,-984.86215)">
    <path
       inkscape:connector-curvature="0"
       style="fill:#000000"
       d="m 43.601104,1021.1838 c -2.187836,0.2964 -4.970183,0.4999 -8.479897,0.6194 -2.227025,0.076 -4.724542,0.1137 -7.424689,0.1137 -3.399798,0 -6.429698,-0.06 -8.304987,-0.104 a 19.946684,19.946684 0 0 0 0.850666,5.5924 c 2.142914,7.1571 7.769736,12.0001 13.369795,12.0001 a 9.4624646,9.4624646 0 0 0 2.722131,-0.3977 c 6.212729,-1.8599 9.375486,-9.7453 7.266981,-17.8238 z m -15.520353,8.3423 -1.297982,-0.7885 -0.573484,1.0064 -1.504435,-0.8603 0.599289,-1.0446 -1.338126,-0.8124 0.900368,-1.4815 1.297982,0.7885 0.573482,-1.0065 1.504436,0.8603 -0.599289,1.0447 1.338127,0.8124 z m 9.395558,-2.468 -1.297982,-0.7884 -0.573483,1.0064 -1.504437,-0.8602 0.596423,-1.0485 -1.338127,-0.8115 0.903235,-1.4825 1.297983,0.7886 0.573483,-1.0064 1.504436,0.8601 -0.59929,1.0447 1.338127,0.8126 z m 11.640743,-21.7225 2.10277,1.7521 2.324516,-1.4414 -1.016975,2.5396 2.089388,1.7653 -2.728822,-0.1825 -1.036091,2.5328 -0.669064,-2.6523 -2.727866,-0.2008 2.31018,-1.4556 z m -0.02103,-7.53554 0.198808,1.70908 1.684127,0.35072 -1.563695,0.71674 0.191161,1.71 -1.167038,-1.2655 -1.568476,0.7064 0.843019,-1.4977 -1.156522,-1.27426 1.686995,0.3394 z m -33.746589,-0.0434 1.761547,2.09027 2.541484,-1.01116 -1.446132,2.32453 1.747211,2.1027 -2.655225,-0.6566 -1.464293,2.3121 -0.191161,-2.7278 -2.651402,-0.6758 2.534794,-1.0285 z m 33.746589,19.62354 c -0.435846,1.2102 -2.443036,2.4994 -14.023563,2.8933 -2.473621,0.084 -5.015106,0.1127 -7.373076,0.1127 -4.005776,0 -11.584351,-0.1156 -11.584351,-0.1156 l 0,-1.5293 c 0,0 7.595779,0.1157 11.585307,0.1157 2.307312,0 4.790492,-0.027 7.209634,-0.109 3.705653,-0.1233 6.68394,-0.3527 8.85266,-0.6796 3.256427,-0.4922 3.805059,-1.0733 3.883434,-1.189 -0.02293,-0.055 -0.116608,-0.2246 -0.464521,-0.4999 -0.969186,-0.7646 -2.72691,-1.5293 -5.094438,-2.2404 a 19.346438,19.346438 0 0 0 -1.582812,-2.0281 c 0.19116,0.048 0.382321,0.096 0.562013,0.1462 3.361564,0.8946 5.734827,1.8772 7.061484,2.9208 0.622229,0.4952 1.297982,1.2771 0.968229,2.2022 z m -29.133878,-0.1443 c 0.143372,-0.7006 0.844931,-2.5329 1.186155,-3.0509 5.385959,0.3689 14.418311,-1.5026 16.85848,-2.4048 1.453779,1.2665 3.126436,3.4256 3.881523,4.9883 -5.477716,0.6233 -15.238392,0.6357 -21.929025,0.4684 z m 1.854263,-6.8903 c -0.963453,-0.058 -3.22393,-0.1979 -4.076508,0.1912 1.134541,1.0714 7.168535,1.1908 12.256282,0.4701 5.45382,-0.7722 10.513849,-2.0511 13.483534,-4.0746 1.236811,-0.843 1.890582,-2.075 1.772063,-2.6217 -0.602157,-2.7871 -16.642469,-3.7716 -16.642469,-3.7716 0,0 17.041038,0.3526 17.167205,3.7706 0.135723,3.6665 -7.850978,6.4804 -15.526089,7.678 -7.289921,1.1375 -14.278764,1.2167 -13.916515,-1.7902 0.210278,-1.7472 4.906146,-1.4213 6.938186,-1.19 -0.403348,0.2781 -1.142185,1.0093 -1.458556,1.339 z m 7.252645,-1.8286 a 10.158291,10.158291 0 0 1 4.069814,0.4397 c -1.216739,0.2983 -5.571384,0.89 -8.139631,0.9559 2.027261,-1.2359 3.707566,-1.3515 4.066948,-1.3946 z"
       id="path6" />
  </g>
</svg>
