<?xml version="1.0" encoding="UTF-8" standalone="no"?>
<!-- Created with Inkscape (http://www.inkscape.org/) -->

<svg
   xmlns:dc="http://purl.org/dc/elements/1.1/"
   xmlns:cc="http://creativecommons.org/ns#"
   xmlns:rdf="http://www.w3.org/1999/02/22-rdf-syntax-ns#"
   xmlns:svg="http://www.w3.org/2000/svg"
   xmlns="http://www.w3.org/2000/svg"
   xmlns:sodipodi="http://sodipodi.sourceforge.net/DTD/sodipodi-0.dtd"
   xmlns:inkscape="http://www.inkscape.org/namespaces/inkscape"
   width="675"
   height="600"
   viewBox="0 0 675.00001 600.00001"
   id="svg4372"
   version="1.1"
   inkscape:version="0.92.0 r15299"
   sodipodi:docname="tile[face].svg"
   inkscape:export-filename="G:\code\timber-wolf\_output\tile[face].png"
   inkscape:export-xdpi="90"
   inkscape:export-ydpi="90">
  <defs
     id="defs4374">
    <filter
       inkscape:label="Linen Canvas"
       inkscape:menu="Bumps"
       inkscape:menu-tooltip="Painting canvas emboss effect"
       style="color-interpolation-filters:sRGB;"
       id="filter5738">
      <feTurbulence
         numOctaves="5"
         baseFrequency="0.4"
         id="feTurbulence5740" />
      <feConvolveMatrix
         order="5 5"
         kernelMatrix="-4 0 0 0 -4 0 -2 0 -2 0 0 0 -10 0 0 0 -2 0 -2 0 -4 0 0 0 -4 "
         targetX="2"
         targetY="2"
         id="feConvolveMatrix5742" />
      <feConvolveMatrix
         order="3 3"
         kernelMatrix="2 0 2 0 -5 0 2 0 2 "
         targetX="1"
         targetY="1"
         id="feConvolveMatrix5744" />
      <feColorMatrix
         type="saturate"
         result="result1"
         id="feColorMatrix5746" />
      <feComposite
         in2="SourceGraphic"
         operator="arithmetic"
         k1="1.5"
         k2="0.5"
         k3="0.5"
         result="result2"
         id="feComposite5748" />
      <feBlend
         mode="normal"
         in2="result1"
         result="result4"
         id="feBlend5750" />
      <feColorMatrix
         type="luminanceToAlpha"
         id="feColorMatrix5752" />
      <feDiffuseLighting
         surfaceScale="10"
         diffuseConstant="1"
         result="result3"
         id="feDiffuseLighting5754">
        <feDistantLight
           azimuth="180"
           elevation="35"
           id="feDistantLight5756" />
      </feDiffuseLighting>
      <feComposite
         in2="result4"
         operator="arithmetic"
         k1="1.5"
         k3="0.5"
         result="result5"
         id="feComposite5758" />
      <feBlend
         mode="normal"
         in2="result3"
         result="result6"
         id="feBlend5760" />
      <feComposite
         in2="SourceGraphic"
         operator="in"
         id="feComposite5762" />
    </filter>
  </defs>
  <sodipodi:namedview
     id="base"
     pagecolor="#ffffff"
     bordercolor="#666666"
     borderopacity="1.0"
     inkscape:pageopacity="0.0"
     inkscape:pageshadow="2"
     inkscape:zoom="0.7"
     inkscape:cx="77.436143"
     inkscape:cy="259.97055"
     inkscape:document-units="px"
     inkscape:current-layer="layer1"
     showgrid="false"
     units="px"
     inkscape:window-width="1920"
     inkscape:window-height="1017"
     inkscape:window-x="-8"
     inkscape:window-y="-8"
     inkscape:window-maximized="1"
     showguides="true"
     inkscape:guide-bbox="true">
    <sodipodi:guide
       position="398.21429,599.64287"
       orientation="0,1"
       id="guide5702" />
    <sodipodi:guide
       position="0,563.57144"
       orientation="1,0"
       id="guide5704" />
    <sodipodi:guide
       position="675.00001,518.20826"
       orientation="1,0"
       id="guide5706"
       inkscape:label=""
       inkscape:color="rgb(0,0,255)" />
    <sodipodi:guide
       position="39.285715,0"
       orientation="0,1"
       id="guide5708"
       inkscape:label=""
       inkscape:color="rgb(0,0,255)" />
  </sodipodi:namedview>
  <metadata
     id="metadata4377">
    <rdf:RDF>
      <cc:Work
         rdf:about="">
        <dc:format>image/svg+xml</dc:format>
        <dc:type
           rdf:resource="http://purl.org/dc/dcmitype/StillImage" />
        <dc:title />
      </cc:Work>
    </rdf:RDF>
  </metadata>
  <g
     inkscape:label="Layer 1"
     inkscape:groupmode="layer"
     id="layer1"
     transform="translate(0,-452.36216)">
    <rect
       style="opacity:1;fill:#d8c586;fill-opacity:1;stroke:none;stroke-width:0.625;stroke-linecap:round;stroke-linejoin:round;stroke-miterlimit:4;stroke-dasharray:none;stroke-dashoffset:0;stroke-opacity:1"
       id="rect5700"
       width="682.85712"
       height="621.42859"
       x="1.4285774"
       y="452.36215"
       ry="4.7982202" />
    <g
       id="g7327"
       transform="matrix(0.8660254,-0.5,0.5,0.8660254,102.04799,19.54742)">
      <circle
         r="112.5"
         cy="752.36218"
         cx="-162.49995"
         id="circle4306"
         style="opacity:1;fill:#42290d;fill-opacity:1;stroke:none;stroke-width:1.62;stroke-linecap:round;stroke-linejoin:round;stroke-miterlimit:4;stroke-dasharray:4.86000001, 4.86000001;stroke-dashoffset:0;stroke-opacity:1" />
      <path
         id="path6951"
         d="m -162.60195,685.06874 0,0.11334 c -22.84424,14.19763 -62.54677,16.05896 -66.06234,17.51606 4.35037,97.01614 25.512,110.7902 66.06234,132.8553 l 0,0.102 c 0.034,-0.01 0.068,-0.0453 0.102,-0.0567 0.034,0.01 0.068,0.0453 0.102,0.0567 l 0,-0.102 c 40.55033,-22.0651 61.71196,-35.83916 66.062329,-132.8553 -3.515567,-1.4571 -43.218099,-3.3183 -66.062329,-17.51606 l 0,-0.11334 c -0.0233,0.0233 -0.068,0.0453 -0.102,0.0567 -0.034,-0.0233 -0.068,-0.0453 -0.102,-0.0567 z"
         style="fill:#d8c586;fill-opacity:1;stroke:none;stroke-width:0.67869741;stroke-linecap:round;stroke-linejoin:round;stroke-miterlimit:4;stroke-dasharray:none;stroke-opacity:1"
         inkscape:connector-curvature="0" />
    </g>
    <path
       sodipodi:type="star"
       style="opacity:1;fill:#000000;fill-opacity:1;fill-rule:nonzero;stroke:#000000;stroke-width:25.60384178;stroke-linecap:square;stroke-linejoin:round;stroke-miterlimit:4;stroke-dasharray:none;stroke-opacity:1"
       id="path8068"
       sodipodi:sides="6"
       sodipodi:cx="-84.588478"
       sodipodi:cy="344.23578"
       sodipodi:r1="207.36768"
       sodipodi:r2="179.58566"
       sodipodi:arg1="0.63650822"
       sodipodi:arg2="1.160107"
       inkscape:flatsided="true"
       inkscape:rounded="0"
       inkscape:randomized="0"
       d="M 82.171659,467.49327 -107.95253,550.28304 -274.71267,427.02555 -251.34861,220.97829 -61.224426,138.18852 105.53571,261.44601 Z"
       transform="matrix(0.08252186,-0.00982585,0.00967172,0.08383699,-96.348956,740.52846)" />
    <circle
       r="112.5"
       cy="752.36218"
       cx="-407.5"
       id="circle9025"
       style="opacity:1;fill:#42290d;fill-opacity:1;stroke:none;stroke-width:1.62;stroke-linecap:round;stroke-linejoin:round;stroke-miterlimit:4;stroke-dasharray:4.86000001, 4.86000001;stroke-dashoffset:0;stroke-opacity:1" />
    <path
       id="path9027"
       d="m -659.12998,685.06872 0,0.11334 c -22.84424,14.19763 -62.54677,16.05896 -66.06234,17.51606 4.35037,97.01614 25.512,110.7902 66.06234,132.8553 l 0,0.102 c 0.034,-0.01 0.068,-0.0453 0.102,-0.0567 0.034,0.01 0.068,0.0453 0.102,0.0567 l 0,-0.102 c 40.55033,-22.0651 61.71196,-35.83916 66.06233,-132.8553 -3.51557,-1.4571 -43.2181,-3.3183 -66.06233,-17.51606 l 0,-0.11334 c -0.0233,0.0233 -0.068,0.0453 -0.102,0.0567 -0.034,-0.0233 -0.068,-0.0453 -0.102,-0.0567 z"
       style="fill:#d8c586;fill-opacity:1;stroke:none;stroke-width:0.67869741;stroke-linecap:round;stroke-linejoin:round;stroke-miterlimit:4;stroke-dasharray:none;stroke-opacity:1"
       inkscape:connector-curvature="0" />
    <path
       inkscape:connector-curvature="0"
       id="path8070"
       d="m -411.63345,650.82873 c -1.81585,0.0489 -4.60899,0.82332 -4.31568,1.95094 0.94666,1.00772 1.52196,2.44544 2.19568,3.73733 1.50241,2.88081 2.65771,6.12442 3.58336,9.96771 0.85371,0.60022 1.16125,0.51099 2.41424,0.22934 0.83648,-0.18773 1.558,-0.29757 1.82228,-0.94801 0.37547,-1.06099 0.62742,-2.10079 0.92281,-3.17059 0.32757,-1.1867 0.70933,-2.40557 1.37438,-3.62841 1.37158,-2.52194 2.77243,-4.61451 3.52502,-6.58587 0.27724,-0.81268 -1.88219,-1.15084 -2.75327,-1.15491 -1.86497,-0.01 -4.23788,0.0556 -7.71741,-0.31112 -0.26467,-0.0701 -0.63239,-0.0977 -1.05141,-0.0866 z m -6.46345,1.12075 c -0.21145,-0.0242 -0.42192,0.0194 -0.61077,0.11902 -2.52102,1.36621 -4.9937,0.33048 -6.86829,2.09393 -0.62543,0.58851 -0.794,1.56482 -0.1979,2.18304 3.62672,3.76094 3.85026,4.98243 7.11651,11.05159 2.3928,1.68671 5.05704,0.39482 5.79525,0.0813 0.78573,-0.34644 1.36132,-1.06579 1.11349,-1.888 -0.48095,-5.31183 -2.66375,-7.91825 -5.07111,-12.40806 -0.01,-0.64392 -0.64348,-1.1779 -1.27728,-1.23218 z m 19.61438,0.59538 c -0.63375,0.0542 -1.26591,0.58919 -1.27718,1.23319 -2.40736,4.48982 -4.59036,7.09614 -5.07117,12.40802 -0.24773,0.82221 0.32757,1.54161 1.11354,1.888 3.97848,1.75396 2.62374,0.5319 4.38487,0.81572 0.84786,0.13693 1.4504,-0.1408 1.85737,-0.89662 3.26625,-6.06916 3.48979,-7.29075 7.11655,-11.05173 0.59611,-0.61813 0.42773,-1.59541 -0.19789,-2.18392 -1.87459,-1.7637 -4.79435,-0.72685 -7.31528,-2.09301 -0.18822,-0.10257 -0.39966,-0.13789 -0.61072,-0.11951 z m -30.06614,2.82338 c -0.21144,0.0242 -0.41369,0.09 -0.58193,0.22305 -2.24861,1.77918 -5.30317,1.25933 -6.84671,3.31899 -0.51496,0.68717 -0.5289,1.69978 0.18048,2.18479 4.37447,2.99282 5.44683,3.79104 8.91092,9.66375 2.64712,1.25028 5.4899,-0.55604 6.16308,-0.99204 0.71451,-0.4766 1.1581,-1.28429 0.77262,-2.05173 -1.38663,-5.15013 -3.98492,-7.3429 -7.12817,-11.35206 -0.12193,-0.6324 -0.8361,-1.05025 -1.46975,-0.99485 z m 40.38386,1.065 c -0.63442,-0.0484 -1.34269,0.38225 -1.45533,1.01643 -3.08417,4.05479 -5.65067,6.28462 -6.96177,11.45459 -0.37402,0.77296 0.0808,1.57407 0.80232,2.03997 0.67953,0.42628 3.54897,2.19108 6.17745,0.9022 4.18107,-5.4793 4.59428,-6.65032 8.7679,-9.79333 0.68605,-0.51666 0.67347,-1.50696 0.14806,-2.18663 -1.57349,-2.03692 -4.61988,-1.47304 -6.89437,-3.21912 -0.16984,-0.13112 -0.37305,-0.19886 -0.58464,-0.21435 z m -50.06207,4.02058 c -0.32419,0.01 -0.63763,0.12967 -0.84999,0.3716 -1.89085,2.15561 -4.98751,2.19563 -6.13429,4.49993 -0.38272,0.76889 -0.20854,1.75498 0.57023,2.11651 4.79512,2.22534 6.70465,2.77418 10.90323,7.81892 2.82924,0.75239 4.90409,-1.45901 5.48762,-2.00929 0.61691,-0.59747 0.90703,-1.47174 0.3895,-2.15692 -2.29278,-4.81565 -5.24361,-6.50323 -9.05845,-9.8797 -0.19499,-0.50006 -0.76734,-0.77949 -1.30781,-0.76091 z m 59.61701,1.43104 c -0.54037,-0.0242 -1.11378,0.25983 -1.30873,0.76009 -3.81479,3.37647 -6.76562,5.06405 -9.0584,9.87969 -0.51758,0.68528 -0.22741,1.56033 0.3895,2.15779 0.58358,0.55034 3.05418,2.83998 5.88336,2.08759 5.16803,-4.55998 5.80164,-6.52123 10.5075,-8.79127 0.77348,-0.37305 0.95372,-1.34855 0.57118,-2.11734 -1.14673,-2.30435 -4.2444,-1.44943 -6.13525,-3.605 -0.2129,-0.24192 -0.52484,-0.36047 -0.84911,-0.3716 z m -67.87585,5.53891 c -0.54061,-0.0387 -1.12075,0.22112 -1.3276,0.71683 -1.10473,2.64604 -3.41822,3.46675 -4.38574,5.85186 -0.32273,0.79579 -0.0745,1.77066 0.7312,2.06702 1.47203,0.54109 8.34414,3.27089 9.7043,4.01694 1.425,0.78162 0.91903,0.88923 3.32983,1.88708 0.78132,0.3237 1.47609,0.28983 1.90865,-0.10258 1.47111,-1.33345 2.53989,-2.60332 3.37023,-3.84426 0.39386,-0.76294 -0.29563,-1.41614 -1.00467,-1.90057 -3.70859,-3.8327 -6.793,-6.31118 -11.48522,-8.29474 -0.2066,-0.24725 -0.51656,-0.37547 -0.84098,-0.39773 z m 78.09821,0.0852 c -0.32418,0.0242 -0.63443,0.15048 -0.84104,0.39724 -4.69235,1.9837 -8.73069,5.4161 -12.43947,9.24914 -1.48518,1.08876 1.75929,6.26226 4.59085,6.02363 4.08705,-2.88193 8.57179,-4.68815 13.98838,-6.67935 0.80605,-0.2966 1.0532,-1.27113 0.73037,-2.06697 -0.96756,-2.3851 -3.59667,-3.56203 -4.7015,-6.20807 -0.2066,-0.49528 -0.78689,-0.75283 -1.32759,-0.71591 z m -42.04701,1.9581 c -2.20076,0.13064 -4.32792,0.4345 -6.35734,0.90573 l 0,7.27303 -6.78638,0 0,-4.9488 c -2.32719,1.07914 -4.46054,2.39154 -6.35652,3.90189 l 0,1.04691 -1.23407,0 c -2.11264,1.88436 -3.88814,4.02459 -5.2573,6.35657 l 6.49137,0 0,6.84661 -9.18798,0 c -0.0571,0.26032 -0.11564,0.52048 -0.16354,0.78346 l -1.00922,5.57393 10.36084,0 0,8.31458 3.1778,9.97322 3.17872,-9.97322 0,-8.31458 6.78637,0 0,8.31458 3.17872,9.97322 3.17863,-9.97322 0,-8.31458 6.78734,0 0,8.31458 3.17877,9.97322 3.17683,-9.97322 0,-8.31458 6.78729,0 0,8.31458 3.17872,9.97322 3.17872,-9.97322 0,-8.31458 10.24477,0 -1.11533,-4.50089 c 0,-0.60138 -0.0847,-1.22159 -0.24338,-1.8565 l -8.88577,0 0,-6.84661 4.85077,0 c -2.83794,-3.21627 -6.83258,-6.36959 -11.20811,-8.91818 l 0,2.56161 -6.78734,0 0,-5.87799 c -2.15126,-0.85211 -4.29502,-1.50183 -6.3556,-1.90677 l 0,7.78481 -6.7873,0 0,-8.17881 z m 49.86689,7.11559 c -0.21289,0.01 -0.41901,0.0682 -0.59451,0.19161 -4.38235,1.56415 -9.01195,4.04249 -14.40933,5.71517 -0.81026,0.2845 -1.05209,1.17315 -0.8689,2.0121 0.92812,4.24779 2.16059,3.76621 2.40692,5.47233 0.1229,0.84989 1.3095,1.3634 2.0121,0.86977 4.08363,-2.86881 8.0938,-5.20437 14.40934,-5.7143 0.85598,-0.0687 1.13783,-1.19705 0.86982,-2.01297 -0.80334,-2.4454 -2.02565,-2.63047 -2.40789,-5.47228 -0.0861,-0.63835 -0.77959,-1.08577 -1.41755,-1.06143 z m -93.79643,0.0837 c -0.63796,-0.0242 -1.33257,0.42434 -1.41841,1.06225 -0.38224,2.84181 -1.52447,2.71127 -2.32782,5.15671 -0.26805,0.81582 0.0435,1.77119 0.86886,2.01205 5.53934,1.61888 10.33393,2.72162 14.60723,5.31938 0.73381,0.44611 1.88935,-0.0242 2.01205,-0.86972 0.24628,-1.70612 1.20271,-0.51313 2.13084,-4.76092 0.1829,-0.83895 -0.059,-1.72857 -0.86977,-2.01297 -4.57449,-2.74253 -9.36251,-5.01262 -14.40842,-5.71426 -0.17515,-0.12387 -0.38176,-0.18435 -0.59456,-0.19257 z m 30.78582,7.33603 6.78638,0 0,6.84671 -6.78638,0 0,-6.84671 z m 13.14372,0 6.78734,0 0,6.84671 -6.78734,0 0,-6.84671 z m 13.14294,0 6.7873,0 0,6.84671 -6.7873,0 0,-6.84671 z m 40.8516,1.54262 c -0.21338,0.003 -0.42143,0.0581 -0.59997,0.17709 -5.06193,0.57399 -9.90646,2.72293 -14.54873,5.34914 -0.81723,0.26321 -1.00245,1.13487 -0.91923,1.9895 0.23467,2.40703 0.0339,3.59595 -0.25644,5.29519 -0.14419,0.84645 0.65412,0.81505 1.48954,0.61614 4.86485,-1.15854 9.85754,-0.34112 15.62627,-0.17951 0.85845,0.0242 1.44914,-0.78897 1.44551,-1.64781 -0.0145,-2.57385 -0.53606,-7.65247 -0.84645,-10.50294 -0.0697,-0.64019 -0.7522,-1.10561 -1.39054,-1.09738 z m -102.71998,0.49372 c -0.63752,0.0339 -1.28801,0.54206 -1.31588,1.18554 -0.12484,2.8647 -0.31693,7.33467 -0.16209,9.90389 0.0513,0.85724 0.69563,1.62971 1.5506,1.54978 5.74604,-0.53727 10.57044,-0.83944 15.50037,0 0.8466,0.14418 1.7499,-0.71446 1.5507,-1.54978 -0.40014,-1.6767 -0.67802,-2.21779 -0.6009,-4.63488 0.029,-0.85831 -0.21483,-1.71569 -1.04778,-1.92573 -4.80335,-2.31848 -9.77765,-4.14788 -14.86623,-4.39116 -0.18629,-0.10693 -0.39628,-0.14855 -0.60898,-0.1379 z m 8.09868,13.03945 c -2.60429,-0.0339 -5.14151,0.13886 -7.54912,0.60893 -0.83513,-0.19983 -1.36456,0.71146 -1.5507,1.54983 -0.58231,2.62321 -0.58672,4.8917 0,7.51491 0.18774,0.83813 0.69869,1.65739 1.5507,1.54988 5.75592,-0.72704 10.45785,-0.55556 15.50033,0 0.85366,0.0939 1.74995,-0.71446 1.55065,-1.54988 -0.39966,-1.6767 0.70333,-3.2242 0,-7.51491 -0.13935,-0.84752 -0.69254,-1.58414 -1.55065,-1.54983 -2.6761,-0.34257 -5.34692,-0.57705 -7.95121,-0.60893 z m 87.65769,0 c -2.60429,0.0339 -5.27603,0.26612 -7.95217,0.60893 -0.85801,-0.0339 -1.41082,0.70231 -1.54973,1.54983 -0.70318,4.29071 0.39966,6.19351 0,7.87025 -0.19935,0.83528 0.69385,1.61946 1.54973,1.54973 5.09793,-0.41514 9.79531,-1.03675 15.50134,0 0.84491,0.15338 1.36234,-0.7116 1.54973,-1.54973 0.58672,-2.62321 0.58237,-5.24704 0,-7.87025 -0.18628,-0.83837 -0.7146,-1.74995 -1.54973,-1.54983 -2.40765,-0.46982 -4.94483,-0.64082 -7.54917,-0.60893 z m -0.0847,11.63453 c -2.60424,0.0339 -5.27593,0.26757 -7.95207,0.6098 -0.85807,-0.0339 -1.2453,0.74683 -1.54974,1.54978 -1.50551,3.96982 0.13887,5.56112 0,7.34228 -0.0668,0.85613 0.69365,1.48228 1.54974,1.54978 5.17882,0.40837 9.93616,1.05252 15.50124,0 0.84379,-0.16016 1.36229,-0.71165 1.54983,-1.54978 0.58667,-2.62316 0.58231,-4.71902 0,-7.34228 -0.18629,-0.83832 -0.71465,-1.7499 -1.54983,-1.54978 -2.40756,-0.46982 -4.94488,-0.64168 -7.54917,-0.6098 z m -87.33114,0.1979 c -2.60405,-0.0339 -5.19305,0.074 -7.70652,0.41176 -0.83508,-0.20032 -1.36456,0.71141 -1.5507,1.54973 -0.58231,2.62321 -0.58672,5.24704 0,7.87025 0.18726,0.83804 0.69491,1.47817 1.5507,1.54973 5.56547,0.46596 10.3217,0.31693 15.50033,0 0.85719,-0.0523 1.61737,-0.69365 1.5507,-1.54973 -0.13887,-1.78125 1.50541,-3.90048 0,-7.8703 -0.30435,-0.80295 -0.69264,-1.58409 -1.5507,-1.54973 -2.57129,-0.21145 -5.18976,-0.38031 -7.79381,-0.41176 z m 95.19065,11.60032 c -0.10209,-0.01 -0.20612,1.5e-4 -0.31063,0.029 -5.49754,1.31753 -10.24293,0.21048 -15.50129,0 -0.85807,-0.0339 -1.60098,0.69341 -1.54974,1.55061 0.23661,3.96986 0.43257,6.08817 0,7.86933 -0.20225,0.8345 0.69133,1.52656 1.54974,1.54988 4.59766,0.12483 9.63457,0.70333 15.50129,0 0.85259,-0.10258 1.39877,-0.70444 1.54978,-1.54988 0.46837,-2.62316 -0.30773,-5.24608 0,-7.86933 0.0871,-0.7463 -0.52542,-1.52646 -1.23944,-1.57577 z m -103.20843,0.47418 c -0.71402,0.0489 -1.32687,0.82956 -1.23944,1.57586 0.30773,2.62316 -0.46837,4.77204 0,7.39525 0.15097,0.84544 0.69278,1.51151 1.5507,1.54978 5.86672,0.26225 10.90271,-0.76971 15.50033,0 0.84698,0.14226 1.75334,-0.71523 1.5507,-1.54978 -0.43257,-1.78111 -0.23661,-3.42543 0,-7.39525 0.0508,-0.85724 -0.69264,-1.58506 -1.5507,-1.5507 -5.25837,0.21047 -10.00274,1.31763 -15.50033,0 -0.10402,-0.029 -0.20902,-0.0339 -0.31111,-0.029 z m 11.87917,10.93918 c -3.85205,0.01 -7.52357,0.60477 -11.56791,0.24725 -0.85545,-0.0755 -1.42552,0.70115 -1.5507,1.55066 -0.38659,2.6233 -1.1237,5.24617 0,7.86933 0.33773,0.7895 0.69225,1.29813 1.5507,1.27369 5.86672,-0.16644 12.23679,-0.68924 15.8952,0.0789 0.84045,0.17661 1.53357,-0.6921 1.55065,-1.55065 0.0387,-1.78121 0.42386,-3.70167 -0.39482,-7.67149 -0.17371,-0.84103 -0.70009,-1.43273 -1.5507,-1.55065 -1.34444,-0.18628 -2.64837,-0.24967 -3.93242,-0.24773 z m 75.51768,0.24725 c -0.8573,-0.0508 -1.37632,0.70962 -1.54974,1.55066 -0.81872,3.96986 -0.0387,6.08822 0,7.86933 0.0194,0.85865 0.69307,1.61026 1.54974,1.54983 4.59766,-0.32418 9.63452,-0.16645 15.50124,0 0.8584,0.0242 1.21166,-0.76033 1.54983,-1.54983 1.12365,-2.62316 0.3866,-5.24603 0,-7.86933 -0.12532,-0.84951 -0.69719,-1.65289 -1.54983,-1.55066 -5.3924,0.64638 -10.12341,0.32128 -15.50124,0 z m -75.51768,11.08048 c -3.85205,0.01 -7.52357,0.60486 -11.56791,0.24725 -0.85545,-0.0755 -1.42552,0.70023 -1.5507,1.54982 -0.38659,2.62321 -1.1237,4.77307 0,7.39628 0.33773,0.7894 0.70237,1.41638 1.5507,1.54973 5.86672,0.92246 10.90271,0.11467 15.50033,0 0.8585,-0.0242 1.53357,-0.69119 1.5507,-1.54973 0.0387,-1.78116 0.81868,-3.42646 0,-7.39628 -0.17371,-0.84103 -0.70009,-1.43186 -1.5507,-1.54982 -1.34444,-0.18629 -2.64837,-0.24967 -3.93242,-0.24725 z m 75.51768,0.24725 c -0.85594,-0.0692 -1.37632,0.70879 -1.54974,1.54982 -0.81872,3.96982 -0.0387,6.0891 0,7.87026 0.0194,0.85855 0.69124,1.52844 1.54974,1.54978 4.59766,0.11467 9.63452,0.92251 15.50124,0 0.84839,-0.13354 1.21166,-0.76028 1.54983,-1.54978 1.12365,-2.62321 0.3866,-5.24705 0,-7.87026 -0.12532,-0.84959 -0.69665,-1.64776 -1.54983,-1.54982 -2.68089,0.30821 -5.05689,0.13983 -7.57612,0.11806 -2.5575,-0.0242 -5.25818,0.0987 -7.92512,-0.11806 z m -87.39051,11.31615 c -0.67894,0.0731 -1.13623,0.81805 -1.24578,1.56144 -0.38659,2.62331 -1.1237,5.247 0,7.87031 0.33773,0.7894 0.71378,1.3573 1.5507,1.54973 4.49432,1.0337 9.8543,0.0934 15.50033,0 0.85869,-0.0145 1.53357,-0.69119 1.5507,-1.54973 0.0387,-1.78121 0.81868,-3.90044 0,-7.87031 -0.17371,-0.84103 -0.69748,-1.64727 -1.5507,-1.54973 -4.94101,0.56485 -9.93384,0.99858 -15.50033,0 -0.10548,-0.0242 -0.20805,-0.0242 -0.30482,-0.0145 z m 103.19575,0.31596 c -0.0972,-0.01 -0.19838,-0.01 -0.30386,0.0145 -5.56639,0.99863 -10.56018,0.56481 -15.50119,0 -0.85328,-0.0972 -1.37637,0.70962 -1.54983,1.55061 -0.81868,3.96986 -0.0387,6.08822 0,7.86943 0.0193,0.85855 0.69965,1.67074 1.54983,1.54973 5.16697,-0.7356 10.33423,-0.13064 15.50119,0 0.85855,0.0242 1.21172,-0.76037 1.54983,-1.54973 1.12365,-2.62331 0.3866,-5.24618 0,-7.86943 -0.10935,-0.74335 -0.56683,-1.48921 -1.24577,-1.56232 z m -112.41794,10.88611 c -1.24868,-0.01 -2.23516,1.21437 -2.23516,2.50679 l 0,2.17676 c 0,1.37864 1.11456,2.3686 2.48798,2.48879 7.96117,0.69602 15.77471,1.27379 23.49023,1.40047 22.85053,0.44417 50.69283,0.34498 76.80743,-0.10065 8.16667,-0.17176 13.059,-1.12679 21.35683,-1.29967 1.37821,-0.029 2.48783,-1.1102 2.48783,-2.48885 l 0,-2.1767 c 0,-1.3786 -1.11228,-2.57976 -2.48783,-2.4888 -5.20045,0.34402 -10.41464,0.99505 -15.65065,0.85899 -20.688,-0.53732 -42.47309,1.65443 -64.6126,-0.14226 -13.5504,-1.0995 -27.21111,1.23078 -41.39124,-0.71687 -0.0856,-0.0145 -0.16984,-0.0194 -0.25306,-0.0194 z"
       style="fill:#ffffff;fill-opacity:1;stroke:none;stroke-width:10;stroke-linecap:round;stroke-linejoin:round;stroke-miterlimit:4;stroke-dasharray:none;stroke-dashoffset:0;stroke-opacity:1" />
    <text
       xml:space="preserve"
       style="font-style:normal;font-weight:normal;font-size:59.18384933px;line-height:125%;font-family:sans-serif;letter-spacing:0px;word-spacing:0px;fill:#ffffff;fill-opacity:1;stroke:none;stroke-width:1px;stroke-linecap:butt;stroke-linejoin:miter;stroke-opacity:1"
       x="-429.92783"
       y="761.29736"
       id="text8072"
       sodipodi:linespacing="125%"><tspan
         sodipodi:role="line"
         id="tspan8074"
         x="-429.92783"
         y="761.29736"
         style="font-style:normal;font-variant:normal;font-weight:normal;font-stretch:normal;font-family:'Archivo Black';-inkscape-font-specification:'Archivo Black, ';fill:#ffffff">C</tspan></text>
    <rect
       ry="4.7982202"
       y="425.50644"
       x="-1585.6124"
       height="621.42859"
       width="682.85712"
       id="rect9035"
       style="opacity:1;fill:#d8c586;fill-opacity:1;stroke:none;stroke-width:0.625;stroke-linecap:round;stroke-linejoin:round;stroke-miterlimit:4;stroke-dasharray:none;stroke-dashoffset:0;stroke-opacity:1" />
  </g>
</svg>
