<?xml version="1.0" encoding="UTF-8" standalone="no"?>
<svg
   xmlns:dc="http://purl.org/dc/elements/1.1/"
   xmlns:cc="http://creativecommons.org/ns#"
   xmlns:rdf="http://www.w3.org/1999/02/22-rdf-syntax-ns#"
   xmlns:svg="http://www.w3.org/2000/svg"
   xmlns="http://www.w3.org/2000/svg"
   xmlns:sodipodi="http://sodipodi.sourceforge.net/DTD/sodipodi-0.dtd"
   xmlns:inkscape="http://www.inkscape.org/namespaces/inkscape"
   width="4.4506483in"
   height="1.0915266in"
   viewBox="0 0 113.04647 27.724777"
   version="1.1"
   id="svg1373"
   inkscape:version="1.0.1 (3bc2e813f5, 2020-09-07)"
   sodipodi:docname="title.svg">
  <defs
     id="defs1367" />
  <sodipodi:namedview
     id="base"
     pagecolor="#ffffff"
     bordercolor="#666666"
     borderopacity="1.0"
     inkscape:pageopacity="0.0"
     inkscape:pageshadow="2"
     inkscape:zoom="5.6"
     inkscape:cx="238.29668"
     inkscape:cy="-25.586778"
     inkscape:document-units="in"
     inkscape:current-layer="g1496"
     inkscape:document-rotation="0"
     showgrid="false"
     units="in"
     showguides="true"
     inkscape:guide-bbox="true"
     inkscape:snap-global="true"
     inkscape:snap-bbox="true"
     inkscape:bbox-paths="true"
     inkscape:snap-to-guides="true"
     inkscape:snap-page="true"
     fit-margin-top="0"
     fit-margin-left="0"
     fit-margin-right="0"
     fit-margin-bottom="0"
     lock-margins="true" />
  <metadata
     id="metadata1370">
    <rdf:RDF>
      <cc:Work
         rdf:about="">
        <dc:format>image/svg+xml</dc:format>
        <dc:type
           rdf:resource="http://purl.org/dc/dcmitype/StillImage" />
        <dc:title></dc:title>
      </cc:Work>
    </rdf:RDF>
  </metadata>
  <g
     inkscape:label="Layer 1"
     inkscape:groupmode="layer"
     id="layer1"
     transform="translate(-6.9767658,-11.537612)">
    <g
       id="g1496"
       transform="translate(-0.81244453,4.2186557)"
       style="fill:#130e04;fill-opacity:1">
      <g
         aria-label="Masters"
         id="text1377"
         style="font-style:normal;font-variant:normal;font-weight:normal;font-stretch:normal;font-size:17.1934px;line-height:1.25;font-family:Acknowledgement;-inkscape-font-specification:Acknowledgement;letter-spacing:0px;word-spacing:0px;opacity:0.925097;fill:#130e04;fill-opacity:0.866667;stroke-width:0.716389">
        <path
           d="m 7.7892103,18.460279 h 6.9977137 v -2.131981 h -2.47585 v -3.49026 l 4.693798,5.605048 h 0.739317 l 4.607831,-5.587855 v 3.473067 h -1.856888 v 2.131981 h 7.204035 V 16.328298 H 25.911053 V 9.7948062 h 1.788114 V 7.9207256 H 22.678694 L 17.658222,13.749288 12.603362,7.8175652 H 7.7892103 v 1.977241 H 9.5773238 V 16.328298 H 7.7892103 Z"
           style="font-style:normal;font-variant:normal;font-weight:normal;font-stretch:normal;font-family:Acknowledgement;-inkscape-font-specification:Acknowledgement;fill:#130e04;fill-opacity:0.866667;stroke-width:0.716389"
           id="path1437" />
        <path
           d="m 36.364622,13.628934 1.289505,-2.149175 1.100377,2.149175 z m -6.946134,4.831345 h 6.378751 v -2.131981 h -1.031604 l 0.429835,-0.739316 h 4.573445 l 0.378254,0.739316 h -0.825283 v 2.131981 h 6.378751 V 16.328298 H 44.342359 L 39.476627,7.7144048 H 36.91481 l -5.329953,8.6138932 h -2.166369 z"
           style="font-style:normal;font-variant:normal;font-weight:normal;font-stretch:normal;font-family:Acknowledgement;-inkscape-font-specification:Acknowledgement;fill:#130e04;fill-opacity:0.866667;stroke-width:0.716389"
           id="path1439" />
        <path
           d="m 53.093776,9.5540986 c 1.581793,0 3.902902,0.4814154 3.902902,1.5989864 v 0.618962 h 2.372689 V 7.6284378 h -2.372689 v 0.8424766 c -0.842476,-0.5845756 -2.73375,-1.1519578 -4.315543,-1.1519578 -2.338302,0 -5.639435,0.7393162 -5.639435,3.6450004 0,2.664977 3.54184,3.318326 4.814152,3.49026 2.63059,0.343868 4.074835,0.120354 4.074835,1.151958 0,0.739316 -1.461439,0.997217 -2.475849,0.997217 -1.8225,0 -4.34993,-0.343868 -4.34993,-1.77092 V 14.21351 h -2.372689 v 4.315543 h 2.372689 v -0.464222 c 0.894057,0.464222 2.372689,0.773703 4.057642,0.773703 4.332737,0 6.327171,-1.358278 6.327171,-3.473066 0,-4.092029 -4.779765,-3.627808 -7.616676,-4.14361 -0.704929,-0.120353 -1.306698,-0.223514 -1.306698,-0.618962 0,-0.8768634 0.653349,-1.0487974 2.527429,-1.0487974 z"
           style="font-style:normal;font-variant:normal;font-weight:normal;font-stretch:normal;font-family:Acknowledgement;-inkscape-font-specification:Acknowledgement;fill:#130e04;fill-opacity:0.866667;stroke-width:0.716389"
           id="path1441" />
        <path
           d="m 60.865169,11.943981 h 2.372689 V 9.7948062 h 3.43868 v 6.5334918 h -2.217949 v 2.131981 h 8.029318 V 16.328298 H 70.218378 V 9.7948062 h 3.43868 v 2.1491748 h 2.372689 V 7.8175652 H 60.865169 Z"
           style="font-style:normal;font-variant:normal;font-weight:normal;font-stretch:normal;font-family:Acknowledgement;-inkscape-font-specification:Acknowledgement;fill:#130e04;fill-opacity:0.866667;stroke-width:0.716389"
           id="path1443" />
        <path
           d="M 77.405215,18.460279 H 90.83326 V 14.31667 h -2.372689 v 2.011628 h -5.708209 v -2.338302 h 3.920095 V 12.012755 H 82.752362 V 9.7948062 h 5.708209 V 11.943981 H 90.83326 V 7.8175652 H 77.405215 v 1.977241 h 1.788114 v 6.5334918 h -1.788114 z"
           style="font-style:normal;font-variant:normal;font-weight:normal;font-stretch:normal;font-family:Acknowledgement;-inkscape-font-specification:Acknowledgement;fill:#130e04;fill-opacity:0.866667;stroke-width:0.716389"
           id="path1445" />
        <path
           d="m 100.49592,7.8003718 c -2.750948,0 -5.519085,0.017193 -8.287223,0.017193 v 1.977241 h 1.788114 v 6.5334922 h -1.71934 v 2.131981 h 7.204034 v -2.131981 h -1.925661 v -2.407076 h 0.842477 c 1.306698,0 2.097599,0.343868 2.097599,2.183562 0,2.407076 1.61618,2.699363 3.645,2.699363 1.01441,0 2.88849,-0.361061 2.88849,-1.684953 V 15.98443 h -1.15196 c 0,0.05158 0,0.137547 0,0.189127 0,0.636156 -0.13755,0.980024 -0.68774,0.980024 -0.87686,0 -0.91125,-0.842476 -0.91125,-1.581793 0,-1.409858 -1.47863,-1.616179 -1.96004,-1.839693 1.77092,-0.309482 3.30113,-1.065991 3.30113,-3.060425 0,-2.2867226 -1.94286,-2.8712982 -5.12363,-2.8712982 z M 97.555844,12.115915 V 9.7948062 c 0,0 0.825284,0 1.66776,0 0.412642,0 0.825286,0 1.151956,0 0.89406,0.034387 1.59899,0.068774 1.59899,1.1519578 0,0.928443 -0.30948,1.169151 -2.819719,1.169151 z"
           style="font-style:normal;font-variant:normal;font-weight:normal;font-stretch:normal;font-family:Acknowledgement;-inkscape-font-specification:Acknowledgement;fill:#130e04;fill-opacity:0.866667;stroke-width:0.716389"
           id="path1447" />
        <path
           d="m 114.43974,9.5540986 c 1.58179,0 3.9029,0.4814154 3.9029,1.5989864 v 0.618962 h 2.37269 V 7.6284378 h -2.37269 v 0.8424766 c -0.84248,-0.5845756 -2.73375,-1.1519578 -4.31554,-1.1519578 -2.3383,0 -5.63944,0.7393162 -5.63944,3.6450004 0,2.664977 3.54184,3.318326 4.81415,3.49026 2.63059,0.343868 4.07484,0.120354 4.07484,1.151958 0,0.739316 -1.46144,0.997217 -2.47585,0.997217 -1.8225,0 -4.34993,-0.343868 -4.34993,-1.77092 V 14.21351 h -2.37269 v 4.315543 h 2.37269 v -0.464222 c 0.89406,0.464222 2.37269,0.773703 4.05764,0.773703 4.33274,0 6.32717,-1.358278 6.32717,-3.473066 0,-4.092029 -4.77976,-3.627808 -7.61667,-4.14361 -0.70493,-0.120353 -1.3067,-0.223514 -1.3067,-0.618962 0,-0.8768634 0.65335,-1.0487974 2.52743,-1.0487974 z"
           style="font-style:normal;font-variant:normal;font-weight:normal;font-stretch:normal;font-family:Acknowledgement;-inkscape-font-specification:Acknowledgement;fill:#130e04;fill-opacity:0.866667;stroke-width:0.716389"
           id="path1449" />
      </g>
      <g
         aria-label="of"
         transform="matrix(1.3198181,0,0,1.3198181,-39.143151,-135.57699)"
         id="text1381"
         style="font-style:normal;font-variant:normal;font-weight:normal;font-stretch:normal;font-size:4.20666px;line-height:1.25;font-family:Acknowledgement;-inkscape-font-specification:Acknowledgement;font-variant-ligatures:normal;font-variant-position:normal;font-variant-caps:normal;font-variant-numeric:normal;font-variant-alternates:normal;font-variant-east-asian:normal;font-feature-settings:normal;font-variation-settings:normal;text-indent:0;text-align:start;text-decoration:none;text-decoration-line:none;text-decoration-style:solid;text-decoration-color:#000000;letter-spacing:0px;word-spacing:0px;text-transform:none;writing-mode:lr-tb;direction:ltr;text-orientation:mixed;dominant-baseline:auto;baseline-shift:baseline;text-anchor:start;white-space:normal;shape-padding:0;shape-margin:0;inline-size:0;opacity:0.925097;vector-effect:none;fill:#130e04;fill-opacity:0.866667;stroke-width:0.175277;stroke-linecap:butt;stroke-linejoin:miter;stroke-miterlimit:4;stroke-dasharray:none;stroke-dashoffset:0;stroke-opacity:1;stop-color:#000000;stop-opacity:1">
        <path
           d="m 37.396271,119.63569 c 0,-0.5721 0.437493,-0.8245 1.076905,-0.8245 0.630999,0 1.076905,0.28184 1.076905,0.8245 0,0.59314 -0.429079,0.85816 -1.081111,0.85816 -0.580519,0 -1.072699,-0.26081 -1.072699,-0.85816 z m -1.026425,0 c 0,0.99277 0.816092,1.36296 2.10333,1.36296 1.287238,0 2.099124,-0.37019 2.099124,-1.36296 0,-0.91284 -0.929672,-1.36716 -2.10333,-1.36716 -1.173658,0 -2.099124,0.45432 -2.099124,1.36716 z"
           style="font-style:normal;font-variant:normal;font-weight:normal;font-stretch:normal;font-size:4.20666px;line-height:1.25;font-family:Acknowledgement;-inkscape-font-specification:Acknowledgement;font-variant-ligatures:normal;font-variant-position:normal;font-variant-caps:normal;font-variant-numeric:normal;font-variant-alternates:normal;font-variant-east-asian:normal;font-feature-settings:normal;font-variation-settings:normal;text-indent:0;text-align:start;text-decoration:none;text-decoration-line:none;text-decoration-style:solid;text-decoration-color:#000000;letter-spacing:0px;word-spacing:0px;text-transform:none;writing-mode:lr-tb;direction:ltr;text-orientation:mixed;dominant-baseline:auto;baseline-shift:baseline;text-anchor:start;white-space:normal;shape-padding:0;shape-margin:0;inline-size:0;vector-effect:none;fill:#130e04;fill-opacity:0.866667;stroke-width:0.175277;stroke-linecap:butt;stroke-linejoin:miter;stroke-miterlimit:4;stroke-dasharray:none;stroke-dashoffset:0;stroke-opacity:1;stop-color:#000000;stop-opacity:1"
           id="path1452" />
        <path
           d="m 40.824697,120.95238 h 1.762591 v -0.52163 h -0.45432 v -0.5721 h 0.959119 v -0.48377 h -0.959119 v -0.54266 h 1.396611 v 0.52583 h 0.580519 v -1.0096 h -3.285401 v 0.48377 h 0.437493 v 1.59853 h -0.437493 z"
           style="font-style:normal;font-variant:normal;font-weight:normal;font-stretch:normal;font-size:4.20666px;line-height:1.25;font-family:Acknowledgement;-inkscape-font-specification:Acknowledgement;font-variant-ligatures:normal;font-variant-position:normal;font-variant-caps:normal;font-variant-numeric:normal;font-variant-alternates:normal;font-variant-east-asian:normal;font-feature-settings:normal;font-variation-settings:normal;text-indent:0;text-align:start;text-decoration:none;text-decoration-line:none;text-decoration-style:solid;text-decoration-color:#000000;letter-spacing:0px;word-spacing:0px;text-transform:none;writing-mode:lr-tb;direction:ltr;text-orientation:mixed;dominant-baseline:auto;baseline-shift:baseline;text-anchor:start;white-space:normal;shape-padding:0;shape-margin:0;inline-size:0;vector-effect:none;fill:#130e04;fill-opacity:0.866667;stroke-width:0.175277;stroke-linecap:butt;stroke-linejoin:miter;stroke-miterlimit:4;stroke-dasharray:none;stroke-dashoffset:0;stroke-opacity:1;stop-color:#000000;stop-opacity:1"
           id="path1454" />
      </g>
      <g
         aria-label="the"
         transform="matrix(0.87433487,0,0,0.87433487,-88.779707,-122.24224)"
         id="text1385"
         style="font-style:normal;font-variant:normal;font-weight:normal;font-stretch:normal;font-size:6.35px;line-height:1.25;font-family:Acknowledgement;-inkscape-font-specification:Acknowledgement;font-variant-ligatures:normal;font-variant-position:normal;font-variant-caps:normal;font-variant-numeric:normal;font-variant-alternates:normal;font-variant-east-asian:normal;font-feature-settings:normal;font-variation-settings:normal;text-indent:0;text-align:start;text-decoration:none;text-decoration-line:none;text-decoration-style:solid;text-decoration-color:#000000;letter-spacing:0px;word-spacing:0px;text-transform:none;writing-mode:lr-tb;direction:ltr;text-orientation:mixed;dominant-baseline:auto;baseline-shift:baseline;text-anchor:start;white-space:normal;shape-padding:0;shape-margin:0;inline-size:0;opacity:0.925097;vector-effect:none;fill:#130e04;fill-opacity:0.866667;stroke-width:0.264583;stroke-linecap:butt;stroke-linejoin:miter;stroke-miterlimit:4;stroke-dasharray:none;stroke-dashoffset:0;stroke-opacity:1;stop-color:#000000;stop-opacity:1">
        <path
           d="m 113.64686,169.9505 h 0.8763 v -0.79375 h 1.27 v 2.413 h -0.81915 v 0.7874 h 2.96545 v -0.7874 h -0.8382 v -2.413 h 1.27 v 0.79375 h 0.8763 v -1.524 h -5.6007 z"
           style="font-style:normal;font-variant:normal;font-weight:normal;font-stretch:normal;font-size:6.35px;line-height:1.25;font-family:Acknowledgement;-inkscape-font-specification:Acknowledgement;font-variant-ligatures:normal;font-variant-position:normal;font-variant-caps:normal;font-variant-numeric:normal;font-variant-alternates:normal;font-variant-east-asian:normal;font-feature-settings:normal;font-variation-settings:normal;text-indent:0;text-align:start;text-decoration:none;text-decoration-line:none;text-decoration-style:solid;text-decoration-color:#000000;letter-spacing:0px;word-spacing:0px;text-transform:none;writing-mode:lr-tb;direction:ltr;text-orientation:mixed;dominant-baseline:auto;baseline-shift:baseline;text-anchor:start;white-space:normal;shape-padding:0;shape-margin:0;inline-size:0;vector-effect:none;fill:#130e04;fill-opacity:0.866667;stroke-width:0.264583;stroke-linecap:butt;stroke-linejoin:miter;stroke-miterlimit:4;stroke-dasharray:none;stroke-dashoffset:0;stroke-opacity:1;stop-color:#000000;stop-opacity:1"
           id="path1457" />
        <path
           d="m 119.75556,172.35715 h 2.66065 v -0.7874 h -0.6858 v -0.8636 h 2.19075 v 0.8636 h -0.6604 v 0.7874 h 2.66065 v -0.7874 h -0.6858 v -2.413 h 0.6858 v -0.73025 h -2.66065 v 0.73025 h 0.6604 v 0.81915 h -2.19075 v -0.81915 h 0.6858 v -0.73025 h -2.66065 v 0.73025 h 0.6604 v 2.413 h -0.6604 z"
           style="font-style:normal;font-variant:normal;font-weight:normal;font-stretch:normal;font-size:6.35px;line-height:1.25;font-family:Acknowledgement;-inkscape-font-specification:Acknowledgement;font-variant-ligatures:normal;font-variant-position:normal;font-variant-caps:normal;font-variant-numeric:normal;font-variant-alternates:normal;font-variant-east-asian:normal;font-feature-settings:normal;font-variation-settings:normal;text-indent:0;text-align:start;text-decoration:none;text-decoration-line:none;text-decoration-style:solid;text-decoration-color:#000000;letter-spacing:0px;word-spacing:0px;text-transform:none;writing-mode:lr-tb;direction:ltr;text-orientation:mixed;dominant-baseline:auto;baseline-shift:baseline;text-anchor:start;white-space:normal;shape-padding:0;shape-margin:0;inline-size:0;vector-effect:none;fill:#130e04;fill-opacity:0.866667;stroke-width:0.264583;stroke-linecap:butt;stroke-linejoin:miter;stroke-miterlimit:4;stroke-dasharray:none;stroke-dashoffset:0;stroke-opacity:1;stop-color:#000000;stop-opacity:1"
           id="path1459" />
        <path
           d="m 126.4294,172.35715 h 4.95935 v -1.53035 h -0.8763 v 0.74295 h -2.1082 v -0.8636 h 1.4478 v -0.73025 h -1.4478 v -0.81915 h 2.1082 v 0.79375 h 0.8763 v -1.524 h -4.95935 v 0.73025 h 0.6604 v 2.413 h -0.6604 z"
           style="font-style:normal;font-variant:normal;font-weight:normal;font-stretch:normal;font-size:6.35px;line-height:1.25;font-family:Acknowledgement;-inkscape-font-specification:Acknowledgement;font-variant-ligatures:normal;font-variant-position:normal;font-variant-caps:normal;font-variant-numeric:normal;font-variant-alternates:normal;font-variant-east-asian:normal;font-feature-settings:normal;font-variation-settings:normal;text-indent:0;text-align:start;text-decoration:none;text-decoration-line:none;text-decoration-style:solid;text-decoration-color:#000000;letter-spacing:0px;word-spacing:0px;text-transform:none;writing-mode:lr-tb;direction:ltr;text-orientation:mixed;dominant-baseline:auto;baseline-shift:baseline;text-anchor:start;white-space:normal;shape-padding:0;shape-margin:0;inline-size:0;vector-effect:none;fill:#130e04;fill-opacity:0.866667;stroke-width:0.264583;stroke-linecap:butt;stroke-linejoin:miter;stroke-miterlimit:4;stroke-dasharray:none;stroke-dashoffset:0;stroke-opacity:1;stop-color:#000000;stop-opacity:1"
           id="path1461" />
      </g>
      <g
         aria-label="Heist"
         transform="matrix(3.5181709,0,0,3.5181709,-332.27825,-670.23375)"
         id="text1389"
         style="font-style:normal;font-variant:normal;font-weight:normal;font-stretch:normal;font-size:6.35px;line-height:1.25;font-family:Acknowledgement;-inkscape-font-specification:Acknowledgement;font-variant-ligatures:normal;font-variant-position:normal;font-variant-caps:normal;font-variant-numeric:normal;font-variant-alternates:normal;font-variant-east-asian:normal;font-feature-settings:normal;font-variation-settings:normal;text-indent:0;text-align:start;text-decoration:none;text-decoration-line:none;text-decoration-style:solid;text-decoration-color:#000000;letter-spacing:0px;word-spacing:0px;text-transform:none;writing-mode:lr-tb;direction:ltr;text-orientation:mixed;dominant-baseline:auto;baseline-shift:baseline;text-anchor:start;white-space:normal;shape-padding:0;shape-margin:0;inline-size:0;opacity:0.925097;vector-effect:none;fill:#130e04;fill-opacity:0.866667;stroke-width:0.264583;stroke-linecap:butt;stroke-linejoin:miter;stroke-miterlimit:4;stroke-dasharray:none;stroke-dashoffset:0;stroke-opacity:1;stop-color:#000000;stop-opacity:1">
        <path
           d="m 102.30757,200.32739 h 2.66065 v -0.7874 h -0.6858 v -0.8636 h 2.19075 v 0.8636 h -0.6604 v 0.7874 h 2.66065 v -0.7874 h -0.6858 v -2.413 h 0.6858 v -0.73025 h -2.66065 v 0.73025 h 0.6604 v 0.81915 h -2.19075 v -0.81915 h 0.6858 v -0.73025 h -2.66065 v 0.73025 h 0.6604 v 2.413 h -0.6604 z"
           style="font-style:normal;font-variant:normal;font-weight:normal;font-stretch:normal;font-size:6.35px;line-height:1.25;font-family:Acknowledgement;-inkscape-font-specification:Acknowledgement;font-variant-ligatures:normal;font-variant-position:normal;font-variant-caps:normal;font-variant-numeric:normal;font-variant-alternates:normal;font-variant-east-asian:normal;font-feature-settings:normal;font-variation-settings:normal;text-indent:0;text-align:start;text-decoration:none;text-decoration-line:none;text-decoration-style:solid;text-decoration-color:#000000;letter-spacing:0px;word-spacing:0px;text-transform:none;writing-mode:lr-tb;direction:ltr;text-orientation:mixed;dominant-baseline:auto;baseline-shift:baseline;text-anchor:start;white-space:normal;shape-padding:0;shape-margin:0;inline-size:0;vector-effect:none;fill:#130e04;fill-opacity:0.866667;stroke-width:0.264583;stroke-linecap:butt;stroke-linejoin:miter;stroke-miterlimit:4;stroke-dasharray:none;stroke-dashoffset:0;stroke-opacity:1;stop-color:#000000;stop-opacity:1"
           id="path1464" />
        <path
           d="m 108.98142,200.32739 h 4.95935 v -1.53035 h -0.8763 v 0.74295 h -2.1082 v -0.8636 h 1.4478 v -0.73025 h -1.4478 v -0.81915 h 2.1082 v 0.79375 h 0.8763 v -1.524 h -4.95935 v 0.73025 h 0.6604 v 2.413 h -0.6604 z"
           style="font-style:normal;font-variant:normal;font-weight:normal;font-stretch:normal;font-size:6.35px;line-height:1.25;font-family:Acknowledgement;-inkscape-font-specification:Acknowledgement;font-variant-ligatures:normal;font-variant-position:normal;font-variant-caps:normal;font-variant-numeric:normal;font-variant-alternates:normal;font-variant-east-asian:normal;font-feature-settings:normal;font-variation-settings:normal;text-indent:0;text-align:start;text-decoration:none;text-decoration-line:none;text-decoration-style:solid;text-decoration-color:#000000;letter-spacing:0px;word-spacing:0px;text-transform:none;writing-mode:lr-tb;direction:ltr;text-orientation:mixed;dominant-baseline:auto;baseline-shift:baseline;text-anchor:start;white-space:normal;shape-padding:0;shape-margin:0;inline-size:0;vector-effect:none;fill:#130e04;fill-opacity:0.866667;stroke-width:0.264583;stroke-linecap:butt;stroke-linejoin:miter;stroke-miterlimit:4;stroke-dasharray:none;stroke-dashoffset:0;stroke-opacity:1;stop-color:#000000;stop-opacity:1"
           id="path1466" />
        <path
           d="m 114.44875,200.32739 h 2.66065 v -0.7874 h -0.6858 v -2.413 h 0.6858 v -0.73025 h -2.66065 v 0.73025 h 0.6604 v 2.413 h -0.6604 z"
           style="font-style:normal;font-variant:normal;font-weight:normal;font-stretch:normal;font-size:6.35px;line-height:1.25;font-family:Acknowledgement;-inkscape-font-specification:Acknowledgement;font-variant-ligatures:normal;font-variant-position:normal;font-variant-caps:normal;font-variant-numeric:normal;font-variant-alternates:normal;font-variant-east-asian:normal;font-feature-settings:normal;font-variation-settings:normal;text-indent:0;text-align:start;text-decoration:none;text-decoration-line:none;text-decoration-style:solid;text-decoration-color:#000000;letter-spacing:0px;word-spacing:0px;text-transform:none;writing-mode:lr-tb;direction:ltr;text-orientation:mixed;dominant-baseline:auto;baseline-shift:baseline;text-anchor:start;white-space:normal;shape-padding:0;shape-margin:0;inline-size:0;vector-effect:none;fill:#130e04;fill-opacity:0.866667;stroke-width:0.264583;stroke-linecap:butt;stroke-linejoin:miter;stroke-miterlimit:4;stroke-dasharray:none;stroke-dashoffset:0;stroke-opacity:1;stop-color:#000000;stop-opacity:1"
           id="path1468" />
        <path
           d="m 119.96689,197.03809 c 0.5842,0 1.44145,0.1778 1.44145,0.59055 v 0.2286 h 0.8763 v -1.53035 h -0.8763 v 0.31115 c -0.31115,-0.2159 -1.00965,-0.42545 -1.59385,-0.42545 -0.8636,0 -2.0828,0.27305 -2.0828,1.3462 0,0.98425 1.3081,1.22555 1.778,1.28905 0.97155,0.127 1.50495,0.0445 1.50495,0.42545 0,0.27305 -0.53975,0.3683 -0.9144,0.3683 -0.6731,0 -1.60655,-0.127 -1.60655,-0.65405 v -0.2286 h -0.8763 v 1.59385 h 0.8763 v -0.17145 c 0.3302,0.17145 0.8763,0.28575 1.4986,0.28575 1.6002,0 2.3368,-0.50165 2.3368,-1.2827 0,-1.5113 -1.7653,-1.33985 -2.81305,-1.53035 -0.26035,-0.0445 -0.4826,-0.0825 -0.4826,-0.2286 0,-0.32385 0.2413,-0.38735 0.93345,-0.38735 z"
           style="font-style:normal;font-variant:normal;font-weight:normal;font-stretch:normal;font-size:6.35px;line-height:1.25;font-family:Acknowledgement;-inkscape-font-specification:Acknowledgement;font-variant-ligatures:normal;font-variant-position:normal;font-variant-caps:normal;font-variant-numeric:normal;font-variant-alternates:normal;font-variant-east-asian:normal;font-feature-settings:normal;font-variation-settings:normal;text-indent:0;text-align:start;text-decoration:none;text-decoration-line:none;text-decoration-style:solid;text-decoration-color:#000000;letter-spacing:0px;word-spacing:0px;text-transform:none;writing-mode:lr-tb;direction:ltr;text-orientation:mixed;dominant-baseline:auto;baseline-shift:baseline;text-anchor:start;white-space:normal;shape-padding:0;shape-margin:0;inline-size:0;vector-effect:none;fill:#130e04;fill-opacity:0.866667;stroke-width:0.264583;stroke-linecap:butt;stroke-linejoin:miter;stroke-miterlimit:4;stroke-dasharray:none;stroke-dashoffset:0;stroke-opacity:1;stop-color:#000000;stop-opacity:1"
           id="path1470" />
        <path
           d="m 122.83709,197.92074 h 0.8763 v -0.79375 h 1.27 v 2.413 h -0.81915 v 0.7874 h 2.96545 v -0.7874 h -0.8382 v -2.413 h 1.27 v 0.79375 h 0.8763 v -1.524 h -5.6007 z"
           style="font-style:normal;font-variant:normal;font-weight:normal;font-stretch:normal;font-size:6.35px;line-height:1.25;font-family:Acknowledgement;-inkscape-font-specification:Acknowledgement;font-variant-ligatures:normal;font-variant-position:normal;font-variant-caps:normal;font-variant-numeric:normal;font-variant-alternates:normal;font-variant-east-asian:normal;font-feature-settings:normal;font-variation-settings:normal;text-indent:0;text-align:start;text-decoration:none;text-decoration-line:none;text-decoration-style:solid;text-decoration-color:#000000;letter-spacing:0px;word-spacing:0px;text-transform:none;writing-mode:lr-tb;direction:ltr;text-orientation:mixed;dominant-baseline:auto;baseline-shift:baseline;text-anchor:start;white-space:normal;shape-padding:0;shape-margin:0;inline-size:0;vector-effect:none;fill:#130e04;fill-opacity:0.866667;stroke-width:0.264583;stroke-linecap:butt;stroke-linejoin:miter;stroke-miterlimit:4;stroke-dasharray:none;stroke-dashoffset:0;stroke-opacity:1;stop-color:#000000;stop-opacity:1"
           id="path1472" />
      </g>
    </g>
  </g>
</svg>
