<?xml version="1.0" encoding="UTF-8" standalone="no"?>
<svg
   width="4.4506483in"
   height="1.0915266in"
   viewBox="0 0 113.04647 27.724777"
   version="1.1"
   id="svg1373"
   inkscape:version="1.2 (dc2aeda, 2022-05-15)"
   sodipodi:docname="title.svg"
   xmlns:inkscape="http://www.inkscape.org/namespaces/inkscape"
   xmlns:sodipodi="http://sodipodi.sourceforge.net/DTD/sodipodi-0.dtd"
   xmlns="http://www.w3.org/2000/svg"
   xmlns:svg="http://www.w3.org/2000/svg"
   xmlns:rdf="http://www.w3.org/1999/02/22-rdf-syntax-ns#"
   xmlns:cc="http://creativecommons.org/ns#"
   xmlns:dc="http://purl.org/dc/elements/1.1/">
  <defs
     id="defs1367" />
  <sodipodi:namedview
     id="base"
     pagecolor="#ffffff"
     bordercolor="#666666"
     borderopacity="1.0"
     inkscape:pageopacity="0.0"
     inkscape:pageshadow="2"
     inkscape:zoom="5.6"
     inkscape:cx="240.80357"
     inkscape:cy="35.535714"
     inkscape:document-units="in"
     inkscape:current-layer="layer1"
     inkscape:document-rotation="0"
     showgrid="false"
     units="in"
     showguides="true"
     inkscape:guide-bbox="true"
     inkscape:snap-global="true"
     inkscape:snap-bbox="true"
     inkscape:bbox-paths="true"
     inkscape:snap-to-guides="true"
     inkscape:snap-page="true"
     fit-margin-top="0"
     fit-margin-left="0"
     fit-margin-right="0"
     fit-margin-bottom="0"
     lock-margins="true"
     inkscape:showpageshadow="2"
     inkscape:pagecheckerboard="0"
     inkscape:deskcolor="#d1d1d1"
     inkscape:window-width="1512"
     inkscape:window-height="832"
     inkscape:window-x="0"
     inkscape:window-y="38"
     inkscape:window-maximized="1" />
  <metadata
     id="metadata1370">
    <rdf:RDF>
      <cc:Work
         rdf:about="">
        <dc:format>image/svg+xml</dc:format>
        <dc:type
           rdf:resource="http://purl.org/dc/dcmitype/StillImage" />
        <dc:title />
      </cc:Work>
    </rdf:RDF>
  </metadata>
  <g
     inkscape:label="Layer 1"
     inkscape:groupmode="layer"
     id="layer1"
     transform="translate(-6.9767658,-11.537612)">
    <path
       d="m 7.7892103,18.460279 h 6.9977137 v -2.131981 h -2.47585 v -3.49026 l 4.693798,5.605048 h 0.739317 l 4.607831,-5.587855 v 3.473067 h -1.856888 v 2.131981 h 7.204035 V 16.328298 H 25.911053 V 9.7948062 h 1.788114 V 7.9207256 H 22.678694 L 17.658222,13.749288 12.603362,7.8175652 H 7.7892103 v 1.977241 H 9.5773238 V 16.328298 H 7.7892103 Z"
       style="fill:#130e04;fill-opacity:0.866667;font-style:normal;font-variant:normal;font-weight:normal;font-stretch:normal;font-size:17.1934px;line-height:1.25;font-family:Acknowledgement;-inkscape-font-specification:Acknowledgement;letter-spacing:0px;word-spacing:0px;opacity:0.925097;stroke-width:0.716389"
       id="path1437"
       transform="translate(-0.81244456,4.2186557)" />
    <path
       d="m 36.364622,13.628934 1.289505,-2.149175 1.100377,2.149175 z m -6.946134,4.831345 h 6.378751 v -2.131981 h -1.031604 l 0.429835,-0.739316 h 4.573445 l 0.378254,0.739316 h -0.825283 v 2.131981 h 6.378751 V 16.328298 H 44.342359 L 39.476627,7.7144048 H 36.91481 l -5.329953,8.6138932 h -2.166369 z"
       style="fill:#130e04;fill-opacity:0.866667;font-style:normal;font-variant:normal;font-weight:normal;font-stretch:normal;font-size:17.1934px;line-height:1.25;font-family:Acknowledgement;-inkscape-font-specification:Acknowledgement;letter-spacing:0px;word-spacing:0px;opacity:0.925097;stroke-width:0.716389"
       id="path1439"
       transform="translate(-0.81244456,4.2186557)" />
    <path
       d="m 53.093776,9.5540986 c 1.581793,0 3.902902,0.4814154 3.902902,1.5989864 v 0.618962 h 2.372689 V 7.6284378 h -2.372689 v 0.8424766 c -0.842476,-0.5845756 -2.73375,-1.1519578 -4.315543,-1.1519578 -2.338302,0 -5.639435,0.7393162 -5.639435,3.6450004 0,2.664977 3.54184,3.318326 4.814152,3.49026 2.63059,0.343868 4.074835,0.120354 4.074835,1.151958 0,0.739316 -1.461439,0.997217 -2.475849,0.997217 -1.8225,0 -4.34993,-0.343868 -4.34993,-1.77092 V 14.21351 h -2.372689 v 4.315543 h 2.372689 v -0.464222 c 0.894057,0.464222 2.372689,0.773703 4.057642,0.773703 4.332737,0 6.327171,-1.358278 6.327171,-3.473066 0,-4.092029 -4.779765,-3.627808 -7.616676,-4.14361 -0.704929,-0.120353 -1.306698,-0.223514 -1.306698,-0.618962 0,-0.8768634 0.653349,-1.0487974 2.527429,-1.0487974 z"
       style="fill:#130e04;fill-opacity:0.866667;font-style:normal;font-variant:normal;font-weight:normal;font-stretch:normal;font-size:17.1934px;line-height:1.25;font-family:Acknowledgement;-inkscape-font-specification:Acknowledgement;letter-spacing:0px;word-spacing:0px;opacity:0.925097;stroke-width:0.716389"
       id="path1441"
       transform="translate(-0.81244456,4.2186557)" />
    <path
       d="m 60.865169,11.943981 h 2.372689 V 9.7948062 h 3.43868 v 6.5334918 h -2.217949 v 2.131981 h 8.029318 V 16.328298 H 70.218378 V 9.7948062 h 3.43868 v 2.1491748 h 2.372689 V 7.8175652 H 60.865169 Z"
       style="fill:#130e04;fill-opacity:0.866667;font-style:normal;font-variant:normal;font-weight:normal;font-stretch:normal;font-size:17.1934px;line-height:1.25;font-family:Acknowledgement;-inkscape-font-specification:Acknowledgement;letter-spacing:0px;word-spacing:0px;opacity:0.925097;stroke-width:0.716389"
       id="path1443"
       transform="translate(-0.81244456,4.2186557)" />
    <path
       d="M 77.405215,18.460279 H 90.83326 V 14.31667 h -2.372689 v 2.011628 h -5.708209 v -2.338302 h 3.920095 V 12.012755 H 82.752362 V 9.7948062 h 5.708209 V 11.943981 H 90.83326 V 7.8175652 H 77.405215 v 1.977241 h 1.788114 v 6.5334918 h -1.788114 z"
       style="fill:#130e04;fill-opacity:0.866667;font-style:normal;font-variant:normal;font-weight:normal;font-stretch:normal;font-size:17.1934px;line-height:1.25;font-family:Acknowledgement;-inkscape-font-specification:Acknowledgement;letter-spacing:0px;word-spacing:0px;opacity:0.925097;stroke-width:0.716389"
       id="path1445"
       transform="translate(-0.81244456,4.2186557)" />
    <path
       d="m 100.49592,7.8003718 c -2.750948,0 -5.519085,0.017193 -8.287223,0.017193 v 1.977241 h 1.788114 v 6.5334922 h -1.71934 v 2.131981 h 7.204034 v -2.131981 h -1.925661 v -2.407076 h 0.842477 c 1.306698,0 2.097599,0.343868 2.097599,2.183562 0,2.407076 1.61618,2.699363 3.645,2.699363 1.01441,0 2.88849,-0.361061 2.88849,-1.684953 V 15.98443 h -1.15196 c 0,0.05158 0,0.137547 0,0.189127 0,0.636156 -0.13755,0.980024 -0.68774,0.980024 -0.87686,0 -0.91125,-0.842476 -0.91125,-1.581793 0,-1.409858 -1.47863,-1.616179 -1.96004,-1.839693 1.77092,-0.309482 3.30113,-1.065991 3.30113,-3.060425 0,-2.2867226 -1.94286,-2.8712982 -5.12363,-2.8712982 z M 97.555844,12.115915 V 9.7948062 c 0,0 0.825284,0 1.66776,0 0.412642,0 0.825286,0 1.151956,0 0.89406,0.034387 1.59899,0.068774 1.59899,1.1519578 0,0.928443 -0.30948,1.169151 -2.819719,1.169151 z"
       style="fill:#130e04;fill-opacity:0.866667;font-style:normal;font-variant:normal;font-weight:normal;font-stretch:normal;font-size:17.1934px;line-height:1.25;font-family:Acknowledgement;-inkscape-font-specification:Acknowledgement;letter-spacing:0px;word-spacing:0px;opacity:0.925097;stroke-width:0.716389"
       id="path1447"
       transform="translate(-0.81244456,4.2186557)" />
    <path
       d="m 114.43974,9.5540986 c 1.58179,0 3.9029,0.4814154 3.9029,1.5989864 v 0.618962 h 2.37269 V 7.6284378 h -2.37269 v 0.8424766 c -0.84248,-0.5845756 -2.73375,-1.1519578 -4.31554,-1.1519578 -2.3383,0 -5.63944,0.7393162 -5.63944,3.6450004 0,2.664977 3.54184,3.318326 4.81415,3.49026 2.63059,0.343868 4.07484,0.120354 4.07484,1.151958 0,0.739316 -1.46144,0.997217 -2.47585,0.997217 -1.8225,0 -4.34993,-0.343868 -4.34993,-1.77092 V 14.21351 h -2.37269 v 4.315543 h 2.37269 v -0.464222 c 0.89406,0.464222 2.37269,0.773703 4.05764,0.773703 4.33274,0 6.32717,-1.358278 6.32717,-3.473066 0,-4.092029 -4.77976,-3.627808 -7.61667,-4.14361 -0.70493,-0.120353 -1.3067,-0.223514 -1.3067,-0.618962 0,-0.8768634 0.65335,-1.0487974 2.52743,-1.0487974 z"
       style="fill:#130e04;fill-opacity:0.866667;font-style:normal;font-variant:normal;font-weight:normal;font-stretch:normal;font-size:17.1934px;line-height:1.25;font-family:Acknowledgement;-inkscape-font-specification:Acknowledgement;letter-spacing:0px;word-spacing:0px;opacity:0.925097;stroke-width:0.716389"
       id="path1449"
       transform="translate(-0.81244456,4.2186557)" />
    <path
       d="m 10.213124,22.320359 c 0,-0.755068 0.577412,-1.08819 1.421319,-1.08819 0.832804,0 1.421319,0.371978 1.421319,1.08819 0,0.782837 -0.566306,1.132615 -1.42687,1.132615 -0.76618,0 -1.415768,-0.344222 -1.415768,-1.132615 z m -1.354694,0 c 0,1.310276 1.077093,1.798859 2.776013,1.798859 1.69892,0 2.770462,-0.488583 2.770462,-1.798859 0,-1.204783 -1.226998,-1.804402 -2.776013,-1.804402 -1.549015,0 -2.770462,0.599619 -2.770462,1.804402 z"
       style="fill:#130e04;fill-opacity:0.866667;font-style:normal;font-variant:normal;font-weight:normal;font-stretch:normal;font-size:4.20666px;line-height:1.25;font-family:Acknowledgement;-inkscape-font-specification:Acknowledgement;font-variant-ligatures:normal;font-variant-position:normal;font-variant-caps:normal;font-variant-numeric:normal;font-variant-alternates:normal;font-variant-east-asian:normal;font-feature-settings:normal;font-variation-settings:normal;text-indent:0;text-align:start;text-decoration:none;text-decoration-line:none;text-decoration-style:solid;text-decoration-color:#000000;letter-spacing:0px;word-spacing:0px;text-transform:none;writing-mode:lr-tb;direction:ltr;text-orientation:mixed;dominant-baseline:auto;baseline-shift:baseline;text-anchor:start;white-space:normal;shape-padding:0;shape-margin:0;inline-size:0;opacity:0.925097;vector-effect:none;stroke-width:0.231334;stroke-linecap:butt;stroke-linejoin:miter;stroke-miterlimit:4;stroke-dasharray:none;stroke-dashoffset:0;stroke-opacity:1;stop-color:#000000"
       id="path1452"
       transform="translate(-0.81244456,4.2186557)" />
    <path
       d="m 14.738023,24.05815 h 2.3263 v -0.688456 h -0.59962 v -0.755068 h 1.265862 v -0.638489 h -1.265862 v -0.716212 h 1.843272 v 0.694 h 0.76618 v -1.332489 h -4.336132 v 0.638489 h 0.577411 v 2.109769 h -0.577411 z"
       style="fill:#130e04;fill-opacity:0.866667;font-style:normal;font-variant:normal;font-weight:normal;font-stretch:normal;font-size:4.20666px;line-height:1.25;font-family:Acknowledgement;-inkscape-font-specification:Acknowledgement;font-variant-ligatures:normal;font-variant-position:normal;font-variant-caps:normal;font-variant-numeric:normal;font-variant-alternates:normal;font-variant-east-asian:normal;font-feature-settings:normal;font-variation-settings:normal;text-indent:0;text-align:start;text-decoration:none;text-decoration-line:none;text-decoration-style:solid;text-decoration-color:#000000;letter-spacing:0px;word-spacing:0px;text-transform:none;writing-mode:lr-tb;direction:ltr;text-orientation:mixed;dominant-baseline:auto;baseline-shift:baseline;text-anchor:start;white-space:normal;shape-padding:0;shape-margin:0;inline-size:0;opacity:0.925097;vector-effect:none;stroke-width:0.231334;stroke-linecap:butt;stroke-linejoin:miter;stroke-miterlimit:4;stroke-dasharray:none;stroke-dashoffset:0;stroke-opacity:1;stop-color:#000000"
       id="path1454"
       transform="translate(-0.81244456,4.2186557)" />
    <path
       d="m 10.585706,26.351408 h 0.766179 v -0.694003 h 1.110405 v 2.10977 h -0.716211 v 0.688451 h 2.592796 v -0.688451 h -0.732867 v -2.10977 h 1.110405 v 0.694003 h 0.76618 v -1.332486 h -4.896887 z"
       style="fill:#130e04;fill-opacity:0.866667;font-style:normal;font-variant:normal;font-weight:normal;font-stretch:normal;font-size:6.35px;line-height:1.25;font-family:Acknowledgement;-inkscape-font-specification:Acknowledgement;font-variant-ligatures:normal;font-variant-position:normal;font-variant-caps:normal;font-variant-numeric:normal;font-variant-alternates:normal;font-variant-east-asian:normal;font-feature-settings:normal;font-variation-settings:normal;text-indent:0;text-align:start;text-decoration:none;text-decoration-line:none;text-decoration-style:solid;text-decoration-color:#000000;letter-spacing:0px;word-spacing:0px;text-transform:none;writing-mode:lr-tb;direction:ltr;text-orientation:mixed;dominant-baseline:auto;baseline-shift:baseline;text-anchor:start;white-space:normal;shape-padding:0;shape-margin:0;inline-size:0;opacity:0.925097;vector-effect:none;stroke-width:0.231334;stroke-linecap:butt;stroke-linejoin:miter;stroke-miterlimit:4;stroke-dasharray:none;stroke-dashoffset:0;stroke-opacity:1;stop-color:#000000"
       id="path1457"
       transform="translate(-0.81244456,4.2186557)" />
    <path
       d="m 15.926755,28.455626 h 2.326299 v -0.688451 h -0.599619 v -0.755076 h 1.915449 v 0.755076 h -0.57741 v 0.688451 h 2.326299 v -0.688451 h -0.599619 v -2.10977 h 0.599619 v -0.638483 h -2.326299 v 0.638483 h 0.57741 v 0.716211 h -1.915449 v -0.716211 h 0.599619 v -0.638483 h -2.326299 v 0.638483 h 0.577411 v 2.10977 h -0.577411 z"
       style="fill:#130e04;fill-opacity:0.866667;font-style:normal;font-variant:normal;font-weight:normal;font-stretch:normal;font-size:6.35px;line-height:1.25;font-family:Acknowledgement;-inkscape-font-specification:Acknowledgement;font-variant-ligatures:normal;font-variant-position:normal;font-variant-caps:normal;font-variant-numeric:normal;font-variant-alternates:normal;font-variant-east-asian:normal;font-feature-settings:normal;font-variation-settings:normal;text-indent:0;text-align:start;text-decoration:none;text-decoration-line:none;text-decoration-style:solid;text-decoration-color:#000000;letter-spacing:0px;word-spacing:0px;text-transform:none;writing-mode:lr-tb;direction:ltr;text-orientation:mixed;dominant-baseline:auto;baseline-shift:baseline;text-anchor:start;white-space:normal;shape-padding:0;shape-margin:0;inline-size:0;opacity:0.925097;vector-effect:none;stroke-width:0.231334;stroke-linecap:butt;stroke-linejoin:miter;stroke-miterlimit:4;stroke-dasharray:none;stroke-dashoffset:0;stroke-opacity:1;stop-color:#000000"
       id="path1459"
       transform="translate(-0.81244456,4.2186557)" />
    <path
       d="m 21.761926,28.455626 h 4.336133 v -1.338038 h -0.76618 v 0.649587 h -1.843273 v -0.755076 h 1.265862 v -0.638483 h -1.265862 v -0.716211 h 1.843273 v 0.694003 h 0.76618 v -1.332486 h -4.336133 v 0.638483 h 0.577411 v 2.10977 h -0.577411 z"
       style="fill:#130e04;fill-opacity:0.866667;font-style:normal;font-variant:normal;font-weight:normal;font-stretch:normal;font-size:6.35px;line-height:1.25;font-family:Acknowledgement;-inkscape-font-specification:Acknowledgement;font-variant-ligatures:normal;font-variant-position:normal;font-variant-caps:normal;font-variant-numeric:normal;font-variant-alternates:normal;font-variant-east-asian:normal;font-feature-settings:normal;font-variation-settings:normal;text-indent:0;text-align:start;text-decoration:none;text-decoration-line:none;text-decoration-style:solid;text-decoration-color:#000000;letter-spacing:0px;word-spacing:0px;text-transform:none;writing-mode:lr-tb;direction:ltr;text-orientation:mixed;dominant-baseline:auto;baseline-shift:baseline;text-anchor:start;white-space:normal;shape-padding:0;shape-margin:0;inline-size:0;opacity:0.925097;vector-effect:none;stroke-width:0.231334;stroke-linecap:butt;stroke-linejoin:miter;stroke-miterlimit:4;stroke-dasharray:none;stroke-dashoffset:0;stroke-opacity:1;stop-color:#000000"
       id="path1461"
       transform="translate(-0.81244456,4.2186557)" />
    <path
       d="m 27.657266,34.552244 h 9.360621 v -2.770208 h -2.412762 v -3.038292 h 7.707433 v 3.038292 h -2.3234 v 2.770208 H 49.34978 V 31.782036 H 46.937018 V 23.29269 h 2.412762 v -2.569144 h -9.360622 v 2.569144 h 2.3234 v 2.88191 h -7.707433 v -2.88191 h 2.412762 v -2.569144 h -9.360621 v 2.569144 h 2.3234 v 8.489346 h -2.3234 z"
       style="fill:#130e04;fill-opacity:0.866667;font-style:normal;font-variant:normal;font-weight:normal;font-stretch:normal;font-size:6.35px;line-height:1.25;font-family:Acknowledgement;-inkscape-font-specification:Acknowledgement;font-variant-ligatures:normal;font-variant-position:normal;font-variant-caps:normal;font-variant-numeric:normal;font-variant-alternates:normal;font-variant-east-asian:normal;font-feature-settings:normal;font-variation-settings:normal;text-indent:0;text-align:start;text-decoration:none;text-decoration-line:none;text-decoration-style:solid;text-decoration-color:#000000;letter-spacing:0px;word-spacing:0px;text-transform:none;writing-mode:lr-tb;direction:ltr;text-orientation:mixed;dominant-baseline:auto;baseline-shift:baseline;text-anchor:start;white-space:normal;shape-padding:0;shape-margin:0;inline-size:0;opacity:0.925097;vector-effect:none;stroke-width:0.930848;stroke-linecap:butt;stroke-linejoin:miter;stroke-miterlimit:4;stroke-dasharray:none;stroke-dashoffset:0;stroke-opacity:1;stop-color:#000000"
       id="path1464"
       transform="translate(-0.81244456,4.2186557)" />
    <path
       d="m 51.13701,34.552244 h 17.447841 v -5.384033 h -3.082973 v 2.613825 H 58.08487 v -3.038292 h 5.093608 V 26.1746 H 58.08487 v -2.88191 h 7.417008 v 2.792548 h 3.082973 V 20.723546 H 51.13701 v 2.569144 h 2.323401 v 8.489346 H 51.13701 Z"
       style="fill:#130e04;fill-opacity:0.866667;font-style:normal;font-variant:normal;font-weight:normal;font-stretch:normal;font-size:6.35px;line-height:1.25;font-family:Acknowledgement;-inkscape-font-specification:Acknowledgement;font-variant-ligatures:normal;font-variant-position:normal;font-variant-caps:normal;font-variant-numeric:normal;font-variant-alternates:normal;font-variant-east-asian:normal;font-feature-settings:normal;font-variation-settings:normal;text-indent:0;text-align:start;text-decoration:none;text-decoration-line:none;text-decoration-style:solid;text-decoration-color:#000000;letter-spacing:0px;word-spacing:0px;text-transform:none;writing-mode:lr-tb;direction:ltr;text-orientation:mixed;dominant-baseline:auto;baseline-shift:baseline;text-anchor:start;white-space:normal;shape-padding:0;shape-margin:0;inline-size:0;opacity:0.925097;vector-effect:none;stroke-width:0.930848;stroke-linecap:butt;stroke-linejoin:miter;stroke-miterlimit:4;stroke-dasharray:none;stroke-dashoffset:0;stroke-opacity:1;stop-color:#000000"
       id="path1466"
       transform="translate(-0.81244456,4.2186557)" />
    <path
       d="m 70.372012,34.552244 h 9.360621 V 31.782036 H 77.319872 V 23.29269 h 2.412761 v -2.569144 h -9.360621 v 2.569144 h 2.3234 v 8.489346 h -2.3234 z"
       style="fill:#130e04;fill-opacity:0.866667;font-style:normal;font-variant:normal;font-weight:normal;font-stretch:normal;font-size:6.35px;line-height:1.25;font-family:Acknowledgement;-inkscape-font-specification:Acknowledgement;font-variant-ligatures:normal;font-variant-position:normal;font-variant-caps:normal;font-variant-numeric:normal;font-variant-alternates:normal;font-variant-east-asian:normal;font-feature-settings:normal;font-variation-settings:normal;text-indent:0;text-align:start;text-decoration:none;text-decoration-line:none;text-decoration-style:solid;text-decoration-color:#000000;letter-spacing:0px;word-spacing:0px;text-transform:none;writing-mode:lr-tb;direction:ltr;text-orientation:mixed;dominant-baseline:auto;baseline-shift:baseline;text-anchor:start;white-space:normal;shape-padding:0;shape-margin:0;inline-size:0;opacity:0.925097;vector-effect:none;stroke-width:0.930848;stroke-linecap:butt;stroke-linejoin:miter;stroke-miterlimit:4;stroke-dasharray:none;stroke-dashoffset:0;stroke-opacity:1;stop-color:#000000"
       id="path1468"
       transform="translate(-0.81244456,4.2186557)" />
    <path
       d="m 89.785771,22.979924 c 2.055316,0 5.071268,0.625531 5.071268,2.077656 v 0.804254 h 3.082973 v -5.384033 h -3.082973 v 1.094679 c -1.094679,-0.759573 -3.552121,-1.496806 -5.607437,-1.496806 -3.038292,0 -7.327646,0.960637 -7.327646,4.736162 0,3.46276 4.602119,4.311694 6.255308,4.535098 3.418079,0.446808 5.294671,0.156559 5.294671,1.496806 0,0.960637 -1.898933,1.295742 -3.217016,1.295742 -2.36808,0 -5.652117,-0.446807 -5.652117,-2.301059 v -0.804254 h -3.082973 v 5.607437 h 3.082973 v -0.603191 c 1.1617,0.603191 3.082973,1.005317 5.272331,1.005317 5.629777,0 8.221262,-1.76489 8.221262,-4.512757 0,-5.317012 -6.210627,-4.713822 -9.896791,-5.384033 -0.915956,-0.156559 -1.697869,-0.290249 -1.697869,-0.804254 0,-1.13936 0.848934,-1.362764 3.284036,-1.362764 z"
       style="fill:#130e04;fill-opacity:0.866667;font-style:normal;font-variant:normal;font-weight:normal;font-stretch:normal;font-size:6.35px;line-height:1.25;font-family:Acknowledgement;-inkscape-font-specification:Acknowledgement;font-variant-ligatures:normal;font-variant-position:normal;font-variant-caps:normal;font-variant-numeric:normal;font-variant-alternates:normal;font-variant-east-asian:normal;font-feature-settings:normal;font-variation-settings:normal;text-indent:0;text-align:start;text-decoration:none;text-decoration-line:none;text-decoration-style:solid;text-decoration-color:#000000;letter-spacing:0px;word-spacing:0px;text-transform:none;writing-mode:lr-tb;direction:ltr;text-orientation:mixed;dominant-baseline:auto;baseline-shift:baseline;text-anchor:start;white-space:normal;shape-padding:0;shape-margin:0;inline-size:0;opacity:0.925097;vector-effect:none;stroke-width:0.930848;stroke-linecap:butt;stroke-linejoin:miter;stroke-miterlimit:4;stroke-dasharray:none;stroke-dashoffset:0;stroke-opacity:1;stop-color:#000000"
       id="path1470"
       transform="translate(-0.81244456,4.2186557)" />
    <path
       d="M 99.883625,26.085238 H 102.9666 V 23.29269 h 4.46808 v 8.489346 h -2.88191 v 2.770208 h 10.43296 V 31.782036 H 112.0368 V 23.29269 h 4.46807 v 2.792548 h 3.08298 V 20.723546 H 99.883625 Z"
       style="fill:#130e04;fill-opacity:0.866667;font-style:normal;font-variant:normal;font-weight:normal;font-stretch:normal;font-size:6.35px;line-height:1.25;font-family:Acknowledgement;-inkscape-font-specification:Acknowledgement;font-variant-ligatures:normal;font-variant-position:normal;font-variant-caps:normal;font-variant-numeric:normal;font-variant-alternates:normal;font-variant-east-asian:normal;font-feature-settings:normal;font-variation-settings:normal;text-indent:0;text-align:start;text-decoration:none;text-decoration-line:none;text-decoration-style:solid;text-decoration-color:#000000;letter-spacing:0px;word-spacing:0px;text-transform:none;writing-mode:lr-tb;direction:ltr;text-orientation:mixed;dominant-baseline:auto;baseline-shift:baseline;text-anchor:start;white-space:normal;shape-padding:0;shape-margin:0;inline-size:0;opacity:0.925097;vector-effect:none;stroke-width:0.930848;stroke-linecap:butt;stroke-linejoin:miter;stroke-miterlimit:4;stroke-dasharray:none;stroke-dashoffset:0;stroke-opacity:1;stop-color:#000000"
       id="path1472"
       transform="translate(-0.81244456,4.2186557)" />
  </g>
</svg>
