<?xml version="1.0" encoding="UTF-8" standalone="no"?>
<!-- Created with Inkscape (http://www.inkscape.org/) -->

<svg
   xmlns:dc="http://purl.org/dc/elements/1.1/"
   xmlns:cc="http://creativecommons.org/ns#"
   xmlns:rdf="http://www.w3.org/1999/02/22-rdf-syntax-ns#"
   xmlns:svg="http://www.w3.org/2000/svg"
   xmlns="http://www.w3.org/2000/svg"
   xmlns:sodipodi="http://sodipodi.sourceforge.net/DTD/sodipodi-0.dtd"
   xmlns:inkscape="http://www.inkscape.org/namespaces/inkscape"
   width="0.75in"
   height="0.75in"
   viewBox="0 0 67.500001 67.500002"
   id="svg2"
   version="1.1"
   inkscape:version="0.91 r13725"
   sodipodi:docname="unlocked.svg">
  <defs
     id="defs4" />
  <sodipodi:namedview
     id="base"
     pagecolor="#ffffff"
     bordercolor="#666666"
     borderopacity="1.0"
     inkscape:pageopacity="0.0"
     inkscape:pageshadow="2"
     inkscape:zoom="3.959798"
     inkscape:cx="42.374055"
     inkscape:cy="4.085668"
     inkscape:document-units="px"
     inkscape:current-layer="layer1"
     showgrid="false"
     units="in"
     inkscape:window-width="1920"
     inkscape:window-height="1017"
     inkscape:window-x="-8"
     inkscape:window-y="-8"
     inkscape:window-maximized="1"
     showguides="true"
     inkscape:guide-bbox="true">
    <sodipodi:guide
       position="69.447988,54.548239"
       orientation="0,1"
       id="guide3532" />
    <sodipodi:guide
       position="11.869292,-10.606602"
       orientation="1,0"
       id="guide3534" />
    <sodipodi:guide
       position="54.2957,-15.152289"
       orientation="1,0"
       id="guide3536" />
  </sodipodi:namedview>
  <metadata
     id="metadata7">
    <rdf:RDF>
      <cc:Work
         rdf:about="">
        <dc:format>image/svg+xml</dc:format>
        <dc:type
           rdf:resource="http://purl.org/dc/dcmitype/StillImage" />
        <dc:title />
      </cc:Work>
    </rdf:RDF>
  </metadata>
  <g
     inkscape:label="Layer 1"
     inkscape:groupmode="layer"
     id="layer1"
     transform="translate(0,-984.86215)">
    <path
       inkscape:connector-curvature="0"
       style="font-style:normal;font-weight:normal;font-size:medium;line-height:125%;font-family:sans-serif;letter-spacing:0px;word-spacing:0px;fill:#000000;fill-opacity:1;stroke:none;stroke-width:1px;stroke-linecap:butt;stroke-linejoin:miter;stroke-opacity:1"
       d="m 24.631501,1001.8467 c -1.292247,0 -2.408892,0.1066 -3.349847,0.3199 -0.940956,0.2007 -1.743909,0.4955 -2.408852,0.8845 -0.664943,0.3763 -1.204386,0.8342 -1.618409,1.3738 -0.414018,0.5394 -0.734007,1.1416 -0.959837,1.8066 -0.238374,0.6649 -0.395139,1.3863 -0.470417,2.1642 -0.08782,0.7778 -0.131793,1.5934 -0.131793,2.4465 l 0,1.2984 3.745069,0 0,-1.2984 c 0,-0.9535 0.04389,-1.7565 0.131716,-2.4089 0.07528,-0.6524 0.282306,-1.1793 0.621051,-1.5808 0.338745,-0.4014 0.859388,-0.69 1.56197,-0.8657 0.690033,-0.1882 1.649835,-0.2822 2.879349,-0.2822 1.216971,0 2.170397,0.094 2.860431,0.2822 0.677486,0.1757 1.185627,0.4643 1.524371,0.8657 0.338747,0.4015 0.552074,0.9284 0.639894,1.5808 0.07528,0.6524 0.112872,1.4554 0.112872,2.4089 l -0.0079,0 0,5.0811 c -0.351287,0 -0.683784,0.075 -0.997434,0.2258 -0.31365,0.1381 -0.595879,0.3325 -0.8468,0.5835 -0.238373,0.2383 -0.4329,0.5207 -0.583454,0.8469 -0.138006,0.3136 -0.206992,0.6461 -0.206992,0.9973 l 0,14.152 c 0,0.3638 0.06899,0.7089 0.206992,1.0351 0.138006,0.3136 0.326238,0.5897 0.564612,0.8281 0.238379,0.2508 0.514394,0.4453 0.828044,0.5833 0.326199,0.138 0.671195,0.207 1.035032,0.207 l 18.009873,0 c 0.351293,0 0.683786,-0.069 0.997436,-0.207 0.31365,-0.138 0.589667,-0.3325 0.82804,-0.5833 0.238373,-0.2384 0.420313,-0.5145 0.545773,-0.8281 0.138007,-0.3262 0.206993,-0.6713 0.206993,-1.0351 l 0,-14.152 c 0,-0.3512 -0.06899,-0.6837 -0.206993,-0.9973 -0.12546,-0.3262 -0.3074,-0.6086 -0.545773,-0.8469 -0.238373,-0.251 -0.51439,-0.4454 -0.82804,-0.5835 -0.31365,-0.1505 -0.646143,-0.2258 -0.997436,-0.2258 l -14.162861,0 0,-5.0811 c 0,-0.8531 -0.04389,-1.6687 -0.131713,-2.4465 -0.08782,-0.7779 -0.250967,-1.4993 -0.48934,-2.1642 -0.238373,-0.665 -0.564569,-1.2672 -0.978593,-1.8066 -0.42657,-0.5396 -0.972302,-0.9975 -1.637245,-1.3738 -0.66494,-0.389 -1.467899,-0.6838 -2.408853,-0.8845 -0.940959,-0.2133 -2.051232,-0.3199 -3.330932,-0.3199 z"
       id="path3353" />
  </g>
</svg>
