<?xml version="1.0" encoding="UTF-8" standalone="no"?>
<!-- Created with Inkscape (http://www.inkscape.org/) -->

<svg
   xmlns:dc="http://purl.org/dc/elements/1.1/"
   xmlns:cc="http://creativecommons.org/ns#"
   xmlns:rdf="http://www.w3.org/1999/02/22-rdf-syntax-ns#"
   xmlns:svg="http://www.w3.org/2000/svg"
   xmlns="http://www.w3.org/2000/svg"
   xmlns:sodipodi="http://sodipodi.sourceforge.net/DTD/sodipodi-0.dtd"
   xmlns:inkscape="http://www.inkscape.org/namespaces/inkscape"
   width="0.75in"
   height="0.75in"
   viewBox="0 0 67.500001 67.500002"
   id="svg2"
   version="1.1"
   inkscape:version="0.91 r13725"
   sodipodi:docname="unlocked.svg">
  <defs
     id="defs4" />
  <sodipodi:namedview
     id="base"
     pagecolor="#ffffff"
     bordercolor="#666666"
     borderopacity="1.0"
     inkscape:pageopacity="0.0"
     inkscape:pageshadow="2"
     inkscape:zoom="3.959798"
     inkscape:cx="82.780157"
     inkscape:cy="4.085668"
     inkscape:document-units="px"
     inkscape:current-layer="layer1"
     showgrid="false"
     units="in"
     inkscape:window-width="1920"
     inkscape:window-height="1017"
     inkscape:window-x="1672"
     inkscape:window-y="185"
     inkscape:window-maximized="1"
     showguides="true"
     inkscape:guide-bbox="true">
    <sodipodi:guide
       position="69.447988,54.548239"
       orientation="0,1"
       id="guide3532" />
    <sodipodi:guide
       position="11.869292,-10.606602"
       orientation="1,0"
       id="guide3534" />
    <sodipodi:guide
       position="54.2957,-15.152289"
       orientation="1,0"
       id="guide3536" />
  </sodipodi:namedview>
  <metadata
     id="metadata7">
    <rdf:RDF>
      <cc:Work
         rdf:about="">
        <dc:format>image/svg+xml</dc:format>
        <dc:type
           rdf:resource="http://purl.org/dc/dcmitype/StillImage" />
        <dc:title />
      </cc:Work>
    </rdf:RDF>
  </metadata>
  <g
     inkscape:label="Layer 1"
     inkscape:groupmode="layer"
     id="layer1"
     transform="translate(0,-984.86215)">
    <path
       inkscape:connector-curvature="0"
       style="font-style:normal;font-weight:normal;font-size:medium;line-height:125%;font-family:sans-serif;letter-spacing:0px;word-spacing:0px;fill:#000000;fill-opacity:1;stroke:none;stroke-width:1px;stroke-linecap:butt;stroke-linejoin:miter;stroke-opacity:1"
       d="m 22.797563,998.18115 c -1.574738,0 -2.935486,0.1299 -4.082137,0.3899 -1.146652,0.2446 -2.125134,0.6038 -2.935436,1.0778 -0.810302,0.45855 -1.46767,1.01665 -1.972199,1.67415 -0.504524,0.6573 -0.894464,1.3912 -1.169662,2.2015 -0.290483,0.8103 -0.481518,1.6894 -0.573251,2.6373 -0.107023,0.9479 -0.160604,1.9417 -0.160604,2.9814 l 0,1.5822 4.563755,0 0,-1.5822 c 0,-1.162 0.05349,-2.1405 0.16051,-2.9355 0.09173,-0.795 0.344019,-1.4371 0.756815,-1.9264 0.412796,-0.4892 1.047254,-0.8409 1.903423,-1.055 0.840877,-0.2293 2.010495,-0.3439 3.508786,-0.3439 1.483005,0 2.644853,0.1146 3.485731,0.3439 0.825588,0.2141 1.44481,0.5658 1.857605,1.055 0.412798,0.4893 0.672759,1.1314 0.779777,1.9264 0.09173,0.795 0.137547,1.7735 0.137547,2.9355 l -0.0096,0 0,6.1918 c -0.428079,0 -0.833261,0.092 -1.215477,0.2752 -0.382215,0.1682 -0.72614,0.4052 -1.031913,0.711 -0.290483,0.2904 -0.527534,0.6345 -0.710999,1.032 -0.168175,0.3822 -0.252242,0.7874 -0.252242,1.2154 l 0,17.2456 c 0,0.4434 0.08407,0.8639 0.252242,1.2614 0.168174,0.3822 0.397555,0.7186 0.688038,1.0091 0.290489,0.3057 0.626842,0.5427 1.009058,0.7109 0.397507,0.1681 0.81792,0.2522 1.261293,0.2522 l 21.9469,0 c 0.428088,0 0.833265,-0.084 1.21548,-0.2522 0.382215,-0.1682 0.71857,-0.4052 1.009052,-0.7109 0.290483,-0.2905 0.512196,-0.6269 0.665081,-1.0091 0.168176,-0.3975 0.252243,-0.818 0.252243,-1.2614 l 0,-17.2456 c 0,-0.428 -0.08407,-0.8332 -0.252243,-1.2154 -0.152885,-0.3975 -0.374598,-0.7416 -0.665081,-1.032 -0.290482,-0.3058 -0.626837,-0.5428 -1.009052,-0.711 -0.382215,-0.1834 -0.787392,-0.2752 -1.21548,-0.2752 l -17.258916,0 0,-6.1918 c 0,-1.0397 -0.05348,-2.0335 -0.160506,-2.9814 -0.107018,-0.9479 -0.305829,-1.827 -0.596312,-2.6373 -0.290482,-0.8103 -0.687986,-1.5442 -1.192517,-2.2015 -0.519819,-0.6575 -1.184851,-1.2156 -1.995153,-1.67415 -0.810298,-0.474 -1.788787,-0.8332 -2.935437,-1.0778 -1.146657,-0.26 -2.499639,-0.3899 -4.059087,-0.3899 z"
       id="path3353" />
  </g>
</svg>
