<?xml version="1.0" encoding="UTF-8" standalone="no"?>
<svg
   xmlns:dc="http://purl.org/dc/elements/1.1/"
   xmlns:cc="http://creativecommons.org/ns#"
   xmlns:rdf="http://www.w3.org/1999/02/22-rdf-syntax-ns#"
   xmlns:svg="http://www.w3.org/2000/svg"
   xmlns="http://www.w3.org/2000/svg"
   xmlns:sodipodi="http://sodipodi.sourceforge.net/DTD/sodipodi-0.dtd"
   xmlns:inkscape="http://www.inkscape.org/namespaces/inkscape"
   sodipodi:docname="watchtower.svg"
   inkscape:version="1.0 (4035a4fb49, 2020-05-01)"
   version="1.1"
   id="svg2"
   viewBox="0 0 67.500001 67.500002"
   height="0.75in"
   width="0.75in">
  <defs
     id="defs4" />
  <sodipodi:namedview
     inkscape:document-rotation="0"
     inkscape:window-maximized="1"
     inkscape:window-y="-8"
     inkscape:window-x="-8"
     inkscape:window-height="1017"
     inkscape:window-width="1920"
     units="in"
     showgrid="false"
     inkscape:current-layer="layer1"
     inkscape:document-units="px"
     inkscape:cy="-10.375746"
     inkscape:cx="34.865258"
     inkscape:zoom="3.959798"
     inkscape:pageshadow="2"
     inkscape:pageopacity="0.0"
     borderopacity="1.0"
     bordercolor="#666666"
     pagecolor="#ffffff"
     id="base" />
  <metadata
     id="metadata7">
    <rdf:RDF>
      <cc:Work
         rdf:about="">
        <dc:format>image/svg+xml</dc:format>
        <dc:type
           rdf:resource="http://purl.org/dc/dcmitype/StillImage" />
        <dc:title />
      </cc:Work>
    </rdf:RDF>
  </metadata>
  <g
     transform="translate(0,-984.86215)"
     id="layer1"
     inkscape:groupmode="layer"
     inkscape:label="Layer 1">
    <path
       id="path1063"
       d="m 33.750089,996.62294 -9.219423,4.60966 h 2.208783 v 6.8186 h -3.073153 v 4.8017 h 2.971851 l -2.553118,22.9761 -0.06269,0.045 0.05019,0.069 -0.400964,3.6078 -0.09562,0.8588 1.718032,0.1911 0.09561,-0.8591 0.255941,-2.3044 h 16.208878 l 0.255959,2.3042 0.09561,0.8591 1.718068,-0.1912 -0.09561,-0.8589 -0.400859,-3.6078 0.05019,-0.069 -0.06269,-0.046 -2.553101,-22.9758 h 2.971921 v -4.8017 h -3.073135 v -6.8184 h 2.208819 z m -4.609712,6.14626 h 3.073135 v 4.6097 h -3.073135 z m 6.146271,0 H 38.3598 v 4.6097 h -3.073152 z m -9.891683,7.0106 h 1.344484 v 1.3445 h -1.344484 z m 3.073135,0 h 1.344484 v 1.3445 H 28.4681 Z m 3.073134,0 h 1.344521 v 1.3445 h -1.344521 z m 3.073154,0 h 1.344502 v 1.3445 h -1.344502 z m 3.073135,0 h 1.344519 v 1.3445 h -1.344519 z m 3.07317,0 h 1.344484 v 1.3445 h -1.344484 z m -10.883538,3.0731 h 7.745849 l -3.872915,3.4427 z m -1.599016,0.8915 3.967068,3.5261 h -4.358595 l 0.391844,-3.5261 z m 10.943776,0 0.391808,3.5261 h -4.358596 z m -11.527378,5.2548 h 3.013883 l -3.344148,2.9726 0.330354,-2.9726 z m 5.615883,0 h 0.879302 l 4.969841,4.4176 H 28.340579 Z m 3.481284,0 h 3.013918 l 0.330354,2.9726 -3.344447,-2.9726 z m -8.066431,6.1463 h 10.049596 l -5.02478,3.6545 z m -1.805459,0.8246 4.940558,3.5931 h -5.339604 l 0.399239,-3.5931 z m 13.660409,0 0.399257,3.5931 h -5.339605 l 4.940453,-3.5931 z m -14.251441,5.3217 h 3.995138 l -4.346587,3.1609 z m 6.934289,0 h 0.974211 l 6.074252,4.4177 h -13.12282 l 6.074269,-4.4177 z m 3.913468,0 h 3.995068 l 0.351308,3.1609 -4.346464,-3.1609 z"
       inkscape:connector-curvature="0"
       style="fill:#000000;stroke-width:0.113914" />
  </g>
</svg>
