<?xml version="1.0" encoding="UTF-8" standalone="no"?>
<svg
   xmlns:dc="http://purl.org/dc/elements/1.1/"
   xmlns:cc="http://creativecommons.org/ns#"
   xmlns:rdf="http://www.w3.org/1999/02/22-rdf-syntax-ns#"
   xmlns:svg="http://www.w3.org/2000/svg"
   xmlns="http://www.w3.org/2000/svg"
   xmlns:sodipodi="http://sodipodi.sourceforge.net/DTD/sodipodi-0.dtd"
   xmlns:inkscape="http://www.inkscape.org/namespaces/inkscape"
   width="0.75in"
   height="0.75in"
   viewBox="0 0 67.500001 67.500002"
   id="svg2"
   version="1.1"
   inkscape:version="1.0 (4035a4fb49, 2020-05-01)"
   sodipodi:docname="watchtower.svg">
  <defs
     id="defs4" />
  <sodipodi:namedview
     id="base"
     pagecolor="#ffffff"
     bordercolor="#666666"
     borderopacity="1.0"
     inkscape:pageopacity="0.0"
     inkscape:pageshadow="2"
     inkscape:zoom="3.959798"
     inkscape:cx="34.865258"
     inkscape:cy="-10.375746"
     inkscape:document-units="px"
     inkscape:current-layer="layer1"
     showgrid="false"
     units="in"
     inkscape:window-width="1920"
     inkscape:window-height="1017"
     inkscape:window-x="-8"
     inkscape:window-y="-8"
     inkscape:window-maximized="1"
     inkscape:document-rotation="0" />
  <metadata
     id="metadata7">
    <rdf:RDF>
      <cc:Work
         rdf:about="">
        <dc:format>image/svg+xml</dc:format>
        <dc:type
           rdf:resource="http://purl.org/dc/dcmitype/StillImage" />
        <dc:title />
      </cc:Work>
    </rdf:RDF>
  </metadata>
  <g
     inkscape:label="Layer 1"
     inkscape:groupmode="layer"
     id="layer1"
     transform="translate(0,-984.86215)">
    <path
       style="fill:#000000;stroke-width:0.113914"
       inkscape:connector-curvature="0"
       d="m 23.311886,999.14193 -5.679415,8.60177 1.912851,-1.1044 3.40932,5.905 -2.661442,1.5367 2.400853,4.1583 2.573694,-1.4859 9.276981,21.1745 -0.03175,0.07 0.07804,0.034 1.45666,3.3249 0.346585,0.7916 1.583408,-0.6935 -0.346744,-0.7918 -0.930557,-2.1236 14.037298,-8.1045 1.373773,1.8675 0.512343,0.6963 1.392302,-1.0247 -0.512259,-0.696 -2.15104,-2.9241 0.0089,-0.084 -0.07735,-0.01 -13.698932,-18.6212 2.573743,-1.4859 -2.400854,-4.1584 -2.661404,1.5366 -3.409209,-5.9049 1.912903,-1.10445 z m -0.918992,7.62767 2.661403,-1.5366 2.304863,3.9921 -2.661403,1.5365 z m 5.322834,-3.0732 2.661416,-1.5365 2.304863,3.9921 -2.661441,1.5366 z m -5.061144,11.0172 1.164359,-0.6723 0.672252,1.1644 -1.16436,0.6723 z m 2.661405,-1.5365 1.164358,-0.6723 0.672252,1.1644 -1.164359,0.6722 z m 2.661403,-1.5366 1.16441,-0.6723 0.672226,1.1645 -1.164385,0.6722 z m 2.661443,-1.5366 1.164371,-0.6722 0.672251,1.1643 -1.164371,0.6723 z m 2.661403,-1.5365 1.164384,-0.6723 0.672251,1.1644 -1.164383,0.6722 z m 2.661455,-1.5367 1.164358,-0.6722 0.672251,1.1644 -1.164358,0.6722 z m -7.888888,8.1033 6.708116,-3.873 -1.632687,4.9179 z m -0.939023,1.5715 5.198628,1.0701 -3.774656,2.1793 -1.423703,-3.2496 z m 9.477584,-5.4719 2.102359,2.8578 -3.774656,2.1793 z m -7.355605,10.3145 2.610089,-1.5069 -1.409813,4.2464 -1.20019,-2.7396 z m 4.86349,-2.8079 0.761508,-0.4397 6.51281,1.3408 -9.369521,5.4095 z m 3.014896,-1.7407 2.610114,-1.5069 1.772407,2.4091 -4.382667,-0.9022 z m -3.91258,9.356 8.703197,-5.0247 -2.524344,5.6773 z m -1.15129,1.6169 6.0752,0.6415 -4.624216,2.6697 -1.4508,-3.3113 z m 11.830269,-6.8302 2.142314,2.9121 -4.624241,2.6698 2.482025,-5.582 z m -9.681259,11.7345 3.459894,-1.9976 -2.183807,4.9107 z m 6.005274,-3.4672 0.843673,-0.487 7.469318,0.7886 -11.364687,6.5614 3.05161,-6.8629 z m 3.389153,-1.9567 3.459846,-1.9976 1.884687,2.5618 -5.344593,-0.5642 z"
       id="path1063" />
  </g>
</svg>
